<svg xmlns="http://www.w3.org/2000/svg" xmlns:xlink="http://www.w3.org/1999/xlink" width="1024px" height="400px"><style type="text/css">
path { fill: none; stroke: rgb(51,51,51); }
path.series { stroke: #6b63ff; }
rect.background { fill: rgb(255,255,255); stroke: none; }

text {
	stroke-width: 0;
	stroke: none;
	fill: rgba(51,51,51,1.0);
	font-size: 12.8px;
	font-family: 'Roboto Medium', sans-serif;
}
</style><rect x="0" y="0" width="1024px" height="400px" class="background" rx="8" /><rect x="0" y="0" width="1024px" height="400px" class="background" rx="8"></rect><path class="series" d="M 58 345 L 61 345 L 76 344 L 77 344 L 77 344 L 77 343 L 77 343 L 77 342 L 77 342 L 77 342 L 77 341 L 77 341 L 77 341 L 77 340 L 78 340 L 78 339 L 78 339 L 78 339 L 78 338 L 79 338 L 79 337 L 79 337 L 81 337 L 81 336 L 81 336 L 81 336 L 82 335 L 83 335 L 85 334 L 85 334 L 86 334 L 87 333 L 92 333 L 92 332 L 92 332 L 92 332 L 92 331 L 95 331 L 96 331 L 97 330 L 100 330 L 103 329 L 105 329 L 112 329 L 114 328 L 118 328 L 122 327 L 124 327 L 138 327 L 139 326 L 139 326 L 141 326 L 142 325 L 142 325 L 142 324 L 142 324 L 142 324 L 142 323 L 142 323 L 142 322 L 142 322 L 142 322 L 142 321 L 142 321 L 142 321 L 142 320 L 142 320 L 142 319 L 142 319 L 142 319 L 142 318 L 142 318 L 142 317 L 142 317 L 142 317 L 142 316 L 142 316 L 142 316 L 142 315 L 142 315 L 142 314 L 142 314 L 143 314 L 143 313 L 143 313 L 143 313 L 143 312 L 143 312 L 143 311 L 143 311 L 143 311 L 143 310 L 143 310 L 143 309 L 143 309 L 143 309 L 143 308 L 143 308 L 143 308 L 143 307 L 144 307 L 144 306 L 144 306 L 144 306 L 144 305 L 145 305 L 145 304 L 145 304 L 145 304 L 145 303 L 145 303 L 145 303 L 145 302 L 145 302 L 145 301 L 145 301 L 145 301 L 145 300 L 145 300 L 145 299 L 145 299 L 145 299 L 146 298 L 146 298 L 147 298 L 147 297 L 147 297 L 150 296 L 150 296 L 150 296 L 152 295 L 152 295 L 154 294 L 157 294 L 157 294 L 159 293 L 160 293 L 162 293 L 162 292 L 163 292 L 165 291 L 165 291 L 166 291 L 167 290 L 168 290 L 168 289 L 169 289 L 169 289 L 169 288 L 170 288 L 171 288 L 172 287 L 172 287 L 173 286 L 173 286 L 173 286 L 175 285 L 176 285 L 179 284 L 179 284 L 180 284 L 181 283 L 181 283 L 181 283 L 183 282 L 189 282 L 190 281 L 191 281 L 197 281 L 197 280 L 197 280 L 197 280 L 197 279 L 198 279 L 200 278 L 201 278 L 201 278 L 208 277 L 210 277 L 212 276 L 214 276 L 215 276 L 215 275 L 216 275 L 222 275 L 227 274 L 234 274 L 234 273 L 234 273 L 235 273 L 235 272 L 236 272 L 245 271 L 249 271 L 249 271 L 253 270 L 253 270 L 254 270 L 263 269 L 263 269 L 264 268 L 264 268 L 266 268 L 268 267 L 269 267 L 271 266 L 273 266 L 275 266 L 280 265 L 281 265 L 281 265 L 282 264 L 282 264 L 282 263 L 285 263 L 291 263 L 302 262 L 307 262 L 310 261 L 310 261 L 311 261 L 313 260 L 313 260 L 313 260 L 313 259 L 313 259 L 313 258 L 313 258 L 313 258 L 313 257 L 313 257 L 313 256 L 313 256 L 313 256 L 313 255 L 314 255 L 316 255 L 316 254 L 316 254 L 316 253 L 316 253 L 318 253 L 318 252 L 318 252 L 318 251 L 318 251 L 318 251 L 318 250 L 319 250 L 320 250 L 320 249 L 320 249 L 320 248 L 320 248 L 320 248 L 321 247 L 322 247 L 322 247 L 322 246 L 323 246 L 323 245 L 323 245 L 324 245 L 325 244 L 326 244 L 327 243 L 330 243 L 330 243 L 330 242 L 331 242 L 331 242 L 331 241 L 331 241 L 332 240 L 333 240 L 335 240 L 335 239 L 336 239 L 337 238 L 339 238 L 339 238 L 341 237 L 342 237 L 342 237 L 343 236 L 343 236 L 348 235 L 349 235 L 349 235 L 352 234 L 354 234 L 358 233 L 359 233 L 359 233 L 360 232 L 361 232 L 361 232 L 363 231 L 365 231 L 367 230 L 367 230 L 369 230 L 370 229 L 370 229 L 370 228 L 370 228 L 371 228 L 371 227 L 371 227 L 372 227 L 372 226 L 372 226 L 373 225 L 377 225 L 383 225 L 383 224 L 383 224 L 386 223 L 388 223 L 389 223 L 389 222 L 390 222 L 391 222 L 391 221 L 391 221 L 391 220 L 392 220 L 392 220 L 392 219 L 392 219 L 392 218 L 393 218 L 396 218 L 396 217 L 396 217 L 396 217 L 396 216 L 396 216 L 396 215 L 396 215 L 396 215 L 396 214 L 397 214 L 397 214 L 397 213 L 401 213 L 403 212 L 403 212 L 404 212 L 415 211 L 416 211 L 419 210 L 422 210 L 428 210 L 430 209 L 432 209 L 433 209 L 433 208 L 433 208 L 433 207 L 433 207 L 433 207 L 433 206 L 434 206 L 435 205 L 443 205 L 446 205 L 449 204 L 455 204 L 459 204 L 463 203 L 465 203 L 470 202 L 470 202 L 479 202 L 489 201 L 489 201 L 495 200 L 496 200 L 501 200 L 502 199 L 505 199 L 505 199 L 505 198 L 505 198 L 508 197 L 509 197 L 512 197 L 516 196 L 517 196 L 518 195 L 518 195 L 522 195 L 525 194 L 525 194 L 529 194 L 533 193 L 534 193 L 534 192 L 536 192 L 537 192 L 538 191 L 541 191 L 543 190 L 546 190 L 548 190 L 548 189 L 554 189 L 555 189 L 557 188 L 562 188 L 562 187 L 567 187 L 567 187 L 568 186 L 569 186 L 569 185 L 572 185 L 572 185 L 574 184 L 577 184 L 578 184 L 578 183 L 578 183 L 586 182 L 586 182 L 587 182 L 587 181 L 588 181 L 588 181 L 588 180 L 589 180 L 589 179 L 591 179 L 591 179 L 593 178 L 594 178 L 594 177 L 595 177 L 595 177 L 595 176 L 596 176 L 597 176 L 597 175 L 597 175 L 597 174 L 598 174 L 598 174 L 599 173 L 600 173 L 600 172 L 601 172 L 602 172 L 602 171 L 603 171 L 604 171 L 605 170 L 605 170 L 607 169 L 608 169 L 608 169 L 609 168 L 609 168 L 611 167 L 611 167 L 611 167 L 612 166 L 612 166 L 612 166 L 612 165 L 613 165 L 613 164 L 614 164 L 617 164 L 619 163 L 620 163 L 620 162 L 623 162 L 624 162 L 625 161 L 627 161 L 629 161 L 632 160 L 634 160 L 635 159 L 635 159 L 635 159 L 635 158 L 636 158 L 636 157 L 636 157 L 638 157 L 638 156 L 638 156 L 638 156 L 640 155 L 641 155 L 641 154 L 642 154 L 642 154 L 644 153 L 645 153 L 645 152 L 646 152 L 647 152 L 649 151 L 652 151 L 656 151 L 656 150 L 656 150 L 656 149 L 658 149 L 661 149 L 661 148 L 661 148 L 661 148 L 662 147 L 664 147 L 667 146 L 667 146 L 667 146 L 667 145 L 669 145 L 670 144 L 670 144 L 670 144 L 673 143 L 677 143 L 677 143 L 681 142 L 681 142 L 682 141 L 685 141 L 687 141 L 689 140 L 691 140 L 693 139 L 694 139 L 694 139 L 695 138 L 695 138 L 695 138 L 695 137 L 696 137 L 696 136 L 696 136 L 697 136 L 697 135 L 697 135 L 699 134 L 700 134 L 700 134 L 705 133 L 706 133 L 711 133 L 713 132 L 713 132 L 714 131 L 715 131 L 717 131 L 718 130 L 719 130 L 719 129 L 719 129 L 719 129 L 719 128 L 720 128 L 720 128 L 721 127 L 721 127 L 721 126 L 721 126 L 721 126 L 722 125 L 722 125 L 722 124 L 724 124 L 724 124 L 724 123 L 725 123 L 726 123 L 726 122 L 726 122 L 727 121 L 728 121 L 731 121 L 731 120 L 731 120 L 731 119 L 731 119 L 733 119 L 733 118 L 733 118 L 734 118 L 736 117 L 739 117 L 742 116 L 743 116 L 745 116 L 748 115 L 752 115 L 752 115 L 755 114 L 759 114 L 759 113 L 759 113 L 765 113 L 766 112 L 767 112 L 767 111 L 767 111 L 776 111 L 777 110 L 778 110 L 778 110 L 778 109 L 779 109 L 780 108 L 781 108 L 781 108 L 782 107 L 782 107 L 782 106 L 783 106 L 783 106 L 783 105 L 783 105 L 783 105 L 784 104 L 784 104 L 786 103 L 787 103 L 788 103 L 788 102 L 788 102 L 789 101 L 790 101 L 791 101 L 791 100 L 792 100 L 792 100 L 792 99 L 793 99 L 794 98 L 795 98 L 796 98 L 796 97 L 797 97 L 798 96 L 798 96 L 799 96 L 799 95 L 799 95 L 800 95 L 800 94 L 800 94 L 801 93 L 801 93 L 803 93 L 803 92 L 803 92 L 804 91 L 804 91 L 804 91 L 805 90 L 805 90 L 805 90 L 806 89 L 806 89 L 807 88 L 807 88 L 808 88 L 808 87 L 808 87 L 808 86 L 808 86 L 809 86 L 809 85 L 809 85 L 809 85 L 809 84 L 812 84 L 813 83 L 815 83 L 815 83 L 815 82 L 815 82 L 817 82 L 818 81 L 818 81 L 819 80 L 822 80 L 824 80 L 825 79 L 826 79 L 827 78 L 827 78 L 828 78 L 828 77 L 829 77 L 829 77 L 829 76 L 829 76 L 829 75 L 829 75 L 829 75 L 829 74 L 829 74 L 830 73 L 830 73 L 830 73 L 830 72 L 831 72 L 831 72 L 831 71 L 832 71 L 833 70 L 834 70 L 835 70 L 835 69 L 835 69 L 837 68 L 837 68 L 838 68 L 840 67 L 841 67 L 841 67 L 841 66 L 841 66 L 842 65 L 844 65 L 846 65 L 847 64 L 849 64 L 849 63 L 849 63 L 849 63 L 850 62 L 855 62 L 858 62 L 861 61 L 862 61 L 863 60 L 864 60 L 866 60 L 866 59 L 866 59 L 866 58 L 867 58 L 868 58 L 868 57 L 869 57 L 870 57 L 872 56 L 872 56 L 872 55 L 872 55 L 872 55 L 872 54 L 872 54 L 872 53 L 872 53 L 872 53 L 872 52 L 872 52 L 872 52 L 872 51 L 873 51 L 873 50 L 873 50 L 873 50 L 874 49 L 874 49 L 874 49 L 874 48 L 874 48 L 874 47 L 875 47 L 875 47 L 875 46 L 876 46 L 876 45 L 876 45 L 876 45 L 876 44 L 876 44 L 878 44 L 879 43 L 881 43 L 882 42 L 882 42 L 883 42 L 883 41 L 884 41 L 885 40 L 887 40 L 888 40 L 889 39 L 889 39 L 889 39 L 889 38 L 889 38 L 889 37 L 889 37 L 892 37 L 892 36 L 892 36 L 896 35 L 898 35 L 900 35 L 902 34 L 903 34 L 904 34 L 905 33 L 905 33 L 905 32 L 905 32 L 906 32 L 906 31 L 907 31 L 908 30 L 908 30 L 908 30 L 909 29 L 909 29 L 909 29 L 909 28 L 909 28 L 909 27 L 910 27 L 910 27 L 910 26 L 912 26 L 912 25 L 913 25 L 913 25 L 914 24 L 914 24 L 914 24 L 915 23 L 915 23 L 915 22 L 916 22 L 917 22 L 918 21 L 922 21 L 923 20 L 924 20 L 927 20 L 928 19 L 929 19 L 933 19 L 933 18 L 934 18 L 937 17 L 943 17 L 944 17 L 945 16" stroke-width="2" /><path d="M 58 345 L 61 345 L 76 344 L 77 344 L 77 344 L 77 343 L 77 343 L 77 342 L 77 342 L 77 342 L 77 341 L 77 341 L 77 341 L 77 340 L 78 340 L 78 339 L 78 339 L 78 339 L 78 338 L 79 338 L 79 337 L 79 337 L 81 337 L 81 336 L 81 336 L 81 336 L 82 335 L 83 335 L 85 334 L 85 334 L 86 334 L 87 333 L 92 333 L 92 332 L 92 332 L 92 332 L 92 331 L 95 331 L 96 331 L 97 330 L 100 330 L 103 329 L 105 329 L 112 329 L 114 328 L 118 328 L 122 327 L 124 327 L 138 327 L 139 326 L 139 326 L 141 326 L 142 325 L 142 325 L 142 324 L 142 324 L 142 324 L 142 323 L 142 323 L 142 322 L 142 322 L 142 322 L 142 321 L 142 321 L 142 321 L 142 320 L 142 320 L 142 319 L 142 319 L 142 319 L 142 318 L 142 318 L 142 317 L 142 317 L 142 317 L 142 316 L 142 316 L 142 316 L 142 315 L 142 315 L 142 314 L 142 314 L 143 314 L 143 313 L 143 313 L 143 313 L 143 312 L 143 312 L 143 311 L 143 311 L 143 311 L 143 310 L 143 310 L 143 309 L 143 309 L 143 309 L 143 308 L 143 308 L 143 308 L 143 307 L 144 307 L 144 306 L 144 306 L 144 306 L 144 305 L 145 305 L 145 304 L 145 304 L 145 304 L 145 303 L 145 303 L 145 303 L 145 302 L 145 302 L 145 301 L 145 301 L 145 301 L 145 300 L 145 300 L 145 299 L 145 299 L 145 299 L 146 298 L 146 298 L 147 298 L 147 297 L 147 297 L 150 296 L 150 296 L 150 296 L 152 295 L 152 295 L 154 294 L 157 294 L 157 294 L 159 293 L 160 293 L 162 293 L 162 292 L 163 292 L 165 291 L 165 291 L 166 291 L 167 290 L 168 290 L 168 289 L 169 289 L 169 289 L 169 288 L 170 288 L 171 288 L 172 287 L 172 287 L 173 286 L 173 286 L 173 286 L 175 285 L 176 285 L 179 284 L 179 284 L 180 284 L 181 283 L 181 283 L 181 283 L 183 282 L 189 282 L 190 281 L 191 281 L 197 281 L 197 280 L 197 280 L 197 280 L 197 279 L 198 279 L 200 278 L 201 278 L 201 278 L 208 277 L 210 277 L 212 276 L 214 276 L 215 276 L 215 275 L 216 275 L 222 275 L 227 274 L 234 274 L 234 273 L 234 273 L 235 273 L 235 272 L 236 272 L 245 271 L 249 271 L 249 271 L 253 270 L 253 270 L 254 270 L 263 269 L 263 269 L 264 268 L 264 268 L 266 268 L 268 267 L 269 267 L 271 266 L 273 266 L 275 266 L 280 265 L 281 265 L 281 265 L 282 264 L 282 264 L 282 263 L 285 263 L 291 263 L 302 262 L 307 262 L 310 261 L 310 261 L 311 261 L 313 260 L 313 260 L 313 260 L 313 259 L 313 259 L 313 258 L 313 258 L 313 258 L 313 257 L 313 257 L 313 256 L 313 256 L 313 256 L 313 255 L 314 255 L 316 255 L 316 254 L 316 254 L 316 253 L 316 253 L 318 253 L 318 252 L 318 252 L 318 251 L 318 251 L 318 251 L 318 250 L 319 250 L 320 250 L 320 249 L 320 249 L 320 248 L 320 248 L 320 248 L 321 247 L 322 247 L 322 247 L 322 246 L 323 246 L 323 245 L 323 245 L 324 245 L 325 244 L 326 244 L 327 243 L 330 243 L 330 243 L 330 242 L 331 242 L 331 242 L 331 241 L 331 241 L 332 240 L 333 240 L 335 240 L 335 239 L 336 239 L 337 238 L 339 238 L 339 238 L 341 237 L 342 237 L 342 237 L 343 236 L 343 236 L 348 235 L 349 235 L 349 235 L 352 234 L 354 234 L 358 233 L 359 233 L 359 233 L 360 232 L 361 232 L 361 232 L 363 231 L 365 231 L 367 230 L 367 230 L 369 230 L 370 229 L 370 229 L 370 228 L 370 228 L 371 228 L 371 227 L 371 227 L 372 227 L 372 226 L 372 226 L 373 225 L 377 225 L 383 225 L 383 224 L 383 224 L 386 223 L 388 223 L 389 223 L 389 222 L 390 222 L 391 222 L 391 221 L 391 221 L 391 220 L 392 220 L 392 220 L 392 219 L 392 219 L 392 218 L 393 218 L 396 218 L 396 217 L 396 217 L 396 217 L 396 216 L 396 216 L 396 215 L 396 215 L 396 215 L 396 214 L 397 214 L 397 214 L 397 213 L 401 213 L 403 212 L 403 212 L 404 212 L 415 211 L 416 211 L 419 210 L 422 210 L 428 210 L 430 209 L 432 209 L 433 209 L 433 208 L 433 208 L 433 207 L 433 207 L 433 207 L 433 206 L 434 206 L 435 205 L 443 205 L 446 205 L 449 204 L 455 204 L 459 204 L 463 203 L 465 203 L 470 202 L 470 202 L 479 202 L 489 201 L 489 201 L 495 200 L 496 200 L 501 200 L 502 199 L 505 199 L 505 199 L 505 198 L 505 198 L 508 197 L 509 197 L 512 197 L 516 196 L 517 196 L 518 195 L 518 195 L 522 195 L 525 194 L 525 194 L 529 194 L 533 193 L 534 193 L 534 192 L 536 192 L 537 192 L 538 191 L 541 191 L 543 190 L 546 190 L 548 190 L 548 189 L 554 189 L 555 189 L 557 188 L 562 188 L 562 187 L 567 187 L 567 187 L 568 186 L 569 186 L 569 185 L 572 185 L 572 185 L 574 184 L 577 184 L 578 184 L 578 183 L 578 183 L 586 182 L 586 182 L 587 182 L 587 181 L 588 181 L 588 181 L 588 180 L 589 180 L 589 179 L 591 179 L 591 179 L 593 178 L 594 178 L 594 177 L 595 177 L 595 177 L 595 176 L 596 176 L 597 176 L 597 175 L 597 175 L 597 174 L 598 174 L 598 174 L 599 173 L 600 173 L 600 172 L 601 172 L 602 172 L 602 171 L 603 171 L 604 171 L 605 170 L 605 170 L 607 169 L 608 169 L 608 169 L 609 168 L 609 168 L 611 167 L 611 167 L 611 167 L 612 166 L 612 166 L 612 166 L 612 165 L 613 165 L 613 164 L 614 164 L 617 164 L 619 163 L 620 163 L 620 162 L 623 162 L 624 162 L 625 161 L 627 161 L 629 161 L 632 160 L 634 160 L 635 159 L 635 159 L 635 159 L 635 158 L 636 158 L 636 157 L 636 157 L 638 157 L 638 156 L 638 156 L 638 156 L 640 155 L 641 155 L 641 154 L 642 154 L 642 154 L 644 153 L 645 153 L 645 152 L 646 152 L 647 152 L 649 151 L 652 151 L 656 151 L 656 150 L 656 150 L 656 149 L 658 149 L 661 149 L 661 148 L 661 148 L 661 148 L 662 147 L 664 147 L 667 146 L 667 146 L 667 146 L 667 145 L 669 145 L 670 144 L 670 144 L 670 144 L 673 143 L 677 143 L 677 143 L 681 142 L 681 142 L 682 141 L 685 141 L 687 141 L 689 140 L 691 140 L 693 139 L 694 139 L 694 139 L 695 138 L 695 138 L 695 138 L 695 137 L 696 137 L 696 136 L 696 136 L 697 136 L 697 135 L 697 135 L 699 134 L 700 134 L 700 134 L 705 133 L 706 133 L 711 133 L 713 132 L 713 132 L 714 131 L 715 131 L 717 131 L 718 130 L 719 130 L 719 129 L 719 129 L 719 129 L 719 128 L 720 128 L 720 128 L 721 127 L 721 127 L 721 126 L 721 126 L 721 126 L 722 125 L 722 125 L 722 124 L 724 124 L 724 124 L 724 123 L 725 123 L 726 123 L 726 122 L 726 122 L 727 121 L 728 121 L 731 121 L 731 120 L 731 120 L 731 119 L 731 119 L 733 119 L 733 118 L 733 118 L 734 118 L 736 117 L 739 117 L 742 116 L 743 116 L 745 116 L 748 115 L 752 115 L 752 115 L 755 114 L 759 114 L 759 113 L 759 113 L 765 113 L 766 112 L 767 112 L 767 111 L 767 111 L 776 111 L 777 110 L 778 110 L 778 110 L 778 109 L 779 109 L 780 108 L 781 108 L 781 108 L 782 107 L 782 107 L 782 106 L 783 106 L 783 106 L 783 105 L 783 105 L 783 105 L 784 104 L 784 104 L 786 103 L 787 103 L 788 103 L 788 102 L 788 102 L 789 101 L 790 101 L 791 101 L 791 100 L 792 100 L 792 100 L 792 99 L 793 99 L 794 98 L 795 98 L 796 98 L 796 97 L 797 97 L 798 96 L 798 96 L 799 96 L 799 95 L 799 95 L 800 95 L 800 94 L 800 94 L 801 93 L 801 93 L 803 93 L 803 92 L 803 92 L 804 91 L 804 91 L 804 91 L 805 90 L 805 90 L 805 90 L 806 89 L 806 89 L 807 88 L 807 88 L 808 88 L 808 87 L 808 87 L 808 86 L 808 86 L 809 86 L 809 85 L 809 85 L 809 85 L 809 84 L 812 84 L 813 83 L 815 83 L 815 83 L 815 82 L 815 82 L 817 82 L 818 81 L 818 81 L 819 80 L 822 80 L 824 80 L 825 79 L 826 79 L 827 78 L 827 78 L 828 78 L 828 77 L 829 77 L 829 77 L 829 76 L 829 76 L 829 75 L 829 75 L 829 75 L 829 74 L 829 74 L 830 73 L 830 73 L 830 73 L 830 72 L 831 72 L 831 72 L 831 71 L 832 71 L 833 70 L 834 70 L 835 70 L 835 69 L 835 69 L 837 68 L 837 68 L 838 68 L 840 67 L 841 67 L 841 67 L 841 66 L 841 66 L 842 65 L 844 65 L 846 65 L 847 64 L 849 64 L 849 63 L 849 63 L 849 63 L 850 62 L 855 62 L 858 62 L 861 61 L 862 61 L 863 60 L 864 60 L 866 60 L 866 59 L 866 59 L 866 58 L 867 58 L 868 58 L 868 57 L 869 57 L 870 57 L 872 56 L 872 56 L 872 55 L 872 55 L 872 55 L 872 54 L 872 54 L 872 53 L 872 53 L 872 53 L 872 52 L 872 52 L 872 52 L 872 51 L 873 51 L 873 50 L 873 50 L 873 50 L 874 49 L 874 49 L 874 49 L 874 48 L 874 48 L 874 47 L 875 47 L 875 47 L 875 46 L 876 46 L 876 45 L 876 45 L 876 45 L 876 44 L 876 44 L 878 44 L 879 43 L 881 43 L 882 42 L 882 42 L 883 42 L 883 41 L 884 41 L 885 40 L 887 40 L 888 40 L 889 39 L 889 39 L 889 39 L 889 38 L 889 38 L 889 37 L 889 37 L 892 37 L 892 36 L 892 36 L 896 35 L 898 35 L 900 35 L 902 34 L 903 34 L 904 34 L 905 33 L 905 33 L 905 32 L 905 32 L 906 32 L 906 31 L 907 31 L 908 30 L 908 30 L 908 30 L 909 29 L 909 29 L 909 29 L 909 28 L 909 28 L 909 27 L 910 27 L 910 27 L 910 26 L 912 26 L 912 25 L 913 25 L 913 25 L 914 24 L 914 24 L 914 24 L 915 23 L 915 23 L 915 22 L 916 22 L 917 22 L 918 21 L 922 21 L 923 20 L 924 20 L 927 20 L 928 19 L 929 19 L 933 19 L 933 18 L 934 18 L 937 17 L 943 17 L 944 17 L 945 16" stroke-width="2" class="series"></path><path stroke-width="2" d="M 945 346 L 945.000000 15.000000" /><path stroke-width="2" d="M 945 346 L 945.000000 15.000000"></path><path stroke-width="2" d="M 945 346 L 950 346" /><path stroke-width="2" d="M 945 346 L 950 346"></path><text x="955" y="352" xmlns="http://www.w3.org/2000/svg">0</text><path stroke-width="2" d="M 945 309 L 950 309" /><path stroke-width="2" d="M 945 309 L 950 309"></path><text xmlns="http://www.w3.org/2000/svg" x="955" y="315">96</text><path stroke-width="2" d="M 945 272 L 950 272" /><path stroke-width="2" d="M 945 272 L 950 272"></path><text xmlns="http://www.w3.org/2000/svg" x="955" y="278">192</text><path stroke-width="2" d="M 945 235 L 950 235" /><path stroke-width="2" d="M 945 235 L 950 235"></path><text xmlns="http://www.w3.org/2000/svg" x="955" y="241">287</text><path stroke-width="2" d="M 945 199 L 950 199" /><path stroke-width="2" d="M 945 199 L 950 199"></path><text xmlns="http://www.w3.org/2000/svg" x="955" y="205">383</text><path stroke-width="2" d="M 945 162 L 950 162" /><path stroke-width="2" d="M 945 162 L 950 162"></path><text xmlns="http://www.w3.org/2000/svg" x="955" y="168">478</text><path stroke-width="2" d="M 945 125 L 950 125" /><path stroke-width="2" d="M 945 125 L 950 125"></path><text xmlns="http://www.w3.org/2000/svg" x="955" y="131">574</text><path stroke-width="2" d="M 945 89 L 950 89" /><path stroke-width="2" d="M 945 89 L 950 89"></path><text y="95" xmlns="http://www.w3.org/2000/svg" x="955">669</text><path stroke-width="2" d="M 945 52 L 950 52" /><path stroke-width="2" d="M 945 52 L 950 52"></path><text xmlns="http://www.w3.org/2000/svg" x="955" y="58">765</text><path stroke-width="2" d="M 945 16 L 950 16" /><path stroke-width="2" d="M 945 16 L 950 16"></path><text xmlns="http://www.w3.org/2000/svg" x="955" y="22">860</text><text x="987" y="175" transform="rotate(90.00,987,175)" xmlns="http://www.w3.org/2000/svg">Stargazers</text><path stroke-width="2" d="M 57.000000 346.000000 L 945 346" /><path stroke-width="2" d="M 57.000000 346.000000 L 945 346"></path><path stroke-width="2" d="M 58 346 L 58 351" /><path stroke-width="2" d="M 58 346 L 58 351"></path><text xmlns="http://www.w3.org/2000/svg" x="25" y="368">2023-04-02</text><path stroke-width="2" d="M 157 346 L 157 351" /><path stroke-width="2" d="M 157 346 L 157 351"></path><text xmlns="http://www.w3.org/2000/svg" x="124" y="368">2023-06-17</text><path stroke-width="2" d="M 256 346 L 256 351" /><path stroke-width="2" d="M 256 346 L 256 351"></path><text xmlns="http://www.w3.org/2000/svg" x="223" y="368">2023-09-01</text><path d="M 354 346 L 354 351" stroke-width="2" /><path d="M 354 346 L 354 351" stroke-width="2"></path><text xmlns="http://www.w3.org/2000/svg" x="321" y="368">2023-11-16</text><path d="M 453 346 L 453 351" stroke-width="2" /><path stroke-width="2" d="M 453 346 L 453 351"></path><text xmlns="http://www.w3.org/2000/svg" x="420" y="368">2024-01-31</text><path stroke-width="2" d="M 551 346 L 551 351" /><path stroke-width="2" d="M 551 346 L 551 351"></path><text y="368" xmlns="http://www.w3.org/2000/svg" x="518">2024-04-16</text><path d="M 650 346 L 650 351" stroke-width="2" /><path d="M 650 346 L 650 351" stroke-width="2"></path><text xmlns="http://www.w3.org/2000/svg" x="617" y="368">2024-07-01</text><path stroke-width="2" d="M 748 346 L 748 351" /><path d="M 748 346 L 748 351" stroke-width="2"></path><text x="715" y="368" xmlns="http://www.w3.org/2000/svg">2024-09-15</text><path stroke-width="2" d="M 847 346 L 847 351" /><path stroke-width="2" d="M 847 346 L 847 351"></path><text xmlns="http://www.w3.org/2000/svg" x="814" y="368">2024-11-30</text><path stroke-width="2" d="M 945 346 L 945 351" /><path d="M 945 346 L 945 351" stroke-width="2"></path><text xmlns="http://www.w3.org/2000/svg" x="912" y="368">2025-02-14</text><text xmlns="http://www.w3.org/2000/svg" x="487" y="390">Time</text></svg>