<svg xmlns:xlink="http://www.w3.org/1999/xlink" width="1024px" height="400px" xmlns="http://www.w3.org/2000/svg"><style type="text/css">
path { fill: none; stroke: rgb(51,51,51); }
path.series { stroke: #6b63ff; }
rect.background { fill: rgb(255,255,255); stroke: none; }

text {
	stroke-width: 0;
	stroke: none;
	fill: rgba(51,51,51,1.0);
	font-size: 12.8px;
	font-family: 'Roboto Medium', sans-serif;
}
</style><rect x="0" y="0" width="1024px" height="400px" class="background" rx="8" /><rect x="0" y="0" width="1024px" height="400px" class="background" rx="8"></rect><path stroke-width="2" class="series" d="M 58 345 L 61 345 L 75 344 L 75 344 L 75 344 L 75 343 L 75 343 L 75 343 L 75 342 L 75 342 L 75 342 L 75 341 L 76 341 L 76 341 L 76 340 L 76 340 L 76 340 L 76 339 L 76 339 L 77 339 L 77 338 L 77 338 L 78 338 L 79 337 L 79 337 L 79 336 L 80 336 L 80 336 L 82 335 L 82 335 L 83 335 L 84 334 L 89 334 L 89 334 L 89 333 L 89 333 L 89 333 L 91 332 L 93 332 L 93 332 L 95 331 L 99 331 L 100 331 L 107 330 L 109 330 L 112 330 L 115 329 L 117 329 L 130 328 L 131 328 L 131 328 L 133 327 L 133 327 L 133 327 L 133 326 L 133 326 L 133 326 L 133 325 L 133 325 L 133 325 L 133 324 L 133 324 L 133 324 L 134 323 L 134 323 L 134 323 L 134 322 L 134 322 L 134 322 L 134 321 L 134 321 L 134 320 L 134 320 L 134 320 L 134 319 L 134 319 L 134 319 L 134 318 L 134 318 L 134 318 L 134 317 L 134 317 L 134 317 L 134 316 L 134 316 L 134 316 L 134 315 L 134 315 L 134 315 L 134 314 L 134 314 L 134 314 L 134 313 L 134 313 L 134 313 L 134 312 L 134 312 L 135 311 L 135 311 L 135 311 L 135 310 L 135 310 L 135 310 L 135 309 L 136 309 L 136 309 L 136 308 L 136 308 L 136 308 L 136 307 L 136 307 L 136 307 L 136 306 L 136 306 L 136 306 L 136 305 L 136 305 L 136 305 L 136 304 L 136 304 L 136 303 L 137 303 L 137 303 L 138 302 L 138 302 L 138 302 L 138 301 L 141 301 L 141 301 L 141 300 L 142 300 L 142 300 L 144 299 L 147 299 L 147 299 L 149 298 L 150 298 L 151 298 L 152 297 L 152 297 L 154 297 L 154 296 L 155 296 L 156 295 L 157 295 L 157 295 L 158 294 L 158 294 L 158 294 L 159 293 L 160 293 L 160 293 L 161 292 L 161 292 L 161 292 L 162 291 L 163 291 L 164 291 L 166 290 L 167 290 L 168 290 L 169 289 L 169 289 L 169 289 L 170 288 L 176 288 L 176 287 L 177 287 L 183 287 L 183 286 L 183 286 L 183 286 L 183 285 L 184 285 L 186 285 L 187 284 L 187 284 L 193 284 L 195 283 L 196 283 L 198 283 L 200 282 L 200 282 L 201 282 L 205 281 L 210 281 L 216 281 L 217 280 L 217 280 L 217 280 L 217 279 L 218 279 L 226 278 L 230 278 L 230 278 L 233 277 L 234 277 L 234 277 L 243 276 L 243 276 L 243 276 L 244 275 L 245 275 L 247 275 L 248 274 L 250 274 L 251 274 L 253 273 L 258 273 L 258 273 L 259 272 L 259 272 L 259 272 L 260 271 L 262 271 L 267 270 L 278 270 L 282 270 L 284 269 L 285 269 L 286 269 L 287 268 L 287 268 L 287 268 L 287 267 L 287 267 L 287 267 L 287 266 L 287 266 L 287 266 L 287 265 L 287 265 L 287 265 L 288 264 L 288 264 L 288 264 L 290 263 L 290 263 L 290 262 L 290 262 L 292 262 L 292 261 L 292 261 L 292 261 L 292 260 L 292 260 L 292 260 L 293 259 L 293 259 L 294 259 L 294 258 L 294 258 L 294 258 L 294 257 L 295 257 L 295 257 L 295 256 L 295 256 L 296 256 L 296 255 L 297 255 L 297 254 L 298 254 L 299 254 L 300 253 L 302 253 L 302 253 L 303 252 L 303 252 L 303 252 L 303 251 L 303 251 L 305 251 L 305 250 L 307 250 L 307 250 L 308 249 L 309 249 L 311 249 L 311 248 L 313 248 L 313 248 L 314 247 L 315 247 L 315 247 L 319 246 L 319 246 L 320 245 L 323 245 L 325 245 L 328 244 L 329 244 L 329 244 L 330 243 L 330 243 L 330 243 L 333 242 L 335 242 L 336 242 L 336 241 L 337 241 L 338 241 L 339 240 L 339 240 L 339 240 L 339 239 L 339 239 L 340 239 L 341 238 L 341 238 L 341 237 L 341 237 L 345 237 L 350 236 L 350 236 L 350 236 L 353 235 L 355 235 L 355 235 L 356 234 L 357 234 L 358 234 L 358 233 L 358 233 L 358 233 L 358 232 L 358 232 L 358 232 L 359 231 L 359 231 L 360 231 L 362 230 L 362 230 L 362 229 L 362 229 L 362 229 L 362 228 L 362 228 L 362 228 L 363 227 L 363 227 L 363 227 L 363 226 L 363 226 L 366 226 L 369 225 L 369 225 L 370 225 L 379 224 L 380 224 L 383 224 L 385 223 L 393 223 L 395 223 L 395 222 L 395 222 L 395 221 L 395 221 L 395 221 L 395 220 L 397 220 L 398 220 L 405 219 L 407 219 L 409 219 L 415 218 L 419 218 L 422 218 L 424 217 L 428 217 L 429 217 L 437 216 L 445 216 L 445 216 L 451 215 L 452 215 L 456 215 L 457 214 L 460 214 L 460 214 L 460 213 L 460 213 L 463 212 L 464 212 L 467 212 L 470 211 L 471 211 L 472 211 L 472 210 L 475 210 L 478 210 L 478 209 L 482 209 L 486 209 L 486 208 L 486 208 L 488 208 L 489 207 L 490 207 L 492 207 L 495 206 L 497 206 L 499 206 L 499 205 L 504 205 L 505 204 L 507 204 L 511 204 L 511 203 L 516 203 L 516 203 L 516 202 L 518 202 L 518 202 L 520 201 L 520 201 L 522 201 L 525 200 L 526 200 L 526 200 L 526 199 L 533 199 L 533 199 L 534 198 L 534 198 L 534 198 L 535 197 L 535 197 L 536 196 L 536 196 L 538 196 L 538 195 L 539 195 L 540 195 L 540 194 L 541 194 L 542 194 L 542 193 L 542 193 L 543 193 L 543 192 L 543 192 L 543 192 L 543 191 L 544 191 L 545 191 L 546 190 L 546 190 L 546 190 L 547 189 L 547 189 L 549 188 L 550 188 L 550 188 L 550 187 L 552 187 L 553 187 L 553 186 L 553 186 L 554 186 L 556 185 L 556 185 L 556 185 L 556 184 L 556 184 L 557 184 L 557 183 L 557 183 L 557 183 L 558 182 L 561 182 L 562 182 L 563 181 L 564 181 L 566 181 L 567 180 L 568 180 L 569 179 L 572 179 L 574 179 L 576 178 L 577 178 L 577 178 L 577 177 L 577 177 L 578 177 L 578 176 L 578 176 L 579 176 L 579 175 L 580 175 L 580 175 L 581 174 L 582 174 L 582 174 L 583 173 L 583 173 L 586 173 L 586 172 L 586 172 L 587 171 L 588 171 L 590 171 L 592 170 L 596 170 L 596 170 L 596 169 L 596 169 L 598 169 L 600 168 L 601 168 L 601 168 L 601 167 L 601 167 L 603 167 L 606 166 L 606 166 L 606 166 L 606 165 L 608 165 L 608 165 L 609 164 L 609 164 L 611 163 L 615 163 L 615 163 L 618 162 L 618 162 L 619 162 L 623 161 L 624 161 L 626 161 L 628 160 L 629 160 L 630 160 L 630 159 L 631 159 L 631 159 L 631 158 L 631 158 L 632 158 L 632 157 L 632 157 L 633 157 L 633 156 L 633 156 L 634 155 L 635 155 L 636 155 L 640 154 L 641 154 L 645 154 L 647 153 L 647 153 L 648 153 L 649 152 L 651 152 L 652 152 L 652 151 L 652 151 L 653 151 L 653 150 L 653 150 L 653 150 L 653 149 L 654 149 L 654 149 L 654 148 L 654 148 L 655 148 L 655 147 L 655 147 L 657 146 L 657 146 L 657 146 L 658 145 L 659 145 L 659 145 L 659 144 L 660 144 L 661 144 L 664 143 L 664 143 L 664 143 L 664 142 L 664 142 L 665 142 L 665 141 L 665 141 L 666 141 L 668 140 L 670 140 L 673 140 L 674 139 L 676 139 L 679 138 L 682 138 L 683 138 L 685 137 L 689 137 L 689 137 L 689 136 L 694 136 L 695 136 L 696 135 L 696 135 L 696 135 L 704 134 L 705 134 L 705 134 L 705 133 L 706 133 L 707 133 L 708 132 L 708 132 L 708 132 L 709 131 L 709 131 L 710 130 L 710 130 L 710 130 L 710 129 L 710 129 L 711 129 L 711 128 L 711 128 L 712 128 L 714 127 L 715 127 L 715 127 L 715 126 L 716 126 L 716 126 L 717 125 L 718 125 L 718 125 L 718 124 L 719 124 L 719 124 L 720 123 L 721 123 L 722 122 L 722 122 L 723 122 L 724 121 L 724 121 L 724 121 L 724 120 L 724 120 L 725 120 L 725 119 L 726 119 L 727 119 L 727 118 L 728 118 L 729 118 L 729 117 L 729 117 L 729 117 L 729 116 L 730 116 L 730 116 L 730 115 L 731 115 L 731 115 L 731 114 L 732 114 L 732 113 L 732 113 L 733 113 L 733 112 L 733 112 L 733 112 L 733 111 L 734 111 L 734 111 L 734 110 L 736 110 L 737 110 L 739 109 L 739 109 L 739 109 L 739 108 L 741 108 L 742 108 L 742 107 L 743 107 L 745 107 L 747 106 L 748 106 L 749 105 L 750 105 L 750 105 L 751 104 L 751 104 L 751 104 L 751 103 L 751 103 L 752 103 L 752 102 L 752 102 L 752 102 L 752 101 L 752 101 L 752 101 L 752 100 L 753 100 L 753 100 L 753 99 L 754 99 L 754 99 L 755 98 L 756 98 L 757 97 L 757 97 L 757 97 L 758 96 L 758 96 L 759 96 L 762 95 L 763 95 L 763 95 L 763 94 L 763 94 L 763 94 L 765 93 L 767 93 L 768 93 L 769 92 L 769 92 L 770 92 L 770 91 L 771 91 L 775 91 L 778 90 L 780 90 L 782 89 L 783 89 L 784 89 L 785 88 L 785 88 L 785 88 L 785 87 L 786 87 L 786 87 L 787 86 L 787 86 L 788 86 L 790 85 L 790 85 L 790 85 L 790 84 L 790 84 L 790 84 L 790 83 L 790 83 L 791 83 L 791 82 L 791 82 L 791 82 L 791 81 L 791 81 L 791 80 L 791 80 L 791 80 L 792 79 L 792 79 L 792 79 L 792 78 L 792 78 L 792 78 L 792 77 L 793 77 L 793 77 L 793 76 L 794 76 L 794 76 L 794 75 L 794 75 L 794 75 L 794 74 L 795 74 L 797 74 L 799 73 L 799 73 L 799 72 L 800 72 L 800 72 L 801 71 L 802 71 L 804 71 L 805 70 L 806 70 L 806 70 L 806 69 L 806 69 L 806 69 L 806 68 L 806 68 L 808 68 L 808 67 L 808 67 L 812 67 L 814 66 L 815 66 L 818 66 L 819 65 L 819 65 L 820 64 L 820 64 L 820 64 L 820 63 L 821 63 L 821 63 L 822 62 L 823 62 L 823 62 L 823 61 L 823 61 L 823 61 L 823 60 L 823 60 L 824 60 L 824 59 L 824 59 L 824 59 L 825 58 L 826 58 L 826 58 L 827 57 L 827 57 L 828 56 L 828 56 L 828 56 L 829 55 L 829 55 L 829 55 L 830 54 L 830 54 L 832 54 L 835 53 L 836 53 L 837 53 L 840 52 L 841 52 L 842 52 L 845 51 L 845 51 L 846 51 L 849 50 L 854 50 L 855 50 L 856 49 L 858 49 L 860 49 L 861 48 L 861 48 L 863 47 L 863 47 L 864 47 L 865 46 L 867 46 L 868 46 L 869 45 L 869 45 L 869 45 L 870 44 L 870 44 L 871 44 L 875 43 L 875 43 L 876 43 L 877 42 L 877 42 L 879 42 L 879 41 L 880 41 L 880 41 L 881 40 L 881 40 L 882 39 L 883 39 L 883 39 L 884 38 L 885 38 L 885 38 L 885 37 L 886 37 L 887 37 L 887 36 L 887 36 L 888 36 L 889 35 L 889 35 L 889 35 L 889 34 L 889 34 L 890 34 L 892 33 L 893 33 L 894 33 L 894 32 L 897 32 L 898 31 L 899 31 L 900 31 L 903 30 L 905 30 L 907 30 L 909 29 L 910 29 L 910 29 L 912 28 L 914 28 L 915 28 L 916 27 L 916 27 L 916 27 L 916 26 L 917 26 L 917 26 L 917 25 L 918 25 L 919 25 L 920 24 L 921 24 L 921 23 L 921 23 L 928 23 L 929 22 L 930 22 L 932 22 L 933 21 L 934 21 L 935 21 L 935 20 L 935 20 L 936 20 L 937 19 L 938 19 L 938 19 L 939 18 L 939 18 L 939 18 L 940 17 L 940 17 L 941 17 L 942 16 L 945 16 L 945 16" /><path stroke-width="2" class="series" d="M 58 345 L 61 345 L 75 344 L 75 344 L 75 344 L 75 343 L 75 343 L 75 343 L 75 342 L 75 342 L 75 342 L 75 341 L 76 341 L 76 341 L 76 340 L 76 340 L 76 340 L 76 339 L 76 339 L 77 339 L 77 338 L 77 338 L 78 338 L 79 337 L 79 337 L 79 336 L 80 336 L 80 336 L 82 335 L 82 335 L 83 335 L 84 334 L 89 334 L 89 334 L 89 333 L 89 333 L 89 333 L 91 332 L 93 332 L 93 332 L 95 331 L 99 331 L 100 331 L 107 330 L 109 330 L 112 330 L 115 329 L 117 329 L 130 328 L 131 328 L 131 328 L 133 327 L 133 327 L 133 327 L 133 326 L 133 326 L 133 326 L 133 325 L 133 325 L 133 325 L 133 324 L 133 324 L 133 324 L 134 323 L 134 323 L 134 323 L 134 322 L 134 322 L 134 322 L 134 321 L 134 321 L 134 320 L 134 320 L 134 320 L 134 319 L 134 319 L 134 319 L 134 318 L 134 318 L 134 318 L 134 317 L 134 317 L 134 317 L 134 316 L 134 316 L 134 316 L 134 315 L 134 315 L 134 315 L 134 314 L 134 314 L 134 314 L 134 313 L 134 313 L 134 313 L 134 312 L 134 312 L 135 311 L 135 311 L 135 311 L 135 310 L 135 310 L 135 310 L 135 309 L 136 309 L 136 309 L 136 308 L 136 308 L 136 308 L 136 307 L 136 307 L 136 307 L 136 306 L 136 306 L 136 306 L 136 305 L 136 305 L 136 305 L 136 304 L 136 304 L 136 303 L 137 303 L 137 303 L 138 302 L 138 302 L 138 302 L 138 301 L 141 301 L 141 301 L 141 300 L 142 300 L 142 300 L 144 299 L 147 299 L 147 299 L 149 298 L 150 298 L 151 298 L 152 297 L 152 297 L 154 297 L 154 296 L 155 296 L 156 295 L 157 295 L 157 295 L 158 294 L 158 294 L 158 294 L 159 293 L 160 293 L 160 293 L 161 292 L 161 292 L 161 292 L 162 291 L 163 291 L 164 291 L 166 290 L 167 290 L 168 290 L 169 289 L 169 289 L 169 289 L 170 288 L 176 288 L 176 287 L 177 287 L 183 287 L 183 286 L 183 286 L 183 286 L 183 285 L 184 285 L 186 285 L 187 284 L 187 284 L 193 284 L 195 283 L 196 283 L 198 283 L 200 282 L 200 282 L 201 282 L 205 281 L 210 281 L 216 281 L 217 280 L 217 280 L 217 280 L 217 279 L 218 279 L 226 278 L 230 278 L 230 278 L 233 277 L 234 277 L 234 277 L 243 276 L 243 276 L 243 276 L 244 275 L 245 275 L 247 275 L 248 274 L 250 274 L 251 274 L 253 273 L 258 273 L 258 273 L 259 272 L 259 272 L 259 272 L 260 271 L 262 271 L 267 270 L 278 270 L 282 270 L 284 269 L 285 269 L 286 269 L 287 268 L 287 268 L 287 268 L 287 267 L 287 267 L 287 267 L 287 266 L 287 266 L 287 266 L 287 265 L 287 265 L 287 265 L 288 264 L 288 264 L 288 264 L 290 263 L 290 263 L 290 262 L 290 262 L 292 262 L 292 261 L 292 261 L 292 261 L 292 260 L 292 260 L 292 260 L 293 259 L 293 259 L 294 259 L 294 258 L 294 258 L 294 258 L 294 257 L 295 257 L 295 257 L 295 256 L 295 256 L 296 256 L 296 255 L 297 255 L 297 254 L 298 254 L 299 254 L 300 253 L 302 253 L 302 253 L 303 252 L 303 252 L 303 252 L 303 251 L 303 251 L 305 251 L 305 250 L 307 250 L 307 250 L 308 249 L 309 249 L 311 249 L 311 248 L 313 248 L 313 248 L 314 247 L 315 247 L 315 247 L 319 246 L 319 246 L 320 245 L 323 245 L 325 245 L 328 244 L 329 244 L 329 244 L 330 243 L 330 243 L 330 243 L 333 242 L 335 242 L 336 242 L 336 241 L 337 241 L 338 241 L 339 240 L 339 240 L 339 240 L 339 239 L 339 239 L 340 239 L 341 238 L 341 238 L 341 237 L 341 237 L 345 237 L 350 236 L 350 236 L 350 236 L 353 235 L 355 235 L 355 235 L 356 234 L 357 234 L 358 234 L 358 233 L 358 233 L 358 233 L 358 232 L 358 232 L 358 232 L 359 231 L 359 231 L 360 231 L 362 230 L 362 230 L 362 229 L 362 229 L 362 229 L 362 228 L 362 228 L 362 228 L 363 227 L 363 227 L 363 227 L 363 226 L 363 226 L 366 226 L 369 225 L 369 225 L 370 225 L 379 224 L 380 224 L 383 224 L 385 223 L 393 223 L 395 223 L 395 222 L 395 222 L 395 221 L 395 221 L 395 221 L 395 220 L 397 220 L 398 220 L 405 219 L 407 219 L 409 219 L 415 218 L 419 218 L 422 218 L 424 217 L 428 217 L 429 217 L 437 216 L 445 216 L 445 216 L 451 215 L 452 215 L 456 215 L 457 214 L 460 214 L 460 214 L 460 213 L 460 213 L 463 212 L 464 212 L 467 212 L 470 211 L 471 211 L 472 211 L 472 210 L 475 210 L 478 210 L 478 209 L 482 209 L 486 209 L 486 208 L 486 208 L 488 208 L 489 207 L 490 207 L 492 207 L 495 206 L 497 206 L 499 206 L 499 205 L 504 205 L 505 204 L 507 204 L 511 204 L 511 203 L 516 203 L 516 203 L 516 202 L 518 202 L 518 202 L 520 201 L 520 201 L 522 201 L 525 200 L 526 200 L 526 200 L 526 199 L 533 199 L 533 199 L 534 198 L 534 198 L 534 198 L 535 197 L 535 197 L 536 196 L 536 196 L 538 196 L 538 195 L 539 195 L 540 195 L 540 194 L 541 194 L 542 194 L 542 193 L 542 193 L 543 193 L 543 192 L 543 192 L 543 192 L 543 191 L 544 191 L 545 191 L 546 190 L 546 190 L 546 190 L 547 189 L 547 189 L 549 188 L 550 188 L 550 188 L 550 187 L 552 187 L 553 187 L 553 186 L 553 186 L 554 186 L 556 185 L 556 185 L 556 185 L 556 184 L 556 184 L 557 184 L 557 183 L 557 183 L 557 183 L 558 182 L 561 182 L 562 182 L 563 181 L 564 181 L 566 181 L 567 180 L 568 180 L 569 179 L 572 179 L 574 179 L 576 178 L 577 178 L 577 178 L 577 177 L 577 177 L 578 177 L 578 176 L 578 176 L 579 176 L 579 175 L 580 175 L 580 175 L 581 174 L 582 174 L 582 174 L 583 173 L 583 173 L 586 173 L 586 172 L 586 172 L 587 171 L 588 171 L 590 171 L 592 170 L 596 170 L 596 170 L 596 169 L 596 169 L 598 169 L 600 168 L 601 168 L 601 168 L 601 167 L 601 167 L 603 167 L 606 166 L 606 166 L 606 166 L 606 165 L 608 165 L 608 165 L 609 164 L 609 164 L 611 163 L 615 163 L 615 163 L 618 162 L 618 162 L 619 162 L 623 161 L 624 161 L 626 161 L 628 160 L 629 160 L 630 160 L 630 159 L 631 159 L 631 159 L 631 158 L 631 158 L 632 158 L 632 157 L 632 157 L 633 157 L 633 156 L 633 156 L 634 155 L 635 155 L 636 155 L 640 154 L 641 154 L 645 154 L 647 153 L 647 153 L 648 153 L 649 152 L 651 152 L 652 152 L 652 151 L 652 151 L 653 151 L 653 150 L 653 150 L 653 150 L 653 149 L 654 149 L 654 149 L 654 148 L 654 148 L 655 148 L 655 147 L 655 147 L 657 146 L 657 146 L 657 146 L 658 145 L 659 145 L 659 145 L 659 144 L 660 144 L 661 144 L 664 143 L 664 143 L 664 143 L 664 142 L 664 142 L 665 142 L 665 141 L 665 141 L 666 141 L 668 140 L 670 140 L 673 140 L 674 139 L 676 139 L 679 138 L 682 138 L 683 138 L 685 137 L 689 137 L 689 137 L 689 136 L 694 136 L 695 136 L 696 135 L 696 135 L 696 135 L 704 134 L 705 134 L 705 134 L 705 133 L 706 133 L 707 133 L 708 132 L 708 132 L 708 132 L 709 131 L 709 131 L 710 130 L 710 130 L 710 130 L 710 129 L 710 129 L 711 129 L 711 128 L 711 128 L 712 128 L 714 127 L 715 127 L 715 127 L 715 126 L 716 126 L 716 126 L 717 125 L 718 125 L 718 125 L 718 124 L 719 124 L 719 124 L 720 123 L 721 123 L 722 122 L 722 122 L 723 122 L 724 121 L 724 121 L 724 121 L 724 120 L 724 120 L 725 120 L 725 119 L 726 119 L 727 119 L 727 118 L 728 118 L 729 118 L 729 117 L 729 117 L 729 117 L 729 116 L 730 116 L 730 116 L 730 115 L 731 115 L 731 115 L 731 114 L 732 114 L 732 113 L 732 113 L 733 113 L 733 112 L 733 112 L 733 112 L 733 111 L 734 111 L 734 111 L 734 110 L 736 110 L 737 110 L 739 109 L 739 109 L 739 109 L 739 108 L 741 108 L 742 108 L 742 107 L 743 107 L 745 107 L 747 106 L 748 106 L 749 105 L 750 105 L 750 105 L 751 104 L 751 104 L 751 104 L 751 103 L 751 103 L 752 103 L 752 102 L 752 102 L 752 102 L 752 101 L 752 101 L 752 101 L 752 100 L 753 100 L 753 100 L 753 99 L 754 99 L 754 99 L 755 98 L 756 98 L 757 97 L 757 97 L 757 97 L 758 96 L 758 96 L 759 96 L 762 95 L 763 95 L 763 95 L 763 94 L 763 94 L 763 94 L 765 93 L 767 93 L 768 93 L 769 92 L 769 92 L 770 92 L 770 91 L 771 91 L 775 91 L 778 90 L 780 90 L 782 89 L 783 89 L 784 89 L 785 88 L 785 88 L 785 88 L 785 87 L 786 87 L 786 87 L 787 86 L 787 86 L 788 86 L 790 85 L 790 85 L 790 85 L 790 84 L 790 84 L 790 84 L 790 83 L 790 83 L 791 83 L 791 82 L 791 82 L 791 82 L 791 81 L 791 81 L 791 80 L 791 80 L 791 80 L 792 79 L 792 79 L 792 79 L 792 78 L 792 78 L 792 78 L 792 77 L 793 77 L 793 77 L 793 76 L 794 76 L 794 76 L 794 75 L 794 75 L 794 75 L 794 74 L 795 74 L 797 74 L 799 73 L 799 73 L 799 72 L 800 72 L 800 72 L 801 71 L 802 71 L 804 71 L 805 70 L 806 70 L 806 70 L 806 69 L 806 69 L 806 69 L 806 68 L 806 68 L 808 68 L 808 67 L 808 67 L 812 67 L 814 66 L 815 66 L 818 66 L 819 65 L 819 65 L 820 64 L 820 64 L 820 64 L 820 63 L 821 63 L 821 63 L 822 62 L 823 62 L 823 62 L 823 61 L 823 61 L 823 61 L 823 60 L 823 60 L 824 60 L 824 59 L 824 59 L 824 59 L 825 58 L 826 58 L 826 58 L 827 57 L 827 57 L 828 56 L 828 56 L 828 56 L 829 55 L 829 55 L 829 55 L 830 54 L 830 54 L 832 54 L 835 53 L 836 53 L 837 53 L 840 52 L 841 52 L 842 52 L 845 51 L 845 51 L 846 51 L 849 50 L 854 50 L 855 50 L 856 49 L 858 49 L 860 49 L 861 48 L 861 48 L 863 47 L 863 47 L 864 47 L 865 46 L 867 46 L 868 46 L 869 45 L 869 45 L 869 45 L 870 44 L 870 44 L 871 44 L 875 43 L 875 43 L 876 43 L 877 42 L 877 42 L 879 42 L 879 41 L 880 41 L 880 41 L 881 40 L 881 40 L 882 39 L 883 39 L 883 39 L 884 38 L 885 38 L 885 38 L 885 37 L 886 37 L 887 37 L 887 36 L 887 36 L 888 36 L 889 35 L 889 35 L 889 35 L 889 34 L 889 34 L 890 34 L 892 33 L 893 33 L 894 33 L 894 32 L 897 32 L 898 31 L 899 31 L 900 31 L 903 30 L 905 30 L 907 30 L 909 29 L 910 29 L 910 29 L 912 28 L 914 28 L 915 28 L 916 27 L 916 27 L 916 27 L 916 26 L 917 26 L 917 26 L 917 25 L 918 25 L 919 25 L 920 24 L 921 24 L 921 23 L 921 23 L 928 23 L 929 22 L 930 22 L 932 22 L 933 21 L 934 21 L 935 21 L 935 20 L 935 20 L 936 20 L 937 19 L 938 19 L 938 19 L 939 18 L 939 18 L 939 18 L 940 17 L 940 17 L 941 17 L 942 16 L 945 16 L 945 16"></path><path d="M 945 346 L 945.000000 15.000000" stroke-width="2" /><path stroke-width="2" d="M 945 346 L 945.000000 15.000000"></path><path stroke-width="2" d="M 945 346 L 950 346" /><path stroke-width="2" d="M 945 346 L 950 346"></path><text xmlns="http://www.w3.org/2000/svg" x="955" y="352">0</text><path stroke-width="2" d="M 945 309 L 950 309" /><path stroke-width="2" d="M 945 309 L 950 309"></path><text xmlns="http://www.w3.org/2000/svg" x="955" y="315">106</text><path stroke-width="2" d="M 945 272 L 950 272" /><path d="M 945 272 L 950 272" stroke-width="2"></path><text xmlns="http://www.w3.org/2000/svg" x="955" y="278">212</text><path stroke-width="2" d="M 945 235 L 950 235" /><path stroke-width="2" d="M 945 235 L 950 235"></path><text xmlns="http://www.w3.org/2000/svg" x="955" y="241">317</text><path stroke-width="2" d="M 945 199 L 950 199" /><path stroke-width="2" d="M 945 199 L 950 199"></path><text xmlns="http://www.w3.org/2000/svg" x="955" y="205">423</text><path d="M 945 162 L 950 162" stroke-width="2" /><path stroke-width="2" d="M 945 162 L 950 162"></path><text xmlns="http://www.w3.org/2000/svg" x="955" y="168">528</text><path stroke-width="2" d="M 945 125 L 950 125" /><path stroke-width="2" d="M 945 125 L 950 125"></path><text xmlns="http://www.w3.org/2000/svg" x="955" y="131">634</text><path stroke-width="2" d="M 945 89 L 950 89" /><path stroke-width="2" d="M 945 89 L 950 89"></path><text x="955" y="95" xmlns="http://www.w3.org/2000/svg">739</text><path stroke-width="2" d="M 945 52 L 950 52" /><path stroke-width="2" d="M 945 52 L 950 52"></path><text xmlns="http://www.w3.org/2000/svg" x="955" y="58">845</text><path stroke-width="2" d="M 945 16 L 950 16" /><path stroke-width="2" d="M 945 16 L 950 16"></path><text xmlns="http://www.w3.org/2000/svg" x="955" y="22">950</text><text y="175" transform="rotate(90.00,987,175)" xmlns="http://www.w3.org/2000/svg" x="987">Stargazers</text><path d="M 57.000000 346.000000 L 945 346" stroke-width="2" /><path d="M 57.000000 346.000000 L 945 346" stroke-width="2"></path><path stroke-width="2" d="M 58 346 L 58 351" /><path stroke-width="2" d="M 58 346 L 58 351"></path><text xmlns="http://www.w3.org/2000/svg" x="25" y="368">2023-04-02</text><path stroke-width="2" d="M 157 346 L 157 351" /><path d="M 157 346 L 157 351" stroke-width="2"></path><text xmlns="http://www.w3.org/2000/svg" x="124" y="368">2023-06-25</text><path stroke-width="2" d="M 256 346 L 256 351" /><path stroke-width="2" d="M 256 346 L 256 351"></path><text xmlns="http://www.w3.org/2000/svg" x="223" y="368">2023-09-18</text><path stroke-width="2" d="M 354 346 L 354 351" /><path stroke-width="2" d="M 354 346 L 354 351"></path><text xmlns="http://www.w3.org/2000/svg" x="321" y="368">2023-12-11</text><path stroke-width="2" d="M 453 346 L 453 351" /><path stroke-width="2" d="M 453 346 L 453 351"></path><text xmlns="http://www.w3.org/2000/svg" x="420" y="368">2024-03-05</text><path stroke-width="2" d="M 551 346 L 551 351" /><path stroke-width="2" d="M 551 346 L 551 351"></path><text xmlns="http://www.w3.org/2000/svg" x="518" y="368">2024-05-29</text><path stroke-width="2" d="M 650 346 L 650 351" /><path stroke-width="2" d="M 650 346 L 650 351"></path><text xmlns="http://www.w3.org/2000/svg" x="617" y="368">2024-08-21</text><path d="M 748 346 L 748 351" stroke-width="2" /><path stroke-width="2" d="M 748 346 L 748 351"></path><text xmlns="http://www.w3.org/2000/svg" x="715" y="368">2024-11-14</text><path stroke-width="2" d="M 847 346 L 847 351" /><path stroke-width="2" d="M 847 346 L 847 351"></path><text xmlns="http://www.w3.org/2000/svg" x="814" y="368">2025-02-06</text><path stroke-width="2" d="M 945 346 L 945 351" /><path stroke-width="2" d="M 945 346 L 945 351"></path><text xmlns="http://www.w3.org/2000/svg" x="912" y="368">2025-05-02</text><text y="390" xmlns="http://www.w3.org/2000/svg" x="487">Time</text></svg>