<svg xmlns="http://www.w3.org/2000/svg" xmlns:xlink="http://www.w3.org/1999/xlink" width="1024px" height="400px"><style type="text/css">
path { fill: none; stroke: rgb(51,51,51); }
path.series { stroke: #6b63ff; }
rect.background { fill: rgb(255,255,255); stroke: none; }

text {
	stroke-width: 0;
	stroke: none;
	fill: rgba(51,51,51,1.0);
	font-size: 12.8px;
	font-family: 'Roboto Medium', sans-serif;
}
</style><rect width="1024px" height="400px" class="background" rx="8" x="0" y="0" /><rect y="0" width="1024px" height="400px" class="background" rx="8" x="0"></rect><path stroke-width="2" class="series" d="M 58 345 L 61 345 L 79 344 L 79 344 L 79 343 L 79 343 L 79 342 L 79 342 L 79 341 L 79 341 L 80 341 L 80 340 L 80 340 L 80 339 L 80 339 L 80 338 L 80 338 L 81 337 L 81 337 L 82 336 L 82 336 L 82 336 L 84 335 L 84 335 L 84 334 L 84 334 L 85 333 L 86 333 L 88 332 L 88 332 L 90 331 L 91 331 L 96 331 L 97 330 L 97 330 L 97 329 L 97 329 L 97 328 L 100 328 L 101 327 L 102 327 L 105 327 L 109 326 L 111 326 L 119 325 L 122 325 L 126 324 L 130 324 L 132 323 L 149 323 L 150 322 L 150 322 L 152 322 L 153 321 L 153 321 L 153 320 L 153 320 L 153 319 L 153 319 L 153 318 L 153 318 L 153 317 L 153 317 L 153 317 L 153 316 L 154 316 L 154 315 L 154 315 L 154 314 L 154 314 L 154 313 L 154 313 L 154 313 L 154 312 L 154 312 L 154 311 L 154 311 L 154 310 L 154 310 L 154 309 L 154 309 L 154 308 L 154 308 L 154 308 L 154 307 L 154 307 L 154 306 L 154 306 L 154 305 L 154 305 L 154 304 L 154 304 L 154 303 L 154 303 L 154 303 L 154 302 L 154 302 L 154 301 L 154 301 L 154 300 L 155 300 L 155 299 L 155 299 L 155 298 L 155 298 L 156 298 L 156 297 L 156 297 L 157 296 L 157 296 L 157 295 L 157 295 L 157 294 L 157 294 L 157 294 L 157 293 L 157 293 L 157 292 L 157 292 L 157 291 L 157 291 L 157 290 L 157 290 L 157 289 L 158 289 L 158 289 L 159 288 L 159 288 L 162 287 L 163 287 L 163 286 L 164 286 L 164 285 L 167 285 L 170 284 L 170 284 L 173 284 L 174 283 L 176 283 L 176 282 L 177 282 L 179 281 L 179 281 L 180 280 L 182 280 L 182 280 L 183 279 L 183 279 L 184 278 L 184 278 L 185 277 L 187 277 L 187 276 L 187 276 L 188 275 L 188 275 L 189 275 L 191 274 L 192 274 L 195 273 L 196 273 L 197 272 L 198 272 L 198 271 L 198 271 L 200 270 L 207 270 L 207 270 L 208 269 L 215 269 L 215 268 L 215 268 L 215 267 L 216 267 L 217 266 L 219 266 L 220 265 L 220 265 L 229 265 L 230 264 L 232 264 L 235 263 L 236 263 L 237 262 L 238 262 L 243 261 L 250 261 L 257 261 L 258 260 L 258 260 L 258 259 L 259 259 L 260 258 L 270 258 L 275 257 L 275 257 L 279 256 L 279 256 L 280 256 L 291 255 L 291 255 L 292 254 L 292 254 L 294 253 L 297 253 L 298 252 L 300 252 L 302 251 L 304 251 L 310 251 L 310 250 L 311 250 L 312 249 L 312 249 L 312 248 L 316 248 L 322 247 L 335 247 L 340 247 L 343 246 L 344 246 L 345 245 L 347 245 L 347 244 L 347 244 L 347 243 L 347 243 L 347 242 L 347 242 L 347 242 L 347 241 L 347 241 L 347 240 L 347 240 L 347 239 L 348 239 L 348 238 L 350 238 L 351 237 L 351 237 L 351 237 L 351 236 L 353 236 L 353 235 L 353 235 L 353 234 L 353 234 L 353 233 L 353 233 L 354 232 L 355 232 L 355 232 L 355 231 L 355 231 L 356 230 L 356 230 L 357 229 L 357 229 L 357 228 L 357 228 L 358 228 L 358 227 L 359 227 L 360 226 L 361 226 L 362 225 L 363 225 L 366 224 L 366 224 L 367 223 L 367 223 L 367 223 L 367 222 L 367 222 L 369 221 L 370 221 L 372 220 L 372 220 L 373 219 L 375 219 L 377 218 L 377 218 L 379 218 L 380 217 L 381 217 L 382 216 L 382 216 L 387 215 L 388 215 L 388 214 L 392 214 L 394 214 L 398 213 L 399 213 L 400 212 L 401 212 L 401 211 L 401 211 L 404 210 L 407 210 L 409 209 L 409 209 L 410 209 L 412 208 L 412 208 L 412 207 L 412 207 L 413 206 L 413 206 L 413 205 L 414 205 L 414 204 L 414 204 L 415 204 L 420 203 L 426 203 L 426 202 L 426 202 L 430 201 L 432 201 L 433 200 L 434 200 L 435 199 L 436 199 L 436 199 L 436 198 L 436 198 L 436 197 L 437 197 L 437 196 L 437 196 L 437 195 L 438 195 L 441 195 L 441 194 L 441 194 L 441 193 L 441 193 L 442 192 L 442 192 L 442 191 L 442 191 L 442 190 L 442 190 L 442 190 L 442 189 L 447 189 L 450 188 L 450 188 L 451 187 L 463 187 L 464 186 L 468 186 L 471 185 L 478 185 L 480 185 L 483 184 L 483 184 L 483 183 L 483 183 L 483 182 L 483 182 L 483 181 L 483 181 L 485 181 L 486 180 L 495 180 L 498 179 L 501 179 L 508 178 L 513 178 L 517 177 L 520 177 L 525 176 L 525 176 L 536 176 L 547 175 L 547 175 L 554 174 L 554 174 L 560 173 L 561 173 L 565 172 L 565 172 L 565 171 L 566 171 L 569 171 L 570 170 L 573 170 L 578 169 L 578 169 L 579 168 L 580 168 L 584 167 L 588 167 L 588 166 L 593 166 L 597 166 L 598 165 L 598 165 L 600 164 L 601 164 L 602 163 L 606 163 L 609 162 L 612 162 L 614 162 L 614 161 L 620 161 L 621 160 L 624 160 L 629 159 L 630 159 L 635 158 L 636 158 L 636 157 L 638 157 L 638 157 L 641 156 L 641 156 L 644 155 L 647 155 L 648 154 L 648 154 L 648 153 L 657 153 L 657 152 L 658 152 L 658 152 L 659 151 L 660 151 L 660 150 L 660 150 L 661 149 L 663 149 L 663 148 L 665 148 L 666 148 L 666 147 L 667 147 L 668 146 L 668 146 L 669 145 L 669 145 L 669 144 L 670 144 L 670 143 L 670 143 L 671 143 L 672 142 L 673 142 L 673 141 L 674 141 L 675 140 L 675 140 L 677 139 L 678 139 L 678 138 L 679 138 L 680 138 L 682 137 L 682 137 L 683 136 L 683 136 L 686 135 L 686 135 L 686 134 L 686 134 L 686 133 L 687 133 L 687 133 L 687 132 L 688 132 L 689 131 L 693 131 L 694 130 L 695 130 L 696 129 L 698 129 L 700 129 L 701 128 L 703 128 L 706 127 L 709 127 L 712 126 L 713 126 L 713 125 L 713 125 L 713 124 L 714 124 L 714 124 L 714 123 L 715 123 L 716 122 L 716 122 L 716 121 L 718 121 L 719 120 L 719 120 L 720 119 L 720 119 L 723 119 L 724 118 L 724 118 L 725 117 L 726 117 L 729 116 L 732 116 L 736 115 L 736 115 L 736 115 L 737 114 L 739 114 L 742 113 L 742 113 L 742 112 L 742 112 L 743 111 L 745 111 L 749 110 L 749 110 L 749 110 L 749 109 L 752 109 L 752 108 L 752 108 L 752 107 L 753 107 L 756 106 L 760 106 L 760 105 L 765 105 L 765 105 L 766 104 L 770 104 L 771 103 L 774 103 L 776 102 L 778 102 L 780 101 L 780 101 L 780 100 L 781 100 L 781 100 L 781 99 L 782 99 L 782 98 L 782 98 L 783 97 L 783 97 L 783 96 L 785 96 L 786 96 L 786 95 L 792 95 L 793 94 L 798 94 L 801 93 L 801 93 L 802 92 L 803 92 L 806 91 L 807 91 L 807 91 L 807 90 L 808 90 L 808 89 L 808 89 L 809 88 L 809 88 L 810 87 L 810 87 L 810 86 L 810 86 L 810 86 L 811 85 L 811 85 L 811 84 L 813 84 L 813 83 L 814 83 L 815 82 L 816 82 L 816 82 L 816 81 L 817 81 L 819 80 L 822 80 L 822 79 L 822 79 L 822 78 L 822 78 L 823 77 L 823 77 L 824 77 L 825 76 L 827 76 L 830 75 L 834 75 L 835 74 L 837 74 L 841 73 L 845 73 L 846 72 L 849 72 L 854 72 L 854 71 L 854 71 L 860 70 L 861 70 L 862 69 L 863 69 L 863 68 L 873 68 L 873 67 L 874 67 L 875 67 L 875 66 L 876 66 L 877 65 L 878 65 L 878 64 L 879 64 L 879 63 L 880 63 L 880 63 L 881 62 L 881 62 L 881 61 L 881 61 L 881 60 L 881 60 L 882 59 L 883 59 L 885 58 L 886 58 L 886 58 L 886 57 L 888 57 L 888 56 L 889 56 L 890 55 L 891 55 L 891 54 L 891 54 L 891 53 L 893 53 L 894 53 L 895 52 L 895 52 L 897 51 L 897 51 L 898 50 L 898 50 L 898 49 L 899 49 L 899 49 L 900 48 L 900 48 L 901 47 L 901 47 L 903 46 L 904 46 L 904 45 L 904 45 L 904 44 L 904 44 L 905 44 L 905 43 L 905 43 L 907 42 L 907 42 L 907 41 L 908 41 L 909 40 L 909 40 L 909 39 L 909 39 L 909 39 L 910 38 L 910 38 L 910 37 L 910 37 L 910 36 L 913 36 L 914 35 L 917 35 L 917 34 L 917 34 L 917 34 L 919 33 L 920 33 L 921 32 L 922 32 L 925 31 L 928 31 L 928 30 L 930 30 L 931 30 L 931 29 L 932 29 L 932 28 L 932 28 L 933 27 L 933 27 L 933 26 L 933 26 L 933 25 L 933 25 L 933 25 L 933 24 L 933 24 L 934 23 L 934 23 L 934 22 L 934 22 L 935 21 L 935 21 L 935 20 L 936 20 L 937 20 L 939 19 L 939 19 L 940 18 L 940 18 L 941 17 L 941 17 L 942 16 L 945 16" /><path d="M 58 345 L 61 345 L 79 344 L 79 344 L 79 343 L 79 343 L 79 342 L 79 342 L 79 341 L 79 341 L 80 341 L 80 340 L 80 340 L 80 339 L 80 339 L 80 338 L 80 338 L 81 337 L 81 337 L 82 336 L 82 336 L 82 336 L 84 335 L 84 335 L 84 334 L 84 334 L 85 333 L 86 333 L 88 332 L 88 332 L 90 331 L 91 331 L 96 331 L 97 330 L 97 330 L 97 329 L 97 329 L 97 328 L 100 328 L 101 327 L 102 327 L 105 327 L 109 326 L 111 326 L 119 325 L 122 325 L 126 324 L 130 324 L 132 323 L 149 323 L 150 322 L 150 322 L 152 322 L 153 321 L 153 321 L 153 320 L 153 320 L 153 319 L 153 319 L 153 318 L 153 318 L 153 317 L 153 317 L 153 317 L 153 316 L 154 316 L 154 315 L 154 315 L 154 314 L 154 314 L 154 313 L 154 313 L 154 313 L 154 312 L 154 312 L 154 311 L 154 311 L 154 310 L 154 310 L 154 309 L 154 309 L 154 308 L 154 308 L 154 308 L 154 307 L 154 307 L 154 306 L 154 306 L 154 305 L 154 305 L 154 304 L 154 304 L 154 303 L 154 303 L 154 303 L 154 302 L 154 302 L 154 301 L 154 301 L 154 300 L 155 300 L 155 299 L 155 299 L 155 298 L 155 298 L 156 298 L 156 297 L 156 297 L 157 296 L 157 296 L 157 295 L 157 295 L 157 294 L 157 294 L 157 294 L 157 293 L 157 293 L 157 292 L 157 292 L 157 291 L 157 291 L 157 290 L 157 290 L 157 289 L 158 289 L 158 289 L 159 288 L 159 288 L 162 287 L 163 287 L 163 286 L 164 286 L 164 285 L 167 285 L 170 284 L 170 284 L 173 284 L 174 283 L 176 283 L 176 282 L 177 282 L 179 281 L 179 281 L 180 280 L 182 280 L 182 280 L 183 279 L 183 279 L 184 278 L 184 278 L 185 277 L 187 277 L 187 276 L 187 276 L 188 275 L 188 275 L 189 275 L 191 274 L 192 274 L 195 273 L 196 273 L 197 272 L 198 272 L 198 271 L 198 271 L 200 270 L 207 270 L 207 270 L 208 269 L 215 269 L 215 268 L 215 268 L 215 267 L 216 267 L 217 266 L 219 266 L 220 265 L 220 265 L 229 265 L 230 264 L 232 264 L 235 263 L 236 263 L 237 262 L 238 262 L 243 261 L 250 261 L 257 261 L 258 260 L 258 260 L 258 259 L 259 259 L 260 258 L 270 258 L 275 257 L 275 257 L 279 256 L 279 256 L 280 256 L 291 255 L 291 255 L 292 254 L 292 254 L 294 253 L 297 253 L 298 252 L 300 252 L 302 251 L 304 251 L 310 251 L 310 250 L 311 250 L 312 249 L 312 249 L 312 248 L 316 248 L 322 247 L 335 247 L 340 247 L 343 246 L 344 246 L 345 245 L 347 245 L 347 244 L 347 244 L 347 243 L 347 243 L 347 242 L 347 242 L 347 242 L 347 241 L 347 241 L 347 240 L 347 240 L 347 239 L 348 239 L 348 238 L 350 238 L 351 237 L 351 237 L 351 237 L 351 236 L 353 236 L 353 235 L 353 235 L 353 234 L 353 234 L 353 233 L 353 233 L 354 232 L 355 232 L 355 232 L 355 231 L 355 231 L 356 230 L 356 230 L 357 229 L 357 229 L 357 228 L 357 228 L 358 228 L 358 227 L 359 227 L 360 226 L 361 226 L 362 225 L 363 225 L 366 224 L 366 224 L 367 223 L 367 223 L 367 223 L 367 222 L 367 222 L 369 221 L 370 221 L 372 220 L 372 220 L 373 219 L 375 219 L 377 218 L 377 218 L 379 218 L 380 217 L 381 217 L 382 216 L 382 216 L 387 215 L 388 215 L 388 214 L 392 214 L 394 214 L 398 213 L 399 213 L 400 212 L 401 212 L 401 211 L 401 211 L 404 210 L 407 210 L 409 209 L 409 209 L 410 209 L 412 208 L 412 208 L 412 207 L 412 207 L 413 206 L 413 206 L 413 205 L 414 205 L 414 204 L 414 204 L 415 204 L 420 203 L 426 203 L 426 202 L 426 202 L 430 201 L 432 201 L 433 200 L 434 200 L 435 199 L 436 199 L 436 199 L 436 198 L 436 198 L 436 197 L 437 197 L 437 196 L 437 196 L 437 195 L 438 195 L 441 195 L 441 194 L 441 194 L 441 193 L 441 193 L 442 192 L 442 192 L 442 191 L 442 191 L 442 190 L 442 190 L 442 190 L 442 189 L 447 189 L 450 188 L 450 188 L 451 187 L 463 187 L 464 186 L 468 186 L 471 185 L 478 185 L 480 185 L 483 184 L 483 184 L 483 183 L 483 183 L 483 182 L 483 182 L 483 181 L 483 181 L 485 181 L 486 180 L 495 180 L 498 179 L 501 179 L 508 178 L 513 178 L 517 177 L 520 177 L 525 176 L 525 176 L 536 176 L 547 175 L 547 175 L 554 174 L 554 174 L 560 173 L 561 173 L 565 172 L 565 172 L 565 171 L 566 171 L 569 171 L 570 170 L 573 170 L 578 169 L 578 169 L 579 168 L 580 168 L 584 167 L 588 167 L 588 166 L 593 166 L 597 166 L 598 165 L 598 165 L 600 164 L 601 164 L 602 163 L 606 163 L 609 162 L 612 162 L 614 162 L 614 161 L 620 161 L 621 160 L 624 160 L 629 159 L 630 159 L 635 158 L 636 158 L 636 157 L 638 157 L 638 157 L 641 156 L 641 156 L 644 155 L 647 155 L 648 154 L 648 154 L 648 153 L 657 153 L 657 152 L 658 152 L 658 152 L 659 151 L 660 151 L 660 150 L 660 150 L 661 149 L 663 149 L 663 148 L 665 148 L 666 148 L 666 147 L 667 147 L 668 146 L 668 146 L 669 145 L 669 145 L 669 144 L 670 144 L 670 143 L 670 143 L 671 143 L 672 142 L 673 142 L 673 141 L 674 141 L 675 140 L 675 140 L 677 139 L 678 139 L 678 138 L 679 138 L 680 138 L 682 137 L 682 137 L 683 136 L 683 136 L 686 135 L 686 135 L 686 134 L 686 134 L 686 133 L 687 133 L 687 133 L 687 132 L 688 132 L 689 131 L 693 131 L 694 130 L 695 130 L 696 129 L 698 129 L 700 129 L 701 128 L 703 128 L 706 127 L 709 127 L 712 126 L 713 126 L 713 125 L 713 125 L 713 124 L 714 124 L 714 124 L 714 123 L 715 123 L 716 122 L 716 122 L 716 121 L 718 121 L 719 120 L 719 120 L 720 119 L 720 119 L 723 119 L 724 118 L 724 118 L 725 117 L 726 117 L 729 116 L 732 116 L 736 115 L 736 115 L 736 115 L 737 114 L 739 114 L 742 113 L 742 113 L 742 112 L 742 112 L 743 111 L 745 111 L 749 110 L 749 110 L 749 110 L 749 109 L 752 109 L 752 108 L 752 108 L 752 107 L 753 107 L 756 106 L 760 106 L 760 105 L 765 105 L 765 105 L 766 104 L 770 104 L 771 103 L 774 103 L 776 102 L 778 102 L 780 101 L 780 101 L 780 100 L 781 100 L 781 100 L 781 99 L 782 99 L 782 98 L 782 98 L 783 97 L 783 97 L 783 96 L 785 96 L 786 96 L 786 95 L 792 95 L 793 94 L 798 94 L 801 93 L 801 93 L 802 92 L 803 92 L 806 91 L 807 91 L 807 91 L 807 90 L 808 90 L 808 89 L 808 89 L 809 88 L 809 88 L 810 87 L 810 87 L 810 86 L 810 86 L 810 86 L 811 85 L 811 85 L 811 84 L 813 84 L 813 83 L 814 83 L 815 82 L 816 82 L 816 82 L 816 81 L 817 81 L 819 80 L 822 80 L 822 79 L 822 79 L 822 78 L 822 78 L 823 77 L 823 77 L 824 77 L 825 76 L 827 76 L 830 75 L 834 75 L 835 74 L 837 74 L 841 73 L 845 73 L 846 72 L 849 72 L 854 72 L 854 71 L 854 71 L 860 70 L 861 70 L 862 69 L 863 69 L 863 68 L 873 68 L 873 67 L 874 67 L 875 67 L 875 66 L 876 66 L 877 65 L 878 65 L 878 64 L 879 64 L 879 63 L 880 63 L 880 63 L 881 62 L 881 62 L 881 61 L 881 61 L 881 60 L 881 60 L 882 59 L 883 59 L 885 58 L 886 58 L 886 58 L 886 57 L 888 57 L 888 56 L 889 56 L 890 55 L 891 55 L 891 54 L 891 54 L 891 53 L 893 53 L 894 53 L 895 52 L 895 52 L 897 51 L 897 51 L 898 50 L 898 50 L 898 49 L 899 49 L 899 49 L 900 48 L 900 48 L 901 47 L 901 47 L 903 46 L 904 46 L 904 45 L 904 45 L 904 44 L 904 44 L 905 44 L 905 43 L 905 43 L 907 42 L 907 42 L 907 41 L 908 41 L 909 40 L 909 40 L 909 39 L 909 39 L 909 39 L 910 38 L 910 38 L 910 37 L 910 37 L 910 36 L 913 36 L 914 35 L 917 35 L 917 34 L 917 34 L 917 34 L 919 33 L 920 33 L 921 32 L 922 32 L 925 31 L 928 31 L 928 30 L 930 30 L 931 30 L 931 29 L 932 29 L 932 28 L 932 28 L 933 27 L 933 27 L 933 26 L 933 26 L 933 25 L 933 25 L 933 25 L 933 24 L 933 24 L 934 23 L 934 23 L 934 22 L 934 22 L 935 21 L 935 21 L 935 20 L 936 20 L 937 20 L 939 19 L 939 19 L 940 18 L 940 18 L 941 17 L 941 17 L 942 16 L 945 16" stroke-width="2" class="series"></path><path stroke-width="2" d="M 945 346 L 945.000000 15.000000" /><path stroke-width="2" d="M 945 346 L 945.000000 15.000000"></path><path stroke-width="2" d="M 945 346 L 950 346" /><path stroke-width="2" d="M 945 346 L 950 346"></path><text y="352" xmlns="http://www.w3.org/2000/svg" x="955">0</text><path stroke-width="2" d="M 945 308 L 950 308" /><path stroke-width="2" d="M 945 308 L 950 308"></path><text xmlns="http://www.w3.org/2000/svg" x="955" y="314">82</text><path stroke-width="2" d="M 945 272 L 950 272" /><path stroke-width="2" d="M 945 272 L 950 272"></path><text xmlns="http://www.w3.org/2000/svg" x="955" y="278">163</text><path stroke-width="2" d="M 945 235 L 950 235" /><path stroke-width="2" d="M 945 235 L 950 235"></path><text xmlns="http://www.w3.org/2000/svg" x="955" y="241">244</text><path stroke-width="2" d="M 945 199 L 950 199" /><path stroke-width="2" d="M 945 199 L 950 199"></path><text xmlns="http://www.w3.org/2000/svg" x="955" y="205">325</text><path stroke-width="2" d="M 945 162 L 950 162" /><path stroke-width="2" d="M 945 162 L 950 162"></path><text xmlns="http://www.w3.org/2000/svg" x="955" y="168">406</text><path stroke-width="2" d="M 945 125 L 950 125" /><path stroke-width="2" d="M 945 125 L 950 125"></path><text xmlns="http://www.w3.org/2000/svg" x="955" y="131">487</text><path d="M 945 89 L 950 89" stroke-width="2" /><path stroke-width="2" d="M 945 89 L 950 89"></path><text xmlns="http://www.w3.org/2000/svg" x="955" y="95">568</text><path stroke-width="2" d="M 945 52 L 950 52" /><path stroke-width="2" d="M 945 52 L 950 52"></path><text x="955" y="58" xmlns="http://www.w3.org/2000/svg">649</text><path stroke-width="2" d="M 945 16 L 950 16" /><path stroke-width="2" d="M 945 16 L 950 16"></path><text y="22" xmlns="http://www.w3.org/2000/svg" x="955">730</text><text xmlns="http://www.w3.org/2000/svg" x="987" y="175" transform="rotate(90.00,987,175)">Stargazers</text><path stroke-width="2" d="M 57.000000 346.000000 L 945 346" /><path stroke-width="2" d="M 57.000000 346.000000 L 945 346"></path><path stroke-width="2" d="M 58 346 L 58 351" /><path d="M 58 346 L 58 351" stroke-width="2"></path><text xmlns="http://www.w3.org/2000/svg" x="25" y="368">2023-04-02</text><path stroke-width="2" d="M 157 346 L 157 351" /><path stroke-width="2" d="M 157 346 L 157 351"></path><text y="368" xmlns="http://www.w3.org/2000/svg" x="124">2023-06-08</text><path stroke-width="2" d="M 256 346 L 256 351" /><path d="M 256 346 L 256 351" stroke-width="2"></path><text xmlns="http://www.w3.org/2000/svg" x="223" y="368">2023-08-14</text><path stroke-width="2" d="M 354 346 L 354 351" /><path stroke-width="2" d="M 354 346 L 354 351"></path><text y="368" xmlns="http://www.w3.org/2000/svg" x="321">2023-10-20</text><path stroke-width="2" d="M 453 346 L 453 351" /><path stroke-width="2" d="M 453 346 L 453 351"></path><text xmlns="http://www.w3.org/2000/svg" x="420" y="368">2023-12-26</text><path stroke-width="2" d="M 551 346 L 551 351" /><path stroke-width="2" d="M 551 346 L 551 351"></path><text x="518" y="368" xmlns="http://www.w3.org/2000/svg">2024-03-02</text><path stroke-width="2" d="M 650 346 L 650 351" /><path stroke-width="2" d="M 650 346 L 650 351"></path><text xmlns="http://www.w3.org/2000/svg" x="617" y="368">2024-05-08</text><path stroke-width="2" d="M 748 346 L 748 351" /><path stroke-width="2" d="M 748 346 L 748 351"></path><text xmlns="http://www.w3.org/2000/svg" x="715" y="368">2024-07-14</text><path d="M 847 346 L 847 351" stroke-width="2" /><path stroke-width="2" d="M 847 346 L 847 351"></path><text xmlns="http://www.w3.org/2000/svg" x="814" y="368">2024-09-19</text><path stroke-width="2" d="M 945 346 L 945 351" /><path stroke-width="2" d="M 945 346 L 945 351"></path><text x="912" y="368" xmlns="http://www.w3.org/2000/svg">2024-11-25</text><text xmlns="http://www.w3.org/2000/svg" x="487" y="390">Time</text></svg>