<svg xmlns="http://www.w3.org/2000/svg" xmlns:xlink="http://www.w3.org/1999/xlink" width="1024px" height="400px"><style type="text/css">
path { fill: none; stroke: rgb(51,51,51); }
path.series { stroke: #6b63ff; }
rect.background { fill: rgb(255,255,255); stroke: none; }

text {
	stroke-width: 0;
	stroke: none;
	fill: rgba(51,51,51,1.0);
	font-size: 12.8px;
	font-family: 'Roboto Medium', sans-serif;
}
</style><rect x="0" y="0" width="1024px" height="400px" class="background" rx="8" /><rect class="background" rx="8" x="0" y="0" width="1024px" height="400px"></rect><path d="M 58 345 L 62 344 L 88 343 L 88 343 L 89 342 L 89 341 L 89 340 L 89 340 L 89 339 L 89 338 L 89 338 L 89 337 L 89 336 L 89 335 L 89 335 L 90 334 L 90 333 L 90 333 L 90 332 L 92 331 L 92 330 L 93 330 L 94 329 L 96 328 L 96 328 L 96 327 L 97 326 L 98 325 L 101 325 L 101 324 L 103 323 L 105 323 L 113 322 L 113 321 L 113 320 L 113 320 L 113 319 L 113 318 L 118 318 L 120 317 L 121 316 L 125 315 L 132 315 L 134 314 L 145 313 L 149 313 L 155 312 L 161 311 L 164 310 L 188 310 L 189 309 L 189 308 L 193 307 L 193 307 L 193 306 L 193 305 L 193 305 L 193 304 L 193 303 L 193 302 L 193 302 L 194 301 L 194 300 L 194 300 L 194 299 L 195 298 L 195 297 L 195 297 L 195 296 L 195 295 L 195 295 L 195 294 L 195 293 L 195 292 L 195 292 L 195 291 L 195 290 L 195 290 L 195 289 L 195 288 L 195 287 L 195 287 L 195 286 L 195 285 L 195 285 L 195 284 L 195 283 L 195 282 L 195 282 L 195 281 L 195 280 L 195 280 L 195 279 L 195 278 L 195 277 L 195 277 L 195 276 L 195 275 L 196 274 L 196 274 L 196 273 L 197 272 L 197 272 L 197 271 L 197 270 L 198 269 L 199 269 L 199 268 L 199 267 L 199 267 L 199 266 L 199 265 L 199 264 L 199 264 L 199 263 L 199 262 L 199 262 L 199 261 L 199 260 L 199 259 L 199 259 L 199 258 L 199 257 L 200 257 L 201 256 L 202 255 L 202 254 L 202 254 L 207 253 L 208 252 L 208 252 L 210 251 L 210 250 L 214 249 L 218 249 L 219 248 L 222 247 L 224 247 L 226 246 L 227 245 L 228 244 L 231 244 L 232 243 L 233 242 L 235 241 L 236 241 L 237 240 L 237 239 L 238 239 L 238 238 L 240 237 L 242 236 L 242 236 L 243 235 L 244 234 L 244 234 L 245 233 L 248 232 L 250 231 L 253 231 L 255 230 L 256 229 L 258 229 L 258 228 L 258 227 L 261 226 L 271 226 L 271 225 L 273 224 L 283 224 L 283 223 L 283 222 L 283 221 L 284 221 L 285 220 L 288 219 L 290 219 L 290 218 L 302 217 L 304 216 L 307 216 L 311 215 L 313 214 L 313 214 L 315 213 L 323 212 L 333 211 L 343 211 L 344 210 L 344 209 L 345 208 L 345 208 L 347 207 L 361 206 L 368 206 L 368 205 L 374 204 L 375 203 L 376 203 L 391 202 L 391 201 L 392 201 L 393 200 L 395 199 L 399 198 L 401 198 L 404 197 L 406 196 L 410 196 L 419 195 L 419 194 L 421 193 L 421 193 L 421 192 L 422 191 L 427 191 L 436 190 L 455 189 L 462 188 L 463 188 L 466 187 L 467 186 L 469 186 L 471 185 L 471 184 L 471 183 L 471 183 L 471 182 L 471 181 L 471 181 L 471 180 L 472 179 L 472 178 L 472 178 L 472 177 L 472 176 L 473 175 L 473 175 L 474 174 L 476 173 L 477 173 L 477 172 L 477 171 L 477 170 L 480 170 L 480 169 L 480 168 L 480 168 L 480 167 L 480 166 L 480 165 L 481 165 L 483 164 L 483 163 L 484 163 L 484 162 L 484 161 L 484 160 L 486 160 L 486 159 L 486 158 L 486 158 L 488 157 L 488 156 L 488 155 L 490 155 L 492 154 L 493 153 L 495 153 L 499 152 L 499 151 L 500 150 L 500 150 L 500 149 L 501 148 L 501 148 L 503 147 L 504 146 L 507 145 L 507 145 L 509 144 L 511 143 L 514 142 L 514 142 L 518 141 L 519 140 L 520 140 L 521 139 L 521 138 L 528 137 L 530 137 L 530 136 L 536 135 L 539 135 L 545 134 L 546 133 L 547 132 L 548 132 L 549 131 L 549 130 L 554 130 L 557 129 L 560 128 L 560 127 L 562 127 L 564 126 L 564 125 L 564 125 L 564 124 L 565 123 L 566 122 L 566 122 L 568 121 L 568 120 L 568 120 L 569 119 L 577 118 L 585 117 L 585 117 L 585 116 L 591 115 L 594 115 L 595 114 L 595 113 L 597 112 L 599 112 L 599 111 L 599 110 L 599 109 L 600 109 L 600 108 L 600 107 L 601 107 L 601 106 L 602 105 L 606 104 L 606 104 L 606 103 L 606 102 L 607 102 L 607 101 L 607 100 L 607 99 L 608 99 L 608 98 L 608 97 L 608 97 L 608 96 L 614 95 L 619 94 L 619 94 L 620 93 L 628 92 L 637 92 L 639 91 L 644 90 L 648 89 L 659 89 L 662 88 L 666 87 L 666 87 L 666 86 L 666 85 L 667 84 L 667 84 L 667 83 L 667 82 L 669 82 L 671 81 L 684 80 L 688 79 L 692 79 L 702 78 L 710 77 L 715 76 L 719 76 L 727 75 L 727 74 L 742 74 L 757 73 L 757 72 L 768 71 L 768 71 L 777 70 L 779 69 L 783 69 L 783 68 L 784 67 L 784 66 L 789 66 L 791 65 L 795 64 L 802 64 L 803 63 L 804 62 L 805 61 L 811 61 L 817 60 L 817 59 L 823 59 L 830 58 L 831 57 L 831 56 L 834 56 L 835 55 L 837 54 L 842 54 L 846 53 L 850 52 L 854 51 L 854 51 L 863 50 L 864 49 L 869 49 L 876 48 L 876 47 L 884 46 L 885 46 L 886 45 L 888 44 L 889 43 L 892 43 L 893 42 L 896 41 L 901 41 L 902 40 L 903 39 L 903 38 L 916 38 L 916 37 L 917 36 L 917 36 L 918 35 L 919 34 L 919 33 L 920 33 L 921 32 L 924 31 L 924 31 L 927 30 L 928 29 L 929 28 L 930 28 L 931 27 L 931 26 L 932 26 L 933 25 L 933 24 L 934 23 L 934 23 L 934 22 L 935 21 L 936 21 L 939 20 L 939 19 L 940 18 L 941 18 L 941 17 L 944 16 L 945 16" stroke-width="2" class="series" /><path d="M 58 345 L 62 344 L 88 343 L 88 343 L 89 342 L 89 341 L 89 340 L 89 340 L 89 339 L 89 338 L 89 338 L 89 337 L 89 336 L 89 335 L 89 335 L 90 334 L 90 333 L 90 333 L 90 332 L 92 331 L 92 330 L 93 330 L 94 329 L 96 328 L 96 328 L 96 327 L 97 326 L 98 325 L 101 325 L 101 324 L 103 323 L 105 323 L 113 322 L 113 321 L 113 320 L 113 320 L 113 319 L 113 318 L 118 318 L 120 317 L 121 316 L 125 315 L 132 315 L 134 314 L 145 313 L 149 313 L 155 312 L 161 311 L 164 310 L 188 310 L 189 309 L 189 308 L 193 307 L 193 307 L 193 306 L 193 305 L 193 305 L 193 304 L 193 303 L 193 302 L 193 302 L 194 301 L 194 300 L 194 300 L 194 299 L 195 298 L 195 297 L 195 297 L 195 296 L 195 295 L 195 295 L 195 294 L 195 293 L 195 292 L 195 292 L 195 291 L 195 290 L 195 290 L 195 289 L 195 288 L 195 287 L 195 287 L 195 286 L 195 285 L 195 285 L 195 284 L 195 283 L 195 282 L 195 282 L 195 281 L 195 280 L 195 280 L 195 279 L 195 278 L 195 277 L 195 277 L 195 276 L 195 275 L 196 274 L 196 274 L 196 273 L 197 272 L 197 272 L 197 271 L 197 270 L 198 269 L 199 269 L 199 268 L 199 267 L 199 267 L 199 266 L 199 265 L 199 264 L 199 264 L 199 263 L 199 262 L 199 262 L 199 261 L 199 260 L 199 259 L 199 259 L 199 258 L 199 257 L 200 257 L 201 256 L 202 255 L 202 254 L 202 254 L 207 253 L 208 252 L 208 252 L 210 251 L 210 250 L 214 249 L 218 249 L 219 248 L 222 247 L 224 247 L 226 246 L 227 245 L 228 244 L 231 244 L 232 243 L 233 242 L 235 241 L 236 241 L 237 240 L 237 239 L 238 239 L 238 238 L 240 237 L 242 236 L 242 236 L 243 235 L 244 234 L 244 234 L 245 233 L 248 232 L 250 231 L 253 231 L 255 230 L 256 229 L 258 229 L 258 228 L 258 227 L 261 226 L 271 226 L 271 225 L 273 224 L 283 224 L 283 223 L 283 222 L 283 221 L 284 221 L 285 220 L 288 219 L 290 219 L 290 218 L 302 217 L 304 216 L 307 216 L 311 215 L 313 214 L 313 214 L 315 213 L 323 212 L 333 211 L 343 211 L 344 210 L 344 209 L 345 208 L 345 208 L 347 207 L 361 206 L 368 206 L 368 205 L 374 204 L 375 203 L 376 203 L 391 202 L 391 201 L 392 201 L 393 200 L 395 199 L 399 198 L 401 198 L 404 197 L 406 196 L 410 196 L 419 195 L 419 194 L 421 193 L 421 193 L 421 192 L 422 191 L 427 191 L 436 190 L 455 189 L 462 188 L 463 188 L 466 187 L 467 186 L 469 186 L 471 185 L 471 184 L 471 183 L 471 183 L 471 182 L 471 181 L 471 181 L 471 180 L 472 179 L 472 178 L 472 178 L 472 177 L 472 176 L 473 175 L 473 175 L 474 174 L 476 173 L 477 173 L 477 172 L 477 171 L 477 170 L 480 170 L 480 169 L 480 168 L 480 168 L 480 167 L 480 166 L 480 165 L 481 165 L 483 164 L 483 163 L 484 163 L 484 162 L 484 161 L 484 160 L 486 160 L 486 159 L 486 158 L 486 158 L 488 157 L 488 156 L 488 155 L 490 155 L 492 154 L 493 153 L 495 153 L 499 152 L 499 151 L 500 150 L 500 150 L 500 149 L 501 148 L 501 148 L 503 147 L 504 146 L 507 145 L 507 145 L 509 144 L 511 143 L 514 142 L 514 142 L 518 141 L 519 140 L 520 140 L 521 139 L 521 138 L 528 137 L 530 137 L 530 136 L 536 135 L 539 135 L 545 134 L 546 133 L 547 132 L 548 132 L 549 131 L 549 130 L 554 130 L 557 129 L 560 128 L 560 127 L 562 127 L 564 126 L 564 125 L 564 125 L 564 124 L 565 123 L 566 122 L 566 122 L 568 121 L 568 120 L 568 120 L 569 119 L 577 118 L 585 117 L 585 117 L 585 116 L 591 115 L 594 115 L 595 114 L 595 113 L 597 112 L 599 112 L 599 111 L 599 110 L 599 109 L 600 109 L 600 108 L 600 107 L 601 107 L 601 106 L 602 105 L 606 104 L 606 104 L 606 103 L 606 102 L 607 102 L 607 101 L 607 100 L 607 99 L 608 99 L 608 98 L 608 97 L 608 97 L 608 96 L 614 95 L 619 94 L 619 94 L 620 93 L 628 92 L 637 92 L 639 91 L 644 90 L 648 89 L 659 89 L 662 88 L 666 87 L 666 87 L 666 86 L 666 85 L 667 84 L 667 84 L 667 83 L 667 82 L 669 82 L 671 81 L 684 80 L 688 79 L 692 79 L 702 78 L 710 77 L 715 76 L 719 76 L 727 75 L 727 74 L 742 74 L 757 73 L 757 72 L 768 71 L 768 71 L 777 70 L 779 69 L 783 69 L 783 68 L 784 67 L 784 66 L 789 66 L 791 65 L 795 64 L 802 64 L 803 63 L 804 62 L 805 61 L 811 61 L 817 60 L 817 59 L 823 59 L 830 58 L 831 57 L 831 56 L 834 56 L 835 55 L 837 54 L 842 54 L 846 53 L 850 52 L 854 51 L 854 51 L 863 50 L 864 49 L 869 49 L 876 48 L 876 47 L 884 46 L 885 46 L 886 45 L 888 44 L 889 43 L 892 43 L 893 42 L 896 41 L 901 41 L 902 40 L 903 39 L 903 38 L 916 38 L 916 37 L 917 36 L 917 36 L 918 35 L 919 34 L 919 33 L 920 33 L 921 32 L 924 31 L 924 31 L 927 30 L 928 29 L 929 28 L 930 28 L 931 27 L 931 26 L 932 26 L 933 25 L 933 24 L 934 23 L 934 23 L 934 22 L 935 21 L 936 21 L 939 20 L 939 19 L 940 18 L 941 18 L 941 17 L 944 16 L 945 16" stroke-width="2" class="series"></path><path stroke-width="2" d="M 945 346 L 945.000000 15.000000" /><path stroke-width="2" d="M 945 346 L 945.000000 15.000000"></path><path stroke-width="2" d="M 945 346 L 950 346" /><path d="M 945 346 L 950 346" stroke-width="2"></path><text xmlns="http://www.w3.org/2000/svg" x="955" y="352">0</text><path stroke-width="2" d="M 945 308 L 950 308" /><path stroke-width="2" d="M 945 308 L 950 308"></path><text y="314" xmlns="http://www.w3.org/2000/svg" x="955">52</text><path stroke-width="2" d="M 945 272 L 950 272" /><path stroke-width="2" d="M 945 272 L 950 272"></path><text xmlns="http://www.w3.org/2000/svg" x="955" y="278">103</text><path stroke-width="2" d="M 945 235 L 950 235" /><path stroke-width="2" d="M 945 235 L 950 235"></path><text xmlns="http://www.w3.org/2000/svg" x="955" y="241">154</text><path stroke-width="2" d="M 945 198 L 950 198" /><path stroke-width="2" d="M 945 198 L 950 198"></path><text xmlns="http://www.w3.org/2000/svg" x="955" y="204">205</text><path stroke-width="2" d="M 945 162 L 950 162" /><path stroke-width="2" d="M 945 162 L 950 162"></path><text xmlns="http://www.w3.org/2000/svg" x="955" y="168">256</text><path d="M 945 125 L 950 125" stroke-width="2" /><path stroke-width="2" d="M 945 125 L 950 125"></path><text y="131" xmlns="http://www.w3.org/2000/svg" x="955">307</text><path stroke-width="2" d="M 945 89 L 950 89" /><path stroke-width="2" d="M 945 89 L 950 89"></path><text x="955" y="95" xmlns="http://www.w3.org/2000/svg">358</text><path stroke-width="2" d="M 945 52 L 950 52" /><path stroke-width="2" d="M 945 52 L 950 52"></path><text xmlns="http://www.w3.org/2000/svg" x="955" y="58">409</text><path d="M 945 16 L 950 16" stroke-width="2" /><path stroke-width="2" d="M 945 16 L 950 16"></path><text xmlns="http://www.w3.org/2000/svg" x="955" y="22">460</text><text xmlns="http://www.w3.org/2000/svg" x="987" y="175" transform="rotate(90.00,987,175)">Stargazers</text><path stroke-width="2" d="M 57.000000 346.000000 L 945 346" /><path stroke-width="2" d="M 57.000000 346.000000 L 945 346"></path><path stroke-width="2" d="M 58 346 L 58 351" /><path stroke-width="2" d="M 58 346 L 58 351"></path><text xmlns="http://www.w3.org/2000/svg" x="25" y="368">2023-04-02</text><path stroke-width="2" d="M 157 346 L 157 351" /><path stroke-width="2" d="M 157 346 L 157 351"></path><text xmlns="http://www.w3.org/2000/svg" x="124" y="368">2023-05-19</text><path stroke-width="2" d="M 256 346 L 256 351" /><path stroke-width="2" d="M 256 346 L 256 351"></path><text x="223" y="368" xmlns="http://www.w3.org/2000/svg">2023-07-05</text><path stroke-width="2" d="M 354 346 L 354 351" /><path d="M 354 346 L 354 351" stroke-width="2"></path><text xmlns="http://www.w3.org/2000/svg" x="321" y="368">2023-08-20</text><path stroke-width="2" d="M 453 346 L 453 351" /><path d="M 453 346 L 453 351" stroke-width="2"></path><text xmlns="http://www.w3.org/2000/svg" x="420" y="368">2023-10-06</text><path stroke-width="2" d="M 551 346 L 551 351" /><path stroke-width="2" d="M 551 346 L 551 351"></path><text xmlns="http://www.w3.org/2000/svg" x="518" y="368">2023-11-22</text><path stroke-width="2" d="M 650 346 L 650 351" /><path stroke-width="2" d="M 650 346 L 650 351"></path><text xmlns="http://www.w3.org/2000/svg" x="617" y="368">2024-01-08</text><path stroke-width="2" d="M 748 346 L 748 351" /><path stroke-width="2" d="M 748 346 L 748 351"></path><text x="715" y="368" xmlns="http://www.w3.org/2000/svg">2024-02-24</text><path stroke-width="2" d="M 847 346 L 847 351" /><path stroke-width="2" d="M 847 346 L 847 351"></path><text xmlns="http://www.w3.org/2000/svg" x="814" y="368">2024-04-10</text><path stroke-width="2" d="M 945 346 L 945 351" /><path stroke-width="2" d="M 945 346 L 945 351"></path><text xmlns="http://www.w3.org/2000/svg" x="912" y="368">2024-05-27</text><text x="487" y="390" xmlns="http://www.w3.org/2000/svg">Time</text></svg>