<svg xmlns="http://www.w3.org/2000/svg" xmlns:xlink="http://www.w3.org/1999/xlink" width="1024px" height="400px"><style type="text/css">
path { fill: none; stroke: rgb(51,51,51); }
path.series { stroke: #6b63ff; }
rect.background { fill: rgb(255,255,255); stroke: none; }

text {
	stroke-width: 0;
	stroke: none;
	fill: rgba(51,51,51,1.0);
	font-size: 12.8px;
	font-family: 'Roboto Medium', sans-serif;
}
</style><rect rx="8" x="0" y="0" width="1024px" height="400px" class="background" /><rect x="0" y="0" width="1024px" height="400px" class="background" rx="8"></rect><path stroke-width="2" class="series" d="M 58 345 L 60 345 L 72 345 L 73 344 L 73 344 L 73 344 L 73 343 L 73 343 L 73 343 L 73 343 L 73 342 L 73 342 L 73 342 L 73 341 L 73 341 L 73 341 L 73 340 L 73 340 L 73 340 L 74 340 L 74 339 L 74 339 L 75 339 L 76 338 L 76 338 L 76 338 L 76 337 L 77 337 L 78 337 L 78 337 L 79 336 L 80 336 L 84 336 L 84 335 L 84 335 L 84 335 L 84 334 L 86 334 L 87 334 L 88 334 L 90 333 L 93 333 L 94 333 L 99 332 L 101 332 L 104 332 L 107 331 L 108 331 L 120 331 L 120 331 L 121 330 L 121 330 L 121 330 L 121 329 L 122 329 L 122 329 L 122 328 L 122 328 L 122 328 L 122 328 L 122 327 L 122 327 L 122 327 L 122 326 L 122 326 L 122 326 L 122 325 L 122 325 L 122 325 L 122 325 L 122 324 L 122 324 L 122 324 L 122 323 L 122 323 L 122 323 L 122 322 L 122 322 L 122 322 L 122 322 L 122 321 L 122 321 L 122 321 L 122 320 L 122 320 L 122 320 L 122 319 L 122 319 L 122 319 L 122 319 L 122 318 L 122 318 L 122 318 L 122 317 L 122 317 L 122 317 L 123 316 L 123 316 L 123 316 L 123 316 L 123 315 L 123 315 L 123 315 L 123 314 L 124 314 L 124 314 L 124 313 L 124 313 L 124 313 L 124 313 L 124 312 L 124 312 L 124 312 L 124 311 L 124 311 L 124 311 L 124 310 L 124 310 L 124 310 L 124 310 L 124 309 L 125 309 L 125 309 L 125 308 L 125 308 L 125 308 L 128 307 L 128 307 L 128 307 L 129 307 L 129 306 L 131 306 L 133 306 L 133 305 L 135 305 L 136 305 L 137 304 L 137 304 L 137 304 L 139 304 L 139 303 L 140 303 L 141 303 L 141 302 L 142 302 L 142 302 L 142 301 L 142 301 L 143 301 L 144 301 L 144 300 L 145 300 L 145 300 L 145 299 L 146 299 L 147 299 L 148 298 L 150 298 L 150 298 L 151 298 L 152 297 L 152 297 L 152 297 L 153 296 L 158 296 L 158 296 L 159 295 L 163 295 L 163 295 L 163 295 L 163 294 L 164 294 L 164 294 L 166 293 L 167 293 L 167 293 L 172 292 L 173 292 L 175 292 L 176 292 L 178 291 L 178 291 L 178 291 L 182 290 L 186 290 L 191 290 L 192 289 L 192 289 L 192 289 L 192 289 L 200 288 L 203 288 L 203 288 L 206 287 L 206 287 L 207 287 L 214 286 L 214 286 L 214 286 L 215 286 L 216 285 L 218 285 L 219 285 L 220 284 L 221 284 L 223 284 L 227 283 L 227 283 L 228 283 L 228 283 L 228 282 L 228 282 L 230 282 L 235 281 L 244 281 L 247 281 L 249 280 L 249 280 L 251 280 L 251 280 L 251 279 L 251 279 L 251 279 L 251 278 L 251 278 L 251 278 L 251 277 L 251 277 L 252 277 L 252 277 L 252 276 L 252 276 L 252 276 L 254 275 L 254 275 L 254 275 L 254 274 L 255 274 L 255 274 L 255 274 L 255 273 L 255 273 L 255 273 L 255 272 L 256 272 L 257 272 L 257 271 L 257 271 L 257 271 L 257 271 L 257 270 L 258 270 L 258 270 L 258 269 L 259 269 L 259 269 L 259 268 L 260 268 L 261 268 L 261 268 L 262 267 L 264 267 L 264 267 L 265 266 L 265 266 L 265 266 L 265 265 L 265 265 L 266 265 L 267 265 L 268 264 L 268 264 L 269 264 L 270 263 L 271 263 L 271 263 L 273 262 L 274 262 L 274 262 L 275 262 L 275 261 L 278 261 L 279 261 L 279 260 L 282 260 L 283 260 L 286 259 L 286 259 L 287 259 L 287 259 L 288 258 L 288 258 L 290 258 L 291 257 L 293 257 L 293 257 L 295 256 L 295 256 L 295 256 L 295 256 L 295 255 L 295 255 L 296 255 L 296 254 L 296 254 L 296 254 L 297 253 L 300 253 L 304 253 L 304 253 L 304 252 L 307 252 L 308 252 L 309 251 L 309 251 L 310 251 L 311 250 L 311 250 L 311 250 L 311 250 L 311 249 L 311 249 L 311 249 L 312 248 L 312 248 L 312 248 L 314 247 L 314 247 L 314 247 L 314 247 L 315 246 L 315 246 L 315 246 L 315 245 L 315 245 L 315 245 L 315 244 L 315 244 L 315 244 L 318 244 L 320 243 L 320 243 L 321 243 L 329 242 L 330 242 L 332 242 L 334 241 L 341 241 L 342 241 L 342 241 L 342 240 L 342 240 L 343 240 L 343 239 L 343 239 L 344 239 L 344 238 L 351 238 L 352 238 L 355 238 L 359 237 L 363 237 L 365 237 L 367 236 L 371 236 L 371 236 L 378 235 L 385 235 L 385 235 L 390 235 L 390 234 L 394 234 L 395 234 L 397 233 L 397 233 L 397 233 L 398 232 L 400 232 L 401 232 L 403 232 L 406 231 L 406 231 L 407 231 L 407 230 L 410 230 L 413 230 L 413 229 L 416 229 L 419 229 L 419 229 L 419 228 L 421 228 L 421 228 L 422 227 L 424 227 L 426 227 L 428 226 L 430 226 L 430 226 L 434 226 L 435 225 L 437 225 L 440 225 L 440 224 L 444 224 L 445 224 L 445 223 L 446 223 L 446 223 L 448 223 L 448 222 L 450 222 L 452 222 L 453 221 L 453 221 L 453 221 L 459 220 L 459 220 L 459 220 L 460 220 L 460 219 L 461 219 L 461 219 L 461 218 L 461 218 L 463 218 L 463 217 L 464 217 L 464 217 L 465 217 L 465 216 L 466 216 L 466 216 L 467 215 L 467 215 L 467 215 L 467 214 L 467 214 L 468 214 L 468 214 L 469 213 L 470 213 L 470 213 L 470 212 L 471 212 L 471 212 L 472 211 L 473 211 L 473 211 L 473 211 L 474 210 L 475 210 L 476 210 L 476 209 L 476 209 L 478 209 L 478 208 L 478 208 L 478 208 L 478 208 L 479 207 L 479 207 L 479 207 L 479 206 L 480 206 L 483 206 L 483 205 L 484 205 L 485 205 L 486 205 L 488 204 L 488 204 L 490 204 L 492 203 L 493 203 L 495 203 L 496 202 L 496 202 L 496 202 L 496 202 L 497 201 L 497 201 L 497 201 L 498 200 L 498 200 L 498 200 L 498 199 L 499 199 L 500 199 L 500 199 L 501 198 L 501 198 L 503 198 L 503 197 L 503 197 L 504 197 L 505 196 L 507 196 L 512 196 L 512 196 L 512 195 L 512 195 L 514 195 L 515 194 L 516 194 L 516 194 L 516 193 L 516 193 L 518 193 L 520 193 L 520 192 L 520 192 L 520 192 L 522 191 L 522 191 L 522 191 L 523 190 L 525 190 L 528 190 L 528 190 L 531 189 L 531 189 L 531 189 L 534 188 L 535 188 L 537 188 L 539 187 L 540 187 L 541 187 L 541 187 L 541 186 L 541 186 L 541 186 L 541 185 L 542 185 L 542 185 L 543 184 L 543 184 L 543 184 L 543 184 L 544 183 L 545 183 L 545 183 L 549 182 L 549 182 L 553 182 L 555 181 L 555 181 L 556 181 L 556 181 L 559 180 L 559 180 L 559 180 L 560 179 L 560 179 L 560 179 L 560 178 L 560 178 L 561 178 L 561 178 L 561 177 L 561 177 L 561 177 L 562 176 L 562 176 L 563 176 L 563 175 L 564 175 L 564 175 L 565 175 L 565 174 L 565 174 L 566 174 L 567 173 L 569 173 L 569 173 L 569 172 L 569 172 L 569 172 L 570 172 L 570 171 L 570 171 L 571 171 L 573 170 L 575 170 L 577 170 L 578 169 L 579 169 L 582 169 L 585 169 L 585 168 L 587 168 L 590 168 L 590 167 L 590 167 L 594 167 L 595 166 L 596 166 L 596 166 L 596 166 L 603 165 L 603 165 L 604 165 L 604 164 L 605 164 L 605 164 L 606 163 L 606 163 L 606 163 L 607 163 L 607 162 L 608 162 L 608 162 L 608 161 L 608 161 L 608 161 L 608 160 L 609 160 L 609 160 L 610 160 L 611 159 L 612 159 L 612 159 L 612 158 L 613 158 L 613 158 L 614 157 L 614 157 L 615 157 L 615 157 L 615 156 L 615 156 L 617 156 L 617 155 L 618 155 L 618 155 L 619 154 L 620 154 L 620 154 L 620 154 L 620 153 L 620 153 L 621 153 L 621 152 L 621 152 L 622 152 L 622 151 L 623 151 L 624 151 L 624 151 L 624 150 L 624 150 L 624 150 L 625 149 L 625 149 L 625 149 L 626 148 L 626 148 L 626 148 L 627 148 L 627 147 L 627 147 L 627 147 L 627 146 L 627 146 L 628 146 L 628 145 L 628 145 L 628 145 L 628 145 L 630 144 L 631 144 L 633 144 L 633 143 L 633 143 L 633 143 L 634 142 L 635 142 L 635 142 L 636 142 L 638 141 L 640 141 L 640 141 L 641 140 L 642 140 L 642 140 L 642 139 L 643 139 L 643 139 L 643 139 L 643 138 L 643 138 L 643 138 L 643 137 L 643 137 L 644 137 L 644 136 L 644 136 L 644 136 L 644 136 L 645 135 L 645 135 L 645 135 L 646 134 L 647 134 L 647 134 L 648 133 L 648 133 L 649 133 L 649 132 L 650 132 L 652 132 L 652 132 L 652 131 L 653 131 L 653 131 L 655 130 L 656 130 L 657 130 L 658 130 L 658 129 L 658 129 L 658 129 L 659 128 L 663 128 L 665 128 L 667 127 L 668 127 L 669 127 L 670 126 L 671 126 L 671 126 L 671 126 L 671 125 L 672 125 L 672 125 L 673 124 L 673 124 L 674 124 L 676 124 L 676 123 L 676 123 L 676 123 L 676 122 L 676 122 L 676 122 L 676 121 L 676 121 L 676 121 L 676 121 L 676 120 L 676 120 L 676 120 L 676 119 L 676 119 L 676 119 L 677 118 L 677 118 L 677 118 L 677 118 L 677 117 L 677 117 L 677 117 L 678 116 L 678 116 L 678 116 L 679 115 L 679 115 L 679 115 L 679 115 L 679 114 L 679 114 L 680 114 L 681 113 L 683 113 L 683 113 L 683 112 L 684 112 L 684 112 L 685 112 L 685 111 L 687 111 L 688 111 L 689 110 L 689 110 L 689 110 L 689 109 L 689 109 L 689 109 L 689 109 L 691 108 L 691 108 L 691 108 L 694 107 L 696 107 L 697 107 L 699 106 L 700 106 L 700 106 L 700 106 L 700 105 L 701 105 L 701 105 L 701 104 L 702 104 L 702 104 L 703 103 L 703 103 L 703 103 L 703 103 L 703 102 L 704 102 L 704 102 L 704 101 L 704 101 L 704 101 L 705 100 L 705 100 L 706 100 L 706 100 L 707 99 L 707 99 L 707 99 L 707 98 L 708 98 L 708 98 L 709 97 L 709 97 L 709 97 L 710 97 L 711 96 L 714 96 L 715 96 L 718 95 L 718 95 L 719 95 L 722 94 L 722 94 L 723 94 L 725 94 L 730 93 L 730 93 L 731 93 L 733 92 L 735 92 L 735 92 L 735 91 L 737 91 L 737 91 L 738 91 L 739 90 L 740 90 L 741 90 L 742 89 L 742 89 L 743 89 L 743 88 L 743 88 L 744 88 L 747 88 L 747 87 L 748 87 L 749 87 L 749 86 L 750 86 L 751 86 L 752 85 L 752 85 L 752 85 L 752 85 L 753 84 L 754 84 L 754 84 L 754 83 L 755 83 L 756 83 L 756 82 L 757 82 L 757 82 L 757 82 L 758 81 L 758 81 L 759 81 L 759 80 L 759 80 L 759 80 L 759 79 L 760 79 L 762 79 L 763 79 L 763 78 L 766 78 L 767 78 L 768 77 L 769 77 L 771 77 L 772 76 L 774 76 L 775 76 L 777 76 L 777 75 L 778 75 L 780 75 L 782 74 L 782 74 L 782 74 L 782 73 L 782 73 L 783 73 L 784 73 L 784 72 L 785 72 L 786 72 L 786 71 L 786 71 L 792 71 L 793 70 L 793 70 L 795 70 L 796 70 L 797 69 L 797 69 L 798 69 L 798 68 L 798 68 L 799 68 L 800 67 L 800 67 L 801 67 L 801 67 L 801 66 L 802 66 L 802 66 L 803 65 L 804 65 L 806 65 L 807 64 L 811 64 L 812 64 L 812 64 L 813 63 L 814 63 L 814 63 L 814 62 L 814 62 L 817 62 L 818 61 L 819 61 L 819 61 L 820 61 L 820 60 L 821 60 L 823 60 L 825 59 L 825 59 L 825 59 L 825 58 L 826 58 L 826 58 L 826 58 L 827 57 L 827 57 L 828 57 L 829 56 L 829 56 L 830 56 L 831 55 L 831 55 L 831 55 L 831 55 L 832 54 L 835 54 L 838 54 L 839 53 L 842 53 L 843 53 L 845 52 L 845 52 L 846 52 L 846 52 L 848 51 L 848 51 L 849 51 L 851 50 L 852 50 L 855 50 L 860 49 L 860 49 L 860 49 L 860 49 L 860 48 L 862 48 L 862 48 L 862 47 L 870 47 L 873 47 L 873 46 L 874 46 L 876 46 L 878 46 L 880 45 L 881 45 L 881 45 L 882 44 L 883 44 L 888 44 L 888 43 L 889 43 L 891 43 L 893 43 L 893 42 L 893 42 L 893 42 L 894 41 L 894 41 L 894 41 L 895 40 L 897 40 L 898 40 L 899 40 L 899 39 L 899 39 L 900 39 L 902 38 L 905 38 L 907 38 L 907 37 L 909 37 L 909 37 L 909 37 L 909 36 L 909 36 L 910 36 L 910 35 L 912 35 L 913 35 L 913 34 L 914 34 L 914 34 L 914 34 L 914 33 L 914 33 L 915 33 L 915 32 L 915 32 L 915 32 L 915 31 L 915 31 L 916 31 L 916 31 L 917 30 L 917 30 L 917 30 L 917 29 L 918 29 L 919 29 L 924 28 L 924 28 L 926 28 L 926 28 L 926 27 L 926 27 L 926 27 L 926 26 L 927 26 L 927 26 L 927 25 L 927 25 L 927 25 L 927 25 L 927 24 L 927 24 L 927 24 L 927 23 L 927 23 L 927 23 L 928 22 L 928 22 L 928 22 L 929 22 L 930 21 L 930 21 L 931 21 L 932 20 L 933 20 L 933 20 L 934 19 L 934 19 L 936 19 L 936 19 L 936 18 L 937 18 L 937 18" /><path stroke-width="2" class="series" d="M 58 345 L 60 345 L 72 345 L 73 344 L 73 344 L 73 344 L 73 343 L 73 343 L 73 343 L 73 343 L 73 342 L 73 342 L 73 342 L 73 341 L 73 341 L 73 341 L 73 340 L 73 340 L 73 340 L 74 340 L 74 339 L 74 339 L 75 339 L 76 338 L 76 338 L 76 338 L 76 337 L 77 337 L 78 337 L 78 337 L 79 336 L 80 336 L 84 336 L 84 335 L 84 335 L 84 335 L 84 334 L 86 334 L 87 334 L 88 334 L 90 333 L 93 333 L 94 333 L 99 332 L 101 332 L 104 332 L 107 331 L 108 331 L 120 331 L 120 331 L 121 330 L 121 330 L 121 330 L 121 329 L 122 329 L 122 329 L 122 328 L 122 328 L 122 328 L 122 328 L 122 327 L 122 327 L 122 327 L 122 326 L 122 326 L 122 326 L 122 325 L 122 325 L 122 325 L 122 325 L 122 324 L 122 324 L 122 324 L 122 323 L 122 323 L 122 323 L 122 322 L 122 322 L 122 322 L 122 322 L 122 321 L 122 321 L 122 321 L 122 320 L 122 320 L 122 320 L 122 319 L 122 319 L 122 319 L 122 319 L 122 318 L 122 318 L 122 318 L 122 317 L 122 317 L 122 317 L 123 316 L 123 316 L 123 316 L 123 316 L 123 315 L 123 315 L 123 315 L 123 314 L 124 314 L 124 314 L 124 313 L 124 313 L 124 313 L 124 313 L 124 312 L 124 312 L 124 312 L 124 311 L 124 311 L 124 311 L 124 310 L 124 310 L 124 310 L 124 310 L 124 309 L 125 309 L 125 309 L 125 308 L 125 308 L 125 308 L 128 307 L 128 307 L 128 307 L 129 307 L 129 306 L 131 306 L 133 306 L 133 305 L 135 305 L 136 305 L 137 304 L 137 304 L 137 304 L 139 304 L 139 303 L 140 303 L 141 303 L 141 302 L 142 302 L 142 302 L 142 301 L 142 301 L 143 301 L 144 301 L 144 300 L 145 300 L 145 300 L 145 299 L 146 299 L 147 299 L 148 298 L 150 298 L 150 298 L 151 298 L 152 297 L 152 297 L 152 297 L 153 296 L 158 296 L 158 296 L 159 295 L 163 295 L 163 295 L 163 295 L 163 294 L 164 294 L 164 294 L 166 293 L 167 293 L 167 293 L 172 292 L 173 292 L 175 292 L 176 292 L 178 291 L 178 291 L 178 291 L 182 290 L 186 290 L 191 290 L 192 289 L 192 289 L 192 289 L 192 289 L 200 288 L 203 288 L 203 288 L 206 287 L 206 287 L 207 287 L 214 286 L 214 286 L 214 286 L 215 286 L 216 285 L 218 285 L 219 285 L 220 284 L 221 284 L 223 284 L 227 283 L 227 283 L 228 283 L 228 283 L 228 282 L 228 282 L 230 282 L 235 281 L 244 281 L 247 281 L 249 280 L 249 280 L 251 280 L 251 280 L 251 279 L 251 279 L 251 279 L 251 278 L 251 278 L 251 278 L 251 277 L 251 277 L 252 277 L 252 277 L 252 276 L 252 276 L 252 276 L 254 275 L 254 275 L 254 275 L 254 274 L 255 274 L 255 274 L 255 274 L 255 273 L 255 273 L 255 273 L 255 272 L 256 272 L 257 272 L 257 271 L 257 271 L 257 271 L 257 271 L 257 270 L 258 270 L 258 270 L 258 269 L 259 269 L 259 269 L 259 268 L 260 268 L 261 268 L 261 268 L 262 267 L 264 267 L 264 267 L 265 266 L 265 266 L 265 266 L 265 265 L 265 265 L 266 265 L 267 265 L 268 264 L 268 264 L 269 264 L 270 263 L 271 263 L 271 263 L 273 262 L 274 262 L 274 262 L 275 262 L 275 261 L 278 261 L 279 261 L 279 260 L 282 260 L 283 260 L 286 259 L 286 259 L 287 259 L 287 259 L 288 258 L 288 258 L 290 258 L 291 257 L 293 257 L 293 257 L 295 256 L 295 256 L 295 256 L 295 256 L 295 255 L 295 255 L 296 255 L 296 254 L 296 254 L 296 254 L 297 253 L 300 253 L 304 253 L 304 253 L 304 252 L 307 252 L 308 252 L 309 251 L 309 251 L 310 251 L 311 250 L 311 250 L 311 250 L 311 250 L 311 249 L 311 249 L 311 249 L 312 248 L 312 248 L 312 248 L 314 247 L 314 247 L 314 247 L 314 247 L 315 246 L 315 246 L 315 246 L 315 245 L 315 245 L 315 245 L 315 244 L 315 244 L 315 244 L 318 244 L 320 243 L 320 243 L 321 243 L 329 242 L 330 242 L 332 242 L 334 241 L 341 241 L 342 241 L 342 241 L 342 240 L 342 240 L 343 240 L 343 239 L 343 239 L 344 239 L 344 238 L 351 238 L 352 238 L 355 238 L 359 237 L 363 237 L 365 237 L 367 236 L 371 236 L 371 236 L 378 235 L 385 235 L 385 235 L 390 235 L 390 234 L 394 234 L 395 234 L 397 233 L 397 233 L 397 233 L 398 232 L 400 232 L 401 232 L 403 232 L 406 231 L 406 231 L 407 231 L 407 230 L 410 230 L 413 230 L 413 229 L 416 229 L 419 229 L 419 229 L 419 228 L 421 228 L 421 228 L 422 227 L 424 227 L 426 227 L 428 226 L 430 226 L 430 226 L 434 226 L 435 225 L 437 225 L 440 225 L 440 224 L 444 224 L 445 224 L 445 223 L 446 223 L 446 223 L 448 223 L 448 222 L 450 222 L 452 222 L 453 221 L 453 221 L 453 221 L 459 220 L 459 220 L 459 220 L 460 220 L 460 219 L 461 219 L 461 219 L 461 218 L 461 218 L 463 218 L 463 217 L 464 217 L 464 217 L 465 217 L 465 216 L 466 216 L 466 216 L 467 215 L 467 215 L 467 215 L 467 214 L 467 214 L 468 214 L 468 214 L 469 213 L 470 213 L 470 213 L 470 212 L 471 212 L 471 212 L 472 211 L 473 211 L 473 211 L 473 211 L 474 210 L 475 210 L 476 210 L 476 209 L 476 209 L 478 209 L 478 208 L 478 208 L 478 208 L 478 208 L 479 207 L 479 207 L 479 207 L 479 206 L 480 206 L 483 206 L 483 205 L 484 205 L 485 205 L 486 205 L 488 204 L 488 204 L 490 204 L 492 203 L 493 203 L 495 203 L 496 202 L 496 202 L 496 202 L 496 202 L 497 201 L 497 201 L 497 201 L 498 200 L 498 200 L 498 200 L 498 199 L 499 199 L 500 199 L 500 199 L 501 198 L 501 198 L 503 198 L 503 197 L 503 197 L 504 197 L 505 196 L 507 196 L 512 196 L 512 196 L 512 195 L 512 195 L 514 195 L 515 194 L 516 194 L 516 194 L 516 193 L 516 193 L 518 193 L 520 193 L 520 192 L 520 192 L 520 192 L 522 191 L 522 191 L 522 191 L 523 190 L 525 190 L 528 190 L 528 190 L 531 189 L 531 189 L 531 189 L 534 188 L 535 188 L 537 188 L 539 187 L 540 187 L 541 187 L 541 187 L 541 186 L 541 186 L 541 186 L 541 185 L 542 185 L 542 185 L 543 184 L 543 184 L 543 184 L 543 184 L 544 183 L 545 183 L 545 183 L 549 182 L 549 182 L 553 182 L 555 181 L 555 181 L 556 181 L 556 181 L 559 180 L 559 180 L 559 180 L 560 179 L 560 179 L 560 179 L 560 178 L 560 178 L 561 178 L 561 178 L 561 177 L 561 177 L 561 177 L 562 176 L 562 176 L 563 176 L 563 175 L 564 175 L 564 175 L 565 175 L 565 174 L 565 174 L 566 174 L 567 173 L 569 173 L 569 173 L 569 172 L 569 172 L 569 172 L 570 172 L 570 171 L 570 171 L 571 171 L 573 170 L 575 170 L 577 170 L 578 169 L 579 169 L 582 169 L 585 169 L 585 168 L 587 168 L 590 168 L 590 167 L 590 167 L 594 167 L 595 166 L 596 166 L 596 166 L 596 166 L 603 165 L 603 165 L 604 165 L 604 164 L 605 164 L 605 164 L 606 163 L 606 163 L 606 163 L 607 163 L 607 162 L 608 162 L 608 162 L 608 161 L 608 161 L 608 161 L 608 160 L 609 160 L 609 160 L 610 160 L 611 159 L 612 159 L 612 159 L 612 158 L 613 158 L 613 158 L 614 157 L 614 157 L 615 157 L 615 157 L 615 156 L 615 156 L 617 156 L 617 155 L 618 155 L 618 155 L 619 154 L 620 154 L 620 154 L 620 154 L 620 153 L 620 153 L 621 153 L 621 152 L 621 152 L 622 152 L 622 151 L 623 151 L 624 151 L 624 151 L 624 150 L 624 150 L 624 150 L 625 149 L 625 149 L 625 149 L 626 148 L 626 148 L 626 148 L 627 148 L 627 147 L 627 147 L 627 147 L 627 146 L 627 146 L 628 146 L 628 145 L 628 145 L 628 145 L 628 145 L 630 144 L 631 144 L 633 144 L 633 143 L 633 143 L 633 143 L 634 142 L 635 142 L 635 142 L 636 142 L 638 141 L 640 141 L 640 141 L 641 140 L 642 140 L 642 140 L 642 139 L 643 139 L 643 139 L 643 139 L 643 138 L 643 138 L 643 138 L 643 137 L 643 137 L 644 137 L 644 136 L 644 136 L 644 136 L 644 136 L 645 135 L 645 135 L 645 135 L 646 134 L 647 134 L 647 134 L 648 133 L 648 133 L 649 133 L 649 132 L 650 132 L 652 132 L 652 132 L 652 131 L 653 131 L 653 131 L 655 130 L 656 130 L 657 130 L 658 130 L 658 129 L 658 129 L 658 129 L 659 128 L 663 128 L 665 128 L 667 127 L 668 127 L 669 127 L 670 126 L 671 126 L 671 126 L 671 126 L 671 125 L 672 125 L 672 125 L 673 124 L 673 124 L 674 124 L 676 124 L 676 123 L 676 123 L 676 123 L 676 122 L 676 122 L 676 122 L 676 121 L 676 121 L 676 121 L 676 121 L 676 120 L 676 120 L 676 120 L 676 119 L 676 119 L 676 119 L 677 118 L 677 118 L 677 118 L 677 118 L 677 117 L 677 117 L 677 117 L 678 116 L 678 116 L 678 116 L 679 115 L 679 115 L 679 115 L 679 115 L 679 114 L 679 114 L 680 114 L 681 113 L 683 113 L 683 113 L 683 112 L 684 112 L 684 112 L 685 112 L 685 111 L 687 111 L 688 111 L 689 110 L 689 110 L 689 110 L 689 109 L 689 109 L 689 109 L 689 109 L 691 108 L 691 108 L 691 108 L 694 107 L 696 107 L 697 107 L 699 106 L 700 106 L 700 106 L 700 106 L 700 105 L 701 105 L 701 105 L 701 104 L 702 104 L 702 104 L 703 103 L 703 103 L 703 103 L 703 103 L 703 102 L 704 102 L 704 102 L 704 101 L 704 101 L 704 101 L 705 100 L 705 100 L 706 100 L 706 100 L 707 99 L 707 99 L 707 99 L 707 98 L 708 98 L 708 98 L 709 97 L 709 97 L 709 97 L 710 97 L 711 96 L 714 96 L 715 96 L 718 95 L 718 95 L 719 95 L 722 94 L 722 94 L 723 94 L 725 94 L 730 93 L 730 93 L 731 93 L 733 92 L 735 92 L 735 92 L 735 91 L 737 91 L 737 91 L 738 91 L 739 90 L 740 90 L 741 90 L 742 89 L 742 89 L 743 89 L 743 88 L 743 88 L 744 88 L 747 88 L 747 87 L 748 87 L 749 87 L 749 86 L 750 86 L 751 86 L 752 85 L 752 85 L 752 85 L 752 85 L 753 84 L 754 84 L 754 84 L 754 83 L 755 83 L 756 83 L 756 82 L 757 82 L 757 82 L 757 82 L 758 81 L 758 81 L 759 81 L 759 80 L 759 80 L 759 80 L 759 79 L 760 79 L 762 79 L 763 79 L 763 78 L 766 78 L 767 78 L 768 77 L 769 77 L 771 77 L 772 76 L 774 76 L 775 76 L 777 76 L 777 75 L 778 75 L 780 75 L 782 74 L 782 74 L 782 74 L 782 73 L 782 73 L 783 73 L 784 73 L 784 72 L 785 72 L 786 72 L 786 71 L 786 71 L 792 71 L 793 70 L 793 70 L 795 70 L 796 70 L 797 69 L 797 69 L 798 69 L 798 68 L 798 68 L 799 68 L 800 67 L 800 67 L 801 67 L 801 67 L 801 66 L 802 66 L 802 66 L 803 65 L 804 65 L 806 65 L 807 64 L 811 64 L 812 64 L 812 64 L 813 63 L 814 63 L 814 63 L 814 62 L 814 62 L 817 62 L 818 61 L 819 61 L 819 61 L 820 61 L 820 60 L 821 60 L 823 60 L 825 59 L 825 59 L 825 59 L 825 58 L 826 58 L 826 58 L 826 58 L 827 57 L 827 57 L 828 57 L 829 56 L 829 56 L 830 56 L 831 55 L 831 55 L 831 55 L 831 55 L 832 54 L 835 54 L 838 54 L 839 53 L 842 53 L 843 53 L 845 52 L 845 52 L 846 52 L 846 52 L 848 51 L 848 51 L 849 51 L 851 50 L 852 50 L 855 50 L 860 49 L 860 49 L 860 49 L 860 49 L 860 48 L 862 48 L 862 48 L 862 47 L 870 47 L 873 47 L 873 46 L 874 46 L 876 46 L 878 46 L 880 45 L 881 45 L 881 45 L 882 44 L 883 44 L 888 44 L 888 43 L 889 43 L 891 43 L 893 43 L 893 42 L 893 42 L 893 42 L 894 41 L 894 41 L 894 41 L 895 40 L 897 40 L 898 40 L 899 40 L 899 39 L 899 39 L 900 39 L 902 38 L 905 38 L 907 38 L 907 37 L 909 37 L 909 37 L 909 37 L 909 36 L 909 36 L 910 36 L 910 35 L 912 35 L 913 35 L 913 34 L 914 34 L 914 34 L 914 34 L 914 33 L 914 33 L 915 33 L 915 32 L 915 32 L 915 32 L 915 31 L 915 31 L 916 31 L 916 31 L 917 30 L 917 30 L 917 30 L 917 29 L 918 29 L 919 29 L 924 28 L 924 28 L 926 28 L 926 28 L 926 27 L 926 27 L 926 27 L 926 26 L 927 26 L 927 26 L 927 25 L 927 25 L 927 25 L 927 25 L 927 24 L 927 24 L 927 24 L 927 23 L 927 23 L 927 23 L 928 22 L 928 22 L 928 22 L 929 22 L 930 21 L 930 21 L 931 21 L 932 20 L 933 20 L 933 20 L 934 19 L 934 19 L 936 19 L 936 19 L 936 18 L 937 18 L 937 18"></path><path stroke-width="2" d="M 937 346 L 937.000000 15.000000" /><path stroke-width="2" d="M 937 346 L 937.000000 15.000000"></path><path stroke-width="2" d="M 937 346 L 942 346" /><path stroke-width="2" d="M 937 346 L 942 346"></path><text xmlns="http://www.w3.org/2000/svg" x="947" y="352">0</text><path stroke-width="2" d="M 937 307 L 942 307" /><path stroke-width="2" d="M 937 307 L 942 307"></path><text xmlns="http://www.w3.org/2000/svg" x="947" y="313">130</text><path stroke-width="2" d="M 937 271 L 942 271" /><path stroke-width="2" d="M 937 271 L 942 271"></path><text xmlns="http://www.w3.org/2000/svg" x="947" y="277">250</text><path stroke-width="2" d="M 937 235 L 942 235" /><path stroke-width="2" d="M 937 235 L 942 235"></path><text xmlns="http://www.w3.org/2000/svg" x="947" y="241">370</text><path stroke-width="2" d="M 937 199 L 942 199" /><path stroke-width="2" d="M 937 199 L 942 199"></path><text xmlns="http://www.w3.org/2000/svg" x="947" y="205">490</text><path stroke-width="2" d="M 937 160 L 942 160" /><path stroke-width="2" d="M 937 160 L 942 160"></path><text xmlns="http://www.w3.org/2000/svg" x="947" y="166">620</text><path d="M 937 124 L 942 124" stroke-width="2" /><path stroke-width="2" d="M 937 124 L 942 124"></path><text xmlns="http://www.w3.org/2000/svg" x="947" y="130">740</text><path d="M 937 88 L 942 88" stroke-width="2" /><path stroke-width="2" d="M 937 88 L 942 88"></path><text x="947" y="94" xmlns="http://www.w3.org/2000/svg">860</text><path stroke-width="2" d="M 937 52 L 942 52" /><path stroke-width="2" d="M 937 52 L 942 52"></path><text xmlns="http://www.w3.org/2000/svg" x="947" y="58">980</text><path stroke-width="2" d="M 937 16 L 942 16" /><path stroke-width="2" d="M 937 16 L 942 16"></path><text y="22" xmlns="http://www.w3.org/2000/svg" x="947">1100</text><text x="987" y="175" transform="rotate(90.00,987,175)" xmlns="http://www.w3.org/2000/svg">Stargazers</text><path stroke-width="2" d="M 57.000000 346.000000 L 937 346" /><path stroke-width="2" d="M 57.000000 346.000000 L 937 346"></path><path stroke-width="2" d="M 58 346 L 58 351" /><path stroke-width="2" d="M 58 346 L 58 351"></path><text xmlns="http://www.w3.org/2000/svg" x="25" y="368">2023-04-02</text><path stroke-width="2" d="M 156 346 L 156 351" /><path stroke-width="2" d="M 156 346 L 156 351"></path><text x="123" y="368" xmlns="http://www.w3.org/2000/svg">2023-07-10</text><path stroke-width="2" d="M 254 346 L 254 351" /><path stroke-width="2" d="M 254 346 L 254 351"></path><text xmlns="http://www.w3.org/2000/svg" x="221" y="368">2023-10-18</text><path stroke-width="2" d="M 352 346 L 352 351" /><path stroke-width="2" d="M 352 346 L 352 351"></path><text xmlns="http://www.w3.org/2000/svg" x="319" y="368">2024-01-25</text><path d="M 449 346 L 449 351" stroke-width="2" /><path stroke-width="2" d="M 449 346 L 449 351"></path><text x="416" y="368" xmlns="http://www.w3.org/2000/svg">2024-05-03</text><path stroke-width="2" d="M 547 346 L 547 351" /><path stroke-width="2" d="M 547 346 L 547 351"></path><text xmlns="http://www.w3.org/2000/svg" x="514" y="368">2024-08-10</text><path stroke-width="2" d="M 645 346 L 645 351" /><path stroke-width="2" d="M 645 346 L 645 351"></path><text xmlns="http://www.w3.org/2000/svg" x="612" y="368">2024-11-18</text><path stroke-width="2" d="M 742 346 L 742 351" /><path stroke-width="2" d="M 742 346 L 742 351"></path><text y="368" xmlns="http://www.w3.org/2000/svg" x="709">2025-02-25</text><path stroke-width="2" d="M 840 346 L 840 351" /><path stroke-width="2" d="M 840 346 L 840 351"></path><text x="807" y="368" xmlns="http://www.w3.org/2000/svg">2025-06-04</text><path stroke-width="2" d="M 937 346 L 937 351" /><path stroke-width="2" d="M 937 346 L 937 351"></path><text x="904" y="368" xmlns="http://www.w3.org/2000/svg">2025-09-12</text><text x="483" y="390" xmlns="http://www.w3.org/2000/svg">Time</text></svg>