<svg xmlns="http://www.w3.org/2000/svg" xmlns:xlink="http://www.w3.org/1999/xlink" width="1024px" height="400px"><style type="text/css">
path { fill: none; stroke: rgb(51,51,51); }
path.series { stroke: #6b63ff; }
rect.background { fill: rgb(255,255,255); stroke: none; }

text {
	stroke-width: 0;
	stroke: none;
	fill: rgba(51,51,51,1.0);
	font-size: 12.8px;
	font-family: 'Roboto Medium', sans-serif;
}
</style><rect height="400px" class="background" rx="8" x="0" y="0" width="1024px" /><rect x="0" y="0" width="1024px" height="400px" class="background" rx="8"></rect><path class="series" d="M 58 345 L 60 345 L 71 345 L 72 344 L 72 344 L 72 344 L 72 344 L 72 343 L 72 343 L 72 343 L 72 342 L 72 342 L 72 342 L 72 342 L 72 341 L 72 341 L 72 341 L 73 341 L 73 340 L 73 340 L 73 340 L 74 339 L 74 339 L 75 339 L 75 339 L 75 338 L 75 338 L 76 338 L 77 338 L 77 337 L 78 337 L 79 337 L 83 336 L 83 336 L 83 336 L 83 336 L 83 335 L 85 335 L 86 335 L 86 335 L 88 334 L 91 334 L 92 334 L 97 333 L 99 333 L 101 333 L 104 333 L 105 332 L 116 332 L 116 332 L 118 331 L 118 331 L 118 331 L 118 331 L 118 330 L 118 330 L 118 330 L 118 330 L 118 329 L 118 329 L 118 329 L 118 328 L 119 328 L 119 328 L 119 328 L 119 327 L 119 327 L 119 327 L 119 327 L 119 326 L 119 326 L 119 326 L 119 325 L 119 325 L 119 325 L 119 325 L 119 324 L 119 324 L 119 324 L 119 324 L 119 323 L 119 323 L 119 323 L 119 322 L 119 322 L 119 322 L 119 322 L 119 321 L 119 321 L 119 321 L 119 320 L 119 320 L 119 320 L 119 320 L 119 319 L 119 319 L 119 319 L 119 319 L 119 318 L 120 318 L 120 318 L 120 317 L 120 317 L 120 317 L 121 317 L 121 316 L 121 316 L 121 316 L 121 316 L 121 315 L 121 315 L 121 315 L 121 314 L 121 314 L 121 314 L 121 314 L 121 313 L 121 313 L 121 313 L 121 313 L 121 312 L 121 312 L 122 312 L 122 311 L 122 311 L 122 311 L 124 311 L 125 310 L 125 310 L 126 310 L 126 309 L 127 309 L 129 309 L 129 309 L 131 308 L 132 308 L 133 308 L 133 308 L 133 307 L 135 307 L 135 307 L 136 306 L 137 306 L 137 306 L 138 306 L 138 305 L 138 305 L 138 305 L 139 305 L 140 304 L 140 304 L 140 304 L 141 303 L 141 303 L 141 303 L 142 303 L 143 302 L 145 302 L 145 302 L 146 302 L 147 301 L 147 301 L 147 301 L 148 300 L 153 300 L 153 300 L 153 300 L 158 299 L 158 299 L 158 299 L 158 298 L 158 298 L 159 298 L 160 298 L 161 297 L 161 297 L 166 297 L 167 297 L 169 296 L 170 296 L 171 296 L 171 295 L 172 295 L 176 295 L 180 295 L 185 294 L 185 294 L 185 294 L 185 294 L 185 293 L 193 293 L 196 293 L 196 292 L 198 292 L 199 292 L 199 292 L 206 291 L 206 291 L 206 291 L 207 291 L 208 290 L 210 290 L 212 290 L 213 289 L 214 289 L 218 289 L 218 289 L 219 288 L 219 288 L 219 288 L 219 287 L 221 287 L 225 287 L 234 287 L 237 286 L 239 286 L 239 286 L 241 286 L 241 285 L 241 285 L 241 285 L 241 284 L 241 284 L 241 284 L 241 284 L 241 283 L 241 283 L 242 283 L 242 283 L 242 282 L 242 282 L 242 282 L 244 281 L 244 281 L 244 281 L 244 281 L 245 280 L 245 280 L 245 280 L 245 280 L 245 279 L 245 279 L 245 279 L 246 278 L 246 278 L 247 278 L 247 278 L 247 277 L 247 277 L 247 277 L 248 276 L 248 276 L 248 276 L 248 276 L 249 275 L 249 275 L 249 275 L 250 275 L 251 274 L 252 274 L 253 274 L 254 273 L 254 273 L 254 273 L 254 273 L 254 272 L 254 272 L 255 272 L 256 272 L 257 271 L 257 271 L 258 271 L 259 270 L 260 270 L 260 270 L 262 270 L 262 269 L 263 269 L 263 269 L 263 269 L 267 268 L 267 268 L 267 268 L 270 267 L 271 267 L 274 267 L 274 267 L 275 266 L 275 266 L 276 266 L 276 265 L 278 265 L 279 265 L 280 265 L 281 264 L 282 264 L 282 264 L 282 264 L 283 263 L 283 263 L 283 263 L 283 262 L 284 262 L 284 262 L 284 262 L 285 261 L 288 261 L 292 261 L 292 261 L 292 260 L 294 260 L 295 260 L 296 259 L 296 259 L 297 259 L 298 259 L 298 258 L 298 258 L 298 258 L 298 258 L 298 257 L 298 257 L 299 257 L 299 256 L 299 256 L 301 256 L 301 256 L 301 255 L 301 255 L 301 255 L 301 254 L 302 254 L 302 254 L 302 254 L 302 253 L 302 253 L 302 253 L 302 253 L 305 252 L 306 252 L 307 252 L 307 251 L 315 251 L 316 251 L 318 251 L 320 250 L 326 250 L 327 250 L 328 250 L 328 249 L 328 249 L 328 249 L 328 248 L 328 248 L 329 248 L 330 248 L 335 247 L 337 247 L 339 247 L 344 247 L 347 246 L 349 246 L 351 246 L 354 245 L 354 245 L 361 245 L 368 245 L 368 244 L 373 244 L 373 244 L 377 243 L 377 243 L 379 243 L 379 243 L 380 242 L 380 242 L 382 242 L 383 242 L 385 241 L 388 241 L 388 241 L 389 240 L 389 240 L 392 240 L 394 240 L 394 239 L 397 239 L 400 239 L 401 239 L 401 238 L 402 238 L 402 238 L 403 237 L 405 237 L 407 237 L 409 237 L 411 236 L 411 236 L 415 236 L 415 236 L 417 235 L 420 235 L 421 235 L 424 234 L 425 234 L 425 234 L 426 234 L 426 233 L 428 233 L 428 233 L 429 232 L 431 232 L 432 232 L 432 232 L 433 231 L 438 231 L 438 231 L 439 231 L 439 230 L 439 230 L 440 230 L 440 229 L 440 229 L 440 229 L 442 229 L 442 228 L 443 228 L 443 228 L 444 228 L 444 227 L 445 227 L 445 227 L 445 226 L 446 226 L 446 226 L 446 226 L 446 225 L 446 225 L 447 225 L 447 225 L 448 224 L 448 224 L 449 224 L 449 223 L 449 223 L 450 223 L 451 223 L 451 222 L 452 222 L 453 222 L 454 221 L 454 221 L 454 221 L 456 221 L 456 220 L 456 220 L 456 220 L 457 220 L 457 219 L 457 219 L 457 219 L 458 218 L 458 218 L 461 218 L 461 218 L 462 217 L 462 217 L 464 217 L 465 217 L 466 216 L 467 216 L 469 216 L 471 215 L 473 215 L 473 215 L 473 215 L 473 214 L 474 214 L 474 214 L 474 214 L 474 213 L 475 213 L 475 213 L 475 212 L 475 212 L 476 212 L 477 212 L 477 211 L 478 211 L 478 211 L 480 210 L 480 210 L 480 210 L 481 210 L 482 209 L 483 209 L 488 209 L 488 209 L 488 208 L 488 208 L 490 208 L 492 207 L 492 207 L 492 207 L 492 207 L 492 206 L 494 206 L 496 206 L 496 206 L 496 205 L 496 205 L 498 205 L 498 204 L 498 204 L 499 204 L 501 204 L 503 203 L 503 203 L 506 203 L 506 203 L 507 202 L 510 202 L 510 202 L 512 201 L 514 201 L 515 201 L 516 201 L 516 200 L 516 200 L 516 200 L 516 199 L 516 199 L 517 199 L 517 199 L 517 198 L 518 198 L 518 198 L 518 198 L 519 197 L 520 197 L 520 197 L 524 196 L 524 196 L 528 196 L 529 196 L 529 195 L 530 195 L 531 195 L 533 195 L 533 194 L 533 194 L 534 194 L 534 193 L 534 193 L 534 193 L 534 193 L 535 192 L 535 192 L 535 192 L 535 192 L 535 191 L 536 191 L 536 191 L 537 190 L 537 190 L 537 190 L 538 190 L 539 189 L 539 189 L 539 189 L 539 188 L 540 188 L 542 188 L 542 188 L 542 187 L 543 187 L 543 187 L 543 187 L 543 186 L 544 186 L 544 186 L 546 185 L 548 185 L 550 185 L 551 185 L 552 184 L 555 184 L 557 184 L 558 184 L 559 183 L 563 183 L 563 183 L 563 182 L 566 182 L 567 182 L 568 182 L 568 181 L 568 181 L 575 181 L 575 181 L 576 180 L 576 180 L 576 180 L 577 179 L 578 179 L 578 179 L 578 179 L 579 178 L 579 178 L 579 178 L 580 177 L 580 177 L 580 177 L 580 177 L 580 176 L 580 176 L 580 176 L 581 176 L 582 175 L 583 175 L 583 175 L 583 174 L 584 174 L 584 174 L 585 174 L 586 173 L 586 173 L 586 173 L 586 173 L 587 172 L 588 172 L 588 172 L 589 171 L 589 171 L 590 171 L 590 171 L 591 170 L 591 170 L 591 170 L 591 170 L 592 169 L 592 169 L 592 169 L 593 168 L 593 168 L 594 168 L 594 168 L 594 167 L 594 167 L 595 167 L 595 166 L 595 166 L 595 166 L 595 166 L 596 165 L 597 165 L 597 165 L 597 165 L 597 164 L 597 164 L 597 164 L 598 163 L 598 163 L 598 163 L 598 163 L 598 162 L 598 162 L 598 162 L 600 162 L 601 161 L 603 161 L 603 161 L 603 160 L 603 160 L 604 160 L 605 160 L 605 159 L 606 159 L 608 159 L 609 159 L 610 158 L 611 158 L 611 158 L 611 157 L 612 157 L 612 157 L 612 157 L 613 156 L 613 156 L 613 156 L 613 155 L 613 155 L 613 155 L 613 155 L 613 154 L 613 154 L 614 154 L 614 154 L 614 153 L 614 153 L 615 153 L 615 152 L 617 152 L 617 152 L 617 152 L 617 151 L 618 151 L 618 151 L 619 151 L 622 150 L 622 150 L 622 150 L 622 149 L 622 149 L 624 149 L 625 149 L 626 148 L 627 148 L 627 148 L 627 148 L 627 147 L 628 147 L 632 147 L 633 146 L 636 146 L 637 146 L 637 146 L 638 145 L 639 145 L 639 145 L 640 144 L 640 144 L 640 144 L 640 144 L 641 143 L 641 143 L 642 143 L 644 143 L 644 142 L 644 142 L 644 142 L 644 141 L 644 141 L 644 141 L 644 141 L 644 140 L 644 140 L 644 140 L 644 140 L 644 139 L 644 139 L 644 139 L 644 138 L 644 138 L 645 138 L 645 138 L 645 137 L 645 137 L 645 137 L 645 137 L 645 136 L 646 136 L 646 136 L 646 135 L 647 135 L 647 135 L 647 135 L 647 134 L 647 134 L 647 134 L 648 133 L 649 133 L 650 133 L 651 133 L 651 132 L 652 132 L 652 132 L 652 132 L 653 131 L 654 131 L 655 131 L 656 130 L 656 130 L 656 130 L 656 130 L 656 129 L 656 129 L 656 129 L 658 129 L 658 128 L 658 128 L 661 128 L 662 127 L 663 127 L 665 127 L 666 127 L 667 126 L 667 126 L 667 126 L 667 126 L 668 125 L 668 125 L 668 125 L 669 124 L 669 124 L 670 124 L 670 124 L 670 123 L 670 123 L 670 123 L 670 122 L 670 122 L 670 122 L 671 122 L 671 121 L 671 121 L 672 121 L 673 121 L 673 120 L 673 120 L 674 120 L 674 119 L 674 119 L 675 119 L 675 119 L 675 118 L 675 118 L 676 118 L 677 118 L 680 117 L 681 117 L 683 117 L 684 116 L 685 116 L 687 116 L 688 116 L 688 115 L 691 115 L 695 115 L 695 115 L 697 114 L 698 114 L 700 114 L 700 113 L 700 113 L 702 113 L 702 113 L 703 112 L 703 112 L 705 112 L 706 111 L 706 111 L 706 111 L 707 111 L 707 110 L 707 110 L 708 110 L 711 110 L 711 109 L 712 109 L 713 109 L 713 108 L 714 108 L 715 108 L 716 108 L 716 107 L 716 107 L 716 107 L 717 107 L 718 106 L 718 106 L 718 106 L 719 105 L 720 105 L 720 105 L 720 105 L 721 104 L 721 104 L 721 104 L 722 104 L 722 103 L 722 103 L 722 103 L 722 102 L 723 102 L 723 102 L 725 102 L 726 101 L 727 101 L 729 101 L 730 100 L 731 100 L 732 100 L 734 100 L 735 99 L 737 99 L 738 99 L 739 99 L 740 98 L 741 98 L 743 98 L 744 97 L 744 97 L 745 97 L 745 97 L 745 96 L 745 96 L 746 96 L 747 96 L 748 95 L 748 95 L 748 95 L 748 94 L 754 94 L 754 94 L 755 94 L 757 93 L 758 93 L 759 93 L 759 92 L 760 92 L 760 92 L 760 92 L 761 91 L 761 91 L 761 91 L 762 91 L 762 90 L 763 90 L 763 90 L 763 89 L 765 89 L 768 89 L 768 89 L 772 88 L 772 88 L 773 88 L 774 88 L 774 87 L 774 87 L 775 87 L 775 86 L 777 86 L 778 86 L 780 86 L 780 85 L 780 85 L 780 85 L 782 85 L 783 84 L 785 84 L 785 84 L 785 83 L 785 83 L 786 83 L 786 83 L 786 82 L 787 82 L 787 82 L 788 82 L 789 81 L 789 81 L 790 81 L 790 80 L 791 80 L 791 80 L 791 80 L 792 79 L 794 79 L 798 79 L 798 78 L 801 78 L 802 78 L 804 78 L 804 77 L 805 77 L 805 77 L 807 77 L 807 76 L 808 76 L 810 76 L 811 75 L 814 75 L 818 75 L 818 75 L 818 74 L 818 74 L 819 74 L 820 74 L 820 73 L 820 73 L 828 73 L 830 72 L 830 72 L 832 72 L 833 72 L 835 71 L 837 71 L 838 71 L 838 71 L 839 70 L 840 70 L 844 70 L 845 69 L 846 69 L 847 69 L 849 69 L 850 68 L 850 68 L 850 68 L 850 67 L 851 67 L 851 67 L 851 67 L 853 66 L 855 66 L 856 66 L 856 66 L 857 65 L 859 65 L 861 65 L 863 64 L 863 64 L 865 64 L 865 64 L 865 63 L 865 63 L 865 63 L 866 63 L 866 62 L 868 62 L 869 62 L 869 61 L 870 61 L 870 61 L 870 61 L 870 60 L 870 60 L 870 60 L 870 60 L 871 59 L 871 59 L 871 59 L 872 58 L 872 58 L 872 58 L 872 58 L 872 57 L 873 57 L 873 57 L 874 56 L 879 56 L 879 56 L 881 56 L 881 55 L 881 55 L 881 55 L 881 55 L 881 54 L 881 54 L 882 54 L 882 53 L 882 53 L 882 53 L 882 53 L 882 52 L 882 52 L 882 52 L 882 52 L 882 51 L 882 51 L 883 51 L 883 50 L 883 50 L 883 50 L 884 50 L 884 49 L 886 49 L 887 49 L 887 49 L 888 48 L 888 48 L 888 48 L 890 47 L 890 47 L 890 47 L 892 47 L 893 46 L 894 46 L 894 46 L 895 45 L 896 45 L 896 45 L 898 45 L 898 44 L 899 44 L 900 44 L 901 44 L 901 43 L 901 43 L 902 43 L 903 42 L 903 42 L 904 42 L 905 42 L 906 41 L 908 41 L 909 41 L 912 41 L 912 40 L 913 40 L 917 40 L 917 39 L 917 39 L 918 39 L 918 39 L 918 38 L 919 38 L 920 38 L 921 38 L 922 37 L 922 37 L 922 37 L 923 36 L 923 36 L 923 36 L 927 36 L 927 35 L 928 35 L 929 35 L 930 34 L 931 34 L 937 34 L 937 34" stroke-width="2" /><path stroke-width="2" class="series" d="M 58 345 L 60 345 L 71 345 L 72 344 L 72 344 L 72 344 L 72 344 L 72 343 L 72 343 L 72 343 L 72 342 L 72 342 L 72 342 L 72 342 L 72 341 L 72 341 L 72 341 L 73 341 L 73 340 L 73 340 L 73 340 L 74 339 L 74 339 L 75 339 L 75 339 L 75 338 L 75 338 L 76 338 L 77 338 L 77 337 L 78 337 L 79 337 L 83 336 L 83 336 L 83 336 L 83 336 L 83 335 L 85 335 L 86 335 L 86 335 L 88 334 L 91 334 L 92 334 L 97 333 L 99 333 L 101 333 L 104 333 L 105 332 L 116 332 L 116 332 L 118 331 L 118 331 L 118 331 L 118 331 L 118 330 L 118 330 L 118 330 L 118 330 L 118 329 L 118 329 L 118 329 L 118 328 L 119 328 L 119 328 L 119 328 L 119 327 L 119 327 L 119 327 L 119 327 L 119 326 L 119 326 L 119 326 L 119 325 L 119 325 L 119 325 L 119 325 L 119 324 L 119 324 L 119 324 L 119 324 L 119 323 L 119 323 L 119 323 L 119 322 L 119 322 L 119 322 L 119 322 L 119 321 L 119 321 L 119 321 L 119 320 L 119 320 L 119 320 L 119 320 L 119 319 L 119 319 L 119 319 L 119 319 L 119 318 L 120 318 L 120 318 L 120 317 L 120 317 L 120 317 L 121 317 L 121 316 L 121 316 L 121 316 L 121 316 L 121 315 L 121 315 L 121 315 L 121 314 L 121 314 L 121 314 L 121 314 L 121 313 L 121 313 L 121 313 L 121 313 L 121 312 L 121 312 L 122 312 L 122 311 L 122 311 L 122 311 L 124 311 L 125 310 L 125 310 L 126 310 L 126 309 L 127 309 L 129 309 L 129 309 L 131 308 L 132 308 L 133 308 L 133 308 L 133 307 L 135 307 L 135 307 L 136 306 L 137 306 L 137 306 L 138 306 L 138 305 L 138 305 L 138 305 L 139 305 L 140 304 L 140 304 L 140 304 L 141 303 L 141 303 L 141 303 L 142 303 L 143 302 L 145 302 L 145 302 L 146 302 L 147 301 L 147 301 L 147 301 L 148 300 L 153 300 L 153 300 L 153 300 L 158 299 L 158 299 L 158 299 L 158 298 L 158 298 L 159 298 L 160 298 L 161 297 L 161 297 L 166 297 L 167 297 L 169 296 L 170 296 L 171 296 L 171 295 L 172 295 L 176 295 L 180 295 L 185 294 L 185 294 L 185 294 L 185 294 L 185 293 L 193 293 L 196 293 L 196 292 L 198 292 L 199 292 L 199 292 L 206 291 L 206 291 L 206 291 L 207 291 L 208 290 L 210 290 L 212 290 L 213 289 L 214 289 L 218 289 L 218 289 L 219 288 L 219 288 L 219 288 L 219 287 L 221 287 L 225 287 L 234 287 L 237 286 L 239 286 L 239 286 L 241 286 L 241 285 L 241 285 L 241 285 L 241 284 L 241 284 L 241 284 L 241 284 L 241 283 L 241 283 L 242 283 L 242 283 L 242 282 L 242 282 L 242 282 L 244 281 L 244 281 L 244 281 L 244 281 L 245 280 L 245 280 L 245 280 L 245 280 L 245 279 L 245 279 L 245 279 L 246 278 L 246 278 L 247 278 L 247 278 L 247 277 L 247 277 L 247 277 L 248 276 L 248 276 L 248 276 L 248 276 L 249 275 L 249 275 L 249 275 L 250 275 L 251 274 L 252 274 L 253 274 L 254 273 L 254 273 L 254 273 L 254 273 L 254 272 L 254 272 L 255 272 L 256 272 L 257 271 L 257 271 L 258 271 L 259 270 L 260 270 L 260 270 L 262 270 L 262 269 L 263 269 L 263 269 L 263 269 L 267 268 L 267 268 L 267 268 L 270 267 L 271 267 L 274 267 L 274 267 L 275 266 L 275 266 L 276 266 L 276 265 L 278 265 L 279 265 L 280 265 L 281 264 L 282 264 L 282 264 L 282 264 L 283 263 L 283 263 L 283 263 L 283 262 L 284 262 L 284 262 L 284 262 L 285 261 L 288 261 L 292 261 L 292 261 L 292 260 L 294 260 L 295 260 L 296 259 L 296 259 L 297 259 L 298 259 L 298 258 L 298 258 L 298 258 L 298 258 L 298 257 L 298 257 L 299 257 L 299 256 L 299 256 L 301 256 L 301 256 L 301 255 L 301 255 L 301 255 L 301 254 L 302 254 L 302 254 L 302 254 L 302 253 L 302 253 L 302 253 L 302 253 L 305 252 L 306 252 L 307 252 L 307 251 L 315 251 L 316 251 L 318 251 L 320 250 L 326 250 L 327 250 L 328 250 L 328 249 L 328 249 L 328 249 L 328 248 L 328 248 L 329 248 L 330 248 L 335 247 L 337 247 L 339 247 L 344 247 L 347 246 L 349 246 L 351 246 L 354 245 L 354 245 L 361 245 L 368 245 L 368 244 L 373 244 L 373 244 L 377 243 L 377 243 L 379 243 L 379 243 L 380 242 L 380 242 L 382 242 L 383 242 L 385 241 L 388 241 L 388 241 L 389 240 L 389 240 L 392 240 L 394 240 L 394 239 L 397 239 L 400 239 L 401 239 L 401 238 L 402 238 L 402 238 L 403 237 L 405 237 L 407 237 L 409 237 L 411 236 L 411 236 L 415 236 L 415 236 L 417 235 L 420 235 L 421 235 L 424 234 L 425 234 L 425 234 L 426 234 L 426 233 L 428 233 L 428 233 L 429 232 L 431 232 L 432 232 L 432 232 L 433 231 L 438 231 L 438 231 L 439 231 L 439 230 L 439 230 L 440 230 L 440 229 L 440 229 L 440 229 L 442 229 L 442 228 L 443 228 L 443 228 L 444 228 L 444 227 L 445 227 L 445 227 L 445 226 L 446 226 L 446 226 L 446 226 L 446 225 L 446 225 L 447 225 L 447 225 L 448 224 L 448 224 L 449 224 L 449 223 L 449 223 L 450 223 L 451 223 L 451 222 L 452 222 L 453 222 L 454 221 L 454 221 L 454 221 L 456 221 L 456 220 L 456 220 L 456 220 L 457 220 L 457 219 L 457 219 L 457 219 L 458 218 L 458 218 L 461 218 L 461 218 L 462 217 L 462 217 L 464 217 L 465 217 L 466 216 L 467 216 L 469 216 L 471 215 L 473 215 L 473 215 L 473 215 L 473 214 L 474 214 L 474 214 L 474 214 L 474 213 L 475 213 L 475 213 L 475 212 L 475 212 L 476 212 L 477 212 L 477 211 L 478 211 L 478 211 L 480 210 L 480 210 L 480 210 L 481 210 L 482 209 L 483 209 L 488 209 L 488 209 L 488 208 L 488 208 L 490 208 L 492 207 L 492 207 L 492 207 L 492 207 L 492 206 L 494 206 L 496 206 L 496 206 L 496 205 L 496 205 L 498 205 L 498 204 L 498 204 L 499 204 L 501 204 L 503 203 L 503 203 L 506 203 L 506 203 L 507 202 L 510 202 L 510 202 L 512 201 L 514 201 L 515 201 L 516 201 L 516 200 L 516 200 L 516 200 L 516 199 L 516 199 L 517 199 L 517 199 L 517 198 L 518 198 L 518 198 L 518 198 L 519 197 L 520 197 L 520 197 L 524 196 L 524 196 L 528 196 L 529 196 L 529 195 L 530 195 L 531 195 L 533 195 L 533 194 L 533 194 L 534 194 L 534 193 L 534 193 L 534 193 L 534 193 L 535 192 L 535 192 L 535 192 L 535 192 L 535 191 L 536 191 L 536 191 L 537 190 L 537 190 L 537 190 L 538 190 L 539 189 L 539 189 L 539 189 L 539 188 L 540 188 L 542 188 L 542 188 L 542 187 L 543 187 L 543 187 L 543 187 L 543 186 L 544 186 L 544 186 L 546 185 L 548 185 L 550 185 L 551 185 L 552 184 L 555 184 L 557 184 L 558 184 L 559 183 L 563 183 L 563 183 L 563 182 L 566 182 L 567 182 L 568 182 L 568 181 L 568 181 L 575 181 L 575 181 L 576 180 L 576 180 L 576 180 L 577 179 L 578 179 L 578 179 L 578 179 L 579 178 L 579 178 L 579 178 L 580 177 L 580 177 L 580 177 L 580 177 L 580 176 L 580 176 L 580 176 L 581 176 L 582 175 L 583 175 L 583 175 L 583 174 L 584 174 L 584 174 L 585 174 L 586 173 L 586 173 L 586 173 L 586 173 L 587 172 L 588 172 L 588 172 L 589 171 L 589 171 L 590 171 L 590 171 L 591 170 L 591 170 L 591 170 L 591 170 L 592 169 L 592 169 L 592 169 L 593 168 L 593 168 L 594 168 L 594 168 L 594 167 L 594 167 L 595 167 L 595 166 L 595 166 L 595 166 L 595 166 L 596 165 L 597 165 L 597 165 L 597 165 L 597 164 L 597 164 L 597 164 L 598 163 L 598 163 L 598 163 L 598 163 L 598 162 L 598 162 L 598 162 L 600 162 L 601 161 L 603 161 L 603 161 L 603 160 L 603 160 L 604 160 L 605 160 L 605 159 L 606 159 L 608 159 L 609 159 L 610 158 L 611 158 L 611 158 L 611 157 L 612 157 L 612 157 L 612 157 L 613 156 L 613 156 L 613 156 L 613 155 L 613 155 L 613 155 L 613 155 L 613 154 L 613 154 L 614 154 L 614 154 L 614 153 L 614 153 L 615 153 L 615 152 L 617 152 L 617 152 L 617 152 L 617 151 L 618 151 L 618 151 L 619 151 L 622 150 L 622 150 L 622 150 L 622 149 L 622 149 L 624 149 L 625 149 L 626 148 L 627 148 L 627 148 L 627 148 L 627 147 L 628 147 L 632 147 L 633 146 L 636 146 L 637 146 L 637 146 L 638 145 L 639 145 L 639 145 L 640 144 L 640 144 L 640 144 L 640 144 L 641 143 L 641 143 L 642 143 L 644 143 L 644 142 L 644 142 L 644 142 L 644 141 L 644 141 L 644 141 L 644 141 L 644 140 L 644 140 L 644 140 L 644 140 L 644 139 L 644 139 L 644 139 L 644 138 L 644 138 L 645 138 L 645 138 L 645 137 L 645 137 L 645 137 L 645 137 L 645 136 L 646 136 L 646 136 L 646 135 L 647 135 L 647 135 L 647 135 L 647 134 L 647 134 L 647 134 L 648 133 L 649 133 L 650 133 L 651 133 L 651 132 L 652 132 L 652 132 L 652 132 L 653 131 L 654 131 L 655 131 L 656 130 L 656 130 L 656 130 L 656 130 L 656 129 L 656 129 L 656 129 L 658 129 L 658 128 L 658 128 L 661 128 L 662 127 L 663 127 L 665 127 L 666 127 L 667 126 L 667 126 L 667 126 L 667 126 L 668 125 L 668 125 L 668 125 L 669 124 L 669 124 L 670 124 L 670 124 L 670 123 L 670 123 L 670 123 L 670 122 L 670 122 L 670 122 L 671 122 L 671 121 L 671 121 L 672 121 L 673 121 L 673 120 L 673 120 L 674 120 L 674 119 L 674 119 L 675 119 L 675 119 L 675 118 L 675 118 L 676 118 L 677 118 L 680 117 L 681 117 L 683 117 L 684 116 L 685 116 L 687 116 L 688 116 L 688 115 L 691 115 L 695 115 L 695 115 L 697 114 L 698 114 L 700 114 L 700 113 L 700 113 L 702 113 L 702 113 L 703 112 L 703 112 L 705 112 L 706 111 L 706 111 L 706 111 L 707 111 L 707 110 L 707 110 L 708 110 L 711 110 L 711 109 L 712 109 L 713 109 L 713 108 L 714 108 L 715 108 L 716 108 L 716 107 L 716 107 L 716 107 L 717 107 L 718 106 L 718 106 L 718 106 L 719 105 L 720 105 L 720 105 L 720 105 L 721 104 L 721 104 L 721 104 L 722 104 L 722 103 L 722 103 L 722 103 L 722 102 L 723 102 L 723 102 L 725 102 L 726 101 L 727 101 L 729 101 L 730 100 L 731 100 L 732 100 L 734 100 L 735 99 L 737 99 L 738 99 L 739 99 L 740 98 L 741 98 L 743 98 L 744 97 L 744 97 L 745 97 L 745 97 L 745 96 L 745 96 L 746 96 L 747 96 L 748 95 L 748 95 L 748 95 L 748 94 L 754 94 L 754 94 L 755 94 L 757 93 L 758 93 L 759 93 L 759 92 L 760 92 L 760 92 L 760 92 L 761 91 L 761 91 L 761 91 L 762 91 L 762 90 L 763 90 L 763 90 L 763 89 L 765 89 L 768 89 L 768 89 L 772 88 L 772 88 L 773 88 L 774 88 L 774 87 L 774 87 L 775 87 L 775 86 L 777 86 L 778 86 L 780 86 L 780 85 L 780 85 L 780 85 L 782 85 L 783 84 L 785 84 L 785 84 L 785 83 L 785 83 L 786 83 L 786 83 L 786 82 L 787 82 L 787 82 L 788 82 L 789 81 L 789 81 L 790 81 L 790 80 L 791 80 L 791 80 L 791 80 L 792 79 L 794 79 L 798 79 L 798 78 L 801 78 L 802 78 L 804 78 L 804 77 L 805 77 L 805 77 L 807 77 L 807 76 L 808 76 L 810 76 L 811 75 L 814 75 L 818 75 L 818 75 L 818 74 L 818 74 L 819 74 L 820 74 L 820 73 L 820 73 L 828 73 L 830 72 L 830 72 L 832 72 L 833 72 L 835 71 L 837 71 L 838 71 L 838 71 L 839 70 L 840 70 L 844 70 L 845 69 L 846 69 L 847 69 L 849 69 L 850 68 L 850 68 L 850 68 L 850 67 L 851 67 L 851 67 L 851 67 L 853 66 L 855 66 L 856 66 L 856 66 L 857 65 L 859 65 L 861 65 L 863 64 L 863 64 L 865 64 L 865 64 L 865 63 L 865 63 L 865 63 L 866 63 L 866 62 L 868 62 L 869 62 L 869 61 L 870 61 L 870 61 L 870 61 L 870 60 L 870 60 L 870 60 L 870 60 L 871 59 L 871 59 L 871 59 L 872 58 L 872 58 L 872 58 L 872 58 L 872 57 L 873 57 L 873 57 L 874 56 L 879 56 L 879 56 L 881 56 L 881 55 L 881 55 L 881 55 L 881 55 L 881 54 L 881 54 L 882 54 L 882 53 L 882 53 L 882 53 L 882 53 L 882 52 L 882 52 L 882 52 L 882 52 L 882 51 L 882 51 L 883 51 L 883 50 L 883 50 L 883 50 L 884 50 L 884 49 L 886 49 L 887 49 L 887 49 L 888 48 L 888 48 L 888 48 L 890 47 L 890 47 L 890 47 L 892 47 L 893 46 L 894 46 L 894 46 L 895 45 L 896 45 L 896 45 L 898 45 L 898 44 L 899 44 L 900 44 L 901 44 L 901 43 L 901 43 L 902 43 L 903 42 L 903 42 L 904 42 L 905 42 L 906 41 L 908 41 L 909 41 L 912 41 L 912 40 L 913 40 L 917 40 L 917 39 L 917 39 L 918 39 L 918 39 L 918 38 L 919 38 L 920 38 L 921 38 L 922 37 L 922 37 L 922 37 L 923 36 L 923 36 L 923 36 L 927 36 L 927 35 L 928 35 L 929 35 L 930 34 L 931 34 L 937 34 L 937 34"></path><path stroke-width="2" d="M 937 346 L 937.000000 15.000000" /><path stroke-width="2" d="M 937 346 L 937.000000 15.000000"></path><path stroke-width="2" d="M 937 346 L 942 346" /><path stroke-width="2" d="M 937 346 L 942 346"></path><text xmlns="http://www.w3.org/2000/svg" x="947" y="352">0</text><path d="M 937 307 L 942 307" stroke-width="2" /><path stroke-width="2" d="M 937 307 L 942 307"></path><text x="947" y="313" xmlns="http://www.w3.org/2000/svg">140</text><path stroke-width="2" d="M 937 271 L 942 271" /><path stroke-width="2" d="M 937 271 L 942 271"></path><text x="947" y="277" xmlns="http://www.w3.org/2000/svg">270</text><path stroke-width="2" d="M 937 236 L 942 236" /><path stroke-width="2" d="M 937 236 L 942 236"></path><text xmlns="http://www.w3.org/2000/svg" x="947" y="242">400</text><path stroke-width="2" d="M 937 197 L 942 197" /><path stroke-width="2" d="M 937 197 L 942 197"></path><text xmlns="http://www.w3.org/2000/svg" x="947" y="203">540</text><path stroke-width="2" d="M 937 161 L 942 161" /><path d="M 937 161 L 942 161" stroke-width="2"></path><text xmlns="http://www.w3.org/2000/svg" x="947" y="167">670</text><path stroke-width="2" d="M 937 126 L 942 126" /><path stroke-width="2" d="M 937 126 L 942 126"></path><text y="132" xmlns="http://www.w3.org/2000/svg" x="947">800</text><path stroke-width="2" d="M 937 87 L 942 87" /><path stroke-width="2" d="M 937 87 L 942 87"></path><text xmlns="http://www.w3.org/2000/svg" x="947" y="93">940</text><path stroke-width="2" d="M 937 51 L 942 51" /><path stroke-width="2" d="M 937 51 L 942 51"></path><text xmlns="http://www.w3.org/2000/svg" x="947" y="57">1070</text><path stroke-width="2" d="M 937 16 L 942 16" /><path stroke-width="2" d="M 937 16 L 942 16"></path><text y="22" xmlns="http://www.w3.org/2000/svg" x="947">1200</text><text xmlns="http://www.w3.org/2000/svg" x="987" y="175" transform="rotate(90.00,987,175)">Stargazers</text><path stroke-width="2" d="M 57.000000 346.000000 L 937 346" /><path stroke-width="2" d="M 57.000000 346.000000 L 937 346"></path><path stroke-width="2" d="M 58 346 L 58 351" /><path stroke-width="2" d="M 58 346 L 58 351"></path><text xmlns="http://www.w3.org/2000/svg" x="25" y="368">2023-04-02</text><path stroke-width="2" d="M 156 346 L 156 351" /><path stroke-width="2" d="M 156 346 L 156 351"></path><text y="368" xmlns="http://www.w3.org/2000/svg" x="123">2023-07-16</text><path stroke-width="2" d="M 254 346 L 254 351" /><path stroke-width="2" d="M 254 346 L 254 351"></path><text xmlns="http://www.w3.org/2000/svg" x="221" y="368">2023-10-28</text><path stroke-width="2" d="M 351 346 L 351 351" /><path stroke-width="2" d="M 351 346 L 351 351"></path><text xmlns="http://www.w3.org/2000/svg" x="318" y="368">2024-02-10</text><path stroke-width="2" d="M 449 346 L 449 351" /><path stroke-width="2" d="M 449 346 L 449 351"></path><text xmlns="http://www.w3.org/2000/svg" x="416" y="368">2024-05-25</text><path stroke-width="2" d="M 547 346 L 547 351" /><path stroke-width="2" d="M 547 346 L 547 351"></path><text xmlns="http://www.w3.org/2000/svg" x="514" y="368">2024-09-07</text><path stroke-width="2" d="M 644 346 L 644 351" /><path stroke-width="2" d="M 644 346 L 644 351"></path><text xmlns="http://www.w3.org/2000/svg" x="611" y="368">2024-12-20</text><path stroke-width="2" d="M 742 346 L 742 351" /><path stroke-width="2" d="M 742 346 L 742 351"></path><text x="709" y="368" xmlns="http://www.w3.org/2000/svg">2025-04-04</text><path stroke-width="2" d="M 840 346 L 840 351" /><path stroke-width="2" d="M 840 346 L 840 351"></path><text y="368" xmlns="http://www.w3.org/2000/svg" x="807">2025-07-18</text><path stroke-width="2" d="M 937 346 L 937 351" /><path d="M 937 346 L 937 351" stroke-width="2"></path><text xmlns="http://www.w3.org/2000/svg" x="904" y="368">2025-10-31</text><text y="390" xmlns="http://www.w3.org/2000/svg" x="483">Time</text></svg>