<svg xmlns="http://www.w3.org/2000/svg" xmlns:xlink="http://www.w3.org/1999/xlink" width="1024px" height="400px"><style type="text/css">
path { fill: none; stroke: rgb(51,51,51); }
path.series { stroke: #6b63ff; }
rect.background { fill: rgb(255,255,255); stroke: none; }

text {
	stroke-width: 0;
	stroke: none;
	fill: rgba(51,51,51,1.0);
	font-size: 12.8px;
	font-family: 'Roboto Medium', sans-serif;
}
</style><rect x="0" y="0" width="1024px" height="400px" class="background" rx="8" /><rect width="1024px" height="400px" class="background" rx="8" x="0" y="0"></rect><path stroke-width="2" class="series" d="M 58 345 L 62 344 L 87 343 L 87 343 L 87 342 L 87 341 L 87 341 L 87 340 L 87 339 L 87 339 L 88 338 L 88 337 L 88 337 L 88 336 L 88 335 L 88 335 L 88 334 L 89 333 L 89 333 L 90 332 L 91 331 L 91 331 L 93 330 L 94 329 L 94 329 L 94 328 L 95 327 L 97 327 L 99 326 L 100 325 L 101 325 L 103 324 L 111 323 L 111 323 L 111 322 L 111 321 L 111 321 L 111 320 L 116 319 L 118 319 L 119 318 L 123 317 L 129 317 L 131 316 L 142 315 L 145 315 L 151 314 L 157 313 L 160 313 L 183 312 L 184 311 L 184 310 L 187 310 L 188 309 L 188 308 L 188 308 L 188 307 L 188 306 L 188 306 L 188 305 L 188 304 L 188 304 L 188 303 L 188 302 L 189 302 L 189 301 L 189 300 L 189 300 L 189 299 L 189 298 L 189 298 L 189 297 L 189 296 L 189 296 L 189 295 L 189 294 L 189 294 L 189 293 L 189 292 L 189 292 L 189 291 L 189 290 L 190 290 L 190 289 L 190 288 L 190 288 L 190 287 L 190 286 L 190 286 L 190 285 L 190 284 L 190 284 L 190 283 L 190 282 L 190 282 L 190 281 L 190 280 L 190 280 L 190 279 L 190 278 L 191 277 L 191 277 L 191 276 L 191 275 L 192 275 L 192 274 L 193 273 L 193 273 L 193 272 L 193 271 L 193 271 L 193 270 L 193 269 L 193 269 L 193 268 L 193 267 L 193 267 L 193 266 L 194 265 L 194 265 L 194 264 L 194 263 L 194 263 L 194 262 L 196 261 L 196 261 L 196 260 L 196 259 L 202 259 L 202 258 L 202 257 L 204 257 L 204 256 L 208 255 L 212 255 L 213 254 L 216 253 L 217 253 L 220 252 L 220 251 L 221 251 L 225 250 L 225 249 L 226 249 L 228 248 L 229 247 L 230 247 L 230 246 L 231 245 L 231 244 L 233 244 L 235 243 L 235 242 L 236 242 L 237 241 L 237 240 L 238 240 L 241 239 L 242 238 L 246 238 L 247 237 L 248 236 L 250 236 L 250 235 L 250 234 L 253 234 L 263 233 L 263 232 L 265 232 L 274 231 L 274 230 L 274 230 L 275 229 L 275 228 L 276 228 L 279 227 L 281 226 L 281 226 L 293 225 L 295 224 L 298 224 L 301 223 L 303 222 L 303 222 L 305 221 L 313 220 L 322 220 L 332 219 L 333 218 L 333 218 L 333 217 L 334 216 L 336 216 L 350 215 L 356 214 L 356 214 L 361 213 L 363 212 L 363 211 L 378 211 L 378 210 L 380 209 L 380 209 L 382 208 L 386 207 L 388 207 L 391 206 L 393 205 L 396 205 L 405 204 L 405 203 L 407 203 L 407 202 L 407 201 L 408 201 L 412 200 L 421 199 L 439 199 L 447 198 L 450 197 L 451 197 L 453 196 L 455 195 L 455 195 L 455 194 L 455 193 L 455 193 L 455 192 L 455 191 L 455 191 L 456 190 L 456 189 L 456 189 L 456 188 L 456 187 L 457 187 L 457 186 L 458 185 L 460 185 L 461 184 L 461 183 L 461 183 L 461 182 L 463 181 L 463 181 L 463 180 L 463 179 L 463 178 L 464 178 L 464 177 L 465 176 L 466 176 L 467 175 L 467 174 L 467 174 L 467 173 L 468 172 L 469 172 L 469 171 L 469 170 L 470 170 L 471 169 L 471 168 L 472 168 L 473 167 L 475 166 L 476 166 L 478 165 L 482 164 L 482 164 L 483 163 L 483 162 L 483 162 L 483 161 L 484 160 L 486 160 L 487 159 L 490 158 L 490 158 L 491 157 L 494 156 L 496 156 L 496 155 L 500 154 L 501 154 L 502 153 L 503 152 L 503 152 L 510 151 L 512 150 L 512 150 L 517 149 L 520 148 L 526 148 L 527 147 L 528 146 L 529 145 L 530 145 L 530 144 L 534 143 L 538 143 L 540 142 L 541 141 L 543 141 L 545 140 L 545 139 L 545 139 L 545 138 L 546 137 L 546 137 L 546 136 L 548 135 L 548 135 L 548 134 L 550 133 L 556 133 L 564 132 L 564 131 L 565 131 L 570 130 L 573 129 L 574 129 L 575 128 L 576 127 L 578 127 L 578 126 L 578 125 L 578 125 L 579 124 L 579 123 L 579 123 L 580 122 L 580 121 L 581 121 L 585 120 L 585 119 L 585 119 L 585 118 L 586 117 L 586 117 L 586 116 L 586 115 L 586 115 L 586 114 L 586 113 L 587 112 L 587 112 L 593 111 L 597 110 L 597 110 L 598 109 L 606 108 L 615 108 L 617 107 L 622 106 L 626 106 L 635 105 L 639 104 L 642 104 L 643 103 L 643 102 L 643 102 L 643 101 L 643 100 L 643 100 L 643 99 L 646 98 L 647 98 L 660 97 L 663 96 L 668 96 L 677 95 L 684 94 L 690 94 L 694 93 L 701 92 L 701 92 L 716 91 L 730 90 L 730 90 L 740 89 L 741 88 L 749 88 L 751 87 L 755 86 L 755 86 L 756 85 L 756 84 L 761 84 L 763 83 L 767 82 L 773 82 L 774 81 L 775 80 L 776 79 L 782 79 L 787 78 L 787 77 L 794 77 L 800 76 L 801 75 L 801 75 L 804 74 L 805 73 L 807 73 L 812 72 L 816 71 L 820 71 L 824 70 L 824 69 L 831 69 L 833 68 L 837 67 L 844 67 L 844 66 L 852 65 L 853 65 L 853 64 L 856 63 L 856 63 L 860 62 L 860 61 L 864 61 L 868 60 L 869 59 L 870 59 L 870 58 L 882 57 L 883 57 L 884 56 L 884 55 L 885 55 L 886 54 L 886 53 L 887 53 L 888 52 L 890 51 L 891 51 L 893 50 L 894 49 L 895 49 L 896 48 L 897 47 L 897 46 L 898 46 L 899 45 L 899 44 L 900 44 L 900 43 L 900 42 L 901 42 L 902 41 L 905 40 L 905 40 L 905 39 L 907 38 L 907 38 L 909 37 L 911 36 L 911 36 L 912 35 L 914 34 L 916 34 L 917 33 L 918 32 L 918 32 L 921 31 L 921 30 L 922 30 L 922 29 L 923 28 L 923 28 L 923 27 L 924 26 L 925 26 L 926 25 L 931 24 L 933 24 L 935 23 L 935 22 L 939 22 L 941 21 L 942 20 L 945 20" /><path stroke-width="2" class="series" d="M 58 345 L 62 344 L 87 343 L 87 343 L 87 342 L 87 341 L 87 341 L 87 340 L 87 339 L 87 339 L 88 338 L 88 337 L 88 337 L 88 336 L 88 335 L 88 335 L 88 334 L 89 333 L 89 333 L 90 332 L 91 331 L 91 331 L 93 330 L 94 329 L 94 329 L 94 328 L 95 327 L 97 327 L 99 326 L 100 325 L 101 325 L 103 324 L 111 323 L 111 323 L 111 322 L 111 321 L 111 321 L 111 320 L 116 319 L 118 319 L 119 318 L 123 317 L 129 317 L 131 316 L 142 315 L 145 315 L 151 314 L 157 313 L 160 313 L 183 312 L 184 311 L 184 310 L 187 310 L 188 309 L 188 308 L 188 308 L 188 307 L 188 306 L 188 306 L 188 305 L 188 304 L 188 304 L 188 303 L 188 302 L 189 302 L 189 301 L 189 300 L 189 300 L 189 299 L 189 298 L 189 298 L 189 297 L 189 296 L 189 296 L 189 295 L 189 294 L 189 294 L 189 293 L 189 292 L 189 292 L 189 291 L 189 290 L 190 290 L 190 289 L 190 288 L 190 288 L 190 287 L 190 286 L 190 286 L 190 285 L 190 284 L 190 284 L 190 283 L 190 282 L 190 282 L 190 281 L 190 280 L 190 280 L 190 279 L 190 278 L 191 277 L 191 277 L 191 276 L 191 275 L 192 275 L 192 274 L 193 273 L 193 273 L 193 272 L 193 271 L 193 271 L 193 270 L 193 269 L 193 269 L 193 268 L 193 267 L 193 267 L 193 266 L 194 265 L 194 265 L 194 264 L 194 263 L 194 263 L 194 262 L 196 261 L 196 261 L 196 260 L 196 259 L 202 259 L 202 258 L 202 257 L 204 257 L 204 256 L 208 255 L 212 255 L 213 254 L 216 253 L 217 253 L 220 252 L 220 251 L 221 251 L 225 250 L 225 249 L 226 249 L 228 248 L 229 247 L 230 247 L 230 246 L 231 245 L 231 244 L 233 244 L 235 243 L 235 242 L 236 242 L 237 241 L 237 240 L 238 240 L 241 239 L 242 238 L 246 238 L 247 237 L 248 236 L 250 236 L 250 235 L 250 234 L 253 234 L 263 233 L 263 232 L 265 232 L 274 231 L 274 230 L 274 230 L 275 229 L 275 228 L 276 228 L 279 227 L 281 226 L 281 226 L 293 225 L 295 224 L 298 224 L 301 223 L 303 222 L 303 222 L 305 221 L 313 220 L 322 220 L 332 219 L 333 218 L 333 218 L 333 217 L 334 216 L 336 216 L 350 215 L 356 214 L 356 214 L 361 213 L 363 212 L 363 211 L 378 211 L 378 210 L 380 209 L 380 209 L 382 208 L 386 207 L 388 207 L 391 206 L 393 205 L 396 205 L 405 204 L 405 203 L 407 203 L 407 202 L 407 201 L 408 201 L 412 200 L 421 199 L 439 199 L 447 198 L 450 197 L 451 197 L 453 196 L 455 195 L 455 195 L 455 194 L 455 193 L 455 193 L 455 192 L 455 191 L 455 191 L 456 190 L 456 189 L 456 189 L 456 188 L 456 187 L 457 187 L 457 186 L 458 185 L 460 185 L 461 184 L 461 183 L 461 183 L 461 182 L 463 181 L 463 181 L 463 180 L 463 179 L 463 178 L 464 178 L 464 177 L 465 176 L 466 176 L 467 175 L 467 174 L 467 174 L 467 173 L 468 172 L 469 172 L 469 171 L 469 170 L 470 170 L 471 169 L 471 168 L 472 168 L 473 167 L 475 166 L 476 166 L 478 165 L 482 164 L 482 164 L 483 163 L 483 162 L 483 162 L 483 161 L 484 160 L 486 160 L 487 159 L 490 158 L 490 158 L 491 157 L 494 156 L 496 156 L 496 155 L 500 154 L 501 154 L 502 153 L 503 152 L 503 152 L 510 151 L 512 150 L 512 150 L 517 149 L 520 148 L 526 148 L 527 147 L 528 146 L 529 145 L 530 145 L 530 144 L 534 143 L 538 143 L 540 142 L 541 141 L 543 141 L 545 140 L 545 139 L 545 139 L 545 138 L 546 137 L 546 137 L 546 136 L 548 135 L 548 135 L 548 134 L 550 133 L 556 133 L 564 132 L 564 131 L 565 131 L 570 130 L 573 129 L 574 129 L 575 128 L 576 127 L 578 127 L 578 126 L 578 125 L 578 125 L 579 124 L 579 123 L 579 123 L 580 122 L 580 121 L 581 121 L 585 120 L 585 119 L 585 119 L 585 118 L 586 117 L 586 117 L 586 116 L 586 115 L 586 115 L 586 114 L 586 113 L 587 112 L 587 112 L 593 111 L 597 110 L 597 110 L 598 109 L 606 108 L 615 108 L 617 107 L 622 106 L 626 106 L 635 105 L 639 104 L 642 104 L 643 103 L 643 102 L 643 102 L 643 101 L 643 100 L 643 100 L 643 99 L 646 98 L 647 98 L 660 97 L 663 96 L 668 96 L 677 95 L 684 94 L 690 94 L 694 93 L 701 92 L 701 92 L 716 91 L 730 90 L 730 90 L 740 89 L 741 88 L 749 88 L 751 87 L 755 86 L 755 86 L 756 85 L 756 84 L 761 84 L 763 83 L 767 82 L 773 82 L 774 81 L 775 80 L 776 79 L 782 79 L 787 78 L 787 77 L 794 77 L 800 76 L 801 75 L 801 75 L 804 74 L 805 73 L 807 73 L 812 72 L 816 71 L 820 71 L 824 70 L 824 69 L 831 69 L 833 68 L 837 67 L 844 67 L 844 66 L 852 65 L 853 65 L 853 64 L 856 63 L 856 63 L 860 62 L 860 61 L 864 61 L 868 60 L 869 59 L 870 59 L 870 58 L 882 57 L 883 57 L 884 56 L 884 55 L 885 55 L 886 54 L 886 53 L 887 53 L 888 52 L 890 51 L 891 51 L 893 50 L 894 49 L 895 49 L 896 48 L 897 47 L 897 46 L 898 46 L 899 45 L 899 44 L 900 44 L 900 43 L 900 42 L 901 42 L 902 41 L 905 40 L 905 40 L 905 39 L 907 38 L 907 38 L 909 37 L 911 36 L 911 36 L 912 35 L 914 34 L 916 34 L 917 33 L 918 32 L 918 32 L 921 31 L 921 30 L 922 30 L 922 29 L 923 28 L 923 28 L 923 27 L 924 26 L 925 26 L 926 25 L 931 24 L 933 24 L 935 23 L 935 22 L 939 22 L 941 21 L 942 20 L 945 20"></path><path stroke-width="2" d="M 945 346 L 945.000000 15.000000" /><path stroke-width="2" d="M 945 346 L 945.000000 15.000000"></path><path stroke-width="2" d="M 945 346 L 950 346" /><path stroke-width="2" d="M 945 346 L 950 346"></path><text x="955" y="352" xmlns="http://www.w3.org/2000/svg">0</text><path stroke-width="2" d="M 945 308 L 950 308" /><path stroke-width="2" d="M 945 308 L 950 308"></path><text xmlns="http://www.w3.org/2000/svg" x="955" y="314">55</text><path stroke-width="2" d="M 945 272 L 950 272" /><path stroke-width="2" d="M 945 272 L 950 272"></path><text xmlns="http://www.w3.org/2000/svg" x="955" y="278">109</text><path d="M 945 235 L 950 235" stroke-width="2" /><path stroke-width="2" d="M 945 235 L 950 235"></path><text xmlns="http://www.w3.org/2000/svg" x="955" y="241">164</text><path stroke-width="2" d="M 945 199 L 950 199" /><path stroke-width="2" d="M 945 199 L 950 199"></path><text y="205" xmlns="http://www.w3.org/2000/svg" x="955">218</text><path stroke-width="2" d="M 945 162 L 950 162" /><path stroke-width="2" d="M 945 162 L 950 162"></path><text xmlns="http://www.w3.org/2000/svg" x="955" y="168">273</text><path stroke-width="2" d="M 945 125 L 950 125" /><path stroke-width="2" d="M 945 125 L 950 125"></path><text y="131" xmlns="http://www.w3.org/2000/svg" x="955">327</text><path stroke-width="2" d="M 945 88 L 950 88" /><path stroke-width="2" d="M 945 88 L 950 88"></path><text xmlns="http://www.w3.org/2000/svg" x="955" y="94">382</text><path stroke-width="2" d="M 945 52 L 950 52" /><path d="M 945 52 L 950 52" stroke-width="2"></path><text x="955" y="58" xmlns="http://www.w3.org/2000/svg">436</text><path d="M 945 16 L 950 16" stroke-width="2" /><path stroke-width="2" d="M 945 16 L 950 16"></path><text x="955" y="22" xmlns="http://www.w3.org/2000/svg">490</text><text xmlns="http://www.w3.org/2000/svg" x="987" y="175" transform="rotate(90.00,987,175)">Stargazers</text><path stroke-width="2" d="M 57.000000 346.000000 L 945 346" /><path stroke-width="2" d="M 57.000000 346.000000 L 945 346"></path><path stroke-width="2" d="M 58 346 L 58 351" /><path stroke-width="2" d="M 58 346 L 58 351"></path><text xmlns="http://www.w3.org/2000/svg" x="25" y="368">2023-04-02</text><path stroke-width="2" d="M 157 346 L 157 351" /><path stroke-width="2" d="M 157 346 L 157 351"></path><text xmlns="http://www.w3.org/2000/svg" x="124" y="368">2023-05-21</text><path stroke-width="2" d="M 256 346 L 256 351" /><path stroke-width="2" d="M 256 346 L 256 351"></path><text x="223" y="368" xmlns="http://www.w3.org/2000/svg">2023-07-08</text><path stroke-width="2" d="M 354 346 L 354 351" /><path stroke-width="2" d="M 354 346 L 354 351"></path><text xmlns="http://www.w3.org/2000/svg" x="321" y="368">2023-08-26</text><path stroke-width="2" d="M 453 346 L 453 351" /><path stroke-width="2" d="M 453 346 L 453 351"></path><text xmlns="http://www.w3.org/2000/svg" x="420" y="368">2023-10-14</text><path d="M 551 346 L 551 351" stroke-width="2" /><path stroke-width="2" d="M 551 346 L 551 351"></path><text xmlns="http://www.w3.org/2000/svg" x="518" y="368">2023-12-01</text><path stroke-width="2" d="M 650 346 L 650 351" /><path d="M 650 346 L 650 351" stroke-width="2"></path><text y="368" xmlns="http://www.w3.org/2000/svg" x="617">2024-01-19</text><path stroke-width="2" d="M 748 346 L 748 351" /><path stroke-width="2" d="M 748 346 L 748 351"></path><text xmlns="http://www.w3.org/2000/svg" x="715" y="368">2024-03-08</text><path stroke-width="2" d="M 847 346 L 847 351" /><path stroke-width="2" d="M 847 346 L 847 351"></path><text xmlns="http://www.w3.org/2000/svg" x="814" y="368">2024-04-25</text><path stroke-width="2" d="M 945 346 L 945 351" /><path stroke-width="2" d="M 945 346 L 945 351"></path><text xmlns="http://www.w3.org/2000/svg" x="912" y="368">2024-06-13</text><text x="487" y="390" xmlns="http://www.w3.org/2000/svg">Time</text></svg>