<svg xmlns="http://www.w3.org/2000/svg" xmlns:xlink="http://www.w3.org/1999/xlink" width="1024" height="400">\n<path  d="M 0 0
L 1024 0
L 1024 400
L 0 400
L 0 0" style="stroke-width:0;stroke:rgba(255,255,255,1.0);fill:rgba(255,255,255,1.0)"/><path  d="M 38 11
L 965 11
L 965 351
L 38 351
L 38 11" style="stroke-width:0;stroke:rgba(255,255,255,1.0);fill:rgba(255,255,255,1.0)"/><path  d="M 38 351
L 965 351" style="stroke-width:2;stroke:rgba(85,85,85,1.0);fill:none"/><path  d="M 38 351
L 38 356" style="stroke-width:2;stroke:rgba(85,85,85,1.0);fill:none"/><text x="5" y="373" style="stroke-width:0;stroke:none;fill:rgba(51,51,51,1.0);font-size:12.8px;font-family:'Roboto Medium',sans-serif">2023-04-02</text><path  d="M 154 351
L 154 356" style="stroke-width:2;stroke:rgba(85,85,85,1.0);fill:none"/><text x="121" y="373" style="stroke-width:0;stroke:none;fill:rgba(51,51,51,1.0);font-size:12.8px;font-family:'Roboto Medium',sans-serif">2023-04-27</text><path  d="M 270 351
L 270 356" style="stroke-width:2;stroke:rgba(85,85,85,1.0);fill:none"/><text x="237" y="373" style="stroke-width:0;stroke:none;fill:rgba(51,51,51,1.0);font-size:12.8px;font-family:'Roboto Medium',sans-serif">2023-05-22</text><path  d="M 386 351
L 386 356" style="stroke-width:2;stroke:rgba(85,85,85,1.0);fill:none"/><text x="353" y="373" style="stroke-width:0;stroke:none;fill:rgba(51,51,51,1.0);font-size:12.8px;font-family:'Roboto Medium',sans-serif">2023-06-15</text><path  d="M 502 351
L 502 356" style="stroke-width:2;stroke:rgba(85,85,85,1.0);fill:none"/><text x="469" y="373" style="stroke-width:0;stroke:none;fill:rgba(51,51,51,1.0);font-size:12.8px;font-family:'Roboto Medium',sans-serif">2023-07-10</text><path  d="M 618 351
L 618 356" style="stroke-width:2;stroke:rgba(85,85,85,1.0);fill:none"/><text x="585" y="373" style="stroke-width:0;stroke:none;fill:rgba(51,51,51,1.0);font-size:12.8px;font-family:'Roboto Medium',sans-serif">2023-08-04</text><path  d="M 734 351
L 734 356" style="stroke-width:2;stroke:rgba(85,85,85,1.0);fill:none"/><text x="701" y="373" style="stroke-width:0;stroke:none;fill:rgba(51,51,51,1.0);font-size:12.8px;font-family:'Roboto Medium',sans-serif">2023-08-29</text><path  d="M 850 351
L 850 356" style="stroke-width:2;stroke:rgba(85,85,85,1.0);fill:none"/><text x="817" y="373" style="stroke-width:0;stroke:none;fill:rgba(51,51,51,1.0);font-size:12.8px;font-family:'Roboto Medium',sans-serif">2023-09-23</text><path  d="M 965 351
L 965 356" style="stroke-width:2;stroke:rgba(85,85,85,1.0);fill:none"/><text x="932" y="373" style="stroke-width:0;stroke:none;fill:rgba(51,51,51,1.0);font-size:12.8px;font-family:'Roboto Medium',sans-serif">2023-10-18</text><text x="487" y="395" style="stroke-width:0;stroke:none;fill:rgba(51,51,51,1.0);font-size:12.8px;font-family:'Roboto Medium',sans-serif">Time</text><path  d="M 967 351
L 967 11" style="stroke-width:2;stroke:rgba(85,85,85,1.0);fill:none"/><path  d="M 967 351
L 972 351" style="stroke-width:2;stroke:rgba(85,85,85,1.0);fill:none"/><text x="977" y="357" style="stroke-width:0;stroke:none;fill:rgba(51,51,51,1.0);font-size:12.8px;font-family:'Roboto Medium',sans-serif">0</text><path  d="M 967 307
L 972 307" style="stroke-width:2;stroke:rgba(85,85,85,1.0);fill:none"/><text x="977" y="313" style="stroke-width:0;stroke:none;fill:rgba(51,51,51,1.0);font-size:12.8px;font-family:'Roboto Medium',sans-serif">32</text><path  d="M 967 265
L 972 265" style="stroke-width:2;stroke:rgba(85,85,85,1.0);fill:none"/><text x="977" y="271" style="stroke-width:0;stroke:none;fill:rgba(51,51,51,1.0);font-size:12.8px;font-family:'Roboto Medium',sans-serif">63</text><path  d="M 967 223
L 972 223" style="stroke-width:2;stroke:rgba(85,85,85,1.0);fill:none"/><text x="977" y="229" style="stroke-width:0;stroke:none;fill:rgba(51,51,51,1.0);font-size:12.8px;font-family:'Roboto Medium',sans-serif">94</text><path  d="M 967 181
L 972 181" style="stroke-width:2;stroke:rgba(85,85,85,1.0);fill:none"/><text x="977" y="187" style="stroke-width:0;stroke:none;fill:rgba(51,51,51,1.0);font-size:12.8px;font-family:'Roboto Medium',sans-serif">125</text><path  d="M 967 137
L 972 137" style="stroke-width:2;stroke:rgba(85,85,85,1.0);fill:none"/><text x="977" y="143" style="stroke-width:0;stroke:none;fill:rgba(51,51,51,1.0);font-size:12.8px;font-family:'Roboto Medium',sans-serif">157</text><path  d="M 967 95
L 972 95" style="stroke-width:2;stroke:rgba(85,85,85,1.0);fill:none"/><text x="977" y="101" style="stroke-width:0;stroke:none;fill:rgba(51,51,51,1.0);font-size:12.8px;font-family:'Roboto Medium',sans-serif">188</text><path  d="M 967 53
L 972 53" style="stroke-width:2;stroke:rgba(85,85,85,1.0);fill:none"/><text x="977" y="59" style="stroke-width:0;stroke:none;fill:rgba(51,51,51,1.0);font-size:12.8px;font-family:'Roboto Medium',sans-serif">219</text><path  d="M 967 11
L 972 11" style="stroke-width:2;stroke:rgba(85,85,85,1.0);fill:none"/><text x="977" y="17" style="stroke-width:0;stroke:none;fill:rgba(51,51,51,1.0);font-size:12.8px;font-family:'Roboto Medium',sans-serif">250</text><text x="1009" y="150" style="stroke-width:0;stroke:none;fill:rgba(51,51,51,1.0);font-size:12.8px;font-family:'Roboto Medium',sans-serif" transform="rotate(90.00,1009,150)">Stargazers</text><path  d="M 38 351
L 47 349
L 103 348
L 105 346
L 105 345
L 105 344
L 105 342
L 105 341
L 105 340
L 105 338
L 106 337
L 106 336
L 107 334
L 107 333
L 107 331
L 107 330
L 107 329
L 108 327
L 109 326
L 109 325
L 112 323
L 113 322
L 114 321
L 118 319
L 121 318
L 121 317
L 121 315
L 123 314
L 123 312
L 126 311
L 132 310
L 133 308
L 137 307
L 141 306
L 159 304
L 159 303
L 159 302
L 159 300
L 159 299
L 160 297
L 160 296
L 170 295
L 175 293
L 178 292
L 186 291
L 200 289
L 206 288
L 231 287
L 239 285
L 252 284
L 266 283
L 272 281
L 325 280
L 328 278
L 328 277
L 335 276
L 337 274
L 337 273
L 337 272
L 337 270
L 337 269
L 337 268
L 337 266
L 337 265
L 338 263
L 338 262
L 338 261
L 339 259
L 340 258
L 340 257
L 340 255
L 340 254
L 340 253
L 340 251
L 340 250
L 340 249
L 340 247
L 340 246
L 340 244
L 340 243
L 340 242
L 340 240
L 340 239
L 340 238
L 340 236
L 341 235
L 341 234
L 341 232
L 341 231
L 341 229
L 341 228
L 341 227
L 341 225
L 341 224
L 341 223
L 341 221
L 341 220
L 341 219
L 341 217
L 341 216
L 341 215
L 342 213
L 342 212
L 343 210
L 344 209
L 344 208
L 345 206
L 346 205
L 346 204
L 349 202
L 349 201
L 349 200
L 349 198
L 349 197
L 349 195
L 349 194
L 349 193
L 349 191
L 349 190
L 349 189
L 349 187
L 349 186
L 350 185
L 350 183
L 350 182
L 350 181
L 351 179
L 355 178
L 355 176
L 355 175
L 356 174
L 368 172
L 369 171
L 369 170
L 374 168
L 374 167
L 382 166
L 391 164
L 393 163
L 401 161
L 404 160
L 410 159
L 411 157
L 413 156
L 421 155
L 422 153
L 425 152
L 428 151
L 430 149
L 434 148
L 434 147
L 435 145
L 436 144
L 440 142
L 445 141
L 445 140
L 447 138
L 448 137
L 449 136
L 452 134
L 458 133
L 462 132
L 470 130
L 473 129
L 476 127
L 480 126
L 480 125
L 480 123
L 486 122
L 509 121
L 510 119
L 513 118
L 535 117
L 535 115
L 536 114
L 536 113
L 537 111
L 540 110
L 547 108
L 551 107
L 552 106
L 578 104
L 583 103
L 589 102
L 597 100
L 602 99
L 603 98
L 606 96
L 625 95
L 645 93
L 668 92
L 671 91
L 671 89
L 672 88
L 673 87
L 678 85
L 709 84
L 724 83
L 724 81
L 736 80
L 739 79
L 741 77
L 775 76
L 775 74
L 778 73
L 779 72
L 784 70
L 793 69
L 797 68
L 804 66
L 809 65
L 816 64
L 836 62
L 837 61
L 840 59
L 841 58
L 842 57
L 843 55
L 853 54
L 854 53
L 873 51
L 901 50
L 916 49
L 932 47
L 933 46
L 941 45
L 942 43
L 947 42
L 952 40
L 952 39
L 952 38
L 952 36
L 952 35
L 952 34
L 952 32
L 952 31
L 953 30
L 953 28
L 953 27
L 954 25
L 954 24
L 955 23
L 957 21
L 959 20
L 963 19
L 965 17
L 965 16
L 965 15
L 965 13" style="stroke-width:2;stroke:rgba(129,199,239,1.0);fill:none"/></svg>