<svg xmlns="http://www.w3.org/2000/svg" xmlns:xlink="http://www.w3.org/1999/xlink" width="1024" height="400">\n<path  d="M 0 0
L 1024 0
L 1024 400
L 0 400
L 0 0" style="stroke-width:0;stroke:rgba(255,255,255,1.0);fill:rgba(255,255,255,1.0)"/><path  d="M 38 11
L 965 11
L 965 351
L 38 351
L 38 11" style="stroke-width:0;stroke:rgba(255,255,255,1.0);fill:rgba(255,255,255,1.0)"/><path  d="M 38 351
L 965 351" style="stroke-width:2;stroke:rgba(85,85,85,1.0);fill:none"/><path  d="M 38 351
L 38 356" style="stroke-width:2;stroke:rgba(85,85,85,1.0);fill:none"/><text x="5" y="373" style="stroke-width:0;stroke:none;fill:rgba(51,51,51,1.0);font-size:12.8px;font-family:'Roboto Medium',sans-serif">2023-04-02</text><path  d="M 154 351
L 154 356" style="stroke-width:2;stroke:rgba(85,85,85,1.0);fill:none"/><text x="121" y="373" style="stroke-width:0;stroke:none;fill:rgba(51,51,51,1.0);font-size:12.8px;font-family:'Roboto Medium',sans-serif">2023-04-22</text><path  d="M 270 351
L 270 356" style="stroke-width:2;stroke:rgba(85,85,85,1.0);fill:none"/><text x="237" y="373" style="stroke-width:0;stroke:none;fill:rgba(51,51,51,1.0);font-size:12.8px;font-family:'Roboto Medium',sans-serif">2023-05-13</text><path  d="M 386 351
L 386 356" style="stroke-width:2;stroke:rgba(85,85,85,1.0);fill:none"/><text x="353" y="373" style="stroke-width:0;stroke:none;fill:rgba(51,51,51,1.0);font-size:12.8px;font-family:'Roboto Medium',sans-serif">2023-06-02</text><path  d="M 502 351
L 502 356" style="stroke-width:2;stroke:rgba(85,85,85,1.0);fill:none"/><text x="469" y="373" style="stroke-width:0;stroke:none;fill:rgba(51,51,51,1.0);font-size:12.8px;font-family:'Roboto Medium',sans-serif">2023-06-22</text><path  d="M 618 351
L 618 356" style="stroke-width:2;stroke:rgba(85,85,85,1.0);fill:none"/><text x="585" y="373" style="stroke-width:0;stroke:none;fill:rgba(51,51,51,1.0);font-size:12.8px;font-family:'Roboto Medium',sans-serif">2023-07-13</text><path  d="M 734 351
L 734 356" style="stroke-width:2;stroke:rgba(85,85,85,1.0);fill:none"/><text x="701" y="373" style="stroke-width:0;stroke:none;fill:rgba(51,51,51,1.0);font-size:12.8px;font-family:'Roboto Medium',sans-serif">2023-08-02</text><path  d="M 850 351
L 850 356" style="stroke-width:2;stroke:rgba(85,85,85,1.0);fill:none"/><text x="817" y="373" style="stroke-width:0;stroke:none;fill:rgba(51,51,51,1.0);font-size:12.8px;font-family:'Roboto Medium',sans-serif">2023-08-22</text><path  d="M 965 351
L 965 356" style="stroke-width:2;stroke:rgba(85,85,85,1.0);fill:none"/><text x="932" y="373" style="stroke-width:0;stroke:none;fill:rgba(51,51,51,1.0);font-size:12.8px;font-family:'Roboto Medium',sans-serif">2023-09-12</text><text x="487" y="395" style="stroke-width:0;stroke:none;fill:rgba(51,51,51,1.0);font-size:12.8px;font-family:'Roboto Medium',sans-serif">Time</text><path  d="M 967 351
L 967 11" style="stroke-width:2;stroke:rgba(85,85,85,1.0);fill:none"/><path  d="M 967 351
L 972 351" style="stroke-width:2;stroke:rgba(85,85,85,1.0);fill:none"/><text x="977" y="357" style="stroke-width:0;stroke:none;fill:rgba(51,51,51,1.0);font-size:12.8px;font-family:'Roboto Medium',sans-serif">0</text><path  d="M 967 307
L 972 307" style="stroke-width:2;stroke:rgba(85,85,85,1.0);fill:none"/><text x="977" y="313" style="stroke-width:0;stroke:none;fill:rgba(51,51,51,1.0);font-size:12.8px;font-family:'Roboto Medium',sans-serif">27</text><path  d="M 967 265
L 972 265" style="stroke-width:2;stroke:rgba(85,85,85,1.0);fill:none"/><text x="977" y="271" style="stroke-width:0;stroke:none;fill:rgba(51,51,51,1.0);font-size:12.8px;font-family:'Roboto Medium',sans-serif">53</text><path  d="M 967 223
L 972 223" style="stroke-width:2;stroke:rgba(85,85,85,1.0);fill:none"/><text x="977" y="229" style="stroke-width:0;stroke:none;fill:rgba(51,51,51,1.0);font-size:12.8px;font-family:'Roboto Medium',sans-serif">79</text><path  d="M 967 181
L 972 181" style="stroke-width:2;stroke:rgba(85,85,85,1.0);fill:none"/><text x="977" y="187" style="stroke-width:0;stroke:none;fill:rgba(51,51,51,1.0);font-size:12.8px;font-family:'Roboto Medium',sans-serif">105</text><path  d="M 967 137
L 972 137" style="stroke-width:2;stroke:rgba(85,85,85,1.0);fill:none"/><text x="977" y="143" style="stroke-width:0;stroke:none;fill:rgba(51,51,51,1.0);font-size:12.8px;font-family:'Roboto Medium',sans-serif">132</text><path  d="M 967 95
L 972 95" style="stroke-width:2;stroke:rgba(85,85,85,1.0);fill:none"/><text x="977" y="101" style="stroke-width:0;stroke:none;fill:rgba(51,51,51,1.0);font-size:12.8px;font-family:'Roboto Medium',sans-serif">158</text><path  d="M 967 53
L 972 53" style="stroke-width:2;stroke:rgba(85,85,85,1.0);fill:none"/><text x="977" y="59" style="stroke-width:0;stroke:none;fill:rgba(51,51,51,1.0);font-size:12.8px;font-family:'Roboto Medium',sans-serif">184</text><path  d="M 967 11
L 972 11" style="stroke-width:2;stroke:rgba(85,85,85,1.0);fill:none"/><text x="977" y="17" style="stroke-width:0;stroke:none;fill:rgba(51,51,51,1.0);font-size:12.8px;font-family:'Roboto Medium',sans-serif">210</text><text x="1009" y="150" style="stroke-width:0;stroke:none;fill:rgba(51,51,51,1.0);font-size:12.8px;font-family:'Roboto Medium',sans-serif" transform="rotate(90.00,1009,150)">Stargazers</text><path  d="M 38 351
L 49 349
L 118 347
L 120 346
L 120 344
L 120 342
L 120 341
L 120 339
L 120 338
L 120 336
L 121 334
L 122 333
L 122 331
L 122 329
L 122 328
L 122 326
L 123 325
L 123 323
L 124 321
L 124 320
L 128 318
L 130 317
L 130 315
L 136 313
L 139 312
L 139 310
L 139 308
L 141 307
L 142 305
L 146 304
L 153 302
L 154 300
L 159 299
L 164 297
L 186 295
L 186 294
L 186 292
L 186 291
L 186 289
L 187 287
L 187 286
L 199 284
L 205 283
L 208 281
L 219 279
L 236 278
L 243 276
L 273 274
L 283 273
L 300 271
L 317 270
L 324 268
L 389 266
L 392 265
L 393 263
L 401 261
L 403 260
L 403 258
L 403 257
L 403 255
L 403 253
L 403 252
L 403 250
L 404 249
L 404 247
L 404 245
L 404 244
L 405 242
L 407 240
L 407 239
L 407 237
L 407 236
L 407 234
L 407 232
L 407 231
L 407 229
L 407 227
L 407 226
L 407 224
L 407 223
L 407 221
L 407 219
L 407 218
L 407 216
L 407 215
L 408 213
L 408 211
L 408 210
L 408 208
L 408 206
L 408 205
L 408 203
L 408 202
L 408 200
L 408 198
L 408 197
L 408 195
L 408 193
L 408 192
L 409 190
L 409 189
L 410 187
L 410 185
L 411 184
L 412 182
L 412 181
L 413 179
L 414 177
L 415 176
L 418 174
L 418 172
L 418 171
L 418 169
L 418 168
L 418 166
L 418 164
L 418 163
L 418 161
L 418 159
L 418 158
L 418 156
L 418 155
L 419 153
L 419 151
L 419 150
L 420 148
L 421 147
L 425 145
L 425 143
L 426 142
L 426 140
L 441 138
L 442 137
L 443 135
L 448 134
L 448 132
L 458 130
L 469 129
L 472 127
L 481 125
L 485 124
L 492 122
L 494 121
L 496 119
L 506 117
L 507 116
L 510 114
L 515 113
L 517 111
L 522 109
L 522 108
L 523 106
L 524 104
L 530 103
L 535 101
L 535 100
L 538 98
L 539 96
L 540 95
L 543 93
L 551 91
L 556 90
L 566 88
L 569 87
L 573 85
L 578 83
L 578 82
L 579 80
L 585 79
L 613 77
L 614 75
L 619 74
L 645 72
L 646 70
L 646 69
L 646 67
L 647 66
L 652 64
L 660 62
L 665 61
L 666 59
L 697 57
L 704 56
L 711 54
L 721 53
L 728 51
L 728 49
L 732 48
L 755 46
L 780 45
L 808 43
L 811 41
L 811 40
L 812 38
L 813 36
L 820 35
L 858 33
L 876 32
L 877 30
L 891 28
L 894 27
L 896 25
L 939 23
L 939 22
L 942 20
L 943 19
L 949 17
L 961 15
L 965 14" style="stroke-width:2;stroke:rgba(129,199,239,1.0);fill:none"/></svg>