<svg xmlns="http://www.w3.org/2000/svg" xmlns:xlink="http://www.w3.org/1999/xlink" width="1024" height="400">\n<path  d="M 0 0
L 1024 0
L 1024 400
L 0 400
L 0 0" style="stroke-width:0;stroke:rgba(255,255,255,1.0);fill:rgba(255,255,255,1.0)"/><path  d="M 38 11
L 965 11
L 965 351
L 38 351
L 38 11" style="stroke-width:0;stroke:rgba(255,255,255,1.0);fill:rgba(255,255,255,1.0)"/><path  d="M 38 351
L 965 351" style="stroke-width:2;stroke:rgba(85,85,85,1.0);fill:none"/><path  d="M 38 351
L 38 356" style="stroke-width:2;stroke:rgba(85,85,85,1.0);fill:none"/><text x="5" y="373" style="stroke-width:0;stroke:none;fill:rgba(51,51,51,1.0);font-size:12.8px;font-family:'Roboto Medium',sans-serif">2023-04-02</text><path  d="M 154 351
L 154 356" style="stroke-width:2;stroke:rgba(85,85,85,1.0);fill:none"/><text x="121" y="373" style="stroke-width:0;stroke:none;fill:rgba(51,51,51,1.0);font-size:12.8px;font-family:'Roboto Medium',sans-serif">2023-04-19</text><path  d="M 270 351
L 270 356" style="stroke-width:2;stroke:rgba(85,85,85,1.0);fill:none"/><text x="237" y="373" style="stroke-width:0;stroke:none;fill:rgba(51,51,51,1.0);font-size:12.8px;font-family:'Roboto Medium',sans-serif">2023-05-06</text><path  d="M 386 351
L 386 356" style="stroke-width:2;stroke:rgba(85,85,85,1.0);fill:none"/><text x="353" y="373" style="stroke-width:0;stroke:none;fill:rgba(51,51,51,1.0);font-size:12.8px;font-family:'Roboto Medium',sans-serif">2023-05-23</text><path  d="M 502 351
L 502 356" style="stroke-width:2;stroke:rgba(85,85,85,1.0);fill:none"/><text x="469" y="373" style="stroke-width:0;stroke:none;fill:rgba(51,51,51,1.0);font-size:12.8px;font-family:'Roboto Medium',sans-serif">2023-06-09</text><path  d="M 618 351
L 618 356" style="stroke-width:2;stroke:rgba(85,85,85,1.0);fill:none"/><text x="585" y="373" style="stroke-width:0;stroke:none;fill:rgba(51,51,51,1.0);font-size:12.8px;font-family:'Roboto Medium',sans-serif">2023-06-26</text><path  d="M 734 351
L 734 356" style="stroke-width:2;stroke:rgba(85,85,85,1.0);fill:none"/><text x="701" y="373" style="stroke-width:0;stroke:none;fill:rgba(51,51,51,1.0);font-size:12.8px;font-family:'Roboto Medium',sans-serif">2023-07-13</text><path  d="M 850 351
L 850 356" style="stroke-width:2;stroke:rgba(85,85,85,1.0);fill:none"/><text x="817" y="373" style="stroke-width:0;stroke:none;fill:rgba(51,51,51,1.0);font-size:12.8px;font-family:'Roboto Medium',sans-serif">2023-07-30</text><path  d="M 965 351
L 965 356" style="stroke-width:2;stroke:rgba(85,85,85,1.0);fill:none"/><text x="932" y="373" style="stroke-width:0;stroke:none;fill:rgba(51,51,51,1.0);font-size:12.8px;font-family:'Roboto Medium',sans-serif">2023-08-16</text><text x="487" y="395" style="stroke-width:0;stroke:none;fill:rgba(51,51,51,1.0);font-size:12.8px;font-family:'Roboto Medium',sans-serif">Time</text><path  d="M 967 351
L 967 11" style="stroke-width:2;stroke:rgba(85,85,85,1.0);fill:none"/><path  d="M 967 351
L 972 351" style="stroke-width:2;stroke:rgba(85,85,85,1.0);fill:none"/><text x="977" y="357" style="stroke-width:0;stroke:none;fill:rgba(51,51,51,1.0);font-size:12.8px;font-family:'Roboto Medium',sans-serif">0</text><path  d="M 967 308
L 972 308" style="stroke-width:2;stroke:rgba(85,85,85,1.0);fill:none"/><text x="977" y="314" style="stroke-width:0;stroke:none;fill:rgba(51,51,51,1.0);font-size:12.8px;font-family:'Roboto Medium',sans-serif">25</text><path  d="M 967 266
L 972 266" style="stroke-width:2;stroke:rgba(85,85,85,1.0);fill:none"/><text x="977" y="272" style="stroke-width:0;stroke:none;fill:rgba(51,51,51,1.0);font-size:12.8px;font-family:'Roboto Medium',sans-serif">50</text><path  d="M 967 223
L 972 223" style="stroke-width:2;stroke:rgba(85,85,85,1.0);fill:none"/><text x="977" y="229" style="stroke-width:0;stroke:none;fill:rgba(51,51,51,1.0);font-size:12.8px;font-family:'Roboto Medium',sans-serif">75</text><path  d="M 967 181
L 972 181" style="stroke-width:2;stroke:rgba(85,85,85,1.0);fill:none"/><text x="977" y="187" style="stroke-width:0;stroke:none;fill:rgba(51,51,51,1.0);font-size:12.8px;font-family:'Roboto Medium',sans-serif">100</text><path  d="M 967 138
L 972 138" style="stroke-width:2;stroke:rgba(85,85,85,1.0);fill:none"/><text x="977" y="144" style="stroke-width:0;stroke:none;fill:rgba(51,51,51,1.0);font-size:12.8px;font-family:'Roboto Medium',sans-serif">125</text><path  d="M 967 96
L 972 96" style="stroke-width:2;stroke:rgba(85,85,85,1.0);fill:none"/><text x="977" y="102" style="stroke-width:0;stroke:none;fill:rgba(51,51,51,1.0);font-size:12.8px;font-family:'Roboto Medium',sans-serif">150</text><path  d="M 967 53
L 972 53" style="stroke-width:2;stroke:rgba(85,85,85,1.0);fill:none"/><text x="977" y="59" style="stroke-width:0;stroke:none;fill:rgba(51,51,51,1.0);font-size:12.8px;font-family:'Roboto Medium',sans-serif">175</text><path  d="M 967 11
L 972 11" style="stroke-width:2;stroke:rgba(85,85,85,1.0);fill:none"/><text x="977" y="17" style="stroke-width:0;stroke:none;fill:rgba(51,51,51,1.0);font-size:12.8px;font-family:'Roboto Medium',sans-serif">200</text><text x="1009" y="150" style="stroke-width:0;stroke:none;fill:rgba(51,51,51,1.0);font-size:12.8px;font-family:'Roboto Medium',sans-serif" transform="rotate(90.00,1009,150)">Stargazers</text><path  d="M 38 351
L 51 349
L 133 347
L 136 345
L 136 344
L 136 342
L 136 340
L 136 339
L 136 337
L 136 335
L 138 334
L 138 332
L 138 330
L 138 328
L 139 327
L 139 325
L 139 323
L 139 322
L 141 320
L 141 318
L 146 317
L 148 315
L 149 313
L 155 311
L 159 310
L 159 308
L 159 306
L 162 305
L 162 303
L 167 301
L 176 300
L 177 298
L 182 296
L 188 294
L 214 293
L 215 291
L 215 289
L 215 288
L 215 286
L 216 284
L 216 283
L 231 281
L 237 279
L 242 277
L 254 276
L 275 274
L 283 272
L 319 271
L 331 269
L 351 267
L 371 266
L 380 264
L 458 262
L 462 260
L 462 259
L 472 257
L 475 255
L 475 254
L 475 252
L 475 250
L 475 249
L 475 247
L 475 245
L 475 243
L 476 242
L 476 240
L 476 238
L 477 237
L 479 235
L 479 233
L 479 232
L 479 230
L 479 228
L 479 226
L 479 225
L 479 223
L 479 221
L 479 220
L 479 218
L 479 216
L 479 215
L 479 213
L 479 211
L 479 209
L 479 208
L 480 206
L 480 204
L 480 203
L 480 201
L 480 199
L 480 198
L 480 196
L 480 194
L 481 192
L 481 191
L 481 189
L 481 187
L 481 186
L 481 184
L 481 182
L 481 181
L 483 179
L 483 177
L 484 175
L 486 174
L 486 172
L 486 170
L 488 169
L 488 167
L 492 165
L 492 163
L 493 162
L 493 160
L 493 158
L 493 157
L 493 155
L 493 153
L 493 152
L 493 150
L 493 148
L 493 147
L 493 145
L 493 143
L 493 141
L 493 140
L 494 138
L 496 136
L 501 135
L 501 133
L 502 131
L 502 130
L 520 128
L 522 126
L 522 124
L 528 123
L 529 121
L 541 119
L 554 118
L 557 116
L 568 114
L 573 113
L 581 111
L 583 109
L 585 107
L 597 106
L 599 104
L 603 102
L 609 101
L 611 99
L 617 97
L 617 96
L 618 94
L 620 92
L 626 90
L 632 89
L 632 87
L 636 85
L 638 84
L 638 82
L 642 80
L 652 79
L 658 77
L 669 75
L 673 73
L 678 72
L 683 70
L 683 68
L 685 67
L 693 65
L 726 63
L 727 62
L 733 60
L 764 58
L 765 56
L 765 55
L 766 53
L 767 51
L 772 50
L 782 48
L 787 46
L 789 45
L 827 43
L 834 41
L 843 39
L 855 38
L 863 36
L 863 34
L 869 33
L 895 31
L 925 29
L 959 28
L 963 26
L 963 24
L 964 22
L 965 21" style="stroke-width:2;stroke:rgba(129,199,239,1.0);fill:none"/></svg>