<svg xmlns="http://www.w3.org/2000/svg" xmlns:xlink="http://www.w3.org/1999/xlink" width="1024" height="400">\n<path  d="M 0 0
L 1024 0
L 1024 400
L 0 400
L 0 0" style="stroke-width:0;stroke:rgba(255,255,255,1.0);fill:rgba(255,255,255,1.0)"/><path  d="M 38 11
L 965 11
L 965 351
L 38 351
L 38 11" style="stroke-width:0;stroke:rgba(255,255,255,1.0);fill:rgba(255,255,255,1.0)"/><path  d="M 38 351
L 965 351" style="stroke-width:2;stroke:rgba(85,85,85,1.0);fill:none"/><path  d="M 38 351
L 38 356" style="stroke-width:2;stroke:rgba(85,85,85,1.0);fill:none"/><text x="5" y="373" style="stroke-width:0;stroke:none;fill:rgba(51,51,51,1.0);font-size:12.8px;font-family:'Roboto Medium',sans-serif">2023-04-02</text><path  d="M 154 351
L 154 356" style="stroke-width:2;stroke:rgba(85,85,85,1.0);fill:none"/><text x="121" y="373" style="stroke-width:0;stroke:none;fill:rgba(51,51,51,1.0);font-size:12.8px;font-family:'Roboto Medium',sans-serif">2023-05-04</text><path  d="M 270 351
L 270 356" style="stroke-width:2;stroke:rgba(85,85,85,1.0);fill:none"/><text x="237" y="373" style="stroke-width:0;stroke:none;fill:rgba(51,51,51,1.0);font-size:12.8px;font-family:'Roboto Medium',sans-serif">2023-06-05</text><path  d="M 386 351
L 386 356" style="stroke-width:2;stroke:rgba(85,85,85,1.0);fill:none"/><text x="353" y="373" style="stroke-width:0;stroke:none;fill:rgba(51,51,51,1.0);font-size:12.8px;font-family:'Roboto Medium',sans-serif">2023-07-08</text><path  d="M 502 351
L 502 356" style="stroke-width:2;stroke:rgba(85,85,85,1.0);fill:none"/><text x="469" y="373" style="stroke-width:0;stroke:none;fill:rgba(51,51,51,1.0);font-size:12.8px;font-family:'Roboto Medium',sans-serif">2023-08-09</text><path  d="M 618 351
L 618 356" style="stroke-width:2;stroke:rgba(85,85,85,1.0);fill:none"/><text x="585" y="373" style="stroke-width:0;stroke:none;fill:rgba(51,51,51,1.0);font-size:12.8px;font-family:'Roboto Medium',sans-serif">2023-09-10</text><path  d="M 734 351
L 734 356" style="stroke-width:2;stroke:rgba(85,85,85,1.0);fill:none"/><text x="701" y="373" style="stroke-width:0;stroke:none;fill:rgba(51,51,51,1.0);font-size:12.8px;font-family:'Roboto Medium',sans-serif">2023-10-13</text><path  d="M 850 351
L 850 356" style="stroke-width:2;stroke:rgba(85,85,85,1.0);fill:none"/><text x="817" y="373" style="stroke-width:0;stroke:none;fill:rgba(51,51,51,1.0);font-size:12.8px;font-family:'Roboto Medium',sans-serif">2023-11-14</text><path  d="M 965 351
L 965 356" style="stroke-width:2;stroke:rgba(85,85,85,1.0);fill:none"/><text x="932" y="373" style="stroke-width:0;stroke:none;fill:rgba(51,51,51,1.0);font-size:12.8px;font-family:'Roboto Medium',sans-serif">2023-12-16</text><text x="487" y="395" style="stroke-width:0;stroke:none;fill:rgba(51,51,51,1.0);font-size:12.8px;font-family:'Roboto Medium',sans-serif">Time</text><path  d="M 967 351
L 967 11" style="stroke-width:2;stroke:rgba(85,85,85,1.0);fill:none"/><path  d="M 967 351
L 972 351" style="stroke-width:2;stroke:rgba(85,85,85,1.0);fill:none"/><text x="977" y="357" style="stroke-width:0;stroke:none;fill:rgba(51,51,51,1.0);font-size:12.8px;font-family:'Roboto Medium',sans-serif">0</text><path  d="M 967 308
L 972 308" style="stroke-width:2;stroke:rgba(85,85,85,1.0);fill:none"/><text x="977" y="314" style="stroke-width:0;stroke:none;fill:rgba(51,51,51,1.0);font-size:12.8px;font-family:'Roboto Medium',sans-serif">43</text><path  d="M 967 266
L 972 266" style="stroke-width:2;stroke:rgba(85,85,85,1.0);fill:none"/><text x="977" y="272" style="stroke-width:0;stroke:none;fill:rgba(51,51,51,1.0);font-size:12.8px;font-family:'Roboto Medium',sans-serif">85</text><path  d="M 967 223
L 972 223" style="stroke-width:2;stroke:rgba(85,85,85,1.0);fill:none"/><text x="977" y="229" style="stroke-width:0;stroke:none;fill:rgba(51,51,51,1.0);font-size:12.8px;font-family:'Roboto Medium',sans-serif">128</text><path  d="M 967 181
L 972 181" style="stroke-width:2;stroke:rgba(85,85,85,1.0);fill:none"/><text x="977" y="187" style="stroke-width:0;stroke:none;fill:rgba(51,51,51,1.0);font-size:12.8px;font-family:'Roboto Medium',sans-serif">170</text><path  d="M 967 138
L 972 138" style="stroke-width:2;stroke:rgba(85,85,85,1.0);fill:none"/><text x="977" y="144" style="stroke-width:0;stroke:none;fill:rgba(51,51,51,1.0);font-size:12.8px;font-family:'Roboto Medium',sans-serif">213</text><path  d="M 967 96
L 972 96" style="stroke-width:2;stroke:rgba(85,85,85,1.0);fill:none"/><text x="977" y="102" style="stroke-width:0;stroke:none;fill:rgba(51,51,51,1.0);font-size:12.8px;font-family:'Roboto Medium',sans-serif">255</text><path  d="M 967 53
L 972 53" style="stroke-width:2;stroke:rgba(85,85,85,1.0);fill:none"/><text x="977" y="59" style="stroke-width:0;stroke:none;fill:rgba(51,51,51,1.0);font-size:12.8px;font-family:'Roboto Medium',sans-serif">298</text><path  d="M 967 11
L 972 11" style="stroke-width:2;stroke:rgba(85,85,85,1.0);fill:none"/><text x="977" y="17" style="stroke-width:0;stroke:none;fill:rgba(51,51,51,1.0);font-size:12.8px;font-family:'Roboto Medium',sans-serif">340</text><text x="1009" y="150" style="stroke-width:0;stroke:none;fill:rgba(51,51,51,1.0);font-size:12.8px;font-family:'Roboto Medium',sans-serif" transform="rotate(90.00,1009,150)">Stargazers</text><path  d="M 38 351
L 45 350
L 88 349
L 90 348
L 90 347
L 90 346
L 90 345
L 90 344
L 90 343
L 90 342
L 91 341
L 91 339
L 91 339
L 91 337
L 91 337
L 91 335
L 92 335
L 92 334
L 93 333
L 93 332
L 95 331
L 96 330
L 96 328
L 100 328
L 102 327
L 102 326
L 102 324
L 103 324
L 106 323
L 111 322
L 111 320
L 114 320
L 117 319
L 131 318
L 131 317
L 131 316
L 131 315
L 132 314
L 132 313
L 132 312
L 140 311
L 143 310
L 146 309
L 152 308
L 163 306
L 167 306
L 187 305
L 193 304
L 203 303
L 214 302
L 219 301
L 259 300
L 262 298
L 262 298
L 267 297
L 268 296
L 268 295
L 268 294
L 269 293
L 269 292
L 269 290
L 269 290
L 269 289
L 269 288
L 269 287
L 269 286
L 270 285
L 271 284
L 271 283
L 271 282
L 271 281
L 271 280
L 271 279
L 271 278
L 271 277
L 271 276
L 271 275
L 271 274
L 271 273
L 271 272
L 271 271
L 271 270
L 271 269
L 271 268
L 271 267
L 271 266
L 271 265
L 271 264
L 271 262
L 271 262
L 271 261
L 271 260
L 271 259
L 271 257
L 271 257
L 272 256
L 272 255
L 272 254
L 272 253
L 272 252
L 273 251
L 273 250
L 273 249
L 274 248
L 274 246
L 274 246
L 275 245
L 276 244
L 278 243
L 278 241
L 278 241
L 278 240
L 278 239
L 278 238
L 278 237
L 278 236
L 278 235
L 278 234
L 278 233
L 278 232
L 278 230
L 278 230
L 278 229
L 278 228
L 279 227
L 280 225
L 282 225
L 282 224
L 283 223
L 283 222
L 292 221
L 293 220
L 293 219
L 297 218
L 297 217
L 303 216
L 310 215
L 312 214
L 318 213
L 320 212
L 324 211
L 325 210
L 327 209
L 333 208
L 334 207
L 336 206
L 339 205
L 340 204
L 343 203
L 343 202
L 344 201
L 345 200
L 348 199
L 351 198
L 352 197
L 353 196
L 354 195
L 354 194
L 357 193
L 362 192
L 365 191
L 371 190
L 373 189
L 375 188
L 378 187
L 378 186
L 379 185
L 383 184
L 401 183
L 401 182
L 404 181
L 421 180
L 421 179
L 421 178
L 422 177
L 422 176
L 425 174
L 430 174
L 433 173
L 434 172
L 454 171
L 458 170
L 462 169
L 469 168
L 473 167
L 473 166
L 476 164
L 490 163
L 506 163
L 524 162
L 525 161
L 526 160
L 526 159
L 527 158
L 531 157
L 555 156
L 566 155
L 567 153
L 576 153
L 578 152
L 579 151
L 606 150
L 606 149
L 608 148
L 609 147
L 612 146
L 620 145
L 623 144
L 628 142
L 632 142
L 638 141
L 653 140
L 653 139
L 656 138
L 656 137
L 657 136
L 658 135
L 666 134
L 666 132
L 681 131
L 703 131
L 714 130
L 727 129
L 728 128
L 734 127
L 735 126
L 739 125
L 742 124
L 742 123
L 742 121
L 742 121
L 742 120
L 742 119
L 742 118
L 742 117
L 743 116
L 743 115
L 743 114
L 744 113
L 744 112
L 745 110
L 746 110
L 748 109
L 751 108
L 752 107
L 752 106
L 752 105
L 753 104
L 757 103
L 757 102
L 757 100
L 757 100
L 757 99
L 757 98
L 757 97
L 760 96
L 760 95
L 762 94
L 763 93
L 763 92
L 763 91
L 764 90
L 764 89
L 767 88
L 767 87
L 767 86
L 768 85
L 770 84
L 771 83
L 771 82
L 774 81
L 777 80
L 779 79
L 783 78
L 789 77
L 789 76
L 791 75
L 792 74
L 792 73
L 792 72
L 792 71
L 797 70
L 799 69
L 804 68
L 804 67
L 806 66
L 811 65
L 815 64
L 815 63
L 822 62
L 824 61
L 825 60
L 827 59
L 827 58
L 840 57
L 842 56
L 843 55
L 853 54
L 858 53
L 868 52
L 870 51
L 871 50
L 874 49
L 875 48
L 875 47
L 883 46
L 889 45
L 893 44
L 894 43
L 897 42
L 901 41
L 901 40
L 901 39
L 901 38
L 903 37
L 903 36
L 904 35
L 907 34
L 907 33
L 907 32
L 910 31
L 922 30
L 936 29
L 936 28
L 936 27
L 946 26
L 951 25
L 953 24
L 954 23
L 957 22
L 961 21
L 961 20
L 961 19
L 961 18
L 961 17
L 962 16
L 962 15
L 964 14
L 964 13
L 965 12" style="stroke-width:2;stroke:rgba(129,199,239,1.0);fill:none"/></svg>