<svg xmlns="http://www.w3.org/2000/svg" xmlns:xlink="http://www.w3.org/1999/xlink" width="1024px" height="400px"><style type="text/css">
path { fill: none; stroke: rgb(51,51,51); }
path.series { stroke: #6b63ff; }
rect.background { fill: rgb(255,255,255); stroke: none; }

text {
	stroke-width: 0;
	stroke: none;
	fill: rgba(51,51,51,1.0);
	font-size: 12.8px;
	font-family: 'Roboto Medium', sans-serif;
}
</style><rect rx="8" x="0" y="0" width="1024px" height="400px" class="background" /><rect x="0" y="0" width="1024px" height="400px" class="background" rx="8"></rect><path stroke-width="2" class="series" d="M 58 345 L 60 345 L 70 345 L 70 344 L 70 344 L 70 344 L 70 344 L 70 343 L 70 343 L 70 343 L 71 343 L 71 342 L 71 342 L 71 342 L 71 342 L 71 341 L 71 341 L 71 341 L 71 341 L 72 340 L 72 340 L 72 340 L 73 340 L 73 339 L 73 339 L 73 339 L 74 339 L 74 338 L 75 338 L 75 338 L 76 338 L 77 337 L 80 337 L 80 337 L 80 337 L 80 336 L 80 336 L 82 336 L 83 336 L 83 335 L 85 335 L 88 335 L 89 335 L 93 334 L 94 334 L 97 334 L 99 334 L 101 333 L 111 333 L 111 333 L 112 333 L 112 332 L 112 332 L 112 332 L 112 332 L 112 331 L 112 331 L 112 331 L 112 331 L 112 330 L 112 330 L 112 330 L 112 330 L 113 329 L 113 329 L 113 329 L 113 328 L 113 328 L 113 328 L 113 328 L 113 327 L 113 327 L 113 327 L 113 327 L 113 326 L 113 326 L 113 326 L 113 326 L 113 325 L 113 325 L 113 325 L 113 325 L 113 324 L 113 324 L 113 324 L 113 324 L 113 323 L 113 323 L 113 323 L 113 323 L 113 322 L 113 322 L 113 322 L 113 322 L 113 321 L 113 321 L 113 321 L 113 321 L 113 320 L 113 320 L 113 320 L 114 320 L 114 319 L 114 319 L 114 319 L 114 319 L 114 318 L 114 318 L 114 318 L 114 318 L 114 317 L 114 317 L 114 317 L 114 317 L 114 316 L 114 316 L 114 316 L 114 316 L 114 315 L 114 315 L 115 315 L 115 315 L 115 314 L 115 314 L 115 314 L 115 314 L 118 313 L 118 313 L 118 313 L 119 313 L 119 312 L 120 312 L 122 312 L 122 311 L 124 311 L 124 311 L 125 311 L 125 310 L 126 310 L 127 310 L 127 310 L 128 309 L 129 309 L 129 309 L 130 309 L 130 308 L 130 308 L 130 308 L 131 308 L 131 307 L 131 307 L 132 307 L 132 307 L 132 306 L 133 306 L 134 306 L 135 306 L 136 305 L 137 305 L 137 305 L 138 305 L 138 304 L 138 304 L 139 304 L 143 304 L 143 303 L 144 303 L 148 303 L 148 303 L 148 302 L 148 302 L 148 302 L 149 302 L 150 301 L 151 301 L 151 301 L 155 301 L 156 300 L 157 300 L 159 300 L 160 300 L 160 299 L 160 299 L 164 299 L 167 299 L 172 298 L 172 298 L 172 298 L 172 298 L 172 297 L 179 297 L 182 297 L 182 297 L 184 296 L 184 296 L 185 296 L 191 295 L 191 295 L 191 295 L 192 295 L 192 294 L 195 294 L 196 294 L 197 294 L 198 293 L 202 293 L 202 293 L 203 293 L 203 292 L 203 292 L 203 292 L 205 292 L 208 291 L 216 291 L 219 291 L 221 291 L 221 290 L 223 290 L 223 290 L 223 290 L 223 289 L 223 289 L 223 289 L 223 289 L 223 288 L 223 288 L 223 288 L 223 288 L 223 287 L 223 287 L 223 287 L 223 287 L 225 286 L 225 286 L 225 286 L 225 286 L 226 285 L 226 285 L 226 285 L 226 285 L 226 284 L 226 284 L 226 284 L 227 284 L 227 283 L 227 283 L 228 283 L 228 283 L 228 282 L 228 282 L 228 282 L 228 282 L 229 281 L 229 281 L 229 281 L 229 281 L 230 280 L 231 280 L 231 280 L 232 280 L 234 279 L 234 279 L 234 279 L 234 278 L 234 278 L 234 278 L 234 278 L 235 277 L 236 277 L 237 277 L 237 277 L 237 276 L 239 276 L 240 276 L 240 276 L 241 275 L 242 275 L 242 275 L 242 275 L 242 274 L 245 274 L 246 274 L 246 274 L 248 273 L 250 273 L 252 273 L 252 273 L 253 272 L 253 272 L 254 272 L 254 272 L 255 271 L 257 271 L 258 271 L 258 271 L 260 270 L 260 270 L 260 270 L 260 270 L 260 269 L 260 269 L 260 269 L 261 269 L 261 268 L 261 268 L 262 268 L 264 268 L 268 267 L 268 267 L 268 267 L 270 267 L 271 266 L 272 266 L 272 266 L 273 266 L 274 265 L 274 265 L 274 265 L 274 265 L 274 264 L 274 264 L 274 264 L 274 264 L 275 263 L 276 263 L 276 263 L 276 262 L 276 262 L 277 262 L 277 262 L 277 261 L 277 261 L 277 261 L 277 261 L 277 260 L 277 260 L 280 260 L 281 260 L 281 259 L 282 259 L 289 259 L 289 259 L 291 258 L 293 258 L 299 258 L 300 258 L 300 257 L 300 257 L 300 257 L 300 257 L 300 256 L 300 256 L 301 256 L 302 256 L 307 255 L 309 255 L 311 255 L 315 255 L 317 254 L 320 254 L 321 254 L 324 254 L 324 253 L 330 253 L 336 253 L 336 253 L 341 252 L 341 252 L 344 252 L 345 252 L 347 251 L 347 251 L 347 251 L 347 251 L 349 250 L 350 250 L 351 250 L 354 250 L 354 249 L 355 249 L 355 249 L 358 249 L 360 248 L 360 248 L 363 248 L 365 248 L 366 247 L 366 247 L 367 247 L 367 247 L 368 246 L 370 246 L 372 246 L 373 245 L 375 245 L 375 245 L 378 245 L 379 244 L 381 244 L 383 244 L 384 244 L 387 243 L 387 243 L 387 243 L 388 243 L 389 242 L 390 242 L 390 242 L 392 242 L 393 241 L 394 241 L 394 241 L 394 241 L 399 240 L 399 240 L 400 240 L 400 240 L 400 239 L 401 239 L 401 239 L 401 239 L 401 238 L 403 238 L 403 238 L 404 238 L 404 237 L 405 237 L 405 237 L 405 237 L 405 236 L 406 236 L 406 236 L 406 236 L 407 235 L 407 235 L 407 235 L 407 235 L 408 234 L 408 234 L 409 234 L 409 234 L 409 233 L 410 233 L 410 233 L 411 233 L 411 232 L 412 232 L 413 232 L 413 232 L 414 231 L 414 231 L 415 231 L 415 231 L 416 230 L 416 230 L 416 230 L 416 229 L 416 229 L 417 229 L 417 229 L 417 228 L 420 228 L 420 228 L 421 228 L 421 227 L 423 227 L 424 227 L 424 227 L 425 226 L 427 226 L 429 226 L 430 226 L 431 225 L 431 225 L 431 225 L 431 225 L 432 224 L 432 224 L 432 224 L 433 224 L 433 223 L 433 223 L 433 223 L 434 223 L 434 222 L 434 222 L 435 222 L 435 222 L 437 221 L 437 221 L 437 221 L 438 221 L 438 220 L 440 220 L 444 220 L 444 220 L 444 219 L 445 219 L 446 219 L 447 219 L 448 218 L 448 218 L 448 218 L 448 218 L 449 217 L 451 217 L 452 217 L 452 217 L 452 216 L 453 216 L 453 216 L 453 216 L 454 215 L 455 215 L 458 215 L 458 215 L 460 214 L 461 214 L 461 214 L 463 214 L 464 213 L 466 213 L 467 213 L 468 212 L 469 212 L 469 212 L 469 212 L 470 211 L 470 211 L 470 211 L 470 211 L 470 210 L 471 210 L 471 210 L 471 210 L 471 209 L 472 209 L 473 209 L 473 209 L 476 208 L 476 208 L 480 208 L 481 208 L 481 207 L 482 207 L 482 207 L 484 207 L 485 206 L 485 206 L 485 206 L 485 206 L 485 205 L 486 205 L 486 205 L 486 205 L 486 204 L 486 204 L 486 204 L 486 204 L 487 203 L 487 203 L 488 203 L 488 203 L 489 202 L 489 202 L 490 202 L 490 202 L 490 201 L 490 201 L 491 201 L 493 201 L 493 200 L 493 200 L 493 200 L 493 200 L 494 199 L 494 199 L 494 199 L 495 199 L 496 198 L 498 198 L 500 198 L 501 198 L 502 197 L 504 197 L 506 197 L 507 196 L 508 196 L 511 196 L 511 196 L 511 195 L 515 195 L 515 195 L 516 195 L 516 194 L 516 194 L 522 194 L 522 194 L 523 193 L 523 193 L 524 193 L 524 193 L 525 192 L 525 192 L 525 192 L 526 192 L 526 191 L 526 191 L 526 191 L 526 191 L 527 190 L 527 190 L 527 190 L 527 190 L 527 189 L 528 189 L 529 189 L 530 189 L 530 188 L 530 188 L 530 188 L 531 188 L 532 187 L 532 187 L 532 187 L 532 187 L 533 186 L 533 186 L 534 186 L 534 186 L 535 185 L 535 185 L 536 185 L 536 185 L 536 184 L 537 184 L 537 184 L 537 184 L 537 183 L 537 183 L 538 183 L 538 183 L 538 182 L 539 182 L 540 182 L 540 182 L 540 181 L 540 181 L 540 181 L 541 181 L 541 180 L 541 180 L 542 180 L 542 179 L 542 179 L 542 179 L 542 179 L 542 178 L 542 178 L 543 178 L 543 178 L 543 177 L 543 177 L 543 177 L 543 177 L 543 176 L 545 176 L 546 176 L 547 176 L 547 175 L 547 175 L 547 175 L 548 175 L 549 174 L 549 174 L 550 174 L 552 174 L 553 173 L 553 173 L 554 173 L 555 173 L 555 172 L 556 172 L 556 172 L 556 172 L 556 171 L 556 171 L 556 171 L 556 171 L 556 170 L 556 170 L 557 170 L 557 170 L 557 169 L 557 169 L 557 169 L 557 169 L 558 168 L 558 168 L 559 168 L 560 168 L 560 167 L 560 167 L 560 167 L 561 167 L 561 166 L 562 166 L 564 166 L 564 166 L 564 165 L 564 165 L 564 165 L 566 165 L 567 164 L 568 164 L 569 164 L 569 163 L 569 163 L 569 163 L 570 163 L 573 162 L 575 162 L 577 162 L 578 162 L 578 161 L 579 161 L 580 161 L 580 161 L 580 160 L 580 160 L 581 160 L 581 160 L 582 159 L 582 159 L 583 159 L 584 159 L 584 158 L 584 158 L 584 158 L 584 158 L 584 157 L 584 157 L 584 157 L 584 157 L 584 156 L 584 156 L 584 156 L 584 156 L 584 155 L 584 155 L 584 155 L 584 155 L 585 154 L 585 154 L 585 154 L 585 154 L 585 153 L 585 153 L 585 153 L 586 153 L 586 152 L 586 152 L 587 152 L 587 152 L 587 151 L 587 151 L 587 151 L 587 151 L 588 150 L 588 150 L 590 150 L 590 150 L 590 149 L 591 149 L 591 149 L 592 149 L 592 148 L 594 148 L 594 148 L 595 148 L 595 147 L 595 147 L 595 147 L 595 146 L 595 146 L 595 146 L 597 146 L 597 145 L 597 145 L 600 145 L 601 145 L 602 144 L 604 144 L 604 144 L 605 144 L 605 143 L 605 143 L 605 143 L 606 143 L 606 142 L 606 142 L 607 142 L 607 142 L 607 141 L 607 141 L 608 141 L 608 141 L 608 140 L 608 140 L 608 140 L 608 140 L 608 139 L 608 139 L 609 139 L 610 139 L 610 138 L 610 138 L 610 138 L 611 138 L 611 137 L 611 137 L 612 137 L 612 137 L 612 136 L 613 136 L 613 136 L 614 136 L 616 135 L 618 135 L 620 135 L 620 135 L 621 134 L 623 134 L 623 134 L 624 134 L 626 133 L 630 133 L 630 133 L 631 133 L 633 132 L 634 132 L 635 132 L 635 132 L 636 131 L 637 131 L 637 131 L 638 130 L 639 130 L 640 130 L 640 130 L 640 129 L 641 129 L 641 129 L 641 129 L 642 128 L 644 128 L 645 128 L 645 128 L 646 127 L 646 127 L 647 127 L 648 127 L 649 126 L 649 126 L 649 126 L 649 126 L 649 125 L 650 125 L 650 125 L 651 125 L 652 124 L 652 124 L 652 124 L 653 124 L 653 123 L 654 123 L 654 123 L 654 123 L 655 122 L 655 122 L 655 122 L 655 122 L 655 121 L 655 121 L 657 121 L 658 121 L 659 120 L 661 120 L 661 120 L 662 120 L 663 119 L 665 119 L 666 119 L 668 119 L 669 118 L 670 118 L 670 118 L 671 118 L 673 117 L 674 117 L 674 117 L 675 117 L 675 116 L 675 116 L 675 116 L 676 116 L 676 115 L 677 115 L 678 115 L 678 115 L 678 114 L 683 114 L 683 114 L 684 113 L 685 113 L 687 113 L 687 113 L 688 112 L 688 112 L 688 112 L 688 112 L 689 111 L 690 111 L 690 111 L 690 111 L 691 110 L 691 110 L 691 110 L 691 110 L 693 109 L 695 109 L 695 109 L 699 109 L 700 108 L 700 108 L 701 108 L 701 108 L 701 107 L 701 107 L 702 107 L 704 107 L 705 106 L 706 106 L 706 106 L 707 106 L 707 105 L 708 105 L 709 105 L 711 105 L 711 104 L 711 104 L 711 104 L 712 104 L 712 103 L 712 103 L 713 103 L 713 103 L 713 102 L 714 102 L 715 102 L 716 102 L 716 101 L 716 101 L 716 101 L 716 101 L 717 100 L 719 100 L 722 100 L 723 100 L 725 99 L 726 99 L 728 99 L 728 99 L 729 98 L 729 98 L 730 98 L 731 97 L 732 97 L 733 97 L 734 97 L 737 96 L 741 96 L 741 96 L 741 96 L 741 95 L 741 95 L 742 95 L 743 95 L 743 94 L 749 94 L 752 94 L 752 94 L 753 93 L 754 93 L 756 93 L 758 93 L 758 92 L 758 92 L 759 92 L 760 92 L 764 91 L 765 91 L 766 91 L 767 91 L 769 90 L 769 90 L 769 90 L 769 90 L 770 89 L 770 89 L 770 89 L 772 89 L 774 88 L 774 88 L 774 88 L 775 88 L 777 87 L 780 87 L 781 87 L 781 87 L 783 86 L 783 86 L 783 86 L 783 86 L 783 85 L 784 85 L 784 85 L 785 85 L 786 84 L 786 84 L 787 84 L 787 84 L 787 83 L 787 83 L 787 83 L 787 83 L 787 82 L 788 82 L 788 82 L 788 82 L 789 81 L 789 81 L 789 81 L 789 80 L 789 80 L 790 80 L 790 80 L 791 79 L 795 79 L 796 79 L 797 79 L 797 78 L 797 78 L 797 78 L 797 78 L 797 77 L 798 77 L 798 77 L 798 77 L 798 76 L 798 76 L 798 76 L 798 76 L 798 75 L 798 75 L 798 75 L 798 75 L 798 74 L 798 74 L 799 74 L 799 74 L 799 73 L 800 73 L 800 73 L 801 73 L 802 72 L 803 72 L 803 72 L 804 72 L 804 71 L 805 71 L 805 71 L 805 71 L 807 70 L 808 70 L 809 70 L 809 70 L 810 69 L 810 69 L 810 69 L 812 69 L 812 68 L 813 68 L 814 68 L 815 68 L 815 67 L 815 67 L 816 67 L 817 67 L 817 66 L 818 66 L 819 66 L 819 66 L 821 65 L 825 65 L 825 65 L 826 64 L 829 64 L 830 64 L 830 64 L 830 63 L 831 63 L 831 63 L 831 63 L 832 62 L 833 62 L 834 62 L 834 62 L 834 61 L 834 61 L 835 61 L 835 61 L 839 60 L 839 60 L 839 60 L 840 60 L 841 59 L 842 59 L 847 59 L 848 59 L 848 58 L 849 58 L 849 58 L 850 58 L 852 57 L 852 57 L 852 57 L 852 57 L 852 56 L 852 56 L 856 56 L 857 56 L 858 55 L 860 55 L 861 55 L 861 55 L 861 54 L 861 54 L 862 54 L 862 54 L 862 53 L 864 53 L 864 53 L 866 53 L 866 52 L 866 52 L 866 52 L 870 52 L 870 51 L 871 51 L 872 51 L 873 51 L 876 50 L 878 50 L 882 50 L 883 50 L 885 49 L 886 49 L 886 49 L 887 49 L 887 48 L 890 48 L 890 48 L 891 47 L 891 47 L 891 47 L 891 47 L 891 46 L 893 46 L 893 46 L 893 46 L 893 45 L 894 45 L 895 45 L 895 45 L 895 44 L 896 44 L 896 44 L 897 44 L 897 43 L 897 43 L 898 43 L 898 43 L 902 42 L 902 42 L 903 42 L 905 42 L 906 41 L 908 41 L 915 41 L 916 41 L 916 40 L 918 40 L 918 40 L 919 40 L 919 39 L 919 39 L 921 39 L 922 39 L 922 38 L 924 38 L 925 38 L 926 38 L 926 37 L 927 37 L 927 37 L 928 37 L 928 36 L 929 36 L 931 36 L 931 36 L 932 35 L 937 35" /><path class="series" d="M 58 345 L 60 345 L 70 345 L 70 344 L 70 344 L 70 344 L 70 344 L 70 343 L 70 343 L 70 343 L 71 343 L 71 342 L 71 342 L 71 342 L 71 342 L 71 341 L 71 341 L 71 341 L 71 341 L 72 340 L 72 340 L 72 340 L 73 340 L 73 339 L 73 339 L 73 339 L 74 339 L 74 338 L 75 338 L 75 338 L 76 338 L 77 337 L 80 337 L 80 337 L 80 337 L 80 336 L 80 336 L 82 336 L 83 336 L 83 335 L 85 335 L 88 335 L 89 335 L 93 334 L 94 334 L 97 334 L 99 334 L 101 333 L 111 333 L 111 333 L 112 333 L 112 332 L 112 332 L 112 332 L 112 332 L 112 331 L 112 331 L 112 331 L 112 331 L 112 330 L 112 330 L 112 330 L 112 330 L 113 329 L 113 329 L 113 329 L 113 328 L 113 328 L 113 328 L 113 328 L 113 327 L 113 327 L 113 327 L 113 327 L 113 326 L 113 326 L 113 326 L 113 326 L 113 325 L 113 325 L 113 325 L 113 325 L 113 324 L 113 324 L 113 324 L 113 324 L 113 323 L 113 323 L 113 323 L 113 323 L 113 322 L 113 322 L 113 322 L 113 322 L 113 321 L 113 321 L 113 321 L 113 321 L 113 320 L 113 320 L 113 320 L 114 320 L 114 319 L 114 319 L 114 319 L 114 319 L 114 318 L 114 318 L 114 318 L 114 318 L 114 317 L 114 317 L 114 317 L 114 317 L 114 316 L 114 316 L 114 316 L 114 316 L 114 315 L 114 315 L 115 315 L 115 315 L 115 314 L 115 314 L 115 314 L 115 314 L 118 313 L 118 313 L 118 313 L 119 313 L 119 312 L 120 312 L 122 312 L 122 311 L 124 311 L 124 311 L 125 311 L 125 310 L 126 310 L 127 310 L 127 310 L 128 309 L 129 309 L 129 309 L 130 309 L 130 308 L 130 308 L 130 308 L 131 308 L 131 307 L 131 307 L 132 307 L 132 307 L 132 306 L 133 306 L 134 306 L 135 306 L 136 305 L 137 305 L 137 305 L 138 305 L 138 304 L 138 304 L 139 304 L 143 304 L 143 303 L 144 303 L 148 303 L 148 303 L 148 302 L 148 302 L 148 302 L 149 302 L 150 301 L 151 301 L 151 301 L 155 301 L 156 300 L 157 300 L 159 300 L 160 300 L 160 299 L 160 299 L 164 299 L 167 299 L 172 298 L 172 298 L 172 298 L 172 298 L 172 297 L 179 297 L 182 297 L 182 297 L 184 296 L 184 296 L 185 296 L 191 295 L 191 295 L 191 295 L 192 295 L 192 294 L 195 294 L 196 294 L 197 294 L 198 293 L 202 293 L 202 293 L 203 293 L 203 292 L 203 292 L 203 292 L 205 292 L 208 291 L 216 291 L 219 291 L 221 291 L 221 290 L 223 290 L 223 290 L 223 290 L 223 289 L 223 289 L 223 289 L 223 289 L 223 288 L 223 288 L 223 288 L 223 288 L 223 287 L 223 287 L 223 287 L 223 287 L 225 286 L 225 286 L 225 286 L 225 286 L 226 285 L 226 285 L 226 285 L 226 285 L 226 284 L 226 284 L 226 284 L 227 284 L 227 283 L 227 283 L 228 283 L 228 283 L 228 282 L 228 282 L 228 282 L 228 282 L 229 281 L 229 281 L 229 281 L 229 281 L 230 280 L 231 280 L 231 280 L 232 280 L 234 279 L 234 279 L 234 279 L 234 278 L 234 278 L 234 278 L 234 278 L 235 277 L 236 277 L 237 277 L 237 277 L 237 276 L 239 276 L 240 276 L 240 276 L 241 275 L 242 275 L 242 275 L 242 275 L 242 274 L 245 274 L 246 274 L 246 274 L 248 273 L 250 273 L 252 273 L 252 273 L 253 272 L 253 272 L 254 272 L 254 272 L 255 271 L 257 271 L 258 271 L 258 271 L 260 270 L 260 270 L 260 270 L 260 270 L 260 269 L 260 269 L 260 269 L 261 269 L 261 268 L 261 268 L 262 268 L 264 268 L 268 267 L 268 267 L 268 267 L 270 267 L 271 266 L 272 266 L 272 266 L 273 266 L 274 265 L 274 265 L 274 265 L 274 265 L 274 264 L 274 264 L 274 264 L 274 264 L 275 263 L 276 263 L 276 263 L 276 262 L 276 262 L 277 262 L 277 262 L 277 261 L 277 261 L 277 261 L 277 261 L 277 260 L 277 260 L 280 260 L 281 260 L 281 259 L 282 259 L 289 259 L 289 259 L 291 258 L 293 258 L 299 258 L 300 258 L 300 257 L 300 257 L 300 257 L 300 257 L 300 256 L 300 256 L 301 256 L 302 256 L 307 255 L 309 255 L 311 255 L 315 255 L 317 254 L 320 254 L 321 254 L 324 254 L 324 253 L 330 253 L 336 253 L 336 253 L 341 252 L 341 252 L 344 252 L 345 252 L 347 251 L 347 251 L 347 251 L 347 251 L 349 250 L 350 250 L 351 250 L 354 250 L 354 249 L 355 249 L 355 249 L 358 249 L 360 248 L 360 248 L 363 248 L 365 248 L 366 247 L 366 247 L 367 247 L 367 247 L 368 246 L 370 246 L 372 246 L 373 245 L 375 245 L 375 245 L 378 245 L 379 244 L 381 244 L 383 244 L 384 244 L 387 243 L 387 243 L 387 243 L 388 243 L 389 242 L 390 242 L 390 242 L 392 242 L 393 241 L 394 241 L 394 241 L 394 241 L 399 240 L 399 240 L 400 240 L 400 240 L 400 239 L 401 239 L 401 239 L 401 239 L 401 238 L 403 238 L 403 238 L 404 238 L 404 237 L 405 237 L 405 237 L 405 237 L 405 236 L 406 236 L 406 236 L 406 236 L 407 235 L 407 235 L 407 235 L 407 235 L 408 234 L 408 234 L 409 234 L 409 234 L 409 233 L 410 233 L 410 233 L 411 233 L 411 232 L 412 232 L 413 232 L 413 232 L 414 231 L 414 231 L 415 231 L 415 231 L 416 230 L 416 230 L 416 230 L 416 229 L 416 229 L 417 229 L 417 229 L 417 228 L 420 228 L 420 228 L 421 228 L 421 227 L 423 227 L 424 227 L 424 227 L 425 226 L 427 226 L 429 226 L 430 226 L 431 225 L 431 225 L 431 225 L 431 225 L 432 224 L 432 224 L 432 224 L 433 224 L 433 223 L 433 223 L 433 223 L 434 223 L 434 222 L 434 222 L 435 222 L 435 222 L 437 221 L 437 221 L 437 221 L 438 221 L 438 220 L 440 220 L 444 220 L 444 220 L 444 219 L 445 219 L 446 219 L 447 219 L 448 218 L 448 218 L 448 218 L 448 218 L 449 217 L 451 217 L 452 217 L 452 217 L 452 216 L 453 216 L 453 216 L 453 216 L 454 215 L 455 215 L 458 215 L 458 215 L 460 214 L 461 214 L 461 214 L 463 214 L 464 213 L 466 213 L 467 213 L 468 212 L 469 212 L 469 212 L 469 212 L 470 211 L 470 211 L 470 211 L 470 211 L 470 210 L 471 210 L 471 210 L 471 210 L 471 209 L 472 209 L 473 209 L 473 209 L 476 208 L 476 208 L 480 208 L 481 208 L 481 207 L 482 207 L 482 207 L 484 207 L 485 206 L 485 206 L 485 206 L 485 206 L 485 205 L 486 205 L 486 205 L 486 205 L 486 204 L 486 204 L 486 204 L 486 204 L 487 203 L 487 203 L 488 203 L 488 203 L 489 202 L 489 202 L 490 202 L 490 202 L 490 201 L 490 201 L 491 201 L 493 201 L 493 200 L 493 200 L 493 200 L 493 200 L 494 199 L 494 199 L 494 199 L 495 199 L 496 198 L 498 198 L 500 198 L 501 198 L 502 197 L 504 197 L 506 197 L 507 196 L 508 196 L 511 196 L 511 196 L 511 195 L 515 195 L 515 195 L 516 195 L 516 194 L 516 194 L 522 194 L 522 194 L 523 193 L 523 193 L 524 193 L 524 193 L 525 192 L 525 192 L 525 192 L 526 192 L 526 191 L 526 191 L 526 191 L 526 191 L 527 190 L 527 190 L 527 190 L 527 190 L 527 189 L 528 189 L 529 189 L 530 189 L 530 188 L 530 188 L 530 188 L 531 188 L 532 187 L 532 187 L 532 187 L 532 187 L 533 186 L 533 186 L 534 186 L 534 186 L 535 185 L 535 185 L 536 185 L 536 185 L 536 184 L 537 184 L 537 184 L 537 184 L 537 183 L 537 183 L 538 183 L 538 183 L 538 182 L 539 182 L 540 182 L 540 182 L 540 181 L 540 181 L 540 181 L 541 181 L 541 180 L 541 180 L 542 180 L 542 179 L 542 179 L 542 179 L 542 179 L 542 178 L 542 178 L 543 178 L 543 178 L 543 177 L 543 177 L 543 177 L 543 177 L 543 176 L 545 176 L 546 176 L 547 176 L 547 175 L 547 175 L 547 175 L 548 175 L 549 174 L 549 174 L 550 174 L 552 174 L 553 173 L 553 173 L 554 173 L 555 173 L 555 172 L 556 172 L 556 172 L 556 172 L 556 171 L 556 171 L 556 171 L 556 171 L 556 170 L 556 170 L 557 170 L 557 170 L 557 169 L 557 169 L 557 169 L 557 169 L 558 168 L 558 168 L 559 168 L 560 168 L 560 167 L 560 167 L 560 167 L 561 167 L 561 166 L 562 166 L 564 166 L 564 166 L 564 165 L 564 165 L 564 165 L 566 165 L 567 164 L 568 164 L 569 164 L 569 163 L 569 163 L 569 163 L 570 163 L 573 162 L 575 162 L 577 162 L 578 162 L 578 161 L 579 161 L 580 161 L 580 161 L 580 160 L 580 160 L 581 160 L 581 160 L 582 159 L 582 159 L 583 159 L 584 159 L 584 158 L 584 158 L 584 158 L 584 158 L 584 157 L 584 157 L 584 157 L 584 157 L 584 156 L 584 156 L 584 156 L 584 156 L 584 155 L 584 155 L 584 155 L 584 155 L 585 154 L 585 154 L 585 154 L 585 154 L 585 153 L 585 153 L 585 153 L 586 153 L 586 152 L 586 152 L 587 152 L 587 152 L 587 151 L 587 151 L 587 151 L 587 151 L 588 150 L 588 150 L 590 150 L 590 150 L 590 149 L 591 149 L 591 149 L 592 149 L 592 148 L 594 148 L 594 148 L 595 148 L 595 147 L 595 147 L 595 147 L 595 146 L 595 146 L 595 146 L 597 146 L 597 145 L 597 145 L 600 145 L 601 145 L 602 144 L 604 144 L 604 144 L 605 144 L 605 143 L 605 143 L 605 143 L 606 143 L 606 142 L 606 142 L 607 142 L 607 142 L 607 141 L 607 141 L 608 141 L 608 141 L 608 140 L 608 140 L 608 140 L 608 140 L 608 139 L 608 139 L 609 139 L 610 139 L 610 138 L 610 138 L 610 138 L 611 138 L 611 137 L 611 137 L 612 137 L 612 137 L 612 136 L 613 136 L 613 136 L 614 136 L 616 135 L 618 135 L 620 135 L 620 135 L 621 134 L 623 134 L 623 134 L 624 134 L 626 133 L 630 133 L 630 133 L 631 133 L 633 132 L 634 132 L 635 132 L 635 132 L 636 131 L 637 131 L 637 131 L 638 130 L 639 130 L 640 130 L 640 130 L 640 129 L 641 129 L 641 129 L 641 129 L 642 128 L 644 128 L 645 128 L 645 128 L 646 127 L 646 127 L 647 127 L 648 127 L 649 126 L 649 126 L 649 126 L 649 126 L 649 125 L 650 125 L 650 125 L 651 125 L 652 124 L 652 124 L 652 124 L 653 124 L 653 123 L 654 123 L 654 123 L 654 123 L 655 122 L 655 122 L 655 122 L 655 122 L 655 121 L 655 121 L 657 121 L 658 121 L 659 120 L 661 120 L 661 120 L 662 120 L 663 119 L 665 119 L 666 119 L 668 119 L 669 118 L 670 118 L 670 118 L 671 118 L 673 117 L 674 117 L 674 117 L 675 117 L 675 116 L 675 116 L 675 116 L 676 116 L 676 115 L 677 115 L 678 115 L 678 115 L 678 114 L 683 114 L 683 114 L 684 113 L 685 113 L 687 113 L 687 113 L 688 112 L 688 112 L 688 112 L 688 112 L 689 111 L 690 111 L 690 111 L 690 111 L 691 110 L 691 110 L 691 110 L 691 110 L 693 109 L 695 109 L 695 109 L 699 109 L 700 108 L 700 108 L 701 108 L 701 108 L 701 107 L 701 107 L 702 107 L 704 107 L 705 106 L 706 106 L 706 106 L 707 106 L 707 105 L 708 105 L 709 105 L 711 105 L 711 104 L 711 104 L 711 104 L 712 104 L 712 103 L 712 103 L 713 103 L 713 103 L 713 102 L 714 102 L 715 102 L 716 102 L 716 101 L 716 101 L 716 101 L 716 101 L 717 100 L 719 100 L 722 100 L 723 100 L 725 99 L 726 99 L 728 99 L 728 99 L 729 98 L 729 98 L 730 98 L 731 97 L 732 97 L 733 97 L 734 97 L 737 96 L 741 96 L 741 96 L 741 96 L 741 95 L 741 95 L 742 95 L 743 95 L 743 94 L 749 94 L 752 94 L 752 94 L 753 93 L 754 93 L 756 93 L 758 93 L 758 92 L 758 92 L 759 92 L 760 92 L 764 91 L 765 91 L 766 91 L 767 91 L 769 90 L 769 90 L 769 90 L 769 90 L 770 89 L 770 89 L 770 89 L 772 89 L 774 88 L 774 88 L 774 88 L 775 88 L 777 87 L 780 87 L 781 87 L 781 87 L 783 86 L 783 86 L 783 86 L 783 86 L 783 85 L 784 85 L 784 85 L 785 85 L 786 84 L 786 84 L 787 84 L 787 84 L 787 83 L 787 83 L 787 83 L 787 83 L 787 82 L 788 82 L 788 82 L 788 82 L 789 81 L 789 81 L 789 81 L 789 80 L 789 80 L 790 80 L 790 80 L 791 79 L 795 79 L 796 79 L 797 79 L 797 78 L 797 78 L 797 78 L 797 78 L 797 77 L 798 77 L 798 77 L 798 77 L 798 76 L 798 76 L 798 76 L 798 76 L 798 75 L 798 75 L 798 75 L 798 75 L 798 74 L 798 74 L 799 74 L 799 74 L 799 73 L 800 73 L 800 73 L 801 73 L 802 72 L 803 72 L 803 72 L 804 72 L 804 71 L 805 71 L 805 71 L 805 71 L 807 70 L 808 70 L 809 70 L 809 70 L 810 69 L 810 69 L 810 69 L 812 69 L 812 68 L 813 68 L 814 68 L 815 68 L 815 67 L 815 67 L 816 67 L 817 67 L 817 66 L 818 66 L 819 66 L 819 66 L 821 65 L 825 65 L 825 65 L 826 64 L 829 64 L 830 64 L 830 64 L 830 63 L 831 63 L 831 63 L 831 63 L 832 62 L 833 62 L 834 62 L 834 62 L 834 61 L 834 61 L 835 61 L 835 61 L 839 60 L 839 60 L 839 60 L 840 60 L 841 59 L 842 59 L 847 59 L 848 59 L 848 58 L 849 58 L 849 58 L 850 58 L 852 57 L 852 57 L 852 57 L 852 57 L 852 56 L 852 56 L 856 56 L 857 56 L 858 55 L 860 55 L 861 55 L 861 55 L 861 54 L 861 54 L 862 54 L 862 54 L 862 53 L 864 53 L 864 53 L 866 53 L 866 52 L 866 52 L 866 52 L 870 52 L 870 51 L 871 51 L 872 51 L 873 51 L 876 50 L 878 50 L 882 50 L 883 50 L 885 49 L 886 49 L 886 49 L 887 49 L 887 48 L 890 48 L 890 48 L 891 47 L 891 47 L 891 47 L 891 47 L 891 46 L 893 46 L 893 46 L 893 46 L 893 45 L 894 45 L 895 45 L 895 45 L 895 44 L 896 44 L 896 44 L 897 44 L 897 43 L 897 43 L 898 43 L 898 43 L 902 42 L 902 42 L 903 42 L 905 42 L 906 41 L 908 41 L 915 41 L 916 41 L 916 40 L 918 40 L 918 40 L 919 40 L 919 39 L 919 39 L 921 39 L 922 39 L 922 38 L 924 38 L 925 38 L 926 38 L 926 37 L 927 37 L 927 37 L 928 37 L 928 36 L 929 36 L 931 36 L 931 36 L 932 35 L 937 35" stroke-width="2"></path><path stroke-width="2" d="M 937 346 L 937.000000 15.000000" /><path stroke-width="2" d="M 937 346 L 937.000000 15.000000"></path><path stroke-width="2" d="M 937 346 L 942 346" /><path stroke-width="2" d="M 937 346 L 942 346"></path><text xmlns="http://www.w3.org/2000/svg" x="947" y="352">0</text><path stroke-width="2" d="M 937 307 L 942 307" /><path stroke-width="2" d="M 937 307 L 942 307"></path><text xmlns="http://www.w3.org/2000/svg" x="947" y="313">150</text><path stroke-width="2" d="M 937 272 L 942 272" /><path stroke-width="2" d="M 937 272 L 942 272"></path><text xmlns="http://www.w3.org/2000/svg" x="947" y="278">290</text><path stroke-width="2" d="M 937 234 L 942 234" /><path stroke-width="2" d="M 937 234 L 942 234"></path><text xmlns="http://www.w3.org/2000/svg" x="947" y="240">440</text><path stroke-width="2" d="M 937 198 L 942 198" /><path stroke-width="2" d="M 937 198 L 942 198"></path><text xmlns="http://www.w3.org/2000/svg" x="947" y="204">580</text><path d="M 937 160 L 942 160" stroke-width="2" /><path d="M 937 160 L 942 160" stroke-width="2"></path><text xmlns="http://www.w3.org/2000/svg" x="947" y="166">730</text><path stroke-width="2" d="M 937 125 L 942 125" /><path d="M 937 125 L 942 125" stroke-width="2"></path><text xmlns="http://www.w3.org/2000/svg" x="947" y="131">870</text><path stroke-width="2" d="M 937 87 L 942 87" /><path stroke-width="2" d="M 937 87 L 942 87"></path><text x="947" y="93" xmlns="http://www.w3.org/2000/svg">1020</text><path stroke-width="2" d="M 937 51 L 942 51" /><path stroke-width="2" d="M 937 51 L 942 51"></path><text xmlns="http://www.w3.org/2000/svg" x="947" y="57">1160</text><path stroke-width="2" d="M 937 16 L 942 16" /><path stroke-width="2" d="M 937 16 L 942 16"></path><text x="947" y="22" xmlns="http://www.w3.org/2000/svg">1300</text><text y="175" transform="rotate(90.00,987,175)" xmlns="http://www.w3.org/2000/svg" x="987">Stargazers</text><path stroke-width="2" d="M 57.000000 346.000000 L 937 346" /><path d="M 57.000000 346.000000 L 937 346" stroke-width="2"></path><path stroke-width="2" d="M 58 346 L 58 351" /><path stroke-width="2" d="M 58 346 L 58 351"></path><text xmlns="http://www.w3.org/2000/svg" x="25" y="368">2023-04-02</text><path stroke-width="2" d="M 156 346 L 156 351" /><path stroke-width="2" d="M 156 346 L 156 351"></path><text xmlns="http://www.w3.org/2000/svg" x="123" y="368">2023-07-28</text><path stroke-width="2" d="M 254 346 L 254 351" /><path stroke-width="2" d="M 254 346 L 254 351"></path><text xmlns="http://www.w3.org/2000/svg" x="221" y="368">2023-11-21</text><path stroke-width="2" d="M 352 346 L 352 351" /><path stroke-width="2" d="M 352 346 L 352 351"></path><text xmlns="http://www.w3.org/2000/svg" x="319" y="368">2024-03-17</text><path stroke-width="2" d="M 449 346 L 449 351" /><path stroke-width="2" d="M 449 346 L 449 351"></path><text xmlns="http://www.w3.org/2000/svg" x="416" y="368">2024-07-11</text><path stroke-width="2" d="M 547 346 L 547 351" /><path stroke-width="2" d="M 547 346 L 547 351"></path><text y="368" xmlns="http://www.w3.org/2000/svg" x="514">2024-11-05</text><path stroke-width="2" d="M 645 346 L 645 351" /><path stroke-width="2" d="M 645 346 L 645 351"></path><text xmlns="http://www.w3.org/2000/svg" x="612" y="368">2025-03-02</text><path stroke-width="2" d="M 742 346 L 742 351" /><path stroke-width="2" d="M 742 346 L 742 351"></path><text xmlns="http://www.w3.org/2000/svg" x="709" y="368">2025-06-26</text><path stroke-width="2" d="M 840 346 L 840 351" /><path d="M 840 346 L 840 351" stroke-width="2"></path><text x="807" y="368" xmlns="http://www.w3.org/2000/svg">2025-10-21</text><path stroke-width="2" d="M 937 346 L 937 351" /><path stroke-width="2" d="M 937 346 L 937 351"></path><text y="368" xmlns="http://www.w3.org/2000/svg" x="904">2026-02-15</text><text xmlns="http://www.w3.org/2000/svg" x="483" y="390">Time</text></svg>