<svg xmlns="http://www.w3.org/2000/svg" xmlns:xlink="http://www.w3.org/1999/xlink" width="1024px" height="400px"><style type="text/css">
path { fill: none; stroke: rgb(51,51,51); }
path.series { stroke: #6b63ff; }
rect.background { fill: rgb(255,255,255); stroke: none; }

text {
	stroke-width: 0;
	stroke: none;
	fill: rgba(51,51,51,1.0);
	font-size: 12.8px;
	font-family: 'Roboto Medium', sans-serif;
}
</style><rect x="0" y="0" width="1024px" height="400px" class="background" rx="8" /><rect x="0" y="0" width="1024px" height="400px" class="background" rx="8"></rect><path stroke-width="2" class="series" d="M 58 345 L 61 345 L 75 344 L 76 344 L 76 344 L 76 343 L 76 343 L 76 343 L 76 342 L 76 342 L 76 342 L 76 341 L 76 341 L 76 340 L 76 340 L 77 340 L 77 339 L 77 339 L 77 339 L 78 338 L 78 338 L 78 338 L 79 337 L 80 337 L 80 337 L 80 336 L 81 336 L 81 335 L 83 335 L 83 335 L 84 334 L 85 334 L 90 334 L 90 333 L 90 333 L 90 333 L 90 332 L 93 332 L 94 332 L 95 331 L 97 331 L 101 330 L 102 330 L 109 330 L 111 329 L 114 329 L 118 329 L 120 328 L 133 328 L 134 328 L 134 327 L 136 327 L 137 326 L 137 326 L 137 326 L 137 325 L 137 325 L 137 325 L 137 324 L 137 324 L 137 324 L 137 323 L 137 323 L 137 323 L 137 322 L 137 322 L 137 321 L 137 321 L 137 321 L 137 320 L 137 320 L 137 320 L 137 319 L 137 319 L 137 319 L 137 318 L 137 318 L 137 318 L 137 317 L 137 317 L 137 316 L 137 316 L 137 316 L 137 315 L 138 315 L 138 315 L 138 314 L 138 314 L 138 314 L 138 313 L 138 313 L 138 313 L 138 312 L 138 312 L 138 311 L 138 311 L 138 311 L 138 310 L 138 310 L 138 310 L 138 309 L 138 309 L 139 309 L 139 308 L 139 308 L 140 307 L 140 307 L 140 307 L 140 306 L 140 306 L 140 306 L 140 305 L 140 305 L 140 305 L 140 304 L 140 304 L 140 304 L 140 303 L 140 303 L 140 302 L 140 302 L 140 302 L 140 301 L 141 301 L 141 301 L 141 300 L 141 300 L 145 300 L 145 299 L 145 299 L 146 299 L 146 298 L 148 298 L 151 297 L 151 297 L 153 297 L 154 296 L 156 296 L 156 296 L 156 295 L 158 295 L 159 295 L 159 294 L 160 294 L 161 293 L 162 293 L 162 293 L 162 292 L 162 292 L 164 292 L 165 291 L 165 291 L 165 291 L 166 290 L 166 290 L 167 290 L 168 289 L 169 289 L 171 288 L 172 288 L 173 288 L 174 287 L 174 287 L 174 287 L 176 286 L 181 286 L 182 286 L 183 285 L 188 285 L 188 285 L 188 284 L 189 284 L 189 283 L 190 283 L 191 283 L 192 282 L 193 282 L 199 282 L 201 281 L 202 281 L 205 281 L 206 280 L 206 280 L 207 280 L 212 279 L 217 279 L 223 278 L 224 278 L 224 278 L 224 277 L 224 277 L 226 277 L 234 276 L 238 276 L 238 276 L 241 275 L 242 275 L 242 274 L 251 274 L 251 274 L 252 273 L 252 273 L 253 273 L 256 272 L 257 272 L 259 272 L 260 271 L 262 271 L 267 271 L 267 270 L 268 270 L 268 269 L 268 269 L 269 269 L 271 268 L 277 268 L 288 268 L 292 267 L 294 267 L 295 267 L 296 266 L 297 266 L 297 266 L 297 265 L 297 265 L 297 264 L 297 264 L 297 264 L 297 263 L 298 263 L 298 263 L 298 262 L 298 262 L 298 262 L 298 261 L 299 261 L 300 260 L 301 260 L 301 260 L 301 259 L 301 259 L 302 259 L 302 258 L 302 258 L 302 258 L 302 257 L 302 257 L 302 257 L 303 256 L 304 256 L 304 255 L 305 255 L 305 255 L 305 254 L 305 254 L 306 254 L 306 253 L 306 253 L 306 253 L 307 252 L 307 252 L 307 252 L 308 251 L 309 251 L 310 250 L 311 250 L 313 250 L 313 249 L 314 249 L 314 249 L 314 248 L 314 248 L 314 248 L 316 247 L 316 247 L 318 247 L 318 246 L 319 246 L 321 245 L 322 245 L 322 245 L 324 244 L 325 244 L 325 244 L 326 243 L 326 243 L 330 243 L 331 242 L 332 242 L 335 241 L 336 241 L 340 241 L 341 240 L 341 240 L 342 240 L 342 239 L 342 239 L 345 239 L 347 238 L 349 238 L 349 238 L 350 237 L 351 237 L 351 236 L 351 236 L 351 236 L 352 235 L 352 235 L 352 235 L 353 234 L 353 234 L 353 234 L 354 233 L 358 233 L 363 233 L 363 232 L 363 232 L 366 231 L 368 231 L 369 231 L 369 230 L 370 230 L 371 230 L 371 229 L 371 229 L 371 229 L 372 228 L 372 228 L 372 227 L 372 227 L 372 227 L 373 226 L 375 226 L 375 226 L 375 225 L 376 225 L 376 225 L 376 224 L 376 224 L 376 224 L 376 223 L 376 223 L 376 222 L 376 222 L 376 222 L 380 221 L 383 221 L 383 221 L 384 220 L 393 220 L 394 220 L 397 219 L 400 219 L 406 219 L 408 218 L 410 218 L 410 217 L 410 217 L 410 217 L 411 216 L 411 216 L 411 216 L 412 215 L 413 215 L 420 215 L 422 214 L 425 214 L 431 214 L 435 213 L 439 213 L 441 212 L 445 212 L 445 212 L 454 211 L 463 211 L 463 211 L 469 210 L 469 210 L 474 210 L 475 209 L 478 209 L 478 208 L 478 208 L 479 208 L 481 207 L 482 207 L 485 207 L 489 206 L 489 206 L 490 206 L 491 205 L 494 205 L 497 205 L 497 204 L 501 204 L 505 203 L 505 203 L 506 203 L 507 202 L 508 202 L 509 202 L 512 201 L 514 201 L 517 201 L 519 200 L 519 200 L 524 200 L 525 199 L 527 199 L 531 198 L 532 198 L 536 198 L 537 197 L 537 197 L 538 197 L 539 196 L 541 196 L 541 196 L 543 195 L 546 195 L 547 194 L 547 194 L 547 194 L 555 193 L 555 193 L 555 193 L 555 192 L 556 192 L 557 192 L 557 191 L 557 191 L 558 191 L 559 190 L 559 190 L 561 189 L 561 189 L 562 189 L 563 188 L 563 188 L 563 188 L 564 187 L 564 187 L 564 187 L 565 186 L 565 186 L 565 186 L 566 185 L 567 185 L 568 184 L 568 184 L 568 184 L 569 183 L 569 183 L 571 183 L 572 182 L 572 182 L 573 182 L 574 181 L 575 181 L 575 181 L 576 180 L 576 180 L 578 179 L 578 179 L 578 179 L 579 178 L 579 178 L 579 178 L 579 177 L 580 177 L 580 177 L 581 176 L 584 176 L 585 175 L 586 175 L 586 175 L 589 174 L 590 174 L 591 174 L 593 173 L 595 173 L 597 173 L 600 172 L 600 172 L 601 172 L 601 171 L 601 171 L 602 170 L 602 170 L 602 170 L 603 169 L 603 169 L 603 169 L 603 168 L 605 168 L 606 168 L 606 167 L 607 167 L 607 167 L 609 166 L 610 166 L 610 165 L 611 165 L 612 165 L 614 164 L 616 164 L 620 164 L 620 163 L 620 163 L 620 163 L 622 162 L 625 162 L 625 161 L 625 161 L 625 161 L 626 160 L 627 160 L 630 160 L 631 159 L 631 159 L 631 159 L 633 158 L 633 158 L 633 158 L 634 157 L 636 157 L 640 156 L 640 156 L 644 156 L 644 155 L 645 155 L 648 155 L 649 154 L 652 154 L 653 154 L 655 153 L 656 153 L 656 153 L 656 152 L 657 152 L 657 151 L 657 151 L 658 151 L 658 150 L 658 150 L 659 150 L 659 149 L 659 149 L 660 149 L 661 148 L 662 148 L 666 148 L 667 147 L 672 147 L 674 146 L 674 146 L 675 146 L 675 145 L 678 145 L 678 145 L 679 144 L 679 144 L 680 144 L 680 143 L 680 143 L 680 142 L 680 142 L 681 142 L 681 141 L 681 141 L 681 141 L 681 140 L 682 140 L 682 140 L 684 139 L 684 139 L 684 139 L 685 138 L 686 138 L 686 137 L 686 137 L 687 137 L 688 136 L 691 136 L 691 136 L 691 135 L 691 135 L 691 135 L 692 134 L 692 134 L 692 134 L 694 133 L 695 133 L 698 132 L 701 132 L 702 132 L 703 131 L 707 131 L 710 131 L 711 130 L 713 130 L 717 130 L 717 129 L 717 129 L 722 128 L 724 128 L 724 128 L 725 127 L 725 127 L 733 127 L 734 126 L 735 126 L 735 126 L 735 125 L 736 125 L 737 125 L 737 124 L 737 124 L 738 123 L 738 123 L 739 123 L 739 122 L 740 122 L 740 122 L 740 121 L 740 121 L 740 121 L 740 120 L 742 120 L 743 120 L 744 119 L 744 119 L 745 118 L 745 118 L 746 118 L 747 117 L 747 117 L 748 117 L 748 116 L 748 116 L 749 116 L 750 115 L 751 115 L 752 115 L 752 114 L 753 114 L 754 113 L 754 113 L 754 113 L 754 112 L 754 112 L 755 112 L 756 111 L 756 111 L 757 111 L 757 110 L 758 110 L 759 109 L 759 109 L 759 109 L 759 108 L 759 108 L 760 108 L 760 107 L 760 107 L 762 107 L 762 106 L 762 106 L 762 106 L 763 105 L 763 105 L 763 104 L 763 104 L 763 104 L 764 103 L 764 103 L 764 103 L 764 102 L 764 102 L 767 102 L 768 101 L 770 101 L 770 101 L 770 100 L 770 100 L 771 99 L 772 99 L 773 99 L 774 98 L 776 98 L 779 98 L 779 97 L 780 97 L 781 97 L 781 96 L 782 96 L 782 95 L 782 95 L 783 95 L 783 94 L 783 94 L 783 94 L 783 93 L 783 93 L 783 93 L 783 92 L 784 92 L 784 92 L 784 91 L 784 91 L 784 90 L 785 90 L 785 90 L 785 89 L 786 89 L 788 89 L 788 88 L 789 88 L 789 88 L 790 87 L 790 87 L 791 87 L 793 86 L 794 86 L 794 85 L 794 85 L 794 85 L 795 84 L 797 84 L 799 84 L 800 83 L 801 83 L 802 83 L 802 82 L 802 82 L 803 82 L 808 81 L 810 81 L 813 80 L 814 80 L 815 80 L 816 79 L 817 79 L 817 79 L 818 78 L 818 78 L 818 78 L 819 77 L 820 77 L 820 76 L 821 76 L 823 76 L 823 75 L 823 75 L 823 75 L 823 74 L 823 74 L 823 74 L 823 73 L 823 73 L 823 73 L 824 72 L 824 72 L 824 71 L 824 71 L 824 71 L 824 70 L 824 70 L 825 70 L 825 69 L 825 69 L 825 69 L 825 68 L 825 68 L 825 68 L 826 67 L 826 67 L 826 66 L 827 66 L 827 66 L 827 65 L 827 65 L 827 65 L 827 64 L 828 64 L 830 64 L 832 63 L 832 63 L 832 62 L 834 62 L 834 62 L 834 61 L 835 61 L 837 61 L 838 60 L 839 60 L 839 60 L 839 59 L 839 59 L 839 59 L 839 58 L 840 58 L 842 57 L 842 57 L 842 57 L 846 56 L 848 56 L 849 56 L 852 55 L 853 55 L 854 55 L 854 54 L 854 54 L 854 54 L 855 53 L 855 53 L 855 52 L 856 52 L 857 52 L 857 51 L 857 51 L 858 51 L 858 50 L 858 50 L 858 50 L 858 49 L 858 49 L 859 49 L 859 48 L 859 48 L 861 47 L 861 47 L 861 47 L 862 46 L 862 46 L 862 46 L 863 45 L 864 45 L 864 45 L 864 44 L 865 44 L 865 43 L 866 43 L 870 43 L 871 42 L 872 42 L 875 42 L 876 41 L 877 41 L 880 41 L 881 40 L 882 40 L 885 40 L 890 39 L 891 39 L 892 38 L 894 38 L 897 38 L 897 37 L 897 37 L 899 37 L 900 36 L 901 36 L 901 36 L 903 35 L 904 35 L 905 35 L 905 34 L 906 34 L 906 33 L 907 33 L 907 33 L 911 32 L 911 32 L 912 32 L 914 31 L 914 31 L 915 31 L 916 30 L 917 30 L 917 29 L 918 29 L 918 29 L 919 28 L 920 28 L 920 28 L 921 27 L 922 27 L 922 27 L 923 26 L 923 26 L 924 26 L 924 25 L 925 25 L 925 24 L 926 24 L 926 24 L 926 23 L 926 23 L 926 23 L 927 22 L 928 22 L 930 22 L 931 21 L 931 21 L 932 21 L 935 20 L 936 20 L 937 19 L 938 19 L 941 19 L 943 18 L 945 18" /><path stroke-width="2" class="series" d="M 58 345 L 61 345 L 75 344 L 76 344 L 76 344 L 76 343 L 76 343 L 76 343 L 76 342 L 76 342 L 76 342 L 76 341 L 76 341 L 76 340 L 76 340 L 77 340 L 77 339 L 77 339 L 77 339 L 78 338 L 78 338 L 78 338 L 79 337 L 80 337 L 80 337 L 80 336 L 81 336 L 81 335 L 83 335 L 83 335 L 84 334 L 85 334 L 90 334 L 90 333 L 90 333 L 90 333 L 90 332 L 93 332 L 94 332 L 95 331 L 97 331 L 101 330 L 102 330 L 109 330 L 111 329 L 114 329 L 118 329 L 120 328 L 133 328 L 134 328 L 134 327 L 136 327 L 137 326 L 137 326 L 137 326 L 137 325 L 137 325 L 137 325 L 137 324 L 137 324 L 137 324 L 137 323 L 137 323 L 137 323 L 137 322 L 137 322 L 137 321 L 137 321 L 137 321 L 137 320 L 137 320 L 137 320 L 137 319 L 137 319 L 137 319 L 137 318 L 137 318 L 137 318 L 137 317 L 137 317 L 137 316 L 137 316 L 137 316 L 137 315 L 138 315 L 138 315 L 138 314 L 138 314 L 138 314 L 138 313 L 138 313 L 138 313 L 138 312 L 138 312 L 138 311 L 138 311 L 138 311 L 138 310 L 138 310 L 138 310 L 138 309 L 138 309 L 139 309 L 139 308 L 139 308 L 140 307 L 140 307 L 140 307 L 140 306 L 140 306 L 140 306 L 140 305 L 140 305 L 140 305 L 140 304 L 140 304 L 140 304 L 140 303 L 140 303 L 140 302 L 140 302 L 140 302 L 140 301 L 141 301 L 141 301 L 141 300 L 141 300 L 145 300 L 145 299 L 145 299 L 146 299 L 146 298 L 148 298 L 151 297 L 151 297 L 153 297 L 154 296 L 156 296 L 156 296 L 156 295 L 158 295 L 159 295 L 159 294 L 160 294 L 161 293 L 162 293 L 162 293 L 162 292 L 162 292 L 164 292 L 165 291 L 165 291 L 165 291 L 166 290 L 166 290 L 167 290 L 168 289 L 169 289 L 171 288 L 172 288 L 173 288 L 174 287 L 174 287 L 174 287 L 176 286 L 181 286 L 182 286 L 183 285 L 188 285 L 188 285 L 188 284 L 189 284 L 189 283 L 190 283 L 191 283 L 192 282 L 193 282 L 199 282 L 201 281 L 202 281 L 205 281 L 206 280 L 206 280 L 207 280 L 212 279 L 217 279 L 223 278 L 224 278 L 224 278 L 224 277 L 224 277 L 226 277 L 234 276 L 238 276 L 238 276 L 241 275 L 242 275 L 242 274 L 251 274 L 251 274 L 252 273 L 252 273 L 253 273 L 256 272 L 257 272 L 259 272 L 260 271 L 262 271 L 267 271 L 267 270 L 268 270 L 268 269 L 268 269 L 269 269 L 271 268 L 277 268 L 288 268 L 292 267 L 294 267 L 295 267 L 296 266 L 297 266 L 297 266 L 297 265 L 297 265 L 297 264 L 297 264 L 297 264 L 297 263 L 298 263 L 298 263 L 298 262 L 298 262 L 298 262 L 298 261 L 299 261 L 300 260 L 301 260 L 301 260 L 301 259 L 301 259 L 302 259 L 302 258 L 302 258 L 302 258 L 302 257 L 302 257 L 302 257 L 303 256 L 304 256 L 304 255 L 305 255 L 305 255 L 305 254 L 305 254 L 306 254 L 306 253 L 306 253 L 306 253 L 307 252 L 307 252 L 307 252 L 308 251 L 309 251 L 310 250 L 311 250 L 313 250 L 313 249 L 314 249 L 314 249 L 314 248 L 314 248 L 314 248 L 316 247 L 316 247 L 318 247 L 318 246 L 319 246 L 321 245 L 322 245 L 322 245 L 324 244 L 325 244 L 325 244 L 326 243 L 326 243 L 330 243 L 331 242 L 332 242 L 335 241 L 336 241 L 340 241 L 341 240 L 341 240 L 342 240 L 342 239 L 342 239 L 345 239 L 347 238 L 349 238 L 349 238 L 350 237 L 351 237 L 351 236 L 351 236 L 351 236 L 352 235 L 352 235 L 352 235 L 353 234 L 353 234 L 353 234 L 354 233 L 358 233 L 363 233 L 363 232 L 363 232 L 366 231 L 368 231 L 369 231 L 369 230 L 370 230 L 371 230 L 371 229 L 371 229 L 371 229 L 372 228 L 372 228 L 372 227 L 372 227 L 372 227 L 373 226 L 375 226 L 375 226 L 375 225 L 376 225 L 376 225 L 376 224 L 376 224 L 376 224 L 376 223 L 376 223 L 376 222 L 376 222 L 376 222 L 380 221 L 383 221 L 383 221 L 384 220 L 393 220 L 394 220 L 397 219 L 400 219 L 406 219 L 408 218 L 410 218 L 410 217 L 410 217 L 410 217 L 411 216 L 411 216 L 411 216 L 412 215 L 413 215 L 420 215 L 422 214 L 425 214 L 431 214 L 435 213 L 439 213 L 441 212 L 445 212 L 445 212 L 454 211 L 463 211 L 463 211 L 469 210 L 469 210 L 474 210 L 475 209 L 478 209 L 478 208 L 478 208 L 479 208 L 481 207 L 482 207 L 485 207 L 489 206 L 489 206 L 490 206 L 491 205 L 494 205 L 497 205 L 497 204 L 501 204 L 505 203 L 505 203 L 506 203 L 507 202 L 508 202 L 509 202 L 512 201 L 514 201 L 517 201 L 519 200 L 519 200 L 524 200 L 525 199 L 527 199 L 531 198 L 532 198 L 536 198 L 537 197 L 537 197 L 538 197 L 539 196 L 541 196 L 541 196 L 543 195 L 546 195 L 547 194 L 547 194 L 547 194 L 555 193 L 555 193 L 555 193 L 555 192 L 556 192 L 557 192 L 557 191 L 557 191 L 558 191 L 559 190 L 559 190 L 561 189 L 561 189 L 562 189 L 563 188 L 563 188 L 563 188 L 564 187 L 564 187 L 564 187 L 565 186 L 565 186 L 565 186 L 566 185 L 567 185 L 568 184 L 568 184 L 568 184 L 569 183 L 569 183 L 571 183 L 572 182 L 572 182 L 573 182 L 574 181 L 575 181 L 575 181 L 576 180 L 576 180 L 578 179 L 578 179 L 578 179 L 579 178 L 579 178 L 579 178 L 579 177 L 580 177 L 580 177 L 581 176 L 584 176 L 585 175 L 586 175 L 586 175 L 589 174 L 590 174 L 591 174 L 593 173 L 595 173 L 597 173 L 600 172 L 600 172 L 601 172 L 601 171 L 601 171 L 602 170 L 602 170 L 602 170 L 603 169 L 603 169 L 603 169 L 603 168 L 605 168 L 606 168 L 606 167 L 607 167 L 607 167 L 609 166 L 610 166 L 610 165 L 611 165 L 612 165 L 614 164 L 616 164 L 620 164 L 620 163 L 620 163 L 620 163 L 622 162 L 625 162 L 625 161 L 625 161 L 625 161 L 626 160 L 627 160 L 630 160 L 631 159 L 631 159 L 631 159 L 633 158 L 633 158 L 633 158 L 634 157 L 636 157 L 640 156 L 640 156 L 644 156 L 644 155 L 645 155 L 648 155 L 649 154 L 652 154 L 653 154 L 655 153 L 656 153 L 656 153 L 656 152 L 657 152 L 657 151 L 657 151 L 658 151 L 658 150 L 658 150 L 659 150 L 659 149 L 659 149 L 660 149 L 661 148 L 662 148 L 666 148 L 667 147 L 672 147 L 674 146 L 674 146 L 675 146 L 675 145 L 678 145 L 678 145 L 679 144 L 679 144 L 680 144 L 680 143 L 680 143 L 680 142 L 680 142 L 681 142 L 681 141 L 681 141 L 681 141 L 681 140 L 682 140 L 682 140 L 684 139 L 684 139 L 684 139 L 685 138 L 686 138 L 686 137 L 686 137 L 687 137 L 688 136 L 691 136 L 691 136 L 691 135 L 691 135 L 691 135 L 692 134 L 692 134 L 692 134 L 694 133 L 695 133 L 698 132 L 701 132 L 702 132 L 703 131 L 707 131 L 710 131 L 711 130 L 713 130 L 717 130 L 717 129 L 717 129 L 722 128 L 724 128 L 724 128 L 725 127 L 725 127 L 733 127 L 734 126 L 735 126 L 735 126 L 735 125 L 736 125 L 737 125 L 737 124 L 737 124 L 738 123 L 738 123 L 739 123 L 739 122 L 740 122 L 740 122 L 740 121 L 740 121 L 740 121 L 740 120 L 742 120 L 743 120 L 744 119 L 744 119 L 745 118 L 745 118 L 746 118 L 747 117 L 747 117 L 748 117 L 748 116 L 748 116 L 749 116 L 750 115 L 751 115 L 752 115 L 752 114 L 753 114 L 754 113 L 754 113 L 754 113 L 754 112 L 754 112 L 755 112 L 756 111 L 756 111 L 757 111 L 757 110 L 758 110 L 759 109 L 759 109 L 759 109 L 759 108 L 759 108 L 760 108 L 760 107 L 760 107 L 762 107 L 762 106 L 762 106 L 762 106 L 763 105 L 763 105 L 763 104 L 763 104 L 763 104 L 764 103 L 764 103 L 764 103 L 764 102 L 764 102 L 767 102 L 768 101 L 770 101 L 770 101 L 770 100 L 770 100 L 771 99 L 772 99 L 773 99 L 774 98 L 776 98 L 779 98 L 779 97 L 780 97 L 781 97 L 781 96 L 782 96 L 782 95 L 782 95 L 783 95 L 783 94 L 783 94 L 783 94 L 783 93 L 783 93 L 783 93 L 783 92 L 784 92 L 784 92 L 784 91 L 784 91 L 784 90 L 785 90 L 785 90 L 785 89 L 786 89 L 788 89 L 788 88 L 789 88 L 789 88 L 790 87 L 790 87 L 791 87 L 793 86 L 794 86 L 794 85 L 794 85 L 794 85 L 795 84 L 797 84 L 799 84 L 800 83 L 801 83 L 802 83 L 802 82 L 802 82 L 803 82 L 808 81 L 810 81 L 813 80 L 814 80 L 815 80 L 816 79 L 817 79 L 817 79 L 818 78 L 818 78 L 818 78 L 819 77 L 820 77 L 820 76 L 821 76 L 823 76 L 823 75 L 823 75 L 823 75 L 823 74 L 823 74 L 823 74 L 823 73 L 823 73 L 823 73 L 824 72 L 824 72 L 824 71 L 824 71 L 824 71 L 824 70 L 824 70 L 825 70 L 825 69 L 825 69 L 825 69 L 825 68 L 825 68 L 825 68 L 826 67 L 826 67 L 826 66 L 827 66 L 827 66 L 827 65 L 827 65 L 827 65 L 827 64 L 828 64 L 830 64 L 832 63 L 832 63 L 832 62 L 834 62 L 834 62 L 834 61 L 835 61 L 837 61 L 838 60 L 839 60 L 839 60 L 839 59 L 839 59 L 839 59 L 839 58 L 840 58 L 842 57 L 842 57 L 842 57 L 846 56 L 848 56 L 849 56 L 852 55 L 853 55 L 854 55 L 854 54 L 854 54 L 854 54 L 855 53 L 855 53 L 855 52 L 856 52 L 857 52 L 857 51 L 857 51 L 858 51 L 858 50 L 858 50 L 858 50 L 858 49 L 858 49 L 859 49 L 859 48 L 859 48 L 861 47 L 861 47 L 861 47 L 862 46 L 862 46 L 862 46 L 863 45 L 864 45 L 864 45 L 864 44 L 865 44 L 865 43 L 866 43 L 870 43 L 871 42 L 872 42 L 875 42 L 876 41 L 877 41 L 880 41 L 881 40 L 882 40 L 885 40 L 890 39 L 891 39 L 892 38 L 894 38 L 897 38 L 897 37 L 897 37 L 899 37 L 900 36 L 901 36 L 901 36 L 903 35 L 904 35 L 905 35 L 905 34 L 906 34 L 906 33 L 907 33 L 907 33 L 911 32 L 911 32 L 912 32 L 914 31 L 914 31 L 915 31 L 916 30 L 917 30 L 917 29 L 918 29 L 918 29 L 919 28 L 920 28 L 920 28 L 921 27 L 922 27 L 922 27 L 923 26 L 923 26 L 924 26 L 924 25 L 925 25 L 925 24 L 926 24 L 926 24 L 926 23 L 926 23 L 926 23 L 927 22 L 928 22 L 930 22 L 931 21 L 931 21 L 932 21 L 935 20 L 936 20 L 937 19 L 938 19 L 941 19 L 943 18 L 945 18"></path><path stroke-width="2" d="M 945 346 L 945.000000 15.000000" /><path stroke-width="2" d="M 945 346 L 945.000000 15.000000"></path><path stroke-width="2" d="M 945 346 L 950 346" /><path stroke-width="2" d="M 945 346 L 950 346"></path><text xmlns="http://www.w3.org/2000/svg" x="955" y="352">0</text><path stroke-width="2" d="M 945 309 L 950 309" /><path d="M 945 309 L 950 309" stroke-width="2"></path><text xmlns="http://www.w3.org/2000/svg" x="955" y="315">103</text><path stroke-width="2" d="M 945 272 L 950 272" /><path d="M 945 272 L 950 272" stroke-width="2"></path><text xmlns="http://www.w3.org/2000/svg" x="955" y="278">205</text><path stroke-width="2" d="M 945 235 L 950 235" /><path stroke-width="2" d="M 945 235 L 950 235"></path><text x="955" y="241" xmlns="http://www.w3.org/2000/svg">307</text><path stroke-width="2" d="M 945 199 L 950 199" /><path d="M 945 199 L 950 199" stroke-width="2"></path><text x="955" y="205" xmlns="http://www.w3.org/2000/svg">409</text><path d="M 945 162 L 950 162" stroke-width="2" /><path stroke-width="2" d="M 945 162 L 950 162"></path><text xmlns="http://www.w3.org/2000/svg" x="955" y="168">512</text><path stroke-width="2" d="M 945 125 L 950 125" /><path stroke-width="2" d="M 945 125 L 950 125"></path><text xmlns="http://www.w3.org/2000/svg" x="955" y="131">614</text><path stroke-width="2" d="M 945 89 L 950 89" /><path d="M 945 89 L 950 89" stroke-width="2"></path><text xmlns="http://www.w3.org/2000/svg" x="955" y="95">716</text><path stroke-width="2" d="M 945 52 L 950 52" /><path stroke-width="2" d="M 945 52 L 950 52"></path><text xmlns="http://www.w3.org/2000/svg" x="955" y="58">818</text><path stroke-width="2" d="M 945 16 L 950 16" /><path stroke-width="2" d="M 945 16 L 950 16"></path><text xmlns="http://www.w3.org/2000/svg" x="955" y="22">920</text><text y="175" transform="rotate(90.00,987,175)" xmlns="http://www.w3.org/2000/svg" x="987">Stargazers</text><path stroke-width="2" d="M 57.000000 346.000000 L 945 346" /><path stroke-width="2" d="M 57.000000 346.000000 L 945 346"></path><path stroke-width="2" d="M 58 346 L 58 351" /><path d="M 58 346 L 58 351" stroke-width="2"></path><text xmlns="http://www.w3.org/2000/svg" x="25" y="368">2023-04-02</text><path d="M 157 346 L 157 351" stroke-width="2" /><path stroke-width="2" d="M 157 346 L 157 351"></path><text xmlns="http://www.w3.org/2000/svg" x="124" y="368">2023-06-22</text><path stroke-width="2" d="M 256 346 L 256 351" /><path stroke-width="2" d="M 256 346 L 256 351"></path><text x="223" y="368" xmlns="http://www.w3.org/2000/svg">2023-09-11</text><path stroke-width="2" d="M 354 346 L 354 351" /><path stroke-width="2" d="M 354 346 L 354 351"></path><text xmlns="http://www.w3.org/2000/svg" x="321" y="368">2023-12-01</text><path stroke-width="2" d="M 453 346 L 453 351" /><path stroke-width="2" d="M 453 346 L 453 351"></path><text xmlns="http://www.w3.org/2000/svg" x="420" y="368">2024-02-19</text><path stroke-width="2" d="M 551 346 L 551 351" /><path d="M 551 346 L 551 351" stroke-width="2"></path><text xmlns="http://www.w3.org/2000/svg" x="518" y="368">2024-05-10</text><path stroke-width="2" d="M 650 346 L 650 351" /><path stroke-width="2" d="M 650 346 L 650 351"></path><text xmlns="http://www.w3.org/2000/svg" x="617" y="368">2024-07-30</text><path stroke-width="2" d="M 748 346 L 748 351" /><path stroke-width="2" d="M 748 346 L 748 351"></path><text xmlns="http://www.w3.org/2000/svg" x="715" y="368">2024-10-19</text><path stroke-width="2" d="M 847 346 L 847 351" /><path stroke-width="2" d="M 847 346 L 847 351"></path><text x="814" y="368" xmlns="http://www.w3.org/2000/svg">2025-01-08</text><path d="M 945 346 L 945 351" stroke-width="2" /><path d="M 945 346 L 945 351" stroke-width="2"></path><text y="368" xmlns="http://www.w3.org/2000/svg" x="912">2025-03-30</text><text x="487" y="390" xmlns="http://www.w3.org/2000/svg">Time</text></svg>