<svg xmlns="http://www.w3.org/2000/svg" xmlns:xlink="http://www.w3.org/1999/xlink" width="1024" height="400">\n<path  d="M 0 0
L 1024 0
L 1024 400
L 0 400
L 0 0" style="stroke-width:0;stroke:rgba(255,255,255,1.0);fill:rgba(255,255,255,1.0)"/><path  d="M 38 11
L 965 11
L 965 351
L 38 351
L 38 11" style="stroke-width:0;stroke:rgba(255,255,255,1.0);fill:rgba(255,255,255,1.0)"/><path  d="M 38 351
L 965 351" style="stroke-width:2;stroke:rgba(85,85,85,1.0);fill:none"/><path  d="M 38 351
L 38 356" style="stroke-width:2;stroke:rgba(85,85,85,1.0);fill:none"/><text x="5" y="373" style="stroke-width:0;stroke:none;fill:rgba(51,51,51,1.0);font-size:12.8px;font-family:'Roboto Medium',sans-serif">2023-04-02</text><path  d="M 154 351
L 154 356" style="stroke-width:2;stroke:rgba(85,85,85,1.0);fill:none"/><text x="121" y="373" style="stroke-width:0;stroke:none;fill:rgba(51,51,51,1.0);font-size:12.8px;font-family:'Roboto Medium',sans-serif">2023-05-04</text><path  d="M 270 351
L 270 356" style="stroke-width:2;stroke:rgba(85,85,85,1.0);fill:none"/><text x="237" y="373" style="stroke-width:0;stroke:none;fill:rgba(51,51,51,1.0);font-size:12.8px;font-family:'Roboto Medium',sans-serif">2023-06-05</text><path  d="M 386 351
L 386 356" style="stroke-width:2;stroke:rgba(85,85,85,1.0);fill:none"/><text x="353" y="373" style="stroke-width:0;stroke:none;fill:rgba(51,51,51,1.0);font-size:12.8px;font-family:'Roboto Medium',sans-serif">2023-07-07</text><path  d="M 502 351
L 502 356" style="stroke-width:2;stroke:rgba(85,85,85,1.0);fill:none"/><text x="469" y="373" style="stroke-width:0;stroke:none;fill:rgba(51,51,51,1.0);font-size:12.8px;font-family:'Roboto Medium',sans-serif">2023-08-09</text><path  d="M 618 351
L 618 356" style="stroke-width:2;stroke:rgba(85,85,85,1.0);fill:none"/><text x="585" y="373" style="stroke-width:0;stroke:none;fill:rgba(51,51,51,1.0);font-size:12.8px;font-family:'Roboto Medium',sans-serif">2023-09-10</text><path  d="M 734 351
L 734 356" style="stroke-width:2;stroke:rgba(85,85,85,1.0);fill:none"/><text x="701" y="373" style="stroke-width:0;stroke:none;fill:rgba(51,51,51,1.0);font-size:12.8px;font-family:'Roboto Medium',sans-serif">2023-10-12</text><path  d="M 850 351
L 850 356" style="stroke-width:2;stroke:rgba(85,85,85,1.0);fill:none"/><text x="817" y="373" style="stroke-width:0;stroke:none;fill:rgba(51,51,51,1.0);font-size:12.8px;font-family:'Roboto Medium',sans-serif">2023-11-13</text><path  d="M 965 351
L 965 356" style="stroke-width:2;stroke:rgba(85,85,85,1.0);fill:none"/><text x="932" y="373" style="stroke-width:0;stroke:none;fill:rgba(51,51,51,1.0);font-size:12.8px;font-family:'Roboto Medium',sans-serif">2023-12-15</text><text x="487" y="395" style="stroke-width:0;stroke:none;fill:rgba(51,51,51,1.0);font-size:12.8px;font-family:'Roboto Medium',sans-serif">Time</text><path  d="M 967 351
L 967 11" style="stroke-width:2;stroke:rgba(85,85,85,1.0);fill:none"/><path  d="M 967 351
L 972 351" style="stroke-width:2;stroke:rgba(85,85,85,1.0);fill:none"/><text x="977" y="357" style="stroke-width:0;stroke:none;fill:rgba(51,51,51,1.0);font-size:12.8px;font-family:'Roboto Medium',sans-serif">0</text><path  d="M 967 308
L 972 308" style="stroke-width:2;stroke:rgba(85,85,85,1.0);fill:none"/><text x="977" y="314" style="stroke-width:0;stroke:none;fill:rgba(51,51,51,1.0);font-size:12.8px;font-family:'Roboto Medium',sans-serif">43</text><path  d="M 967 266
L 972 266" style="stroke-width:2;stroke:rgba(85,85,85,1.0);fill:none"/><text x="977" y="272" style="stroke-width:0;stroke:none;fill:rgba(51,51,51,1.0);font-size:12.8px;font-family:'Roboto Medium',sans-serif">85</text><path  d="M 967 223
L 972 223" style="stroke-width:2;stroke:rgba(85,85,85,1.0);fill:none"/><text x="977" y="229" style="stroke-width:0;stroke:none;fill:rgba(51,51,51,1.0);font-size:12.8px;font-family:'Roboto Medium',sans-serif">128</text><path  d="M 967 181
L 972 181" style="stroke-width:2;stroke:rgba(85,85,85,1.0);fill:none"/><text x="977" y="187" style="stroke-width:0;stroke:none;fill:rgba(51,51,51,1.0);font-size:12.8px;font-family:'Roboto Medium',sans-serif">170</text><path  d="M 967 138
L 972 138" style="stroke-width:2;stroke:rgba(85,85,85,1.0);fill:none"/><text x="977" y="144" style="stroke-width:0;stroke:none;fill:rgba(51,51,51,1.0);font-size:12.8px;font-family:'Roboto Medium',sans-serif">213</text><path  d="M 967 96
L 972 96" style="stroke-width:2;stroke:rgba(85,85,85,1.0);fill:none"/><text x="977" y="102" style="stroke-width:0;stroke:none;fill:rgba(51,51,51,1.0);font-size:12.8px;font-family:'Roboto Medium',sans-serif">255</text><path  d="M 967 53
L 972 53" style="stroke-width:2;stroke:rgba(85,85,85,1.0);fill:none"/><text x="977" y="59" style="stroke-width:0;stroke:none;fill:rgba(51,51,51,1.0);font-size:12.8px;font-family:'Roboto Medium',sans-serif">298</text><path  d="M 967 11
L 972 11" style="stroke-width:2;stroke:rgba(85,85,85,1.0);fill:none"/><text x="977" y="17" style="stroke-width:0;stroke:none;fill:rgba(51,51,51,1.0);font-size:12.8px;font-family:'Roboto Medium',sans-serif">340</text><text x="1009" y="150" style="stroke-width:0;stroke:none;fill:rgba(51,51,51,1.0);font-size:12.8px;font-family:'Roboto Medium',sans-serif" transform="rotate(90.00,1009,150)">Stargazers</text><path  d="M 38 351
L 45 350
L 89 349
L 90 348
L 90 347
L 90 346
L 90 345
L 90 344
L 90 343
L 90 342
L 91 341
L 91 339
L 91 339
L 91 337
L 91 337
L 92 335
L 92 335
L 92 334
L 93 333
L 93 332
L 95 331
L 96 330
L 97 328
L 100 328
L 102 327
L 102 326
L 102 324
L 104 324
L 106 323
L 111 322
L 112 320
L 115 320
L 118 319
L 132 318
L 132 317
L 132 316
L 132 315
L 132 314
L 132 313
L 132 312
L 140 311
L 144 310
L 146 309
L 153 308
L 163 306
L 168 306
L 187 305
L 193 304
L 204 303
L 215 302
L 219 301
L 260 300
L 262 298
L 263 298
L 268 297
L 269 296
L 269 295
L 269 294
L 269 293
L 269 292
L 269 290
L 269 290
L 269 289
L 270 288
L 270 287
L 270 286
L 271 285
L 271 284
L 271 283
L 271 282
L 271 281
L 271 280
L 271 279
L 272 278
L 272 277
L 272 276
L 272 275
L 272 274
L 272 273
L 272 272
L 272 271
L 272 270
L 272 269
L 272 268
L 272 267
L 272 266
L 272 265
L 272 264
L 272 262
L 272 262
L 272 261
L 272 260
L 272 259
L 272 257
L 272 257
L 272 256
L 272 255
L 273 254
L 273 253
L 273 252
L 273 251
L 274 250
L 274 249
L 275 248
L 275 246
L 275 246
L 276 245
L 277 244
L 279 243
L 279 241
L 279 241
L 279 240
L 279 239
L 279 238
L 279 237
L 279 236
L 279 235
L 279 234
L 279 233
L 279 232
L 279 230
L 279 230
L 279 229
L 279 228
L 280 227
L 281 225
L 283 225
L 283 224
L 284 223
L 284 222
L 293 221
L 294 220
L 294 219
L 298 218
L 298 217
L 304 216
L 311 215
L 313 214
L 319 213
L 321 212
L 325 211
L 327 210
L 328 209
L 334 208
L 335 207
L 337 206
L 340 205
L 342 204
L 344 203
L 345 202
L 345 201
L 346 200
L 349 199
L 353 198
L 353 197
L 354 196
L 355 195
L 356 194
L 358 193
L 363 192
L 366 191
L 372 190
L 374 189
L 377 188
L 380 187
L 380 186
L 380 185
L 385 184
L 402 183
L 403 182
L 406 181
L 422 180
L 423 179
L 423 178
L 423 177
L 424 176
L 426 174
L 432 174
L 435 173
L 435 172
L 456 171
L 460 170
L 464 169
L 471 168
L 475 167
L 475 166
L 478 164
L 492 163
L 508 163
L 526 162
L 527 161
L 527 160
L 528 159
L 529 158
L 533 157
L 557 156
L 568 155
L 569 153
L 578 153
L 580 152
L 581 151
L 608 150
L 608 149
L 610 148
L 611 147
L 615 146
L 622 145
L 625 144
L 631 142
L 634 142
L 640 141
L 655 140
L 656 139
L 658 138
L 659 137
L 660 136
L 661 135
L 668 134
L 669 132
L 684 131
L 706 131
L 717 130
L 729 129
L 730 128
L 736 127
L 737 126
L 741 125
L 745 124
L 745 123
L 745 121
L 745 121
L 745 120
L 745 119
L 745 118
L 745 117
L 746 116
L 746 115
L 746 114
L 746 113
L 746 112
L 747 110
L 748 110
L 750 109
L 753 108
L 755 107
L 755 106
L 755 105
L 755 104
L 759 103
L 759 102
L 759 100
L 759 100
L 760 99
L 760 98
L 760 97
L 762 96
L 763 95
L 764 94
L 766 93
L 766 92
L 766 91
L 767 90
L 767 89
L 769 88
L 770 87
L 770 86
L 770 85
L 773 84
L 774 83
L 774 82
L 777 81
L 780 80
L 781 79
L 786 78
L 792 77
L 792 76
L 794 75
L 795 74
L 795 73
L 795 72
L 795 71
L 800 70
L 801 69
L 807 68
L 807 67
L 809 66
L 814 65
L 818 64
L 818 63
L 825 62
L 827 61
L 828 60
L 830 59
L 830 58
L 843 57
L 845 56
L 846 55
L 856 54
L 861 53
L 871 52
L 873 51
L 874 50
L 877 49
L 878 48
L 878 47
L 886 46
L 892 45
L 896 44
L 897 43
L 901 42
L 904 41
L 904 40
L 904 39
L 904 38
L 906 37
L 907 36
L 907 35
L 910 34
L 910 33
L 911 32
L 913 31
L 925 30
L 939 29
L 939 28
L 940 27
L 949 26
L 954 25
L 956 24
L 957 23
L 961 22
L 964 21
L 964 20
L 964 19
L 964 18
L 965 17
L 965 16
L 965 15" style="stroke-width:2;stroke:rgba(129,199,239,1.0);fill:none"/></svg>