<svg xmlns="http://www.w3.org/2000/svg" xmlns:xlink="http://www.w3.org/1999/xlink" width="1024px" height="400px"><style type="text/css">
path { fill: none; stroke: rgb(51,51,51); }
path.series { stroke: #6b63ff; }
rect.background { fill: rgb(255,255,255); stroke: none; }

text {
	stroke-width: 0;
	stroke: none;
	fill: rgba(51,51,51,1.0);
	font-size: 12.8px;
	font-family: 'Roboto Medium', sans-serif;
}
</style><rect rx="8" x="0" y="0" width="1024px" height="400px" class="background" /><rect y="0" width="1024px" height="400px" class="background" rx="8" x="0"></rect><path stroke-width="2" class="series" d="M 58 345 L 61 345 L 76 344 L 76 344 L 76 344 L 76 343 L 76 343 L 76 343 L 76 342 L 76 342 L 77 341 L 77 341 L 77 341 L 77 340 L 77 340 L 77 340 L 77 339 L 77 339 L 77 338 L 78 338 L 79 338 L 79 337 L 80 337 L 81 337 L 81 336 L 81 336 L 81 335 L 82 335 L 84 335 L 84 334 L 85 334 L 86 334 L 91 333 L 91 333 L 91 333 L 91 332 L 91 332 L 94 331 L 95 331 L 96 331 L 98 330 L 102 330 L 103 330 L 110 329 L 112 329 L 116 328 L 120 328 L 121 328 L 135 327 L 136 327 L 136 327 L 138 326 L 139 326 L 139 325 L 139 325 L 139 325 L 139 324 L 139 324 L 139 324 L 139 323 L 139 323 L 139 323 L 139 322 L 139 322 L 139 321 L 139 321 L 139 321 L 139 320 L 139 320 L 139 320 L 139 319 L 139 319 L 139 318 L 139 318 L 139 318 L 139 317 L 139 317 L 139 317 L 139 316 L 139 316 L 139 315 L 140 315 L 140 315 L 140 314 L 140 314 L 140 314 L 140 313 L 140 313 L 140 313 L 140 312 L 140 312 L 140 311 L 140 311 L 140 311 L 140 310 L 140 310 L 140 310 L 140 309 L 140 309 L 140 308 L 141 308 L 141 308 L 141 307 L 141 307 L 141 307 L 142 306 L 142 306 L 142 305 L 142 305 L 142 305 L 142 304 L 142 304 L 142 304 L 142 303 L 142 303 L 142 302 L 142 302 L 142 302 L 142 301 L 142 301 L 142 301 L 142 300 L 143 300 L 143 300 L 143 299 L 144 299 L 144 298 L 147 298 L 147 298 L 147 297 L 148 297 L 149 297 L 151 296 L 153 296 L 154 295 L 156 295 L 157 295 L 158 294 L 159 294 L 159 294 L 161 293 L 161 293 L 162 292 L 163 292 L 164 292 L 165 291 L 165 291 L 165 291 L 165 290 L 166 290 L 168 290 L 168 289 L 168 289 L 169 288 L 169 288 L 169 288 L 171 287 L 172 287 L 174 287 L 175 286 L 176 286 L 177 285 L 177 285 L 177 285 L 179 284 L 185 284 L 185 284 L 186 283 L 192 283 L 192 282 L 192 282 L 192 282 L 192 281 L 193 281 L 195 281 L 196 280 L 196 280 L 203 280 L 205 279 L 206 279 L 209 278 L 210 278 L 210 278 L 211 277 L 216 277 L 221 277 L 228 276 L 228 276 L 228 275 L 228 275 L 229 275 L 230 274 L 239 274 L 242 274 L 243 273 L 246 273 L 246 272 L 247 272 L 256 272 L 256 271 L 257 271 L 257 271 L 259 270 L 261 270 L 262 269 L 264 269 L 265 269 L 267 268 L 273 268 L 273 268 L 274 267 L 274 267 L 274 267 L 274 266 L 277 266 L 283 265 L 294 265 L 298 265 L 301 264 L 301 264 L 302 264 L 304 263 L 304 263 L 304 262 L 304 262 L 304 262 L 304 261 L 304 261 L 304 261 L 304 260 L 304 260 L 304 259 L 304 259 L 304 259 L 305 258 L 305 258 L 307 258 L 307 257 L 307 257 L 307 257 L 307 256 L 309 256 L 309 255 L 309 255 L 309 255 L 309 254 L 309 254 L 309 254 L 310 253 L 310 253 L 311 252 L 311 252 L 311 252 L 311 251 L 311 251 L 312 251 L 312 250 L 312 250 L 313 249 L 313 249 L 314 249 L 314 248 L 315 248 L 316 248 L 316 247 L 318 247 L 320 247 L 320 246 L 321 246 L 321 245 L 321 245 L 321 245 L 321 244 L 323 244 L 323 244 L 325 243 L 325 243 L 326 242 L 328 242 L 329 242 L 329 241 L 332 241 L 332 241 L 332 240 L 333 240 L 333 239 L 338 239 L 339 239 L 339 238 L 342 238 L 344 238 L 347 237 L 348 237 L 349 236 L 350 236 L 350 236 L 350 235 L 353 235 L 355 235 L 356 234 L 357 234 L 358 234 L 359 233 L 359 233 L 359 232 L 359 232 L 360 232 L 360 231 L 360 231 L 361 231 L 361 230 L 361 230 L 362 229 L 366 229 L 371 229 L 371 228 L 371 228 L 375 228 L 376 227 L 377 227 L 378 226 L 379 226 L 380 226 L 380 225 L 380 225 L 380 225 L 380 224 L 380 224 L 380 224 L 381 223 L 381 223 L 382 222 L 384 222 L 384 222 L 384 221 L 384 221 L 384 221 L 385 220 L 385 220 L 385 219 L 385 219 L 385 219 L 385 218 L 385 218 L 385 218 L 389 217 L 391 217 L 391 216 L 392 216 L 402 216 L 403 215 L 407 215 L 409 215 L 415 214 L 417 214 L 419 214 L 420 213 L 420 213 L 420 212 L 420 212 L 420 212 L 420 211 L 420 211 L 421 211 L 422 210 L 430 210 L 432 209 L 435 209 L 441 209 L 445 208 L 449 208 L 451 208 L 455 207 L 456 207 L 465 206 L 474 206 L 474 206 L 480 205 L 480 205 L 485 205 L 486 204 L 489 204 L 489 203 L 490 203 L 490 203 L 493 202 L 494 202 L 496 202 L 500 201 L 501 201 L 502 201 L 502 200 L 505 200 L 509 199 L 509 199 L 513 199 L 517 198 L 517 198 L 517 198 L 519 197 L 520 197 L 521 196 L 524 196 L 527 196 L 529 195 L 531 195 L 531 195 L 536 194 L 537 194 L 540 193 L 544 193 L 544 193 L 549 192 L 550 192 L 550 192 L 551 191 L 552 191 L 554 191 L 554 190 L 556 190 L 559 189 L 560 189 L 560 189 L 560 188 L 568 188 L 568 188 L 569 187 L 569 187 L 569 186 L 570 186 L 570 186 L 570 185 L 571 185 L 573 185 L 573 184 L 574 184 L 575 183 L 576 183 L 576 183 L 577 182 L 577 182 L 578 182 L 578 181 L 578 181 L 579 181 L 579 180 L 579 180 L 579 179 L 580 179 L 582 179 L 582 178 L 582 178 L 583 178 L 583 177 L 584 177 L 586 176 L 586 176 L 586 176 L 588 175 L 589 175 L 589 175 L 590 174 L 590 174 L 592 173 L 592 173 L 592 173 L 592 172 L 593 172 L 593 172 L 593 171 L 594 171 L 594 170 L 595 170 L 598 170 L 599 169 L 600 169 L 601 169 L 603 168 L 604 168 L 605 168 L 607 167 L 609 167 L 612 166 L 614 166 L 615 166 L 615 165 L 615 165 L 615 165 L 616 164 L 616 164 L 616 163 L 617 163 L 617 163 L 618 162 L 618 162 L 619 162 L 620 161 L 620 161 L 621 160 L 621 160 L 624 160 L 624 159 L 624 159 L 625 159 L 626 158 L 629 158 L 631 158 L 635 157 L 635 157 L 635 156 L 635 156 L 638 156 L 640 155 L 640 155 L 640 155 L 640 154 L 641 154 L 642 153 L 646 153 L 646 153 L 646 152 L 646 152 L 648 152 L 649 151 L 649 151 L 649 150 L 652 150 L 655 150 L 655 149 L 659 149 L 659 149 L 660 148 L 664 148 L 665 148 L 667 147 L 669 147 L 671 146 L 672 146 L 672 146 L 673 145 L 673 145 L 673 145 L 673 144 L 674 144 L 674 143 L 674 143 L 675 143 L 675 142 L 675 142 L 676 142 L 677 141 L 678 141 L 683 140 L 683 140 L 688 140 L 690 139 L 690 139 L 691 139 L 692 138 L 694 138 L 695 137 L 696 137 L 696 137 L 696 136 L 696 136 L 697 136 L 697 135 L 697 135 L 698 135 L 698 134 L 698 134 L 698 133 L 698 133 L 699 133 L 699 132 L 700 132 L 701 132 L 701 131 L 702 131 L 703 130 L 703 130 L 703 130 L 704 129 L 705 129 L 708 129 L 708 128 L 708 128 L 708 127 L 708 127 L 709 127 L 709 126 L 709 126 L 711 126 L 713 125 L 715 125 L 718 125 L 719 124 L 721 124 L 724 123 L 728 123 L 728 123 L 731 122 L 735 122 L 735 122 L 735 121 L 740 121 L 741 120 L 742 120 L 743 120 L 743 119 L 751 119 L 752 119 L 753 118 L 753 118 L 753 117 L 754 117 L 755 117 L 755 116 L 756 116 L 757 116 L 757 115 L 757 115 L 758 115 L 758 114 L 758 114 L 758 113 L 758 113 L 758 113 L 758 112 L 760 112 L 762 112 L 763 111 L 763 111 L 763 110 L 764 110 L 764 110 L 765 109 L 766 109 L 767 109 L 767 108 L 767 108 L 767 107 L 769 107 L 769 107 L 770 106 L 770 106 L 772 106 L 772 105 L 773 105 L 773 104 L 773 104 L 773 104 L 774 103 L 774 103 L 774 103 L 776 102 L 776 102 L 777 102 L 777 101 L 778 101 L 778 100 L 778 100 L 778 100 L 779 99 L 779 99 L 779 99 L 780 98 L 780 98 L 781 97 L 781 97 L 782 97 L 782 96 L 782 96 L 782 96 L 782 95 L 783 95 L 783 94 L 783 94 L 783 94 L 783 93 L 785 93 L 787 93 L 789 92 L 789 92 L 789 92 L 789 91 L 791 91 L 792 90 L 792 90 L 793 90 L 795 89 L 798 89 L 798 89 L 800 88 L 800 88 L 800 87 L 801 87 L 802 87 L 802 86 L 802 86 L 802 86 L 802 85 L 802 85 L 802 84 L 802 84 L 803 84 L 803 83 L 803 83 L 803 83 L 803 82 L 803 82 L 804 82 L 804 81 L 804 81 L 805 80 L 806 80 L 807 80 L 808 79 L 808 79 L 808 79 L 810 78 L 810 78 L 810 77 L 813 77 L 814 77 L 814 76 L 814 76 L 814 76 L 814 75 L 817 75 L 819 74 L 819 74 L 821 74 L 821 73 L 822 73 L 822 73 L 823 72 L 828 72 L 830 71 L 833 71 L 834 71 L 835 70 L 836 70 L 838 70 L 838 69 L 838 69 L 838 69 L 839 68 L 839 68 L 840 67 L 840 67 L 842 67 L 844 66 L 844 66 L 844 66 L 844 65 L 844 65 L 844 64 L 844 64 L 844 64 L 844 63 L 844 63 L 844 63 L 844 62 L 844 62 L 844 61 L 844 61 L 844 61 L 844 60 L 845 60 L 845 60 L 845 59 L 845 59 L 846 59 L 846 58 L 846 58 L 847 57 L 847 57 L 847 57 L 848 56 L 848 56 L 848 56 L 848 55 L 848 55 L 848 54 L 849 54 L 851 54 L 853 53 L 853 53 L 853 53 L 855 52 L 855 52 L 855 51 L 856 51 L 858 51 L 859 50 L 860 50 L 860 50 L 860 49 L 860 49 L 860 49 L 860 48 L 860 48 L 863 47 L 863 47 L 863 47 L 867 46 L 869 46 L 870 46 L 873 45 L 874 45 L 875 44 L 875 44 L 875 44 L 876 43 L 876 43 L 876 43 L 877 42 L 878 42 L 878 41 L 878 41 L 879 41 L 879 40 L 879 40 L 879 40 L 879 39 L 879 39 L 880 38 L 880 38 L 880 38 L 880 37 L 882 37 L 883 37 L 883 36 L 883 36 L 884 36 L 884 35 L 885 35 L 885 34 L 886 34 L 886 34 L 886 33 L 887 33 L 888 33 L 892 32 L 893 32 L 894 31 L 897 31 L 898 31 L 899 30 L 902 30 L 903 30 L 904 29 L 907 29 L 912 28 L 913 28 L 915 28 L 917 27 L 919 27 L 919 27 L 920 26 L 922 26 L 922 26 L 923 25 L 924 25 L 926 24 L 927 24 L 928 24 L 928 23 L 929 23 L 929 23 L 929 22 L 930 22 L 934 21 L 934 21 L 935 21 L 937 20 L 937 20 L 938 20 L 939 19 L 940 19 L 940 18 L 941 18 L 941 18 L 942 17 L 943 17 L 943 17 L 944 16 L 945 16 L 945 16" /><path class="series" d="M 58 345 L 61 345 L 76 344 L 76 344 L 76 344 L 76 343 L 76 343 L 76 343 L 76 342 L 76 342 L 77 341 L 77 341 L 77 341 L 77 340 L 77 340 L 77 340 L 77 339 L 77 339 L 77 338 L 78 338 L 79 338 L 79 337 L 80 337 L 81 337 L 81 336 L 81 336 L 81 335 L 82 335 L 84 335 L 84 334 L 85 334 L 86 334 L 91 333 L 91 333 L 91 333 L 91 332 L 91 332 L 94 331 L 95 331 L 96 331 L 98 330 L 102 330 L 103 330 L 110 329 L 112 329 L 116 328 L 120 328 L 121 328 L 135 327 L 136 327 L 136 327 L 138 326 L 139 326 L 139 325 L 139 325 L 139 325 L 139 324 L 139 324 L 139 324 L 139 323 L 139 323 L 139 323 L 139 322 L 139 322 L 139 321 L 139 321 L 139 321 L 139 320 L 139 320 L 139 320 L 139 319 L 139 319 L 139 318 L 139 318 L 139 318 L 139 317 L 139 317 L 139 317 L 139 316 L 139 316 L 139 315 L 140 315 L 140 315 L 140 314 L 140 314 L 140 314 L 140 313 L 140 313 L 140 313 L 140 312 L 140 312 L 140 311 L 140 311 L 140 311 L 140 310 L 140 310 L 140 310 L 140 309 L 140 309 L 140 308 L 141 308 L 141 308 L 141 307 L 141 307 L 141 307 L 142 306 L 142 306 L 142 305 L 142 305 L 142 305 L 142 304 L 142 304 L 142 304 L 142 303 L 142 303 L 142 302 L 142 302 L 142 302 L 142 301 L 142 301 L 142 301 L 142 300 L 143 300 L 143 300 L 143 299 L 144 299 L 144 298 L 147 298 L 147 298 L 147 297 L 148 297 L 149 297 L 151 296 L 153 296 L 154 295 L 156 295 L 157 295 L 158 294 L 159 294 L 159 294 L 161 293 L 161 293 L 162 292 L 163 292 L 164 292 L 165 291 L 165 291 L 165 291 L 165 290 L 166 290 L 168 290 L 168 289 L 168 289 L 169 288 L 169 288 L 169 288 L 171 287 L 172 287 L 174 287 L 175 286 L 176 286 L 177 285 L 177 285 L 177 285 L 179 284 L 185 284 L 185 284 L 186 283 L 192 283 L 192 282 L 192 282 L 192 282 L 192 281 L 193 281 L 195 281 L 196 280 L 196 280 L 203 280 L 205 279 L 206 279 L 209 278 L 210 278 L 210 278 L 211 277 L 216 277 L 221 277 L 228 276 L 228 276 L 228 275 L 228 275 L 229 275 L 230 274 L 239 274 L 242 274 L 243 273 L 246 273 L 246 272 L 247 272 L 256 272 L 256 271 L 257 271 L 257 271 L 259 270 L 261 270 L 262 269 L 264 269 L 265 269 L 267 268 L 273 268 L 273 268 L 274 267 L 274 267 L 274 267 L 274 266 L 277 266 L 283 265 L 294 265 L 298 265 L 301 264 L 301 264 L 302 264 L 304 263 L 304 263 L 304 262 L 304 262 L 304 262 L 304 261 L 304 261 L 304 261 L 304 260 L 304 260 L 304 259 L 304 259 L 304 259 L 305 258 L 305 258 L 307 258 L 307 257 L 307 257 L 307 257 L 307 256 L 309 256 L 309 255 L 309 255 L 309 255 L 309 254 L 309 254 L 309 254 L 310 253 L 310 253 L 311 252 L 311 252 L 311 252 L 311 251 L 311 251 L 312 251 L 312 250 L 312 250 L 313 249 L 313 249 L 314 249 L 314 248 L 315 248 L 316 248 L 316 247 L 318 247 L 320 247 L 320 246 L 321 246 L 321 245 L 321 245 L 321 245 L 321 244 L 323 244 L 323 244 L 325 243 L 325 243 L 326 242 L 328 242 L 329 242 L 329 241 L 332 241 L 332 241 L 332 240 L 333 240 L 333 239 L 338 239 L 339 239 L 339 238 L 342 238 L 344 238 L 347 237 L 348 237 L 349 236 L 350 236 L 350 236 L 350 235 L 353 235 L 355 235 L 356 234 L 357 234 L 358 234 L 359 233 L 359 233 L 359 232 L 359 232 L 360 232 L 360 231 L 360 231 L 361 231 L 361 230 L 361 230 L 362 229 L 366 229 L 371 229 L 371 228 L 371 228 L 375 228 L 376 227 L 377 227 L 378 226 L 379 226 L 380 226 L 380 225 L 380 225 L 380 225 L 380 224 L 380 224 L 380 224 L 381 223 L 381 223 L 382 222 L 384 222 L 384 222 L 384 221 L 384 221 L 384 221 L 385 220 L 385 220 L 385 219 L 385 219 L 385 219 L 385 218 L 385 218 L 385 218 L 389 217 L 391 217 L 391 216 L 392 216 L 402 216 L 403 215 L 407 215 L 409 215 L 415 214 L 417 214 L 419 214 L 420 213 L 420 213 L 420 212 L 420 212 L 420 212 L 420 211 L 420 211 L 421 211 L 422 210 L 430 210 L 432 209 L 435 209 L 441 209 L 445 208 L 449 208 L 451 208 L 455 207 L 456 207 L 465 206 L 474 206 L 474 206 L 480 205 L 480 205 L 485 205 L 486 204 L 489 204 L 489 203 L 490 203 L 490 203 L 493 202 L 494 202 L 496 202 L 500 201 L 501 201 L 502 201 L 502 200 L 505 200 L 509 199 L 509 199 L 513 199 L 517 198 L 517 198 L 517 198 L 519 197 L 520 197 L 521 196 L 524 196 L 527 196 L 529 195 L 531 195 L 531 195 L 536 194 L 537 194 L 540 193 L 544 193 L 544 193 L 549 192 L 550 192 L 550 192 L 551 191 L 552 191 L 554 191 L 554 190 L 556 190 L 559 189 L 560 189 L 560 189 L 560 188 L 568 188 L 568 188 L 569 187 L 569 187 L 569 186 L 570 186 L 570 186 L 570 185 L 571 185 L 573 185 L 573 184 L 574 184 L 575 183 L 576 183 L 576 183 L 577 182 L 577 182 L 578 182 L 578 181 L 578 181 L 579 181 L 579 180 L 579 180 L 579 179 L 580 179 L 582 179 L 582 178 L 582 178 L 583 178 L 583 177 L 584 177 L 586 176 L 586 176 L 586 176 L 588 175 L 589 175 L 589 175 L 590 174 L 590 174 L 592 173 L 592 173 L 592 173 L 592 172 L 593 172 L 593 172 L 593 171 L 594 171 L 594 170 L 595 170 L 598 170 L 599 169 L 600 169 L 601 169 L 603 168 L 604 168 L 605 168 L 607 167 L 609 167 L 612 166 L 614 166 L 615 166 L 615 165 L 615 165 L 615 165 L 616 164 L 616 164 L 616 163 L 617 163 L 617 163 L 618 162 L 618 162 L 619 162 L 620 161 L 620 161 L 621 160 L 621 160 L 624 160 L 624 159 L 624 159 L 625 159 L 626 158 L 629 158 L 631 158 L 635 157 L 635 157 L 635 156 L 635 156 L 638 156 L 640 155 L 640 155 L 640 155 L 640 154 L 641 154 L 642 153 L 646 153 L 646 153 L 646 152 L 646 152 L 648 152 L 649 151 L 649 151 L 649 150 L 652 150 L 655 150 L 655 149 L 659 149 L 659 149 L 660 148 L 664 148 L 665 148 L 667 147 L 669 147 L 671 146 L 672 146 L 672 146 L 673 145 L 673 145 L 673 145 L 673 144 L 674 144 L 674 143 L 674 143 L 675 143 L 675 142 L 675 142 L 676 142 L 677 141 L 678 141 L 683 140 L 683 140 L 688 140 L 690 139 L 690 139 L 691 139 L 692 138 L 694 138 L 695 137 L 696 137 L 696 137 L 696 136 L 696 136 L 697 136 L 697 135 L 697 135 L 698 135 L 698 134 L 698 134 L 698 133 L 698 133 L 699 133 L 699 132 L 700 132 L 701 132 L 701 131 L 702 131 L 703 130 L 703 130 L 703 130 L 704 129 L 705 129 L 708 129 L 708 128 L 708 128 L 708 127 L 708 127 L 709 127 L 709 126 L 709 126 L 711 126 L 713 125 L 715 125 L 718 125 L 719 124 L 721 124 L 724 123 L 728 123 L 728 123 L 731 122 L 735 122 L 735 122 L 735 121 L 740 121 L 741 120 L 742 120 L 743 120 L 743 119 L 751 119 L 752 119 L 753 118 L 753 118 L 753 117 L 754 117 L 755 117 L 755 116 L 756 116 L 757 116 L 757 115 L 757 115 L 758 115 L 758 114 L 758 114 L 758 113 L 758 113 L 758 113 L 758 112 L 760 112 L 762 112 L 763 111 L 763 111 L 763 110 L 764 110 L 764 110 L 765 109 L 766 109 L 767 109 L 767 108 L 767 108 L 767 107 L 769 107 L 769 107 L 770 106 L 770 106 L 772 106 L 772 105 L 773 105 L 773 104 L 773 104 L 773 104 L 774 103 L 774 103 L 774 103 L 776 102 L 776 102 L 777 102 L 777 101 L 778 101 L 778 100 L 778 100 L 778 100 L 779 99 L 779 99 L 779 99 L 780 98 L 780 98 L 781 97 L 781 97 L 782 97 L 782 96 L 782 96 L 782 96 L 782 95 L 783 95 L 783 94 L 783 94 L 783 94 L 783 93 L 785 93 L 787 93 L 789 92 L 789 92 L 789 92 L 789 91 L 791 91 L 792 90 L 792 90 L 793 90 L 795 89 L 798 89 L 798 89 L 800 88 L 800 88 L 800 87 L 801 87 L 802 87 L 802 86 L 802 86 L 802 86 L 802 85 L 802 85 L 802 84 L 802 84 L 803 84 L 803 83 L 803 83 L 803 83 L 803 82 L 803 82 L 804 82 L 804 81 L 804 81 L 805 80 L 806 80 L 807 80 L 808 79 L 808 79 L 808 79 L 810 78 L 810 78 L 810 77 L 813 77 L 814 77 L 814 76 L 814 76 L 814 76 L 814 75 L 817 75 L 819 74 L 819 74 L 821 74 L 821 73 L 822 73 L 822 73 L 823 72 L 828 72 L 830 71 L 833 71 L 834 71 L 835 70 L 836 70 L 838 70 L 838 69 L 838 69 L 838 69 L 839 68 L 839 68 L 840 67 L 840 67 L 842 67 L 844 66 L 844 66 L 844 66 L 844 65 L 844 65 L 844 64 L 844 64 L 844 64 L 844 63 L 844 63 L 844 63 L 844 62 L 844 62 L 844 61 L 844 61 L 844 61 L 844 60 L 845 60 L 845 60 L 845 59 L 845 59 L 846 59 L 846 58 L 846 58 L 847 57 L 847 57 L 847 57 L 848 56 L 848 56 L 848 56 L 848 55 L 848 55 L 848 54 L 849 54 L 851 54 L 853 53 L 853 53 L 853 53 L 855 52 L 855 52 L 855 51 L 856 51 L 858 51 L 859 50 L 860 50 L 860 50 L 860 49 L 860 49 L 860 49 L 860 48 L 860 48 L 863 47 L 863 47 L 863 47 L 867 46 L 869 46 L 870 46 L 873 45 L 874 45 L 875 44 L 875 44 L 875 44 L 876 43 L 876 43 L 876 43 L 877 42 L 878 42 L 878 41 L 878 41 L 879 41 L 879 40 L 879 40 L 879 40 L 879 39 L 879 39 L 880 38 L 880 38 L 880 38 L 880 37 L 882 37 L 883 37 L 883 36 L 883 36 L 884 36 L 884 35 L 885 35 L 885 34 L 886 34 L 886 34 L 886 33 L 887 33 L 888 33 L 892 32 L 893 32 L 894 31 L 897 31 L 898 31 L 899 30 L 902 30 L 903 30 L 904 29 L 907 29 L 912 28 L 913 28 L 915 28 L 917 27 L 919 27 L 919 27 L 920 26 L 922 26 L 922 26 L 923 25 L 924 25 L 926 24 L 927 24 L 928 24 L 928 23 L 929 23 L 929 23 L 929 22 L 930 22 L 934 21 L 934 21 L 935 21 L 937 20 L 937 20 L 938 20 L 939 19 L 940 19 L 940 18 L 941 18 L 941 18 L 942 17 L 943 17 L 943 17 L 944 16 L 945 16 L 945 16" stroke-width="2"></path><path stroke-width="2" d="M 945 346 L 945.000000 15.000000" /><path stroke-width="2" d="M 945 346 L 945.000000 15.000000"></path><path stroke-width="2" d="M 945 346 L 950 346" /><path stroke-width="2" d="M 945 346 L 950 346"></path><text x="955" y="352" xmlns="http://www.w3.org/2000/svg">0</text><path stroke-width="2" d="M 945 309 L 950 309" /><path stroke-width="2" d="M 945 309 L 950 309"></path><text xmlns="http://www.w3.org/2000/svg" x="955" y="315">99</text><path d="M 945 272 L 950 272" stroke-width="2" /><path stroke-width="2" d="M 945 272 L 950 272"></path><text y="278" xmlns="http://www.w3.org/2000/svg" x="955">198</text><path d="M 945 235 L 950 235" stroke-width="2" /><path stroke-width="2" d="M 945 235 L 950 235"></path><text xmlns="http://www.w3.org/2000/svg" x="955" y="241">297</text><path stroke-width="2" d="M 945 199 L 950 199" /><path stroke-width="2" d="M 945 199 L 950 199"></path><text xmlns="http://www.w3.org/2000/svg" x="955" y="205">396</text><path stroke-width="2" d="M 945 162 L 950 162" /><path d="M 945 162 L 950 162" stroke-width="2"></path><text xmlns="http://www.w3.org/2000/svg" x="955" y="168">495</text><path stroke-width="2" d="M 945 125 L 950 125" /><path stroke-width="2" d="M 945 125 L 950 125"></path><text xmlns="http://www.w3.org/2000/svg" x="955" y="131">594</text><path stroke-width="2" d="M 945 89 L 950 89" /><path stroke-width="2" d="M 945 89 L 950 89"></path><text x="955" y="95" xmlns="http://www.w3.org/2000/svg">693</text><path stroke-width="2" d="M 945 52 L 950 52" /><path stroke-width="2" d="M 945 52 L 950 52"></path><text xmlns="http://www.w3.org/2000/svg" x="955" y="58">792</text><path stroke-width="2" d="M 945 16 L 950 16" /><path stroke-width="2" d="M 945 16 L 950 16"></path><text xmlns="http://www.w3.org/2000/svg" x="955" y="22">890</text><text xmlns="http://www.w3.org/2000/svg" x="987" y="175" transform="rotate(90.00,987,175)">Stargazers</text><path stroke-width="2" d="M 57.000000 346.000000 L 945 346" /><path stroke-width="2" d="M 57.000000 346.000000 L 945 346"></path><path stroke-width="2" d="M 58 346 L 58 351" /><path stroke-width="2" d="M 58 346 L 58 351"></path><text y="368" xmlns="http://www.w3.org/2000/svg" x="25">2023-04-02</text><path stroke-width="2" d="M 157 346 L 157 351" /><path stroke-width="2" d="M 157 346 L 157 351"></path><text x="124" y="368" xmlns="http://www.w3.org/2000/svg">2023-06-20</text><path stroke-width="2" d="M 256 346 L 256 351" /><path stroke-width="2" d="M 256 346 L 256 351"></path><text x="223" y="368" xmlns="http://www.w3.org/2000/svg">2023-09-06</text><path stroke-width="2" d="M 354 346 L 354 351" /><path stroke-width="2" d="M 354 346 L 354 351"></path><text xmlns="http://www.w3.org/2000/svg" x="321" y="368">2023-11-24</text><path stroke-width="2" d="M 453 346 L 453 351" /><path d="M 453 346 L 453 351" stroke-width="2"></path><text xmlns="http://www.w3.org/2000/svg" x="420" y="368">2024-02-11</text><path stroke-width="2" d="M 551 346 L 551 351" /><path stroke-width="2" d="M 551 346 L 551 351"></path><text xmlns="http://www.w3.org/2000/svg" x="518" y="368">2024-04-30</text><path stroke-width="2" d="M 650 346 L 650 351" /><path stroke-width="2" d="M 650 346 L 650 351"></path><text xmlns="http://www.w3.org/2000/svg" x="617" y="368">2024-07-18</text><path stroke-width="2" d="M 748 346 L 748 351" /><path stroke-width="2" d="M 748 346 L 748 351"></path><text xmlns="http://www.w3.org/2000/svg" x="715" y="368">2024-10-04</text><path stroke-width="2" d="M 847 346 L 847 351" /><path stroke-width="2" d="M 847 346 L 847 351"></path><text xmlns="http://www.w3.org/2000/svg" x="814" y="368">2024-12-22</text><path stroke-width="2" d="M 945 346 L 945 351" /><path stroke-width="2" d="M 945 346 L 945 351"></path><text xmlns="http://www.w3.org/2000/svg" x="912" y="368">2025-03-11</text><text xmlns="http://www.w3.org/2000/svg" x="487" y="390">Time</text></svg>