<svg xmlns="http://www.w3.org/2000/svg" xmlns:xlink="http://www.w3.org/1999/xlink" width="1024px" height="400px"><style type="text/css">
path { fill: none; stroke: rgb(51,51,51); }
path.series { stroke: #6b63ff; }
rect.background { fill: rgb(255,255,255); stroke: none; }

text {
	stroke-width: 0;
	stroke: none;
	fill: rgba(51,51,51,1.0);
	font-size: 12.8px;
	font-family: 'Roboto Medium', sans-serif;
}
</style><rect y="0" width="1024px" height="400px" class="background" rx="8" x="0" /><rect x="0" y="0" width="1024px" height="400px" class="background" rx="8"></rect><path stroke-width="2" class="series" d="M 58 345 L 61 345 L 76 344 L 76 344 L 76 344 L 76 343 L 76 343 L 76 343 L 76 342 L 76 342 L 77 341 L 77 341 L 77 341 L 77 340 L 77 340 L 77 340 L 77 339 L 77 339 L 77 338 L 78 338 L 79 338 L 79 337 L 80 337 L 81 337 L 81 336 L 81 336 L 81 335 L 82 335 L 84 335 L 84 334 L 85 334 L 86 334 L 91 333 L 91 333 L 91 333 L 91 332 L 91 332 L 94 331 L 95 331 L 96 331 L 98 330 L 102 330 L 104 330 L 110 329 L 113 329 L 116 328 L 120 328 L 122 328 L 136 327 L 137 327 L 137 327 L 139 326 L 139 326 L 139 325 L 139 325 L 139 325 L 139 324 L 139 324 L 139 324 L 139 323 L 139 323 L 139 323 L 139 322 L 140 322 L 140 321 L 140 321 L 140 321 L 140 320 L 140 320 L 140 320 L 140 319 L 140 319 L 140 318 L 140 318 L 140 318 L 140 317 L 140 317 L 140 317 L 140 316 L 140 316 L 140 315 L 140 315 L 140 315 L 140 314 L 140 314 L 140 314 L 140 313 L 140 313 L 140 313 L 140 312 L 140 312 L 140 311 L 140 311 L 140 311 L 140 310 L 140 310 L 140 310 L 140 309 L 141 309 L 141 308 L 141 308 L 141 308 L 141 307 L 141 307 L 142 307 L 142 306 L 142 306 L 142 305 L 142 305 L 142 305 L 142 304 L 142 304 L 142 304 L 142 303 L 142 303 L 142 302 L 142 302 L 142 302 L 142 301 L 142 301 L 142 301 L 143 300 L 143 300 L 144 300 L 144 299 L 144 299 L 144 298 L 147 298 L 148 298 L 148 297 L 149 297 L 149 297 L 151 296 L 154 296 L 154 295 L 156 295 L 157 295 L 159 294 L 159 294 L 159 294 L 162 293 L 162 293 L 163 292 L 164 292 L 164 292 L 165 291 L 165 291 L 165 291 L 166 290 L 167 290 L 168 290 L 168 289 L 169 289 L 169 288 L 169 288 L 170 288 L 172 287 L 173 287 L 175 287 L 176 286 L 177 286 L 178 285 L 178 285 L 178 285 L 179 284 L 185 284 L 186 284 L 187 283 L 192 283 L 193 282 L 193 282 L 193 282 L 193 281 L 194 281 L 196 281 L 197 280 L 197 280 L 204 280 L 205 279 L 207 279 L 209 278 L 211 278 L 211 278 L 212 277 L 217 277 L 222 277 L 229 276 L 229 276 L 229 275 L 229 275 L 230 275 L 231 274 L 239 274 L 243 274 L 244 273 L 247 273 L 247 272 L 248 272 L 257 272 L 257 271 L 258 271 L 258 271 L 260 270 L 262 270 L 263 269 L 265 269 L 266 269 L 268 268 L 274 268 L 274 268 L 275 267 L 275 267 L 275 267 L 276 266 L 278 266 L 284 265 L 295 265 L 300 265 L 302 264 L 302 264 L 304 264 L 305 263 L 305 263 L 305 262 L 305 262 L 305 262 L 305 261 L 305 261 L 305 261 L 305 260 L 305 260 L 305 259 L 305 259 L 306 259 L 306 258 L 306 258 L 308 258 L 308 257 L 309 257 L 309 257 L 309 256 L 310 256 L 310 255 L 310 255 L 310 255 L 310 254 L 310 254 L 310 254 L 311 253 L 312 253 L 312 252 L 312 252 L 312 252 L 313 251 L 313 251 L 314 251 L 314 250 L 314 250 L 314 249 L 315 249 L 315 249 L 315 248 L 316 248 L 317 248 L 318 247 L 319 247 L 322 247 L 322 246 L 322 246 L 322 245 L 322 245 L 323 245 L 323 244 L 324 244 L 325 244 L 327 243 L 327 243 L 327 242 L 329 242 L 331 242 L 331 241 L 333 241 L 334 241 L 334 240 L 335 240 L 335 239 L 339 239 L 340 239 L 340 238 L 344 238 L 345 238 L 349 237 L 350 237 L 350 236 L 351 236 L 352 236 L 352 235 L 354 235 L 356 235 L 358 234 L 358 234 L 359 234 L 361 233 L 361 233 L 361 232 L 361 232 L 361 232 L 362 231 L 362 231 L 363 231 L 363 230 L 363 230 L 364 229 L 368 229 L 373 229 L 373 228 L 373 228 L 376 228 L 378 227 L 379 227 L 379 226 L 380 226 L 382 226 L 382 225 L 382 225 L 382 225 L 382 224 L 382 224 L 382 224 L 383 223 L 383 223 L 383 222 L 386 222 L 386 222 L 386 221 L 386 221 L 386 221 L 386 220 L 386 220 L 386 219 L 386 219 L 386 219 L 387 218 L 387 218 L 387 218 L 391 217 L 393 217 L 393 216 L 394 216 L 404 216 L 405 215 L 408 215 L 411 215 L 417 214 L 419 214 L 421 214 L 422 213 L 422 213 L 422 212 L 422 212 L 422 212 L 422 211 L 422 211 L 423 211 L 424 210 L 432 210 L 434 209 L 437 209 L 443 209 L 447 208 L 451 208 L 453 208 L 458 207 L 458 207 L 467 206 L 476 206 L 476 206 L 482 205 L 483 205 L 488 205 L 489 204 L 491 204 L 491 203 L 492 203 L 492 203 L 495 202 L 496 202 L 499 202 L 502 201 L 503 201 L 504 201 L 505 200 L 508 200 L 511 199 L 511 199 L 515 199 L 519 198 L 520 198 L 520 198 L 522 197 L 523 197 L 524 196 L 527 196 L 529 196 L 532 195 L 534 195 L 534 195 L 539 194 L 540 194 L 542 193 L 547 193 L 547 193 L 552 192 L 552 192 L 553 192 L 554 191 L 554 191 L 557 191 L 557 190 L 559 190 L 562 189 L 562 189 L 563 189 L 563 188 L 571 188 L 571 188 L 571 187 L 571 187 L 572 186 L 573 186 L 573 186 L 573 185 L 574 185 L 575 185 L 576 184 L 577 184 L 578 183 L 578 183 L 579 183 L 580 182 L 580 182 L 580 182 L 581 181 L 581 181 L 581 181 L 581 180 L 582 180 L 582 179 L 583 179 L 584 179 L 584 178 L 585 178 L 586 178 L 586 177 L 587 177 L 588 176 L 588 176 L 589 176 L 590 175 L 592 175 L 592 175 L 592 174 L 593 174 L 595 173 L 595 173 L 595 173 L 595 172 L 596 172 L 596 172 L 596 171 L 596 171 L 597 170 L 598 170 L 601 170 L 602 169 L 603 169 L 603 169 L 606 168 L 607 168 L 608 168 L 610 167 L 612 167 L 615 166 L 617 166 L 618 166 L 618 165 L 618 165 L 618 165 L 619 164 L 619 164 L 619 163 L 620 163 L 620 163 L 621 162 L 621 162 L 622 162 L 623 161 L 623 161 L 624 160 L 624 160 L 627 160 L 627 159 L 628 159 L 628 159 L 629 158 L 632 158 L 634 158 L 638 157 L 638 157 L 638 156 L 638 156 L 641 156 L 643 155 L 643 155 L 643 155 L 643 154 L 644 154 L 646 153 L 649 153 L 649 153 L 649 152 L 649 152 L 651 152 L 652 151 L 652 151 L 652 150 L 655 150 L 658 150 L 658 149 L 662 149 L 663 149 L 663 148 L 667 148 L 668 148 L 671 147 L 673 147 L 674 146 L 675 146 L 675 146 L 676 145 L 676 145 L 676 145 L 676 144 L 677 144 L 677 143 L 678 143 L 678 143 L 678 142 L 679 142 L 680 142 L 681 141 L 681 141 L 686 140 L 686 140 L 691 140 L 694 139 L 694 139 L 695 139 L 695 138 L 698 138 L 698 137 L 699 137 L 699 137 L 700 136 L 700 136 L 700 136 L 700 135 L 700 135 L 701 135 L 701 134 L 701 134 L 701 133 L 701 133 L 702 133 L 702 132 L 704 132 L 704 132 L 705 131 L 705 131 L 706 130 L 706 130 L 706 130 L 707 129 L 709 129 L 711 129 L 711 128 L 711 128 L 712 127 L 712 127 L 713 127 L 713 126 L 713 126 L 714 126 L 716 125 L 719 125 L 722 125 L 723 124 L 724 124 L 728 123 L 731 123 L 732 123 L 734 122 L 739 122 L 739 122 L 739 121 L 744 121 L 745 120 L 746 120 L 746 120 L 746 119 L 755 119 L 755 119 L 756 118 L 756 118 L 757 117 L 758 117 L 759 117 L 759 116 L 759 116 L 760 116 L 760 115 L 761 115 L 761 115 L 762 114 L 762 114 L 762 113 L 762 113 L 762 113 L 762 112 L 764 112 L 765 112 L 766 111 L 766 111 L 767 110 L 768 110 L 768 110 L 769 109 L 769 109 L 770 109 L 770 108 L 771 108 L 771 107 L 773 107 L 773 107 L 774 106 L 774 106 L 775 106 L 776 105 L 776 105 L 777 104 L 777 104 L 777 104 L 778 103 L 778 103 L 778 103 L 779 102 L 779 102 L 781 102 L 781 101 L 781 101 L 782 100 L 782 100 L 782 100 L 783 99 L 783 99 L 783 99 L 784 98 L 784 98 L 784 97 L 785 97 L 786 97 L 786 96 L 786 96 L 786 96 L 786 95 L 786 95 L 787 94 L 787 94 L 787 94 L 787 93 L 789 93 L 790 93 L 793 92 L 793 92 L 793 92 L 793 91 L 794 91 L 795 90 L 796 90 L 797 90 L 799 89 L 802 89 L 802 89 L 804 88 L 804 88 L 804 87 L 805 87 L 806 87 L 806 86 L 806 86 L 806 86 L 806 85 L 806 85 L 806 84 L 806 84 L 807 84 L 807 83 L 807 83 L 807 83 L 807 82 L 807 82 L 808 82 L 808 81 L 808 81 L 809 80 L 810 80 L 811 80 L 812 79 L 812 79 L 812 79 L 814 78 L 814 78 L 814 77 L 817 77 L 818 77 L 818 76 L 818 76 L 818 76 L 818 75 L 821 75 L 823 74 L 824 74 L 825 74 L 825 73 L 826 73 L 826 73 L 827 72 L 832 72 L 834 71 L 837 71 L 839 71 L 840 70 L 841 70 L 842 70 L 842 69 L 842 69 L 842 69 L 843 68 L 844 68 L 844 67 L 845 67 L 846 67 L 848 66 L 848 66 L 848 66 L 848 65 L 848 65 L 848 64 L 848 64 L 848 64 L 848 63 L 848 63 L 848 63 L 848 62 L 848 62 L 848 61 L 848 61 L 848 61 L 848 60 L 849 60 L 849 60 L 850 59 L 850 59 L 850 59 L 850 58 L 850 58 L 851 57 L 851 57 L 851 57 L 852 56 L 852 56 L 852 56 L 852 55 L 852 55 L 852 54 L 853 54 L 855 54 L 857 53 L 857 53 L 857 53 L 859 52 L 859 52 L 859 51 L 860 51 L 862 51 L 863 50 L 865 50 L 865 50 L 865 49 L 865 49 L 865 49 L 865 48 L 865 48 L 867 47 L 867 47 L 867 47 L 871 46 L 873 46 L 875 46 L 877 45 L 878 45 L 879 44 L 879 44 L 880 44 L 880 43 L 880 43 L 881 43 L 881 42 L 882 42 L 883 41 L 883 41 L 883 41 L 883 40 L 883 40 L 884 40 L 884 39 L 884 39 L 884 38 L 884 38 L 885 38 L 885 37 L 886 37 L 887 37 L 887 36 L 888 36 L 888 36 L 888 35 L 889 35 L 890 34 L 890 34 L 890 34 L 891 33 L 891 33 L 892 33 L 896 32 L 897 32 L 898 31 L 901 31 L 902 31 L 904 30 L 907 30 L 907 30 L 908 29 L 911 29 L 917 28 L 917 28 L 919 28 L 921 27 L 924 27 L 924 27 L 924 26 L 926 26 L 927 26 L 928 25 L 929 25 L 930 24 L 932 24 L 932 24 L 933 23 L 933 23 L 934 23 L 934 22 L 935 22 L 939 21 L 939 21 L 940 21 L 942 20 L 942 20 L 943 20 L 944 19 L 945 19 L 945 18 L 945 18 L 945 18" /><path d="M 58 345 L 61 345 L 76 344 L 76 344 L 76 344 L 76 343 L 76 343 L 76 343 L 76 342 L 76 342 L 77 341 L 77 341 L 77 341 L 77 340 L 77 340 L 77 340 L 77 339 L 77 339 L 77 338 L 78 338 L 79 338 L 79 337 L 80 337 L 81 337 L 81 336 L 81 336 L 81 335 L 82 335 L 84 335 L 84 334 L 85 334 L 86 334 L 91 333 L 91 333 L 91 333 L 91 332 L 91 332 L 94 331 L 95 331 L 96 331 L 98 330 L 102 330 L 104 330 L 110 329 L 113 329 L 116 328 L 120 328 L 122 328 L 136 327 L 137 327 L 137 327 L 139 326 L 139 326 L 139 325 L 139 325 L 139 325 L 139 324 L 139 324 L 139 324 L 139 323 L 139 323 L 139 323 L 139 322 L 140 322 L 140 321 L 140 321 L 140 321 L 140 320 L 140 320 L 140 320 L 140 319 L 140 319 L 140 318 L 140 318 L 140 318 L 140 317 L 140 317 L 140 317 L 140 316 L 140 316 L 140 315 L 140 315 L 140 315 L 140 314 L 140 314 L 140 314 L 140 313 L 140 313 L 140 313 L 140 312 L 140 312 L 140 311 L 140 311 L 140 311 L 140 310 L 140 310 L 140 310 L 140 309 L 141 309 L 141 308 L 141 308 L 141 308 L 141 307 L 141 307 L 142 307 L 142 306 L 142 306 L 142 305 L 142 305 L 142 305 L 142 304 L 142 304 L 142 304 L 142 303 L 142 303 L 142 302 L 142 302 L 142 302 L 142 301 L 142 301 L 142 301 L 143 300 L 143 300 L 144 300 L 144 299 L 144 299 L 144 298 L 147 298 L 148 298 L 148 297 L 149 297 L 149 297 L 151 296 L 154 296 L 154 295 L 156 295 L 157 295 L 159 294 L 159 294 L 159 294 L 162 293 L 162 293 L 163 292 L 164 292 L 164 292 L 165 291 L 165 291 L 165 291 L 166 290 L 167 290 L 168 290 L 168 289 L 169 289 L 169 288 L 169 288 L 170 288 L 172 287 L 173 287 L 175 287 L 176 286 L 177 286 L 178 285 L 178 285 L 178 285 L 179 284 L 185 284 L 186 284 L 187 283 L 192 283 L 193 282 L 193 282 L 193 282 L 193 281 L 194 281 L 196 281 L 197 280 L 197 280 L 204 280 L 205 279 L 207 279 L 209 278 L 211 278 L 211 278 L 212 277 L 217 277 L 222 277 L 229 276 L 229 276 L 229 275 L 229 275 L 230 275 L 231 274 L 239 274 L 243 274 L 244 273 L 247 273 L 247 272 L 248 272 L 257 272 L 257 271 L 258 271 L 258 271 L 260 270 L 262 270 L 263 269 L 265 269 L 266 269 L 268 268 L 274 268 L 274 268 L 275 267 L 275 267 L 275 267 L 276 266 L 278 266 L 284 265 L 295 265 L 300 265 L 302 264 L 302 264 L 304 264 L 305 263 L 305 263 L 305 262 L 305 262 L 305 262 L 305 261 L 305 261 L 305 261 L 305 260 L 305 260 L 305 259 L 305 259 L 306 259 L 306 258 L 306 258 L 308 258 L 308 257 L 309 257 L 309 257 L 309 256 L 310 256 L 310 255 L 310 255 L 310 255 L 310 254 L 310 254 L 310 254 L 311 253 L 312 253 L 312 252 L 312 252 L 312 252 L 313 251 L 313 251 L 314 251 L 314 250 L 314 250 L 314 249 L 315 249 L 315 249 L 315 248 L 316 248 L 317 248 L 318 247 L 319 247 L 322 247 L 322 246 L 322 246 L 322 245 L 322 245 L 323 245 L 323 244 L 324 244 L 325 244 L 327 243 L 327 243 L 327 242 L 329 242 L 331 242 L 331 241 L 333 241 L 334 241 L 334 240 L 335 240 L 335 239 L 339 239 L 340 239 L 340 238 L 344 238 L 345 238 L 349 237 L 350 237 L 350 236 L 351 236 L 352 236 L 352 235 L 354 235 L 356 235 L 358 234 L 358 234 L 359 234 L 361 233 L 361 233 L 361 232 L 361 232 L 361 232 L 362 231 L 362 231 L 363 231 L 363 230 L 363 230 L 364 229 L 368 229 L 373 229 L 373 228 L 373 228 L 376 228 L 378 227 L 379 227 L 379 226 L 380 226 L 382 226 L 382 225 L 382 225 L 382 225 L 382 224 L 382 224 L 382 224 L 383 223 L 383 223 L 383 222 L 386 222 L 386 222 L 386 221 L 386 221 L 386 221 L 386 220 L 386 220 L 386 219 L 386 219 L 386 219 L 387 218 L 387 218 L 387 218 L 391 217 L 393 217 L 393 216 L 394 216 L 404 216 L 405 215 L 408 215 L 411 215 L 417 214 L 419 214 L 421 214 L 422 213 L 422 213 L 422 212 L 422 212 L 422 212 L 422 211 L 422 211 L 423 211 L 424 210 L 432 210 L 434 209 L 437 209 L 443 209 L 447 208 L 451 208 L 453 208 L 458 207 L 458 207 L 467 206 L 476 206 L 476 206 L 482 205 L 483 205 L 488 205 L 489 204 L 491 204 L 491 203 L 492 203 L 492 203 L 495 202 L 496 202 L 499 202 L 502 201 L 503 201 L 504 201 L 505 200 L 508 200 L 511 199 L 511 199 L 515 199 L 519 198 L 520 198 L 520 198 L 522 197 L 523 197 L 524 196 L 527 196 L 529 196 L 532 195 L 534 195 L 534 195 L 539 194 L 540 194 L 542 193 L 547 193 L 547 193 L 552 192 L 552 192 L 553 192 L 554 191 L 554 191 L 557 191 L 557 190 L 559 190 L 562 189 L 562 189 L 563 189 L 563 188 L 571 188 L 571 188 L 571 187 L 571 187 L 572 186 L 573 186 L 573 186 L 573 185 L 574 185 L 575 185 L 576 184 L 577 184 L 578 183 L 578 183 L 579 183 L 580 182 L 580 182 L 580 182 L 581 181 L 581 181 L 581 181 L 581 180 L 582 180 L 582 179 L 583 179 L 584 179 L 584 178 L 585 178 L 586 178 L 586 177 L 587 177 L 588 176 L 588 176 L 589 176 L 590 175 L 592 175 L 592 175 L 592 174 L 593 174 L 595 173 L 595 173 L 595 173 L 595 172 L 596 172 L 596 172 L 596 171 L 596 171 L 597 170 L 598 170 L 601 170 L 602 169 L 603 169 L 603 169 L 606 168 L 607 168 L 608 168 L 610 167 L 612 167 L 615 166 L 617 166 L 618 166 L 618 165 L 618 165 L 618 165 L 619 164 L 619 164 L 619 163 L 620 163 L 620 163 L 621 162 L 621 162 L 622 162 L 623 161 L 623 161 L 624 160 L 624 160 L 627 160 L 627 159 L 628 159 L 628 159 L 629 158 L 632 158 L 634 158 L 638 157 L 638 157 L 638 156 L 638 156 L 641 156 L 643 155 L 643 155 L 643 155 L 643 154 L 644 154 L 646 153 L 649 153 L 649 153 L 649 152 L 649 152 L 651 152 L 652 151 L 652 151 L 652 150 L 655 150 L 658 150 L 658 149 L 662 149 L 663 149 L 663 148 L 667 148 L 668 148 L 671 147 L 673 147 L 674 146 L 675 146 L 675 146 L 676 145 L 676 145 L 676 145 L 676 144 L 677 144 L 677 143 L 678 143 L 678 143 L 678 142 L 679 142 L 680 142 L 681 141 L 681 141 L 686 140 L 686 140 L 691 140 L 694 139 L 694 139 L 695 139 L 695 138 L 698 138 L 698 137 L 699 137 L 699 137 L 700 136 L 700 136 L 700 136 L 700 135 L 700 135 L 701 135 L 701 134 L 701 134 L 701 133 L 701 133 L 702 133 L 702 132 L 704 132 L 704 132 L 705 131 L 705 131 L 706 130 L 706 130 L 706 130 L 707 129 L 709 129 L 711 129 L 711 128 L 711 128 L 712 127 L 712 127 L 713 127 L 713 126 L 713 126 L 714 126 L 716 125 L 719 125 L 722 125 L 723 124 L 724 124 L 728 123 L 731 123 L 732 123 L 734 122 L 739 122 L 739 122 L 739 121 L 744 121 L 745 120 L 746 120 L 746 120 L 746 119 L 755 119 L 755 119 L 756 118 L 756 118 L 757 117 L 758 117 L 759 117 L 759 116 L 759 116 L 760 116 L 760 115 L 761 115 L 761 115 L 762 114 L 762 114 L 762 113 L 762 113 L 762 113 L 762 112 L 764 112 L 765 112 L 766 111 L 766 111 L 767 110 L 768 110 L 768 110 L 769 109 L 769 109 L 770 109 L 770 108 L 771 108 L 771 107 L 773 107 L 773 107 L 774 106 L 774 106 L 775 106 L 776 105 L 776 105 L 777 104 L 777 104 L 777 104 L 778 103 L 778 103 L 778 103 L 779 102 L 779 102 L 781 102 L 781 101 L 781 101 L 782 100 L 782 100 L 782 100 L 783 99 L 783 99 L 783 99 L 784 98 L 784 98 L 784 97 L 785 97 L 786 97 L 786 96 L 786 96 L 786 96 L 786 95 L 786 95 L 787 94 L 787 94 L 787 94 L 787 93 L 789 93 L 790 93 L 793 92 L 793 92 L 793 92 L 793 91 L 794 91 L 795 90 L 796 90 L 797 90 L 799 89 L 802 89 L 802 89 L 804 88 L 804 88 L 804 87 L 805 87 L 806 87 L 806 86 L 806 86 L 806 86 L 806 85 L 806 85 L 806 84 L 806 84 L 807 84 L 807 83 L 807 83 L 807 83 L 807 82 L 807 82 L 808 82 L 808 81 L 808 81 L 809 80 L 810 80 L 811 80 L 812 79 L 812 79 L 812 79 L 814 78 L 814 78 L 814 77 L 817 77 L 818 77 L 818 76 L 818 76 L 818 76 L 818 75 L 821 75 L 823 74 L 824 74 L 825 74 L 825 73 L 826 73 L 826 73 L 827 72 L 832 72 L 834 71 L 837 71 L 839 71 L 840 70 L 841 70 L 842 70 L 842 69 L 842 69 L 842 69 L 843 68 L 844 68 L 844 67 L 845 67 L 846 67 L 848 66 L 848 66 L 848 66 L 848 65 L 848 65 L 848 64 L 848 64 L 848 64 L 848 63 L 848 63 L 848 63 L 848 62 L 848 62 L 848 61 L 848 61 L 848 61 L 848 60 L 849 60 L 849 60 L 850 59 L 850 59 L 850 59 L 850 58 L 850 58 L 851 57 L 851 57 L 851 57 L 852 56 L 852 56 L 852 56 L 852 55 L 852 55 L 852 54 L 853 54 L 855 54 L 857 53 L 857 53 L 857 53 L 859 52 L 859 52 L 859 51 L 860 51 L 862 51 L 863 50 L 865 50 L 865 50 L 865 49 L 865 49 L 865 49 L 865 48 L 865 48 L 867 47 L 867 47 L 867 47 L 871 46 L 873 46 L 875 46 L 877 45 L 878 45 L 879 44 L 879 44 L 880 44 L 880 43 L 880 43 L 881 43 L 881 42 L 882 42 L 883 41 L 883 41 L 883 41 L 883 40 L 883 40 L 884 40 L 884 39 L 884 39 L 884 38 L 884 38 L 885 38 L 885 37 L 886 37 L 887 37 L 887 36 L 888 36 L 888 36 L 888 35 L 889 35 L 890 34 L 890 34 L 890 34 L 891 33 L 891 33 L 892 33 L 896 32 L 897 32 L 898 31 L 901 31 L 902 31 L 904 30 L 907 30 L 907 30 L 908 29 L 911 29 L 917 28 L 917 28 L 919 28 L 921 27 L 924 27 L 924 27 L 924 26 L 926 26 L 927 26 L 928 25 L 929 25 L 930 24 L 932 24 L 932 24 L 933 23 L 933 23 L 934 23 L 934 22 L 935 22 L 939 21 L 939 21 L 940 21 L 942 20 L 942 20 L 943 20 L 944 19 L 945 19 L 945 18 L 945 18 L 945 18" stroke-width="2" class="series"></path><path stroke-width="2" d="M 945 346 L 945.000000 15.000000" /><path stroke-width="2" d="M 945 346 L 945.000000 15.000000"></path><path stroke-width="2" d="M 945 346 L 950 346" /><path stroke-width="2" d="M 945 346 L 950 346"></path><text xmlns="http://www.w3.org/2000/svg" x="955" y="352">0</text><path stroke-width="2" d="M 945 309 L 950 309" /><path d="M 945 309 L 950 309" stroke-width="2"></path><text xmlns="http://www.w3.org/2000/svg" x="955" y="315">99</text><path stroke-width="2" d="M 945 272 L 950 272" /><path stroke-width="2" d="M 945 272 L 950 272"></path><text xmlns="http://www.w3.org/2000/svg" x="955" y="278">198</text><path stroke-width="2" d="M 945 235 L 950 235" /><path d="M 945 235 L 950 235" stroke-width="2"></path><text xmlns="http://www.w3.org/2000/svg" x="955" y="241">297</text><path stroke-width="2" d="M 945 199 L 950 199" /><path stroke-width="2" d="M 945 199 L 950 199"></path><text xmlns="http://www.w3.org/2000/svg" x="955" y="205">396</text><path stroke-width="2" d="M 945 162 L 950 162" /><path stroke-width="2" d="M 945 162 L 950 162"></path><text x="955" y="168" xmlns="http://www.w3.org/2000/svg">495</text><path stroke-width="2" d="M 945 125 L 950 125" /><path d="M 945 125 L 950 125" stroke-width="2"></path><text y="131" xmlns="http://www.w3.org/2000/svg" x="955">594</text><path stroke-width="2" d="M 945 89 L 950 89" /><path stroke-width="2" d="M 945 89 L 950 89"></path><text xmlns="http://www.w3.org/2000/svg" x="955" y="95">693</text><path stroke-width="2" d="M 945 52 L 950 52" /><path stroke-width="2" d="M 945 52 L 950 52"></path><text xmlns="http://www.w3.org/2000/svg" x="955" y="58">792</text><path stroke-width="2" d="M 945 16 L 950 16" /><path stroke-width="2" d="M 945 16 L 950 16"></path><text x="955" y="22" xmlns="http://www.w3.org/2000/svg">890</text><text xmlns="http://www.w3.org/2000/svg" x="987" y="175" transform="rotate(90.00,987,175)">Stargazers</text><path stroke-width="2" d="M 57.000000 346.000000 L 945 346" /><path stroke-width="2" d="M 57.000000 346.000000 L 945 346"></path><path stroke-width="2" d="M 58 346 L 58 351" /><path stroke-width="2" d="M 58 346 L 58 351"></path><text x="25" y="368" xmlns="http://www.w3.org/2000/svg">2023-04-02</text><path stroke-width="2" d="M 157 346 L 157 351" /><path stroke-width="2" d="M 157 346 L 157 351"></path><text xmlns="http://www.w3.org/2000/svg" x="124" y="368">2023-06-19</text><path stroke-width="2" d="M 256 346 L 256 351" /><path stroke-width="2" d="M 256 346 L 256 351"></path><text y="368" xmlns="http://www.w3.org/2000/svg" x="223">2023-09-06</text><path stroke-width="2" d="M 354 346 L 354 351" /><path stroke-width="2" d="M 354 346 L 354 351"></path><text xmlns="http://www.w3.org/2000/svg" x="321" y="368">2023-11-23</text><path d="M 453 346 L 453 351" stroke-width="2" /><path stroke-width="2" d="M 453 346 L 453 351"></path><text x="420" y="368" xmlns="http://www.w3.org/2000/svg">2024-02-09</text><path stroke-width="2" d="M 551 346 L 551 351" /><path stroke-width="2" d="M 551 346 L 551 351"></path><text xmlns="http://www.w3.org/2000/svg" x="518" y="368">2024-04-28</text><path stroke-width="2" d="M 650 346 L 650 351" /><path stroke-width="2" d="M 650 346 L 650 351"></path><text xmlns="http://www.w3.org/2000/svg" x="617" y="368">2024-07-15</text><path stroke-width="2" d="M 748 346 L 748 351" /><path stroke-width="2" d="M 748 346 L 748 351"></path><text xmlns="http://www.w3.org/2000/svg" x="715" y="368">2024-10-01</text><path stroke-width="2" d="M 847 346 L 847 351" /><path stroke-width="2" d="M 847 346 L 847 351"></path><text xmlns="http://www.w3.org/2000/svg" x="814" y="368">2024-12-19</text><path stroke-width="2" d="M 945 346 L 945 351" /><path stroke-width="2" d="M 945 346 L 945 351"></path><text xmlns="http://www.w3.org/2000/svg" x="912" y="368">2025-03-07</text><text y="390" xmlns="http://www.w3.org/2000/svg" x="487">Time</text></svg>