<svg xmlns="http://www.w3.org/2000/svg" xmlns:xlink="http://www.w3.org/1999/xlink" width="1024px" height="400px"><style type="text/css">
path { fill: none; stroke: rgb(51,51,51); }
path.series { stroke: #6b63ff; }
rect.background { fill: rgb(255,255,255); stroke: none; }

text {
	stroke-width: 0;
	stroke: none;
	fill: rgba(51,51,51,1.0);
	font-size: 12.8px;
	font-family: 'Roboto Medium', sans-serif;
}
</style><rect class="background" rx="8" x="0" y="0" width="1024px" height="400px" /><rect rx="8" x="0" y="0" width="1024px" height="400px" class="background"></rect><path class="series" d="M 58 345 L 61 344 L 80 344 L 81 343 L 81 343 L 81 342 L 81 342 L 81 341 L 81 341 L 81 340 L 81 340 L 81 339 L 81 339 L 81 338 L 82 338 L 82 337 L 82 337 L 82 336 L 82 336 L 83 335 L 84 335 L 84 334 L 85 334 L 86 333 L 86 333 L 86 332 L 87 332 L 88 331 L 90 331 L 90 330 L 92 330 L 93 329 L 99 329 L 99 328 L 99 328 L 99 327 L 99 327 L 99 326 L 103 326 L 104 325 L 105 325 L 108 324 L 113 324 L 115 323 L 123 323 L 126 322 L 130 322 L 135 321 L 137 321 L 155 320 L 156 320 L 156 319 L 158 319 L 159 318 L 159 318 L 159 317 L 159 317 L 159 316 L 159 316 L 159 315 L 159 315 L 159 314 L 159 314 L 159 313 L 159 313 L 160 312 L 160 311 L 160 311 L 160 310 L 160 310 L 160 309 L 160 309 L 160 308 L 160 308 L 160 307 L 160 307 L 160 306 L 160 306 L 160 305 L 160 305 L 160 304 L 160 304 L 160 303 L 160 303 L 160 302 L 160 302 L 160 301 L 160 301 L 160 300 L 160 300 L 160 299 L 160 299 L 160 298 L 160 298 L 160 297 L 160 297 L 160 296 L 160 296 L 161 295 L 161 295 L 161 294 L 161 294 L 161 293 L 161 293 L 162 292 L 162 292 L 163 291 L 163 291 L 163 290 L 163 290 L 163 289 L 163 289 L 163 288 L 163 288 L 163 287 L 163 287 L 163 286 L 163 286 L 163 285 L 163 285 L 163 284 L 163 284 L 163 283 L 164 283 L 165 282 L 165 282 L 165 281 L 165 281 L 169 280 L 170 280 L 170 279 L 171 278 L 171 278 L 174 277 L 177 277 L 178 276 L 180 276 L 181 275 L 183 275 L 184 274 L 184 274 L 187 273 L 187 273 L 188 272 L 190 272 L 190 271 L 191 271 L 192 270 L 192 270 L 192 269 L 194 269 L 195 268 L 195 268 L 196 267 L 196 267 L 196 266 L 197 266 L 199 265 L 201 265 L 204 264 L 204 264 L 205 263 L 207 263 L 207 262 L 207 262 L 209 261 L 217 261 L 217 260 L 218 260 L 225 259 L 226 259 L 226 258 L 226 258 L 226 257 L 227 257 L 229 256 L 231 256 L 231 255 L 240 255 L 241 254 L 243 254 L 246 253 L 248 253 L 248 252 L 249 252 L 255 251 L 262 251 L 270 250 L 271 250 L 271 249 L 271 249 L 272 248 L 273 248 L 284 247 L 289 247 L 289 246 L 293 245 L 294 245 L 294 244 L 306 244 L 306 243 L 307 243 L 307 242 L 309 242 L 312 241 L 313 241 L 316 240 L 317 240 L 320 239 L 327 239 L 327 238 L 328 238 L 328 237 L 328 237 L 329 236 L 332 236 L 339 235 L 353 235 L 359 234 L 362 234 L 362 233 L 364 233 L 365 232 L 365 232 L 365 231 L 365 231 L 366 230 L 366 230 L 366 229 L 366 229 L 366 228 L 366 228 L 366 227 L 366 227 L 366 226 L 367 226 L 367 225 L 369 225 L 370 224 L 370 224 L 370 223 L 370 223 L 372 222 L 372 222 L 372 221 L 372 221 L 372 220 L 372 220 L 372 219 L 373 219 L 374 218 L 374 218 L 375 217 L 375 217 L 375 216 L 375 216 L 376 215 L 376 215 L 376 214 L 377 214 L 378 213 L 378 212 L 378 212 L 379 211 L 381 211 L 381 210 L 383 210 L 386 209 L 386 209 L 387 208 L 387 208 L 387 207 L 387 207 L 387 206 L 389 206 L 390 205 L 392 205 L 392 204 L 393 204 L 395 203 L 397 203 L 397 202 L 400 202 L 401 201 L 401 201 L 403 200 L 403 200 L 408 199 L 409 199 L 410 198 L 414 198 L 416 197 L 420 197 L 421 196 L 422 196 L 423 195 L 423 195 L 423 194 L 427 194 L 429 193 L 431 193 L 432 192 L 433 192 L 435 191 L 435 191 L 435 190 L 435 190 L 436 189 L 436 189 L 436 188 L 437 188 L 437 187 L 438 187 L 439 186 L 444 186 L 450 185 L 450 185 L 450 184 L 454 184 L 456 183 L 457 183 L 458 182 L 459 182 L 461 181 L 461 181 L 461 180 L 461 179 L 461 179 L 461 178 L 461 178 L 462 177 L 462 177 L 463 176 L 466 176 L 466 175 L 466 175 L 466 174 L 466 174 L 467 173 L 467 173 L 467 172 L 467 172 L 467 171 L 467 171 L 467 170 L 467 170 L 472 169 L 475 169 L 475 168 L 476 168 L 489 167 L 490 167 L 494 166 L 497 166 L 505 165 L 508 165 L 510 164 L 511 164 L 511 163 L 511 163 L 511 162 L 511 162 L 511 161 L 511 161 L 513 160 L 514 160 L 524 159 L 526 159 L 530 158 L 537 158 L 543 157 L 547 157 L 550 156 L 555 156 L 556 155 L 567 155 L 578 154 L 578 154 L 586 153 L 587 153 L 593 152 L 594 152 L 598 151 L 598 151 L 598 150 L 598 150 L 602 149 L 603 149 L 607 148 L 611 148 L 612 147 L 613 146 L 614 146 L 618 145 L 622 145 L 623 144 L 627 144 L 632 143 L 633 143 L 633 142 L 635 142 L 636 141 L 638 141 L 641 140 L 644 140 L 648 139 L 651 139 L 651 138 L 657 138 L 658 137 L 661 137 L 667 136 L 667 136 L 673 135 L 673 135 L 674 134 L 675 134 L 676 133 L 679 133 L 679 132 L 682 132 L 685 131 L 686 131 L 686 130 L 687 130 L 696 129 L 696 129 L 697 128 L 697 128 L 698 127 L 699 127 L 699 126 L 699 126 L 700 125 L 702 125 L 702 124 L 704 124 L 705 123 L 706 123 L 707 122 L 707 122 L 707 121 L 708 121 L 709 120 L 709 120 L 710 119 L 710 119 L 710 118 L 711 118 L 712 117 L 713 117 L 713 116 L 714 116 L 715 115 L 715 115 L 717 114 L 718 113 L 718 113 L 719 112 L 721 112 L 722 111 L 723 111 L 723 110 L 724 110 L 726 109 L 726 109 L 726 108 L 727 108 L 727 107 L 727 107 L 728 106 L 728 106 L 729 105 L 730 105 L 734 104 L 735 104 L 737 103 L 737 103 L 740 102 L 742 102 L 742 101 L 745 101 L 748 100 L 751 100 L 754 99 L 755 99 L 755 98 L 755 98 L 756 97 L 757 97 L 757 96 L 757 96 L 758 95 L 758 95 L 758 94 L 759 94 L 761 93 L 762 93 L 762 92 L 763 92 L 763 91 L 767 91 L 767 90 L 767 90 L 768 89 L 769 89 L 772 88 L 776 88 L 780 87 L 780 87 L 780 86 L 781 86 L 783 85 L 786 85 L 787 84 L 787 84 L 787 83 L 787 83 L 790 82 L 794 82 L 794 81 L 794 80 L 794 80 L 797 79 L 797 79 L 797 78 L 797 78 L 798 77 L 801 77 L 805 76 L 806 76 L 811 75 L 811 75 L 812 74 L 816 74 L 818 73 L 821 73 L 823 72 L 825 72 L 826 71 L 827 71 L 827 70 L 828 70 L 828 69 L 828 69 L 829 68 L 829 68 L 829 67 L 831 67 L 831 66 L 831 66 L 832 65 L 833 65 L 834 64 L 840 64 L 840 63 L 847 63 L 849 62 L 850 62 L 851 61 L 852 61 L 855 60 L 855 60 L 856 59 L 856 59 L 857 58 L 857 58 L 857 57 L 857 57 L 857 56 L 859 56 L 859 55 L 859 55 L 859 54 L 859 54 L 860 53 L 860 53 L 860 52 L 862 52 L 862 51 L 863 51 L 864 50 L 865 50 L 865 49 L 865 49 L 866 48 L 868 47 L 871 47 L 871 46 L 871 46 L 872 45 L 872 45 L 873 44 L 873 44 L 873 43 L 875 43 L 877 42 L 881 42 L 884 41 L 885 41 L 887 40 L 892 40 L 896 39 L 897 39 L 900 38 L 905 38 L 905 37 L 906 37 L 912 36 L 913 36 L 914 35 L 915 35 L 915 34 L 926 34 L 926 33 L 927 33 L 928 32 L 928 32 L 929 31 L 931 31 L 931 30 L 931 30 L 932 29 L 933 29 L 933 28 L 934 28 L 934 27 L 934 27 L 934 26 L 934 26 L 935 25 L 935 25 L 936 24 L 937 24 L 939 23 L 939 23 L 940 22 L 940 22 L 940 21 L 941 21 L 942 20 L 943 20 L 944 19 L 945 19 L 945 18 L 945 18 L 945 17" stroke-width="2" /><path stroke-width="2" class="series" d="M 58 345 L 61 344 L 80 344 L 81 343 L 81 343 L 81 342 L 81 342 L 81 341 L 81 341 L 81 340 L 81 340 L 81 339 L 81 339 L 81 338 L 82 338 L 82 337 L 82 337 L 82 336 L 82 336 L 83 335 L 84 335 L 84 334 L 85 334 L 86 333 L 86 333 L 86 332 L 87 332 L 88 331 L 90 331 L 90 330 L 92 330 L 93 329 L 99 329 L 99 328 L 99 328 L 99 327 L 99 327 L 99 326 L 103 326 L 104 325 L 105 325 L 108 324 L 113 324 L 115 323 L 123 323 L 126 322 L 130 322 L 135 321 L 137 321 L 155 320 L 156 320 L 156 319 L 158 319 L 159 318 L 159 318 L 159 317 L 159 317 L 159 316 L 159 316 L 159 315 L 159 315 L 159 314 L 159 314 L 159 313 L 159 313 L 160 312 L 160 311 L 160 311 L 160 310 L 160 310 L 160 309 L 160 309 L 160 308 L 160 308 L 160 307 L 160 307 L 160 306 L 160 306 L 160 305 L 160 305 L 160 304 L 160 304 L 160 303 L 160 303 L 160 302 L 160 302 L 160 301 L 160 301 L 160 300 L 160 300 L 160 299 L 160 299 L 160 298 L 160 298 L 160 297 L 160 297 L 160 296 L 160 296 L 161 295 L 161 295 L 161 294 L 161 294 L 161 293 L 161 293 L 162 292 L 162 292 L 163 291 L 163 291 L 163 290 L 163 290 L 163 289 L 163 289 L 163 288 L 163 288 L 163 287 L 163 287 L 163 286 L 163 286 L 163 285 L 163 285 L 163 284 L 163 284 L 163 283 L 164 283 L 165 282 L 165 282 L 165 281 L 165 281 L 169 280 L 170 280 L 170 279 L 171 278 L 171 278 L 174 277 L 177 277 L 178 276 L 180 276 L 181 275 L 183 275 L 184 274 L 184 274 L 187 273 L 187 273 L 188 272 L 190 272 L 190 271 L 191 271 L 192 270 L 192 270 L 192 269 L 194 269 L 195 268 L 195 268 L 196 267 L 196 267 L 196 266 L 197 266 L 199 265 L 201 265 L 204 264 L 204 264 L 205 263 L 207 263 L 207 262 L 207 262 L 209 261 L 217 261 L 217 260 L 218 260 L 225 259 L 226 259 L 226 258 L 226 258 L 226 257 L 227 257 L 229 256 L 231 256 L 231 255 L 240 255 L 241 254 L 243 254 L 246 253 L 248 253 L 248 252 L 249 252 L 255 251 L 262 251 L 270 250 L 271 250 L 271 249 L 271 249 L 272 248 L 273 248 L 284 247 L 289 247 L 289 246 L 293 245 L 294 245 L 294 244 L 306 244 L 306 243 L 307 243 L 307 242 L 309 242 L 312 241 L 313 241 L 316 240 L 317 240 L 320 239 L 327 239 L 327 238 L 328 238 L 328 237 L 328 237 L 329 236 L 332 236 L 339 235 L 353 235 L 359 234 L 362 234 L 362 233 L 364 233 L 365 232 L 365 232 L 365 231 L 365 231 L 366 230 L 366 230 L 366 229 L 366 229 L 366 228 L 366 228 L 366 227 L 366 227 L 366 226 L 367 226 L 367 225 L 369 225 L 370 224 L 370 224 L 370 223 L 370 223 L 372 222 L 372 222 L 372 221 L 372 221 L 372 220 L 372 220 L 372 219 L 373 219 L 374 218 L 374 218 L 375 217 L 375 217 L 375 216 L 375 216 L 376 215 L 376 215 L 376 214 L 377 214 L 378 213 L 378 212 L 378 212 L 379 211 L 381 211 L 381 210 L 383 210 L 386 209 L 386 209 L 387 208 L 387 208 L 387 207 L 387 207 L 387 206 L 389 206 L 390 205 L 392 205 L 392 204 L 393 204 L 395 203 L 397 203 L 397 202 L 400 202 L 401 201 L 401 201 L 403 200 L 403 200 L 408 199 L 409 199 L 410 198 L 414 198 L 416 197 L 420 197 L 421 196 L 422 196 L 423 195 L 423 195 L 423 194 L 427 194 L 429 193 L 431 193 L 432 192 L 433 192 L 435 191 L 435 191 L 435 190 L 435 190 L 436 189 L 436 189 L 436 188 L 437 188 L 437 187 L 438 187 L 439 186 L 444 186 L 450 185 L 450 185 L 450 184 L 454 184 L 456 183 L 457 183 L 458 182 L 459 182 L 461 181 L 461 181 L 461 180 L 461 179 L 461 179 L 461 178 L 461 178 L 462 177 L 462 177 L 463 176 L 466 176 L 466 175 L 466 175 L 466 174 L 466 174 L 467 173 L 467 173 L 467 172 L 467 172 L 467 171 L 467 171 L 467 170 L 467 170 L 472 169 L 475 169 L 475 168 L 476 168 L 489 167 L 490 167 L 494 166 L 497 166 L 505 165 L 508 165 L 510 164 L 511 164 L 511 163 L 511 163 L 511 162 L 511 162 L 511 161 L 511 161 L 513 160 L 514 160 L 524 159 L 526 159 L 530 158 L 537 158 L 543 157 L 547 157 L 550 156 L 555 156 L 556 155 L 567 155 L 578 154 L 578 154 L 586 153 L 587 153 L 593 152 L 594 152 L 598 151 L 598 151 L 598 150 L 598 150 L 602 149 L 603 149 L 607 148 L 611 148 L 612 147 L 613 146 L 614 146 L 618 145 L 622 145 L 623 144 L 627 144 L 632 143 L 633 143 L 633 142 L 635 142 L 636 141 L 638 141 L 641 140 L 644 140 L 648 139 L 651 139 L 651 138 L 657 138 L 658 137 L 661 137 L 667 136 L 667 136 L 673 135 L 673 135 L 674 134 L 675 134 L 676 133 L 679 133 L 679 132 L 682 132 L 685 131 L 686 131 L 686 130 L 687 130 L 696 129 L 696 129 L 697 128 L 697 128 L 698 127 L 699 127 L 699 126 L 699 126 L 700 125 L 702 125 L 702 124 L 704 124 L 705 123 L 706 123 L 707 122 L 707 122 L 707 121 L 708 121 L 709 120 L 709 120 L 710 119 L 710 119 L 710 118 L 711 118 L 712 117 L 713 117 L 713 116 L 714 116 L 715 115 L 715 115 L 717 114 L 718 113 L 718 113 L 719 112 L 721 112 L 722 111 L 723 111 L 723 110 L 724 110 L 726 109 L 726 109 L 726 108 L 727 108 L 727 107 L 727 107 L 728 106 L 728 106 L 729 105 L 730 105 L 734 104 L 735 104 L 737 103 L 737 103 L 740 102 L 742 102 L 742 101 L 745 101 L 748 100 L 751 100 L 754 99 L 755 99 L 755 98 L 755 98 L 756 97 L 757 97 L 757 96 L 757 96 L 758 95 L 758 95 L 758 94 L 759 94 L 761 93 L 762 93 L 762 92 L 763 92 L 763 91 L 767 91 L 767 90 L 767 90 L 768 89 L 769 89 L 772 88 L 776 88 L 780 87 L 780 87 L 780 86 L 781 86 L 783 85 L 786 85 L 787 84 L 787 84 L 787 83 L 787 83 L 790 82 L 794 82 L 794 81 L 794 80 L 794 80 L 797 79 L 797 79 L 797 78 L 797 78 L 798 77 L 801 77 L 805 76 L 806 76 L 811 75 L 811 75 L 812 74 L 816 74 L 818 73 L 821 73 L 823 72 L 825 72 L 826 71 L 827 71 L 827 70 L 828 70 L 828 69 L 828 69 L 829 68 L 829 68 L 829 67 L 831 67 L 831 66 L 831 66 L 832 65 L 833 65 L 834 64 L 840 64 L 840 63 L 847 63 L 849 62 L 850 62 L 851 61 L 852 61 L 855 60 L 855 60 L 856 59 L 856 59 L 857 58 L 857 58 L 857 57 L 857 57 L 857 56 L 859 56 L 859 55 L 859 55 L 859 54 L 859 54 L 860 53 L 860 53 L 860 52 L 862 52 L 862 51 L 863 51 L 864 50 L 865 50 L 865 49 L 865 49 L 866 48 L 868 47 L 871 47 L 871 46 L 871 46 L 872 45 L 872 45 L 873 44 L 873 44 L 873 43 L 875 43 L 877 42 L 881 42 L 884 41 L 885 41 L 887 40 L 892 40 L 896 39 L 897 39 L 900 38 L 905 38 L 905 37 L 906 37 L 912 36 L 913 36 L 914 35 L 915 35 L 915 34 L 926 34 L 926 33 L 927 33 L 928 32 L 928 32 L 929 31 L 931 31 L 931 30 L 931 30 L 932 29 L 933 29 L 933 28 L 934 28 L 934 27 L 934 27 L 934 26 L 934 26 L 935 25 L 935 25 L 936 24 L 937 24 L 939 23 L 939 23 L 940 22 L 940 22 L 940 21 L 941 21 L 942 20 L 943 20 L 944 19 L 945 19 L 945 18 L 945 18 L 945 17"></path><path stroke-width="2" d="M 945 346 L 945.000000 15.000000" /><path stroke-width="2" d="M 945 346 L 945.000000 15.000000"></path><path stroke-width="2" d="M 945 346 L 950 346" /><path stroke-width="2" d="M 945 346 L 950 346"></path><text y="352" xmlns="http://www.w3.org/2000/svg" x="955">0</text><path d="M 945 308 L 950 308" stroke-width="2" /><path stroke-width="2" d="M 945 308 L 950 308"></path><text xmlns="http://www.w3.org/2000/svg" x="955" y="314">73</text><path stroke-width="2" d="M 945 272 L 950 272" /><path stroke-width="2" d="M 945 272 L 950 272"></path><text xmlns="http://www.w3.org/2000/svg" x="955" y="278">145</text><path stroke-width="2" d="M 945 235 L 950 235" /><path stroke-width="2" d="M 945 235 L 950 235"></path><text xmlns="http://www.w3.org/2000/svg" x="955" y="241">217</text><path stroke-width="2" d="M 945 199 L 950 199" /><path stroke-width="2" d="M 945 199 L 950 199"></path><text xmlns="http://www.w3.org/2000/svg" x="955" y="205">289</text><path stroke-width="2" d="M 945 162 L 950 162" /><path d="M 945 162 L 950 162" stroke-width="2"></path><text y="168" xmlns="http://www.w3.org/2000/svg" x="955">362</text><path stroke-width="2" d="M 945 125 L 950 125" /><path stroke-width="2" d="M 945 125 L 950 125"></path><text xmlns="http://www.w3.org/2000/svg" x="955" y="131">434</text><path d="M 945 89 L 950 89" stroke-width="2" /><path stroke-width="2" d="M 945 89 L 950 89"></path><text xmlns="http://www.w3.org/2000/svg" x="955" y="95">506</text><path stroke-width="2" d="M 945 52 L 950 52" /><path stroke-width="2" d="M 945 52 L 950 52"></path><text xmlns="http://www.w3.org/2000/svg" x="955" y="58">578</text><path stroke-width="2" d="M 945 16 L 950 16" /><path stroke-width="2" d="M 945 16 L 950 16"></path><text xmlns="http://www.w3.org/2000/svg" x="955" y="22">650</text><text xmlns="http://www.w3.org/2000/svg" x="987" y="175" transform="rotate(90.00,987,175)">Stargazers</text><path stroke-width="2" d="M 57.000000 346.000000 L 945 346" /><path stroke-width="2" d="M 57.000000 346.000000 L 945 346"></path><path stroke-width="2" d="M 58 346 L 58 351" /><path stroke-width="2" d="M 58 346 L 58 351"></path><text xmlns="http://www.w3.org/2000/svg" x="25" y="368">2023-04-02</text><path stroke-width="2" d="M 157 346 L 157 351" /><path stroke-width="2" d="M 157 346 L 157 351"></path><text xmlns="http://www.w3.org/2000/svg" x="124" y="368">2023-06-04</text><path stroke-width="2" d="M 256 346 L 256 351" /><path d="M 256 346 L 256 351" stroke-width="2"></path><text x="223" y="368" xmlns="http://www.w3.org/2000/svg">2023-08-06</text><path stroke-width="2" d="M 354 346 L 354 351" /><path stroke-width="2" d="M 354 346 L 354 351"></path><text xmlns="http://www.w3.org/2000/svg" x="321" y="368">2023-10-08</text><path d="M 453 346 L 453 351" stroke-width="2" /><path d="M 453 346 L 453 351" stroke-width="2"></path><text xmlns="http://www.w3.org/2000/svg" x="420" y="368">2023-12-10</text><path stroke-width="2" d="M 551 346 L 551 351" /><path d="M 551 346 L 551 351" stroke-width="2"></path><text xmlns="http://www.w3.org/2000/svg" x="518" y="368">2024-02-11</text><path stroke-width="2" d="M 650 346 L 650 351" /><path d="M 650 346 L 650 351" stroke-width="2"></path><text xmlns="http://www.w3.org/2000/svg" x="617" y="368">2024-04-13</text><path stroke-width="2" d="M 748 346 L 748 351" /><path stroke-width="2" d="M 748 346 L 748 351"></path><text xmlns="http://www.w3.org/2000/svg" x="715" y="368">2024-06-15</text><path stroke-width="2" d="M 847 346 L 847 351" /><path d="M 847 346 L 847 351" stroke-width="2"></path><text xmlns="http://www.w3.org/2000/svg" x="814" y="368">2024-08-17</text><path stroke-width="2" d="M 945 346 L 945 351" /><path stroke-width="2" d="M 945 346 L 945 351"></path><text xmlns="http://www.w3.org/2000/svg" x="912" y="368">2024-10-19</text><text xmlns="http://www.w3.org/2000/svg" x="487" y="390">Time</text></svg>