<svg xmlns="http://www.w3.org/2000/svg" xmlns:xlink="http://www.w3.org/1999/xlink" width="1024px" height="400px"><style type="text/css">
path { fill: none; stroke: rgb(51,51,51); }
path.series { stroke: #6b63ff; }
rect.background { fill: rgb(255,255,255); stroke: none; }

text {
	stroke-width: 0;
	stroke: none;
	fill: rgba(51,51,51,1.0);
	font-size: 12.8px;
	font-family: 'Roboto Medium', sans-serif;
}
</style><rect class="background" rx="8" x="0" y="0" width="1024px" height="400px" /><rect x="0" y="0" width="1024px" height="400px" class="background" rx="8"></rect><path stroke-width="2" class="series" d="M 58 345 L 60 345 L 71 345 L 72 344 L 72 344 L 72 344 L 72 344 L 72 343 L 72 343 L 72 343 L 72 342 L 72 342 L 72 342 L 72 342 L 72 341 L 72 341 L 72 341 L 72 341 L 72 340 L 73 340 L 73 340 L 73 339 L 74 339 L 75 339 L 75 339 L 75 338 L 75 338 L 76 338 L 77 338 L 77 337 L 78 337 L 79 337 L 82 336 L 82 336 L 82 336 L 82 336 L 83 335 L 85 335 L 85 335 L 86 335 L 88 334 L 91 334 L 92 334 L 97 333 L 98 333 L 101 333 L 104 333 L 105 332 L 116 332 L 116 332 L 117 331 L 118 331 L 118 331 L 118 331 L 118 330 L 118 330 L 118 330 L 118 330 L 118 329 L 118 329 L 118 329 L 118 328 L 118 328 L 118 328 L 118 328 L 118 327 L 118 327 L 118 327 L 118 327 L 118 326 L 118 326 L 118 326 L 118 325 L 118 325 L 118 325 L 118 325 L 118 324 L 118 324 L 118 324 L 118 324 L 118 323 L 118 323 L 118 323 L 118 322 L 118 322 L 118 322 L 118 322 L 118 321 L 118 321 L 118 321 L 118 320 L 118 320 L 118 320 L 118 320 L 118 319 L 119 319 L 119 319 L 119 319 L 119 318 L 119 318 L 119 318 L 119 317 L 119 317 L 119 317 L 120 317 L 120 316 L 120 316 L 120 316 L 120 316 L 120 315 L 120 315 L 120 315 L 120 314 L 120 314 L 120 314 L 120 314 L 120 313 L 120 313 L 120 313 L 120 313 L 120 312 L 120 312 L 121 312 L 121 311 L 121 311 L 121 311 L 124 311 L 124 310 L 124 310 L 125 310 L 125 309 L 127 309 L 128 309 L 129 309 L 130 308 L 131 308 L 132 308 L 132 308 L 133 307 L 134 307 L 134 307 L 135 306 L 136 306 L 136 306 L 137 306 L 137 305 L 137 305 L 137 305 L 138 305 L 139 304 L 139 304 L 139 304 L 140 303 L 140 303 L 140 303 L 142 303 L 142 302 L 144 302 L 145 302 L 145 302 L 146 301 L 146 301 L 146 301 L 147 300 L 152 300 L 152 300 L 153 300 L 157 299 L 157 299 L 157 299 L 157 298 L 157 298 L 158 298 L 159 298 L 160 297 L 160 297 L 165 297 L 166 297 L 168 296 L 169 296 L 170 296 L 170 295 L 171 295 L 175 295 L 179 295 L 183 294 L 184 294 L 184 294 L 184 294 L 184 293 L 191 293 L 194 293 L 194 292 L 197 292 L 197 292 L 198 292 L 204 291 L 204 291 L 205 291 L 205 291 L 206 290 L 209 290 L 210 290 L 211 289 L 213 289 L 216 289 L 217 289 L 217 288 L 217 288 L 218 288 L 218 287 L 220 287 L 224 287 L 232 287 L 236 286 L 237 286 L 238 286 L 239 286 L 239 285 L 239 285 L 239 285 L 239 284 L 239 284 L 240 284 L 240 284 L 240 283 L 240 283 L 240 283 L 240 283 L 240 282 L 240 282 L 240 282 L 242 281 L 242 281 L 242 281 L 242 281 L 243 280 L 243 280 L 243 280 L 243 280 L 243 279 L 243 279 L 243 279 L 244 278 L 244 278 L 245 278 L 245 278 L 245 277 L 245 277 L 245 277 L 246 276 L 246 276 L 246 276 L 247 276 L 247 275 L 247 275 L 248 275 L 248 275 L 249 274 L 250 274 L 252 274 L 252 273 L 252 273 L 252 273 L 252 273 L 252 272 L 252 272 L 254 272 L 254 272 L 255 271 L 255 271 L 256 271 L 257 270 L 258 270 L 258 270 L 260 270 L 260 269 L 261 269 L 261 269 L 261 269 L 265 268 L 265 268 L 265 268 L 268 267 L 269 267 L 272 267 L 272 267 L 273 266 L 273 266 L 274 266 L 274 265 L 276 265 L 277 265 L 278 265 L 278 264 L 280 264 L 280 264 L 280 264 L 280 263 L 281 263 L 281 263 L 281 262 L 282 262 L 282 262 L 282 262 L 283 261 L 286 261 L 289 261 L 289 261 L 289 260 L 292 260 L 293 260 L 294 259 L 294 259 L 295 259 L 296 259 L 296 258 L 296 258 L 296 258 L 296 258 L 296 257 L 296 257 L 296 257 L 296 256 L 297 256 L 299 256 L 299 256 L 299 255 L 299 255 L 299 255 L 299 254 L 299 254 L 299 254 L 299 254 L 299 253 L 299 253 L 299 253 L 299 253 L 302 252 L 304 252 L 304 252 L 305 251 L 312 251 L 313 251 L 315 251 L 317 250 L 323 250 L 325 250 L 325 250 L 325 249 L 325 249 L 325 249 L 325 248 L 325 248 L 326 248 L 327 248 L 333 247 L 334 247 L 336 247 L 341 247 L 344 246 L 346 246 L 348 246 L 351 245 L 352 245 L 358 245 L 365 245 L 365 244 L 370 244 L 370 244 L 374 243 L 374 243 L 376 243 L 376 243 L 377 242 L 377 242 L 379 242 L 380 242 L 382 241 L 384 241 L 385 241 L 386 240 L 386 240 L 388 240 L 391 240 L 391 239 L 394 239 L 397 239 L 397 239 L 397 238 L 398 238 L 399 238 L 400 237 L 402 237 L 404 237 L 406 237 L 407 236 L 408 236 L 411 236 L 412 236 L 414 235 L 417 235 L 417 235 L 421 234 L 421 234 L 421 234 L 422 234 L 422 233 L 424 233 L 424 233 L 426 232 L 428 232 L 428 232 L 429 232 L 429 231 L 434 231 L 434 231 L 435 231 L 435 230 L 435 230 L 436 230 L 436 229 L 436 229 L 437 229 L 438 229 L 438 228 L 439 228 L 440 228 L 440 228 L 441 227 L 441 227 L 441 227 L 442 226 L 442 226 L 442 226 L 442 226 L 442 225 L 442 225 L 443 225 L 443 225 L 444 224 L 445 224 L 445 224 L 445 223 L 446 223 L 447 223 L 447 223 L 448 222 L 448 222 L 449 222 L 450 221 L 450 221 L 450 221 L 452 221 L 452 220 L 452 220 L 453 220 L 453 220 L 453 219 L 453 219 L 453 219 L 454 218 L 454 218 L 457 218 L 457 218 L 458 217 L 459 217 L 460 217 L 461 217 L 462 216 L 463 216 L 465 216 L 467 215 L 469 215 L 469 215 L 469 215 L 469 214 L 469 214 L 470 214 L 470 214 L 470 213 L 471 213 L 471 213 L 471 212 L 471 212 L 472 212 L 473 212 L 473 211 L 474 211 L 474 211 L 476 210 L 476 210 L 476 210 L 477 210 L 478 209 L 479 209 L 484 209 L 484 209 L 484 208 L 484 208 L 486 208 L 487 207 L 488 207 L 488 207 L 488 207 L 488 206 L 489 206 L 492 206 L 492 206 L 492 205 L 492 205 L 494 205 L 494 204 L 494 204 L 494 204 L 496 204 L 499 203 L 499 203 L 502 203 L 502 203 L 503 202 L 505 202 L 506 202 L 508 201 L 509 201 L 510 201 L 511 201 L 511 200 L 512 200 L 512 200 L 512 199 L 512 199 L 513 199 L 513 199 L 513 198 L 514 198 L 514 198 L 514 198 L 515 197 L 515 197 L 516 197 L 519 196 L 519 196 L 523 196 L 525 196 L 525 195 L 525 195 L 526 195 L 528 195 L 529 194 L 529 194 L 529 194 L 529 193 L 529 193 L 529 193 L 529 193 L 530 192 L 530 192 L 530 192 L 530 192 L 530 191 L 531 191 L 531 191 L 532 190 L 532 190 L 533 190 L 533 190 L 534 189 L 534 189 L 534 189 L 535 188 L 536 188 L 538 188 L 538 188 L 538 187 L 538 187 L 538 187 L 539 187 L 539 186 L 539 186 L 540 186 L 541 185 L 543 185 L 545 185 L 546 185 L 547 184 L 550 184 L 552 184 L 553 184 L 555 183 L 558 183 L 558 183 L 558 182 L 561 182 L 562 182 L 563 182 L 563 181 L 563 181 L 570 181 L 570 181 L 571 180 L 571 180 L 571 180 L 572 179 L 573 179 L 573 179 L 573 179 L 574 178 L 574 178 L 574 178 L 574 177 L 575 177 L 575 177 L 575 177 L 575 176 L 575 176 L 575 176 L 576 176 L 577 175 L 578 175 L 578 175 L 578 174 L 579 174 L 579 174 L 580 174 L 580 173 L 581 173 L 581 173 L 581 173 L 581 172 L 583 172 L 583 172 L 584 171 L 584 171 L 585 171 L 585 171 L 585 170 L 586 170 L 586 170 L 586 170 L 586 169 L 587 169 L 587 169 L 588 168 L 588 168 L 589 168 L 589 168 L 589 167 L 589 167 L 589 167 L 590 166 L 590 166 L 590 166 L 590 166 L 591 165 L 591 165 L 591 165 L 592 165 L 592 164 L 592 164 L 592 164 L 592 163 L 592 163 L 593 163 L 593 163 L 593 162 L 593 162 L 593 162 L 595 162 L 596 161 L 598 161 L 598 161 L 598 160 L 598 160 L 599 160 L 599 160 L 600 159 L 600 159 L 602 159 L 604 159 L 604 158 L 605 158 L 606 158 L 606 157 L 607 157 L 607 157 L 607 157 L 607 156 L 607 156 L 607 156 L 607 155 L 607 155 L 608 155 L 608 155 L 608 154 L 608 154 L 608 154 L 609 154 L 609 153 L 609 153 L 609 153 L 610 152 L 611 152 L 611 152 L 612 152 L 612 151 L 613 151 L 613 151 L 613 151 L 616 150 L 616 150 L 616 150 L 616 149 L 616 149 L 618 149 L 620 149 L 620 148 L 621 148 L 622 148 L 622 148 L 622 147 L 622 147 L 626 147 L 628 146 L 630 146 L 631 146 L 632 146 L 633 145 L 633 145 L 634 145 L 634 144 L 634 144 L 634 144 L 635 144 L 635 143 L 635 143 L 636 143 L 638 143 L 638 142 L 638 142 L 638 142 L 638 141 L 638 141 L 638 141 L 638 141 L 638 140 L 638 140 L 638 140 L 638 140 L 638 139 L 638 139 L 638 139 L 638 138 L 638 138 L 639 138 L 639 138 L 639 137 L 639 137 L 639 137 L 639 137 L 639 136 L 640 136 L 640 136 L 640 135 L 641 135 L 641 135 L 641 135 L 641 134 L 641 134 L 641 134 L 642 133 L 643 133 L 645 133 L 645 133 L 645 132 L 646 132 L 646 132 L 646 132 L 647 131 L 649 131 L 649 131 L 650 130 L 650 130 L 650 130 L 650 130 L 650 129 L 650 129 L 650 129 L 652 129 L 652 128 L 652 128 L 655 128 L 657 127 L 658 127 L 660 127 L 660 127 L 661 126 L 661 126 L 661 126 L 661 126 L 662 125 L 662 125 L 662 125 L 663 124 L 664 124 L 664 124 L 664 124 L 664 123 L 664 123 L 664 123 L 664 122 L 664 122 L 664 122 L 665 122 L 665 121 L 665 121 L 666 121 L 667 121 L 667 120 L 667 120 L 668 120 L 668 119 L 668 119 L 669 119 L 669 119 L 669 118 L 669 118 L 670 118 L 671 118 L 674 117 L 675 117 L 677 117 L 678 116 L 679 116 L 681 116 L 681 116 L 682 115 L 684 115 L 689 115 L 689 115 L 690 114 L 692 114 L 694 114 L 694 113 L 694 113 L 696 113 L 696 113 L 697 112 L 697 112 L 698 112 L 699 111 L 700 111 L 700 111 L 701 111 L 701 110 L 701 110 L 702 110 L 705 110 L 705 109 L 706 109 L 707 109 L 707 108 L 708 108 L 708 108 L 709 108 L 709 107 L 709 107 L 710 107 L 710 107 L 711 106 L 711 106 L 712 106 L 713 105 L 713 105 L 713 105 L 714 105 L 715 104 L 715 104 L 715 104 L 715 104 L 716 103 L 716 103 L 716 103 L 716 102 L 716 102 L 717 102 L 719 102 L 720 101 L 720 101 L 723 101 L 723 100 L 724 100 L 725 100 L 727 100 L 729 99 L 731 99 L 732 99 L 733 99 L 733 98 L 734 98 L 736 98 L 738 97 L 738 97 L 738 97 L 738 97 L 738 96 L 738 96 L 739 96 L 740 96 L 741 95 L 741 95 L 742 95 L 742 94 L 747 94 L 748 94 L 748 94 L 750 93 L 751 93 L 752 93 L 752 92 L 753 92 L 753 92 L 753 92 L 754 91 L 755 91 L 755 91 L 755 91 L 756 90 L 756 90 L 756 90 L 757 89 L 758 89 L 761 89 L 761 89 L 765 88 L 765 88 L 766 88 L 767 88 L 767 87 L 768 87 L 768 87 L 768 86 L 770 86 L 771 86 L 773 86 L 773 85 L 773 85 L 773 85 L 775 85 L 776 84 L 778 84 L 778 84 L 778 83 L 778 83 L 779 83 L 779 83 L 779 82 L 780 82 L 780 82 L 781 82 L 782 81 L 782 81 L 783 81 L 783 80 L 783 80 L 784 80 L 784 80 L 784 79 L 787 79 L 791 79 L 791 78 L 794 78 L 795 78 L 797 78 L 797 77 L 798 77 L 798 77 L 799 77 L 800 76 L 801 76 L 803 76 L 803 75 L 806 75 L 811 75 L 811 75 L 811 74 L 811 74 L 811 74 L 813 74 L 813 73 L 813 73 L 821 73 L 823 72 L 823 72 L 824 72 L 826 72 L 828 71 L 830 71 L 830 71 L 830 71 L 831 70 L 832 70 L 837 70 L 838 69 L 838 69 L 840 69 L 842 69 L 842 68 L 842 68 L 842 68 L 843 67 L 843 67 L 843 67 L 843 67 L 845 66 L 847 66 L 848 66 L 848 66 L 849 65 L 851 65 L 854 65 L 855 64 L 855 64 L 857 64 L 857 64 L 857 63 L 857 63 L 857 63 L 858 63 L 858 62 L 860 62 L 861 62 L 861 61 L 862 61 L 862 61 L 862 61 L 862 60 L 862 60 L 862 60 L 862 60 L 863 59 L 863 59 L 863 59 L 864 58 L 864 58 L 864 58 L 865 58 L 865 57 L 865 57 L 865 57 L 866 56 L 871 56 L 871 56 L 873 56 L 873 55 L 873 55 L 873 55 L 873 55 L 873 54 L 873 54 L 873 54 L 874 53 L 874 53 L 874 53 L 874 53 L 874 52 L 874 52 L 874 52 L 874 52 L 874 51 L 874 51 L 874 51 L 875 50 L 875 50 L 875 50 L 876 50 L 876 49 L 878 49 L 879 49 L 879 49 L 880 48 L 880 48 L 880 48 L 882 47 L 882 47 L 882 47 L 884 47 L 885 46 L 886 46 L 886 46 L 887 45 L 888 45 L 888 45 L 890 45 L 890 44 L 891 44 L 892 44 L 893 44 L 893 43 L 893 43 L 894 43 L 895 42 L 895 42 L 896 42 L 897 42 L 898 41 L 900 41 L 900 41 L 904 41 L 904 40 L 905 40 L 909 40 L 909 39 L 909 39 L 910 39 L 910 39 L 910 38 L 911 38 L 912 38 L 913 38 L 913 37 L 913 37 L 914 37 L 914 36 L 914 36 L 915 36 L 919 36 L 919 35 L 920 35 L 921 35 L 922 34 L 923 34 L 928 34 L 929 34 L 930 33 L 930 33 L 930 33 L 931 33 L 933 32 L 934 32 L 934 32 L 934 31 L 934 31 L 934 31 L 937 31" /><path stroke-width="2" class="series" d="M 58 345 L 60 345 L 71 345 L 72 344 L 72 344 L 72 344 L 72 344 L 72 343 L 72 343 L 72 343 L 72 342 L 72 342 L 72 342 L 72 342 L 72 341 L 72 341 L 72 341 L 72 341 L 72 340 L 73 340 L 73 340 L 73 339 L 74 339 L 75 339 L 75 339 L 75 338 L 75 338 L 76 338 L 77 338 L 77 337 L 78 337 L 79 337 L 82 336 L 82 336 L 82 336 L 82 336 L 83 335 L 85 335 L 85 335 L 86 335 L 88 334 L 91 334 L 92 334 L 97 333 L 98 333 L 101 333 L 104 333 L 105 332 L 116 332 L 116 332 L 117 331 L 118 331 L 118 331 L 118 331 L 118 330 L 118 330 L 118 330 L 118 330 L 118 329 L 118 329 L 118 329 L 118 328 L 118 328 L 118 328 L 118 328 L 118 327 L 118 327 L 118 327 L 118 327 L 118 326 L 118 326 L 118 326 L 118 325 L 118 325 L 118 325 L 118 325 L 118 324 L 118 324 L 118 324 L 118 324 L 118 323 L 118 323 L 118 323 L 118 322 L 118 322 L 118 322 L 118 322 L 118 321 L 118 321 L 118 321 L 118 320 L 118 320 L 118 320 L 118 320 L 118 319 L 119 319 L 119 319 L 119 319 L 119 318 L 119 318 L 119 318 L 119 317 L 119 317 L 119 317 L 120 317 L 120 316 L 120 316 L 120 316 L 120 316 L 120 315 L 120 315 L 120 315 L 120 314 L 120 314 L 120 314 L 120 314 L 120 313 L 120 313 L 120 313 L 120 313 L 120 312 L 120 312 L 121 312 L 121 311 L 121 311 L 121 311 L 124 311 L 124 310 L 124 310 L 125 310 L 125 309 L 127 309 L 128 309 L 129 309 L 130 308 L 131 308 L 132 308 L 132 308 L 133 307 L 134 307 L 134 307 L 135 306 L 136 306 L 136 306 L 137 306 L 137 305 L 137 305 L 137 305 L 138 305 L 139 304 L 139 304 L 139 304 L 140 303 L 140 303 L 140 303 L 142 303 L 142 302 L 144 302 L 145 302 L 145 302 L 146 301 L 146 301 L 146 301 L 147 300 L 152 300 L 152 300 L 153 300 L 157 299 L 157 299 L 157 299 L 157 298 L 157 298 L 158 298 L 159 298 L 160 297 L 160 297 L 165 297 L 166 297 L 168 296 L 169 296 L 170 296 L 170 295 L 171 295 L 175 295 L 179 295 L 183 294 L 184 294 L 184 294 L 184 294 L 184 293 L 191 293 L 194 293 L 194 292 L 197 292 L 197 292 L 198 292 L 204 291 L 204 291 L 205 291 L 205 291 L 206 290 L 209 290 L 210 290 L 211 289 L 213 289 L 216 289 L 217 289 L 217 288 L 217 288 L 218 288 L 218 287 L 220 287 L 224 287 L 232 287 L 236 286 L 237 286 L 238 286 L 239 286 L 239 285 L 239 285 L 239 285 L 239 284 L 239 284 L 240 284 L 240 284 L 240 283 L 240 283 L 240 283 L 240 283 L 240 282 L 240 282 L 240 282 L 242 281 L 242 281 L 242 281 L 242 281 L 243 280 L 243 280 L 243 280 L 243 280 L 243 279 L 243 279 L 243 279 L 244 278 L 244 278 L 245 278 L 245 278 L 245 277 L 245 277 L 245 277 L 246 276 L 246 276 L 246 276 L 247 276 L 247 275 L 247 275 L 248 275 L 248 275 L 249 274 L 250 274 L 252 274 L 252 273 L 252 273 L 252 273 L 252 273 L 252 272 L 252 272 L 254 272 L 254 272 L 255 271 L 255 271 L 256 271 L 257 270 L 258 270 L 258 270 L 260 270 L 260 269 L 261 269 L 261 269 L 261 269 L 265 268 L 265 268 L 265 268 L 268 267 L 269 267 L 272 267 L 272 267 L 273 266 L 273 266 L 274 266 L 274 265 L 276 265 L 277 265 L 278 265 L 278 264 L 280 264 L 280 264 L 280 264 L 280 263 L 281 263 L 281 263 L 281 262 L 282 262 L 282 262 L 282 262 L 283 261 L 286 261 L 289 261 L 289 261 L 289 260 L 292 260 L 293 260 L 294 259 L 294 259 L 295 259 L 296 259 L 296 258 L 296 258 L 296 258 L 296 258 L 296 257 L 296 257 L 296 257 L 296 256 L 297 256 L 299 256 L 299 256 L 299 255 L 299 255 L 299 255 L 299 254 L 299 254 L 299 254 L 299 254 L 299 253 L 299 253 L 299 253 L 299 253 L 302 252 L 304 252 L 304 252 L 305 251 L 312 251 L 313 251 L 315 251 L 317 250 L 323 250 L 325 250 L 325 250 L 325 249 L 325 249 L 325 249 L 325 248 L 325 248 L 326 248 L 327 248 L 333 247 L 334 247 L 336 247 L 341 247 L 344 246 L 346 246 L 348 246 L 351 245 L 352 245 L 358 245 L 365 245 L 365 244 L 370 244 L 370 244 L 374 243 L 374 243 L 376 243 L 376 243 L 377 242 L 377 242 L 379 242 L 380 242 L 382 241 L 384 241 L 385 241 L 386 240 L 386 240 L 388 240 L 391 240 L 391 239 L 394 239 L 397 239 L 397 239 L 397 238 L 398 238 L 399 238 L 400 237 L 402 237 L 404 237 L 406 237 L 407 236 L 408 236 L 411 236 L 412 236 L 414 235 L 417 235 L 417 235 L 421 234 L 421 234 L 421 234 L 422 234 L 422 233 L 424 233 L 424 233 L 426 232 L 428 232 L 428 232 L 429 232 L 429 231 L 434 231 L 434 231 L 435 231 L 435 230 L 435 230 L 436 230 L 436 229 L 436 229 L 437 229 L 438 229 L 438 228 L 439 228 L 440 228 L 440 228 L 441 227 L 441 227 L 441 227 L 442 226 L 442 226 L 442 226 L 442 226 L 442 225 L 442 225 L 443 225 L 443 225 L 444 224 L 445 224 L 445 224 L 445 223 L 446 223 L 447 223 L 447 223 L 448 222 L 448 222 L 449 222 L 450 221 L 450 221 L 450 221 L 452 221 L 452 220 L 452 220 L 453 220 L 453 220 L 453 219 L 453 219 L 453 219 L 454 218 L 454 218 L 457 218 L 457 218 L 458 217 L 459 217 L 460 217 L 461 217 L 462 216 L 463 216 L 465 216 L 467 215 L 469 215 L 469 215 L 469 215 L 469 214 L 469 214 L 470 214 L 470 214 L 470 213 L 471 213 L 471 213 L 471 212 L 471 212 L 472 212 L 473 212 L 473 211 L 474 211 L 474 211 L 476 210 L 476 210 L 476 210 L 477 210 L 478 209 L 479 209 L 484 209 L 484 209 L 484 208 L 484 208 L 486 208 L 487 207 L 488 207 L 488 207 L 488 207 L 488 206 L 489 206 L 492 206 L 492 206 L 492 205 L 492 205 L 494 205 L 494 204 L 494 204 L 494 204 L 496 204 L 499 203 L 499 203 L 502 203 L 502 203 L 503 202 L 505 202 L 506 202 L 508 201 L 509 201 L 510 201 L 511 201 L 511 200 L 512 200 L 512 200 L 512 199 L 512 199 L 513 199 L 513 199 L 513 198 L 514 198 L 514 198 L 514 198 L 515 197 L 515 197 L 516 197 L 519 196 L 519 196 L 523 196 L 525 196 L 525 195 L 525 195 L 526 195 L 528 195 L 529 194 L 529 194 L 529 194 L 529 193 L 529 193 L 529 193 L 529 193 L 530 192 L 530 192 L 530 192 L 530 192 L 530 191 L 531 191 L 531 191 L 532 190 L 532 190 L 533 190 L 533 190 L 534 189 L 534 189 L 534 189 L 535 188 L 536 188 L 538 188 L 538 188 L 538 187 L 538 187 L 538 187 L 539 187 L 539 186 L 539 186 L 540 186 L 541 185 L 543 185 L 545 185 L 546 185 L 547 184 L 550 184 L 552 184 L 553 184 L 555 183 L 558 183 L 558 183 L 558 182 L 561 182 L 562 182 L 563 182 L 563 181 L 563 181 L 570 181 L 570 181 L 571 180 L 571 180 L 571 180 L 572 179 L 573 179 L 573 179 L 573 179 L 574 178 L 574 178 L 574 178 L 574 177 L 575 177 L 575 177 L 575 177 L 575 176 L 575 176 L 575 176 L 576 176 L 577 175 L 578 175 L 578 175 L 578 174 L 579 174 L 579 174 L 580 174 L 580 173 L 581 173 L 581 173 L 581 173 L 581 172 L 583 172 L 583 172 L 584 171 L 584 171 L 585 171 L 585 171 L 585 170 L 586 170 L 586 170 L 586 170 L 586 169 L 587 169 L 587 169 L 588 168 L 588 168 L 589 168 L 589 168 L 589 167 L 589 167 L 589 167 L 590 166 L 590 166 L 590 166 L 590 166 L 591 165 L 591 165 L 591 165 L 592 165 L 592 164 L 592 164 L 592 164 L 592 163 L 592 163 L 593 163 L 593 163 L 593 162 L 593 162 L 593 162 L 595 162 L 596 161 L 598 161 L 598 161 L 598 160 L 598 160 L 599 160 L 599 160 L 600 159 L 600 159 L 602 159 L 604 159 L 604 158 L 605 158 L 606 158 L 606 157 L 607 157 L 607 157 L 607 157 L 607 156 L 607 156 L 607 156 L 607 155 L 607 155 L 608 155 L 608 155 L 608 154 L 608 154 L 608 154 L 609 154 L 609 153 L 609 153 L 609 153 L 610 152 L 611 152 L 611 152 L 612 152 L 612 151 L 613 151 L 613 151 L 613 151 L 616 150 L 616 150 L 616 150 L 616 149 L 616 149 L 618 149 L 620 149 L 620 148 L 621 148 L 622 148 L 622 148 L 622 147 L 622 147 L 626 147 L 628 146 L 630 146 L 631 146 L 632 146 L 633 145 L 633 145 L 634 145 L 634 144 L 634 144 L 634 144 L 635 144 L 635 143 L 635 143 L 636 143 L 638 143 L 638 142 L 638 142 L 638 142 L 638 141 L 638 141 L 638 141 L 638 141 L 638 140 L 638 140 L 638 140 L 638 140 L 638 139 L 638 139 L 638 139 L 638 138 L 638 138 L 639 138 L 639 138 L 639 137 L 639 137 L 639 137 L 639 137 L 639 136 L 640 136 L 640 136 L 640 135 L 641 135 L 641 135 L 641 135 L 641 134 L 641 134 L 641 134 L 642 133 L 643 133 L 645 133 L 645 133 L 645 132 L 646 132 L 646 132 L 646 132 L 647 131 L 649 131 L 649 131 L 650 130 L 650 130 L 650 130 L 650 130 L 650 129 L 650 129 L 650 129 L 652 129 L 652 128 L 652 128 L 655 128 L 657 127 L 658 127 L 660 127 L 660 127 L 661 126 L 661 126 L 661 126 L 661 126 L 662 125 L 662 125 L 662 125 L 663 124 L 664 124 L 664 124 L 664 124 L 664 123 L 664 123 L 664 123 L 664 122 L 664 122 L 664 122 L 665 122 L 665 121 L 665 121 L 666 121 L 667 121 L 667 120 L 667 120 L 668 120 L 668 119 L 668 119 L 669 119 L 669 119 L 669 118 L 669 118 L 670 118 L 671 118 L 674 117 L 675 117 L 677 117 L 678 116 L 679 116 L 681 116 L 681 116 L 682 115 L 684 115 L 689 115 L 689 115 L 690 114 L 692 114 L 694 114 L 694 113 L 694 113 L 696 113 L 696 113 L 697 112 L 697 112 L 698 112 L 699 111 L 700 111 L 700 111 L 701 111 L 701 110 L 701 110 L 702 110 L 705 110 L 705 109 L 706 109 L 707 109 L 707 108 L 708 108 L 708 108 L 709 108 L 709 107 L 709 107 L 710 107 L 710 107 L 711 106 L 711 106 L 712 106 L 713 105 L 713 105 L 713 105 L 714 105 L 715 104 L 715 104 L 715 104 L 715 104 L 716 103 L 716 103 L 716 103 L 716 102 L 716 102 L 717 102 L 719 102 L 720 101 L 720 101 L 723 101 L 723 100 L 724 100 L 725 100 L 727 100 L 729 99 L 731 99 L 732 99 L 733 99 L 733 98 L 734 98 L 736 98 L 738 97 L 738 97 L 738 97 L 738 97 L 738 96 L 738 96 L 739 96 L 740 96 L 741 95 L 741 95 L 742 95 L 742 94 L 747 94 L 748 94 L 748 94 L 750 93 L 751 93 L 752 93 L 752 92 L 753 92 L 753 92 L 753 92 L 754 91 L 755 91 L 755 91 L 755 91 L 756 90 L 756 90 L 756 90 L 757 89 L 758 89 L 761 89 L 761 89 L 765 88 L 765 88 L 766 88 L 767 88 L 767 87 L 768 87 L 768 87 L 768 86 L 770 86 L 771 86 L 773 86 L 773 85 L 773 85 L 773 85 L 775 85 L 776 84 L 778 84 L 778 84 L 778 83 L 778 83 L 779 83 L 779 83 L 779 82 L 780 82 L 780 82 L 781 82 L 782 81 L 782 81 L 783 81 L 783 80 L 783 80 L 784 80 L 784 80 L 784 79 L 787 79 L 791 79 L 791 78 L 794 78 L 795 78 L 797 78 L 797 77 L 798 77 L 798 77 L 799 77 L 800 76 L 801 76 L 803 76 L 803 75 L 806 75 L 811 75 L 811 75 L 811 74 L 811 74 L 811 74 L 813 74 L 813 73 L 813 73 L 821 73 L 823 72 L 823 72 L 824 72 L 826 72 L 828 71 L 830 71 L 830 71 L 830 71 L 831 70 L 832 70 L 837 70 L 838 69 L 838 69 L 840 69 L 842 69 L 842 68 L 842 68 L 842 68 L 843 67 L 843 67 L 843 67 L 843 67 L 845 66 L 847 66 L 848 66 L 848 66 L 849 65 L 851 65 L 854 65 L 855 64 L 855 64 L 857 64 L 857 64 L 857 63 L 857 63 L 857 63 L 858 63 L 858 62 L 860 62 L 861 62 L 861 61 L 862 61 L 862 61 L 862 61 L 862 60 L 862 60 L 862 60 L 862 60 L 863 59 L 863 59 L 863 59 L 864 58 L 864 58 L 864 58 L 865 58 L 865 57 L 865 57 L 865 57 L 866 56 L 871 56 L 871 56 L 873 56 L 873 55 L 873 55 L 873 55 L 873 55 L 873 54 L 873 54 L 873 54 L 874 53 L 874 53 L 874 53 L 874 53 L 874 52 L 874 52 L 874 52 L 874 52 L 874 51 L 874 51 L 874 51 L 875 50 L 875 50 L 875 50 L 876 50 L 876 49 L 878 49 L 879 49 L 879 49 L 880 48 L 880 48 L 880 48 L 882 47 L 882 47 L 882 47 L 884 47 L 885 46 L 886 46 L 886 46 L 887 45 L 888 45 L 888 45 L 890 45 L 890 44 L 891 44 L 892 44 L 893 44 L 893 43 L 893 43 L 894 43 L 895 42 L 895 42 L 896 42 L 897 42 L 898 41 L 900 41 L 900 41 L 904 41 L 904 40 L 905 40 L 909 40 L 909 39 L 909 39 L 910 39 L 910 39 L 910 38 L 911 38 L 912 38 L 913 38 L 913 37 L 913 37 L 914 37 L 914 36 L 914 36 L 915 36 L 919 36 L 919 35 L 920 35 L 921 35 L 922 34 L 923 34 L 928 34 L 929 34 L 930 33 L 930 33 L 930 33 L 931 33 L 933 32 L 934 32 L 934 32 L 934 31 L 934 31 L 934 31 L 937 31"></path><path stroke-width="2" d="M 937 346 L 937.000000 15.000000" /><path stroke-width="2" d="M 937 346 L 937.000000 15.000000"></path><path d="M 937 346 L 942 346" stroke-width="2" /><path stroke-width="2" d="M 937 346 L 942 346"></path><text x="947" y="352" xmlns="http://www.w3.org/2000/svg">0</text><path stroke-width="2" d="M 937 307 L 942 307" /><path stroke-width="2" d="M 937 307 L 942 307"></path><text xmlns="http://www.w3.org/2000/svg" x="947" y="313">140</text><path stroke-width="2" d="M 937 271 L 942 271" /><path stroke-width="2" d="M 937 271 L 942 271"></path><text xmlns="http://www.w3.org/2000/svg" x="947" y="277">270</text><path stroke-width="2" d="M 937 236 L 942 236" /><path stroke-width="2" d="M 937 236 L 942 236"></path><text xmlns="http://www.w3.org/2000/svg" x="947" y="242">400</text><path stroke-width="2" d="M 937 197 L 942 197" /><path stroke-width="2" d="M 937 197 L 942 197"></path><text xmlns="http://www.w3.org/2000/svg" x="947" y="203">540</text><path stroke-width="2" d="M 937 161 L 942 161" /><path d="M 937 161 L 942 161" stroke-width="2"></path><text xmlns="http://www.w3.org/2000/svg" x="947" y="167">670</text><path d="M 937 126 L 942 126" stroke-width="2" /><path stroke-width="2" d="M 937 126 L 942 126"></path><text x="947" y="132" xmlns="http://www.w3.org/2000/svg">800</text><path d="M 937 87 L 942 87" stroke-width="2" /><path stroke-width="2" d="M 937 87 L 942 87"></path><text xmlns="http://www.w3.org/2000/svg" x="947" y="93">940</text><path stroke-width="2" d="M 937 51 L 942 51" /><path stroke-width="2" d="M 937 51 L 942 51"></path><text xmlns="http://www.w3.org/2000/svg" x="947" y="57">1070</text><path stroke-width="2" d="M 937 16 L 942 16" /><path stroke-width="2" d="M 937 16 L 942 16"></path><text xmlns="http://www.w3.org/2000/svg" x="947" y="22">1200</text><text xmlns="http://www.w3.org/2000/svg" x="987" y="175" transform="rotate(90.00,987,175)">Stargazers</text><path stroke-width="2" d="M 57.000000 346.000000 L 937 346" /><path stroke-width="2" d="M 57.000000 346.000000 L 937 346"></path><path stroke-width="2" d="M 58 346 L 58 351" /><path stroke-width="2" d="M 58 346 L 58 351"></path><text xmlns="http://www.w3.org/2000/svg" x="25" y="368">2023-04-02</text><path stroke-width="2" d="M 156 346 L 156 351" /><path stroke-width="2" d="M 156 346 L 156 351"></path><text y="368" xmlns="http://www.w3.org/2000/svg" x="123">2023-07-17</text><path stroke-width="2" d="M 254 346 L 254 351" /><path stroke-width="2" d="M 254 346 L 254 351"></path><text xmlns="http://www.w3.org/2000/svg" x="221" y="368">2023-10-30</text><path stroke-width="2" d="M 352 346 L 352 351" /><path stroke-width="2" d="M 352 346 L 352 351"></path><text y="368" xmlns="http://www.w3.org/2000/svg" x="319">2024-02-13</text><path stroke-width="2" d="M 449 346 L 449 351" /><path stroke-width="2" d="M 449 346 L 449 351"></path><text xmlns="http://www.w3.org/2000/svg" x="416" y="368">2024-05-29</text><path d="M 547 346 L 547 351" stroke-width="2" /><path d="M 547 346 L 547 351" stroke-width="2"></path><text xmlns="http://www.w3.org/2000/svg" x="514" y="368">2024-09-12</text><path stroke-width="2" d="M 645 346 L 645 351" /><path stroke-width="2" d="M 645 346 L 645 351"></path><text xmlns="http://www.w3.org/2000/svg" x="612" y="368">2024-12-27</text><path d="M 742 346 L 742 351" stroke-width="2" /><path stroke-width="2" d="M 742 346 L 742 351"></path><text xmlns="http://www.w3.org/2000/svg" x="709" y="368">2025-04-11</text><path stroke-width="2" d="M 840 346 L 840 351" /><path stroke-width="2" d="M 840 346 L 840 351"></path><text xmlns="http://www.w3.org/2000/svg" x="807" y="368">2025-07-26</text><path d="M 937 346 L 937 351" stroke-width="2" /><path stroke-width="2" d="M 937 346 L 937 351"></path><text xmlns="http://www.w3.org/2000/svg" x="904" y="368">2025-11-09</text><text xmlns="http://www.w3.org/2000/svg" x="483" y="390">Time</text></svg>