<svg xmlns="http://www.w3.org/2000/svg" xmlns:xlink="http://www.w3.org/1999/xlink" width="1024px" height="400px"><style type="text/css">
path { fill: none; stroke: rgb(51,51,51); }
path.series { stroke: #6b63ff; }
rect.background { fill: rgb(255,255,255); stroke: none; }

text {
	stroke-width: 0;
	stroke: none;
	fill: rgba(51,51,51,1.0);
	font-size: 12.8px;
	font-family: 'Roboto Medium', sans-serif;
}
</style><rect class="background" rx="8" x="0" y="0" width="1024px" height="400px" /><rect x="0" y="0" width="1024px" height="400px" class="background" rx="8"></rect><path stroke-width="2" class="series" d="M 58 345 L 62 344 L 88 343 L 88 343 L 88 342 L 88 341 L 88 341 L 88 340 L 89 339 L 89 338 L 89 338 L 89 337 L 89 336 L 89 336 L 89 335 L 90 334 L 90 334 L 90 333 L 90 332 L 92 331 L 92 331 L 92 330 L 94 329 L 96 329 L 96 328 L 96 327 L 96 327 L 98 326 L 101 325 L 101 324 L 103 324 L 105 323 L 113 322 L 113 322 L 113 321 L 113 320 L 113 320 L 113 319 L 118 318 L 120 317 L 121 317 L 125 316 L 131 315 L 134 315 L 145 314 L 149 313 L 155 313 L 161 312 L 164 311 L 188 310 L 189 310 L 189 309 L 192 308 L 193 308 L 193 307 L 193 306 L 193 305 L 193 305 L 193 304 L 193 303 L 193 303 L 193 302 L 193 301 L 193 301 L 194 300 L 194 299 L 194 298 L 194 298 L 194 297 L 194 296 L 194 296 L 194 295 L 194 294 L 194 294 L 194 293 L 194 292 L 194 291 L 195 291 L 195 290 L 195 289 L 195 289 L 195 288 L 195 287 L 195 287 L 195 286 L 195 285 L 195 284 L 195 284 L 195 283 L 195 282 L 195 282 L 195 281 L 195 280 L 195 280 L 195 279 L 195 278 L 195 277 L 195 277 L 196 276 L 196 275 L 196 275 L 196 274 L 197 273 L 197 272 L 197 272 L 197 271 L 199 270 L 199 270 L 199 269 L 199 268 L 199 268 L 199 267 L 199 266 L 199 265 L 199 265 L 199 264 L 199 263 L 199 263 L 199 262 L 199 261 L 199 261 L 199 260 L 199 259 L 200 258 L 201 258 L 201 257 L 201 256 L 202 256 L 207 255 L 208 254 L 208 254 L 210 253 L 210 252 L 213 251 L 218 251 L 219 250 L 222 249 L 223 249 L 226 248 L 227 247 L 227 247 L 231 246 L 231 245 L 233 244 L 234 244 L 235 243 L 237 242 L 237 242 L 237 241 L 238 240 L 240 239 L 242 239 L 242 238 L 243 237 L 243 237 L 243 236 L 245 235 L 248 235 L 250 234 L 253 233 L 254 232 L 256 232 L 257 231 L 258 230 L 258 230 L 260 229 L 271 228 L 271 228 L 273 227 L 282 226 L 283 225 L 283 225 L 283 224 L 283 223 L 285 223 L 288 222 L 290 221 L 290 221 L 302 220 L 304 219 L 307 218 L 311 218 L 313 217 L 313 216 L 315 216 L 323 215 L 332 214 L 343 214 L 344 213 L 344 212 L 344 211 L 345 211 L 347 210 L 361 209 L 368 209 L 368 208 L 373 207 L 374 206 L 375 206 L 391 205 L 391 204 L 392 204 L 393 203 L 395 202 L 399 202 L 401 201 L 404 200 L 406 199 L 409 199 L 418 198 L 419 197 L 420 197 L 420 196 L 421 195 L 421 195 L 426 194 L 435 193 L 454 192 L 462 192 L 462 191 L 466 190 L 466 190 L 468 189 L 471 188 L 471 188 L 471 187 L 471 186 L 471 185 L 471 185 L 471 184 L 471 183 L 471 183 L 471 182 L 471 181 L 471 181 L 471 180 L 472 179 L 473 178 L 474 178 L 475 177 L 476 176 L 477 176 L 477 175 L 477 174 L 479 173 L 479 173 L 479 172 L 479 171 L 479 171 L 479 170 L 479 169 L 481 169 L 482 168 L 483 167 L 483 166 L 483 166 L 483 165 L 483 164 L 485 164 L 485 163 L 485 162 L 486 162 L 487 161 L 487 160 L 488 159 L 489 159 L 491 158 L 492 157 L 494 157 L 498 156 L 498 155 L 499 155 L 500 154 L 500 153 L 500 152 L 500 152 L 503 151 L 504 150 L 507 150 L 507 149 L 508 148 L 511 148 L 513 147 L 513 146 L 517 145 L 518 145 L 519 144 L 520 143 L 520 143 L 528 142 L 529 141 L 530 140 L 535 140 L 538 139 L 544 138 L 546 138 L 546 137 L 548 136 L 548 136 L 548 135 L 553 134 L 556 133 L 559 133 L 559 132 L 561 131 L 563 131 L 563 130 L 563 129 L 564 129 L 565 128 L 565 127 L 565 126 L 567 126 L 567 125 L 567 124 L 569 124 L 576 123 L 584 122 L 584 122 L 584 121 L 590 120 L 593 119 L 594 119 L 595 118 L 597 117 L 598 117 L 599 116 L 599 115 L 599 115 L 599 114 L 599 113 L 599 112 L 600 112 L 600 111 L 601 110 L 605 110 L 605 109 L 605 108 L 606 107 L 606 107 L 606 106 L 607 105 L 607 105 L 607 104 L 607 103 L 607 103 L 607 102 L 607 101 L 614 100 L 618 100 L 618 99 L 619 98 L 627 98 L 636 97 L 638 96 L 643 96 L 648 95 L 658 94 L 661 93 L 665 93 L 665 92 L 665 91 L 666 91 L 666 90 L 666 89 L 666 89 L 666 88 L 668 87 L 670 86 L 683 86 L 687 85 L 691 84 L 701 84 L 709 83 L 714 82 L 718 82 L 726 81 L 726 80 L 741 79 L 756 79 L 756 78 L 767 77 L 767 77 L 776 76 L 777 75 L 782 74 L 782 74 L 783 73 L 783 72 L 788 72 L 790 71 L 794 70 L 800 70 L 802 69 L 803 68 L 804 67 L 810 67 L 815 66 L 816 65 L 822 65 L 828 64 L 830 63 L 830 63 L 833 62 L 834 61 L 836 60 L 841 60 L 845 59 L 849 58 L 853 58 L 853 57 L 861 56 L 863 56 L 867 55 L 875 54 L 875 53 L 883 53 L 884 52 L 884 51 L 887 51 L 887 50 L 891 49 L 891 49 L 895 48 L 900 47 L 901 46 L 901 46 L 902 45 L 914 44 L 915 44 L 916 43 L 916 42 L 917 41 L 918 41 L 918 40 L 919 39 L 920 39 L 923 38 L 923 37 L 925 37 L 926 36 L 927 35 L 928 34 L 929 34 L 929 33 L 931 32 L 931 32 L 931 31 L 933 30 L 933 30 L 933 29 L 934 28 L 935 27 L 937 27 L 938 26 L 938 25 L 940 25 L 940 24 L 942 23 L 944 23 L 944 22 L 945 21" /><path stroke-width="2" class="series" d="M 58 345 L 62 344 L 88 343 L 88 343 L 88 342 L 88 341 L 88 341 L 88 340 L 89 339 L 89 338 L 89 338 L 89 337 L 89 336 L 89 336 L 89 335 L 90 334 L 90 334 L 90 333 L 90 332 L 92 331 L 92 331 L 92 330 L 94 329 L 96 329 L 96 328 L 96 327 L 96 327 L 98 326 L 101 325 L 101 324 L 103 324 L 105 323 L 113 322 L 113 322 L 113 321 L 113 320 L 113 320 L 113 319 L 118 318 L 120 317 L 121 317 L 125 316 L 131 315 L 134 315 L 145 314 L 149 313 L 155 313 L 161 312 L 164 311 L 188 310 L 189 310 L 189 309 L 192 308 L 193 308 L 193 307 L 193 306 L 193 305 L 193 305 L 193 304 L 193 303 L 193 303 L 193 302 L 193 301 L 193 301 L 194 300 L 194 299 L 194 298 L 194 298 L 194 297 L 194 296 L 194 296 L 194 295 L 194 294 L 194 294 L 194 293 L 194 292 L 194 291 L 195 291 L 195 290 L 195 289 L 195 289 L 195 288 L 195 287 L 195 287 L 195 286 L 195 285 L 195 284 L 195 284 L 195 283 L 195 282 L 195 282 L 195 281 L 195 280 L 195 280 L 195 279 L 195 278 L 195 277 L 195 277 L 196 276 L 196 275 L 196 275 L 196 274 L 197 273 L 197 272 L 197 272 L 197 271 L 199 270 L 199 270 L 199 269 L 199 268 L 199 268 L 199 267 L 199 266 L 199 265 L 199 265 L 199 264 L 199 263 L 199 263 L 199 262 L 199 261 L 199 261 L 199 260 L 199 259 L 200 258 L 201 258 L 201 257 L 201 256 L 202 256 L 207 255 L 208 254 L 208 254 L 210 253 L 210 252 L 213 251 L 218 251 L 219 250 L 222 249 L 223 249 L 226 248 L 227 247 L 227 247 L 231 246 L 231 245 L 233 244 L 234 244 L 235 243 L 237 242 L 237 242 L 237 241 L 238 240 L 240 239 L 242 239 L 242 238 L 243 237 L 243 237 L 243 236 L 245 235 L 248 235 L 250 234 L 253 233 L 254 232 L 256 232 L 257 231 L 258 230 L 258 230 L 260 229 L 271 228 L 271 228 L 273 227 L 282 226 L 283 225 L 283 225 L 283 224 L 283 223 L 285 223 L 288 222 L 290 221 L 290 221 L 302 220 L 304 219 L 307 218 L 311 218 L 313 217 L 313 216 L 315 216 L 323 215 L 332 214 L 343 214 L 344 213 L 344 212 L 344 211 L 345 211 L 347 210 L 361 209 L 368 209 L 368 208 L 373 207 L 374 206 L 375 206 L 391 205 L 391 204 L 392 204 L 393 203 L 395 202 L 399 202 L 401 201 L 404 200 L 406 199 L 409 199 L 418 198 L 419 197 L 420 197 L 420 196 L 421 195 L 421 195 L 426 194 L 435 193 L 454 192 L 462 192 L 462 191 L 466 190 L 466 190 L 468 189 L 471 188 L 471 188 L 471 187 L 471 186 L 471 185 L 471 185 L 471 184 L 471 183 L 471 183 L 471 182 L 471 181 L 471 181 L 471 180 L 472 179 L 473 178 L 474 178 L 475 177 L 476 176 L 477 176 L 477 175 L 477 174 L 479 173 L 479 173 L 479 172 L 479 171 L 479 171 L 479 170 L 479 169 L 481 169 L 482 168 L 483 167 L 483 166 L 483 166 L 483 165 L 483 164 L 485 164 L 485 163 L 485 162 L 486 162 L 487 161 L 487 160 L 488 159 L 489 159 L 491 158 L 492 157 L 494 157 L 498 156 L 498 155 L 499 155 L 500 154 L 500 153 L 500 152 L 500 152 L 503 151 L 504 150 L 507 150 L 507 149 L 508 148 L 511 148 L 513 147 L 513 146 L 517 145 L 518 145 L 519 144 L 520 143 L 520 143 L 528 142 L 529 141 L 530 140 L 535 140 L 538 139 L 544 138 L 546 138 L 546 137 L 548 136 L 548 136 L 548 135 L 553 134 L 556 133 L 559 133 L 559 132 L 561 131 L 563 131 L 563 130 L 563 129 L 564 129 L 565 128 L 565 127 L 565 126 L 567 126 L 567 125 L 567 124 L 569 124 L 576 123 L 584 122 L 584 122 L 584 121 L 590 120 L 593 119 L 594 119 L 595 118 L 597 117 L 598 117 L 599 116 L 599 115 L 599 115 L 599 114 L 599 113 L 599 112 L 600 112 L 600 111 L 601 110 L 605 110 L 605 109 L 605 108 L 606 107 L 606 107 L 606 106 L 607 105 L 607 105 L 607 104 L 607 103 L 607 103 L 607 102 L 607 101 L 614 100 L 618 100 L 618 99 L 619 98 L 627 98 L 636 97 L 638 96 L 643 96 L 648 95 L 658 94 L 661 93 L 665 93 L 665 92 L 665 91 L 666 91 L 666 90 L 666 89 L 666 89 L 666 88 L 668 87 L 670 86 L 683 86 L 687 85 L 691 84 L 701 84 L 709 83 L 714 82 L 718 82 L 726 81 L 726 80 L 741 79 L 756 79 L 756 78 L 767 77 L 767 77 L 776 76 L 777 75 L 782 74 L 782 74 L 783 73 L 783 72 L 788 72 L 790 71 L 794 70 L 800 70 L 802 69 L 803 68 L 804 67 L 810 67 L 815 66 L 816 65 L 822 65 L 828 64 L 830 63 L 830 63 L 833 62 L 834 61 L 836 60 L 841 60 L 845 59 L 849 58 L 853 58 L 853 57 L 861 56 L 863 56 L 867 55 L 875 54 L 875 53 L 883 53 L 884 52 L 884 51 L 887 51 L 887 50 L 891 49 L 891 49 L 895 48 L 900 47 L 901 46 L 901 46 L 902 45 L 914 44 L 915 44 L 916 43 L 916 42 L 917 41 L 918 41 L 918 40 L 919 39 L 920 39 L 923 38 L 923 37 L 925 37 L 926 36 L 927 35 L 928 34 L 929 34 L 929 33 L 931 32 L 931 32 L 931 31 L 933 30 L 933 30 L 933 29 L 934 28 L 935 27 L 937 27 L 938 26 L 938 25 L 940 25 L 940 24 L 942 23 L 944 23 L 944 22 L 945 21"></path><path stroke-width="2" d="M 945 346 L 945.000000 15.000000" /><path d="M 945 346 L 945.000000 15.000000" stroke-width="2"></path><path stroke-width="2" d="M 945 346 L 950 346" /><path stroke-width="2" d="M 945 346 L 950 346"></path><text xmlns="http://www.w3.org/2000/svg" x="955" y="352">0</text><path stroke-width="2" d="M 945 308 L 950 308" /><path stroke-width="2" d="M 945 308 L 950 308"></path><text xmlns="http://www.w3.org/2000/svg" x="955" y="314">53</text><path stroke-width="2" d="M 945 272 L 950 272" /><path stroke-width="2" d="M 945 272 L 950 272"></path><text xmlns="http://www.w3.org/2000/svg" x="955" y="278">105</text><path stroke-width="2" d="M 945 235 L 950 235" /><path stroke-width="2" d="M 945 235 L 950 235"></path><text xmlns="http://www.w3.org/2000/svg" x="955" y="241">157</text><path d="M 945 199 L 950 199" stroke-width="2" /><path stroke-width="2" d="M 945 199 L 950 199"></path><text xmlns="http://www.w3.org/2000/svg" x="955" y="205">209</text><path stroke-width="2" d="M 945 162 L 950 162" /><path stroke-width="2" d="M 945 162 L 950 162"></path><text xmlns="http://www.w3.org/2000/svg" x="955" y="168">262</text><path stroke-width="2" d="M 945 125 L 950 125" /><path stroke-width="2" d="M 945 125 L 950 125"></path><text x="955" y="131" xmlns="http://www.w3.org/2000/svg">314</text><path stroke-width="2" d="M 945 89 L 950 89" /><path stroke-width="2" d="M 945 89 L 950 89"></path><text y="95" xmlns="http://www.w3.org/2000/svg" x="955">366</text><path stroke-width="2" d="M 945 52 L 950 52" /><path stroke-width="2" d="M 945 52 L 950 52"></path><text xmlns="http://www.w3.org/2000/svg" x="955" y="58">418</text><path d="M 945 16 L 950 16" stroke-width="2" /><path stroke-width="2" d="M 945 16 L 950 16"></path><text xmlns="http://www.w3.org/2000/svg" x="955" y="22">470</text><text xmlns="http://www.w3.org/2000/svg" x="987" y="175" transform="rotate(90.00,987,175)">Stargazers</text><path stroke-width="2" d="M 57.000000 346.000000 L 945 346" /><path stroke-width="2" d="M 57.000000 346.000000 L 945 346"></path><path stroke-width="2" d="M 58 346 L 58 351" /><path stroke-width="2" d="M 58 346 L 58 351"></path><text xmlns="http://www.w3.org/2000/svg" x="25" y="368">2023-04-02</text><path d="M 157 346 L 157 351" stroke-width="2" /><path stroke-width="2" d="M 157 346 L 157 351"></path><text y="368" xmlns="http://www.w3.org/2000/svg" x="124">2023-05-19</text><path stroke-width="2" d="M 256 346 L 256 351" /><path stroke-width="2" d="M 256 346 L 256 351"></path><text xmlns="http://www.w3.org/2000/svg" x="223" y="368">2023-07-05</text><path stroke-width="2" d="M 354 346 L 354 351" /><path stroke-width="2" d="M 354 346 L 354 351"></path><text y="368" xmlns="http://www.w3.org/2000/svg" x="321">2023-08-21</text><path stroke-width="2" d="M 453 346 L 453 351" /><path stroke-width="2" d="M 453 346 L 453 351"></path><text x="420" y="368" xmlns="http://www.w3.org/2000/svg">2023-10-06</text><path stroke-width="2" d="M 551 346 L 551 351" /><path d="M 551 346 L 551 351" stroke-width="2"></path><text xmlns="http://www.w3.org/2000/svg" x="518" y="368">2023-11-22</text><path stroke-width="2" d="M 650 346 L 650 351" /><path stroke-width="2" d="M 650 346 L 650 351"></path><text y="368" xmlns="http://www.w3.org/2000/svg" x="617">2024-01-08</text><path stroke-width="2" d="M 748 346 L 748 351" /><path stroke-width="2" d="M 748 346 L 748 351"></path><text xmlns="http://www.w3.org/2000/svg" x="715" y="368">2024-02-24</text><path stroke-width="2" d="M 847 346 L 847 351" /><path stroke-width="2" d="M 847 346 L 847 351"></path><text xmlns="http://www.w3.org/2000/svg" x="814" y="368">2024-04-11</text><path stroke-width="2" d="M 945 346 L 945 351" /><path stroke-width="2" d="M 945 346 L 945 351"></path><text x="912" y="368" xmlns="http://www.w3.org/2000/svg">2024-05-28</text><text xmlns="http://www.w3.org/2000/svg" x="487" y="390">Time</text></svg>