<svg height="400px" xmlns="http://www.w3.org/2000/svg" xmlns:xlink="http://www.w3.org/1999/xlink" width="1024px"><style type="text/css">
path { fill: none; stroke: rgb(51,51,51); }
path.series { stroke: #6b63ff; }
rect.background { fill: rgb(255,255,255); stroke: none; }

text {
	stroke-width: 0;
	stroke: none;
	fill: rgba(51,51,51,1.0);
	font-size: 12.8px;
	font-family: 'Roboto Medium', sans-serif;
}
</style><rect x="0" y="0" width="1024px" height="400px" class="background" rx="8" /><rect x="0" y="0" width="1024px" height="400px" class="background" rx="8"></rect><path class="series" d="M 58 345 L 61 345 L 78 344 L 78 344 L 78 343 L 78 343 L 78 343 L 78 342 L 78 342 L 78 341 L 79 341 L 79 341 L 79 340 L 79 340 L 79 339 L 79 339 L 79 338 L 79 338 L 79 338 L 80 337 L 81 337 L 81 336 L 82 336 L 83 336 L 83 335 L 83 335 L 84 334 L 85 334 L 86 334 L 87 333 L 88 333 L 89 332 L 94 332 L 94 331 L 94 331 L 95 331 L 95 330 L 95 330 L 98 329 L 99 329 L 100 329 L 103 328 L 107 328 L 108 327 L 116 327 L 118 327 L 122 326 L 127 326 L 128 325 L 144 325 L 145 324 L 145 324 L 147 324 L 148 323 L 148 323 L 148 322 L 148 322 L 148 322 L 148 321 L 148 321 L 148 320 L 148 320 L 148 320 L 148 319 L 148 319 L 148 318 L 148 318 L 148 317 L 148 317 L 148 317 L 148 316 L 148 316 L 148 315 L 148 315 L 149 315 L 149 314 L 149 314 L 149 313 L 149 313 L 149 313 L 149 312 L 149 312 L 149 311 L 149 311 L 149 310 L 149 310 L 149 310 L 149 309 L 149 309 L 149 308 L 149 308 L 149 308 L 149 307 L 149 307 L 149 306 L 149 306 L 149 305 L 149 305 L 149 305 L 149 304 L 149 304 L 150 303 L 150 303 L 150 303 L 150 302 L 150 302 L 151 301 L 151 301 L 151 301 L 151 300 L 151 300 L 151 299 L 151 299 L 151 298 L 151 298 L 151 298 L 151 297 L 151 297 L 151 296 L 151 296 L 151 296 L 151 295 L 152 295 L 152 294 L 153 294 L 153 294 L 153 293 L 153 293 L 157 292 L 157 292 L 157 291 L 159 291 L 159 291 L 161 290 L 164 290 L 164 289 L 167 289 L 168 289 L 169 288 L 170 288 L 170 287 L 173 287 L 173 287 L 174 286 L 175 286 L 176 285 L 177 285 L 177 284 L 177 284 L 177 284 L 179 283 L 180 283 L 180 282 L 180 282 L 181 282 L 181 281 L 182 281 L 184 280 L 185 280 L 187 280 L 188 279 L 189 279 L 190 278 L 190 278 L 190 277 L 192 277 L 199 277 L 199 276 L 200 276 L 207 275 L 207 275 L 207 275 L 207 274 L 207 274 L 208 273 L 210 273 L 211 272 L 212 272 L 220 272 L 221 271 L 223 271 L 225 270 L 227 270 L 227 270 L 228 269 L 234 269 L 240 268 L 247 268 L 247 268 L 247 267 L 248 267 L 248 266 L 249 266 L 259 265 L 263 265 L 263 265 L 267 264 L 268 264 L 268 263 L 278 263 L 278 263 L 279 262 L 280 262 L 281 261 L 284 261 L 285 261 L 287 260 L 288 260 L 291 259 L 297 259 L 297 258 L 298 258 L 298 258 L 298 257 L 299 257 L 302 256 L 308 256 L 320 256 L 325 255 L 328 255 L 328 254 L 330 254 L 331 254 L 331 253 L 331 253 L 331 252 L 331 252 L 331 251 L 331 251 L 331 251 L 332 250 L 332 250 L 332 249 L 332 249 L 332 249 L 332 248 L 333 248 L 335 247 L 335 247 L 335 247 L 335 246 L 335 246 L 337 245 L 337 245 L 337 244 L 337 244 L 337 244 L 337 243 L 337 243 L 338 242 L 339 242 L 339 242 L 340 241 L 340 241 L 340 240 L 340 240 L 341 239 L 341 239 L 341 239 L 341 238 L 342 238 L 342 237 L 343 237 L 344 237 L 345 236 L 345 236 L 347 235 L 350 235 L 350 235 L 350 234 L 351 234 L 351 233 L 351 233 L 351 232 L 353 232 L 353 232 L 355 231 L 355 231 L 356 230 L 358 230 L 359 230 L 360 229 L 362 229 L 363 228 L 363 228 L 364 228 L 364 227 L 369 227 L 370 226 L 370 226 L 374 225 L 376 225 L 380 225 L 381 224 L 381 224 L 382 223 L 383 223 L 383 223 L 386 222 L 388 222 L 390 221 L 390 221 L 391 221 L 393 220 L 393 220 L 393 219 L 393 219 L 394 218 L 394 218 L 394 218 L 395 217 L 395 217 L 395 216 L 396 216 L 401 216 L 406 215 L 406 215 L 407 214 L 410 214 L 412 214 L 413 213 L 413 213 L 415 212 L 416 212 L 416 211 L 416 211 L 416 211 L 416 210 L 416 210 L 416 209 L 417 209 L 417 209 L 418 208 L 420 208 L 420 207 L 420 207 L 421 206 L 421 206 L 421 206 L 421 205 L 421 205 L 421 204 L 421 204 L 422 204 L 422 203 L 422 203 L 426 202 L 429 202 L 429 202 L 430 201 L 441 201 L 442 200 L 446 200 L 448 199 L 455 199 L 458 199 L 460 198 L 460 198 L 460 197 L 460 197 L 461 197 L 461 196 L 461 196 L 461 195 L 462 195 L 463 195 L 472 194 L 474 194 L 477 193 L 484 193 L 489 192 L 493 192 L 495 192 L 500 191 L 500 191 L 510 190 L 520 190 L 520 190 L 527 189 L 528 189 L 533 188 L 534 188 L 537 188 L 537 187 L 538 187 L 538 186 L 541 186 L 543 185 L 546 185 L 550 185 L 550 184 L 551 184 L 552 183 L 556 183 L 560 183 L 560 182 L 564 182 L 568 181 L 569 181 L 569 181 L 571 180 L 572 180 L 573 179 L 576 179 L 579 178 L 582 178 L 585 178 L 585 177 L 590 177 L 591 176 L 594 176 L 599 176 L 599 175 L 604 175 L 605 174 L 605 174 L 607 173 L 607 173 L 610 173 L 610 172 L 612 172 L 615 171 L 616 171 L 616 171 L 617 170 L 625 170 L 625 169 L 626 169 L 626 169 L 627 168 L 627 168 L 628 167 L 628 167 L 629 166 L 631 166 L 631 166 L 632 165 L 633 165 L 634 164 L 634 164 L 635 164 L 635 163 L 636 163 L 636 162 L 636 162 L 637 162 L 637 161 L 637 161 L 638 160 L 639 160 L 640 159 L 640 159 L 641 159 L 642 158 L 642 158 L 643 157 L 645 157 L 645 157 L 646 156 L 647 156 L 648 155 L 649 155 L 649 155 L 650 154 L 652 154 L 652 153 L 652 153 L 652 152 L 653 152 L 653 152 L 653 151 L 654 151 L 654 150 L 655 150 L 659 150 L 660 149 L 661 149 L 662 148 L 664 148 L 666 148 L 666 147 L 668 147 L 671 146 L 674 146 L 677 145 L 677 145 L 678 145 L 678 144 L 678 144 L 679 143 L 679 143 L 679 143 L 680 142 L 680 142 L 680 141 L 681 141 L 682 140 L 683 140 L 683 140 L 685 139 L 685 139 L 688 138 L 688 138 L 688 138 L 689 137 L 690 137 L 693 136 L 696 136 L 700 136 L 700 135 L 700 135 L 700 134 L 703 134 L 705 133 L 706 133 L 706 133 L 706 132 L 706 132 L 708 131 L 712 131 L 712 131 L 712 130 L 712 130 L 714 129 L 715 129 L 715 129 L 715 128 L 715 128 L 718 127 L 722 127 L 722 126 L 727 126 L 727 126 L 728 125 L 732 125 L 733 124 L 736 124 L 738 124 L 740 123 L 741 123 L 741 122 L 742 122 L 742 122 L 742 121 L 742 121 L 743 120 L 743 120 L 743 119 L 744 119 L 745 119 L 745 118 L 746 118 L 747 117 L 747 117 L 753 117 L 753 116 L 759 116 L 761 115 L 761 115 L 762 115 L 763 114 L 766 114 L 766 113 L 767 113 L 767 112 L 768 112 L 768 112 L 768 111 L 768 111 L 768 110 L 769 110 L 769 110 L 769 109 L 769 109 L 770 108 L 771 108 L 771 107 L 771 107 L 773 107 L 773 106 L 773 106 L 774 105 L 775 105 L 776 105 L 776 104 L 776 104 L 778 103 L 781 103 L 781 103 L 781 102 L 781 102 L 781 101 L 782 101 L 782 100 L 782 100 L 784 100 L 786 99 L 789 99 L 792 98 L 793 98 L 795 98 L 799 97 L 803 97 L 803 96 L 806 96 L 811 96 L 811 95 L 811 95 L 817 94 L 818 94 L 819 93 L 819 93 L 820 93 L 829 92 L 830 92 L 831 91 L 831 91 L 832 91 L 832 90 L 833 90 L 834 89 L 834 89 L 835 89 L 835 88 L 836 88 L 836 87 L 836 87 L 836 86 L 837 86 L 837 86 L 837 85 L 837 85 L 838 84 L 839 84 L 841 84 L 842 83 L 842 83 L 842 82 L 843 82 L 844 82 L 845 81 L 845 81 L 846 80 L 846 80 L 847 79 L 847 79 L 849 79 L 849 78 L 850 78 L 850 77 L 852 77 L 852 77 L 853 76 L 853 76 L 853 75 L 853 75 L 854 74 L 855 74 L 855 74 L 856 73 L 856 73 L 858 72 L 858 72 L 858 72 L 859 71 L 859 71 L 859 70 L 860 70 L 860 70 L 860 69 L 862 69 L 862 68 L 862 68 L 862 67 L 863 67 L 863 67 L 863 66 L 863 66 L 863 65 L 864 65 L 864 65 L 864 64 L 864 64 L 864 63 L 867 63 L 868 63 L 871 62 L 871 62 L 871 61 L 871 61 L 873 60 L 874 60 L 874 60 L 875 59 L 878 59 L 881 58 L 881 58 L 883 58 L 884 57 L 884 57 L 885 56 L 885 56 L 885 56 L 886 55 L 886 55 L 886 54 L 886 54 L 886 53 L 886 53 L 886 53 L 886 52 L 886 52 L 887 51 L 887 51 L 887 51 L 887 50 L 888 50 L 888 49 L 888 49 L 889 49 L 890 48 L 892 48 L 892 47 L 892 47 L 892 46 L 894 46 L 894 46 L 895 45 L 898 45 L 899 44 L 899 44 L 899 44 L 899 43 L 899 43 L 902 42 L 904 42 L 905 41 L 907 41 L 907 41 L 907 40 L 908 40 L 908 39 L 914 39 L 917 39 L 920 38 L 922 38 L 923 37 L 924 37 L 925 37 L 925 36 L 926 36 L 926 35 L 927 35 L 927 34 L 928 34 L 928 34 L 930 33 L 932 33 L 932 32 L 932 32 L 932 32 L 932 31 L 932 31 L 932 30 L 932 30 L 932 30 L 932 29 L 932 29 L 932 28 L 932 28 L 932 27 L 933 27 L 933 27 L 933 26 L 934 26 L 934 25 L 934 25 L 934 25 L 934 24 L 934 24 L 934 23 L 935 23 L 935 23 L 935 22 L 936 22 L 937 21 L 937 21 L 937 20 L 937 20 L 937 20 L 938 19 L 940 19 L 942 18 L 942 18 L 942 18 L 944 17 L 944 17 L 945 16 L 945 16" stroke-width="2" /><path class="series" d="M 58 345 L 61 345 L 78 344 L 78 344 L 78 343 L 78 343 L 78 343 L 78 342 L 78 342 L 78 341 L 79 341 L 79 341 L 79 340 L 79 340 L 79 339 L 79 339 L 79 338 L 79 338 L 79 338 L 80 337 L 81 337 L 81 336 L 82 336 L 83 336 L 83 335 L 83 335 L 84 334 L 85 334 L 86 334 L 87 333 L 88 333 L 89 332 L 94 332 L 94 331 L 94 331 L 95 331 L 95 330 L 95 330 L 98 329 L 99 329 L 100 329 L 103 328 L 107 328 L 108 327 L 116 327 L 118 327 L 122 326 L 127 326 L 128 325 L 144 325 L 145 324 L 145 324 L 147 324 L 148 323 L 148 323 L 148 322 L 148 322 L 148 322 L 148 321 L 148 321 L 148 320 L 148 320 L 148 320 L 148 319 L 148 319 L 148 318 L 148 318 L 148 317 L 148 317 L 148 317 L 148 316 L 148 316 L 148 315 L 148 315 L 149 315 L 149 314 L 149 314 L 149 313 L 149 313 L 149 313 L 149 312 L 149 312 L 149 311 L 149 311 L 149 310 L 149 310 L 149 310 L 149 309 L 149 309 L 149 308 L 149 308 L 149 308 L 149 307 L 149 307 L 149 306 L 149 306 L 149 305 L 149 305 L 149 305 L 149 304 L 149 304 L 150 303 L 150 303 L 150 303 L 150 302 L 150 302 L 151 301 L 151 301 L 151 301 L 151 300 L 151 300 L 151 299 L 151 299 L 151 298 L 151 298 L 151 298 L 151 297 L 151 297 L 151 296 L 151 296 L 151 296 L 151 295 L 152 295 L 152 294 L 153 294 L 153 294 L 153 293 L 153 293 L 157 292 L 157 292 L 157 291 L 159 291 L 159 291 L 161 290 L 164 290 L 164 289 L 167 289 L 168 289 L 169 288 L 170 288 L 170 287 L 173 287 L 173 287 L 174 286 L 175 286 L 176 285 L 177 285 L 177 284 L 177 284 L 177 284 L 179 283 L 180 283 L 180 282 L 180 282 L 181 282 L 181 281 L 182 281 L 184 280 L 185 280 L 187 280 L 188 279 L 189 279 L 190 278 L 190 278 L 190 277 L 192 277 L 199 277 L 199 276 L 200 276 L 207 275 L 207 275 L 207 275 L 207 274 L 207 274 L 208 273 L 210 273 L 211 272 L 212 272 L 220 272 L 221 271 L 223 271 L 225 270 L 227 270 L 227 270 L 228 269 L 234 269 L 240 268 L 247 268 L 247 268 L 247 267 L 248 267 L 248 266 L 249 266 L 259 265 L 263 265 L 263 265 L 267 264 L 268 264 L 268 263 L 278 263 L 278 263 L 279 262 L 280 262 L 281 261 L 284 261 L 285 261 L 287 260 L 288 260 L 291 259 L 297 259 L 297 258 L 298 258 L 298 258 L 298 257 L 299 257 L 302 256 L 308 256 L 320 256 L 325 255 L 328 255 L 328 254 L 330 254 L 331 254 L 331 253 L 331 253 L 331 252 L 331 252 L 331 251 L 331 251 L 331 251 L 332 250 L 332 250 L 332 249 L 332 249 L 332 249 L 332 248 L 333 248 L 335 247 L 335 247 L 335 247 L 335 246 L 335 246 L 337 245 L 337 245 L 337 244 L 337 244 L 337 244 L 337 243 L 337 243 L 338 242 L 339 242 L 339 242 L 340 241 L 340 241 L 340 240 L 340 240 L 341 239 L 341 239 L 341 239 L 341 238 L 342 238 L 342 237 L 343 237 L 344 237 L 345 236 L 345 236 L 347 235 L 350 235 L 350 235 L 350 234 L 351 234 L 351 233 L 351 233 L 351 232 L 353 232 L 353 232 L 355 231 L 355 231 L 356 230 L 358 230 L 359 230 L 360 229 L 362 229 L 363 228 L 363 228 L 364 228 L 364 227 L 369 227 L 370 226 L 370 226 L 374 225 L 376 225 L 380 225 L 381 224 L 381 224 L 382 223 L 383 223 L 383 223 L 386 222 L 388 222 L 390 221 L 390 221 L 391 221 L 393 220 L 393 220 L 393 219 L 393 219 L 394 218 L 394 218 L 394 218 L 395 217 L 395 217 L 395 216 L 396 216 L 401 216 L 406 215 L 406 215 L 407 214 L 410 214 L 412 214 L 413 213 L 413 213 L 415 212 L 416 212 L 416 211 L 416 211 L 416 211 L 416 210 L 416 210 L 416 209 L 417 209 L 417 209 L 418 208 L 420 208 L 420 207 L 420 207 L 421 206 L 421 206 L 421 206 L 421 205 L 421 205 L 421 204 L 421 204 L 422 204 L 422 203 L 422 203 L 426 202 L 429 202 L 429 202 L 430 201 L 441 201 L 442 200 L 446 200 L 448 199 L 455 199 L 458 199 L 460 198 L 460 198 L 460 197 L 460 197 L 461 197 L 461 196 L 461 196 L 461 195 L 462 195 L 463 195 L 472 194 L 474 194 L 477 193 L 484 193 L 489 192 L 493 192 L 495 192 L 500 191 L 500 191 L 510 190 L 520 190 L 520 190 L 527 189 L 528 189 L 533 188 L 534 188 L 537 188 L 537 187 L 538 187 L 538 186 L 541 186 L 543 185 L 546 185 L 550 185 L 550 184 L 551 184 L 552 183 L 556 183 L 560 183 L 560 182 L 564 182 L 568 181 L 569 181 L 569 181 L 571 180 L 572 180 L 573 179 L 576 179 L 579 178 L 582 178 L 585 178 L 585 177 L 590 177 L 591 176 L 594 176 L 599 176 L 599 175 L 604 175 L 605 174 L 605 174 L 607 173 L 607 173 L 610 173 L 610 172 L 612 172 L 615 171 L 616 171 L 616 171 L 617 170 L 625 170 L 625 169 L 626 169 L 626 169 L 627 168 L 627 168 L 628 167 L 628 167 L 629 166 L 631 166 L 631 166 L 632 165 L 633 165 L 634 164 L 634 164 L 635 164 L 635 163 L 636 163 L 636 162 L 636 162 L 637 162 L 637 161 L 637 161 L 638 160 L 639 160 L 640 159 L 640 159 L 641 159 L 642 158 L 642 158 L 643 157 L 645 157 L 645 157 L 646 156 L 647 156 L 648 155 L 649 155 L 649 155 L 650 154 L 652 154 L 652 153 L 652 153 L 652 152 L 653 152 L 653 152 L 653 151 L 654 151 L 654 150 L 655 150 L 659 150 L 660 149 L 661 149 L 662 148 L 664 148 L 666 148 L 666 147 L 668 147 L 671 146 L 674 146 L 677 145 L 677 145 L 678 145 L 678 144 L 678 144 L 679 143 L 679 143 L 679 143 L 680 142 L 680 142 L 680 141 L 681 141 L 682 140 L 683 140 L 683 140 L 685 139 L 685 139 L 688 138 L 688 138 L 688 138 L 689 137 L 690 137 L 693 136 L 696 136 L 700 136 L 700 135 L 700 135 L 700 134 L 703 134 L 705 133 L 706 133 L 706 133 L 706 132 L 706 132 L 708 131 L 712 131 L 712 131 L 712 130 L 712 130 L 714 129 L 715 129 L 715 129 L 715 128 L 715 128 L 718 127 L 722 127 L 722 126 L 727 126 L 727 126 L 728 125 L 732 125 L 733 124 L 736 124 L 738 124 L 740 123 L 741 123 L 741 122 L 742 122 L 742 122 L 742 121 L 742 121 L 743 120 L 743 120 L 743 119 L 744 119 L 745 119 L 745 118 L 746 118 L 747 117 L 747 117 L 753 117 L 753 116 L 759 116 L 761 115 L 761 115 L 762 115 L 763 114 L 766 114 L 766 113 L 767 113 L 767 112 L 768 112 L 768 112 L 768 111 L 768 111 L 768 110 L 769 110 L 769 110 L 769 109 L 769 109 L 770 108 L 771 108 L 771 107 L 771 107 L 773 107 L 773 106 L 773 106 L 774 105 L 775 105 L 776 105 L 776 104 L 776 104 L 778 103 L 781 103 L 781 103 L 781 102 L 781 102 L 781 101 L 782 101 L 782 100 L 782 100 L 784 100 L 786 99 L 789 99 L 792 98 L 793 98 L 795 98 L 799 97 L 803 97 L 803 96 L 806 96 L 811 96 L 811 95 L 811 95 L 817 94 L 818 94 L 819 93 L 819 93 L 820 93 L 829 92 L 830 92 L 831 91 L 831 91 L 832 91 L 832 90 L 833 90 L 834 89 L 834 89 L 835 89 L 835 88 L 836 88 L 836 87 L 836 87 L 836 86 L 837 86 L 837 86 L 837 85 L 837 85 L 838 84 L 839 84 L 841 84 L 842 83 L 842 83 L 842 82 L 843 82 L 844 82 L 845 81 L 845 81 L 846 80 L 846 80 L 847 79 L 847 79 L 849 79 L 849 78 L 850 78 L 850 77 L 852 77 L 852 77 L 853 76 L 853 76 L 853 75 L 853 75 L 854 74 L 855 74 L 855 74 L 856 73 L 856 73 L 858 72 L 858 72 L 858 72 L 859 71 L 859 71 L 859 70 L 860 70 L 860 70 L 860 69 L 862 69 L 862 68 L 862 68 L 862 67 L 863 67 L 863 67 L 863 66 L 863 66 L 863 65 L 864 65 L 864 65 L 864 64 L 864 64 L 864 63 L 867 63 L 868 63 L 871 62 L 871 62 L 871 61 L 871 61 L 873 60 L 874 60 L 874 60 L 875 59 L 878 59 L 881 58 L 881 58 L 883 58 L 884 57 L 884 57 L 885 56 L 885 56 L 885 56 L 886 55 L 886 55 L 886 54 L 886 54 L 886 53 L 886 53 L 886 53 L 886 52 L 886 52 L 887 51 L 887 51 L 887 51 L 887 50 L 888 50 L 888 49 L 888 49 L 889 49 L 890 48 L 892 48 L 892 47 L 892 47 L 892 46 L 894 46 L 894 46 L 895 45 L 898 45 L 899 44 L 899 44 L 899 44 L 899 43 L 899 43 L 902 42 L 904 42 L 905 41 L 907 41 L 907 41 L 907 40 L 908 40 L 908 39 L 914 39 L 917 39 L 920 38 L 922 38 L 923 37 L 924 37 L 925 37 L 925 36 L 926 36 L 926 35 L 927 35 L 927 34 L 928 34 L 928 34 L 930 33 L 932 33 L 932 32 L 932 32 L 932 32 L 932 31 L 932 31 L 932 30 L 932 30 L 932 30 L 932 29 L 932 29 L 932 28 L 932 28 L 932 27 L 933 27 L 933 27 L 933 26 L 934 26 L 934 25 L 934 25 L 934 25 L 934 24 L 934 24 L 934 23 L 935 23 L 935 23 L 935 22 L 936 22 L 937 21 L 937 21 L 937 20 L 937 20 L 937 20 L 938 19 L 940 19 L 942 18 L 942 18 L 942 18 L 944 17 L 944 17 L 945 16 L 945 16" stroke-width="2"></path><path stroke-width="2" d="M 945 346 L 945.000000 15.000000" /><path d="M 945 346 L 945.000000 15.000000" stroke-width="2"></path><path stroke-width="2" d="M 945 346 L 950 346" /><path d="M 945 346 L 950 346" stroke-width="2"></path><text xmlns="http://www.w3.org/2000/svg" x="955" y="352">0</text><path stroke-width="2" d="M 945 309 L 950 309" /><path stroke-width="2" d="M 945 309 L 950 309"></path><text xmlns="http://www.w3.org/2000/svg" x="955" y="315">89</text><path stroke-width="2" d="M 945 272 L 950 272" /><path stroke-width="2" d="M 945 272 L 950 272"></path><text y="278" xmlns="http://www.w3.org/2000/svg" x="955">178</text><path d="M 945 235 L 950 235" stroke-width="2" /><path stroke-width="2" d="M 945 235 L 950 235"></path><text xmlns="http://www.w3.org/2000/svg" x="955" y="241">267</text><path stroke-width="2" d="M 945 199 L 950 199" /><path stroke-width="2" d="M 945 199 L 950 199"></path><text xmlns="http://www.w3.org/2000/svg" x="955" y="205">356</text><path stroke-width="2" d="M 945 162 L 950 162" /><path stroke-width="2" d="M 945 162 L 950 162"></path><text xmlns="http://www.w3.org/2000/svg" x="955" y="168">445</text><path stroke-width="2" d="M 945 125 L 950 125" /><path stroke-width="2" d="M 945 125 L 950 125"></path><text xmlns="http://www.w3.org/2000/svg" x="955" y="131">534</text><path stroke-width="2" d="M 945 89 L 950 89" /><path d="M 945 89 L 950 89" stroke-width="2"></path><text xmlns="http://www.w3.org/2000/svg" x="955" y="95">623</text><path stroke-width="2" d="M 945 52 L 950 52" /><path stroke-width="2" d="M 945 52 L 950 52"></path><text xmlns="http://www.w3.org/2000/svg" x="955" y="58">712</text><path d="M 945 16 L 950 16" stroke-width="2" /><path stroke-width="2" d="M 945 16 L 950 16"></path><text xmlns="http://www.w3.org/2000/svg" x="955" y="22">800</text><text y="175" transform="rotate(90.00,987,175)" xmlns="http://www.w3.org/2000/svg" x="987">Stargazers</text><path d="M 57.000000 346.000000 L 945 346" stroke-width="2" /><path stroke-width="2" d="M 57.000000 346.000000 L 945 346"></path><path stroke-width="2" d="M 58 346 L 58 351" /><path stroke-width="2" d="M 58 346 L 58 351"></path><text xmlns="http://www.w3.org/2000/svg" x="25" y="368">2023-04-02</text><path d="M 157 346 L 157 351" stroke-width="2" /><path stroke-width="2" d="M 157 346 L 157 351"></path><text xmlns="http://www.w3.org/2000/svg" x="124" y="368">2023-06-12</text><path stroke-width="2" d="M 256 346 L 256 351" /><path d="M 256 346 L 256 351" stroke-width="2"></path><text xmlns="http://www.w3.org/2000/svg" x="223" y="368">2023-08-22</text><path stroke-width="2" d="M 354 346 L 354 351" /><path stroke-width="2" d="M 354 346 L 354 351"></path><text xmlns="http://www.w3.org/2000/svg" x="321" y="368">2023-10-31</text><path d="M 453 346 L 453 351" stroke-width="2" /><path stroke-width="2" d="M 453 346 L 453 351"></path><text xmlns="http://www.w3.org/2000/svg" x="420" y="368">2024-01-10</text><path stroke-width="2" d="M 551 346 L 551 351" /><path stroke-width="2" d="M 551 346 L 551 351"></path><text xmlns="http://www.w3.org/2000/svg" x="518" y="368">2024-03-21</text><path stroke-width="2" d="M 650 346 L 650 351" /><path stroke-width="2" d="M 650 346 L 650 351"></path><text xmlns="http://www.w3.org/2000/svg" x="617" y="368">2024-05-31</text><path stroke-width="2" d="M 748 346 L 748 351" /><path stroke-width="2" d="M 748 346 L 748 351"></path><text xmlns="http://www.w3.org/2000/svg" x="715" y="368">2024-08-10</text><path stroke-width="2" d="M 847 346 L 847 351" /><path stroke-width="2" d="M 847 346 L 847 351"></path><text xmlns="http://www.w3.org/2000/svg" x="814" y="368">2024-10-19</text><path stroke-width="2" d="M 945 346 L 945 351" /><path stroke-width="2" d="M 945 346 L 945 351"></path><text xmlns="http://www.w3.org/2000/svg" x="912" y="368">2024-12-29</text><text y="390" xmlns="http://www.w3.org/2000/svg" x="487">Time</text></svg>