<svg xmlns="http://www.w3.org/2000/svg" xmlns:xlink="http://www.w3.org/1999/xlink" width="1024" height="400">\n<path  d="M 0 0
L 1024 0
L 1024 400
L 0 400
L 0 0" style="stroke-width:0;stroke:rgba(255,255,255,1.0);fill:rgba(255,255,255,1.0)"/><path  d="M 38 11
L 965 11
L 965 351
L 38 351
L 38 11" style="stroke-width:0;stroke:rgba(255,255,255,1.0);fill:rgba(255,255,255,1.0)"/><path  d="M 38 351
L 965 351" style="stroke-width:2;stroke:rgba(85,85,85,1.0);fill:none"/><path  d="M 38 351
L 38 356" style="stroke-width:2;stroke:rgba(85,85,85,1.0);fill:none"/><text x="5" y="373" style="stroke-width:0;stroke:none;fill:rgba(51,51,51,1.0);font-size:12.8px;font-family:'Roboto Medium',sans-serif">2023-04-02</text><path  d="M 154 351
L 154 356" style="stroke-width:2;stroke:rgba(85,85,85,1.0);fill:none"/><text x="121" y="373" style="stroke-width:0;stroke:none;fill:rgba(51,51,51,1.0);font-size:12.8px;font-family:'Roboto Medium',sans-serif">2023-05-05</text><path  d="M 270 351
L 270 356" style="stroke-width:2;stroke:rgba(85,85,85,1.0);fill:none"/><text x="237" y="373" style="stroke-width:0;stroke:none;fill:rgba(51,51,51,1.0);font-size:12.8px;font-family:'Roboto Medium',sans-serif">2023-06-06</text><path  d="M 386 351
L 386 356" style="stroke-width:2;stroke:rgba(85,85,85,1.0);fill:none"/><text x="353" y="373" style="stroke-width:0;stroke:none;fill:rgba(51,51,51,1.0);font-size:12.8px;font-family:'Roboto Medium',sans-serif">2023-07-09</text><path  d="M 502 351
L 502 356" style="stroke-width:2;stroke:rgba(85,85,85,1.0);fill:none"/><text x="469" y="373" style="stroke-width:0;stroke:none;fill:rgba(51,51,51,1.0);font-size:12.8px;font-family:'Roboto Medium',sans-serif">2023-08-11</text><path  d="M 618 351
L 618 356" style="stroke-width:2;stroke:rgba(85,85,85,1.0);fill:none"/><text x="585" y="373" style="stroke-width:0;stroke:none;fill:rgba(51,51,51,1.0);font-size:12.8px;font-family:'Roboto Medium',sans-serif">2023-09-13</text><path  d="M 734 351
L 734 356" style="stroke-width:2;stroke:rgba(85,85,85,1.0);fill:none"/><text x="701" y="373" style="stroke-width:0;stroke:none;fill:rgba(51,51,51,1.0);font-size:12.8px;font-family:'Roboto Medium',sans-serif">2023-10-15</text><path  d="M 850 351
L 850 356" style="stroke-width:2;stroke:rgba(85,85,85,1.0);fill:none"/><text x="817" y="373" style="stroke-width:0;stroke:none;fill:rgba(51,51,51,1.0);font-size:12.8px;font-family:'Roboto Medium',sans-serif">2023-11-17</text><path  d="M 965 351
L 965 356" style="stroke-width:2;stroke:rgba(85,85,85,1.0);fill:none"/><text x="932" y="373" style="stroke-width:0;stroke:none;fill:rgba(51,51,51,1.0);font-size:12.8px;font-family:'Roboto Medium',sans-serif">2023-12-20</text><text x="487" y="395" style="stroke-width:0;stroke:none;fill:rgba(51,51,51,1.0);font-size:12.8px;font-family:'Roboto Medium',sans-serif">Time</text><path  d="M 967 351
L 967 11" style="stroke-width:2;stroke:rgba(85,85,85,1.0);fill:none"/><path  d="M 967 351
L 972 351" style="stroke-width:2;stroke:rgba(85,85,85,1.0);fill:none"/><text x="977" y="357" style="stroke-width:0;stroke:none;fill:rgba(51,51,51,1.0);font-size:12.8px;font-family:'Roboto Medium',sans-serif">0</text><path  d="M 967 308
L 972 308" style="stroke-width:2;stroke:rgba(85,85,85,1.0);fill:none"/><text x="977" y="314" style="stroke-width:0;stroke:none;fill:rgba(51,51,51,1.0);font-size:12.8px;font-family:'Roboto Medium',sans-serif">45</text><path  d="M 967 266
L 972 266" style="stroke-width:2;stroke:rgba(85,85,85,1.0);fill:none"/><text x="977" y="272" style="stroke-width:0;stroke:none;fill:rgba(51,51,51,1.0);font-size:12.8px;font-family:'Roboto Medium',sans-serif">90</text><path  d="M 967 223
L 972 223" style="stroke-width:2;stroke:rgba(85,85,85,1.0);fill:none"/><text x="977" y="229" style="stroke-width:0;stroke:none;fill:rgba(51,51,51,1.0);font-size:12.8px;font-family:'Roboto Medium',sans-serif">135</text><path  d="M 967 181
L 972 181" style="stroke-width:2;stroke:rgba(85,85,85,1.0);fill:none"/><text x="977" y="187" style="stroke-width:0;stroke:none;fill:rgba(51,51,51,1.0);font-size:12.8px;font-family:'Roboto Medium',sans-serif">180</text><path  d="M 967 138
L 972 138" style="stroke-width:2;stroke:rgba(85,85,85,1.0);fill:none"/><text x="977" y="144" style="stroke-width:0;stroke:none;fill:rgba(51,51,51,1.0);font-size:12.8px;font-family:'Roboto Medium',sans-serif">225</text><path  d="M 967 96
L 972 96" style="stroke-width:2;stroke:rgba(85,85,85,1.0);fill:none"/><text x="977" y="102" style="stroke-width:0;stroke:none;fill:rgba(51,51,51,1.0);font-size:12.8px;font-family:'Roboto Medium',sans-serif">270</text><path  d="M 967 53
L 972 53" style="stroke-width:2;stroke:rgba(85,85,85,1.0);fill:none"/><text x="977" y="59" style="stroke-width:0;stroke:none;fill:rgba(51,51,51,1.0);font-size:12.8px;font-family:'Roboto Medium',sans-serif">315</text><path  d="M 967 11
L 972 11" style="stroke-width:2;stroke:rgba(85,85,85,1.0);fill:none"/><text x="977" y="17" style="stroke-width:0;stroke:none;fill:rgba(51,51,51,1.0);font-size:12.8px;font-family:'Roboto Medium',sans-serif">360</text><text x="1009" y="150" style="stroke-width:0;stroke:none;fill:rgba(51,51,51,1.0);font-size:12.8px;font-family:'Roboto Medium',sans-serif" transform="rotate(90.00,1009,150)">Stargazers</text><path  d="M 38 351
L 45 350
L 88 349
L 89 348
L 89 347
L 89 346
L 89 345
L 89 344
L 89 343
L 89 342
L 90 341
L 90 340
L 90 339
L 90 338
L 90 337
L 91 336
L 91 335
L 91 334
L 92 334
L 92 333
L 94 332
L 95 331
L 96 330
L 99 329
L 101 328
L 101 327
L 101 326
L 102 325
L 105 324
L 110 323
L 110 322
L 113 321
L 116 320
L 130 319
L 130 318
L 130 317
L 130 317
L 130 316
L 131 315
L 131 314
L 138 313
L 142 312
L 144 311
L 150 310
L 161 309
L 165 308
L 184 307
L 190 306
L 201 305
L 211 304
L 216 303
L 256 302
L 258 301
L 259 300
L 264 300
L 265 299
L 265 298
L 265 297
L 265 296
L 265 295
L 265 294
L 265 293
L 265 292
L 266 291
L 266 290
L 266 289
L 266 288
L 267 287
L 267 286
L 267 285
L 267 284
L 267 283
L 267 283
L 267 282
L 267 281
L 267 280
L 267 279
L 267 278
L 267 277
L 267 276
L 267 275
L 267 274
L 267 273
L 267 272
L 268 271
L 268 270
L 268 269
L 268 268
L 268 267
L 268 266
L 268 266
L 268 265
L 268 264
L 268 263
L 268 262
L 268 261
L 268 260
L 268 259
L 268 258
L 268 257
L 269 256
L 269 255
L 270 254
L 271 253
L 271 252
L 271 251
L 272 250
L 272 249
L 274 249
L 274 248
L 274 247
L 274 246
L 274 245
L 274 244
L 274 243
L 274 242
L 274 241
L 274 240
L 274 239
L 274 238
L 274 237
L 275 236
L 275 235
L 275 234
L 275 233
L 276 232
L 279 232
L 279 231
L 279 230
L 279 229
L 289 228
L 289 227
L 289 226
L 293 225
L 293 224
L 299 223
L 306 222
L 308 221
L 313 220
L 316 219
L 320 218
L 321 217
L 322 216
L 329 215
L 329 215
L 332 214
L 334 213
L 336 212
L 339 211
L 339 210
L 339 209
L 340 208
L 343 207
L 347 206
L 347 205
L 348 204
L 350 203
L 350 202
L 352 201
L 357 200
L 360 199
L 366 198
L 368 198
L 370 197
L 373 196
L 373 195
L 374 194
L 378 193
L 395 192
L 396 191
L 399 190
L 415 189
L 416 188
L 416 187
L 416 186
L 417 185
L 419 184
L 424 183
L 427 182
L 428 181
L 448 181
L 452 180
L 456 179
L 463 178
L 466 177
L 467 176
L 469 175
L 483 174
L 499 173
L 517 172
L 518 171
L 518 170
L 519 169
L 520 168
L 524 167
L 547 166
L 558 165
L 559 164
L 568 163
L 570 163
L 571 162
L 598 161
L 598 160
L 599 159
L 600 158
L 604 157
L 611 156
L 614 155
L 620 154
L 623 153
L 629 152
L 644 151
L 644 150
L 647 149
L 647 148
L 648 147
L 649 147
L 657 146
L 657 145
L 672 144
L 693 143
L 704 142
L 717 141
L 717 140
L 723 139
L 724 138
L 728 137
L 732 136
L 732 135
L 732 134
L 732 133
L 732 132
L 732 131
L 732 130
L 732 130
L 733 129
L 733 128
L 733 127
L 733 126
L 733 125
L 734 124
L 735 123
L 737 122
L 740 121
L 741 120
L 742 119
L 742 118
L 742 117
L 746 116
L 746 115
L 746 114
L 746 113
L 746 113
L 746 112
L 747 111
L 749 110
L 750 109
L 751 108
L 752 107
L 753 106
L 753 105
L 753 104
L 753 103
L 756 102
L 756 101
L 756 100
L 757 99
L 759 98
L 760 97
L 760 96
L 763 96
L 766 95
L 768 94
L 772 93
L 778 92
L 778 91
L 780 90
L 781 89
L 781 88
L 781 87
L 781 86
L 786 85
L 787 84
L 792 83
L 792 82
L 794 81
L 799 80
L 803 79
L 803 79
L 810 78
L 812 77
L 813 76
L 815 75
L 815 74
L 828 73
L 830 72
L 831 71
L 840 70
L 845 69
L 855 68
L 858 67
L 859 66
L 861 65
L 863 64
L 863 63
L 870 62
L 876 62
L 880 61
L 881 60
L 884 59
L 888 58
L 888 57
L 888 56
L 888 55
L 890 54
L 891 53
L 891 52
L 894 51
L 894 50
L 894 49
L 897 48
L 909 47
L 923 46
L 923 45
L 923 45
L 932 44
L 937 43
L 939 42
L 940 41
L 944 40
L 947 39
L 947 38
L 947 37
L 947 36
L 947 35
L 948 34
L 948 33
L 950 32
L 950 31
L 952 30
L 958 29
L 958 28
L 958 28
L 959 27
L 960 26
L 960 25
L 960 24
L 961 23
L 961 22
L 961 21
L 961 20
L 961 19
L 962 18
L 965 17" style="stroke-width:2;stroke:rgba(129,199,239,1.0);fill:none"/></svg>