<svg xmlns="http://www.w3.org/2000/svg" xmlns:xlink="http://www.w3.org/1999/xlink" width="1024px" height="400px"><style type="text/css">
path { fill: none; stroke: rgb(51,51,51); }
path.series { stroke: #6b63ff; }
rect.background { fill: rgb(255,255,255); stroke: none; }

text {
	stroke-width: 0;
	stroke: none;
	fill: rgba(51,51,51,1.0);
	font-size: 12.8px;
	font-family: 'Roboto Medium', sans-serif;
}
</style><rect x="0" y="0" width="1024px" height="400px" class="background" rx="8" /><rect x="0" y="0" width="1024px" height="400px" class="background" rx="8"></rect><path stroke-width="2" class="series" d="M 58 345 L 62 344 L 88 343 L 89 343 L 89 342 L 89 341 L 89 340 L 89 340 L 89 339 L 89 338 L 89 338 L 90 337 L 90 336 L 90 335 L 90 335 L 90 334 L 90 333 L 91 333 L 91 332 L 92 331 L 93 330 L 93 330 L 95 329 L 96 328 L 96 328 L 96 327 L 97 326 L 99 325 L 101 325 L 102 324 L 103 323 L 105 323 L 113 322 L 114 321 L 114 320 L 114 320 L 114 319 L 114 318 L 118 318 L 121 317 L 122 316 L 126 315 L 132 315 L 135 314 L 146 313 L 150 313 L 156 312 L 162 311 L 165 310 L 189 310 L 191 309 L 191 308 L 194 307 L 195 307 L 195 306 L 195 305 L 195 305 L 195 304 L 195 303 L 195 302 L 195 302 L 195 301 L 195 300 L 195 300 L 196 299 L 196 298 L 196 297 L 196 297 L 196 296 L 196 295 L 196 295 L 196 294 L 196 293 L 196 292 L 196 292 L 196 291 L 196 290 L 196 290 L 196 289 L 196 288 L 196 287 L 196 287 L 196 286 L 196 285 L 196 285 L 196 284 L 196 283 L 196 282 L 196 282 L 196 281 L 197 280 L 197 280 L 197 279 L 197 278 L 197 277 L 197 277 L 197 276 L 197 275 L 197 274 L 197 274 L 198 273 L 198 272 L 198 272 L 198 271 L 199 270 L 199 269 L 200 269 L 200 268 L 200 267 L 200 267 L 200 266 L 200 265 L 200 264 L 200 264 L 200 263 L 200 262 L 200 262 L 200 261 L 200 260 L 200 259 L 200 259 L 201 258 L 201 257 L 201 257 L 203 256 L 203 255 L 203 254 L 203 254 L 209 253 L 209 252 L 209 252 L 212 251 L 212 250 L 215 249 L 219 249 L 220 248 L 224 247 L 225 247 L 228 246 L 229 245 L 229 244 L 233 244 L 233 243 L 235 242 L 237 241 L 237 241 L 239 240 L 239 239 L 239 239 L 240 238 L 242 237 L 244 236 L 244 236 L 245 235 L 246 234 L 246 234 L 247 233 L 250 232 L 252 231 L 255 231 L 257 230 L 258 229 L 260 229 L 260 228 L 260 227 L 263 226 L 273 226 L 274 225 L 275 224 L 285 224 L 285 223 L 285 222 L 286 221 L 286 221 L 287 220 L 291 219 L 292 219 L 293 218 L 305 217 L 307 216 L 310 216 L 314 215 L 316 214 L 316 214 L 318 213 L 326 212 L 335 211 L 346 211 L 347 210 L 347 209 L 347 208 L 348 208 L 350 207 L 365 206 L 371 206 L 372 205 L 377 204 L 378 203 L 379 203 L 395 202 L 395 201 L 396 201 L 397 200 L 399 199 L 403 198 L 405 198 L 408 197 L 410 196 L 414 196 L 423 195 L 423 194 L 424 193 L 425 193 L 425 192 L 426 191 L 430 191 L 439 190 L 459 189 L 466 188 L 467 188 L 470 187 L 471 186 L 473 186 L 475 185 L 475 184 L 475 183 L 475 183 L 476 182 L 476 181 L 476 181 L 476 180 L 476 179 L 476 178 L 476 178 L 476 177 L 476 176 L 477 175 L 478 175 L 479 174 L 480 173 L 481 173 L 481 172 L 482 171 L 482 170 L 484 170 L 484 169 L 484 168 L 484 168 L 484 167 L 484 166 L 484 165 L 486 165 L 487 164 L 488 163 L 488 163 L 488 162 L 488 161 L 489 160 L 490 160 L 490 159 L 490 158 L 491 158 L 492 157 L 492 156 L 493 155 L 494 155 L 496 154 L 497 153 L 500 153 L 503 152 L 503 151 L 505 150 L 505 150 L 505 149 L 505 148 L 505 148 L 508 147 L 509 146 L 512 145 L 512 145 L 513 144 L 516 143 L 519 142 L 519 142 L 523 141 L 524 140 L 524 140 L 526 139 L 526 138 L 533 137 L 535 137 L 535 136 L 541 135 L 544 135 L 550 134 L 551 133 L 552 132 L 554 132 L 554 131 L 554 130 L 559 130 L 562 129 L 565 128 L 565 127 L 567 127 L 569 126 L 569 125 L 569 125 L 570 124 L 571 123 L 571 122 L 571 122 L 573 121 L 573 120 L 573 120 L 575 119 L 582 118 L 590 117 L 590 117 L 591 116 L 596 115 L 599 115 L 600 114 L 601 113 L 603 112 L 605 112 L 605 111 L 605 110 L 605 109 L 605 109 L 606 108 L 606 107 L 607 107 L 607 106 L 608 105 L 612 104 L 612 104 L 612 103 L 612 102 L 613 102 L 613 101 L 613 100 L 613 99 L 613 99 L 613 98 L 613 97 L 614 97 L 614 96 L 620 95 L 624 94 L 624 94 L 626 93 L 634 92 L 643 92 L 645 91 L 650 90 L 654 89 L 665 89 L 669 88 L 672 87 L 673 87 L 673 86 L 673 85 L 673 84 L 673 84 L 673 83 L 673 82 L 676 82 L 677 81 L 690 80 L 694 79 L 699 79 L 709 78 L 716 77 L 722 76 L 726 76 L 734 75 L 734 74 L 749 74 L 764 73 L 765 72 L 775 71 L 776 71 L 784 70 L 786 69 L 791 69 L 791 68 L 792 67 L 792 66 L 797 66 L 799 65 L 803 64 L 809 64 L 810 63 L 812 62 L 813 61 L 819 61 L 824 60 L 825 59 L 831 59 L 838 58 L 839 57 L 839 56 L 842 56 L 843 55 L 845 54 L 850 54 L 854 53 L 859 52 L 863 51 L 863 51 L 871 50 L 873 49 L 877 49 L 884 48 L 885 47 L 893 46 L 894 46 L 894 45 L 897 44 L 897 43 L 901 43 L 901 42 L 905 41 L 910 41 L 911 40 L 911 39 L 912 38 L 925 38 L 925 37 L 926 36 L 926 36 L 927 35 L 928 34 L 928 33 L 929 33 L 930 32 L 933 31 L 933 31 L 936 30 L 937 29 L 938 28 L 939 28 L 940 27 L 940 26 L 941 26 L 942 25 L 942 24 L 943 23 L 943 23 L 943 22 L 944 21 L 945 21" /><path class="series" d="M 58 345 L 62 344 L 88 343 L 89 343 L 89 342 L 89 341 L 89 340 L 89 340 L 89 339 L 89 338 L 89 338 L 90 337 L 90 336 L 90 335 L 90 335 L 90 334 L 90 333 L 91 333 L 91 332 L 92 331 L 93 330 L 93 330 L 95 329 L 96 328 L 96 328 L 96 327 L 97 326 L 99 325 L 101 325 L 102 324 L 103 323 L 105 323 L 113 322 L 114 321 L 114 320 L 114 320 L 114 319 L 114 318 L 118 318 L 121 317 L 122 316 L 126 315 L 132 315 L 135 314 L 146 313 L 150 313 L 156 312 L 162 311 L 165 310 L 189 310 L 191 309 L 191 308 L 194 307 L 195 307 L 195 306 L 195 305 L 195 305 L 195 304 L 195 303 L 195 302 L 195 302 L 195 301 L 195 300 L 195 300 L 196 299 L 196 298 L 196 297 L 196 297 L 196 296 L 196 295 L 196 295 L 196 294 L 196 293 L 196 292 L 196 292 L 196 291 L 196 290 L 196 290 L 196 289 L 196 288 L 196 287 L 196 287 L 196 286 L 196 285 L 196 285 L 196 284 L 196 283 L 196 282 L 196 282 L 196 281 L 197 280 L 197 280 L 197 279 L 197 278 L 197 277 L 197 277 L 197 276 L 197 275 L 197 274 L 197 274 L 198 273 L 198 272 L 198 272 L 198 271 L 199 270 L 199 269 L 200 269 L 200 268 L 200 267 L 200 267 L 200 266 L 200 265 L 200 264 L 200 264 L 200 263 L 200 262 L 200 262 L 200 261 L 200 260 L 200 259 L 200 259 L 201 258 L 201 257 L 201 257 L 203 256 L 203 255 L 203 254 L 203 254 L 209 253 L 209 252 L 209 252 L 212 251 L 212 250 L 215 249 L 219 249 L 220 248 L 224 247 L 225 247 L 228 246 L 229 245 L 229 244 L 233 244 L 233 243 L 235 242 L 237 241 L 237 241 L 239 240 L 239 239 L 239 239 L 240 238 L 242 237 L 244 236 L 244 236 L 245 235 L 246 234 L 246 234 L 247 233 L 250 232 L 252 231 L 255 231 L 257 230 L 258 229 L 260 229 L 260 228 L 260 227 L 263 226 L 273 226 L 274 225 L 275 224 L 285 224 L 285 223 L 285 222 L 286 221 L 286 221 L 287 220 L 291 219 L 292 219 L 293 218 L 305 217 L 307 216 L 310 216 L 314 215 L 316 214 L 316 214 L 318 213 L 326 212 L 335 211 L 346 211 L 347 210 L 347 209 L 347 208 L 348 208 L 350 207 L 365 206 L 371 206 L 372 205 L 377 204 L 378 203 L 379 203 L 395 202 L 395 201 L 396 201 L 397 200 L 399 199 L 403 198 L 405 198 L 408 197 L 410 196 L 414 196 L 423 195 L 423 194 L 424 193 L 425 193 L 425 192 L 426 191 L 430 191 L 439 190 L 459 189 L 466 188 L 467 188 L 470 187 L 471 186 L 473 186 L 475 185 L 475 184 L 475 183 L 475 183 L 476 182 L 476 181 L 476 181 L 476 180 L 476 179 L 476 178 L 476 178 L 476 177 L 476 176 L 477 175 L 478 175 L 479 174 L 480 173 L 481 173 L 481 172 L 482 171 L 482 170 L 484 170 L 484 169 L 484 168 L 484 168 L 484 167 L 484 166 L 484 165 L 486 165 L 487 164 L 488 163 L 488 163 L 488 162 L 488 161 L 489 160 L 490 160 L 490 159 L 490 158 L 491 158 L 492 157 L 492 156 L 493 155 L 494 155 L 496 154 L 497 153 L 500 153 L 503 152 L 503 151 L 505 150 L 505 150 L 505 149 L 505 148 L 505 148 L 508 147 L 509 146 L 512 145 L 512 145 L 513 144 L 516 143 L 519 142 L 519 142 L 523 141 L 524 140 L 524 140 L 526 139 L 526 138 L 533 137 L 535 137 L 535 136 L 541 135 L 544 135 L 550 134 L 551 133 L 552 132 L 554 132 L 554 131 L 554 130 L 559 130 L 562 129 L 565 128 L 565 127 L 567 127 L 569 126 L 569 125 L 569 125 L 570 124 L 571 123 L 571 122 L 571 122 L 573 121 L 573 120 L 573 120 L 575 119 L 582 118 L 590 117 L 590 117 L 591 116 L 596 115 L 599 115 L 600 114 L 601 113 L 603 112 L 605 112 L 605 111 L 605 110 L 605 109 L 605 109 L 606 108 L 606 107 L 607 107 L 607 106 L 608 105 L 612 104 L 612 104 L 612 103 L 612 102 L 613 102 L 613 101 L 613 100 L 613 99 L 613 99 L 613 98 L 613 97 L 614 97 L 614 96 L 620 95 L 624 94 L 624 94 L 626 93 L 634 92 L 643 92 L 645 91 L 650 90 L 654 89 L 665 89 L 669 88 L 672 87 L 673 87 L 673 86 L 673 85 L 673 84 L 673 84 L 673 83 L 673 82 L 676 82 L 677 81 L 690 80 L 694 79 L 699 79 L 709 78 L 716 77 L 722 76 L 726 76 L 734 75 L 734 74 L 749 74 L 764 73 L 765 72 L 775 71 L 776 71 L 784 70 L 786 69 L 791 69 L 791 68 L 792 67 L 792 66 L 797 66 L 799 65 L 803 64 L 809 64 L 810 63 L 812 62 L 813 61 L 819 61 L 824 60 L 825 59 L 831 59 L 838 58 L 839 57 L 839 56 L 842 56 L 843 55 L 845 54 L 850 54 L 854 53 L 859 52 L 863 51 L 863 51 L 871 50 L 873 49 L 877 49 L 884 48 L 885 47 L 893 46 L 894 46 L 894 45 L 897 44 L 897 43 L 901 43 L 901 42 L 905 41 L 910 41 L 911 40 L 911 39 L 912 38 L 925 38 L 925 37 L 926 36 L 926 36 L 927 35 L 928 34 L 928 33 L 929 33 L 930 32 L 933 31 L 933 31 L 936 30 L 937 29 L 938 28 L 939 28 L 940 27 L 940 26 L 941 26 L 942 25 L 942 24 L 943 23 L 943 23 L 943 22 L 944 21 L 945 21" stroke-width="2"></path><path stroke-width="2" d="M 945 346 L 945.000000 15.000000" /><path stroke-width="2" d="M 945 346 L 945.000000 15.000000"></path><path stroke-width="2" d="M 945 346 L 950 346" /><path stroke-width="2" d="M 945 346 L 950 346"></path><text y="352" xmlns="http://www.w3.org/2000/svg" x="955">0</text><path stroke-width="2" d="M 945 308 L 950 308" /><path stroke-width="2" d="M 945 308 L 950 308"></path><text xmlns="http://www.w3.org/2000/svg" x="955" y="314">52</text><path stroke-width="2" d="M 945 272 L 950 272" /><path stroke-width="2" d="M 945 272 L 950 272"></path><text xmlns="http://www.w3.org/2000/svg" x="955" y="278">103</text><path stroke-width="2" d="M 945 235 L 950 235" /><path stroke-width="2" d="M 945 235 L 950 235"></path><text xmlns="http://www.w3.org/2000/svg" x="955" y="241">154</text><path stroke-width="2" d="M 945 198 L 950 198" /><path stroke-width="2" d="M 945 198 L 950 198"></path><text xmlns="http://www.w3.org/2000/svg" x="955" y="204">205</text><path stroke-width="2" d="M 945 162 L 950 162" /><path stroke-width="2" d="M 945 162 L 950 162"></path><text xmlns="http://www.w3.org/2000/svg" x="955" y="168">256</text><path stroke-width="2" d="M 945 125 L 950 125" /><path stroke-width="2" d="M 945 125 L 950 125"></path><text xmlns="http://www.w3.org/2000/svg" x="955" y="131">307</text><path stroke-width="2" d="M 945 89 L 950 89" /><path stroke-width="2" d="M 945 89 L 950 89"></path><text xmlns="http://www.w3.org/2000/svg" x="955" y="95">358</text><path stroke-width="2" d="M 945 52 L 950 52" /><path stroke-width="2" d="M 945 52 L 950 52"></path><text xmlns="http://www.w3.org/2000/svg" x="955" y="58">409</text><path stroke-width="2" d="M 945 16 L 950 16" /><path stroke-width="2" d="M 945 16 L 950 16"></path><text xmlns="http://www.w3.org/2000/svg" x="955" y="22">460</text><text xmlns="http://www.w3.org/2000/svg" x="987" y="175" transform="rotate(90.00,987,175)">Stargazers</text><path stroke-width="2" d="M 57.000000 346.000000 L 945 346" /><path stroke-width="2" d="M 57.000000 346.000000 L 945 346"></path><path stroke-width="2" d="M 58 346 L 58 351" /><path stroke-width="2" d="M 58 346 L 58 351"></path><text y="368" xmlns="http://www.w3.org/2000/svg" x="25">2023-04-02</text><path stroke-width="2" d="M 157 346 L 157 351" /><path stroke-width="2" d="M 157 346 L 157 351"></path><text xmlns="http://www.w3.org/2000/svg" x="124" y="368">2023-05-18</text><path stroke-width="2" d="M 256 346 L 256 351" /><path stroke-width="2" d="M 256 346 L 256 351"></path><text xmlns="http://www.w3.org/2000/svg" x="223" y="368">2023-07-04</text><path stroke-width="2" d="M 354 346 L 354 351" /><path stroke-width="2" d="M 354 346 L 354 351"></path><text y="368" xmlns="http://www.w3.org/2000/svg" x="321">2023-08-19</text><path stroke-width="2" d="M 453 346 L 453 351" /><path stroke-width="2" d="M 453 346 L 453 351"></path><text xmlns="http://www.w3.org/2000/svg" x="420" y="368">2023-10-04</text><path stroke-width="2" d="M 551 346 L 551 351" /><path stroke-width="2" d="M 551 346 L 551 351"></path><text xmlns="http://www.w3.org/2000/svg" x="518" y="368">2023-11-20</text><path d="M 650 346 L 650 351" stroke-width="2" /><path stroke-width="2" d="M 650 346 L 650 351"></path><text xmlns="http://www.w3.org/2000/svg" x="617" y="368">2024-01-05</text><path stroke-width="2" d="M 748 346 L 748 351" /><path stroke-width="2" d="M 748 346 L 748 351"></path><text xmlns="http://www.w3.org/2000/svg" x="715" y="368">2024-02-20</text><path stroke-width="2" d="M 847 346 L 847 351" /><path stroke-width="2" d="M 847 346 L 847 351"></path><text xmlns="http://www.w3.org/2000/svg" x="814" y="368">2024-04-06</text><path stroke-width="2" d="M 945 346 L 945 351" /><path stroke-width="2" d="M 945 346 L 945 351"></path><text xmlns="http://www.w3.org/2000/svg" x="912" y="368">2024-05-23</text><text xmlns="http://www.w3.org/2000/svg" x="487" y="390">Time</text></svg>