<svg xmlns="http://www.w3.org/2000/svg" xmlns:xlink="http://www.w3.org/1999/xlink" width="1024px" height="400px"><style type="text/css">
path { fill: none; stroke: rgb(51,51,51); }
path.series { stroke: #6b63ff; }
rect.background { fill: rgb(255,255,255); stroke: none; }

text {
	stroke-width: 0;
	stroke: none;
	fill: rgba(51,51,51,1.0);
	font-size: 12.8px;
	font-family: 'Roboto Medium', sans-serif;
}
</style><rect x="0" y="0" width="1024px" height="400px" class="background" rx="8" /><rect width="1024px" height="400px" class="background" rx="8" x="0" y="0"></rect><path stroke-width="2" class="series" d="M 58 345 L 62 344 L 87 343 L 88 343 L 88 342 L 88 341 L 88 341 L 88 340 L 88 339 L 88 338 L 89 338 L 89 337 L 89 336 L 89 336 L 89 335 L 89 334 L 89 334 L 90 333 L 90 332 L 91 331 L 92 331 L 92 330 L 94 329 L 95 329 L 95 328 L 95 327 L 96 327 L 98 326 L 101 325 L 101 324 L 103 324 L 104 323 L 112 322 L 112 322 L 113 321 L 113 320 L 113 320 L 113 319 L 117 318 L 119 317 L 121 317 L 125 316 L 131 315 L 133 315 L 145 314 L 148 313 L 154 313 L 161 312 L 163 311 L 187 310 L 188 310 L 188 309 L 191 308 L 192 308 L 192 307 L 192 306 L 192 305 L 192 305 L 192 304 L 192 303 L 192 303 L 193 302 L 193 301 L 193 301 L 193 300 L 193 299 L 193 298 L 193 298 L 193 297 L 193 296 L 193 296 L 194 295 L 194 294 L 194 294 L 194 293 L 194 292 L 194 291 L 194 291 L 194 290 L 194 289 L 194 289 L 194 288 L 194 287 L 194 287 L 194 286 L 194 285 L 194 284 L 194 284 L 194 283 L 194 282 L 194 282 L 194 281 L 194 280 L 194 280 L 194 279 L 194 278 L 194 277 L 194 277 L 195 276 L 195 275 L 195 275 L 196 274 L 196 273 L 196 272 L 196 272 L 196 271 L 198 270 L 198 270 L 198 269 L 198 268 L 198 268 L 198 267 L 198 266 L 198 265 L 198 265 L 198 264 L 198 263 L 198 263 L 198 262 L 198 261 L 198 261 L 198 260 L 198 259 L 199 258 L 200 258 L 200 257 L 201 256 L 201 256 L 206 255 L 207 254 L 207 254 L 209 253 L 209 252 L 212 251 L 216 251 L 217 250 L 221 249 L 222 249 L 225 248 L 225 247 L 226 247 L 230 246 L 230 245 L 232 244 L 233 244 L 234 243 L 236 242 L 236 242 L 236 241 L 237 240 L 239 239 L 241 239 L 241 238 L 241 237 L 242 237 L 242 236 L 244 235 L 246 235 L 248 234 L 252 233 L 253 232 L 254 232 L 256 231 L 256 230 L 257 230 L 259 229 L 269 228 L 270 228 L 271 227 L 281 226 L 281 225 L 281 225 L 281 224 L 282 223 L 283 223 L 286 222 L 288 221 L 288 221 L 300 220 L 302 219 L 305 218 L 309 218 L 311 217 L 311 216 L 313 216 L 321 215 L 330 214 L 341 214 L 342 213 L 342 212 L 342 211 L 343 211 L 345 210 L 359 209 L 365 209 L 366 208 L 371 207 L 372 206 L 373 206 L 389 205 L 389 204 L 390 204 L 390 203 L 392 202 L 397 202 L 398 201 L 402 200 L 404 199 L 407 199 L 416 198 L 416 197 L 418 197 L 418 196 L 418 195 L 419 195 L 423 194 L 432 193 L 452 192 L 459 192 L 463 191 L 463 190 L 466 190 L 468 189 L 468 188 L 468 188 L 468 187 L 468 186 L 468 185 L 468 185 L 468 184 L 468 183 L 468 183 L 468 182 L 469 181 L 469 181 L 469 180 L 470 179 L 471 178 L 473 178 L 473 177 L 474 176 L 474 176 L 474 175 L 476 174 L 476 173 L 476 173 L 476 172 L 476 171 L 476 171 L 477 170 L 478 169 L 479 169 L 480 168 L 480 167 L 480 166 L 480 166 L 481 165 L 482 164 L 482 164 L 482 163 L 483 162 L 484 162 L 484 161 L 485 160 L 486 159 L 488 159 L 489 158 L 491 157 L 495 157 L 495 156 L 496 155 L 497 155 L 497 154 L 497 153 L 497 152 L 500 152 L 501 151 L 503 150 L 504 150 L 505 149 L 508 148 L 510 148 L 510 147 L 514 146 L 515 145 L 516 145 L 517 144 L 517 143 L 524 143 L 526 142 L 527 141 L 532 140 L 535 140 L 541 139 L 542 138 L 543 138 L 544 137 L 545 136 L 545 136 L 550 135 L 553 134 L 556 133 L 556 133 L 558 132 L 560 131 L 560 131 L 560 130 L 560 129 L 561 129 L 562 128 L 562 127 L 564 126 L 564 126 L 564 125 L 565 124 L 572 124 L 580 123 L 580 122 L 581 122 L 586 121 L 589 120 L 590 119 L 591 119 L 593 118 L 595 117 L 595 117 L 595 116 L 595 115 L 595 115 L 596 114 L 596 113 L 596 112 L 597 112 L 598 111 L 602 110 L 602 110 L 602 109 L 602 108 L 602 107 L 603 107 L 603 106 L 603 105 L 603 105 L 603 104 L 603 103 L 603 103 L 603 102 L 610 101 L 614 100 L 614 100 L 615 99 L 623 98 L 632 98 L 634 97 L 639 96 L 643 96 L 654 95 L 657 94 L 661 93 L 661 93 L 661 92 L 661 91 L 662 91 L 662 90 L 662 89 L 662 89 L 664 88 L 666 87 L 679 86 L 682 86 L 687 85 L 697 84 L 704 84 L 710 83 L 714 82 L 721 82 L 721 81 L 736 80 L 751 79 L 752 79 L 762 78 L 763 77 L 771 77 L 773 76 L 777 75 L 777 74 L 778 74 L 778 73 L 783 72 L 785 72 L 789 71 L 795 70 L 796 70 L 798 69 L 799 68 L 805 67 L 810 67 L 810 66 L 817 65 L 823 65 L 824 64 L 825 63 L 827 63 L 829 62 L 830 61 L 835 60 L 840 60 L 844 59 L 848 58 L 848 58 L 856 57 L 858 56 L 862 56 L 869 55 L 869 54 L 877 53 L 878 53 L 879 52 L 881 51 L 882 51 L 885 50 L 886 49 L 889 49 L 894 48 L 895 47 L 896 46 L 896 46 L 909 45 L 909 44 L 910 44 L 910 43 L 911 42 L 912 41 L 912 41 L 913 40 L 914 39 L 917 39 L 917 38 L 919 37 L 920 37 L 921 36 L 922 35 L 923 34 L 924 34 L 925 33 L 925 32 L 925 32 L 927 31 L 927 30 L 927 30 L 928 29 L 929 28 L 931 27 L 932 27 L 932 26 L 933 25 L 934 25 L 936 24 L 938 23 L 938 23 L 939 22 L 941 21 L 944 20 L 944 20 L 945 19 L 945 18" /><path stroke-width="2" class="series" d="M 58 345 L 62 344 L 87 343 L 88 343 L 88 342 L 88 341 L 88 341 L 88 340 L 88 339 L 88 338 L 89 338 L 89 337 L 89 336 L 89 336 L 89 335 L 89 334 L 89 334 L 90 333 L 90 332 L 91 331 L 92 331 L 92 330 L 94 329 L 95 329 L 95 328 L 95 327 L 96 327 L 98 326 L 101 325 L 101 324 L 103 324 L 104 323 L 112 322 L 112 322 L 113 321 L 113 320 L 113 320 L 113 319 L 117 318 L 119 317 L 121 317 L 125 316 L 131 315 L 133 315 L 145 314 L 148 313 L 154 313 L 161 312 L 163 311 L 187 310 L 188 310 L 188 309 L 191 308 L 192 308 L 192 307 L 192 306 L 192 305 L 192 305 L 192 304 L 192 303 L 192 303 L 193 302 L 193 301 L 193 301 L 193 300 L 193 299 L 193 298 L 193 298 L 193 297 L 193 296 L 193 296 L 194 295 L 194 294 L 194 294 L 194 293 L 194 292 L 194 291 L 194 291 L 194 290 L 194 289 L 194 289 L 194 288 L 194 287 L 194 287 L 194 286 L 194 285 L 194 284 L 194 284 L 194 283 L 194 282 L 194 282 L 194 281 L 194 280 L 194 280 L 194 279 L 194 278 L 194 277 L 194 277 L 195 276 L 195 275 L 195 275 L 196 274 L 196 273 L 196 272 L 196 272 L 196 271 L 198 270 L 198 270 L 198 269 L 198 268 L 198 268 L 198 267 L 198 266 L 198 265 L 198 265 L 198 264 L 198 263 L 198 263 L 198 262 L 198 261 L 198 261 L 198 260 L 198 259 L 199 258 L 200 258 L 200 257 L 201 256 L 201 256 L 206 255 L 207 254 L 207 254 L 209 253 L 209 252 L 212 251 L 216 251 L 217 250 L 221 249 L 222 249 L 225 248 L 225 247 L 226 247 L 230 246 L 230 245 L 232 244 L 233 244 L 234 243 L 236 242 L 236 242 L 236 241 L 237 240 L 239 239 L 241 239 L 241 238 L 241 237 L 242 237 L 242 236 L 244 235 L 246 235 L 248 234 L 252 233 L 253 232 L 254 232 L 256 231 L 256 230 L 257 230 L 259 229 L 269 228 L 270 228 L 271 227 L 281 226 L 281 225 L 281 225 L 281 224 L 282 223 L 283 223 L 286 222 L 288 221 L 288 221 L 300 220 L 302 219 L 305 218 L 309 218 L 311 217 L 311 216 L 313 216 L 321 215 L 330 214 L 341 214 L 342 213 L 342 212 L 342 211 L 343 211 L 345 210 L 359 209 L 365 209 L 366 208 L 371 207 L 372 206 L 373 206 L 389 205 L 389 204 L 390 204 L 390 203 L 392 202 L 397 202 L 398 201 L 402 200 L 404 199 L 407 199 L 416 198 L 416 197 L 418 197 L 418 196 L 418 195 L 419 195 L 423 194 L 432 193 L 452 192 L 459 192 L 463 191 L 463 190 L 466 190 L 468 189 L 468 188 L 468 188 L 468 187 L 468 186 L 468 185 L 468 185 L 468 184 L 468 183 L 468 183 L 468 182 L 469 181 L 469 181 L 469 180 L 470 179 L 471 178 L 473 178 L 473 177 L 474 176 L 474 176 L 474 175 L 476 174 L 476 173 L 476 173 L 476 172 L 476 171 L 476 171 L 477 170 L 478 169 L 479 169 L 480 168 L 480 167 L 480 166 L 480 166 L 481 165 L 482 164 L 482 164 L 482 163 L 483 162 L 484 162 L 484 161 L 485 160 L 486 159 L 488 159 L 489 158 L 491 157 L 495 157 L 495 156 L 496 155 L 497 155 L 497 154 L 497 153 L 497 152 L 500 152 L 501 151 L 503 150 L 504 150 L 505 149 L 508 148 L 510 148 L 510 147 L 514 146 L 515 145 L 516 145 L 517 144 L 517 143 L 524 143 L 526 142 L 527 141 L 532 140 L 535 140 L 541 139 L 542 138 L 543 138 L 544 137 L 545 136 L 545 136 L 550 135 L 553 134 L 556 133 L 556 133 L 558 132 L 560 131 L 560 131 L 560 130 L 560 129 L 561 129 L 562 128 L 562 127 L 564 126 L 564 126 L 564 125 L 565 124 L 572 124 L 580 123 L 580 122 L 581 122 L 586 121 L 589 120 L 590 119 L 591 119 L 593 118 L 595 117 L 595 117 L 595 116 L 595 115 L 595 115 L 596 114 L 596 113 L 596 112 L 597 112 L 598 111 L 602 110 L 602 110 L 602 109 L 602 108 L 602 107 L 603 107 L 603 106 L 603 105 L 603 105 L 603 104 L 603 103 L 603 103 L 603 102 L 610 101 L 614 100 L 614 100 L 615 99 L 623 98 L 632 98 L 634 97 L 639 96 L 643 96 L 654 95 L 657 94 L 661 93 L 661 93 L 661 92 L 661 91 L 662 91 L 662 90 L 662 89 L 662 89 L 664 88 L 666 87 L 679 86 L 682 86 L 687 85 L 697 84 L 704 84 L 710 83 L 714 82 L 721 82 L 721 81 L 736 80 L 751 79 L 752 79 L 762 78 L 763 77 L 771 77 L 773 76 L 777 75 L 777 74 L 778 74 L 778 73 L 783 72 L 785 72 L 789 71 L 795 70 L 796 70 L 798 69 L 799 68 L 805 67 L 810 67 L 810 66 L 817 65 L 823 65 L 824 64 L 825 63 L 827 63 L 829 62 L 830 61 L 835 60 L 840 60 L 844 59 L 848 58 L 848 58 L 856 57 L 858 56 L 862 56 L 869 55 L 869 54 L 877 53 L 878 53 L 879 52 L 881 51 L 882 51 L 885 50 L 886 49 L 889 49 L 894 48 L 895 47 L 896 46 L 896 46 L 909 45 L 909 44 L 910 44 L 910 43 L 911 42 L 912 41 L 912 41 L 913 40 L 914 39 L 917 39 L 917 38 L 919 37 L 920 37 L 921 36 L 922 35 L 923 34 L 924 34 L 925 33 L 925 32 L 925 32 L 927 31 L 927 30 L 927 30 L 928 29 L 929 28 L 931 27 L 932 27 L 932 26 L 933 25 L 934 25 L 936 24 L 938 23 L 938 23 L 939 22 L 941 21 L 944 20 L 944 20 L 945 19 L 945 18"></path><path stroke-width="2" d="M 945 346 L 945.000000 15.000000" /><path stroke-width="2" d="M 945 346 L 945.000000 15.000000"></path><path stroke-width="2" d="M 945 346 L 950 346" /><path stroke-width="2" d="M 945 346 L 950 346"></path><text xmlns="http://www.w3.org/2000/svg" x="955" y="352">0</text><path stroke-width="2" d="M 945 308 L 950 308" /><path stroke-width="2" d="M 945 308 L 950 308"></path><text xmlns="http://www.w3.org/2000/svg" x="955" y="314">53</text><path stroke-width="2" d="M 945 272 L 950 272" /><path stroke-width="2" d="M 945 272 L 950 272"></path><text xmlns="http://www.w3.org/2000/svg" x="955" y="278">105</text><path stroke-width="2" d="M 945 235 L 950 235" /><path stroke-width="2" d="M 945 235 L 950 235"></path><text xmlns="http://www.w3.org/2000/svg" x="955" y="241">157</text><path stroke-width="2" d="M 945 199 L 950 199" /><path d="M 945 199 L 950 199" stroke-width="2"></path><text y="205" xmlns="http://www.w3.org/2000/svg" x="955">209</text><path stroke-width="2" d="M 945 162 L 950 162" /><path stroke-width="2" d="M 945 162 L 950 162"></path><text xmlns="http://www.w3.org/2000/svg" x="955" y="168">262</text><path stroke-width="2" d="M 945 125 L 950 125" /><path stroke-width="2" d="M 945 125 L 950 125"></path><text y="131" xmlns="http://www.w3.org/2000/svg" x="955">314</text><path stroke-width="2" d="M 945 89 L 950 89" /><path stroke-width="2" d="M 945 89 L 950 89"></path><text y="95" xmlns="http://www.w3.org/2000/svg" x="955">366</text><path stroke-width="2" d="M 945 52 L 950 52" /><path stroke-width="2" d="M 945 52 L 950 52"></path><text xmlns="http://www.w3.org/2000/svg" x="955" y="58">418</text><path stroke-width="2" d="M 945 16 L 950 16" /><path stroke-width="2" d="M 945 16 L 950 16"></path><text xmlns="http://www.w3.org/2000/svg" x="955" y="22">470</text><text xmlns="http://www.w3.org/2000/svg" x="987" y="175" transform="rotate(90.00,987,175)">Stargazers</text><path stroke-width="2" d="M 57.000000 346.000000 L 945 346" /><path stroke-width="2" d="M 57.000000 346.000000 L 945 346"></path><path stroke-width="2" d="M 58 346 L 58 351" /><path stroke-width="2" d="M 58 346 L 58 351"></path><text xmlns="http://www.w3.org/2000/svg" x="25" y="368">2023-04-02</text><path stroke-width="2" d="M 157 346 L 157 351" /><path d="M 157 346 L 157 351" stroke-width="2"></path><text xmlns="http://www.w3.org/2000/svg" x="124" y="368">2023-05-19</text><path stroke-width="2" d="M 256 346 L 256 351" /><path stroke-width="2" d="M 256 346 L 256 351"></path><text xmlns="http://www.w3.org/2000/svg" x="223" y="368">2023-07-05</text><path stroke-width="2" d="M 354 346 L 354 351" /><path stroke-width="2" d="M 354 346 L 354 351"></path><text y="368" xmlns="http://www.w3.org/2000/svg" x="321">2023-08-22</text><path stroke-width="2" d="M 453 346 L 453 351" /><path d="M 453 346 L 453 351" stroke-width="2"></path><text y="368" xmlns="http://www.w3.org/2000/svg" x="420">2023-10-08</text><path d="M 551 346 L 551 351" stroke-width="2" /><path stroke-width="2" d="M 551 346 L 551 351"></path><text xmlns="http://www.w3.org/2000/svg" x="518" y="368">2023-11-24</text><path stroke-width="2" d="M 650 346 L 650 351" /><path stroke-width="2" d="M 650 346 L 650 351"></path><text xmlns="http://www.w3.org/2000/svg" x="617" y="368">2024-01-10</text><path stroke-width="2" d="M 748 346 L 748 351" /><path stroke-width="2" d="M 748 346 L 748 351"></path><text xmlns="http://www.w3.org/2000/svg" x="715" y="368">2024-02-26</text><path stroke-width="2" d="M 847 346 L 847 351" /><path stroke-width="2" d="M 847 346 L 847 351"></path><text xmlns="http://www.w3.org/2000/svg" x="814" y="368">2024-04-13</text><path stroke-width="2" d="M 945 346 L 945 351" /><path stroke-width="2" d="M 945 346 L 945 351"></path><text xmlns="http://www.w3.org/2000/svg" x="912" y="368">2024-05-31</text><text xmlns="http://www.w3.org/2000/svg" x="487" y="390">Time</text></svg>