<svg xmlns="http://www.w3.org/2000/svg" xmlns:xlink="http://www.w3.org/1999/xlink" width="1024px" height="400px"><style type="text/css">
path { fill: none; stroke: rgb(51,51,51); }
path.series { stroke: #6b63ff; }
rect.background { fill: rgb(255,255,255); stroke: none; }

text {
	stroke-width: 0;
	stroke: none;
	fill: rgba(51,51,51,1.0);
	font-size: 12.8px;
	font-family: 'Roboto Medium', sans-serif;
}
</style><rect x="0" y="0" width="1024px" height="400px" class="background" rx="8" /><rect x="0" y="0" width="1024px" height="400px" class="background" rx="8"></rect><path stroke-width="2" class="series" d="M 58 345 L 62 344 L 85 344 L 85 343 L 85 342 L 85 342 L 85 341 L 85 341 L 85 340 L 85 339 L 86 339 L 86 338 L 86 337 L 86 337 L 86 336 L 86 336 L 86 335 L 87 334 L 87 334 L 88 333 L 89 332 L 89 332 L 91 331 L 92 331 L 92 330 L 92 329 L 92 329 L 94 328 L 96 327 L 97 327 L 98 326 L 100 326 L 107 325 L 107 324 L 107 324 L 107 323 L 107 322 L 107 322 L 111 321 L 113 321 L 115 320 L 118 319 L 124 319 L 126 318 L 136 317 L 139 317 L 145 316 L 150 316 L 153 315 L 174 314 L 175 314 L 175 313 L 178 313 L 179 312 L 179 311 L 179 311 L 179 310 L 179 309 L 179 309 L 179 308 L 179 308 L 179 307 L 179 306 L 179 306 L 180 305 L 180 304 L 180 304 L 180 303 L 180 303 L 180 302 L 180 301 L 180 301 L 180 300 L 180 299 L 180 299 L 180 298 L 180 298 L 180 297 L 180 296 L 180 296 L 180 295 L 180 294 L 180 294 L 180 293 L 180 293 L 180 292 L 180 291 L 180 291 L 180 290 L 180 289 L 180 289 L 180 288 L 180 288 L 180 287 L 181 286 L 181 286 L 181 285 L 181 284 L 181 284 L 181 283 L 181 283 L 182 282 L 182 281 L 182 281 L 182 280 L 183 280 L 184 279 L 184 278 L 184 278 L 184 277 L 184 276 L 184 276 L 184 275 L 184 275 L 184 274 L 184 273 L 184 273 L 184 272 L 184 271 L 184 271 L 184 270 L 184 270 L 184 269 L 185 268 L 186 268 L 186 267 L 186 266 L 186 266 L 191 265 L 192 265 L 192 264 L 194 263 L 194 263 L 197 262 L 201 261 L 202 261 L 205 260 L 206 260 L 208 259 L 209 258 L 209 258 L 213 257 L 213 256 L 214 256 L 216 255 L 217 255 L 218 254 L 218 253 L 218 253 L 219 252 L 221 251 L 222 251 L 222 250 L 223 250 L 224 249 L 224 248 L 225 248 L 228 247 L 229 247 L 233 246 L 234 245 L 235 245 L 236 244 L 236 243 L 237 243 L 239 242 L 248 242 L 249 241 L 250 240 L 259 240 L 259 239 L 259 238 L 259 238 L 259 237 L 261 237 L 264 236 L 265 235 L 265 235 L 276 234 L 278 233 L 280 233 L 284 232 L 286 232 L 286 231 L 287 230 L 295 230 L 303 229 L 313 228 L 313 228 L 313 227 L 314 227 L 314 226 L 316 225 L 329 225 L 335 224 L 335 223 L 340 223 L 341 222 L 342 222 L 356 221 L 356 220 L 357 220 L 357 219 L 359 218 L 363 218 L 364 217 L 367 217 L 369 216 L 372 215 L 380 215 L 380 214 L 382 214 L 382 213 L 382 212 L 383 212 L 387 211 L 395 210 L 412 210 L 419 209 L 422 209 L 423 208 L 425 207 L 427 207 L 427 206 L 427 205 L 427 205 L 427 204 L 427 204 L 427 203 L 427 202 L 427 202 L 427 201 L 427 200 L 428 200 L 428 199 L 428 199 L 429 198 L 430 197 L 431 197 L 432 196 L 432 195 L 432 195 L 432 194 L 434 194 L 434 193 L 434 192 L 435 192 L 435 191 L 435 190 L 435 190 L 436 189 L 437 189 L 438 188 L 438 187 L 438 187 L 438 186 L 438 185 L 440 185 L 440 184 L 440 184 L 440 183 L 441 182 L 442 182 L 442 181 L 444 181 L 445 180 L 446 179 L 448 179 L 452 178 L 452 177 L 453 177 L 453 176 L 453 176 L 453 175 L 453 174 L 456 174 L 456 173 L 459 172 L 459 172 L 460 171 L 463 171 L 465 170 L 465 169 L 469 169 L 469 168 L 470 167 L 471 167 L 471 166 L 478 166 L 479 165 L 480 164 L 485 164 L 487 163 L 493 162 L 494 162 L 494 161 L 496 161 L 496 160 L 496 159 L 500 159 L 504 158 L 506 157 L 506 157 L 508 156 L 510 156 L 510 155 L 510 154 L 510 154 L 511 153 L 511 152 L 511 152 L 513 151 L 513 151 L 513 150 L 515 149 L 521 149 L 528 148 L 528 148 L 529 147 L 534 146 L 536 146 L 537 145 L 538 144 L 540 144 L 541 143 L 541 143 L 541 142 L 541 141 L 541 141 L 542 140 L 542 139 L 543 139 L 543 138 L 544 138 L 547 137 L 547 136 L 547 136 L 548 135 L 548 134 L 548 134 L 548 133 L 549 133 L 549 132 L 549 131 L 549 131 L 549 130 L 549 129 L 555 129 L 558 128 L 558 128 L 560 127 L 567 126 L 575 126 L 577 125 L 581 124 L 585 124 L 594 123 L 597 123 L 601 122 L 601 121 L 601 121 L 601 120 L 602 119 L 602 119 L 602 118 L 602 118 L 604 117 L 605 116 L 617 116 L 620 115 L 624 115 L 633 114 L 640 113 L 645 113 L 648 112 L 655 111 L 655 111 L 669 110 L 682 110 L 682 109 L 692 108 L 692 108 L 700 107 L 701 106 L 705 106 L 705 105 L 706 105 L 706 104 L 711 103 L 712 103 L 716 102 L 722 101 L 723 101 L 724 100 L 725 100 L 730 99 L 735 98 L 735 98 L 741 97 L 747 96 L 748 96 L 748 95 L 751 95 L 752 94 L 753 93 L 758 93 L 762 92 L 765 91 L 769 91 L 769 90 L 776 90 L 778 89 L 782 88 L 788 88 L 788 87 L 796 86 L 796 86 L 797 85 L 799 85 L 799 84 L 803 83 L 803 83 L 806 82 L 810 82 L 812 81 L 812 80 L 812 80 L 824 79 L 824 78 L 825 78 L 825 77 L 826 77 L 827 76 L 827 75 L 828 75 L 828 74 L 831 73 L 831 73 L 833 72 L 834 72 L 835 71 L 836 70 L 837 70 L 837 69 L 838 68 L 839 68 L 839 67 L 840 67 L 840 66 L 840 65 L 841 65 L 842 64 L 844 63 L 844 63 L 845 62 L 846 62 L 847 61 L 848 60 L 850 60 L 850 59 L 851 58 L 853 58 L 855 57 L 856 57 L 856 56 L 857 55 L 860 55 L 860 54 L 860 53 L 861 53 L 861 52 L 861 52 L 861 51 L 862 50 L 863 50 L 864 49 L 869 49 L 871 48 L 873 47 L 873 47 L 876 46 L 878 45 L 879 45 L 882 44 L 886 44 L 890 43 L 893 42 L 894 42 L 895 41 L 895 40 L 895 40 L 896 39 L 897 39 L 897 38 L 898 37 L 898 37 L 898 36 L 899 35 L 901 35 L 902 34 L 902 34 L 904 33 L 904 32 L 908 32 L 909 31 L 909 30 L 910 30 L 912 29 L 915 29 L 919 28 L 925 27 L 925 27 L 925 26 L 925 25 L 928 25 L 932 24 L 932 24 L 932 23 L 932 22 L 933 22 L 936 21 L 941 20 L 941 20 L 941 19 L 941 19 L 944 18 L 945 17 L 945 17 L 945 16 L 945 16" /><path stroke-width="2" class="series" d="M 58 345 L 62 344 L 85 344 L 85 343 L 85 342 L 85 342 L 85 341 L 85 341 L 85 340 L 85 339 L 86 339 L 86 338 L 86 337 L 86 337 L 86 336 L 86 336 L 86 335 L 87 334 L 87 334 L 88 333 L 89 332 L 89 332 L 91 331 L 92 331 L 92 330 L 92 329 L 92 329 L 94 328 L 96 327 L 97 327 L 98 326 L 100 326 L 107 325 L 107 324 L 107 324 L 107 323 L 107 322 L 107 322 L 111 321 L 113 321 L 115 320 L 118 319 L 124 319 L 126 318 L 136 317 L 139 317 L 145 316 L 150 316 L 153 315 L 174 314 L 175 314 L 175 313 L 178 313 L 179 312 L 179 311 L 179 311 L 179 310 L 179 309 L 179 309 L 179 308 L 179 308 L 179 307 L 179 306 L 179 306 L 180 305 L 180 304 L 180 304 L 180 303 L 180 303 L 180 302 L 180 301 L 180 301 L 180 300 L 180 299 L 180 299 L 180 298 L 180 298 L 180 297 L 180 296 L 180 296 L 180 295 L 180 294 L 180 294 L 180 293 L 180 293 L 180 292 L 180 291 L 180 291 L 180 290 L 180 289 L 180 289 L 180 288 L 180 288 L 180 287 L 181 286 L 181 286 L 181 285 L 181 284 L 181 284 L 181 283 L 181 283 L 182 282 L 182 281 L 182 281 L 182 280 L 183 280 L 184 279 L 184 278 L 184 278 L 184 277 L 184 276 L 184 276 L 184 275 L 184 275 L 184 274 L 184 273 L 184 273 L 184 272 L 184 271 L 184 271 L 184 270 L 184 270 L 184 269 L 185 268 L 186 268 L 186 267 L 186 266 L 186 266 L 191 265 L 192 265 L 192 264 L 194 263 L 194 263 L 197 262 L 201 261 L 202 261 L 205 260 L 206 260 L 208 259 L 209 258 L 209 258 L 213 257 L 213 256 L 214 256 L 216 255 L 217 255 L 218 254 L 218 253 L 218 253 L 219 252 L 221 251 L 222 251 L 222 250 L 223 250 L 224 249 L 224 248 L 225 248 L 228 247 L 229 247 L 233 246 L 234 245 L 235 245 L 236 244 L 236 243 L 237 243 L 239 242 L 248 242 L 249 241 L 250 240 L 259 240 L 259 239 L 259 238 L 259 238 L 259 237 L 261 237 L 264 236 L 265 235 L 265 235 L 276 234 L 278 233 L 280 233 L 284 232 L 286 232 L 286 231 L 287 230 L 295 230 L 303 229 L 313 228 L 313 228 L 313 227 L 314 227 L 314 226 L 316 225 L 329 225 L 335 224 L 335 223 L 340 223 L 341 222 L 342 222 L 356 221 L 356 220 L 357 220 L 357 219 L 359 218 L 363 218 L 364 217 L 367 217 L 369 216 L 372 215 L 380 215 L 380 214 L 382 214 L 382 213 L 382 212 L 383 212 L 387 211 L 395 210 L 412 210 L 419 209 L 422 209 L 423 208 L 425 207 L 427 207 L 427 206 L 427 205 L 427 205 L 427 204 L 427 204 L 427 203 L 427 202 L 427 202 L 427 201 L 427 200 L 428 200 L 428 199 L 428 199 L 429 198 L 430 197 L 431 197 L 432 196 L 432 195 L 432 195 L 432 194 L 434 194 L 434 193 L 434 192 L 435 192 L 435 191 L 435 190 L 435 190 L 436 189 L 437 189 L 438 188 L 438 187 L 438 187 L 438 186 L 438 185 L 440 185 L 440 184 L 440 184 L 440 183 L 441 182 L 442 182 L 442 181 L 444 181 L 445 180 L 446 179 L 448 179 L 452 178 L 452 177 L 453 177 L 453 176 L 453 176 L 453 175 L 453 174 L 456 174 L 456 173 L 459 172 L 459 172 L 460 171 L 463 171 L 465 170 L 465 169 L 469 169 L 469 168 L 470 167 L 471 167 L 471 166 L 478 166 L 479 165 L 480 164 L 485 164 L 487 163 L 493 162 L 494 162 L 494 161 L 496 161 L 496 160 L 496 159 L 500 159 L 504 158 L 506 157 L 506 157 L 508 156 L 510 156 L 510 155 L 510 154 L 510 154 L 511 153 L 511 152 L 511 152 L 513 151 L 513 151 L 513 150 L 515 149 L 521 149 L 528 148 L 528 148 L 529 147 L 534 146 L 536 146 L 537 145 L 538 144 L 540 144 L 541 143 L 541 143 L 541 142 L 541 141 L 541 141 L 542 140 L 542 139 L 543 139 L 543 138 L 544 138 L 547 137 L 547 136 L 547 136 L 548 135 L 548 134 L 548 134 L 548 133 L 549 133 L 549 132 L 549 131 L 549 131 L 549 130 L 549 129 L 555 129 L 558 128 L 558 128 L 560 127 L 567 126 L 575 126 L 577 125 L 581 124 L 585 124 L 594 123 L 597 123 L 601 122 L 601 121 L 601 121 L 601 120 L 602 119 L 602 119 L 602 118 L 602 118 L 604 117 L 605 116 L 617 116 L 620 115 L 624 115 L 633 114 L 640 113 L 645 113 L 648 112 L 655 111 L 655 111 L 669 110 L 682 110 L 682 109 L 692 108 L 692 108 L 700 107 L 701 106 L 705 106 L 705 105 L 706 105 L 706 104 L 711 103 L 712 103 L 716 102 L 722 101 L 723 101 L 724 100 L 725 100 L 730 99 L 735 98 L 735 98 L 741 97 L 747 96 L 748 96 L 748 95 L 751 95 L 752 94 L 753 93 L 758 93 L 762 92 L 765 91 L 769 91 L 769 90 L 776 90 L 778 89 L 782 88 L 788 88 L 788 87 L 796 86 L 796 86 L 797 85 L 799 85 L 799 84 L 803 83 L 803 83 L 806 82 L 810 82 L 812 81 L 812 80 L 812 80 L 824 79 L 824 78 L 825 78 L 825 77 L 826 77 L 827 76 L 827 75 L 828 75 L 828 74 L 831 73 L 831 73 L 833 72 L 834 72 L 835 71 L 836 70 L 837 70 L 837 69 L 838 68 L 839 68 L 839 67 L 840 67 L 840 66 L 840 65 L 841 65 L 842 64 L 844 63 L 844 63 L 845 62 L 846 62 L 847 61 L 848 60 L 850 60 L 850 59 L 851 58 L 853 58 L 855 57 L 856 57 L 856 56 L 857 55 L 860 55 L 860 54 L 860 53 L 861 53 L 861 52 L 861 52 L 861 51 L 862 50 L 863 50 L 864 49 L 869 49 L 871 48 L 873 47 L 873 47 L 876 46 L 878 45 L 879 45 L 882 44 L 886 44 L 890 43 L 893 42 L 894 42 L 895 41 L 895 40 L 895 40 L 896 39 L 897 39 L 897 38 L 898 37 L 898 37 L 898 36 L 899 35 L 901 35 L 902 34 L 902 34 L 904 33 L 904 32 L 908 32 L 909 31 L 909 30 L 910 30 L 912 29 L 915 29 L 919 28 L 925 27 L 925 27 L 925 26 L 925 25 L 928 25 L 932 24 L 932 24 L 932 23 L 932 22 L 933 22 L 936 21 L 941 20 L 941 20 L 941 19 L 941 19 L 944 18 L 945 17 L 945 17 L 945 16 L 945 16"></path><path stroke-width="2" d="M 945 346 L 945.000000 15.000000" /><path stroke-width="2" d="M 945 346 L 945.000000 15.000000"></path><path stroke-width="2" d="M 945 346 L 950 346" /><path stroke-width="2" d="M 945 346 L 950 346"></path><text xmlns="http://www.w3.org/2000/svg" x="955" y="352">0</text><path stroke-width="2" d="M 945 309 L 950 309" /><path stroke-width="2" d="M 945 309 L 950 309"></path><text xmlns="http://www.w3.org/2000/svg" x="955" y="315">59</text><path stroke-width="2" d="M 945 272 L 950 272" /><path stroke-width="2" d="M 945 272 L 950 272"></path><text xmlns="http://www.w3.org/2000/svg" x="955" y="278">118</text><path stroke-width="2" d="M 945 235 L 950 235" /><path stroke-width="2" d="M 945 235 L 950 235"></path><text xmlns="http://www.w3.org/2000/svg" x="955" y="241">177</text><path stroke-width="2" d="M 945 199 L 950 199" /><path stroke-width="2" d="M 945 199 L 950 199"></path><text x="955" y="205" xmlns="http://www.w3.org/2000/svg">236</text><path stroke-width="2" d="M 945 162 L 950 162" /><path stroke-width="2" d="M 945 162 L 950 162"></path><text xmlns="http://www.w3.org/2000/svg" x="955" y="168">295</text><path stroke-width="2" d="M 945 125 L 950 125" /><path stroke-width="2" d="M 945 125 L 950 125"></path><text x="955" y="131" xmlns="http://www.w3.org/2000/svg">354</text><path stroke-width="2" d="M 945 88 L 950 88" /><path d="M 945 88 L 950 88" stroke-width="2"></path><text xmlns="http://www.w3.org/2000/svg" x="955" y="94">413</text><path d="M 945 52 L 950 52" stroke-width="2" /><path stroke-width="2" d="M 945 52 L 950 52"></path><text xmlns="http://www.w3.org/2000/svg" x="955" y="58">472</text><path stroke-width="2" d="M 945 16 L 950 16" /><path stroke-width="2" d="M 945 16 L 950 16"></path><text xmlns="http://www.w3.org/2000/svg" x="955" y="22">530</text><text xmlns="http://www.w3.org/2000/svg" x="987" y="175" transform="rotate(90.00,987,175)">Stargazers</text><path stroke-width="2" d="M 57.000000 346.000000 L 945 346" /><path stroke-width="2" d="M 57.000000 346.000000 L 945 346"></path><path stroke-width="2" d="M 58 346 L 58 351" /><path stroke-width="2" d="M 58 346 L 58 351"></path><text xmlns="http://www.w3.org/2000/svg" x="25" y="368">2023-04-02</text><path stroke-width="2" d="M 157 346 L 157 351" /><path stroke-width="2" d="M 157 346 L 157 351"></path><text xmlns="http://www.w3.org/2000/svg" x="124" y="368">2023-05-24</text><path stroke-width="2" d="M 256 346 L 256 351" /><path stroke-width="2" d="M 256 346 L 256 351"></path><text xmlns="http://www.w3.org/2000/svg" x="223" y="368">2023-07-16</text><path stroke-width="2" d="M 354 346 L 354 351" /><path stroke-width="2" d="M 354 346 L 354 351"></path><text x="321" y="368" xmlns="http://www.w3.org/2000/svg">2023-09-06</text><path stroke-width="2" d="M 453 346 L 453 351" /><path d="M 453 346 L 453 351" stroke-width="2"></path><text x="420" y="368" xmlns="http://www.w3.org/2000/svg">2023-10-29</text><path stroke-width="2" d="M 551 346 L 551 351" /><path stroke-width="2" d="M 551 346 L 551 351"></path><text xmlns="http://www.w3.org/2000/svg" x="518" y="368">2023-12-20</text><path stroke-width="2" d="M 650 346 L 650 351" /><path stroke-width="2" d="M 650 346 L 650 351"></path><text xmlns="http://www.w3.org/2000/svg" x="617" y="368">2024-02-11</text><path stroke-width="2" d="M 748 346 L 748 351" /><path stroke-width="2" d="M 748 346 L 748 351"></path><text xmlns="http://www.w3.org/2000/svg" x="715" y="368">2024-04-03</text><path stroke-width="2" d="M 847 346 L 847 351" /><path d="M 847 346 L 847 351" stroke-width="2"></path><text xmlns="http://www.w3.org/2000/svg" x="814" y="368">2024-05-25</text><path stroke-width="2" d="M 945 346 L 945 351" /><path stroke-width="2" d="M 945 346 L 945 351"></path><text xmlns="http://www.w3.org/2000/svg" x="912" y="368">2024-07-17</text><text xmlns="http://www.w3.org/2000/svg" x="487" y="390">Time</text></svg>