<svg height="400px" xmlns="http://www.w3.org/2000/svg" xmlns:xlink="http://www.w3.org/1999/xlink" width="1024px"><style type="text/css">
path { fill: none; stroke: rgb(51,51,51); }
path.series { stroke: #6b63ff; }
rect.background { fill: rgb(255,255,255); stroke: none; }

text {
	stroke-width: 0;
	stroke: none;
	fill: rgba(51,51,51,1.0);
	font-size: 12.8px;
	font-family: 'Roboto Medium', sans-serif;
}
</style><rect height="400px" class="background" rx="8" x="0" y="0" width="1024px" /><rect height="400px" class="background" rx="8" x="0" y="0" width="1024px"></rect><path stroke-width="2" class="series" d="M 58 345 L 62 344 L 88 343 L 89 343 L 89 342 L 89 341 L 89 340 L 89 340 L 89 339 L 89 338 L 90 337 L 90 337 L 90 336 L 90 335 L 90 335 L 90 334 L 90 333 L 91 332 L 91 332 L 92 331 L 93 330 L 93 329 L 95 329 L 96 328 L 96 327 L 97 326 L 97 326 L 99 325 L 102 324 L 102 324 L 104 323 L 106 322 L 114 321 L 114 321 L 114 320 L 114 319 L 114 318 L 114 318 L 119 317 L 121 316 L 123 315 L 127 315 L 133 314 L 136 313 L 147 313 L 151 312 L 157 311 L 164 310 L 166 310 L 191 309 L 192 308 L 192 307 L 196 307 L 196 306 L 196 305 L 196 304 L 196 304 L 196 303 L 196 302 L 196 302 L 196 301 L 197 300 L 197 299 L 197 299 L 197 298 L 198 297 L 198 296 L 198 296 L 198 295 L 198 294 L 198 293 L 198 293 L 198 292 L 198 291 L 198 291 L 198 290 L 198 289 L 198 288 L 198 288 L 198 287 L 198 286 L 198 285 L 198 285 L 198 284 L 198 283 L 198 282 L 198 282 L 198 281 L 198 280 L 198 280 L 198 279 L 198 278 L 198 277 L 198 277 L 198 276 L 198 275 L 198 274 L 198 274 L 199 273 L 199 272 L 199 271 L 200 271 L 200 270 L 200 269 L 200 269 L 201 268 L 202 267 L 202 266 L 202 266 L 202 265 L 202 264 L 202 263 L 202 263 L 202 262 L 202 261 L 202 260 L 202 260 L 202 259 L 202 258 L 202 258 L 202 257 L 202 256 L 202 255 L 203 255 L 205 254 L 205 253 L 205 252 L 205 252 L 211 251 L 211 250 L 211 249 L 213 249 L 213 248 L 217 247 L 221 247 L 222 246 L 226 245 L 227 244 L 230 244 L 230 243 L 231 242 L 235 241 L 235 241 L 237 240 L 239 239 L 239 238 L 241 238 L 241 237 L 241 236 L 242 236 L 244 235 L 246 234 L 246 233 L 247 233 L 248 232 L 248 231 L 249 230 L 252 230 L 254 229 L 258 228 L 259 227 L 260 227 L 262 226 L 262 225 L 263 225 L 265 224 L 276 223 L 276 222 L 278 222 L 288 221 L 288 220 L 288 219 L 288 219 L 289 218 L 290 217 L 293 216 L 295 216 L 295 215 L 307 214 L 310 214 L 313 213 L 316 212 L 319 211 L 319 211 L 321 210 L 329 209 L 338 208 L 349 208 L 350 207 L 350 206 L 351 205 L 351 205 L 354 204 L 368 203 L 375 203 L 375 202 L 381 201 L 382 200 L 383 200 L 399 199 L 399 198 L 400 197 L 400 197 L 402 196 L 407 195 L 409 194 L 412 194 L 414 193 L 418 192 L 427 192 L 427 191 L 429 190 L 429 189 L 429 189 L 430 188 L 435 187 L 444 186 L 463 186 L 471 185 L 471 184 L 475 183 L 476 183 L 478 182 L 480 181 L 480 181 L 480 180 L 480 179 L 480 178 L 480 178 L 480 177 L 480 176 L 481 175 L 481 175 L 481 174 L 481 173 L 481 172 L 482 172 L 482 171 L 483 170 L 485 170 L 486 169 L 486 168 L 486 167 L 486 167 L 489 166 L 489 165 L 489 164 L 489 164 L 489 163 L 489 162 L 489 161 L 491 161 L 492 160 L 493 159 L 493 159 L 493 158 L 493 157 L 493 156 L 495 156 L 495 155 L 495 154 L 495 153 L 497 153 L 497 152 L 498 151 L 499 150 L 501 150 L 502 149 L 505 148 L 508 148 L 509 147 L 510 146 L 510 145 L 510 145 L 510 144 L 510 143 L 513 142 L 514 142 L 517 141 L 517 140 L 518 139 L 521 139 L 524 138 L 524 137 L 528 137 L 529 136 L 530 135 L 531 134 L 531 134 L 539 133 L 540 132 L 541 131 L 546 131 L 549 130 L 555 129 L 557 128 L 557 128 L 559 127 L 560 126 L 560 126 L 564 125 L 568 124 L 571 123 L 571 123 L 573 122 L 575 121 L 575 120 L 575 120 L 575 119 L 576 118 L 577 117 L 577 117 L 579 116 L 579 115 L 579 115 L 581 114 L 588 113 L 596 112 L 596 112 L 597 111 L 602 110 L 605 109 L 606 109 L 607 108 L 609 107 L 611 106 L 611 106 L 611 105 L 611 104 L 611 104 L 612 103 L 612 102 L 613 101 L 613 101 L 614 100 L 618 99 L 618 98 L 618 98 L 618 97 L 619 96 L 619 95 L 619 95 L 619 94 L 619 93 L 620 92 L 620 92 L 620 91 L 620 90 L 627 90 L 631 89 L 631 88 L 632 87 L 640 87 L 650 86 L 652 85 L 657 84 L 661 84 L 672 83 L 675 82 L 679 82 L 680 81 L 680 80 L 680 79 L 680 79 L 680 78 L 680 77 L 680 76 L 683 76 L 684 75 L 697 74 L 701 73 L 706 73 L 716 72 L 724 71 L 730 71 L 734 70 L 741 69 L 741 68 L 757 68 L 772 67 L 773 66 L 783 65 L 784 65 L 793 64 L 794 63 L 799 62 L 799 62 L 800 61 L 800 60 L 805 60 L 807 59 L 811 58 L 818 57 L 819 57 L 821 56 L 822 55 L 827 54 L 833 54 L 833 53 L 840 52 L 846 51 L 848 51 L 848 50 L 851 49 L 852 49 L 854 48 L 859 47 L 863 46 L 868 46 L 869 45 L 872 44 L 872 43 L 880 43 L 882 42 L 886 41 L 894 40 L 894 40 L 902 39 L 903 38 L 904 38 L 906 37 L 907 36 L 910 35 L 911 35 L 914 34 L 919 33 L 920 32 L 921 32 L 922 31 L 934 30 L 935 29 L 936 29 L 936 28 L 937 27 L 938 27 L 938 26 L 939 25 L 940 24 L 943 24 L 943 23 L 945 22" /><path stroke-width="2" class="series" d="M 58 345 L 62 344 L 88 343 L 89 343 L 89 342 L 89 341 L 89 340 L 89 340 L 89 339 L 89 338 L 90 337 L 90 337 L 90 336 L 90 335 L 90 335 L 90 334 L 90 333 L 91 332 L 91 332 L 92 331 L 93 330 L 93 329 L 95 329 L 96 328 L 96 327 L 97 326 L 97 326 L 99 325 L 102 324 L 102 324 L 104 323 L 106 322 L 114 321 L 114 321 L 114 320 L 114 319 L 114 318 L 114 318 L 119 317 L 121 316 L 123 315 L 127 315 L 133 314 L 136 313 L 147 313 L 151 312 L 157 311 L 164 310 L 166 310 L 191 309 L 192 308 L 192 307 L 196 307 L 196 306 L 196 305 L 196 304 L 196 304 L 196 303 L 196 302 L 196 302 L 196 301 L 197 300 L 197 299 L 197 299 L 197 298 L 198 297 L 198 296 L 198 296 L 198 295 L 198 294 L 198 293 L 198 293 L 198 292 L 198 291 L 198 291 L 198 290 L 198 289 L 198 288 L 198 288 L 198 287 L 198 286 L 198 285 L 198 285 L 198 284 L 198 283 L 198 282 L 198 282 L 198 281 L 198 280 L 198 280 L 198 279 L 198 278 L 198 277 L 198 277 L 198 276 L 198 275 L 198 274 L 198 274 L 199 273 L 199 272 L 199 271 L 200 271 L 200 270 L 200 269 L 200 269 L 201 268 L 202 267 L 202 266 L 202 266 L 202 265 L 202 264 L 202 263 L 202 263 L 202 262 L 202 261 L 202 260 L 202 260 L 202 259 L 202 258 L 202 258 L 202 257 L 202 256 L 202 255 L 203 255 L 205 254 L 205 253 L 205 252 L 205 252 L 211 251 L 211 250 L 211 249 L 213 249 L 213 248 L 217 247 L 221 247 L 222 246 L 226 245 L 227 244 L 230 244 L 230 243 L 231 242 L 235 241 L 235 241 L 237 240 L 239 239 L 239 238 L 241 238 L 241 237 L 241 236 L 242 236 L 244 235 L 246 234 L 246 233 L 247 233 L 248 232 L 248 231 L 249 230 L 252 230 L 254 229 L 258 228 L 259 227 L 260 227 L 262 226 L 262 225 L 263 225 L 265 224 L 276 223 L 276 222 L 278 222 L 288 221 L 288 220 L 288 219 L 288 219 L 289 218 L 290 217 L 293 216 L 295 216 L 295 215 L 307 214 L 310 214 L 313 213 L 316 212 L 319 211 L 319 211 L 321 210 L 329 209 L 338 208 L 349 208 L 350 207 L 350 206 L 351 205 L 351 205 L 354 204 L 368 203 L 375 203 L 375 202 L 381 201 L 382 200 L 383 200 L 399 199 L 399 198 L 400 197 L 400 197 L 402 196 L 407 195 L 409 194 L 412 194 L 414 193 L 418 192 L 427 192 L 427 191 L 429 190 L 429 189 L 429 189 L 430 188 L 435 187 L 444 186 L 463 186 L 471 185 L 471 184 L 475 183 L 476 183 L 478 182 L 480 181 L 480 181 L 480 180 L 480 179 L 480 178 L 480 178 L 480 177 L 480 176 L 481 175 L 481 175 L 481 174 L 481 173 L 481 172 L 482 172 L 482 171 L 483 170 L 485 170 L 486 169 L 486 168 L 486 167 L 486 167 L 489 166 L 489 165 L 489 164 L 489 164 L 489 163 L 489 162 L 489 161 L 491 161 L 492 160 L 493 159 L 493 159 L 493 158 L 493 157 L 493 156 L 495 156 L 495 155 L 495 154 L 495 153 L 497 153 L 497 152 L 498 151 L 499 150 L 501 150 L 502 149 L 505 148 L 508 148 L 509 147 L 510 146 L 510 145 L 510 145 L 510 144 L 510 143 L 513 142 L 514 142 L 517 141 L 517 140 L 518 139 L 521 139 L 524 138 L 524 137 L 528 137 L 529 136 L 530 135 L 531 134 L 531 134 L 539 133 L 540 132 L 541 131 L 546 131 L 549 130 L 555 129 L 557 128 L 557 128 L 559 127 L 560 126 L 560 126 L 564 125 L 568 124 L 571 123 L 571 123 L 573 122 L 575 121 L 575 120 L 575 120 L 575 119 L 576 118 L 577 117 L 577 117 L 579 116 L 579 115 L 579 115 L 581 114 L 588 113 L 596 112 L 596 112 L 597 111 L 602 110 L 605 109 L 606 109 L 607 108 L 609 107 L 611 106 L 611 106 L 611 105 L 611 104 L 611 104 L 612 103 L 612 102 L 613 101 L 613 101 L 614 100 L 618 99 L 618 98 L 618 98 L 618 97 L 619 96 L 619 95 L 619 95 L 619 94 L 619 93 L 620 92 L 620 92 L 620 91 L 620 90 L 627 90 L 631 89 L 631 88 L 632 87 L 640 87 L 650 86 L 652 85 L 657 84 L 661 84 L 672 83 L 675 82 L 679 82 L 680 81 L 680 80 L 680 79 L 680 79 L 680 78 L 680 77 L 680 76 L 683 76 L 684 75 L 697 74 L 701 73 L 706 73 L 716 72 L 724 71 L 730 71 L 734 70 L 741 69 L 741 68 L 757 68 L 772 67 L 773 66 L 783 65 L 784 65 L 793 64 L 794 63 L 799 62 L 799 62 L 800 61 L 800 60 L 805 60 L 807 59 L 811 58 L 818 57 L 819 57 L 821 56 L 822 55 L 827 54 L 833 54 L 833 53 L 840 52 L 846 51 L 848 51 L 848 50 L 851 49 L 852 49 L 854 48 L 859 47 L 863 46 L 868 46 L 869 45 L 872 44 L 872 43 L 880 43 L 882 42 L 886 41 L 894 40 L 894 40 L 902 39 L 903 38 L 904 38 L 906 37 L 907 36 L 910 35 L 911 35 L 914 34 L 919 33 L 920 32 L 921 32 L 922 31 L 934 30 L 935 29 L 936 29 L 936 28 L 937 27 L 938 27 L 938 26 L 939 25 L 940 24 L 943 24 L 943 23 L 945 22"></path><path d="M 945 346 L 945.000000 15.000000" stroke-width="2" /><path stroke-width="2" d="M 945 346 L 945.000000 15.000000"></path><path stroke-width="2" d="M 945 346 L 950 346" /><path stroke-width="2" d="M 945 346 L 950 346"></path><text xmlns="http://www.w3.org/2000/svg" x="955" y="352">0</text><path d="M 945 309 L 950 309" stroke-width="2" /><path stroke-width="2" d="M 945 309 L 950 309"></path><text xmlns="http://www.w3.org/2000/svg" x="955" y="315">50</text><path stroke-width="2" d="M 945 272 L 950 272" /><path stroke-width="2" d="M 945 272 L 950 272"></path><text x="955" y="278" xmlns="http://www.w3.org/2000/svg">100</text><path stroke-width="2" d="M 945 236 L 950 236" /><path d="M 945 236 L 950 236" stroke-width="2"></path><text y="242" xmlns="http://www.w3.org/2000/svg" x="955">150</text><path stroke-width="2" d="M 945 199 L 950 199" /><path stroke-width="2" d="M 945 199 L 950 199"></path><text y="205" xmlns="http://www.w3.org/2000/svg" x="955">200</text><path stroke-width="2" d="M 945 162 L 950 162" /><path stroke-width="2" d="M 945 162 L 950 162"></path><text xmlns="http://www.w3.org/2000/svg" x="955" y="168">250</text><path stroke-width="2" d="M 945 126 L 950 126" /><path stroke-width="2" d="M 945 126 L 950 126"></path><text xmlns="http://www.w3.org/2000/svg" x="955" y="132">300</text><path stroke-width="2" d="M 945 89 L 950 89" /><path stroke-width="2" d="M 945 89 L 950 89"></path><text xmlns="http://www.w3.org/2000/svg" x="955" y="95">350</text><path stroke-width="2" d="M 945 52 L 950 52" /><path stroke-width="2" d="M 945 52 L 950 52"></path><text xmlns="http://www.w3.org/2000/svg" x="955" y="58">400</text><path stroke-width="2" d="M 945 16 L 950 16" /><path stroke-width="2" d="M 945 16 L 950 16"></path><text xmlns="http://www.w3.org/2000/svg" x="955" y="22">450</text><text xmlns="http://www.w3.org/2000/svg" x="987" y="175" transform="rotate(90.00,987,175)">Stargazers</text><path d="M 57.000000 346.000000 L 945 346" stroke-width="2" /><path stroke-width="2" d="M 57.000000 346.000000 L 945 346"></path><path stroke-width="2" d="M 58 346 L 58 351" /><path stroke-width="2" d="M 58 346 L 58 351"></path><text y="368" xmlns="http://www.w3.org/2000/svg" x="25">2023-04-02</text><path stroke-width="2" d="M 157 346 L 157 351" /><path stroke-width="2" d="M 157 346 L 157 351"></path><text xmlns="http://www.w3.org/2000/svg" x="124" y="368">2023-05-18</text><path stroke-width="2" d="M 256 346 L 256 351" /><path stroke-width="2" d="M 256 346 L 256 351"></path><text xmlns="http://www.w3.org/2000/svg" x="223" y="368">2023-07-03</text><path d="M 354 346 L 354 351" stroke-width="2" /><path stroke-width="2" d="M 354 346 L 354 351"></path><text xmlns="http://www.w3.org/2000/svg" x="321" y="368">2023-08-17</text><path stroke-width="2" d="M 453 346 L 453 351" /><path stroke-width="2" d="M 453 346 L 453 351"></path><text xmlns="http://www.w3.org/2000/svg" x="420" y="368">2023-10-02</text><path stroke-width="2" d="M 551 346 L 551 351" /><path d="M 551 346 L 551 351" stroke-width="2"></path><text y="368" xmlns="http://www.w3.org/2000/svg" x="518">2023-11-17</text><path stroke-width="2" d="M 650 346 L 650 351" /><path stroke-width="2" d="M 650 346 L 650 351"></path><text y="368" xmlns="http://www.w3.org/2000/svg" x="617">2024-01-02</text><path stroke-width="2" d="M 748 346 L 748 351" /><path stroke-width="2" d="M 748 346 L 748 351"></path><text xmlns="http://www.w3.org/2000/svg" x="715" y="368">2024-02-17</text><path stroke-width="2" d="M 847 346 L 847 351" /><path stroke-width="2" d="M 847 346 L 847 351"></path><text xmlns="http://www.w3.org/2000/svg" x="814" y="368">2024-04-02</text><path stroke-width="2" d="M 945 346 L 945 351" /><path stroke-width="2" d="M 945 346 L 945 351"></path><text xmlns="http://www.w3.org/2000/svg" x="912" y="368">2024-05-18</text><text x="487" y="390" xmlns="http://www.w3.org/2000/svg">Time</text></svg>