<svg width="1024px" height="400px" xmlns="http://www.w3.org/2000/svg" xmlns:xlink="http://www.w3.org/1999/xlink"><style type="text/css">
path { fill: none; stroke: rgb(51,51,51); }
path.series { stroke: #6b63ff; }
rect.background { fill: rgb(255,255,255); stroke: none; }

text {
	stroke-width: 0;
	stroke: none;
	fill: rgba(51,51,51,1.0);
	font-size: 12.8px;
	font-family: 'Roboto Medium', sans-serif;
}
</style><rect x="0" y="0" width="1024px" height="400px" class="background" rx="8" /><rect x="0" y="0" width="1024px" height="400px" class="background" rx="8"></rect><path stroke-width="2" class="series" d="M 58 345 L 62 344 L 86 343 L 87 343 L 87 342 L 87 341 L 87 341 L 87 340 L 87 339 L 87 339 L 88 338 L 88 337 L 88 337 L 88 336 L 88 335 L 88 335 L 88 334 L 89 333 L 89 333 L 90 332 L 91 331 L 91 331 L 93 330 L 94 329 L 94 329 L 94 328 L 95 327 L 96 327 L 99 326 L 99 325 L 101 325 L 103 324 L 111 323 L 111 323 L 111 322 L 111 321 L 111 321 L 111 320 L 115 319 L 117 319 L 119 318 L 122 317 L 128 317 L 131 316 L 142 315 L 145 315 L 151 314 L 157 313 L 160 313 L 182 312 L 184 311 L 184 310 L 187 310 L 187 309 L 187 308 L 188 308 L 188 307 L 188 306 L 188 306 L 188 305 L 188 304 L 188 304 L 188 303 L 188 302 L 188 302 L 189 301 L 189 300 L 189 300 L 189 299 L 189 298 L 189 298 L 189 297 L 189 296 L 189 296 L 189 295 L 189 294 L 189 294 L 189 293 L 189 292 L 189 292 L 189 291 L 189 290 L 189 290 L 189 289 L 189 288 L 189 288 L 189 287 L 189 286 L 189 286 L 189 285 L 189 284 L 189 284 L 189 283 L 189 282 L 189 282 L 189 281 L 189 280 L 189 280 L 190 279 L 190 278 L 190 277 L 191 277 L 191 276 L 191 275 L 191 275 L 192 274 L 193 273 L 193 273 L 193 272 L 193 271 L 193 271 L 193 270 L 193 269 L 193 269 L 193 268 L 193 267 L 193 267 L 193 266 L 193 265 L 193 265 L 193 264 L 193 263 L 193 263 L 194 262 L 195 261 L 195 261 L 195 260 L 196 259 L 201 259 L 201 258 L 201 257 L 203 257 L 203 256 L 207 255 L 211 255 L 212 254 L 215 253 L 216 253 L 219 252 L 220 251 L 220 251 L 224 250 L 224 249 L 225 249 L 227 248 L 228 247 L 229 247 L 230 246 L 230 245 L 230 244 L 232 244 L 234 243 L 234 242 L 235 242 L 236 241 L 236 240 L 237 240 L 240 239 L 242 238 L 245 238 L 246 237 L 248 236 L 249 236 L 249 235 L 250 234 L 252 234 L 262 233 L 262 232 L 264 232 L 273 231 L 273 230 L 273 230 L 273 229 L 274 228 L 275 228 L 278 227 L 280 226 L 280 226 L 292 225 L 294 224 L 296 224 L 300 223 L 302 222 L 302 222 L 304 221 L 312 220 L 321 220 L 331 219 L 332 218 L 332 218 L 332 217 L 333 216 L 335 216 L 348 215 L 355 214 L 355 214 L 360 213 L 361 212 L 362 211 L 377 211 L 377 210 L 378 209 L 379 209 L 381 208 L 385 207 L 386 207 L 389 206 L 391 205 L 395 205 L 403 204 L 404 203 L 405 203 L 405 202 L 406 201 L 406 201 L 411 200 L 419 199 L 438 199 L 445 198 L 449 197 L 449 197 L 451 196 L 453 195 L 453 195 L 453 194 L 453 193 L 453 193 L 453 192 L 453 191 L 453 191 L 454 190 L 454 189 L 454 189 L 454 188 L 454 187 L 455 187 L 455 186 L 456 185 L 458 185 L 459 184 L 459 183 L 459 183 L 459 182 L 461 181 L 461 181 L 461 180 L 461 179 L 461 178 L 462 178 L 462 177 L 463 176 L 464 176 L 465 175 L 465 174 L 465 174 L 465 173 L 466 172 L 467 172 L 467 171 L 467 170 L 468 170 L 469 169 L 469 168 L 470 168 L 471 167 L 473 166 L 474 166 L 476 165 L 480 164 L 480 164 L 481 163 L 481 162 L 481 162 L 481 161 L 481 160 L 484 160 L 485 159 L 488 158 L 488 158 L 489 157 L 492 156 L 494 156 L 494 155 L 498 154 L 499 154 L 500 153 L 501 152 L 501 152 L 508 151 L 509 150 L 510 150 L 515 149 L 518 148 L 524 148 L 525 147 L 526 146 L 527 145 L 528 145 L 528 144 L 532 143 L 536 143 L 538 142 L 538 141 L 540 141 L 542 140 L 542 139 L 542 139 L 542 138 L 543 137 L 544 137 L 544 136 L 546 135 L 546 135 L 546 134 L 547 133 L 554 133 L 562 132 L 562 131 L 562 131 L 568 130 L 570 129 L 572 129 L 572 128 L 574 127 L 576 127 L 576 126 L 576 125 L 576 125 L 576 124 L 577 123 L 577 123 L 577 122 L 577 121 L 579 121 L 582 120 L 582 119 L 582 119 L 583 118 L 583 117 L 583 117 L 584 116 L 584 115 L 584 115 L 584 114 L 584 113 L 584 112 L 584 112 L 590 111 L 594 110 L 594 110 L 596 109 L 603 108 L 612 108 L 614 107 L 619 106 L 623 106 L 633 105 L 636 104 L 639 104 L 640 103 L 640 102 L 640 102 L 640 101 L 640 100 L 640 100 L 641 99 L 643 98 L 644 98 L 657 97 L 660 96 L 665 96 L 674 95 L 681 94 L 687 94 L 691 93 L 698 92 L 698 92 L 712 91 L 727 90 L 727 90 L 737 89 L 738 88 L 746 88 L 747 87 L 752 86 L 752 86 L 753 85 L 753 84 L 757 84 L 759 83 L 763 82 L 769 82 L 770 81 L 772 80 L 773 79 L 778 79 L 784 78 L 784 77 L 790 77 L 796 76 L 797 75 L 797 75 L 800 74 L 802 73 L 803 73 L 808 72 L 812 71 L 816 71 L 820 70 L 820 69 L 828 69 L 829 68 L 833 67 L 840 67 L 841 66 L 848 65 L 849 65 L 850 64 L 852 63 L 853 63 L 856 62 L 856 61 L 860 61 L 864 60 L 865 59 L 866 59 L 867 58 L 878 57 L 879 57 L 880 56 L 880 55 L 881 55 L 882 54 L 882 53 L 883 53 L 884 52 L 886 51 L 887 51 L 889 50 L 890 49 L 891 49 L 892 48 L 893 47 L 893 46 L 894 46 L 895 45 L 895 44 L 896 44 L 896 43 L 896 42 L 897 42 L 898 41 L 901 40 L 901 40 L 901 39 L 903 38 L 903 38 L 905 37 L 907 36 L 907 36 L 908 35 L 910 34 L 912 34 L 913 33 L 913 32 L 914 32 L 917 31 L 917 30 L 917 30 L 918 29 L 918 28 L 919 28 L 919 27 L 920 26 L 921 26 L 922 25 L 927 24 L 929 24 L 931 23 L 931 22 L 935 22 L 937 21 L 938 20 L 941 20 L 945 19" /><path d="M 58 345 L 62 344 L 86 343 L 87 343 L 87 342 L 87 341 L 87 341 L 87 340 L 87 339 L 87 339 L 88 338 L 88 337 L 88 337 L 88 336 L 88 335 L 88 335 L 88 334 L 89 333 L 89 333 L 90 332 L 91 331 L 91 331 L 93 330 L 94 329 L 94 329 L 94 328 L 95 327 L 96 327 L 99 326 L 99 325 L 101 325 L 103 324 L 111 323 L 111 323 L 111 322 L 111 321 L 111 321 L 111 320 L 115 319 L 117 319 L 119 318 L 122 317 L 128 317 L 131 316 L 142 315 L 145 315 L 151 314 L 157 313 L 160 313 L 182 312 L 184 311 L 184 310 L 187 310 L 187 309 L 187 308 L 188 308 L 188 307 L 188 306 L 188 306 L 188 305 L 188 304 L 188 304 L 188 303 L 188 302 L 188 302 L 189 301 L 189 300 L 189 300 L 189 299 L 189 298 L 189 298 L 189 297 L 189 296 L 189 296 L 189 295 L 189 294 L 189 294 L 189 293 L 189 292 L 189 292 L 189 291 L 189 290 L 189 290 L 189 289 L 189 288 L 189 288 L 189 287 L 189 286 L 189 286 L 189 285 L 189 284 L 189 284 L 189 283 L 189 282 L 189 282 L 189 281 L 189 280 L 189 280 L 190 279 L 190 278 L 190 277 L 191 277 L 191 276 L 191 275 L 191 275 L 192 274 L 193 273 L 193 273 L 193 272 L 193 271 L 193 271 L 193 270 L 193 269 L 193 269 L 193 268 L 193 267 L 193 267 L 193 266 L 193 265 L 193 265 L 193 264 L 193 263 L 193 263 L 194 262 L 195 261 L 195 261 L 195 260 L 196 259 L 201 259 L 201 258 L 201 257 L 203 257 L 203 256 L 207 255 L 211 255 L 212 254 L 215 253 L 216 253 L 219 252 L 220 251 L 220 251 L 224 250 L 224 249 L 225 249 L 227 248 L 228 247 L 229 247 L 230 246 L 230 245 L 230 244 L 232 244 L 234 243 L 234 242 L 235 242 L 236 241 L 236 240 L 237 240 L 240 239 L 242 238 L 245 238 L 246 237 L 248 236 L 249 236 L 249 235 L 250 234 L 252 234 L 262 233 L 262 232 L 264 232 L 273 231 L 273 230 L 273 230 L 273 229 L 274 228 L 275 228 L 278 227 L 280 226 L 280 226 L 292 225 L 294 224 L 296 224 L 300 223 L 302 222 L 302 222 L 304 221 L 312 220 L 321 220 L 331 219 L 332 218 L 332 218 L 332 217 L 333 216 L 335 216 L 348 215 L 355 214 L 355 214 L 360 213 L 361 212 L 362 211 L 377 211 L 377 210 L 378 209 L 379 209 L 381 208 L 385 207 L 386 207 L 389 206 L 391 205 L 395 205 L 403 204 L 404 203 L 405 203 L 405 202 L 406 201 L 406 201 L 411 200 L 419 199 L 438 199 L 445 198 L 449 197 L 449 197 L 451 196 L 453 195 L 453 195 L 453 194 L 453 193 L 453 193 L 453 192 L 453 191 L 453 191 L 454 190 L 454 189 L 454 189 L 454 188 L 454 187 L 455 187 L 455 186 L 456 185 L 458 185 L 459 184 L 459 183 L 459 183 L 459 182 L 461 181 L 461 181 L 461 180 L 461 179 L 461 178 L 462 178 L 462 177 L 463 176 L 464 176 L 465 175 L 465 174 L 465 174 L 465 173 L 466 172 L 467 172 L 467 171 L 467 170 L 468 170 L 469 169 L 469 168 L 470 168 L 471 167 L 473 166 L 474 166 L 476 165 L 480 164 L 480 164 L 481 163 L 481 162 L 481 162 L 481 161 L 481 160 L 484 160 L 485 159 L 488 158 L 488 158 L 489 157 L 492 156 L 494 156 L 494 155 L 498 154 L 499 154 L 500 153 L 501 152 L 501 152 L 508 151 L 509 150 L 510 150 L 515 149 L 518 148 L 524 148 L 525 147 L 526 146 L 527 145 L 528 145 L 528 144 L 532 143 L 536 143 L 538 142 L 538 141 L 540 141 L 542 140 L 542 139 L 542 139 L 542 138 L 543 137 L 544 137 L 544 136 L 546 135 L 546 135 L 546 134 L 547 133 L 554 133 L 562 132 L 562 131 L 562 131 L 568 130 L 570 129 L 572 129 L 572 128 L 574 127 L 576 127 L 576 126 L 576 125 L 576 125 L 576 124 L 577 123 L 577 123 L 577 122 L 577 121 L 579 121 L 582 120 L 582 119 L 582 119 L 583 118 L 583 117 L 583 117 L 584 116 L 584 115 L 584 115 L 584 114 L 584 113 L 584 112 L 584 112 L 590 111 L 594 110 L 594 110 L 596 109 L 603 108 L 612 108 L 614 107 L 619 106 L 623 106 L 633 105 L 636 104 L 639 104 L 640 103 L 640 102 L 640 102 L 640 101 L 640 100 L 640 100 L 641 99 L 643 98 L 644 98 L 657 97 L 660 96 L 665 96 L 674 95 L 681 94 L 687 94 L 691 93 L 698 92 L 698 92 L 712 91 L 727 90 L 727 90 L 737 89 L 738 88 L 746 88 L 747 87 L 752 86 L 752 86 L 753 85 L 753 84 L 757 84 L 759 83 L 763 82 L 769 82 L 770 81 L 772 80 L 773 79 L 778 79 L 784 78 L 784 77 L 790 77 L 796 76 L 797 75 L 797 75 L 800 74 L 802 73 L 803 73 L 808 72 L 812 71 L 816 71 L 820 70 L 820 69 L 828 69 L 829 68 L 833 67 L 840 67 L 841 66 L 848 65 L 849 65 L 850 64 L 852 63 L 853 63 L 856 62 L 856 61 L 860 61 L 864 60 L 865 59 L 866 59 L 867 58 L 878 57 L 879 57 L 880 56 L 880 55 L 881 55 L 882 54 L 882 53 L 883 53 L 884 52 L 886 51 L 887 51 L 889 50 L 890 49 L 891 49 L 892 48 L 893 47 L 893 46 L 894 46 L 895 45 L 895 44 L 896 44 L 896 43 L 896 42 L 897 42 L 898 41 L 901 40 L 901 40 L 901 39 L 903 38 L 903 38 L 905 37 L 907 36 L 907 36 L 908 35 L 910 34 L 912 34 L 913 33 L 913 32 L 914 32 L 917 31 L 917 30 L 917 30 L 918 29 L 918 28 L 919 28 L 919 27 L 920 26 L 921 26 L 922 25 L 927 24 L 929 24 L 931 23 L 931 22 L 935 22 L 937 21 L 938 20 L 941 20 L 945 19" stroke-width="2" class="series"></path><path stroke-width="2" d="M 945 346 L 945.000000 15.000000" /><path d="M 945 346 L 945.000000 15.000000" stroke-width="2"></path><path stroke-width="2" d="M 945 346 L 950 346" /><path stroke-width="2" d="M 945 346 L 950 346"></path><text xmlns="http://www.w3.org/2000/svg" x="955" y="352">0</text><path stroke-width="2" d="M 945 308 L 950 308" /><path stroke-width="2" d="M 945 308 L 950 308"></path><text xmlns="http://www.w3.org/2000/svg" x="955" y="314">55</text><path stroke-width="2" d="M 945 272 L 950 272" /><path stroke-width="2" d="M 945 272 L 950 272"></path><text xmlns="http://www.w3.org/2000/svg" x="955" y="278">109</text><path stroke-width="2" d="M 945 235 L 950 235" /><path stroke-width="2" d="M 945 235 L 950 235"></path><text xmlns="http://www.w3.org/2000/svg" x="955" y="241">164</text><path stroke-width="2" d="M 945 199 L 950 199" /><path stroke-width="2" d="M 945 199 L 950 199"></path><text xmlns="http://www.w3.org/2000/svg" x="955" y="205">218</text><path stroke-width="2" d="M 945 162 L 950 162" /><path stroke-width="2" d="M 945 162 L 950 162"></path><text xmlns="http://www.w3.org/2000/svg" x="955" y="168">273</text><path stroke-width="2" d="M 945 125 L 950 125" /><path stroke-width="2" d="M 945 125 L 950 125"></path><text xmlns="http://www.w3.org/2000/svg" x="955" y="131">327</text><path stroke-width="2" d="M 945 88 L 950 88" /><path stroke-width="2" d="M 945 88 L 950 88"></path><text x="955" y="94" xmlns="http://www.w3.org/2000/svg">382</text><path stroke-width="2" d="M 945 52 L 950 52" /><path stroke-width="2" d="M 945 52 L 950 52"></path><text xmlns="http://www.w3.org/2000/svg" x="955" y="58">436</text><path d="M 945 16 L 950 16" stroke-width="2" /><path stroke-width="2" d="M 945 16 L 950 16"></path><text y="22" xmlns="http://www.w3.org/2000/svg" x="955">490</text><text transform="rotate(90.00,987,175)" xmlns="http://www.w3.org/2000/svg" x="987" y="175">Stargazers</text><path stroke-width="2" d="M 57.000000 346.000000 L 945 346" /><path stroke-width="2" d="M 57.000000 346.000000 L 945 346"></path><path stroke-width="2" d="M 58 346 L 58 351" /><path stroke-width="2" d="M 58 346 L 58 351"></path><text x="25" y="368" xmlns="http://www.w3.org/2000/svg">2023-04-02</text><path stroke-width="2" d="M 157 346 L 157 351" /><path d="M 157 346 L 157 351" stroke-width="2"></path><text xmlns="http://www.w3.org/2000/svg" x="124" y="368">2023-05-21</text><path stroke-width="2" d="M 256 346 L 256 351" /><path stroke-width="2" d="M 256 346 L 256 351"></path><text xmlns="http://www.w3.org/2000/svg" x="223" y="368">2023-07-09</text><path stroke-width="2" d="M 354 346 L 354 351" /><path d="M 354 346 L 354 351" stroke-width="2"></path><text xmlns="http://www.w3.org/2000/svg" x="321" y="368">2023-08-27</text><path d="M 453 346 L 453 351" stroke-width="2" /><path stroke-width="2" d="M 453 346 L 453 351"></path><text x="420" y="368" xmlns="http://www.w3.org/2000/svg">2023-10-15</text><path d="M 551 346 L 551 351" stroke-width="2" /><path stroke-width="2" d="M 551 346 L 551 351"></path><text xmlns="http://www.w3.org/2000/svg" x="518" y="368">2023-12-03</text><path stroke-width="2" d="M 650 346 L 650 351" /><path stroke-width="2" d="M 650 346 L 650 351"></path><text xmlns="http://www.w3.org/2000/svg" x="617" y="368">2024-01-20</text><path stroke-width="2" d="M 748 346 L 748 351" /><path stroke-width="2" d="M 748 346 L 748 351"></path><text xmlns="http://www.w3.org/2000/svg" x="715" y="368">2024-03-09</text><path stroke-width="2" d="M 847 346 L 847 351" /><path stroke-width="2" d="M 847 346 L 847 351"></path><text xmlns="http://www.w3.org/2000/svg" x="814" y="368">2024-04-27</text><path stroke-width="2" d="M 945 346 L 945 351" /><path stroke-width="2" d="M 945 346 L 945 351"></path><text xmlns="http://www.w3.org/2000/svg" x="912" y="368">2024-06-15</text><text y="390" xmlns="http://www.w3.org/2000/svg" x="487">Time</text></svg>