<svg xmlns="http://www.w3.org/2000/svg" xmlns:xlink="http://www.w3.org/1999/xlink" width="1024px" height="400px"><style type="text/css">
path { fill: none; stroke: rgb(51,51,51); }
path.series { stroke: #6b63ff; }
rect.background { fill: rgb(255,255,255); stroke: none; }

text {
	stroke-width: 0;
	stroke: none;
	fill: rgba(51,51,51,1.0);
	font-size: 12.8px;
	font-family: 'Roboto Medium', sans-serif;
}
</style><rect width="1024px" height="400px" class="background" rx="8" x="0" y="0" /><rect width="1024px" height="400px" class="background" rx="8" x="0" y="0"></rect><path d="M 58 345 L 61 345 L 74 344 L 75 344 L 75 344 L 75 343 L 75 343 L 75 343 L 75 342 L 75 342 L 75 342 L 75 341 L 75 341 L 75 341 L 75 340 L 76 340 L 76 340 L 76 339 L 76 339 L 77 339 L 77 338 L 77 338 L 78 338 L 79 337 L 79 337 L 79 337 L 79 336 L 80 336 L 82 336 L 82 335 L 83 335 L 84 335 L 88 334 L 88 334 L 88 333 L 88 333 L 88 333 L 91 332 L 92 332 L 93 332 L 95 331 L 98 331 L 100 331 L 106 330 L 108 330 L 111 330 L 115 329 L 116 329 L 129 329 L 130 328 L 130 328 L 132 328 L 132 327 L 132 327 L 132 327 L 132 326 L 132 326 L 132 326 L 132 325 L 132 325 L 132 325 L 132 324 L 132 324 L 133 324 L 133 323 L 133 323 L 133 322 L 133 322 L 133 322 L 133 321 L 133 321 L 133 321 L 133 320 L 133 320 L 133 320 L 133 319 L 133 319 L 133 319 L 133 318 L 133 318 L 133 318 L 133 317 L 133 317 L 133 317 L 133 316 L 133 316 L 133 316 L 133 315 L 133 315 L 133 315 L 133 314 L 133 314 L 133 314 L 133 313 L 133 313 L 133 313 L 133 312 L 133 312 L 134 311 L 134 311 L 134 311 L 134 310 L 134 310 L 134 310 L 134 309 L 135 309 L 135 309 L 135 308 L 135 308 L 135 308 L 135 307 L 135 307 L 135 307 L 135 306 L 135 306 L 135 306 L 135 305 L 135 305 L 135 305 L 135 304 L 135 304 L 135 304 L 136 303 L 137 303 L 137 303 L 137 302 L 137 302 L 140 302 L 140 301 L 140 301 L 141 300 L 141 300 L 143 300 L 146 299 L 146 299 L 148 299 L 149 298 L 150 298 L 150 298 L 151 297 L 153 297 L 153 297 L 154 296 L 155 296 L 155 296 L 156 295 L 156 295 L 156 295 L 157 294 L 158 294 L 159 294 L 159 293 L 159 293 L 160 293 L 160 292 L 160 292 L 162 292 L 163 291 L 165 291 L 166 291 L 166 290 L 167 290 L 167 289 L 168 289 L 169 289 L 175 288 L 175 288 L 176 288 L 181 287 L 181 287 L 181 287 L 181 286 L 182 286 L 182 286 L 184 285 L 185 285 L 185 285 L 192 284 L 193 284 L 194 284 L 196 283 L 198 283 L 198 283 L 199 282 L 203 282 L 208 282 L 214 281 L 215 281 L 215 281 L 215 280 L 215 280 L 216 280 L 224 279 L 228 279 L 228 278 L 231 278 L 231 278 L 232 277 L 240 277 L 240 277 L 241 276 L 241 276 L 242 276 L 245 275 L 246 275 L 248 275 L 249 274 L 250 274 L 255 274 L 256 273 L 256 273 L 257 273 L 257 272 L 257 272 L 260 272 L 264 271 L 275 271 L 279 271 L 281 270 L 282 270 L 283 270 L 284 269 L 284 269 L 284 269 L 284 268 L 284 268 L 284 267 L 284 267 L 284 267 L 284 266 L 284 266 L 284 266 L 284 265 L 284 265 L 285 265 L 285 264 L 287 264 L 287 264 L 287 263 L 287 263 L 289 263 L 289 262 L 289 262 L 289 262 L 289 261 L 289 261 L 289 261 L 290 260 L 290 260 L 291 260 L 291 259 L 291 259 L 291 259 L 291 258 L 292 258 L 292 258 L 292 257 L 292 257 L 293 256 L 293 256 L 293 256 L 294 255 L 295 255 L 296 255 L 297 254 L 299 254 L 299 254 L 300 253 L 300 253 L 300 253 L 300 252 L 300 252 L 302 252 L 302 251 L 304 251 L 304 251 L 304 250 L 306 250 L 307 250 L 307 249 L 310 249 L 310 249 L 310 248 L 311 248 L 311 248 L 315 247 L 316 247 L 316 247 L 319 246 L 321 246 L 324 245 L 325 245 L 325 245 L 326 244 L 327 244 L 327 244 L 329 243 L 331 243 L 332 243 L 333 242 L 334 242 L 335 242 L 335 241 L 335 241 L 335 241 L 335 240 L 336 240 L 336 240 L 337 239 L 337 239 L 337 239 L 338 238 L 342 238 L 346 238 L 346 237 L 346 237 L 349 237 L 351 236 L 352 236 L 352 236 L 353 235 L 354 235 L 354 234 L 354 234 L 354 234 L 354 233 L 354 233 L 354 233 L 355 232 L 355 232 L 356 232 L 358 231 L 358 231 L 358 231 L 358 230 L 358 230 L 358 230 L 358 229 L 358 229 L 358 229 L 359 228 L 359 228 L 359 228 L 359 227 L 362 227 L 365 227 L 365 226 L 365 226 L 375 226 L 376 225 L 379 225 L 381 225 L 388 224 L 390 224 L 391 223 L 391 223 L 391 223 L 391 222 L 391 222 L 391 222 L 392 221 L 393 221 L 400 221 L 402 220 L 405 220 L 410 220 L 414 219 L 417 219 L 420 219 L 424 218 L 424 218 L 432 218 L 440 217 L 440 217 L 446 217 L 446 216 L 451 216 L 452 216 L 454 215 L 454 215 L 455 215 L 455 214 L 458 214 L 459 214 L 461 213 L 465 213 L 465 212 L 466 212 L 467 212 L 470 211 L 473 211 L 473 211 L 476 210 L 480 210 L 481 210 L 481 209 L 482 209 L 483 209 L 484 208 L 487 208 L 489 208 L 491 207 L 493 207 L 493 207 L 498 206 L 499 206 L 501 206 L 505 205 L 505 205 L 510 205 L 510 204 L 510 204 L 512 204 L 512 203 L 514 203 L 514 203 L 516 202 L 519 202 L 519 201 L 520 201 L 520 201 L 527 200 L 527 200 L 528 200 L 528 199 L 528 199 L 529 199 L 529 198 L 529 198 L 530 198 L 531 197 L 531 197 L 533 197 L 533 196 L 534 196 L 535 196 L 535 195 L 535 195 L 536 195 L 536 194 L 536 194 L 537 194 L 537 193 L 537 193 L 537 193 L 538 192 L 539 192 L 540 192 L 540 191 L 541 191 L 541 190 L 542 190 L 543 190 L 543 189 L 544 189 L 545 189 L 546 188 L 546 188 L 547 188 L 547 187 L 549 187 L 549 187 L 549 186 L 550 186 L 550 186 L 550 185 L 550 185 L 551 185 L 551 184 L 552 184 L 555 184 L 556 183 L 557 183 L 557 183 L 559 182 L 560 182 L 561 182 L 563 181 L 565 181 L 567 181 L 569 180 L 570 180 L 570 179 L 570 179 L 571 179 L 571 178 L 572 178 L 572 178 L 572 177 L 572 177 L 573 177 L 573 176 L 574 176 L 575 176 L 575 175 L 576 175 L 576 175 L 579 174 L 579 174 L 579 174 L 580 173 L 581 173 L 583 173 L 589 172 L 589 172 L 589 172 L 589 171 L 591 171 L 593 171 L 593 170 L 593 170 L 593 170 L 594 169 L 596 169 L 598 168 L 599 168 L 599 168 L 599 167 L 601 167 L 601 167 L 601 166 L 601 166 L 604 166 L 607 165 L 607 165 L 611 165 L 611 164 L 612 164 L 615 164 L 616 163 L 618 163 L 620 163 L 622 162 L 623 162 L 623 162 L 623 161 L 623 161 L 623 161 L 623 160 L 624 160 L 625 160 L 625 159 L 626 159 L 626 159 L 626 158 L 627 158 L 628 157 L 628 157 L 632 157 L 633 156 L 637 156 L 639 156 L 640 155 L 640 155 L 641 155 L 643 154 L 644 154 L 644 154 L 644 153 L 645 153 L 645 153 L 645 152 L 645 152 L 645 152 L 646 151 L 646 151 L 646 151 L 646 150 L 647 150 L 647 150 L 648 149 L 649 149 L 649 149 L 650 148 L 650 148 L 651 148 L 651 147 L 651 147 L 652 146 L 653 146 L 656 146 L 656 145 L 656 145 L 656 145 L 656 144 L 657 144 L 657 144 L 657 143 L 658 143 L 660 143 L 662 142 L 665 142 L 666 142 L 667 141 L 671 141 L 674 141 L 674 140 L 677 140 L 681 140 L 681 139 L 681 139 L 685 139 L 686 138 L 687 138 L 688 138 L 688 137 L 696 137 L 696 137 L 697 136 L 697 136 L 698 135 L 698 135 L 699 135 L 699 134 L 700 134 L 700 134 L 701 133 L 701 133 L 701 133 L 702 132 L 702 132 L 702 132 L 702 131 L 702 131 L 702 131 L 704 130 L 705 130 L 706 130 L 706 129 L 706 129 L 707 129 L 708 128 L 709 128 L 709 128 L 710 127 L 710 127 L 710 127 L 710 126 L 712 126 L 712 126 L 713 125 L 713 125 L 714 124 L 715 124 L 715 124 L 715 123 L 716 123 L 716 123 L 716 122 L 717 122 L 717 122 L 718 121 L 718 121 L 719 121 L 720 120 L 720 120 L 720 120 L 720 119 L 720 119 L 721 119 L 721 118 L 721 118 L 722 118 L 722 117 L 723 117 L 723 117 L 724 116 L 724 116 L 724 116 L 724 115 L 724 115 L 724 115 L 725 114 L 725 114 L 725 113 L 725 113 L 727 113 L 728 112 L 730 112 L 730 112 L 730 111 L 730 111 L 732 111 L 733 110 L 733 110 L 734 110 L 736 109 L 738 109 L 738 109 L 740 108 L 741 108 L 741 108 L 742 107 L 742 107 L 742 107 L 742 106 L 742 106 L 742 106 L 742 105 L 742 105 L 743 105 L 743 104 L 743 104 L 743 104 L 743 103 L 744 103 L 744 102 L 745 102 L 745 102 L 746 101 L 747 101 L 748 101 L 748 100 L 748 100 L 749 100 L 749 99 L 750 99 L 752 99 L 753 98 L 753 98 L 753 98 L 753 97 L 754 97 L 756 97 L 758 96 L 758 96 L 760 96 L 760 95 L 760 95 L 760 95 L 761 94 L 766 94 L 768 94 L 771 93 L 772 93 L 773 92 L 774 92 L 775 92 L 775 91 L 776 91 L 776 91 L 776 90 L 777 90 L 777 90 L 777 89 L 779 89 L 781 89 L 781 88 L 781 88 L 781 88 L 781 87 L 781 87 L 781 87 L 781 86 L 781 86 L 781 86 L 781 85 L 781 85 L 781 85 L 781 84 L 781 84 L 781 84 L 781 83 L 782 83 L 782 83 L 782 82 L 782 82 L 782 82 L 782 81 L 782 81 L 783 80 L 783 80 L 783 80 L 784 79 L 784 79 L 784 79 L 784 78 L 784 78 L 784 78 L 786 77 L 787 77 L 789 77 L 789 76 L 789 76 L 791 76 L 791 75 L 791 75 L 792 75 L 794 74 L 795 74 L 796 74 L 796 73 L 796 73 L 796 73 L 796 72 L 796 72 L 796 72 L 798 71 L 798 71 L 798 71 L 802 70 L 804 70 L 805 69 L 807 69 L 809 69 L 809 68 L 809 68 L 809 68 L 810 67 L 810 67 L 811 67 L 811 66 L 812 66 L 812 66 L 813 65 L 813 65 L 813 65 L 813 64 L 813 64 L 813 64 L 813 63 L 814 63 L 814 63 L 814 62 L 814 62 L 816 62 L 816 61 L 817 61 L 817 61 L 818 60 L 818 60 L 818 60 L 819 59 L 819 59 L 819 58 L 820 58 L 820 58 L 821 57 L 825 57 L 826 57 L 827 56 L 830 56 L 830 56 L 832 55 L 834 55 L 835 55 L 836 54 L 839 54 L 844 54 L 844 53 L 846 53 L 848 53 L 850 52 L 850 52 L 850 52 L 852 51 L 853 51 L 854 51 L 854 50 L 856 50 L 857 50 L 858 49 L 858 49 L 859 49 L 859 48 L 859 48 L 860 47 L 864 47 L 864 47 L 865 46 L 866 46 L 866 46 L 868 45 L 868 45 L 869 45 L 869 44 L 870 44 L 870 44 L 871 43 L 872 43 L 872 43 L 873 42 L 874 42 L 874 42 L 874 41 L 875 41 L 876 41 L 876 40 L 876 40 L 877 40 L 878 39 L 878 39 L 878 39 L 878 38 L 878 38 L 879 38 L 881 37 L 882 37 L 883 36 L 883 36 L 886 36 L 887 35 L 888 35 L 889 35 L 892 34 L 894 34 L 896 34 L 897 33 L 898 33 L 899 33 L 901 32 L 903 32 L 904 32 L 905 31 L 905 31 L 905 31 L 905 30 L 905 30 L 906 30 L 907 29 L 908 29 L 909 29 L 909 28 L 910 28 L 910 28 L 916 27 L 917 27 L 918 27 L 920 26 L 922 26 L 923 25 L 923 25 L 924 25 L 924 24 L 924 24 L 925 24 L 926 23 L 926 23 L 927 23 L 927 22 L 927 22 L 928 22 L 928 21 L 929 21 L 930 21 L 933 20 L 934 20 L 939 20 L 939 19 L 940 19 L 941 19 L 942 18 L 942 18 L 942 18 L 942 17 L 945 17" stroke-width="2" class="series" /><path d="M 58 345 L 61 345 L 74 344 L 75 344 L 75 344 L 75 343 L 75 343 L 75 343 L 75 342 L 75 342 L 75 342 L 75 341 L 75 341 L 75 341 L 75 340 L 76 340 L 76 340 L 76 339 L 76 339 L 77 339 L 77 338 L 77 338 L 78 338 L 79 337 L 79 337 L 79 337 L 79 336 L 80 336 L 82 336 L 82 335 L 83 335 L 84 335 L 88 334 L 88 334 L 88 333 L 88 333 L 88 333 L 91 332 L 92 332 L 93 332 L 95 331 L 98 331 L 100 331 L 106 330 L 108 330 L 111 330 L 115 329 L 116 329 L 129 329 L 130 328 L 130 328 L 132 328 L 132 327 L 132 327 L 132 327 L 132 326 L 132 326 L 132 326 L 132 325 L 132 325 L 132 325 L 132 324 L 132 324 L 133 324 L 133 323 L 133 323 L 133 322 L 133 322 L 133 322 L 133 321 L 133 321 L 133 321 L 133 320 L 133 320 L 133 320 L 133 319 L 133 319 L 133 319 L 133 318 L 133 318 L 133 318 L 133 317 L 133 317 L 133 317 L 133 316 L 133 316 L 133 316 L 133 315 L 133 315 L 133 315 L 133 314 L 133 314 L 133 314 L 133 313 L 133 313 L 133 313 L 133 312 L 133 312 L 134 311 L 134 311 L 134 311 L 134 310 L 134 310 L 134 310 L 134 309 L 135 309 L 135 309 L 135 308 L 135 308 L 135 308 L 135 307 L 135 307 L 135 307 L 135 306 L 135 306 L 135 306 L 135 305 L 135 305 L 135 305 L 135 304 L 135 304 L 135 304 L 136 303 L 137 303 L 137 303 L 137 302 L 137 302 L 140 302 L 140 301 L 140 301 L 141 300 L 141 300 L 143 300 L 146 299 L 146 299 L 148 299 L 149 298 L 150 298 L 150 298 L 151 297 L 153 297 L 153 297 L 154 296 L 155 296 L 155 296 L 156 295 L 156 295 L 156 295 L 157 294 L 158 294 L 159 294 L 159 293 L 159 293 L 160 293 L 160 292 L 160 292 L 162 292 L 163 291 L 165 291 L 166 291 L 166 290 L 167 290 L 167 289 L 168 289 L 169 289 L 175 288 L 175 288 L 176 288 L 181 287 L 181 287 L 181 287 L 181 286 L 182 286 L 182 286 L 184 285 L 185 285 L 185 285 L 192 284 L 193 284 L 194 284 L 196 283 L 198 283 L 198 283 L 199 282 L 203 282 L 208 282 L 214 281 L 215 281 L 215 281 L 215 280 L 215 280 L 216 280 L 224 279 L 228 279 L 228 278 L 231 278 L 231 278 L 232 277 L 240 277 L 240 277 L 241 276 L 241 276 L 242 276 L 245 275 L 246 275 L 248 275 L 249 274 L 250 274 L 255 274 L 256 273 L 256 273 L 257 273 L 257 272 L 257 272 L 260 272 L 264 271 L 275 271 L 279 271 L 281 270 L 282 270 L 283 270 L 284 269 L 284 269 L 284 269 L 284 268 L 284 268 L 284 267 L 284 267 L 284 267 L 284 266 L 284 266 L 284 266 L 284 265 L 284 265 L 285 265 L 285 264 L 287 264 L 287 264 L 287 263 L 287 263 L 289 263 L 289 262 L 289 262 L 289 262 L 289 261 L 289 261 L 289 261 L 290 260 L 290 260 L 291 260 L 291 259 L 291 259 L 291 259 L 291 258 L 292 258 L 292 258 L 292 257 L 292 257 L 293 256 L 293 256 L 293 256 L 294 255 L 295 255 L 296 255 L 297 254 L 299 254 L 299 254 L 300 253 L 300 253 L 300 253 L 300 252 L 300 252 L 302 252 L 302 251 L 304 251 L 304 251 L 304 250 L 306 250 L 307 250 L 307 249 L 310 249 L 310 249 L 310 248 L 311 248 L 311 248 L 315 247 L 316 247 L 316 247 L 319 246 L 321 246 L 324 245 L 325 245 L 325 245 L 326 244 L 327 244 L 327 244 L 329 243 L 331 243 L 332 243 L 333 242 L 334 242 L 335 242 L 335 241 L 335 241 L 335 241 L 335 240 L 336 240 L 336 240 L 337 239 L 337 239 L 337 239 L 338 238 L 342 238 L 346 238 L 346 237 L 346 237 L 349 237 L 351 236 L 352 236 L 352 236 L 353 235 L 354 235 L 354 234 L 354 234 L 354 234 L 354 233 L 354 233 L 354 233 L 355 232 L 355 232 L 356 232 L 358 231 L 358 231 L 358 231 L 358 230 L 358 230 L 358 230 L 358 229 L 358 229 L 358 229 L 359 228 L 359 228 L 359 228 L 359 227 L 362 227 L 365 227 L 365 226 L 365 226 L 375 226 L 376 225 L 379 225 L 381 225 L 388 224 L 390 224 L 391 223 L 391 223 L 391 223 L 391 222 L 391 222 L 391 222 L 392 221 L 393 221 L 400 221 L 402 220 L 405 220 L 410 220 L 414 219 L 417 219 L 420 219 L 424 218 L 424 218 L 432 218 L 440 217 L 440 217 L 446 217 L 446 216 L 451 216 L 452 216 L 454 215 L 454 215 L 455 215 L 455 214 L 458 214 L 459 214 L 461 213 L 465 213 L 465 212 L 466 212 L 467 212 L 470 211 L 473 211 L 473 211 L 476 210 L 480 210 L 481 210 L 481 209 L 482 209 L 483 209 L 484 208 L 487 208 L 489 208 L 491 207 L 493 207 L 493 207 L 498 206 L 499 206 L 501 206 L 505 205 L 505 205 L 510 205 L 510 204 L 510 204 L 512 204 L 512 203 L 514 203 L 514 203 L 516 202 L 519 202 L 519 201 L 520 201 L 520 201 L 527 200 L 527 200 L 528 200 L 528 199 L 528 199 L 529 199 L 529 198 L 529 198 L 530 198 L 531 197 L 531 197 L 533 197 L 533 196 L 534 196 L 535 196 L 535 195 L 535 195 L 536 195 L 536 194 L 536 194 L 537 194 L 537 193 L 537 193 L 537 193 L 538 192 L 539 192 L 540 192 L 540 191 L 541 191 L 541 190 L 542 190 L 543 190 L 543 189 L 544 189 L 545 189 L 546 188 L 546 188 L 547 188 L 547 187 L 549 187 L 549 187 L 549 186 L 550 186 L 550 186 L 550 185 L 550 185 L 551 185 L 551 184 L 552 184 L 555 184 L 556 183 L 557 183 L 557 183 L 559 182 L 560 182 L 561 182 L 563 181 L 565 181 L 567 181 L 569 180 L 570 180 L 570 179 L 570 179 L 571 179 L 571 178 L 572 178 L 572 178 L 572 177 L 572 177 L 573 177 L 573 176 L 574 176 L 575 176 L 575 175 L 576 175 L 576 175 L 579 174 L 579 174 L 579 174 L 580 173 L 581 173 L 583 173 L 589 172 L 589 172 L 589 172 L 589 171 L 591 171 L 593 171 L 593 170 L 593 170 L 593 170 L 594 169 L 596 169 L 598 168 L 599 168 L 599 168 L 599 167 L 601 167 L 601 167 L 601 166 L 601 166 L 604 166 L 607 165 L 607 165 L 611 165 L 611 164 L 612 164 L 615 164 L 616 163 L 618 163 L 620 163 L 622 162 L 623 162 L 623 162 L 623 161 L 623 161 L 623 161 L 623 160 L 624 160 L 625 160 L 625 159 L 626 159 L 626 159 L 626 158 L 627 158 L 628 157 L 628 157 L 632 157 L 633 156 L 637 156 L 639 156 L 640 155 L 640 155 L 641 155 L 643 154 L 644 154 L 644 154 L 644 153 L 645 153 L 645 153 L 645 152 L 645 152 L 645 152 L 646 151 L 646 151 L 646 151 L 646 150 L 647 150 L 647 150 L 648 149 L 649 149 L 649 149 L 650 148 L 650 148 L 651 148 L 651 147 L 651 147 L 652 146 L 653 146 L 656 146 L 656 145 L 656 145 L 656 145 L 656 144 L 657 144 L 657 144 L 657 143 L 658 143 L 660 143 L 662 142 L 665 142 L 666 142 L 667 141 L 671 141 L 674 141 L 674 140 L 677 140 L 681 140 L 681 139 L 681 139 L 685 139 L 686 138 L 687 138 L 688 138 L 688 137 L 696 137 L 696 137 L 697 136 L 697 136 L 698 135 L 698 135 L 699 135 L 699 134 L 700 134 L 700 134 L 701 133 L 701 133 L 701 133 L 702 132 L 702 132 L 702 132 L 702 131 L 702 131 L 702 131 L 704 130 L 705 130 L 706 130 L 706 129 L 706 129 L 707 129 L 708 128 L 709 128 L 709 128 L 710 127 L 710 127 L 710 127 L 710 126 L 712 126 L 712 126 L 713 125 L 713 125 L 714 124 L 715 124 L 715 124 L 715 123 L 716 123 L 716 123 L 716 122 L 717 122 L 717 122 L 718 121 L 718 121 L 719 121 L 720 120 L 720 120 L 720 120 L 720 119 L 720 119 L 721 119 L 721 118 L 721 118 L 722 118 L 722 117 L 723 117 L 723 117 L 724 116 L 724 116 L 724 116 L 724 115 L 724 115 L 724 115 L 725 114 L 725 114 L 725 113 L 725 113 L 727 113 L 728 112 L 730 112 L 730 112 L 730 111 L 730 111 L 732 111 L 733 110 L 733 110 L 734 110 L 736 109 L 738 109 L 738 109 L 740 108 L 741 108 L 741 108 L 742 107 L 742 107 L 742 107 L 742 106 L 742 106 L 742 106 L 742 105 L 742 105 L 743 105 L 743 104 L 743 104 L 743 104 L 743 103 L 744 103 L 744 102 L 745 102 L 745 102 L 746 101 L 747 101 L 748 101 L 748 100 L 748 100 L 749 100 L 749 99 L 750 99 L 752 99 L 753 98 L 753 98 L 753 98 L 753 97 L 754 97 L 756 97 L 758 96 L 758 96 L 760 96 L 760 95 L 760 95 L 760 95 L 761 94 L 766 94 L 768 94 L 771 93 L 772 93 L 773 92 L 774 92 L 775 92 L 775 91 L 776 91 L 776 91 L 776 90 L 777 90 L 777 90 L 777 89 L 779 89 L 781 89 L 781 88 L 781 88 L 781 88 L 781 87 L 781 87 L 781 87 L 781 86 L 781 86 L 781 86 L 781 85 L 781 85 L 781 85 L 781 84 L 781 84 L 781 84 L 781 83 L 782 83 L 782 83 L 782 82 L 782 82 L 782 82 L 782 81 L 782 81 L 783 80 L 783 80 L 783 80 L 784 79 L 784 79 L 784 79 L 784 78 L 784 78 L 784 78 L 786 77 L 787 77 L 789 77 L 789 76 L 789 76 L 791 76 L 791 75 L 791 75 L 792 75 L 794 74 L 795 74 L 796 74 L 796 73 L 796 73 L 796 73 L 796 72 L 796 72 L 796 72 L 798 71 L 798 71 L 798 71 L 802 70 L 804 70 L 805 69 L 807 69 L 809 69 L 809 68 L 809 68 L 809 68 L 810 67 L 810 67 L 811 67 L 811 66 L 812 66 L 812 66 L 813 65 L 813 65 L 813 65 L 813 64 L 813 64 L 813 64 L 813 63 L 814 63 L 814 63 L 814 62 L 814 62 L 816 62 L 816 61 L 817 61 L 817 61 L 818 60 L 818 60 L 818 60 L 819 59 L 819 59 L 819 58 L 820 58 L 820 58 L 821 57 L 825 57 L 826 57 L 827 56 L 830 56 L 830 56 L 832 55 L 834 55 L 835 55 L 836 54 L 839 54 L 844 54 L 844 53 L 846 53 L 848 53 L 850 52 L 850 52 L 850 52 L 852 51 L 853 51 L 854 51 L 854 50 L 856 50 L 857 50 L 858 49 L 858 49 L 859 49 L 859 48 L 859 48 L 860 47 L 864 47 L 864 47 L 865 46 L 866 46 L 866 46 L 868 45 L 868 45 L 869 45 L 869 44 L 870 44 L 870 44 L 871 43 L 872 43 L 872 43 L 873 42 L 874 42 L 874 42 L 874 41 L 875 41 L 876 41 L 876 40 L 876 40 L 877 40 L 878 39 L 878 39 L 878 39 L 878 38 L 878 38 L 879 38 L 881 37 L 882 37 L 883 36 L 883 36 L 886 36 L 887 35 L 888 35 L 889 35 L 892 34 L 894 34 L 896 34 L 897 33 L 898 33 L 899 33 L 901 32 L 903 32 L 904 32 L 905 31 L 905 31 L 905 31 L 905 30 L 905 30 L 906 30 L 907 29 L 908 29 L 909 29 L 909 28 L 910 28 L 910 28 L 916 27 L 917 27 L 918 27 L 920 26 L 922 26 L 923 25 L 923 25 L 924 25 L 924 24 L 924 24 L 925 24 L 926 23 L 926 23 L 927 23 L 927 22 L 927 22 L 928 22 L 928 21 L 929 21 L 930 21 L 933 20 L 934 20 L 939 20 L 939 19 L 940 19 L 941 19 L 942 18 L 942 18 L 942 18 L 942 17 L 945 17" stroke-width="2" class="series"></path><path stroke-width="2" d="M 945 346 L 945.000000 15.000000" /><path stroke-width="2" d="M 945 346 L 945.000000 15.000000"></path><path stroke-width="2" d="M 945 346 L 950 346" /><path stroke-width="2" d="M 945 346 L 950 346"></path><text xmlns="http://www.w3.org/2000/svg" x="955" y="352">0</text><path stroke-width="2" d="M 945 309 L 950 309" /><path stroke-width="2" d="M 945 309 L 950 309"></path><text xmlns="http://www.w3.org/2000/svg" x="955" y="315">107</text><path stroke-width="2" d="M 945 272 L 950 272" /><path stroke-width="2" d="M 945 272 L 950 272"></path><text y="278" xmlns="http://www.w3.org/2000/svg" x="955">214</text><path stroke-width="2" d="M 945 236 L 950 236" /><path stroke-width="2" d="M 945 236 L 950 236"></path><text xmlns="http://www.w3.org/2000/svg" x="955" y="242">320</text><path d="M 945 199 L 950 199" stroke-width="2" /><path stroke-width="2" d="M 945 199 L 950 199"></path><text x="955" y="205" xmlns="http://www.w3.org/2000/svg">427</text><path stroke-width="2" d="M 945 162 L 950 162" /><path d="M 945 162 L 950 162" stroke-width="2"></path><text xmlns="http://www.w3.org/2000/svg" x="955" y="168">534</text><path stroke-width="2" d="M 945 126 L 950 126" /><path stroke-width="2" d="M 945 126 L 950 126"></path><text x="955" y="132" xmlns="http://www.w3.org/2000/svg">640</text><path stroke-width="2" d="M 945 89 L 950 89" /><path stroke-width="2" d="M 945 89 L 950 89"></path><text xmlns="http://www.w3.org/2000/svg" x="955" y="95">747</text><path stroke-width="2" d="M 945 52 L 950 52" /><path stroke-width="2" d="M 945 52 L 950 52"></path><text xmlns="http://www.w3.org/2000/svg" x="955" y="58">854</text><path stroke-width="2" d="M 945 16 L 950 16" /><path stroke-width="2" d="M 945 16 L 950 16"></path><text xmlns="http://www.w3.org/2000/svg" x="955" y="22">960</text><text y="175" transform="rotate(90.00,987,175)" xmlns="http://www.w3.org/2000/svg" x="987">Stargazers</text><path stroke-width="2" d="M 57.000000 346.000000 L 945 346" /><path d="M 57.000000 346.000000 L 945 346" stroke-width="2"></path><path d="M 58 346 L 58 351" stroke-width="2" /><path stroke-width="2" d="M 58 346 L 58 351"></path><text xmlns="http://www.w3.org/2000/svg" x="25" y="368">2023-04-02</text><path stroke-width="2" d="M 157 346 L 157 351" /><path stroke-width="2" d="M 157 346 L 157 351"></path><text xmlns="http://www.w3.org/2000/svg" x="124" y="368">2023-06-27</text><path stroke-width="2" d="M 256 346 L 256 351" /><path stroke-width="2" d="M 256 346 L 256 351"></path><text xmlns="http://www.w3.org/2000/svg" x="223" y="368">2023-09-20</text><path stroke-width="2" d="M 354 346 L 354 351" /><path stroke-width="2" d="M 354 346 L 354 351"></path><text xmlns="http://www.w3.org/2000/svg" x="321" y="368">2023-12-15</text><path d="M 453 346 L 453 351" stroke-width="2" /><path stroke-width="2" d="M 453 346 L 453 351"></path><text y="368" xmlns="http://www.w3.org/2000/svg" x="420">2024-03-10</text><path stroke-width="2" d="M 551 346 L 551 351" /><path stroke-width="2" d="M 551 346 L 551 351"></path><text xmlns="http://www.w3.org/2000/svg" x="518" y="368">2024-06-03</text><path stroke-width="2" d="M 650 346 L 650 351" /><path stroke-width="2" d="M 650 346 L 650 351"></path><text xmlns="http://www.w3.org/2000/svg" x="617" y="368">2024-08-28</text><path stroke-width="2" d="M 748 346 L 748 351" /><path d="M 748 346 L 748 351" stroke-width="2"></path><text xmlns="http://www.w3.org/2000/svg" x="715" y="368">2024-11-21</text><path stroke-width="2" d="M 847 346 L 847 351" /><path stroke-width="2" d="M 847 346 L 847 351"></path><text xmlns="http://www.w3.org/2000/svg" x="814" y="368">2025-02-15</text><path stroke-width="2" d="M 945 346 L 945 351" /><path stroke-width="2" d="M 945 346 L 945 351"></path><text xmlns="http://www.w3.org/2000/svg" x="912" y="368">2025-05-12</text><text y="390" xmlns="http://www.w3.org/2000/svg" x="487">Time</text></svg>