<svg xmlns="http://www.w3.org/2000/svg" xmlns:xlink="http://www.w3.org/1999/xlink" width="1024px" height="400px"><style type="text/css">
path { fill: none; stroke: rgb(51,51,51); }
path.series { stroke: #6b63ff; }
rect.background { fill: rgb(255,255,255); stroke: none; }

text {
	stroke-width: 0;
	stroke: none;
	fill: rgba(51,51,51,1.0);
	font-size: 12.8px;
	font-family: 'Roboto Medium', sans-serif;
}
</style><rect width="1024px" height="400px" class="background" rx="8" x="0" y="0" /><rect x="0" y="0" width="1024px" height="400px" class="background" rx="8"></rect><path stroke-width="2" class="series" d="M 58 345 L 62 344 L 86 344 L 86 343 L 86 342 L 86 342 L 86 341 L 86 340 L 86 340 L 86 339 L 87 338 L 87 338 L 87 337 L 87 336 L 87 336 L 88 335 L 88 335 L 88 334 L 88 333 L 89 333 L 90 332 L 90 331 L 92 331 L 93 330 L 93 329 L 93 329 L 94 328 L 95 327 L 98 327 L 98 326 L 100 325 L 102 325 L 109 324 L 109 324 L 109 323 L 109 322 L 109 322 L 110 321 L 114 320 L 116 320 L 117 319 L 121 318 L 126 318 L 129 317 L 139 316 L 143 316 L 148 315 L 154 314 L 157 314 L 179 313 L 180 313 L 180 312 L 183 311 L 184 311 L 184 310 L 184 309 L 184 309 L 184 308 L 184 307 L 184 307 L 184 306 L 184 305 L 184 305 L 184 304 L 185 303 L 185 303 L 185 302 L 185 302 L 185 301 L 185 300 L 185 300 L 185 299 L 185 298 L 185 298 L 185 297 L 185 296 L 185 296 L 185 295 L 185 294 L 185 294 L 185 293 L 185 292 L 186 292 L 186 291 L 186 291 L 186 290 L 186 289 L 186 289 L 186 288 L 186 287 L 186 287 L 186 286 L 186 285 L 186 285 L 186 284 L 186 283 L 186 283 L 186 282 L 186 281 L 186 281 L 187 280 L 187 280 L 187 279 L 187 278 L 188 278 L 188 277 L 189 276 L 189 276 L 189 275 L 189 274 L 189 274 L 189 273 L 189 272 L 189 272 L 189 271 L 189 270 L 189 270 L 189 269 L 189 269 L 189 268 L 189 267 L 189 267 L 190 266 L 190 265 L 192 265 L 192 264 L 192 263 L 192 263 L 197 262 L 198 261 L 198 261 L 200 260 L 200 259 L 203 259 L 207 258 L 208 258 L 211 257 L 212 256 L 215 256 L 215 255 L 216 254 L 219 254 L 220 253 L 221 252 L 223 252 L 223 251 L 225 250 L 225 250 L 225 249 L 226 248 L 228 248 L 229 247 L 229 247 L 230 246 L 231 245 L 231 245 L 232 244 L 235 243 L 237 243 L 240 242 L 241 241 L 242 241 L 244 240 L 244 239 L 244 239 L 247 238 L 256 237 L 257 237 L 258 236 L 267 236 L 268 235 L 268 234 L 268 234 L 268 233 L 270 232 L 272 232 L 274 231 L 274 230 L 285 230 L 288 229 L 290 228 L 294 228 L 296 227 L 296 226 L 297 226 L 305 225 L 314 225 L 324 224 L 324 223 L 324 223 L 325 222 L 325 221 L 327 221 L 341 220 L 347 219 L 347 219 L 352 218 L 353 217 L 354 217 L 368 216 L 368 215 L 369 215 L 370 214 L 372 214 L 376 213 L 378 212 L 381 212 L 383 211 L 386 210 L 394 210 L 394 209 L 396 208 L 396 208 L 396 207 L 397 206 L 401 206 L 410 205 L 428 204 L 434 204 L 438 203 L 439 203 L 441 202 L 443 201 L 443 201 L 443 200 L 443 199 L 443 199 L 443 198 L 443 197 L 443 197 L 443 196 L 443 195 L 443 195 L 444 194 L 444 193 L 444 193 L 445 192 L 446 192 L 447 191 L 448 190 L 448 190 L 448 189 L 448 188 L 451 188 L 451 187 L 451 186 L 451 186 L 451 185 L 451 184 L 451 184 L 452 183 L 453 182 L 454 182 L 454 181 L 454 181 L 455 180 L 455 179 L 456 179 L 456 178 L 456 177 L 457 177 L 458 176 L 458 175 L 459 175 L 460 174 L 462 173 L 463 173 L 465 172 L 468 171 L 469 171 L 470 170 L 470 170 L 470 169 L 470 168 L 470 168 L 473 167 L 474 166 L 476 166 L 476 165 L 478 164 L 480 164 L 483 163 L 483 162 L 486 162 L 487 161 L 488 160 L 489 160 L 489 159 L 496 159 L 497 158 L 498 157 L 503 157 L 506 156 L 511 155 L 513 155 L 513 154 L 515 153 L 515 153 L 515 152 L 520 151 L 523 151 L 525 150 L 526 149 L 527 149 L 529 148 L 529 148 L 529 147 L 530 146 L 530 146 L 531 145 L 531 144 L 533 144 L 533 143 L 533 142 L 534 142 L 541 141 L 549 140 L 549 140 L 549 139 L 554 138 L 557 138 L 558 137 L 558 137 L 560 136 L 562 135 L 562 135 L 562 134 L 562 133 L 562 133 L 563 132 L 563 131 L 564 131 L 564 130 L 565 129 L 568 129 L 568 128 L 568 127 L 569 127 L 569 126 L 570 126 L 570 125 L 570 124 L 570 124 L 570 123 L 570 122 L 570 122 L 570 121 L 576 120 L 580 120 L 580 119 L 581 118 L 589 118 L 597 117 L 599 116 L 604 116 L 608 115 L 617 115 L 621 114 L 624 113 L 624 113 L 624 112 L 625 111 L 625 111 L 625 110 L 625 109 L 625 109 L 627 108 L 629 107 L 641 107 L 644 106 L 649 105 L 658 105 L 665 104 L 670 104 L 674 103 L 681 102 L 681 102 L 695 101 L 709 100 L 709 100 L 719 99 L 720 98 L 728 98 L 729 97 L 733 96 L 733 96 L 734 95 L 734 94 L 739 94 L 741 93 L 745 92 L 750 92 L 751 91 L 753 91 L 754 90 L 759 89 L 764 89 L 765 88 L 771 87 L 777 87 L 778 86 L 778 85 L 780 85 L 782 84 L 783 83 L 788 83 L 792 82 L 796 82 L 800 81 L 800 80 L 807 80 L 809 79 L 813 78 L 820 78 L 820 77 L 827 76 L 828 76 L 829 75 L 831 74 L 831 74 L 835 73 L 835 72 L 838 72 L 843 71 L 844 71 L 845 70 L 845 69 L 857 69 L 857 68 L 858 67 L 858 67 L 859 66 L 860 65 L 860 65 L 861 64 L 862 63 L 864 63 L 865 62 L 867 61 L 868 61 L 869 60 L 870 60 L 871 59 L 871 58 L 872 58 L 872 57 L 872 56 L 874 56 L 874 55 L 874 54 L 875 54 L 876 53 L 878 52 L 878 52 L 879 51 L 880 50 L 881 50 L 883 49 L 884 49 L 885 48 L 886 47 L 888 47 L 890 46 L 890 45 L 891 45 L 891 44 L 894 43 L 894 43 L 895 42 L 895 41 L 896 41 L 896 40 L 896 39 L 897 39 L 898 38 L 899 38 L 904 37 L 906 36 L 908 36 L 908 35 L 912 34 L 914 34 L 915 33 L 918 32 L 922 32 L 926 31 L 929 30 L 930 30 L 931 29 L 931 28 L 931 28 L 932 27 L 933 27 L 933 26 L 934 25 L 934 25 L 935 24 L 935 23 L 937 23 L 939 22 L 939 21 L 940 21 L 941 20 L 945 19 L 945 19 L 945 18" /><path stroke-width="2" class="series" d="M 58 345 L 62 344 L 86 344 L 86 343 L 86 342 L 86 342 L 86 341 L 86 340 L 86 340 L 86 339 L 87 338 L 87 338 L 87 337 L 87 336 L 87 336 L 88 335 L 88 335 L 88 334 L 88 333 L 89 333 L 90 332 L 90 331 L 92 331 L 93 330 L 93 329 L 93 329 L 94 328 L 95 327 L 98 327 L 98 326 L 100 325 L 102 325 L 109 324 L 109 324 L 109 323 L 109 322 L 109 322 L 110 321 L 114 320 L 116 320 L 117 319 L 121 318 L 126 318 L 129 317 L 139 316 L 143 316 L 148 315 L 154 314 L 157 314 L 179 313 L 180 313 L 180 312 L 183 311 L 184 311 L 184 310 L 184 309 L 184 309 L 184 308 L 184 307 L 184 307 L 184 306 L 184 305 L 184 305 L 184 304 L 185 303 L 185 303 L 185 302 L 185 302 L 185 301 L 185 300 L 185 300 L 185 299 L 185 298 L 185 298 L 185 297 L 185 296 L 185 296 L 185 295 L 185 294 L 185 294 L 185 293 L 185 292 L 186 292 L 186 291 L 186 291 L 186 290 L 186 289 L 186 289 L 186 288 L 186 287 L 186 287 L 186 286 L 186 285 L 186 285 L 186 284 L 186 283 L 186 283 L 186 282 L 186 281 L 186 281 L 187 280 L 187 280 L 187 279 L 187 278 L 188 278 L 188 277 L 189 276 L 189 276 L 189 275 L 189 274 L 189 274 L 189 273 L 189 272 L 189 272 L 189 271 L 189 270 L 189 270 L 189 269 L 189 269 L 189 268 L 189 267 L 189 267 L 190 266 L 190 265 L 192 265 L 192 264 L 192 263 L 192 263 L 197 262 L 198 261 L 198 261 L 200 260 L 200 259 L 203 259 L 207 258 L 208 258 L 211 257 L 212 256 L 215 256 L 215 255 L 216 254 L 219 254 L 220 253 L 221 252 L 223 252 L 223 251 L 225 250 L 225 250 L 225 249 L 226 248 L 228 248 L 229 247 L 229 247 L 230 246 L 231 245 L 231 245 L 232 244 L 235 243 L 237 243 L 240 242 L 241 241 L 242 241 L 244 240 L 244 239 L 244 239 L 247 238 L 256 237 L 257 237 L 258 236 L 267 236 L 268 235 L 268 234 L 268 234 L 268 233 L 270 232 L 272 232 L 274 231 L 274 230 L 285 230 L 288 229 L 290 228 L 294 228 L 296 227 L 296 226 L 297 226 L 305 225 L 314 225 L 324 224 L 324 223 L 324 223 L 325 222 L 325 221 L 327 221 L 341 220 L 347 219 L 347 219 L 352 218 L 353 217 L 354 217 L 368 216 L 368 215 L 369 215 L 370 214 L 372 214 L 376 213 L 378 212 L 381 212 L 383 211 L 386 210 L 394 210 L 394 209 L 396 208 L 396 208 L 396 207 L 397 206 L 401 206 L 410 205 L 428 204 L 434 204 L 438 203 L 439 203 L 441 202 L 443 201 L 443 201 L 443 200 L 443 199 L 443 199 L 443 198 L 443 197 L 443 197 L 443 196 L 443 195 L 443 195 L 444 194 L 444 193 L 444 193 L 445 192 L 446 192 L 447 191 L 448 190 L 448 190 L 448 189 L 448 188 L 451 188 L 451 187 L 451 186 L 451 186 L 451 185 L 451 184 L 451 184 L 452 183 L 453 182 L 454 182 L 454 181 L 454 181 L 455 180 L 455 179 L 456 179 L 456 178 L 456 177 L 457 177 L 458 176 L 458 175 L 459 175 L 460 174 L 462 173 L 463 173 L 465 172 L 468 171 L 469 171 L 470 170 L 470 170 L 470 169 L 470 168 L 470 168 L 473 167 L 474 166 L 476 166 L 476 165 L 478 164 L 480 164 L 483 163 L 483 162 L 486 162 L 487 161 L 488 160 L 489 160 L 489 159 L 496 159 L 497 158 L 498 157 L 503 157 L 506 156 L 511 155 L 513 155 L 513 154 L 515 153 L 515 153 L 515 152 L 520 151 L 523 151 L 525 150 L 526 149 L 527 149 L 529 148 L 529 148 L 529 147 L 530 146 L 530 146 L 531 145 L 531 144 L 533 144 L 533 143 L 533 142 L 534 142 L 541 141 L 549 140 L 549 140 L 549 139 L 554 138 L 557 138 L 558 137 L 558 137 L 560 136 L 562 135 L 562 135 L 562 134 L 562 133 L 562 133 L 563 132 L 563 131 L 564 131 L 564 130 L 565 129 L 568 129 L 568 128 L 568 127 L 569 127 L 569 126 L 570 126 L 570 125 L 570 124 L 570 124 L 570 123 L 570 122 L 570 122 L 570 121 L 576 120 L 580 120 L 580 119 L 581 118 L 589 118 L 597 117 L 599 116 L 604 116 L 608 115 L 617 115 L 621 114 L 624 113 L 624 113 L 624 112 L 625 111 L 625 111 L 625 110 L 625 109 L 625 109 L 627 108 L 629 107 L 641 107 L 644 106 L 649 105 L 658 105 L 665 104 L 670 104 L 674 103 L 681 102 L 681 102 L 695 101 L 709 100 L 709 100 L 719 99 L 720 98 L 728 98 L 729 97 L 733 96 L 733 96 L 734 95 L 734 94 L 739 94 L 741 93 L 745 92 L 750 92 L 751 91 L 753 91 L 754 90 L 759 89 L 764 89 L 765 88 L 771 87 L 777 87 L 778 86 L 778 85 L 780 85 L 782 84 L 783 83 L 788 83 L 792 82 L 796 82 L 800 81 L 800 80 L 807 80 L 809 79 L 813 78 L 820 78 L 820 77 L 827 76 L 828 76 L 829 75 L 831 74 L 831 74 L 835 73 L 835 72 L 838 72 L 843 71 L 844 71 L 845 70 L 845 69 L 857 69 L 857 68 L 858 67 L 858 67 L 859 66 L 860 65 L 860 65 L 861 64 L 862 63 L 864 63 L 865 62 L 867 61 L 868 61 L 869 60 L 870 60 L 871 59 L 871 58 L 872 58 L 872 57 L 872 56 L 874 56 L 874 55 L 874 54 L 875 54 L 876 53 L 878 52 L 878 52 L 879 51 L 880 50 L 881 50 L 883 49 L 884 49 L 885 48 L 886 47 L 888 47 L 890 46 L 890 45 L 891 45 L 891 44 L 894 43 L 894 43 L 895 42 L 895 41 L 896 41 L 896 40 L 896 39 L 897 39 L 898 38 L 899 38 L 904 37 L 906 36 L 908 36 L 908 35 L 912 34 L 914 34 L 915 33 L 918 32 L 922 32 L 926 31 L 929 30 L 930 30 L 931 29 L 931 28 L 931 28 L 932 27 L 933 27 L 933 26 L 934 25 L 934 25 L 935 24 L 935 23 L 937 23 L 939 22 L 939 21 L 940 21 L 941 20 L 945 19 L 945 19 L 945 18"></path><path stroke-width="2" d="M 945 346 L 945.000000 15.000000" /><path stroke-width="2" d="M 945 346 L 945.000000 15.000000"></path><path stroke-width="2" d="M 945 346 L 950 346" /><path stroke-width="2" d="M 945 346 L 950 346"></path><text xmlns="http://www.w3.org/2000/svg" x="955" y="352">0</text><path stroke-width="2" d="M 945 309 L 950 309" /><path stroke-width="2" d="M 945 309 L 950 309"></path><text xmlns="http://www.w3.org/2000/svg" x="955" y="315">57</text><path stroke-width="2" d="M 945 272 L 950 272" /><path stroke-width="2" d="M 945 272 L 950 272"></path><text xmlns="http://www.w3.org/2000/svg" x="955" y="278">114</text><path stroke-width="2" d="M 945 236 L 950 236" /><path d="M 945 236 L 950 236" stroke-width="2"></path><text xmlns="http://www.w3.org/2000/svg" x="955" y="242">170</text><path stroke-width="2" d="M 945 199 L 950 199" /><path stroke-width="2" d="M 945 199 L 950 199"></path><text xmlns="http://www.w3.org/2000/svg" x="955" y="205">227</text><path stroke-width="2" d="M 945 162 L 950 162" /><path stroke-width="2" d="M 945 162 L 950 162"></path><text xmlns="http://www.w3.org/2000/svg" x="955" y="168">284</text><path stroke-width="2" d="M 945 126 L 950 126" /><path stroke-width="2" d="M 945 126 L 950 126"></path><text xmlns="http://www.w3.org/2000/svg" x="955" y="132">340</text><path stroke-width="2" d="M 945 89 L 950 89" /><path stroke-width="2" d="M 945 89 L 950 89"></path><text xmlns="http://www.w3.org/2000/svg" x="955" y="95">397</text><path stroke-width="2" d="M 945 52 L 950 52" /><path stroke-width="2" d="M 945 52 L 950 52"></path><text y="58" xmlns="http://www.w3.org/2000/svg" x="955">454</text><path stroke-width="2" d="M 945 16 L 950 16" /><path stroke-width="2" d="M 945 16 L 950 16"></path><text xmlns="http://www.w3.org/2000/svg" x="955" y="22">510</text><text y="175" transform="rotate(90.00,987,175)" xmlns="http://www.w3.org/2000/svg" x="987">Stargazers</text><path stroke-width="2" d="M 57.000000 346.000000 L 945 346" /><path stroke-width="2" d="M 57.000000 346.000000 L 945 346"></path><path stroke-width="2" d="M 58 346 L 58 351" /><path stroke-width="2" d="M 58 346 L 58 351"></path><text xmlns="http://www.w3.org/2000/svg" x="25" y="368">2023-04-02</text><path stroke-width="2" d="M 157 346 L 157 351" /><path stroke-width="2" d="M 157 346 L 157 351"></path><text xmlns="http://www.w3.org/2000/svg" x="124" y="368">2023-05-22</text><path stroke-width="2" d="M 256 346 L 256 351" /><path stroke-width="2" d="M 256 346 L 256 351"></path><text xmlns="http://www.w3.org/2000/svg" x="223" y="368">2023-07-11</text><path stroke-width="2" d="M 354 346 L 354 351" /><path stroke-width="2" d="M 354 346 L 354 351"></path><text xmlns="http://www.w3.org/2000/svg" x="321" y="368">2023-08-31</text><path stroke-width="2" d="M 453 346 L 453 351" /><path stroke-width="2" d="M 453 346 L 453 351"></path><text xmlns="http://www.w3.org/2000/svg" x="420" y="368">2023-10-20</text><path stroke-width="2" d="M 551 346 L 551 351" /><path stroke-width="2" d="M 551 346 L 551 351"></path><text xmlns="http://www.w3.org/2000/svg" x="518" y="368">2023-12-09</text><path stroke-width="2" d="M 650 346 L 650 351" /><path stroke-width="2" d="M 650 346 L 650 351"></path><text xmlns="http://www.w3.org/2000/svg" x="617" y="368">2024-01-28</text><path stroke-width="2" d="M 748 346 L 748 351" /><path stroke-width="2" d="M 748 346 L 748 351"></path><text xmlns="http://www.w3.org/2000/svg" x="715" y="368">2024-03-19</text><path stroke-width="2" d="M 847 346 L 847 351" /><path stroke-width="2" d="M 847 346 L 847 351"></path><text xmlns="http://www.w3.org/2000/svg" x="814" y="368">2024-05-08</text><path stroke-width="2" d="M 945 346 L 945 351" /><path stroke-width="2" d="M 945 346 L 945 351"></path><text xmlns="http://www.w3.org/2000/svg" x="912" y="368">2024-06-27</text><text xmlns="http://www.w3.org/2000/svg" x="487" y="390">Time</text></svg>