<svg xmlns="http://www.w3.org/2000/svg" xmlns:xlink="http://www.w3.org/1999/xlink" width="1024px" height="400px"><style type="text/css">
path { fill: none; stroke: rgb(51,51,51); }
path.series { stroke: #6b63ff; }
rect.background { fill: rgb(255,255,255); stroke: none; }

text {
	stroke-width: 0;
	stroke: none;
	fill: rgba(51,51,51,1.0);
	font-size: 12.8px;
	font-family: 'Roboto Medium', sans-serif;
}
</style><rect width="1024px" height="400px" class="background" rx="8" x="0" y="0" /><rect y="0" width="1024px" height="400px" class="background" rx="8" x="0"></rect><path stroke-width="2" class="series" d="M 58 345 L 62 344 L 88 343 L 89 343 L 89 342 L 89 341 L 89 340 L 89 340 L 89 339 L 89 338 L 90 337 L 90 337 L 90 336 L 90 335 L 90 335 L 90 334 L 90 333 L 91 332 L 91 332 L 92 331 L 93 330 L 93 329 L 95 329 L 96 328 L 96 327 L 96 326 L 97 326 L 99 325 L 102 324 L 102 324 L 104 323 L 106 322 L 114 321 L 114 321 L 114 320 L 114 319 L 114 318 L 114 318 L 119 317 L 121 316 L 123 315 L 126 315 L 133 314 L 136 313 L 147 313 L 151 312 L 157 311 L 163 310 L 166 310 L 191 309 L 192 308 L 192 307 L 195 307 L 196 306 L 196 305 L 196 304 L 196 304 L 196 303 L 196 302 L 196 302 L 196 301 L 196 300 L 196 299 L 196 299 L 197 298 L 197 297 L 197 296 L 197 296 L 197 295 L 197 294 L 197 293 L 197 293 L 197 292 L 197 291 L 197 291 L 197 290 L 197 289 L 197 288 L 197 288 L 197 287 L 197 286 L 197 285 L 198 285 L 198 284 L 198 283 L 198 282 L 198 282 L 198 281 L 198 280 L 198 280 L 198 279 L 198 278 L 198 277 L 198 277 L 198 276 L 198 275 L 198 274 L 198 274 L 198 273 L 198 272 L 199 271 L 199 271 L 199 270 L 200 269 L 200 269 L 200 268 L 201 267 L 202 266 L 202 266 L 202 265 L 202 264 L 202 263 L 202 263 L 202 262 L 202 261 L 202 260 L 202 260 L 202 259 L 202 258 L 202 258 L 202 257 L 202 256 L 202 255 L 203 255 L 204 254 L 204 253 L 204 252 L 204 252 L 210 251 L 211 250 L 211 249 L 213 249 L 213 248 L 217 247 L 221 247 L 222 246 L 225 245 L 227 244 L 229 244 L 230 243 L 231 242 L 235 241 L 235 241 L 236 240 L 238 239 L 239 238 L 241 238 L 241 237 L 241 236 L 242 236 L 244 235 L 246 234 L 246 233 L 247 233 L 247 232 L 247 231 L 249 230 L 252 230 L 254 229 L 257 228 L 259 227 L 260 227 L 262 226 L 262 225 L 262 225 L 265 224 L 275 223 L 275 222 L 277 222 L 287 221 L 287 220 L 287 219 L 288 219 L 288 218 L 290 217 L 293 216 L 294 216 L 295 215 L 307 214 L 309 214 L 312 213 L 316 212 L 318 211 L 318 211 L 320 210 L 328 209 L 338 208 L 349 208 L 350 207 L 350 206 L 350 205 L 351 205 L 353 204 L 367 203 L 374 203 L 374 202 L 380 201 L 381 200 L 382 200 L 398 199 L 398 198 L 399 197 L 400 197 L 402 196 L 406 195 L 408 194 L 411 194 L 413 193 L 417 192 L 426 192 L 426 191 L 428 190 L 428 189 L 428 189 L 429 188 L 434 187 L 443 186 L 463 186 L 470 185 L 471 184 L 474 183 L 475 183 L 477 182 L 479 181 L 479 181 L 479 180 L 479 179 L 479 178 L 479 178 L 479 177 L 479 176 L 480 175 L 480 175 L 480 174 L 480 173 L 480 172 L 481 172 L 481 171 L 482 170 L 484 170 L 485 169 L 485 168 L 485 167 L 485 167 L 488 166 L 488 165 L 488 164 L 488 164 L 488 163 L 488 162 L 488 161 L 490 161 L 491 160 L 491 159 L 492 159 L 492 158 L 492 157 L 492 156 L 494 156 L 494 155 L 494 154 L 494 153 L 496 153 L 496 152 L 497 151 L 498 150 L 500 150 L 501 149 L 504 148 L 507 148 L 507 147 L 509 146 L 509 145 L 509 145 L 509 144 L 509 143 L 512 142 L 513 142 L 516 141 L 516 140 L 517 139 L 520 139 L 523 138 L 523 137 L 527 137 L 528 136 L 528 135 L 530 134 L 530 134 L 537 133 L 539 132 L 540 131 L 545 131 L 548 130 L 554 129 L 556 128 L 556 128 L 558 127 L 559 126 L 559 126 L 563 125 L 567 124 L 569 123 L 570 123 L 572 122 L 574 121 L 574 120 L 574 120 L 574 119 L 575 118 L 576 117 L 576 117 L 578 116 L 578 115 L 578 115 L 579 114 L 586 113 L 595 112 L 595 112 L 595 111 L 601 110 L 604 109 L 605 109 L 606 108 L 608 107 L 610 106 L 610 106 L 610 105 L 610 104 L 610 104 L 611 103 L 611 102 L 611 101 L 611 101 L 613 100 L 617 99 L 617 98 L 617 98 L 617 97 L 617 96 L 618 95 L 618 95 L 618 94 L 618 93 L 618 92 L 618 92 L 618 91 L 619 90 L 625 90 L 629 89 L 629 88 L 631 87 L 639 87 L 648 86 L 650 85 L 656 84 L 660 84 L 670 83 L 674 82 L 678 82 L 678 81 L 678 80 L 678 79 L 679 79 L 679 78 L 679 77 L 679 76 L 681 76 L 683 75 L 696 74 L 700 73 L 705 73 L 715 72 L 722 71 L 728 71 L 732 70 L 740 69 L 740 68 L 755 68 L 771 67 L 771 66 L 782 65 L 782 65 L 791 64 L 792 63 L 797 62 L 797 62 L 798 61 L 798 60 L 803 60 L 805 59 L 810 58 L 816 57 L 817 57 L 819 56 L 820 55 L 825 54 L 831 54 L 831 53 L 838 52 L 845 51 L 846 51 L 846 50 L 849 49 L 850 49 L 852 48 L 857 47 L 861 46 L 866 46 L 870 45 L 870 44 L 878 43 L 880 43 L 884 42 L 892 41 L 892 40 L 900 40 L 901 39 L 901 38 L 904 38 L 905 37 L 908 36 L 909 35 L 912 35 L 917 34 L 918 33 L 919 32 L 919 32 L 932 31 L 932 30 L 934 29 L 934 29 L 934 28 L 936 27 L 936 27 L 937 26 L 938 25 L 941 24 L 941 24 L 943 23 L 944 22 L 945 21" /><path stroke-width="2" class="series" d="M 58 345 L 62 344 L 88 343 L 89 343 L 89 342 L 89 341 L 89 340 L 89 340 L 89 339 L 89 338 L 90 337 L 90 337 L 90 336 L 90 335 L 90 335 L 90 334 L 90 333 L 91 332 L 91 332 L 92 331 L 93 330 L 93 329 L 95 329 L 96 328 L 96 327 L 96 326 L 97 326 L 99 325 L 102 324 L 102 324 L 104 323 L 106 322 L 114 321 L 114 321 L 114 320 L 114 319 L 114 318 L 114 318 L 119 317 L 121 316 L 123 315 L 126 315 L 133 314 L 136 313 L 147 313 L 151 312 L 157 311 L 163 310 L 166 310 L 191 309 L 192 308 L 192 307 L 195 307 L 196 306 L 196 305 L 196 304 L 196 304 L 196 303 L 196 302 L 196 302 L 196 301 L 196 300 L 196 299 L 196 299 L 197 298 L 197 297 L 197 296 L 197 296 L 197 295 L 197 294 L 197 293 L 197 293 L 197 292 L 197 291 L 197 291 L 197 290 L 197 289 L 197 288 L 197 288 L 197 287 L 197 286 L 197 285 L 198 285 L 198 284 L 198 283 L 198 282 L 198 282 L 198 281 L 198 280 L 198 280 L 198 279 L 198 278 L 198 277 L 198 277 L 198 276 L 198 275 L 198 274 L 198 274 L 198 273 L 198 272 L 199 271 L 199 271 L 199 270 L 200 269 L 200 269 L 200 268 L 201 267 L 202 266 L 202 266 L 202 265 L 202 264 L 202 263 L 202 263 L 202 262 L 202 261 L 202 260 L 202 260 L 202 259 L 202 258 L 202 258 L 202 257 L 202 256 L 202 255 L 203 255 L 204 254 L 204 253 L 204 252 L 204 252 L 210 251 L 211 250 L 211 249 L 213 249 L 213 248 L 217 247 L 221 247 L 222 246 L 225 245 L 227 244 L 229 244 L 230 243 L 231 242 L 235 241 L 235 241 L 236 240 L 238 239 L 239 238 L 241 238 L 241 237 L 241 236 L 242 236 L 244 235 L 246 234 L 246 233 L 247 233 L 247 232 L 247 231 L 249 230 L 252 230 L 254 229 L 257 228 L 259 227 L 260 227 L 262 226 L 262 225 L 262 225 L 265 224 L 275 223 L 275 222 L 277 222 L 287 221 L 287 220 L 287 219 L 288 219 L 288 218 L 290 217 L 293 216 L 294 216 L 295 215 L 307 214 L 309 214 L 312 213 L 316 212 L 318 211 L 318 211 L 320 210 L 328 209 L 338 208 L 349 208 L 350 207 L 350 206 L 350 205 L 351 205 L 353 204 L 367 203 L 374 203 L 374 202 L 380 201 L 381 200 L 382 200 L 398 199 L 398 198 L 399 197 L 400 197 L 402 196 L 406 195 L 408 194 L 411 194 L 413 193 L 417 192 L 426 192 L 426 191 L 428 190 L 428 189 L 428 189 L 429 188 L 434 187 L 443 186 L 463 186 L 470 185 L 471 184 L 474 183 L 475 183 L 477 182 L 479 181 L 479 181 L 479 180 L 479 179 L 479 178 L 479 178 L 479 177 L 479 176 L 480 175 L 480 175 L 480 174 L 480 173 L 480 172 L 481 172 L 481 171 L 482 170 L 484 170 L 485 169 L 485 168 L 485 167 L 485 167 L 488 166 L 488 165 L 488 164 L 488 164 L 488 163 L 488 162 L 488 161 L 490 161 L 491 160 L 491 159 L 492 159 L 492 158 L 492 157 L 492 156 L 494 156 L 494 155 L 494 154 L 494 153 L 496 153 L 496 152 L 497 151 L 498 150 L 500 150 L 501 149 L 504 148 L 507 148 L 507 147 L 509 146 L 509 145 L 509 145 L 509 144 L 509 143 L 512 142 L 513 142 L 516 141 L 516 140 L 517 139 L 520 139 L 523 138 L 523 137 L 527 137 L 528 136 L 528 135 L 530 134 L 530 134 L 537 133 L 539 132 L 540 131 L 545 131 L 548 130 L 554 129 L 556 128 L 556 128 L 558 127 L 559 126 L 559 126 L 563 125 L 567 124 L 569 123 L 570 123 L 572 122 L 574 121 L 574 120 L 574 120 L 574 119 L 575 118 L 576 117 L 576 117 L 578 116 L 578 115 L 578 115 L 579 114 L 586 113 L 595 112 L 595 112 L 595 111 L 601 110 L 604 109 L 605 109 L 606 108 L 608 107 L 610 106 L 610 106 L 610 105 L 610 104 L 610 104 L 611 103 L 611 102 L 611 101 L 611 101 L 613 100 L 617 99 L 617 98 L 617 98 L 617 97 L 617 96 L 618 95 L 618 95 L 618 94 L 618 93 L 618 92 L 618 92 L 618 91 L 619 90 L 625 90 L 629 89 L 629 88 L 631 87 L 639 87 L 648 86 L 650 85 L 656 84 L 660 84 L 670 83 L 674 82 L 678 82 L 678 81 L 678 80 L 678 79 L 679 79 L 679 78 L 679 77 L 679 76 L 681 76 L 683 75 L 696 74 L 700 73 L 705 73 L 715 72 L 722 71 L 728 71 L 732 70 L 740 69 L 740 68 L 755 68 L 771 67 L 771 66 L 782 65 L 782 65 L 791 64 L 792 63 L 797 62 L 797 62 L 798 61 L 798 60 L 803 60 L 805 59 L 810 58 L 816 57 L 817 57 L 819 56 L 820 55 L 825 54 L 831 54 L 831 53 L 838 52 L 845 51 L 846 51 L 846 50 L 849 49 L 850 49 L 852 48 L 857 47 L 861 46 L 866 46 L 870 45 L 870 44 L 878 43 L 880 43 L 884 42 L 892 41 L 892 40 L 900 40 L 901 39 L 901 38 L 904 38 L 905 37 L 908 36 L 909 35 L 912 35 L 917 34 L 918 33 L 919 32 L 919 32 L 932 31 L 932 30 L 934 29 L 934 29 L 934 28 L 936 27 L 936 27 L 937 26 L 938 25 L 941 24 L 941 24 L 943 23 L 944 22 L 945 21"></path><path stroke-width="2" d="M 945 346 L 945.000000 15.000000" /><path stroke-width="2" d="M 945 346 L 945.000000 15.000000"></path><path d="M 945 346 L 950 346" stroke-width="2" /><path stroke-width="2" d="M 945 346 L 950 346"></path><text xmlns="http://www.w3.org/2000/svg" x="955" y="352">0</text><path stroke-width="2" d="M 945 309 L 950 309" /><path stroke-width="2" d="M 945 309 L 950 309"></path><text xmlns="http://www.w3.org/2000/svg" x="955" y="315">50</text><path d="M 945 272 L 950 272" stroke-width="2" /><path stroke-width="2" d="M 945 272 L 950 272"></path><text xmlns="http://www.w3.org/2000/svg" x="955" y="278">100</text><path d="M 945 236 L 950 236" stroke-width="2" /><path stroke-width="2" d="M 945 236 L 950 236"></path><text xmlns="http://www.w3.org/2000/svg" x="955" y="242">150</text><path stroke-width="2" d="M 945 199 L 950 199" /><path d="M 945 199 L 950 199" stroke-width="2"></path><text xmlns="http://www.w3.org/2000/svg" x="955" y="205">200</text><path stroke-width="2" d="M 945 162 L 950 162" /><path d="M 945 162 L 950 162" stroke-width="2"></path><text xmlns="http://www.w3.org/2000/svg" x="955" y="168">250</text><path stroke-width="2" d="M 945 126 L 950 126" /><path stroke-width="2" d="M 945 126 L 950 126"></path><text xmlns="http://www.w3.org/2000/svg" x="955" y="132">300</text><path stroke-width="2" d="M 945 89 L 950 89" /><path stroke-width="2" d="M 945 89 L 950 89"></path><text x="955" y="95" xmlns="http://www.w3.org/2000/svg">350</text><path stroke-width="2" d="M 945 52 L 950 52" /><path stroke-width="2" d="M 945 52 L 950 52"></path><text x="955" y="58" xmlns="http://www.w3.org/2000/svg">400</text><path stroke-width="2" d="M 945 16 L 950 16" /><path stroke-width="2" d="M 945 16 L 950 16"></path><text xmlns="http://www.w3.org/2000/svg" x="955" y="22">450</text><text y="175" transform="rotate(90.00,987,175)" xmlns="http://www.w3.org/2000/svg" x="987">Stargazers</text><path stroke-width="2" d="M 57.000000 346.000000 L 945 346" /><path stroke-width="2" d="M 57.000000 346.000000 L 945 346"></path><path stroke-width="2" d="M 58 346 L 58 351" /><path stroke-width="2" d="M 58 346 L 58 351"></path><text xmlns="http://www.w3.org/2000/svg" x="25" y="368">2023-04-02</text><path stroke-width="2" d="M 157 346 L 157 351" /><path stroke-width="2" d="M 157 346 L 157 351"></path><text x="124" y="368" xmlns="http://www.w3.org/2000/svg">2023-05-18</text><path stroke-width="2" d="M 256 346 L 256 351" /><path d="M 256 346 L 256 351" stroke-width="2"></path><text xmlns="http://www.w3.org/2000/svg" x="223" y="368">2023-07-03</text><path stroke-width="2" d="M 354 346 L 354 351" /><path stroke-width="2" d="M 354 346 L 354 351"></path><text xmlns="http://www.w3.org/2000/svg" x="321" y="368">2023-08-18</text><path stroke-width="2" d="M 453 346 L 453 351" /><path stroke-width="2" d="M 453 346 L 453 351"></path><text y="368" xmlns="http://www.w3.org/2000/svg" x="420">2023-10-03</text><path stroke-width="2" d="M 551 346 L 551 351" /><path stroke-width="2" d="M 551 346 L 551 351"></path><text x="518" y="368" xmlns="http://www.w3.org/2000/svg">2023-11-17</text><path stroke-width="2" d="M 650 346 L 650 351" /><path stroke-width="2" d="M 650 346 L 650 351"></path><text x="617" y="368" xmlns="http://www.w3.org/2000/svg">2024-01-02</text><path stroke-width="2" d="M 748 346 L 748 351" /><path stroke-width="2" d="M 748 346 L 748 351"></path><text xmlns="http://www.w3.org/2000/svg" x="715" y="368">2024-02-17</text><path stroke-width="2" d="M 847 346 L 847 351" /><path stroke-width="2" d="M 847 346 L 847 351"></path><text y="368" xmlns="http://www.w3.org/2000/svg" x="814">2024-04-03</text><path stroke-width="2" d="M 945 346 L 945 351" /><path d="M 945 346 L 945 351" stroke-width="2"></path><text xmlns="http://www.w3.org/2000/svg" x="912" y="368">2024-05-19</text><text y="390" xmlns="http://www.w3.org/2000/svg" x="487">Time</text></svg>