<svg xmlns="http://www.w3.org/2000/svg" xmlns:xlink="http://www.w3.org/1999/xlink" width="1024" height="400">\n<path  d="M 0 0
L 1024 0
L 1024 400
L 0 400
L 0 0" style="stroke-width:0;stroke:rgba(255,255,255,1.0);fill:rgba(255,255,255,1.0)"/><path  d="M 38 11
L 965 11
L 965 351
L 38 351
L 38 11" style="stroke-width:0;stroke:rgba(255,255,255,1.0);fill:rgba(255,255,255,1.0)"/><path  d="M 38 351
L 965 351" style="stroke-width:2;stroke:rgba(85,85,85,1.0);fill:none"/><path  d="M 38 351
L 38 356" style="stroke-width:2;stroke:rgba(85,85,85,1.0);fill:none"/><text x="5" y="373" style="stroke-width:0;stroke:none;fill:rgba(51,51,51,1.0);font-size:12.8px;font-family:'Roboto Medium',sans-serif">2023-04-02</text><path  d="M 154 351
L 154 356" style="stroke-width:2;stroke:rgba(85,85,85,1.0);fill:none"/><text x="121" y="373" style="stroke-width:0;stroke:none;fill:rgba(51,51,51,1.0);font-size:12.8px;font-family:'Roboto Medium',sans-serif">2023-04-19</text><path  d="M 270 351
L 270 356" style="stroke-width:2;stroke:rgba(85,85,85,1.0);fill:none"/><text x="237" y="373" style="stroke-width:0;stroke:none;fill:rgba(51,51,51,1.0);font-size:12.8px;font-family:'Roboto Medium',sans-serif">2023-05-06</text><path  d="M 386 351
L 386 356" style="stroke-width:2;stroke:rgba(85,85,85,1.0);fill:none"/><text x="353" y="373" style="stroke-width:0;stroke:none;fill:rgba(51,51,51,1.0);font-size:12.8px;font-family:'Roboto Medium',sans-serif">2023-05-23</text><path  d="M 502 351
L 502 356" style="stroke-width:2;stroke:rgba(85,85,85,1.0);fill:none"/><text x="469" y="373" style="stroke-width:0;stroke:none;fill:rgba(51,51,51,1.0);font-size:12.8px;font-family:'Roboto Medium',sans-serif">2023-06-10</text><path  d="M 618 351
L 618 356" style="stroke-width:2;stroke:rgba(85,85,85,1.0);fill:none"/><text x="585" y="373" style="stroke-width:0;stroke:none;fill:rgba(51,51,51,1.0);font-size:12.8px;font-family:'Roboto Medium',sans-serif">2023-06-27</text><path  d="M 734 351
L 734 356" style="stroke-width:2;stroke:rgba(85,85,85,1.0);fill:none"/><text x="701" y="373" style="stroke-width:0;stroke:none;fill:rgba(51,51,51,1.0);font-size:12.8px;font-family:'Roboto Medium',sans-serif">2023-07-14</text><path  d="M 850 351
L 850 356" style="stroke-width:2;stroke:rgba(85,85,85,1.0);fill:none"/><text x="817" y="373" style="stroke-width:0;stroke:none;fill:rgba(51,51,51,1.0);font-size:12.8px;font-family:'Roboto Medium',sans-serif">2023-07-31</text><path  d="M 965 351
L 965 356" style="stroke-width:2;stroke:rgba(85,85,85,1.0);fill:none"/><text x="932" y="373" style="stroke-width:0;stroke:none;fill:rgba(51,51,51,1.0);font-size:12.8px;font-family:'Roboto Medium',sans-serif">2023-08-17</text><text x="487" y="395" style="stroke-width:0;stroke:none;fill:rgba(51,51,51,1.0);font-size:12.8px;font-family:'Roboto Medium',sans-serif">Time</text><path  d="M 967 351
L 967 11" style="stroke-width:2;stroke:rgba(85,85,85,1.0);fill:none"/><path  d="M 967 351
L 972 351" style="stroke-width:2;stroke:rgba(85,85,85,1.0);fill:none"/><text x="977" y="357" style="stroke-width:0;stroke:none;fill:rgba(51,51,51,1.0);font-size:12.8px;font-family:'Roboto Medium',sans-serif">0</text><path  d="M 967 308
L 972 308" style="stroke-width:2;stroke:rgba(85,85,85,1.0);fill:none"/><text x="977" y="314" style="stroke-width:0;stroke:none;fill:rgba(51,51,51,1.0);font-size:12.8px;font-family:'Roboto Medium',sans-serif">25</text><path  d="M 967 266
L 972 266" style="stroke-width:2;stroke:rgba(85,85,85,1.0);fill:none"/><text x="977" y="272" style="stroke-width:0;stroke:none;fill:rgba(51,51,51,1.0);font-size:12.8px;font-family:'Roboto Medium',sans-serif">50</text><path  d="M 967 223
L 972 223" style="stroke-width:2;stroke:rgba(85,85,85,1.0);fill:none"/><text x="977" y="229" style="stroke-width:0;stroke:none;fill:rgba(51,51,51,1.0);font-size:12.8px;font-family:'Roboto Medium',sans-serif">75</text><path  d="M 967 181
L 972 181" style="stroke-width:2;stroke:rgba(85,85,85,1.0);fill:none"/><text x="977" y="187" style="stroke-width:0;stroke:none;fill:rgba(51,51,51,1.0);font-size:12.8px;font-family:'Roboto Medium',sans-serif">100</text><path  d="M 967 138
L 972 138" style="stroke-width:2;stroke:rgba(85,85,85,1.0);fill:none"/><text x="977" y="144" style="stroke-width:0;stroke:none;fill:rgba(51,51,51,1.0);font-size:12.8px;font-family:'Roboto Medium',sans-serif">125</text><path  d="M 967 96
L 972 96" style="stroke-width:2;stroke:rgba(85,85,85,1.0);fill:none"/><text x="977" y="102" style="stroke-width:0;stroke:none;fill:rgba(51,51,51,1.0);font-size:12.8px;font-family:'Roboto Medium',sans-serif">150</text><path  d="M 967 53
L 972 53" style="stroke-width:2;stroke:rgba(85,85,85,1.0);fill:none"/><text x="977" y="59" style="stroke-width:0;stroke:none;fill:rgba(51,51,51,1.0);font-size:12.8px;font-family:'Roboto Medium',sans-serif">175</text><path  d="M 967 11
L 972 11" style="stroke-width:2;stroke:rgba(85,85,85,1.0);fill:none"/><text x="977" y="17" style="stroke-width:0;stroke:none;fill:rgba(51,51,51,1.0);font-size:12.8px;font-family:'Roboto Medium',sans-serif">200</text><text x="1009" y="150" style="stroke-width:0;stroke:none;fill:rgba(51,51,51,1.0);font-size:12.8px;font-family:'Roboto Medium',sans-serif" transform="rotate(90.00,1009,150)">Stargazers</text><path  d="M 38 351
L 51 349
L 132 347
L 135 345
L 135 344
L 135 342
L 135 340
L 135 339
L 135 337
L 135 335
L 137 334
L 137 332
L 137 330
L 137 328
L 138 327
L 138 325
L 138 323
L 139 322
L 140 320
L 140 318
L 145 317
L 147 315
L 148 313
L 154 311
L 158 310
L 158 308
L 158 306
L 161 305
L 161 303
L 166 301
L 174 300
L 175 298
L 181 296
L 187 294
L 213 293
L 213 291
L 213 289
L 214 288
L 214 286
L 214 284
L 214 283
L 229 281
L 236 279
L 240 277
L 252 276
L 273 274
L 281 272
L 317 271
L 329 269
L 348 267
L 369 266
L 378 264
L 454 262
L 458 260
L 459 259
L 469 257
L 471 255
L 471 254
L 471 252
L 471 250
L 471 249
L 471 247
L 471 245
L 472 243
L 472 242
L 472 240
L 472 238
L 474 237
L 475 235
L 475 233
L 475 232
L 475 230
L 475 228
L 475 226
L 475 225
L 475 223
L 475 221
L 476 220
L 476 218
L 476 216
L 476 215
L 476 213
L 476 211
L 476 209
L 476 208
L 476 206
L 476 204
L 477 203
L 477 201
L 477 199
L 477 198
L 477 196
L 477 194
L 477 192
L 477 191
L 477 189
L 477 187
L 477 186
L 477 184
L 478 182
L 478 181
L 479 179
L 479 177
L 480 175
L 482 174
L 482 172
L 482 170
L 484 169
L 485 167
L 489 165
L 489 163
L 489 162
L 489 160
L 489 158
L 489 157
L 489 155
L 489 153
L 489 152
L 489 150
L 489 148
L 489 147
L 489 145
L 489 143
L 489 141
L 490 140
L 491 138
L 492 136
L 497 135
L 498 133
L 498 131
L 498 130
L 516 128
L 518 126
L 518 124
L 524 123
L 525 121
L 537 119
L 550 118
L 553 116
L 564 114
L 568 113
L 577 111
L 579 109
L 581 107
L 593 106
L 594 104
L 598 102
L 604 101
L 607 99
L 612 97
L 612 96
L 613 94
L 615 92
L 621 90
L 628 89
L 628 87
L 631 85
L 633 84
L 633 82
L 637 80
L 647 79
L 653 77
L 664 75
L 668 73
L 673 72
L 678 70
L 678 68
L 679 67
L 687 65
L 720 63
L 722 62
L 727 60
L 758 58
L 759 56
L 759 55
L 760 53
L 761 51
L 766 50
L 776 48
L 781 46
L 782 45
L 820 43
L 828 41
L 836 39
L 849 38
L 856 36
L 856 34
L 862 33
L 888 31
L 918 29
L 952 28
L 955 26
L 955 24
L 956 22
L 958 21
L 965 19" style="stroke-width:2;stroke:rgba(129,199,239,1.0);fill:none"/></svg>