<svg xmlns:xlink="http://www.w3.org/1999/xlink" width="1024px" height="400px" xmlns="http://www.w3.org/2000/svg"><style type="text/css">
path { fill: none; stroke: rgb(51,51,51); }
path.series { stroke: #6b63ff; }
rect.background { fill: rgb(255,255,255); stroke: none; }

text {
	stroke-width: 0;
	stroke: none;
	fill: rgba(51,51,51,1.0);
	font-size: 12.8px;
	font-family: 'Roboto Medium', sans-serif;
}
</style><rect x="0" y="0" width="1024px" height="400px" class="background" rx="8" /><rect class="background" rx="8" x="0" y="0" width="1024px" height="400px"></rect><path d="M 58 345 L 60 345 L 73 345 L 73 344 L 73 344 L 73 344 L 73 343 L 73 343 L 73 343 L 73 343 L 74 342 L 74 342 L 74 342 L 74 341 L 74 341 L 74 341 L 74 340 L 74 340 L 74 340 L 75 340 L 75 339 L 75 339 L 76 339 L 77 338 L 77 338 L 77 338 L 77 337 L 78 337 L 79 337 L 80 337 L 80 336 L 81 336 L 85 336 L 85 335 L 85 335 L 85 335 L 86 334 L 88 334 L 89 334 L 90 334 L 91 333 L 95 333 L 96 333 L 101 332 L 103 332 L 106 332 L 109 331 L 111 331 L 123 331 L 123 331 L 123 330 L 125 330 L 125 330 L 125 329 L 125 329 L 125 329 L 125 328 L 125 328 L 125 328 L 125 328 L 125 327 L 125 327 L 125 327 L 126 326 L 126 326 L 126 326 L 126 325 L 126 325 L 126 325 L 126 325 L 126 324 L 126 324 L 126 324 L 126 323 L 126 323 L 126 323 L 126 322 L 126 322 L 126 322 L 126 322 L 126 321 L 126 321 L 126 321 L 126 320 L 126 320 L 126 320 L 126 319 L 126 319 L 126 319 L 126 319 L 126 318 L 126 318 L 126 318 L 126 317 L 126 317 L 126 317 L 126 316 L 126 316 L 126 316 L 126 316 L 127 315 L 127 315 L 127 315 L 127 314 L 127 314 L 128 314 L 128 313 L 128 313 L 128 313 L 128 313 L 128 312 L 128 312 L 128 312 L 128 311 L 128 311 L 128 311 L 128 310 L 128 310 L 128 310 L 128 310 L 128 309 L 128 309 L 128 309 L 129 308 L 129 308 L 129 308 L 129 307 L 132 307 L 132 307 L 132 307 L 133 306 L 133 306 L 135 306 L 137 305 L 138 305 L 139 305 L 140 304 L 141 304 L 142 304 L 142 304 L 144 303 L 144 303 L 145 303 L 146 302 L 146 302 L 147 302 L 147 301 L 147 301 L 147 301 L 148 301 L 149 300 L 149 300 L 150 300 L 150 299 L 150 299 L 151 299 L 152 298 L 153 298 L 155 298 L 155 298 L 156 297 L 157 297 L 157 297 L 157 296 L 158 296 L 163 296 L 164 295 L 165 295 L 169 295 L 169 295 L 169 294 L 170 294 L 170 294 L 170 293 L 172 293 L 173 293 L 173 292 L 179 292 L 180 292 L 181 292 L 183 291 L 184 291 L 184 291 L 185 290 L 189 290 L 194 290 L 199 289 L 200 289 L 200 289 L 200 289 L 200 288 L 201 288 L 208 288 L 211 287 L 212 287 L 214 287 L 215 286 L 215 286 L 223 286 L 223 286 L 224 285 L 224 285 L 225 285 L 227 284 L 228 284 L 229 284 L 230 283 L 232 283 L 237 283 L 237 283 L 237 282 L 238 282 L 238 282 L 238 281 L 240 281 L 245 281 L 254 280 L 258 280 L 260 280 L 260 280 L 262 279 L 262 279 L 262 279 L 262 278 L 262 278 L 262 278 L 262 277 L 263 277 L 263 277 L 263 277 L 263 276 L 263 276 L 263 276 L 263 275 L 263 275 L 265 275 L 265 274 L 265 274 L 265 274 L 267 274 L 267 273 L 267 273 L 267 273 L 267 272 L 267 272 L 267 272 L 268 271 L 268 271 L 268 271 L 269 271 L 269 270 L 269 270 L 269 270 L 270 269 L 270 269 L 270 269 L 270 268 L 271 268 L 271 268 L 272 268 L 273 267 L 273 267 L 274 267 L 276 266 L 276 266 L 277 266 L 277 265 L 277 265 L 277 265 L 277 265 L 278 264 L 279 264 L 280 264 L 280 263 L 281 263 L 282 263 L 284 262 L 284 262 L 286 262 L 286 262 L 286 261 L 287 261 L 287 261 L 291 260 L 291 260 L 292 260 L 294 259 L 296 259 L 299 259 L 300 259 L 300 258 L 301 258 L 301 258 L 301 257 L 303 257 L 305 257 L 306 256 L 306 256 L 308 256 L 308 256 L 308 255 L 308 255 L 309 255 L 309 254 L 309 254 L 310 254 L 310 253 L 310 253 L 311 253 L 314 253 L 319 252 L 319 252 L 319 252 L 321 251 L 323 251 L 324 251 L 324 250 L 325 250 L 326 250 L 326 250 L 326 249 L 326 249 L 326 249 L 326 248 L 326 248 L 327 248 L 327 247 L 327 247 L 329 247 L 329 247 L 329 246 L 329 246 L 329 246 L 330 245 L 330 245 L 330 245 L 330 244 L 330 244 L 330 244 L 330 244 L 330 243 L 333 243 L 335 243 L 335 242 L 336 242 L 344 242 L 345 241 L 348 241 L 350 241 L 357 241 L 359 240 L 359 240 L 359 240 L 359 239 L 359 239 L 359 239 L 359 238 L 360 238 L 361 238 L 368 238 L 369 237 L 372 237 L 377 237 L 380 236 L 383 236 L 385 236 L 389 235 L 389 235 L 396 235 L 404 235 L 404 234 L 409 234 L 409 234 L 414 233 L 414 233 L 417 233 L 417 232 L 417 232 L 417 232 L 420 232 L 421 231 L 423 231 L 426 231 L 426 230 L 427 230 L 428 230 L 430 229 L 433 229 L 433 229 L 436 229 L 440 228 L 440 228 L 440 228 L 442 227 L 442 227 L 443 227 L 446 226 L 448 226 L 450 226 L 452 226 L 452 225 L 456 225 L 457 225 L 459 224 L 462 224 L 463 224 L 466 223 L 467 223 L 467 223 L 468 223 L 469 222 L 470 222 L 471 222 L 472 221 L 475 221 L 475 221 L 476 220 L 476 220 L 482 220 L 482 220 L 483 219 L 483 219 L 483 219 L 484 218 L 484 218 L 484 218 L 485 217 L 486 217 L 486 217 L 487 217 L 488 216 L 489 216 L 489 216 L 490 215 L 490 215 L 490 215 L 490 214 L 490 214 L 491 214 L 491 214 L 491 213 L 492 213 L 492 213 L 493 212 L 494 212 L 494 212 L 495 211 L 495 211 L 496 211 L 497 211 L 497 210 L 497 210 L 498 210 L 500 209 L 500 209 L 500 209 L 500 208 L 502 208 L 502 208 L 502 208 L 503 207 L 503 207 L 503 207 L 503 206 L 503 206 L 504 206 L 505 205 L 507 205 L 508 205 L 509 205 L 509 204 L 511 204 L 512 204 L 513 203 L 514 203 L 517 203 L 519 202 L 521 202 L 521 202 L 521 202 L 521 201 L 522 201 L 522 201 L 522 200 L 522 200 L 523 200 L 523 199 L 523 199 L 524 199 L 525 199 L 526 198 L 526 198 L 527 198 L 527 197 L 529 197 L 529 197 L 529 196 L 530 196 L 531 196 L 533 196 L 538 195 L 538 195 L 538 195 L 538 194 L 540 194 L 542 194 L 542 193 L 542 193 L 542 193 L 543 193 L 544 192 L 547 192 L 547 192 L 547 191 L 547 191 L 549 191 L 549 190 L 549 190 L 550 190 L 552 190 L 555 189 L 555 189 L 558 189 L 558 188 L 559 188 L 562 188 L 563 187 L 565 187 L 566 187 L 568 187 L 569 186 L 569 186 L 569 186 L 569 185 L 569 185 L 569 185 L 570 184 L 570 184 L 571 184 L 571 184 L 571 183 L 571 183 L 572 183 L 573 182 L 574 182 L 578 182 L 578 181 L 582 181 L 584 181 L 584 181 L 585 180 L 585 180 L 588 180 L 588 179 L 588 179 L 589 179 L 589 178 L 589 178 L 589 178 L 589 178 L 590 177 L 590 177 L 590 177 L 590 176 L 590 176 L 591 176 L 591 175 L 592 175 L 593 175 L 593 175 L 594 174 L 594 174 L 595 174 L 595 173 L 595 173 L 596 173 L 598 172 L 599 172 L 599 172 L 599 172 L 599 171 L 600 171 L 600 171 L 600 170 L 601 170 L 602 170 L 605 169 L 607 169 L 608 169 L 609 169 L 612 168 L 615 168 L 615 168 L 618 167 L 621 167 L 621 167 L 621 166 L 625 166 L 626 166 L 627 166 L 627 165 L 628 165 L 635 165 L 635 164 L 636 164 L 636 164 L 636 163 L 637 163 L 638 163 L 638 163 L 638 162 L 639 162 L 639 162 L 639 161 L 640 161 L 640 161 L 640 160 L 640 160 L 640 160 L 641 160 L 641 159 L 642 159 L 643 159 L 644 158 L 644 158 L 644 158 L 645 157 L 645 157 L 646 157 L 647 157 L 647 156 L 647 156 L 648 156 L 648 155 L 649 155 L 650 155 L 651 154 L 651 154 L 651 154 L 652 154 L 652 153 L 653 153 L 653 153 L 653 152 L 653 152 L 654 152 L 654 151 L 655 151 L 655 151 L 656 151 L 656 150 L 656 150 L 657 150 L 657 149 L 657 149 L 658 149 L 658 148 L 658 148 L 659 148 L 659 148 L 659 147 L 660 147 L 660 147 L 660 146 L 660 146 L 660 146 L 660 145 L 661 145 L 661 145 L 661 145 L 661 144 L 661 144 L 663 144 L 664 143 L 666 143 L 666 143 L 666 142 L 666 142 L 667 142 L 668 142 L 669 141 L 669 141 L 671 141 L 673 140 L 673 140 L 675 140 L 675 139 L 675 139 L 676 139 L 676 139 L 677 138 L 677 138 L 677 138 L 677 137 L 677 137 L 677 137 L 677 136 L 678 136 L 678 136 L 678 136 L 678 135 L 678 135 L 679 135 L 679 134 L 679 134 L 680 134 L 681 133 L 682 133 L 682 133 L 682 132 L 683 132 L 683 132 L 684 132 L 687 131 L 687 131 L 687 131 L 687 130 L 687 130 L 689 130 L 691 130 L 691 129 L 693 129 L 693 129 L 693 128 L 693 128 L 694 128 L 698 127 L 700 127 L 703 127 L 704 126 L 705 126 L 705 126 L 706 126 L 707 125 L 707 125 L 707 125 L 707 124 L 708 124 L 708 124 L 709 124 L 710 123 L 712 123 L 712 123 L 712 122 L 712 122 L 712 122 L 712 121 L 712 121 L 712 121 L 712 121 L 712 120 L 712 120 L 712 120 L 712 119 L 712 119 L 712 119 L 712 118 L 712 118 L 713 118 L 713 118 L 713 117 L 713 117 L 713 117 L 713 116 L 713 116 L 714 116 L 714 115 L 714 115 L 715 115 L 715 115 L 715 114 L 715 114 L 715 114 L 715 113 L 716 113 L 717 113 L 719 112 L 719 112 L 719 112 L 721 112 L 721 111 L 721 111 L 722 111 L 723 110 L 724 110 L 725 110 L 725 109 L 725 109 L 725 109 L 725 109 L 725 108 L 725 108 L 727 108 L 728 107 L 728 107 L 731 107 L 732 106 L 734 106 L 736 106 L 737 106 L 738 105 L 738 105 L 738 105 L 738 104 L 738 104 L 739 104 L 739 103 L 740 103 L 740 103 L 740 103 L 741 102 L 741 102 L 741 102 L 741 101 L 741 101 L 741 101 L 741 100 L 742 100 L 742 100 L 742 100 L 743 99 L 744 99 L 744 99 L 744 98 L 745 98 L 745 98 L 746 97 L 746 97 L 746 97 L 746 97 L 747 96 L 747 96 L 748 96 L 752 95 L 752 95 L 753 95 L 756 94 L 757 94 L 758 94 L 760 94 L 761 93 L 761 93 L 764 93 L 769 92 L 769 92 L 771 92 L 772 91 L 774 91 L 774 91 L 775 91 L 776 90 L 777 90 L 778 90 L 778 89 L 780 89 L 781 89 L 781 88 L 782 88 L 782 88 L 783 88 L 783 87 L 783 87 L 787 87 L 787 86 L 788 86 L 789 86 L 789 85 L 790 85 L 791 85 L 792 85 L 792 84 L 792 84 L 792 84 L 793 83 L 794 83 L 794 83 L 795 82 L 796 82 L 796 82 L 796 82 L 797 81 L 798 81 L 798 81 L 798 80 L 799 80 L 799 80 L 799 79 L 799 79 L 799 79 L 800 79 L 800 78 L 802 78 L 803 78 L 804 77 L 804 77 L 807 77 L 808 76 L 809 76 L 810 76 L 812 76 L 814 75 L 816 75 L 817 75 L 818 74 L 819 74 L 820 74 L 822 73 L 824 73 L 824 73 L 824 73 L 824 72 L 824 72 L 825 72 L 826 71 L 827 71 L 827 71 L 828 70 L 828 70 L 828 70 L 834 70 L 835 69 L 836 69 L 838 69 L 839 68 L 840 68 L 840 68 L 841 67 L 841 67 L 841 67 L 842 67 L 843 66 L 843 66 L 844 66 L 844 65 L 844 65 L 845 65 L 845 64 L 846 64 L 847 64 L 850 64 L 850 63 L 855 63 L 855 63 L 855 62 L 857 62 L 857 62 L 858 61 L 858 61 L 858 61 L 861 61 L 862 60 L 864 60 L 864 60 L 864 59 L 864 59 L 866 59 L 867 58 L 869 58 L 869 58 L 869 58 L 869 57 L 870 57 L 870 57 L 870 56 L 871 56 L 872 56 L 872 55 L 873 55 L 874 55 L 875 55 L 875 54 L 875 54 L 876 54 L 876 53 L 877 53 L 880 53 L 884 52 L 884 52 L 887 52 L 888 52 L 891 51 L 891 51 L 892 51 L 892 50 L 893 50 L 894 50 L 895 49 L 896 49 L 897 49 L 898 49 L 901 48 L 906 48 L 906 48 L 906 47 L 906 47 L 907 47 L 908 46 L 909 46 L 909 46 L 917 46 L 920 45 L 920 45 L 921 45 L 923 44 L 925 44 L 927 44 L 928 43 L 928 43 L 929 43 L 931 43 L 936 42 L 936 42 L 937 42" stroke-width="2" class="series" /><path class="series" d="M 58 345 L 60 345 L 73 345 L 73 344 L 73 344 L 73 344 L 73 343 L 73 343 L 73 343 L 73 343 L 74 342 L 74 342 L 74 342 L 74 341 L 74 341 L 74 341 L 74 340 L 74 340 L 74 340 L 75 340 L 75 339 L 75 339 L 76 339 L 77 338 L 77 338 L 77 338 L 77 337 L 78 337 L 79 337 L 80 337 L 80 336 L 81 336 L 85 336 L 85 335 L 85 335 L 85 335 L 86 334 L 88 334 L 89 334 L 90 334 L 91 333 L 95 333 L 96 333 L 101 332 L 103 332 L 106 332 L 109 331 L 111 331 L 123 331 L 123 331 L 123 330 L 125 330 L 125 330 L 125 329 L 125 329 L 125 329 L 125 328 L 125 328 L 125 328 L 125 328 L 125 327 L 125 327 L 125 327 L 126 326 L 126 326 L 126 326 L 126 325 L 126 325 L 126 325 L 126 325 L 126 324 L 126 324 L 126 324 L 126 323 L 126 323 L 126 323 L 126 322 L 126 322 L 126 322 L 126 322 L 126 321 L 126 321 L 126 321 L 126 320 L 126 320 L 126 320 L 126 319 L 126 319 L 126 319 L 126 319 L 126 318 L 126 318 L 126 318 L 126 317 L 126 317 L 126 317 L 126 316 L 126 316 L 126 316 L 126 316 L 127 315 L 127 315 L 127 315 L 127 314 L 127 314 L 128 314 L 128 313 L 128 313 L 128 313 L 128 313 L 128 312 L 128 312 L 128 312 L 128 311 L 128 311 L 128 311 L 128 310 L 128 310 L 128 310 L 128 310 L 128 309 L 128 309 L 128 309 L 129 308 L 129 308 L 129 308 L 129 307 L 132 307 L 132 307 L 132 307 L 133 306 L 133 306 L 135 306 L 137 305 L 138 305 L 139 305 L 140 304 L 141 304 L 142 304 L 142 304 L 144 303 L 144 303 L 145 303 L 146 302 L 146 302 L 147 302 L 147 301 L 147 301 L 147 301 L 148 301 L 149 300 L 149 300 L 150 300 L 150 299 L 150 299 L 151 299 L 152 298 L 153 298 L 155 298 L 155 298 L 156 297 L 157 297 L 157 297 L 157 296 L 158 296 L 163 296 L 164 295 L 165 295 L 169 295 L 169 295 L 169 294 L 170 294 L 170 294 L 170 293 L 172 293 L 173 293 L 173 292 L 179 292 L 180 292 L 181 292 L 183 291 L 184 291 L 184 291 L 185 290 L 189 290 L 194 290 L 199 289 L 200 289 L 200 289 L 200 289 L 200 288 L 201 288 L 208 288 L 211 287 L 212 287 L 214 287 L 215 286 L 215 286 L 223 286 L 223 286 L 224 285 L 224 285 L 225 285 L 227 284 L 228 284 L 229 284 L 230 283 L 232 283 L 237 283 L 237 283 L 237 282 L 238 282 L 238 282 L 238 281 L 240 281 L 245 281 L 254 280 L 258 280 L 260 280 L 260 280 L 262 279 L 262 279 L 262 279 L 262 278 L 262 278 L 262 278 L 262 277 L 263 277 L 263 277 L 263 277 L 263 276 L 263 276 L 263 276 L 263 275 L 263 275 L 265 275 L 265 274 L 265 274 L 265 274 L 267 274 L 267 273 L 267 273 L 267 273 L 267 272 L 267 272 L 267 272 L 268 271 L 268 271 L 268 271 L 269 271 L 269 270 L 269 270 L 269 270 L 270 269 L 270 269 L 270 269 L 270 268 L 271 268 L 271 268 L 272 268 L 273 267 L 273 267 L 274 267 L 276 266 L 276 266 L 277 266 L 277 265 L 277 265 L 277 265 L 277 265 L 278 264 L 279 264 L 280 264 L 280 263 L 281 263 L 282 263 L 284 262 L 284 262 L 286 262 L 286 262 L 286 261 L 287 261 L 287 261 L 291 260 L 291 260 L 292 260 L 294 259 L 296 259 L 299 259 L 300 259 L 300 258 L 301 258 L 301 258 L 301 257 L 303 257 L 305 257 L 306 256 L 306 256 L 308 256 L 308 256 L 308 255 L 308 255 L 309 255 L 309 254 L 309 254 L 310 254 L 310 253 L 310 253 L 311 253 L 314 253 L 319 252 L 319 252 L 319 252 L 321 251 L 323 251 L 324 251 L 324 250 L 325 250 L 326 250 L 326 250 L 326 249 L 326 249 L 326 249 L 326 248 L 326 248 L 327 248 L 327 247 L 327 247 L 329 247 L 329 247 L 329 246 L 329 246 L 329 246 L 330 245 L 330 245 L 330 245 L 330 244 L 330 244 L 330 244 L 330 244 L 330 243 L 333 243 L 335 243 L 335 242 L 336 242 L 344 242 L 345 241 L 348 241 L 350 241 L 357 241 L 359 240 L 359 240 L 359 240 L 359 239 L 359 239 L 359 239 L 359 238 L 360 238 L 361 238 L 368 238 L 369 237 L 372 237 L 377 237 L 380 236 L 383 236 L 385 236 L 389 235 L 389 235 L 396 235 L 404 235 L 404 234 L 409 234 L 409 234 L 414 233 L 414 233 L 417 233 L 417 232 L 417 232 L 417 232 L 420 232 L 421 231 L 423 231 L 426 231 L 426 230 L 427 230 L 428 230 L 430 229 L 433 229 L 433 229 L 436 229 L 440 228 L 440 228 L 440 228 L 442 227 L 442 227 L 443 227 L 446 226 L 448 226 L 450 226 L 452 226 L 452 225 L 456 225 L 457 225 L 459 224 L 462 224 L 463 224 L 466 223 L 467 223 L 467 223 L 468 223 L 469 222 L 470 222 L 471 222 L 472 221 L 475 221 L 475 221 L 476 220 L 476 220 L 482 220 L 482 220 L 483 219 L 483 219 L 483 219 L 484 218 L 484 218 L 484 218 L 485 217 L 486 217 L 486 217 L 487 217 L 488 216 L 489 216 L 489 216 L 490 215 L 490 215 L 490 215 L 490 214 L 490 214 L 491 214 L 491 214 L 491 213 L 492 213 L 492 213 L 493 212 L 494 212 L 494 212 L 495 211 L 495 211 L 496 211 L 497 211 L 497 210 L 497 210 L 498 210 L 500 209 L 500 209 L 500 209 L 500 208 L 502 208 L 502 208 L 502 208 L 503 207 L 503 207 L 503 207 L 503 206 L 503 206 L 504 206 L 505 205 L 507 205 L 508 205 L 509 205 L 509 204 L 511 204 L 512 204 L 513 203 L 514 203 L 517 203 L 519 202 L 521 202 L 521 202 L 521 202 L 521 201 L 522 201 L 522 201 L 522 200 L 522 200 L 523 200 L 523 199 L 523 199 L 524 199 L 525 199 L 526 198 L 526 198 L 527 198 L 527 197 L 529 197 L 529 197 L 529 196 L 530 196 L 531 196 L 533 196 L 538 195 L 538 195 L 538 195 L 538 194 L 540 194 L 542 194 L 542 193 L 542 193 L 542 193 L 543 193 L 544 192 L 547 192 L 547 192 L 547 191 L 547 191 L 549 191 L 549 190 L 549 190 L 550 190 L 552 190 L 555 189 L 555 189 L 558 189 L 558 188 L 559 188 L 562 188 L 563 187 L 565 187 L 566 187 L 568 187 L 569 186 L 569 186 L 569 186 L 569 185 L 569 185 L 569 185 L 570 184 L 570 184 L 571 184 L 571 184 L 571 183 L 571 183 L 572 183 L 573 182 L 574 182 L 578 182 L 578 181 L 582 181 L 584 181 L 584 181 L 585 180 L 585 180 L 588 180 L 588 179 L 588 179 L 589 179 L 589 178 L 589 178 L 589 178 L 589 178 L 590 177 L 590 177 L 590 177 L 590 176 L 590 176 L 591 176 L 591 175 L 592 175 L 593 175 L 593 175 L 594 174 L 594 174 L 595 174 L 595 173 L 595 173 L 596 173 L 598 172 L 599 172 L 599 172 L 599 172 L 599 171 L 600 171 L 600 171 L 600 170 L 601 170 L 602 170 L 605 169 L 607 169 L 608 169 L 609 169 L 612 168 L 615 168 L 615 168 L 618 167 L 621 167 L 621 167 L 621 166 L 625 166 L 626 166 L 627 166 L 627 165 L 628 165 L 635 165 L 635 164 L 636 164 L 636 164 L 636 163 L 637 163 L 638 163 L 638 163 L 638 162 L 639 162 L 639 162 L 639 161 L 640 161 L 640 161 L 640 160 L 640 160 L 640 160 L 641 160 L 641 159 L 642 159 L 643 159 L 644 158 L 644 158 L 644 158 L 645 157 L 645 157 L 646 157 L 647 157 L 647 156 L 647 156 L 648 156 L 648 155 L 649 155 L 650 155 L 651 154 L 651 154 L 651 154 L 652 154 L 652 153 L 653 153 L 653 153 L 653 152 L 653 152 L 654 152 L 654 151 L 655 151 L 655 151 L 656 151 L 656 150 L 656 150 L 657 150 L 657 149 L 657 149 L 658 149 L 658 148 L 658 148 L 659 148 L 659 148 L 659 147 L 660 147 L 660 147 L 660 146 L 660 146 L 660 146 L 660 145 L 661 145 L 661 145 L 661 145 L 661 144 L 661 144 L 663 144 L 664 143 L 666 143 L 666 143 L 666 142 L 666 142 L 667 142 L 668 142 L 669 141 L 669 141 L 671 141 L 673 140 L 673 140 L 675 140 L 675 139 L 675 139 L 676 139 L 676 139 L 677 138 L 677 138 L 677 138 L 677 137 L 677 137 L 677 137 L 677 136 L 678 136 L 678 136 L 678 136 L 678 135 L 678 135 L 679 135 L 679 134 L 679 134 L 680 134 L 681 133 L 682 133 L 682 133 L 682 132 L 683 132 L 683 132 L 684 132 L 687 131 L 687 131 L 687 131 L 687 130 L 687 130 L 689 130 L 691 130 L 691 129 L 693 129 L 693 129 L 693 128 L 693 128 L 694 128 L 698 127 L 700 127 L 703 127 L 704 126 L 705 126 L 705 126 L 706 126 L 707 125 L 707 125 L 707 125 L 707 124 L 708 124 L 708 124 L 709 124 L 710 123 L 712 123 L 712 123 L 712 122 L 712 122 L 712 122 L 712 121 L 712 121 L 712 121 L 712 121 L 712 120 L 712 120 L 712 120 L 712 119 L 712 119 L 712 119 L 712 118 L 712 118 L 713 118 L 713 118 L 713 117 L 713 117 L 713 117 L 713 116 L 713 116 L 714 116 L 714 115 L 714 115 L 715 115 L 715 115 L 715 114 L 715 114 L 715 114 L 715 113 L 716 113 L 717 113 L 719 112 L 719 112 L 719 112 L 721 112 L 721 111 L 721 111 L 722 111 L 723 110 L 724 110 L 725 110 L 725 109 L 725 109 L 725 109 L 725 109 L 725 108 L 725 108 L 727 108 L 728 107 L 728 107 L 731 107 L 732 106 L 734 106 L 736 106 L 737 106 L 738 105 L 738 105 L 738 105 L 738 104 L 738 104 L 739 104 L 739 103 L 740 103 L 740 103 L 740 103 L 741 102 L 741 102 L 741 102 L 741 101 L 741 101 L 741 101 L 741 100 L 742 100 L 742 100 L 742 100 L 743 99 L 744 99 L 744 99 L 744 98 L 745 98 L 745 98 L 746 97 L 746 97 L 746 97 L 746 97 L 747 96 L 747 96 L 748 96 L 752 95 L 752 95 L 753 95 L 756 94 L 757 94 L 758 94 L 760 94 L 761 93 L 761 93 L 764 93 L 769 92 L 769 92 L 771 92 L 772 91 L 774 91 L 774 91 L 775 91 L 776 90 L 777 90 L 778 90 L 778 89 L 780 89 L 781 89 L 781 88 L 782 88 L 782 88 L 783 88 L 783 87 L 783 87 L 787 87 L 787 86 L 788 86 L 789 86 L 789 85 L 790 85 L 791 85 L 792 85 L 792 84 L 792 84 L 792 84 L 793 83 L 794 83 L 794 83 L 795 82 L 796 82 L 796 82 L 796 82 L 797 81 L 798 81 L 798 81 L 798 80 L 799 80 L 799 80 L 799 79 L 799 79 L 799 79 L 800 79 L 800 78 L 802 78 L 803 78 L 804 77 L 804 77 L 807 77 L 808 76 L 809 76 L 810 76 L 812 76 L 814 75 L 816 75 L 817 75 L 818 74 L 819 74 L 820 74 L 822 73 L 824 73 L 824 73 L 824 73 L 824 72 L 824 72 L 825 72 L 826 71 L 827 71 L 827 71 L 828 70 L 828 70 L 828 70 L 834 70 L 835 69 L 836 69 L 838 69 L 839 68 L 840 68 L 840 68 L 841 67 L 841 67 L 841 67 L 842 67 L 843 66 L 843 66 L 844 66 L 844 65 L 844 65 L 845 65 L 845 64 L 846 64 L 847 64 L 850 64 L 850 63 L 855 63 L 855 63 L 855 62 L 857 62 L 857 62 L 858 61 L 858 61 L 858 61 L 861 61 L 862 60 L 864 60 L 864 60 L 864 59 L 864 59 L 866 59 L 867 58 L 869 58 L 869 58 L 869 58 L 869 57 L 870 57 L 870 57 L 870 56 L 871 56 L 872 56 L 872 55 L 873 55 L 874 55 L 875 55 L 875 54 L 875 54 L 876 54 L 876 53 L 877 53 L 880 53 L 884 52 L 884 52 L 887 52 L 888 52 L 891 51 L 891 51 L 892 51 L 892 50 L 893 50 L 894 50 L 895 49 L 896 49 L 897 49 L 898 49 L 901 48 L 906 48 L 906 48 L 906 47 L 906 47 L 907 47 L 908 46 L 909 46 L 909 46 L 917 46 L 920 45 L 920 45 L 921 45 L 923 44 L 925 44 L 927 44 L 928 43 L 928 43 L 929 43 L 931 43 L 936 42 L 936 42 L 937 42" stroke-width="2"></path><path stroke-width="2" d="M 937 346 L 937.000000 15.000000" /><path stroke-width="2" d="M 937 346 L 937.000000 15.000000"></path><path stroke-width="2" d="M 937 346 L 942 346" /><path stroke-width="2" d="M 937 346 L 942 346"></path><text xmlns="http://www.w3.org/2000/svg" x="947" y="352">0</text><path stroke-width="2" d="M 937 307 L 942 307" /><path stroke-width="2" d="M 937 307 L 942 307"></path><text y="313" xmlns="http://www.w3.org/2000/svg" x="947">130</text><path stroke-width="2" d="M 937 271 L 942 271" /><path stroke-width="2" d="M 937 271 L 942 271"></path><text xmlns="http://www.w3.org/2000/svg" x="947" y="277">250</text><path d="M 937 235 L 942 235" stroke-width="2" /><path stroke-width="2" d="M 937 235 L 942 235"></path><text y="241" xmlns="http://www.w3.org/2000/svg" x="947">370</text><path d="M 937 199 L 942 199" stroke-width="2" /><path stroke-width="2" d="M 937 199 L 942 199"></path><text y="205" xmlns="http://www.w3.org/2000/svg" x="947">490</text><path stroke-width="2" d="M 937 160 L 942 160" /><path stroke-width="2" d="M 937 160 L 942 160"></path><text xmlns="http://www.w3.org/2000/svg" x="947" y="166">620</text><path stroke-width="2" d="M 937 124 L 942 124" /><path stroke-width="2" d="M 937 124 L 942 124"></path><text xmlns="http://www.w3.org/2000/svg" x="947" y="130">740</text><path stroke-width="2" d="M 937 88 L 942 88" /><path d="M 937 88 L 942 88" stroke-width="2"></path><text xmlns="http://www.w3.org/2000/svg" x="947" y="94">860</text><path stroke-width="2" d="M 937 52 L 942 52" /><path stroke-width="2" d="M 937 52 L 942 52"></path><text xmlns="http://www.w3.org/2000/svg" x="947" y="58">980</text><path stroke-width="2" d="M 937 16 L 942 16" /><path stroke-width="2" d="M 937 16 L 942 16"></path><text xmlns="http://www.w3.org/2000/svg" x="947" y="22">1100</text><text xmlns="http://www.w3.org/2000/svg" x="987" y="175" transform="rotate(90.00,987,175)">Stargazers</text><path stroke-width="2" d="M 57.000000 346.000000 L 937 346" /><path stroke-width="2" d="M 57.000000 346.000000 L 937 346"></path><path stroke-width="2" d="M 58 346 L 58 351" /><path stroke-width="2" d="M 58 346 L 58 351"></path><text y="368" xmlns="http://www.w3.org/2000/svg" x="25">2023-04-02</text><path stroke-width="2" d="M 156 346 L 156 351" /><path stroke-width="2" d="M 156 346 L 156 351"></path><text x="123" y="368" xmlns="http://www.w3.org/2000/svg">2023-07-05</text><path stroke-width="2" d="M 254 346 L 254 351" /><path stroke-width="2" d="M 254 346 L 254 351"></path><text xmlns="http://www.w3.org/2000/svg" x="221" y="368">2023-10-07</text><path stroke-width="2" d="M 352 346 L 352 351" /><path stroke-width="2" d="M 352 346 L 352 351"></path><text y="368" xmlns="http://www.w3.org/2000/svg" x="319">2024-01-08</text><path stroke-width="2" d="M 449 346 L 449 351" /><path stroke-width="2" d="M 449 346 L 449 351"></path><text xmlns="http://www.w3.org/2000/svg" x="416" y="368">2024-04-11</text><path d="M 547 346 L 547 351" stroke-width="2" /><path stroke-width="2" d="M 547 346 L 547 351"></path><text xmlns="http://www.w3.org/2000/svg" x="514" y="368">2024-07-14</text><path d="M 645 346 L 645 351" stroke-width="2" /><path stroke-width="2" d="M 645 346 L 645 351"></path><text xmlns="http://www.w3.org/2000/svg" x="612" y="368">2024-10-16</text><path stroke-width="2" d="M 742 346 L 742 351" /><path stroke-width="2" d="M 742 346 L 742 351"></path><text xmlns="http://www.w3.org/2000/svg" x="709" y="368">2025-01-18</text><path stroke-width="2" d="M 840 346 L 840 351" /><path stroke-width="2" d="M 840 346 L 840 351"></path><text xmlns="http://www.w3.org/2000/svg" x="807" y="368">2025-04-22</text><path stroke-width="2" d="M 937 346 L 937 351" /><path d="M 937 346 L 937 351" stroke-width="2"></path><text xmlns="http://www.w3.org/2000/svg" x="904" y="368">2025-07-25</text><text xmlns="http://www.w3.org/2000/svg" x="483" y="390">Time</text></svg>