<svg width="1024px" height="400px" xmlns="http://www.w3.org/2000/svg" xmlns:xlink="http://www.w3.org/1999/xlink"><style type="text/css">
path { fill: none; stroke: rgb(51,51,51); }
path.series { stroke: #6b63ff; }
rect.background { fill: rgb(255,255,255); stroke: none; }

text {
	stroke-width: 0;
	stroke: none;
	fill: rgba(51,51,51,1.0);
	font-size: 12.8px;
	font-family: 'Roboto Medium', sans-serif;
}
</style><rect class="background" rx="8" x="0" y="0" width="1024px" height="400px" /><rect width="1024px" height="400px" class="background" rx="8" x="0" y="0"></rect><path stroke-width="2" class="series" d="M 58 345 L 60 345 L 72 345 L 72 344 L 72 344 L 72 344 L 72 344 L 72 343 L 72 343 L 72 343 L 72 342 L 72 342 L 72 342 L 72 342 L 72 341 L 72 341 L 72 341 L 73 341 L 73 340 L 73 340 L 74 340 L 74 339 L 75 339 L 75 339 L 75 339 L 75 338 L 75 338 L 76 338 L 77 338 L 78 337 L 78 337 L 79 337 L 83 336 L 83 336 L 83 336 L 83 336 L 83 335 L 85 335 L 86 335 L 87 335 L 88 334 L 91 334 L 92 334 L 97 333 L 99 333 L 102 333 L 104 333 L 106 332 L 117 332 L 117 332 L 118 331 L 119 331 L 119 331 L 119 331 L 119 330 L 119 330 L 119 330 L 119 330 L 119 329 L 119 329 L 119 329 L 119 328 L 119 328 L 119 328 L 119 328 L 119 327 L 119 327 L 119 327 L 119 327 L 119 326 L 119 326 L 119 326 L 119 325 L 119 325 L 119 325 L 119 325 L 119 324 L 119 324 L 119 324 L 119 324 L 119 323 L 119 323 L 119 323 L 119 322 L 119 322 L 119 322 L 119 322 L 119 321 L 119 321 L 119 321 L 119 320 L 119 320 L 119 320 L 119 320 L 120 319 L 120 319 L 120 319 L 120 319 L 120 318 L 120 318 L 120 318 L 120 317 L 120 317 L 121 317 L 121 317 L 121 316 L 121 316 L 121 316 L 121 316 L 121 315 L 121 315 L 121 315 L 121 314 L 121 314 L 121 314 L 121 314 L 121 313 L 121 313 L 121 313 L 121 313 L 121 312 L 122 312 L 122 312 L 122 311 L 122 311 L 122 311 L 125 311 L 125 310 L 125 310 L 126 310 L 126 309 L 128 309 L 130 309 L 130 309 L 131 308 L 132 308 L 133 308 L 134 308 L 134 307 L 136 307 L 136 307 L 136 306 L 137 306 L 137 306 L 138 306 L 138 305 L 138 305 L 139 305 L 139 305 L 140 304 L 140 304 L 141 304 L 141 303 L 141 303 L 142 303 L 143 303 L 144 302 L 145 302 L 146 302 L 147 302 L 147 301 L 147 301 L 148 301 L 149 300 L 153 300 L 153 300 L 154 300 L 159 299 L 159 299 L 159 299 L 159 298 L 159 298 L 160 298 L 161 298 L 162 297 L 162 297 L 167 297 L 168 297 L 169 296 L 171 296 L 172 296 L 172 295 L 173 295 L 177 295 L 181 295 L 185 294 L 186 294 L 186 294 L 186 294 L 186 293 L 194 293 L 197 293 L 197 292 L 199 292 L 200 292 L 200 292 L 207 291 L 207 291 L 207 291 L 208 291 L 209 290 L 211 290 L 213 290 L 214 289 L 215 289 L 219 289 L 219 289 L 220 288 L 220 288 L 220 288 L 221 287 L 223 287 L 227 287 L 235 287 L 239 286 L 240 286 L 241 286 L 243 286 L 243 285 L 243 285 L 243 285 L 243 284 L 243 284 L 243 284 L 243 284 L 243 283 L 243 283 L 243 283 L 243 283 L 243 282 L 243 282 L 243 282 L 245 281 L 245 281 L 245 281 L 245 281 L 246 280 L 246 280 L 246 280 L 246 280 L 246 279 L 246 279 L 247 279 L 247 278 L 248 278 L 248 278 L 248 278 L 248 277 L 248 277 L 248 277 L 249 276 L 249 276 L 249 276 L 250 276 L 250 275 L 250 275 L 251 275 L 252 275 L 252 274 L 253 274 L 255 274 L 255 273 L 255 273 L 256 273 L 256 273 L 256 272 L 256 272 L 257 272 L 257 272 L 259 271 L 259 271 L 259 271 L 260 270 L 262 270 L 262 270 L 263 270 L 264 269 L 264 269 L 265 269 L 265 269 L 268 268 L 269 268 L 269 268 L 271 267 L 273 267 L 275 267 L 276 267 L 276 266 L 277 266 L 277 266 L 277 265 L 279 265 L 281 265 L 282 265 L 282 264 L 284 264 L 284 264 L 284 264 L 284 263 L 285 263 L 285 263 L 285 262 L 286 262 L 286 262 L 286 262 L 286 261 L 290 261 L 293 261 L 293 261 L 293 260 L 296 260 L 297 260 L 298 259 L 298 259 L 299 259 L 300 259 L 300 258 L 300 258 L 300 258 L 300 258 L 300 257 L 300 257 L 300 257 L 300 256 L 301 256 L 303 256 L 303 256 L 303 255 L 303 255 L 303 255 L 303 254 L 303 254 L 303 254 L 303 254 L 303 253 L 303 253 L 304 253 L 304 253 L 306 252 L 308 252 L 308 252 L 309 251 L 317 251 L 317 251 L 320 251 L 322 250 L 328 250 L 329 250 L 330 250 L 330 249 L 330 249 L 330 249 L 330 248 L 330 248 L 331 248 L 332 248 L 337 247 L 339 247 L 341 247 L 346 247 L 349 246 L 351 246 L 353 246 L 356 245 L 357 245 L 363 245 L 370 245 L 370 244 L 375 244 L 375 244 L 379 243 L 380 243 L 382 243 L 382 243 L 382 242 L 382 242 L 384 242 L 385 242 L 387 241 L 390 241 L 390 241 L 391 240 L 392 240 L 394 240 L 397 240 L 397 239 L 400 239 L 402 239 L 403 239 L 403 238 L 404 238 L 405 238 L 406 237 L 408 237 L 410 237 L 412 237 L 413 236 L 414 236 L 417 236 L 418 236 L 420 235 L 423 235 L 423 235 L 427 234 L 427 234 L 427 234 L 428 234 L 429 233 L 430 233 L 431 233 L 432 232 L 434 232 L 435 232 L 435 232 L 435 231 L 441 231 L 441 231 L 441 231 L 442 230 L 442 230 L 442 230 L 442 229 L 443 229 L 443 229 L 444 229 L 445 228 L 446 228 L 446 228 L 447 228 L 447 227 L 448 227 L 448 227 L 448 226 L 448 226 L 448 226 L 449 226 L 449 225 L 449 225 L 449 225 L 450 225 L 451 224 L 451 224 L 451 224 L 452 223 L 452 223 L 453 223 L 454 223 L 454 222 L 455 222 L 456 222 L 457 221 L 457 221 L 457 221 L 459 221 L 459 220 L 459 220 L 459 220 L 459 220 L 460 219 L 460 219 L 460 219 L 460 218 L 461 218 L 463 218 L 464 218 L 465 217 L 465 217 L 467 217 L 468 217 L 469 216 L 470 216 L 472 216 L 474 215 L 476 215 L 476 215 L 476 215 L 476 214 L 477 214 L 477 214 L 477 214 L 477 213 L 478 213 L 478 213 L 478 212 L 478 212 L 480 212 L 480 212 L 480 211 L 481 211 L 481 211 L 483 210 L 483 210 L 483 210 L 484 210 L 485 209 L 487 209 L 491 209 L 491 209 L 491 208 L 492 208 L 493 208 L 495 207 L 495 207 L 495 207 L 495 207 L 496 206 L 497 206 L 499 206 L 500 206 L 500 205 L 500 205 L 501 205 L 501 204 L 501 204 L 502 204 L 504 204 L 506 203 L 506 203 L 509 203 L 510 203 L 510 202 L 513 202 L 514 202 L 516 201 L 517 201 L 518 201 L 519 201 L 519 200 L 519 200 L 520 200 L 520 199 L 520 199 L 520 199 L 521 199 L 521 198 L 521 198 L 521 198 L 521 198 L 522 197 L 523 197 L 523 197 L 527 196 L 527 196 L 531 196 L 533 196 L 533 195 L 533 195 L 534 195 L 536 195 L 537 194 L 537 194 L 537 194 L 537 193 L 537 193 L 538 193 L 538 193 L 538 192 L 538 192 L 538 192 L 538 192 L 539 191 L 539 191 L 539 191 L 540 190 L 541 190 L 541 190 L 542 190 L 542 189 L 542 189 L 542 189 L 543 188 L 544 188 L 546 188 L 546 188 L 546 187 L 546 187 L 546 187 L 547 187 L 547 186 L 547 186 L 548 186 L 549 185 L 551 185 L 554 185 L 554 185 L 556 184 L 558 184 L 561 184 L 561 184 L 563 183 L 566 183 L 566 183 L 566 182 L 570 182 L 571 182 L 572 182 L 572 181 L 572 181 L 579 181 L 579 181 L 580 180 L 580 180 L 580 180 L 580 179 L 581 179 L 582 179 L 582 179 L 582 178 L 583 178 L 583 178 L 583 177 L 583 177 L 583 177 L 584 177 L 584 176 L 584 176 L 584 176 L 585 176 L 586 175 L 587 175 L 587 175 L 587 174 L 588 174 L 588 174 L 589 174 L 589 173 L 590 173 L 590 173 L 590 173 L 590 172 L 592 172 L 592 172 L 593 171 L 593 171 L 594 171 L 594 171 L 594 170 L 595 170 L 595 170 L 595 170 L 595 169 L 596 169 L 596 169 L 597 168 L 597 168 L 598 168 L 598 168 L 598 167 L 598 167 L 598 167 L 599 166 L 599 166 L 599 166 L 599 166 L 600 165 L 600 165 L 601 165 L 601 165 L 601 164 L 601 164 L 601 164 L 601 163 L 602 163 L 602 163 L 602 163 L 602 162 L 602 162 L 602 162 L 604 162 L 605 161 L 607 161 L 607 161 L 607 160 L 607 160 L 608 160 L 609 160 L 609 159 L 610 159 L 612 159 L 613 159 L 614 158 L 615 158 L 615 158 L 615 157 L 616 157 L 616 157 L 616 157 L 617 156 L 617 156 L 617 156 L 617 155 L 617 155 L 617 155 L 617 155 L 617 154 L 617 154 L 618 154 L 618 154 L 618 153 L 618 153 L 619 153 L 619 152 L 621 152 L 621 152 L 621 152 L 621 151 L 622 151 L 622 151 L 623 151 L 626 150 L 626 150 L 626 150 L 626 149 L 626 149 L 628 149 L 629 149 L 630 148 L 631 148 L 631 148 L 631 148 L 631 147 L 632 147 L 636 147 L 638 146 L 640 146 L 641 146 L 642 146 L 642 145 L 643 145 L 643 145 L 644 144 L 644 144 L 644 144 L 645 144 L 645 143 L 645 143 L 646 143 L 648 143 L 648 142 L 648 142 L 648 142 L 648 141 L 648 141 L 648 141 L 648 141 L 648 140 L 648 140 L 648 140 L 648 140 L 648 139 L 648 139 L 648 139 L 648 138 L 648 138 L 649 138 L 649 138 L 649 137 L 649 137 L 649 137 L 649 137 L 649 136 L 650 136 L 650 136 L 650 135 L 651 135 L 651 135 L 651 135 L 651 134 L 651 134 L 651 134 L 652 133 L 653 133 L 655 133 L 655 133 L 655 132 L 656 132 L 656 132 L 656 132 L 657 131 L 659 131 L 660 131 L 660 130 L 660 130 L 660 130 L 660 130 L 660 129 L 660 129 L 660 129 L 662 129 L 662 128 L 662 128 L 665 128 L 667 127 L 668 127 L 670 127 L 671 127 L 671 126 L 671 126 L 671 126 L 672 126 L 672 125 L 672 125 L 673 125 L 673 124 L 674 124 L 674 124 L 674 124 L 674 123 L 674 123 L 675 123 L 675 122 L 675 122 L 675 122 L 675 122 L 675 121 L 676 121 L 677 121 L 677 121 L 677 120 L 678 120 L 678 120 L 678 119 L 679 119 L 679 119 L 679 119 L 679 118 L 680 118 L 680 118 L 681 118 L 684 117 L 686 117 L 688 117 L 689 116 L 690 116 L 692 116 L 692 116 L 693 115 L 695 115 L 699 115 L 700 115 L 701 114 L 703 114 L 704 114 L 705 113 L 705 113 L 706 113 L 707 113 L 708 112 L 708 112 L 709 112 L 710 111 L 711 111 L 711 111 L 712 111 L 712 110 L 712 110 L 713 110 L 716 110 L 716 109 L 717 109 L 718 109 L 718 108 L 719 108 L 720 108 L 720 108 L 720 107 L 721 107 L 721 107 L 721 107 L 722 106 L 722 106 L 723 106 L 724 105 L 724 105 L 724 105 L 725 105 L 726 104 L 726 104 L 726 104 L 727 104 L 727 103 L 727 103 L 727 103 L 727 102 L 727 102 L 728 102 L 730 102 L 731 101 L 732 101 L 734 101 L 735 100 L 736 100 L 737 100 L 739 100 L 740 99 L 742 99 L 743 99 L 744 99 L 745 98 L 746 98 L 748 98 L 749 97 L 749 97 L 750 97 L 750 97 L 750 96 L 750 96 L 751 96 L 752 96 L 753 95 L 753 95 L 753 95 L 753 94 L 759 94 L 759 94 L 760 94 L 762 93 L 763 93 L 764 93 L 764 92 L 765 92 L 765 92 L 765 92 L 766 91 L 766 91 L 767 91 L 767 91 L 768 90 L 768 90 L 768 90 L 769 89 L 770 89 L 773 89 L 773 89 L 777 88 L 778 88 L 778 88 L 779 88 L 780 87 L 780 87 L 780 87 L 780 86 L 783 86 L 784 86 L 785 86 L 785 85 L 786 85 L 786 85 L 787 85 L 788 84 L 790 84 L 790 84 L 790 83 L 790 83 L 791 83 L 791 83 L 791 82 L 792 82 L 793 82 L 793 82 L 794 81 L 795 81 L 796 81 L 796 80 L 796 80 L 796 80 L 796 80 L 797 79 L 800 79 L 803 79 L 803 78 L 807 78 L 807 78 L 810 78 L 810 77 L 811 77 L 811 77 L 812 77 L 812 76 L 814 76 L 816 76 L 816 75 L 819 75 L 824 75 L 824 75 L 824 74 L 824 74 L 824 74 L 826 74 L 826 73 L 826 73 L 834 73 L 836 72 L 836 72 L 837 72 L 839 72 L 841 71 L 843 71 L 844 71 L 844 71 L 845 70 L 846 70 L 850 70 L 851 69 L 852 69 L 853 69 L 855 69 L 856 68 L 856 68 L 856 68 L 856 67 L 856 67 L 857 67 L 857 67 L 859 66 L 861 66 L 861 66 L 861 66 L 862 65 L 864 65 L 867 65 L 869 64 L 869 64 L 871 64 L 871 64 L 871 63 L 871 63 L 871 63 L 872 63 L 872 62 L 874 62 L 875 62 L 875 61 L 875 61 L 876 61 L 876 61 L 876 60 L 876 60 L 876 60 L 876 60 L 877 59 L 877 59 L 877 59 L 877 58 L 878 58 L 878 58 L 878 58 L 878 57 L 879 57 L 879 57 L 880 56 L 885 56 L 885 56 L 887 56 L 887 55 L 887 55 L 887 55 L 887 55 L 887 54 L 887 54 L 887 54 L 887 53 L 888 53 L 888 53 L 888 53 L 888 52 L 888 52 L 888 52 L 888 52 L 888 51 L 888 51 L 888 51 L 889 50 L 889 50 L 889 50 L 890 50 L 890 49 L 892 49 L 893 49 L 893 49 L 894 48 L 894 48 L 894 48 L 896 47 L 896 47 L 896 47 L 898 47 L 899 46 L 900 46 L 900 46 L 901 45 L 902 45 L 902 45 L 904 45 L 904 44 L 905 44 L 906 44 L 907 44 L 908 43 L 908 43 L 909 43 L 909 42 L 909 42 L 911 42 L 911 42 L 912 41 L 914 41 L 915 41 L 918 41 L 918 40 L 919 40 L 923 40 L 923 39 L 924 39 L 924 39 L 924 39 L 925 38 L 925 38 L 926 38 L 927 38 L 928 37 L 928 37 L 928 37 L 929 36 L 929 36 L 930 36 L 934 36 L 934 35 L 935 35 L 935 35 L 937 34 L 937 34" /><path stroke-width="2" class="series" d="M 58 345 L 60 345 L 72 345 L 72 344 L 72 344 L 72 344 L 72 344 L 72 343 L 72 343 L 72 343 L 72 342 L 72 342 L 72 342 L 72 342 L 72 341 L 72 341 L 72 341 L 73 341 L 73 340 L 73 340 L 74 340 L 74 339 L 75 339 L 75 339 L 75 339 L 75 338 L 75 338 L 76 338 L 77 338 L 78 337 L 78 337 L 79 337 L 83 336 L 83 336 L 83 336 L 83 336 L 83 335 L 85 335 L 86 335 L 87 335 L 88 334 L 91 334 L 92 334 L 97 333 L 99 333 L 102 333 L 104 333 L 106 332 L 117 332 L 117 332 L 118 331 L 119 331 L 119 331 L 119 331 L 119 330 L 119 330 L 119 330 L 119 330 L 119 329 L 119 329 L 119 329 L 119 328 L 119 328 L 119 328 L 119 328 L 119 327 L 119 327 L 119 327 L 119 327 L 119 326 L 119 326 L 119 326 L 119 325 L 119 325 L 119 325 L 119 325 L 119 324 L 119 324 L 119 324 L 119 324 L 119 323 L 119 323 L 119 323 L 119 322 L 119 322 L 119 322 L 119 322 L 119 321 L 119 321 L 119 321 L 119 320 L 119 320 L 119 320 L 119 320 L 120 319 L 120 319 L 120 319 L 120 319 L 120 318 L 120 318 L 120 318 L 120 317 L 120 317 L 121 317 L 121 317 L 121 316 L 121 316 L 121 316 L 121 316 L 121 315 L 121 315 L 121 315 L 121 314 L 121 314 L 121 314 L 121 314 L 121 313 L 121 313 L 121 313 L 121 313 L 121 312 L 122 312 L 122 312 L 122 311 L 122 311 L 122 311 L 125 311 L 125 310 L 125 310 L 126 310 L 126 309 L 128 309 L 130 309 L 130 309 L 131 308 L 132 308 L 133 308 L 134 308 L 134 307 L 136 307 L 136 307 L 136 306 L 137 306 L 137 306 L 138 306 L 138 305 L 138 305 L 139 305 L 139 305 L 140 304 L 140 304 L 141 304 L 141 303 L 141 303 L 142 303 L 143 303 L 144 302 L 145 302 L 146 302 L 147 302 L 147 301 L 147 301 L 148 301 L 149 300 L 153 300 L 153 300 L 154 300 L 159 299 L 159 299 L 159 299 L 159 298 L 159 298 L 160 298 L 161 298 L 162 297 L 162 297 L 167 297 L 168 297 L 169 296 L 171 296 L 172 296 L 172 295 L 173 295 L 177 295 L 181 295 L 185 294 L 186 294 L 186 294 L 186 294 L 186 293 L 194 293 L 197 293 L 197 292 L 199 292 L 200 292 L 200 292 L 207 291 L 207 291 L 207 291 L 208 291 L 209 290 L 211 290 L 213 290 L 214 289 L 215 289 L 219 289 L 219 289 L 220 288 L 220 288 L 220 288 L 221 287 L 223 287 L 227 287 L 235 287 L 239 286 L 240 286 L 241 286 L 243 286 L 243 285 L 243 285 L 243 285 L 243 284 L 243 284 L 243 284 L 243 284 L 243 283 L 243 283 L 243 283 L 243 283 L 243 282 L 243 282 L 243 282 L 245 281 L 245 281 L 245 281 L 245 281 L 246 280 L 246 280 L 246 280 L 246 280 L 246 279 L 246 279 L 247 279 L 247 278 L 248 278 L 248 278 L 248 278 L 248 277 L 248 277 L 248 277 L 249 276 L 249 276 L 249 276 L 250 276 L 250 275 L 250 275 L 251 275 L 252 275 L 252 274 L 253 274 L 255 274 L 255 273 L 255 273 L 256 273 L 256 273 L 256 272 L 256 272 L 257 272 L 257 272 L 259 271 L 259 271 L 259 271 L 260 270 L 262 270 L 262 270 L 263 270 L 264 269 L 264 269 L 265 269 L 265 269 L 268 268 L 269 268 L 269 268 L 271 267 L 273 267 L 275 267 L 276 267 L 276 266 L 277 266 L 277 266 L 277 265 L 279 265 L 281 265 L 282 265 L 282 264 L 284 264 L 284 264 L 284 264 L 284 263 L 285 263 L 285 263 L 285 262 L 286 262 L 286 262 L 286 262 L 286 261 L 290 261 L 293 261 L 293 261 L 293 260 L 296 260 L 297 260 L 298 259 L 298 259 L 299 259 L 300 259 L 300 258 L 300 258 L 300 258 L 300 258 L 300 257 L 300 257 L 300 257 L 300 256 L 301 256 L 303 256 L 303 256 L 303 255 L 303 255 L 303 255 L 303 254 L 303 254 L 303 254 L 303 254 L 303 253 L 303 253 L 304 253 L 304 253 L 306 252 L 308 252 L 308 252 L 309 251 L 317 251 L 317 251 L 320 251 L 322 250 L 328 250 L 329 250 L 330 250 L 330 249 L 330 249 L 330 249 L 330 248 L 330 248 L 331 248 L 332 248 L 337 247 L 339 247 L 341 247 L 346 247 L 349 246 L 351 246 L 353 246 L 356 245 L 357 245 L 363 245 L 370 245 L 370 244 L 375 244 L 375 244 L 379 243 L 380 243 L 382 243 L 382 243 L 382 242 L 382 242 L 384 242 L 385 242 L 387 241 L 390 241 L 390 241 L 391 240 L 392 240 L 394 240 L 397 240 L 397 239 L 400 239 L 402 239 L 403 239 L 403 238 L 404 238 L 405 238 L 406 237 L 408 237 L 410 237 L 412 237 L 413 236 L 414 236 L 417 236 L 418 236 L 420 235 L 423 235 L 423 235 L 427 234 L 427 234 L 427 234 L 428 234 L 429 233 L 430 233 L 431 233 L 432 232 L 434 232 L 435 232 L 435 232 L 435 231 L 441 231 L 441 231 L 441 231 L 442 230 L 442 230 L 442 230 L 442 229 L 443 229 L 443 229 L 444 229 L 445 228 L 446 228 L 446 228 L 447 228 L 447 227 L 448 227 L 448 227 L 448 226 L 448 226 L 448 226 L 449 226 L 449 225 L 449 225 L 449 225 L 450 225 L 451 224 L 451 224 L 451 224 L 452 223 L 452 223 L 453 223 L 454 223 L 454 222 L 455 222 L 456 222 L 457 221 L 457 221 L 457 221 L 459 221 L 459 220 L 459 220 L 459 220 L 459 220 L 460 219 L 460 219 L 460 219 L 460 218 L 461 218 L 463 218 L 464 218 L 465 217 L 465 217 L 467 217 L 468 217 L 469 216 L 470 216 L 472 216 L 474 215 L 476 215 L 476 215 L 476 215 L 476 214 L 477 214 L 477 214 L 477 214 L 477 213 L 478 213 L 478 213 L 478 212 L 478 212 L 480 212 L 480 212 L 480 211 L 481 211 L 481 211 L 483 210 L 483 210 L 483 210 L 484 210 L 485 209 L 487 209 L 491 209 L 491 209 L 491 208 L 492 208 L 493 208 L 495 207 L 495 207 L 495 207 L 495 207 L 496 206 L 497 206 L 499 206 L 500 206 L 500 205 L 500 205 L 501 205 L 501 204 L 501 204 L 502 204 L 504 204 L 506 203 L 506 203 L 509 203 L 510 203 L 510 202 L 513 202 L 514 202 L 516 201 L 517 201 L 518 201 L 519 201 L 519 200 L 519 200 L 520 200 L 520 199 L 520 199 L 520 199 L 521 199 L 521 198 L 521 198 L 521 198 L 521 198 L 522 197 L 523 197 L 523 197 L 527 196 L 527 196 L 531 196 L 533 196 L 533 195 L 533 195 L 534 195 L 536 195 L 537 194 L 537 194 L 537 194 L 537 193 L 537 193 L 538 193 L 538 193 L 538 192 L 538 192 L 538 192 L 538 192 L 539 191 L 539 191 L 539 191 L 540 190 L 541 190 L 541 190 L 542 190 L 542 189 L 542 189 L 542 189 L 543 188 L 544 188 L 546 188 L 546 188 L 546 187 L 546 187 L 546 187 L 547 187 L 547 186 L 547 186 L 548 186 L 549 185 L 551 185 L 554 185 L 554 185 L 556 184 L 558 184 L 561 184 L 561 184 L 563 183 L 566 183 L 566 183 L 566 182 L 570 182 L 571 182 L 572 182 L 572 181 L 572 181 L 579 181 L 579 181 L 580 180 L 580 180 L 580 180 L 580 179 L 581 179 L 582 179 L 582 179 L 582 178 L 583 178 L 583 178 L 583 177 L 583 177 L 583 177 L 584 177 L 584 176 L 584 176 L 584 176 L 585 176 L 586 175 L 587 175 L 587 175 L 587 174 L 588 174 L 588 174 L 589 174 L 589 173 L 590 173 L 590 173 L 590 173 L 590 172 L 592 172 L 592 172 L 593 171 L 593 171 L 594 171 L 594 171 L 594 170 L 595 170 L 595 170 L 595 170 L 595 169 L 596 169 L 596 169 L 597 168 L 597 168 L 598 168 L 598 168 L 598 167 L 598 167 L 598 167 L 599 166 L 599 166 L 599 166 L 599 166 L 600 165 L 600 165 L 601 165 L 601 165 L 601 164 L 601 164 L 601 164 L 601 163 L 602 163 L 602 163 L 602 163 L 602 162 L 602 162 L 602 162 L 604 162 L 605 161 L 607 161 L 607 161 L 607 160 L 607 160 L 608 160 L 609 160 L 609 159 L 610 159 L 612 159 L 613 159 L 614 158 L 615 158 L 615 158 L 615 157 L 616 157 L 616 157 L 616 157 L 617 156 L 617 156 L 617 156 L 617 155 L 617 155 L 617 155 L 617 155 L 617 154 L 617 154 L 618 154 L 618 154 L 618 153 L 618 153 L 619 153 L 619 152 L 621 152 L 621 152 L 621 152 L 621 151 L 622 151 L 622 151 L 623 151 L 626 150 L 626 150 L 626 150 L 626 149 L 626 149 L 628 149 L 629 149 L 630 148 L 631 148 L 631 148 L 631 148 L 631 147 L 632 147 L 636 147 L 638 146 L 640 146 L 641 146 L 642 146 L 642 145 L 643 145 L 643 145 L 644 144 L 644 144 L 644 144 L 645 144 L 645 143 L 645 143 L 646 143 L 648 143 L 648 142 L 648 142 L 648 142 L 648 141 L 648 141 L 648 141 L 648 141 L 648 140 L 648 140 L 648 140 L 648 140 L 648 139 L 648 139 L 648 139 L 648 138 L 648 138 L 649 138 L 649 138 L 649 137 L 649 137 L 649 137 L 649 137 L 649 136 L 650 136 L 650 136 L 650 135 L 651 135 L 651 135 L 651 135 L 651 134 L 651 134 L 651 134 L 652 133 L 653 133 L 655 133 L 655 133 L 655 132 L 656 132 L 656 132 L 656 132 L 657 131 L 659 131 L 660 131 L 660 130 L 660 130 L 660 130 L 660 130 L 660 129 L 660 129 L 660 129 L 662 129 L 662 128 L 662 128 L 665 128 L 667 127 L 668 127 L 670 127 L 671 127 L 671 126 L 671 126 L 671 126 L 672 126 L 672 125 L 672 125 L 673 125 L 673 124 L 674 124 L 674 124 L 674 124 L 674 123 L 674 123 L 675 123 L 675 122 L 675 122 L 675 122 L 675 122 L 675 121 L 676 121 L 677 121 L 677 121 L 677 120 L 678 120 L 678 120 L 678 119 L 679 119 L 679 119 L 679 119 L 679 118 L 680 118 L 680 118 L 681 118 L 684 117 L 686 117 L 688 117 L 689 116 L 690 116 L 692 116 L 692 116 L 693 115 L 695 115 L 699 115 L 700 115 L 701 114 L 703 114 L 704 114 L 705 113 L 705 113 L 706 113 L 707 113 L 708 112 L 708 112 L 709 112 L 710 111 L 711 111 L 711 111 L 712 111 L 712 110 L 712 110 L 713 110 L 716 110 L 716 109 L 717 109 L 718 109 L 718 108 L 719 108 L 720 108 L 720 108 L 720 107 L 721 107 L 721 107 L 721 107 L 722 106 L 722 106 L 723 106 L 724 105 L 724 105 L 724 105 L 725 105 L 726 104 L 726 104 L 726 104 L 727 104 L 727 103 L 727 103 L 727 103 L 727 102 L 727 102 L 728 102 L 730 102 L 731 101 L 732 101 L 734 101 L 735 100 L 736 100 L 737 100 L 739 100 L 740 99 L 742 99 L 743 99 L 744 99 L 745 98 L 746 98 L 748 98 L 749 97 L 749 97 L 750 97 L 750 97 L 750 96 L 750 96 L 751 96 L 752 96 L 753 95 L 753 95 L 753 95 L 753 94 L 759 94 L 759 94 L 760 94 L 762 93 L 763 93 L 764 93 L 764 92 L 765 92 L 765 92 L 765 92 L 766 91 L 766 91 L 767 91 L 767 91 L 768 90 L 768 90 L 768 90 L 769 89 L 770 89 L 773 89 L 773 89 L 777 88 L 778 88 L 778 88 L 779 88 L 780 87 L 780 87 L 780 87 L 780 86 L 783 86 L 784 86 L 785 86 L 785 85 L 786 85 L 786 85 L 787 85 L 788 84 L 790 84 L 790 84 L 790 83 L 790 83 L 791 83 L 791 83 L 791 82 L 792 82 L 793 82 L 793 82 L 794 81 L 795 81 L 796 81 L 796 80 L 796 80 L 796 80 L 796 80 L 797 79 L 800 79 L 803 79 L 803 78 L 807 78 L 807 78 L 810 78 L 810 77 L 811 77 L 811 77 L 812 77 L 812 76 L 814 76 L 816 76 L 816 75 L 819 75 L 824 75 L 824 75 L 824 74 L 824 74 L 824 74 L 826 74 L 826 73 L 826 73 L 834 73 L 836 72 L 836 72 L 837 72 L 839 72 L 841 71 L 843 71 L 844 71 L 844 71 L 845 70 L 846 70 L 850 70 L 851 69 L 852 69 L 853 69 L 855 69 L 856 68 L 856 68 L 856 68 L 856 67 L 856 67 L 857 67 L 857 67 L 859 66 L 861 66 L 861 66 L 861 66 L 862 65 L 864 65 L 867 65 L 869 64 L 869 64 L 871 64 L 871 64 L 871 63 L 871 63 L 871 63 L 872 63 L 872 62 L 874 62 L 875 62 L 875 61 L 875 61 L 876 61 L 876 61 L 876 60 L 876 60 L 876 60 L 876 60 L 877 59 L 877 59 L 877 59 L 877 58 L 878 58 L 878 58 L 878 58 L 878 57 L 879 57 L 879 57 L 880 56 L 885 56 L 885 56 L 887 56 L 887 55 L 887 55 L 887 55 L 887 55 L 887 54 L 887 54 L 887 54 L 887 53 L 888 53 L 888 53 L 888 53 L 888 52 L 888 52 L 888 52 L 888 52 L 888 51 L 888 51 L 888 51 L 889 50 L 889 50 L 889 50 L 890 50 L 890 49 L 892 49 L 893 49 L 893 49 L 894 48 L 894 48 L 894 48 L 896 47 L 896 47 L 896 47 L 898 47 L 899 46 L 900 46 L 900 46 L 901 45 L 902 45 L 902 45 L 904 45 L 904 44 L 905 44 L 906 44 L 907 44 L 908 43 L 908 43 L 909 43 L 909 42 L 909 42 L 911 42 L 911 42 L 912 41 L 914 41 L 915 41 L 918 41 L 918 40 L 919 40 L 923 40 L 923 39 L 924 39 L 924 39 L 924 39 L 925 38 L 925 38 L 926 38 L 927 38 L 928 37 L 928 37 L 928 37 L 929 36 L 929 36 L 930 36 L 934 36 L 934 35 L 935 35 L 935 35 L 937 34 L 937 34"></path><path stroke-width="2" d="M 937 346 L 937.000000 15.000000" /><path stroke-width="2" d="M 937 346 L 937.000000 15.000000"></path><path stroke-width="2" d="M 937 346 L 942 346" /><path stroke-width="2" d="M 937 346 L 942 346"></path><text x="947" y="352" xmlns="http://www.w3.org/2000/svg">0</text><path stroke-width="2" d="M 937 307 L 942 307" /><path stroke-width="2" d="M 937 307 L 942 307"></path><text x="947" y="313" xmlns="http://www.w3.org/2000/svg">140</text><path stroke-width="2" d="M 937 271 L 942 271" /><path stroke-width="2" d="M 937 271 L 942 271"></path><text xmlns="http://www.w3.org/2000/svg" x="947" y="277">270</text><path stroke-width="2" d="M 937 236 L 942 236" /><path stroke-width="2" d="M 937 236 L 942 236"></path><text xmlns="http://www.w3.org/2000/svg" x="947" y="242">400</text><path stroke-width="2" d="M 937 197 L 942 197" /><path stroke-width="2" d="M 937 197 L 942 197"></path><text xmlns="http://www.w3.org/2000/svg" x="947" y="203">540</text><path stroke-width="2" d="M 937 161 L 942 161" /><path d="M 937 161 L 942 161" stroke-width="2"></path><text x="947" y="167" xmlns="http://www.w3.org/2000/svg">670</text><path stroke-width="2" d="M 937 126 L 942 126" /><path stroke-width="2" d="M 937 126 L 942 126"></path><text xmlns="http://www.w3.org/2000/svg" x="947" y="132">800</text><path stroke-width="2" d="M 937 87 L 942 87" /><path stroke-width="2" d="M 937 87 L 942 87"></path><text xmlns="http://www.w3.org/2000/svg" x="947" y="93">940</text><path stroke-width="2" d="M 937 51 L 942 51" /><path stroke-width="2" d="M 937 51 L 942 51"></path><text xmlns="http://www.w3.org/2000/svg" x="947" y="57">1070</text><path stroke-width="2" d="M 937 16 L 942 16" /><path stroke-width="2" d="M 937 16 L 942 16"></path><text y="22" xmlns="http://www.w3.org/2000/svg" x="947">1200</text><text x="987" y="175" transform="rotate(90.00,987,175)" xmlns="http://www.w3.org/2000/svg">Stargazers</text><path stroke-width="2" d="M 57.000000 346.000000 L 937 346" /><path stroke-width="2" d="M 57.000000 346.000000 L 937 346"></path><path stroke-width="2" d="M 58 346 L 58 351" /><path stroke-width="2" d="M 58 346 L 58 351"></path><text xmlns="http://www.w3.org/2000/svg" x="25" y="368">2023-04-02</text><path d="M 156 346 L 156 351" stroke-width="2" /><path stroke-width="2" d="M 156 346 L 156 351"></path><text xmlns="http://www.w3.org/2000/svg" x="123" y="368">2023-07-15</text><path stroke-width="2" d="M 254 346 L 254 351" /><path d="M 254 346 L 254 351" stroke-width="2"></path><text xmlns="http://www.w3.org/2000/svg" x="221" y="368">2023-10-27</text><path stroke-width="2" d="M 352 346 L 352 351" /><path stroke-width="2" d="M 352 346 L 352 351"></path><text xmlns="http://www.w3.org/2000/svg" x="319" y="368">2024-02-08</text><path stroke-width="2" d="M 449 346 L 449 351" /><path stroke-width="2" d="M 449 346 L 449 351"></path><text y="368" xmlns="http://www.w3.org/2000/svg" x="416">2024-05-22</text><path stroke-width="2" d="M 547 346 L 547 351" /><path stroke-width="2" d="M 547 346 L 547 351"></path><text xmlns="http://www.w3.org/2000/svg" x="514" y="368">2024-09-03</text><path stroke-width="2" d="M 645 346 L 645 351" /><path stroke-width="2" d="M 645 346 L 645 351"></path><text xmlns="http://www.w3.org/2000/svg" x="612" y="368">2024-12-16</text><path stroke-width="2" d="M 742 346 L 742 351" /><path stroke-width="2" d="M 742 346 L 742 351"></path><text xmlns="http://www.w3.org/2000/svg" x="709" y="368">2025-03-30</text><path stroke-width="2" d="M 840 346 L 840 351" /><path stroke-width="2" d="M 840 346 L 840 351"></path><text xmlns="http://www.w3.org/2000/svg" x="807" y="368">2025-07-12</text><path stroke-width="2" d="M 937 346 L 937 351" /><path stroke-width="2" d="M 937 346 L 937 351"></path><text xmlns="http://www.w3.org/2000/svg" x="904" y="368">2025-10-24</text><text xmlns="http://www.w3.org/2000/svg" x="483" y="390">Time</text></svg>