<svg xmlns="http://www.w3.org/2000/svg" xmlns:xlink="http://www.w3.org/1999/xlink" width="1024" height="400">\n<path  d="M 0 0
L 1024 0
L 1024 400
L 0 400
L 0 0" style="stroke-width:0;stroke:rgba(255,255,255,1.0);fill:rgba(255,255,255,1.0)"/><path  d="M 38 11
L 965 11
L 965 351
L 38 351
L 38 11" style="stroke-width:0;stroke:rgba(255,255,255,1.0);fill:rgba(255,255,255,1.0)"/><path  d="M 38 351
L 965 351" style="stroke-width:2;stroke:rgba(85,85,85,1.0);fill:none"/><path  d="M 38 351
L 38 356" style="stroke-width:2;stroke:rgba(85,85,85,1.0);fill:none"/><text x="5" y="373" style="stroke-width:0;stroke:none;fill:rgba(51,51,51,1.0);font-size:12.8px;font-family:'Roboto Medium',sans-serif">2023-04-02</text><path  d="M 154 351
L 154 356" style="stroke-width:2;stroke:rgba(85,85,85,1.0);fill:none"/><text x="121" y="373" style="stroke-width:0;stroke:none;fill:rgba(51,51,51,1.0);font-size:12.8px;font-family:'Roboto Medium',sans-serif">2023-04-28</text><path  d="M 270 351
L 270 356" style="stroke-width:2;stroke:rgba(85,85,85,1.0);fill:none"/><text x="237" y="373" style="stroke-width:0;stroke:none;fill:rgba(51,51,51,1.0);font-size:12.8px;font-family:'Roboto Medium',sans-serif">2023-05-24</text><path  d="M 386 351
L 386 356" style="stroke-width:2;stroke:rgba(85,85,85,1.0);fill:none"/><text x="353" y="373" style="stroke-width:0;stroke:none;fill:rgba(51,51,51,1.0);font-size:12.8px;font-family:'Roboto Medium',sans-serif">2023-06-20</text><path  d="M 502 351
L 502 356" style="stroke-width:2;stroke:rgba(85,85,85,1.0);fill:none"/><text x="469" y="373" style="stroke-width:0;stroke:none;fill:rgba(51,51,51,1.0);font-size:12.8px;font-family:'Roboto Medium',sans-serif">2023-07-16</text><path  d="M 618 351
L 618 356" style="stroke-width:2;stroke:rgba(85,85,85,1.0);fill:none"/><text x="585" y="373" style="stroke-width:0;stroke:none;fill:rgba(51,51,51,1.0);font-size:12.8px;font-family:'Roboto Medium',sans-serif">2023-08-11</text><path  d="M 734 351
L 734 356" style="stroke-width:2;stroke:rgba(85,85,85,1.0);fill:none"/><text x="701" y="373" style="stroke-width:0;stroke:none;fill:rgba(51,51,51,1.0);font-size:12.8px;font-family:'Roboto Medium',sans-serif">2023-09-06</text><path  d="M 850 351
L 850 356" style="stroke-width:2;stroke:rgba(85,85,85,1.0);fill:none"/><text x="817" y="373" style="stroke-width:0;stroke:none;fill:rgba(51,51,51,1.0);font-size:12.8px;font-family:'Roboto Medium',sans-serif">2023-10-03</text><path  d="M 965 351
L 965 356" style="stroke-width:2;stroke:rgba(85,85,85,1.0);fill:none"/><text x="932" y="373" style="stroke-width:0;stroke:none;fill:rgba(51,51,51,1.0);font-size:12.8px;font-family:'Roboto Medium',sans-serif">2023-10-29</text><text x="487" y="395" style="stroke-width:0;stroke:none;fill:rgba(51,51,51,1.0);font-size:12.8px;font-family:'Roboto Medium',sans-serif">Time</text><path  d="M 967 351
L 967 11" style="stroke-width:2;stroke:rgba(85,85,85,1.0);fill:none"/><path  d="M 967 351
L 972 351" style="stroke-width:2;stroke:rgba(85,85,85,1.0);fill:none"/><text x="977" y="357" style="stroke-width:0;stroke:none;fill:rgba(51,51,51,1.0);font-size:12.8px;font-family:'Roboto Medium',sans-serif">0</text><path  d="M 967 308
L 972 308" style="stroke-width:2;stroke:rgba(85,85,85,1.0);fill:none"/><text x="977" y="314" style="stroke-width:0;stroke:none;fill:rgba(51,51,51,1.0);font-size:12.8px;font-family:'Roboto Medium',sans-serif">35</text><path  d="M 967 266
L 972 266" style="stroke-width:2;stroke:rgba(85,85,85,1.0);fill:none"/><text x="977" y="272" style="stroke-width:0;stroke:none;fill:rgba(51,51,51,1.0);font-size:12.8px;font-family:'Roboto Medium',sans-serif">70</text><path  d="M 967 223
L 972 223" style="stroke-width:2;stroke:rgba(85,85,85,1.0);fill:none"/><text x="977" y="229" style="stroke-width:0;stroke:none;fill:rgba(51,51,51,1.0);font-size:12.8px;font-family:'Roboto Medium',sans-serif">105</text><path  d="M 967 181
L 972 181" style="stroke-width:2;stroke:rgba(85,85,85,1.0);fill:none"/><text x="977" y="187" style="stroke-width:0;stroke:none;fill:rgba(51,51,51,1.0);font-size:12.8px;font-family:'Roboto Medium',sans-serif">140</text><path  d="M 967 138
L 972 138" style="stroke-width:2;stroke:rgba(85,85,85,1.0);fill:none"/><text x="977" y="144" style="stroke-width:0;stroke:none;fill:rgba(51,51,51,1.0);font-size:12.8px;font-family:'Roboto Medium',sans-serif">175</text><path  d="M 967 96
L 972 96" style="stroke-width:2;stroke:rgba(85,85,85,1.0);fill:none"/><text x="977" y="102" style="stroke-width:0;stroke:none;fill:rgba(51,51,51,1.0);font-size:12.8px;font-family:'Roboto Medium',sans-serif">210</text><path  d="M 967 53
L 972 53" style="stroke-width:2;stroke:rgba(85,85,85,1.0);fill:none"/><text x="977" y="59" style="stroke-width:0;stroke:none;fill:rgba(51,51,51,1.0);font-size:12.8px;font-family:'Roboto Medium',sans-serif">245</text><path  d="M 967 11
L 972 11" style="stroke-width:2;stroke:rgba(85,85,85,1.0);fill:none"/><text x="977" y="17" style="stroke-width:0;stroke:none;fill:rgba(51,51,51,1.0);font-size:12.8px;font-family:'Roboto Medium',sans-serif">280</text><text x="1009" y="150" style="stroke-width:0;stroke:none;fill:rgba(51,51,51,1.0);font-size:12.8px;font-family:'Roboto Medium',sans-serif" transform="rotate(90.00,1009,150)">Stargazers</text><path  d="M 38 351
L 47 349
L 100 348
L 101 347
L 101 346
L 101 344
L 101 343
L 101 342
L 102 341
L 102 340
L 103 338
L 103 337
L 103 336
L 103 335
L 103 334
L 103 332
L 104 331
L 104 330
L 105 329
L 105 327
L 108 326
L 109 325
L 110 324
L 114 323
L 116 321
L 116 320
L 117 319
L 118 318
L 119 317
L 122 315
L 127 314
L 128 313
L 132 312
L 136 310
L 153 309
L 153 308
L 153 307
L 153 306
L 153 304
L 153 303
L 153 302
L 163 301
L 167 300
L 170 298
L 178 297
L 192 296
L 197 295
L 221 293
L 228 292
L 241 291
L 254 290
L 260 289
L 310 287
L 313 286
L 313 285
L 320 284
L 321 283
L 321 281
L 321 280
L 321 279
L 321 278
L 321 276
L 321 275
L 322 274
L 322 273
L 322 272
L 322 270
L 323 269
L 324 268
L 324 267
L 324 266
L 324 264
L 324 263
L 324 262
L 324 261
L 324 259
L 324 258
L 324 257
L 324 256
L 324 255
L 324 253
L 324 252
L 324 251
L 324 250
L 324 249
L 325 247
L 325 246
L 325 245
L 325 244
L 325 242
L 325 241
L 325 240
L 325 239
L 325 238
L 325 236
L 325 235
L 325 234
L 325 233
L 325 232
L 325 230
L 325 229
L 326 228
L 326 227
L 327 225
L 328 224
L 328 223
L 329 222
L 330 221
L 330 219
L 333 218
L 333 217
L 333 216
L 333 215
L 333 213
L 333 212
L 333 211
L 333 210
L 333 208
L 333 207
L 333 206
L 333 205
L 333 204
L 333 202
L 333 201
L 333 200
L 334 199
L 335 198
L 338 196
L 338 195
L 339 194
L 339 193
L 351 191
L 352 190
L 352 189
L 356 188
L 356 187
L 364 185
L 372 184
L 375 183
L 382 182
L 385 181
L 390 179
L 392 178
L 393 177
L 401 176
L 402 174
L 404 173
L 408 172
L 410 171
L 413 170
L 414 168
L 414 167
L 415 166
L 419 165
L 423 163
L 424 162
L 426 161
L 427 160
L 427 159
L 430 157
L 436 156
L 440 155
L 447 154
L 450 153
L 453 151
L 456 150
L 457 149
L 457 148
L 463 147
L 484 145
L 485 144
L 488 143
L 509 142
L 509 140
L 509 139
L 510 138
L 511 137
L 514 136
L 520 134
L 524 133
L 525 132
L 549 131
L 554 130
L 560 128
L 568 127
L 573 126
L 573 125
L 577 123
L 594 122
L 613 121
L 635 120
L 637 119
L 638 117
L 638 116
L 639 115
L 644 114
L 674 113
L 688 111
L 688 110
L 700 109
L 702 108
L 704 106
L 737 105
L 737 104
L 739 103
L 740 102
L 744 100
L 753 99
L 757 98
L 764 97
L 768 96
L 775 94
L 794 93
L 795 92
L 798 91
L 799 89
L 799 88
L 801 87
L 810 86
L 811 85
L 829 83
L 856 82
L 870 81
L 885 80
L 886 79
L 894 77
L 895 76
L 900 75
L 904 74
L 904 72
L 904 71
L 904 70
L 904 69
L 904 68
L 904 66
L 904 65
L 905 64
L 905 63
L 905 62
L 906 60
L 906 59
L 907 58
L 908 57
L 911 55
L 914 54
L 916 53
L 917 52
L 917 51
L 917 49
L 922 48
L 922 47
L 922 46
L 922 45
L 922 43
L 922 42
L 923 41
L 926 40
L 926 38
L 928 37
L 929 36
L 930 35
L 930 34
L 931 32
L 931 31
L 934 30
L 935 29
L 935 28
L 935 26
L 938 25
L 939 24
L 940 23
L 943 21
L 947 20
L 949 19
L 954 18
L 962 17
L 962 15
L 965 14
L 965 13
L 965 12
L 965 11" style="stroke-width:2;stroke:rgba(129,199,239,1.0);fill:none"/></svg>