<svg xmlns:xlink="http://www.w3.org/1999/xlink" width="1024px" height="400px" xmlns="http://www.w3.org/2000/svg"><style type="text/css">
path { fill: none; stroke: rgb(51,51,51); }
path.series { stroke: #6b63ff; }
rect.background { fill: rgb(255,255,255); stroke: none; }

text {
	stroke-width: 0;
	stroke: none;
	fill: rgba(51,51,51,1.0);
	font-size: 12.8px;
	font-family: 'Roboto Medium', sans-serif;
}
</style><rect x="0" y="0" width="1024px" height="400px" class="background" rx="8" /><rect x="0" y="0" width="1024px" height="400px" class="background" rx="8"></rect><path stroke-width="2" class="series" d="M 58 345 L 60 345 L 71 345 L 71 344 L 71 344 L 71 344 L 71 344 L 71 343 L 71 343 L 71 343 L 72 342 L 72 342 L 72 342 L 72 342 L 72 341 L 72 341 L 72 341 L 72 341 L 72 340 L 73 340 L 73 340 L 73 339 L 74 339 L 74 339 L 74 339 L 74 338 L 75 338 L 75 338 L 77 338 L 77 337 L 77 337 L 78 337 L 82 336 L 82 336 L 82 336 L 82 336 L 82 335 L 84 335 L 85 335 L 85 335 L 87 334 L 90 334 L 91 334 L 95 333 L 97 333 L 100 333 L 102 333 L 104 332 L 114 332 L 114 332 L 116 331 L 116 331 L 116 331 L 116 331 L 116 330 L 116 330 L 116 330 L 116 330 L 116 329 L 116 329 L 116 329 L 116 328 L 116 328 L 117 328 L 117 328 L 117 327 L 117 327 L 117 327 L 117 327 L 117 326 L 117 326 L 117 326 L 117 325 L 117 325 L 117 325 L 117 325 L 117 324 L 117 324 L 117 324 L 117 324 L 117 323 L 117 323 L 117 323 L 117 322 L 117 322 L 117 322 L 117 322 L 117 321 L 117 321 L 117 321 L 117 320 L 117 320 L 117 320 L 117 320 L 117 319 L 117 319 L 117 319 L 117 319 L 117 318 L 117 318 L 117 318 L 117 317 L 118 317 L 118 317 L 118 317 L 118 316 L 118 316 L 118 316 L 118 316 L 118 315 L 118 315 L 118 315 L 118 314 L 118 314 L 118 314 L 118 314 L 118 313 L 118 313 L 118 313 L 118 313 L 119 312 L 119 312 L 119 312 L 119 311 L 120 311 L 120 311 L 122 311 L 122 310 L 122 310 L 123 310 L 123 309 L 125 309 L 126 309 L 127 309 L 128 308 L 129 308 L 130 308 L 130 308 L 131 307 L 132 307 L 132 307 L 133 306 L 134 306 L 134 306 L 135 306 L 135 305 L 135 305 L 135 305 L 136 305 L 137 304 L 137 304 L 137 304 L 137 303 L 137 303 L 138 303 L 139 303 L 140 302 L 142 302 L 142 302 L 143 302 L 143 301 L 143 301 L 144 301 L 145 300 L 149 300 L 149 300 L 150 300 L 154 299 L 154 299 L 154 299 L 154 298 L 154 298 L 155 298 L 156 298 L 157 297 L 157 297 L 162 297 L 163 297 L 164 296 L 166 296 L 167 296 L 167 295 L 168 295 L 171 295 L 175 295 L 180 294 L 180 294 L 180 294 L 180 294 L 181 293 L 188 293 L 190 293 L 191 292 L 193 292 L 193 292 L 194 292 L 200 291 L 200 291 L 201 291 L 201 291 L 202 290 L 205 290 L 206 290 L 207 289 L 208 289 L 212 289 L 212 289 L 213 288 L 213 288 L 213 288 L 213 287 L 215 287 L 219 287 L 227 287 L 231 286 L 232 286 L 233 286 L 234 286 L 234 285 L 234 285 L 234 285 L 234 284 L 234 284 L 234 284 L 234 284 L 235 283 L 235 283 L 235 283 L 235 283 L 235 282 L 235 282 L 235 282 L 237 281 L 237 281 L 237 281 L 237 281 L 238 280 L 238 280 L 238 280 L 238 280 L 238 279 L 238 279 L 238 279 L 239 278 L 239 278 L 240 278 L 240 278 L 240 277 L 240 277 L 240 277 L 241 276 L 241 276 L 241 276 L 241 276 L 242 275 L 242 275 L 242 275 L 243 275 L 244 274 L 245 274 L 246 274 L 246 273 L 247 273 L 247 273 L 247 273 L 247 272 L 247 272 L 248 272 L 248 272 L 250 271 L 250 271 L 250 271 L 252 270 L 253 270 L 253 270 L 254 270 L 255 269 L 255 269 L 256 269 L 256 269 L 259 268 L 259 268 L 260 268 L 262 267 L 263 267 L 266 267 L 266 267 L 267 266 L 267 266 L 268 266 L 268 265 L 270 265 L 271 265 L 272 265 L 272 264 L 274 264 L 274 264 L 274 264 L 274 263 L 275 263 L 275 263 L 275 262 L 276 262 L 276 262 L 276 262 L 276 261 L 279 261 L 283 261 L 283 261 L 283 260 L 285 260 L 287 260 L 287 259 L 287 259 L 288 259 L 289 259 L 289 258 L 289 258 L 289 258 L 289 258 L 289 257 L 289 257 L 290 257 L 290 256 L 290 256 L 292 256 L 292 256 L 292 255 L 292 255 L 292 255 L 292 254 L 292 254 L 292 254 L 293 254 L 293 253 L 293 253 L 293 253 L 293 253 L 295 252 L 297 252 L 297 252 L 298 251 L 305 251 L 306 251 L 308 251 L 310 250 L 316 250 L 317 250 L 318 250 L 318 249 L 318 249 L 318 249 L 318 248 L 318 248 L 319 248 L 319 248 L 325 247 L 327 247 L 329 247 L 333 247 L 336 246 L 338 246 L 340 246 L 343 245 L 343 245 L 350 245 L 356 245 L 356 244 L 361 244 L 361 244 L 365 243 L 365 243 L 367 243 L 367 243 L 368 242 L 368 242 L 370 242 L 371 242 L 373 241 L 375 241 L 376 241 L 376 240 L 377 240 L 379 240 L 382 240 L 382 239 L 384 239 L 387 239 L 388 239 L 388 238 L 389 238 L 390 238 L 390 237 L 392 237 L 394 237 L 396 237 L 398 236 L 398 236 L 401 236 L 402 236 L 404 235 L 407 235 L 407 235 L 410 234 L 411 234 L 411 234 L 412 234 L 412 233 L 414 233 L 414 233 L 416 232 L 418 232 L 418 232 L 418 232 L 419 231 L 424 231 L 424 231 L 424 231 L 425 230 L 425 230 L 425 230 L 425 229 L 426 229 L 426 229 L 427 229 L 427 228 L 429 228 L 429 228 L 429 228 L 430 227 L 430 227 L 430 227 L 431 226 L 431 226 L 431 226 L 432 226 L 432 225 L 432 225 L 432 225 L 433 225 L 434 224 L 434 224 L 434 224 L 435 223 L 435 223 L 436 223 L 437 223 L 437 222 L 437 222 L 438 222 L 439 221 L 439 221 L 439 221 L 441 221 L 441 220 L 441 220 L 442 220 L 442 220 L 442 219 L 442 219 L 442 219 L 443 218 L 443 218 L 446 218 L 446 218 L 447 217 L 447 217 L 449 217 L 450 217 L 450 216 L 452 216 L 454 216 L 455 215 L 457 215 L 458 215 L 458 215 L 458 214 L 458 214 L 458 214 L 459 214 L 459 213 L 459 213 L 459 213 L 460 212 L 460 212 L 461 212 L 462 212 L 462 211 L 462 211 L 462 211 L 464 210 L 464 210 L 465 210 L 465 210 L 466 209 L 468 209 L 472 209 L 472 209 L 472 208 L 472 208 L 474 208 L 475 207 L 476 207 L 476 207 L 476 207 L 476 206 L 477 206 L 480 206 L 480 206 L 480 205 L 480 205 L 481 205 L 482 204 L 482 204 L 482 204 L 484 204 L 487 203 L 487 203 L 489 203 L 490 203 L 490 202 L 493 202 L 493 202 L 495 201 L 497 201 L 498 201 L 499 201 L 499 200 L 499 200 L 499 200 L 499 199 L 499 199 L 500 199 L 500 199 L 500 198 L 501 198 L 501 198 L 501 198 L 502 197 L 503 197 L 503 197 L 506 196 L 507 196 L 510 196 L 512 196 L 512 195 L 512 195 L 513 195 L 515 195 L 516 194 L 516 194 L 516 194 L 516 193 L 516 193 L 516 193 L 516 193 L 517 192 L 517 192 L 517 192 L 517 192 L 517 191 L 518 191 L 518 191 L 519 190 L 519 190 L 520 190 L 520 190 L 521 189 L 521 189 L 521 189 L 521 188 L 522 188 L 524 188 L 524 188 L 524 187 L 524 187 L 524 187 L 525 187 L 525 186 L 525 186 L 526 186 L 528 185 L 530 185 L 532 185 L 532 185 L 533 184 L 536 184 L 539 184 L 539 184 L 541 183 L 544 183 L 544 183 L 544 182 L 547 182 L 548 182 L 549 182 L 549 181 L 549 181 L 556 181 L 556 181 L 556 180 L 556 180 L 557 180 L 557 179 L 558 179 L 558 179 L 559 179 L 559 178 L 559 178 L 560 178 L 560 177 L 560 177 L 560 177 L 560 177 L 560 176 L 561 176 L 561 176 L 562 176 L 563 175 L 564 175 L 564 175 L 564 174 L 564 174 L 565 174 L 566 174 L 566 173 L 567 173 L 567 173 L 567 173 L 567 172 L 568 172 L 568 172 L 569 171 L 569 171 L 570 171 L 571 171 L 571 170 L 571 170 L 571 170 L 571 170 L 572 169 L 572 169 L 572 169 L 573 168 L 573 168 L 574 168 L 574 168 L 574 167 L 574 167 L 574 167 L 575 166 L 575 166 L 575 166 L 575 166 L 576 165 L 576 165 L 576 165 L 577 165 L 577 164 L 577 164 L 577 164 L 577 163 L 577 163 L 578 163 L 578 163 L 578 162 L 578 162 L 578 162 L 580 162 L 581 161 L 582 161 L 582 161 L 583 160 L 583 160 L 584 160 L 584 160 L 585 159 L 585 159 L 587 159 L 589 159 L 589 158 L 590 158 L 591 158 L 591 157 L 591 157 L 592 157 L 592 157 L 592 156 L 592 156 L 592 156 L 592 155 L 592 155 L 592 155 L 593 155 L 593 154 L 593 154 L 593 154 L 593 154 L 593 153 L 594 153 L 594 153 L 595 152 L 596 152 L 596 152 L 596 152 L 596 151 L 597 151 L 597 151 L 598 151 L 601 150 L 601 150 L 601 150 L 601 149 L 601 149 L 602 149 L 604 149 L 604 148 L 606 148 L 606 148 L 606 148 L 606 147 L 607 147 L 610 147 L 612 146 L 614 146 L 615 146 L 616 146 L 617 145 L 617 145 L 618 145 L 618 144 L 618 144 L 618 144 L 619 144 L 619 143 L 619 143 L 620 143 L 622 143 L 622 142 L 622 142 L 622 142 L 622 141 L 622 141 L 622 141 L 622 141 L 622 140 L 622 140 L 622 140 L 622 140 L 622 139 L 622 139 L 622 139 L 622 138 L 622 138 L 623 138 L 623 138 L 623 137 L 623 137 L 623 137 L 623 137 L 623 136 L 624 136 L 624 136 L 624 135 L 625 135 L 625 135 L 625 135 L 625 134 L 625 134 L 625 134 L 626 133 L 627 133 L 628 133 L 628 133 L 628 132 L 630 132 L 630 132 L 630 132 L 630 131 L 632 131 L 633 131 L 634 130 L 634 130 L 634 130 L 634 130 L 634 129 L 634 129 L 634 129 L 635 129 L 636 128 L 636 128 L 639 128 L 640 127 L 641 127 L 643 127 L 644 127 L 644 126 L 644 126 L 644 126 L 645 126 L 645 125 L 645 125 L 645 125 L 646 124 L 647 124 L 647 124 L 647 124 L 647 123 L 647 123 L 647 123 L 647 122 L 647 122 L 647 122 L 648 122 L 648 121 L 648 121 L 649 121 L 650 121 L 650 120 L 650 120 L 651 120 L 651 119 L 651 119 L 652 119 L 652 119 L 652 118 L 652 118 L 653 118 L 654 118 L 656 117 L 658 117 L 660 117 L 661 116 L 662 116 L 664 116 L 664 116 L 665 115 L 667 115 L 671 115 L 671 115 L 673 114 L 674 114 L 676 114 L 676 113 L 676 113 L 678 113 L 678 113 L 679 112 L 679 112 L 680 112 L 681 111 L 682 111 L 682 111 L 683 111 L 683 110 L 683 110 L 684 110 L 687 110 L 687 109 L 688 109 L 689 109 L 689 108 L 690 108 L 690 108 L 691 108 L 691 107 L 691 107 L 691 107 L 692 107 L 693 106 L 693 106 L 694 106 L 694 105 L 695 105 L 695 105 L 696 105 L 696 104 L 696 104 L 696 104 L 697 104 L 697 103 L 697 103 L 697 103 L 698 102 L 698 102 L 698 102 L 700 102 L 701 101 L 702 101 L 704 101 L 705 100 L 706 100 L 706 100 L 708 100 L 710 99 L 712 99 L 713 99 L 714 99 L 714 98 L 715 98 L 717 98 L 719 97 L 719 97 L 719 97 L 719 97 L 719 96 L 719 96 L 720 96 L 721 96 L 722 95 L 722 95 L 723 95 L 723 94 L 728 94 L 728 94 L 729 94 L 731 93 L 732 93 L 733 93 L 733 92 L 733 92 L 733 92 L 734 92 L 735 91 L 735 91 L 735 91 L 736 91 L 736 90 L 736 90 L 737 90 L 737 89 L 739 89 L 741 89 L 741 89 L 745 88 L 746 88 L 746 88 L 747 88 L 748 87 L 748 87 L 748 87 L 748 86 L 750 86 L 752 86 L 753 86 L 753 85 L 753 85 L 753 85 L 755 85 L 756 84 L 758 84 L 758 84 L 758 83 L 758 83 L 759 83 L 759 83 L 759 82 L 760 82 L 760 82 L 760 82 L 761 81 L 762 81 L 763 81 L 763 80 L 763 80 L 763 80 L 764 80 L 764 79 L 767 79 L 770 79 L 770 78 L 773 78 L 774 78 L 776 78 L 776 77 L 777 77 L 777 77 L 779 77 L 779 76 L 780 76 L 782 76 L 783 75 L 785 75 L 790 75 L 790 75 L 790 74 L 790 74 L 790 74 L 792 74 L 792 73 L 792 73 L 799 73 L 802 72 L 802 72 L 803 72 L 804 72 L 806 71 L 808 71 L 809 71 L 809 71 L 810 70 L 811 70 L 815 70 L 816 69 L 817 69 L 818 69 L 820 69 L 820 68 L 821 68 L 821 68 L 821 67 L 821 67 L 821 67 L 823 67 L 825 66 L 826 66 L 826 66 L 827 66 L 829 65 L 831 65 L 833 65 L 833 64 L 835 64 L 835 64 L 835 64 L 835 63 L 835 63 L 836 63 L 836 63 L 838 62 L 839 62 L 839 62 L 839 61 L 839 61 L 840 61 L 840 61 L 840 60 L 840 60 L 840 60 L 840 60 L 840 59 L 840 59 L 841 59 L 841 58 L 842 58 L 842 58 L 842 58 L 842 57 L 842 57 L 844 57 L 848 56 L 849 56 L 850 56 L 850 56 L 850 55 L 850 55 L 851 55 L 851 55 L 851 54 L 851 54 L 851 54 L 851 53 L 851 53 L 851 53 L 851 53 L 851 52 L 851 52 L 851 52 L 851 52 L 851 51 L 852 51 L 852 51 L 852 50 L 853 50 L 854 50 L 854 50 L 855 49 L 856 49 L 856 49 L 857 49 L 857 48 L 857 48 L 859 48 L 859 47 L 859 47 L 861 47 L 862 47 L 863 46 L 863 46 L 864 46 L 864 45 L 864 45 L 866 45 L 867 45 L 868 44 L 868 44 L 870 44 L 870 44 L 870 43 L 871 43 L 871 43 L 872 42 L 873 42 L 873 42 L 874 42 L 876 41 L 880 41 L 880 41 L 881 41 L 885 40 L 885 40 L 885 40 L 886 39 L 886 39 L 886 39 L 887 39 L 888 38 L 889 38 L 890 38 L 890 38 L 890 37 L 890 37 L 891 37 L 891 36 L 895 36 L 895 36 L 896 36 L 897 35 L 898 35 L 899 35 L 904 34 L 905 34 L 905 34 L 906 34 L 906 33 L 907 33 L 909 33 L 909 33 L 909 32 L 909 32 L 910 32 L 910 31 L 913 31 L 915 31 L 915 31 L 918 30 L 919 30 L 919 30 L 919 30 L 919 29 L 919 29 L 920 29 L 920 28 L 922 28 L 922 28 L 924 28 L 924 27 L 924 27 L 925 27 L 928 27 L 928 26 L 930 26 L 930 26 L 931 25 L 935 25 L 937 25" /><path stroke-width="2" class="series" d="M 58 345 L 60 345 L 71 345 L 71 344 L 71 344 L 71 344 L 71 344 L 71 343 L 71 343 L 71 343 L 72 342 L 72 342 L 72 342 L 72 342 L 72 341 L 72 341 L 72 341 L 72 341 L 72 340 L 73 340 L 73 340 L 73 339 L 74 339 L 74 339 L 74 339 L 74 338 L 75 338 L 75 338 L 77 338 L 77 337 L 77 337 L 78 337 L 82 336 L 82 336 L 82 336 L 82 336 L 82 335 L 84 335 L 85 335 L 85 335 L 87 334 L 90 334 L 91 334 L 95 333 L 97 333 L 100 333 L 102 333 L 104 332 L 114 332 L 114 332 L 116 331 L 116 331 L 116 331 L 116 331 L 116 330 L 116 330 L 116 330 L 116 330 L 116 329 L 116 329 L 116 329 L 116 328 L 116 328 L 117 328 L 117 328 L 117 327 L 117 327 L 117 327 L 117 327 L 117 326 L 117 326 L 117 326 L 117 325 L 117 325 L 117 325 L 117 325 L 117 324 L 117 324 L 117 324 L 117 324 L 117 323 L 117 323 L 117 323 L 117 322 L 117 322 L 117 322 L 117 322 L 117 321 L 117 321 L 117 321 L 117 320 L 117 320 L 117 320 L 117 320 L 117 319 L 117 319 L 117 319 L 117 319 L 117 318 L 117 318 L 117 318 L 117 317 L 118 317 L 118 317 L 118 317 L 118 316 L 118 316 L 118 316 L 118 316 L 118 315 L 118 315 L 118 315 L 118 314 L 118 314 L 118 314 L 118 314 L 118 313 L 118 313 L 118 313 L 118 313 L 119 312 L 119 312 L 119 312 L 119 311 L 120 311 L 120 311 L 122 311 L 122 310 L 122 310 L 123 310 L 123 309 L 125 309 L 126 309 L 127 309 L 128 308 L 129 308 L 130 308 L 130 308 L 131 307 L 132 307 L 132 307 L 133 306 L 134 306 L 134 306 L 135 306 L 135 305 L 135 305 L 135 305 L 136 305 L 137 304 L 137 304 L 137 304 L 137 303 L 137 303 L 138 303 L 139 303 L 140 302 L 142 302 L 142 302 L 143 302 L 143 301 L 143 301 L 144 301 L 145 300 L 149 300 L 149 300 L 150 300 L 154 299 L 154 299 L 154 299 L 154 298 L 154 298 L 155 298 L 156 298 L 157 297 L 157 297 L 162 297 L 163 297 L 164 296 L 166 296 L 167 296 L 167 295 L 168 295 L 171 295 L 175 295 L 180 294 L 180 294 L 180 294 L 180 294 L 181 293 L 188 293 L 190 293 L 191 292 L 193 292 L 193 292 L 194 292 L 200 291 L 200 291 L 201 291 L 201 291 L 202 290 L 205 290 L 206 290 L 207 289 L 208 289 L 212 289 L 212 289 L 213 288 L 213 288 L 213 288 L 213 287 L 215 287 L 219 287 L 227 287 L 231 286 L 232 286 L 233 286 L 234 286 L 234 285 L 234 285 L 234 285 L 234 284 L 234 284 L 234 284 L 234 284 L 235 283 L 235 283 L 235 283 L 235 283 L 235 282 L 235 282 L 235 282 L 237 281 L 237 281 L 237 281 L 237 281 L 238 280 L 238 280 L 238 280 L 238 280 L 238 279 L 238 279 L 238 279 L 239 278 L 239 278 L 240 278 L 240 278 L 240 277 L 240 277 L 240 277 L 241 276 L 241 276 L 241 276 L 241 276 L 242 275 L 242 275 L 242 275 L 243 275 L 244 274 L 245 274 L 246 274 L 246 273 L 247 273 L 247 273 L 247 273 L 247 272 L 247 272 L 248 272 L 248 272 L 250 271 L 250 271 L 250 271 L 252 270 L 253 270 L 253 270 L 254 270 L 255 269 L 255 269 L 256 269 L 256 269 L 259 268 L 259 268 L 260 268 L 262 267 L 263 267 L 266 267 L 266 267 L 267 266 L 267 266 L 268 266 L 268 265 L 270 265 L 271 265 L 272 265 L 272 264 L 274 264 L 274 264 L 274 264 L 274 263 L 275 263 L 275 263 L 275 262 L 276 262 L 276 262 L 276 262 L 276 261 L 279 261 L 283 261 L 283 261 L 283 260 L 285 260 L 287 260 L 287 259 L 287 259 L 288 259 L 289 259 L 289 258 L 289 258 L 289 258 L 289 258 L 289 257 L 289 257 L 290 257 L 290 256 L 290 256 L 292 256 L 292 256 L 292 255 L 292 255 L 292 255 L 292 254 L 292 254 L 292 254 L 293 254 L 293 253 L 293 253 L 293 253 L 293 253 L 295 252 L 297 252 L 297 252 L 298 251 L 305 251 L 306 251 L 308 251 L 310 250 L 316 250 L 317 250 L 318 250 L 318 249 L 318 249 L 318 249 L 318 248 L 318 248 L 319 248 L 319 248 L 325 247 L 327 247 L 329 247 L 333 247 L 336 246 L 338 246 L 340 246 L 343 245 L 343 245 L 350 245 L 356 245 L 356 244 L 361 244 L 361 244 L 365 243 L 365 243 L 367 243 L 367 243 L 368 242 L 368 242 L 370 242 L 371 242 L 373 241 L 375 241 L 376 241 L 376 240 L 377 240 L 379 240 L 382 240 L 382 239 L 384 239 L 387 239 L 388 239 L 388 238 L 389 238 L 390 238 L 390 237 L 392 237 L 394 237 L 396 237 L 398 236 L 398 236 L 401 236 L 402 236 L 404 235 L 407 235 L 407 235 L 410 234 L 411 234 L 411 234 L 412 234 L 412 233 L 414 233 L 414 233 L 416 232 L 418 232 L 418 232 L 418 232 L 419 231 L 424 231 L 424 231 L 424 231 L 425 230 L 425 230 L 425 230 L 425 229 L 426 229 L 426 229 L 427 229 L 427 228 L 429 228 L 429 228 L 429 228 L 430 227 L 430 227 L 430 227 L 431 226 L 431 226 L 431 226 L 432 226 L 432 225 L 432 225 L 432 225 L 433 225 L 434 224 L 434 224 L 434 224 L 435 223 L 435 223 L 436 223 L 437 223 L 437 222 L 437 222 L 438 222 L 439 221 L 439 221 L 439 221 L 441 221 L 441 220 L 441 220 L 442 220 L 442 220 L 442 219 L 442 219 L 442 219 L 443 218 L 443 218 L 446 218 L 446 218 L 447 217 L 447 217 L 449 217 L 450 217 L 450 216 L 452 216 L 454 216 L 455 215 L 457 215 L 458 215 L 458 215 L 458 214 L 458 214 L 458 214 L 459 214 L 459 213 L 459 213 L 459 213 L 460 212 L 460 212 L 461 212 L 462 212 L 462 211 L 462 211 L 462 211 L 464 210 L 464 210 L 465 210 L 465 210 L 466 209 L 468 209 L 472 209 L 472 209 L 472 208 L 472 208 L 474 208 L 475 207 L 476 207 L 476 207 L 476 207 L 476 206 L 477 206 L 480 206 L 480 206 L 480 205 L 480 205 L 481 205 L 482 204 L 482 204 L 482 204 L 484 204 L 487 203 L 487 203 L 489 203 L 490 203 L 490 202 L 493 202 L 493 202 L 495 201 L 497 201 L 498 201 L 499 201 L 499 200 L 499 200 L 499 200 L 499 199 L 499 199 L 500 199 L 500 199 L 500 198 L 501 198 L 501 198 L 501 198 L 502 197 L 503 197 L 503 197 L 506 196 L 507 196 L 510 196 L 512 196 L 512 195 L 512 195 L 513 195 L 515 195 L 516 194 L 516 194 L 516 194 L 516 193 L 516 193 L 516 193 L 516 193 L 517 192 L 517 192 L 517 192 L 517 192 L 517 191 L 518 191 L 518 191 L 519 190 L 519 190 L 520 190 L 520 190 L 521 189 L 521 189 L 521 189 L 521 188 L 522 188 L 524 188 L 524 188 L 524 187 L 524 187 L 524 187 L 525 187 L 525 186 L 525 186 L 526 186 L 528 185 L 530 185 L 532 185 L 532 185 L 533 184 L 536 184 L 539 184 L 539 184 L 541 183 L 544 183 L 544 183 L 544 182 L 547 182 L 548 182 L 549 182 L 549 181 L 549 181 L 556 181 L 556 181 L 556 180 L 556 180 L 557 180 L 557 179 L 558 179 L 558 179 L 559 179 L 559 178 L 559 178 L 560 178 L 560 177 L 560 177 L 560 177 L 560 177 L 560 176 L 561 176 L 561 176 L 562 176 L 563 175 L 564 175 L 564 175 L 564 174 L 564 174 L 565 174 L 566 174 L 566 173 L 567 173 L 567 173 L 567 173 L 567 172 L 568 172 L 568 172 L 569 171 L 569 171 L 570 171 L 571 171 L 571 170 L 571 170 L 571 170 L 571 170 L 572 169 L 572 169 L 572 169 L 573 168 L 573 168 L 574 168 L 574 168 L 574 167 L 574 167 L 574 167 L 575 166 L 575 166 L 575 166 L 575 166 L 576 165 L 576 165 L 576 165 L 577 165 L 577 164 L 577 164 L 577 164 L 577 163 L 577 163 L 578 163 L 578 163 L 578 162 L 578 162 L 578 162 L 580 162 L 581 161 L 582 161 L 582 161 L 583 160 L 583 160 L 584 160 L 584 160 L 585 159 L 585 159 L 587 159 L 589 159 L 589 158 L 590 158 L 591 158 L 591 157 L 591 157 L 592 157 L 592 157 L 592 156 L 592 156 L 592 156 L 592 155 L 592 155 L 592 155 L 593 155 L 593 154 L 593 154 L 593 154 L 593 154 L 593 153 L 594 153 L 594 153 L 595 152 L 596 152 L 596 152 L 596 152 L 596 151 L 597 151 L 597 151 L 598 151 L 601 150 L 601 150 L 601 150 L 601 149 L 601 149 L 602 149 L 604 149 L 604 148 L 606 148 L 606 148 L 606 148 L 606 147 L 607 147 L 610 147 L 612 146 L 614 146 L 615 146 L 616 146 L 617 145 L 617 145 L 618 145 L 618 144 L 618 144 L 618 144 L 619 144 L 619 143 L 619 143 L 620 143 L 622 143 L 622 142 L 622 142 L 622 142 L 622 141 L 622 141 L 622 141 L 622 141 L 622 140 L 622 140 L 622 140 L 622 140 L 622 139 L 622 139 L 622 139 L 622 138 L 622 138 L 623 138 L 623 138 L 623 137 L 623 137 L 623 137 L 623 137 L 623 136 L 624 136 L 624 136 L 624 135 L 625 135 L 625 135 L 625 135 L 625 134 L 625 134 L 625 134 L 626 133 L 627 133 L 628 133 L 628 133 L 628 132 L 630 132 L 630 132 L 630 132 L 630 131 L 632 131 L 633 131 L 634 130 L 634 130 L 634 130 L 634 130 L 634 129 L 634 129 L 634 129 L 635 129 L 636 128 L 636 128 L 639 128 L 640 127 L 641 127 L 643 127 L 644 127 L 644 126 L 644 126 L 644 126 L 645 126 L 645 125 L 645 125 L 645 125 L 646 124 L 647 124 L 647 124 L 647 124 L 647 123 L 647 123 L 647 123 L 647 122 L 647 122 L 647 122 L 648 122 L 648 121 L 648 121 L 649 121 L 650 121 L 650 120 L 650 120 L 651 120 L 651 119 L 651 119 L 652 119 L 652 119 L 652 118 L 652 118 L 653 118 L 654 118 L 656 117 L 658 117 L 660 117 L 661 116 L 662 116 L 664 116 L 664 116 L 665 115 L 667 115 L 671 115 L 671 115 L 673 114 L 674 114 L 676 114 L 676 113 L 676 113 L 678 113 L 678 113 L 679 112 L 679 112 L 680 112 L 681 111 L 682 111 L 682 111 L 683 111 L 683 110 L 683 110 L 684 110 L 687 110 L 687 109 L 688 109 L 689 109 L 689 108 L 690 108 L 690 108 L 691 108 L 691 107 L 691 107 L 691 107 L 692 107 L 693 106 L 693 106 L 694 106 L 694 105 L 695 105 L 695 105 L 696 105 L 696 104 L 696 104 L 696 104 L 697 104 L 697 103 L 697 103 L 697 103 L 698 102 L 698 102 L 698 102 L 700 102 L 701 101 L 702 101 L 704 101 L 705 100 L 706 100 L 706 100 L 708 100 L 710 99 L 712 99 L 713 99 L 714 99 L 714 98 L 715 98 L 717 98 L 719 97 L 719 97 L 719 97 L 719 97 L 719 96 L 719 96 L 720 96 L 721 96 L 722 95 L 722 95 L 723 95 L 723 94 L 728 94 L 728 94 L 729 94 L 731 93 L 732 93 L 733 93 L 733 92 L 733 92 L 733 92 L 734 92 L 735 91 L 735 91 L 735 91 L 736 91 L 736 90 L 736 90 L 737 90 L 737 89 L 739 89 L 741 89 L 741 89 L 745 88 L 746 88 L 746 88 L 747 88 L 748 87 L 748 87 L 748 87 L 748 86 L 750 86 L 752 86 L 753 86 L 753 85 L 753 85 L 753 85 L 755 85 L 756 84 L 758 84 L 758 84 L 758 83 L 758 83 L 759 83 L 759 83 L 759 82 L 760 82 L 760 82 L 760 82 L 761 81 L 762 81 L 763 81 L 763 80 L 763 80 L 763 80 L 764 80 L 764 79 L 767 79 L 770 79 L 770 78 L 773 78 L 774 78 L 776 78 L 776 77 L 777 77 L 777 77 L 779 77 L 779 76 L 780 76 L 782 76 L 783 75 L 785 75 L 790 75 L 790 75 L 790 74 L 790 74 L 790 74 L 792 74 L 792 73 L 792 73 L 799 73 L 802 72 L 802 72 L 803 72 L 804 72 L 806 71 L 808 71 L 809 71 L 809 71 L 810 70 L 811 70 L 815 70 L 816 69 L 817 69 L 818 69 L 820 69 L 820 68 L 821 68 L 821 68 L 821 67 L 821 67 L 821 67 L 823 67 L 825 66 L 826 66 L 826 66 L 827 66 L 829 65 L 831 65 L 833 65 L 833 64 L 835 64 L 835 64 L 835 64 L 835 63 L 835 63 L 836 63 L 836 63 L 838 62 L 839 62 L 839 62 L 839 61 L 839 61 L 840 61 L 840 61 L 840 60 L 840 60 L 840 60 L 840 60 L 840 59 L 840 59 L 841 59 L 841 58 L 842 58 L 842 58 L 842 58 L 842 57 L 842 57 L 844 57 L 848 56 L 849 56 L 850 56 L 850 56 L 850 55 L 850 55 L 851 55 L 851 55 L 851 54 L 851 54 L 851 54 L 851 53 L 851 53 L 851 53 L 851 53 L 851 52 L 851 52 L 851 52 L 851 52 L 851 51 L 852 51 L 852 51 L 852 50 L 853 50 L 854 50 L 854 50 L 855 49 L 856 49 L 856 49 L 857 49 L 857 48 L 857 48 L 859 48 L 859 47 L 859 47 L 861 47 L 862 47 L 863 46 L 863 46 L 864 46 L 864 45 L 864 45 L 866 45 L 867 45 L 868 44 L 868 44 L 870 44 L 870 44 L 870 43 L 871 43 L 871 43 L 872 42 L 873 42 L 873 42 L 874 42 L 876 41 L 880 41 L 880 41 L 881 41 L 885 40 L 885 40 L 885 40 L 886 39 L 886 39 L 886 39 L 887 39 L 888 38 L 889 38 L 890 38 L 890 38 L 890 37 L 890 37 L 891 37 L 891 36 L 895 36 L 895 36 L 896 36 L 897 35 L 898 35 L 899 35 L 904 34 L 905 34 L 905 34 L 906 34 L 906 33 L 907 33 L 909 33 L 909 33 L 909 32 L 909 32 L 910 32 L 910 31 L 913 31 L 915 31 L 915 31 L 918 30 L 919 30 L 919 30 L 919 30 L 919 29 L 919 29 L 920 29 L 920 28 L 922 28 L 922 28 L 924 28 L 924 27 L 924 27 L 925 27 L 928 27 L 928 26 L 930 26 L 930 26 L 931 25 L 935 25 L 937 25"></path><path stroke-width="2" d="M 937 346 L 937.000000 15.000000" /><path stroke-width="2" d="M 937 346 L 937.000000 15.000000"></path><path stroke-width="2" d="M 937 346 L 942 346" /><path stroke-width="2" d="M 937 346 L 942 346"></path><text xmlns="http://www.w3.org/2000/svg" x="947" y="352">0</text><path stroke-width="2" d="M 937 307 L 942 307" /><path stroke-width="2" d="M 937 307 L 942 307"></path><text x="947" y="313" xmlns="http://www.w3.org/2000/svg">140</text><path stroke-width="2" d="M 937 271 L 942 271" /><path stroke-width="2" d="M 937 271 L 942 271"></path><text x="947" y="277" xmlns="http://www.w3.org/2000/svg">270</text><path stroke-width="2" d="M 937 236 L 942 236" /><path stroke-width="2" d="M 937 236 L 942 236"></path><text xmlns="http://www.w3.org/2000/svg" x="947" y="242">400</text><path stroke-width="2" d="M 937 197 L 942 197" /><path stroke-width="2" d="M 937 197 L 942 197"></path><text xmlns="http://www.w3.org/2000/svg" x="947" y="203">540</text><path stroke-width="2" d="M 937 161 L 942 161" /><path stroke-width="2" d="M 937 161 L 942 161"></path><text xmlns="http://www.w3.org/2000/svg" x="947" y="167">670</text><path stroke-width="2" d="M 937 126 L 942 126" /><path stroke-width="2" d="M 937 126 L 942 126"></path><text xmlns="http://www.w3.org/2000/svg" x="947" y="132">800</text><path stroke-width="2" d="M 937 87 L 942 87" /><path stroke-width="2" d="M 937 87 L 942 87"></path><text xmlns="http://www.w3.org/2000/svg" x="947" y="93">940</text><path stroke-width="2" d="M 937 51 L 942 51" /><path stroke-width="2" d="M 937 51 L 942 51"></path><text y="57" xmlns="http://www.w3.org/2000/svg" x="947">1070</text><path stroke-width="2" d="M 937 16 L 942 16" /><path stroke-width="2" d="M 937 16 L 942 16"></path><text y="22" xmlns="http://www.w3.org/2000/svg" x="947">1200</text><text x="987" y="175" transform="rotate(90.00,987,175)" xmlns="http://www.w3.org/2000/svg">Stargazers</text><path stroke-width="2" d="M 57.000000 346.000000 L 937 346" /><path d="M 57.000000 346.000000 L 937 346" stroke-width="2"></path><path stroke-width="2" d="M 58 346 L 58 351" /><path stroke-width="2" d="M 58 346 L 58 351"></path><text xmlns="http://www.w3.org/2000/svg" x="25" y="368">2023-04-02</text><path stroke-width="2" d="M 156 346 L 156 351" /><path stroke-width="2" d="M 156 346 L 156 351"></path><text xmlns="http://www.w3.org/2000/svg" x="123" y="368">2023-07-20</text><path stroke-width="2" d="M 254 346 L 254 351" /><path stroke-width="2" d="M 254 346 L 254 351"></path><text xmlns="http://www.w3.org/2000/svg" x="221" y="368">2023-11-06</text><path stroke-width="2" d="M 352 346 L 352 351" /><path stroke-width="2" d="M 352 346 L 352 351"></path><text y="368" xmlns="http://www.w3.org/2000/svg" x="319">2024-02-22</text><path stroke-width="2" d="M 449 346 L 449 351" /><path stroke-width="2" d="M 449 346 L 449 351"></path><text xmlns="http://www.w3.org/2000/svg" x="416" y="368">2024-06-10</text><path stroke-width="2" d="M 547 346 L 547 351" /><path stroke-width="2" d="M 547 346 L 547 351"></path><text xmlns="http://www.w3.org/2000/svg" x="514" y="368">2024-09-27</text><path stroke-width="2" d="M 645 346 L 645 351" /><path d="M 645 346 L 645 351" stroke-width="2"></path><text xmlns="http://www.w3.org/2000/svg" x="612" y="368">2025-01-14</text><path stroke-width="2" d="M 742 346 L 742 351" /><path stroke-width="2" d="M 742 346 L 742 351"></path><text xmlns="http://www.w3.org/2000/svg" x="709" y="368">2025-05-03</text><path stroke-width="2" d="M 840 346 L 840 351" /><path stroke-width="2" d="M 840 346 L 840 351"></path><text xmlns="http://www.w3.org/2000/svg" x="807" y="368">2025-08-19</text><path stroke-width="2" d="M 937 346 L 937 351" /><path stroke-width="2" d="M 937 346 L 937 351"></path><text xmlns="http://www.w3.org/2000/svg" x="904" y="368">2025-12-06</text><text xmlns="http://www.w3.org/2000/svg" x="483" y="390">Time</text></svg>