<svg xmlns="http://www.w3.org/2000/svg" xmlns:xlink="http://www.w3.org/1999/xlink" width="1024px" height="400px"><style type="text/css">
path { fill: none; stroke: rgb(51,51,51); }
path.series { stroke: #6b63ff; }
rect.background { fill: rgb(255,255,255); stroke: none; }

text {
	stroke-width: 0;
	stroke: none;
	fill: rgba(51,51,51,1.0);
	font-size: 12.8px;
	font-family: 'Roboto Medium', sans-serif;
}
</style><rect x="0" y="0" width="1024px" height="400px" class="background" rx="8" /><rect rx="8" x="0" y="0" width="1024px" height="400px" class="background"></rect><path stroke-width="2" class="series" d="M 58 345 L 60 345 L 73 345 L 73 344 L 73 344 L 73 344 L 73 343 L 73 343 L 73 343 L 73 343 L 74 342 L 74 342 L 74 342 L 74 341 L 74 341 L 74 341 L 74 340 L 74 340 L 74 340 L 75 340 L 75 339 L 75 339 L 76 339 L 77 338 L 77 338 L 77 338 L 77 337 L 78 337 L 80 337 L 80 337 L 81 336 L 82 336 L 86 336 L 86 335 L 86 335 L 86 335 L 86 334 L 88 334 L 89 334 L 90 334 L 92 333 L 95 333 L 96 333 L 102 332 L 104 332 L 107 332 L 110 331 L 111 331 L 123 331 L 124 331 L 124 330 L 125 330 L 126 330 L 126 329 L 126 329 L 126 329 L 126 328 L 126 328 L 126 328 L 126 328 L 126 327 L 126 327 L 126 327 L 126 326 L 126 326 L 126 326 L 126 325 L 126 325 L 126 325 L 126 325 L 126 324 L 126 324 L 126 324 L 126 323 L 126 323 L 126 323 L 126 322 L 126 322 L 126 322 L 126 322 L 126 321 L 126 321 L 126 321 L 126 320 L 126 320 L 126 320 L 126 319 L 127 319 L 127 319 L 127 319 L 127 318 L 127 318 L 127 318 L 127 317 L 127 317 L 127 317 L 127 316 L 127 316 L 127 316 L 127 316 L 127 315 L 127 315 L 127 315 L 128 314 L 128 314 L 128 314 L 128 313 L 128 313 L 128 313 L 128 313 L 128 312 L 128 312 L 128 312 L 128 311 L 128 311 L 128 311 L 128 310 L 128 310 L 128 310 L 128 310 L 129 309 L 129 309 L 129 309 L 130 308 L 130 308 L 130 308 L 130 307 L 133 307 L 133 307 L 133 307 L 134 306 L 134 306 L 136 306 L 138 305 L 138 305 L 140 305 L 141 304 L 142 304 L 142 304 L 143 304 L 145 303 L 145 303 L 145 303 L 146 302 L 147 302 L 147 302 L 148 301 L 148 301 L 148 301 L 149 301 L 150 300 L 150 300 L 150 300 L 151 299 L 151 299 L 151 299 L 153 298 L 154 298 L 156 298 L 156 298 L 157 297 L 158 297 L 158 297 L 158 296 L 159 296 L 164 296 L 165 295 L 165 295 L 170 295 L 170 295 L 170 294 L 170 294 L 171 294 L 171 293 L 173 293 L 174 293 L 174 292 L 180 292 L 181 292 L 182 292 L 184 291 L 185 291 L 185 291 L 186 290 L 190 290 L 195 290 L 200 289 L 201 289 L 201 289 L 201 289 L 201 288 L 202 288 L 209 288 L 213 287 L 213 287 L 215 287 L 216 286 L 216 286 L 224 286 L 224 286 L 225 285 L 225 285 L 226 285 L 228 284 L 229 284 L 231 284 L 232 283 L 233 283 L 238 283 L 238 283 L 239 282 L 239 282 L 239 282 L 239 281 L 242 281 L 246 281 L 256 280 L 260 280 L 262 280 L 262 280 L 264 279 L 264 279 L 264 279 L 264 278 L 264 278 L 264 278 L 264 277 L 264 277 L 264 277 L 264 277 L 264 276 L 264 276 L 264 276 L 265 275 L 265 275 L 267 275 L 267 274 L 267 274 L 267 274 L 268 274 L 268 273 L 268 273 L 268 273 L 268 272 L 268 272 L 268 272 L 269 271 L 270 271 L 270 271 L 270 271 L 270 270 L 270 270 L 270 270 L 271 269 L 271 269 L 271 269 L 272 268 L 272 268 L 273 268 L 273 268 L 274 267 L 275 267 L 276 267 L 278 266 L 278 266 L 278 266 L 279 265 L 279 265 L 279 265 L 279 265 L 280 264 L 281 264 L 282 264 L 282 263 L 283 263 L 284 263 L 285 262 L 285 262 L 287 262 L 288 262 L 288 261 L 289 261 L 289 261 L 292 260 L 293 260 L 294 260 L 296 259 L 298 259 L 301 259 L 301 259 L 302 258 L 303 258 L 303 258 L 303 257 L 305 257 L 307 257 L 308 256 L 308 256 L 310 256 L 310 256 L 310 255 L 310 255 L 311 255 L 311 254 L 311 254 L 312 254 L 312 253 L 312 253 L 313 253 L 316 253 L 321 252 L 321 252 L 321 252 L 324 251 L 325 251 L 326 251 L 326 250 L 327 250 L 328 250 L 328 250 L 328 249 L 328 249 L 328 249 L 328 248 L 328 248 L 329 248 L 329 247 L 329 247 L 331 247 L 331 247 L 331 246 L 331 246 L 332 246 L 332 245 L 332 245 L 332 245 L 332 244 L 332 244 L 332 244 L 332 244 L 332 243 L 335 243 L 337 243 L 337 242 L 338 242 L 347 242 L 348 241 L 350 241 L 352 241 L 359 241 L 361 240 L 361 240 L 361 240 L 361 239 L 362 239 L 362 239 L 362 238 L 363 238 L 363 238 L 370 238 L 372 237 L 374 237 L 379 237 L 383 236 L 386 236 L 388 236 L 391 235 L 391 235 L 399 235 L 406 235 L 407 234 L 412 234 L 412 234 L 416 233 L 417 233 L 419 233 L 419 232 L 420 232 L 420 232 L 422 232 L 423 231 L 425 231 L 429 231 L 429 230 L 430 230 L 430 230 L 433 229 L 436 229 L 436 229 L 439 229 L 443 228 L 443 228 L 443 228 L 445 227 L 445 227 L 446 227 L 449 226 L 451 226 L 453 226 L 455 226 L 455 225 L 459 225 L 460 225 L 462 224 L 466 224 L 466 224 L 470 223 L 470 223 L 470 223 L 472 223 L 472 222 L 474 222 L 474 222 L 476 221 L 478 221 L 479 221 L 479 220 L 479 220 L 485 220 L 486 220 L 486 219 L 486 219 L 486 219 L 487 218 L 487 218 L 488 218 L 488 217 L 490 217 L 490 217 L 491 217 L 491 216 L 492 216 L 492 216 L 493 215 L 493 215 L 494 215 L 494 214 L 494 214 L 494 214 L 494 214 L 495 213 L 495 213 L 496 213 L 497 212 L 497 212 L 497 212 L 498 211 L 498 211 L 499 211 L 500 211 L 500 210 L 501 210 L 502 210 L 503 209 L 503 209 L 504 209 L 504 208 L 506 208 L 506 208 L 506 208 L 506 207 L 506 207 L 506 207 L 506 206 L 507 206 L 507 206 L 508 205 L 511 205 L 512 205 L 513 205 L 513 204 L 515 204 L 516 204 L 516 203 L 518 203 L 520 203 L 522 202 L 524 202 L 525 202 L 525 202 L 525 201 L 525 201 L 526 201 L 526 200 L 526 200 L 527 200 L 527 199 L 527 199 L 527 199 L 529 199 L 529 198 L 529 198 L 530 198 L 530 197 L 533 197 L 533 197 L 533 196 L 534 196 L 534 196 L 536 196 L 542 195 L 542 195 L 542 195 L 542 194 L 544 194 L 546 194 L 546 193 L 546 193 L 546 193 L 547 193 L 548 192 L 551 192 L 551 192 L 551 191 L 551 191 L 553 191 L 553 190 L 553 190 L 553 190 L 556 190 L 559 189 L 559 189 L 562 189 L 562 188 L 563 188 L 566 188 L 567 187 L 569 187 L 570 187 L 572 187 L 573 186 L 573 186 L 573 186 L 573 185 L 573 185 L 573 185 L 574 184 L 575 184 L 575 184 L 575 184 L 575 183 L 575 183 L 576 183 L 577 182 L 578 182 L 582 182 L 582 181 L 586 181 L 588 181 L 588 181 L 589 180 L 589 180 L 592 180 L 593 179 L 593 179 L 593 179 L 593 178 L 593 178 L 593 178 L 593 178 L 594 177 L 594 177 L 594 177 L 594 176 L 595 176 L 595 176 L 595 175 L 597 175 L 597 175 L 597 175 L 598 174 L 599 174 L 599 174 L 599 173 L 599 173 L 600 173 L 603 172 L 603 172 L 603 172 L 603 172 L 603 171 L 604 171 L 604 171 L 604 170 L 605 170 L 607 170 L 609 169 L 611 169 L 612 169 L 614 169 L 616 168 L 619 168 L 620 168 L 622 167 L 626 167 L 626 167 L 626 166 L 630 166 L 631 166 L 631 166 L 632 165 L 632 165 L 639 165 L 640 164 L 640 164 L 640 164 L 641 163 L 641 163 L 642 163 L 643 163 L 643 162 L 644 162 L 644 162 L 644 161 L 645 161 L 645 161 L 645 160 L 645 160 L 645 160 L 645 160 L 645 159 L 647 159 L 648 159 L 649 158 L 649 158 L 649 158 L 650 157 L 650 157 L 651 157 L 651 157 L 652 156 L 652 156 L 652 156 L 652 155 L 654 155 L 654 155 L 655 154 L 655 154 L 656 154 L 657 154 L 657 153 L 657 153 L 657 153 L 657 152 L 658 152 L 658 152 L 659 151 L 660 151 L 660 151 L 661 151 L 661 150 L 661 150 L 661 150 L 661 149 L 662 149 L 662 149 L 662 148 L 662 148 L 664 148 L 664 148 L 664 147 L 664 147 L 665 147 L 665 146 L 665 146 L 665 146 L 665 145 L 665 145 L 666 145 L 666 145 L 666 144 L 666 144 L 668 144 L 669 143 L 671 143 L 671 143 L 671 142 L 671 142 L 672 142 L 673 142 L 673 141 L 674 141 L 676 141 L 678 140 L 678 140 L 680 140 L 680 139 L 680 139 L 681 139 L 681 139 L 682 138 L 682 138 L 682 138 L 682 137 L 682 137 L 682 137 L 682 136 L 683 136 L 683 136 L 683 136 L 683 135 L 683 135 L 684 135 L 684 134 L 684 134 L 685 134 L 686 133 L 687 133 L 687 133 L 687 132 L 688 132 L 688 132 L 689 132 L 692 131 L 692 131 L 692 131 L 692 130 L 692 130 L 694 130 L 696 130 L 696 129 L 698 129 L 698 129 L 698 128 L 698 128 L 699 128 L 703 127 L 705 127 L 708 127 L 709 126 L 710 126 L 711 126 L 712 126 L 712 125 L 712 125 L 712 125 L 713 124 L 713 124 L 714 124 L 714 124 L 715 123 L 717 123 L 717 123 L 717 122 L 717 122 L 717 122 L 717 121 L 717 121 L 717 121 L 717 121 L 717 120 L 717 120 L 717 120 L 717 119 L 717 119 L 717 119 L 717 118 L 717 118 L 718 118 L 718 118 L 718 117 L 718 117 L 718 117 L 718 116 L 718 116 L 719 116 L 719 115 L 719 115 L 720 115 L 720 115 L 720 114 L 720 114 L 720 114 L 720 113 L 721 113 L 722 113 L 724 112 L 724 112 L 724 112 L 726 112 L 726 111 L 726 111 L 727 111 L 729 110 L 730 110 L 731 110 L 731 109 L 731 109 L 731 109 L 731 109 L 731 108 L 731 108 L 733 108 L 733 107 L 733 107 L 736 107 L 738 106 L 739 106 L 741 106 L 742 106 L 743 105 L 743 105 L 743 105 L 743 104 L 744 104 L 744 104 L 744 103 L 745 103 L 746 103 L 746 103 L 746 102 L 746 102 L 746 102 L 746 101 L 746 101 L 747 101 L 747 100 L 747 100 L 747 100 L 747 100 L 749 99 L 749 99 L 749 99 L 750 98 L 750 98 L 750 98 L 751 97 L 752 97 L 752 97 L 752 97 L 752 96 L 753 96 L 754 96 L 757 95 L 758 95 L 759 95 L 761 94 L 762 94 L 763 94 L 766 94 L 766 93 L 767 93 L 769 93 L 774 92 L 775 92 L 776 92 L 778 91 L 780 91 L 780 91 L 780 91 L 782 90 L 782 90 L 783 90 L 784 89 L 785 89 L 786 89 L 787 88 L 787 88 L 788 88 L 788 88 L 788 87 L 789 87 L 792 87 L 793 86 L 793 86 L 795 86 L 795 85 L 796 85 L 797 85 L 798 85 L 798 84 L 798 84 L 798 84 L 799 83 L 800 83 L 800 83 L 801 82 L 802 82 L 802 82 L 802 82 L 803 81 L 804 81 L 804 81 L 804 80 L 805 80 L 805 80 L 805 79 L 805 79 L 805 79 L 805 79 L 806 78 L 808 78 L 809 78 L 810 77 L 810 77 L 813 77 L 813 76 L 815 76 L 816 76 L 818 76 L 820 75 L 822 75 L 823 75 L 824 74 L 825 74 L 826 74 L 828 73 L 830 73 L 830 73 L 830 73 L 830 72 L 830 72 L 831 72 L 832 71 L 833 71 L 833 71 L 834 70 L 834 70 L 835 70 L 840 70 L 841 69 L 842 69 L 844 69 L 845 68 L 846 68 L 846 68 L 847 67 L 847 67 L 847 67 L 849 67 L 849 66 L 849 66 L 850 66 L 850 65 L 850 65 L 851 65 L 851 64 L 852 64 L 853 64 L 856 64 L 856 63 L 861 63 L 861 63 L 862 62 L 863 62 L 864 62 L 864 61 L 864 61 L 864 61 L 867 61 L 868 60 L 870 60 L 870 60 L 870 59 L 870 59 L 872 59 L 873 58 L 875 58 L 875 58 L 876 58 L 876 57 L 877 57 L 877 57 L 877 56 L 878 56 L 878 56 L 879 55 L 880 55 L 881 55 L 881 55 L 882 54 L 882 54 L 882 54 L 882 53 L 883 53 L 886 53 L 890 52 L 890 52 L 894 52 L 895 52 L 897 51 L 897 51 L 898 51 L 898 50 L 900 50 L 900 50 L 902 49 L 903 49 L 904 49 L 905 49 L 908 48 L 913 48 L 913 48 L 913 47 L 913 47 L 913 47 L 915 46 L 915 46 L 915 46 L 924 46 L 927 45 L 927 45 L 928 45 L 930 44 L 932 44 L 934 44 L 935 43 L 935 43 L 936 43 L 937 43" /><path stroke-width="2" class="series" d="M 58 345 L 60 345 L 73 345 L 73 344 L 73 344 L 73 344 L 73 343 L 73 343 L 73 343 L 73 343 L 74 342 L 74 342 L 74 342 L 74 341 L 74 341 L 74 341 L 74 340 L 74 340 L 74 340 L 75 340 L 75 339 L 75 339 L 76 339 L 77 338 L 77 338 L 77 338 L 77 337 L 78 337 L 80 337 L 80 337 L 81 336 L 82 336 L 86 336 L 86 335 L 86 335 L 86 335 L 86 334 L 88 334 L 89 334 L 90 334 L 92 333 L 95 333 L 96 333 L 102 332 L 104 332 L 107 332 L 110 331 L 111 331 L 123 331 L 124 331 L 124 330 L 125 330 L 126 330 L 126 329 L 126 329 L 126 329 L 126 328 L 126 328 L 126 328 L 126 328 L 126 327 L 126 327 L 126 327 L 126 326 L 126 326 L 126 326 L 126 325 L 126 325 L 126 325 L 126 325 L 126 324 L 126 324 L 126 324 L 126 323 L 126 323 L 126 323 L 126 322 L 126 322 L 126 322 L 126 322 L 126 321 L 126 321 L 126 321 L 126 320 L 126 320 L 126 320 L 126 319 L 127 319 L 127 319 L 127 319 L 127 318 L 127 318 L 127 318 L 127 317 L 127 317 L 127 317 L 127 316 L 127 316 L 127 316 L 127 316 L 127 315 L 127 315 L 127 315 L 128 314 L 128 314 L 128 314 L 128 313 L 128 313 L 128 313 L 128 313 L 128 312 L 128 312 L 128 312 L 128 311 L 128 311 L 128 311 L 128 310 L 128 310 L 128 310 L 128 310 L 129 309 L 129 309 L 129 309 L 130 308 L 130 308 L 130 308 L 130 307 L 133 307 L 133 307 L 133 307 L 134 306 L 134 306 L 136 306 L 138 305 L 138 305 L 140 305 L 141 304 L 142 304 L 142 304 L 143 304 L 145 303 L 145 303 L 145 303 L 146 302 L 147 302 L 147 302 L 148 301 L 148 301 L 148 301 L 149 301 L 150 300 L 150 300 L 150 300 L 151 299 L 151 299 L 151 299 L 153 298 L 154 298 L 156 298 L 156 298 L 157 297 L 158 297 L 158 297 L 158 296 L 159 296 L 164 296 L 165 295 L 165 295 L 170 295 L 170 295 L 170 294 L 170 294 L 171 294 L 171 293 L 173 293 L 174 293 L 174 292 L 180 292 L 181 292 L 182 292 L 184 291 L 185 291 L 185 291 L 186 290 L 190 290 L 195 290 L 200 289 L 201 289 L 201 289 L 201 289 L 201 288 L 202 288 L 209 288 L 213 287 L 213 287 L 215 287 L 216 286 L 216 286 L 224 286 L 224 286 L 225 285 L 225 285 L 226 285 L 228 284 L 229 284 L 231 284 L 232 283 L 233 283 L 238 283 L 238 283 L 239 282 L 239 282 L 239 282 L 239 281 L 242 281 L 246 281 L 256 280 L 260 280 L 262 280 L 262 280 L 264 279 L 264 279 L 264 279 L 264 278 L 264 278 L 264 278 L 264 277 L 264 277 L 264 277 L 264 277 L 264 276 L 264 276 L 264 276 L 265 275 L 265 275 L 267 275 L 267 274 L 267 274 L 267 274 L 268 274 L 268 273 L 268 273 L 268 273 L 268 272 L 268 272 L 268 272 L 269 271 L 270 271 L 270 271 L 270 271 L 270 270 L 270 270 L 270 270 L 271 269 L 271 269 L 271 269 L 272 268 L 272 268 L 273 268 L 273 268 L 274 267 L 275 267 L 276 267 L 278 266 L 278 266 L 278 266 L 279 265 L 279 265 L 279 265 L 279 265 L 280 264 L 281 264 L 282 264 L 282 263 L 283 263 L 284 263 L 285 262 L 285 262 L 287 262 L 288 262 L 288 261 L 289 261 L 289 261 L 292 260 L 293 260 L 294 260 L 296 259 L 298 259 L 301 259 L 301 259 L 302 258 L 303 258 L 303 258 L 303 257 L 305 257 L 307 257 L 308 256 L 308 256 L 310 256 L 310 256 L 310 255 L 310 255 L 311 255 L 311 254 L 311 254 L 312 254 L 312 253 L 312 253 L 313 253 L 316 253 L 321 252 L 321 252 L 321 252 L 324 251 L 325 251 L 326 251 L 326 250 L 327 250 L 328 250 L 328 250 L 328 249 L 328 249 L 328 249 L 328 248 L 328 248 L 329 248 L 329 247 L 329 247 L 331 247 L 331 247 L 331 246 L 331 246 L 332 246 L 332 245 L 332 245 L 332 245 L 332 244 L 332 244 L 332 244 L 332 244 L 332 243 L 335 243 L 337 243 L 337 242 L 338 242 L 347 242 L 348 241 L 350 241 L 352 241 L 359 241 L 361 240 L 361 240 L 361 240 L 361 239 L 362 239 L 362 239 L 362 238 L 363 238 L 363 238 L 370 238 L 372 237 L 374 237 L 379 237 L 383 236 L 386 236 L 388 236 L 391 235 L 391 235 L 399 235 L 406 235 L 407 234 L 412 234 L 412 234 L 416 233 L 417 233 L 419 233 L 419 232 L 420 232 L 420 232 L 422 232 L 423 231 L 425 231 L 429 231 L 429 230 L 430 230 L 430 230 L 433 229 L 436 229 L 436 229 L 439 229 L 443 228 L 443 228 L 443 228 L 445 227 L 445 227 L 446 227 L 449 226 L 451 226 L 453 226 L 455 226 L 455 225 L 459 225 L 460 225 L 462 224 L 466 224 L 466 224 L 470 223 L 470 223 L 470 223 L 472 223 L 472 222 L 474 222 L 474 222 L 476 221 L 478 221 L 479 221 L 479 220 L 479 220 L 485 220 L 486 220 L 486 219 L 486 219 L 486 219 L 487 218 L 487 218 L 488 218 L 488 217 L 490 217 L 490 217 L 491 217 L 491 216 L 492 216 L 492 216 L 493 215 L 493 215 L 494 215 L 494 214 L 494 214 L 494 214 L 494 214 L 495 213 L 495 213 L 496 213 L 497 212 L 497 212 L 497 212 L 498 211 L 498 211 L 499 211 L 500 211 L 500 210 L 501 210 L 502 210 L 503 209 L 503 209 L 504 209 L 504 208 L 506 208 L 506 208 L 506 208 L 506 207 L 506 207 L 506 207 L 506 206 L 507 206 L 507 206 L 508 205 L 511 205 L 512 205 L 513 205 L 513 204 L 515 204 L 516 204 L 516 203 L 518 203 L 520 203 L 522 202 L 524 202 L 525 202 L 525 202 L 525 201 L 525 201 L 526 201 L 526 200 L 526 200 L 527 200 L 527 199 L 527 199 L 527 199 L 529 199 L 529 198 L 529 198 L 530 198 L 530 197 L 533 197 L 533 197 L 533 196 L 534 196 L 534 196 L 536 196 L 542 195 L 542 195 L 542 195 L 542 194 L 544 194 L 546 194 L 546 193 L 546 193 L 546 193 L 547 193 L 548 192 L 551 192 L 551 192 L 551 191 L 551 191 L 553 191 L 553 190 L 553 190 L 553 190 L 556 190 L 559 189 L 559 189 L 562 189 L 562 188 L 563 188 L 566 188 L 567 187 L 569 187 L 570 187 L 572 187 L 573 186 L 573 186 L 573 186 L 573 185 L 573 185 L 573 185 L 574 184 L 575 184 L 575 184 L 575 184 L 575 183 L 575 183 L 576 183 L 577 182 L 578 182 L 582 182 L 582 181 L 586 181 L 588 181 L 588 181 L 589 180 L 589 180 L 592 180 L 593 179 L 593 179 L 593 179 L 593 178 L 593 178 L 593 178 L 593 178 L 594 177 L 594 177 L 594 177 L 594 176 L 595 176 L 595 176 L 595 175 L 597 175 L 597 175 L 597 175 L 598 174 L 599 174 L 599 174 L 599 173 L 599 173 L 600 173 L 603 172 L 603 172 L 603 172 L 603 172 L 603 171 L 604 171 L 604 171 L 604 170 L 605 170 L 607 170 L 609 169 L 611 169 L 612 169 L 614 169 L 616 168 L 619 168 L 620 168 L 622 167 L 626 167 L 626 167 L 626 166 L 630 166 L 631 166 L 631 166 L 632 165 L 632 165 L 639 165 L 640 164 L 640 164 L 640 164 L 641 163 L 641 163 L 642 163 L 643 163 L 643 162 L 644 162 L 644 162 L 644 161 L 645 161 L 645 161 L 645 160 L 645 160 L 645 160 L 645 160 L 645 159 L 647 159 L 648 159 L 649 158 L 649 158 L 649 158 L 650 157 L 650 157 L 651 157 L 651 157 L 652 156 L 652 156 L 652 156 L 652 155 L 654 155 L 654 155 L 655 154 L 655 154 L 656 154 L 657 154 L 657 153 L 657 153 L 657 153 L 657 152 L 658 152 L 658 152 L 659 151 L 660 151 L 660 151 L 661 151 L 661 150 L 661 150 L 661 150 L 661 149 L 662 149 L 662 149 L 662 148 L 662 148 L 664 148 L 664 148 L 664 147 L 664 147 L 665 147 L 665 146 L 665 146 L 665 146 L 665 145 L 665 145 L 666 145 L 666 145 L 666 144 L 666 144 L 668 144 L 669 143 L 671 143 L 671 143 L 671 142 L 671 142 L 672 142 L 673 142 L 673 141 L 674 141 L 676 141 L 678 140 L 678 140 L 680 140 L 680 139 L 680 139 L 681 139 L 681 139 L 682 138 L 682 138 L 682 138 L 682 137 L 682 137 L 682 137 L 682 136 L 683 136 L 683 136 L 683 136 L 683 135 L 683 135 L 684 135 L 684 134 L 684 134 L 685 134 L 686 133 L 687 133 L 687 133 L 687 132 L 688 132 L 688 132 L 689 132 L 692 131 L 692 131 L 692 131 L 692 130 L 692 130 L 694 130 L 696 130 L 696 129 L 698 129 L 698 129 L 698 128 L 698 128 L 699 128 L 703 127 L 705 127 L 708 127 L 709 126 L 710 126 L 711 126 L 712 126 L 712 125 L 712 125 L 712 125 L 713 124 L 713 124 L 714 124 L 714 124 L 715 123 L 717 123 L 717 123 L 717 122 L 717 122 L 717 122 L 717 121 L 717 121 L 717 121 L 717 121 L 717 120 L 717 120 L 717 120 L 717 119 L 717 119 L 717 119 L 717 118 L 717 118 L 718 118 L 718 118 L 718 117 L 718 117 L 718 117 L 718 116 L 718 116 L 719 116 L 719 115 L 719 115 L 720 115 L 720 115 L 720 114 L 720 114 L 720 114 L 720 113 L 721 113 L 722 113 L 724 112 L 724 112 L 724 112 L 726 112 L 726 111 L 726 111 L 727 111 L 729 110 L 730 110 L 731 110 L 731 109 L 731 109 L 731 109 L 731 109 L 731 108 L 731 108 L 733 108 L 733 107 L 733 107 L 736 107 L 738 106 L 739 106 L 741 106 L 742 106 L 743 105 L 743 105 L 743 105 L 743 104 L 744 104 L 744 104 L 744 103 L 745 103 L 746 103 L 746 103 L 746 102 L 746 102 L 746 102 L 746 101 L 746 101 L 747 101 L 747 100 L 747 100 L 747 100 L 747 100 L 749 99 L 749 99 L 749 99 L 750 98 L 750 98 L 750 98 L 751 97 L 752 97 L 752 97 L 752 97 L 752 96 L 753 96 L 754 96 L 757 95 L 758 95 L 759 95 L 761 94 L 762 94 L 763 94 L 766 94 L 766 93 L 767 93 L 769 93 L 774 92 L 775 92 L 776 92 L 778 91 L 780 91 L 780 91 L 780 91 L 782 90 L 782 90 L 783 90 L 784 89 L 785 89 L 786 89 L 787 88 L 787 88 L 788 88 L 788 88 L 788 87 L 789 87 L 792 87 L 793 86 L 793 86 L 795 86 L 795 85 L 796 85 L 797 85 L 798 85 L 798 84 L 798 84 L 798 84 L 799 83 L 800 83 L 800 83 L 801 82 L 802 82 L 802 82 L 802 82 L 803 81 L 804 81 L 804 81 L 804 80 L 805 80 L 805 80 L 805 79 L 805 79 L 805 79 L 805 79 L 806 78 L 808 78 L 809 78 L 810 77 L 810 77 L 813 77 L 813 76 L 815 76 L 816 76 L 818 76 L 820 75 L 822 75 L 823 75 L 824 74 L 825 74 L 826 74 L 828 73 L 830 73 L 830 73 L 830 73 L 830 72 L 830 72 L 831 72 L 832 71 L 833 71 L 833 71 L 834 70 L 834 70 L 835 70 L 840 70 L 841 69 L 842 69 L 844 69 L 845 68 L 846 68 L 846 68 L 847 67 L 847 67 L 847 67 L 849 67 L 849 66 L 849 66 L 850 66 L 850 65 L 850 65 L 851 65 L 851 64 L 852 64 L 853 64 L 856 64 L 856 63 L 861 63 L 861 63 L 862 62 L 863 62 L 864 62 L 864 61 L 864 61 L 864 61 L 867 61 L 868 60 L 870 60 L 870 60 L 870 59 L 870 59 L 872 59 L 873 58 L 875 58 L 875 58 L 876 58 L 876 57 L 877 57 L 877 57 L 877 56 L 878 56 L 878 56 L 879 55 L 880 55 L 881 55 L 881 55 L 882 54 L 882 54 L 882 54 L 882 53 L 883 53 L 886 53 L 890 52 L 890 52 L 894 52 L 895 52 L 897 51 L 897 51 L 898 51 L 898 50 L 900 50 L 900 50 L 902 49 L 903 49 L 904 49 L 905 49 L 908 48 L 913 48 L 913 48 L 913 47 L 913 47 L 913 47 L 915 46 L 915 46 L 915 46 L 924 46 L 927 45 L 927 45 L 928 45 L 930 44 L 932 44 L 934 44 L 935 43 L 935 43 L 936 43 L 937 43"></path><path stroke-width="2" d="M 937 346 L 937.000000 15.000000" /><path stroke-width="2" d="M 937 346 L 937.000000 15.000000"></path><path stroke-width="2" d="M 937 346 L 942 346" /><path stroke-width="2" d="M 937 346 L 942 346"></path><text xmlns="http://www.w3.org/2000/svg" x="947" y="352">0</text><path stroke-width="2" d="M 937 307 L 942 307" /><path stroke-width="2" d="M 937 307 L 942 307"></path><text x="947" y="313" xmlns="http://www.w3.org/2000/svg">130</text><path stroke-width="2" d="M 937 271 L 942 271" /><path d="M 937 271 L 942 271" stroke-width="2"></path><text xmlns="http://www.w3.org/2000/svg" x="947" y="277">250</text><path stroke-width="2" d="M 937 235 L 942 235" /><path stroke-width="2" d="M 937 235 L 942 235"></path><text x="947" y="241" xmlns="http://www.w3.org/2000/svg">370</text><path stroke-width="2" d="M 937 199 L 942 199" /><path stroke-width="2" d="M 937 199 L 942 199"></path><text x="947" y="205" xmlns="http://www.w3.org/2000/svg">490</text><path stroke-width="2" d="M 937 160 L 942 160" /><path stroke-width="2" d="M 937 160 L 942 160"></path><text xmlns="http://www.w3.org/2000/svg" x="947" y="166">620</text><path stroke-width="2" d="M 937 124 L 942 124" /><path stroke-width="2" d="M 937 124 L 942 124"></path><text xmlns="http://www.w3.org/2000/svg" x="947" y="130">740</text><path stroke-width="2" d="M 937 88 L 942 88" /><path stroke-width="2" d="M 937 88 L 942 88"></path><text xmlns="http://www.w3.org/2000/svg" x="947" y="94">860</text><path stroke-width="2" d="M 937 52 L 942 52" /><path stroke-width="2" d="M 937 52 L 942 52"></path><text xmlns="http://www.w3.org/2000/svg" x="947" y="58">980</text><path stroke-width="2" d="M 937 16 L 942 16" /><path stroke-width="2" d="M 937 16 L 942 16"></path><text y="22" xmlns="http://www.w3.org/2000/svg" x="947">1100</text><text xmlns="http://www.w3.org/2000/svg" x="987" y="175" transform="rotate(90.00,987,175)">Stargazers</text><path stroke-width="2" d="M 57.000000 346.000000 L 937 346" /><path stroke-width="2" d="M 57.000000 346.000000 L 937 346"></path><path stroke-width="2" d="M 58 346 L 58 351" /><path stroke-width="2" d="M 58 346 L 58 351"></path><text xmlns="http://www.w3.org/2000/svg" x="25" y="368">2023-04-02</text><path stroke-width="2" d="M 156 346 L 156 351" /><path stroke-width="2" d="M 156 346 L 156 351"></path><text y="368" xmlns="http://www.w3.org/2000/svg" x="123">2023-07-04</text><path stroke-width="2" d="M 254 346 L 254 351" /><path stroke-width="2" d="M 254 346 L 254 351"></path><text xmlns="http://www.w3.org/2000/svg" x="221" y="368">2023-10-05</text><path stroke-width="2" d="M 352 346 L 352 351" /><path stroke-width="2" d="M 352 346 L 352 351"></path><text xmlns="http://www.w3.org/2000/svg" x="319" y="368">2024-01-06</text><path stroke-width="2" d="M 449 346 L 449 351" /><path stroke-width="2" d="M 449 346 L 449 351"></path><text xmlns="http://www.w3.org/2000/svg" x="416" y="368">2024-04-08</text><path d="M 547 346 L 547 351" stroke-width="2" /><path stroke-width="2" d="M 547 346 L 547 351"></path><text xmlns="http://www.w3.org/2000/svg" x="514" y="368">2024-07-11</text><path d="M 645 346 L 645 351" stroke-width="2" /><path stroke-width="2" d="M 645 346 L 645 351"></path><text xmlns="http://www.w3.org/2000/svg" x="612" y="368">2024-10-12</text><path stroke-width="2" d="M 742 346 L 742 351" /><path stroke-width="2" d="M 742 346 L 742 351"></path><text xmlns="http://www.w3.org/2000/svg" x="709" y="368">2025-01-13</text><path stroke-width="2" d="M 840 346 L 840 351" /><path stroke-width="2" d="M 840 346 L 840 351"></path><text xmlns="http://www.w3.org/2000/svg" x="807" y="368">2025-04-16</text><path stroke-width="2" d="M 937 346 L 937 351" /><path stroke-width="2" d="M 937 346 L 937 351"></path><text xmlns="http://www.w3.org/2000/svg" x="904" y="368">2025-07-18</text><text xmlns="http://www.w3.org/2000/svg" x="483" y="390">Time</text></svg>