<svg height="400px" xmlns="http://www.w3.org/2000/svg" xmlns:xlink="http://www.w3.org/1999/xlink" width="1024px"><style type="text/css">
path { fill: none; stroke: rgb(51,51,51); }
path.series { stroke: #6b63ff; }
rect.background { fill: rgb(255,255,255); stroke: none; }

text {
	stroke-width: 0;
	stroke: none;
	fill: rgba(51,51,51,1.0);
	font-size: 12.8px;
	font-family: 'Roboto Medium', sans-serif;
}
</style><rect y="0" width="1024px" height="400px" class="background" rx="8" x="0" /><rect rx="8" x="0" y="0" width="1024px" height="400px" class="background"></rect><path stroke-width="2" class="series" d="M 58 345 L 63 344 L 94 343 L 95 342 L 95 341 L 95 341 L 95 340 L 95 339 L 95 338 L 95 337 L 95 336 L 95 336 L 96 335 L 96 334 L 96 333 L 96 332 L 96 331 L 96 331 L 97 330 L 97 329 L 98 328 L 99 327 L 99 327 L 102 326 L 103 325 L 103 324 L 103 323 L 104 322 L 106 322 L 109 321 L 110 320 L 112 319 L 114 318 L 124 317 L 124 317 L 124 316 L 124 315 L 124 314 L 124 313 L 124 313 L 130 312 L 132 311 L 134 310 L 139 309 L 146 308 L 149 308 L 163 307 L 167 306 L 175 305 L 182 304 L 186 303 L 214 303 L 216 302 L 216 301 L 220 300 L 221 299 L 221 298 L 221 298 L 221 297 L 221 296 L 221 295 L 221 294 L 221 294 L 221 293 L 221 292 L 221 291 L 222 290 L 222 289 L 222 289 L 222 288 L 222 287 L 222 286 L 222 285 L 222 284 L 222 284 L 222 283 L 222 282 L 222 281 L 222 280 L 222 280 L 222 279 L 223 278 L 223 277 L 223 276 L 223 275 L 223 275 L 223 274 L 223 273 L 223 272 L 223 271 L 223 270 L 223 270 L 223 269 L 223 268 L 223 267 L 223 266 L 223 265 L 223 265 L 223 264 L 223 263 L 224 262 L 224 261 L 224 261 L 225 260 L 225 259 L 225 258 L 226 257 L 226 256 L 227 256 L 227 255 L 227 254 L 228 253 L 228 252 L 228 251 L 228 251 L 228 250 L 228 249 L 228 248 L 228 247 L 228 247 L 228 246 L 228 245 L 228 244 L 228 243 L 228 242 L 229 242 L 231 241 L 231 240 L 231 239 L 231 238 L 238 237 L 238 237 L 238 236 L 241 235 L 241 234 L 245 233 L 250 232 L 251 232 L 255 231 L 257 230 L 260 229 L 261 228 L 262 228 L 266 227 L 267 226 L 269 225 L 271 224 L 272 223 L 274 223 L 274 222 L 274 221 L 275 220 L 277 219 L 279 218 L 279 218 L 281 217 L 281 216 L 282 215 L 283 214 L 287 214 L 289 213 L 293 212 L 295 211 L 296 210 L 298 209 L 298 209 L 299 208 L 302 207 L 314 206 L 315 205 L 317 204 L 329 204 L 329 203 L 329 202 L 329 201 L 330 200 L 331 199 L 335 199 L 337 198 L 338 197 L 352 196 L 355 195 L 358 195 L 362 194 L 365 193 L 365 192 L 367 191 L 377 190 L 388 190 L 401 189 L 402 188 L 402 187 L 403 186 L 403 185 L 406 185 L 423 184 L 431 183 L 431 182 L 438 181 L 439 181 L 440 180 L 459 179 L 459 178 L 461 177 L 461 176 L 464 176 L 469 175 L 471 174 L 475 173 L 477 172 L 481 171 L 492 171 L 493 170 L 495 169 L 495 168 L 495 167 L 496 166 L 501 166 L 502 165 L 512 164 L 528 163 L 536 162 L 544 162 L 545 161 L 549 160 L 550 159 L 553 158 L 555 157 L 555 157 L 555 156 L 555 155 L 555 154 L 555 153 L 555 152 L 555 152 L 556 151 L 556 150 L 556 149 L 556 148 L 556 148 L 557 147 L 558 146 L 559 145 L 561 144 L 562 143 L 562 143 L 563 142 L 563 141 L 565 140 L 565 139 L 566 138 L 566 138 L 566 137 L 566 136 L 566 135 L 568 134 L 569 133 L 570 133 L 570 132 L 570 131 L 571 130 L 571 129 L 573 129 L 573 128 L 573 127 L 573 126 L 575 125 L 575 124 L 576 124 L 578 123 L 580 122 L 581 121 L 584 120 L 588 119 L 589 119 L 590 118 L 590 117 L 590 116 L 591 115 L 591 115 L 594 114 L 595 113 L 599 112 L 599 111 L 600 110 L 604 110 L 607 109 L 607 108 L 612 107 L 613 106 L 613 105 L 615 105 L 615 104 L 624 103 L 626 102 L 627 101 L 633 100 L 637 100 L 644 99 L 646 98 L 646 97 L 648 96 L 649 96 L 649 95 L 655 94 L 659 93 L 662 92 L 662 91 L 665 91 L 667 90 L 667 89 L 667 88 L 667 87 L 669 86 L 669 86 L 669 85 L 672 84 L 672 83 L 672 82 L 674 82 L 682 81 L 692 80 L 692 79 L 692 78 L 699 77 L 703 77 L 704 76 L 705 75 L 707 74 L 709 73 L 710 72 L 710 72 L 710 71 L 710 70 L 710 69 L 710 68 L 712 67 L 712 67 L 713 66 L 718 65 L 718 64 L 718 63 L 718 63 L 719 62 L 719 61 L 719 60 L 719 59 L 719 58 L 719 58 L 720 57 L 720 56 L 720 55 L 723 54 L 728 53 L 733 53 L 733 52 L 735 51 L 744 50 L 755 49 L 757 49 L 764 48 L 769 47 L 781 46 L 785 45 L 790 44 L 790 44 L 790 43 L 790 42 L 791 41 L 791 40 L 791 39 L 791 39 L 794 38 L 796 37 L 811 36 L 816 35 L 821 34 L 834 34 L 842 33 L 849 32 L 854 31 L 863 30 L 863 30 L 881 29 L 900 28 L 900 27 L 913 26 L 913 25 L 923 25 L 925 24 L 931 23 L 931 22 L 932 21 L 932 20 L 938 20 L 940 19 L 945 18" /><path stroke-width="2" class="series" d="M 58 345 L 63 344 L 94 343 L 95 342 L 95 341 L 95 341 L 95 340 L 95 339 L 95 338 L 95 337 L 95 336 L 95 336 L 96 335 L 96 334 L 96 333 L 96 332 L 96 331 L 96 331 L 97 330 L 97 329 L 98 328 L 99 327 L 99 327 L 102 326 L 103 325 L 103 324 L 103 323 L 104 322 L 106 322 L 109 321 L 110 320 L 112 319 L 114 318 L 124 317 L 124 317 L 124 316 L 124 315 L 124 314 L 124 313 L 124 313 L 130 312 L 132 311 L 134 310 L 139 309 L 146 308 L 149 308 L 163 307 L 167 306 L 175 305 L 182 304 L 186 303 L 214 303 L 216 302 L 216 301 L 220 300 L 221 299 L 221 298 L 221 298 L 221 297 L 221 296 L 221 295 L 221 294 L 221 294 L 221 293 L 221 292 L 221 291 L 222 290 L 222 289 L 222 289 L 222 288 L 222 287 L 222 286 L 222 285 L 222 284 L 222 284 L 222 283 L 222 282 L 222 281 L 222 280 L 222 280 L 222 279 L 223 278 L 223 277 L 223 276 L 223 275 L 223 275 L 223 274 L 223 273 L 223 272 L 223 271 L 223 270 L 223 270 L 223 269 L 223 268 L 223 267 L 223 266 L 223 265 L 223 265 L 223 264 L 223 263 L 224 262 L 224 261 L 224 261 L 225 260 L 225 259 L 225 258 L 226 257 L 226 256 L 227 256 L 227 255 L 227 254 L 228 253 L 228 252 L 228 251 L 228 251 L 228 250 L 228 249 L 228 248 L 228 247 L 228 247 L 228 246 L 228 245 L 228 244 L 228 243 L 228 242 L 229 242 L 231 241 L 231 240 L 231 239 L 231 238 L 238 237 L 238 237 L 238 236 L 241 235 L 241 234 L 245 233 L 250 232 L 251 232 L 255 231 L 257 230 L 260 229 L 261 228 L 262 228 L 266 227 L 267 226 L 269 225 L 271 224 L 272 223 L 274 223 L 274 222 L 274 221 L 275 220 L 277 219 L 279 218 L 279 218 L 281 217 L 281 216 L 282 215 L 283 214 L 287 214 L 289 213 L 293 212 L 295 211 L 296 210 L 298 209 L 298 209 L 299 208 L 302 207 L 314 206 L 315 205 L 317 204 L 329 204 L 329 203 L 329 202 L 329 201 L 330 200 L 331 199 L 335 199 L 337 198 L 338 197 L 352 196 L 355 195 L 358 195 L 362 194 L 365 193 L 365 192 L 367 191 L 377 190 L 388 190 L 401 189 L 402 188 L 402 187 L 403 186 L 403 185 L 406 185 L 423 184 L 431 183 L 431 182 L 438 181 L 439 181 L 440 180 L 459 179 L 459 178 L 461 177 L 461 176 L 464 176 L 469 175 L 471 174 L 475 173 L 477 172 L 481 171 L 492 171 L 493 170 L 495 169 L 495 168 L 495 167 L 496 166 L 501 166 L 502 165 L 512 164 L 528 163 L 536 162 L 544 162 L 545 161 L 549 160 L 550 159 L 553 158 L 555 157 L 555 157 L 555 156 L 555 155 L 555 154 L 555 153 L 555 152 L 555 152 L 556 151 L 556 150 L 556 149 L 556 148 L 556 148 L 557 147 L 558 146 L 559 145 L 561 144 L 562 143 L 562 143 L 563 142 L 563 141 L 565 140 L 565 139 L 566 138 L 566 138 L 566 137 L 566 136 L 566 135 L 568 134 L 569 133 L 570 133 L 570 132 L 570 131 L 571 130 L 571 129 L 573 129 L 573 128 L 573 127 L 573 126 L 575 125 L 575 124 L 576 124 L 578 123 L 580 122 L 581 121 L 584 120 L 588 119 L 589 119 L 590 118 L 590 117 L 590 116 L 591 115 L 591 115 L 594 114 L 595 113 L 599 112 L 599 111 L 600 110 L 604 110 L 607 109 L 607 108 L 612 107 L 613 106 L 613 105 L 615 105 L 615 104 L 624 103 L 626 102 L 627 101 L 633 100 L 637 100 L 644 99 L 646 98 L 646 97 L 648 96 L 649 96 L 649 95 L 655 94 L 659 93 L 662 92 L 662 91 L 665 91 L 667 90 L 667 89 L 667 88 L 667 87 L 669 86 L 669 86 L 669 85 L 672 84 L 672 83 L 672 82 L 674 82 L 682 81 L 692 80 L 692 79 L 692 78 L 699 77 L 703 77 L 704 76 L 705 75 L 707 74 L 709 73 L 710 72 L 710 72 L 710 71 L 710 70 L 710 69 L 710 68 L 712 67 L 712 67 L 713 66 L 718 65 L 718 64 L 718 63 L 718 63 L 719 62 L 719 61 L 719 60 L 719 59 L 719 58 L 719 58 L 720 57 L 720 56 L 720 55 L 723 54 L 728 53 L 733 53 L 733 52 L 735 51 L 744 50 L 755 49 L 757 49 L 764 48 L 769 47 L 781 46 L 785 45 L 790 44 L 790 44 L 790 43 L 790 42 L 791 41 L 791 40 L 791 39 L 791 39 L 794 38 L 796 37 L 811 36 L 816 35 L 821 34 L 834 34 L 842 33 L 849 32 L 854 31 L 863 30 L 863 30 L 881 29 L 900 28 L 900 27 L 913 26 L 913 25 L 923 25 L 925 24 L 931 23 L 931 22 L 932 21 L 932 20 L 938 20 L 940 19 L 945 18"></path><path stroke-width="2" d="M 945 346 L 945.000000 15.000000" /><path stroke-width="2" d="M 945 346 L 945.000000 15.000000"></path><path stroke-width="2" d="M 945 346 L 950 346" /><path d="M 945 346 L 950 346" stroke-width="2"></path><text xmlns="http://www.w3.org/2000/svg" x="955" y="352">0</text><path stroke-width="2" d="M 945 308 L 950 308" /><path stroke-width="2" d="M 945 308 L 950 308"></path><text xmlns="http://www.w3.org/2000/svg" x="955" y="314">45</text><path stroke-width="2" d="M 945 272 L 950 272" /><path d="M 945 272 L 950 272" stroke-width="2"></path><text x="955" y="278" xmlns="http://www.w3.org/2000/svg">89</text><path stroke-width="2" d="M 945 235 L 950 235" /><path stroke-width="2" d="M 945 235 L 950 235"></path><text x="955" y="241" xmlns="http://www.w3.org/2000/svg">134</text><path d="M 945 199 L 950 199" stroke-width="2" /><path stroke-width="2" d="M 945 199 L 950 199"></path><text xmlns="http://www.w3.org/2000/svg" x="955" y="205">178</text><path stroke-width="2" d="M 945 162 L 950 162" /><path d="M 945 162 L 950 162" stroke-width="2"></path><text xmlns="http://www.w3.org/2000/svg" x="955" y="168">223</text><path stroke-width="2" d="M 945 125 L 950 125" /><path stroke-width="2" d="M 945 125 L 950 125"></path><text xmlns="http://www.w3.org/2000/svg" x="955" y="131">267</text><path d="M 945 88 L 950 88" stroke-width="2" /><path stroke-width="2" d="M 945 88 L 950 88"></path><text xmlns="http://www.w3.org/2000/svg" x="955" y="94">312</text><path stroke-width="2" d="M 945 52 L 950 52" /><path stroke-width="2" d="M 945 52 L 950 52"></path><text xmlns="http://www.w3.org/2000/svg" x="955" y="58">356</text><path stroke-width="2" d="M 945 16 L 950 16" /><path stroke-width="2" d="M 945 16 L 950 16"></path><text xmlns="http://www.w3.org/2000/svg" x="955" y="22">400</text><text y="175" transform="rotate(90.00,987,175)" xmlns="http://www.w3.org/2000/svg" x="987">Stargazers</text><path stroke-width="2" d="M 57.000000 346.000000 L 945 346" /><path stroke-width="2" d="M 57.000000 346.000000 L 945 346"></path><path stroke-width="2" d="M 58 346 L 58 351" /><path stroke-width="2" d="M 58 346 L 58 351"></path><text xmlns="http://www.w3.org/2000/svg" x="25" y="368">2023-04-02</text><path stroke-width="2" d="M 157 346 L 157 351" /><path stroke-width="2" d="M 157 346 L 157 351"></path><text x="124" y="368" xmlns="http://www.w3.org/2000/svg">2023-05-11</text><path stroke-width="2" d="M 256 346 L 256 351" /><path stroke-width="2" d="M 256 346 L 256 351"></path><text xmlns="http://www.w3.org/2000/svg" x="223" y="368">2023-06-19</text><path stroke-width="2" d="M 354 346 L 354 351" /><path d="M 354 346 L 354 351" stroke-width="2"></path><text xmlns="http://www.w3.org/2000/svg" x="321" y="368">2023-07-28</text><path stroke-width="2" d="M 453 346 L 453 351" /><path stroke-width="2" d="M 453 346 L 453 351"></path><text xmlns="http://www.w3.org/2000/svg" x="420" y="368">2023-09-04</text><path stroke-width="2" d="M 551 346 L 551 351" /><path stroke-width="2" d="M 551 346 L 551 351"></path><text xmlns="http://www.w3.org/2000/svg" x="518" y="368">2023-10-13</text><path stroke-width="2" d="M 650 346 L 650 351" /><path stroke-width="2" d="M 650 346 L 650 351"></path><text xmlns="http://www.w3.org/2000/svg" x="617" y="368">2023-11-21</text><path stroke-width="2" d="M 748 346 L 748 351" /><path d="M 748 346 L 748 351" stroke-width="2"></path><text xmlns="http://www.w3.org/2000/svg" x="715" y="368">2023-12-30</text><path stroke-width="2" d="M 847 346 L 847 351" /><path stroke-width="2" d="M 847 346 L 847 351"></path><text xmlns="http://www.w3.org/2000/svg" x="814" y="368">2024-02-07</text><path stroke-width="2" d="M 945 346 L 945 351" /><path d="M 945 346 L 945 351" stroke-width="2"></path><text x="912" y="368" xmlns="http://www.w3.org/2000/svg">2024-03-17</text><text xmlns="http://www.w3.org/2000/svg" x="487" y="390">Time</text></svg>