<svg xmlns="http://www.w3.org/2000/svg" xmlns:xlink="http://www.w3.org/1999/xlink" width="1024" height="400">\n<path  d="M 0 0
L 1024 0
L 1024 400
L 0 400
L 0 0" style="stroke-width:0;stroke:rgba(255,255,255,1.0);fill:rgba(255,255,255,1.0)"/><path  d="M 38 11
L 965 11
L 965 351
L 38 351
L 38 11" style="stroke-width:0;stroke:rgba(255,255,255,1.0);fill:rgba(255,255,255,1.0)"/><path  d="M 38 351
L 965 351" style="stroke-width:2;stroke:rgba(85,85,85,1.0);fill:none"/><path  d="M 38 351
L 38 356" style="stroke-width:2;stroke:rgba(85,85,85,1.0);fill:none"/><text x="5" y="373" style="stroke-width:0;stroke:none;fill:rgba(51,51,51,1.0);font-size:12.8px;font-family:'Roboto Medium',sans-serif">2023-04-02</text><path  d="M 154 351
L 154 356" style="stroke-width:2;stroke:rgba(85,85,85,1.0);fill:none"/><text x="121" y="373" style="stroke-width:0;stroke:none;fill:rgba(51,51,51,1.0);font-size:12.8px;font-family:'Roboto Medium',sans-serif">2023-04-26</text><path  d="M 270 351
L 270 356" style="stroke-width:2;stroke:rgba(85,85,85,1.0);fill:none"/><text x="237" y="373" style="stroke-width:0;stroke:none;fill:rgba(51,51,51,1.0);font-size:12.8px;font-family:'Roboto Medium',sans-serif">2023-05-21</text><path  d="M 386 351
L 386 356" style="stroke-width:2;stroke:rgba(85,85,85,1.0);fill:none"/><text x="353" y="373" style="stroke-width:0;stroke:none;fill:rgba(51,51,51,1.0);font-size:12.8px;font-family:'Roboto Medium',sans-serif">2023-06-15</text><path  d="M 502 351
L 502 356" style="stroke-width:2;stroke:rgba(85,85,85,1.0);fill:none"/><text x="469" y="373" style="stroke-width:0;stroke:none;fill:rgba(51,51,51,1.0);font-size:12.8px;font-family:'Roboto Medium',sans-serif">2023-07-09</text><path  d="M 618 351
L 618 356" style="stroke-width:2;stroke:rgba(85,85,85,1.0);fill:none"/><text x="585" y="373" style="stroke-width:0;stroke:none;fill:rgba(51,51,51,1.0);font-size:12.8px;font-family:'Roboto Medium',sans-serif">2023-08-03</text><path  d="M 734 351
L 734 356" style="stroke-width:2;stroke:rgba(85,85,85,1.0);fill:none"/><text x="701" y="373" style="stroke-width:0;stroke:none;fill:rgba(51,51,51,1.0);font-size:12.8px;font-family:'Roboto Medium',sans-serif">2023-08-27</text><path  d="M 850 351
L 850 356" style="stroke-width:2;stroke:rgba(85,85,85,1.0);fill:none"/><text x="817" y="373" style="stroke-width:0;stroke:none;fill:rgba(51,51,51,1.0);font-size:12.8px;font-family:'Roboto Medium',sans-serif">2023-09-21</text><path  d="M 965 351
L 965 356" style="stroke-width:2;stroke:rgba(85,85,85,1.0);fill:none"/><text x="932" y="373" style="stroke-width:0;stroke:none;fill:rgba(51,51,51,1.0);font-size:12.8px;font-family:'Roboto Medium',sans-serif">2023-10-15</text><text x="487" y="395" style="stroke-width:0;stroke:none;fill:rgba(51,51,51,1.0);font-size:12.8px;font-family:'Roboto Medium',sans-serif">Time</text><path  d="M 967 351
L 967 11" style="stroke-width:2;stroke:rgba(85,85,85,1.0);fill:none"/><path  d="M 967 351
L 972 351" style="stroke-width:2;stroke:rgba(85,85,85,1.0);fill:none"/><text x="977" y="357" style="stroke-width:0;stroke:none;fill:rgba(51,51,51,1.0);font-size:12.8px;font-family:'Roboto Medium',sans-serif">0</text><path  d="M 967 308
L 972 308" style="stroke-width:2;stroke:rgba(85,85,85,1.0);fill:none"/><text x="977" y="314" style="stroke-width:0;stroke:none;fill:rgba(51,51,51,1.0);font-size:12.8px;font-family:'Roboto Medium',sans-serif">30</text><path  d="M 967 266
L 972 266" style="stroke-width:2;stroke:rgba(85,85,85,1.0);fill:none"/><text x="977" y="272" style="stroke-width:0;stroke:none;fill:rgba(51,51,51,1.0);font-size:12.8px;font-family:'Roboto Medium',sans-serif">60</text><path  d="M 967 223
L 972 223" style="stroke-width:2;stroke:rgba(85,85,85,1.0);fill:none"/><text x="977" y="229" style="stroke-width:0;stroke:none;fill:rgba(51,51,51,1.0);font-size:12.8px;font-family:'Roboto Medium',sans-serif">90</text><path  d="M 967 181
L 972 181" style="stroke-width:2;stroke:rgba(85,85,85,1.0);fill:none"/><text x="977" y="187" style="stroke-width:0;stroke:none;fill:rgba(51,51,51,1.0);font-size:12.8px;font-family:'Roboto Medium',sans-serif">120</text><path  d="M 967 138
L 972 138" style="stroke-width:2;stroke:rgba(85,85,85,1.0);fill:none"/><text x="977" y="144" style="stroke-width:0;stroke:none;fill:rgba(51,51,51,1.0);font-size:12.8px;font-family:'Roboto Medium',sans-serif">150</text><path  d="M 967 96
L 972 96" style="stroke-width:2;stroke:rgba(85,85,85,1.0);fill:none"/><text x="977" y="102" style="stroke-width:0;stroke:none;fill:rgba(51,51,51,1.0);font-size:12.8px;font-family:'Roboto Medium',sans-serif">180</text><path  d="M 967 53
L 972 53" style="stroke-width:2;stroke:rgba(85,85,85,1.0);fill:none"/><text x="977" y="59" style="stroke-width:0;stroke:none;fill:rgba(51,51,51,1.0);font-size:12.8px;font-family:'Roboto Medium',sans-serif">210</text><path  d="M 967 11
L 972 11" style="stroke-width:2;stroke:rgba(85,85,85,1.0);fill:none"/><text x="977" y="17" style="stroke-width:0;stroke:none;fill:rgba(51,51,51,1.0);font-size:12.8px;font-family:'Roboto Medium',sans-serif">240</text><text x="1009" y="150" style="stroke-width:0;stroke:none;fill:rgba(51,51,51,1.0);font-size:12.8px;font-family:'Roboto Medium',sans-serif" transform="rotate(90.00,1009,150)">Stargazers</text><path  d="M 38 351
L 47 349
L 104 348
L 106 346
L 106 345
L 106 343
L 106 342
L 106 341
L 106 339
L 106 338
L 107 336
L 107 335
L 108 334
L 108 332
L 108 331
L 108 329
L 108 328
L 108 326
L 110 325
L 110 324
L 113 322
L 114 321
L 115 319
L 119 318
L 122 317
L 122 315
L 122 314
L 124 312
L 124 311
L 127 309
L 133 308
L 134 307
L 138 305
L 142 304
L 160 302
L 161 301
L 161 300
L 161 298
L 161 297
L 161 295
L 161 294
L 172 292
L 176 291
L 179 290
L 188 288
L 202 287
L 208 285
L 233 284
L 241 283
L 255 281
L 269 280
L 275 278
L 329 277
L 332 275
L 332 274
L 339 273
L 341 271
L 341 270
L 341 268
L 341 267
L 341 266
L 341 264
L 341 263
L 341 261
L 341 260
L 341 258
L 341 257
L 342 256
L 344 254
L 344 253
L 344 251
L 344 250
L 344 249
L 344 247
L 344 246
L 344 244
L 344 243
L 344 241
L 344 240
L 344 239
L 344 237
L 344 236
L 344 234
L 344 233
L 344 232
L 344 230
L 344 229
L 344 227
L 345 226
L 345 224
L 345 223
L 345 222
L 345 220
L 345 219
L 345 217
L 345 216
L 345 215
L 345 213
L 345 212
L 345 210
L 345 209
L 346 207
L 346 206
L 347 205
L 348 203
L 348 202
L 349 200
L 350 199
L 350 198
L 353 196
L 353 195
L 353 193
L 353 192
L 353 190
L 353 189
L 353 188
L 353 186
L 353 185
L 353 183
L 353 182
L 353 181
L 353 179
L 353 178
L 353 176
L 354 175
L 354 173
L 355 172
L 359 171
L 359 169
L 359 168
L 360 166
L 372 165
L 373 163
L 373 162
L 378 161
L 378 159
L 386 158
L 395 156
L 398 155
L 405 154
L 408 152
L 414 151
L 416 149
L 417 148
L 426 147
L 427 145
L 430 144
L 433 142
L 435 141
L 439 139
L 439 138
L 440 137
L 441 135
L 445 134
L 450 132
L 450 131
L 452 130
L 454 128
L 454 127
L 457 125
L 463 124
L 467 122
L 475 121
L 478 120
L 481 118
L 485 117
L 485 115
L 486 114
L 492 113
L 515 111
L 516 110
L 519 108
L 541 107
L 542 105
L 542 104
L 542 103
L 543 101
L 547 100
L 553 98
L 557 97
L 558 96
L 585 94
L 590 93
L 596 91
L 604 90
L 610 88
L 610 87
L 613 86
L 632 84
L 653 83
L 676 81
L 679 80
L 679 79
L 680 77
L 681 76
L 686 74
L 718 73
L 732 71
L 733 70
L 745 69
L 748 67
L 749 66
L 784 64
L 785 63
L 787 62
L 788 60
L 793 59
L 803 57
L 807 56
L 814 54
L 818 53
L 826 52
L 846 50
L 847 49
L 850 47
L 851 46
L 852 45
L 853 43
L 863 42
L 864 40
L 884 39
L 912 37
L 927 36
L 943 35
L 944 33
L 952 32
L 954 30
L 959 29
L 964 28
L 964 26
L 964 25
L 964 23
L 964 22
L 964 20
L 964 19
L 964 18
L 965 16
L 965 15
L 965 13
L 965 12
L 965 11" style="stroke-width:2;stroke:rgba(129,199,239,1.0);fill:none"/></svg>