<svg xmlns="http://www.w3.org/2000/svg" xmlns:xlink="http://www.w3.org/1999/xlink" width="1024px" height="400px"><style type="text/css">
path { fill: none; stroke: rgb(51,51,51); }
path.series { stroke: #6b63ff; }
rect.background { fill: rgb(255,255,255); stroke: none; }

text {
	stroke-width: 0;
	stroke: none;
	fill: rgba(51,51,51,1.0);
	font-size: 12.8px;
	font-family: 'Roboto Medium', sans-serif;
}
</style><rect class="background" rx="8" x="0" y="0" width="1024px" height="400px" /><rect y="0" width="1024px" height="400px" class="background" rx="8" x="0"></rect><path stroke-width="2" class="series" d="M 58 345 L 61 345 L 75 344 L 75 344 L 75 344 L 75 343 L 75 343 L 75 343 L 75 342 L 75 342 L 75 342 L 75 341 L 75 341 L 75 341 L 75 340 L 76 340 L 76 340 L 76 339 L 76 339 L 77 339 L 77 338 L 77 338 L 78 338 L 79 337 L 79 337 L 79 337 L 79 336 L 80 336 L 82 336 L 82 335 L 83 335 L 84 335 L 88 334 L 88 334 L 88 333 L 88 333 L 89 333 L 91 332 L 92 332 L 93 332 L 95 331 L 99 331 L 100 331 L 106 330 L 108 330 L 111 330 L 115 329 L 116 329 L 130 329 L 130 328 L 130 328 L 132 328 L 132 327 L 132 327 L 132 327 L 132 326 L 132 326 L 132 326 L 132 325 L 132 325 L 133 325 L 133 324 L 133 324 L 133 324 L 133 323 L 133 323 L 133 322 L 133 322 L 133 322 L 133 321 L 133 321 L 133 321 L 133 320 L 133 320 L 133 320 L 133 319 L 133 319 L 133 319 L 133 318 L 133 318 L 133 318 L 133 317 L 133 317 L 133 317 L 133 316 L 133 316 L 133 316 L 133 315 L 133 315 L 133 315 L 133 314 L 133 314 L 133 314 L 133 313 L 133 313 L 134 313 L 134 312 L 134 312 L 134 311 L 134 311 L 134 311 L 134 310 L 134 310 L 135 310 L 135 309 L 135 309 L 135 309 L 135 308 L 135 308 L 135 308 L 135 307 L 135 307 L 135 307 L 135 306 L 135 306 L 135 306 L 135 305 L 136 305 L 136 305 L 136 304 L 136 304 L 136 304 L 136 303 L 137 303 L 137 303 L 137 302 L 137 302 L 140 302 L 140 301 L 140 301 L 142 300 L 142 300 L 144 300 L 146 299 L 146 299 L 148 299 L 149 298 L 150 298 L 151 298 L 151 297 L 153 297 L 153 297 L 154 296 L 155 296 L 156 296 L 156 295 L 157 295 L 157 295 L 157 294 L 158 294 L 159 294 L 159 293 L 160 293 L 160 293 L 160 292 L 161 292 L 162 292 L 163 291 L 165 291 L 166 291 L 167 290 L 168 290 L 168 289 L 168 289 L 169 289 L 175 288 L 175 288 L 176 288 L 181 287 L 182 287 L 182 287 L 182 286 L 182 286 L 183 286 L 184 285 L 185 285 L 186 285 L 192 284 L 193 284 L 195 284 L 197 283 L 198 283 L 198 283 L 199 282 L 204 282 L 209 282 L 215 281 L 215 281 L 215 281 L 215 280 L 216 280 L 217 280 L 225 279 L 228 279 L 228 278 L 231 278 L 232 278 L 232 277 L 241 277 L 241 277 L 242 276 L 242 276 L 243 276 L 245 275 L 246 275 L 248 275 L 249 274 L 251 274 L 256 274 L 256 273 L 257 273 L 257 273 L 257 272 L 258 272 L 260 272 L 265 271 L 276 271 L 280 271 L 282 270 L 282 270 L 284 270 L 285 269 L 285 269 L 285 269 L 285 268 L 285 268 L 285 267 L 285 267 L 285 267 L 285 266 L 285 266 L 285 266 L 285 265 L 285 265 L 286 265 L 286 264 L 288 264 L 288 264 L 288 263 L 288 263 L 289 263 L 289 262 L 289 262 L 289 262 L 289 261 L 290 261 L 290 261 L 290 260 L 291 260 L 291 260 L 292 259 L 292 259 L 292 259 L 292 258 L 293 258 L 293 258 L 293 257 L 293 257 L 294 256 L 294 256 L 294 256 L 295 255 L 296 255 L 297 255 L 298 254 L 300 254 L 300 254 L 301 253 L 301 253 L 301 253 L 301 252 L 301 252 L 302 252 L 303 251 L 305 251 L 305 251 L 305 250 L 307 250 L 308 250 L 308 249 L 310 249 L 311 249 L 311 248 L 312 248 L 312 248 L 316 247 L 317 247 L 317 247 L 320 246 L 322 246 L 325 245 L 326 245 L 326 245 L 327 244 L 328 244 L 328 244 L 330 243 L 332 243 L 333 243 L 334 242 L 335 242 L 336 242 L 336 241 L 336 241 L 336 241 L 336 240 L 337 240 L 337 240 L 338 239 L 338 239 L 338 239 L 339 238 L 343 238 L 347 238 L 347 237 L 347 237 L 350 237 L 352 236 L 353 236 L 353 236 L 354 235 L 355 235 L 355 234 L 355 234 L 355 234 L 355 233 L 355 233 L 355 233 L 356 232 L 356 232 L 357 232 L 359 231 L 359 231 L 359 231 L 359 230 L 359 230 L 359 230 L 359 229 L 360 229 L 360 229 L 360 228 L 360 228 L 360 228 L 360 227 L 363 227 L 366 227 L 366 226 L 366 226 L 376 226 L 377 225 L 380 225 L 382 225 L 390 224 L 392 224 L 392 223 L 392 223 L 392 223 L 392 222 L 392 222 L 392 222 L 393 221 L 394 221 L 401 221 L 403 220 L 406 220 L 412 220 L 416 219 L 419 219 L 421 219 L 425 218 L 425 218 L 433 218 L 442 217 L 442 217 L 448 217 L 448 216 L 452 216 L 453 216 L 456 215 L 456 215 L 456 215 L 457 214 L 459 214 L 460 214 L 463 213 L 466 213 L 467 212 L 467 212 L 468 212 L 471 211 L 474 211 L 474 211 L 478 210 L 481 210 L 482 210 L 482 209 L 484 209 L 484 209 L 485 208 L 488 208 L 490 208 L 493 207 L 495 207 L 495 207 L 499 206 L 500 206 L 503 206 L 507 205 L 507 205 L 511 205 L 512 204 L 512 204 L 513 204 L 514 203 L 516 203 L 516 203 L 518 202 L 520 202 L 521 201 L 521 201 L 522 201 L 529 200 L 529 200 L 529 200 L 529 199 L 530 199 L 530 199 L 531 198 L 531 198 L 531 198 L 533 197 L 533 197 L 535 197 L 535 196 L 536 196 L 536 196 L 537 195 L 537 195 L 538 195 L 538 194 L 538 194 L 539 194 L 539 193 L 539 193 L 539 193 L 540 192 L 541 192 L 541 192 L 542 191 L 542 191 L 543 190 L 544 190 L 545 190 L 545 189 L 546 189 L 547 189 L 548 188 L 548 188 L 549 188 L 549 187 L 551 187 L 551 187 L 551 186 L 551 186 L 551 186 L 552 185 L 552 185 L 552 185 L 553 184 L 554 184 L 556 184 L 557 183 L 559 183 L 559 183 L 561 182 L 562 182 L 563 182 L 565 181 L 567 181 L 569 181 L 571 180 L 572 180 L 572 179 L 572 179 L 572 179 L 573 178 L 573 178 L 573 178 L 574 177 L 574 177 L 574 177 L 575 176 L 576 176 L 577 176 L 577 175 L 578 175 L 578 175 L 580 174 L 581 174 L 581 174 L 582 173 L 583 173 L 585 173 L 591 172 L 591 172 L 591 172 L 591 171 L 593 171 L 595 171 L 595 170 L 595 170 L 595 170 L 596 169 L 597 169 L 600 168 L 601 168 L 601 168 L 601 167 L 603 167 L 603 167 L 603 166 L 603 166 L 606 166 L 609 165 L 609 165 L 613 165 L 613 164 L 614 164 L 617 164 L 618 163 L 620 163 L 622 163 L 624 162 L 625 162 L 625 162 L 625 161 L 625 161 L 625 161 L 625 160 L 626 160 L 627 160 L 627 159 L 628 159 L 628 159 L 628 158 L 629 158 L 630 157 L 630 157 L 634 157 L 635 156 L 639 156 L 641 156 L 642 155 L 642 155 L 643 155 L 645 154 L 646 154 L 647 154 L 647 153 L 647 153 L 647 153 L 647 152 L 647 152 L 647 152 L 648 151 L 648 151 L 648 151 L 648 150 L 649 150 L 649 150 L 650 149 L 651 149 L 651 149 L 652 148 L 652 148 L 653 148 L 653 147 L 653 147 L 654 146 L 655 146 L 658 146 L 658 145 L 658 145 L 658 145 L 658 144 L 659 144 L 659 144 L 659 143 L 660 143 L 662 143 L 664 142 L 667 142 L 668 142 L 670 141 L 673 141 L 676 141 L 676 140 L 679 140 L 683 140 L 683 139 L 683 139 L 687 139 L 689 138 L 689 138 L 690 138 L 690 137 L 698 137 L 698 137 L 699 136 L 699 136 L 700 135 L 700 135 L 701 135 L 702 134 L 702 134 L 703 134 L 703 133 L 703 133 L 704 133 L 704 132 L 704 132 L 704 132 L 704 131 L 704 131 L 704 131 L 706 130 L 707 130 L 708 130 L 708 129 L 709 129 L 709 129 L 710 128 L 711 128 L 711 128 L 712 127 L 712 127 L 712 127 L 712 126 L 714 126 L 714 126 L 715 125 L 715 125 L 717 124 L 717 124 L 717 124 L 718 123 L 718 123 L 718 123 L 719 122 L 719 122 L 719 122 L 720 121 L 720 121 L 722 121 L 722 120 L 722 120 L 722 120 L 722 119 L 723 119 L 723 119 L 723 118 L 723 118 L 725 118 L 725 117 L 725 117 L 725 117 L 726 116 L 726 116 L 726 116 L 726 115 L 726 115 L 727 115 L 727 114 L 727 114 L 727 113 L 727 113 L 729 113 L 730 112 L 733 112 L 733 112 L 733 111 L 733 111 L 734 111 L 735 110 L 735 110 L 736 110 L 738 109 L 741 109 L 741 109 L 742 108 L 743 108 L 743 108 L 744 107 L 744 107 L 745 107 L 745 106 L 745 106 L 745 106 L 745 105 L 745 105 L 745 105 L 746 104 L 746 104 L 746 104 L 746 103 L 746 103 L 747 102 L 747 102 L 747 102 L 748 101 L 750 101 L 750 101 L 750 100 L 750 100 L 752 100 L 752 99 L 752 99 L 755 99 L 756 98 L 756 98 L 756 98 L 756 97 L 756 97 L 758 97 L 760 96 L 761 96 L 763 96 L 763 95 L 763 95 L 763 95 L 764 94 L 768 94 L 770 94 L 773 93 L 775 93 L 775 92 L 776 92 L 778 92 L 778 91 L 778 91 L 778 91 L 779 90 L 779 90 L 780 90 L 780 89 L 781 89 L 783 89 L 783 88 L 783 88 L 783 88 L 783 87 L 783 87 L 783 87 L 783 86 L 783 86 L 783 86 L 783 85 L 783 85 L 783 85 L 784 84 L 784 84 L 784 84 L 784 83 L 784 83 L 784 83 L 785 82 L 785 82 L 785 82 L 785 81 L 785 81 L 786 80 L 786 80 L 786 80 L 787 79 L 787 79 L 787 79 L 787 78 L 787 78 L 787 78 L 788 77 L 789 77 L 791 77 L 792 76 L 792 76 L 793 76 L 793 75 L 794 75 L 794 75 L 796 74 L 797 74 L 799 74 L 799 73 L 799 73 L 799 73 L 799 72 L 799 72 L 799 72 L 801 71 L 801 71 L 801 71 L 805 70 L 806 70 L 808 69 L 810 69 L 811 69 L 812 68 L 812 68 L 812 68 L 812 67 L 813 67 L 813 67 L 814 66 L 814 66 L 815 66 L 815 65 L 816 65 L 816 65 L 816 64 L 816 64 L 816 64 L 816 63 L 816 63 L 817 63 L 817 62 L 817 62 L 819 62 L 819 61 L 819 61 L 820 61 L 820 60 L 820 60 L 821 60 L 822 59 L 822 59 L 822 58 L 823 58 L 823 58 L 824 57 L 828 57 L 828 57 L 829 56 L 832 56 L 833 56 L 834 55 L 837 55 L 838 55 L 838 54 L 841 54 L 846 54 L 847 53 L 849 53 L 851 53 L 853 52 L 853 52 L 853 52 L 855 51 L 856 51 L 856 51 L 857 50 L 859 50 L 860 50 L 861 49 L 861 49 L 862 49 L 862 48 L 862 48 L 863 47 L 867 47 L 867 47 L 868 46 L 869 46 L 869 46 L 871 45 L 871 45 L 872 45 L 872 44 L 873 44 L 873 44 L 874 43 L 875 43 L 875 43 L 876 42 L 877 42 L 877 42 L 877 41 L 878 41 L 879 41 L 879 40 L 879 40 L 880 40 L 880 39 L 880 39 L 880 39 L 881 38 L 881 38 L 882 38 L 884 37 L 885 37 L 885 36 L 886 36 L 889 36 L 890 35 L 891 35 L 892 35 L 895 34 L 897 34 L 899 34 L 900 33 L 901 33 L 902 33 L 904 32 L 906 32 L 907 32 L 908 31 L 908 31 L 908 31 L 908 30 L 908 30 L 909 30 L 910 29 L 911 29 L 912 29 L 913 28 L 913 28 L 913 28 L 919 27 L 920 27 L 921 27 L 923 26 L 925 26 L 926 25 L 926 25 L 927 25 L 927 24 L 927 24 L 928 24 L 929 23 L 929 23 L 930 23 L 930 22 L 930 22 L 931 22 L 931 21 L 933 21 L 933 21 L 937 20 L 937 20 L 942 20 L 943 19 L 943 19 L 944 19 L 945 18 L 945 18 L 945 18 L 945 17" /><path stroke-width="2" class="series" d="M 58 345 L 61 345 L 75 344 L 75 344 L 75 344 L 75 343 L 75 343 L 75 343 L 75 342 L 75 342 L 75 342 L 75 341 L 75 341 L 75 341 L 75 340 L 76 340 L 76 340 L 76 339 L 76 339 L 77 339 L 77 338 L 77 338 L 78 338 L 79 337 L 79 337 L 79 337 L 79 336 L 80 336 L 82 336 L 82 335 L 83 335 L 84 335 L 88 334 L 88 334 L 88 333 L 88 333 L 89 333 L 91 332 L 92 332 L 93 332 L 95 331 L 99 331 L 100 331 L 106 330 L 108 330 L 111 330 L 115 329 L 116 329 L 130 329 L 130 328 L 130 328 L 132 328 L 132 327 L 132 327 L 132 327 L 132 326 L 132 326 L 132 326 L 132 325 L 132 325 L 133 325 L 133 324 L 133 324 L 133 324 L 133 323 L 133 323 L 133 322 L 133 322 L 133 322 L 133 321 L 133 321 L 133 321 L 133 320 L 133 320 L 133 320 L 133 319 L 133 319 L 133 319 L 133 318 L 133 318 L 133 318 L 133 317 L 133 317 L 133 317 L 133 316 L 133 316 L 133 316 L 133 315 L 133 315 L 133 315 L 133 314 L 133 314 L 133 314 L 133 313 L 133 313 L 134 313 L 134 312 L 134 312 L 134 311 L 134 311 L 134 311 L 134 310 L 134 310 L 135 310 L 135 309 L 135 309 L 135 309 L 135 308 L 135 308 L 135 308 L 135 307 L 135 307 L 135 307 L 135 306 L 135 306 L 135 306 L 135 305 L 136 305 L 136 305 L 136 304 L 136 304 L 136 304 L 136 303 L 137 303 L 137 303 L 137 302 L 137 302 L 140 302 L 140 301 L 140 301 L 142 300 L 142 300 L 144 300 L 146 299 L 146 299 L 148 299 L 149 298 L 150 298 L 151 298 L 151 297 L 153 297 L 153 297 L 154 296 L 155 296 L 156 296 L 156 295 L 157 295 L 157 295 L 157 294 L 158 294 L 159 294 L 159 293 L 160 293 L 160 293 L 160 292 L 161 292 L 162 292 L 163 291 L 165 291 L 166 291 L 167 290 L 168 290 L 168 289 L 168 289 L 169 289 L 175 288 L 175 288 L 176 288 L 181 287 L 182 287 L 182 287 L 182 286 L 182 286 L 183 286 L 184 285 L 185 285 L 186 285 L 192 284 L 193 284 L 195 284 L 197 283 L 198 283 L 198 283 L 199 282 L 204 282 L 209 282 L 215 281 L 215 281 L 215 281 L 215 280 L 216 280 L 217 280 L 225 279 L 228 279 L 228 278 L 231 278 L 232 278 L 232 277 L 241 277 L 241 277 L 242 276 L 242 276 L 243 276 L 245 275 L 246 275 L 248 275 L 249 274 L 251 274 L 256 274 L 256 273 L 257 273 L 257 273 L 257 272 L 258 272 L 260 272 L 265 271 L 276 271 L 280 271 L 282 270 L 282 270 L 284 270 L 285 269 L 285 269 L 285 269 L 285 268 L 285 268 L 285 267 L 285 267 L 285 267 L 285 266 L 285 266 L 285 266 L 285 265 L 285 265 L 286 265 L 286 264 L 288 264 L 288 264 L 288 263 L 288 263 L 289 263 L 289 262 L 289 262 L 289 262 L 289 261 L 290 261 L 290 261 L 290 260 L 291 260 L 291 260 L 292 259 L 292 259 L 292 259 L 292 258 L 293 258 L 293 258 L 293 257 L 293 257 L 294 256 L 294 256 L 294 256 L 295 255 L 296 255 L 297 255 L 298 254 L 300 254 L 300 254 L 301 253 L 301 253 L 301 253 L 301 252 L 301 252 L 302 252 L 303 251 L 305 251 L 305 251 L 305 250 L 307 250 L 308 250 L 308 249 L 310 249 L 311 249 L 311 248 L 312 248 L 312 248 L 316 247 L 317 247 L 317 247 L 320 246 L 322 246 L 325 245 L 326 245 L 326 245 L 327 244 L 328 244 L 328 244 L 330 243 L 332 243 L 333 243 L 334 242 L 335 242 L 336 242 L 336 241 L 336 241 L 336 241 L 336 240 L 337 240 L 337 240 L 338 239 L 338 239 L 338 239 L 339 238 L 343 238 L 347 238 L 347 237 L 347 237 L 350 237 L 352 236 L 353 236 L 353 236 L 354 235 L 355 235 L 355 234 L 355 234 L 355 234 L 355 233 L 355 233 L 355 233 L 356 232 L 356 232 L 357 232 L 359 231 L 359 231 L 359 231 L 359 230 L 359 230 L 359 230 L 359 229 L 360 229 L 360 229 L 360 228 L 360 228 L 360 228 L 360 227 L 363 227 L 366 227 L 366 226 L 366 226 L 376 226 L 377 225 L 380 225 L 382 225 L 390 224 L 392 224 L 392 223 L 392 223 L 392 223 L 392 222 L 392 222 L 392 222 L 393 221 L 394 221 L 401 221 L 403 220 L 406 220 L 412 220 L 416 219 L 419 219 L 421 219 L 425 218 L 425 218 L 433 218 L 442 217 L 442 217 L 448 217 L 448 216 L 452 216 L 453 216 L 456 215 L 456 215 L 456 215 L 457 214 L 459 214 L 460 214 L 463 213 L 466 213 L 467 212 L 467 212 L 468 212 L 471 211 L 474 211 L 474 211 L 478 210 L 481 210 L 482 210 L 482 209 L 484 209 L 484 209 L 485 208 L 488 208 L 490 208 L 493 207 L 495 207 L 495 207 L 499 206 L 500 206 L 503 206 L 507 205 L 507 205 L 511 205 L 512 204 L 512 204 L 513 204 L 514 203 L 516 203 L 516 203 L 518 202 L 520 202 L 521 201 L 521 201 L 522 201 L 529 200 L 529 200 L 529 200 L 529 199 L 530 199 L 530 199 L 531 198 L 531 198 L 531 198 L 533 197 L 533 197 L 535 197 L 535 196 L 536 196 L 536 196 L 537 195 L 537 195 L 538 195 L 538 194 L 538 194 L 539 194 L 539 193 L 539 193 L 539 193 L 540 192 L 541 192 L 541 192 L 542 191 L 542 191 L 543 190 L 544 190 L 545 190 L 545 189 L 546 189 L 547 189 L 548 188 L 548 188 L 549 188 L 549 187 L 551 187 L 551 187 L 551 186 L 551 186 L 551 186 L 552 185 L 552 185 L 552 185 L 553 184 L 554 184 L 556 184 L 557 183 L 559 183 L 559 183 L 561 182 L 562 182 L 563 182 L 565 181 L 567 181 L 569 181 L 571 180 L 572 180 L 572 179 L 572 179 L 572 179 L 573 178 L 573 178 L 573 178 L 574 177 L 574 177 L 574 177 L 575 176 L 576 176 L 577 176 L 577 175 L 578 175 L 578 175 L 580 174 L 581 174 L 581 174 L 582 173 L 583 173 L 585 173 L 591 172 L 591 172 L 591 172 L 591 171 L 593 171 L 595 171 L 595 170 L 595 170 L 595 170 L 596 169 L 597 169 L 600 168 L 601 168 L 601 168 L 601 167 L 603 167 L 603 167 L 603 166 L 603 166 L 606 166 L 609 165 L 609 165 L 613 165 L 613 164 L 614 164 L 617 164 L 618 163 L 620 163 L 622 163 L 624 162 L 625 162 L 625 162 L 625 161 L 625 161 L 625 161 L 625 160 L 626 160 L 627 160 L 627 159 L 628 159 L 628 159 L 628 158 L 629 158 L 630 157 L 630 157 L 634 157 L 635 156 L 639 156 L 641 156 L 642 155 L 642 155 L 643 155 L 645 154 L 646 154 L 647 154 L 647 153 L 647 153 L 647 153 L 647 152 L 647 152 L 647 152 L 648 151 L 648 151 L 648 151 L 648 150 L 649 150 L 649 150 L 650 149 L 651 149 L 651 149 L 652 148 L 652 148 L 653 148 L 653 147 L 653 147 L 654 146 L 655 146 L 658 146 L 658 145 L 658 145 L 658 145 L 658 144 L 659 144 L 659 144 L 659 143 L 660 143 L 662 143 L 664 142 L 667 142 L 668 142 L 670 141 L 673 141 L 676 141 L 676 140 L 679 140 L 683 140 L 683 139 L 683 139 L 687 139 L 689 138 L 689 138 L 690 138 L 690 137 L 698 137 L 698 137 L 699 136 L 699 136 L 700 135 L 700 135 L 701 135 L 702 134 L 702 134 L 703 134 L 703 133 L 703 133 L 704 133 L 704 132 L 704 132 L 704 132 L 704 131 L 704 131 L 704 131 L 706 130 L 707 130 L 708 130 L 708 129 L 709 129 L 709 129 L 710 128 L 711 128 L 711 128 L 712 127 L 712 127 L 712 127 L 712 126 L 714 126 L 714 126 L 715 125 L 715 125 L 717 124 L 717 124 L 717 124 L 718 123 L 718 123 L 718 123 L 719 122 L 719 122 L 719 122 L 720 121 L 720 121 L 722 121 L 722 120 L 722 120 L 722 120 L 722 119 L 723 119 L 723 119 L 723 118 L 723 118 L 725 118 L 725 117 L 725 117 L 725 117 L 726 116 L 726 116 L 726 116 L 726 115 L 726 115 L 727 115 L 727 114 L 727 114 L 727 113 L 727 113 L 729 113 L 730 112 L 733 112 L 733 112 L 733 111 L 733 111 L 734 111 L 735 110 L 735 110 L 736 110 L 738 109 L 741 109 L 741 109 L 742 108 L 743 108 L 743 108 L 744 107 L 744 107 L 745 107 L 745 106 L 745 106 L 745 106 L 745 105 L 745 105 L 745 105 L 746 104 L 746 104 L 746 104 L 746 103 L 746 103 L 747 102 L 747 102 L 747 102 L 748 101 L 750 101 L 750 101 L 750 100 L 750 100 L 752 100 L 752 99 L 752 99 L 755 99 L 756 98 L 756 98 L 756 98 L 756 97 L 756 97 L 758 97 L 760 96 L 761 96 L 763 96 L 763 95 L 763 95 L 763 95 L 764 94 L 768 94 L 770 94 L 773 93 L 775 93 L 775 92 L 776 92 L 778 92 L 778 91 L 778 91 L 778 91 L 779 90 L 779 90 L 780 90 L 780 89 L 781 89 L 783 89 L 783 88 L 783 88 L 783 88 L 783 87 L 783 87 L 783 87 L 783 86 L 783 86 L 783 86 L 783 85 L 783 85 L 783 85 L 784 84 L 784 84 L 784 84 L 784 83 L 784 83 L 784 83 L 785 82 L 785 82 L 785 82 L 785 81 L 785 81 L 786 80 L 786 80 L 786 80 L 787 79 L 787 79 L 787 79 L 787 78 L 787 78 L 787 78 L 788 77 L 789 77 L 791 77 L 792 76 L 792 76 L 793 76 L 793 75 L 794 75 L 794 75 L 796 74 L 797 74 L 799 74 L 799 73 L 799 73 L 799 73 L 799 72 L 799 72 L 799 72 L 801 71 L 801 71 L 801 71 L 805 70 L 806 70 L 808 69 L 810 69 L 811 69 L 812 68 L 812 68 L 812 68 L 812 67 L 813 67 L 813 67 L 814 66 L 814 66 L 815 66 L 815 65 L 816 65 L 816 65 L 816 64 L 816 64 L 816 64 L 816 63 L 816 63 L 817 63 L 817 62 L 817 62 L 819 62 L 819 61 L 819 61 L 820 61 L 820 60 L 820 60 L 821 60 L 822 59 L 822 59 L 822 58 L 823 58 L 823 58 L 824 57 L 828 57 L 828 57 L 829 56 L 832 56 L 833 56 L 834 55 L 837 55 L 838 55 L 838 54 L 841 54 L 846 54 L 847 53 L 849 53 L 851 53 L 853 52 L 853 52 L 853 52 L 855 51 L 856 51 L 856 51 L 857 50 L 859 50 L 860 50 L 861 49 L 861 49 L 862 49 L 862 48 L 862 48 L 863 47 L 867 47 L 867 47 L 868 46 L 869 46 L 869 46 L 871 45 L 871 45 L 872 45 L 872 44 L 873 44 L 873 44 L 874 43 L 875 43 L 875 43 L 876 42 L 877 42 L 877 42 L 877 41 L 878 41 L 879 41 L 879 40 L 879 40 L 880 40 L 880 39 L 880 39 L 880 39 L 881 38 L 881 38 L 882 38 L 884 37 L 885 37 L 885 36 L 886 36 L 889 36 L 890 35 L 891 35 L 892 35 L 895 34 L 897 34 L 899 34 L 900 33 L 901 33 L 902 33 L 904 32 L 906 32 L 907 32 L 908 31 L 908 31 L 908 31 L 908 30 L 908 30 L 909 30 L 910 29 L 911 29 L 912 29 L 913 28 L 913 28 L 913 28 L 919 27 L 920 27 L 921 27 L 923 26 L 925 26 L 926 25 L 926 25 L 927 25 L 927 24 L 927 24 L 928 24 L 929 23 L 929 23 L 930 23 L 930 22 L 930 22 L 931 22 L 931 21 L 933 21 L 933 21 L 937 20 L 937 20 L 942 20 L 943 19 L 943 19 L 944 19 L 945 18 L 945 18 L 945 18 L 945 17"></path><path stroke-width="2" d="M 945 346 L 945.000000 15.000000" /><path stroke-width="2" d="M 945 346 L 945.000000 15.000000"></path><path d="M 945 346 L 950 346" stroke-width="2" /><path d="M 945 346 L 950 346" stroke-width="2"></path><text x="955" y="352" xmlns="http://www.w3.org/2000/svg">0</text><path stroke-width="2" d="M 945 309 L 950 309" /><path stroke-width="2" d="M 945 309 L 950 309"></path><text xmlns="http://www.w3.org/2000/svg" x="955" y="315">107</text><path stroke-width="2" d="M 945 272 L 950 272" /><path stroke-width="2" d="M 945 272 L 950 272"></path><text x="955" y="278" xmlns="http://www.w3.org/2000/svg">214</text><path stroke-width="2" d="M 945 236 L 950 236" /><path stroke-width="2" d="M 945 236 L 950 236"></path><text xmlns="http://www.w3.org/2000/svg" x="955" y="242">320</text><path stroke-width="2" d="M 945 199 L 950 199" /><path stroke-width="2" d="M 945 199 L 950 199"></path><text xmlns="http://www.w3.org/2000/svg" x="955" y="205">427</text><path stroke-width="2" d="M 945 162 L 950 162" /><path stroke-width="2" d="M 945 162 L 950 162"></path><text xmlns="http://www.w3.org/2000/svg" x="955" y="168">534</text><path stroke-width="2" d="M 945 126 L 950 126" /><path stroke-width="2" d="M 945 126 L 950 126"></path><text xmlns="http://www.w3.org/2000/svg" x="955" y="132">640</text><path d="M 945 89 L 950 89" stroke-width="2" /><path stroke-width="2" d="M 945 89 L 950 89"></path><text xmlns="http://www.w3.org/2000/svg" x="955" y="95">747</text><path stroke-width="2" d="M 945 52 L 950 52" /><path stroke-width="2" d="M 945 52 L 950 52"></path><text xmlns="http://www.w3.org/2000/svg" x="955" y="58">854</text><path stroke-width="2" d="M 945 16 L 950 16" /><path stroke-width="2" d="M 945 16 L 950 16"></path><text xmlns="http://www.w3.org/2000/svg" x="955" y="22">960</text><text x="987" y="175" transform="rotate(90.00,987,175)" xmlns="http://www.w3.org/2000/svg">Stargazers</text><path stroke-width="2" d="M 57.000000 346.000000 L 945 346" /><path stroke-width="2" d="M 57.000000 346.000000 L 945 346"></path><path stroke-width="2" d="M 58 346 L 58 351" /><path stroke-width="2" d="M 58 346 L 58 351"></path><text y="368" xmlns="http://www.w3.org/2000/svg" x="25">2023-04-02</text><path stroke-width="2" d="M 157 346 L 157 351" /><path stroke-width="2" d="M 157 346 L 157 351"></path><text xmlns="http://www.w3.org/2000/svg" x="124" y="368">2023-06-26</text><path stroke-width="2" d="M 256 346 L 256 351" /><path stroke-width="2" d="M 256 346 L 256 351"></path><text x="223" y="368" xmlns="http://www.w3.org/2000/svg">2023-09-20</text><path stroke-width="2" d="M 354 346 L 354 351" /><path stroke-width="2" d="M 354 346 L 354 351"></path><text x="321" y="368" xmlns="http://www.w3.org/2000/svg">2023-12-14</text><path stroke-width="2" d="M 453 346 L 453 351" /><path stroke-width="2" d="M 453 346 L 453 351"></path><text x="420" y="368" xmlns="http://www.w3.org/2000/svg">2024-03-08</text><path d="M 551 346 L 551 351" stroke-width="2" /><path stroke-width="2" d="M 551 346 L 551 351"></path><text x="518" y="368" xmlns="http://www.w3.org/2000/svg">2024-06-02</text><path stroke-width="2" d="M 650 346 L 650 351" /><path stroke-width="2" d="M 650 346 L 650 351"></path><text xmlns="http://www.w3.org/2000/svg" x="617" y="368">2024-08-26</text><path stroke-width="2" d="M 748 346 L 748 351" /><path stroke-width="2" d="M 748 346 L 748 351"></path><text xmlns="http://www.w3.org/2000/svg" x="715" y="368">2024-11-19</text><path stroke-width="2" d="M 847 346 L 847 351" /><path stroke-width="2" d="M 847 346 L 847 351"></path><text xmlns="http://www.w3.org/2000/svg" x="814" y="368">2025-02-13</text><path stroke-width="2" d="M 945 346 L 945 351" /><path stroke-width="2" d="M 945 346 L 945 351"></path><text xmlns="http://www.w3.org/2000/svg" x="912" y="368">2025-05-09</text><text xmlns="http://www.w3.org/2000/svg" x="487" y="390">Time</text></svg>