<svg xmlns="http://www.w3.org/2000/svg" xmlns:xlink="http://www.w3.org/1999/xlink" width="1024px" height="400px"><style type="text/css">
path { fill: none; stroke: rgb(51,51,51); }
path.series { stroke: #6b63ff; }
rect.background { fill: rgb(255,255,255); stroke: none; }

text {
	stroke-width: 0;
	stroke: none;
	fill: rgba(51,51,51,1.0);
	font-size: 12.8px;
	font-family: 'Roboto Medium', sans-serif;
}
</style><rect class="background" rx="8" x="0" y="0" width="1024px" height="400px" /><rect x="0" y="0" width="1024px" height="400px" class="background" rx="8"></rect><path class="series" d="M 58 345 L 64 344 L 101 343 L 102 342 L 102 341 L 102 340 L 102 339 L 102 339 L 102 338 L 102 337 L 103 336 L 103 335 L 103 334 L 103 333 L 103 332 L 103 332 L 104 331 L 104 330 L 105 329 L 105 328 L 107 327 L 108 326 L 108 326 L 111 325 L 112 324 L 112 323 L 113 322 L 114 321 L 116 320 L 120 319 L 120 319 L 123 318 L 126 317 L 137 316 L 138 315 L 138 314 L 138 313 L 138 313 L 138 312 L 138 311 L 145 310 L 148 309 L 150 308 L 155 307 L 165 306 L 168 306 L 185 305 L 190 304 L 199 303 L 208 302 L 212 301 L 247 300 L 249 299 L 249 299 L 253 298 L 254 297 L 254 296 L 254 295 L 254 294 L 254 293 L 254 293 L 254 292 L 255 291 L 255 290 L 255 289 L 255 288 L 255 287 L 256 286 L 256 286 L 256 285 L 256 284 L 256 283 L 256 282 L 256 281 L 256 280 L 256 280 L 256 279 L 256 278 L 256 277 L 256 276 L 256 275 L 256 274 L 256 273 L 256 273 L 257 272 L 257 271 L 257 270 L 257 269 L 257 268 L 257 267 L 257 266 L 257 266 L 257 265 L 257 264 L 257 263 L 257 262 L 257 261 L 257 260 L 257 260 L 257 259 L 258 258 L 258 257 L 258 256 L 259 255 L 259 254 L 259 253 L 260 253 L 260 252 L 262 251 L 262 250 L 262 249 L 262 248 L 262 247 L 262 247 L 262 246 L 262 245 L 262 244 L 262 243 L 262 242 L 262 241 L 262 240 L 263 240 L 263 239 L 263 238 L 263 237 L 264 236 L 266 235 L 266 234 L 266 233 L 267 233 L 275 232 L 275 231 L 275 230 L 278 229 L 279 228 L 284 227 L 290 227 L 291 226 L 296 225 L 298 224 L 302 223 L 303 222 L 304 221 L 309 220 L 310 220 L 312 219 L 314 218 L 316 217 L 318 216 L 318 215 L 319 214 L 319 214 L 322 213 L 325 212 L 325 211 L 327 210 L 327 209 L 328 208 L 330 207 L 334 207 L 336 206 L 342 205 L 344 204 L 345 203 L 348 202 L 348 201 L 349 200 L 352 200 L 367 199 L 368 198 L 370 197 L 384 196 L 385 195 L 385 194 L 385 194 L 386 193 L 388 192 L 392 191 L 395 190 L 395 189 L 412 188 L 416 187 L 420 187 L 425 186 L 429 185 L 429 184 L 431 183 L 443 182 L 456 181 L 472 181 L 473 180 L 473 179 L 474 178 L 475 177 L 478 176 L 499 175 L 508 174 L 509 174 L 516 173 L 518 172 L 519 171 L 542 170 L 542 169 L 544 168 L 544 167 L 547 167 L 554 166 L 556 165 L 561 164 L 564 163 L 569 162 L 582 161 L 582 161 L 585 160 L 585 159 L 585 158 L 586 157 L 593 156 L 593 155 L 606 154 L 625 154 L 634 153 L 645 152 L 646 151 L 651 150 L 651 149 L 655 148 L 658 148 L 658 147 L 658 146 L 658 145 L 658 144 L 658 143 L 658 142 L 658 141 L 659 141 L 659 140 L 659 139 L 659 138 L 659 137 L 660 136 L 661 135 L 663 134 L 665 134 L 666 133 L 667 132 L 667 131 L 667 130 L 670 129 L 670 128 L 670 128 L 670 127 L 670 126 L 671 125 L 671 124 L 673 123 L 673 122 L 674 121 L 675 121 L 676 120 L 676 119 L 676 118 L 677 117 L 679 116 L 679 115 L 679 115 L 680 114 L 682 113 L 682 112 L 683 111 L 685 110 L 688 109 L 689 108 L 693 108 L 698 107 L 698 106 L 700 105 L 700 104 L 700 103 L 700 102 L 701 101 L 705 101 L 706 100 L 710 99 L 710 98 L 712 97 L 716 96 L 720 95 L 720 95 L 726 94 L 727 93 L 728 92 L 730 91 L 730 90 L 741 89 L 743 88 L 744 88 L 752 87 L 756 86 L 765 85 L 767 84 L 768 83 L 770 82 L 771 82 L 771 81 L 778 80 L 783 79 L 786 78 L 787 77 L 790 76 L 793 75 L 793 75 L 793 74 L 793 73 L 795 72 L 795 71 L 796 70 L 798 69 L 798 68 L 799 68 L 801 67 L 811 66 L 823 65 L 823 64 L 823 63 L 831 62 L 836 62 L 837 61 L 838 60 L 841 59 L 844 58 L 844 57 L 844 56 L 844 55 L 844 55 L 845 54 L 845 53 L 846 52 L 846 51 L 848 50 L 854 49 L 854 49 L 854 48 L 854 47 L 855 46 L 856 45 L 856 44 L 856 43 L 856 42 L 856 42 L 856 41 L 857 40 L 860 39 L 866 38 L 872 37 L 872 36 L 874 35 L 886 35 L 899 34 L 902 33 L 909 32 L 915 31 L 930 30 L 935 29 L 941 29 L 941 28 L 941 27 L 941 26 L 942 25 L 942 24 L 942 23 L 942 22 L 945 22" stroke-width="2" /><path d="M 58 345 L 64 344 L 101 343 L 102 342 L 102 341 L 102 340 L 102 339 L 102 339 L 102 338 L 102 337 L 103 336 L 103 335 L 103 334 L 103 333 L 103 332 L 103 332 L 104 331 L 104 330 L 105 329 L 105 328 L 107 327 L 108 326 L 108 326 L 111 325 L 112 324 L 112 323 L 113 322 L 114 321 L 116 320 L 120 319 L 120 319 L 123 318 L 126 317 L 137 316 L 138 315 L 138 314 L 138 313 L 138 313 L 138 312 L 138 311 L 145 310 L 148 309 L 150 308 L 155 307 L 165 306 L 168 306 L 185 305 L 190 304 L 199 303 L 208 302 L 212 301 L 247 300 L 249 299 L 249 299 L 253 298 L 254 297 L 254 296 L 254 295 L 254 294 L 254 293 L 254 293 L 254 292 L 255 291 L 255 290 L 255 289 L 255 288 L 255 287 L 256 286 L 256 286 L 256 285 L 256 284 L 256 283 L 256 282 L 256 281 L 256 280 L 256 280 L 256 279 L 256 278 L 256 277 L 256 276 L 256 275 L 256 274 L 256 273 L 256 273 L 257 272 L 257 271 L 257 270 L 257 269 L 257 268 L 257 267 L 257 266 L 257 266 L 257 265 L 257 264 L 257 263 L 257 262 L 257 261 L 257 260 L 257 260 L 257 259 L 258 258 L 258 257 L 258 256 L 259 255 L 259 254 L 259 253 L 260 253 L 260 252 L 262 251 L 262 250 L 262 249 L 262 248 L 262 247 L 262 247 L 262 246 L 262 245 L 262 244 L 262 243 L 262 242 L 262 241 L 262 240 L 263 240 L 263 239 L 263 238 L 263 237 L 264 236 L 266 235 L 266 234 L 266 233 L 267 233 L 275 232 L 275 231 L 275 230 L 278 229 L 279 228 L 284 227 L 290 227 L 291 226 L 296 225 L 298 224 L 302 223 L 303 222 L 304 221 L 309 220 L 310 220 L 312 219 L 314 218 L 316 217 L 318 216 L 318 215 L 319 214 L 319 214 L 322 213 L 325 212 L 325 211 L 327 210 L 327 209 L 328 208 L 330 207 L 334 207 L 336 206 L 342 205 L 344 204 L 345 203 L 348 202 L 348 201 L 349 200 L 352 200 L 367 199 L 368 198 L 370 197 L 384 196 L 385 195 L 385 194 L 385 194 L 386 193 L 388 192 L 392 191 L 395 190 L 395 189 L 412 188 L 416 187 L 420 187 L 425 186 L 429 185 L 429 184 L 431 183 L 443 182 L 456 181 L 472 181 L 473 180 L 473 179 L 474 178 L 475 177 L 478 176 L 499 175 L 508 174 L 509 174 L 516 173 L 518 172 L 519 171 L 542 170 L 542 169 L 544 168 L 544 167 L 547 167 L 554 166 L 556 165 L 561 164 L 564 163 L 569 162 L 582 161 L 582 161 L 585 160 L 585 159 L 585 158 L 586 157 L 593 156 L 593 155 L 606 154 L 625 154 L 634 153 L 645 152 L 646 151 L 651 150 L 651 149 L 655 148 L 658 148 L 658 147 L 658 146 L 658 145 L 658 144 L 658 143 L 658 142 L 658 141 L 659 141 L 659 140 L 659 139 L 659 138 L 659 137 L 660 136 L 661 135 L 663 134 L 665 134 L 666 133 L 667 132 L 667 131 L 667 130 L 670 129 L 670 128 L 670 128 L 670 127 L 670 126 L 671 125 L 671 124 L 673 123 L 673 122 L 674 121 L 675 121 L 676 120 L 676 119 L 676 118 L 677 117 L 679 116 L 679 115 L 679 115 L 680 114 L 682 113 L 682 112 L 683 111 L 685 110 L 688 109 L 689 108 L 693 108 L 698 107 L 698 106 L 700 105 L 700 104 L 700 103 L 700 102 L 701 101 L 705 101 L 706 100 L 710 99 L 710 98 L 712 97 L 716 96 L 720 95 L 720 95 L 726 94 L 727 93 L 728 92 L 730 91 L 730 90 L 741 89 L 743 88 L 744 88 L 752 87 L 756 86 L 765 85 L 767 84 L 768 83 L 770 82 L 771 82 L 771 81 L 778 80 L 783 79 L 786 78 L 787 77 L 790 76 L 793 75 L 793 75 L 793 74 L 793 73 L 795 72 L 795 71 L 796 70 L 798 69 L 798 68 L 799 68 L 801 67 L 811 66 L 823 65 L 823 64 L 823 63 L 831 62 L 836 62 L 837 61 L 838 60 L 841 59 L 844 58 L 844 57 L 844 56 L 844 55 L 844 55 L 845 54 L 845 53 L 846 52 L 846 51 L 848 50 L 854 49 L 854 49 L 854 48 L 854 47 L 855 46 L 856 45 L 856 44 L 856 43 L 856 42 L 856 42 L 856 41 L 857 40 L 860 39 L 866 38 L 872 37 L 872 36 L 874 35 L 886 35 L 899 34 L 902 33 L 909 32 L 915 31 L 930 30 L 935 29 L 941 29 L 941 28 L 941 27 L 941 26 L 942 25 L 942 24 L 942 23 L 942 22 L 945 22" stroke-width="2" class="series"></path><path stroke-width="2" d="M 945 346 L 945.000000 15.000000" /><path stroke-width="2" d="M 945 346 L 945.000000 15.000000"></path><path stroke-width="2" d="M 945 346 L 950 346" /><path stroke-width="2" d="M 945 346 L 950 346"></path><text xmlns="http://www.w3.org/2000/svg" x="955" y="352">0</text><path stroke-width="2" d="M 945 308 L 950 308" /><path stroke-width="2" d="M 945 308 L 950 308"></path><text xmlns="http://www.w3.org/2000/svg" x="955" y="314">43</text><path stroke-width="2" d="M 945 272 L 950 272" /><path stroke-width="2" d="M 945 272 L 950 272"></path><text xmlns="http://www.w3.org/2000/svg" x="955" y="278">85</text><path stroke-width="2" d="M 945 235 L 950 235" /><path stroke-width="2" d="M 945 235 L 950 235"></path><text xmlns="http://www.w3.org/2000/svg" x="955" y="241">127</text><path stroke-width="2" d="M 945 199 L 950 199" /><path stroke-width="2" d="M 945 199 L 950 199"></path><text xmlns="http://www.w3.org/2000/svg" x="955" y="205">169</text><path stroke-width="2" d="M 945 161 L 950 161" /><path stroke-width="2" d="M 945 161 L 950 161"></path><text xmlns="http://www.w3.org/2000/svg" x="955" y="167">212</text><path stroke-width="2" d="M 945 125 L 950 125" /><path stroke-width="2" d="M 945 125 L 950 125"></path><text x="955" y="131" xmlns="http://www.w3.org/2000/svg">254</text><path stroke-width="2" d="M 945 88 L 950 88" /><path d="M 945 88 L 950 88" stroke-width="2"></path><text xmlns="http://www.w3.org/2000/svg" x="955" y="94">296</text><path stroke-width="2" d="M 945 52 L 950 52" /><path d="M 945 52 L 950 52" stroke-width="2"></path><text xmlns="http://www.w3.org/2000/svg" x="955" y="58">338</text><path stroke-width="2" d="M 945 16 L 950 16" /><path stroke-width="2" d="M 945 16 L 950 16"></path><text x="955" y="22" xmlns="http://www.w3.org/2000/svg">380</text><text transform="rotate(90.00,987,175)" xmlns="http://www.w3.org/2000/svg" x="987" y="175">Stargazers</text><path stroke-width="2" d="M 57.000000 346.000000 L 945 346" /><path stroke-width="2" d="M 57.000000 346.000000 L 945 346"></path><path stroke-width="2" d="M 58 346 L 58 351" /><path stroke-width="2" d="M 58 346 L 58 351"></path><text xmlns="http://www.w3.org/2000/svg" x="25" y="368">2023-04-02</text><path stroke-width="2" d="M 157 346 L 157 351" /><path stroke-width="2" d="M 157 346 L 157 351"></path><text y="368" xmlns="http://www.w3.org/2000/svg" x="124">2023-05-04</text><path stroke-width="2" d="M 256 346 L 256 351" /><path stroke-width="2" d="M 256 346 L 256 351"></path><text x="223" y="368" xmlns="http://www.w3.org/2000/svg">2023-06-05</text><path stroke-width="2" d="M 354 346 L 354 351" /><path stroke-width="2" d="M 354 346 L 354 351"></path><text xmlns="http://www.w3.org/2000/svg" x="321" y="368">2023-07-08</text><path stroke-width="2" d="M 453 346 L 453 351" /><path stroke-width="2" d="M 453 346 L 453 351"></path><text xmlns="http://www.w3.org/2000/svg" x="420" y="368">2023-08-09</text><path stroke-width="2" d="M 551 346 L 551 351" /><path d="M 551 346 L 551 351" stroke-width="2"></path><text xmlns="http://www.w3.org/2000/svg" x="518" y="368">2023-09-10</text><path stroke-width="2" d="M 650 346 L 650 351" /><path stroke-width="2" d="M 650 346 L 650 351"></path><text xmlns="http://www.w3.org/2000/svg" x="617" y="368">2023-10-12</text><path stroke-width="2" d="M 748 346 L 748 351" /><path stroke-width="2" d="M 748 346 L 748 351"></path><text xmlns="http://www.w3.org/2000/svg" x="715" y="368">2023-11-13</text><path stroke-width="2" d="M 847 346 L 847 351" /><path stroke-width="2" d="M 847 346 L 847 351"></path><text xmlns="http://www.w3.org/2000/svg" x="814" y="368">2023-12-16</text><path stroke-width="2" d="M 945 346 L 945 351" /><path stroke-width="2" d="M 945 346 L 945 351"></path><text x="912" y="368" xmlns="http://www.w3.org/2000/svg">2024-01-17</text><text xmlns="http://www.w3.org/2000/svg" x="487" y="390">Time</text></svg>