<svg xmlns="http://www.w3.org/2000/svg" xmlns:xlink="http://www.w3.org/1999/xlink" width="1024" height="400">\n<path  d="M 0 0
L 1024 0
L 1024 400
L 0 400
L 0 0" style="stroke-width:0;stroke:rgba(255,255,255,1.0);fill:rgba(255,255,255,1.0)"/><path  d="M 38 11
L 965 11
L 965 351
L 38 351
L 38 11" style="stroke-width:0;stroke:rgba(255,255,255,1.0);fill:rgba(255,255,255,1.0)"/><path  d="M 38 351
L 965 351" style="stroke-width:2;stroke:rgba(85,85,85,1.0);fill:none"/><path  d="M 38 351
L 38 356" style="stroke-width:2;stroke:rgba(85,85,85,1.0);fill:none"/><text x="5" y="373" style="stroke-width:0;stroke:none;fill:rgba(51,51,51,1.0);font-size:12.8px;font-family:'Roboto Medium',sans-serif">2023-04-02</text><path  d="M 154 351
L 154 356" style="stroke-width:2;stroke:rgba(85,85,85,1.0);fill:none"/><text x="121" y="373" style="stroke-width:0;stroke:none;fill:rgba(51,51,51,1.0);font-size:12.8px;font-family:'Roboto Medium',sans-serif">2023-04-22</text><path  d="M 270 351
L 270 356" style="stroke-width:2;stroke:rgba(85,85,85,1.0);fill:none"/><text x="237" y="373" style="stroke-width:0;stroke:none;fill:rgba(51,51,51,1.0);font-size:12.8px;font-family:'Roboto Medium',sans-serif">2023-05-11</text><path  d="M 386 351
L 386 356" style="stroke-width:2;stroke:rgba(85,85,85,1.0);fill:none"/><text x="353" y="373" style="stroke-width:0;stroke:none;fill:rgba(51,51,51,1.0);font-size:12.8px;font-family:'Roboto Medium',sans-serif">2023-05-31</text><path  d="M 502 351
L 502 356" style="stroke-width:2;stroke:rgba(85,85,85,1.0);fill:none"/><text x="469" y="373" style="stroke-width:0;stroke:none;fill:rgba(51,51,51,1.0);font-size:12.8px;font-family:'Roboto Medium',sans-serif">2023-06-20</text><path  d="M 618 351
L 618 356" style="stroke-width:2;stroke:rgba(85,85,85,1.0);fill:none"/><text x="585" y="373" style="stroke-width:0;stroke:none;fill:rgba(51,51,51,1.0);font-size:12.8px;font-family:'Roboto Medium',sans-serif">2023-07-10</text><path  d="M 734 351
L 734 356" style="stroke-width:2;stroke:rgba(85,85,85,1.0);fill:none"/><text x="701" y="373" style="stroke-width:0;stroke:none;fill:rgba(51,51,51,1.0);font-size:12.8px;font-family:'Roboto Medium',sans-serif">2023-07-29</text><path  d="M 850 351
L 850 356" style="stroke-width:2;stroke:rgba(85,85,85,1.0);fill:none"/><text x="817" y="373" style="stroke-width:0;stroke:none;fill:rgba(51,51,51,1.0);font-size:12.8px;font-family:'Roboto Medium',sans-serif">2023-08-18</text><path  d="M 965 351
L 965 356" style="stroke-width:2;stroke:rgba(85,85,85,1.0);fill:none"/><text x="932" y="373" style="stroke-width:0;stroke:none;fill:rgba(51,51,51,1.0);font-size:12.8px;font-family:'Roboto Medium',sans-serif">2023-09-07</text><text x="487" y="395" style="stroke-width:0;stroke:none;fill:rgba(51,51,51,1.0);font-size:12.8px;font-family:'Roboto Medium',sans-serif">Time</text><path  d="M 967 351
L 967 11" style="stroke-width:2;stroke:rgba(85,85,85,1.0);fill:none"/><path  d="M 967 351
L 972 351" style="stroke-width:2;stroke:rgba(85,85,85,1.0);fill:none"/><text x="977" y="357" style="stroke-width:0;stroke:none;fill:rgba(51,51,51,1.0);font-size:12.8px;font-family:'Roboto Medium',sans-serif">0</text><path  d="M 967 307
L 972 307" style="stroke-width:2;stroke:rgba(85,85,85,1.0);fill:none"/><text x="977" y="313" style="stroke-width:0;stroke:none;fill:rgba(51,51,51,1.0);font-size:12.8px;font-family:'Roboto Medium',sans-serif">27</text><path  d="M 967 265
L 972 265" style="stroke-width:2;stroke:rgba(85,85,85,1.0);fill:none"/><text x="977" y="271" style="stroke-width:0;stroke:none;fill:rgba(51,51,51,1.0);font-size:12.8px;font-family:'Roboto Medium',sans-serif">53</text><path  d="M 967 223
L 972 223" style="stroke-width:2;stroke:rgba(85,85,85,1.0);fill:none"/><text x="977" y="229" style="stroke-width:0;stroke:none;fill:rgba(51,51,51,1.0);font-size:12.8px;font-family:'Roboto Medium',sans-serif">79</text><path  d="M 967 181
L 972 181" style="stroke-width:2;stroke:rgba(85,85,85,1.0);fill:none"/><text x="977" y="187" style="stroke-width:0;stroke:none;fill:rgba(51,51,51,1.0);font-size:12.8px;font-family:'Roboto Medium',sans-serif">105</text><path  d="M 967 137
L 972 137" style="stroke-width:2;stroke:rgba(85,85,85,1.0);fill:none"/><text x="977" y="143" style="stroke-width:0;stroke:none;fill:rgba(51,51,51,1.0);font-size:12.8px;font-family:'Roboto Medium',sans-serif">132</text><path  d="M 967 95
L 972 95" style="stroke-width:2;stroke:rgba(85,85,85,1.0);fill:none"/><text x="977" y="101" style="stroke-width:0;stroke:none;fill:rgba(51,51,51,1.0);font-size:12.8px;font-family:'Roboto Medium',sans-serif">158</text><path  d="M 967 53
L 972 53" style="stroke-width:2;stroke:rgba(85,85,85,1.0);fill:none"/><text x="977" y="59" style="stroke-width:0;stroke:none;fill:rgba(51,51,51,1.0);font-size:12.8px;font-family:'Roboto Medium',sans-serif">184</text><path  d="M 967 11
L 972 11" style="stroke-width:2;stroke:rgba(85,85,85,1.0);fill:none"/><text x="977" y="17" style="stroke-width:0;stroke:none;fill:rgba(51,51,51,1.0);font-size:12.8px;font-family:'Roboto Medium',sans-serif">210</text><text x="1009" y="150" style="stroke-width:0;stroke:none;fill:rgba(51,51,51,1.0);font-size:12.8px;font-family:'Roboto Medium',sans-serif" transform="rotate(90.00,1009,150)">Stargazers</text><path  d="M 38 351
L 49 349
L 120 347
L 122 346
L 122 344
L 122 342
L 122 341
L 122 339
L 122 338
L 122 336
L 124 334
L 124 333
L 124 331
L 124 329
L 125 328
L 125 326
L 125 325
L 125 323
L 127 321
L 127 320
L 131 318
L 133 317
L 133 315
L 138 313
L 142 312
L 142 310
L 142 308
L 144 307
L 145 305
L 149 304
L 156 302
L 157 300
L 162 299
L 167 297
L 190 295
L 190 294
L 190 292
L 190 291
L 191 289
L 191 287
L 191 286
L 204 284
L 210 283
L 213 281
L 224 279
L 242 278
L 249 276
L 280 274
L 290 273
L 307 271
L 325 270
L 333 268
L 399 266
L 403 265
L 403 263
L 412 261
L 414 260
L 414 258
L 414 257
L 414 255
L 414 253
L 414 252
L 414 250
L 414 249
L 415 247
L 415 245
L 415 244
L 416 242
L 418 240
L 418 239
L 418 237
L 418 236
L 418 234
L 418 232
L 418 231
L 418 229
L 418 227
L 418 226
L 418 224
L 418 223
L 418 221
L 418 219
L 418 218
L 418 216
L 418 215
L 419 213
L 419 211
L 419 210
L 419 208
L 419 206
L 419 205
L 419 203
L 419 202
L 419 200
L 419 198
L 419 197
L 419 195
L 419 193
L 419 192
L 420 190
L 420 189
L 421 187
L 421 185
L 422 184
L 423 182
L 423 181
L 424 179
L 425 177
L 426 176
L 429 174
L 429 172
L 429 171
L 430 169
L 430 168
L 430 166
L 430 164
L 430 163
L 430 161
L 430 159
L 430 158
L 430 156
L 430 155
L 430 153
L 430 151
L 430 150
L 431 148
L 432 147
L 437 145
L 437 143
L 437 142
L 437 140
L 453 138
L 454 137
L 455 135
L 460 134
L 461 132
L 471 130
L 482 129
L 485 127
L 494 125
L 498 124
L 505 122
L 507 121
L 509 119
L 520 117
L 521 116
L 524 114
L 529 113
L 532 111
L 536 109
L 537 108
L 537 106
L 539 104
L 544 103
L 550 101
L 550 100
L 552 98
L 554 96
L 555 95
L 558 93
L 566 91
L 571 90
L 582 88
L 585 87
L 589 85
L 594 83
L 594 82
L 595 80
L 602 79
L 630 77
L 631 75
L 636 74
L 663 72
L 664 70
L 664 69
L 664 67
L 666 66
L 670 64
L 678 62
L 683 61
L 684 59
L 717 57
L 724 56
L 731 54
L 742 53
L 748 51
L 748 49
L 753 48
L 776 46
L 802 45
L 831 43
L 834 41
L 834 40
L 835 38
L 836 36
L 843 35
L 882 33
L 901 32
L 901 30
L 916 28
L 920 27
L 922 25
L 965 23
L 965 22" style="stroke-width:2;stroke:rgba(129,199,239,1.0);fill:none"/></svg>