<svg xmlns="http://www.w3.org/2000/svg" xmlns:xlink="http://www.w3.org/1999/xlink" width="1024" height="400">\n<path  d="M 0 0
L 1024 0
L 1024 400
L 0 400
L 0 0" style="stroke-width:0;stroke:rgba(255,255,255,1.0);fill:rgba(255,255,255,1.0)"/><path  d="M 38 11
L 965 11
L 965 351
L 38 351
L 38 11" style="stroke-width:0;stroke:rgba(255,255,255,1.0);fill:rgba(255,255,255,1.0)"/><path  d="M 38 351
L 965 351" style="stroke-width:2;stroke:rgba(85,85,85,1.0);fill:none"/><path  d="M 38 351
L 38 356" style="stroke-width:2;stroke:rgba(85,85,85,1.0);fill:none"/><text x="5" y="373" style="stroke-width:0;stroke:none;fill:rgba(51,51,51,1.0);font-size:12.8px;font-family:'Roboto Medium',sans-serif">2023-04-02</text><path  d="M 154 351
L 154 356" style="stroke-width:2;stroke:rgba(85,85,85,1.0);fill:none"/><text x="121" y="373" style="stroke-width:0;stroke:none;fill:rgba(51,51,51,1.0);font-size:12.8px;font-family:'Roboto Medium',sans-serif">2023-05-01</text><path  d="M 270 351
L 270 356" style="stroke-width:2;stroke:rgba(85,85,85,1.0);fill:none"/><text x="237" y="373" style="stroke-width:0;stroke:none;fill:rgba(51,51,51,1.0);font-size:12.8px;font-family:'Roboto Medium',sans-serif">2023-05-30</text><path  d="M 386 351
L 386 356" style="stroke-width:2;stroke:rgba(85,85,85,1.0);fill:none"/><text x="353" y="373" style="stroke-width:0;stroke:none;fill:rgba(51,51,51,1.0);font-size:12.8px;font-family:'Roboto Medium',sans-serif">2023-06-28</text><path  d="M 502 351
L 502 356" style="stroke-width:2;stroke:rgba(85,85,85,1.0);fill:none"/><text x="469" y="373" style="stroke-width:0;stroke:none;fill:rgba(51,51,51,1.0);font-size:12.8px;font-family:'Roboto Medium',sans-serif">2023-07-26</text><path  d="M 618 351
L 618 356" style="stroke-width:2;stroke:rgba(85,85,85,1.0);fill:none"/><text x="585" y="373" style="stroke-width:0;stroke:none;fill:rgba(51,51,51,1.0);font-size:12.8px;font-family:'Roboto Medium',sans-serif">2023-08-24</text><path  d="M 734 351
L 734 356" style="stroke-width:2;stroke:rgba(85,85,85,1.0);fill:none"/><text x="701" y="373" style="stroke-width:0;stroke:none;fill:rgba(51,51,51,1.0);font-size:12.8px;font-family:'Roboto Medium',sans-serif">2023-09-22</text><path  d="M 850 351
L 850 356" style="stroke-width:2;stroke:rgba(85,85,85,1.0);fill:none"/><text x="817" y="373" style="stroke-width:0;stroke:none;fill:rgba(51,51,51,1.0);font-size:12.8px;font-family:'Roboto Medium',sans-serif">2023-10-21</text><path  d="M 965 351
L 965 356" style="stroke-width:2;stroke:rgba(85,85,85,1.0);fill:none"/><text x="932" y="373" style="stroke-width:0;stroke:none;fill:rgba(51,51,51,1.0);font-size:12.8px;font-family:'Roboto Medium',sans-serif">2023-11-19</text><text x="487" y="395" style="stroke-width:0;stroke:none;fill:rgba(51,51,51,1.0);font-size:12.8px;font-family:'Roboto Medium',sans-serif">Time</text><path  d="M 967 351
L 967 11" style="stroke-width:2;stroke:rgba(85,85,85,1.0);fill:none"/><path  d="M 967 351
L 972 351" style="stroke-width:2;stroke:rgba(85,85,85,1.0);fill:none"/><text x="977" y="357" style="stroke-width:0;stroke:none;fill:rgba(51,51,51,1.0);font-size:12.8px;font-family:'Roboto Medium',sans-serif">0</text><path  d="M 967 307
L 972 307" style="stroke-width:2;stroke:rgba(85,85,85,1.0);fill:none"/><text x="977" y="313" style="stroke-width:0;stroke:none;fill:rgba(51,51,51,1.0);font-size:12.8px;font-family:'Roboto Medium',sans-serif">38</text><path  d="M 967 266
L 972 266" style="stroke-width:2;stroke:rgba(85,85,85,1.0);fill:none"/><text x="977" y="272" style="stroke-width:0;stroke:none;fill:rgba(51,51,51,1.0);font-size:12.8px;font-family:'Roboto Medium',sans-serif">75</text><path  d="M 967 222
L 972 222" style="stroke-width:2;stroke:rgba(85,85,85,1.0);fill:none"/><text x="977" y="228" style="stroke-width:0;stroke:none;fill:rgba(51,51,51,1.0);font-size:12.8px;font-family:'Roboto Medium',sans-serif">113</text><path  d="M 967 181
L 972 181" style="stroke-width:2;stroke:rgba(85,85,85,1.0);fill:none"/><text x="977" y="187" style="stroke-width:0;stroke:none;fill:rgba(51,51,51,1.0);font-size:12.8px;font-family:'Roboto Medium',sans-serif">150</text><path  d="M 967 137
L 972 137" style="stroke-width:2;stroke:rgba(85,85,85,1.0);fill:none"/><text x="977" y="143" style="stroke-width:0;stroke:none;fill:rgba(51,51,51,1.0);font-size:12.8px;font-family:'Roboto Medium',sans-serif">188</text><path  d="M 967 96
L 972 96" style="stroke-width:2;stroke:rgba(85,85,85,1.0);fill:none"/><text x="977" y="102" style="stroke-width:0;stroke:none;fill:rgba(51,51,51,1.0);font-size:12.8px;font-family:'Roboto Medium',sans-serif">225</text><path  d="M 967 52
L 972 52" style="stroke-width:2;stroke:rgba(85,85,85,1.0);fill:none"/><text x="977" y="58" style="stroke-width:0;stroke:none;fill:rgba(51,51,51,1.0);font-size:12.8px;font-family:'Roboto Medium',sans-serif">263</text><path  d="M 967 11
L 972 11" style="stroke-width:2;stroke:rgba(85,85,85,1.0);fill:none"/><text x="977" y="17" style="stroke-width:0;stroke:none;fill:rgba(51,51,51,1.0);font-size:12.8px;font-family:'Roboto Medium',sans-serif">300</text><text x="1009" y="150" style="stroke-width:0;stroke:none;fill:rgba(51,51,51,1.0);font-size:12.8px;font-family:'Roboto Medium',sans-serif" transform="rotate(90.00,1009,150)">Stargazers</text><path  d="M 38 351
L 46 349
L 94 348
L 96 347
L 96 346
L 96 345
L 96 344
L 96 343
L 96 341
L 96 340
L 97 339
L 97 338
L 97 337
L 97 336
L 97 335
L 98 334
L 98 332
L 98 331
L 99 330
L 99 329
L 102 328
L 103 327
L 103 326
L 107 324
L 109 323
L 109 322
L 109 321
L 111 320
L 114 319
L 119 318
L 120 317
L 123 315
L 127 314
L 142 313
L 142 312
L 142 311
L 142 310
L 143 309
L 143 307
L 143 306
L 152 305
L 156 304
L 158 303
L 165 302
L 178 301
L 183 300
L 204 298
L 211 297
L 222 296
L 235 295
L 240 294
L 285 293
L 288 292
L 288 290
L 294 289
L 296 288
L 296 287
L 296 286
L 296 285
L 296 284
L 296 283
L 296 281
L 296 280
L 296 279
L 296 278
L 296 277
L 297 276
L 298 275
L 298 273
L 298 272
L 298 271
L 298 270
L 298 269
L 298 268
L 298 267
L 298 266
L 298 264
L 298 263
L 298 262
L 298 261
L 298 260
L 298 259
L 298 258
L 298 256
L 299 255
L 299 254
L 299 253
L 299 252
L 299 251
L 299 250
L 299 249
L 299 247
L 299 246
L 299 245
L 299 244
L 299 243
L 299 242
L 299 241
L 299 239
L 299 238
L 300 237
L 300 236
L 301 235
L 302 234
L 302 233
L 302 232
L 303 230
L 304 229
L 306 228
L 306 227
L 306 226
L 306 225
L 306 224
L 306 222
L 306 221
L 306 220
L 306 219
L 306 218
L 306 217
L 306 216
L 306 215
L 306 213
L 306 212
L 306 211
L 307 210
L 308 209
L 311 208
L 311 207
L 311 205
L 312 204
L 322 203
L 323 202
L 323 201
L 327 200
L 327 199
L 334 198
L 342 196
L 344 195
L 350 194
L 353 193
L 358 192
L 359 191
L 361 190
L 368 188
L 369 187
L 371 186
L 374 185
L 376 184
L 379 183
L 379 182
L 380 181
L 381 179
L 385 178
L 388 177
L 388 176
L 390 175
L 392 174
L 392 173
L 394 171
L 400 170
L 403 169
L 410 168
L 413 167
L 415 166
L 418 165
L 419 163
L 419 162
L 424 161
L 443 160
L 444 159
L 447 158
L 466 157
L 467 156
L 467 154
L 467 153
L 468 152
L 471 151
L 476 150
L 480 149
L 480 148
L 503 147
L 507 145
L 513 144
L 520 143
L 524 142
L 524 141
L 528 140
L 543 139
L 561 137
L 581 136
L 583 135
L 583 134
L 584 133
L 585 132
L 589 131
L 616 130
L 629 128
L 629 127
L 639 126
L 642 125
L 643 124
L 673 123
L 673 122
L 675 120
L 676 119
L 680 118
L 688 117
L 692 116
L 698 115
L 702 114
L 708 113
L 725 111
L 726 110
L 729 109
L 729 108
L 730 107
L 731 106
L 740 105
L 740 103
L 757 102
L 781 101
L 794 100
L 808 99
L 809 98
L 816 97
L 817 96
L 821 94
L 825 93
L 825 92
L 825 91
L 825 90
L 825 89
L 825 88
L 825 86
L 826 85
L 826 84
L 826 83
L 827 82
L 827 81
L 827 80
L 828 79
L 829 77
L 831 76
L 835 75
L 836 74
L 837 73
L 837 72
L 837 71
L 841 69
L 841 68
L 841 67
L 842 66
L 842 65
L 842 64
L 842 63
L 845 62
L 846 60
L 847 59
L 848 58
L 849 57
L 849 56
L 850 55
L 850 54
L 853 52
L 853 51
L 853 50
L 854 49
L 856 48
L 857 47
L 858 46
L 861 45
L 864 43
L 866 42
L 871 41
L 878 40
L 878 39
L 880 38
L 881 37
L 881 35
L 881 34
L 881 33
L 887 32
L 888 31
L 894 30
L 894 29
L 897 28
L 902 26
L 907 25
L 907 24
L 914 23
L 916 22
L 917 21
L 920 20
L 920 18
L 934 17
L 937 16
L 938 15
L 949 14
L 954 13
L 965 12" style="stroke-width:2;stroke:rgba(129,199,239,1.0);fill:none"/></svg>