<svg xmlns="http://www.w3.org/2000/svg" xmlns:xlink="http://www.w3.org/1999/xlink" width="1024" height="400">\n<path  d="M 0 0
L 1024 0
L 1024 400
L 0 400
L 0 0" style="stroke-width:0;stroke:rgba(255,255,255,1.0);fill:rgba(255,255,255,1.0)"/><path  d="M 38 11
L 965 11
L 965 351
L 38 351
L 38 11" style="stroke-width:0;stroke:rgba(255,255,255,1.0);fill:rgba(255,255,255,1.0)"/><path  d="M 38 351
L 965 351" style="stroke-width:2;stroke:rgba(85,85,85,1.0);fill:none"/><path  d="M 38 351
L 38 356" style="stroke-width:2;stroke:rgba(85,85,85,1.0);fill:none"/><text x="5" y="373" style="stroke-width:0;stroke:none;fill:rgba(51,51,51,1.0);font-size:12.8px;font-family:'Roboto Medium',sans-serif">2023-04-02</text><path  d="M 154 351
L 154 356" style="stroke-width:2;stroke:rgba(85,85,85,1.0);fill:none"/><text x="121" y="373" style="stroke-width:0;stroke:none;fill:rgba(51,51,51,1.0);font-size:12.8px;font-family:'Roboto Medium',sans-serif">2023-04-24</text><path  d="M 270 351
L 270 356" style="stroke-width:2;stroke:rgba(85,85,85,1.0);fill:none"/><text x="237" y="373" style="stroke-width:0;stroke:none;fill:rgba(51,51,51,1.0);font-size:12.8px;font-family:'Roboto Medium',sans-serif">2023-05-17</text><path  d="M 386 351
L 386 356" style="stroke-width:2;stroke:rgba(85,85,85,1.0);fill:none"/><text x="353" y="373" style="stroke-width:0;stroke:none;fill:rgba(51,51,51,1.0);font-size:12.8px;font-family:'Roboto Medium',sans-serif">2023-06-08</text><path  d="M 502 351
L 502 356" style="stroke-width:2;stroke:rgba(85,85,85,1.0);fill:none"/><text x="469" y="373" style="stroke-width:0;stroke:none;fill:rgba(51,51,51,1.0);font-size:12.8px;font-family:'Roboto Medium',sans-serif">2023-06-30</text><path  d="M 618 351
L 618 356" style="stroke-width:2;stroke:rgba(85,85,85,1.0);fill:none"/><text x="585" y="373" style="stroke-width:0;stroke:none;fill:rgba(51,51,51,1.0);font-size:12.8px;font-family:'Roboto Medium',sans-serif">2023-07-23</text><path  d="M 734 351
L 734 356" style="stroke-width:2;stroke:rgba(85,85,85,1.0);fill:none"/><text x="701" y="373" style="stroke-width:0;stroke:none;fill:rgba(51,51,51,1.0);font-size:12.8px;font-family:'Roboto Medium',sans-serif">2023-08-14</text><path  d="M 850 351
L 850 356" style="stroke-width:2;stroke:rgba(85,85,85,1.0);fill:none"/><text x="817" y="373" style="stroke-width:0;stroke:none;fill:rgba(51,51,51,1.0);font-size:12.8px;font-family:'Roboto Medium',sans-serif">2023-09-06</text><path  d="M 965 351
L 965 356" style="stroke-width:2;stroke:rgba(85,85,85,1.0);fill:none"/><text x="932" y="373" style="stroke-width:0;stroke:none;fill:rgba(51,51,51,1.0);font-size:12.8px;font-family:'Roboto Medium',sans-serif">2023-09-28</text><text x="487" y="395" style="stroke-width:0;stroke:none;fill:rgba(51,51,51,1.0);font-size:12.8px;font-family:'Roboto Medium',sans-serif">Time</text><path  d="M 967 351
L 967 11" style="stroke-width:2;stroke:rgba(85,85,85,1.0);fill:none"/><path  d="M 967 351
L 972 351" style="stroke-width:2;stroke:rgba(85,85,85,1.0);fill:none"/><text x="977" y="357" style="stroke-width:0;stroke:none;fill:rgba(51,51,51,1.0);font-size:12.8px;font-family:'Roboto Medium',sans-serif">0</text><path  d="M 967 307
L 972 307" style="stroke-width:2;stroke:rgba(85,85,85,1.0);fill:none"/><text x="977" y="313" style="stroke-width:0;stroke:none;fill:rgba(51,51,51,1.0);font-size:12.8px;font-family:'Roboto Medium',sans-serif">28</text><path  d="M 967 266
L 972 266" style="stroke-width:2;stroke:rgba(85,85,85,1.0);fill:none"/><text x="977" y="272" style="stroke-width:0;stroke:none;fill:rgba(51,51,51,1.0);font-size:12.8px;font-family:'Roboto Medium',sans-serif">55</text><path  d="M 967 222
L 972 222" style="stroke-width:2;stroke:rgba(85,85,85,1.0);fill:none"/><text x="977" y="228" style="stroke-width:0;stroke:none;fill:rgba(51,51,51,1.0);font-size:12.8px;font-family:'Roboto Medium',sans-serif">83</text><path  d="M 967 181
L 972 181" style="stroke-width:2;stroke:rgba(85,85,85,1.0);fill:none"/><text x="977" y="187" style="stroke-width:0;stroke:none;fill:rgba(51,51,51,1.0);font-size:12.8px;font-family:'Roboto Medium',sans-serif">110</text><path  d="M 967 137
L 972 137" style="stroke-width:2;stroke:rgba(85,85,85,1.0);fill:none"/><text x="977" y="143" style="stroke-width:0;stroke:none;fill:rgba(51,51,51,1.0);font-size:12.8px;font-family:'Roboto Medium',sans-serif">138</text><path  d="M 967 96
L 972 96" style="stroke-width:2;stroke:rgba(85,85,85,1.0);fill:none"/><text x="977" y="102" style="stroke-width:0;stroke:none;fill:rgba(51,51,51,1.0);font-size:12.8px;font-family:'Roboto Medium',sans-serif">165</text><path  d="M 967 52
L 972 52" style="stroke-width:2;stroke:rgba(85,85,85,1.0);fill:none"/><text x="977" y="58" style="stroke-width:0;stroke:none;fill:rgba(51,51,51,1.0);font-size:12.8px;font-family:'Roboto Medium',sans-serif">193</text><path  d="M 967 11
L 972 11" style="stroke-width:2;stroke:rgba(85,85,85,1.0);fill:none"/><text x="977" y="17" style="stroke-width:0;stroke:none;fill:rgba(51,51,51,1.0);font-size:12.8px;font-family:'Roboto Medium',sans-serif">220</text><text x="1009" y="150" style="stroke-width:0;stroke:none;fill:rgba(51,51,51,1.0);font-size:12.8px;font-family:'Roboto Medium',sans-serif" transform="rotate(90.00,1009,150)">Stargazers</text><path  d="M 38 351
L 48 349
L 110 347
L 112 346
L 112 344
L 112 343
L 112 341
L 112 340
L 112 338
L 112 337
L 114 335
L 114 334
L 114 332
L 114 330
L 115 329
L 115 327
L 115 326
L 115 324
L 117 323
L 117 321
L 120 320
L 122 318
L 122 317
L 127 315
L 130 313
L 130 312
L 130 310
L 132 309
L 133 307
L 136 306
L 143 304
L 143 303
L 148 301
L 152 300
L 172 298
L 172 296
L 172 295
L 173 293
L 173 292
L 173 290
L 173 289
L 184 287
L 190 286
L 193 284
L 202 283
L 218 281
L 224 279
L 252 278
L 261 276
L 276 275
L 291 273
L 298 272
L 357 270
L 360 269
L 361 267
L 368 266
L 370 264
L 370 262
L 370 261
L 370 259
L 370 258
L 370 256
L 370 255
L 370 253
L 371 252
L 371 250
L 371 249
L 372 247
L 373 245
L 373 244
L 373 242
L 373 241
L 373 239
L 373 238
L 373 236
L 373 235
L 373 233
L 373 232
L 373 230
L 373 228
L 373 227
L 374 225
L 374 224
L 374 222
L 374 221
L 374 219
L 374 218
L 374 216
L 374 215
L 374 213
L 374 211
L 374 210
L 374 208
L 374 207
L 374 205
L 374 204
L 375 202
L 375 201
L 375 199
L 375 198
L 375 196
L 376 194
L 376 193
L 377 191
L 378 190
L 378 188
L 379 187
L 380 185
L 380 184
L 383 182
L 383 181
L 384 179
L 384 177
L 384 176
L 384 174
L 384 173
L 384 171
L 384 170
L 384 168
L 384 167
L 384 165
L 384 163
L 384 162
L 384 160
L 384 159
L 385 157
L 386 156
L 390 154
L 390 153
L 391 151
L 391 150
L 405 148
L 406 147
L 406 145
L 411 143
L 411 142
L 420 140
L 430 139
L 433 137
L 441 136
L 444 134
L 451 133
L 452 131
L 454 130
L 463 128
L 464 126
L 468 125
L 472 123
L 474 122
L 478 120
L 478 119
L 479 117
L 480 116
L 485 114
L 490 113
L 490 111
L 492 109
L 494 108
L 494 106
L 497 105
L 504 103
L 509 102
L 518 100
L 521 99
L 524 97
L 529 96
L 529 94
L 530 92
L 536 91
L 561 89
L 562 88
L 566 86
L 590 85
L 591 83
L 591 82
L 591 80
L 592 79
L 596 77
L 603 75
L 608 74
L 609 72
L 638 71
L 643 69
L 650 68
L 659 66
L 665 65
L 665 63
L 669 62
L 690 60
L 712 58
L 738 57
L 741 55
L 741 54
L 742 52
L 743 51
L 749 49
L 783 48
L 800 46
L 800 45
L 814 43
L 816 41
L 818 40
L 857 38
L 857 37
L 860 35
L 861 34
L 866 32
L 877 31
L 881 29
L 889 28
L 894 26
L 903 24
L 924 23
L 925 21
L 929 20
L 930 18
L 931 17
L 932 15
L 943 14
L 944 12
L 965 11" style="stroke-width:2;stroke:rgba(129,199,239,1.0);fill:none"/></svg>