<svg xmlns="http://www.w3.org/2000/svg" xmlns:xlink="http://www.w3.org/1999/xlink" width="1024" height="400">\n<path  d="M 0 0
L 1024 0
L 1024 400
L 0 400
L 0 0" style="stroke-width:0;stroke:rgba(255,255,255,1.0);fill:rgba(255,255,255,1.0)"/><path  d="M 38 11
L 965 11
L 965 351
L 38 351
L 38 11" style="stroke-width:0;stroke:rgba(255,255,255,1.0);fill:rgba(255,255,255,1.0)"/><path  d="M 38 351
L 965 351" style="stroke-width:2;stroke:rgba(85,85,85,1.0);fill:none"/><path  d="M 38 351
L 38 356" style="stroke-width:2;stroke:rgba(85,85,85,1.0);fill:none"/><text x="5" y="373" style="stroke-width:0;stroke:none;fill:rgba(51,51,51,1.0);font-size:12.8px;font-family:'Roboto Medium',sans-serif">2023-04-02</text><path  d="M 154 351
L 154 356" style="stroke-width:2;stroke:rgba(85,85,85,1.0);fill:none"/><text x="121" y="373" style="stroke-width:0;stroke:none;fill:rgba(51,51,51,1.0);font-size:12.8px;font-family:'Roboto Medium',sans-serif">2023-05-02</text><path  d="M 270 351
L 270 356" style="stroke-width:2;stroke:rgba(85,85,85,1.0);fill:none"/><text x="237" y="373" style="stroke-width:0;stroke:none;fill:rgba(51,51,51,1.0);font-size:12.8px;font-family:'Roboto Medium',sans-serif">2023-06-02</text><path  d="M 386 351
L 386 356" style="stroke-width:2;stroke:rgba(85,85,85,1.0);fill:none"/><text x="353" y="373" style="stroke-width:0;stroke:none;fill:rgba(51,51,51,1.0);font-size:12.8px;font-family:'Roboto Medium',sans-serif">2023-07-02</text><path  d="M 502 351
L 502 356" style="stroke-width:2;stroke:rgba(85,85,85,1.0);fill:none"/><text x="469" y="373" style="stroke-width:0;stroke:none;fill:rgba(51,51,51,1.0);font-size:12.8px;font-family:'Roboto Medium',sans-serif">2023-08-01</text><path  d="M 618 351
L 618 356" style="stroke-width:2;stroke:rgba(85,85,85,1.0);fill:none"/><text x="585" y="373" style="stroke-width:0;stroke:none;fill:rgba(51,51,51,1.0);font-size:12.8px;font-family:'Roboto Medium',sans-serif">2023-09-01</text><path  d="M 734 351
L 734 356" style="stroke-width:2;stroke:rgba(85,85,85,1.0);fill:none"/><text x="701" y="373" style="stroke-width:0;stroke:none;fill:rgba(51,51,51,1.0);font-size:12.8px;font-family:'Roboto Medium',sans-serif">2023-10-01</text><path  d="M 850 351
L 850 356" style="stroke-width:2;stroke:rgba(85,85,85,1.0);fill:none"/><text x="817" y="373" style="stroke-width:0;stroke:none;fill:rgba(51,51,51,1.0);font-size:12.8px;font-family:'Roboto Medium',sans-serif">2023-10-31</text><path  d="M 965 351
L 965 356" style="stroke-width:2;stroke:rgba(85,85,85,1.0);fill:none"/><text x="932" y="373" style="stroke-width:0;stroke:none;fill:rgba(51,51,51,1.0);font-size:12.8px;font-family:'Roboto Medium',sans-serif">2023-12-01</text><text x="487" y="395" style="stroke-width:0;stroke:none;fill:rgba(51,51,51,1.0);font-size:12.8px;font-family:'Roboto Medium',sans-serif">Time</text><path  d="M 967 351
L 967 11" style="stroke-width:2;stroke:rgba(85,85,85,1.0);fill:none"/><path  d="M 967 351
L 972 351" style="stroke-width:2;stroke:rgba(85,85,85,1.0);fill:none"/><text x="977" y="357" style="stroke-width:0;stroke:none;fill:rgba(51,51,51,1.0);font-size:12.8px;font-family:'Roboto Medium',sans-serif">0</text><path  d="M 967 308
L 972 308" style="stroke-width:2;stroke:rgba(85,85,85,1.0);fill:none"/><text x="977" y="314" style="stroke-width:0;stroke:none;fill:rgba(51,51,51,1.0);font-size:12.8px;font-family:'Roboto Medium',sans-serif">40</text><path  d="M 967 266
L 972 266" style="stroke-width:2;stroke:rgba(85,85,85,1.0);fill:none"/><text x="977" y="272" style="stroke-width:0;stroke:none;fill:rgba(51,51,51,1.0);font-size:12.8px;font-family:'Roboto Medium',sans-serif">80</text><path  d="M 967 223
L 972 223" style="stroke-width:2;stroke:rgba(85,85,85,1.0);fill:none"/><text x="977" y="229" style="stroke-width:0;stroke:none;fill:rgba(51,51,51,1.0);font-size:12.8px;font-family:'Roboto Medium',sans-serif">120</text><path  d="M 967 181
L 972 181" style="stroke-width:2;stroke:rgba(85,85,85,1.0);fill:none"/><text x="977" y="187" style="stroke-width:0;stroke:none;fill:rgba(51,51,51,1.0);font-size:12.8px;font-family:'Roboto Medium',sans-serif">160</text><path  d="M 967 138
L 972 138" style="stroke-width:2;stroke:rgba(85,85,85,1.0);fill:none"/><text x="977" y="144" style="stroke-width:0;stroke:none;fill:rgba(51,51,51,1.0);font-size:12.8px;font-family:'Roboto Medium',sans-serif">200</text><path  d="M 967 96
L 972 96" style="stroke-width:2;stroke:rgba(85,85,85,1.0);fill:none"/><text x="977" y="102" style="stroke-width:0;stroke:none;fill:rgba(51,51,51,1.0);font-size:12.8px;font-family:'Roboto Medium',sans-serif">240</text><path  d="M 967 53
L 972 53" style="stroke-width:2;stroke:rgba(85,85,85,1.0);fill:none"/><text x="977" y="59" style="stroke-width:0;stroke:none;fill:rgba(51,51,51,1.0);font-size:12.8px;font-family:'Roboto Medium',sans-serif">280</text><path  d="M 967 11
L 972 11" style="stroke-width:2;stroke:rgba(85,85,85,1.0);fill:none"/><text x="977" y="17" style="stroke-width:0;stroke:none;fill:rgba(51,51,51,1.0);font-size:12.8px;font-family:'Roboto Medium',sans-serif">320</text><text x="1009" y="150" style="stroke-width:0;stroke:none;fill:rgba(51,51,51,1.0);font-size:12.8px;font-family:'Roboto Medium',sans-serif" transform="rotate(90.00,1009,150)">Stargazers</text><path  d="M 38 351
L 45 349
L 92 348
L 93 347
L 93 346
L 93 345
L 93 344
L 93 343
L 93 342
L 93 341
L 94 340
L 94 339
L 94 338
L 94 337
L 95 336
L 95 335
L 95 334
L 95 332
L 96 331
L 96 330
L 99 329
L 100 328
L 100 327
L 104 326
L 106 325
L 106 324
L 106 323
L 108 322
L 110 321
L 115 320
L 116 319
L 119 318
L 122 317
L 137 315
L 137 314
L 137 313
L 137 312
L 138 311
L 138 310
L 138 309
L 146 308
L 150 307
L 152 306
L 159 305
L 171 304
L 176 303
L 196 302
L 203 301
L 214 300
L 225 298
L 230 297
L 274 296
L 276 295
L 276 294
L 282 293
L 283 292
L 283 291
L 283 290
L 283 289
L 283 288
L 283 287
L 283 286
L 283 285
L 284 284
L 284 283
L 284 281
L 285 280
L 285 279
L 285 278
L 285 277
L 285 276
L 285 275
L 285 274
L 286 273
L 286 272
L 286 271
L 286 270
L 286 269
L 286 268
L 286 267
L 286 266
L 286 264
L 286 263
L 286 262
L 286 261
L 286 260
L 286 259
L 286 258
L 286 257
L 286 256
L 286 255
L 286 254
L 286 253
L 286 252
L 286 251
L 286 250
L 287 249
L 287 247
L 287 246
L 287 245
L 288 244
L 288 243
L 288 242
L 289 241
L 289 240
L 290 239
L 290 238
L 291 237
L 293 236
L 293 235
L 293 234
L 293 233
L 293 232
L 293 230
L 293 229
L 293 228
L 293 227
L 293 226
L 293 225
L 293 224
L 293 223
L 293 222
L 293 221
L 294 220
L 294 219
L 295 218
L 298 217
L 298 216
L 298 215
L 298 213
L 309 212
L 309 211
L 310 210
L 313 209
L 313 208
L 320 207
L 327 206
L 329 205
L 335 204
L 338 203
L 343 202
L 344 201
L 345 200
L 352 199
L 353 198
L 355 196
L 358 195
L 360 194
L 363 193
L 363 192
L 363 191
L 364 190
L 368 189
L 372 188
L 372 187
L 373 186
L 375 185
L 375 184
L 377 183
L 382 182
L 386 181
L 392 179
L 395 178
L 397 177
L 400 176
L 400 175
L 401 174
L 405 173
L 424 172
L 425 171
L 428 170
L 445 169
L 446 168
L 446 167
L 446 166
L 447 165
L 450 163
L 455 162
L 458 161
L 459 160
L 481 159
L 485 158
L 490 157
L 497 156
L 501 155
L 501 154
L 504 153
L 519 152
L 536 151
L 555 150
L 557 149
L 557 148
L 557 147
L 558 145
L 563 144
L 588 143
L 600 142
L 601 141
L 610 140
L 612 139
L 614 138
L 642 137
L 642 136
L 644 135
L 646 134
L 649 133
L 657 132
L 660 131
L 666 130
L 670 128
L 676 127
L 692 126
L 693 125
L 696 124
L 696 123
L 697 122
L 698 121
L 706 120
L 707 119
L 722 118
L 746 117
L 758 116
L 771 115
L 772 114
L 778 113
L 779 111
L 783 110
L 787 109
L 787 108
L 787 107
L 787 106
L 787 105
L 787 104
L 787 103
L 788 102
L 788 101
L 788 100
L 788 99
L 789 98
L 789 97
L 790 96
L 791 94
L 793 93
L 796 92
L 798 91
L 798 90
L 798 89
L 798 88
L 803 87
L 803 86
L 803 85
L 803 84
L 803 83
L 803 82
L 803 81
L 806 80
L 807 79
L 808 77
L 809 76
L 810 75
L 810 74
L 810 73
L 811 72
L 813 71
L 814 70
L 814 69
L 814 68
L 817 67
L 818 66
L 818 65
L 821 64
L 824 63
L 826 62
L 831 60
L 837 59
L 838 58
L 840 57
L 840 56
L 840 55
L 840 54
L 841 53
L 846 52
L 847 51
L 853 50
L 853 49
L 855 48
L 860 47
L 865 46
L 865 45
L 872 43
L 874 42
L 875 41
L 878 40
L 878 39
L 891 38
L 894 37
L 895 36
L 905 35
L 910 34
L 921 33
L 924 32
L 924 31
L 927 30
L 929 29
L 929 28
L 937 26
L 943 25
L 948 24
L 949 23
L 952 22
L 956 21
L 956 20
L 956 19
L 956 18
L 958 17
L 959 16
L 959 15
L 963 14
L 963 13
L 963 12
L 965 11" style="stroke-width:2;stroke:rgba(129,199,239,1.0);fill:none"/></svg>