<svg xmlns="http://www.w3.org/2000/svg" xmlns:xlink="http://www.w3.org/1999/xlink" width="1024px" height="400px"><style type="text/css">
path { fill: none; stroke: rgb(51,51,51); }
path.series { stroke: #6b63ff; }
rect.background { fill: rgb(255,255,255); stroke: none; }

text {
	stroke-width: 0;
	stroke: none;
	fill: rgba(51,51,51,1.0);
	font-size: 12.8px;
	font-family: 'Roboto Medium', sans-serif;
}
</style><rect height="400px" class="background" rx="8" x="0" y="0" width="1024px" /><rect y="0" width="1024px" height="400px" class="background" rx="8" x="0"></rect><path stroke-width="2" class="series" d="M 58 345 L 61 345 L 77 344 L 77 344 L 77 344 L 77 343 L 77 343 L 77 342 L 77 342 L 77 342 L 78 341 L 78 341 L 78 341 L 78 340 L 78 340 L 78 339 L 78 339 L 78 339 L 78 338 L 79 338 L 80 337 L 80 337 L 81 337 L 82 336 L 82 336 L 82 336 L 82 335 L 83 335 L 85 334 L 85 334 L 86 334 L 87 333 L 92 333 L 92 332 L 93 332 L 93 332 L 93 331 L 96 331 L 97 331 L 98 330 L 100 330 L 104 329 L 106 329 L 113 329 L 115 328 L 119 328 L 123 327 L 124 327 L 139 327 L 140 326 L 140 326 L 142 326 L 143 325 L 143 325 L 143 324 L 143 324 L 143 324 L 143 323 L 143 323 L 143 322 L 143 322 L 143 322 L 143 321 L 143 321 L 143 321 L 143 320 L 143 320 L 143 319 L 143 319 L 143 319 L 143 318 L 143 318 L 143 317 L 143 317 L 143 317 L 143 316 L 143 316 L 143 316 L 143 315 L 143 315 L 143 314 L 144 314 L 144 314 L 144 313 L 144 313 L 144 313 L 144 312 L 144 312 L 144 311 L 144 311 L 144 311 L 144 310 L 144 310 L 144 309 L 144 309 L 144 309 L 144 308 L 144 308 L 144 308 L 144 307 L 145 307 L 145 306 L 145 306 L 145 306 L 145 305 L 146 305 L 146 304 L 146 304 L 146 304 L 146 303 L 146 303 L 146 303 L 146 302 L 146 302 L 146 301 L 146 301 L 146 301 L 146 300 L 146 300 L 146 299 L 146 299 L 146 299 L 147 298 L 148 298 L 148 298 L 148 297 L 148 297 L 151 296 L 152 296 L 152 296 L 153 295 L 153 295 L 155 294 L 158 294 L 158 294 L 161 293 L 161 293 L 163 293 L 163 292 L 164 292 L 166 291 L 166 291 L 167 291 L 168 290 L 169 290 L 170 289 L 170 289 L 170 289 L 171 288 L 172 288 L 173 288 L 173 287 L 174 287 L 174 286 L 174 286 L 175 286 L 177 285 L 178 285 L 180 284 L 181 284 L 182 284 L 183 283 L 183 283 L 183 283 L 185 282 L 191 282 L 191 281 L 192 281 L 198 281 L 199 280 L 199 280 L 199 280 L 199 279 L 200 279 L 202 278 L 203 278 L 203 278 L 210 277 L 212 277 L 214 276 L 216 276 L 217 276 L 217 275 L 218 275 L 224 275 L 229 274 L 236 274 L 237 273 L 237 273 L 237 273 L 237 272 L 239 272 L 247 271 L 252 271 L 252 271 L 255 270 L 256 270 L 256 270 L 266 269 L 266 269 L 267 268 L 267 268 L 268 268 L 271 267 L 272 267 L 274 266 L 276 266 L 278 266 L 283 265 L 283 265 L 284 265 L 285 264 L 285 264 L 285 263 L 288 263 L 294 263 L 306 262 L 310 262 L 313 261 L 313 261 L 315 261 L 316 260 L 316 260 L 316 260 L 316 259 L 316 259 L 316 258 L 316 258 L 316 258 L 316 257 L 316 257 L 316 256 L 316 256 L 316 256 L 317 255 L 317 255 L 319 255 L 319 254 L 320 254 L 320 253 L 320 253 L 321 253 L 321 252 L 321 252 L 321 251 L 321 251 L 321 251 L 321 250 L 322 250 L 323 250 L 323 249 L 324 249 L 324 248 L 324 248 L 324 248 L 325 247 L 325 247 L 325 247 L 325 246 L 326 246 L 326 245 L 327 245 L 328 245 L 329 244 L 329 244 L 331 243 L 333 243 L 333 243 L 334 242 L 334 242 L 334 242 L 334 241 L 334 241 L 336 240 L 337 240 L 338 240 L 338 239 L 339 239 L 341 238 L 342 238 L 343 238 L 345 237 L 346 237 L 346 237 L 347 236 L 347 236 L 352 235 L 352 235 L 353 235 L 356 234 L 358 234 L 362 233 L 363 233 L 363 233 L 364 232 L 364 232 L 364 232 L 367 231 L 370 231 L 371 230 L 371 230 L 373 230 L 374 229 L 374 229 L 374 228 L 374 228 L 375 228 L 375 227 L 375 227 L 376 227 L 376 226 L 376 226 L 377 225 L 382 225 L 387 225 L 387 224 L 387 224 L 390 223 L 392 223 L 393 223 L 393 222 L 395 222 L 396 222 L 396 221 L 396 221 L 396 220 L 396 220 L 396 220 L 396 219 L 397 219 L 397 218 L 398 218 L 400 218 L 400 217 L 400 217 L 400 217 L 400 216 L 401 216 L 401 215 L 401 215 L 401 215 L 401 214 L 401 214 L 401 214 L 401 213 L 405 213 L 408 212 L 408 212 L 409 212 L 419 211 L 421 211 L 424 210 L 426 210 L 433 210 L 435 209 L 437 209 L 438 209 L 438 208 L 438 208 L 438 207 L 438 207 L 438 207 L 438 206 L 439 206 L 440 205 L 448 205 L 451 205 L 454 204 L 460 204 L 465 204 L 468 203 L 471 203 L 475 202 L 475 202 L 485 202 L 494 201 L 494 201 L 501 200 L 501 200 L 507 200 L 508 199 L 510 199 L 510 199 L 511 198 L 511 198 L 514 197 L 515 197 L 518 197 L 522 196 L 523 196 L 524 195 L 524 195 L 528 195 L 531 194 L 531 194 L 535 194 L 539 193 L 540 193 L 540 192 L 542 192 L 543 192 L 544 191 L 547 191 L 550 190 L 552 190 L 555 190 L 555 189 L 560 189 L 561 189 L 564 188 L 568 188 L 568 187 L 573 187 L 574 187 L 574 186 L 576 186 L 576 185 L 578 185 L 579 185 L 581 184 L 584 184 L 585 184 L 585 183 L 585 183 L 593 182 L 593 182 L 594 182 L 594 181 L 594 181 L 595 181 L 595 180 L 596 180 L 596 179 L 598 179 L 598 179 L 600 178 L 601 178 L 601 177 L 602 177 L 602 177 L 603 176 L 603 176 L 604 176 L 604 175 L 604 175 L 604 174 L 605 174 L 605 174 L 606 173 L 607 173 L 608 172 L 608 172 L 609 172 L 609 171 L 610 171 L 612 171 L 612 170 L 613 170 L 614 169 L 615 169 L 615 169 L 616 168 L 616 168 L 618 167 L 618 167 L 618 167 L 619 166 L 619 166 L 619 166 L 620 165 L 620 165 L 621 164 L 622 164 L 625 164 L 626 163 L 627 163 L 627 162 L 630 162 L 631 162 L 632 161 L 634 161 L 637 161 L 639 160 L 642 160 L 642 159 L 643 159 L 643 159 L 643 158 L 644 158 L 644 157 L 644 157 L 645 157 L 645 156 L 645 156 L 646 156 L 647 155 L 648 155 L 648 154 L 649 154 L 649 154 L 652 153 L 653 153 L 653 152 L 654 152 L 655 152 L 657 151 L 660 151 L 664 151 L 664 150 L 664 150 L 664 149 L 666 149 L 669 149 L 669 148 L 669 148 L 669 148 L 670 147 L 671 147 L 675 146 L 675 146 L 675 146 L 675 145 L 677 145 L 678 144 L 678 144 L 678 144 L 681 143 L 685 143 L 685 143 L 689 142 L 689 142 L 690 141 L 694 141 L 695 141 L 698 140 L 700 140 L 701 139 L 702 139 L 702 139 L 703 138 L 703 138 L 703 138 L 703 137 L 704 137 L 705 136 L 705 136 L 706 136 L 706 135 L 706 135 L 707 134 L 708 134 L 708 134 L 714 133 L 714 133 L 719 133 L 722 132 L 722 132 L 723 131 L 723 131 L 726 131 L 727 130 L 727 130 L 727 129 L 728 129 L 728 129 L 728 128 L 728 128 L 728 128 L 729 127 L 729 127 L 729 126 L 729 126 L 730 126 L 731 125 L 731 125 L 731 124 L 732 124 L 733 124 L 733 123 L 734 123 L 735 123 L 735 122 L 735 122 L 736 121 L 737 121 L 740 121 L 740 120 L 740 120 L 740 119 L 740 119 L 741 119 L 741 118 L 742 118 L 743 118 L 745 117 L 748 117 L 751 116 L 752 116 L 754 116 L 757 115 L 761 115 L 761 115 L 764 114 L 769 114 L 769 113 L 769 113 L 774 113 L 775 112 L 776 112 L 777 111 L 777 111 L 786 111 L 786 110 L 787 110 L 787 110 L 788 109 L 788 109 L 790 108 L 790 108 L 790 108 L 791 107 L 791 107 L 792 106 L 792 106 L 793 106 L 793 105 L 793 105 L 793 105 L 793 104 L 793 104 L 794 103 L 795 103 L 796 103 L 798 102 L 798 102 L 798 101 L 799 101 L 799 101 L 800 100 L 801 100 L 802 100 L 802 99 L 802 99 L 802 98 L 804 98 L 804 98 L 806 97 L 806 97 L 807 96 L 808 96 L 808 96 L 808 95 L 809 95 L 809 95 L 809 94 L 810 94 L 810 93 L 811 93 L 811 93 L 813 92 L 813 92 L 813 91 L 813 91 L 813 91 L 814 90 L 815 90 L 815 90 L 815 89 L 816 89 L 816 88 L 816 88 L 817 88 L 818 87 L 818 87 L 818 86 L 818 86 L 818 86 L 819 85 L 819 85 L 819 85 L 819 84 L 819 84 L 822 83 L 823 83 L 825 83 L 825 82 L 825 82 L 825 82 L 827 81 L 828 81 L 828 80 L 829 80 L 832 80 L 834 79 L 835 79 L 836 78 L 837 78 L 837 78 L 838 77 L 838 77 L 839 77 L 839 76 L 839 76 L 839 75 L 839 75 L 839 75 L 839 74 L 840 74 L 840 73 L 840 73 L 840 73 L 840 72 L 840 72 L 841 72 L 841 71 L 842 71 L 842 70 L 843 70 L 845 70 L 845 69 L 845 69 L 845 68 L 847 68 L 847 68 L 848 67 L 851 67 L 852 67 L 852 66 L 852 66 L 852 65 L 852 65 L 854 65 L 857 64 L 857 64 L 859 63 L 859 63 L 859 63 L 860 62 L 861 62 L 866 62 L 868 61 L 871 61 L 873 60 L 874 60 L 875 60 L 876 59 L 876 59 L 877 58 L 877 58 L 878 58 L 878 57 L 879 57 L 879 57 L 880 56 L 883 56 L 883 55 L 883 55 L 883 55 L 883 54 L 883 54 L 883 53 L 883 53 L 883 53 L 883 52 L 883 52 L 883 52 L 883 51 L 883 51 L 883 50 L 883 50 L 883 50 L 884 49 L 884 49 L 884 49 L 885 48 L 885 48 L 885 47 L 885 47 L 886 47 L 886 46 L 886 46 L 887 45 L 887 45 L 887 45 L 887 44 L 887 44 L 887 44 L 888 43 L 890 43 L 892 42 L 892 42 L 892 42 L 894 41 L 894 41 L 895 40 L 895 40 L 898 40 L 899 39 L 900 39 L 900 39 L 900 38 L 900 38 L 900 37 L 900 37 L 900 37 L 903 36 L 903 36 L 903 35 L 907 35 L 909 35 L 911 34 L 913 34 L 915 34 L 916 33 L 916 33 L 916 32 L 916 32 L 917 32 L 917 31 L 917 31 L 918 30 L 919 30 L 919 30 L 920 29 L 920 29 L 920 29 L 920 28 L 920 28 L 920 27 L 920 27 L 921 27 L 921 26 L 921 26 L 923 25 L 923 25 L 924 25 L 924 24 L 925 24 L 925 24 L 926 23 L 926 23 L 927 22 L 927 22 L 927 22 L 928 21 L 929 21 L 933 20 L 934 20 L 935 20 L 939 19 L 939 19 L 941 19 L 944 18 L 945 18 L 945 17" /><path d="M 58 345 L 61 345 L 77 344 L 77 344 L 77 344 L 77 343 L 77 343 L 77 342 L 77 342 L 77 342 L 78 341 L 78 341 L 78 341 L 78 340 L 78 340 L 78 339 L 78 339 L 78 339 L 78 338 L 79 338 L 80 337 L 80 337 L 81 337 L 82 336 L 82 336 L 82 336 L 82 335 L 83 335 L 85 334 L 85 334 L 86 334 L 87 333 L 92 333 L 92 332 L 93 332 L 93 332 L 93 331 L 96 331 L 97 331 L 98 330 L 100 330 L 104 329 L 106 329 L 113 329 L 115 328 L 119 328 L 123 327 L 124 327 L 139 327 L 140 326 L 140 326 L 142 326 L 143 325 L 143 325 L 143 324 L 143 324 L 143 324 L 143 323 L 143 323 L 143 322 L 143 322 L 143 322 L 143 321 L 143 321 L 143 321 L 143 320 L 143 320 L 143 319 L 143 319 L 143 319 L 143 318 L 143 318 L 143 317 L 143 317 L 143 317 L 143 316 L 143 316 L 143 316 L 143 315 L 143 315 L 143 314 L 144 314 L 144 314 L 144 313 L 144 313 L 144 313 L 144 312 L 144 312 L 144 311 L 144 311 L 144 311 L 144 310 L 144 310 L 144 309 L 144 309 L 144 309 L 144 308 L 144 308 L 144 308 L 144 307 L 145 307 L 145 306 L 145 306 L 145 306 L 145 305 L 146 305 L 146 304 L 146 304 L 146 304 L 146 303 L 146 303 L 146 303 L 146 302 L 146 302 L 146 301 L 146 301 L 146 301 L 146 300 L 146 300 L 146 299 L 146 299 L 146 299 L 147 298 L 148 298 L 148 298 L 148 297 L 148 297 L 151 296 L 152 296 L 152 296 L 153 295 L 153 295 L 155 294 L 158 294 L 158 294 L 161 293 L 161 293 L 163 293 L 163 292 L 164 292 L 166 291 L 166 291 L 167 291 L 168 290 L 169 290 L 170 289 L 170 289 L 170 289 L 171 288 L 172 288 L 173 288 L 173 287 L 174 287 L 174 286 L 174 286 L 175 286 L 177 285 L 178 285 L 180 284 L 181 284 L 182 284 L 183 283 L 183 283 L 183 283 L 185 282 L 191 282 L 191 281 L 192 281 L 198 281 L 199 280 L 199 280 L 199 280 L 199 279 L 200 279 L 202 278 L 203 278 L 203 278 L 210 277 L 212 277 L 214 276 L 216 276 L 217 276 L 217 275 L 218 275 L 224 275 L 229 274 L 236 274 L 237 273 L 237 273 L 237 273 L 237 272 L 239 272 L 247 271 L 252 271 L 252 271 L 255 270 L 256 270 L 256 270 L 266 269 L 266 269 L 267 268 L 267 268 L 268 268 L 271 267 L 272 267 L 274 266 L 276 266 L 278 266 L 283 265 L 283 265 L 284 265 L 285 264 L 285 264 L 285 263 L 288 263 L 294 263 L 306 262 L 310 262 L 313 261 L 313 261 L 315 261 L 316 260 L 316 260 L 316 260 L 316 259 L 316 259 L 316 258 L 316 258 L 316 258 L 316 257 L 316 257 L 316 256 L 316 256 L 316 256 L 317 255 L 317 255 L 319 255 L 319 254 L 320 254 L 320 253 L 320 253 L 321 253 L 321 252 L 321 252 L 321 251 L 321 251 L 321 251 L 321 250 L 322 250 L 323 250 L 323 249 L 324 249 L 324 248 L 324 248 L 324 248 L 325 247 L 325 247 L 325 247 L 325 246 L 326 246 L 326 245 L 327 245 L 328 245 L 329 244 L 329 244 L 331 243 L 333 243 L 333 243 L 334 242 L 334 242 L 334 242 L 334 241 L 334 241 L 336 240 L 337 240 L 338 240 L 338 239 L 339 239 L 341 238 L 342 238 L 343 238 L 345 237 L 346 237 L 346 237 L 347 236 L 347 236 L 352 235 L 352 235 L 353 235 L 356 234 L 358 234 L 362 233 L 363 233 L 363 233 L 364 232 L 364 232 L 364 232 L 367 231 L 370 231 L 371 230 L 371 230 L 373 230 L 374 229 L 374 229 L 374 228 L 374 228 L 375 228 L 375 227 L 375 227 L 376 227 L 376 226 L 376 226 L 377 225 L 382 225 L 387 225 L 387 224 L 387 224 L 390 223 L 392 223 L 393 223 L 393 222 L 395 222 L 396 222 L 396 221 L 396 221 L 396 220 L 396 220 L 396 220 L 396 219 L 397 219 L 397 218 L 398 218 L 400 218 L 400 217 L 400 217 L 400 217 L 400 216 L 401 216 L 401 215 L 401 215 L 401 215 L 401 214 L 401 214 L 401 214 L 401 213 L 405 213 L 408 212 L 408 212 L 409 212 L 419 211 L 421 211 L 424 210 L 426 210 L 433 210 L 435 209 L 437 209 L 438 209 L 438 208 L 438 208 L 438 207 L 438 207 L 438 207 L 438 206 L 439 206 L 440 205 L 448 205 L 451 205 L 454 204 L 460 204 L 465 204 L 468 203 L 471 203 L 475 202 L 475 202 L 485 202 L 494 201 L 494 201 L 501 200 L 501 200 L 507 200 L 508 199 L 510 199 L 510 199 L 511 198 L 511 198 L 514 197 L 515 197 L 518 197 L 522 196 L 523 196 L 524 195 L 524 195 L 528 195 L 531 194 L 531 194 L 535 194 L 539 193 L 540 193 L 540 192 L 542 192 L 543 192 L 544 191 L 547 191 L 550 190 L 552 190 L 555 190 L 555 189 L 560 189 L 561 189 L 564 188 L 568 188 L 568 187 L 573 187 L 574 187 L 574 186 L 576 186 L 576 185 L 578 185 L 579 185 L 581 184 L 584 184 L 585 184 L 585 183 L 585 183 L 593 182 L 593 182 L 594 182 L 594 181 L 594 181 L 595 181 L 595 180 L 596 180 L 596 179 L 598 179 L 598 179 L 600 178 L 601 178 L 601 177 L 602 177 L 602 177 L 603 176 L 603 176 L 604 176 L 604 175 L 604 175 L 604 174 L 605 174 L 605 174 L 606 173 L 607 173 L 608 172 L 608 172 L 609 172 L 609 171 L 610 171 L 612 171 L 612 170 L 613 170 L 614 169 L 615 169 L 615 169 L 616 168 L 616 168 L 618 167 L 618 167 L 618 167 L 619 166 L 619 166 L 619 166 L 620 165 L 620 165 L 621 164 L 622 164 L 625 164 L 626 163 L 627 163 L 627 162 L 630 162 L 631 162 L 632 161 L 634 161 L 637 161 L 639 160 L 642 160 L 642 159 L 643 159 L 643 159 L 643 158 L 644 158 L 644 157 L 644 157 L 645 157 L 645 156 L 645 156 L 646 156 L 647 155 L 648 155 L 648 154 L 649 154 L 649 154 L 652 153 L 653 153 L 653 152 L 654 152 L 655 152 L 657 151 L 660 151 L 664 151 L 664 150 L 664 150 L 664 149 L 666 149 L 669 149 L 669 148 L 669 148 L 669 148 L 670 147 L 671 147 L 675 146 L 675 146 L 675 146 L 675 145 L 677 145 L 678 144 L 678 144 L 678 144 L 681 143 L 685 143 L 685 143 L 689 142 L 689 142 L 690 141 L 694 141 L 695 141 L 698 140 L 700 140 L 701 139 L 702 139 L 702 139 L 703 138 L 703 138 L 703 138 L 703 137 L 704 137 L 705 136 L 705 136 L 706 136 L 706 135 L 706 135 L 707 134 L 708 134 L 708 134 L 714 133 L 714 133 L 719 133 L 722 132 L 722 132 L 723 131 L 723 131 L 726 131 L 727 130 L 727 130 L 727 129 L 728 129 L 728 129 L 728 128 L 728 128 L 728 128 L 729 127 L 729 127 L 729 126 L 729 126 L 730 126 L 731 125 L 731 125 L 731 124 L 732 124 L 733 124 L 733 123 L 734 123 L 735 123 L 735 122 L 735 122 L 736 121 L 737 121 L 740 121 L 740 120 L 740 120 L 740 119 L 740 119 L 741 119 L 741 118 L 742 118 L 743 118 L 745 117 L 748 117 L 751 116 L 752 116 L 754 116 L 757 115 L 761 115 L 761 115 L 764 114 L 769 114 L 769 113 L 769 113 L 774 113 L 775 112 L 776 112 L 777 111 L 777 111 L 786 111 L 786 110 L 787 110 L 787 110 L 788 109 L 788 109 L 790 108 L 790 108 L 790 108 L 791 107 L 791 107 L 792 106 L 792 106 L 793 106 L 793 105 L 793 105 L 793 105 L 793 104 L 793 104 L 794 103 L 795 103 L 796 103 L 798 102 L 798 102 L 798 101 L 799 101 L 799 101 L 800 100 L 801 100 L 802 100 L 802 99 L 802 99 L 802 98 L 804 98 L 804 98 L 806 97 L 806 97 L 807 96 L 808 96 L 808 96 L 808 95 L 809 95 L 809 95 L 809 94 L 810 94 L 810 93 L 811 93 L 811 93 L 813 92 L 813 92 L 813 91 L 813 91 L 813 91 L 814 90 L 815 90 L 815 90 L 815 89 L 816 89 L 816 88 L 816 88 L 817 88 L 818 87 L 818 87 L 818 86 L 818 86 L 818 86 L 819 85 L 819 85 L 819 85 L 819 84 L 819 84 L 822 83 L 823 83 L 825 83 L 825 82 L 825 82 L 825 82 L 827 81 L 828 81 L 828 80 L 829 80 L 832 80 L 834 79 L 835 79 L 836 78 L 837 78 L 837 78 L 838 77 L 838 77 L 839 77 L 839 76 L 839 76 L 839 75 L 839 75 L 839 75 L 839 74 L 840 74 L 840 73 L 840 73 L 840 73 L 840 72 L 840 72 L 841 72 L 841 71 L 842 71 L 842 70 L 843 70 L 845 70 L 845 69 L 845 69 L 845 68 L 847 68 L 847 68 L 848 67 L 851 67 L 852 67 L 852 66 L 852 66 L 852 65 L 852 65 L 854 65 L 857 64 L 857 64 L 859 63 L 859 63 L 859 63 L 860 62 L 861 62 L 866 62 L 868 61 L 871 61 L 873 60 L 874 60 L 875 60 L 876 59 L 876 59 L 877 58 L 877 58 L 878 58 L 878 57 L 879 57 L 879 57 L 880 56 L 883 56 L 883 55 L 883 55 L 883 55 L 883 54 L 883 54 L 883 53 L 883 53 L 883 53 L 883 52 L 883 52 L 883 52 L 883 51 L 883 51 L 883 50 L 883 50 L 883 50 L 884 49 L 884 49 L 884 49 L 885 48 L 885 48 L 885 47 L 885 47 L 886 47 L 886 46 L 886 46 L 887 45 L 887 45 L 887 45 L 887 44 L 887 44 L 887 44 L 888 43 L 890 43 L 892 42 L 892 42 L 892 42 L 894 41 L 894 41 L 895 40 L 895 40 L 898 40 L 899 39 L 900 39 L 900 39 L 900 38 L 900 38 L 900 37 L 900 37 L 900 37 L 903 36 L 903 36 L 903 35 L 907 35 L 909 35 L 911 34 L 913 34 L 915 34 L 916 33 L 916 33 L 916 32 L 916 32 L 917 32 L 917 31 L 917 31 L 918 30 L 919 30 L 919 30 L 920 29 L 920 29 L 920 29 L 920 28 L 920 28 L 920 27 L 920 27 L 921 27 L 921 26 L 921 26 L 923 25 L 923 25 L 924 25 L 924 24 L 925 24 L 925 24 L 926 23 L 926 23 L 927 22 L 927 22 L 927 22 L 928 21 L 929 21 L 933 20 L 934 20 L 935 20 L 939 19 L 939 19 L 941 19 L 944 18 L 945 18 L 945 17" stroke-width="2" class="series"></path><path stroke-width="2" d="M 945 346 L 945.000000 15.000000" /><path stroke-width="2" d="M 945 346 L 945.000000 15.000000"></path><path stroke-width="2" d="M 945 346 L 950 346" /><path stroke-width="2" d="M 945 346 L 950 346"></path><text x="955" y="352" xmlns="http://www.w3.org/2000/svg">0</text><path d="M 945 309 L 950 309" stroke-width="2" /><path stroke-width="2" d="M 945 309 L 950 309"></path><text xmlns="http://www.w3.org/2000/svg" x="955" y="315">96</text><path d="M 945 272 L 950 272" stroke-width="2" /><path stroke-width="2" d="M 945 272 L 950 272"></path><text xmlns="http://www.w3.org/2000/svg" x="955" y="278">192</text><path stroke-width="2" d="M 945 235 L 950 235" /><path d="M 945 235 L 950 235" stroke-width="2"></path><text y="241" xmlns="http://www.w3.org/2000/svg" x="955">287</text><path stroke-width="2" d="M 945 199 L 950 199" /><path stroke-width="2" d="M 945 199 L 950 199"></path><text xmlns="http://www.w3.org/2000/svg" x="955" y="205">383</text><path stroke-width="2" d="M 945 162 L 950 162" /><path stroke-width="2" d="M 945 162 L 950 162"></path><text xmlns="http://www.w3.org/2000/svg" x="955" y="168">478</text><path stroke-width="2" d="M 945 125 L 950 125" /><path stroke-width="2" d="M 945 125 L 950 125"></path><text xmlns="http://www.w3.org/2000/svg" x="955" y="131">574</text><path d="M 945 89 L 950 89" stroke-width="2" /><path d="M 945 89 L 950 89" stroke-width="2"></path><text xmlns="http://www.w3.org/2000/svg" x="955" y="95">669</text><path stroke-width="2" d="M 945 52 L 950 52" /><path stroke-width="2" d="M 945 52 L 950 52"></path><text xmlns="http://www.w3.org/2000/svg" x="955" y="58">765</text><path stroke-width="2" d="M 945 16 L 950 16" /><path d="M 945 16 L 950 16" stroke-width="2"></path><text xmlns="http://www.w3.org/2000/svg" x="955" y="22">860</text><text xmlns="http://www.w3.org/2000/svg" x="987" y="175" transform="rotate(90.00,987,175)">Stargazers</text><path stroke-width="2" d="M 57.000000 346.000000 L 945 346" /><path stroke-width="2" d="M 57.000000 346.000000 L 945 346"></path><path stroke-width="2" d="M 58 346 L 58 351" /><path stroke-width="2" d="M 58 346 L 58 351"></path><text xmlns="http://www.w3.org/2000/svg" x="25" y="368">2023-04-02</text><path stroke-width="2" d="M 157 346 L 157 351" /><path stroke-width="2" d="M 157 346 L 157 351"></path><text xmlns="http://www.w3.org/2000/svg" x="124" y="368">2023-06-16</text><path stroke-width="2" d="M 256 346 L 256 351" /><path stroke-width="2" d="M 256 346 L 256 351"></path><text xmlns="http://www.w3.org/2000/svg" x="223" y="368">2023-08-30</text><path stroke-width="2" d="M 354 346 L 354 351" /><path stroke-width="2" d="M 354 346 L 354 351"></path><text xmlns="http://www.w3.org/2000/svg" x="321" y="368">2023-11-13</text><path stroke-width="2" d="M 453 346 L 453 351" /><path stroke-width="2" d="M 453 346 L 453 351"></path><text xmlns="http://www.w3.org/2000/svg" x="420" y="368">2024-01-27</text><path d="M 551 346 L 551 351" stroke-width="2" /><path stroke-width="2" d="M 551 346 L 551 351"></path><text xmlns="http://www.w3.org/2000/svg" x="518" y="368">2024-04-11</text><path stroke-width="2" d="M 650 346 L 650 351" /><path stroke-width="2" d="M 650 346 L 650 351"></path><text x="617" y="368" xmlns="http://www.w3.org/2000/svg">2024-06-25</text><path d="M 748 346 L 748 351" stroke-width="2" /><path stroke-width="2" d="M 748 346 L 748 351"></path><text xmlns="http://www.w3.org/2000/svg" x="715" y="368">2024-09-08</text><path stroke-width="2" d="M 847 346 L 847 351" /><path stroke-width="2" d="M 847 346 L 847 351"></path><text xmlns="http://www.w3.org/2000/svg" x="814" y="368">2024-11-22</text><path d="M 945 346 L 945 351" stroke-width="2" /><path stroke-width="2" d="M 945 346 L 945 351"></path><text xmlns="http://www.w3.org/2000/svg" x="912" y="368">2025-02-05</text><text xmlns="http://www.w3.org/2000/svg" x="487" y="390">Time</text></svg>