<svg xmlns="http://www.w3.org/2000/svg" xmlns:xlink="http://www.w3.org/1999/xlink" width="1024px" height="400px"><style type="text/css">
path { fill: none; stroke: rgb(51,51,51); }
path.series { stroke: #6b63ff; }
rect.background { fill: rgb(255,255,255); stroke: none; }

text {
	stroke-width: 0;
	stroke: none;
	fill: rgba(51,51,51,1.0);
	font-size: 12.8px;
	font-family: 'Roboto Medium', sans-serif;
}
</style><rect height="400px" class="background" rx="8" x="0" y="0" width="1024px" /><rect x="0" y="0" width="1024px" height="400px" class="background" rx="8"></rect><path stroke-width="2" class="series" d="M 58 345 L 62 344 L 84 344 L 84 343 L 84 343 L 84 342 L 84 341 L 84 341 L 84 340 L 84 340 L 85 339 L 85 338 L 85 338 L 85 337 L 85 337 L 85 336 L 85 335 L 86 335 L 86 334 L 87 334 L 87 333 L 88 332 L 89 332 L 90 331 L 90 331 L 90 330 L 91 329 L 92 329 L 95 328 L 95 328 L 97 327 L 98 326 L 105 326 L 105 325 L 105 325 L 105 324 L 105 323 L 105 323 L 109 322 L 111 322 L 112 321 L 116 320 L 121 320 L 123 319 L 133 319 L 136 318 L 141 317 L 147 317 L 149 316 L 169 316 L 171 315 L 171 314 L 173 314 L 174 313 L 174 313 L 174 312 L 174 311 L 174 311 L 174 310 L 174 310 L 174 309 L 174 308 L 174 308 L 174 307 L 175 307 L 175 306 L 175 305 L 175 305 L 175 304 L 175 304 L 175 303 L 175 302 L 175 302 L 175 301 L 175 301 L 175 300 L 175 299 L 175 299 L 175 298 L 175 298 L 175 297 L 175 296 L 175 296 L 175 295 L 175 295 L 175 294 L 175 293 L 175 293 L 175 292 L 175 292 L 175 291 L 176 290 L 176 290 L 176 289 L 176 289 L 176 288 L 176 287 L 176 287 L 176 286 L 176 286 L 176 285 L 177 284 L 177 284 L 177 283 L 177 283 L 178 282 L 179 281 L 179 281 L 179 280 L 179 280 L 179 279 L 179 278 L 179 278 L 179 277 L 179 277 L 179 276 L 179 275 L 179 275 L 179 274 L 179 274 L 179 273 L 179 272 L 179 272 L 180 271 L 181 271 L 181 270 L 181 269 L 181 269 L 186 268 L 186 268 L 186 267 L 188 266 L 188 266 L 191 265 L 195 265 L 196 264 L 199 263 L 200 263 L 202 262 L 203 262 L 203 261 L 206 260 L 207 260 L 208 259 L 209 259 L 210 258 L 212 257 L 212 257 L 212 256 L 212 256 L 214 255 L 216 254 L 216 254 L 217 253 L 217 253 L 217 252 L 218 251 L 221 251 L 222 250 L 225 250 L 227 249 L 228 248 L 229 248 L 229 247 L 230 247 L 232 246 L 240 245 L 241 245 L 242 244 L 251 244 L 251 243 L 251 242 L 251 242 L 251 241 L 253 241 L 255 240 L 257 239 L 257 239 L 267 238 L 269 238 L 271 237 L 275 236 L 277 236 L 277 235 L 278 235 L 285 234 L 293 233 L 302 233 L 303 232 L 303 232 L 303 231 L 304 230 L 306 230 L 318 229 L 324 229 L 324 228 L 328 227 L 329 227 L 330 226 L 344 226 L 344 225 L 345 224 L 345 224 L 347 223 L 350 223 L 352 222 L 355 221 L 357 221 L 359 220 L 367 220 L 367 219 L 369 218 L 369 218 L 369 217 L 370 217 L 374 216 L 381 215 L 398 215 L 404 214 L 408 214 L 408 213 L 410 212 L 412 212 L 412 211 L 412 211 L 412 210 L 412 209 L 412 209 L 412 208 L 412 208 L 412 207 L 412 206 L 413 206 L 413 205 L 413 205 L 413 204 L 414 203 L 415 203 L 416 202 L 417 202 L 417 201 L 417 200 L 417 200 L 419 199 L 419 199 L 419 198 L 419 197 L 419 197 L 419 196 L 420 196 L 421 195 L 422 194 L 422 194 L 423 193 L 423 193 L 423 192 L 423 191 L 424 191 L 424 190 L 425 190 L 425 189 L 426 188 L 426 188 L 427 187 L 428 187 L 429 186 L 430 185 L 432 185 L 436 184 L 436 184 L 437 183 L 437 182 L 437 182 L 437 181 L 437 181 L 440 180 L 440 179 L 443 179 L 443 178 L 444 178 L 446 177 L 448 176 L 449 176 L 452 175 L 453 175 L 453 174 L 455 173 L 455 173 L 461 172 L 462 172 L 463 171 L 467 170 L 470 170 L 475 169 L 476 169 L 477 168 L 478 167 L 479 167 L 479 166 L 483 166 L 486 165 L 488 164 L 488 164 L 490 163 L 492 163 L 492 162 L 492 161 L 492 161 L 493 160 L 493 160 L 493 159 L 495 158 L 495 158 L 495 157 L 496 157 L 502 156 L 509 155 L 509 155 L 510 154 L 514 154 L 517 153 L 518 152 L 518 152 L 520 151 L 522 151 L 522 150 L 522 149 L 522 149 L 522 148 L 522 148 L 522 147 L 523 146 L 523 146 L 524 145 L 527 145 L 527 144 L 528 143 L 528 143 L 528 142 L 529 142 L 529 141 L 529 140 L 529 140 L 529 139 L 529 139 L 529 138 L 529 137 L 535 137 L 538 136 L 538 136 L 540 135 L 546 134 L 554 134 L 556 133 L 560 132 L 564 132 L 573 131 L 576 131 L 579 130 L 579 130 L 579 129 L 579 128 L 580 128 L 580 127 L 580 126 L 580 126 L 582 125 L 583 125 L 594 124 L 597 124 L 601 123 L 610 122 L 616 122 L 621 121 L 625 121 L 631 120 L 631 119 L 644 119 L 657 118 L 657 118 L 666 117 L 667 116 L 674 116 L 675 115 L 679 115 L 679 114 L 680 113 L 680 113 L 684 112 L 686 112 L 690 111 L 695 110 L 696 110 L 697 109 L 698 109 L 703 108 L 708 107 L 708 107 L 713 106 L 719 106 L 720 105 L 720 104 L 722 104 L 724 103 L 725 103 L 730 102 L 733 101 L 737 101 L 740 100 L 740 100 L 747 99 L 749 98 L 752 98 L 759 97 L 759 97 L 766 96 L 767 95 L 767 95 L 769 94 L 769 94 L 773 93 L 773 92 L 776 92 L 780 91 L 781 91 L 782 90 L 782 89 L 793 89 L 793 88 L 794 88 L 794 87 L 795 86 L 796 86 L 796 85 L 796 85 L 797 84 L 800 83 L 800 83 L 802 82 L 803 82 L 804 81 L 805 80 L 806 80 L 806 79 L 807 79 L 807 78 L 807 77 L 808 77 L 808 76 L 809 76 L 809 75 L 810 74 L 812 74 L 813 73 L 813 73 L 814 72 L 815 71 L 816 71 L 818 70 L 818 70 L 819 69 L 821 68 L 823 68 L 823 67 L 824 67 L 825 66 L 827 65 L 827 65 L 827 64 L 828 64 L 828 63 L 829 62 L 829 62 L 830 61 L 830 61 L 832 60 L 836 59 L 838 59 L 840 58 L 840 58 L 843 57 L 845 56 L 846 56 L 849 55 L 853 55 L 856 54 L 859 53 L 860 53 L 861 52 L 861 52 L 861 51 L 862 50 L 863 50 L 863 49 L 864 49 L 864 48 L 864 47 L 865 47 L 867 46 L 868 46 L 868 45 L 870 44 L 870 44 L 874 43 L 874 43 L 874 42 L 876 41 L 877 41 L 880 40 L 884 40 L 890 39 L 890 38 L 890 38 L 890 37 L 893 37 L 896 36 L 897 35 L 897 35 L 897 34 L 898 34 L 900 33 L 905 32 L 906 32 L 906 31 L 906 31 L 908 30 L 909 29 L 909 29 L 909 28 L 910 28 L 914 27 L 919 26 L 919 26 L 924 25 L 925 25 L 926 24 L 931 23 L 932 23 L 936 22 L 939 22 L 941 21 L 943 20 L 943 20 L 944 19 L 944 19 L 944 18 L 944 17 L 945 17" /><path class="series" d="M 58 345 L 62 344 L 84 344 L 84 343 L 84 343 L 84 342 L 84 341 L 84 341 L 84 340 L 84 340 L 85 339 L 85 338 L 85 338 L 85 337 L 85 337 L 85 336 L 85 335 L 86 335 L 86 334 L 87 334 L 87 333 L 88 332 L 89 332 L 90 331 L 90 331 L 90 330 L 91 329 L 92 329 L 95 328 L 95 328 L 97 327 L 98 326 L 105 326 L 105 325 L 105 325 L 105 324 L 105 323 L 105 323 L 109 322 L 111 322 L 112 321 L 116 320 L 121 320 L 123 319 L 133 319 L 136 318 L 141 317 L 147 317 L 149 316 L 169 316 L 171 315 L 171 314 L 173 314 L 174 313 L 174 313 L 174 312 L 174 311 L 174 311 L 174 310 L 174 310 L 174 309 L 174 308 L 174 308 L 174 307 L 175 307 L 175 306 L 175 305 L 175 305 L 175 304 L 175 304 L 175 303 L 175 302 L 175 302 L 175 301 L 175 301 L 175 300 L 175 299 L 175 299 L 175 298 L 175 298 L 175 297 L 175 296 L 175 296 L 175 295 L 175 295 L 175 294 L 175 293 L 175 293 L 175 292 L 175 292 L 175 291 L 176 290 L 176 290 L 176 289 L 176 289 L 176 288 L 176 287 L 176 287 L 176 286 L 176 286 L 176 285 L 177 284 L 177 284 L 177 283 L 177 283 L 178 282 L 179 281 L 179 281 L 179 280 L 179 280 L 179 279 L 179 278 L 179 278 L 179 277 L 179 277 L 179 276 L 179 275 L 179 275 L 179 274 L 179 274 L 179 273 L 179 272 L 179 272 L 180 271 L 181 271 L 181 270 L 181 269 L 181 269 L 186 268 L 186 268 L 186 267 L 188 266 L 188 266 L 191 265 L 195 265 L 196 264 L 199 263 L 200 263 L 202 262 L 203 262 L 203 261 L 206 260 L 207 260 L 208 259 L 209 259 L 210 258 L 212 257 L 212 257 L 212 256 L 212 256 L 214 255 L 216 254 L 216 254 L 217 253 L 217 253 L 217 252 L 218 251 L 221 251 L 222 250 L 225 250 L 227 249 L 228 248 L 229 248 L 229 247 L 230 247 L 232 246 L 240 245 L 241 245 L 242 244 L 251 244 L 251 243 L 251 242 L 251 242 L 251 241 L 253 241 L 255 240 L 257 239 L 257 239 L 267 238 L 269 238 L 271 237 L 275 236 L 277 236 L 277 235 L 278 235 L 285 234 L 293 233 L 302 233 L 303 232 L 303 232 L 303 231 L 304 230 L 306 230 L 318 229 L 324 229 L 324 228 L 328 227 L 329 227 L 330 226 L 344 226 L 344 225 L 345 224 L 345 224 L 347 223 L 350 223 L 352 222 L 355 221 L 357 221 L 359 220 L 367 220 L 367 219 L 369 218 L 369 218 L 369 217 L 370 217 L 374 216 L 381 215 L 398 215 L 404 214 L 408 214 L 408 213 L 410 212 L 412 212 L 412 211 L 412 211 L 412 210 L 412 209 L 412 209 L 412 208 L 412 208 L 412 207 L 412 206 L 413 206 L 413 205 L 413 205 L 413 204 L 414 203 L 415 203 L 416 202 L 417 202 L 417 201 L 417 200 L 417 200 L 419 199 L 419 199 L 419 198 L 419 197 L 419 197 L 419 196 L 420 196 L 421 195 L 422 194 L 422 194 L 423 193 L 423 193 L 423 192 L 423 191 L 424 191 L 424 190 L 425 190 L 425 189 L 426 188 L 426 188 L 427 187 L 428 187 L 429 186 L 430 185 L 432 185 L 436 184 L 436 184 L 437 183 L 437 182 L 437 182 L 437 181 L 437 181 L 440 180 L 440 179 L 443 179 L 443 178 L 444 178 L 446 177 L 448 176 L 449 176 L 452 175 L 453 175 L 453 174 L 455 173 L 455 173 L 461 172 L 462 172 L 463 171 L 467 170 L 470 170 L 475 169 L 476 169 L 477 168 L 478 167 L 479 167 L 479 166 L 483 166 L 486 165 L 488 164 L 488 164 L 490 163 L 492 163 L 492 162 L 492 161 L 492 161 L 493 160 L 493 160 L 493 159 L 495 158 L 495 158 L 495 157 L 496 157 L 502 156 L 509 155 L 509 155 L 510 154 L 514 154 L 517 153 L 518 152 L 518 152 L 520 151 L 522 151 L 522 150 L 522 149 L 522 149 L 522 148 L 522 148 L 522 147 L 523 146 L 523 146 L 524 145 L 527 145 L 527 144 L 528 143 L 528 143 L 528 142 L 529 142 L 529 141 L 529 140 L 529 140 L 529 139 L 529 139 L 529 138 L 529 137 L 535 137 L 538 136 L 538 136 L 540 135 L 546 134 L 554 134 L 556 133 L 560 132 L 564 132 L 573 131 L 576 131 L 579 130 L 579 130 L 579 129 L 579 128 L 580 128 L 580 127 L 580 126 L 580 126 L 582 125 L 583 125 L 594 124 L 597 124 L 601 123 L 610 122 L 616 122 L 621 121 L 625 121 L 631 120 L 631 119 L 644 119 L 657 118 L 657 118 L 666 117 L 667 116 L 674 116 L 675 115 L 679 115 L 679 114 L 680 113 L 680 113 L 684 112 L 686 112 L 690 111 L 695 110 L 696 110 L 697 109 L 698 109 L 703 108 L 708 107 L 708 107 L 713 106 L 719 106 L 720 105 L 720 104 L 722 104 L 724 103 L 725 103 L 730 102 L 733 101 L 737 101 L 740 100 L 740 100 L 747 99 L 749 98 L 752 98 L 759 97 L 759 97 L 766 96 L 767 95 L 767 95 L 769 94 L 769 94 L 773 93 L 773 92 L 776 92 L 780 91 L 781 91 L 782 90 L 782 89 L 793 89 L 793 88 L 794 88 L 794 87 L 795 86 L 796 86 L 796 85 L 796 85 L 797 84 L 800 83 L 800 83 L 802 82 L 803 82 L 804 81 L 805 80 L 806 80 L 806 79 L 807 79 L 807 78 L 807 77 L 808 77 L 808 76 L 809 76 L 809 75 L 810 74 L 812 74 L 813 73 L 813 73 L 814 72 L 815 71 L 816 71 L 818 70 L 818 70 L 819 69 L 821 68 L 823 68 L 823 67 L 824 67 L 825 66 L 827 65 L 827 65 L 827 64 L 828 64 L 828 63 L 829 62 L 829 62 L 830 61 L 830 61 L 832 60 L 836 59 L 838 59 L 840 58 L 840 58 L 843 57 L 845 56 L 846 56 L 849 55 L 853 55 L 856 54 L 859 53 L 860 53 L 861 52 L 861 52 L 861 51 L 862 50 L 863 50 L 863 49 L 864 49 L 864 48 L 864 47 L 865 47 L 867 46 L 868 46 L 868 45 L 870 44 L 870 44 L 874 43 L 874 43 L 874 42 L 876 41 L 877 41 L 880 40 L 884 40 L 890 39 L 890 38 L 890 38 L 890 37 L 893 37 L 896 36 L 897 35 L 897 35 L 897 34 L 898 34 L 900 33 L 905 32 L 906 32 L 906 31 L 906 31 L 908 30 L 909 29 L 909 29 L 909 28 L 910 28 L 914 27 L 919 26 L 919 26 L 924 25 L 925 25 L 926 24 L 931 23 L 932 23 L 936 22 L 939 22 L 941 21 L 943 20 L 943 20 L 944 19 L 944 19 L 944 18 L 944 17 L 945 17" stroke-width="2"></path><path stroke-width="2" d="M 945 346 L 945.000000 15.000000" /><path stroke-width="2" d="M 945 346 L 945.000000 15.000000"></path><path stroke-width="2" d="M 945 346 L 950 346" /><path stroke-width="2" d="M 945 346 L 950 346"></path><text xmlns="http://www.w3.org/2000/svg" x="955" y="352">0</text><path stroke-width="2" d="M 945 308 L 950 308" /><path stroke-width="2" d="M 945 308 L 950 308"></path><text xmlns="http://www.w3.org/2000/svg" x="955" y="314">62</text><path stroke-width="2" d="M 945 272 L 950 272" /><path d="M 945 272 L 950 272" stroke-width="2"></path><text xmlns="http://www.w3.org/2000/svg" x="955" y="278">123</text><path stroke-width="2" d="M 945 235 L 950 235" /><path stroke-width="2" d="M 945 235 L 950 235"></path><text xmlns="http://www.w3.org/2000/svg" x="955" y="241">184</text><path stroke-width="2" d="M 945 199 L 950 199" /><path stroke-width="2" d="M 945 199 L 950 199"></path><text y="205" xmlns="http://www.w3.org/2000/svg" x="955">245</text><path stroke-width="2" d="M 945 162 L 950 162" /><path stroke-width="2" d="M 945 162 L 950 162"></path><text xmlns="http://www.w3.org/2000/svg" x="955" y="168">306</text><path stroke-width="2" d="M 945 125 L 950 125" /><path stroke-width="2" d="M 945 125 L 950 125"></path><text xmlns="http://www.w3.org/2000/svg" x="955" y="131">367</text><path stroke-width="2" d="M 945 89 L 950 89" /><path stroke-width="2" d="M 945 89 L 950 89"></path><text y="95" xmlns="http://www.w3.org/2000/svg" x="955">428</text><path stroke-width="2" d="M 945 52 L 950 52" /><path d="M 945 52 L 950 52" stroke-width="2"></path><text xmlns="http://www.w3.org/2000/svg" x="955" y="58">489</text><path stroke-width="2" d="M 945 16 L 950 16" /><path stroke-width="2" d="M 945 16 L 950 16"></path><text xmlns="http://www.w3.org/2000/svg" x="955" y="22">550</text><text xmlns="http://www.w3.org/2000/svg" x="987" y="175" transform="rotate(90.00,987,175)">Stargazers</text><path stroke-width="2" d="M 57.000000 346.000000 L 945 346" /><path stroke-width="2" d="M 57.000000 346.000000 L 945 346"></path><path stroke-width="2" d="M 58 346 L 58 351" /><path stroke-width="2" d="M 58 346 L 58 351"></path><text xmlns="http://www.w3.org/2000/svg" x="25" y="368">2023-04-02</text><path stroke-width="2" d="M 157 346 L 157 351" /><path stroke-width="2" d="M 157 346 L 157 351"></path><text x="124" y="368" xmlns="http://www.w3.org/2000/svg">2023-05-27</text><path stroke-width="2" d="M 256 346 L 256 351" /><path stroke-width="2" d="M 256 346 L 256 351"></path><text xmlns="http://www.w3.org/2000/svg" x="223" y="368">2023-07-20</text><path stroke-width="2" d="M 354 346 L 354 351" /><path stroke-width="2" d="M 354 346 L 354 351"></path><text xmlns="http://www.w3.org/2000/svg" x="321" y="368">2023-09-13</text><path stroke-width="2" d="M 453 346 L 453 351" /><path stroke-width="2" d="M 453 346 L 453 351"></path><text xmlns="http://www.w3.org/2000/svg" x="420" y="368">2023-11-06</text><path stroke-width="2" d="M 551 346 L 551 351" /><path d="M 551 346 L 551 351" stroke-width="2"></path><text xmlns="http://www.w3.org/2000/svg" x="518" y="368">2023-12-31</text><path d="M 650 346 L 650 351" stroke-width="2" /><path d="M 650 346 L 650 351" stroke-width="2"></path><text xmlns="http://www.w3.org/2000/svg" x="617" y="368">2024-02-24</text><path stroke-width="2" d="M 748 346 L 748 351" /><path stroke-width="2" d="M 748 346 L 748 351"></path><text x="715" y="368" xmlns="http://www.w3.org/2000/svg">2024-04-18</text><path d="M 847 346 L 847 351" stroke-width="2" /><path stroke-width="2" d="M 847 346 L 847 351"></path><text xmlns="http://www.w3.org/2000/svg" x="814" y="368">2024-06-12</text><path d="M 945 346 L 945 351" stroke-width="2" /><path stroke-width="2" d="M 945 346 L 945 351"></path><text xmlns="http://www.w3.org/2000/svg" x="912" y="368">2024-08-06</text><text xmlns="http://www.w3.org/2000/svg" x="487" y="390">Time</text></svg>