<svg xmlns="http://www.w3.org/2000/svg" xmlns:xlink="http://www.w3.org/1999/xlink" width="1024px" height="400px"><style type="text/css">
path { fill: none; stroke: rgb(51,51,51); }
path.series { stroke: #6b63ff; }
rect.background { fill: rgb(255,255,255); stroke: none; }

text {
	stroke-width: 0;
	stroke: none;
	fill: rgba(51,51,51,1.0);
	font-size: 12.8px;
	font-family: 'Roboto Medium', sans-serif;
}
</style><rect rx="8" x="0" y="0" width="1024px" height="400px" class="background" /><rect height="400px" class="background" rx="8" x="0" y="0" width="1024px"></rect><path d="M 58 345 L 62 344 L 82 344 L 83 343 L 83 343 L 83 342 L 83 342 L 83 341 L 83 340 L 83 340 L 84 339 L 84 339 L 84 338 L 84 338 L 84 337 L 84 337 L 84 336 L 84 335 L 84 335 L 86 334 L 86 334 L 86 333 L 88 333 L 89 332 L 89 332 L 89 331 L 90 330 L 91 330 L 93 329 L 93 329 L 95 328 L 96 328 L 103 327 L 103 326 L 103 326 L 103 325 L 103 325 L 103 324 L 107 324 L 109 323 L 110 323 L 113 322 L 118 321 L 120 321 L 129 320 L 132 320 L 137 319 L 143 319 L 145 318 L 164 318 L 165 317 L 165 316 L 168 316 L 169 315 L 169 315 L 169 314 L 169 314 L 169 313 L 169 313 L 169 312 L 169 311 L 169 311 L 169 310 L 169 310 L 169 309 L 170 309 L 170 308 L 170 307 L 170 307 L 170 306 L 170 306 L 170 305 L 170 305 L 170 304 L 170 304 L 170 303 L 170 302 L 170 302 L 170 301 L 170 301 L 170 300 L 170 300 L 170 299 L 170 299 L 170 298 L 170 297 L 170 297 L 170 296 L 170 296 L 170 295 L 170 295 L 170 294 L 170 293 L 170 293 L 170 292 L 170 292 L 170 291 L 170 291 L 171 290 L 171 290 L 171 289 L 171 288 L 171 288 L 172 287 L 172 287 L 172 286 L 173 286 L 173 285 L 173 285 L 173 284 L 173 283 L 173 283 L 173 282 L 173 282 L 173 281 L 173 281 L 173 280 L 173 280 L 173 279 L 173 278 L 173 278 L 173 277 L 174 277 L 174 276 L 175 276 L 175 275 L 175 274 L 175 274 L 180 273 L 180 273 L 181 272 L 182 272 L 182 271 L 185 271 L 189 270 L 189 269 L 192 269 L 193 268 L 195 268 L 196 267 L 197 267 L 200 266 L 200 266 L 201 265 L 202 264 L 203 264 L 204 263 L 205 263 L 205 262 L 205 262 L 207 261 L 208 260 L 208 260 L 209 259 L 210 259 L 210 258 L 211 258 L 213 257 L 215 257 L 218 256 L 219 255 L 220 255 L 221 254 L 221 254 L 222 253 L 224 253 L 232 252 L 232 252 L 234 251 L 242 250 L 242 250 L 242 249 L 242 249 L 242 248 L 244 248 L 246 247 L 248 247 L 248 246 L 257 245 L 259 245 L 262 244 L 265 244 L 267 243 L 267 243 L 268 242 L 275 241 L 282 241 L 291 240 L 292 240 L 292 239 L 292 239 L 293 238 L 294 238 L 306 237 L 311 236 L 312 236 L 316 235 L 317 235 L 318 234 L 330 234 L 330 233 L 331 233 L 332 232 L 333 231 L 337 231 L 338 230 L 341 230 L 343 229 L 345 229 L 353 228 L 353 227 L 354 227 L 355 226 L 355 226 L 355 225 L 359 225 L 366 224 L 382 224 L 388 223 L 392 222 L 392 222 L 394 221 L 396 221 L 396 220 L 396 220 L 396 219 L 396 219 L 396 218 L 396 217 L 396 217 L 396 216 L 396 216 L 396 215 L 396 215 L 396 214 L 397 214 L 397 213 L 400 212 L 400 212 L 400 211 L 401 211 L 401 210 L 402 210 L 402 209 L 403 208 L 403 208 L 403 207 L 403 207 L 403 206 L 404 206 L 405 205 L 405 205 L 406 204 L 406 203 L 406 203 L 406 202 L 407 202 L 408 201 L 408 201 L 408 200 L 409 200 L 409 199 L 410 198 L 411 198 L 412 197 L 413 197 L 415 196 L 418 196 L 418 195 L 419 194 L 419 194 L 419 193 L 420 193 L 420 192 L 422 192 L 423 191 L 425 191 L 425 190 L 426 189 L 428 189 L 430 188 L 430 188 L 434 187 L 435 187 L 435 186 L 436 186 L 436 185 L 442 184 L 443 184 L 444 183 L 448 183 L 451 182 L 456 182 L 457 181 L 457 181 L 459 180 L 459 179 L 459 179 L 463 178 L 466 178 L 468 177 L 468 177 L 470 176 L 471 175 L 472 175 L 472 174 L 472 174 L 473 173 L 473 173 L 473 172 L 475 172 L 475 171 L 475 170 L 476 170 L 482 169 L 488 169 L 488 168 L 489 168 L 493 167 L 495 167 L 497 166 L 497 165 L 499 165 L 500 164 L 500 164 L 500 163 L 500 163 L 500 162 L 501 161 L 501 161 L 502 160 L 502 160 L 503 159 L 506 159 L 506 158 L 506 158 L 506 157 L 506 156 L 507 156 L 507 155 L 507 155 L 507 154 L 507 154 L 507 153 L 507 153 L 507 152 L 513 151 L 516 151 L 516 150 L 517 150 L 524 149 L 531 149 L 533 148 L 537 148 L 540 147 L 549 146 L 552 146 L 555 145 L 555 145 L 555 144 L 555 144 L 555 143 L 555 142 L 555 142 L 555 141 L 557 141 L 559 140 L 569 140 L 572 139 L 576 139 L 584 138 L 590 137 L 595 137 L 598 136 L 604 136 L 604 135 L 617 135 L 629 134 L 629 134 L 638 133 L 638 132 L 645 132 L 647 131 L 650 131 L 650 130 L 651 130 L 651 129 L 655 128 L 657 128 L 660 127 L 665 127 L 666 126 L 668 126 L 668 125 L 673 125 L 678 124 L 678 123 L 683 123 L 688 122 L 689 122 L 689 121 L 692 121 L 693 120 L 694 120 L 698 119 L 702 118 L 705 118 L 709 117 L 709 117 L 715 116 L 717 116 L 720 115 L 726 115 L 726 114 L 733 113 L 734 113 L 734 112 L 736 112 L 736 111 L 739 111 L 740 110 L 743 109 L 746 109 L 748 108 L 748 108 L 748 107 L 759 107 L 759 106 L 760 106 L 760 105 L 760 104 L 761 104 L 762 103 L 762 103 L 763 102 L 765 102 L 766 101 L 768 101 L 768 100 L 769 99 L 770 99 L 771 98 L 771 98 L 772 97 L 772 97 L 772 96 L 774 95 L 774 95 L 774 94 L 774 94 L 776 93 L 777 93 L 778 92 L 778 92 L 779 91 L 780 90 L 781 90 L 783 89 L 783 89 L 784 88 L 786 88 L 788 87 L 788 87 L 788 86 L 789 85 L 792 85 L 792 84 L 792 84 L 792 83 L 793 83 L 793 82 L 793 82 L 794 81 L 795 80 L 796 80 L 800 79 L 802 79 L 803 78 L 804 78 L 807 77 L 809 76 L 810 76 L 812 75 L 816 75 L 819 74 L 822 74 L 823 73 L 824 73 L 824 72 L 824 71 L 825 71 L 825 70 L 825 70 L 827 69 L 827 69 L 827 68 L 827 68 L 829 67 L 831 66 L 831 66 L 832 65 L 832 65 L 836 64 L 836 64 L 837 63 L 838 62 L 839 62 L 842 61 L 846 61 L 851 60 L 851 60 L 851 59 L 852 59 L 854 58 L 858 57 L 858 57 L 858 56 L 858 56 L 859 55 L 861 55 L 866 54 L 866 54 L 866 53 L 866 52 L 869 52 L 870 51 L 870 51 L 870 50 L 870 50 L 874 49 L 879 49 L 879 48 L 884 47 L 884 47 L 886 46 L 890 46 L 892 45 L 896 45 L 898 44 L 900 43 L 902 43 L 902 42 L 903 42 L 903 41 L 903 41 L 903 40 L 904 40 L 905 39 L 905 38 L 906 38 L 906 37 L 906 37 L 908 36 L 909 36 L 910 35 L 916 35 L 917 34 L 924 33 L 927 33 L 927 32 L 928 32 L 929 31 L 933 31 L 933 30 L 934 29 L 934 29 L 935 28 L 935 28 L 936 27 L 936 27 L 936 26 L 937 26 L 937 25 L 937 24 L 937 24 L 938 23 L 939 23 L 939 22 L 939 22 L 940 21 L 941 21 L 941 20 L 942 19 L 943 19 L 944 18 L 945 18 L 945 17 L 945 17" stroke-width="2" class="series" /><path stroke-width="2" class="series" d="M 58 345 L 62 344 L 82 344 L 83 343 L 83 343 L 83 342 L 83 342 L 83 341 L 83 340 L 83 340 L 84 339 L 84 339 L 84 338 L 84 338 L 84 337 L 84 337 L 84 336 L 84 335 L 84 335 L 86 334 L 86 334 L 86 333 L 88 333 L 89 332 L 89 332 L 89 331 L 90 330 L 91 330 L 93 329 L 93 329 L 95 328 L 96 328 L 103 327 L 103 326 L 103 326 L 103 325 L 103 325 L 103 324 L 107 324 L 109 323 L 110 323 L 113 322 L 118 321 L 120 321 L 129 320 L 132 320 L 137 319 L 143 319 L 145 318 L 164 318 L 165 317 L 165 316 L 168 316 L 169 315 L 169 315 L 169 314 L 169 314 L 169 313 L 169 313 L 169 312 L 169 311 L 169 311 L 169 310 L 169 310 L 169 309 L 170 309 L 170 308 L 170 307 L 170 307 L 170 306 L 170 306 L 170 305 L 170 305 L 170 304 L 170 304 L 170 303 L 170 302 L 170 302 L 170 301 L 170 301 L 170 300 L 170 300 L 170 299 L 170 299 L 170 298 L 170 297 L 170 297 L 170 296 L 170 296 L 170 295 L 170 295 L 170 294 L 170 293 L 170 293 L 170 292 L 170 292 L 170 291 L 170 291 L 171 290 L 171 290 L 171 289 L 171 288 L 171 288 L 172 287 L 172 287 L 172 286 L 173 286 L 173 285 L 173 285 L 173 284 L 173 283 L 173 283 L 173 282 L 173 282 L 173 281 L 173 281 L 173 280 L 173 280 L 173 279 L 173 278 L 173 278 L 173 277 L 174 277 L 174 276 L 175 276 L 175 275 L 175 274 L 175 274 L 180 273 L 180 273 L 181 272 L 182 272 L 182 271 L 185 271 L 189 270 L 189 269 L 192 269 L 193 268 L 195 268 L 196 267 L 197 267 L 200 266 L 200 266 L 201 265 L 202 264 L 203 264 L 204 263 L 205 263 L 205 262 L 205 262 L 207 261 L 208 260 L 208 260 L 209 259 L 210 259 L 210 258 L 211 258 L 213 257 L 215 257 L 218 256 L 219 255 L 220 255 L 221 254 L 221 254 L 222 253 L 224 253 L 232 252 L 232 252 L 234 251 L 242 250 L 242 250 L 242 249 L 242 249 L 242 248 L 244 248 L 246 247 L 248 247 L 248 246 L 257 245 L 259 245 L 262 244 L 265 244 L 267 243 L 267 243 L 268 242 L 275 241 L 282 241 L 291 240 L 292 240 L 292 239 L 292 239 L 293 238 L 294 238 L 306 237 L 311 236 L 312 236 L 316 235 L 317 235 L 318 234 L 330 234 L 330 233 L 331 233 L 332 232 L 333 231 L 337 231 L 338 230 L 341 230 L 343 229 L 345 229 L 353 228 L 353 227 L 354 227 L 355 226 L 355 226 L 355 225 L 359 225 L 366 224 L 382 224 L 388 223 L 392 222 L 392 222 L 394 221 L 396 221 L 396 220 L 396 220 L 396 219 L 396 219 L 396 218 L 396 217 L 396 217 L 396 216 L 396 216 L 396 215 L 396 215 L 396 214 L 397 214 L 397 213 L 400 212 L 400 212 L 400 211 L 401 211 L 401 210 L 402 210 L 402 209 L 403 208 L 403 208 L 403 207 L 403 207 L 403 206 L 404 206 L 405 205 L 405 205 L 406 204 L 406 203 L 406 203 L 406 202 L 407 202 L 408 201 L 408 201 L 408 200 L 409 200 L 409 199 L 410 198 L 411 198 L 412 197 L 413 197 L 415 196 L 418 196 L 418 195 L 419 194 L 419 194 L 419 193 L 420 193 L 420 192 L 422 192 L 423 191 L 425 191 L 425 190 L 426 189 L 428 189 L 430 188 L 430 188 L 434 187 L 435 187 L 435 186 L 436 186 L 436 185 L 442 184 L 443 184 L 444 183 L 448 183 L 451 182 L 456 182 L 457 181 L 457 181 L 459 180 L 459 179 L 459 179 L 463 178 L 466 178 L 468 177 L 468 177 L 470 176 L 471 175 L 472 175 L 472 174 L 472 174 L 473 173 L 473 173 L 473 172 L 475 172 L 475 171 L 475 170 L 476 170 L 482 169 L 488 169 L 488 168 L 489 168 L 493 167 L 495 167 L 497 166 L 497 165 L 499 165 L 500 164 L 500 164 L 500 163 L 500 163 L 500 162 L 501 161 L 501 161 L 502 160 L 502 160 L 503 159 L 506 159 L 506 158 L 506 158 L 506 157 L 506 156 L 507 156 L 507 155 L 507 155 L 507 154 L 507 154 L 507 153 L 507 153 L 507 152 L 513 151 L 516 151 L 516 150 L 517 150 L 524 149 L 531 149 L 533 148 L 537 148 L 540 147 L 549 146 L 552 146 L 555 145 L 555 145 L 555 144 L 555 144 L 555 143 L 555 142 L 555 142 L 555 141 L 557 141 L 559 140 L 569 140 L 572 139 L 576 139 L 584 138 L 590 137 L 595 137 L 598 136 L 604 136 L 604 135 L 617 135 L 629 134 L 629 134 L 638 133 L 638 132 L 645 132 L 647 131 L 650 131 L 650 130 L 651 130 L 651 129 L 655 128 L 657 128 L 660 127 L 665 127 L 666 126 L 668 126 L 668 125 L 673 125 L 678 124 L 678 123 L 683 123 L 688 122 L 689 122 L 689 121 L 692 121 L 693 120 L 694 120 L 698 119 L 702 118 L 705 118 L 709 117 L 709 117 L 715 116 L 717 116 L 720 115 L 726 115 L 726 114 L 733 113 L 734 113 L 734 112 L 736 112 L 736 111 L 739 111 L 740 110 L 743 109 L 746 109 L 748 108 L 748 108 L 748 107 L 759 107 L 759 106 L 760 106 L 760 105 L 760 104 L 761 104 L 762 103 L 762 103 L 763 102 L 765 102 L 766 101 L 768 101 L 768 100 L 769 99 L 770 99 L 771 98 L 771 98 L 772 97 L 772 97 L 772 96 L 774 95 L 774 95 L 774 94 L 774 94 L 776 93 L 777 93 L 778 92 L 778 92 L 779 91 L 780 90 L 781 90 L 783 89 L 783 89 L 784 88 L 786 88 L 788 87 L 788 87 L 788 86 L 789 85 L 792 85 L 792 84 L 792 84 L 792 83 L 793 83 L 793 82 L 793 82 L 794 81 L 795 80 L 796 80 L 800 79 L 802 79 L 803 78 L 804 78 L 807 77 L 809 76 L 810 76 L 812 75 L 816 75 L 819 74 L 822 74 L 823 73 L 824 73 L 824 72 L 824 71 L 825 71 L 825 70 L 825 70 L 827 69 L 827 69 L 827 68 L 827 68 L 829 67 L 831 66 L 831 66 L 832 65 L 832 65 L 836 64 L 836 64 L 837 63 L 838 62 L 839 62 L 842 61 L 846 61 L 851 60 L 851 60 L 851 59 L 852 59 L 854 58 L 858 57 L 858 57 L 858 56 L 858 56 L 859 55 L 861 55 L 866 54 L 866 54 L 866 53 L 866 52 L 869 52 L 870 51 L 870 51 L 870 50 L 870 50 L 874 49 L 879 49 L 879 48 L 884 47 L 884 47 L 886 46 L 890 46 L 892 45 L 896 45 L 898 44 L 900 43 L 902 43 L 902 42 L 903 42 L 903 41 L 903 41 L 903 40 L 904 40 L 905 39 L 905 38 L 906 38 L 906 37 L 906 37 L 908 36 L 909 36 L 910 35 L 916 35 L 917 34 L 924 33 L 927 33 L 927 32 L 928 32 L 929 31 L 933 31 L 933 30 L 934 29 L 934 29 L 935 28 L 935 28 L 936 27 L 936 27 L 936 26 L 937 26 L 937 25 L 937 24 L 937 24 L 938 23 L 939 23 L 939 22 L 939 22 L 940 21 L 941 21 L 941 20 L 942 19 L 943 19 L 944 18 L 945 18 L 945 17 L 945 17"></path><path stroke-width="2" d="M 945 346 L 945.000000 15.000000" /><path stroke-width="2" d="M 945 346 L 945.000000 15.000000"></path><path stroke-width="2" d="M 945 346 L 950 346" /><path stroke-width="2" d="M 945 346 L 950 346"></path><text y="352" xmlns="http://www.w3.org/2000/svg" x="955">0</text><path stroke-width="2" d="M 945 309 L 950 309" /><path stroke-width="2" d="M 945 309 L 950 309"></path><text xmlns="http://www.w3.org/2000/svg" x="955" y="315">66</text><path stroke-width="2" d="M 945 272 L 950 272" /><path stroke-width="2" d="M 945 272 L 950 272"></path><text xmlns="http://www.w3.org/2000/svg" x="955" y="278">132</text><path stroke-width="2" d="M 945 235 L 950 235" /><path d="M 945 235 L 950 235" stroke-width="2"></path><text xmlns="http://www.w3.org/2000/svg" x="955" y="241">197</text><path stroke-width="2" d="M 945 198 L 950 198" /><path stroke-width="2" d="M 945 198 L 950 198"></path><text x="955" y="204" xmlns="http://www.w3.org/2000/svg">263</text><path stroke-width="2" d="M 945 162 L 950 162" /><path stroke-width="2" d="M 945 162 L 950 162"></path><text xmlns="http://www.w3.org/2000/svg" x="955" y="168">328</text><path stroke-width="2" d="M 945 125 L 950 125" /><path stroke-width="2" d="M 945 125 L 950 125"></path><text xmlns="http://www.w3.org/2000/svg" x="955" y="131">394</text><path stroke-width="2" d="M 945 89 L 950 89" /><path stroke-width="2" d="M 945 89 L 950 89"></path><text y="95" xmlns="http://www.w3.org/2000/svg" x="955">459</text><path d="M 945 52 L 950 52" stroke-width="2" /><path d="M 945 52 L 950 52" stroke-width="2"></path><text y="58" xmlns="http://www.w3.org/2000/svg" x="955">525</text><path stroke-width="2" d="M 945 16 L 950 16" /><path stroke-width="2" d="M 945 16 L 950 16"></path><text xmlns="http://www.w3.org/2000/svg" x="955" y="22">590</text><text transform="rotate(90.00,987,175)" xmlns="http://www.w3.org/2000/svg" x="987" y="175">Stargazers</text><path stroke-width="2" d="M 57.000000 346.000000 L 945 346" /><path stroke-width="2" d="M 57.000000 346.000000 L 945 346"></path><path stroke-width="2" d="M 58 346 L 58 351" /><path stroke-width="2" d="M 58 346 L 58 351"></path><text xmlns="http://www.w3.org/2000/svg" x="25" y="368">2023-04-02</text><path stroke-width="2" d="M 157 346 L 157 351" /><path stroke-width="2" d="M 157 346 L 157 351"></path><text x="124" y="368" xmlns="http://www.w3.org/2000/svg">2023-05-29</text><path stroke-width="2" d="M 256 346 L 256 351" /><path stroke-width="2" d="M 256 346 L 256 351"></path><text y="368" xmlns="http://www.w3.org/2000/svg" x="223">2023-07-26</text><path stroke-width="2" d="M 354 346 L 354 351" /><path stroke-width="2" d="M 354 346 L 354 351"></path><text xmlns="http://www.w3.org/2000/svg" x="321" y="368">2023-09-21</text><path stroke-width="2" d="M 453 346 L 453 351" /><path stroke-width="2" d="M 453 346 L 453 351"></path><text xmlns="http://www.w3.org/2000/svg" x="420" y="368">2023-11-17</text><path stroke-width="2" d="M 551 346 L 551 351" /><path d="M 551 346 L 551 351" stroke-width="2"></path><text xmlns="http://www.w3.org/2000/svg" x="518" y="368">2024-01-13</text><path stroke-width="2" d="M 650 346 L 650 351" /><path stroke-width="2" d="M 650 346 L 650 351"></path><text y="368" xmlns="http://www.w3.org/2000/svg" x="617">2024-03-11</text><path stroke-width="2" d="M 748 346 L 748 351" /><path d="M 748 346 L 748 351" stroke-width="2"></path><text xmlns="http://www.w3.org/2000/svg" x="715" y="368">2024-05-07</text><path stroke-width="2" d="M 847 346 L 847 351" /><path stroke-width="2" d="M 847 346 L 847 351"></path><text xmlns="http://www.w3.org/2000/svg" x="814" y="368">2024-07-03</text><path d="M 945 346 L 945 351" stroke-width="2" /><path stroke-width="2" d="M 945 346 L 945 351"></path><text xmlns="http://www.w3.org/2000/svg" x="912" y="368">2024-08-30</text><text xmlns="http://www.w3.org/2000/svg" x="487" y="390">Time</text></svg>