<svg width="1024px" height="400px" xmlns="http://www.w3.org/2000/svg" xmlns:xlink="http://www.w3.org/1999/xlink"><style type="text/css">
path { fill: none; stroke: rgb(51,51,51); }
path.series { stroke: #6b63ff; }
rect.background { fill: rgb(255,255,255); stroke: none; }

text {
	stroke-width: 0;
	stroke: none;
	fill: rgba(51,51,51,1.0);
	font-size: 12.8px;
	font-family: 'Roboto Medium', sans-serif;
}
</style><rect x="0" y="0" width="1024px" height="400px" class="background" rx="8" /><rect x="0" y="0" width="1024px" height="400px" class="background" rx="8"></rect><path stroke-width="2" class="series" d="M 58 345 L 62 344 L 89 343 L 89 343 L 89 342 L 89 341 L 89 340 L 89 340 L 89 339 L 89 338 L 90 337 L 90 337 L 90 336 L 90 335 L 90 334 L 91 334 L 91 333 L 91 332 L 91 331 L 93 331 L 93 330 L 94 329 L 95 328 L 97 328 L 97 327 L 97 326 L 98 325 L 99 325 L 102 324 L 102 323 L 104 322 L 106 322 L 115 321 L 115 320 L 115 319 L 115 319 L 115 318 L 115 317 L 120 316 L 122 316 L 123 315 L 127 314 L 134 313 L 136 313 L 148 312 L 152 311 L 158 310 L 165 310 L 167 309 L 192 308 L 193 307 L 193 307 L 197 306 L 197 305 L 197 304 L 197 304 L 197 303 L 197 302 L 197 301 L 198 301 L 198 300 L 198 299 L 198 298 L 198 298 L 198 297 L 199 296 L 199 295 L 199 295 L 199 294 L 199 293 L 199 292 L 199 292 L 199 291 L 199 290 L 199 289 L 199 289 L 199 288 L 199 287 L 199 286 L 199 286 L 199 285 L 199 284 L 199 283 L 199 283 L 199 282 L 199 281 L 199 280 L 199 280 L 199 279 L 199 278 L 199 277 L 199 277 L 199 276 L 199 275 L 199 274 L 199 274 L 199 273 L 199 272 L 200 271 L 200 271 L 200 270 L 201 269 L 201 268 L 201 268 L 201 267 L 202 266 L 203 265 L 203 265 L 203 264 L 203 263 L 203 262 L 203 262 L 203 261 L 203 260 L 203 259 L 203 259 L 203 258 L 203 257 L 203 256 L 203 256 L 203 255 L 203 254 L 204 253 L 204 253 L 206 252 L 206 251 L 206 250 L 206 250 L 212 249 L 212 248 L 212 247 L 215 247 L 215 246 L 218 245 L 223 244 L 224 244 L 227 243 L 229 242 L 231 241 L 232 241 L 233 240 L 236 239 L 237 238 L 238 238 L 240 237 L 241 236 L 243 235 L 243 235 L 243 234 L 244 233 L 246 232 L 248 232 L 248 231 L 249 230 L 249 229 L 249 229 L 251 228 L 254 227 L 256 226 L 259 226 L 261 225 L 262 224 L 264 223 L 264 223 L 264 222 L 267 221 L 277 220 L 278 220 L 280 219 L 290 218 L 290 217 L 290 217 L 290 216 L 290 215 L 292 214 L 295 214 L 297 213 L 297 212 L 310 211 L 312 211 L 315 210 L 319 209 L 321 208 L 321 208 L 323 207 L 331 206 L 341 205 L 352 205 L 353 204 L 353 203 L 353 202 L 354 202 L 356 201 L 371 200 L 377 199 L 378 199 L 383 198 L 384 197 L 385 196 L 401 196 L 401 195 L 403 194 L 403 193 L 405 193 L 410 192 L 412 191 L 415 190 L 417 190 L 421 189 L 430 188 L 430 187 L 432 187 L 432 186 L 432 185 L 433 184 L 438 184 L 447 183 L 467 182 L 474 181 L 475 181 L 479 180 L 479 179 L 482 178 L 484 178 L 484 177 L 484 176 L 484 175 L 484 175 L 484 174 L 484 173 L 484 172 L 484 172 L 484 171 L 484 170 L 484 169 L 485 169 L 485 168 L 486 167 L 487 166 L 489 166 L 490 165 L 490 164 L 490 163 L 490 163 L 492 162 L 492 161 L 492 160 L 492 160 L 493 159 L 493 158 L 493 157 L 494 157 L 495 156 L 496 155 L 497 154 L 497 154 L 497 153 L 497 152 L 498 151 L 499 151 L 499 150 L 499 149 L 500 148 L 501 148 L 501 147 L 503 146 L 505 145 L 506 145 L 508 144 L 512 143 L 512 142 L 513 142 L 514 141 L 514 140 L 514 139 L 514 139 L 517 138 L 518 137 L 521 136 L 521 136 L 522 135 L 525 134 L 528 133 L 528 132 L 532 132 L 533 131 L 533 130 L 535 130 L 535 129 L 543 128 L 544 127 L 545 126 L 550 126 L 553 125 L 559 124 L 561 124 L 562 123 L 563 122 L 564 121 L 564 121 L 569 120 L 572 119 L 575 118 L 575 118 L 577 117 L 579 116 L 580 115 L 580 115 L 580 114 L 581 113 L 581 112 L 581 112 L 583 111 L 583 110 L 583 109 L 585 109 L 592 108 L 601 107 L 601 106 L 601 106 L 607 105 L 610 104 L 611 103 L 612 103 L 614 102 L 616 101 L 616 100 L 616 100 L 616 99 L 616 98 L 616 97 L 616 97 L 617 96 L 617 95 L 619 94 L 623 94 L 623 93 L 623 92 L 623 91 L 623 91 L 624 90 L 624 89 L 624 88 L 624 88 L 624 87 L 624 86 L 624 85 L 625 85 L 631 84 L 636 83 L 636 82 L 637 82 L 645 81 L 655 80 L 657 79 L 662 79 L 666 78 L 677 77 L 681 76 L 684 76 L 685 75 L 685 74 L 685 73 L 685 73 L 685 72 L 685 71 L 685 70 L 688 70 L 689 69 L 703 68 L 707 67 L 712 67 L 722 66 L 729 65 L 735 64 L 739 64 L 747 63 L 747 62 L 763 61 L 778 61 L 779 60 L 789 59 L 790 58 L 799 58 L 800 57 L 805 56 L 805 55 L 806 55 L 806 54 L 811 53 L 813 52 L 818 52 L 824 51 L 825 50 L 827 49 L 828 49 L 834 48 L 839 47 L 840 46 L 846 46 L 853 45 L 854 44 L 854 43 L 857 43 L 859 42 L 861 41 L 866 40 L 870 40 L 874 39 L 876 38 L 878 37 L 879 37 L 887 36 L 889 35 L 893 34 L 901 34 L 901 33 L 909 32 L 910 31 L 911 31 L 913 30 L 914 29 L 917 28 L 918 28 L 921 27 L 926 26 L 928 25 L 928 25 L 929 24 L 942 23 L 942 22 L 943 22 L 943 21 L 944 20 L 945 19 L 945 19" /><path stroke-width="2" class="series" d="M 58 345 L 62 344 L 89 343 L 89 343 L 89 342 L 89 341 L 89 340 L 89 340 L 89 339 L 89 338 L 90 337 L 90 337 L 90 336 L 90 335 L 90 334 L 91 334 L 91 333 L 91 332 L 91 331 L 93 331 L 93 330 L 94 329 L 95 328 L 97 328 L 97 327 L 97 326 L 98 325 L 99 325 L 102 324 L 102 323 L 104 322 L 106 322 L 115 321 L 115 320 L 115 319 L 115 319 L 115 318 L 115 317 L 120 316 L 122 316 L 123 315 L 127 314 L 134 313 L 136 313 L 148 312 L 152 311 L 158 310 L 165 310 L 167 309 L 192 308 L 193 307 L 193 307 L 197 306 L 197 305 L 197 304 L 197 304 L 197 303 L 197 302 L 197 301 L 198 301 L 198 300 L 198 299 L 198 298 L 198 298 L 198 297 L 199 296 L 199 295 L 199 295 L 199 294 L 199 293 L 199 292 L 199 292 L 199 291 L 199 290 L 199 289 L 199 289 L 199 288 L 199 287 L 199 286 L 199 286 L 199 285 L 199 284 L 199 283 L 199 283 L 199 282 L 199 281 L 199 280 L 199 280 L 199 279 L 199 278 L 199 277 L 199 277 L 199 276 L 199 275 L 199 274 L 199 274 L 199 273 L 199 272 L 200 271 L 200 271 L 200 270 L 201 269 L 201 268 L 201 268 L 201 267 L 202 266 L 203 265 L 203 265 L 203 264 L 203 263 L 203 262 L 203 262 L 203 261 L 203 260 L 203 259 L 203 259 L 203 258 L 203 257 L 203 256 L 203 256 L 203 255 L 203 254 L 204 253 L 204 253 L 206 252 L 206 251 L 206 250 L 206 250 L 212 249 L 212 248 L 212 247 L 215 247 L 215 246 L 218 245 L 223 244 L 224 244 L 227 243 L 229 242 L 231 241 L 232 241 L 233 240 L 236 239 L 237 238 L 238 238 L 240 237 L 241 236 L 243 235 L 243 235 L 243 234 L 244 233 L 246 232 L 248 232 L 248 231 L 249 230 L 249 229 L 249 229 L 251 228 L 254 227 L 256 226 L 259 226 L 261 225 L 262 224 L 264 223 L 264 223 L 264 222 L 267 221 L 277 220 L 278 220 L 280 219 L 290 218 L 290 217 L 290 217 L 290 216 L 290 215 L 292 214 L 295 214 L 297 213 L 297 212 L 310 211 L 312 211 L 315 210 L 319 209 L 321 208 L 321 208 L 323 207 L 331 206 L 341 205 L 352 205 L 353 204 L 353 203 L 353 202 L 354 202 L 356 201 L 371 200 L 377 199 L 378 199 L 383 198 L 384 197 L 385 196 L 401 196 L 401 195 L 403 194 L 403 193 L 405 193 L 410 192 L 412 191 L 415 190 L 417 190 L 421 189 L 430 188 L 430 187 L 432 187 L 432 186 L 432 185 L 433 184 L 438 184 L 447 183 L 467 182 L 474 181 L 475 181 L 479 180 L 479 179 L 482 178 L 484 178 L 484 177 L 484 176 L 484 175 L 484 175 L 484 174 L 484 173 L 484 172 L 484 172 L 484 171 L 484 170 L 484 169 L 485 169 L 485 168 L 486 167 L 487 166 L 489 166 L 490 165 L 490 164 L 490 163 L 490 163 L 492 162 L 492 161 L 492 160 L 492 160 L 493 159 L 493 158 L 493 157 L 494 157 L 495 156 L 496 155 L 497 154 L 497 154 L 497 153 L 497 152 L 498 151 L 499 151 L 499 150 L 499 149 L 500 148 L 501 148 L 501 147 L 503 146 L 505 145 L 506 145 L 508 144 L 512 143 L 512 142 L 513 142 L 514 141 L 514 140 L 514 139 L 514 139 L 517 138 L 518 137 L 521 136 L 521 136 L 522 135 L 525 134 L 528 133 L 528 132 L 532 132 L 533 131 L 533 130 L 535 130 L 535 129 L 543 128 L 544 127 L 545 126 L 550 126 L 553 125 L 559 124 L 561 124 L 562 123 L 563 122 L 564 121 L 564 121 L 569 120 L 572 119 L 575 118 L 575 118 L 577 117 L 579 116 L 580 115 L 580 115 L 580 114 L 581 113 L 581 112 L 581 112 L 583 111 L 583 110 L 583 109 L 585 109 L 592 108 L 601 107 L 601 106 L 601 106 L 607 105 L 610 104 L 611 103 L 612 103 L 614 102 L 616 101 L 616 100 L 616 100 L 616 99 L 616 98 L 616 97 L 616 97 L 617 96 L 617 95 L 619 94 L 623 94 L 623 93 L 623 92 L 623 91 L 623 91 L 624 90 L 624 89 L 624 88 L 624 88 L 624 87 L 624 86 L 624 85 L 625 85 L 631 84 L 636 83 L 636 82 L 637 82 L 645 81 L 655 80 L 657 79 L 662 79 L 666 78 L 677 77 L 681 76 L 684 76 L 685 75 L 685 74 L 685 73 L 685 73 L 685 72 L 685 71 L 685 70 L 688 70 L 689 69 L 703 68 L 707 67 L 712 67 L 722 66 L 729 65 L 735 64 L 739 64 L 747 63 L 747 62 L 763 61 L 778 61 L 779 60 L 789 59 L 790 58 L 799 58 L 800 57 L 805 56 L 805 55 L 806 55 L 806 54 L 811 53 L 813 52 L 818 52 L 824 51 L 825 50 L 827 49 L 828 49 L 834 48 L 839 47 L 840 46 L 846 46 L 853 45 L 854 44 L 854 43 L 857 43 L 859 42 L 861 41 L 866 40 L 870 40 L 874 39 L 876 38 L 878 37 L 879 37 L 887 36 L 889 35 L 893 34 L 901 34 L 901 33 L 909 32 L 910 31 L 911 31 L 913 30 L 914 29 L 917 28 L 918 28 L 921 27 L 926 26 L 928 25 L 928 25 L 929 24 L 942 23 L 942 22 L 943 22 L 943 21 L 944 20 L 945 19 L 945 19"></path><path d="M 945 346 L 945.000000 15.000000" stroke-width="2" /><path stroke-width="2" d="M 945 346 L 945.000000 15.000000"></path><path stroke-width="2" d="M 945 346 L 950 346" /><path stroke-width="2" d="M 945 346 L 950 346"></path><text xmlns="http://www.w3.org/2000/svg" x="955" y="352">0</text><path d="M 945 309 L 950 309" stroke-width="2" /><path d="M 945 309 L 950 309" stroke-width="2"></path><text x="955" y="315" xmlns="http://www.w3.org/2000/svg">49</text><path stroke-width="2" d="M 945 272 L 950 272" /><path stroke-width="2" d="M 945 272 L 950 272"></path><text xmlns="http://www.w3.org/2000/svg" x="955" y="278">98</text><path stroke-width="2" d="M 945 235 L 950 235" /><path stroke-width="2" d="M 945 235 L 950 235"></path><text xmlns="http://www.w3.org/2000/svg" x="955" y="241">147</text><path stroke-width="2" d="M 945 199 L 950 199" /><path d="M 945 199 L 950 199" stroke-width="2"></path><text x="955" y="205" xmlns="http://www.w3.org/2000/svg">196</text><path stroke-width="2" d="M 945 162 L 950 162" /><path stroke-width="2" d="M 945 162 L 950 162"></path><text xmlns="http://www.w3.org/2000/svg" x="955" y="168">245</text><path stroke-width="2" d="M 945 125 L 950 125" /><path stroke-width="2" d="M 945 125 L 950 125"></path><text xmlns="http://www.w3.org/2000/svg" x="955" y="131">294</text><path stroke-width="2" d="M 945 88 L 950 88" /><path stroke-width="2" d="M 945 88 L 950 88"></path><text xmlns="http://www.w3.org/2000/svg" x="955" y="94">343</text><path stroke-width="2" d="M 945 52 L 950 52" /><path stroke-width="2" d="M 945 52 L 950 52"></path><text xmlns="http://www.w3.org/2000/svg" x="955" y="58">392</text><path stroke-width="2" d="M 945 16 L 950 16" /><path stroke-width="2" d="M 945 16 L 950 16"></path><text xmlns="http://www.w3.org/2000/svg" x="955" y="22">440</text><text xmlns="http://www.w3.org/2000/svg" x="987" y="175" transform="rotate(90.00,987,175)">Stargazers</text><path d="M 57.000000 346.000000 L 945 346" stroke-width="2" /><path stroke-width="2" d="M 57.000000 346.000000 L 945 346"></path><path stroke-width="2" d="M 58 346 L 58 351" /><path stroke-width="2" d="M 58 346 L 58 351"></path><text y="368" xmlns="http://www.w3.org/2000/svg" x="25">2023-04-02</text><path stroke-width="2" d="M 157 346 L 157 351" /><path stroke-width="2" d="M 157 346 L 157 351"></path><text xmlns="http://www.w3.org/2000/svg" x="124" y="368">2023-05-17</text><path stroke-width="2" d="M 256 346 L 256 351" /><path stroke-width="2" d="M 256 346 L 256 351"></path><text xmlns="http://www.w3.org/2000/svg" x="223" y="368">2023-07-02</text><path d="M 354 346 L 354 351" stroke-width="2" /><path stroke-width="2" d="M 354 346 L 354 351"></path><text xmlns="http://www.w3.org/2000/svg" x="321" y="368">2023-08-16</text><path d="M 453 346 L 453 351" stroke-width="2" /><path stroke-width="2" d="M 453 346 L 453 351"></path><text xmlns="http://www.w3.org/2000/svg" x="420" y="368">2023-10-01</text><path stroke-width="2" d="M 551 346 L 551 351" /><path stroke-width="2" d="M 551 346 L 551 351"></path><text xmlns="http://www.w3.org/2000/svg" x="518" y="368">2023-11-15</text><path stroke-width="2" d="M 650 346 L 650 351" /><path stroke-width="2" d="M 650 346 L 650 351"></path><text xmlns="http://www.w3.org/2000/svg" x="617" y="368">2023-12-30</text><path stroke-width="2" d="M 748 346 L 748 351" /><path stroke-width="2" d="M 748 346 L 748 351"></path><text xmlns="http://www.w3.org/2000/svg" x="715" y="368">2024-02-14</text><path stroke-width="2" d="M 847 346 L 847 351" /><path stroke-width="2" d="M 847 346 L 847 351"></path><text xmlns="http://www.w3.org/2000/svg" x="814" y="368">2024-03-30</text><path stroke-width="2" d="M 945 346 L 945 351" /><path stroke-width="2" d="M 945 346 L 945 351"></path><text xmlns="http://www.w3.org/2000/svg" x="912" y="368">2024-05-15</text><text x="487" y="390" xmlns="http://www.w3.org/2000/svg">Time</text></svg>