<svg width="1024px" height="400px" xmlns="http://www.w3.org/2000/svg" xmlns:xlink="http://www.w3.org/1999/xlink"><style type="text/css">
path { fill: none; stroke: rgb(51,51,51); }
path.series { stroke: #6b63ff; }
rect.background { fill: rgb(255,255,255); stroke: none; }

text {
	stroke-width: 0;
	stroke: none;
	fill: rgba(51,51,51,1.0);
	font-size: 12.8px;
	font-family: 'Roboto Medium', sans-serif;
}
</style><rect x="0" y="0" width="1024px" height="400px" class="background" rx="8" /><rect x="0" y="0" width="1024px" height="400px" class="background" rx="8"></rect><path stroke-width="2" class="series" d="M 58 345 L 60 345 L 73 345 L 73 344 L 73 344 L 73 344 L 73 343 L 73 343 L 73 343 L 73 343 L 73 342 L 73 342 L 74 342 L 74 341 L 74 341 L 74 341 L 74 340 L 74 340 L 74 340 L 75 340 L 75 339 L 75 339 L 76 339 L 77 338 L 77 338 L 77 338 L 77 337 L 78 337 L 79 337 L 79 337 L 80 336 L 81 336 L 85 336 L 85 335 L 85 335 L 85 335 L 85 334 L 87 334 L 89 334 L 89 334 L 91 333 L 94 333 L 95 333 L 101 332 L 103 332 L 106 332 L 109 331 L 110 331 L 122 331 L 122 331 L 122 330 L 124 330 L 124 330 L 124 329 L 124 329 L 124 329 L 124 328 L 124 328 L 124 328 L 124 328 L 124 327 L 124 327 L 125 327 L 125 326 L 125 326 L 125 326 L 125 325 L 125 325 L 125 325 L 125 325 L 125 324 L 125 324 L 125 324 L 125 323 L 125 323 L 125 323 L 125 322 L 125 322 L 125 322 L 125 322 L 125 321 L 125 321 L 125 321 L 125 320 L 125 320 L 125 320 L 125 319 L 125 319 L 125 319 L 125 319 L 125 318 L 125 318 L 125 318 L 125 317 L 125 317 L 125 317 L 125 316 L 126 316 L 126 316 L 126 316 L 126 315 L 126 315 L 126 315 L 126 314 L 126 314 L 127 314 L 127 313 L 127 313 L 127 313 L 127 313 L 127 312 L 127 312 L 127 312 L 127 311 L 127 311 L 127 311 L 127 310 L 127 310 L 127 310 L 127 310 L 127 309 L 127 309 L 128 309 L 128 308 L 128 308 L 128 308 L 128 307 L 131 307 L 131 307 L 131 307 L 132 306 L 132 306 L 134 306 L 136 305 L 137 305 L 138 305 L 139 304 L 140 304 L 141 304 L 141 304 L 143 303 L 143 303 L 144 303 L 145 302 L 145 302 L 146 302 L 146 301 L 146 301 L 146 301 L 147 301 L 148 300 L 148 300 L 149 300 L 149 299 L 149 299 L 150 299 L 151 298 L 152 298 L 154 298 L 154 298 L 155 297 L 156 297 L 156 297 L 156 296 L 157 296 L 162 296 L 162 295 L 163 295 L 168 295 L 168 295 L 168 294 L 168 294 L 168 294 L 169 293 L 171 293 L 172 293 L 172 292 L 177 292 L 179 292 L 180 292 L 182 291 L 183 291 L 183 291 L 184 290 L 188 290 L 192 290 L 197 289 L 198 289 L 198 289 L 198 289 L 198 288 L 200 288 L 206 288 L 210 287 L 210 287 L 212 287 L 213 286 L 213 286 L 221 286 L 221 286 L 222 285 L 222 285 L 223 285 L 225 284 L 226 284 L 227 284 L 228 283 L 230 283 L 234 283 L 235 283 L 235 282 L 235 282 L 236 282 L 236 281 L 238 281 L 243 281 L 252 280 L 256 280 L 258 280 L 258 280 L 260 279 L 260 279 L 260 279 L 260 278 L 260 278 L 260 278 L 260 277 L 260 277 L 260 277 L 260 277 L 260 276 L 260 276 L 260 276 L 261 275 L 261 275 L 263 275 L 263 274 L 263 274 L 263 274 L 264 274 L 264 273 L 264 273 L 264 273 L 264 272 L 264 272 L 264 272 L 265 271 L 266 271 L 266 271 L 266 271 L 266 270 L 266 270 L 266 270 L 267 269 L 267 269 L 267 269 L 268 268 L 268 268 L 268 268 L 269 268 L 270 267 L 270 267 L 272 267 L 273 266 L 274 266 L 274 266 L 274 265 L 274 265 L 274 265 L 274 265 L 276 264 L 276 264 L 278 264 L 278 263 L 278 263 L 280 263 L 281 262 L 281 262 L 283 262 L 283 262 L 284 261 L 284 261 L 284 261 L 288 260 L 289 260 L 289 260 L 292 259 L 293 259 L 296 259 L 297 259 L 297 258 L 298 258 L 298 258 L 298 257 L 300 257 L 302 257 L 303 256 L 303 256 L 305 256 L 305 256 L 305 255 L 306 255 L 306 255 L 306 254 L 306 254 L 307 254 L 307 253 L 307 253 L 308 253 L 311 253 L 316 252 L 316 252 L 316 252 L 318 251 L 320 251 L 320 251 L 321 250 L 322 250 L 323 250 L 323 250 L 323 249 L 323 249 L 323 249 L 323 248 L 323 248 L 323 248 L 323 247 L 324 247 L 326 247 L 326 247 L 326 246 L 326 246 L 326 246 L 326 245 L 327 245 L 327 245 L 327 244 L 327 244 L 327 244 L 327 244 L 327 243 L 330 243 L 332 243 L 332 242 L 333 242 L 341 242 L 342 241 L 344 241 L 347 241 L 353 241 L 355 240 L 355 240 L 355 240 L 355 239 L 356 239 L 356 239 L 356 238 L 357 238 L 357 238 L 364 238 L 366 237 L 368 237 L 373 237 L 376 236 L 379 236 L 381 236 L 385 235 L 385 235 L 392 235 L 400 235 L 400 234 L 405 234 L 405 234 L 409 233 L 410 233 L 412 233 L 412 232 L 413 232 L 413 232 L 415 232 L 416 231 L 418 231 L 421 231 L 422 230 L 423 230 L 423 230 L 426 229 L 429 229 L 429 229 L 432 229 L 435 228 L 436 228 L 436 228 L 437 227 L 438 227 L 439 227 L 441 226 L 443 226 L 445 226 L 447 226 L 447 225 L 451 225 L 452 225 L 454 224 L 458 224 L 458 224 L 462 223 L 462 223 L 462 223 L 463 223 L 464 222 L 466 222 L 466 222 L 467 221 L 470 221 L 470 221 L 471 220 L 471 220 L 477 220 L 477 220 L 478 219 L 478 219 L 478 219 L 479 218 L 479 218 L 479 218 L 480 217 L 481 217 L 481 217 L 482 217 L 483 216 L 483 216 L 484 216 L 484 215 L 484 215 L 485 215 L 485 214 L 485 214 L 486 214 L 486 214 L 486 213 L 486 213 L 487 213 L 488 212 L 488 212 L 489 212 L 489 211 L 490 211 L 491 211 L 492 211 L 492 210 L 492 210 L 493 210 L 494 209 L 495 209 L 495 209 L 495 208 L 497 208 L 497 208 L 497 208 L 497 207 L 497 207 L 498 207 L 498 206 L 498 206 L 498 206 L 499 205 L 502 205 L 503 205 L 504 205 L 504 204 L 506 204 L 507 204 L 507 203 L 509 203 L 511 203 L 513 202 L 515 202 L 516 202 L 516 202 L 516 201 L 516 201 L 517 201 L 517 200 L 517 200 L 518 200 L 518 199 L 518 199 L 518 199 L 519 199 L 520 198 L 520 198 L 521 198 L 521 197 L 523 197 L 524 197 L 524 196 L 524 196 L 525 196 L 527 196 L 532 195 L 532 195 L 532 195 L 533 194 L 534 194 L 536 194 L 536 193 L 537 193 L 537 193 L 537 193 L 538 192 L 541 192 L 541 192 L 541 191 L 541 191 L 543 191 L 543 190 L 543 190 L 544 190 L 546 190 L 549 189 L 549 189 L 552 189 L 552 188 L 553 188 L 556 188 L 557 187 L 559 187 L 560 187 L 562 187 L 563 186 L 563 186 L 563 186 L 563 185 L 563 185 L 563 185 L 564 184 L 564 184 L 564 184 L 565 184 L 565 183 L 565 183 L 566 183 L 567 182 L 567 182 L 571 182 L 572 181 L 576 181 L 578 181 L 578 181 L 578 180 L 579 180 L 581 180 L 582 179 L 582 179 L 583 179 L 583 178 L 583 178 L 583 178 L 583 178 L 584 177 L 584 177 L 584 177 L 584 176 L 584 176 L 585 176 L 585 175 L 586 175 L 586 175 L 587 175 L 587 174 L 588 174 L 588 174 L 588 173 L 589 173 L 590 173 L 592 172 L 592 172 L 592 172 L 592 172 L 592 171 L 593 171 L 593 171 L 593 170 L 594 170 L 596 170 L 598 169 L 601 169 L 601 169 L 603 169 L 605 168 L 608 168 L 609 168 L 611 167 L 614 167 L 614 167 L 615 166 L 619 166 L 620 166 L 620 166 L 621 165 L 621 165 L 628 165 L 628 164 L 629 164 L 629 164 L 630 163 L 630 163 L 631 163 L 631 163 L 631 162 L 632 162 L 632 162 L 633 161 L 633 161 L 633 161 L 633 160 L 633 160 L 633 160 L 634 160 L 634 159 L 635 159 L 636 159 L 637 158 L 637 158 L 637 158 L 638 157 L 638 157 L 639 157 L 640 157 L 640 156 L 640 156 L 641 156 L 641 155 L 642 155 L 642 155 L 644 154 L 644 154 L 644 154 L 645 154 L 645 153 L 646 153 L 646 153 L 646 152 L 646 152 L 647 152 L 647 151 L 648 151 L 648 151 L 649 151 L 649 150 L 649 150 L 649 150 L 650 149 L 650 149 L 650 149 L 650 148 L 650 148 L 652 148 L 652 148 L 652 147 L 652 147 L 653 147 L 653 146 L 653 146 L 653 146 L 653 145 L 654 145 L 654 145 L 654 145 L 654 144 L 654 144 L 656 144 L 657 143 L 659 143 L 659 143 L 659 142 L 659 142 L 660 142 L 661 142 L 661 141 L 662 141 L 664 141 L 666 140 L 666 140 L 667 140 L 668 139 L 668 139 L 669 139 L 669 139 L 669 138 L 670 138 L 670 138 L 670 137 L 670 137 L 670 137 L 670 136 L 670 136 L 670 136 L 670 136 L 671 135 L 671 135 L 671 135 L 672 134 L 672 134 L 673 134 L 674 133 L 674 133 L 675 133 L 675 132 L 676 132 L 676 132 L 676 132 L 679 131 L 679 131 L 679 131 L 679 130 L 680 130 L 682 130 L 683 130 L 684 129 L 685 129 L 685 129 L 686 128 L 686 128 L 686 128 L 691 127 L 692 127 L 695 127 L 696 126 L 697 126 L 698 126 L 699 126 L 699 125 L 699 125 L 699 125 L 700 124 L 700 124 L 701 124 L 701 124 L 702 123 L 704 123 L 704 123 L 704 122 L 704 122 L 704 122 L 704 121 L 704 121 L 704 121 L 704 121 L 704 120 L 704 120 L 704 120 L 704 119 L 704 119 L 704 119 L 704 118 L 704 118 L 705 118 L 705 118 L 705 117 L 705 117 L 705 117 L 705 116 L 705 116 L 706 116 L 706 115 L 706 115 L 707 115 L 707 115 L 707 114 L 707 114 L 707 114 L 707 113 L 708 113 L 709 113 L 711 112 L 711 112 L 711 112 L 713 112 L 713 111 L 713 111 L 714 111 L 716 110 L 716 110 L 717 110 L 717 109 L 717 109 L 717 109 L 717 109 L 717 108 L 717 108 L 719 108 L 720 107 L 720 107 L 723 107 L 724 106 L 726 106 L 728 106 L 729 106 L 729 105 L 730 105 L 730 105 L 730 104 L 730 104 L 731 104 L 731 103 L 732 103 L 732 103 L 732 103 L 733 102 L 733 102 L 733 102 L 733 101 L 733 101 L 733 101 L 733 100 L 734 100 L 734 100 L 734 100 L 735 99 L 736 99 L 736 99 L 736 98 L 737 98 L 737 98 L 737 97 L 738 97 L 738 97 L 738 97 L 739 96 L 739 96 L 740 96 L 743 95 L 744 95 L 745 95 L 748 94 L 748 94 L 749 94 L 752 94 L 752 93 L 753 93 L 756 93 L 760 92 L 761 92 L 762 92 L 764 91 L 766 91 L 766 91 L 766 91 L 768 90 L 768 90 L 769 90 L 770 89 L 771 89 L 772 89 L 773 88 L 773 88 L 774 88 L 774 88 L 774 87 L 775 87 L 778 87 L 778 86 L 779 86 L 780 86 L 780 85 L 782 85 L 782 85 L 783 85 L 783 84 L 783 84 L 784 84 L 784 83 L 785 83 L 785 83 L 786 82 L 787 82 L 787 82 L 788 82 L 788 81 L 789 81 L 789 81 L 789 80 L 790 80 L 790 80 L 790 79 L 790 79 L 791 79 L 791 79 L 792 78 L 794 78 L 795 78 L 795 77 L 795 77 L 798 77 L 799 76 L 800 76 L 801 76 L 803 76 L 805 75 L 807 75 L 808 75 L 809 74 L 810 74 L 811 74 L 813 73 L 815 73 L 815 73 L 815 73 L 815 72 L 815 72 L 815 72 L 816 71 L 817 71 L 818 71 L 819 70 L 819 70 L 819 70 L 825 70 L 826 69 L 827 69 L 828 69 L 830 68 L 831 68 L 831 68 L 832 67 L 832 67 L 832 67 L 833 67 L 834 66 L 834 66 L 834 66 L 835 65 L 835 65 L 835 65 L 836 64 L 837 64 L 838 64 L 840 64 L 841 63 L 845 63 L 846 63 L 846 62 L 847 62 L 848 62 L 848 61 L 848 61 L 848 61 L 851 61 L 852 60 L 854 60 L 854 60 L 854 59 L 854 59 L 856 59 L 857 58 L 859 58 L 859 58 L 860 58 L 860 57 L 860 57 L 861 57 L 861 56 L 862 56 L 862 56 L 862 55 L 864 55 L 864 55 L 865 55 L 866 54 L 866 54 L 866 54 L 866 53 L 867 53 L 870 53 L 874 52 L 874 52 L 877 52 L 878 52 L 881 51 L 881 51 L 882 51 L 882 50 L 883 50 L 884 50 L 885 49 L 886 49 L 887 49 L 888 49 L 891 48 L 896 48 L 896 48 L 896 47 L 896 47 L 897 47 L 898 46 L 898 46 L 898 46 L 907 46 L 910 45 L 910 45 L 911 45 L 913 44 L 915 44 L 917 44 L 918 43 L 918 43 L 919 43 L 920 43 L 925 42 L 926 42 L 927 42 L 928 41 L 929 41 L 931 41 L 931 40 L 931 40 L 931 40 L 932 40 L 932 39 L 932 39 L 932 39 L 935 38 L 936 38 L 937 38 L 937 37 L 937 37" /><path stroke-width="2" class="series" d="M 58 345 L 60 345 L 73 345 L 73 344 L 73 344 L 73 344 L 73 343 L 73 343 L 73 343 L 73 343 L 73 342 L 73 342 L 74 342 L 74 341 L 74 341 L 74 341 L 74 340 L 74 340 L 74 340 L 75 340 L 75 339 L 75 339 L 76 339 L 77 338 L 77 338 L 77 338 L 77 337 L 78 337 L 79 337 L 79 337 L 80 336 L 81 336 L 85 336 L 85 335 L 85 335 L 85 335 L 85 334 L 87 334 L 89 334 L 89 334 L 91 333 L 94 333 L 95 333 L 101 332 L 103 332 L 106 332 L 109 331 L 110 331 L 122 331 L 122 331 L 122 330 L 124 330 L 124 330 L 124 329 L 124 329 L 124 329 L 124 328 L 124 328 L 124 328 L 124 328 L 124 327 L 124 327 L 125 327 L 125 326 L 125 326 L 125 326 L 125 325 L 125 325 L 125 325 L 125 325 L 125 324 L 125 324 L 125 324 L 125 323 L 125 323 L 125 323 L 125 322 L 125 322 L 125 322 L 125 322 L 125 321 L 125 321 L 125 321 L 125 320 L 125 320 L 125 320 L 125 319 L 125 319 L 125 319 L 125 319 L 125 318 L 125 318 L 125 318 L 125 317 L 125 317 L 125 317 L 125 316 L 126 316 L 126 316 L 126 316 L 126 315 L 126 315 L 126 315 L 126 314 L 126 314 L 127 314 L 127 313 L 127 313 L 127 313 L 127 313 L 127 312 L 127 312 L 127 312 L 127 311 L 127 311 L 127 311 L 127 310 L 127 310 L 127 310 L 127 310 L 127 309 L 127 309 L 128 309 L 128 308 L 128 308 L 128 308 L 128 307 L 131 307 L 131 307 L 131 307 L 132 306 L 132 306 L 134 306 L 136 305 L 137 305 L 138 305 L 139 304 L 140 304 L 141 304 L 141 304 L 143 303 L 143 303 L 144 303 L 145 302 L 145 302 L 146 302 L 146 301 L 146 301 L 146 301 L 147 301 L 148 300 L 148 300 L 149 300 L 149 299 L 149 299 L 150 299 L 151 298 L 152 298 L 154 298 L 154 298 L 155 297 L 156 297 L 156 297 L 156 296 L 157 296 L 162 296 L 162 295 L 163 295 L 168 295 L 168 295 L 168 294 L 168 294 L 168 294 L 169 293 L 171 293 L 172 293 L 172 292 L 177 292 L 179 292 L 180 292 L 182 291 L 183 291 L 183 291 L 184 290 L 188 290 L 192 290 L 197 289 L 198 289 L 198 289 L 198 289 L 198 288 L 200 288 L 206 288 L 210 287 L 210 287 L 212 287 L 213 286 L 213 286 L 221 286 L 221 286 L 222 285 L 222 285 L 223 285 L 225 284 L 226 284 L 227 284 L 228 283 L 230 283 L 234 283 L 235 283 L 235 282 L 235 282 L 236 282 L 236 281 L 238 281 L 243 281 L 252 280 L 256 280 L 258 280 L 258 280 L 260 279 L 260 279 L 260 279 L 260 278 L 260 278 L 260 278 L 260 277 L 260 277 L 260 277 L 260 277 L 260 276 L 260 276 L 260 276 L 261 275 L 261 275 L 263 275 L 263 274 L 263 274 L 263 274 L 264 274 L 264 273 L 264 273 L 264 273 L 264 272 L 264 272 L 264 272 L 265 271 L 266 271 L 266 271 L 266 271 L 266 270 L 266 270 L 266 270 L 267 269 L 267 269 L 267 269 L 268 268 L 268 268 L 268 268 L 269 268 L 270 267 L 270 267 L 272 267 L 273 266 L 274 266 L 274 266 L 274 265 L 274 265 L 274 265 L 274 265 L 276 264 L 276 264 L 278 264 L 278 263 L 278 263 L 280 263 L 281 262 L 281 262 L 283 262 L 283 262 L 284 261 L 284 261 L 284 261 L 288 260 L 289 260 L 289 260 L 292 259 L 293 259 L 296 259 L 297 259 L 297 258 L 298 258 L 298 258 L 298 257 L 300 257 L 302 257 L 303 256 L 303 256 L 305 256 L 305 256 L 305 255 L 306 255 L 306 255 L 306 254 L 306 254 L 307 254 L 307 253 L 307 253 L 308 253 L 311 253 L 316 252 L 316 252 L 316 252 L 318 251 L 320 251 L 320 251 L 321 250 L 322 250 L 323 250 L 323 250 L 323 249 L 323 249 L 323 249 L 323 248 L 323 248 L 323 248 L 323 247 L 324 247 L 326 247 L 326 247 L 326 246 L 326 246 L 326 246 L 326 245 L 327 245 L 327 245 L 327 244 L 327 244 L 327 244 L 327 244 L 327 243 L 330 243 L 332 243 L 332 242 L 333 242 L 341 242 L 342 241 L 344 241 L 347 241 L 353 241 L 355 240 L 355 240 L 355 240 L 355 239 L 356 239 L 356 239 L 356 238 L 357 238 L 357 238 L 364 238 L 366 237 L 368 237 L 373 237 L 376 236 L 379 236 L 381 236 L 385 235 L 385 235 L 392 235 L 400 235 L 400 234 L 405 234 L 405 234 L 409 233 L 410 233 L 412 233 L 412 232 L 413 232 L 413 232 L 415 232 L 416 231 L 418 231 L 421 231 L 422 230 L 423 230 L 423 230 L 426 229 L 429 229 L 429 229 L 432 229 L 435 228 L 436 228 L 436 228 L 437 227 L 438 227 L 439 227 L 441 226 L 443 226 L 445 226 L 447 226 L 447 225 L 451 225 L 452 225 L 454 224 L 458 224 L 458 224 L 462 223 L 462 223 L 462 223 L 463 223 L 464 222 L 466 222 L 466 222 L 467 221 L 470 221 L 470 221 L 471 220 L 471 220 L 477 220 L 477 220 L 478 219 L 478 219 L 478 219 L 479 218 L 479 218 L 479 218 L 480 217 L 481 217 L 481 217 L 482 217 L 483 216 L 483 216 L 484 216 L 484 215 L 484 215 L 485 215 L 485 214 L 485 214 L 486 214 L 486 214 L 486 213 L 486 213 L 487 213 L 488 212 L 488 212 L 489 212 L 489 211 L 490 211 L 491 211 L 492 211 L 492 210 L 492 210 L 493 210 L 494 209 L 495 209 L 495 209 L 495 208 L 497 208 L 497 208 L 497 208 L 497 207 L 497 207 L 498 207 L 498 206 L 498 206 L 498 206 L 499 205 L 502 205 L 503 205 L 504 205 L 504 204 L 506 204 L 507 204 L 507 203 L 509 203 L 511 203 L 513 202 L 515 202 L 516 202 L 516 202 L 516 201 L 516 201 L 517 201 L 517 200 L 517 200 L 518 200 L 518 199 L 518 199 L 518 199 L 519 199 L 520 198 L 520 198 L 521 198 L 521 197 L 523 197 L 524 197 L 524 196 L 524 196 L 525 196 L 527 196 L 532 195 L 532 195 L 532 195 L 533 194 L 534 194 L 536 194 L 536 193 L 537 193 L 537 193 L 537 193 L 538 192 L 541 192 L 541 192 L 541 191 L 541 191 L 543 191 L 543 190 L 543 190 L 544 190 L 546 190 L 549 189 L 549 189 L 552 189 L 552 188 L 553 188 L 556 188 L 557 187 L 559 187 L 560 187 L 562 187 L 563 186 L 563 186 L 563 186 L 563 185 L 563 185 L 563 185 L 564 184 L 564 184 L 564 184 L 565 184 L 565 183 L 565 183 L 566 183 L 567 182 L 567 182 L 571 182 L 572 181 L 576 181 L 578 181 L 578 181 L 578 180 L 579 180 L 581 180 L 582 179 L 582 179 L 583 179 L 583 178 L 583 178 L 583 178 L 583 178 L 584 177 L 584 177 L 584 177 L 584 176 L 584 176 L 585 176 L 585 175 L 586 175 L 586 175 L 587 175 L 587 174 L 588 174 L 588 174 L 588 173 L 589 173 L 590 173 L 592 172 L 592 172 L 592 172 L 592 172 L 592 171 L 593 171 L 593 171 L 593 170 L 594 170 L 596 170 L 598 169 L 601 169 L 601 169 L 603 169 L 605 168 L 608 168 L 609 168 L 611 167 L 614 167 L 614 167 L 615 166 L 619 166 L 620 166 L 620 166 L 621 165 L 621 165 L 628 165 L 628 164 L 629 164 L 629 164 L 630 163 L 630 163 L 631 163 L 631 163 L 631 162 L 632 162 L 632 162 L 633 161 L 633 161 L 633 161 L 633 160 L 633 160 L 633 160 L 634 160 L 634 159 L 635 159 L 636 159 L 637 158 L 637 158 L 637 158 L 638 157 L 638 157 L 639 157 L 640 157 L 640 156 L 640 156 L 641 156 L 641 155 L 642 155 L 642 155 L 644 154 L 644 154 L 644 154 L 645 154 L 645 153 L 646 153 L 646 153 L 646 152 L 646 152 L 647 152 L 647 151 L 648 151 L 648 151 L 649 151 L 649 150 L 649 150 L 649 150 L 650 149 L 650 149 L 650 149 L 650 148 L 650 148 L 652 148 L 652 148 L 652 147 L 652 147 L 653 147 L 653 146 L 653 146 L 653 146 L 653 145 L 654 145 L 654 145 L 654 145 L 654 144 L 654 144 L 656 144 L 657 143 L 659 143 L 659 143 L 659 142 L 659 142 L 660 142 L 661 142 L 661 141 L 662 141 L 664 141 L 666 140 L 666 140 L 667 140 L 668 139 L 668 139 L 669 139 L 669 139 L 669 138 L 670 138 L 670 138 L 670 137 L 670 137 L 670 137 L 670 136 L 670 136 L 670 136 L 670 136 L 671 135 L 671 135 L 671 135 L 672 134 L 672 134 L 673 134 L 674 133 L 674 133 L 675 133 L 675 132 L 676 132 L 676 132 L 676 132 L 679 131 L 679 131 L 679 131 L 679 130 L 680 130 L 682 130 L 683 130 L 684 129 L 685 129 L 685 129 L 686 128 L 686 128 L 686 128 L 691 127 L 692 127 L 695 127 L 696 126 L 697 126 L 698 126 L 699 126 L 699 125 L 699 125 L 699 125 L 700 124 L 700 124 L 701 124 L 701 124 L 702 123 L 704 123 L 704 123 L 704 122 L 704 122 L 704 122 L 704 121 L 704 121 L 704 121 L 704 121 L 704 120 L 704 120 L 704 120 L 704 119 L 704 119 L 704 119 L 704 118 L 704 118 L 705 118 L 705 118 L 705 117 L 705 117 L 705 117 L 705 116 L 705 116 L 706 116 L 706 115 L 706 115 L 707 115 L 707 115 L 707 114 L 707 114 L 707 114 L 707 113 L 708 113 L 709 113 L 711 112 L 711 112 L 711 112 L 713 112 L 713 111 L 713 111 L 714 111 L 716 110 L 716 110 L 717 110 L 717 109 L 717 109 L 717 109 L 717 109 L 717 108 L 717 108 L 719 108 L 720 107 L 720 107 L 723 107 L 724 106 L 726 106 L 728 106 L 729 106 L 729 105 L 730 105 L 730 105 L 730 104 L 730 104 L 731 104 L 731 103 L 732 103 L 732 103 L 732 103 L 733 102 L 733 102 L 733 102 L 733 101 L 733 101 L 733 101 L 733 100 L 734 100 L 734 100 L 734 100 L 735 99 L 736 99 L 736 99 L 736 98 L 737 98 L 737 98 L 737 97 L 738 97 L 738 97 L 738 97 L 739 96 L 739 96 L 740 96 L 743 95 L 744 95 L 745 95 L 748 94 L 748 94 L 749 94 L 752 94 L 752 93 L 753 93 L 756 93 L 760 92 L 761 92 L 762 92 L 764 91 L 766 91 L 766 91 L 766 91 L 768 90 L 768 90 L 769 90 L 770 89 L 771 89 L 772 89 L 773 88 L 773 88 L 774 88 L 774 88 L 774 87 L 775 87 L 778 87 L 778 86 L 779 86 L 780 86 L 780 85 L 782 85 L 782 85 L 783 85 L 783 84 L 783 84 L 784 84 L 784 83 L 785 83 L 785 83 L 786 82 L 787 82 L 787 82 L 788 82 L 788 81 L 789 81 L 789 81 L 789 80 L 790 80 L 790 80 L 790 79 L 790 79 L 791 79 L 791 79 L 792 78 L 794 78 L 795 78 L 795 77 L 795 77 L 798 77 L 799 76 L 800 76 L 801 76 L 803 76 L 805 75 L 807 75 L 808 75 L 809 74 L 810 74 L 811 74 L 813 73 L 815 73 L 815 73 L 815 73 L 815 72 L 815 72 L 815 72 L 816 71 L 817 71 L 818 71 L 819 70 L 819 70 L 819 70 L 825 70 L 826 69 L 827 69 L 828 69 L 830 68 L 831 68 L 831 68 L 832 67 L 832 67 L 832 67 L 833 67 L 834 66 L 834 66 L 834 66 L 835 65 L 835 65 L 835 65 L 836 64 L 837 64 L 838 64 L 840 64 L 841 63 L 845 63 L 846 63 L 846 62 L 847 62 L 848 62 L 848 61 L 848 61 L 848 61 L 851 61 L 852 60 L 854 60 L 854 60 L 854 59 L 854 59 L 856 59 L 857 58 L 859 58 L 859 58 L 860 58 L 860 57 L 860 57 L 861 57 L 861 56 L 862 56 L 862 56 L 862 55 L 864 55 L 864 55 L 865 55 L 866 54 L 866 54 L 866 54 L 866 53 L 867 53 L 870 53 L 874 52 L 874 52 L 877 52 L 878 52 L 881 51 L 881 51 L 882 51 L 882 50 L 883 50 L 884 50 L 885 49 L 886 49 L 887 49 L 888 49 L 891 48 L 896 48 L 896 48 L 896 47 L 896 47 L 897 47 L 898 46 L 898 46 L 898 46 L 907 46 L 910 45 L 910 45 L 911 45 L 913 44 L 915 44 L 917 44 L 918 43 L 918 43 L 919 43 L 920 43 L 925 42 L 926 42 L 927 42 L 928 41 L 929 41 L 931 41 L 931 40 L 931 40 L 931 40 L 932 40 L 932 39 L 932 39 L 932 39 L 935 38 L 936 38 L 937 38 L 937 37 L 937 37"></path><path stroke-width="2" d="M 937 346 L 937.000000 15.000000" /><path d="M 937 346 L 937.000000 15.000000" stroke-width="2"></path><path stroke-width="2" d="M 937 346 L 942 346" /><path stroke-width="2" d="M 937 346 L 942 346"></path><text xmlns="http://www.w3.org/2000/svg" x="947" y="352">0</text><path stroke-width="2" d="M 937 307 L 942 307" /><path stroke-width="2" d="M 937 307 L 942 307"></path><text xmlns="http://www.w3.org/2000/svg" x="947" y="313">130</text><path stroke-width="2" d="M 937 271 L 942 271" /><path stroke-width="2" d="M 937 271 L 942 271"></path><text xmlns="http://www.w3.org/2000/svg" x="947" y="277">250</text><path stroke-width="2" d="M 937 235 L 942 235" /><path stroke-width="2" d="M 937 235 L 942 235"></path><text x="947" y="241" xmlns="http://www.w3.org/2000/svg">370</text><path stroke-width="2" d="M 937 199 L 942 199" /><path stroke-width="2" d="M 937 199 L 942 199"></path><text y="205" xmlns="http://www.w3.org/2000/svg" x="947">490</text><path stroke-width="2" d="M 937 160 L 942 160" /><path stroke-width="2" d="M 937 160 L 942 160"></path><text xmlns="http://www.w3.org/2000/svg" x="947" y="166">620</text><path stroke-width="2" d="M 937 124 L 942 124" /><path stroke-width="2" d="M 937 124 L 942 124"></path><text xmlns="http://www.w3.org/2000/svg" x="947" y="130">740</text><path stroke-width="2" d="M 937 88 L 942 88" /><path stroke-width="2" d="M 937 88 L 942 88"></path><text xmlns="http://www.w3.org/2000/svg" x="947" y="94">860</text><path d="M 937 52 L 942 52" stroke-width="2" /><path stroke-width="2" d="M 937 52 L 942 52"></path><text xmlns="http://www.w3.org/2000/svg" x="947" y="58">980</text><path stroke-width="2" d="M 937 16 L 942 16" /><path stroke-width="2" d="M 937 16 L 942 16"></path><text xmlns="http://www.w3.org/2000/svg" x="947" y="22">1100</text><text x="987" y="175" transform="rotate(90.00,987,175)" xmlns="http://www.w3.org/2000/svg">Stargazers</text><path stroke-width="2" d="M 57.000000 346.000000 L 937 346" /><path stroke-width="2" d="M 57.000000 346.000000 L 937 346"></path><path stroke-width="2" d="M 58 346 L 58 351" /><path stroke-width="2" d="M 58 346 L 58 351"></path><text xmlns="http://www.w3.org/2000/svg" x="25" y="368">2023-04-02</text><path stroke-width="2" d="M 156 346 L 156 351" /><path stroke-width="2" d="M 156 346 L 156 351"></path><text xmlns="http://www.w3.org/2000/svg" x="123" y="368">2023-07-06</text><path stroke-width="2" d="M 254 346 L 254 351" /><path stroke-width="2" d="M 254 346 L 254 351"></path><text xmlns="http://www.w3.org/2000/svg" x="221" y="368">2023-10-09</text><path stroke-width="2" d="M 352 346 L 352 351" /><path d="M 352 346 L 352 351" stroke-width="2"></path><text y="368" xmlns="http://www.w3.org/2000/svg" x="319">2024-01-12</text><path stroke-width="2" d="M 449 346 L 449 351" /><path stroke-width="2" d="M 449 346 L 449 351"></path><text xmlns="http://www.w3.org/2000/svg" x="416" y="368">2024-04-16</text><path stroke-width="2" d="M 547 346 L 547 351" /><path d="M 547 346 L 547 351" stroke-width="2"></path><text xmlns="http://www.w3.org/2000/svg" x="514" y="368">2024-07-20</text><path stroke-width="2" d="M 645 346 L 645 351" /><path stroke-width="2" d="M 645 346 L 645 351"></path><text xmlns="http://www.w3.org/2000/svg" x="612" y="368">2024-10-23</text><path stroke-width="2" d="M 742 346 L 742 351" /><path stroke-width="2" d="M 742 346 L 742 351"></path><text xmlns="http://www.w3.org/2000/svg" x="709" y="368">2025-01-26</text><path stroke-width="2" d="M 840 346 L 840 351" /><path d="M 840 346 L 840 351" stroke-width="2"></path><text xmlns="http://www.w3.org/2000/svg" x="807" y="368">2025-05-01</text><path stroke-width="2" d="M 937 346 L 937 351" /><path stroke-width="2" d="M 937 346 L 937 351"></path><text xmlns="http://www.w3.org/2000/svg" x="904" y="368">2025-08-04</text><text xmlns="http://www.w3.org/2000/svg" x="483" y="390">Time</text></svg>