<svg xmlns="http://www.w3.org/2000/svg" xmlns:xlink="http://www.w3.org/1999/xlink" width="1024px" height="400px"><style type="text/css">
path { fill: none; stroke: rgb(51,51,51); }
path.series { stroke: #6b63ff; }
rect.background { fill: rgb(255,255,255); stroke: none; }

text {
	stroke-width: 0;
	stroke: none;
	fill: rgba(51,51,51,1.0);
	font-size: 12.8px;
	font-family: 'Roboto Medium', sans-serif;
}
</style><rect rx="8" x="0" y="0" width="1024px" height="400px" class="background" /><rect x="0" y="0" width="1024px" height="400px" class="background" rx="8"></rect><path d="M 58 345 L 61 344 L 81 344 L 81 343 L 81 343 L 81 342 L 81 342 L 81 341 L 81 341 L 81 340 L 82 340 L 82 339 L 82 339 L 82 338 L 82 338 L 82 337 L 82 337 L 82 336 L 82 336 L 84 335 L 84 335 L 84 334 L 86 333 L 87 333 L 87 332 L 87 332 L 87 331 L 88 331 L 91 330 L 91 330 L 92 329 L 93 329 L 100 328 L 100 328 L 100 327 L 100 327 L 100 326 L 100 326 L 103 325 L 105 325 L 106 324 L 109 324 L 114 323 L 116 322 L 124 322 L 127 321 L 131 321 L 136 320 L 138 320 L 156 319 L 157 319 L 158 318 L 160 318 L 160 317 L 160 317 L 160 316 L 160 316 L 160 315 L 160 315 L 161 314 L 161 314 L 161 313 L 161 313 L 161 312 L 161 311 L 161 311 L 161 310 L 161 310 L 161 309 L 161 309 L 161 308 L 161 308 L 161 307 L 161 307 L 161 306 L 161 306 L 161 305 L 161 305 L 161 304 L 162 304 L 162 303 L 162 303 L 162 302 L 162 302 L 162 301 L 162 300 L 162 300 L 162 299 L 162 299 L 162 298 L 162 298 L 162 297 L 162 297 L 162 296 L 162 296 L 162 295 L 162 295 L 162 294 L 162 294 L 162 293 L 163 293 L 163 292 L 163 292 L 163 291 L 163 291 L 164 290 L 165 289 L 165 289 L 165 288 L 165 288 L 165 287 L 165 287 L 165 286 L 165 286 L 165 285 L 165 285 L 165 284 L 165 284 L 165 283 L 165 283 L 165 282 L 165 282 L 165 281 L 165 281 L 167 280 L 167 280 L 167 279 L 167 278 L 171 278 L 171 277 L 171 277 L 173 276 L 173 276 L 176 275 L 179 275 L 180 274 L 182 274 L 183 273 L 185 273 L 186 272 L 186 272 L 189 271 L 189 271 L 190 270 L 192 270 L 192 269 L 194 269 L 194 268 L 194 267 L 194 267 L 196 266 L 197 266 L 197 265 L 198 265 L 199 264 L 199 264 L 200 263 L 202 263 L 203 262 L 206 262 L 207 261 L 208 261 L 209 260 L 209 260 L 209 259 L 211 259 L 219 258 L 219 258 L 221 257 L 228 256 L 228 256 L 228 255 L 228 255 L 229 254 L 230 254 L 232 253 L 233 253 L 234 252 L 243 252 L 244 251 L 246 251 L 249 250 L 251 250 L 251 249 L 252 249 L 259 248 L 266 248 L 274 247 L 274 247 L 274 246 L 275 245 L 275 245 L 277 244 L 288 244 L 292 243 L 293 243 L 297 242 L 298 242 L 298 241 L 310 241 L 310 240 L 311 240 L 311 239 L 313 239 L 316 238 L 318 238 L 320 237 L 322 237 L 324 236 L 331 236 L 331 235 L 332 234 L 333 234 L 333 233 L 333 233 L 337 232 L 344 232 L 358 231 L 364 231 L 367 230 L 367 230 L 369 229 L 370 229 L 370 228 L 370 228 L 371 227 L 371 227 L 371 226 L 371 226 L 371 225 L 371 225 L 371 224 L 371 223 L 371 223 L 371 222 L 372 222 L 372 221 L 374 221 L 375 220 L 375 220 L 375 219 L 375 219 L 377 218 L 377 218 L 377 217 L 377 217 L 377 216 L 377 216 L 377 215 L 378 215 L 379 214 L 380 214 L 380 213 L 380 212 L 380 212 L 380 211 L 381 211 L 382 210 L 382 210 L 382 209 L 383 209 L 383 208 L 383 208 L 385 207 L 386 207 L 387 206 L 389 206 L 391 205 L 391 205 L 392 204 L 393 204 L 393 203 L 393 203 L 393 202 L 395 201 L 396 201 L 398 200 L 398 200 L 399 199 L 401 199 L 403 198 L 403 198 L 406 197 L 407 197 L 407 196 L 408 196 L 408 195 L 414 195 L 415 194 L 415 194 L 419 193 L 422 193 L 426 192 L 427 192 L 428 191 L 429 190 L 429 190 L 429 189 L 433 189 L 436 188 L 437 188 L 438 187 L 439 187 L 441 186 L 441 186 L 441 185 L 441 185 L 442 184 L 442 184 L 442 183 L 444 183 L 444 182 L 444 182 L 445 181 L 450 181 L 456 180 L 456 179 L 457 179 L 461 178 L 463 178 L 464 177 L 464 177 L 466 176 L 467 176 L 467 175 L 467 175 L 467 174 L 468 174 L 468 173 L 468 173 L 469 172 L 469 172 L 470 171 L 472 171 L 472 170 L 473 170 L 473 169 L 473 168 L 473 168 L 473 167 L 474 167 L 474 166 L 474 166 L 474 165 L 474 165 L 474 164 L 479 164 L 482 163 L 482 163 L 483 162 L 496 162 L 497 161 L 501 161 L 504 160 L 512 160 L 515 159 L 518 159 L 518 158 L 518 157 L 518 157 L 518 156 L 518 156 L 518 155 L 519 155 L 520 154 L 521 154 L 531 153 L 534 153 L 538 152 L 545 152 L 551 151 L 555 151 L 558 150 L 564 150 L 564 149 L 575 149 L 587 148 L 587 148 L 595 147 L 595 146 L 602 146 L 603 145 L 606 145 L 606 144 L 607 144 L 607 143 L 611 143 L 612 142 L 616 142 L 620 141 L 621 141 L 622 140 L 623 140 L 627 139 L 632 139 L 632 138 L 637 138 L 641 137 L 642 137 L 643 136 L 645 135 L 646 135 L 647 134 L 651 134 L 654 133 L 657 133 L 660 132 L 660 132 L 666 131 L 668 131 L 671 130 L 676 130 L 677 129 L 683 129 L 684 128 L 684 128 L 686 127 L 686 127 L 689 126 L 689 126 L 692 125 L 695 124 L 696 124 L 697 123 L 697 123 L 707 122 L 707 122 L 707 121 L 708 121 L 708 120 L 709 120 L 709 119 L 710 119 L 711 118 L 713 118 L 713 117 L 715 117 L 716 116 L 716 116 L 717 115 L 718 115 L 718 114 L 719 113 L 719 113 L 719 112 L 720 112 L 720 111 L 721 111 L 721 110 L 722 110 L 724 109 L 724 109 L 725 108 L 726 108 L 726 107 L 728 107 L 729 106 L 729 106 L 730 105 L 732 105 L 733 104 L 734 104 L 734 103 L 735 102 L 737 102 L 737 101 L 737 101 L 738 100 L 738 100 L 738 99 L 739 99 L 739 98 L 740 98 L 741 97 L 745 97 L 746 96 L 748 96 L 748 95 L 751 95 L 753 94 L 754 94 L 756 93 L 760 92 L 762 92 L 765 91 L 766 91 L 767 90 L 767 90 L 767 89 L 768 89 L 768 88 L 768 88 L 770 87 L 770 87 L 770 86 L 770 86 L 772 85 L 773 85 L 773 84 L 775 84 L 775 83 L 778 83 L 779 82 L 779 82 L 780 81 L 781 80 L 784 80 L 787 79 L 792 79 L 792 78 L 792 78 L 793 77 L 795 77 L 798 76 L 799 76 L 799 75 L 799 75 L 799 74 L 802 74 L 806 73 L 806 73 L 806 72 L 806 72 L 809 71 L 809 71 L 809 70 L 809 69 L 810 69 L 813 68 L 818 68 L 818 67 L 823 67 L 823 66 L 824 66 L 829 65 L 830 65 L 833 64 L 836 64 L 838 63 L 839 63 L 839 62 L 840 62 L 840 61 L 840 61 L 840 60 L 841 60 L 842 59 L 842 58 L 843 58 L 843 57 L 843 57 L 845 56 L 846 56 L 846 55 L 853 55 L 853 54 L 859 54 L 862 53 L 862 53 L 864 52 L 864 52 L 868 51 L 868 51 L 869 50 L 869 50 L 870 49 L 870 49 L 870 48 L 870 47 L 871 47 L 872 46 L 872 46 L 872 45 L 872 45 L 872 44 L 873 44 L 873 43 L 874 43 L 875 42 L 876 42 L 876 41 L 877 41 L 879 40 L 879 40 L 879 39 L 880 39 L 881 38 L 885 38 L 885 37 L 885 36 L 885 36 L 885 35 L 886 35 L 886 34 L 887 34 L 888 33 L 891 33 L 894 32 L 898 32 L 899 31 L 901 31 L 905 30 L 910 30 L 911 29 L 914 29 L 919 28 L 919 28 L 919 27 L 926 27 L 927 26 L 928 25 L 929 25 L 929 24 L 940 24 L 941 23 L 942 23 L 942 22 L 943 22 L 943 21 L 945 21 L 945 20 L 945 20" stroke-width="2" class="series" /><path class="series" d="M 58 345 L 61 344 L 81 344 L 81 343 L 81 343 L 81 342 L 81 342 L 81 341 L 81 341 L 81 340 L 82 340 L 82 339 L 82 339 L 82 338 L 82 338 L 82 337 L 82 337 L 82 336 L 82 336 L 84 335 L 84 335 L 84 334 L 86 333 L 87 333 L 87 332 L 87 332 L 87 331 L 88 331 L 91 330 L 91 330 L 92 329 L 93 329 L 100 328 L 100 328 L 100 327 L 100 327 L 100 326 L 100 326 L 103 325 L 105 325 L 106 324 L 109 324 L 114 323 L 116 322 L 124 322 L 127 321 L 131 321 L 136 320 L 138 320 L 156 319 L 157 319 L 158 318 L 160 318 L 160 317 L 160 317 L 160 316 L 160 316 L 160 315 L 160 315 L 161 314 L 161 314 L 161 313 L 161 313 L 161 312 L 161 311 L 161 311 L 161 310 L 161 310 L 161 309 L 161 309 L 161 308 L 161 308 L 161 307 L 161 307 L 161 306 L 161 306 L 161 305 L 161 305 L 161 304 L 162 304 L 162 303 L 162 303 L 162 302 L 162 302 L 162 301 L 162 300 L 162 300 L 162 299 L 162 299 L 162 298 L 162 298 L 162 297 L 162 297 L 162 296 L 162 296 L 162 295 L 162 295 L 162 294 L 162 294 L 162 293 L 163 293 L 163 292 L 163 292 L 163 291 L 163 291 L 164 290 L 165 289 L 165 289 L 165 288 L 165 288 L 165 287 L 165 287 L 165 286 L 165 286 L 165 285 L 165 285 L 165 284 L 165 284 L 165 283 L 165 283 L 165 282 L 165 282 L 165 281 L 165 281 L 167 280 L 167 280 L 167 279 L 167 278 L 171 278 L 171 277 L 171 277 L 173 276 L 173 276 L 176 275 L 179 275 L 180 274 L 182 274 L 183 273 L 185 273 L 186 272 L 186 272 L 189 271 L 189 271 L 190 270 L 192 270 L 192 269 L 194 269 L 194 268 L 194 267 L 194 267 L 196 266 L 197 266 L 197 265 L 198 265 L 199 264 L 199 264 L 200 263 L 202 263 L 203 262 L 206 262 L 207 261 L 208 261 L 209 260 L 209 260 L 209 259 L 211 259 L 219 258 L 219 258 L 221 257 L 228 256 L 228 256 L 228 255 L 228 255 L 229 254 L 230 254 L 232 253 L 233 253 L 234 252 L 243 252 L 244 251 L 246 251 L 249 250 L 251 250 L 251 249 L 252 249 L 259 248 L 266 248 L 274 247 L 274 247 L 274 246 L 275 245 L 275 245 L 277 244 L 288 244 L 292 243 L 293 243 L 297 242 L 298 242 L 298 241 L 310 241 L 310 240 L 311 240 L 311 239 L 313 239 L 316 238 L 318 238 L 320 237 L 322 237 L 324 236 L 331 236 L 331 235 L 332 234 L 333 234 L 333 233 L 333 233 L 337 232 L 344 232 L 358 231 L 364 231 L 367 230 L 367 230 L 369 229 L 370 229 L 370 228 L 370 228 L 371 227 L 371 227 L 371 226 L 371 226 L 371 225 L 371 225 L 371 224 L 371 223 L 371 223 L 371 222 L 372 222 L 372 221 L 374 221 L 375 220 L 375 220 L 375 219 L 375 219 L 377 218 L 377 218 L 377 217 L 377 217 L 377 216 L 377 216 L 377 215 L 378 215 L 379 214 L 380 214 L 380 213 L 380 212 L 380 212 L 380 211 L 381 211 L 382 210 L 382 210 L 382 209 L 383 209 L 383 208 L 383 208 L 385 207 L 386 207 L 387 206 L 389 206 L 391 205 L 391 205 L 392 204 L 393 204 L 393 203 L 393 203 L 393 202 L 395 201 L 396 201 L 398 200 L 398 200 L 399 199 L 401 199 L 403 198 L 403 198 L 406 197 L 407 197 L 407 196 L 408 196 L 408 195 L 414 195 L 415 194 L 415 194 L 419 193 L 422 193 L 426 192 L 427 192 L 428 191 L 429 190 L 429 190 L 429 189 L 433 189 L 436 188 L 437 188 L 438 187 L 439 187 L 441 186 L 441 186 L 441 185 L 441 185 L 442 184 L 442 184 L 442 183 L 444 183 L 444 182 L 444 182 L 445 181 L 450 181 L 456 180 L 456 179 L 457 179 L 461 178 L 463 178 L 464 177 L 464 177 L 466 176 L 467 176 L 467 175 L 467 175 L 467 174 L 468 174 L 468 173 L 468 173 L 469 172 L 469 172 L 470 171 L 472 171 L 472 170 L 473 170 L 473 169 L 473 168 L 473 168 L 473 167 L 474 167 L 474 166 L 474 166 L 474 165 L 474 165 L 474 164 L 479 164 L 482 163 L 482 163 L 483 162 L 496 162 L 497 161 L 501 161 L 504 160 L 512 160 L 515 159 L 518 159 L 518 158 L 518 157 L 518 157 L 518 156 L 518 156 L 518 155 L 519 155 L 520 154 L 521 154 L 531 153 L 534 153 L 538 152 L 545 152 L 551 151 L 555 151 L 558 150 L 564 150 L 564 149 L 575 149 L 587 148 L 587 148 L 595 147 L 595 146 L 602 146 L 603 145 L 606 145 L 606 144 L 607 144 L 607 143 L 611 143 L 612 142 L 616 142 L 620 141 L 621 141 L 622 140 L 623 140 L 627 139 L 632 139 L 632 138 L 637 138 L 641 137 L 642 137 L 643 136 L 645 135 L 646 135 L 647 134 L 651 134 L 654 133 L 657 133 L 660 132 L 660 132 L 666 131 L 668 131 L 671 130 L 676 130 L 677 129 L 683 129 L 684 128 L 684 128 L 686 127 L 686 127 L 689 126 L 689 126 L 692 125 L 695 124 L 696 124 L 697 123 L 697 123 L 707 122 L 707 122 L 707 121 L 708 121 L 708 120 L 709 120 L 709 119 L 710 119 L 711 118 L 713 118 L 713 117 L 715 117 L 716 116 L 716 116 L 717 115 L 718 115 L 718 114 L 719 113 L 719 113 L 719 112 L 720 112 L 720 111 L 721 111 L 721 110 L 722 110 L 724 109 L 724 109 L 725 108 L 726 108 L 726 107 L 728 107 L 729 106 L 729 106 L 730 105 L 732 105 L 733 104 L 734 104 L 734 103 L 735 102 L 737 102 L 737 101 L 737 101 L 738 100 L 738 100 L 738 99 L 739 99 L 739 98 L 740 98 L 741 97 L 745 97 L 746 96 L 748 96 L 748 95 L 751 95 L 753 94 L 754 94 L 756 93 L 760 92 L 762 92 L 765 91 L 766 91 L 767 90 L 767 90 L 767 89 L 768 89 L 768 88 L 768 88 L 770 87 L 770 87 L 770 86 L 770 86 L 772 85 L 773 85 L 773 84 L 775 84 L 775 83 L 778 83 L 779 82 L 779 82 L 780 81 L 781 80 L 784 80 L 787 79 L 792 79 L 792 78 L 792 78 L 793 77 L 795 77 L 798 76 L 799 76 L 799 75 L 799 75 L 799 74 L 802 74 L 806 73 L 806 73 L 806 72 L 806 72 L 809 71 L 809 71 L 809 70 L 809 69 L 810 69 L 813 68 L 818 68 L 818 67 L 823 67 L 823 66 L 824 66 L 829 65 L 830 65 L 833 64 L 836 64 L 838 63 L 839 63 L 839 62 L 840 62 L 840 61 L 840 61 L 840 60 L 841 60 L 842 59 L 842 58 L 843 58 L 843 57 L 843 57 L 845 56 L 846 56 L 846 55 L 853 55 L 853 54 L 859 54 L 862 53 L 862 53 L 864 52 L 864 52 L 868 51 L 868 51 L 869 50 L 869 50 L 870 49 L 870 49 L 870 48 L 870 47 L 871 47 L 872 46 L 872 46 L 872 45 L 872 45 L 872 44 L 873 44 L 873 43 L 874 43 L 875 42 L 876 42 L 876 41 L 877 41 L 879 40 L 879 40 L 879 39 L 880 39 L 881 38 L 885 38 L 885 37 L 885 36 L 885 36 L 885 35 L 886 35 L 886 34 L 887 34 L 888 33 L 891 33 L 894 32 L 898 32 L 899 31 L 901 31 L 905 30 L 910 30 L 911 29 L 914 29 L 919 28 L 919 28 L 919 27 L 926 27 L 927 26 L 928 25 L 929 25 L 929 24 L 940 24 L 941 23 L 942 23 L 942 22 L 943 22 L 943 21 L 945 21 L 945 20 L 945 20" stroke-width="2"></path><path stroke-width="2" d="M 945 346 L 945.000000 15.000000" /><path stroke-width="2" d="M 945 346 L 945.000000 15.000000"></path><path d="M 945 346 L 950 346" stroke-width="2" /><path stroke-width="2" d="M 945 346 L 950 346"></path><text xmlns="http://www.w3.org/2000/svg" x="955" y="352">0</text><path stroke-width="2" d="M 945 309 L 950 309" /><path stroke-width="2" d="M 945 309 L 950 309"></path><text x="955" y="315" xmlns="http://www.w3.org/2000/svg">70</text><path stroke-width="2" d="M 945 272 L 950 272" /><path d="M 945 272 L 950 272" stroke-width="2"></path><text xmlns="http://www.w3.org/2000/svg" x="955" y="278">140</text><path d="M 945 236 L 950 236" stroke-width="2" /><path stroke-width="2" d="M 945 236 L 950 236"></path><text xmlns="http://www.w3.org/2000/svg" x="955" y="242">210</text><path d="M 945 199 L 950 199" stroke-width="2" /><path stroke-width="2" d="M 945 199 L 950 199"></path><text xmlns="http://www.w3.org/2000/svg" x="955" y="205">280</text><path stroke-width="2" d="M 945 162 L 950 162" /><path stroke-width="2" d="M 945 162 L 950 162"></path><text xmlns="http://www.w3.org/2000/svg" x="955" y="168">350</text><path stroke-width="2" d="M 945 126 L 950 126" /><path stroke-width="2" d="M 945 126 L 950 126"></path><text xmlns="http://www.w3.org/2000/svg" x="955" y="132">420</text><path stroke-width="2" d="M 945 89 L 950 89" /><path stroke-width="2" d="M 945 89 L 950 89"></path><text xmlns="http://www.w3.org/2000/svg" x="955" y="95">490</text><path stroke-width="2" d="M 945 52 L 950 52" /><path stroke-width="2" d="M 945 52 L 950 52"></path><text xmlns="http://www.w3.org/2000/svg" x="955" y="58">560</text><path stroke-width="2" d="M 945 16 L 950 16" /><path stroke-width="2" d="M 945 16 L 950 16"></path><text xmlns="http://www.w3.org/2000/svg" x="955" y="22">630</text><text x="987" y="175" transform="rotate(90.00,987,175)" xmlns="http://www.w3.org/2000/svg">Stargazers</text><path stroke-width="2" d="M 57.000000 346.000000 L 945 346" /><path stroke-width="2" d="M 57.000000 346.000000 L 945 346"></path><path stroke-width="2" d="M 58 346 L 58 351" /><path stroke-width="2" d="M 58 346 L 58 351"></path><text xmlns="http://www.w3.org/2000/svg" x="25" y="368">2023-04-02</text><path d="M 157 346 L 157 351" stroke-width="2" /><path stroke-width="2" d="M 157 346 L 157 351"></path><text xmlns="http://www.w3.org/2000/svg" x="124" y="368">2023-06-03</text><path stroke-width="2" d="M 256 346 L 256 351" /><path d="M 256 346 L 256 351" stroke-width="2"></path><text xmlns="http://www.w3.org/2000/svg" x="223" y="368">2023-08-04</text><path stroke-width="2" d="M 354 346 L 354 351" /><path stroke-width="2" d="M 354 346 L 354 351"></path><text xmlns="http://www.w3.org/2000/svg" x="321" y="368">2023-10-05</text><path stroke-width="2" d="M 453 346 L 453 351" /><path stroke-width="2" d="M 453 346 L 453 351"></path><text xmlns="http://www.w3.org/2000/svg" x="420" y="368">2023-12-06</text><path stroke-width="2" d="M 551 346 L 551 351" /><path stroke-width="2" d="M 551 346 L 551 351"></path><text xmlns="http://www.w3.org/2000/svg" x="518" y="368">2024-02-05</text><path stroke-width="2" d="M 650 346 L 650 351" /><path stroke-width="2" d="M 650 346 L 650 351"></path><text y="368" xmlns="http://www.w3.org/2000/svg" x="617">2024-04-07</text><path stroke-width="2" d="M 748 346 L 748 351" /><path d="M 748 346 L 748 351" stroke-width="2"></path><text xmlns="http://www.w3.org/2000/svg" x="715" y="368">2024-06-08</text><path stroke-width="2" d="M 847 346 L 847 351" /><path stroke-width="2" d="M 847 346 L 847 351"></path><text xmlns="http://www.w3.org/2000/svg" x="814" y="368">2024-08-09</text><path stroke-width="2" d="M 945 346 L 945 351" /><path stroke-width="2" d="M 945 346 L 945 351"></path><text xmlns="http://www.w3.org/2000/svg" x="912" y="368">2024-10-10</text><text x="487" y="390" xmlns="http://www.w3.org/2000/svg">Time</text></svg>