<svg width="1024px" height="400px" xmlns="http://www.w3.org/2000/svg" xmlns:xlink="http://www.w3.org/1999/xlink"><style type="text/css">
path { fill: none; stroke: rgb(51,51,51); }
path.series { stroke: #6b63ff; }
rect.background { fill: rgb(255,255,255); stroke: none; }

text {
	stroke-width: 0;
	stroke: none;
	fill: rgba(51,51,51,1.0);
	font-size: 12.8px;
	font-family: 'Roboto Medium', sans-serif;
}
</style><rect x="0" y="0" width="1024px" height="400px" class="background" rx="8" /><rect x="0" y="0" width="1024px" height="400px" class="background" rx="8"></rect><path stroke-width="2" class="series" d="M 58 345 L 61 344 L 80 344 L 81 343 L 81 343 L 81 342 L 81 342 L 81 341 L 81 341 L 81 340 L 82 340 L 82 339 L 82 339 L 82 338 L 82 338 L 82 337 L 82 337 L 82 336 L 82 336 L 83 335 L 84 335 L 84 334 L 85 334 L 86 333 L 86 333 L 86 332 L 87 332 L 88 331 L 90 331 L 91 330 L 92 330 L 93 329 L 99 328 L 99 328 L 99 327 L 99 327 L 100 326 L 100 326 L 103 325 L 105 325 L 106 324 L 109 324 L 113 323 L 115 323 L 124 322 L 126 322 L 131 321 L 136 321 L 138 320 L 156 320 L 157 319 L 157 319 L 159 318 L 160 318 L 160 317 L 160 317 L 160 316 L 160 316 L 160 315 L 160 315 L 160 314 L 160 314 L 160 313 L 160 313 L 160 312 L 161 311 L 161 311 L 161 310 L 161 310 L 161 309 L 161 309 L 161 308 L 161 308 L 161 307 L 161 307 L 161 306 L 161 306 L 161 305 L 161 305 L 161 304 L 161 304 L 161 303 L 161 303 L 161 302 L 161 302 L 161 301 L 161 301 L 161 300 L 161 300 L 161 299 L 161 299 L 161 298 L 161 298 L 161 297 L 161 297 L 161 296 L 161 295 L 161 295 L 162 294 L 162 294 L 162 293 L 162 293 L 162 292 L 162 292 L 163 291 L 163 291 L 164 290 L 164 290 L 164 289 L 164 289 L 164 288 L 164 288 L 164 287 L 164 287 L 164 286 L 164 286 L 164 285 L 164 285 L 164 284 L 164 284 L 164 283 L 164 283 L 164 282 L 165 282 L 166 281 L 166 281 L 166 280 L 166 280 L 170 279 L 171 278 L 171 278 L 172 277 L 172 277 L 175 276 L 178 276 L 179 275 L 181 275 L 182 274 L 184 274 L 185 273 L 185 273 L 188 272 L 189 272 L 190 271 L 191 271 L 191 270 L 193 270 L 193 269 L 193 269 L 193 268 L 195 268 L 196 267 L 196 267 L 197 266 L 198 266 L 198 265 L 199 265 L 201 264 L 202 264 L 205 263 L 206 262 L 207 262 L 208 261 L 208 261 L 208 260 L 210 260 L 218 259 L 218 259 L 220 258 L 227 258 L 227 257 L 227 257 L 227 256 L 228 256 L 229 255 L 231 255 L 232 254 L 233 254 L 241 253 L 243 253 L 245 252 L 248 252 L 250 251 L 250 251 L 251 250 L 257 250 L 264 249 L 272 249 L 273 248 L 273 248 L 273 247 L 274 247 L 275 246 L 286 245 L 291 245 L 291 244 L 295 244 L 296 243 L 297 243 L 308 242 L 308 242 L 309 241 L 310 241 L 311 240 L 315 240 L 316 239 L 318 239 L 320 238 L 322 238 L 329 237 L 329 237 L 331 236 L 331 236 L 331 235 L 331 235 L 335 234 L 342 234 L 356 233 L 362 233 L 365 232 L 365 232 L 367 231 L 368 231 L 368 230 L 368 229 L 368 229 L 368 228 L 369 228 L 369 227 L 369 227 L 369 226 L 369 226 L 369 225 L 369 225 L 369 224 L 370 224 L 370 223 L 372 223 L 373 222 L 373 222 L 373 221 L 373 221 L 375 220 L 375 220 L 375 219 L 375 219 L 375 218 L 375 218 L 375 217 L 376 217 L 377 216 L 378 216 L 378 215 L 378 215 L 378 214 L 378 214 L 379 213 L 379 212 L 380 212 L 380 211 L 381 211 L 381 210 L 381 210 L 382 209 L 384 209 L 385 208 L 386 208 L 389 207 L 389 207 L 390 206 L 390 206 L 390 205 L 390 205 L 391 204 L 393 204 L 393 203 L 395 203 L 396 202 L 397 202 L 399 201 L 400 201 L 401 200 L 404 200 L 404 199 L 405 199 L 406 198 L 406 198 L 411 197 L 412 196 L 413 196 L 417 195 L 419 195 L 424 194 L 425 194 L 425 193 L 426 193 L 427 192 L 427 192 L 430 191 L 433 191 L 435 190 L 435 190 L 437 189 L 438 189 L 438 188 L 438 188 L 438 187 L 439 187 L 439 186 L 440 186 L 441 185 L 441 185 L 441 184 L 442 184 L 448 183 L 454 183 L 454 182 L 454 182 L 458 181 L 460 181 L 461 180 L 462 179 L 463 179 L 465 178 L 465 178 L 465 177 L 465 177 L 465 176 L 465 176 L 465 175 L 466 175 L 466 174 L 467 174 L 470 173 L 470 173 L 470 172 L 470 172 L 470 171 L 471 171 L 471 170 L 471 170 L 471 169 L 471 169 L 471 168 L 471 168 L 471 167 L 476 167 L 479 166 L 479 166 L 480 165 L 493 165 L 495 164 L 498 163 L 502 163 L 509 162 L 512 162 L 515 161 L 515 161 L 515 160 L 515 160 L 515 159 L 515 159 L 515 158 L 516 158 L 517 157 L 518 157 L 528 156 L 531 156 L 535 155 L 542 155 L 548 154 L 552 154 L 555 153 L 560 153 L 560 152 L 572 152 L 583 151 L 583 151 L 591 150 L 592 150 L 598 149 L 599 149 L 603 148 L 603 148 L 604 147 L 604 146 L 607 146 L 609 145 L 612 145 L 617 144 L 617 144 L 619 143 L 619 143 L 624 142 L 628 142 L 628 141 L 633 141 L 638 140 L 639 140 L 639 139 L 641 139 L 642 138 L 643 138 L 647 137 L 650 137 L 653 136 L 656 136 L 656 135 L 662 135 L 664 134 L 667 134 L 672 133 L 673 133 L 679 132 L 679 132 L 680 131 L 681 130 L 682 130 L 685 129 L 685 129 L 688 128 L 691 128 L 692 127 L 693 127 L 693 126 L 702 126 L 702 125 L 703 125 L 703 124 L 704 124 L 705 123 L 705 123 L 706 122 L 706 122 L 708 121 L 709 121 L 710 120 L 711 120 L 712 119 L 713 119 L 714 118 L 714 118 L 715 117 L 715 117 L 715 116 L 716 116 L 716 115 L 716 115 L 717 114 L 718 113 L 720 113 L 720 112 L 720 112 L 721 111 L 722 111 L 723 110 L 725 110 L 725 109 L 726 109 L 727 108 L 729 108 L 729 107 L 730 107 L 730 106 L 733 106 L 733 105 L 733 105 L 733 104 L 734 104 L 734 103 L 734 103 L 735 102 L 735 102 L 737 101 L 740 101 L 742 100 L 743 100 L 744 99 L 747 99 L 748 98 L 749 97 L 752 97 L 755 96 L 758 96 L 761 95 L 762 95 L 762 94 L 762 94 L 762 93 L 763 93 L 764 92 L 764 92 L 765 91 L 765 91 L 765 90 L 766 90 L 767 89 L 769 89 L 769 88 L 770 88 L 770 87 L 773 87 L 774 86 L 774 86 L 775 85 L 776 85 L 779 84 L 782 84 L 787 83 L 787 83 L 787 82 L 788 82 L 790 81 L 793 80 L 794 80 L 794 79 L 794 79 L 794 78 L 797 78 L 801 77 L 801 77 L 801 76 L 801 76 L 804 75 L 804 75 L 804 74 L 805 74 L 805 73 L 808 73 L 813 72 L 813 72 L 818 71 L 818 71 L 819 70 L 823 70 L 825 69 L 828 69 L 830 68 L 832 68 L 834 67 L 834 67 L 835 66 L 835 66 L 835 65 L 835 64 L 836 64 L 837 63 L 837 63 L 838 62 L 838 62 L 838 61 L 840 61 L 841 60 L 841 60 L 847 59 L 848 59 L 854 58 L 857 58 L 857 57 L 858 57 L 859 56 L 862 56 L 863 55 L 864 55 L 864 54 L 865 54 L 865 53 L 865 53 L 865 52 L 865 52 L 866 51 L 866 51 L 866 50 L 866 50 L 867 49 L 868 49 L 868 48 L 868 47 L 870 47 L 870 46 L 871 46 L 872 45 L 873 45 L 873 44 L 873 44 L 874 43 L 876 43 L 879 42 L 879 42 L 879 41 L 880 41 L 880 40 L 881 40 L 881 39 L 881 39 L 883 38 L 885 38 L 889 37 L 892 37 L 893 36 L 895 36 L 900 35 L 904 35 L 905 34 L 908 34 L 914 33 L 914 33 L 914 32 L 920 31 L 922 31 L 922 30 L 923 30 L 923 29 L 934 29 L 935 28 L 936 28 L 936 27 L 937 27 L 937 26 L 939 26 L 939 25 L 940 25 L 941 24 L 941 24 L 942 23 L 942 23 L 942 22 L 943 22 L 943 21 L 943 21 L 943 20 L 943 20 L 944 19 L 945 19" /><path stroke-width="2" class="series" d="M 58 345 L 61 344 L 80 344 L 81 343 L 81 343 L 81 342 L 81 342 L 81 341 L 81 341 L 81 340 L 82 340 L 82 339 L 82 339 L 82 338 L 82 338 L 82 337 L 82 337 L 82 336 L 82 336 L 83 335 L 84 335 L 84 334 L 85 334 L 86 333 L 86 333 L 86 332 L 87 332 L 88 331 L 90 331 L 91 330 L 92 330 L 93 329 L 99 328 L 99 328 L 99 327 L 99 327 L 100 326 L 100 326 L 103 325 L 105 325 L 106 324 L 109 324 L 113 323 L 115 323 L 124 322 L 126 322 L 131 321 L 136 321 L 138 320 L 156 320 L 157 319 L 157 319 L 159 318 L 160 318 L 160 317 L 160 317 L 160 316 L 160 316 L 160 315 L 160 315 L 160 314 L 160 314 L 160 313 L 160 313 L 160 312 L 161 311 L 161 311 L 161 310 L 161 310 L 161 309 L 161 309 L 161 308 L 161 308 L 161 307 L 161 307 L 161 306 L 161 306 L 161 305 L 161 305 L 161 304 L 161 304 L 161 303 L 161 303 L 161 302 L 161 302 L 161 301 L 161 301 L 161 300 L 161 300 L 161 299 L 161 299 L 161 298 L 161 298 L 161 297 L 161 297 L 161 296 L 161 295 L 161 295 L 162 294 L 162 294 L 162 293 L 162 293 L 162 292 L 162 292 L 163 291 L 163 291 L 164 290 L 164 290 L 164 289 L 164 289 L 164 288 L 164 288 L 164 287 L 164 287 L 164 286 L 164 286 L 164 285 L 164 285 L 164 284 L 164 284 L 164 283 L 164 283 L 164 282 L 165 282 L 166 281 L 166 281 L 166 280 L 166 280 L 170 279 L 171 278 L 171 278 L 172 277 L 172 277 L 175 276 L 178 276 L 179 275 L 181 275 L 182 274 L 184 274 L 185 273 L 185 273 L 188 272 L 189 272 L 190 271 L 191 271 L 191 270 L 193 270 L 193 269 L 193 269 L 193 268 L 195 268 L 196 267 L 196 267 L 197 266 L 198 266 L 198 265 L 199 265 L 201 264 L 202 264 L 205 263 L 206 262 L 207 262 L 208 261 L 208 261 L 208 260 L 210 260 L 218 259 L 218 259 L 220 258 L 227 258 L 227 257 L 227 257 L 227 256 L 228 256 L 229 255 L 231 255 L 232 254 L 233 254 L 241 253 L 243 253 L 245 252 L 248 252 L 250 251 L 250 251 L 251 250 L 257 250 L 264 249 L 272 249 L 273 248 L 273 248 L 273 247 L 274 247 L 275 246 L 286 245 L 291 245 L 291 244 L 295 244 L 296 243 L 297 243 L 308 242 L 308 242 L 309 241 L 310 241 L 311 240 L 315 240 L 316 239 L 318 239 L 320 238 L 322 238 L 329 237 L 329 237 L 331 236 L 331 236 L 331 235 L 331 235 L 335 234 L 342 234 L 356 233 L 362 233 L 365 232 L 365 232 L 367 231 L 368 231 L 368 230 L 368 229 L 368 229 L 368 228 L 369 228 L 369 227 L 369 227 L 369 226 L 369 226 L 369 225 L 369 225 L 369 224 L 370 224 L 370 223 L 372 223 L 373 222 L 373 222 L 373 221 L 373 221 L 375 220 L 375 220 L 375 219 L 375 219 L 375 218 L 375 218 L 375 217 L 376 217 L 377 216 L 378 216 L 378 215 L 378 215 L 378 214 L 378 214 L 379 213 L 379 212 L 380 212 L 380 211 L 381 211 L 381 210 L 381 210 L 382 209 L 384 209 L 385 208 L 386 208 L 389 207 L 389 207 L 390 206 L 390 206 L 390 205 L 390 205 L 391 204 L 393 204 L 393 203 L 395 203 L 396 202 L 397 202 L 399 201 L 400 201 L 401 200 L 404 200 L 404 199 L 405 199 L 406 198 L 406 198 L 411 197 L 412 196 L 413 196 L 417 195 L 419 195 L 424 194 L 425 194 L 425 193 L 426 193 L 427 192 L 427 192 L 430 191 L 433 191 L 435 190 L 435 190 L 437 189 L 438 189 L 438 188 L 438 188 L 438 187 L 439 187 L 439 186 L 440 186 L 441 185 L 441 185 L 441 184 L 442 184 L 448 183 L 454 183 L 454 182 L 454 182 L 458 181 L 460 181 L 461 180 L 462 179 L 463 179 L 465 178 L 465 178 L 465 177 L 465 177 L 465 176 L 465 176 L 465 175 L 466 175 L 466 174 L 467 174 L 470 173 L 470 173 L 470 172 L 470 172 L 470 171 L 471 171 L 471 170 L 471 170 L 471 169 L 471 169 L 471 168 L 471 168 L 471 167 L 476 167 L 479 166 L 479 166 L 480 165 L 493 165 L 495 164 L 498 163 L 502 163 L 509 162 L 512 162 L 515 161 L 515 161 L 515 160 L 515 160 L 515 159 L 515 159 L 515 158 L 516 158 L 517 157 L 518 157 L 528 156 L 531 156 L 535 155 L 542 155 L 548 154 L 552 154 L 555 153 L 560 153 L 560 152 L 572 152 L 583 151 L 583 151 L 591 150 L 592 150 L 598 149 L 599 149 L 603 148 L 603 148 L 604 147 L 604 146 L 607 146 L 609 145 L 612 145 L 617 144 L 617 144 L 619 143 L 619 143 L 624 142 L 628 142 L 628 141 L 633 141 L 638 140 L 639 140 L 639 139 L 641 139 L 642 138 L 643 138 L 647 137 L 650 137 L 653 136 L 656 136 L 656 135 L 662 135 L 664 134 L 667 134 L 672 133 L 673 133 L 679 132 L 679 132 L 680 131 L 681 130 L 682 130 L 685 129 L 685 129 L 688 128 L 691 128 L 692 127 L 693 127 L 693 126 L 702 126 L 702 125 L 703 125 L 703 124 L 704 124 L 705 123 L 705 123 L 706 122 L 706 122 L 708 121 L 709 121 L 710 120 L 711 120 L 712 119 L 713 119 L 714 118 L 714 118 L 715 117 L 715 117 L 715 116 L 716 116 L 716 115 L 716 115 L 717 114 L 718 113 L 720 113 L 720 112 L 720 112 L 721 111 L 722 111 L 723 110 L 725 110 L 725 109 L 726 109 L 727 108 L 729 108 L 729 107 L 730 107 L 730 106 L 733 106 L 733 105 L 733 105 L 733 104 L 734 104 L 734 103 L 734 103 L 735 102 L 735 102 L 737 101 L 740 101 L 742 100 L 743 100 L 744 99 L 747 99 L 748 98 L 749 97 L 752 97 L 755 96 L 758 96 L 761 95 L 762 95 L 762 94 L 762 94 L 762 93 L 763 93 L 764 92 L 764 92 L 765 91 L 765 91 L 765 90 L 766 90 L 767 89 L 769 89 L 769 88 L 770 88 L 770 87 L 773 87 L 774 86 L 774 86 L 775 85 L 776 85 L 779 84 L 782 84 L 787 83 L 787 83 L 787 82 L 788 82 L 790 81 L 793 80 L 794 80 L 794 79 L 794 79 L 794 78 L 797 78 L 801 77 L 801 77 L 801 76 L 801 76 L 804 75 L 804 75 L 804 74 L 805 74 L 805 73 L 808 73 L 813 72 L 813 72 L 818 71 L 818 71 L 819 70 L 823 70 L 825 69 L 828 69 L 830 68 L 832 68 L 834 67 L 834 67 L 835 66 L 835 66 L 835 65 L 835 64 L 836 64 L 837 63 L 837 63 L 838 62 L 838 62 L 838 61 L 840 61 L 841 60 L 841 60 L 847 59 L 848 59 L 854 58 L 857 58 L 857 57 L 858 57 L 859 56 L 862 56 L 863 55 L 864 55 L 864 54 L 865 54 L 865 53 L 865 53 L 865 52 L 865 52 L 866 51 L 866 51 L 866 50 L 866 50 L 867 49 L 868 49 L 868 48 L 868 47 L 870 47 L 870 46 L 871 46 L 872 45 L 873 45 L 873 44 L 873 44 L 874 43 L 876 43 L 879 42 L 879 42 L 879 41 L 880 41 L 880 40 L 881 40 L 881 39 L 881 39 L 883 38 L 885 38 L 889 37 L 892 37 L 893 36 L 895 36 L 900 35 L 904 35 L 905 34 L 908 34 L 914 33 L 914 33 L 914 32 L 920 31 L 922 31 L 922 30 L 923 30 L 923 29 L 934 29 L 935 28 L 936 28 L 936 27 L 937 27 L 937 26 L 939 26 L 939 25 L 940 25 L 941 24 L 941 24 L 942 23 L 942 23 L 942 22 L 943 22 L 943 21 L 943 21 L 943 20 L 943 20 L 944 19 L 945 19"></path><path stroke-width="2" d="M 945 346 L 945.000000 15.000000" /><path d="M 945 346 L 945.000000 15.000000" stroke-width="2"></path><path stroke-width="2" d="M 945 346 L 950 346" /><path stroke-width="2" d="M 945 346 L 950 346"></path><text xmlns="http://www.w3.org/2000/svg" x="955" y="352">0</text><path stroke-width="2" d="M 945 308 L 950 308" /><path stroke-width="2" d="M 945 308 L 950 308"></path><text xmlns="http://www.w3.org/2000/svg" x="955" y="314">72</text><path stroke-width="2" d="M 945 272 L 950 272" /><path stroke-width="2" d="M 945 272 L 950 272"></path><text xmlns="http://www.w3.org/2000/svg" x="955" y="278">143</text><path stroke-width="2" d="M 945 235 L 950 235" /><path stroke-width="2" d="M 945 235 L 950 235"></path><text xmlns="http://www.w3.org/2000/svg" x="955" y="241">214</text><path stroke-width="2" d="M 945 199 L 950 199" /><path stroke-width="2" d="M 945 199 L 950 199"></path><text xmlns="http://www.w3.org/2000/svg" x="955" y="205">285</text><path stroke-width="2" d="M 945 162 L 950 162" /><path stroke-width="2" d="M 945 162 L 950 162"></path><text xmlns="http://www.w3.org/2000/svg" x="955" y="168">356</text><path stroke-width="2" d="M 945 125 L 950 125" /><path stroke-width="2" d="M 945 125 L 950 125"></path><text xmlns="http://www.w3.org/2000/svg" x="955" y="131">427</text><path stroke-width="2" d="M 945 89 L 950 89" /><path stroke-width="2" d="M 945 89 L 950 89"></path><text y="95" xmlns="http://www.w3.org/2000/svg" x="955">498</text><path stroke-width="2" d="M 945 52 L 950 52" /><path d="M 945 52 L 950 52" stroke-width="2"></path><text xmlns="http://www.w3.org/2000/svg" x="955" y="58">569</text><path stroke-width="2" d="M 945 16 L 950 16" /><path stroke-width="2" d="M 945 16 L 950 16"></path><text xmlns="http://www.w3.org/2000/svg" x="955" y="22">640</text><text x="987" y="175" transform="rotate(90.00,987,175)" xmlns="http://www.w3.org/2000/svg">Stargazers</text><path stroke-width="2" d="M 57.000000 346.000000 L 945 346" /><path stroke-width="2" d="M 57.000000 346.000000 L 945 346"></path><path stroke-width="2" d="M 58 346 L 58 351" /><path stroke-width="2" d="M 58 346 L 58 351"></path><text xmlns="http://www.w3.org/2000/svg" x="25" y="368">2023-04-02</text><path stroke-width="2" d="M 157 346 L 157 351" /><path stroke-width="2" d="M 157 346 L 157 351"></path><text xmlns="http://www.w3.org/2000/svg" x="124" y="368">2023-06-03</text><path stroke-width="2" d="M 256 346 L 256 351" /><path d="M 256 346 L 256 351" stroke-width="2"></path><text x="223" y="368" xmlns="http://www.w3.org/2000/svg">2023-08-05</text><path stroke-width="2" d="M 354 346 L 354 351" /><path stroke-width="2" d="M 354 346 L 354 351"></path><text xmlns="http://www.w3.org/2000/svg" x="321" y="368">2023-10-06</text><path d="M 453 346 L 453 351" stroke-width="2" /><path stroke-width="2" d="M 453 346 L 453 351"></path><text xmlns="http://www.w3.org/2000/svg" x="420" y="368">2023-12-07</text><path stroke-width="2" d="M 551 346 L 551 351" /><path stroke-width="2" d="M 551 346 L 551 351"></path><text y="368" xmlns="http://www.w3.org/2000/svg" x="518">2024-02-07</text><path stroke-width="2" d="M 650 346 L 650 351" /><path stroke-width="2" d="M 650 346 L 650 351"></path><text y="368" xmlns="http://www.w3.org/2000/svg" x="617">2024-04-10</text><path d="M 748 346 L 748 351" stroke-width="2" /><path stroke-width="2" d="M 748 346 L 748 351"></path><text x="715" y="368" xmlns="http://www.w3.org/2000/svg">2024-06-11</text><path stroke-width="2" d="M 847 346 L 847 351" /><path stroke-width="2" d="M 847 346 L 847 351"></path><text y="368" xmlns="http://www.w3.org/2000/svg" x="814">2024-08-12</text><path stroke-width="2" d="M 945 346 L 945 351" /><path stroke-width="2" d="M 945 346 L 945 351"></path><text xmlns="http://www.w3.org/2000/svg" x="912" y="368">2024-10-14</text><text xmlns="http://www.w3.org/2000/svg" x="487" y="390">Time</text></svg>