<svg xmlns="http://www.w3.org/2000/svg" xmlns:xlink="http://www.w3.org/1999/xlink" width="1024px" height="400px"><style type="text/css">
path { fill: none; stroke: rgb(51,51,51); }
path.series { stroke: #6b63ff; }
rect.background { fill: rgb(255,255,255); stroke: none; }

text {
	stroke-width: 0;
	stroke: none;
	fill: rgba(51,51,51,1.0);
	font-size: 12.8px;
	font-family: 'Roboto Medium', sans-serif;
}
</style><rect x="0" y="0" width="1024px" height="400px" class="background" rx="8" /><rect x="0" y="0" width="1024px" height="400px" class="background" rx="8"></rect><path stroke-width="2" class="series" d="M 58 345 L 61 345 L 80 344 L 80 344 L 80 343 L 80 343 L 80 342 L 80 342 L 80 341 L 80 341 L 81 340 L 81 340 L 81 339 L 81 339 L 81 338 L 81 338 L 81 337 L 82 337 L 82 336 L 83 336 L 83 335 L 83 335 L 85 334 L 86 334 L 86 333 L 86 333 L 86 332 L 87 332 L 89 331 L 90 331 L 91 330 L 92 330 L 98 329 L 98 329 L 98 329 L 98 328 L 98 328 L 99 327 L 102 327 L 103 326 L 104 326 L 107 325 L 112 325 L 114 324 L 122 324 L 125 323 L 129 323 L 134 322 L 136 322 L 153 321 L 154 321 L 154 320 L 157 320 L 157 319 L 157 319 L 157 318 L 157 318 L 157 317 L 157 317 L 157 316 L 157 316 L 157 315 L 157 315 L 157 314 L 158 314 L 158 313 L 158 313 L 158 313 L 158 312 L 158 312 L 158 311 L 158 311 L 158 310 L 158 310 L 158 309 L 158 309 L 158 308 L 158 308 L 158 307 L 158 307 L 158 306 L 158 306 L 158 305 L 158 305 L 158 304 L 158 304 L 158 303 L 158 303 L 158 302 L 158 302 L 158 301 L 158 301 L 158 300 L 158 300 L 159 299 L 159 299 L 159 298 L 159 298 L 159 297 L 159 297 L 159 296 L 160 296 L 160 296 L 160 295 L 160 295 L 160 294 L 161 294 L 161 293 L 161 293 L 161 292 L 161 292 L 161 291 L 161 291 L 161 290 L 161 290 L 161 289 L 161 289 L 161 288 L 161 288 L 161 287 L 161 287 L 161 286 L 162 286 L 162 285 L 163 285 L 163 284 L 163 284 L 163 283 L 167 283 L 168 282 L 168 282 L 169 281 L 169 281 L 172 280 L 175 280 L 176 280 L 178 279 L 179 279 L 181 278 L 182 278 L 182 277 L 185 277 L 185 276 L 186 276 L 187 275 L 188 275 L 189 274 L 189 274 L 189 273 L 190 273 L 191 272 L 193 272 L 193 271 L 194 271 L 194 270 L 194 270 L 195 269 L 197 269 L 199 268 L 201 268 L 202 267 L 203 267 L 204 266 L 204 266 L 205 265 L 206 265 L 214 264 L 214 264 L 215 263 L 223 263 L 223 263 L 223 262 L 223 262 L 223 261 L 224 261 L 227 260 L 228 260 L 228 259 L 237 259 L 238 258 L 240 258 L 243 257 L 245 257 L 245 256 L 246 256 L 252 255 L 259 255 L 267 254 L 267 254 L 267 253 L 268 253 L 268 252 L 270 252 L 280 251 L 285 251 L 285 250 L 289 250 L 290 249 L 291 249 L 302 248 L 302 248 L 303 247 L 303 247 L 305 247 L 308 246 L 309 246 L 312 245 L 313 245 L 316 244 L 322 244 L 322 243 L 324 243 L 324 242 L 324 242 L 324 241 L 328 241 L 334 240 L 348 240 L 354 239 L 357 239 L 357 238 L 359 238 L 360 237 L 360 237 L 360 236 L 360 236 L 360 235 L 360 235 L 361 234 L 361 234 L 361 233 L 361 233 L 361 232 L 361 232 L 361 231 L 362 231 L 362 230 L 364 230 L 365 230 L 365 229 L 365 229 L 365 228 L 367 228 L 367 227 L 367 227 L 367 226 L 367 226 L 367 225 L 367 225 L 368 224 L 369 224 L 369 223 L 370 223 L 370 222 L 370 222 L 370 221 L 371 221 L 371 220 L 371 220 L 371 219 L 372 219 L 373 218 L 373 218 L 374 217 L 375 217 L 376 216 L 378 216 L 381 215 L 381 215 L 382 214 L 382 214 L 382 214 L 382 213 L 382 213 L 384 212 L 385 212 L 387 211 L 387 211 L 388 210 L 390 210 L 392 209 L 392 209 L 395 208 L 395 208 L 396 207 L 397 207 L 397 206 L 402 206 L 403 205 L 404 205 L 408 204 L 410 204 L 414 203 L 415 203 L 416 202 L 417 202 L 417 201 L 417 201 L 421 200 L 423 200 L 425 199 L 425 199 L 427 198 L 428 198 L 429 197 L 429 197 L 429 197 L 429 196 L 430 196 L 430 195 L 431 195 L 431 194 L 431 194 L 432 193 L 437 193 L 444 192 L 444 192 L 444 191 L 448 191 L 450 190 L 451 190 L 451 189 L 453 189 L 454 188 L 454 188 L 454 187 L 454 187 L 454 186 L 455 186 L 455 185 L 455 185 L 455 184 L 456 184 L 459 183 L 459 183 L 459 182 L 459 182 L 460 181 L 460 181 L 460 181 L 460 180 L 460 180 L 460 179 L 460 179 L 460 178 L 461 178 L 465 177 L 468 177 L 468 176 L 469 176 L 482 175 L 483 175 L 487 174 L 490 174 L 498 173 L 500 173 L 503 172 L 503 172 L 503 171 L 503 171 L 504 170 L 504 170 L 504 169 L 504 169 L 505 168 L 506 168 L 516 167 L 519 167 L 522 166 L 530 166 L 535 165 L 539 165 L 542 164 L 547 164 L 548 164 L 559 163 L 570 163 L 570 162 L 578 162 L 578 161 L 584 161 L 585 160 L 589 160 L 589 159 L 590 159 L 590 158 L 593 158 L 595 157 L 598 157 L 602 156 L 603 156 L 604 155 L 605 155 L 609 154 L 613 154 L 613 153 L 618 153 L 623 152 L 624 152 L 624 151 L 626 151 L 627 150 L 628 150 L 632 149 L 635 149 L 638 148 L 641 148 L 641 148 L 647 147 L 648 147 L 651 146 L 657 146 L 657 145 L 663 145 L 663 144 L 664 144 L 665 143 L 666 143 L 668 142 L 669 142 L 671 141 L 675 141 L 676 140 L 676 140 L 677 139 L 686 139 L 686 138 L 687 138 L 687 137 L 687 137 L 688 136 L 688 136 L 689 135 L 690 135 L 692 134 L 692 134 L 694 133 L 694 133 L 695 132 L 696 132 L 697 131 L 697 131 L 698 131 L 698 130 L 698 130 L 699 129 L 699 129 L 699 128 L 700 128 L 701 127 L 703 127 L 703 126 L 703 126 L 704 125 L 704 125 L 706 124 L 707 124 L 708 123 L 708 123 L 710 122 L 712 122 L 712 121 L 712 121 L 713 120 L 715 120 L 715 119 L 715 119 L 716 118 L 716 118 L 716 117 L 717 117 L 717 116 L 718 116 L 719 115 L 723 115 L 724 115 L 726 114 L 726 114 L 729 113 L 731 113 L 731 112 L 734 112 L 737 111 L 740 111 L 743 110 L 744 110 L 744 109 L 744 109 L 744 108 L 745 108 L 745 107 L 745 107 L 747 106 L 747 106 L 747 105 L 747 105 L 749 104 L 750 104 L 750 103 L 751 103 L 752 102 L 755 102 L 755 101 L 755 101 L 757 100 L 758 100 L 761 99 L 764 99 L 769 98 L 769 98 L 769 98 L 769 97 L 771 97 L 774 96 L 775 96 L 775 95 L 775 95 L 775 94 L 778 94 L 781 93 L 782 93 L 782 92 L 782 92 L 785 91 L 785 91 L 785 90 L 785 90 L 786 89 L 789 89 L 793 88 L 793 88 L 798 87 L 798 87 L 799 86 L 804 86 L 805 85 L 808 85 L 811 84 L 812 84 L 814 83 L 814 83 L 815 82 L 815 82 L 815 82 L 815 81 L 816 81 L 817 80 L 817 80 L 818 79 L 818 79 L 818 78 L 819 78 L 821 77 L 821 77 L 827 76 L 828 76 L 834 75 L 836 75 L 837 74 L 838 74 L 838 73 L 842 73 L 842 72 L 843 72 L 843 71 L 844 71 L 844 70 L 844 70 L 844 69 L 844 69 L 845 68 L 845 68 L 845 67 L 846 67 L 846 66 L 847 66 L 847 65 L 847 65 L 849 65 L 849 64 L 850 64 L 851 63 L 852 63 L 852 62 L 852 62 L 853 61 L 855 61 L 858 60 L 858 60 L 858 59 L 858 59 L 858 58 L 860 58 L 860 57 L 860 57 L 861 56 L 864 56 L 867 55 L 871 55 L 872 54 L 874 54 L 878 53 L 883 53 L 883 52 L 886 52 L 891 51 L 892 51 L 892 50 L 898 50 L 899 49 L 900 49 L 901 49 L 901 48 L 912 48 L 912 47 L 913 47 L 913 46 L 914 46 L 915 45 L 916 45 L 917 44 L 917 44 L 918 43 L 918 43 L 919 42 L 919 42 L 920 41 L 920 41 L 920 40 L 920 40 L 920 39 L 920 39 L 922 38 L 923 38 L 924 37 L 925 37 L 925 36 L 926 36 L 926 35 L 927 35 L 928 34 L 929 34 L 929 33 L 931 33 L 931 32 L 931 32 L 931 32 L 933 31 L 934 31 L 935 30 L 935 30 L 936 29 L 937 29 L 938 28 L 938 28 L 938 27 L 938 27 L 939 26 L 940 26 L 940 25 L 941 25 L 942 24 L 943 24 L 944 23 L 944 23 L 944 22 L 944 22 L 945 21 L 945 21 L 945 20 L 945 20" /><path stroke-width="2" class="series" d="M 58 345 L 61 345 L 80 344 L 80 344 L 80 343 L 80 343 L 80 342 L 80 342 L 80 341 L 80 341 L 81 340 L 81 340 L 81 339 L 81 339 L 81 338 L 81 338 L 81 337 L 82 337 L 82 336 L 83 336 L 83 335 L 83 335 L 85 334 L 86 334 L 86 333 L 86 333 L 86 332 L 87 332 L 89 331 L 90 331 L 91 330 L 92 330 L 98 329 L 98 329 L 98 329 L 98 328 L 98 328 L 99 327 L 102 327 L 103 326 L 104 326 L 107 325 L 112 325 L 114 324 L 122 324 L 125 323 L 129 323 L 134 322 L 136 322 L 153 321 L 154 321 L 154 320 L 157 320 L 157 319 L 157 319 L 157 318 L 157 318 L 157 317 L 157 317 L 157 316 L 157 316 L 157 315 L 157 315 L 157 314 L 158 314 L 158 313 L 158 313 L 158 313 L 158 312 L 158 312 L 158 311 L 158 311 L 158 310 L 158 310 L 158 309 L 158 309 L 158 308 L 158 308 L 158 307 L 158 307 L 158 306 L 158 306 L 158 305 L 158 305 L 158 304 L 158 304 L 158 303 L 158 303 L 158 302 L 158 302 L 158 301 L 158 301 L 158 300 L 158 300 L 159 299 L 159 299 L 159 298 L 159 298 L 159 297 L 159 297 L 159 296 L 160 296 L 160 296 L 160 295 L 160 295 L 160 294 L 161 294 L 161 293 L 161 293 L 161 292 L 161 292 L 161 291 L 161 291 L 161 290 L 161 290 L 161 289 L 161 289 L 161 288 L 161 288 L 161 287 L 161 287 L 161 286 L 162 286 L 162 285 L 163 285 L 163 284 L 163 284 L 163 283 L 167 283 L 168 282 L 168 282 L 169 281 L 169 281 L 172 280 L 175 280 L 176 280 L 178 279 L 179 279 L 181 278 L 182 278 L 182 277 L 185 277 L 185 276 L 186 276 L 187 275 L 188 275 L 189 274 L 189 274 L 189 273 L 190 273 L 191 272 L 193 272 L 193 271 L 194 271 L 194 270 L 194 270 L 195 269 L 197 269 L 199 268 L 201 268 L 202 267 L 203 267 L 204 266 L 204 266 L 205 265 L 206 265 L 214 264 L 214 264 L 215 263 L 223 263 L 223 263 L 223 262 L 223 262 L 223 261 L 224 261 L 227 260 L 228 260 L 228 259 L 237 259 L 238 258 L 240 258 L 243 257 L 245 257 L 245 256 L 246 256 L 252 255 L 259 255 L 267 254 L 267 254 L 267 253 L 268 253 L 268 252 L 270 252 L 280 251 L 285 251 L 285 250 L 289 250 L 290 249 L 291 249 L 302 248 L 302 248 L 303 247 L 303 247 L 305 247 L 308 246 L 309 246 L 312 245 L 313 245 L 316 244 L 322 244 L 322 243 L 324 243 L 324 242 L 324 242 L 324 241 L 328 241 L 334 240 L 348 240 L 354 239 L 357 239 L 357 238 L 359 238 L 360 237 L 360 237 L 360 236 L 360 236 L 360 235 L 360 235 L 361 234 L 361 234 L 361 233 L 361 233 L 361 232 L 361 232 L 361 231 L 362 231 L 362 230 L 364 230 L 365 230 L 365 229 L 365 229 L 365 228 L 367 228 L 367 227 L 367 227 L 367 226 L 367 226 L 367 225 L 367 225 L 368 224 L 369 224 L 369 223 L 370 223 L 370 222 L 370 222 L 370 221 L 371 221 L 371 220 L 371 220 L 371 219 L 372 219 L 373 218 L 373 218 L 374 217 L 375 217 L 376 216 L 378 216 L 381 215 L 381 215 L 382 214 L 382 214 L 382 214 L 382 213 L 382 213 L 384 212 L 385 212 L 387 211 L 387 211 L 388 210 L 390 210 L 392 209 L 392 209 L 395 208 L 395 208 L 396 207 L 397 207 L 397 206 L 402 206 L 403 205 L 404 205 L 408 204 L 410 204 L 414 203 L 415 203 L 416 202 L 417 202 L 417 201 L 417 201 L 421 200 L 423 200 L 425 199 L 425 199 L 427 198 L 428 198 L 429 197 L 429 197 L 429 197 L 429 196 L 430 196 L 430 195 L 431 195 L 431 194 L 431 194 L 432 193 L 437 193 L 444 192 L 444 192 L 444 191 L 448 191 L 450 190 L 451 190 L 451 189 L 453 189 L 454 188 L 454 188 L 454 187 L 454 187 L 454 186 L 455 186 L 455 185 L 455 185 L 455 184 L 456 184 L 459 183 L 459 183 L 459 182 L 459 182 L 460 181 L 460 181 L 460 181 L 460 180 L 460 180 L 460 179 L 460 179 L 460 178 L 461 178 L 465 177 L 468 177 L 468 176 L 469 176 L 482 175 L 483 175 L 487 174 L 490 174 L 498 173 L 500 173 L 503 172 L 503 172 L 503 171 L 503 171 L 504 170 L 504 170 L 504 169 L 504 169 L 505 168 L 506 168 L 516 167 L 519 167 L 522 166 L 530 166 L 535 165 L 539 165 L 542 164 L 547 164 L 548 164 L 559 163 L 570 163 L 570 162 L 578 162 L 578 161 L 584 161 L 585 160 L 589 160 L 589 159 L 590 159 L 590 158 L 593 158 L 595 157 L 598 157 L 602 156 L 603 156 L 604 155 L 605 155 L 609 154 L 613 154 L 613 153 L 618 153 L 623 152 L 624 152 L 624 151 L 626 151 L 627 150 L 628 150 L 632 149 L 635 149 L 638 148 L 641 148 L 641 148 L 647 147 L 648 147 L 651 146 L 657 146 L 657 145 L 663 145 L 663 144 L 664 144 L 665 143 L 666 143 L 668 142 L 669 142 L 671 141 L 675 141 L 676 140 L 676 140 L 677 139 L 686 139 L 686 138 L 687 138 L 687 137 L 687 137 L 688 136 L 688 136 L 689 135 L 690 135 L 692 134 L 692 134 L 694 133 L 694 133 L 695 132 L 696 132 L 697 131 L 697 131 L 698 131 L 698 130 L 698 130 L 699 129 L 699 129 L 699 128 L 700 128 L 701 127 L 703 127 L 703 126 L 703 126 L 704 125 L 704 125 L 706 124 L 707 124 L 708 123 L 708 123 L 710 122 L 712 122 L 712 121 L 712 121 L 713 120 L 715 120 L 715 119 L 715 119 L 716 118 L 716 118 L 716 117 L 717 117 L 717 116 L 718 116 L 719 115 L 723 115 L 724 115 L 726 114 L 726 114 L 729 113 L 731 113 L 731 112 L 734 112 L 737 111 L 740 111 L 743 110 L 744 110 L 744 109 L 744 109 L 744 108 L 745 108 L 745 107 L 745 107 L 747 106 L 747 106 L 747 105 L 747 105 L 749 104 L 750 104 L 750 103 L 751 103 L 752 102 L 755 102 L 755 101 L 755 101 L 757 100 L 758 100 L 761 99 L 764 99 L 769 98 L 769 98 L 769 98 L 769 97 L 771 97 L 774 96 L 775 96 L 775 95 L 775 95 L 775 94 L 778 94 L 781 93 L 782 93 L 782 92 L 782 92 L 785 91 L 785 91 L 785 90 L 785 90 L 786 89 L 789 89 L 793 88 L 793 88 L 798 87 L 798 87 L 799 86 L 804 86 L 805 85 L 808 85 L 811 84 L 812 84 L 814 83 L 814 83 L 815 82 L 815 82 L 815 82 L 815 81 L 816 81 L 817 80 L 817 80 L 818 79 L 818 79 L 818 78 L 819 78 L 821 77 L 821 77 L 827 76 L 828 76 L 834 75 L 836 75 L 837 74 L 838 74 L 838 73 L 842 73 L 842 72 L 843 72 L 843 71 L 844 71 L 844 70 L 844 70 L 844 69 L 844 69 L 845 68 L 845 68 L 845 67 L 846 67 L 846 66 L 847 66 L 847 65 L 847 65 L 849 65 L 849 64 L 850 64 L 851 63 L 852 63 L 852 62 L 852 62 L 853 61 L 855 61 L 858 60 L 858 60 L 858 59 L 858 59 L 858 58 L 860 58 L 860 57 L 860 57 L 861 56 L 864 56 L 867 55 L 871 55 L 872 54 L 874 54 L 878 53 L 883 53 L 883 52 L 886 52 L 891 51 L 892 51 L 892 50 L 898 50 L 899 49 L 900 49 L 901 49 L 901 48 L 912 48 L 912 47 L 913 47 L 913 46 L 914 46 L 915 45 L 916 45 L 917 44 L 917 44 L 918 43 L 918 43 L 919 42 L 919 42 L 920 41 L 920 41 L 920 40 L 920 40 L 920 39 L 920 39 L 922 38 L 923 38 L 924 37 L 925 37 L 925 36 L 926 36 L 926 35 L 927 35 L 928 34 L 929 34 L 929 33 L 931 33 L 931 32 L 931 32 L 931 32 L 933 31 L 934 31 L 935 30 L 935 30 L 936 29 L 937 29 L 938 28 L 938 28 L 938 27 L 938 27 L 939 26 L 940 26 L 940 25 L 941 25 L 942 24 L 943 24 L 944 23 L 944 23 L 944 22 L 944 22 L 945 21 L 945 21 L 945 20 L 945 20"></path><path stroke-width="2" d="M 945 346 L 945.000000 15.000000" /><path stroke-width="2" d="M 945 346 L 945.000000 15.000000"></path><path stroke-width="2" d="M 945 346 L 950 346" /><path stroke-width="2" d="M 945 346 L 950 346"></path><text xmlns="http://www.w3.org/2000/svg" x="955" y="352">0</text><path stroke-width="2" d="M 945 309 L 950 309" /><path stroke-width="2" d="M 945 309 L 950 309"></path><text xmlns="http://www.w3.org/2000/svg" x="955" y="315">76</text><path stroke-width="2" d="M 945 272 L 950 272" /><path stroke-width="2" d="M 945 272 L 950 272"></path><text xmlns="http://www.w3.org/2000/svg" x="955" y="278">152</text><path stroke-width="2" d="M 945 235 L 950 235" /><path stroke-width="2" d="M 945 235 L 950 235"></path><text x="955" y="241" xmlns="http://www.w3.org/2000/svg">227</text><path stroke-width="2" d="M 945 198 L 950 198" /><path stroke-width="2" d="M 945 198 L 950 198"></path><text xmlns="http://www.w3.org/2000/svg" x="955" y="204">303</text><path stroke-width="2" d="M 945 162 L 950 162" /><path stroke-width="2" d="M 945 162 L 950 162"></path><text xmlns="http://www.w3.org/2000/svg" x="955" y="168">378</text><path stroke-width="2" d="M 945 125 L 950 125" /><path stroke-width="2" d="M 945 125 L 950 125"></path><text xmlns="http://www.w3.org/2000/svg" x="955" y="131">454</text><path stroke-width="2" d="M 945 89 L 950 89" /><path d="M 945 89 L 950 89" stroke-width="2"></path><text xmlns="http://www.w3.org/2000/svg" x="955" y="95">529</text><path stroke-width="2" d="M 945 52 L 950 52" /><path stroke-width="2" d="M 945 52 L 950 52"></path><text xmlns="http://www.w3.org/2000/svg" x="955" y="58">605</text><path stroke-width="2" d="M 945 16 L 950 16" /><path stroke-width="2" d="M 945 16 L 950 16"></path><text xmlns="http://www.w3.org/2000/svg" x="955" y="22">680</text><text x="987" y="175" transform="rotate(90.00,987,175)" xmlns="http://www.w3.org/2000/svg">Stargazers</text><path stroke-width="2" d="M 57.000000 346.000000 L 945 346" /><path stroke-width="2" d="M 57.000000 346.000000 L 945 346"></path><path stroke-width="2" d="M 58 346 L 58 351" /><path stroke-width="2" d="M 58 346 L 58 351"></path><text xmlns="http://www.w3.org/2000/svg" x="25" y="368">2023-04-02</text><path stroke-width="2" d="M 157 346 L 157 351" /><path stroke-width="2" d="M 157 346 L 157 351"></path><text xmlns="http://www.w3.org/2000/svg" x="124" y="368">2023-06-05</text><path stroke-width="2" d="M 256 346 L 256 351" /><path stroke-width="2" d="M 256 346 L 256 351"></path><text xmlns="http://www.w3.org/2000/svg" x="223" y="368">2023-08-08</text><path d="M 354 346 L 354 351" stroke-width="2" /><path stroke-width="2" d="M 354 346 L 354 351"></path><text xmlns="http://www.w3.org/2000/svg" x="321" y="368">2023-10-11</text><path stroke-width="2" d="M 453 346 L 453 351" /><path stroke-width="2" d="M 453 346 L 453 351"></path><text xmlns="http://www.w3.org/2000/svg" x="420" y="368">2023-12-14</text><path stroke-width="2" d="M 551 346 L 551 351" /><path stroke-width="2" d="M 551 346 L 551 351"></path><text xmlns="http://www.w3.org/2000/svg" x="518" y="368">2024-02-16</text><path stroke-width="2" d="M 650 346 L 650 351" /><path stroke-width="2" d="M 650 346 L 650 351"></path><text xmlns="http://www.w3.org/2000/svg" x="617" y="368">2024-04-20</text><path stroke-width="2" d="M 748 346 L 748 351" /><path stroke-width="2" d="M 748 346 L 748 351"></path><text xmlns="http://www.w3.org/2000/svg" x="715" y="368">2024-06-23</text><path stroke-width="2" d="M 847 346 L 847 351" /><path stroke-width="2" d="M 847 346 L 847 351"></path><text xmlns="http://www.w3.org/2000/svg" x="814" y="368">2024-08-26</text><path stroke-width="2" d="M 945 346 L 945 351" /><path stroke-width="2" d="M 945 346 L 945 351"></path><text x="912" y="368" xmlns="http://www.w3.org/2000/svg">2024-10-29</text><text x="487" y="390" xmlns="http://www.w3.org/2000/svg">Time</text></svg>