<svg xmlns="http://www.w3.org/2000/svg" xmlns:xlink="http://www.w3.org/1999/xlink" width="1024px" height="400px"><style type="text/css">
path { fill: none; stroke: rgb(51,51,51); }
path.series { stroke: #6b63ff; }
rect.background { fill: rgb(255,255,255); stroke: none; }

text {
	stroke-width: 0;
	stroke: none;
	fill: rgba(51,51,51,1.0);
	font-size: 12.8px;
	font-family: 'Roboto Medium', sans-serif;
}
</style><rect y="0" width="1024px" height="400px" class="background" rx="8" x="0" /><rect height="400px" class="background" rx="8" x="0" y="0" width="1024px"></rect><path d="M 58 345 L 61 344 L 81 344 L 82 343 L 82 343 L 82 342 L 82 342 L 82 341 L 82 341 L 82 340 L 82 340 L 82 339 L 83 338 L 83 338 L 83 337 L 83 337 L 83 336 L 83 336 L 83 335 L 84 335 L 85 334 L 85 334 L 86 333 L 87 333 L 87 332 L 87 331 L 88 331 L 89 330 L 91 330 L 92 329 L 93 329 L 95 328 L 101 328 L 101 327 L 101 327 L 101 326 L 101 325 L 101 325 L 105 324 L 106 324 L 107 323 L 110 323 L 115 322 L 117 322 L 126 321 L 129 321 L 134 320 L 139 320 L 141 319 L 159 318 L 160 318 L 161 317 L 163 317 L 164 316 L 164 316 L 164 315 L 164 315 L 164 314 L 164 314 L 164 313 L 164 313 L 164 312 L 164 311 L 164 311 L 164 310 L 164 310 L 165 309 L 165 309 L 165 308 L 165 308 L 165 307 L 165 307 L 165 306 L 165 305 L 165 305 L 165 304 L 165 304 L 165 303 L 165 303 L 165 302 L 165 302 L 165 301 L 165 301 L 165 300 L 165 300 L 165 299 L 165 298 L 165 298 L 165 297 L 165 297 L 165 296 L 165 296 L 165 295 L 165 295 L 165 294 L 165 294 L 165 293 L 165 292 L 165 292 L 165 291 L 166 291 L 166 290 L 166 290 L 166 289 L 167 289 L 167 288 L 168 288 L 168 287 L 168 287 L 168 286 L 168 285 L 168 285 L 168 284 L 168 284 L 168 283 L 168 283 L 168 282 L 168 282 L 168 281 L 168 281 L 168 280 L 168 280 L 168 279 L 169 278 L 170 278 L 170 277 L 170 277 L 170 276 L 174 276 L 175 275 L 175 275 L 176 274 L 177 274 L 179 273 L 183 272 L 183 272 L 186 271 L 187 271 L 189 270 L 190 270 L 190 269 L 193 269 L 193 268 L 194 268 L 196 267 L 196 267 L 198 266 L 198 265 L 198 265 L 198 264 L 200 264 L 201 263 L 201 263 L 202 262 L 203 262 L 203 261 L 204 261 L 206 260 L 208 259 L 210 259 L 211 258 L 212 258 L 214 257 L 214 257 L 214 256 L 216 256 L 224 255 L 224 255 L 226 254 L 233 254 L 233 253 L 233 252 L 234 252 L 234 251 L 235 251 L 237 250 L 239 250 L 239 249 L 248 249 L 250 248 L 252 248 L 255 247 L 257 247 L 257 246 L 258 245 L 265 245 L 272 244 L 280 244 L 281 243 L 281 243 L 281 242 L 282 242 L 284 241 L 294 241 L 300 240 L 300 239 L 304 239 L 305 238 L 306 238 L 318 237 L 318 237 L 319 236 L 319 236 L 321 235 L 324 235 L 325 234 L 328 234 L 330 233 L 332 232 L 339 232 L 339 231 L 341 231 L 341 230 L 341 230 L 342 229 L 345 229 L 352 228 L 367 228 L 373 227 L 376 226 L 376 226 L 378 225 L 380 225 L 380 224 L 380 224 L 380 223 L 380 223 L 380 222 L 380 222 L 380 221 L 380 221 L 380 220 L 380 219 L 381 219 L 381 218 L 381 218 L 382 217 L 384 217 L 384 216 L 385 216 L 385 215 L 385 215 L 387 214 L 387 214 L 387 213 L 387 212 L 387 212 L 387 211 L 387 211 L 388 210 L 389 210 L 389 209 L 390 209 L 390 208 L 390 208 L 390 207 L 391 206 L 391 206 L 391 205 L 392 205 L 393 204 L 393 204 L 393 203 L 394 203 L 396 202 L 397 202 L 399 201 L 401 201 L 402 200 L 402 199 L 403 199 L 403 198 L 403 198 L 403 197 L 405 197 L 406 196 L 408 196 L 408 195 L 409 195 L 411 194 L 413 193 L 413 193 L 416 192 L 417 192 L 418 191 L 419 191 L 419 190 L 424 190 L 426 189 L 426 189 L 430 188 L 433 188 L 437 187 L 438 186 L 439 186 L 440 185 L 441 185 L 441 184 L 444 184 L 447 183 L 449 183 L 449 182 L 451 182 L 452 181 L 452 181 L 452 180 L 453 179 L 453 179 L 454 178 L 454 178 L 455 177 L 455 177 L 455 176 L 456 176 L 462 175 L 469 175 L 469 174 L 469 173 L 473 173 L 475 172 L 476 172 L 477 171 L 478 171 L 480 170 L 480 170 L 480 169 L 480 169 L 480 168 L 480 168 L 480 167 L 481 166 L 481 166 L 482 165 L 485 165 L 485 164 L 485 164 L 485 163 L 486 163 L 486 162 L 486 162 L 486 161 L 486 160 L 486 160 L 486 159 L 486 159 L 487 158 L 492 158 L 495 157 L 495 157 L 496 156 L 509 156 L 511 155 L 515 155 L 518 154 L 526 153 L 529 153 L 532 152 L 532 152 L 532 151 L 532 151 L 532 150 L 532 150 L 532 149 L 532 149 L 534 148 L 535 148 L 546 147 L 548 146 L 552 146 L 560 145 L 566 145 L 570 144 L 573 144 L 579 143 L 579 143 L 591 142 L 603 142 L 603 141 L 611 140 L 611 140 L 618 139 L 619 139 L 623 138 L 623 138 L 624 137 L 624 137 L 628 136 L 629 136 L 632 135 L 637 135 L 638 134 L 639 133 L 640 133 L 644 132 L 649 132 L 649 131 L 654 131 L 659 130 L 660 130 L 660 129 L 662 129 L 664 128 L 665 127 L 669 127 L 672 126 L 675 126 L 678 125 L 678 125 L 685 124 L 686 124 L 690 123 L 695 123 L 695 122 L 702 122 L 702 121 L 703 120 L 705 120 L 705 119 L 708 119 L 708 118 L 711 118 L 715 117 L 716 117 L 716 116 L 716 116 L 726 115 L 726 115 L 727 114 L 727 113 L 728 113 L 729 112 L 729 112 L 730 111 L 730 111 L 733 110 L 733 110 L 735 109 L 736 109 L 736 108 L 737 107 L 738 107 L 738 106 L 739 106 L 739 105 L 739 105 L 740 104 L 740 104 L 741 103 L 741 103 L 742 102 L 744 102 L 744 101 L 745 100 L 746 100 L 746 99 L 748 99 L 749 98 L 750 98 L 750 97 L 752 97 L 754 96 L 754 96 L 755 95 L 755 94 L 758 94 L 758 93 L 758 93 L 758 92 L 759 92 L 759 91 L 759 91 L 760 90 L 760 90 L 762 89 L 766 89 L 767 88 L 769 87 L 769 87 L 772 86 L 774 86 L 775 85 L 777 85 L 781 84 L 784 84 L 787 83 L 788 83 L 788 82 L 788 82 L 789 81 L 789 80 L 790 80 L 790 79 L 791 79 L 791 78 L 791 78 L 792 77 L 794 77 L 795 76 L 795 76 L 796 75 L 796 74 L 800 74 L 800 73 L 800 73 L 802 72 L 803 72 L 806 71 L 809 71 L 814 70 L 814 70 L 815 69 L 815 69 L 818 68 L 820 67 L 821 67 L 821 66 L 821 66 L 822 65 L 824 65 L 828 64 L 829 64 L 829 63 L 829 63 L 831 62 L 832 61 L 832 61 L 832 60 L 833 60 L 836 59 L 841 59 L 841 58 L 846 58 L 846 57 L 847 57 L 852 56 L 853 56 L 857 55 L 859 54 L 861 54 L 863 53 L 863 53 L 863 52 L 864 52 L 864 51 L 864 51 L 865 50 L 866 50 L 866 49 L 867 49 L 867 48 L 867 47 L 869 47 L 870 46 L 870 46 L 877 45 L 877 45 L 884 44 L 887 44 L 887 43 L 888 43 L 889 42 L 892 41 L 893 41 L 894 40 L 894 40 L 895 39 L 895 39 L 895 38 L 895 38 L 895 37 L 896 37 L 896 36 L 896 36 L 896 35 L 897 34 L 898 34 L 898 33 L 898 33 L 900 32 L 900 32 L 901 31 L 902 31 L 903 30 L 903 30 L 903 29 L 904 28 L 906 28 L 910 27 L 910 27 L 910 26 L 910 26 L 910 25 L 911 25 L 912 24 L 912 24 L 913 23 L 916 23 L 919 22 L 923 21 L 924 21 L 927 20 L 931 20 L 936 19 L 936 19 L 940 18 L 945 18 L 945 17 L 945 17" stroke-width="2" class="series" /><path class="series" d="M 58 345 L 61 344 L 81 344 L 82 343 L 82 343 L 82 342 L 82 342 L 82 341 L 82 341 L 82 340 L 82 340 L 82 339 L 83 338 L 83 338 L 83 337 L 83 337 L 83 336 L 83 336 L 83 335 L 84 335 L 85 334 L 85 334 L 86 333 L 87 333 L 87 332 L 87 331 L 88 331 L 89 330 L 91 330 L 92 329 L 93 329 L 95 328 L 101 328 L 101 327 L 101 327 L 101 326 L 101 325 L 101 325 L 105 324 L 106 324 L 107 323 L 110 323 L 115 322 L 117 322 L 126 321 L 129 321 L 134 320 L 139 320 L 141 319 L 159 318 L 160 318 L 161 317 L 163 317 L 164 316 L 164 316 L 164 315 L 164 315 L 164 314 L 164 314 L 164 313 L 164 313 L 164 312 L 164 311 L 164 311 L 164 310 L 164 310 L 165 309 L 165 309 L 165 308 L 165 308 L 165 307 L 165 307 L 165 306 L 165 305 L 165 305 L 165 304 L 165 304 L 165 303 L 165 303 L 165 302 L 165 302 L 165 301 L 165 301 L 165 300 L 165 300 L 165 299 L 165 298 L 165 298 L 165 297 L 165 297 L 165 296 L 165 296 L 165 295 L 165 295 L 165 294 L 165 294 L 165 293 L 165 292 L 165 292 L 165 291 L 166 291 L 166 290 L 166 290 L 166 289 L 167 289 L 167 288 L 168 288 L 168 287 L 168 287 L 168 286 L 168 285 L 168 285 L 168 284 L 168 284 L 168 283 L 168 283 L 168 282 L 168 282 L 168 281 L 168 281 L 168 280 L 168 280 L 168 279 L 169 278 L 170 278 L 170 277 L 170 277 L 170 276 L 174 276 L 175 275 L 175 275 L 176 274 L 177 274 L 179 273 L 183 272 L 183 272 L 186 271 L 187 271 L 189 270 L 190 270 L 190 269 L 193 269 L 193 268 L 194 268 L 196 267 L 196 267 L 198 266 L 198 265 L 198 265 L 198 264 L 200 264 L 201 263 L 201 263 L 202 262 L 203 262 L 203 261 L 204 261 L 206 260 L 208 259 L 210 259 L 211 258 L 212 258 L 214 257 L 214 257 L 214 256 L 216 256 L 224 255 L 224 255 L 226 254 L 233 254 L 233 253 L 233 252 L 234 252 L 234 251 L 235 251 L 237 250 L 239 250 L 239 249 L 248 249 L 250 248 L 252 248 L 255 247 L 257 247 L 257 246 L 258 245 L 265 245 L 272 244 L 280 244 L 281 243 L 281 243 L 281 242 L 282 242 L 284 241 L 294 241 L 300 240 L 300 239 L 304 239 L 305 238 L 306 238 L 318 237 L 318 237 L 319 236 L 319 236 L 321 235 L 324 235 L 325 234 L 328 234 L 330 233 L 332 232 L 339 232 L 339 231 L 341 231 L 341 230 L 341 230 L 342 229 L 345 229 L 352 228 L 367 228 L 373 227 L 376 226 L 376 226 L 378 225 L 380 225 L 380 224 L 380 224 L 380 223 L 380 223 L 380 222 L 380 222 L 380 221 L 380 221 L 380 220 L 380 219 L 381 219 L 381 218 L 381 218 L 382 217 L 384 217 L 384 216 L 385 216 L 385 215 L 385 215 L 387 214 L 387 214 L 387 213 L 387 212 L 387 212 L 387 211 L 387 211 L 388 210 L 389 210 L 389 209 L 390 209 L 390 208 L 390 208 L 390 207 L 391 206 L 391 206 L 391 205 L 392 205 L 393 204 L 393 204 L 393 203 L 394 203 L 396 202 L 397 202 L 399 201 L 401 201 L 402 200 L 402 199 L 403 199 L 403 198 L 403 198 L 403 197 L 405 197 L 406 196 L 408 196 L 408 195 L 409 195 L 411 194 L 413 193 L 413 193 L 416 192 L 417 192 L 418 191 L 419 191 L 419 190 L 424 190 L 426 189 L 426 189 L 430 188 L 433 188 L 437 187 L 438 186 L 439 186 L 440 185 L 441 185 L 441 184 L 444 184 L 447 183 L 449 183 L 449 182 L 451 182 L 452 181 L 452 181 L 452 180 L 453 179 L 453 179 L 454 178 L 454 178 L 455 177 L 455 177 L 455 176 L 456 176 L 462 175 L 469 175 L 469 174 L 469 173 L 473 173 L 475 172 L 476 172 L 477 171 L 478 171 L 480 170 L 480 170 L 480 169 L 480 169 L 480 168 L 480 168 L 480 167 L 481 166 L 481 166 L 482 165 L 485 165 L 485 164 L 485 164 L 485 163 L 486 163 L 486 162 L 486 162 L 486 161 L 486 160 L 486 160 L 486 159 L 486 159 L 487 158 L 492 158 L 495 157 L 495 157 L 496 156 L 509 156 L 511 155 L 515 155 L 518 154 L 526 153 L 529 153 L 532 152 L 532 152 L 532 151 L 532 151 L 532 150 L 532 150 L 532 149 L 532 149 L 534 148 L 535 148 L 546 147 L 548 146 L 552 146 L 560 145 L 566 145 L 570 144 L 573 144 L 579 143 L 579 143 L 591 142 L 603 142 L 603 141 L 611 140 L 611 140 L 618 139 L 619 139 L 623 138 L 623 138 L 624 137 L 624 137 L 628 136 L 629 136 L 632 135 L 637 135 L 638 134 L 639 133 L 640 133 L 644 132 L 649 132 L 649 131 L 654 131 L 659 130 L 660 130 L 660 129 L 662 129 L 664 128 L 665 127 L 669 127 L 672 126 L 675 126 L 678 125 L 678 125 L 685 124 L 686 124 L 690 123 L 695 123 L 695 122 L 702 122 L 702 121 L 703 120 L 705 120 L 705 119 L 708 119 L 708 118 L 711 118 L 715 117 L 716 117 L 716 116 L 716 116 L 726 115 L 726 115 L 727 114 L 727 113 L 728 113 L 729 112 L 729 112 L 730 111 L 730 111 L 733 110 L 733 110 L 735 109 L 736 109 L 736 108 L 737 107 L 738 107 L 738 106 L 739 106 L 739 105 L 739 105 L 740 104 L 740 104 L 741 103 L 741 103 L 742 102 L 744 102 L 744 101 L 745 100 L 746 100 L 746 99 L 748 99 L 749 98 L 750 98 L 750 97 L 752 97 L 754 96 L 754 96 L 755 95 L 755 94 L 758 94 L 758 93 L 758 93 L 758 92 L 759 92 L 759 91 L 759 91 L 760 90 L 760 90 L 762 89 L 766 89 L 767 88 L 769 87 L 769 87 L 772 86 L 774 86 L 775 85 L 777 85 L 781 84 L 784 84 L 787 83 L 788 83 L 788 82 L 788 82 L 789 81 L 789 80 L 790 80 L 790 79 L 791 79 L 791 78 L 791 78 L 792 77 L 794 77 L 795 76 L 795 76 L 796 75 L 796 74 L 800 74 L 800 73 L 800 73 L 802 72 L 803 72 L 806 71 L 809 71 L 814 70 L 814 70 L 815 69 L 815 69 L 818 68 L 820 67 L 821 67 L 821 66 L 821 66 L 822 65 L 824 65 L 828 64 L 829 64 L 829 63 L 829 63 L 831 62 L 832 61 L 832 61 L 832 60 L 833 60 L 836 59 L 841 59 L 841 58 L 846 58 L 846 57 L 847 57 L 852 56 L 853 56 L 857 55 L 859 54 L 861 54 L 863 53 L 863 53 L 863 52 L 864 52 L 864 51 L 864 51 L 865 50 L 866 50 L 866 49 L 867 49 L 867 48 L 867 47 L 869 47 L 870 46 L 870 46 L 877 45 L 877 45 L 884 44 L 887 44 L 887 43 L 888 43 L 889 42 L 892 41 L 893 41 L 894 40 L 894 40 L 895 39 L 895 39 L 895 38 L 895 38 L 895 37 L 896 37 L 896 36 L 896 36 L 896 35 L 897 34 L 898 34 L 898 33 L 898 33 L 900 32 L 900 32 L 901 31 L 902 31 L 903 30 L 903 30 L 903 29 L 904 28 L 906 28 L 910 27 L 910 27 L 910 26 L 910 26 L 910 25 L 911 25 L 912 24 L 912 24 L 913 23 L 916 23 L 919 22 L 923 21 L 924 21 L 927 20 L 931 20 L 936 19 L 936 19 L 940 18 L 945 18 L 945 17 L 945 17" stroke-width="2"></path><path stroke-width="2" d="M 945 346 L 945.000000 15.000000" /><path stroke-width="2" d="M 945 346 L 945.000000 15.000000"></path><path stroke-width="2" d="M 945 346 L 950 346" /><path stroke-width="2" d="M 945 346 L 950 346"></path><text xmlns="http://www.w3.org/2000/svg" x="955" y="352">0</text><path stroke-width="2" d="M 945 309 L 950 309" /><path stroke-width="2" d="M 945 309 L 950 309"></path><text xmlns="http://www.w3.org/2000/svg" x="955" y="315">68</text><path stroke-width="2" d="M 945 272 L 950 272" /><path stroke-width="2" d="M 945 272 L 950 272"></path><text xmlns="http://www.w3.org/2000/svg" x="955" y="278">136</text><path stroke-width="2" d="M 945 235 L 950 235" /><path stroke-width="2" d="M 945 235 L 950 235"></path><text x="955" y="241" xmlns="http://www.w3.org/2000/svg">204</text><path stroke-width="2" d="M 945 198 L 950 198" /><path stroke-width="2" d="M 945 198 L 950 198"></path><text xmlns="http://www.w3.org/2000/svg" x="955" y="204">272</text><path stroke-width="2" d="M 945 162 L 950 162" /><path stroke-width="2" d="M 945 162 L 950 162"></path><text xmlns="http://www.w3.org/2000/svg" x="955" y="168">339</text><path d="M 945 125 L 950 125" stroke-width="2" /><path stroke-width="2" d="M 945 125 L 950 125"></path><text xmlns="http://www.w3.org/2000/svg" x="955" y="131">407</text><path stroke-width="2" d="M 945 89 L 950 89" /><path stroke-width="2" d="M 945 89 L 950 89"></path><text xmlns="http://www.w3.org/2000/svg" x="955" y="95">475</text><path d="M 945 52 L 950 52" stroke-width="2" /><path stroke-width="2" d="M 945 52 L 950 52"></path><text xmlns="http://www.w3.org/2000/svg" x="955" y="58">543</text><path stroke-width="2" d="M 945 16 L 950 16" /><path d="M 945 16 L 950 16" stroke-width="2"></path><text xmlns="http://www.w3.org/2000/svg" x="955" y="22">610</text><text xmlns="http://www.w3.org/2000/svg" x="987" y="175" transform="rotate(90.00,987,175)">Stargazers</text><path stroke-width="2" d="M 57.000000 346.000000 L 945 346" /><path stroke-width="2" d="M 57.000000 346.000000 L 945 346"></path><path stroke-width="2" d="M 58 346 L 58 351" /><path stroke-width="2" d="M 58 346 L 58 351"></path><text xmlns="http://www.w3.org/2000/svg" x="25" y="368">2023-04-02</text><path stroke-width="2" d="M 157 346 L 157 351" /><path stroke-width="2" d="M 157 346 L 157 351"></path><text x="124" y="368" xmlns="http://www.w3.org/2000/svg">2023-06-01</text><path stroke-width="2" d="M 256 346 L 256 351" /><path stroke-width="2" d="M 256 346 L 256 351"></path><text x="223" y="368" xmlns="http://www.w3.org/2000/svg">2023-07-31</text><path stroke-width="2" d="M 354 346 L 354 351" /><path stroke-width="2" d="M 354 346 L 354 351"></path><text xmlns="http://www.w3.org/2000/svg" x="321" y="368">2023-09-29</text><path stroke-width="2" d="M 453 346 L 453 351" /><path stroke-width="2" d="M 453 346 L 453 351"></path><text xmlns="http://www.w3.org/2000/svg" x="420" y="368">2023-11-28</text><path stroke-width="2" d="M 551 346 L 551 351" /><path stroke-width="2" d="M 551 346 L 551 351"></path><text xmlns="http://www.w3.org/2000/svg" x="518" y="368">2024-01-27</text><path stroke-width="2" d="M 650 346 L 650 351" /><path stroke-width="2" d="M 650 346 L 650 351"></path><text xmlns="http://www.w3.org/2000/svg" x="617" y="368">2024-03-27</text><path d="M 748 346 L 748 351" stroke-width="2" /><path stroke-width="2" d="M 748 346 L 748 351"></path><text xmlns="http://www.w3.org/2000/svg" x="715" y="368">2024-05-27</text><path stroke-width="2" d="M 847 346 L 847 351" /><path d="M 847 346 L 847 351" stroke-width="2"></path><text xmlns="http://www.w3.org/2000/svg" x="814" y="368">2024-07-26</text><path stroke-width="2" d="M 945 346 L 945 351" /><path stroke-width="2" d="M 945 346 L 945 351"></path><text y="368" xmlns="http://www.w3.org/2000/svg" x="912">2024-09-24</text><text xmlns="http://www.w3.org/2000/svg" x="487" y="390">Time</text></svg>