<svg width="1024px" height="400px" xmlns="http://www.w3.org/2000/svg" xmlns:xlink="http://www.w3.org/1999/xlink"><style type="text/css">
path { fill: none; stroke: rgb(51,51,51); }
path.series { stroke: #6b63ff; }
rect.background { fill: rgb(255,255,255); stroke: none; }

text {
	stroke-width: 0;
	stroke: none;
	fill: rgba(51,51,51,1.0);
	font-size: 12.8px;
	font-family: 'Roboto Medium', sans-serif;
}
</style><rect rx="8" x="0" y="0" width="1024px" height="400px" class="background" /><rect x="0" y="0" width="1024px" height="400px" class="background" rx="8"></rect><path d="M 58 345 L 63 344 L 93 343 L 94 342 L 94 341 L 94 341 L 94 340 L 94 339 L 94 338 L 94 337 L 95 337 L 95 336 L 95 335 L 95 334 L 95 333 L 95 333 L 95 332 L 96 331 L 96 330 L 96 329 L 98 329 L 99 328 L 99 327 L 101 326 L 103 325 L 103 325 L 103 324 L 104 323 L 106 322 L 109 321 L 109 321 L 111 320 L 113 319 L 123 318 L 123 317 L 123 317 L 123 316 L 123 315 L 124 314 L 124 313 L 129 313 L 131 312 L 133 311 L 138 310 L 145 309 L 148 308 L 162 308 L 166 307 L 173 306 L 181 305 L 184 304 L 212 304 L 214 303 L 214 302 L 218 301 L 219 300 L 219 300 L 219 299 L 219 298 L 219 297 L 219 296 L 219 296 L 219 295 L 219 294 L 219 293 L 219 292 L 220 292 L 220 291 L 220 290 L 220 289 L 220 288 L 220 288 L 220 287 L 220 286 L 220 285 L 220 284 L 220 284 L 220 283 L 220 282 L 220 281 L 220 280 L 220 280 L 220 279 L 220 278 L 221 277 L 221 276 L 221 275 L 221 275 L 221 274 L 221 273 L 221 272 L 221 271 L 221 271 L 221 270 L 221 269 L 221 268 L 221 267 L 221 267 L 221 266 L 221 265 L 222 264 L 222 263 L 222 263 L 223 262 L 223 261 L 223 260 L 223 259 L 224 259 L 225 258 L 225 257 L 225 256 L 225 255 L 225 255 L 225 254 L 225 253 L 225 252 L 225 251 L 225 251 L 225 250 L 225 249 L 225 248 L 225 247 L 225 247 L 225 246 L 226 245 L 226 244 L 228 243 L 228 242 L 229 242 L 229 241 L 235 240 L 236 239 L 236 238 L 238 238 L 238 237 L 243 236 L 248 235 L 249 234 L 253 234 L 255 233 L 258 232 L 258 231 L 259 230 L 264 230 L 264 229 L 266 228 L 268 227 L 269 226 L 271 226 L 271 225 L 271 224 L 272 223 L 274 222 L 277 222 L 277 221 L 278 220 L 278 219 L 279 218 L 280 218 L 284 217 L 286 216 L 290 215 L 292 214 L 293 214 L 295 213 L 295 212 L 296 211 L 299 210 L 311 209 L 311 209 L 313 208 L 325 207 L 325 206 L 325 205 L 325 205 L 326 204 L 328 203 L 331 202 L 333 201 L 334 201 L 348 200 L 351 199 L 354 198 L 358 197 L 361 197 L 361 196 L 363 195 L 373 194 L 384 193 L 397 193 L 398 192 L 398 191 L 398 190 L 399 189 L 402 189 L 418 188 L 426 187 L 427 186 L 433 185 L 434 185 L 435 184 L 454 183 L 454 182 L 455 181 L 456 181 L 458 180 L 463 179 L 466 178 L 469 177 L 472 176 L 476 176 L 486 175 L 487 174 L 489 173 L 489 172 L 489 172 L 490 171 L 496 170 L 496 169 L 506 168 L 521 168 L 529 167 L 538 166 L 539 165 L 543 164 L 543 164 L 546 163 L 549 162 L 549 161 L 549 160 L 549 160 L 549 159 L 549 158 L 549 157 L 549 156 L 549 156 L 549 155 L 549 154 L 550 153 L 550 152 L 550 152 L 551 151 L 552 150 L 555 149 L 555 148 L 556 148 L 556 147 L 556 146 L 559 145 L 559 144 L 559 143 L 559 143 L 559 142 L 559 141 L 559 140 L 561 139 L 562 139 L 563 138 L 563 137 L 563 136 L 564 135 L 564 135 L 566 134 L 566 133 L 566 132 L 566 131 L 568 131 L 569 130 L 569 129 L 571 128 L 573 127 L 574 127 L 577 126 L 581 125 L 582 124 L 583 123 L 583 123 L 583 122 L 583 121 L 584 120 L 587 119 L 588 119 L 591 118 L 592 117 L 593 116 L 596 115 L 599 115 L 599 114 L 604 113 L 605 112 L 606 111 L 608 110 L 608 110 L 617 109 L 618 108 L 619 107 L 626 106 L 629 106 L 636 105 L 638 104 L 638 103 L 640 102 L 641 102 L 641 101 L 647 100 L 651 99 L 654 98 L 654 98 L 657 97 L 659 96 L 659 95 L 659 94 L 659 94 L 661 93 L 661 92 L 661 91 L 664 90 L 664 90 L 664 89 L 665 88 L 674 87 L 684 86 L 684 86 L 684 85 L 691 84 L 694 83 L 696 82 L 696 82 L 699 81 L 701 80 L 701 79 L 701 78 L 701 77 L 701 77 L 702 76 L 702 75 L 703 74 L 703 73 L 704 73 L 709 72 L 709 71 L 709 70 L 709 69 L 710 69 L 710 68 L 710 67 L 711 66 L 711 65 L 711 65 L 711 64 L 711 63 L 711 62 L 714 61 L 719 61 L 724 60 L 724 59 L 726 58 L 735 57 L 746 57 L 748 56 L 754 55 L 759 54 L 771 53 L 776 53 L 780 52 L 780 51 L 780 50 L 781 49 L 781 49 L 781 48 L 781 47 L 781 46 L 784 45 L 786 44 L 801 44 L 806 43 L 811 42 L 823 41 L 832 40 L 839 40 L 843 39 L 852 38 L 852 37 L 870 36 L 888 36 L 889 35 L 901 34 L 902 33 L 912 32 L 914 32 L 919 31 L 919 30 L 921 29 L 921 28 L 926 28 L 929 27 L 934 26 L 941 25 L 942 24 L 944 24 L 945 23" stroke-width="2" class="series" /><path stroke-width="2" class="series" d="M 58 345 L 63 344 L 93 343 L 94 342 L 94 341 L 94 341 L 94 340 L 94 339 L 94 338 L 94 337 L 95 337 L 95 336 L 95 335 L 95 334 L 95 333 L 95 333 L 95 332 L 96 331 L 96 330 L 96 329 L 98 329 L 99 328 L 99 327 L 101 326 L 103 325 L 103 325 L 103 324 L 104 323 L 106 322 L 109 321 L 109 321 L 111 320 L 113 319 L 123 318 L 123 317 L 123 317 L 123 316 L 123 315 L 124 314 L 124 313 L 129 313 L 131 312 L 133 311 L 138 310 L 145 309 L 148 308 L 162 308 L 166 307 L 173 306 L 181 305 L 184 304 L 212 304 L 214 303 L 214 302 L 218 301 L 219 300 L 219 300 L 219 299 L 219 298 L 219 297 L 219 296 L 219 296 L 219 295 L 219 294 L 219 293 L 219 292 L 220 292 L 220 291 L 220 290 L 220 289 L 220 288 L 220 288 L 220 287 L 220 286 L 220 285 L 220 284 L 220 284 L 220 283 L 220 282 L 220 281 L 220 280 L 220 280 L 220 279 L 220 278 L 221 277 L 221 276 L 221 275 L 221 275 L 221 274 L 221 273 L 221 272 L 221 271 L 221 271 L 221 270 L 221 269 L 221 268 L 221 267 L 221 267 L 221 266 L 221 265 L 222 264 L 222 263 L 222 263 L 223 262 L 223 261 L 223 260 L 223 259 L 224 259 L 225 258 L 225 257 L 225 256 L 225 255 L 225 255 L 225 254 L 225 253 L 225 252 L 225 251 L 225 251 L 225 250 L 225 249 L 225 248 L 225 247 L 225 247 L 225 246 L 226 245 L 226 244 L 228 243 L 228 242 L 229 242 L 229 241 L 235 240 L 236 239 L 236 238 L 238 238 L 238 237 L 243 236 L 248 235 L 249 234 L 253 234 L 255 233 L 258 232 L 258 231 L 259 230 L 264 230 L 264 229 L 266 228 L 268 227 L 269 226 L 271 226 L 271 225 L 271 224 L 272 223 L 274 222 L 277 222 L 277 221 L 278 220 L 278 219 L 279 218 L 280 218 L 284 217 L 286 216 L 290 215 L 292 214 L 293 214 L 295 213 L 295 212 L 296 211 L 299 210 L 311 209 L 311 209 L 313 208 L 325 207 L 325 206 L 325 205 L 325 205 L 326 204 L 328 203 L 331 202 L 333 201 L 334 201 L 348 200 L 351 199 L 354 198 L 358 197 L 361 197 L 361 196 L 363 195 L 373 194 L 384 193 L 397 193 L 398 192 L 398 191 L 398 190 L 399 189 L 402 189 L 418 188 L 426 187 L 427 186 L 433 185 L 434 185 L 435 184 L 454 183 L 454 182 L 455 181 L 456 181 L 458 180 L 463 179 L 466 178 L 469 177 L 472 176 L 476 176 L 486 175 L 487 174 L 489 173 L 489 172 L 489 172 L 490 171 L 496 170 L 496 169 L 506 168 L 521 168 L 529 167 L 538 166 L 539 165 L 543 164 L 543 164 L 546 163 L 549 162 L 549 161 L 549 160 L 549 160 L 549 159 L 549 158 L 549 157 L 549 156 L 549 156 L 549 155 L 549 154 L 550 153 L 550 152 L 550 152 L 551 151 L 552 150 L 555 149 L 555 148 L 556 148 L 556 147 L 556 146 L 559 145 L 559 144 L 559 143 L 559 143 L 559 142 L 559 141 L 559 140 L 561 139 L 562 139 L 563 138 L 563 137 L 563 136 L 564 135 L 564 135 L 566 134 L 566 133 L 566 132 L 566 131 L 568 131 L 569 130 L 569 129 L 571 128 L 573 127 L 574 127 L 577 126 L 581 125 L 582 124 L 583 123 L 583 123 L 583 122 L 583 121 L 584 120 L 587 119 L 588 119 L 591 118 L 592 117 L 593 116 L 596 115 L 599 115 L 599 114 L 604 113 L 605 112 L 606 111 L 608 110 L 608 110 L 617 109 L 618 108 L 619 107 L 626 106 L 629 106 L 636 105 L 638 104 L 638 103 L 640 102 L 641 102 L 641 101 L 647 100 L 651 99 L 654 98 L 654 98 L 657 97 L 659 96 L 659 95 L 659 94 L 659 94 L 661 93 L 661 92 L 661 91 L 664 90 L 664 90 L 664 89 L 665 88 L 674 87 L 684 86 L 684 86 L 684 85 L 691 84 L 694 83 L 696 82 L 696 82 L 699 81 L 701 80 L 701 79 L 701 78 L 701 77 L 701 77 L 702 76 L 702 75 L 703 74 L 703 73 L 704 73 L 709 72 L 709 71 L 709 70 L 709 69 L 710 69 L 710 68 L 710 67 L 711 66 L 711 65 L 711 65 L 711 64 L 711 63 L 711 62 L 714 61 L 719 61 L 724 60 L 724 59 L 726 58 L 735 57 L 746 57 L 748 56 L 754 55 L 759 54 L 771 53 L 776 53 L 780 52 L 780 51 L 780 50 L 781 49 L 781 49 L 781 48 L 781 47 L 781 46 L 784 45 L 786 44 L 801 44 L 806 43 L 811 42 L 823 41 L 832 40 L 839 40 L 843 39 L 852 38 L 852 37 L 870 36 L 888 36 L 889 35 L 901 34 L 902 33 L 912 32 L 914 32 L 919 31 L 919 30 L 921 29 L 921 28 L 926 28 L 929 27 L 934 26 L 941 25 L 942 24 L 944 24 L 945 23"></path><path d="M 945 346 L 945.000000 15.000000" stroke-width="2" /><path stroke-width="2" d="M 945 346 L 945.000000 15.000000"></path><path d="M 945 346 L 950 346" stroke-width="2" /><path stroke-width="2" d="M 945 346 L 950 346"></path><text xmlns="http://www.w3.org/2000/svg" x="955" y="352">0</text><path d="M 945 308 L 950 308" stroke-width="2" /><path stroke-width="2" d="M 945 308 L 950 308"></path><text xmlns="http://www.w3.org/2000/svg" x="955" y="314">46</text><path stroke-width="2" d="M 945 271 L 950 271" /><path stroke-width="2" d="M 945 271 L 950 271"></path><text y="277" xmlns="http://www.w3.org/2000/svg" x="955">92</text><path stroke-width="2" d="M 945 235 L 950 235" /><path stroke-width="2" d="M 945 235 L 950 235"></path><text xmlns="http://www.w3.org/2000/svg" x="955" y="241">137</text><path stroke-width="2" d="M 945 198 L 950 198" /><path d="M 945 198 L 950 198" stroke-width="2"></path><text xmlns="http://www.w3.org/2000/svg" x="955" y="204">183</text><path stroke-width="2" d="M 945 162 L 950 162" /><path d="M 945 162 L 950 162" stroke-width="2"></path><text y="168" xmlns="http://www.w3.org/2000/svg" x="955">228</text><path stroke-width="2" d="M 945 125 L 950 125" /><path d="M 945 125 L 950 125" stroke-width="2"></path><text xmlns="http://www.w3.org/2000/svg" x="955" y="131">274</text><path stroke-width="2" d="M 945 89 L 950 89" /><path stroke-width="2" d="M 945 89 L 950 89"></path><text xmlns="http://www.w3.org/2000/svg" x="955" y="95">319</text><path stroke-width="2" d="M 945 52 L 950 52" /><path stroke-width="2" d="M 945 52 L 950 52"></path><text xmlns="http://www.w3.org/2000/svg" x="955" y="58">365</text><path stroke-width="2" d="M 945 16 L 950 16" /><path stroke-width="2" d="M 945 16 L 950 16"></path><text xmlns="http://www.w3.org/2000/svg" x="955" y="22">410</text><text transform="rotate(90.00,987,175)" xmlns="http://www.w3.org/2000/svg" x="987" y="175">Stargazers</text><path stroke-width="2" d="M 57.000000 346.000000 L 945 346" /><path stroke-width="2" d="M 57.000000 346.000000 L 945 346"></path><path stroke-width="2" d="M 58 346 L 58 351" /><path d="M 58 346 L 58 351" stroke-width="2"></path><text x="25" y="368" xmlns="http://www.w3.org/2000/svg">2023-04-02</text><path stroke-width="2" d="M 157 346 L 157 351" /><path stroke-width="2" d="M 157 346 L 157 351"></path><text x="124" y="368" xmlns="http://www.w3.org/2000/svg">2023-05-11</text><path stroke-width="2" d="M 256 346 L 256 351" /><path d="M 256 346 L 256 351" stroke-width="2"></path><text xmlns="http://www.w3.org/2000/svg" x="223" y="368">2023-06-20</text><path stroke-width="2" d="M 354 346 L 354 351" /><path d="M 354 346 L 354 351" stroke-width="2"></path><text xmlns="http://www.w3.org/2000/svg" x="321" y="368">2023-07-29</text><path stroke-width="2" d="M 453 346 L 453 351" /><path stroke-width="2" d="M 453 346 L 453 351"></path><text xmlns="http://www.w3.org/2000/svg" x="420" y="368">2023-09-07</text><path stroke-width="2" d="M 551 346 L 551 351" /><path stroke-width="2" d="M 551 346 L 551 351"></path><text xmlns="http://www.w3.org/2000/svg" x="518" y="368">2023-10-16</text><path stroke-width="2" d="M 650 346 L 650 351" /><path stroke-width="2" d="M 650 346 L 650 351"></path><text xmlns="http://www.w3.org/2000/svg" x="617" y="368">2023-11-24</text><path stroke-width="2" d="M 748 346 L 748 351" /><path stroke-width="2" d="M 748 346 L 748 351"></path><text x="715" y="368" xmlns="http://www.w3.org/2000/svg">2024-01-03</text><path stroke-width="2" d="M 847 346 L 847 351" /><path stroke-width="2" d="M 847 346 L 847 351"></path><text xmlns="http://www.w3.org/2000/svg" x="814" y="368">2024-02-11</text><path stroke-width="2" d="M 945 346 L 945 351" /><path stroke-width="2" d="M 945 346 L 945 351"></path><text xmlns="http://www.w3.org/2000/svg" x="912" y="368">2024-03-22</text><text xmlns="http://www.w3.org/2000/svg" x="487" y="390">Time</text></svg>