<svg xmlns="http://www.w3.org/2000/svg" xmlns:xlink="http://www.w3.org/1999/xlink" width="1024px" height="400px"><style type="text/css">
path { fill: none; stroke: rgb(51,51,51); }
path.series { stroke: #6b63ff; }
rect.background { fill: rgb(255,255,255); stroke: none; }

text {
	stroke-width: 0;
	stroke: none;
	fill: rgba(51,51,51,1.0);
	font-size: 12.8px;
	font-family: 'Roboto Medium', sans-serif;
}
</style><rect x="0" y="0" width="1024px" height="400px" class="background" rx="8" /><rect rx="8" x="0" y="0" width="1024px" height="400px" class="background"></rect><path stroke-width="2" class="series" d="M 58 345 L 60 345 L 71 345 L 71 344 L 71 344 L 71 344 L 71 344 L 71 343 L 71 343 L 71 343 L 71 342 L 71 342 L 71 342 L 72 342 L 72 341 L 72 341 L 72 341 L 72 341 L 72 340 L 72 340 L 73 340 L 73 339 L 74 339 L 74 339 L 74 339 L 74 338 L 75 338 L 75 338 L 76 338 L 76 337 L 77 337 L 78 337 L 81 336 L 81 336 L 81 336 L 82 336 L 82 335 L 84 335 L 84 335 L 85 335 L 87 334 L 89 334 L 90 334 L 95 333 L 97 333 L 99 333 L 102 333 L 103 332 L 114 332 L 114 332 L 115 331 L 115 331 L 115 331 L 115 331 L 115 330 L 115 330 L 115 330 L 115 330 L 115 329 L 115 329 L 115 329 L 115 328 L 116 328 L 116 328 L 116 328 L 116 327 L 116 327 L 116 327 L 116 327 L 116 326 L 116 326 L 116 326 L 116 325 L 116 325 L 116 325 L 116 325 L 116 324 L 116 324 L 116 324 L 116 324 L 116 323 L 116 323 L 116 323 L 116 322 L 116 322 L 116 322 L 116 322 L 116 321 L 116 321 L 116 321 L 116 320 L 116 320 L 116 320 L 116 320 L 116 319 L 116 319 L 116 319 L 116 319 L 117 318 L 117 318 L 117 318 L 117 317 L 117 317 L 117 317 L 118 317 L 118 316 L 118 316 L 118 316 L 118 316 L 118 315 L 118 315 L 118 315 L 118 314 L 118 314 L 118 314 L 118 314 L 118 313 L 118 313 L 118 313 L 118 313 L 118 312 L 118 312 L 119 312 L 119 311 L 119 311 L 119 311 L 121 311 L 121 310 L 121 310 L 122 310 L 122 309 L 124 309 L 126 309 L 126 309 L 127 308 L 128 308 L 129 308 L 129 308 L 130 307 L 131 307 L 131 307 L 132 306 L 133 306 L 133 306 L 134 306 L 134 305 L 134 305 L 134 305 L 135 305 L 136 304 L 136 304 L 136 304 L 137 303 L 137 303 L 137 303 L 138 303 L 139 302 L 141 302 L 141 302 L 142 302 L 143 301 L 143 301 L 143 301 L 144 300 L 148 300 L 148 300 L 149 300 L 153 299 L 153 299 L 153 299 L 153 298 L 153 298 L 154 298 L 155 298 L 156 297 L 156 297 L 161 297 L 162 297 L 163 296 L 165 296 L 166 296 L 166 295 L 167 295 L 170 295 L 174 295 L 179 294 L 179 294 L 179 294 L 179 294 L 179 293 L 186 293 L 189 293 L 189 292 L 191 292 L 192 292 L 192 292 L 199 291 L 199 291 L 199 291 L 200 291 L 200 290 L 203 290 L 204 290 L 205 289 L 207 289 L 210 289 L 211 289 L 211 288 L 211 288 L 211 288 L 212 287 L 214 287 L 217 287 L 226 287 L 229 286 L 230 286 L 231 286 L 233 286 L 233 285 L 233 285 L 233 285 L 233 284 L 233 284 L 233 284 L 233 284 L 233 283 L 233 283 L 233 283 L 233 283 L 233 282 L 233 282 L 233 282 L 235 281 L 235 281 L 235 281 L 235 281 L 236 280 L 236 280 L 236 280 L 236 280 L 236 279 L 236 279 L 236 279 L 237 278 L 237 278 L 238 278 L 238 278 L 238 277 L 238 277 L 238 277 L 239 276 L 239 276 L 239 276 L 239 276 L 240 275 L 240 275 L 240 275 L 241 275 L 242 274 L 243 274 L 244 274 L 244 273 L 245 273 L 245 273 L 245 273 L 245 272 L 245 272 L 246 272 L 246 272 L 248 271 L 248 271 L 248 271 L 249 270 L 250 270 L 251 270 L 252 270 L 253 269 L 253 269 L 254 269 L 254 269 L 257 268 L 257 268 L 257 268 L 260 267 L 261 267 L 264 267 L 264 267 L 264 266 L 265 266 L 265 266 L 265 265 L 267 265 L 269 265 L 270 265 L 270 264 L 272 264 L 272 264 L 272 264 L 272 263 L 272 263 L 272 263 L 272 262 L 273 262 L 273 262 L 273 262 L 274 261 L 277 261 L 280 261 L 280 261 L 281 260 L 283 260 L 284 260 L 285 259 L 285 259 L 286 259 L 287 259 L 287 258 L 287 258 L 287 258 L 287 258 L 287 257 L 287 257 L 287 257 L 287 256 L 288 256 L 289 256 L 289 256 L 289 255 L 290 255 L 290 255 L 290 254 L 290 254 L 290 254 L 290 254 L 290 253 L 290 253 L 290 253 L 293 253 L 295 252 L 295 252 L 295 252 L 303 251 L 303 251 L 305 251 L 307 251 L 313 250 L 315 250 L 315 250 L 315 250 L 315 249 L 315 249 L 315 249 L 315 248 L 316 248 L 317 248 L 322 248 L 324 247 L 326 247 L 330 247 L 333 247 L 335 246 L 337 246 L 340 246 L 340 245 L 347 245 L 353 245 L 353 245 L 358 244 L 358 244 L 361 244 L 362 243 L 364 243 L 364 243 L 365 243 L 365 242 L 367 242 L 367 242 L 369 242 L 372 241 L 372 241 L 373 241 L 373 240 L 376 240 L 378 240 L 378 240 L 381 239 L 384 239 L 384 239 L 384 239 L 385 238 L 386 238 L 387 238 L 389 237 L 391 237 L 392 237 L 394 237 L 394 236 L 398 236 L 398 236 L 400 236 L 403 235 L 403 235 L 407 235 L 407 234 L 407 234 L 408 234 L 408 234 L 410 233 L 410 233 L 412 233 L 414 232 L 414 232 L 414 232 L 415 232 L 420 231 L 420 231 L 420 231 L 421 231 L 421 230 L 421 230 L 422 230 L 422 229 L 422 229 L 423 229 L 423 229 L 425 228 L 425 228 L 425 228 L 426 228 L 426 227 L 426 227 L 427 227 L 427 226 L 427 226 L 428 226 L 428 226 L 428 225 L 428 225 L 429 225 L 430 225 L 430 224 L 430 224 L 431 224 L 431 223 L 432 223 L 432 223 L 433 223 L 433 222 L 434 222 L 435 222 L 435 221 L 435 221 L 437 221 L 437 221 L 437 220 L 437 220 L 438 220 L 438 220 L 438 219 L 438 219 L 438 219 L 439 218 L 441 218 L 442 218 L 443 218 L 443 217 L 445 217 L 446 217 L 446 217 L 448 216 L 449 216 L 451 216 L 453 215 L 453 215 L 453 215 L 454 215 L 454 214 L 454 214 L 454 214 L 454 214 L 455 213 L 455 213 L 455 213 L 455 212 L 456 212 L 457 212 L 457 212 L 458 211 L 458 211 L 460 211 L 460 210 L 460 210 L 461 210 L 461 210 L 463 209 L 468 209 L 468 209 L 468 209 L 468 208 L 469 208 L 471 208 L 471 207 L 471 207 L 471 207 L 472 207 L 473 206 L 475 206 L 475 206 L 476 206 L 476 205 L 477 205 L 477 205 L 477 204 L 477 204 L 479 204 L 482 204 L 482 203 L 485 203 L 485 203 L 485 203 L 488 202 L 489 202 L 491 202 L 492 201 L 493 201 L 494 201 L 494 201 L 494 200 L 494 200 L 494 200 L 494 199 L 495 199 L 495 199 L 495 199 L 496 198 L 496 198 L 496 198 L 497 198 L 498 197 L 498 197 L 501 197 L 502 196 L 505 196 L 507 196 L 507 196 L 508 195 L 508 195 L 510 195 L 511 195 L 511 194 L 511 194 L 511 194 L 511 193 L 511 193 L 511 193 L 512 193 L 512 192 L 512 192 L 512 192 L 512 192 L 513 191 L 513 191 L 514 191 L 514 190 L 515 190 L 515 190 L 516 190 L 516 189 L 516 189 L 516 189 L 517 188 L 519 188 L 519 188 L 519 188 L 519 187 L 519 187 L 520 187 L 520 187 L 520 186 L 521 186 L 523 186 L 524 185 L 527 185 L 527 185 L 528 185 L 531 184 L 533 184 L 534 184 L 536 184 L 539 183 L 539 183 L 539 183 L 542 182 L 543 182 L 544 182 L 544 182 L 544 181 L 550 181 L 550 181 L 551 181 L 551 180 L 552 180 L 552 180 L 553 179 L 553 179 L 553 179 L 554 179 L 554 178 L 554 178 L 555 178 L 555 177 L 555 177 L 555 177 L 555 177 L 555 176 L 555 176 L 556 176 L 557 176 L 558 175 L 558 175 L 558 175 L 559 174 L 559 174 L 560 174 L 560 174 L 561 173 L 561 173 L 561 173 L 561 173 L 562 172 L 563 172 L 564 172 L 564 171 L 564 171 L 565 171 L 565 171 L 565 170 L 566 170 L 566 170 L 566 170 L 566 169 L 567 169 L 567 169 L 567 168 L 568 168 L 569 168 L 569 168 L 569 167 L 569 167 L 569 167 L 570 166 L 570 166 L 570 166 L 571 166 L 571 165 L 571 165 L 571 165 L 572 165 L 572 164 L 572 164 L 572 164 L 572 163 L 572 163 L 572 163 L 572 163 L 573 162 L 573 162 L 574 162 L 575 162 L 577 161 L 577 161 L 577 161 L 577 160 L 578 160 L 579 160 L 579 160 L 580 159 L 581 159 L 583 159 L 583 159 L 584 158 L 585 158 L 585 158 L 586 157 L 586 157 L 586 157 L 586 157 L 586 156 L 586 156 L 586 156 L 586 155 L 587 155 L 587 155 L 587 155 L 587 154 L 587 154 L 587 154 L 588 154 L 588 153 L 588 153 L 589 153 L 590 152 L 590 152 L 590 152 L 590 152 L 591 151 L 591 151 L 592 151 L 595 151 L 595 150 L 595 150 L 595 150 L 595 149 L 597 149 L 598 149 L 598 149 L 600 148 L 600 148 L 600 148 L 600 148 L 601 147 L 604 147 L 606 147 L 608 146 L 609 146 L 610 146 L 611 146 L 611 145 L 611 145 L 612 145 L 612 144 L 612 144 L 613 144 L 613 144 L 613 143 L 614 143 L 616 143 L 616 143 L 616 142 L 616 142 L 616 142 L 616 141 L 616 141 L 616 141 L 616 141 L 616 140 L 616 140 L 616 140 L 616 140 L 616 139 L 616 139 L 616 139 L 616 138 L 617 138 L 617 138 L 617 138 L 617 137 L 617 137 L 617 137 L 617 137 L 618 136 L 618 136 L 618 136 L 619 135 L 619 135 L 619 135 L 619 135 L 619 134 L 619 134 L 620 134 L 621 133 L 622 133 L 622 133 L 622 133 L 623 132 L 623 132 L 624 132 L 624 132 L 626 131 L 627 131 L 628 131 L 628 130 L 628 130 L 628 130 L 628 130 L 628 129 L 628 129 L 629 129 L 629 129 L 629 128 L 632 128 L 634 128 L 635 127 L 636 127 L 637 127 L 638 127 L 638 126 L 638 126 L 638 126 L 639 126 L 639 125 L 639 125 L 640 125 L 640 124 L 640 124 L 641 124 L 641 124 L 641 123 L 641 123 L 641 123 L 641 122 L 641 122 L 641 122 L 642 122 L 642 121 L 643 121 L 643 121 L 644 121 L 644 120 L 644 120 L 644 120 L 645 119 L 645 119 L 645 119 L 645 119 L 646 118 L 646 118 L 647 118 L 650 118 L 651 117 L 654 117 L 654 117 L 655 116 L 657 116 L 658 116 L 658 116 L 660 115 L 664 115 L 665 115 L 666 115 L 668 114 L 669 114 L 669 114 L 670 113 L 671 113 L 671 113 L 672 113 L 673 112 L 674 112 L 675 112 L 675 111 L 676 111 L 676 111 L 676 111 L 676 110 L 677 110 L 680 110 L 680 110 L 681 109 L 682 109 L 682 109 L 683 108 L 683 108 L 684 108 L 684 108 L 684 107 L 685 107 L 685 107 L 686 107 L 686 106 L 687 106 L 688 106 L 688 105 L 688 105 L 689 105 L 689 105 L 689 104 L 690 104 L 690 104 L 691 104 L 691 103 L 691 103 L 691 103 L 691 102 L 691 102 L 693 102 L 694 102 L 695 101 L 697 101 L 698 101 L 699 100 L 699 100 L 701 100 L 703 100 L 705 99 L 706 99 L 707 99 L 707 99 L 708 98 L 710 98 L 712 98 L 712 97 L 712 97 L 712 97 L 712 97 L 712 96 L 713 96 L 714 96 L 715 96 L 715 95 L 715 95 L 716 95 L 721 94 L 721 94 L 722 94 L 723 94 L 725 93 L 725 93 L 726 93 L 726 92 L 726 92 L 726 92 L 727 92 L 728 91 L 728 91 L 729 91 L 729 91 L 729 90 L 729 90 L 730 90 L 731 89 L 734 89 L 734 89 L 738 89 L 738 88 L 739 88 L 740 88 L 740 88 L 740 87 L 740 87 L 741 87 L 743 86 L 744 86 L 745 86 L 745 86 L 746 85 L 746 85 L 747 85 L 748 85 L 750 84 L 750 84 L 750 84 L 751 83 L 751 83 L 751 83 L 751 83 L 752 82 L 753 82 L 753 82 L 754 82 L 754 81 L 755 81 L 755 81 L 756 80 L 756 80 L 756 80 L 756 80 L 759 79 L 762 79 L 763 79 L 766 78 L 766 78 L 769 78 L 769 78 L 770 77 L 770 77 L 771 77 L 771 77 L 772 76 L 774 76 L 775 76 L 778 75 L 782 75 L 782 75 L 782 75 L 782 74 L 782 74 L 784 74 L 784 74 L 784 73 L 791 73 L 794 73 L 794 72 L 795 72 L 796 72 L 798 72 L 800 71 L 801 71 L 801 71 L 802 71 L 803 70 L 807 70 L 808 70 L 809 69 L 810 69 L 812 69 L 812 69 L 812 68 L 812 68 L 813 68 L 813 67 L 813 67 L 815 67 L 817 67 L 818 66 L 818 66 L 818 66 L 820 66 L 823 65 L 825 65 L 825 65 L 826 64 L 827 64 L 827 64 L 827 64 L 827 63 L 827 63 L 827 63 L 829 63 L 830 62 L 830 62 L 831 62 L 831 61 L 831 61 L 831 61 L 831 61 L 831 60 L 831 60 L 832 60 L 832 60 L 832 59 L 833 59 L 833 59 L 833 58 L 834 58 L 834 58 L 834 58 L 834 57 L 835 57 L 840 57 L 840 56 L 841 56 L 842 56 L 842 56 L 842 55 L 842 55 L 842 55 L 842 55 L 842 54 L 842 54 L 842 54 L 842 53 L 842 53 L 842 53 L 842 53 L 842 52 L 842 52 L 842 52 L 842 52 L 843 51 L 843 51 L 844 51 L 844 50 L 845 50 L 845 50 L 846 50 L 847 49 L 848 49 L 848 49 L 849 49 L 849 48 L 850 48 L 850 48 L 851 47 L 852 47 L 853 47 L 854 47 L 854 46 L 855 46 L 856 46 L 856 45 L 858 45 L 858 45 L 859 45 L 860 44 L 861 44 L 861 44 L 861 44 L 862 43 L 863 43 L 863 43 L 864 42 L 864 42 L 865 42 L 868 42 L 871 41 L 871 41 L 872 41 L 876 41 L 876 40 L 876 40 L 877 40 L 877 39 L 877 39 L 878 39 L 879 39 L 880 38 L 881 38 L 881 38 L 881 38 L 881 37 L 882 37 L 882 37 L 886 36 L 886 36 L 887 36 L 887 36 L 889 35 L 889 35 L 895 35 L 895 34 L 896 34 L 897 34 L 897 34 L 898 33 L 899 33 L 900 33 L 900 33 L 900 32 L 900 32 L 900 32 L 904 31 L 906 31 L 906 31 L 908 31 L 909 30 L 909 30 L 910 30 L 910 30 L 910 29 L 911 29 L 911 29 L 913 28 L 913 28 L 915 28 L 915 28 L 915 27 L 915 27 L 919 27 L 919 27 L 921 26 L 921 26 L 922 26 L 925 25 L 928 25 L 932 25 L 933 25 L 935 24 L 936 24 L 936 24 L 937 23 L 937 23" /><path stroke-width="2" class="series" d="M 58 345 L 60 345 L 71 345 L 71 344 L 71 344 L 71 344 L 71 344 L 71 343 L 71 343 L 71 343 L 71 342 L 71 342 L 71 342 L 72 342 L 72 341 L 72 341 L 72 341 L 72 341 L 72 340 L 72 340 L 73 340 L 73 339 L 74 339 L 74 339 L 74 339 L 74 338 L 75 338 L 75 338 L 76 338 L 76 337 L 77 337 L 78 337 L 81 336 L 81 336 L 81 336 L 82 336 L 82 335 L 84 335 L 84 335 L 85 335 L 87 334 L 89 334 L 90 334 L 95 333 L 97 333 L 99 333 L 102 333 L 103 332 L 114 332 L 114 332 L 115 331 L 115 331 L 115 331 L 115 331 L 115 330 L 115 330 L 115 330 L 115 330 L 115 329 L 115 329 L 115 329 L 115 328 L 116 328 L 116 328 L 116 328 L 116 327 L 116 327 L 116 327 L 116 327 L 116 326 L 116 326 L 116 326 L 116 325 L 116 325 L 116 325 L 116 325 L 116 324 L 116 324 L 116 324 L 116 324 L 116 323 L 116 323 L 116 323 L 116 322 L 116 322 L 116 322 L 116 322 L 116 321 L 116 321 L 116 321 L 116 320 L 116 320 L 116 320 L 116 320 L 116 319 L 116 319 L 116 319 L 116 319 L 117 318 L 117 318 L 117 318 L 117 317 L 117 317 L 117 317 L 118 317 L 118 316 L 118 316 L 118 316 L 118 316 L 118 315 L 118 315 L 118 315 L 118 314 L 118 314 L 118 314 L 118 314 L 118 313 L 118 313 L 118 313 L 118 313 L 118 312 L 118 312 L 119 312 L 119 311 L 119 311 L 119 311 L 121 311 L 121 310 L 121 310 L 122 310 L 122 309 L 124 309 L 126 309 L 126 309 L 127 308 L 128 308 L 129 308 L 129 308 L 130 307 L 131 307 L 131 307 L 132 306 L 133 306 L 133 306 L 134 306 L 134 305 L 134 305 L 134 305 L 135 305 L 136 304 L 136 304 L 136 304 L 137 303 L 137 303 L 137 303 L 138 303 L 139 302 L 141 302 L 141 302 L 142 302 L 143 301 L 143 301 L 143 301 L 144 300 L 148 300 L 148 300 L 149 300 L 153 299 L 153 299 L 153 299 L 153 298 L 153 298 L 154 298 L 155 298 L 156 297 L 156 297 L 161 297 L 162 297 L 163 296 L 165 296 L 166 296 L 166 295 L 167 295 L 170 295 L 174 295 L 179 294 L 179 294 L 179 294 L 179 294 L 179 293 L 186 293 L 189 293 L 189 292 L 191 292 L 192 292 L 192 292 L 199 291 L 199 291 L 199 291 L 200 291 L 200 290 L 203 290 L 204 290 L 205 289 L 207 289 L 210 289 L 211 289 L 211 288 L 211 288 L 211 288 L 212 287 L 214 287 L 217 287 L 226 287 L 229 286 L 230 286 L 231 286 L 233 286 L 233 285 L 233 285 L 233 285 L 233 284 L 233 284 L 233 284 L 233 284 L 233 283 L 233 283 L 233 283 L 233 283 L 233 282 L 233 282 L 233 282 L 235 281 L 235 281 L 235 281 L 235 281 L 236 280 L 236 280 L 236 280 L 236 280 L 236 279 L 236 279 L 236 279 L 237 278 L 237 278 L 238 278 L 238 278 L 238 277 L 238 277 L 238 277 L 239 276 L 239 276 L 239 276 L 239 276 L 240 275 L 240 275 L 240 275 L 241 275 L 242 274 L 243 274 L 244 274 L 244 273 L 245 273 L 245 273 L 245 273 L 245 272 L 245 272 L 246 272 L 246 272 L 248 271 L 248 271 L 248 271 L 249 270 L 250 270 L 251 270 L 252 270 L 253 269 L 253 269 L 254 269 L 254 269 L 257 268 L 257 268 L 257 268 L 260 267 L 261 267 L 264 267 L 264 267 L 264 266 L 265 266 L 265 266 L 265 265 L 267 265 L 269 265 L 270 265 L 270 264 L 272 264 L 272 264 L 272 264 L 272 263 L 272 263 L 272 263 L 272 262 L 273 262 L 273 262 L 273 262 L 274 261 L 277 261 L 280 261 L 280 261 L 281 260 L 283 260 L 284 260 L 285 259 L 285 259 L 286 259 L 287 259 L 287 258 L 287 258 L 287 258 L 287 258 L 287 257 L 287 257 L 287 257 L 287 256 L 288 256 L 289 256 L 289 256 L 289 255 L 290 255 L 290 255 L 290 254 L 290 254 L 290 254 L 290 254 L 290 253 L 290 253 L 290 253 L 293 253 L 295 252 L 295 252 L 295 252 L 303 251 L 303 251 L 305 251 L 307 251 L 313 250 L 315 250 L 315 250 L 315 250 L 315 249 L 315 249 L 315 249 L 315 248 L 316 248 L 317 248 L 322 248 L 324 247 L 326 247 L 330 247 L 333 247 L 335 246 L 337 246 L 340 246 L 340 245 L 347 245 L 353 245 L 353 245 L 358 244 L 358 244 L 361 244 L 362 243 L 364 243 L 364 243 L 365 243 L 365 242 L 367 242 L 367 242 L 369 242 L 372 241 L 372 241 L 373 241 L 373 240 L 376 240 L 378 240 L 378 240 L 381 239 L 384 239 L 384 239 L 384 239 L 385 238 L 386 238 L 387 238 L 389 237 L 391 237 L 392 237 L 394 237 L 394 236 L 398 236 L 398 236 L 400 236 L 403 235 L 403 235 L 407 235 L 407 234 L 407 234 L 408 234 L 408 234 L 410 233 L 410 233 L 412 233 L 414 232 L 414 232 L 414 232 L 415 232 L 420 231 L 420 231 L 420 231 L 421 231 L 421 230 L 421 230 L 422 230 L 422 229 L 422 229 L 423 229 L 423 229 L 425 228 L 425 228 L 425 228 L 426 228 L 426 227 L 426 227 L 427 227 L 427 226 L 427 226 L 428 226 L 428 226 L 428 225 L 428 225 L 429 225 L 430 225 L 430 224 L 430 224 L 431 224 L 431 223 L 432 223 L 432 223 L 433 223 L 433 222 L 434 222 L 435 222 L 435 221 L 435 221 L 437 221 L 437 221 L 437 220 L 437 220 L 438 220 L 438 220 L 438 219 L 438 219 L 438 219 L 439 218 L 441 218 L 442 218 L 443 218 L 443 217 L 445 217 L 446 217 L 446 217 L 448 216 L 449 216 L 451 216 L 453 215 L 453 215 L 453 215 L 454 215 L 454 214 L 454 214 L 454 214 L 454 214 L 455 213 L 455 213 L 455 213 L 455 212 L 456 212 L 457 212 L 457 212 L 458 211 L 458 211 L 460 211 L 460 210 L 460 210 L 461 210 L 461 210 L 463 209 L 468 209 L 468 209 L 468 209 L 468 208 L 469 208 L 471 208 L 471 207 L 471 207 L 471 207 L 472 207 L 473 206 L 475 206 L 475 206 L 476 206 L 476 205 L 477 205 L 477 205 L 477 204 L 477 204 L 479 204 L 482 204 L 482 203 L 485 203 L 485 203 L 485 203 L 488 202 L 489 202 L 491 202 L 492 201 L 493 201 L 494 201 L 494 201 L 494 200 L 494 200 L 494 200 L 494 199 L 495 199 L 495 199 L 495 199 L 496 198 L 496 198 L 496 198 L 497 198 L 498 197 L 498 197 L 501 197 L 502 196 L 505 196 L 507 196 L 507 196 L 508 195 L 508 195 L 510 195 L 511 195 L 511 194 L 511 194 L 511 194 L 511 193 L 511 193 L 511 193 L 512 193 L 512 192 L 512 192 L 512 192 L 512 192 L 513 191 L 513 191 L 514 191 L 514 190 L 515 190 L 515 190 L 516 190 L 516 189 L 516 189 L 516 189 L 517 188 L 519 188 L 519 188 L 519 188 L 519 187 L 519 187 L 520 187 L 520 187 L 520 186 L 521 186 L 523 186 L 524 185 L 527 185 L 527 185 L 528 185 L 531 184 L 533 184 L 534 184 L 536 184 L 539 183 L 539 183 L 539 183 L 542 182 L 543 182 L 544 182 L 544 182 L 544 181 L 550 181 L 550 181 L 551 181 L 551 180 L 552 180 L 552 180 L 553 179 L 553 179 L 553 179 L 554 179 L 554 178 L 554 178 L 555 178 L 555 177 L 555 177 L 555 177 L 555 177 L 555 176 L 555 176 L 556 176 L 557 176 L 558 175 L 558 175 L 558 175 L 559 174 L 559 174 L 560 174 L 560 174 L 561 173 L 561 173 L 561 173 L 561 173 L 562 172 L 563 172 L 564 172 L 564 171 L 564 171 L 565 171 L 565 171 L 565 170 L 566 170 L 566 170 L 566 170 L 566 169 L 567 169 L 567 169 L 567 168 L 568 168 L 569 168 L 569 168 L 569 167 L 569 167 L 569 167 L 570 166 L 570 166 L 570 166 L 571 166 L 571 165 L 571 165 L 571 165 L 572 165 L 572 164 L 572 164 L 572 164 L 572 163 L 572 163 L 572 163 L 572 163 L 573 162 L 573 162 L 574 162 L 575 162 L 577 161 L 577 161 L 577 161 L 577 160 L 578 160 L 579 160 L 579 160 L 580 159 L 581 159 L 583 159 L 583 159 L 584 158 L 585 158 L 585 158 L 586 157 L 586 157 L 586 157 L 586 157 L 586 156 L 586 156 L 586 156 L 586 155 L 587 155 L 587 155 L 587 155 L 587 154 L 587 154 L 587 154 L 588 154 L 588 153 L 588 153 L 589 153 L 590 152 L 590 152 L 590 152 L 590 152 L 591 151 L 591 151 L 592 151 L 595 151 L 595 150 L 595 150 L 595 150 L 595 149 L 597 149 L 598 149 L 598 149 L 600 148 L 600 148 L 600 148 L 600 148 L 601 147 L 604 147 L 606 147 L 608 146 L 609 146 L 610 146 L 611 146 L 611 145 L 611 145 L 612 145 L 612 144 L 612 144 L 613 144 L 613 144 L 613 143 L 614 143 L 616 143 L 616 143 L 616 142 L 616 142 L 616 142 L 616 141 L 616 141 L 616 141 L 616 141 L 616 140 L 616 140 L 616 140 L 616 140 L 616 139 L 616 139 L 616 139 L 616 138 L 617 138 L 617 138 L 617 138 L 617 137 L 617 137 L 617 137 L 617 137 L 618 136 L 618 136 L 618 136 L 619 135 L 619 135 L 619 135 L 619 135 L 619 134 L 619 134 L 620 134 L 621 133 L 622 133 L 622 133 L 622 133 L 623 132 L 623 132 L 624 132 L 624 132 L 626 131 L 627 131 L 628 131 L 628 130 L 628 130 L 628 130 L 628 130 L 628 129 L 628 129 L 629 129 L 629 129 L 629 128 L 632 128 L 634 128 L 635 127 L 636 127 L 637 127 L 638 127 L 638 126 L 638 126 L 638 126 L 639 126 L 639 125 L 639 125 L 640 125 L 640 124 L 640 124 L 641 124 L 641 124 L 641 123 L 641 123 L 641 123 L 641 122 L 641 122 L 641 122 L 642 122 L 642 121 L 643 121 L 643 121 L 644 121 L 644 120 L 644 120 L 644 120 L 645 119 L 645 119 L 645 119 L 645 119 L 646 118 L 646 118 L 647 118 L 650 118 L 651 117 L 654 117 L 654 117 L 655 116 L 657 116 L 658 116 L 658 116 L 660 115 L 664 115 L 665 115 L 666 115 L 668 114 L 669 114 L 669 114 L 670 113 L 671 113 L 671 113 L 672 113 L 673 112 L 674 112 L 675 112 L 675 111 L 676 111 L 676 111 L 676 111 L 676 110 L 677 110 L 680 110 L 680 110 L 681 109 L 682 109 L 682 109 L 683 108 L 683 108 L 684 108 L 684 108 L 684 107 L 685 107 L 685 107 L 686 107 L 686 106 L 687 106 L 688 106 L 688 105 L 688 105 L 689 105 L 689 105 L 689 104 L 690 104 L 690 104 L 691 104 L 691 103 L 691 103 L 691 103 L 691 102 L 691 102 L 693 102 L 694 102 L 695 101 L 697 101 L 698 101 L 699 100 L 699 100 L 701 100 L 703 100 L 705 99 L 706 99 L 707 99 L 707 99 L 708 98 L 710 98 L 712 98 L 712 97 L 712 97 L 712 97 L 712 97 L 712 96 L 713 96 L 714 96 L 715 96 L 715 95 L 715 95 L 716 95 L 721 94 L 721 94 L 722 94 L 723 94 L 725 93 L 725 93 L 726 93 L 726 92 L 726 92 L 726 92 L 727 92 L 728 91 L 728 91 L 729 91 L 729 91 L 729 90 L 729 90 L 730 90 L 731 89 L 734 89 L 734 89 L 738 89 L 738 88 L 739 88 L 740 88 L 740 88 L 740 87 L 740 87 L 741 87 L 743 86 L 744 86 L 745 86 L 745 86 L 746 85 L 746 85 L 747 85 L 748 85 L 750 84 L 750 84 L 750 84 L 751 83 L 751 83 L 751 83 L 751 83 L 752 82 L 753 82 L 753 82 L 754 82 L 754 81 L 755 81 L 755 81 L 756 80 L 756 80 L 756 80 L 756 80 L 759 79 L 762 79 L 763 79 L 766 78 L 766 78 L 769 78 L 769 78 L 770 77 L 770 77 L 771 77 L 771 77 L 772 76 L 774 76 L 775 76 L 778 75 L 782 75 L 782 75 L 782 75 L 782 74 L 782 74 L 784 74 L 784 74 L 784 73 L 791 73 L 794 73 L 794 72 L 795 72 L 796 72 L 798 72 L 800 71 L 801 71 L 801 71 L 802 71 L 803 70 L 807 70 L 808 70 L 809 69 L 810 69 L 812 69 L 812 69 L 812 68 L 812 68 L 813 68 L 813 67 L 813 67 L 815 67 L 817 67 L 818 66 L 818 66 L 818 66 L 820 66 L 823 65 L 825 65 L 825 65 L 826 64 L 827 64 L 827 64 L 827 64 L 827 63 L 827 63 L 827 63 L 829 63 L 830 62 L 830 62 L 831 62 L 831 61 L 831 61 L 831 61 L 831 61 L 831 60 L 831 60 L 832 60 L 832 60 L 832 59 L 833 59 L 833 59 L 833 58 L 834 58 L 834 58 L 834 58 L 834 57 L 835 57 L 840 57 L 840 56 L 841 56 L 842 56 L 842 56 L 842 55 L 842 55 L 842 55 L 842 55 L 842 54 L 842 54 L 842 54 L 842 53 L 842 53 L 842 53 L 842 53 L 842 52 L 842 52 L 842 52 L 842 52 L 843 51 L 843 51 L 844 51 L 844 50 L 845 50 L 845 50 L 846 50 L 847 49 L 848 49 L 848 49 L 849 49 L 849 48 L 850 48 L 850 48 L 851 47 L 852 47 L 853 47 L 854 47 L 854 46 L 855 46 L 856 46 L 856 45 L 858 45 L 858 45 L 859 45 L 860 44 L 861 44 L 861 44 L 861 44 L 862 43 L 863 43 L 863 43 L 864 42 L 864 42 L 865 42 L 868 42 L 871 41 L 871 41 L 872 41 L 876 41 L 876 40 L 876 40 L 877 40 L 877 39 L 877 39 L 878 39 L 879 39 L 880 38 L 881 38 L 881 38 L 881 38 L 881 37 L 882 37 L 882 37 L 886 36 L 886 36 L 887 36 L 887 36 L 889 35 L 889 35 L 895 35 L 895 34 L 896 34 L 897 34 L 897 34 L 898 33 L 899 33 L 900 33 L 900 33 L 900 32 L 900 32 L 900 32 L 904 31 L 906 31 L 906 31 L 908 31 L 909 30 L 909 30 L 910 30 L 910 30 L 910 29 L 911 29 L 911 29 L 913 28 L 913 28 L 915 28 L 915 28 L 915 27 L 915 27 L 919 27 L 919 27 L 921 26 L 921 26 L 922 26 L 925 25 L 928 25 L 932 25 L 933 25 L 935 24 L 936 24 L 936 24 L 937 23 L 937 23"></path><path stroke-width="2" d="M 937 346 L 937.000000 15.000000" /><path stroke-width="2" d="M 937 346 L 937.000000 15.000000"></path><path stroke-width="2" d="M 937 346 L 942 346" /><path stroke-width="2" d="M 937 346 L 942 346"></path><text xmlns="http://www.w3.org/2000/svg" x="947" y="352">0</text><path stroke-width="2" d="M 937 307 L 942 307" /><path stroke-width="2" d="M 937 307 L 942 307"></path><text xmlns="http://www.w3.org/2000/svg" x="947" y="313">140</text><path stroke-width="2" d="M 937 271 L 942 271" /><path stroke-width="2" d="M 937 271 L 942 271"></path><text xmlns="http://www.w3.org/2000/svg" x="947" y="277">270</text><path stroke-width="2" d="M 937 236 L 942 236" /><path stroke-width="2" d="M 937 236 L 942 236"></path><text xmlns="http://www.w3.org/2000/svg" x="947" y="242">400</text><path stroke-width="2" d="M 937 197 L 942 197" /><path stroke-width="2" d="M 937 197 L 942 197"></path><text xmlns="http://www.w3.org/2000/svg" x="947" y="203">540</text><path stroke-width="2" d="M 937 161 L 942 161" /><path stroke-width="2" d="M 937 161 L 942 161"></path><text y="167" xmlns="http://www.w3.org/2000/svg" x="947">670</text><path stroke-width="2" d="M 937 126 L 942 126" /><path stroke-width="2" d="M 937 126 L 942 126"></path><text xmlns="http://www.w3.org/2000/svg" x="947" y="132">800</text><path stroke-width="2" d="M 937 87 L 942 87" /><path d="M 937 87 L 942 87" stroke-width="2"></path><text xmlns="http://www.w3.org/2000/svg" x="947" y="93">940</text><path stroke-width="2" d="M 937 51 L 942 51" /><path stroke-width="2" d="M 937 51 L 942 51"></path><text xmlns="http://www.w3.org/2000/svg" x="947" y="57">1070</text><path stroke-width="2" d="M 937 16 L 942 16" /><path stroke-width="2" d="M 937 16 L 942 16"></path><text x="947" y="22" xmlns="http://www.w3.org/2000/svg">1200</text><text x="987" y="175" transform="rotate(90.00,987,175)" xmlns="http://www.w3.org/2000/svg">Stargazers</text><path stroke-width="2" d="M 57.000000 346.000000 L 937 346" /><path stroke-width="2" d="M 57.000000 346.000000 L 937 346"></path><path stroke-width="2" d="M 58 346 L 58 351" /><path d="M 58 346 L 58 351" stroke-width="2"></path><text xmlns="http://www.w3.org/2000/svg" x="25" y="368">2023-04-02</text><path stroke-width="2" d="M 156 346 L 156 351" /><path d="M 156 346 L 156 351" stroke-width="2"></path><text xmlns="http://www.w3.org/2000/svg" x="123" y="368">2023-07-21</text><path stroke-width="2" d="M 254 346 L 254 351" /><path stroke-width="2" d="M 254 346 L 254 351"></path><text xmlns="http://www.w3.org/2000/svg" x="221" y="368">2023-11-08</text><path stroke-width="2" d="M 352 346 L 352 351" /><path stroke-width="2" d="M 352 346 L 352 351"></path><text xmlns="http://www.w3.org/2000/svg" x="319" y="368">2024-02-26</text><path stroke-width="2" d="M 449 346 L 449 351" /><path stroke-width="2" d="M 449 346 L 449 351"></path><text x="416" y="368" xmlns="http://www.w3.org/2000/svg">2024-06-15</text><path stroke-width="2" d="M 547 346 L 547 351" /><path d="M 547 346 L 547 351" stroke-width="2"></path><text xmlns="http://www.w3.org/2000/svg" x="514" y="368">2024-10-03</text><path stroke-width="2" d="M 645 346 L 645 351" /><path stroke-width="2" d="M 645 346 L 645 351"></path><text y="368" xmlns="http://www.w3.org/2000/svg" x="612">2025-01-21</text><path stroke-width="2" d="M 742 346 L 742 351" /><path stroke-width="2" d="M 742 346 L 742 351"></path><text xmlns="http://www.w3.org/2000/svg" x="709" y="368">2025-05-11</text><path stroke-width="2" d="M 840 346 L 840 351" /><path stroke-width="2" d="M 840 346 L 840 351"></path><text xmlns="http://www.w3.org/2000/svg" x="807" y="368">2025-08-29</text><path stroke-width="2" d="M 937 346 L 937 351" /><path stroke-width="2" d="M 937 346 L 937 351"></path><text xmlns="http://www.w3.org/2000/svg" x="904" y="368">2025-12-17</text><text xmlns="http://www.w3.org/2000/svg" x="483" y="390">Time</text></svg>