<svg xmlns="http://www.w3.org/2000/svg" xmlns:xlink="http://www.w3.org/1999/xlink" width="1024" height="400">\n<path  d="M 0 0
L 1024 0
L 1024 400
L 0 400
L 0 0" style="stroke-width:0;stroke:rgba(255,255,255,1.0);fill:rgba(255,255,255,1.0)"/><path  d="M 38 11
L 965 11
L 965 351
L 38 351
L 38 11" style="stroke-width:0;stroke:rgba(255,255,255,1.0);fill:rgba(255,255,255,1.0)"/><path  d="M 38 351
L 965 351" style="stroke-width:2;stroke:rgba(85,85,85,1.0);fill:none"/><path  d="M 38 351
L 38 356" style="stroke-width:2;stroke:rgba(85,85,85,1.0);fill:none"/><text x="5" y="373" style="stroke-width:0;stroke:none;fill:rgba(51,51,51,1.0);font-size:12.8px;font-family:'Roboto Medium',sans-serif">2023-04-02</text><path  d="M 154 351
L 154 356" style="stroke-width:2;stroke:rgba(85,85,85,1.0);fill:none"/><text x="121" y="373" style="stroke-width:0;stroke:none;fill:rgba(51,51,51,1.0);font-size:12.8px;font-family:'Roboto Medium',sans-serif">2023-04-30</text><path  d="M 270 351
L 270 356" style="stroke-width:2;stroke:rgba(85,85,85,1.0);fill:none"/><text x="237" y="373" style="stroke-width:0;stroke:none;fill:rgba(51,51,51,1.0);font-size:12.8px;font-family:'Roboto Medium',sans-serif">2023-05-28</text><path  d="M 386 351
L 386 356" style="stroke-width:2;stroke:rgba(85,85,85,1.0);fill:none"/><text x="353" y="373" style="stroke-width:0;stroke:none;fill:rgba(51,51,51,1.0);font-size:12.8px;font-family:'Roboto Medium',sans-serif">2023-06-25</text><path  d="M 502 351
L 502 356" style="stroke-width:2;stroke:rgba(85,85,85,1.0);fill:none"/><text x="469" y="373" style="stroke-width:0;stroke:none;fill:rgba(51,51,51,1.0);font-size:12.8px;font-family:'Roboto Medium',sans-serif">2023-07-23</text><path  d="M 618 351
L 618 356" style="stroke-width:2;stroke:rgba(85,85,85,1.0);fill:none"/><text x="585" y="373" style="stroke-width:0;stroke:none;fill:rgba(51,51,51,1.0);font-size:12.8px;font-family:'Roboto Medium',sans-serif">2023-08-20</text><path  d="M 734 351
L 734 356" style="stroke-width:2;stroke:rgba(85,85,85,1.0);fill:none"/><text x="701" y="373" style="stroke-width:0;stroke:none;fill:rgba(51,51,51,1.0);font-size:12.8px;font-family:'Roboto Medium',sans-serif">2023-09-17</text><path  d="M 850 351
L 850 356" style="stroke-width:2;stroke:rgba(85,85,85,1.0);fill:none"/><text x="817" y="373" style="stroke-width:0;stroke:none;fill:rgba(51,51,51,1.0);font-size:12.8px;font-family:'Roboto Medium',sans-serif">2023-10-15</text><path  d="M 965 351
L 965 356" style="stroke-width:2;stroke:rgba(85,85,85,1.0);fill:none"/><text x="932" y="373" style="stroke-width:0;stroke:none;fill:rgba(51,51,51,1.0);font-size:12.8px;font-family:'Roboto Medium',sans-serif">2023-11-12</text><text x="487" y="395" style="stroke-width:0;stroke:none;fill:rgba(51,51,51,1.0);font-size:12.8px;font-family:'Roboto Medium',sans-serif">Time</text><path  d="M 967 351
L 967 11" style="stroke-width:2;stroke:rgba(85,85,85,1.0);fill:none"/><path  d="M 967 351
L 972 351" style="stroke-width:2;stroke:rgba(85,85,85,1.0);fill:none"/><text x="977" y="357" style="stroke-width:0;stroke:none;fill:rgba(51,51,51,1.0);font-size:12.8px;font-family:'Roboto Medium',sans-serif">0</text><path  d="M 967 307
L 972 307" style="stroke-width:2;stroke:rgba(85,85,85,1.0);fill:none"/><text x="977" y="313" style="stroke-width:0;stroke:none;fill:rgba(51,51,51,1.0);font-size:12.8px;font-family:'Roboto Medium',sans-serif">38</text><path  d="M 967 266
L 972 266" style="stroke-width:2;stroke:rgba(85,85,85,1.0);fill:none"/><text x="977" y="272" style="stroke-width:0;stroke:none;fill:rgba(51,51,51,1.0);font-size:12.8px;font-family:'Roboto Medium',sans-serif">75</text><path  d="M 967 222
L 972 222" style="stroke-width:2;stroke:rgba(85,85,85,1.0);fill:none"/><text x="977" y="228" style="stroke-width:0;stroke:none;fill:rgba(51,51,51,1.0);font-size:12.8px;font-family:'Roboto Medium',sans-serif">113</text><path  d="M 967 181
L 972 181" style="stroke-width:2;stroke:rgba(85,85,85,1.0);fill:none"/><text x="977" y="187" style="stroke-width:0;stroke:none;fill:rgba(51,51,51,1.0);font-size:12.8px;font-family:'Roboto Medium',sans-serif">150</text><path  d="M 967 137
L 972 137" style="stroke-width:2;stroke:rgba(85,85,85,1.0);fill:none"/><text x="977" y="143" style="stroke-width:0;stroke:none;fill:rgba(51,51,51,1.0);font-size:12.8px;font-family:'Roboto Medium',sans-serif">188</text><path  d="M 967 96
L 972 96" style="stroke-width:2;stroke:rgba(85,85,85,1.0);fill:none"/><text x="977" y="102" style="stroke-width:0;stroke:none;fill:rgba(51,51,51,1.0);font-size:12.8px;font-family:'Roboto Medium',sans-serif">225</text><path  d="M 967 52
L 972 52" style="stroke-width:2;stroke:rgba(85,85,85,1.0);fill:none"/><text x="977" y="58" style="stroke-width:0;stroke:none;fill:rgba(51,51,51,1.0);font-size:12.8px;font-family:'Roboto Medium',sans-serif">263</text><path  d="M 967 11
L 972 11" style="stroke-width:2;stroke:rgba(85,85,85,1.0);fill:none"/><text x="977" y="17" style="stroke-width:0;stroke:none;fill:rgba(51,51,51,1.0);font-size:12.8px;font-family:'Roboto Medium',sans-serif">300</text><text x="1009" y="150" style="stroke-width:0;stroke:none;fill:rgba(51,51,51,1.0);font-size:12.8px;font-family:'Roboto Medium',sans-serif" transform="rotate(90.00,1009,150)">Stargazers</text><path  d="M 38 351
L 46 349
L 96 348
L 97 347
L 97 346
L 97 345
L 97 344
L 97 343
L 98 341
L 98 340
L 99 339
L 99 338
L 99 337
L 99 336
L 99 335
L 99 334
L 100 332
L 100 331
L 101 330
L 101 329
L 103 328
L 105 327
L 105 326
L 109 324
L 111 323
L 111 322
L 112 321
L 113 320
L 116 319
L 122 318
L 122 317
L 126 315
L 129 314
L 145 313
L 145 312
L 145 311
L 146 310
L 146 309
L 146 307
L 146 306
L 155 305
L 159 304
L 162 303
L 169 302
L 182 301
L 187 300
L 209 298
L 216 297
L 228 296
L 241 295
L 246 294
L 293 293
L 295 292
L 296 290
L 302 289
L 303 288
L 303 287
L 303 286
L 303 285
L 303 284
L 303 283
L 304 281
L 304 280
L 304 279
L 304 278
L 304 277
L 305 276
L 306 275
L 306 273
L 306 272
L 306 271
L 306 270
L 306 269
L 306 268
L 306 267
L 306 266
L 306 264
L 306 263
L 306 262
L 306 261
L 306 260
L 306 259
L 306 258
L 306 256
L 307 255
L 307 254
L 307 253
L 307 252
L 307 251
L 307 250
L 307 249
L 307 247
L 307 246
L 307 245
L 307 244
L 307 243
L 307 242
L 307 241
L 307 239
L 307 238
L 308 237
L 308 236
L 309 235
L 310 234
L 310 233
L 310 232
L 311 230
L 312 229
L 314 228
L 314 227
L 314 226
L 314 225
L 314 224
L 314 222
L 314 221
L 314 220
L 314 219
L 314 218
L 314 217
L 314 216
L 314 215
L 314 213
L 314 212
L 315 211
L 315 210
L 316 209
L 319 208
L 319 207
L 320 205
L 320 204
L 331 203
L 332 202
L 332 201
L 336 200
L 336 199
L 343 198
L 351 196
L 353 195
L 360 194
L 363 193
L 368 192
L 369 191
L 371 190
L 378 188
L 379 187
L 381 186
L 385 185
L 386 184
L 389 183
L 390 182
L 390 181
L 391 179
L 395 178
L 399 177
L 399 176
L 401 175
L 402 174
L 402 173
L 405 171
L 411 170
L 414 169
L 421 168
L 424 167
L 427 166
L 430 165
L 430 163
L 431 162
L 436 161
L 456 160
L 457 159
L 460 158
L 479 157
L 480 156
L 480 154
L 480 153
L 481 152
L 484 151
L 490 150
L 493 149
L 494 148
L 517 147
L 522 145
L 527 144
L 534 143
L 539 142
L 539 141
L 542 140
L 559 139
L 577 137
L 598 136
L 599 135
L 600 134
L 600 133
L 601 132
L 606 131
L 634 130
L 646 128
L 647 127
L 658 126
L 660 125
L 662 124
L 692 123
L 692 122
L 694 120
L 696 119
L 700 118
L 708 117
L 712 116
L 718 115
L 722 114
L 729 113
L 746 111
L 747 110
L 750 109
L 750 108
L 751 107
L 752 106
L 761 105
L 762 103
L 779 102
L 804 101
L 817 100
L 831 99
L 832 98
L 839 97
L 840 96
L 845 94
L 849 93
L 849 92
L 849 91
L 849 90
L 849 89
L 849 88
L 849 86
L 849 85
L 850 84
L 850 83
L 850 82
L 851 81
L 851 80
L 852 79
L 853 77
L 855 76
L 859 75
L 860 74
L 861 73
L 861 72
L 861 71
L 866 69
L 866 68
L 866 67
L 866 66
L 866 65
L 866 64
L 866 63
L 869 62
L 870 60
L 871 59
L 873 58
L 874 57
L 874 56
L 874 55
L 874 54
L 877 52
L 878 51
L 878 50
L 878 49
L 881 48
L 882 47
L 883 46
L 886 45
L 889 43
L 891 42
L 896 41
L 903 40
L 904 39
L 906 38
L 906 37
L 907 35
L 907 34
L 907 33
L 912 32
L 914 31
L 920 30
L 920 29
L 923 28
L 928 26
L 933 25
L 933 24
L 941 23
L 943 22
L 944 21
L 947 20
L 947 18
L 961 17
L 964 16
L 965 15" style="stroke-width:2;stroke:rgba(129,199,239,1.0);fill:none"/></svg>