<svg xmlns="http://www.w3.org/2000/svg" xmlns:xlink="http://www.w3.org/1999/xlink" width="1024px" height="400px"><style type="text/css">
path { fill: none; stroke: rgb(51,51,51); }
path.series { stroke: #6b63ff; }
rect.background { fill: rgb(255,255,255); stroke: none; }

text {
	stroke-width: 0;
	stroke: none;
	fill: rgba(51,51,51,1.0);
	font-size: 12.8px;
	font-family: 'Roboto Medium', sans-serif;
}
</style><rect y="0" width="1024px" height="400px" class="background" rx="8" x="0" /><rect height="400px" class="background" rx="8" x="0" y="0" width="1024px"></rect><path stroke-width="2" class="series" d="M 58 345 L 60 345 L 71 345 L 71 344 L 71 344 L 71 344 L 71 344 L 71 343 L 71 343 L 71 343 L 72 342 L 72 342 L 72 342 L 72 342 L 72 341 L 72 341 L 72 341 L 72 341 L 72 340 L 73 340 L 73 340 L 73 339 L 74 339 L 74 339 L 74 339 L 74 338 L 75 338 L 76 338 L 77 338 L 77 337 L 78 337 L 78 337 L 82 336 L 82 336 L 82 336 L 82 336 L 82 335 L 84 335 L 85 335 L 86 335 L 87 334 L 90 334 L 91 334 L 96 333 L 97 333 L 100 333 L 103 333 L 104 332 L 115 332 L 115 332 L 116 331 L 116 331 L 116 331 L 116 331 L 116 330 L 116 330 L 116 330 L 117 330 L 117 329 L 117 329 L 117 329 L 117 328 L 117 328 L 117 328 L 117 328 L 117 327 L 117 327 L 117 327 L 117 327 L 117 326 L 117 326 L 117 326 L 117 325 L 117 325 L 117 325 L 117 325 L 117 324 L 117 324 L 117 324 L 117 324 L 117 323 L 117 323 L 117 323 L 117 322 L 117 322 L 117 322 L 117 322 L 117 321 L 117 321 L 117 321 L 117 320 L 117 320 L 117 320 L 117 320 L 117 319 L 117 319 L 118 319 L 118 319 L 118 318 L 118 318 L 118 318 L 118 317 L 118 317 L 118 317 L 119 317 L 119 316 L 119 316 L 119 316 L 119 316 L 119 315 L 119 315 L 119 315 L 119 314 L 119 314 L 119 314 L 119 314 L 119 313 L 119 313 L 119 313 L 119 313 L 119 312 L 119 312 L 120 312 L 120 311 L 120 311 L 120 311 L 122 311 L 123 310 L 123 310 L 124 310 L 124 309 L 125 309 L 127 309 L 127 309 L 129 308 L 129 308 L 131 308 L 131 308 L 131 307 L 133 307 L 133 307 L 134 306 L 134 306 L 135 306 L 135 306 L 135 305 L 135 305 L 136 305 L 137 305 L 137 304 L 137 304 L 138 304 L 138 303 L 138 303 L 139 303 L 140 303 L 141 302 L 142 302 L 143 302 L 143 302 L 144 301 L 144 301 L 144 301 L 145 300 L 150 300 L 150 300 L 151 300 L 155 299 L 155 299 L 155 299 L 155 298 L 155 298 L 156 298 L 157 298 L 158 297 L 158 297 L 163 297 L 164 297 L 165 296 L 167 296 L 168 296 L 168 295 L 169 295 L 172 295 L 176 295 L 181 294 L 181 294 L 181 294 L 181 294 L 182 293 L 189 293 L 192 293 L 192 292 L 194 292 L 194 292 L 195 292 L 202 291 L 202 291 L 202 291 L 202 291 L 203 290 L 206 290 L 207 290 L 208 289 L 210 289 L 213 289 L 214 289 L 214 288 L 214 288 L 214 288 L 215 287 L 217 287 L 221 287 L 229 287 L 232 286 L 234 286 L 234 286 L 236 286 L 236 285 L 236 285 L 236 285 L 236 284 L 236 284 L 236 284 L 236 284 L 236 283 L 236 283 L 236 283 L 236 283 L 236 282 L 237 282 L 237 282 L 238 281 L 238 281 L 239 281 L 239 281 L 240 280 L 240 280 L 240 280 L 240 280 L 240 279 L 240 279 L 240 279 L 240 278 L 241 278 L 241 278 L 241 278 L 241 277 L 241 277 L 241 277 L 242 276 L 242 276 L 242 276 L 243 276 L 243 275 L 243 275 L 244 275 L 245 275 L 245 274 L 246 274 L 248 274 L 248 273 L 248 273 L 248 273 L 248 273 L 249 272 L 249 272 L 250 272 L 250 272 L 251 271 L 251 271 L 252 271 L 253 270 L 254 270 L 254 270 L 256 270 L 256 269 L 257 269 L 257 269 L 257 269 L 260 268 L 261 268 L 261 268 L 264 267 L 265 267 L 268 267 L 268 267 L 268 266 L 269 266 L 269 266 L 269 265 L 271 265 L 273 265 L 274 265 L 274 264 L 276 264 L 276 264 L 276 264 L 276 263 L 276 263 L 277 263 L 277 262 L 277 262 L 277 262 L 278 262 L 278 261 L 281 261 L 285 261 L 285 261 L 285 260 L 287 260 L 289 260 L 289 259 L 289 259 L 290 259 L 291 259 L 291 258 L 291 258 L 291 258 L 291 258 L 291 257 L 291 257 L 292 257 L 292 256 L 292 256 L 294 256 L 294 256 L 294 255 L 294 255 L 294 255 L 294 254 L 294 254 L 294 254 L 295 254 L 295 253 L 295 253 L 295 253 L 295 253 L 297 252 L 299 252 L 299 252 L 300 251 L 307 251 L 308 251 L 310 251 L 312 250 L 318 250 L 320 250 L 320 250 L 320 249 L 320 249 L 320 249 L 320 248 L 320 248 L 321 248 L 322 248 L 327 247 L 329 247 L 331 247 L 335 247 L 338 246 L 341 246 L 343 246 L 346 245 L 346 245 L 352 245 L 359 245 L 359 244 L 363 244 L 364 244 L 367 243 L 368 243 L 370 243 L 370 243 L 371 242 L 371 242 L 373 242 L 373 242 L 375 241 L 378 241 L 378 241 L 379 240 L 380 240 L 382 240 L 384 240 L 384 239 L 387 239 L 390 239 L 391 239 L 391 238 L 392 238 L 392 238 L 393 237 L 395 237 L 397 237 L 399 237 L 401 236 L 401 236 L 404 236 L 405 236 L 407 235 L 410 235 L 410 235 L 413 234 L 414 234 L 414 234 L 415 234 L 415 233 L 417 233 L 417 233 L 419 232 L 421 232 L 421 232 L 421 232 L 422 231 L 427 231 L 427 231 L 428 231 L 428 230 L 428 230 L 429 230 L 429 229 L 429 229 L 429 229 L 431 229 L 431 228 L 432 228 L 432 228 L 433 228 L 433 227 L 433 227 L 433 227 L 434 226 L 434 226 L 434 226 L 435 226 L 435 225 L 435 225 L 435 225 L 436 225 L 437 224 L 437 224 L 437 224 L 438 223 L 438 223 L 439 223 L 440 223 L 440 222 L 440 222 L 441 222 L 442 221 L 442 221 L 443 221 L 444 221 L 444 220 L 444 220 L 445 220 L 445 220 L 445 219 L 445 219 L 446 219 L 446 218 L 447 218 L 449 218 L 450 218 L 451 217 L 451 217 L 452 217 L 453 217 L 454 216 L 455 216 L 457 216 L 459 215 L 461 215 L 461 215 L 461 215 L 461 214 L 461 214 L 462 214 L 462 214 L 462 213 L 463 213 L 463 213 L 463 212 L 463 212 L 464 212 L 465 212 L 465 211 L 466 211 L 466 211 L 468 210 L 468 210 L 468 210 L 469 210 L 469 209 L 471 209 L 476 209 L 476 209 L 476 208 L 476 208 L 477 208 L 479 207 L 479 207 L 479 207 L 479 207 L 480 206 L 481 206 L 483 206 L 484 206 L 484 205 L 484 205 L 485 205 L 485 204 L 485 204 L 486 204 L 488 204 L 490 203 L 490 203 L 493 203 L 493 203 L 494 202 L 496 202 L 497 202 L 499 201 L 500 201 L 501 201 L 502 201 L 502 200 L 503 200 L 503 200 L 503 199 L 503 199 L 504 199 L 504 199 L 504 198 L 505 198 L 505 198 L 505 198 L 506 197 L 506 197 L 507 197 L 510 196 L 510 196 L 514 196 L 516 196 L 516 195 L 516 195 L 517 195 L 519 195 L 519 194 L 520 194 L 520 194 L 520 193 L 520 193 L 520 193 L 520 193 L 521 192 L 521 192 L 521 192 L 521 192 L 521 191 L 522 191 L 522 191 L 523 190 L 523 190 L 524 190 L 524 190 L 525 189 L 525 189 L 525 189 L 525 188 L 526 188 L 528 188 L 528 188 L 528 187 L 528 187 L 528 187 L 529 187 L 529 186 L 529 186 L 530 186 L 532 185 L 534 185 L 536 185 L 536 185 L 538 184 L 540 184 L 543 184 L 543 184 L 545 183 L 548 183 L 548 183 L 548 182 L 552 182 L 553 182 L 553 182 L 553 181 L 554 181 L 560 181 L 560 181 L 561 180 L 561 180 L 561 180 L 562 179 L 562 179 L 563 179 L 563 179 L 564 178 L 564 178 L 564 178 L 564 177 L 564 177 L 564 177 L 565 177 L 565 176 L 565 176 L 565 176 L 566 176 L 567 175 L 568 175 L 568 175 L 568 174 L 569 174 L 569 174 L 570 174 L 570 173 L 571 173 L 571 173 L 571 173 L 571 172 L 572 172 L 573 172 L 574 171 L 574 171 L 574 171 L 575 171 L 575 170 L 575 170 L 575 170 L 576 170 L 576 169 L 576 169 L 577 169 L 577 168 L 577 168 L 578 168 L 579 168 L 579 167 L 579 167 L 579 167 L 579 166 L 580 166 L 580 166 L 580 166 L 581 165 L 581 165 L 581 165 L 581 165 L 582 164 L 582 164 L 582 164 L 582 163 L 582 163 L 582 163 L 583 163 L 583 162 L 583 162 L 583 162 L 584 162 L 585 161 L 587 161 L 587 161 L 587 160 L 587 160 L 588 160 L 589 160 L 589 159 L 590 159 L 592 159 L 593 159 L 593 158 L 595 158 L 595 158 L 595 157 L 596 157 L 596 157 L 596 157 L 596 156 L 596 156 L 597 156 L 597 155 L 597 155 L 597 155 L 597 155 L 597 154 L 597 154 L 597 154 L 598 154 L 598 153 L 598 153 L 599 153 L 599 152 L 600 152 L 601 152 L 601 152 L 601 151 L 602 151 L 602 151 L 603 151 L 605 150 L 605 150 L 605 150 L 605 149 L 605 149 L 607 149 L 609 149 L 609 148 L 610 148 L 610 148 L 611 148 L 611 147 L 611 147 L 615 147 L 617 146 L 619 146 L 620 146 L 621 146 L 621 145 L 622 145 L 622 145 L 623 144 L 623 144 L 623 144 L 624 144 L 624 143 L 624 143 L 625 143 L 627 143 L 627 142 L 627 142 L 627 142 L 627 141 L 627 141 L 627 141 L 627 141 L 627 140 L 627 140 L 627 140 L 627 140 L 627 139 L 627 139 L 627 139 L 627 138 L 627 138 L 628 138 L 628 138 L 628 137 L 628 137 L 628 137 L 628 137 L 628 136 L 629 136 L 629 136 L 629 135 L 630 135 L 630 135 L 630 135 L 630 134 L 630 134 L 630 134 L 631 133 L 632 133 L 633 133 L 633 133 L 633 132 L 634 132 L 635 132 L 635 132 L 635 131 L 637 131 L 638 131 L 639 130 L 639 130 L 639 130 L 639 130 L 639 129 L 639 129 L 639 129 L 640 129 L 641 128 L 641 128 L 644 128 L 645 127 L 646 127 L 648 127 L 649 127 L 649 126 L 649 126 L 649 126 L 650 126 L 650 125 L 650 125 L 651 125 L 651 124 L 652 124 L 652 124 L 652 124 L 652 123 L 652 123 L 652 123 L 652 122 L 652 122 L 653 122 L 653 122 L 653 121 L 653 121 L 654 121 L 655 121 L 655 120 L 655 120 L 656 120 L 656 119 L 656 119 L 657 119 L 657 119 L 657 118 L 657 118 L 658 118 L 659 118 L 662 117 L 663 117 L 665 117 L 666 116 L 667 116 L 669 116 L 669 116 L 670 115 L 672 115 L 676 115 L 677 115 L 678 114 L 679 114 L 681 114 L 681 113 L 682 113 L 683 113 L 683 113 L 684 112 L 685 112 L 686 112 L 687 111 L 687 111 L 688 111 L 688 111 L 688 110 L 689 110 L 689 110 L 692 110 L 692 109 L 693 109 L 694 109 L 694 108 L 695 108 L 696 108 L 696 108 L 697 107 L 697 107 L 697 107 L 697 107 L 698 106 L 698 106 L 699 106 L 700 105 L 700 105 L 700 105 L 701 105 L 702 104 L 702 104 L 702 104 L 703 104 L 703 103 L 703 103 L 703 103 L 703 102 L 703 102 L 704 102 L 706 102 L 707 101 L 707 101 L 710 101 L 710 100 L 711 100 L 712 100 L 714 100 L 716 99 L 717 99 L 718 99 L 719 99 L 720 98 L 721 98 L 723 98 L 724 97 L 724 97 L 725 97 L 725 97 L 725 96 L 725 96 L 726 96 L 727 96 L 727 95 L 728 95 L 728 95 L 728 94 L 733 94 L 734 94 L 735 94 L 736 93 L 738 93 L 738 93 L 739 92 L 739 92 L 739 92 L 740 92 L 741 91 L 741 91 L 741 91 L 742 91 L 742 90 L 742 90 L 743 90 L 743 89 L 744 89 L 747 89 L 747 89 L 751 88 L 752 88 L 752 88 L 753 88 L 754 87 L 754 87 L 754 87 L 754 86 L 756 86 L 757 86 L 759 86 L 759 85 L 759 85 L 759 85 L 761 85 L 762 84 L 764 84 L 764 84 L 764 83 L 764 83 L 765 83 L 765 83 L 765 82 L 766 82 L 766 82 L 766 82 L 768 81 L 768 81 L 769 81 L 769 80 L 769 80 L 769 80 L 770 80 L 770 79 L 773 79 L 776 79 L 776 78 L 780 78 L 780 78 L 782 78 L 783 77 L 783 77 L 784 77 L 785 77 L 785 76 L 786 76 L 788 76 L 789 75 L 792 75 L 796 75 L 796 75 L 796 74 L 796 74 L 796 74 L 798 74 L 798 73 L 798 73 L 806 73 L 808 72 L 808 72 L 809 72 L 811 72 L 813 71 L 814 71 L 815 71 L 815 71 L 816 70 L 817 70 L 822 70 L 822 69 L 823 69 L 824 69 L 826 69 L 827 68 L 827 68 L 827 68 L 827 67 L 827 67 L 828 67 L 828 67 L 830 66 L 832 66 L 832 66 L 832 66 L 833 65 L 835 65 L 838 65 L 839 64 L 840 64 L 841 64 L 842 64 L 842 63 L 842 63 L 842 63 L 842 63 L 842 62 L 844 62 L 845 62 L 845 61 L 846 61 L 846 61 L 846 61 L 846 60 L 846 60 L 847 60 L 847 60 L 847 59 L 847 59 L 847 59 L 848 58 L 848 58 L 849 58 L 849 58 L 849 57 L 849 57 L 849 57 L 850 56 L 855 56 L 856 56 L 857 56 L 857 55 L 857 55 L 857 55 L 857 55 L 857 54 L 858 54 L 858 54 L 858 53 L 858 53 L 858 53 L 858 53 L 858 52 L 858 52 L 858 52 L 858 52 L 858 51 L 858 51 L 859 51 L 859 50 L 859 50 L 859 50 L 860 50 L 860 49 L 862 49 L 863 49 L 863 49 L 863 48 L 864 48 L 864 48 L 866 47 L 866 47 L 866 47 L 868 47 L 869 46 L 870 46 L 870 46 L 871 45 L 871 45 L 871 45 L 873 45 L 873 44 L 874 44 L 875 44 L 877 44 L 877 43 L 877 43 L 878 43 L 878 42 L 879 42 L 880 42 L 880 42 L 881 41 L 883 41 L 887 41 L 887 41 L 888 40 L 892 40 L 892 40 L 892 39 L 893 39 L 893 39 L 893 39 L 894 38 L 895 38 L 896 38 L 897 38 L 897 37 L 897 37 L 897 37 L 898 36 L 898 36 L 902 36 L 902 36 L 903 35 L 904 35 L 905 35 L 906 34 L 911 34 L 912 34 L 912 34 L 913 33 L 913 33 L 914 33 L 916 33 L 916 32 L 916 32 L 917 32 L 917 31 L 917 31 L 920 31 L 922 31 L 923 30 L 925 30 L 926 30 L 926 30 L 926 29 L 926 29 L 927 29 L 927 28 L 928 28 L 929 28 L 930 28 L 931 27 L 932 27 L 932 27 L 932 27 L 935 26 L 936 26 L 937 26 L 937 25" /><path stroke-width="2" class="series" d="M 58 345 L 60 345 L 71 345 L 71 344 L 71 344 L 71 344 L 71 344 L 71 343 L 71 343 L 71 343 L 72 342 L 72 342 L 72 342 L 72 342 L 72 341 L 72 341 L 72 341 L 72 341 L 72 340 L 73 340 L 73 340 L 73 339 L 74 339 L 74 339 L 74 339 L 74 338 L 75 338 L 76 338 L 77 338 L 77 337 L 78 337 L 78 337 L 82 336 L 82 336 L 82 336 L 82 336 L 82 335 L 84 335 L 85 335 L 86 335 L 87 334 L 90 334 L 91 334 L 96 333 L 97 333 L 100 333 L 103 333 L 104 332 L 115 332 L 115 332 L 116 331 L 116 331 L 116 331 L 116 331 L 116 330 L 116 330 L 116 330 L 117 330 L 117 329 L 117 329 L 117 329 L 117 328 L 117 328 L 117 328 L 117 328 L 117 327 L 117 327 L 117 327 L 117 327 L 117 326 L 117 326 L 117 326 L 117 325 L 117 325 L 117 325 L 117 325 L 117 324 L 117 324 L 117 324 L 117 324 L 117 323 L 117 323 L 117 323 L 117 322 L 117 322 L 117 322 L 117 322 L 117 321 L 117 321 L 117 321 L 117 320 L 117 320 L 117 320 L 117 320 L 117 319 L 117 319 L 118 319 L 118 319 L 118 318 L 118 318 L 118 318 L 118 317 L 118 317 L 118 317 L 119 317 L 119 316 L 119 316 L 119 316 L 119 316 L 119 315 L 119 315 L 119 315 L 119 314 L 119 314 L 119 314 L 119 314 L 119 313 L 119 313 L 119 313 L 119 313 L 119 312 L 119 312 L 120 312 L 120 311 L 120 311 L 120 311 L 122 311 L 123 310 L 123 310 L 124 310 L 124 309 L 125 309 L 127 309 L 127 309 L 129 308 L 129 308 L 131 308 L 131 308 L 131 307 L 133 307 L 133 307 L 134 306 L 134 306 L 135 306 L 135 306 L 135 305 L 135 305 L 136 305 L 137 305 L 137 304 L 137 304 L 138 304 L 138 303 L 138 303 L 139 303 L 140 303 L 141 302 L 142 302 L 143 302 L 143 302 L 144 301 L 144 301 L 144 301 L 145 300 L 150 300 L 150 300 L 151 300 L 155 299 L 155 299 L 155 299 L 155 298 L 155 298 L 156 298 L 157 298 L 158 297 L 158 297 L 163 297 L 164 297 L 165 296 L 167 296 L 168 296 L 168 295 L 169 295 L 172 295 L 176 295 L 181 294 L 181 294 L 181 294 L 181 294 L 182 293 L 189 293 L 192 293 L 192 292 L 194 292 L 194 292 L 195 292 L 202 291 L 202 291 L 202 291 L 202 291 L 203 290 L 206 290 L 207 290 L 208 289 L 210 289 L 213 289 L 214 289 L 214 288 L 214 288 L 214 288 L 215 287 L 217 287 L 221 287 L 229 287 L 232 286 L 234 286 L 234 286 L 236 286 L 236 285 L 236 285 L 236 285 L 236 284 L 236 284 L 236 284 L 236 284 L 236 283 L 236 283 L 236 283 L 236 283 L 236 282 L 237 282 L 237 282 L 238 281 L 238 281 L 239 281 L 239 281 L 240 280 L 240 280 L 240 280 L 240 280 L 240 279 L 240 279 L 240 279 L 240 278 L 241 278 L 241 278 L 241 278 L 241 277 L 241 277 L 241 277 L 242 276 L 242 276 L 242 276 L 243 276 L 243 275 L 243 275 L 244 275 L 245 275 L 245 274 L 246 274 L 248 274 L 248 273 L 248 273 L 248 273 L 248 273 L 249 272 L 249 272 L 250 272 L 250 272 L 251 271 L 251 271 L 252 271 L 253 270 L 254 270 L 254 270 L 256 270 L 256 269 L 257 269 L 257 269 L 257 269 L 260 268 L 261 268 L 261 268 L 264 267 L 265 267 L 268 267 L 268 267 L 268 266 L 269 266 L 269 266 L 269 265 L 271 265 L 273 265 L 274 265 L 274 264 L 276 264 L 276 264 L 276 264 L 276 263 L 276 263 L 277 263 L 277 262 L 277 262 L 277 262 L 278 262 L 278 261 L 281 261 L 285 261 L 285 261 L 285 260 L 287 260 L 289 260 L 289 259 L 289 259 L 290 259 L 291 259 L 291 258 L 291 258 L 291 258 L 291 258 L 291 257 L 291 257 L 292 257 L 292 256 L 292 256 L 294 256 L 294 256 L 294 255 L 294 255 L 294 255 L 294 254 L 294 254 L 294 254 L 295 254 L 295 253 L 295 253 L 295 253 L 295 253 L 297 252 L 299 252 L 299 252 L 300 251 L 307 251 L 308 251 L 310 251 L 312 250 L 318 250 L 320 250 L 320 250 L 320 249 L 320 249 L 320 249 L 320 248 L 320 248 L 321 248 L 322 248 L 327 247 L 329 247 L 331 247 L 335 247 L 338 246 L 341 246 L 343 246 L 346 245 L 346 245 L 352 245 L 359 245 L 359 244 L 363 244 L 364 244 L 367 243 L 368 243 L 370 243 L 370 243 L 371 242 L 371 242 L 373 242 L 373 242 L 375 241 L 378 241 L 378 241 L 379 240 L 380 240 L 382 240 L 384 240 L 384 239 L 387 239 L 390 239 L 391 239 L 391 238 L 392 238 L 392 238 L 393 237 L 395 237 L 397 237 L 399 237 L 401 236 L 401 236 L 404 236 L 405 236 L 407 235 L 410 235 L 410 235 L 413 234 L 414 234 L 414 234 L 415 234 L 415 233 L 417 233 L 417 233 L 419 232 L 421 232 L 421 232 L 421 232 L 422 231 L 427 231 L 427 231 L 428 231 L 428 230 L 428 230 L 429 230 L 429 229 L 429 229 L 429 229 L 431 229 L 431 228 L 432 228 L 432 228 L 433 228 L 433 227 L 433 227 L 433 227 L 434 226 L 434 226 L 434 226 L 435 226 L 435 225 L 435 225 L 435 225 L 436 225 L 437 224 L 437 224 L 437 224 L 438 223 L 438 223 L 439 223 L 440 223 L 440 222 L 440 222 L 441 222 L 442 221 L 442 221 L 443 221 L 444 221 L 444 220 L 444 220 L 445 220 L 445 220 L 445 219 L 445 219 L 446 219 L 446 218 L 447 218 L 449 218 L 450 218 L 451 217 L 451 217 L 452 217 L 453 217 L 454 216 L 455 216 L 457 216 L 459 215 L 461 215 L 461 215 L 461 215 L 461 214 L 461 214 L 462 214 L 462 214 L 462 213 L 463 213 L 463 213 L 463 212 L 463 212 L 464 212 L 465 212 L 465 211 L 466 211 L 466 211 L 468 210 L 468 210 L 468 210 L 469 210 L 469 209 L 471 209 L 476 209 L 476 209 L 476 208 L 476 208 L 477 208 L 479 207 L 479 207 L 479 207 L 479 207 L 480 206 L 481 206 L 483 206 L 484 206 L 484 205 L 484 205 L 485 205 L 485 204 L 485 204 L 486 204 L 488 204 L 490 203 L 490 203 L 493 203 L 493 203 L 494 202 L 496 202 L 497 202 L 499 201 L 500 201 L 501 201 L 502 201 L 502 200 L 503 200 L 503 200 L 503 199 L 503 199 L 504 199 L 504 199 L 504 198 L 505 198 L 505 198 L 505 198 L 506 197 L 506 197 L 507 197 L 510 196 L 510 196 L 514 196 L 516 196 L 516 195 L 516 195 L 517 195 L 519 195 L 519 194 L 520 194 L 520 194 L 520 193 L 520 193 L 520 193 L 520 193 L 521 192 L 521 192 L 521 192 L 521 192 L 521 191 L 522 191 L 522 191 L 523 190 L 523 190 L 524 190 L 524 190 L 525 189 L 525 189 L 525 189 L 525 188 L 526 188 L 528 188 L 528 188 L 528 187 L 528 187 L 528 187 L 529 187 L 529 186 L 529 186 L 530 186 L 532 185 L 534 185 L 536 185 L 536 185 L 538 184 L 540 184 L 543 184 L 543 184 L 545 183 L 548 183 L 548 183 L 548 182 L 552 182 L 553 182 L 553 182 L 553 181 L 554 181 L 560 181 L 560 181 L 561 180 L 561 180 L 561 180 L 562 179 L 562 179 L 563 179 L 563 179 L 564 178 L 564 178 L 564 178 L 564 177 L 564 177 L 564 177 L 565 177 L 565 176 L 565 176 L 565 176 L 566 176 L 567 175 L 568 175 L 568 175 L 568 174 L 569 174 L 569 174 L 570 174 L 570 173 L 571 173 L 571 173 L 571 173 L 571 172 L 572 172 L 573 172 L 574 171 L 574 171 L 574 171 L 575 171 L 575 170 L 575 170 L 575 170 L 576 170 L 576 169 L 576 169 L 577 169 L 577 168 L 577 168 L 578 168 L 579 168 L 579 167 L 579 167 L 579 167 L 579 166 L 580 166 L 580 166 L 580 166 L 581 165 L 581 165 L 581 165 L 581 165 L 582 164 L 582 164 L 582 164 L 582 163 L 582 163 L 582 163 L 583 163 L 583 162 L 583 162 L 583 162 L 584 162 L 585 161 L 587 161 L 587 161 L 587 160 L 587 160 L 588 160 L 589 160 L 589 159 L 590 159 L 592 159 L 593 159 L 593 158 L 595 158 L 595 158 L 595 157 L 596 157 L 596 157 L 596 157 L 596 156 L 596 156 L 597 156 L 597 155 L 597 155 L 597 155 L 597 155 L 597 154 L 597 154 L 597 154 L 598 154 L 598 153 L 598 153 L 599 153 L 599 152 L 600 152 L 601 152 L 601 152 L 601 151 L 602 151 L 602 151 L 603 151 L 605 150 L 605 150 L 605 150 L 605 149 L 605 149 L 607 149 L 609 149 L 609 148 L 610 148 L 610 148 L 611 148 L 611 147 L 611 147 L 615 147 L 617 146 L 619 146 L 620 146 L 621 146 L 621 145 L 622 145 L 622 145 L 623 144 L 623 144 L 623 144 L 624 144 L 624 143 L 624 143 L 625 143 L 627 143 L 627 142 L 627 142 L 627 142 L 627 141 L 627 141 L 627 141 L 627 141 L 627 140 L 627 140 L 627 140 L 627 140 L 627 139 L 627 139 L 627 139 L 627 138 L 627 138 L 628 138 L 628 138 L 628 137 L 628 137 L 628 137 L 628 137 L 628 136 L 629 136 L 629 136 L 629 135 L 630 135 L 630 135 L 630 135 L 630 134 L 630 134 L 630 134 L 631 133 L 632 133 L 633 133 L 633 133 L 633 132 L 634 132 L 635 132 L 635 132 L 635 131 L 637 131 L 638 131 L 639 130 L 639 130 L 639 130 L 639 130 L 639 129 L 639 129 L 639 129 L 640 129 L 641 128 L 641 128 L 644 128 L 645 127 L 646 127 L 648 127 L 649 127 L 649 126 L 649 126 L 649 126 L 650 126 L 650 125 L 650 125 L 651 125 L 651 124 L 652 124 L 652 124 L 652 124 L 652 123 L 652 123 L 652 123 L 652 122 L 652 122 L 653 122 L 653 122 L 653 121 L 653 121 L 654 121 L 655 121 L 655 120 L 655 120 L 656 120 L 656 119 L 656 119 L 657 119 L 657 119 L 657 118 L 657 118 L 658 118 L 659 118 L 662 117 L 663 117 L 665 117 L 666 116 L 667 116 L 669 116 L 669 116 L 670 115 L 672 115 L 676 115 L 677 115 L 678 114 L 679 114 L 681 114 L 681 113 L 682 113 L 683 113 L 683 113 L 684 112 L 685 112 L 686 112 L 687 111 L 687 111 L 688 111 L 688 111 L 688 110 L 689 110 L 689 110 L 692 110 L 692 109 L 693 109 L 694 109 L 694 108 L 695 108 L 696 108 L 696 108 L 697 107 L 697 107 L 697 107 L 697 107 L 698 106 L 698 106 L 699 106 L 700 105 L 700 105 L 700 105 L 701 105 L 702 104 L 702 104 L 702 104 L 703 104 L 703 103 L 703 103 L 703 103 L 703 102 L 703 102 L 704 102 L 706 102 L 707 101 L 707 101 L 710 101 L 710 100 L 711 100 L 712 100 L 714 100 L 716 99 L 717 99 L 718 99 L 719 99 L 720 98 L 721 98 L 723 98 L 724 97 L 724 97 L 725 97 L 725 97 L 725 96 L 725 96 L 726 96 L 727 96 L 727 95 L 728 95 L 728 95 L 728 94 L 733 94 L 734 94 L 735 94 L 736 93 L 738 93 L 738 93 L 739 92 L 739 92 L 739 92 L 740 92 L 741 91 L 741 91 L 741 91 L 742 91 L 742 90 L 742 90 L 743 90 L 743 89 L 744 89 L 747 89 L 747 89 L 751 88 L 752 88 L 752 88 L 753 88 L 754 87 L 754 87 L 754 87 L 754 86 L 756 86 L 757 86 L 759 86 L 759 85 L 759 85 L 759 85 L 761 85 L 762 84 L 764 84 L 764 84 L 764 83 L 764 83 L 765 83 L 765 83 L 765 82 L 766 82 L 766 82 L 766 82 L 768 81 L 768 81 L 769 81 L 769 80 L 769 80 L 769 80 L 770 80 L 770 79 L 773 79 L 776 79 L 776 78 L 780 78 L 780 78 L 782 78 L 783 77 L 783 77 L 784 77 L 785 77 L 785 76 L 786 76 L 788 76 L 789 75 L 792 75 L 796 75 L 796 75 L 796 74 L 796 74 L 796 74 L 798 74 L 798 73 L 798 73 L 806 73 L 808 72 L 808 72 L 809 72 L 811 72 L 813 71 L 814 71 L 815 71 L 815 71 L 816 70 L 817 70 L 822 70 L 822 69 L 823 69 L 824 69 L 826 69 L 827 68 L 827 68 L 827 68 L 827 67 L 827 67 L 828 67 L 828 67 L 830 66 L 832 66 L 832 66 L 832 66 L 833 65 L 835 65 L 838 65 L 839 64 L 840 64 L 841 64 L 842 64 L 842 63 L 842 63 L 842 63 L 842 63 L 842 62 L 844 62 L 845 62 L 845 61 L 846 61 L 846 61 L 846 61 L 846 60 L 846 60 L 847 60 L 847 60 L 847 59 L 847 59 L 847 59 L 848 58 L 848 58 L 849 58 L 849 58 L 849 57 L 849 57 L 849 57 L 850 56 L 855 56 L 856 56 L 857 56 L 857 55 L 857 55 L 857 55 L 857 55 L 857 54 L 858 54 L 858 54 L 858 53 L 858 53 L 858 53 L 858 53 L 858 52 L 858 52 L 858 52 L 858 52 L 858 51 L 858 51 L 859 51 L 859 50 L 859 50 L 859 50 L 860 50 L 860 49 L 862 49 L 863 49 L 863 49 L 863 48 L 864 48 L 864 48 L 866 47 L 866 47 L 866 47 L 868 47 L 869 46 L 870 46 L 870 46 L 871 45 L 871 45 L 871 45 L 873 45 L 873 44 L 874 44 L 875 44 L 877 44 L 877 43 L 877 43 L 878 43 L 878 42 L 879 42 L 880 42 L 880 42 L 881 41 L 883 41 L 887 41 L 887 41 L 888 40 L 892 40 L 892 40 L 892 39 L 893 39 L 893 39 L 893 39 L 894 38 L 895 38 L 896 38 L 897 38 L 897 37 L 897 37 L 897 37 L 898 36 L 898 36 L 902 36 L 902 36 L 903 35 L 904 35 L 905 35 L 906 34 L 911 34 L 912 34 L 912 34 L 913 33 L 913 33 L 914 33 L 916 33 L 916 32 L 916 32 L 917 32 L 917 31 L 917 31 L 920 31 L 922 31 L 923 30 L 925 30 L 926 30 L 926 30 L 926 29 L 926 29 L 927 29 L 927 28 L 928 28 L 929 28 L 930 28 L 931 27 L 932 27 L 932 27 L 932 27 L 935 26 L 936 26 L 937 26 L 937 25"></path><path stroke-width="2" d="M 937 346 L 937.000000 15.000000" /><path d="M 937 346 L 937.000000 15.000000" stroke-width="2"></path><path stroke-width="2" d="M 937 346 L 942 346" /><path stroke-width="2" d="M 937 346 L 942 346"></path><text xmlns="http://www.w3.org/2000/svg" x="947" y="352">0</text><path stroke-width="2" d="M 937 307 L 942 307" /><path stroke-width="2" d="M 937 307 L 942 307"></path><text xmlns="http://www.w3.org/2000/svg" x="947" y="313">140</text><path stroke-width="2" d="M 937 271 L 942 271" /><path stroke-width="2" d="M 937 271 L 942 271"></path><text xmlns="http://www.w3.org/2000/svg" x="947" y="277">270</text><path d="M 937 236 L 942 236" stroke-width="2" /><path stroke-width="2" d="M 937 236 L 942 236"></path><text xmlns="http://www.w3.org/2000/svg" x="947" y="242">400</text><path d="M 937 197 L 942 197" stroke-width="2" /><path stroke-width="2" d="M 937 197 L 942 197"></path><text y="203" xmlns="http://www.w3.org/2000/svg" x="947">540</text><path d="M 937 161 L 942 161" stroke-width="2" /><path stroke-width="2" d="M 937 161 L 942 161"></path><text xmlns="http://www.w3.org/2000/svg" x="947" y="167">670</text><path stroke-width="2" d="M 937 126 L 942 126" /><path d="M 937 126 L 942 126" stroke-width="2"></path><text x="947" y="132" xmlns="http://www.w3.org/2000/svg">800</text><path stroke-width="2" d="M 937 87 L 942 87" /><path stroke-width="2" d="M 937 87 L 942 87"></path><text y="93" xmlns="http://www.w3.org/2000/svg" x="947">940</text><path stroke-width="2" d="M 937 51 L 942 51" /><path stroke-width="2" d="M 937 51 L 942 51"></path><text y="57" xmlns="http://www.w3.org/2000/svg" x="947">1070</text><path stroke-width="2" d="M 937 16 L 942 16" /><path stroke-width="2" d="M 937 16 L 942 16"></path><text xmlns="http://www.w3.org/2000/svg" x="947" y="22">1200</text><text y="175" transform="rotate(90.00,987,175)" xmlns="http://www.w3.org/2000/svg" x="987">Stargazers</text><path stroke-width="2" d="M 57.000000 346.000000 L 937 346" /><path stroke-width="2" d="M 57.000000 346.000000 L 937 346"></path><path stroke-width="2" d="M 58 346 L 58 351" /><path stroke-width="2" d="M 58 346 L 58 351"></path><text xmlns="http://www.w3.org/2000/svg" x="25" y="368">2023-04-02</text><path stroke-width="2" d="M 156 346 L 156 351" /><path stroke-width="2" d="M 156 346 L 156 351"></path><text xmlns="http://www.w3.org/2000/svg" x="123" y="368">2023-07-19</text><path stroke-width="2" d="M 254 346 L 254 351" /><path stroke-width="2" d="M 254 346 L 254 351"></path><text xmlns="http://www.w3.org/2000/svg" x="221" y="368">2023-11-04</text><path stroke-width="2" d="M 351 346 L 351 351" /><path stroke-width="2" d="M 351 346 L 351 351"></path><text xmlns="http://www.w3.org/2000/svg" x="318" y="368">2024-02-20</text><path d="M 449 346 L 449 351" stroke-width="2" /><path stroke-width="2" d="M 449 346 L 449 351"></path><text xmlns="http://www.w3.org/2000/svg" x="416" y="368">2024-06-06</text><path stroke-width="2" d="M 547 346 L 547 351" /><path stroke-width="2" d="M 547 346 L 547 351"></path><text x="514" y="368" xmlns="http://www.w3.org/2000/svg">2024-09-22</text><path stroke-width="2" d="M 644 346 L 644 351" /><path d="M 644 346 L 644 351" stroke-width="2"></path><text xmlns="http://www.w3.org/2000/svg" x="611" y="368">2025-01-08</text><path stroke-width="2" d="M 742 346 L 742 351" /><path d="M 742 346 L 742 351" stroke-width="2"></path><text y="368" xmlns="http://www.w3.org/2000/svg" x="709">2025-04-26</text><path stroke-width="2" d="M 840 346 L 840 351" /><path stroke-width="2" d="M 840 346 L 840 351"></path><text xmlns="http://www.w3.org/2000/svg" x="807" y="368">2025-08-12</text><path stroke-width="2" d="M 937 346 L 937 351" /><path stroke-width="2" d="M 937 346 L 937 351"></path><text xmlns="http://www.w3.org/2000/svg" x="904" y="368">2025-11-28</text><text xmlns="http://www.w3.org/2000/svg" x="483" y="390">Time</text></svg>