<svg xmlns="http://www.w3.org/2000/svg" xmlns:xlink="http://www.w3.org/1999/xlink" width="1024px" height="400px"><style type="text/css">
path { fill: none; stroke: rgb(51,51,51); }
path.series { stroke: #6b63ff; }
rect.background { fill: rgb(255,255,255); stroke: none; }

text {
	stroke-width: 0;
	stroke: none;
	fill: rgba(51,51,51,1.0);
	font-size: 12.8px;
	font-family: 'Roboto Medium', sans-serif;
}
</style><rect height="400px" class="background" rx="8" x="0" y="0" width="1024px" /><rect class="background" rx="8" x="0" y="0" width="1024px" height="400px"></rect><path stroke-width="2" class="series" d="M 58 345 L 62 344 L 83 344 L 83 343 L 83 343 L 83 342 L 83 342 L 83 341 L 83 340 L 83 340 L 84 339 L 84 339 L 84 338 L 84 338 L 84 337 L 84 336 L 84 336 L 85 335 L 85 335 L 86 334 L 86 334 L 87 333 L 88 332 L 89 332 L 89 331 L 89 331 L 90 330 L 91 330 L 93 329 L 94 328 L 95 328 L 97 327 L 103 327 L 103 326 L 103 326 L 103 325 L 104 324 L 104 324 L 107 323 L 109 323 L 110 322 L 113 322 L 119 321 L 121 320 L 130 320 L 133 319 L 138 319 L 143 318 L 146 318 L 165 317 L 166 316 L 166 316 L 169 315 L 170 315 L 170 314 L 170 314 L 170 313 L 170 313 L 170 312 L 170 311 L 170 311 L 170 310 L 170 310 L 170 309 L 170 309 L 171 308 L 171 307 L 171 307 L 171 306 L 171 306 L 171 305 L 171 305 L 171 304 L 171 303 L 171 303 L 171 302 L 171 302 L 171 301 L 171 301 L 171 300 L 171 299 L 171 299 L 171 298 L 171 298 L 171 297 L 171 297 L 171 296 L 171 295 L 171 295 L 171 294 L 171 294 L 171 293 L 171 293 L 171 292 L 171 291 L 171 291 L 171 290 L 171 290 L 172 289 L 172 289 L 172 288 L 172 287 L 172 287 L 173 286 L 173 286 L 173 285 L 174 285 L 174 284 L 174 283 L 174 283 L 174 282 L 174 282 L 174 281 L 174 281 L 174 280 L 174 280 L 174 279 L 174 278 L 174 278 L 174 277 L 174 277 L 174 276 L 175 276 L 175 275 L 176 274 L 176 274 L 177 273 L 177 273 L 181 272 L 182 272 L 182 271 L 183 270 L 183 270 L 186 269 L 190 269 L 191 268 L 193 268 L 195 267 L 197 266 L 197 266 L 198 265 L 201 265 L 201 264 L 202 264 L 204 263 L 204 262 L 206 262 L 206 261 L 206 261 L 207 260 L 208 260 L 210 259 L 210 258 L 211 258 L 211 257 L 211 257 L 212 256 L 215 256 L 216 255 L 219 254 L 220 254 L 221 253 L 223 253 L 223 252 L 223 252 L 225 251 L 234 250 L 234 250 L 235 249 L 243 249 L 244 248 L 244 248 L 244 247 L 244 247 L 245 246 L 248 245 L 249 245 L 250 244 L 259 244 L 261 243 L 263 243 L 267 242 L 268 241 L 269 241 L 270 240 L 277 240 L 284 239 L 293 239 L 294 238 L 294 237 L 294 237 L 295 236 L 297 236 L 308 235 L 314 235 L 314 234 L 318 233 L 319 233 L 320 232 L 333 232 L 333 231 L 334 231 L 334 230 L 336 229 L 339 229 L 341 228 L 344 228 L 345 227 L 348 227 L 355 226 L 356 225 L 357 225 L 357 224 L 358 224 L 358 223 L 362 223 L 369 222 L 385 221 L 391 221 L 395 220 L 395 220 L 397 219 L 399 219 L 399 218 L 399 217 L 399 217 L 399 216 L 399 216 L 399 215 L 399 215 L 399 214 L 399 214 L 399 213 L 399 212 L 399 212 L 400 211 L 400 211 L 403 210 L 403 210 L 403 209 L 404 208 L 404 208 L 406 207 L 406 207 L 406 206 L 406 206 L 406 205 L 406 204 L 406 204 L 407 203 L 408 203 L 409 202 L 409 202 L 409 201 L 409 200 L 409 200 L 410 199 L 411 199 L 411 198 L 411 198 L 412 197 L 412 196 L 413 196 L 414 195 L 415 195 L 416 194 L 418 194 L 421 193 L 421 192 L 422 192 L 423 191 L 423 191 L 423 190 L 423 190 L 425 189 L 426 188 L 428 188 L 428 187 L 429 187 L 432 186 L 434 186 L 434 185 L 437 184 L 438 184 L 438 183 L 440 183 L 440 182 L 446 182 L 447 181 L 447 181 L 452 180 L 454 179 L 459 179 L 460 178 L 461 178 L 462 177 L 463 177 L 463 176 L 467 175 L 469 175 L 472 174 L 472 174 L 474 173 L 475 173 L 475 172 L 475 171 L 475 171 L 476 170 L 477 170 L 477 169 L 478 169 L 478 168 L 478 167 L 480 167 L 485 166 L 492 166 L 492 165 L 492 165 L 497 164 L 499 163 L 500 163 L 501 162 L 503 162 L 504 161 L 504 161 L 504 160 L 504 159 L 504 159 L 505 158 L 505 158 L 506 157 L 506 157 L 507 156 L 510 155 L 510 155 L 510 154 L 510 154 L 510 153 L 511 153 L 511 152 L 511 151 L 511 151 L 511 150 L 511 150 L 511 149 L 511 149 L 517 148 L 520 148 L 520 147 L 521 146 L 528 146 L 535 145 L 537 145 L 541 144 L 545 144 L 553 143 L 556 142 L 559 142 L 559 141 L 559 141 L 560 140 L 560 140 L 560 139 L 560 138 L 560 138 L 562 137 L 563 137 L 574 136 L 577 136 L 581 135 L 589 134 L 595 134 L 600 133 L 603 133 L 609 132 L 609 132 L 622 131 L 634 130 L 634 130 L 643 129 L 644 129 L 651 128 L 652 128 L 656 127 L 656 126 L 657 126 L 657 125 L 661 125 L 662 124 L 666 124 L 671 123 L 672 122 L 673 122 L 674 121 L 678 121 L 683 120 L 683 120 L 689 119 L 694 118 L 695 118 L 695 117 L 697 117 L 699 116 L 700 116 L 704 115 L 708 115 L 711 114 L 714 113 L 714 113 L 721 112 L 723 112 L 726 111 L 732 111 L 732 110 L 739 109 L 740 109 L 740 108 L 742 108 L 743 107 L 746 107 L 746 106 L 749 105 L 753 105 L 754 104 L 754 104 L 755 103 L 765 103 L 765 102 L 766 101 L 766 101 L 767 100 L 768 100 L 768 99 L 769 99 L 769 98 L 772 97 L 772 97 L 774 96 L 775 96 L 776 95 L 776 95 L 777 94 L 777 93 L 778 93 L 779 92 L 779 92 L 780 91 L 780 91 L 780 90 L 781 89 L 782 89 L 784 88 L 784 88 L 785 87 L 786 87 L 786 86 L 788 85 L 789 85 L 790 84 L 791 84 L 792 83 L 794 83 L 795 82 L 795 82 L 796 81 L 798 80 L 798 80 L 798 79 L 799 79 L 799 78 L 800 78 L 800 77 L 801 76 L 801 76 L 802 75 L 807 75 L 808 74 L 810 74 L 810 73 L 814 72 L 816 72 L 816 71 L 819 71 L 823 70 L 826 70 L 829 69 L 830 68 L 830 68 L 831 67 L 831 67 L 832 66 L 832 66 L 832 65 L 834 64 L 834 64 L 834 63 L 834 63 L 836 62 L 838 62 L 838 61 L 839 60 L 839 60 L 843 59 L 843 59 L 843 58 L 845 58 L 846 57 L 849 56 L 853 56 L 858 55 L 858 55 L 858 54 L 859 54 L 862 53 L 865 52 L 865 52 L 865 51 L 865 51 L 866 50 L 868 50 L 873 49 L 874 49 L 874 48 L 874 47 L 876 47 L 877 46 L 877 46 L 877 45 L 877 45 L 881 44 L 886 43 L 886 43 L 892 42 L 892 42 L 893 41 L 898 41 L 899 40 L 903 39 L 906 39 L 908 38 L 909 38 L 909 37 L 910 37 L 910 36 L 911 35 L 911 35 L 912 34 L 912 34 L 912 33 L 914 33 L 914 32 L 914 31 L 916 31 L 917 30 L 917 30 L 924 29 L 925 29 L 932 28 L 935 27 L 935 27 L 936 26 L 937 26 L 940 25 L 941 25 L 942 24 L 942 23 L 943 23 L 943 22 L 943 22 L 944 21 L 944 21 L 945 20 L 945 19 L 945 19 L 945 18 L 945 18" /><path stroke-width="2" class="series" d="M 58 345 L 62 344 L 83 344 L 83 343 L 83 343 L 83 342 L 83 342 L 83 341 L 83 340 L 83 340 L 84 339 L 84 339 L 84 338 L 84 338 L 84 337 L 84 336 L 84 336 L 85 335 L 85 335 L 86 334 L 86 334 L 87 333 L 88 332 L 89 332 L 89 331 L 89 331 L 90 330 L 91 330 L 93 329 L 94 328 L 95 328 L 97 327 L 103 327 L 103 326 L 103 326 L 103 325 L 104 324 L 104 324 L 107 323 L 109 323 L 110 322 L 113 322 L 119 321 L 121 320 L 130 320 L 133 319 L 138 319 L 143 318 L 146 318 L 165 317 L 166 316 L 166 316 L 169 315 L 170 315 L 170 314 L 170 314 L 170 313 L 170 313 L 170 312 L 170 311 L 170 311 L 170 310 L 170 310 L 170 309 L 170 309 L 171 308 L 171 307 L 171 307 L 171 306 L 171 306 L 171 305 L 171 305 L 171 304 L 171 303 L 171 303 L 171 302 L 171 302 L 171 301 L 171 301 L 171 300 L 171 299 L 171 299 L 171 298 L 171 298 L 171 297 L 171 297 L 171 296 L 171 295 L 171 295 L 171 294 L 171 294 L 171 293 L 171 293 L 171 292 L 171 291 L 171 291 L 171 290 L 171 290 L 172 289 L 172 289 L 172 288 L 172 287 L 172 287 L 173 286 L 173 286 L 173 285 L 174 285 L 174 284 L 174 283 L 174 283 L 174 282 L 174 282 L 174 281 L 174 281 L 174 280 L 174 280 L 174 279 L 174 278 L 174 278 L 174 277 L 174 277 L 174 276 L 175 276 L 175 275 L 176 274 L 176 274 L 177 273 L 177 273 L 181 272 L 182 272 L 182 271 L 183 270 L 183 270 L 186 269 L 190 269 L 191 268 L 193 268 L 195 267 L 197 266 L 197 266 L 198 265 L 201 265 L 201 264 L 202 264 L 204 263 L 204 262 L 206 262 L 206 261 L 206 261 L 207 260 L 208 260 L 210 259 L 210 258 L 211 258 L 211 257 L 211 257 L 212 256 L 215 256 L 216 255 L 219 254 L 220 254 L 221 253 L 223 253 L 223 252 L 223 252 L 225 251 L 234 250 L 234 250 L 235 249 L 243 249 L 244 248 L 244 248 L 244 247 L 244 247 L 245 246 L 248 245 L 249 245 L 250 244 L 259 244 L 261 243 L 263 243 L 267 242 L 268 241 L 269 241 L 270 240 L 277 240 L 284 239 L 293 239 L 294 238 L 294 237 L 294 237 L 295 236 L 297 236 L 308 235 L 314 235 L 314 234 L 318 233 L 319 233 L 320 232 L 333 232 L 333 231 L 334 231 L 334 230 L 336 229 L 339 229 L 341 228 L 344 228 L 345 227 L 348 227 L 355 226 L 356 225 L 357 225 L 357 224 L 358 224 L 358 223 L 362 223 L 369 222 L 385 221 L 391 221 L 395 220 L 395 220 L 397 219 L 399 219 L 399 218 L 399 217 L 399 217 L 399 216 L 399 216 L 399 215 L 399 215 L 399 214 L 399 214 L 399 213 L 399 212 L 399 212 L 400 211 L 400 211 L 403 210 L 403 210 L 403 209 L 404 208 L 404 208 L 406 207 L 406 207 L 406 206 L 406 206 L 406 205 L 406 204 L 406 204 L 407 203 L 408 203 L 409 202 L 409 202 L 409 201 L 409 200 L 409 200 L 410 199 L 411 199 L 411 198 L 411 198 L 412 197 L 412 196 L 413 196 L 414 195 L 415 195 L 416 194 L 418 194 L 421 193 L 421 192 L 422 192 L 423 191 L 423 191 L 423 190 L 423 190 L 425 189 L 426 188 L 428 188 L 428 187 L 429 187 L 432 186 L 434 186 L 434 185 L 437 184 L 438 184 L 438 183 L 440 183 L 440 182 L 446 182 L 447 181 L 447 181 L 452 180 L 454 179 L 459 179 L 460 178 L 461 178 L 462 177 L 463 177 L 463 176 L 467 175 L 469 175 L 472 174 L 472 174 L 474 173 L 475 173 L 475 172 L 475 171 L 475 171 L 476 170 L 477 170 L 477 169 L 478 169 L 478 168 L 478 167 L 480 167 L 485 166 L 492 166 L 492 165 L 492 165 L 497 164 L 499 163 L 500 163 L 501 162 L 503 162 L 504 161 L 504 161 L 504 160 L 504 159 L 504 159 L 505 158 L 505 158 L 506 157 L 506 157 L 507 156 L 510 155 L 510 155 L 510 154 L 510 154 L 510 153 L 511 153 L 511 152 L 511 151 L 511 151 L 511 150 L 511 150 L 511 149 L 511 149 L 517 148 L 520 148 L 520 147 L 521 146 L 528 146 L 535 145 L 537 145 L 541 144 L 545 144 L 553 143 L 556 142 L 559 142 L 559 141 L 559 141 L 560 140 L 560 140 L 560 139 L 560 138 L 560 138 L 562 137 L 563 137 L 574 136 L 577 136 L 581 135 L 589 134 L 595 134 L 600 133 L 603 133 L 609 132 L 609 132 L 622 131 L 634 130 L 634 130 L 643 129 L 644 129 L 651 128 L 652 128 L 656 127 L 656 126 L 657 126 L 657 125 L 661 125 L 662 124 L 666 124 L 671 123 L 672 122 L 673 122 L 674 121 L 678 121 L 683 120 L 683 120 L 689 119 L 694 118 L 695 118 L 695 117 L 697 117 L 699 116 L 700 116 L 704 115 L 708 115 L 711 114 L 714 113 L 714 113 L 721 112 L 723 112 L 726 111 L 732 111 L 732 110 L 739 109 L 740 109 L 740 108 L 742 108 L 743 107 L 746 107 L 746 106 L 749 105 L 753 105 L 754 104 L 754 104 L 755 103 L 765 103 L 765 102 L 766 101 L 766 101 L 767 100 L 768 100 L 768 99 L 769 99 L 769 98 L 772 97 L 772 97 L 774 96 L 775 96 L 776 95 L 776 95 L 777 94 L 777 93 L 778 93 L 779 92 L 779 92 L 780 91 L 780 91 L 780 90 L 781 89 L 782 89 L 784 88 L 784 88 L 785 87 L 786 87 L 786 86 L 788 85 L 789 85 L 790 84 L 791 84 L 792 83 L 794 83 L 795 82 L 795 82 L 796 81 L 798 80 L 798 80 L 798 79 L 799 79 L 799 78 L 800 78 L 800 77 L 801 76 L 801 76 L 802 75 L 807 75 L 808 74 L 810 74 L 810 73 L 814 72 L 816 72 L 816 71 L 819 71 L 823 70 L 826 70 L 829 69 L 830 68 L 830 68 L 831 67 L 831 67 L 832 66 L 832 66 L 832 65 L 834 64 L 834 64 L 834 63 L 834 63 L 836 62 L 838 62 L 838 61 L 839 60 L 839 60 L 843 59 L 843 59 L 843 58 L 845 58 L 846 57 L 849 56 L 853 56 L 858 55 L 858 55 L 858 54 L 859 54 L 862 53 L 865 52 L 865 52 L 865 51 L 865 51 L 866 50 L 868 50 L 873 49 L 874 49 L 874 48 L 874 47 L 876 47 L 877 46 L 877 46 L 877 45 L 877 45 L 881 44 L 886 43 L 886 43 L 892 42 L 892 42 L 893 41 L 898 41 L 899 40 L 903 39 L 906 39 L 908 38 L 909 38 L 909 37 L 910 37 L 910 36 L 911 35 L 911 35 L 912 34 L 912 34 L 912 33 L 914 33 L 914 32 L 914 31 L 916 31 L 917 30 L 917 30 L 924 29 L 925 29 L 932 28 L 935 27 L 935 27 L 936 26 L 937 26 L 940 25 L 941 25 L 942 24 L 942 23 L 943 23 L 943 22 L 943 22 L 944 21 L 944 21 L 945 20 L 945 19 L 945 19 L 945 18 L 945 18"></path><path stroke-width="2" d="M 945 346 L 945.000000 15.000000" /><path stroke-width="2" d="M 945 346 L 945.000000 15.000000"></path><path stroke-width="2" d="M 945 346 L 950 346" /><path stroke-width="2" d="M 945 346 L 950 346"></path><text xmlns="http://www.w3.org/2000/svg" x="955" y="352">0</text><path stroke-width="2" d="M 945 309 L 950 309" /><path stroke-width="2" d="M 945 309 L 950 309"></path><text xmlns="http://www.w3.org/2000/svg" x="955" y="315">65</text><path stroke-width="2" d="M 945 272 L 950 272" /><path stroke-width="2" d="M 945 272 L 950 272"></path><text y="278" xmlns="http://www.w3.org/2000/svg" x="955">129</text><path stroke-width="2" d="M 945 235 L 950 235" /><path d="M 945 235 L 950 235" stroke-width="2"></path><text xmlns="http://www.w3.org/2000/svg" x="955" y="241">194</text><path stroke-width="2" d="M 945 199 L 950 199" /><path stroke-width="2" d="M 945 199 L 950 199"></path><text xmlns="http://www.w3.org/2000/svg" x="955" y="205">258</text><path stroke-width="2" d="M 945 162 L 950 162" /><path stroke-width="2" d="M 945 162 L 950 162"></path><text xmlns="http://www.w3.org/2000/svg" x="955" y="168">323</text><path stroke-width="2" d="M 945 125 L 950 125" /><path stroke-width="2" d="M 945 125 L 950 125"></path><text xmlns="http://www.w3.org/2000/svg" x="955" y="131">387</text><path stroke-width="2" d="M 945 88 L 950 88" /><path stroke-width="2" d="M 945 88 L 950 88"></path><text y="94" xmlns="http://www.w3.org/2000/svg" x="955">452</text><path stroke-width="2" d="M 945 52 L 950 52" /><path stroke-width="2" d="M 945 52 L 950 52"></path><text xmlns="http://www.w3.org/2000/svg" x="955" y="58">516</text><path stroke-width="2" d="M 945 16 L 950 16" /><path stroke-width="2" d="M 945 16 L 950 16"></path><text x="955" y="22" xmlns="http://www.w3.org/2000/svg">580</text><text xmlns="http://www.w3.org/2000/svg" x="987" y="175" transform="rotate(90.00,987,175)">Stargazers</text><path stroke-width="2" d="M 57.000000 346.000000 L 945 346" /><path stroke-width="2" d="M 57.000000 346.000000 L 945 346"></path><path stroke-width="2" d="M 58 346 L 58 351" /><path d="M 58 346 L 58 351" stroke-width="2"></path><text y="368" xmlns="http://www.w3.org/2000/svg" x="25">2023-04-02</text><path stroke-width="2" d="M 157 346 L 157 351" /><path stroke-width="2" d="M 157 346 L 157 351"></path><text xmlns="http://www.w3.org/2000/svg" x="124" y="368">2023-05-29</text><path stroke-width="2" d="M 256 346 L 256 351" /><path stroke-width="2" d="M 256 346 L 256 351"></path><text y="368" xmlns="http://www.w3.org/2000/svg" x="223">2023-07-25</text><path stroke-width="2" d="M 354 346 L 354 351" /><path stroke-width="2" d="M 354 346 L 354 351"></path><text x="321" y="368" xmlns="http://www.w3.org/2000/svg">2023-09-19</text><path stroke-width="2" d="M 453 346 L 453 351" /><path stroke-width="2" d="M 453 346 L 453 351"></path><text xmlns="http://www.w3.org/2000/svg" x="420" y="368">2023-11-15</text><path stroke-width="2" d="M 551 346 L 551 351" /><path stroke-width="2" d="M 551 346 L 551 351"></path><text xmlns="http://www.w3.org/2000/svg" x="518" y="368">2024-01-11</text><path stroke-width="2" d="M 650 346 L 650 351" /><path stroke-width="2" d="M 650 346 L 650 351"></path><text xmlns="http://www.w3.org/2000/svg" x="617" y="368">2024-03-08</text><path stroke-width="2" d="M 748 346 L 748 351" /><path stroke-width="2" d="M 748 346 L 748 351"></path><text xmlns="http://www.w3.org/2000/svg" x="715" y="368">2024-05-03</text><path stroke-width="2" d="M 847 346 L 847 351" /><path stroke-width="2" d="M 847 346 L 847 351"></path><text xmlns="http://www.w3.org/2000/svg" x="814" y="368">2024-06-29</text><path stroke-width="2" d="M 945 346 L 945 351" /><path stroke-width="2" d="M 945 346 L 945 351"></path><text x="912" y="368" xmlns="http://www.w3.org/2000/svg">2024-08-25</text><text x="487" y="390" xmlns="http://www.w3.org/2000/svg">Time</text></svg>