<svg xmlns="http://www.w3.org/2000/svg" xmlns:xlink="http://www.w3.org/1999/xlink" width="1024" height="400">\n<path  d="M 0 0
L 1024 0
L 1024 400
L 0 400
L 0 0" style="stroke-width:0;stroke:rgba(255,255,255,1.0);fill:rgba(255,255,255,1.0)"/><path  d="M 38 11
L 965 11
L 965 351
L 38 351
L 38 11" style="stroke-width:0;stroke:rgba(255,255,255,1.0);fill:rgba(255,255,255,1.0)"/><path  d="M 38 351
L 965 351" style="stroke-width:2;stroke:rgba(85,85,85,1.0);fill:none"/><path  d="M 38 351
L 38 356" style="stroke-width:2;stroke:rgba(85,85,85,1.0);fill:none"/><text x="5" y="373" style="stroke-width:0;stroke:none;fill:rgba(51,51,51,1.0);font-size:12.8px;font-family:'Roboto Medium',sans-serif">2023-04-02</text><path  d="M 154 351
L 154 356" style="stroke-width:2;stroke:rgba(85,85,85,1.0);fill:none"/><text x="121" y="373" style="stroke-width:0;stroke:none;fill:rgba(51,51,51,1.0);font-size:12.8px;font-family:'Roboto Medium',sans-serif">2023-04-29</text><path  d="M 270 351
L 270 356" style="stroke-width:2;stroke:rgba(85,85,85,1.0);fill:none"/><text x="237" y="373" style="stroke-width:0;stroke:none;fill:rgba(51,51,51,1.0);font-size:12.8px;font-family:'Roboto Medium',sans-serif">2023-05-25</text><path  d="M 386 351
L 386 356" style="stroke-width:2;stroke:rgba(85,85,85,1.0);fill:none"/><text x="353" y="373" style="stroke-width:0;stroke:none;fill:rgba(51,51,51,1.0);font-size:12.8px;font-family:'Roboto Medium',sans-serif">2023-06-21</text><path  d="M 502 351
L 502 356" style="stroke-width:2;stroke:rgba(85,85,85,1.0);fill:none"/><text x="469" y="373" style="stroke-width:0;stroke:none;fill:rgba(51,51,51,1.0);font-size:12.8px;font-family:'Roboto Medium',sans-serif">2023-07-17</text><path  d="M 618 351
L 618 356" style="stroke-width:2;stroke:rgba(85,85,85,1.0);fill:none"/><text x="585" y="373" style="stroke-width:0;stroke:none;fill:rgba(51,51,51,1.0);font-size:12.8px;font-family:'Roboto Medium',sans-serif">2023-08-13</text><path  d="M 734 351
L 734 356" style="stroke-width:2;stroke:rgba(85,85,85,1.0);fill:none"/><text x="701" y="373" style="stroke-width:0;stroke:none;fill:rgba(51,51,51,1.0);font-size:12.8px;font-family:'Roboto Medium',sans-serif">2023-09-09</text><path  d="M 850 351
L 850 356" style="stroke-width:2;stroke:rgba(85,85,85,1.0);fill:none"/><text x="817" y="373" style="stroke-width:0;stroke:none;fill:rgba(51,51,51,1.0);font-size:12.8px;font-family:'Roboto Medium',sans-serif">2023-10-05</text><path  d="M 965 351
L 965 356" style="stroke-width:2;stroke:rgba(85,85,85,1.0);fill:none"/><text x="932" y="373" style="stroke-width:0;stroke:none;fill:rgba(51,51,51,1.0);font-size:12.8px;font-family:'Roboto Medium',sans-serif">2023-11-01</text><text x="487" y="395" style="stroke-width:0;stroke:none;fill:rgba(51,51,51,1.0);font-size:12.8px;font-family:'Roboto Medium',sans-serif">Time</text><path  d="M 967 351
L 967 11" style="stroke-width:2;stroke:rgba(85,85,85,1.0);fill:none"/><path  d="M 967 351
L 972 351" style="stroke-width:2;stroke:rgba(85,85,85,1.0);fill:none"/><text x="977" y="357" style="stroke-width:0;stroke:none;fill:rgba(51,51,51,1.0);font-size:12.8px;font-family:'Roboto Medium',sans-serif">0</text><path  d="M 967 307
L 972 307" style="stroke-width:2;stroke:rgba(85,85,85,1.0);fill:none"/><text x="977" y="313" style="stroke-width:0;stroke:none;fill:rgba(51,51,51,1.0);font-size:12.8px;font-family:'Roboto Medium',sans-serif">37</text><path  d="M 967 265
L 972 265" style="stroke-width:2;stroke:rgba(85,85,85,1.0);fill:none"/><text x="977" y="271" style="stroke-width:0;stroke:none;fill:rgba(51,51,51,1.0);font-size:12.8px;font-family:'Roboto Medium',sans-serif">73</text><path  d="M 967 223
L 972 223" style="stroke-width:2;stroke:rgba(85,85,85,1.0);fill:none"/><text x="977" y="229" style="stroke-width:0;stroke:none;fill:rgba(51,51,51,1.0);font-size:12.8px;font-family:'Roboto Medium',sans-serif">109</text><path  d="M 967 181
L 972 181" style="stroke-width:2;stroke:rgba(85,85,85,1.0);fill:none"/><text x="977" y="187" style="stroke-width:0;stroke:none;fill:rgba(51,51,51,1.0);font-size:12.8px;font-family:'Roboto Medium',sans-serif">145</text><path  d="M 967 137
L 972 137" style="stroke-width:2;stroke:rgba(85,85,85,1.0);fill:none"/><text x="977" y="143" style="stroke-width:0;stroke:none;fill:rgba(51,51,51,1.0);font-size:12.8px;font-family:'Roboto Medium',sans-serif">182</text><path  d="M 967 95
L 972 95" style="stroke-width:2;stroke:rgba(85,85,85,1.0);fill:none"/><text x="977" y="101" style="stroke-width:0;stroke:none;fill:rgba(51,51,51,1.0);font-size:12.8px;font-family:'Roboto Medium',sans-serif">218</text><path  d="M 967 53
L 972 53" style="stroke-width:2;stroke:rgba(85,85,85,1.0);fill:none"/><text x="977" y="59" style="stroke-width:0;stroke:none;fill:rgba(51,51,51,1.0);font-size:12.8px;font-family:'Roboto Medium',sans-serif">254</text><path  d="M 967 11
L 972 11" style="stroke-width:2;stroke:rgba(85,85,85,1.0);fill:none"/><text x="977" y="17" style="stroke-width:0;stroke:none;fill:rgba(51,51,51,1.0);font-size:12.8px;font-family:'Roboto Medium',sans-serif">290</text><text x="1009" y="150" style="stroke-width:0;stroke:none;fill:rgba(51,51,51,1.0);font-size:12.8px;font-family:'Roboto Medium',sans-serif" transform="rotate(90.00,1009,150)">Stargazers</text><path  d="M 38 351
L 46 349
L 99 348
L 100 347
L 101 346
L 101 345
L 101 343
L 101 342
L 101 341
L 101 340
L 102 339
L 102 338
L 102 336
L 102 335
L 102 334
L 102 333
L 103 332
L 103 331
L 104 329
L 104 328
L 107 327
L 108 326
L 109 325
L 113 324
L 115 322
L 115 321
L 115 320
L 117 319
L 118 318
L 120 317
L 126 315
L 127 314
L 130 313
L 134 312
L 151 311
L 151 309
L 151 308
L 151 307
L 151 306
L 152 305
L 152 304
L 161 302
L 165 301
L 168 300
L 176 299
L 189 298
L 195 297
L 218 295
L 225 294
L 238 293
L 251 292
L 257 291
L 306 290
L 309 288
L 309 287
L 316 286
L 317 285
L 317 284
L 317 283
L 317 281
L 317 280
L 317 279
L 317 278
L 317 277
L 318 275
L 318 274
L 318 273
L 319 272
L 320 271
L 320 270
L 320 268
L 320 267
L 320 266
L 320 265
L 320 264
L 320 263
L 320 261
L 320 260
L 320 259
L 320 258
L 320 257
L 320 256
L 320 254
L 320 253
L 320 252
L 320 251
L 320 250
L 320 249
L 320 247
L 321 246
L 321 245
L 321 244
L 321 243
L 321 241
L 321 240
L 321 239
L 321 238
L 321 237
L 321 236
L 321 234
L 321 233
L 322 232
L 322 231
L 323 230
L 324 229
L 324 227
L 324 226
L 325 225
L 326 224
L 328 223
L 328 222
L 328 220
L 328 219
L 329 218
L 329 217
L 329 216
L 329 215
L 329 213
L 329 212
L 329 211
L 329 210
L 329 209
L 329 207
L 329 206
L 329 205
L 329 204
L 331 203
L 334 202
L 334 200
L 334 199
L 334 198
L 346 197
L 347 196
L 347 195
L 351 193
L 351 192
L 359 191
L 367 190
L 370 189
L 377 188
L 379 186
L 385 185
L 386 184
L 388 183
L 395 182
L 396 181
L 399 179
L 402 178
L 404 177
L 408 176
L 408 175
L 408 173
L 410 172
L 414 171
L 418 170
L 418 169
L 420 168
L 421 166
L 421 165
L 424 164
L 430 163
L 434 162
L 441 161
L 444 159
L 447 158
L 450 157
L 450 156
L 451 155
L 456 154
L 477 152
L 478 151
L 482 150
L 502 149
L 502 148
L 502 147
L 503 145
L 504 144
L 507 143
L 513 142
L 517 141
L 517 139
L 542 138
L 547 137
L 552 136
L 560 135
L 565 134
L 565 132
L 568 131
L 586 130
L 605 129
L 626 128
L 628 127
L 628 125
L 629 124
L 630 123
L 635 122
L 664 121
L 678 120
L 678 118
L 690 117
L 692 116
L 694 115
L 726 114
L 726 113
L 728 111
L 730 110
L 734 109
L 743 108
L 746 107
L 753 105
L 757 104
L 764 103
L 783 102
L 783 101
L 787 100
L 787 98
L 788 97
L 789 96
L 799 95
L 799 94
L 817 93
L 844 91
L 857 90
L 872 89
L 873 88
L 881 87
L 882 86
L 887 84
L 891 83
L 891 82
L 891 81
L 891 80
L 891 79
L 891 77
L 891 76
L 891 75
L 892 74
L 892 73
L 892 71
L 893 70
L 893 69
L 894 68
L 895 67
L 898 66
L 901 64
L 903 63
L 903 62
L 903 61
L 904 60
L 908 59
L 908 57
L 909 56
L 909 55
L 909 54
L 909 53
L 909 52
L 912 50
L 913 49
L 914 48
L 916 47
L 917 46
L 917 45
L 917 43
L 918 42
L 921 41
L 921 40
L 921 39
L 922 37
L 925 36
L 925 35
L 926 34
L 929 33
L 933 32
L 935 30
L 940 29
L 948 28
L 948 27
L 951 26
L 951 25
L 951 23
L 951 22
L 952 21
L 957 20
L 959 19
L 965 18
L 965 16" style="stroke-width:2;stroke:rgba(129,199,239,1.0);fill:none"/></svg>