<svg xmlns:xlink="http://www.w3.org/1999/xlink" width="1024px" height="400px" xmlns="http://www.w3.org/2000/svg"><style type="text/css">
path { fill: none; stroke: rgb(51,51,51); }
path.series { stroke: #6b63ff; }
rect.background { fill: rgb(255,255,255); stroke: none; }

text {
	stroke-width: 0;
	stroke: none;
	fill: rgba(51,51,51,1.0);
	font-size: 12.8px;
	font-family: 'Roboto Medium', sans-serif;
}
</style><rect height="400px" class="background" rx="8" x="0" y="0" width="1024px" /><rect height="400px" class="background" rx="8" x="0" y="0" width="1024px"></rect><path stroke-width="2" class="series" d="M 58 345 L 61 345 L 75 344 L 75 344 L 75 344 L 75 343 L 75 343 L 75 343 L 75 342 L 75 342 L 76 342 L 76 341 L 76 341 L 76 341 L 76 340 L 76 340 L 76 340 L 76 339 L 76 339 L 77 338 L 77 338 L 78 338 L 79 337 L 79 337 L 79 337 L 79 336 L 80 336 L 81 336 L 82 335 L 82 335 L 83 335 L 84 334 L 89 334 L 89 334 L 89 333 L 89 333 L 89 333 L 92 332 L 93 332 L 94 331 L 96 331 L 99 331 L 101 330 L 107 330 L 109 330 L 113 329 L 116 329 L 118 329 L 131 328 L 132 328 L 132 328 L 134 327 L 134 327 L 134 327 L 134 326 L 134 326 L 134 325 L 134 325 L 134 325 L 134 324 L 134 324 L 134 324 L 134 323 L 135 323 L 135 323 L 135 322 L 135 322 L 135 322 L 135 321 L 135 321 L 135 321 L 135 320 L 135 320 L 135 320 L 135 319 L 135 319 L 135 318 L 135 318 L 135 318 L 135 317 L 135 317 L 135 317 L 135 316 L 135 316 L 135 316 L 135 315 L 135 315 L 135 315 L 135 314 L 135 314 L 135 314 L 135 313 L 135 313 L 135 313 L 135 312 L 135 312 L 135 311 L 136 311 L 136 311 L 136 310 L 136 310 L 136 310 L 136 309 L 136 309 L 137 309 L 137 308 L 137 308 L 137 308 L 137 307 L 137 307 L 137 307 L 137 306 L 137 306 L 137 305 L 137 305 L 137 305 L 137 304 L 137 304 L 137 304 L 137 303 L 137 303 L 138 303 L 138 302 L 139 302 L 139 302 L 139 301 L 139 301 L 142 301 L 142 300 L 142 300 L 144 300 L 144 299 L 146 299 L 148 298 L 148 298 L 150 298 L 151 297 L 153 297 L 153 297 L 153 296 L 155 296 L 156 296 L 156 295 L 157 295 L 158 295 L 159 294 L 159 294 L 159 294 L 159 293 L 160 293 L 162 292 L 162 292 L 162 292 L 162 291 L 163 291 L 163 291 L 165 290 L 166 290 L 168 290 L 169 289 L 169 289 L 170 289 L 170 288 L 171 288 L 172 288 L 178 287 L 178 287 L 179 287 L 184 286 L 185 286 L 185 285 L 185 285 L 185 285 L 186 284 L 187 284 L 188 284 L 189 283 L 195 283 L 197 283 L 198 282 L 200 282 L 202 282 L 202 281 L 203 281 L 207 281 L 212 280 L 218 280 L 219 280 L 219 279 L 219 279 L 219 278 L 221 278 L 229 278 L 232 277 L 232 277 L 235 277 L 236 276 L 237 276 L 245 276 L 245 275 L 246 275 L 246 275 L 247 274 L 250 274 L 251 274 L 253 273 L 254 273 L 256 272 L 261 272 L 261 272 L 262 271 L 262 271 L 262 271 L 263 270 L 265 270 L 270 270 L 281 269 L 285 269 L 287 269 L 288 268 L 289 268 L 290 268 L 290 267 L 290 267 L 290 267 L 290 266 L 290 266 L 290 265 L 290 265 L 290 265 L 290 264 L 291 264 L 291 264 L 291 263 L 291 263 L 291 263 L 293 262 L 294 262 L 294 262 L 294 261 L 295 261 L 295 261 L 295 260 L 295 260 L 295 259 L 295 259 L 295 259 L 296 258 L 297 258 L 297 258 L 297 257 L 297 257 L 297 257 L 297 256 L 298 256 L 298 256 L 298 255 L 299 255 L 299 255 L 300 254 L 300 254 L 301 254 L 302 253 L 302 253 L 304 252 L 306 252 L 306 252 L 306 251 L 307 251 L 307 251 L 307 250 L 307 250 L 308 250 L 309 249 L 310 249 L 310 249 L 311 248 L 313 248 L 314 248 L 314 247 L 316 247 L 317 247 L 317 246 L 318 246 L 318 245 L 322 245 L 323 245 L 323 244 L 327 244 L 328 244 L 332 243 L 332 243 L 333 243 L 334 242 L 334 242 L 334 242 L 336 241 L 338 241 L 340 241 L 340 240 L 341 240 L 342 239 L 342 239 L 342 239 L 343 238 L 343 238 L 343 238 L 343 237 L 345 237 L 345 237 L 345 236 L 345 236 L 349 236 L 354 235 L 354 235 L 354 235 L 357 234 L 359 234 L 360 234 L 360 233 L 361 233 L 362 232 L 362 232 L 362 232 L 362 231 L 362 231 L 363 231 L 363 230 L 363 230 L 363 230 L 364 229 L 366 229 L 366 229 L 366 228 L 366 228 L 366 228 L 367 227 L 367 227 L 367 226 L 367 226 L 367 226 L 367 225 L 367 225 L 367 225 L 371 224 L 373 224 L 373 224 L 374 223 L 383 223 L 384 223 L 387 222 L 390 222 L 397 222 L 399 221 L 400 221 L 400 221 L 400 220 L 400 220 L 400 219 L 400 219 L 401 219 L 402 218 L 410 218 L 412 218 L 414 217 L 420 217 L 424 217 L 427 216 L 430 216 L 434 216 L 434 215 L 442 215 L 451 215 L 451 214 L 457 214 L 457 214 L 462 213 L 463 213 L 465 212 L 465 212 L 466 212 L 466 211 L 469 211 L 470 211 L 472 210 L 476 210 L 476 210 L 477 209 L 478 209 L 481 209 L 484 208 L 484 208 L 488 208 L 491 207 L 492 207 L 492 206 L 494 206 L 495 206 L 496 205 L 498 205 L 501 205 L 503 204 L 505 204 L 505 204 L 510 203 L 511 203 L 513 203 L 517 202 L 518 202 L 522 202 L 523 201 L 523 201 L 524 201 L 525 200 L 527 200 L 527 199 L 529 199 L 531 199 L 532 198 L 532 198 L 533 198 L 540 197 L 540 197 L 540 197 L 541 196 L 541 196 L 542 196 L 542 195 L 542 195 L 543 195 L 544 194 L 545 194 L 546 193 L 546 193 L 547 193 L 548 192 L 548 192 L 548 192 L 549 191 L 549 191 L 549 191 L 550 190 L 550 190 L 550 190 L 551 189 L 551 189 L 553 189 L 553 188 L 553 188 L 554 188 L 554 187 L 555 187 L 556 186 L 557 186 L 557 186 L 558 185 L 560 185 L 560 185 L 560 184 L 561 184 L 563 184 L 563 183 L 563 183 L 563 183 L 563 182 L 563 182 L 564 182 L 564 181 L 564 181 L 565 181 L 568 180 L 569 180 L 570 179 L 571 179 L 573 179 L 574 178 L 575 178 L 577 178 L 579 177 L 581 177 L 584 177 L 584 176 L 584 176 L 585 176 L 585 175 L 585 175 L 586 175 L 586 174 L 587 174 L 587 173 L 587 173 L 587 173 L 588 172 L 589 172 L 589 172 L 590 171 L 590 171 L 593 171 L 593 170 L 593 170 L 594 170 L 595 169 L 597 169 L 600 169 L 603 168 L 603 168 L 603 168 L 604 167 L 606 167 L 608 166 L 608 166 L 608 166 L 608 165 L 609 165 L 610 165 L 613 164 L 614 164 L 614 164 L 614 163 L 616 163 L 616 163 L 616 162 L 616 162 L 619 162 L 622 161 L 622 161 L 626 160 L 626 160 L 627 160 L 630 159 L 631 159 L 634 159 L 636 158 L 637 158 L 638 158 L 638 157 L 639 157 L 639 157 L 639 156 L 639 156 L 640 156 L 640 155 L 640 155 L 641 155 L 641 154 L 641 154 L 642 153 L 643 153 L 644 153 L 648 152 L 649 152 L 653 152 L 655 151 L 656 151 L 656 151 L 657 150 L 659 150 L 660 150 L 661 149 L 661 149 L 661 149 L 661 148 L 661 148 L 662 148 L 662 147 L 662 147 L 662 146 L 662 146 L 662 146 L 663 145 L 664 145 L 664 145 L 665 144 L 665 144 L 666 144 L 667 143 L 667 143 L 668 143 L 668 142 L 668 142 L 669 142 L 672 141 L 672 141 L 672 140 L 672 140 L 672 140 L 673 139 L 673 139 L 673 139 L 675 138 L 677 138 L 679 138 L 682 137 L 683 137 L 684 137 L 687 136 L 691 136 L 691 136 L 694 135 L 698 135 L 698 135 L 698 134 L 702 134 L 704 133 L 704 133 L 705 133 L 705 132 L 713 132 L 714 132 L 714 131 L 714 131 L 715 131 L 716 130 L 717 130 L 717 130 L 717 129 L 718 129 L 718 129 L 719 128 L 719 128 L 719 127 L 719 127 L 719 127 L 720 126 L 720 126 L 720 126 L 722 125 L 723 125 L 724 125 L 724 124 L 724 124 L 725 124 L 725 123 L 726 123 L 727 123 L 728 122 L 728 122 L 728 122 L 728 121 L 730 121 L 730 120 L 731 120 L 731 120 L 732 119 L 733 119 L 733 119 L 734 118 L 734 118 L 734 118 L 734 117 L 735 117 L 735 117 L 736 116 L 736 116 L 738 116 L 738 115 L 738 115 L 738 115 L 738 114 L 739 114 L 739 113 L 739 113 L 739 113 L 741 112 L 741 112 L 741 112 L 741 111 L 742 111 L 742 111 L 742 110 L 742 110 L 742 110 L 743 109 L 743 109 L 743 109 L 743 108 L 743 108 L 745 107 L 746 107 L 749 107 L 749 106 L 749 106 L 749 106 L 750 105 L 751 105 L 752 105 L 752 104 L 755 104 L 757 104 L 757 103 L 759 103 L 759 103 L 759 102 L 760 102 L 761 102 L 761 101 L 761 101 L 761 100 L 761 100 L 761 100 L 761 99 L 762 99 L 762 99 L 762 98 L 762 98 L 762 98 L 762 97 L 763 97 L 763 97 L 763 96 L 764 96 L 765 96 L 766 95 L 766 95 L 767 94 L 767 94 L 768 94 L 768 93 L 769 93 L 771 93 L 772 92 L 773 92 L 773 92 L 773 91 L 773 91 L 775 91 L 777 90 L 778 90 L 779 90 L 779 89 L 779 89 L 780 89 L 780 88 L 785 88 L 787 87 L 790 87 L 792 87 L 793 86 L 794 86 L 795 86 L 795 85 L 795 85 L 795 85 L 796 84 L 796 84 L 797 84 L 797 83 L 798 83 L 801 83 L 801 82 L 801 82 L 801 82 L 801 81 L 801 81 L 801 80 L 801 80 L 801 80 L 801 79 L 801 79 L 801 79 L 801 78 L 801 78 L 801 78 L 801 77 L 801 77 L 802 77 L 802 76 L 802 76 L 802 76 L 802 75 L 802 75 L 802 74 L 803 74 L 803 74 L 803 73 L 804 73 L 804 73 L 804 72 L 804 72 L 804 72 L 804 71 L 806 71 L 807 71 L 809 70 L 809 70 L 809 70 L 811 69 L 811 69 L 811 69 L 812 68 L 814 68 L 815 67 L 816 67 L 816 67 L 816 66 L 816 66 L 816 66 L 816 65 L 816 65 L 818 65 L 819 64 L 819 64 L 823 64 L 824 63 L 826 63 L 828 63 L 829 62 L 830 62 L 830 61 L 830 61 L 830 61 L 831 60 L 831 60 L 832 60 L 832 59 L 833 59 L 833 59 L 834 58 L 834 58 L 834 58 L 834 57 L 834 57 L 834 57 L 834 56 L 835 56 L 835 56 L 835 55 L 837 55 L 837 54 L 837 54 L 838 54 L 838 53 L 838 53 L 839 53 L 840 52 L 840 52 L 840 52 L 841 51 L 841 51 L 842 51 L 846 50 L 847 50 L 848 50 L 851 49 L 852 49 L 853 49 L 856 48 L 856 48 L 857 47 L 860 47 L 865 47 L 866 46 L 867 46 L 869 46 L 872 45 L 872 45 L 872 45 L 874 44 L 875 44 L 876 44 L 876 43 L 878 43 L 879 43 L 880 42 L 880 42 L 881 41 L 881 41 L 881 41 L 882 40 L 886 40 L 886 40 L 887 39 L 888 39 L 889 39 L 890 38 L 891 38 L 892 38 L 892 37 L 892 37 L 892 37 L 893 36 L 894 36 L 894 36 L 895 35 L 896 35 L 897 34 L 897 34 L 898 34 L 898 33 L 899 33 L 899 33 L 900 32 L 900 32 L 900 32 L 900 31 L 900 31 L 901 31 L 901 30 L 904 30 L 905 30 L 905 29 L 906 29 L 909 28 L 910 28 L 911 28 L 912 27 L 915 27 L 917 27 L 919 26 L 920 26 L 922 26 L 922 25 L 924 25 L 926 25 L 926 24 L 927 24 L 928 24 L 928 23 L 928 23 L 929 23 L 929 22 L 929 22 L 930 21 L 931 21 L 932 21 L 933 20 L 933 20 L 933 20 L 940 19 L 941 19 L 942 19 L 944 18 L 945 18" /><path stroke-width="2" class="series" d="M 58 345 L 61 345 L 75 344 L 75 344 L 75 344 L 75 343 L 75 343 L 75 343 L 75 342 L 75 342 L 76 342 L 76 341 L 76 341 L 76 341 L 76 340 L 76 340 L 76 340 L 76 339 L 76 339 L 77 338 L 77 338 L 78 338 L 79 337 L 79 337 L 79 337 L 79 336 L 80 336 L 81 336 L 82 335 L 82 335 L 83 335 L 84 334 L 89 334 L 89 334 L 89 333 L 89 333 L 89 333 L 92 332 L 93 332 L 94 331 L 96 331 L 99 331 L 101 330 L 107 330 L 109 330 L 113 329 L 116 329 L 118 329 L 131 328 L 132 328 L 132 328 L 134 327 L 134 327 L 134 327 L 134 326 L 134 326 L 134 325 L 134 325 L 134 325 L 134 324 L 134 324 L 134 324 L 134 323 L 135 323 L 135 323 L 135 322 L 135 322 L 135 322 L 135 321 L 135 321 L 135 321 L 135 320 L 135 320 L 135 320 L 135 319 L 135 319 L 135 318 L 135 318 L 135 318 L 135 317 L 135 317 L 135 317 L 135 316 L 135 316 L 135 316 L 135 315 L 135 315 L 135 315 L 135 314 L 135 314 L 135 314 L 135 313 L 135 313 L 135 313 L 135 312 L 135 312 L 135 311 L 136 311 L 136 311 L 136 310 L 136 310 L 136 310 L 136 309 L 136 309 L 137 309 L 137 308 L 137 308 L 137 308 L 137 307 L 137 307 L 137 307 L 137 306 L 137 306 L 137 305 L 137 305 L 137 305 L 137 304 L 137 304 L 137 304 L 137 303 L 137 303 L 138 303 L 138 302 L 139 302 L 139 302 L 139 301 L 139 301 L 142 301 L 142 300 L 142 300 L 144 300 L 144 299 L 146 299 L 148 298 L 148 298 L 150 298 L 151 297 L 153 297 L 153 297 L 153 296 L 155 296 L 156 296 L 156 295 L 157 295 L 158 295 L 159 294 L 159 294 L 159 294 L 159 293 L 160 293 L 162 292 L 162 292 L 162 292 L 162 291 L 163 291 L 163 291 L 165 290 L 166 290 L 168 290 L 169 289 L 169 289 L 170 289 L 170 288 L 171 288 L 172 288 L 178 287 L 178 287 L 179 287 L 184 286 L 185 286 L 185 285 L 185 285 L 185 285 L 186 284 L 187 284 L 188 284 L 189 283 L 195 283 L 197 283 L 198 282 L 200 282 L 202 282 L 202 281 L 203 281 L 207 281 L 212 280 L 218 280 L 219 280 L 219 279 L 219 279 L 219 278 L 221 278 L 229 278 L 232 277 L 232 277 L 235 277 L 236 276 L 237 276 L 245 276 L 245 275 L 246 275 L 246 275 L 247 274 L 250 274 L 251 274 L 253 273 L 254 273 L 256 272 L 261 272 L 261 272 L 262 271 L 262 271 L 262 271 L 263 270 L 265 270 L 270 270 L 281 269 L 285 269 L 287 269 L 288 268 L 289 268 L 290 268 L 290 267 L 290 267 L 290 267 L 290 266 L 290 266 L 290 265 L 290 265 L 290 265 L 290 264 L 291 264 L 291 264 L 291 263 L 291 263 L 291 263 L 293 262 L 294 262 L 294 262 L 294 261 L 295 261 L 295 261 L 295 260 L 295 260 L 295 259 L 295 259 L 295 259 L 296 258 L 297 258 L 297 258 L 297 257 L 297 257 L 297 257 L 297 256 L 298 256 L 298 256 L 298 255 L 299 255 L 299 255 L 300 254 L 300 254 L 301 254 L 302 253 L 302 253 L 304 252 L 306 252 L 306 252 L 306 251 L 307 251 L 307 251 L 307 250 L 307 250 L 308 250 L 309 249 L 310 249 L 310 249 L 311 248 L 313 248 L 314 248 L 314 247 L 316 247 L 317 247 L 317 246 L 318 246 L 318 245 L 322 245 L 323 245 L 323 244 L 327 244 L 328 244 L 332 243 L 332 243 L 333 243 L 334 242 L 334 242 L 334 242 L 336 241 L 338 241 L 340 241 L 340 240 L 341 240 L 342 239 L 342 239 L 342 239 L 343 238 L 343 238 L 343 238 L 343 237 L 345 237 L 345 237 L 345 236 L 345 236 L 349 236 L 354 235 L 354 235 L 354 235 L 357 234 L 359 234 L 360 234 L 360 233 L 361 233 L 362 232 L 362 232 L 362 232 L 362 231 L 362 231 L 363 231 L 363 230 L 363 230 L 363 230 L 364 229 L 366 229 L 366 229 L 366 228 L 366 228 L 366 228 L 367 227 L 367 227 L 367 226 L 367 226 L 367 226 L 367 225 L 367 225 L 367 225 L 371 224 L 373 224 L 373 224 L 374 223 L 383 223 L 384 223 L 387 222 L 390 222 L 397 222 L 399 221 L 400 221 L 400 221 L 400 220 L 400 220 L 400 219 L 400 219 L 401 219 L 402 218 L 410 218 L 412 218 L 414 217 L 420 217 L 424 217 L 427 216 L 430 216 L 434 216 L 434 215 L 442 215 L 451 215 L 451 214 L 457 214 L 457 214 L 462 213 L 463 213 L 465 212 L 465 212 L 466 212 L 466 211 L 469 211 L 470 211 L 472 210 L 476 210 L 476 210 L 477 209 L 478 209 L 481 209 L 484 208 L 484 208 L 488 208 L 491 207 L 492 207 L 492 206 L 494 206 L 495 206 L 496 205 L 498 205 L 501 205 L 503 204 L 505 204 L 505 204 L 510 203 L 511 203 L 513 203 L 517 202 L 518 202 L 522 202 L 523 201 L 523 201 L 524 201 L 525 200 L 527 200 L 527 199 L 529 199 L 531 199 L 532 198 L 532 198 L 533 198 L 540 197 L 540 197 L 540 197 L 541 196 L 541 196 L 542 196 L 542 195 L 542 195 L 543 195 L 544 194 L 545 194 L 546 193 L 546 193 L 547 193 L 548 192 L 548 192 L 548 192 L 549 191 L 549 191 L 549 191 L 550 190 L 550 190 L 550 190 L 551 189 L 551 189 L 553 189 L 553 188 L 553 188 L 554 188 L 554 187 L 555 187 L 556 186 L 557 186 L 557 186 L 558 185 L 560 185 L 560 185 L 560 184 L 561 184 L 563 184 L 563 183 L 563 183 L 563 183 L 563 182 L 563 182 L 564 182 L 564 181 L 564 181 L 565 181 L 568 180 L 569 180 L 570 179 L 571 179 L 573 179 L 574 178 L 575 178 L 577 178 L 579 177 L 581 177 L 584 177 L 584 176 L 584 176 L 585 176 L 585 175 L 585 175 L 586 175 L 586 174 L 587 174 L 587 173 L 587 173 L 587 173 L 588 172 L 589 172 L 589 172 L 590 171 L 590 171 L 593 171 L 593 170 L 593 170 L 594 170 L 595 169 L 597 169 L 600 169 L 603 168 L 603 168 L 603 168 L 604 167 L 606 167 L 608 166 L 608 166 L 608 166 L 608 165 L 609 165 L 610 165 L 613 164 L 614 164 L 614 164 L 614 163 L 616 163 L 616 163 L 616 162 L 616 162 L 619 162 L 622 161 L 622 161 L 626 160 L 626 160 L 627 160 L 630 159 L 631 159 L 634 159 L 636 158 L 637 158 L 638 158 L 638 157 L 639 157 L 639 157 L 639 156 L 639 156 L 640 156 L 640 155 L 640 155 L 641 155 L 641 154 L 641 154 L 642 153 L 643 153 L 644 153 L 648 152 L 649 152 L 653 152 L 655 151 L 656 151 L 656 151 L 657 150 L 659 150 L 660 150 L 661 149 L 661 149 L 661 149 L 661 148 L 661 148 L 662 148 L 662 147 L 662 147 L 662 146 L 662 146 L 662 146 L 663 145 L 664 145 L 664 145 L 665 144 L 665 144 L 666 144 L 667 143 L 667 143 L 668 143 L 668 142 L 668 142 L 669 142 L 672 141 L 672 141 L 672 140 L 672 140 L 672 140 L 673 139 L 673 139 L 673 139 L 675 138 L 677 138 L 679 138 L 682 137 L 683 137 L 684 137 L 687 136 L 691 136 L 691 136 L 694 135 L 698 135 L 698 135 L 698 134 L 702 134 L 704 133 L 704 133 L 705 133 L 705 132 L 713 132 L 714 132 L 714 131 L 714 131 L 715 131 L 716 130 L 717 130 L 717 130 L 717 129 L 718 129 L 718 129 L 719 128 L 719 128 L 719 127 L 719 127 L 719 127 L 720 126 L 720 126 L 720 126 L 722 125 L 723 125 L 724 125 L 724 124 L 724 124 L 725 124 L 725 123 L 726 123 L 727 123 L 728 122 L 728 122 L 728 122 L 728 121 L 730 121 L 730 120 L 731 120 L 731 120 L 732 119 L 733 119 L 733 119 L 734 118 L 734 118 L 734 118 L 734 117 L 735 117 L 735 117 L 736 116 L 736 116 L 738 116 L 738 115 L 738 115 L 738 115 L 738 114 L 739 114 L 739 113 L 739 113 L 739 113 L 741 112 L 741 112 L 741 112 L 741 111 L 742 111 L 742 111 L 742 110 L 742 110 L 742 110 L 743 109 L 743 109 L 743 109 L 743 108 L 743 108 L 745 107 L 746 107 L 749 107 L 749 106 L 749 106 L 749 106 L 750 105 L 751 105 L 752 105 L 752 104 L 755 104 L 757 104 L 757 103 L 759 103 L 759 103 L 759 102 L 760 102 L 761 102 L 761 101 L 761 101 L 761 100 L 761 100 L 761 100 L 761 99 L 762 99 L 762 99 L 762 98 L 762 98 L 762 98 L 762 97 L 763 97 L 763 97 L 763 96 L 764 96 L 765 96 L 766 95 L 766 95 L 767 94 L 767 94 L 768 94 L 768 93 L 769 93 L 771 93 L 772 92 L 773 92 L 773 92 L 773 91 L 773 91 L 775 91 L 777 90 L 778 90 L 779 90 L 779 89 L 779 89 L 780 89 L 780 88 L 785 88 L 787 87 L 790 87 L 792 87 L 793 86 L 794 86 L 795 86 L 795 85 L 795 85 L 795 85 L 796 84 L 796 84 L 797 84 L 797 83 L 798 83 L 801 83 L 801 82 L 801 82 L 801 82 L 801 81 L 801 81 L 801 80 L 801 80 L 801 80 L 801 79 L 801 79 L 801 79 L 801 78 L 801 78 L 801 78 L 801 77 L 801 77 L 802 77 L 802 76 L 802 76 L 802 76 L 802 75 L 802 75 L 802 74 L 803 74 L 803 74 L 803 73 L 804 73 L 804 73 L 804 72 L 804 72 L 804 72 L 804 71 L 806 71 L 807 71 L 809 70 L 809 70 L 809 70 L 811 69 L 811 69 L 811 69 L 812 68 L 814 68 L 815 67 L 816 67 L 816 67 L 816 66 L 816 66 L 816 66 L 816 65 L 816 65 L 818 65 L 819 64 L 819 64 L 823 64 L 824 63 L 826 63 L 828 63 L 829 62 L 830 62 L 830 61 L 830 61 L 830 61 L 831 60 L 831 60 L 832 60 L 832 59 L 833 59 L 833 59 L 834 58 L 834 58 L 834 58 L 834 57 L 834 57 L 834 57 L 834 56 L 835 56 L 835 56 L 835 55 L 837 55 L 837 54 L 837 54 L 838 54 L 838 53 L 838 53 L 839 53 L 840 52 L 840 52 L 840 52 L 841 51 L 841 51 L 842 51 L 846 50 L 847 50 L 848 50 L 851 49 L 852 49 L 853 49 L 856 48 L 856 48 L 857 47 L 860 47 L 865 47 L 866 46 L 867 46 L 869 46 L 872 45 L 872 45 L 872 45 L 874 44 L 875 44 L 876 44 L 876 43 L 878 43 L 879 43 L 880 42 L 880 42 L 881 41 L 881 41 L 881 41 L 882 40 L 886 40 L 886 40 L 887 39 L 888 39 L 889 39 L 890 38 L 891 38 L 892 38 L 892 37 L 892 37 L 892 37 L 893 36 L 894 36 L 894 36 L 895 35 L 896 35 L 897 34 L 897 34 L 898 34 L 898 33 L 899 33 L 899 33 L 900 32 L 900 32 L 900 32 L 900 31 L 900 31 L 901 31 L 901 30 L 904 30 L 905 30 L 905 29 L 906 29 L 909 28 L 910 28 L 911 28 L 912 27 L 915 27 L 917 27 L 919 26 L 920 26 L 922 26 L 922 25 L 924 25 L 926 25 L 926 24 L 927 24 L 928 24 L 928 23 L 928 23 L 929 23 L 929 22 L 929 22 L 930 21 L 931 21 L 932 21 L 933 20 L 933 20 L 933 20 L 940 19 L 941 19 L 942 19 L 944 18 L 945 18"></path><path d="M 945 346 L 945.000000 15.000000" stroke-width="2" /><path stroke-width="2" d="M 945 346 L 945.000000 15.000000"></path><path stroke-width="2" d="M 945 346 L 950 346" /><path stroke-width="2" d="M 945 346 L 950 346"></path><text xmlns="http://www.w3.org/2000/svg" x="955" y="352">0</text><path stroke-width="2" d="M 945 309 L 950 309" /><path stroke-width="2" d="M 945 309 L 950 309"></path><text xmlns="http://www.w3.org/2000/svg" x="955" y="315">105</text><path stroke-width="2" d="M 945 272 L 950 272" /><path stroke-width="2" d="M 945 272 L 950 272"></path><text xmlns="http://www.w3.org/2000/svg" x="955" y="278">209</text><path d="M 945 235 L 950 235" stroke-width="2" /><path stroke-width="2" d="M 945 235 L 950 235"></path><text xmlns="http://www.w3.org/2000/svg" x="955" y="241">314</text><path d="M 945 199 L 950 199" stroke-width="2" /><path stroke-width="2" d="M 945 199 L 950 199"></path><text xmlns="http://www.w3.org/2000/svg" x="955" y="205">418</text><path stroke-width="2" d="M 945 162 L 950 162" /><path stroke-width="2" d="M 945 162 L 950 162"></path><text x="955" y="168" xmlns="http://www.w3.org/2000/svg">523</text><path stroke-width="2" d="M 945 125 L 950 125" /><path d="M 945 125 L 950 125" stroke-width="2"></path><text xmlns="http://www.w3.org/2000/svg" x="955" y="131">627</text><path stroke-width="2" d="M 945 89 L 950 89" /><path stroke-width="2" d="M 945 89 L 950 89"></path><text xmlns="http://www.w3.org/2000/svg" x="955" y="95">732</text><path d="M 945 52 L 950 52" stroke-width="2" /><path stroke-width="2" d="M 945 52 L 950 52"></path><text xmlns="http://www.w3.org/2000/svg" x="955" y="58">836</text><path stroke-width="2" d="M 945 16 L 950 16" /><path stroke-width="2" d="M 945 16 L 950 16"></path><text xmlns="http://www.w3.org/2000/svg" x="955" y="22">940</text><text xmlns="http://www.w3.org/2000/svg" x="987" y="175" transform="rotate(90.00,987,175)">Stargazers</text><path stroke-width="2" d="M 57.000000 346.000000 L 945 346" /><path stroke-width="2" d="M 57.000000 346.000000 L 945 346"></path><path stroke-width="2" d="M 58 346 L 58 351" /><path stroke-width="2" d="M 58 346 L 58 351"></path><text xmlns="http://www.w3.org/2000/svg" x="25" y="368">2023-04-02</text><path d="M 157 346 L 157 351" stroke-width="2" /><path stroke-width="2" d="M 157 346 L 157 351"></path><text y="368" xmlns="http://www.w3.org/2000/svg" x="124">2023-06-24</text><path stroke-width="2" d="M 256 346 L 256 351" /><path stroke-width="2" d="M 256 346 L 256 351"></path><text xmlns="http://www.w3.org/2000/svg" x="223" y="368">2023-09-16</text><path stroke-width="2" d="M 354 346 L 354 351" /><path stroke-width="2" d="M 354 346 L 354 351"></path><text xmlns="http://www.w3.org/2000/svg" x="321" y="368">2023-12-08</text><path stroke-width="2" d="M 453 346 L 453 351" /><path d="M 453 346 L 453 351" stroke-width="2"></path><text y="368" xmlns="http://www.w3.org/2000/svg" x="420">2024-02-29</text><path d="M 551 346 L 551 351" stroke-width="2" /><path stroke-width="2" d="M 551 346 L 551 351"></path><text xmlns="http://www.w3.org/2000/svg" x="518" y="368">2024-05-23</text><path stroke-width="2" d="M 650 346 L 650 351" /><path d="M 650 346 L 650 351" stroke-width="2"></path><text x="617" y="368" xmlns="http://www.w3.org/2000/svg">2024-08-14</text><path stroke-width="2" d="M 748 346 L 748 351" /><path stroke-width="2" d="M 748 346 L 748 351"></path><text xmlns="http://www.w3.org/2000/svg" x="715" y="368">2024-11-05</text><path stroke-width="2" d="M 847 346 L 847 351" /><path stroke-width="2" d="M 847 346 L 847 351"></path><text y="368" xmlns="http://www.w3.org/2000/svg" x="814">2025-01-28</text><path d="M 945 346 L 945 351" stroke-width="2" /><path stroke-width="2" d="M 945 346 L 945 351"></path><text xmlns="http://www.w3.org/2000/svg" x="912" y="368">2025-04-21</text><text xmlns="http://www.w3.org/2000/svg" x="487" y="390">Time</text></svg>