<svg width="1024px" height="400px" xmlns="http://www.w3.org/2000/svg" xmlns:xlink="http://www.w3.org/1999/xlink"><style type="text/css">
path { fill: none; stroke: rgb(51,51,51); }
path.series { stroke: #6b63ff; }
rect.background { fill: rgb(255,255,255); stroke: none; }

text {
	stroke-width: 0;
	stroke: none;
	fill: rgba(51,51,51,1.0);
	font-size: 12.8px;
	font-family: 'Roboto Medium', sans-serif;
}
</style><rect x="0" y="0" width="1024px" height="400px" class="background" rx="8" /><rect x="0" y="0" width="1024px" height="400px" class="background" rx="8"></rect><path stroke-width="2" class="series" d="M 58 345 L 60 345 L 71 345 L 72 344 L 72 344 L 72 344 L 72 344 L 72 343 L 72 343 L 72 343 L 72 342 L 72 342 L 72 342 L 72 342 L 72 341 L 72 341 L 72 341 L 72 341 L 72 340 L 73 340 L 73 340 L 73 339 L 74 339 L 75 339 L 75 339 L 75 338 L 75 338 L 76 338 L 77 338 L 77 337 L 78 337 L 79 337 L 82 336 L 82 336 L 83 336 L 83 336 L 83 335 L 85 335 L 86 335 L 86 335 L 88 334 L 91 334 L 92 334 L 97 333 L 98 333 L 101 333 L 104 333 L 105 332 L 116 332 L 116 332 L 118 331 L 118 331 L 118 331 L 118 331 L 118 330 L 118 330 L 118 330 L 118 330 L 118 329 L 118 329 L 118 329 L 118 328 L 118 328 L 118 328 L 118 328 L 118 327 L 118 327 L 118 327 L 118 327 L 119 326 L 119 326 L 119 326 L 119 325 L 119 325 L 119 325 L 119 325 L 119 324 L 119 324 L 119 324 L 119 324 L 119 323 L 119 323 L 119 323 L 119 322 L 119 322 L 119 322 L 119 322 L 119 321 L 119 321 L 119 321 L 119 320 L 119 320 L 119 320 L 119 320 L 119 319 L 119 319 L 119 319 L 119 319 L 119 318 L 119 318 L 119 318 L 119 317 L 120 317 L 120 317 L 120 317 L 120 316 L 120 316 L 120 316 L 120 316 L 120 315 L 120 315 L 120 315 L 120 314 L 120 314 L 120 314 L 120 314 L 120 313 L 120 313 L 120 313 L 120 313 L 121 312 L 121 312 L 121 312 L 122 311 L 122 311 L 122 311 L 124 311 L 124 310 L 124 310 L 125 310 L 125 309 L 127 309 L 129 309 L 129 309 L 131 308 L 131 308 L 132 308 L 133 308 L 133 307 L 135 307 L 135 307 L 135 306 L 136 306 L 137 306 L 137 306 L 137 305 L 137 305 L 138 305 L 139 305 L 139 304 L 139 304 L 140 304 L 140 303 L 140 303 L 141 303 L 142 303 L 143 302 L 144 302 L 145 302 L 146 302 L 146 301 L 146 301 L 147 301 L 148 300 L 152 300 L 152 300 L 153 300 L 157 299 L 157 299 L 157 299 L 158 298 L 158 298 L 158 298 L 160 298 L 161 297 L 161 297 L 166 297 L 167 297 L 168 296 L 170 296 L 171 296 L 171 295 L 172 295 L 175 295 L 179 295 L 184 294 L 184 294 L 184 294 L 185 294 L 185 293 L 192 293 L 195 293 L 195 292 L 197 292 L 198 292 L 198 292 L 205 291 L 205 291 L 206 291 L 206 291 L 207 290 L 210 290 L 211 290 L 212 289 L 213 289 L 217 289 L 217 289 L 218 288 L 218 288 L 218 288 L 219 287 L 221 287 L 225 287 L 233 287 L 236 286 L 238 286 L 238 286 L 240 286 L 240 285 L 240 285 L 240 285 L 240 284 L 240 284 L 240 284 L 240 284 L 241 283 L 241 283 L 241 283 L 241 283 L 241 282 L 241 282 L 241 282 L 243 281 L 243 281 L 243 281 L 243 281 L 244 280 L 244 280 L 244 280 L 244 280 L 244 279 L 244 279 L 244 279 L 245 278 L 245 278 L 246 278 L 246 278 L 246 277 L 246 277 L 246 277 L 247 276 L 247 276 L 247 276 L 248 276 L 248 275 L 248 275 L 249 275 L 249 275 L 250 274 L 251 274 L 253 274 L 253 273 L 253 273 L 253 273 L 253 273 L 253 272 L 253 272 L 255 272 L 255 272 L 256 271 L 256 271 L 257 271 L 258 270 L 259 270 L 259 270 L 261 270 L 261 269 L 262 269 L 262 269 L 262 269 L 266 268 L 266 268 L 267 268 L 269 267 L 270 267 L 273 267 L 273 267 L 274 266 L 274 266 L 275 266 L 275 265 L 277 265 L 278 265 L 279 265 L 280 264 L 281 264 L 281 264 L 281 264 L 281 263 L 282 263 L 282 263 L 282 262 L 283 262 L 283 262 L 283 262 L 284 261 L 287 261 L 290 261 L 290 261 L 291 260 L 293 260 L 294 260 L 295 259 L 295 259 L 296 259 L 297 259 L 297 258 L 297 258 L 297 258 L 297 258 L 297 257 L 297 257 L 298 257 L 298 256 L 298 256 L 300 256 L 300 256 L 300 255 L 300 255 L 300 255 L 300 254 L 300 254 L 300 254 L 300 254 L 300 253 L 301 253 L 301 253 L 301 253 L 304 252 L 305 252 L 305 252 L 306 251 L 314 251 L 314 251 L 317 251 L 318 250 L 325 250 L 326 250 L 326 250 L 326 249 L 326 249 L 327 249 L 327 248 L 327 248 L 328 248 L 328 248 L 334 247 L 336 247 L 338 247 L 342 247 L 345 246 L 348 246 L 350 246 L 353 245 L 353 245 L 360 245 L 366 245 L 367 244 L 371 244 L 371 244 L 375 243 L 376 243 L 378 243 L 378 243 L 378 242 L 378 242 L 381 242 L 381 242 L 383 241 L 386 241 L 386 241 L 387 240 L 388 240 L 390 240 L 393 240 L 393 239 L 396 239 L 398 239 L 399 239 L 399 238 L 400 238 L 401 238 L 402 237 L 404 237 L 406 237 L 408 237 L 409 236 L 409 236 L 413 236 L 414 236 L 416 235 L 419 235 L 419 235 L 422 234 L 423 234 L 423 234 L 424 234 L 424 233 L 426 233 L 426 233 L 428 232 L 430 232 L 430 232 L 431 232 L 431 231 L 436 231 L 436 231 L 437 231 L 437 230 L 437 230 L 438 230 L 438 229 L 438 229 L 439 229 L 440 229 L 440 228 L 441 228 L 442 228 L 442 228 L 442 227 L 443 227 L 443 227 L 444 226 L 444 226 L 444 226 L 444 226 L 444 225 L 444 225 L 445 225 L 445 225 L 446 224 L 447 224 L 447 224 L 447 223 L 448 223 L 449 223 L 449 223 L 450 222 L 450 222 L 451 222 L 452 221 L 452 221 L 452 221 L 454 221 L 454 220 L 454 220 L 455 220 L 455 220 L 455 219 L 455 219 L 455 219 L 456 218 L 456 218 L 459 218 L 459 218 L 460 217 L 461 217 L 462 217 L 463 217 L 464 216 L 465 216 L 467 216 L 469 215 L 471 215 L 471 215 L 471 215 L 471 214 L 472 214 L 472 214 L 472 214 L 472 213 L 473 213 L 473 213 L 473 212 L 473 212 L 475 212 L 475 212 L 475 211 L 476 211 L 476 211 L 478 210 L 478 210 L 478 210 L 479 210 L 480 209 L 481 209 L 486 209 L 486 209 L 486 208 L 486 208 L 488 208 L 490 207 L 490 207 L 490 207 L 490 207 L 490 206 L 492 206 L 494 206 L 494 206 L 494 205 L 494 205 L 496 205 L 496 204 L 496 204 L 496 204 L 498 204 L 501 203 L 501 203 L 504 203 L 504 203 L 505 202 L 507 202 L 508 202 L 510 201 L 512 201 L 513 201 L 514 201 L 514 200 L 514 200 L 514 200 L 514 199 L 514 199 L 515 199 L 515 199 L 515 198 L 516 198 L 516 198 L 516 198 L 517 197 L 518 197 L 518 197 L 521 196 L 522 196 L 525 196 L 527 196 L 527 195 L 528 195 L 528 195 L 531 195 L 531 194 L 531 194 L 532 194 L 532 193 L 532 193 L 532 193 L 532 193 L 533 192 L 533 192 L 533 192 L 533 192 L 533 191 L 533 191 L 534 191 L 535 190 L 535 190 L 535 190 L 536 190 L 537 189 L 537 189 L 537 189 L 537 188 L 538 188 L 540 188 L 540 188 L 540 187 L 540 187 L 540 187 L 541 187 L 541 186 L 541 186 L 542 186 L 544 185 L 546 185 L 548 185 L 548 185 L 550 184 L 552 184 L 555 184 L 555 184 L 557 183 L 560 183 L 560 183 L 560 182 L 564 182 L 565 182 L 565 182 L 566 181 L 566 181 L 572 181 L 573 181 L 573 180 L 573 180 L 574 180 L 574 179 L 575 179 L 575 179 L 576 179 L 576 178 L 576 178 L 577 178 L 577 177 L 577 177 L 577 177 L 577 177 L 577 176 L 578 176 L 578 176 L 579 176 L 580 175 L 581 175 L 581 175 L 581 174 L 582 174 L 582 174 L 583 174 L 583 173 L 584 173 L 584 173 L 584 173 L 584 172 L 585 172 L 586 172 L 587 171 L 587 171 L 587 171 L 588 171 L 588 170 L 588 170 L 589 170 L 589 170 L 589 169 L 589 169 L 590 169 L 590 168 L 590 168 L 592 168 L 592 168 L 592 167 L 592 167 L 592 167 L 592 166 L 593 166 L 593 166 L 593 166 L 594 165 L 594 165 L 594 165 L 595 165 L 595 164 L 595 164 L 595 164 L 595 163 L 595 163 L 596 163 L 596 163 L 596 162 L 596 162 L 596 162 L 598 162 L 599 161 L 600 161 L 600 161 L 600 160 L 600 160 L 601 160 L 602 160 L 603 159 L 603 159 L 605 159 L 607 159 L 607 158 L 608 158 L 609 158 L 609 157 L 609 157 L 610 157 L 610 157 L 610 156 L 610 156 L 610 156 L 610 155 L 610 155 L 610 155 L 611 155 L 611 154 L 611 154 L 611 154 L 611 154 L 612 153 L 612 153 L 612 153 L 613 152 L 614 152 L 614 152 L 615 152 L 615 151 L 616 151 L 616 151 L 616 151 L 619 150 L 619 150 L 619 150 L 619 149 L 619 149 L 621 149 L 623 149 L 623 148 L 624 148 L 624 148 L 624 148 L 625 147 L 625 147 L 629 147 L 631 146 L 633 146 L 634 146 L 635 146 L 636 145 L 636 145 L 636 145 L 637 144 L 637 144 L 637 144 L 638 144 L 638 143 L 638 143 L 639 143 L 641 143 L 641 142 L 641 142 L 641 142 L 641 141 L 641 141 L 641 141 L 641 141 L 641 140 L 641 140 L 641 140 L 641 140 L 641 139 L 641 139 L 641 139 L 641 138 L 641 138 L 642 138 L 642 138 L 642 137 L 642 137 L 642 137 L 642 137 L 642 136 L 643 136 L 643 136 L 643 135 L 644 135 L 644 135 L 644 135 L 644 134 L 644 134 L 644 134 L 645 133 L 646 133 L 648 133 L 648 133 L 648 132 L 649 132 L 649 132 L 649 132 L 650 131 L 652 131 L 652 131 L 653 130 L 653 130 L 653 130 L 653 130 L 653 129 L 653 129 L 653 129 L 655 129 L 655 128 L 655 128 L 658 128 L 660 127 L 661 127 L 663 127 L 663 127 L 664 126 L 664 126 L 664 126 L 664 126 L 665 125 L 665 125 L 665 125 L 666 124 L 667 124 L 667 124 L 667 124 L 667 123 L 667 123 L 667 123 L 667 122 L 667 122 L 668 122 L 668 122 L 668 121 L 668 121 L 669 121 L 670 121 L 670 120 L 670 120 L 671 120 L 671 119 L 671 119 L 672 119 L 672 119 L 672 118 L 673 118 L 673 118 L 674 118 L 677 117 L 678 117 L 680 117 L 681 116 L 682 116 L 684 116 L 685 116 L 685 115 L 688 115 L 692 115 L 692 115 L 694 114 L 695 114 L 697 114 L 697 113 L 697 113 L 699 113 L 699 113 L 700 112 L 700 112 L 702 112 L 703 111 L 703 111 L 703 111 L 704 111 L 704 110 L 704 110 L 705 110 L 708 110 L 708 109 L 709 109 L 710 109 L 710 108 L 711 108 L 712 108 L 713 108 L 713 107 L 713 107 L 713 107 L 714 107 L 715 106 L 715 106 L 715 106 L 716 105 L 716 105 L 717 105 L 717 105 L 718 104 L 718 104 L 718 104 L 719 104 L 719 103 L 719 103 L 719 103 L 719 102 L 720 102 L 720 102 L 722 102 L 723 101 L 724 101 L 726 101 L 727 100 L 728 100 L 728 100 L 730 100 L 732 99 L 734 99 L 735 99 L 736 99 L 736 98 L 738 98 L 740 98 L 741 97 L 741 97 L 741 97 L 741 97 L 742 96 L 742 96 L 743 96 L 743 96 L 744 95 L 745 95 L 745 95 L 745 94 L 750 94 L 751 94 L 752 94 L 753 93 L 755 93 L 756 93 L 756 92 L 756 92 L 756 92 L 757 92 L 758 91 L 758 91 L 758 91 L 759 91 L 759 90 L 759 90 L 760 90 L 760 89 L 762 89 L 764 89 L 764 89 L 769 88 L 769 88 L 769 88 L 770 88 L 771 87 L 771 87 L 771 87 L 771 86 L 774 86 L 775 86 L 776 86 L 777 85 L 777 85 L 777 85 L 778 85 L 779 84 L 781 84 L 781 84 L 782 83 L 782 83 L 782 83 L 782 83 L 783 82 L 784 82 L 784 82 L 784 82 L 785 81 L 786 81 L 787 81 L 787 80 L 787 80 L 787 80 L 788 80 L 788 79 L 791 79 L 794 79 L 795 78 L 798 78 L 798 78 L 801 78 L 801 77 L 802 77 L 802 77 L 803 77 L 803 76 L 805 76 L 807 76 L 807 75 L 810 75 L 815 75 L 815 75 L 815 74 L 815 74 L 815 74 L 816 74 L 817 73 L 817 73 L 824 73 L 827 72 L 827 72 L 828 72 L 830 72 L 832 71 L 833 71 L 834 71 L 834 71 L 835 70 L 836 70 L 841 70 L 842 69 L 842 69 L 844 69 L 846 69 L 846 68 L 846 68 L 846 68 L 846 67 L 847 67 L 847 67 L 847 67 L 849 66 L 851 66 L 852 66 L 852 66 L 853 65 L 855 65 L 858 65 L 859 64 L 859 64 L 861 64 L 861 64 L 861 63 L 861 63 L 861 63 L 862 63 L 862 62 L 864 62 L 865 62 L 865 61 L 866 61 L 866 61 L 866 61 L 866 60 L 866 60 L 866 60 L 866 60 L 867 59 L 867 59 L 867 59 L 868 58 L 868 58 L 868 58 L 869 58 L 869 57 L 869 57 L 869 57 L 870 56 L 875 56 L 876 56 L 877 56 L 877 55 L 877 55 L 877 55 L 877 55 L 878 54 L 878 54 L 878 54 L 878 53 L 878 53 L 878 53 L 878 53 L 878 52 L 878 52 L 878 52 L 878 52 L 878 51 L 878 51 L 879 51 L 879 50 L 879 50 L 880 50 L 881 50 L 881 49 L 882 49 L 883 49 L 884 49 L 884 48 L 884 48 L 884 48 L 886 47 L 886 47 L 886 47 L 888 47 L 889 46 L 890 46 L 890 46 L 891 45 L 892 45 L 892 45 L 894 45 L 894 44 L 895 44 L 896 44 L 897 44 L 897 43 L 897 43 L 898 43 L 899 42 L 899 42 L 900 42 L 901 42 L 902 41 L 904 41 L 905 41 L 908 41 L 908 40 L 909 40 L 913 40 L 913 39 L 913 39 L 914 39 L 914 39 L 914 38 L 915 38 L 916 38 L 917 38 L 918 37 L 918 37 L 918 37 L 919 36 L 919 36 L 919 36 L 923 36 L 923 35 L 924 35 L 925 35 L 926 34 L 927 34 L 933 34 L 933 34 L 934 33 L 935 33 L 935 33 L 936 33 L 937 32" /><path stroke-width="2" class="series" d="M 58 345 L 60 345 L 71 345 L 72 344 L 72 344 L 72 344 L 72 344 L 72 343 L 72 343 L 72 343 L 72 342 L 72 342 L 72 342 L 72 342 L 72 341 L 72 341 L 72 341 L 72 341 L 72 340 L 73 340 L 73 340 L 73 339 L 74 339 L 75 339 L 75 339 L 75 338 L 75 338 L 76 338 L 77 338 L 77 337 L 78 337 L 79 337 L 82 336 L 82 336 L 83 336 L 83 336 L 83 335 L 85 335 L 86 335 L 86 335 L 88 334 L 91 334 L 92 334 L 97 333 L 98 333 L 101 333 L 104 333 L 105 332 L 116 332 L 116 332 L 118 331 L 118 331 L 118 331 L 118 331 L 118 330 L 118 330 L 118 330 L 118 330 L 118 329 L 118 329 L 118 329 L 118 328 L 118 328 L 118 328 L 118 328 L 118 327 L 118 327 L 118 327 L 118 327 L 119 326 L 119 326 L 119 326 L 119 325 L 119 325 L 119 325 L 119 325 L 119 324 L 119 324 L 119 324 L 119 324 L 119 323 L 119 323 L 119 323 L 119 322 L 119 322 L 119 322 L 119 322 L 119 321 L 119 321 L 119 321 L 119 320 L 119 320 L 119 320 L 119 320 L 119 319 L 119 319 L 119 319 L 119 319 L 119 318 L 119 318 L 119 318 L 119 317 L 120 317 L 120 317 L 120 317 L 120 316 L 120 316 L 120 316 L 120 316 L 120 315 L 120 315 L 120 315 L 120 314 L 120 314 L 120 314 L 120 314 L 120 313 L 120 313 L 120 313 L 120 313 L 121 312 L 121 312 L 121 312 L 122 311 L 122 311 L 122 311 L 124 311 L 124 310 L 124 310 L 125 310 L 125 309 L 127 309 L 129 309 L 129 309 L 131 308 L 131 308 L 132 308 L 133 308 L 133 307 L 135 307 L 135 307 L 135 306 L 136 306 L 137 306 L 137 306 L 137 305 L 137 305 L 138 305 L 139 305 L 139 304 L 139 304 L 140 304 L 140 303 L 140 303 L 141 303 L 142 303 L 143 302 L 144 302 L 145 302 L 146 302 L 146 301 L 146 301 L 147 301 L 148 300 L 152 300 L 152 300 L 153 300 L 157 299 L 157 299 L 157 299 L 158 298 L 158 298 L 158 298 L 160 298 L 161 297 L 161 297 L 166 297 L 167 297 L 168 296 L 170 296 L 171 296 L 171 295 L 172 295 L 175 295 L 179 295 L 184 294 L 184 294 L 184 294 L 185 294 L 185 293 L 192 293 L 195 293 L 195 292 L 197 292 L 198 292 L 198 292 L 205 291 L 205 291 L 206 291 L 206 291 L 207 290 L 210 290 L 211 290 L 212 289 L 213 289 L 217 289 L 217 289 L 218 288 L 218 288 L 218 288 L 219 287 L 221 287 L 225 287 L 233 287 L 236 286 L 238 286 L 238 286 L 240 286 L 240 285 L 240 285 L 240 285 L 240 284 L 240 284 L 240 284 L 240 284 L 241 283 L 241 283 L 241 283 L 241 283 L 241 282 L 241 282 L 241 282 L 243 281 L 243 281 L 243 281 L 243 281 L 244 280 L 244 280 L 244 280 L 244 280 L 244 279 L 244 279 L 244 279 L 245 278 L 245 278 L 246 278 L 246 278 L 246 277 L 246 277 L 246 277 L 247 276 L 247 276 L 247 276 L 248 276 L 248 275 L 248 275 L 249 275 L 249 275 L 250 274 L 251 274 L 253 274 L 253 273 L 253 273 L 253 273 L 253 273 L 253 272 L 253 272 L 255 272 L 255 272 L 256 271 L 256 271 L 257 271 L 258 270 L 259 270 L 259 270 L 261 270 L 261 269 L 262 269 L 262 269 L 262 269 L 266 268 L 266 268 L 267 268 L 269 267 L 270 267 L 273 267 L 273 267 L 274 266 L 274 266 L 275 266 L 275 265 L 277 265 L 278 265 L 279 265 L 280 264 L 281 264 L 281 264 L 281 264 L 281 263 L 282 263 L 282 263 L 282 262 L 283 262 L 283 262 L 283 262 L 284 261 L 287 261 L 290 261 L 290 261 L 291 260 L 293 260 L 294 260 L 295 259 L 295 259 L 296 259 L 297 259 L 297 258 L 297 258 L 297 258 L 297 258 L 297 257 L 297 257 L 298 257 L 298 256 L 298 256 L 300 256 L 300 256 L 300 255 L 300 255 L 300 255 L 300 254 L 300 254 L 300 254 L 300 254 L 300 253 L 301 253 L 301 253 L 301 253 L 304 252 L 305 252 L 305 252 L 306 251 L 314 251 L 314 251 L 317 251 L 318 250 L 325 250 L 326 250 L 326 250 L 326 249 L 326 249 L 327 249 L 327 248 L 327 248 L 328 248 L 328 248 L 334 247 L 336 247 L 338 247 L 342 247 L 345 246 L 348 246 L 350 246 L 353 245 L 353 245 L 360 245 L 366 245 L 367 244 L 371 244 L 371 244 L 375 243 L 376 243 L 378 243 L 378 243 L 378 242 L 378 242 L 381 242 L 381 242 L 383 241 L 386 241 L 386 241 L 387 240 L 388 240 L 390 240 L 393 240 L 393 239 L 396 239 L 398 239 L 399 239 L 399 238 L 400 238 L 401 238 L 402 237 L 404 237 L 406 237 L 408 237 L 409 236 L 409 236 L 413 236 L 414 236 L 416 235 L 419 235 L 419 235 L 422 234 L 423 234 L 423 234 L 424 234 L 424 233 L 426 233 L 426 233 L 428 232 L 430 232 L 430 232 L 431 232 L 431 231 L 436 231 L 436 231 L 437 231 L 437 230 L 437 230 L 438 230 L 438 229 L 438 229 L 439 229 L 440 229 L 440 228 L 441 228 L 442 228 L 442 228 L 442 227 L 443 227 L 443 227 L 444 226 L 444 226 L 444 226 L 444 226 L 444 225 L 444 225 L 445 225 L 445 225 L 446 224 L 447 224 L 447 224 L 447 223 L 448 223 L 449 223 L 449 223 L 450 222 L 450 222 L 451 222 L 452 221 L 452 221 L 452 221 L 454 221 L 454 220 L 454 220 L 455 220 L 455 220 L 455 219 L 455 219 L 455 219 L 456 218 L 456 218 L 459 218 L 459 218 L 460 217 L 461 217 L 462 217 L 463 217 L 464 216 L 465 216 L 467 216 L 469 215 L 471 215 L 471 215 L 471 215 L 471 214 L 472 214 L 472 214 L 472 214 L 472 213 L 473 213 L 473 213 L 473 212 L 473 212 L 475 212 L 475 212 L 475 211 L 476 211 L 476 211 L 478 210 L 478 210 L 478 210 L 479 210 L 480 209 L 481 209 L 486 209 L 486 209 L 486 208 L 486 208 L 488 208 L 490 207 L 490 207 L 490 207 L 490 207 L 490 206 L 492 206 L 494 206 L 494 206 L 494 205 L 494 205 L 496 205 L 496 204 L 496 204 L 496 204 L 498 204 L 501 203 L 501 203 L 504 203 L 504 203 L 505 202 L 507 202 L 508 202 L 510 201 L 512 201 L 513 201 L 514 201 L 514 200 L 514 200 L 514 200 L 514 199 L 514 199 L 515 199 L 515 199 L 515 198 L 516 198 L 516 198 L 516 198 L 517 197 L 518 197 L 518 197 L 521 196 L 522 196 L 525 196 L 527 196 L 527 195 L 528 195 L 528 195 L 531 195 L 531 194 L 531 194 L 532 194 L 532 193 L 532 193 L 532 193 L 532 193 L 533 192 L 533 192 L 533 192 L 533 192 L 533 191 L 533 191 L 534 191 L 535 190 L 535 190 L 535 190 L 536 190 L 537 189 L 537 189 L 537 189 L 537 188 L 538 188 L 540 188 L 540 188 L 540 187 L 540 187 L 540 187 L 541 187 L 541 186 L 541 186 L 542 186 L 544 185 L 546 185 L 548 185 L 548 185 L 550 184 L 552 184 L 555 184 L 555 184 L 557 183 L 560 183 L 560 183 L 560 182 L 564 182 L 565 182 L 565 182 L 566 181 L 566 181 L 572 181 L 573 181 L 573 180 L 573 180 L 574 180 L 574 179 L 575 179 L 575 179 L 576 179 L 576 178 L 576 178 L 577 178 L 577 177 L 577 177 L 577 177 L 577 177 L 577 176 L 578 176 L 578 176 L 579 176 L 580 175 L 581 175 L 581 175 L 581 174 L 582 174 L 582 174 L 583 174 L 583 173 L 584 173 L 584 173 L 584 173 L 584 172 L 585 172 L 586 172 L 587 171 L 587 171 L 587 171 L 588 171 L 588 170 L 588 170 L 589 170 L 589 170 L 589 169 L 589 169 L 590 169 L 590 168 L 590 168 L 592 168 L 592 168 L 592 167 L 592 167 L 592 167 L 592 166 L 593 166 L 593 166 L 593 166 L 594 165 L 594 165 L 594 165 L 595 165 L 595 164 L 595 164 L 595 164 L 595 163 L 595 163 L 596 163 L 596 163 L 596 162 L 596 162 L 596 162 L 598 162 L 599 161 L 600 161 L 600 161 L 600 160 L 600 160 L 601 160 L 602 160 L 603 159 L 603 159 L 605 159 L 607 159 L 607 158 L 608 158 L 609 158 L 609 157 L 609 157 L 610 157 L 610 157 L 610 156 L 610 156 L 610 156 L 610 155 L 610 155 L 610 155 L 611 155 L 611 154 L 611 154 L 611 154 L 611 154 L 612 153 L 612 153 L 612 153 L 613 152 L 614 152 L 614 152 L 615 152 L 615 151 L 616 151 L 616 151 L 616 151 L 619 150 L 619 150 L 619 150 L 619 149 L 619 149 L 621 149 L 623 149 L 623 148 L 624 148 L 624 148 L 624 148 L 625 147 L 625 147 L 629 147 L 631 146 L 633 146 L 634 146 L 635 146 L 636 145 L 636 145 L 636 145 L 637 144 L 637 144 L 637 144 L 638 144 L 638 143 L 638 143 L 639 143 L 641 143 L 641 142 L 641 142 L 641 142 L 641 141 L 641 141 L 641 141 L 641 141 L 641 140 L 641 140 L 641 140 L 641 140 L 641 139 L 641 139 L 641 139 L 641 138 L 641 138 L 642 138 L 642 138 L 642 137 L 642 137 L 642 137 L 642 137 L 642 136 L 643 136 L 643 136 L 643 135 L 644 135 L 644 135 L 644 135 L 644 134 L 644 134 L 644 134 L 645 133 L 646 133 L 648 133 L 648 133 L 648 132 L 649 132 L 649 132 L 649 132 L 650 131 L 652 131 L 652 131 L 653 130 L 653 130 L 653 130 L 653 130 L 653 129 L 653 129 L 653 129 L 655 129 L 655 128 L 655 128 L 658 128 L 660 127 L 661 127 L 663 127 L 663 127 L 664 126 L 664 126 L 664 126 L 664 126 L 665 125 L 665 125 L 665 125 L 666 124 L 667 124 L 667 124 L 667 124 L 667 123 L 667 123 L 667 123 L 667 122 L 667 122 L 668 122 L 668 122 L 668 121 L 668 121 L 669 121 L 670 121 L 670 120 L 670 120 L 671 120 L 671 119 L 671 119 L 672 119 L 672 119 L 672 118 L 673 118 L 673 118 L 674 118 L 677 117 L 678 117 L 680 117 L 681 116 L 682 116 L 684 116 L 685 116 L 685 115 L 688 115 L 692 115 L 692 115 L 694 114 L 695 114 L 697 114 L 697 113 L 697 113 L 699 113 L 699 113 L 700 112 L 700 112 L 702 112 L 703 111 L 703 111 L 703 111 L 704 111 L 704 110 L 704 110 L 705 110 L 708 110 L 708 109 L 709 109 L 710 109 L 710 108 L 711 108 L 712 108 L 713 108 L 713 107 L 713 107 L 713 107 L 714 107 L 715 106 L 715 106 L 715 106 L 716 105 L 716 105 L 717 105 L 717 105 L 718 104 L 718 104 L 718 104 L 719 104 L 719 103 L 719 103 L 719 103 L 719 102 L 720 102 L 720 102 L 722 102 L 723 101 L 724 101 L 726 101 L 727 100 L 728 100 L 728 100 L 730 100 L 732 99 L 734 99 L 735 99 L 736 99 L 736 98 L 738 98 L 740 98 L 741 97 L 741 97 L 741 97 L 741 97 L 742 96 L 742 96 L 743 96 L 743 96 L 744 95 L 745 95 L 745 95 L 745 94 L 750 94 L 751 94 L 752 94 L 753 93 L 755 93 L 756 93 L 756 92 L 756 92 L 756 92 L 757 92 L 758 91 L 758 91 L 758 91 L 759 91 L 759 90 L 759 90 L 760 90 L 760 89 L 762 89 L 764 89 L 764 89 L 769 88 L 769 88 L 769 88 L 770 88 L 771 87 L 771 87 L 771 87 L 771 86 L 774 86 L 775 86 L 776 86 L 777 85 L 777 85 L 777 85 L 778 85 L 779 84 L 781 84 L 781 84 L 782 83 L 782 83 L 782 83 L 782 83 L 783 82 L 784 82 L 784 82 L 784 82 L 785 81 L 786 81 L 787 81 L 787 80 L 787 80 L 787 80 L 788 80 L 788 79 L 791 79 L 794 79 L 795 78 L 798 78 L 798 78 L 801 78 L 801 77 L 802 77 L 802 77 L 803 77 L 803 76 L 805 76 L 807 76 L 807 75 L 810 75 L 815 75 L 815 75 L 815 74 L 815 74 L 815 74 L 816 74 L 817 73 L 817 73 L 824 73 L 827 72 L 827 72 L 828 72 L 830 72 L 832 71 L 833 71 L 834 71 L 834 71 L 835 70 L 836 70 L 841 70 L 842 69 L 842 69 L 844 69 L 846 69 L 846 68 L 846 68 L 846 68 L 846 67 L 847 67 L 847 67 L 847 67 L 849 66 L 851 66 L 852 66 L 852 66 L 853 65 L 855 65 L 858 65 L 859 64 L 859 64 L 861 64 L 861 64 L 861 63 L 861 63 L 861 63 L 862 63 L 862 62 L 864 62 L 865 62 L 865 61 L 866 61 L 866 61 L 866 61 L 866 60 L 866 60 L 866 60 L 866 60 L 867 59 L 867 59 L 867 59 L 868 58 L 868 58 L 868 58 L 869 58 L 869 57 L 869 57 L 869 57 L 870 56 L 875 56 L 876 56 L 877 56 L 877 55 L 877 55 L 877 55 L 877 55 L 878 54 L 878 54 L 878 54 L 878 53 L 878 53 L 878 53 L 878 53 L 878 52 L 878 52 L 878 52 L 878 52 L 878 51 L 878 51 L 879 51 L 879 50 L 879 50 L 880 50 L 881 50 L 881 49 L 882 49 L 883 49 L 884 49 L 884 48 L 884 48 L 884 48 L 886 47 L 886 47 L 886 47 L 888 47 L 889 46 L 890 46 L 890 46 L 891 45 L 892 45 L 892 45 L 894 45 L 894 44 L 895 44 L 896 44 L 897 44 L 897 43 L 897 43 L 898 43 L 899 42 L 899 42 L 900 42 L 901 42 L 902 41 L 904 41 L 905 41 L 908 41 L 908 40 L 909 40 L 913 40 L 913 39 L 913 39 L 914 39 L 914 39 L 914 38 L 915 38 L 916 38 L 917 38 L 918 37 L 918 37 L 918 37 L 919 36 L 919 36 L 919 36 L 923 36 L 923 35 L 924 35 L 925 35 L 926 34 L 927 34 L 933 34 L 933 34 L 934 33 L 935 33 L 935 33 L 936 33 L 937 32"></path><path stroke-width="2" d="M 937 346 L 937.000000 15.000000" /><path stroke-width="2" d="M 937 346 L 937.000000 15.000000"></path><path stroke-width="2" d="M 937 346 L 942 346" /><path stroke-width="2" d="M 937 346 L 942 346"></path><text x="947" y="352" xmlns="http://www.w3.org/2000/svg">0</text><path stroke-width="2" d="M 937 307 L 942 307" /><path stroke-width="2" d="M 937 307 L 942 307"></path><text xmlns="http://www.w3.org/2000/svg" x="947" y="313">140</text><path stroke-width="2" d="M 937 271 L 942 271" /><path stroke-width="2" d="M 937 271 L 942 271"></path><text xmlns="http://www.w3.org/2000/svg" x="947" y="277">270</text><path stroke-width="2" d="M 937 236 L 942 236" /><path stroke-width="2" d="M 937 236 L 942 236"></path><text xmlns="http://www.w3.org/2000/svg" x="947" y="242">400</text><path stroke-width="2" d="M 937 197 L 942 197" /><path stroke-width="2" d="M 937 197 L 942 197"></path><text xmlns="http://www.w3.org/2000/svg" x="947" y="203">540</text><path d="M 937 161 L 942 161" stroke-width="2" /><path stroke-width="2" d="M 937 161 L 942 161"></path><text xmlns="http://www.w3.org/2000/svg" x="947" y="167">670</text><path d="M 937 126 L 942 126" stroke-width="2" /><path stroke-width="2" d="M 937 126 L 942 126"></path><text x="947" y="132" xmlns="http://www.w3.org/2000/svg">800</text><path stroke-width="2" d="M 937 87 L 942 87" /><path stroke-width="2" d="M 937 87 L 942 87"></path><text x="947" y="93" xmlns="http://www.w3.org/2000/svg">940</text><path stroke-width="2" d="M 937 51 L 942 51" /><path stroke-width="2" d="M 937 51 L 942 51"></path><text xmlns="http://www.w3.org/2000/svg" x="947" y="57">1070</text><path d="M 937 16 L 942 16" stroke-width="2" /><path stroke-width="2" d="M 937 16 L 942 16"></path><text xmlns="http://www.w3.org/2000/svg" x="947" y="22">1200</text><text transform="rotate(90.00,987,175)" xmlns="http://www.w3.org/2000/svg" x="987" y="175">Stargazers</text><path stroke-width="2" d="M 57.000000 346.000000 L 937 346" /><path stroke-width="2" d="M 57.000000 346.000000 L 937 346"></path><path stroke-width="2" d="M 58 346 L 58 351" /><path stroke-width="2" d="M 58 346 L 58 351"></path><text xmlns="http://www.w3.org/2000/svg" x="25" y="368">2023-04-02</text><path stroke-width="2" d="M 156 346 L 156 351" /><path d="M 156 346 L 156 351" stroke-width="2"></path><text xmlns="http://www.w3.org/2000/svg" x="123" y="368">2023-07-16</text><path stroke-width="2" d="M 254 346 L 254 351" /><path stroke-width="2" d="M 254 346 L 254 351"></path><text xmlns="http://www.w3.org/2000/svg" x="221" y="368">2023-10-29</text><path stroke-width="2" d="M 352 346 L 352 351" /><path stroke-width="2" d="M 352 346 L 352 351"></path><text y="368" xmlns="http://www.w3.org/2000/svg" x="319">2024-02-12</text><path stroke-width="2" d="M 449 346 L 449 351" /><path stroke-width="2" d="M 449 346 L 449 351"></path><text xmlns="http://www.w3.org/2000/svg" x="416" y="368">2024-05-27</text><path stroke-width="2" d="M 547 346 L 547 351" /><path stroke-width="2" d="M 547 346 L 547 351"></path><text xmlns="http://www.w3.org/2000/svg" x="514" y="368">2024-09-09</text><path d="M 645 346 L 645 351" stroke-width="2" /><path stroke-width="2" d="M 645 346 L 645 351"></path><text xmlns="http://www.w3.org/2000/svg" x="612" y="368">2024-12-23</text><path d="M 742 346 L 742 351" stroke-width="2" /><path stroke-width="2" d="M 742 346 L 742 351"></path><text xmlns="http://www.w3.org/2000/svg" x="709" y="368">2025-04-08</text><path stroke-width="2" d="M 840 346 L 840 351" /><path stroke-width="2" d="M 840 346 L 840 351"></path><text xmlns="http://www.w3.org/2000/svg" x="807" y="368">2025-07-22</text><path stroke-width="2" d="M 937 346 L 937 351" /><path d="M 937 346 L 937 351" stroke-width="2"></path><text xmlns="http://www.w3.org/2000/svg" x="904" y="368">2025-11-04</text><text y="390" xmlns="http://www.w3.org/2000/svg" x="483">Time</text></svg>