<svg xmlns="http://www.w3.org/2000/svg" xmlns:xlink="http://www.w3.org/1999/xlink" width="1024" height="400">\n<path  d="M 0 0
L 1024 0
L 1024 400
L 0 400
L 0 0" style="stroke-width:0;stroke:rgba(255,255,255,1.0);fill:rgba(255,255,255,1.0)"/><path  d="M 38 11
L 965 11
L 965 351
L 38 351
L 38 11" style="stroke-width:0;stroke:rgba(255,255,255,1.0);fill:rgba(255,255,255,1.0)"/><path  d="M 38 351
L 965 351" style="stroke-width:2;stroke:rgba(85,85,85,1.0);fill:none"/><path  d="M 38 351
L 38 356" style="stroke-width:2;stroke:rgba(85,85,85,1.0);fill:none"/><text x="5" y="373" style="stroke-width:0;stroke:none;fill:rgba(51,51,51,1.0);font-size:12.8px;font-family:'Roboto Medium',sans-serif">2023-04-02</text><path  d="M 154 351
L 154 356" style="stroke-width:2;stroke:rgba(85,85,85,1.0);fill:none"/><text x="121" y="373" style="stroke-width:0;stroke:none;fill:rgba(51,51,51,1.0);font-size:12.8px;font-family:'Roboto Medium',sans-serif">2023-05-05</text><path  d="M 270 351
L 270 356" style="stroke-width:2;stroke:rgba(85,85,85,1.0);fill:none"/><text x="237" y="373" style="stroke-width:0;stroke:none;fill:rgba(51,51,51,1.0);font-size:12.8px;font-family:'Roboto Medium',sans-serif">2023-06-08</text><path  d="M 386 351
L 386 356" style="stroke-width:2;stroke:rgba(85,85,85,1.0);fill:none"/><text x="353" y="373" style="stroke-width:0;stroke:none;fill:rgba(51,51,51,1.0);font-size:12.8px;font-family:'Roboto Medium',sans-serif">2023-07-11</text><path  d="M 502 351
L 502 356" style="stroke-width:2;stroke:rgba(85,85,85,1.0);fill:none"/><text x="469" y="373" style="stroke-width:0;stroke:none;fill:rgba(51,51,51,1.0);font-size:12.8px;font-family:'Roboto Medium',sans-serif">2023-08-13</text><path  d="M 618 351
L 618 356" style="stroke-width:2;stroke:rgba(85,85,85,1.0);fill:none"/><text x="585" y="373" style="stroke-width:0;stroke:none;fill:rgba(51,51,51,1.0);font-size:12.8px;font-family:'Roboto Medium',sans-serif">2023-09-16</text><path  d="M 734 351
L 734 356" style="stroke-width:2;stroke:rgba(85,85,85,1.0);fill:none"/><text x="701" y="373" style="stroke-width:0;stroke:none;fill:rgba(51,51,51,1.0);font-size:12.8px;font-family:'Roboto Medium',sans-serif">2023-10-19</text><path  d="M 850 351
L 850 356" style="stroke-width:2;stroke:rgba(85,85,85,1.0);fill:none"/><text x="817" y="373" style="stroke-width:0;stroke:none;fill:rgba(51,51,51,1.0);font-size:12.8px;font-family:'Roboto Medium',sans-serif">2023-11-21</text><path  d="M 965 351
L 965 356" style="stroke-width:2;stroke:rgba(85,85,85,1.0);fill:none"/><text x="932" y="373" style="stroke-width:0;stroke:none;fill:rgba(51,51,51,1.0);font-size:12.8px;font-family:'Roboto Medium',sans-serif">2023-12-25</text><text x="487" y="395" style="stroke-width:0;stroke:none;fill:rgba(51,51,51,1.0);font-size:12.8px;font-family:'Roboto Medium',sans-serif">Time</text><path  d="M 967 351
L 967 11" style="stroke-width:2;stroke:rgba(85,85,85,1.0);fill:none"/><path  d="M 967 351
L 972 351" style="stroke-width:2;stroke:rgba(85,85,85,1.0);fill:none"/><text x="977" y="357" style="stroke-width:0;stroke:none;fill:rgba(51,51,51,1.0);font-size:12.8px;font-family:'Roboto Medium',sans-serif">0</text><path  d="M 967 308
L 972 308" style="stroke-width:2;stroke:rgba(85,85,85,1.0);fill:none"/><text x="977" y="314" style="stroke-width:0;stroke:none;fill:rgba(51,51,51,1.0);font-size:12.8px;font-family:'Roboto Medium',sans-serif">45</text><path  d="M 967 266
L 972 266" style="stroke-width:2;stroke:rgba(85,85,85,1.0);fill:none"/><text x="977" y="272" style="stroke-width:0;stroke:none;fill:rgba(51,51,51,1.0);font-size:12.8px;font-family:'Roboto Medium',sans-serif">90</text><path  d="M 967 223
L 972 223" style="stroke-width:2;stroke:rgba(85,85,85,1.0);fill:none"/><text x="977" y="229" style="stroke-width:0;stroke:none;fill:rgba(51,51,51,1.0);font-size:12.8px;font-family:'Roboto Medium',sans-serif">135</text><path  d="M 967 181
L 972 181" style="stroke-width:2;stroke:rgba(85,85,85,1.0);fill:none"/><text x="977" y="187" style="stroke-width:0;stroke:none;fill:rgba(51,51,51,1.0);font-size:12.8px;font-family:'Roboto Medium',sans-serif">180</text><path  d="M 967 138
L 972 138" style="stroke-width:2;stroke:rgba(85,85,85,1.0);fill:none"/><text x="977" y="144" style="stroke-width:0;stroke:none;fill:rgba(51,51,51,1.0);font-size:12.8px;font-family:'Roboto Medium',sans-serif">225</text><path  d="M 967 96
L 972 96" style="stroke-width:2;stroke:rgba(85,85,85,1.0);fill:none"/><text x="977" y="102" style="stroke-width:0;stroke:none;fill:rgba(51,51,51,1.0);font-size:12.8px;font-family:'Roboto Medium',sans-serif">270</text><path  d="M 967 53
L 972 53" style="stroke-width:2;stroke:rgba(85,85,85,1.0);fill:none"/><text x="977" y="59" style="stroke-width:0;stroke:none;fill:rgba(51,51,51,1.0);font-size:12.8px;font-family:'Roboto Medium',sans-serif">315</text><path  d="M 967 11
L 972 11" style="stroke-width:2;stroke:rgba(85,85,85,1.0);fill:none"/><text x="977" y="17" style="stroke-width:0;stroke:none;fill:rgba(51,51,51,1.0);font-size:12.8px;font-family:'Roboto Medium',sans-serif">360</text><text x="1009" y="150" style="stroke-width:0;stroke:none;fill:rgba(51,51,51,1.0);font-size:12.8px;font-family:'Roboto Medium',sans-serif" transform="rotate(90.00,1009,150)">Stargazers</text><path  d="M 38 351
L 45 350
L 87 349
L 88 348
L 88 347
L 88 346
L 88 345
L 88 344
L 88 343
L 88 342
L 89 341
L 89 340
L 89 339
L 89 338
L 90 337
L 90 336
L 90 335
L 90 334
L 91 334
L 91 333
L 93 332
L 94 331
L 95 330
L 98 329
L 100 328
L 100 327
L 100 326
L 101 325
L 104 324
L 108 323
L 109 322
L 112 321
L 115 320
L 128 319
L 128 318
L 128 317
L 129 317
L 129 316
L 129 315
L 129 314
L 136 313
L 140 312
L 142 311
L 148 310
L 159 309
L 163 308
L 182 307
L 188 306
L 198 305
L 208 304
L 213 303
L 252 302
L 254 301
L 255 300
L 260 300
L 261 299
L 261 298
L 261 297
L 261 296
L 261 295
L 261 294
L 261 293
L 261 292
L 262 291
L 262 290
L 262 289
L 262 288
L 263 287
L 263 286
L 263 285
L 263 284
L 263 283
L 263 283
L 263 282
L 263 281
L 263 280
L 263 279
L 263 278
L 263 277
L 263 276
L 263 275
L 263 274
L 263 273
L 263 272
L 264 271
L 264 270
L 264 269
L 264 268
L 264 267
L 264 266
L 264 266
L 264 265
L 264 264
L 264 263
L 264 262
L 264 261
L 264 260
L 264 259
L 264 258
L 264 257
L 265 256
L 265 255
L 266 254
L 267 253
L 267 252
L 267 251
L 268 250
L 268 249
L 270 249
L 270 248
L 270 247
L 270 246
L 270 245
L 270 244
L 270 243
L 270 242
L 270 241
L 270 240
L 270 239
L 270 238
L 270 237
L 270 236
L 270 235
L 270 234
L 271 233
L 272 232
L 274 232
L 275 231
L 275 230
L 275 229
L 284 228
L 285 227
L 285 226
L 288 225
L 289 224
L 295 223
L 301 222
L 303 221
L 309 220
L 311 219
L 315 218
L 316 217
L 317 216
L 324 215
L 324 215
L 326 214
L 329 213
L 331 212
L 333 211
L 334 210
L 334 209
L 335 208
L 338 207
L 341 206
L 341 205
L 343 204
L 344 203
L 344 202
L 347 201
L 351 200
L 354 199
L 360 198
L 362 198
L 365 197
L 367 196
L 368 195
L 368 194
L 372 193
L 389 192
L 390 191
L 393 190
L 409 189
L 409 188
L 409 187
L 409 186
L 410 185
L 413 184
L 418 183
L 421 182
L 421 181
L 441 181
L 444 180
L 449 179
L 455 178
L 459 177
L 459 176
L 462 175
L 476 174
L 491 173
L 508 172
L 510 171
L 510 170
L 511 169
L 511 168
L 515 167
L 539 166
L 549 165
L 550 164
L 559 163
L 561 163
L 562 162
L 588 161
L 588 160
L 590 159
L 591 158
L 594 157
L 601 156
L 604 155
L 609 154
L 613 153
L 618 152
L 633 151
L 634 150
L 636 149
L 637 148
L 637 147
L 638 147
L 646 146
L 646 145
L 661 144
L 682 143
L 693 142
L 705 141
L 706 140
L 712 139
L 712 138
L 716 137
L 720 136
L 720 135
L 720 134
L 720 133
L 720 132
L 720 131
L 720 130
L 720 130
L 720 129
L 721 128
L 721 127
L 721 126
L 721 125
L 722 124
L 723 123
L 725 122
L 728 121
L 729 120
L 729 119
L 730 118
L 730 117
L 734 116
L 734 115
L 734 114
L 734 113
L 734 113
L 734 112
L 734 111
L 737 110
L 737 109
L 738 108
L 740 107
L 740 106
L 740 105
L 741 104
L 741 103
L 743 102
L 744 101
L 744 100
L 744 99
L 747 98
L 747 97
L 748 96
L 750 96
L 753 95
L 755 94
L 759 93
L 765 92
L 765 91
L 767 90
L 768 89
L 768 88
L 768 87
L 768 86
L 773 85
L 774 84
L 779 83
L 779 82
L 781 81
L 786 80
L 790 79
L 790 79
L 797 78
L 798 77
L 799 76
L 802 75
L 802 74
L 814 73
L 816 72
L 817 71
L 827 70
L 831 69
L 841 68
L 844 67
L 844 66
L 847 65
L 848 64
L 848 63
L 856 62
L 862 62
L 866 61
L 866 60
L 870 59
L 873 58
L 873 57
L 873 56
L 874 55
L 875 54
L 876 53
L 876 52
L 879 51
L 879 50
L 879 49
L 882 48
L 893 47
L 907 46
L 907 45
L 908 45
L 917 44
L 922 43
L 924 42
L 925 41
L 928 40
L 931 39
L 931 38
L 931 37
L 931 36
L 931 35
L 932 34
L 932 33
L 934 32
L 934 31
L 936 30
L 942 29
L 942 28
L 942 28
L 943 27
L 944 26
L 944 25
L 944 24
L 945 23
L 945 22
L 945 21
L 945 20
L 945 19
L 946 18
L 949 17
L 956 16
L 963 15
L 963 14
L 965 13" style="stroke-width:2;stroke:rgba(129,199,239,1.0);fill:none"/></svg>