<svg xmlns="http://www.w3.org/2000/svg" xmlns:xlink="http://www.w3.org/1999/xlink" width="1024px" height="400px"><style type="text/css">
path { fill: none; stroke: rgb(51,51,51); }
path.series { stroke: #6b63ff; }
rect.background { fill: rgb(255,255,255); stroke: none; }

text {
	stroke-width: 0;
	stroke: none;
	fill: rgba(51,51,51,1.0);
	font-size: 12.8px;
	font-family: 'Roboto Medium', sans-serif;
}
</style><rect height="400px" class="background" rx="8" x="0" y="0" width="1024px" /><rect x="0" y="0" width="1024px" height="400px" class="background" rx="8"></rect><path stroke-width="2" class="series" d="M 58 345 L 62 344 L 82 344 L 83 343 L 83 343 L 83 342 L 83 342 L 83 341 L 83 340 L 83 340 L 84 339 L 84 339 L 84 338 L 84 338 L 84 337 L 84 337 L 84 336 L 84 335 L 84 335 L 86 334 L 86 334 L 86 333 L 88 333 L 89 332 L 89 332 L 89 331 L 90 330 L 91 330 L 93 329 L 93 329 L 95 328 L 96 328 L 103 327 L 103 326 L 103 326 L 103 325 L 103 325 L 103 324 L 107 324 L 109 323 L 110 323 L 113 322 L 118 321 L 120 321 L 130 320 L 133 320 L 138 319 L 143 319 L 145 318 L 165 318 L 166 317 L 166 316 L 168 316 L 169 315 L 169 315 L 169 314 L 169 314 L 169 313 L 169 313 L 169 312 L 169 311 L 169 311 L 169 310 L 169 310 L 170 309 L 170 309 L 170 308 L 170 307 L 170 307 L 170 306 L 170 306 L 170 305 L 170 305 L 170 304 L 170 304 L 170 303 L 170 302 L 170 302 L 170 301 L 170 301 L 170 300 L 170 300 L 170 299 L 170 299 L 170 298 L 170 297 L 170 297 L 170 296 L 170 296 L 170 295 L 170 295 L 170 294 L 170 293 L 170 293 L 170 292 L 171 292 L 171 291 L 171 291 L 171 290 L 171 290 L 171 289 L 172 288 L 172 288 L 172 287 L 172 287 L 172 286 L 173 286 L 173 285 L 173 285 L 173 284 L 173 283 L 173 283 L 173 282 L 173 282 L 174 281 L 174 281 L 174 280 L 174 280 L 174 279 L 174 278 L 174 278 L 174 277 L 174 277 L 174 276 L 176 276 L 176 275 L 176 274 L 176 274 L 180 273 L 181 273 L 181 272 L 183 272 L 183 271 L 186 271 L 189 270 L 190 269 L 193 269 L 194 268 L 196 268 L 196 267 L 197 267 L 200 266 L 200 266 L 201 265 L 203 264 L 204 264 L 205 263 L 205 263 L 205 262 L 206 262 L 207 261 L 209 260 L 209 260 L 210 259 L 210 259 L 210 258 L 211 258 L 214 257 L 215 257 L 218 256 L 219 255 L 220 255 L 222 254 L 222 254 L 222 253 L 224 253 L 232 252 L 233 252 L 234 251 L 242 250 L 242 250 L 242 249 L 243 249 L 243 248 L 244 248 L 247 247 L 248 247 L 248 246 L 258 245 L 260 245 L 262 244 L 265 244 L 267 243 L 267 243 L 269 242 L 275 241 L 283 241 L 292 240 L 292 240 L 292 239 L 293 239 L 293 238 L 295 238 L 307 237 L 312 236 L 312 236 L 317 235 L 318 235 L 318 234 L 331 234 L 331 233 L 332 233 L 333 232 L 334 231 L 338 231 L 339 230 L 342 230 L 343 229 L 346 229 L 354 228 L 354 227 L 355 227 L 355 226 L 356 226 L 356 225 L 360 225 L 367 224 L 383 224 L 389 223 L 392 222 L 393 222 L 395 221 L 396 221 L 396 220 L 397 220 L 397 219 L 397 219 L 397 218 L 397 217 L 397 217 L 397 216 L 397 216 L 397 215 L 397 215 L 397 214 L 398 214 L 398 213 L 401 212 L 401 212 L 401 211 L 401 211 L 402 210 L 403 210 L 403 209 L 403 208 L 404 208 L 404 207 L 404 207 L 404 206 L 405 206 L 406 205 L 406 205 L 407 204 L 407 203 L 407 203 L 407 202 L 408 202 L 408 201 L 409 201 L 409 200 L 410 200 L 410 199 L 411 198 L 412 198 L 413 197 L 414 197 L 416 196 L 419 196 L 419 195 L 420 194 L 420 194 L 420 193 L 421 193 L 421 192 L 423 192 L 424 191 L 426 191 L 426 190 L 427 189 L 429 189 L 431 188 L 432 188 L 435 187 L 436 187 L 436 186 L 437 186 L 437 185 L 443 184 L 445 184 L 445 183 L 450 183 L 452 182 L 457 182 L 458 181 L 458 181 L 460 180 L 460 179 L 460 179 L 464 178 L 467 178 L 469 177 L 469 177 L 471 176 L 473 175 L 473 175 L 473 174 L 473 174 L 474 173 L 474 173 L 474 172 L 476 172 L 476 171 L 476 170 L 477 170 L 483 169 L 490 169 L 490 168 L 490 168 L 494 167 L 497 167 L 498 166 L 498 165 L 500 165 L 501 164 L 501 164 L 501 163 L 501 163 L 502 162 L 502 161 L 502 161 L 503 160 L 503 160 L 504 159 L 507 159 L 507 158 L 507 158 L 507 157 L 508 156 L 508 156 L 508 155 L 508 155 L 508 154 L 508 154 L 508 153 L 508 153 L 509 152 L 514 151 L 517 151 L 517 150 L 518 150 L 525 149 L 533 149 L 534 148 L 538 148 L 542 147 L 550 146 L 553 146 L 556 145 L 556 145 L 556 144 L 556 144 L 557 143 L 557 142 L 557 142 L 557 141 L 559 141 L 560 140 L 571 140 L 574 139 L 578 139 L 586 138 L 592 137 L 596 137 L 600 136 L 606 136 L 606 135 L 618 135 L 631 134 L 631 134 L 640 133 L 640 132 L 647 132 L 648 131 L 652 131 L 652 130 L 653 130 L 653 129 L 657 128 L 659 128 L 662 127 L 667 127 L 668 126 L 669 126 L 670 125 L 675 125 L 679 124 L 680 123 L 685 123 L 690 122 L 691 122 L 691 121 L 693 121 L 695 120 L 696 120 L 700 119 L 704 118 L 707 118 L 710 117 L 710 117 L 717 116 L 718 116 L 722 115 L 728 115 L 728 114 L 735 113 L 736 113 L 736 112 L 738 112 L 738 111 L 741 111 L 742 110 L 745 109 L 748 109 L 749 108 L 750 108 L 750 107 L 761 107 L 761 106 L 762 106 L 762 105 L 762 104 L 763 104 L 764 103 L 764 103 L 765 102 L 767 102 L 767 101 L 770 101 L 770 100 L 771 99 L 772 99 L 773 98 L 773 98 L 774 97 L 774 97 L 774 96 L 776 95 L 776 95 L 776 94 L 776 94 L 778 93 L 779 93 L 780 92 L 780 92 L 781 91 L 782 90 L 783 90 L 785 89 L 785 89 L 786 88 L 788 88 L 790 87 L 790 87 L 790 86 L 791 85 L 794 85 L 794 84 L 794 84 L 795 83 L 795 83 L 795 82 L 795 82 L 796 81 L 797 80 L 798 80 L 802 79 L 804 79 L 805 78 L 806 78 L 809 77 L 811 76 L 812 76 L 814 75 L 818 75 L 821 74 L 824 74 L 825 73 L 826 73 L 826 72 L 826 71 L 827 71 L 827 70 L 828 70 L 829 69 L 829 69 L 829 68 L 830 68 L 832 67 L 833 66 L 833 66 L 834 65 L 834 65 L 838 64 L 839 64 L 839 63 L 840 62 L 841 62 L 845 61 L 848 61 L 853 60 L 853 60 L 853 59 L 854 59 L 857 58 L 860 57 L 860 57 L 860 56 L 860 56 L 861 55 L 863 55 L 868 54 L 869 54 L 869 53 L 869 52 L 871 52 L 872 51 L 872 51 L 872 50 L 872 50 L 876 49 L 881 49 L 881 48 L 887 47 L 887 47 L 888 46 L 893 46 L 894 45 L 898 45 L 900 44 L 903 43 L 904 43 L 904 42 L 905 42 L 905 41 L 905 41 L 905 40 L 907 40 L 907 39 L 907 38 L 909 38 L 909 37 L 909 37 L 910 36 L 912 36 L 912 35 L 919 35 L 919 34 L 926 33 L 929 33 L 929 32 L 931 32 L 932 31 L 935 31 L 936 30 L 937 29 L 937 29 L 938 28 L 938 28 L 938 27 L 938 27 L 938 26 L 939 26 L 939 25 L 940 24 L 940 24 L 940 23 L 941 23 L 941 22 L 941 22 L 943 21 L 943 21 L 944 20 L 944 19 L 945 19" /><path d="M 58 345 L 62 344 L 82 344 L 83 343 L 83 343 L 83 342 L 83 342 L 83 341 L 83 340 L 83 340 L 84 339 L 84 339 L 84 338 L 84 338 L 84 337 L 84 337 L 84 336 L 84 335 L 84 335 L 86 334 L 86 334 L 86 333 L 88 333 L 89 332 L 89 332 L 89 331 L 90 330 L 91 330 L 93 329 L 93 329 L 95 328 L 96 328 L 103 327 L 103 326 L 103 326 L 103 325 L 103 325 L 103 324 L 107 324 L 109 323 L 110 323 L 113 322 L 118 321 L 120 321 L 130 320 L 133 320 L 138 319 L 143 319 L 145 318 L 165 318 L 166 317 L 166 316 L 168 316 L 169 315 L 169 315 L 169 314 L 169 314 L 169 313 L 169 313 L 169 312 L 169 311 L 169 311 L 169 310 L 169 310 L 170 309 L 170 309 L 170 308 L 170 307 L 170 307 L 170 306 L 170 306 L 170 305 L 170 305 L 170 304 L 170 304 L 170 303 L 170 302 L 170 302 L 170 301 L 170 301 L 170 300 L 170 300 L 170 299 L 170 299 L 170 298 L 170 297 L 170 297 L 170 296 L 170 296 L 170 295 L 170 295 L 170 294 L 170 293 L 170 293 L 170 292 L 171 292 L 171 291 L 171 291 L 171 290 L 171 290 L 171 289 L 172 288 L 172 288 L 172 287 L 172 287 L 172 286 L 173 286 L 173 285 L 173 285 L 173 284 L 173 283 L 173 283 L 173 282 L 173 282 L 174 281 L 174 281 L 174 280 L 174 280 L 174 279 L 174 278 L 174 278 L 174 277 L 174 277 L 174 276 L 176 276 L 176 275 L 176 274 L 176 274 L 180 273 L 181 273 L 181 272 L 183 272 L 183 271 L 186 271 L 189 270 L 190 269 L 193 269 L 194 268 L 196 268 L 196 267 L 197 267 L 200 266 L 200 266 L 201 265 L 203 264 L 204 264 L 205 263 L 205 263 L 205 262 L 206 262 L 207 261 L 209 260 L 209 260 L 210 259 L 210 259 L 210 258 L 211 258 L 214 257 L 215 257 L 218 256 L 219 255 L 220 255 L 222 254 L 222 254 L 222 253 L 224 253 L 232 252 L 233 252 L 234 251 L 242 250 L 242 250 L 242 249 L 243 249 L 243 248 L 244 248 L 247 247 L 248 247 L 248 246 L 258 245 L 260 245 L 262 244 L 265 244 L 267 243 L 267 243 L 269 242 L 275 241 L 283 241 L 292 240 L 292 240 L 292 239 L 293 239 L 293 238 L 295 238 L 307 237 L 312 236 L 312 236 L 317 235 L 318 235 L 318 234 L 331 234 L 331 233 L 332 233 L 333 232 L 334 231 L 338 231 L 339 230 L 342 230 L 343 229 L 346 229 L 354 228 L 354 227 L 355 227 L 355 226 L 356 226 L 356 225 L 360 225 L 367 224 L 383 224 L 389 223 L 392 222 L 393 222 L 395 221 L 396 221 L 396 220 L 397 220 L 397 219 L 397 219 L 397 218 L 397 217 L 397 217 L 397 216 L 397 216 L 397 215 L 397 215 L 397 214 L 398 214 L 398 213 L 401 212 L 401 212 L 401 211 L 401 211 L 402 210 L 403 210 L 403 209 L 403 208 L 404 208 L 404 207 L 404 207 L 404 206 L 405 206 L 406 205 L 406 205 L 407 204 L 407 203 L 407 203 L 407 202 L 408 202 L 408 201 L 409 201 L 409 200 L 410 200 L 410 199 L 411 198 L 412 198 L 413 197 L 414 197 L 416 196 L 419 196 L 419 195 L 420 194 L 420 194 L 420 193 L 421 193 L 421 192 L 423 192 L 424 191 L 426 191 L 426 190 L 427 189 L 429 189 L 431 188 L 432 188 L 435 187 L 436 187 L 436 186 L 437 186 L 437 185 L 443 184 L 445 184 L 445 183 L 450 183 L 452 182 L 457 182 L 458 181 L 458 181 L 460 180 L 460 179 L 460 179 L 464 178 L 467 178 L 469 177 L 469 177 L 471 176 L 473 175 L 473 175 L 473 174 L 473 174 L 474 173 L 474 173 L 474 172 L 476 172 L 476 171 L 476 170 L 477 170 L 483 169 L 490 169 L 490 168 L 490 168 L 494 167 L 497 167 L 498 166 L 498 165 L 500 165 L 501 164 L 501 164 L 501 163 L 501 163 L 502 162 L 502 161 L 502 161 L 503 160 L 503 160 L 504 159 L 507 159 L 507 158 L 507 158 L 507 157 L 508 156 L 508 156 L 508 155 L 508 155 L 508 154 L 508 154 L 508 153 L 508 153 L 509 152 L 514 151 L 517 151 L 517 150 L 518 150 L 525 149 L 533 149 L 534 148 L 538 148 L 542 147 L 550 146 L 553 146 L 556 145 L 556 145 L 556 144 L 556 144 L 557 143 L 557 142 L 557 142 L 557 141 L 559 141 L 560 140 L 571 140 L 574 139 L 578 139 L 586 138 L 592 137 L 596 137 L 600 136 L 606 136 L 606 135 L 618 135 L 631 134 L 631 134 L 640 133 L 640 132 L 647 132 L 648 131 L 652 131 L 652 130 L 653 130 L 653 129 L 657 128 L 659 128 L 662 127 L 667 127 L 668 126 L 669 126 L 670 125 L 675 125 L 679 124 L 680 123 L 685 123 L 690 122 L 691 122 L 691 121 L 693 121 L 695 120 L 696 120 L 700 119 L 704 118 L 707 118 L 710 117 L 710 117 L 717 116 L 718 116 L 722 115 L 728 115 L 728 114 L 735 113 L 736 113 L 736 112 L 738 112 L 738 111 L 741 111 L 742 110 L 745 109 L 748 109 L 749 108 L 750 108 L 750 107 L 761 107 L 761 106 L 762 106 L 762 105 L 762 104 L 763 104 L 764 103 L 764 103 L 765 102 L 767 102 L 767 101 L 770 101 L 770 100 L 771 99 L 772 99 L 773 98 L 773 98 L 774 97 L 774 97 L 774 96 L 776 95 L 776 95 L 776 94 L 776 94 L 778 93 L 779 93 L 780 92 L 780 92 L 781 91 L 782 90 L 783 90 L 785 89 L 785 89 L 786 88 L 788 88 L 790 87 L 790 87 L 790 86 L 791 85 L 794 85 L 794 84 L 794 84 L 795 83 L 795 83 L 795 82 L 795 82 L 796 81 L 797 80 L 798 80 L 802 79 L 804 79 L 805 78 L 806 78 L 809 77 L 811 76 L 812 76 L 814 75 L 818 75 L 821 74 L 824 74 L 825 73 L 826 73 L 826 72 L 826 71 L 827 71 L 827 70 L 828 70 L 829 69 L 829 69 L 829 68 L 830 68 L 832 67 L 833 66 L 833 66 L 834 65 L 834 65 L 838 64 L 839 64 L 839 63 L 840 62 L 841 62 L 845 61 L 848 61 L 853 60 L 853 60 L 853 59 L 854 59 L 857 58 L 860 57 L 860 57 L 860 56 L 860 56 L 861 55 L 863 55 L 868 54 L 869 54 L 869 53 L 869 52 L 871 52 L 872 51 L 872 51 L 872 50 L 872 50 L 876 49 L 881 49 L 881 48 L 887 47 L 887 47 L 888 46 L 893 46 L 894 45 L 898 45 L 900 44 L 903 43 L 904 43 L 904 42 L 905 42 L 905 41 L 905 41 L 905 40 L 907 40 L 907 39 L 907 38 L 909 38 L 909 37 L 909 37 L 910 36 L 912 36 L 912 35 L 919 35 L 919 34 L 926 33 L 929 33 L 929 32 L 931 32 L 932 31 L 935 31 L 936 30 L 937 29 L 937 29 L 938 28 L 938 28 L 938 27 L 938 27 L 938 26 L 939 26 L 939 25 L 940 24 L 940 24 L 940 23 L 941 23 L 941 22 L 941 22 L 943 21 L 943 21 L 944 20 L 944 19 L 945 19" stroke-width="2" class="series"></path><path stroke-width="2" d="M 945 346 L 945.000000 15.000000" /><path stroke-width="2" d="M 945 346 L 945.000000 15.000000"></path><path stroke-width="2" d="M 945 346 L 950 346" /><path stroke-width="2" d="M 945 346 L 950 346"></path><text xmlns="http://www.w3.org/2000/svg" x="955" y="352">0</text><path stroke-width="2" d="M 945 309 L 950 309" /><path stroke-width="2" d="M 945 309 L 950 309"></path><text xmlns="http://www.w3.org/2000/svg" x="955" y="315">66</text><path stroke-width="2" d="M 945 272 L 950 272" /><path stroke-width="2" d="M 945 272 L 950 272"></path><text x="955" y="278" xmlns="http://www.w3.org/2000/svg">132</text><path stroke-width="2" d="M 945 235 L 950 235" /><path stroke-width="2" d="M 945 235 L 950 235"></path><text xmlns="http://www.w3.org/2000/svg" x="955" y="241">197</text><path stroke-width="2" d="M 945 198 L 950 198" /><path stroke-width="2" d="M 945 198 L 950 198"></path><text xmlns="http://www.w3.org/2000/svg" x="955" y="204">263</text><path stroke-width="2" d="M 945 162 L 950 162" /><path stroke-width="2" d="M 945 162 L 950 162"></path><text y="168" xmlns="http://www.w3.org/2000/svg" x="955">328</text><path stroke-width="2" d="M 945 125 L 950 125" /><path stroke-width="2" d="M 945 125 L 950 125"></path><text x="955" y="131" xmlns="http://www.w3.org/2000/svg">394</text><path d="M 945 89 L 950 89" stroke-width="2" /><path stroke-width="2" d="M 945 89 L 950 89"></path><text xmlns="http://www.w3.org/2000/svg" x="955" y="95">459</text><path stroke-width="2" d="M 945 52 L 950 52" /><path d="M 945 52 L 950 52" stroke-width="2"></path><text xmlns="http://www.w3.org/2000/svg" x="955" y="58">525</text><path stroke-width="2" d="M 945 16 L 950 16" /><path stroke-width="2" d="M 945 16 L 950 16"></path><text xmlns="http://www.w3.org/2000/svg" x="955" y="22">590</text><text y="175" transform="rotate(90.00,987,175)" xmlns="http://www.w3.org/2000/svg" x="987">Stargazers</text><path stroke-width="2" d="M 57.000000 346.000000 L 945 346" /><path stroke-width="2" d="M 57.000000 346.000000 L 945 346"></path><path stroke-width="2" d="M 58 346 L 58 351" /><path d="M 58 346 L 58 351" stroke-width="2"></path><text xmlns="http://www.w3.org/2000/svg" x="25" y="368">2023-04-02</text><path d="M 157 346 L 157 351" stroke-width="2" /><path d="M 157 346 L 157 351" stroke-width="2"></path><text xmlns="http://www.w3.org/2000/svg" x="124" y="368">2023-05-29</text><path stroke-width="2" d="M 256 346 L 256 351" /><path stroke-width="2" d="M 256 346 L 256 351"></path><text xmlns="http://www.w3.org/2000/svg" x="223" y="368">2023-07-25</text><path d="M 354 346 L 354 351" stroke-width="2" /><path stroke-width="2" d="M 354 346 L 354 351"></path><text y="368" xmlns="http://www.w3.org/2000/svg" x="321">2023-09-20</text><path stroke-width="2" d="M 453 346 L 453 351" /><path stroke-width="2" d="M 453 346 L 453 351"></path><text xmlns="http://www.w3.org/2000/svg" x="420" y="368">2023-11-16</text><path stroke-width="2" d="M 551 346 L 551 351" /><path stroke-width="2" d="M 551 346 L 551 351"></path><text xmlns="http://www.w3.org/2000/svg" x="518" y="368">2024-01-13</text><path stroke-width="2" d="M 650 346 L 650 351" /><path stroke-width="2" d="M 650 346 L 650 351"></path><text y="368" xmlns="http://www.w3.org/2000/svg" x="617">2024-03-10</text><path stroke-width="2" d="M 748 346 L 748 351" /><path d="M 748 346 L 748 351" stroke-width="2"></path><text xmlns="http://www.w3.org/2000/svg" x="715" y="368">2024-05-06</text><path stroke-width="2" d="M 847 346 L 847 351" /><path stroke-width="2" d="M 847 346 L 847 351"></path><text xmlns="http://www.w3.org/2000/svg" x="814" y="368">2024-07-02</text><path stroke-width="2" d="M 945 346 L 945 351" /><path stroke-width="2" d="M 945 346 L 945 351"></path><text xmlns="http://www.w3.org/2000/svg" x="912" y="368">2024-08-28</text><text x="487" y="390" xmlns="http://www.w3.org/2000/svg">Time</text></svg>