<svg xmlns="http://www.w3.org/2000/svg" xmlns:xlink="http://www.w3.org/1999/xlink" width="1024" height="400">\n<path  d="M 0 0
L 1024 0
L 1024 400
L 0 400
L 0 0" style="stroke-width:0;stroke:rgba(255,255,255,1.0);fill:rgba(255,255,255,1.0)"/><path  d="M 38 11
L 965 11
L 965 351
L 38 351
L 38 11" style="stroke-width:0;stroke:rgba(255,255,255,1.0);fill:rgba(255,255,255,1.0)"/><path  d="M 38 351
L 965 351" style="stroke-width:2;stroke:rgba(85,85,85,1.0);fill:none"/><path  d="M 38 351
L 38 356" style="stroke-width:2;stroke:rgba(85,85,85,1.0);fill:none"/><text x="5" y="373" style="stroke-width:0;stroke:none;fill:rgba(51,51,51,1.0);font-size:12.8px;font-family:'Roboto Medium',sans-serif">2023-04-02</text><path  d="M 154 351
L 154 356" style="stroke-width:2;stroke:rgba(85,85,85,1.0);fill:none"/><text x="121" y="373" style="stroke-width:0;stroke:none;fill:rgba(51,51,51,1.0);font-size:12.8px;font-family:'Roboto Medium',sans-serif">2023-05-04</text><path  d="M 270 351
L 270 356" style="stroke-width:2;stroke:rgba(85,85,85,1.0);fill:none"/><text x="237" y="373" style="stroke-width:0;stroke:none;fill:rgba(51,51,51,1.0);font-size:12.8px;font-family:'Roboto Medium',sans-serif">2023-06-05</text><path  d="M 386 351
L 386 356" style="stroke-width:2;stroke:rgba(85,85,85,1.0);fill:none"/><text x="353" y="373" style="stroke-width:0;stroke:none;fill:rgba(51,51,51,1.0);font-size:12.8px;font-family:'Roboto Medium',sans-serif">2023-07-07</text><path  d="M 502 351
L 502 356" style="stroke-width:2;stroke:rgba(85,85,85,1.0);fill:none"/><text x="469" y="373" style="stroke-width:0;stroke:none;fill:rgba(51,51,51,1.0);font-size:12.8px;font-family:'Roboto Medium',sans-serif">2023-08-08</text><path  d="M 618 351
L 618 356" style="stroke-width:2;stroke:rgba(85,85,85,1.0);fill:none"/><text x="585" y="373" style="stroke-width:0;stroke:none;fill:rgba(51,51,51,1.0);font-size:12.8px;font-family:'Roboto Medium',sans-serif">2023-09-09</text><path  d="M 734 351
L 734 356" style="stroke-width:2;stroke:rgba(85,85,85,1.0);fill:none"/><text x="701" y="373" style="stroke-width:0;stroke:none;fill:rgba(51,51,51,1.0);font-size:12.8px;font-family:'Roboto Medium',sans-serif">2023-10-12</text><path  d="M 850 351
L 850 356" style="stroke-width:2;stroke:rgba(85,85,85,1.0);fill:none"/><text x="817" y="373" style="stroke-width:0;stroke:none;fill:rgba(51,51,51,1.0);font-size:12.8px;font-family:'Roboto Medium',sans-serif">2023-11-13</text><path  d="M 965 351
L 965 356" style="stroke-width:2;stroke:rgba(85,85,85,1.0);fill:none"/><text x="932" y="373" style="stroke-width:0;stroke:none;fill:rgba(51,51,51,1.0);font-size:12.8px;font-family:'Roboto Medium',sans-serif">2023-12-15</text><text x="487" y="395" style="stroke-width:0;stroke:none;fill:rgba(51,51,51,1.0);font-size:12.8px;font-family:'Roboto Medium',sans-serif">Time</text><path  d="M 967 351
L 967 11" style="stroke-width:2;stroke:rgba(85,85,85,1.0);fill:none"/><path  d="M 967 351
L 972 351" style="stroke-width:2;stroke:rgba(85,85,85,1.0);fill:none"/><text x="977" y="357" style="stroke-width:0;stroke:none;fill:rgba(51,51,51,1.0);font-size:12.8px;font-family:'Roboto Medium',sans-serif">0</text><path  d="M 967 308
L 972 308" style="stroke-width:2;stroke:rgba(85,85,85,1.0);fill:none"/><text x="977" y="314" style="stroke-width:0;stroke:none;fill:rgba(51,51,51,1.0);font-size:12.8px;font-family:'Roboto Medium',sans-serif">43</text><path  d="M 967 266
L 972 266" style="stroke-width:2;stroke:rgba(85,85,85,1.0);fill:none"/><text x="977" y="272" style="stroke-width:0;stroke:none;fill:rgba(51,51,51,1.0);font-size:12.8px;font-family:'Roboto Medium',sans-serif">85</text><path  d="M 967 223
L 972 223" style="stroke-width:2;stroke:rgba(85,85,85,1.0);fill:none"/><text x="977" y="229" style="stroke-width:0;stroke:none;fill:rgba(51,51,51,1.0);font-size:12.8px;font-family:'Roboto Medium',sans-serif">128</text><path  d="M 967 181
L 972 181" style="stroke-width:2;stroke:rgba(85,85,85,1.0);fill:none"/><text x="977" y="187" style="stroke-width:0;stroke:none;fill:rgba(51,51,51,1.0);font-size:12.8px;font-family:'Roboto Medium',sans-serif">170</text><path  d="M 967 138
L 972 138" style="stroke-width:2;stroke:rgba(85,85,85,1.0);fill:none"/><text x="977" y="144" style="stroke-width:0;stroke:none;fill:rgba(51,51,51,1.0);font-size:12.8px;font-family:'Roboto Medium',sans-serif">213</text><path  d="M 967 96
L 972 96" style="stroke-width:2;stroke:rgba(85,85,85,1.0);fill:none"/><text x="977" y="102" style="stroke-width:0;stroke:none;fill:rgba(51,51,51,1.0);font-size:12.8px;font-family:'Roboto Medium',sans-serif">255</text><path  d="M 967 53
L 972 53" style="stroke-width:2;stroke:rgba(85,85,85,1.0);fill:none"/><text x="977" y="59" style="stroke-width:0;stroke:none;fill:rgba(51,51,51,1.0);font-size:12.8px;font-family:'Roboto Medium',sans-serif">298</text><path  d="M 967 11
L 972 11" style="stroke-width:2;stroke:rgba(85,85,85,1.0);fill:none"/><text x="977" y="17" style="stroke-width:0;stroke:none;fill:rgba(51,51,51,1.0);font-size:12.8px;font-family:'Roboto Medium',sans-serif">340</text><text x="1009" y="150" style="stroke-width:0;stroke:none;fill:rgba(51,51,51,1.0);font-size:12.8px;font-family:'Roboto Medium',sans-serif" transform="rotate(90.00,1009,150)">Stargazers</text><path  d="M 38 351
L 45 350
L 89 349
L 90 348
L 90 347
L 90 346
L 90 345
L 90 344
L 90 343
L 90 342
L 91 341
L 91 339
L 91 339
L 91 337
L 92 337
L 92 335
L 92 335
L 92 334
L 93 333
L 93 332
L 95 331
L 96 330
L 97 328
L 100 328
L 102 327
L 102 326
L 102 324
L 104 324
L 106 323
L 111 322
L 112 320
L 115 320
L 118 319
L 132 318
L 132 317
L 132 316
L 132 315
L 132 314
L 132 313
L 132 312
L 140 311
L 144 310
L 146 309
L 153 308
L 164 306
L 168 306
L 187 305
L 193 304
L 204 303
L 215 302
L 220 301
L 260 300
L 263 298
L 263 298
L 268 297
L 270 296
L 270 295
L 270 294
L 270 293
L 270 292
L 270 290
L 270 290
L 270 289
L 270 288
L 270 287
L 270 286
L 271 285
L 272 284
L 272 283
L 272 282
L 272 281
L 272 280
L 272 279
L 272 278
L 272 277
L 272 276
L 272 275
L 272 274
L 272 273
L 272 272
L 272 271
L 272 270
L 272 269
L 272 268
L 272 267
L 272 266
L 272 265
L 272 264
L 272 262
L 272 262
L 272 261
L 272 260
L 273 259
L 273 257
L 273 257
L 273 256
L 273 255
L 273 254
L 273 253
L 273 252
L 274 251
L 274 250
L 274 249
L 275 248
L 275 246
L 276 246
L 276 245
L 277 244
L 279 243
L 279 241
L 279 241
L 279 240
L 279 239
L 279 238
L 279 237
L 279 236
L 279 235
L 279 234
L 279 233
L 279 232
L 279 230
L 279 230
L 279 229
L 279 228
L 280 227
L 281 225
L 283 225
L 284 224
L 284 223
L 284 222
L 294 221
L 294 220
L 294 219
L 298 218
L 298 217
L 304 216
L 311 215
L 313 214
L 319 213
L 321 212
L 326 211
L 327 210
L 328 209
L 335 208
L 335 207
L 337 206
L 340 205
L 342 204
L 345 203
L 345 202
L 345 201
L 346 200
L 350 199
L 353 198
L 353 197
L 355 196
L 356 195
L 356 194
L 358 193
L 363 192
L 366 191
L 373 190
L 375 189
L 377 188
L 380 187
L 380 186
L 381 185
L 385 184
L 403 183
L 403 182
L 406 181
L 423 180
L 423 179
L 423 178
L 424 177
L 424 176
L 427 174
L 432 174
L 435 173
L 436 172
L 456 171
L 460 170
L 465 169
L 471 168
L 475 167
L 475 166
L 478 164
L 492 163
L 508 163
L 526 162
L 528 161
L 528 160
L 529 159
L 529 158
L 533 157
L 558 156
L 569 155
L 569 153
L 579 153
L 581 152
L 582 151
L 609 150
L 609 149
L 611 148
L 612 147
L 615 146
L 623 145
L 626 144
L 631 142
L 635 142
L 641 141
L 656 140
L 656 139
L 659 138
L 660 137
L 660 136
L 661 135
L 669 134
L 669 132
L 684 131
L 706 131
L 718 130
L 730 129
L 731 128
L 737 127
L 738 126
L 742 125
L 746 124
L 746 123
L 746 121
L 746 121
L 746 120
L 746 119
L 746 118
L 746 117
L 746 116
L 747 115
L 747 114
L 747 113
L 747 112
L 748 110
L 749 110
L 751 109
L 754 108
L 755 107
L 756 106
L 756 105
L 756 104
L 760 103
L 760 102
L 760 100
L 760 100
L 760 99
L 761 98
L 761 97
L 763 96
L 764 95
L 765 94
L 766 93
L 767 92
L 767 91
L 767 90
L 768 89
L 770 88
L 771 87
L 771 86
L 771 85
L 774 84
L 774 83
L 775 82
L 778 81
L 781 80
L 782 79
L 787 78
L 793 77
L 793 76
L 795 75
L 796 74
L 796 73
L 796 72
L 796 71
L 801 70
L 802 69
L 807 68
L 807 67
L 810 66
L 814 65
L 819 64
L 819 63
L 826 62
L 827 61
L 828 60
L 831 59
L 831 58
L 844 57
L 846 56
L 847 55
L 857 54
L 862 53
L 872 52
L 874 51
L 875 50
L 878 49
L 879 48
L 879 47
L 887 46
L 893 45
L 897 44
L 898 43
L 901 42
L 905 41
L 905 40
L 905 39
L 905 38
L 907 37
L 908 36
L 908 35
L 911 34
L 911 33
L 912 32
L 914 31
L 926 30
L 940 29
L 940 28
L 941 27
L 950 26
L 955 25
L 957 24
L 958 23
L 962 22
L 965 21
L 965 20
L 965 19
L 965 18
L 965 17" style="stroke-width:2;stroke:rgba(129,199,239,1.0);fill:none"/></svg>