<svg xmlns="http://www.w3.org/2000/svg" xmlns:xlink="http://www.w3.org/1999/xlink" width="1024px" height="400px"><style type="text/css">
path { fill: none; stroke: rgb(51,51,51); }
path.series { stroke: #6b63ff; }
rect.background { fill: rgb(255,255,255); stroke: none; }

text {
	stroke-width: 0;
	stroke: none;
	fill: rgba(51,51,51,1.0);
	font-size: 12.8px;
	font-family: 'Roboto Medium', sans-serif;
}
</style><rect x="0" y="0" width="1024px" height="400px" class="background" rx="8" /><rect x="0" y="0" width="1024px" height="400px" class="background" rx="8"></rect><path d="M 58 345 L 62 344 L 84 344 L 85 343 L 85 342 L 85 342 L 85 341 L 85 341 L 85 340 L 85 339 L 85 339 L 85 338 L 85 338 L 85 337 L 85 336 L 86 336 L 86 335 L 86 335 L 86 334 L 87 333 L 88 333 L 88 332 L 90 331 L 91 331 L 91 330 L 91 330 L 92 329 L 93 328 L 95 328 L 96 327 L 97 327 L 99 326 L 106 325 L 106 325 L 106 324 L 106 324 L 106 323 L 106 322 L 110 322 L 112 321 L 113 320 L 117 320 L 122 319 L 124 319 L 134 318 L 137 317 L 143 317 L 148 316 L 151 316 L 171 315 L 172 314 L 173 314 L 175 313 L 176 313 L 176 312 L 176 311 L 176 311 L 176 310 L 176 309 L 176 309 L 176 308 L 176 308 L 176 307 L 176 306 L 177 306 L 177 305 L 177 305 L 177 304 L 177 303 L 177 303 L 177 302 L 177 302 L 177 301 L 177 300 L 177 300 L 177 299 L 177 298 L 177 298 L 177 297 L 177 297 L 177 296 L 177 295 L 177 295 L 177 294 L 177 294 L 177 293 L 177 292 L 177 292 L 177 291 L 177 291 L 177 290 L 177 289 L 177 289 L 178 288 L 178 287 L 178 287 L 178 286 L 178 286 L 178 285 L 178 284 L 178 284 L 179 283 L 179 283 L 179 282 L 179 281 L 180 281 L 181 280 L 181 280 L 181 279 L 181 278 L 181 278 L 181 277 L 181 276 L 181 276 L 181 275 L 181 275 L 181 274 L 181 273 L 181 273 L 181 272 L 181 272 L 181 271 L 181 270 L 182 270 L 183 269 L 183 269 L 183 268 L 183 267 L 188 267 L 189 266 L 189 265 L 190 265 L 190 264 L 194 264 L 197 263 L 198 262 L 201 262 L 202 261 L 205 261 L 205 260 L 206 259 L 209 259 L 209 258 L 210 258 L 212 257 L 213 256 L 214 256 L 214 255 L 214 254 L 215 254 L 217 253 L 218 253 L 218 252 L 219 251 L 220 251 L 220 250 L 221 250 L 224 249 L 225 248 L 228 248 L 229 247 L 231 247 L 232 246 L 232 245 L 232 245 L 235 244 L 244 243 L 244 243 L 245 242 L 254 242 L 254 241 L 254 240 L 254 240 L 255 239 L 256 239 L 259 238 L 260 237 L 260 237 L 271 236 L 273 236 L 275 235 L 278 234 L 280 234 L 280 233 L 282 232 L 289 232 L 297 231 L 306 231 L 307 230 L 307 229 L 308 229 L 308 228 L 310 228 L 322 227 L 328 226 L 328 226 L 333 225 L 334 225 L 335 224 L 348 223 L 348 223 L 349 222 L 350 221 L 352 221 L 355 220 L 357 220 L 360 219 L 362 218 L 365 218 L 372 217 L 373 217 L 374 216 L 374 215 L 374 215 L 375 214 L 379 214 L 387 213 L 404 212 L 410 212 L 414 211 L 414 210 L 416 210 L 418 209 L 418 209 L 418 208 L 418 207 L 418 207 L 418 206 L 418 206 L 418 205 L 418 204 L 418 204 L 418 203 L 419 203 L 419 202 L 419 201 L 420 201 L 421 200 L 422 199 L 423 199 L 423 198 L 423 198 L 423 197 L 425 196 L 425 196 L 425 195 L 425 195 L 425 194 L 426 193 L 426 193 L 427 192 L 428 192 L 428 191 L 429 190 L 429 190 L 429 189 L 429 188 L 430 188 L 431 187 L 431 187 L 431 186 L 432 185 L 432 185 L 433 184 L 434 184 L 436 183 L 437 182 L 439 182 L 442 181 L 442 181 L 443 180 L 443 179 L 443 179 L 443 178 L 444 177 L 446 177 L 447 176 L 449 176 L 449 175 L 450 174 L 453 174 L 455 173 L 455 173 L 459 172 L 459 171 L 460 171 L 461 170 L 461 170 L 468 169 L 469 168 L 470 168 L 474 167 L 477 166 L 482 166 L 483 165 L 484 165 L 485 164 L 486 163 L 486 163 L 490 162 L 493 162 L 495 161 L 495 160 L 497 160 L 499 159 L 499 159 L 499 158 L 499 157 L 500 157 L 500 156 L 500 155 L 502 155 L 502 154 L 502 154 L 503 153 L 510 152 L 517 152 L 517 151 L 517 151 L 522 150 L 524 149 L 526 149 L 526 148 L 528 148 L 529 147 L 529 146 L 529 146 L 530 145 L 530 144 L 530 144 L 530 143 L 531 143 L 531 142 L 532 141 L 535 141 L 535 140 L 535 140 L 536 139 L 536 138 L 536 138 L 537 137 L 537 137 L 537 136 L 537 135 L 537 135 L 537 134 L 537 133 L 543 133 L 546 132 L 546 132 L 548 131 L 554 130 L 563 130 L 564 129 L 569 129 L 572 128 L 581 127 L 584 127 L 587 126 L 588 126 L 588 125 L 588 124 L 588 124 L 588 123 L 588 122 L 588 122 L 590 121 L 592 121 L 603 120 L 606 119 L 610 119 L 619 118 L 626 118 L 630 117 L 634 116 L 640 116 L 641 115 L 654 115 L 667 114 L 667 113 L 676 113 L 677 112 L 684 111 L 686 111 L 690 110 L 690 110 L 691 109 L 691 108 L 695 108 L 697 107 L 700 107 L 706 106 L 707 105 L 708 105 L 709 104 L 714 104 L 719 103 L 719 102 L 724 102 L 730 101 L 731 100 L 731 100 L 734 99 L 735 99 L 736 98 L 741 97 L 745 97 L 748 96 L 752 96 L 752 95 L 759 94 L 760 94 L 764 93 L 770 92 L 771 92 L 778 91 L 778 91 L 779 90 L 781 89 L 781 89 L 785 88 L 785 88 L 788 87 L 792 86 L 793 86 L 794 85 L 794 85 L 805 84 L 805 83 L 806 83 L 806 82 L 807 82 L 808 81 L 808 80 L 809 80 L 810 79 L 812 78 L 812 78 L 814 77 L 815 77 L 816 76 L 817 75 L 818 75 L 818 74 L 819 74 L 820 73 L 820 72 L 821 72 L 821 71 L 821 71 L 822 70 L 823 69 L 825 69 L 825 68 L 826 67 L 827 67 L 827 66 L 829 66 L 831 65 L 831 64 L 832 64 L 834 63 L 836 63 L 836 62 L 837 61 L 837 61 L 840 60 L 840 60 L 840 59 L 841 58 L 841 58 L 842 57 L 842 56 L 843 56 L 843 55 L 845 55 L 849 54 L 851 53 L 853 53 L 853 52 L 856 52 L 858 51 L 859 50 L 862 50 L 866 49 L 869 49 L 873 48 L 874 47 L 874 47 L 874 46 L 875 45 L 876 45 L 876 44 L 876 44 L 878 43 L 878 42 L 878 42 L 878 41 L 881 41 L 882 40 L 882 39 L 883 39 L 884 38 L 887 38 L 888 37 L 888 36 L 889 36 L 891 35 L 894 34 L 898 34 L 904 33 L 904 33 L 904 32 L 904 31 L 907 31 L 910 30 L 911 30 L 911 29 L 911 28 L 912 28 L 914 27 L 919 27 L 920 26 L 920 25 L 920 25 L 923 24 L 923 23 L 923 23 L 924 22 L 924 22 L 928 21 L 933 20 L 933 20 L 939 19 L 939 19 L 940 18 L 945 17" stroke-width="2" class="series" /><path class="series" d="M 58 345 L 62 344 L 84 344 L 85 343 L 85 342 L 85 342 L 85 341 L 85 341 L 85 340 L 85 339 L 85 339 L 85 338 L 85 338 L 85 337 L 85 336 L 86 336 L 86 335 L 86 335 L 86 334 L 87 333 L 88 333 L 88 332 L 90 331 L 91 331 L 91 330 L 91 330 L 92 329 L 93 328 L 95 328 L 96 327 L 97 327 L 99 326 L 106 325 L 106 325 L 106 324 L 106 324 L 106 323 L 106 322 L 110 322 L 112 321 L 113 320 L 117 320 L 122 319 L 124 319 L 134 318 L 137 317 L 143 317 L 148 316 L 151 316 L 171 315 L 172 314 L 173 314 L 175 313 L 176 313 L 176 312 L 176 311 L 176 311 L 176 310 L 176 309 L 176 309 L 176 308 L 176 308 L 176 307 L 176 306 L 177 306 L 177 305 L 177 305 L 177 304 L 177 303 L 177 303 L 177 302 L 177 302 L 177 301 L 177 300 L 177 300 L 177 299 L 177 298 L 177 298 L 177 297 L 177 297 L 177 296 L 177 295 L 177 295 L 177 294 L 177 294 L 177 293 L 177 292 L 177 292 L 177 291 L 177 291 L 177 290 L 177 289 L 177 289 L 178 288 L 178 287 L 178 287 L 178 286 L 178 286 L 178 285 L 178 284 L 178 284 L 179 283 L 179 283 L 179 282 L 179 281 L 180 281 L 181 280 L 181 280 L 181 279 L 181 278 L 181 278 L 181 277 L 181 276 L 181 276 L 181 275 L 181 275 L 181 274 L 181 273 L 181 273 L 181 272 L 181 272 L 181 271 L 181 270 L 182 270 L 183 269 L 183 269 L 183 268 L 183 267 L 188 267 L 189 266 L 189 265 L 190 265 L 190 264 L 194 264 L 197 263 L 198 262 L 201 262 L 202 261 L 205 261 L 205 260 L 206 259 L 209 259 L 209 258 L 210 258 L 212 257 L 213 256 L 214 256 L 214 255 L 214 254 L 215 254 L 217 253 L 218 253 L 218 252 L 219 251 L 220 251 L 220 250 L 221 250 L 224 249 L 225 248 L 228 248 L 229 247 L 231 247 L 232 246 L 232 245 L 232 245 L 235 244 L 244 243 L 244 243 L 245 242 L 254 242 L 254 241 L 254 240 L 254 240 L 255 239 L 256 239 L 259 238 L 260 237 L 260 237 L 271 236 L 273 236 L 275 235 L 278 234 L 280 234 L 280 233 L 282 232 L 289 232 L 297 231 L 306 231 L 307 230 L 307 229 L 308 229 L 308 228 L 310 228 L 322 227 L 328 226 L 328 226 L 333 225 L 334 225 L 335 224 L 348 223 L 348 223 L 349 222 L 350 221 L 352 221 L 355 220 L 357 220 L 360 219 L 362 218 L 365 218 L 372 217 L 373 217 L 374 216 L 374 215 L 374 215 L 375 214 L 379 214 L 387 213 L 404 212 L 410 212 L 414 211 L 414 210 L 416 210 L 418 209 L 418 209 L 418 208 L 418 207 L 418 207 L 418 206 L 418 206 L 418 205 L 418 204 L 418 204 L 418 203 L 419 203 L 419 202 L 419 201 L 420 201 L 421 200 L 422 199 L 423 199 L 423 198 L 423 198 L 423 197 L 425 196 L 425 196 L 425 195 L 425 195 L 425 194 L 426 193 L 426 193 L 427 192 L 428 192 L 428 191 L 429 190 L 429 190 L 429 189 L 429 188 L 430 188 L 431 187 L 431 187 L 431 186 L 432 185 L 432 185 L 433 184 L 434 184 L 436 183 L 437 182 L 439 182 L 442 181 L 442 181 L 443 180 L 443 179 L 443 179 L 443 178 L 444 177 L 446 177 L 447 176 L 449 176 L 449 175 L 450 174 L 453 174 L 455 173 L 455 173 L 459 172 L 459 171 L 460 171 L 461 170 L 461 170 L 468 169 L 469 168 L 470 168 L 474 167 L 477 166 L 482 166 L 483 165 L 484 165 L 485 164 L 486 163 L 486 163 L 490 162 L 493 162 L 495 161 L 495 160 L 497 160 L 499 159 L 499 159 L 499 158 L 499 157 L 500 157 L 500 156 L 500 155 L 502 155 L 502 154 L 502 154 L 503 153 L 510 152 L 517 152 L 517 151 L 517 151 L 522 150 L 524 149 L 526 149 L 526 148 L 528 148 L 529 147 L 529 146 L 529 146 L 530 145 L 530 144 L 530 144 L 530 143 L 531 143 L 531 142 L 532 141 L 535 141 L 535 140 L 535 140 L 536 139 L 536 138 L 536 138 L 537 137 L 537 137 L 537 136 L 537 135 L 537 135 L 537 134 L 537 133 L 543 133 L 546 132 L 546 132 L 548 131 L 554 130 L 563 130 L 564 129 L 569 129 L 572 128 L 581 127 L 584 127 L 587 126 L 588 126 L 588 125 L 588 124 L 588 124 L 588 123 L 588 122 L 588 122 L 590 121 L 592 121 L 603 120 L 606 119 L 610 119 L 619 118 L 626 118 L 630 117 L 634 116 L 640 116 L 641 115 L 654 115 L 667 114 L 667 113 L 676 113 L 677 112 L 684 111 L 686 111 L 690 110 L 690 110 L 691 109 L 691 108 L 695 108 L 697 107 L 700 107 L 706 106 L 707 105 L 708 105 L 709 104 L 714 104 L 719 103 L 719 102 L 724 102 L 730 101 L 731 100 L 731 100 L 734 99 L 735 99 L 736 98 L 741 97 L 745 97 L 748 96 L 752 96 L 752 95 L 759 94 L 760 94 L 764 93 L 770 92 L 771 92 L 778 91 L 778 91 L 779 90 L 781 89 L 781 89 L 785 88 L 785 88 L 788 87 L 792 86 L 793 86 L 794 85 L 794 85 L 805 84 L 805 83 L 806 83 L 806 82 L 807 82 L 808 81 L 808 80 L 809 80 L 810 79 L 812 78 L 812 78 L 814 77 L 815 77 L 816 76 L 817 75 L 818 75 L 818 74 L 819 74 L 820 73 L 820 72 L 821 72 L 821 71 L 821 71 L 822 70 L 823 69 L 825 69 L 825 68 L 826 67 L 827 67 L 827 66 L 829 66 L 831 65 L 831 64 L 832 64 L 834 63 L 836 63 L 836 62 L 837 61 L 837 61 L 840 60 L 840 60 L 840 59 L 841 58 L 841 58 L 842 57 L 842 56 L 843 56 L 843 55 L 845 55 L 849 54 L 851 53 L 853 53 L 853 52 L 856 52 L 858 51 L 859 50 L 862 50 L 866 49 L 869 49 L 873 48 L 874 47 L 874 47 L 874 46 L 875 45 L 876 45 L 876 44 L 876 44 L 878 43 L 878 42 L 878 42 L 878 41 L 881 41 L 882 40 L 882 39 L 883 39 L 884 38 L 887 38 L 888 37 L 888 36 L 889 36 L 891 35 L 894 34 L 898 34 L 904 33 L 904 33 L 904 32 L 904 31 L 907 31 L 910 30 L 911 30 L 911 29 L 911 28 L 912 28 L 914 27 L 919 27 L 920 26 L 920 25 L 920 25 L 923 24 L 923 23 L 923 23 L 924 22 L 924 22 L 928 21 L 933 20 L 933 20 L 939 19 L 939 19 L 940 18 L 945 17" stroke-width="2"></path><path stroke-width="2" d="M 945 346 L 945.000000 15.000000" /><path stroke-width="2" d="M 945 346 L 945.000000 15.000000"></path><path stroke-width="2" d="M 945 346 L 950 346" /><path stroke-width="2" d="M 945 346 L 950 346"></path><text y="352" xmlns="http://www.w3.org/2000/svg" x="955">0</text><path stroke-width="2" d="M 945 309 L 950 309" /><path d="M 945 309 L 950 309" stroke-width="2"></path><text y="315" xmlns="http://www.w3.org/2000/svg" x="955">60</text><path stroke-width="2" d="M 945 272 L 950 272" /><path stroke-width="2" d="M 945 272 L 950 272"></path><text xmlns="http://www.w3.org/2000/svg" x="955" y="278">120</text><path stroke-width="2" d="M 945 236 L 950 236" /><path stroke-width="2" d="M 945 236 L 950 236"></path><text xmlns="http://www.w3.org/2000/svg" x="955" y="242">180</text><path stroke-width="2" d="M 945 199 L 950 199" /><path d="M 945 199 L 950 199" stroke-width="2"></path><text xmlns="http://www.w3.org/2000/svg" x="955" y="205">240</text><path stroke-width="2" d="M 945 162 L 950 162" /><path stroke-width="2" d="M 945 162 L 950 162"></path><text xmlns="http://www.w3.org/2000/svg" x="955" y="168">300</text><path stroke-width="2" d="M 945 126 L 950 126" /><path stroke-width="2" d="M 945 126 L 950 126"></path><text xmlns="http://www.w3.org/2000/svg" x="955" y="132">360</text><path stroke-width="2" d="M 945 89 L 950 89" /><path stroke-width="2" d="M 945 89 L 950 89"></path><text xmlns="http://www.w3.org/2000/svg" x="955" y="95">420</text><path stroke-width="2" d="M 945 52 L 950 52" /><path stroke-width="2" d="M 945 52 L 950 52"></path><text y="58" xmlns="http://www.w3.org/2000/svg" x="955">480</text><path stroke-width="2" d="M 945 16 L 950 16" /><path d="M 945 16 L 950 16" stroke-width="2"></path><text xmlns="http://www.w3.org/2000/svg" x="955" y="22">540</text><text y="175" transform="rotate(90.00,987,175)" xmlns="http://www.w3.org/2000/svg" x="987">Stargazers</text><path stroke-width="2" d="M 57.000000 346.000000 L 945 346" /><path stroke-width="2" d="M 57.000000 346.000000 L 945 346"></path><path stroke-width="2" d="M 58 346 L 58 351" /><path stroke-width="2" d="M 58 346 L 58 351"></path><text xmlns="http://www.w3.org/2000/svg" x="25" y="368">2023-04-02</text><path stroke-width="2" d="M 157 346 L 157 351" /><path stroke-width="2" d="M 157 346 L 157 351"></path><text xmlns="http://www.w3.org/2000/svg" x="124" y="368">2023-05-26</text><path stroke-width="2" d="M 256 346 L 256 351" /><path stroke-width="2" d="M 256 346 L 256 351"></path><text xmlns="http://www.w3.org/2000/svg" x="223" y="368">2023-07-18</text><path stroke-width="2" d="M 354 346 L 354 351" /><path stroke-width="2" d="M 354 346 L 354 351"></path><text xmlns="http://www.w3.org/2000/svg" x="321" y="368">2023-09-10</text><path stroke-width="2" d="M 453 346 L 453 351" /><path stroke-width="2" d="M 453 346 L 453 351"></path><text xmlns="http://www.w3.org/2000/svg" x="420" y="368">2023-11-03</text><path stroke-width="2" d="M 551 346 L 551 351" /><path stroke-width="2" d="M 551 346 L 551 351"></path><text xmlns="http://www.w3.org/2000/svg" x="518" y="368">2023-12-27</text><path stroke-width="2" d="M 650 346 L 650 351" /><path stroke-width="2" d="M 650 346 L 650 351"></path><text xmlns="http://www.w3.org/2000/svg" x="617" y="368">2024-02-18</text><path d="M 748 346 L 748 351" stroke-width="2" /><path stroke-width="2" d="M 748 346 L 748 351"></path><text xmlns="http://www.w3.org/2000/svg" x="715" y="368">2024-04-12</text><path stroke-width="2" d="M 847 346 L 847 351" /><path stroke-width="2" d="M 847 346 L 847 351"></path><text xmlns="http://www.w3.org/2000/svg" x="814" y="368">2024-06-05</text><path stroke-width="2" d="M 945 346 L 945 351" /><path stroke-width="2" d="M 945 346 L 945 351"></path><text x="912" y="368" xmlns="http://www.w3.org/2000/svg">2024-07-29</text><text x="487" y="390" xmlns="http://www.w3.org/2000/svg">Time</text></svg>