<svg width="1024px" height="400px" xmlns="http://www.w3.org/2000/svg" xmlns:xlink="http://www.w3.org/1999/xlink"><style type="text/css">
path { fill: none; stroke: rgb(51,51,51); }
path.series { stroke: #6b63ff; }
rect.background { fill: rgb(255,255,255); stroke: none; }

text {
	stroke-width: 0;
	stroke: none;
	fill: rgba(51,51,51,1.0);
	font-size: 12.8px;
	font-family: 'Roboto Medium', sans-serif;
}
</style><rect x="0" y="0" width="1024px" height="400px" class="background" rx="8" /><rect y="0" width="1024px" height="400px" class="background" rx="8" x="0"></rect><path class="series" d="M 58 345 L 61 345 L 76 344 L 77 344 L 77 344 L 77 343 L 77 343 L 77 342 L 77 342 L 77 342 L 77 341 L 77 341 L 77 341 L 77 340 L 77 340 L 77 339 L 77 339 L 78 339 L 78 338 L 79 338 L 79 338 L 79 337 L 80 337 L 81 336 L 81 336 L 81 336 L 82 335 L 83 335 L 84 335 L 84 334 L 86 334 L 87 333 L 92 333 L 92 333 L 92 332 L 92 332 L 92 331 L 95 331 L 96 331 L 97 330 L 99 330 L 103 330 L 105 329 L 111 329 L 114 328 L 117 328 L 121 328 L 123 327 L 137 327 L 138 327 L 138 326 L 140 326 L 141 325 L 141 325 L 141 325 L 141 324 L 141 324 L 141 324 L 141 323 L 141 323 L 141 322 L 141 322 L 141 322 L 141 321 L 141 321 L 141 320 L 141 320 L 141 320 L 141 319 L 141 319 L 141 319 L 141 318 L 141 318 L 141 317 L 141 317 L 141 317 L 141 316 L 141 316 L 141 316 L 141 315 L 141 315 L 142 314 L 142 314 L 142 314 L 142 313 L 142 313 L 142 313 L 142 312 L 142 312 L 142 311 L 142 311 L 142 311 L 142 310 L 142 310 L 142 309 L 142 309 L 142 309 L 142 308 L 142 308 L 142 308 L 143 307 L 143 307 L 143 306 L 143 306 L 143 306 L 144 305 L 144 305 L 144 305 L 144 304 L 144 304 L 144 303 L 144 303 L 144 303 L 144 302 L 144 302 L 144 302 L 144 301 L 144 301 L 144 300 L 144 300 L 144 300 L 144 299 L 145 299 L 146 298 L 146 298 L 146 298 L 146 297 L 149 297 L 149 297 L 149 296 L 151 296 L 151 295 L 153 295 L 155 295 L 156 294 L 158 294 L 159 294 L 161 293 L 161 293 L 161 292 L 164 292 L 164 292 L 165 291 L 166 291 L 166 291 L 167 290 L 167 290 L 168 289 L 168 289 L 169 289 L 170 288 L 170 288 L 171 287 L 171 287 L 171 287 L 172 286 L 174 286 L 175 286 L 177 285 L 178 285 L 179 284 L 180 284 L 180 284 L 180 283 L 182 283 L 188 283 L 188 282 L 189 282 L 195 281 L 195 281 L 195 281 L 195 280 L 196 280 L 197 280 L 198 279 L 199 279 L 200 278 L 207 278 L 208 278 L 210 277 L 212 277 L 214 276 L 214 276 L 215 276 L 220 275 L 225 275 L 232 275 L 232 274 L 232 274 L 233 273 L 233 273 L 234 273 L 243 272 L 247 272 L 247 272 L 250 271 L 251 271 L 252 270 L 261 270 L 261 270 L 262 269 L 262 269 L 263 269 L 266 268 L 267 268 L 269 267 L 270 267 L 272 267 L 278 266 L 278 266 L 279 265 L 279 265 L 279 265 L 280 264 L 283 264 L 288 264 L 300 263 L 304 263 L 307 262 L 307 262 L 309 262 L 310 261 L 310 261 L 310 261 L 310 260 L 310 260 L 310 259 L 310 259 L 310 259 L 310 258 L 310 258 L 310 258 L 310 257 L 310 257 L 311 256 L 311 256 L 313 256 L 313 255 L 313 255 L 313 254 L 314 254 L 315 254 L 315 253 L 315 253 L 315 253 L 315 252 L 315 252 L 315 251 L 316 251 L 317 251 L 317 250 L 317 250 L 317 250 L 318 249 L 318 249 L 319 248 L 319 248 L 319 248 L 319 247 L 320 247 L 320 247 L 320 246 L 321 246 L 322 245 L 323 245 L 324 245 L 327 244 L 327 244 L 327 243 L 328 243 L 328 243 L 328 242 L 328 242 L 329 242 L 330 241 L 332 241 L 332 240 L 333 240 L 334 240 L 336 239 L 336 239 L 338 239 L 339 238 L 339 238 L 340 237 L 340 237 L 345 237 L 345 236 L 346 236 L 349 236 L 351 235 L 355 235 L 356 234 L 356 234 L 357 234 L 357 233 L 357 233 L 360 232 L 362 232 L 364 232 L 364 231 L 365 231 L 366 231 L 366 230 L 366 230 L 367 229 L 367 229 L 367 229 L 368 228 L 369 228 L 369 228 L 369 227 L 370 227 L 374 226 L 379 226 L 379 226 L 379 225 L 383 225 L 384 225 L 385 224 L 385 224 L 387 223 L 388 223 L 388 223 L 388 222 L 388 222 L 388 221 L 388 221 L 388 221 L 389 220 L 389 220 L 390 220 L 392 219 L 392 219 L 392 218 L 392 218 L 392 218 L 393 217 L 393 217 L 393 217 L 393 216 L 393 216 L 393 215 L 393 215 L 393 215 L 397 214 L 400 214 L 400 214 L 401 213 L 411 213 L 412 212 L 415 212 L 418 212 L 424 211 L 426 211 L 428 210 L 429 210 L 429 210 L 429 209 L 429 209 L 429 209 L 429 208 L 429 208 L 430 207 L 431 207 L 439 207 L 442 206 L 444 206 L 451 206 L 455 205 L 458 205 L 461 204 L 465 204 L 466 204 L 475 203 L 484 203 L 484 203 L 491 202 L 491 202 L 496 201 L 497 201 L 500 201 L 500 200 L 500 200 L 501 199 L 503 199 L 505 199 L 507 198 L 511 198 L 512 198 L 513 197 L 513 197 L 517 196 L 520 196 L 520 196 L 524 195 L 528 195 L 529 195 L 529 194 L 531 194 L 532 193 L 533 193 L 536 193 L 538 192 L 541 192 L 543 192 L 543 191 L 548 191 L 549 190 L 552 190 L 556 190 L 556 189 L 561 189 L 562 188 L 562 188 L 564 188 L 564 187 L 566 187 L 566 187 L 569 186 L 571 186 L 572 185 L 573 185 L 573 185 L 580 184 L 581 184 L 581 184 L 581 183 L 582 183 L 583 182 L 583 182 L 583 182 L 584 181 L 586 181 L 586 181 L 587 180 L 588 180 L 588 179 L 589 179 L 590 179 L 590 178 L 590 178 L 591 177 L 591 177 L 592 177 L 592 176 L 592 176 L 592 176 L 593 175 L 595 175 L 595 174 L 595 174 L 596 174 L 596 173 L 597 173 L 599 173 L 599 172 L 599 172 L 601 171 L 602 171 L 602 171 L 603 170 L 603 170 L 605 170 L 605 169 L 605 169 L 606 168 L 606 168 L 606 168 L 606 167 L 607 167 L 607 166 L 608 166 L 611 166 L 613 165 L 614 165 L 614 165 L 616 164 L 618 164 L 618 163 L 620 163 L 623 163 L 626 162 L 628 162 L 629 162 L 629 161 L 629 161 L 629 160 L 630 160 L 630 160 L 630 159 L 631 159 L 631 159 L 631 158 L 632 158 L 633 157 L 634 157 L 634 157 L 635 156 L 635 156 L 638 155 L 639 155 L 639 155 L 640 154 L 640 154 L 643 154 L 645 153 L 650 153 L 650 152 L 650 152 L 650 152 L 652 151 L 654 151 L 655 151 L 655 150 L 655 150 L 655 149 L 657 149 L 660 149 L 661 148 L 661 148 L 661 148 L 663 147 L 663 147 L 663 146 L 664 146 L 666 146 L 670 145 L 670 145 L 674 144 L 674 144 L 675 144 L 679 143 L 680 143 L 683 143 L 684 142 L 686 142 L 687 141 L 687 141 L 688 141 L 688 140 L 688 140 L 688 140 L 689 139 L 689 139 L 690 138 L 691 138 L 691 138 L 691 137 L 692 137 L 693 137 L 693 136 L 698 136 L 699 135 L 704 135 L 706 135 L 706 134 L 707 134 L 708 133 L 710 133 L 711 133 L 712 132 L 712 132 L 712 132 L 712 131 L 712 131 L 713 130 L 713 130 L 713 130 L 714 129 L 714 129 L 714 129 L 714 128 L 715 128 L 715 127 L 715 127 L 716 127 L 717 126 L 717 126 L 718 126 L 719 125 L 719 125 L 719 124 L 720 124 L 721 124 L 724 123 L 724 123 L 724 122 L 724 122 L 724 122 L 725 121 L 725 121 L 726 121 L 727 120 L 729 120 L 731 119 L 735 119 L 736 119 L 737 118 L 741 118 L 744 118 L 745 117 L 747 117 L 752 116 L 752 116 L 752 116 L 757 115 L 758 115 L 759 115 L 760 114 L 760 114 L 769 113 L 769 113 L 770 113 L 770 112 L 771 112 L 771 111 L 772 111 L 773 111 L 773 110 L 774 110 L 774 110 L 774 109 L 775 109 L 775 108 L 775 108 L 775 108 L 776 107 L 776 107 L 776 107 L 778 106 L 779 106 L 780 105 L 780 105 L 780 105 L 781 104 L 782 104 L 783 104 L 783 103 L 784 103 L 784 102 L 785 102 L 785 102 L 786 101 L 787 101 L 788 100 L 788 100 L 789 100 L 790 99 L 790 99 L 791 99 L 791 98 L 791 98 L 792 97 L 792 97 L 792 97 L 793 96 L 793 96 L 795 96 L 795 95 L 795 95 L 796 94 L 796 94 L 796 94 L 797 93 L 797 93 L 797 92 L 798 92 L 798 92 L 799 91 L 799 91 L 800 91 L 800 90 L 800 90 L 800 89 L 800 89 L 801 89 L 801 88 L 801 88 L 801 88 L 801 87 L 804 87 L 805 86 L 807 86 L 807 86 L 807 85 L 807 85 L 809 85 L 810 84 L 810 84 L 811 83 L 814 83 L 816 83 L 816 82 L 818 82 L 819 82 L 819 81 L 820 81 L 820 80 L 820 80 L 821 80 L 821 79 L 821 79 L 821 78 L 821 78 L 821 78 L 821 77 L 821 77 L 822 77 L 822 76 L 822 76 L 822 75 L 822 75 L 823 75 L 823 74 L 823 74 L 824 74 L 826 73 L 826 73 L 827 72 L 827 72 L 828 72 L 828 71 L 829 71 L 832 71 L 833 70 L 833 70 L 833 69 L 833 69 L 833 69 L 836 68 L 838 68 L 838 67 L 840 67 L 840 67 L 841 66 L 841 66 L 842 66 L 847 65 L 849 65 L 852 64 L 854 64 L 855 64 L 856 63 L 857 63 L 857 63 L 858 62 L 858 62 L 858 61 L 859 61 L 859 61 L 860 60 L 861 60 L 863 60 L 863 59 L 863 59 L 863 58 L 863 58 L 863 58 L 863 57 L 863 57 L 863 56 L 864 56 L 864 56 L 864 55 L 864 55 L 864 55 L 864 54 L 864 54 L 864 53 L 865 53 L 865 53 L 865 52 L 865 52 L 865 52 L 865 51 L 865 51 L 866 50 L 866 50 L 866 50 L 867 49 L 867 49 L 868 49 L 868 48 L 868 48 L 868 47 L 869 47 L 870 47 L 873 46 L 873 46 L 873 45 L 874 45 L 874 45 L 875 44 L 876 44 L 878 44 L 879 43 L 880 43 L 880 42 L 880 42 L 880 42 L 880 41 L 880 41 L 880 41 L 883 40 L 883 40 L 883 39 L 887 39 L 889 39 L 890 38 L 893 38 L 894 38 L 895 37 L 895 37 L 895 36 L 896 36 L 896 36 L 897 35 L 897 35 L 898 34 L 899 34 L 899 34 L 899 33 L 899 33 L 899 33 L 900 32 L 900 32 L 900 31 L 900 31 L 900 31 L 901 30 L 901 30 L 903 30 L 903 29 L 903 29 L 904 28 L 904 28 L 904 28 L 905 27 L 906 27 L 906 27 L 906 26 L 907 26 L 907 25 L 909 25 L 913 25 L 913 24 L 915 24 L 918 23 L 919 23 L 920 23 L 923 22 L 924 22 L 925 22 L 928 21 L 934 21 L 934 20 L 936 20 L 938 20 L 940 19 L 941 19 L 941 19 L 943 18 L 944 18 L 945 17 L 945 17" stroke-width="2" /><path d="M 58 345 L 61 345 L 76 344 L 77 344 L 77 344 L 77 343 L 77 343 L 77 342 L 77 342 L 77 342 L 77 341 L 77 341 L 77 341 L 77 340 L 77 340 L 77 339 L 77 339 L 78 339 L 78 338 L 79 338 L 79 338 L 79 337 L 80 337 L 81 336 L 81 336 L 81 336 L 82 335 L 83 335 L 84 335 L 84 334 L 86 334 L 87 333 L 92 333 L 92 333 L 92 332 L 92 332 L 92 331 L 95 331 L 96 331 L 97 330 L 99 330 L 103 330 L 105 329 L 111 329 L 114 328 L 117 328 L 121 328 L 123 327 L 137 327 L 138 327 L 138 326 L 140 326 L 141 325 L 141 325 L 141 325 L 141 324 L 141 324 L 141 324 L 141 323 L 141 323 L 141 322 L 141 322 L 141 322 L 141 321 L 141 321 L 141 320 L 141 320 L 141 320 L 141 319 L 141 319 L 141 319 L 141 318 L 141 318 L 141 317 L 141 317 L 141 317 L 141 316 L 141 316 L 141 316 L 141 315 L 141 315 L 142 314 L 142 314 L 142 314 L 142 313 L 142 313 L 142 313 L 142 312 L 142 312 L 142 311 L 142 311 L 142 311 L 142 310 L 142 310 L 142 309 L 142 309 L 142 309 L 142 308 L 142 308 L 142 308 L 143 307 L 143 307 L 143 306 L 143 306 L 143 306 L 144 305 L 144 305 L 144 305 L 144 304 L 144 304 L 144 303 L 144 303 L 144 303 L 144 302 L 144 302 L 144 302 L 144 301 L 144 301 L 144 300 L 144 300 L 144 300 L 144 299 L 145 299 L 146 298 L 146 298 L 146 298 L 146 297 L 149 297 L 149 297 L 149 296 L 151 296 L 151 295 L 153 295 L 155 295 L 156 294 L 158 294 L 159 294 L 161 293 L 161 293 L 161 292 L 164 292 L 164 292 L 165 291 L 166 291 L 166 291 L 167 290 L 167 290 L 168 289 L 168 289 L 169 289 L 170 288 L 170 288 L 171 287 L 171 287 L 171 287 L 172 286 L 174 286 L 175 286 L 177 285 L 178 285 L 179 284 L 180 284 L 180 284 L 180 283 L 182 283 L 188 283 L 188 282 L 189 282 L 195 281 L 195 281 L 195 281 L 195 280 L 196 280 L 197 280 L 198 279 L 199 279 L 200 278 L 207 278 L 208 278 L 210 277 L 212 277 L 214 276 L 214 276 L 215 276 L 220 275 L 225 275 L 232 275 L 232 274 L 232 274 L 233 273 L 233 273 L 234 273 L 243 272 L 247 272 L 247 272 L 250 271 L 251 271 L 252 270 L 261 270 L 261 270 L 262 269 L 262 269 L 263 269 L 266 268 L 267 268 L 269 267 L 270 267 L 272 267 L 278 266 L 278 266 L 279 265 L 279 265 L 279 265 L 280 264 L 283 264 L 288 264 L 300 263 L 304 263 L 307 262 L 307 262 L 309 262 L 310 261 L 310 261 L 310 261 L 310 260 L 310 260 L 310 259 L 310 259 L 310 259 L 310 258 L 310 258 L 310 258 L 310 257 L 310 257 L 311 256 L 311 256 L 313 256 L 313 255 L 313 255 L 313 254 L 314 254 L 315 254 L 315 253 L 315 253 L 315 253 L 315 252 L 315 252 L 315 251 L 316 251 L 317 251 L 317 250 L 317 250 L 317 250 L 318 249 L 318 249 L 319 248 L 319 248 L 319 248 L 319 247 L 320 247 L 320 247 L 320 246 L 321 246 L 322 245 L 323 245 L 324 245 L 327 244 L 327 244 L 327 243 L 328 243 L 328 243 L 328 242 L 328 242 L 329 242 L 330 241 L 332 241 L 332 240 L 333 240 L 334 240 L 336 239 L 336 239 L 338 239 L 339 238 L 339 238 L 340 237 L 340 237 L 345 237 L 345 236 L 346 236 L 349 236 L 351 235 L 355 235 L 356 234 L 356 234 L 357 234 L 357 233 L 357 233 L 360 232 L 362 232 L 364 232 L 364 231 L 365 231 L 366 231 L 366 230 L 366 230 L 367 229 L 367 229 L 367 229 L 368 228 L 369 228 L 369 228 L 369 227 L 370 227 L 374 226 L 379 226 L 379 226 L 379 225 L 383 225 L 384 225 L 385 224 L 385 224 L 387 223 L 388 223 L 388 223 L 388 222 L 388 222 L 388 221 L 388 221 L 388 221 L 389 220 L 389 220 L 390 220 L 392 219 L 392 219 L 392 218 L 392 218 L 392 218 L 393 217 L 393 217 L 393 217 L 393 216 L 393 216 L 393 215 L 393 215 L 393 215 L 397 214 L 400 214 L 400 214 L 401 213 L 411 213 L 412 212 L 415 212 L 418 212 L 424 211 L 426 211 L 428 210 L 429 210 L 429 210 L 429 209 L 429 209 L 429 209 L 429 208 L 429 208 L 430 207 L 431 207 L 439 207 L 442 206 L 444 206 L 451 206 L 455 205 L 458 205 L 461 204 L 465 204 L 466 204 L 475 203 L 484 203 L 484 203 L 491 202 L 491 202 L 496 201 L 497 201 L 500 201 L 500 200 L 500 200 L 501 199 L 503 199 L 505 199 L 507 198 L 511 198 L 512 198 L 513 197 L 513 197 L 517 196 L 520 196 L 520 196 L 524 195 L 528 195 L 529 195 L 529 194 L 531 194 L 532 193 L 533 193 L 536 193 L 538 192 L 541 192 L 543 192 L 543 191 L 548 191 L 549 190 L 552 190 L 556 190 L 556 189 L 561 189 L 562 188 L 562 188 L 564 188 L 564 187 L 566 187 L 566 187 L 569 186 L 571 186 L 572 185 L 573 185 L 573 185 L 580 184 L 581 184 L 581 184 L 581 183 L 582 183 L 583 182 L 583 182 L 583 182 L 584 181 L 586 181 L 586 181 L 587 180 L 588 180 L 588 179 L 589 179 L 590 179 L 590 178 L 590 178 L 591 177 L 591 177 L 592 177 L 592 176 L 592 176 L 592 176 L 593 175 L 595 175 L 595 174 L 595 174 L 596 174 L 596 173 L 597 173 L 599 173 L 599 172 L 599 172 L 601 171 L 602 171 L 602 171 L 603 170 L 603 170 L 605 170 L 605 169 L 605 169 L 606 168 L 606 168 L 606 168 L 606 167 L 607 167 L 607 166 L 608 166 L 611 166 L 613 165 L 614 165 L 614 165 L 616 164 L 618 164 L 618 163 L 620 163 L 623 163 L 626 162 L 628 162 L 629 162 L 629 161 L 629 161 L 629 160 L 630 160 L 630 160 L 630 159 L 631 159 L 631 159 L 631 158 L 632 158 L 633 157 L 634 157 L 634 157 L 635 156 L 635 156 L 638 155 L 639 155 L 639 155 L 640 154 L 640 154 L 643 154 L 645 153 L 650 153 L 650 152 L 650 152 L 650 152 L 652 151 L 654 151 L 655 151 L 655 150 L 655 150 L 655 149 L 657 149 L 660 149 L 661 148 L 661 148 L 661 148 L 663 147 L 663 147 L 663 146 L 664 146 L 666 146 L 670 145 L 670 145 L 674 144 L 674 144 L 675 144 L 679 143 L 680 143 L 683 143 L 684 142 L 686 142 L 687 141 L 687 141 L 688 141 L 688 140 L 688 140 L 688 140 L 689 139 L 689 139 L 690 138 L 691 138 L 691 138 L 691 137 L 692 137 L 693 137 L 693 136 L 698 136 L 699 135 L 704 135 L 706 135 L 706 134 L 707 134 L 708 133 L 710 133 L 711 133 L 712 132 L 712 132 L 712 132 L 712 131 L 712 131 L 713 130 L 713 130 L 713 130 L 714 129 L 714 129 L 714 129 L 714 128 L 715 128 L 715 127 L 715 127 L 716 127 L 717 126 L 717 126 L 718 126 L 719 125 L 719 125 L 719 124 L 720 124 L 721 124 L 724 123 L 724 123 L 724 122 L 724 122 L 724 122 L 725 121 L 725 121 L 726 121 L 727 120 L 729 120 L 731 119 L 735 119 L 736 119 L 737 118 L 741 118 L 744 118 L 745 117 L 747 117 L 752 116 L 752 116 L 752 116 L 757 115 L 758 115 L 759 115 L 760 114 L 760 114 L 769 113 L 769 113 L 770 113 L 770 112 L 771 112 L 771 111 L 772 111 L 773 111 L 773 110 L 774 110 L 774 110 L 774 109 L 775 109 L 775 108 L 775 108 L 775 108 L 776 107 L 776 107 L 776 107 L 778 106 L 779 106 L 780 105 L 780 105 L 780 105 L 781 104 L 782 104 L 783 104 L 783 103 L 784 103 L 784 102 L 785 102 L 785 102 L 786 101 L 787 101 L 788 100 L 788 100 L 789 100 L 790 99 L 790 99 L 791 99 L 791 98 L 791 98 L 792 97 L 792 97 L 792 97 L 793 96 L 793 96 L 795 96 L 795 95 L 795 95 L 796 94 L 796 94 L 796 94 L 797 93 L 797 93 L 797 92 L 798 92 L 798 92 L 799 91 L 799 91 L 800 91 L 800 90 L 800 90 L 800 89 L 800 89 L 801 89 L 801 88 L 801 88 L 801 88 L 801 87 L 804 87 L 805 86 L 807 86 L 807 86 L 807 85 L 807 85 L 809 85 L 810 84 L 810 84 L 811 83 L 814 83 L 816 83 L 816 82 L 818 82 L 819 82 L 819 81 L 820 81 L 820 80 L 820 80 L 821 80 L 821 79 L 821 79 L 821 78 L 821 78 L 821 78 L 821 77 L 821 77 L 822 77 L 822 76 L 822 76 L 822 75 L 822 75 L 823 75 L 823 74 L 823 74 L 824 74 L 826 73 L 826 73 L 827 72 L 827 72 L 828 72 L 828 71 L 829 71 L 832 71 L 833 70 L 833 70 L 833 69 L 833 69 L 833 69 L 836 68 L 838 68 L 838 67 L 840 67 L 840 67 L 841 66 L 841 66 L 842 66 L 847 65 L 849 65 L 852 64 L 854 64 L 855 64 L 856 63 L 857 63 L 857 63 L 858 62 L 858 62 L 858 61 L 859 61 L 859 61 L 860 60 L 861 60 L 863 60 L 863 59 L 863 59 L 863 58 L 863 58 L 863 58 L 863 57 L 863 57 L 863 56 L 864 56 L 864 56 L 864 55 L 864 55 L 864 55 L 864 54 L 864 54 L 864 53 L 865 53 L 865 53 L 865 52 L 865 52 L 865 52 L 865 51 L 865 51 L 866 50 L 866 50 L 866 50 L 867 49 L 867 49 L 868 49 L 868 48 L 868 48 L 868 47 L 869 47 L 870 47 L 873 46 L 873 46 L 873 45 L 874 45 L 874 45 L 875 44 L 876 44 L 878 44 L 879 43 L 880 43 L 880 42 L 880 42 L 880 42 L 880 41 L 880 41 L 880 41 L 883 40 L 883 40 L 883 39 L 887 39 L 889 39 L 890 38 L 893 38 L 894 38 L 895 37 L 895 37 L 895 36 L 896 36 L 896 36 L 897 35 L 897 35 L 898 34 L 899 34 L 899 34 L 899 33 L 899 33 L 899 33 L 900 32 L 900 32 L 900 31 L 900 31 L 900 31 L 901 30 L 901 30 L 903 30 L 903 29 L 903 29 L 904 28 L 904 28 L 904 28 L 905 27 L 906 27 L 906 27 L 906 26 L 907 26 L 907 25 L 909 25 L 913 25 L 913 24 L 915 24 L 918 23 L 919 23 L 920 23 L 923 22 L 924 22 L 925 22 L 928 21 L 934 21 L 934 20 L 936 20 L 938 20 L 940 19 L 941 19 L 941 19 L 943 18 L 944 18 L 945 17 L 945 17" stroke-width="2" class="series"></path><path stroke-width="2" d="M 945 346 L 945.000000 15.000000" /><path stroke-width="2" d="M 945 346 L 945.000000 15.000000"></path><path stroke-width="2" d="M 945 346 L 950 346" /><path d="M 945 346 L 950 346" stroke-width="2"></path><text x="955" y="352" xmlns="http://www.w3.org/2000/svg">0</text><path stroke-width="2" d="M 945 309 L 950 309" /><path stroke-width="2" d="M 945 309 L 950 309"></path><text x="955" y="315" xmlns="http://www.w3.org/2000/svg">97</text><path stroke-width="2" d="M 945 272 L 950 272" /><path stroke-width="2" d="M 945 272 L 950 272"></path><text xmlns="http://www.w3.org/2000/svg" x="955" y="278">194</text><path stroke-width="2" d="M 945 236 L 950 236" /><path stroke-width="2" d="M 945 236 L 950 236"></path><text y="242" xmlns="http://www.w3.org/2000/svg" x="955">290</text><path stroke-width="2" d="M 945 199 L 950 199" /><path stroke-width="2" d="M 945 199 L 950 199"></path><text xmlns="http://www.w3.org/2000/svg" x="955" y="205">387</text><path stroke-width="2" d="M 945 162 L 950 162" /><path stroke-width="2" d="M 945 162 L 950 162"></path><text xmlns="http://www.w3.org/2000/svg" x="955" y="168">484</text><path stroke-width="2" d="M 945 126 L 950 126" /><path stroke-width="2" d="M 945 126 L 950 126"></path><text xmlns="http://www.w3.org/2000/svg" x="955" y="132">580</text><path d="M 945 89 L 950 89" stroke-width="2" /><path stroke-width="2" d="M 945 89 L 950 89"></path><text x="955" y="95" xmlns="http://www.w3.org/2000/svg">677</text><path stroke-width="2" d="M 945 52 L 950 52" /><path d="M 945 52 L 950 52" stroke-width="2"></path><text xmlns="http://www.w3.org/2000/svg" x="955" y="58">774</text><path d="M 945 16 L 950 16" stroke-width="2" /><path d="M 945 16 L 950 16" stroke-width="2"></path><text xmlns="http://www.w3.org/2000/svg" x="955" y="22">870</text><text x="987" y="175" transform="rotate(90.00,987,175)" xmlns="http://www.w3.org/2000/svg">Stargazers</text><path stroke-width="2" d="M 57.000000 346.000000 L 945 346" /><path stroke-width="2" d="M 57.000000 346.000000 L 945 346"></path><path stroke-width="2" d="M 58 346 L 58 351" /><path stroke-width="2" d="M 58 346 L 58 351"></path><text xmlns="http://www.w3.org/2000/svg" x="25" y="368">2023-04-02</text><path d="M 157 346 L 157 351" stroke-width="2" /><path stroke-width="2" d="M 157 346 L 157 351"></path><text xmlns="http://www.w3.org/2000/svg" x="124" y="368">2023-06-18</text><path stroke-width="2" d="M 256 346 L 256 351" /><path stroke-width="2" d="M 256 346 L 256 351"></path><text xmlns="http://www.w3.org/2000/svg" x="223" y="368">2023-09-03</text><path stroke-width="2" d="M 354 346 L 354 351" /><path stroke-width="2" d="M 354 346 L 354 351"></path><text xmlns="http://www.w3.org/2000/svg" x="321" y="368">2023-11-18</text><path stroke-width="2" d="M 453 346 L 453 351" /><path stroke-width="2" d="M 453 346 L 453 351"></path><text xmlns="http://www.w3.org/2000/svg" x="420" y="368">2024-02-03</text><path stroke-width="2" d="M 551 346 L 551 351" /><path stroke-width="2" d="M 551 346 L 551 351"></path><text xmlns="http://www.w3.org/2000/svg" x="518" y="368">2024-04-20</text><path stroke-width="2" d="M 650 346 L 650 351" /><path stroke-width="2" d="M 650 346 L 650 351"></path><text xmlns="http://www.w3.org/2000/svg" x="617" y="368">2024-07-06</text><path stroke-width="2" d="M 748 346 L 748 351" /><path d="M 748 346 L 748 351" stroke-width="2"></path><text y="368" xmlns="http://www.w3.org/2000/svg" x="715">2024-09-21</text><path stroke-width="2" d="M 847 346 L 847 351" /><path stroke-width="2" d="M 847 346 L 847 351"></path><text xmlns="http://www.w3.org/2000/svg" x="814" y="368">2024-12-07</text><path stroke-width="2" d="M 945 346 L 945 351" /><path stroke-width="2" d="M 945 346 L 945 351"></path><text xmlns="http://www.w3.org/2000/svg" x="912" y="368">2025-02-22</text><text xmlns="http://www.w3.org/2000/svg" x="487" y="390">Time</text></svg>