<svg xmlns:xlink="http://www.w3.org/1999/xlink" width="1024px" height="400px" xmlns="http://www.w3.org/2000/svg"><style type="text/css">
path { fill: none; stroke: rgb(51,51,51); }
path.series { stroke: #6b63ff; }
rect.background { fill: rgb(255,255,255); stroke: none; }

text {
	stroke-width: 0;
	stroke: none;
	fill: rgba(51,51,51,1.0);
	font-size: 12.8px;
	font-family: 'Roboto Medium', sans-serif;
}
</style><rect class="background" rx="8" x="0" y="0" width="1024px" height="400px" /><rect rx="8" x="0" y="0" width="1024px" height="400px" class="background"></rect><path stroke-width="2" class="series" d="M 58 345 L 60 345 L 71 345 L 72 344 L 72 344 L 72 344 L 72 344 L 72 343 L 72 343 L 72 343 L 72 342 L 72 342 L 72 342 L 72 342 L 72 341 L 72 341 L 72 341 L 72 341 L 72 340 L 73 340 L 73 340 L 73 339 L 74 339 L 75 339 L 75 339 L 75 338 L 75 338 L 76 338 L 77 338 L 77 337 L 78 337 L 79 337 L 82 336 L 82 336 L 82 336 L 82 336 L 82 335 L 84 335 L 85 335 L 86 335 L 87 334 L 90 334 L 91 334 L 96 333 L 98 333 L 101 333 L 103 333 L 105 332 L 115 332 L 116 332 L 117 331 L 117 331 L 117 331 L 117 331 L 117 330 L 117 330 L 117 330 L 117 330 L 117 329 L 117 329 L 117 329 L 117 328 L 118 328 L 118 328 L 118 328 L 118 327 L 118 327 L 118 327 L 118 327 L 118 326 L 118 326 L 118 326 L 118 325 L 118 325 L 118 325 L 118 325 L 118 324 L 118 324 L 118 324 L 118 324 L 118 323 L 118 323 L 118 323 L 118 322 L 118 322 L 118 322 L 118 322 L 118 321 L 118 321 L 118 321 L 118 320 L 118 320 L 118 320 L 118 320 L 118 319 L 118 319 L 118 319 L 118 319 L 118 318 L 119 318 L 119 318 L 119 317 L 119 317 L 119 317 L 120 317 L 120 316 L 120 316 L 120 316 L 120 316 L 120 315 L 120 315 L 120 315 L 120 314 L 120 314 L 120 314 L 120 314 L 120 313 L 120 313 L 120 313 L 120 313 L 120 312 L 120 312 L 121 312 L 121 311 L 121 311 L 121 311 L 123 311 L 123 310 L 124 310 L 124 310 L 124 309 L 126 309 L 128 309 L 128 309 L 130 308 L 130 308 L 131 308 L 132 308 L 132 307 L 134 307 L 134 307 L 134 306 L 135 306 L 136 306 L 136 306 L 136 305 L 136 305 L 137 305 L 138 305 L 138 304 L 138 304 L 139 304 L 139 303 L 139 303 L 140 303 L 141 303 L 142 302 L 143 302 L 144 302 L 145 302 L 145 301 L 145 301 L 145 301 L 147 300 L 151 300 L 151 300 L 152 300 L 156 299 L 156 299 L 156 299 L 156 298 L 157 298 L 157 298 L 159 298 L 159 297 L 159 297 L 165 297 L 166 297 L 167 296 L 168 296 L 169 296 L 169 295 L 170 295 L 174 295 L 178 295 L 182 294 L 183 294 L 183 294 L 183 294 L 183 293 L 190 293 L 193 293 L 193 292 L 196 292 L 196 292 L 197 292 L 203 291 L 203 291 L 204 291 L 204 291 L 205 290 L 208 290 L 209 290 L 210 289 L 211 289 L 215 289 L 216 289 L 216 288 L 216 288 L 216 288 L 217 287 L 219 287 L 223 287 L 231 287 L 234 286 L 236 286 L 236 286 L 238 286 L 238 285 L 238 285 L 238 285 L 238 284 L 238 284 L 238 284 L 238 284 L 238 283 L 238 283 L 238 283 L 239 283 L 239 282 L 239 282 L 239 282 L 241 281 L 241 281 L 241 281 L 241 281 L 242 280 L 242 280 L 242 280 L 242 280 L 242 279 L 242 279 L 242 279 L 243 278 L 243 278 L 243 278 L 244 278 L 244 277 L 244 277 L 244 277 L 244 276 L 245 276 L 245 276 L 245 276 L 245 275 L 246 275 L 246 275 L 247 275 L 247 274 L 249 274 L 250 274 L 250 273 L 251 273 L 251 273 L 251 273 L 251 272 L 251 272 L 252 272 L 253 272 L 254 271 L 254 271 L 254 271 L 256 270 L 257 270 L 257 270 L 259 270 L 259 269 L 259 269 L 260 269 L 260 269 L 263 268 L 264 268 L 264 268 L 266 267 L 268 267 L 270 267 L 271 267 L 271 266 L 272 266 L 272 266 L 272 265 L 274 265 L 276 265 L 277 265 L 277 264 L 279 264 L 279 264 L 279 264 L 279 263 L 279 263 L 279 263 L 279 262 L 280 262 L 280 262 L 280 262 L 281 261 L 284 261 L 288 261 L 288 261 L 288 260 L 290 260 L 291 260 L 292 259 L 292 259 L 293 259 L 294 259 L 294 258 L 294 258 L 294 258 L 294 258 L 294 257 L 294 257 L 295 257 L 295 256 L 295 256 L 297 256 L 297 256 L 297 255 L 297 255 L 297 255 L 297 254 L 297 254 L 298 254 L 298 254 L 298 253 L 298 253 L 298 253 L 298 253 L 301 252 L 302 252 L 302 252 L 303 251 L 310 251 L 311 251 L 314 251 L 315 250 L 321 250 L 323 250 L 323 250 L 323 249 L 323 249 L 323 249 L 323 248 L 323 248 L 324 248 L 325 248 L 331 247 L 332 247 L 334 247 L 339 247 L 342 246 L 344 246 L 346 246 L 349 245 L 350 245 L 356 245 L 363 245 L 363 244 L 367 244 L 368 244 L 371 243 L 372 243 L 374 243 L 374 243 L 374 242 L 375 242 L 377 242 L 377 242 L 379 241 L 382 241 L 382 241 L 383 240 L 384 240 L 386 240 L 389 240 L 389 239 L 391 239 L 394 239 L 395 239 L 395 238 L 396 238 L 397 238 L 397 237 L 400 237 L 401 237 L 403 237 L 405 236 L 405 236 L 409 236 L 409 236 L 411 235 L 414 235 L 414 235 L 418 234 L 418 234 L 419 234 L 420 234 L 420 233 L 421 233 L 422 233 L 423 232 L 425 232 L 426 232 L 426 232 L 426 231 L 432 231 L 432 231 L 432 231 L 432 230 L 433 230 L 433 230 L 433 229 L 434 229 L 434 229 L 435 229 L 435 228 L 436 228 L 437 228 L 437 228 L 438 227 L 438 227 L 438 227 L 439 226 L 439 226 L 439 226 L 440 226 L 440 225 L 440 225 L 440 225 L 441 225 L 442 224 L 442 224 L 442 224 L 443 223 L 443 223 L 444 223 L 445 223 L 445 222 L 445 222 L 446 222 L 447 221 L 447 221 L 448 221 L 449 221 L 449 220 L 449 220 L 450 220 L 450 220 L 450 219 L 450 219 L 451 219 L 451 218 L 452 218 L 454 218 L 455 218 L 456 217 L 456 217 L 457 217 L 458 217 L 459 216 L 460 216 L 462 216 L 464 215 L 466 215 L 466 215 L 466 215 L 466 214 L 467 214 L 467 214 L 467 214 L 467 213 L 468 213 L 468 213 L 468 212 L 468 212 L 469 212 L 470 212 L 470 211 L 471 211 L 471 211 L 473 210 L 473 210 L 473 210 L 474 210 L 475 209 L 476 209 L 481 209 L 481 209 L 481 208 L 481 208 L 483 208 L 484 207 L 485 207 L 485 207 L 485 207 L 485 206 L 486 206 L 489 206 L 489 206 L 489 205 L 489 205 L 491 205 L 491 204 L 491 204 L 491 204 L 493 204 L 496 203 L 496 203 L 499 203 L 499 203 L 499 202 L 502 202 L 503 202 L 505 201 L 506 201 L 507 201 L 508 201 L 508 200 L 508 200 L 509 200 L 509 199 L 509 199 L 509 199 L 510 199 L 510 198 L 510 198 L 510 198 L 510 198 L 511 197 L 512 197 L 512 197 L 516 196 L 516 196 L 520 196 L 521 196 L 522 195 L 522 195 L 523 195 L 525 195 L 525 194 L 525 194 L 526 194 L 526 193 L 526 193 L 526 193 L 526 193 L 527 192 L 527 192 L 527 192 L 527 192 L 527 191 L 528 191 L 528 191 L 529 190 L 529 190 L 529 190 L 530 190 L 531 189 L 531 189 L 531 189 L 531 188 L 532 188 L 534 188 L 534 188 L 534 187 L 534 187 L 534 187 L 535 187 L 535 186 L 535 186 L 536 186 L 538 185 L 540 185 L 542 185 L 543 185 L 544 184 L 546 184 L 549 184 L 549 184 L 551 183 L 554 183 L 554 183 L 554 182 L 558 182 L 559 182 L 559 182 L 560 181 L 560 181 L 566 181 L 566 181 L 567 180 L 567 180 L 568 180 L 568 179 L 569 179 L 569 179 L 569 179 L 570 178 L 570 178 L 570 178 L 571 177 L 571 177 L 571 177 L 571 177 L 571 176 L 571 176 L 571 176 L 573 176 L 574 175 L 574 175 L 575 175 L 575 174 L 575 174 L 576 174 L 576 174 L 577 173 L 577 173 L 577 173 L 578 173 L 578 172 L 579 172 L 579 172 L 580 171 L 580 171 L 581 171 L 581 171 L 582 170 L 582 170 L 582 170 L 582 170 L 583 169 L 583 169 L 583 169 L 584 168 L 584 168 L 585 168 L 585 168 L 585 167 L 585 167 L 586 167 L 586 166 L 586 166 L 586 166 L 586 166 L 587 165 L 588 165 L 588 165 L 588 165 L 588 164 L 588 164 L 588 164 L 588 163 L 589 163 L 589 163 L 589 163 L 589 162 L 589 162 L 589 162 L 591 162 L 592 161 L 594 161 L 594 161 L 594 160 L 594 160 L 595 160 L 596 160 L 596 159 L 596 159 L 598 159 L 600 159 L 600 158 L 602 158 L 602 158 L 602 157 L 603 157 L 603 157 L 603 157 L 603 156 L 603 156 L 603 156 L 603 155 L 604 155 L 604 155 L 604 155 L 604 154 L 604 154 L 604 154 L 605 154 L 605 153 L 605 153 L 605 153 L 606 152 L 607 152 L 608 152 L 608 152 L 608 151 L 609 151 L 609 151 L 610 151 L 612 150 L 612 150 L 612 150 L 612 149 L 612 149 L 614 149 L 616 149 L 616 148 L 618 148 L 618 148 L 618 148 L 618 147 L 618 147 L 622 147 L 624 146 L 626 146 L 627 146 L 628 146 L 629 145 L 629 145 L 630 145 L 630 144 L 630 144 L 630 144 L 631 144 L 631 143 L 631 143 L 632 143 L 634 143 L 634 142 L 634 142 L 634 142 L 634 141 L 634 141 L 634 141 L 634 141 L 634 140 L 634 140 L 634 140 L 634 140 L 634 139 L 634 139 L 634 139 L 634 138 L 634 138 L 635 138 L 635 138 L 635 137 L 635 137 L 635 137 L 635 137 L 635 136 L 636 136 L 636 136 L 636 135 L 637 135 L 637 135 L 637 135 L 637 134 L 637 134 L 637 134 L 638 133 L 639 133 L 641 133 L 641 133 L 641 132 L 642 132 L 642 132 L 642 132 L 643 131 L 644 131 L 645 131 L 646 130 L 646 130 L 646 130 L 646 130 L 646 129 L 646 129 L 646 129 L 648 129 L 648 128 L 648 128 L 651 128 L 652 127 L 653 127 L 655 127 L 656 127 L 657 126 L 657 126 L 657 126 L 657 126 L 657 125 L 658 125 L 658 125 L 659 124 L 659 124 L 659 124 L 660 124 L 660 123 L 660 123 L 660 123 L 660 122 L 660 122 L 660 122 L 660 122 L 661 121 L 661 121 L 662 121 L 662 121 L 663 120 L 663 120 L 663 120 L 663 119 L 664 119 L 664 119 L 665 119 L 665 118 L 665 118 L 665 118 L 666 118 L 669 117 L 671 117 L 673 117 L 674 116 L 674 116 L 677 116 L 677 116 L 678 115 L 680 115 L 684 115 L 685 115 L 686 114 L 687 114 L 689 114 L 689 113 L 689 113 L 691 113 L 691 113 L 692 112 L 693 112 L 694 112 L 695 111 L 696 111 L 696 111 L 696 111 L 696 110 L 697 110 L 697 110 L 700 110 L 700 109 L 701 109 L 702 109 L 702 108 L 703 108 L 704 108 L 705 108 L 705 107 L 705 107 L 705 107 L 706 107 L 707 106 L 707 106 L 707 106 L 708 105 L 708 105 L 709 105 L 709 105 L 710 104 L 710 104 L 710 104 L 711 104 L 711 103 L 711 103 L 711 103 L 711 102 L 712 102 L 712 102 L 714 102 L 715 101 L 716 101 L 718 101 L 718 100 L 720 100 L 720 100 L 722 100 L 724 99 L 726 99 L 727 99 L 728 99 L 728 98 L 730 98 L 731 98 L 733 97 L 733 97 L 733 97 L 733 97 L 733 96 L 733 96 L 734 96 L 735 96 L 736 95 L 737 95 L 737 95 L 737 94 L 742 94 L 743 94 L 744 94 L 745 93 L 746 93 L 747 93 L 747 92 L 748 92 L 748 92 L 748 92 L 749 91 L 750 91 L 750 91 L 750 91 L 751 90 L 751 90 L 751 90 L 752 89 L 753 89 L 756 89 L 756 89 L 760 88 L 760 88 L 761 88 L 762 88 L 762 87 L 763 87 L 763 87 L 763 86 L 765 86 L 766 86 L 768 86 L 768 85 L 768 85 L 768 85 L 770 85 L 771 84 L 773 84 L 773 84 L 773 83 L 773 83 L 774 83 L 774 83 L 774 82 L 775 82 L 775 82 L 775 82 L 777 81 L 777 81 L 778 81 L 778 80 L 778 80 L 778 80 L 779 80 L 779 79 L 782 79 L 785 79 L 786 78 L 789 78 L 789 78 L 792 78 L 792 77 L 793 77 L 793 77 L 794 77 L 794 76 L 796 76 L 798 76 L 798 75 L 801 75 L 805 75 L 805 75 L 805 74 L 806 74 L 806 74 L 807 74 L 807 73 L 808 73 L 815 73 L 818 72 L 818 72 L 819 72 L 820 72 L 822 71 L 824 71 L 825 71 L 825 71 L 826 70 L 827 70 L 831 70 L 832 69 L 833 69 L 834 69 L 836 69 L 837 68 L 837 68 L 837 68 L 837 67 L 837 67 L 838 67 L 838 67 L 840 66 L 842 66 L 842 66 L 842 66 L 843 65 L 845 65 L 848 65 L 849 64 L 850 64 L 851 64 L 852 64 L 852 63 L 852 63 L 852 63 L 852 63 L 852 62 L 854 62 L 855 62 L 856 61 L 856 61 L 856 61 L 856 61 L 856 60 L 857 60 L 857 60 L 857 60 L 857 59 L 857 59 L 857 59 L 858 58 L 858 58 L 859 58 L 859 58 L 859 57 L 859 57 L 859 57 L 861 56 L 865 56 L 866 56 L 867 56 L 867 55 L 867 55 L 867 55 L 868 55 L 868 54 L 868 54 L 868 54 L 868 53 L 868 53 L 868 53 L 868 53 L 868 52 L 868 52 L 868 52 L 868 52 L 868 51 L 868 51 L 869 51 L 869 50 L 869 50 L 870 50 L 871 50 L 871 49 L 872 49 L 873 49 L 874 49 L 874 48 L 874 48 L 874 48 L 876 47 L 876 47 L 876 47 L 878 47 L 879 46 L 880 46 L 880 46 L 881 45 L 882 45 L 882 45 L 884 45 L 884 44 L 885 44 L 886 44 L 887 44 L 887 43 L 887 43 L 888 43 L 889 42 L 889 42 L 890 42 L 891 42 L 892 41 L 894 41 L 898 41 L 898 41 L 899 40 L 903 40 L 903 40 L 903 39 L 904 39 L 904 39 L 904 39 L 905 38 L 906 38 L 907 38 L 907 38 L 907 37 L 908 37 L 908 37 L 908 36 L 909 36 L 913 36 L 913 36 L 914 35 L 915 35 L 916 35 L 917 34 L 922 34 L 923 34 L 923 34 L 924 33 L 924 33 L 925 33 L 927 33 L 927 32 L 927 32 L 928 32 L 928 31 L 928 31 L 931 31 L 933 31 L 934 30 L 936 30 L 937 30 L 937 30 L 937 29 L 937 29" /><path stroke-width="2" class="series" d="M 58 345 L 60 345 L 71 345 L 72 344 L 72 344 L 72 344 L 72 344 L 72 343 L 72 343 L 72 343 L 72 342 L 72 342 L 72 342 L 72 342 L 72 341 L 72 341 L 72 341 L 72 341 L 72 340 L 73 340 L 73 340 L 73 339 L 74 339 L 75 339 L 75 339 L 75 338 L 75 338 L 76 338 L 77 338 L 77 337 L 78 337 L 79 337 L 82 336 L 82 336 L 82 336 L 82 336 L 82 335 L 84 335 L 85 335 L 86 335 L 87 334 L 90 334 L 91 334 L 96 333 L 98 333 L 101 333 L 103 333 L 105 332 L 115 332 L 116 332 L 117 331 L 117 331 L 117 331 L 117 331 L 117 330 L 117 330 L 117 330 L 117 330 L 117 329 L 117 329 L 117 329 L 117 328 L 118 328 L 118 328 L 118 328 L 118 327 L 118 327 L 118 327 L 118 327 L 118 326 L 118 326 L 118 326 L 118 325 L 118 325 L 118 325 L 118 325 L 118 324 L 118 324 L 118 324 L 118 324 L 118 323 L 118 323 L 118 323 L 118 322 L 118 322 L 118 322 L 118 322 L 118 321 L 118 321 L 118 321 L 118 320 L 118 320 L 118 320 L 118 320 L 118 319 L 118 319 L 118 319 L 118 319 L 118 318 L 119 318 L 119 318 L 119 317 L 119 317 L 119 317 L 120 317 L 120 316 L 120 316 L 120 316 L 120 316 L 120 315 L 120 315 L 120 315 L 120 314 L 120 314 L 120 314 L 120 314 L 120 313 L 120 313 L 120 313 L 120 313 L 120 312 L 120 312 L 121 312 L 121 311 L 121 311 L 121 311 L 123 311 L 123 310 L 124 310 L 124 310 L 124 309 L 126 309 L 128 309 L 128 309 L 130 308 L 130 308 L 131 308 L 132 308 L 132 307 L 134 307 L 134 307 L 134 306 L 135 306 L 136 306 L 136 306 L 136 305 L 136 305 L 137 305 L 138 305 L 138 304 L 138 304 L 139 304 L 139 303 L 139 303 L 140 303 L 141 303 L 142 302 L 143 302 L 144 302 L 145 302 L 145 301 L 145 301 L 145 301 L 147 300 L 151 300 L 151 300 L 152 300 L 156 299 L 156 299 L 156 299 L 156 298 L 157 298 L 157 298 L 159 298 L 159 297 L 159 297 L 165 297 L 166 297 L 167 296 L 168 296 L 169 296 L 169 295 L 170 295 L 174 295 L 178 295 L 182 294 L 183 294 L 183 294 L 183 294 L 183 293 L 190 293 L 193 293 L 193 292 L 196 292 L 196 292 L 197 292 L 203 291 L 203 291 L 204 291 L 204 291 L 205 290 L 208 290 L 209 290 L 210 289 L 211 289 L 215 289 L 216 289 L 216 288 L 216 288 L 216 288 L 217 287 L 219 287 L 223 287 L 231 287 L 234 286 L 236 286 L 236 286 L 238 286 L 238 285 L 238 285 L 238 285 L 238 284 L 238 284 L 238 284 L 238 284 L 238 283 L 238 283 L 238 283 L 239 283 L 239 282 L 239 282 L 239 282 L 241 281 L 241 281 L 241 281 L 241 281 L 242 280 L 242 280 L 242 280 L 242 280 L 242 279 L 242 279 L 242 279 L 243 278 L 243 278 L 243 278 L 244 278 L 244 277 L 244 277 L 244 277 L 244 276 L 245 276 L 245 276 L 245 276 L 245 275 L 246 275 L 246 275 L 247 275 L 247 274 L 249 274 L 250 274 L 250 273 L 251 273 L 251 273 L 251 273 L 251 272 L 251 272 L 252 272 L 253 272 L 254 271 L 254 271 L 254 271 L 256 270 L 257 270 L 257 270 L 259 270 L 259 269 L 259 269 L 260 269 L 260 269 L 263 268 L 264 268 L 264 268 L 266 267 L 268 267 L 270 267 L 271 267 L 271 266 L 272 266 L 272 266 L 272 265 L 274 265 L 276 265 L 277 265 L 277 264 L 279 264 L 279 264 L 279 264 L 279 263 L 279 263 L 279 263 L 279 262 L 280 262 L 280 262 L 280 262 L 281 261 L 284 261 L 288 261 L 288 261 L 288 260 L 290 260 L 291 260 L 292 259 L 292 259 L 293 259 L 294 259 L 294 258 L 294 258 L 294 258 L 294 258 L 294 257 L 294 257 L 295 257 L 295 256 L 295 256 L 297 256 L 297 256 L 297 255 L 297 255 L 297 255 L 297 254 L 297 254 L 298 254 L 298 254 L 298 253 L 298 253 L 298 253 L 298 253 L 301 252 L 302 252 L 302 252 L 303 251 L 310 251 L 311 251 L 314 251 L 315 250 L 321 250 L 323 250 L 323 250 L 323 249 L 323 249 L 323 249 L 323 248 L 323 248 L 324 248 L 325 248 L 331 247 L 332 247 L 334 247 L 339 247 L 342 246 L 344 246 L 346 246 L 349 245 L 350 245 L 356 245 L 363 245 L 363 244 L 367 244 L 368 244 L 371 243 L 372 243 L 374 243 L 374 243 L 374 242 L 375 242 L 377 242 L 377 242 L 379 241 L 382 241 L 382 241 L 383 240 L 384 240 L 386 240 L 389 240 L 389 239 L 391 239 L 394 239 L 395 239 L 395 238 L 396 238 L 397 238 L 397 237 L 400 237 L 401 237 L 403 237 L 405 236 L 405 236 L 409 236 L 409 236 L 411 235 L 414 235 L 414 235 L 418 234 L 418 234 L 419 234 L 420 234 L 420 233 L 421 233 L 422 233 L 423 232 L 425 232 L 426 232 L 426 232 L 426 231 L 432 231 L 432 231 L 432 231 L 432 230 L 433 230 L 433 230 L 433 229 L 434 229 L 434 229 L 435 229 L 435 228 L 436 228 L 437 228 L 437 228 L 438 227 L 438 227 L 438 227 L 439 226 L 439 226 L 439 226 L 440 226 L 440 225 L 440 225 L 440 225 L 441 225 L 442 224 L 442 224 L 442 224 L 443 223 L 443 223 L 444 223 L 445 223 L 445 222 L 445 222 L 446 222 L 447 221 L 447 221 L 448 221 L 449 221 L 449 220 L 449 220 L 450 220 L 450 220 L 450 219 L 450 219 L 451 219 L 451 218 L 452 218 L 454 218 L 455 218 L 456 217 L 456 217 L 457 217 L 458 217 L 459 216 L 460 216 L 462 216 L 464 215 L 466 215 L 466 215 L 466 215 L 466 214 L 467 214 L 467 214 L 467 214 L 467 213 L 468 213 L 468 213 L 468 212 L 468 212 L 469 212 L 470 212 L 470 211 L 471 211 L 471 211 L 473 210 L 473 210 L 473 210 L 474 210 L 475 209 L 476 209 L 481 209 L 481 209 L 481 208 L 481 208 L 483 208 L 484 207 L 485 207 L 485 207 L 485 207 L 485 206 L 486 206 L 489 206 L 489 206 L 489 205 L 489 205 L 491 205 L 491 204 L 491 204 L 491 204 L 493 204 L 496 203 L 496 203 L 499 203 L 499 203 L 499 202 L 502 202 L 503 202 L 505 201 L 506 201 L 507 201 L 508 201 L 508 200 L 508 200 L 509 200 L 509 199 L 509 199 L 509 199 L 510 199 L 510 198 L 510 198 L 510 198 L 510 198 L 511 197 L 512 197 L 512 197 L 516 196 L 516 196 L 520 196 L 521 196 L 522 195 L 522 195 L 523 195 L 525 195 L 525 194 L 525 194 L 526 194 L 526 193 L 526 193 L 526 193 L 526 193 L 527 192 L 527 192 L 527 192 L 527 192 L 527 191 L 528 191 L 528 191 L 529 190 L 529 190 L 529 190 L 530 190 L 531 189 L 531 189 L 531 189 L 531 188 L 532 188 L 534 188 L 534 188 L 534 187 L 534 187 L 534 187 L 535 187 L 535 186 L 535 186 L 536 186 L 538 185 L 540 185 L 542 185 L 543 185 L 544 184 L 546 184 L 549 184 L 549 184 L 551 183 L 554 183 L 554 183 L 554 182 L 558 182 L 559 182 L 559 182 L 560 181 L 560 181 L 566 181 L 566 181 L 567 180 L 567 180 L 568 180 L 568 179 L 569 179 L 569 179 L 569 179 L 570 178 L 570 178 L 570 178 L 571 177 L 571 177 L 571 177 L 571 177 L 571 176 L 571 176 L 571 176 L 573 176 L 574 175 L 574 175 L 575 175 L 575 174 L 575 174 L 576 174 L 576 174 L 577 173 L 577 173 L 577 173 L 578 173 L 578 172 L 579 172 L 579 172 L 580 171 L 580 171 L 581 171 L 581 171 L 582 170 L 582 170 L 582 170 L 582 170 L 583 169 L 583 169 L 583 169 L 584 168 L 584 168 L 585 168 L 585 168 L 585 167 L 585 167 L 586 167 L 586 166 L 586 166 L 586 166 L 586 166 L 587 165 L 588 165 L 588 165 L 588 165 L 588 164 L 588 164 L 588 164 L 588 163 L 589 163 L 589 163 L 589 163 L 589 162 L 589 162 L 589 162 L 591 162 L 592 161 L 594 161 L 594 161 L 594 160 L 594 160 L 595 160 L 596 160 L 596 159 L 596 159 L 598 159 L 600 159 L 600 158 L 602 158 L 602 158 L 602 157 L 603 157 L 603 157 L 603 157 L 603 156 L 603 156 L 603 156 L 603 155 L 604 155 L 604 155 L 604 155 L 604 154 L 604 154 L 604 154 L 605 154 L 605 153 L 605 153 L 605 153 L 606 152 L 607 152 L 608 152 L 608 152 L 608 151 L 609 151 L 609 151 L 610 151 L 612 150 L 612 150 L 612 150 L 612 149 L 612 149 L 614 149 L 616 149 L 616 148 L 618 148 L 618 148 L 618 148 L 618 147 L 618 147 L 622 147 L 624 146 L 626 146 L 627 146 L 628 146 L 629 145 L 629 145 L 630 145 L 630 144 L 630 144 L 630 144 L 631 144 L 631 143 L 631 143 L 632 143 L 634 143 L 634 142 L 634 142 L 634 142 L 634 141 L 634 141 L 634 141 L 634 141 L 634 140 L 634 140 L 634 140 L 634 140 L 634 139 L 634 139 L 634 139 L 634 138 L 634 138 L 635 138 L 635 138 L 635 137 L 635 137 L 635 137 L 635 137 L 635 136 L 636 136 L 636 136 L 636 135 L 637 135 L 637 135 L 637 135 L 637 134 L 637 134 L 637 134 L 638 133 L 639 133 L 641 133 L 641 133 L 641 132 L 642 132 L 642 132 L 642 132 L 643 131 L 644 131 L 645 131 L 646 130 L 646 130 L 646 130 L 646 130 L 646 129 L 646 129 L 646 129 L 648 129 L 648 128 L 648 128 L 651 128 L 652 127 L 653 127 L 655 127 L 656 127 L 657 126 L 657 126 L 657 126 L 657 126 L 657 125 L 658 125 L 658 125 L 659 124 L 659 124 L 659 124 L 660 124 L 660 123 L 660 123 L 660 123 L 660 122 L 660 122 L 660 122 L 660 122 L 661 121 L 661 121 L 662 121 L 662 121 L 663 120 L 663 120 L 663 120 L 663 119 L 664 119 L 664 119 L 665 119 L 665 118 L 665 118 L 665 118 L 666 118 L 669 117 L 671 117 L 673 117 L 674 116 L 674 116 L 677 116 L 677 116 L 678 115 L 680 115 L 684 115 L 685 115 L 686 114 L 687 114 L 689 114 L 689 113 L 689 113 L 691 113 L 691 113 L 692 112 L 693 112 L 694 112 L 695 111 L 696 111 L 696 111 L 696 111 L 696 110 L 697 110 L 697 110 L 700 110 L 700 109 L 701 109 L 702 109 L 702 108 L 703 108 L 704 108 L 705 108 L 705 107 L 705 107 L 705 107 L 706 107 L 707 106 L 707 106 L 707 106 L 708 105 L 708 105 L 709 105 L 709 105 L 710 104 L 710 104 L 710 104 L 711 104 L 711 103 L 711 103 L 711 103 L 711 102 L 712 102 L 712 102 L 714 102 L 715 101 L 716 101 L 718 101 L 718 100 L 720 100 L 720 100 L 722 100 L 724 99 L 726 99 L 727 99 L 728 99 L 728 98 L 730 98 L 731 98 L 733 97 L 733 97 L 733 97 L 733 97 L 733 96 L 733 96 L 734 96 L 735 96 L 736 95 L 737 95 L 737 95 L 737 94 L 742 94 L 743 94 L 744 94 L 745 93 L 746 93 L 747 93 L 747 92 L 748 92 L 748 92 L 748 92 L 749 91 L 750 91 L 750 91 L 750 91 L 751 90 L 751 90 L 751 90 L 752 89 L 753 89 L 756 89 L 756 89 L 760 88 L 760 88 L 761 88 L 762 88 L 762 87 L 763 87 L 763 87 L 763 86 L 765 86 L 766 86 L 768 86 L 768 85 L 768 85 L 768 85 L 770 85 L 771 84 L 773 84 L 773 84 L 773 83 L 773 83 L 774 83 L 774 83 L 774 82 L 775 82 L 775 82 L 775 82 L 777 81 L 777 81 L 778 81 L 778 80 L 778 80 L 778 80 L 779 80 L 779 79 L 782 79 L 785 79 L 786 78 L 789 78 L 789 78 L 792 78 L 792 77 L 793 77 L 793 77 L 794 77 L 794 76 L 796 76 L 798 76 L 798 75 L 801 75 L 805 75 L 805 75 L 805 74 L 806 74 L 806 74 L 807 74 L 807 73 L 808 73 L 815 73 L 818 72 L 818 72 L 819 72 L 820 72 L 822 71 L 824 71 L 825 71 L 825 71 L 826 70 L 827 70 L 831 70 L 832 69 L 833 69 L 834 69 L 836 69 L 837 68 L 837 68 L 837 68 L 837 67 L 837 67 L 838 67 L 838 67 L 840 66 L 842 66 L 842 66 L 842 66 L 843 65 L 845 65 L 848 65 L 849 64 L 850 64 L 851 64 L 852 64 L 852 63 L 852 63 L 852 63 L 852 63 L 852 62 L 854 62 L 855 62 L 856 61 L 856 61 L 856 61 L 856 61 L 856 60 L 857 60 L 857 60 L 857 60 L 857 59 L 857 59 L 857 59 L 858 58 L 858 58 L 859 58 L 859 58 L 859 57 L 859 57 L 859 57 L 861 56 L 865 56 L 866 56 L 867 56 L 867 55 L 867 55 L 867 55 L 868 55 L 868 54 L 868 54 L 868 54 L 868 53 L 868 53 L 868 53 L 868 53 L 868 52 L 868 52 L 868 52 L 868 52 L 868 51 L 868 51 L 869 51 L 869 50 L 869 50 L 870 50 L 871 50 L 871 49 L 872 49 L 873 49 L 874 49 L 874 48 L 874 48 L 874 48 L 876 47 L 876 47 L 876 47 L 878 47 L 879 46 L 880 46 L 880 46 L 881 45 L 882 45 L 882 45 L 884 45 L 884 44 L 885 44 L 886 44 L 887 44 L 887 43 L 887 43 L 888 43 L 889 42 L 889 42 L 890 42 L 891 42 L 892 41 L 894 41 L 898 41 L 898 41 L 899 40 L 903 40 L 903 40 L 903 39 L 904 39 L 904 39 L 904 39 L 905 38 L 906 38 L 907 38 L 907 38 L 907 37 L 908 37 L 908 37 L 908 36 L 909 36 L 913 36 L 913 36 L 914 35 L 915 35 L 916 35 L 917 34 L 922 34 L 923 34 L 923 34 L 924 33 L 924 33 L 925 33 L 927 33 L 927 32 L 927 32 L 928 32 L 928 31 L 928 31 L 931 31 L 933 31 L 934 30 L 936 30 L 937 30 L 937 30 L 937 29 L 937 29"></path><path stroke-width="2" d="M 937 346 L 937.000000 15.000000" /><path stroke-width="2" d="M 937 346 L 937.000000 15.000000"></path><path stroke-width="2" d="M 937 346 L 942 346" /><path d="M 937 346 L 942 346" stroke-width="2"></path><text x="947" y="352" xmlns="http://www.w3.org/2000/svg">0</text><path stroke-width="2" d="M 937 307 L 942 307" /><path stroke-width="2" d="M 937 307 L 942 307"></path><text xmlns="http://www.w3.org/2000/svg" x="947" y="313">140</text><path stroke-width="2" d="M 937 271 L 942 271" /><path stroke-width="2" d="M 937 271 L 942 271"></path><text x="947" y="277" xmlns="http://www.w3.org/2000/svg">270</text><path stroke-width="2" d="M 937 236 L 942 236" /><path stroke-width="2" d="M 937 236 L 942 236"></path><text xmlns="http://www.w3.org/2000/svg" x="947" y="242">400</text><path stroke-width="2" d="M 937 197 L 942 197" /><path stroke-width="2" d="M 937 197 L 942 197"></path><text xmlns="http://www.w3.org/2000/svg" x="947" y="203">540</text><path stroke-width="2" d="M 937 161 L 942 161" /><path stroke-width="2" d="M 937 161 L 942 161"></path><text xmlns="http://www.w3.org/2000/svg" x="947" y="167">670</text><path d="M 937 126 L 942 126" stroke-width="2" /><path stroke-width="2" d="M 937 126 L 942 126"></path><text y="132" xmlns="http://www.w3.org/2000/svg" x="947">800</text><path stroke-width="2" d="M 937 87 L 942 87" /><path stroke-width="2" d="M 937 87 L 942 87"></path><text xmlns="http://www.w3.org/2000/svg" x="947" y="93">940</text><path stroke-width="2" d="M 937 51 L 942 51" /><path d="M 937 51 L 942 51" stroke-width="2"></path><text x="947" y="57" xmlns="http://www.w3.org/2000/svg">1070</text><path stroke-width="2" d="M 937 16 L 942 16" /><path d="M 937 16 L 942 16" stroke-width="2"></path><text xmlns="http://www.w3.org/2000/svg" x="947" y="22">1200</text><text xmlns="http://www.w3.org/2000/svg" x="987" y="175" transform="rotate(90.00,987,175)">Stargazers</text><path stroke-width="2" d="M 57.000000 346.000000 L 937 346" /><path stroke-width="2" d="M 57.000000 346.000000 L 937 346"></path><path stroke-width="2" d="M 58 346 L 58 351" /><path stroke-width="2" d="M 58 346 L 58 351"></path><text xmlns="http://www.w3.org/2000/svg" x="25" y="368">2023-04-02</text><path stroke-width="2" d="M 156 346 L 156 351" /><path stroke-width="2" d="M 156 346 L 156 351"></path><text xmlns="http://www.w3.org/2000/svg" x="123" y="368">2023-07-17</text><path stroke-width="2" d="M 254 346 L 254 351" /><path stroke-width="2" d="M 254 346 L 254 351"></path><text xmlns="http://www.w3.org/2000/svg" x="221" y="368">2023-11-01</text><path stroke-width="2" d="M 352 346 L 352 351" /><path stroke-width="2" d="M 352 346 L 352 351"></path><text xmlns="http://www.w3.org/2000/svg" x="319" y="368">2024-02-15</text><path d="M 449 346 L 449 351" stroke-width="2" /><path stroke-width="2" d="M 449 346 L 449 351"></path><text xmlns="http://www.w3.org/2000/svg" x="416" y="368">2024-06-01</text><path stroke-width="2" d="M 547 346 L 547 351" /><path stroke-width="2" d="M 547 346 L 547 351"></path><text xmlns="http://www.w3.org/2000/svg" x="514" y="368">2024-09-16</text><path stroke-width="2" d="M 645 346 L 645 351" /><path stroke-width="2" d="M 645 346 L 645 351"></path><text xmlns="http://www.w3.org/2000/svg" x="612" y="368">2024-12-31</text><path stroke-width="2" d="M 742 346 L 742 351" /><path stroke-width="2" d="M 742 346 L 742 351"></path><text xmlns="http://www.w3.org/2000/svg" x="709" y="368">2025-04-17</text><path stroke-width="2" d="M 840 346 L 840 351" /><path d="M 840 346 L 840 351" stroke-width="2"></path><text xmlns="http://www.w3.org/2000/svg" x="807" y="368">2025-08-01</text><path stroke-width="2" d="M 937 346 L 937 351" /><path stroke-width="2" d="M 937 346 L 937 351"></path><text xmlns="http://www.w3.org/2000/svg" x="904" y="368">2025-11-16</text><text xmlns="http://www.w3.org/2000/svg" x="483" y="390">Time</text></svg>