<svg xmlns="http://www.w3.org/2000/svg" xmlns:xlink="http://www.w3.org/1999/xlink" width="1024" height="400">\n<path  d="M 0 0
L 1024 0
L 1024 400
L 0 400
L 0 0" style="stroke-width:0;stroke:rgba(255,255,255,1.0);fill:rgba(255,255,255,1.0)"/><path  d="M 38 11
L 965 11
L 965 351
L 38 351
L 38 11" style="stroke-width:0;stroke:rgba(255,255,255,1.0);fill:rgba(255,255,255,1.0)"/><path  d="M 38 351
L 965 351" style="stroke-width:2;stroke:rgba(85,85,85,1.0);fill:none"/><path  d="M 38 351
L 38 356" style="stroke-width:2;stroke:rgba(85,85,85,1.0);fill:none"/><text x="5" y="373" style="stroke-width:0;stroke:none;fill:rgba(51,51,51,1.0);font-size:12.8px;font-family:'Roboto Medium',sans-serif">2023-04-02</text><path  d="M 154 351
L 154 356" style="stroke-width:2;stroke:rgba(85,85,85,1.0);fill:none"/><text x="121" y="373" style="stroke-width:0;stroke:none;fill:rgba(51,51,51,1.0);font-size:12.8px;font-family:'Roboto Medium',sans-serif">2023-04-24</text><path  d="M 270 351
L 270 356" style="stroke-width:2;stroke:rgba(85,85,85,1.0);fill:none"/><text x="237" y="373" style="stroke-width:0;stroke:none;fill:rgba(51,51,51,1.0);font-size:12.8px;font-family:'Roboto Medium',sans-serif">2023-05-16</text><path  d="M 386 351
L 386 356" style="stroke-width:2;stroke:rgba(85,85,85,1.0);fill:none"/><text x="353" y="373" style="stroke-width:0;stroke:none;fill:rgba(51,51,51,1.0);font-size:12.8px;font-family:'Roboto Medium',sans-serif">2023-06-06</text><path  d="M 502 351
L 502 356" style="stroke-width:2;stroke:rgba(85,85,85,1.0);fill:none"/><text x="469" y="373" style="stroke-width:0;stroke:none;fill:rgba(51,51,51,1.0);font-size:12.8px;font-family:'Roboto Medium',sans-serif">2023-06-28</text><path  d="M 618 351
L 618 356" style="stroke-width:2;stroke:rgba(85,85,85,1.0);fill:none"/><text x="585" y="373" style="stroke-width:0;stroke:none;fill:rgba(51,51,51,1.0);font-size:12.8px;font-family:'Roboto Medium',sans-serif">2023-07-20</text><path  d="M 734 351
L 734 356" style="stroke-width:2;stroke:rgba(85,85,85,1.0);fill:none"/><text x="701" y="373" style="stroke-width:0;stroke:none;fill:rgba(51,51,51,1.0);font-size:12.8px;font-family:'Roboto Medium',sans-serif">2023-08-11</text><path  d="M 850 351
L 850 356" style="stroke-width:2;stroke:rgba(85,85,85,1.0);fill:none"/><text x="817" y="373" style="stroke-width:0;stroke:none;fill:rgba(51,51,51,1.0);font-size:12.8px;font-family:'Roboto Medium',sans-serif">2023-09-02</text><path  d="M 965 351
L 965 356" style="stroke-width:2;stroke:rgba(85,85,85,1.0);fill:none"/><text x="932" y="373" style="stroke-width:0;stroke:none;fill:rgba(51,51,51,1.0);font-size:12.8px;font-family:'Roboto Medium',sans-serif">2023-09-24</text><text x="487" y="395" style="stroke-width:0;stroke:none;fill:rgba(51,51,51,1.0);font-size:12.8px;font-family:'Roboto Medium',sans-serif">Time</text><path  d="M 967 351
L 967 11" style="stroke-width:2;stroke:rgba(85,85,85,1.0);fill:none"/><path  d="M 967 351
L 972 351" style="stroke-width:2;stroke:rgba(85,85,85,1.0);fill:none"/><text x="977" y="357" style="stroke-width:0;stroke:none;fill:rgba(51,51,51,1.0);font-size:12.8px;font-family:'Roboto Medium',sans-serif">0</text><path  d="M 967 307
L 972 307" style="stroke-width:2;stroke:rgba(85,85,85,1.0);fill:none"/><text x="977" y="313" style="stroke-width:0;stroke:none;fill:rgba(51,51,51,1.0);font-size:12.8px;font-family:'Roboto Medium',sans-serif">28</text><path  d="M 967 266
L 972 266" style="stroke-width:2;stroke:rgba(85,85,85,1.0);fill:none"/><text x="977" y="272" style="stroke-width:0;stroke:none;fill:rgba(51,51,51,1.0);font-size:12.8px;font-family:'Roboto Medium',sans-serif">55</text><path  d="M 967 222
L 972 222" style="stroke-width:2;stroke:rgba(85,85,85,1.0);fill:none"/><text x="977" y="228" style="stroke-width:0;stroke:none;fill:rgba(51,51,51,1.0);font-size:12.8px;font-family:'Roboto Medium',sans-serif">83</text><path  d="M 967 181
L 972 181" style="stroke-width:2;stroke:rgba(85,85,85,1.0);fill:none"/><text x="977" y="187" style="stroke-width:0;stroke:none;fill:rgba(51,51,51,1.0);font-size:12.8px;font-family:'Roboto Medium',sans-serif">110</text><path  d="M 967 137
L 972 137" style="stroke-width:2;stroke:rgba(85,85,85,1.0);fill:none"/><text x="977" y="143" style="stroke-width:0;stroke:none;fill:rgba(51,51,51,1.0);font-size:12.8px;font-family:'Roboto Medium',sans-serif">138</text><path  d="M 967 96
L 972 96" style="stroke-width:2;stroke:rgba(85,85,85,1.0);fill:none"/><text x="977" y="102" style="stroke-width:0;stroke:none;fill:rgba(51,51,51,1.0);font-size:12.8px;font-family:'Roboto Medium',sans-serif">165</text><path  d="M 967 52
L 972 52" style="stroke-width:2;stroke:rgba(85,85,85,1.0);fill:none"/><text x="977" y="58" style="stroke-width:0;stroke:none;fill:rgba(51,51,51,1.0);font-size:12.8px;font-family:'Roboto Medium',sans-serif">193</text><path  d="M 967 11
L 972 11" style="stroke-width:2;stroke:rgba(85,85,85,1.0);fill:none"/><text x="977" y="17" style="stroke-width:0;stroke:none;fill:rgba(51,51,51,1.0);font-size:12.8px;font-family:'Roboto Medium',sans-serif">220</text><text x="1009" y="150" style="stroke-width:0;stroke:none;fill:rgba(51,51,51,1.0);font-size:12.8px;font-family:'Roboto Medium',sans-serif" transform="rotate(90.00,1009,150)">Stargazers</text><path  d="M 38 351
L 48 349
L 112 347
L 114 346
L 114 344
L 114 343
L 114 341
L 114 340
L 114 338
L 114 337
L 116 335
L 116 334
L 116 332
L 116 330
L 116 329
L 116 327
L 117 326
L 117 324
L 118 323
L 118 321
L 122 320
L 124 318
L 124 317
L 129 315
L 132 313
L 132 312
L 132 310
L 134 309
L 135 307
L 138 306
L 145 304
L 146 303
L 150 301
L 155 300
L 175 298
L 176 296
L 176 295
L 176 293
L 176 292
L 176 290
L 177 289
L 188 287
L 193 286
L 197 284
L 206 283
L 222 281
L 229 279
L 257 278
L 266 276
L 281 275
L 298 273
L 305 272
L 365 270
L 368 269
L 368 267
L 376 266
L 378 264
L 378 262
L 378 261
L 378 259
L 378 258
L 378 256
L 378 255
L 378 253
L 379 252
L 379 250
L 379 249
L 380 247
L 381 245
L 381 244
L 381 242
L 381 241
L 381 239
L 381 238
L 381 236
L 381 235
L 381 233
L 381 232
L 381 230
L 381 228
L 381 227
L 381 225
L 382 224
L 382 222
L 382 221
L 382 219
L 382 218
L 382 216
L 382 215
L 382 213
L 382 211
L 382 210
L 382 208
L 382 207
L 382 205
L 383 204
L 383 202
L 383 201
L 383 199
L 383 198
L 383 196
L 384 194
L 384 193
L 385 191
L 386 190
L 386 188
L 387 187
L 388 185
L 389 184
L 392 182
L 392 181
L 392 179
L 392 177
L 392 176
L 392 174
L 392 173
L 392 171
L 392 170
L 392 168
L 392 167
L 392 165
L 392 163
L 392 162
L 392 160
L 392 159
L 393 157
L 394 156
L 398 154
L 399 153
L 399 151
L 399 150
L 413 148
L 414 147
L 415 145
L 420 143
L 420 142
L 429 140
L 439 139
L 442 137
L 450 136
L 454 134
L 461 133
L 462 131
L 464 130
L 473 128
L 474 126
L 478 125
L 482 123
L 484 122
L 488 120
L 489 119
L 489 117
L 491 116
L 496 114
L 501 113
L 501 111
L 503 109
L 505 108
L 505 106
L 508 105
L 516 103
L 520 102
L 529 100
L 533 99
L 536 97
L 540 96
L 540 94
L 541 92
L 548 91
L 573 89
L 574 88
L 579 86
L 603 85
L 604 83
L 604 82
L 604 80
L 605 79
L 609 77
L 617 75
L 621 74
L 622 72
L 652 71
L 658 69
L 664 68
L 674 66
L 680 65
L 680 63
L 684 62
L 705 60
L 728 58
L 755 57
L 758 55
L 758 54
L 759 52
L 760 51
L 766 49
L 801 48
L 818 46
L 819 45
L 832 43
L 835 41
L 837 40
L 876 38
L 876 37
L 879 35
L 881 34
L 886 32
L 897 31
L 901 29
L 909 28
L 915 26
L 923 24
L 946 23
L 946 21
L 950 20
L 951 18
L 952 17
L 953 15
L 965 14
L 965 12" style="stroke-width:2;stroke:rgba(129,199,239,1.0);fill:none"/></svg>