<svg xmlns="http://www.w3.org/2000/svg" xmlns:xlink="http://www.w3.org/1999/xlink" width="1024px" height="400px"><style type="text/css">
path { fill: none; stroke: rgb(51,51,51); }
path.series { stroke: #6b63ff; }
rect.background { fill: rgb(255,255,255); stroke: none; }

text {
	stroke-width: 0;
	stroke: none;
	fill: rgba(51,51,51,1.0);
	font-size: 12.8px;
	font-family: 'Roboto Medium', sans-serif;
}
</style><rect y="0" width="1024px" height="400px" class="background" rx="8" x="0" /><rect height="400px" class="background" rx="8" x="0" y="0" width="1024px"></rect><path class="series" d="M 58 345 L 61 345 L 75 344 L 76 344 L 76 344 L 76 343 L 76 343 L 76 343 L 76 342 L 76 342 L 76 342 L 76 341 L 76 341 L 76 340 L 76 340 L 76 340 L 76 339 L 77 339 L 77 339 L 77 338 L 78 338 L 78 338 L 79 337 L 80 337 L 80 337 L 80 336 L 80 336 L 81 335 L 83 335 L 83 335 L 84 334 L 85 334 L 90 334 L 90 333 L 90 333 L 90 333 L 90 332 L 93 332 L 94 332 L 95 331 L 97 331 L 100 330 L 102 330 L 108 330 L 110 329 L 114 329 L 118 329 L 119 328 L 133 328 L 134 328 L 134 327 L 135 327 L 136 326 L 136 326 L 136 326 L 136 325 L 136 325 L 136 325 L 136 324 L 136 324 L 136 324 L 136 323 L 136 323 L 136 323 L 137 322 L 137 322 L 137 321 L 137 321 L 137 321 L 137 320 L 137 320 L 137 320 L 137 319 L 137 319 L 137 319 L 137 318 L 137 318 L 137 318 L 137 317 L 137 317 L 137 316 L 137 316 L 137 316 L 137 315 L 137 315 L 137 315 L 137 314 L 137 314 L 137 314 L 137 313 L 137 313 L 137 313 L 137 312 L 137 312 L 137 311 L 137 311 L 137 311 L 137 310 L 137 310 L 137 310 L 138 309 L 138 309 L 138 309 L 138 308 L 138 308 L 139 307 L 139 307 L 139 307 L 139 306 L 139 306 L 139 306 L 139 305 L 139 305 L 139 305 L 139 304 L 139 304 L 139 304 L 139 303 L 139 303 L 139 302 L 139 302 L 139 302 L 140 301 L 140 301 L 141 301 L 141 300 L 141 300 L 144 300 L 144 299 L 144 299 L 145 299 L 145 298 L 148 298 L 150 297 L 150 297 L 152 297 L 153 296 L 155 296 L 155 296 L 155 295 L 158 295 L 158 295 L 159 294 L 160 294 L 160 293 L 161 293 L 161 293 L 161 292 L 162 292 L 163 292 L 164 291 L 164 291 L 164 291 L 165 290 L 165 290 L 166 290 L 167 289 L 168 289 L 170 288 L 171 288 L 172 288 L 173 287 L 173 287 L 173 287 L 175 286 L 180 286 L 181 286 L 182 285 L 187 285 L 187 285 L 187 284 L 187 284 L 188 283 L 189 283 L 190 283 L 191 282 L 192 282 L 198 282 L 200 281 L 201 281 L 203 281 L 205 280 L 205 280 L 206 280 L 210 279 L 216 279 L 222 278 L 222 278 L 222 278 L 223 277 L 223 277 L 224 277 L 232 276 L 236 276 L 236 276 L 239 275 L 240 275 L 240 274 L 249 274 L 249 274 L 250 273 L 250 273 L 252 273 L 254 272 L 255 272 L 257 272 L 258 271 L 260 271 L 265 271 L 265 270 L 266 270 L 266 269 L 267 269 L 267 269 L 270 268 L 275 268 L 286 268 L 290 267 L 292 267 L 293 267 L 294 266 L 295 266 L 295 266 L 295 265 L 295 265 L 295 264 L 295 264 L 295 264 L 295 263 L 296 263 L 296 263 L 296 262 L 296 262 L 296 262 L 296 261 L 296 261 L 298 260 L 299 260 L 299 260 L 299 259 L 299 259 L 300 259 L 300 258 L 300 258 L 300 258 L 300 257 L 300 257 L 300 257 L 301 256 L 302 256 L 302 255 L 302 255 L 302 255 L 303 254 L 303 254 L 304 254 L 304 253 L 304 253 L 304 253 L 305 252 L 305 252 L 305 252 L 306 251 L 307 251 L 308 250 L 309 250 L 311 250 L 311 249 L 312 249 L 312 249 L 312 248 L 312 248 L 312 248 L 314 247 L 314 247 L 316 247 L 316 246 L 317 246 L 318 245 L 320 245 L 320 245 L 322 244 L 323 244 L 323 244 L 324 243 L 324 243 L 328 243 L 329 242 L 329 242 L 332 241 L 334 241 L 338 241 L 338 240 L 339 240 L 340 240 L 340 239 L 340 239 L 343 239 L 345 238 L 346 238 L 346 238 L 347 237 L 349 237 L 349 236 L 349 236 L 349 236 L 349 235 L 350 235 L 350 235 L 351 234 L 351 234 L 351 234 L 352 233 L 356 233 L 361 233 L 361 232 L 361 232 L 364 231 L 365 231 L 366 231 L 367 230 L 368 230 L 369 230 L 369 229 L 369 229 L 369 229 L 369 228 L 369 228 L 369 227 L 370 227 L 370 227 L 370 226 L 373 226 L 373 226 L 373 225 L 373 225 L 373 225 L 373 224 L 373 224 L 373 224 L 374 223 L 374 223 L 374 222 L 374 222 L 374 222 L 377 221 L 380 221 L 380 221 L 381 220 L 391 220 L 392 220 L 395 219 L 397 219 L 403 219 L 405 218 L 407 218 L 407 217 L 407 217 L 407 217 L 408 216 L 408 216 L 408 216 L 409 215 L 410 215 L 417 215 L 419 214 L 422 214 L 428 214 L 432 213 L 435 213 L 438 212 L 442 212 L 442 212 L 451 211 L 459 211 L 459 211 L 466 210 L 466 210 L 471 210 L 472 209 L 474 209 L 474 208 L 475 208 L 475 208 L 478 207 L 479 207 L 481 207 L 485 206 L 485 206 L 486 206 L 487 205 L 490 205 L 493 205 L 494 204 L 497 204 L 501 203 L 502 203 L 502 203 L 503 202 L 504 202 L 505 202 L 508 201 L 510 201 L 513 201 L 515 200 L 515 200 L 520 200 L 521 199 L 523 199 L 527 198 L 528 198 L 532 198 L 533 197 L 533 197 L 534 197 L 535 196 L 537 196 L 537 196 L 539 195 L 542 195 L 543 194 L 543 194 L 543 194 L 550 193 L 550 193 L 551 193 L 551 192 L 552 192 L 552 192 L 552 191 L 553 191 L 553 191 L 555 190 L 555 190 L 557 189 L 557 189 L 558 189 L 558 188 L 559 188 L 559 188 L 560 187 L 560 187 L 560 187 L 561 186 L 561 186 L 561 186 L 561 185 L 562 185 L 564 184 L 564 184 L 564 184 L 565 183 L 565 183 L 566 183 L 567 182 L 568 182 L 568 182 L 569 181 L 571 181 L 571 181 L 571 180 L 572 180 L 574 179 L 574 179 L 574 179 L 574 178 L 574 178 L 575 178 L 575 177 L 575 177 L 576 177 L 576 176 L 579 176 L 580 175 L 582 175 L 582 175 L 584 174 L 586 174 L 586 174 L 588 173 L 591 173 L 593 173 L 595 172 L 596 172 L 596 172 L 596 171 L 596 171 L 597 170 L 597 170 L 597 170 L 598 169 L 598 169 L 598 169 L 599 168 L 600 168 L 601 168 L 601 167 L 602 167 L 602 167 L 605 166 L 605 166 L 605 165 L 606 165 L 607 165 L 609 164 L 612 164 L 615 164 L 615 163 L 615 163 L 616 163 L 618 162 L 620 162 L 620 161 L 620 161 L 620 161 L 621 160 L 622 160 L 625 160 L 626 159 L 626 159 L 626 159 L 628 158 L 628 158 L 628 158 L 629 157 L 631 157 L 635 156 L 635 156 L 639 156 L 639 155 L 640 155 L 643 155 L 644 154 L 647 154 L 648 154 L 650 153 L 651 153 L 651 153 L 651 152 L 652 152 L 652 151 L 652 151 L 653 151 L 653 150 L 653 150 L 654 150 L 654 149 L 654 149 L 655 149 L 656 148 L 657 148 L 661 148 L 662 147 L 666 147 L 669 146 L 669 146 L 670 146 L 670 145 L 673 145 L 673 145 L 674 144 L 674 144 L 674 144 L 675 143 L 675 143 L 675 142 L 675 142 L 676 142 L 676 141 L 676 141 L 676 141 L 676 140 L 677 140 L 677 140 L 678 139 L 679 139 L 679 139 L 680 138 L 681 138 L 681 137 L 681 137 L 682 137 L 683 136 L 685 136 L 686 136 L 686 135 L 686 135 L 686 135 L 687 134 L 687 134 L 687 134 L 688 133 L 690 133 L 693 132 L 695 132 L 696 132 L 698 131 L 701 131 L 705 131 L 705 130 L 708 130 L 712 130 L 712 129 L 712 129 L 717 128 L 718 128 L 719 128 L 719 127 L 719 127 L 728 127 L 728 126 L 729 126 L 729 126 L 730 125 L 730 125 L 731 125 L 731 124 L 732 124 L 733 123 L 733 123 L 733 123 L 734 122 L 734 122 L 734 122 L 734 121 L 734 121 L 734 121 L 734 120 L 736 120 L 737 120 L 738 119 L 739 119 L 739 118 L 740 118 L 740 118 L 741 117 L 741 117 L 742 117 L 742 116 L 743 116 L 743 116 L 744 115 L 745 115 L 746 115 L 746 114 L 747 114 L 748 113 L 748 113 L 748 113 L 749 112 L 749 112 L 749 112 L 750 111 L 750 111 L 751 111 L 751 110 L 752 110 L 753 109 L 753 109 L 753 109 L 753 108 L 753 108 L 754 108 L 754 107 L 754 107 L 756 107 L 756 106 L 756 106 L 756 106 L 757 105 L 757 105 L 757 104 L 757 104 L 757 104 L 758 103 L 758 103 L 758 103 L 758 102 L 758 102 L 761 102 L 762 101 L 764 101 L 764 101 L 764 100 L 764 100 L 765 99 L 766 99 L 767 99 L 767 98 L 770 98 L 772 98 L 773 97 L 774 97 L 775 97 L 775 96 L 776 96 L 776 95 L 776 95 L 777 95 L 777 94 L 777 94 L 777 94 L 777 93 L 777 93 L 777 93 L 777 92 L 777 92 L 778 92 L 778 91 L 778 91 L 778 90 L 779 90 L 779 90 L 779 89 L 780 89 L 782 89 L 782 88 L 782 88 L 782 88 L 784 87 L 784 87 L 785 87 L 787 86 L 788 86 L 788 85 L 788 85 L 788 85 L 788 84 L 791 84 L 793 84 L 793 83 L 795 83 L 795 83 L 795 82 L 796 82 L 796 82 L 801 81 L 804 81 L 806 80 L 808 80 L 809 80 L 810 79 L 811 79 L 811 79 L 811 78 L 811 78 L 812 78 L 813 77 L 813 77 L 813 76 L 815 76 L 817 76 L 817 75 L 817 75 L 817 75 L 817 74 L 817 74 L 817 74 L 817 73 L 817 73 L 817 73 L 817 72 L 817 72 L 817 71 L 817 71 L 817 71 L 817 70 L 817 70 L 818 70 L 818 69 L 818 69 L 818 69 L 819 68 L 819 68 L 819 68 L 819 67 L 819 67 L 820 66 L 821 66 L 821 66 L 821 65 L 821 65 L 821 65 L 821 64 L 822 64 L 823 64 L 825 63 L 826 63 L 826 62 L 827 62 L 827 62 L 828 61 L 828 61 L 831 61 L 832 60 L 833 60 L 833 60 L 833 59 L 833 59 L 833 59 L 833 58 L 833 58 L 835 57 L 835 57 L 835 57 L 839 56 L 841 56 L 842 56 L 845 55 L 846 55 L 847 55 L 847 54 L 847 54 L 847 54 L 848 53 L 848 53 L 849 52 L 849 52 L 850 52 L 850 51 L 851 51 L 851 51 L 851 50 L 851 50 L 851 50 L 851 49 L 851 49 L 852 49 L 852 48 L 852 48 L 854 47 L 854 47 L 855 47 L 855 46 L 856 46 L 856 46 L 856 45 L 857 45 L 857 45 L 857 44 L 858 44 L 858 43 L 859 43 L 863 43 L 864 42 L 865 42 L 868 42 L 869 41 L 870 41 L 873 41 L 874 40 L 875 40 L 878 40 L 883 39 L 884 39 L 885 38 L 887 38 L 889 38 L 890 37 L 890 37 L 892 37 L 893 36 L 893 36 L 894 36 L 896 35 L 897 35 L 898 35 L 898 34 L 899 34 L 899 33 L 899 33 L 900 33 L 904 32 L 904 32 L 905 32 L 907 31 L 907 31 L 908 31 L 909 30 L 910 30 L 910 29 L 910 29 L 910 29 L 911 28 L 913 28 L 913 28 L 913 27 L 915 27 L 915 27 L 915 26 L 916 26 L 917 26 L 917 25 L 917 25 L 918 24 L 919 24 L 919 24 L 919 23 L 919 23 L 919 23 L 920 22 L 920 22 L 922 22 L 923 21 L 924 21 L 924 21 L 928 20 L 928 20 L 930 19 L 931 19 L 933 19 L 936 18 L 938 18 L 939 18 L 941 17 L 941 17 L 943 17 L 945 16 L 945 16" stroke-width="2" /><path d="M 58 345 L 61 345 L 75 344 L 76 344 L 76 344 L 76 343 L 76 343 L 76 343 L 76 342 L 76 342 L 76 342 L 76 341 L 76 341 L 76 340 L 76 340 L 76 340 L 76 339 L 77 339 L 77 339 L 77 338 L 78 338 L 78 338 L 79 337 L 80 337 L 80 337 L 80 336 L 80 336 L 81 335 L 83 335 L 83 335 L 84 334 L 85 334 L 90 334 L 90 333 L 90 333 L 90 333 L 90 332 L 93 332 L 94 332 L 95 331 L 97 331 L 100 330 L 102 330 L 108 330 L 110 329 L 114 329 L 118 329 L 119 328 L 133 328 L 134 328 L 134 327 L 135 327 L 136 326 L 136 326 L 136 326 L 136 325 L 136 325 L 136 325 L 136 324 L 136 324 L 136 324 L 136 323 L 136 323 L 136 323 L 137 322 L 137 322 L 137 321 L 137 321 L 137 321 L 137 320 L 137 320 L 137 320 L 137 319 L 137 319 L 137 319 L 137 318 L 137 318 L 137 318 L 137 317 L 137 317 L 137 316 L 137 316 L 137 316 L 137 315 L 137 315 L 137 315 L 137 314 L 137 314 L 137 314 L 137 313 L 137 313 L 137 313 L 137 312 L 137 312 L 137 311 L 137 311 L 137 311 L 137 310 L 137 310 L 137 310 L 138 309 L 138 309 L 138 309 L 138 308 L 138 308 L 139 307 L 139 307 L 139 307 L 139 306 L 139 306 L 139 306 L 139 305 L 139 305 L 139 305 L 139 304 L 139 304 L 139 304 L 139 303 L 139 303 L 139 302 L 139 302 L 139 302 L 140 301 L 140 301 L 141 301 L 141 300 L 141 300 L 144 300 L 144 299 L 144 299 L 145 299 L 145 298 L 148 298 L 150 297 L 150 297 L 152 297 L 153 296 L 155 296 L 155 296 L 155 295 L 158 295 L 158 295 L 159 294 L 160 294 L 160 293 L 161 293 L 161 293 L 161 292 L 162 292 L 163 292 L 164 291 L 164 291 L 164 291 L 165 290 L 165 290 L 166 290 L 167 289 L 168 289 L 170 288 L 171 288 L 172 288 L 173 287 L 173 287 L 173 287 L 175 286 L 180 286 L 181 286 L 182 285 L 187 285 L 187 285 L 187 284 L 187 284 L 188 283 L 189 283 L 190 283 L 191 282 L 192 282 L 198 282 L 200 281 L 201 281 L 203 281 L 205 280 L 205 280 L 206 280 L 210 279 L 216 279 L 222 278 L 222 278 L 222 278 L 223 277 L 223 277 L 224 277 L 232 276 L 236 276 L 236 276 L 239 275 L 240 275 L 240 274 L 249 274 L 249 274 L 250 273 L 250 273 L 252 273 L 254 272 L 255 272 L 257 272 L 258 271 L 260 271 L 265 271 L 265 270 L 266 270 L 266 269 L 267 269 L 267 269 L 270 268 L 275 268 L 286 268 L 290 267 L 292 267 L 293 267 L 294 266 L 295 266 L 295 266 L 295 265 L 295 265 L 295 264 L 295 264 L 295 264 L 295 263 L 296 263 L 296 263 L 296 262 L 296 262 L 296 262 L 296 261 L 296 261 L 298 260 L 299 260 L 299 260 L 299 259 L 299 259 L 300 259 L 300 258 L 300 258 L 300 258 L 300 257 L 300 257 L 300 257 L 301 256 L 302 256 L 302 255 L 302 255 L 302 255 L 303 254 L 303 254 L 304 254 L 304 253 L 304 253 L 304 253 L 305 252 L 305 252 L 305 252 L 306 251 L 307 251 L 308 250 L 309 250 L 311 250 L 311 249 L 312 249 L 312 249 L 312 248 L 312 248 L 312 248 L 314 247 L 314 247 L 316 247 L 316 246 L 317 246 L 318 245 L 320 245 L 320 245 L 322 244 L 323 244 L 323 244 L 324 243 L 324 243 L 328 243 L 329 242 L 329 242 L 332 241 L 334 241 L 338 241 L 338 240 L 339 240 L 340 240 L 340 239 L 340 239 L 343 239 L 345 238 L 346 238 L 346 238 L 347 237 L 349 237 L 349 236 L 349 236 L 349 236 L 349 235 L 350 235 L 350 235 L 351 234 L 351 234 L 351 234 L 352 233 L 356 233 L 361 233 L 361 232 L 361 232 L 364 231 L 365 231 L 366 231 L 367 230 L 368 230 L 369 230 L 369 229 L 369 229 L 369 229 L 369 228 L 369 228 L 369 227 L 370 227 L 370 227 L 370 226 L 373 226 L 373 226 L 373 225 L 373 225 L 373 225 L 373 224 L 373 224 L 373 224 L 374 223 L 374 223 L 374 222 L 374 222 L 374 222 L 377 221 L 380 221 L 380 221 L 381 220 L 391 220 L 392 220 L 395 219 L 397 219 L 403 219 L 405 218 L 407 218 L 407 217 L 407 217 L 407 217 L 408 216 L 408 216 L 408 216 L 409 215 L 410 215 L 417 215 L 419 214 L 422 214 L 428 214 L 432 213 L 435 213 L 438 212 L 442 212 L 442 212 L 451 211 L 459 211 L 459 211 L 466 210 L 466 210 L 471 210 L 472 209 L 474 209 L 474 208 L 475 208 L 475 208 L 478 207 L 479 207 L 481 207 L 485 206 L 485 206 L 486 206 L 487 205 L 490 205 L 493 205 L 494 204 L 497 204 L 501 203 L 502 203 L 502 203 L 503 202 L 504 202 L 505 202 L 508 201 L 510 201 L 513 201 L 515 200 L 515 200 L 520 200 L 521 199 L 523 199 L 527 198 L 528 198 L 532 198 L 533 197 L 533 197 L 534 197 L 535 196 L 537 196 L 537 196 L 539 195 L 542 195 L 543 194 L 543 194 L 543 194 L 550 193 L 550 193 L 551 193 L 551 192 L 552 192 L 552 192 L 552 191 L 553 191 L 553 191 L 555 190 L 555 190 L 557 189 L 557 189 L 558 189 L 558 188 L 559 188 L 559 188 L 560 187 L 560 187 L 560 187 L 561 186 L 561 186 L 561 186 L 561 185 L 562 185 L 564 184 L 564 184 L 564 184 L 565 183 L 565 183 L 566 183 L 567 182 L 568 182 L 568 182 L 569 181 L 571 181 L 571 181 L 571 180 L 572 180 L 574 179 L 574 179 L 574 179 L 574 178 L 574 178 L 575 178 L 575 177 L 575 177 L 576 177 L 576 176 L 579 176 L 580 175 L 582 175 L 582 175 L 584 174 L 586 174 L 586 174 L 588 173 L 591 173 L 593 173 L 595 172 L 596 172 L 596 172 L 596 171 L 596 171 L 597 170 L 597 170 L 597 170 L 598 169 L 598 169 L 598 169 L 599 168 L 600 168 L 601 168 L 601 167 L 602 167 L 602 167 L 605 166 L 605 166 L 605 165 L 606 165 L 607 165 L 609 164 L 612 164 L 615 164 L 615 163 L 615 163 L 616 163 L 618 162 L 620 162 L 620 161 L 620 161 L 620 161 L 621 160 L 622 160 L 625 160 L 626 159 L 626 159 L 626 159 L 628 158 L 628 158 L 628 158 L 629 157 L 631 157 L 635 156 L 635 156 L 639 156 L 639 155 L 640 155 L 643 155 L 644 154 L 647 154 L 648 154 L 650 153 L 651 153 L 651 153 L 651 152 L 652 152 L 652 151 L 652 151 L 653 151 L 653 150 L 653 150 L 654 150 L 654 149 L 654 149 L 655 149 L 656 148 L 657 148 L 661 148 L 662 147 L 666 147 L 669 146 L 669 146 L 670 146 L 670 145 L 673 145 L 673 145 L 674 144 L 674 144 L 674 144 L 675 143 L 675 143 L 675 142 L 675 142 L 676 142 L 676 141 L 676 141 L 676 141 L 676 140 L 677 140 L 677 140 L 678 139 L 679 139 L 679 139 L 680 138 L 681 138 L 681 137 L 681 137 L 682 137 L 683 136 L 685 136 L 686 136 L 686 135 L 686 135 L 686 135 L 687 134 L 687 134 L 687 134 L 688 133 L 690 133 L 693 132 L 695 132 L 696 132 L 698 131 L 701 131 L 705 131 L 705 130 L 708 130 L 712 130 L 712 129 L 712 129 L 717 128 L 718 128 L 719 128 L 719 127 L 719 127 L 728 127 L 728 126 L 729 126 L 729 126 L 730 125 L 730 125 L 731 125 L 731 124 L 732 124 L 733 123 L 733 123 L 733 123 L 734 122 L 734 122 L 734 122 L 734 121 L 734 121 L 734 121 L 734 120 L 736 120 L 737 120 L 738 119 L 739 119 L 739 118 L 740 118 L 740 118 L 741 117 L 741 117 L 742 117 L 742 116 L 743 116 L 743 116 L 744 115 L 745 115 L 746 115 L 746 114 L 747 114 L 748 113 L 748 113 L 748 113 L 749 112 L 749 112 L 749 112 L 750 111 L 750 111 L 751 111 L 751 110 L 752 110 L 753 109 L 753 109 L 753 109 L 753 108 L 753 108 L 754 108 L 754 107 L 754 107 L 756 107 L 756 106 L 756 106 L 756 106 L 757 105 L 757 105 L 757 104 L 757 104 L 757 104 L 758 103 L 758 103 L 758 103 L 758 102 L 758 102 L 761 102 L 762 101 L 764 101 L 764 101 L 764 100 L 764 100 L 765 99 L 766 99 L 767 99 L 767 98 L 770 98 L 772 98 L 773 97 L 774 97 L 775 97 L 775 96 L 776 96 L 776 95 L 776 95 L 777 95 L 777 94 L 777 94 L 777 94 L 777 93 L 777 93 L 777 93 L 777 92 L 777 92 L 778 92 L 778 91 L 778 91 L 778 90 L 779 90 L 779 90 L 779 89 L 780 89 L 782 89 L 782 88 L 782 88 L 782 88 L 784 87 L 784 87 L 785 87 L 787 86 L 788 86 L 788 85 L 788 85 L 788 85 L 788 84 L 791 84 L 793 84 L 793 83 L 795 83 L 795 83 L 795 82 L 796 82 L 796 82 L 801 81 L 804 81 L 806 80 L 808 80 L 809 80 L 810 79 L 811 79 L 811 79 L 811 78 L 811 78 L 812 78 L 813 77 L 813 77 L 813 76 L 815 76 L 817 76 L 817 75 L 817 75 L 817 75 L 817 74 L 817 74 L 817 74 L 817 73 L 817 73 L 817 73 L 817 72 L 817 72 L 817 71 L 817 71 L 817 71 L 817 70 L 817 70 L 818 70 L 818 69 L 818 69 L 818 69 L 819 68 L 819 68 L 819 68 L 819 67 L 819 67 L 820 66 L 821 66 L 821 66 L 821 65 L 821 65 L 821 65 L 821 64 L 822 64 L 823 64 L 825 63 L 826 63 L 826 62 L 827 62 L 827 62 L 828 61 L 828 61 L 831 61 L 832 60 L 833 60 L 833 60 L 833 59 L 833 59 L 833 59 L 833 58 L 833 58 L 835 57 L 835 57 L 835 57 L 839 56 L 841 56 L 842 56 L 845 55 L 846 55 L 847 55 L 847 54 L 847 54 L 847 54 L 848 53 L 848 53 L 849 52 L 849 52 L 850 52 L 850 51 L 851 51 L 851 51 L 851 50 L 851 50 L 851 50 L 851 49 L 851 49 L 852 49 L 852 48 L 852 48 L 854 47 L 854 47 L 855 47 L 855 46 L 856 46 L 856 46 L 856 45 L 857 45 L 857 45 L 857 44 L 858 44 L 858 43 L 859 43 L 863 43 L 864 42 L 865 42 L 868 42 L 869 41 L 870 41 L 873 41 L 874 40 L 875 40 L 878 40 L 883 39 L 884 39 L 885 38 L 887 38 L 889 38 L 890 37 L 890 37 L 892 37 L 893 36 L 893 36 L 894 36 L 896 35 L 897 35 L 898 35 L 898 34 L 899 34 L 899 33 L 899 33 L 900 33 L 904 32 L 904 32 L 905 32 L 907 31 L 907 31 L 908 31 L 909 30 L 910 30 L 910 29 L 910 29 L 910 29 L 911 28 L 913 28 L 913 28 L 913 27 L 915 27 L 915 27 L 915 26 L 916 26 L 917 26 L 917 25 L 917 25 L 918 24 L 919 24 L 919 24 L 919 23 L 919 23 L 919 23 L 920 22 L 920 22 L 922 22 L 923 21 L 924 21 L 924 21 L 928 20 L 928 20 L 930 19 L 931 19 L 933 19 L 936 18 L 938 18 L 939 18 L 941 17 L 941 17 L 943 17 L 945 16 L 945 16" stroke-width="2" class="series"></path><path stroke-width="2" d="M 945 346 L 945.000000 15.000000" /><path stroke-width="2" d="M 945 346 L 945.000000 15.000000"></path><path stroke-width="2" d="M 945 346 L 950 346" /><path stroke-width="2" d="M 945 346 L 950 346"></path><text xmlns="http://www.w3.org/2000/svg" x="955" y="352">0</text><path stroke-width="2" d="M 945 309 L 950 309" /><path stroke-width="2" d="M 945 309 L 950 309"></path><text xmlns="http://www.w3.org/2000/svg" x="955" y="315">103</text><path d="M 945 272 L 950 272" stroke-width="2" /><path stroke-width="2" d="M 945 272 L 950 272"></path><text xmlns="http://www.w3.org/2000/svg" x="955" y="278">205</text><path stroke-width="2" d="M 945 235 L 950 235" /><path stroke-width="2" d="M 945 235 L 950 235"></path><text xmlns="http://www.w3.org/2000/svg" x="955" y="241">307</text><path stroke-width="2" d="M 945 199 L 950 199" /><path stroke-width="2" d="M 945 199 L 950 199"></path><text xmlns="http://www.w3.org/2000/svg" x="955" y="205">409</text><path stroke-width="2" d="M 945 162 L 950 162" /><path stroke-width="2" d="M 945 162 L 950 162"></path><text xmlns="http://www.w3.org/2000/svg" x="955" y="168">512</text><path d="M 945 125 L 950 125" stroke-width="2" /><path stroke-width="2" d="M 945 125 L 950 125"></path><text xmlns="http://www.w3.org/2000/svg" x="955" y="131">614</text><path stroke-width="2" d="M 945 89 L 950 89" /><path stroke-width="2" d="M 945 89 L 950 89"></path><text xmlns="http://www.w3.org/2000/svg" x="955" y="95">716</text><path stroke-width="2" d="M 945 52 L 950 52" /><path stroke-width="2" d="M 945 52 L 950 52"></path><text xmlns="http://www.w3.org/2000/svg" x="955" y="58">818</text><path stroke-width="2" d="M 945 16 L 950 16" /><path stroke-width="2" d="M 945 16 L 950 16"></path><text y="22" xmlns="http://www.w3.org/2000/svg" x="955">920</text><text transform="rotate(90.00,987,175)" xmlns="http://www.w3.org/2000/svg" x="987" y="175">Stargazers</text><path stroke-width="2" d="M 57.000000 346.000000 L 945 346" /><path stroke-width="2" d="M 57.000000 346.000000 L 945 346"></path><path stroke-width="2" d="M 58 346 L 58 351" /><path stroke-width="2" d="M 58 346 L 58 351"></path><text xmlns="http://www.w3.org/2000/svg" x="25" y="368">2023-04-02</text><path stroke-width="2" d="M 157 346 L 157 351" /><path stroke-width="2" d="M 157 346 L 157 351"></path><text xmlns="http://www.w3.org/2000/svg" x="124" y="368">2023-06-22</text><path d="M 256 346 L 256 351" stroke-width="2" /><path stroke-width="2" d="M 256 346 L 256 351"></path><text xmlns="http://www.w3.org/2000/svg" x="223" y="368">2023-09-12</text><path stroke-width="2" d="M 354 346 L 354 351" /><path stroke-width="2" d="M 354 346 L 354 351"></path><text y="368" xmlns="http://www.w3.org/2000/svg" x="321">2023-12-03</text><path stroke-width="2" d="M 453 346 L 453 351" /><path stroke-width="2" d="M 453 346 L 453 351"></path><text y="368" xmlns="http://www.w3.org/2000/svg" x="420">2024-02-22</text><path stroke-width="2" d="M 551 346 L 551 351" /><path stroke-width="2" d="M 551 346 L 551 351"></path><text xmlns="http://www.w3.org/2000/svg" x="518" y="368">2024-05-14</text><path stroke-width="2" d="M 650 346 L 650 351" /><path stroke-width="2" d="M 650 346 L 650 351"></path><text xmlns="http://www.w3.org/2000/svg" x="617" y="368">2024-08-03</text><path d="M 748 346 L 748 351" stroke-width="2" /><path d="M 748 346 L 748 351" stroke-width="2"></path><text xmlns="http://www.w3.org/2000/svg" x="715" y="368">2024-10-24</text><path stroke-width="2" d="M 847 346 L 847 351" /><path d="M 847 346 L 847 351" stroke-width="2"></path><text xmlns="http://www.w3.org/2000/svg" x="814" y="368">2025-01-13</text><path stroke-width="2" d="M 945 346 L 945 351" /><path stroke-width="2" d="M 945 346 L 945 351"></path><text xmlns="http://www.w3.org/2000/svg" x="912" y="368">2025-04-05</text><text x="487" y="390" xmlns="http://www.w3.org/2000/svg">Time</text></svg>