<svg xmlns="http://www.w3.org/2000/svg" xmlns:xlink="http://www.w3.org/1999/xlink" width="1024px" height="400px"><style type="text/css">
path { fill: none; stroke: rgb(51,51,51); }
path.series { stroke: #6b63ff; }
rect.background { fill: rgb(255,255,255); stroke: none; }

text {
	stroke-width: 0;
	stroke: none;
	fill: rgba(51,51,51,1.0);
	font-size: 12.8px;
	font-family: 'Roboto Medium', sans-serif;
}
</style><rect x="0" y="0" width="1024px" height="400px" class="background" rx="8" /><rect x="0" y="0" width="1024px" height="400px" class="background" rx="8"></rect><path stroke-width="2" class="series" d="M 58 345 L 61 345 L 79 344 L 80 344 L 80 343 L 80 343 L 80 342 L 80 342 L 80 341 L 80 341 L 81 340 L 81 340 L 81 339 L 81 339 L 81 338 L 81 338 L 81 337 L 81 337 L 81 337 L 82 336 L 83 336 L 83 335 L 84 335 L 85 334 L 85 334 L 85 333 L 86 333 L 87 332 L 89 332 L 89 331 L 90 331 L 92 330 L 98 330 L 98 329 L 98 329 L 98 329 L 98 328 L 98 328 L 101 327 L 103 327 L 104 326 L 106 326 L 111 325 L 113 325 L 121 324 L 123 324 L 128 323 L 132 323 L 134 322 L 152 322 L 152 321 L 153 321 L 155 321 L 155 320 L 155 320 L 155 319 L 155 319 L 155 318 L 155 318 L 155 317 L 155 317 L 156 316 L 156 316 L 156 315 L 156 315 L 156 314 L 156 314 L 156 313 L 156 313 L 156 313 L 156 312 L 156 312 L 156 311 L 156 311 L 156 310 L 156 310 L 156 309 L 156 309 L 156 308 L 156 308 L 156 307 L 156 307 L 157 306 L 157 306 L 157 305 L 157 305 L 157 304 L 157 304 L 157 304 L 157 303 L 157 303 L 157 302 L 157 302 L 157 301 L 157 301 L 157 300 L 157 300 L 157 299 L 157 299 L 157 298 L 157 298 L 158 297 L 158 297 L 158 296 L 158 296 L 158 296 L 159 295 L 159 295 L 159 294 L 159 294 L 159 293 L 159 293 L 159 292 L 159 292 L 159 291 L 159 291 L 159 290 L 159 290 L 159 289 L 159 289 L 159 288 L 159 288 L 160 288 L 160 287 L 161 287 L 161 286 L 161 286 L 161 285 L 165 285 L 166 284 L 166 284 L 167 283 L 167 283 L 170 282 L 173 282 L 174 281 L 176 281 L 177 280 L 179 280 L 179 280 L 180 279 L 183 279 L 183 278 L 184 278 L 185 277 L 186 277 L 187 276 L 187 276 L 187 275 L 188 275 L 189 274 L 190 274 L 190 273 L 191 273 L 192 272 L 192 272 L 193 271 L 195 271 L 196 271 L 199 270 L 200 270 L 200 269 L 202 269 L 202 268 L 202 268 L 204 267 L 211 267 L 211 266 L 213 266 L 220 265 L 220 265 L 220 264 L 220 264 L 220 263 L 221 263 L 224 263 L 225 262 L 225 262 L 234 261 L 235 261 L 237 260 L 240 260 L 242 259 L 242 259 L 243 258 L 249 258 L 255 257 L 263 257 L 264 256 L 264 256 L 264 255 L 264 255 L 266 255 L 276 254 L 281 254 L 281 253 L 285 253 L 286 252 L 286 252 L 298 251 L 298 251 L 298 250 L 299 250 L 300 249 L 303 249 L 305 248 L 307 248 L 309 247 L 311 247 L 317 247 L 318 246 L 319 246 L 319 245 L 319 245 L 320 244 L 323 244 L 329 243 L 343 243 L 349 242 L 351 242 L 352 241 L 354 241 L 355 240 L 355 240 L 355 239 L 355 239 L 355 238 L 355 238 L 355 238 L 355 237 L 355 237 L 355 236 L 355 236 L 356 235 L 356 235 L 356 234 L 356 234 L 359 233 L 359 233 L 359 232 L 359 232 L 359 231 L 361 231 L 361 230 L 361 230 L 361 230 L 361 229 L 361 229 L 361 228 L 362 228 L 363 227 L 364 227 L 364 226 L 364 226 L 364 225 L 364 225 L 365 224 L 366 224 L 366 223 L 366 223 L 367 222 L 367 222 L 367 222 L 368 221 L 370 221 L 370 220 L 372 220 L 375 219 L 375 219 L 376 218 L 376 218 L 376 217 L 376 217 L 376 216 L 378 216 L 379 215 L 381 215 L 381 214 L 382 214 L 384 214 L 386 213 L 386 213 L 389 212 L 389 212 L 390 211 L 391 211 L 391 210 L 396 210 L 397 209 L 398 209 L 402 208 L 404 208 L 408 207 L 409 207 L 409 206 L 411 206 L 411 205 L 411 205 L 414 205 L 417 204 L 419 204 L 419 203 L 420 203 L 422 202 L 422 202 L 422 201 L 422 201 L 423 200 L 423 200 L 423 199 L 425 199 L 425 198 L 425 198 L 426 197 L 431 197 L 437 197 L 437 196 L 437 196 L 441 195 L 443 195 L 444 194 L 444 194 L 446 193 L 447 193 L 447 192 L 447 192 L 447 191 L 447 191 L 448 190 L 448 190 L 448 189 L 448 189 L 449 189 L 452 188 L 452 188 L 452 187 L 452 187 L 452 186 L 453 186 L 453 185 L 453 185 L 453 184 L 453 184 L 453 183 L 453 183 L 453 182 L 458 182 L 461 181 L 461 181 L 462 181 L 474 180 L 476 180 L 479 179 L 482 179 L 490 178 L 492 178 L 495 177 L 495 177 L 495 176 L 495 176 L 496 175 L 496 175 L 496 174 L 496 174 L 497 173 L 498 173 L 508 172 L 510 172 L 514 172 L 521 171 L 526 171 L 530 170 L 533 170 L 539 169 L 539 169 L 550 168 L 561 168 L 561 167 L 568 167 L 569 166 L 575 166 L 576 165 L 579 165 L 579 164 L 580 164 L 580 164 L 584 163 L 585 163 L 588 162 L 592 162 L 593 161 L 594 161 L 595 160 L 599 160 L 603 159 L 603 159 L 608 158 L 613 158 L 613 157 L 614 157 L 616 156 L 617 156 L 618 156 L 621 155 L 625 155 L 628 154 L 630 154 L 630 153 L 636 153 L 637 152 L 641 152 L 646 151 L 646 151 L 652 150 L 653 150 L 653 149 L 654 149 L 655 148 L 658 148 L 658 148 L 660 147 L 664 147 L 665 146 L 665 146 L 665 145 L 674 145 L 675 144 L 675 144 L 676 143 L 676 143 L 677 142 L 677 142 L 678 141 L 678 141 L 680 140 L 680 140 L 682 139 L 683 139 L 684 139 L 684 138 L 685 138 L 685 137 L 686 137 L 687 136 L 687 136 L 687 135 L 688 135 L 688 134 L 688 134 L 689 133 L 691 133 L 691 132 L 692 132 L 692 131 L 693 131 L 694 131 L 696 130 L 696 130 L 697 129 L 698 129 L 700 128 L 700 128 L 701 127 L 701 127 L 704 126 L 704 126 L 704 125 L 704 125 L 704 124 L 705 124 L 705 123 L 706 123 L 706 123 L 707 122 L 711 122 L 712 121 L 714 121 L 714 120 L 717 120 L 719 119 L 719 119 L 722 118 L 725 118 L 728 117 L 730 117 L 731 116 L 731 116 L 732 115 L 732 115 L 733 115 L 733 114 L 733 114 L 734 113 L 734 113 L 735 112 L 735 112 L 737 111 L 738 111 L 738 110 L 739 110 L 739 109 L 742 109 L 743 108 L 743 108 L 744 107 L 745 107 L 748 106 L 751 106 L 756 106 L 756 105 L 756 105 L 756 104 L 759 104 L 761 103 L 762 103 L 762 102 L 762 102 L 763 101 L 765 101 L 768 100 L 769 100 L 769 99 L 769 99 L 771 98 L 772 98 L 772 98 L 772 97 L 772 97 L 776 96 L 780 96 L 780 95 L 785 95 L 785 94 L 786 94 L 790 93 L 792 93 L 795 92 L 797 92 L 799 91 L 800 91 L 800 90 L 801 90 L 801 90 L 801 89 L 801 89 L 803 88 L 803 88 L 803 87 L 804 87 L 804 86 L 804 86 L 806 85 L 807 85 L 807 84 L 813 84 L 814 83 L 820 83 L 822 82 L 823 82 L 824 82 L 824 81 L 827 81 L 828 80 L 829 80 L 829 79 L 830 79 L 830 78 L 830 78 L 830 77 L 830 77 L 831 76 L 831 76 L 831 75 L 831 75 L 832 74 L 833 74 L 833 73 L 833 73 L 835 73 L 835 72 L 836 72 L 837 71 L 838 71 L 838 70 L 838 70 L 839 69 L 840 69 L 844 68 L 844 68 L 844 67 L 844 67 L 844 66 L 845 66 L 845 65 L 845 65 L 847 65 L 849 64 L 853 64 L 856 63 L 857 63 L 859 62 L 863 62 L 868 61 L 868 61 L 871 60 L 877 60 L 877 59 L 877 59 L 883 58 L 884 58 L 885 57 L 886 57 L 886 57 L 896 56 L 897 56 L 898 55 L 898 55 L 899 54 L 899 54 L 901 53 L 901 53 L 901 52 L 903 52 L 903 51 L 903 51 L 904 50 L 904 50 L 904 49 L 904 49 L 905 49 L 905 48 L 905 48 L 906 47 L 907 47 L 909 46 L 909 46 L 910 45 L 910 45 L 910 44 L 911 44 L 912 43 L 913 43 L 914 42 L 915 42 L 915 41 L 915 41 L 915 40 L 917 40 L 918 40 L 919 39 L 919 39 L 921 38 L 922 38 L 922 37 L 922 37 L 923 36 L 923 36 L 924 35 L 924 35 L 924 34 L 926 34 L 926 33 L 927 33 L 928 32 L 928 32 L 928 32 L 928 31 L 929 31 L 930 30 L 930 30 L 930 29 L 931 29 L 932 28 L 932 28 L 932 27 L 933 27 L 933 26 L 933 26 L 933 25 L 933 25 L 934 24 L 934 24 L 934 24 L 934 23 L 935 23 L 938 22 L 939 22 L 942 21 L 942 21 L 942 20 L 942 20 L 944 19 L 945 19 L 945 18" /><path stroke-width="2" class="series" d="M 58 345 L 61 345 L 79 344 L 80 344 L 80 343 L 80 343 L 80 342 L 80 342 L 80 341 L 80 341 L 81 340 L 81 340 L 81 339 L 81 339 L 81 338 L 81 338 L 81 337 L 81 337 L 81 337 L 82 336 L 83 336 L 83 335 L 84 335 L 85 334 L 85 334 L 85 333 L 86 333 L 87 332 L 89 332 L 89 331 L 90 331 L 92 330 L 98 330 L 98 329 L 98 329 L 98 329 L 98 328 L 98 328 L 101 327 L 103 327 L 104 326 L 106 326 L 111 325 L 113 325 L 121 324 L 123 324 L 128 323 L 132 323 L 134 322 L 152 322 L 152 321 L 153 321 L 155 321 L 155 320 L 155 320 L 155 319 L 155 319 L 155 318 L 155 318 L 155 317 L 155 317 L 156 316 L 156 316 L 156 315 L 156 315 L 156 314 L 156 314 L 156 313 L 156 313 L 156 313 L 156 312 L 156 312 L 156 311 L 156 311 L 156 310 L 156 310 L 156 309 L 156 309 L 156 308 L 156 308 L 156 307 L 156 307 L 157 306 L 157 306 L 157 305 L 157 305 L 157 304 L 157 304 L 157 304 L 157 303 L 157 303 L 157 302 L 157 302 L 157 301 L 157 301 L 157 300 L 157 300 L 157 299 L 157 299 L 157 298 L 157 298 L 158 297 L 158 297 L 158 296 L 158 296 L 158 296 L 159 295 L 159 295 L 159 294 L 159 294 L 159 293 L 159 293 L 159 292 L 159 292 L 159 291 L 159 291 L 159 290 L 159 290 L 159 289 L 159 289 L 159 288 L 159 288 L 160 288 L 160 287 L 161 287 L 161 286 L 161 286 L 161 285 L 165 285 L 166 284 L 166 284 L 167 283 L 167 283 L 170 282 L 173 282 L 174 281 L 176 281 L 177 280 L 179 280 L 179 280 L 180 279 L 183 279 L 183 278 L 184 278 L 185 277 L 186 277 L 187 276 L 187 276 L 187 275 L 188 275 L 189 274 L 190 274 L 190 273 L 191 273 L 192 272 L 192 272 L 193 271 L 195 271 L 196 271 L 199 270 L 200 270 L 200 269 L 202 269 L 202 268 L 202 268 L 204 267 L 211 267 L 211 266 L 213 266 L 220 265 L 220 265 L 220 264 L 220 264 L 220 263 L 221 263 L 224 263 L 225 262 L 225 262 L 234 261 L 235 261 L 237 260 L 240 260 L 242 259 L 242 259 L 243 258 L 249 258 L 255 257 L 263 257 L 264 256 L 264 256 L 264 255 L 264 255 L 266 255 L 276 254 L 281 254 L 281 253 L 285 253 L 286 252 L 286 252 L 298 251 L 298 251 L 298 250 L 299 250 L 300 249 L 303 249 L 305 248 L 307 248 L 309 247 L 311 247 L 317 247 L 318 246 L 319 246 L 319 245 L 319 245 L 320 244 L 323 244 L 329 243 L 343 243 L 349 242 L 351 242 L 352 241 L 354 241 L 355 240 L 355 240 L 355 239 L 355 239 L 355 238 L 355 238 L 355 238 L 355 237 L 355 237 L 355 236 L 355 236 L 356 235 L 356 235 L 356 234 L 356 234 L 359 233 L 359 233 L 359 232 L 359 232 L 359 231 L 361 231 L 361 230 L 361 230 L 361 230 L 361 229 L 361 229 L 361 228 L 362 228 L 363 227 L 364 227 L 364 226 L 364 226 L 364 225 L 364 225 L 365 224 L 366 224 L 366 223 L 366 223 L 367 222 L 367 222 L 367 222 L 368 221 L 370 221 L 370 220 L 372 220 L 375 219 L 375 219 L 376 218 L 376 218 L 376 217 L 376 217 L 376 216 L 378 216 L 379 215 L 381 215 L 381 214 L 382 214 L 384 214 L 386 213 L 386 213 L 389 212 L 389 212 L 390 211 L 391 211 L 391 210 L 396 210 L 397 209 L 398 209 L 402 208 L 404 208 L 408 207 L 409 207 L 409 206 L 411 206 L 411 205 L 411 205 L 414 205 L 417 204 L 419 204 L 419 203 L 420 203 L 422 202 L 422 202 L 422 201 L 422 201 L 423 200 L 423 200 L 423 199 L 425 199 L 425 198 L 425 198 L 426 197 L 431 197 L 437 197 L 437 196 L 437 196 L 441 195 L 443 195 L 444 194 L 444 194 L 446 193 L 447 193 L 447 192 L 447 192 L 447 191 L 447 191 L 448 190 L 448 190 L 448 189 L 448 189 L 449 189 L 452 188 L 452 188 L 452 187 L 452 187 L 452 186 L 453 186 L 453 185 L 453 185 L 453 184 L 453 184 L 453 183 L 453 183 L 453 182 L 458 182 L 461 181 L 461 181 L 462 181 L 474 180 L 476 180 L 479 179 L 482 179 L 490 178 L 492 178 L 495 177 L 495 177 L 495 176 L 495 176 L 496 175 L 496 175 L 496 174 L 496 174 L 497 173 L 498 173 L 508 172 L 510 172 L 514 172 L 521 171 L 526 171 L 530 170 L 533 170 L 539 169 L 539 169 L 550 168 L 561 168 L 561 167 L 568 167 L 569 166 L 575 166 L 576 165 L 579 165 L 579 164 L 580 164 L 580 164 L 584 163 L 585 163 L 588 162 L 592 162 L 593 161 L 594 161 L 595 160 L 599 160 L 603 159 L 603 159 L 608 158 L 613 158 L 613 157 L 614 157 L 616 156 L 617 156 L 618 156 L 621 155 L 625 155 L 628 154 L 630 154 L 630 153 L 636 153 L 637 152 L 641 152 L 646 151 L 646 151 L 652 150 L 653 150 L 653 149 L 654 149 L 655 148 L 658 148 L 658 148 L 660 147 L 664 147 L 665 146 L 665 146 L 665 145 L 674 145 L 675 144 L 675 144 L 676 143 L 676 143 L 677 142 L 677 142 L 678 141 L 678 141 L 680 140 L 680 140 L 682 139 L 683 139 L 684 139 L 684 138 L 685 138 L 685 137 L 686 137 L 687 136 L 687 136 L 687 135 L 688 135 L 688 134 L 688 134 L 689 133 L 691 133 L 691 132 L 692 132 L 692 131 L 693 131 L 694 131 L 696 130 L 696 130 L 697 129 L 698 129 L 700 128 L 700 128 L 701 127 L 701 127 L 704 126 L 704 126 L 704 125 L 704 125 L 704 124 L 705 124 L 705 123 L 706 123 L 706 123 L 707 122 L 711 122 L 712 121 L 714 121 L 714 120 L 717 120 L 719 119 L 719 119 L 722 118 L 725 118 L 728 117 L 730 117 L 731 116 L 731 116 L 732 115 L 732 115 L 733 115 L 733 114 L 733 114 L 734 113 L 734 113 L 735 112 L 735 112 L 737 111 L 738 111 L 738 110 L 739 110 L 739 109 L 742 109 L 743 108 L 743 108 L 744 107 L 745 107 L 748 106 L 751 106 L 756 106 L 756 105 L 756 105 L 756 104 L 759 104 L 761 103 L 762 103 L 762 102 L 762 102 L 763 101 L 765 101 L 768 100 L 769 100 L 769 99 L 769 99 L 771 98 L 772 98 L 772 98 L 772 97 L 772 97 L 776 96 L 780 96 L 780 95 L 785 95 L 785 94 L 786 94 L 790 93 L 792 93 L 795 92 L 797 92 L 799 91 L 800 91 L 800 90 L 801 90 L 801 90 L 801 89 L 801 89 L 803 88 L 803 88 L 803 87 L 804 87 L 804 86 L 804 86 L 806 85 L 807 85 L 807 84 L 813 84 L 814 83 L 820 83 L 822 82 L 823 82 L 824 82 L 824 81 L 827 81 L 828 80 L 829 80 L 829 79 L 830 79 L 830 78 L 830 78 L 830 77 L 830 77 L 831 76 L 831 76 L 831 75 L 831 75 L 832 74 L 833 74 L 833 73 L 833 73 L 835 73 L 835 72 L 836 72 L 837 71 L 838 71 L 838 70 L 838 70 L 839 69 L 840 69 L 844 68 L 844 68 L 844 67 L 844 67 L 844 66 L 845 66 L 845 65 L 845 65 L 847 65 L 849 64 L 853 64 L 856 63 L 857 63 L 859 62 L 863 62 L 868 61 L 868 61 L 871 60 L 877 60 L 877 59 L 877 59 L 883 58 L 884 58 L 885 57 L 886 57 L 886 57 L 896 56 L 897 56 L 898 55 L 898 55 L 899 54 L 899 54 L 901 53 L 901 53 L 901 52 L 903 52 L 903 51 L 903 51 L 904 50 L 904 50 L 904 49 L 904 49 L 905 49 L 905 48 L 905 48 L 906 47 L 907 47 L 909 46 L 909 46 L 910 45 L 910 45 L 910 44 L 911 44 L 912 43 L 913 43 L 914 42 L 915 42 L 915 41 L 915 41 L 915 40 L 917 40 L 918 40 L 919 39 L 919 39 L 921 38 L 922 38 L 922 37 L 922 37 L 923 36 L 923 36 L 924 35 L 924 35 L 924 34 L 926 34 L 926 33 L 927 33 L 928 32 L 928 32 L 928 32 L 928 31 L 929 31 L 930 30 L 930 30 L 930 29 L 931 29 L 932 28 L 932 28 L 932 27 L 933 27 L 933 26 L 933 26 L 933 25 L 933 25 L 934 24 L 934 24 L 934 24 L 934 23 L 935 23 L 938 22 L 939 22 L 942 21 L 942 21 L 942 20 L 942 20 L 944 19 L 945 19 L 945 18"></path><path d="M 945 346 L 945.000000 15.000000" stroke-width="2" /><path stroke-width="2" d="M 945 346 L 945.000000 15.000000"></path><path stroke-width="2" d="M 945 346 L 950 346" /><path stroke-width="2" d="M 945 346 L 950 346"></path><text xmlns="http://www.w3.org/2000/svg" x="955" y="352">0</text><path stroke-width="2" d="M 945 309 L 950 309" /><path d="M 945 309 L 950 309" stroke-width="2"></path><text xmlns="http://www.w3.org/2000/svg" x="955" y="315">78</text><path stroke-width="2" d="M 945 272 L 950 272" /><path d="M 945 272 L 950 272" stroke-width="2"></path><text xmlns="http://www.w3.org/2000/svg" x="955" y="278">156</text><path stroke-width="2" d="M 945 235 L 950 235" /><path stroke-width="2" d="M 945 235 L 950 235"></path><text xmlns="http://www.w3.org/2000/svg" x="955" y="241">234</text><path stroke-width="2" d="M 945 198 L 950 198" /><path stroke-width="2" d="M 945 198 L 950 198"></path><text xmlns="http://www.w3.org/2000/svg" x="955" y="204">312</text><path stroke-width="2" d="M 945 162 L 950 162" /><path stroke-width="2" d="M 945 162 L 950 162"></path><text xmlns="http://www.w3.org/2000/svg" x="955" y="168">389</text><path stroke-width="2" d="M 945 125 L 950 125" /><path d="M 945 125 L 950 125" stroke-width="2"></path><text xmlns="http://www.w3.org/2000/svg" x="955" y="131">467</text><path stroke-width="2" d="M 945 89 L 950 89" /><path stroke-width="2" d="M 945 89 L 950 89"></path><text y="95" xmlns="http://www.w3.org/2000/svg" x="955">545</text><path stroke-width="2" d="M 945 52 L 950 52" /><path stroke-width="2" d="M 945 52 L 950 52"></path><text x="955" y="58" xmlns="http://www.w3.org/2000/svg">623</text><path stroke-width="2" d="M 945 16 L 950 16" /><path stroke-width="2" d="M 945 16 L 950 16"></path><text xmlns="http://www.w3.org/2000/svg" x="955" y="22">700</text><text xmlns="http://www.w3.org/2000/svg" x="987" y="175" transform="rotate(90.00,987,175)">Stargazers</text><path stroke-width="2" d="M 57.000000 346.000000 L 945 346" /><path stroke-width="2" d="M 57.000000 346.000000 L 945 346"></path><path stroke-width="2" d="M 58 346 L 58 351" /><path stroke-width="2" d="M 58 346 L 58 351"></path><text y="368" xmlns="http://www.w3.org/2000/svg" x="25">2023-04-02</text><path stroke-width="2" d="M 157 346 L 157 351" /><path stroke-width="2" d="M 157 346 L 157 351"></path><text xmlns="http://www.w3.org/2000/svg" x="124" y="368">2023-06-06</text><path stroke-width="2" d="M 256 346 L 256 351" /><path stroke-width="2" d="M 256 346 L 256 351"></path><text x="223" y="368" xmlns="http://www.w3.org/2000/svg">2023-08-10</text><path stroke-width="2" d="M 354 346 L 354 351" /><path stroke-width="2" d="M 354 346 L 354 351"></path><text x="321" y="368" xmlns="http://www.w3.org/2000/svg">2023-10-14</text><path stroke-width="2" d="M 453 346 L 453 351" /><path stroke-width="2" d="M 453 346 L 453 351"></path><text x="420" y="368" xmlns="http://www.w3.org/2000/svg">2023-12-18</text><path stroke-width="2" d="M 551 346 L 551 351" /><path stroke-width="2" d="M 551 346 L 551 351"></path><text xmlns="http://www.w3.org/2000/svg" x="518" y="368">2024-02-22</text><path stroke-width="2" d="M 650 346 L 650 351" /><path stroke-width="2" d="M 650 346 L 650 351"></path><text xmlns="http://www.w3.org/2000/svg" x="617" y="368">2024-04-27</text><path stroke-width="2" d="M 748 346 L 748 351" /><path d="M 748 346 L 748 351" stroke-width="2"></path><text xmlns="http://www.w3.org/2000/svg" x="715" y="368">2024-07-01</text><path d="M 847 346 L 847 351" stroke-width="2" /><path stroke-width="2" d="M 847 346 L 847 351"></path><text x="814" y="368" xmlns="http://www.w3.org/2000/svg">2024-09-04</text><path stroke-width="2" d="M 945 346 L 945 351" /><path stroke-width="2" d="M 945 346 L 945 351"></path><text xmlns="http://www.w3.org/2000/svg" x="912" y="368">2024-11-08</text><text y="390" xmlns="http://www.w3.org/2000/svg" x="487">Time</text></svg>