<svg xmlns="http://www.w3.org/2000/svg" xmlns:xlink="http://www.w3.org/1999/xlink" width="1024px" height="400px"><style type="text/css">
path { fill: none; stroke: rgb(51,51,51); }
path.series { stroke: #6b63ff; }
rect.background { fill: rgb(255,255,255); stroke: none; }

text {
	stroke-width: 0;
	stroke: none;
	fill: rgba(51,51,51,1.0);
	font-size: 12.8px;
	font-family: 'Roboto Medium', sans-serif;
}
</style><rect x="0" y="0" width="1024px" height="400px" class="background" rx="8" /><rect x="0" y="0" width="1024px" height="400px" class="background" rx="8"></rect><path stroke-width="2" class="series" d="M 58 345 L 63 344 L 91 343 L 92 342 L 92 342 L 92 341 L 92 340 L 92 339 L 92 338 L 92 338 L 93 337 L 93 336 L 93 335 L 93 335 L 93 334 L 93 333 L 93 332 L 93 331 L 94 331 L 94 330 L 96 329 L 96 328 L 97 327 L 99 327 L 100 326 L 100 325 L 100 324 L 101 324 L 103 323 L 106 322 L 106 321 L 108 320 L 110 320 L 119 319 L 119 318 L 119 317 L 120 316 L 120 316 L 120 315 L 125 314 L 127 313 L 129 313 L 133 312 L 140 311 L 143 310 L 156 309 L 160 309 L 167 308 L 174 307 L 177 306 L 204 305 L 205 305 L 205 304 L 209 303 L 210 302 L 210 302 L 210 301 L 210 300 L 210 299 L 210 298 L 210 298 L 210 297 L 210 296 L 210 295 L 210 294 L 210 294 L 211 293 L 211 292 L 211 291 L 211 291 L 211 290 L 211 289 L 211 288 L 211 287 L 211 287 L 211 286 L 211 285 L 211 284 L 211 283 L 211 283 L 211 282 L 211 281 L 211 280 L 211 280 L 211 279 L 211 278 L 211 277 L 211 276 L 211 276 L 211 275 L 211 274 L 212 273 L 212 272 L 212 272 L 212 271 L 212 270 L 212 269 L 212 269 L 212 268 L 212 267 L 212 266 L 213 265 L 213 265 L 213 264 L 213 263 L 214 262 L 214 261 L 216 261 L 216 260 L 216 259 L 216 258 L 216 258 L 216 257 L 216 256 L 216 255 L 216 254 L 216 254 L 216 253 L 216 252 L 216 251 L 216 250 L 216 250 L 216 249 L 216 248 L 217 247 L 219 247 L 219 246 L 219 245 L 219 244 L 225 243 L 226 243 L 226 242 L 228 241 L 228 240 L 232 239 L 237 239 L 238 238 L 242 237 L 243 236 L 246 236 L 247 235 L 248 234 L 252 233 L 252 232 L 254 232 L 256 231 L 257 230 L 259 229 L 259 228 L 259 228 L 260 227 L 262 226 L 264 225 L 264 225 L 265 224 L 266 223 L 266 222 L 268 221 L 271 221 L 273 220 L 277 219 L 278 218 L 280 217 L 282 217 L 282 216 L 282 215 L 285 214 L 296 214 L 297 213 L 299 212 L 310 211 L 310 210 L 310 210 L 310 209 L 311 208 L 312 207 L 316 206 L 318 206 L 318 205 L 331 204 L 334 203 L 337 203 L 341 202 L 344 201 L 344 200 L 346 199 L 355 199 L 365 198 L 377 197 L 378 196 L 378 195 L 379 195 L 379 194 L 382 193 L 398 192 L 405 192 L 406 191 L 412 190 L 413 189 L 414 188 L 431 188 L 431 187 L 433 186 L 433 185 L 436 184 L 440 184 L 442 183 L 446 182 L 448 181 L 452 181 L 462 180 L 462 179 L 464 178 L 464 177 L 465 177 L 466 176 L 471 175 L 481 174 L 502 173 L 511 173 L 511 172 L 515 171 L 516 170 L 518 170 L 521 169 L 521 168 L 521 167 L 521 166 L 521 166 L 521 165 L 521 164 L 521 163 L 521 162 L 521 162 L 521 161 L 522 160 L 522 159 L 522 159 L 523 158 L 524 157 L 526 156 L 527 155 L 527 155 L 527 154 L 528 153 L 530 152 L 530 151 L 530 151 L 530 150 L 530 149 L 531 148 L 531 148 L 532 147 L 533 146 L 534 145 L 535 144 L 535 144 L 535 143 L 535 142 L 537 141 L 537 140 L 537 140 L 537 139 L 539 138 L 539 137 L 540 137 L 542 136 L 544 135 L 545 134 L 548 133 L 552 133 L 552 132 L 553 131 L 553 130 L 553 129 L 554 129 L 554 128 L 557 127 L 558 126 L 561 126 L 561 125 L 563 124 L 566 123 L 569 122 L 569 122 L 573 121 L 574 120 L 575 119 L 577 118 L 577 118 L 585 117 L 586 116 L 587 115 L 593 115 L 597 114 L 603 113 L 605 112 L 605 111 L 607 111 L 608 110 L 608 109 L 613 108 L 617 107 L 620 107 L 620 106 L 623 105 L 625 104 L 625 104 L 625 103 L 625 102 L 626 101 L 627 100 L 627 100 L 629 99 L 629 98 L 629 97 L 631 96 L 639 96 L 648 95 L 648 94 L 648 93 L 655 92 L 658 92 L 659 91 L 660 90 L 662 89 L 664 89 L 664 88 L 664 87 L 664 86 L 664 85 L 665 85 L 665 84 L 666 83 L 666 82 L 667 82 L 672 81 L 672 80 L 672 79 L 672 78 L 673 78 L 673 77 L 673 76 L 673 75 L 673 74 L 673 74 L 674 73 L 674 72 L 674 71 L 677 71 L 681 70 L 686 69 L 686 68 L 688 67 L 696 67 L 707 66 L 709 65 L 715 64 L 719 63 L 731 63 L 735 62 L 739 61 L 739 60 L 739 60 L 739 59 L 740 58 L 740 57 L 740 56 L 740 56 L 743 55 L 744 54 L 759 53 L 763 52 L 768 52 L 780 51 L 788 50 L 794 49 L 799 49 L 807 48 L 807 47 L 824 46 L 841 45 L 841 45 L 853 44 L 854 43 L 863 42 L 865 41 L 870 41 L 870 40 L 871 39 L 872 38 L 877 38 L 879 37 L 884 36 L 891 35 L 892 34 L 894 34 L 895 33 L 901 32 L 907 31 L 908 30 L 915 30 L 922 29 L 924 28 L 924 27 L 927 27 L 929 26 L 930 25 L 936 24 L 941 23 L 945 23" /><path stroke-width="2" class="series" d="M 58 345 L 63 344 L 91 343 L 92 342 L 92 342 L 92 341 L 92 340 L 92 339 L 92 338 L 92 338 L 93 337 L 93 336 L 93 335 L 93 335 L 93 334 L 93 333 L 93 332 L 93 331 L 94 331 L 94 330 L 96 329 L 96 328 L 97 327 L 99 327 L 100 326 L 100 325 L 100 324 L 101 324 L 103 323 L 106 322 L 106 321 L 108 320 L 110 320 L 119 319 L 119 318 L 119 317 L 120 316 L 120 316 L 120 315 L 125 314 L 127 313 L 129 313 L 133 312 L 140 311 L 143 310 L 156 309 L 160 309 L 167 308 L 174 307 L 177 306 L 204 305 L 205 305 L 205 304 L 209 303 L 210 302 L 210 302 L 210 301 L 210 300 L 210 299 L 210 298 L 210 298 L 210 297 L 210 296 L 210 295 L 210 294 L 210 294 L 211 293 L 211 292 L 211 291 L 211 291 L 211 290 L 211 289 L 211 288 L 211 287 L 211 287 L 211 286 L 211 285 L 211 284 L 211 283 L 211 283 L 211 282 L 211 281 L 211 280 L 211 280 L 211 279 L 211 278 L 211 277 L 211 276 L 211 276 L 211 275 L 211 274 L 212 273 L 212 272 L 212 272 L 212 271 L 212 270 L 212 269 L 212 269 L 212 268 L 212 267 L 212 266 L 213 265 L 213 265 L 213 264 L 213 263 L 214 262 L 214 261 L 216 261 L 216 260 L 216 259 L 216 258 L 216 258 L 216 257 L 216 256 L 216 255 L 216 254 L 216 254 L 216 253 L 216 252 L 216 251 L 216 250 L 216 250 L 216 249 L 216 248 L 217 247 L 219 247 L 219 246 L 219 245 L 219 244 L 225 243 L 226 243 L 226 242 L 228 241 L 228 240 L 232 239 L 237 239 L 238 238 L 242 237 L 243 236 L 246 236 L 247 235 L 248 234 L 252 233 L 252 232 L 254 232 L 256 231 L 257 230 L 259 229 L 259 228 L 259 228 L 260 227 L 262 226 L 264 225 L 264 225 L 265 224 L 266 223 L 266 222 L 268 221 L 271 221 L 273 220 L 277 219 L 278 218 L 280 217 L 282 217 L 282 216 L 282 215 L 285 214 L 296 214 L 297 213 L 299 212 L 310 211 L 310 210 L 310 210 L 310 209 L 311 208 L 312 207 L 316 206 L 318 206 L 318 205 L 331 204 L 334 203 L 337 203 L 341 202 L 344 201 L 344 200 L 346 199 L 355 199 L 365 198 L 377 197 L 378 196 L 378 195 L 379 195 L 379 194 L 382 193 L 398 192 L 405 192 L 406 191 L 412 190 L 413 189 L 414 188 L 431 188 L 431 187 L 433 186 L 433 185 L 436 184 L 440 184 L 442 183 L 446 182 L 448 181 L 452 181 L 462 180 L 462 179 L 464 178 L 464 177 L 465 177 L 466 176 L 471 175 L 481 174 L 502 173 L 511 173 L 511 172 L 515 171 L 516 170 L 518 170 L 521 169 L 521 168 L 521 167 L 521 166 L 521 166 L 521 165 L 521 164 L 521 163 L 521 162 L 521 162 L 521 161 L 522 160 L 522 159 L 522 159 L 523 158 L 524 157 L 526 156 L 527 155 L 527 155 L 527 154 L 528 153 L 530 152 L 530 151 L 530 151 L 530 150 L 530 149 L 531 148 L 531 148 L 532 147 L 533 146 L 534 145 L 535 144 L 535 144 L 535 143 L 535 142 L 537 141 L 537 140 L 537 140 L 537 139 L 539 138 L 539 137 L 540 137 L 542 136 L 544 135 L 545 134 L 548 133 L 552 133 L 552 132 L 553 131 L 553 130 L 553 129 L 554 129 L 554 128 L 557 127 L 558 126 L 561 126 L 561 125 L 563 124 L 566 123 L 569 122 L 569 122 L 573 121 L 574 120 L 575 119 L 577 118 L 577 118 L 585 117 L 586 116 L 587 115 L 593 115 L 597 114 L 603 113 L 605 112 L 605 111 L 607 111 L 608 110 L 608 109 L 613 108 L 617 107 L 620 107 L 620 106 L 623 105 L 625 104 L 625 104 L 625 103 L 625 102 L 626 101 L 627 100 L 627 100 L 629 99 L 629 98 L 629 97 L 631 96 L 639 96 L 648 95 L 648 94 L 648 93 L 655 92 L 658 92 L 659 91 L 660 90 L 662 89 L 664 89 L 664 88 L 664 87 L 664 86 L 664 85 L 665 85 L 665 84 L 666 83 L 666 82 L 667 82 L 672 81 L 672 80 L 672 79 L 672 78 L 673 78 L 673 77 L 673 76 L 673 75 L 673 74 L 673 74 L 674 73 L 674 72 L 674 71 L 677 71 L 681 70 L 686 69 L 686 68 L 688 67 L 696 67 L 707 66 L 709 65 L 715 64 L 719 63 L 731 63 L 735 62 L 739 61 L 739 60 L 739 60 L 739 59 L 740 58 L 740 57 L 740 56 L 740 56 L 743 55 L 744 54 L 759 53 L 763 52 L 768 52 L 780 51 L 788 50 L 794 49 L 799 49 L 807 48 L 807 47 L 824 46 L 841 45 L 841 45 L 853 44 L 854 43 L 863 42 L 865 41 L 870 41 L 870 40 L 871 39 L 872 38 L 877 38 L 879 37 L 884 36 L 891 35 L 892 34 L 894 34 L 895 33 L 901 32 L 907 31 L 908 30 L 915 30 L 922 29 L 924 28 L 924 27 L 927 27 L 929 26 L 930 25 L 936 24 L 941 23 L 945 23"></path><path stroke-width="2" d="M 945 346 L 945.000000 15.000000" /><path stroke-width="2" d="M 945 346 L 945.000000 15.000000"></path><path stroke-width="2" d="M 945 346 L 950 346" /><path stroke-width="2" d="M 945 346 L 950 346"></path><text xmlns="http://www.w3.org/2000/svg" x="955" y="352">0</text><path stroke-width="2" d="M 945 309 L 950 309" /><path stroke-width="2" d="M 945 309 L 950 309"></path><text xmlns="http://www.w3.org/2000/svg" x="955" y="315">47</text><path stroke-width="2" d="M 945 272 L 950 272" /><path stroke-width="2" d="M 945 272 L 950 272"></path><text y="278" xmlns="http://www.w3.org/2000/svg" x="955">94</text><path stroke-width="2" d="M 945 236 L 950 236" /><path d="M 945 236 L 950 236" stroke-width="2"></path><text xmlns="http://www.w3.org/2000/svg" x="955" y="242">140</text><path stroke-width="2" d="M 945 199 L 950 199" /><path stroke-width="2" d="M 945 199 L 950 199"></path><text xmlns="http://www.w3.org/2000/svg" x="955" y="205">187</text><path stroke-width="2" d="M 945 162 L 950 162" /><path d="M 945 162 L 950 162" stroke-width="2"></path><text xmlns="http://www.w3.org/2000/svg" x="955" y="168">234</text><path stroke-width="2" d="M 945 126 L 950 126" /><path stroke-width="2" d="M 945 126 L 950 126"></path><text x="955" y="132" xmlns="http://www.w3.org/2000/svg">280</text><path stroke-width="2" d="M 945 89 L 950 89" /><path stroke-width="2" d="M 945 89 L 950 89"></path><text xmlns="http://www.w3.org/2000/svg" x="955" y="95">327</text><path stroke-width="2" d="M 945 52 L 950 52" /><path stroke-width="2" d="M 945 52 L 950 52"></path><text xmlns="http://www.w3.org/2000/svg" x="955" y="58">374</text><path stroke-width="2" d="M 945 16 L 950 16" /><path stroke-width="2" d="M 945 16 L 950 16"></path><text xmlns="http://www.w3.org/2000/svg" x="955" y="22">420</text><text xmlns="http://www.w3.org/2000/svg" x="987" y="175" transform="rotate(90.00,987,175)">Stargazers</text><path stroke-width="2" d="M 57.000000 346.000000 L 945 346" /><path stroke-width="2" d="M 57.000000 346.000000 L 945 346"></path><path stroke-width="2" d="M 58 346 L 58 351" /><path stroke-width="2" d="M 58 346 L 58 351"></path><text x="25" y="368" xmlns="http://www.w3.org/2000/svg">2023-04-02</text><path stroke-width="2" d="M 157 346 L 157 351" /><path stroke-width="2" d="M 157 346 L 157 351"></path><text x="124" y="368" xmlns="http://www.w3.org/2000/svg">2023-05-14</text><path stroke-width="2" d="M 256 346 L 256 351" /><path stroke-width="2" d="M 256 346 L 256 351"></path><text xmlns="http://www.w3.org/2000/svg" x="223" y="368">2023-06-24</text><path stroke-width="2" d="M 354 346 L 354 351" /><path stroke-width="2" d="M 354 346 L 354 351"></path><text xmlns="http://www.w3.org/2000/svg" x="321" y="368">2023-08-05</text><path stroke-width="2" d="M 453 346 L 453 351" /><path stroke-width="2" d="M 453 346 L 453 351"></path><text xmlns="http://www.w3.org/2000/svg" x="420" y="368">2023-09-16</text><path stroke-width="2" d="M 551 346 L 551 351" /><path stroke-width="2" d="M 551 346 L 551 351"></path><text xmlns="http://www.w3.org/2000/svg" x="518" y="368">2023-10-28</text><path d="M 650 346 L 650 351" stroke-width="2" /><path stroke-width="2" d="M 650 346 L 650 351"></path><text xmlns="http://www.w3.org/2000/svg" x="617" y="368">2023-12-09</text><path stroke-width="2" d="M 748 346 L 748 351" /><path stroke-width="2" d="M 748 346 L 748 351"></path><text xmlns="http://www.w3.org/2000/svg" x="715" y="368">2024-01-19</text><path stroke-width="2" d="M 847 346 L 847 351" /><path stroke-width="2" d="M 847 346 L 847 351"></path><text y="368" xmlns="http://www.w3.org/2000/svg" x="814">2024-03-01</text><path stroke-width="2" d="M 945 346 L 945 351" /><path stroke-width="2" d="M 945 346 L 945 351"></path><text x="912" y="368" xmlns="http://www.w3.org/2000/svg">2024-04-12</text><text xmlns="http://www.w3.org/2000/svg" x="487" y="390">Time</text></svg>