<svg xmlns="http://www.w3.org/2000/svg" xmlns:xlink="http://www.w3.org/1999/xlink" width="1024px" height="400px"><style type="text/css">
path { fill: none; stroke: rgb(51,51,51); }
path.series { stroke: #6b63ff; }
rect.background { fill: rgb(255,255,255); stroke: none; }

text {
	stroke-width: 0;
	stroke: none;
	fill: rgba(51,51,51,1.0);
	font-size: 12.8px;
	font-family: 'Roboto Medium', sans-serif;
}
</style><rect rx="8" x="0" y="0" width="1024px" height="400px" class="background" /><rect x="0" y="0" width="1024px" height="400px" class="background" rx="8"></rect><path class="series" d="M 58 345 L 62 344 L 82 344 L 82 343 L 82 343 L 82 342 L 82 342 L 82 341 L 82 341 L 82 340 L 83 340 L 83 339 L 83 338 L 83 338 L 83 337 L 83 337 L 83 336 L 84 336 L 84 335 L 85 335 L 85 334 L 86 334 L 87 333 L 88 333 L 88 332 L 88 331 L 89 331 L 90 330 L 92 330 L 92 329 L 94 329 L 95 328 L 102 328 L 102 327 L 102 327 L 102 326 L 102 325 L 102 325 L 106 324 L 107 324 L 108 323 L 112 323 L 117 322 L 119 322 L 128 321 L 130 321 L 135 320 L 140 320 L 143 319 L 162 318 L 163 318 L 163 317 L 165 317 L 166 316 L 166 316 L 166 315 L 166 315 L 166 314 L 166 314 L 166 313 L 166 313 L 166 312 L 166 311 L 166 311 L 166 310 L 167 310 L 167 309 L 167 309 L 167 308 L 167 308 L 167 307 L 167 307 L 167 306 L 167 305 L 167 305 L 167 304 L 167 304 L 167 303 L 167 303 L 167 302 L 167 302 L 167 301 L 167 301 L 167 300 L 167 300 L 167 299 L 167 298 L 167 298 L 167 297 L 167 297 L 167 296 L 167 296 L 167 295 L 167 295 L 167 294 L 167 294 L 167 293 L 167 292 L 168 292 L 168 291 L 168 291 L 168 290 L 169 290 L 169 289 L 169 289 L 169 288 L 170 288 L 170 287 L 170 287 L 170 286 L 170 285 L 170 285 L 170 284 L 170 284 L 170 283 L 170 283 L 170 282 L 170 282 L 170 281 L 170 281 L 170 280 L 170 280 L 171 279 L 171 278 L 172 278 L 172 277 L 172 277 L 172 276 L 177 276 L 177 275 L 177 275 L 179 274 L 179 274 L 182 273 L 185 272 L 186 272 L 189 271 L 190 271 L 192 270 L 192 270 L 193 269 L 196 269 L 196 268 L 197 268 L 199 267 L 199 267 L 201 266 L 201 265 L 201 265 L 201 264 L 203 264 L 205 263 L 205 263 L 205 262 L 206 262 L 206 261 L 207 261 L 209 260 L 211 259 L 214 259 L 215 258 L 216 258 L 217 257 L 217 257 L 217 256 L 219 256 L 228 255 L 228 255 L 229 254 L 237 254 L 237 253 L 237 252 L 237 252 L 238 251 L 239 251 L 241 250 L 243 250 L 243 249 L 252 249 L 254 248 L 256 248 L 259 247 L 261 247 L 261 246 L 263 245 L 269 245 L 277 244 L 285 244 L 286 243 L 286 243 L 286 242 L 287 242 L 288 241 L 300 241 L 305 240 L 305 239 L 309 239 L 310 238 L 311 238 L 323 237 L 323 237 L 324 236 L 325 236 L 326 235 L 330 235 L 331 234 L 334 234 L 335 233 L 338 232 L 345 232 L 346 231 L 347 231 L 347 230 L 347 230 L 348 229 L 351 229 L 359 228 L 374 228 L 380 227 L 383 226 L 383 226 L 385 225 L 387 225 L 387 224 L 387 224 L 387 223 L 387 223 L 387 222 L 387 222 L 387 221 L 387 221 L 387 220 L 388 219 L 388 219 L 388 218 L 388 218 L 389 217 L 391 217 L 392 216 L 392 216 L 392 215 L 392 215 L 394 214 L 394 214 L 394 213 L 394 212 L 394 212 L 394 211 L 394 211 L 395 210 L 396 210 L 397 209 L 397 209 L 397 208 L 397 208 L 397 207 L 398 206 L 399 206 L 399 205 L 399 205 L 400 204 L 400 204 L 401 203 L 402 203 L 403 202 L 404 202 L 406 201 L 409 201 L 409 200 L 410 199 L 410 199 L 410 198 L 410 198 L 410 197 L 413 197 L 413 196 L 416 196 L 416 195 L 417 195 L 419 194 L 421 193 L 421 193 L 424 192 L 425 192 L 425 191 L 427 191 L 427 190 L 432 190 L 434 189 L 434 189 L 439 188 L 441 188 L 446 187 L 447 186 L 447 186 L 448 185 L 449 185 L 449 184 L 453 184 L 455 183 L 457 183 L 458 182 L 459 182 L 461 181 L 461 181 L 461 180 L 461 179 L 462 179 L 462 178 L 462 178 L 464 177 L 464 177 L 464 176 L 465 176 L 471 175 L 477 175 L 477 174 L 478 173 L 482 173 L 484 172 L 485 172 L 486 171 L 487 171 L 489 170 L 489 170 L 489 169 L 489 169 L 489 168 L 490 168 L 490 167 L 490 166 L 490 166 L 491 165 L 494 165 L 494 164 L 494 164 L 495 163 L 495 163 L 495 162 L 495 162 L 495 161 L 496 160 L 496 160 L 496 159 L 496 159 L 496 158 L 501 158 L 504 157 L 504 157 L 506 156 L 512 156 L 519 155 L 521 155 L 525 154 L 528 153 L 536 153 L 539 152 L 542 152 L 542 151 L 542 151 L 542 150 L 543 150 L 543 149 L 543 149 L 543 148 L 545 148 L 546 147 L 556 146 L 559 146 L 563 145 L 571 145 L 577 144 L 581 144 L 585 143 L 590 143 L 590 142 L 603 142 L 615 141 L 615 140 L 623 140 L 624 139 L 630 139 L 632 138 L 635 138 L 635 137 L 636 137 L 636 136 L 640 136 L 642 135 L 645 135 L 650 134 L 651 133 L 652 133 L 653 132 L 657 132 L 662 131 L 662 131 L 667 130 L 672 130 L 673 129 L 673 129 L 676 128 L 677 127 L 678 127 L 682 126 L 686 126 L 689 125 L 692 125 L 692 124 L 699 124 L 700 123 L 703 123 L 709 122 L 709 122 L 716 121 L 717 120 L 717 120 L 719 119 L 719 119 L 722 118 L 722 118 L 725 117 L 729 117 L 730 116 L 730 116 L 731 115 L 741 115 L 741 114 L 742 113 L 742 113 L 743 112 L 744 112 L 744 111 L 744 111 L 745 110 L 747 110 L 748 109 L 749 109 L 750 108 L 751 107 L 752 107 L 753 106 L 753 106 L 754 105 L 754 105 L 754 104 L 755 104 L 755 103 L 756 103 L 756 102 L 757 102 L 759 101 L 759 100 L 760 100 L 761 99 L 761 99 L 763 98 L 764 98 L 765 97 L 766 97 L 767 96 L 769 96 L 769 95 L 770 94 L 770 94 L 773 93 L 773 93 L 773 92 L 774 92 L 774 91 L 774 91 L 774 90 L 775 90 L 776 89 L 777 89 L 781 88 L 783 87 L 784 87 L 785 86 L 788 86 L 790 85 L 790 85 L 793 84 L 797 84 L 800 83 L 803 83 L 804 82 L 804 82 L 804 81 L 804 80 L 805 80 L 806 79 L 806 79 L 807 78 L 807 78 L 807 77 L 808 77 L 810 76 L 811 76 L 811 75 L 812 74 L 813 74 L 816 73 L 817 73 L 817 72 L 818 72 L 819 71 L 822 71 L 826 70 L 831 70 L 831 69 L 831 69 L 831 68 L 834 67 L 837 67 L 838 66 L 838 66 L 838 65 L 838 65 L 841 64 L 845 64 L 846 63 L 846 63 L 846 62 L 848 61 L 849 61 L 849 60 L 849 60 L 849 59 L 853 59 L 858 58 L 858 58 L 863 57 L 863 57 L 865 56 L 869 56 L 871 55 L 874 54 L 877 54 L 879 53 L 880 53 L 880 52 L 881 52 L 881 51 L 881 51 L 882 50 L 883 50 L 883 49 L 883 49 L 885 48 L 885 47 L 885 47 L 886 46 L 888 46 L 888 45 L 895 45 L 895 44 L 902 44 L 905 43 L 905 43 L 906 42 L 907 41 L 910 41 L 911 40 L 912 40 L 912 39 L 913 39 L 913 38 L 913 38 L 913 37 L 913 37 L 915 36 L 915 36 L 915 35 L 915 34 L 915 34 L 916 33 L 917 33 L 917 32 L 918 32 L 918 31 L 919 31 L 919 30 L 920 30 L 922 29 L 922 28 L 922 28 L 923 27 L 925 27 L 928 26 L 928 26 L 928 25 L 929 25 L 929 24 L 930 24 L 930 23 L 930 23 L 932 22 L 935 21 L 938 21 L 942 20 L 943 20 L 945 19" stroke-width="2" /><path class="series" d="M 58 345 L 62 344 L 82 344 L 82 343 L 82 343 L 82 342 L 82 342 L 82 341 L 82 341 L 82 340 L 83 340 L 83 339 L 83 338 L 83 338 L 83 337 L 83 337 L 83 336 L 84 336 L 84 335 L 85 335 L 85 334 L 86 334 L 87 333 L 88 333 L 88 332 L 88 331 L 89 331 L 90 330 L 92 330 L 92 329 L 94 329 L 95 328 L 102 328 L 102 327 L 102 327 L 102 326 L 102 325 L 102 325 L 106 324 L 107 324 L 108 323 L 112 323 L 117 322 L 119 322 L 128 321 L 130 321 L 135 320 L 140 320 L 143 319 L 162 318 L 163 318 L 163 317 L 165 317 L 166 316 L 166 316 L 166 315 L 166 315 L 166 314 L 166 314 L 166 313 L 166 313 L 166 312 L 166 311 L 166 311 L 166 310 L 167 310 L 167 309 L 167 309 L 167 308 L 167 308 L 167 307 L 167 307 L 167 306 L 167 305 L 167 305 L 167 304 L 167 304 L 167 303 L 167 303 L 167 302 L 167 302 L 167 301 L 167 301 L 167 300 L 167 300 L 167 299 L 167 298 L 167 298 L 167 297 L 167 297 L 167 296 L 167 296 L 167 295 L 167 295 L 167 294 L 167 294 L 167 293 L 167 292 L 168 292 L 168 291 L 168 291 L 168 290 L 169 290 L 169 289 L 169 289 L 169 288 L 170 288 L 170 287 L 170 287 L 170 286 L 170 285 L 170 285 L 170 284 L 170 284 L 170 283 L 170 283 L 170 282 L 170 282 L 170 281 L 170 281 L 170 280 L 170 280 L 171 279 L 171 278 L 172 278 L 172 277 L 172 277 L 172 276 L 177 276 L 177 275 L 177 275 L 179 274 L 179 274 L 182 273 L 185 272 L 186 272 L 189 271 L 190 271 L 192 270 L 192 270 L 193 269 L 196 269 L 196 268 L 197 268 L 199 267 L 199 267 L 201 266 L 201 265 L 201 265 L 201 264 L 203 264 L 205 263 L 205 263 L 205 262 L 206 262 L 206 261 L 207 261 L 209 260 L 211 259 L 214 259 L 215 258 L 216 258 L 217 257 L 217 257 L 217 256 L 219 256 L 228 255 L 228 255 L 229 254 L 237 254 L 237 253 L 237 252 L 237 252 L 238 251 L 239 251 L 241 250 L 243 250 L 243 249 L 252 249 L 254 248 L 256 248 L 259 247 L 261 247 L 261 246 L 263 245 L 269 245 L 277 244 L 285 244 L 286 243 L 286 243 L 286 242 L 287 242 L 288 241 L 300 241 L 305 240 L 305 239 L 309 239 L 310 238 L 311 238 L 323 237 L 323 237 L 324 236 L 325 236 L 326 235 L 330 235 L 331 234 L 334 234 L 335 233 L 338 232 L 345 232 L 346 231 L 347 231 L 347 230 L 347 230 L 348 229 L 351 229 L 359 228 L 374 228 L 380 227 L 383 226 L 383 226 L 385 225 L 387 225 L 387 224 L 387 224 L 387 223 L 387 223 L 387 222 L 387 222 L 387 221 L 387 221 L 387 220 L 388 219 L 388 219 L 388 218 L 388 218 L 389 217 L 391 217 L 392 216 L 392 216 L 392 215 L 392 215 L 394 214 L 394 214 L 394 213 L 394 212 L 394 212 L 394 211 L 394 211 L 395 210 L 396 210 L 397 209 L 397 209 L 397 208 L 397 208 L 397 207 L 398 206 L 399 206 L 399 205 L 399 205 L 400 204 L 400 204 L 401 203 L 402 203 L 403 202 L 404 202 L 406 201 L 409 201 L 409 200 L 410 199 L 410 199 L 410 198 L 410 198 L 410 197 L 413 197 L 413 196 L 416 196 L 416 195 L 417 195 L 419 194 L 421 193 L 421 193 L 424 192 L 425 192 L 425 191 L 427 191 L 427 190 L 432 190 L 434 189 L 434 189 L 439 188 L 441 188 L 446 187 L 447 186 L 447 186 L 448 185 L 449 185 L 449 184 L 453 184 L 455 183 L 457 183 L 458 182 L 459 182 L 461 181 L 461 181 L 461 180 L 461 179 L 462 179 L 462 178 L 462 178 L 464 177 L 464 177 L 464 176 L 465 176 L 471 175 L 477 175 L 477 174 L 478 173 L 482 173 L 484 172 L 485 172 L 486 171 L 487 171 L 489 170 L 489 170 L 489 169 L 489 169 L 489 168 L 490 168 L 490 167 L 490 166 L 490 166 L 491 165 L 494 165 L 494 164 L 494 164 L 495 163 L 495 163 L 495 162 L 495 162 L 495 161 L 496 160 L 496 160 L 496 159 L 496 159 L 496 158 L 501 158 L 504 157 L 504 157 L 506 156 L 512 156 L 519 155 L 521 155 L 525 154 L 528 153 L 536 153 L 539 152 L 542 152 L 542 151 L 542 151 L 542 150 L 543 150 L 543 149 L 543 149 L 543 148 L 545 148 L 546 147 L 556 146 L 559 146 L 563 145 L 571 145 L 577 144 L 581 144 L 585 143 L 590 143 L 590 142 L 603 142 L 615 141 L 615 140 L 623 140 L 624 139 L 630 139 L 632 138 L 635 138 L 635 137 L 636 137 L 636 136 L 640 136 L 642 135 L 645 135 L 650 134 L 651 133 L 652 133 L 653 132 L 657 132 L 662 131 L 662 131 L 667 130 L 672 130 L 673 129 L 673 129 L 676 128 L 677 127 L 678 127 L 682 126 L 686 126 L 689 125 L 692 125 L 692 124 L 699 124 L 700 123 L 703 123 L 709 122 L 709 122 L 716 121 L 717 120 L 717 120 L 719 119 L 719 119 L 722 118 L 722 118 L 725 117 L 729 117 L 730 116 L 730 116 L 731 115 L 741 115 L 741 114 L 742 113 L 742 113 L 743 112 L 744 112 L 744 111 L 744 111 L 745 110 L 747 110 L 748 109 L 749 109 L 750 108 L 751 107 L 752 107 L 753 106 L 753 106 L 754 105 L 754 105 L 754 104 L 755 104 L 755 103 L 756 103 L 756 102 L 757 102 L 759 101 L 759 100 L 760 100 L 761 99 L 761 99 L 763 98 L 764 98 L 765 97 L 766 97 L 767 96 L 769 96 L 769 95 L 770 94 L 770 94 L 773 93 L 773 93 L 773 92 L 774 92 L 774 91 L 774 91 L 774 90 L 775 90 L 776 89 L 777 89 L 781 88 L 783 87 L 784 87 L 785 86 L 788 86 L 790 85 L 790 85 L 793 84 L 797 84 L 800 83 L 803 83 L 804 82 L 804 82 L 804 81 L 804 80 L 805 80 L 806 79 L 806 79 L 807 78 L 807 78 L 807 77 L 808 77 L 810 76 L 811 76 L 811 75 L 812 74 L 813 74 L 816 73 L 817 73 L 817 72 L 818 72 L 819 71 L 822 71 L 826 70 L 831 70 L 831 69 L 831 69 L 831 68 L 834 67 L 837 67 L 838 66 L 838 66 L 838 65 L 838 65 L 841 64 L 845 64 L 846 63 L 846 63 L 846 62 L 848 61 L 849 61 L 849 60 L 849 60 L 849 59 L 853 59 L 858 58 L 858 58 L 863 57 L 863 57 L 865 56 L 869 56 L 871 55 L 874 54 L 877 54 L 879 53 L 880 53 L 880 52 L 881 52 L 881 51 L 881 51 L 882 50 L 883 50 L 883 49 L 883 49 L 885 48 L 885 47 L 885 47 L 886 46 L 888 46 L 888 45 L 895 45 L 895 44 L 902 44 L 905 43 L 905 43 L 906 42 L 907 41 L 910 41 L 911 40 L 912 40 L 912 39 L 913 39 L 913 38 L 913 38 L 913 37 L 913 37 L 915 36 L 915 36 L 915 35 L 915 34 L 915 34 L 916 33 L 917 33 L 917 32 L 918 32 L 918 31 L 919 31 L 919 30 L 920 30 L 922 29 L 922 28 L 922 28 L 923 27 L 925 27 L 928 26 L 928 26 L 928 25 L 929 25 L 929 24 L 930 24 L 930 23 L 930 23 L 932 22 L 935 21 L 938 21 L 942 20 L 943 20 L 945 19" stroke-width="2"></path><path stroke-width="2" d="M 945 346 L 945.000000 15.000000" /><path stroke-width="2" d="M 945 346 L 945.000000 15.000000"></path><path stroke-width="2" d="M 945 346 L 950 346" /><path stroke-width="2" d="M 945 346 L 950 346"></path><text xmlns="http://www.w3.org/2000/svg" x="955" y="352">0</text><path stroke-width="2" d="M 945 309 L 950 309" /><path stroke-width="2" d="M 945 309 L 950 309"></path><text xmlns="http://www.w3.org/2000/svg" x="955" y="315">68</text><path stroke-width="2" d="M 945 272 L 950 272" /><path stroke-width="2" d="M 945 272 L 950 272"></path><text x="955" y="278" xmlns="http://www.w3.org/2000/svg">136</text><path stroke-width="2" d="M 945 235 L 950 235" /><path stroke-width="2" d="M 945 235 L 950 235"></path><text y="241" xmlns="http://www.w3.org/2000/svg" x="955">204</text><path stroke-width="2" d="M 945 198 L 950 198" /><path stroke-width="2" d="M 945 198 L 950 198"></path><text xmlns="http://www.w3.org/2000/svg" x="955" y="204">272</text><path stroke-width="2" d="M 945 162 L 950 162" /><path stroke-width="2" d="M 945 162 L 950 162"></path><text xmlns="http://www.w3.org/2000/svg" x="955" y="168">339</text><path d="M 945 125 L 950 125" stroke-width="2" /><path stroke-width="2" d="M 945 125 L 950 125"></path><text x="955" y="131" xmlns="http://www.w3.org/2000/svg">407</text><path stroke-width="2" d="M 945 89 L 950 89" /><path stroke-width="2" d="M 945 89 L 950 89"></path><text xmlns="http://www.w3.org/2000/svg" x="955" y="95">475</text><path stroke-width="2" d="M 945 52 L 950 52" /><path stroke-width="2" d="M 945 52 L 950 52"></path><text x="955" y="58" xmlns="http://www.w3.org/2000/svg">543</text><path d="M 945 16 L 950 16" stroke-width="2" /><path stroke-width="2" d="M 945 16 L 950 16"></path><text xmlns="http://www.w3.org/2000/svg" x="955" y="22">610</text><text xmlns="http://www.w3.org/2000/svg" x="987" y="175" transform="rotate(90.00,987,175)">Stargazers</text><path stroke-width="2" d="M 57.000000 346.000000 L 945 346" /><path stroke-width="2" d="M 57.000000 346.000000 L 945 346"></path><path d="M 58 346 L 58 351" stroke-width="2" /><path stroke-width="2" d="M 58 346 L 58 351"></path><text xmlns="http://www.w3.org/2000/svg" x="25" y="368">2023-04-02</text><path stroke-width="2" d="M 157 346 L 157 351" /><path stroke-width="2" d="M 157 346 L 157 351"></path><text xmlns="http://www.w3.org/2000/svg" x="124" y="368">2023-05-31</text><path stroke-width="2" d="M 256 346 L 256 351" /><path stroke-width="2" d="M 256 346 L 256 351"></path><text xmlns="http://www.w3.org/2000/svg" x="223" y="368">2023-07-29</text><path stroke-width="2" d="M 354 346 L 354 351" /><path stroke-width="2" d="M 354 346 L 354 351"></path><text xmlns="http://www.w3.org/2000/svg" x="321" y="368">2023-09-25</text><path stroke-width="2" d="M 453 346 L 453 351" /><path stroke-width="2" d="M 453 346 L 453 351"></path><text xmlns="http://www.w3.org/2000/svg" x="420" y="368">2023-11-23</text><path stroke-width="2" d="M 551 346 L 551 351" /><path stroke-width="2" d="M 551 346 L 551 351"></path><text xmlns="http://www.w3.org/2000/svg" x="518" y="368">2024-01-21</text><path stroke-width="2" d="M 650 346 L 650 351" /><path stroke-width="2" d="M 650 346 L 650 351"></path><text xmlns="http://www.w3.org/2000/svg" x="617" y="368">2024-03-20</text><path stroke-width="2" d="M 748 346 L 748 351" /><path stroke-width="2" d="M 748 346 L 748 351"></path><text x="715" y="368" xmlns="http://www.w3.org/2000/svg">2024-05-18</text><path stroke-width="2" d="M 847 346 L 847 351" /><path stroke-width="2" d="M 847 346 L 847 351"></path><text xmlns="http://www.w3.org/2000/svg" x="814" y="368">2024-07-15</text><path stroke-width="2" d="M 945 346 L 945 351" /><path stroke-width="2" d="M 945 346 L 945 351"></path><text y="368" xmlns="http://www.w3.org/2000/svg" x="912">2024-09-12</text><text x="487" y="390" xmlns="http://www.w3.org/2000/svg">Time</text></svg>