<svg xmlns="http://www.w3.org/2000/svg" xmlns:xlink="http://www.w3.org/1999/xlink" width="1024px" height="400px"><style type="text/css">
path { fill: none; stroke: rgb(51,51,51); }
path.series { stroke: #6b63ff; }
rect.background { fill: rgb(255,255,255); stroke: none; }

text {
	stroke-width: 0;
	stroke: none;
	fill: rgba(51,51,51,1.0);
	font-size: 12.8px;
	font-family: 'Roboto Medium', sans-serif;
}
</style><rect y="0" width="1024px" height="400px" class="background" rx="8" x="0" /><rect width="1024px" height="400px" class="background" rx="8" x="0" y="0"></rect><path stroke-width="2" class="series" d="M 58 345 L 63 344 L 93 343 L 94 342 L 94 341 L 94 341 L 94 340 L 94 339 L 94 338 L 94 337 L 95 336 L 95 336 L 95 335 L 95 334 L 95 333 L 95 332 L 96 331 L 96 331 L 96 330 L 96 329 L 98 328 L 99 327 L 99 327 L 101 326 L 103 325 L 103 324 L 103 323 L 104 322 L 106 322 L 109 321 L 109 320 L 112 319 L 114 318 L 123 317 L 123 317 L 123 316 L 124 315 L 124 314 L 124 313 L 124 313 L 129 312 L 132 311 L 133 310 L 138 309 L 146 308 L 149 308 L 162 307 L 166 306 L 174 305 L 181 304 L 184 303 L 213 303 L 214 302 L 215 301 L 218 300 L 219 299 L 219 298 L 219 298 L 219 297 L 219 296 L 219 295 L 219 294 L 219 294 L 220 293 L 220 292 L 220 291 L 220 290 L 221 289 L 221 289 L 221 288 L 221 287 L 221 286 L 221 285 L 221 284 L 221 284 L 221 283 L 221 282 L 221 281 L 221 280 L 221 280 L 221 279 L 221 278 L 221 277 L 221 276 L 221 275 L 221 275 L 221 274 L 221 273 L 221 272 L 221 271 L 221 270 L 221 270 L 221 269 L 221 268 L 221 267 L 221 266 L 221 265 L 222 265 L 222 264 L 222 263 L 222 262 L 222 261 L 223 261 L 223 260 L 223 259 L 223 258 L 224 257 L 224 256 L 226 256 L 226 255 L 226 254 L 226 253 L 226 252 L 226 251 L 226 251 L 226 250 L 226 249 L 226 248 L 226 247 L 226 247 L 226 246 L 226 245 L 226 244 L 226 243 L 226 242 L 227 242 L 229 241 L 229 240 L 229 239 L 229 238 L 236 237 L 236 237 L 237 236 L 239 235 L 239 234 L 244 233 L 248 232 L 250 232 L 254 231 L 255 230 L 258 229 L 259 228 L 260 228 L 264 227 L 265 226 L 266 225 L 269 224 L 270 223 L 271 223 L 272 222 L 272 221 L 273 220 L 275 219 L 277 218 L 277 218 L 278 217 L 279 216 L 279 215 L 281 214 L 284 214 L 287 213 L 291 212 L 292 211 L 294 210 L 296 209 L 296 209 L 297 208 L 300 207 L 312 206 L 312 205 L 314 204 L 326 204 L 326 203 L 326 202 L 326 201 L 327 200 L 329 199 L 332 199 L 334 198 L 335 197 L 349 196 L 352 195 L 355 195 L 359 194 L 362 193 L 362 192 L 364 191 L 374 190 L 385 190 L 398 189 L 399 188 L 399 187 L 399 186 L 400 185 L 403 185 L 420 184 L 427 183 L 428 182 L 434 181 L 436 181 L 437 180 L 455 179 L 455 178 L 457 177 L 457 176 L 460 176 L 465 175 L 467 174 L 471 173 L 473 172 L 477 171 L 488 171 L 488 170 L 490 169 L 491 168 L 491 167 L 492 166 L 497 166 L 497 165 L 508 164 L 523 163 L 531 162 L 540 162 L 540 161 L 545 160 L 545 159 L 548 158 L 550 157 L 550 157 L 550 156 L 550 155 L 551 154 L 551 153 L 551 152 L 551 152 L 551 151 L 551 150 L 551 149 L 551 148 L 551 148 L 552 147 L 553 146 L 554 145 L 556 144 L 557 143 L 558 143 L 558 142 L 558 141 L 560 140 L 561 139 L 561 138 L 561 138 L 561 137 L 561 136 L 561 135 L 563 134 L 564 133 L 565 133 L 565 132 L 565 131 L 566 130 L 566 129 L 568 129 L 568 128 L 568 127 L 568 126 L 570 125 L 570 124 L 571 124 L 573 123 L 575 122 L 576 121 L 579 120 L 583 119 L 583 119 L 585 118 L 585 117 L 585 116 L 585 115 L 586 115 L 589 114 L 590 113 L 593 112 L 593 111 L 595 110 L 598 110 L 601 109 L 601 108 L 606 107 L 607 106 L 608 105 L 610 105 L 610 104 L 619 103 L 620 102 L 621 101 L 628 100 L 631 100 L 638 99 L 640 98 L 641 97 L 643 96 L 643 96 L 643 95 L 649 94 L 653 93 L 656 92 L 656 91 L 659 91 L 661 90 L 661 89 L 661 88 L 662 87 L 663 86 L 663 86 L 663 85 L 666 84 L 666 83 L 666 82 L 668 82 L 676 81 L 686 80 L 686 79 L 686 78 L 693 77 L 696 77 L 698 76 L 699 75 L 701 74 L 703 73 L 703 72 L 703 72 L 703 71 L 703 70 L 704 69 L 704 68 L 705 67 L 705 67 L 707 66 L 711 65 L 711 64 L 711 63 L 712 63 L 712 62 L 713 61 L 713 60 L 713 59 L 713 58 L 713 58 L 713 57 L 713 56 L 714 55 L 716 54 L 721 53 L 726 53 L 726 52 L 728 51 L 737 50 L 748 49 L 751 49 L 757 48 L 762 47 L 774 46 L 778 45 L 782 44 L 783 44 L 783 43 L 783 42 L 784 41 L 784 40 L 784 39 L 784 39 L 786 38 L 788 37 L 804 36 L 808 35 L 814 34 L 826 34 L 835 33 L 841 32 L 846 31 L 855 30 L 855 30 L 873 29 L 891 28 L 892 27 L 904 26 L 905 25 L 915 25 L 917 24 L 922 23 L 922 22 L 924 21 L 924 20 L 929 20 L 932 19 L 937 18 L 944 17 L 945 16" /><path stroke-width="2" class="series" d="M 58 345 L 63 344 L 93 343 L 94 342 L 94 341 L 94 341 L 94 340 L 94 339 L 94 338 L 94 337 L 95 336 L 95 336 L 95 335 L 95 334 L 95 333 L 95 332 L 96 331 L 96 331 L 96 330 L 96 329 L 98 328 L 99 327 L 99 327 L 101 326 L 103 325 L 103 324 L 103 323 L 104 322 L 106 322 L 109 321 L 109 320 L 112 319 L 114 318 L 123 317 L 123 317 L 123 316 L 124 315 L 124 314 L 124 313 L 124 313 L 129 312 L 132 311 L 133 310 L 138 309 L 146 308 L 149 308 L 162 307 L 166 306 L 174 305 L 181 304 L 184 303 L 213 303 L 214 302 L 215 301 L 218 300 L 219 299 L 219 298 L 219 298 L 219 297 L 219 296 L 219 295 L 219 294 L 219 294 L 220 293 L 220 292 L 220 291 L 220 290 L 221 289 L 221 289 L 221 288 L 221 287 L 221 286 L 221 285 L 221 284 L 221 284 L 221 283 L 221 282 L 221 281 L 221 280 L 221 280 L 221 279 L 221 278 L 221 277 L 221 276 L 221 275 L 221 275 L 221 274 L 221 273 L 221 272 L 221 271 L 221 270 L 221 270 L 221 269 L 221 268 L 221 267 L 221 266 L 221 265 L 222 265 L 222 264 L 222 263 L 222 262 L 222 261 L 223 261 L 223 260 L 223 259 L 223 258 L 224 257 L 224 256 L 226 256 L 226 255 L 226 254 L 226 253 L 226 252 L 226 251 L 226 251 L 226 250 L 226 249 L 226 248 L 226 247 L 226 247 L 226 246 L 226 245 L 226 244 L 226 243 L 226 242 L 227 242 L 229 241 L 229 240 L 229 239 L 229 238 L 236 237 L 236 237 L 237 236 L 239 235 L 239 234 L 244 233 L 248 232 L 250 232 L 254 231 L 255 230 L 258 229 L 259 228 L 260 228 L 264 227 L 265 226 L 266 225 L 269 224 L 270 223 L 271 223 L 272 222 L 272 221 L 273 220 L 275 219 L 277 218 L 277 218 L 278 217 L 279 216 L 279 215 L 281 214 L 284 214 L 287 213 L 291 212 L 292 211 L 294 210 L 296 209 L 296 209 L 297 208 L 300 207 L 312 206 L 312 205 L 314 204 L 326 204 L 326 203 L 326 202 L 326 201 L 327 200 L 329 199 L 332 199 L 334 198 L 335 197 L 349 196 L 352 195 L 355 195 L 359 194 L 362 193 L 362 192 L 364 191 L 374 190 L 385 190 L 398 189 L 399 188 L 399 187 L 399 186 L 400 185 L 403 185 L 420 184 L 427 183 L 428 182 L 434 181 L 436 181 L 437 180 L 455 179 L 455 178 L 457 177 L 457 176 L 460 176 L 465 175 L 467 174 L 471 173 L 473 172 L 477 171 L 488 171 L 488 170 L 490 169 L 491 168 L 491 167 L 492 166 L 497 166 L 497 165 L 508 164 L 523 163 L 531 162 L 540 162 L 540 161 L 545 160 L 545 159 L 548 158 L 550 157 L 550 157 L 550 156 L 550 155 L 551 154 L 551 153 L 551 152 L 551 152 L 551 151 L 551 150 L 551 149 L 551 148 L 551 148 L 552 147 L 553 146 L 554 145 L 556 144 L 557 143 L 558 143 L 558 142 L 558 141 L 560 140 L 561 139 L 561 138 L 561 138 L 561 137 L 561 136 L 561 135 L 563 134 L 564 133 L 565 133 L 565 132 L 565 131 L 566 130 L 566 129 L 568 129 L 568 128 L 568 127 L 568 126 L 570 125 L 570 124 L 571 124 L 573 123 L 575 122 L 576 121 L 579 120 L 583 119 L 583 119 L 585 118 L 585 117 L 585 116 L 585 115 L 586 115 L 589 114 L 590 113 L 593 112 L 593 111 L 595 110 L 598 110 L 601 109 L 601 108 L 606 107 L 607 106 L 608 105 L 610 105 L 610 104 L 619 103 L 620 102 L 621 101 L 628 100 L 631 100 L 638 99 L 640 98 L 641 97 L 643 96 L 643 96 L 643 95 L 649 94 L 653 93 L 656 92 L 656 91 L 659 91 L 661 90 L 661 89 L 661 88 L 662 87 L 663 86 L 663 86 L 663 85 L 666 84 L 666 83 L 666 82 L 668 82 L 676 81 L 686 80 L 686 79 L 686 78 L 693 77 L 696 77 L 698 76 L 699 75 L 701 74 L 703 73 L 703 72 L 703 72 L 703 71 L 703 70 L 704 69 L 704 68 L 705 67 L 705 67 L 707 66 L 711 65 L 711 64 L 711 63 L 712 63 L 712 62 L 713 61 L 713 60 L 713 59 L 713 58 L 713 58 L 713 57 L 713 56 L 714 55 L 716 54 L 721 53 L 726 53 L 726 52 L 728 51 L 737 50 L 748 49 L 751 49 L 757 48 L 762 47 L 774 46 L 778 45 L 782 44 L 783 44 L 783 43 L 783 42 L 784 41 L 784 40 L 784 39 L 784 39 L 786 38 L 788 37 L 804 36 L 808 35 L 814 34 L 826 34 L 835 33 L 841 32 L 846 31 L 855 30 L 855 30 L 873 29 L 891 28 L 892 27 L 904 26 L 905 25 L 915 25 L 917 24 L 922 23 L 922 22 L 924 21 L 924 20 L 929 20 L 932 19 L 937 18 L 944 17 L 945 16"></path><path stroke-width="2" d="M 945 346 L 945.000000 15.000000" /><path stroke-width="2" d="M 945 346 L 945.000000 15.000000"></path><path stroke-width="2" d="M 945 346 L 950 346" /><path stroke-width="2" d="M 945 346 L 950 346"></path><text xmlns="http://www.w3.org/2000/svg" x="955" y="352">0</text><path stroke-width="2" d="M 945 308 L 950 308" /><path stroke-width="2" d="M 945 308 L 950 308"></path><text y="314" xmlns="http://www.w3.org/2000/svg" x="955">45</text><path stroke-width="2" d="M 945 272 L 950 272" /><path stroke-width="2" d="M 945 272 L 950 272"></path><text xmlns="http://www.w3.org/2000/svg" x="955" y="278">89</text><path stroke-width="2" d="M 945 235 L 950 235" /><path stroke-width="2" d="M 945 235 L 950 235"></path><text xmlns="http://www.w3.org/2000/svg" x="955" y="241">134</text><path d="M 945 199 L 950 199" stroke-width="2" /><path stroke-width="2" d="M 945 199 L 950 199"></path><text xmlns="http://www.w3.org/2000/svg" x="955" y="205">178</text><path d="M 945 162 L 950 162" stroke-width="2" /><path stroke-width="2" d="M 945 162 L 950 162"></path><text y="168" xmlns="http://www.w3.org/2000/svg" x="955">223</text><path stroke-width="2" d="M 945 125 L 950 125" /><path stroke-width="2" d="M 945 125 L 950 125"></path><text xmlns="http://www.w3.org/2000/svg" x="955" y="131">267</text><path d="M 945 88 L 950 88" stroke-width="2" /><path stroke-width="2" d="M 945 88 L 950 88"></path><text xmlns="http://www.w3.org/2000/svg" x="955" y="94">312</text><path stroke-width="2" d="M 945 52 L 950 52" /><path stroke-width="2" d="M 945 52 L 950 52"></path><text xmlns="http://www.w3.org/2000/svg" x="955" y="58">356</text><path d="M 945 16 L 950 16" stroke-width="2" /><path stroke-width="2" d="M 945 16 L 950 16"></path><text xmlns="http://www.w3.org/2000/svg" x="955" y="22">400</text><text xmlns="http://www.w3.org/2000/svg" x="987" y="175" transform="rotate(90.00,987,175)">Stargazers</text><path stroke-width="2" d="M 57.000000 346.000000 L 945 346" /><path stroke-width="2" d="M 57.000000 346.000000 L 945 346"></path><path stroke-width="2" d="M 58 346 L 58 351" /><path stroke-width="2" d="M 58 346 L 58 351"></path><text xmlns="http://www.w3.org/2000/svg" x="25" y="368">2023-04-02</text><path stroke-width="2" d="M 157 346 L 157 351" /><path stroke-width="2" d="M 157 346 L 157 351"></path><text x="124" y="368" xmlns="http://www.w3.org/2000/svg">2023-05-11</text><path stroke-width="2" d="M 256 346 L 256 351" /><path stroke-width="2" d="M 256 346 L 256 351"></path><text xmlns="http://www.w3.org/2000/svg" x="223" y="368">2023-06-19</text><path stroke-width="2" d="M 354 346 L 354 351" /><path stroke-width="2" d="M 354 346 L 354 351"></path><text x="321" y="368" xmlns="http://www.w3.org/2000/svg">2023-07-29</text><path stroke-width="2" d="M 453 346 L 453 351" /><path stroke-width="2" d="M 453 346 L 453 351"></path><text xmlns="http://www.w3.org/2000/svg" x="420" y="368">2023-09-06</text><path d="M 551 346 L 551 351" stroke-width="2" /><path stroke-width="2" d="M 551 346 L 551 351"></path><text y="368" xmlns="http://www.w3.org/2000/svg" x="518">2023-10-15</text><path stroke-width="2" d="M 650 346 L 650 351" /><path stroke-width="2" d="M 650 346 L 650 351"></path><text y="368" xmlns="http://www.w3.org/2000/svg" x="617">2023-11-23</text><path stroke-width="2" d="M 748 346 L 748 351" /><path stroke-width="2" d="M 748 346 L 748 351"></path><text xmlns="http://www.w3.org/2000/svg" x="715" y="368">2024-01-02</text><path stroke-width="2" d="M 847 346 L 847 351" /><path stroke-width="2" d="M 847 346 L 847 351"></path><text y="368" xmlns="http://www.w3.org/2000/svg" x="814">2024-02-10</text><path stroke-width="2" d="M 945 346 L 945 351" /><path stroke-width="2" d="M 945 346 L 945 351"></path><text xmlns="http://www.w3.org/2000/svg" x="912" y="368">2024-03-20</text><text xmlns="http://www.w3.org/2000/svg" x="487" y="390">Time</text></svg>