<svg xmlns="http://www.w3.org/2000/svg" xmlns:xlink="http://www.w3.org/1999/xlink" width="1024px" height="400px"><style type="text/css">
path { fill: none; stroke: rgb(51,51,51); }
path.series { stroke: #6b63ff; }
rect.background { fill: rgb(255,255,255); stroke: none; }

text {
	stroke-width: 0;
	stroke: none;
	fill: rgba(51,51,51,1.0);
	font-size: 12.8px;
	font-family: 'Roboto Medium', sans-serif;
}
</style><rect class="background" rx="8" x="0" y="0" width="1024px" height="400px" /><rect x="0" y="0" width="1024px" height="400px" class="background" rx="8"></rect><path stroke-width="2" class="series" d="M 58 345 L 62 344 L 82 344 L 83 343 L 83 343 L 83 342 L 83 342 L 83 341 L 83 341 L 83 340 L 83 339 L 83 339 L 83 338 L 83 338 L 84 337 L 84 337 L 84 336 L 84 336 L 84 335 L 85 335 L 86 334 L 86 333 L 88 333 L 88 332 L 89 332 L 89 331 L 89 331 L 91 330 L 93 330 L 93 329 L 94 328 L 96 328 L 102 327 L 103 327 L 103 326 L 103 326 L 103 325 L 103 325 L 106 324 L 108 324 L 109 323 L 112 322 L 118 322 L 120 321 L 129 321 L 132 320 L 137 320 L 142 319 L 144 319 L 163 318 L 164 317 L 164 317 L 167 316 L 167 316 L 167 315 L 168 315 L 168 314 L 168 314 L 168 313 L 168 313 L 168 312 L 168 311 L 168 311 L 168 310 L 168 310 L 168 309 L 168 309 L 168 308 L 168 308 L 169 307 L 169 306 L 169 306 L 169 305 L 169 305 L 169 304 L 169 304 L 169 303 L 169 303 L 169 302 L 169 302 L 169 301 L 169 300 L 169 300 L 169 299 L 169 299 L 169 298 L 169 298 L 169 297 L 169 297 L 169 296 L 169 295 L 169 295 L 169 294 L 169 294 L 169 293 L 169 293 L 169 292 L 169 292 L 169 291 L 169 291 L 170 290 L 170 289 L 170 289 L 170 288 L 171 288 L 171 287 L 172 287 L 172 286 L 172 286 L 172 285 L 172 284 L 172 284 L 172 283 L 172 283 L 172 282 L 172 282 L 172 281 L 172 281 L 172 280 L 172 280 L 172 279 L 172 278 L 172 278 L 173 277 L 174 277 L 174 276 L 174 276 L 174 275 L 179 275 L 179 274 L 179 273 L 181 273 L 181 272 L 184 272 L 187 271 L 188 271 L 191 270 L 192 270 L 194 269 L 195 269 L 195 268 L 198 267 L 198 267 L 200 266 L 201 266 L 202 265 L 203 265 L 203 264 L 203 264 L 204 263 L 205 262 L 207 262 L 207 261 L 208 261 L 208 260 L 208 260 L 209 259 L 212 259 L 213 258 L 216 258 L 217 257 L 218 256 L 220 256 L 220 255 L 220 255 L 222 254 L 230 254 L 231 253 L 232 253 L 240 252 L 240 251 L 240 251 L 240 250 L 240 250 L 242 249 L 244 249 L 246 248 L 246 248 L 255 247 L 257 247 L 259 246 L 263 245 L 264 245 L 265 244 L 266 244 L 273 243 L 280 243 L 289 242 L 289 242 L 289 241 L 290 240 L 290 240 L 292 239 L 303 239 L 309 238 L 309 238 L 313 237 L 314 237 L 315 236 L 328 236 L 328 235 L 328 234 L 329 234 L 331 233 L 334 233 L 336 232 L 338 232 L 340 231 L 343 231 L 350 230 L 350 229 L 351 229 L 351 228 L 352 228 L 352 227 L 356 227 L 363 226 L 379 226 L 385 225 L 388 225 L 388 224 L 390 223 L 392 223 L 392 222 L 392 222 L 392 221 L 392 221 L 392 220 L 392 220 L 392 219 L 392 218 L 392 218 L 393 217 L 393 217 L 393 216 L 393 216 L 394 215 L 396 215 L 397 214 L 397 214 L 397 213 L 397 212 L 399 212 L 399 211 L 399 211 L 399 210 L 399 210 L 399 209 L 399 209 L 400 208 L 401 207 L 402 207 L 402 206 L 402 206 L 402 205 L 403 205 L 404 204 L 404 204 L 404 203 L 404 203 L 405 202 L 406 201 L 406 201 L 407 200 L 409 200 L 409 199 L 411 199 L 414 198 L 414 198 L 415 197 L 416 196 L 416 196 L 416 195 L 416 195 L 418 194 L 419 194 L 421 193 L 421 193 L 422 192 L 425 192 L 427 191 L 427 190 L 430 190 L 431 189 L 431 189 L 432 188 L 432 188 L 438 187 L 439 187 L 440 186 L 444 185 L 447 185 L 452 184 L 453 184 L 453 183 L 455 183 L 455 182 L 455 182 L 459 181 L 462 181 L 464 180 L 464 179 L 466 179 L 467 178 L 467 178 L 467 177 L 467 177 L 468 176 L 469 176 L 469 175 L 470 174 L 470 174 L 470 173 L 471 173 L 477 172 L 484 172 L 484 171 L 484 171 L 489 170 L 491 170 L 492 169 L 492 168 L 494 168 L 496 167 L 496 167 L 496 166 L 496 166 L 496 165 L 496 165 L 496 164 L 497 163 L 497 163 L 498 162 L 501 162 L 501 161 L 501 161 L 501 160 L 502 160 L 502 159 L 502 159 L 502 158 L 502 157 L 502 157 L 502 156 L 503 156 L 503 155 L 508 155 L 511 154 L 511 154 L 512 153 L 519 152 L 526 152 L 528 151 L 532 151 L 535 150 L 544 150 L 547 149 L 549 149 L 550 148 L 550 148 L 550 147 L 550 146 L 550 146 L 550 145 L 550 145 L 552 144 L 553 144 L 564 143 L 567 143 L 571 142 L 579 141 L 585 141 L 589 140 L 593 140 L 599 139 L 599 139 L 611 138 L 623 138 L 623 137 L 632 137 L 632 136 L 639 135 L 641 135 L 644 134 L 644 134 L 645 133 L 645 133 L 649 132 L 651 132 L 654 131 L 659 130 L 660 130 L 661 129 L 662 129 L 667 128 L 671 128 L 671 127 L 677 127 L 682 126 L 683 126 L 683 125 L 685 124 L 686 124 L 688 123 L 692 123 L 695 122 L 699 122 L 702 121 L 702 121 L 709 120 L 710 119 L 713 119 L 719 118 L 719 118 L 726 117 L 727 117 L 727 116 L 729 116 L 729 115 L 732 115 L 733 114 L 736 113 L 739 113 L 740 112 L 741 112 L 741 111 L 751 111 L 752 110 L 752 110 L 753 109 L 753 108 L 754 108 L 754 107 L 755 107 L 756 106 L 758 106 L 758 105 L 760 105 L 761 104 L 762 104 L 763 103 L 764 102 L 764 102 L 765 101 L 765 101 L 765 100 L 766 100 L 766 99 L 766 99 L 767 98 L 768 97 L 770 97 L 770 96 L 771 96 L 772 95 L 772 95 L 774 94 L 775 94 L 776 93 L 777 92 L 778 92 L 780 91 L 780 91 L 781 90 L 781 90 L 784 89 L 784 89 L 784 88 L 785 88 L 785 87 L 785 86 L 786 86 L 786 85 L 787 85 L 788 84 L 792 84 L 794 83 L 796 83 L 796 82 L 799 82 L 801 81 L 802 80 L 804 80 L 808 79 L 811 79 L 814 78 L 815 78 L 816 77 L 816 77 L 816 76 L 817 75 L 817 75 L 817 74 L 819 74 L 819 73 L 819 73 L 820 72 L 821 72 L 823 71 L 823 71 L 824 70 L 824 69 L 828 69 L 828 68 L 828 68 L 830 67 L 831 67 L 834 66 L 838 66 L 843 65 L 843 64 L 843 64 L 843 63 L 846 63 L 849 62 L 850 62 L 850 61 L 850 61 L 851 60 L 853 60 L 857 59 L 858 58 L 858 58 L 858 57 L 861 57 L 861 56 L 861 56 L 861 55 L 862 55 L 865 54 L 870 53 L 870 53 L 876 52 L 876 52 L 877 51 L 882 51 L 883 50 L 887 50 L 889 49 L 891 49 L 893 48 L 893 47 L 894 47 L 894 46 L 894 46 L 894 45 L 896 45 L 896 44 L 896 44 L 897 43 L 897 42 L 897 42 L 899 41 L 901 41 L 901 40 L 908 40 L 908 39 L 915 39 L 918 38 L 918 38 L 919 37 L 920 36 L 924 36 L 924 35 L 925 35 L 925 34 L 926 34 L 926 33 L 926 33 L 927 32 L 927 31 L 928 31 L 928 30 L 928 30 L 928 29 L 928 29 L 930 28 L 930 28 L 930 27 L 931 27 L 932 26 L 932 25 L 933 25 L 934 24 L 935 24 L 935 23 L 935 23 L 936 22 L 938 22 L 942 21 L 942 20 L 942 20 L 942 19 L 942 19 L 944 18 L 944 18 L 944 17 L 945 17" /><path stroke-width="2" class="series" d="M 58 345 L 62 344 L 82 344 L 83 343 L 83 343 L 83 342 L 83 342 L 83 341 L 83 341 L 83 340 L 83 339 L 83 339 L 83 338 L 83 338 L 84 337 L 84 337 L 84 336 L 84 336 L 84 335 L 85 335 L 86 334 L 86 333 L 88 333 L 88 332 L 89 332 L 89 331 L 89 331 L 91 330 L 93 330 L 93 329 L 94 328 L 96 328 L 102 327 L 103 327 L 103 326 L 103 326 L 103 325 L 103 325 L 106 324 L 108 324 L 109 323 L 112 322 L 118 322 L 120 321 L 129 321 L 132 320 L 137 320 L 142 319 L 144 319 L 163 318 L 164 317 L 164 317 L 167 316 L 167 316 L 167 315 L 168 315 L 168 314 L 168 314 L 168 313 L 168 313 L 168 312 L 168 311 L 168 311 L 168 310 L 168 310 L 168 309 L 168 309 L 168 308 L 168 308 L 169 307 L 169 306 L 169 306 L 169 305 L 169 305 L 169 304 L 169 304 L 169 303 L 169 303 L 169 302 L 169 302 L 169 301 L 169 300 L 169 300 L 169 299 L 169 299 L 169 298 L 169 298 L 169 297 L 169 297 L 169 296 L 169 295 L 169 295 L 169 294 L 169 294 L 169 293 L 169 293 L 169 292 L 169 292 L 169 291 L 169 291 L 170 290 L 170 289 L 170 289 L 170 288 L 171 288 L 171 287 L 172 287 L 172 286 L 172 286 L 172 285 L 172 284 L 172 284 L 172 283 L 172 283 L 172 282 L 172 282 L 172 281 L 172 281 L 172 280 L 172 280 L 172 279 L 172 278 L 172 278 L 173 277 L 174 277 L 174 276 L 174 276 L 174 275 L 179 275 L 179 274 L 179 273 L 181 273 L 181 272 L 184 272 L 187 271 L 188 271 L 191 270 L 192 270 L 194 269 L 195 269 L 195 268 L 198 267 L 198 267 L 200 266 L 201 266 L 202 265 L 203 265 L 203 264 L 203 264 L 204 263 L 205 262 L 207 262 L 207 261 L 208 261 L 208 260 L 208 260 L 209 259 L 212 259 L 213 258 L 216 258 L 217 257 L 218 256 L 220 256 L 220 255 L 220 255 L 222 254 L 230 254 L 231 253 L 232 253 L 240 252 L 240 251 L 240 251 L 240 250 L 240 250 L 242 249 L 244 249 L 246 248 L 246 248 L 255 247 L 257 247 L 259 246 L 263 245 L 264 245 L 265 244 L 266 244 L 273 243 L 280 243 L 289 242 L 289 242 L 289 241 L 290 240 L 290 240 L 292 239 L 303 239 L 309 238 L 309 238 L 313 237 L 314 237 L 315 236 L 328 236 L 328 235 L 328 234 L 329 234 L 331 233 L 334 233 L 336 232 L 338 232 L 340 231 L 343 231 L 350 230 L 350 229 L 351 229 L 351 228 L 352 228 L 352 227 L 356 227 L 363 226 L 379 226 L 385 225 L 388 225 L 388 224 L 390 223 L 392 223 L 392 222 L 392 222 L 392 221 L 392 221 L 392 220 L 392 220 L 392 219 L 392 218 L 392 218 L 393 217 L 393 217 L 393 216 L 393 216 L 394 215 L 396 215 L 397 214 L 397 214 L 397 213 L 397 212 L 399 212 L 399 211 L 399 211 L 399 210 L 399 210 L 399 209 L 399 209 L 400 208 L 401 207 L 402 207 L 402 206 L 402 206 L 402 205 L 403 205 L 404 204 L 404 204 L 404 203 L 404 203 L 405 202 L 406 201 L 406 201 L 407 200 L 409 200 L 409 199 L 411 199 L 414 198 L 414 198 L 415 197 L 416 196 L 416 196 L 416 195 L 416 195 L 418 194 L 419 194 L 421 193 L 421 193 L 422 192 L 425 192 L 427 191 L 427 190 L 430 190 L 431 189 L 431 189 L 432 188 L 432 188 L 438 187 L 439 187 L 440 186 L 444 185 L 447 185 L 452 184 L 453 184 L 453 183 L 455 183 L 455 182 L 455 182 L 459 181 L 462 181 L 464 180 L 464 179 L 466 179 L 467 178 L 467 178 L 467 177 L 467 177 L 468 176 L 469 176 L 469 175 L 470 174 L 470 174 L 470 173 L 471 173 L 477 172 L 484 172 L 484 171 L 484 171 L 489 170 L 491 170 L 492 169 L 492 168 L 494 168 L 496 167 L 496 167 L 496 166 L 496 166 L 496 165 L 496 165 L 496 164 L 497 163 L 497 163 L 498 162 L 501 162 L 501 161 L 501 161 L 501 160 L 502 160 L 502 159 L 502 159 L 502 158 L 502 157 L 502 157 L 502 156 L 503 156 L 503 155 L 508 155 L 511 154 L 511 154 L 512 153 L 519 152 L 526 152 L 528 151 L 532 151 L 535 150 L 544 150 L 547 149 L 549 149 L 550 148 L 550 148 L 550 147 L 550 146 L 550 146 L 550 145 L 550 145 L 552 144 L 553 144 L 564 143 L 567 143 L 571 142 L 579 141 L 585 141 L 589 140 L 593 140 L 599 139 L 599 139 L 611 138 L 623 138 L 623 137 L 632 137 L 632 136 L 639 135 L 641 135 L 644 134 L 644 134 L 645 133 L 645 133 L 649 132 L 651 132 L 654 131 L 659 130 L 660 130 L 661 129 L 662 129 L 667 128 L 671 128 L 671 127 L 677 127 L 682 126 L 683 126 L 683 125 L 685 124 L 686 124 L 688 123 L 692 123 L 695 122 L 699 122 L 702 121 L 702 121 L 709 120 L 710 119 L 713 119 L 719 118 L 719 118 L 726 117 L 727 117 L 727 116 L 729 116 L 729 115 L 732 115 L 733 114 L 736 113 L 739 113 L 740 112 L 741 112 L 741 111 L 751 111 L 752 110 L 752 110 L 753 109 L 753 108 L 754 108 L 754 107 L 755 107 L 756 106 L 758 106 L 758 105 L 760 105 L 761 104 L 762 104 L 763 103 L 764 102 L 764 102 L 765 101 L 765 101 L 765 100 L 766 100 L 766 99 L 766 99 L 767 98 L 768 97 L 770 97 L 770 96 L 771 96 L 772 95 L 772 95 L 774 94 L 775 94 L 776 93 L 777 92 L 778 92 L 780 91 L 780 91 L 781 90 L 781 90 L 784 89 L 784 89 L 784 88 L 785 88 L 785 87 L 785 86 L 786 86 L 786 85 L 787 85 L 788 84 L 792 84 L 794 83 L 796 83 L 796 82 L 799 82 L 801 81 L 802 80 L 804 80 L 808 79 L 811 79 L 814 78 L 815 78 L 816 77 L 816 77 L 816 76 L 817 75 L 817 75 L 817 74 L 819 74 L 819 73 L 819 73 L 820 72 L 821 72 L 823 71 L 823 71 L 824 70 L 824 69 L 828 69 L 828 68 L 828 68 L 830 67 L 831 67 L 834 66 L 838 66 L 843 65 L 843 64 L 843 64 L 843 63 L 846 63 L 849 62 L 850 62 L 850 61 L 850 61 L 851 60 L 853 60 L 857 59 L 858 58 L 858 58 L 858 57 L 861 57 L 861 56 L 861 56 L 861 55 L 862 55 L 865 54 L 870 53 L 870 53 L 876 52 L 876 52 L 877 51 L 882 51 L 883 50 L 887 50 L 889 49 L 891 49 L 893 48 L 893 47 L 894 47 L 894 46 L 894 46 L 894 45 L 896 45 L 896 44 L 896 44 L 897 43 L 897 42 L 897 42 L 899 41 L 901 41 L 901 40 L 908 40 L 908 39 L 915 39 L 918 38 L 918 38 L 919 37 L 920 36 L 924 36 L 924 35 L 925 35 L 925 34 L 926 34 L 926 33 L 926 33 L 927 32 L 927 31 L 928 31 L 928 30 L 928 30 L 928 29 L 928 29 L 930 28 L 930 28 L 930 27 L 931 27 L 932 26 L 932 25 L 933 25 L 934 24 L 935 24 L 935 23 L 935 23 L 936 22 L 938 22 L 942 21 L 942 20 L 942 20 L 942 19 L 942 19 L 944 18 L 944 18 L 944 17 L 945 17"></path><path stroke-width="2" d="M 945 346 L 945.000000 15.000000" /><path stroke-width="2" d="M 945 346 L 945.000000 15.000000"></path><path stroke-width="2" d="M 945 346 L 950 346" /><path stroke-width="2" d="M 945 346 L 950 346"></path><text x="955" y="352" xmlns="http://www.w3.org/2000/svg">0</text><path stroke-width="2" d="M 945 309 L 950 309" /><path stroke-width="2" d="M 945 309 L 950 309"></path><text x="955" y="315" xmlns="http://www.w3.org/2000/svg">67</text><path d="M 945 272 L 950 272" stroke-width="2" /><path stroke-width="2" d="M 945 272 L 950 272"></path><text xmlns="http://www.w3.org/2000/svg" x="955" y="278">134</text><path stroke-width="2" d="M 945 236 L 950 236" /><path stroke-width="2" d="M 945 236 L 950 236"></path><text xmlns="http://www.w3.org/2000/svg" x="955" y="242">200</text><path d="M 945 199 L 950 199" stroke-width="2" /><path stroke-width="2" d="M 945 199 L 950 199"></path><text y="205" xmlns="http://www.w3.org/2000/svg" x="955">267</text><path stroke-width="2" d="M 945 162 L 950 162" /><path stroke-width="2" d="M 945 162 L 950 162"></path><text xmlns="http://www.w3.org/2000/svg" x="955" y="168">334</text><path d="M 945 126 L 950 126" stroke-width="2" /><path stroke-width="2" d="M 945 126 L 950 126"></path><text x="955" y="132" xmlns="http://www.w3.org/2000/svg">400</text><path d="M 945 89 L 950 89" stroke-width="2" /><path stroke-width="2" d="M 945 89 L 950 89"></path><text xmlns="http://www.w3.org/2000/svg" x="955" y="95">467</text><path stroke-width="2" d="M 945 52 L 950 52" /><path stroke-width="2" d="M 945 52 L 950 52"></path><text xmlns="http://www.w3.org/2000/svg" x="955" y="58">534</text><path stroke-width="2" d="M 945 16 L 950 16" /><path stroke-width="2" d="M 945 16 L 950 16"></path><text x="955" y="22" xmlns="http://www.w3.org/2000/svg">600</text><text transform="rotate(90.00,987,175)" xmlns="http://www.w3.org/2000/svg" x="987" y="175">Stargazers</text><path stroke-width="2" d="M 57.000000 346.000000 L 945 346" /><path stroke-width="2" d="M 57.000000 346.000000 L 945 346"></path><path stroke-width="2" d="M 58 346 L 58 351" /><path stroke-width="2" d="M 58 346 L 58 351"></path><text x="25" y="368" xmlns="http://www.w3.org/2000/svg">2023-04-02</text><path stroke-width="2" d="M 157 346 L 157 351" /><path stroke-width="2" d="M 157 346 L 157 351"></path><text xmlns="http://www.w3.org/2000/svg" x="124" y="368">2023-05-30</text><path stroke-width="2" d="M 256 346 L 256 351" /><path stroke-width="2" d="M 256 346 L 256 351"></path><text xmlns="http://www.w3.org/2000/svg" x="223" y="368">2023-07-27</text><path stroke-width="2" d="M 354 346 L 354 351" /><path stroke-width="2" d="M 354 346 L 354 351"></path><text xmlns="http://www.w3.org/2000/svg" x="321" y="368">2023-09-23</text><path stroke-width="2" d="M 453 346 L 453 351" /><path stroke-width="2" d="M 453 346 L 453 351"></path><text xmlns="http://www.w3.org/2000/svg" x="420" y="368">2023-11-20</text><path stroke-width="2" d="M 551 346 L 551 351" /><path stroke-width="2" d="M 551 346 L 551 351"></path><text xmlns="http://www.w3.org/2000/svg" x="518" y="368">2024-01-16</text><path stroke-width="2" d="M 650 346 L 650 351" /><path stroke-width="2" d="M 650 346 L 650 351"></path><text xmlns="http://www.w3.org/2000/svg" x="617" y="368">2024-03-14</text><path stroke-width="2" d="M 748 346 L 748 351" /><path stroke-width="2" d="M 748 346 L 748 351"></path><text y="368" xmlns="http://www.w3.org/2000/svg" x="715">2024-05-11</text><path stroke-width="2" d="M 847 346 L 847 351" /><path stroke-width="2" d="M 847 346 L 847 351"></path><text x="814" y="368" xmlns="http://www.w3.org/2000/svg">2024-07-08</text><path stroke-width="2" d="M 945 346 L 945 351" /><path stroke-width="2" d="M 945 346 L 945 351"></path><text xmlns="http://www.w3.org/2000/svg" x="912" y="368">2024-09-04</text><text xmlns="http://www.w3.org/2000/svg" x="487" y="390">Time</text></svg>