<svg xmlns="http://www.w3.org/2000/svg" xmlns:xlink="http://www.w3.org/1999/xlink" width="1024px" height="400px"><style type="text/css">
path { fill: none; stroke: rgb(51,51,51); }
path.series { stroke: #6b63ff; }
rect.background { fill: rgb(255,255,255); stroke: none; }

text {
	stroke-width: 0;
	stroke: none;
	fill: rgba(51,51,51,1.0);
	font-size: 12.8px;
	font-family: 'Roboto Medium', sans-serif;
}
</style><rect x="0" y="0" width="1024px" height="400px" class="background" rx="8" /><rect class="background" rx="8" x="0" y="0" width="1024px" height="400px"></rect><path stroke-width="2" class="series" d="M 58 345 L 61 345 L 80 344 L 80 344 L 80 343 L 80 343 L 80 342 L 80 342 L 80 341 L 80 341 L 81 340 L 81 340 L 81 339 L 81 339 L 81 338 L 81 338 L 81 337 L 82 337 L 82 336 L 83 336 L 83 335 L 83 335 L 85 335 L 85 334 L 86 334 L 86 333 L 86 333 L 87 332 L 89 332 L 90 331 L 91 331 L 92 330 L 98 330 L 98 329 L 98 329 L 98 328 L 98 328 L 98 327 L 102 327 L 103 326 L 104 326 L 107 325 L 112 325 L 113 324 L 122 324 L 124 324 L 129 323 L 133 323 L 135 322 L 153 322 L 154 321 L 154 321 L 156 320 L 157 320 L 157 319 L 157 319 L 157 318 L 157 318 L 157 317 L 157 317 L 157 316 L 157 316 L 157 315 L 157 315 L 157 314 L 158 314 L 158 313 L 158 313 L 158 313 L 158 312 L 158 312 L 158 311 L 158 311 L 158 310 L 158 310 L 158 309 L 158 309 L 158 308 L 158 308 L 158 307 L 158 307 L 158 306 L 158 306 L 158 305 L 158 305 L 158 304 L 158 304 L 158 303 L 158 303 L 158 302 L 158 302 L 158 302 L 158 301 L 158 301 L 158 300 L 158 300 L 158 299 L 158 299 L 158 298 L 158 298 L 159 297 L 159 297 L 159 296 L 159 296 L 159 295 L 160 295 L 161 294 L 161 294 L 161 293 L 161 293 L 161 292 L 161 292 L 161 291 L 161 291 L 161 291 L 161 290 L 161 290 L 161 289 L 161 289 L 161 288 L 161 288 L 161 287 L 161 287 L 161 286 L 162 286 L 163 285 L 163 285 L 163 284 L 167 284 L 167 283 L 167 283 L 169 282 L 169 282 L 171 281 L 174 281 L 175 280 L 178 280 L 179 280 L 180 279 L 181 279 L 181 278 L 184 278 L 184 277 L 185 277 L 187 276 L 187 276 L 188 275 L 189 275 L 189 274 L 189 274 L 191 273 L 192 273 L 192 272 L 193 272 L 193 271 L 193 271 L 194 270 L 196 270 L 198 269 L 200 269 L 201 269 L 202 268 L 203 268 L 204 267 L 204 267 L 206 266 L 213 266 L 213 265 L 215 265 L 222 264 L 222 264 L 222 263 L 222 263 L 222 262 L 223 262 L 226 261 L 227 261 L 227 260 L 236 260 L 237 259 L 239 259 L 242 258 L 244 258 L 244 258 L 245 257 L 251 257 L 258 256 L 266 256 L 266 255 L 266 255 L 267 254 L 267 254 L 269 253 L 279 253 L 284 252 L 284 252 L 288 251 L 289 251 L 289 250 L 301 250 L 301 249 L 301 249 L 302 248 L 303 248 L 307 247 L 308 247 L 310 247 L 312 246 L 314 246 L 321 245 L 321 245 L 322 244 L 322 244 L 322 243 L 323 243 L 326 242 L 333 242 L 347 241 L 352 241 L 355 240 L 355 240 L 357 239 L 359 239 L 359 238 L 359 238 L 359 237 L 359 237 L 359 236 L 359 236 L 359 236 L 359 235 L 359 235 L 359 234 L 359 234 L 359 233 L 360 233 L 360 232 L 362 232 L 363 231 L 363 231 L 363 230 L 363 230 L 365 229 L 365 229 L 365 228 L 365 228 L 365 227 L 365 227 L 365 226 L 366 226 L 367 225 L 368 225 L 368 225 L 368 224 L 368 224 L 368 223 L 369 223 L 369 222 L 369 222 L 370 221 L 371 221 L 371 220 L 371 220 L 372 219 L 374 219 L 374 218 L 376 218 L 379 217 L 379 217 L 380 216 L 380 216 L 380 215 L 380 215 L 380 214 L 382 214 L 383 214 L 385 213 L 385 213 L 386 212 L 388 212 L 390 211 L 390 211 L 393 210 L 393 210 L 394 209 L 395 209 L 395 208 L 400 208 L 401 207 L 402 207 L 406 206 L 408 206 L 412 205 L 413 205 L 414 204 L 415 204 L 415 203 L 415 203 L 419 203 L 421 202 L 423 202 L 423 201 L 425 201 L 426 200 L 426 200 L 426 199 L 427 199 L 427 198 L 428 198 L 428 197 L 429 197 L 429 196 L 429 196 L 430 195 L 435 195 L 441 194 L 441 194 L 442 193 L 446 193 L 448 192 L 449 192 L 449 192 L 451 191 L 452 191 L 452 190 L 452 190 L 452 189 L 452 189 L 452 188 L 453 188 L 453 187 L 453 187 L 454 186 L 457 186 L 457 185 L 457 185 L 457 184 L 457 184 L 458 183 L 458 183 L 458 182 L 458 182 L 458 181 L 458 181 L 458 181 L 458 180 L 463 180 L 466 179 L 466 179 L 467 178 L 480 178 L 481 177 L 485 177 L 488 176 L 495 176 L 498 175 L 500 175 L 501 174 L 501 174 L 501 173 L 501 173 L 501 172 L 501 172 L 501 171 L 503 171 L 504 170 L 513 170 L 516 170 L 520 169 L 527 169 L 532 168 L 536 168 L 539 167 L 545 167 L 545 166 L 556 166 L 567 165 L 567 165 L 575 164 L 575 164 L 581 163 L 582 163 L 586 162 L 586 162 L 587 161 L 587 161 L 590 160 L 592 160 L 595 159 L 599 159 L 600 159 L 601 158 L 602 158 L 606 157 L 610 157 L 610 156 L 615 156 L 620 155 L 620 155 L 621 154 L 623 154 L 624 153 L 625 153 L 629 152 L 632 152 L 635 151 L 638 151 L 638 150 L 644 150 L 645 149 L 648 149 L 653 148 L 653 148 L 659 148 L 660 147 L 660 147 L 662 146 L 662 146 L 665 145 L 665 145 L 668 144 L 671 144 L 672 143 L 673 143 L 673 142 L 682 142 L 682 141 L 683 141 L 683 140 L 684 140 L 685 139 L 685 139 L 685 138 L 686 138 L 688 137 L 688 137 L 690 137 L 691 136 L 692 136 L 692 135 L 693 135 L 693 134 L 694 134 L 694 133 L 694 133 L 695 132 L 695 132 L 696 131 L 696 131 L 697 130 L 699 130 L 699 129 L 699 129 L 700 128 L 701 128 L 702 127 L 704 127 L 704 126 L 705 126 L 706 126 L 708 125 L 708 125 L 709 124 L 709 124 L 712 123 L 712 123 L 712 122 L 712 122 L 713 121 L 713 121 L 713 120 L 714 120 L 714 119 L 715 119 L 719 118 L 720 118 L 722 117 L 722 117 L 725 116 L 727 116 L 727 115 L 730 115 L 733 115 L 736 114 L 739 114 L 740 113 L 740 113 L 740 112 L 740 112 L 741 111 L 742 111 L 742 110 L 743 110 L 743 109 L 743 109 L 743 108 L 745 108 L 746 107 L 746 107 L 748 106 L 748 106 L 751 105 L 751 105 L 752 104 L 753 104 L 754 104 L 757 103 L 760 103 L 765 102 L 765 102 L 765 101 L 765 101 L 767 100 L 770 100 L 771 99 L 771 99 L 771 98 L 771 98 L 774 97 L 777 97 L 778 96 L 778 96 L 778 95 L 780 95 L 781 94 L 781 94 L 781 93 L 781 93 L 785 92 L 789 92 L 789 92 L 794 91 L 794 91 L 795 90 L 800 90 L 801 89 L 804 89 L 806 88 L 808 88 L 810 87 L 810 87 L 810 86 L 811 86 L 811 85 L 811 85 L 812 84 L 812 84 L 812 83 L 814 83 L 814 82 L 814 82 L 815 82 L 816 81 L 817 81 L 823 80 L 823 80 L 829 79 L 832 79 L 832 78 L 833 78 L 834 77 L 837 77 L 838 76 L 839 76 L 839 75 L 840 75 L 840 74 L 840 74 L 840 73 L 840 73 L 841 72 L 841 72 L 841 71 L 841 71 L 842 71 L 842 70 L 843 70 L 843 69 L 844 69 L 845 68 L 845 68 L 846 67 L 848 67 L 848 66 L 848 66 L 849 65 L 850 65 L 853 64 L 854 64 L 854 63 L 854 63 L 854 62 L 855 62 L 855 61 L 855 61 L 857 60 L 859 60 L 863 60 L 866 59 L 867 59 L 869 58 L 873 58 L 878 57 L 878 57 L 882 56 L 887 56 L 887 55 L 887 55 L 893 54 L 895 54 L 895 53 L 896 53 L 896 52 L 907 52 L 907 51 L 908 51 L 908 50 L 909 50 L 910 49 L 911 49 L 912 49 L 912 48 L 913 48 L 913 47 L 914 47 L 915 46 L 915 46 L 915 45 L 915 45 L 915 44 L 916 44 L 916 43 L 917 43 L 918 42 L 919 42 L 920 41 L 921 41 L 921 40 L 921 40 L 922 39 L 923 39 L 924 38 L 924 38 L 926 38 L 926 37 L 926 37 L 926 36 L 928 36 L 929 35 L 930 35 L 930 34 L 932 34 L 932 33 L 933 33 L 933 32 L 933 32 L 933 31 L 934 31 L 935 30 L 935 30 L 937 29 L 937 29 L 938 28 L 939 28 L 939 27 L 939 27 L 939 27 L 940 26 L 940 26 L 941 25 L 941 25 L 942 24 L 942 24 L 943 23 L 943 23 L 944 22 L 944 22 L 944 21 L 944 21 L 944 20 L 945 20 L 945 19 L 945 19 L 945 18 L 945 18" /><path stroke-width="2" class="series" d="M 58 345 L 61 345 L 80 344 L 80 344 L 80 343 L 80 343 L 80 342 L 80 342 L 80 341 L 80 341 L 81 340 L 81 340 L 81 339 L 81 339 L 81 338 L 81 338 L 81 337 L 82 337 L 82 336 L 83 336 L 83 335 L 83 335 L 85 335 L 85 334 L 86 334 L 86 333 L 86 333 L 87 332 L 89 332 L 90 331 L 91 331 L 92 330 L 98 330 L 98 329 L 98 329 L 98 328 L 98 328 L 98 327 L 102 327 L 103 326 L 104 326 L 107 325 L 112 325 L 113 324 L 122 324 L 124 324 L 129 323 L 133 323 L 135 322 L 153 322 L 154 321 L 154 321 L 156 320 L 157 320 L 157 319 L 157 319 L 157 318 L 157 318 L 157 317 L 157 317 L 157 316 L 157 316 L 157 315 L 157 315 L 157 314 L 158 314 L 158 313 L 158 313 L 158 313 L 158 312 L 158 312 L 158 311 L 158 311 L 158 310 L 158 310 L 158 309 L 158 309 L 158 308 L 158 308 L 158 307 L 158 307 L 158 306 L 158 306 L 158 305 L 158 305 L 158 304 L 158 304 L 158 303 L 158 303 L 158 302 L 158 302 L 158 302 L 158 301 L 158 301 L 158 300 L 158 300 L 158 299 L 158 299 L 158 298 L 158 298 L 159 297 L 159 297 L 159 296 L 159 296 L 159 295 L 160 295 L 161 294 L 161 294 L 161 293 L 161 293 L 161 292 L 161 292 L 161 291 L 161 291 L 161 291 L 161 290 L 161 290 L 161 289 L 161 289 L 161 288 L 161 288 L 161 287 L 161 287 L 161 286 L 162 286 L 163 285 L 163 285 L 163 284 L 167 284 L 167 283 L 167 283 L 169 282 L 169 282 L 171 281 L 174 281 L 175 280 L 178 280 L 179 280 L 180 279 L 181 279 L 181 278 L 184 278 L 184 277 L 185 277 L 187 276 L 187 276 L 188 275 L 189 275 L 189 274 L 189 274 L 191 273 L 192 273 L 192 272 L 193 272 L 193 271 L 193 271 L 194 270 L 196 270 L 198 269 L 200 269 L 201 269 L 202 268 L 203 268 L 204 267 L 204 267 L 206 266 L 213 266 L 213 265 L 215 265 L 222 264 L 222 264 L 222 263 L 222 263 L 222 262 L 223 262 L 226 261 L 227 261 L 227 260 L 236 260 L 237 259 L 239 259 L 242 258 L 244 258 L 244 258 L 245 257 L 251 257 L 258 256 L 266 256 L 266 255 L 266 255 L 267 254 L 267 254 L 269 253 L 279 253 L 284 252 L 284 252 L 288 251 L 289 251 L 289 250 L 301 250 L 301 249 L 301 249 L 302 248 L 303 248 L 307 247 L 308 247 L 310 247 L 312 246 L 314 246 L 321 245 L 321 245 L 322 244 L 322 244 L 322 243 L 323 243 L 326 242 L 333 242 L 347 241 L 352 241 L 355 240 L 355 240 L 357 239 L 359 239 L 359 238 L 359 238 L 359 237 L 359 237 L 359 236 L 359 236 L 359 236 L 359 235 L 359 235 L 359 234 L 359 234 L 359 233 L 360 233 L 360 232 L 362 232 L 363 231 L 363 231 L 363 230 L 363 230 L 365 229 L 365 229 L 365 228 L 365 228 L 365 227 L 365 227 L 365 226 L 366 226 L 367 225 L 368 225 L 368 225 L 368 224 L 368 224 L 368 223 L 369 223 L 369 222 L 369 222 L 370 221 L 371 221 L 371 220 L 371 220 L 372 219 L 374 219 L 374 218 L 376 218 L 379 217 L 379 217 L 380 216 L 380 216 L 380 215 L 380 215 L 380 214 L 382 214 L 383 214 L 385 213 L 385 213 L 386 212 L 388 212 L 390 211 L 390 211 L 393 210 L 393 210 L 394 209 L 395 209 L 395 208 L 400 208 L 401 207 L 402 207 L 406 206 L 408 206 L 412 205 L 413 205 L 414 204 L 415 204 L 415 203 L 415 203 L 419 203 L 421 202 L 423 202 L 423 201 L 425 201 L 426 200 L 426 200 L 426 199 L 427 199 L 427 198 L 428 198 L 428 197 L 429 197 L 429 196 L 429 196 L 430 195 L 435 195 L 441 194 L 441 194 L 442 193 L 446 193 L 448 192 L 449 192 L 449 192 L 451 191 L 452 191 L 452 190 L 452 190 L 452 189 L 452 189 L 452 188 L 453 188 L 453 187 L 453 187 L 454 186 L 457 186 L 457 185 L 457 185 L 457 184 L 457 184 L 458 183 L 458 183 L 458 182 L 458 182 L 458 181 L 458 181 L 458 181 L 458 180 L 463 180 L 466 179 L 466 179 L 467 178 L 480 178 L 481 177 L 485 177 L 488 176 L 495 176 L 498 175 L 500 175 L 501 174 L 501 174 L 501 173 L 501 173 L 501 172 L 501 172 L 501 171 L 503 171 L 504 170 L 513 170 L 516 170 L 520 169 L 527 169 L 532 168 L 536 168 L 539 167 L 545 167 L 545 166 L 556 166 L 567 165 L 567 165 L 575 164 L 575 164 L 581 163 L 582 163 L 586 162 L 586 162 L 587 161 L 587 161 L 590 160 L 592 160 L 595 159 L 599 159 L 600 159 L 601 158 L 602 158 L 606 157 L 610 157 L 610 156 L 615 156 L 620 155 L 620 155 L 621 154 L 623 154 L 624 153 L 625 153 L 629 152 L 632 152 L 635 151 L 638 151 L 638 150 L 644 150 L 645 149 L 648 149 L 653 148 L 653 148 L 659 148 L 660 147 L 660 147 L 662 146 L 662 146 L 665 145 L 665 145 L 668 144 L 671 144 L 672 143 L 673 143 L 673 142 L 682 142 L 682 141 L 683 141 L 683 140 L 684 140 L 685 139 L 685 139 L 685 138 L 686 138 L 688 137 L 688 137 L 690 137 L 691 136 L 692 136 L 692 135 L 693 135 L 693 134 L 694 134 L 694 133 L 694 133 L 695 132 L 695 132 L 696 131 L 696 131 L 697 130 L 699 130 L 699 129 L 699 129 L 700 128 L 701 128 L 702 127 L 704 127 L 704 126 L 705 126 L 706 126 L 708 125 L 708 125 L 709 124 L 709 124 L 712 123 L 712 123 L 712 122 L 712 122 L 713 121 L 713 121 L 713 120 L 714 120 L 714 119 L 715 119 L 719 118 L 720 118 L 722 117 L 722 117 L 725 116 L 727 116 L 727 115 L 730 115 L 733 115 L 736 114 L 739 114 L 740 113 L 740 113 L 740 112 L 740 112 L 741 111 L 742 111 L 742 110 L 743 110 L 743 109 L 743 109 L 743 108 L 745 108 L 746 107 L 746 107 L 748 106 L 748 106 L 751 105 L 751 105 L 752 104 L 753 104 L 754 104 L 757 103 L 760 103 L 765 102 L 765 102 L 765 101 L 765 101 L 767 100 L 770 100 L 771 99 L 771 99 L 771 98 L 771 98 L 774 97 L 777 97 L 778 96 L 778 96 L 778 95 L 780 95 L 781 94 L 781 94 L 781 93 L 781 93 L 785 92 L 789 92 L 789 92 L 794 91 L 794 91 L 795 90 L 800 90 L 801 89 L 804 89 L 806 88 L 808 88 L 810 87 L 810 87 L 810 86 L 811 86 L 811 85 L 811 85 L 812 84 L 812 84 L 812 83 L 814 83 L 814 82 L 814 82 L 815 82 L 816 81 L 817 81 L 823 80 L 823 80 L 829 79 L 832 79 L 832 78 L 833 78 L 834 77 L 837 77 L 838 76 L 839 76 L 839 75 L 840 75 L 840 74 L 840 74 L 840 73 L 840 73 L 841 72 L 841 72 L 841 71 L 841 71 L 842 71 L 842 70 L 843 70 L 843 69 L 844 69 L 845 68 L 845 68 L 846 67 L 848 67 L 848 66 L 848 66 L 849 65 L 850 65 L 853 64 L 854 64 L 854 63 L 854 63 L 854 62 L 855 62 L 855 61 L 855 61 L 857 60 L 859 60 L 863 60 L 866 59 L 867 59 L 869 58 L 873 58 L 878 57 L 878 57 L 882 56 L 887 56 L 887 55 L 887 55 L 893 54 L 895 54 L 895 53 L 896 53 L 896 52 L 907 52 L 907 51 L 908 51 L 908 50 L 909 50 L 910 49 L 911 49 L 912 49 L 912 48 L 913 48 L 913 47 L 914 47 L 915 46 L 915 46 L 915 45 L 915 45 L 915 44 L 916 44 L 916 43 L 917 43 L 918 42 L 919 42 L 920 41 L 921 41 L 921 40 L 921 40 L 922 39 L 923 39 L 924 38 L 924 38 L 926 38 L 926 37 L 926 37 L 926 36 L 928 36 L 929 35 L 930 35 L 930 34 L 932 34 L 932 33 L 933 33 L 933 32 L 933 32 L 933 31 L 934 31 L 935 30 L 935 30 L 937 29 L 937 29 L 938 28 L 939 28 L 939 27 L 939 27 L 939 27 L 940 26 L 940 26 L 941 25 L 941 25 L 942 24 L 942 24 L 943 23 L 943 23 L 944 22 L 944 22 L 944 21 L 944 21 L 944 20 L 945 20 L 945 19 L 945 19 L 945 18 L 945 18"></path><path stroke-width="2" d="M 945 346 L 945.000000 15.000000" /><path stroke-width="2" d="M 945 346 L 945.000000 15.000000"></path><path d="M 945 346 L 950 346" stroke-width="2" /><path d="M 945 346 L 950 346" stroke-width="2"></path><text xmlns="http://www.w3.org/2000/svg" x="955" y="352">0</text><path stroke-width="2" d="M 945 309 L 950 309" /><path stroke-width="2" d="M 945 309 L 950 309"></path><text xmlns="http://www.w3.org/2000/svg" x="955" y="315">77</text><path stroke-width="2" d="M 945 272 L 950 272" /><path d="M 945 272 L 950 272" stroke-width="2"></path><text xmlns="http://www.w3.org/2000/svg" x="955" y="278">154</text><path stroke-width="2" d="M 945 236 L 950 236" /><path stroke-width="2" d="M 945 236 L 950 236"></path><text y="242" xmlns="http://www.w3.org/2000/svg" x="955">230</text><path stroke-width="2" d="M 945 199 L 950 199" /><path stroke-width="2" d="M 945 199 L 950 199"></path><text xmlns="http://www.w3.org/2000/svg" x="955" y="205">307</text><path stroke-width="2" d="M 945 162 L 950 162" /><path stroke-width="2" d="M 945 162 L 950 162"></path><text x="955" y="168" xmlns="http://www.w3.org/2000/svg">384</text><path stroke-width="2" d="M 945 126 L 950 126" /><path stroke-width="2" d="M 945 126 L 950 126"></path><text xmlns="http://www.w3.org/2000/svg" x="955" y="132">460</text><path d="M 945 89 L 950 89" stroke-width="2" /><path stroke-width="2" d="M 945 89 L 950 89"></path><text xmlns="http://www.w3.org/2000/svg" x="955" y="95">537</text><path stroke-width="2" d="M 945 52 L 950 52" /><path stroke-width="2" d="M 945 52 L 950 52"></path><text xmlns="http://www.w3.org/2000/svg" x="955" y="58">614</text><path stroke-width="2" d="M 945 16 L 950 16" /><path stroke-width="2" d="M 945 16 L 950 16"></path><text x="955" y="22" xmlns="http://www.w3.org/2000/svg">690</text><text xmlns="http://www.w3.org/2000/svg" x="987" y="175" transform="rotate(90.00,987,175)">Stargazers</text><path stroke-width="2" d="M 57.000000 346.000000 L 945 346" /><path stroke-width="2" d="M 57.000000 346.000000 L 945 346"></path><path stroke-width="2" d="M 58 346 L 58 351" /><path stroke-width="2" d="M 58 346 L 58 351"></path><text xmlns="http://www.w3.org/2000/svg" x="25" y="368">2023-04-02</text><path stroke-width="2" d="M 157 346 L 157 351" /><path stroke-width="2" d="M 157 346 L 157 351"></path><text xmlns="http://www.w3.org/2000/svg" x="124" y="368">2023-06-05</text><path stroke-width="2" d="M 256 346 L 256 351" /><path stroke-width="2" d="M 256 346 L 256 351"></path><text xmlns="http://www.w3.org/2000/svg" x="223" y="368">2023-08-09</text><path stroke-width="2" d="M 354 346 L 354 351" /><path stroke-width="2" d="M 354 346 L 354 351"></path><text xmlns="http://www.w3.org/2000/svg" x="321" y="368">2023-10-12</text><path stroke-width="2" d="M 453 346 L 453 351" /><path stroke-width="2" d="M 453 346 L 453 351"></path><text xmlns="http://www.w3.org/2000/svg" x="420" y="368">2023-12-15</text><path stroke-width="2" d="M 551 346 L 551 351" /><path stroke-width="2" d="M 551 346 L 551 351"></path><text xmlns="http://www.w3.org/2000/svg" x="518" y="368">2024-02-18</text><path d="M 650 346 L 650 351" stroke-width="2" /><path stroke-width="2" d="M 650 346 L 650 351"></path><text xmlns="http://www.w3.org/2000/svg" x="617" y="368">2024-04-22</text><path stroke-width="2" d="M 748 346 L 748 351" /><path stroke-width="2" d="M 748 346 L 748 351"></path><text xmlns="http://www.w3.org/2000/svg" x="715" y="368">2024-06-25</text><path stroke-width="2" d="M 847 346 L 847 351" /><path d="M 847 346 L 847 351" stroke-width="2"></path><text x="814" y="368" xmlns="http://www.w3.org/2000/svg">2024-08-29</text><path d="M 945 346 L 945 351" stroke-width="2" /><path stroke-width="2" d="M 945 346 L 945 351"></path><text xmlns="http://www.w3.org/2000/svg" x="912" y="368">2024-11-01</text><text xmlns="http://www.w3.org/2000/svg" x="487" y="390">Time</text></svg>