<svg xmlns="http://www.w3.org/2000/svg" xmlns:xlink="http://www.w3.org/1999/xlink" width="1024px" height="400px"><style type="text/css">
path { fill: none; stroke: rgb(51,51,51); }
path.series { stroke: #6b63ff; }
rect.background { fill: rgb(255,255,255); stroke: none; }

text {
	stroke-width: 0;
	stroke: none;
	fill: rgba(51,51,51,1.0);
	font-size: 12.8px;
	font-family: 'Roboto Medium', sans-serif;
}
</style><rect y="0" width="1024px" height="400px" class="background" rx="8" x="0" /><rect y="0" width="1024px" height="400px" class="background" rx="8" x="0"></rect><path stroke-width="2" class="series" d="M 58 345 L 61 345 L 78 344 L 79 344 L 79 343 L 79 343 L 79 342 L 79 342 L 79 342 L 79 341 L 79 341 L 79 340 L 79 340 L 79 339 L 79 339 L 80 338 L 80 338 L 80 338 L 80 337 L 81 337 L 81 336 L 82 336 L 83 335 L 84 335 L 84 335 L 84 334 L 84 334 L 85 333 L 87 333 L 87 332 L 89 332 L 90 331 L 95 331 L 95 331 L 95 330 L 95 330 L 96 329 L 96 329 L 99 328 L 100 328 L 101 327 L 104 327 L 108 327 L 110 326 L 117 326 L 120 325 L 124 325 L 128 324 L 130 324 L 146 324 L 147 323 L 147 323 L 149 322 L 150 322 L 150 321 L 150 321 L 150 320 L 150 320 L 150 320 L 150 319 L 150 319 L 150 318 L 150 318 L 150 317 L 150 317 L 151 316 L 151 316 L 151 316 L 151 315 L 151 315 L 151 314 L 151 314 L 151 313 L 151 313 L 151 313 L 151 312 L 151 312 L 151 311 L 151 311 L 151 310 L 151 310 L 151 309 L 151 309 L 151 309 L 151 308 L 151 308 L 151 307 L 151 307 L 151 306 L 151 306 L 151 305 L 151 305 L 151 305 L 151 304 L 151 304 L 151 303 L 151 303 L 151 302 L 151 302 L 152 302 L 152 301 L 152 301 L 152 300 L 152 300 L 153 299 L 153 299 L 154 298 L 154 298 L 154 298 L 154 297 L 154 297 L 154 296 L 154 296 L 154 295 L 154 295 L 154 294 L 154 294 L 154 294 L 154 293 L 154 293 L 154 292 L 154 292 L 154 291 L 154 291 L 155 291 L 155 290 L 156 290 L 156 289 L 159 289 L 160 288 L 160 288 L 161 287 L 161 287 L 164 287 L 166 286 L 167 286 L 169 285 L 170 285 L 172 284 L 173 284 L 173 283 L 176 283 L 176 283 L 177 282 L 178 282 L 178 281 L 180 281 L 180 280 L 180 280 L 180 280 L 182 279 L 183 279 L 183 278 L 184 278 L 184 277 L 184 277 L 185 276 L 187 276 L 188 276 L 191 275 L 191 275 L 192 274 L 194 274 L 194 273 L 194 273 L 196 272 L 202 272 L 203 272 L 204 271 L 210 271 L 211 270 L 211 270 L 211 269 L 211 269 L 212 269 L 214 268 L 215 268 L 216 267 L 224 267 L 225 266 L 227 266 L 230 265 L 231 265 L 231 265 L 232 264 L 238 264 L 244 263 L 251 263 L 252 262 L 252 262 L 252 261 L 253 261 L 254 261 L 264 260 L 268 260 L 268 259 L 272 259 L 273 258 L 273 258 L 284 258 L 284 257 L 285 257 L 285 256 L 287 256 L 289 255 L 291 255 L 293 254 L 294 254 L 297 254 L 303 253 L 303 253 L 304 252 L 304 252 L 304 251 L 305 251 L 308 250 L 314 250 L 327 250 L 332 249 L 335 249 L 335 248 L 337 248 L 338 247 L 338 247 L 338 247 L 338 246 L 338 246 L 338 245 L 338 245 L 338 244 L 338 244 L 338 243 L 339 243 L 339 243 L 339 242 L 339 242 L 339 241 L 341 241 L 342 240 L 342 240 L 342 239 L 342 239 L 344 239 L 344 238 L 344 238 L 344 237 L 344 237 L 344 236 L 344 236 L 345 236 L 346 235 L 346 235 L 347 234 L 347 234 L 347 233 L 347 233 L 348 232 L 348 232 L 348 232 L 348 231 L 349 231 L 349 230 L 350 230 L 351 229 L 352 229 L 353 228 L 354 228 L 357 228 L 357 227 L 358 227 L 358 226 L 358 226 L 358 225 L 358 225 L 360 225 L 360 224 L 362 224 L 363 223 L 363 223 L 365 222 L 367 222 L 367 221 L 370 221 L 370 221 L 371 220 L 372 220 L 372 219 L 377 219 L 378 218 L 378 218 L 382 217 L 384 217 L 388 217 L 389 216 L 389 216 L 390 215 L 391 215 L 391 214 L 394 214 L 396 214 L 398 213 L 398 213 L 400 212 L 401 212 L 401 211 L 401 211 L 401 210 L 402 210 L 402 210 L 402 209 L 404 209 L 404 208 L 404 208 L 405 207 L 409 207 L 415 206 L 415 206 L 415 206 L 419 205 L 421 205 L 422 204 L 422 204 L 424 203 L 425 203 L 425 203 L 425 202 L 425 202 L 425 201 L 425 201 L 425 200 L 426 200 L 426 199 L 427 199 L 429 199 L 429 198 L 430 198 L 430 197 L 430 197 L 430 196 L 430 196 L 430 195 L 430 195 L 430 195 L 431 194 L 431 194 L 431 193 L 435 193 L 438 192 L 438 192 L 439 192 L 451 191 L 452 191 L 455 190 L 458 190 L 465 189 L 468 189 L 470 188 L 470 188 L 470 188 L 470 187 L 471 187 L 471 186 L 471 186 L 471 185 L 472 185 L 473 184 L 482 184 L 485 184 L 488 183 L 495 183 L 500 182 L 503 182 L 506 181 L 511 181 L 511 181 L 522 180 L 532 180 L 532 179 L 539 179 L 539 178 L 545 178 L 546 177 L 549 177 L 549 177 L 550 176 L 550 176 L 554 175 L 555 175 L 558 174 L 562 174 L 563 173 L 564 173 L 564 173 L 568 172 L 572 172 L 572 171 L 577 171 L 581 170 L 582 170 L 582 170 L 584 169 L 585 169 L 586 168 L 589 168 L 592 167 L 595 167 L 598 166 L 598 166 L 603 166 L 604 165 L 607 165 L 612 164 L 612 164 L 618 163 L 619 163 L 619 162 L 620 162 L 621 162 L 623 161 L 624 161 L 626 160 L 629 160 L 630 159 L 630 159 L 631 159 L 639 158 L 639 158 L 640 157 L 640 157 L 641 156 L 642 156 L 642 155 L 642 155 L 643 155 L 645 154 L 645 154 L 647 153 L 647 153 L 648 152 L 649 152 L 649 151 L 649 151 L 650 151 L 651 150 L 651 150 L 652 149 L 652 149 L 652 148 L 652 148 L 653 148 L 655 147 L 655 147 L 655 146 L 656 146 L 657 145 L 658 145 L 659 144 L 660 144 L 660 144 L 662 143 L 663 143 L 664 142 L 664 142 L 664 141 L 667 141 L 667 140 L 667 140 L 667 140 L 668 139 L 668 139 L 668 138 L 669 138 L 669 137 L 670 137 L 674 137 L 675 136 L 676 136 L 677 135 L 679 135 L 681 134 L 681 134 L 684 133 L 687 133 L 689 133 L 692 132 L 693 132 L 693 131 L 693 131 L 693 130 L 694 130 L 695 129 L 695 129 L 696 129 L 696 128 L 696 128 L 696 127 L 698 127 L 699 126 L 699 126 L 700 126 L 700 125 L 703 125 L 704 124 L 704 124 L 705 123 L 706 123 L 709 122 L 712 122 L 716 122 L 716 121 L 716 121 L 716 120 L 719 120 L 721 119 L 722 119 L 722 118 L 722 118 L 722 118 L 724 117 L 728 117 L 729 116 L 729 116 L 729 115 L 731 115 L 731 115 L 731 114 L 731 114 L 732 113 L 735 113 L 739 112 L 739 112 L 743 111 L 744 111 L 745 111 L 749 110 L 750 110 L 753 109 L 755 109 L 757 108 L 758 108 L 758 107 L 759 107 L 759 107 L 759 106 L 759 106 L 760 105 L 760 105 L 761 104 L 762 104 L 762 104 L 762 103 L 763 103 L 764 102 L 765 102 L 770 101 L 771 101 L 776 100 L 779 100 L 779 100 L 780 99 L 781 99 L 784 98 L 784 98 L 785 97 L 785 97 L 786 96 L 786 96 L 786 96 L 786 95 L 786 95 L 787 94 L 787 94 L 787 93 L 787 93 L 788 92 L 789 92 L 789 92 L 789 91 L 790 91 L 791 90 L 791 90 L 792 89 L 793 89 L 793 89 L 793 88 L 794 88 L 796 87 L 799 87 L 799 86 L 799 86 L 799 85 L 799 85 L 800 85 L 800 84 L 801 84 L 802 83 L 804 83 L 807 82 L 811 82 L 812 82 L 813 81 L 817 81 L 821 80 L 822 80 L 825 79 L 830 79 L 830 78 L 830 78 L 836 78 L 837 77 L 838 77 L 838 76 L 839 76 L 849 75 L 849 75 L 850 74 L 850 74 L 851 74 L 851 73 L 853 73 L 853 72 L 853 72 L 854 71 L 855 71 L 855 71 L 856 70 L 856 70 L 856 69 L 856 69 L 856 68 L 857 68 L 857 67 L 858 67 L 859 67 L 860 66 L 861 66 L 861 65 L 862 65 L 863 64 L 863 64 L 864 63 L 865 63 L 866 63 L 866 62 L 866 62 L 866 61 L 868 61 L 869 60 L 870 60 L 870 60 L 871 59 L 872 59 L 873 58 L 873 58 L 873 57 L 873 57 L 874 56 L 875 56 L 875 56 L 876 55 L 876 55 L 878 54 L 878 54 L 878 53 L 878 53 L 879 52 L 879 52 L 880 52 L 880 51 L 880 51 L 882 50 L 882 50 L 882 49 L 883 49 L 883 49 L 883 48 L 883 48 L 883 47 L 883 47 L 884 46 L 884 46 L 884 45 L 884 45 L 884 45 L 887 44 L 889 44 L 891 43 L 891 43 L 891 42 L 891 42 L 893 41 L 894 41 L 895 41 L 896 40 L 899 40 L 901 39 L 902 39 L 903 38 L 904 38 L 904 38 L 905 37 L 906 37 L 906 36 L 906 36 L 906 35 L 906 35 L 906 34 L 906 34 L 907 34 L 907 33 L 907 33 L 907 32 L 907 32 L 907 31 L 907 31 L 908 30 L 908 30 L 909 30 L 909 29 L 910 29 L 910 28 L 912 28 L 913 27 L 913 27 L 913 27 L 915 26 L 915 26 L 916 25 L 919 25 L 920 24 L 920 24 L 920 23 L 920 23 L 920 23 L 923 22 L 926 22 L 926 21 L 928 21 L 928 20 L 929 20 L 929 19 L 930 19 L 935 19 L 938 18 L 942 18 L 943 17 L 944 17 L 945 16" /><path stroke-width="2" class="series" d="M 58 345 L 61 345 L 78 344 L 79 344 L 79 343 L 79 343 L 79 342 L 79 342 L 79 342 L 79 341 L 79 341 L 79 340 L 79 340 L 79 339 L 79 339 L 80 338 L 80 338 L 80 338 L 80 337 L 81 337 L 81 336 L 82 336 L 83 335 L 84 335 L 84 335 L 84 334 L 84 334 L 85 333 L 87 333 L 87 332 L 89 332 L 90 331 L 95 331 L 95 331 L 95 330 L 95 330 L 96 329 L 96 329 L 99 328 L 100 328 L 101 327 L 104 327 L 108 327 L 110 326 L 117 326 L 120 325 L 124 325 L 128 324 L 130 324 L 146 324 L 147 323 L 147 323 L 149 322 L 150 322 L 150 321 L 150 321 L 150 320 L 150 320 L 150 320 L 150 319 L 150 319 L 150 318 L 150 318 L 150 317 L 150 317 L 151 316 L 151 316 L 151 316 L 151 315 L 151 315 L 151 314 L 151 314 L 151 313 L 151 313 L 151 313 L 151 312 L 151 312 L 151 311 L 151 311 L 151 310 L 151 310 L 151 309 L 151 309 L 151 309 L 151 308 L 151 308 L 151 307 L 151 307 L 151 306 L 151 306 L 151 305 L 151 305 L 151 305 L 151 304 L 151 304 L 151 303 L 151 303 L 151 302 L 151 302 L 152 302 L 152 301 L 152 301 L 152 300 L 152 300 L 153 299 L 153 299 L 154 298 L 154 298 L 154 298 L 154 297 L 154 297 L 154 296 L 154 296 L 154 295 L 154 295 L 154 294 L 154 294 L 154 294 L 154 293 L 154 293 L 154 292 L 154 292 L 154 291 L 154 291 L 155 291 L 155 290 L 156 290 L 156 289 L 159 289 L 160 288 L 160 288 L 161 287 L 161 287 L 164 287 L 166 286 L 167 286 L 169 285 L 170 285 L 172 284 L 173 284 L 173 283 L 176 283 L 176 283 L 177 282 L 178 282 L 178 281 L 180 281 L 180 280 L 180 280 L 180 280 L 182 279 L 183 279 L 183 278 L 184 278 L 184 277 L 184 277 L 185 276 L 187 276 L 188 276 L 191 275 L 191 275 L 192 274 L 194 274 L 194 273 L 194 273 L 196 272 L 202 272 L 203 272 L 204 271 L 210 271 L 211 270 L 211 270 L 211 269 L 211 269 L 212 269 L 214 268 L 215 268 L 216 267 L 224 267 L 225 266 L 227 266 L 230 265 L 231 265 L 231 265 L 232 264 L 238 264 L 244 263 L 251 263 L 252 262 L 252 262 L 252 261 L 253 261 L 254 261 L 264 260 L 268 260 L 268 259 L 272 259 L 273 258 L 273 258 L 284 258 L 284 257 L 285 257 L 285 256 L 287 256 L 289 255 L 291 255 L 293 254 L 294 254 L 297 254 L 303 253 L 303 253 L 304 252 L 304 252 L 304 251 L 305 251 L 308 250 L 314 250 L 327 250 L 332 249 L 335 249 L 335 248 L 337 248 L 338 247 L 338 247 L 338 247 L 338 246 L 338 246 L 338 245 L 338 245 L 338 244 L 338 244 L 338 243 L 339 243 L 339 243 L 339 242 L 339 242 L 339 241 L 341 241 L 342 240 L 342 240 L 342 239 L 342 239 L 344 239 L 344 238 L 344 238 L 344 237 L 344 237 L 344 236 L 344 236 L 345 236 L 346 235 L 346 235 L 347 234 L 347 234 L 347 233 L 347 233 L 348 232 L 348 232 L 348 232 L 348 231 L 349 231 L 349 230 L 350 230 L 351 229 L 352 229 L 353 228 L 354 228 L 357 228 L 357 227 L 358 227 L 358 226 L 358 226 L 358 225 L 358 225 L 360 225 L 360 224 L 362 224 L 363 223 L 363 223 L 365 222 L 367 222 L 367 221 L 370 221 L 370 221 L 371 220 L 372 220 L 372 219 L 377 219 L 378 218 L 378 218 L 382 217 L 384 217 L 388 217 L 389 216 L 389 216 L 390 215 L 391 215 L 391 214 L 394 214 L 396 214 L 398 213 L 398 213 L 400 212 L 401 212 L 401 211 L 401 211 L 401 210 L 402 210 L 402 210 L 402 209 L 404 209 L 404 208 L 404 208 L 405 207 L 409 207 L 415 206 L 415 206 L 415 206 L 419 205 L 421 205 L 422 204 L 422 204 L 424 203 L 425 203 L 425 203 L 425 202 L 425 202 L 425 201 L 425 201 L 425 200 L 426 200 L 426 199 L 427 199 L 429 199 L 429 198 L 430 198 L 430 197 L 430 197 L 430 196 L 430 196 L 430 195 L 430 195 L 430 195 L 431 194 L 431 194 L 431 193 L 435 193 L 438 192 L 438 192 L 439 192 L 451 191 L 452 191 L 455 190 L 458 190 L 465 189 L 468 189 L 470 188 L 470 188 L 470 188 L 470 187 L 471 187 L 471 186 L 471 186 L 471 185 L 472 185 L 473 184 L 482 184 L 485 184 L 488 183 L 495 183 L 500 182 L 503 182 L 506 181 L 511 181 L 511 181 L 522 180 L 532 180 L 532 179 L 539 179 L 539 178 L 545 178 L 546 177 L 549 177 L 549 177 L 550 176 L 550 176 L 554 175 L 555 175 L 558 174 L 562 174 L 563 173 L 564 173 L 564 173 L 568 172 L 572 172 L 572 171 L 577 171 L 581 170 L 582 170 L 582 170 L 584 169 L 585 169 L 586 168 L 589 168 L 592 167 L 595 167 L 598 166 L 598 166 L 603 166 L 604 165 L 607 165 L 612 164 L 612 164 L 618 163 L 619 163 L 619 162 L 620 162 L 621 162 L 623 161 L 624 161 L 626 160 L 629 160 L 630 159 L 630 159 L 631 159 L 639 158 L 639 158 L 640 157 L 640 157 L 641 156 L 642 156 L 642 155 L 642 155 L 643 155 L 645 154 L 645 154 L 647 153 L 647 153 L 648 152 L 649 152 L 649 151 L 649 151 L 650 151 L 651 150 L 651 150 L 652 149 L 652 149 L 652 148 L 652 148 L 653 148 L 655 147 L 655 147 L 655 146 L 656 146 L 657 145 L 658 145 L 659 144 L 660 144 L 660 144 L 662 143 L 663 143 L 664 142 L 664 142 L 664 141 L 667 141 L 667 140 L 667 140 L 667 140 L 668 139 L 668 139 L 668 138 L 669 138 L 669 137 L 670 137 L 674 137 L 675 136 L 676 136 L 677 135 L 679 135 L 681 134 L 681 134 L 684 133 L 687 133 L 689 133 L 692 132 L 693 132 L 693 131 L 693 131 L 693 130 L 694 130 L 695 129 L 695 129 L 696 129 L 696 128 L 696 128 L 696 127 L 698 127 L 699 126 L 699 126 L 700 126 L 700 125 L 703 125 L 704 124 L 704 124 L 705 123 L 706 123 L 709 122 L 712 122 L 716 122 L 716 121 L 716 121 L 716 120 L 719 120 L 721 119 L 722 119 L 722 118 L 722 118 L 722 118 L 724 117 L 728 117 L 729 116 L 729 116 L 729 115 L 731 115 L 731 115 L 731 114 L 731 114 L 732 113 L 735 113 L 739 112 L 739 112 L 743 111 L 744 111 L 745 111 L 749 110 L 750 110 L 753 109 L 755 109 L 757 108 L 758 108 L 758 107 L 759 107 L 759 107 L 759 106 L 759 106 L 760 105 L 760 105 L 761 104 L 762 104 L 762 104 L 762 103 L 763 103 L 764 102 L 765 102 L 770 101 L 771 101 L 776 100 L 779 100 L 779 100 L 780 99 L 781 99 L 784 98 L 784 98 L 785 97 L 785 97 L 786 96 L 786 96 L 786 96 L 786 95 L 786 95 L 787 94 L 787 94 L 787 93 L 787 93 L 788 92 L 789 92 L 789 92 L 789 91 L 790 91 L 791 90 L 791 90 L 792 89 L 793 89 L 793 89 L 793 88 L 794 88 L 796 87 L 799 87 L 799 86 L 799 86 L 799 85 L 799 85 L 800 85 L 800 84 L 801 84 L 802 83 L 804 83 L 807 82 L 811 82 L 812 82 L 813 81 L 817 81 L 821 80 L 822 80 L 825 79 L 830 79 L 830 78 L 830 78 L 836 78 L 837 77 L 838 77 L 838 76 L 839 76 L 849 75 L 849 75 L 850 74 L 850 74 L 851 74 L 851 73 L 853 73 L 853 72 L 853 72 L 854 71 L 855 71 L 855 71 L 856 70 L 856 70 L 856 69 L 856 69 L 856 68 L 857 68 L 857 67 L 858 67 L 859 67 L 860 66 L 861 66 L 861 65 L 862 65 L 863 64 L 863 64 L 864 63 L 865 63 L 866 63 L 866 62 L 866 62 L 866 61 L 868 61 L 869 60 L 870 60 L 870 60 L 871 59 L 872 59 L 873 58 L 873 58 L 873 57 L 873 57 L 874 56 L 875 56 L 875 56 L 876 55 L 876 55 L 878 54 L 878 54 L 878 53 L 878 53 L 879 52 L 879 52 L 880 52 L 880 51 L 880 51 L 882 50 L 882 50 L 882 49 L 883 49 L 883 49 L 883 48 L 883 48 L 883 47 L 883 47 L 884 46 L 884 46 L 884 45 L 884 45 L 884 45 L 887 44 L 889 44 L 891 43 L 891 43 L 891 42 L 891 42 L 893 41 L 894 41 L 895 41 L 896 40 L 899 40 L 901 39 L 902 39 L 903 38 L 904 38 L 904 38 L 905 37 L 906 37 L 906 36 L 906 36 L 906 35 L 906 35 L 906 34 L 906 34 L 907 34 L 907 33 L 907 33 L 907 32 L 907 32 L 907 31 L 907 31 L 908 30 L 908 30 L 909 30 L 909 29 L 910 29 L 910 28 L 912 28 L 913 27 L 913 27 L 913 27 L 915 26 L 915 26 L 916 25 L 919 25 L 920 24 L 920 24 L 920 23 L 920 23 L 920 23 L 923 22 L 926 22 L 926 21 L 928 21 L 928 20 L 929 20 L 929 19 L 930 19 L 935 19 L 938 18 L 942 18 L 943 17 L 944 17 L 945 16"></path><path stroke-width="2" d="M 945 346 L 945.000000 15.000000" /><path stroke-width="2" d="M 945 346 L 945.000000 15.000000"></path><path stroke-width="2" d="M 945 346 L 950 346" /><path stroke-width="2" d="M 945 346 L 950 346"></path><text xmlns="http://www.w3.org/2000/svg" x="955" y="352">0</text><path stroke-width="2" d="M 945 309 L 950 309" /><path d="M 945 309 L 950 309" stroke-width="2"></path><text xmlns="http://www.w3.org/2000/svg" x="955" y="315">84</text><path stroke-width="2" d="M 945 272 L 950 272" /><path stroke-width="2" d="M 945 272 L 950 272"></path><text y="278" xmlns="http://www.w3.org/2000/svg" x="955">167</text><path stroke-width="2" d="M 945 236 L 950 236" /><path stroke-width="2" d="M 945 236 L 950 236"></path><text xmlns="http://www.w3.org/2000/svg" x="955" y="242">250</text><path stroke-width="2" d="M 945 199 L 950 199" /><path stroke-width="2" d="M 945 199 L 950 199"></path><text xmlns="http://www.w3.org/2000/svg" x="955" y="205">334</text><path stroke-width="2" d="M 945 162 L 950 162" /><path stroke-width="2" d="M 945 162 L 950 162"></path><text x="955" y="168" xmlns="http://www.w3.org/2000/svg">417</text><path stroke-width="2" d="M 945 126 L 950 126" /><path stroke-width="2" d="M 945 126 L 950 126"></path><text xmlns="http://www.w3.org/2000/svg" x="955" y="132">500</text><path stroke-width="2" d="M 945 89 L 950 89" /><path stroke-width="2" d="M 945 89 L 950 89"></path><text xmlns="http://www.w3.org/2000/svg" x="955" y="95">584</text><path stroke-width="2" d="M 945 52 L 950 52" /><path stroke-width="2" d="M 945 52 L 950 52"></path><text xmlns="http://www.w3.org/2000/svg" x="955" y="58">667</text><path stroke-width="2" d="M 945 16 L 950 16" /><path stroke-width="2" d="M 945 16 L 950 16"></path><text xmlns="http://www.w3.org/2000/svg" x="955" y="22">750</text><text xmlns="http://www.w3.org/2000/svg" x="987" y="175" transform="rotate(90.00,987,175)">Stargazers</text><path stroke-width="2" d="M 57.000000 346.000000 L 945 346" /><path stroke-width="2" d="M 57.000000 346.000000 L 945 346"></path><path stroke-width="2" d="M 58 346 L 58 351" /><path stroke-width="2" d="M 58 346 L 58 351"></path><text xmlns="http://www.w3.org/2000/svg" x="25" y="368">2023-04-02</text><path stroke-width="2" d="M 157 346 L 157 351" /><path stroke-width="2" d="M 157 346 L 157 351"></path><text y="368" xmlns="http://www.w3.org/2000/svg" x="124">2023-06-10</text><path stroke-width="2" d="M 256 346 L 256 351" /><path stroke-width="2" d="M 256 346 L 256 351"></path><text xmlns="http://www.w3.org/2000/svg" x="223" y="368">2023-08-18</text><path stroke-width="2" d="M 354 346 L 354 351" /><path stroke-width="2" d="M 354 346 L 354 351"></path><text xmlns="http://www.w3.org/2000/svg" x="321" y="368">2023-10-26</text><path stroke-width="2" d="M 453 346 L 453 351" /><path stroke-width="2" d="M 453 346 L 453 351"></path><text xmlns="http://www.w3.org/2000/svg" x="420" y="368">2024-01-03</text><path stroke-width="2" d="M 551 346 L 551 351" /><path stroke-width="2" d="M 551 346 L 551 351"></path><text y="368" xmlns="http://www.w3.org/2000/svg" x="518">2024-03-12</text><path stroke-width="2" d="M 650 346 L 650 351" /><path stroke-width="2" d="M 650 346 L 650 351"></path><text x="617" y="368" xmlns="http://www.w3.org/2000/svg">2024-05-20</text><path stroke-width="2" d="M 748 346 L 748 351" /><path d="M 748 346 L 748 351" stroke-width="2"></path><text xmlns="http://www.w3.org/2000/svg" x="715" y="368">2024-07-29</text><path stroke-width="2" d="M 847 346 L 847 351" /><path stroke-width="2" d="M 847 346 L 847 351"></path><text xmlns="http://www.w3.org/2000/svg" x="814" y="368">2024-10-06</text><path stroke-width="2" d="M 945 346 L 945 351" /><path stroke-width="2" d="M 945 346 L 945 351"></path><text x="912" y="368" xmlns="http://www.w3.org/2000/svg">2024-12-14</text><text xmlns="http://www.w3.org/2000/svg" x="487" y="390">Time</text></svg>