<svg xmlns="http://www.w3.org/2000/svg" xmlns:xlink="http://www.w3.org/1999/xlink" width="1024px" height="400px"><style type="text/css">
path { fill: none; stroke: rgb(51,51,51); }
path.series { stroke: #6b63ff; }
rect.background { fill: rgb(255,255,255); stroke: none; }

text {
	stroke-width: 0;
	stroke: none;
	fill: rgba(51,51,51,1.0);
	font-size: 12.8px;
	font-family: 'Roboto Medium', sans-serif;
}
</style><rect height="400px" class="background" rx="8" x="0" y="0" width="1024px" /><rect width="1024px" height="400px" class="background" rx="8" x="0" y="0"></rect><path class="series" d="M 58 345 L 60 345 L 72 345 L 72 344 L 72 344 L 72 344 L 72 344 L 72 343 L 72 343 L 72 343 L 72 342 L 72 342 L 72 342 L 72 342 L 73 341 L 73 341 L 73 341 L 73 341 L 73 340 L 73 340 L 74 340 L 74 339 L 75 339 L 75 339 L 75 339 L 75 338 L 76 338 L 76 338 L 78 338 L 78 337 L 79 337 L 79 337 L 83 336 L 83 336 L 83 336 L 83 336 L 83 335 L 85 335 L 86 335 L 87 335 L 89 334 L 92 334 L 93 334 L 98 333 L 99 333 L 102 333 L 105 333 L 106 332 L 118 332 L 118 332 L 119 331 L 120 331 L 120 331 L 120 331 L 120 330 L 120 330 L 120 330 L 120 330 L 120 329 L 120 329 L 120 329 L 120 328 L 120 328 L 120 328 L 120 328 L 120 327 L 120 327 L 120 327 L 120 327 L 120 326 L 120 326 L 120 326 L 120 325 L 120 325 L 120 325 L 120 325 L 120 324 L 120 324 L 120 324 L 120 324 L 120 323 L 120 323 L 120 323 L 120 322 L 120 322 L 120 322 L 120 322 L 120 321 L 120 321 L 120 321 L 120 320 L 120 320 L 120 320 L 120 320 L 120 319 L 120 319 L 121 319 L 121 319 L 121 318 L 121 318 L 121 318 L 121 317 L 121 317 L 121 317 L 122 317 L 122 316 L 122 316 L 122 316 L 122 316 L 122 315 L 122 315 L 122 315 L 122 314 L 122 314 L 122 314 L 122 314 L 122 313 L 122 313 L 122 313 L 122 313 L 122 312 L 123 312 L 123 312 L 123 311 L 123 311 L 123 311 L 126 311 L 126 310 L 126 310 L 127 310 L 127 309 L 129 309 L 131 309 L 131 309 L 133 308 L 133 308 L 134 308 L 135 308 L 135 307 L 137 307 L 137 307 L 137 306 L 138 306 L 139 306 L 139 306 L 139 305 L 140 305 L 140 305 L 141 305 L 142 304 L 142 304 L 142 304 L 142 303 L 142 303 L 143 303 L 144 303 L 145 302 L 147 302 L 147 302 L 148 302 L 149 301 L 149 301 L 149 301 L 150 300 L 155 300 L 155 300 L 156 300 L 160 299 L 160 299 L 160 299 L 160 298 L 160 298 L 161 298 L 162 298 L 163 297 L 163 297 L 169 297 L 170 297 L 171 296 L 173 296 L 174 296 L 174 295 L 175 295 L 178 295 L 183 295 L 187 294 L 188 294 L 188 294 L 188 294 L 188 293 L 196 293 L 199 293 L 199 292 L 201 292 L 202 292 L 202 292 L 209 291 L 209 291 L 210 291 L 210 291 L 211 290 L 213 290 L 214 290 L 215 289 L 216 289 L 218 289 L 222 289 L 222 288 L 222 288 L 223 288 L 223 287 L 223 287 L 225 287 L 229 287 L 238 286 L 241 286 L 243 286 L 243 286 L 245 285 L 245 285 L 245 285 L 245 284 L 245 284 L 245 284 L 245 284 L 245 283 L 246 283 L 246 283 L 246 283 L 246 282 L 246 282 L 246 282 L 246 281 L 248 281 L 248 281 L 248 281 L 248 280 L 249 280 L 249 280 L 249 280 L 249 279 L 249 279 L 249 279 L 249 278 L 250 278 L 250 278 L 251 278 L 251 277 L 251 277 L 251 277 L 251 276 L 252 276 L 252 276 L 252 276 L 253 275 L 253 275 L 253 275 L 254 275 L 255 274 L 255 274 L 256 274 L 258 273 L 258 273 L 258 273 L 259 273 L 259 272 L 259 272 L 259 272 L 260 272 L 260 271 L 262 271 L 262 271 L 262 270 L 264 270 L 265 270 L 265 270 L 267 269 L 267 269 L 267 269 L 268 269 L 268 268 L 271 268 L 272 268 L 272 267 L 275 267 L 276 267 L 279 267 L 279 266 L 280 266 L 280 266 L 281 265 L 281 265 L 283 265 L 284 265 L 285 264 L 286 264 L 287 264 L 287 264 L 287 263 L 288 263 L 288 263 L 288 262 L 288 262 L 289 262 L 289 262 L 289 261 L 290 261 L 293 261 L 297 261 L 297 260 L 297 260 L 299 260 L 301 259 L 301 259 L 302 259 L 302 259 L 303 258 L 303 258 L 303 258 L 303 258 L 303 257 L 304 257 L 304 257 L 304 256 L 304 256 L 305 256 L 306 256 L 306 255 L 306 255 L 307 255 L 307 254 L 307 254 L 307 254 L 307 254 L 307 253 L 307 253 L 307 253 L 307 253 L 307 252 L 310 252 L 312 252 L 312 251 L 313 251 L 320 251 L 321 251 L 324 250 L 326 250 L 332 250 L 333 250 L 334 249 L 334 249 L 334 249 L 334 248 L 334 248 L 334 248 L 335 248 L 336 247 L 342 247 L 343 247 L 345 247 L 350 246 L 353 246 L 356 246 L 358 245 L 361 245 L 361 245 L 368 245 L 375 244 L 375 244 L 380 244 L 380 243 L 384 243 L 384 243 L 387 243 L 387 242 L 387 242 L 387 242 L 389 242 L 390 241 L 392 241 L 395 241 L 395 240 L 396 240 L 397 240 L 399 240 L 402 239 L 402 239 L 405 239 L 408 239 L 408 238 L 408 238 L 409 238 L 410 237 L 411 237 L 413 237 L 415 237 L 417 236 L 419 236 L 419 236 L 423 236 L 423 235 L 425 235 L 429 235 L 429 234 L 432 234 L 433 234 L 433 234 L 434 233 L 434 233 L 436 233 L 436 232 L 438 232 L 440 232 L 440 232 L 441 231 L 441 231 L 447 231 L 447 231 L 447 230 L 447 230 L 448 230 L 448 229 L 448 229 L 449 229 L 449 229 L 450 228 L 450 228 L 451 228 L 452 228 L 452 227 L 453 227 L 453 227 L 453 226 L 454 226 L 454 226 L 454 226 L 455 225 L 455 225 L 455 225 L 455 225 L 456 224 L 457 224 L 457 224 L 457 223 L 458 223 L 458 223 L 459 223 L 460 222 L 460 222 L 461 222 L 462 221 L 463 221 L 463 221 L 463 221 L 463 220 L 465 220 L 465 220 L 465 220 L 465 219 L 465 219 L 466 219 L 466 218 L 466 218 L 466 218 L 467 218 L 470 217 L 470 217 L 471 217 L 471 217 L 473 216 L 474 216 L 475 216 L 476 215 L 478 215 L 480 215 L 482 215 L 482 214 L 483 214 L 483 214 L 483 214 L 483 213 L 484 213 L 484 213 L 484 212 L 484 212 L 484 212 L 485 212 L 486 211 L 487 211 L 487 211 L 487 210 L 487 210 L 489 210 L 490 210 L 490 209 L 490 209 L 491 209 L 493 209 L 498 208 L 498 208 L 498 208 L 498 207 L 500 207 L 501 207 L 502 207 L 502 206 L 502 206 L 502 206 L 503 206 L 506 205 L 506 205 L 506 205 L 506 204 L 508 204 L 508 204 L 508 204 L 508 203 L 510 203 L 513 203 L 513 203 L 516 202 L 516 202 L 517 202 L 520 201 L 520 201 L 522 201 L 524 201 L 525 200 L 526 200 L 526 200 L 526 199 L 526 199 L 527 199 L 527 199 L 527 198 L 528 198 L 528 198 L 528 198 L 528 197 L 528 197 L 529 197 L 530 196 L 530 196 L 534 196 L 534 196 L 538 195 L 540 195 L 540 195 L 541 195 L 541 194 L 543 194 L 544 194 L 544 193 L 544 193 L 545 193 L 545 193 L 545 192 L 545 192 L 545 192 L 545 192 L 545 191 L 545 191 L 546 191 L 546 190 L 547 190 L 548 190 L 548 190 L 548 189 L 549 189 L 550 189 L 550 188 L 550 188 L 550 188 L 551 188 L 553 187 L 553 187 L 553 187 L 553 187 L 553 186 L 554 186 L 554 186 L 554 185 L 555 185 L 557 185 L 559 185 L 561 184 L 562 184 L 563 184 L 566 184 L 568 183 L 569 183 L 571 183 L 574 182 L 574 182 L 574 182 L 578 182 L 579 181 L 579 181 L 580 181 L 580 181 L 586 180 L 587 180 L 587 180 L 587 179 L 588 179 L 588 179 L 589 179 L 589 178 L 590 178 L 590 178 L 590 177 L 591 177 L 591 177 L 591 177 L 591 176 L 591 176 L 592 176 L 592 176 L 592 175 L 593 175 L 594 175 L 595 174 L 595 174 L 595 174 L 596 174 L 596 173 L 597 173 L 597 173 L 598 173 L 598 172 L 598 172 L 598 172 L 600 171 L 600 171 L 601 171 L 601 171 L 602 170 L 602 170 L 602 170 L 603 170 L 603 169 L 603 169 L 603 169 L 604 168 L 604 168 L 605 168 L 605 168 L 606 167 L 606 167 L 606 167 L 606 166 L 606 166 L 607 166 L 607 166 L 607 165 L 607 165 L 608 165 L 609 165 L 609 164 L 609 164 L 609 164 L 609 163 L 610 163 L 610 163 L 610 163 L 610 162 L 610 162 L 610 162 L 610 162 L 610 161 L 612 161 L 613 161 L 615 160 L 615 160 L 615 160 L 615 160 L 616 159 L 617 159 L 617 159 L 618 159 L 620 158 L 622 158 L 622 158 L 623 157 L 624 157 L 624 157 L 624 157 L 625 156 L 625 156 L 625 156 L 625 155 L 625 155 L 625 155 L 625 155 L 625 154 L 626 154 L 626 154 L 626 154 L 626 153 L 626 153 L 627 153 L 627 152 L 627 152 L 628 152 L 629 152 L 629 151 L 630 151 L 630 151 L 631 151 L 631 150 L 631 150 L 634 150 L 634 149 L 634 149 L 634 149 L 634 149 L 636 148 L 638 148 L 638 148 L 640 148 L 640 147 L 640 147 L 640 147 L 641 146 L 644 146 L 646 146 L 649 146 L 650 145 L 650 145 L 651 145 L 652 144 L 652 144 L 653 144 L 653 144 L 653 143 L 653 143 L 654 143 L 654 143 L 655 142 L 657 142 L 657 142 L 657 141 L 657 141 L 657 141 L 657 141 L 657 140 L 657 140 L 657 140 L 657 140 L 657 139 L 657 139 L 657 139 L 657 138 L 657 138 L 657 138 L 657 138 L 658 137 L 658 137 L 658 137 L 658 137 L 658 136 L 658 136 L 658 136 L 659 135 L 659 135 L 659 135 L 660 135 L 660 134 L 660 134 L 660 134 L 660 133 L 660 133 L 661 133 L 662 133 L 664 132 L 664 132 L 664 132 L 665 132 L 665 131 L 665 131 L 666 131 L 668 130 L 669 130 L 669 130 L 669 130 L 669 129 L 669 129 L 669 129 L 669 129 L 669 128 L 671 128 L 671 128 L 671 127 L 675 127 L 676 127 L 677 127 L 679 126 L 680 126 L 681 126 L 681 126 L 681 125 L 681 125 L 681 125 L 682 124 L 682 124 L 683 124 L 683 124 L 683 123 L 683 123 L 684 123 L 684 122 L 684 122 L 684 122 L 684 122 L 684 121 L 684 121 L 685 121 L 685 121 L 686 120 L 686 120 L 687 120 L 687 119 L 687 119 L 687 119 L 688 119 L 688 118 L 689 118 L 689 118 L 689 118 L 690 117 L 690 117 L 694 117 L 695 116 L 697 116 L 698 116 L 699 116 L 701 115 L 702 115 L 702 115 L 705 115 L 709 114 L 709 114 L 711 114 L 712 113 L 714 113 L 714 113 L 715 113 L 716 112 L 717 112 L 717 112 L 718 111 L 719 111 L 720 111 L 721 111 L 721 110 L 721 110 L 722 110 L 722 110 L 723 109 L 726 109 L 726 109 L 727 108 L 728 108 L 728 108 L 729 108 L 729 107 L 730 107 L 730 107 L 731 107 L 731 106 L 731 106 L 732 106 L 732 105 L 733 105 L 734 105 L 734 105 L 734 104 L 735 104 L 736 104 L 736 104 L 736 103 L 737 103 L 737 103 L 737 102 L 737 102 L 737 102 L 737 102 L 738 101 L 740 101 L 741 101 L 742 100 L 744 100 L 745 100 L 746 100 L 747 99 L 749 99 L 750 99 L 752 99 L 753 98 L 754 98 L 755 98 L 756 97 L 758 97 L 760 97 L 760 97 L 760 96 L 760 96 L 760 96 L 760 96 L 761 95 L 762 95 L 763 95 L 764 94 L 764 94 L 764 94 L 769 94 L 770 93 L 771 93 L 772 93 L 774 92 L 775 92 L 775 92 L 775 92 L 775 91 L 776 91 L 777 91 L 777 91 L 777 90 L 778 90 L 778 90 L 778 89 L 779 89 L 779 89 L 781 89 L 783 88 L 784 88 L 788 88 L 788 88 L 789 87 L 790 87 L 790 87 L 790 86 L 791 86 L 791 86 L 793 86 L 795 85 L 796 85 L 796 85 L 796 85 L 796 84 L 798 84 L 799 84 L 801 83 L 801 83 L 801 83 L 801 83 L 802 82 L 802 82 L 802 82 L 803 82 L 804 81 L 804 81 L 805 81 L 806 80 L 807 80 L 807 80 L 807 80 L 807 79 L 807 79 L 808 79 L 811 78 L 814 78 L 815 78 L 818 78 L 818 77 L 821 77 L 821 77 L 822 77 L 822 76 L 823 76 L 824 76 L 825 75 L 827 75 L 828 75 L 830 75 L 835 74 L 835 74 L 835 74 L 835 74 L 836 73 L 837 73 L 837 73 L 837 72 L 845 72 L 848 72 L 848 72 L 849 71 L 850 71 L 853 71 L 854 71 L 855 70 L 855 70 L 856 70 L 857 69 L 862 69 L 863 69 L 864 69 L 865 68 L 867 68 L 868 68 L 868 67 L 868 67 L 868 67 L 868 67 L 869 66 L 869 66 L 871 66 L 872 66 L 873 65 L 873 65 L 873 65 L 874 64 L 876 64 L 879 64 L 881 64 L 881 63 L 883 63 L 883 63 L 883 63 L 883 62 L 883 62 L 884 62 L 884 61 L 886 61 L 887 61 L 887 61 L 888 60 L 888 60 L 888 60 L 888 60 L 888 59 L 888 59 L 888 59 L 889 58 L 889 58 L 889 58 L 890 58 L 890 57 L 890 57 L 891 57 L 891 56 L 891 56 L 891 56 L 892 56 L 897 55 L 898 55 L 899 55 L 899 55 L 899 54 L 899 54 L 900 54 L 900 53 L 900 53 L 900 53 L 900 53 L 900 52 L 900 52 L 900 52 L 900 52 L 900 51 L 900 51 L 900 51 L 900 50 L 900 50 L 901 50 L 901 50 L 901 49 L 902 49 L 903 49 L 903 49 L 904 48 L 905 48 L 906 48 L 906 47 L 907 47 L 907 47 L 909 47 L 909 46 L 909 46 L 910 46 L 910 45 L 912 45 L 913 45 L 913 45 L 914 44 L 914 44 L 914 44 L 916 44 L 917 43 L 918 43 L 919 43 L 920 42 L 920 42 L 920 42 L 921 42 L 922 41 L 922 41 L 923 41 L 924 41 L 925 40 L 927 40 L 928 40 L 931 39 L 931 39 L 932 39 L 936 39 L 936 38 L 937 38 L 937 38 L 937 38 L 937 37" stroke-width="2" /><path class="series" d="M 58 345 L 60 345 L 72 345 L 72 344 L 72 344 L 72 344 L 72 344 L 72 343 L 72 343 L 72 343 L 72 342 L 72 342 L 72 342 L 72 342 L 73 341 L 73 341 L 73 341 L 73 341 L 73 340 L 73 340 L 74 340 L 74 339 L 75 339 L 75 339 L 75 339 L 75 338 L 76 338 L 76 338 L 78 338 L 78 337 L 79 337 L 79 337 L 83 336 L 83 336 L 83 336 L 83 336 L 83 335 L 85 335 L 86 335 L 87 335 L 89 334 L 92 334 L 93 334 L 98 333 L 99 333 L 102 333 L 105 333 L 106 332 L 118 332 L 118 332 L 119 331 L 120 331 L 120 331 L 120 331 L 120 330 L 120 330 L 120 330 L 120 330 L 120 329 L 120 329 L 120 329 L 120 328 L 120 328 L 120 328 L 120 328 L 120 327 L 120 327 L 120 327 L 120 327 L 120 326 L 120 326 L 120 326 L 120 325 L 120 325 L 120 325 L 120 325 L 120 324 L 120 324 L 120 324 L 120 324 L 120 323 L 120 323 L 120 323 L 120 322 L 120 322 L 120 322 L 120 322 L 120 321 L 120 321 L 120 321 L 120 320 L 120 320 L 120 320 L 120 320 L 120 319 L 120 319 L 121 319 L 121 319 L 121 318 L 121 318 L 121 318 L 121 317 L 121 317 L 121 317 L 122 317 L 122 316 L 122 316 L 122 316 L 122 316 L 122 315 L 122 315 L 122 315 L 122 314 L 122 314 L 122 314 L 122 314 L 122 313 L 122 313 L 122 313 L 122 313 L 122 312 L 123 312 L 123 312 L 123 311 L 123 311 L 123 311 L 126 311 L 126 310 L 126 310 L 127 310 L 127 309 L 129 309 L 131 309 L 131 309 L 133 308 L 133 308 L 134 308 L 135 308 L 135 307 L 137 307 L 137 307 L 137 306 L 138 306 L 139 306 L 139 306 L 139 305 L 140 305 L 140 305 L 141 305 L 142 304 L 142 304 L 142 304 L 142 303 L 142 303 L 143 303 L 144 303 L 145 302 L 147 302 L 147 302 L 148 302 L 149 301 L 149 301 L 149 301 L 150 300 L 155 300 L 155 300 L 156 300 L 160 299 L 160 299 L 160 299 L 160 298 L 160 298 L 161 298 L 162 298 L 163 297 L 163 297 L 169 297 L 170 297 L 171 296 L 173 296 L 174 296 L 174 295 L 175 295 L 178 295 L 183 295 L 187 294 L 188 294 L 188 294 L 188 294 L 188 293 L 196 293 L 199 293 L 199 292 L 201 292 L 202 292 L 202 292 L 209 291 L 209 291 L 210 291 L 210 291 L 211 290 L 213 290 L 214 290 L 215 289 L 216 289 L 218 289 L 222 289 L 222 288 L 222 288 L 223 288 L 223 287 L 223 287 L 225 287 L 229 287 L 238 286 L 241 286 L 243 286 L 243 286 L 245 285 L 245 285 L 245 285 L 245 284 L 245 284 L 245 284 L 245 284 L 245 283 L 246 283 L 246 283 L 246 283 L 246 282 L 246 282 L 246 282 L 246 281 L 248 281 L 248 281 L 248 281 L 248 280 L 249 280 L 249 280 L 249 280 L 249 279 L 249 279 L 249 279 L 249 278 L 250 278 L 250 278 L 251 278 L 251 277 L 251 277 L 251 277 L 251 276 L 252 276 L 252 276 L 252 276 L 253 275 L 253 275 L 253 275 L 254 275 L 255 274 L 255 274 L 256 274 L 258 273 L 258 273 L 258 273 L 259 273 L 259 272 L 259 272 L 259 272 L 260 272 L 260 271 L 262 271 L 262 271 L 262 270 L 264 270 L 265 270 L 265 270 L 267 269 L 267 269 L 267 269 L 268 269 L 268 268 L 271 268 L 272 268 L 272 267 L 275 267 L 276 267 L 279 267 L 279 266 L 280 266 L 280 266 L 281 265 L 281 265 L 283 265 L 284 265 L 285 264 L 286 264 L 287 264 L 287 264 L 287 263 L 288 263 L 288 263 L 288 262 L 288 262 L 289 262 L 289 262 L 289 261 L 290 261 L 293 261 L 297 261 L 297 260 L 297 260 L 299 260 L 301 259 L 301 259 L 302 259 L 302 259 L 303 258 L 303 258 L 303 258 L 303 258 L 303 257 L 304 257 L 304 257 L 304 256 L 304 256 L 305 256 L 306 256 L 306 255 L 306 255 L 307 255 L 307 254 L 307 254 L 307 254 L 307 254 L 307 253 L 307 253 L 307 253 L 307 253 L 307 252 L 310 252 L 312 252 L 312 251 L 313 251 L 320 251 L 321 251 L 324 250 L 326 250 L 332 250 L 333 250 L 334 249 L 334 249 L 334 249 L 334 248 L 334 248 L 334 248 L 335 248 L 336 247 L 342 247 L 343 247 L 345 247 L 350 246 L 353 246 L 356 246 L 358 245 L 361 245 L 361 245 L 368 245 L 375 244 L 375 244 L 380 244 L 380 243 L 384 243 L 384 243 L 387 243 L 387 242 L 387 242 L 387 242 L 389 242 L 390 241 L 392 241 L 395 241 L 395 240 L 396 240 L 397 240 L 399 240 L 402 239 L 402 239 L 405 239 L 408 239 L 408 238 L 408 238 L 409 238 L 410 237 L 411 237 L 413 237 L 415 237 L 417 236 L 419 236 L 419 236 L 423 236 L 423 235 L 425 235 L 429 235 L 429 234 L 432 234 L 433 234 L 433 234 L 434 233 L 434 233 L 436 233 L 436 232 L 438 232 L 440 232 L 440 232 L 441 231 L 441 231 L 447 231 L 447 231 L 447 230 L 447 230 L 448 230 L 448 229 L 448 229 L 449 229 L 449 229 L 450 228 L 450 228 L 451 228 L 452 228 L 452 227 L 453 227 L 453 227 L 453 226 L 454 226 L 454 226 L 454 226 L 455 225 L 455 225 L 455 225 L 455 225 L 456 224 L 457 224 L 457 224 L 457 223 L 458 223 L 458 223 L 459 223 L 460 222 L 460 222 L 461 222 L 462 221 L 463 221 L 463 221 L 463 221 L 463 220 L 465 220 L 465 220 L 465 220 L 465 219 L 465 219 L 466 219 L 466 218 L 466 218 L 466 218 L 467 218 L 470 217 L 470 217 L 471 217 L 471 217 L 473 216 L 474 216 L 475 216 L 476 215 L 478 215 L 480 215 L 482 215 L 482 214 L 483 214 L 483 214 L 483 214 L 483 213 L 484 213 L 484 213 L 484 212 L 484 212 L 484 212 L 485 212 L 486 211 L 487 211 L 487 211 L 487 210 L 487 210 L 489 210 L 490 210 L 490 209 L 490 209 L 491 209 L 493 209 L 498 208 L 498 208 L 498 208 L 498 207 L 500 207 L 501 207 L 502 207 L 502 206 L 502 206 L 502 206 L 503 206 L 506 205 L 506 205 L 506 205 L 506 204 L 508 204 L 508 204 L 508 204 L 508 203 L 510 203 L 513 203 L 513 203 L 516 202 L 516 202 L 517 202 L 520 201 L 520 201 L 522 201 L 524 201 L 525 200 L 526 200 L 526 200 L 526 199 L 526 199 L 527 199 L 527 199 L 527 198 L 528 198 L 528 198 L 528 198 L 528 197 L 528 197 L 529 197 L 530 196 L 530 196 L 534 196 L 534 196 L 538 195 L 540 195 L 540 195 L 541 195 L 541 194 L 543 194 L 544 194 L 544 193 L 544 193 L 545 193 L 545 193 L 545 192 L 545 192 L 545 192 L 545 192 L 545 191 L 545 191 L 546 191 L 546 190 L 547 190 L 548 190 L 548 190 L 548 189 L 549 189 L 550 189 L 550 188 L 550 188 L 550 188 L 551 188 L 553 187 L 553 187 L 553 187 L 553 187 L 553 186 L 554 186 L 554 186 L 554 185 L 555 185 L 557 185 L 559 185 L 561 184 L 562 184 L 563 184 L 566 184 L 568 183 L 569 183 L 571 183 L 574 182 L 574 182 L 574 182 L 578 182 L 579 181 L 579 181 L 580 181 L 580 181 L 586 180 L 587 180 L 587 180 L 587 179 L 588 179 L 588 179 L 589 179 L 589 178 L 590 178 L 590 178 L 590 177 L 591 177 L 591 177 L 591 177 L 591 176 L 591 176 L 592 176 L 592 176 L 592 175 L 593 175 L 594 175 L 595 174 L 595 174 L 595 174 L 596 174 L 596 173 L 597 173 L 597 173 L 598 173 L 598 172 L 598 172 L 598 172 L 600 171 L 600 171 L 601 171 L 601 171 L 602 170 L 602 170 L 602 170 L 603 170 L 603 169 L 603 169 L 603 169 L 604 168 L 604 168 L 605 168 L 605 168 L 606 167 L 606 167 L 606 167 L 606 166 L 606 166 L 607 166 L 607 166 L 607 165 L 607 165 L 608 165 L 609 165 L 609 164 L 609 164 L 609 164 L 609 163 L 610 163 L 610 163 L 610 163 L 610 162 L 610 162 L 610 162 L 610 162 L 610 161 L 612 161 L 613 161 L 615 160 L 615 160 L 615 160 L 615 160 L 616 159 L 617 159 L 617 159 L 618 159 L 620 158 L 622 158 L 622 158 L 623 157 L 624 157 L 624 157 L 624 157 L 625 156 L 625 156 L 625 156 L 625 155 L 625 155 L 625 155 L 625 155 L 625 154 L 626 154 L 626 154 L 626 154 L 626 153 L 626 153 L 627 153 L 627 152 L 627 152 L 628 152 L 629 152 L 629 151 L 630 151 L 630 151 L 631 151 L 631 150 L 631 150 L 634 150 L 634 149 L 634 149 L 634 149 L 634 149 L 636 148 L 638 148 L 638 148 L 640 148 L 640 147 L 640 147 L 640 147 L 641 146 L 644 146 L 646 146 L 649 146 L 650 145 L 650 145 L 651 145 L 652 144 L 652 144 L 653 144 L 653 144 L 653 143 L 653 143 L 654 143 L 654 143 L 655 142 L 657 142 L 657 142 L 657 141 L 657 141 L 657 141 L 657 141 L 657 140 L 657 140 L 657 140 L 657 140 L 657 139 L 657 139 L 657 139 L 657 138 L 657 138 L 657 138 L 657 138 L 658 137 L 658 137 L 658 137 L 658 137 L 658 136 L 658 136 L 658 136 L 659 135 L 659 135 L 659 135 L 660 135 L 660 134 L 660 134 L 660 134 L 660 133 L 660 133 L 661 133 L 662 133 L 664 132 L 664 132 L 664 132 L 665 132 L 665 131 L 665 131 L 666 131 L 668 130 L 669 130 L 669 130 L 669 130 L 669 129 L 669 129 L 669 129 L 669 129 L 669 128 L 671 128 L 671 128 L 671 127 L 675 127 L 676 127 L 677 127 L 679 126 L 680 126 L 681 126 L 681 126 L 681 125 L 681 125 L 681 125 L 682 124 L 682 124 L 683 124 L 683 124 L 683 123 L 683 123 L 684 123 L 684 122 L 684 122 L 684 122 L 684 122 L 684 121 L 684 121 L 685 121 L 685 121 L 686 120 L 686 120 L 687 120 L 687 119 L 687 119 L 687 119 L 688 119 L 688 118 L 689 118 L 689 118 L 689 118 L 690 117 L 690 117 L 694 117 L 695 116 L 697 116 L 698 116 L 699 116 L 701 115 L 702 115 L 702 115 L 705 115 L 709 114 L 709 114 L 711 114 L 712 113 L 714 113 L 714 113 L 715 113 L 716 112 L 717 112 L 717 112 L 718 111 L 719 111 L 720 111 L 721 111 L 721 110 L 721 110 L 722 110 L 722 110 L 723 109 L 726 109 L 726 109 L 727 108 L 728 108 L 728 108 L 729 108 L 729 107 L 730 107 L 730 107 L 731 107 L 731 106 L 731 106 L 732 106 L 732 105 L 733 105 L 734 105 L 734 105 L 734 104 L 735 104 L 736 104 L 736 104 L 736 103 L 737 103 L 737 103 L 737 102 L 737 102 L 737 102 L 737 102 L 738 101 L 740 101 L 741 101 L 742 100 L 744 100 L 745 100 L 746 100 L 747 99 L 749 99 L 750 99 L 752 99 L 753 98 L 754 98 L 755 98 L 756 97 L 758 97 L 760 97 L 760 97 L 760 96 L 760 96 L 760 96 L 760 96 L 761 95 L 762 95 L 763 95 L 764 94 L 764 94 L 764 94 L 769 94 L 770 93 L 771 93 L 772 93 L 774 92 L 775 92 L 775 92 L 775 92 L 775 91 L 776 91 L 777 91 L 777 91 L 777 90 L 778 90 L 778 90 L 778 89 L 779 89 L 779 89 L 781 89 L 783 88 L 784 88 L 788 88 L 788 88 L 789 87 L 790 87 L 790 87 L 790 86 L 791 86 L 791 86 L 793 86 L 795 85 L 796 85 L 796 85 L 796 85 L 796 84 L 798 84 L 799 84 L 801 83 L 801 83 L 801 83 L 801 83 L 802 82 L 802 82 L 802 82 L 803 82 L 804 81 L 804 81 L 805 81 L 806 80 L 807 80 L 807 80 L 807 80 L 807 79 L 807 79 L 808 79 L 811 78 L 814 78 L 815 78 L 818 78 L 818 77 L 821 77 L 821 77 L 822 77 L 822 76 L 823 76 L 824 76 L 825 75 L 827 75 L 828 75 L 830 75 L 835 74 L 835 74 L 835 74 L 835 74 L 836 73 L 837 73 L 837 73 L 837 72 L 845 72 L 848 72 L 848 72 L 849 71 L 850 71 L 853 71 L 854 71 L 855 70 L 855 70 L 856 70 L 857 69 L 862 69 L 863 69 L 864 69 L 865 68 L 867 68 L 868 68 L 868 67 L 868 67 L 868 67 L 868 67 L 869 66 L 869 66 L 871 66 L 872 66 L 873 65 L 873 65 L 873 65 L 874 64 L 876 64 L 879 64 L 881 64 L 881 63 L 883 63 L 883 63 L 883 63 L 883 62 L 883 62 L 884 62 L 884 61 L 886 61 L 887 61 L 887 61 L 888 60 L 888 60 L 888 60 L 888 60 L 888 59 L 888 59 L 888 59 L 889 58 L 889 58 L 889 58 L 890 58 L 890 57 L 890 57 L 891 57 L 891 56 L 891 56 L 891 56 L 892 56 L 897 55 L 898 55 L 899 55 L 899 55 L 899 54 L 899 54 L 900 54 L 900 53 L 900 53 L 900 53 L 900 53 L 900 52 L 900 52 L 900 52 L 900 52 L 900 51 L 900 51 L 900 51 L 900 50 L 900 50 L 901 50 L 901 50 L 901 49 L 902 49 L 903 49 L 903 49 L 904 48 L 905 48 L 906 48 L 906 47 L 907 47 L 907 47 L 909 47 L 909 46 L 909 46 L 910 46 L 910 45 L 912 45 L 913 45 L 913 45 L 914 44 L 914 44 L 914 44 L 916 44 L 917 43 L 918 43 L 919 43 L 920 42 L 920 42 L 920 42 L 921 42 L 922 41 L 922 41 L 923 41 L 924 41 L 925 40 L 927 40 L 928 40 L 931 39 L 931 39 L 932 39 L 936 39 L 936 38 L 937 38 L 937 38 L 937 38 L 937 37" stroke-width="2"></path><path stroke-width="2" d="M 937 346 L 937.000000 15.000000" /><path stroke-width="2" d="M 937 346 L 937.000000 15.000000"></path><path stroke-width="2" d="M 937 346 L 942 346" /><path stroke-width="2" d="M 937 346 L 942 346"></path><text xmlns="http://www.w3.org/2000/svg" x="947" y="352">0</text><path d="M 937 307 L 942 307" stroke-width="2" /><path stroke-width="2" d="M 937 307 L 942 307"></path><text xmlns="http://www.w3.org/2000/svg" x="947" y="313">140</text><path stroke-width="2" d="M 937 271 L 942 271" /><path stroke-width="2" d="M 937 271 L 942 271"></path><text xmlns="http://www.w3.org/2000/svg" x="947" y="277">270</text><path stroke-width="2" d="M 937 236 L 942 236" /><path stroke-width="2" d="M 937 236 L 942 236"></path><text xmlns="http://www.w3.org/2000/svg" x="947" y="242">400</text><path stroke-width="2" d="M 937 197 L 942 197" /><path stroke-width="2" d="M 937 197 L 942 197"></path><text y="203" xmlns="http://www.w3.org/2000/svg" x="947">540</text><path stroke-width="2" d="M 937 161 L 942 161" /><path stroke-width="2" d="M 937 161 L 942 161"></path><text x="947" y="167" xmlns="http://www.w3.org/2000/svg">670</text><path stroke-width="2" d="M 937 126 L 942 126" /><path stroke-width="2" d="M 937 126 L 942 126"></path><text xmlns="http://www.w3.org/2000/svg" x="947" y="132">800</text><path stroke-width="2" d="M 937 87 L 942 87" /><path d="M 937 87 L 942 87" stroke-width="2"></path><text xmlns="http://www.w3.org/2000/svg" x="947" y="93">940</text><path stroke-width="2" d="M 937 51 L 942 51" /><path stroke-width="2" d="M 937 51 L 942 51"></path><text xmlns="http://www.w3.org/2000/svg" x="947" y="57">1070</text><path stroke-width="2" d="M 937 16 L 942 16" /><path d="M 937 16 L 942 16" stroke-width="2"></path><text xmlns="http://www.w3.org/2000/svg" x="947" y="22">1200</text><text xmlns="http://www.w3.org/2000/svg" x="987" y="175" transform="rotate(90.00,987,175)">Stargazers</text><path stroke-width="2" d="M 57.000000 346.000000 L 937 346" /><path stroke-width="2" d="M 57.000000 346.000000 L 937 346"></path><path stroke-width="2" d="M 58 346 L 58 351" /><path stroke-width="2" d="M 58 346 L 58 351"></path><text xmlns="http://www.w3.org/2000/svg" x="25" y="368">2023-04-02</text><path stroke-width="2" d="M 156 346 L 156 351" /><path stroke-width="2" d="M 156 346 L 156 351"></path><text xmlns="http://www.w3.org/2000/svg" x="123" y="368">2023-07-13</text><path stroke-width="2" d="M 254 346 L 254 351" /><path stroke-width="2" d="M 254 346 L 254 351"></path><text y="368" xmlns="http://www.w3.org/2000/svg" x="221">2023-10-24</text><path stroke-width="2" d="M 352 346 L 352 351" /><path stroke-width="2" d="M 352 346 L 352 351"></path><text xmlns="http://www.w3.org/2000/svg" x="319" y="368">2024-02-03</text><path d="M 449 346 L 449 351" stroke-width="2" /><path stroke-width="2" d="M 449 346 L 449 351"></path><text xmlns="http://www.w3.org/2000/svg" x="416" y="368">2024-05-16</text><path d="M 547 346 L 547 351" stroke-width="2" /><path stroke-width="2" d="M 547 346 L 547 351"></path><text x="514" y="368" xmlns="http://www.w3.org/2000/svg">2024-08-26</text><path stroke-width="2" d="M 645 346 L 645 351" /><path stroke-width="2" d="M 645 346 L 645 351"></path><text xmlns="http://www.w3.org/2000/svg" x="612" y="368">2024-12-07</text><path stroke-width="2" d="M 742 346 L 742 351" /><path stroke-width="2" d="M 742 346 L 742 351"></path><text x="709" y="368" xmlns="http://www.w3.org/2000/svg">2025-03-19</text><path stroke-width="2" d="M 840 346 L 840 351" /><path stroke-width="2" d="M 840 346 L 840 351"></path><text y="368" xmlns="http://www.w3.org/2000/svg" x="807">2025-06-30</text><path stroke-width="2" d="M 937 346 L 937 351" /><path stroke-width="2" d="M 937 346 L 937 351"></path><text x="904" y="368" xmlns="http://www.w3.org/2000/svg">2025-10-10</text><text xmlns="http://www.w3.org/2000/svg" x="483" y="390">Time</text></svg>