<svg xmlns="http://www.w3.org/2000/svg" xmlns:xlink="http://www.w3.org/1999/xlink" width="1024" height="400">\n<path  d="M 0 0
L 1024 0
L 1024 400
L 0 400
L 0 0" style="stroke-width:0;stroke:rgba(255,255,255,1.0);fill:rgba(255,255,255,1.0)"/><path  d="M 38 11
L 965 11
L 965 351
L 38 351
L 38 11" style="stroke-width:0;stroke:rgba(255,255,255,1.0);fill:rgba(255,255,255,1.0)"/><path  d="M 38 351
L 965 351" style="stroke-width:2;stroke:rgba(85,85,85,1.0);fill:none"/><path  d="M 38 351
L 38 356" style="stroke-width:2;stroke:rgba(85,85,85,1.0);fill:none"/><text x="5" y="373" style="stroke-width:0;stroke:none;fill:rgba(51,51,51,1.0);font-size:12.8px;font-family:'Roboto Medium',sans-serif">2023-04-02</text><path  d="M 154 351
L 154 356" style="stroke-width:2;stroke:rgba(85,85,85,1.0);fill:none"/><text x="121" y="373" style="stroke-width:0;stroke:none;fill:rgba(51,51,51,1.0);font-size:12.8px;font-family:'Roboto Medium',sans-serif">2023-04-27</text><path  d="M 270 351
L 270 356" style="stroke-width:2;stroke:rgba(85,85,85,1.0);fill:none"/><text x="237" y="373" style="stroke-width:0;stroke:none;fill:rgba(51,51,51,1.0);font-size:12.8px;font-family:'Roboto Medium',sans-serif">2023-05-23</text><path  d="M 386 351
L 386 356" style="stroke-width:2;stroke:rgba(85,85,85,1.0);fill:none"/><text x="353" y="373" style="stroke-width:0;stroke:none;fill:rgba(51,51,51,1.0);font-size:12.8px;font-family:'Roboto Medium',sans-serif">2023-06-17</text><path  d="M 502 351
L 502 356" style="stroke-width:2;stroke:rgba(85,85,85,1.0);fill:none"/><text x="469" y="373" style="stroke-width:0;stroke:none;fill:rgba(51,51,51,1.0);font-size:12.8px;font-family:'Roboto Medium',sans-serif">2023-07-13</text><path  d="M 618 351
L 618 356" style="stroke-width:2;stroke:rgba(85,85,85,1.0);fill:none"/><text x="585" y="373" style="stroke-width:0;stroke:none;fill:rgba(51,51,51,1.0);font-size:12.8px;font-family:'Roboto Medium',sans-serif">2023-08-07</text><path  d="M 734 351
L 734 356" style="stroke-width:2;stroke:rgba(85,85,85,1.0);fill:none"/><text x="701" y="373" style="stroke-width:0;stroke:none;fill:rgba(51,51,51,1.0);font-size:12.8px;font-family:'Roboto Medium',sans-serif">2023-09-02</text><path  d="M 850 351
L 850 356" style="stroke-width:2;stroke:rgba(85,85,85,1.0);fill:none"/><text x="817" y="373" style="stroke-width:0;stroke:none;fill:rgba(51,51,51,1.0);font-size:12.8px;font-family:'Roboto Medium',sans-serif">2023-09-27</text><path  d="M 965 351
L 965 356" style="stroke-width:2;stroke:rgba(85,85,85,1.0);fill:none"/><text x="932" y="373" style="stroke-width:0;stroke:none;fill:rgba(51,51,51,1.0);font-size:12.8px;font-family:'Roboto Medium',sans-serif">2023-10-23</text><text x="487" y="395" style="stroke-width:0;stroke:none;fill:rgba(51,51,51,1.0);font-size:12.8px;font-family:'Roboto Medium',sans-serif">Time</text><path  d="M 967 351
L 967 11" style="stroke-width:2;stroke:rgba(85,85,85,1.0);fill:none"/><path  d="M 967 351
L 972 351" style="stroke-width:2;stroke:rgba(85,85,85,1.0);fill:none"/><text x="977" y="357" style="stroke-width:0;stroke:none;fill:rgba(51,51,51,1.0);font-size:12.8px;font-family:'Roboto Medium',sans-serif">0</text><path  d="M 967 308
L 972 308" style="stroke-width:2;stroke:rgba(85,85,85,1.0);fill:none"/><text x="977" y="314" style="stroke-width:0;stroke:none;fill:rgba(51,51,51,1.0);font-size:12.8px;font-family:'Roboto Medium',sans-serif">34</text><path  d="M 967 265
L 972 265" style="stroke-width:2;stroke:rgba(85,85,85,1.0);fill:none"/><text x="977" y="271" style="stroke-width:0;stroke:none;fill:rgba(51,51,51,1.0);font-size:12.8px;font-family:'Roboto Medium',sans-serif">68</text><path  d="M 967 222
L 972 222" style="stroke-width:2;stroke:rgba(85,85,85,1.0);fill:none"/><text x="977" y="228" style="stroke-width:0;stroke:none;fill:rgba(51,51,51,1.0);font-size:12.8px;font-family:'Roboto Medium',sans-serif">102</text><path  d="M 967 181
L 972 181" style="stroke-width:2;stroke:rgba(85,85,85,1.0);fill:none"/><text x="977" y="187" style="stroke-width:0;stroke:none;fill:rgba(51,51,51,1.0);font-size:12.8px;font-family:'Roboto Medium',sans-serif">135</text><path  d="M 967 138
L 972 138" style="stroke-width:2;stroke:rgba(85,85,85,1.0);fill:none"/><text x="977" y="144" style="stroke-width:0;stroke:none;fill:rgba(51,51,51,1.0);font-size:12.8px;font-family:'Roboto Medium',sans-serif">169</text><path  d="M 967 95
L 972 95" style="stroke-width:2;stroke:rgba(85,85,85,1.0);fill:none"/><text x="977" y="101" style="stroke-width:0;stroke:none;fill:rgba(51,51,51,1.0);font-size:12.8px;font-family:'Roboto Medium',sans-serif">203</text><path  d="M 967 52
L 972 52" style="stroke-width:2;stroke:rgba(85,85,85,1.0);fill:none"/><text x="977" y="58" style="stroke-width:0;stroke:none;fill:rgba(51,51,51,1.0);font-size:12.8px;font-family:'Roboto Medium',sans-serif">237</text><path  d="M 967 11
L 972 11" style="stroke-width:2;stroke:rgba(85,85,85,1.0);fill:none"/><text x="977" y="17" style="stroke-width:0;stroke:none;fill:rgba(51,51,51,1.0);font-size:12.8px;font-family:'Roboto Medium',sans-serif">270</text><text x="1009" y="150" style="stroke-width:0;stroke:none;fill:rgba(51,51,51,1.0);font-size:12.8px;font-family:'Roboto Medium',sans-serif" transform="rotate(90.00,1009,150)">Stargazers</text><path  d="M 38 351
L 47 349
L 102 348
L 103 347
L 103 345
L 103 344
L 103 343
L 103 342
L 103 340
L 103 339
L 105 338
L 105 337
L 105 335
L 105 334
L 105 333
L 105 332
L 106 330
L 106 329
L 107 328
L 107 327
L 110 325
L 112 324
L 112 323
L 116 322
L 119 320
L 119 319
L 119 318
L 121 317
L 121 315
L 124 314
L 130 313
L 131 311
L 135 310
L 138 309
L 156 308
L 156 306
L 156 305
L 156 304
L 156 303
L 157 301
L 157 300
L 167 299
L 171 298
L 174 296
L 182 295
L 196 294
L 202 293
L 226 291
L 234 290
L 247 289
L 261 288
L 267 286
L 318 285
L 321 284
L 321 283
L 328 281
L 330 280
L 330 279
L 330 277
L 330 276
L 330 275
L 330 274
L 330 272
L 330 271
L 330 270
L 330 269
L 330 267
L 331 266
L 332 265
L 332 264
L 332 262
L 332 261
L 332 260
L 332 259
L 332 257
L 332 256
L 332 255
L 332 254
L 332 252
L 333 251
L 333 250
L 333 249
L 333 247
L 333 246
L 333 245
L 333 243
L 333 242
L 333 241
L 333 240
L 333 238
L 333 237
L 333 236
L 333 235
L 333 233
L 333 232
L 333 231
L 334 230
L 334 228
L 334 227
L 334 226
L 334 225
L 335 223
L 335 222
L 336 221
L 337 220
L 337 218
L 337 217
L 338 216
L 339 215
L 341 213
L 341 212
L 341 211
L 342 209
L 342 208
L 342 207
L 342 206
L 342 204
L 342 203
L 342 202
L 342 201
L 342 199
L 342 198
L 342 197
L 342 196
L 342 194
L 343 193
L 344 192
L 347 191
L 347 189
L 348 188
L 348 187
L 360 186
L 361 184
L 361 183
L 365 182
L 366 181
L 374 179
L 382 178
L 384 177
L 392 175
L 395 174
L 400 173
L 402 172
L 403 170
L 411 169
L 412 168
L 415 167
L 419 165
L 421 164
L 424 163
L 425 162
L 425 160
L 426 159
L 430 158
L 435 157
L 435 155
L 437 154
L 438 153
L 438 152
L 441 150
L 448 149
L 452 148
L 459 147
L 462 145
L 465 144
L 469 143
L 469 141
L 470 140
L 475 139
L 497 138
L 498 136
L 502 135
L 523 134
L 523 133
L 523 131
L 524 130
L 525 129
L 528 128
L 534 126
L 538 125
L 539 124
L 564 123
L 569 121
L 575 120
L 583 119
L 589 118
L 589 116
L 592 115
L 610 114
L 630 113
L 653 111
L 655 110
L 655 109
L 656 107
L 657 106
L 662 105
L 693 104
L 707 102
L 707 101
L 719 100
L 721 99
L 723 97
L 757 96
L 757 95
L 759 94
L 761 92
L 765 91
L 774 90
L 778 89
L 785 87
L 790 86
L 797 85
L 816 84
L 817 82
L 820 81
L 821 80
L 822 79
L 823 77
L 833 76
L 833 75
L 852 73
L 880 72
L 894 71
L 910 70
L 911 68
L 919 67
L 920 66
L 925 65
L 929 63
L 929 62
L 929 61
L 929 60
L 930 58
L 930 57
L 930 56
L 930 55
L 930 53
L 931 52
L 931 51
L 931 50
L 931 48
L 933 47
L 934 46
L 936 45
L 940 43
L 942 42
L 942 41
L 942 39
L 943 38
L 948 37
L 948 36
L 948 34
L 948 33
L 948 32
L 948 31
L 948 29
L 952 28
L 952 27
L 954 26
L 955 24
L 956 23
L 956 22
L 957 21
L 957 19
L 960 18
L 961 17
L 961 16
L 962 14
L 965 13
L 965 12" style="stroke-width:2;stroke:rgba(129,199,239,1.0);fill:none"/></svg>