<svg xmlns="http://www.w3.org/2000/svg" xmlns:xlink="http://www.w3.org/1999/xlink" width="1024px" height="400px"><style type="text/css">
path { fill: none; stroke: rgb(51,51,51); }
path.series { stroke: #6b63ff; }
rect.background { fill: rgb(255,255,255); stroke: none; }

text {
	stroke-width: 0;
	stroke: none;
	fill: rgba(51,51,51,1.0);
	font-size: 12.8px;
	font-family: 'Roboto Medium', sans-serif;
}
</style><rect x="0" y="0" width="1024px" height="400px" class="background" rx="8" /><rect height="400px" class="background" rx="8" x="0" y="0" width="1024px"></rect><path d="M 58 345 L 63 344 L 96 343 L 97 342 L 97 341 L 97 340 L 97 340 L 97 339 L 97 338 L 97 337 L 98 336 L 98 335 L 99 335 L 99 334 L 99 333 L 99 332 L 99 331 L 99 330 L 100 329 L 100 329 L 101 328 L 102 327 L 103 326 L 105 325 L 107 324 L 107 324 L 107 323 L 108 322 L 110 321 L 113 320 L 114 319 L 116 318 L 119 318 L 129 317 L 129 316 L 129 315 L 129 314 L 129 313 L 130 313 L 130 312 L 136 311 L 138 310 L 140 309 L 145 308 L 153 307 L 157 307 L 171 306 L 176 305 L 184 304 L 192 303 L 196 302 L 227 302 L 228 301 L 228 300 L 233 299 L 233 298 L 233 297 L 234 296 L 234 296 L 234 295 L 234 294 L 234 293 L 234 292 L 234 291 L 234 291 L 234 290 L 234 289 L 235 288 L 235 287 L 235 286 L 235 285 L 235 285 L 235 284 L 235 283 L 235 282 L 235 281 L 235 280 L 235 280 L 235 279 L 235 278 L 235 277 L 235 276 L 235 275 L 235 274 L 236 274 L 236 273 L 236 272 L 236 271 L 236 270 L 236 269 L 236 269 L 236 268 L 236 267 L 236 266 L 236 265 L 236 264 L 236 263 L 236 263 L 236 262 L 236 261 L 237 260 L 237 259 L 237 258 L 238 258 L 238 257 L 238 256 L 239 255 L 239 254 L 241 253 L 241 252 L 241 252 L 241 251 L 241 250 L 241 249 L 241 248 L 241 247 L 241 247 L 241 246 L 241 245 L 241 244 L 241 243 L 241 242 L 241 241 L 241 241 L 241 240 L 242 239 L 244 238 L 244 237 L 244 236 L 244 236 L 252 235 L 252 234 L 252 233 L 255 232 L 255 231 L 260 230 L 265 230 L 266 229 L 271 228 L 273 227 L 276 226 L 277 225 L 278 225 L 283 224 L 283 223 L 285 222 L 287 221 L 288 220 L 290 219 L 291 219 L 291 218 L 292 217 L 294 216 L 297 215 L 297 214 L 298 214 L 299 213 L 299 212 L 301 211 L 304 210 L 307 209 L 311 208 L 313 208 L 315 207 L 317 206 L 317 205 L 318 204 L 321 203 L 334 203 L 335 202 L 337 201 L 350 200 L 350 199 L 350 198 L 350 197 L 351 197 L 353 196 L 357 195 L 359 194 L 359 193 L 375 192 L 378 192 L 381 191 L 386 190 L 389 189 L 389 188 L 391 187 L 402 186 L 414 186 L 428 185 L 429 184 L 429 183 L 430 182 L 430 181 L 433 181 L 452 180 L 460 179 L 461 178 L 467 177 L 469 176 L 470 175 L 490 175 L 490 174 L 492 173 L 493 172 L 495 171 L 501 170 L 503 170 L 507 169 L 510 168 L 514 167 L 526 166 L 526 165 L 529 164 L 529 164 L 529 163 L 530 162 L 536 161 L 536 160 L 548 159 L 564 159 L 573 158 L 582 157 L 583 156 L 588 155 L 588 154 L 591 153 L 594 153 L 594 152 L 594 151 L 594 150 L 594 149 L 594 148 L 594 148 L 594 147 L 595 146 L 595 145 L 595 144 L 595 143 L 595 142 L 596 142 L 597 141 L 598 140 L 600 139 L 601 138 L 602 137 L 602 137 L 602 136 L 605 135 L 605 134 L 605 133 L 605 132 L 605 131 L 605 131 L 605 130 L 607 129 L 609 128 L 610 127 L 610 126 L 610 126 L 611 125 L 611 124 L 613 123 L 613 122 L 613 121 L 613 120 L 615 120 L 616 119 L 616 118 L 618 117 L 621 116 L 622 115 L 625 115 L 630 114 L 630 113 L 631 112 L 632 111 L 632 110 L 632 109 L 632 109 L 636 108 L 637 107 L 641 106 L 641 105 L 642 104 L 646 104 L 649 103 L 649 102 L 655 101 L 656 100 L 657 99 L 659 98 L 659 98 L 668 97 L 670 96 L 671 95 L 678 94 L 682 93 L 689 92 L 691 92 L 692 91 L 694 90 L 695 89 L 695 88 L 701 87 L 706 87 L 709 86 L 709 85 L 712 84 L 715 83 L 715 82 L 715 82 L 715 81 L 716 80 L 717 79 L 717 78 L 720 77 L 720 76 L 720 76 L 721 75 L 731 74 L 742 73 L 742 72 L 742 71 L 749 71 L 753 70 L 754 69 L 755 68 L 758 67 L 760 66 L 760 65 L 760 65 L 760 64 L 760 63 L 761 62 L 761 61 L 762 60 L 762 60 L 764 59 L 769 58 L 769 57 L 769 56 L 770 55 L 770 54 L 771 54 L 771 53 L 771 52 L 771 51 L 771 50 L 771 49 L 771 49 L 772 48 L 775 47 L 780 46 L 785 45 L 785 44 L 787 43 L 797 43 L 809 42 L 812 41 L 819 40 L 824 39 L 837 38 L 842 38 L 847 37 L 847 36 L 847 35 L 847 34 L 848 33 L 848 32 L 848 32 L 848 31 L 851 30 L 853 29 L 870 28 L 875 27 L 881 27 L 894 26 L 903 25 L 911 24 L 916 23 L 925 22 L 926 21 L 945 21" stroke-width="2" class="series" /><path class="series" d="M 58 345 L 63 344 L 96 343 L 97 342 L 97 341 L 97 340 L 97 340 L 97 339 L 97 338 L 97 337 L 98 336 L 98 335 L 99 335 L 99 334 L 99 333 L 99 332 L 99 331 L 99 330 L 100 329 L 100 329 L 101 328 L 102 327 L 103 326 L 105 325 L 107 324 L 107 324 L 107 323 L 108 322 L 110 321 L 113 320 L 114 319 L 116 318 L 119 318 L 129 317 L 129 316 L 129 315 L 129 314 L 129 313 L 130 313 L 130 312 L 136 311 L 138 310 L 140 309 L 145 308 L 153 307 L 157 307 L 171 306 L 176 305 L 184 304 L 192 303 L 196 302 L 227 302 L 228 301 L 228 300 L 233 299 L 233 298 L 233 297 L 234 296 L 234 296 L 234 295 L 234 294 L 234 293 L 234 292 L 234 291 L 234 291 L 234 290 L 234 289 L 235 288 L 235 287 L 235 286 L 235 285 L 235 285 L 235 284 L 235 283 L 235 282 L 235 281 L 235 280 L 235 280 L 235 279 L 235 278 L 235 277 L 235 276 L 235 275 L 235 274 L 236 274 L 236 273 L 236 272 L 236 271 L 236 270 L 236 269 L 236 269 L 236 268 L 236 267 L 236 266 L 236 265 L 236 264 L 236 263 L 236 263 L 236 262 L 236 261 L 237 260 L 237 259 L 237 258 L 238 258 L 238 257 L 238 256 L 239 255 L 239 254 L 241 253 L 241 252 L 241 252 L 241 251 L 241 250 L 241 249 L 241 248 L 241 247 L 241 247 L 241 246 L 241 245 L 241 244 L 241 243 L 241 242 L 241 241 L 241 241 L 241 240 L 242 239 L 244 238 L 244 237 L 244 236 L 244 236 L 252 235 L 252 234 L 252 233 L 255 232 L 255 231 L 260 230 L 265 230 L 266 229 L 271 228 L 273 227 L 276 226 L 277 225 L 278 225 L 283 224 L 283 223 L 285 222 L 287 221 L 288 220 L 290 219 L 291 219 L 291 218 L 292 217 L 294 216 L 297 215 L 297 214 L 298 214 L 299 213 L 299 212 L 301 211 L 304 210 L 307 209 L 311 208 L 313 208 L 315 207 L 317 206 L 317 205 L 318 204 L 321 203 L 334 203 L 335 202 L 337 201 L 350 200 L 350 199 L 350 198 L 350 197 L 351 197 L 353 196 L 357 195 L 359 194 L 359 193 L 375 192 L 378 192 L 381 191 L 386 190 L 389 189 L 389 188 L 391 187 L 402 186 L 414 186 L 428 185 L 429 184 L 429 183 L 430 182 L 430 181 L 433 181 L 452 180 L 460 179 L 461 178 L 467 177 L 469 176 L 470 175 L 490 175 L 490 174 L 492 173 L 493 172 L 495 171 L 501 170 L 503 170 L 507 169 L 510 168 L 514 167 L 526 166 L 526 165 L 529 164 L 529 164 L 529 163 L 530 162 L 536 161 L 536 160 L 548 159 L 564 159 L 573 158 L 582 157 L 583 156 L 588 155 L 588 154 L 591 153 L 594 153 L 594 152 L 594 151 L 594 150 L 594 149 L 594 148 L 594 148 L 594 147 L 595 146 L 595 145 L 595 144 L 595 143 L 595 142 L 596 142 L 597 141 L 598 140 L 600 139 L 601 138 L 602 137 L 602 137 L 602 136 L 605 135 L 605 134 L 605 133 L 605 132 L 605 131 L 605 131 L 605 130 L 607 129 L 609 128 L 610 127 L 610 126 L 610 126 L 611 125 L 611 124 L 613 123 L 613 122 L 613 121 L 613 120 L 615 120 L 616 119 L 616 118 L 618 117 L 621 116 L 622 115 L 625 115 L 630 114 L 630 113 L 631 112 L 632 111 L 632 110 L 632 109 L 632 109 L 636 108 L 637 107 L 641 106 L 641 105 L 642 104 L 646 104 L 649 103 L 649 102 L 655 101 L 656 100 L 657 99 L 659 98 L 659 98 L 668 97 L 670 96 L 671 95 L 678 94 L 682 93 L 689 92 L 691 92 L 692 91 L 694 90 L 695 89 L 695 88 L 701 87 L 706 87 L 709 86 L 709 85 L 712 84 L 715 83 L 715 82 L 715 82 L 715 81 L 716 80 L 717 79 L 717 78 L 720 77 L 720 76 L 720 76 L 721 75 L 731 74 L 742 73 L 742 72 L 742 71 L 749 71 L 753 70 L 754 69 L 755 68 L 758 67 L 760 66 L 760 65 L 760 65 L 760 64 L 760 63 L 761 62 L 761 61 L 762 60 L 762 60 L 764 59 L 769 58 L 769 57 L 769 56 L 770 55 L 770 54 L 771 54 L 771 53 L 771 52 L 771 51 L 771 50 L 771 49 L 771 49 L 772 48 L 775 47 L 780 46 L 785 45 L 785 44 L 787 43 L 797 43 L 809 42 L 812 41 L 819 40 L 824 39 L 837 38 L 842 38 L 847 37 L 847 36 L 847 35 L 847 34 L 848 33 L 848 32 L 848 32 L 848 31 L 851 30 L 853 29 L 870 28 L 875 27 L 881 27 L 894 26 L 903 25 L 911 24 L 916 23 L 925 22 L 926 21 L 945 21" stroke-width="2"></path><path stroke-width="2" d="M 945 346 L 945.000000 15.000000" /><path stroke-width="2" d="M 945 346 L 945.000000 15.000000"></path><path stroke-width="2" d="M 945 346 L 950 346" /><path stroke-width="2" d="M 945 346 L 950 346"></path><text x="955" y="352" xmlns="http://www.w3.org/2000/svg">0</text><path stroke-width="2" d="M 945 308 L 950 308" /><path stroke-width="2" d="M 945 308 L 950 308"></path><text xmlns="http://www.w3.org/2000/svg" x="955" y="314">44</text><path stroke-width="2" d="M 945 272 L 950 272" /><path stroke-width="2" d="M 945 272 L 950 272"></path><text xmlns="http://www.w3.org/2000/svg" x="955" y="278">87</text><path stroke-width="2" d="M 945 236 L 950 236" /><path stroke-width="2" d="M 945 236 L 950 236"></path><text xmlns="http://www.w3.org/2000/svg" x="955" y="242">130</text><path stroke-width="2" d="M 945 198 L 950 198" /><path stroke-width="2" d="M 945 198 L 950 198"></path><text xmlns="http://www.w3.org/2000/svg" x="955" y="204">174</text><path stroke-width="2" d="M 945 162 L 950 162" /><path stroke-width="2" d="M 945 162 L 950 162"></path><text xmlns="http://www.w3.org/2000/svg" x="955" y="168">217</text><path stroke-width="2" d="M 945 126 L 950 126" /><path d="M 945 126 L 950 126" stroke-width="2"></path><text xmlns="http://www.w3.org/2000/svg" x="955" y="132">260</text><path stroke-width="2" d="M 945 88 L 950 88" /><path stroke-width="2" d="M 945 88 L 950 88"></path><text xmlns="http://www.w3.org/2000/svg" x="955" y="94">304</text><path stroke-width="2" d="M 945 52 L 950 52" /><path stroke-width="2" d="M 945 52 L 950 52"></path><text xmlns="http://www.w3.org/2000/svg" x="955" y="58">347</text><path stroke-width="2" d="M 945 16 L 950 16" /><path stroke-width="2" d="M 945 16 L 950 16"></path><text xmlns="http://www.w3.org/2000/svg" x="955" y="22">390</text><text xmlns="http://www.w3.org/2000/svg" x="987" y="175" transform="rotate(90.00,987,175)">Stargazers</text><path stroke-width="2" d="M 57.000000 346.000000 L 945 346" /><path stroke-width="2" d="M 57.000000 346.000000 L 945 346"></path><path stroke-width="2" d="M 58 346 L 58 351" /><path stroke-width="2" d="M 58 346 L 58 351"></path><text xmlns="http://www.w3.org/2000/svg" x="25" y="368">2023-04-02</text><path stroke-width="2" d="M 157 346 L 157 351" /><path stroke-width="2" d="M 157 346 L 157 351"></path><text xmlns="http://www.w3.org/2000/svg" x="124" y="368">2023-05-08</text><path stroke-width="2" d="M 256 346 L 256 351" /><path stroke-width="2" d="M 256 346 L 256 351"></path><text xmlns="http://www.w3.org/2000/svg" x="223" y="368">2023-06-13</text><path stroke-width="2" d="M 354 346 L 354 351" /><path stroke-width="2" d="M 354 346 L 354 351"></path><text y="368" xmlns="http://www.w3.org/2000/svg" x="321">2023-07-19</text><path stroke-width="2" d="M 453 346 L 453 351" /><path stroke-width="2" d="M 453 346 L 453 351"></path><text y="368" xmlns="http://www.w3.org/2000/svg" x="420">2023-08-24</text><path stroke-width="2" d="M 551 346 L 551 351" /><path d="M 551 346 L 551 351" stroke-width="2"></path><text x="518" y="368" xmlns="http://www.w3.org/2000/svg">2023-09-29</text><path stroke-width="2" d="M 650 346 L 650 351" /><path stroke-width="2" d="M 650 346 L 650 351"></path><text y="368" xmlns="http://www.w3.org/2000/svg" x="617">2023-11-04</text><path stroke-width="2" d="M 748 346 L 748 351" /><path stroke-width="2" d="M 748 346 L 748 351"></path><text xmlns="http://www.w3.org/2000/svg" x="715" y="368">2023-12-10</text><path d="M 847 346 L 847 351" stroke-width="2" /><path stroke-width="2" d="M 847 346 L 847 351"></path><text xmlns="http://www.w3.org/2000/svg" x="814" y="368">2024-01-15</text><path stroke-width="2" d="M 945 346 L 945 351" /><path stroke-width="2" d="M 945 346 L 945 351"></path><text xmlns="http://www.w3.org/2000/svg" x="912" y="368">2024-02-21</text><text y="390" xmlns="http://www.w3.org/2000/svg" x="487">Time</text></svg>