<svg height="400px" xmlns="http://www.w3.org/2000/svg" xmlns:xlink="http://www.w3.org/1999/xlink" width="1024px"><style type="text/css">
path { fill: none; stroke: rgb(51,51,51); }
path.series { stroke: #6b63ff; }
rect.background { fill: rgb(255,255,255); stroke: none; }

text {
	stroke-width: 0;
	stroke: none;
	fill: rgba(51,51,51,1.0);
	font-size: 12.8px;
	font-family: 'Roboto Medium', sans-serif;
}
</style><rect width="1024px" height="400px" class="background" rx="8" x="0" y="0" /><rect height="400px" class="background" rx="8" x="0" y="0" width="1024px"></rect><path class="series" d="M 58 345 L 60 345 L 73 345 L 73 344 L 73 344 L 73 344 L 73 343 L 73 343 L 73 343 L 73 343 L 73 342 L 74 342 L 74 342 L 74 341 L 74 341 L 74 341 L 74 340 L 74 340 L 74 340 L 75 340 L 75 339 L 75 339 L 76 339 L 77 338 L 77 338 L 77 338 L 77 337 L 78 337 L 79 337 L 79 337 L 80 336 L 81 336 L 85 336 L 85 335 L 85 335 L 85 335 L 85 334 L 88 334 L 89 334 L 89 334 L 91 333 L 94 333 L 95 333 L 101 332 L 103 332 L 106 332 L 109 331 L 110 331 L 122 331 L 122 331 L 123 330 L 124 330 L 124 330 L 124 329 L 124 329 L 124 329 L 124 328 L 124 328 L 124 328 L 125 328 L 125 327 L 125 327 L 125 327 L 125 326 L 125 326 L 125 326 L 125 325 L 125 325 L 125 325 L 125 325 L 125 324 L 125 324 L 125 324 L 125 323 L 125 323 L 125 323 L 125 322 L 125 322 L 125 322 L 125 322 L 125 321 L 125 321 L 125 321 L 125 320 L 125 320 L 125 320 L 125 319 L 125 319 L 125 319 L 125 319 L 125 318 L 125 318 L 125 318 L 125 317 L 125 317 L 125 317 L 125 316 L 126 316 L 126 316 L 126 316 L 126 315 L 126 315 L 126 315 L 126 314 L 127 314 L 127 314 L 127 313 L 127 313 L 127 313 L 127 313 L 127 312 L 127 312 L 127 312 L 127 311 L 127 311 L 127 311 L 127 310 L 127 310 L 127 310 L 127 310 L 127 309 L 127 309 L 128 309 L 128 308 L 128 308 L 129 308 L 129 307 L 131 307 L 132 307 L 132 307 L 133 306 L 133 306 L 134 306 L 136 305 L 137 305 L 139 305 L 139 304 L 141 304 L 141 304 L 141 304 L 143 303 L 143 303 L 144 303 L 145 302 L 145 302 L 146 302 L 146 301 L 146 301 L 146 301 L 147 301 L 148 300 L 148 300 L 149 300 L 149 299 L 149 299 L 150 299 L 151 298 L 152 298 L 154 298 L 154 298 L 155 297 L 156 297 L 156 297 L 156 296 L 157 296 L 162 296 L 163 295 L 163 295 L 168 295 L 168 295 L 168 294 L 168 294 L 169 294 L 169 293 L 171 293 L 172 293 L 172 292 L 178 292 L 179 292 L 180 292 L 182 291 L 183 291 L 183 291 L 184 290 L 188 290 L 193 290 L 198 289 L 198 289 L 198 289 L 198 289 L 199 288 L 200 288 L 207 288 L 210 287 L 210 287 L 213 287 L 213 286 L 214 286 L 221 286 L 221 286 L 222 285 L 222 285 L 223 285 L 225 284 L 226 284 L 228 284 L 229 283 L 230 283 L 235 283 L 235 283 L 236 282 L 236 282 L 236 282 L 236 281 L 239 281 L 243 281 L 252 280 L 256 280 L 258 280 L 258 280 L 260 279 L 260 279 L 260 279 L 260 278 L 260 278 L 260 278 L 260 277 L 260 277 L 261 277 L 261 277 L 261 276 L 261 276 L 261 276 L 261 275 L 261 275 L 263 275 L 263 274 L 263 274 L 263 274 L 264 274 L 264 273 L 265 273 L 265 273 L 265 272 L 265 272 L 265 272 L 265 271 L 266 271 L 266 271 L 266 271 L 266 270 L 267 270 L 267 270 L 267 269 L 268 269 L 268 269 L 268 268 L 269 268 L 269 268 L 269 268 L 270 267 L 271 267 L 272 267 L 274 266 L 274 266 L 274 266 L 275 265 L 275 265 L 275 265 L 275 265 L 276 264 L 277 264 L 278 264 L 278 263 L 279 263 L 280 263 L 281 262 L 281 262 L 283 262 L 284 262 L 284 261 L 285 261 L 285 261 L 288 260 L 289 260 L 289 260 L 292 259 L 293 259 L 296 259 L 297 259 L 297 258 L 298 258 L 298 258 L 298 257 L 301 257 L 302 257 L 304 256 L 304 256 L 306 256 L 306 256 L 306 255 L 306 255 L 306 255 L 307 254 L 307 254 L 308 254 L 308 253 L 308 253 L 308 253 L 312 253 L 316 252 L 316 252 L 316 252 L 319 251 L 320 251 L 321 251 L 321 250 L 322 250 L 323 250 L 323 250 L 323 249 L 323 249 L 323 249 L 323 248 L 323 248 L 324 248 L 324 247 L 324 247 L 326 247 L 326 247 L 326 246 L 327 246 L 327 246 L 327 245 L 327 245 L 327 245 L 327 244 L 327 244 L 327 244 L 327 244 L 327 243 L 330 243 L 332 243 L 332 242 L 333 242 L 342 242 L 342 241 L 345 241 L 347 241 L 354 241 L 356 240 L 356 240 L 356 240 L 356 239 L 356 239 L 356 239 L 356 238 L 357 238 L 358 238 L 364 238 L 366 237 L 369 237 L 373 237 L 377 236 L 380 236 L 382 236 L 385 235 L 385 235 L 393 235 L 400 235 L 400 234 L 406 234 L 406 234 L 410 233 L 411 233 L 413 233 L 413 232 L 413 232 L 414 232 L 416 232 L 417 231 L 419 231 L 422 231 L 422 230 L 423 230 L 424 230 L 426 229 L 429 229 L 429 229 L 433 229 L 436 228 L 436 228 L 436 228 L 438 227 L 438 227 L 439 227 L 442 226 L 444 226 L 446 226 L 448 226 L 448 225 L 452 225 L 453 225 L 455 224 L 458 224 L 458 224 L 462 223 L 463 223 L 463 223 L 464 223 L 465 222 L 466 222 L 466 222 L 468 221 L 470 221 L 471 221 L 471 220 L 472 220 L 478 220 L 478 220 L 478 219 L 479 219 L 479 219 L 479 218 L 480 218 L 480 218 L 480 217 L 482 217 L 482 217 L 483 217 L 484 216 L 484 216 L 485 216 L 485 215 L 485 215 L 486 215 L 486 214 L 486 214 L 487 214 L 487 214 L 487 213 L 487 213 L 488 213 L 489 212 L 489 212 L 489 212 L 490 211 L 490 211 L 491 211 L 492 211 L 492 210 L 493 210 L 494 210 L 495 209 L 495 209 L 496 209 L 496 208 L 498 208 L 498 208 L 498 208 L 498 207 L 498 207 L 498 207 L 498 206 L 499 206 L 499 206 L 500 205 L 503 205 L 503 205 L 505 205 L 505 204 L 507 204 L 508 204 L 508 203 L 510 203 L 512 203 L 514 202 L 516 202 L 516 202 L 517 202 L 517 201 L 517 201 L 517 201 L 518 200 L 518 200 L 519 200 L 519 199 L 519 199 L 519 199 L 520 199 L 521 198 L 521 198 L 522 198 L 522 197 L 524 197 L 524 197 L 524 196 L 525 196 L 526 196 L 528 196 L 533 195 L 533 195 L 533 195 L 533 194 L 535 194 L 537 194 L 537 193 L 537 193 L 537 193 L 538 193 L 539 192 L 542 192 L 542 192 L 542 191 L 542 191 L 544 191 L 544 190 L 544 190 L 545 190 L 547 190 L 550 189 L 550 189 L 553 189 L 553 188 L 554 188 L 557 188 L 558 187 L 560 187 L 561 187 L 563 187 L 563 186 L 564 186 L 564 186 L 564 185 L 564 185 L 564 185 L 565 184 L 565 184 L 565 184 L 566 184 L 566 183 L 566 183 L 567 183 L 568 182 L 568 182 L 572 182 L 573 181 L 577 181 L 579 181 L 579 181 L 579 180 L 580 180 L 582 180 L 583 179 L 583 179 L 584 179 L 584 178 L 584 178 L 584 178 L 584 178 L 585 177 L 585 177 L 585 177 L 585 176 L 585 176 L 586 176 L 586 175 L 587 175 L 587 175 L 588 175 L 588 174 L 589 174 L 589 174 L 589 173 L 590 173 L 591 173 L 593 172 L 593 172 L 593 172 L 593 172 L 593 171 L 594 171 L 594 171 L 594 170 L 595 170 L 597 170 L 599 169 L 602 169 L 602 169 L 604 169 L 606 168 L 609 168 L 610 168 L 612 167 L 615 167 L 615 167 L 615 166 L 620 166 L 621 166 L 621 166 L 622 165 L 622 165 L 629 165 L 629 164 L 630 164 L 630 164 L 631 163 L 631 163 L 632 163 L 632 163 L 632 162 L 633 162 L 633 162 L 634 161 L 634 161 L 634 161 L 634 160 L 634 160 L 634 160 L 635 160 L 635 159 L 636 159 L 637 159 L 638 158 L 638 158 L 638 158 L 639 157 L 640 157 L 640 157 L 641 157 L 641 156 L 641 156 L 642 156 L 642 155 L 643 155 L 643 155 L 645 154 L 645 154 L 645 154 L 646 154 L 646 153 L 647 153 L 647 153 L 647 152 L 647 152 L 648 152 L 648 151 L 649 151 L 649 151 L 650 151 L 650 150 L 650 150 L 651 150 L 651 149 L 651 149 L 651 149 L 651 148 L 651 148 L 653 148 L 653 148 L 653 147 L 653 147 L 654 147 L 654 146 L 654 146 L 654 146 L 654 145 L 655 145 L 655 145 L 655 145 L 655 144 L 655 144 L 657 144 L 658 143 L 660 143 L 660 143 L 660 142 L 660 142 L 661 142 L 662 142 L 662 141 L 663 141 L 665 141 L 667 140 L 667 140 L 669 140 L 669 139 L 669 139 L 670 139 L 670 139 L 670 138 L 671 138 L 671 138 L 671 137 L 671 137 L 671 137 L 671 136 L 671 136 L 671 136 L 671 136 L 672 135 L 672 135 L 672 135 L 673 134 L 673 134 L 674 134 L 675 133 L 675 133 L 676 133 L 676 132 L 677 132 L 677 132 L 678 132 L 680 131 L 681 131 L 681 131 L 681 130 L 681 130 L 683 130 L 684 130 L 685 129 L 686 129 L 687 129 L 687 128 L 687 128 L 687 128 L 692 127 L 694 127 L 696 127 L 697 126 L 698 126 L 699 126 L 700 126 L 700 125 L 700 125 L 700 125 L 701 124 L 701 124 L 702 124 L 702 124 L 703 123 L 705 123 L 705 123 L 705 122 L 705 122 L 705 122 L 705 121 L 705 121 L 705 121 L 705 121 L 705 120 L 705 120 L 705 120 L 705 119 L 705 119 L 705 119 L 705 118 L 705 118 L 706 118 L 706 118 L 706 117 L 706 117 L 706 117 L 707 116 L 707 116 L 707 116 L 707 115 L 707 115 L 708 115 L 708 115 L 708 114 L 708 114 L 708 114 L 708 113 L 709 113 L 710 113 L 712 112 L 712 112 L 713 112 L 714 112 L 714 111 L 714 111 L 715 111 L 717 110 L 718 110 L 719 110 L 719 109 L 719 109 L 719 109 L 719 109 L 719 108 L 719 108 L 720 108 L 721 107 L 721 107 L 724 107 L 726 106 L 727 106 L 729 106 L 730 106 L 731 105 L 731 105 L 731 105 L 731 104 L 731 104 L 732 104 L 732 103 L 733 103 L 733 103 L 733 103 L 734 102 L 734 102 L 734 102 L 734 101 L 734 101 L 734 101 L 734 100 L 735 100 L 735 100 L 735 100 L 736 99 L 737 99 L 737 99 L 737 98 L 738 98 L 738 98 L 739 97 L 739 97 L 739 97 L 739 97 L 740 96 L 740 96 L 741 96 L 745 95 L 745 95 L 746 95 L 749 94 L 749 94 L 751 94 L 753 94 L 753 93 L 754 93 L 757 93 L 761 92 L 762 92 L 763 92 L 765 91 L 767 91 L 767 91 L 767 91 L 769 90 L 770 90 L 770 90 L 771 89 L 772 89 L 773 89 L 774 88 L 774 88 L 775 88 L 775 88 L 775 87 L 776 87 L 779 87 L 779 86 L 780 86 L 782 86 L 782 85 L 783 85 L 783 85 L 784 85 L 784 84 L 785 84 L 785 84 L 786 83 L 787 83 L 787 83 L 787 82 L 788 82 L 789 82 L 789 82 L 790 81 L 790 81 L 790 81 L 791 80 L 791 80 L 792 80 L 792 79 L 792 79 L 792 79 L 792 79 L 793 78 L 795 78 L 796 78 L 796 77 L 797 77 L 799 77 L 800 76 L 801 76 L 802 76 L 804 76 L 806 75 L 808 75 L 809 75 L 810 74 L 811 74 L 812 74 L 814 73 L 816 73 L 816 73 L 816 73 L 816 72 L 817 72 L 817 72 L 818 71 L 819 71 L 820 71 L 820 70 L 821 70 L 821 70 L 827 70 L 827 69 L 828 69 L 830 69 L 831 68 L 832 68 L 832 68 L 833 67 L 833 67 L 833 67 L 834 67 L 835 66 L 835 66 L 836 66 L 836 65 L 836 65 L 837 65 L 837 64 L 838 64 L 839 64 L 842 64 L 842 63 L 847 63 L 847 63 L 847 62 L 849 62 L 849 62 L 849 61 L 849 61 L 850 61 L 853 61 L 854 60 L 855 60 L 855 60 L 856 59 L 856 59 L 857 59 L 859 58 L 861 58 L 861 58 L 861 58 L 861 57 L 862 57 L 862 57 L 862 56 L 863 56 L 864 56 L 864 55 L 865 55 L 866 55 L 867 55 L 867 54 L 867 54 L 867 54 L 868 53 L 868 53 L 871 53 L 875 52 L 875 52 L 879 52 L 880 52 L 882 51 L 882 51 L 883 51 L 883 50 L 885 50 L 885 50 L 887 49 L 888 49 L 889 49 L 890 49 L 893 48 L 898 48 L 898 48 L 898 47 L 898 47 L 898 47 L 900 46 L 900 46 L 900 46 L 909 46 L 911 45 L 911 45 L 912 45 L 914 44 L 917 44 L 919 44 L 919 43 L 920 43 L 920 43 L 922 43 L 927 42 L 928 42 L 929 42 L 930 41 L 931 41 L 932 41 L 933 40 L 933 40 L 933 40 L 933 40 L 933 39 L 934 39 L 934 39 L 936 38 L 937 38" stroke-width="2" /><path stroke-width="2" class="series" d="M 58 345 L 60 345 L 73 345 L 73 344 L 73 344 L 73 344 L 73 343 L 73 343 L 73 343 L 73 343 L 73 342 L 74 342 L 74 342 L 74 341 L 74 341 L 74 341 L 74 340 L 74 340 L 74 340 L 75 340 L 75 339 L 75 339 L 76 339 L 77 338 L 77 338 L 77 338 L 77 337 L 78 337 L 79 337 L 79 337 L 80 336 L 81 336 L 85 336 L 85 335 L 85 335 L 85 335 L 85 334 L 88 334 L 89 334 L 89 334 L 91 333 L 94 333 L 95 333 L 101 332 L 103 332 L 106 332 L 109 331 L 110 331 L 122 331 L 122 331 L 123 330 L 124 330 L 124 330 L 124 329 L 124 329 L 124 329 L 124 328 L 124 328 L 124 328 L 125 328 L 125 327 L 125 327 L 125 327 L 125 326 L 125 326 L 125 326 L 125 325 L 125 325 L 125 325 L 125 325 L 125 324 L 125 324 L 125 324 L 125 323 L 125 323 L 125 323 L 125 322 L 125 322 L 125 322 L 125 322 L 125 321 L 125 321 L 125 321 L 125 320 L 125 320 L 125 320 L 125 319 L 125 319 L 125 319 L 125 319 L 125 318 L 125 318 L 125 318 L 125 317 L 125 317 L 125 317 L 125 316 L 126 316 L 126 316 L 126 316 L 126 315 L 126 315 L 126 315 L 126 314 L 127 314 L 127 314 L 127 313 L 127 313 L 127 313 L 127 313 L 127 312 L 127 312 L 127 312 L 127 311 L 127 311 L 127 311 L 127 310 L 127 310 L 127 310 L 127 310 L 127 309 L 127 309 L 128 309 L 128 308 L 128 308 L 129 308 L 129 307 L 131 307 L 132 307 L 132 307 L 133 306 L 133 306 L 134 306 L 136 305 L 137 305 L 139 305 L 139 304 L 141 304 L 141 304 L 141 304 L 143 303 L 143 303 L 144 303 L 145 302 L 145 302 L 146 302 L 146 301 L 146 301 L 146 301 L 147 301 L 148 300 L 148 300 L 149 300 L 149 299 L 149 299 L 150 299 L 151 298 L 152 298 L 154 298 L 154 298 L 155 297 L 156 297 L 156 297 L 156 296 L 157 296 L 162 296 L 163 295 L 163 295 L 168 295 L 168 295 L 168 294 L 168 294 L 169 294 L 169 293 L 171 293 L 172 293 L 172 292 L 178 292 L 179 292 L 180 292 L 182 291 L 183 291 L 183 291 L 184 290 L 188 290 L 193 290 L 198 289 L 198 289 L 198 289 L 198 289 L 199 288 L 200 288 L 207 288 L 210 287 L 210 287 L 213 287 L 213 286 L 214 286 L 221 286 L 221 286 L 222 285 L 222 285 L 223 285 L 225 284 L 226 284 L 228 284 L 229 283 L 230 283 L 235 283 L 235 283 L 236 282 L 236 282 L 236 282 L 236 281 L 239 281 L 243 281 L 252 280 L 256 280 L 258 280 L 258 280 L 260 279 L 260 279 L 260 279 L 260 278 L 260 278 L 260 278 L 260 277 L 260 277 L 261 277 L 261 277 L 261 276 L 261 276 L 261 276 L 261 275 L 261 275 L 263 275 L 263 274 L 263 274 L 263 274 L 264 274 L 264 273 L 265 273 L 265 273 L 265 272 L 265 272 L 265 272 L 265 271 L 266 271 L 266 271 L 266 271 L 266 270 L 267 270 L 267 270 L 267 269 L 268 269 L 268 269 L 268 268 L 269 268 L 269 268 L 269 268 L 270 267 L 271 267 L 272 267 L 274 266 L 274 266 L 274 266 L 275 265 L 275 265 L 275 265 L 275 265 L 276 264 L 277 264 L 278 264 L 278 263 L 279 263 L 280 263 L 281 262 L 281 262 L 283 262 L 284 262 L 284 261 L 285 261 L 285 261 L 288 260 L 289 260 L 289 260 L 292 259 L 293 259 L 296 259 L 297 259 L 297 258 L 298 258 L 298 258 L 298 257 L 301 257 L 302 257 L 304 256 L 304 256 L 306 256 L 306 256 L 306 255 L 306 255 L 306 255 L 307 254 L 307 254 L 308 254 L 308 253 L 308 253 L 308 253 L 312 253 L 316 252 L 316 252 L 316 252 L 319 251 L 320 251 L 321 251 L 321 250 L 322 250 L 323 250 L 323 250 L 323 249 L 323 249 L 323 249 L 323 248 L 323 248 L 324 248 L 324 247 L 324 247 L 326 247 L 326 247 L 326 246 L 327 246 L 327 246 L 327 245 L 327 245 L 327 245 L 327 244 L 327 244 L 327 244 L 327 244 L 327 243 L 330 243 L 332 243 L 332 242 L 333 242 L 342 242 L 342 241 L 345 241 L 347 241 L 354 241 L 356 240 L 356 240 L 356 240 L 356 239 L 356 239 L 356 239 L 356 238 L 357 238 L 358 238 L 364 238 L 366 237 L 369 237 L 373 237 L 377 236 L 380 236 L 382 236 L 385 235 L 385 235 L 393 235 L 400 235 L 400 234 L 406 234 L 406 234 L 410 233 L 411 233 L 413 233 L 413 232 L 413 232 L 414 232 L 416 232 L 417 231 L 419 231 L 422 231 L 422 230 L 423 230 L 424 230 L 426 229 L 429 229 L 429 229 L 433 229 L 436 228 L 436 228 L 436 228 L 438 227 L 438 227 L 439 227 L 442 226 L 444 226 L 446 226 L 448 226 L 448 225 L 452 225 L 453 225 L 455 224 L 458 224 L 458 224 L 462 223 L 463 223 L 463 223 L 464 223 L 465 222 L 466 222 L 466 222 L 468 221 L 470 221 L 471 221 L 471 220 L 472 220 L 478 220 L 478 220 L 478 219 L 479 219 L 479 219 L 479 218 L 480 218 L 480 218 L 480 217 L 482 217 L 482 217 L 483 217 L 484 216 L 484 216 L 485 216 L 485 215 L 485 215 L 486 215 L 486 214 L 486 214 L 487 214 L 487 214 L 487 213 L 487 213 L 488 213 L 489 212 L 489 212 L 489 212 L 490 211 L 490 211 L 491 211 L 492 211 L 492 210 L 493 210 L 494 210 L 495 209 L 495 209 L 496 209 L 496 208 L 498 208 L 498 208 L 498 208 L 498 207 L 498 207 L 498 207 L 498 206 L 499 206 L 499 206 L 500 205 L 503 205 L 503 205 L 505 205 L 505 204 L 507 204 L 508 204 L 508 203 L 510 203 L 512 203 L 514 202 L 516 202 L 516 202 L 517 202 L 517 201 L 517 201 L 517 201 L 518 200 L 518 200 L 519 200 L 519 199 L 519 199 L 519 199 L 520 199 L 521 198 L 521 198 L 522 198 L 522 197 L 524 197 L 524 197 L 524 196 L 525 196 L 526 196 L 528 196 L 533 195 L 533 195 L 533 195 L 533 194 L 535 194 L 537 194 L 537 193 L 537 193 L 537 193 L 538 193 L 539 192 L 542 192 L 542 192 L 542 191 L 542 191 L 544 191 L 544 190 L 544 190 L 545 190 L 547 190 L 550 189 L 550 189 L 553 189 L 553 188 L 554 188 L 557 188 L 558 187 L 560 187 L 561 187 L 563 187 L 563 186 L 564 186 L 564 186 L 564 185 L 564 185 L 564 185 L 565 184 L 565 184 L 565 184 L 566 184 L 566 183 L 566 183 L 567 183 L 568 182 L 568 182 L 572 182 L 573 181 L 577 181 L 579 181 L 579 181 L 579 180 L 580 180 L 582 180 L 583 179 L 583 179 L 584 179 L 584 178 L 584 178 L 584 178 L 584 178 L 585 177 L 585 177 L 585 177 L 585 176 L 585 176 L 586 176 L 586 175 L 587 175 L 587 175 L 588 175 L 588 174 L 589 174 L 589 174 L 589 173 L 590 173 L 591 173 L 593 172 L 593 172 L 593 172 L 593 172 L 593 171 L 594 171 L 594 171 L 594 170 L 595 170 L 597 170 L 599 169 L 602 169 L 602 169 L 604 169 L 606 168 L 609 168 L 610 168 L 612 167 L 615 167 L 615 167 L 615 166 L 620 166 L 621 166 L 621 166 L 622 165 L 622 165 L 629 165 L 629 164 L 630 164 L 630 164 L 631 163 L 631 163 L 632 163 L 632 163 L 632 162 L 633 162 L 633 162 L 634 161 L 634 161 L 634 161 L 634 160 L 634 160 L 634 160 L 635 160 L 635 159 L 636 159 L 637 159 L 638 158 L 638 158 L 638 158 L 639 157 L 640 157 L 640 157 L 641 157 L 641 156 L 641 156 L 642 156 L 642 155 L 643 155 L 643 155 L 645 154 L 645 154 L 645 154 L 646 154 L 646 153 L 647 153 L 647 153 L 647 152 L 647 152 L 648 152 L 648 151 L 649 151 L 649 151 L 650 151 L 650 150 L 650 150 L 651 150 L 651 149 L 651 149 L 651 149 L 651 148 L 651 148 L 653 148 L 653 148 L 653 147 L 653 147 L 654 147 L 654 146 L 654 146 L 654 146 L 654 145 L 655 145 L 655 145 L 655 145 L 655 144 L 655 144 L 657 144 L 658 143 L 660 143 L 660 143 L 660 142 L 660 142 L 661 142 L 662 142 L 662 141 L 663 141 L 665 141 L 667 140 L 667 140 L 669 140 L 669 139 L 669 139 L 670 139 L 670 139 L 670 138 L 671 138 L 671 138 L 671 137 L 671 137 L 671 137 L 671 136 L 671 136 L 671 136 L 671 136 L 672 135 L 672 135 L 672 135 L 673 134 L 673 134 L 674 134 L 675 133 L 675 133 L 676 133 L 676 132 L 677 132 L 677 132 L 678 132 L 680 131 L 681 131 L 681 131 L 681 130 L 681 130 L 683 130 L 684 130 L 685 129 L 686 129 L 687 129 L 687 128 L 687 128 L 687 128 L 692 127 L 694 127 L 696 127 L 697 126 L 698 126 L 699 126 L 700 126 L 700 125 L 700 125 L 700 125 L 701 124 L 701 124 L 702 124 L 702 124 L 703 123 L 705 123 L 705 123 L 705 122 L 705 122 L 705 122 L 705 121 L 705 121 L 705 121 L 705 121 L 705 120 L 705 120 L 705 120 L 705 119 L 705 119 L 705 119 L 705 118 L 705 118 L 706 118 L 706 118 L 706 117 L 706 117 L 706 117 L 707 116 L 707 116 L 707 116 L 707 115 L 707 115 L 708 115 L 708 115 L 708 114 L 708 114 L 708 114 L 708 113 L 709 113 L 710 113 L 712 112 L 712 112 L 713 112 L 714 112 L 714 111 L 714 111 L 715 111 L 717 110 L 718 110 L 719 110 L 719 109 L 719 109 L 719 109 L 719 109 L 719 108 L 719 108 L 720 108 L 721 107 L 721 107 L 724 107 L 726 106 L 727 106 L 729 106 L 730 106 L 731 105 L 731 105 L 731 105 L 731 104 L 731 104 L 732 104 L 732 103 L 733 103 L 733 103 L 733 103 L 734 102 L 734 102 L 734 102 L 734 101 L 734 101 L 734 101 L 734 100 L 735 100 L 735 100 L 735 100 L 736 99 L 737 99 L 737 99 L 737 98 L 738 98 L 738 98 L 739 97 L 739 97 L 739 97 L 739 97 L 740 96 L 740 96 L 741 96 L 745 95 L 745 95 L 746 95 L 749 94 L 749 94 L 751 94 L 753 94 L 753 93 L 754 93 L 757 93 L 761 92 L 762 92 L 763 92 L 765 91 L 767 91 L 767 91 L 767 91 L 769 90 L 770 90 L 770 90 L 771 89 L 772 89 L 773 89 L 774 88 L 774 88 L 775 88 L 775 88 L 775 87 L 776 87 L 779 87 L 779 86 L 780 86 L 782 86 L 782 85 L 783 85 L 783 85 L 784 85 L 784 84 L 785 84 L 785 84 L 786 83 L 787 83 L 787 83 L 787 82 L 788 82 L 789 82 L 789 82 L 790 81 L 790 81 L 790 81 L 791 80 L 791 80 L 792 80 L 792 79 L 792 79 L 792 79 L 792 79 L 793 78 L 795 78 L 796 78 L 796 77 L 797 77 L 799 77 L 800 76 L 801 76 L 802 76 L 804 76 L 806 75 L 808 75 L 809 75 L 810 74 L 811 74 L 812 74 L 814 73 L 816 73 L 816 73 L 816 73 L 816 72 L 817 72 L 817 72 L 818 71 L 819 71 L 820 71 L 820 70 L 821 70 L 821 70 L 827 70 L 827 69 L 828 69 L 830 69 L 831 68 L 832 68 L 832 68 L 833 67 L 833 67 L 833 67 L 834 67 L 835 66 L 835 66 L 836 66 L 836 65 L 836 65 L 837 65 L 837 64 L 838 64 L 839 64 L 842 64 L 842 63 L 847 63 L 847 63 L 847 62 L 849 62 L 849 62 L 849 61 L 849 61 L 850 61 L 853 61 L 854 60 L 855 60 L 855 60 L 856 59 L 856 59 L 857 59 L 859 58 L 861 58 L 861 58 L 861 58 L 861 57 L 862 57 L 862 57 L 862 56 L 863 56 L 864 56 L 864 55 L 865 55 L 866 55 L 867 55 L 867 54 L 867 54 L 867 54 L 868 53 L 868 53 L 871 53 L 875 52 L 875 52 L 879 52 L 880 52 L 882 51 L 882 51 L 883 51 L 883 50 L 885 50 L 885 50 L 887 49 L 888 49 L 889 49 L 890 49 L 893 48 L 898 48 L 898 48 L 898 47 L 898 47 L 898 47 L 900 46 L 900 46 L 900 46 L 909 46 L 911 45 L 911 45 L 912 45 L 914 44 L 917 44 L 919 44 L 919 43 L 920 43 L 920 43 L 922 43 L 927 42 L 928 42 L 929 42 L 930 41 L 931 41 L 932 41 L 933 40 L 933 40 L 933 40 L 933 40 L 933 39 L 934 39 L 934 39 L 936 38 L 937 38"></path><path stroke-width="2" d="M 937 346 L 937.000000 15.000000" /><path stroke-width="2" d="M 937 346 L 937.000000 15.000000"></path><path stroke-width="2" d="M 937 346 L 942 346" /><path stroke-width="2" d="M 937 346 L 942 346"></path><text y="352" xmlns="http://www.w3.org/2000/svg" x="947">0</text><path stroke-width="2" d="M 937 307 L 942 307" /><path stroke-width="2" d="M 937 307 L 942 307"></path><text xmlns="http://www.w3.org/2000/svg" x="947" y="313">130</text><path stroke-width="2" d="M 937 271 L 942 271" /><path stroke-width="2" d="M 937 271 L 942 271"></path><text xmlns="http://www.w3.org/2000/svg" x="947" y="277">250</text><path stroke-width="2" d="M 937 235 L 942 235" /><path stroke-width="2" d="M 937 235 L 942 235"></path><text y="241" xmlns="http://www.w3.org/2000/svg" x="947">370</text><path d="M 937 199 L 942 199" stroke-width="2" /><path stroke-width="2" d="M 937 199 L 942 199"></path><text xmlns="http://www.w3.org/2000/svg" x="947" y="205">490</text><path stroke-width="2" d="M 937 160 L 942 160" /><path stroke-width="2" d="M 937 160 L 942 160"></path><text xmlns="http://www.w3.org/2000/svg" x="947" y="166">620</text><path stroke-width="2" d="M 937 124 L 942 124" /><path stroke-width="2" d="M 937 124 L 942 124"></path><text xmlns="http://www.w3.org/2000/svg" x="947" y="130">740</text><path d="M 937 88 L 942 88" stroke-width="2" /><path stroke-width="2" d="M 937 88 L 942 88"></path><text xmlns="http://www.w3.org/2000/svg" x="947" y="94">860</text><path stroke-width="2" d="M 937 52 L 942 52" /><path stroke-width="2" d="M 937 52 L 942 52"></path><text xmlns="http://www.w3.org/2000/svg" x="947" y="58">980</text><path stroke-width="2" d="M 937 16 L 942 16" /><path stroke-width="2" d="M 937 16 L 942 16"></path><text xmlns="http://www.w3.org/2000/svg" x="947" y="22">1100</text><text xmlns="http://www.w3.org/2000/svg" x="987" y="175" transform="rotate(90.00,987,175)">Stargazers</text><path stroke-width="2" d="M 57.000000 346.000000 L 937 346" /><path stroke-width="2" d="M 57.000000 346.000000 L 937 346"></path><path stroke-width="2" d="M 58 346 L 58 351" /><path stroke-width="2" d="M 58 346 L 58 351"></path><text y="368" xmlns="http://www.w3.org/2000/svg" x="25">2023-04-02</text><path stroke-width="2" d="M 156 346 L 156 351" /><path d="M 156 346 L 156 351" stroke-width="2"></path><text xmlns="http://www.w3.org/2000/svg" x="123" y="368">2023-07-06</text><path stroke-width="2" d="M 254 346 L 254 351" /><path stroke-width="2" d="M 254 346 L 254 351"></path><text xmlns="http://www.w3.org/2000/svg" x="221" y="368">2023-10-09</text><path stroke-width="2" d="M 352 346 L 352 351" /><path d="M 352 346 L 352 351" stroke-width="2"></path><text x="319" y="368" xmlns="http://www.w3.org/2000/svg">2024-01-11</text><path stroke-width="2" d="M 449 346 L 449 351" /><path stroke-width="2" d="M 449 346 L 449 351"></path><text y="368" xmlns="http://www.w3.org/2000/svg" x="416">2024-04-15</text><path stroke-width="2" d="M 547 346 L 547 351" /><path d="M 547 346 L 547 351" stroke-width="2"></path><text xmlns="http://www.w3.org/2000/svg" x="514" y="368">2024-07-19</text><path d="M 645 346 L 645 351" stroke-width="2" /><path stroke-width="2" d="M 645 346 L 645 351"></path><text xmlns="http://www.w3.org/2000/svg" x="612" y="368">2024-10-22</text><path stroke-width="2" d="M 742 346 L 742 351" /><path stroke-width="2" d="M 742 346 L 742 351"></path><text xmlns="http://www.w3.org/2000/svg" x="709" y="368">2025-01-25</text><path stroke-width="2" d="M 840 346 L 840 351" /><path d="M 840 346 L 840 351" stroke-width="2"></path><text y="368" xmlns="http://www.w3.org/2000/svg" x="807">2025-04-29</text><path stroke-width="2" d="M 937 346 L 937 351" /><path stroke-width="2" d="M 937 346 L 937 351"></path><text xmlns="http://www.w3.org/2000/svg" x="904" y="368">2025-08-02</text><text xmlns="http://www.w3.org/2000/svg" x="483" y="390">Time</text></svg>