<svg height="400px" xmlns="http://www.w3.org/2000/svg" xmlns:xlink="http://www.w3.org/1999/xlink" width="1024px"><style type="text/css">
path { fill: none; stroke: rgb(51,51,51); }
path.series { stroke: #6b63ff; }
rect.background { fill: rgb(255,255,255); stroke: none; }

text {
	stroke-width: 0;
	stroke: none;
	fill: rgba(51,51,51,1.0);
	font-size: 12.8px;
	font-family: 'Roboto Medium', sans-serif;
}
</style><rect rx="8" x="0" y="0" width="1024px" height="400px" class="background" /><rect width="1024px" height="400px" class="background" rx="8" x="0" y="0"></rect><path stroke-width="2" class="series" d="M 58 345 L 62 344 L 83 344 L 84 343 L 84 343 L 84 342 L 84 341 L 84 341 L 84 340 L 84 340 L 85 339 L 85 338 L 85 338 L 85 337 L 85 337 L 85 336 L 85 335 L 86 335 L 86 334 L 87 334 L 87 333 L 88 333 L 89 332 L 90 331 L 90 331 L 90 330 L 91 330 L 92 329 L 95 328 L 95 328 L 96 327 L 98 327 L 105 326 L 105 325 L 105 325 L 105 324 L 105 324 L 105 323 L 109 323 L 111 322 L 112 321 L 115 321 L 121 320 L 123 320 L 133 319 L 136 318 L 141 318 L 146 317 L 149 317 L 169 316 L 170 315 L 170 315 L 173 314 L 174 314 L 174 313 L 174 313 L 174 312 L 174 311 L 174 311 L 174 310 L 174 310 L 174 309 L 174 308 L 174 308 L 174 307 L 175 307 L 175 306 L 175 305 L 175 305 L 175 304 L 175 304 L 175 303 L 175 302 L 175 302 L 175 301 L 175 301 L 175 300 L 175 300 L 175 299 L 175 298 L 175 298 L 175 297 L 175 297 L 175 296 L 175 295 L 175 295 L 175 294 L 175 294 L 175 293 L 175 292 L 175 292 L 175 291 L 175 291 L 175 290 L 175 290 L 175 289 L 175 288 L 175 288 L 176 287 L 176 287 L 176 286 L 176 285 L 176 285 L 176 284 L 177 284 L 177 283 L 178 282 L 178 282 L 178 281 L 178 281 L 178 280 L 178 280 L 178 279 L 178 278 L 178 278 L 178 277 L 178 277 L 178 276 L 178 275 L 178 275 L 178 274 L 178 274 L 179 273 L 179 272 L 180 272 L 180 271 L 181 271 L 181 270 L 185 269 L 186 269 L 186 268 L 188 268 L 188 267 L 191 267 L 194 266 L 195 265 L 198 265 L 199 264 L 202 264 L 202 263 L 203 262 L 206 262 L 206 261 L 207 261 L 209 260 L 210 259 L 211 259 L 211 258 L 211 258 L 212 257 L 213 257 L 215 256 L 215 255 L 216 255 L 216 254 L 217 254 L 218 253 L 220 252 L 222 252 L 225 251 L 226 251 L 227 250 L 228 249 L 229 249 L 229 248 L 231 248 L 240 247 L 240 247 L 241 246 L 250 245 L 250 245 L 250 244 L 250 244 L 251 243 L 252 242 L 254 242 L 256 241 L 256 241 L 266 240 L 268 239 L 271 239 L 274 238 L 276 238 L 276 237 L 277 236 L 284 236 L 292 235 L 301 235 L 302 234 L 302 234 L 302 233 L 303 232 L 305 232 L 317 231 L 322 231 L 323 230 L 327 229 L 328 229 L 329 228 L 342 228 L 342 227 L 343 226 L 344 226 L 346 225 L 349 225 L 351 224 L 354 224 L 355 223 L 358 222 L 366 222 L 366 221 L 367 221 L 368 220 L 368 219 L 368 219 L 372 218 L 380 218 L 397 217 L 403 216 L 406 216 L 407 215 L 409 215 L 410 214 L 410 214 L 410 213 L 411 212 L 411 212 L 411 211 L 411 211 L 411 210 L 411 209 L 411 209 L 411 208 L 411 208 L 411 207 L 412 206 L 412 206 L 413 205 L 415 205 L 415 204 L 416 203 L 416 203 L 416 202 L 418 202 L 418 201 L 418 201 L 418 200 L 418 199 L 418 199 L 418 198 L 419 198 L 420 197 L 421 196 L 421 196 L 421 195 L 421 195 L 421 194 L 423 193 L 423 193 L 423 192 L 423 192 L 424 191 L 425 191 L 425 190 L 426 189 L 428 189 L 429 188 L 431 188 L 434 187 L 434 186 L 435 186 L 435 185 L 435 185 L 435 184 L 436 183 L 438 183 L 439 182 L 441 182 L 441 181 L 442 181 L 445 180 L 447 179 L 447 179 L 450 178 L 451 178 L 452 177 L 453 176 L 453 176 L 459 175 L 460 175 L 461 174 L 466 173 L 468 173 L 473 172 L 475 172 L 475 171 L 476 170 L 477 170 L 477 169 L 481 169 L 484 168 L 486 168 L 486 167 L 488 166 L 490 166 L 490 165 L 490 165 L 490 164 L 491 163 L 491 163 L 491 162 L 493 162 L 493 161 L 493 160 L 494 160 L 500 159 L 507 159 L 507 158 L 508 158 L 512 157 L 515 156 L 516 156 L 516 155 L 518 155 L 520 154 L 520 153 L 520 153 L 520 152 L 520 152 L 520 151 L 520 150 L 521 150 L 521 149 L 522 149 L 526 148 L 526 148 L 526 147 L 526 146 L 526 146 L 527 145 L 527 145 L 527 144 L 527 143 L 527 143 L 527 142 L 527 142 L 527 141 L 533 140 L 536 140 L 536 139 L 538 139 L 544 138 L 552 137 L 554 137 L 558 136 L 562 136 L 570 135 L 573 135 L 576 134 L 577 133 L 577 133 L 577 132 L 577 132 L 577 131 L 577 130 L 577 130 L 579 129 L 581 129 L 592 128 L 595 127 L 599 127 L 608 126 L 614 126 L 619 125 L 622 125 L 628 124 L 629 123 L 642 123 L 654 122 L 655 122 L 664 121 L 664 120 L 671 120 L 673 119 L 677 119 L 677 118 L 678 117 L 678 117 L 682 116 L 683 116 L 687 115 L 692 115 L 693 114 L 695 113 L 695 113 L 700 112 L 705 112 L 705 111 L 711 110 L 716 110 L 717 109 L 717 109 L 720 108 L 721 107 L 722 107 L 727 106 L 730 106 L 734 105 L 737 104 L 737 104 L 744 103 L 746 103 L 749 102 L 756 102 L 756 101 L 763 100 L 764 100 L 764 99 L 766 99 L 766 98 L 770 97 L 770 97 L 773 96 L 777 96 L 778 95 L 779 94 L 779 94 L 790 93 L 790 93 L 791 92 L 791 92 L 791 91 L 793 90 L 793 90 L 793 89 L 794 89 L 797 88 L 797 87 L 799 87 L 800 86 L 801 86 L 802 85 L 802 84 L 802 84 L 804 83 L 804 83 L 804 82 L 805 82 L 805 81 L 805 80 L 806 80 L 807 79 L 809 79 L 809 78 L 810 77 L 811 77 L 811 76 L 813 76 L 815 75 L 815 74 L 816 74 L 818 73 L 820 73 L 820 72 L 821 71 L 821 71 L 824 70 L 824 70 L 824 69 L 825 69 L 825 68 L 826 67 L 826 67 L 827 66 L 827 66 L 828 65 L 833 64 L 834 64 L 836 63 L 837 63 L 840 62 L 842 61 L 843 61 L 846 60 L 849 60 L 853 59 L 856 59 L 857 58 L 857 57 L 858 57 L 858 56 L 859 56 L 859 55 L 859 54 L 861 54 L 861 53 L 861 53 L 862 52 L 864 51 L 865 51 L 865 50 L 866 50 L 866 49 L 870 49 L 871 48 L 871 47 L 872 47 L 874 46 L 877 46 L 881 45 L 886 44 L 886 44 L 886 43 L 887 43 L 890 42 L 893 41 L 893 41 L 894 40 L 894 40 L 894 39 L 897 38 L 901 38 L 902 37 L 902 37 L 902 36 L 905 36 L 906 35 L 906 34 L 906 34 L 906 33 L 910 33 L 915 32 L 915 31 L 921 31 L 921 30 L 922 30 L 927 29 L 929 28 L 933 28 L 935 27 L 937 27 L 939 26 L 939 26 L 940 25 L 940 24 L 940 24 L 940 23 L 942 23 L 942 22 L 942 21 L 944 21 L 944 20 L 944 20 L 945 19" /><path class="series" d="M 58 345 L 62 344 L 83 344 L 84 343 L 84 343 L 84 342 L 84 341 L 84 341 L 84 340 L 84 340 L 85 339 L 85 338 L 85 338 L 85 337 L 85 337 L 85 336 L 85 335 L 86 335 L 86 334 L 87 334 L 87 333 L 88 333 L 89 332 L 90 331 L 90 331 L 90 330 L 91 330 L 92 329 L 95 328 L 95 328 L 96 327 L 98 327 L 105 326 L 105 325 L 105 325 L 105 324 L 105 324 L 105 323 L 109 323 L 111 322 L 112 321 L 115 321 L 121 320 L 123 320 L 133 319 L 136 318 L 141 318 L 146 317 L 149 317 L 169 316 L 170 315 L 170 315 L 173 314 L 174 314 L 174 313 L 174 313 L 174 312 L 174 311 L 174 311 L 174 310 L 174 310 L 174 309 L 174 308 L 174 308 L 174 307 L 175 307 L 175 306 L 175 305 L 175 305 L 175 304 L 175 304 L 175 303 L 175 302 L 175 302 L 175 301 L 175 301 L 175 300 L 175 300 L 175 299 L 175 298 L 175 298 L 175 297 L 175 297 L 175 296 L 175 295 L 175 295 L 175 294 L 175 294 L 175 293 L 175 292 L 175 292 L 175 291 L 175 291 L 175 290 L 175 290 L 175 289 L 175 288 L 175 288 L 176 287 L 176 287 L 176 286 L 176 285 L 176 285 L 176 284 L 177 284 L 177 283 L 178 282 L 178 282 L 178 281 L 178 281 L 178 280 L 178 280 L 178 279 L 178 278 L 178 278 L 178 277 L 178 277 L 178 276 L 178 275 L 178 275 L 178 274 L 178 274 L 179 273 L 179 272 L 180 272 L 180 271 L 181 271 L 181 270 L 185 269 L 186 269 L 186 268 L 188 268 L 188 267 L 191 267 L 194 266 L 195 265 L 198 265 L 199 264 L 202 264 L 202 263 L 203 262 L 206 262 L 206 261 L 207 261 L 209 260 L 210 259 L 211 259 L 211 258 L 211 258 L 212 257 L 213 257 L 215 256 L 215 255 L 216 255 L 216 254 L 217 254 L 218 253 L 220 252 L 222 252 L 225 251 L 226 251 L 227 250 L 228 249 L 229 249 L 229 248 L 231 248 L 240 247 L 240 247 L 241 246 L 250 245 L 250 245 L 250 244 L 250 244 L 251 243 L 252 242 L 254 242 L 256 241 L 256 241 L 266 240 L 268 239 L 271 239 L 274 238 L 276 238 L 276 237 L 277 236 L 284 236 L 292 235 L 301 235 L 302 234 L 302 234 L 302 233 L 303 232 L 305 232 L 317 231 L 322 231 L 323 230 L 327 229 L 328 229 L 329 228 L 342 228 L 342 227 L 343 226 L 344 226 L 346 225 L 349 225 L 351 224 L 354 224 L 355 223 L 358 222 L 366 222 L 366 221 L 367 221 L 368 220 L 368 219 L 368 219 L 372 218 L 380 218 L 397 217 L 403 216 L 406 216 L 407 215 L 409 215 L 410 214 L 410 214 L 410 213 L 411 212 L 411 212 L 411 211 L 411 211 L 411 210 L 411 209 L 411 209 L 411 208 L 411 208 L 411 207 L 412 206 L 412 206 L 413 205 L 415 205 L 415 204 L 416 203 L 416 203 L 416 202 L 418 202 L 418 201 L 418 201 L 418 200 L 418 199 L 418 199 L 418 198 L 419 198 L 420 197 L 421 196 L 421 196 L 421 195 L 421 195 L 421 194 L 423 193 L 423 193 L 423 192 L 423 192 L 424 191 L 425 191 L 425 190 L 426 189 L 428 189 L 429 188 L 431 188 L 434 187 L 434 186 L 435 186 L 435 185 L 435 185 L 435 184 L 436 183 L 438 183 L 439 182 L 441 182 L 441 181 L 442 181 L 445 180 L 447 179 L 447 179 L 450 178 L 451 178 L 452 177 L 453 176 L 453 176 L 459 175 L 460 175 L 461 174 L 466 173 L 468 173 L 473 172 L 475 172 L 475 171 L 476 170 L 477 170 L 477 169 L 481 169 L 484 168 L 486 168 L 486 167 L 488 166 L 490 166 L 490 165 L 490 165 L 490 164 L 491 163 L 491 163 L 491 162 L 493 162 L 493 161 L 493 160 L 494 160 L 500 159 L 507 159 L 507 158 L 508 158 L 512 157 L 515 156 L 516 156 L 516 155 L 518 155 L 520 154 L 520 153 L 520 153 L 520 152 L 520 152 L 520 151 L 520 150 L 521 150 L 521 149 L 522 149 L 526 148 L 526 148 L 526 147 L 526 146 L 526 146 L 527 145 L 527 145 L 527 144 L 527 143 L 527 143 L 527 142 L 527 142 L 527 141 L 533 140 L 536 140 L 536 139 L 538 139 L 544 138 L 552 137 L 554 137 L 558 136 L 562 136 L 570 135 L 573 135 L 576 134 L 577 133 L 577 133 L 577 132 L 577 132 L 577 131 L 577 130 L 577 130 L 579 129 L 581 129 L 592 128 L 595 127 L 599 127 L 608 126 L 614 126 L 619 125 L 622 125 L 628 124 L 629 123 L 642 123 L 654 122 L 655 122 L 664 121 L 664 120 L 671 120 L 673 119 L 677 119 L 677 118 L 678 117 L 678 117 L 682 116 L 683 116 L 687 115 L 692 115 L 693 114 L 695 113 L 695 113 L 700 112 L 705 112 L 705 111 L 711 110 L 716 110 L 717 109 L 717 109 L 720 108 L 721 107 L 722 107 L 727 106 L 730 106 L 734 105 L 737 104 L 737 104 L 744 103 L 746 103 L 749 102 L 756 102 L 756 101 L 763 100 L 764 100 L 764 99 L 766 99 L 766 98 L 770 97 L 770 97 L 773 96 L 777 96 L 778 95 L 779 94 L 779 94 L 790 93 L 790 93 L 791 92 L 791 92 L 791 91 L 793 90 L 793 90 L 793 89 L 794 89 L 797 88 L 797 87 L 799 87 L 800 86 L 801 86 L 802 85 L 802 84 L 802 84 L 804 83 L 804 83 L 804 82 L 805 82 L 805 81 L 805 80 L 806 80 L 807 79 L 809 79 L 809 78 L 810 77 L 811 77 L 811 76 L 813 76 L 815 75 L 815 74 L 816 74 L 818 73 L 820 73 L 820 72 L 821 71 L 821 71 L 824 70 L 824 70 L 824 69 L 825 69 L 825 68 L 826 67 L 826 67 L 827 66 L 827 66 L 828 65 L 833 64 L 834 64 L 836 63 L 837 63 L 840 62 L 842 61 L 843 61 L 846 60 L 849 60 L 853 59 L 856 59 L 857 58 L 857 57 L 858 57 L 858 56 L 859 56 L 859 55 L 859 54 L 861 54 L 861 53 L 861 53 L 862 52 L 864 51 L 865 51 L 865 50 L 866 50 L 866 49 L 870 49 L 871 48 L 871 47 L 872 47 L 874 46 L 877 46 L 881 45 L 886 44 L 886 44 L 886 43 L 887 43 L 890 42 L 893 41 L 893 41 L 894 40 L 894 40 L 894 39 L 897 38 L 901 38 L 902 37 L 902 37 L 902 36 L 905 36 L 906 35 L 906 34 L 906 34 L 906 33 L 910 33 L 915 32 L 915 31 L 921 31 L 921 30 L 922 30 L 927 29 L 929 28 L 933 28 L 935 27 L 937 27 L 939 26 L 939 26 L 940 25 L 940 24 L 940 24 L 940 23 L 942 23 L 942 22 L 942 21 L 944 21 L 944 20 L 944 20 L 945 19" stroke-width="2"></path><path stroke-width="2" d="M 945 346 L 945.000000 15.000000" /><path stroke-width="2" d="M 945 346 L 945.000000 15.000000"></path><path d="M 945 346 L 950 346" stroke-width="2" /><path stroke-width="2" d="M 945 346 L 950 346"></path><text xmlns="http://www.w3.org/2000/svg" x="955" y="352">0</text><path stroke-width="2" d="M 945 308 L 950 308" /><path stroke-width="2" d="M 945 308 L 950 308"></path><text xmlns="http://www.w3.org/2000/svg" x="955" y="314">63</text><path stroke-width="2" d="M 945 272 L 950 272" /><path stroke-width="2" d="M 945 272 L 950 272"></path><text xmlns="http://www.w3.org/2000/svg" x="955" y="278">125</text><path stroke-width="2" d="M 945 235 L 950 235" /><path stroke-width="2" d="M 945 235 L 950 235"></path><text xmlns="http://www.w3.org/2000/svg" x="955" y="241">187</text><path stroke-width="2" d="M 945 199 L 950 199" /><path stroke-width="2" d="M 945 199 L 950 199"></path><text xmlns="http://www.w3.org/2000/svg" x="955" y="205">249</text><path stroke-width="2" d="M 945 162 L 950 162" /><path d="M 945 162 L 950 162" stroke-width="2"></path><text x="955" y="168" xmlns="http://www.w3.org/2000/svg">312</text><path d="M 945 125 L 950 125" stroke-width="2" /><path stroke-width="2" d="M 945 125 L 950 125"></path><text xmlns="http://www.w3.org/2000/svg" x="955" y="131">374</text><path stroke-width="2" d="M 945 89 L 950 89" /><path stroke-width="2" d="M 945 89 L 950 89"></path><text xmlns="http://www.w3.org/2000/svg" x="955" y="95">436</text><path d="M 945 52 L 950 52" stroke-width="2" /><path stroke-width="2" d="M 945 52 L 950 52"></path><text xmlns="http://www.w3.org/2000/svg" x="955" y="58">498</text><path stroke-width="2" d="M 945 16 L 950 16" /><path stroke-width="2" d="M 945 16 L 950 16"></path><text x="955" y="22" xmlns="http://www.w3.org/2000/svg">560</text><text xmlns="http://www.w3.org/2000/svg" x="987" y="175" transform="rotate(90.00,987,175)">Stargazers</text><path d="M 57.000000 346.000000 L 945 346" stroke-width="2" /><path stroke-width="2" d="M 57.000000 346.000000 L 945 346"></path><path stroke-width="2" d="M 58 346 L 58 351" /><path d="M 58 346 L 58 351" stroke-width="2"></path><text xmlns="http://www.w3.org/2000/svg" x="25" y="368">2023-04-02</text><path stroke-width="2" d="M 157 346 L 157 351" /><path stroke-width="2" d="M 157 346 L 157 351"></path><text xmlns="http://www.w3.org/2000/svg" x="124" y="368">2023-05-27</text><path d="M 256 346 L 256 351" stroke-width="2" /><path stroke-width="2" d="M 256 346 L 256 351"></path><text xmlns="http://www.w3.org/2000/svg" x="223" y="368">2023-07-21</text><path stroke-width="2" d="M 354 346 L 354 351" /><path stroke-width="2" d="M 354 346 L 354 351"></path><text y="368" xmlns="http://www.w3.org/2000/svg" x="321">2023-09-14</text><path stroke-width="2" d="M 453 346 L 453 351" /><path stroke-width="2" d="M 453 346 L 453 351"></path><text y="368" xmlns="http://www.w3.org/2000/svg" x="420">2023-11-07</text><path stroke-width="2" d="M 551 346 L 551 351" /><path stroke-width="2" d="M 551 346 L 551 351"></path><text xmlns="http://www.w3.org/2000/svg" x="518" y="368">2024-01-01</text><path stroke-width="2" d="M 650 346 L 650 351" /><path stroke-width="2" d="M 650 346 L 650 351"></path><text xmlns="http://www.w3.org/2000/svg" x="617" y="368">2024-02-25</text><path stroke-width="2" d="M 748 346 L 748 351" /><path stroke-width="2" d="M 748 346 L 748 351"></path><text x="715" y="368" xmlns="http://www.w3.org/2000/svg">2024-04-20</text><path stroke-width="2" d="M 847 346 L 847 351" /><path stroke-width="2" d="M 847 346 L 847 351"></path><text xmlns="http://www.w3.org/2000/svg" x="814" y="368">2024-06-14</text><path stroke-width="2" d="M 945 346 L 945 351" /><path d="M 945 346 L 945 351" stroke-width="2"></path><text xmlns="http://www.w3.org/2000/svg" x="912" y="368">2024-08-08</text><text xmlns="http://www.w3.org/2000/svg" x="487" y="390">Time</text></svg>