<svg xmlns="http://www.w3.org/2000/svg" xmlns:xlink="http://www.w3.org/1999/xlink" width="1024px" height="400px"><style type="text/css">
path { fill: none; stroke: rgb(51,51,51); }
path.series { stroke: #6b63ff; }
rect.background { fill: rgb(255,255,255); stroke: none; }

text {
	stroke-width: 0;
	stroke: none;
	fill: rgba(51,51,51,1.0);
	font-size: 12.8px;
	font-family: 'Roboto Medium', sans-serif;
}
</style><rect x="0" y="0" width="1024px" height="400px" class="background" rx="8" /><rect x="0" y="0" width="1024px" height="400px" class="background" rx="8"></rect><path stroke-width="2" class="series" d="M 58 345 L 61 345 L 74 345 L 74 344 L 74 344 L 74 344 L 74 343 L 74 343 L 74 343 L 74 342 L 75 342 L 75 342 L 75 341 L 75 341 L 75 341 L 75 340 L 75 340 L 75 340 L 75 339 L 76 339 L 76 339 L 76 338 L 77 338 L 78 338 L 78 337 L 78 337 L 78 337 L 79 336 L 81 336 L 81 336 L 82 335 L 83 335 L 87 335 L 87 334 L 87 334 L 87 334 L 87 333 L 90 333 L 91 333 L 91 332 L 93 332 L 97 332 L 98 331 L 104 331 L 106 331 L 109 330 L 113 330 L 114 330 L 127 329 L 127 329 L 127 329 L 129 328 L 129 328 L 129 328 L 129 327 L 129 327 L 129 327 L 129 326 L 129 326 L 129 326 L 129 325 L 129 325 L 129 325 L 130 324 L 130 324 L 130 324 L 130 323 L 130 323 L 130 323 L 130 322 L 130 322 L 130 322 L 130 321 L 130 321 L 130 321 L 130 320 L 130 320 L 130 320 L 130 319 L 130 319 L 130 319 L 130 318 L 130 318 L 130 318 L 130 317 L 130 317 L 130 317 L 130 316 L 130 316 L 130 316 L 130 315 L 130 315 L 130 315 L 130 314 L 130 314 L 130 314 L 130 313 L 131 313 L 131 313 L 131 312 L 131 312 L 131 312 L 131 311 L 131 311 L 132 311 L 132 310 L 132 310 L 132 310 L 132 309 L 132 309 L 132 309 L 132 308 L 132 308 L 132 308 L 132 307 L 132 307 L 132 307 L 132 306 L 132 306 L 132 306 L 132 305 L 132 305 L 133 305 L 134 304 L 134 304 L 134 304 L 134 303 L 137 303 L 137 303 L 137 302 L 138 302 L 138 302 L 140 301 L 142 301 L 143 301 L 144 300 L 145 300 L 147 300 L 147 299 L 147 299 L 149 299 L 149 298 L 150 298 L 151 298 L 151 297 L 152 297 L 152 296 L 153 296 L 153 296 L 154 296 L 155 295 L 155 295 L 155 295 L 156 294 L 156 294 L 156 294 L 158 293 L 159 293 L 161 293 L 162 292 L 162 292 L 163 292 L 163 291 L 163 291 L 165 291 L 170 290 L 170 290 L 171 290 L 176 289 L 176 289 L 176 289 L 176 288 L 177 288 L 177 288 L 179 287 L 180 287 L 180 286 L 186 286 L 188 286 L 189 286 L 191 285 L 192 285 L 192 285 L 193 284 L 198 284 L 202 284 L 208 283 L 208 283 L 208 283 L 209 282 L 209 282 L 210 282 L 218 281 L 221 281 L 221 281 L 224 280 L 225 280 L 225 280 L 233 279 L 233 279 L 234 279 L 234 278 L 235 278 L 237 278 L 238 277 L 240 277 L 241 277 L 243 276 L 248 276 L 248 276 L 249 275 L 249 275 L 249 275 L 249 274 L 252 274 L 256 274 L 267 273 L 270 273 L 273 273 L 273 272 L 274 272 L 275 272 L 275 271 L 275 271 L 275 271 L 275 270 L 275 270 L 275 270 L 275 269 L 275 269 L 275 269 L 276 268 L 276 268 L 276 268 L 276 267 L 276 267 L 278 267 L 278 266 L 278 266 L 278 266 L 280 265 L 280 265 L 280 265 L 280 264 L 280 264 L 280 264 L 280 263 L 281 263 L 281 263 L 282 262 L 282 262 L 282 262 L 282 261 L 282 261 L 283 261 L 283 260 L 283 260 L 283 260 L 284 259 L 284 259 L 284 259 L 285 258 L 286 258 L 286 258 L 288 257 L 290 257 L 290 257 L 290 256 L 290 256 L 291 256 L 291 255 L 291 255 L 292 255 L 293 254 L 294 254 L 294 254 L 295 253 L 296 253 L 298 253 L 298 252 L 300 252 L 300 252 L 301 251 L 301 251 L 301 250 L 305 250 L 306 250 L 306 250 L 309 249 L 311 249 L 314 249 L 315 248 L 315 248 L 316 247 L 316 247 L 316 247 L 318 247 L 320 246 L 322 246 L 322 246 L 324 245 L 324 245 L 324 245 L 324 244 L 325 244 L 325 244 L 325 243 L 326 243 L 326 243 L 326 242 L 327 242 L 330 242 L 335 241 L 335 241 L 335 241 L 338 240 L 339 240 L 340 240 L 340 239 L 341 239 L 342 239 L 342 238 L 342 238 L 342 238 L 343 237 L 343 237 L 343 237 L 343 236 L 343 236 L 344 236 L 346 235 L 346 235 L 346 235 L 346 234 L 346 234 L 347 234 L 347 233 L 347 233 L 347 233 L 347 232 L 347 232 L 347 232 L 347 231 L 350 231 L 353 230 L 353 230 L 353 230 L 362 230 L 363 229 L 366 229 L 368 229 L 376 228 L 377 228 L 378 227 L 378 227 L 378 227 L 378 227 L 378 226 L 378 226 L 379 226 L 380 225 L 387 225 L 389 225 L 391 224 L 397 224 L 400 224 L 403 223 L 405 223 L 409 223 L 409 222 L 417 222 L 425 222 L 425 221 L 431 221 L 431 221 L 436 220 L 437 220 L 439 220 L 439 219 L 440 219 L 440 219 L 442 218 L 443 218 L 445 218 L 449 217 L 449 217 L 450 217 L 451 216 L 453 216 L 456 216 L 457 215 L 460 215 L 463 215 L 464 214 L 464 214 L 466 214 L 466 213 L 467 213 L 470 213 L 472 212 L 474 212 L 476 212 L 476 211 L 481 211 L 482 211 L 484 210 L 488 210 L 488 210 L 492 209 L 493 209 L 493 209 L 494 208 L 494 208 L 496 208 L 496 207 L 498 207 L 501 207 L 501 206 L 502 206 L 502 206 L 509 205 L 509 205 L 509 205 L 509 204 L 510 204 L 510 204 L 511 203 L 511 203 L 511 203 L 513 202 L 513 202 L 514 202 L 515 201 L 515 201 L 516 201 L 516 200 L 516 200 L 517 200 L 517 199 L 517 199 L 518 199 L 518 198 L 518 198 L 519 198 L 519 197 L 521 197 L 521 197 L 521 196 L 522 196 L 522 196 L 523 195 L 524 195 L 524 195 L 525 194 L 526 194 L 527 194 L 527 193 L 528 193 L 528 193 L 530 192 L 530 192 L 530 192 L 530 191 L 531 191 L 531 191 L 531 190 L 531 190 L 532 190 L 532 189 L 535 189 L 536 189 L 537 188 L 537 188 L 540 188 L 541 187 L 541 187 L 543 187 L 545 186 L 547 186 L 549 186 L 550 185 L 550 185 L 550 185 L 551 184 L 551 184 L 551 184 L 551 183 L 552 183 L 552 183 L 552 182 L 553 182 L 554 182 L 555 181 L 555 181 L 556 181 L 556 180 L 558 180 L 559 180 L 559 179 L 559 179 L 560 179 L 562 178 L 568 178 L 568 178 L 568 177 L 568 177 L 570 177 L 572 176 L 572 176 L 573 176 L 573 175 L 573 175 L 575 175 L 577 174 L 578 174 L 578 174 L 578 173 L 580 173 L 580 172 L 580 172 L 580 172 L 583 172 L 586 171 L 586 171 L 589 171 L 589 170 L 590 170 L 593 170 L 594 169 L 597 169 L 598 169 L 600 168 L 601 168 L 601 168 L 601 167 L 601 167 L 601 166 L 601 166 L 602 166 L 602 166 L 603 165 L 603 165 L 603 165 L 603 164 L 605 164 L 605 164 L 606 163 L 610 163 L 610 163 L 615 162 L 617 162 L 617 162 L 618 161 L 618 161 L 621 161 L 622 160 L 622 160 L 622 160 L 622 159 L 622 159 L 622 159 L 622 158 L 623 158 L 623 158 L 623 157 L 623 157 L 624 157 L 624 156 L 625 156 L 626 155 L 626 155 L 626 155 L 627 155 L 628 154 L 628 154 L 628 154 L 629 153 L 630 153 L 632 153 L 632 152 L 632 152 L 632 152 L 632 151 L 633 151 L 633 151 L 634 150 L 635 150 L 636 149 L 639 149 L 641 149 L 642 149 L 644 148 L 647 148 L 650 148 L 650 147 L 652 147 L 656 147 L 656 146 L 656 146 L 661 146 L 662 145 L 662 145 L 663 145 L 663 144 L 671 144 L 671 144 L 672 143 L 672 143 L 673 143 L 673 142 L 674 142 L 674 142 L 674 141 L 675 141 L 675 141 L 676 140 L 676 140 L 676 140 L 676 139 L 677 139 L 677 139 L 677 138 L 677 138 L 679 138 L 680 137 L 681 137 L 681 137 L 681 136 L 682 136 L 682 136 L 683 135 L 683 135 L 684 135 L 684 134 L 684 134 L 685 134 L 686 133 L 686 133 L 688 132 L 688 132 L 689 132 L 689 132 L 689 131 L 690 131 L 690 131 L 690 130 L 691 130 L 691 130 L 691 129 L 692 129 L 692 129 L 693 128 L 694 128 L 694 128 L 694 127 L 694 127 L 694 126 L 695 126 L 695 126 L 695 126 L 696 125 L 696 125 L 697 125 L 697 124 L 697 124 L 698 124 L 698 123 L 698 123 L 698 123 L 698 122 L 698 122 L 699 122 L 699 121 L 699 121 L 701 121 L 702 120 L 704 120 L 704 120 L 704 119 L 704 119 L 705 119 L 706 118 L 707 118 L 707 118 L 709 117 L 712 117 L 712 117 L 713 116 L 714 116 L 714 115 L 715 115 L 715 115 L 715 115 L 716 114 L 716 114 L 716 114 L 716 113 L 716 113 L 716 113 L 716 112 L 716 112 L 716 112 L 717 111 L 717 111 L 717 111 L 718 110 L 718 110 L 719 109 L 720 109 L 721 109 L 721 109 L 721 108 L 722 108 L 722 108 L 723 107 L 726 107 L 726 107 L 726 106 L 726 106 L 726 106 L 729 105 L 730 105 L 731 105 L 733 104 L 733 104 L 733 104 L 733 103 L 734 103 L 738 103 L 740 102 L 743 102 L 744 102 L 745 101 L 746 101 L 747 101 L 747 100 L 747 100 L 747 100 L 748 99 L 749 99 L 749 98 L 749 98 L 750 98 L 752 98 L 752 97 L 752 97 L 752 97 L 752 96 L 752 96 L 752 96 L 752 95 L 753 95 L 753 95 L 753 94 L 753 94 L 753 94 L 753 93 L 753 93 L 753 92 L 753 92 L 754 92 L 754 92 L 754 91 L 754 91 L 754 91 L 754 90 L 754 90 L 755 90 L 755 89 L 755 89 L 756 89 L 756 88 L 756 88 L 756 88 L 756 87 L 756 87 L 757 87 L 758 86 L 760 86 L 760 86 L 761 85 L 762 85 L 762 85 L 762 84 L 763 84 L 765 84 L 766 83 L 767 83 L 767 83 L 767 82 L 767 82 L 767 82 L 767 81 L 767 81 L 769 81 L 769 80 L 769 80 L 773 80 L 775 79 L 776 79 L 778 79 L 779 78 L 780 78 L 780 78 L 780 77 L 780 77 L 781 77 L 781 76 L 782 76 L 782 76 L 783 75 L 783 75 L 783 75 L 783 74 L 784 74 L 784 74 L 784 73 L 784 73 L 784 73 L 784 72 L 785 72 L 785 72 L 786 71 L 787 71 L 787 71 L 787 70 L 788 70 L 788 70 L 788 69 L 789 69 L 789 69 L 789 68 L 790 68 L 790 68 L 791 67 L 795 67 L 796 67 L 797 66 L 799 66 L 800 66 L 801 65 L 804 65 L 804 65 L 805 64 L 808 64 L 813 64 L 813 63 L 815 63 L 817 63 L 819 62 L 819 62 L 819 62 L 821 61 L 822 61 L 823 61 L 823 60 L 825 60 L 826 60 L 827 59 L 827 59 L 827 59 L 828 58 L 828 58 L 829 58 L 832 57 L 832 57 L 833 57 L 835 56 L 835 56 L 836 56 L 837 55 L 838 55 L 838 55 L 838 54 L 838 54 L 839 54 L 840 53 L 840 53 L 841 53 L 842 52 L 842 52 L 842 52 L 843 51 L 844 51 L 844 51 L 844 50 L 845 50 L 846 50 L 846 49 L 846 49 L 846 49 L 846 48 L 847 48 L 849 48 L 850 47 L 850 47 L 851 47 L 854 46 L 854 46 L 856 46 L 857 45 L 859 45 L 861 45 L 863 44 L 864 44 L 866 44 L 866 43 L 868 43 L 870 43 L 871 42 L 872 42 L 872 42 L 872 41 L 872 41 L 872 41 L 872 40 L 873 40 L 875 40 L 875 39 L 876 39 L 876 39 L 877 38 L 883 38 L 884 38 L 885 37 L 886 37 L 888 37 L 889 36 L 889 36 L 890 36 L 890 35 L 890 35 L 891 35 L 892 34 L 892 34 L 893 34 L 893 33 L 893 33 L 894 33 L 894 32 L 895 32 L 896 32 L 899 31 L 899 31 L 904 31 L 905 30 L 905 30 L 907 30 L 907 29 L 907 29 L 908 29 L 908 28 L 911 28 L 912 28 L 914 27 L 914 27 L 914 27 L 914 26 L 916 26 L 917 26 L 920 25 L 920 25 L 920 25 L 920 24 L 921 24 L 921 24 L 921 23 L 922 23 L 923 23 L 923 22 L 924 22 L 925 22 L 926 21 L 926 21 L 926 21 L 927 20 L 927 20 L 928 20 L 931 19 L 935 19 L 935 19 L 939 18 L 940 18 L 943 18 L 943 17 L 943 17 L 944 17 L 944 16 L 945 16" /><path class="series" d="M 58 345 L 61 345 L 74 345 L 74 344 L 74 344 L 74 344 L 74 343 L 74 343 L 74 343 L 74 342 L 75 342 L 75 342 L 75 341 L 75 341 L 75 341 L 75 340 L 75 340 L 75 340 L 75 339 L 76 339 L 76 339 L 76 338 L 77 338 L 78 338 L 78 337 L 78 337 L 78 337 L 79 336 L 81 336 L 81 336 L 82 335 L 83 335 L 87 335 L 87 334 L 87 334 L 87 334 L 87 333 L 90 333 L 91 333 L 91 332 L 93 332 L 97 332 L 98 331 L 104 331 L 106 331 L 109 330 L 113 330 L 114 330 L 127 329 L 127 329 L 127 329 L 129 328 L 129 328 L 129 328 L 129 327 L 129 327 L 129 327 L 129 326 L 129 326 L 129 326 L 129 325 L 129 325 L 129 325 L 130 324 L 130 324 L 130 324 L 130 323 L 130 323 L 130 323 L 130 322 L 130 322 L 130 322 L 130 321 L 130 321 L 130 321 L 130 320 L 130 320 L 130 320 L 130 319 L 130 319 L 130 319 L 130 318 L 130 318 L 130 318 L 130 317 L 130 317 L 130 317 L 130 316 L 130 316 L 130 316 L 130 315 L 130 315 L 130 315 L 130 314 L 130 314 L 130 314 L 130 313 L 131 313 L 131 313 L 131 312 L 131 312 L 131 312 L 131 311 L 131 311 L 132 311 L 132 310 L 132 310 L 132 310 L 132 309 L 132 309 L 132 309 L 132 308 L 132 308 L 132 308 L 132 307 L 132 307 L 132 307 L 132 306 L 132 306 L 132 306 L 132 305 L 132 305 L 133 305 L 134 304 L 134 304 L 134 304 L 134 303 L 137 303 L 137 303 L 137 302 L 138 302 L 138 302 L 140 301 L 142 301 L 143 301 L 144 300 L 145 300 L 147 300 L 147 299 L 147 299 L 149 299 L 149 298 L 150 298 L 151 298 L 151 297 L 152 297 L 152 296 L 153 296 L 153 296 L 154 296 L 155 295 L 155 295 L 155 295 L 156 294 L 156 294 L 156 294 L 158 293 L 159 293 L 161 293 L 162 292 L 162 292 L 163 292 L 163 291 L 163 291 L 165 291 L 170 290 L 170 290 L 171 290 L 176 289 L 176 289 L 176 289 L 176 288 L 177 288 L 177 288 L 179 287 L 180 287 L 180 286 L 186 286 L 188 286 L 189 286 L 191 285 L 192 285 L 192 285 L 193 284 L 198 284 L 202 284 L 208 283 L 208 283 L 208 283 L 209 282 L 209 282 L 210 282 L 218 281 L 221 281 L 221 281 L 224 280 L 225 280 L 225 280 L 233 279 L 233 279 L 234 279 L 234 278 L 235 278 L 237 278 L 238 277 L 240 277 L 241 277 L 243 276 L 248 276 L 248 276 L 249 275 L 249 275 L 249 275 L 249 274 L 252 274 L 256 274 L 267 273 L 270 273 L 273 273 L 273 272 L 274 272 L 275 272 L 275 271 L 275 271 L 275 271 L 275 270 L 275 270 L 275 270 L 275 269 L 275 269 L 275 269 L 276 268 L 276 268 L 276 268 L 276 267 L 276 267 L 278 267 L 278 266 L 278 266 L 278 266 L 280 265 L 280 265 L 280 265 L 280 264 L 280 264 L 280 264 L 280 263 L 281 263 L 281 263 L 282 262 L 282 262 L 282 262 L 282 261 L 282 261 L 283 261 L 283 260 L 283 260 L 283 260 L 284 259 L 284 259 L 284 259 L 285 258 L 286 258 L 286 258 L 288 257 L 290 257 L 290 257 L 290 256 L 290 256 L 291 256 L 291 255 L 291 255 L 292 255 L 293 254 L 294 254 L 294 254 L 295 253 L 296 253 L 298 253 L 298 252 L 300 252 L 300 252 L 301 251 L 301 251 L 301 250 L 305 250 L 306 250 L 306 250 L 309 249 L 311 249 L 314 249 L 315 248 L 315 248 L 316 247 L 316 247 L 316 247 L 318 247 L 320 246 L 322 246 L 322 246 L 324 245 L 324 245 L 324 245 L 324 244 L 325 244 L 325 244 L 325 243 L 326 243 L 326 243 L 326 242 L 327 242 L 330 242 L 335 241 L 335 241 L 335 241 L 338 240 L 339 240 L 340 240 L 340 239 L 341 239 L 342 239 L 342 238 L 342 238 L 342 238 L 343 237 L 343 237 L 343 237 L 343 236 L 343 236 L 344 236 L 346 235 L 346 235 L 346 235 L 346 234 L 346 234 L 347 234 L 347 233 L 347 233 L 347 233 L 347 232 L 347 232 L 347 232 L 347 231 L 350 231 L 353 230 L 353 230 L 353 230 L 362 230 L 363 229 L 366 229 L 368 229 L 376 228 L 377 228 L 378 227 L 378 227 L 378 227 L 378 227 L 378 226 L 378 226 L 379 226 L 380 225 L 387 225 L 389 225 L 391 224 L 397 224 L 400 224 L 403 223 L 405 223 L 409 223 L 409 222 L 417 222 L 425 222 L 425 221 L 431 221 L 431 221 L 436 220 L 437 220 L 439 220 L 439 219 L 440 219 L 440 219 L 442 218 L 443 218 L 445 218 L 449 217 L 449 217 L 450 217 L 451 216 L 453 216 L 456 216 L 457 215 L 460 215 L 463 215 L 464 214 L 464 214 L 466 214 L 466 213 L 467 213 L 470 213 L 472 212 L 474 212 L 476 212 L 476 211 L 481 211 L 482 211 L 484 210 L 488 210 L 488 210 L 492 209 L 493 209 L 493 209 L 494 208 L 494 208 L 496 208 L 496 207 L 498 207 L 501 207 L 501 206 L 502 206 L 502 206 L 509 205 L 509 205 L 509 205 L 509 204 L 510 204 L 510 204 L 511 203 L 511 203 L 511 203 L 513 202 L 513 202 L 514 202 L 515 201 L 515 201 L 516 201 L 516 200 L 516 200 L 517 200 L 517 199 L 517 199 L 518 199 L 518 198 L 518 198 L 519 198 L 519 197 L 521 197 L 521 197 L 521 196 L 522 196 L 522 196 L 523 195 L 524 195 L 524 195 L 525 194 L 526 194 L 527 194 L 527 193 L 528 193 L 528 193 L 530 192 L 530 192 L 530 192 L 530 191 L 531 191 L 531 191 L 531 190 L 531 190 L 532 190 L 532 189 L 535 189 L 536 189 L 537 188 L 537 188 L 540 188 L 541 187 L 541 187 L 543 187 L 545 186 L 547 186 L 549 186 L 550 185 L 550 185 L 550 185 L 551 184 L 551 184 L 551 184 L 551 183 L 552 183 L 552 183 L 552 182 L 553 182 L 554 182 L 555 181 L 555 181 L 556 181 L 556 180 L 558 180 L 559 180 L 559 179 L 559 179 L 560 179 L 562 178 L 568 178 L 568 178 L 568 177 L 568 177 L 570 177 L 572 176 L 572 176 L 573 176 L 573 175 L 573 175 L 575 175 L 577 174 L 578 174 L 578 174 L 578 173 L 580 173 L 580 172 L 580 172 L 580 172 L 583 172 L 586 171 L 586 171 L 589 171 L 589 170 L 590 170 L 593 170 L 594 169 L 597 169 L 598 169 L 600 168 L 601 168 L 601 168 L 601 167 L 601 167 L 601 166 L 601 166 L 602 166 L 602 166 L 603 165 L 603 165 L 603 165 L 603 164 L 605 164 L 605 164 L 606 163 L 610 163 L 610 163 L 615 162 L 617 162 L 617 162 L 618 161 L 618 161 L 621 161 L 622 160 L 622 160 L 622 160 L 622 159 L 622 159 L 622 159 L 622 158 L 623 158 L 623 158 L 623 157 L 623 157 L 624 157 L 624 156 L 625 156 L 626 155 L 626 155 L 626 155 L 627 155 L 628 154 L 628 154 L 628 154 L 629 153 L 630 153 L 632 153 L 632 152 L 632 152 L 632 152 L 632 151 L 633 151 L 633 151 L 634 150 L 635 150 L 636 149 L 639 149 L 641 149 L 642 149 L 644 148 L 647 148 L 650 148 L 650 147 L 652 147 L 656 147 L 656 146 L 656 146 L 661 146 L 662 145 L 662 145 L 663 145 L 663 144 L 671 144 L 671 144 L 672 143 L 672 143 L 673 143 L 673 142 L 674 142 L 674 142 L 674 141 L 675 141 L 675 141 L 676 140 L 676 140 L 676 140 L 676 139 L 677 139 L 677 139 L 677 138 L 677 138 L 679 138 L 680 137 L 681 137 L 681 137 L 681 136 L 682 136 L 682 136 L 683 135 L 683 135 L 684 135 L 684 134 L 684 134 L 685 134 L 686 133 L 686 133 L 688 132 L 688 132 L 689 132 L 689 132 L 689 131 L 690 131 L 690 131 L 690 130 L 691 130 L 691 130 L 691 129 L 692 129 L 692 129 L 693 128 L 694 128 L 694 128 L 694 127 L 694 127 L 694 126 L 695 126 L 695 126 L 695 126 L 696 125 L 696 125 L 697 125 L 697 124 L 697 124 L 698 124 L 698 123 L 698 123 L 698 123 L 698 122 L 698 122 L 699 122 L 699 121 L 699 121 L 701 121 L 702 120 L 704 120 L 704 120 L 704 119 L 704 119 L 705 119 L 706 118 L 707 118 L 707 118 L 709 117 L 712 117 L 712 117 L 713 116 L 714 116 L 714 115 L 715 115 L 715 115 L 715 115 L 716 114 L 716 114 L 716 114 L 716 113 L 716 113 L 716 113 L 716 112 L 716 112 L 716 112 L 717 111 L 717 111 L 717 111 L 718 110 L 718 110 L 719 109 L 720 109 L 721 109 L 721 109 L 721 108 L 722 108 L 722 108 L 723 107 L 726 107 L 726 107 L 726 106 L 726 106 L 726 106 L 729 105 L 730 105 L 731 105 L 733 104 L 733 104 L 733 104 L 733 103 L 734 103 L 738 103 L 740 102 L 743 102 L 744 102 L 745 101 L 746 101 L 747 101 L 747 100 L 747 100 L 747 100 L 748 99 L 749 99 L 749 98 L 749 98 L 750 98 L 752 98 L 752 97 L 752 97 L 752 97 L 752 96 L 752 96 L 752 96 L 752 95 L 753 95 L 753 95 L 753 94 L 753 94 L 753 94 L 753 93 L 753 93 L 753 92 L 753 92 L 754 92 L 754 92 L 754 91 L 754 91 L 754 91 L 754 90 L 754 90 L 755 90 L 755 89 L 755 89 L 756 89 L 756 88 L 756 88 L 756 88 L 756 87 L 756 87 L 757 87 L 758 86 L 760 86 L 760 86 L 761 85 L 762 85 L 762 85 L 762 84 L 763 84 L 765 84 L 766 83 L 767 83 L 767 83 L 767 82 L 767 82 L 767 82 L 767 81 L 767 81 L 769 81 L 769 80 L 769 80 L 773 80 L 775 79 L 776 79 L 778 79 L 779 78 L 780 78 L 780 78 L 780 77 L 780 77 L 781 77 L 781 76 L 782 76 L 782 76 L 783 75 L 783 75 L 783 75 L 783 74 L 784 74 L 784 74 L 784 73 L 784 73 L 784 73 L 784 72 L 785 72 L 785 72 L 786 71 L 787 71 L 787 71 L 787 70 L 788 70 L 788 70 L 788 69 L 789 69 L 789 69 L 789 68 L 790 68 L 790 68 L 791 67 L 795 67 L 796 67 L 797 66 L 799 66 L 800 66 L 801 65 L 804 65 L 804 65 L 805 64 L 808 64 L 813 64 L 813 63 L 815 63 L 817 63 L 819 62 L 819 62 L 819 62 L 821 61 L 822 61 L 823 61 L 823 60 L 825 60 L 826 60 L 827 59 L 827 59 L 827 59 L 828 58 L 828 58 L 829 58 L 832 57 L 832 57 L 833 57 L 835 56 L 835 56 L 836 56 L 837 55 L 838 55 L 838 55 L 838 54 L 838 54 L 839 54 L 840 53 L 840 53 L 841 53 L 842 52 L 842 52 L 842 52 L 843 51 L 844 51 L 844 51 L 844 50 L 845 50 L 846 50 L 846 49 L 846 49 L 846 49 L 846 48 L 847 48 L 849 48 L 850 47 L 850 47 L 851 47 L 854 46 L 854 46 L 856 46 L 857 45 L 859 45 L 861 45 L 863 44 L 864 44 L 866 44 L 866 43 L 868 43 L 870 43 L 871 42 L 872 42 L 872 42 L 872 41 L 872 41 L 872 41 L 872 40 L 873 40 L 875 40 L 875 39 L 876 39 L 876 39 L 877 38 L 883 38 L 884 38 L 885 37 L 886 37 L 888 37 L 889 36 L 889 36 L 890 36 L 890 35 L 890 35 L 891 35 L 892 34 L 892 34 L 893 34 L 893 33 L 893 33 L 894 33 L 894 32 L 895 32 L 896 32 L 899 31 L 899 31 L 904 31 L 905 30 L 905 30 L 907 30 L 907 29 L 907 29 L 908 29 L 908 28 L 911 28 L 912 28 L 914 27 L 914 27 L 914 27 L 914 26 L 916 26 L 917 26 L 920 25 L 920 25 L 920 25 L 920 24 L 921 24 L 921 24 L 921 23 L 922 23 L 923 23 L 923 22 L 924 22 L 925 22 L 926 21 L 926 21 L 926 21 L 927 20 L 927 20 L 928 20 L 931 19 L 935 19 L 935 19 L 939 18 L 940 18 L 943 18 L 943 17 L 943 17 L 944 17 L 944 16 L 945 16" stroke-width="2"></path><path stroke-width="2" d="M 945 346 L 945.000000 15.000000" /><path stroke-width="2" d="M 945 346 L 945.000000 15.000000"></path><path d="M 945 346 L 950 346" stroke-width="2" /><path stroke-width="2" d="M 945 346 L 950 346"></path><text xmlns="http://www.w3.org/2000/svg" x="955" y="352">0</text><path stroke-width="2" d="M 945 309 L 950 309" /><path stroke-width="2" d="M 945 309 L 950 309"></path><text xmlns="http://www.w3.org/2000/svg" x="955" y="315">110</text><path stroke-width="2" d="M 945 272 L 950 272" /><path stroke-width="2" d="M 945 272 L 950 272"></path><text xmlns="http://www.w3.org/2000/svg" x="955" y="278">220</text><path d="M 945 236 L 950 236" stroke-width="2" /><path stroke-width="2" d="M 945 236 L 950 236"></path><text xmlns="http://www.w3.org/2000/svg" x="955" y="242">330</text><path stroke-width="2" d="M 945 199 L 950 199" /><path d="M 945 199 L 950 199" stroke-width="2"></path><text xmlns="http://www.w3.org/2000/svg" x="955" y="205">440</text><path stroke-width="2" d="M 945 162 L 950 162" /><path d="M 945 162 L 950 162" stroke-width="2"></path><text xmlns="http://www.w3.org/2000/svg" x="955" y="168">550</text><path stroke-width="2" d="M 945 126 L 950 126" /><path stroke-width="2" d="M 945 126 L 950 126"></path><text xmlns="http://www.w3.org/2000/svg" x="955" y="132">660</text><path stroke-width="2" d="M 945 89 L 950 89" /><path stroke-width="2" d="M 945 89 L 950 89"></path><text xmlns="http://www.w3.org/2000/svg" x="955" y="95">770</text><path stroke-width="2" d="M 945 52 L 950 52" /><path stroke-width="2" d="M 945 52 L 950 52"></path><text x="955" y="58" xmlns="http://www.w3.org/2000/svg">880</text><path stroke-width="2" d="M 945 16 L 950 16" /><path stroke-width="2" d="M 945 16 L 950 16"></path><text xmlns="http://www.w3.org/2000/svg" x="955" y="22">990</text><text xmlns="http://www.w3.org/2000/svg" x="987" y="175" transform="rotate(90.00,987,175)">Stargazers</text><path d="M 57.000000 346.000000 L 945 346" stroke-width="2" /><path stroke-width="2" d="M 57.000000 346.000000 L 945 346"></path><path stroke-width="2" d="M 58 346 L 58 351" /><path stroke-width="2" d="M 58 346 L 58 351"></path><text xmlns="http://www.w3.org/2000/svg" x="25" y="368">2023-04-02</text><path d="M 157 346 L 157 351" stroke-width="2" /><path stroke-width="2" d="M 157 346 L 157 351"></path><text x="124" y="368" xmlns="http://www.w3.org/2000/svg">2023-06-30</text><path stroke-width="2" d="M 256 346 L 256 351" /><path stroke-width="2" d="M 256 346 L 256 351"></path><text xmlns="http://www.w3.org/2000/svg" x="223" y="368">2023-09-27</text><path stroke-width="2" d="M 354 346 L 354 351" /><path stroke-width="2" d="M 354 346 L 354 351"></path><text xmlns="http://www.w3.org/2000/svg" x="321" y="368">2023-12-25</text><path stroke-width="2" d="M 453 346 L 453 351" /><path stroke-width="2" d="M 453 346 L 453 351"></path><text xmlns="http://www.w3.org/2000/svg" x="420" y="368">2024-03-23</text><path stroke-width="2" d="M 551 346 L 551 351" /><path stroke-width="2" d="M 551 346 L 551 351"></path><text xmlns="http://www.w3.org/2000/svg" x="518" y="368">2024-06-21</text><path stroke-width="2" d="M 650 346 L 650 351" /><path stroke-width="2" d="M 650 346 L 650 351"></path><text xmlns="http://www.w3.org/2000/svg" x="617" y="368">2024-09-18</text><path stroke-width="2" d="M 748 346 L 748 351" /><path stroke-width="2" d="M 748 346 L 748 351"></path><text x="715" y="368" xmlns="http://www.w3.org/2000/svg">2024-12-16</text><path stroke-width="2" d="M 847 346 L 847 351" /><path stroke-width="2" d="M 847 346 L 847 351"></path><text y="368" xmlns="http://www.w3.org/2000/svg" x="814">2025-03-15</text><path stroke-width="2" d="M 945 346 L 945 351" /><path d="M 945 346 L 945 351" stroke-width="2"></path><text x="912" y="368" xmlns="http://www.w3.org/2000/svg">2025-06-12</text><text xmlns="http://www.w3.org/2000/svg" x="487" y="390">Time</text></svg>