<svg width="1024px" height="400px" xmlns="http://www.w3.org/2000/svg" xmlns:xlink="http://www.w3.org/1999/xlink"><style type="text/css">
path { fill: none; stroke: rgb(51,51,51); }
path.series { stroke: #6b63ff; }
rect.background { fill: rgb(255,255,255); stroke: none; }

text {
	stroke-width: 0;
	stroke: none;
	fill: rgba(51,51,51,1.0);
	font-size: 12.8px;
	font-family: 'Roboto Medium', sans-serif;
}
</style><rect x="0" y="0" width="1024px" height="400px" class="background" rx="8" /><rect x="0" y="0" width="1024px" height="400px" class="background" rx="8"></rect><path stroke-width="2" class="series" d="M 58 345 L 60 345 L 73 345 L 73 344 L 73 344 L 73 344 L 73 343 L 73 343 L 74 343 L 74 343 L 74 342 L 74 342 L 74 342 L 74 341 L 74 341 L 74 341 L 74 340 L 74 340 L 74 340 L 75 340 L 75 339 L 75 339 L 76 339 L 77 338 L 77 338 L 77 338 L 77 337 L 78 337 L 80 337 L 80 337 L 81 336 L 82 336 L 86 336 L 86 335 L 86 335 L 86 335 L 86 334 L 88 334 L 89 334 L 90 334 L 92 333 L 95 333 L 96 333 L 102 332 L 104 332 L 107 332 L 110 331 L 111 331 L 123 331 L 124 331 L 124 330 L 125 330 L 126 330 L 126 329 L 126 329 L 126 329 L 126 328 L 126 328 L 126 328 L 126 328 L 126 327 L 126 327 L 126 327 L 126 326 L 126 326 L 126 326 L 126 325 L 126 325 L 126 325 L 126 325 L 126 324 L 126 324 L 126 324 L 126 323 L 126 323 L 127 323 L 127 322 L 127 322 L 127 322 L 127 322 L 127 321 L 127 321 L 127 321 L 127 320 L 127 320 L 127 320 L 127 319 L 127 319 L 127 319 L 127 319 L 127 318 L 127 318 L 127 318 L 127 317 L 127 317 L 127 317 L 127 316 L 127 316 L 127 316 L 127 316 L 127 315 L 128 315 L 128 315 L 128 314 L 128 314 L 129 314 L 129 313 L 129 313 L 129 313 L 129 313 L 129 312 L 129 312 L 129 312 L 129 311 L 129 311 L 129 311 L 129 310 L 129 310 L 129 310 L 129 310 L 129 309 L 129 309 L 129 309 L 130 308 L 130 308 L 130 308 L 130 307 L 133 307 L 133 307 L 133 307 L 134 306 L 134 306 L 136 306 L 138 305 L 139 305 L 140 305 L 141 304 L 142 304 L 143 304 L 143 304 L 145 303 L 145 303 L 146 303 L 146 302 L 147 302 L 148 302 L 148 301 L 148 301 L 148 301 L 149 301 L 150 300 L 150 300 L 151 300 L 151 299 L 151 299 L 152 299 L 153 298 L 154 298 L 156 298 L 156 298 L 157 297 L 158 297 L 158 297 L 158 296 L 159 296 L 165 296 L 165 295 L 166 295 L 171 295 L 171 295 L 171 294 L 171 294 L 171 294 L 172 293 L 173 293 L 174 293 L 174 292 L 180 292 L 181 292 L 183 292 L 185 291 L 186 291 L 186 291 L 187 290 L 191 290 L 195 290 L 201 289 L 201 289 L 201 289 L 201 289 L 202 288 L 203 288 L 210 288 L 213 287 L 213 287 L 216 287 L 216 286 L 217 286 L 225 286 L 225 286 L 225 285 L 226 285 L 227 285 L 229 284 L 230 284 L 231 284 L 232 283 L 234 283 L 238 283 L 239 283 L 239 282 L 239 282 L 240 282 L 240 281 L 242 281 L 247 281 L 256 280 L 260 280 L 262 280 L 262 280 L 264 279 L 265 279 L 265 279 L 265 278 L 265 278 L 265 278 L 265 277 L 265 277 L 265 277 L 265 277 L 265 276 L 265 276 L 265 276 L 265 275 L 265 275 L 266 275 L 267 274 L 268 274 L 268 274 L 268 274 L 269 273 L 269 273 L 269 273 L 269 272 L 269 272 L 269 272 L 269 271 L 270 271 L 270 271 L 271 271 L 271 270 L 271 270 L 271 270 L 271 269 L 272 269 L 272 269 L 272 268 L 273 268 L 273 268 L 273 268 L 274 267 L 275 267 L 275 267 L 277 266 L 278 266 L 278 266 L 279 265 L 279 265 L 279 265 L 279 265 L 279 264 L 281 264 L 281 264 L 283 263 L 283 263 L 283 263 L 285 262 L 286 262 L 286 262 L 288 262 L 288 261 L 289 261 L 289 261 L 289 260 L 293 260 L 294 260 L 294 259 L 297 259 L 298 259 L 301 259 L 302 258 L 302 258 L 303 258 L 303 257 L 303 257 L 306 257 L 307 256 L 309 256 L 309 256 L 311 256 L 311 255 L 311 255 L 311 255 L 312 254 L 312 254 L 312 254 L 313 253 L 313 253 L 313 253 L 314 253 L 317 252 L 321 252 L 321 252 L 321 251 L 324 251 L 326 251 L 326 250 L 327 250 L 328 250 L 329 250 L 329 249 L 329 249 L 329 249 L 329 248 L 329 248 L 329 248 L 329 247 L 329 247 L 330 247 L 332 247 L 332 246 L 332 246 L 332 246 L 332 245 L 333 245 L 333 245 L 333 244 L 333 244 L 333 244 L 333 244 L 333 243 L 333 243 L 336 243 L 338 242 L 338 242 L 339 242 L 347 241 L 348 241 L 351 241 L 353 241 L 360 240 L 362 240 L 362 240 L 362 239 L 362 239 L 362 239 L 362 238 L 362 238 L 363 238 L 364 238 L 371 237 L 373 237 L 375 237 L 380 236 L 384 236 L 386 236 L 389 235 L 392 235 L 392 235 L 400 235 L 407 234 L 407 234 L 413 234 L 413 233 L 417 233 L 418 233 L 420 232 L 420 232 L 421 232 L 421 232 L 423 231 L 424 231 L 426 231 L 430 230 L 430 230 L 431 230 L 431 229 L 434 229 L 437 229 L 437 229 L 440 228 L 444 228 L 444 228 L 444 227 L 446 227 L 446 227 L 447 226 L 450 226 L 452 226 L 454 226 L 456 225 L 456 225 L 460 225 L 461 224 L 463 224 L 467 224 L 467 223 L 471 223 L 471 223 L 471 223 L 473 222 L 473 222 L 475 222 L 475 221 L 477 221 L 479 221 L 480 220 L 480 220 L 480 220 L 487 220 L 487 219 L 487 219 L 487 219 L 488 218 L 488 218 L 488 218 L 489 217 L 489 217 L 491 217 L 491 217 L 492 216 L 492 216 L 493 216 L 494 215 L 494 215 L 494 215 L 495 214 L 495 214 L 495 214 L 496 214 L 496 213 L 496 213 L 496 213 L 497 212 L 498 212 L 498 212 L 498 211 L 499 211 L 499 211 L 500 211 L 501 210 L 502 210 L 502 210 L 503 209 L 504 209 L 504 209 L 505 208 L 505 208 L 507 208 L 507 208 L 507 207 L 507 207 L 507 207 L 508 206 L 508 206 L 508 206 L 508 205 L 509 205 L 512 205 L 513 205 L 514 204 L 514 204 L 516 204 L 517 203 L 518 203 L 519 203 L 521 202 L 523 202 L 525 202 L 526 202 L 526 201 L 526 201 L 526 201 L 527 200 L 527 200 L 527 200 L 528 199 L 528 199 L 528 199 L 529 199 L 530 198 L 531 198 L 531 198 L 531 197 L 532 197 L 534 197 L 534 196 L 534 196 L 535 196 L 536 196 L 538 195 L 543 195 L 543 195 L 543 194 L 543 194 L 545 194 L 547 193 L 547 193 L 547 193 L 547 193 L 548 192 L 549 192 L 552 192 L 552 191 L 552 191 L 552 191 L 554 190 L 554 190 L 554 190 L 555 190 L 557 189 L 560 189 L 560 189 L 563 188 L 563 188 L 564 188 L 567 187 L 568 187 L 570 187 L 572 187 L 573 186 L 574 186 L 574 186 L 574 185 L 575 185 L 575 185 L 575 184 L 576 184 L 576 184 L 576 184 L 577 183 L 577 183 L 577 183 L 578 182 L 579 182 L 579 182 L 583 181 L 583 181 L 588 181 L 589 181 L 589 180 L 590 180 L 591 180 L 593 179 L 594 179 L 594 179 L 595 178 L 595 178 L 595 178 L 595 178 L 595 177 L 596 177 L 596 177 L 596 176 L 596 176 L 596 176 L 597 175 L 597 175 L 598 175 L 598 175 L 599 174 L 599 174 L 600 174 L 600 173 L 600 173 L 601 173 L 602 172 L 604 172 L 604 172 L 604 172 L 604 171 L 604 171 L 605 171 L 605 170 L 605 170 L 606 170 L 608 169 L 610 169 L 613 169 L 614 169 L 615 168 L 618 168 L 621 168 L 621 167 L 623 167 L 627 167 L 627 166 L 627 166 L 631 166 L 632 166 L 633 165 L 633 165 L 634 165 L 641 164 L 641 164 L 642 164 L 642 163 L 642 163 L 643 163 L 644 163 L 644 162 L 644 162 L 645 162 L 645 161 L 646 161 L 646 161 L 646 160 L 646 160 L 646 160 L 646 160 L 647 159 L 647 159 L 648 159 L 649 158 L 650 158 L 650 158 L 650 157 L 651 157 L 652 157 L 652 157 L 653 156 L 654 156 L 654 156 L 654 155 L 654 155 L 655 155 L 656 154 L 657 154 L 657 154 L 658 154 L 658 153 L 659 153 L 659 153 L 659 152 L 659 152 L 660 152 L 660 151 L 660 151 L 661 151 L 661 151 L 662 150 L 663 150 L 663 150 L 663 149 L 663 149 L 663 149 L 664 148 L 664 148 L 664 148 L 665 148 L 665 147 L 665 147 L 666 147 L 666 146 L 666 146 L 666 146 L 666 145 L 666 145 L 667 145 L 667 145 L 667 144 L 667 144 L 667 144 L 669 143 L 670 143 L 672 143 L 672 142 L 672 142 L 672 142 L 674 142 L 675 141 L 675 141 L 675 141 L 678 140 L 680 140 L 680 140 L 681 139 L 682 139 L 682 139 L 683 139 L 683 138 L 683 138 L 683 138 L 683 137 L 683 137 L 683 137 L 684 136 L 684 136 L 684 136 L 684 136 L 684 135 L 684 135 L 685 135 L 685 134 L 685 134 L 686 134 L 686 133 L 688 133 L 688 133 L 688 132 L 688 132 L 690 132 L 690 132 L 690 131 L 693 131 L 694 131 L 694 130 L 694 130 L 694 130 L 696 130 L 698 129 L 698 129 L 700 129 L 700 128 L 700 128 L 700 128 L 701 127 L 705 127 L 707 127 L 709 126 L 711 126 L 711 126 L 712 126 L 713 125 L 713 125 L 714 125 L 714 124 L 714 124 L 715 124 L 715 124 L 716 123 L 717 123 L 718 123 L 718 122 L 718 122 L 718 122 L 718 121 L 719 121 L 719 121 L 719 121 L 719 120 L 719 120 L 719 120 L 719 119 L 719 119 L 719 119 L 719 118 L 719 118 L 719 118 L 720 118 L 720 117 L 720 117 L 720 117 L 720 116 L 720 116 L 720 116 L 721 115 L 721 115 L 721 115 L 722 115 L 722 114 L 722 114 L 722 114 L 722 113 L 722 113 L 723 113 L 724 112 L 726 112 L 726 112 L 726 112 L 727 111 L 728 111 L 728 111 L 729 110 L 730 110 L 731 110 L 732 109 L 732 109 L 732 109 L 732 109 L 732 108 L 732 108 L 732 108 L 734 107 L 735 107 L 735 107 L 738 106 L 740 106 L 741 106 L 743 106 L 744 105 L 745 105 L 745 105 L 745 104 L 745 104 L 745 104 L 746 103 L 746 103 L 747 103 L 747 103 L 748 102 L 748 102 L 748 102 L 748 101 L 748 101 L 748 101 L 748 100 L 748 100 L 749 100 L 749 100 L 749 99 L 751 99 L 751 99 L 751 98 L 752 98 L 752 98 L 752 97 L 753 97 L 753 97 L 754 97 L 754 96 L 754 96 L 755 96 L 756 95 L 759 95 L 760 95 L 761 94 L 763 94 L 764 94 L 765 94 L 768 93 L 768 93 L 769 93 L 771 92 L 776 92 L 776 92 L 778 91 L 780 91 L 782 91 L 782 91 L 782 90 L 784 90 L 784 90 L 785 89 L 786 89 L 787 89 L 788 88 L 789 88 L 789 88 L 790 88 L 790 87 L 790 87 L 791 87 L 794 86 L 794 86 L 795 86 L 797 85 L 797 85 L 798 85 L 799 85 L 800 84 L 800 84 L 800 84 L 800 83 L 801 83 L 802 83 L 802 82 L 803 82 L 803 82 L 804 82 L 804 81 L 805 81 L 806 81 L 806 80 L 806 80 L 807 80 L 807 79 L 807 79 L 807 79 L 807 79 L 807 78 L 808 78 L 810 78 L 811 77 L 811 77 L 812 77 L 815 76 L 815 76 L 817 76 L 818 76 L 820 75 L 822 75 L 824 75 L 825 74 L 826 74 L 827 74 L 828 73 L 830 73 L 831 73 L 832 73 L 832 72 L 832 72 L 832 72 L 832 71 L 833 71 L 834 71 L 835 70 L 835 70 L 836 70 L 836 70 L 837 69 L 843 69 L 843 69 L 844 68 L 846 68 L 847 68 L 848 67 L 848 67 L 849 67 L 849 67 L 849 66 L 851 66 L 851 66 L 851 65 L 852 65 L 852 65 L 852 64 L 853 64 L 853 64 L 854 64 L 855 63 L 858 63 L 858 63 L 863 62 L 864 62 L 864 62 L 865 61 L 866 61 L 866 61 L 866 61 L 866 60 L 869 60 L 870 60 L 872 59 L 872 59 L 872 59 L 872 58 L 874 58 L 875 58 L 877 58 L 878 57 L 878 57 L 878 57 L 879 56 L 879 56 L 879 56 L 880 55 L 880 55 L 881 55 L 882 55 L 883 54 L 884 54 L 884 54 L 884 53 L 884 53 L 885 53 L 885 52 L 888 52 L 892 52 L 892 52 L 896 51 L 897 51 L 899 51 L 900 50 L 900 50 L 901 50 L 901 49 L 902 49 L 903 49 L 904 49 L 905 48 L 906 48 L 907 48 L 910 47 L 915 47 L 915 47 L 915 46 L 915 46 L 916 46 L 917 46 L 917 45 L 918 45 L 926 45 L 929 44 L 929 44 L 930 44 L 932 43 L 935 43 L 936 43 L 937 43 L 937 42" /><path stroke-width="2" class="series" d="M 58 345 L 60 345 L 73 345 L 73 344 L 73 344 L 73 344 L 73 343 L 73 343 L 74 343 L 74 343 L 74 342 L 74 342 L 74 342 L 74 341 L 74 341 L 74 341 L 74 340 L 74 340 L 74 340 L 75 340 L 75 339 L 75 339 L 76 339 L 77 338 L 77 338 L 77 338 L 77 337 L 78 337 L 80 337 L 80 337 L 81 336 L 82 336 L 86 336 L 86 335 L 86 335 L 86 335 L 86 334 L 88 334 L 89 334 L 90 334 L 92 333 L 95 333 L 96 333 L 102 332 L 104 332 L 107 332 L 110 331 L 111 331 L 123 331 L 124 331 L 124 330 L 125 330 L 126 330 L 126 329 L 126 329 L 126 329 L 126 328 L 126 328 L 126 328 L 126 328 L 126 327 L 126 327 L 126 327 L 126 326 L 126 326 L 126 326 L 126 325 L 126 325 L 126 325 L 126 325 L 126 324 L 126 324 L 126 324 L 126 323 L 126 323 L 127 323 L 127 322 L 127 322 L 127 322 L 127 322 L 127 321 L 127 321 L 127 321 L 127 320 L 127 320 L 127 320 L 127 319 L 127 319 L 127 319 L 127 319 L 127 318 L 127 318 L 127 318 L 127 317 L 127 317 L 127 317 L 127 316 L 127 316 L 127 316 L 127 316 L 127 315 L 128 315 L 128 315 L 128 314 L 128 314 L 129 314 L 129 313 L 129 313 L 129 313 L 129 313 L 129 312 L 129 312 L 129 312 L 129 311 L 129 311 L 129 311 L 129 310 L 129 310 L 129 310 L 129 310 L 129 309 L 129 309 L 129 309 L 130 308 L 130 308 L 130 308 L 130 307 L 133 307 L 133 307 L 133 307 L 134 306 L 134 306 L 136 306 L 138 305 L 139 305 L 140 305 L 141 304 L 142 304 L 143 304 L 143 304 L 145 303 L 145 303 L 146 303 L 146 302 L 147 302 L 148 302 L 148 301 L 148 301 L 148 301 L 149 301 L 150 300 L 150 300 L 151 300 L 151 299 L 151 299 L 152 299 L 153 298 L 154 298 L 156 298 L 156 298 L 157 297 L 158 297 L 158 297 L 158 296 L 159 296 L 165 296 L 165 295 L 166 295 L 171 295 L 171 295 L 171 294 L 171 294 L 171 294 L 172 293 L 173 293 L 174 293 L 174 292 L 180 292 L 181 292 L 183 292 L 185 291 L 186 291 L 186 291 L 187 290 L 191 290 L 195 290 L 201 289 L 201 289 L 201 289 L 201 289 L 202 288 L 203 288 L 210 288 L 213 287 L 213 287 L 216 287 L 216 286 L 217 286 L 225 286 L 225 286 L 225 285 L 226 285 L 227 285 L 229 284 L 230 284 L 231 284 L 232 283 L 234 283 L 238 283 L 239 283 L 239 282 L 239 282 L 240 282 L 240 281 L 242 281 L 247 281 L 256 280 L 260 280 L 262 280 L 262 280 L 264 279 L 265 279 L 265 279 L 265 278 L 265 278 L 265 278 L 265 277 L 265 277 L 265 277 L 265 277 L 265 276 L 265 276 L 265 276 L 265 275 L 265 275 L 266 275 L 267 274 L 268 274 L 268 274 L 268 274 L 269 273 L 269 273 L 269 273 L 269 272 L 269 272 L 269 272 L 269 271 L 270 271 L 270 271 L 271 271 L 271 270 L 271 270 L 271 270 L 271 269 L 272 269 L 272 269 L 272 268 L 273 268 L 273 268 L 273 268 L 274 267 L 275 267 L 275 267 L 277 266 L 278 266 L 278 266 L 279 265 L 279 265 L 279 265 L 279 265 L 279 264 L 281 264 L 281 264 L 283 263 L 283 263 L 283 263 L 285 262 L 286 262 L 286 262 L 288 262 L 288 261 L 289 261 L 289 261 L 289 260 L 293 260 L 294 260 L 294 259 L 297 259 L 298 259 L 301 259 L 302 258 L 302 258 L 303 258 L 303 257 L 303 257 L 306 257 L 307 256 L 309 256 L 309 256 L 311 256 L 311 255 L 311 255 L 311 255 L 312 254 L 312 254 L 312 254 L 313 253 L 313 253 L 313 253 L 314 253 L 317 252 L 321 252 L 321 252 L 321 251 L 324 251 L 326 251 L 326 250 L 327 250 L 328 250 L 329 250 L 329 249 L 329 249 L 329 249 L 329 248 L 329 248 L 329 248 L 329 247 L 329 247 L 330 247 L 332 247 L 332 246 L 332 246 L 332 246 L 332 245 L 333 245 L 333 245 L 333 244 L 333 244 L 333 244 L 333 244 L 333 243 L 333 243 L 336 243 L 338 242 L 338 242 L 339 242 L 347 241 L 348 241 L 351 241 L 353 241 L 360 240 L 362 240 L 362 240 L 362 239 L 362 239 L 362 239 L 362 238 L 362 238 L 363 238 L 364 238 L 371 237 L 373 237 L 375 237 L 380 236 L 384 236 L 386 236 L 389 235 L 392 235 L 392 235 L 400 235 L 407 234 L 407 234 L 413 234 L 413 233 L 417 233 L 418 233 L 420 232 L 420 232 L 421 232 L 421 232 L 423 231 L 424 231 L 426 231 L 430 230 L 430 230 L 431 230 L 431 229 L 434 229 L 437 229 L 437 229 L 440 228 L 444 228 L 444 228 L 444 227 L 446 227 L 446 227 L 447 226 L 450 226 L 452 226 L 454 226 L 456 225 L 456 225 L 460 225 L 461 224 L 463 224 L 467 224 L 467 223 L 471 223 L 471 223 L 471 223 L 473 222 L 473 222 L 475 222 L 475 221 L 477 221 L 479 221 L 480 220 L 480 220 L 480 220 L 487 220 L 487 219 L 487 219 L 487 219 L 488 218 L 488 218 L 488 218 L 489 217 L 489 217 L 491 217 L 491 217 L 492 216 L 492 216 L 493 216 L 494 215 L 494 215 L 494 215 L 495 214 L 495 214 L 495 214 L 496 214 L 496 213 L 496 213 L 496 213 L 497 212 L 498 212 L 498 212 L 498 211 L 499 211 L 499 211 L 500 211 L 501 210 L 502 210 L 502 210 L 503 209 L 504 209 L 504 209 L 505 208 L 505 208 L 507 208 L 507 208 L 507 207 L 507 207 L 507 207 L 508 206 L 508 206 L 508 206 L 508 205 L 509 205 L 512 205 L 513 205 L 514 204 L 514 204 L 516 204 L 517 203 L 518 203 L 519 203 L 521 202 L 523 202 L 525 202 L 526 202 L 526 201 L 526 201 L 526 201 L 527 200 L 527 200 L 527 200 L 528 199 L 528 199 L 528 199 L 529 199 L 530 198 L 531 198 L 531 198 L 531 197 L 532 197 L 534 197 L 534 196 L 534 196 L 535 196 L 536 196 L 538 195 L 543 195 L 543 195 L 543 194 L 543 194 L 545 194 L 547 193 L 547 193 L 547 193 L 547 193 L 548 192 L 549 192 L 552 192 L 552 191 L 552 191 L 552 191 L 554 190 L 554 190 L 554 190 L 555 190 L 557 189 L 560 189 L 560 189 L 563 188 L 563 188 L 564 188 L 567 187 L 568 187 L 570 187 L 572 187 L 573 186 L 574 186 L 574 186 L 574 185 L 575 185 L 575 185 L 575 184 L 576 184 L 576 184 L 576 184 L 577 183 L 577 183 L 577 183 L 578 182 L 579 182 L 579 182 L 583 181 L 583 181 L 588 181 L 589 181 L 589 180 L 590 180 L 591 180 L 593 179 L 594 179 L 594 179 L 595 178 L 595 178 L 595 178 L 595 178 L 595 177 L 596 177 L 596 177 L 596 176 L 596 176 L 596 176 L 597 175 L 597 175 L 598 175 L 598 175 L 599 174 L 599 174 L 600 174 L 600 173 L 600 173 L 601 173 L 602 172 L 604 172 L 604 172 L 604 172 L 604 171 L 604 171 L 605 171 L 605 170 L 605 170 L 606 170 L 608 169 L 610 169 L 613 169 L 614 169 L 615 168 L 618 168 L 621 168 L 621 167 L 623 167 L 627 167 L 627 166 L 627 166 L 631 166 L 632 166 L 633 165 L 633 165 L 634 165 L 641 164 L 641 164 L 642 164 L 642 163 L 642 163 L 643 163 L 644 163 L 644 162 L 644 162 L 645 162 L 645 161 L 646 161 L 646 161 L 646 160 L 646 160 L 646 160 L 646 160 L 647 159 L 647 159 L 648 159 L 649 158 L 650 158 L 650 158 L 650 157 L 651 157 L 652 157 L 652 157 L 653 156 L 654 156 L 654 156 L 654 155 L 654 155 L 655 155 L 656 154 L 657 154 L 657 154 L 658 154 L 658 153 L 659 153 L 659 153 L 659 152 L 659 152 L 660 152 L 660 151 L 660 151 L 661 151 L 661 151 L 662 150 L 663 150 L 663 150 L 663 149 L 663 149 L 663 149 L 664 148 L 664 148 L 664 148 L 665 148 L 665 147 L 665 147 L 666 147 L 666 146 L 666 146 L 666 146 L 666 145 L 666 145 L 667 145 L 667 145 L 667 144 L 667 144 L 667 144 L 669 143 L 670 143 L 672 143 L 672 142 L 672 142 L 672 142 L 674 142 L 675 141 L 675 141 L 675 141 L 678 140 L 680 140 L 680 140 L 681 139 L 682 139 L 682 139 L 683 139 L 683 138 L 683 138 L 683 138 L 683 137 L 683 137 L 683 137 L 684 136 L 684 136 L 684 136 L 684 136 L 684 135 L 684 135 L 685 135 L 685 134 L 685 134 L 686 134 L 686 133 L 688 133 L 688 133 L 688 132 L 688 132 L 690 132 L 690 132 L 690 131 L 693 131 L 694 131 L 694 130 L 694 130 L 694 130 L 696 130 L 698 129 L 698 129 L 700 129 L 700 128 L 700 128 L 700 128 L 701 127 L 705 127 L 707 127 L 709 126 L 711 126 L 711 126 L 712 126 L 713 125 L 713 125 L 714 125 L 714 124 L 714 124 L 715 124 L 715 124 L 716 123 L 717 123 L 718 123 L 718 122 L 718 122 L 718 122 L 718 121 L 719 121 L 719 121 L 719 121 L 719 120 L 719 120 L 719 120 L 719 119 L 719 119 L 719 119 L 719 118 L 719 118 L 719 118 L 720 118 L 720 117 L 720 117 L 720 117 L 720 116 L 720 116 L 720 116 L 721 115 L 721 115 L 721 115 L 722 115 L 722 114 L 722 114 L 722 114 L 722 113 L 722 113 L 723 113 L 724 112 L 726 112 L 726 112 L 726 112 L 727 111 L 728 111 L 728 111 L 729 110 L 730 110 L 731 110 L 732 109 L 732 109 L 732 109 L 732 109 L 732 108 L 732 108 L 732 108 L 734 107 L 735 107 L 735 107 L 738 106 L 740 106 L 741 106 L 743 106 L 744 105 L 745 105 L 745 105 L 745 104 L 745 104 L 745 104 L 746 103 L 746 103 L 747 103 L 747 103 L 748 102 L 748 102 L 748 102 L 748 101 L 748 101 L 748 101 L 748 100 L 748 100 L 749 100 L 749 100 L 749 99 L 751 99 L 751 99 L 751 98 L 752 98 L 752 98 L 752 97 L 753 97 L 753 97 L 754 97 L 754 96 L 754 96 L 755 96 L 756 95 L 759 95 L 760 95 L 761 94 L 763 94 L 764 94 L 765 94 L 768 93 L 768 93 L 769 93 L 771 92 L 776 92 L 776 92 L 778 91 L 780 91 L 782 91 L 782 91 L 782 90 L 784 90 L 784 90 L 785 89 L 786 89 L 787 89 L 788 88 L 789 88 L 789 88 L 790 88 L 790 87 L 790 87 L 791 87 L 794 86 L 794 86 L 795 86 L 797 85 L 797 85 L 798 85 L 799 85 L 800 84 L 800 84 L 800 84 L 800 83 L 801 83 L 802 83 L 802 82 L 803 82 L 803 82 L 804 82 L 804 81 L 805 81 L 806 81 L 806 80 L 806 80 L 807 80 L 807 79 L 807 79 L 807 79 L 807 79 L 807 78 L 808 78 L 810 78 L 811 77 L 811 77 L 812 77 L 815 76 L 815 76 L 817 76 L 818 76 L 820 75 L 822 75 L 824 75 L 825 74 L 826 74 L 827 74 L 828 73 L 830 73 L 831 73 L 832 73 L 832 72 L 832 72 L 832 72 L 832 71 L 833 71 L 834 71 L 835 70 L 835 70 L 836 70 L 836 70 L 837 69 L 843 69 L 843 69 L 844 68 L 846 68 L 847 68 L 848 67 L 848 67 L 849 67 L 849 67 L 849 66 L 851 66 L 851 66 L 851 65 L 852 65 L 852 65 L 852 64 L 853 64 L 853 64 L 854 64 L 855 63 L 858 63 L 858 63 L 863 62 L 864 62 L 864 62 L 865 61 L 866 61 L 866 61 L 866 61 L 866 60 L 869 60 L 870 60 L 872 59 L 872 59 L 872 59 L 872 58 L 874 58 L 875 58 L 877 58 L 878 57 L 878 57 L 878 57 L 879 56 L 879 56 L 879 56 L 880 55 L 880 55 L 881 55 L 882 55 L 883 54 L 884 54 L 884 54 L 884 53 L 884 53 L 885 53 L 885 52 L 888 52 L 892 52 L 892 52 L 896 51 L 897 51 L 899 51 L 900 50 L 900 50 L 901 50 L 901 49 L 902 49 L 903 49 L 904 49 L 905 48 L 906 48 L 907 48 L 910 47 L 915 47 L 915 47 L 915 46 L 915 46 L 916 46 L 917 46 L 917 45 L 918 45 L 926 45 L 929 44 L 929 44 L 930 44 L 932 43 L 935 43 L 936 43 L 937 43 L 937 42"></path><path stroke-width="2" d="M 937 346 L 937.000000 15.000000" /><path stroke-width="2" d="M 937 346 L 937.000000 15.000000"></path><path stroke-width="2" d="M 937 346 L 942 346" /><path d="M 937 346 L 942 346" stroke-width="2"></path><text xmlns="http://www.w3.org/2000/svg" x="947" y="352">0</text><path stroke-width="2" d="M 937 307 L 942 307" /><path stroke-width="2" d="M 937 307 L 942 307"></path><text xmlns="http://www.w3.org/2000/svg" x="947" y="313">130</text><path stroke-width="2" d="M 937 271 L 942 271" /><path stroke-width="2" d="M 937 271 L 942 271"></path><text xmlns="http://www.w3.org/2000/svg" x="947" y="277">250</text><path d="M 937 235 L 942 235" stroke-width="2" /><path stroke-width="2" d="M 937 235 L 942 235"></path><text y="241" xmlns="http://www.w3.org/2000/svg" x="947">370</text><path d="M 937 199 L 942 199" stroke-width="2" /><path stroke-width="2" d="M 937 199 L 942 199"></path><text xmlns="http://www.w3.org/2000/svg" x="947" y="205">490</text><path stroke-width="2" d="M 937 160 L 942 160" /><path stroke-width="2" d="M 937 160 L 942 160"></path><text x="947" y="166" xmlns="http://www.w3.org/2000/svg">620</text><path d="M 937 124 L 942 124" stroke-width="2" /><path d="M 937 124 L 942 124" stroke-width="2"></path><text xmlns="http://www.w3.org/2000/svg" x="947" y="130">740</text><path stroke-width="2" d="M 937 88 L 942 88" /><path stroke-width="2" d="M 937 88 L 942 88"></path><text xmlns="http://www.w3.org/2000/svg" x="947" y="94">860</text><path stroke-width="2" d="M 937 52 L 942 52" /><path stroke-width="2" d="M 937 52 L 942 52"></path><text xmlns="http://www.w3.org/2000/svg" x="947" y="58">980</text><path stroke-width="2" d="M 937 16 L 942 16" /><path stroke-width="2" d="M 937 16 L 942 16"></path><text xmlns="http://www.w3.org/2000/svg" x="947" y="22">1100</text><text transform="rotate(90.00,987,175)" xmlns="http://www.w3.org/2000/svg" x="987" y="175">Stargazers</text><path stroke-width="2" d="M 57.000000 346.000000 L 937 346" /><path stroke-width="2" d="M 57.000000 346.000000 L 937 346"></path><path d="M 58 346 L 58 351" stroke-width="2" /><path stroke-width="2" d="M 58 346 L 58 351"></path><text xmlns="http://www.w3.org/2000/svg" x="25" y="368">2023-04-02</text><path stroke-width="2" d="M 156 346 L 156 351" /><path stroke-width="2" d="M 156 346 L 156 351"></path><text x="123" y="368" xmlns="http://www.w3.org/2000/svg">2023-07-04</text><path stroke-width="2" d="M 254 346 L 254 351" /><path stroke-width="2" d="M 254 346 L 254 351"></path><text y="368" xmlns="http://www.w3.org/2000/svg" x="221">2023-10-05</text><path stroke-width="2" d="M 352 346 L 352 351" /><path stroke-width="2" d="M 352 346 L 352 351"></path><text x="319" y="368" xmlns="http://www.w3.org/2000/svg">2024-01-06</text><path stroke-width="2" d="M 449 346 L 449 351" /><path d="M 449 346 L 449 351" stroke-width="2"></path><text xmlns="http://www.w3.org/2000/svg" x="416" y="368">2024-04-07</text><path stroke-width="2" d="M 547 346 L 547 351" /><path stroke-width="2" d="M 547 346 L 547 351"></path><text xmlns="http://www.w3.org/2000/svg" x="514" y="368">2024-07-09</text><path stroke-width="2" d="M 645 346 L 645 351" /><path stroke-width="2" d="M 645 346 L 645 351"></path><text xmlns="http://www.w3.org/2000/svg" x="612" y="368">2024-10-10</text><path stroke-width="2" d="M 742 346 L 742 351" /><path d="M 742 346 L 742 351" stroke-width="2"></path><text xmlns="http://www.w3.org/2000/svg" x="709" y="368">2025-01-11</text><path stroke-width="2" d="M 840 346 L 840 351" /><path d="M 840 346 L 840 351" stroke-width="2"></path><text xmlns="http://www.w3.org/2000/svg" x="807" y="368">2025-04-14</text><path stroke-width="2" d="M 937 346 L 937 351" /><path stroke-width="2" d="M 937 346 L 937 351"></path><text xmlns="http://www.w3.org/2000/svg" x="904" y="368">2025-07-16</text><text y="390" xmlns="http://www.w3.org/2000/svg" x="483">Time</text></svg>