<svg height="400px" xmlns="http://www.w3.org/2000/svg" xmlns:xlink="http://www.w3.org/1999/xlink" width="1024px"><style type="text/css">
path { fill: none; stroke: rgb(51,51,51); }
path.series { stroke: #6b63ff; }
rect.background { fill: rgb(255,255,255); stroke: none; }

text {
	stroke-width: 0;
	stroke: none;
	fill: rgba(51,51,51,1.0);
	font-size: 12.8px;
	font-family: 'Roboto Medium', sans-serif;
}
</style><rect x="0" y="0" width="1024px" height="400px" class="background" rx="8" /><rect height="400px" class="background" rx="8" x="0" y="0" width="1024px"></rect><path class="series" d="M 58 345 L 61 345 L 78 344 L 79 344 L 79 343 L 79 343 L 79 342 L 79 342 L 79 342 L 79 341 L 79 341 L 79 340 L 79 340 L 79 339 L 79 339 L 79 339 L 80 338 L 80 338 L 80 337 L 81 337 L 81 336 L 81 336 L 83 336 L 84 335 L 84 335 L 84 334 L 84 334 L 85 333 L 87 333 L 87 332 L 88 332 L 90 332 L 95 331 L 95 331 L 95 330 L 95 330 L 95 329 L 95 329 L 99 329 L 100 328 L 101 328 L 103 327 L 108 327 L 109 326 L 117 326 L 119 326 L 124 325 L 128 325 L 130 324 L 146 324 L 147 323 L 147 323 L 149 322 L 149 322 L 149 322 L 149 321 L 149 321 L 149 320 L 149 320 L 149 319 L 149 319 L 150 319 L 150 318 L 150 318 L 150 317 L 150 317 L 150 316 L 150 316 L 150 316 L 150 315 L 150 315 L 150 314 L 150 314 L 150 313 L 150 313 L 150 313 L 150 312 L 150 312 L 150 311 L 150 311 L 150 310 L 150 310 L 150 309 L 151 309 L 151 309 L 151 308 L 151 308 L 151 307 L 151 307 L 151 306 L 151 306 L 151 306 L 151 305 L 151 305 L 151 304 L 151 304 L 151 303 L 151 303 L 151 303 L 151 302 L 151 302 L 152 301 L 152 301 L 152 300 L 152 300 L 152 299 L 153 299 L 153 299 L 153 298 L 153 298 L 153 297 L 153 297 L 153 296 L 153 296 L 153 296 L 153 295 L 153 295 L 153 294 L 153 294 L 153 293 L 153 293 L 153 293 L 153 292 L 154 292 L 155 291 L 155 291 L 155 290 L 155 290 L 159 289 L 159 289 L 159 289 L 161 288 L 161 288 L 163 287 L 166 287 L 167 286 L 169 286 L 170 286 L 172 285 L 172 285 L 172 284 L 175 284 L 175 283 L 176 283 L 177 283 L 178 282 L 179 282 L 179 281 L 179 281 L 180 280 L 181 280 L 182 280 L 182 279 L 183 279 L 183 278 L 183 278 L 184 277 L 186 277 L 187 276 L 190 276 L 191 276 L 192 275 L 193 275 L 193 274 L 193 274 L 195 273 L 202 273 L 202 273 L 203 272 L 210 272 L 210 271 L 210 271 L 210 270 L 210 270 L 211 270 L 213 269 L 215 269 L 215 268 L 223 268 L 224 267 L 226 267 L 229 266 L 230 266 L 230 266 L 231 265 L 237 265 L 243 264 L 250 264 L 251 263 L 251 263 L 251 263 L 252 262 L 253 262 L 263 261 L 267 261 L 267 260 L 271 260 L 272 260 L 272 259 L 283 259 L 283 258 L 284 258 L 284 257 L 285 257 L 288 256 L 290 256 L 292 256 L 293 255 L 295 255 L 301 254 L 302 254 L 303 253 L 303 253 L 303 253 L 303 252 L 307 252 L 313 251 L 326 251 L 331 250 L 333 250 L 334 250 L 335 249 L 337 249 L 337 248 L 337 248 L 337 247 L 337 247 L 337 247 L 337 246 L 337 246 L 337 245 L 337 245 L 337 244 L 337 244 L 337 243 L 338 243 L 338 243 L 340 242 L 341 242 L 341 241 L 341 241 L 341 240 L 342 240 L 342 240 L 342 239 L 342 239 L 342 238 L 343 238 L 343 237 L 344 237 L 344 237 L 345 236 L 345 236 L 345 235 L 345 235 L 345 234 L 346 234 L 347 233 L 347 233 L 347 233 L 348 232 L 348 232 L 348 231 L 349 231 L 350 230 L 351 230 L 353 230 L 355 229 L 355 229 L 356 228 L 356 228 L 356 227 L 356 227 L 357 227 L 358 226 L 359 226 L 361 225 L 361 225 L 362 224 L 364 224 L 365 223 L 365 223 L 368 223 L 369 222 L 369 222 L 370 221 L 370 221 L 375 220 L 376 220 L 377 220 L 380 219 L 382 219 L 386 218 L 387 218 L 388 217 L 389 217 L 389 217 L 389 216 L 392 216 L 395 215 L 396 215 L 397 214 L 398 214 L 399 214 L 399 213 L 399 213 L 400 212 L 400 212 L 400 211 L 401 211 L 402 210 L 402 210 L 402 210 L 403 209 L 408 209 L 413 208 L 413 208 L 413 207 L 417 207 L 419 207 L 420 206 L 420 206 L 422 205 L 423 205 L 423 204 L 423 204 L 423 204 L 423 203 L 424 203 L 424 202 L 424 202 L 424 201 L 425 201 L 428 200 L 428 200 L 428 200 L 428 199 L 428 199 L 428 198 L 429 198 L 429 197 L 429 197 L 429 197 L 429 196 L 429 196 L 429 195 L 433 195 L 436 194 L 436 194 L 437 194 L 449 193 L 450 193 L 453 192 L 456 192 L 463 191 L 466 191 L 468 190 L 468 190 L 468 190 L 468 189 L 469 189 L 469 188 L 469 188 L 469 187 L 470 187 L 471 187 L 480 186 L 482 186 L 486 185 L 493 185 L 497 184 L 501 184 L 504 184 L 509 183 L 509 183 L 519 182 L 530 182 L 530 181 L 537 181 L 537 181 L 543 180 L 544 180 L 547 179 L 547 179 L 548 178 L 548 178 L 551 177 L 552 177 L 555 177 L 559 176 L 560 176 L 561 175 L 562 175 L 566 174 L 569 174 L 570 174 L 574 173 L 578 173 L 579 172 L 579 172 L 581 171 L 582 171 L 583 171 L 587 170 L 590 170 L 592 169 L 595 169 L 595 168 L 601 168 L 602 167 L 605 167 L 609 167 L 610 166 L 615 166 L 616 165 L 616 165 L 618 164 L 618 164 L 621 164 L 621 163 L 623 163 L 626 162 L 627 162 L 628 161 L 628 161 L 636 161 L 636 160 L 637 160 L 637 159 L 638 159 L 639 158 L 639 158 L 639 157 L 640 157 L 642 157 L 642 156 L 644 156 L 644 155 L 645 155 L 646 154 L 646 154 L 647 154 L 647 153 L 648 153 L 648 152 L 649 152 L 649 151 L 649 151 L 649 151 L 650 150 L 652 150 L 652 149 L 652 149 L 653 148 L 654 148 L 655 148 L 656 147 L 657 147 L 657 146 L 659 146 L 660 145 L 661 145 L 661 144 L 661 144 L 664 144 L 664 143 L 664 143 L 664 142 L 665 142 L 665 141 L 665 141 L 666 141 L 666 140 L 667 140 L 671 139 L 672 139 L 673 138 L 674 138 L 676 138 L 678 137 L 678 137 L 681 136 L 684 136 L 686 135 L 689 135 L 690 134 L 690 134 L 690 134 L 690 133 L 691 133 L 691 132 L 691 132 L 693 131 L 693 131 L 693 131 L 693 130 L 695 130 L 696 129 L 696 129 L 697 128 L 697 128 L 700 128 L 701 127 L 701 127 L 702 126 L 703 126 L 705 125 L 708 125 L 713 124 L 713 124 L 713 124 L 713 123 L 715 123 L 718 122 L 718 122 L 718 121 L 718 121 L 719 121 L 721 120 L 725 120 L 725 119 L 725 119 L 725 118 L 727 118 L 728 118 L 728 117 L 728 117 L 728 116 L 731 116 L 735 115 L 735 115 L 740 115 L 740 114 L 741 114 L 745 113 L 746 113 L 749 112 L 751 112 L 753 111 L 754 111 L 755 111 L 755 110 L 755 110 L 755 109 L 756 109 L 757 108 L 757 108 L 757 108 L 758 107 L 758 107 L 758 106 L 760 106 L 761 105 L 761 105 L 767 105 L 767 104 L 773 104 L 775 103 L 775 103 L 776 102 L 777 102 L 780 101 L 781 101 L 781 101 L 781 100 L 782 100 L 782 99 L 782 99 L 783 98 L 783 98 L 784 98 L 784 97 L 784 97 L 784 96 L 784 96 L 785 95 L 785 95 L 785 95 L 787 94 L 787 94 L 788 93 L 789 93 L 790 92 L 790 92 L 790 91 L 791 91 L 792 91 L 795 90 L 795 90 L 795 89 L 795 89 L 795 88 L 797 88 L 797 88 L 797 87 L 798 87 L 801 86 L 803 86 L 807 85 L 808 85 L 810 85 L 814 84 L 818 84 L 818 83 L 821 83 L 826 82 L 826 82 L 826 82 L 832 81 L 833 81 L 834 80 L 835 80 L 835 79 L 845 79 L 845 78 L 846 78 L 846 78 L 847 77 L 847 77 L 849 76 L 849 76 L 849 75 L 850 75 L 851 75 L 851 74 L 852 74 L 852 73 L 852 73 L 852 72 L 852 72 L 853 72 L 853 71 L 854 71 L 855 70 L 856 70 L 857 69 L 857 69 L 858 68 L 859 68 L 859 68 L 860 67 L 861 67 L 862 66 L 862 66 L 862 65 L 862 65 L 864 65 L 865 64 L 866 64 L 866 63 L 867 63 L 868 62 L 869 62 L 869 62 L 869 61 L 869 61 L 870 60 L 870 60 L 871 59 L 872 59 L 872 58 L 874 58 L 874 58 L 874 57 L 874 57 L 875 56 L 875 56 L 876 55 L 876 55 L 876 55 L 877 54 L 878 54 L 878 53 L 878 53 L 879 52 L 879 52 L 879 52 L 879 51 L 879 51 L 880 50 L 880 50 L 880 49 L 880 49 L 880 49 L 883 48 L 884 48 L 887 47 L 887 47 L 887 46 L 887 46 L 889 45 L 890 45 L 891 45 L 891 44 L 894 44 L 897 43 L 897 43 L 899 42 L 900 42 L 900 42 L 901 41 L 901 41 L 902 40 L 902 40 L 902 39 L 902 39 L 902 39 L 902 38 L 902 38 L 902 37 L 903 37 L 903 36 L 903 36 L 903 35 L 903 35 L 903 35 L 904 34 L 904 34 L 905 33 L 905 33 L 906 32 L 908 32 L 909 32 L 909 31 L 909 31 L 911 30 L 911 30 L 912 29 L 915 29 L 916 29 L 916 28 L 916 28 L 916 27 L 916 27 L 919 26 L 921 26 L 922 25 L 924 25 L 924 25 L 924 24 L 924 24 L 925 23 L 931 23 L 934 22 L 937 22 L 939 22 L 940 21 L 941 21 L 942 20 L 943 20 L 943 19 L 943 19 L 944 19 L 944 18 L 945 18 L 945 17" stroke-width="2" /><path stroke-width="2" class="series" d="M 58 345 L 61 345 L 78 344 L 79 344 L 79 343 L 79 343 L 79 342 L 79 342 L 79 342 L 79 341 L 79 341 L 79 340 L 79 340 L 79 339 L 79 339 L 79 339 L 80 338 L 80 338 L 80 337 L 81 337 L 81 336 L 81 336 L 83 336 L 84 335 L 84 335 L 84 334 L 84 334 L 85 333 L 87 333 L 87 332 L 88 332 L 90 332 L 95 331 L 95 331 L 95 330 L 95 330 L 95 329 L 95 329 L 99 329 L 100 328 L 101 328 L 103 327 L 108 327 L 109 326 L 117 326 L 119 326 L 124 325 L 128 325 L 130 324 L 146 324 L 147 323 L 147 323 L 149 322 L 149 322 L 149 322 L 149 321 L 149 321 L 149 320 L 149 320 L 149 319 L 149 319 L 150 319 L 150 318 L 150 318 L 150 317 L 150 317 L 150 316 L 150 316 L 150 316 L 150 315 L 150 315 L 150 314 L 150 314 L 150 313 L 150 313 L 150 313 L 150 312 L 150 312 L 150 311 L 150 311 L 150 310 L 150 310 L 150 309 L 151 309 L 151 309 L 151 308 L 151 308 L 151 307 L 151 307 L 151 306 L 151 306 L 151 306 L 151 305 L 151 305 L 151 304 L 151 304 L 151 303 L 151 303 L 151 303 L 151 302 L 151 302 L 152 301 L 152 301 L 152 300 L 152 300 L 152 299 L 153 299 L 153 299 L 153 298 L 153 298 L 153 297 L 153 297 L 153 296 L 153 296 L 153 296 L 153 295 L 153 295 L 153 294 L 153 294 L 153 293 L 153 293 L 153 293 L 153 292 L 154 292 L 155 291 L 155 291 L 155 290 L 155 290 L 159 289 L 159 289 L 159 289 L 161 288 L 161 288 L 163 287 L 166 287 L 167 286 L 169 286 L 170 286 L 172 285 L 172 285 L 172 284 L 175 284 L 175 283 L 176 283 L 177 283 L 178 282 L 179 282 L 179 281 L 179 281 L 180 280 L 181 280 L 182 280 L 182 279 L 183 279 L 183 278 L 183 278 L 184 277 L 186 277 L 187 276 L 190 276 L 191 276 L 192 275 L 193 275 L 193 274 L 193 274 L 195 273 L 202 273 L 202 273 L 203 272 L 210 272 L 210 271 L 210 271 L 210 270 L 210 270 L 211 270 L 213 269 L 215 269 L 215 268 L 223 268 L 224 267 L 226 267 L 229 266 L 230 266 L 230 266 L 231 265 L 237 265 L 243 264 L 250 264 L 251 263 L 251 263 L 251 263 L 252 262 L 253 262 L 263 261 L 267 261 L 267 260 L 271 260 L 272 260 L 272 259 L 283 259 L 283 258 L 284 258 L 284 257 L 285 257 L 288 256 L 290 256 L 292 256 L 293 255 L 295 255 L 301 254 L 302 254 L 303 253 L 303 253 L 303 253 L 303 252 L 307 252 L 313 251 L 326 251 L 331 250 L 333 250 L 334 250 L 335 249 L 337 249 L 337 248 L 337 248 L 337 247 L 337 247 L 337 247 L 337 246 L 337 246 L 337 245 L 337 245 L 337 244 L 337 244 L 337 243 L 338 243 L 338 243 L 340 242 L 341 242 L 341 241 L 341 241 L 341 240 L 342 240 L 342 240 L 342 239 L 342 239 L 342 238 L 343 238 L 343 237 L 344 237 L 344 237 L 345 236 L 345 236 L 345 235 L 345 235 L 345 234 L 346 234 L 347 233 L 347 233 L 347 233 L 348 232 L 348 232 L 348 231 L 349 231 L 350 230 L 351 230 L 353 230 L 355 229 L 355 229 L 356 228 L 356 228 L 356 227 L 356 227 L 357 227 L 358 226 L 359 226 L 361 225 L 361 225 L 362 224 L 364 224 L 365 223 L 365 223 L 368 223 L 369 222 L 369 222 L 370 221 L 370 221 L 375 220 L 376 220 L 377 220 L 380 219 L 382 219 L 386 218 L 387 218 L 388 217 L 389 217 L 389 217 L 389 216 L 392 216 L 395 215 L 396 215 L 397 214 L 398 214 L 399 214 L 399 213 L 399 213 L 400 212 L 400 212 L 400 211 L 401 211 L 402 210 L 402 210 L 402 210 L 403 209 L 408 209 L 413 208 L 413 208 L 413 207 L 417 207 L 419 207 L 420 206 L 420 206 L 422 205 L 423 205 L 423 204 L 423 204 L 423 204 L 423 203 L 424 203 L 424 202 L 424 202 L 424 201 L 425 201 L 428 200 L 428 200 L 428 200 L 428 199 L 428 199 L 428 198 L 429 198 L 429 197 L 429 197 L 429 197 L 429 196 L 429 196 L 429 195 L 433 195 L 436 194 L 436 194 L 437 194 L 449 193 L 450 193 L 453 192 L 456 192 L 463 191 L 466 191 L 468 190 L 468 190 L 468 190 L 468 189 L 469 189 L 469 188 L 469 188 L 469 187 L 470 187 L 471 187 L 480 186 L 482 186 L 486 185 L 493 185 L 497 184 L 501 184 L 504 184 L 509 183 L 509 183 L 519 182 L 530 182 L 530 181 L 537 181 L 537 181 L 543 180 L 544 180 L 547 179 L 547 179 L 548 178 L 548 178 L 551 177 L 552 177 L 555 177 L 559 176 L 560 176 L 561 175 L 562 175 L 566 174 L 569 174 L 570 174 L 574 173 L 578 173 L 579 172 L 579 172 L 581 171 L 582 171 L 583 171 L 587 170 L 590 170 L 592 169 L 595 169 L 595 168 L 601 168 L 602 167 L 605 167 L 609 167 L 610 166 L 615 166 L 616 165 L 616 165 L 618 164 L 618 164 L 621 164 L 621 163 L 623 163 L 626 162 L 627 162 L 628 161 L 628 161 L 636 161 L 636 160 L 637 160 L 637 159 L 638 159 L 639 158 L 639 158 L 639 157 L 640 157 L 642 157 L 642 156 L 644 156 L 644 155 L 645 155 L 646 154 L 646 154 L 647 154 L 647 153 L 648 153 L 648 152 L 649 152 L 649 151 L 649 151 L 649 151 L 650 150 L 652 150 L 652 149 L 652 149 L 653 148 L 654 148 L 655 148 L 656 147 L 657 147 L 657 146 L 659 146 L 660 145 L 661 145 L 661 144 L 661 144 L 664 144 L 664 143 L 664 143 L 664 142 L 665 142 L 665 141 L 665 141 L 666 141 L 666 140 L 667 140 L 671 139 L 672 139 L 673 138 L 674 138 L 676 138 L 678 137 L 678 137 L 681 136 L 684 136 L 686 135 L 689 135 L 690 134 L 690 134 L 690 134 L 690 133 L 691 133 L 691 132 L 691 132 L 693 131 L 693 131 L 693 131 L 693 130 L 695 130 L 696 129 L 696 129 L 697 128 L 697 128 L 700 128 L 701 127 L 701 127 L 702 126 L 703 126 L 705 125 L 708 125 L 713 124 L 713 124 L 713 124 L 713 123 L 715 123 L 718 122 L 718 122 L 718 121 L 718 121 L 719 121 L 721 120 L 725 120 L 725 119 L 725 119 L 725 118 L 727 118 L 728 118 L 728 117 L 728 117 L 728 116 L 731 116 L 735 115 L 735 115 L 740 115 L 740 114 L 741 114 L 745 113 L 746 113 L 749 112 L 751 112 L 753 111 L 754 111 L 755 111 L 755 110 L 755 110 L 755 109 L 756 109 L 757 108 L 757 108 L 757 108 L 758 107 L 758 107 L 758 106 L 760 106 L 761 105 L 761 105 L 767 105 L 767 104 L 773 104 L 775 103 L 775 103 L 776 102 L 777 102 L 780 101 L 781 101 L 781 101 L 781 100 L 782 100 L 782 99 L 782 99 L 783 98 L 783 98 L 784 98 L 784 97 L 784 97 L 784 96 L 784 96 L 785 95 L 785 95 L 785 95 L 787 94 L 787 94 L 788 93 L 789 93 L 790 92 L 790 92 L 790 91 L 791 91 L 792 91 L 795 90 L 795 90 L 795 89 L 795 89 L 795 88 L 797 88 L 797 88 L 797 87 L 798 87 L 801 86 L 803 86 L 807 85 L 808 85 L 810 85 L 814 84 L 818 84 L 818 83 L 821 83 L 826 82 L 826 82 L 826 82 L 832 81 L 833 81 L 834 80 L 835 80 L 835 79 L 845 79 L 845 78 L 846 78 L 846 78 L 847 77 L 847 77 L 849 76 L 849 76 L 849 75 L 850 75 L 851 75 L 851 74 L 852 74 L 852 73 L 852 73 L 852 72 L 852 72 L 853 72 L 853 71 L 854 71 L 855 70 L 856 70 L 857 69 L 857 69 L 858 68 L 859 68 L 859 68 L 860 67 L 861 67 L 862 66 L 862 66 L 862 65 L 862 65 L 864 65 L 865 64 L 866 64 L 866 63 L 867 63 L 868 62 L 869 62 L 869 62 L 869 61 L 869 61 L 870 60 L 870 60 L 871 59 L 872 59 L 872 58 L 874 58 L 874 58 L 874 57 L 874 57 L 875 56 L 875 56 L 876 55 L 876 55 L 876 55 L 877 54 L 878 54 L 878 53 L 878 53 L 879 52 L 879 52 L 879 52 L 879 51 L 879 51 L 880 50 L 880 50 L 880 49 L 880 49 L 880 49 L 883 48 L 884 48 L 887 47 L 887 47 L 887 46 L 887 46 L 889 45 L 890 45 L 891 45 L 891 44 L 894 44 L 897 43 L 897 43 L 899 42 L 900 42 L 900 42 L 901 41 L 901 41 L 902 40 L 902 40 L 902 39 L 902 39 L 902 39 L 902 38 L 902 38 L 902 37 L 903 37 L 903 36 L 903 36 L 903 35 L 903 35 L 903 35 L 904 34 L 904 34 L 905 33 L 905 33 L 906 32 L 908 32 L 909 32 L 909 31 L 909 31 L 911 30 L 911 30 L 912 29 L 915 29 L 916 29 L 916 28 L 916 28 L 916 27 L 916 27 L 919 26 L 921 26 L 922 25 L 924 25 L 924 25 L 924 24 L 924 24 L 925 23 L 931 23 L 934 22 L 937 22 L 939 22 L 940 21 L 941 21 L 942 20 L 943 20 L 943 19 L 943 19 L 944 19 L 944 18 L 945 18 L 945 17"></path><path stroke-width="2" d="M 945 346 L 945.000000 15.000000" /><path stroke-width="2" d="M 945 346 L 945.000000 15.000000"></path><path stroke-width="2" d="M 945 346 L 950 346" /><path stroke-width="2" d="M 945 346 L 950 346"></path><text x="955" y="352" xmlns="http://www.w3.org/2000/svg">0</text><path stroke-width="2" d="M 945 309 L 950 309" /><path stroke-width="2" d="M 945 309 L 950 309"></path><text xmlns="http://www.w3.org/2000/svg" x="955" y="315">85</text><path stroke-width="2" d="M 945 272 L 950 272" /><path stroke-width="2" d="M 945 272 L 950 272"></path><text xmlns="http://www.w3.org/2000/svg" x="955" y="278">169</text><path stroke-width="2" d="M 945 235 L 950 235" /><path stroke-width="2" d="M 945 235 L 950 235"></path><text xmlns="http://www.w3.org/2000/svg" x="955" y="241">254</text><path stroke-width="2" d="M 945 199 L 950 199" /><path stroke-width="2" d="M 945 199 L 950 199"></path><text xmlns="http://www.w3.org/2000/svg" x="955" y="205">338</text><path stroke-width="2" d="M 945 162 L 950 162" /><path stroke-width="2" d="M 945 162 L 950 162"></path><text xmlns="http://www.w3.org/2000/svg" x="955" y="168">423</text><path stroke-width="2" d="M 945 125 L 950 125" /><path stroke-width="2" d="M 945 125 L 950 125"></path><text xmlns="http://www.w3.org/2000/svg" x="955" y="131">507</text><path stroke-width="2" d="M 945 88 L 950 88" /><path stroke-width="2" d="M 945 88 L 950 88"></path><text xmlns="http://www.w3.org/2000/svg" x="955" y="94">592</text><path d="M 945 52 L 950 52" stroke-width="2" /><path stroke-width="2" d="M 945 52 L 950 52"></path><text x="955" y="58" xmlns="http://www.w3.org/2000/svg">676</text><path stroke-width="2" d="M 945 16 L 950 16" /><path stroke-width="2" d="M 945 16 L 950 16"></path><text xmlns="http://www.w3.org/2000/svg" x="955" y="22">760</text><text xmlns="http://www.w3.org/2000/svg" x="987" y="175" transform="rotate(90.00,987,175)">Stargazers</text><path stroke-width="2" d="M 57.000000 346.000000 L 945 346" /><path stroke-width="2" d="M 57.000000 346.000000 L 945 346"></path><path d="M 58 346 L 58 351" stroke-width="2" /><path stroke-width="2" d="M 58 346 L 58 351"></path><text xmlns="http://www.w3.org/2000/svg" x="25" y="368">2023-04-02</text><path stroke-width="2" d="M 157 346 L 157 351" /><path stroke-width="2" d="M 157 346 L 157 351"></path><text xmlns="http://www.w3.org/2000/svg" x="124" y="368">2023-06-10</text><path stroke-width="2" d="M 256 346 L 256 351" /><path stroke-width="2" d="M 256 346 L 256 351"></path><text xmlns="http://www.w3.org/2000/svg" x="223" y="368">2023-08-19</text><path stroke-width="2" d="M 354 346 L 354 351" /><path stroke-width="2" d="M 354 346 L 354 351"></path><text xmlns="http://www.w3.org/2000/svg" x="321" y="368">2023-10-27</text><path stroke-width="2" d="M 453 346 L 453 351" /><path stroke-width="2" d="M 453 346 L 453 351"></path><text xmlns="http://www.w3.org/2000/svg" x="420" y="368">2024-01-05</text><path stroke-width="2" d="M 551 346 L 551 351" /><path stroke-width="2" d="M 551 346 L 551 351"></path><text xmlns="http://www.w3.org/2000/svg" x="518" y="368">2024-03-14</text><path stroke-width="2" d="M 650 346 L 650 351" /><path d="M 650 346 L 650 351" stroke-width="2"></path><text xmlns="http://www.w3.org/2000/svg" x="617" y="368">2024-05-22</text><path stroke-width="2" d="M 748 346 L 748 351" /><path stroke-width="2" d="M 748 346 L 748 351"></path><text xmlns="http://www.w3.org/2000/svg" x="715" y="368">2024-07-31</text><path stroke-width="2" d="M 847 346 L 847 351" /><path stroke-width="2" d="M 847 346 L 847 351"></path><text xmlns="http://www.w3.org/2000/svg" x="814" y="368">2024-10-08</text><path stroke-width="2" d="M 945 346 L 945 351" /><path stroke-width="2" d="M 945 346 L 945 351"></path><text xmlns="http://www.w3.org/2000/svg" x="912" y="368">2024-12-17</text><text xmlns="http://www.w3.org/2000/svg" x="487" y="390">Time</text></svg>