<svg xmlns="http://www.w3.org/2000/svg" xmlns:xlink="http://www.w3.org/1999/xlink" width="1024px" height="400px"><style type="text/css">
path { fill: none; stroke: rgb(51,51,51); }
path.series { stroke: #6b63ff; }
rect.background { fill: rgb(255,255,255); stroke: none; }

text {
	stroke-width: 0;
	stroke: none;
	fill: rgba(51,51,51,1.0);
	font-size: 12.8px;
	font-family: 'Roboto Medium', sans-serif;
}
</style><rect x="0" y="0" width="1024px" height="400px" class="background" rx="8" /><rect x="0" y="0" width="1024px" height="400px" class="background" rx="8"></rect><path stroke-width="2" class="series" d="M 58 345 L 62 344 L 88 343 L 89 343 L 89 342 L 89 341 L 89 340 L 89 340 L 89 339 L 89 338 L 89 338 L 89 337 L 89 336 L 89 335 L 90 335 L 90 334 L 90 333 L 90 333 L 90 332 L 92 331 L 93 330 L 93 330 L 95 329 L 96 328 L 96 328 L 96 327 L 97 326 L 98 325 L 101 325 L 101 324 L 103 323 L 105 323 L 113 322 L 113 321 L 113 320 L 113 320 L 113 319 L 114 318 L 118 318 L 120 317 L 122 316 L 125 315 L 132 315 L 134 314 L 146 313 L 149 313 L 155 312 L 162 311 L 165 310 L 189 310 L 190 309 L 190 308 L 193 307 L 194 307 L 194 306 L 194 305 L 194 305 L 194 304 L 194 303 L 194 302 L 194 302 L 194 301 L 194 300 L 194 300 L 195 299 L 195 298 L 195 297 L 195 297 L 195 296 L 195 295 L 195 295 L 195 294 L 195 293 L 195 292 L 195 292 L 195 291 L 195 290 L 195 290 L 195 289 L 195 288 L 195 287 L 195 287 L 196 286 L 196 285 L 196 285 L 196 284 L 196 283 L 196 282 L 196 282 L 196 281 L 196 280 L 196 280 L 196 279 L 196 278 L 196 277 L 196 277 L 196 276 L 196 275 L 196 274 L 196 274 L 197 273 L 197 272 L 197 272 L 198 271 L 198 270 L 198 269 L 199 269 L 199 268 L 199 267 L 200 267 L 200 266 L 200 265 L 200 264 L 200 264 L 200 263 L 200 262 L 200 262 L 200 261 L 200 260 L 200 259 L 200 259 L 200 258 L 200 257 L 201 257 L 202 256 L 202 255 L 202 254 L 202 254 L 208 253 L 208 252 L 209 252 L 211 251 L 211 250 L 214 249 L 219 249 L 220 248 L 223 247 L 224 247 L 227 246 L 228 245 L 228 244 L 232 244 L 232 243 L 234 242 L 236 241 L 236 241 L 238 240 L 238 239 L 238 239 L 239 238 L 241 237 L 243 236 L 243 236 L 244 235 L 245 234 L 245 234 L 246 233 L 249 232 L 251 231 L 254 231 L 256 230 L 257 229 L 259 229 L 259 228 L 259 227 L 262 226 L 272 226 L 272 225 L 274 224 L 284 224 L 284 223 L 284 222 L 284 221 L 285 221 L 286 220 L 289 219 L 291 219 L 291 218 L 303 217 L 306 216 L 308 216 L 312 215 L 315 214 L 315 214 L 316 213 L 325 212 L 334 211 L 344 211 L 345 210 L 345 209 L 346 208 L 346 208 L 349 207 L 363 206 L 369 206 L 370 205 L 375 204 L 376 203 L 377 203 L 393 202 L 393 201 L 394 201 L 395 200 L 397 199 L 401 198 L 403 198 L 406 197 L 408 196 L 412 196 L 421 195 L 421 194 L 422 193 L 423 193 L 423 192 L 424 191 L 428 191 L 437 190 L 457 189 L 464 188 L 465 188 L 468 187 L 469 186 L 471 186 L 473 185 L 473 184 L 473 183 L 473 183 L 473 182 L 473 181 L 473 181 L 473 180 L 474 179 L 474 178 L 474 178 L 474 177 L 474 176 L 475 175 L 475 175 L 476 174 L 478 173 L 479 173 L 479 172 L 479 171 L 479 170 L 482 170 L 482 169 L 482 168 L 482 168 L 482 167 L 482 166 L 482 165 L 483 165 L 485 164 L 485 163 L 486 163 L 486 162 L 486 161 L 486 160 L 488 160 L 488 159 L 488 158 L 488 158 L 490 157 L 490 156 L 490 155 L 492 155 L 494 154 L 495 153 L 497 153 L 501 152 L 501 151 L 502 150 L 502 150 L 503 149 L 503 148 L 503 148 L 505 147 L 506 146 L 509 145 L 509 145 L 511 144 L 514 143 L 516 142 L 516 142 L 520 141 L 521 140 L 522 140 L 523 139 L 523 138 L 531 137 L 532 137 L 533 136 L 538 135 L 541 135 L 547 134 L 549 133 L 549 132 L 551 132 L 551 131 L 551 130 L 556 130 L 560 129 L 562 128 L 562 127 L 565 127 L 567 126 L 567 125 L 567 125 L 567 124 L 568 123 L 568 122 L 568 122 L 570 121 L 570 120 L 570 120 L 572 119 L 579 118 L 587 117 L 587 117 L 588 116 L 593 115 L 596 115 L 597 114 L 598 113 L 600 112 L 602 112 L 602 111 L 602 110 L 602 109 L 602 109 L 603 108 L 603 107 L 604 107 L 604 106 L 605 105 L 609 104 L 609 104 L 609 103 L 609 102 L 609 102 L 610 101 L 610 100 L 610 99 L 610 99 L 610 98 L 610 97 L 610 97 L 611 96 L 617 95 L 621 94 L 621 94 L 623 93 L 631 92 L 640 92 L 642 91 L 647 90 L 651 89 L 662 89 L 665 88 L 669 87 L 669 87 L 669 86 L 669 85 L 670 84 L 670 84 L 670 83 L 670 82 L 672 82 L 674 81 L 687 80 L 690 79 L 695 79 L 705 78 L 713 77 L 718 76 L 723 76 L 730 75 L 730 74 L 745 74 L 761 73 L 761 72 L 771 71 L 772 71 L 780 70 L 782 69 L 787 69 L 787 68 L 788 67 L 788 66 L 793 66 L 795 65 L 799 64 L 805 64 L 806 63 L 808 62 L 809 61 L 814 61 L 820 60 L 820 59 L 827 59 L 833 58 L 835 57 L 835 56 L 837 56 L 839 55 L 841 54 L 846 54 L 850 53 L 854 52 L 858 51 L 858 51 L 867 50 L 868 49 L 872 49 L 880 48 L 880 47 L 888 46 L 889 46 L 889 45 L 892 44 L 893 43 L 896 43 L 897 42 L 900 41 L 905 41 L 906 40 L 907 39 L 907 38 L 920 38 L 920 37 L 921 36 L 921 36 L 922 35 L 923 34 L 924 33 L 924 33 L 925 32 L 928 31 L 928 31 L 931 30 L 932 29 L 933 28 L 934 28 L 935 27 L 935 26 L 936 26 L 937 25 L 937 24 L 938 23 L 938 23 L 938 22 L 939 21 L 941 21 L 943 20 L 943 19 L 944 18 L 945 18 L 945 17" /><path class="series" d="M 58 345 L 62 344 L 88 343 L 89 343 L 89 342 L 89 341 L 89 340 L 89 340 L 89 339 L 89 338 L 89 338 L 89 337 L 89 336 L 89 335 L 90 335 L 90 334 L 90 333 L 90 333 L 90 332 L 92 331 L 93 330 L 93 330 L 95 329 L 96 328 L 96 328 L 96 327 L 97 326 L 98 325 L 101 325 L 101 324 L 103 323 L 105 323 L 113 322 L 113 321 L 113 320 L 113 320 L 113 319 L 114 318 L 118 318 L 120 317 L 122 316 L 125 315 L 132 315 L 134 314 L 146 313 L 149 313 L 155 312 L 162 311 L 165 310 L 189 310 L 190 309 L 190 308 L 193 307 L 194 307 L 194 306 L 194 305 L 194 305 L 194 304 L 194 303 L 194 302 L 194 302 L 194 301 L 194 300 L 194 300 L 195 299 L 195 298 L 195 297 L 195 297 L 195 296 L 195 295 L 195 295 L 195 294 L 195 293 L 195 292 L 195 292 L 195 291 L 195 290 L 195 290 L 195 289 L 195 288 L 195 287 L 195 287 L 196 286 L 196 285 L 196 285 L 196 284 L 196 283 L 196 282 L 196 282 L 196 281 L 196 280 L 196 280 L 196 279 L 196 278 L 196 277 L 196 277 L 196 276 L 196 275 L 196 274 L 196 274 L 197 273 L 197 272 L 197 272 L 198 271 L 198 270 L 198 269 L 199 269 L 199 268 L 199 267 L 200 267 L 200 266 L 200 265 L 200 264 L 200 264 L 200 263 L 200 262 L 200 262 L 200 261 L 200 260 L 200 259 L 200 259 L 200 258 L 200 257 L 201 257 L 202 256 L 202 255 L 202 254 L 202 254 L 208 253 L 208 252 L 209 252 L 211 251 L 211 250 L 214 249 L 219 249 L 220 248 L 223 247 L 224 247 L 227 246 L 228 245 L 228 244 L 232 244 L 232 243 L 234 242 L 236 241 L 236 241 L 238 240 L 238 239 L 238 239 L 239 238 L 241 237 L 243 236 L 243 236 L 244 235 L 245 234 L 245 234 L 246 233 L 249 232 L 251 231 L 254 231 L 256 230 L 257 229 L 259 229 L 259 228 L 259 227 L 262 226 L 272 226 L 272 225 L 274 224 L 284 224 L 284 223 L 284 222 L 284 221 L 285 221 L 286 220 L 289 219 L 291 219 L 291 218 L 303 217 L 306 216 L 308 216 L 312 215 L 315 214 L 315 214 L 316 213 L 325 212 L 334 211 L 344 211 L 345 210 L 345 209 L 346 208 L 346 208 L 349 207 L 363 206 L 369 206 L 370 205 L 375 204 L 376 203 L 377 203 L 393 202 L 393 201 L 394 201 L 395 200 L 397 199 L 401 198 L 403 198 L 406 197 L 408 196 L 412 196 L 421 195 L 421 194 L 422 193 L 423 193 L 423 192 L 424 191 L 428 191 L 437 190 L 457 189 L 464 188 L 465 188 L 468 187 L 469 186 L 471 186 L 473 185 L 473 184 L 473 183 L 473 183 L 473 182 L 473 181 L 473 181 L 473 180 L 474 179 L 474 178 L 474 178 L 474 177 L 474 176 L 475 175 L 475 175 L 476 174 L 478 173 L 479 173 L 479 172 L 479 171 L 479 170 L 482 170 L 482 169 L 482 168 L 482 168 L 482 167 L 482 166 L 482 165 L 483 165 L 485 164 L 485 163 L 486 163 L 486 162 L 486 161 L 486 160 L 488 160 L 488 159 L 488 158 L 488 158 L 490 157 L 490 156 L 490 155 L 492 155 L 494 154 L 495 153 L 497 153 L 501 152 L 501 151 L 502 150 L 502 150 L 503 149 L 503 148 L 503 148 L 505 147 L 506 146 L 509 145 L 509 145 L 511 144 L 514 143 L 516 142 L 516 142 L 520 141 L 521 140 L 522 140 L 523 139 L 523 138 L 531 137 L 532 137 L 533 136 L 538 135 L 541 135 L 547 134 L 549 133 L 549 132 L 551 132 L 551 131 L 551 130 L 556 130 L 560 129 L 562 128 L 562 127 L 565 127 L 567 126 L 567 125 L 567 125 L 567 124 L 568 123 L 568 122 L 568 122 L 570 121 L 570 120 L 570 120 L 572 119 L 579 118 L 587 117 L 587 117 L 588 116 L 593 115 L 596 115 L 597 114 L 598 113 L 600 112 L 602 112 L 602 111 L 602 110 L 602 109 L 602 109 L 603 108 L 603 107 L 604 107 L 604 106 L 605 105 L 609 104 L 609 104 L 609 103 L 609 102 L 609 102 L 610 101 L 610 100 L 610 99 L 610 99 L 610 98 L 610 97 L 610 97 L 611 96 L 617 95 L 621 94 L 621 94 L 623 93 L 631 92 L 640 92 L 642 91 L 647 90 L 651 89 L 662 89 L 665 88 L 669 87 L 669 87 L 669 86 L 669 85 L 670 84 L 670 84 L 670 83 L 670 82 L 672 82 L 674 81 L 687 80 L 690 79 L 695 79 L 705 78 L 713 77 L 718 76 L 723 76 L 730 75 L 730 74 L 745 74 L 761 73 L 761 72 L 771 71 L 772 71 L 780 70 L 782 69 L 787 69 L 787 68 L 788 67 L 788 66 L 793 66 L 795 65 L 799 64 L 805 64 L 806 63 L 808 62 L 809 61 L 814 61 L 820 60 L 820 59 L 827 59 L 833 58 L 835 57 L 835 56 L 837 56 L 839 55 L 841 54 L 846 54 L 850 53 L 854 52 L 858 51 L 858 51 L 867 50 L 868 49 L 872 49 L 880 48 L 880 47 L 888 46 L 889 46 L 889 45 L 892 44 L 893 43 L 896 43 L 897 42 L 900 41 L 905 41 L 906 40 L 907 39 L 907 38 L 920 38 L 920 37 L 921 36 L 921 36 L 922 35 L 923 34 L 924 33 L 924 33 L 925 32 L 928 31 L 928 31 L 931 30 L 932 29 L 933 28 L 934 28 L 935 27 L 935 26 L 936 26 L 937 25 L 937 24 L 938 23 L 938 23 L 938 22 L 939 21 L 941 21 L 943 20 L 943 19 L 944 18 L 945 18 L 945 17" stroke-width="2"></path><path stroke-width="2" d="M 945 346 L 945.000000 15.000000" /><path stroke-width="2" d="M 945 346 L 945.000000 15.000000"></path><path stroke-width="2" d="M 945 346 L 950 346" /><path stroke-width="2" d="M 945 346 L 950 346"></path><text xmlns="http://www.w3.org/2000/svg" x="955" y="352">0</text><path stroke-width="2" d="M 945 308 L 950 308" /><path stroke-width="2" d="M 945 308 L 950 308"></path><text xmlns="http://www.w3.org/2000/svg" x="955" y="314">52</text><path stroke-width="2" d="M 945 272 L 950 272" /><path stroke-width="2" d="M 945 272 L 950 272"></path><text xmlns="http://www.w3.org/2000/svg" x="955" y="278">103</text><path stroke-width="2" d="M 945 235 L 950 235" /><path stroke-width="2" d="M 945 235 L 950 235"></path><text xmlns="http://www.w3.org/2000/svg" x="955" y="241">154</text><path stroke-width="2" d="M 945 198 L 950 198" /><path stroke-width="2" d="M 945 198 L 950 198"></path><text xmlns="http://www.w3.org/2000/svg" x="955" y="204">205</text><path stroke-width="2" d="M 945 162 L 950 162" /><path stroke-width="2" d="M 945 162 L 950 162"></path><text xmlns="http://www.w3.org/2000/svg" x="955" y="168">256</text><path stroke-width="2" d="M 945 125 L 950 125" /><path stroke-width="2" d="M 945 125 L 950 125"></path><text xmlns="http://www.w3.org/2000/svg" x="955" y="131">307</text><path stroke-width="2" d="M 945 89 L 950 89" /><path stroke-width="2" d="M 945 89 L 950 89"></path><text xmlns="http://www.w3.org/2000/svg" x="955" y="95">358</text><path stroke-width="2" d="M 945 52 L 950 52" /><path stroke-width="2" d="M 945 52 L 950 52"></path><text xmlns="http://www.w3.org/2000/svg" x="955" y="58">409</text><path stroke-width="2" d="M 945 16 L 950 16" /><path stroke-width="2" d="M 945 16 L 950 16"></path><text xmlns="http://www.w3.org/2000/svg" x="955" y="22">460</text><text xmlns="http://www.w3.org/2000/svg" x="987" y="175" transform="rotate(90.00,987,175)">Stargazers</text><path d="M 57.000000 346.000000 L 945 346" stroke-width="2" /><path stroke-width="2" d="M 57.000000 346.000000 L 945 346"></path><path stroke-width="2" d="M 58 346 L 58 351" /><path d="M 58 346 L 58 351" stroke-width="2"></path><text xmlns="http://www.w3.org/2000/svg" x="25" y="368">2023-04-02</text><path stroke-width="2" d="M 157 346 L 157 351" /><path stroke-width="2" d="M 157 346 L 157 351"></path><text xmlns="http://www.w3.org/2000/svg" x="124" y="368">2023-05-18</text><path stroke-width="2" d="M 256 346 L 256 351" /><path stroke-width="2" d="M 256 346 L 256 351"></path><text xmlns="http://www.w3.org/2000/svg" x="223" y="368">2023-07-04</text><path stroke-width="2" d="M 354 346 L 354 351" /><path stroke-width="2" d="M 354 346 L 354 351"></path><text xmlns="http://www.w3.org/2000/svg" x="321" y="368">2023-08-20</text><path d="M 453 346 L 453 351" stroke-width="2" /><path stroke-width="2" d="M 453 346 L 453 351"></path><text x="420" y="368" xmlns="http://www.w3.org/2000/svg">2023-10-05</text><path stroke-width="2" d="M 551 346 L 551 351" /><path stroke-width="2" d="M 551 346 L 551 351"></path><text y="368" xmlns="http://www.w3.org/2000/svg" x="518">2023-11-21</text><path stroke-width="2" d="M 650 346 L 650 351" /><path stroke-width="2" d="M 650 346 L 650 351"></path><text xmlns="http://www.w3.org/2000/svg" x="617" y="368">2024-01-06</text><path stroke-width="2" d="M 748 346 L 748 351" /><path stroke-width="2" d="M 748 346 L 748 351"></path><text xmlns="http://www.w3.org/2000/svg" x="715" y="368">2024-02-22</text><path stroke-width="2" d="M 847 346 L 847 351" /><path stroke-width="2" d="M 847 346 L 847 351"></path><text xmlns="http://www.w3.org/2000/svg" x="814" y="368">2024-04-09</text><path stroke-width="2" d="M 945 346 L 945 351" /><path stroke-width="2" d="M 945 346 L 945 351"></path><text xmlns="http://www.w3.org/2000/svg" x="912" y="368">2024-05-25</text><text xmlns="http://www.w3.org/2000/svg" x="487" y="390">Time</text></svg>