<svg xmlns="http://www.w3.org/2000/svg" xmlns:xlink="http://www.w3.org/1999/xlink" width="1024px" height="400px"><style type="text/css">
path { fill: none; stroke: rgb(51,51,51); }
path.series { stroke: #6b63ff; }
rect.background { fill: rgb(255,255,255); stroke: none; }

text {
	stroke-width: 0;
	stroke: none;
	fill: rgba(51,51,51,1.0);
	font-size: 12.8px;
	font-family: 'Roboto Medium', sans-serif;
}
</style><rect x="0" y="0" width="1024px" height="400px" class="background" rx="8" /><rect x="0" y="0" width="1024px" height="400px" class="background" rx="8"></rect><path stroke-width="2" class="series" d="M 58 345 L 60 345 L 70 345 L 71 344 L 71 344 L 71 344 L 71 344 L 71 343 L 71 343 L 71 343 L 71 343 L 71 342 L 71 342 L 71 342 L 71 342 L 71 341 L 71 341 L 71 341 L 71 341 L 72 340 L 72 340 L 72 340 L 73 340 L 74 339 L 74 339 L 74 339 L 74 339 L 75 338 L 76 338 L 76 338 L 77 338 L 77 337 L 81 337 L 81 337 L 81 337 L 81 336 L 81 336 L 83 336 L 83 336 L 84 335 L 85 335 L 88 335 L 89 335 L 94 334 L 95 334 L 98 334 L 100 334 L 101 333 L 112 333 L 112 333 L 113 333 L 113 332 L 113 332 L 113 332 L 113 332 L 113 331 L 113 331 L 113 331 L 113 331 L 113 330 L 113 330 L 113 330 L 113 330 L 114 329 L 114 329 L 114 329 L 114 328 L 114 328 L 114 328 L 114 328 L 114 327 L 114 327 L 114 327 L 114 327 L 114 326 L 114 326 L 114 326 L 114 326 L 114 325 L 114 325 L 114 325 L 114 325 L 114 324 L 114 324 L 114 324 L 114 324 L 114 323 L 114 323 L 114 323 L 114 323 L 114 322 L 114 322 L 114 322 L 114 322 L 114 321 L 114 321 L 114 321 L 114 321 L 114 320 L 114 320 L 115 320 L 115 320 L 115 319 L 115 319 L 115 319 L 115 319 L 115 318 L 115 318 L 115 318 L 115 318 L 115 317 L 115 317 L 115 317 L 115 317 L 115 316 L 115 316 L 115 316 L 115 316 L 115 315 L 115 315 L 116 315 L 116 315 L 116 314 L 116 314 L 117 314 L 117 314 L 119 313 L 119 313 L 119 313 L 120 313 L 120 312 L 121 312 L 123 312 L 123 311 L 125 311 L 125 311 L 126 311 L 127 310 L 127 310 L 129 310 L 129 310 L 129 309 L 130 309 L 130 309 L 131 309 L 131 308 L 131 308 L 131 308 L 132 308 L 133 307 L 133 307 L 133 307 L 134 307 L 134 306 L 134 306 L 135 306 L 136 306 L 138 305 L 138 305 L 139 305 L 139 305 L 139 304 L 139 304 L 140 304 L 145 304 L 145 303 L 145 303 L 149 303 L 149 303 L 149 302 L 150 302 L 150 302 L 150 302 L 152 301 L 152 301 L 152 301 L 157 301 L 158 300 L 159 300 L 161 300 L 162 300 L 162 299 L 162 299 L 166 299 L 170 299 L 174 298 L 174 298 L 174 298 L 174 298 L 175 297 L 181 297 L 184 297 L 184 297 L 186 296 L 187 296 L 187 296 L 193 295 L 193 295 L 194 295 L 194 295 L 195 294 L 197 294 L 199 294 L 200 294 L 201 293 L 205 293 L 205 293 L 205 293 L 205 292 L 206 292 L 206 292 L 208 292 L 211 291 L 219 291 L 222 291 L 224 291 L 224 290 L 226 290 L 226 290 L 226 290 L 226 289 L 226 289 L 226 289 L 226 289 L 226 288 L 226 288 L 226 288 L 226 288 L 226 287 L 226 287 L 226 287 L 227 287 L 228 286 L 228 286 L 228 286 L 228 286 L 229 285 L 229 285 L 229 285 L 229 285 L 229 284 L 229 284 L 229 284 L 230 284 L 230 283 L 231 283 L 231 283 L 231 283 L 231 282 L 231 282 L 232 282 L 232 282 L 232 281 L 232 281 L 233 281 L 233 281 L 233 280 L 234 280 L 234 280 L 235 280 L 237 279 L 237 279 L 237 279 L 238 278 L 238 278 L 238 278 L 238 278 L 239 277 L 239 277 L 240 277 L 240 277 L 241 276 L 242 276 L 243 276 L 243 276 L 245 275 L 245 275 L 245 275 L 246 275 L 246 274 L 249 274 L 249 274 L 250 274 L 252 273 L 253 273 L 256 273 L 256 273 L 256 272 L 257 272 L 257 272 L 257 272 L 259 271 L 261 271 L 262 271 L 262 271 L 263 270 L 263 270 L 263 270 L 264 270 L 264 269 L 264 269 L 264 269 L 265 269 L 265 268 L 265 268 L 266 268 L 268 268 L 272 267 L 272 267 L 272 267 L 274 267 L 275 266 L 276 266 L 276 266 L 277 266 L 278 265 L 278 265 L 278 265 L 278 265 L 278 264 L 278 264 L 278 264 L 278 264 L 279 263 L 280 263 L 280 263 L 280 262 L 281 262 L 281 262 L 281 262 L 281 261 L 281 261 L 281 261 L 281 261 L 281 260 L 281 260 L 284 260 L 285 260 L 285 259 L 286 259 L 293 259 L 294 259 L 296 258 L 298 258 L 303 258 L 305 258 L 305 257 L 305 257 L 305 257 L 305 257 L 305 256 L 305 256 L 306 256 L 307 256 L 312 255 L 313 255 L 315 255 L 319 255 L 322 254 L 325 254 L 326 254 L 329 254 L 329 253 L 336 253 L 342 253 L 342 253 L 346 252 L 346 252 L 350 252 L 350 252 L 352 251 L 352 251 L 353 251 L 353 251 L 355 250 L 355 250 L 357 250 L 360 250 L 360 249 L 361 249 L 361 249 L 363 249 L 366 248 L 366 248 L 368 248 L 371 248 L 371 247 L 372 247 L 373 247 L 373 247 L 374 246 L 376 246 L 378 246 L 379 245 L 381 245 L 381 245 L 384 245 L 385 244 L 387 244 L 390 244 L 390 244 L 393 243 L 394 243 L 394 243 L 395 243 L 395 242 L 396 242 L 396 242 L 398 242 L 400 241 L 400 241 L 401 241 L 401 241 L 406 240 L 406 240 L 406 240 L 407 240 L 407 239 L 407 239 L 407 239 L 408 239 L 408 238 L 409 238 L 409 238 L 410 238 L 411 237 L 411 237 L 412 237 L 412 237 L 412 236 L 413 236 L 413 236 L 413 236 L 413 235 L 413 235 L 413 235 L 414 235 L 414 234 L 415 234 L 415 234 L 416 234 L 416 233 L 416 233 L 417 233 L 418 233 L 418 232 L 418 232 L 419 232 L 420 232 L 420 231 L 421 231 L 422 231 L 422 231 L 422 230 L 423 230 L 423 230 L 423 229 L 423 229 L 423 229 L 424 229 L 424 228 L 426 228 L 427 228 L 428 228 L 428 227 L 430 227 L 431 227 L 431 227 L 432 226 L 434 226 L 436 226 L 437 226 L 438 225 L 438 225 L 438 225 L 438 225 L 439 224 L 439 224 L 439 224 L 440 224 L 440 223 L 440 223 L 440 223 L 441 223 L 442 222 L 442 222 L 442 222 L 442 222 L 444 221 L 444 221 L 445 221 L 445 221 L 446 220 L 447 220 L 452 220 L 452 220 L 452 219 L 452 219 L 453 219 L 455 219 L 455 218 L 455 218 L 455 218 L 456 218 L 457 217 L 459 217 L 459 217 L 459 217 L 459 216 L 461 216 L 461 216 L 461 216 L 461 215 L 463 215 L 465 215 L 465 215 L 468 214 L 468 214 L 469 214 L 471 214 L 472 213 L 474 213 L 475 213 L 476 212 L 477 212 L 477 212 L 477 212 L 477 211 L 478 211 L 478 211 L 478 211 L 478 210 L 478 210 L 479 210 L 479 210 L 479 209 L 480 209 L 481 209 L 481 209 L 484 208 L 484 208 L 488 208 L 489 208 L 489 207 L 490 207 L 491 207 L 493 207 L 493 206 L 493 206 L 494 206 L 494 206 L 494 205 L 494 205 L 494 205 L 494 205 L 494 204 L 494 204 L 494 204 L 495 204 L 495 203 L 495 203 L 496 203 L 496 203 L 497 202 L 497 202 L 498 202 L 498 202 L 498 201 L 499 201 L 499 201 L 501 201 L 501 200 L 501 200 L 501 200 L 502 200 L 502 199 L 502 199 L 502 199 L 503 199 L 505 198 L 506 198 L 508 198 L 509 198 L 510 197 L 512 197 L 515 197 L 515 196 L 517 196 L 520 196 L 520 196 L 520 195 L 523 195 L 524 195 L 525 195 L 525 194 L 525 194 L 531 194 L 531 194 L 532 193 L 532 193 L 532 193 L 533 193 L 534 192 L 534 192 L 534 192 L 535 192 L 535 191 L 535 191 L 535 191 L 535 191 L 535 190 L 536 190 L 536 190 L 536 190 L 536 189 L 537 189 L 538 189 L 539 189 L 539 188 L 539 188 L 540 188 L 540 188 L 541 187 L 541 187 L 541 187 L 541 187 L 542 186 L 542 186 L 543 186 L 543 186 L 544 185 L 544 185 L 545 185 L 545 185 L 545 184 L 546 184 L 546 184 L 546 184 L 546 183 L 547 183 L 547 183 L 548 183 L 548 182 L 549 182 L 549 182 L 549 182 L 549 181 L 549 181 L 549 181 L 550 181 L 550 180 L 550 180 L 551 180 L 551 179 L 551 179 L 551 179 L 552 179 L 552 178 L 552 178 L 552 178 L 552 178 L 552 177 L 552 177 L 552 177 L 553 177 L 553 176 L 554 176 L 555 176 L 557 176 L 557 175 L 557 175 L 557 175 L 558 175 L 558 174 L 559 174 L 559 174 L 561 174 L 563 173 L 563 173 L 564 173 L 564 173 L 564 172 L 565 172 L 565 172 L 565 172 L 566 171 L 566 171 L 566 171 L 566 171 L 566 170 L 566 170 L 566 170 L 566 170 L 566 169 L 566 169 L 567 169 L 567 169 L 567 168 L 568 168 L 568 168 L 569 168 L 569 167 L 570 167 L 570 167 L 571 167 L 571 166 L 571 166 L 574 166 L 574 166 L 574 165 L 574 165 L 574 165 L 576 165 L 577 164 L 577 164 L 579 164 L 579 163 L 579 163 L 579 163 L 580 163 L 583 162 L 585 162 L 587 162 L 588 162 L 588 161 L 589 161 L 590 161 L 590 161 L 590 160 L 590 160 L 591 160 L 591 160 L 592 159 L 592 159 L 593 159 L 594 159 L 594 158 L 594 158 L 594 158 L 594 158 L 594 157 L 594 157 L 594 157 L 594 157 L 594 156 L 594 156 L 594 156 L 594 156 L 594 155 L 594 155 L 594 155 L 594 155 L 595 154 L 595 154 L 595 154 L 595 154 L 595 153 L 595 153 L 595 153 L 596 153 L 596 152 L 596 152 L 597 152 L 597 152 L 597 151 L 597 151 L 597 151 L 597 151 L 598 150 L 599 150 L 600 150 L 600 150 L 600 149 L 601 149 L 601 149 L 602 149 L 602 148 L 604 148 L 605 148 L 605 148 L 605 147 L 605 147 L 605 147 L 605 146 L 605 146 L 605 146 L 607 146 L 607 145 L 607 145 L 610 145 L 611 145 L 612 144 L 614 144 L 615 144 L 615 144 L 615 143 L 615 143 L 616 143 L 616 143 L 616 142 L 617 142 L 617 142 L 618 142 L 618 141 L 618 141 L 618 141 L 618 141 L 618 140 L 618 140 L 618 140 L 618 140 L 619 139 L 619 139 L 619 139 L 620 139 L 621 138 L 621 138 L 621 138 L 621 138 L 621 137 L 622 137 L 622 137 L 623 137 L 623 136 L 623 136 L 623 136 L 624 136 L 627 135 L 628 135 L 630 135 L 631 135 L 632 134 L 634 134 L 634 134 L 635 134 L 637 133 L 641 133 L 641 133 L 642 133 L 644 132 L 645 132 L 646 132 L 646 132 L 647 131 L 648 131 L 648 131 L 649 130 L 650 130 L 651 130 L 651 130 L 652 129 L 652 129 L 652 129 L 652 129 L 653 128 L 656 128 L 656 128 L 657 128 L 658 127 L 658 127 L 659 127 L 659 127 L 660 126 L 660 126 L 660 126 L 660 126 L 661 125 L 662 125 L 662 125 L 662 125 L 663 124 L 663 124 L 664 124 L 664 124 L 665 123 L 665 123 L 665 123 L 666 123 L 666 122 L 666 122 L 666 122 L 666 122 L 666 121 L 667 121 L 669 121 L 670 121 L 670 120 L 672 120 L 673 120 L 674 120 L 675 119 L 676 119 L 678 119 L 680 119 L 681 118 L 681 118 L 682 118 L 683 118 L 685 117 L 686 117 L 686 117 L 686 117 L 686 116 L 687 116 L 687 116 L 688 116 L 688 115 L 689 115 L 690 115 L 690 115 L 690 114 L 695 114 L 695 114 L 696 113 L 697 113 L 699 113 L 699 113 L 700 112 L 700 112 L 700 112 L 700 112 L 701 111 L 702 111 L 702 111 L 703 111 L 703 110 L 703 110 L 703 110 L 704 110 L 705 109 L 707 109 L 708 109 L 711 109 L 712 108 L 712 108 L 713 108 L 714 108 L 714 107 L 714 107 L 714 107 L 716 107 L 717 106 L 719 106 L 719 106 L 719 106 L 719 105 L 720 105 L 721 105 L 723 105 L 723 104 L 723 104 L 724 104 L 724 104 L 724 103 L 724 103 L 725 103 L 726 103 L 726 102 L 727 102 L 727 102 L 728 102 L 728 101 L 728 101 L 729 101 L 729 101 L 729 100 L 732 100 L 735 100 L 735 100 L 738 99 L 739 99 L 741 99 L 741 99 L 742 98 L 742 98 L 743 98 L 744 97 L 745 97 L 746 97 L 747 97 L 750 96 L 754 96 L 754 96 L 754 96 L 754 95 L 754 95 L 755 95 L 756 95 L 756 94 L 763 94 L 765 94 L 765 94 L 766 93 L 767 93 L 770 93 L 771 93 L 772 92 L 772 92 L 773 92 L 774 92 L 778 91 L 778 91 L 779 91 L 780 91 L 782 90 L 783 90 L 783 90 L 783 90 L 783 89 L 784 89 L 784 89 L 786 89 L 787 88 L 788 88 L 788 88 L 789 88 L 791 87 L 793 87 L 795 87 L 795 87 L 796 86 L 797 86 L 797 86 L 797 86 L 797 85 L 797 85 L 797 85 L 799 85 L 800 84 L 800 84 L 801 84 L 801 84 L 801 83 L 801 83 L 801 83 L 801 83 L 801 82 L 802 82 L 802 82 L 802 82 L 803 81 L 803 81 L 803 81 L 803 80 L 803 80 L 804 80 L 804 80 L 805 79 L 809 79 L 810 79 L 811 79 L 811 78 L 811 78 L 811 78 L 812 78 L 812 77 L 812 77 L 812 77 L 812 77 L 812 76 L 812 76 L 812 76 L 812 76 L 812 75 L 812 75 L 812 75 L 812 75 L 812 74 L 813 74 L 813 74 L 813 74 L 813 73 L 814 73 L 814 73 L 816 73 L 816 72 L 817 72 L 817 72 L 818 72 L 818 71 L 820 71 L 820 71 L 820 71 L 821 70 L 822 70 L 823 70 L 823 70 L 824 69 L 825 69 L 825 69 L 827 69 L 827 68 L 828 68 L 828 68 L 830 68 L 830 67 L 830 67 L 831 67 L 831 67 L 832 66 L 833 66 L 833 66 L 834 66 L 836 65 L 840 65 L 840 65 L 840 64 L 844 64 L 844 64 L 845 64 L 845 63 L 845 63 L 845 63 L 846 63 L 847 62 L 848 62 L 849 62 L 849 62 L 849 61 L 849 61 L 850 61 L 850 61 L 854 60 L 854 60 L 854 60 L 855 60 L 856 59 L 857 59 L 862 59 L 863 59 L 864 58 L 864 58 L 864 58 L 865 58 L 867 57 L 867 57 L 867 57 L 867 57 L 868 56 L 868 56 L 871 56 L 873 56 L 873 55 L 875 55 L 876 55 L 876 55 L 877 54 L 877 54 L 877 54 L 877 54 L 878 53 L 879 53 L 880 53 L 881 53 L 882 52 L 882 52 L 882 52 L 885 52 L 886 51 L 887 51 L 887 51 L 888 51 L 892 50 L 894 50 L 898 50 L 899 50 L 901 49 L 902 49 L 902 49 L 903 49 L 903 48 L 906 48 L 906 48 L 907 47 L 907 47 L 907 47 L 907 47 L 907 46 L 909 46 L 909 46 L 909 46 L 909 45 L 910 45 L 911 45 L 911 45 L 911 44 L 912 44 L 912 44 L 913 44 L 913 43 L 913 43 L 914 43 L 914 43 L 918 42 L 918 42 L 919 42 L 921 42 L 922 41 L 925 41 L 931 41 L 932 41 L 933 40 L 934 40 L 935 40 L 935 40 L 936 39 L 936 39 L 937 39" /><path stroke-width="2" class="series" d="M 58 345 L 60 345 L 70 345 L 71 344 L 71 344 L 71 344 L 71 344 L 71 343 L 71 343 L 71 343 L 71 343 L 71 342 L 71 342 L 71 342 L 71 342 L 71 341 L 71 341 L 71 341 L 71 341 L 72 340 L 72 340 L 72 340 L 73 340 L 74 339 L 74 339 L 74 339 L 74 339 L 75 338 L 76 338 L 76 338 L 77 338 L 77 337 L 81 337 L 81 337 L 81 337 L 81 336 L 81 336 L 83 336 L 83 336 L 84 335 L 85 335 L 88 335 L 89 335 L 94 334 L 95 334 L 98 334 L 100 334 L 101 333 L 112 333 L 112 333 L 113 333 L 113 332 L 113 332 L 113 332 L 113 332 L 113 331 L 113 331 L 113 331 L 113 331 L 113 330 L 113 330 L 113 330 L 113 330 L 114 329 L 114 329 L 114 329 L 114 328 L 114 328 L 114 328 L 114 328 L 114 327 L 114 327 L 114 327 L 114 327 L 114 326 L 114 326 L 114 326 L 114 326 L 114 325 L 114 325 L 114 325 L 114 325 L 114 324 L 114 324 L 114 324 L 114 324 L 114 323 L 114 323 L 114 323 L 114 323 L 114 322 L 114 322 L 114 322 L 114 322 L 114 321 L 114 321 L 114 321 L 114 321 L 114 320 L 114 320 L 115 320 L 115 320 L 115 319 L 115 319 L 115 319 L 115 319 L 115 318 L 115 318 L 115 318 L 115 318 L 115 317 L 115 317 L 115 317 L 115 317 L 115 316 L 115 316 L 115 316 L 115 316 L 115 315 L 115 315 L 116 315 L 116 315 L 116 314 L 116 314 L 117 314 L 117 314 L 119 313 L 119 313 L 119 313 L 120 313 L 120 312 L 121 312 L 123 312 L 123 311 L 125 311 L 125 311 L 126 311 L 127 310 L 127 310 L 129 310 L 129 310 L 129 309 L 130 309 L 130 309 L 131 309 L 131 308 L 131 308 L 131 308 L 132 308 L 133 307 L 133 307 L 133 307 L 134 307 L 134 306 L 134 306 L 135 306 L 136 306 L 138 305 L 138 305 L 139 305 L 139 305 L 139 304 L 139 304 L 140 304 L 145 304 L 145 303 L 145 303 L 149 303 L 149 303 L 149 302 L 150 302 L 150 302 L 150 302 L 152 301 L 152 301 L 152 301 L 157 301 L 158 300 L 159 300 L 161 300 L 162 300 L 162 299 L 162 299 L 166 299 L 170 299 L 174 298 L 174 298 L 174 298 L 174 298 L 175 297 L 181 297 L 184 297 L 184 297 L 186 296 L 187 296 L 187 296 L 193 295 L 193 295 L 194 295 L 194 295 L 195 294 L 197 294 L 199 294 L 200 294 L 201 293 L 205 293 L 205 293 L 205 293 L 205 292 L 206 292 L 206 292 L 208 292 L 211 291 L 219 291 L 222 291 L 224 291 L 224 290 L 226 290 L 226 290 L 226 290 L 226 289 L 226 289 L 226 289 L 226 289 L 226 288 L 226 288 L 226 288 L 226 288 L 226 287 L 226 287 L 226 287 L 227 287 L 228 286 L 228 286 L 228 286 L 228 286 L 229 285 L 229 285 L 229 285 L 229 285 L 229 284 L 229 284 L 229 284 L 230 284 L 230 283 L 231 283 L 231 283 L 231 283 L 231 282 L 231 282 L 232 282 L 232 282 L 232 281 L 232 281 L 233 281 L 233 281 L 233 280 L 234 280 L 234 280 L 235 280 L 237 279 L 237 279 L 237 279 L 238 278 L 238 278 L 238 278 L 238 278 L 239 277 L 239 277 L 240 277 L 240 277 L 241 276 L 242 276 L 243 276 L 243 276 L 245 275 L 245 275 L 245 275 L 246 275 L 246 274 L 249 274 L 249 274 L 250 274 L 252 273 L 253 273 L 256 273 L 256 273 L 256 272 L 257 272 L 257 272 L 257 272 L 259 271 L 261 271 L 262 271 L 262 271 L 263 270 L 263 270 L 263 270 L 264 270 L 264 269 L 264 269 L 264 269 L 265 269 L 265 268 L 265 268 L 266 268 L 268 268 L 272 267 L 272 267 L 272 267 L 274 267 L 275 266 L 276 266 L 276 266 L 277 266 L 278 265 L 278 265 L 278 265 L 278 265 L 278 264 L 278 264 L 278 264 L 278 264 L 279 263 L 280 263 L 280 263 L 280 262 L 281 262 L 281 262 L 281 262 L 281 261 L 281 261 L 281 261 L 281 261 L 281 260 L 281 260 L 284 260 L 285 260 L 285 259 L 286 259 L 293 259 L 294 259 L 296 258 L 298 258 L 303 258 L 305 258 L 305 257 L 305 257 L 305 257 L 305 257 L 305 256 L 305 256 L 306 256 L 307 256 L 312 255 L 313 255 L 315 255 L 319 255 L 322 254 L 325 254 L 326 254 L 329 254 L 329 253 L 336 253 L 342 253 L 342 253 L 346 252 L 346 252 L 350 252 L 350 252 L 352 251 L 352 251 L 353 251 L 353 251 L 355 250 L 355 250 L 357 250 L 360 250 L 360 249 L 361 249 L 361 249 L 363 249 L 366 248 L 366 248 L 368 248 L 371 248 L 371 247 L 372 247 L 373 247 L 373 247 L 374 246 L 376 246 L 378 246 L 379 245 L 381 245 L 381 245 L 384 245 L 385 244 L 387 244 L 390 244 L 390 244 L 393 243 L 394 243 L 394 243 L 395 243 L 395 242 L 396 242 L 396 242 L 398 242 L 400 241 L 400 241 L 401 241 L 401 241 L 406 240 L 406 240 L 406 240 L 407 240 L 407 239 L 407 239 L 407 239 L 408 239 L 408 238 L 409 238 L 409 238 L 410 238 L 411 237 L 411 237 L 412 237 L 412 237 L 412 236 L 413 236 L 413 236 L 413 236 L 413 235 L 413 235 L 413 235 L 414 235 L 414 234 L 415 234 L 415 234 L 416 234 L 416 233 L 416 233 L 417 233 L 418 233 L 418 232 L 418 232 L 419 232 L 420 232 L 420 231 L 421 231 L 422 231 L 422 231 L 422 230 L 423 230 L 423 230 L 423 229 L 423 229 L 423 229 L 424 229 L 424 228 L 426 228 L 427 228 L 428 228 L 428 227 L 430 227 L 431 227 L 431 227 L 432 226 L 434 226 L 436 226 L 437 226 L 438 225 L 438 225 L 438 225 L 438 225 L 439 224 L 439 224 L 439 224 L 440 224 L 440 223 L 440 223 L 440 223 L 441 223 L 442 222 L 442 222 L 442 222 L 442 222 L 444 221 L 444 221 L 445 221 L 445 221 L 446 220 L 447 220 L 452 220 L 452 220 L 452 219 L 452 219 L 453 219 L 455 219 L 455 218 L 455 218 L 455 218 L 456 218 L 457 217 L 459 217 L 459 217 L 459 217 L 459 216 L 461 216 L 461 216 L 461 216 L 461 215 L 463 215 L 465 215 L 465 215 L 468 214 L 468 214 L 469 214 L 471 214 L 472 213 L 474 213 L 475 213 L 476 212 L 477 212 L 477 212 L 477 212 L 477 211 L 478 211 L 478 211 L 478 211 L 478 210 L 478 210 L 479 210 L 479 210 L 479 209 L 480 209 L 481 209 L 481 209 L 484 208 L 484 208 L 488 208 L 489 208 L 489 207 L 490 207 L 491 207 L 493 207 L 493 206 L 493 206 L 494 206 L 494 206 L 494 205 L 494 205 L 494 205 L 494 205 L 494 204 L 494 204 L 494 204 L 495 204 L 495 203 L 495 203 L 496 203 L 496 203 L 497 202 L 497 202 L 498 202 L 498 202 L 498 201 L 499 201 L 499 201 L 501 201 L 501 200 L 501 200 L 501 200 L 502 200 L 502 199 L 502 199 L 502 199 L 503 199 L 505 198 L 506 198 L 508 198 L 509 198 L 510 197 L 512 197 L 515 197 L 515 196 L 517 196 L 520 196 L 520 196 L 520 195 L 523 195 L 524 195 L 525 195 L 525 194 L 525 194 L 531 194 L 531 194 L 532 193 L 532 193 L 532 193 L 533 193 L 534 192 L 534 192 L 534 192 L 535 192 L 535 191 L 535 191 L 535 191 L 535 191 L 535 190 L 536 190 L 536 190 L 536 190 L 536 189 L 537 189 L 538 189 L 539 189 L 539 188 L 539 188 L 540 188 L 540 188 L 541 187 L 541 187 L 541 187 L 541 187 L 542 186 L 542 186 L 543 186 L 543 186 L 544 185 L 544 185 L 545 185 L 545 185 L 545 184 L 546 184 L 546 184 L 546 184 L 546 183 L 547 183 L 547 183 L 548 183 L 548 182 L 549 182 L 549 182 L 549 182 L 549 181 L 549 181 L 549 181 L 550 181 L 550 180 L 550 180 L 551 180 L 551 179 L 551 179 L 551 179 L 552 179 L 552 178 L 552 178 L 552 178 L 552 178 L 552 177 L 552 177 L 552 177 L 553 177 L 553 176 L 554 176 L 555 176 L 557 176 L 557 175 L 557 175 L 557 175 L 558 175 L 558 174 L 559 174 L 559 174 L 561 174 L 563 173 L 563 173 L 564 173 L 564 173 L 564 172 L 565 172 L 565 172 L 565 172 L 566 171 L 566 171 L 566 171 L 566 171 L 566 170 L 566 170 L 566 170 L 566 170 L 566 169 L 566 169 L 567 169 L 567 169 L 567 168 L 568 168 L 568 168 L 569 168 L 569 167 L 570 167 L 570 167 L 571 167 L 571 166 L 571 166 L 574 166 L 574 166 L 574 165 L 574 165 L 574 165 L 576 165 L 577 164 L 577 164 L 579 164 L 579 163 L 579 163 L 579 163 L 580 163 L 583 162 L 585 162 L 587 162 L 588 162 L 588 161 L 589 161 L 590 161 L 590 161 L 590 160 L 590 160 L 591 160 L 591 160 L 592 159 L 592 159 L 593 159 L 594 159 L 594 158 L 594 158 L 594 158 L 594 158 L 594 157 L 594 157 L 594 157 L 594 157 L 594 156 L 594 156 L 594 156 L 594 156 L 594 155 L 594 155 L 594 155 L 594 155 L 595 154 L 595 154 L 595 154 L 595 154 L 595 153 L 595 153 L 595 153 L 596 153 L 596 152 L 596 152 L 597 152 L 597 152 L 597 151 L 597 151 L 597 151 L 597 151 L 598 150 L 599 150 L 600 150 L 600 150 L 600 149 L 601 149 L 601 149 L 602 149 L 602 148 L 604 148 L 605 148 L 605 148 L 605 147 L 605 147 L 605 147 L 605 146 L 605 146 L 605 146 L 607 146 L 607 145 L 607 145 L 610 145 L 611 145 L 612 144 L 614 144 L 615 144 L 615 144 L 615 143 L 615 143 L 616 143 L 616 143 L 616 142 L 617 142 L 617 142 L 618 142 L 618 141 L 618 141 L 618 141 L 618 141 L 618 140 L 618 140 L 618 140 L 618 140 L 619 139 L 619 139 L 619 139 L 620 139 L 621 138 L 621 138 L 621 138 L 621 138 L 621 137 L 622 137 L 622 137 L 623 137 L 623 136 L 623 136 L 623 136 L 624 136 L 627 135 L 628 135 L 630 135 L 631 135 L 632 134 L 634 134 L 634 134 L 635 134 L 637 133 L 641 133 L 641 133 L 642 133 L 644 132 L 645 132 L 646 132 L 646 132 L 647 131 L 648 131 L 648 131 L 649 130 L 650 130 L 651 130 L 651 130 L 652 129 L 652 129 L 652 129 L 652 129 L 653 128 L 656 128 L 656 128 L 657 128 L 658 127 L 658 127 L 659 127 L 659 127 L 660 126 L 660 126 L 660 126 L 660 126 L 661 125 L 662 125 L 662 125 L 662 125 L 663 124 L 663 124 L 664 124 L 664 124 L 665 123 L 665 123 L 665 123 L 666 123 L 666 122 L 666 122 L 666 122 L 666 122 L 666 121 L 667 121 L 669 121 L 670 121 L 670 120 L 672 120 L 673 120 L 674 120 L 675 119 L 676 119 L 678 119 L 680 119 L 681 118 L 681 118 L 682 118 L 683 118 L 685 117 L 686 117 L 686 117 L 686 117 L 686 116 L 687 116 L 687 116 L 688 116 L 688 115 L 689 115 L 690 115 L 690 115 L 690 114 L 695 114 L 695 114 L 696 113 L 697 113 L 699 113 L 699 113 L 700 112 L 700 112 L 700 112 L 700 112 L 701 111 L 702 111 L 702 111 L 703 111 L 703 110 L 703 110 L 703 110 L 704 110 L 705 109 L 707 109 L 708 109 L 711 109 L 712 108 L 712 108 L 713 108 L 714 108 L 714 107 L 714 107 L 714 107 L 716 107 L 717 106 L 719 106 L 719 106 L 719 106 L 719 105 L 720 105 L 721 105 L 723 105 L 723 104 L 723 104 L 724 104 L 724 104 L 724 103 L 724 103 L 725 103 L 726 103 L 726 102 L 727 102 L 727 102 L 728 102 L 728 101 L 728 101 L 729 101 L 729 101 L 729 100 L 732 100 L 735 100 L 735 100 L 738 99 L 739 99 L 741 99 L 741 99 L 742 98 L 742 98 L 743 98 L 744 97 L 745 97 L 746 97 L 747 97 L 750 96 L 754 96 L 754 96 L 754 96 L 754 95 L 754 95 L 755 95 L 756 95 L 756 94 L 763 94 L 765 94 L 765 94 L 766 93 L 767 93 L 770 93 L 771 93 L 772 92 L 772 92 L 773 92 L 774 92 L 778 91 L 778 91 L 779 91 L 780 91 L 782 90 L 783 90 L 783 90 L 783 90 L 783 89 L 784 89 L 784 89 L 786 89 L 787 88 L 788 88 L 788 88 L 789 88 L 791 87 L 793 87 L 795 87 L 795 87 L 796 86 L 797 86 L 797 86 L 797 86 L 797 85 L 797 85 L 797 85 L 799 85 L 800 84 L 800 84 L 801 84 L 801 84 L 801 83 L 801 83 L 801 83 L 801 83 L 801 82 L 802 82 L 802 82 L 802 82 L 803 81 L 803 81 L 803 81 L 803 80 L 803 80 L 804 80 L 804 80 L 805 79 L 809 79 L 810 79 L 811 79 L 811 78 L 811 78 L 811 78 L 812 78 L 812 77 L 812 77 L 812 77 L 812 77 L 812 76 L 812 76 L 812 76 L 812 76 L 812 75 L 812 75 L 812 75 L 812 75 L 812 74 L 813 74 L 813 74 L 813 74 L 813 73 L 814 73 L 814 73 L 816 73 L 816 72 L 817 72 L 817 72 L 818 72 L 818 71 L 820 71 L 820 71 L 820 71 L 821 70 L 822 70 L 823 70 L 823 70 L 824 69 L 825 69 L 825 69 L 827 69 L 827 68 L 828 68 L 828 68 L 830 68 L 830 67 L 830 67 L 831 67 L 831 67 L 832 66 L 833 66 L 833 66 L 834 66 L 836 65 L 840 65 L 840 65 L 840 64 L 844 64 L 844 64 L 845 64 L 845 63 L 845 63 L 845 63 L 846 63 L 847 62 L 848 62 L 849 62 L 849 62 L 849 61 L 849 61 L 850 61 L 850 61 L 854 60 L 854 60 L 854 60 L 855 60 L 856 59 L 857 59 L 862 59 L 863 59 L 864 58 L 864 58 L 864 58 L 865 58 L 867 57 L 867 57 L 867 57 L 867 57 L 868 56 L 868 56 L 871 56 L 873 56 L 873 55 L 875 55 L 876 55 L 876 55 L 877 54 L 877 54 L 877 54 L 877 54 L 878 53 L 879 53 L 880 53 L 881 53 L 882 52 L 882 52 L 882 52 L 885 52 L 886 51 L 887 51 L 887 51 L 888 51 L 892 50 L 894 50 L 898 50 L 899 50 L 901 49 L 902 49 L 902 49 L 903 49 L 903 48 L 906 48 L 906 48 L 907 47 L 907 47 L 907 47 L 907 47 L 907 46 L 909 46 L 909 46 L 909 46 L 909 45 L 910 45 L 911 45 L 911 45 L 911 44 L 912 44 L 912 44 L 913 44 L 913 43 L 913 43 L 914 43 L 914 43 L 918 42 L 918 42 L 919 42 L 921 42 L 922 41 L 925 41 L 931 41 L 932 41 L 933 40 L 934 40 L 935 40 L 935 40 L 936 39 L 936 39 L 937 39"></path><path stroke-width="2" d="M 937 346 L 937.000000 15.000000" /><path stroke-width="2" d="M 937 346 L 937.000000 15.000000"></path><path stroke-width="2" d="M 937 346 L 942 346" /><path stroke-width="2" d="M 937 346 L 942 346"></path><text xmlns="http://www.w3.org/2000/svg" x="947" y="352">0</text><path stroke-width="2" d="M 937 307 L 942 307" /><path stroke-width="2" d="M 937 307 L 942 307"></path><text x="947" y="313" xmlns="http://www.w3.org/2000/svg">150</text><path stroke-width="2" d="M 937 272 L 942 272" /><path d="M 937 272 L 942 272" stroke-width="2"></path><text xmlns="http://www.w3.org/2000/svg" x="947" y="278">290</text><path d="M 937 234 L 942 234" stroke-width="2" /><path stroke-width="2" d="M 937 234 L 942 234"></path><text xmlns="http://www.w3.org/2000/svg" x="947" y="240">440</text><path stroke-width="2" d="M 937 198 L 942 198" /><path stroke-width="2" d="M 937 198 L 942 198"></path><text y="204" xmlns="http://www.w3.org/2000/svg" x="947">580</text><path stroke-width="2" d="M 937 160 L 942 160" /><path stroke-width="2" d="M 937 160 L 942 160"></path><text x="947" y="166" xmlns="http://www.w3.org/2000/svg">730</text><path stroke-width="2" d="M 937 125 L 942 125" /><path stroke-width="2" d="M 937 125 L 942 125"></path><text x="947" y="131" xmlns="http://www.w3.org/2000/svg">870</text><path stroke-width="2" d="M 937 87 L 942 87" /><path stroke-width="2" d="M 937 87 L 942 87"></path><text x="947" y="93" xmlns="http://www.w3.org/2000/svg">1020</text><path stroke-width="2" d="M 937 51 L 942 51" /><path stroke-width="2" d="M 937 51 L 942 51"></path><text xmlns="http://www.w3.org/2000/svg" x="947" y="57">1160</text><path stroke-width="2" d="M 937 16 L 942 16" /><path d="M 937 16 L 942 16" stroke-width="2"></path><text xmlns="http://www.w3.org/2000/svg" x="947" y="22">1300</text><text xmlns="http://www.w3.org/2000/svg" x="987" y="175" transform="rotate(90.00,987,175)">Stargazers</text><path stroke-width="2" d="M 57.000000 346.000000 L 937 346" /><path stroke-width="2" d="M 57.000000 346.000000 L 937 346"></path><path stroke-width="2" d="M 58 346 L 58 351" /><path stroke-width="2" d="M 58 346 L 58 351"></path><text xmlns="http://www.w3.org/2000/svg" x="25" y="368">2023-04-02</text><path stroke-width="2" d="M 156 346 L 156 351" /><path stroke-width="2" d="M 156 346 L 156 351"></path><text y="368" xmlns="http://www.w3.org/2000/svg" x="123">2023-07-25</text><path stroke-width="2" d="M 254 346 L 254 351" /><path stroke-width="2" d="M 254 346 L 254 351"></path><text xmlns="http://www.w3.org/2000/svg" x="221" y="368">2023-11-17</text><path stroke-width="2" d="M 352 346 L 352 351" /><path stroke-width="2" d="M 352 346 L 352 351"></path><text xmlns="http://www.w3.org/2000/svg" x="319" y="368">2024-03-10</text><path d="M 449 346 L 449 351" stroke-width="2" /><path stroke-width="2" d="M 449 346 L 449 351"></path><text xmlns="http://www.w3.org/2000/svg" x="416" y="368">2024-07-03</text><path stroke-width="2" d="M 547 346 L 547 351" /><path stroke-width="2" d="M 547 346 L 547 351"></path><text xmlns="http://www.w3.org/2000/svg" x="514" y="368">2024-10-25</text><path stroke-width="2" d="M 645 346 L 645 351" /><path stroke-width="2" d="M 645 346 L 645 351"></path><text xmlns="http://www.w3.org/2000/svg" x="612" y="368">2025-02-17</text><path stroke-width="2" d="M 742 346 L 742 351" /><path stroke-width="2" d="M 742 346 L 742 351"></path><text xmlns="http://www.w3.org/2000/svg" x="709" y="368">2025-06-11</text><path stroke-width="2" d="M 840 346 L 840 351" /><path stroke-width="2" d="M 840 346 L 840 351"></path><text xmlns="http://www.w3.org/2000/svg" x="807" y="368">2025-10-04</text><path stroke-width="2" d="M 937 346 L 937 351" /><path stroke-width="2" d="M 937 346 L 937 351"></path><text xmlns="http://www.w3.org/2000/svg" x="904" y="368">2026-01-26</text><text xmlns="http://www.w3.org/2000/svg" x="483" y="390">Time</text></svg>