<svg xmlns="http://www.w3.org/2000/svg" xmlns:xlink="http://www.w3.org/1999/xlink" width="1024px" height="400px"><style type="text/css">
path { fill: none; stroke: rgb(51,51,51); }
path.series { stroke: #6b63ff; }
rect.background { fill: rgb(255,255,255); stroke: none; }

text {
	stroke-width: 0;
	stroke: none;
	fill: rgba(51,51,51,1.0);
	font-size: 12.8px;
	font-family: 'Roboto Medium', sans-serif;
}
</style><rect height="400px" class="background" rx="8" x="0" y="0" width="1024px" /><rect x="0" y="0" width="1024px" height="400px" class="background" rx="8"></rect><path stroke-width="2" class="series" d="M 58 345 L 63 344 L 89 343 L 90 342 L 90 342 L 90 341 L 90 340 L 90 339 L 90 339 L 90 338 L 91 337 L 91 336 L 91 336 L 91 335 L 91 334 L 91 333 L 91 332 L 91 332 L 92 331 L 92 330 L 93 329 L 94 329 L 94 328 L 96 327 L 97 326 L 98 326 L 98 325 L 98 324 L 100 323 L 103 322 L 103 322 L 105 321 L 107 320 L 116 319 L 116 319 L 116 318 L 116 317 L 116 316 L 116 316 L 121 315 L 123 314 L 124 313 L 128 313 L 135 312 L 138 311 L 150 310 L 154 309 L 160 309 L 167 308 L 170 307 L 195 306 L 196 306 L 196 305 L 199 304 L 200 303 L 200 303 L 200 302 L 200 301 L 200 300 L 200 299 L 200 299 L 200 298 L 201 297 L 201 296 L 201 296 L 201 295 L 201 294 L 201 293 L 201 293 L 201 292 L 201 291 L 202 290 L 202 289 L 202 289 L 202 288 L 202 287 L 202 286 L 202 286 L 202 285 L 202 284 L 202 283 L 202 283 L 202 282 L 202 281 L 202 280 L 202 280 L 202 279 L 202 278 L 202 277 L 202 276 L 202 276 L 202 275 L 202 274 L 202 273 L 202 273 L 202 272 L 202 271 L 202 270 L 202 270 L 203 269 L 203 268 L 203 267 L 204 266 L 204 266 L 204 265 L 204 264 L 205 263 L 206 263 L 206 262 L 206 261 L 206 260 L 206 260 L 206 259 L 206 258 L 206 257 L 206 256 L 206 256 L 206 255 L 206 254 L 206 253 L 206 253 L 206 252 L 206 251 L 207 250 L 207 250 L 209 249 L 209 248 L 209 247 L 209 247 L 215 246 L 215 245 L 215 244 L 218 243 L 218 243 L 222 242 L 226 241 L 227 240 L 230 240 L 232 239 L 235 238 L 235 237 L 236 237 L 240 236 L 240 235 L 242 234 L 244 233 L 245 233 L 246 232 L 246 231 L 247 230 L 247 230 L 249 229 L 251 228 L 251 227 L 252 227 L 253 226 L 253 225 L 255 224 L 258 223 L 260 223 L 263 222 L 265 221 L 266 220 L 268 220 L 268 219 L 268 218 L 271 217 L 282 217 L 282 216 L 284 215 L 294 214 L 294 214 L 294 213 L 295 212 L 295 211 L 297 210 L 300 210 L 302 209 L 302 208 L 314 207 L 317 207 L 320 206 L 324 205 L 326 204 L 326 204 L 328 203 L 337 202 L 346 201 L 358 200 L 359 200 L 359 199 L 359 198 L 360 197 L 362 197 L 377 196 L 384 195 L 384 194 L 390 194 L 391 193 L 392 192 L 408 191 L 408 190 L 409 190 L 410 189 L 412 188 L 417 187 L 419 187 L 422 186 L 424 185 L 428 184 L 437 184 L 437 183 L 439 182 L 439 181 L 440 181 L 440 180 L 445 179 L 455 178 L 475 177 L 483 177 L 483 176 L 487 175 L 487 174 L 490 174 L 492 173 L 492 172 L 492 171 L 492 171 L 492 170 L 492 169 L 492 168 L 492 167 L 493 167 L 493 166 L 493 165 L 493 164 L 493 164 L 494 163 L 494 162 L 495 161 L 497 161 L 498 160 L 498 159 L 498 158 L 499 157 L 501 157 L 501 156 L 501 155 L 501 154 L 501 154 L 501 153 L 501 152 L 503 151 L 504 151 L 505 150 L 505 149 L 505 148 L 506 148 L 506 147 L 507 146 L 507 145 L 508 144 L 508 144 L 509 143 L 510 142 L 510 141 L 512 141 L 514 140 L 515 139 L 517 138 L 521 138 L 521 137 L 522 136 L 523 135 L 523 134 L 523 134 L 523 133 L 526 132 L 527 131 L 530 131 L 530 130 L 531 129 L 534 128 L 537 128 L 537 127 L 541 126 L 542 125 L 543 124 L 545 124 L 545 123 L 552 122 L 554 121 L 554 121 L 560 120 L 563 119 L 569 118 L 571 118 L 572 117 L 573 116 L 574 115 L 574 115 L 579 114 L 582 113 L 585 112 L 586 111 L 588 111 L 590 110 L 590 109 L 590 108 L 590 108 L 591 107 L 591 106 L 592 105 L 594 105 L 594 104 L 594 103 L 595 102 L 603 101 L 612 101 L 612 100 L 612 99 L 618 98 L 621 98 L 622 97 L 623 96 L 625 95 L 627 95 L 627 94 L 627 93 L 627 92 L 627 91 L 628 91 L 628 90 L 629 89 L 629 88 L 630 88 L 634 87 L 634 86 L 634 85 L 634 85 L 635 84 L 635 83 L 635 82 L 635 82 L 635 81 L 635 80 L 636 79 L 636 78 L 636 78 L 638 77 L 643 76 L 647 75 L 647 75 L 649 74 L 657 73 L 667 72 L 669 72 L 674 71 L 678 70 L 689 69 L 693 68 L 697 68 L 697 67 L 697 66 L 697 65 L 698 65 L 698 64 L 698 63 L 698 62 L 700 62 L 702 61 L 716 60 L 719 59 L 724 58 L 735 58 L 743 57 L 749 56 L 753 55 L 761 55 L 761 54 L 777 53 L 793 52 L 793 52 L 804 51 L 804 50 L 813 49 L 815 49 L 820 48 L 820 47 L 821 46 L 821 45 L 826 45 L 828 44 L 833 43 L 839 42 L 840 42 L 842 41 L 843 40 L 849 39 L 855 39 L 855 38 L 862 37 L 869 36 L 870 35 L 870 35 L 873 34 L 875 33 L 876 32 L 882 32 L 886 31 L 891 30 L 892 29 L 895 29 L 895 28 L 903 27 L 905 26 L 910 25 L 917 25 L 918 24 L 926 23 L 927 22 L 927 22 L 930 21 L 931 20 L 935 19 L 935 19 L 939 18 L 944 17 L 945 16 L 945 16" /><path stroke-width="2" class="series" d="M 58 345 L 63 344 L 89 343 L 90 342 L 90 342 L 90 341 L 90 340 L 90 339 L 90 339 L 90 338 L 91 337 L 91 336 L 91 336 L 91 335 L 91 334 L 91 333 L 91 332 L 91 332 L 92 331 L 92 330 L 93 329 L 94 329 L 94 328 L 96 327 L 97 326 L 98 326 L 98 325 L 98 324 L 100 323 L 103 322 L 103 322 L 105 321 L 107 320 L 116 319 L 116 319 L 116 318 L 116 317 L 116 316 L 116 316 L 121 315 L 123 314 L 124 313 L 128 313 L 135 312 L 138 311 L 150 310 L 154 309 L 160 309 L 167 308 L 170 307 L 195 306 L 196 306 L 196 305 L 199 304 L 200 303 L 200 303 L 200 302 L 200 301 L 200 300 L 200 299 L 200 299 L 200 298 L 201 297 L 201 296 L 201 296 L 201 295 L 201 294 L 201 293 L 201 293 L 201 292 L 201 291 L 202 290 L 202 289 L 202 289 L 202 288 L 202 287 L 202 286 L 202 286 L 202 285 L 202 284 L 202 283 L 202 283 L 202 282 L 202 281 L 202 280 L 202 280 L 202 279 L 202 278 L 202 277 L 202 276 L 202 276 L 202 275 L 202 274 L 202 273 L 202 273 L 202 272 L 202 271 L 202 270 L 202 270 L 203 269 L 203 268 L 203 267 L 204 266 L 204 266 L 204 265 L 204 264 L 205 263 L 206 263 L 206 262 L 206 261 L 206 260 L 206 260 L 206 259 L 206 258 L 206 257 L 206 256 L 206 256 L 206 255 L 206 254 L 206 253 L 206 253 L 206 252 L 206 251 L 207 250 L 207 250 L 209 249 L 209 248 L 209 247 L 209 247 L 215 246 L 215 245 L 215 244 L 218 243 L 218 243 L 222 242 L 226 241 L 227 240 L 230 240 L 232 239 L 235 238 L 235 237 L 236 237 L 240 236 L 240 235 L 242 234 L 244 233 L 245 233 L 246 232 L 246 231 L 247 230 L 247 230 L 249 229 L 251 228 L 251 227 L 252 227 L 253 226 L 253 225 L 255 224 L 258 223 L 260 223 L 263 222 L 265 221 L 266 220 L 268 220 L 268 219 L 268 218 L 271 217 L 282 217 L 282 216 L 284 215 L 294 214 L 294 214 L 294 213 L 295 212 L 295 211 L 297 210 L 300 210 L 302 209 L 302 208 L 314 207 L 317 207 L 320 206 L 324 205 L 326 204 L 326 204 L 328 203 L 337 202 L 346 201 L 358 200 L 359 200 L 359 199 L 359 198 L 360 197 L 362 197 L 377 196 L 384 195 L 384 194 L 390 194 L 391 193 L 392 192 L 408 191 L 408 190 L 409 190 L 410 189 L 412 188 L 417 187 L 419 187 L 422 186 L 424 185 L 428 184 L 437 184 L 437 183 L 439 182 L 439 181 L 440 181 L 440 180 L 445 179 L 455 178 L 475 177 L 483 177 L 483 176 L 487 175 L 487 174 L 490 174 L 492 173 L 492 172 L 492 171 L 492 171 L 492 170 L 492 169 L 492 168 L 492 167 L 493 167 L 493 166 L 493 165 L 493 164 L 493 164 L 494 163 L 494 162 L 495 161 L 497 161 L 498 160 L 498 159 L 498 158 L 499 157 L 501 157 L 501 156 L 501 155 L 501 154 L 501 154 L 501 153 L 501 152 L 503 151 L 504 151 L 505 150 L 505 149 L 505 148 L 506 148 L 506 147 L 507 146 L 507 145 L 508 144 L 508 144 L 509 143 L 510 142 L 510 141 L 512 141 L 514 140 L 515 139 L 517 138 L 521 138 L 521 137 L 522 136 L 523 135 L 523 134 L 523 134 L 523 133 L 526 132 L 527 131 L 530 131 L 530 130 L 531 129 L 534 128 L 537 128 L 537 127 L 541 126 L 542 125 L 543 124 L 545 124 L 545 123 L 552 122 L 554 121 L 554 121 L 560 120 L 563 119 L 569 118 L 571 118 L 572 117 L 573 116 L 574 115 L 574 115 L 579 114 L 582 113 L 585 112 L 586 111 L 588 111 L 590 110 L 590 109 L 590 108 L 590 108 L 591 107 L 591 106 L 592 105 L 594 105 L 594 104 L 594 103 L 595 102 L 603 101 L 612 101 L 612 100 L 612 99 L 618 98 L 621 98 L 622 97 L 623 96 L 625 95 L 627 95 L 627 94 L 627 93 L 627 92 L 627 91 L 628 91 L 628 90 L 629 89 L 629 88 L 630 88 L 634 87 L 634 86 L 634 85 L 634 85 L 635 84 L 635 83 L 635 82 L 635 82 L 635 81 L 635 80 L 636 79 L 636 78 L 636 78 L 638 77 L 643 76 L 647 75 L 647 75 L 649 74 L 657 73 L 667 72 L 669 72 L 674 71 L 678 70 L 689 69 L 693 68 L 697 68 L 697 67 L 697 66 L 697 65 L 698 65 L 698 64 L 698 63 L 698 62 L 700 62 L 702 61 L 716 60 L 719 59 L 724 58 L 735 58 L 743 57 L 749 56 L 753 55 L 761 55 L 761 54 L 777 53 L 793 52 L 793 52 L 804 51 L 804 50 L 813 49 L 815 49 L 820 48 L 820 47 L 821 46 L 821 45 L 826 45 L 828 44 L 833 43 L 839 42 L 840 42 L 842 41 L 843 40 L 849 39 L 855 39 L 855 38 L 862 37 L 869 36 L 870 35 L 870 35 L 873 34 L 875 33 L 876 32 L 882 32 L 886 31 L 891 30 L 892 29 L 895 29 L 895 28 L 903 27 L 905 26 L 910 25 L 917 25 L 918 24 L 926 23 L 927 22 L 927 22 L 930 21 L 931 20 L 935 19 L 935 19 L 939 18 L 944 17 L 945 16 L 945 16"></path><path stroke-width="2" d="M 945 346 L 945.000000 15.000000" /><path stroke-width="2" d="M 945 346 L 945.000000 15.000000"></path><path stroke-width="2" d="M 945 346 L 950 346" /><path stroke-width="2" d="M 945 346 L 950 346"></path><text xmlns="http://www.w3.org/2000/svg" x="955" y="352">0</text><path stroke-width="2" d="M 945 309 L 950 309" /><path d="M 945 309 L 950 309" stroke-width="2"></path><text xmlns="http://www.w3.org/2000/svg" x="955" y="315">48</text><path stroke-width="2" d="M 945 272 L 950 272" /><path stroke-width="2" d="M 945 272 L 950 272"></path><text xmlns="http://www.w3.org/2000/svg" x="955" y="278">96</text><path stroke-width="2" d="M 945 235 L 950 235" /><path stroke-width="2" d="M 945 235 L 950 235"></path><text xmlns="http://www.w3.org/2000/svg" x="955" y="241">144</text><path stroke-width="2" d="M 945 198 L 950 198" /><path stroke-width="2" d="M 945 198 L 950 198"></path><text y="204" xmlns="http://www.w3.org/2000/svg" x="955">192</text><path d="M 945 162 L 950 162" stroke-width="2" /><path d="M 945 162 L 950 162" stroke-width="2"></path><text x="955" y="168" xmlns="http://www.w3.org/2000/svg">239</text><path d="M 945 125 L 950 125" stroke-width="2" /><path d="M 945 125 L 950 125" stroke-width="2"></path><text xmlns="http://www.w3.org/2000/svg" x="955" y="131">287</text><path d="M 945 88 L 950 88" stroke-width="2" /><path stroke-width="2" d="M 945 88 L 950 88"></path><text x="955" y="94" xmlns="http://www.w3.org/2000/svg">335</text><path stroke-width="2" d="M 945 52 L 950 52" /><path stroke-width="2" d="M 945 52 L 950 52"></path><text x="955" y="58" xmlns="http://www.w3.org/2000/svg">383</text><path stroke-width="2" d="M 945 16 L 950 16" /><path stroke-width="2" d="M 945 16 L 950 16"></path><text x="955" y="22" xmlns="http://www.w3.org/2000/svg">430</text><text y="175" transform="rotate(90.00,987,175)" xmlns="http://www.w3.org/2000/svg" x="987">Stargazers</text><path stroke-width="2" d="M 57.000000 346.000000 L 945 346" /><path stroke-width="2" d="M 57.000000 346.000000 L 945 346"></path><path stroke-width="2" d="M 58 346 L 58 351" /><path stroke-width="2" d="M 58 346 L 58 351"></path><text y="368" xmlns="http://www.w3.org/2000/svg" x="25">2023-04-02</text><path stroke-width="2" d="M 157 346 L 157 351" /><path stroke-width="2" d="M 157 346 L 157 351"></path><text xmlns="http://www.w3.org/2000/svg" x="124" y="368">2023-05-16</text><path stroke-width="2" d="M 256 346 L 256 351" /><path stroke-width="2" d="M 256 346 L 256 351"></path><text xmlns="http://www.w3.org/2000/svg" x="223" y="368">2023-06-30</text><path stroke-width="2" d="M 354 346 L 354 351" /><path stroke-width="2" d="M 354 346 L 354 351"></path><text xmlns="http://www.w3.org/2000/svg" x="321" y="368">2023-08-14</text><path stroke-width="2" d="M 453 346 L 453 351" /><path d="M 453 346 L 453 351" stroke-width="2"></path><text xmlns="http://www.w3.org/2000/svg" x="420" y="368">2023-09-27</text><path stroke-width="2" d="M 551 346 L 551 351" /><path stroke-width="2" d="M 551 346 L 551 351"></path><text xmlns="http://www.w3.org/2000/svg" x="518" y="368">2023-11-11</text><path stroke-width="2" d="M 650 346 L 650 351" /><path stroke-width="2" d="M 650 346 L 650 351"></path><text xmlns="http://www.w3.org/2000/svg" x="617" y="368">2023-12-25</text><path stroke-width="2" d="M 748 346 L 748 351" /><path stroke-width="2" d="M 748 346 L 748 351"></path><text xmlns="http://www.w3.org/2000/svg" x="715" y="368">2024-02-08</text><path stroke-width="2" d="M 847 346 L 847 351" /><path stroke-width="2" d="M 847 346 L 847 351"></path><text x="814" y="368" xmlns="http://www.w3.org/2000/svg">2024-03-23</text><path stroke-width="2" d="M 945 346 L 945 351" /><path d="M 945 346 L 945 351" stroke-width="2"></path><text xmlns="http://www.w3.org/2000/svg" x="912" y="368">2024-05-07</text><text xmlns="http://www.w3.org/2000/svg" x="487" y="390">Time</text></svg>