<svg xmlns="http://www.w3.org/2000/svg" xmlns:xlink="http://www.w3.org/1999/xlink" width="1024px" height="400px"><style type="text/css">
path { fill: none; stroke: rgb(51,51,51); }
path.series { stroke: #6b63ff; }
rect.background { fill: rgb(255,255,255); stroke: none; }

text {
	stroke-width: 0;
	stroke: none;
	fill: rgba(51,51,51,1.0);
	font-size: 12.8px;
	font-family: 'Roboto Medium', sans-serif;
}
</style><rect y="0" width="1024px" height="400px" class="background" rx="8" x="0" /><rect class="background" rx="8" x="0" y="0" width="1024px" height="400px"></rect><path stroke-width="2" class="series" d="M 58 345 L 61 345 L 74 345 L 74 344 L 74 344 L 74 344 L 74 343 L 74 343 L 74 343 L 74 342 L 75 342 L 75 342 L 75 341 L 75 341 L 75 341 L 75 340 L 75 340 L 75 340 L 75 339 L 76 339 L 76 339 L 77 338 L 78 338 L 78 338 L 78 337 L 78 337 L 79 337 L 80 336 L 81 336 L 81 336 L 82 335 L 83 335 L 87 335 L 87 334 L 87 334 L 88 334 L 88 333 L 90 333 L 91 333 L 92 332 L 94 332 L 97 332 L 99 331 L 105 331 L 107 331 L 110 330 L 113 330 L 115 330 L 127 329 L 128 329 L 128 329 L 130 328 L 130 328 L 130 328 L 130 327 L 130 327 L 130 327 L 130 326 L 130 326 L 130 326 L 130 325 L 130 325 L 130 325 L 131 324 L 131 324 L 131 324 L 131 323 L 131 323 L 131 323 L 131 322 L 131 322 L 131 322 L 131 321 L 131 321 L 131 321 L 131 320 L 131 320 L 131 320 L 131 319 L 131 319 L 131 319 L 131 318 L 131 318 L 131 318 L 131 317 L 131 317 L 131 317 L 131 316 L 131 316 L 131 316 L 131 315 L 131 315 L 131 315 L 131 314 L 131 314 L 131 314 L 131 313 L 131 313 L 131 313 L 132 312 L 132 312 L 132 312 L 132 311 L 132 311 L 132 311 L 133 310 L 133 310 L 133 310 L 133 309 L 133 309 L 133 309 L 133 308 L 133 308 L 133 308 L 133 307 L 133 307 L 133 307 L 133 306 L 133 306 L 133 306 L 133 305 L 133 305 L 134 305 L 134 304 L 134 304 L 135 304 L 135 303 L 138 303 L 138 303 L 138 302 L 139 302 L 139 302 L 141 301 L 143 301 L 144 301 L 145 300 L 146 300 L 148 300 L 148 299 L 148 299 L 150 299 L 150 298 L 151 298 L 152 298 L 153 297 L 153 297 L 154 296 L 154 296 L 154 296 L 155 296 L 156 295 L 156 295 L 157 295 L 157 294 L 157 294 L 158 294 L 159 293 L 160 293 L 162 293 L 163 292 L 163 292 L 164 292 L 164 291 L 165 291 L 166 291 L 171 290 L 172 290 L 172 290 L 178 289 L 178 289 L 178 289 L 178 288 L 178 288 L 179 288 L 181 287 L 181 287 L 182 286 L 188 286 L 189 286 L 191 286 L 193 285 L 194 285 L 194 285 L 195 284 L 199 284 L 204 284 L 210 283 L 210 283 L 210 283 L 210 282 L 211 282 L 212 282 L 219 281 L 223 281 L 223 281 L 226 280 L 227 280 L 227 280 L 235 279 L 235 279 L 236 279 L 236 278 L 237 278 L 240 278 L 241 277 L 242 277 L 243 277 L 245 276 L 250 276 L 250 276 L 251 275 L 251 275 L 251 275 L 252 274 L 254 274 L 259 274 L 269 273 L 273 273 L 275 273 L 275 272 L 277 272 L 278 272 L 278 271 L 278 271 L 278 271 L 278 270 L 278 270 L 278 270 L 278 269 L 278 269 L 278 269 L 278 268 L 278 268 L 278 268 L 279 267 L 279 267 L 281 267 L 281 266 L 281 266 L 281 266 L 282 265 L 282 265 L 282 265 L 282 264 L 282 264 L 282 264 L 282 263 L 283 263 L 284 263 L 284 262 L 284 262 L 284 262 L 285 261 L 285 261 L 285 261 L 286 260 L 286 260 L 286 260 L 286 259 L 287 259 L 287 259 L 288 258 L 289 258 L 289 258 L 290 257 L 292 257 L 292 257 L 293 256 L 293 256 L 293 256 L 293 255 L 293 255 L 295 255 L 295 254 L 297 254 L 297 254 L 298 253 L 299 253 L 300 253 L 300 252 L 303 252 L 303 252 L 303 251 L 304 251 L 304 250 L 308 250 L 309 250 L 309 250 L 312 249 L 314 249 L 317 249 L 318 248 L 318 248 L 319 247 L 319 247 L 319 247 L 322 247 L 323 246 L 325 246 L 325 246 L 326 245 L 327 245 L 327 245 L 327 244 L 327 244 L 328 244 L 328 243 L 328 243 L 329 243 L 329 242 L 329 242 L 330 242 L 334 241 L 338 241 L 338 241 L 338 240 L 341 240 L 343 240 L 343 239 L 344 239 L 345 239 L 346 238 L 346 238 L 346 238 L 346 237 L 346 237 L 346 237 L 346 236 L 347 236 L 347 236 L 347 235 L 349 235 L 349 235 L 349 234 L 350 234 L 350 234 L 350 233 L 350 233 L 350 233 L 350 232 L 350 232 L 350 232 L 350 231 L 350 231 L 354 230 L 356 230 L 356 230 L 357 230 L 366 229 L 367 229 L 370 229 L 372 228 L 379 228 L 381 227 L 381 227 L 381 227 L 381 227 L 382 226 L 382 226 L 382 226 L 383 225 L 384 225 L 391 225 L 393 224 L 395 224 L 401 224 L 404 223 L 407 223 L 410 223 L 413 222 L 414 222 L 422 222 L 430 221 L 430 221 L 435 221 L 436 220 L 440 220 L 441 220 L 443 219 L 443 219 L 444 219 L 444 218 L 447 218 L 448 218 L 450 217 L 453 217 L 454 217 L 455 216 L 455 216 L 458 216 L 461 215 L 461 215 L 465 215 L 468 214 L 469 214 L 469 214 L 470 213 L 471 213 L 472 213 L 475 212 L 477 212 L 479 212 L 481 211 L 481 211 L 486 211 L 487 210 L 489 210 L 493 210 L 493 209 L 497 209 L 498 209 L 498 208 L 499 208 L 499 208 L 501 207 L 502 207 L 503 207 L 506 206 L 507 206 L 507 206 L 507 205 L 514 205 L 514 205 L 515 204 L 515 204 L 515 204 L 516 203 L 516 203 L 516 203 L 517 202 L 518 202 L 518 202 L 520 201 L 520 201 L 521 201 L 521 200 L 522 200 L 522 200 L 523 199 L 523 199 L 523 199 L 524 198 L 524 198 L 524 198 L 524 197 L 525 197 L 526 197 L 526 196 L 527 196 L 527 196 L 527 195 L 529 195 L 530 195 L 530 194 L 530 194 L 532 194 L 533 193 L 533 193 L 533 193 L 534 192 L 535 192 L 535 192 L 535 191 L 536 191 L 536 191 L 536 190 L 536 190 L 537 190 L 537 189 L 538 189 L 541 189 L 542 188 L 543 188 L 543 188 L 545 187 L 547 187 L 547 187 L 549 186 L 551 186 L 553 186 L 555 185 L 556 185 L 556 185 L 556 184 L 556 184 L 557 184 L 557 183 L 557 183 L 558 183 L 558 182 L 558 182 L 559 182 L 560 181 L 561 181 L 561 181 L 562 180 L 562 180 L 564 180 L 564 179 L 565 179 L 565 179 L 566 178 L 568 178 L 574 178 L 574 177 L 574 177 L 574 177 L 576 176 L 578 176 L 579 176 L 579 175 L 579 175 L 579 175 L 581 174 L 583 174 L 584 174 L 584 173 L 584 173 L 586 172 L 586 172 L 586 172 L 586 172 L 589 171 L 592 171 L 592 171 L 596 170 L 596 170 L 596 170 L 600 169 L 601 169 L 603 169 L 605 168 L 606 168 L 607 168 L 607 167 L 607 167 L 608 166 L 608 166 L 608 166 L 609 166 L 609 165 L 609 165 L 610 165 L 610 164 L 610 164 L 611 164 L 612 163 L 612 163 L 617 163 L 617 162 L 621 162 L 623 162 L 623 161 L 624 161 L 625 161 L 628 160 L 628 160 L 628 160 L 629 159 L 629 159 L 629 159 L 629 158 L 629 158 L 630 158 L 630 157 L 630 157 L 630 157 L 630 156 L 631 156 L 631 155 L 632 155 L 633 155 L 633 155 L 634 154 L 635 154 L 635 154 L 635 153 L 635 153 L 637 153 L 639 152 L 639 152 L 639 152 L 639 151 L 639 151 L 640 151 L 640 150 L 640 150 L 641 149 L 643 149 L 646 149 L 648 149 L 649 148 L 651 148 L 654 148 L 657 147 L 657 147 L 660 147 L 663 146 L 663 146 L 663 146 L 668 145 L 669 145 L 670 145 L 670 144 L 670 144 L 678 144 L 678 143 L 679 143 L 679 143 L 680 142 L 680 142 L 681 142 L 682 141 L 682 141 L 683 141 L 683 140 L 683 140 L 684 140 L 684 139 L 684 139 L 684 139 L 684 138 L 684 138 L 684 138 L 686 137 L 687 137 L 688 137 L 688 136 L 688 136 L 689 136 L 690 135 L 690 135 L 691 135 L 692 134 L 692 134 L 692 134 L 692 133 L 693 133 L 694 132 L 695 132 L 695 132 L 696 132 L 697 131 L 697 131 L 697 131 L 697 130 L 697 130 L 698 130 L 698 129 L 699 129 L 700 129 L 700 128 L 701 128 L 701 128 L 701 127 L 702 127 L 702 126 L 702 126 L 703 126 L 703 126 L 703 125 L 704 125 L 704 125 L 704 124 L 705 124 L 705 124 L 705 123 L 705 123 L 705 123 L 705 122 L 706 122 L 706 122 L 706 121 L 706 121 L 706 121 L 708 120 L 709 120 L 712 120 L 712 119 L 712 119 L 712 119 L 713 118 L 714 118 L 714 118 L 715 117 L 717 117 L 719 117 L 720 116 L 721 116 L 722 115 L 722 115 L 723 115 L 723 115 L 723 114 L 723 114 L 723 114 L 723 113 L 723 113 L 724 113 L 724 112 L 724 112 L 724 112 L 724 111 L 724 111 L 725 111 L 725 110 L 725 110 L 726 109 L 727 109 L 728 109 L 728 109 L 729 108 L 729 108 L 730 108 L 730 107 L 731 107 L 734 107 L 734 106 L 734 106 L 734 106 L 734 105 L 737 105 L 738 105 L 739 104 L 741 104 L 741 104 L 741 103 L 741 103 L 742 103 L 746 102 L 748 102 L 751 102 L 752 101 L 753 101 L 754 101 L 755 100 L 755 100 L 756 100 L 756 99 L 756 99 L 757 98 L 757 98 L 758 98 L 759 98 L 761 97 L 761 97 L 761 97 L 761 96 L 761 96 L 761 96 L 761 95 L 761 95 L 761 95 L 761 94 L 761 94 L 761 94 L 761 93 L 761 93 L 761 92 L 761 92 L 761 92 L 762 92 L 762 91 L 762 91 L 762 91 L 762 90 L 762 90 L 762 90 L 763 89 L 763 89 L 763 89 L 764 88 L 764 88 L 764 88 L 764 87 L 764 87 L 764 87 L 765 86 L 767 86 L 769 86 L 769 85 L 769 85 L 770 85 L 770 84 L 771 84 L 771 84 L 773 83 L 774 83 L 775 83 L 775 82 L 775 82 L 775 82 L 775 81 L 775 81 L 775 81 L 777 80 L 778 80 L 778 80 L 781 79 L 783 79 L 784 79 L 787 78 L 788 78 L 789 78 L 789 77 L 789 77 L 789 77 L 789 76 L 790 76 L 790 76 L 791 75 L 791 75 L 792 75 L 792 74 L 792 74 L 792 74 L 792 73 L 792 73 L 792 73 L 793 72 L 793 72 L 793 72 L 793 71 L 795 71 L 795 71 L 796 70 L 796 70 L 796 70 L 797 69 L 797 69 L 798 69 L 798 68 L 798 68 L 799 68 L 799 67 L 800 67 L 804 67 L 804 66 L 805 66 L 808 66 L 809 65 L 810 65 L 813 65 L 813 64 L 814 64 L 817 64 L 822 63 L 822 63 L 824 63 L 826 62 L 828 62 L 828 62 L 828 61 L 830 61 L 831 61 L 832 60 L 832 60 L 834 60 L 835 59 L 836 59 L 836 59 L 837 58 L 837 58 L 837 58 L 838 57 L 841 57 L 842 57 L 842 56 L 844 56 L 844 56 L 845 55 L 846 55 L 847 55 L 847 54 L 847 54 L 847 54 L 848 53 L 849 53 L 849 53 L 850 52 L 851 52 L 852 52 L 852 51 L 853 51 L 853 51 L 854 50 L 854 50 L 854 50 L 855 49 L 855 49 L 855 49 L 855 48 L 855 48 L 856 48 L 858 47 L 859 47 L 860 47 L 860 46 L 863 46 L 864 46 L 865 45 L 866 45 L 869 45 L 871 44 L 873 44 L 874 44 L 875 43 L 876 43 L 877 43 L 880 42 L 881 42 L 882 42 L 882 41 L 882 41 L 882 41 L 882 40 L 882 40 L 883 40 L 884 39 L 885 39 L 886 39 L 886 38 L 886 38 L 893 38 L 893 37 L 894 37 L 896 37 L 898 36 L 899 36 L 899 36 L 900 35 L 900 35 L 900 35 L 901 34 L 902 34 L 902 34 L 903 33 L 903 33 L 903 33 L 904 32 L 904 32 L 905 32 L 906 31 L 909 31 L 909 31 L 914 30 L 915 30 L 915 30 L 917 29 L 917 29 L 918 29 L 918 28 L 918 28 L 921 28 L 922 27 L 924 27 L 924 27 L 924 26 L 925 26 L 926 26 L 928 25 L 930 25 L 930 25 L 930 24 L 930 24 L 931 24 L 931 23 L 931 23 L 932 23 L 933 22 L 933 22 L 935 22 L 935 21 L 936 21 L 937 21 L 937 20 L 937 20 L 937 20 L 938 19 L 941 19 L 945 19" /><path class="series" d="M 58 345 L 61 345 L 74 345 L 74 344 L 74 344 L 74 344 L 74 343 L 74 343 L 74 343 L 74 342 L 75 342 L 75 342 L 75 341 L 75 341 L 75 341 L 75 340 L 75 340 L 75 340 L 75 339 L 76 339 L 76 339 L 77 338 L 78 338 L 78 338 L 78 337 L 78 337 L 79 337 L 80 336 L 81 336 L 81 336 L 82 335 L 83 335 L 87 335 L 87 334 L 87 334 L 88 334 L 88 333 L 90 333 L 91 333 L 92 332 L 94 332 L 97 332 L 99 331 L 105 331 L 107 331 L 110 330 L 113 330 L 115 330 L 127 329 L 128 329 L 128 329 L 130 328 L 130 328 L 130 328 L 130 327 L 130 327 L 130 327 L 130 326 L 130 326 L 130 326 L 130 325 L 130 325 L 130 325 L 131 324 L 131 324 L 131 324 L 131 323 L 131 323 L 131 323 L 131 322 L 131 322 L 131 322 L 131 321 L 131 321 L 131 321 L 131 320 L 131 320 L 131 320 L 131 319 L 131 319 L 131 319 L 131 318 L 131 318 L 131 318 L 131 317 L 131 317 L 131 317 L 131 316 L 131 316 L 131 316 L 131 315 L 131 315 L 131 315 L 131 314 L 131 314 L 131 314 L 131 313 L 131 313 L 131 313 L 132 312 L 132 312 L 132 312 L 132 311 L 132 311 L 132 311 L 133 310 L 133 310 L 133 310 L 133 309 L 133 309 L 133 309 L 133 308 L 133 308 L 133 308 L 133 307 L 133 307 L 133 307 L 133 306 L 133 306 L 133 306 L 133 305 L 133 305 L 134 305 L 134 304 L 134 304 L 135 304 L 135 303 L 138 303 L 138 303 L 138 302 L 139 302 L 139 302 L 141 301 L 143 301 L 144 301 L 145 300 L 146 300 L 148 300 L 148 299 L 148 299 L 150 299 L 150 298 L 151 298 L 152 298 L 153 297 L 153 297 L 154 296 L 154 296 L 154 296 L 155 296 L 156 295 L 156 295 L 157 295 L 157 294 L 157 294 L 158 294 L 159 293 L 160 293 L 162 293 L 163 292 L 163 292 L 164 292 L 164 291 L 165 291 L 166 291 L 171 290 L 172 290 L 172 290 L 178 289 L 178 289 L 178 289 L 178 288 L 178 288 L 179 288 L 181 287 L 181 287 L 182 286 L 188 286 L 189 286 L 191 286 L 193 285 L 194 285 L 194 285 L 195 284 L 199 284 L 204 284 L 210 283 L 210 283 L 210 283 L 210 282 L 211 282 L 212 282 L 219 281 L 223 281 L 223 281 L 226 280 L 227 280 L 227 280 L 235 279 L 235 279 L 236 279 L 236 278 L 237 278 L 240 278 L 241 277 L 242 277 L 243 277 L 245 276 L 250 276 L 250 276 L 251 275 L 251 275 L 251 275 L 252 274 L 254 274 L 259 274 L 269 273 L 273 273 L 275 273 L 275 272 L 277 272 L 278 272 L 278 271 L 278 271 L 278 271 L 278 270 L 278 270 L 278 270 L 278 269 L 278 269 L 278 269 L 278 268 L 278 268 L 278 268 L 279 267 L 279 267 L 281 267 L 281 266 L 281 266 L 281 266 L 282 265 L 282 265 L 282 265 L 282 264 L 282 264 L 282 264 L 282 263 L 283 263 L 284 263 L 284 262 L 284 262 L 284 262 L 285 261 L 285 261 L 285 261 L 286 260 L 286 260 L 286 260 L 286 259 L 287 259 L 287 259 L 288 258 L 289 258 L 289 258 L 290 257 L 292 257 L 292 257 L 293 256 L 293 256 L 293 256 L 293 255 L 293 255 L 295 255 L 295 254 L 297 254 L 297 254 L 298 253 L 299 253 L 300 253 L 300 252 L 303 252 L 303 252 L 303 251 L 304 251 L 304 250 L 308 250 L 309 250 L 309 250 L 312 249 L 314 249 L 317 249 L 318 248 L 318 248 L 319 247 L 319 247 L 319 247 L 322 247 L 323 246 L 325 246 L 325 246 L 326 245 L 327 245 L 327 245 L 327 244 L 327 244 L 328 244 L 328 243 L 328 243 L 329 243 L 329 242 L 329 242 L 330 242 L 334 241 L 338 241 L 338 241 L 338 240 L 341 240 L 343 240 L 343 239 L 344 239 L 345 239 L 346 238 L 346 238 L 346 238 L 346 237 L 346 237 L 346 237 L 346 236 L 347 236 L 347 236 L 347 235 L 349 235 L 349 235 L 349 234 L 350 234 L 350 234 L 350 233 L 350 233 L 350 233 L 350 232 L 350 232 L 350 232 L 350 231 L 350 231 L 354 230 L 356 230 L 356 230 L 357 230 L 366 229 L 367 229 L 370 229 L 372 228 L 379 228 L 381 227 L 381 227 L 381 227 L 381 227 L 382 226 L 382 226 L 382 226 L 383 225 L 384 225 L 391 225 L 393 224 L 395 224 L 401 224 L 404 223 L 407 223 L 410 223 L 413 222 L 414 222 L 422 222 L 430 221 L 430 221 L 435 221 L 436 220 L 440 220 L 441 220 L 443 219 L 443 219 L 444 219 L 444 218 L 447 218 L 448 218 L 450 217 L 453 217 L 454 217 L 455 216 L 455 216 L 458 216 L 461 215 L 461 215 L 465 215 L 468 214 L 469 214 L 469 214 L 470 213 L 471 213 L 472 213 L 475 212 L 477 212 L 479 212 L 481 211 L 481 211 L 486 211 L 487 210 L 489 210 L 493 210 L 493 209 L 497 209 L 498 209 L 498 208 L 499 208 L 499 208 L 501 207 L 502 207 L 503 207 L 506 206 L 507 206 L 507 206 L 507 205 L 514 205 L 514 205 L 515 204 L 515 204 L 515 204 L 516 203 L 516 203 L 516 203 L 517 202 L 518 202 L 518 202 L 520 201 L 520 201 L 521 201 L 521 200 L 522 200 L 522 200 L 523 199 L 523 199 L 523 199 L 524 198 L 524 198 L 524 198 L 524 197 L 525 197 L 526 197 L 526 196 L 527 196 L 527 196 L 527 195 L 529 195 L 530 195 L 530 194 L 530 194 L 532 194 L 533 193 L 533 193 L 533 193 L 534 192 L 535 192 L 535 192 L 535 191 L 536 191 L 536 191 L 536 190 L 536 190 L 537 190 L 537 189 L 538 189 L 541 189 L 542 188 L 543 188 L 543 188 L 545 187 L 547 187 L 547 187 L 549 186 L 551 186 L 553 186 L 555 185 L 556 185 L 556 185 L 556 184 L 556 184 L 557 184 L 557 183 L 557 183 L 558 183 L 558 182 L 558 182 L 559 182 L 560 181 L 561 181 L 561 181 L 562 180 L 562 180 L 564 180 L 564 179 L 565 179 L 565 179 L 566 178 L 568 178 L 574 178 L 574 177 L 574 177 L 574 177 L 576 176 L 578 176 L 579 176 L 579 175 L 579 175 L 579 175 L 581 174 L 583 174 L 584 174 L 584 173 L 584 173 L 586 172 L 586 172 L 586 172 L 586 172 L 589 171 L 592 171 L 592 171 L 596 170 L 596 170 L 596 170 L 600 169 L 601 169 L 603 169 L 605 168 L 606 168 L 607 168 L 607 167 L 607 167 L 608 166 L 608 166 L 608 166 L 609 166 L 609 165 L 609 165 L 610 165 L 610 164 L 610 164 L 611 164 L 612 163 L 612 163 L 617 163 L 617 162 L 621 162 L 623 162 L 623 161 L 624 161 L 625 161 L 628 160 L 628 160 L 628 160 L 629 159 L 629 159 L 629 159 L 629 158 L 629 158 L 630 158 L 630 157 L 630 157 L 630 157 L 630 156 L 631 156 L 631 155 L 632 155 L 633 155 L 633 155 L 634 154 L 635 154 L 635 154 L 635 153 L 635 153 L 637 153 L 639 152 L 639 152 L 639 152 L 639 151 L 639 151 L 640 151 L 640 150 L 640 150 L 641 149 L 643 149 L 646 149 L 648 149 L 649 148 L 651 148 L 654 148 L 657 147 L 657 147 L 660 147 L 663 146 L 663 146 L 663 146 L 668 145 L 669 145 L 670 145 L 670 144 L 670 144 L 678 144 L 678 143 L 679 143 L 679 143 L 680 142 L 680 142 L 681 142 L 682 141 L 682 141 L 683 141 L 683 140 L 683 140 L 684 140 L 684 139 L 684 139 L 684 139 L 684 138 L 684 138 L 684 138 L 686 137 L 687 137 L 688 137 L 688 136 L 688 136 L 689 136 L 690 135 L 690 135 L 691 135 L 692 134 L 692 134 L 692 134 L 692 133 L 693 133 L 694 132 L 695 132 L 695 132 L 696 132 L 697 131 L 697 131 L 697 131 L 697 130 L 697 130 L 698 130 L 698 129 L 699 129 L 700 129 L 700 128 L 701 128 L 701 128 L 701 127 L 702 127 L 702 126 L 702 126 L 703 126 L 703 126 L 703 125 L 704 125 L 704 125 L 704 124 L 705 124 L 705 124 L 705 123 L 705 123 L 705 123 L 705 122 L 706 122 L 706 122 L 706 121 L 706 121 L 706 121 L 708 120 L 709 120 L 712 120 L 712 119 L 712 119 L 712 119 L 713 118 L 714 118 L 714 118 L 715 117 L 717 117 L 719 117 L 720 116 L 721 116 L 722 115 L 722 115 L 723 115 L 723 115 L 723 114 L 723 114 L 723 114 L 723 113 L 723 113 L 724 113 L 724 112 L 724 112 L 724 112 L 724 111 L 724 111 L 725 111 L 725 110 L 725 110 L 726 109 L 727 109 L 728 109 L 728 109 L 729 108 L 729 108 L 730 108 L 730 107 L 731 107 L 734 107 L 734 106 L 734 106 L 734 106 L 734 105 L 737 105 L 738 105 L 739 104 L 741 104 L 741 104 L 741 103 L 741 103 L 742 103 L 746 102 L 748 102 L 751 102 L 752 101 L 753 101 L 754 101 L 755 100 L 755 100 L 756 100 L 756 99 L 756 99 L 757 98 L 757 98 L 758 98 L 759 98 L 761 97 L 761 97 L 761 97 L 761 96 L 761 96 L 761 96 L 761 95 L 761 95 L 761 95 L 761 94 L 761 94 L 761 94 L 761 93 L 761 93 L 761 92 L 761 92 L 761 92 L 762 92 L 762 91 L 762 91 L 762 91 L 762 90 L 762 90 L 762 90 L 763 89 L 763 89 L 763 89 L 764 88 L 764 88 L 764 88 L 764 87 L 764 87 L 764 87 L 765 86 L 767 86 L 769 86 L 769 85 L 769 85 L 770 85 L 770 84 L 771 84 L 771 84 L 773 83 L 774 83 L 775 83 L 775 82 L 775 82 L 775 82 L 775 81 L 775 81 L 775 81 L 777 80 L 778 80 L 778 80 L 781 79 L 783 79 L 784 79 L 787 78 L 788 78 L 789 78 L 789 77 L 789 77 L 789 77 L 789 76 L 790 76 L 790 76 L 791 75 L 791 75 L 792 75 L 792 74 L 792 74 L 792 74 L 792 73 L 792 73 L 792 73 L 793 72 L 793 72 L 793 72 L 793 71 L 795 71 L 795 71 L 796 70 L 796 70 L 796 70 L 797 69 L 797 69 L 798 69 L 798 68 L 798 68 L 799 68 L 799 67 L 800 67 L 804 67 L 804 66 L 805 66 L 808 66 L 809 65 L 810 65 L 813 65 L 813 64 L 814 64 L 817 64 L 822 63 L 822 63 L 824 63 L 826 62 L 828 62 L 828 62 L 828 61 L 830 61 L 831 61 L 832 60 L 832 60 L 834 60 L 835 59 L 836 59 L 836 59 L 837 58 L 837 58 L 837 58 L 838 57 L 841 57 L 842 57 L 842 56 L 844 56 L 844 56 L 845 55 L 846 55 L 847 55 L 847 54 L 847 54 L 847 54 L 848 53 L 849 53 L 849 53 L 850 52 L 851 52 L 852 52 L 852 51 L 853 51 L 853 51 L 854 50 L 854 50 L 854 50 L 855 49 L 855 49 L 855 49 L 855 48 L 855 48 L 856 48 L 858 47 L 859 47 L 860 47 L 860 46 L 863 46 L 864 46 L 865 45 L 866 45 L 869 45 L 871 44 L 873 44 L 874 44 L 875 43 L 876 43 L 877 43 L 880 42 L 881 42 L 882 42 L 882 41 L 882 41 L 882 41 L 882 40 L 882 40 L 883 40 L 884 39 L 885 39 L 886 39 L 886 38 L 886 38 L 893 38 L 893 37 L 894 37 L 896 37 L 898 36 L 899 36 L 899 36 L 900 35 L 900 35 L 900 35 L 901 34 L 902 34 L 902 34 L 903 33 L 903 33 L 903 33 L 904 32 L 904 32 L 905 32 L 906 31 L 909 31 L 909 31 L 914 30 L 915 30 L 915 30 L 917 29 L 917 29 L 918 29 L 918 28 L 918 28 L 921 28 L 922 27 L 924 27 L 924 27 L 924 26 L 925 26 L 926 26 L 928 25 L 930 25 L 930 25 L 930 24 L 930 24 L 931 24 L 931 23 L 931 23 L 932 23 L 933 22 L 933 22 L 935 22 L 935 21 L 936 21 L 937 21 L 937 20 L 937 20 L 937 20 L 938 19 L 941 19 L 945 19" stroke-width="2"></path><path stroke-width="2" d="M 945 346 L 945.000000 15.000000" /><path stroke-width="2" d="M 945 346 L 945.000000 15.000000"></path><path stroke-width="2" d="M 945 346 L 950 346" /><path stroke-width="2" d="M 945 346 L 950 346"></path><text xmlns="http://www.w3.org/2000/svg" x="955" y="352">0</text><path stroke-width="2" d="M 945 309 L 950 309" /><path stroke-width="2" d="M 945 309 L 950 309"></path><text xmlns="http://www.w3.org/2000/svg" x="955" y="315">110</text><path stroke-width="2" d="M 945 272 L 950 272" /><path stroke-width="2" d="M 945 272 L 950 272"></path><text xmlns="http://www.w3.org/2000/svg" x="955" y="278">220</text><path stroke-width="2" d="M 945 236 L 950 236" /><path stroke-width="2" d="M 945 236 L 950 236"></path><text xmlns="http://www.w3.org/2000/svg" x="955" y="242">330</text><path stroke-width="2" d="M 945 199 L 950 199" /><path stroke-width="2" d="M 945 199 L 950 199"></path><text xmlns="http://www.w3.org/2000/svg" x="955" y="205">440</text><path stroke-width="2" d="M 945 162 L 950 162" /><path stroke-width="2" d="M 945 162 L 950 162"></path><text x="955" y="168" xmlns="http://www.w3.org/2000/svg">550</text><path stroke-width="2" d="M 945 126 L 950 126" /><path stroke-width="2" d="M 945 126 L 950 126"></path><text xmlns="http://www.w3.org/2000/svg" x="955" y="132">660</text><path stroke-width="2" d="M 945 89 L 950 89" /><path stroke-width="2" d="M 945 89 L 950 89"></path><text xmlns="http://www.w3.org/2000/svg" x="955" y="95">770</text><path stroke-width="2" d="M 945 52 L 950 52" /><path stroke-width="2" d="M 945 52 L 950 52"></path><text xmlns="http://www.w3.org/2000/svg" x="955" y="58">880</text><path stroke-width="2" d="M 945 16 L 950 16" /><path d="M 945 16 L 950 16" stroke-width="2"></path><text xmlns="http://www.w3.org/2000/svg" x="955" y="22">990</text><text y="175" transform="rotate(90.00,987,175)" xmlns="http://www.w3.org/2000/svg" x="987">Stargazers</text><path stroke-width="2" d="M 57.000000 346.000000 L 945 346" /><path stroke-width="2" d="M 57.000000 346.000000 L 945 346"></path><path stroke-width="2" d="M 58 346 L 58 351" /><path d="M 58 346 L 58 351" stroke-width="2"></path><text x="25" y="368" xmlns="http://www.w3.org/2000/svg">2023-04-02</text><path stroke-width="2" d="M 157 346 L 157 351" /><path stroke-width="2" d="M 157 346 L 157 351"></path><text y="368" xmlns="http://www.w3.org/2000/svg" x="124">2023-06-29</text><path stroke-width="2" d="M 256 346 L 256 351" /><path stroke-width="2" d="M 256 346 L 256 351"></path><text xmlns="http://www.w3.org/2000/svg" x="223" y="368">2023-09-25</text><path stroke-width="2" d="M 354 346 L 354 351" /><path stroke-width="2" d="M 354 346 L 354 351"></path><text xmlns="http://www.w3.org/2000/svg" x="321" y="368">2023-12-22</text><path stroke-width="2" d="M 453 346 L 453 351" /><path stroke-width="2" d="M 453 346 L 453 351"></path><text x="420" y="368" xmlns="http://www.w3.org/2000/svg">2024-03-19</text><path stroke-width="2" d="M 551 346 L 551 351" /><path stroke-width="2" d="M 551 346 L 551 351"></path><text xmlns="http://www.w3.org/2000/svg" x="518" y="368">2024-06-15</text><path stroke-width="2" d="M 650 346 L 650 351" /><path d="M 650 346 L 650 351" stroke-width="2"></path><text xmlns="http://www.w3.org/2000/svg" x="617" y="368">2024-09-11</text><path stroke-width="2" d="M 748 346 L 748 351" /><path stroke-width="2" d="M 748 346 L 748 351"></path><text x="715" y="368" xmlns="http://www.w3.org/2000/svg">2024-12-09</text><path stroke-width="2" d="M 847 346 L 847 351" /><path stroke-width="2" d="M 847 346 L 847 351"></path><text xmlns="http://www.w3.org/2000/svg" x="814" y="368">2025-03-07</text><path stroke-width="2" d="M 945 346 L 945 351" /><path stroke-width="2" d="M 945 346 L 945 351"></path><text xmlns="http://www.w3.org/2000/svg" x="912" y="368">2025-06-03</text><text xmlns="http://www.w3.org/2000/svg" x="487" y="390">Time</text></svg>