<svg xmlns="http://www.w3.org/2000/svg" xmlns:xlink="http://www.w3.org/1999/xlink" width="1024px" height="400px"><style type="text/css">
path { fill: none; stroke: rgb(51,51,51); }
path.series { stroke: #6b63ff; }
rect.background { fill: rgb(255,255,255); stroke: none; }

text {
	stroke-width: 0;
	stroke: none;
	fill: rgba(51,51,51,1.0);
	font-size: 12.8px;
	font-family: 'Roboto Medium', sans-serif;
}
</style><rect y="0" width="1024px" height="400px" class="background" rx="8" x="0" /><rect x="0" y="0" width="1024px" height="400px" class="background" rx="8"></rect><path stroke-width="2" class="series" d="M 58 345 L 62 344 L 84 344 L 84 343 L 84 343 L 84 342 L 84 341 L 84 341 L 84 340 L 84 340 L 85 339 L 85 338 L 85 338 L 85 337 L 85 337 L 85 336 L 85 335 L 86 335 L 86 334 L 87 334 L 88 333 L 88 332 L 89 332 L 90 331 L 90 331 L 90 330 L 91 329 L 93 329 L 95 328 L 95 328 L 97 327 L 98 326 L 105 326 L 105 325 L 105 325 L 105 324 L 105 323 L 106 323 L 109 322 L 111 322 L 112 321 L 116 320 L 121 320 L 123 319 L 133 319 L 136 318 L 141 317 L 147 317 L 149 316 L 170 316 L 171 315 L 171 314 L 174 314 L 174 313 L 174 313 L 174 312 L 174 311 L 174 311 L 174 310 L 174 310 L 174 309 L 175 308 L 175 308 L 175 307 L 175 307 L 175 306 L 175 305 L 175 305 L 175 304 L 175 304 L 175 303 L 175 302 L 175 302 L 175 301 L 175 301 L 176 300 L 176 299 L 176 299 L 176 298 L 176 298 L 176 297 L 176 296 L 176 296 L 176 295 L 176 295 L 176 294 L 176 293 L 176 293 L 176 292 L 176 292 L 176 291 L 176 290 L 176 290 L 176 289 L 176 289 L 176 288 L 176 287 L 176 287 L 176 286 L 176 286 L 177 285 L 177 284 L 177 284 L 177 283 L 178 283 L 178 282 L 179 281 L 179 281 L 179 280 L 179 280 L 179 279 L 179 278 L 179 278 L 179 277 L 179 277 L 179 276 L 179 275 L 179 275 L 179 274 L 179 274 L 179 273 L 179 272 L 180 272 L 180 271 L 181 271 L 181 270 L 182 269 L 182 269 L 186 268 L 187 268 L 187 267 L 189 266 L 189 266 L 192 265 L 195 265 L 196 264 L 199 263 L 200 263 L 203 262 L 203 262 L 204 261 L 207 260 L 207 260 L 208 259 L 210 259 L 211 258 L 212 257 L 212 257 L 212 256 L 213 256 L 214 255 L 216 254 L 216 254 L 217 253 L 218 253 L 218 252 L 219 251 L 221 251 L 223 250 L 226 250 L 227 249 L 228 248 L 230 248 L 230 247 L 230 247 L 232 246 L 241 245 L 241 245 L 243 244 L 251 244 L 251 243 L 251 242 L 252 242 L 252 241 L 253 241 L 256 240 L 257 239 L 258 239 L 268 238 L 270 238 L 272 237 L 275 236 L 277 236 L 277 235 L 279 235 L 286 234 L 294 233 L 303 233 L 304 232 L 304 232 L 304 231 L 305 230 L 307 230 L 319 229 L 324 229 L 325 228 L 329 227 L 330 227 L 331 226 L 344 226 L 344 225 L 345 224 L 346 224 L 348 223 L 351 223 L 353 222 L 356 221 L 357 221 L 360 220 L 368 220 L 368 219 L 370 218 L 370 218 L 370 217 L 371 217 L 375 216 L 382 215 L 399 215 L 405 214 L 409 214 L 409 213 L 411 212 L 413 212 L 413 211 L 413 211 L 413 210 L 413 209 L 413 209 L 413 208 L 413 208 L 413 207 L 413 206 L 414 206 L 414 205 L 414 205 L 414 204 L 415 203 L 416 203 L 417 202 L 418 202 L 418 201 L 418 200 L 418 200 L 420 199 L 420 199 L 420 198 L 420 197 L 420 197 L 421 196 L 421 196 L 422 195 L 423 194 L 423 194 L 424 193 L 424 193 L 424 192 L 424 191 L 425 191 L 426 190 L 426 190 L 426 189 L 427 188 L 427 188 L 428 187 L 429 187 L 431 186 L 431 185 L 434 185 L 437 184 L 437 184 L 438 183 L 438 182 L 438 182 L 438 181 L 438 181 L 441 180 L 441 179 L 444 179 L 444 178 L 445 178 L 448 177 L 450 176 L 450 176 L 453 175 L 454 175 L 455 174 L 456 173 L 456 173 L 462 172 L 463 172 L 464 171 L 469 170 L 471 170 L 476 169 L 478 169 L 478 168 L 479 167 L 480 167 L 480 166 L 484 166 L 487 165 L 489 164 L 489 164 L 491 163 L 493 163 L 493 162 L 493 161 L 493 161 L 494 160 L 494 160 L 494 159 L 496 158 L 496 158 L 496 157 L 497 157 L 504 156 L 511 155 L 511 155 L 511 154 L 516 154 L 518 153 L 519 152 L 520 152 L 521 151 L 523 151 L 523 150 L 523 149 L 523 149 L 523 148 L 524 148 L 524 147 L 525 146 L 525 146 L 526 145 L 529 145 L 529 144 L 529 143 L 529 143 L 530 142 L 530 142 L 530 141 L 530 140 L 530 140 L 530 139 L 530 139 L 530 138 L 531 137 L 536 137 L 540 136 L 540 136 L 541 135 L 548 134 L 556 134 L 557 133 L 562 132 L 565 132 L 574 131 L 577 131 L 580 130 L 581 130 L 581 129 L 581 128 L 581 128 L 581 127 L 581 126 L 581 126 L 583 125 L 585 125 L 596 124 L 599 124 L 603 123 L 612 122 L 618 122 L 623 121 L 626 121 L 633 120 L 633 119 L 646 119 L 659 118 L 659 118 L 668 117 L 668 116 L 676 116 L 677 115 L 681 115 L 681 114 L 682 113 L 682 113 L 686 112 L 688 112 L 692 111 L 697 110 L 698 110 L 699 109 L 700 109 L 705 108 L 710 107 L 710 107 L 715 106 L 721 106 L 722 105 L 722 104 L 725 104 L 726 103 L 727 103 L 732 102 L 735 101 L 739 101 L 742 100 L 742 100 L 749 99 L 751 98 L 755 98 L 761 97 L 761 97 L 768 96 L 769 95 L 769 95 L 771 94 L 772 94 L 775 93 L 775 92 L 778 92 L 782 91 L 783 91 L 784 90 L 784 89 L 795 89 L 795 88 L 796 88 L 796 87 L 797 86 L 798 86 L 798 85 L 799 85 L 800 84 L 802 83 L 802 83 L 804 82 L 805 82 L 806 81 L 807 80 L 808 80 L 808 79 L 809 79 L 809 78 L 809 77 L 811 77 L 811 76 L 811 76 L 812 75 L 813 74 L 815 74 L 815 73 L 815 73 L 817 72 L 817 71 L 819 71 L 821 70 L 821 70 L 822 69 L 823 68 L 825 68 L 826 67 L 826 67 L 827 66 L 830 65 L 830 65 L 830 64 L 831 64 L 831 63 L 831 62 L 831 62 L 832 61 L 833 61 L 834 60 L 839 59 L 840 59 L 842 58 L 842 58 L 846 57 L 848 56 L 848 56 L 851 55 L 855 55 L 858 54 L 862 53 L 863 53 L 863 52 L 863 52 L 864 51 L 865 50 L 865 50 L 865 49 L 867 49 L 867 48 L 867 47 L 867 47 L 869 46 L 871 46 L 871 45 L 872 44 L 872 44 L 876 43 L 877 43 L 877 42 L 878 41 L 880 41 L 883 40 L 887 40 L 892 39 L 892 38 L 892 38 L 893 37 L 896 37 L 899 36 L 900 35 L 900 35 L 900 34 L 900 34 L 903 33 L 907 32 L 908 32 L 908 31 L 908 31 L 911 30 L 912 29 L 912 29 L 912 28 L 912 28 L 916 27 L 921 26 L 921 26 L 927 25 L 927 25 L 929 24 L 934 23 L 935 23 L 939 22 L 942 22 L 944 21 L 945 20" /><path stroke-width="2" class="series" d="M 58 345 L 62 344 L 84 344 L 84 343 L 84 343 L 84 342 L 84 341 L 84 341 L 84 340 L 84 340 L 85 339 L 85 338 L 85 338 L 85 337 L 85 337 L 85 336 L 85 335 L 86 335 L 86 334 L 87 334 L 88 333 L 88 332 L 89 332 L 90 331 L 90 331 L 90 330 L 91 329 L 93 329 L 95 328 L 95 328 L 97 327 L 98 326 L 105 326 L 105 325 L 105 325 L 105 324 L 105 323 L 106 323 L 109 322 L 111 322 L 112 321 L 116 320 L 121 320 L 123 319 L 133 319 L 136 318 L 141 317 L 147 317 L 149 316 L 170 316 L 171 315 L 171 314 L 174 314 L 174 313 L 174 313 L 174 312 L 174 311 L 174 311 L 174 310 L 174 310 L 174 309 L 175 308 L 175 308 L 175 307 L 175 307 L 175 306 L 175 305 L 175 305 L 175 304 L 175 304 L 175 303 L 175 302 L 175 302 L 175 301 L 175 301 L 176 300 L 176 299 L 176 299 L 176 298 L 176 298 L 176 297 L 176 296 L 176 296 L 176 295 L 176 295 L 176 294 L 176 293 L 176 293 L 176 292 L 176 292 L 176 291 L 176 290 L 176 290 L 176 289 L 176 289 L 176 288 L 176 287 L 176 287 L 176 286 L 176 286 L 177 285 L 177 284 L 177 284 L 177 283 L 178 283 L 178 282 L 179 281 L 179 281 L 179 280 L 179 280 L 179 279 L 179 278 L 179 278 L 179 277 L 179 277 L 179 276 L 179 275 L 179 275 L 179 274 L 179 274 L 179 273 L 179 272 L 180 272 L 180 271 L 181 271 L 181 270 L 182 269 L 182 269 L 186 268 L 187 268 L 187 267 L 189 266 L 189 266 L 192 265 L 195 265 L 196 264 L 199 263 L 200 263 L 203 262 L 203 262 L 204 261 L 207 260 L 207 260 L 208 259 L 210 259 L 211 258 L 212 257 L 212 257 L 212 256 L 213 256 L 214 255 L 216 254 L 216 254 L 217 253 L 218 253 L 218 252 L 219 251 L 221 251 L 223 250 L 226 250 L 227 249 L 228 248 L 230 248 L 230 247 L 230 247 L 232 246 L 241 245 L 241 245 L 243 244 L 251 244 L 251 243 L 251 242 L 252 242 L 252 241 L 253 241 L 256 240 L 257 239 L 258 239 L 268 238 L 270 238 L 272 237 L 275 236 L 277 236 L 277 235 L 279 235 L 286 234 L 294 233 L 303 233 L 304 232 L 304 232 L 304 231 L 305 230 L 307 230 L 319 229 L 324 229 L 325 228 L 329 227 L 330 227 L 331 226 L 344 226 L 344 225 L 345 224 L 346 224 L 348 223 L 351 223 L 353 222 L 356 221 L 357 221 L 360 220 L 368 220 L 368 219 L 370 218 L 370 218 L 370 217 L 371 217 L 375 216 L 382 215 L 399 215 L 405 214 L 409 214 L 409 213 L 411 212 L 413 212 L 413 211 L 413 211 L 413 210 L 413 209 L 413 209 L 413 208 L 413 208 L 413 207 L 413 206 L 414 206 L 414 205 L 414 205 L 414 204 L 415 203 L 416 203 L 417 202 L 418 202 L 418 201 L 418 200 L 418 200 L 420 199 L 420 199 L 420 198 L 420 197 L 420 197 L 421 196 L 421 196 L 422 195 L 423 194 L 423 194 L 424 193 L 424 193 L 424 192 L 424 191 L 425 191 L 426 190 L 426 190 L 426 189 L 427 188 L 427 188 L 428 187 L 429 187 L 431 186 L 431 185 L 434 185 L 437 184 L 437 184 L 438 183 L 438 182 L 438 182 L 438 181 L 438 181 L 441 180 L 441 179 L 444 179 L 444 178 L 445 178 L 448 177 L 450 176 L 450 176 L 453 175 L 454 175 L 455 174 L 456 173 L 456 173 L 462 172 L 463 172 L 464 171 L 469 170 L 471 170 L 476 169 L 478 169 L 478 168 L 479 167 L 480 167 L 480 166 L 484 166 L 487 165 L 489 164 L 489 164 L 491 163 L 493 163 L 493 162 L 493 161 L 493 161 L 494 160 L 494 160 L 494 159 L 496 158 L 496 158 L 496 157 L 497 157 L 504 156 L 511 155 L 511 155 L 511 154 L 516 154 L 518 153 L 519 152 L 520 152 L 521 151 L 523 151 L 523 150 L 523 149 L 523 149 L 523 148 L 524 148 L 524 147 L 525 146 L 525 146 L 526 145 L 529 145 L 529 144 L 529 143 L 529 143 L 530 142 L 530 142 L 530 141 L 530 140 L 530 140 L 530 139 L 530 139 L 530 138 L 531 137 L 536 137 L 540 136 L 540 136 L 541 135 L 548 134 L 556 134 L 557 133 L 562 132 L 565 132 L 574 131 L 577 131 L 580 130 L 581 130 L 581 129 L 581 128 L 581 128 L 581 127 L 581 126 L 581 126 L 583 125 L 585 125 L 596 124 L 599 124 L 603 123 L 612 122 L 618 122 L 623 121 L 626 121 L 633 120 L 633 119 L 646 119 L 659 118 L 659 118 L 668 117 L 668 116 L 676 116 L 677 115 L 681 115 L 681 114 L 682 113 L 682 113 L 686 112 L 688 112 L 692 111 L 697 110 L 698 110 L 699 109 L 700 109 L 705 108 L 710 107 L 710 107 L 715 106 L 721 106 L 722 105 L 722 104 L 725 104 L 726 103 L 727 103 L 732 102 L 735 101 L 739 101 L 742 100 L 742 100 L 749 99 L 751 98 L 755 98 L 761 97 L 761 97 L 768 96 L 769 95 L 769 95 L 771 94 L 772 94 L 775 93 L 775 92 L 778 92 L 782 91 L 783 91 L 784 90 L 784 89 L 795 89 L 795 88 L 796 88 L 796 87 L 797 86 L 798 86 L 798 85 L 799 85 L 800 84 L 802 83 L 802 83 L 804 82 L 805 82 L 806 81 L 807 80 L 808 80 L 808 79 L 809 79 L 809 78 L 809 77 L 811 77 L 811 76 L 811 76 L 812 75 L 813 74 L 815 74 L 815 73 L 815 73 L 817 72 L 817 71 L 819 71 L 821 70 L 821 70 L 822 69 L 823 68 L 825 68 L 826 67 L 826 67 L 827 66 L 830 65 L 830 65 L 830 64 L 831 64 L 831 63 L 831 62 L 831 62 L 832 61 L 833 61 L 834 60 L 839 59 L 840 59 L 842 58 L 842 58 L 846 57 L 848 56 L 848 56 L 851 55 L 855 55 L 858 54 L 862 53 L 863 53 L 863 52 L 863 52 L 864 51 L 865 50 L 865 50 L 865 49 L 867 49 L 867 48 L 867 47 L 867 47 L 869 46 L 871 46 L 871 45 L 872 44 L 872 44 L 876 43 L 877 43 L 877 42 L 878 41 L 880 41 L 883 40 L 887 40 L 892 39 L 892 38 L 892 38 L 893 37 L 896 37 L 899 36 L 900 35 L 900 35 L 900 34 L 900 34 L 903 33 L 907 32 L 908 32 L 908 31 L 908 31 L 911 30 L 912 29 L 912 29 L 912 28 L 912 28 L 916 27 L 921 26 L 921 26 L 927 25 L 927 25 L 929 24 L 934 23 L 935 23 L 939 22 L 942 22 L 944 21 L 945 20"></path><path stroke-width="2" d="M 945 346 L 945.000000 15.000000" /><path stroke-width="2" d="M 945 346 L 945.000000 15.000000"></path><path stroke-width="2" d="M 945 346 L 950 346" /><path stroke-width="2" d="M 945 346 L 950 346"></path><text xmlns="http://www.w3.org/2000/svg" x="955" y="352">0</text><path stroke-width="2" d="M 945 308 L 950 308" /><path stroke-width="2" d="M 945 308 L 950 308"></path><text xmlns="http://www.w3.org/2000/svg" x="955" y="314">62</text><path stroke-width="2" d="M 945 272 L 950 272" /><path stroke-width="2" d="M 945 272 L 950 272"></path><text y="278" xmlns="http://www.w3.org/2000/svg" x="955">123</text><path stroke-width="2" d="M 945 235 L 950 235" /><path stroke-width="2" d="M 945 235 L 950 235"></path><text xmlns="http://www.w3.org/2000/svg" x="955" y="241">184</text><path stroke-width="2" d="M 945 199 L 950 199" /><path stroke-width="2" d="M 945 199 L 950 199"></path><text xmlns="http://www.w3.org/2000/svg" x="955" y="205">245</text><path stroke-width="2" d="M 945 162 L 950 162" /><path stroke-width="2" d="M 945 162 L 950 162"></path><text xmlns="http://www.w3.org/2000/svg" x="955" y="168">306</text><path d="M 945 125 L 950 125" stroke-width="2" /><path stroke-width="2" d="M 945 125 L 950 125"></path><text y="131" xmlns="http://www.w3.org/2000/svg" x="955">367</text><path stroke-width="2" d="M 945 89 L 950 89" /><path d="M 945 89 L 950 89" stroke-width="2"></path><text xmlns="http://www.w3.org/2000/svg" x="955" y="95">428</text><path stroke-width="2" d="M 945 52 L 950 52" /><path stroke-width="2" d="M 945 52 L 950 52"></path><text xmlns="http://www.w3.org/2000/svg" x="955" y="58">489</text><path d="M 945 16 L 950 16" stroke-width="2" /><path stroke-width="2" d="M 945 16 L 950 16"></path><text xmlns="http://www.w3.org/2000/svg" x="955" y="22">550</text><text xmlns="http://www.w3.org/2000/svg" x="987" y="175" transform="rotate(90.00,987,175)">Stargazers</text><path stroke-width="2" d="M 57.000000 346.000000 L 945 346" /><path stroke-width="2" d="M 57.000000 346.000000 L 945 346"></path><path stroke-width="2" d="M 58 346 L 58 351" /><path stroke-width="2" d="M 58 346 L 58 351"></path><text y="368" xmlns="http://www.w3.org/2000/svg" x="25">2023-04-02</text><path stroke-width="2" d="M 157 346 L 157 351" /><path stroke-width="2" d="M 157 346 L 157 351"></path><text xmlns="http://www.w3.org/2000/svg" x="124" y="368">2023-05-26</text><path stroke-width="2" d="M 256 346 L 256 351" /><path stroke-width="2" d="M 256 346 L 256 351"></path><text y="368" xmlns="http://www.w3.org/2000/svg" x="223">2023-07-20</text><path stroke-width="2" d="M 354 346 L 354 351" /><path stroke-width="2" d="M 354 346 L 354 351"></path><text xmlns="http://www.w3.org/2000/svg" x="321" y="368">2023-09-12</text><path stroke-width="2" d="M 453 346 L 453 351" /><path stroke-width="2" d="M 453 346 L 453 351"></path><text y="368" xmlns="http://www.w3.org/2000/svg" x="420">2023-11-06</text><path stroke-width="2" d="M 551 346 L 551 351" /><path stroke-width="2" d="M 551 346 L 551 351"></path><text xmlns="http://www.w3.org/2000/svg" x="518" y="368">2023-12-30</text><path stroke-width="2" d="M 650 346 L 650 351" /><path stroke-width="2" d="M 650 346 L 650 351"></path><text xmlns="http://www.w3.org/2000/svg" x="617" y="368">2024-02-23</text><path stroke-width="2" d="M 748 346 L 748 351" /><path stroke-width="2" d="M 748 346 L 748 351"></path><text xmlns="http://www.w3.org/2000/svg" x="715" y="368">2024-04-17</text><path stroke-width="2" d="M 847 346 L 847 351" /><path stroke-width="2" d="M 847 346 L 847 351"></path><text xmlns="http://www.w3.org/2000/svg" x="814" y="368">2024-06-11</text><path stroke-width="2" d="M 945 346 L 945 351" /><path stroke-width="2" d="M 945 346 L 945 351"></path><text xmlns="http://www.w3.org/2000/svg" x="912" y="368">2024-08-04</text><text xmlns="http://www.w3.org/2000/svg" x="487" y="390">Time</text></svg>