<svg xmlns="http://www.w3.org/2000/svg" xmlns:xlink="http://www.w3.org/1999/xlink" width="1024px" height="400px"><style type="text/css">
path { fill: none; stroke: rgb(51,51,51); }
path.series { stroke: #6b63ff; }
rect.background { fill: rgb(255,255,255); stroke: none; }

text {
	stroke-width: 0;
	stroke: none;
	fill: rgba(51,51,51,1.0);
	font-size: 12.8px;
	font-family: 'Roboto Medium', sans-serif;
}
</style><rect x="0" y="0" width="1024px" height="400px" class="background" rx="8" /><rect height="400px" class="background" rx="8" x="0" y="0" width="1024px"></rect><path stroke-width="2" class="series" d="M 58 345 L 61 345 L 76 344 L 76 344 L 76 344 L 76 343 L 76 343 L 76 343 L 76 342 L 76 342 L 76 342 L 76 341 L 77 341 L 77 340 L 77 340 L 77 340 L 77 339 L 77 339 L 77 339 L 78 338 L 78 338 L 78 338 L 79 337 L 80 337 L 80 336 L 80 336 L 81 336 L 82 335 L 83 335 L 83 335 L 85 334 L 86 334 L 90 334 L 90 333 L 90 333 L 90 332 L 91 332 L 93 332 L 94 331 L 95 331 L 97 331 L 101 330 L 103 330 L 109 330 L 111 329 L 115 329 L 119 328 L 120 328 L 134 328 L 135 327 L 135 327 L 137 327 L 137 326 L 137 326 L 137 326 L 137 325 L 137 325 L 137 324 L 137 324 L 137 324 L 138 323 L 138 323 L 138 323 L 138 322 L 138 322 L 138 322 L 138 321 L 138 321 L 138 320 L 138 320 L 138 320 L 138 319 L 138 319 L 138 319 L 138 318 L 138 318 L 138 318 L 138 317 L 138 317 L 138 316 L 138 316 L 138 316 L 138 315 L 138 315 L 138 315 L 138 314 L 138 314 L 138 314 L 138 313 L 138 313 L 138 313 L 138 312 L 138 312 L 138 311 L 139 311 L 139 311 L 139 310 L 139 310 L 139 310 L 139 309 L 139 309 L 139 309 L 139 308 L 140 308 L 140 307 L 141 307 L 141 307 L 141 306 L 141 306 L 141 306 L 141 305 L 141 305 L 141 305 L 141 304 L 141 304 L 141 303 L 141 303 L 141 303 L 141 302 L 141 302 L 141 302 L 141 301 L 141 301 L 142 301 L 142 300 L 142 300 L 142 299 L 146 299 L 146 299 L 146 298 L 147 298 L 147 298 L 149 297 L 152 297 L 152 297 L 154 296 L 155 296 L 157 295 L 157 295 L 157 295 L 160 294 L 160 294 L 161 294 L 162 293 L 162 293 L 163 293 L 163 292 L 163 292 L 164 291 L 165 291 L 166 291 L 166 290 L 166 290 L 167 290 L 167 289 L 168 289 L 169 289 L 170 288 L 173 288 L 173 287 L 174 287 L 175 287 L 175 286 L 175 286 L 177 286 L 183 285 L 183 285 L 184 285 L 190 284 L 190 284 L 190 283 L 190 283 L 190 283 L 191 282 L 193 282 L 194 282 L 194 281 L 201 281 L 202 281 L 204 280 L 206 280 L 208 280 L 208 279 L 209 279 L 213 278 L 219 278 L 225 278 L 226 277 L 226 277 L 226 277 L 226 276 L 228 276 L 236 276 L 240 275 L 240 275 L 243 274 L 244 274 L 244 274 L 253 273 L 253 273 L 254 273 L 254 272 L 255 272 L 258 272 L 259 271 L 261 271 L 262 270 L 264 270 L 269 270 L 270 269 L 270 269 L 271 269 L 271 268 L 271 268 L 274 268 L 279 267 L 290 267 L 295 266 L 297 266 L 297 266 L 299 265 L 300 265 L 300 265 L 300 264 L 300 264 L 300 264 L 300 263 L 300 263 L 300 262 L 300 262 L 300 262 L 300 261 L 300 261 L 301 261 L 301 260 L 301 260 L 303 260 L 303 259 L 303 259 L 304 258 L 304 258 L 305 258 L 305 257 L 305 257 L 305 257 L 305 256 L 305 256 L 305 256 L 306 255 L 307 255 L 307 254 L 307 254 L 307 254 L 307 253 L 308 253 L 308 253 L 309 252 L 309 252 L 309 252 L 310 251 L 310 251 L 310 250 L 311 250 L 312 250 L 313 249 L 314 249 L 316 249 L 316 248 L 317 248 L 317 248 L 317 247 L 317 247 L 317 247 L 319 246 L 319 246 L 321 245 L 321 245 L 322 245 L 323 244 L 325 244 L 325 244 L 327 243 L 328 243 L 328 243 L 329 242 L 329 242 L 333 241 L 334 241 L 335 241 L 338 240 L 340 240 L 343 240 L 344 239 L 344 239 L 345 239 L 346 238 L 346 238 L 348 237 L 350 237 L 352 237 L 352 236 L 353 236 L 354 236 L 354 235 L 354 235 L 355 235 L 355 234 L 355 234 L 355 233 L 357 233 L 357 233 L 357 232 L 357 232 L 362 232 L 367 231 L 367 231 L 367 231 L 370 230 L 372 230 L 372 229 L 373 229 L 374 229 L 375 228 L 375 228 L 375 228 L 375 227 L 375 227 L 375 227 L 375 226 L 376 226 L 376 225 L 377 225 L 379 225 L 379 224 L 379 224 L 379 224 L 379 223 L 380 223 L 380 223 L 380 222 L 380 222 L 380 221 L 380 221 L 380 221 L 380 220 L 384 220 L 386 220 L 386 219 L 387 219 L 397 219 L 398 218 L 401 218 L 404 217 L 410 217 L 412 217 L 414 216 L 414 216 L 414 216 L 414 215 L 414 215 L 415 215 L 415 214 L 415 214 L 416 214 L 417 213 L 424 213 L 427 212 L 429 212 L 435 212 L 439 211 L 443 211 L 445 211 L 449 210 L 450 210 L 459 210 L 467 209 L 467 209 L 474 208 L 474 208 L 479 208 L 480 207 L 483 207 L 483 207 L 483 206 L 483 206 L 486 206 L 487 205 L 490 205 L 493 204 L 494 204 L 495 204 L 495 203 L 499 203 L 502 203 L 502 202 L 506 202 L 510 202 L 510 201 L 511 201 L 512 200 L 513 200 L 514 200 L 517 199 L 519 199 L 522 199 L 524 198 L 524 198 L 529 198 L 530 197 L 533 197 L 537 196 L 537 196 L 542 196 L 542 195 L 542 195 L 544 195 L 544 194 L 546 194 L 547 194 L 549 193 L 551 193 L 552 192 L 552 192 L 553 192 L 560 191 L 560 191 L 561 191 L 561 190 L 561 190 L 562 190 L 562 189 L 563 189 L 563 188 L 565 188 L 565 188 L 566 187 L 567 187 L 568 187 L 568 186 L 569 186 L 569 186 L 570 185 L 570 185 L 570 184 L 571 184 L 571 184 L 571 183 L 571 183 L 572 183 L 574 182 L 574 182 L 574 182 L 575 181 L 575 181 L 576 181 L 578 180 L 578 180 L 578 179 L 580 179 L 581 179 L 581 178 L 581 178 L 582 178 L 584 177 L 584 177 L 584 177 L 584 176 L 585 176 L 585 175 L 585 175 L 585 175 L 586 174 L 587 174 L 590 174 L 591 173 L 592 173 L 592 173 L 595 172 L 596 172 L 597 171 L 598 171 L 601 171 L 603 170 L 606 170 L 606 170 L 607 169 L 607 169 L 607 169 L 608 168 L 608 168 L 608 167 L 609 167 L 609 167 L 609 166 L 609 166 L 611 166 L 612 165 L 612 165 L 613 165 L 613 164 L 615 164 L 616 163 L 616 163 L 617 163 L 618 162 L 620 162 L 623 162 L 626 161 L 626 161 L 626 161 L 627 160 L 629 160 L 631 159 L 631 159 L 631 159 L 631 158 L 632 158 L 634 158 L 637 157 L 637 157 L 637 157 L 637 156 L 639 156 L 640 155 L 640 155 L 640 155 L 643 154 L 646 154 L 646 154 L 650 153 L 650 153 L 651 153 L 654 152 L 656 152 L 658 151 L 660 151 L 661 151 L 663 150 L 663 150 L 663 150 L 663 149 L 664 149 L 664 149 L 665 148 L 665 148 L 665 148 L 666 147 L 666 147 L 666 146 L 667 146 L 668 146 L 668 145 L 673 145 L 674 145 L 678 144 L 681 144 L 681 144 L 682 143 L 682 143 L 685 142 L 685 142 L 686 142 L 686 141 L 687 141 L 687 141 L 687 140 L 687 140 L 687 140 L 688 139 L 688 139 L 688 138 L 688 138 L 688 138 L 689 137 L 689 137 L 691 137 L 691 136 L 691 136 L 692 136 L 693 135 L 693 135 L 693 134 L 694 134 L 695 134 L 698 133 L 698 133 L 698 133 L 698 132 L 698 132 L 699 132 L 699 131 L 699 131 L 701 130 L 703 130 L 705 130 L 708 129 L 709 129 L 711 129 L 714 128 L 718 128 L 718 128 L 721 127 L 725 127 L 725 126 L 725 126 L 730 126 L 731 125 L 732 125 L 732 125 L 732 124 L 741 124 L 741 124 L 742 123 L 742 123 L 743 122 L 743 122 L 745 122 L 745 121 L 745 121 L 746 121 L 746 120 L 746 120 L 747 120 L 747 119 L 747 119 L 747 118 L 747 118 L 748 118 L 748 117 L 750 117 L 751 117 L 752 116 L 752 116 L 752 116 L 753 115 L 754 115 L 755 115 L 755 114 L 756 114 L 756 113 L 756 113 L 756 113 L 758 112 L 758 112 L 760 112 L 760 111 L 761 111 L 761 111 L 762 110 L 762 110 L 762 109 L 762 109 L 763 109 L 763 108 L 764 108 L 765 108 L 765 107 L 766 107 L 767 107 L 767 106 L 767 106 L 767 105 L 767 105 L 768 105 L 768 104 L 768 104 L 769 104 L 769 103 L 770 103 L 770 103 L 771 102 L 771 102 L 771 101 L 771 101 L 771 101 L 772 100 L 772 100 L 772 100 L 772 99 L 772 99 L 774 99 L 776 98 L 778 98 L 778 97 L 778 97 L 778 97 L 779 96 L 780 96 L 781 96 L 782 95 L 784 95 L 787 95 L 787 94 L 788 94 L 789 93 L 789 93 L 790 93 L 790 92 L 791 92 L 791 92 L 791 91 L 791 91 L 791 91 L 791 90 L 791 90 L 791 89 L 791 89 L 792 89 L 792 88 L 792 88 L 792 88 L 793 87 L 793 87 L 793 87 L 794 86 L 794 86 L 796 85 L 796 85 L 797 85 L 797 84 L 798 84 L 798 84 L 799 83 L 802 83 L 803 83 L 803 82 L 803 82 L 803 82 L 803 81 L 805 81 L 807 80 L 808 80 L 810 80 L 810 79 L 810 79 L 810 79 L 811 78 L 816 78 L 818 78 L 821 77 L 823 77 L 824 76 L 825 76 L 826 76 L 826 75 L 826 75 L 826 75 L 827 74 L 828 74 L 828 74 L 828 73 L 830 73 L 832 72 L 832 72 L 832 72 L 832 71 L 832 71 L 832 71 L 832 70 L 832 70 L 832 70 L 832 69 L 832 69 L 832 68 L 832 68 L 832 68 L 832 67 L 832 67 L 832 67 L 833 66 L 833 66 L 833 66 L 834 65 L 834 65 L 834 64 L 834 64 L 835 64 L 835 63 L 835 63 L 836 63 L 836 62 L 836 62 L 836 62 L 836 61 L 836 61 L 837 60 L 838 60 L 841 60 L 841 59 L 841 59 L 842 59 L 843 58 L 843 58 L 844 58 L 846 57 L 847 57 L 848 56 L 848 56 L 848 56 L 848 55 L 848 55 L 848 55 L 848 54 L 850 54 L 851 54 L 851 53 L 855 53 L 857 52 L 858 52 L 861 52 L 862 51 L 863 51 L 863 51 L 863 50 L 863 50 L 864 50 L 864 49 L 864 49 L 865 49 L 866 48 L 866 48 L 866 47 L 866 47 L 867 47 L 867 46 L 867 46 L 867 46 L 867 45 L 868 45 L 868 45 L 868 44 L 870 44 L 870 43 L 870 43 L 871 43 L 871 42 L 871 42 L 872 42 L 873 41 L 873 41 L 873 41 L 874 40 L 874 40 L 875 39 L 879 39 L 880 39 L 881 38 L 884 38 L 885 38 L 886 37 L 889 37 L 890 37 L 891 36 L 894 36 L 899 35 L 900 35 L 902 35 L 904 34 L 906 34 L 906 34 L 907 33 L 909 33 L 909 33 L 910 32 L 911 32 L 912 31 L 914 31 L 915 31 L 915 30 L 915 30 L 916 30 L 916 29 L 917 29 L 921 29 L 921 28 L 922 28 L 923 27 L 924 27 L 925 27 L 926 26 L 927 26 L 927 26 L 927 25 L 927 25 L 928 25 L 929 24 L 930 24 L 930 23 L 932 23 L 932 23 L 932 22 L 933 22 L 934 22 L 934 21 L 934 21 L 935 21 L 936 20 L 936 20 L 936 19 L 936 19 L 936 19 L 937 18 L 937 18 L 939 18 L 941 17 L 941 17 L 942 17 L 945 16 L 945 16" /><path stroke-width="2" class="series" d="M 58 345 L 61 345 L 76 344 L 76 344 L 76 344 L 76 343 L 76 343 L 76 343 L 76 342 L 76 342 L 76 342 L 76 341 L 77 341 L 77 340 L 77 340 L 77 340 L 77 339 L 77 339 L 77 339 L 78 338 L 78 338 L 78 338 L 79 337 L 80 337 L 80 336 L 80 336 L 81 336 L 82 335 L 83 335 L 83 335 L 85 334 L 86 334 L 90 334 L 90 333 L 90 333 L 90 332 L 91 332 L 93 332 L 94 331 L 95 331 L 97 331 L 101 330 L 103 330 L 109 330 L 111 329 L 115 329 L 119 328 L 120 328 L 134 328 L 135 327 L 135 327 L 137 327 L 137 326 L 137 326 L 137 326 L 137 325 L 137 325 L 137 324 L 137 324 L 137 324 L 138 323 L 138 323 L 138 323 L 138 322 L 138 322 L 138 322 L 138 321 L 138 321 L 138 320 L 138 320 L 138 320 L 138 319 L 138 319 L 138 319 L 138 318 L 138 318 L 138 318 L 138 317 L 138 317 L 138 316 L 138 316 L 138 316 L 138 315 L 138 315 L 138 315 L 138 314 L 138 314 L 138 314 L 138 313 L 138 313 L 138 313 L 138 312 L 138 312 L 138 311 L 139 311 L 139 311 L 139 310 L 139 310 L 139 310 L 139 309 L 139 309 L 139 309 L 139 308 L 140 308 L 140 307 L 141 307 L 141 307 L 141 306 L 141 306 L 141 306 L 141 305 L 141 305 L 141 305 L 141 304 L 141 304 L 141 303 L 141 303 L 141 303 L 141 302 L 141 302 L 141 302 L 141 301 L 141 301 L 142 301 L 142 300 L 142 300 L 142 299 L 146 299 L 146 299 L 146 298 L 147 298 L 147 298 L 149 297 L 152 297 L 152 297 L 154 296 L 155 296 L 157 295 L 157 295 L 157 295 L 160 294 L 160 294 L 161 294 L 162 293 L 162 293 L 163 293 L 163 292 L 163 292 L 164 291 L 165 291 L 166 291 L 166 290 L 166 290 L 167 290 L 167 289 L 168 289 L 169 289 L 170 288 L 173 288 L 173 287 L 174 287 L 175 287 L 175 286 L 175 286 L 177 286 L 183 285 L 183 285 L 184 285 L 190 284 L 190 284 L 190 283 L 190 283 L 190 283 L 191 282 L 193 282 L 194 282 L 194 281 L 201 281 L 202 281 L 204 280 L 206 280 L 208 280 L 208 279 L 209 279 L 213 278 L 219 278 L 225 278 L 226 277 L 226 277 L 226 277 L 226 276 L 228 276 L 236 276 L 240 275 L 240 275 L 243 274 L 244 274 L 244 274 L 253 273 L 253 273 L 254 273 L 254 272 L 255 272 L 258 272 L 259 271 L 261 271 L 262 270 L 264 270 L 269 270 L 270 269 L 270 269 L 271 269 L 271 268 L 271 268 L 274 268 L 279 267 L 290 267 L 295 266 L 297 266 L 297 266 L 299 265 L 300 265 L 300 265 L 300 264 L 300 264 L 300 264 L 300 263 L 300 263 L 300 262 L 300 262 L 300 262 L 300 261 L 300 261 L 301 261 L 301 260 L 301 260 L 303 260 L 303 259 L 303 259 L 304 258 L 304 258 L 305 258 L 305 257 L 305 257 L 305 257 L 305 256 L 305 256 L 305 256 L 306 255 L 307 255 L 307 254 L 307 254 L 307 254 L 307 253 L 308 253 L 308 253 L 309 252 L 309 252 L 309 252 L 310 251 L 310 251 L 310 250 L 311 250 L 312 250 L 313 249 L 314 249 L 316 249 L 316 248 L 317 248 L 317 248 L 317 247 L 317 247 L 317 247 L 319 246 L 319 246 L 321 245 L 321 245 L 322 245 L 323 244 L 325 244 L 325 244 L 327 243 L 328 243 L 328 243 L 329 242 L 329 242 L 333 241 L 334 241 L 335 241 L 338 240 L 340 240 L 343 240 L 344 239 L 344 239 L 345 239 L 346 238 L 346 238 L 348 237 L 350 237 L 352 237 L 352 236 L 353 236 L 354 236 L 354 235 L 354 235 L 355 235 L 355 234 L 355 234 L 355 233 L 357 233 L 357 233 L 357 232 L 357 232 L 362 232 L 367 231 L 367 231 L 367 231 L 370 230 L 372 230 L 372 229 L 373 229 L 374 229 L 375 228 L 375 228 L 375 228 L 375 227 L 375 227 L 375 227 L 375 226 L 376 226 L 376 225 L 377 225 L 379 225 L 379 224 L 379 224 L 379 224 L 379 223 L 380 223 L 380 223 L 380 222 L 380 222 L 380 221 L 380 221 L 380 221 L 380 220 L 384 220 L 386 220 L 386 219 L 387 219 L 397 219 L 398 218 L 401 218 L 404 217 L 410 217 L 412 217 L 414 216 L 414 216 L 414 216 L 414 215 L 414 215 L 415 215 L 415 214 L 415 214 L 416 214 L 417 213 L 424 213 L 427 212 L 429 212 L 435 212 L 439 211 L 443 211 L 445 211 L 449 210 L 450 210 L 459 210 L 467 209 L 467 209 L 474 208 L 474 208 L 479 208 L 480 207 L 483 207 L 483 207 L 483 206 L 483 206 L 486 206 L 487 205 L 490 205 L 493 204 L 494 204 L 495 204 L 495 203 L 499 203 L 502 203 L 502 202 L 506 202 L 510 202 L 510 201 L 511 201 L 512 200 L 513 200 L 514 200 L 517 199 L 519 199 L 522 199 L 524 198 L 524 198 L 529 198 L 530 197 L 533 197 L 537 196 L 537 196 L 542 196 L 542 195 L 542 195 L 544 195 L 544 194 L 546 194 L 547 194 L 549 193 L 551 193 L 552 192 L 552 192 L 553 192 L 560 191 L 560 191 L 561 191 L 561 190 L 561 190 L 562 190 L 562 189 L 563 189 L 563 188 L 565 188 L 565 188 L 566 187 L 567 187 L 568 187 L 568 186 L 569 186 L 569 186 L 570 185 L 570 185 L 570 184 L 571 184 L 571 184 L 571 183 L 571 183 L 572 183 L 574 182 L 574 182 L 574 182 L 575 181 L 575 181 L 576 181 L 578 180 L 578 180 L 578 179 L 580 179 L 581 179 L 581 178 L 581 178 L 582 178 L 584 177 L 584 177 L 584 177 L 584 176 L 585 176 L 585 175 L 585 175 L 585 175 L 586 174 L 587 174 L 590 174 L 591 173 L 592 173 L 592 173 L 595 172 L 596 172 L 597 171 L 598 171 L 601 171 L 603 170 L 606 170 L 606 170 L 607 169 L 607 169 L 607 169 L 608 168 L 608 168 L 608 167 L 609 167 L 609 167 L 609 166 L 609 166 L 611 166 L 612 165 L 612 165 L 613 165 L 613 164 L 615 164 L 616 163 L 616 163 L 617 163 L 618 162 L 620 162 L 623 162 L 626 161 L 626 161 L 626 161 L 627 160 L 629 160 L 631 159 L 631 159 L 631 159 L 631 158 L 632 158 L 634 158 L 637 157 L 637 157 L 637 157 L 637 156 L 639 156 L 640 155 L 640 155 L 640 155 L 643 154 L 646 154 L 646 154 L 650 153 L 650 153 L 651 153 L 654 152 L 656 152 L 658 151 L 660 151 L 661 151 L 663 150 L 663 150 L 663 150 L 663 149 L 664 149 L 664 149 L 665 148 L 665 148 L 665 148 L 666 147 L 666 147 L 666 146 L 667 146 L 668 146 L 668 145 L 673 145 L 674 145 L 678 144 L 681 144 L 681 144 L 682 143 L 682 143 L 685 142 L 685 142 L 686 142 L 686 141 L 687 141 L 687 141 L 687 140 L 687 140 L 687 140 L 688 139 L 688 139 L 688 138 L 688 138 L 688 138 L 689 137 L 689 137 L 691 137 L 691 136 L 691 136 L 692 136 L 693 135 L 693 135 L 693 134 L 694 134 L 695 134 L 698 133 L 698 133 L 698 133 L 698 132 L 698 132 L 699 132 L 699 131 L 699 131 L 701 130 L 703 130 L 705 130 L 708 129 L 709 129 L 711 129 L 714 128 L 718 128 L 718 128 L 721 127 L 725 127 L 725 126 L 725 126 L 730 126 L 731 125 L 732 125 L 732 125 L 732 124 L 741 124 L 741 124 L 742 123 L 742 123 L 743 122 L 743 122 L 745 122 L 745 121 L 745 121 L 746 121 L 746 120 L 746 120 L 747 120 L 747 119 L 747 119 L 747 118 L 747 118 L 748 118 L 748 117 L 750 117 L 751 117 L 752 116 L 752 116 L 752 116 L 753 115 L 754 115 L 755 115 L 755 114 L 756 114 L 756 113 L 756 113 L 756 113 L 758 112 L 758 112 L 760 112 L 760 111 L 761 111 L 761 111 L 762 110 L 762 110 L 762 109 L 762 109 L 763 109 L 763 108 L 764 108 L 765 108 L 765 107 L 766 107 L 767 107 L 767 106 L 767 106 L 767 105 L 767 105 L 768 105 L 768 104 L 768 104 L 769 104 L 769 103 L 770 103 L 770 103 L 771 102 L 771 102 L 771 101 L 771 101 L 771 101 L 772 100 L 772 100 L 772 100 L 772 99 L 772 99 L 774 99 L 776 98 L 778 98 L 778 97 L 778 97 L 778 97 L 779 96 L 780 96 L 781 96 L 782 95 L 784 95 L 787 95 L 787 94 L 788 94 L 789 93 L 789 93 L 790 93 L 790 92 L 791 92 L 791 92 L 791 91 L 791 91 L 791 91 L 791 90 L 791 90 L 791 89 L 791 89 L 792 89 L 792 88 L 792 88 L 792 88 L 793 87 L 793 87 L 793 87 L 794 86 L 794 86 L 796 85 L 796 85 L 797 85 L 797 84 L 798 84 L 798 84 L 799 83 L 802 83 L 803 83 L 803 82 L 803 82 L 803 82 L 803 81 L 805 81 L 807 80 L 808 80 L 810 80 L 810 79 L 810 79 L 810 79 L 811 78 L 816 78 L 818 78 L 821 77 L 823 77 L 824 76 L 825 76 L 826 76 L 826 75 L 826 75 L 826 75 L 827 74 L 828 74 L 828 74 L 828 73 L 830 73 L 832 72 L 832 72 L 832 72 L 832 71 L 832 71 L 832 71 L 832 70 L 832 70 L 832 70 L 832 69 L 832 69 L 832 68 L 832 68 L 832 68 L 832 67 L 832 67 L 832 67 L 833 66 L 833 66 L 833 66 L 834 65 L 834 65 L 834 64 L 834 64 L 835 64 L 835 63 L 835 63 L 836 63 L 836 62 L 836 62 L 836 62 L 836 61 L 836 61 L 837 60 L 838 60 L 841 60 L 841 59 L 841 59 L 842 59 L 843 58 L 843 58 L 844 58 L 846 57 L 847 57 L 848 56 L 848 56 L 848 56 L 848 55 L 848 55 L 848 55 L 848 54 L 850 54 L 851 54 L 851 53 L 855 53 L 857 52 L 858 52 L 861 52 L 862 51 L 863 51 L 863 51 L 863 50 L 863 50 L 864 50 L 864 49 L 864 49 L 865 49 L 866 48 L 866 48 L 866 47 L 866 47 L 867 47 L 867 46 L 867 46 L 867 46 L 867 45 L 868 45 L 868 45 L 868 44 L 870 44 L 870 43 L 870 43 L 871 43 L 871 42 L 871 42 L 872 42 L 873 41 L 873 41 L 873 41 L 874 40 L 874 40 L 875 39 L 879 39 L 880 39 L 881 38 L 884 38 L 885 38 L 886 37 L 889 37 L 890 37 L 891 36 L 894 36 L 899 35 L 900 35 L 902 35 L 904 34 L 906 34 L 906 34 L 907 33 L 909 33 L 909 33 L 910 32 L 911 32 L 912 31 L 914 31 L 915 31 L 915 30 L 915 30 L 916 30 L 916 29 L 917 29 L 921 29 L 921 28 L 922 28 L 923 27 L 924 27 L 925 27 L 926 26 L 927 26 L 927 26 L 927 25 L 927 25 L 928 25 L 929 24 L 930 24 L 930 23 L 932 23 L 932 23 L 932 22 L 933 22 L 934 22 L 934 21 L 934 21 L 935 21 L 936 20 L 936 20 L 936 19 L 936 19 L 936 19 L 937 18 L 937 18 L 939 18 L 941 17 L 941 17 L 942 17 L 945 16 L 945 16"></path><path stroke-width="2" d="M 945 346 L 945.000000 15.000000" /><path stroke-width="2" d="M 945 346 L 945.000000 15.000000"></path><path d="M 945 346 L 950 346" stroke-width="2" /><path stroke-width="2" d="M 945 346 L 950 346"></path><text y="352" xmlns="http://www.w3.org/2000/svg" x="955">0</text><path stroke-width="2" d="M 945 309 L 950 309" /><path stroke-width="2" d="M 945 309 L 950 309"></path><text y="315" xmlns="http://www.w3.org/2000/svg" x="955">102</text><path d="M 945 272 L 950 272" stroke-width="2" /><path stroke-width="2" d="M 945 272 L 950 272"></path><text y="278" xmlns="http://www.w3.org/2000/svg" x="955">203</text><path stroke-width="2" d="M 945 235 L 950 235" /><path stroke-width="2" d="M 945 235 L 950 235"></path><text x="955" y="241" xmlns="http://www.w3.org/2000/svg">304</text><path stroke-width="2" d="M 945 199 L 950 199" /><path stroke-width="2" d="M 945 199 L 950 199"></path><text xmlns="http://www.w3.org/2000/svg" x="955" y="205">405</text><path stroke-width="2" d="M 945 162 L 950 162" /><path stroke-width="2" d="M 945 162 L 950 162"></path><text xmlns="http://www.w3.org/2000/svg" x="955" y="168">506</text><path stroke-width="2" d="M 945 125 L 950 125" /><path stroke-width="2" d="M 945 125 L 950 125"></path><text xmlns="http://www.w3.org/2000/svg" x="955" y="131">607</text><path stroke-width="2" d="M 945 89 L 950 89" /><path stroke-width="2" d="M 945 89 L 950 89"></path><text xmlns="http://www.w3.org/2000/svg" x="955" y="95">708</text><path stroke-width="2" d="M 945 52 L 950 52" /><path stroke-width="2" d="M 945 52 L 950 52"></path><text xmlns="http://www.w3.org/2000/svg" x="955" y="58">809</text><path d="M 945 16 L 950 16" stroke-width="2" /><path d="M 945 16 L 950 16" stroke-width="2"></path><text xmlns="http://www.w3.org/2000/svg" x="955" y="22">910</text><text xmlns="http://www.w3.org/2000/svg" x="987" y="175" transform="rotate(90.00,987,175)">Stargazers</text><path stroke-width="2" d="M 57.000000 346.000000 L 945 346" /><path stroke-width="2" d="M 57.000000 346.000000 L 945 346"></path><path stroke-width="2" d="M 58 346 L 58 351" /><path stroke-width="2" d="M 58 346 L 58 351"></path><text xmlns="http://www.w3.org/2000/svg" x="25" y="368">2023-04-02</text><path stroke-width="2" d="M 157 346 L 157 351" /><path stroke-width="2" d="M 157 346 L 157 351"></path><text y="368" xmlns="http://www.w3.org/2000/svg" x="124">2023-06-21</text><path stroke-width="2" d="M 256 346 L 256 351" /><path d="M 256 346 L 256 351" stroke-width="2"></path><text xmlns="http://www.w3.org/2000/svg" x="223" y="368">2023-09-09</text><path d="M 354 346 L 354 351" stroke-width="2" /><path stroke-width="2" d="M 354 346 L 354 351"></path><text xmlns="http://www.w3.org/2000/svg" x="321" y="368">2023-11-28</text><path stroke-width="2" d="M 453 346 L 453 351" /><path stroke-width="2" d="M 453 346 L 453 351"></path><text xmlns="http://www.w3.org/2000/svg" x="420" y="368">2024-02-16</text><path stroke-width="2" d="M 551 346 L 551 351" /><path d="M 551 346 L 551 351" stroke-width="2"></path><text xmlns="http://www.w3.org/2000/svg" x="518" y="368">2024-05-06</text><path stroke-width="2" d="M 650 346 L 650 351" /><path stroke-width="2" d="M 650 346 L 650 351"></path><text y="368" xmlns="http://www.w3.org/2000/svg" x="617">2024-07-25</text><path stroke-width="2" d="M 748 346 L 748 351" /><path stroke-width="2" d="M 748 346 L 748 351"></path><text xmlns="http://www.w3.org/2000/svg" x="715" y="368">2024-10-13</text><path stroke-width="2" d="M 847 346 L 847 351" /><path stroke-width="2" d="M 847 346 L 847 351"></path><text xmlns="http://www.w3.org/2000/svg" x="814" y="368">2025-01-01</text><path d="M 945 346 L 945 351" stroke-width="2" /><path stroke-width="2" d="M 945 346 L 945 351"></path><text xmlns="http://www.w3.org/2000/svg" x="912" y="368">2025-03-22</text><text xmlns="http://www.w3.org/2000/svg" x="487" y="390">Time</text></svg>