<svg xmlns="http://www.w3.org/2000/svg" xmlns:xlink="http://www.w3.org/1999/xlink" width="1024px" height="400px"><style type="text/css">
path { fill: none; stroke: rgb(51,51,51); }
path.series { stroke: #6b63ff; }
rect.background { fill: rgb(255,255,255); stroke: none; }

text {
	stroke-width: 0;
	stroke: none;
	fill: rgba(51,51,51,1.0);
	font-size: 12.8px;
	font-family: 'Roboto Medium', sans-serif;
}
</style><rect class="background" rx="8" x="0" y="0" width="1024px" height="400px" /><rect height="400px" class="background" rx="8" x="0" y="0" width="1024px"></rect><path stroke-width="2" class="series" d="M 58 345 L 60 345 L 71 345 L 71 344 L 71 344 L 71 344 L 71 344 L 71 343 L 71 343 L 71 343 L 71 342 L 71 342 L 71 342 L 71 342 L 71 341 L 71 341 L 71 341 L 72 341 L 72 340 L 72 340 L 72 340 L 73 339 L 73 339 L 74 339 L 74 339 L 74 338 L 74 338 L 75 338 L 76 338 L 76 337 L 77 337 L 78 337 L 81 336 L 81 336 L 81 336 L 81 336 L 81 335 L 83 335 L 84 335 L 84 335 L 86 334 L 89 334 L 90 334 L 94 333 L 96 333 L 98 333 L 101 333 L 102 332 L 112 332 L 113 332 L 114 331 L 114 331 L 114 331 L 114 331 L 114 330 L 114 330 L 114 330 L 114 330 L 114 329 L 114 329 L 114 329 L 114 328 L 114 328 L 115 328 L 115 328 L 115 327 L 115 327 L 115 327 L 115 327 L 115 326 L 115 326 L 115 326 L 115 325 L 115 325 L 115 325 L 115 325 L 115 324 L 115 324 L 115 324 L 115 324 L 115 323 L 115 323 L 115 323 L 115 322 L 115 322 L 115 322 L 115 322 L 115 321 L 115 321 L 115 321 L 115 320 L 115 320 L 115 320 L 115 320 L 115 319 L 115 319 L 115 319 L 115 319 L 115 318 L 115 318 L 116 318 L 116 317 L 116 317 L 116 317 L 116 317 L 116 316 L 116 316 L 116 316 L 116 316 L 116 315 L 116 315 L 116 315 L 116 314 L 116 314 L 116 314 L 116 314 L 116 313 L 116 313 L 116 313 L 116 313 L 117 312 L 117 312 L 117 312 L 118 311 L 118 311 L 118 311 L 120 311 L 120 310 L 120 310 L 121 310 L 121 309 L 123 309 L 124 309 L 125 309 L 126 308 L 127 308 L 128 308 L 128 308 L 128 307 L 130 307 L 130 307 L 130 306 L 131 306 L 132 306 L 132 306 L 132 305 L 132 305 L 133 305 L 133 305 L 134 304 L 134 304 L 135 304 L 135 303 L 135 303 L 135 303 L 137 303 L 137 302 L 139 302 L 139 302 L 140 302 L 141 301 L 141 301 L 141 301 L 142 300 L 146 300 L 146 300 L 147 300 L 151 299 L 151 299 L 151 299 L 151 298 L 151 298 L 152 298 L 153 298 L 154 297 L 154 297 L 159 297 L 160 297 L 161 296 L 163 296 L 164 296 L 164 295 L 164 295 L 168 295 L 172 295 L 176 294 L 176 294 L 176 294 L 176 294 L 177 293 L 183 293 L 186 293 L 186 292 L 189 292 L 189 292 L 189 292 L 196 291 L 196 291 L 196 291 L 197 291 L 197 290 L 200 290 L 201 290 L 202 289 L 203 289 L 207 289 L 207 289 L 208 288 L 208 288 L 208 288 L 208 287 L 210 287 L 214 287 L 222 287 L 225 286 L 227 286 L 227 286 L 229 286 L 229 285 L 229 285 L 229 285 L 229 284 L 229 284 L 229 284 L 229 284 L 229 283 L 229 283 L 229 283 L 229 283 L 229 282 L 229 282 L 230 282 L 231 281 L 231 281 L 231 281 L 231 281 L 232 280 L 232 280 L 232 280 L 232 280 L 232 279 L 232 279 L 232 279 L 233 278 L 233 278 L 234 278 L 234 278 L 234 277 L 234 277 L 234 277 L 235 276 L 235 276 L 235 276 L 235 276 L 236 275 L 236 275 L 236 275 L 237 275 L 238 274 L 239 274 L 240 274 L 240 273 L 241 273 L 241 273 L 241 273 L 241 272 L 241 272 L 242 272 L 242 272 L 244 271 L 244 271 L 244 271 L 245 270 L 246 270 L 246 270 L 248 270 L 248 269 L 249 269 L 249 269 L 249 269 L 252 268 L 253 268 L 253 268 L 255 267 L 257 267 L 259 267 L 260 267 L 260 266 L 261 266 L 261 266 L 261 265 L 263 265 L 264 265 L 265 265 L 265 264 L 267 264 L 267 264 L 267 264 L 267 263 L 268 263 L 268 263 L 268 262 L 269 262 L 269 262 L 269 262 L 269 261 L 272 261 L 276 261 L 276 261 L 276 260 L 278 260 L 279 260 L 280 259 L 280 259 L 281 259 L 282 259 L 282 258 L 282 258 L 282 258 L 282 258 L 282 257 L 282 257 L 282 257 L 282 256 L 283 256 L 284 256 L 284 256 L 284 255 L 285 255 L 285 255 L 285 254 L 285 254 L 285 254 L 285 254 L 285 253 L 285 253 L 285 253 L 288 253 L 290 252 L 290 252 L 290 252 L 297 251 L 298 251 L 300 251 L 302 251 L 308 250 L 309 250 L 309 250 L 309 250 L 309 249 L 309 249 L 309 249 L 309 248 L 310 248 L 311 248 L 316 248 L 318 247 L 320 247 L 324 247 L 327 247 L 329 246 L 331 246 L 334 246 L 334 245 L 340 245 L 347 245 L 347 245 L 351 244 L 351 244 L 355 244 L 356 243 L 357 243 L 357 243 L 358 243 L 358 242 L 360 242 L 361 242 L 362 242 L 365 241 L 365 241 L 366 241 L 367 240 L 369 240 L 371 240 L 371 240 L 374 239 L 377 239 L 377 239 L 377 239 L 378 238 L 379 238 L 380 238 L 382 237 L 383 237 L 385 237 L 387 237 L 387 236 L 390 236 L 391 236 L 393 236 L 396 235 L 396 235 L 399 235 L 400 234 L 400 234 L 401 234 L 401 234 L 402 233 L 403 233 L 404 233 L 406 232 L 406 232 L 407 232 L 407 232 L 412 231 L 412 231 L 413 231 L 413 231 L 413 230 L 414 230 L 414 230 L 414 229 L 414 229 L 415 229 L 416 229 L 417 228 L 417 228 L 417 228 L 418 228 L 418 227 L 418 227 L 419 227 L 419 226 L 419 226 L 420 226 L 420 226 L 420 225 L 420 225 L 421 225 L 422 225 L 422 224 L 422 224 L 422 224 L 423 223 L 424 223 L 424 223 L 424 223 L 425 222 L 426 222 L 427 222 L 427 221 L 427 221 L 429 221 L 429 221 L 429 220 L 429 220 L 429 220 L 429 220 L 430 219 L 430 219 L 430 219 L 431 218 L 433 218 L 434 218 L 435 218 L 435 217 L 436 217 L 437 217 L 438 217 L 439 216 L 441 216 L 443 216 L 444 215 L 445 215 L 445 215 L 445 215 L 445 214 L 446 214 L 446 214 L 446 214 L 447 213 L 447 213 L 447 213 L 447 212 L 448 212 L 449 212 L 449 212 L 449 211 L 449 211 L 451 211 L 451 210 L 451 210 L 452 210 L 453 210 L 454 209 L 459 209 L 459 209 L 459 209 L 459 208 L 460 208 L 462 208 L 462 207 L 462 207 L 462 207 L 463 207 L 464 206 L 466 206 L 466 206 L 466 206 L 466 205 L 468 205 L 468 205 L 468 204 L 468 204 L 470 204 L 473 204 L 473 203 L 476 203 L 476 203 L 476 203 L 479 202 L 479 202 L 481 202 L 482 201 L 484 201 L 484 201 L 484 201 L 485 200 L 485 200 L 485 200 L 485 199 L 486 199 L 486 199 L 486 199 L 487 198 L 487 198 L 487 198 L 487 198 L 488 197 L 488 197 L 492 197 L 492 196 L 496 196 L 497 196 L 497 196 L 498 195 L 498 195 L 500 195 L 501 195 L 501 194 L 501 194 L 501 194 L 501 193 L 502 193 L 502 193 L 502 193 L 502 192 L 502 192 L 502 192 L 502 192 L 503 191 L 503 191 L 504 191 L 504 190 L 505 190 L 505 190 L 506 190 L 506 189 L 506 189 L 506 189 L 507 188 L 509 188 L 509 188 L 509 188 L 509 187 L 509 187 L 510 187 L 510 187 L 510 186 L 511 186 L 513 186 L 514 185 L 516 185 L 517 185 L 518 185 L 521 184 L 523 184 L 523 184 L 525 184 L 528 183 L 528 183 L 528 183 L 532 182 L 533 182 L 533 182 L 533 182 L 534 181 L 540 181 L 540 181 L 540 181 L 540 180 L 541 180 L 541 180 L 542 179 L 542 179 L 542 179 L 543 179 L 543 178 L 543 178 L 544 178 L 544 177 L 544 177 L 544 177 L 544 177 L 544 176 L 544 176 L 546 176 L 547 176 L 547 175 L 547 175 L 547 175 L 548 174 L 548 174 L 549 174 L 549 174 L 550 173 L 550 173 L 550 173 L 550 173 L 552 172 L 552 172 L 553 172 L 553 171 L 553 171 L 554 171 L 554 171 L 554 170 L 555 170 L 555 170 L 555 170 L 555 169 L 556 169 L 556 169 L 556 168 L 557 168 L 558 168 L 558 168 L 558 167 L 558 167 L 558 167 L 559 166 L 559 166 L 559 166 L 560 166 L 560 165 L 560 165 L 560 165 L 561 165 L 561 164 L 561 164 L 561 164 L 561 163 L 561 163 L 561 163 L 561 163 L 561 162 L 561 162 L 563 162 L 564 162 L 566 161 L 566 161 L 566 161 L 566 160 L 567 160 L 567 160 L 568 160 L 568 159 L 570 159 L 572 159 L 572 159 L 573 158 L 573 158 L 574 158 L 574 157 L 574 157 L 575 157 L 575 157 L 575 156 L 575 156 L 575 156 L 575 155 L 575 155 L 575 155 L 575 155 L 575 154 L 576 154 L 576 154 L 576 154 L 576 153 L 577 153 L 577 153 L 578 152 L 579 152 L 579 152 L 579 152 L 580 151 L 580 151 L 581 151 L 583 151 L 583 150 L 583 150 L 583 150 L 583 149 L 585 149 L 586 149 L 587 149 L 588 148 L 588 148 L 588 148 L 588 148 L 589 147 L 592 147 L 594 147 L 596 146 L 597 146 L 598 146 L 599 146 L 599 145 L 599 145 L 600 145 L 600 144 L 600 144 L 601 144 L 601 144 L 601 143 L 602 143 L 604 143 L 604 143 L 604 142 L 604 142 L 604 142 L 604 141 L 604 141 L 604 141 L 604 141 L 604 140 L 604 140 L 604 140 L 604 140 L 604 139 L 604 139 L 604 139 L 604 138 L 605 138 L 605 138 L 605 138 L 605 137 L 605 137 L 605 137 L 605 137 L 606 136 L 606 136 L 606 136 L 606 135 L 606 135 L 607 135 L 607 135 L 607 134 L 607 134 L 607 134 L 608 133 L 610 133 L 610 133 L 610 133 L 611 132 L 611 132 L 611 132 L 612 132 L 614 131 L 614 131 L 615 131 L 615 130 L 615 130 L 615 130 L 615 130 L 615 129 L 615 129 L 617 129 L 617 129 L 617 128 L 620 128 L 621 128 L 622 127 L 624 127 L 625 127 L 625 127 L 625 126 L 625 126 L 626 126 L 626 126 L 626 125 L 627 125 L 627 125 L 628 124 L 628 124 L 628 124 L 628 124 L 628 123 L 628 123 L 628 123 L 628 122 L 629 122 L 629 122 L 629 122 L 629 121 L 630 121 L 631 121 L 631 121 L 631 120 L 631 120 L 632 120 L 632 119 L 633 119 L 633 119 L 633 119 L 633 118 L 634 118 L 634 118 L 637 118 L 638 117 L 641 117 L 641 117 L 642 116 L 644 116 L 645 116 L 645 116 L 647 115 L 651 115 L 652 115 L 653 115 L 654 114 L 656 114 L 656 114 L 656 113 L 658 113 L 658 113 L 659 113 L 659 112 L 660 112 L 661 112 L 662 111 L 662 111 L 663 111 L 663 111 L 663 110 L 664 110 L 666 110 L 666 110 L 667 109 L 668 109 L 668 109 L 669 108 L 670 108 L 671 108 L 671 108 L 671 107 L 671 107 L 672 107 L 672 107 L 673 106 L 673 106 L 674 106 L 674 105 L 674 105 L 675 105 L 676 105 L 676 104 L 676 104 L 676 104 L 677 104 L 677 103 L 677 103 L 677 103 L 677 102 L 678 102 L 679 102 L 681 102 L 681 101 L 683 101 L 684 101 L 685 100 L 686 100 L 687 100 L 689 100 L 691 99 L 692 99 L 693 99 L 693 99 L 694 98 L 696 98 L 698 98 L 698 97 L 698 97 L 698 97 L 698 97 L 698 96 L 699 96 L 700 96 L 700 96 L 701 95 L 701 95 L 701 95 L 706 94 L 707 94 L 708 94 L 709 94 L 710 93 L 711 93 L 711 93 L 712 92 L 712 92 L 712 92 L 713 92 L 713 91 L 713 91 L 714 91 L 714 91 L 714 90 L 715 90 L 715 90 L 717 89 L 719 89 L 719 89 L 723 89 L 724 88 L 724 88 L 725 88 L 725 88 L 725 87 L 726 87 L 726 87 L 728 86 L 729 86 L 731 86 L 731 86 L 731 85 L 731 85 L 732 85 L 733 85 L 735 84 L 735 84 L 735 84 L 735 83 L 736 83 L 736 83 L 736 83 L 737 82 L 737 82 L 738 82 L 739 82 L 739 81 L 740 81 L 740 81 L 740 80 L 741 80 L 741 80 L 741 80 L 744 79 L 747 79 L 747 79 L 750 78 L 751 78 L 753 78 L 753 78 L 754 77 L 754 77 L 755 77 L 756 77 L 757 76 L 759 76 L 759 76 L 762 75 L 766 75 L 766 75 L 766 75 L 766 74 L 767 74 L 768 74 L 768 74 L 768 73 L 775 73 L 778 73 L 778 72 L 779 72 L 780 72 L 782 72 L 784 71 L 785 71 L 785 71 L 785 71 L 787 70 L 791 70 L 791 70 L 792 69 L 793 69 L 795 69 L 796 69 L 796 68 L 796 68 L 796 68 L 797 67 L 797 67 L 799 67 L 801 67 L 801 66 L 801 66 L 802 66 L 804 66 L 807 65 L 808 65 L 808 65 L 810 64 L 810 64 L 810 64 L 810 64 L 810 63 L 811 63 L 811 63 L 812 63 L 814 62 L 814 62 L 814 62 L 814 61 L 814 61 L 814 61 L 815 61 L 815 60 L 815 60 L 815 60 L 815 60 L 815 59 L 816 59 L 816 59 L 817 58 L 817 58 L 817 58 L 817 58 L 817 57 L 818 57 L 823 57 L 823 56 L 824 56 L 825 56 L 825 56 L 825 55 L 825 55 L 825 55 L 825 55 L 825 54 L 825 54 L 825 54 L 825 53 L 825 53 L 825 53 L 825 53 L 825 52 L 825 52 L 825 52 L 825 52 L 826 51 L 826 51 L 826 51 L 827 50 L 828 50 L 828 50 L 829 50 L 830 49 L 831 49 L 831 49 L 832 49 L 832 48 L 833 48 L 833 48 L 833 47 L 835 47 L 836 47 L 837 47 L 837 46 L 838 46 L 838 46 L 838 45 L 840 45 L 840 45 L 841 45 L 842 44 L 844 44 L 844 44 L 844 44 L 845 43 L 845 43 L 845 43 L 846 42 L 847 42 L 848 42 L 850 42 L 854 41 L 854 41 L 854 41 L 858 41 L 858 40 L 859 40 L 859 40 L 859 39 L 859 39 L 860 39 L 861 39 L 862 38 L 863 38 L 863 38 L 863 38 L 863 37 L 864 37 L 864 37 L 868 36 L 868 36 L 869 36 L 870 36 L 871 35 L 871 35 L 877 35 L 877 34 L 878 34 L 878 34 L 879 34 L 880 33 L 881 33 L 882 33 L 882 33 L 882 32 L 882 32 L 882 32 L 885 31 L 887 31 L 888 31 L 890 31 L 891 30 L 891 30 L 891 30 L 891 30 L 892 29 L 892 29 L 892 29 L 894 28 L 894 28 L 896 28 L 897 28 L 897 27 L 897 27 L 900 27 L 900 27 L 902 26 L 902 26 L 903 26 L 907 25 L 909 25 L 913 25 L 914 25 L 916 24 L 917 24 L 917 24 L 918 23 L 918 23 L 921 23 L 921 23 L 922 22 L 922 22 L 922 22 L 922 22 L 923 21 L 924 21 L 924 21 L 924 20 L 925 20 L 925 20 L 926 20 L 926 19 L 926 19 L 927 19 L 928 19 L 929 18 L 929 18 L 929 18 L 929 17 L 930 17 L 933 17 L 934 17 L 934 16 L 937 16 L 937 16" /><path stroke-width="2" class="series" d="M 58 345 L 60 345 L 71 345 L 71 344 L 71 344 L 71 344 L 71 344 L 71 343 L 71 343 L 71 343 L 71 342 L 71 342 L 71 342 L 71 342 L 71 341 L 71 341 L 71 341 L 72 341 L 72 340 L 72 340 L 72 340 L 73 339 L 73 339 L 74 339 L 74 339 L 74 338 L 74 338 L 75 338 L 76 338 L 76 337 L 77 337 L 78 337 L 81 336 L 81 336 L 81 336 L 81 336 L 81 335 L 83 335 L 84 335 L 84 335 L 86 334 L 89 334 L 90 334 L 94 333 L 96 333 L 98 333 L 101 333 L 102 332 L 112 332 L 113 332 L 114 331 L 114 331 L 114 331 L 114 331 L 114 330 L 114 330 L 114 330 L 114 330 L 114 329 L 114 329 L 114 329 L 114 328 L 114 328 L 115 328 L 115 328 L 115 327 L 115 327 L 115 327 L 115 327 L 115 326 L 115 326 L 115 326 L 115 325 L 115 325 L 115 325 L 115 325 L 115 324 L 115 324 L 115 324 L 115 324 L 115 323 L 115 323 L 115 323 L 115 322 L 115 322 L 115 322 L 115 322 L 115 321 L 115 321 L 115 321 L 115 320 L 115 320 L 115 320 L 115 320 L 115 319 L 115 319 L 115 319 L 115 319 L 115 318 L 115 318 L 116 318 L 116 317 L 116 317 L 116 317 L 116 317 L 116 316 L 116 316 L 116 316 L 116 316 L 116 315 L 116 315 L 116 315 L 116 314 L 116 314 L 116 314 L 116 314 L 116 313 L 116 313 L 116 313 L 116 313 L 117 312 L 117 312 L 117 312 L 118 311 L 118 311 L 118 311 L 120 311 L 120 310 L 120 310 L 121 310 L 121 309 L 123 309 L 124 309 L 125 309 L 126 308 L 127 308 L 128 308 L 128 308 L 128 307 L 130 307 L 130 307 L 130 306 L 131 306 L 132 306 L 132 306 L 132 305 L 132 305 L 133 305 L 133 305 L 134 304 L 134 304 L 135 304 L 135 303 L 135 303 L 135 303 L 137 303 L 137 302 L 139 302 L 139 302 L 140 302 L 141 301 L 141 301 L 141 301 L 142 300 L 146 300 L 146 300 L 147 300 L 151 299 L 151 299 L 151 299 L 151 298 L 151 298 L 152 298 L 153 298 L 154 297 L 154 297 L 159 297 L 160 297 L 161 296 L 163 296 L 164 296 L 164 295 L 164 295 L 168 295 L 172 295 L 176 294 L 176 294 L 176 294 L 176 294 L 177 293 L 183 293 L 186 293 L 186 292 L 189 292 L 189 292 L 189 292 L 196 291 L 196 291 L 196 291 L 197 291 L 197 290 L 200 290 L 201 290 L 202 289 L 203 289 L 207 289 L 207 289 L 208 288 L 208 288 L 208 288 L 208 287 L 210 287 L 214 287 L 222 287 L 225 286 L 227 286 L 227 286 L 229 286 L 229 285 L 229 285 L 229 285 L 229 284 L 229 284 L 229 284 L 229 284 L 229 283 L 229 283 L 229 283 L 229 283 L 229 282 L 229 282 L 230 282 L 231 281 L 231 281 L 231 281 L 231 281 L 232 280 L 232 280 L 232 280 L 232 280 L 232 279 L 232 279 L 232 279 L 233 278 L 233 278 L 234 278 L 234 278 L 234 277 L 234 277 L 234 277 L 235 276 L 235 276 L 235 276 L 235 276 L 236 275 L 236 275 L 236 275 L 237 275 L 238 274 L 239 274 L 240 274 L 240 273 L 241 273 L 241 273 L 241 273 L 241 272 L 241 272 L 242 272 L 242 272 L 244 271 L 244 271 L 244 271 L 245 270 L 246 270 L 246 270 L 248 270 L 248 269 L 249 269 L 249 269 L 249 269 L 252 268 L 253 268 L 253 268 L 255 267 L 257 267 L 259 267 L 260 267 L 260 266 L 261 266 L 261 266 L 261 265 L 263 265 L 264 265 L 265 265 L 265 264 L 267 264 L 267 264 L 267 264 L 267 263 L 268 263 L 268 263 L 268 262 L 269 262 L 269 262 L 269 262 L 269 261 L 272 261 L 276 261 L 276 261 L 276 260 L 278 260 L 279 260 L 280 259 L 280 259 L 281 259 L 282 259 L 282 258 L 282 258 L 282 258 L 282 258 L 282 257 L 282 257 L 282 257 L 282 256 L 283 256 L 284 256 L 284 256 L 284 255 L 285 255 L 285 255 L 285 254 L 285 254 L 285 254 L 285 254 L 285 253 L 285 253 L 285 253 L 288 253 L 290 252 L 290 252 L 290 252 L 297 251 L 298 251 L 300 251 L 302 251 L 308 250 L 309 250 L 309 250 L 309 250 L 309 249 L 309 249 L 309 249 L 309 248 L 310 248 L 311 248 L 316 248 L 318 247 L 320 247 L 324 247 L 327 247 L 329 246 L 331 246 L 334 246 L 334 245 L 340 245 L 347 245 L 347 245 L 351 244 L 351 244 L 355 244 L 356 243 L 357 243 L 357 243 L 358 243 L 358 242 L 360 242 L 361 242 L 362 242 L 365 241 L 365 241 L 366 241 L 367 240 L 369 240 L 371 240 L 371 240 L 374 239 L 377 239 L 377 239 L 377 239 L 378 238 L 379 238 L 380 238 L 382 237 L 383 237 L 385 237 L 387 237 L 387 236 L 390 236 L 391 236 L 393 236 L 396 235 L 396 235 L 399 235 L 400 234 L 400 234 L 401 234 L 401 234 L 402 233 L 403 233 L 404 233 L 406 232 L 406 232 L 407 232 L 407 232 L 412 231 L 412 231 L 413 231 L 413 231 L 413 230 L 414 230 L 414 230 L 414 229 L 414 229 L 415 229 L 416 229 L 417 228 L 417 228 L 417 228 L 418 228 L 418 227 L 418 227 L 419 227 L 419 226 L 419 226 L 420 226 L 420 226 L 420 225 L 420 225 L 421 225 L 422 225 L 422 224 L 422 224 L 422 224 L 423 223 L 424 223 L 424 223 L 424 223 L 425 222 L 426 222 L 427 222 L 427 221 L 427 221 L 429 221 L 429 221 L 429 220 L 429 220 L 429 220 L 429 220 L 430 219 L 430 219 L 430 219 L 431 218 L 433 218 L 434 218 L 435 218 L 435 217 L 436 217 L 437 217 L 438 217 L 439 216 L 441 216 L 443 216 L 444 215 L 445 215 L 445 215 L 445 215 L 445 214 L 446 214 L 446 214 L 446 214 L 447 213 L 447 213 L 447 213 L 447 212 L 448 212 L 449 212 L 449 212 L 449 211 L 449 211 L 451 211 L 451 210 L 451 210 L 452 210 L 453 210 L 454 209 L 459 209 L 459 209 L 459 209 L 459 208 L 460 208 L 462 208 L 462 207 L 462 207 L 462 207 L 463 207 L 464 206 L 466 206 L 466 206 L 466 206 L 466 205 L 468 205 L 468 205 L 468 204 L 468 204 L 470 204 L 473 204 L 473 203 L 476 203 L 476 203 L 476 203 L 479 202 L 479 202 L 481 202 L 482 201 L 484 201 L 484 201 L 484 201 L 485 200 L 485 200 L 485 200 L 485 199 L 486 199 L 486 199 L 486 199 L 487 198 L 487 198 L 487 198 L 487 198 L 488 197 L 488 197 L 492 197 L 492 196 L 496 196 L 497 196 L 497 196 L 498 195 L 498 195 L 500 195 L 501 195 L 501 194 L 501 194 L 501 194 L 501 193 L 502 193 L 502 193 L 502 193 L 502 192 L 502 192 L 502 192 L 502 192 L 503 191 L 503 191 L 504 191 L 504 190 L 505 190 L 505 190 L 506 190 L 506 189 L 506 189 L 506 189 L 507 188 L 509 188 L 509 188 L 509 188 L 509 187 L 509 187 L 510 187 L 510 187 L 510 186 L 511 186 L 513 186 L 514 185 L 516 185 L 517 185 L 518 185 L 521 184 L 523 184 L 523 184 L 525 184 L 528 183 L 528 183 L 528 183 L 532 182 L 533 182 L 533 182 L 533 182 L 534 181 L 540 181 L 540 181 L 540 181 L 540 180 L 541 180 L 541 180 L 542 179 L 542 179 L 542 179 L 543 179 L 543 178 L 543 178 L 544 178 L 544 177 L 544 177 L 544 177 L 544 177 L 544 176 L 544 176 L 546 176 L 547 176 L 547 175 L 547 175 L 547 175 L 548 174 L 548 174 L 549 174 L 549 174 L 550 173 L 550 173 L 550 173 L 550 173 L 552 172 L 552 172 L 553 172 L 553 171 L 553 171 L 554 171 L 554 171 L 554 170 L 555 170 L 555 170 L 555 170 L 555 169 L 556 169 L 556 169 L 556 168 L 557 168 L 558 168 L 558 168 L 558 167 L 558 167 L 558 167 L 559 166 L 559 166 L 559 166 L 560 166 L 560 165 L 560 165 L 560 165 L 561 165 L 561 164 L 561 164 L 561 164 L 561 163 L 561 163 L 561 163 L 561 163 L 561 162 L 561 162 L 563 162 L 564 162 L 566 161 L 566 161 L 566 161 L 566 160 L 567 160 L 567 160 L 568 160 L 568 159 L 570 159 L 572 159 L 572 159 L 573 158 L 573 158 L 574 158 L 574 157 L 574 157 L 575 157 L 575 157 L 575 156 L 575 156 L 575 156 L 575 155 L 575 155 L 575 155 L 575 155 L 575 154 L 576 154 L 576 154 L 576 154 L 576 153 L 577 153 L 577 153 L 578 152 L 579 152 L 579 152 L 579 152 L 580 151 L 580 151 L 581 151 L 583 151 L 583 150 L 583 150 L 583 150 L 583 149 L 585 149 L 586 149 L 587 149 L 588 148 L 588 148 L 588 148 L 588 148 L 589 147 L 592 147 L 594 147 L 596 146 L 597 146 L 598 146 L 599 146 L 599 145 L 599 145 L 600 145 L 600 144 L 600 144 L 601 144 L 601 144 L 601 143 L 602 143 L 604 143 L 604 143 L 604 142 L 604 142 L 604 142 L 604 141 L 604 141 L 604 141 L 604 141 L 604 140 L 604 140 L 604 140 L 604 140 L 604 139 L 604 139 L 604 139 L 604 138 L 605 138 L 605 138 L 605 138 L 605 137 L 605 137 L 605 137 L 605 137 L 606 136 L 606 136 L 606 136 L 606 135 L 606 135 L 607 135 L 607 135 L 607 134 L 607 134 L 607 134 L 608 133 L 610 133 L 610 133 L 610 133 L 611 132 L 611 132 L 611 132 L 612 132 L 614 131 L 614 131 L 615 131 L 615 130 L 615 130 L 615 130 L 615 130 L 615 129 L 615 129 L 617 129 L 617 129 L 617 128 L 620 128 L 621 128 L 622 127 L 624 127 L 625 127 L 625 127 L 625 126 L 625 126 L 626 126 L 626 126 L 626 125 L 627 125 L 627 125 L 628 124 L 628 124 L 628 124 L 628 124 L 628 123 L 628 123 L 628 123 L 628 122 L 629 122 L 629 122 L 629 122 L 629 121 L 630 121 L 631 121 L 631 121 L 631 120 L 631 120 L 632 120 L 632 119 L 633 119 L 633 119 L 633 119 L 633 118 L 634 118 L 634 118 L 637 118 L 638 117 L 641 117 L 641 117 L 642 116 L 644 116 L 645 116 L 645 116 L 647 115 L 651 115 L 652 115 L 653 115 L 654 114 L 656 114 L 656 114 L 656 113 L 658 113 L 658 113 L 659 113 L 659 112 L 660 112 L 661 112 L 662 111 L 662 111 L 663 111 L 663 111 L 663 110 L 664 110 L 666 110 L 666 110 L 667 109 L 668 109 L 668 109 L 669 108 L 670 108 L 671 108 L 671 108 L 671 107 L 671 107 L 672 107 L 672 107 L 673 106 L 673 106 L 674 106 L 674 105 L 674 105 L 675 105 L 676 105 L 676 104 L 676 104 L 676 104 L 677 104 L 677 103 L 677 103 L 677 103 L 677 102 L 678 102 L 679 102 L 681 102 L 681 101 L 683 101 L 684 101 L 685 100 L 686 100 L 687 100 L 689 100 L 691 99 L 692 99 L 693 99 L 693 99 L 694 98 L 696 98 L 698 98 L 698 97 L 698 97 L 698 97 L 698 97 L 698 96 L 699 96 L 700 96 L 700 96 L 701 95 L 701 95 L 701 95 L 706 94 L 707 94 L 708 94 L 709 94 L 710 93 L 711 93 L 711 93 L 712 92 L 712 92 L 712 92 L 713 92 L 713 91 L 713 91 L 714 91 L 714 91 L 714 90 L 715 90 L 715 90 L 717 89 L 719 89 L 719 89 L 723 89 L 724 88 L 724 88 L 725 88 L 725 88 L 725 87 L 726 87 L 726 87 L 728 86 L 729 86 L 731 86 L 731 86 L 731 85 L 731 85 L 732 85 L 733 85 L 735 84 L 735 84 L 735 84 L 735 83 L 736 83 L 736 83 L 736 83 L 737 82 L 737 82 L 738 82 L 739 82 L 739 81 L 740 81 L 740 81 L 740 80 L 741 80 L 741 80 L 741 80 L 744 79 L 747 79 L 747 79 L 750 78 L 751 78 L 753 78 L 753 78 L 754 77 L 754 77 L 755 77 L 756 77 L 757 76 L 759 76 L 759 76 L 762 75 L 766 75 L 766 75 L 766 75 L 766 74 L 767 74 L 768 74 L 768 74 L 768 73 L 775 73 L 778 73 L 778 72 L 779 72 L 780 72 L 782 72 L 784 71 L 785 71 L 785 71 L 785 71 L 787 70 L 791 70 L 791 70 L 792 69 L 793 69 L 795 69 L 796 69 L 796 68 L 796 68 L 796 68 L 797 67 L 797 67 L 799 67 L 801 67 L 801 66 L 801 66 L 802 66 L 804 66 L 807 65 L 808 65 L 808 65 L 810 64 L 810 64 L 810 64 L 810 64 L 810 63 L 811 63 L 811 63 L 812 63 L 814 62 L 814 62 L 814 62 L 814 61 L 814 61 L 814 61 L 815 61 L 815 60 L 815 60 L 815 60 L 815 60 L 815 59 L 816 59 L 816 59 L 817 58 L 817 58 L 817 58 L 817 58 L 817 57 L 818 57 L 823 57 L 823 56 L 824 56 L 825 56 L 825 56 L 825 55 L 825 55 L 825 55 L 825 55 L 825 54 L 825 54 L 825 54 L 825 53 L 825 53 L 825 53 L 825 53 L 825 52 L 825 52 L 825 52 L 825 52 L 826 51 L 826 51 L 826 51 L 827 50 L 828 50 L 828 50 L 829 50 L 830 49 L 831 49 L 831 49 L 832 49 L 832 48 L 833 48 L 833 48 L 833 47 L 835 47 L 836 47 L 837 47 L 837 46 L 838 46 L 838 46 L 838 45 L 840 45 L 840 45 L 841 45 L 842 44 L 844 44 L 844 44 L 844 44 L 845 43 L 845 43 L 845 43 L 846 42 L 847 42 L 848 42 L 850 42 L 854 41 L 854 41 L 854 41 L 858 41 L 858 40 L 859 40 L 859 40 L 859 39 L 859 39 L 860 39 L 861 39 L 862 38 L 863 38 L 863 38 L 863 38 L 863 37 L 864 37 L 864 37 L 868 36 L 868 36 L 869 36 L 870 36 L 871 35 L 871 35 L 877 35 L 877 34 L 878 34 L 878 34 L 879 34 L 880 33 L 881 33 L 882 33 L 882 33 L 882 32 L 882 32 L 882 32 L 885 31 L 887 31 L 888 31 L 890 31 L 891 30 L 891 30 L 891 30 L 891 30 L 892 29 L 892 29 L 892 29 L 894 28 L 894 28 L 896 28 L 897 28 L 897 27 L 897 27 L 900 27 L 900 27 L 902 26 L 902 26 L 903 26 L 907 25 L 909 25 L 913 25 L 914 25 L 916 24 L 917 24 L 917 24 L 918 23 L 918 23 L 921 23 L 921 23 L 922 22 L 922 22 L 922 22 L 922 22 L 923 21 L 924 21 L 924 21 L 924 20 L 925 20 L 925 20 L 926 20 L 926 19 L 926 19 L 927 19 L 928 19 L 929 18 L 929 18 L 929 18 L 929 17 L 930 17 L 933 17 L 934 17 L 934 16 L 937 16 L 937 16"></path><path stroke-width="2" d="M 937 346 L 937.000000 15.000000" /><path stroke-width="2" d="M 937 346 L 937.000000 15.000000"></path><path d="M 937 346 L 942 346" stroke-width="2" /><path stroke-width="2" d="M 937 346 L 942 346"></path><text xmlns="http://www.w3.org/2000/svg" x="947" y="352">0</text><path stroke-width="2" d="M 937 307 L 942 307" /><path stroke-width="2" d="M 937 307 L 942 307"></path><text xmlns="http://www.w3.org/2000/svg" x="947" y="313">140</text><path stroke-width="2" d="M 937 271 L 942 271" /><path stroke-width="2" d="M 937 271 L 942 271"></path><text x="947" y="277" xmlns="http://www.w3.org/2000/svg">270</text><path stroke-width="2" d="M 937 236 L 942 236" /><path stroke-width="2" d="M 937 236 L 942 236"></path><text xmlns="http://www.w3.org/2000/svg" x="947" y="242">400</text><path stroke-width="2" d="M 937 197 L 942 197" /><path d="M 937 197 L 942 197" stroke-width="2"></path><text y="203" xmlns="http://www.w3.org/2000/svg" x="947">540</text><path d="M 937 161 L 942 161" stroke-width="2" /><path stroke-width="2" d="M 937 161 L 942 161"></path><text x="947" y="167" xmlns="http://www.w3.org/2000/svg">670</text><path stroke-width="2" d="M 937 126 L 942 126" /><path stroke-width="2" d="M 937 126 L 942 126"></path><text xmlns="http://www.w3.org/2000/svg" x="947" y="132">800</text><path d="M 937 87 L 942 87" stroke-width="2" /><path stroke-width="2" d="M 937 87 L 942 87"></path><text xmlns="http://www.w3.org/2000/svg" x="947" y="93">940</text><path stroke-width="2" d="M 937 51 L 942 51" /><path stroke-width="2" d="M 937 51 L 942 51"></path><text xmlns="http://www.w3.org/2000/svg" x="947" y="57">1070</text><path stroke-width="2" d="M 937 16 L 942 16" /><path d="M 937 16 L 942 16" stroke-width="2"></path><text xmlns="http://www.w3.org/2000/svg" x="947" y="22">1200</text><text x="987" y="175" transform="rotate(90.00,987,175)" xmlns="http://www.w3.org/2000/svg">Stargazers</text><path stroke-width="2" d="M 57.000000 346.000000 L 937 346" /><path stroke-width="2" d="M 57.000000 346.000000 L 937 346"></path><path stroke-width="2" d="M 58 346 L 58 351" /><path stroke-width="2" d="M 58 346 L 58 351"></path><text x="25" y="368" xmlns="http://www.w3.org/2000/svg">2023-04-02</text><path stroke-width="2" d="M 156 346 L 156 351" /><path stroke-width="2" d="M 156 346 L 156 351"></path><text xmlns="http://www.w3.org/2000/svg" x="123" y="368">2023-07-23</text><path stroke-width="2" d="M 254 346 L 254 351" /><path stroke-width="2" d="M 254 346 L 254 351"></path><text x="221" y="368" xmlns="http://www.w3.org/2000/svg">2023-11-13</text><path stroke-width="2" d="M 352 346 L 352 351" /><path stroke-width="2" d="M 352 346 L 352 351"></path><text xmlns="http://www.w3.org/2000/svg" x="319" y="368">2024-03-04</text><path stroke-width="2" d="M 449 346 L 449 351" /><path stroke-width="2" d="M 449 346 L 449 351"></path><text y="368" xmlns="http://www.w3.org/2000/svg" x="416">2024-06-25</text><path stroke-width="2" d="M 547 346 L 547 351" /><path stroke-width="2" d="M 547 346 L 547 351"></path><text xmlns="http://www.w3.org/2000/svg" x="514" y="368">2024-10-15</text><path stroke-width="2" d="M 645 346 L 645 351" /><path stroke-width="2" d="M 645 346 L 645 351"></path><text xmlns="http://www.w3.org/2000/svg" x="612" y="368">2025-02-05</text><path stroke-width="2" d="M 742 346 L 742 351" /><path stroke-width="2" d="M 742 346 L 742 351"></path><text xmlns="http://www.w3.org/2000/svg" x="709" y="368">2025-05-28</text><path stroke-width="2" d="M 840 346 L 840 351" /><path stroke-width="2" d="M 840 346 L 840 351"></path><text xmlns="http://www.w3.org/2000/svg" x="807" y="368">2025-09-17</text><path stroke-width="2" d="M 937 346 L 937 351" /><path stroke-width="2" d="M 937 346 L 937 351"></path><text xmlns="http://www.w3.org/2000/svg" x="904" y="368">2026-01-08</text><text y="390" xmlns="http://www.w3.org/2000/svg" x="483">Time</text></svg>