<svg width="1024px" height="400px" xmlns="http://www.w3.org/2000/svg" xmlns:xlink="http://www.w3.org/1999/xlink"><style type="text/css">
path { fill: none; stroke: rgb(51,51,51); }
path.series { stroke: #6b63ff; }
rect.background { fill: rgb(255,255,255); stroke: none; }

text {
	stroke-width: 0;
	stroke: none;
	fill: rgba(51,51,51,1.0);
	font-size: 12.8px;
	font-family: 'Roboto Medium', sans-serif;
}
</style><rect height="400px" class="background" rx="8" x="0" y="0" width="1024px" /><rect rx="8" x="0" y="0" width="1024px" height="400px" class="background"></rect><path class="series" d="M 58 345 L 61 345 L 79 344 L 79 344 L 79 343 L 79 343 L 79 342 L 79 342 L 79 341 L 79 341 L 80 341 L 80 340 L 80 340 L 80 339 L 80 339 L 80 338 L 80 338 L 80 337 L 80 337 L 81 337 L 82 336 L 82 336 L 83 335 L 84 335 L 84 334 L 84 334 L 85 333 L 86 333 L 88 333 L 88 332 L 89 332 L 91 331 L 96 331 L 96 330 L 96 330 L 96 329 L 96 329 L 96 329 L 100 328 L 101 328 L 102 327 L 105 327 L 109 326 L 111 326 L 119 325 L 121 325 L 125 325 L 130 324 L 132 324 L 148 323 L 149 323 L 149 322 L 151 322 L 152 321 L 152 321 L 152 321 L 152 320 L 152 320 L 152 319 L 152 319 L 152 318 L 152 318 L 152 317 L 152 317 L 152 317 L 153 316 L 153 316 L 153 315 L 153 315 L 153 314 L 153 314 L 153 313 L 153 313 L 153 313 L 153 312 L 153 312 L 153 311 L 153 311 L 153 310 L 153 310 L 153 309 L 153 309 L 153 308 L 153 308 L 153 308 L 153 307 L 153 307 L 153 306 L 153 306 L 153 305 L 153 305 L 153 304 L 153 304 L 153 304 L 153 303 L 153 303 L 153 302 L 153 302 L 154 301 L 154 301 L 154 300 L 154 300 L 154 300 L 154 299 L 155 299 L 155 298 L 156 298 L 156 297 L 156 297 L 156 296 L 156 296 L 156 296 L 156 295 L 156 295 L 156 294 L 156 294 L 156 293 L 156 293 L 156 292 L 156 292 L 156 292 L 156 291 L 156 291 L 156 290 L 158 290 L 158 289 L 158 289 L 158 288 L 162 288 L 162 288 L 162 287 L 163 287 L 164 286 L 166 286 L 169 285 L 170 285 L 172 284 L 173 284 L 175 284 L 175 283 L 176 283 L 178 282 L 178 282 L 179 281 L 181 281 L 181 280 L 182 280 L 182 280 L 183 279 L 183 279 L 184 278 L 186 278 L 186 277 L 186 277 L 187 276 L 187 276 L 188 275 L 190 275 L 191 275 L 194 274 L 195 274 L 195 273 L 197 273 L 197 272 L 197 272 L 199 271 L 206 271 L 206 271 L 207 270 L 214 270 L 214 269 L 214 269 L 214 268 L 215 268 L 216 267 L 218 267 L 219 267 L 219 266 L 227 266 L 229 265 L 231 265 L 233 264 L 235 264 L 235 263 L 236 263 L 242 263 L 248 262 L 256 262 L 256 261 L 256 261 L 257 260 L 257 260 L 259 259 L 268 259 L 273 259 L 273 258 L 277 258 L 278 257 L 278 257 L 289 256 L 289 256 L 290 255 L 290 255 L 292 255 L 295 254 L 296 254 L 298 253 L 300 253 L 302 252 L 308 252 L 308 251 L 310 251 L 310 251 L 310 250 L 310 250 L 314 249 L 320 249 L 333 248 L 338 248 L 341 247 L 341 247 L 343 247 L 345 246 L 345 246 L 345 245 L 345 245 L 345 244 L 345 244 L 345 243 L 345 243 L 345 242 L 345 242 L 345 242 L 345 241 L 345 241 L 346 240 L 346 240 L 348 239 L 348 239 L 349 238 L 349 238 L 349 238 L 350 237 L 350 237 L 350 236 L 350 236 L 350 235 L 351 235 L 351 234 L 352 234 L 352 234 L 353 233 L 353 233 L 353 232 L 353 232 L 353 231 L 354 231 L 355 230 L 355 230 L 355 230 L 356 229 L 356 229 L 356 228 L 357 228 L 359 227 L 359 227 L 361 226 L 364 226 L 364 226 L 365 225 L 365 225 L 365 224 L 365 224 L 365 223 L 367 223 L 367 222 L 369 222 L 370 222 L 370 221 L 372 221 L 374 220 L 374 220 L 377 219 L 378 219 L 378 218 L 379 218 L 379 218 L 384 217 L 385 217 L 386 216 L 389 216 L 391 215 L 396 215 L 397 214 L 397 214 L 398 214 L 399 213 L 399 213 L 402 212 L 404 212 L 406 211 L 406 211 L 408 210 L 409 210 L 409 209 L 409 209 L 409 209 L 410 208 L 410 208 L 410 207 L 412 207 L 412 206 L 412 206 L 413 205 L 418 205 L 423 205 L 423 204 L 423 204 L 427 203 L 429 203 L 430 202 L 431 202 L 432 201 L 433 201 L 433 201 L 433 200 L 433 200 L 433 199 L 434 199 L 434 198 L 435 198 L 435 197 L 435 197 L 438 197 L 438 196 L 438 196 L 438 195 L 439 195 L 439 194 L 439 194 L 439 193 L 439 193 L 439 193 L 439 192 L 439 192 L 439 191 L 444 191 L 447 190 L 447 190 L 448 189 L 460 189 L 461 189 L 464 188 L 467 188 L 475 187 L 477 187 L 479 186 L 480 186 L 480 185 L 480 185 L 480 185 L 480 184 L 480 184 L 480 183 L 482 183 L 483 182 L 492 182 L 494 181 L 498 181 L 505 181 L 510 180 L 514 180 L 517 179 L 522 179 L 522 178 L 532 178 L 543 177 L 543 177 L 550 176 L 551 176 L 556 176 L 558 175 L 561 175 L 561 174 L 562 174 L 562 173 L 565 173 L 566 172 L 569 172 L 574 172 L 574 171 L 575 171 L 576 170 L 580 170 L 584 169 L 584 169 L 588 168 L 593 168 L 594 168 L 594 167 L 596 167 L 597 166 L 598 166 L 602 165 L 604 165 L 607 164 L 610 164 L 610 164 L 616 163 L 617 163 L 620 162 L 625 162 L 625 161 L 631 161 L 632 160 L 632 160 L 633 160 L 634 159 L 636 159 L 637 158 L 639 158 L 642 157 L 643 157 L 644 156 L 644 156 L 653 156 L 653 155 L 653 155 L 654 154 L 654 154 L 655 153 L 655 153 L 656 152 L 656 152 L 658 152 L 658 151 L 660 151 L 661 150 L 662 150 L 662 149 L 663 149 L 663 148 L 664 148 L 664 148 L 664 147 L 665 147 L 665 146 L 665 146 L 666 145 L 667 145 L 669 144 L 669 144 L 669 143 L 670 143 L 670 143 L 672 142 L 673 142 L 673 141 L 674 141 L 676 140 L 677 140 L 678 139 L 678 139 L 678 139 L 681 138 L 681 138 L 681 137 L 681 137 L 682 136 L 682 136 L 682 135 L 683 135 L 683 135 L 684 134 L 688 134 L 689 133 L 691 133 L 691 132 L 694 132 L 695 131 L 696 131 L 698 131 L 701 130 L 704 130 L 707 129 L 707 129 L 708 128 L 708 128 L 708 127 L 709 127 L 709 127 L 709 126 L 710 126 L 710 125 L 711 125 L 711 124 L 713 124 L 714 123 L 714 123 L 715 123 L 715 122 L 718 122 L 719 121 L 719 121 L 720 120 L 721 120 L 724 119 L 727 119 L 731 119 L 731 118 L 731 118 L 731 117 L 734 117 L 737 116 L 737 116 L 737 115 L 737 115 L 738 115 L 740 114 L 743 114 L 744 113 L 744 113 L 744 112 L 746 112 L 747 111 L 747 111 L 747 110 L 747 110 L 750 110 L 754 109 L 755 109 L 759 108 L 759 108 L 760 107 L 764 107 L 766 106 L 769 106 L 771 106 L 773 105 L 774 105 L 774 104 L 775 104 L 775 103 L 775 103 L 775 102 L 776 102 L 777 102 L 777 101 L 778 101 L 778 100 L 778 100 L 779 99 L 781 99 L 781 98 L 787 98 L 787 98 L 793 97 L 795 97 L 796 96 L 797 96 L 797 95 L 800 95 L 801 94 L 802 94 L 802 94 L 803 93 L 803 93 L 803 92 L 803 92 L 803 91 L 804 91 L 804 90 L 804 90 L 804 90 L 805 89 L 805 89 L 806 88 L 806 88 L 807 87 L 808 87 L 808 86 L 809 86 L 810 86 L 810 85 L 810 85 L 811 84 L 813 84 L 816 83 L 816 83 L 816 82 L 816 82 L 816 82 L 817 81 L 818 81 L 818 80 L 819 80 L 821 79 L 824 79 L 828 78 L 829 78 L 831 77 L 835 77 L 839 77 L 840 76 L 843 76 L 848 75 L 848 75 L 848 74 L 853 74 L 855 73 L 856 73 L 856 73 L 857 72 L 867 72 L 867 71 L 868 71 L 868 70 L 869 70 L 870 69 L 871 69 L 871 69 L 872 68 L 873 68 L 873 67 L 873 67 L 874 66 L 874 66 L 874 65 L 874 65 L 875 65 L 875 64 L 875 64 L 876 63 L 877 63 L 879 62 L 880 62 L 880 61 L 880 61 L 881 61 L 882 60 L 883 60 L 883 59 L 885 59 L 885 58 L 885 58 L 885 57 L 887 57 L 887 57 L 889 56 L 889 56 L 890 55 L 891 55 L 891 54 L 892 54 L 892 53 L 892 53 L 893 53 L 893 52 L 894 52 L 895 51 L 895 51 L 897 50 L 897 50 L 897 49 L 897 49 L 898 49 L 898 48 L 899 48 L 899 47 L 899 47 L 901 46 L 901 46 L 901 45 L 902 45 L 902 44 L 902 44 L 902 44 L 902 43 L 902 43 L 903 42 L 903 42 L 903 41 L 904 41 L 904 40 L 906 40 L 908 40 L 910 39 L 911 39 L 911 38 L 911 38 L 912 37 L 914 37 L 914 36 L 915 36 L 918 36 L 921 35 L 921 35 L 923 34 L 924 34 L 924 33 L 925 33 L 925 32 L 926 32 L 926 32 L 926 31 L 926 31 L 926 30 L 926 30 L 926 29 L 926 29 L 927 28 L 927 28 L 927 28 L 927 27 L 927 27 L 927 26 L 928 26 L 928 25 L 929 25 L 929 24 L 930 24 L 932 24 L 932 23 L 933 23 L 933 22 L 935 22 L 935 21 L 936 21 L 939 20 L 940 20 L 940 20 L 940 19 L 940 19 L 940 18 L 943 18 L 945 17" stroke-width="2" /><path stroke-width="2" class="series" d="M 58 345 L 61 345 L 79 344 L 79 344 L 79 343 L 79 343 L 79 342 L 79 342 L 79 341 L 79 341 L 80 341 L 80 340 L 80 340 L 80 339 L 80 339 L 80 338 L 80 338 L 80 337 L 80 337 L 81 337 L 82 336 L 82 336 L 83 335 L 84 335 L 84 334 L 84 334 L 85 333 L 86 333 L 88 333 L 88 332 L 89 332 L 91 331 L 96 331 L 96 330 L 96 330 L 96 329 L 96 329 L 96 329 L 100 328 L 101 328 L 102 327 L 105 327 L 109 326 L 111 326 L 119 325 L 121 325 L 125 325 L 130 324 L 132 324 L 148 323 L 149 323 L 149 322 L 151 322 L 152 321 L 152 321 L 152 321 L 152 320 L 152 320 L 152 319 L 152 319 L 152 318 L 152 318 L 152 317 L 152 317 L 152 317 L 153 316 L 153 316 L 153 315 L 153 315 L 153 314 L 153 314 L 153 313 L 153 313 L 153 313 L 153 312 L 153 312 L 153 311 L 153 311 L 153 310 L 153 310 L 153 309 L 153 309 L 153 308 L 153 308 L 153 308 L 153 307 L 153 307 L 153 306 L 153 306 L 153 305 L 153 305 L 153 304 L 153 304 L 153 304 L 153 303 L 153 303 L 153 302 L 153 302 L 154 301 L 154 301 L 154 300 L 154 300 L 154 300 L 154 299 L 155 299 L 155 298 L 156 298 L 156 297 L 156 297 L 156 296 L 156 296 L 156 296 L 156 295 L 156 295 L 156 294 L 156 294 L 156 293 L 156 293 L 156 292 L 156 292 L 156 292 L 156 291 L 156 291 L 156 290 L 158 290 L 158 289 L 158 289 L 158 288 L 162 288 L 162 288 L 162 287 L 163 287 L 164 286 L 166 286 L 169 285 L 170 285 L 172 284 L 173 284 L 175 284 L 175 283 L 176 283 L 178 282 L 178 282 L 179 281 L 181 281 L 181 280 L 182 280 L 182 280 L 183 279 L 183 279 L 184 278 L 186 278 L 186 277 L 186 277 L 187 276 L 187 276 L 188 275 L 190 275 L 191 275 L 194 274 L 195 274 L 195 273 L 197 273 L 197 272 L 197 272 L 199 271 L 206 271 L 206 271 L 207 270 L 214 270 L 214 269 L 214 269 L 214 268 L 215 268 L 216 267 L 218 267 L 219 267 L 219 266 L 227 266 L 229 265 L 231 265 L 233 264 L 235 264 L 235 263 L 236 263 L 242 263 L 248 262 L 256 262 L 256 261 L 256 261 L 257 260 L 257 260 L 259 259 L 268 259 L 273 259 L 273 258 L 277 258 L 278 257 L 278 257 L 289 256 L 289 256 L 290 255 L 290 255 L 292 255 L 295 254 L 296 254 L 298 253 L 300 253 L 302 252 L 308 252 L 308 251 L 310 251 L 310 251 L 310 250 L 310 250 L 314 249 L 320 249 L 333 248 L 338 248 L 341 247 L 341 247 L 343 247 L 345 246 L 345 246 L 345 245 L 345 245 L 345 244 L 345 244 L 345 243 L 345 243 L 345 242 L 345 242 L 345 242 L 345 241 L 345 241 L 346 240 L 346 240 L 348 239 L 348 239 L 349 238 L 349 238 L 349 238 L 350 237 L 350 237 L 350 236 L 350 236 L 350 235 L 351 235 L 351 234 L 352 234 L 352 234 L 353 233 L 353 233 L 353 232 L 353 232 L 353 231 L 354 231 L 355 230 L 355 230 L 355 230 L 356 229 L 356 229 L 356 228 L 357 228 L 359 227 L 359 227 L 361 226 L 364 226 L 364 226 L 365 225 L 365 225 L 365 224 L 365 224 L 365 223 L 367 223 L 367 222 L 369 222 L 370 222 L 370 221 L 372 221 L 374 220 L 374 220 L 377 219 L 378 219 L 378 218 L 379 218 L 379 218 L 384 217 L 385 217 L 386 216 L 389 216 L 391 215 L 396 215 L 397 214 L 397 214 L 398 214 L 399 213 L 399 213 L 402 212 L 404 212 L 406 211 L 406 211 L 408 210 L 409 210 L 409 209 L 409 209 L 409 209 L 410 208 L 410 208 L 410 207 L 412 207 L 412 206 L 412 206 L 413 205 L 418 205 L 423 205 L 423 204 L 423 204 L 427 203 L 429 203 L 430 202 L 431 202 L 432 201 L 433 201 L 433 201 L 433 200 L 433 200 L 433 199 L 434 199 L 434 198 L 435 198 L 435 197 L 435 197 L 438 197 L 438 196 L 438 196 L 438 195 L 439 195 L 439 194 L 439 194 L 439 193 L 439 193 L 439 193 L 439 192 L 439 192 L 439 191 L 444 191 L 447 190 L 447 190 L 448 189 L 460 189 L 461 189 L 464 188 L 467 188 L 475 187 L 477 187 L 479 186 L 480 186 L 480 185 L 480 185 L 480 185 L 480 184 L 480 184 L 480 183 L 482 183 L 483 182 L 492 182 L 494 181 L 498 181 L 505 181 L 510 180 L 514 180 L 517 179 L 522 179 L 522 178 L 532 178 L 543 177 L 543 177 L 550 176 L 551 176 L 556 176 L 558 175 L 561 175 L 561 174 L 562 174 L 562 173 L 565 173 L 566 172 L 569 172 L 574 172 L 574 171 L 575 171 L 576 170 L 580 170 L 584 169 L 584 169 L 588 168 L 593 168 L 594 168 L 594 167 L 596 167 L 597 166 L 598 166 L 602 165 L 604 165 L 607 164 L 610 164 L 610 164 L 616 163 L 617 163 L 620 162 L 625 162 L 625 161 L 631 161 L 632 160 L 632 160 L 633 160 L 634 159 L 636 159 L 637 158 L 639 158 L 642 157 L 643 157 L 644 156 L 644 156 L 653 156 L 653 155 L 653 155 L 654 154 L 654 154 L 655 153 L 655 153 L 656 152 L 656 152 L 658 152 L 658 151 L 660 151 L 661 150 L 662 150 L 662 149 L 663 149 L 663 148 L 664 148 L 664 148 L 664 147 L 665 147 L 665 146 L 665 146 L 666 145 L 667 145 L 669 144 L 669 144 L 669 143 L 670 143 L 670 143 L 672 142 L 673 142 L 673 141 L 674 141 L 676 140 L 677 140 L 678 139 L 678 139 L 678 139 L 681 138 L 681 138 L 681 137 L 681 137 L 682 136 L 682 136 L 682 135 L 683 135 L 683 135 L 684 134 L 688 134 L 689 133 L 691 133 L 691 132 L 694 132 L 695 131 L 696 131 L 698 131 L 701 130 L 704 130 L 707 129 L 707 129 L 708 128 L 708 128 L 708 127 L 709 127 L 709 127 L 709 126 L 710 126 L 710 125 L 711 125 L 711 124 L 713 124 L 714 123 L 714 123 L 715 123 L 715 122 L 718 122 L 719 121 L 719 121 L 720 120 L 721 120 L 724 119 L 727 119 L 731 119 L 731 118 L 731 118 L 731 117 L 734 117 L 737 116 L 737 116 L 737 115 L 737 115 L 738 115 L 740 114 L 743 114 L 744 113 L 744 113 L 744 112 L 746 112 L 747 111 L 747 111 L 747 110 L 747 110 L 750 110 L 754 109 L 755 109 L 759 108 L 759 108 L 760 107 L 764 107 L 766 106 L 769 106 L 771 106 L 773 105 L 774 105 L 774 104 L 775 104 L 775 103 L 775 103 L 775 102 L 776 102 L 777 102 L 777 101 L 778 101 L 778 100 L 778 100 L 779 99 L 781 99 L 781 98 L 787 98 L 787 98 L 793 97 L 795 97 L 796 96 L 797 96 L 797 95 L 800 95 L 801 94 L 802 94 L 802 94 L 803 93 L 803 93 L 803 92 L 803 92 L 803 91 L 804 91 L 804 90 L 804 90 L 804 90 L 805 89 L 805 89 L 806 88 L 806 88 L 807 87 L 808 87 L 808 86 L 809 86 L 810 86 L 810 85 L 810 85 L 811 84 L 813 84 L 816 83 L 816 83 L 816 82 L 816 82 L 816 82 L 817 81 L 818 81 L 818 80 L 819 80 L 821 79 L 824 79 L 828 78 L 829 78 L 831 77 L 835 77 L 839 77 L 840 76 L 843 76 L 848 75 L 848 75 L 848 74 L 853 74 L 855 73 L 856 73 L 856 73 L 857 72 L 867 72 L 867 71 L 868 71 L 868 70 L 869 70 L 870 69 L 871 69 L 871 69 L 872 68 L 873 68 L 873 67 L 873 67 L 874 66 L 874 66 L 874 65 L 874 65 L 875 65 L 875 64 L 875 64 L 876 63 L 877 63 L 879 62 L 880 62 L 880 61 L 880 61 L 881 61 L 882 60 L 883 60 L 883 59 L 885 59 L 885 58 L 885 58 L 885 57 L 887 57 L 887 57 L 889 56 L 889 56 L 890 55 L 891 55 L 891 54 L 892 54 L 892 53 L 892 53 L 893 53 L 893 52 L 894 52 L 895 51 L 895 51 L 897 50 L 897 50 L 897 49 L 897 49 L 898 49 L 898 48 L 899 48 L 899 47 L 899 47 L 901 46 L 901 46 L 901 45 L 902 45 L 902 44 L 902 44 L 902 44 L 902 43 L 902 43 L 903 42 L 903 42 L 903 41 L 904 41 L 904 40 L 906 40 L 908 40 L 910 39 L 911 39 L 911 38 L 911 38 L 912 37 L 914 37 L 914 36 L 915 36 L 918 36 L 921 35 L 921 35 L 923 34 L 924 34 L 924 33 L 925 33 L 925 32 L 926 32 L 926 32 L 926 31 L 926 31 L 926 30 L 926 30 L 926 29 L 926 29 L 927 28 L 927 28 L 927 28 L 927 27 L 927 27 L 927 26 L 928 26 L 928 25 L 929 25 L 929 24 L 930 24 L 932 24 L 932 23 L 933 23 L 933 22 L 935 22 L 935 21 L 936 21 L 939 20 L 940 20 L 940 20 L 940 19 L 940 19 L 940 18 L 943 18 L 945 17"></path><path stroke-width="2" d="M 945 346 L 945.000000 15.000000" /><path stroke-width="2" d="M 945 346 L 945.000000 15.000000"></path><path stroke-width="2" d="M 945 346 L 950 346" /><path stroke-width="2" d="M 945 346 L 950 346"></path><text xmlns="http://www.w3.org/2000/svg" x="955" y="352">0</text><path d="M 945 308 L 950 308" stroke-width="2" /><path stroke-width="2" d="M 945 308 L 950 308"></path><text xmlns="http://www.w3.org/2000/svg" x="955" y="314">83</text><path d="M 945 272 L 950 272" stroke-width="2" /><path stroke-width="2" d="M 945 272 L 950 272"></path><text xmlns="http://www.w3.org/2000/svg" x="955" y="278">165</text><path stroke-width="2" d="M 945 235 L 950 235" /><path stroke-width="2" d="M 945 235 L 950 235"></path><text xmlns="http://www.w3.org/2000/svg" x="955" y="241">247</text><path stroke-width="2" d="M 945 199 L 950 199" /><path stroke-width="2" d="M 945 199 L 950 199"></path><text x="955" y="205" xmlns="http://www.w3.org/2000/svg">329</text><path stroke-width="2" d="M 945 162 L 950 162" /><path stroke-width="2" d="M 945 162 L 950 162"></path><text x="955" y="168" xmlns="http://www.w3.org/2000/svg">412</text><path stroke-width="2" d="M 945 125 L 950 125" /><path stroke-width="2" d="M 945 125 L 950 125"></path><text xmlns="http://www.w3.org/2000/svg" x="955" y="131">494</text><path stroke-width="2" d="M 945 89 L 950 89" /><path stroke-width="2" d="M 945 89 L 950 89"></path><text xmlns="http://www.w3.org/2000/svg" x="955" y="95">576</text><path stroke-width="2" d="M 945 52 L 950 52" /><path stroke-width="2" d="M 945 52 L 950 52"></path><text x="955" y="58" xmlns="http://www.w3.org/2000/svg">658</text><path stroke-width="2" d="M 945 16 L 950 16" /><path stroke-width="2" d="M 945 16 L 950 16"></path><text xmlns="http://www.w3.org/2000/svg" x="955" y="22">740</text><text xmlns="http://www.w3.org/2000/svg" x="987" y="175" transform="rotate(90.00,987,175)">Stargazers</text><path stroke-width="2" d="M 57.000000 346.000000 L 945 346" /><path stroke-width="2" d="M 57.000000 346.000000 L 945 346"></path><path stroke-width="2" d="M 58 346 L 58 351" /><path stroke-width="2" d="M 58 346 L 58 351"></path><text y="368" xmlns="http://www.w3.org/2000/svg" x="25">2023-04-02</text><path stroke-width="2" d="M 157 346 L 157 351" /><path stroke-width="2" d="M 157 346 L 157 351"></path><text xmlns="http://www.w3.org/2000/svg" x="124" y="368">2023-06-08</text><path stroke-width="2" d="M 256 346 L 256 351" /><path stroke-width="2" d="M 256 346 L 256 351"></path><text y="368" xmlns="http://www.w3.org/2000/svg" x="223">2023-08-15</text><path stroke-width="2" d="M 354 346 L 354 351" /><path stroke-width="2" d="M 354 346 L 354 351"></path><text xmlns="http://www.w3.org/2000/svg" x="321" y="368">2023-10-21</text><path stroke-width="2" d="M 453 346 L 453 351" /><path stroke-width="2" d="M 453 346 L 453 351"></path><text xmlns="http://www.w3.org/2000/svg" x="420" y="368">2023-12-28</text><path stroke-width="2" d="M 551 346 L 551 351" /><path stroke-width="2" d="M 551 346 L 551 351"></path><text xmlns="http://www.w3.org/2000/svg" x="518" y="368">2024-03-05</text><path stroke-width="2" d="M 650 346 L 650 351" /><path stroke-width="2" d="M 650 346 L 650 351"></path><text xmlns="http://www.w3.org/2000/svg" x="617" y="368">2024-05-11</text><path stroke-width="2" d="M 748 346 L 748 351" /><path stroke-width="2" d="M 748 346 L 748 351"></path><text y="368" xmlns="http://www.w3.org/2000/svg" x="715">2024-07-18</text><path stroke-width="2" d="M 847 346 L 847 351" /><path d="M 847 346 L 847 351" stroke-width="2"></path><text xmlns="http://www.w3.org/2000/svg" x="814" y="368">2024-09-23</text><path stroke-width="2" d="M 945 346 L 945 351" /><path d="M 945 346 L 945 351" stroke-width="2"></path><text xmlns="http://www.w3.org/2000/svg" x="912" y="368">2024-11-30</text><text xmlns="http://www.w3.org/2000/svg" x="487" y="390">Time</text></svg>