<svg height="400px" xmlns="http://www.w3.org/2000/svg" xmlns:xlink="http://www.w3.org/1999/xlink" width="1024px"><style type="text/css">
path { fill: none; stroke: rgb(51,51,51); }
path.series { stroke: #6b63ff; }
rect.background { fill: rgb(255,255,255); stroke: none; }

text {
	stroke-width: 0;
	stroke: none;
	fill: rgba(51,51,51,1.0);
	font-size: 12.8px;
	font-family: 'Roboto Medium', sans-serif;
}
</style><rect width="1024px" height="400px" class="background" rx="8" x="0" y="0" /><rect x="0" y="0" width="1024px" height="400px" class="background" rx="8"></rect><path d="M 58 345 L 62 344 L 87 343 L 88 343 L 88 342 L 88 341 L 88 341 L 88 340 L 88 339 L 88 338 L 89 338 L 89 337 L 89 336 L 89 336 L 89 335 L 89 334 L 89 334 L 90 333 L 90 332 L 91 331 L 92 331 L 92 330 L 94 329 L 95 329 L 95 328 L 95 327 L 96 327 L 98 326 L 100 325 L 101 324 L 102 324 L 104 323 L 112 322 L 112 322 L 112 321 L 112 320 L 112 320 L 113 319 L 117 318 L 119 317 L 121 317 L 124 316 L 131 315 L 133 315 L 144 314 L 148 313 L 154 313 L 160 312 L 163 311 L 186 310 L 188 310 L 188 309 L 191 308 L 192 308 L 192 307 L 192 306 L 192 305 L 192 305 L 192 304 L 192 303 L 192 303 L 192 302 L 192 301 L 192 301 L 192 300 L 193 299 L 193 298 L 193 298 L 193 297 L 193 296 L 193 296 L 193 295 L 193 294 L 193 294 L 193 293 L 193 292 L 193 291 L 193 291 L 193 290 L 193 289 L 193 289 L 193 288 L 193 287 L 193 287 L 193 286 L 193 285 L 193 284 L 193 284 L 193 283 L 193 282 L 193 282 L 193 281 L 193 280 L 194 280 L 194 279 L 194 278 L 194 277 L 194 277 L 194 276 L 194 275 L 194 275 L 195 274 L 195 273 L 195 272 L 196 272 L 196 271 L 197 270 L 197 270 L 197 269 L 197 268 L 197 268 L 197 267 L 197 266 L 197 265 L 197 265 L 197 264 L 197 263 L 197 263 L 197 262 L 197 261 L 197 261 L 197 260 L 198 259 L 198 258 L 200 258 L 200 257 L 200 256 L 200 256 L 206 255 L 206 254 L 206 254 L 208 253 L 208 252 L 212 251 L 216 251 L 217 250 L 220 249 L 222 249 L 224 248 L 225 247 L 225 247 L 229 246 L 230 245 L 231 244 L 233 244 L 233 243 L 235 242 L 235 242 L 235 241 L 236 240 L 238 239 L 240 239 L 240 238 L 241 237 L 241 237 L 242 236 L 243 235 L 246 235 L 248 234 L 251 233 L 252 232 L 254 232 L 255 231 L 255 230 L 256 230 L 258 229 L 268 228 L 269 228 L 270 227 L 280 226 L 280 225 L 280 225 L 281 224 L 281 223 L 282 223 L 285 222 L 287 221 L 288 221 L 299 220 L 301 219 L 304 218 L 308 218 L 310 217 L 310 216 L 312 216 L 320 215 L 329 214 L 340 214 L 341 213 L 341 212 L 341 211 L 342 211 L 344 210 L 358 209 L 364 209 L 365 208 L 370 207 L 371 206 L 372 206 L 387 205 L 387 204 L 388 204 L 389 203 L 391 202 L 395 202 L 397 201 L 400 200 L 402 199 L 406 199 L 414 198 L 415 197 L 416 197 L 417 196 L 417 195 L 418 195 L 422 194 L 431 193 L 450 192 L 457 192 L 461 191 L 462 190 L 464 190 L 466 189 L 466 188 L 466 188 L 466 187 L 466 186 L 466 185 L 466 185 L 466 184 L 467 183 L 467 183 L 467 182 L 467 181 L 467 181 L 468 180 L 468 179 L 469 178 L 471 178 L 472 177 L 472 176 L 472 176 L 472 175 L 475 174 L 475 173 L 475 173 L 475 172 L 475 171 L 475 171 L 475 170 L 476 169 L 477 169 L 478 168 L 478 167 L 479 166 L 479 166 L 479 165 L 480 164 L 481 164 L 481 163 L 481 162 L 482 162 L 483 161 L 483 160 L 485 159 L 486 159 L 487 158 L 490 157 L 493 157 L 494 156 L 495 155 L 495 155 L 495 154 L 495 153 L 495 152 L 498 152 L 499 151 L 502 150 L 502 150 L 503 149 L 506 148 L 508 148 L 508 147 L 512 146 L 513 145 L 514 145 L 515 144 L 515 143 L 523 143 L 524 142 L 525 141 L 530 140 L 533 140 L 539 139 L 540 138 L 541 138 L 543 137 L 543 136 L 543 136 L 548 135 L 551 134 L 554 133 L 554 133 L 556 132 L 558 131 L 558 131 L 558 130 L 558 129 L 559 129 L 560 128 L 560 127 L 562 126 L 562 126 L 562 125 L 563 124 L 570 124 L 579 123 L 579 122 L 579 122 L 584 121 L 587 120 L 588 119 L 589 119 L 591 118 L 593 117 L 593 117 L 593 116 L 593 115 L 593 115 L 593 114 L 594 113 L 594 112 L 594 112 L 596 111 L 599 110 L 599 110 L 600 109 L 600 108 L 600 107 L 601 107 L 601 106 L 601 105 L 601 105 L 601 104 L 601 103 L 601 103 L 601 102 L 608 101 L 612 100 L 612 100 L 613 99 L 621 98 L 630 98 L 632 97 L 637 96 L 641 96 L 651 95 L 655 94 L 658 93 L 659 93 L 659 92 L 659 91 L 660 91 L 660 90 L 660 89 L 660 89 L 662 88 L 663 87 L 676 86 L 680 86 L 685 85 L 695 84 L 702 84 L 707 83 L 711 82 L 719 82 L 719 81 L 734 80 L 749 79 L 749 79 L 759 78 L 760 77 L 768 77 L 770 76 L 774 75 L 774 74 L 776 74 L 776 73 L 780 72 L 782 72 L 786 71 L 793 70 L 794 70 L 795 69 L 796 68 L 802 67 L 807 67 L 808 66 L 814 65 L 820 65 L 822 64 L 822 63 L 824 63 L 826 62 L 828 61 L 833 60 L 837 60 L 841 59 L 845 58 L 845 58 L 853 57 L 855 56 L 859 56 L 866 55 L 866 54 L 874 53 L 875 53 L 875 52 L 878 51 L 879 51 L 882 50 L 882 49 L 886 49 L 891 48 L 892 47 L 892 46 L 893 46 L 905 45 L 906 44 L 907 44 L 907 43 L 907 42 L 909 41 L 909 41 L 910 40 L 911 39 L 913 39 L 914 38 L 916 37 L 917 37 L 918 36 L 919 35 L 920 34 L 920 34 L 922 33 L 922 32 L 922 32 L 923 31 L 923 30 L 924 30 L 924 29 L 926 28 L 928 27 L 928 27 L 929 26 L 930 25 L 931 25 L 933 24 L 935 23 L 935 23 L 936 22 L 938 21 L 940 20 L 941 20 L 941 19 L 942 18 L 945 18 L 945 17 L 945 16" stroke-width="2" class="series" /><path stroke-width="2" class="series" d="M 58 345 L 62 344 L 87 343 L 88 343 L 88 342 L 88 341 L 88 341 L 88 340 L 88 339 L 88 338 L 89 338 L 89 337 L 89 336 L 89 336 L 89 335 L 89 334 L 89 334 L 90 333 L 90 332 L 91 331 L 92 331 L 92 330 L 94 329 L 95 329 L 95 328 L 95 327 L 96 327 L 98 326 L 100 325 L 101 324 L 102 324 L 104 323 L 112 322 L 112 322 L 112 321 L 112 320 L 112 320 L 113 319 L 117 318 L 119 317 L 121 317 L 124 316 L 131 315 L 133 315 L 144 314 L 148 313 L 154 313 L 160 312 L 163 311 L 186 310 L 188 310 L 188 309 L 191 308 L 192 308 L 192 307 L 192 306 L 192 305 L 192 305 L 192 304 L 192 303 L 192 303 L 192 302 L 192 301 L 192 301 L 192 300 L 193 299 L 193 298 L 193 298 L 193 297 L 193 296 L 193 296 L 193 295 L 193 294 L 193 294 L 193 293 L 193 292 L 193 291 L 193 291 L 193 290 L 193 289 L 193 289 L 193 288 L 193 287 L 193 287 L 193 286 L 193 285 L 193 284 L 193 284 L 193 283 L 193 282 L 193 282 L 193 281 L 193 280 L 194 280 L 194 279 L 194 278 L 194 277 L 194 277 L 194 276 L 194 275 L 194 275 L 195 274 L 195 273 L 195 272 L 196 272 L 196 271 L 197 270 L 197 270 L 197 269 L 197 268 L 197 268 L 197 267 L 197 266 L 197 265 L 197 265 L 197 264 L 197 263 L 197 263 L 197 262 L 197 261 L 197 261 L 197 260 L 198 259 L 198 258 L 200 258 L 200 257 L 200 256 L 200 256 L 206 255 L 206 254 L 206 254 L 208 253 L 208 252 L 212 251 L 216 251 L 217 250 L 220 249 L 222 249 L 224 248 L 225 247 L 225 247 L 229 246 L 230 245 L 231 244 L 233 244 L 233 243 L 235 242 L 235 242 L 235 241 L 236 240 L 238 239 L 240 239 L 240 238 L 241 237 L 241 237 L 242 236 L 243 235 L 246 235 L 248 234 L 251 233 L 252 232 L 254 232 L 255 231 L 255 230 L 256 230 L 258 229 L 268 228 L 269 228 L 270 227 L 280 226 L 280 225 L 280 225 L 281 224 L 281 223 L 282 223 L 285 222 L 287 221 L 288 221 L 299 220 L 301 219 L 304 218 L 308 218 L 310 217 L 310 216 L 312 216 L 320 215 L 329 214 L 340 214 L 341 213 L 341 212 L 341 211 L 342 211 L 344 210 L 358 209 L 364 209 L 365 208 L 370 207 L 371 206 L 372 206 L 387 205 L 387 204 L 388 204 L 389 203 L 391 202 L 395 202 L 397 201 L 400 200 L 402 199 L 406 199 L 414 198 L 415 197 L 416 197 L 417 196 L 417 195 L 418 195 L 422 194 L 431 193 L 450 192 L 457 192 L 461 191 L 462 190 L 464 190 L 466 189 L 466 188 L 466 188 L 466 187 L 466 186 L 466 185 L 466 185 L 466 184 L 467 183 L 467 183 L 467 182 L 467 181 L 467 181 L 468 180 L 468 179 L 469 178 L 471 178 L 472 177 L 472 176 L 472 176 L 472 175 L 475 174 L 475 173 L 475 173 L 475 172 L 475 171 L 475 171 L 475 170 L 476 169 L 477 169 L 478 168 L 478 167 L 479 166 L 479 166 L 479 165 L 480 164 L 481 164 L 481 163 L 481 162 L 482 162 L 483 161 L 483 160 L 485 159 L 486 159 L 487 158 L 490 157 L 493 157 L 494 156 L 495 155 L 495 155 L 495 154 L 495 153 L 495 152 L 498 152 L 499 151 L 502 150 L 502 150 L 503 149 L 506 148 L 508 148 L 508 147 L 512 146 L 513 145 L 514 145 L 515 144 L 515 143 L 523 143 L 524 142 L 525 141 L 530 140 L 533 140 L 539 139 L 540 138 L 541 138 L 543 137 L 543 136 L 543 136 L 548 135 L 551 134 L 554 133 L 554 133 L 556 132 L 558 131 L 558 131 L 558 130 L 558 129 L 559 129 L 560 128 L 560 127 L 562 126 L 562 126 L 562 125 L 563 124 L 570 124 L 579 123 L 579 122 L 579 122 L 584 121 L 587 120 L 588 119 L 589 119 L 591 118 L 593 117 L 593 117 L 593 116 L 593 115 L 593 115 L 593 114 L 594 113 L 594 112 L 594 112 L 596 111 L 599 110 L 599 110 L 600 109 L 600 108 L 600 107 L 601 107 L 601 106 L 601 105 L 601 105 L 601 104 L 601 103 L 601 103 L 601 102 L 608 101 L 612 100 L 612 100 L 613 99 L 621 98 L 630 98 L 632 97 L 637 96 L 641 96 L 651 95 L 655 94 L 658 93 L 659 93 L 659 92 L 659 91 L 660 91 L 660 90 L 660 89 L 660 89 L 662 88 L 663 87 L 676 86 L 680 86 L 685 85 L 695 84 L 702 84 L 707 83 L 711 82 L 719 82 L 719 81 L 734 80 L 749 79 L 749 79 L 759 78 L 760 77 L 768 77 L 770 76 L 774 75 L 774 74 L 776 74 L 776 73 L 780 72 L 782 72 L 786 71 L 793 70 L 794 70 L 795 69 L 796 68 L 802 67 L 807 67 L 808 66 L 814 65 L 820 65 L 822 64 L 822 63 L 824 63 L 826 62 L 828 61 L 833 60 L 837 60 L 841 59 L 845 58 L 845 58 L 853 57 L 855 56 L 859 56 L 866 55 L 866 54 L 874 53 L 875 53 L 875 52 L 878 51 L 879 51 L 882 50 L 882 49 L 886 49 L 891 48 L 892 47 L 892 46 L 893 46 L 905 45 L 906 44 L 907 44 L 907 43 L 907 42 L 909 41 L 909 41 L 910 40 L 911 39 L 913 39 L 914 38 L 916 37 L 917 37 L 918 36 L 919 35 L 920 34 L 920 34 L 922 33 L 922 32 L 922 32 L 923 31 L 923 30 L 924 30 L 924 29 L 926 28 L 928 27 L 928 27 L 929 26 L 930 25 L 931 25 L 933 24 L 935 23 L 935 23 L 936 22 L 938 21 L 940 20 L 941 20 L 941 19 L 942 18 L 945 18 L 945 17 L 945 16"></path><path stroke-width="2" d="M 945 346 L 945.000000 15.000000" /><path stroke-width="2" d="M 945 346 L 945.000000 15.000000"></path><path stroke-width="2" d="M 945 346 L 950 346" /><path d="M 945 346 L 950 346" stroke-width="2"></path><text xmlns="http://www.w3.org/2000/svg" x="955" y="352">0</text><path stroke-width="2" d="M 945 308 L 950 308" /><path stroke-width="2" d="M 945 308 L 950 308"></path><text xmlns="http://www.w3.org/2000/svg" x="955" y="314">53</text><path stroke-width="2" d="M 945 272 L 950 272" /><path stroke-width="2" d="M 945 272 L 950 272"></path><text xmlns="http://www.w3.org/2000/svg" x="955" y="278">105</text><path stroke-width="2" d="M 945 235 L 950 235" /><path stroke-width="2" d="M 945 235 L 950 235"></path><text xmlns="http://www.w3.org/2000/svg" x="955" y="241">157</text><path stroke-width="2" d="M 945 199 L 950 199" /><path stroke-width="2" d="M 945 199 L 950 199"></path><text xmlns="http://www.w3.org/2000/svg" x="955" y="205">209</text><path stroke-width="2" d="M 945 162 L 950 162" /><path stroke-width="2" d="M 945 162 L 950 162"></path><text xmlns="http://www.w3.org/2000/svg" x="955" y="168">262</text><path stroke-width="2" d="M 945 125 L 950 125" /><path stroke-width="2" d="M 945 125 L 950 125"></path><text xmlns="http://www.w3.org/2000/svg" x="955" y="131">314</text><path stroke-width="2" d="M 945 89 L 950 89" /><path stroke-width="2" d="M 945 89 L 950 89"></path><text xmlns="http://www.w3.org/2000/svg" x="955" y="95">366</text><path d="M 945 52 L 950 52" stroke-width="2" /><path d="M 945 52 L 950 52" stroke-width="2"></path><text x="955" y="58" xmlns="http://www.w3.org/2000/svg">418</text><path stroke-width="2" d="M 945 16 L 950 16" /><path d="M 945 16 L 950 16" stroke-width="2"></path><text xmlns="http://www.w3.org/2000/svg" x="955" y="22">470</text><text y="175" transform="rotate(90.00,987,175)" xmlns="http://www.w3.org/2000/svg" x="987">Stargazers</text><path stroke-width="2" d="M 57.000000 346.000000 L 945 346" /><path stroke-width="2" d="M 57.000000 346.000000 L 945 346"></path><path stroke-width="2" d="M 58 346 L 58 351" /><path stroke-width="2" d="M 58 346 L 58 351"></path><text y="368" xmlns="http://www.w3.org/2000/svg" x="25">2023-04-02</text><path stroke-width="2" d="M 157 346 L 157 351" /><path stroke-width="2" d="M 157 346 L 157 351"></path><text xmlns="http://www.w3.org/2000/svg" x="124" y="368">2023-05-19</text><path d="M 256 346 L 256 351" stroke-width="2" /><path stroke-width="2" d="M 256 346 L 256 351"></path><text xmlns="http://www.w3.org/2000/svg" x="223" y="368">2023-07-06</text><path stroke-width="2" d="M 354 346 L 354 351" /><path stroke-width="2" d="M 354 346 L 354 351"></path><text y="368" xmlns="http://www.w3.org/2000/svg" x="321">2023-08-22</text><path stroke-width="2" d="M 453 346 L 453 351" /><path stroke-width="2" d="M 453 346 L 453 351"></path><text y="368" xmlns="http://www.w3.org/2000/svg" x="420">2023-10-08</text><path stroke-width="2" d="M 551 346 L 551 351" /><path stroke-width="2" d="M 551 346 L 551 351"></path><text xmlns="http://www.w3.org/2000/svg" x="518" y="368">2023-11-25</text><path stroke-width="2" d="M 650 346 L 650 351" /><path stroke-width="2" d="M 650 346 L 650 351"></path><text xmlns="http://www.w3.org/2000/svg" x="617" y="368">2024-01-11</text><path stroke-width="2" d="M 748 346 L 748 351" /><path stroke-width="2" d="M 748 346 L 748 351"></path><text xmlns="http://www.w3.org/2000/svg" x="715" y="368">2024-02-28</text><path stroke-width="2" d="M 847 346 L 847 351" /><path stroke-width="2" d="M 847 346 L 847 351"></path><text xmlns="http://www.w3.org/2000/svg" x="814" y="368">2024-04-15</text><path stroke-width="2" d="M 945 346 L 945 351" /><path stroke-width="2" d="M 945 346 L 945 351"></path><text x="912" y="368" xmlns="http://www.w3.org/2000/svg">2024-06-01</text><text x="487" y="390" xmlns="http://www.w3.org/2000/svg">Time</text></svg>