<svg xmlns="http://www.w3.org/2000/svg" xmlns:xlink="http://www.w3.org/1999/xlink" width="1024px" height="400px"><style type="text/css">
path { fill: none; stroke: rgb(51,51,51); }
path.series { stroke: #6b63ff; }
rect.background { fill: rgb(255,255,255); stroke: none; }

text {
	stroke-width: 0;
	stroke: none;
	fill: rgba(51,51,51,1.0);
	font-size: 12.8px;
	font-family: 'Roboto Medium', sans-serif;
}
</style><rect x="0" y="0" width="1024px" height="400px" class="background" rx="8" /><rect y="0" width="1024px" height="400px" class="background" rx="8" x="0"></rect><path class="series" d="M 58 345 L 60 345 L 72 345 L 73 344 L 73 344 L 73 344 L 73 343 L 73 343 L 73 343 L 73 343 L 73 342 L 73 342 L 73 342 L 73 341 L 73 341 L 73 341 L 73 340 L 74 340 L 74 340 L 74 340 L 74 339 L 75 339 L 75 339 L 76 338 L 76 338 L 76 338 L 76 337 L 77 337 L 79 337 L 79 337 L 80 336 L 80 336 L 84 336 L 84 335 L 84 335 L 84 335 L 84 334 L 87 334 L 88 334 L 88 334 L 90 333 L 93 333 L 94 333 L 100 332 L 101 332 L 104 332 L 107 331 L 108 331 L 120 331 L 120 331 L 122 330 L 122 330 L 122 330 L 122 329 L 122 329 L 122 329 L 122 328 L 122 328 L 122 328 L 122 328 L 122 327 L 122 327 L 123 327 L 123 326 L 123 326 L 123 326 L 123 325 L 123 325 L 123 325 L 123 325 L 123 324 L 123 324 L 123 324 L 123 323 L 123 323 L 123 323 L 123 322 L 123 322 L 123 322 L 123 322 L 123 321 L 123 321 L 123 321 L 123 320 L 123 320 L 123 320 L 123 319 L 123 319 L 123 319 L 123 319 L 123 318 L 123 318 L 123 318 L 123 317 L 123 317 L 123 317 L 123 316 L 123 316 L 124 316 L 124 316 L 124 315 L 124 315 L 124 315 L 124 314 L 125 314 L 125 314 L 125 313 L 125 313 L 125 313 L 125 313 L 125 312 L 125 312 L 125 312 L 125 311 L 125 311 L 125 311 L 125 310 L 125 310 L 125 310 L 125 310 L 125 309 L 125 309 L 126 309 L 126 308 L 126 308 L 126 308 L 129 307 L 129 307 L 129 307 L 130 307 L 130 306 L 132 306 L 134 306 L 134 305 L 136 305 L 137 305 L 138 304 L 138 304 L 138 304 L 140 304 L 140 303 L 141 303 L 142 303 L 142 302 L 143 302 L 143 302 L 143 301 L 143 301 L 144 301 L 145 301 L 145 300 L 146 300 L 146 300 L 146 299 L 147 299 L 148 299 L 149 298 L 151 298 L 151 298 L 152 298 L 153 297 L 153 297 L 153 297 L 154 296 L 159 296 L 159 296 L 160 295 L 165 295 L 165 295 L 165 295 L 165 294 L 165 294 L 166 294 L 167 293 L 168 293 L 168 293 L 174 292 L 175 292 L 176 292 L 178 292 L 179 291 L 179 291 L 180 291 L 184 290 L 188 290 L 193 290 L 194 289 L 194 289 L 194 289 L 194 289 L 202 288 L 205 288 L 205 288 L 208 287 L 208 287 L 208 287 L 216 286 L 216 286 L 216 286 L 217 286 L 218 285 L 220 285 L 221 285 L 222 284 L 223 284 L 225 284 L 229 283 L 229 283 L 230 283 L 230 283 L 230 282 L 230 282 L 232 282 L 237 281 L 246 281 L 249 281 L 251 280 L 251 280 L 254 280 L 254 280 L 254 279 L 254 279 L 254 279 L 254 278 L 254 278 L 254 278 L 254 277 L 254 277 L 254 277 L 254 277 L 254 276 L 254 276 L 255 276 L 256 275 L 256 275 L 256 275 L 256 274 L 258 274 L 258 274 L 258 274 L 258 273 L 258 273 L 258 273 L 258 272 L 258 272 L 259 272 L 259 271 L 259 271 L 259 271 L 260 271 L 260 270 L 260 270 L 261 270 L 261 269 L 261 269 L 262 269 L 262 268 L 262 268 L 263 268 L 264 268 L 265 267 L 267 267 L 267 267 L 267 266 L 267 266 L 267 266 L 267 265 L 268 265 L 269 265 L 269 265 L 271 264 L 271 264 L 271 264 L 273 263 L 274 263 L 274 263 L 276 262 L 276 262 L 276 262 L 277 262 L 277 261 L 281 261 L 281 261 L 282 260 L 284 260 L 286 260 L 288 259 L 289 259 L 289 259 L 290 259 L 290 258 L 290 258 L 293 258 L 294 257 L 295 257 L 296 257 L 298 256 L 298 256 L 298 256 L 298 256 L 298 255 L 298 255 L 298 255 L 299 254 L 299 254 L 299 254 L 300 253 L 303 253 L 307 253 L 307 253 L 307 252 L 310 252 L 311 252 L 312 251 L 312 251 L 313 251 L 314 250 L 314 250 L 314 250 L 314 250 L 314 249 L 315 249 L 315 249 L 315 248 L 315 248 L 316 248 L 317 247 L 317 247 L 317 247 L 318 247 L 318 246 L 318 246 L 318 246 L 318 245 L 318 245 L 318 245 L 318 244 L 318 244 L 318 244 L 321 244 L 323 243 L 323 243 L 324 243 L 332 242 L 333 242 L 335 242 L 337 241 L 344 241 L 346 241 L 346 241 L 346 240 L 346 240 L 346 240 L 346 239 L 346 239 L 347 239 L 348 238 L 354 238 L 356 238 L 358 238 L 363 237 L 366 237 L 369 237 L 371 236 L 374 236 L 374 236 L 382 235 L 389 235 L 389 235 L 394 235 L 394 234 L 398 234 L 399 234 L 401 233 L 401 233 L 402 233 L 402 232 L 404 232 L 405 232 L 407 232 L 410 231 L 410 231 L 411 231 L 412 230 L 414 230 L 417 230 L 417 229 L 420 229 L 423 229 L 424 229 L 424 228 L 425 228 L 426 228 L 427 227 L 429 227 L 431 227 L 433 226 L 435 226 L 435 226 L 439 226 L 439 225 L 441 225 L 445 225 L 445 224 L 449 224 L 449 224 L 449 223 L 451 223 L 451 223 L 453 223 L 453 222 L 454 222 L 457 222 L 457 221 L 458 221 L 458 221 L 464 220 L 464 220 L 464 220 L 464 220 L 465 219 L 465 219 L 466 219 L 466 218 L 466 218 L 468 218 L 468 217 L 469 217 L 469 217 L 470 217 L 470 216 L 471 216 L 471 216 L 471 215 L 472 215 L 472 215 L 472 214 L 472 214 L 472 214 L 473 214 L 474 213 L 475 213 L 475 213 L 475 212 L 476 212 L 476 212 L 477 211 L 478 211 L 478 211 L 478 211 L 479 210 L 480 210 L 481 210 L 481 209 L 481 209 L 483 209 L 483 208 L 483 208 L 483 208 L 484 208 L 484 207 L 484 207 L 484 207 L 485 206 L 485 206 L 488 206 L 489 205 L 490 205 L 490 205 L 492 205 L 493 204 L 493 204 L 495 204 L 497 203 L 499 203 L 501 203 L 501 202 L 501 202 L 501 202 L 502 202 L 502 201 L 502 201 L 502 201 L 503 200 L 503 200 L 503 200 L 504 199 L 505 199 L 505 199 L 505 199 L 506 198 L 506 198 L 508 198 L 509 197 L 509 197 L 510 197 L 510 196 L 512 196 L 517 196 L 517 196 L 517 195 L 518 195 L 519 195 L 521 194 L 521 194 L 521 194 L 521 193 L 522 193 L 523 193 L 526 193 L 526 192 L 526 192 L 526 192 L 528 191 L 528 191 L 528 191 L 528 190 L 530 190 L 533 190 L 533 190 L 536 189 L 537 189 L 537 189 L 540 188 L 541 188 L 543 188 L 544 187 L 546 187 L 547 187 L 547 187 L 547 186 L 547 186 L 547 186 L 547 185 L 548 185 L 548 185 L 548 184 L 549 184 L 549 184 L 549 184 L 550 183 L 551 183 L 551 183 L 555 182 L 555 182 L 559 182 L 561 181 L 561 181 L 562 181 L 562 181 L 565 180 L 565 180 L 565 180 L 566 179 L 566 179 L 566 179 L 566 178 L 566 178 L 567 178 L 567 178 L 567 177 L 567 177 L 567 177 L 568 176 L 568 176 L 569 176 L 569 175 L 570 175 L 570 175 L 571 175 L 571 174 L 571 174 L 572 174 L 573 173 L 575 173 L 575 173 L 575 172 L 575 172 L 575 172 L 576 172 L 576 171 L 576 171 L 577 171 L 579 170 L 581 170 L 583 170 L 584 169 L 585 169 L 588 169 L 591 169 L 591 168 L 593 168 L 597 168 L 597 167 L 597 167 L 601 167 L 602 166 L 602 166 L 603 166 L 603 166 L 610 165 L 610 165 L 611 165 L 611 164 L 611 164 L 612 164 L 613 163 L 613 163 L 613 163 L 614 163 L 614 162 L 614 162 L 615 162 L 615 161 L 615 161 L 615 161 L 615 160 L 615 160 L 615 160 L 617 160 L 618 159 L 619 159 L 619 159 L 619 158 L 620 158 L 620 158 L 621 157 L 621 157 L 622 157 L 622 157 L 622 156 L 622 156 L 624 156 L 624 155 L 625 155 L 625 155 L 626 154 L 626 154 L 627 154 L 627 154 L 627 153 L 627 153 L 628 153 L 628 152 L 628 152 L 629 152 L 629 151 L 630 151 L 631 151 L 631 151 L 631 150 L 631 150 L 631 150 L 632 149 L 632 149 L 632 149 L 633 148 L 633 148 L 633 148 L 634 148 L 634 147 L 634 147 L 634 147 L 634 146 L 634 146 L 635 146 L 635 145 L 635 145 L 635 145 L 635 145 L 637 144 L 638 144 L 640 144 L 640 143 L 640 143 L 640 143 L 641 142 L 642 142 L 642 142 L 643 142 L 645 141 L 647 141 L 647 141 L 648 140 L 649 140 L 649 140 L 650 139 L 650 139 L 650 139 L 650 139 L 650 138 L 650 138 L 650 138 L 650 137 L 651 137 L 651 137 L 651 136 L 651 136 L 651 136 L 652 136 L 652 135 L 652 135 L 652 135 L 653 134 L 654 134 L 655 134 L 655 133 L 655 133 L 656 133 L 656 132 L 657 132 L 660 132 L 660 132 L 660 131 L 660 131 L 660 131 L 662 130 L 664 130 L 664 130 L 665 130 L 665 129 L 666 129 L 666 129 L 666 128 L 670 128 L 672 128 L 675 127 L 676 127 L 677 127 L 677 126 L 678 126 L 678 126 L 679 126 L 679 125 L 679 125 L 680 125 L 680 124 L 681 124 L 682 124 L 683 124 L 683 123 L 683 123 L 683 123 L 683 122 L 683 122 L 683 122 L 683 121 L 683 121 L 683 121 L 683 121 L 683 120 L 684 120 L 684 120 L 684 119 L 684 119 L 684 119 L 684 118 L 684 118 L 685 118 L 685 118 L 685 117 L 685 117 L 685 117 L 685 116 L 685 116 L 686 116 L 686 115 L 687 115 L 687 115 L 687 115 L 687 114 L 687 114 L 688 114 L 689 113 L 690 113 L 691 113 L 691 112 L 692 112 L 692 112 L 692 112 L 693 111 L 695 111 L 696 111 L 697 110 L 697 110 L 697 110 L 697 109 L 697 109 L 697 109 L 697 109 L 698 108 L 699 108 L 699 108 L 702 107 L 703 107 L 704 107 L 707 106 L 707 106 L 708 106 L 708 106 L 708 105 L 709 105 L 709 105 L 709 104 L 710 104 L 710 104 L 711 103 L 711 103 L 711 103 L 711 103 L 711 102 L 711 102 L 711 102 L 712 101 L 712 101 L 712 101 L 712 100 L 713 100 L 714 100 L 714 100 L 714 99 L 715 99 L 715 99 L 715 98 L 716 98 L 716 98 L 717 97 L 717 97 L 717 97 L 718 97 L 718 96 L 722 96 L 722 96 L 723 95 L 726 95 L 726 95 L 727 94 L 730 94 L 730 94 L 731 94 L 733 93 L 738 93 L 738 93 L 740 92 L 741 92 L 743 92 L 743 91 L 744 91 L 745 91 L 746 91 L 746 90 L 747 90 L 748 90 L 749 89 L 750 89 L 750 89 L 751 88 L 751 88 L 751 88 L 752 88 L 755 87 L 755 87 L 756 87 L 757 86 L 757 86 L 759 86 L 759 85 L 760 85 L 760 85 L 760 85 L 760 84 L 761 84 L 762 84 L 762 83 L 763 83 L 764 83 L 764 82 L 764 82 L 765 82 L 766 82 L 766 81 L 766 81 L 767 81 L 767 80 L 767 80 L 767 80 L 767 79 L 768 79 L 768 79 L 770 79 L 771 78 L 772 78 L 775 78 L 775 77 L 776 77 L 777 77 L 779 76 L 781 76 L 783 76 L 784 76 L 785 75 L 786 75 L 787 75 L 789 74 L 791 74 L 791 74 L 791 73 L 791 73 L 791 73 L 791 73 L 792 72 L 793 72 L 794 72 L 795 71 L 795 71 L 795 71 L 801 70 L 801 70 L 802 70 L 804 70 L 805 69 L 806 69 L 806 69 L 807 68 L 807 68 L 807 68 L 809 67 L 809 67 L 809 67 L 810 67 L 810 66 L 810 66 L 811 66 L 811 65 L 812 65 L 813 65 L 815 64 L 816 64 L 820 64 L 821 64 L 821 63 L 822 63 L 823 63 L 823 62 L 823 62 L 823 62 L 826 61 L 827 61 L 829 61 L 829 61 L 829 60 L 829 60 L 831 60 L 832 59 L 834 59 L 834 59 L 834 58 L 834 58 L 835 58 L 835 58 L 835 57 L 836 57 L 837 57 L 837 56 L 838 56 L 839 56 L 840 55 L 840 55 L 840 55 L 840 55 L 841 54 L 841 54 L 844 54 L 848 53 L 848 53 L 851 53 L 852 52 L 855 52 L 855 52 L 856 52 L 856 51 L 857 51 L 858 51 L 859 50 L 861 50 L 862 50 L 865 49 L 869 49 L 869 49 L 869 49 L 870 48 L 870 48 L 872 48 L 872 47 L 872 47 L 880 47 L 883 46 L 883 46 L 884 46 L 886 46 L 888 45 L 890 45 L 891 45 L 891 44 L 892 44 L 893 44 L 898 43 L 898 43 L 899 43 L 901 43 L 903 42 L 904 42 L 904 42 L 904 41 L 904 41 L 904 41 L 905 40 L 905 40 L 907 40 L 908 40 L 909 39 L 910 39 L 910 39 L 911 38 L 913 38 L 916 38 L 917 37 L 918 37 L 919 37 L 920 37 L 920 36 L 920 36 L 920 36 L 921 35 L 921 35 L 923 35 L 923 34 L 924 34 L 924 34 L 924 34 L 925 33 L 925 33 L 925 33 L 925 32 L 925 32 L 925 32 L 926 31 L 926 31 L 926 31 L 927 31 L 927 30 L 927 30 L 927 30 L 928 29 L 928 29 L 928 29 L 929 28 L 934 28 L 935 28 L 936 28 L 937 27 L 937 27 L 937 27 L 937 26 L 937 26 L 937 26 L 937 25 L 937 25 L 937 25 L 937 25 L 937 24 L 937 24 L 937 24 L 937 23 L 937 23 L 937 23 L 937 22" stroke-width="2" /><path stroke-width="2" class="series" d="M 58 345 L 60 345 L 72 345 L 73 344 L 73 344 L 73 344 L 73 343 L 73 343 L 73 343 L 73 343 L 73 342 L 73 342 L 73 342 L 73 341 L 73 341 L 73 341 L 73 340 L 74 340 L 74 340 L 74 340 L 74 339 L 75 339 L 75 339 L 76 338 L 76 338 L 76 338 L 76 337 L 77 337 L 79 337 L 79 337 L 80 336 L 80 336 L 84 336 L 84 335 L 84 335 L 84 335 L 84 334 L 87 334 L 88 334 L 88 334 L 90 333 L 93 333 L 94 333 L 100 332 L 101 332 L 104 332 L 107 331 L 108 331 L 120 331 L 120 331 L 122 330 L 122 330 L 122 330 L 122 329 L 122 329 L 122 329 L 122 328 L 122 328 L 122 328 L 122 328 L 122 327 L 122 327 L 123 327 L 123 326 L 123 326 L 123 326 L 123 325 L 123 325 L 123 325 L 123 325 L 123 324 L 123 324 L 123 324 L 123 323 L 123 323 L 123 323 L 123 322 L 123 322 L 123 322 L 123 322 L 123 321 L 123 321 L 123 321 L 123 320 L 123 320 L 123 320 L 123 319 L 123 319 L 123 319 L 123 319 L 123 318 L 123 318 L 123 318 L 123 317 L 123 317 L 123 317 L 123 316 L 123 316 L 124 316 L 124 316 L 124 315 L 124 315 L 124 315 L 124 314 L 125 314 L 125 314 L 125 313 L 125 313 L 125 313 L 125 313 L 125 312 L 125 312 L 125 312 L 125 311 L 125 311 L 125 311 L 125 310 L 125 310 L 125 310 L 125 310 L 125 309 L 125 309 L 126 309 L 126 308 L 126 308 L 126 308 L 129 307 L 129 307 L 129 307 L 130 307 L 130 306 L 132 306 L 134 306 L 134 305 L 136 305 L 137 305 L 138 304 L 138 304 L 138 304 L 140 304 L 140 303 L 141 303 L 142 303 L 142 302 L 143 302 L 143 302 L 143 301 L 143 301 L 144 301 L 145 301 L 145 300 L 146 300 L 146 300 L 146 299 L 147 299 L 148 299 L 149 298 L 151 298 L 151 298 L 152 298 L 153 297 L 153 297 L 153 297 L 154 296 L 159 296 L 159 296 L 160 295 L 165 295 L 165 295 L 165 295 L 165 294 L 165 294 L 166 294 L 167 293 L 168 293 L 168 293 L 174 292 L 175 292 L 176 292 L 178 292 L 179 291 L 179 291 L 180 291 L 184 290 L 188 290 L 193 290 L 194 289 L 194 289 L 194 289 L 194 289 L 202 288 L 205 288 L 205 288 L 208 287 L 208 287 L 208 287 L 216 286 L 216 286 L 216 286 L 217 286 L 218 285 L 220 285 L 221 285 L 222 284 L 223 284 L 225 284 L 229 283 L 229 283 L 230 283 L 230 283 L 230 282 L 230 282 L 232 282 L 237 281 L 246 281 L 249 281 L 251 280 L 251 280 L 254 280 L 254 280 L 254 279 L 254 279 L 254 279 L 254 278 L 254 278 L 254 278 L 254 277 L 254 277 L 254 277 L 254 277 L 254 276 L 254 276 L 255 276 L 256 275 L 256 275 L 256 275 L 256 274 L 258 274 L 258 274 L 258 274 L 258 273 L 258 273 L 258 273 L 258 272 L 258 272 L 259 272 L 259 271 L 259 271 L 259 271 L 260 271 L 260 270 L 260 270 L 261 270 L 261 269 L 261 269 L 262 269 L 262 268 L 262 268 L 263 268 L 264 268 L 265 267 L 267 267 L 267 267 L 267 266 L 267 266 L 267 266 L 267 265 L 268 265 L 269 265 L 269 265 L 271 264 L 271 264 L 271 264 L 273 263 L 274 263 L 274 263 L 276 262 L 276 262 L 276 262 L 277 262 L 277 261 L 281 261 L 281 261 L 282 260 L 284 260 L 286 260 L 288 259 L 289 259 L 289 259 L 290 259 L 290 258 L 290 258 L 293 258 L 294 257 L 295 257 L 296 257 L 298 256 L 298 256 L 298 256 L 298 256 L 298 255 L 298 255 L 298 255 L 299 254 L 299 254 L 299 254 L 300 253 L 303 253 L 307 253 L 307 253 L 307 252 L 310 252 L 311 252 L 312 251 L 312 251 L 313 251 L 314 250 L 314 250 L 314 250 L 314 250 L 314 249 L 315 249 L 315 249 L 315 248 L 315 248 L 316 248 L 317 247 L 317 247 L 317 247 L 318 247 L 318 246 L 318 246 L 318 246 L 318 245 L 318 245 L 318 245 L 318 244 L 318 244 L 318 244 L 321 244 L 323 243 L 323 243 L 324 243 L 332 242 L 333 242 L 335 242 L 337 241 L 344 241 L 346 241 L 346 241 L 346 240 L 346 240 L 346 240 L 346 239 L 346 239 L 347 239 L 348 238 L 354 238 L 356 238 L 358 238 L 363 237 L 366 237 L 369 237 L 371 236 L 374 236 L 374 236 L 382 235 L 389 235 L 389 235 L 394 235 L 394 234 L 398 234 L 399 234 L 401 233 L 401 233 L 402 233 L 402 232 L 404 232 L 405 232 L 407 232 L 410 231 L 410 231 L 411 231 L 412 230 L 414 230 L 417 230 L 417 229 L 420 229 L 423 229 L 424 229 L 424 228 L 425 228 L 426 228 L 427 227 L 429 227 L 431 227 L 433 226 L 435 226 L 435 226 L 439 226 L 439 225 L 441 225 L 445 225 L 445 224 L 449 224 L 449 224 L 449 223 L 451 223 L 451 223 L 453 223 L 453 222 L 454 222 L 457 222 L 457 221 L 458 221 L 458 221 L 464 220 L 464 220 L 464 220 L 464 220 L 465 219 L 465 219 L 466 219 L 466 218 L 466 218 L 468 218 L 468 217 L 469 217 L 469 217 L 470 217 L 470 216 L 471 216 L 471 216 L 471 215 L 472 215 L 472 215 L 472 214 L 472 214 L 472 214 L 473 214 L 474 213 L 475 213 L 475 213 L 475 212 L 476 212 L 476 212 L 477 211 L 478 211 L 478 211 L 478 211 L 479 210 L 480 210 L 481 210 L 481 209 L 481 209 L 483 209 L 483 208 L 483 208 L 483 208 L 484 208 L 484 207 L 484 207 L 484 207 L 485 206 L 485 206 L 488 206 L 489 205 L 490 205 L 490 205 L 492 205 L 493 204 L 493 204 L 495 204 L 497 203 L 499 203 L 501 203 L 501 202 L 501 202 L 501 202 L 502 202 L 502 201 L 502 201 L 502 201 L 503 200 L 503 200 L 503 200 L 504 199 L 505 199 L 505 199 L 505 199 L 506 198 L 506 198 L 508 198 L 509 197 L 509 197 L 510 197 L 510 196 L 512 196 L 517 196 L 517 196 L 517 195 L 518 195 L 519 195 L 521 194 L 521 194 L 521 194 L 521 193 L 522 193 L 523 193 L 526 193 L 526 192 L 526 192 L 526 192 L 528 191 L 528 191 L 528 191 L 528 190 L 530 190 L 533 190 L 533 190 L 536 189 L 537 189 L 537 189 L 540 188 L 541 188 L 543 188 L 544 187 L 546 187 L 547 187 L 547 187 L 547 186 L 547 186 L 547 186 L 547 185 L 548 185 L 548 185 L 548 184 L 549 184 L 549 184 L 549 184 L 550 183 L 551 183 L 551 183 L 555 182 L 555 182 L 559 182 L 561 181 L 561 181 L 562 181 L 562 181 L 565 180 L 565 180 L 565 180 L 566 179 L 566 179 L 566 179 L 566 178 L 566 178 L 567 178 L 567 178 L 567 177 L 567 177 L 567 177 L 568 176 L 568 176 L 569 176 L 569 175 L 570 175 L 570 175 L 571 175 L 571 174 L 571 174 L 572 174 L 573 173 L 575 173 L 575 173 L 575 172 L 575 172 L 575 172 L 576 172 L 576 171 L 576 171 L 577 171 L 579 170 L 581 170 L 583 170 L 584 169 L 585 169 L 588 169 L 591 169 L 591 168 L 593 168 L 597 168 L 597 167 L 597 167 L 601 167 L 602 166 L 602 166 L 603 166 L 603 166 L 610 165 L 610 165 L 611 165 L 611 164 L 611 164 L 612 164 L 613 163 L 613 163 L 613 163 L 614 163 L 614 162 L 614 162 L 615 162 L 615 161 L 615 161 L 615 161 L 615 160 L 615 160 L 615 160 L 617 160 L 618 159 L 619 159 L 619 159 L 619 158 L 620 158 L 620 158 L 621 157 L 621 157 L 622 157 L 622 157 L 622 156 L 622 156 L 624 156 L 624 155 L 625 155 L 625 155 L 626 154 L 626 154 L 627 154 L 627 154 L 627 153 L 627 153 L 628 153 L 628 152 L 628 152 L 629 152 L 629 151 L 630 151 L 631 151 L 631 151 L 631 150 L 631 150 L 631 150 L 632 149 L 632 149 L 632 149 L 633 148 L 633 148 L 633 148 L 634 148 L 634 147 L 634 147 L 634 147 L 634 146 L 634 146 L 635 146 L 635 145 L 635 145 L 635 145 L 635 145 L 637 144 L 638 144 L 640 144 L 640 143 L 640 143 L 640 143 L 641 142 L 642 142 L 642 142 L 643 142 L 645 141 L 647 141 L 647 141 L 648 140 L 649 140 L 649 140 L 650 139 L 650 139 L 650 139 L 650 139 L 650 138 L 650 138 L 650 138 L 650 137 L 651 137 L 651 137 L 651 136 L 651 136 L 651 136 L 652 136 L 652 135 L 652 135 L 652 135 L 653 134 L 654 134 L 655 134 L 655 133 L 655 133 L 656 133 L 656 132 L 657 132 L 660 132 L 660 132 L 660 131 L 660 131 L 660 131 L 662 130 L 664 130 L 664 130 L 665 130 L 665 129 L 666 129 L 666 129 L 666 128 L 670 128 L 672 128 L 675 127 L 676 127 L 677 127 L 677 126 L 678 126 L 678 126 L 679 126 L 679 125 L 679 125 L 680 125 L 680 124 L 681 124 L 682 124 L 683 124 L 683 123 L 683 123 L 683 123 L 683 122 L 683 122 L 683 122 L 683 121 L 683 121 L 683 121 L 683 121 L 683 120 L 684 120 L 684 120 L 684 119 L 684 119 L 684 119 L 684 118 L 684 118 L 685 118 L 685 118 L 685 117 L 685 117 L 685 117 L 685 116 L 685 116 L 686 116 L 686 115 L 687 115 L 687 115 L 687 115 L 687 114 L 687 114 L 688 114 L 689 113 L 690 113 L 691 113 L 691 112 L 692 112 L 692 112 L 692 112 L 693 111 L 695 111 L 696 111 L 697 110 L 697 110 L 697 110 L 697 109 L 697 109 L 697 109 L 697 109 L 698 108 L 699 108 L 699 108 L 702 107 L 703 107 L 704 107 L 707 106 L 707 106 L 708 106 L 708 106 L 708 105 L 709 105 L 709 105 L 709 104 L 710 104 L 710 104 L 711 103 L 711 103 L 711 103 L 711 103 L 711 102 L 711 102 L 711 102 L 712 101 L 712 101 L 712 101 L 712 100 L 713 100 L 714 100 L 714 100 L 714 99 L 715 99 L 715 99 L 715 98 L 716 98 L 716 98 L 717 97 L 717 97 L 717 97 L 718 97 L 718 96 L 722 96 L 722 96 L 723 95 L 726 95 L 726 95 L 727 94 L 730 94 L 730 94 L 731 94 L 733 93 L 738 93 L 738 93 L 740 92 L 741 92 L 743 92 L 743 91 L 744 91 L 745 91 L 746 91 L 746 90 L 747 90 L 748 90 L 749 89 L 750 89 L 750 89 L 751 88 L 751 88 L 751 88 L 752 88 L 755 87 L 755 87 L 756 87 L 757 86 L 757 86 L 759 86 L 759 85 L 760 85 L 760 85 L 760 85 L 760 84 L 761 84 L 762 84 L 762 83 L 763 83 L 764 83 L 764 82 L 764 82 L 765 82 L 766 82 L 766 81 L 766 81 L 767 81 L 767 80 L 767 80 L 767 80 L 767 79 L 768 79 L 768 79 L 770 79 L 771 78 L 772 78 L 775 78 L 775 77 L 776 77 L 777 77 L 779 76 L 781 76 L 783 76 L 784 76 L 785 75 L 786 75 L 787 75 L 789 74 L 791 74 L 791 74 L 791 73 L 791 73 L 791 73 L 791 73 L 792 72 L 793 72 L 794 72 L 795 71 L 795 71 L 795 71 L 801 70 L 801 70 L 802 70 L 804 70 L 805 69 L 806 69 L 806 69 L 807 68 L 807 68 L 807 68 L 809 67 L 809 67 L 809 67 L 810 67 L 810 66 L 810 66 L 811 66 L 811 65 L 812 65 L 813 65 L 815 64 L 816 64 L 820 64 L 821 64 L 821 63 L 822 63 L 823 63 L 823 62 L 823 62 L 823 62 L 826 61 L 827 61 L 829 61 L 829 61 L 829 60 L 829 60 L 831 60 L 832 59 L 834 59 L 834 59 L 834 58 L 834 58 L 835 58 L 835 58 L 835 57 L 836 57 L 837 57 L 837 56 L 838 56 L 839 56 L 840 55 L 840 55 L 840 55 L 840 55 L 841 54 L 841 54 L 844 54 L 848 53 L 848 53 L 851 53 L 852 52 L 855 52 L 855 52 L 856 52 L 856 51 L 857 51 L 858 51 L 859 50 L 861 50 L 862 50 L 865 49 L 869 49 L 869 49 L 869 49 L 870 48 L 870 48 L 872 48 L 872 47 L 872 47 L 880 47 L 883 46 L 883 46 L 884 46 L 886 46 L 888 45 L 890 45 L 891 45 L 891 44 L 892 44 L 893 44 L 898 43 L 898 43 L 899 43 L 901 43 L 903 42 L 904 42 L 904 42 L 904 41 L 904 41 L 904 41 L 905 40 L 905 40 L 907 40 L 908 40 L 909 39 L 910 39 L 910 39 L 911 38 L 913 38 L 916 38 L 917 37 L 918 37 L 919 37 L 920 37 L 920 36 L 920 36 L 920 36 L 921 35 L 921 35 L 923 35 L 923 34 L 924 34 L 924 34 L 924 34 L 925 33 L 925 33 L 925 33 L 925 32 L 925 32 L 925 32 L 926 31 L 926 31 L 926 31 L 927 31 L 927 30 L 927 30 L 927 30 L 928 29 L 928 29 L 928 29 L 929 28 L 934 28 L 935 28 L 936 28 L 937 27 L 937 27 L 937 27 L 937 26 L 937 26 L 937 26 L 937 25 L 937 25 L 937 25 L 937 25 L 937 24 L 937 24 L 937 24 L 937 23 L 937 23 L 937 23 L 937 22"></path><path stroke-width="2" d="M 937 346 L 937.000000 15.000000" /><path stroke-width="2" d="M 937 346 L 937.000000 15.000000"></path><path stroke-width="2" d="M 937 346 L 942 346" /><path stroke-width="2" d="M 937 346 L 942 346"></path><text y="352" xmlns="http://www.w3.org/2000/svg" x="947">0</text><path stroke-width="2" d="M 937 307 L 942 307" /><path stroke-width="2" d="M 937 307 L 942 307"></path><text xmlns="http://www.w3.org/2000/svg" x="947" y="313">130</text><path stroke-width="2" d="M 937 271 L 942 271" /><path stroke-width="2" d="M 937 271 L 942 271"></path><text y="277" xmlns="http://www.w3.org/2000/svg" x="947">250</text><path d="M 937 235 L 942 235" stroke-width="2" /><path stroke-width="2" d="M 937 235 L 942 235"></path><text xmlns="http://www.w3.org/2000/svg" x="947" y="241">370</text><path d="M 937 199 L 942 199" stroke-width="2" /><path stroke-width="2" d="M 937 199 L 942 199"></path><text xmlns="http://www.w3.org/2000/svg" x="947" y="205">490</text><path d="M 937 160 L 942 160" stroke-width="2" /><path stroke-width="2" d="M 937 160 L 942 160"></path><text y="166" xmlns="http://www.w3.org/2000/svg" x="947">620</text><path stroke-width="2" d="M 937 124 L 942 124" /><path d="M 937 124 L 942 124" stroke-width="2"></path><text xmlns="http://www.w3.org/2000/svg" x="947" y="130">740</text><path stroke-width="2" d="M 937 88 L 942 88" /><path stroke-width="2" d="M 937 88 L 942 88"></path><text y="94" xmlns="http://www.w3.org/2000/svg" x="947">860</text><path stroke-width="2" d="M 937 52 L 942 52" /><path stroke-width="2" d="M 937 52 L 942 52"></path><text xmlns="http://www.w3.org/2000/svg" x="947" y="58">980</text><path stroke-width="2" d="M 937 16 L 942 16" /><path stroke-width="2" d="M 937 16 L 942 16"></path><text xmlns="http://www.w3.org/2000/svg" x="947" y="22">1100</text><text transform="rotate(90.00,987,175)" xmlns="http://www.w3.org/2000/svg" x="987" y="175">Stargazers</text><path d="M 57.000000 346.000000 L 937 346" stroke-width="2" /><path stroke-width="2" d="M 57.000000 346.000000 L 937 346"></path><path stroke-width="2" d="M 58 346 L 58 351" /><path stroke-width="2" d="M 58 346 L 58 351"></path><text xmlns="http://www.w3.org/2000/svg" x="25" y="368">2023-04-02</text><path stroke-width="2" d="M 156 346 L 156 351" /><path d="M 156 346 L 156 351" stroke-width="2"></path><text x="123" y="368" xmlns="http://www.w3.org/2000/svg">2023-07-09</text><path stroke-width="2" d="M 254 346 L 254 351" /><path stroke-width="2" d="M 254 346 L 254 351"></path><text xmlns="http://www.w3.org/2000/svg" x="221" y="368">2023-10-15</text><path d="M 351 346 L 351 351" stroke-width="2" /><path d="M 351 346 L 351 351" stroke-width="2"></path><text xmlns="http://www.w3.org/2000/svg" x="318" y="368">2024-01-21</text><path stroke-width="2" d="M 449 346 L 449 351" /><path stroke-width="2" d="M 449 346 L 449 351"></path><text xmlns="http://www.w3.org/2000/svg" x="416" y="368">2024-04-28</text><path stroke-width="2" d="M 547 346 L 547 351" /><path stroke-width="2" d="M 547 346 L 547 351"></path><text x="514" y="368" xmlns="http://www.w3.org/2000/svg">2024-08-04</text><path stroke-width="2" d="M 644 346 L 644 351" /><path d="M 644 346 L 644 351" stroke-width="2"></path><text xmlns="http://www.w3.org/2000/svg" x="611" y="368">2024-11-11</text><path stroke-width="2" d="M 742 346 L 742 351" /><path stroke-width="2" d="M 742 346 L 742 351"></path><text xmlns="http://www.w3.org/2000/svg" x="709" y="368">2025-02-17</text><path stroke-width="2" d="M 840 346 L 840 351" /><path stroke-width="2" d="M 840 346 L 840 351"></path><text xmlns="http://www.w3.org/2000/svg" x="807" y="368">2025-05-26</text><path d="M 937 346 L 937 351" stroke-width="2" /><path stroke-width="2" d="M 937 346 L 937 351"></path><text xmlns="http://www.w3.org/2000/svg" x="904" y="368">2025-09-01</text><text y="390" xmlns="http://www.w3.org/2000/svg" x="483">Time</text></svg>