<svg xmlns="http://www.w3.org/2000/svg" xmlns:xlink="http://www.w3.org/1999/xlink" width="1024px" height="400px"><style type="text/css">
path { fill: none; stroke: rgb(51,51,51); }
path.series { stroke: #6b63ff; }
rect.background { fill: rgb(255,255,255); stroke: none; }

text {
	stroke-width: 0;
	stroke: none;
	fill: rgba(51,51,51,1.0);
	font-size: 12.8px;
	font-family: 'Roboto Medium', sans-serif;
}
</style><rect x="0" y="0" width="1024px" height="400px" class="background" rx="8" /><rect height="400px" class="background" rx="8" x="0" y="0" width="1024px"></rect><path class="series" d="M 58 345 L 63 344 L 92 343 L 93 342 L 93 341 L 93 341 L 93 340 L 93 339 L 93 338 L 93 337 L 94 337 L 94 336 L 94 335 L 94 334 L 94 333 L 94 333 L 94 332 L 94 331 L 95 330 L 95 329 L 96 329 L 97 328 L 98 327 L 100 326 L 101 325 L 101 325 L 101 324 L 102 323 L 104 322 L 107 321 L 108 321 L 110 320 L 112 319 L 121 318 L 121 317 L 121 317 L 121 316 L 121 315 L 121 314 L 127 313 L 129 313 L 131 312 L 135 311 L 142 310 L 145 309 L 158 308 L 162 308 L 169 307 L 177 306 L 180 305 L 207 304 L 209 304 L 209 303 L 212 302 L 213 301 L 213 300 L 213 300 L 213 299 L 213 298 L 213 297 L 213 296 L 213 296 L 214 295 L 214 294 L 214 293 L 214 292 L 215 292 L 215 291 L 215 290 L 215 289 L 215 288 L 215 288 L 215 287 L 215 286 L 215 285 L 215 284 L 215 284 L 215 283 L 215 282 L 215 281 L 215 280 L 215 280 L 215 279 L 215 278 L 215 277 L 215 276 L 215 275 L 215 275 L 215 274 L 215 273 L 215 272 L 215 271 L 215 271 L 215 270 L 215 269 L 215 268 L 216 267 L 216 267 L 216 266 L 216 265 L 216 264 L 216 263 L 217 263 L 217 262 L 217 261 L 218 260 L 218 259 L 220 259 L 220 258 L 220 257 L 220 256 L 220 255 L 220 255 L 220 254 L 220 253 L 220 252 L 220 251 L 220 251 L 220 250 L 220 249 L 220 248 L 220 247 L 220 247 L 220 246 L 221 245 L 223 244 L 223 243 L 223 242 L 223 242 L 229 241 L 230 240 L 230 239 L 232 238 L 232 238 L 237 237 L 241 236 L 243 235 L 246 234 L 248 234 L 251 233 L 252 232 L 253 231 L 257 230 L 257 230 L 259 229 L 261 228 L 262 227 L 264 226 L 264 226 L 264 225 L 265 224 L 267 223 L 269 222 L 269 222 L 270 221 L 271 220 L 271 219 L 273 218 L 276 218 L 278 217 L 282 216 L 284 215 L 285 214 L 287 214 L 287 213 L 288 212 L 291 211 L 302 210 L 303 209 L 305 209 L 316 208 L 316 207 L 316 206 L 317 205 L 317 205 L 319 204 L 322 203 L 324 202 L 325 201 L 338 201 L 341 200 L 344 199 L 348 198 L 351 197 L 351 197 L 353 196 L 363 195 L 373 194 L 385 193 L 386 193 L 386 192 L 387 191 L 387 190 L 390 189 L 406 189 L 414 188 L 414 187 L 420 186 L 422 185 L 423 185 L 441 184 L 441 183 L 442 182 L 443 181 L 445 181 L 450 180 L 452 179 L 456 178 L 458 177 L 462 176 L 472 176 L 473 175 L 474 174 L 475 173 L 475 172 L 476 172 L 481 171 L 491 170 L 514 169 L 522 168 L 523 168 L 527 167 L 527 166 L 530 165 L 532 164 L 532 164 L 532 163 L 532 162 L 532 161 L 532 160 L 532 160 L 533 159 L 533 158 L 533 157 L 533 156 L 533 156 L 533 155 L 534 154 L 535 153 L 536 152 L 538 152 L 539 151 L 539 150 L 539 149 L 539 148 L 542 148 L 542 147 L 542 146 L 542 145 L 542 144 L 542 143 L 542 143 L 544 142 L 545 141 L 546 140 L 547 139 L 547 139 L 547 138 L 547 137 L 549 136 L 549 135 L 549 135 L 550 134 L 551 133 L 552 132 L 552 131 L 554 131 L 556 130 L 557 129 L 560 128 L 564 127 L 564 127 L 565 126 L 566 125 L 566 124 L 566 123 L 566 123 L 569 122 L 570 121 L 574 120 L 574 119 L 575 119 L 579 118 L 581 117 L 581 116 L 586 115 L 587 115 L 588 114 L 590 113 L 590 112 L 598 111 L 600 110 L 600 110 L 607 109 L 610 108 L 617 107 L 619 106 L 619 106 L 621 105 L 622 104 L 622 103 L 627 102 L 631 102 L 634 101 L 634 100 L 637 99 L 639 98 L 639 98 L 639 97 L 639 96 L 641 95 L 641 94 L 641 94 L 643 93 L 643 92 L 644 91 L 645 90 L 653 90 L 663 89 L 663 88 L 663 87 L 670 86 L 673 86 L 674 85 L 675 84 L 677 83 L 679 82 L 679 82 L 679 81 L 680 80 L 680 79 L 680 78 L 680 77 L 681 77 L 681 76 L 683 75 L 687 74 L 687 73 L 687 73 L 688 72 L 688 71 L 689 70 L 689 69 L 689 69 L 689 68 L 689 67 L 689 66 L 689 65 L 689 65 L 692 64 L 697 63 L 702 62 L 702 61 L 703 61 L 712 60 L 723 59 L 725 58 L 731 57 L 736 57 L 748 56 L 752 55 L 756 54 L 756 53 L 756 53 L 757 52 L 757 51 L 757 50 L 757 49 L 757 49 L 760 48 L 762 47 L 777 46 L 781 45 L 786 44 L 798 44 L 806 43 L 813 42 L 817 41 L 826 40 L 826 40 L 843 39 L 861 38 L 861 37 L 873 36 L 874 36 L 883 35 L 885 34 L 891 33 L 891 32 L 892 32 L 892 31 L 898 30 L 900 29 L 905 28 L 912 28 L 913 27 L 915 26 L 916 25 L 922 24 L 929 24 L 929 23 L 937 22 L 944 21 L 945 20 L 945 20" stroke-width="2" /><path d="M 58 345 L 63 344 L 92 343 L 93 342 L 93 341 L 93 341 L 93 340 L 93 339 L 93 338 L 93 337 L 94 337 L 94 336 L 94 335 L 94 334 L 94 333 L 94 333 L 94 332 L 94 331 L 95 330 L 95 329 L 96 329 L 97 328 L 98 327 L 100 326 L 101 325 L 101 325 L 101 324 L 102 323 L 104 322 L 107 321 L 108 321 L 110 320 L 112 319 L 121 318 L 121 317 L 121 317 L 121 316 L 121 315 L 121 314 L 127 313 L 129 313 L 131 312 L 135 311 L 142 310 L 145 309 L 158 308 L 162 308 L 169 307 L 177 306 L 180 305 L 207 304 L 209 304 L 209 303 L 212 302 L 213 301 L 213 300 L 213 300 L 213 299 L 213 298 L 213 297 L 213 296 L 213 296 L 214 295 L 214 294 L 214 293 L 214 292 L 215 292 L 215 291 L 215 290 L 215 289 L 215 288 L 215 288 L 215 287 L 215 286 L 215 285 L 215 284 L 215 284 L 215 283 L 215 282 L 215 281 L 215 280 L 215 280 L 215 279 L 215 278 L 215 277 L 215 276 L 215 275 L 215 275 L 215 274 L 215 273 L 215 272 L 215 271 L 215 271 L 215 270 L 215 269 L 215 268 L 216 267 L 216 267 L 216 266 L 216 265 L 216 264 L 216 263 L 217 263 L 217 262 L 217 261 L 218 260 L 218 259 L 220 259 L 220 258 L 220 257 L 220 256 L 220 255 L 220 255 L 220 254 L 220 253 L 220 252 L 220 251 L 220 251 L 220 250 L 220 249 L 220 248 L 220 247 L 220 247 L 220 246 L 221 245 L 223 244 L 223 243 L 223 242 L 223 242 L 229 241 L 230 240 L 230 239 L 232 238 L 232 238 L 237 237 L 241 236 L 243 235 L 246 234 L 248 234 L 251 233 L 252 232 L 253 231 L 257 230 L 257 230 L 259 229 L 261 228 L 262 227 L 264 226 L 264 226 L 264 225 L 265 224 L 267 223 L 269 222 L 269 222 L 270 221 L 271 220 L 271 219 L 273 218 L 276 218 L 278 217 L 282 216 L 284 215 L 285 214 L 287 214 L 287 213 L 288 212 L 291 211 L 302 210 L 303 209 L 305 209 L 316 208 L 316 207 L 316 206 L 317 205 L 317 205 L 319 204 L 322 203 L 324 202 L 325 201 L 338 201 L 341 200 L 344 199 L 348 198 L 351 197 L 351 197 L 353 196 L 363 195 L 373 194 L 385 193 L 386 193 L 386 192 L 387 191 L 387 190 L 390 189 L 406 189 L 414 188 L 414 187 L 420 186 L 422 185 L 423 185 L 441 184 L 441 183 L 442 182 L 443 181 L 445 181 L 450 180 L 452 179 L 456 178 L 458 177 L 462 176 L 472 176 L 473 175 L 474 174 L 475 173 L 475 172 L 476 172 L 481 171 L 491 170 L 514 169 L 522 168 L 523 168 L 527 167 L 527 166 L 530 165 L 532 164 L 532 164 L 532 163 L 532 162 L 532 161 L 532 160 L 532 160 L 533 159 L 533 158 L 533 157 L 533 156 L 533 156 L 533 155 L 534 154 L 535 153 L 536 152 L 538 152 L 539 151 L 539 150 L 539 149 L 539 148 L 542 148 L 542 147 L 542 146 L 542 145 L 542 144 L 542 143 L 542 143 L 544 142 L 545 141 L 546 140 L 547 139 L 547 139 L 547 138 L 547 137 L 549 136 L 549 135 L 549 135 L 550 134 L 551 133 L 552 132 L 552 131 L 554 131 L 556 130 L 557 129 L 560 128 L 564 127 L 564 127 L 565 126 L 566 125 L 566 124 L 566 123 L 566 123 L 569 122 L 570 121 L 574 120 L 574 119 L 575 119 L 579 118 L 581 117 L 581 116 L 586 115 L 587 115 L 588 114 L 590 113 L 590 112 L 598 111 L 600 110 L 600 110 L 607 109 L 610 108 L 617 107 L 619 106 L 619 106 L 621 105 L 622 104 L 622 103 L 627 102 L 631 102 L 634 101 L 634 100 L 637 99 L 639 98 L 639 98 L 639 97 L 639 96 L 641 95 L 641 94 L 641 94 L 643 93 L 643 92 L 644 91 L 645 90 L 653 90 L 663 89 L 663 88 L 663 87 L 670 86 L 673 86 L 674 85 L 675 84 L 677 83 L 679 82 L 679 82 L 679 81 L 680 80 L 680 79 L 680 78 L 680 77 L 681 77 L 681 76 L 683 75 L 687 74 L 687 73 L 687 73 L 688 72 L 688 71 L 689 70 L 689 69 L 689 69 L 689 68 L 689 67 L 689 66 L 689 65 L 689 65 L 692 64 L 697 63 L 702 62 L 702 61 L 703 61 L 712 60 L 723 59 L 725 58 L 731 57 L 736 57 L 748 56 L 752 55 L 756 54 L 756 53 L 756 53 L 757 52 L 757 51 L 757 50 L 757 49 L 757 49 L 760 48 L 762 47 L 777 46 L 781 45 L 786 44 L 798 44 L 806 43 L 813 42 L 817 41 L 826 40 L 826 40 L 843 39 L 861 38 L 861 37 L 873 36 L 874 36 L 883 35 L 885 34 L 891 33 L 891 32 L 892 32 L 892 31 L 898 30 L 900 29 L 905 28 L 912 28 L 913 27 L 915 26 L 916 25 L 922 24 L 929 24 L 929 23 L 937 22 L 944 21 L 945 20 L 945 20" stroke-width="2" class="series"></path><path stroke-width="2" d="M 945 346 L 945.000000 15.000000" /><path stroke-width="2" d="M 945 346 L 945.000000 15.000000"></path><path stroke-width="2" d="M 945 346 L 950 346" /><path stroke-width="2" d="M 945 346 L 950 346"></path><text xmlns="http://www.w3.org/2000/svg" x="955" y="352">0</text><path d="M 945 308 L 950 308" stroke-width="2" /><path stroke-width="2" d="M 945 308 L 950 308"></path><text y="314" xmlns="http://www.w3.org/2000/svg" x="955">46</text><path stroke-width="2" d="M 945 271 L 950 271" /><path stroke-width="2" d="M 945 271 L 950 271"></path><text xmlns="http://www.w3.org/2000/svg" x="955" y="277">92</text><path stroke-width="2" d="M 945 235 L 950 235" /><path stroke-width="2" d="M 945 235 L 950 235"></path><text xmlns="http://www.w3.org/2000/svg" x="955" y="241">137</text><path d="M 945 198 L 950 198" stroke-width="2" /><path stroke-width="2" d="M 945 198 L 950 198"></path><text xmlns="http://www.w3.org/2000/svg" x="955" y="204">183</text><path stroke-width="2" d="M 945 162 L 950 162" /><path d="M 945 162 L 950 162" stroke-width="2"></path><text xmlns="http://www.w3.org/2000/svg" x="955" y="168">228</text><path stroke-width="2" d="M 945 125 L 950 125" /><path stroke-width="2" d="M 945 125 L 950 125"></path><text xmlns="http://www.w3.org/2000/svg" x="955" y="131">274</text><path d="M 945 89 L 950 89" stroke-width="2" /><path stroke-width="2" d="M 945 89 L 950 89"></path><text xmlns="http://www.w3.org/2000/svg" x="955" y="95">319</text><path stroke-width="2" d="M 945 52 L 950 52" /><path stroke-width="2" d="M 945 52 L 950 52"></path><text xmlns="http://www.w3.org/2000/svg" x="955" y="58">365</text><path stroke-width="2" d="M 945 16 L 950 16" /><path stroke-width="2" d="M 945 16 L 950 16"></path><text xmlns="http://www.w3.org/2000/svg" x="955" y="22">410</text><text xmlns="http://www.w3.org/2000/svg" x="987" y="175" transform="rotate(90.00,987,175)">Stargazers</text><path d="M 57.000000 346.000000 L 945 346" stroke-width="2" /><path stroke-width="2" d="M 57.000000 346.000000 L 945 346"></path><path stroke-width="2" d="M 58 346 L 58 351" /><path stroke-width="2" d="M 58 346 L 58 351"></path><text xmlns="http://www.w3.org/2000/svg" x="25" y="368">2023-04-02</text><path stroke-width="2" d="M 157 346 L 157 351" /><path stroke-width="2" d="M 157 346 L 157 351"></path><text xmlns="http://www.w3.org/2000/svg" x="124" y="368">2023-05-13</text><path stroke-width="2" d="M 256 346 L 256 351" /><path stroke-width="2" d="M 256 346 L 256 351"></path><text xmlns="http://www.w3.org/2000/svg" x="223" y="368">2023-06-22</text><path stroke-width="2" d="M 354 346 L 354 351" /><path stroke-width="2" d="M 354 346 L 354 351"></path><text xmlns="http://www.w3.org/2000/svg" x="321" y="368">2023-08-02</text><path stroke-width="2" d="M 453 346 L 453 351" /><path stroke-width="2" d="M 453 346 L 453 351"></path><text xmlns="http://www.w3.org/2000/svg" x="420" y="368">2023-09-12</text><path stroke-width="2" d="M 551 346 L 551 351" /><path d="M 551 346 L 551 351" stroke-width="2"></path><text xmlns="http://www.w3.org/2000/svg" x="518" y="368">2023-10-23</text><path stroke-width="2" d="M 650 346 L 650 351" /><path d="M 650 346 L 650 351" stroke-width="2"></path><text xmlns="http://www.w3.org/2000/svg" x="617" y="368">2023-12-02</text><path stroke-width="2" d="M 748 346 L 748 351" /><path stroke-width="2" d="M 748 346 L 748 351"></path><text xmlns="http://www.w3.org/2000/svg" x="715" y="368">2024-01-12</text><path d="M 847 346 L 847 351" stroke-width="2" /><path stroke-width="2" d="M 847 346 L 847 351"></path><text xmlns="http://www.w3.org/2000/svg" x="814" y="368">2024-02-22</text><path stroke-width="2" d="M 945 346 L 945 351" /><path stroke-width="2" d="M 945 346 L 945 351"></path><text xmlns="http://www.w3.org/2000/svg" x="912" y="368">2024-04-03</text><text xmlns="http://www.w3.org/2000/svg" x="487" y="390">Time</text></svg>