<svg xmlns="http://www.w3.org/2000/svg" xmlns:xlink="http://www.w3.org/1999/xlink" width="1024px" height="400px"><style type="text/css">
path { fill: none; stroke: rgb(51,51,51); }
path.series { stroke: #6b63ff; }
rect.background { fill: rgb(255,255,255); stroke: none; }

text {
	stroke-width: 0;
	stroke: none;
	fill: rgba(51,51,51,1.0);
	font-size: 12.8px;
	font-family: 'Roboto Medium', sans-serif;
}
</style><rect width="1024px" height="400px" class="background" rx="8" x="0" y="0" /><rect x="0" y="0" width="1024px" height="400px" class="background" rx="8"></rect><path stroke-width="2" class="series" d="M 58 345 L 60 345 L 72 345 L 73 344 L 73 344 L 73 344 L 73 343 L 73 343 L 73 343 L 73 343 L 73 342 L 73 342 L 73 342 L 73 341 L 73 341 L 73 341 L 73 340 L 74 340 L 74 340 L 74 340 L 75 339 L 75 339 L 76 339 L 76 338 L 76 338 L 76 338 L 77 337 L 77 337 L 79 337 L 79 337 L 80 336 L 81 336 L 84 336 L 85 335 L 85 335 L 85 335 L 85 334 L 87 334 L 88 334 L 89 334 L 90 333 L 93 333 L 95 333 L 100 332 L 102 332 L 105 332 L 108 331 L 109 331 L 120 331 L 121 331 L 121 330 L 123 330 L 123 330 L 123 329 L 123 329 L 123 329 L 123 328 L 123 328 L 123 328 L 123 328 L 123 327 L 123 327 L 123 327 L 123 326 L 124 326 L 124 326 L 124 325 L 124 325 L 124 325 L 124 325 L 124 324 L 124 324 L 124 324 L 124 323 L 124 323 L 124 323 L 124 322 L 124 322 L 124 322 L 124 322 L 124 321 L 124 321 L 124 321 L 124 320 L 124 320 L 124 320 L 124 319 L 124 319 L 124 319 L 124 319 L 124 318 L 124 318 L 124 318 L 124 317 L 124 317 L 124 317 L 124 316 L 124 316 L 124 316 L 124 316 L 125 315 L 125 315 L 125 315 L 125 314 L 125 314 L 126 314 L 126 313 L 126 313 L 126 313 L 126 313 L 126 312 L 126 312 L 126 312 L 126 311 L 126 311 L 126 311 L 126 310 L 126 310 L 126 310 L 126 310 L 126 309 L 126 309 L 126 309 L 127 308 L 127 308 L 127 308 L 127 307 L 130 307 L 130 307 L 130 307 L 131 306 L 131 306 L 133 306 L 135 305 L 135 305 L 137 305 L 137 304 L 139 304 L 139 304 L 139 304 L 141 303 L 141 303 L 142 303 L 143 302 L 143 302 L 144 302 L 144 301 L 144 301 L 144 301 L 145 301 L 146 300 L 146 300 L 147 300 L 147 299 L 147 299 L 148 299 L 149 298 L 150 298 L 152 298 L 152 298 L 153 297 L 154 297 L 154 297 L 154 296 L 155 296 L 160 296 L 160 295 L 161 295 L 166 295 L 166 295 L 166 294 L 166 294 L 166 294 L 167 293 L 168 293 L 169 293 L 169 292 L 175 292 L 176 292 L 177 292 L 179 291 L 180 291 L 180 291 L 181 290 L 185 290 L 190 290 L 195 289 L 195 289 L 195 289 L 195 289 L 195 288 L 203 288 L 207 288 L 207 287 L 209 287 L 210 287 L 210 286 L 218 286 L 218 286 L 218 286 L 218 285 L 219 285 L 222 285 L 222 284 L 224 284 L 225 284 L 227 283 L 231 283 L 231 283 L 232 283 L 232 282 L 232 282 L 232 282 L 234 281 L 239 281 L 248 281 L 252 280 L 253 280 L 254 280 L 256 280 L 256 279 L 256 279 L 256 279 L 256 278 L 256 278 L 256 278 L 256 277 L 256 277 L 256 277 L 256 277 L 256 276 L 256 276 L 257 276 L 257 275 L 259 275 L 259 275 L 259 274 L 259 274 L 260 274 L 260 274 L 260 273 L 260 273 L 260 273 L 260 272 L 260 272 L 261 272 L 261 271 L 262 271 L 262 271 L 262 271 L 262 270 L 262 270 L 263 270 L 263 269 L 263 269 L 264 269 L 264 268 L 264 268 L 265 268 L 266 268 L 266 267 L 267 267 L 269 267 L 269 266 L 270 266 L 270 266 L 270 265 L 270 265 L 270 265 L 271 265 L 272 264 L 273 264 L 273 264 L 274 263 L 275 263 L 276 263 L 276 262 L 278 262 L 279 262 L 279 262 L 280 261 L 280 261 L 283 261 L 284 260 L 284 260 L 287 260 L 288 259 L 291 259 L 292 259 L 292 259 L 293 258 L 293 258 L 293 258 L 295 257 L 297 257 L 298 257 L 298 256 L 300 256 L 300 256 L 300 256 L 300 255 L 301 255 L 301 255 L 301 254 L 302 254 L 302 254 L 302 253 L 303 253 L 306 253 L 310 253 L 310 252 L 310 252 L 313 252 L 314 251 L 315 251 L 315 251 L 316 250 L 317 250 L 317 250 L 317 250 L 317 249 L 317 249 L 317 249 L 317 248 L 318 248 L 318 248 L 318 247 L 320 247 L 320 247 L 320 247 L 321 246 L 321 246 L 321 246 L 321 245 L 321 245 L 321 245 L 321 244 L 321 244 L 321 244 L 321 244 L 324 243 L 326 243 L 326 243 L 327 242 L 335 242 L 336 242 L 339 241 L 341 241 L 347 241 L 349 241 L 349 240 L 349 240 L 349 240 L 349 239 L 349 239 L 349 239 L 351 238 L 351 238 L 358 238 L 359 238 L 362 237 L 366 237 L 370 237 L 373 236 L 375 236 L 378 236 L 378 235 L 385 235 L 393 235 L 393 235 L 398 234 L 398 234 L 402 234 L 403 233 L 405 233 L 405 233 L 406 232 L 406 232 L 408 232 L 409 232 L 411 231 L 414 231 L 414 231 L 415 230 L 416 230 L 418 230 L 421 229 L 421 229 L 424 229 L 427 229 L 428 228 L 428 228 L 429 228 L 430 227 L 431 227 L 433 227 L 435 226 L 437 226 L 439 226 L 439 226 L 443 225 L 444 225 L 446 225 L 449 224 L 449 224 L 453 224 L 454 223 L 454 223 L 455 223 L 455 223 L 457 222 L 457 222 L 459 222 L 461 221 L 462 221 L 462 221 L 462 220 L 468 220 L 468 220 L 469 220 L 469 219 L 469 219 L 470 219 L 470 218 L 470 218 L 471 218 L 472 217 L 472 217 L 474 217 L 474 217 L 475 216 L 475 216 L 476 216 L 476 215 L 476 215 L 476 215 L 476 214 L 477 214 L 477 214 L 477 214 L 478 213 L 478 213 L 479 213 L 480 212 L 480 212 L 480 212 L 481 211 L 482 211 L 483 211 L 483 211 L 483 210 L 484 210 L 485 210 L 486 209 L 486 209 L 486 209 L 488 208 L 488 208 L 488 208 L 488 208 L 488 207 L 489 207 L 489 207 L 489 206 L 489 206 L 490 206 L 493 205 L 494 205 L 495 205 L 495 205 L 497 204 L 498 204 L 498 204 L 500 203 L 502 203 L 504 203 L 506 202 L 506 202 L 506 202 L 507 202 L 507 201 L 507 201 L 507 201 L 507 200 L 508 200 L 508 200 L 508 199 L 509 199 L 510 199 L 511 199 L 511 198 L 511 198 L 512 198 L 514 197 L 514 197 L 514 197 L 515 196 L 515 196 L 517 196 L 523 196 L 523 195 L 523 195 L 523 195 L 524 194 L 526 194 L 527 194 L 527 193 L 527 193 L 527 193 L 528 193 L 531 192 L 531 192 L 531 192 L 531 191 L 533 191 L 533 191 L 533 190 L 534 190 L 536 190 L 539 190 L 539 189 L 542 189 L 542 189 L 543 188 L 546 188 L 546 188 L 549 187 L 550 187 L 551 187 L 552 187 L 552 186 L 553 186 L 553 186 L 553 185 L 553 185 L 554 185 L 554 184 L 554 184 L 555 184 L 555 184 L 555 183 L 556 183 L 557 183 L 557 182 L 561 182 L 561 182 L 565 181 L 567 181 L 567 181 L 568 181 L 568 180 L 571 180 L 571 180 L 571 179 L 572 179 L 572 179 L 572 178 L 572 178 L 572 178 L 573 178 L 573 177 L 573 177 L 573 177 L 573 176 L 574 176 L 574 176 L 575 175 L 575 175 L 576 175 L 576 175 L 577 174 L 577 174 L 577 174 L 578 173 L 579 173 L 581 173 L 581 172 L 581 172 L 581 172 L 581 172 L 582 171 L 582 171 L 582 171 L 583 170 L 585 170 L 587 170 L 589 169 L 590 169 L 591 169 L 594 169 L 597 168 L 597 168 L 600 168 L 603 167 L 603 167 L 603 167 L 607 166 L 608 166 L 609 166 L 609 166 L 609 165 L 616 165 L 616 165 L 617 164 L 617 164 L 618 164 L 618 163 L 619 163 L 619 163 L 620 163 L 620 162 L 620 162 L 621 162 L 621 161 L 621 161 L 621 161 L 621 160 L 622 160 L 622 160 L 622 160 L 623 159 L 624 159 L 625 159 L 625 158 L 625 158 L 626 158 L 627 157 L 627 157 L 628 157 L 628 157 L 628 156 L 629 156 L 629 156 L 630 155 L 630 155 L 631 155 L 631 154 L 632 154 L 633 154 L 633 154 L 633 153 L 634 153 L 634 153 L 634 152 L 634 152 L 635 152 L 636 151 L 636 151 L 637 151 L 637 151 L 637 150 L 637 150 L 637 150 L 638 149 L 638 149 L 638 149 L 638 148 L 639 148 L 640 148 L 640 148 L 640 147 L 640 147 L 641 147 L 641 146 L 641 146 L 641 146 L 641 145 L 641 145 L 641 145 L 642 145 L 642 144 L 644 144 L 644 144 L 646 143 L 646 143 L 646 143 L 646 142 L 648 142 L 648 142 L 649 142 L 649 141 L 651 141 L 653 141 L 654 140 L 655 140 L 656 140 L 656 139 L 656 139 L 656 139 L 657 139 L 657 138 L 657 138 L 657 138 L 657 137 L 657 137 L 657 137 L 658 136 L 658 136 L 658 136 L 658 136 L 658 135 L 659 135 L 659 135 L 659 134 L 660 134 L 661 134 L 661 133 L 662 133 L 662 133 L 663 132 L 663 132 L 664 132 L 667 132 L 667 131 L 667 131 L 667 131 L 667 130 L 669 130 L 670 130 L 671 130 L 672 129 L 672 129 L 673 129 L 673 128 L 673 128 L 677 128 L 679 127 L 682 127 L 683 127 L 684 126 L 685 126 L 686 126 L 686 126 L 686 125 L 686 125 L 686 125 L 687 124 L 687 124 L 688 124 L 689 124 L 691 123 L 691 123 L 691 123 L 691 122 L 691 122 L 691 122 L 691 121 L 691 121 L 691 121 L 691 121 L 691 120 L 691 120 L 691 120 L 691 119 L 691 119 L 691 119 L 691 118 L 692 118 L 692 118 L 692 118 L 692 117 L 692 117 L 692 117 L 692 116 L 693 116 L 693 116 L 693 115 L 694 115 L 694 115 L 694 115 L 694 114 L 694 114 L 694 114 L 695 113 L 696 113 L 698 113 L 698 112 L 698 112 L 699 112 L 699 112 L 700 111 L 700 111 L 702 111 L 703 110 L 704 110 L 704 110 L 704 109 L 704 109 L 704 109 L 704 109 L 704 108 L 706 108 L 706 108 L 706 107 L 709 107 L 711 107 L 712 106 L 714 106 L 715 106 L 716 106 L 716 105 L 716 105 L 716 105 L 716 104 L 717 104 L 717 104 L 718 103 L 718 103 L 718 103 L 719 103 L 719 102 L 719 102 L 719 102 L 719 101 L 719 101 L 719 101 L 720 100 L 720 100 L 720 100 L 721 100 L 722 99 L 722 99 L 722 99 L 723 98 L 723 98 L 723 98 L 724 97 L 724 97 L 724 97 L 725 97 L 725 96 L 726 96 L 729 96 L 730 95 L 731 95 L 733 95 L 734 94 L 735 94 L 738 94 L 738 94 L 739 93 L 741 93 L 746 93 L 746 92 L 748 92 L 749 92 L 751 91 L 751 91 L 751 91 L 753 91 L 754 90 L 754 90 L 755 90 L 756 89 L 757 89 L 758 89 L 758 88 L 759 88 L 759 88 L 759 88 L 760 87 L 763 87 L 763 87 L 764 86 L 765 86 L 766 86 L 767 85 L 767 85 L 768 85 L 768 85 L 768 84 L 769 84 L 769 84 L 770 83 L 770 83 L 771 83 L 772 82 L 772 82 L 772 82 L 773 82 L 774 81 L 774 81 L 774 81 L 775 80 L 775 80 L 775 80 L 775 79 L 776 79 L 776 79 L 776 79 L 778 78 L 779 78 L 780 78 L 780 77 L 783 77 L 783 77 L 785 76 L 785 76 L 788 76 L 789 76 L 791 75 L 793 75 L 794 75 L 794 74 L 796 74 L 798 74 L 799 73 L 799 73 L 799 73 L 800 73 L 800 72 L 800 72 L 801 72 L 802 71 L 803 71 L 803 71 L 804 70 L 804 70 L 809 70 L 810 70 L 811 69 L 812 69 L 814 69 L 815 68 L 815 68 L 816 68 L 816 67 L 816 67 L 817 67 L 818 67 L 818 66 L 818 66 L 819 66 L 819 65 L 819 65 L 820 65 L 821 64 L 821 64 L 824 64 L 824 64 L 829 63 L 829 63 L 830 63 L 831 62 L 832 62 L 832 62 L 832 61 L 832 61 L 835 61 L 836 61 L 838 60 L 838 60 L 838 60 L 838 59 L 840 59 L 841 59 L 843 58 L 843 58 L 843 58 L 843 58 L 844 57 L 844 57 L 844 57 L 845 56 L 846 56 L 846 56 L 847 55 L 848 55 L 849 55 L 849 55 L 849 54 L 849 54 L 850 54 L 850 53 L 853 53 L 857 53 L 857 52 L 861 52 L 861 52 L 864 52 L 864 51 L 865 51 L 865 51 L 866 50 L 867 50 L 868 50 L 870 49 L 871 49 L 874 49 L 879 49 L 879 48 L 879 48 L 879 48 L 879 47 L 881 47 L 881 47 L 881 46 L 889 46 L 892 46 L 892 46 L 893 45 L 895 45 L 897 45 L 899 44 L 900 44 L 900 44 L 901 43 L 902 43 L 907 43 L 908 43 L 909 42 L 910 42 L 913 42 L 913 41 L 913 41 L 913 41 L 913 40 L 914 40 L 914 40 L 914 40 L 917 39 L 918 39 L 919 39 L 919 38 L 919 38 L 920 38 L 922 37 L 926 37 L 927 37 L 928 37 L 929 36 L 929 36 L 930 36 L 930 35 L 930 35 L 930 35 L 930 34 L 932 34 L 933 34 L 934 34 L 934 33 L 934 33 L 935 33 L 935 32 L 935 32 L 935 32 L 935 31 L 935 31 L 936 31 L 936 31 L 936 30 L 937 30 L 937 30 L 937 29 L 937 29 L 937 29" /><path stroke-width="2" class="series" d="M 58 345 L 60 345 L 72 345 L 73 344 L 73 344 L 73 344 L 73 343 L 73 343 L 73 343 L 73 343 L 73 342 L 73 342 L 73 342 L 73 341 L 73 341 L 73 341 L 73 340 L 74 340 L 74 340 L 74 340 L 75 339 L 75 339 L 76 339 L 76 338 L 76 338 L 76 338 L 77 337 L 77 337 L 79 337 L 79 337 L 80 336 L 81 336 L 84 336 L 85 335 L 85 335 L 85 335 L 85 334 L 87 334 L 88 334 L 89 334 L 90 333 L 93 333 L 95 333 L 100 332 L 102 332 L 105 332 L 108 331 L 109 331 L 120 331 L 121 331 L 121 330 L 123 330 L 123 330 L 123 329 L 123 329 L 123 329 L 123 328 L 123 328 L 123 328 L 123 328 L 123 327 L 123 327 L 123 327 L 123 326 L 124 326 L 124 326 L 124 325 L 124 325 L 124 325 L 124 325 L 124 324 L 124 324 L 124 324 L 124 323 L 124 323 L 124 323 L 124 322 L 124 322 L 124 322 L 124 322 L 124 321 L 124 321 L 124 321 L 124 320 L 124 320 L 124 320 L 124 319 L 124 319 L 124 319 L 124 319 L 124 318 L 124 318 L 124 318 L 124 317 L 124 317 L 124 317 L 124 316 L 124 316 L 124 316 L 124 316 L 125 315 L 125 315 L 125 315 L 125 314 L 125 314 L 126 314 L 126 313 L 126 313 L 126 313 L 126 313 L 126 312 L 126 312 L 126 312 L 126 311 L 126 311 L 126 311 L 126 310 L 126 310 L 126 310 L 126 310 L 126 309 L 126 309 L 126 309 L 127 308 L 127 308 L 127 308 L 127 307 L 130 307 L 130 307 L 130 307 L 131 306 L 131 306 L 133 306 L 135 305 L 135 305 L 137 305 L 137 304 L 139 304 L 139 304 L 139 304 L 141 303 L 141 303 L 142 303 L 143 302 L 143 302 L 144 302 L 144 301 L 144 301 L 144 301 L 145 301 L 146 300 L 146 300 L 147 300 L 147 299 L 147 299 L 148 299 L 149 298 L 150 298 L 152 298 L 152 298 L 153 297 L 154 297 L 154 297 L 154 296 L 155 296 L 160 296 L 160 295 L 161 295 L 166 295 L 166 295 L 166 294 L 166 294 L 166 294 L 167 293 L 168 293 L 169 293 L 169 292 L 175 292 L 176 292 L 177 292 L 179 291 L 180 291 L 180 291 L 181 290 L 185 290 L 190 290 L 195 289 L 195 289 L 195 289 L 195 289 L 195 288 L 203 288 L 207 288 L 207 287 L 209 287 L 210 287 L 210 286 L 218 286 L 218 286 L 218 286 L 218 285 L 219 285 L 222 285 L 222 284 L 224 284 L 225 284 L 227 283 L 231 283 L 231 283 L 232 283 L 232 282 L 232 282 L 232 282 L 234 281 L 239 281 L 248 281 L 252 280 L 253 280 L 254 280 L 256 280 L 256 279 L 256 279 L 256 279 L 256 278 L 256 278 L 256 278 L 256 277 L 256 277 L 256 277 L 256 277 L 256 276 L 256 276 L 257 276 L 257 275 L 259 275 L 259 275 L 259 274 L 259 274 L 260 274 L 260 274 L 260 273 L 260 273 L 260 273 L 260 272 L 260 272 L 261 272 L 261 271 L 262 271 L 262 271 L 262 271 L 262 270 L 262 270 L 263 270 L 263 269 L 263 269 L 264 269 L 264 268 L 264 268 L 265 268 L 266 268 L 266 267 L 267 267 L 269 267 L 269 266 L 270 266 L 270 266 L 270 265 L 270 265 L 270 265 L 271 265 L 272 264 L 273 264 L 273 264 L 274 263 L 275 263 L 276 263 L 276 262 L 278 262 L 279 262 L 279 262 L 280 261 L 280 261 L 283 261 L 284 260 L 284 260 L 287 260 L 288 259 L 291 259 L 292 259 L 292 259 L 293 258 L 293 258 L 293 258 L 295 257 L 297 257 L 298 257 L 298 256 L 300 256 L 300 256 L 300 256 L 300 255 L 301 255 L 301 255 L 301 254 L 302 254 L 302 254 L 302 253 L 303 253 L 306 253 L 310 253 L 310 252 L 310 252 L 313 252 L 314 251 L 315 251 L 315 251 L 316 250 L 317 250 L 317 250 L 317 250 L 317 249 L 317 249 L 317 249 L 317 248 L 318 248 L 318 248 L 318 247 L 320 247 L 320 247 L 320 247 L 321 246 L 321 246 L 321 246 L 321 245 L 321 245 L 321 245 L 321 244 L 321 244 L 321 244 L 321 244 L 324 243 L 326 243 L 326 243 L 327 242 L 335 242 L 336 242 L 339 241 L 341 241 L 347 241 L 349 241 L 349 240 L 349 240 L 349 240 L 349 239 L 349 239 L 349 239 L 351 238 L 351 238 L 358 238 L 359 238 L 362 237 L 366 237 L 370 237 L 373 236 L 375 236 L 378 236 L 378 235 L 385 235 L 393 235 L 393 235 L 398 234 L 398 234 L 402 234 L 403 233 L 405 233 L 405 233 L 406 232 L 406 232 L 408 232 L 409 232 L 411 231 L 414 231 L 414 231 L 415 230 L 416 230 L 418 230 L 421 229 L 421 229 L 424 229 L 427 229 L 428 228 L 428 228 L 429 228 L 430 227 L 431 227 L 433 227 L 435 226 L 437 226 L 439 226 L 439 226 L 443 225 L 444 225 L 446 225 L 449 224 L 449 224 L 453 224 L 454 223 L 454 223 L 455 223 L 455 223 L 457 222 L 457 222 L 459 222 L 461 221 L 462 221 L 462 221 L 462 220 L 468 220 L 468 220 L 469 220 L 469 219 L 469 219 L 470 219 L 470 218 L 470 218 L 471 218 L 472 217 L 472 217 L 474 217 L 474 217 L 475 216 L 475 216 L 476 216 L 476 215 L 476 215 L 476 215 L 476 214 L 477 214 L 477 214 L 477 214 L 478 213 L 478 213 L 479 213 L 480 212 L 480 212 L 480 212 L 481 211 L 482 211 L 483 211 L 483 211 L 483 210 L 484 210 L 485 210 L 486 209 L 486 209 L 486 209 L 488 208 L 488 208 L 488 208 L 488 208 L 488 207 L 489 207 L 489 207 L 489 206 L 489 206 L 490 206 L 493 205 L 494 205 L 495 205 L 495 205 L 497 204 L 498 204 L 498 204 L 500 203 L 502 203 L 504 203 L 506 202 L 506 202 L 506 202 L 507 202 L 507 201 L 507 201 L 507 201 L 507 200 L 508 200 L 508 200 L 508 199 L 509 199 L 510 199 L 511 199 L 511 198 L 511 198 L 512 198 L 514 197 L 514 197 L 514 197 L 515 196 L 515 196 L 517 196 L 523 196 L 523 195 L 523 195 L 523 195 L 524 194 L 526 194 L 527 194 L 527 193 L 527 193 L 527 193 L 528 193 L 531 192 L 531 192 L 531 192 L 531 191 L 533 191 L 533 191 L 533 190 L 534 190 L 536 190 L 539 190 L 539 189 L 542 189 L 542 189 L 543 188 L 546 188 L 546 188 L 549 187 L 550 187 L 551 187 L 552 187 L 552 186 L 553 186 L 553 186 L 553 185 L 553 185 L 554 185 L 554 184 L 554 184 L 555 184 L 555 184 L 555 183 L 556 183 L 557 183 L 557 182 L 561 182 L 561 182 L 565 181 L 567 181 L 567 181 L 568 181 L 568 180 L 571 180 L 571 180 L 571 179 L 572 179 L 572 179 L 572 178 L 572 178 L 572 178 L 573 178 L 573 177 L 573 177 L 573 177 L 573 176 L 574 176 L 574 176 L 575 175 L 575 175 L 576 175 L 576 175 L 577 174 L 577 174 L 577 174 L 578 173 L 579 173 L 581 173 L 581 172 L 581 172 L 581 172 L 581 172 L 582 171 L 582 171 L 582 171 L 583 170 L 585 170 L 587 170 L 589 169 L 590 169 L 591 169 L 594 169 L 597 168 L 597 168 L 600 168 L 603 167 L 603 167 L 603 167 L 607 166 L 608 166 L 609 166 L 609 166 L 609 165 L 616 165 L 616 165 L 617 164 L 617 164 L 618 164 L 618 163 L 619 163 L 619 163 L 620 163 L 620 162 L 620 162 L 621 162 L 621 161 L 621 161 L 621 161 L 621 160 L 622 160 L 622 160 L 622 160 L 623 159 L 624 159 L 625 159 L 625 158 L 625 158 L 626 158 L 627 157 L 627 157 L 628 157 L 628 157 L 628 156 L 629 156 L 629 156 L 630 155 L 630 155 L 631 155 L 631 154 L 632 154 L 633 154 L 633 154 L 633 153 L 634 153 L 634 153 L 634 152 L 634 152 L 635 152 L 636 151 L 636 151 L 637 151 L 637 151 L 637 150 L 637 150 L 637 150 L 638 149 L 638 149 L 638 149 L 638 148 L 639 148 L 640 148 L 640 148 L 640 147 L 640 147 L 641 147 L 641 146 L 641 146 L 641 146 L 641 145 L 641 145 L 641 145 L 642 145 L 642 144 L 644 144 L 644 144 L 646 143 L 646 143 L 646 143 L 646 142 L 648 142 L 648 142 L 649 142 L 649 141 L 651 141 L 653 141 L 654 140 L 655 140 L 656 140 L 656 139 L 656 139 L 656 139 L 657 139 L 657 138 L 657 138 L 657 138 L 657 137 L 657 137 L 657 137 L 658 136 L 658 136 L 658 136 L 658 136 L 658 135 L 659 135 L 659 135 L 659 134 L 660 134 L 661 134 L 661 133 L 662 133 L 662 133 L 663 132 L 663 132 L 664 132 L 667 132 L 667 131 L 667 131 L 667 131 L 667 130 L 669 130 L 670 130 L 671 130 L 672 129 L 672 129 L 673 129 L 673 128 L 673 128 L 677 128 L 679 127 L 682 127 L 683 127 L 684 126 L 685 126 L 686 126 L 686 126 L 686 125 L 686 125 L 686 125 L 687 124 L 687 124 L 688 124 L 689 124 L 691 123 L 691 123 L 691 123 L 691 122 L 691 122 L 691 122 L 691 121 L 691 121 L 691 121 L 691 121 L 691 120 L 691 120 L 691 120 L 691 119 L 691 119 L 691 119 L 691 118 L 692 118 L 692 118 L 692 118 L 692 117 L 692 117 L 692 117 L 692 116 L 693 116 L 693 116 L 693 115 L 694 115 L 694 115 L 694 115 L 694 114 L 694 114 L 694 114 L 695 113 L 696 113 L 698 113 L 698 112 L 698 112 L 699 112 L 699 112 L 700 111 L 700 111 L 702 111 L 703 110 L 704 110 L 704 110 L 704 109 L 704 109 L 704 109 L 704 109 L 704 108 L 706 108 L 706 108 L 706 107 L 709 107 L 711 107 L 712 106 L 714 106 L 715 106 L 716 106 L 716 105 L 716 105 L 716 105 L 716 104 L 717 104 L 717 104 L 718 103 L 718 103 L 718 103 L 719 103 L 719 102 L 719 102 L 719 102 L 719 101 L 719 101 L 719 101 L 720 100 L 720 100 L 720 100 L 721 100 L 722 99 L 722 99 L 722 99 L 723 98 L 723 98 L 723 98 L 724 97 L 724 97 L 724 97 L 725 97 L 725 96 L 726 96 L 729 96 L 730 95 L 731 95 L 733 95 L 734 94 L 735 94 L 738 94 L 738 94 L 739 93 L 741 93 L 746 93 L 746 92 L 748 92 L 749 92 L 751 91 L 751 91 L 751 91 L 753 91 L 754 90 L 754 90 L 755 90 L 756 89 L 757 89 L 758 89 L 758 88 L 759 88 L 759 88 L 759 88 L 760 87 L 763 87 L 763 87 L 764 86 L 765 86 L 766 86 L 767 85 L 767 85 L 768 85 L 768 85 L 768 84 L 769 84 L 769 84 L 770 83 L 770 83 L 771 83 L 772 82 L 772 82 L 772 82 L 773 82 L 774 81 L 774 81 L 774 81 L 775 80 L 775 80 L 775 80 L 775 79 L 776 79 L 776 79 L 776 79 L 778 78 L 779 78 L 780 78 L 780 77 L 783 77 L 783 77 L 785 76 L 785 76 L 788 76 L 789 76 L 791 75 L 793 75 L 794 75 L 794 74 L 796 74 L 798 74 L 799 73 L 799 73 L 799 73 L 800 73 L 800 72 L 800 72 L 801 72 L 802 71 L 803 71 L 803 71 L 804 70 L 804 70 L 809 70 L 810 70 L 811 69 L 812 69 L 814 69 L 815 68 L 815 68 L 816 68 L 816 67 L 816 67 L 817 67 L 818 67 L 818 66 L 818 66 L 819 66 L 819 65 L 819 65 L 820 65 L 821 64 L 821 64 L 824 64 L 824 64 L 829 63 L 829 63 L 830 63 L 831 62 L 832 62 L 832 62 L 832 61 L 832 61 L 835 61 L 836 61 L 838 60 L 838 60 L 838 60 L 838 59 L 840 59 L 841 59 L 843 58 L 843 58 L 843 58 L 843 58 L 844 57 L 844 57 L 844 57 L 845 56 L 846 56 L 846 56 L 847 55 L 848 55 L 849 55 L 849 55 L 849 54 L 849 54 L 850 54 L 850 53 L 853 53 L 857 53 L 857 52 L 861 52 L 861 52 L 864 52 L 864 51 L 865 51 L 865 51 L 866 50 L 867 50 L 868 50 L 870 49 L 871 49 L 874 49 L 879 49 L 879 48 L 879 48 L 879 48 L 879 47 L 881 47 L 881 47 L 881 46 L 889 46 L 892 46 L 892 46 L 893 45 L 895 45 L 897 45 L 899 44 L 900 44 L 900 44 L 901 43 L 902 43 L 907 43 L 908 43 L 909 42 L 910 42 L 913 42 L 913 41 L 913 41 L 913 41 L 913 40 L 914 40 L 914 40 L 914 40 L 917 39 L 918 39 L 919 39 L 919 38 L 919 38 L 920 38 L 922 37 L 926 37 L 927 37 L 928 37 L 929 36 L 929 36 L 930 36 L 930 35 L 930 35 L 930 35 L 930 34 L 932 34 L 933 34 L 934 34 L 934 33 L 934 33 L 935 33 L 935 32 L 935 32 L 935 32 L 935 31 L 935 31 L 936 31 L 936 31 L 936 30 L 937 30 L 937 30 L 937 29 L 937 29 L 937 29"></path><path stroke-width="2" d="M 937 346 L 937.000000 15.000000" /><path stroke-width="2" d="M 937 346 L 937.000000 15.000000"></path><path stroke-width="2" d="M 937 346 L 942 346" /><path stroke-width="2" d="M 937 346 L 942 346"></path><text y="352" xmlns="http://www.w3.org/2000/svg" x="947">0</text><path stroke-width="2" d="M 937 307 L 942 307" /><path stroke-width="2" d="M 937 307 L 942 307"></path><text xmlns="http://www.w3.org/2000/svg" x="947" y="313">130</text><path stroke-width="2" d="M 937 271 L 942 271" /><path stroke-width="2" d="M 937 271 L 942 271"></path><text x="947" y="277" xmlns="http://www.w3.org/2000/svg">250</text><path stroke-width="2" d="M 937 235 L 942 235" /><path stroke-width="2" d="M 937 235 L 942 235"></path><text xmlns="http://www.w3.org/2000/svg" x="947" y="241">370</text><path stroke-width="2" d="M 937 199 L 942 199" /><path stroke-width="2" d="M 937 199 L 942 199"></path><text xmlns="http://www.w3.org/2000/svg" x="947" y="205">490</text><path stroke-width="2" d="M 937 160 L 942 160" /><path stroke-width="2" d="M 937 160 L 942 160"></path><text y="166" xmlns="http://www.w3.org/2000/svg" x="947">620</text><path d="M 937 124 L 942 124" stroke-width="2" /><path stroke-width="2" d="M 937 124 L 942 124"></path><text xmlns="http://www.w3.org/2000/svg" x="947" y="130">740</text><path stroke-width="2" d="M 937 88 L 942 88" /><path stroke-width="2" d="M 937 88 L 942 88"></path><text y="94" xmlns="http://www.w3.org/2000/svg" x="947">860</text><path stroke-width="2" d="M 937 52 L 942 52" /><path stroke-width="2" d="M 937 52 L 942 52"></path><text xmlns="http://www.w3.org/2000/svg" x="947" y="58">980</text><path stroke-width="2" d="M 937 16 L 942 16" /><path stroke-width="2" d="M 937 16 L 942 16"></path><text xmlns="http://www.w3.org/2000/svg" x="947" y="22">1100</text><text transform="rotate(90.00,987,175)" xmlns="http://www.w3.org/2000/svg" x="987" y="175">Stargazers</text><path stroke-width="2" d="M 57.000000 346.000000 L 937 346" /><path stroke-width="2" d="M 57.000000 346.000000 L 937 346"></path><path d="M 58 346 L 58 351" stroke-width="2" /><path stroke-width="2" d="M 58 346 L 58 351"></path><text x="25" y="368" xmlns="http://www.w3.org/2000/svg">2023-04-02</text><path stroke-width="2" d="M 156 346 L 156 351" /><path stroke-width="2" d="M 156 346 L 156 351"></path><text xmlns="http://www.w3.org/2000/svg" x="123" y="368">2023-07-08</text><path stroke-width="2" d="M 254 346 L 254 351" /><path stroke-width="2" d="M 254 346 L 254 351"></path><text y="368" xmlns="http://www.w3.org/2000/svg" x="221">2023-10-13</text><path stroke-width="2" d="M 352 346 L 352 351" /><path stroke-width="2" d="M 352 346 L 352 351"></path><text y="368" xmlns="http://www.w3.org/2000/svg" x="319">2024-01-18</text><path stroke-width="2" d="M 449 346 L 449 351" /><path stroke-width="2" d="M 449 346 L 449 351"></path><text y="368" xmlns="http://www.w3.org/2000/svg" x="416">2024-04-24</text><path stroke-width="2" d="M 547 346 L 547 351" /><path stroke-width="2" d="M 547 346 L 547 351"></path><text xmlns="http://www.w3.org/2000/svg" x="514" y="368">2024-07-30</text><path stroke-width="2" d="M 645 346 L 645 351" /><path stroke-width="2" d="M 645 346 L 645 351"></path><text xmlns="http://www.w3.org/2000/svg" x="612" y="368">2024-11-04</text><path stroke-width="2" d="M 742 346 L 742 351" /><path stroke-width="2" d="M 742 346 L 742 351"></path><text xmlns="http://www.w3.org/2000/svg" x="709" y="368">2025-02-09</text><path stroke-width="2" d="M 840 346 L 840 351" /><path stroke-width="2" d="M 840 346 L 840 351"></path><text y="368" xmlns="http://www.w3.org/2000/svg" x="807">2025-05-17</text><path stroke-width="2" d="M 937 346 L 937 351" /><path stroke-width="2" d="M 937 346 L 937 351"></path><text xmlns="http://www.w3.org/2000/svg" x="904" y="368">2025-08-22</text><text x="483" y="390" xmlns="http://www.w3.org/2000/svg">Time</text></svg>