<svg xmlns="http://www.w3.org/2000/svg" xmlns:xlink="http://www.w3.org/1999/xlink" width="1024px" height="400px"><style type="text/css">
path { fill: none; stroke: rgb(51,51,51); }
path.series { stroke: #6b63ff; }
rect.background { fill: rgb(255,255,255); stroke: none; }

text {
	stroke-width: 0;
	stroke: none;
	fill: rgba(51,51,51,1.0);
	font-size: 12.8px;
	font-family: 'Roboto Medium', sans-serif;
}
</style><rect rx="8" x="0" y="0" width="1024px" height="400px" class="background" /><rect x="0" y="0" width="1024px" height="400px" class="background" rx="8"></rect><path stroke-width="2" class="series" d="M 58 345 L 63 344 L 89 343 L 90 342 L 90 342 L 90 341 L 90 340 L 90 339 L 90 339 L 90 338 L 91 337 L 91 336 L 91 336 L 91 335 L 91 334 L 91 333 L 91 332 L 92 332 L 92 331 L 92 330 L 94 329 L 94 329 L 95 328 L 97 327 L 98 326 L 98 326 L 98 325 L 99 324 L 100 323 L 103 322 L 104 322 L 106 321 L 107 320 L 116 319 L 116 319 L 116 318 L 116 317 L 116 316 L 117 316 L 121 315 L 124 314 L 125 313 L 129 313 L 136 312 L 139 311 L 150 310 L 154 309 L 161 309 L 167 308 L 170 307 L 196 306 L 197 306 L 197 305 L 201 304 L 201 303 L 201 303 L 201 302 L 201 301 L 201 300 L 201 299 L 201 299 L 201 298 L 202 297 L 202 296 L 202 296 L 202 295 L 203 294 L 203 293 L 203 293 L 203 292 L 203 291 L 203 290 L 203 289 L 203 289 L 203 288 L 203 287 L 203 286 L 203 286 L 203 285 L 203 284 L 203 283 L 203 283 L 203 282 L 203 281 L 203 280 L 203 280 L 203 279 L 203 278 L 203 277 L 203 276 L 203 276 L 203 275 L 203 274 L 203 273 L 203 273 L 203 272 L 203 271 L 203 270 L 203 270 L 204 269 L 204 268 L 204 267 L 205 266 L 205 266 L 205 265 L 205 264 L 206 263 L 207 263 L 207 262 L 207 261 L 207 260 L 207 260 L 207 259 L 207 258 L 207 257 L 207 256 L 207 256 L 207 255 L 207 254 L 207 253 L 207 253 L 207 252 L 207 251 L 208 250 L 208 250 L 210 249 L 210 248 L 210 247 L 210 247 L 216 246 L 217 245 L 217 244 L 219 243 L 219 243 L 223 242 L 227 241 L 228 240 L 232 240 L 233 239 L 236 238 L 237 237 L 237 237 L 241 236 L 242 235 L 243 234 L 245 233 L 246 233 L 248 232 L 248 231 L 248 230 L 249 230 L 251 229 L 253 228 L 253 227 L 254 227 L 255 226 L 255 225 L 256 224 L 259 223 L 261 223 L 265 222 L 266 221 L 268 220 L 270 220 L 270 219 L 270 218 L 273 217 L 283 217 L 284 216 L 286 215 L 296 214 L 296 214 L 296 213 L 296 212 L 297 211 L 299 210 L 302 210 L 304 209 L 304 208 L 316 207 L 319 207 L 322 206 L 326 205 L 328 204 L 328 204 L 330 203 L 339 202 L 349 201 L 360 200 L 361 200 L 361 199 L 361 198 L 362 197 L 364 197 L 379 196 L 386 195 L 387 194 L 392 194 L 393 193 L 394 192 L 411 191 L 411 190 L 412 190 L 413 189 L 415 188 L 419 187 L 421 187 L 425 186 L 427 185 L 431 184 L 440 184 L 440 183 L 442 182 L 442 181 L 443 181 L 443 180 L 448 179 L 458 178 L 478 177 L 486 177 L 487 176 L 490 175 L 491 174 L 493 174 L 495 173 L 495 172 L 496 171 L 496 171 L 496 170 L 496 169 L 496 168 L 496 167 L 496 167 L 496 166 L 496 165 L 496 164 L 496 164 L 497 163 L 498 162 L 499 161 L 501 161 L 502 160 L 502 159 L 502 158 L 502 157 L 504 157 L 504 156 L 505 155 L 505 154 L 505 154 L 505 153 L 505 152 L 506 151 L 508 151 L 508 150 L 509 149 L 509 148 L 509 148 L 509 147 L 511 146 L 511 145 L 511 144 L 511 144 L 513 143 L 513 142 L 514 141 L 515 141 L 517 140 L 518 139 L 521 138 L 525 138 L 525 137 L 526 136 L 526 135 L 526 134 L 527 134 L 527 133 L 530 132 L 531 131 L 534 131 L 534 130 L 535 129 L 538 128 L 541 128 L 541 127 L 545 126 L 546 125 L 547 124 L 548 124 L 548 123 L 556 122 L 558 121 L 558 121 L 564 120 L 567 119 L 573 118 L 575 118 L 576 117 L 577 116 L 578 115 L 578 115 L 583 114 L 587 113 L 589 112 L 590 111 L 592 111 L 594 110 L 594 109 L 594 108 L 594 108 L 595 107 L 596 106 L 596 105 L 598 105 L 598 104 L 598 103 L 600 102 L 607 101 L 616 101 L 616 100 L 616 99 L 622 98 L 625 98 L 626 97 L 627 96 L 629 95 L 631 95 L 631 94 L 631 93 L 631 92 L 631 91 L 632 91 L 632 90 L 633 89 L 633 88 L 634 88 L 638 87 L 638 86 L 638 85 L 639 85 L 639 84 L 640 83 L 640 82 L 640 82 L 640 81 L 640 80 L 640 79 L 640 78 L 640 78 L 643 77 L 647 76 L 652 75 L 652 75 L 653 74 L 662 73 L 671 72 L 673 72 L 679 71 L 683 70 L 694 69 L 698 68 L 702 68 L 702 67 L 702 66 L 702 65 L 703 65 L 703 64 L 703 63 L 703 62 L 705 62 L 707 61 L 721 60 L 725 59 L 730 58 L 740 58 L 748 57 L 754 56 L 758 55 L 766 55 L 766 54 L 782 53 L 798 52 L 799 52 L 810 51 L 810 50 L 819 49 L 821 49 L 826 48 L 826 47 L 827 46 L 827 45 L 832 45 L 834 44 L 839 43 L 845 42 L 846 42 L 848 41 L 849 40 L 855 39 L 861 39 L 861 38 L 868 37 L 875 36 L 876 35 L 877 35 L 879 34 L 881 33 L 883 32 L 888 32 L 893 31 L 897 30 L 898 29 L 901 29 L 901 28 L 910 27 L 912 26 L 916 25 L 924 25 L 924 24 L 933 23 L 934 22 L 934 22 L 937 21 L 937 20 L 941 19 L 942 19 L 945 18" /><path stroke-width="2" class="series" d="M 58 345 L 63 344 L 89 343 L 90 342 L 90 342 L 90 341 L 90 340 L 90 339 L 90 339 L 90 338 L 91 337 L 91 336 L 91 336 L 91 335 L 91 334 L 91 333 L 91 332 L 92 332 L 92 331 L 92 330 L 94 329 L 94 329 L 95 328 L 97 327 L 98 326 L 98 326 L 98 325 L 99 324 L 100 323 L 103 322 L 104 322 L 106 321 L 107 320 L 116 319 L 116 319 L 116 318 L 116 317 L 116 316 L 117 316 L 121 315 L 124 314 L 125 313 L 129 313 L 136 312 L 139 311 L 150 310 L 154 309 L 161 309 L 167 308 L 170 307 L 196 306 L 197 306 L 197 305 L 201 304 L 201 303 L 201 303 L 201 302 L 201 301 L 201 300 L 201 299 L 201 299 L 201 298 L 202 297 L 202 296 L 202 296 L 202 295 L 203 294 L 203 293 L 203 293 L 203 292 L 203 291 L 203 290 L 203 289 L 203 289 L 203 288 L 203 287 L 203 286 L 203 286 L 203 285 L 203 284 L 203 283 L 203 283 L 203 282 L 203 281 L 203 280 L 203 280 L 203 279 L 203 278 L 203 277 L 203 276 L 203 276 L 203 275 L 203 274 L 203 273 L 203 273 L 203 272 L 203 271 L 203 270 L 203 270 L 204 269 L 204 268 L 204 267 L 205 266 L 205 266 L 205 265 L 205 264 L 206 263 L 207 263 L 207 262 L 207 261 L 207 260 L 207 260 L 207 259 L 207 258 L 207 257 L 207 256 L 207 256 L 207 255 L 207 254 L 207 253 L 207 253 L 207 252 L 207 251 L 208 250 L 208 250 L 210 249 L 210 248 L 210 247 L 210 247 L 216 246 L 217 245 L 217 244 L 219 243 L 219 243 L 223 242 L 227 241 L 228 240 L 232 240 L 233 239 L 236 238 L 237 237 L 237 237 L 241 236 L 242 235 L 243 234 L 245 233 L 246 233 L 248 232 L 248 231 L 248 230 L 249 230 L 251 229 L 253 228 L 253 227 L 254 227 L 255 226 L 255 225 L 256 224 L 259 223 L 261 223 L 265 222 L 266 221 L 268 220 L 270 220 L 270 219 L 270 218 L 273 217 L 283 217 L 284 216 L 286 215 L 296 214 L 296 214 L 296 213 L 296 212 L 297 211 L 299 210 L 302 210 L 304 209 L 304 208 L 316 207 L 319 207 L 322 206 L 326 205 L 328 204 L 328 204 L 330 203 L 339 202 L 349 201 L 360 200 L 361 200 L 361 199 L 361 198 L 362 197 L 364 197 L 379 196 L 386 195 L 387 194 L 392 194 L 393 193 L 394 192 L 411 191 L 411 190 L 412 190 L 413 189 L 415 188 L 419 187 L 421 187 L 425 186 L 427 185 L 431 184 L 440 184 L 440 183 L 442 182 L 442 181 L 443 181 L 443 180 L 448 179 L 458 178 L 478 177 L 486 177 L 487 176 L 490 175 L 491 174 L 493 174 L 495 173 L 495 172 L 496 171 L 496 171 L 496 170 L 496 169 L 496 168 L 496 167 L 496 167 L 496 166 L 496 165 L 496 164 L 496 164 L 497 163 L 498 162 L 499 161 L 501 161 L 502 160 L 502 159 L 502 158 L 502 157 L 504 157 L 504 156 L 505 155 L 505 154 L 505 154 L 505 153 L 505 152 L 506 151 L 508 151 L 508 150 L 509 149 L 509 148 L 509 148 L 509 147 L 511 146 L 511 145 L 511 144 L 511 144 L 513 143 L 513 142 L 514 141 L 515 141 L 517 140 L 518 139 L 521 138 L 525 138 L 525 137 L 526 136 L 526 135 L 526 134 L 527 134 L 527 133 L 530 132 L 531 131 L 534 131 L 534 130 L 535 129 L 538 128 L 541 128 L 541 127 L 545 126 L 546 125 L 547 124 L 548 124 L 548 123 L 556 122 L 558 121 L 558 121 L 564 120 L 567 119 L 573 118 L 575 118 L 576 117 L 577 116 L 578 115 L 578 115 L 583 114 L 587 113 L 589 112 L 590 111 L 592 111 L 594 110 L 594 109 L 594 108 L 594 108 L 595 107 L 596 106 L 596 105 L 598 105 L 598 104 L 598 103 L 600 102 L 607 101 L 616 101 L 616 100 L 616 99 L 622 98 L 625 98 L 626 97 L 627 96 L 629 95 L 631 95 L 631 94 L 631 93 L 631 92 L 631 91 L 632 91 L 632 90 L 633 89 L 633 88 L 634 88 L 638 87 L 638 86 L 638 85 L 639 85 L 639 84 L 640 83 L 640 82 L 640 82 L 640 81 L 640 80 L 640 79 L 640 78 L 640 78 L 643 77 L 647 76 L 652 75 L 652 75 L 653 74 L 662 73 L 671 72 L 673 72 L 679 71 L 683 70 L 694 69 L 698 68 L 702 68 L 702 67 L 702 66 L 702 65 L 703 65 L 703 64 L 703 63 L 703 62 L 705 62 L 707 61 L 721 60 L 725 59 L 730 58 L 740 58 L 748 57 L 754 56 L 758 55 L 766 55 L 766 54 L 782 53 L 798 52 L 799 52 L 810 51 L 810 50 L 819 49 L 821 49 L 826 48 L 826 47 L 827 46 L 827 45 L 832 45 L 834 44 L 839 43 L 845 42 L 846 42 L 848 41 L 849 40 L 855 39 L 861 39 L 861 38 L 868 37 L 875 36 L 876 35 L 877 35 L 879 34 L 881 33 L 883 32 L 888 32 L 893 31 L 897 30 L 898 29 L 901 29 L 901 28 L 910 27 L 912 26 L 916 25 L 924 25 L 924 24 L 933 23 L 934 22 L 934 22 L 937 21 L 937 20 L 941 19 L 942 19 L 945 18"></path><path stroke-width="2" d="M 945 346 L 945.000000 15.000000" /><path stroke-width="2" d="M 945 346 L 945.000000 15.000000"></path><path d="M 945 346 L 950 346" stroke-width="2" /><path stroke-width="2" d="M 945 346 L 950 346"></path><text xmlns="http://www.w3.org/2000/svg" x="955" y="352">0</text><path stroke-width="2" d="M 945 309 L 950 309" /><path stroke-width="2" d="M 945 309 L 950 309"></path><text xmlns="http://www.w3.org/2000/svg" x="955" y="315">48</text><path d="M 945 272 L 950 272" stroke-width="2" /><path stroke-width="2" d="M 945 272 L 950 272"></path><text xmlns="http://www.w3.org/2000/svg" x="955" y="278">96</text><path d="M 945 235 L 950 235" stroke-width="2" /><path stroke-width="2" d="M 945 235 L 950 235"></path><text xmlns="http://www.w3.org/2000/svg" x="955" y="241">144</text><path stroke-width="2" d="M 945 198 L 950 198" /><path stroke-width="2" d="M 945 198 L 950 198"></path><text xmlns="http://www.w3.org/2000/svg" x="955" y="204">192</text><path stroke-width="2" d="M 945 162 L 950 162" /><path d="M 945 162 L 950 162" stroke-width="2"></path><text xmlns="http://www.w3.org/2000/svg" x="955" y="168">239</text><path stroke-width="2" d="M 945 125 L 950 125" /><path stroke-width="2" d="M 945 125 L 950 125"></path><text y="131" xmlns="http://www.w3.org/2000/svg" x="955">287</text><path stroke-width="2" d="M 945 88 L 950 88" /><path stroke-width="2" d="M 945 88 L 950 88"></path><text xmlns="http://www.w3.org/2000/svg" x="955" y="94">335</text><path stroke-width="2" d="M 945 52 L 950 52" /><path stroke-width="2" d="M 945 52 L 950 52"></path><text x="955" y="58" xmlns="http://www.w3.org/2000/svg">383</text><path stroke-width="2" d="M 945 16 L 950 16" /><path stroke-width="2" d="M 945 16 L 950 16"></path><text xmlns="http://www.w3.org/2000/svg" x="955" y="22">430</text><text x="987" y="175" transform="rotate(90.00,987,175)" xmlns="http://www.w3.org/2000/svg">Stargazers</text><path stroke-width="2" d="M 57.000000 346.000000 L 945 346" /><path stroke-width="2" d="M 57.000000 346.000000 L 945 346"></path><path stroke-width="2" d="M 58 346 L 58 351" /><path d="M 58 346 L 58 351" stroke-width="2"></path><text xmlns="http://www.w3.org/2000/svg" x="25" y="368">2023-04-02</text><path stroke-width="2" d="M 157 346 L 157 351" /><path d="M 157 346 L 157 351" stroke-width="2"></path><text xmlns="http://www.w3.org/2000/svg" x="124" y="368">2023-05-16</text><path stroke-width="2" d="M 256 346 L 256 351" /><path stroke-width="2" d="M 256 346 L 256 351"></path><text xmlns="http://www.w3.org/2000/svg" x="223" y="368">2023-06-29</text><path stroke-width="2" d="M 354 346 L 354 351" /><path stroke-width="2" d="M 354 346 L 354 351"></path><text xmlns="http://www.w3.org/2000/svg" x="321" y="368">2023-08-13</text><path stroke-width="2" d="M 453 346 L 453 351" /><path stroke-width="2" d="M 453 346 L 453 351"></path><text xmlns="http://www.w3.org/2000/svg" x="420" y="368">2023-09-26</text><path stroke-width="2" d="M 551 346 L 551 351" /><path stroke-width="2" d="M 551 346 L 551 351"></path><text xmlns="http://www.w3.org/2000/svg" x="518" y="368">2023-11-09</text><path stroke-width="2" d="M 650 346 L 650 351" /><path stroke-width="2" d="M 650 346 L 650 351"></path><text y="368" xmlns="http://www.w3.org/2000/svg" x="617">2023-12-23</text><path stroke-width="2" d="M 748 346 L 748 351" /><path stroke-width="2" d="M 748 346 L 748 351"></path><text xmlns="http://www.w3.org/2000/svg" x="715" y="368">2024-02-05</text><path stroke-width="2" d="M 847 346 L 847 351" /><path stroke-width="2" d="M 847 346 L 847 351"></path><text xmlns="http://www.w3.org/2000/svg" x="814" y="368">2024-03-20</text><path stroke-width="2" d="M 945 346 L 945 351" /><path stroke-width="2" d="M 945 346 L 945 351"></path><text xmlns="http://www.w3.org/2000/svg" x="912" y="368">2024-05-04</text><text xmlns="http://www.w3.org/2000/svg" x="487" y="390">Time</text></svg>