<svg xmlns="http://www.w3.org/2000/svg" xmlns:xlink="http://www.w3.org/1999/xlink" width="1024" height="400">\n<path  d="M 0 0
L 1024 0
L 1024 400
L 0 400
L 0 0" style="stroke-width:0;stroke:rgba(255,255,255,1.0);fill:rgba(255,255,255,1.0)"/><path  d="M 38 11
L 965 11
L 965 351
L 38 351
L 38 11" style="stroke-width:0;stroke:rgba(255,255,255,1.0);fill:rgba(255,255,255,1.0)"/><path  d="M 38 351
L 965 351" style="stroke-width:2;stroke:rgba(85,85,85,1.0);fill:none"/><path  d="M 38 351
L 38 356" style="stroke-width:2;stroke:rgba(85,85,85,1.0);fill:none"/><text x="5" y="373" style="stroke-width:0;stroke:none;fill:rgba(51,51,51,1.0);font-size:12.8px;font-family:'Roboto Medium',sans-serif">2023-04-02</text><path  d="M 154 351
L 154 356" style="stroke-width:2;stroke:rgba(85,85,85,1.0);fill:none"/><text x="121" y="373" style="stroke-width:0;stroke:none;fill:rgba(51,51,51,1.0);font-size:12.8px;font-family:'Roboto Medium',sans-serif">2023-04-29</text><path  d="M 270 351
L 270 356" style="stroke-width:2;stroke:rgba(85,85,85,1.0);fill:none"/><text x="237" y="373" style="stroke-width:0;stroke:none;fill:rgba(51,51,51,1.0);font-size:12.8px;font-family:'Roboto Medium',sans-serif">2023-05-27</text><path  d="M 386 351
L 386 356" style="stroke-width:2;stroke:rgba(85,85,85,1.0);fill:none"/><text x="353" y="373" style="stroke-width:0;stroke:none;fill:rgba(51,51,51,1.0);font-size:12.8px;font-family:'Roboto Medium',sans-serif">2023-06-23</text><path  d="M 502 351
L 502 356" style="stroke-width:2;stroke:rgba(85,85,85,1.0);fill:none"/><text x="469" y="373" style="stroke-width:0;stroke:none;fill:rgba(51,51,51,1.0);font-size:12.8px;font-family:'Roboto Medium',sans-serif">2023-07-21</text><path  d="M 618 351
L 618 356" style="stroke-width:2;stroke:rgba(85,85,85,1.0);fill:none"/><text x="585" y="373" style="stroke-width:0;stroke:none;fill:rgba(51,51,51,1.0);font-size:12.8px;font-family:'Roboto Medium',sans-serif">2023-08-17</text><path  d="M 734 351
L 734 356" style="stroke-width:2;stroke:rgba(85,85,85,1.0);fill:none"/><text x="701" y="373" style="stroke-width:0;stroke:none;fill:rgba(51,51,51,1.0);font-size:12.8px;font-family:'Roboto Medium',sans-serif">2023-09-14</text><path  d="M 850 351
L 850 356" style="stroke-width:2;stroke:rgba(85,85,85,1.0);fill:none"/><text x="817" y="373" style="stroke-width:0;stroke:none;fill:rgba(51,51,51,1.0);font-size:12.8px;font-family:'Roboto Medium',sans-serif">2023-10-11</text><path  d="M 965 351
L 965 356" style="stroke-width:2;stroke:rgba(85,85,85,1.0);fill:none"/><text x="932" y="373" style="stroke-width:0;stroke:none;fill:rgba(51,51,51,1.0);font-size:12.8px;font-family:'Roboto Medium',sans-serif">2023-11-08</text><text x="487" y="395" style="stroke-width:0;stroke:none;fill:rgba(51,51,51,1.0);font-size:12.8px;font-family:'Roboto Medium',sans-serif">Time</text><path  d="M 967 351
L 967 11" style="stroke-width:2;stroke:rgba(85,85,85,1.0);fill:none"/><path  d="M 967 351
L 972 351" style="stroke-width:2;stroke:rgba(85,85,85,1.0);fill:none"/><text x="977" y="357" style="stroke-width:0;stroke:none;fill:rgba(51,51,51,1.0);font-size:12.8px;font-family:'Roboto Medium',sans-serif">0</text><path  d="M 967 307
L 972 307" style="stroke-width:2;stroke:rgba(85,85,85,1.0);fill:none"/><text x="977" y="313" style="stroke-width:0;stroke:none;fill:rgba(51,51,51,1.0);font-size:12.8px;font-family:'Roboto Medium',sans-serif">38</text><path  d="M 967 266
L 972 266" style="stroke-width:2;stroke:rgba(85,85,85,1.0);fill:none"/><text x="977" y="272" style="stroke-width:0;stroke:none;fill:rgba(51,51,51,1.0);font-size:12.8px;font-family:'Roboto Medium',sans-serif">75</text><path  d="M 967 222
L 972 222" style="stroke-width:2;stroke:rgba(85,85,85,1.0);fill:none"/><text x="977" y="228" style="stroke-width:0;stroke:none;fill:rgba(51,51,51,1.0);font-size:12.8px;font-family:'Roboto Medium',sans-serif">113</text><path  d="M 967 181
L 972 181" style="stroke-width:2;stroke:rgba(85,85,85,1.0);fill:none"/><text x="977" y="187" style="stroke-width:0;stroke:none;fill:rgba(51,51,51,1.0);font-size:12.8px;font-family:'Roboto Medium',sans-serif">150</text><path  d="M 967 137
L 972 137" style="stroke-width:2;stroke:rgba(85,85,85,1.0);fill:none"/><text x="977" y="143" style="stroke-width:0;stroke:none;fill:rgba(51,51,51,1.0);font-size:12.8px;font-family:'Roboto Medium',sans-serif">188</text><path  d="M 967 96
L 972 96" style="stroke-width:2;stroke:rgba(85,85,85,1.0);fill:none"/><text x="977" y="102" style="stroke-width:0;stroke:none;fill:rgba(51,51,51,1.0);font-size:12.8px;font-family:'Roboto Medium',sans-serif">225</text><path  d="M 967 52
L 972 52" style="stroke-width:2;stroke:rgba(85,85,85,1.0);fill:none"/><text x="977" y="58" style="stroke-width:0;stroke:none;fill:rgba(51,51,51,1.0);font-size:12.8px;font-family:'Roboto Medium',sans-serif">263</text><path  d="M 967 11
L 972 11" style="stroke-width:2;stroke:rgba(85,85,85,1.0);fill:none"/><text x="977" y="17" style="stroke-width:0;stroke:none;fill:rgba(51,51,51,1.0);font-size:12.8px;font-family:'Roboto Medium',sans-serif">300</text><text x="1009" y="150" style="stroke-width:0;stroke:none;fill:rgba(51,51,51,1.0);font-size:12.8px;font-family:'Roboto Medium',sans-serif" transform="rotate(90.00,1009,150)">Stargazers</text><path  d="M 38 351
L 46 349
L 97 348
L 99 347
L 99 346
L 99 345
L 99 344
L 99 343
L 99 341
L 99 340
L 100 339
L 100 338
L 100 337
L 100 336
L 100 335
L 101 334
L 101 332
L 101 331
L 102 330
L 102 329
L 105 328
L 106 327
L 107 326
L 110 324
L 113 323
L 113 322
L 113 321
L 115 320
L 115 319
L 118 318
L 123 317
L 124 315
L 128 314
L 131 313
L 147 312
L 148 311
L 148 310
L 148 309
L 148 307
L 148 306
L 148 305
L 157 304
L 162 303
L 164 302
L 172 301
L 185 300
L 190 298
L 212 297
L 220 296
L 232 295
L 245 294
L 250 293
L 298 292
L 301 290
L 301 289
L 307 288
L 309 287
L 309 286
L 309 285
L 309 284
L 309 283
L 309 281
L 309 280
L 309 279
L 309 278
L 309 277
L 309 276
L 310 275
L 311 273
L 311 272
L 311 271
L 311 270
L 311 269
L 311 268
L 311 267
L 311 266
L 311 264
L 311 263
L 311 262
L 311 261
L 311 260
L 312 259
L 312 258
L 312 256
L 312 255
L 312 254
L 312 253
L 312 252
L 312 251
L 312 250
L 312 249
L 312 247
L 312 246
L 312 245
L 312 244
L 312 243
L 312 242
L 312 241
L 313 239
L 313 238
L 313 237
L 314 236
L 314 235
L 314 234
L 315 233
L 315 232
L 316 230
L 317 229
L 317 228
L 320 227
L 320 226
L 320 225
L 320 224
L 320 222
L 320 221
L 320 220
L 320 219
L 320 218
L 320 217
L 320 216
L 320 215
L 320 213
L 320 212
L 320 211
L 320 210
L 321 209
L 322 208
L 325 207
L 325 205
L 325 204
L 326 203
L 337 202
L 338 201
L 338 200
L 342 199
L 342 198
L 350 196
L 358 195
L 360 194
L 366 193
L 369 192
L 375 191
L 376 190
L 377 188
L 385 187
L 385 186
L 388 185
L 392 184
L 393 183
L 397 182
L 397 181
L 397 179
L 399 178
L 402 177
L 406 176
L 406 175
L 408 174
L 410 173
L 410 171
L 413 170
L 418 169
L 422 168
L 429 167
L 432 166
L 435 165
L 438 163
L 438 162
L 439 161
L 444 160
L 464 159
L 465 158
L 468 157
L 488 156
L 488 154
L 489 153
L 489 152
L 490 151
L 493 150
L 499 149
L 502 148
L 503 147
L 527 145
L 531 144
L 537 143
L 544 142
L 549 141
L 549 140
L 553 139
L 569 137
L 588 136
L 609 135
L 611 134
L 611 133
L 612 132
L 613 131
L 617 130
L 646 128
L 659 127
L 659 126
L 670 125
L 672 124
L 674 123
L 705 122
L 706 120
L 708 119
L 709 118
L 713 117
L 722 116
L 725 115
L 732 114
L 736 113
L 743 111
L 761 110
L 761 109
L 764 108
L 765 107
L 766 106
L 767 105
L 776 103
L 776 102
L 794 101
L 820 100
L 833 99
L 848 98
L 849 97
L 856 96
L 857 94
L 861 93
L 866 92
L 866 91
L 866 90
L 866 89
L 866 88
L 866 86
L 866 85
L 866 84
L 867 83
L 867 82
L 867 81
L 867 80
L 867 79
L 868 77
L 870 76
L 872 75
L 875 74
L 877 73
L 877 72
L 878 71
L 878 69
L 882 68
L 882 67
L 883 66
L 883 65
L 883 64
L 883 63
L 883 62
L 886 60
L 887 59
L 888 58
L 890 57
L 891 56
L 891 55
L 891 54
L 891 52
L 894 51
L 895 50
L 895 49
L 896 48
L 898 47
L 899 46
L 900 45
L 903 43
L 907 42
L 908 41
L 914 40
L 921 39
L 921 38
L 923 37
L 924 35
L 924 34
L 924 33
L 925 32
L 930 31
L 932 30
L 938 29
L 938 28
L 940 26
L 946 25
L 951 24
L 951 23
L 959 22
L 961 21
L 962 20
L 965 18
L 965 17" style="stroke-width:2;stroke:rgba(129,199,239,1.0);fill:none"/></svg>