<svg xmlns:xlink="http://www.w3.org/1999/xlink" width="1024px" height="400px" xmlns="http://www.w3.org/2000/svg"><style type="text/css">
path { fill: none; stroke: rgb(51,51,51); }
path.series { stroke: #6b63ff; }
rect.background { fill: rgb(255,255,255); stroke: none; }

text {
	stroke-width: 0;
	stroke: none;
	fill: rgba(51,51,51,1.0);
	font-size: 12.8px;
	font-family: 'Roboto Medium', sans-serif;
}
</style><rect width="1024px" height="400px" class="background" rx="8" x="0" y="0" /><rect x="0" y="0" width="1024px" height="400px" class="background" rx="8"></rect><path d="M 58 345 L 62 344 L 86 344 L 87 343 L 87 342 L 87 342 L 87 341 L 87 340 L 87 340 L 87 339 L 87 338 L 87 338 L 88 337 L 88 336 L 88 336 L 88 335 L 88 334 L 88 334 L 88 333 L 90 332 L 90 332 L 91 331 L 92 330 L 94 330 L 94 329 L 94 328 L 94 328 L 96 327 L 99 326 L 99 326 L 101 325 L 102 324 L 110 324 L 110 323 L 110 322 L 110 322 L 110 321 L 110 320 L 115 320 L 117 319 L 118 318 L 121 318 L 127 317 L 130 316 L 141 316 L 144 315 L 150 314 L 156 314 L 158 313 L 181 313 L 182 312 L 182 311 L 185 311 L 186 310 L 186 309 L 186 309 L 186 308 L 186 307 L 186 307 L 186 306 L 186 305 L 186 305 L 186 304 L 186 303 L 187 303 L 187 302 L 187 301 L 187 301 L 187 300 L 187 299 L 187 299 L 187 298 L 187 297 L 187 297 L 187 296 L 187 295 L 187 295 L 187 294 L 187 293 L 187 293 L 187 292 L 187 291 L 187 291 L 187 290 L 187 289 L 187 289 L 187 288 L 187 287 L 187 287 L 188 286 L 188 285 L 188 285 L 188 284 L 188 283 L 188 283 L 188 282 L 188 281 L 188 281 L 188 280 L 188 280 L 188 279 L 189 278 L 189 278 L 189 277 L 190 276 L 190 276 L 191 275 L 191 274 L 191 274 L 191 273 L 191 272 L 191 272 L 191 271 L 191 270 L 191 270 L 191 269 L 191 268 L 191 268 L 191 267 L 191 266 L 191 266 L 191 265 L 192 264 L 192 264 L 193 263 L 194 262 L 194 262 L 194 261 L 199 260 L 200 260 L 200 259 L 202 258 L 202 258 L 205 257 L 209 256 L 210 256 L 213 255 L 214 254 L 217 254 L 217 253 L 218 252 L 222 252 L 222 251 L 223 250 L 225 250 L 226 249 L 227 248 L 227 248 L 228 247 L 228 247 L 230 246 L 232 245 L 232 245 L 233 244 L 233 243 L 234 243 L 235 242 L 238 241 L 239 241 L 243 240 L 244 239 L 245 239 L 247 238 L 247 237 L 247 237 L 250 236 L 259 235 L 260 235 L 261 234 L 270 233 L 271 233 L 271 232 L 271 231 L 271 231 L 273 230 L 275 229 L 277 229 L 277 228 L 289 227 L 291 227 L 293 226 L 297 225 L 299 225 L 299 224 L 301 223 L 309 223 L 317 222 L 327 221 L 328 221 L 328 220 L 329 219 L 329 219 L 331 218 L 345 217 L 351 217 L 351 216 L 356 215 L 357 215 L 358 214 L 373 214 L 373 213 L 374 212 L 375 212 L 376 211 L 381 210 L 382 210 L 385 209 L 387 208 L 390 208 L 399 207 L 399 206 L 401 206 L 401 205 L 401 204 L 402 204 L 406 203 L 415 202 L 433 202 L 440 201 L 444 200 L 444 200 L 446 199 L 448 198 L 448 198 L 448 197 L 448 196 L 448 196 L 448 195 L 448 194 L 449 194 L 449 193 L 449 192 L 449 192 L 449 191 L 449 190 L 450 190 L 450 189 L 451 188 L 453 188 L 454 187 L 454 186 L 454 186 L 454 185 L 456 184 L 456 184 L 456 183 L 456 182 L 456 182 L 457 181 L 457 181 L 458 180 L 459 179 L 460 179 L 460 178 L 460 177 L 460 177 L 461 176 L 462 175 L 462 175 L 462 174 L 462 173 L 464 173 L 464 172 L 465 171 L 466 171 L 468 170 L 469 169 L 471 169 L 474 168 L 475 167 L 476 167 L 476 166 L 476 165 L 476 165 L 476 164 L 479 163 L 480 163 L 482 162 L 482 161 L 484 161 L 486 160 L 489 159 L 489 159 L 493 158 L 493 157 L 494 157 L 495 156 L 495 155 L 502 155 L 504 154 L 504 153 L 510 153 L 512 152 L 518 151 L 519 151 L 520 150 L 521 149 L 522 149 L 522 148 L 526 148 L 530 147 L 532 146 L 532 146 L 534 145 L 536 144 L 536 144 L 536 143 L 536 142 L 537 142 L 538 141 L 538 140 L 540 140 L 540 139 L 540 138 L 541 138 L 548 137 L 556 136 L 556 136 L 556 135 L 561 134 L 564 134 L 565 133 L 566 132 L 568 132 L 569 131 L 569 130 L 569 130 L 569 129 L 570 128 L 570 128 L 570 127 L 571 126 L 571 126 L 572 125 L 576 124 L 576 124 L 576 123 L 576 122 L 577 122 L 577 121 L 577 120 L 577 120 L 577 119 L 577 118 L 577 118 L 577 117 L 578 116 L 584 116 L 588 115 L 588 115 L 589 114 L 596 113 L 605 113 L 607 112 L 612 111 L 616 111 L 626 110 L 629 109 L 632 109 L 633 108 L 633 107 L 633 107 L 633 106 L 633 105 L 633 105 L 633 104 L 635 103 L 637 103 L 649 102 L 653 101 L 657 101 L 667 100 L 674 99 L 679 99 L 683 98 L 690 97 L 690 97 L 704 96 L 719 95 L 719 95 L 729 94 L 729 93 L 737 93 L 739 92 L 743 91 L 743 91 L 744 90 L 744 89 L 749 89 L 751 88 L 755 87 L 760 87 L 761 86 L 763 85 L 764 85 L 769 84 L 775 83 L 775 83 L 781 82 L 787 82 L 788 81 L 788 80 L 791 80 L 792 79 L 794 78 L 799 78 L 803 77 L 807 76 L 810 76 L 810 75 L 818 74 L 820 74 L 824 73 L 831 72 L 831 72 L 838 71 L 840 70 L 840 70 L 842 69 L 843 68 L 846 68 L 846 67 L 850 66 L 854 66 L 855 65 L 856 64 L 856 64 L 868 63 L 868 62 L 869 62 L 870 61 L 870 60 L 872 60 L 872 59 L 872 58 L 873 58 L 876 57 L 876 56 L 879 56 L 880 55 L 881 54 L 882 54 L 882 53 L 883 52 L 884 52 L 884 51 L 884 50 L 885 50 L 886 49 L 886 49 L 887 48 L 888 47 L 890 47 L 890 46 L 891 45 L 892 45 L 892 44 L 895 43 L 896 43 L 897 42 L 898 41 L 900 41 L 902 40 L 902 39 L 903 39 L 903 38 L 907 37 L 907 37 L 907 36 L 907 35 L 908 35 L 908 34 L 908 33 L 909 33 L 910 32 L 911 31 L 916 31 L 918 30 L 920 29 L 920 29 L 924 28 L 926 27 L 927 27 L 930 26 L 934 25 L 938 25 L 942 24 L 943 23 L 943 23 L 944 22 L 944 21 L 945 21 L 945 20 L 945 19" stroke-width="2" class="series" /><path stroke-width="2" class="series" d="M 58 345 L 62 344 L 86 344 L 87 343 L 87 342 L 87 342 L 87 341 L 87 340 L 87 340 L 87 339 L 87 338 L 87 338 L 88 337 L 88 336 L 88 336 L 88 335 L 88 334 L 88 334 L 88 333 L 90 332 L 90 332 L 91 331 L 92 330 L 94 330 L 94 329 L 94 328 L 94 328 L 96 327 L 99 326 L 99 326 L 101 325 L 102 324 L 110 324 L 110 323 L 110 322 L 110 322 L 110 321 L 110 320 L 115 320 L 117 319 L 118 318 L 121 318 L 127 317 L 130 316 L 141 316 L 144 315 L 150 314 L 156 314 L 158 313 L 181 313 L 182 312 L 182 311 L 185 311 L 186 310 L 186 309 L 186 309 L 186 308 L 186 307 L 186 307 L 186 306 L 186 305 L 186 305 L 186 304 L 186 303 L 187 303 L 187 302 L 187 301 L 187 301 L 187 300 L 187 299 L 187 299 L 187 298 L 187 297 L 187 297 L 187 296 L 187 295 L 187 295 L 187 294 L 187 293 L 187 293 L 187 292 L 187 291 L 187 291 L 187 290 L 187 289 L 187 289 L 187 288 L 187 287 L 187 287 L 188 286 L 188 285 L 188 285 L 188 284 L 188 283 L 188 283 L 188 282 L 188 281 L 188 281 L 188 280 L 188 280 L 188 279 L 189 278 L 189 278 L 189 277 L 190 276 L 190 276 L 191 275 L 191 274 L 191 274 L 191 273 L 191 272 L 191 272 L 191 271 L 191 270 L 191 270 L 191 269 L 191 268 L 191 268 L 191 267 L 191 266 L 191 266 L 191 265 L 192 264 L 192 264 L 193 263 L 194 262 L 194 262 L 194 261 L 199 260 L 200 260 L 200 259 L 202 258 L 202 258 L 205 257 L 209 256 L 210 256 L 213 255 L 214 254 L 217 254 L 217 253 L 218 252 L 222 252 L 222 251 L 223 250 L 225 250 L 226 249 L 227 248 L 227 248 L 228 247 L 228 247 L 230 246 L 232 245 L 232 245 L 233 244 L 233 243 L 234 243 L 235 242 L 238 241 L 239 241 L 243 240 L 244 239 L 245 239 L 247 238 L 247 237 L 247 237 L 250 236 L 259 235 L 260 235 L 261 234 L 270 233 L 271 233 L 271 232 L 271 231 L 271 231 L 273 230 L 275 229 L 277 229 L 277 228 L 289 227 L 291 227 L 293 226 L 297 225 L 299 225 L 299 224 L 301 223 L 309 223 L 317 222 L 327 221 L 328 221 L 328 220 L 329 219 L 329 219 L 331 218 L 345 217 L 351 217 L 351 216 L 356 215 L 357 215 L 358 214 L 373 214 L 373 213 L 374 212 L 375 212 L 376 211 L 381 210 L 382 210 L 385 209 L 387 208 L 390 208 L 399 207 L 399 206 L 401 206 L 401 205 L 401 204 L 402 204 L 406 203 L 415 202 L 433 202 L 440 201 L 444 200 L 444 200 L 446 199 L 448 198 L 448 198 L 448 197 L 448 196 L 448 196 L 448 195 L 448 194 L 449 194 L 449 193 L 449 192 L 449 192 L 449 191 L 449 190 L 450 190 L 450 189 L 451 188 L 453 188 L 454 187 L 454 186 L 454 186 L 454 185 L 456 184 L 456 184 L 456 183 L 456 182 L 456 182 L 457 181 L 457 181 L 458 180 L 459 179 L 460 179 L 460 178 L 460 177 L 460 177 L 461 176 L 462 175 L 462 175 L 462 174 L 462 173 L 464 173 L 464 172 L 465 171 L 466 171 L 468 170 L 469 169 L 471 169 L 474 168 L 475 167 L 476 167 L 476 166 L 476 165 L 476 165 L 476 164 L 479 163 L 480 163 L 482 162 L 482 161 L 484 161 L 486 160 L 489 159 L 489 159 L 493 158 L 493 157 L 494 157 L 495 156 L 495 155 L 502 155 L 504 154 L 504 153 L 510 153 L 512 152 L 518 151 L 519 151 L 520 150 L 521 149 L 522 149 L 522 148 L 526 148 L 530 147 L 532 146 L 532 146 L 534 145 L 536 144 L 536 144 L 536 143 L 536 142 L 537 142 L 538 141 L 538 140 L 540 140 L 540 139 L 540 138 L 541 138 L 548 137 L 556 136 L 556 136 L 556 135 L 561 134 L 564 134 L 565 133 L 566 132 L 568 132 L 569 131 L 569 130 L 569 130 L 569 129 L 570 128 L 570 128 L 570 127 L 571 126 L 571 126 L 572 125 L 576 124 L 576 124 L 576 123 L 576 122 L 577 122 L 577 121 L 577 120 L 577 120 L 577 119 L 577 118 L 577 118 L 577 117 L 578 116 L 584 116 L 588 115 L 588 115 L 589 114 L 596 113 L 605 113 L 607 112 L 612 111 L 616 111 L 626 110 L 629 109 L 632 109 L 633 108 L 633 107 L 633 107 L 633 106 L 633 105 L 633 105 L 633 104 L 635 103 L 637 103 L 649 102 L 653 101 L 657 101 L 667 100 L 674 99 L 679 99 L 683 98 L 690 97 L 690 97 L 704 96 L 719 95 L 719 95 L 729 94 L 729 93 L 737 93 L 739 92 L 743 91 L 743 91 L 744 90 L 744 89 L 749 89 L 751 88 L 755 87 L 760 87 L 761 86 L 763 85 L 764 85 L 769 84 L 775 83 L 775 83 L 781 82 L 787 82 L 788 81 L 788 80 L 791 80 L 792 79 L 794 78 L 799 78 L 803 77 L 807 76 L 810 76 L 810 75 L 818 74 L 820 74 L 824 73 L 831 72 L 831 72 L 838 71 L 840 70 L 840 70 L 842 69 L 843 68 L 846 68 L 846 67 L 850 66 L 854 66 L 855 65 L 856 64 L 856 64 L 868 63 L 868 62 L 869 62 L 870 61 L 870 60 L 872 60 L 872 59 L 872 58 L 873 58 L 876 57 L 876 56 L 879 56 L 880 55 L 881 54 L 882 54 L 882 53 L 883 52 L 884 52 L 884 51 L 884 50 L 885 50 L 886 49 L 886 49 L 887 48 L 888 47 L 890 47 L 890 46 L 891 45 L 892 45 L 892 44 L 895 43 L 896 43 L 897 42 L 898 41 L 900 41 L 902 40 L 902 39 L 903 39 L 903 38 L 907 37 L 907 37 L 907 36 L 907 35 L 908 35 L 908 34 L 908 33 L 909 33 L 910 32 L 911 31 L 916 31 L 918 30 L 920 29 L 920 29 L 924 28 L 926 27 L 927 27 L 930 26 L 934 25 L 938 25 L 942 24 L 943 23 L 943 23 L 944 22 L 944 21 L 945 21 L 945 20 L 945 19"></path><path stroke-width="2" d="M 945 346 L 945.000000 15.000000" /><path stroke-width="2" d="M 945 346 L 945.000000 15.000000"></path><path stroke-width="2" d="M 945 346 L 950 346" /><path stroke-width="2" d="M 945 346 L 950 346"></path><text xmlns="http://www.w3.org/2000/svg" x="955" y="352">0</text><path stroke-width="2" d="M 945 309 L 950 309" /><path stroke-width="2" d="M 945 309 L 950 309"></path><text xmlns="http://www.w3.org/2000/svg" x="955" y="315">56</text><path stroke-width="2" d="M 945 272 L 950 272" /><path stroke-width="2" d="M 945 272 L 950 272"></path><text xmlns="http://www.w3.org/2000/svg" x="955" y="278">112</text><path stroke-width="2" d="M 945 235 L 950 235" /><path stroke-width="2" d="M 945 235 L 950 235"></path><text xmlns="http://www.w3.org/2000/svg" x="955" y="241">167</text><path stroke-width="2" d="M 945 198 L 950 198" /><path stroke-width="2" d="M 945 198 L 950 198"></path><text xmlns="http://www.w3.org/2000/svg" x="955" y="204">223</text><path stroke-width="2" d="M 945 162 L 950 162" /><path d="M 945 162 L 950 162" stroke-width="2"></path><text xmlns="http://www.w3.org/2000/svg" x="955" y="168">278</text><path stroke-width="2" d="M 945 125 L 950 125" /><path stroke-width="2" d="M 945 125 L 950 125"></path><text x="955" y="131" xmlns="http://www.w3.org/2000/svg">334</text><path stroke-width="2" d="M 945 89 L 950 89" /><path stroke-width="2" d="M 945 89 L 950 89"></path><text y="95" xmlns="http://www.w3.org/2000/svg" x="955">389</text><path stroke-width="2" d="M 945 52 L 950 52" /><path stroke-width="2" d="M 945 52 L 950 52"></path><text xmlns="http://www.w3.org/2000/svg" x="955" y="58">445</text><path stroke-width="2" d="M 945 16 L 950 16" /><path stroke-width="2" d="M 945 16 L 950 16"></path><text xmlns="http://www.w3.org/2000/svg" x="955" y="22">500</text><text y="175" transform="rotate(90.00,987,175)" xmlns="http://www.w3.org/2000/svg" x="987">Stargazers</text><path d="M 57.000000 346.000000 L 945 346" stroke-width="2" /><path stroke-width="2" d="M 57.000000 346.000000 L 945 346"></path><path d="M 58 346 L 58 351" stroke-width="2" /><path stroke-width="2" d="M 58 346 L 58 351"></path><text y="368" xmlns="http://www.w3.org/2000/svg" x="25">2023-04-02</text><path stroke-width="2" d="M 157 346 L 157 351" /><path stroke-width="2" d="M 157 346 L 157 351"></path><text xmlns="http://www.w3.org/2000/svg" x="124" y="368">2023-05-21</text><path stroke-width="2" d="M 256 346 L 256 351" /><path stroke-width="2" d="M 256 346 L 256 351"></path><text xmlns="http://www.w3.org/2000/svg" x="223" y="368">2023-07-10</text><path stroke-width="2" d="M 354 346 L 354 351" /><path stroke-width="2" d="M 354 346 L 354 351"></path><text xmlns="http://www.w3.org/2000/svg" x="321" y="368">2023-08-29</text><path stroke-width="2" d="M 453 346 L 453 351" /><path stroke-width="2" d="M 453 346 L 453 351"></path><text xmlns="http://www.w3.org/2000/svg" x="420" y="368">2023-10-17</text><path stroke-width="2" d="M 551 346 L 551 351" /><path stroke-width="2" d="M 551 346 L 551 351"></path><text y="368" xmlns="http://www.w3.org/2000/svg" x="518">2023-12-06</text><path stroke-width="2" d="M 650 346 L 650 351" /><path stroke-width="2" d="M 650 346 L 650 351"></path><text x="617" y="368" xmlns="http://www.w3.org/2000/svg">2024-01-24</text><path stroke-width="2" d="M 748 346 L 748 351" /><path stroke-width="2" d="M 748 346 L 748 351"></path><text xmlns="http://www.w3.org/2000/svg" x="715" y="368">2024-03-14</text><path stroke-width="2" d="M 847 346 L 847 351" /><path stroke-width="2" d="M 847 346 L 847 351"></path><text xmlns="http://www.w3.org/2000/svg" x="814" y="368">2024-05-02</text><path stroke-width="2" d="M 945 346 L 945 351" /><path stroke-width="2" d="M 945 346 L 945 351"></path><text xmlns="http://www.w3.org/2000/svg" x="912" y="368">2024-06-21</text><text x="487" y="390" xmlns="http://www.w3.org/2000/svg">Time</text></svg>