<svg xmlns="http://www.w3.org/2000/svg" xmlns:xlink="http://www.w3.org/1999/xlink" width="1024px" height="400px"><style type="text/css">
path { fill: none; stroke: rgb(51,51,51); }
path.series { stroke: #6b63ff; }
rect.background { fill: rgb(255,255,255); stroke: none; }

text {
	stroke-width: 0;
	stroke: none;
	fill: rgba(51,51,51,1.0);
	font-size: 12.8px;
	font-family: 'Roboto Medium', sans-serif;
}
</style><rect x="0" y="0" width="1024px" height="400px" class="background" rx="8" /><rect height="400px" class="background" rx="8" x="0" y="0" width="1024px"></rect><path d="M 58 345 L 61 345 L 79 344 L 80 344 L 80 343 L 80 343 L 80 342 L 80 342 L 80 341 L 80 341 L 80 340 L 80 340 L 80 340 L 80 339 L 80 339 L 81 338 L 81 338 L 81 337 L 81 337 L 82 336 L 82 336 L 83 335 L 84 335 L 85 335 L 85 334 L 85 334 L 85 333 L 87 333 L 88 332 L 89 332 L 90 331 L 91 331 L 97 330 L 97 330 L 97 329 L 97 329 L 97 329 L 97 328 L 101 328 L 102 327 L 103 327 L 106 326 L 110 326 L 112 325 L 120 325 L 123 324 L 127 324 L 131 324 L 133 323 L 150 323 L 151 322 L 151 322 L 153 321 L 154 321 L 154 320 L 154 320 L 154 319 L 154 319 L 154 318 L 154 318 L 154 318 L 154 317 L 154 317 L 154 316 L 154 316 L 155 315 L 155 315 L 155 314 L 155 314 L 155 313 L 155 313 L 155 313 L 155 312 L 155 312 L 155 311 L 155 311 L 155 310 L 155 310 L 155 309 L 155 309 L 155 308 L 155 308 L 155 307 L 155 307 L 155 307 L 155 306 L 155 306 L 155 305 L 155 305 L 155 304 L 155 304 L 155 303 L 155 303 L 155 302 L 155 302 L 155 302 L 155 301 L 155 301 L 156 300 L 156 300 L 156 299 L 156 299 L 156 298 L 156 298 L 157 297 L 157 297 L 158 296 L 158 296 L 158 296 L 158 295 L 158 295 L 158 294 L 158 294 L 158 293 L 158 293 L 158 292 L 158 292 L 158 291 L 158 291 L 158 291 L 158 290 L 158 290 L 158 289 L 159 289 L 160 288 L 160 288 L 160 287 L 160 287 L 164 286 L 164 286 L 164 285 L 166 285 L 166 285 L 168 284 L 171 284 L 172 283 L 174 283 L 175 282 L 177 282 L 178 281 L 178 281 L 181 280 L 181 280 L 182 280 L 183 279 L 184 279 L 185 278 L 185 278 L 185 277 L 186 277 L 187 276 L 188 276 L 188 275 L 189 275 L 190 274 L 190 274 L 191 274 L 193 273 L 194 273 L 196 272 L 197 272 L 198 271 L 200 271 L 200 270 L 200 270 L 202 269 L 209 269 L 209 269 L 210 268 L 217 268 L 217 267 L 217 267 L 218 266 L 218 266 L 219 265 L 221 265 L 222 264 L 223 264 L 231 263 L 233 263 L 234 263 L 237 262 L 239 262 L 239 261 L 240 261 L 246 260 L 252 260 L 260 259 L 261 259 L 261 258 L 261 258 L 261 258 L 263 257 L 273 257 L 278 256 L 278 256 L 282 255 L 282 255 L 283 254 L 294 254 L 294 253 L 295 253 L 295 252 L 297 252 L 300 252 L 301 251 L 303 251 L 305 250 L 307 250 L 313 249 L 314 249 L 315 248 L 315 248 L 315 247 L 316 247 L 319 247 L 325 246 L 339 246 L 344 245 L 347 245 L 347 244 L 349 244 L 351 243 L 351 243 L 351 242 L 351 242 L 351 241 L 351 241 L 351 241 L 351 240 L 351 240 L 351 239 L 351 239 L 351 238 L 351 238 L 352 237 L 352 237 L 354 236 L 355 236 L 355 236 L 355 235 L 355 235 L 357 234 L 357 234 L 357 233 L 357 233 L 357 232 L 357 232 L 357 231 L 358 231 L 359 230 L 359 230 L 359 230 L 359 229 L 360 229 L 360 228 L 361 228 L 361 227 L 361 227 L 361 226 L 362 226 L 362 225 L 363 225 L 364 225 L 365 224 L 366 224 L 367 223 L 370 223 L 370 222 L 371 222 L 371 221 L 371 221 L 371 220 L 371 220 L 373 219 L 374 219 L 376 219 L 376 218 L 377 218 L 379 217 L 381 217 L 381 216 L 384 216 L 384 215 L 385 215 L 386 214 L 386 214 L 391 214 L 392 213 L 392 213 L 396 212 L 398 212 L 403 211 L 404 211 L 404 210 L 405 210 L 406 209 L 406 209 L 409 208 L 411 208 L 413 208 L 413 207 L 415 207 L 416 206 L 416 206 L 416 205 L 416 205 L 417 204 L 417 204 L 418 203 L 419 203 L 419 203 L 419 202 L 420 202 L 425 201 L 431 201 L 431 200 L 431 200 L 435 199 L 437 199 L 438 198 L 438 198 L 440 197 L 441 197 L 441 197 L 441 196 L 441 196 L 441 195 L 442 195 L 442 194 L 442 194 L 442 193 L 443 193 L 446 192 L 446 192 L 446 192 L 446 191 L 447 191 L 447 190 L 447 190 L 447 189 L 447 189 L 447 188 L 447 188 L 447 187 L 447 187 L 452 186 L 455 186 L 455 186 L 456 185 L 468 185 L 469 184 L 473 184 L 476 183 L 483 183 L 486 182 L 488 182 L 489 181 L 489 181 L 489 181 L 489 180 L 489 180 L 489 179 L 489 179 L 491 178 L 492 178 L 501 177 L 504 177 L 507 176 L 514 176 L 519 175 L 523 175 L 526 175 L 531 174 L 531 174 L 542 173 L 553 173 L 553 172 L 561 172 L 561 171 L 567 171 L 568 170 L 571 170 L 571 170 L 572 169 L 572 169 L 576 168 L 577 168 L 580 167 L 584 167 L 585 166 L 586 166 L 587 165 L 591 165 L 595 164 L 595 164 L 600 164 L 604 163 L 605 163 L 605 162 L 607 162 L 608 161 L 609 161 L 613 160 L 616 160 L 619 159 L 622 159 L 622 159 L 628 158 L 629 158 L 632 157 L 637 157 L 637 156 L 643 156 L 644 155 L 644 155 L 645 154 L 646 154 L 648 153 L 649 153 L 651 153 L 655 152 L 655 152 L 656 151 L 656 151 L 665 150 L 665 150 L 666 149 L 666 149 L 667 148 L 668 148 L 668 148 L 668 147 L 669 147 L 671 146 L 671 146 L 673 145 L 674 145 L 674 144 L 675 144 L 676 143 L 676 143 L 677 142 L 677 142 L 677 142 L 678 141 L 678 141 L 678 140 L 679 140 L 680 139 L 681 139 L 682 138 L 682 138 L 683 137 L 683 137 L 685 137 L 686 136 L 686 136 L 687 135 L 689 135 L 690 134 L 690 134 L 691 133 L 691 133 L 694 132 L 694 132 L 694 131 L 694 131 L 695 131 L 695 130 L 695 130 L 696 129 L 696 129 L 697 128 L 701 128 L 702 127 L 704 127 L 704 126 L 707 126 L 709 126 L 709 125 L 712 125 L 715 124 L 717 124 L 720 123 L 721 123 L 721 122 L 722 122 L 722 121 L 723 121 L 723 120 L 723 120 L 724 120 L 724 119 L 724 119 L 725 118 L 726 118 L 728 117 L 728 117 L 729 116 L 729 116 L 732 115 L 732 115 L 733 115 L 734 114 L 735 114 L 738 113 L 741 113 L 745 112 L 745 112 L 745 111 L 746 111 L 748 110 L 751 110 L 751 109 L 751 109 L 751 109 L 752 108 L 754 108 L 758 107 L 758 107 L 758 106 L 758 106 L 761 105 L 761 105 L 761 104 L 761 104 L 762 104 L 765 103 L 769 103 L 769 102 L 774 102 L 774 101 L 775 101 L 779 100 L 781 100 L 784 99 L 786 99 L 788 98 L 789 98 L 789 98 L 790 97 L 790 97 L 790 96 L 790 96 L 791 95 L 792 95 L 792 94 L 793 94 L 793 93 L 793 93 L 794 92 L 796 92 L 796 92 L 802 91 L 802 91 L 808 90 L 811 90 L 811 89 L 812 89 L 813 88 L 816 88 L 816 87 L 817 87 L 817 87 L 818 86 L 818 86 L 818 85 L 819 85 L 819 84 L 820 84 L 820 83 L 820 83 L 820 82 L 820 82 L 821 82 L 821 81 L 821 81 L 823 80 L 823 80 L 824 79 L 825 79 L 826 78 L 826 78 L 826 77 L 827 77 L 829 76 L 832 76 L 832 76 L 832 75 L 832 75 L 832 74 L 833 74 L 833 73 L 834 73 L 835 72 L 837 72 L 841 71 L 844 71 L 845 71 L 847 70 L 851 70 L 855 69 L 856 69 L 859 68 L 864 68 L 864 67 L 864 67 L 870 66 L 872 66 L 873 65 L 873 65 L 873 65 L 884 64 L 884 64 L 885 63 L 885 63 L 886 62 L 887 62 L 888 61 L 888 61 L 889 60 L 890 60 L 890 60 L 890 59 L 891 59 L 891 58 L 891 58 L 892 57 L 892 57 L 892 56 L 892 56 L 893 55 L 894 55 L 896 54 L 897 54 L 897 54 L 897 53 L 898 53 L 899 52 L 900 52 L 901 51 L 902 51 L 902 50 L 902 50 L 902 49 L 904 49 L 905 49 L 906 48 L 906 48 L 908 47 L 909 47 L 909 46 L 909 46 L 910 45 L 910 45 L 910 44 L 911 44 L 911 43 L 913 43 L 913 43 L 914 42 L 915 42 L 915 41 L 915 41 L 915 40 L 916 40 L 916 39 L 916 39 L 916 38 L 918 38 L 918 38 L 918 37 L 919 37 L 920 36 L 920 36 L 920 35 L 920 35 L 920 34 L 921 34 L 921 33 L 921 33 L 921 32 L 921 32 L 924 32 L 926 31 L 928 31 L 928 30 L 928 30 L 929 29 L 930 29 L 932 28 L 932 28 L 933 27 L 936 27 L 939 27 L 939 26 L 941 26 L 942 25 L 942 25 L 943 24 L 943 24 L 944 23 L 944 23 L 944 22 L 944 22 L 944 21 L 944 21 L 944 21 L 944 20 L 945 20 L 945 19 L 945 19 L 945 18 L 945 18 L 945 17" stroke-width="2" class="series" /><path stroke-width="2" class="series" d="M 58 345 L 61 345 L 79 344 L 80 344 L 80 343 L 80 343 L 80 342 L 80 342 L 80 341 L 80 341 L 80 340 L 80 340 L 80 340 L 80 339 L 80 339 L 81 338 L 81 338 L 81 337 L 81 337 L 82 336 L 82 336 L 83 335 L 84 335 L 85 335 L 85 334 L 85 334 L 85 333 L 87 333 L 88 332 L 89 332 L 90 331 L 91 331 L 97 330 L 97 330 L 97 329 L 97 329 L 97 329 L 97 328 L 101 328 L 102 327 L 103 327 L 106 326 L 110 326 L 112 325 L 120 325 L 123 324 L 127 324 L 131 324 L 133 323 L 150 323 L 151 322 L 151 322 L 153 321 L 154 321 L 154 320 L 154 320 L 154 319 L 154 319 L 154 318 L 154 318 L 154 318 L 154 317 L 154 317 L 154 316 L 154 316 L 155 315 L 155 315 L 155 314 L 155 314 L 155 313 L 155 313 L 155 313 L 155 312 L 155 312 L 155 311 L 155 311 L 155 310 L 155 310 L 155 309 L 155 309 L 155 308 L 155 308 L 155 307 L 155 307 L 155 307 L 155 306 L 155 306 L 155 305 L 155 305 L 155 304 L 155 304 L 155 303 L 155 303 L 155 302 L 155 302 L 155 302 L 155 301 L 155 301 L 156 300 L 156 300 L 156 299 L 156 299 L 156 298 L 156 298 L 157 297 L 157 297 L 158 296 L 158 296 L 158 296 L 158 295 L 158 295 L 158 294 L 158 294 L 158 293 L 158 293 L 158 292 L 158 292 L 158 291 L 158 291 L 158 291 L 158 290 L 158 290 L 158 289 L 159 289 L 160 288 L 160 288 L 160 287 L 160 287 L 164 286 L 164 286 L 164 285 L 166 285 L 166 285 L 168 284 L 171 284 L 172 283 L 174 283 L 175 282 L 177 282 L 178 281 L 178 281 L 181 280 L 181 280 L 182 280 L 183 279 L 184 279 L 185 278 L 185 278 L 185 277 L 186 277 L 187 276 L 188 276 L 188 275 L 189 275 L 190 274 L 190 274 L 191 274 L 193 273 L 194 273 L 196 272 L 197 272 L 198 271 L 200 271 L 200 270 L 200 270 L 202 269 L 209 269 L 209 269 L 210 268 L 217 268 L 217 267 L 217 267 L 218 266 L 218 266 L 219 265 L 221 265 L 222 264 L 223 264 L 231 263 L 233 263 L 234 263 L 237 262 L 239 262 L 239 261 L 240 261 L 246 260 L 252 260 L 260 259 L 261 259 L 261 258 L 261 258 L 261 258 L 263 257 L 273 257 L 278 256 L 278 256 L 282 255 L 282 255 L 283 254 L 294 254 L 294 253 L 295 253 L 295 252 L 297 252 L 300 252 L 301 251 L 303 251 L 305 250 L 307 250 L 313 249 L 314 249 L 315 248 L 315 248 L 315 247 L 316 247 L 319 247 L 325 246 L 339 246 L 344 245 L 347 245 L 347 244 L 349 244 L 351 243 L 351 243 L 351 242 L 351 242 L 351 241 L 351 241 L 351 241 L 351 240 L 351 240 L 351 239 L 351 239 L 351 238 L 351 238 L 352 237 L 352 237 L 354 236 L 355 236 L 355 236 L 355 235 L 355 235 L 357 234 L 357 234 L 357 233 L 357 233 L 357 232 L 357 232 L 357 231 L 358 231 L 359 230 L 359 230 L 359 230 L 359 229 L 360 229 L 360 228 L 361 228 L 361 227 L 361 227 L 361 226 L 362 226 L 362 225 L 363 225 L 364 225 L 365 224 L 366 224 L 367 223 L 370 223 L 370 222 L 371 222 L 371 221 L 371 221 L 371 220 L 371 220 L 373 219 L 374 219 L 376 219 L 376 218 L 377 218 L 379 217 L 381 217 L 381 216 L 384 216 L 384 215 L 385 215 L 386 214 L 386 214 L 391 214 L 392 213 L 392 213 L 396 212 L 398 212 L 403 211 L 404 211 L 404 210 L 405 210 L 406 209 L 406 209 L 409 208 L 411 208 L 413 208 L 413 207 L 415 207 L 416 206 L 416 206 L 416 205 L 416 205 L 417 204 L 417 204 L 418 203 L 419 203 L 419 203 L 419 202 L 420 202 L 425 201 L 431 201 L 431 200 L 431 200 L 435 199 L 437 199 L 438 198 L 438 198 L 440 197 L 441 197 L 441 197 L 441 196 L 441 196 L 441 195 L 442 195 L 442 194 L 442 194 L 442 193 L 443 193 L 446 192 L 446 192 L 446 192 L 446 191 L 447 191 L 447 190 L 447 190 L 447 189 L 447 189 L 447 188 L 447 188 L 447 187 L 447 187 L 452 186 L 455 186 L 455 186 L 456 185 L 468 185 L 469 184 L 473 184 L 476 183 L 483 183 L 486 182 L 488 182 L 489 181 L 489 181 L 489 181 L 489 180 L 489 180 L 489 179 L 489 179 L 491 178 L 492 178 L 501 177 L 504 177 L 507 176 L 514 176 L 519 175 L 523 175 L 526 175 L 531 174 L 531 174 L 542 173 L 553 173 L 553 172 L 561 172 L 561 171 L 567 171 L 568 170 L 571 170 L 571 170 L 572 169 L 572 169 L 576 168 L 577 168 L 580 167 L 584 167 L 585 166 L 586 166 L 587 165 L 591 165 L 595 164 L 595 164 L 600 164 L 604 163 L 605 163 L 605 162 L 607 162 L 608 161 L 609 161 L 613 160 L 616 160 L 619 159 L 622 159 L 622 159 L 628 158 L 629 158 L 632 157 L 637 157 L 637 156 L 643 156 L 644 155 L 644 155 L 645 154 L 646 154 L 648 153 L 649 153 L 651 153 L 655 152 L 655 152 L 656 151 L 656 151 L 665 150 L 665 150 L 666 149 L 666 149 L 667 148 L 668 148 L 668 148 L 668 147 L 669 147 L 671 146 L 671 146 L 673 145 L 674 145 L 674 144 L 675 144 L 676 143 L 676 143 L 677 142 L 677 142 L 677 142 L 678 141 L 678 141 L 678 140 L 679 140 L 680 139 L 681 139 L 682 138 L 682 138 L 683 137 L 683 137 L 685 137 L 686 136 L 686 136 L 687 135 L 689 135 L 690 134 L 690 134 L 691 133 L 691 133 L 694 132 L 694 132 L 694 131 L 694 131 L 695 131 L 695 130 L 695 130 L 696 129 L 696 129 L 697 128 L 701 128 L 702 127 L 704 127 L 704 126 L 707 126 L 709 126 L 709 125 L 712 125 L 715 124 L 717 124 L 720 123 L 721 123 L 721 122 L 722 122 L 722 121 L 723 121 L 723 120 L 723 120 L 724 120 L 724 119 L 724 119 L 725 118 L 726 118 L 728 117 L 728 117 L 729 116 L 729 116 L 732 115 L 732 115 L 733 115 L 734 114 L 735 114 L 738 113 L 741 113 L 745 112 L 745 112 L 745 111 L 746 111 L 748 110 L 751 110 L 751 109 L 751 109 L 751 109 L 752 108 L 754 108 L 758 107 L 758 107 L 758 106 L 758 106 L 761 105 L 761 105 L 761 104 L 761 104 L 762 104 L 765 103 L 769 103 L 769 102 L 774 102 L 774 101 L 775 101 L 779 100 L 781 100 L 784 99 L 786 99 L 788 98 L 789 98 L 789 98 L 790 97 L 790 97 L 790 96 L 790 96 L 791 95 L 792 95 L 792 94 L 793 94 L 793 93 L 793 93 L 794 92 L 796 92 L 796 92 L 802 91 L 802 91 L 808 90 L 811 90 L 811 89 L 812 89 L 813 88 L 816 88 L 816 87 L 817 87 L 817 87 L 818 86 L 818 86 L 818 85 L 819 85 L 819 84 L 820 84 L 820 83 L 820 83 L 820 82 L 820 82 L 821 82 L 821 81 L 821 81 L 823 80 L 823 80 L 824 79 L 825 79 L 826 78 L 826 78 L 826 77 L 827 77 L 829 76 L 832 76 L 832 76 L 832 75 L 832 75 L 832 74 L 833 74 L 833 73 L 834 73 L 835 72 L 837 72 L 841 71 L 844 71 L 845 71 L 847 70 L 851 70 L 855 69 L 856 69 L 859 68 L 864 68 L 864 67 L 864 67 L 870 66 L 872 66 L 873 65 L 873 65 L 873 65 L 884 64 L 884 64 L 885 63 L 885 63 L 886 62 L 887 62 L 888 61 L 888 61 L 889 60 L 890 60 L 890 60 L 890 59 L 891 59 L 891 58 L 891 58 L 892 57 L 892 57 L 892 56 L 892 56 L 893 55 L 894 55 L 896 54 L 897 54 L 897 54 L 897 53 L 898 53 L 899 52 L 900 52 L 901 51 L 902 51 L 902 50 L 902 50 L 902 49 L 904 49 L 905 49 L 906 48 L 906 48 L 908 47 L 909 47 L 909 46 L 909 46 L 910 45 L 910 45 L 910 44 L 911 44 L 911 43 L 913 43 L 913 43 L 914 42 L 915 42 L 915 41 L 915 41 L 915 40 L 916 40 L 916 39 L 916 39 L 916 38 L 918 38 L 918 38 L 918 37 L 919 37 L 920 36 L 920 36 L 920 35 L 920 35 L 920 34 L 921 34 L 921 33 L 921 33 L 921 32 L 921 32 L 924 32 L 926 31 L 928 31 L 928 30 L 928 30 L 929 29 L 930 29 L 932 28 L 932 28 L 933 27 L 936 27 L 939 27 L 939 26 L 941 26 L 942 25 L 942 25 L 943 24 L 943 24 L 944 23 L 944 23 L 944 22 L 944 22 L 944 21 L 944 21 L 944 21 L 944 20 L 945 20 L 945 19 L 945 19 L 945 18 L 945 18 L 945 17"></path><path stroke-width="2" d="M 945 346 L 945.000000 15.000000" /><path stroke-width="2" d="M 945 346 L 945.000000 15.000000"></path><path stroke-width="2" d="M 945 346 L 950 346" /><path stroke-width="2" d="M 945 346 L 950 346"></path><text y="352" xmlns="http://www.w3.org/2000/svg" x="955">0</text><path stroke-width="2" d="M 945 309 L 950 309" /><path stroke-width="2" d="M 945 309 L 950 309"></path><text xmlns="http://www.w3.org/2000/svg" x="955" y="315">80</text><path stroke-width="2" d="M 945 272 L 950 272" /><path d="M 945 272 L 950 272" stroke-width="2"></path><text xmlns="http://www.w3.org/2000/svg" x="955" y="278">160</text><path stroke-width="2" d="M 945 236 L 950 236" /><path stroke-width="2" d="M 945 236 L 950 236"></path><text xmlns="http://www.w3.org/2000/svg" x="955" y="242">240</text><path stroke-width="2" d="M 945 199 L 950 199" /><path stroke-width="2" d="M 945 199 L 950 199"></path><text xmlns="http://www.w3.org/2000/svg" x="955" y="205">320</text><path stroke-width="2" d="M 945 162 L 950 162" /><path stroke-width="2" d="M 945 162 L 950 162"></path><text y="168" xmlns="http://www.w3.org/2000/svg" x="955">400</text><path stroke-width="2" d="M 945 126 L 950 126" /><path stroke-width="2" d="M 945 126 L 950 126"></path><text xmlns="http://www.w3.org/2000/svg" x="955" y="132">480</text><path stroke-width="2" d="M 945 89 L 950 89" /><path stroke-width="2" d="M 945 89 L 950 89"></path><text xmlns="http://www.w3.org/2000/svg" x="955" y="95">560</text><path stroke-width="2" d="M 945 52 L 950 52" /><path stroke-width="2" d="M 945 52 L 950 52"></path><text y="58" xmlns="http://www.w3.org/2000/svg" x="955">640</text><path stroke-width="2" d="M 945 16 L 950 16" /><path stroke-width="2" d="M 945 16 L 950 16"></path><text x="955" y="22" xmlns="http://www.w3.org/2000/svg">720</text><text transform="rotate(90.00,987,175)" xmlns="http://www.w3.org/2000/svg" x="987" y="175">Stargazers</text><path stroke-width="2" d="M 57.000000 346.000000 L 945 346" /><path stroke-width="2" d="M 57.000000 346.000000 L 945 346"></path><path d="M 58 346 L 58 351" stroke-width="2" /><path d="M 58 346 L 58 351" stroke-width="2"></path><text xmlns="http://www.w3.org/2000/svg" x="25" y="368">2023-04-02</text><path stroke-width="2" d="M 157 346 L 157 351" /><path stroke-width="2" d="M 157 346 L 157 351"></path><text xmlns="http://www.w3.org/2000/svg" x="124" y="368">2023-06-07</text><path d="M 256 346 L 256 351" stroke-width="2" /><path stroke-width="2" d="M 256 346 L 256 351"></path><text xmlns="http://www.w3.org/2000/svg" x="223" y="368">2023-08-12</text><path stroke-width="2" d="M 354 346 L 354 351" /><path stroke-width="2" d="M 354 346 L 354 351"></path><text xmlns="http://www.w3.org/2000/svg" x="321" y="368">2023-10-17</text><path stroke-width="2" d="M 453 346 L 453 351" /><path d="M 453 346 L 453 351" stroke-width="2"></path><text xmlns="http://www.w3.org/2000/svg" x="420" y="368">2023-12-22</text><path stroke-width="2" d="M 551 346 L 551 351" /><path stroke-width="2" d="M 551 346 L 551 351"></path><text xmlns="http://www.w3.org/2000/svg" x="518" y="368">2024-02-27</text><path stroke-width="2" d="M 650 346 L 650 351" /><path stroke-width="2" d="M 650 346 L 650 351"></path><text y="368" xmlns="http://www.w3.org/2000/svg" x="617">2024-05-03</text><path d="M 748 346 L 748 351" stroke-width="2" /><path stroke-width="2" d="M 748 346 L 748 351"></path><text y="368" xmlns="http://www.w3.org/2000/svg" x="715">2024-07-08</text><path stroke-width="2" d="M 847 346 L 847 351" /><path stroke-width="2" d="M 847 346 L 847 351"></path><text x="814" y="368" xmlns="http://www.w3.org/2000/svg">2024-09-12</text><path stroke-width="2" d="M 945 346 L 945 351" /><path stroke-width="2" d="M 945 346 L 945 351"></path><text xmlns="http://www.w3.org/2000/svg" x="912" y="368">2024-11-17</text><text xmlns="http://www.w3.org/2000/svg" x="487" y="390">Time</text></svg>