<svg xmlns="http://www.w3.org/2000/svg" xmlns:xlink="http://www.w3.org/1999/xlink" width="1024px" height="400px"><style type="text/css">
path { fill: none; stroke: rgb(51,51,51); }
path.series { stroke: #6b63ff; }
rect.background { fill: rgb(255,255,255); stroke: none; }

text {
	stroke-width: 0;
	stroke: none;
	fill: rgba(51,51,51,1.0);
	font-size: 12.8px;
	font-family: 'Roboto Medium', sans-serif;
}
</style><rect class="background" rx="8" x="0" y="0" width="1024px" height="400px" /><rect class="background" rx="8" x="0" y="0" width="1024px" height="400px"></rect><path stroke-width="2" class="series" d="M 58 345 L 62 344 L 82 344 L 82 343 L 82 343 L 82 342 L 82 342 L 82 341 L 83 341 L 83 340 L 83 340 L 83 339 L 83 338 L 83 338 L 83 337 L 83 337 L 83 336 L 84 336 L 84 335 L 85 335 L 86 334 L 86 334 L 87 333 L 88 333 L 88 332 L 88 331 L 89 331 L 90 330 L 92 330 L 93 329 L 94 329 L 95 328 L 102 328 L 102 327 L 102 327 L 102 326 L 102 325 L 102 325 L 106 324 L 108 324 L 109 323 L 112 323 L 117 322 L 119 322 L 128 321 L 131 321 L 136 320 L 141 320 L 143 319 L 162 318 L 163 318 L 163 317 L 166 317 L 166 316 L 166 316 L 166 315 L 166 315 L 166 314 L 166 314 L 166 313 L 166 313 L 166 312 L 166 311 L 167 311 L 167 310 L 167 310 L 167 309 L 167 309 L 167 308 L 167 308 L 167 307 L 167 307 L 167 306 L 167 305 L 167 305 L 167 304 L 167 304 L 167 303 L 167 303 L 167 302 L 167 302 L 167 301 L 168 301 L 168 300 L 168 300 L 168 299 L 168 298 L 168 298 L 168 297 L 168 297 L 168 296 L 168 296 L 168 295 L 168 295 L 168 294 L 168 294 L 168 293 L 168 292 L 168 292 L 168 291 L 168 291 L 169 290 L 169 290 L 169 289 L 169 289 L 170 288 L 171 288 L 171 287 L 171 287 L 171 286 L 171 285 L 171 285 L 171 284 L 171 284 L 171 283 L 171 283 L 171 282 L 171 282 L 171 281 L 171 281 L 171 280 L 171 280 L 171 279 L 171 278 L 173 278 L 173 277 L 173 277 L 173 276 L 177 276 L 178 275 L 178 275 L 179 274 L 180 274 L 183 273 L 186 272 L 187 272 L 189 271 L 190 271 L 192 270 L 193 270 L 194 269 L 197 269 L 197 268 L 198 268 L 199 267 L 200 267 L 201 266 L 201 265 L 202 265 L 202 264 L 204 264 L 205 263 L 205 263 L 206 262 L 206 262 L 207 261 L 208 261 L 210 260 L 211 259 L 214 259 L 215 258 L 216 258 L 218 257 L 218 257 L 218 256 L 220 256 L 228 255 L 229 255 L 230 254 L 238 254 L 238 253 L 238 252 L 238 252 L 238 251 L 240 251 L 242 250 L 243 250 L 244 249 L 253 249 L 255 248 L 257 248 L 260 247 L 262 247 L 262 246 L 263 245 L 270 245 L 277 244 L 286 244 L 287 243 L 287 243 L 287 242 L 287 242 L 289 241 L 301 241 L 306 240 L 306 239 L 310 239 L 311 238 L 312 238 L 324 237 L 324 237 L 325 236 L 326 236 L 327 235 L 331 235 L 332 234 L 335 234 L 337 233 L 339 232 L 346 232 L 347 231 L 348 231 L 348 230 L 348 230 L 349 229 L 353 229 L 360 228 L 375 228 L 381 227 L 384 226 L 385 226 L 387 225 L 388 225 L 388 224 L 388 224 L 388 223 L 388 223 L 388 222 L 388 222 L 388 221 L 389 221 L 389 220 L 389 219 L 389 219 L 389 218 L 389 218 L 390 217 L 392 217 L 393 216 L 393 216 L 393 215 L 393 215 L 395 214 L 395 214 L 395 213 L 395 212 L 395 212 L 395 211 L 395 211 L 396 210 L 397 210 L 398 209 L 398 209 L 398 208 L 398 208 L 399 207 L 400 206 L 400 206 L 400 205 L 400 205 L 401 204 L 402 204 L 402 203 L 403 203 L 405 202 L 405 202 L 407 201 L 410 201 L 410 200 L 411 199 L 412 199 L 412 198 L 412 198 L 412 197 L 414 197 L 415 196 L 417 196 L 417 195 L 418 195 L 420 194 L 422 193 L 422 193 L 426 192 L 426 192 L 427 191 L 428 191 L 428 190 L 434 190 L 435 189 L 436 189 L 440 188 L 442 188 L 447 187 L 448 186 L 449 186 L 450 185 L 450 185 L 451 184 L 454 184 L 457 183 L 459 183 L 459 182 L 461 182 L 462 181 L 463 181 L 463 180 L 463 179 L 463 179 L 464 178 L 464 178 L 466 177 L 466 177 L 466 176 L 467 176 L 472 175 L 479 175 L 479 174 L 479 173 L 484 173 L 486 172 L 487 172 L 487 171 L 489 171 L 491 170 L 491 170 L 491 169 L 491 169 L 491 168 L 491 168 L 491 167 L 492 166 L 492 166 L 493 165 L 496 165 L 496 164 L 496 164 L 496 163 L 497 163 L 497 162 L 497 162 L 497 161 L 497 160 L 497 160 L 497 159 L 497 159 L 498 158 L 503 158 L 506 157 L 506 157 L 507 156 L 514 156 L 521 155 L 522 155 L 526 154 L 530 153 L 538 153 L 541 152 L 544 152 L 544 151 L 544 151 L 544 150 L 545 150 L 545 149 L 545 149 L 545 148 L 546 148 L 548 147 L 558 146 L 561 146 L 565 145 L 573 145 L 579 144 L 583 144 L 587 143 L 592 143 L 593 142 L 605 142 L 617 141 L 617 140 L 625 140 L 626 139 L 633 139 L 634 138 L 637 138 L 637 137 L 638 137 L 638 136 L 642 136 L 644 135 L 647 135 L 652 134 L 653 133 L 654 133 L 655 132 L 660 132 L 664 131 L 664 131 L 669 130 L 675 130 L 676 129 L 676 129 L 678 128 L 679 127 L 680 127 L 685 126 L 688 126 L 691 125 L 694 125 L 694 124 L 701 124 L 702 123 L 706 123 L 712 122 L 712 122 L 718 121 L 719 120 L 719 120 L 721 119 L 722 119 L 725 118 L 725 118 L 728 117 L 731 117 L 733 116 L 733 116 L 733 115 L 743 115 L 744 114 L 744 113 L 745 113 L 745 112 L 746 112 L 746 111 L 747 111 L 748 110 L 750 110 L 750 109 L 752 109 L 753 108 L 754 107 L 755 107 L 755 106 L 755 106 L 756 105 L 757 105 L 757 104 L 758 104 L 758 103 L 758 103 L 759 102 L 760 102 L 762 101 L 762 100 L 762 100 L 763 99 L 764 99 L 766 98 L 767 98 L 767 97 L 768 97 L 770 96 L 772 96 L 772 95 L 773 94 L 773 94 L 776 93 L 776 93 L 776 92 L 776 92 L 777 91 L 777 91 L 777 90 L 778 90 L 778 89 L 780 89 L 784 88 L 785 87 L 787 87 L 787 86 L 791 86 L 792 85 L 793 85 L 796 84 L 799 84 L 802 83 L 806 83 L 807 82 L 807 82 L 807 81 L 807 80 L 808 80 L 809 79 L 809 79 L 810 78 L 810 78 L 810 77 L 811 77 L 813 76 L 814 76 L 814 75 L 815 74 L 815 74 L 819 73 L 819 73 L 820 72 L 821 72 L 822 71 L 825 71 L 829 70 L 834 70 L 834 69 L 834 69 L 834 68 L 837 67 L 840 67 L 841 66 L 841 66 L 841 65 L 841 65 L 844 64 L 848 64 L 849 63 L 849 63 L 849 62 L 851 61 L 852 61 L 852 60 L 852 60 L 852 59 L 856 59 L 861 58 L 861 58 L 866 57 L 867 57 L 868 56 L 872 56 L 874 55 L 877 54 L 880 54 L 882 53 L 883 53 L 883 52 L 884 52 L 885 51 L 885 51 L 885 50 L 886 50 L 886 49 L 886 49 L 888 48 L 888 47 L 888 47 L 889 46 L 891 46 L 891 45 L 898 45 L 898 44 L 905 44 L 908 43 L 908 43 L 909 42 L 910 41 L 914 41 L 914 40 L 915 40 L 915 39 L 916 39 L 916 38 L 916 38 L 917 37 L 917 37 L 918 36 L 918 36 L 918 35 L 918 34 L 918 34 L 919 33 L 920 33 L 920 32 L 921 32 L 922 31 L 922 31 L 923 30 L 924 30 L 925 29 L 925 28 L 925 28 L 926 27 L 928 27 L 932 26 L 932 26 L 932 25 L 932 25 L 932 24 L 933 24 L 933 23 L 934 23 L 935 22 L 938 21 L 941 21 L 945 20" /><path stroke-width="2" class="series" d="M 58 345 L 62 344 L 82 344 L 82 343 L 82 343 L 82 342 L 82 342 L 82 341 L 83 341 L 83 340 L 83 340 L 83 339 L 83 338 L 83 338 L 83 337 L 83 337 L 83 336 L 84 336 L 84 335 L 85 335 L 86 334 L 86 334 L 87 333 L 88 333 L 88 332 L 88 331 L 89 331 L 90 330 L 92 330 L 93 329 L 94 329 L 95 328 L 102 328 L 102 327 L 102 327 L 102 326 L 102 325 L 102 325 L 106 324 L 108 324 L 109 323 L 112 323 L 117 322 L 119 322 L 128 321 L 131 321 L 136 320 L 141 320 L 143 319 L 162 318 L 163 318 L 163 317 L 166 317 L 166 316 L 166 316 L 166 315 L 166 315 L 166 314 L 166 314 L 166 313 L 166 313 L 166 312 L 166 311 L 167 311 L 167 310 L 167 310 L 167 309 L 167 309 L 167 308 L 167 308 L 167 307 L 167 307 L 167 306 L 167 305 L 167 305 L 167 304 L 167 304 L 167 303 L 167 303 L 167 302 L 167 302 L 167 301 L 168 301 L 168 300 L 168 300 L 168 299 L 168 298 L 168 298 L 168 297 L 168 297 L 168 296 L 168 296 L 168 295 L 168 295 L 168 294 L 168 294 L 168 293 L 168 292 L 168 292 L 168 291 L 168 291 L 169 290 L 169 290 L 169 289 L 169 289 L 170 288 L 171 288 L 171 287 L 171 287 L 171 286 L 171 285 L 171 285 L 171 284 L 171 284 L 171 283 L 171 283 L 171 282 L 171 282 L 171 281 L 171 281 L 171 280 L 171 280 L 171 279 L 171 278 L 173 278 L 173 277 L 173 277 L 173 276 L 177 276 L 178 275 L 178 275 L 179 274 L 180 274 L 183 273 L 186 272 L 187 272 L 189 271 L 190 271 L 192 270 L 193 270 L 194 269 L 197 269 L 197 268 L 198 268 L 199 267 L 200 267 L 201 266 L 201 265 L 202 265 L 202 264 L 204 264 L 205 263 L 205 263 L 206 262 L 206 262 L 207 261 L 208 261 L 210 260 L 211 259 L 214 259 L 215 258 L 216 258 L 218 257 L 218 257 L 218 256 L 220 256 L 228 255 L 229 255 L 230 254 L 238 254 L 238 253 L 238 252 L 238 252 L 238 251 L 240 251 L 242 250 L 243 250 L 244 249 L 253 249 L 255 248 L 257 248 L 260 247 L 262 247 L 262 246 L 263 245 L 270 245 L 277 244 L 286 244 L 287 243 L 287 243 L 287 242 L 287 242 L 289 241 L 301 241 L 306 240 L 306 239 L 310 239 L 311 238 L 312 238 L 324 237 L 324 237 L 325 236 L 326 236 L 327 235 L 331 235 L 332 234 L 335 234 L 337 233 L 339 232 L 346 232 L 347 231 L 348 231 L 348 230 L 348 230 L 349 229 L 353 229 L 360 228 L 375 228 L 381 227 L 384 226 L 385 226 L 387 225 L 388 225 L 388 224 L 388 224 L 388 223 L 388 223 L 388 222 L 388 222 L 388 221 L 389 221 L 389 220 L 389 219 L 389 219 L 389 218 L 389 218 L 390 217 L 392 217 L 393 216 L 393 216 L 393 215 L 393 215 L 395 214 L 395 214 L 395 213 L 395 212 L 395 212 L 395 211 L 395 211 L 396 210 L 397 210 L 398 209 L 398 209 L 398 208 L 398 208 L 399 207 L 400 206 L 400 206 L 400 205 L 400 205 L 401 204 L 402 204 L 402 203 L 403 203 L 405 202 L 405 202 L 407 201 L 410 201 L 410 200 L 411 199 L 412 199 L 412 198 L 412 198 L 412 197 L 414 197 L 415 196 L 417 196 L 417 195 L 418 195 L 420 194 L 422 193 L 422 193 L 426 192 L 426 192 L 427 191 L 428 191 L 428 190 L 434 190 L 435 189 L 436 189 L 440 188 L 442 188 L 447 187 L 448 186 L 449 186 L 450 185 L 450 185 L 451 184 L 454 184 L 457 183 L 459 183 L 459 182 L 461 182 L 462 181 L 463 181 L 463 180 L 463 179 L 463 179 L 464 178 L 464 178 L 466 177 L 466 177 L 466 176 L 467 176 L 472 175 L 479 175 L 479 174 L 479 173 L 484 173 L 486 172 L 487 172 L 487 171 L 489 171 L 491 170 L 491 170 L 491 169 L 491 169 L 491 168 L 491 168 L 491 167 L 492 166 L 492 166 L 493 165 L 496 165 L 496 164 L 496 164 L 496 163 L 497 163 L 497 162 L 497 162 L 497 161 L 497 160 L 497 160 L 497 159 L 497 159 L 498 158 L 503 158 L 506 157 L 506 157 L 507 156 L 514 156 L 521 155 L 522 155 L 526 154 L 530 153 L 538 153 L 541 152 L 544 152 L 544 151 L 544 151 L 544 150 L 545 150 L 545 149 L 545 149 L 545 148 L 546 148 L 548 147 L 558 146 L 561 146 L 565 145 L 573 145 L 579 144 L 583 144 L 587 143 L 592 143 L 593 142 L 605 142 L 617 141 L 617 140 L 625 140 L 626 139 L 633 139 L 634 138 L 637 138 L 637 137 L 638 137 L 638 136 L 642 136 L 644 135 L 647 135 L 652 134 L 653 133 L 654 133 L 655 132 L 660 132 L 664 131 L 664 131 L 669 130 L 675 130 L 676 129 L 676 129 L 678 128 L 679 127 L 680 127 L 685 126 L 688 126 L 691 125 L 694 125 L 694 124 L 701 124 L 702 123 L 706 123 L 712 122 L 712 122 L 718 121 L 719 120 L 719 120 L 721 119 L 722 119 L 725 118 L 725 118 L 728 117 L 731 117 L 733 116 L 733 116 L 733 115 L 743 115 L 744 114 L 744 113 L 745 113 L 745 112 L 746 112 L 746 111 L 747 111 L 748 110 L 750 110 L 750 109 L 752 109 L 753 108 L 754 107 L 755 107 L 755 106 L 755 106 L 756 105 L 757 105 L 757 104 L 758 104 L 758 103 L 758 103 L 759 102 L 760 102 L 762 101 L 762 100 L 762 100 L 763 99 L 764 99 L 766 98 L 767 98 L 767 97 L 768 97 L 770 96 L 772 96 L 772 95 L 773 94 L 773 94 L 776 93 L 776 93 L 776 92 L 776 92 L 777 91 L 777 91 L 777 90 L 778 90 L 778 89 L 780 89 L 784 88 L 785 87 L 787 87 L 787 86 L 791 86 L 792 85 L 793 85 L 796 84 L 799 84 L 802 83 L 806 83 L 807 82 L 807 82 L 807 81 L 807 80 L 808 80 L 809 79 L 809 79 L 810 78 L 810 78 L 810 77 L 811 77 L 813 76 L 814 76 L 814 75 L 815 74 L 815 74 L 819 73 L 819 73 L 820 72 L 821 72 L 822 71 L 825 71 L 829 70 L 834 70 L 834 69 L 834 69 L 834 68 L 837 67 L 840 67 L 841 66 L 841 66 L 841 65 L 841 65 L 844 64 L 848 64 L 849 63 L 849 63 L 849 62 L 851 61 L 852 61 L 852 60 L 852 60 L 852 59 L 856 59 L 861 58 L 861 58 L 866 57 L 867 57 L 868 56 L 872 56 L 874 55 L 877 54 L 880 54 L 882 53 L 883 53 L 883 52 L 884 52 L 885 51 L 885 51 L 885 50 L 886 50 L 886 49 L 886 49 L 888 48 L 888 47 L 888 47 L 889 46 L 891 46 L 891 45 L 898 45 L 898 44 L 905 44 L 908 43 L 908 43 L 909 42 L 910 41 L 914 41 L 914 40 L 915 40 L 915 39 L 916 39 L 916 38 L 916 38 L 917 37 L 917 37 L 918 36 L 918 36 L 918 35 L 918 34 L 918 34 L 919 33 L 920 33 L 920 32 L 921 32 L 922 31 L 922 31 L 923 30 L 924 30 L 925 29 L 925 28 L 925 28 L 926 27 L 928 27 L 932 26 L 932 26 L 932 25 L 932 25 L 932 24 L 933 24 L 933 23 L 934 23 L 935 22 L 938 21 L 941 21 L 945 20"></path><path stroke-width="2" d="M 945 346 L 945.000000 15.000000" /><path stroke-width="2" d="M 945 346 L 945.000000 15.000000"></path><path stroke-width="2" d="M 945 346 L 950 346" /><path stroke-width="2" d="M 945 346 L 950 346"></path><text xmlns="http://www.w3.org/2000/svg" x="955" y="352">0</text><path stroke-width="2" d="M 945 309 L 950 309" /><path stroke-width="2" d="M 945 309 L 950 309"></path><text y="315" xmlns="http://www.w3.org/2000/svg" x="955">68</text><path stroke-width="2" d="M 945 272 L 950 272" /><path stroke-width="2" d="M 945 272 L 950 272"></path><text x="955" y="278" xmlns="http://www.w3.org/2000/svg">136</text><path stroke-width="2" d="M 945 235 L 950 235" /><path stroke-width="2" d="M 945 235 L 950 235"></path><text x="955" y="241" xmlns="http://www.w3.org/2000/svg">204</text><path stroke-width="2" d="M 945 198 L 950 198" /><path d="M 945 198 L 950 198" stroke-width="2"></path><text y="204" xmlns="http://www.w3.org/2000/svg" x="955">272</text><path stroke-width="2" d="M 945 162 L 950 162" /><path d="M 945 162 L 950 162" stroke-width="2"></path><text xmlns="http://www.w3.org/2000/svg" x="955" y="168">339</text><path stroke-width="2" d="M 945 125 L 950 125" /><path stroke-width="2" d="M 945 125 L 950 125"></path><text x="955" y="131" xmlns="http://www.w3.org/2000/svg">407</text><path stroke-width="2" d="M 945 89 L 950 89" /><path d="M 945 89 L 950 89" stroke-width="2"></path><text y="95" xmlns="http://www.w3.org/2000/svg" x="955">475</text><path stroke-width="2" d="M 945 52 L 950 52" /><path stroke-width="2" d="M 945 52 L 950 52"></path><text xmlns="http://www.w3.org/2000/svg" x="955" y="58">543</text><path stroke-width="2" d="M 945 16 L 950 16" /><path stroke-width="2" d="M 945 16 L 950 16"></path><text xmlns="http://www.w3.org/2000/svg" x="955" y="22">610</text><text transform="rotate(90.00,987,175)" xmlns="http://www.w3.org/2000/svg" x="987" y="175">Stargazers</text><path d="M 57.000000 346.000000 L 945 346" stroke-width="2" /><path stroke-width="2" d="M 57.000000 346.000000 L 945 346"></path><path d="M 58 346 L 58 351" stroke-width="2" /><path stroke-width="2" d="M 58 346 L 58 351"></path><text xmlns="http://www.w3.org/2000/svg" x="25" y="368">2023-04-02</text><path d="M 157 346 L 157 351" stroke-width="2" /><path stroke-width="2" d="M 157 346 L 157 351"></path><text xmlns="http://www.w3.org/2000/svg" x="124" y="368">2023-05-30</text><path stroke-width="2" d="M 256 346 L 256 351" /><path stroke-width="2" d="M 256 346 L 256 351"></path><text y="368" xmlns="http://www.w3.org/2000/svg" x="223">2023-07-28</text><path stroke-width="2" d="M 354 346 L 354 351" /><path stroke-width="2" d="M 354 346 L 354 351"></path><text xmlns="http://www.w3.org/2000/svg" x="321" y="368">2023-09-25</text><path stroke-width="2" d="M 453 346 L 453 351" /><path stroke-width="2" d="M 453 346 L 453 351"></path><text xmlns="http://www.w3.org/2000/svg" x="420" y="368">2023-11-22</text><path stroke-width="2" d="M 551 346 L 551 351" /><path stroke-width="2" d="M 551 346 L 551 351"></path><text x="518" y="368" xmlns="http://www.w3.org/2000/svg">2024-01-20</text><path stroke-width="2" d="M 650 346 L 650 351" /><path stroke-width="2" d="M 650 346 L 650 351"></path><text xmlns="http://www.w3.org/2000/svg" x="617" y="368">2024-03-18</text><path stroke-width="2" d="M 748 346 L 748 351" /><path stroke-width="2" d="M 748 346 L 748 351"></path><text xmlns="http://www.w3.org/2000/svg" x="715" y="368">2024-05-16</text><path stroke-width="2" d="M 847 346 L 847 351" /><path d="M 847 346 L 847 351" stroke-width="2"></path><text xmlns="http://www.w3.org/2000/svg" x="814" y="368">2024-07-14</text><path stroke-width="2" d="M 945 346 L 945 351" /><path stroke-width="2" d="M 945 346 L 945 351"></path><text xmlns="http://www.w3.org/2000/svg" x="912" y="368">2024-09-10</text><text xmlns="http://www.w3.org/2000/svg" x="487" y="390">Time</text></svg>