<svg xmlns="http://www.w3.org/2000/svg" xmlns:xlink="http://www.w3.org/1999/xlink" width="1024" height="400">\n<path  d="M 0 0
L 1024 0
L 1024 400
L 0 400
L 0 0" style="stroke-width:0;stroke:rgba(255,255,255,1.0);fill:rgba(255,255,255,1.0)"/><path  d="M 38 11
L 965 11
L 965 351
L 38 351
L 38 11" style="stroke-width:0;stroke:rgba(255,255,255,1.0);fill:rgba(255,255,255,1.0)"/><path  d="M 38 351
L 965 351" style="stroke-width:2;stroke:rgba(85,85,85,1.0);fill:none"/><path  d="M 38 351
L 38 356" style="stroke-width:2;stroke:rgba(85,85,85,1.0);fill:none"/><text x="5" y="373" style="stroke-width:0;stroke:none;fill:rgba(51,51,51,1.0);font-size:12.8px;font-family:'Roboto Medium',sans-serif">2023-04-02</text><path  d="M 154 351
L 154 356" style="stroke-width:2;stroke:rgba(85,85,85,1.0);fill:none"/><text x="121" y="373" style="stroke-width:0;stroke:none;fill:rgba(51,51,51,1.0);font-size:12.8px;font-family:'Roboto Medium',sans-serif">2023-04-23</text><path  d="M 270 351
L 270 356" style="stroke-width:2;stroke:rgba(85,85,85,1.0);fill:none"/><text x="237" y="373" style="stroke-width:0;stroke:none;fill:rgba(51,51,51,1.0);font-size:12.8px;font-family:'Roboto Medium',sans-serif">2023-05-13</text><path  d="M 386 351
L 386 356" style="stroke-width:2;stroke:rgba(85,85,85,1.0);fill:none"/><text x="353" y="373" style="stroke-width:0;stroke:none;fill:rgba(51,51,51,1.0);font-size:12.8px;font-family:'Roboto Medium',sans-serif">2023-06-03</text><path  d="M 502 351
L 502 356" style="stroke-width:2;stroke:rgba(85,85,85,1.0);fill:none"/><text x="469" y="373" style="stroke-width:0;stroke:none;fill:rgba(51,51,51,1.0);font-size:12.8px;font-family:'Roboto Medium',sans-serif">2023-06-24</text><path  d="M 618 351
L 618 356" style="stroke-width:2;stroke:rgba(85,85,85,1.0);fill:none"/><text x="585" y="373" style="stroke-width:0;stroke:none;fill:rgba(51,51,51,1.0);font-size:12.8px;font-family:'Roboto Medium',sans-serif">2023-07-14</text><path  d="M 734 351
L 734 356" style="stroke-width:2;stroke:rgba(85,85,85,1.0);fill:none"/><text x="701" y="373" style="stroke-width:0;stroke:none;fill:rgba(51,51,51,1.0);font-size:12.8px;font-family:'Roboto Medium',sans-serif">2023-08-04</text><path  d="M 850 351
L 850 356" style="stroke-width:2;stroke:rgba(85,85,85,1.0);fill:none"/><text x="817" y="373" style="stroke-width:0;stroke:none;fill:rgba(51,51,51,1.0);font-size:12.8px;font-family:'Roboto Medium',sans-serif">2023-08-24</text><path  d="M 965 351
L 965 356" style="stroke-width:2;stroke:rgba(85,85,85,1.0);fill:none"/><text x="932" y="373" style="stroke-width:0;stroke:none;fill:rgba(51,51,51,1.0);font-size:12.8px;font-family:'Roboto Medium',sans-serif">2023-09-14</text><text x="487" y="395" style="stroke-width:0;stroke:none;fill:rgba(51,51,51,1.0);font-size:12.8px;font-family:'Roboto Medium',sans-serif">Time</text><path  d="M 967 351
L 967 11" style="stroke-width:2;stroke:rgba(85,85,85,1.0);fill:none"/><path  d="M 967 351
L 972 351" style="stroke-width:2;stroke:rgba(85,85,85,1.0);fill:none"/><text x="977" y="357" style="stroke-width:0;stroke:none;fill:rgba(51,51,51,1.0);font-size:12.8px;font-family:'Roboto Medium',sans-serif">0</text><path  d="M 967 307
L 972 307" style="stroke-width:2;stroke:rgba(85,85,85,1.0);fill:none"/><text x="977" y="313" style="stroke-width:0;stroke:none;fill:rgba(51,51,51,1.0);font-size:12.8px;font-family:'Roboto Medium',sans-serif">27</text><path  d="M 967 265
L 972 265" style="stroke-width:2;stroke:rgba(85,85,85,1.0);fill:none"/><text x="977" y="271" style="stroke-width:0;stroke:none;fill:rgba(51,51,51,1.0);font-size:12.8px;font-family:'Roboto Medium',sans-serif">53</text><path  d="M 967 223
L 972 223" style="stroke-width:2;stroke:rgba(85,85,85,1.0);fill:none"/><text x="977" y="229" style="stroke-width:0;stroke:none;fill:rgba(51,51,51,1.0);font-size:12.8px;font-family:'Roboto Medium',sans-serif">79</text><path  d="M 967 181
L 972 181" style="stroke-width:2;stroke:rgba(85,85,85,1.0);fill:none"/><text x="977" y="187" style="stroke-width:0;stroke:none;fill:rgba(51,51,51,1.0);font-size:12.8px;font-family:'Roboto Medium',sans-serif">105</text><path  d="M 967 137
L 972 137" style="stroke-width:2;stroke:rgba(85,85,85,1.0);fill:none"/><text x="977" y="143" style="stroke-width:0;stroke:none;fill:rgba(51,51,51,1.0);font-size:12.8px;font-family:'Roboto Medium',sans-serif">132</text><path  d="M 967 95
L 972 95" style="stroke-width:2;stroke:rgba(85,85,85,1.0);fill:none"/><text x="977" y="101" style="stroke-width:0;stroke:none;fill:rgba(51,51,51,1.0);font-size:12.8px;font-family:'Roboto Medium',sans-serif">158</text><path  d="M 967 53
L 972 53" style="stroke-width:2;stroke:rgba(85,85,85,1.0);fill:none"/><text x="977" y="59" style="stroke-width:0;stroke:none;fill:rgba(51,51,51,1.0);font-size:12.8px;font-family:'Roboto Medium',sans-serif">184</text><path  d="M 967 11
L 972 11" style="stroke-width:2;stroke:rgba(85,85,85,1.0);fill:none"/><text x="977" y="17" style="stroke-width:0;stroke:none;fill:rgba(51,51,51,1.0);font-size:12.8px;font-family:'Roboto Medium',sans-serif">210</text><text x="1009" y="150" style="stroke-width:0;stroke:none;fill:rgba(51,51,51,1.0);font-size:12.8px;font-family:'Roboto Medium',sans-serif" transform="rotate(90.00,1009,150)">Stargazers</text><path  d="M 38 351
L 49 349
L 116 347
L 118 346
L 118 344
L 118 342
L 118 341
L 118 339
L 119 338
L 119 336
L 120 334
L 120 333
L 121 331
L 121 329
L 121 328
L 121 326
L 121 325
L 122 323
L 123 321
L 123 320
L 127 318
L 129 317
L 129 315
L 134 313
L 137 312
L 137 310
L 138 308
L 140 307
L 140 305
L 144 304
L 151 302
L 152 300
L 157 299
L 162 297
L 183 295
L 184 294
L 184 292
L 184 291
L 184 289
L 185 287
L 185 286
L 197 284
L 202 283
L 206 281
L 216 279
L 233 278
L 240 276
L 270 274
L 279 273
L 296 271
L 313 270
L 320 268
L 384 266
L 387 265
L 387 263
L 396 261
L 398 260
L 398 258
L 398 257
L 398 255
L 398 253
L 398 252
L 398 250
L 398 249
L 399 247
L 399 245
L 399 244
L 400 242
L 401 240
L 401 239
L 401 237
L 401 236
L 401 234
L 401 232
L 401 231
L 401 229
L 401 227
L 401 226
L 401 224
L 401 223
L 401 221
L 401 219
L 401 218
L 401 216
L 402 215
L 402 213
L 402 211
L 402 210
L 402 208
L 402 206
L 402 205
L 402 203
L 402 202
L 402 200
L 402 198
L 403 197
L 403 195
L 403 193
L 403 192
L 403 190
L 403 189
L 404 187
L 404 185
L 405 184
L 407 182
L 407 181
L 407 179
L 408 177
L 409 176
L 412 174
L 412 172
L 412 171
L 413 169
L 413 168
L 413 166
L 413 164
L 413 163
L 413 161
L 413 159
L 413 158
L 413 156
L 413 155
L 413 153
L 413 151
L 413 150
L 414 148
L 415 147
L 419 145
L 420 143
L 420 142
L 420 140
L 435 138
L 436 137
L 436 135
L 442 134
L 442 132
L 452 130
L 463 129
L 465 127
L 474 125
L 478 124
L 485 122
L 487 121
L 489 119
L 499 117
L 500 116
L 503 114
L 508 113
L 510 111
L 514 109
L 515 108
L 516 106
L 517 104
L 522 103
L 528 101
L 528 100
L 530 98
L 532 96
L 532 95
L 536 93
L 543 91
L 548 90
L 558 88
L 561 87
L 565 85
L 569 83
L 570 82
L 570 80
L 577 79
L 604 77
L 606 75
L 610 74
L 636 72
L 637 70
L 637 69
L 637 67
L 638 66
L 642 64
L 650 62
L 655 61
L 656 59
L 688 57
L 694 56
L 701 54
L 711 53
L 717 51
L 717 49
L 722 48
L 744 46
L 769 45
L 797 43
L 799 41
L 799 40
L 800 38
L 802 36
L 808 35
L 846 33
L 863 32
L 864 30
L 878 28
L 881 27
L 884 25
L 925 23
L 925 22
L 928 20
L 930 19
L 935 17
L 947 15
L 952 14
L 960 12
L 965 11" style="stroke-width:2;stroke:rgba(129,199,239,1.0);fill:none"/></svg>