<svg xmlns="http://www.w3.org/2000/svg" xmlns:xlink="http://www.w3.org/1999/xlink" width="1024" height="400">\n<path  d="M 0 0
L 1024 0
L 1024 400
L 0 400
L 0 0" style="stroke-width:0;stroke:rgba(255,255,255,1.0);fill:rgba(255,255,255,1.0)"/><path  d="M 38 11
L 965 11
L 965 351
L 38 351
L 38 11" style="stroke-width:0;stroke:rgba(255,255,255,1.0);fill:rgba(255,255,255,1.0)"/><path  d="M 38 351
L 965 351" style="stroke-width:2;stroke:rgba(85,85,85,1.0);fill:none"/><path  d="M 38 351
L 38 356" style="stroke-width:2;stroke:rgba(85,85,85,1.0);fill:none"/><text x="5" y="373" style="stroke-width:0;stroke:none;fill:rgba(51,51,51,1.0);font-size:12.8px;font-family:'Roboto Medium',sans-serif">2023-04-02</text><path  d="M 154 351
L 154 356" style="stroke-width:2;stroke:rgba(85,85,85,1.0);fill:none"/><text x="121" y="373" style="stroke-width:0;stroke:none;fill:rgba(51,51,51,1.0);font-size:12.8px;font-family:'Roboto Medium',sans-serif">2023-05-05</text><path  d="M 270 351
L 270 356" style="stroke-width:2;stroke:rgba(85,85,85,1.0);fill:none"/><text x="237" y="373" style="stroke-width:0;stroke:none;fill:rgba(51,51,51,1.0);font-size:12.8px;font-family:'Roboto Medium',sans-serif">2023-06-07</text><path  d="M 386 351
L 386 356" style="stroke-width:2;stroke:rgba(85,85,85,1.0);fill:none"/><text x="353" y="373" style="stroke-width:0;stroke:none;fill:rgba(51,51,51,1.0);font-size:12.8px;font-family:'Roboto Medium',sans-serif">2023-07-11</text><path  d="M 502 351
L 502 356" style="stroke-width:2;stroke:rgba(85,85,85,1.0);fill:none"/><text x="469" y="373" style="stroke-width:0;stroke:none;fill:rgba(51,51,51,1.0);font-size:12.8px;font-family:'Roboto Medium',sans-serif">2023-08-13</text><path  d="M 618 351
L 618 356" style="stroke-width:2;stroke:rgba(85,85,85,1.0);fill:none"/><text x="585" y="373" style="stroke-width:0;stroke:none;fill:rgba(51,51,51,1.0);font-size:12.8px;font-family:'Roboto Medium',sans-serif">2023-09-15</text><path  d="M 734 351
L 734 356" style="stroke-width:2;stroke:rgba(85,85,85,1.0);fill:none"/><text x="701" y="373" style="stroke-width:0;stroke:none;fill:rgba(51,51,51,1.0);font-size:12.8px;font-family:'Roboto Medium',sans-serif">2023-10-18</text><path  d="M 850 351
L 850 356" style="stroke-width:2;stroke:rgba(85,85,85,1.0);fill:none"/><text x="817" y="373" style="stroke-width:0;stroke:none;fill:rgba(51,51,51,1.0);font-size:12.8px;font-family:'Roboto Medium',sans-serif">2023-11-21</text><path  d="M 965 351
L 965 356" style="stroke-width:2;stroke:rgba(85,85,85,1.0);fill:none"/><text x="932" y="373" style="stroke-width:0;stroke:none;fill:rgba(51,51,51,1.0);font-size:12.8px;font-family:'Roboto Medium',sans-serif">2023-12-24</text><text x="487" y="395" style="stroke-width:0;stroke:none;fill:rgba(51,51,51,1.0);font-size:12.8px;font-family:'Roboto Medium',sans-serif">Time</text><path  d="M 967 351
L 967 11" style="stroke-width:2;stroke:rgba(85,85,85,1.0);fill:none"/><path  d="M 967 351
L 972 351" style="stroke-width:2;stroke:rgba(85,85,85,1.0);fill:none"/><text x="977" y="357" style="stroke-width:0;stroke:none;fill:rgba(51,51,51,1.0);font-size:12.8px;font-family:'Roboto Medium',sans-serif">0</text><path  d="M 967 308
L 972 308" style="stroke-width:2;stroke:rgba(85,85,85,1.0);fill:none"/><text x="977" y="314" style="stroke-width:0;stroke:none;fill:rgba(51,51,51,1.0);font-size:12.8px;font-family:'Roboto Medium',sans-serif">45</text><path  d="M 967 266
L 972 266" style="stroke-width:2;stroke:rgba(85,85,85,1.0);fill:none"/><text x="977" y="272" style="stroke-width:0;stroke:none;fill:rgba(51,51,51,1.0);font-size:12.8px;font-family:'Roboto Medium',sans-serif">90</text><path  d="M 967 223
L 972 223" style="stroke-width:2;stroke:rgba(85,85,85,1.0);fill:none"/><text x="977" y="229" style="stroke-width:0;stroke:none;fill:rgba(51,51,51,1.0);font-size:12.8px;font-family:'Roboto Medium',sans-serif">135</text><path  d="M 967 181
L 972 181" style="stroke-width:2;stroke:rgba(85,85,85,1.0);fill:none"/><text x="977" y="187" style="stroke-width:0;stroke:none;fill:rgba(51,51,51,1.0);font-size:12.8px;font-family:'Roboto Medium',sans-serif">180</text><path  d="M 967 138
L 972 138" style="stroke-width:2;stroke:rgba(85,85,85,1.0);fill:none"/><text x="977" y="144" style="stroke-width:0;stroke:none;fill:rgba(51,51,51,1.0);font-size:12.8px;font-family:'Roboto Medium',sans-serif">225</text><path  d="M 967 96
L 972 96" style="stroke-width:2;stroke:rgba(85,85,85,1.0);fill:none"/><text x="977" y="102" style="stroke-width:0;stroke:none;fill:rgba(51,51,51,1.0);font-size:12.8px;font-family:'Roboto Medium',sans-serif">270</text><path  d="M 967 53
L 972 53" style="stroke-width:2;stroke:rgba(85,85,85,1.0);fill:none"/><text x="977" y="59" style="stroke-width:0;stroke:none;fill:rgba(51,51,51,1.0);font-size:12.8px;font-family:'Roboto Medium',sans-serif">315</text><path  d="M 967 11
L 972 11" style="stroke-width:2;stroke:rgba(85,85,85,1.0);fill:none"/><text x="977" y="17" style="stroke-width:0;stroke:none;fill:rgba(51,51,51,1.0);font-size:12.8px;font-family:'Roboto Medium',sans-serif">360</text><text x="1009" y="150" style="stroke-width:0;stroke:none;fill:rgba(51,51,51,1.0);font-size:12.8px;font-family:'Roboto Medium',sans-serif" transform="rotate(90.00,1009,150)">Stargazers</text><path  d="M 38 351
L 45 350
L 87 349
L 88 348
L 88 347
L 88 346
L 88 345
L 88 344
L 88 343
L 88 342
L 89 341
L 89 340
L 90 339
L 90 338
L 90 337
L 90 336
L 90 335
L 90 334
L 91 334
L 91 333
L 93 332
L 95 331
L 95 330
L 98 329
L 100 328
L 100 327
L 100 326
L 101 325
L 104 324
L 109 323
L 109 322
L 112 321
L 115 320
L 128 319
L 129 318
L 129 317
L 129 317
L 129 316
L 129 315
L 129 314
L 137 313
L 140 312
L 142 311
L 149 310
L 159 309
L 164 308
L 182 307
L 188 306
L 198 305
L 209 304
L 213 303
L 253 302
L 255 301
L 255 300
L 260 300
L 262 299
L 262 298
L 262 297
L 262 296
L 262 295
L 262 294
L 262 293
L 262 292
L 262 291
L 262 290
L 262 289
L 263 288
L 264 287
L 264 286
L 264 285
L 264 284
L 264 283
L 264 283
L 264 282
L 264 281
L 264 280
L 264 279
L 264 278
L 264 277
L 264 276
L 264 275
L 264 274
L 264 273
L 264 272
L 264 271
L 264 270
L 264 269
L 264 268
L 264 267
L 264 266
L 265 266
L 265 265
L 265 264
L 265 263
L 265 262
L 265 261
L 265 260
L 265 259
L 265 258
L 265 257
L 266 256
L 266 255
L 266 254
L 267 253
L 267 252
L 267 251
L 268 250
L 269 249
L 271 249
L 271 248
L 271 247
L 271 246
L 271 245
L 271 244
L 271 243
L 271 242
L 271 241
L 271 240
L 271 239
L 271 238
L 271 237
L 271 236
L 271 235
L 271 234
L 272 233
L 273 232
L 275 232
L 275 231
L 276 230
L 276 229
L 285 228
L 286 227
L 286 226
L 289 225
L 289 224
L 295 223
L 302 222
L 304 221
L 309 220
L 312 219
L 316 218
L 317 217
L 318 216
L 324 215
L 325 215
L 327 214
L 330 213
L 332 212
L 334 211
L 335 210
L 335 209
L 336 208
L 339 207
L 342 206
L 342 205
L 344 204
L 345 203
L 345 202
L 347 201
L 352 200
L 355 199
L 361 198
L 363 198
L 366 197
L 368 196
L 368 195
L 369 194
L 373 193
L 390 192
L 391 191
L 394 190
L 410 189
L 410 188
L 410 187
L 410 186
L 411 185
L 414 184
L 419 183
L 422 182
L 422 181
L 442 181
L 446 180
L 450 179
L 456 178
L 460 177
L 460 176
L 463 175
L 477 174
L 492 173
L 510 172
L 511 171
L 511 170
L 512 169
L 513 168
L 517 167
L 540 166
L 551 165
L 551 164
L 560 163
L 562 163
L 563 162
L 589 161
L 589 160
L 591 159
L 592 158
L 596 157
L 603 156
L 606 155
L 611 154
L 614 153
L 620 152
L 635 151
L 635 150
L 638 149
L 638 148
L 639 147
L 640 147
L 648 146
L 648 145
L 662 144
L 684 143
L 695 142
L 707 141
L 707 140
L 713 139
L 714 138
L 718 137
L 722 136
L 722 135
L 722 134
L 722 133
L 722 132
L 722 131
L 722 130
L 722 130
L 722 129
L 722 128
L 723 127
L 723 126
L 723 125
L 724 124
L 725 123
L 727 122
L 730 121
L 731 120
L 731 119
L 732 118
L 732 117
L 736 116
L 736 115
L 736 114
L 736 113
L 736 113
L 736 112
L 736 111
L 739 110
L 739 109
L 740 108
L 742 107
L 742 106
L 742 105
L 743 104
L 743 103
L 745 102
L 746 101
L 746 100
L 746 99
L 749 98
L 749 97
L 750 96
L 752 96
L 755 95
L 757 94
L 761 93
L 767 92
L 767 91
L 769 90
L 770 89
L 770 88
L 770 87
L 770 86
L 775 85
L 776 84
L 781 83
L 781 82
L 783 81
L 788 80
L 792 79
L 792 79
L 799 78
L 801 77
L 802 76
L 804 75
L 804 74
L 816 73
L 819 72
L 820 71
L 829 70
L 834 69
L 843 68
L 846 67
L 847 66
L 849 65
L 850 64
L 851 63
L 858 62
L 864 62
L 868 61
L 869 60
L 872 59
L 875 58
L 876 57
L 876 56
L 876 55
L 877 54
L 878 53
L 878 52
L 882 51
L 882 50
L 882 49
L 884 48
L 896 47
L 910 46
L 910 45
L 910 45
L 919 44
L 924 43
L 926 42
L 927 41
L 930 40
L 934 39
L 934 38
L 934 37
L 934 36
L 934 35
L 935 34
L 935 33
L 936 32
L 936 31
L 938 30
L 945 29
L 945 28
L 945 28
L 945 27
L 946 26
L 947 25
L 947 24
L 947 23
L 947 22
L 947 21
L 948 20
L 948 19
L 948 18
L 952 17
L 959 16
L 965 15
L 965 14" style="stroke-width:2;stroke:rgba(129,199,239,1.0);fill:none"/></svg>