<svg xmlns:xlink="http://www.w3.org/1999/xlink" width="1024px" height="400px" xmlns="http://www.w3.org/2000/svg"><style type="text/css">
path { fill: none; stroke: rgb(51,51,51); }
path.series { stroke: #6b63ff; }
rect.background { fill: rgb(255,255,255); stroke: none; }

text {
	stroke-width: 0;
	stroke: none;
	fill: rgba(51,51,51,1.0);
	font-size: 12.8px;
	font-family: 'Roboto Medium', sans-serif;
}
</style><rect y="0" width="1024px" height="400px" class="background" rx="8" x="0" /><rect height="400px" class="background" rx="8" x="0" y="0" width="1024px"></rect><path d="M 58 345 L 60 345 L 72 345 L 72 344 L 72 344 L 72 344 L 72 344 L 72 343 L 72 343 L 72 343 L 72 342 L 72 342 L 72 342 L 72 342 L 72 341 L 73 341 L 73 341 L 73 341 L 73 340 L 73 340 L 74 340 L 74 339 L 75 339 L 75 339 L 75 339 L 75 338 L 76 338 L 76 338 L 78 338 L 78 337 L 79 337 L 79 337 L 83 336 L 83 336 L 83 336 L 83 336 L 83 335 L 85 335 L 86 335 L 87 335 L 89 334 L 91 334 L 93 334 L 98 333 L 99 333 L 102 333 L 105 333 L 106 332 L 118 332 L 118 332 L 119 331 L 119 331 L 119 331 L 119 331 L 119 330 L 119 330 L 119 330 L 119 330 L 119 329 L 120 329 L 120 329 L 120 328 L 120 328 L 120 328 L 120 328 L 120 327 L 120 327 L 120 327 L 120 327 L 120 326 L 120 326 L 120 326 L 120 325 L 120 325 L 120 325 L 120 325 L 120 324 L 120 324 L 120 324 L 120 324 L 120 323 L 120 323 L 120 323 L 120 322 L 120 322 L 120 322 L 120 322 L 120 321 L 120 321 L 120 321 L 120 320 L 120 320 L 120 320 L 120 320 L 120 319 L 120 319 L 121 319 L 121 319 L 121 318 L 121 318 L 121 318 L 121 317 L 121 317 L 121 317 L 122 317 L 122 316 L 122 316 L 122 316 L 122 316 L 122 315 L 122 315 L 122 315 L 122 314 L 122 314 L 122 314 L 122 314 L 122 313 L 122 313 L 122 313 L 122 313 L 122 312 L 122 312 L 123 312 L 123 311 L 123 311 L 123 311 L 126 311 L 126 310 L 126 310 L 127 310 L 127 309 L 129 309 L 130 309 L 131 309 L 132 308 L 133 308 L 134 308 L 135 308 L 135 307 L 137 307 L 137 307 L 137 306 L 138 306 L 139 306 L 139 306 L 139 305 L 139 305 L 140 305 L 141 305 L 141 304 L 141 304 L 142 304 L 142 303 L 142 303 L 143 303 L 144 303 L 145 302 L 147 302 L 147 302 L 148 302 L 149 301 L 149 301 L 149 301 L 150 300 L 154 300 L 155 300 L 155 300 L 160 299 L 160 299 L 160 299 L 160 298 L 160 298 L 161 298 L 162 298 L 163 297 L 163 297 L 169 297 L 170 297 L 171 296 L 173 296 L 174 296 L 174 295 L 174 295 L 178 295 L 182 295 L 187 294 L 188 294 L 188 294 L 188 294 L 188 293 L 195 293 L 198 293 L 198 292 L 201 292 L 201 292 L 202 292 L 209 291 L 209 291 L 209 291 L 210 291 L 211 290 L 213 290 L 213 290 L 215 289 L 216 289 L 217 289 L 221 289 L 221 288 L 222 288 L 222 288 L 222 287 L 223 287 L 225 287 L 229 287 L 238 286 L 241 286 L 243 286 L 243 286 L 245 285 L 245 285 L 245 285 L 245 284 L 245 284 L 245 284 L 245 284 L 245 283 L 245 283 L 245 283 L 245 283 L 245 282 L 245 282 L 246 282 L 246 281 L 248 281 L 248 281 L 248 281 L 248 280 L 249 280 L 249 280 L 249 280 L 249 279 L 249 279 L 249 279 L 249 278 L 250 278 L 250 278 L 250 278 L 251 277 L 251 277 L 251 277 L 251 276 L 251 276 L 252 276 L 252 276 L 252 275 L 253 275 L 253 275 L 253 275 L 254 274 L 255 274 L 256 274 L 257 273 L 257 273 L 258 273 L 258 273 L 258 272 L 258 272 L 258 272 L 259 272 L 260 271 L 261 271 L 261 271 L 262 270 L 263 270 L 264 270 L 264 270 L 266 269 L 267 269 L 267 269 L 267 269 L 267 268 L 271 268 L 271 268 L 272 267 L 274 267 L 276 267 L 278 267 L 279 266 L 279 266 L 280 266 L 280 265 L 280 265 L 282 265 L 284 265 L 285 264 L 285 264 L 287 264 L 287 264 L 287 263 L 287 263 L 288 263 L 288 262 L 288 262 L 289 262 L 289 262 L 289 261 L 289 261 L 293 261 L 296 261 L 296 260 L 296 260 L 299 260 L 300 259 L 301 259 L 301 259 L 302 259 L 303 258 L 303 258 L 303 258 L 303 258 L 303 257 L 303 257 L 303 257 L 304 256 L 304 256 L 304 256 L 306 256 L 306 255 L 306 255 L 306 255 L 306 254 L 306 254 L 307 254 L 307 254 L 307 253 L 307 253 L 307 253 L 307 253 L 307 252 L 310 252 L 312 252 L 312 251 L 312 251 L 320 251 L 321 251 L 323 250 L 325 250 L 331 250 L 333 250 L 333 249 L 333 249 L 333 249 L 333 248 L 333 248 L 333 248 L 334 248 L 335 247 L 341 247 L 343 247 L 345 247 L 349 246 L 353 246 L 355 246 L 357 245 L 360 245 L 360 245 L 367 245 L 374 244 L 374 244 L 379 244 L 379 243 L 383 243 L 384 243 L 386 243 L 386 242 L 386 242 L 386 242 L 389 242 L 390 241 L 391 241 L 394 241 L 395 240 L 395 240 L 396 240 L 398 240 L 401 239 L 401 239 L 404 239 L 407 239 L 407 238 L 408 238 L 409 238 L 409 237 L 410 237 L 412 237 L 414 237 L 416 236 L 418 236 L 418 236 L 422 236 L 423 235 L 425 235 L 428 235 L 428 234 L 432 234 L 432 234 L 432 234 L 433 233 L 434 233 L 435 233 L 435 232 L 437 232 L 439 232 L 440 232 L 440 231 L 440 231 L 446 231 L 446 231 L 446 230 L 447 230 L 447 230 L 447 229 L 447 229 L 448 229 L 448 229 L 450 228 L 450 228 L 451 228 L 451 228 L 452 227 L 452 227 L 453 227 L 453 226 L 453 226 L 453 226 L 453 226 L 454 225 L 454 225 L 454 225 L 455 225 L 455 224 L 456 224 L 456 224 L 457 223 L 457 223 L 457 223 L 458 223 L 459 222 L 459 222 L 460 222 L 461 221 L 462 221 L 462 221 L 462 221 L 463 220 L 464 220 L 464 220 L 464 220 L 465 219 L 465 219 L 465 219 L 465 218 L 465 218 L 466 218 L 466 218 L 469 217 L 470 217 L 471 217 L 471 217 L 472 216 L 474 216 L 474 216 L 475 215 L 477 215 L 479 215 L 481 215 L 482 214 L 482 214 L 482 214 L 482 214 L 482 213 L 483 213 L 483 213 L 483 212 L 484 212 L 484 212 L 484 212 L 485 211 L 486 211 L 486 211 L 486 210 L 487 210 L 489 210 L 489 210 L 489 209 L 490 209 L 490 209 L 492 209 L 497 208 L 497 208 L 497 208 L 497 207 L 499 207 L 500 207 L 501 207 L 501 206 L 501 206 L 501 206 L 503 206 L 505 205 L 505 205 L 505 205 L 505 204 L 507 204 L 507 204 L 507 204 L 507 203 L 510 203 L 512 203 L 512 203 L 515 202 L 515 202 L 516 202 L 519 201 L 520 201 L 522 201 L 523 201 L 524 200 L 525 200 L 525 200 L 525 199 L 526 199 L 526 199 L 526 199 L 526 198 L 527 198 L 527 198 L 527 198 L 527 197 L 527 197 L 528 197 L 529 196 L 529 196 L 533 196 L 533 196 L 537 195 L 539 195 L 539 195 L 540 195 L 540 194 L 542 194 L 543 194 L 543 193 L 544 193 L 544 193 L 544 193 L 544 192 L 544 192 L 544 192 L 544 192 L 545 191 L 545 191 L 545 191 L 545 190 L 546 190 L 547 190 L 547 190 L 547 189 L 548 189 L 549 189 L 549 188 L 549 188 L 549 188 L 550 188 L 552 187 L 552 187 L 552 187 L 552 187 L 552 186 L 553 186 L 553 186 L 553 185 L 554 185 L 556 185 L 558 185 L 560 184 L 561 184 L 562 184 L 565 184 L 567 183 L 568 183 L 570 183 L 573 182 L 573 182 L 573 182 L 577 182 L 578 181 L 578 181 L 579 181 L 579 181 L 585 180 L 586 180 L 586 180 L 586 179 L 587 179 L 587 179 L 588 179 L 588 178 L 589 178 L 589 178 L 589 177 L 590 177 L 590 177 L 590 177 L 590 176 L 590 176 L 590 176 L 591 176 L 591 175 L 592 175 L 593 175 L 594 174 L 594 174 L 594 174 L 595 174 L 595 173 L 596 173 L 596 173 L 597 173 L 597 172 L 597 172 L 597 172 L 599 171 L 599 171 L 600 171 L 600 171 L 601 170 L 601 170 L 601 170 L 602 170 L 602 169 L 602 169 L 602 169 L 603 168 L 603 168 L 604 168 L 604 168 L 605 167 L 605 167 L 605 167 L 605 166 L 605 166 L 606 166 L 606 166 L 606 165 L 606 165 L 607 165 L 607 165 L 608 164 L 608 164 L 608 164 L 608 163 L 608 163 L 608 163 L 609 163 L 609 162 L 609 162 L 609 162 L 609 162 L 609 161 L 611 161 L 612 161 L 614 160 L 614 160 L 614 160 L 614 160 L 615 159 L 616 159 L 616 159 L 617 159 L 619 158 L 621 158 L 621 158 L 622 157 L 623 157 L 623 157 L 623 157 L 624 156 L 624 156 L 624 156 L 624 155 L 624 155 L 624 155 L 624 155 L 624 154 L 625 154 L 625 154 L 625 154 L 625 153 L 625 153 L 626 153 L 626 152 L 626 152 L 627 152 L 628 152 L 628 151 L 629 151 L 629 151 L 630 151 L 630 150 L 630 150 L 633 150 L 633 149 L 633 149 L 633 149 L 633 149 L 635 148 L 637 148 L 637 148 L 639 148 L 639 147 L 639 147 L 639 147 L 640 146 L 643 146 L 645 146 L 647 146 L 649 145 L 649 145 L 650 145 L 651 144 L 651 144 L 651 144 L 651 144 L 652 143 L 652 143 L 653 143 L 653 143 L 654 142 L 656 142 L 656 142 L 656 141 L 656 141 L 656 141 L 656 141 L 656 140 L 656 140 L 656 140 L 656 140 L 656 139 L 656 139 L 656 139 L 656 138 L 656 138 L 656 138 L 656 138 L 657 137 L 657 137 L 657 137 L 657 137 L 657 136 L 657 136 L 657 136 L 658 135 L 658 135 L 658 135 L 659 135 L 659 134 L 659 134 L 659 134 L 659 133 L 659 133 L 660 133 L 661 133 L 662 132 L 663 132 L 663 132 L 664 132 L 664 131 L 664 131 L 665 131 L 666 130 L 667 130 L 668 130 L 668 130 L 668 129 L 668 129 L 668 129 L 668 129 L 668 128 L 670 128 L 670 128 L 670 127 L 673 127 L 675 127 L 676 127 L 678 126 L 679 126 L 679 126 L 679 126 L 679 125 L 680 125 L 680 125 L 680 124 L 681 124 L 681 124 L 682 124 L 682 123 L 682 123 L 682 123 L 682 122 L 683 122 L 683 122 L 683 122 L 683 121 L 683 121 L 683 121 L 684 121 L 685 120 L 685 120 L 685 120 L 686 119 L 686 119 L 686 119 L 687 119 L 687 118 L 687 118 L 687 118 L 688 118 L 688 117 L 689 117 L 692 117 L 694 116 L 696 116 L 697 116 L 698 116 L 700 115 L 700 115 L 701 115 L 703 115 L 708 114 L 708 114 L 710 114 L 711 113 L 713 113 L 713 113 L 713 113 L 715 112 L 715 112 L 716 112 L 717 111 L 718 111 L 719 111 L 720 111 L 720 110 L 720 110 L 721 110 L 721 110 L 721 109 L 724 109 L 724 109 L 725 108 L 726 108 L 727 108 L 728 108 L 728 107 L 729 107 L 729 107 L 729 107 L 729 106 L 730 106 L 731 106 L 731 105 L 732 105 L 733 105 L 733 105 L 733 104 L 734 104 L 734 104 L 735 104 L 735 103 L 735 103 L 736 103 L 736 102 L 736 102 L 736 102 L 736 102 L 737 101 L 739 101 L 740 101 L 740 100 L 743 100 L 743 100 L 745 100 L 745 99 L 747 99 L 749 99 L 751 99 L 752 98 L 753 98 L 753 98 L 755 97 L 757 97 L 758 97 L 758 97 L 759 96 L 759 96 L 759 96 L 759 96 L 760 95 L 761 95 L 762 95 L 762 94 L 762 94 L 763 94 L 768 94 L 769 93 L 769 93 L 771 93 L 772 92 L 773 92 L 773 92 L 774 92 L 774 91 L 774 91 L 775 91 L 776 91 L 776 90 L 777 90 L 777 90 L 777 89 L 777 89 L 778 89 L 779 89 L 782 88 L 782 88 L 786 88 L 787 88 L 787 87 L 788 87 L 789 87 L 789 86 L 789 86 L 789 86 L 792 86 L 793 85 L 795 85 L 795 85 L 795 85 L 795 84 L 797 84 L 798 84 L 800 83 L 800 83 L 800 83 L 800 83 L 801 82 L 801 82 L 801 82 L 802 82 L 802 81 L 802 81 L 804 81 L 804 80 L 805 80 L 805 80 L 805 80 L 806 79 L 806 79 L 806 79 L 809 78 L 813 78 L 813 78 L 816 78 L 817 77 L 819 77 L 820 77 L 820 77 L 821 76 L 822 76 L 822 76 L 823 75 L 825 75 L 826 75 L 829 75 L 834 74 L 834 74 L 834 74 L 834 74 L 834 73 L 836 73 L 836 73 L 836 72 L 844 72 L 846 72 L 846 72 L 847 71 L 849 71 L 851 71 L 853 71 L 854 70 L 854 70 L 855 70 L 856 69 L 860 69 L 861 69 L 862 69 L 863 68 L 866 68 L 866 68 L 866 67 L 866 67 L 866 67 L 867 67 L 867 66 L 867 66 L 869 66 L 870 66 L 871 65 L 872 65 L 872 65 L 873 64 L 875 64 L 878 64 L 879 64 L 880 63 L 881 63 L 881 63 L 882 63 L 882 62 L 882 62 L 882 62 L 882 61 L 884 61 L 886 61 L 886 61 L 886 60 L 886 60 L 886 60 L 886 60 L 887 59 L 887 59 L 887 59 L 887 58 L 887 58 L 887 58 L 888 58 L 888 57 L 889 57 L 889 57 L 889 56 L 889 56 L 889 56 L 891 56 L 895 55 L 896 55 L 897 55 L 898 55 L 898 54 L 898 54 L 898 54 L 898 53 L 898 53 L 898 53 L 898 53 L 898 52 L 898 52 L 898 52 L 898 52 L 899 51 L 899 51 L 899 51 L 899 50 L 899 50 L 899 50 L 900 50 L 900 49 L 900 49 L 901 49 L 901 49 L 903 48 L 904 48 L 904 48 L 904 47 L 905 47 L 905 47 L 907 47 L 907 46 L 907 46 L 909 46 L 910 45 L 911 45 L 911 45 L 912 45 L 913 44 L 913 44 L 915 44 L 915 44 L 916 43 L 917 43 L 919 43 L 919 42 L 919 42 L 920 42 L 920 42 L 920 41 L 922 41 L 922 41 L 923 41 L 925 40 L 926 40 L 929 40 L 930 39 L 930 39 L 934 39 L 935 39 L 935 38 L 935 38 L 936 38 L 936 38 L 937 37 L 937 37" stroke-width="2" class="series" /><path stroke-width="2" class="series" d="M 58 345 L 60 345 L 72 345 L 72 344 L 72 344 L 72 344 L 72 344 L 72 343 L 72 343 L 72 343 L 72 342 L 72 342 L 72 342 L 72 342 L 72 341 L 73 341 L 73 341 L 73 341 L 73 340 L 73 340 L 74 340 L 74 339 L 75 339 L 75 339 L 75 339 L 75 338 L 76 338 L 76 338 L 78 338 L 78 337 L 79 337 L 79 337 L 83 336 L 83 336 L 83 336 L 83 336 L 83 335 L 85 335 L 86 335 L 87 335 L 89 334 L 91 334 L 93 334 L 98 333 L 99 333 L 102 333 L 105 333 L 106 332 L 118 332 L 118 332 L 119 331 L 119 331 L 119 331 L 119 331 L 119 330 L 119 330 L 119 330 L 119 330 L 119 329 L 120 329 L 120 329 L 120 328 L 120 328 L 120 328 L 120 328 L 120 327 L 120 327 L 120 327 L 120 327 L 120 326 L 120 326 L 120 326 L 120 325 L 120 325 L 120 325 L 120 325 L 120 324 L 120 324 L 120 324 L 120 324 L 120 323 L 120 323 L 120 323 L 120 322 L 120 322 L 120 322 L 120 322 L 120 321 L 120 321 L 120 321 L 120 320 L 120 320 L 120 320 L 120 320 L 120 319 L 120 319 L 121 319 L 121 319 L 121 318 L 121 318 L 121 318 L 121 317 L 121 317 L 121 317 L 122 317 L 122 316 L 122 316 L 122 316 L 122 316 L 122 315 L 122 315 L 122 315 L 122 314 L 122 314 L 122 314 L 122 314 L 122 313 L 122 313 L 122 313 L 122 313 L 122 312 L 122 312 L 123 312 L 123 311 L 123 311 L 123 311 L 126 311 L 126 310 L 126 310 L 127 310 L 127 309 L 129 309 L 130 309 L 131 309 L 132 308 L 133 308 L 134 308 L 135 308 L 135 307 L 137 307 L 137 307 L 137 306 L 138 306 L 139 306 L 139 306 L 139 305 L 139 305 L 140 305 L 141 305 L 141 304 L 141 304 L 142 304 L 142 303 L 142 303 L 143 303 L 144 303 L 145 302 L 147 302 L 147 302 L 148 302 L 149 301 L 149 301 L 149 301 L 150 300 L 154 300 L 155 300 L 155 300 L 160 299 L 160 299 L 160 299 L 160 298 L 160 298 L 161 298 L 162 298 L 163 297 L 163 297 L 169 297 L 170 297 L 171 296 L 173 296 L 174 296 L 174 295 L 174 295 L 178 295 L 182 295 L 187 294 L 188 294 L 188 294 L 188 294 L 188 293 L 195 293 L 198 293 L 198 292 L 201 292 L 201 292 L 202 292 L 209 291 L 209 291 L 209 291 L 210 291 L 211 290 L 213 290 L 213 290 L 215 289 L 216 289 L 217 289 L 221 289 L 221 288 L 222 288 L 222 288 L 222 287 L 223 287 L 225 287 L 229 287 L 238 286 L 241 286 L 243 286 L 243 286 L 245 285 L 245 285 L 245 285 L 245 284 L 245 284 L 245 284 L 245 284 L 245 283 L 245 283 L 245 283 L 245 283 L 245 282 L 245 282 L 246 282 L 246 281 L 248 281 L 248 281 L 248 281 L 248 280 L 249 280 L 249 280 L 249 280 L 249 279 L 249 279 L 249 279 L 249 278 L 250 278 L 250 278 L 250 278 L 251 277 L 251 277 L 251 277 L 251 276 L 251 276 L 252 276 L 252 276 L 252 275 L 253 275 L 253 275 L 253 275 L 254 274 L 255 274 L 256 274 L 257 273 L 257 273 L 258 273 L 258 273 L 258 272 L 258 272 L 258 272 L 259 272 L 260 271 L 261 271 L 261 271 L 262 270 L 263 270 L 264 270 L 264 270 L 266 269 L 267 269 L 267 269 L 267 269 L 267 268 L 271 268 L 271 268 L 272 267 L 274 267 L 276 267 L 278 267 L 279 266 L 279 266 L 280 266 L 280 265 L 280 265 L 282 265 L 284 265 L 285 264 L 285 264 L 287 264 L 287 264 L 287 263 L 287 263 L 288 263 L 288 262 L 288 262 L 289 262 L 289 262 L 289 261 L 289 261 L 293 261 L 296 261 L 296 260 L 296 260 L 299 260 L 300 259 L 301 259 L 301 259 L 302 259 L 303 258 L 303 258 L 303 258 L 303 258 L 303 257 L 303 257 L 303 257 L 304 256 L 304 256 L 304 256 L 306 256 L 306 255 L 306 255 L 306 255 L 306 254 L 306 254 L 307 254 L 307 254 L 307 253 L 307 253 L 307 253 L 307 253 L 307 252 L 310 252 L 312 252 L 312 251 L 312 251 L 320 251 L 321 251 L 323 250 L 325 250 L 331 250 L 333 250 L 333 249 L 333 249 L 333 249 L 333 248 L 333 248 L 333 248 L 334 248 L 335 247 L 341 247 L 343 247 L 345 247 L 349 246 L 353 246 L 355 246 L 357 245 L 360 245 L 360 245 L 367 245 L 374 244 L 374 244 L 379 244 L 379 243 L 383 243 L 384 243 L 386 243 L 386 242 L 386 242 L 386 242 L 389 242 L 390 241 L 391 241 L 394 241 L 395 240 L 395 240 L 396 240 L 398 240 L 401 239 L 401 239 L 404 239 L 407 239 L 407 238 L 408 238 L 409 238 L 409 237 L 410 237 L 412 237 L 414 237 L 416 236 L 418 236 L 418 236 L 422 236 L 423 235 L 425 235 L 428 235 L 428 234 L 432 234 L 432 234 L 432 234 L 433 233 L 434 233 L 435 233 L 435 232 L 437 232 L 439 232 L 440 232 L 440 231 L 440 231 L 446 231 L 446 231 L 446 230 L 447 230 L 447 230 L 447 229 L 447 229 L 448 229 L 448 229 L 450 228 L 450 228 L 451 228 L 451 228 L 452 227 L 452 227 L 453 227 L 453 226 L 453 226 L 453 226 L 453 226 L 454 225 L 454 225 L 454 225 L 455 225 L 455 224 L 456 224 L 456 224 L 457 223 L 457 223 L 457 223 L 458 223 L 459 222 L 459 222 L 460 222 L 461 221 L 462 221 L 462 221 L 462 221 L 463 220 L 464 220 L 464 220 L 464 220 L 465 219 L 465 219 L 465 219 L 465 218 L 465 218 L 466 218 L 466 218 L 469 217 L 470 217 L 471 217 L 471 217 L 472 216 L 474 216 L 474 216 L 475 215 L 477 215 L 479 215 L 481 215 L 482 214 L 482 214 L 482 214 L 482 214 L 482 213 L 483 213 L 483 213 L 483 212 L 484 212 L 484 212 L 484 212 L 485 211 L 486 211 L 486 211 L 486 210 L 487 210 L 489 210 L 489 210 L 489 209 L 490 209 L 490 209 L 492 209 L 497 208 L 497 208 L 497 208 L 497 207 L 499 207 L 500 207 L 501 207 L 501 206 L 501 206 L 501 206 L 503 206 L 505 205 L 505 205 L 505 205 L 505 204 L 507 204 L 507 204 L 507 204 L 507 203 L 510 203 L 512 203 L 512 203 L 515 202 L 515 202 L 516 202 L 519 201 L 520 201 L 522 201 L 523 201 L 524 200 L 525 200 L 525 200 L 525 199 L 526 199 L 526 199 L 526 199 L 526 198 L 527 198 L 527 198 L 527 198 L 527 197 L 527 197 L 528 197 L 529 196 L 529 196 L 533 196 L 533 196 L 537 195 L 539 195 L 539 195 L 540 195 L 540 194 L 542 194 L 543 194 L 543 193 L 544 193 L 544 193 L 544 193 L 544 192 L 544 192 L 544 192 L 544 192 L 545 191 L 545 191 L 545 191 L 545 190 L 546 190 L 547 190 L 547 190 L 547 189 L 548 189 L 549 189 L 549 188 L 549 188 L 549 188 L 550 188 L 552 187 L 552 187 L 552 187 L 552 187 L 552 186 L 553 186 L 553 186 L 553 185 L 554 185 L 556 185 L 558 185 L 560 184 L 561 184 L 562 184 L 565 184 L 567 183 L 568 183 L 570 183 L 573 182 L 573 182 L 573 182 L 577 182 L 578 181 L 578 181 L 579 181 L 579 181 L 585 180 L 586 180 L 586 180 L 586 179 L 587 179 L 587 179 L 588 179 L 588 178 L 589 178 L 589 178 L 589 177 L 590 177 L 590 177 L 590 177 L 590 176 L 590 176 L 590 176 L 591 176 L 591 175 L 592 175 L 593 175 L 594 174 L 594 174 L 594 174 L 595 174 L 595 173 L 596 173 L 596 173 L 597 173 L 597 172 L 597 172 L 597 172 L 599 171 L 599 171 L 600 171 L 600 171 L 601 170 L 601 170 L 601 170 L 602 170 L 602 169 L 602 169 L 602 169 L 603 168 L 603 168 L 604 168 L 604 168 L 605 167 L 605 167 L 605 167 L 605 166 L 605 166 L 606 166 L 606 166 L 606 165 L 606 165 L 607 165 L 607 165 L 608 164 L 608 164 L 608 164 L 608 163 L 608 163 L 608 163 L 609 163 L 609 162 L 609 162 L 609 162 L 609 162 L 609 161 L 611 161 L 612 161 L 614 160 L 614 160 L 614 160 L 614 160 L 615 159 L 616 159 L 616 159 L 617 159 L 619 158 L 621 158 L 621 158 L 622 157 L 623 157 L 623 157 L 623 157 L 624 156 L 624 156 L 624 156 L 624 155 L 624 155 L 624 155 L 624 155 L 624 154 L 625 154 L 625 154 L 625 154 L 625 153 L 625 153 L 626 153 L 626 152 L 626 152 L 627 152 L 628 152 L 628 151 L 629 151 L 629 151 L 630 151 L 630 150 L 630 150 L 633 150 L 633 149 L 633 149 L 633 149 L 633 149 L 635 148 L 637 148 L 637 148 L 639 148 L 639 147 L 639 147 L 639 147 L 640 146 L 643 146 L 645 146 L 647 146 L 649 145 L 649 145 L 650 145 L 651 144 L 651 144 L 651 144 L 651 144 L 652 143 L 652 143 L 653 143 L 653 143 L 654 142 L 656 142 L 656 142 L 656 141 L 656 141 L 656 141 L 656 141 L 656 140 L 656 140 L 656 140 L 656 140 L 656 139 L 656 139 L 656 139 L 656 138 L 656 138 L 656 138 L 656 138 L 657 137 L 657 137 L 657 137 L 657 137 L 657 136 L 657 136 L 657 136 L 658 135 L 658 135 L 658 135 L 659 135 L 659 134 L 659 134 L 659 134 L 659 133 L 659 133 L 660 133 L 661 133 L 662 132 L 663 132 L 663 132 L 664 132 L 664 131 L 664 131 L 665 131 L 666 130 L 667 130 L 668 130 L 668 130 L 668 129 L 668 129 L 668 129 L 668 129 L 668 128 L 670 128 L 670 128 L 670 127 L 673 127 L 675 127 L 676 127 L 678 126 L 679 126 L 679 126 L 679 126 L 679 125 L 680 125 L 680 125 L 680 124 L 681 124 L 681 124 L 682 124 L 682 123 L 682 123 L 682 123 L 682 122 L 683 122 L 683 122 L 683 122 L 683 121 L 683 121 L 683 121 L 684 121 L 685 120 L 685 120 L 685 120 L 686 119 L 686 119 L 686 119 L 687 119 L 687 118 L 687 118 L 687 118 L 688 118 L 688 117 L 689 117 L 692 117 L 694 116 L 696 116 L 697 116 L 698 116 L 700 115 L 700 115 L 701 115 L 703 115 L 708 114 L 708 114 L 710 114 L 711 113 L 713 113 L 713 113 L 713 113 L 715 112 L 715 112 L 716 112 L 717 111 L 718 111 L 719 111 L 720 111 L 720 110 L 720 110 L 721 110 L 721 110 L 721 109 L 724 109 L 724 109 L 725 108 L 726 108 L 727 108 L 728 108 L 728 107 L 729 107 L 729 107 L 729 107 L 729 106 L 730 106 L 731 106 L 731 105 L 732 105 L 733 105 L 733 105 L 733 104 L 734 104 L 734 104 L 735 104 L 735 103 L 735 103 L 736 103 L 736 102 L 736 102 L 736 102 L 736 102 L 737 101 L 739 101 L 740 101 L 740 100 L 743 100 L 743 100 L 745 100 L 745 99 L 747 99 L 749 99 L 751 99 L 752 98 L 753 98 L 753 98 L 755 97 L 757 97 L 758 97 L 758 97 L 759 96 L 759 96 L 759 96 L 759 96 L 760 95 L 761 95 L 762 95 L 762 94 L 762 94 L 763 94 L 768 94 L 769 93 L 769 93 L 771 93 L 772 92 L 773 92 L 773 92 L 774 92 L 774 91 L 774 91 L 775 91 L 776 91 L 776 90 L 777 90 L 777 90 L 777 89 L 777 89 L 778 89 L 779 89 L 782 88 L 782 88 L 786 88 L 787 88 L 787 87 L 788 87 L 789 87 L 789 86 L 789 86 L 789 86 L 792 86 L 793 85 L 795 85 L 795 85 L 795 85 L 795 84 L 797 84 L 798 84 L 800 83 L 800 83 L 800 83 L 800 83 L 801 82 L 801 82 L 801 82 L 802 82 L 802 81 L 802 81 L 804 81 L 804 80 L 805 80 L 805 80 L 805 80 L 806 79 L 806 79 L 806 79 L 809 78 L 813 78 L 813 78 L 816 78 L 817 77 L 819 77 L 820 77 L 820 77 L 821 76 L 822 76 L 822 76 L 823 75 L 825 75 L 826 75 L 829 75 L 834 74 L 834 74 L 834 74 L 834 74 L 834 73 L 836 73 L 836 73 L 836 72 L 844 72 L 846 72 L 846 72 L 847 71 L 849 71 L 851 71 L 853 71 L 854 70 L 854 70 L 855 70 L 856 69 L 860 69 L 861 69 L 862 69 L 863 68 L 866 68 L 866 68 L 866 67 L 866 67 L 866 67 L 867 67 L 867 66 L 867 66 L 869 66 L 870 66 L 871 65 L 872 65 L 872 65 L 873 64 L 875 64 L 878 64 L 879 64 L 880 63 L 881 63 L 881 63 L 882 63 L 882 62 L 882 62 L 882 62 L 882 61 L 884 61 L 886 61 L 886 61 L 886 60 L 886 60 L 886 60 L 886 60 L 887 59 L 887 59 L 887 59 L 887 58 L 887 58 L 887 58 L 888 58 L 888 57 L 889 57 L 889 57 L 889 56 L 889 56 L 889 56 L 891 56 L 895 55 L 896 55 L 897 55 L 898 55 L 898 54 L 898 54 L 898 54 L 898 53 L 898 53 L 898 53 L 898 53 L 898 52 L 898 52 L 898 52 L 898 52 L 899 51 L 899 51 L 899 51 L 899 50 L 899 50 L 899 50 L 900 50 L 900 49 L 900 49 L 901 49 L 901 49 L 903 48 L 904 48 L 904 48 L 904 47 L 905 47 L 905 47 L 907 47 L 907 46 L 907 46 L 909 46 L 910 45 L 911 45 L 911 45 L 912 45 L 913 44 L 913 44 L 915 44 L 915 44 L 916 43 L 917 43 L 919 43 L 919 42 L 919 42 L 920 42 L 920 42 L 920 41 L 922 41 L 922 41 L 923 41 L 925 40 L 926 40 L 929 40 L 930 39 L 930 39 L 934 39 L 935 39 L 935 38 L 935 38 L 936 38 L 936 38 L 937 37 L 937 37"></path><path stroke-width="2" d="M 937 346 L 937.000000 15.000000" /><path stroke-width="2" d="M 937 346 L 937.000000 15.000000"></path><path stroke-width="2" d="M 937 346 L 942 346" /><path stroke-width="2" d="M 937 346 L 942 346"></path><text xmlns="http://www.w3.org/2000/svg" x="947" y="352">0</text><path stroke-width="2" d="M 937 307 L 942 307" /><path d="M 937 307 L 942 307" stroke-width="2"></path><text xmlns="http://www.w3.org/2000/svg" x="947" y="313">140</text><path stroke-width="2" d="M 937 271 L 942 271" /><path d="M 937 271 L 942 271" stroke-width="2"></path><text xmlns="http://www.w3.org/2000/svg" x="947" y="277">270</text><path stroke-width="2" d="M 937 236 L 942 236" /><path stroke-width="2" d="M 937 236 L 942 236"></path><text xmlns="http://www.w3.org/2000/svg" x="947" y="242">400</text><path stroke-width="2" d="M 937 197 L 942 197" /><path stroke-width="2" d="M 937 197 L 942 197"></path><text xmlns="http://www.w3.org/2000/svg" x="947" y="203">540</text><path stroke-width="2" d="M 937 161 L 942 161" /><path stroke-width="2" d="M 937 161 L 942 161"></path><text xmlns="http://www.w3.org/2000/svg" x="947" y="167">670</text><path stroke-width="2" d="M 937 126 L 942 126" /><path stroke-width="2" d="M 937 126 L 942 126"></path><text xmlns="http://www.w3.org/2000/svg" x="947" y="132">800</text><path stroke-width="2" d="M 937 87 L 942 87" /><path d="M 937 87 L 942 87" stroke-width="2"></path><text xmlns="http://www.w3.org/2000/svg" x="947" y="93">940</text><path stroke-width="2" d="M 937 51 L 942 51" /><path stroke-width="2" d="M 937 51 L 942 51"></path><text x="947" y="57" xmlns="http://www.w3.org/2000/svg">1070</text><path stroke-width="2" d="M 937 16 L 942 16" /><path stroke-width="2" d="M 937 16 L 942 16"></path><text xmlns="http://www.w3.org/2000/svg" x="947" y="22">1200</text><text xmlns="http://www.w3.org/2000/svg" x="987" y="175" transform="rotate(90.00,987,175)">Stargazers</text><path stroke-width="2" d="M 57.000000 346.000000 L 937 346" /><path stroke-width="2" d="M 57.000000 346.000000 L 937 346"></path><path stroke-width="2" d="M 58 346 L 58 351" /><path stroke-width="2" d="M 58 346 L 58 351"></path><text x="25" y="368" xmlns="http://www.w3.org/2000/svg">2023-04-02</text><path stroke-width="2" d="M 156 346 L 156 351" /><path stroke-width="2" d="M 156 346 L 156 351"></path><text xmlns="http://www.w3.org/2000/svg" x="123" y="368">2023-07-14</text><path stroke-width="2" d="M 254 346 L 254 351" /><path stroke-width="2" d="M 254 346 L 254 351"></path><text xmlns="http://www.w3.org/2000/svg" x="221" y="368">2023-10-24</text><path d="M 352 346 L 352 351" stroke-width="2" /><path stroke-width="2" d="M 352 346 L 352 351"></path><text xmlns="http://www.w3.org/2000/svg" x="319" y="368">2024-02-04</text><path stroke-width="2" d="M 449 346 L 449 351" /><path stroke-width="2" d="M 449 346 L 449 351"></path><text xmlns="http://www.w3.org/2000/svg" x="416" y="368">2024-05-17</text><path stroke-width="2" d="M 547 346 L 547 351" /><path stroke-width="2" d="M 547 346 L 547 351"></path><text xmlns="http://www.w3.org/2000/svg" x="514" y="368">2024-08-27</text><path stroke-width="2" d="M 645 346 L 645 351" /><path d="M 645 346 L 645 351" stroke-width="2"></path><text xmlns="http://www.w3.org/2000/svg" x="612" y="368">2024-12-08</text><path stroke-width="2" d="M 742 346 L 742 351" /><path stroke-width="2" d="M 742 346 L 742 351"></path><text y="368" xmlns="http://www.w3.org/2000/svg" x="709">2025-03-20</text><path stroke-width="2" d="M 840 346 L 840 351" /><path stroke-width="2" d="M 840 346 L 840 351"></path><text xmlns="http://www.w3.org/2000/svg" x="807" y="368">2025-07-01</text><path stroke-width="2" d="M 937 346 L 937 351" /><path stroke-width="2" d="M 937 346 L 937 351"></path><text y="368" xmlns="http://www.w3.org/2000/svg" x="904">2025-10-12</text><text xmlns="http://www.w3.org/2000/svg" x="483" y="390">Time</text></svg>