<svg xmlns="http://www.w3.org/2000/svg" xmlns:xlink="http://www.w3.org/1999/xlink" width="1024" height="400">\n<path  d="M 0 0
L 1024 0
L 1024 400
L 0 400
L 0 0" style="stroke-width:0;stroke:rgba(255,255,255,1.0);fill:rgba(255,255,255,1.0)"/><path  d="M 38 11
L 965 11
L 965 351
L 38 351
L 38 11" style="stroke-width:0;stroke:rgba(255,255,255,1.0);fill:rgba(255,255,255,1.0)"/><path  d="M 38 351
L 965 351" style="stroke-width:2;stroke:rgba(85,85,85,1.0);fill:none"/><path  d="M 38 351
L 38 356" style="stroke-width:2;stroke:rgba(85,85,85,1.0);fill:none"/><text x="5" y="373" style="stroke-width:0;stroke:none;fill:rgba(51,51,51,1.0);font-size:12.8px;font-family:'Roboto Medium',sans-serif">2023-04-02</text><path  d="M 154 351
L 154 356" style="stroke-width:2;stroke:rgba(85,85,85,1.0);fill:none"/><text x="121" y="373" style="stroke-width:0;stroke:none;fill:rgba(51,51,51,1.0);font-size:12.8px;font-family:'Roboto Medium',sans-serif">2023-04-28</text><path  d="M 270 351
L 270 356" style="stroke-width:2;stroke:rgba(85,85,85,1.0);fill:none"/><text x="237" y="373" style="stroke-width:0;stroke:none;fill:rgba(51,51,51,1.0);font-size:12.8px;font-family:'Roboto Medium',sans-serif">2023-05-24</text><path  d="M 386 351
L 386 356" style="stroke-width:2;stroke:rgba(85,85,85,1.0);fill:none"/><text x="353" y="373" style="stroke-width:0;stroke:none;fill:rgba(51,51,51,1.0);font-size:12.8px;font-family:'Roboto Medium',sans-serif">2023-06-19</text><path  d="M 502 351
L 502 356" style="stroke-width:2;stroke:rgba(85,85,85,1.0);fill:none"/><text x="469" y="373" style="stroke-width:0;stroke:none;fill:rgba(51,51,51,1.0);font-size:12.8px;font-family:'Roboto Medium',sans-serif">2023-07-15</text><path  d="M 618 351
L 618 356" style="stroke-width:2;stroke:rgba(85,85,85,1.0);fill:none"/><text x="585" y="373" style="stroke-width:0;stroke:none;fill:rgba(51,51,51,1.0);font-size:12.8px;font-family:'Roboto Medium',sans-serif">2023-08-10</text><path  d="M 734 351
L 734 356" style="stroke-width:2;stroke:rgba(85,85,85,1.0);fill:none"/><text x="701" y="373" style="stroke-width:0;stroke:none;fill:rgba(51,51,51,1.0);font-size:12.8px;font-family:'Roboto Medium',sans-serif">2023-09-04</text><path  d="M 850 351
L 850 356" style="stroke-width:2;stroke:rgba(85,85,85,1.0);fill:none"/><text x="817" y="373" style="stroke-width:0;stroke:none;fill:rgba(51,51,51,1.0);font-size:12.8px;font-family:'Roboto Medium',sans-serif">2023-09-30</text><path  d="M 965 351
L 965 356" style="stroke-width:2;stroke:rgba(85,85,85,1.0);fill:none"/><text x="932" y="373" style="stroke-width:0;stroke:none;fill:rgba(51,51,51,1.0);font-size:12.8px;font-family:'Roboto Medium',sans-serif">2023-10-26</text><text x="487" y="395" style="stroke-width:0;stroke:none;fill:rgba(51,51,51,1.0);font-size:12.8px;font-family:'Roboto Medium',sans-serif">Time</text><path  d="M 967 351
L 967 11" style="stroke-width:2;stroke:rgba(85,85,85,1.0);fill:none"/><path  d="M 967 351
L 972 351" style="stroke-width:2;stroke:rgba(85,85,85,1.0);fill:none"/><text x="977" y="357" style="stroke-width:0;stroke:none;fill:rgba(51,51,51,1.0);font-size:12.8px;font-family:'Roboto Medium',sans-serif">0</text><path  d="M 967 308
L 972 308" style="stroke-width:2;stroke:rgba(85,85,85,1.0);fill:none"/><text x="977" y="314" style="stroke-width:0;stroke:none;fill:rgba(51,51,51,1.0);font-size:12.8px;font-family:'Roboto Medium',sans-serif">35</text><path  d="M 967 266
L 972 266" style="stroke-width:2;stroke:rgba(85,85,85,1.0);fill:none"/><text x="977" y="272" style="stroke-width:0;stroke:none;fill:rgba(51,51,51,1.0);font-size:12.8px;font-family:'Roboto Medium',sans-serif">70</text><path  d="M 967 223
L 972 223" style="stroke-width:2;stroke:rgba(85,85,85,1.0);fill:none"/><text x="977" y="229" style="stroke-width:0;stroke:none;fill:rgba(51,51,51,1.0);font-size:12.8px;font-family:'Roboto Medium',sans-serif">105</text><path  d="M 967 181
L 972 181" style="stroke-width:2;stroke:rgba(85,85,85,1.0);fill:none"/><text x="977" y="187" style="stroke-width:0;stroke:none;fill:rgba(51,51,51,1.0);font-size:12.8px;font-family:'Roboto Medium',sans-serif">140</text><path  d="M 967 138
L 972 138" style="stroke-width:2;stroke:rgba(85,85,85,1.0);fill:none"/><text x="977" y="144" style="stroke-width:0;stroke:none;fill:rgba(51,51,51,1.0);font-size:12.8px;font-family:'Roboto Medium',sans-serif">175</text><path  d="M 967 96
L 972 96" style="stroke-width:2;stroke:rgba(85,85,85,1.0);fill:none"/><text x="977" y="102" style="stroke-width:0;stroke:none;fill:rgba(51,51,51,1.0);font-size:12.8px;font-family:'Roboto Medium',sans-serif">210</text><path  d="M 967 53
L 972 53" style="stroke-width:2;stroke:rgba(85,85,85,1.0);fill:none"/><text x="977" y="59" style="stroke-width:0;stroke:none;fill:rgba(51,51,51,1.0);font-size:12.8px;font-family:'Roboto Medium',sans-serif">245</text><path  d="M 967 11
L 972 11" style="stroke-width:2;stroke:rgba(85,85,85,1.0);fill:none"/><text x="977" y="17" style="stroke-width:0;stroke:none;fill:rgba(51,51,51,1.0);font-size:12.8px;font-family:'Roboto Medium',sans-serif">280</text><text x="1009" y="150" style="stroke-width:0;stroke:none;fill:rgba(51,51,51,1.0);font-size:12.8px;font-family:'Roboto Medium',sans-serif" transform="rotate(90.00,1009,150)">Stargazers</text><path  d="M 38 351
L 47 349
L 101 348
L 102 347
L 102 346
L 102 344
L 102 343
L 102 342
L 102 341
L 102 340
L 104 338
L 104 337
L 104 336
L 104 335
L 104 334
L 104 332
L 105 331
L 105 330
L 106 329
L 106 327
L 109 326
L 110 325
L 111 324
L 115 323
L 117 321
L 117 320
L 117 319
L 119 318
L 120 317
L 123 315
L 128 314
L 129 313
L 133 312
L 137 310
L 154 309
L 154 308
L 154 307
L 154 306
L 154 304
L 155 303
L 155 302
L 165 301
L 169 300
L 172 298
L 180 297
L 194 296
L 199 295
L 223 293
L 231 292
L 243 291
L 257 290
L 263 289
L 314 287
L 316 286
L 317 285
L 323 284
L 325 283
L 325 281
L 325 280
L 325 279
L 325 278
L 325 276
L 325 275
L 325 274
L 325 273
L 325 272
L 325 270
L 326 269
L 327 268
L 327 267
L 327 266
L 327 264
L 327 263
L 328 262
L 328 261
L 328 259
L 328 258
L 328 257
L 328 256
L 328 255
L 328 253
L 328 252
L 328 251
L 328 250
L 328 249
L 328 247
L 328 246
L 328 245
L 328 244
L 328 242
L 328 241
L 328 240
L 328 239
L 329 238
L 329 236
L 329 235
L 329 234
L 329 233
L 329 232
L 329 230
L 329 229
L 330 228
L 330 227
L 331 225
L 332 224
L 332 223
L 332 222
L 333 221
L 334 219
L 336 218
L 336 217
L 336 216
L 337 215
L 337 213
L 337 212
L 337 211
L 337 210
L 337 208
L 337 207
L 337 206
L 337 205
L 337 204
L 337 202
L 337 201
L 337 200
L 338 199
L 339 198
L 342 196
L 342 195
L 343 194
L 343 193
L 355 191
L 355 190
L 356 189
L 360 188
L 360 187
L 368 185
L 377 184
L 379 183
L 386 182
L 389 181
L 394 179
L 396 178
L 397 177
L 405 176
L 406 174
L 409 173
L 413 172
L 414 171
L 418 170
L 418 168
L 419 167
L 420 166
L 424 165
L 428 163
L 428 162
L 430 161
L 432 160
L 432 159
L 435 157
L 441 156
L 445 155
L 452 154
L 455 153
L 458 151
L 462 150
L 462 149
L 462 148
L 468 147
L 490 145
L 490 144
L 494 143
L 515 142
L 515 140
L 515 139
L 516 138
L 517 137
L 520 136
L 526 134
L 530 133
L 531 132
L 556 131
L 561 130
L 566 128
L 574 127
L 579 126
L 580 125
L 583 123
L 601 122
L 620 121
L 643 120
L 645 119
L 645 117
L 646 116
L 647 115
L 652 114
L 682 113
L 696 111
L 696 110
L 708 109
L 710 108
L 712 106
L 745 105
L 745 104
L 748 103
L 749 102
L 753 100
L 762 99
L 766 98
L 773 97
L 777 96
L 785 94
L 803 93
L 804 92
L 808 91
L 808 89
L 809 88
L 810 87
L 820 86
L 820 85
L 839 83
L 866 82
L 880 81
L 896 80
L 897 79
L 904 77
L 905 76
L 910 75
L 915 74
L 915 72
L 915 71
L 915 70
L 915 69
L 915 68
L 915 66
L 915 65
L 916 64
L 916 63
L 916 62
L 916 60
L 917 59
L 918 58
L 919 57
L 921 55
L 925 54
L 927 53
L 927 52
L 928 51
L 928 49
L 933 48
L 933 47
L 933 46
L 933 45
L 933 43
L 933 42
L 933 41
L 937 40
L 937 38
L 939 37
L 940 36
L 941 35
L 941 34
L 942 32
L 942 31
L 945 30
L 946 29
L 946 28
L 946 26
L 949 25
L 950 24
L 951 23
L 954 21
L 958 20
L 960 19
L 965 18" style="stroke-width:2;stroke:rgba(129,199,239,1.0);fill:none"/></svg>