<svg xmlns="http://www.w3.org/2000/svg" xmlns:xlink="http://www.w3.org/1999/xlink" width="1024px" height="400px"><style type="text/css">
path { fill: none; stroke: rgb(51,51,51); }
path.series { stroke: #6b63ff; }
rect.background { fill: rgb(255,255,255); stroke: none; }

text {
	stroke-width: 0;
	stroke: none;
	fill: rgba(51,51,51,1.0);
	font-size: 12.8px;
	font-family: 'Roboto Medium', sans-serif;
}
</style><rect height="400px" class="background" rx="8" x="0" y="0" width="1024px" /><rect class="background" rx="8" x="0" y="0" width="1024px" height="400px"></rect><path stroke-width="2" class="series" d="M 58 345 L 60 345 L 71 345 L 71 344 L 71 344 L 71 344 L 71 344 L 71 343 L 71 343 L 71 343 L 71 342 L 71 342 L 71 342 L 71 342 L 71 341 L 71 341 L 72 341 L 72 341 L 72 340 L 72 340 L 73 340 L 73 339 L 73 339 L 74 339 L 74 339 L 74 338 L 74 338 L 75 338 L 76 338 L 76 337 L 77 337 L 78 337 L 81 336 L 81 336 L 81 336 L 81 336 L 81 335 L 83 335 L 84 335 L 85 335 L 86 334 L 89 334 L 90 334 L 95 333 L 96 333 L 99 333 L 101 333 L 103 332 L 113 332 L 113 332 L 114 331 L 115 331 L 115 331 L 115 331 L 115 330 L 115 330 L 115 330 L 115 330 L 115 329 L 115 329 L 115 329 L 115 328 L 115 328 L 115 328 L 115 328 L 115 327 L 115 327 L 115 327 L 115 327 L 115 326 L 115 326 L 115 326 L 115 325 L 115 325 L 115 325 L 115 325 L 115 324 L 115 324 L 115 324 L 115 324 L 115 323 L 115 323 L 115 323 L 115 322 L 115 322 L 115 322 L 115 322 L 115 321 L 115 321 L 115 321 L 115 320 L 116 320 L 116 320 L 116 320 L 116 319 L 116 319 L 116 319 L 116 319 L 116 318 L 116 318 L 116 318 L 116 317 L 116 317 L 117 317 L 117 317 L 117 316 L 117 316 L 117 316 L 117 316 L 117 315 L 117 315 L 117 315 L 117 314 L 117 314 L 117 314 L 117 314 L 117 313 L 117 313 L 117 313 L 117 313 L 117 312 L 117 312 L 118 312 L 118 311 L 118 311 L 118 311 L 121 311 L 121 310 L 121 310 L 122 310 L 122 309 L 123 309 L 125 309 L 125 309 L 127 308 L 127 308 L 128 308 L 129 308 L 129 307 L 131 307 L 131 307 L 131 306 L 132 306 L 132 306 L 133 306 L 133 305 L 133 305 L 133 305 L 134 305 L 135 304 L 135 304 L 135 304 L 136 303 L 136 303 L 136 303 L 138 303 L 138 302 L 140 302 L 140 302 L 141 302 L 142 301 L 142 301 L 142 301 L 143 300 L 147 300 L 147 300 L 148 300 L 152 299 L 152 299 L 152 299 L 152 298 L 152 298 L 153 298 L 154 298 L 155 297 L 155 297 L 160 297 L 161 297 L 162 296 L 164 296 L 165 296 L 165 295 L 166 295 L 169 295 L 173 295 L 177 294 L 178 294 L 178 294 L 178 294 L 178 293 L 185 293 L 188 293 L 188 292 L 190 292 L 190 292 L 191 292 L 197 291 L 197 291 L 198 291 L 198 291 L 199 290 L 201 290 L 203 290 L 204 289 L 205 289 L 209 289 L 209 289 L 210 288 L 210 288 L 210 288 L 210 287 L 212 287 L 216 287 L 224 287 L 227 286 L 229 286 L 229 286 L 231 286 L 231 285 L 231 285 L 231 285 L 231 284 L 231 284 L 231 284 L 231 284 L 231 283 L 231 283 L 231 283 L 231 283 L 231 282 L 231 282 L 232 282 L 233 281 L 233 281 L 233 281 L 233 281 L 234 280 L 234 280 L 234 280 L 234 280 L 234 279 L 234 279 L 234 279 L 235 278 L 235 278 L 236 278 L 236 278 L 236 277 L 236 277 L 236 277 L 237 276 L 237 276 L 237 276 L 237 276 L 238 275 L 238 275 L 238 275 L 239 275 L 240 274 L 241 274 L 242 274 L 242 273 L 243 273 L 243 273 L 243 273 L 243 272 L 243 272 L 244 272 L 244 272 L 246 271 L 246 271 L 246 271 L 247 270 L 248 270 L 248 270 L 250 270 L 251 269 L 251 269 L 251 269 L 251 269 L 254 268 L 255 268 L 255 268 L 258 267 L 259 267 L 261 267 L 262 267 L 262 266 L 263 266 L 263 266 L 263 265 L 265 265 L 267 265 L 268 265 L 268 264 L 269 264 L 269 264 L 269 264 L 270 263 L 270 263 L 270 263 L 270 262 L 271 262 L 271 262 L 271 262 L 272 261 L 275 261 L 278 261 L 278 261 L 278 260 L 281 260 L 282 260 L 282 259 L 282 259 L 283 259 L 284 259 L 284 258 L 284 258 L 284 258 L 284 258 L 284 257 L 284 257 L 285 257 L 285 256 L 285 256 L 287 256 L 287 256 L 287 255 L 287 255 L 287 255 L 287 254 L 287 254 L 287 254 L 288 254 L 288 253 L 288 253 L 288 253 L 290 253 L 292 252 L 292 252 L 293 252 L 300 251 L 301 251 L 303 251 L 305 251 L 310 250 L 312 250 L 312 250 L 312 250 L 312 249 L 312 249 L 312 249 L 312 248 L 313 248 L 314 248 L 319 248 L 321 247 L 323 247 L 327 247 L 330 247 L 332 246 L 334 246 L 337 246 L 337 245 L 344 245 L 350 245 L 350 245 L 354 244 L 355 244 L 358 244 L 359 243 L 361 243 L 361 243 L 361 243 L 361 242 L 363 242 L 364 242 L 366 242 L 368 241 L 369 241 L 370 241 L 370 240 L 372 240 L 375 240 L 375 240 L 377 239 L 380 239 L 381 239 L 381 239 L 382 238 L 383 238 L 383 238 L 385 237 L 387 237 L 389 237 L 390 237 L 391 236 L 394 236 L 395 236 L 396 236 L 399 235 L 400 235 L 403 235 L 403 234 L 403 234 L 404 234 L 405 234 L 406 233 L 406 233 L 408 233 L 410 232 L 410 232 L 411 232 L 411 232 L 416 231 L 416 231 L 417 231 L 417 231 L 417 230 L 418 230 L 418 230 L 418 229 L 418 229 L 420 229 L 420 229 L 421 228 L 421 228 L 421 228 L 422 228 L 422 227 L 422 227 L 423 227 L 423 226 L 423 226 L 424 226 L 424 226 L 424 225 L 424 225 L 425 225 L 426 225 L 426 224 L 426 224 L 427 224 L 427 223 L 428 223 L 428 223 L 429 223 L 429 222 L 430 222 L 431 222 L 431 221 L 431 221 L 433 221 L 433 221 L 433 220 L 433 220 L 434 220 L 434 220 L 434 219 L 434 219 L 434 219 L 435 218 L 437 218 L 438 218 L 439 218 L 439 217 L 441 217 L 442 217 L 442 217 L 443 216 L 445 216 L 447 216 L 449 215 L 449 215 L 449 215 L 449 215 L 449 214 L 450 214 L 450 214 L 450 214 L 451 213 L 451 213 L 451 213 L 451 212 L 452 212 L 453 212 L 453 212 L 454 211 L 454 211 L 456 211 L 456 210 L 456 210 L 457 210 L 457 210 L 459 209 L 463 209 L 463 209 L 463 209 L 464 208 L 465 208 L 467 208 L 467 207 L 467 207 L 467 207 L 467 207 L 468 206 L 471 206 L 471 206 L 471 206 L 471 205 L 472 205 L 473 205 L 473 204 L 473 204 L 475 204 L 477 204 L 477 203 L 480 203 L 480 203 L 481 203 L 483 202 L 484 202 L 486 202 L 487 201 L 488 201 L 489 201 L 489 201 L 490 200 L 490 200 L 490 200 L 490 199 L 491 199 L 491 199 L 491 199 L 491 198 L 491 198 L 491 198 L 492 198 L 493 197 L 493 197 L 497 197 L 497 196 L 500 196 L 502 196 L 502 196 L 503 195 L 503 195 L 505 195 L 506 195 L 506 194 L 506 194 L 506 194 L 506 193 L 507 193 L 507 193 L 507 193 L 507 192 L 507 192 L 507 192 L 507 192 L 508 191 L 508 191 L 509 191 L 509 190 L 510 190 L 510 190 L 511 190 L 511 189 L 511 189 L 512 189 L 512 188 L 514 188 L 514 188 L 514 188 L 515 187 L 515 187 L 515 187 L 515 187 L 515 186 L 516 186 L 518 186 L 519 185 L 522 185 L 522 185 L 523 185 L 526 184 L 528 184 L 529 184 L 530 184 L 533 183 L 533 183 L 534 183 L 537 182 L 538 182 L 538 182 L 539 182 L 539 181 L 545 181 L 545 181 L 546 181 L 546 180 L 546 180 L 547 180 L 548 179 L 548 179 L 548 179 L 549 179 L 549 178 L 549 178 L 549 178 L 549 177 L 549 177 L 550 177 L 550 177 L 550 176 L 550 176 L 551 176 L 552 176 L 553 175 L 553 175 L 553 175 L 554 174 L 554 174 L 555 174 L 555 174 L 556 173 L 556 173 L 556 173 L 556 173 L 557 172 L 557 172 L 558 172 L 558 171 L 559 171 L 560 171 L 560 171 L 560 170 L 560 170 L 560 170 L 561 170 L 561 169 L 561 169 L 562 169 L 562 168 L 563 168 L 563 168 L 563 168 L 563 167 L 563 167 L 564 167 L 564 166 L 564 166 L 564 166 L 565 166 L 565 165 L 565 165 L 566 165 L 566 165 L 566 164 L 566 164 L 566 164 L 566 163 L 567 163 L 567 163 L 567 163 L 567 162 L 567 162 L 569 162 L 570 162 L 571 161 L 571 161 L 571 161 L 571 160 L 572 160 L 573 160 L 573 160 L 574 159 L 576 159 L 578 159 L 578 159 L 579 158 L 579 158 L 579 158 L 580 157 L 580 157 L 580 157 L 580 157 L 581 156 L 581 156 L 581 156 L 581 155 L 581 155 L 581 155 L 581 155 L 581 154 L 581 154 L 582 154 L 582 154 L 582 153 L 582 153 L 583 153 L 584 152 L 585 152 L 585 152 L 585 152 L 586 151 L 586 151 L 586 151 L 589 151 L 589 150 L 589 150 L 589 150 L 589 149 L 591 149 L 592 149 L 593 149 L 594 148 L 594 148 L 594 148 L 594 148 L 595 147 L 598 147 L 600 147 L 602 146 L 603 146 L 604 146 L 605 146 L 605 145 L 606 145 L 606 145 L 606 144 L 606 144 L 607 144 L 607 144 L 607 143 L 608 143 L 610 143 L 610 143 L 610 142 L 610 142 L 610 142 L 610 141 L 610 141 L 610 141 L 610 141 L 610 140 L 610 140 L 610 140 L 610 140 L 610 139 L 610 139 L 610 139 L 610 138 L 611 138 L 611 138 L 611 138 L 611 137 L 611 137 L 611 137 L 611 137 L 612 136 L 612 136 L 612 136 L 613 135 L 613 135 L 613 135 L 613 135 L 613 134 L 613 134 L 614 134 L 615 133 L 616 133 L 616 133 L 616 133 L 617 132 L 617 132 L 618 132 L 618 132 L 620 131 L 621 131 L 621 131 L 621 130 L 621 130 L 621 130 L 621 130 L 621 129 L 621 129 L 623 129 L 623 129 L 623 128 L 626 128 L 627 128 L 628 127 L 630 127 L 631 127 L 632 127 L 632 126 L 632 126 L 632 126 L 632 126 L 633 125 L 633 125 L 634 125 L 634 124 L 634 124 L 634 124 L 634 124 L 635 123 L 635 123 L 635 123 L 635 122 L 635 122 L 635 122 L 635 122 L 636 121 L 637 121 L 637 121 L 637 121 L 638 120 L 638 120 L 638 120 L 638 119 L 639 119 L 639 119 L 639 119 L 640 118 L 640 118 L 641 118 L 644 118 L 645 117 L 647 117 L 648 117 L 649 116 L 651 116 L 651 116 L 652 116 L 654 115 L 658 115 L 658 115 L 660 115 L 661 114 L 663 114 L 663 114 L 663 113 L 665 113 L 665 113 L 666 113 L 666 112 L 667 112 L 668 112 L 669 111 L 669 111 L 669 111 L 670 111 L 670 110 L 670 110 L 673 110 L 673 110 L 674 109 L 675 109 L 675 109 L 676 108 L 677 108 L 678 108 L 678 108 L 678 107 L 678 107 L 679 107 L 679 107 L 679 106 L 680 106 L 681 106 L 681 105 L 681 105 L 682 105 L 683 105 L 683 104 L 683 104 L 683 104 L 684 104 L 684 103 L 684 103 L 684 103 L 684 102 L 685 102 L 686 102 L 688 102 L 688 101 L 690 101 L 691 101 L 692 100 L 693 100 L 695 100 L 696 100 L 698 99 L 699 99 L 700 99 L 700 99 L 701 98 L 703 98 L 705 98 L 705 97 L 705 97 L 705 97 L 705 97 L 705 96 L 706 96 L 707 96 L 708 96 L 708 95 L 708 95 L 708 95 L 713 94 L 714 94 L 715 94 L 716 94 L 718 93 L 718 93 L 718 93 L 719 92 L 719 92 L 719 92 L 720 92 L 721 91 L 721 91 L 721 91 L 722 91 L 722 90 L 722 90 L 723 90 L 724 89 L 726 89 L 727 89 L 731 89 L 731 88 L 731 88 L 732 88 L 733 88 L 733 87 L 733 87 L 733 87 L 736 86 L 737 86 L 738 86 L 738 86 L 738 85 L 739 85 L 740 85 L 741 85 L 743 84 L 743 84 L 743 84 L 743 83 L 744 83 L 744 83 L 744 83 L 745 82 L 745 82 L 745 82 L 746 82 L 747 81 L 748 81 L 748 81 L 748 80 L 748 80 L 749 80 L 749 80 L 752 79 L 755 79 L 755 79 L 758 78 L 759 78 L 761 78 L 761 78 L 762 77 L 762 77 L 763 77 L 764 77 L 765 76 L 767 76 L 767 76 L 770 75 L 774 75 L 774 75 L 774 75 L 774 74 L 775 74 L 776 74 L 776 74 L 776 73 L 783 73 L 786 73 L 786 72 L 787 72 L 788 72 L 790 72 L 792 71 L 793 71 L 793 71 L 794 71 L 795 70 L 799 70 L 800 70 L 801 69 L 802 69 L 804 69 L 804 69 L 804 68 L 804 68 L 805 68 L 805 67 L 805 67 L 807 67 L 809 67 L 809 66 L 809 66 L 810 66 L 812 66 L 815 65 L 816 65 L 817 65 L 818 64 L 818 64 L 818 64 L 818 64 L 818 63 L 819 63 L 819 63 L 821 63 L 822 62 L 822 62 L 823 62 L 823 61 L 823 61 L 823 61 L 823 61 L 823 60 L 823 60 L 824 60 L 824 60 L 824 59 L 824 59 L 825 59 L 825 58 L 825 58 L 825 58 L 826 58 L 826 57 L 827 57 L 831 57 L 832 56 L 833 56 L 833 56 L 833 56 L 833 55 L 834 55 L 834 55 L 834 55 L 834 54 L 834 54 L 834 54 L 834 53 L 834 53 L 834 53 L 834 53 L 834 52 L 834 52 L 834 52 L 834 52 L 835 51 L 835 51 L 835 51 L 836 50 L 837 50 L 837 50 L 838 50 L 839 49 L 839 49 L 840 49 L 840 49 L 840 48 L 842 48 L 842 48 L 842 47 L 844 47 L 845 47 L 845 47 L 846 46 L 846 46 L 847 46 L 847 45 L 849 45 L 849 45 L 850 45 L 851 44 L 853 44 L 853 44 L 853 44 L 853 43 L 854 43 L 854 43 L 855 42 L 856 42 L 857 42 L 859 42 L 862 41 L 863 41 L 863 41 L 867 41 L 867 40 L 868 40 L 868 40 L 868 39 L 868 39 L 869 39 L 870 39 L 871 38 L 872 38 L 872 38 L 872 38 L 872 37 L 873 37 L 873 37 L 877 36 L 877 36 L 878 36 L 879 36 L 880 35 L 881 35 L 886 35 L 887 34 L 887 34 L 888 34 L 888 34 L 889 33 L 890 33 L 891 33 L 891 33 L 891 32 L 891 32 L 891 32 L 895 31 L 896 31 L 897 31 L 899 31 L 900 30 L 900 30 L 901 30 L 901 30 L 901 29 L 902 29 L 902 29 L 904 28 L 904 28 L 906 28 L 906 28 L 906 27 L 906 27 L 909 27 L 910 27 L 911 26 L 911 26 L 912 26 L 916 25 L 919 25 L 923 25 L 923 25 L 925 24 L 927 24 L 927 24 L 928 23 L 928 23 L 930 23 L 931 23 L 931 22 L 932 22 L 932 22 L 932 22 L 932 21 L 933 21 L 934 21 L 934 20 L 934 20 L 935 20 L 936 20 L 936 19 L 936 19 L 937 19 L 937 19" /><path class="series" d="M 58 345 L 60 345 L 71 345 L 71 344 L 71 344 L 71 344 L 71 344 L 71 343 L 71 343 L 71 343 L 71 342 L 71 342 L 71 342 L 71 342 L 71 341 L 71 341 L 72 341 L 72 341 L 72 340 L 72 340 L 73 340 L 73 339 L 73 339 L 74 339 L 74 339 L 74 338 L 74 338 L 75 338 L 76 338 L 76 337 L 77 337 L 78 337 L 81 336 L 81 336 L 81 336 L 81 336 L 81 335 L 83 335 L 84 335 L 85 335 L 86 334 L 89 334 L 90 334 L 95 333 L 96 333 L 99 333 L 101 333 L 103 332 L 113 332 L 113 332 L 114 331 L 115 331 L 115 331 L 115 331 L 115 330 L 115 330 L 115 330 L 115 330 L 115 329 L 115 329 L 115 329 L 115 328 L 115 328 L 115 328 L 115 328 L 115 327 L 115 327 L 115 327 L 115 327 L 115 326 L 115 326 L 115 326 L 115 325 L 115 325 L 115 325 L 115 325 L 115 324 L 115 324 L 115 324 L 115 324 L 115 323 L 115 323 L 115 323 L 115 322 L 115 322 L 115 322 L 115 322 L 115 321 L 115 321 L 115 321 L 115 320 L 116 320 L 116 320 L 116 320 L 116 319 L 116 319 L 116 319 L 116 319 L 116 318 L 116 318 L 116 318 L 116 317 L 116 317 L 117 317 L 117 317 L 117 316 L 117 316 L 117 316 L 117 316 L 117 315 L 117 315 L 117 315 L 117 314 L 117 314 L 117 314 L 117 314 L 117 313 L 117 313 L 117 313 L 117 313 L 117 312 L 117 312 L 118 312 L 118 311 L 118 311 L 118 311 L 121 311 L 121 310 L 121 310 L 122 310 L 122 309 L 123 309 L 125 309 L 125 309 L 127 308 L 127 308 L 128 308 L 129 308 L 129 307 L 131 307 L 131 307 L 131 306 L 132 306 L 132 306 L 133 306 L 133 305 L 133 305 L 133 305 L 134 305 L 135 304 L 135 304 L 135 304 L 136 303 L 136 303 L 136 303 L 138 303 L 138 302 L 140 302 L 140 302 L 141 302 L 142 301 L 142 301 L 142 301 L 143 300 L 147 300 L 147 300 L 148 300 L 152 299 L 152 299 L 152 299 L 152 298 L 152 298 L 153 298 L 154 298 L 155 297 L 155 297 L 160 297 L 161 297 L 162 296 L 164 296 L 165 296 L 165 295 L 166 295 L 169 295 L 173 295 L 177 294 L 178 294 L 178 294 L 178 294 L 178 293 L 185 293 L 188 293 L 188 292 L 190 292 L 190 292 L 191 292 L 197 291 L 197 291 L 198 291 L 198 291 L 199 290 L 201 290 L 203 290 L 204 289 L 205 289 L 209 289 L 209 289 L 210 288 L 210 288 L 210 288 L 210 287 L 212 287 L 216 287 L 224 287 L 227 286 L 229 286 L 229 286 L 231 286 L 231 285 L 231 285 L 231 285 L 231 284 L 231 284 L 231 284 L 231 284 L 231 283 L 231 283 L 231 283 L 231 283 L 231 282 L 231 282 L 232 282 L 233 281 L 233 281 L 233 281 L 233 281 L 234 280 L 234 280 L 234 280 L 234 280 L 234 279 L 234 279 L 234 279 L 235 278 L 235 278 L 236 278 L 236 278 L 236 277 L 236 277 L 236 277 L 237 276 L 237 276 L 237 276 L 237 276 L 238 275 L 238 275 L 238 275 L 239 275 L 240 274 L 241 274 L 242 274 L 242 273 L 243 273 L 243 273 L 243 273 L 243 272 L 243 272 L 244 272 L 244 272 L 246 271 L 246 271 L 246 271 L 247 270 L 248 270 L 248 270 L 250 270 L 251 269 L 251 269 L 251 269 L 251 269 L 254 268 L 255 268 L 255 268 L 258 267 L 259 267 L 261 267 L 262 267 L 262 266 L 263 266 L 263 266 L 263 265 L 265 265 L 267 265 L 268 265 L 268 264 L 269 264 L 269 264 L 269 264 L 270 263 L 270 263 L 270 263 L 270 262 L 271 262 L 271 262 L 271 262 L 272 261 L 275 261 L 278 261 L 278 261 L 278 260 L 281 260 L 282 260 L 282 259 L 282 259 L 283 259 L 284 259 L 284 258 L 284 258 L 284 258 L 284 258 L 284 257 L 284 257 L 285 257 L 285 256 L 285 256 L 287 256 L 287 256 L 287 255 L 287 255 L 287 255 L 287 254 L 287 254 L 287 254 L 288 254 L 288 253 L 288 253 L 288 253 L 290 253 L 292 252 L 292 252 L 293 252 L 300 251 L 301 251 L 303 251 L 305 251 L 310 250 L 312 250 L 312 250 L 312 250 L 312 249 L 312 249 L 312 249 L 312 248 L 313 248 L 314 248 L 319 248 L 321 247 L 323 247 L 327 247 L 330 247 L 332 246 L 334 246 L 337 246 L 337 245 L 344 245 L 350 245 L 350 245 L 354 244 L 355 244 L 358 244 L 359 243 L 361 243 L 361 243 L 361 243 L 361 242 L 363 242 L 364 242 L 366 242 L 368 241 L 369 241 L 370 241 L 370 240 L 372 240 L 375 240 L 375 240 L 377 239 L 380 239 L 381 239 L 381 239 L 382 238 L 383 238 L 383 238 L 385 237 L 387 237 L 389 237 L 390 237 L 391 236 L 394 236 L 395 236 L 396 236 L 399 235 L 400 235 L 403 235 L 403 234 L 403 234 L 404 234 L 405 234 L 406 233 L 406 233 L 408 233 L 410 232 L 410 232 L 411 232 L 411 232 L 416 231 L 416 231 L 417 231 L 417 231 L 417 230 L 418 230 L 418 230 L 418 229 L 418 229 L 420 229 L 420 229 L 421 228 L 421 228 L 421 228 L 422 228 L 422 227 L 422 227 L 423 227 L 423 226 L 423 226 L 424 226 L 424 226 L 424 225 L 424 225 L 425 225 L 426 225 L 426 224 L 426 224 L 427 224 L 427 223 L 428 223 L 428 223 L 429 223 L 429 222 L 430 222 L 431 222 L 431 221 L 431 221 L 433 221 L 433 221 L 433 220 L 433 220 L 434 220 L 434 220 L 434 219 L 434 219 L 434 219 L 435 218 L 437 218 L 438 218 L 439 218 L 439 217 L 441 217 L 442 217 L 442 217 L 443 216 L 445 216 L 447 216 L 449 215 L 449 215 L 449 215 L 449 215 L 449 214 L 450 214 L 450 214 L 450 214 L 451 213 L 451 213 L 451 213 L 451 212 L 452 212 L 453 212 L 453 212 L 454 211 L 454 211 L 456 211 L 456 210 L 456 210 L 457 210 L 457 210 L 459 209 L 463 209 L 463 209 L 463 209 L 464 208 L 465 208 L 467 208 L 467 207 L 467 207 L 467 207 L 467 207 L 468 206 L 471 206 L 471 206 L 471 206 L 471 205 L 472 205 L 473 205 L 473 204 L 473 204 L 475 204 L 477 204 L 477 203 L 480 203 L 480 203 L 481 203 L 483 202 L 484 202 L 486 202 L 487 201 L 488 201 L 489 201 L 489 201 L 490 200 L 490 200 L 490 200 L 490 199 L 491 199 L 491 199 L 491 199 L 491 198 L 491 198 L 491 198 L 492 198 L 493 197 L 493 197 L 497 197 L 497 196 L 500 196 L 502 196 L 502 196 L 503 195 L 503 195 L 505 195 L 506 195 L 506 194 L 506 194 L 506 194 L 506 193 L 507 193 L 507 193 L 507 193 L 507 192 L 507 192 L 507 192 L 507 192 L 508 191 L 508 191 L 509 191 L 509 190 L 510 190 L 510 190 L 511 190 L 511 189 L 511 189 L 512 189 L 512 188 L 514 188 L 514 188 L 514 188 L 515 187 L 515 187 L 515 187 L 515 187 L 515 186 L 516 186 L 518 186 L 519 185 L 522 185 L 522 185 L 523 185 L 526 184 L 528 184 L 529 184 L 530 184 L 533 183 L 533 183 L 534 183 L 537 182 L 538 182 L 538 182 L 539 182 L 539 181 L 545 181 L 545 181 L 546 181 L 546 180 L 546 180 L 547 180 L 548 179 L 548 179 L 548 179 L 549 179 L 549 178 L 549 178 L 549 178 L 549 177 L 549 177 L 550 177 L 550 177 L 550 176 L 550 176 L 551 176 L 552 176 L 553 175 L 553 175 L 553 175 L 554 174 L 554 174 L 555 174 L 555 174 L 556 173 L 556 173 L 556 173 L 556 173 L 557 172 L 557 172 L 558 172 L 558 171 L 559 171 L 560 171 L 560 171 L 560 170 L 560 170 L 560 170 L 561 170 L 561 169 L 561 169 L 562 169 L 562 168 L 563 168 L 563 168 L 563 168 L 563 167 L 563 167 L 564 167 L 564 166 L 564 166 L 564 166 L 565 166 L 565 165 L 565 165 L 566 165 L 566 165 L 566 164 L 566 164 L 566 164 L 566 163 L 567 163 L 567 163 L 567 163 L 567 162 L 567 162 L 569 162 L 570 162 L 571 161 L 571 161 L 571 161 L 571 160 L 572 160 L 573 160 L 573 160 L 574 159 L 576 159 L 578 159 L 578 159 L 579 158 L 579 158 L 579 158 L 580 157 L 580 157 L 580 157 L 580 157 L 581 156 L 581 156 L 581 156 L 581 155 L 581 155 L 581 155 L 581 155 L 581 154 L 581 154 L 582 154 L 582 154 L 582 153 L 582 153 L 583 153 L 584 152 L 585 152 L 585 152 L 585 152 L 586 151 L 586 151 L 586 151 L 589 151 L 589 150 L 589 150 L 589 150 L 589 149 L 591 149 L 592 149 L 593 149 L 594 148 L 594 148 L 594 148 L 594 148 L 595 147 L 598 147 L 600 147 L 602 146 L 603 146 L 604 146 L 605 146 L 605 145 L 606 145 L 606 145 L 606 144 L 606 144 L 607 144 L 607 144 L 607 143 L 608 143 L 610 143 L 610 143 L 610 142 L 610 142 L 610 142 L 610 141 L 610 141 L 610 141 L 610 141 L 610 140 L 610 140 L 610 140 L 610 140 L 610 139 L 610 139 L 610 139 L 610 138 L 611 138 L 611 138 L 611 138 L 611 137 L 611 137 L 611 137 L 611 137 L 612 136 L 612 136 L 612 136 L 613 135 L 613 135 L 613 135 L 613 135 L 613 134 L 613 134 L 614 134 L 615 133 L 616 133 L 616 133 L 616 133 L 617 132 L 617 132 L 618 132 L 618 132 L 620 131 L 621 131 L 621 131 L 621 130 L 621 130 L 621 130 L 621 130 L 621 129 L 621 129 L 623 129 L 623 129 L 623 128 L 626 128 L 627 128 L 628 127 L 630 127 L 631 127 L 632 127 L 632 126 L 632 126 L 632 126 L 632 126 L 633 125 L 633 125 L 634 125 L 634 124 L 634 124 L 634 124 L 634 124 L 635 123 L 635 123 L 635 123 L 635 122 L 635 122 L 635 122 L 635 122 L 636 121 L 637 121 L 637 121 L 637 121 L 638 120 L 638 120 L 638 120 L 638 119 L 639 119 L 639 119 L 639 119 L 640 118 L 640 118 L 641 118 L 644 118 L 645 117 L 647 117 L 648 117 L 649 116 L 651 116 L 651 116 L 652 116 L 654 115 L 658 115 L 658 115 L 660 115 L 661 114 L 663 114 L 663 114 L 663 113 L 665 113 L 665 113 L 666 113 L 666 112 L 667 112 L 668 112 L 669 111 L 669 111 L 669 111 L 670 111 L 670 110 L 670 110 L 673 110 L 673 110 L 674 109 L 675 109 L 675 109 L 676 108 L 677 108 L 678 108 L 678 108 L 678 107 L 678 107 L 679 107 L 679 107 L 679 106 L 680 106 L 681 106 L 681 105 L 681 105 L 682 105 L 683 105 L 683 104 L 683 104 L 683 104 L 684 104 L 684 103 L 684 103 L 684 103 L 684 102 L 685 102 L 686 102 L 688 102 L 688 101 L 690 101 L 691 101 L 692 100 L 693 100 L 695 100 L 696 100 L 698 99 L 699 99 L 700 99 L 700 99 L 701 98 L 703 98 L 705 98 L 705 97 L 705 97 L 705 97 L 705 97 L 705 96 L 706 96 L 707 96 L 708 96 L 708 95 L 708 95 L 708 95 L 713 94 L 714 94 L 715 94 L 716 94 L 718 93 L 718 93 L 718 93 L 719 92 L 719 92 L 719 92 L 720 92 L 721 91 L 721 91 L 721 91 L 722 91 L 722 90 L 722 90 L 723 90 L 724 89 L 726 89 L 727 89 L 731 89 L 731 88 L 731 88 L 732 88 L 733 88 L 733 87 L 733 87 L 733 87 L 736 86 L 737 86 L 738 86 L 738 86 L 738 85 L 739 85 L 740 85 L 741 85 L 743 84 L 743 84 L 743 84 L 743 83 L 744 83 L 744 83 L 744 83 L 745 82 L 745 82 L 745 82 L 746 82 L 747 81 L 748 81 L 748 81 L 748 80 L 748 80 L 749 80 L 749 80 L 752 79 L 755 79 L 755 79 L 758 78 L 759 78 L 761 78 L 761 78 L 762 77 L 762 77 L 763 77 L 764 77 L 765 76 L 767 76 L 767 76 L 770 75 L 774 75 L 774 75 L 774 75 L 774 74 L 775 74 L 776 74 L 776 74 L 776 73 L 783 73 L 786 73 L 786 72 L 787 72 L 788 72 L 790 72 L 792 71 L 793 71 L 793 71 L 794 71 L 795 70 L 799 70 L 800 70 L 801 69 L 802 69 L 804 69 L 804 69 L 804 68 L 804 68 L 805 68 L 805 67 L 805 67 L 807 67 L 809 67 L 809 66 L 809 66 L 810 66 L 812 66 L 815 65 L 816 65 L 817 65 L 818 64 L 818 64 L 818 64 L 818 64 L 818 63 L 819 63 L 819 63 L 821 63 L 822 62 L 822 62 L 823 62 L 823 61 L 823 61 L 823 61 L 823 61 L 823 60 L 823 60 L 824 60 L 824 60 L 824 59 L 824 59 L 825 59 L 825 58 L 825 58 L 825 58 L 826 58 L 826 57 L 827 57 L 831 57 L 832 56 L 833 56 L 833 56 L 833 56 L 833 55 L 834 55 L 834 55 L 834 55 L 834 54 L 834 54 L 834 54 L 834 53 L 834 53 L 834 53 L 834 53 L 834 52 L 834 52 L 834 52 L 834 52 L 835 51 L 835 51 L 835 51 L 836 50 L 837 50 L 837 50 L 838 50 L 839 49 L 839 49 L 840 49 L 840 49 L 840 48 L 842 48 L 842 48 L 842 47 L 844 47 L 845 47 L 845 47 L 846 46 L 846 46 L 847 46 L 847 45 L 849 45 L 849 45 L 850 45 L 851 44 L 853 44 L 853 44 L 853 44 L 853 43 L 854 43 L 854 43 L 855 42 L 856 42 L 857 42 L 859 42 L 862 41 L 863 41 L 863 41 L 867 41 L 867 40 L 868 40 L 868 40 L 868 39 L 868 39 L 869 39 L 870 39 L 871 38 L 872 38 L 872 38 L 872 38 L 872 37 L 873 37 L 873 37 L 877 36 L 877 36 L 878 36 L 879 36 L 880 35 L 881 35 L 886 35 L 887 34 L 887 34 L 888 34 L 888 34 L 889 33 L 890 33 L 891 33 L 891 33 L 891 32 L 891 32 L 891 32 L 895 31 L 896 31 L 897 31 L 899 31 L 900 30 L 900 30 L 901 30 L 901 30 L 901 29 L 902 29 L 902 29 L 904 28 L 904 28 L 906 28 L 906 28 L 906 27 L 906 27 L 909 27 L 910 27 L 911 26 L 911 26 L 912 26 L 916 25 L 919 25 L 923 25 L 923 25 L 925 24 L 927 24 L 927 24 L 928 23 L 928 23 L 930 23 L 931 23 L 931 22 L 932 22 L 932 22 L 932 22 L 932 21 L 933 21 L 934 21 L 934 20 L 934 20 L 935 20 L 936 20 L 936 19 L 936 19 L 937 19 L 937 19" stroke-width="2"></path><path stroke-width="2" d="M 937 346 L 937.000000 15.000000" /><path stroke-width="2" d="M 937 346 L 937.000000 15.000000"></path><path stroke-width="2" d="M 937 346 L 942 346" /><path d="M 937 346 L 942 346" stroke-width="2"></path><text y="352" xmlns="http://www.w3.org/2000/svg" x="947">0</text><path stroke-width="2" d="M 937 307 L 942 307" /><path stroke-width="2" d="M 937 307 L 942 307"></path><text xmlns="http://www.w3.org/2000/svg" x="947" y="313">140</text><path stroke-width="2" d="M 937 271 L 942 271" /><path stroke-width="2" d="M 937 271 L 942 271"></path><text xmlns="http://www.w3.org/2000/svg" x="947" y="277">270</text><path stroke-width="2" d="M 937 236 L 942 236" /><path stroke-width="2" d="M 937 236 L 942 236"></path><text xmlns="http://www.w3.org/2000/svg" x="947" y="242">400</text><path d="M 937 197 L 942 197" stroke-width="2" /><path stroke-width="2" d="M 937 197 L 942 197"></path><text xmlns="http://www.w3.org/2000/svg" x="947" y="203">540</text><path stroke-width="2" d="M 937 161 L 942 161" /><path stroke-width="2" d="M 937 161 L 942 161"></path><text y="167" xmlns="http://www.w3.org/2000/svg" x="947">670</text><path d="M 937 126 L 942 126" stroke-width="2" /><path stroke-width="2" d="M 937 126 L 942 126"></path><text y="132" xmlns="http://www.w3.org/2000/svg" x="947">800</text><path stroke-width="2" d="M 937 87 L 942 87" /><path stroke-width="2" d="M 937 87 L 942 87"></path><text xmlns="http://www.w3.org/2000/svg" x="947" y="93">940</text><path d="M 937 51 L 942 51" stroke-width="2" /><path d="M 937 51 L 942 51" stroke-width="2"></path><text xmlns="http://www.w3.org/2000/svg" x="947" y="57">1070</text><path stroke-width="2" d="M 937 16 L 942 16" /><path stroke-width="2" d="M 937 16 L 942 16"></path><text y="22" xmlns="http://www.w3.org/2000/svg" x="947">1200</text><text xmlns="http://www.w3.org/2000/svg" x="987" y="175" transform="rotate(90.00,987,175)">Stargazers</text><path stroke-width="2" d="M 57.000000 346.000000 L 937 346" /><path stroke-width="2" d="M 57.000000 346.000000 L 937 346"></path><path stroke-width="2" d="M 58 346 L 58 351" /><path stroke-width="2" d="M 58 346 L 58 351"></path><text xmlns="http://www.w3.org/2000/svg" x="25" y="368">2023-04-02</text><path stroke-width="2" d="M 156 346 L 156 351" /><path stroke-width="2" d="M 156 346 L 156 351"></path><text xmlns="http://www.w3.org/2000/svg" x="123" y="368">2023-07-22</text><path d="M 254 346 L 254 351" stroke-width="2" /><path stroke-width="2" d="M 254 346 L 254 351"></path><text xmlns="http://www.w3.org/2000/svg" x="221" y="368">2023-11-10</text><path stroke-width="2" d="M 352 346 L 352 351" /><path stroke-width="2" d="M 352 346 L 352 351"></path><text xmlns="http://www.w3.org/2000/svg" x="319" y="368">2024-02-29</text><path stroke-width="2" d="M 449 346 L 449 351" /><path stroke-width="2" d="M 449 346 L 449 351"></path><text xmlns="http://www.w3.org/2000/svg" x="416" y="368">2024-06-20</text><path stroke-width="2" d="M 547 346 L 547 351" /><path stroke-width="2" d="M 547 346 L 547 351"></path><text xmlns="http://www.w3.org/2000/svg" x="514" y="368">2024-10-09</text><path stroke-width="2" d="M 645 346 L 645 351" /><path stroke-width="2" d="M 645 346 L 645 351"></path><text y="368" xmlns="http://www.w3.org/2000/svg" x="612">2025-01-28</text><path d="M 742 346 L 742 351" stroke-width="2" /><path stroke-width="2" d="M 742 346 L 742 351"></path><text x="709" y="368" xmlns="http://www.w3.org/2000/svg">2025-05-19</text><path stroke-width="2" d="M 840 346 L 840 351" /><path d="M 840 346 L 840 351" stroke-width="2"></path><text xmlns="http://www.w3.org/2000/svg" x="807" y="368">2025-09-07</text><path stroke-width="2" d="M 937 346 L 937 351" /><path stroke-width="2" d="M 937 346 L 937 351"></path><text x="904" y="368" xmlns="http://www.w3.org/2000/svg">2025-12-28</text><text xmlns="http://www.w3.org/2000/svg" x="483" y="390">Time</text></svg>