<svg xmlns="http://www.w3.org/2000/svg" xmlns:xlink="http://www.w3.org/1999/xlink" width="1024px" height="400px"><style type="text/css">
path { fill: none; stroke: rgb(51,51,51); }
path.series { stroke: #6b63ff; }
rect.background { fill: rgb(255,255,255); stroke: none; }

text {
	stroke-width: 0;
	stroke: none;
	fill: rgba(51,51,51,1.0);
	font-size: 12.8px;
	font-family: 'Roboto Medium', sans-serif;
}
</style><rect y="0" width="1024px" height="400px" class="background" rx="8" x="0" /><rect x="0" y="0" width="1024px" height="400px" class="background" rx="8"></rect><path stroke-width="2" class="series" d="M 58 345 L 62 344 L 83 344 L 83 343 L 83 343 L 83 342 L 83 342 L 83 341 L 83 340 L 83 340 L 84 339 L 84 339 L 84 338 L 84 338 L 84 337 L 84 336 L 84 336 L 85 335 L 85 335 L 86 334 L 86 334 L 86 333 L 88 332 L 89 332 L 89 331 L 89 331 L 90 330 L 91 330 L 93 329 L 94 328 L 95 328 L 97 327 L 103 327 L 103 326 L 103 326 L 103 325 L 103 324 L 104 324 L 107 323 L 109 323 L 110 322 L 113 322 L 119 321 L 121 320 L 130 320 L 133 319 L 138 319 L 143 318 L 145 318 L 165 317 L 166 316 L 166 316 L 169 315 L 169 315 L 169 314 L 169 314 L 169 313 L 169 313 L 169 312 L 170 311 L 170 311 L 170 310 L 170 310 L 170 309 L 170 309 L 170 308 L 170 307 L 170 307 L 170 306 L 170 306 L 170 305 L 171 305 L 171 304 L 171 303 L 171 303 L 171 302 L 171 302 L 171 301 L 171 301 L 171 300 L 171 299 L 171 299 L 171 298 L 171 298 L 171 297 L 171 297 L 171 296 L 171 295 L 171 295 L 171 294 L 171 294 L 171 293 L 171 293 L 171 292 L 171 291 L 171 291 L 171 290 L 171 290 L 171 289 L 171 289 L 172 288 L 172 287 L 172 287 L 172 286 L 173 286 L 173 285 L 174 285 L 174 284 L 174 283 L 174 283 L 174 282 L 174 282 L 174 281 L 174 281 L 174 280 L 174 280 L 174 279 L 174 278 L 174 278 L 174 277 L 174 277 L 174 276 L 174 276 L 175 275 L 176 274 L 176 274 L 176 273 L 176 273 L 181 272 L 181 272 L 181 271 L 183 270 L 183 270 L 186 269 L 190 269 L 190 268 L 193 268 L 194 267 L 196 266 L 197 266 L 198 265 L 201 265 L 201 264 L 202 264 L 203 263 L 204 262 L 205 262 L 206 261 L 206 261 L 206 260 L 208 260 L 210 259 L 210 258 L 210 258 L 211 257 L 211 257 L 212 256 L 214 256 L 216 255 L 219 254 L 220 254 L 221 253 L 222 253 L 223 252 L 223 252 L 225 251 L 233 250 L 234 250 L 235 249 L 243 249 L 243 248 L 243 248 L 243 247 L 244 247 L 245 246 L 247 245 L 249 245 L 249 244 L 259 244 L 261 243 L 263 243 L 266 242 L 268 241 L 268 241 L 270 240 L 276 240 L 284 239 L 293 239 L 293 238 L 294 237 L 294 237 L 294 236 L 296 236 L 308 235 L 313 235 L 313 234 L 318 233 L 319 233 L 319 232 L 332 232 L 332 231 L 333 231 L 334 230 L 335 229 L 339 229 L 340 228 L 343 228 L 345 227 L 348 227 L 355 226 L 355 225 L 357 225 L 357 224 L 357 224 L 358 223 L 361 223 L 369 222 L 385 221 L 391 221 L 394 220 L 394 220 L 396 219 L 398 219 L 398 218 L 398 217 L 398 217 L 398 216 L 398 216 L 398 215 L 398 215 L 398 214 L 398 214 L 399 213 L 399 212 L 399 212 L 399 211 L 400 211 L 402 210 L 403 210 L 403 209 L 403 208 L 403 208 L 405 207 L 405 207 L 405 206 L 405 206 L 405 205 L 405 204 L 405 204 L 407 203 L 407 203 L 408 202 L 408 202 L 408 201 L 409 200 L 409 200 L 410 199 L 410 199 L 410 198 L 410 198 L 411 197 L 412 196 L 412 196 L 413 195 L 415 195 L 416 194 L 418 194 L 421 193 L 421 192 L 422 192 L 422 191 L 422 191 L 422 190 L 422 190 L 425 189 L 425 188 L 428 188 L 428 187 L 429 187 L 431 186 L 433 186 L 433 185 L 437 184 L 437 184 L 438 183 L 439 183 L 439 182 L 445 182 L 446 181 L 447 181 L 451 180 L 454 179 L 459 179 L 460 178 L 460 178 L 462 177 L 462 177 L 462 176 L 466 175 L 469 175 L 471 174 L 471 174 L 473 173 L 475 173 L 475 172 L 475 171 L 475 171 L 476 170 L 476 170 L 476 169 L 478 169 L 478 168 L 478 167 L 479 167 L 485 166 L 492 166 L 492 165 L 492 165 L 496 164 L 499 163 L 500 163 L 500 162 L 502 162 L 503 161 L 503 161 L 503 160 L 504 159 L 504 159 L 504 158 L 504 158 L 505 157 L 505 157 L 506 156 L 509 155 L 509 155 L 509 154 L 509 154 L 510 153 L 510 153 L 510 152 L 510 151 L 510 151 L 510 150 L 510 150 L 510 149 L 511 149 L 516 148 L 519 148 L 519 147 L 521 146 L 527 146 L 535 145 L 536 145 L 540 144 L 544 144 L 552 143 L 555 142 L 558 142 L 559 141 L 559 141 L 559 140 L 559 140 L 559 139 L 559 138 L 559 138 L 561 137 L 562 137 L 573 136 L 576 136 L 580 135 L 588 134 L 594 134 L 599 133 L 602 133 L 608 132 L 608 132 L 621 131 L 633 130 L 634 130 L 642 129 L 643 129 L 650 128 L 651 128 L 655 127 L 655 126 L 656 126 L 656 125 L 660 125 L 661 124 L 665 124 L 670 123 L 671 122 L 672 122 L 673 121 L 677 121 L 682 120 L 682 120 L 688 119 L 693 118 L 694 118 L 694 117 L 696 117 L 698 116 L 699 116 L 703 115 L 707 115 L 710 114 L 713 113 L 713 113 L 720 112 L 721 112 L 725 111 L 731 111 L 731 110 L 738 109 L 739 109 L 739 108 L 741 108 L 741 107 L 744 107 L 745 106 L 748 105 L 752 105 L 753 104 L 753 104 L 753 103 L 764 103 L 764 102 L 765 101 L 765 101 L 766 100 L 767 100 L 767 99 L 767 99 L 768 98 L 771 97 L 771 97 L 773 96 L 774 96 L 774 95 L 775 95 L 776 94 L 776 93 L 777 93 L 778 92 L 778 92 L 779 91 L 779 91 L 779 90 L 780 89 L 781 89 L 783 88 L 783 88 L 783 87 L 784 87 L 785 86 L 787 85 L 788 85 L 788 84 L 789 84 L 791 83 L 793 83 L 793 82 L 794 82 L 794 81 L 797 80 L 797 80 L 797 79 L 798 79 L 798 78 L 798 78 L 799 77 L 799 76 L 800 76 L 801 75 L 806 75 L 807 74 L 809 74 L 809 73 L 812 72 L 814 72 L 815 71 L 818 71 L 821 70 L 825 70 L 828 69 L 829 68 L 829 68 L 829 67 L 830 67 L 831 66 L 831 66 L 831 65 L 832 64 L 832 64 L 833 63 L 833 63 L 835 62 L 836 62 L 836 61 L 838 60 L 838 60 L 842 59 L 842 59 L 842 58 L 844 58 L 845 57 L 848 56 L 852 56 L 857 55 L 857 55 L 857 54 L 857 54 L 860 53 L 863 52 L 864 52 L 864 51 L 864 51 L 865 50 L 867 50 L 871 49 L 872 49 L 872 48 L 872 47 L 875 47 L 876 46 L 876 46 L 876 45 L 876 45 L 880 44 L 885 43 L 885 43 L 890 42 L 891 42 L 892 41 L 897 41 L 898 40 L 902 39 L 904 39 L 906 38 L 908 38 L 908 37 L 909 37 L 909 36 L 909 35 L 909 35 L 911 34 L 911 34 L 911 33 L 912 33 L 912 32 L 912 31 L 914 31 L 916 30 L 916 30 L 923 29 L 923 29 L 930 28 L 933 27 L 933 27 L 935 26 L 936 26 L 939 25 L 940 25 L 941 24 L 941 23 L 942 23 L 942 22 L 942 22 L 942 21 L 942 21 L 943 20 L 944 19 L 944 19 L 944 18 L 944 18 L 945 17 L 945 17 L 945 16" /><path stroke-width="2" class="series" d="M 58 345 L 62 344 L 83 344 L 83 343 L 83 343 L 83 342 L 83 342 L 83 341 L 83 340 L 83 340 L 84 339 L 84 339 L 84 338 L 84 338 L 84 337 L 84 336 L 84 336 L 85 335 L 85 335 L 86 334 L 86 334 L 86 333 L 88 332 L 89 332 L 89 331 L 89 331 L 90 330 L 91 330 L 93 329 L 94 328 L 95 328 L 97 327 L 103 327 L 103 326 L 103 326 L 103 325 L 103 324 L 104 324 L 107 323 L 109 323 L 110 322 L 113 322 L 119 321 L 121 320 L 130 320 L 133 319 L 138 319 L 143 318 L 145 318 L 165 317 L 166 316 L 166 316 L 169 315 L 169 315 L 169 314 L 169 314 L 169 313 L 169 313 L 169 312 L 170 311 L 170 311 L 170 310 L 170 310 L 170 309 L 170 309 L 170 308 L 170 307 L 170 307 L 170 306 L 170 306 L 170 305 L 171 305 L 171 304 L 171 303 L 171 303 L 171 302 L 171 302 L 171 301 L 171 301 L 171 300 L 171 299 L 171 299 L 171 298 L 171 298 L 171 297 L 171 297 L 171 296 L 171 295 L 171 295 L 171 294 L 171 294 L 171 293 L 171 293 L 171 292 L 171 291 L 171 291 L 171 290 L 171 290 L 171 289 L 171 289 L 172 288 L 172 287 L 172 287 L 172 286 L 173 286 L 173 285 L 174 285 L 174 284 L 174 283 L 174 283 L 174 282 L 174 282 L 174 281 L 174 281 L 174 280 L 174 280 L 174 279 L 174 278 L 174 278 L 174 277 L 174 277 L 174 276 L 174 276 L 175 275 L 176 274 L 176 274 L 176 273 L 176 273 L 181 272 L 181 272 L 181 271 L 183 270 L 183 270 L 186 269 L 190 269 L 190 268 L 193 268 L 194 267 L 196 266 L 197 266 L 198 265 L 201 265 L 201 264 L 202 264 L 203 263 L 204 262 L 205 262 L 206 261 L 206 261 L 206 260 L 208 260 L 210 259 L 210 258 L 210 258 L 211 257 L 211 257 L 212 256 L 214 256 L 216 255 L 219 254 L 220 254 L 221 253 L 222 253 L 223 252 L 223 252 L 225 251 L 233 250 L 234 250 L 235 249 L 243 249 L 243 248 L 243 248 L 243 247 L 244 247 L 245 246 L 247 245 L 249 245 L 249 244 L 259 244 L 261 243 L 263 243 L 266 242 L 268 241 L 268 241 L 270 240 L 276 240 L 284 239 L 293 239 L 293 238 L 294 237 L 294 237 L 294 236 L 296 236 L 308 235 L 313 235 L 313 234 L 318 233 L 319 233 L 319 232 L 332 232 L 332 231 L 333 231 L 334 230 L 335 229 L 339 229 L 340 228 L 343 228 L 345 227 L 348 227 L 355 226 L 355 225 L 357 225 L 357 224 L 357 224 L 358 223 L 361 223 L 369 222 L 385 221 L 391 221 L 394 220 L 394 220 L 396 219 L 398 219 L 398 218 L 398 217 L 398 217 L 398 216 L 398 216 L 398 215 L 398 215 L 398 214 L 398 214 L 399 213 L 399 212 L 399 212 L 399 211 L 400 211 L 402 210 L 403 210 L 403 209 L 403 208 L 403 208 L 405 207 L 405 207 L 405 206 L 405 206 L 405 205 L 405 204 L 405 204 L 407 203 L 407 203 L 408 202 L 408 202 L 408 201 L 409 200 L 409 200 L 410 199 L 410 199 L 410 198 L 410 198 L 411 197 L 412 196 L 412 196 L 413 195 L 415 195 L 416 194 L 418 194 L 421 193 L 421 192 L 422 192 L 422 191 L 422 191 L 422 190 L 422 190 L 425 189 L 425 188 L 428 188 L 428 187 L 429 187 L 431 186 L 433 186 L 433 185 L 437 184 L 437 184 L 438 183 L 439 183 L 439 182 L 445 182 L 446 181 L 447 181 L 451 180 L 454 179 L 459 179 L 460 178 L 460 178 L 462 177 L 462 177 L 462 176 L 466 175 L 469 175 L 471 174 L 471 174 L 473 173 L 475 173 L 475 172 L 475 171 L 475 171 L 476 170 L 476 170 L 476 169 L 478 169 L 478 168 L 478 167 L 479 167 L 485 166 L 492 166 L 492 165 L 492 165 L 496 164 L 499 163 L 500 163 L 500 162 L 502 162 L 503 161 L 503 161 L 503 160 L 504 159 L 504 159 L 504 158 L 504 158 L 505 157 L 505 157 L 506 156 L 509 155 L 509 155 L 509 154 L 509 154 L 510 153 L 510 153 L 510 152 L 510 151 L 510 151 L 510 150 L 510 150 L 510 149 L 511 149 L 516 148 L 519 148 L 519 147 L 521 146 L 527 146 L 535 145 L 536 145 L 540 144 L 544 144 L 552 143 L 555 142 L 558 142 L 559 141 L 559 141 L 559 140 L 559 140 L 559 139 L 559 138 L 559 138 L 561 137 L 562 137 L 573 136 L 576 136 L 580 135 L 588 134 L 594 134 L 599 133 L 602 133 L 608 132 L 608 132 L 621 131 L 633 130 L 634 130 L 642 129 L 643 129 L 650 128 L 651 128 L 655 127 L 655 126 L 656 126 L 656 125 L 660 125 L 661 124 L 665 124 L 670 123 L 671 122 L 672 122 L 673 121 L 677 121 L 682 120 L 682 120 L 688 119 L 693 118 L 694 118 L 694 117 L 696 117 L 698 116 L 699 116 L 703 115 L 707 115 L 710 114 L 713 113 L 713 113 L 720 112 L 721 112 L 725 111 L 731 111 L 731 110 L 738 109 L 739 109 L 739 108 L 741 108 L 741 107 L 744 107 L 745 106 L 748 105 L 752 105 L 753 104 L 753 104 L 753 103 L 764 103 L 764 102 L 765 101 L 765 101 L 766 100 L 767 100 L 767 99 L 767 99 L 768 98 L 771 97 L 771 97 L 773 96 L 774 96 L 774 95 L 775 95 L 776 94 L 776 93 L 777 93 L 778 92 L 778 92 L 779 91 L 779 91 L 779 90 L 780 89 L 781 89 L 783 88 L 783 88 L 783 87 L 784 87 L 785 86 L 787 85 L 788 85 L 788 84 L 789 84 L 791 83 L 793 83 L 793 82 L 794 82 L 794 81 L 797 80 L 797 80 L 797 79 L 798 79 L 798 78 L 798 78 L 799 77 L 799 76 L 800 76 L 801 75 L 806 75 L 807 74 L 809 74 L 809 73 L 812 72 L 814 72 L 815 71 L 818 71 L 821 70 L 825 70 L 828 69 L 829 68 L 829 68 L 829 67 L 830 67 L 831 66 L 831 66 L 831 65 L 832 64 L 832 64 L 833 63 L 833 63 L 835 62 L 836 62 L 836 61 L 838 60 L 838 60 L 842 59 L 842 59 L 842 58 L 844 58 L 845 57 L 848 56 L 852 56 L 857 55 L 857 55 L 857 54 L 857 54 L 860 53 L 863 52 L 864 52 L 864 51 L 864 51 L 865 50 L 867 50 L 871 49 L 872 49 L 872 48 L 872 47 L 875 47 L 876 46 L 876 46 L 876 45 L 876 45 L 880 44 L 885 43 L 885 43 L 890 42 L 891 42 L 892 41 L 897 41 L 898 40 L 902 39 L 904 39 L 906 38 L 908 38 L 908 37 L 909 37 L 909 36 L 909 35 L 909 35 L 911 34 L 911 34 L 911 33 L 912 33 L 912 32 L 912 31 L 914 31 L 916 30 L 916 30 L 923 29 L 923 29 L 930 28 L 933 27 L 933 27 L 935 26 L 936 26 L 939 25 L 940 25 L 941 24 L 941 23 L 942 23 L 942 22 L 942 22 L 942 21 L 942 21 L 943 20 L 944 19 L 944 19 L 944 18 L 944 18 L 945 17 L 945 17 L 945 16"></path><path stroke-width="2" d="M 945 346 L 945.000000 15.000000" /><path stroke-width="2" d="M 945 346 L 945.000000 15.000000"></path><path stroke-width="2" d="M 945 346 L 950 346" /><path stroke-width="2" d="M 945 346 L 950 346"></path><text xmlns="http://www.w3.org/2000/svg" x="955" y="352">0</text><path stroke-width="2" d="M 945 309 L 950 309" /><path stroke-width="2" d="M 945 309 L 950 309"></path><text xmlns="http://www.w3.org/2000/svg" x="955" y="315">65</text><path stroke-width="2" d="M 945 272 L 950 272" /><path stroke-width="2" d="M 945 272 L 950 272"></path><text x="955" y="278" xmlns="http://www.w3.org/2000/svg">129</text><path stroke-width="2" d="M 945 235 L 950 235" /><path stroke-width="2" d="M 945 235 L 950 235"></path><text x="955" y="241" xmlns="http://www.w3.org/2000/svg">194</text><path stroke-width="2" d="M 945 199 L 950 199" /><path stroke-width="2" d="M 945 199 L 950 199"></path><text y="205" xmlns="http://www.w3.org/2000/svg" x="955">258</text><path stroke-width="2" d="M 945 162 L 950 162" /><path stroke-width="2" d="M 945 162 L 950 162"></path><text y="168" xmlns="http://www.w3.org/2000/svg" x="955">323</text><path stroke-width="2" d="M 945 125 L 950 125" /><path d="M 945 125 L 950 125" stroke-width="2"></path><text xmlns="http://www.w3.org/2000/svg" x="955" y="131">387</text><path stroke-width="2" d="M 945 88 L 950 88" /><path stroke-width="2" d="M 945 88 L 950 88"></path><text xmlns="http://www.w3.org/2000/svg" x="955" y="94">452</text><path stroke-width="2" d="M 945 52 L 950 52" /><path stroke-width="2" d="M 945 52 L 950 52"></path><text xmlns="http://www.w3.org/2000/svg" x="955" y="58">516</text><path stroke-width="2" d="M 945 16 L 950 16" /><path stroke-width="2" d="M 945 16 L 950 16"></path><text xmlns="http://www.w3.org/2000/svg" x="955" y="22">580</text><text y="175" transform="rotate(90.00,987,175)" xmlns="http://www.w3.org/2000/svg" x="987">Stargazers</text><path stroke-width="2" d="M 57.000000 346.000000 L 945 346" /><path stroke-width="2" d="M 57.000000 346.000000 L 945 346"></path><path d="M 58 346 L 58 351" stroke-width="2" /><path d="M 58 346 L 58 351" stroke-width="2"></path><text xmlns="http://www.w3.org/2000/svg" x="25" y="368">2023-04-02</text><path d="M 157 346 L 157 351" stroke-width="2" /><path stroke-width="2" d="M 157 346 L 157 351"></path><text xmlns="http://www.w3.org/2000/svg" x="124" y="368">2023-05-29</text><path stroke-width="2" d="M 256 346 L 256 351" /><path stroke-width="2" d="M 256 346 L 256 351"></path><text y="368" xmlns="http://www.w3.org/2000/svg" x="223">2023-07-25</text><path stroke-width="2" d="M 354 346 L 354 351" /><path stroke-width="2" d="M 354 346 L 354 351"></path><text xmlns="http://www.w3.org/2000/svg" x="321" y="368">2023-09-20</text><path stroke-width="2" d="M 453 346 L 453 351" /><path stroke-width="2" d="M 453 346 L 453 351"></path><text y="368" xmlns="http://www.w3.org/2000/svg" x="420">2023-11-15</text><path stroke-width="2" d="M 551 346 L 551 351" /><path stroke-width="2" d="M 551 346 L 551 351"></path><text xmlns="http://www.w3.org/2000/svg" x="518" y="368">2024-01-11</text><path stroke-width="2" d="M 650 346 L 650 351" /><path d="M 650 346 L 650 351" stroke-width="2"></path><text xmlns="http://www.w3.org/2000/svg" x="617" y="368">2024-03-08</text><path stroke-width="2" d="M 748 346 L 748 351" /><path stroke-width="2" d="M 748 346 L 748 351"></path><text xmlns="http://www.w3.org/2000/svg" x="715" y="368">2024-05-04</text><path stroke-width="2" d="M 847 346 L 847 351" /><path stroke-width="2" d="M 847 346 L 847 351"></path><text xmlns="http://www.w3.org/2000/svg" x="814" y="368">2024-06-30</text><path stroke-width="2" d="M 945 346 L 945 351" /><path stroke-width="2" d="M 945 346 L 945 351"></path><text xmlns="http://www.w3.org/2000/svg" x="912" y="368">2024-08-26</text><text xmlns="http://www.w3.org/2000/svg" x="487" y="390">Time</text></svg>