<svg xmlns="http://www.w3.org/2000/svg" xmlns:xlink="http://www.w3.org/1999/xlink" width="1024px" height="400px"><style type="text/css">
path { fill: none; stroke: rgb(51,51,51); }
path.series { stroke: #6b63ff; }
rect.background { fill: rgb(255,255,255); stroke: none; }

text {
	stroke-width: 0;
	stroke: none;
	fill: rgba(51,51,51,1.0);
	font-size: 12.8px;
	font-family: 'Roboto Medium', sans-serif;
}
</style><rect y="0" width="1024px" height="400px" class="background" rx="8" x="0" /><rect class="background" rx="8" x="0" y="0" width="1024px" height="400px"></rect><path stroke-width="2" class="series" d="M 58 345 L 64 344 L 100 343 L 101 342 L 101 341 L 101 340 L 101 339 L 101 339 L 101 338 L 101 337 L 102 336 L 102 335 L 102 334 L 102 333 L 102 332 L 102 332 L 102 331 L 102 330 L 103 329 L 103 328 L 105 327 L 106 326 L 106 326 L 109 325 L 111 324 L 111 323 L 111 322 L 112 321 L 114 320 L 118 319 L 119 319 L 121 318 L 124 317 L 135 316 L 135 315 L 135 314 L 135 313 L 136 313 L 136 312 L 136 311 L 142 310 L 145 309 L 147 308 L 152 307 L 161 306 L 165 306 L 181 305 L 186 304 L 195 303 L 204 302 L 208 301 L 241 300 L 243 299 L 243 299 L 248 298 L 249 297 L 249 296 L 249 295 L 249 294 L 249 293 L 249 293 L 249 292 L 249 291 L 249 290 L 249 289 L 249 288 L 250 287 L 250 286 L 250 286 L 250 285 L 250 284 L 250 283 L 250 282 L 250 281 L 251 280 L 251 280 L 251 279 L 251 278 L 251 277 L 251 276 L 251 275 L 251 274 L 251 273 L 251 273 L 251 272 L 251 271 L 251 270 L 251 269 L 251 268 L 251 267 L 251 266 L 251 266 L 251 265 L 251 264 L 251 263 L 251 262 L 251 261 L 251 260 L 251 260 L 251 259 L 252 258 L 252 257 L 253 256 L 253 255 L 253 254 L 254 253 L 254 253 L 255 252 L 256 251 L 256 250 L 256 249 L 256 248 L 256 247 L 256 247 L 257 246 L 257 245 L 257 244 L 257 243 L 257 242 L 257 241 L 257 240 L 257 240 L 257 239 L 257 238 L 257 237 L 258 236 L 260 235 L 260 234 L 260 233 L 260 233 L 268 232 L 269 231 L 269 230 L 272 229 L 272 228 L 277 227 L 283 227 L 284 226 L 289 225 L 291 224 L 295 223 L 296 222 L 297 221 L 302 220 L 303 220 L 305 219 L 307 218 L 308 217 L 310 216 L 311 215 L 311 214 L 312 214 L 315 213 L 317 212 L 317 211 L 319 210 L 320 209 L 320 208 L 322 207 L 326 207 L 328 206 L 333 205 L 335 204 L 337 203 L 340 202 L 340 201 L 340 200 L 344 200 L 358 199 L 359 198 L 361 197 L 375 196 L 375 195 L 375 194 L 375 194 L 376 193 L 378 192 L 382 191 L 385 190 L 385 189 L 402 188 L 405 187 L 409 187 L 415 186 L 418 185 L 418 184 L 420 183 L 432 182 L 445 181 L 460 181 L 461 180 L 461 179 L 462 178 L 463 177 L 466 176 L 486 175 L 495 174 L 495 174 L 503 173 L 505 172 L 506 171 L 528 170 L 528 169 L 529 168 L 530 167 L 533 167 L 539 166 L 542 165 L 546 164 L 549 163 L 554 162 L 567 161 L 567 161 L 569 160 L 570 159 L 570 158 L 571 157 L 577 156 L 578 155 L 590 154 L 608 154 L 617 153 L 628 152 L 628 151 L 634 150 L 634 149 L 638 148 L 640 148 L 640 147 L 640 146 L 640 145 L 641 144 L 641 143 L 641 142 L 641 141 L 641 141 L 641 140 L 641 139 L 642 138 L 642 137 L 643 136 L 643 135 L 645 134 L 647 134 L 649 133 L 649 132 L 649 131 L 649 130 L 652 129 L 652 128 L 652 128 L 653 127 L 653 126 L 653 125 L 653 124 L 655 123 L 656 122 L 656 121 L 658 121 L 658 120 L 658 119 L 658 118 L 659 117 L 661 116 L 661 115 L 661 115 L 662 114 L 663 113 L 664 112 L 665 111 L 667 110 L 669 109 L 671 108 L 674 108 L 679 107 L 680 106 L 681 105 L 682 104 L 682 103 L 682 102 L 682 101 L 686 101 L 687 100 L 691 99 L 691 98 L 693 97 L 697 96 L 701 95 L 701 95 L 706 94 L 708 93 L 709 92 L 711 91 L 711 90 L 721 89 L 723 88 L 724 88 L 732 87 L 736 86 L 744 85 L 746 84 L 747 83 L 749 82 L 750 82 L 750 81 L 757 80 L 762 79 L 765 78 L 766 77 L 769 76 L 772 75 L 772 75 L 772 74 L 772 73 L 773 72 L 774 71 L 774 70 L 777 69 L 777 68 L 777 68 L 779 67 L 789 66 L 801 65 L 801 64 L 801 63 L 809 62 L 813 62 L 815 61 L 816 60 L 818 59 L 821 58 L 821 57 L 821 56 L 821 55 L 821 55 L 822 54 L 822 53 L 824 52 L 824 51 L 825 50 L 831 49 L 831 49 L 831 48 L 831 47 L 832 46 L 832 45 L 833 44 L 833 43 L 833 42 L 833 42 L 833 41 L 833 40 L 837 39 L 842 38 L 848 37 L 848 36 L 851 35 L 862 35 L 875 34 L 877 33 L 885 32 L 890 31 L 905 30 L 910 29 L 915 29 L 916 28 L 916 27 L 916 26 L 916 25 L 916 24 L 916 23 L 917 22 L 920 22 L 922 21 L 940 20 L 945 19" /><path stroke-width="2" class="series" d="M 58 345 L 64 344 L 100 343 L 101 342 L 101 341 L 101 340 L 101 339 L 101 339 L 101 338 L 101 337 L 102 336 L 102 335 L 102 334 L 102 333 L 102 332 L 102 332 L 102 331 L 102 330 L 103 329 L 103 328 L 105 327 L 106 326 L 106 326 L 109 325 L 111 324 L 111 323 L 111 322 L 112 321 L 114 320 L 118 319 L 119 319 L 121 318 L 124 317 L 135 316 L 135 315 L 135 314 L 135 313 L 136 313 L 136 312 L 136 311 L 142 310 L 145 309 L 147 308 L 152 307 L 161 306 L 165 306 L 181 305 L 186 304 L 195 303 L 204 302 L 208 301 L 241 300 L 243 299 L 243 299 L 248 298 L 249 297 L 249 296 L 249 295 L 249 294 L 249 293 L 249 293 L 249 292 L 249 291 L 249 290 L 249 289 L 249 288 L 250 287 L 250 286 L 250 286 L 250 285 L 250 284 L 250 283 L 250 282 L 250 281 L 251 280 L 251 280 L 251 279 L 251 278 L 251 277 L 251 276 L 251 275 L 251 274 L 251 273 L 251 273 L 251 272 L 251 271 L 251 270 L 251 269 L 251 268 L 251 267 L 251 266 L 251 266 L 251 265 L 251 264 L 251 263 L 251 262 L 251 261 L 251 260 L 251 260 L 251 259 L 252 258 L 252 257 L 253 256 L 253 255 L 253 254 L 254 253 L 254 253 L 255 252 L 256 251 L 256 250 L 256 249 L 256 248 L 256 247 L 256 247 L 257 246 L 257 245 L 257 244 L 257 243 L 257 242 L 257 241 L 257 240 L 257 240 L 257 239 L 257 238 L 257 237 L 258 236 L 260 235 L 260 234 L 260 233 L 260 233 L 268 232 L 269 231 L 269 230 L 272 229 L 272 228 L 277 227 L 283 227 L 284 226 L 289 225 L 291 224 L 295 223 L 296 222 L 297 221 L 302 220 L 303 220 L 305 219 L 307 218 L 308 217 L 310 216 L 311 215 L 311 214 L 312 214 L 315 213 L 317 212 L 317 211 L 319 210 L 320 209 L 320 208 L 322 207 L 326 207 L 328 206 L 333 205 L 335 204 L 337 203 L 340 202 L 340 201 L 340 200 L 344 200 L 358 199 L 359 198 L 361 197 L 375 196 L 375 195 L 375 194 L 375 194 L 376 193 L 378 192 L 382 191 L 385 190 L 385 189 L 402 188 L 405 187 L 409 187 L 415 186 L 418 185 L 418 184 L 420 183 L 432 182 L 445 181 L 460 181 L 461 180 L 461 179 L 462 178 L 463 177 L 466 176 L 486 175 L 495 174 L 495 174 L 503 173 L 505 172 L 506 171 L 528 170 L 528 169 L 529 168 L 530 167 L 533 167 L 539 166 L 542 165 L 546 164 L 549 163 L 554 162 L 567 161 L 567 161 L 569 160 L 570 159 L 570 158 L 571 157 L 577 156 L 578 155 L 590 154 L 608 154 L 617 153 L 628 152 L 628 151 L 634 150 L 634 149 L 638 148 L 640 148 L 640 147 L 640 146 L 640 145 L 641 144 L 641 143 L 641 142 L 641 141 L 641 141 L 641 140 L 641 139 L 642 138 L 642 137 L 643 136 L 643 135 L 645 134 L 647 134 L 649 133 L 649 132 L 649 131 L 649 130 L 652 129 L 652 128 L 652 128 L 653 127 L 653 126 L 653 125 L 653 124 L 655 123 L 656 122 L 656 121 L 658 121 L 658 120 L 658 119 L 658 118 L 659 117 L 661 116 L 661 115 L 661 115 L 662 114 L 663 113 L 664 112 L 665 111 L 667 110 L 669 109 L 671 108 L 674 108 L 679 107 L 680 106 L 681 105 L 682 104 L 682 103 L 682 102 L 682 101 L 686 101 L 687 100 L 691 99 L 691 98 L 693 97 L 697 96 L 701 95 L 701 95 L 706 94 L 708 93 L 709 92 L 711 91 L 711 90 L 721 89 L 723 88 L 724 88 L 732 87 L 736 86 L 744 85 L 746 84 L 747 83 L 749 82 L 750 82 L 750 81 L 757 80 L 762 79 L 765 78 L 766 77 L 769 76 L 772 75 L 772 75 L 772 74 L 772 73 L 773 72 L 774 71 L 774 70 L 777 69 L 777 68 L 777 68 L 779 67 L 789 66 L 801 65 L 801 64 L 801 63 L 809 62 L 813 62 L 815 61 L 816 60 L 818 59 L 821 58 L 821 57 L 821 56 L 821 55 L 821 55 L 822 54 L 822 53 L 824 52 L 824 51 L 825 50 L 831 49 L 831 49 L 831 48 L 831 47 L 832 46 L 832 45 L 833 44 L 833 43 L 833 42 L 833 42 L 833 41 L 833 40 L 837 39 L 842 38 L 848 37 L 848 36 L 851 35 L 862 35 L 875 34 L 877 33 L 885 32 L 890 31 L 905 30 L 910 29 L 915 29 L 916 28 L 916 27 L 916 26 L 916 25 L 916 24 L 916 23 L 917 22 L 920 22 L 922 21 L 940 20 L 945 19"></path><path d="M 945 346 L 945.000000 15.000000" stroke-width="2" /><path stroke-width="2" d="M 945 346 L 945.000000 15.000000"></path><path d="M 945 346 L 950 346" stroke-width="2" /><path stroke-width="2" d="M 945 346 L 950 346"></path><text x="955" y="352" xmlns="http://www.w3.org/2000/svg">0</text><path stroke-width="2" d="M 945 308 L 950 308" /><path stroke-width="2" d="M 945 308 L 950 308"></path><text x="955" y="314" xmlns="http://www.w3.org/2000/svg">43</text><path stroke-width="2" d="M 945 272 L 950 272" /><path stroke-width="2" d="M 945 272 L 950 272"></path><text x="955" y="278" xmlns="http://www.w3.org/2000/svg">85</text><path stroke-width="2" d="M 945 235 L 950 235" /><path stroke-width="2" d="M 945 235 L 950 235"></path><text xmlns="http://www.w3.org/2000/svg" x="955" y="241">127</text><path stroke-width="2" d="M 945 199 L 950 199" /><path stroke-width="2" d="M 945 199 L 950 199"></path><text xmlns="http://www.w3.org/2000/svg" x="955" y="205">169</text><path d="M 945 161 L 950 161" stroke-width="2" /><path stroke-width="2" d="M 945 161 L 950 161"></path><text xmlns="http://www.w3.org/2000/svg" x="955" y="167">212</text><path stroke-width="2" d="M 945 125 L 950 125" /><path stroke-width="2" d="M 945 125 L 950 125"></path><text xmlns="http://www.w3.org/2000/svg" x="955" y="131">254</text><path stroke-width="2" d="M 945 88 L 950 88" /><path stroke-width="2" d="M 945 88 L 950 88"></path><text xmlns="http://www.w3.org/2000/svg" x="955" y="94">296</text><path stroke-width="2" d="M 945 52 L 950 52" /><path stroke-width="2" d="M 945 52 L 950 52"></path><text xmlns="http://www.w3.org/2000/svg" x="955" y="58">338</text><path d="M 945 16 L 950 16" stroke-width="2" /><path stroke-width="2" d="M 945 16 L 950 16"></path><text xmlns="http://www.w3.org/2000/svg" x="955" y="22">380</text><text xmlns="http://www.w3.org/2000/svg" x="987" y="175" transform="rotate(90.00,987,175)">Stargazers</text><path stroke-width="2" d="M 57.000000 346.000000 L 945 346" /><path stroke-width="2" d="M 57.000000 346.000000 L 945 346"></path><path stroke-width="2" d="M 58 346 L 58 351" /><path stroke-width="2" d="M 58 346 L 58 351"></path><text xmlns="http://www.w3.org/2000/svg" x="25" y="368">2023-04-02</text><path stroke-width="2" d="M 157 346 L 157 351" /><path stroke-width="2" d="M 157 346 L 157 351"></path><text xmlns="http://www.w3.org/2000/svg" x="124" y="368">2023-05-05</text><path stroke-width="2" d="M 256 346 L 256 351" /><path stroke-width="2" d="M 256 346 L 256 351"></path><text xmlns="http://www.w3.org/2000/svg" x="223" y="368">2023-06-07</text><path stroke-width="2" d="M 354 346 L 354 351" /><path stroke-width="2" d="M 354 346 L 354 351"></path><text xmlns="http://www.w3.org/2000/svg" x="321" y="368">2023-07-10</text><path stroke-width="2" d="M 453 346 L 453 351" /><path stroke-width="2" d="M 453 346 L 453 351"></path><text y="368" xmlns="http://www.w3.org/2000/svg" x="420">2023-08-13</text><path stroke-width="2" d="M 551 346 L 551 351" /><path stroke-width="2" d="M 551 346 L 551 351"></path><text xmlns="http://www.w3.org/2000/svg" x="518" y="368">2023-09-15</text><path stroke-width="2" d="M 650 346 L 650 351" /><path stroke-width="2" d="M 650 346 L 650 351"></path><text xmlns="http://www.w3.org/2000/svg" x="617" y="368">2023-10-18</text><path stroke-width="2" d="M 748 346 L 748 351" /><path d="M 748 346 L 748 351" stroke-width="2"></path><text xmlns="http://www.w3.org/2000/svg" x="715" y="368">2023-11-20</text><path stroke-width="2" d="M 847 346 L 847 351" /><path stroke-width="2" d="M 847 346 L 847 351"></path><text y="368" xmlns="http://www.w3.org/2000/svg" x="814">2023-12-23</text><path stroke-width="2" d="M 945 346 L 945 351" /><path stroke-width="2" d="M 945 346 L 945 351"></path><text xmlns="http://www.w3.org/2000/svg" x="912" y="368">2024-01-26</text><text xmlns="http://www.w3.org/2000/svg" x="487" y="390">Time</text></svg>