<svg xmlns="http://www.w3.org/2000/svg" xmlns:xlink="http://www.w3.org/1999/xlink" width="1024" height="400">\n<path  d="M 0 0
L 1024 0
L 1024 400
L 0 400
L 0 0" style="stroke-width:0;stroke:rgba(255,255,255,1.0);fill:rgba(255,255,255,1.0)"/><path  d="M 38 11
L 965 11
L 965 351
L 38 351
L 38 11" style="stroke-width:0;stroke:rgba(255,255,255,1.0);fill:rgba(255,255,255,1.0)"/><path  d="M 38 351
L 965 351" style="stroke-width:2;stroke:rgba(85,85,85,1.0);fill:none"/><path  d="M 38 351
L 38 356" style="stroke-width:2;stroke:rgba(85,85,85,1.0);fill:none"/><text x="5" y="373" style="stroke-width:0;stroke:none;fill:rgba(51,51,51,1.0);font-size:12.8px;font-family:'Roboto Medium',sans-serif">2023-04-02</text><path  d="M 154 351
L 154 356" style="stroke-width:2;stroke:rgba(85,85,85,1.0);fill:none"/><text x="121" y="373" style="stroke-width:0;stroke:none;fill:rgba(51,51,51,1.0);font-size:12.8px;font-family:'Roboto Medium',sans-serif">2023-05-04</text><path  d="M 270 351
L 270 356" style="stroke-width:2;stroke:rgba(85,85,85,1.0);fill:none"/><text x="237" y="373" style="stroke-width:0;stroke:none;fill:rgba(51,51,51,1.0);font-size:12.8px;font-family:'Roboto Medium',sans-serif">2023-06-05</text><path  d="M 386 351
L 386 356" style="stroke-width:2;stroke:rgba(85,85,85,1.0);fill:none"/><text x="353" y="373" style="stroke-width:0;stroke:none;fill:rgba(51,51,51,1.0);font-size:12.8px;font-family:'Roboto Medium',sans-serif">2023-07-08</text><path  d="M 502 351
L 502 356" style="stroke-width:2;stroke:rgba(85,85,85,1.0);fill:none"/><text x="469" y="373" style="stroke-width:0;stroke:none;fill:rgba(51,51,51,1.0);font-size:12.8px;font-family:'Roboto Medium',sans-serif">2023-08-09</text><path  d="M 618 351
L 618 356" style="stroke-width:2;stroke:rgba(85,85,85,1.0);fill:none"/><text x="585" y="373" style="stroke-width:0;stroke:none;fill:rgba(51,51,51,1.0);font-size:12.8px;font-family:'Roboto Medium',sans-serif">2023-09-10</text><path  d="M 734 351
L 734 356" style="stroke-width:2;stroke:rgba(85,85,85,1.0);fill:none"/><text x="701" y="373" style="stroke-width:0;stroke:none;fill:rgba(51,51,51,1.0);font-size:12.8px;font-family:'Roboto Medium',sans-serif">2023-10-12</text><path  d="M 850 351
L 850 356" style="stroke-width:2;stroke:rgba(85,85,85,1.0);fill:none"/><text x="817" y="373" style="stroke-width:0;stroke:none;fill:rgba(51,51,51,1.0);font-size:12.8px;font-family:'Roboto Medium',sans-serif">2023-11-13</text><path  d="M 965 351
L 965 356" style="stroke-width:2;stroke:rgba(85,85,85,1.0);fill:none"/><text x="932" y="373" style="stroke-width:0;stroke:none;fill:rgba(51,51,51,1.0);font-size:12.8px;font-family:'Roboto Medium',sans-serif">2023-12-16</text><text x="487" y="395" style="stroke-width:0;stroke:none;fill:rgba(51,51,51,1.0);font-size:12.8px;font-family:'Roboto Medium',sans-serif">Time</text><path  d="M 967 351
L 967 11" style="stroke-width:2;stroke:rgba(85,85,85,1.0);fill:none"/><path  d="M 967 351
L 972 351" style="stroke-width:2;stroke:rgba(85,85,85,1.0);fill:none"/><text x="977" y="357" style="stroke-width:0;stroke:none;fill:rgba(51,51,51,1.0);font-size:12.8px;font-family:'Roboto Medium',sans-serif">0</text><path  d="M 967 308
L 972 308" style="stroke-width:2;stroke:rgba(85,85,85,1.0);fill:none"/><text x="977" y="314" style="stroke-width:0;stroke:none;fill:rgba(51,51,51,1.0);font-size:12.8px;font-family:'Roboto Medium',sans-serif">43</text><path  d="M 967 266
L 972 266" style="stroke-width:2;stroke:rgba(85,85,85,1.0);fill:none"/><text x="977" y="272" style="stroke-width:0;stroke:none;fill:rgba(51,51,51,1.0);font-size:12.8px;font-family:'Roboto Medium',sans-serif">85</text><path  d="M 967 223
L 972 223" style="stroke-width:2;stroke:rgba(85,85,85,1.0);fill:none"/><text x="977" y="229" style="stroke-width:0;stroke:none;fill:rgba(51,51,51,1.0);font-size:12.8px;font-family:'Roboto Medium',sans-serif">128</text><path  d="M 967 181
L 972 181" style="stroke-width:2;stroke:rgba(85,85,85,1.0);fill:none"/><text x="977" y="187" style="stroke-width:0;stroke:none;fill:rgba(51,51,51,1.0);font-size:12.8px;font-family:'Roboto Medium',sans-serif">170</text><path  d="M 967 138
L 972 138" style="stroke-width:2;stroke:rgba(85,85,85,1.0);fill:none"/><text x="977" y="144" style="stroke-width:0;stroke:none;fill:rgba(51,51,51,1.0);font-size:12.8px;font-family:'Roboto Medium',sans-serif">213</text><path  d="M 967 96
L 972 96" style="stroke-width:2;stroke:rgba(85,85,85,1.0);fill:none"/><text x="977" y="102" style="stroke-width:0;stroke:none;fill:rgba(51,51,51,1.0);font-size:12.8px;font-family:'Roboto Medium',sans-serif">255</text><path  d="M 967 53
L 972 53" style="stroke-width:2;stroke:rgba(85,85,85,1.0);fill:none"/><text x="977" y="59" style="stroke-width:0;stroke:none;fill:rgba(51,51,51,1.0);font-size:12.8px;font-family:'Roboto Medium',sans-serif">298</text><path  d="M 967 11
L 972 11" style="stroke-width:2;stroke:rgba(85,85,85,1.0);fill:none"/><text x="977" y="17" style="stroke-width:0;stroke:none;fill:rgba(51,51,51,1.0);font-size:12.8px;font-family:'Roboto Medium',sans-serif">340</text><text x="1009" y="150" style="stroke-width:0;stroke:none;fill:rgba(51,51,51,1.0);font-size:12.8px;font-family:'Roboto Medium',sans-serif" transform="rotate(90.00,1009,150)">Stargazers</text><path  d="M 38 351
L 45 350
L 88 349
L 90 348
L 90 347
L 90 346
L 90 345
L 90 344
L 90 343
L 90 342
L 91 341
L 91 339
L 91 339
L 91 337
L 91 337
L 91 335
L 92 335
L 92 334
L 93 333
L 93 332
L 95 331
L 96 330
L 97 328
L 100 328
L 102 327
L 102 326
L 102 324
L 104 324
L 106 323
L 111 322
L 111 320
L 115 320
L 118 319
L 131 318
L 132 317
L 132 316
L 132 315
L 132 314
L 132 313
L 132 312
L 140 311
L 144 310
L 146 309
L 152 308
L 163 306
L 168 306
L 187 305
L 193 304
L 203 303
L 214 302
L 219 301
L 260 300
L 262 298
L 262 298
L 268 297
L 269 296
L 269 295
L 269 294
L 269 293
L 269 292
L 269 290
L 269 290
L 269 289
L 269 288
L 269 287
L 269 286
L 270 285
L 271 284
L 271 283
L 271 282
L 271 281
L 271 280
L 271 279
L 271 278
L 271 277
L 271 276
L 271 275
L 271 274
L 271 273
L 271 272
L 271 271
L 271 270
L 271 269
L 271 268
L 272 267
L 272 266
L 272 265
L 272 264
L 272 262
L 272 262
L 272 261
L 272 260
L 272 259
L 272 257
L 272 257
L 272 256
L 272 255
L 272 254
L 272 253
L 272 252
L 273 251
L 273 250
L 274 249
L 275 248
L 275 246
L 275 246
L 276 245
L 276 244
L 278 243
L 278 241
L 278 241
L 278 240
L 278 239
L 278 238
L 278 237
L 278 236
L 278 235
L 278 234
L 278 233
L 278 232
L 278 230
L 279 230
L 279 229
L 279 228
L 279 227
L 280 225
L 283 225
L 283 224
L 283 223
L 283 222
L 293 221
L 294 220
L 294 219
L 297 218
L 297 217
L 304 216
L 311 215
L 312 214
L 318 213
L 320 212
L 325 211
L 326 210
L 327 209
L 334 208
L 334 207
L 337 206
L 340 205
L 341 204
L 344 203
L 344 202
L 344 201
L 345 200
L 349 199
L 352 198
L 352 197
L 354 196
L 355 195
L 355 194
L 357 193
L 362 192
L 365 191
L 372 190
L 374 189
L 376 188
L 379 187
L 379 186
L 380 185
L 384 184
L 401 183
L 402 182
L 405 181
L 422 180
L 422 179
L 422 178
L 422 177
L 423 176
L 426 174
L 431 174
L 434 173
L 435 172
L 455 171
L 459 170
L 463 169
L 470 168
L 474 167
L 474 166
L 477 164
L 491 163
L 507 163
L 525 162
L 526 161
L 527 160
L 527 159
L 528 158
L 532 157
L 556 156
L 567 155
L 568 153
L 577 153
L 579 152
L 580 151
L 607 150
L 607 149
L 609 148
L 610 147
L 614 146
L 621 145
L 624 144
L 630 142
L 633 142
L 639 141
L 654 140
L 655 139
L 657 138
L 658 137
L 658 136
L 659 135
L 667 134
L 668 132
L 683 131
L 704 131
L 716 130
L 728 129
L 729 128
L 735 127
L 736 126
L 740 125
L 744 124
L 744 123
L 744 121
L 744 121
L 744 120
L 744 119
L 744 118
L 744 117
L 744 116
L 745 115
L 745 114
L 745 113
L 745 112
L 746 110
L 747 110
L 749 109
L 752 108
L 753 107
L 754 106
L 754 105
L 754 104
L 758 103
L 758 102
L 758 100
L 758 100
L 758 99
L 759 98
L 759 97
L 761 96
L 762 95
L 763 94
L 764 93
L 765 92
L 765 91
L 765 90
L 766 89
L 768 88
L 769 87
L 769 86
L 769 85
L 771 84
L 772 83
L 773 82
L 776 81
L 779 80
L 780 79
L 785 78
L 791 77
L 791 76
L 793 75
L 794 74
L 794 73
L 794 72
L 794 71
L 799 70
L 800 69
L 805 68
L 805 67
L 808 66
L 812 65
L 817 64
L 817 63
L 824 62
L 825 61
L 826 60
L 829 59
L 829 58
L 841 57
L 844 56
L 845 55
L 854 54
L 859 53
L 869 52
L 872 51
L 873 50
L 876 49
L 877 48
L 877 47
L 885 46
L 891 45
L 895 44
L 896 43
L 899 42
L 902 41
L 903 40
L 903 39
L 903 38
L 905 37
L 905 36
L 906 35
L 909 34
L 909 33
L 909 32
L 912 31
L 924 30
L 938 29
L 938 28
L 938 27
L 948 26
L 953 25
L 955 24
L 956 23
L 959 22
L 963 21
L 963 20
L 963 19
L 963 18
L 963 17
L 964 16
L 964 15
L 965 14
L 965 13" style="stroke-width:2;stroke:rgba(129,199,239,1.0);fill:none"/></svg>