<svg xmlns:xlink="http://www.w3.org/1999/xlink" width="1024px" height="400px" xmlns="http://www.w3.org/2000/svg"><style type="text/css">
path { fill: none; stroke: rgb(51,51,51); }
path.series { stroke: #6b63ff; }
rect.background { fill: rgb(255,255,255); stroke: none; }

text {
	stroke-width: 0;
	stroke: none;
	fill: rgba(51,51,51,1.0);
	font-size: 12.8px;
	font-family: 'Roboto Medium', sans-serif;
}
</style><rect class="background" rx="8" x="0" y="0" width="1024px" height="400px" /><rect y="0" width="1024px" height="400px" class="background" rx="8" x="0"></rect><path class="series" d="M 58 345 L 60 345 L 74 345 L 74 344 L 74 344 L 74 344 L 74 343 L 74 343 L 74 343 L 74 342 L 74 342 L 74 342 L 75 341 L 75 341 L 75 341 L 75 340 L 75 340 L 75 340 L 75 339 L 76 339 L 76 339 L 76 338 L 77 338 L 78 338 L 78 337 L 78 337 L 78 337 L 79 336 L 80 336 L 81 336 L 82 335 L 83 335 L 87 335 L 87 334 L 87 334 L 87 334 L 87 333 L 89 333 L 90 333 L 91 332 L 93 332 L 96 332 L 98 331 L 104 331 L 105 331 L 109 330 L 112 330 L 113 330 L 126 329 L 126 329 L 126 329 L 128 328 L 129 328 L 129 328 L 129 327 L 129 327 L 129 327 L 129 326 L 129 326 L 129 326 L 129 325 L 129 325 L 129 325 L 129 324 L 129 324 L 129 324 L 129 323 L 129 323 L 129 323 L 129 322 L 129 322 L 129 322 L 129 321 L 129 321 L 129 321 L 129 320 L 129 320 L 129 320 L 129 319 L 129 319 L 129 319 L 129 318 L 129 318 L 129 318 L 129 317 L 129 317 L 129 317 L 129 316 L 129 316 L 129 316 L 129 315 L 129 315 L 129 315 L 129 314 L 130 314 L 130 314 L 130 313 L 130 313 L 130 313 L 130 313 L 130 312 L 130 312 L 130 312 L 131 311 L 131 311 L 131 311 L 131 310 L 131 310 L 131 310 L 131 309 L 131 309 L 131 309 L 131 308 L 131 308 L 131 308 L 131 307 L 131 307 L 131 307 L 131 306 L 131 306 L 131 306 L 132 305 L 132 305 L 133 305 L 133 304 L 133 304 L 133 304 L 136 303 L 136 303 L 136 303 L 137 302 L 137 302 L 139 302 L 141 301 L 142 301 L 143 301 L 144 300 L 146 300 L 146 300 L 146 299 L 148 299 L 148 299 L 149 298 L 150 298 L 150 298 L 151 297 L 151 297 L 151 297 L 152 296 L 153 296 L 154 296 L 154 295 L 154 295 L 155 295 L 155 294 L 155 294 L 157 294 L 158 293 L 160 293 L 160 293 L 161 292 L 162 292 L 162 292 L 162 291 L 163 291 L 169 291 L 169 290 L 170 290 L 175 290 L 175 289 L 175 289 L 175 289 L 175 288 L 176 288 L 178 288 L 179 287 L 179 287 L 185 287 L 186 286 L 188 286 L 190 286 L 191 285 L 191 285 L 192 285 L 196 284 L 201 284 L 206 284 L 207 283 L 207 283 L 207 283 L 207 282 L 208 282 L 216 282 L 219 281 L 219 281 L 222 281 L 223 280 L 223 280 L 231 280 L 231 280 L 232 279 L 232 279 L 233 279 L 235 278 L 236 278 L 238 278 L 239 277 L 241 277 L 246 277 L 246 276 L 247 276 L 247 276 L 247 275 L 247 275 L 250 275 L 254 274 L 264 274 L 268 274 L 270 273 L 270 273 L 272 273 L 273 272 L 273 272 L 273 272 L 273 271 L 273 271 L 273 271 L 273 270 L 273 270 L 273 270 L 273 269 L 273 269 L 273 269 L 273 268 L 274 268 L 274 268 L 276 267 L 276 267 L 276 267 L 276 266 L 277 266 L 277 266 L 277 265 L 277 265 L 277 265 L 277 264 L 277 264 L 278 264 L 279 263 L 279 263 L 279 263 L 279 262 L 279 262 L 279 262 L 280 261 L 280 261 L 280 261 L 281 260 L 281 260 L 281 260 L 282 259 L 282 259 L 283 259 L 284 258 L 285 258 L 287 258 L 287 257 L 288 257 L 288 257 L 288 256 L 288 256 L 288 256 L 289 255 L 290 255 L 291 255 L 291 254 L 292 254 L 294 254 L 295 253 L 295 253 L 297 253 L 298 252 L 298 252 L 299 252 L 299 251 L 302 251 L 303 251 L 304 250 L 306 250 L 308 250 L 311 249 L 312 249 L 312 249 L 313 248 L 313 248 L 313 248 L 316 247 L 317 247 L 319 247 L 319 247 L 321 246 L 321 246 L 321 246 L 321 245 L 322 245 L 322 245 L 322 244 L 323 244 L 323 244 L 323 243 L 324 243 L 327 243 L 332 242 L 332 242 L 332 242 L 335 241 L 336 241 L 337 241 L 337 240 L 338 240 L 339 240 L 339 239 L 339 239 L 339 239 L 339 238 L 340 238 L 340 238 L 340 237 L 340 237 L 341 237 L 343 236 L 343 236 L 343 236 L 343 235 L 343 235 L 343 235 L 343 234 L 344 234 L 344 234 L 344 233 L 344 233 L 344 233 L 344 232 L 347 232 L 349 232 L 349 231 L 350 231 L 359 231 L 360 230 L 363 230 L 365 230 L 372 229 L 374 229 L 374 229 L 374 228 L 374 228 L 374 228 L 374 227 L 374 227 L 376 227 L 376 226 L 383 226 L 385 226 L 388 225 L 393 225 L 397 225 L 399 224 L 402 224 L 405 224 L 405 223 L 413 223 L 421 223 L 421 222 L 427 222 L 427 222 L 432 221 L 432 221 L 435 221 L 435 220 L 435 220 L 435 220 L 438 219 L 439 219 L 441 219 L 444 218 L 445 218 L 446 218 L 446 217 L 449 217 L 452 217 L 452 216 L 456 216 L 459 216 L 459 215 L 460 215 L 461 215 L 462 214 L 463 214 L 465 214 L 467 214 L 470 213 L 472 213 L 472 213 L 476 212 L 477 212 L 479 212 L 483 211 L 483 211 L 487 211 L 488 210 L 488 210 L 489 210 L 489 209 L 491 209 L 492 209 L 493 208 L 496 208 L 496 208 L 497 207 L 497 207 L 504 207 L 504 206 L 504 206 L 504 206 L 505 205 L 505 205 L 505 205 L 506 204 L 506 204 L 508 204 L 508 203 L 509 203 L 510 203 L 510 202 L 511 202 L 511 202 L 511 201 L 512 201 L 512 201 L 512 200 L 513 200 L 513 200 L 513 199 L 514 199 L 514 199 L 515 198 L 516 198 L 516 198 L 517 197 L 517 197 L 518 197 L 519 196 L 519 196 L 520 196 L 521 195 L 522 195 L 522 195 L 522 194 L 523 194 L 525 194 L 525 193 L 525 193 L 525 193 L 525 192 L 525 192 L 526 192 L 526 191 L 526 191 L 527 191 L 530 190 L 531 190 L 532 190 L 532 189 L 534 189 L 535 189 L 536 188 L 538 188 L 540 188 L 542 187 L 544 187 L 545 187 L 545 186 L 545 186 L 545 186 L 546 185 L 546 185 L 546 185 L 547 184 L 547 184 L 547 184 L 547 183 L 549 183 L 549 183 L 549 182 L 550 182 L 550 182 L 553 181 L 553 181 L 553 181 L 554 181 L 555 180 L 557 180 L 562 180 L 562 179 L 562 179 L 563 179 L 564 178 L 566 178 L 567 178 L 567 177 L 567 177 L 567 177 L 569 176 L 571 176 L 572 176 L 572 175 L 572 175 L 574 175 L 574 174 L 574 174 L 574 174 L 577 173 L 580 173 L 580 173 L 583 172 L 584 172 L 584 172 L 587 171 L 588 171 L 591 171 L 592 170 L 593 170 L 595 170 L 595 169 L 595 169 L 595 169 L 595 168 L 595 168 L 596 168 L 596 167 L 597 167 L 597 167 L 597 166 L 597 166 L 598 166 L 599 165 L 600 165 L 604 165 L 604 164 L 609 164 L 610 164 L 611 163 L 611 163 L 612 163 L 615 162 L 615 162 L 615 162 L 616 161 L 616 161 L 616 161 L 616 160 L 616 160 L 617 160 L 617 159 L 617 159 L 617 159 L 617 158 L 618 158 L 618 158 L 619 157 L 620 157 L 620 157 L 621 156 L 622 156 L 622 156 L 622 155 L 622 155 L 623 155 L 626 154 L 626 154 L 626 154 L 626 153 L 626 153 L 627 153 L 627 152 L 627 152 L 628 152 L 630 151 L 632 151 L 635 151 L 636 150 L 637 150 L 640 150 L 643 149 L 644 149 L 646 149 L 650 148 L 650 148 L 650 148 L 654 148 L 655 147 L 656 147 L 656 147 L 656 146 L 664 146 L 664 146 L 665 145 L 665 145 L 666 145 L 666 144 L 667 144 L 667 144 L 668 143 L 668 143 L 669 143 L 669 142 L 669 142 L 670 142 L 670 141 L 670 141 L 670 141 L 670 140 L 670 140 L 672 140 L 673 139 L 674 139 L 674 139 L 674 138 L 675 138 L 675 138 L 676 137 L 676 137 L 677 137 L 677 136 L 677 136 L 678 136 L 679 135 L 679 135 L 681 135 L 681 134 L 682 134 L 682 134 L 682 133 L 683 133 L 683 133 L 683 132 L 684 132 L 684 132 L 684 131 L 685 131 L 685 131 L 686 130 L 687 130 L 687 130 L 687 129 L 687 129 L 687 129 L 688 128 L 688 128 L 688 128 L 689 127 L 689 127 L 689 127 L 690 126 L 690 126 L 690 126 L 690 125 L 690 125 L 691 125 L 691 124 L 691 124 L 691 124 L 691 123 L 691 123 L 694 123 L 695 122 L 697 122 L 697 122 L 697 121 L 697 121 L 698 121 L 699 120 L 699 120 L 700 120 L 702 119 L 704 119 L 705 119 L 706 118 L 707 118 L 707 118 L 708 117 L 708 117 L 708 117 L 708 116 L 708 116 L 708 116 L 708 115 L 708 115 L 709 115 L 709 115 L 709 114 L 709 114 L 709 114 L 710 113 L 710 113 L 710 113 L 711 112 L 711 112 L 713 112 L 713 111 L 714 111 L 714 111 L 715 110 L 715 110 L 716 110 L 719 109 L 719 109 L 719 109 L 719 108 L 719 108 L 721 108 L 723 107 L 723 107 L 725 107 L 725 106 L 725 106 L 725 106 L 726 105 L 731 105 L 733 105 L 735 104 L 737 104 L 737 104 L 738 103 L 739 103 L 739 103 L 740 102 L 740 102 L 740 102 L 741 101 L 741 101 L 742 101 L 743 100 L 745 100 L 745 100 L 745 99 L 745 99 L 745 99 L 745 98 L 745 98 L 745 98 L 745 97 L 745 97 L 745 97 L 745 96 L 745 96 L 745 96 L 745 95 L 745 95 L 745 95 L 746 94 L 746 94 L 746 94 L 746 93 L 746 93 L 746 93 L 746 92 L 747 92 L 747 92 L 747 91 L 748 91 L 748 91 L 748 90 L 748 90 L 748 90 L 748 89 L 749 89 L 751 89 L 752 88 L 753 88 L 753 88 L 754 87 L 754 87 L 754 87 L 755 86 L 757 86 L 758 86 L 759 85 L 759 85 L 759 85 L 759 84 L 759 84 L 759 84 L 759 83 L 761 83 L 761 83 L 761 82 L 765 82 L 767 82 L 768 82 L 770 81 L 771 81 L 772 81 L 772 80 L 772 80 L 772 80 L 773 79 L 773 79 L 773 79 L 774 78 L 775 78 L 775 78 L 775 77 L 775 77 L 775 77 L 776 76 L 776 76 L 776 76 L 776 75 L 776 75 L 777 75 L 777 74 L 778 74 L 779 74 L 779 73 L 779 73 L 780 73 L 780 72 L 780 72 L 781 72 L 781 71 L 781 71 L 782 71 L 782 70 L 783 70 L 787 70 L 787 69 L 788 69 L 791 69 L 792 68 L 793 68 L 796 68 L 796 67 L 797 67 L 800 67 L 805 66 L 805 66 L 807 66 L 808 65 L 810 65 L 811 65 L 811 64 L 813 64 L 813 64 L 814 63 L 815 63 L 816 63 L 817 62 L 818 62 L 818 62 L 819 61 L 819 61 L 819 61 L 820 60 L 824 60 L 824 60 L 825 59 L 826 59 L 826 59 L 827 58 L 828 58 L 829 58 L 829 57 L 829 57 L 829 57 L 830 56 L 831 56 L 831 56 L 832 55 L 833 55 L 834 55 L 834 54 L 835 54 L 835 54 L 835 53 L 836 53 L 836 53 L 837 52 L 837 52 L 837 52 L 837 51 L 837 51 L 838 51 L 840 50 L 841 50 L 841 50 L 842 49 L 845 49 L 845 49 L 847 49 L 848 48 L 850 48 L 852 48 L 854 47 L 855 47 L 857 47 L 857 46 L 859 46 L 861 46 L 862 45 L 863 45 L 863 45 L 863 44 L 863 44 L 863 44 L 863 43 L 864 43 L 865 43 L 866 42 L 867 42 L 867 42 L 867 41 L 874 41 L 874 41 L 875 40 L 877 40 L 879 40 L 880 39 L 880 39 L 880 39 L 880 38 L 881 38 L 882 38 L 883 37 L 883 37 L 884 37 L 884 36 L 884 36 L 885 36 L 885 35 L 886 35 L 887 35 L 890 34 L 890 34 L 895 34 L 896 33 L 896 33 L 897 33 L 898 32 L 898 32 L 898 32 L 898 31 L 901 31 L 903 31 L 904 30 L 904 30 L 905 30 L 905 29 L 907 29 L 908 29 L 910 28 L 910 28 L 910 28 L 911 27 L 911 27 L 911 27 L 911 26 L 913 26 L 913 26 L 913 25 L 915 25 L 915 25 L 916 24 L 917 24 L 917 24 L 917 23 L 917 23 L 918 23 L 921 22 L 925 22 L 926 22 L 929 21 L 930 21 L 933 21 L 933 20 L 933 20 L 934 20 L 934 19 L 936 19 L 936 19 L 937 18" stroke-width="2" /><path stroke-width="2" class="series" d="M 58 345 L 60 345 L 74 345 L 74 344 L 74 344 L 74 344 L 74 343 L 74 343 L 74 343 L 74 342 L 74 342 L 74 342 L 75 341 L 75 341 L 75 341 L 75 340 L 75 340 L 75 340 L 75 339 L 76 339 L 76 339 L 76 338 L 77 338 L 78 338 L 78 337 L 78 337 L 78 337 L 79 336 L 80 336 L 81 336 L 82 335 L 83 335 L 87 335 L 87 334 L 87 334 L 87 334 L 87 333 L 89 333 L 90 333 L 91 332 L 93 332 L 96 332 L 98 331 L 104 331 L 105 331 L 109 330 L 112 330 L 113 330 L 126 329 L 126 329 L 126 329 L 128 328 L 129 328 L 129 328 L 129 327 L 129 327 L 129 327 L 129 326 L 129 326 L 129 326 L 129 325 L 129 325 L 129 325 L 129 324 L 129 324 L 129 324 L 129 323 L 129 323 L 129 323 L 129 322 L 129 322 L 129 322 L 129 321 L 129 321 L 129 321 L 129 320 L 129 320 L 129 320 L 129 319 L 129 319 L 129 319 L 129 318 L 129 318 L 129 318 L 129 317 L 129 317 L 129 317 L 129 316 L 129 316 L 129 316 L 129 315 L 129 315 L 129 315 L 129 314 L 130 314 L 130 314 L 130 313 L 130 313 L 130 313 L 130 313 L 130 312 L 130 312 L 130 312 L 131 311 L 131 311 L 131 311 L 131 310 L 131 310 L 131 310 L 131 309 L 131 309 L 131 309 L 131 308 L 131 308 L 131 308 L 131 307 L 131 307 L 131 307 L 131 306 L 131 306 L 131 306 L 132 305 L 132 305 L 133 305 L 133 304 L 133 304 L 133 304 L 136 303 L 136 303 L 136 303 L 137 302 L 137 302 L 139 302 L 141 301 L 142 301 L 143 301 L 144 300 L 146 300 L 146 300 L 146 299 L 148 299 L 148 299 L 149 298 L 150 298 L 150 298 L 151 297 L 151 297 L 151 297 L 152 296 L 153 296 L 154 296 L 154 295 L 154 295 L 155 295 L 155 294 L 155 294 L 157 294 L 158 293 L 160 293 L 160 293 L 161 292 L 162 292 L 162 292 L 162 291 L 163 291 L 169 291 L 169 290 L 170 290 L 175 290 L 175 289 L 175 289 L 175 289 L 175 288 L 176 288 L 178 288 L 179 287 L 179 287 L 185 287 L 186 286 L 188 286 L 190 286 L 191 285 L 191 285 L 192 285 L 196 284 L 201 284 L 206 284 L 207 283 L 207 283 L 207 283 L 207 282 L 208 282 L 216 282 L 219 281 L 219 281 L 222 281 L 223 280 L 223 280 L 231 280 L 231 280 L 232 279 L 232 279 L 233 279 L 235 278 L 236 278 L 238 278 L 239 277 L 241 277 L 246 277 L 246 276 L 247 276 L 247 276 L 247 275 L 247 275 L 250 275 L 254 274 L 264 274 L 268 274 L 270 273 L 270 273 L 272 273 L 273 272 L 273 272 L 273 272 L 273 271 L 273 271 L 273 271 L 273 270 L 273 270 L 273 270 L 273 269 L 273 269 L 273 269 L 273 268 L 274 268 L 274 268 L 276 267 L 276 267 L 276 267 L 276 266 L 277 266 L 277 266 L 277 265 L 277 265 L 277 265 L 277 264 L 277 264 L 278 264 L 279 263 L 279 263 L 279 263 L 279 262 L 279 262 L 279 262 L 280 261 L 280 261 L 280 261 L 281 260 L 281 260 L 281 260 L 282 259 L 282 259 L 283 259 L 284 258 L 285 258 L 287 258 L 287 257 L 288 257 L 288 257 L 288 256 L 288 256 L 288 256 L 289 255 L 290 255 L 291 255 L 291 254 L 292 254 L 294 254 L 295 253 L 295 253 L 297 253 L 298 252 L 298 252 L 299 252 L 299 251 L 302 251 L 303 251 L 304 250 L 306 250 L 308 250 L 311 249 L 312 249 L 312 249 L 313 248 L 313 248 L 313 248 L 316 247 L 317 247 L 319 247 L 319 247 L 321 246 L 321 246 L 321 246 L 321 245 L 322 245 L 322 245 L 322 244 L 323 244 L 323 244 L 323 243 L 324 243 L 327 243 L 332 242 L 332 242 L 332 242 L 335 241 L 336 241 L 337 241 L 337 240 L 338 240 L 339 240 L 339 239 L 339 239 L 339 239 L 339 238 L 340 238 L 340 238 L 340 237 L 340 237 L 341 237 L 343 236 L 343 236 L 343 236 L 343 235 L 343 235 L 343 235 L 343 234 L 344 234 L 344 234 L 344 233 L 344 233 L 344 233 L 344 232 L 347 232 L 349 232 L 349 231 L 350 231 L 359 231 L 360 230 L 363 230 L 365 230 L 372 229 L 374 229 L 374 229 L 374 228 L 374 228 L 374 228 L 374 227 L 374 227 L 376 227 L 376 226 L 383 226 L 385 226 L 388 225 L 393 225 L 397 225 L 399 224 L 402 224 L 405 224 L 405 223 L 413 223 L 421 223 L 421 222 L 427 222 L 427 222 L 432 221 L 432 221 L 435 221 L 435 220 L 435 220 L 435 220 L 438 219 L 439 219 L 441 219 L 444 218 L 445 218 L 446 218 L 446 217 L 449 217 L 452 217 L 452 216 L 456 216 L 459 216 L 459 215 L 460 215 L 461 215 L 462 214 L 463 214 L 465 214 L 467 214 L 470 213 L 472 213 L 472 213 L 476 212 L 477 212 L 479 212 L 483 211 L 483 211 L 487 211 L 488 210 L 488 210 L 489 210 L 489 209 L 491 209 L 492 209 L 493 208 L 496 208 L 496 208 L 497 207 L 497 207 L 504 207 L 504 206 L 504 206 L 504 206 L 505 205 L 505 205 L 505 205 L 506 204 L 506 204 L 508 204 L 508 203 L 509 203 L 510 203 L 510 202 L 511 202 L 511 202 L 511 201 L 512 201 L 512 201 L 512 200 L 513 200 L 513 200 L 513 199 L 514 199 L 514 199 L 515 198 L 516 198 L 516 198 L 517 197 L 517 197 L 518 197 L 519 196 L 519 196 L 520 196 L 521 195 L 522 195 L 522 195 L 522 194 L 523 194 L 525 194 L 525 193 L 525 193 L 525 193 L 525 192 L 525 192 L 526 192 L 526 191 L 526 191 L 527 191 L 530 190 L 531 190 L 532 190 L 532 189 L 534 189 L 535 189 L 536 188 L 538 188 L 540 188 L 542 187 L 544 187 L 545 187 L 545 186 L 545 186 L 545 186 L 546 185 L 546 185 L 546 185 L 547 184 L 547 184 L 547 184 L 547 183 L 549 183 L 549 183 L 549 182 L 550 182 L 550 182 L 553 181 L 553 181 L 553 181 L 554 181 L 555 180 L 557 180 L 562 180 L 562 179 L 562 179 L 563 179 L 564 178 L 566 178 L 567 178 L 567 177 L 567 177 L 567 177 L 569 176 L 571 176 L 572 176 L 572 175 L 572 175 L 574 175 L 574 174 L 574 174 L 574 174 L 577 173 L 580 173 L 580 173 L 583 172 L 584 172 L 584 172 L 587 171 L 588 171 L 591 171 L 592 170 L 593 170 L 595 170 L 595 169 L 595 169 L 595 169 L 595 168 L 595 168 L 596 168 L 596 167 L 597 167 L 597 167 L 597 166 L 597 166 L 598 166 L 599 165 L 600 165 L 604 165 L 604 164 L 609 164 L 610 164 L 611 163 L 611 163 L 612 163 L 615 162 L 615 162 L 615 162 L 616 161 L 616 161 L 616 161 L 616 160 L 616 160 L 617 160 L 617 159 L 617 159 L 617 159 L 617 158 L 618 158 L 618 158 L 619 157 L 620 157 L 620 157 L 621 156 L 622 156 L 622 156 L 622 155 L 622 155 L 623 155 L 626 154 L 626 154 L 626 154 L 626 153 L 626 153 L 627 153 L 627 152 L 627 152 L 628 152 L 630 151 L 632 151 L 635 151 L 636 150 L 637 150 L 640 150 L 643 149 L 644 149 L 646 149 L 650 148 L 650 148 L 650 148 L 654 148 L 655 147 L 656 147 L 656 147 L 656 146 L 664 146 L 664 146 L 665 145 L 665 145 L 666 145 L 666 144 L 667 144 L 667 144 L 668 143 L 668 143 L 669 143 L 669 142 L 669 142 L 670 142 L 670 141 L 670 141 L 670 141 L 670 140 L 670 140 L 672 140 L 673 139 L 674 139 L 674 139 L 674 138 L 675 138 L 675 138 L 676 137 L 676 137 L 677 137 L 677 136 L 677 136 L 678 136 L 679 135 L 679 135 L 681 135 L 681 134 L 682 134 L 682 134 L 682 133 L 683 133 L 683 133 L 683 132 L 684 132 L 684 132 L 684 131 L 685 131 L 685 131 L 686 130 L 687 130 L 687 130 L 687 129 L 687 129 L 687 129 L 688 128 L 688 128 L 688 128 L 689 127 L 689 127 L 689 127 L 690 126 L 690 126 L 690 126 L 690 125 L 690 125 L 691 125 L 691 124 L 691 124 L 691 124 L 691 123 L 691 123 L 694 123 L 695 122 L 697 122 L 697 122 L 697 121 L 697 121 L 698 121 L 699 120 L 699 120 L 700 120 L 702 119 L 704 119 L 705 119 L 706 118 L 707 118 L 707 118 L 708 117 L 708 117 L 708 117 L 708 116 L 708 116 L 708 116 L 708 115 L 708 115 L 709 115 L 709 115 L 709 114 L 709 114 L 709 114 L 710 113 L 710 113 L 710 113 L 711 112 L 711 112 L 713 112 L 713 111 L 714 111 L 714 111 L 715 110 L 715 110 L 716 110 L 719 109 L 719 109 L 719 109 L 719 108 L 719 108 L 721 108 L 723 107 L 723 107 L 725 107 L 725 106 L 725 106 L 725 106 L 726 105 L 731 105 L 733 105 L 735 104 L 737 104 L 737 104 L 738 103 L 739 103 L 739 103 L 740 102 L 740 102 L 740 102 L 741 101 L 741 101 L 742 101 L 743 100 L 745 100 L 745 100 L 745 99 L 745 99 L 745 99 L 745 98 L 745 98 L 745 98 L 745 97 L 745 97 L 745 97 L 745 96 L 745 96 L 745 96 L 745 95 L 745 95 L 745 95 L 746 94 L 746 94 L 746 94 L 746 93 L 746 93 L 746 93 L 746 92 L 747 92 L 747 92 L 747 91 L 748 91 L 748 91 L 748 90 L 748 90 L 748 90 L 748 89 L 749 89 L 751 89 L 752 88 L 753 88 L 753 88 L 754 87 L 754 87 L 754 87 L 755 86 L 757 86 L 758 86 L 759 85 L 759 85 L 759 85 L 759 84 L 759 84 L 759 84 L 759 83 L 761 83 L 761 83 L 761 82 L 765 82 L 767 82 L 768 82 L 770 81 L 771 81 L 772 81 L 772 80 L 772 80 L 772 80 L 773 79 L 773 79 L 773 79 L 774 78 L 775 78 L 775 78 L 775 77 L 775 77 L 775 77 L 776 76 L 776 76 L 776 76 L 776 75 L 776 75 L 777 75 L 777 74 L 778 74 L 779 74 L 779 73 L 779 73 L 780 73 L 780 72 L 780 72 L 781 72 L 781 71 L 781 71 L 782 71 L 782 70 L 783 70 L 787 70 L 787 69 L 788 69 L 791 69 L 792 68 L 793 68 L 796 68 L 796 67 L 797 67 L 800 67 L 805 66 L 805 66 L 807 66 L 808 65 L 810 65 L 811 65 L 811 64 L 813 64 L 813 64 L 814 63 L 815 63 L 816 63 L 817 62 L 818 62 L 818 62 L 819 61 L 819 61 L 819 61 L 820 60 L 824 60 L 824 60 L 825 59 L 826 59 L 826 59 L 827 58 L 828 58 L 829 58 L 829 57 L 829 57 L 829 57 L 830 56 L 831 56 L 831 56 L 832 55 L 833 55 L 834 55 L 834 54 L 835 54 L 835 54 L 835 53 L 836 53 L 836 53 L 837 52 L 837 52 L 837 52 L 837 51 L 837 51 L 838 51 L 840 50 L 841 50 L 841 50 L 842 49 L 845 49 L 845 49 L 847 49 L 848 48 L 850 48 L 852 48 L 854 47 L 855 47 L 857 47 L 857 46 L 859 46 L 861 46 L 862 45 L 863 45 L 863 45 L 863 44 L 863 44 L 863 44 L 863 43 L 864 43 L 865 43 L 866 42 L 867 42 L 867 42 L 867 41 L 874 41 L 874 41 L 875 40 L 877 40 L 879 40 L 880 39 L 880 39 L 880 39 L 880 38 L 881 38 L 882 38 L 883 37 L 883 37 L 884 37 L 884 36 L 884 36 L 885 36 L 885 35 L 886 35 L 887 35 L 890 34 L 890 34 L 895 34 L 896 33 L 896 33 L 897 33 L 898 32 L 898 32 L 898 32 L 898 31 L 901 31 L 903 31 L 904 30 L 904 30 L 905 30 L 905 29 L 907 29 L 908 29 L 910 28 L 910 28 L 910 28 L 911 27 L 911 27 L 911 27 L 911 26 L 913 26 L 913 26 L 913 25 L 915 25 L 915 25 L 916 24 L 917 24 L 917 24 L 917 23 L 917 23 L 918 23 L 921 22 L 925 22 L 926 22 L 929 21 L 930 21 L 933 21 L 933 20 L 933 20 L 934 20 L 934 19 L 936 19 L 936 19 L 937 18"></path><path stroke-width="2" d="M 937 346 L 937.000000 15.000000" /><path stroke-width="2" d="M 937 346 L 937.000000 15.000000"></path><path stroke-width="2" d="M 937 346 L 942 346" /><path stroke-width="2" d="M 937 346 L 942 346"></path><text xmlns="http://www.w3.org/2000/svg" x="947" y="352">0</text><path d="M 937 309 L 942 309" stroke-width="2" /><path d="M 937 309 L 942 309" stroke-width="2"></path><text xmlns="http://www.w3.org/2000/svg" x="947" y="315">112</text><path stroke-width="2" d="M 937 272 L 942 272" /><path stroke-width="2" d="M 937 272 L 942 272"></path><text xmlns="http://www.w3.org/2000/svg" x="947" y="278">223</text><path stroke-width="2" d="M 937 235 L 942 235" /><path d="M 937 235 L 942 235" stroke-width="2"></path><text xmlns="http://www.w3.org/2000/svg" x="947" y="241">334</text><path stroke-width="2" d="M 937 199 L 942 199" /><path stroke-width="2" d="M 937 199 L 942 199"></path><text xmlns="http://www.w3.org/2000/svg" x="947" y="205">445</text><path stroke-width="2" d="M 937 162 L 942 162" /><path stroke-width="2" d="M 937 162 L 942 162"></path><text xmlns="http://www.w3.org/2000/svg" x="947" y="168">556</text><path d="M 937 125 L 942 125" stroke-width="2" /><path d="M 937 125 L 942 125" stroke-width="2"></path><text xmlns="http://www.w3.org/2000/svg" x="947" y="131">667</text><path d="M 937 89 L 942 89" stroke-width="2" /><path stroke-width="2" d="M 937 89 L 942 89"></path><text xmlns="http://www.w3.org/2000/svg" x="947" y="95">778</text><path stroke-width="2" d="M 937 52 L 942 52" /><path stroke-width="2" d="M 937 52 L 942 52"></path><text y="58" xmlns="http://www.w3.org/2000/svg" x="947">889</text><path stroke-width="2" d="M 937 16 L 942 16" /><path d="M 937 16 L 942 16" stroke-width="2"></path><text y="22" xmlns="http://www.w3.org/2000/svg" x="947">1000</text><text transform="rotate(90.00,987,175)" xmlns="http://www.w3.org/2000/svg" x="987" y="175">Stargazers</text><path stroke-width="2" d="M 57.000000 346.000000 L 937 346" /><path stroke-width="2" d="M 57.000000 346.000000 L 937 346"></path><path stroke-width="2" d="M 58 346 L 58 351" /><path stroke-width="2" d="M 58 346 L 58 351"></path><text xmlns="http://www.w3.org/2000/svg" x="25" y="368">2023-04-02</text><path stroke-width="2" d="M 156 346 L 156 351" /><path stroke-width="2" d="M 156 346 L 156 351"></path><text xmlns="http://www.w3.org/2000/svg" x="123" y="368">2023-06-30</text><path stroke-width="2" d="M 254 346 L 254 351" /><path stroke-width="2" d="M 254 346 L 254 351"></path><text xmlns="http://www.w3.org/2000/svg" x="221" y="368">2023-09-28</text><path stroke-width="2" d="M 351 346 L 351 351" /><path stroke-width="2" d="M 351 346 L 351 351"></path><text x="318" y="368" xmlns="http://www.w3.org/2000/svg">2023-12-26</text><path d="M 449 346 L 449 351" stroke-width="2" /><path stroke-width="2" d="M 449 346 L 449 351"></path><text xmlns="http://www.w3.org/2000/svg" x="416" y="368">2024-03-24</text><path stroke-width="2" d="M 547 346 L 547 351" /><path stroke-width="2" d="M 547 346 L 547 351"></path><text xmlns="http://www.w3.org/2000/svg" x="514" y="368">2024-06-22</text><path stroke-width="2" d="M 644 346 L 644 351" /><path stroke-width="2" d="M 644 346 L 644 351"></path><text xmlns="http://www.w3.org/2000/svg" x="611" y="368">2024-09-19</text><path d="M 742 346 L 742 351" stroke-width="2" /><path stroke-width="2" d="M 742 346 L 742 351"></path><text xmlns="http://www.w3.org/2000/svg" x="709" y="368">2024-12-17</text><path stroke-width="2" d="M 840 346 L 840 351" /><path stroke-width="2" d="M 840 346 L 840 351"></path><text y="368" xmlns="http://www.w3.org/2000/svg" x="807">2025-03-17</text><path stroke-width="2" d="M 937 346 L 937 351" /><path stroke-width="2" d="M 937 346 L 937 351"></path><text xmlns="http://www.w3.org/2000/svg" x="904" y="368">2025-06-14</text><text y="390" xmlns="http://www.w3.org/2000/svg" x="483">Time</text></svg>