<svg xmlns="http://www.w3.org/2000/svg" xmlns:xlink="http://www.w3.org/1999/xlink" width="1024px" height="400px"><style type="text/css">
path { fill: none; stroke: rgb(51,51,51); }
path.series { stroke: #6b63ff; }
rect.background { fill: rgb(255,255,255); stroke: none; }

text {
	stroke-width: 0;
	stroke: none;
	fill: rgba(51,51,51,1.0);
	font-size: 12.8px;
	font-family: 'Roboto Medium', sans-serif;
}
</style><rect rx="8" x="0" y="0" width="1024px" height="400px" class="background" /><rect class="background" rx="8" x="0" y="0" width="1024px" height="400px"></rect><path class="series" d="M 58 345 L 61 344 L 80 344 L 81 343 L 81 343 L 81 342 L 81 342 L 81 341 L 81 341 L 81 340 L 81 340 L 81 339 L 82 339 L 82 338 L 82 338 L 82 337 L 82 337 L 82 336 L 82 336 L 83 335 L 84 335 L 84 334 L 85 334 L 86 333 L 86 333 L 86 332 L 87 332 L 88 331 L 90 331 L 90 330 L 92 330 L 93 329 L 99 328 L 99 328 L 99 327 L 99 327 L 99 326 L 100 326 L 103 325 L 104 325 L 105 324 L 108 324 L 113 323 L 115 323 L 123 322 L 126 322 L 131 321 L 135 321 L 138 320 L 155 320 L 156 319 L 157 319 L 159 318 L 159 318 L 159 317 L 159 317 L 159 316 L 159 316 L 159 315 L 159 315 L 159 314 L 160 314 L 160 313 L 160 313 L 160 312 L 160 311 L 160 311 L 160 310 L 160 310 L 160 309 L 160 309 L 160 308 L 160 308 L 160 307 L 160 307 L 160 306 L 160 306 L 160 305 L 160 305 L 160 304 L 160 304 L 160 303 L 161 303 L 161 302 L 161 302 L 161 301 L 161 301 L 161 300 L 161 300 L 161 299 L 161 299 L 161 298 L 161 298 L 161 297 L 161 297 L 161 296 L 161 295 L 161 295 L 161 294 L 161 294 L 161 293 L 162 293 L 162 292 L 162 292 L 162 291 L 163 291 L 163 290 L 163 290 L 163 289 L 164 289 L 164 288 L 164 288 L 164 287 L 164 287 L 164 286 L 164 286 L 164 285 L 164 285 L 164 284 L 164 284 L 164 283 L 164 283 L 164 282 L 164 282 L 165 281 L 166 281 L 166 280 L 166 280 L 170 279 L 170 278 L 170 278 L 172 277 L 172 277 L 175 276 L 178 276 L 178 275 L 181 275 L 182 274 L 184 274 L 184 273 L 185 273 L 188 272 L 188 272 L 189 271 L 190 271 L 191 270 L 192 270 L 192 269 L 192 269 L 193 268 L 194 268 L 196 267 L 196 267 L 197 266 L 197 266 L 197 265 L 198 265 L 200 264 L 202 264 L 204 263 L 205 262 L 206 262 L 208 261 L 208 261 L 208 260 L 210 260 L 217 259 L 218 259 L 219 258 L 226 258 L 226 257 L 227 257 L 227 256 L 227 256 L 228 255 L 230 255 L 232 254 L 232 254 L 241 253 L 243 253 L 245 252 L 247 252 L 249 251 L 249 251 L 250 250 L 257 250 L 264 249 L 271 249 L 272 248 L 272 248 L 272 247 L 273 247 L 275 246 L 285 245 L 290 245 L 290 244 L 294 244 L 295 243 L 296 243 L 308 242 L 308 242 L 308 241 L 309 241 L 310 240 L 314 240 L 315 239 L 317 239 L 319 238 L 321 238 L 328 237 L 328 237 L 330 236 L 330 236 L 330 235 L 330 235 L 334 234 L 341 234 L 355 233 L 361 233 L 364 232 L 364 232 L 366 231 L 367 231 L 367 230 L 367 229 L 367 229 L 367 228 L 367 228 L 367 227 L 367 227 L 368 226 L 368 226 L 368 225 L 368 225 L 368 224 L 368 224 L 369 223 L 371 223 L 372 222 L 372 222 L 372 221 L 372 221 L 374 220 L 374 220 L 374 219 L 374 219 L 374 218 L 374 218 L 374 217 L 375 217 L 376 216 L 376 216 L 377 215 L 377 215 L 377 214 L 377 214 L 378 213 L 378 212 L 378 212 L 378 211 L 379 211 L 380 210 L 380 210 L 381 209 L 383 209 L 383 208 L 385 208 L 388 207 L 388 207 L 389 206 L 389 206 L 389 205 L 389 205 L 389 204 L 391 204 L 392 203 L 394 203 L 394 202 L 395 202 L 397 201 L 399 201 L 399 200 L 402 200 L 403 199 L 403 199 L 405 198 L 405 198 L 410 197 L 411 196 L 412 196 L 416 195 L 418 195 L 422 194 L 423 194 L 424 193 L 425 193 L 426 192 L 426 192 L 429 191 L 432 191 L 434 190 L 434 190 L 435 189 L 437 189 L 437 188 L 437 188 L 437 187 L 438 187 L 438 186 L 438 186 L 440 185 L 440 185 L 440 184 L 441 184 L 446 183 L 452 183 L 452 182 L 453 182 L 457 181 L 459 181 L 460 180 L 460 179 L 462 179 L 463 178 L 463 178 L 463 177 L 463 177 L 463 176 L 464 176 L 464 175 L 464 175 L 464 174 L 465 174 L 468 173 L 468 173 L 468 172 L 469 172 L 469 171 L 469 171 L 469 170 L 469 170 L 469 169 L 469 169 L 469 168 L 470 168 L 470 167 L 474 167 L 478 166 L 478 166 L 479 165 L 492 165 L 493 164 L 497 163 L 500 163 L 508 162 L 510 162 L 513 161 L 513 161 L 513 160 L 513 160 L 514 159 L 514 159 L 514 158 L 514 158 L 515 157 L 517 157 L 526 156 L 529 156 L 533 155 L 540 155 L 546 154 L 550 154 L 553 153 L 558 153 L 559 152 L 570 152 L 581 151 L 581 151 L 589 150 L 590 150 L 596 149 L 597 149 L 601 148 L 601 148 L 602 147 L 602 146 L 605 146 L 607 145 L 610 145 L 615 144 L 615 144 L 617 143 L 617 143 L 621 142 L 626 142 L 626 141 L 631 141 L 635 140 L 636 140 L 637 139 L 639 139 L 640 138 L 641 138 L 645 137 L 648 137 L 651 136 L 654 136 L 654 135 L 660 135 L 661 134 L 665 134 L 670 133 L 670 133 L 676 132 L 677 132 L 677 131 L 679 130 L 680 130 L 682 129 L 683 129 L 685 128 L 689 128 L 690 127 L 690 127 L 691 126 L 700 126 L 700 125 L 701 125 L 701 124 L 702 124 L 702 123 L 703 123 L 703 122 L 704 122 L 706 121 L 706 121 L 708 120 L 709 120 L 710 119 L 710 119 L 711 118 L 711 118 L 712 117 L 713 117 L 713 116 L 714 116 L 714 115 L 714 115 L 714 114 L 715 113 L 717 113 L 717 112 L 718 112 L 719 111 L 719 111 L 721 110 L 722 110 L 722 109 L 723 109 L 725 108 L 726 108 L 727 107 L 727 107 L 728 106 L 730 106 L 730 105 L 730 105 L 731 104 L 731 104 L 731 103 L 732 103 L 732 102 L 733 102 L 734 101 L 738 101 L 739 100 L 741 100 L 741 99 L 744 99 L 746 98 L 746 97 L 749 97 L 752 96 L 755 96 L 758 95 L 759 95 L 759 94 L 760 94 L 760 93 L 761 93 L 761 92 L 761 92 L 762 91 L 762 91 L 762 90 L 763 90 L 765 89 L 766 89 L 766 88 L 767 88 L 767 87 L 771 87 L 771 86 L 771 86 L 772 85 L 774 85 L 777 84 L 780 84 L 785 83 L 785 83 L 785 82 L 785 82 L 788 81 L 790 80 L 791 80 L 791 79 L 791 79 L 792 78 L 794 78 L 798 77 L 798 77 L 799 76 L 799 76 L 801 75 L 802 75 L 802 74 L 802 74 L 802 73 L 805 73 L 810 72 L 810 72 L 815 71 L 815 71 L 816 70 L 821 70 L 822 69 L 825 69 L 828 68 L 830 68 L 831 67 L 831 67 L 832 66 L 832 66 L 832 65 L 832 64 L 833 64 L 834 63 L 834 63 L 835 62 L 835 62 L 835 61 L 837 61 L 838 60 L 838 60 L 844 59 L 845 59 L 851 58 L 854 58 L 854 57 L 855 57 L 856 56 L 859 56 L 860 55 L 861 55 L 861 54 L 862 54 L 862 53 L 862 53 L 862 52 L 862 52 L 863 51 L 863 51 L 863 50 L 863 50 L 864 49 L 865 49 L 865 48 L 865 47 L 867 47 L 867 46 L 868 46 L 869 45 L 870 45 L 870 44 L 870 44 L 871 43 L 873 43 L 876 42 L 876 42 L 876 41 L 876 41 L 877 40 L 878 40 L 878 39 L 878 39 L 880 38 L 882 38 L 885 37 L 889 37 L 890 36 L 892 36 L 897 35 L 901 35 L 902 34 L 905 34 L 910 33 L 910 33 L 911 32 L 917 31 L 918 31 L 919 30 L 920 30 L 920 29 L 931 29 L 931 28 L 933 28 L 933 27 L 934 27 L 934 26 L 936 26 L 936 25 L 936 25 L 938 24 L 938 24 L 938 23 L 939 23 L 939 22 L 939 22 L 939 21 L 940 21 L 940 20 L 940 20 L 941 19 L 942 19 L 944 18 L 944 18 L 945 17 L 945 17 L 945 16" stroke-width="2" /><path stroke-width="2" class="series" d="M 58 345 L 61 344 L 80 344 L 81 343 L 81 343 L 81 342 L 81 342 L 81 341 L 81 341 L 81 340 L 81 340 L 81 339 L 82 339 L 82 338 L 82 338 L 82 337 L 82 337 L 82 336 L 82 336 L 83 335 L 84 335 L 84 334 L 85 334 L 86 333 L 86 333 L 86 332 L 87 332 L 88 331 L 90 331 L 90 330 L 92 330 L 93 329 L 99 328 L 99 328 L 99 327 L 99 327 L 99 326 L 100 326 L 103 325 L 104 325 L 105 324 L 108 324 L 113 323 L 115 323 L 123 322 L 126 322 L 131 321 L 135 321 L 138 320 L 155 320 L 156 319 L 157 319 L 159 318 L 159 318 L 159 317 L 159 317 L 159 316 L 159 316 L 159 315 L 159 315 L 159 314 L 160 314 L 160 313 L 160 313 L 160 312 L 160 311 L 160 311 L 160 310 L 160 310 L 160 309 L 160 309 L 160 308 L 160 308 L 160 307 L 160 307 L 160 306 L 160 306 L 160 305 L 160 305 L 160 304 L 160 304 L 160 303 L 161 303 L 161 302 L 161 302 L 161 301 L 161 301 L 161 300 L 161 300 L 161 299 L 161 299 L 161 298 L 161 298 L 161 297 L 161 297 L 161 296 L 161 295 L 161 295 L 161 294 L 161 294 L 161 293 L 162 293 L 162 292 L 162 292 L 162 291 L 163 291 L 163 290 L 163 290 L 163 289 L 164 289 L 164 288 L 164 288 L 164 287 L 164 287 L 164 286 L 164 286 L 164 285 L 164 285 L 164 284 L 164 284 L 164 283 L 164 283 L 164 282 L 164 282 L 165 281 L 166 281 L 166 280 L 166 280 L 170 279 L 170 278 L 170 278 L 172 277 L 172 277 L 175 276 L 178 276 L 178 275 L 181 275 L 182 274 L 184 274 L 184 273 L 185 273 L 188 272 L 188 272 L 189 271 L 190 271 L 191 270 L 192 270 L 192 269 L 192 269 L 193 268 L 194 268 L 196 267 L 196 267 L 197 266 L 197 266 L 197 265 L 198 265 L 200 264 L 202 264 L 204 263 L 205 262 L 206 262 L 208 261 L 208 261 L 208 260 L 210 260 L 217 259 L 218 259 L 219 258 L 226 258 L 226 257 L 227 257 L 227 256 L 227 256 L 228 255 L 230 255 L 232 254 L 232 254 L 241 253 L 243 253 L 245 252 L 247 252 L 249 251 L 249 251 L 250 250 L 257 250 L 264 249 L 271 249 L 272 248 L 272 248 L 272 247 L 273 247 L 275 246 L 285 245 L 290 245 L 290 244 L 294 244 L 295 243 L 296 243 L 308 242 L 308 242 L 308 241 L 309 241 L 310 240 L 314 240 L 315 239 L 317 239 L 319 238 L 321 238 L 328 237 L 328 237 L 330 236 L 330 236 L 330 235 L 330 235 L 334 234 L 341 234 L 355 233 L 361 233 L 364 232 L 364 232 L 366 231 L 367 231 L 367 230 L 367 229 L 367 229 L 367 228 L 367 228 L 367 227 L 367 227 L 368 226 L 368 226 L 368 225 L 368 225 L 368 224 L 368 224 L 369 223 L 371 223 L 372 222 L 372 222 L 372 221 L 372 221 L 374 220 L 374 220 L 374 219 L 374 219 L 374 218 L 374 218 L 374 217 L 375 217 L 376 216 L 376 216 L 377 215 L 377 215 L 377 214 L 377 214 L 378 213 L 378 212 L 378 212 L 378 211 L 379 211 L 380 210 L 380 210 L 381 209 L 383 209 L 383 208 L 385 208 L 388 207 L 388 207 L 389 206 L 389 206 L 389 205 L 389 205 L 389 204 L 391 204 L 392 203 L 394 203 L 394 202 L 395 202 L 397 201 L 399 201 L 399 200 L 402 200 L 403 199 L 403 199 L 405 198 L 405 198 L 410 197 L 411 196 L 412 196 L 416 195 L 418 195 L 422 194 L 423 194 L 424 193 L 425 193 L 426 192 L 426 192 L 429 191 L 432 191 L 434 190 L 434 190 L 435 189 L 437 189 L 437 188 L 437 188 L 437 187 L 438 187 L 438 186 L 438 186 L 440 185 L 440 185 L 440 184 L 441 184 L 446 183 L 452 183 L 452 182 L 453 182 L 457 181 L 459 181 L 460 180 L 460 179 L 462 179 L 463 178 L 463 178 L 463 177 L 463 177 L 463 176 L 464 176 L 464 175 L 464 175 L 464 174 L 465 174 L 468 173 L 468 173 L 468 172 L 469 172 L 469 171 L 469 171 L 469 170 L 469 170 L 469 169 L 469 169 L 469 168 L 470 168 L 470 167 L 474 167 L 478 166 L 478 166 L 479 165 L 492 165 L 493 164 L 497 163 L 500 163 L 508 162 L 510 162 L 513 161 L 513 161 L 513 160 L 513 160 L 514 159 L 514 159 L 514 158 L 514 158 L 515 157 L 517 157 L 526 156 L 529 156 L 533 155 L 540 155 L 546 154 L 550 154 L 553 153 L 558 153 L 559 152 L 570 152 L 581 151 L 581 151 L 589 150 L 590 150 L 596 149 L 597 149 L 601 148 L 601 148 L 602 147 L 602 146 L 605 146 L 607 145 L 610 145 L 615 144 L 615 144 L 617 143 L 617 143 L 621 142 L 626 142 L 626 141 L 631 141 L 635 140 L 636 140 L 637 139 L 639 139 L 640 138 L 641 138 L 645 137 L 648 137 L 651 136 L 654 136 L 654 135 L 660 135 L 661 134 L 665 134 L 670 133 L 670 133 L 676 132 L 677 132 L 677 131 L 679 130 L 680 130 L 682 129 L 683 129 L 685 128 L 689 128 L 690 127 L 690 127 L 691 126 L 700 126 L 700 125 L 701 125 L 701 124 L 702 124 L 702 123 L 703 123 L 703 122 L 704 122 L 706 121 L 706 121 L 708 120 L 709 120 L 710 119 L 710 119 L 711 118 L 711 118 L 712 117 L 713 117 L 713 116 L 714 116 L 714 115 L 714 115 L 714 114 L 715 113 L 717 113 L 717 112 L 718 112 L 719 111 L 719 111 L 721 110 L 722 110 L 722 109 L 723 109 L 725 108 L 726 108 L 727 107 L 727 107 L 728 106 L 730 106 L 730 105 L 730 105 L 731 104 L 731 104 L 731 103 L 732 103 L 732 102 L 733 102 L 734 101 L 738 101 L 739 100 L 741 100 L 741 99 L 744 99 L 746 98 L 746 97 L 749 97 L 752 96 L 755 96 L 758 95 L 759 95 L 759 94 L 760 94 L 760 93 L 761 93 L 761 92 L 761 92 L 762 91 L 762 91 L 762 90 L 763 90 L 765 89 L 766 89 L 766 88 L 767 88 L 767 87 L 771 87 L 771 86 L 771 86 L 772 85 L 774 85 L 777 84 L 780 84 L 785 83 L 785 83 L 785 82 L 785 82 L 788 81 L 790 80 L 791 80 L 791 79 L 791 79 L 792 78 L 794 78 L 798 77 L 798 77 L 799 76 L 799 76 L 801 75 L 802 75 L 802 74 L 802 74 L 802 73 L 805 73 L 810 72 L 810 72 L 815 71 L 815 71 L 816 70 L 821 70 L 822 69 L 825 69 L 828 68 L 830 68 L 831 67 L 831 67 L 832 66 L 832 66 L 832 65 L 832 64 L 833 64 L 834 63 L 834 63 L 835 62 L 835 62 L 835 61 L 837 61 L 838 60 L 838 60 L 844 59 L 845 59 L 851 58 L 854 58 L 854 57 L 855 57 L 856 56 L 859 56 L 860 55 L 861 55 L 861 54 L 862 54 L 862 53 L 862 53 L 862 52 L 862 52 L 863 51 L 863 51 L 863 50 L 863 50 L 864 49 L 865 49 L 865 48 L 865 47 L 867 47 L 867 46 L 868 46 L 869 45 L 870 45 L 870 44 L 870 44 L 871 43 L 873 43 L 876 42 L 876 42 L 876 41 L 876 41 L 877 40 L 878 40 L 878 39 L 878 39 L 880 38 L 882 38 L 885 37 L 889 37 L 890 36 L 892 36 L 897 35 L 901 35 L 902 34 L 905 34 L 910 33 L 910 33 L 911 32 L 917 31 L 918 31 L 919 30 L 920 30 L 920 29 L 931 29 L 931 28 L 933 28 L 933 27 L 934 27 L 934 26 L 936 26 L 936 25 L 936 25 L 938 24 L 938 24 L 938 23 L 939 23 L 939 22 L 939 22 L 939 21 L 940 21 L 940 20 L 940 20 L 941 19 L 942 19 L 944 18 L 944 18 L 945 17 L 945 17 L 945 16"></path><path stroke-width="2" d="M 945 346 L 945.000000 15.000000" /><path stroke-width="2" d="M 945 346 L 945.000000 15.000000"></path><path stroke-width="2" d="M 945 346 L 950 346" /><path stroke-width="2" d="M 945 346 L 950 346"></path><text xmlns="http://www.w3.org/2000/svg" x="955" y="352">0</text><path stroke-width="2" d="M 945 308 L 950 308" /><path stroke-width="2" d="M 945 308 L 950 308"></path><text xmlns="http://www.w3.org/2000/svg" x="955" y="314">72</text><path stroke-width="2" d="M 945 272 L 950 272" /><path stroke-width="2" d="M 945 272 L 950 272"></path><text xmlns="http://www.w3.org/2000/svg" x="955" y="278">143</text><path stroke-width="2" d="M 945 235 L 950 235" /><path stroke-width="2" d="M 945 235 L 950 235"></path><text xmlns="http://www.w3.org/2000/svg" x="955" y="241">214</text><path stroke-width="2" d="M 945 199 L 950 199" /><path stroke-width="2" d="M 945 199 L 950 199"></path><text xmlns="http://www.w3.org/2000/svg" x="955" y="205">285</text><path stroke-width="2" d="M 945 162 L 950 162" /><path stroke-width="2" d="M 945 162 L 950 162"></path><text xmlns="http://www.w3.org/2000/svg" x="955" y="168">356</text><path stroke-width="2" d="M 945 125 L 950 125" /><path stroke-width="2" d="M 945 125 L 950 125"></path><text xmlns="http://www.w3.org/2000/svg" x="955" y="131">427</text><path stroke-width="2" d="M 945 89 L 950 89" /><path stroke-width="2" d="M 945 89 L 950 89"></path><text xmlns="http://www.w3.org/2000/svg" x="955" y="95">498</text><path stroke-width="2" d="M 945 52 L 950 52" /><path stroke-width="2" d="M 945 52 L 950 52"></path><text y="58" xmlns="http://www.w3.org/2000/svg" x="955">569</text><path d="M 945 16 L 950 16" stroke-width="2" /><path stroke-width="2" d="M 945 16 L 950 16"></path><text x="955" y="22" xmlns="http://www.w3.org/2000/svg">640</text><text y="175" transform="rotate(90.00,987,175)" xmlns="http://www.w3.org/2000/svg" x="987">Stargazers</text><path stroke-width="2" d="M 57.000000 346.000000 L 945 346" /><path stroke-width="2" d="M 57.000000 346.000000 L 945 346"></path><path stroke-width="2" d="M 58 346 L 58 351" /><path stroke-width="2" d="M 58 346 L 58 351"></path><text xmlns="http://www.w3.org/2000/svg" x="25" y="368">2023-04-02</text><path stroke-width="2" d="M 157 346 L 157 351" /><path d="M 157 346 L 157 351" stroke-width="2"></path><text xmlns="http://www.w3.org/2000/svg" x="124" y="368">2023-06-03</text><path d="M 256 346 L 256 351" stroke-width="2" /><path stroke-width="2" d="M 256 346 L 256 351"></path><text xmlns="http://www.w3.org/2000/svg" x="223" y="368">2023-08-05</text><path stroke-width="2" d="M 354 346 L 354 351" /><path stroke-width="2" d="M 354 346 L 354 351"></path><text y="368" xmlns="http://www.w3.org/2000/svg" x="321">2023-10-07</text><path stroke-width="2" d="M 453 346 L 453 351" /><path stroke-width="2" d="M 453 346 L 453 351"></path><text xmlns="http://www.w3.org/2000/svg" x="420" y="368">2023-12-08</text><path stroke-width="2" d="M 551 346 L 551 351" /><path stroke-width="2" d="M 551 346 L 551 351"></path><text xmlns="http://www.w3.org/2000/svg" x="518" y="368">2024-02-09</text><path stroke-width="2" d="M 650 346 L 650 351" /><path d="M 650 346 L 650 351" stroke-width="2"></path><text xmlns="http://www.w3.org/2000/svg" x="617" y="368">2024-04-11</text><path stroke-width="2" d="M 748 346 L 748 351" /><path stroke-width="2" d="M 748 346 L 748 351"></path><text xmlns="http://www.w3.org/2000/svg" x="715" y="368">2024-06-13</text><path stroke-width="2" d="M 847 346 L 847 351" /><path d="M 847 346 L 847 351" stroke-width="2"></path><text x="814" y="368" xmlns="http://www.w3.org/2000/svg">2024-08-14</text><path stroke-width="2" d="M 945 346 L 945 351" /><path stroke-width="2" d="M 945 346 L 945 351"></path><text y="368" xmlns="http://www.w3.org/2000/svg" x="912">2024-10-16</text><text xmlns="http://www.w3.org/2000/svg" x="487" y="390">Time</text></svg>