<svg xmlns="http://www.w3.org/2000/svg" xmlns:xlink="http://www.w3.org/1999/xlink" width="1024px" height="400px"><style type="text/css">
path { fill: none; stroke: rgb(51,51,51); }
path.series { stroke: #6b63ff; }
rect.background { fill: rgb(255,255,255); stroke: none; }

text {
	stroke-width: 0;
	stroke: none;
	fill: rgba(51,51,51,1.0);
	font-size: 12.8px;
	font-family: 'Roboto Medium', sans-serif;
}
</style><rect height="400px" class="background" rx="8" x="0" y="0" width="1024px" /><rect class="background" rx="8" x="0" y="0" width="1024px" height="400px"></rect><path d="M 58 345 L 64 344 L 98 343 L 99 342 L 99 341 L 99 340 L 99 339 L 99 339 L 99 338 L 99 337 L 100 336 L 100 335 L 100 334 L 101 333 L 101 332 L 101 332 L 101 331 L 101 330 L 102 329 L 102 328 L 104 327 L 105 326 L 105 326 L 107 325 L 109 324 L 109 323 L 109 322 L 110 321 L 112 320 L 116 319 L 117 319 L 119 318 L 122 317 L 133 316 L 133 315 L 133 314 L 133 313 L 133 313 L 133 312 L 133 311 L 139 310 L 142 309 L 144 308 L 149 307 L 158 306 L 161 306 L 177 305 L 182 304 L 190 303 L 199 302 L 202 301 L 235 300 L 237 299 L 237 299 L 241 298 L 242 297 L 242 296 L 242 295 L 242 294 L 242 293 L 242 293 L 242 292 L 242 291 L 243 290 L 243 289 L 243 288 L 243 287 L 244 286 L 244 286 L 244 285 L 244 284 L 244 283 L 244 282 L 244 281 L 244 280 L 244 280 L 244 279 L 244 278 L 244 277 L 244 276 L 244 275 L 244 274 L 244 273 L 244 273 L 244 272 L 244 271 L 244 270 L 244 269 L 245 268 L 245 267 L 245 266 L 245 266 L 245 265 L 245 264 L 245 263 L 245 262 L 245 261 L 245 260 L 245 260 L 245 259 L 245 258 L 246 257 L 246 256 L 247 255 L 247 254 L 247 253 L 248 253 L 248 252 L 250 251 L 250 250 L 250 249 L 250 248 L 250 247 L 250 247 L 250 246 L 250 245 L 250 244 L 250 243 L 250 242 L 250 241 L 250 240 L 250 240 L 250 239 L 250 238 L 250 237 L 251 236 L 253 235 L 253 234 L 254 233 L 254 233 L 261 232 L 262 231 L 262 230 L 265 229 L 265 228 L 270 227 L 275 227 L 277 226 L 281 225 L 283 224 L 287 223 L 288 222 L 289 221 L 294 220 L 294 220 L 296 219 L 299 218 L 300 217 L 302 216 L 302 215 L 302 214 L 303 214 L 306 213 L 309 212 L 309 211 L 310 210 L 311 209 L 311 208 L 313 207 L 317 207 L 319 206 L 324 205 L 326 204 L 328 203 L 330 202 L 330 201 L 331 200 L 334 200 L 348 199 L 349 198 L 351 197 L 364 196 L 364 195 L 364 194 L 365 194 L 365 193 L 367 192 L 371 191 L 374 190 L 374 189 L 390 188 L 394 187 L 397 187 L 402 186 L 406 185 L 406 184 L 408 183 L 419 182 L 432 181 L 446 181 L 448 180 L 448 179 L 448 178 L 449 177 L 452 176 L 471 175 L 480 174 L 481 174 L 488 173 L 489 172 L 491 171 L 512 170 L 512 169 L 513 168 L 514 167 L 517 167 L 523 166 L 525 165 L 530 164 L 533 163 L 537 162 L 549 161 L 550 161 L 552 160 L 552 159 L 553 158 L 554 157 L 560 156 L 560 155 L 572 154 L 589 154 L 598 153 L 608 152 L 609 151 L 614 150 L 615 149 L 618 148 L 621 148 L 621 147 L 621 146 L 621 145 L 621 144 L 621 143 L 621 142 L 621 141 L 621 141 L 621 140 L 622 139 L 622 138 L 622 137 L 623 136 L 624 135 L 625 134 L 627 134 L 628 133 L 629 132 L 629 131 L 629 130 L 632 129 L 632 128 L 632 128 L 632 127 L 632 126 L 633 125 L 633 124 L 635 123 L 635 122 L 636 121 L 637 121 L 638 120 L 638 119 L 638 118 L 638 117 L 640 116 L 641 115 L 641 115 L 641 114 L 643 113 L 644 112 L 644 111 L 646 110 L 649 109 L 650 108 L 653 108 L 658 107 L 658 106 L 660 105 L 660 104 L 661 103 L 661 102 L 661 101 L 665 101 L 666 100 L 670 99 L 670 98 L 672 97 L 675 96 L 679 95 L 679 95 L 684 94 L 686 93 L 687 92 L 689 91 L 689 90 L 699 89 L 701 88 L 701 88 L 709 87 L 713 86 L 721 85 L 723 84 L 724 83 L 726 82 L 727 82 L 727 81 L 733 80 L 738 79 L 741 78 L 742 77 L 745 76 L 747 75 L 747 75 L 747 74 L 748 73 L 749 72 L 750 71 L 750 70 L 752 69 L 753 68 L 753 68 L 755 67 L 764 66 L 776 65 L 776 64 L 776 63 L 784 62 L 787 62 L 789 61 L 790 60 L 793 59 L 795 58 L 795 57 L 795 56 L 795 55 L 796 55 L 796 54 L 796 53 L 798 52 L 798 51 L 799 50 L 804 49 L 805 49 L 805 48 L 805 47 L 806 46 L 806 45 L 806 44 L 806 43 L 806 42 L 807 42 L 807 41 L 807 40 L 807 39 L 810 38 L 816 37 L 821 36 L 822 35 L 824 35 L 834 34 L 847 33 L 850 32 L 856 31 L 862 30 L 876 29 L 881 29 L 886 28 L 886 27 L 887 26 L 887 25 L 887 24 L 887 23 L 887 22 L 887 22 L 891 21 L 893 20 L 910 19 L 915 18 L 922 17 L 936 16 L 945 16" stroke-width="2" class="series" /><path stroke-width="2" class="series" d="M 58 345 L 64 344 L 98 343 L 99 342 L 99 341 L 99 340 L 99 339 L 99 339 L 99 338 L 99 337 L 100 336 L 100 335 L 100 334 L 101 333 L 101 332 L 101 332 L 101 331 L 101 330 L 102 329 L 102 328 L 104 327 L 105 326 L 105 326 L 107 325 L 109 324 L 109 323 L 109 322 L 110 321 L 112 320 L 116 319 L 117 319 L 119 318 L 122 317 L 133 316 L 133 315 L 133 314 L 133 313 L 133 313 L 133 312 L 133 311 L 139 310 L 142 309 L 144 308 L 149 307 L 158 306 L 161 306 L 177 305 L 182 304 L 190 303 L 199 302 L 202 301 L 235 300 L 237 299 L 237 299 L 241 298 L 242 297 L 242 296 L 242 295 L 242 294 L 242 293 L 242 293 L 242 292 L 242 291 L 243 290 L 243 289 L 243 288 L 243 287 L 244 286 L 244 286 L 244 285 L 244 284 L 244 283 L 244 282 L 244 281 L 244 280 L 244 280 L 244 279 L 244 278 L 244 277 L 244 276 L 244 275 L 244 274 L 244 273 L 244 273 L 244 272 L 244 271 L 244 270 L 244 269 L 245 268 L 245 267 L 245 266 L 245 266 L 245 265 L 245 264 L 245 263 L 245 262 L 245 261 L 245 260 L 245 260 L 245 259 L 245 258 L 246 257 L 246 256 L 247 255 L 247 254 L 247 253 L 248 253 L 248 252 L 250 251 L 250 250 L 250 249 L 250 248 L 250 247 L 250 247 L 250 246 L 250 245 L 250 244 L 250 243 L 250 242 L 250 241 L 250 240 L 250 240 L 250 239 L 250 238 L 250 237 L 251 236 L 253 235 L 253 234 L 254 233 L 254 233 L 261 232 L 262 231 L 262 230 L 265 229 L 265 228 L 270 227 L 275 227 L 277 226 L 281 225 L 283 224 L 287 223 L 288 222 L 289 221 L 294 220 L 294 220 L 296 219 L 299 218 L 300 217 L 302 216 L 302 215 L 302 214 L 303 214 L 306 213 L 309 212 L 309 211 L 310 210 L 311 209 L 311 208 L 313 207 L 317 207 L 319 206 L 324 205 L 326 204 L 328 203 L 330 202 L 330 201 L 331 200 L 334 200 L 348 199 L 349 198 L 351 197 L 364 196 L 364 195 L 364 194 L 365 194 L 365 193 L 367 192 L 371 191 L 374 190 L 374 189 L 390 188 L 394 187 L 397 187 L 402 186 L 406 185 L 406 184 L 408 183 L 419 182 L 432 181 L 446 181 L 448 180 L 448 179 L 448 178 L 449 177 L 452 176 L 471 175 L 480 174 L 481 174 L 488 173 L 489 172 L 491 171 L 512 170 L 512 169 L 513 168 L 514 167 L 517 167 L 523 166 L 525 165 L 530 164 L 533 163 L 537 162 L 549 161 L 550 161 L 552 160 L 552 159 L 553 158 L 554 157 L 560 156 L 560 155 L 572 154 L 589 154 L 598 153 L 608 152 L 609 151 L 614 150 L 615 149 L 618 148 L 621 148 L 621 147 L 621 146 L 621 145 L 621 144 L 621 143 L 621 142 L 621 141 L 621 141 L 621 140 L 622 139 L 622 138 L 622 137 L 623 136 L 624 135 L 625 134 L 627 134 L 628 133 L 629 132 L 629 131 L 629 130 L 632 129 L 632 128 L 632 128 L 632 127 L 632 126 L 633 125 L 633 124 L 635 123 L 635 122 L 636 121 L 637 121 L 638 120 L 638 119 L 638 118 L 638 117 L 640 116 L 641 115 L 641 115 L 641 114 L 643 113 L 644 112 L 644 111 L 646 110 L 649 109 L 650 108 L 653 108 L 658 107 L 658 106 L 660 105 L 660 104 L 661 103 L 661 102 L 661 101 L 665 101 L 666 100 L 670 99 L 670 98 L 672 97 L 675 96 L 679 95 L 679 95 L 684 94 L 686 93 L 687 92 L 689 91 L 689 90 L 699 89 L 701 88 L 701 88 L 709 87 L 713 86 L 721 85 L 723 84 L 724 83 L 726 82 L 727 82 L 727 81 L 733 80 L 738 79 L 741 78 L 742 77 L 745 76 L 747 75 L 747 75 L 747 74 L 748 73 L 749 72 L 750 71 L 750 70 L 752 69 L 753 68 L 753 68 L 755 67 L 764 66 L 776 65 L 776 64 L 776 63 L 784 62 L 787 62 L 789 61 L 790 60 L 793 59 L 795 58 L 795 57 L 795 56 L 795 55 L 796 55 L 796 54 L 796 53 L 798 52 L 798 51 L 799 50 L 804 49 L 805 49 L 805 48 L 805 47 L 806 46 L 806 45 L 806 44 L 806 43 L 806 42 L 807 42 L 807 41 L 807 40 L 807 39 L 810 38 L 816 37 L 821 36 L 822 35 L 824 35 L 834 34 L 847 33 L 850 32 L 856 31 L 862 30 L 876 29 L 881 29 L 886 28 L 886 27 L 887 26 L 887 25 L 887 24 L 887 23 L 887 22 L 887 22 L 891 21 L 893 20 L 910 19 L 915 18 L 922 17 L 936 16 L 945 16"></path><path stroke-width="2" d="M 945 346 L 945.000000 15.000000" /><path stroke-width="2" d="M 945 346 L 945.000000 15.000000"></path><path stroke-width="2" d="M 945 346 L 950 346" /><path stroke-width="2" d="M 945 346 L 950 346"></path><text xmlns="http://www.w3.org/2000/svg" x="955" y="352">0</text><path stroke-width="2" d="M 945 308 L 950 308" /><path stroke-width="2" d="M 945 308 L 950 308"></path><text xmlns="http://www.w3.org/2000/svg" x="955" y="314">43</text><path stroke-width="2" d="M 945 272 L 950 272" /><path d="M 945 272 L 950 272" stroke-width="2"></path><text xmlns="http://www.w3.org/2000/svg" x="955" y="278">85</text><path stroke-width="2" d="M 945 235 L 950 235" /><path d="M 945 235 L 950 235" stroke-width="2"></path><text xmlns="http://www.w3.org/2000/svg" x="955" y="241">127</text><path stroke-width="2" d="M 945 199 L 950 199" /><path stroke-width="2" d="M 945 199 L 950 199"></path><text x="955" y="205" xmlns="http://www.w3.org/2000/svg">169</text><path stroke-width="2" d="M 945 161 L 950 161" /><path stroke-width="2" d="M 945 161 L 950 161"></path><text xmlns="http://www.w3.org/2000/svg" x="955" y="167">212</text><path stroke-width="2" d="M 945 125 L 950 125" /><path stroke-width="2" d="M 945 125 L 950 125"></path><text xmlns="http://www.w3.org/2000/svg" x="955" y="131">254</text><path stroke-width="2" d="M 945 88 L 950 88" /><path stroke-width="2" d="M 945 88 L 950 88"></path><text xmlns="http://www.w3.org/2000/svg" x="955" y="94">296</text><path d="M 945 52 L 950 52" stroke-width="2" /><path stroke-width="2" d="M 945 52 L 950 52"></path><text xmlns="http://www.w3.org/2000/svg" x="955" y="58">338</text><path stroke-width="2" d="M 945 16 L 950 16" /><path stroke-width="2" d="M 945 16 L 950 16"></path><text xmlns="http://www.w3.org/2000/svg" x="955" y="22">380</text><text xmlns="http://www.w3.org/2000/svg" x="987" y="175" transform="rotate(90.00,987,175)">Stargazers</text><path stroke-width="2" d="M 57.000000 346.000000 L 945 346" /><path stroke-width="2" d="M 57.000000 346.000000 L 945 346"></path><path stroke-width="2" d="M 58 346 L 58 351" /><path stroke-width="2" d="M 58 346 L 58 351"></path><text xmlns="http://www.w3.org/2000/svg" x="25" y="368">2023-04-02</text><path stroke-width="2" d="M 157 346 L 157 351" /><path stroke-width="2" d="M 157 346 L 157 351"></path><text xmlns="http://www.w3.org/2000/svg" x="124" y="368">2023-05-06</text><path stroke-width="2" d="M 256 346 L 256 351" /><path stroke-width="2" d="M 256 346 L 256 351"></path><text xmlns="http://www.w3.org/2000/svg" x="223" y="368">2023-06-10</text><path stroke-width="2" d="M 354 346 L 354 351" /><path stroke-width="2" d="M 354 346 L 354 351"></path><text xmlns="http://www.w3.org/2000/svg" x="321" y="368">2023-07-14</text><path stroke-width="2" d="M 453 346 L 453 351" /><path stroke-width="2" d="M 453 346 L 453 351"></path><text y="368" xmlns="http://www.w3.org/2000/svg" x="420">2023-08-17</text><path d="M 551 346 L 551 351" stroke-width="2" /><path stroke-width="2" d="M 551 346 L 551 351"></path><text x="518" y="368" xmlns="http://www.w3.org/2000/svg">2023-09-21</text><path stroke-width="2" d="M 650 346 L 650 351" /><path d="M 650 346 L 650 351" stroke-width="2"></path><text xmlns="http://www.w3.org/2000/svg" x="617" y="368">2023-10-25</text><path stroke-width="2" d="M 748 346 L 748 351" /><path stroke-width="2" d="M 748 346 L 748 351"></path><text xmlns="http://www.w3.org/2000/svg" x="715" y="368">2023-11-28</text><path stroke-width="2" d="M 847 346 L 847 351" /><path stroke-width="2" d="M 847 346 L 847 351"></path><text xmlns="http://www.w3.org/2000/svg" x="814" y="368">2024-01-02</text><path stroke-width="2" d="M 945 346 L 945 351" /><path stroke-width="2" d="M 945 346 L 945 351"></path><text xmlns="http://www.w3.org/2000/svg" x="912" y="368">2024-02-05</text><text xmlns="http://www.w3.org/2000/svg" x="487" y="390">Time</text></svg>