<svg xmlns="http://www.w3.org/2000/svg" xmlns:xlink="http://www.w3.org/1999/xlink" width="1024px" height="400px"><style type="text/css">
path { fill: none; stroke: rgb(51,51,51); }
path.series { stroke: #6b63ff; }
rect.background { fill: rgb(255,255,255); stroke: none; }

text {
	stroke-width: 0;
	stroke: none;
	fill: rgba(51,51,51,1.0);
	font-size: 12.8px;
	font-family: 'Roboto Medium', sans-serif;
}
</style><rect rx="8" x="0" y="0" width="1024px" height="400px" class="background" /><rect x="0" y="0" width="1024px" height="400px" class="background" rx="8"></rect><path stroke-width="2" class="series" d="M 58 345 L 61 345 L 79 344 L 79 344 L 79 343 L 79 343 L 79 342 L 79 342 L 79 342 L 79 341 L 80 341 L 80 340 L 80 340 L 80 339 L 80 339 L 80 338 L 80 338 L 80 338 L 80 337 L 81 337 L 82 336 L 82 336 L 83 335 L 84 335 L 84 335 L 84 334 L 85 334 L 86 333 L 88 333 L 88 332 L 89 332 L 90 331 L 96 331 L 96 331 L 96 330 L 96 330 L 96 329 L 96 329 L 99 328 L 101 328 L 102 327 L 104 327 L 109 327 L 110 326 L 118 326 L 120 325 L 125 325 L 129 324 L 131 324 L 147 324 L 148 323 L 148 323 L 150 322 L 151 322 L 151 321 L 151 321 L 151 320 L 151 320 L 151 320 L 151 319 L 151 319 L 151 318 L 151 318 L 151 317 L 151 317 L 152 316 L 152 316 L 152 316 L 152 315 L 152 315 L 152 314 L 152 314 L 152 313 L 152 313 L 152 313 L 152 312 L 152 312 L 152 311 L 152 311 L 152 310 L 152 310 L 152 309 L 152 309 L 152 309 L 152 308 L 152 308 L 152 307 L 152 307 L 152 306 L 152 306 L 152 305 L 152 305 L 152 305 L 152 304 L 152 304 L 152 303 L 152 303 L 152 302 L 153 302 L 153 302 L 153 301 L 153 301 L 153 300 L 153 300 L 154 299 L 154 299 L 155 298 L 155 298 L 155 298 L 155 297 L 155 297 L 155 296 L 155 296 L 155 295 L 155 295 L 155 294 L 155 294 L 155 294 L 155 293 L 155 293 L 155 292 L 155 292 L 155 291 L 155 291 L 156 291 L 157 290 L 157 290 L 157 289 L 161 289 L 161 288 L 161 288 L 162 287 L 162 287 L 165 287 L 168 286 L 168 286 L 171 285 L 172 285 L 173 284 L 174 284 L 174 283 L 177 283 L 177 283 L 178 282 L 179 282 L 180 281 L 181 281 L 181 280 L 181 280 L 182 280 L 183 279 L 184 279 L 184 278 L 185 278 L 185 277 L 185 277 L 186 276 L 188 276 L 190 276 L 192 275 L 193 275 L 194 274 L 195 274 L 195 273 L 195 273 L 197 272 L 204 272 L 204 272 L 206 271 L 212 271 L 212 270 L 212 270 L 212 269 L 213 269 L 214 269 L 216 268 L 217 268 L 217 267 L 225 267 L 227 266 L 229 266 L 231 265 L 233 265 L 233 265 L 234 264 L 240 264 L 246 263 L 254 263 L 254 262 L 254 262 L 254 261 L 255 261 L 256 261 L 266 260 L 271 260 L 271 259 L 274 259 L 275 258 L 276 258 L 287 258 L 287 257 L 287 257 L 288 256 L 289 256 L 292 255 L 293 255 L 296 254 L 297 254 L 299 254 L 305 253 L 306 253 L 307 252 L 307 252 L 307 251 L 308 251 L 311 250 L 317 250 L 330 250 L 335 249 L 338 249 L 338 248 L 340 248 L 341 247 L 341 247 L 341 247 L 341 246 L 341 246 L 341 245 L 341 245 L 341 244 L 342 244 L 342 243 L 342 243 L 342 243 L 342 242 L 342 242 L 343 241 L 345 241 L 345 240 L 345 240 L 345 239 L 345 239 L 347 239 L 347 238 L 347 238 L 347 237 L 347 237 L 347 236 L 347 236 L 348 236 L 349 235 L 350 235 L 350 234 L 350 234 L 350 233 L 350 233 L 351 232 L 351 232 L 351 232 L 352 231 L 352 231 L 353 230 L 353 230 L 354 229 L 355 229 L 356 228 L 358 228 L 360 228 L 360 227 L 361 227 L 361 226 L 361 226 L 361 225 L 362 225 L 363 225 L 364 224 L 366 224 L 366 223 L 367 223 L 369 222 L 371 222 L 371 221 L 373 221 L 374 221 L 374 220 L 375 220 L 375 219 L 380 219 L 381 218 L 382 218 L 386 217 L 388 217 L 392 217 L 393 216 L 393 216 L 394 215 L 395 215 L 395 214 L 398 214 L 400 214 L 402 213 L 402 213 L 404 212 L 405 212 L 405 211 L 405 211 L 405 210 L 406 210 L 406 210 L 406 209 L 408 209 L 408 208 L 408 208 L 409 207 L 413 207 L 419 206 L 419 206 L 419 206 L 423 205 L 425 205 L 426 204 L 426 204 L 428 203 L 429 203 L 429 203 L 429 202 L 429 202 L 429 201 L 430 201 L 430 200 L 430 200 L 430 199 L 431 199 L 434 199 L 434 198 L 434 198 L 434 197 L 434 197 L 435 196 L 435 196 L 435 195 L 435 195 L 435 195 L 435 194 L 435 194 L 435 193 L 439 193 L 442 192 L 442 192 L 443 192 L 455 191 L 456 191 L 460 190 L 463 190 L 470 189 L 472 189 L 475 188 L 475 188 L 475 188 L 475 187 L 475 187 L 475 186 L 475 186 L 475 185 L 477 185 L 478 184 L 487 184 L 490 184 L 493 183 L 500 183 L 505 182 L 509 182 L 511 181 L 516 181 L 516 181 L 527 180 L 537 180 L 537 179 L 545 179 L 545 178 L 551 178 L 552 177 L 555 177 L 555 177 L 556 176 L 556 176 L 559 175 L 561 175 L 563 174 L 568 174 L 568 173 L 570 173 L 570 173 L 574 172 L 578 172 L 578 171 L 582 171 L 587 170 L 588 170 L 588 170 L 590 169 L 591 169 L 592 168 L 595 168 L 598 167 L 601 167 L 604 166 L 604 166 L 610 166 L 611 165 L 614 165 L 619 164 L 619 164 L 624 163 L 625 163 L 625 162 L 627 162 L 627 162 L 630 161 L 630 161 L 632 160 L 636 160 L 637 159 L 637 159 L 637 159 L 646 158 L 646 158 L 647 157 L 647 157 L 647 156 L 648 156 L 648 155 L 649 155 L 650 155 L 652 154 L 652 154 L 653 153 L 654 153 L 655 152 L 656 152 L 656 151 L 656 151 L 657 151 L 657 150 L 657 150 L 658 149 L 658 149 L 659 148 L 659 148 L 660 148 L 662 147 L 662 147 L 662 146 L 663 146 L 663 145 L 665 145 L 666 144 L 666 144 L 667 144 L 669 143 L 670 143 L 670 142 L 671 142 L 671 141 L 674 141 L 674 140 L 674 140 L 674 140 L 675 139 L 675 139 L 675 138 L 676 138 L 676 137 L 677 137 L 681 137 L 682 136 L 683 136 L 684 135 L 686 135 L 688 134 L 689 134 L 691 133 L 694 133 L 697 133 L 699 132 L 700 132 L 700 131 L 701 131 L 701 130 L 702 130 L 702 129 L 702 129 L 703 129 L 703 128 L 703 128 L 704 127 L 705 127 L 706 126 L 706 126 L 708 126 L 708 125 L 711 125 L 711 124 L 711 124 L 712 123 L 713 123 L 716 122 L 719 122 L 724 122 L 724 121 L 724 121 L 724 120 L 726 120 L 729 119 L 729 119 L 729 118 L 729 118 L 730 118 L 732 117 L 736 117 L 736 116 L 736 116 L 736 115 L 738 115 L 739 115 L 739 114 L 739 114 L 739 113 L 743 113 L 747 112 L 747 112 L 751 111 L 751 111 L 752 111 L 756 110 L 758 110 L 761 109 L 763 109 L 765 108 L 766 108 L 766 107 L 767 107 L 767 107 L 767 106 L 767 106 L 768 105 L 768 105 L 769 104 L 770 104 L 770 104 L 770 103 L 771 103 L 772 102 L 773 102 L 778 101 L 779 101 L 784 100 L 787 100 L 787 100 L 788 99 L 789 99 L 792 98 L 792 98 L 793 97 L 793 97 L 794 96 L 794 96 L 794 96 L 794 95 L 795 95 L 796 94 L 796 94 L 796 93 L 796 93 L 796 92 L 797 92 L 797 92 L 797 91 L 799 91 L 799 90 L 800 90 L 801 89 L 802 89 L 802 89 L 802 88 L 803 88 L 804 87 L 807 87 L 807 86 L 807 86 L 808 85 L 808 85 L 809 85 L 809 84 L 809 84 L 810 83 L 813 83 L 816 82 L 819 82 L 820 82 L 822 81 L 826 81 L 830 80 L 831 80 L 834 79 L 839 79 L 839 78 L 839 78 L 844 78 L 846 77 L 847 77 L 847 76 L 848 76 L 858 75 L 858 75 L 859 74 L 859 74 L 860 74 L 860 73 L 862 73 L 862 72 L 862 72 L 864 71 L 864 71 L 864 71 L 865 70 L 865 70 L 865 69 L 865 69 L 865 68 L 866 68 L 866 67 L 867 67 L 868 67 L 869 66 L 870 66 L 871 65 L 871 65 L 872 64 L 872 64 L 874 63 L 874 63 L 875 63 L 875 62 L 875 62 L 876 61 L 878 61 L 878 60 L 880 60 L 880 60 L 881 59 L 882 59 L 882 58 L 882 58 L 883 57 L 883 57 L 883 56 L 884 56 L 884 56 L 885 55 L 886 55 L 887 54 L 888 54 L 888 53 L 888 53 L 888 52 L 888 52 L 889 52 L 889 51 L 889 51 L 891 50 L 891 50 L 891 49 L 892 49 L 892 49 L 893 48 L 893 48 L 893 47 L 893 47 L 894 46 L 894 46 L 894 45 L 894 45 L 894 45 L 897 44 L 898 44 L 901 43 L 901 43 L 901 42 L 901 42 L 903 41 L 904 41 L 904 41 L 905 40 L 908 40 L 911 39 L 911 39 L 913 38 L 914 38 L 914 38 L 915 37 L 915 37 L 916 36 L 916 36 L 916 35 L 916 35 L 916 34 L 916 34 L 916 34 L 916 33 L 917 33 L 917 32 L 917 32 L 917 31 L 917 31 L 917 30 L 918 30 L 918 30 L 919 29 L 919 29 L 920 28 L 922 28 L 923 27 L 923 27 L 923 27 L 925 26 L 925 26 L 926 25 L 929 25 L 930 24 L 930 24 L 930 23 L 930 23 L 930 23 L 933 22 L 935 22 L 936 21 L 938 21 L 938 20 L 938 20 L 939 19 L 940 19 L 945 19" /><path class="series" d="M 58 345 L 61 345 L 79 344 L 79 344 L 79 343 L 79 343 L 79 342 L 79 342 L 79 342 L 79 341 L 80 341 L 80 340 L 80 340 L 80 339 L 80 339 L 80 338 L 80 338 L 80 338 L 80 337 L 81 337 L 82 336 L 82 336 L 83 335 L 84 335 L 84 335 L 84 334 L 85 334 L 86 333 L 88 333 L 88 332 L 89 332 L 90 331 L 96 331 L 96 331 L 96 330 L 96 330 L 96 329 L 96 329 L 99 328 L 101 328 L 102 327 L 104 327 L 109 327 L 110 326 L 118 326 L 120 325 L 125 325 L 129 324 L 131 324 L 147 324 L 148 323 L 148 323 L 150 322 L 151 322 L 151 321 L 151 321 L 151 320 L 151 320 L 151 320 L 151 319 L 151 319 L 151 318 L 151 318 L 151 317 L 151 317 L 152 316 L 152 316 L 152 316 L 152 315 L 152 315 L 152 314 L 152 314 L 152 313 L 152 313 L 152 313 L 152 312 L 152 312 L 152 311 L 152 311 L 152 310 L 152 310 L 152 309 L 152 309 L 152 309 L 152 308 L 152 308 L 152 307 L 152 307 L 152 306 L 152 306 L 152 305 L 152 305 L 152 305 L 152 304 L 152 304 L 152 303 L 152 303 L 152 302 L 153 302 L 153 302 L 153 301 L 153 301 L 153 300 L 153 300 L 154 299 L 154 299 L 155 298 L 155 298 L 155 298 L 155 297 L 155 297 L 155 296 L 155 296 L 155 295 L 155 295 L 155 294 L 155 294 L 155 294 L 155 293 L 155 293 L 155 292 L 155 292 L 155 291 L 155 291 L 156 291 L 157 290 L 157 290 L 157 289 L 161 289 L 161 288 L 161 288 L 162 287 L 162 287 L 165 287 L 168 286 L 168 286 L 171 285 L 172 285 L 173 284 L 174 284 L 174 283 L 177 283 L 177 283 L 178 282 L 179 282 L 180 281 L 181 281 L 181 280 L 181 280 L 182 280 L 183 279 L 184 279 L 184 278 L 185 278 L 185 277 L 185 277 L 186 276 L 188 276 L 190 276 L 192 275 L 193 275 L 194 274 L 195 274 L 195 273 L 195 273 L 197 272 L 204 272 L 204 272 L 206 271 L 212 271 L 212 270 L 212 270 L 212 269 L 213 269 L 214 269 L 216 268 L 217 268 L 217 267 L 225 267 L 227 266 L 229 266 L 231 265 L 233 265 L 233 265 L 234 264 L 240 264 L 246 263 L 254 263 L 254 262 L 254 262 L 254 261 L 255 261 L 256 261 L 266 260 L 271 260 L 271 259 L 274 259 L 275 258 L 276 258 L 287 258 L 287 257 L 287 257 L 288 256 L 289 256 L 292 255 L 293 255 L 296 254 L 297 254 L 299 254 L 305 253 L 306 253 L 307 252 L 307 252 L 307 251 L 308 251 L 311 250 L 317 250 L 330 250 L 335 249 L 338 249 L 338 248 L 340 248 L 341 247 L 341 247 L 341 247 L 341 246 L 341 246 L 341 245 L 341 245 L 341 244 L 342 244 L 342 243 L 342 243 L 342 243 L 342 242 L 342 242 L 343 241 L 345 241 L 345 240 L 345 240 L 345 239 L 345 239 L 347 239 L 347 238 L 347 238 L 347 237 L 347 237 L 347 236 L 347 236 L 348 236 L 349 235 L 350 235 L 350 234 L 350 234 L 350 233 L 350 233 L 351 232 L 351 232 L 351 232 L 352 231 L 352 231 L 353 230 L 353 230 L 354 229 L 355 229 L 356 228 L 358 228 L 360 228 L 360 227 L 361 227 L 361 226 L 361 226 L 361 225 L 362 225 L 363 225 L 364 224 L 366 224 L 366 223 L 367 223 L 369 222 L 371 222 L 371 221 L 373 221 L 374 221 L 374 220 L 375 220 L 375 219 L 380 219 L 381 218 L 382 218 L 386 217 L 388 217 L 392 217 L 393 216 L 393 216 L 394 215 L 395 215 L 395 214 L 398 214 L 400 214 L 402 213 L 402 213 L 404 212 L 405 212 L 405 211 L 405 211 L 405 210 L 406 210 L 406 210 L 406 209 L 408 209 L 408 208 L 408 208 L 409 207 L 413 207 L 419 206 L 419 206 L 419 206 L 423 205 L 425 205 L 426 204 L 426 204 L 428 203 L 429 203 L 429 203 L 429 202 L 429 202 L 429 201 L 430 201 L 430 200 L 430 200 L 430 199 L 431 199 L 434 199 L 434 198 L 434 198 L 434 197 L 434 197 L 435 196 L 435 196 L 435 195 L 435 195 L 435 195 L 435 194 L 435 194 L 435 193 L 439 193 L 442 192 L 442 192 L 443 192 L 455 191 L 456 191 L 460 190 L 463 190 L 470 189 L 472 189 L 475 188 L 475 188 L 475 188 L 475 187 L 475 187 L 475 186 L 475 186 L 475 185 L 477 185 L 478 184 L 487 184 L 490 184 L 493 183 L 500 183 L 505 182 L 509 182 L 511 181 L 516 181 L 516 181 L 527 180 L 537 180 L 537 179 L 545 179 L 545 178 L 551 178 L 552 177 L 555 177 L 555 177 L 556 176 L 556 176 L 559 175 L 561 175 L 563 174 L 568 174 L 568 173 L 570 173 L 570 173 L 574 172 L 578 172 L 578 171 L 582 171 L 587 170 L 588 170 L 588 170 L 590 169 L 591 169 L 592 168 L 595 168 L 598 167 L 601 167 L 604 166 L 604 166 L 610 166 L 611 165 L 614 165 L 619 164 L 619 164 L 624 163 L 625 163 L 625 162 L 627 162 L 627 162 L 630 161 L 630 161 L 632 160 L 636 160 L 637 159 L 637 159 L 637 159 L 646 158 L 646 158 L 647 157 L 647 157 L 647 156 L 648 156 L 648 155 L 649 155 L 650 155 L 652 154 L 652 154 L 653 153 L 654 153 L 655 152 L 656 152 L 656 151 L 656 151 L 657 151 L 657 150 L 657 150 L 658 149 L 658 149 L 659 148 L 659 148 L 660 148 L 662 147 L 662 147 L 662 146 L 663 146 L 663 145 L 665 145 L 666 144 L 666 144 L 667 144 L 669 143 L 670 143 L 670 142 L 671 142 L 671 141 L 674 141 L 674 140 L 674 140 L 674 140 L 675 139 L 675 139 L 675 138 L 676 138 L 676 137 L 677 137 L 681 137 L 682 136 L 683 136 L 684 135 L 686 135 L 688 134 L 689 134 L 691 133 L 694 133 L 697 133 L 699 132 L 700 132 L 700 131 L 701 131 L 701 130 L 702 130 L 702 129 L 702 129 L 703 129 L 703 128 L 703 128 L 704 127 L 705 127 L 706 126 L 706 126 L 708 126 L 708 125 L 711 125 L 711 124 L 711 124 L 712 123 L 713 123 L 716 122 L 719 122 L 724 122 L 724 121 L 724 121 L 724 120 L 726 120 L 729 119 L 729 119 L 729 118 L 729 118 L 730 118 L 732 117 L 736 117 L 736 116 L 736 116 L 736 115 L 738 115 L 739 115 L 739 114 L 739 114 L 739 113 L 743 113 L 747 112 L 747 112 L 751 111 L 751 111 L 752 111 L 756 110 L 758 110 L 761 109 L 763 109 L 765 108 L 766 108 L 766 107 L 767 107 L 767 107 L 767 106 L 767 106 L 768 105 L 768 105 L 769 104 L 770 104 L 770 104 L 770 103 L 771 103 L 772 102 L 773 102 L 778 101 L 779 101 L 784 100 L 787 100 L 787 100 L 788 99 L 789 99 L 792 98 L 792 98 L 793 97 L 793 97 L 794 96 L 794 96 L 794 96 L 794 95 L 795 95 L 796 94 L 796 94 L 796 93 L 796 93 L 796 92 L 797 92 L 797 92 L 797 91 L 799 91 L 799 90 L 800 90 L 801 89 L 802 89 L 802 89 L 802 88 L 803 88 L 804 87 L 807 87 L 807 86 L 807 86 L 808 85 L 808 85 L 809 85 L 809 84 L 809 84 L 810 83 L 813 83 L 816 82 L 819 82 L 820 82 L 822 81 L 826 81 L 830 80 L 831 80 L 834 79 L 839 79 L 839 78 L 839 78 L 844 78 L 846 77 L 847 77 L 847 76 L 848 76 L 858 75 L 858 75 L 859 74 L 859 74 L 860 74 L 860 73 L 862 73 L 862 72 L 862 72 L 864 71 L 864 71 L 864 71 L 865 70 L 865 70 L 865 69 L 865 69 L 865 68 L 866 68 L 866 67 L 867 67 L 868 67 L 869 66 L 870 66 L 871 65 L 871 65 L 872 64 L 872 64 L 874 63 L 874 63 L 875 63 L 875 62 L 875 62 L 876 61 L 878 61 L 878 60 L 880 60 L 880 60 L 881 59 L 882 59 L 882 58 L 882 58 L 883 57 L 883 57 L 883 56 L 884 56 L 884 56 L 885 55 L 886 55 L 887 54 L 888 54 L 888 53 L 888 53 L 888 52 L 888 52 L 889 52 L 889 51 L 889 51 L 891 50 L 891 50 L 891 49 L 892 49 L 892 49 L 893 48 L 893 48 L 893 47 L 893 47 L 894 46 L 894 46 L 894 45 L 894 45 L 894 45 L 897 44 L 898 44 L 901 43 L 901 43 L 901 42 L 901 42 L 903 41 L 904 41 L 904 41 L 905 40 L 908 40 L 911 39 L 911 39 L 913 38 L 914 38 L 914 38 L 915 37 L 915 37 L 916 36 L 916 36 L 916 35 L 916 35 L 916 34 L 916 34 L 916 34 L 916 33 L 917 33 L 917 32 L 917 32 L 917 31 L 917 31 L 917 30 L 918 30 L 918 30 L 919 29 L 919 29 L 920 28 L 922 28 L 923 27 L 923 27 L 923 27 L 925 26 L 925 26 L 926 25 L 929 25 L 930 24 L 930 24 L 930 23 L 930 23 L 930 23 L 933 22 L 935 22 L 936 21 L 938 21 L 938 20 L 938 20 L 939 19 L 940 19 L 945 19" stroke-width="2"></path><path stroke-width="2" d="M 945 346 L 945.000000 15.000000" /><path stroke-width="2" d="M 945 346 L 945.000000 15.000000"></path><path stroke-width="2" d="M 945 346 L 950 346" /><path stroke-width="2" d="M 945 346 L 950 346"></path><text xmlns="http://www.w3.org/2000/svg" x="955" y="352">0</text><path stroke-width="2" d="M 945 309 L 950 309" /><path stroke-width="2" d="M 945 309 L 950 309"></path><text xmlns="http://www.w3.org/2000/svg" x="955" y="315">84</text><path stroke-width="2" d="M 945 272 L 950 272" /><path stroke-width="2" d="M 945 272 L 950 272"></path><text xmlns="http://www.w3.org/2000/svg" x="955" y="278">167</text><path stroke-width="2" d="M 945 236 L 950 236" /><path stroke-width="2" d="M 945 236 L 950 236"></path><text xmlns="http://www.w3.org/2000/svg" x="955" y="242">250</text><path stroke-width="2" d="M 945 199 L 950 199" /><path stroke-width="2" d="M 945 199 L 950 199"></path><text y="205" xmlns="http://www.w3.org/2000/svg" x="955">334</text><path stroke-width="2" d="M 945 162 L 950 162" /><path stroke-width="2" d="M 945 162 L 950 162"></path><text x="955" y="168" xmlns="http://www.w3.org/2000/svg">417</text><path stroke-width="2" d="M 945 126 L 950 126" /><path d="M 945 126 L 950 126" stroke-width="2"></path><text xmlns="http://www.w3.org/2000/svg" x="955" y="132">500</text><path d="M 945 89 L 950 89" stroke-width="2" /><path stroke-width="2" d="M 945 89 L 950 89"></path><text y="95" xmlns="http://www.w3.org/2000/svg" x="955">584</text><path stroke-width="2" d="M 945 52 L 950 52" /><path d="M 945 52 L 950 52" stroke-width="2"></path><text xmlns="http://www.w3.org/2000/svg" x="955" y="58">667</text><path stroke-width="2" d="M 945 16 L 950 16" /><path d="M 945 16 L 950 16" stroke-width="2"></path><text xmlns="http://www.w3.org/2000/svg" x="955" y="22">750</text><text x="987" y="175" transform="rotate(90.00,987,175)" xmlns="http://www.w3.org/2000/svg">Stargazers</text><path stroke-width="2" d="M 57.000000 346.000000 L 945 346" /><path stroke-width="2" d="M 57.000000 346.000000 L 945 346"></path><path stroke-width="2" d="M 58 346 L 58 351" /><path stroke-width="2" d="M 58 346 L 58 351"></path><text xmlns="http://www.w3.org/2000/svg" x="25" y="368">2023-04-02</text><path stroke-width="2" d="M 157 346 L 157 351" /><path stroke-width="2" d="M 157 346 L 157 351"></path><text xmlns="http://www.w3.org/2000/svg" x="124" y="368">2023-06-09</text><path stroke-width="2" d="M 256 346 L 256 351" /><path stroke-width="2" d="M 256 346 L 256 351"></path><text xmlns="http://www.w3.org/2000/svg" x="223" y="368">2023-08-17</text><path stroke-width="2" d="M 354 346 L 354 351" /><path stroke-width="2" d="M 354 346 L 354 351"></path><text xmlns="http://www.w3.org/2000/svg" x="321" y="368">2023-10-24</text><path stroke-width="2" d="M 453 346 L 453 351" /><path stroke-width="2" d="M 453 346 L 453 351"></path><text xmlns="http://www.w3.org/2000/svg" x="420" y="368">2023-12-31</text><path stroke-width="2" d="M 551 346 L 551 351" /><path stroke-width="2" d="M 551 346 L 551 351"></path><text xmlns="http://www.w3.org/2000/svg" x="518" y="368">2024-03-08</text><path d="M 650 346 L 650 351" stroke-width="2" /><path stroke-width="2" d="M 650 346 L 650 351"></path><text xmlns="http://www.w3.org/2000/svg" x="617" y="368">2024-05-16</text><path stroke-width="2" d="M 748 346 L 748 351" /><path d="M 748 346 L 748 351" stroke-width="2"></path><text xmlns="http://www.w3.org/2000/svg" x="715" y="368">2024-07-23</text><path stroke-width="2" d="M 847 346 L 847 351" /><path d="M 847 346 L 847 351" stroke-width="2"></path><text xmlns="http://www.w3.org/2000/svg" x="814" y="368">2024-09-29</text><path stroke-width="2" d="M 945 346 L 945 351" /><path stroke-width="2" d="M 945 346 L 945 351"></path><text xmlns="http://www.w3.org/2000/svg" x="912" y="368">2024-12-07</text><text xmlns="http://www.w3.org/2000/svg" x="487" y="390">Time</text></svg>