<svg xmlns="http://www.w3.org/2000/svg" xmlns:xlink="http://www.w3.org/1999/xlink" width="1024px" height="400px"><style type="text/css">
path { fill: none; stroke: rgb(51,51,51); }
path.series { stroke: #6b63ff; }
rect.background { fill: rgb(255,255,255); stroke: none; }

text {
	stroke-width: 0;
	stroke: none;
	fill: rgba(51,51,51,1.0);
	font-size: 12.8px;
	font-family: 'Roboto Medium', sans-serif;
}
</style><rect x="0" y="0" width="1024px" height="400px" class="background" rx="8" /><rect height="400px" class="background" rx="8" x="0" y="0" width="1024px"></rect><path stroke-width="2" class="series" d="M 58 345 L 61 345 L 78 344 L 79 344 L 79 343 L 79 343 L 79 342 L 79 342 L 79 342 L 79 341 L 79 341 L 79 340 L 79 340 L 79 339 L 79 339 L 80 339 L 80 338 L 80 338 L 80 337 L 81 337 L 81 336 L 81 336 L 83 336 L 84 335 L 84 335 L 84 334 L 84 334 L 85 333 L 87 333 L 87 332 L 89 332 L 90 332 L 95 331 L 95 331 L 95 330 L 95 330 L 95 329 L 96 329 L 99 329 L 100 328 L 101 328 L 103 327 L 108 327 L 110 326 L 117 326 L 120 326 L 124 325 L 128 325 L 130 324 L 146 324 L 147 323 L 147 323 L 149 322 L 150 322 L 150 322 L 150 321 L 150 321 L 150 320 L 150 320 L 150 319 L 150 319 L 150 319 L 150 318 L 150 318 L 150 317 L 150 317 L 150 316 L 150 316 L 150 316 L 150 315 L 150 315 L 150 314 L 150 314 L 150 313 L 150 313 L 150 313 L 150 312 L 150 312 L 151 311 L 151 311 L 151 310 L 151 310 L 151 309 L 151 309 L 151 309 L 151 308 L 151 308 L 151 307 L 151 307 L 151 306 L 151 306 L 151 306 L 151 305 L 151 305 L 151 304 L 151 304 L 151 303 L 151 303 L 151 303 L 151 302 L 151 302 L 152 301 L 152 301 L 152 300 L 152 300 L 152 299 L 153 299 L 153 299 L 153 298 L 153 298 L 153 297 L 153 297 L 153 296 L 153 296 L 153 296 L 153 295 L 153 295 L 153 294 L 153 294 L 153 293 L 153 293 L 153 293 L 154 292 L 154 292 L 155 291 L 155 291 L 155 290 L 155 290 L 159 289 L 159 289 L 159 289 L 161 288 L 161 288 L 163 287 L 166 287 L 167 286 L 169 286 L 170 286 L 172 285 L 172 285 L 173 284 L 175 284 L 175 283 L 176 283 L 177 283 L 178 282 L 179 282 L 179 281 L 179 281 L 180 280 L 181 280 L 182 280 L 182 279 L 183 279 L 184 278 L 184 278 L 185 277 L 186 277 L 188 276 L 190 276 L 191 276 L 192 275 L 193 275 L 193 274 L 193 274 L 195 273 L 202 273 L 202 273 L 203 272 L 210 272 L 210 271 L 210 271 L 210 270 L 211 270 L 212 270 L 214 269 L 215 269 L 215 268 L 223 268 L 225 267 L 226 267 L 229 266 L 231 266 L 231 266 L 232 265 L 237 265 L 244 264 L 251 264 L 251 263 L 251 263 L 252 263 L 252 262 L 254 262 L 263 261 L 268 261 L 268 260 L 271 260 L 272 260 L 273 259 L 283 259 L 283 258 L 284 258 L 284 257 L 286 257 L 289 256 L 290 256 L 292 256 L 294 255 L 296 255 L 302 254 L 302 254 L 303 253 L 303 253 L 304 253 L 304 252 L 307 252 L 313 251 L 326 251 L 331 250 L 334 250 L 334 250 L 336 249 L 337 249 L 337 248 L 337 248 L 337 247 L 337 247 L 337 247 L 337 246 L 337 246 L 338 245 L 338 245 L 338 244 L 338 244 L 338 243 L 338 243 L 339 243 L 341 242 L 341 242 L 341 241 L 341 241 L 341 240 L 343 240 L 343 240 L 343 239 L 343 239 L 343 238 L 343 238 L 343 237 L 344 237 L 345 237 L 345 236 L 346 236 L 346 235 L 346 235 L 346 234 L 347 234 L 347 233 L 347 233 L 347 233 L 348 232 L 349 232 L 349 231 L 350 231 L 351 230 L 352 230 L 353 230 L 356 229 L 356 229 L 357 228 L 357 228 L 357 227 L 357 227 L 357 227 L 359 226 L 360 226 L 362 225 L 362 225 L 362 224 L 364 224 L 366 223 L 366 223 L 369 223 L 369 222 L 370 222 L 371 221 L 371 221 L 376 220 L 377 220 L 377 220 L 381 219 L 383 219 L 387 218 L 388 218 L 388 217 L 389 217 L 390 217 L 390 216 L 393 216 L 395 215 L 397 215 L 397 214 L 399 214 L 400 214 L 400 213 L 400 213 L 400 212 L 401 212 L 401 211 L 401 211 L 403 210 L 403 210 L 403 210 L 404 209 L 408 209 L 414 208 L 414 208 L 414 207 L 418 207 L 420 207 L 421 206 L 421 206 L 422 205 L 424 205 L 424 204 L 424 204 L 424 204 L 424 203 L 424 203 L 424 202 L 425 202 L 425 201 L 426 201 L 428 200 L 428 200 L 428 200 L 429 199 L 429 199 L 429 198 L 429 198 L 429 197 L 429 197 L 429 197 L 429 196 L 430 196 L 430 195 L 434 195 L 437 194 L 437 194 L 438 194 L 449 193 L 451 193 L 454 192 L 457 192 L 464 191 L 466 191 L 469 190 L 469 190 L 469 190 L 469 189 L 469 189 L 469 188 L 469 188 L 469 187 L 471 187 L 472 187 L 481 186 L 483 186 L 487 185 L 493 185 L 498 184 L 502 184 L 505 184 L 510 183 L 510 183 L 520 182 L 530 182 L 531 181 L 538 181 L 538 181 L 544 180 L 545 180 L 548 179 L 548 179 L 549 178 L 549 178 L 552 177 L 553 177 L 556 177 L 560 176 L 561 176 L 562 175 L 563 175 L 567 174 L 570 174 L 571 174 L 575 173 L 579 173 L 580 172 L 580 172 L 582 171 L 583 171 L 584 171 L 588 170 L 591 170 L 593 169 L 596 169 L 596 168 L 602 168 L 603 167 L 606 167 L 611 167 L 611 166 L 616 166 L 617 165 L 617 165 L 619 164 L 619 164 L 622 164 L 622 163 L 624 163 L 627 162 L 628 162 L 629 161 L 629 161 L 637 161 L 638 160 L 638 160 L 639 159 L 639 159 L 640 158 L 640 158 L 640 157 L 641 157 L 643 157 L 643 156 L 645 156 L 646 155 L 646 155 L 647 154 L 648 154 L 648 154 L 649 153 L 649 153 L 649 152 L 650 152 L 650 151 L 650 151 L 651 151 L 651 150 L 653 150 L 653 149 L 654 149 L 654 148 L 655 148 L 656 148 L 658 147 L 658 147 L 658 146 L 660 146 L 661 145 L 662 145 L 662 144 L 663 144 L 665 144 L 665 143 L 665 143 L 665 142 L 666 142 L 666 141 L 666 141 L 667 141 L 667 140 L 668 140 L 672 139 L 673 139 L 674 138 L 675 138 L 677 138 L 679 137 L 680 137 L 682 136 L 685 136 L 687 135 L 690 135 L 691 134 L 691 134 L 691 134 L 692 133 L 692 133 L 693 132 L 693 132 L 694 131 L 694 131 L 694 131 L 694 130 L 696 130 L 697 129 L 697 129 L 698 128 L 698 128 L 701 128 L 702 127 L 702 127 L 703 126 L 704 126 L 707 125 L 710 125 L 714 124 L 714 124 L 714 124 L 714 123 L 717 123 L 719 122 L 720 122 L 720 121 L 720 121 L 720 121 L 722 120 L 726 120 L 726 119 L 727 119 L 727 118 L 729 118 L 729 118 L 729 117 L 729 117 L 730 116 L 733 116 L 737 115 L 737 115 L 741 115 L 742 114 L 742 114 L 746 113 L 748 113 L 751 112 L 753 112 L 755 111 L 756 111 L 756 111 L 756 110 L 757 110 L 757 109 L 757 109 L 758 108 L 758 108 L 758 108 L 759 107 L 759 107 L 760 106 L 761 106 L 762 105 L 762 105 L 768 105 L 768 104 L 774 104 L 777 103 L 777 103 L 778 102 L 779 102 L 781 101 L 782 101 L 783 101 L 783 100 L 784 100 L 784 99 L 784 99 L 784 98 L 784 98 L 785 98 L 785 97 L 785 97 L 785 96 L 785 96 L 786 95 L 787 95 L 787 95 L 788 94 L 788 94 L 789 93 L 790 93 L 791 92 L 791 92 L 791 91 L 792 91 L 793 91 L 797 90 L 797 90 L 797 89 L 797 89 L 797 88 L 798 88 L 798 88 L 798 87 L 800 87 L 802 86 L 805 86 L 808 85 L 809 85 L 811 85 L 815 84 L 819 84 L 820 83 L 823 83 L 827 82 L 828 82 L 828 82 L 833 81 L 835 81 L 835 80 L 836 80 L 836 79 L 846 79 L 847 78 L 848 78 L 848 78 L 848 77 L 849 77 L 850 76 L 851 76 L 851 75 L 852 75 L 852 75 L 853 74 L 853 74 L 853 73 L 853 73 L 854 72 L 854 72 L 854 72 L 854 71 L 855 71 L 856 70 L 858 70 L 859 69 L 859 69 L 859 68 L 860 68 L 861 68 L 862 67 L 862 67 L 863 66 L 864 66 L 864 65 L 864 65 L 866 65 L 866 64 L 868 64 L 868 63 L 869 63 L 870 62 L 870 62 L 871 62 L 871 61 L 871 61 L 872 60 L 872 60 L 872 59 L 874 59 L 874 58 L 875 58 L 876 58 L 876 57 L 876 57 L 876 56 L 877 56 L 877 55 L 877 55 L 877 55 L 879 54 L 879 54 L 879 53 L 880 53 L 881 52 L 881 52 L 881 52 L 881 51 L 881 51 L 882 50 L 882 50 L 882 49 L 882 49 L 882 49 L 885 48 L 886 48 L 889 47 L 889 47 L 889 46 L 889 46 L 891 45 L 892 45 L 892 45 L 893 44 L 896 44 L 899 43 L 899 43 L 901 42 L 902 42 L 902 42 L 903 41 L 903 41 L 904 40 L 904 40 L 904 39 L 904 39 L 904 39 L 904 38 L 904 38 L 904 37 L 904 37 L 904 36 L 905 36 L 905 35 L 905 35 L 905 35 L 906 34 L 906 34 L 906 33 L 907 33 L 908 32 L 910 32 L 910 32 L 911 31 L 911 31 L 912 30 L 912 30 L 913 29 L 916 29 L 917 29 L 917 28 L 917 28 L 917 27 L 918 27 L 921 26 L 923 26 L 923 25 L 926 25 L 926 25 L 926 24 L 926 24 L 927 23 L 933 23 L 935 22 L 939 22 L 941 22 L 942 21 L 943 21 L 944 20 L 944 20 L 945 19 L 945 19 L 945 19" /><path d="M 58 345 L 61 345 L 78 344 L 79 344 L 79 343 L 79 343 L 79 342 L 79 342 L 79 342 L 79 341 L 79 341 L 79 340 L 79 340 L 79 339 L 79 339 L 80 339 L 80 338 L 80 338 L 80 337 L 81 337 L 81 336 L 81 336 L 83 336 L 84 335 L 84 335 L 84 334 L 84 334 L 85 333 L 87 333 L 87 332 L 89 332 L 90 332 L 95 331 L 95 331 L 95 330 L 95 330 L 95 329 L 96 329 L 99 329 L 100 328 L 101 328 L 103 327 L 108 327 L 110 326 L 117 326 L 120 326 L 124 325 L 128 325 L 130 324 L 146 324 L 147 323 L 147 323 L 149 322 L 150 322 L 150 322 L 150 321 L 150 321 L 150 320 L 150 320 L 150 319 L 150 319 L 150 319 L 150 318 L 150 318 L 150 317 L 150 317 L 150 316 L 150 316 L 150 316 L 150 315 L 150 315 L 150 314 L 150 314 L 150 313 L 150 313 L 150 313 L 150 312 L 150 312 L 151 311 L 151 311 L 151 310 L 151 310 L 151 309 L 151 309 L 151 309 L 151 308 L 151 308 L 151 307 L 151 307 L 151 306 L 151 306 L 151 306 L 151 305 L 151 305 L 151 304 L 151 304 L 151 303 L 151 303 L 151 303 L 151 302 L 151 302 L 152 301 L 152 301 L 152 300 L 152 300 L 152 299 L 153 299 L 153 299 L 153 298 L 153 298 L 153 297 L 153 297 L 153 296 L 153 296 L 153 296 L 153 295 L 153 295 L 153 294 L 153 294 L 153 293 L 153 293 L 153 293 L 154 292 L 154 292 L 155 291 L 155 291 L 155 290 L 155 290 L 159 289 L 159 289 L 159 289 L 161 288 L 161 288 L 163 287 L 166 287 L 167 286 L 169 286 L 170 286 L 172 285 L 172 285 L 173 284 L 175 284 L 175 283 L 176 283 L 177 283 L 178 282 L 179 282 L 179 281 L 179 281 L 180 280 L 181 280 L 182 280 L 182 279 L 183 279 L 184 278 L 184 278 L 185 277 L 186 277 L 188 276 L 190 276 L 191 276 L 192 275 L 193 275 L 193 274 L 193 274 L 195 273 L 202 273 L 202 273 L 203 272 L 210 272 L 210 271 L 210 271 L 210 270 L 211 270 L 212 270 L 214 269 L 215 269 L 215 268 L 223 268 L 225 267 L 226 267 L 229 266 L 231 266 L 231 266 L 232 265 L 237 265 L 244 264 L 251 264 L 251 263 L 251 263 L 252 263 L 252 262 L 254 262 L 263 261 L 268 261 L 268 260 L 271 260 L 272 260 L 273 259 L 283 259 L 283 258 L 284 258 L 284 257 L 286 257 L 289 256 L 290 256 L 292 256 L 294 255 L 296 255 L 302 254 L 302 254 L 303 253 L 303 253 L 304 253 L 304 252 L 307 252 L 313 251 L 326 251 L 331 250 L 334 250 L 334 250 L 336 249 L 337 249 L 337 248 L 337 248 L 337 247 L 337 247 L 337 247 L 337 246 L 337 246 L 338 245 L 338 245 L 338 244 L 338 244 L 338 243 L 338 243 L 339 243 L 341 242 L 341 242 L 341 241 L 341 241 L 341 240 L 343 240 L 343 240 L 343 239 L 343 239 L 343 238 L 343 238 L 343 237 L 344 237 L 345 237 L 345 236 L 346 236 L 346 235 L 346 235 L 346 234 L 347 234 L 347 233 L 347 233 L 347 233 L 348 232 L 349 232 L 349 231 L 350 231 L 351 230 L 352 230 L 353 230 L 356 229 L 356 229 L 357 228 L 357 228 L 357 227 L 357 227 L 357 227 L 359 226 L 360 226 L 362 225 L 362 225 L 362 224 L 364 224 L 366 223 L 366 223 L 369 223 L 369 222 L 370 222 L 371 221 L 371 221 L 376 220 L 377 220 L 377 220 L 381 219 L 383 219 L 387 218 L 388 218 L 388 217 L 389 217 L 390 217 L 390 216 L 393 216 L 395 215 L 397 215 L 397 214 L 399 214 L 400 214 L 400 213 L 400 213 L 400 212 L 401 212 L 401 211 L 401 211 L 403 210 L 403 210 L 403 210 L 404 209 L 408 209 L 414 208 L 414 208 L 414 207 L 418 207 L 420 207 L 421 206 L 421 206 L 422 205 L 424 205 L 424 204 L 424 204 L 424 204 L 424 203 L 424 203 L 424 202 L 425 202 L 425 201 L 426 201 L 428 200 L 428 200 L 428 200 L 429 199 L 429 199 L 429 198 L 429 198 L 429 197 L 429 197 L 429 197 L 429 196 L 430 196 L 430 195 L 434 195 L 437 194 L 437 194 L 438 194 L 449 193 L 451 193 L 454 192 L 457 192 L 464 191 L 466 191 L 469 190 L 469 190 L 469 190 L 469 189 L 469 189 L 469 188 L 469 188 L 469 187 L 471 187 L 472 187 L 481 186 L 483 186 L 487 185 L 493 185 L 498 184 L 502 184 L 505 184 L 510 183 L 510 183 L 520 182 L 530 182 L 531 181 L 538 181 L 538 181 L 544 180 L 545 180 L 548 179 L 548 179 L 549 178 L 549 178 L 552 177 L 553 177 L 556 177 L 560 176 L 561 176 L 562 175 L 563 175 L 567 174 L 570 174 L 571 174 L 575 173 L 579 173 L 580 172 L 580 172 L 582 171 L 583 171 L 584 171 L 588 170 L 591 170 L 593 169 L 596 169 L 596 168 L 602 168 L 603 167 L 606 167 L 611 167 L 611 166 L 616 166 L 617 165 L 617 165 L 619 164 L 619 164 L 622 164 L 622 163 L 624 163 L 627 162 L 628 162 L 629 161 L 629 161 L 637 161 L 638 160 L 638 160 L 639 159 L 639 159 L 640 158 L 640 158 L 640 157 L 641 157 L 643 157 L 643 156 L 645 156 L 646 155 L 646 155 L 647 154 L 648 154 L 648 154 L 649 153 L 649 153 L 649 152 L 650 152 L 650 151 L 650 151 L 651 151 L 651 150 L 653 150 L 653 149 L 654 149 L 654 148 L 655 148 L 656 148 L 658 147 L 658 147 L 658 146 L 660 146 L 661 145 L 662 145 L 662 144 L 663 144 L 665 144 L 665 143 L 665 143 L 665 142 L 666 142 L 666 141 L 666 141 L 667 141 L 667 140 L 668 140 L 672 139 L 673 139 L 674 138 L 675 138 L 677 138 L 679 137 L 680 137 L 682 136 L 685 136 L 687 135 L 690 135 L 691 134 L 691 134 L 691 134 L 692 133 L 692 133 L 693 132 L 693 132 L 694 131 L 694 131 L 694 131 L 694 130 L 696 130 L 697 129 L 697 129 L 698 128 L 698 128 L 701 128 L 702 127 L 702 127 L 703 126 L 704 126 L 707 125 L 710 125 L 714 124 L 714 124 L 714 124 L 714 123 L 717 123 L 719 122 L 720 122 L 720 121 L 720 121 L 720 121 L 722 120 L 726 120 L 726 119 L 727 119 L 727 118 L 729 118 L 729 118 L 729 117 L 729 117 L 730 116 L 733 116 L 737 115 L 737 115 L 741 115 L 742 114 L 742 114 L 746 113 L 748 113 L 751 112 L 753 112 L 755 111 L 756 111 L 756 111 L 756 110 L 757 110 L 757 109 L 757 109 L 758 108 L 758 108 L 758 108 L 759 107 L 759 107 L 760 106 L 761 106 L 762 105 L 762 105 L 768 105 L 768 104 L 774 104 L 777 103 L 777 103 L 778 102 L 779 102 L 781 101 L 782 101 L 783 101 L 783 100 L 784 100 L 784 99 L 784 99 L 784 98 L 784 98 L 785 98 L 785 97 L 785 97 L 785 96 L 785 96 L 786 95 L 787 95 L 787 95 L 788 94 L 788 94 L 789 93 L 790 93 L 791 92 L 791 92 L 791 91 L 792 91 L 793 91 L 797 90 L 797 90 L 797 89 L 797 89 L 797 88 L 798 88 L 798 88 L 798 87 L 800 87 L 802 86 L 805 86 L 808 85 L 809 85 L 811 85 L 815 84 L 819 84 L 820 83 L 823 83 L 827 82 L 828 82 L 828 82 L 833 81 L 835 81 L 835 80 L 836 80 L 836 79 L 846 79 L 847 78 L 848 78 L 848 78 L 848 77 L 849 77 L 850 76 L 851 76 L 851 75 L 852 75 L 852 75 L 853 74 L 853 74 L 853 73 L 853 73 L 854 72 L 854 72 L 854 72 L 854 71 L 855 71 L 856 70 L 858 70 L 859 69 L 859 69 L 859 68 L 860 68 L 861 68 L 862 67 L 862 67 L 863 66 L 864 66 L 864 65 L 864 65 L 866 65 L 866 64 L 868 64 L 868 63 L 869 63 L 870 62 L 870 62 L 871 62 L 871 61 L 871 61 L 872 60 L 872 60 L 872 59 L 874 59 L 874 58 L 875 58 L 876 58 L 876 57 L 876 57 L 876 56 L 877 56 L 877 55 L 877 55 L 877 55 L 879 54 L 879 54 L 879 53 L 880 53 L 881 52 L 881 52 L 881 52 L 881 51 L 881 51 L 882 50 L 882 50 L 882 49 L 882 49 L 882 49 L 885 48 L 886 48 L 889 47 L 889 47 L 889 46 L 889 46 L 891 45 L 892 45 L 892 45 L 893 44 L 896 44 L 899 43 L 899 43 L 901 42 L 902 42 L 902 42 L 903 41 L 903 41 L 904 40 L 904 40 L 904 39 L 904 39 L 904 39 L 904 38 L 904 38 L 904 37 L 904 37 L 904 36 L 905 36 L 905 35 L 905 35 L 905 35 L 906 34 L 906 34 L 906 33 L 907 33 L 908 32 L 910 32 L 910 32 L 911 31 L 911 31 L 912 30 L 912 30 L 913 29 L 916 29 L 917 29 L 917 28 L 917 28 L 917 27 L 918 27 L 921 26 L 923 26 L 923 25 L 926 25 L 926 25 L 926 24 L 926 24 L 927 23 L 933 23 L 935 22 L 939 22 L 941 22 L 942 21 L 943 21 L 944 20 L 944 20 L 945 19 L 945 19 L 945 19" stroke-width="2" class="series"></path><path stroke-width="2" d="M 945 346 L 945.000000 15.000000" /><path stroke-width="2" d="M 945 346 L 945.000000 15.000000"></path><path d="M 945 346 L 950 346" stroke-width="2" /><path stroke-width="2" d="M 945 346 L 950 346"></path><text xmlns="http://www.w3.org/2000/svg" x="955" y="352">0</text><path d="M 945 309 L 950 309" stroke-width="2" /><path stroke-width="2" d="M 945 309 L 950 309"></path><text xmlns="http://www.w3.org/2000/svg" x="955" y="315">85</text><path stroke-width="2" d="M 945 272 L 950 272" /><path stroke-width="2" d="M 945 272 L 950 272"></path><text x="955" y="278" xmlns="http://www.w3.org/2000/svg">169</text><path stroke-width="2" d="M 945 235 L 950 235" /><path stroke-width="2" d="M 945 235 L 950 235"></path><text xmlns="http://www.w3.org/2000/svg" x="955" y="241">254</text><path stroke-width="2" d="M 945 199 L 950 199" /><path stroke-width="2" d="M 945 199 L 950 199"></path><text xmlns="http://www.w3.org/2000/svg" x="955" y="205">338</text><path stroke-width="2" d="M 945 162 L 950 162" /><path stroke-width="2" d="M 945 162 L 950 162"></path><text y="168" xmlns="http://www.w3.org/2000/svg" x="955">423</text><path stroke-width="2" d="M 945 125 L 950 125" /><path stroke-width="2" d="M 945 125 L 950 125"></path><text xmlns="http://www.w3.org/2000/svg" x="955" y="131">507</text><path stroke-width="2" d="M 945 88 L 950 88" /><path stroke-width="2" d="M 945 88 L 950 88"></path><text y="94" xmlns="http://www.w3.org/2000/svg" x="955">592</text><path stroke-width="2" d="M 945 52 L 950 52" /><path stroke-width="2" d="M 945 52 L 950 52"></path><text xmlns="http://www.w3.org/2000/svg" x="955" y="58">676</text><path stroke-width="2" d="M 945 16 L 950 16" /><path stroke-width="2" d="M 945 16 L 950 16"></path><text xmlns="http://www.w3.org/2000/svg" x="955" y="22">760</text><text y="175" transform="rotate(90.00,987,175)" xmlns="http://www.w3.org/2000/svg" x="987">Stargazers</text><path stroke-width="2" d="M 57.000000 346.000000 L 945 346" /><path stroke-width="2" d="M 57.000000 346.000000 L 945 346"></path><path stroke-width="2" d="M 58 346 L 58 351" /><path stroke-width="2" d="M 58 346 L 58 351"></path><text xmlns="http://www.w3.org/2000/svg" x="25" y="368">2023-04-02</text><path stroke-width="2" d="M 157 346 L 157 351" /><path stroke-width="2" d="M 157 346 L 157 351"></path><text xmlns="http://www.w3.org/2000/svg" x="124" y="368">2023-06-10</text><path stroke-width="2" d="M 256 346 L 256 351" /><path d="M 256 346 L 256 351" stroke-width="2"></path><text xmlns="http://www.w3.org/2000/svg" x="223" y="368">2023-08-19</text><path stroke-width="2" d="M 354 346 L 354 351" /><path d="M 354 346 L 354 351" stroke-width="2"></path><text xmlns="http://www.w3.org/2000/svg" x="321" y="368">2023-10-27</text><path d="M 453 346 L 453 351" stroke-width="2" /><path stroke-width="2" d="M 453 346 L 453 351"></path><text xmlns="http://www.w3.org/2000/svg" x="420" y="368">2024-01-04</text><path stroke-width="2" d="M 551 346 L 551 351" /><path stroke-width="2" d="M 551 346 L 551 351"></path><text x="518" y="368" xmlns="http://www.w3.org/2000/svg">2024-03-13</text><path stroke-width="2" d="M 650 346 L 650 351" /><path stroke-width="2" d="M 650 346 L 650 351"></path><text xmlns="http://www.w3.org/2000/svg" x="617" y="368">2024-05-22</text><path stroke-width="2" d="M 748 346 L 748 351" /><path stroke-width="2" d="M 748 346 L 748 351"></path><text y="368" xmlns="http://www.w3.org/2000/svg" x="715">2024-07-30</text><path stroke-width="2" d="M 847 346 L 847 351" /><path stroke-width="2" d="M 847 346 L 847 351"></path><text xmlns="http://www.w3.org/2000/svg" x="814" y="368">2024-10-07</text><path stroke-width="2" d="M 945 346 L 945 351" /><path d="M 945 346 L 945 351" stroke-width="2"></path><text xmlns="http://www.w3.org/2000/svg" x="912" y="368">2024-12-16</text><text xmlns="http://www.w3.org/2000/svg" x="487" y="390">Time</text></svg>