<svg xmlns="http://www.w3.org/2000/svg" xmlns:xlink="http://www.w3.org/1999/xlink" width="1024" height="400">\n<path  d="M 0 0
L 1024 0
L 1024 400
L 0 400
L 0 0" style="stroke-width:0;stroke:rgba(255,255,255,1.0);fill:rgba(255,255,255,1.0)"/><path  d="M 38 11
L 965 11
L 965 351
L 38 351
L 38 11" style="stroke-width:0;stroke:rgba(255,255,255,1.0);fill:rgba(255,255,255,1.0)"/><path  d="M 38 351
L 965 351" style="stroke-width:2;stroke:rgba(85,85,85,1.0);fill:none"/><path  d="M 38 351
L 38 356" style="stroke-width:2;stroke:rgba(85,85,85,1.0);fill:none"/><text x="5" y="373" style="stroke-width:0;stroke:none;fill:rgba(51,51,51,1.0);font-size:12.8px;font-family:'Roboto Medium',sans-serif">2023-04-02</text><path  d="M 154 351
L 154 356" style="stroke-width:2;stroke:rgba(85,85,85,1.0);fill:none"/><text x="121" y="373" style="stroke-width:0;stroke:none;fill:rgba(51,51,51,1.0);font-size:12.8px;font-family:'Roboto Medium',sans-serif">2023-04-21</text><path  d="M 270 351
L 270 356" style="stroke-width:2;stroke:rgba(85,85,85,1.0);fill:none"/><text x="237" y="373" style="stroke-width:0;stroke:none;fill:rgba(51,51,51,1.0);font-size:12.8px;font-family:'Roboto Medium',sans-serif">2023-05-10</text><path  d="M 386 351
L 386 356" style="stroke-width:2;stroke:rgba(85,85,85,1.0);fill:none"/><text x="353" y="373" style="stroke-width:0;stroke:none;fill:rgba(51,51,51,1.0);font-size:12.8px;font-family:'Roboto Medium',sans-serif">2023-05-28</text><path  d="M 502 351
L 502 356" style="stroke-width:2;stroke:rgba(85,85,85,1.0);fill:none"/><text x="469" y="373" style="stroke-width:0;stroke:none;fill:rgba(51,51,51,1.0);font-size:12.8px;font-family:'Roboto Medium',sans-serif">2023-06-16</text><path  d="M 618 351
L 618 356" style="stroke-width:2;stroke:rgba(85,85,85,1.0);fill:none"/><text x="585" y="373" style="stroke-width:0;stroke:none;fill:rgba(51,51,51,1.0);font-size:12.8px;font-family:'Roboto Medium',sans-serif">2023-07-05</text><path  d="M 734 351
L 734 356" style="stroke-width:2;stroke:rgba(85,85,85,1.0);fill:none"/><text x="701" y="373" style="stroke-width:0;stroke:none;fill:rgba(51,51,51,1.0);font-size:12.8px;font-family:'Roboto Medium',sans-serif">2023-07-24</text><path  d="M 850 351
L 850 356" style="stroke-width:2;stroke:rgba(85,85,85,1.0);fill:none"/><text x="817" y="373" style="stroke-width:0;stroke:none;fill:rgba(51,51,51,1.0);font-size:12.8px;font-family:'Roboto Medium',sans-serif">2023-08-12</text><path  d="M 965 351
L 965 356" style="stroke-width:2;stroke:rgba(85,85,85,1.0);fill:none"/><text x="932" y="373" style="stroke-width:0;stroke:none;fill:rgba(51,51,51,1.0);font-size:12.8px;font-family:'Roboto Medium',sans-serif">2023-08-31</text><text x="487" y="395" style="stroke-width:0;stroke:none;fill:rgba(51,51,51,1.0);font-size:12.8px;font-family:'Roboto Medium',sans-serif">Time</text><path  d="M 967 351
L 967 11" style="stroke-width:2;stroke:rgba(85,85,85,1.0);fill:none"/><path  d="M 967 351
L 972 351" style="stroke-width:2;stroke:rgba(85,85,85,1.0);fill:none"/><text x="977" y="357" style="stroke-width:0;stroke:none;fill:rgba(51,51,51,1.0);font-size:12.8px;font-family:'Roboto Medium',sans-serif">0</text><path  d="M 967 307
L 972 307" style="stroke-width:2;stroke:rgba(85,85,85,1.0);fill:none"/><text x="977" y="313" style="stroke-width:0;stroke:none;fill:rgba(51,51,51,1.0);font-size:12.8px;font-family:'Roboto Medium',sans-serif">27</text><path  d="M 967 265
L 972 265" style="stroke-width:2;stroke:rgba(85,85,85,1.0);fill:none"/><text x="977" y="271" style="stroke-width:0;stroke:none;fill:rgba(51,51,51,1.0);font-size:12.8px;font-family:'Roboto Medium',sans-serif">53</text><path  d="M 967 223
L 972 223" style="stroke-width:2;stroke:rgba(85,85,85,1.0);fill:none"/><text x="977" y="229" style="stroke-width:0;stroke:none;fill:rgba(51,51,51,1.0);font-size:12.8px;font-family:'Roboto Medium',sans-serif">79</text><path  d="M 967 181
L 972 181" style="stroke-width:2;stroke:rgba(85,85,85,1.0);fill:none"/><text x="977" y="187" style="stroke-width:0;stroke:none;fill:rgba(51,51,51,1.0);font-size:12.8px;font-family:'Roboto Medium',sans-serif">105</text><path  d="M 967 137
L 972 137" style="stroke-width:2;stroke:rgba(85,85,85,1.0);fill:none"/><text x="977" y="143" style="stroke-width:0;stroke:none;fill:rgba(51,51,51,1.0);font-size:12.8px;font-family:'Roboto Medium',sans-serif">132</text><path  d="M 967 95
L 972 95" style="stroke-width:2;stroke:rgba(85,85,85,1.0);fill:none"/><text x="977" y="101" style="stroke-width:0;stroke:none;fill:rgba(51,51,51,1.0);font-size:12.8px;font-family:'Roboto Medium',sans-serif">158</text><path  d="M 967 53
L 972 53" style="stroke-width:2;stroke:rgba(85,85,85,1.0);fill:none"/><text x="977" y="59" style="stroke-width:0;stroke:none;fill:rgba(51,51,51,1.0);font-size:12.8px;font-family:'Roboto Medium',sans-serif">184</text><path  d="M 967 11
L 972 11" style="stroke-width:2;stroke:rgba(85,85,85,1.0);fill:none"/><text x="977" y="17" style="stroke-width:0;stroke:none;fill:rgba(51,51,51,1.0);font-size:12.8px;font-family:'Roboto Medium',sans-serif">210</text><text x="1009" y="150" style="stroke-width:0;stroke:none;fill:rgba(51,51,51,1.0);font-size:12.8px;font-family:'Roboto Medium',sans-serif" transform="rotate(90.00,1009,150)">Stargazers</text><path  d="M 38 351
L 50 349
L 124 347
L 126 346
L 126 344
L 126 342
L 126 341
L 126 339
L 126 338
L 126 336
L 128 334
L 128 333
L 129 331
L 129 329
L 129 328
L 129 326
L 130 325
L 130 323
L 131 321
L 131 320
L 135 318
L 137 317
L 138 315
L 143 313
L 147 312
L 147 310
L 147 308
L 150 307
L 150 305
L 154 304
L 162 302
L 163 300
L 168 299
L 174 297
L 197 295
L 198 294
L 198 292
L 198 291
L 198 289
L 199 287
L 199 286
L 212 284
L 218 283
L 222 281
L 233 279
L 252 278
L 259 276
L 292 274
L 303 273
L 321 271
L 339 270
L 347 268
L 417 266
L 421 265
L 421 263
L 430 261
L 433 260
L 433 258
L 433 257
L 433 255
L 433 253
L 433 252
L 433 250
L 433 249
L 434 247
L 434 245
L 434 244
L 435 242
L 436 240
L 436 239
L 436 237
L 436 236
L 436 234
L 436 232
L 436 231
L 436 229
L 436 227
L 436 226
L 436 224
L 437 223
L 437 221
L 437 219
L 437 218
L 437 216
L 437 215
L 437 213
L 437 211
L 437 210
L 437 208
L 438 206
L 438 205
L 438 203
L 438 202
L 438 200
L 438 198
L 438 197
L 438 195
L 438 193
L 438 192
L 438 190
L 438 189
L 440 187
L 440 185
L 441 184
L 442 182
L 442 181
L 443 179
L 444 177
L 445 176
L 448 174
L 449 172
L 449 171
L 449 169
L 449 168
L 449 166
L 449 164
L 449 163
L 449 161
L 449 159
L 449 158
L 449 156
L 449 155
L 449 153
L 449 151
L 449 150
L 450 148
L 452 147
L 456 145
L 457 143
L 457 142
L 457 140
L 474 138
L 475 137
L 475 135
L 481 134
L 481 132
L 492 130
L 504 129
L 507 127
L 517 125
L 521 124
L 528 122
L 530 121
L 532 119
L 543 117
L 544 116
L 548 114
L 553 113
L 556 111
L 561 109
L 561 108
L 562 106
L 564 104
L 569 103
L 575 101
L 575 100
L 578 98
L 580 96
L 580 95
L 584 93
L 592 91
L 598 90
L 608 88
L 612 87
L 616 85
L 621 83
L 621 82
L 622 80
L 630 79
L 659 77
L 661 75
L 665 74
L 694 72
L 695 70
L 695 69
L 695 67
L 696 66
L 701 64
L 710 62
L 715 61
L 716 59
L 751 57
L 757 56
L 765 54
L 776 53
L 783 51
L 783 49
L 788 48
L 812 46
L 839 45
L 870 43
L 873 41
L 873 40
L 874 38
L 876 36
L 883 35
L 924 33
L 943 32
L 944 30
L 960 28
L 963 27
L 965 25" style="stroke-width:2;stroke:rgba(129,199,239,1.0);fill:none"/></svg>