<svg xmlns="http://www.w3.org/2000/svg" xmlns:xlink="http://www.w3.org/1999/xlink" width="1024px" height="400px"><style type="text/css">
path { fill: none; stroke: rgb(51,51,51); }
path.series { stroke: #6b63ff; }
rect.background { fill: rgb(255,255,255); stroke: none; }

text {
	stroke-width: 0;
	stroke: none;
	fill: rgba(51,51,51,1.0);
	font-size: 12.8px;
	font-family: 'Roboto Medium', sans-serif;
}
</style><rect height="400px" class="background" rx="8" x="0" y="0" width="1024px" /><rect y="0" width="1024px" height="400px" class="background" rx="8" x="0"></rect><path stroke-width="2" class="series" d="M 58 345 L 63 344 L 90 343 L 91 342 L 91 342 L 91 341 L 91 340 L 91 339 L 91 338 L 91 338 L 92 337 L 92 336 L 92 335 L 92 335 L 92 334 L 92 333 L 92 332 L 92 331 L 93 331 L 93 330 L 94 329 L 95 328 L 95 327 L 97 327 L 99 326 L 99 325 L 99 324 L 100 324 L 101 323 L 104 322 L 105 321 L 107 320 L 109 320 L 117 319 L 118 318 L 118 317 L 118 316 L 118 316 L 118 315 L 123 314 L 125 313 L 127 313 L 131 312 L 138 311 L 140 310 L 153 309 L 157 309 L 163 308 L 170 307 L 173 306 L 199 305 L 200 305 L 201 304 L 204 303 L 205 302 L 205 302 L 205 301 L 205 300 L 205 299 L 205 298 L 205 298 L 205 297 L 205 296 L 205 295 L 205 294 L 206 294 L 206 293 L 206 292 L 206 291 L 206 291 L 206 290 L 206 289 L 206 288 L 206 287 L 206 287 L 206 286 L 206 285 L 206 284 L 206 283 L 206 283 L 206 282 L 206 281 L 206 280 L 207 280 L 207 279 L 207 278 L 207 277 L 207 276 L 207 276 L 207 275 L 207 274 L 207 273 L 207 272 L 207 272 L 207 271 L 207 270 L 207 269 L 207 269 L 207 268 L 207 267 L 207 266 L 208 265 L 208 265 L 208 264 L 209 263 L 209 262 L 209 261 L 211 261 L 211 260 L 211 259 L 211 258 L 211 258 L 211 257 L 211 256 L 211 255 L 211 254 L 211 254 L 211 253 L 211 252 L 211 251 L 211 250 L 211 250 L 211 249 L 211 248 L 212 247 L 214 247 L 214 246 L 214 245 L 214 244 L 220 243 L 220 243 L 221 242 L 223 241 L 223 240 L 227 239 L 231 239 L 232 238 L 236 237 L 238 236 L 240 236 L 241 235 L 242 234 L 246 233 L 246 232 L 248 232 L 250 231 L 251 230 L 252 229 L 253 228 L 253 228 L 253 227 L 255 226 L 258 225 L 258 225 L 259 224 L 259 223 L 259 222 L 261 221 L 264 221 L 266 220 L 270 219 L 271 218 L 273 217 L 275 217 L 275 216 L 275 215 L 278 214 L 289 214 L 289 213 L 291 212 L 302 211 L 302 210 L 302 210 L 302 209 L 303 208 L 304 207 L 308 206 L 310 206 L 310 205 L 323 204 L 325 203 L 328 203 L 332 202 L 335 201 L 335 200 L 337 199 L 346 199 L 356 198 L 367 197 L 368 196 L 368 195 L 369 195 L 369 194 L 372 193 L 387 192 L 394 192 L 395 191 L 400 190 L 402 189 L 403 188 L 420 188 L 420 187 L 421 186 L 421 185 L 424 184 L 428 184 L 430 183 L 434 182 L 436 181 L 440 181 L 449 180 L 450 179 L 451 178 L 452 177 L 452 177 L 453 176 L 458 175 L 467 174 L 488 173 L 496 173 L 497 172 L 501 171 L 501 170 L 504 170 L 506 169 L 506 168 L 506 167 L 506 166 L 506 166 L 506 165 L 506 164 L 506 163 L 507 162 L 507 162 L 507 161 L 507 160 L 507 159 L 508 159 L 508 158 L 510 157 L 512 156 L 512 155 L 513 155 L 513 154 L 513 153 L 515 152 L 515 151 L 515 151 L 515 150 L 515 149 L 516 148 L 516 148 L 517 147 L 518 146 L 519 145 L 520 144 L 520 144 L 520 143 L 520 142 L 522 141 L 522 140 L 522 140 L 522 139 L 524 138 L 524 137 L 525 137 L 526 136 L 528 135 L 529 134 L 532 133 L 536 133 L 536 132 L 537 131 L 538 130 L 538 129 L 538 129 L 538 128 L 541 127 L 542 126 L 545 126 L 545 125 L 547 124 L 550 123 L 552 122 L 553 122 L 557 121 L 558 120 L 559 119 L 560 118 L 560 118 L 568 117 L 570 116 L 570 115 L 576 115 L 580 114 L 586 113 L 588 112 L 588 111 L 590 111 L 591 110 L 591 109 L 596 108 L 599 107 L 602 107 L 603 106 L 605 105 L 607 104 L 607 104 L 607 103 L 607 102 L 608 101 L 609 100 L 609 100 L 611 99 L 611 98 L 611 97 L 613 96 L 620 96 L 630 95 L 630 94 L 630 93 L 636 92 L 639 92 L 640 91 L 641 90 L 643 89 L 645 89 L 645 88 L 645 87 L 645 86 L 645 85 L 646 85 L 646 84 L 647 83 L 647 82 L 648 82 L 653 81 L 653 80 L 653 79 L 653 78 L 653 78 L 654 77 L 654 76 L 654 75 L 654 74 L 654 74 L 654 73 L 654 72 L 655 71 L 657 71 L 662 70 L 666 69 L 666 68 L 668 67 L 676 67 L 686 66 L 688 65 L 694 64 L 698 63 L 710 63 L 714 62 L 717 61 L 718 60 L 718 60 L 718 59 L 718 58 L 719 57 L 719 56 L 719 56 L 721 55 L 723 54 L 737 53 L 741 52 L 746 52 L 757 51 L 765 50 L 771 49 L 775 49 L 783 48 L 784 47 L 800 46 L 816 45 L 817 45 L 828 44 L 829 43 L 838 42 L 840 41 L 845 41 L 845 40 L 846 39 L 846 38 L 851 38 L 853 37 L 858 36 L 865 35 L 866 34 L 868 34 L 869 33 L 875 32 L 881 31 L 881 30 L 888 30 L 895 29 L 896 28 L 897 27 L 900 27 L 901 26 L 903 25 L 908 24 L 913 23 L 918 23 L 919 22 L 922 21 L 922 20 L 931 19 L 933 19 L 937 18 L 945 17 L 945 16" /><path class="series" d="M 58 345 L 63 344 L 90 343 L 91 342 L 91 342 L 91 341 L 91 340 L 91 339 L 91 338 L 91 338 L 92 337 L 92 336 L 92 335 L 92 335 L 92 334 L 92 333 L 92 332 L 92 331 L 93 331 L 93 330 L 94 329 L 95 328 L 95 327 L 97 327 L 99 326 L 99 325 L 99 324 L 100 324 L 101 323 L 104 322 L 105 321 L 107 320 L 109 320 L 117 319 L 118 318 L 118 317 L 118 316 L 118 316 L 118 315 L 123 314 L 125 313 L 127 313 L 131 312 L 138 311 L 140 310 L 153 309 L 157 309 L 163 308 L 170 307 L 173 306 L 199 305 L 200 305 L 201 304 L 204 303 L 205 302 L 205 302 L 205 301 L 205 300 L 205 299 L 205 298 L 205 298 L 205 297 L 205 296 L 205 295 L 205 294 L 206 294 L 206 293 L 206 292 L 206 291 L 206 291 L 206 290 L 206 289 L 206 288 L 206 287 L 206 287 L 206 286 L 206 285 L 206 284 L 206 283 L 206 283 L 206 282 L 206 281 L 206 280 L 207 280 L 207 279 L 207 278 L 207 277 L 207 276 L 207 276 L 207 275 L 207 274 L 207 273 L 207 272 L 207 272 L 207 271 L 207 270 L 207 269 L 207 269 L 207 268 L 207 267 L 207 266 L 208 265 L 208 265 L 208 264 L 209 263 L 209 262 L 209 261 L 211 261 L 211 260 L 211 259 L 211 258 L 211 258 L 211 257 L 211 256 L 211 255 L 211 254 L 211 254 L 211 253 L 211 252 L 211 251 L 211 250 L 211 250 L 211 249 L 211 248 L 212 247 L 214 247 L 214 246 L 214 245 L 214 244 L 220 243 L 220 243 L 221 242 L 223 241 L 223 240 L 227 239 L 231 239 L 232 238 L 236 237 L 238 236 L 240 236 L 241 235 L 242 234 L 246 233 L 246 232 L 248 232 L 250 231 L 251 230 L 252 229 L 253 228 L 253 228 L 253 227 L 255 226 L 258 225 L 258 225 L 259 224 L 259 223 L 259 222 L 261 221 L 264 221 L 266 220 L 270 219 L 271 218 L 273 217 L 275 217 L 275 216 L 275 215 L 278 214 L 289 214 L 289 213 L 291 212 L 302 211 L 302 210 L 302 210 L 302 209 L 303 208 L 304 207 L 308 206 L 310 206 L 310 205 L 323 204 L 325 203 L 328 203 L 332 202 L 335 201 L 335 200 L 337 199 L 346 199 L 356 198 L 367 197 L 368 196 L 368 195 L 369 195 L 369 194 L 372 193 L 387 192 L 394 192 L 395 191 L 400 190 L 402 189 L 403 188 L 420 188 L 420 187 L 421 186 L 421 185 L 424 184 L 428 184 L 430 183 L 434 182 L 436 181 L 440 181 L 449 180 L 450 179 L 451 178 L 452 177 L 452 177 L 453 176 L 458 175 L 467 174 L 488 173 L 496 173 L 497 172 L 501 171 L 501 170 L 504 170 L 506 169 L 506 168 L 506 167 L 506 166 L 506 166 L 506 165 L 506 164 L 506 163 L 507 162 L 507 162 L 507 161 L 507 160 L 507 159 L 508 159 L 508 158 L 510 157 L 512 156 L 512 155 L 513 155 L 513 154 L 513 153 L 515 152 L 515 151 L 515 151 L 515 150 L 515 149 L 516 148 L 516 148 L 517 147 L 518 146 L 519 145 L 520 144 L 520 144 L 520 143 L 520 142 L 522 141 L 522 140 L 522 140 L 522 139 L 524 138 L 524 137 L 525 137 L 526 136 L 528 135 L 529 134 L 532 133 L 536 133 L 536 132 L 537 131 L 538 130 L 538 129 L 538 129 L 538 128 L 541 127 L 542 126 L 545 126 L 545 125 L 547 124 L 550 123 L 552 122 L 553 122 L 557 121 L 558 120 L 559 119 L 560 118 L 560 118 L 568 117 L 570 116 L 570 115 L 576 115 L 580 114 L 586 113 L 588 112 L 588 111 L 590 111 L 591 110 L 591 109 L 596 108 L 599 107 L 602 107 L 603 106 L 605 105 L 607 104 L 607 104 L 607 103 L 607 102 L 608 101 L 609 100 L 609 100 L 611 99 L 611 98 L 611 97 L 613 96 L 620 96 L 630 95 L 630 94 L 630 93 L 636 92 L 639 92 L 640 91 L 641 90 L 643 89 L 645 89 L 645 88 L 645 87 L 645 86 L 645 85 L 646 85 L 646 84 L 647 83 L 647 82 L 648 82 L 653 81 L 653 80 L 653 79 L 653 78 L 653 78 L 654 77 L 654 76 L 654 75 L 654 74 L 654 74 L 654 73 L 654 72 L 655 71 L 657 71 L 662 70 L 666 69 L 666 68 L 668 67 L 676 67 L 686 66 L 688 65 L 694 64 L 698 63 L 710 63 L 714 62 L 717 61 L 718 60 L 718 60 L 718 59 L 718 58 L 719 57 L 719 56 L 719 56 L 721 55 L 723 54 L 737 53 L 741 52 L 746 52 L 757 51 L 765 50 L 771 49 L 775 49 L 783 48 L 784 47 L 800 46 L 816 45 L 817 45 L 828 44 L 829 43 L 838 42 L 840 41 L 845 41 L 845 40 L 846 39 L 846 38 L 851 38 L 853 37 L 858 36 L 865 35 L 866 34 L 868 34 L 869 33 L 875 32 L 881 31 L 881 30 L 888 30 L 895 29 L 896 28 L 897 27 L 900 27 L 901 26 L 903 25 L 908 24 L 913 23 L 918 23 L 919 22 L 922 21 L 922 20 L 931 19 L 933 19 L 937 18 L 945 17 L 945 16" stroke-width="2"></path><path stroke-width="2" d="M 945 346 L 945.000000 15.000000" /><path d="M 945 346 L 945.000000 15.000000" stroke-width="2"></path><path stroke-width="2" d="M 945 346 L 950 346" /><path stroke-width="2" d="M 945 346 L 950 346"></path><text y="352" xmlns="http://www.w3.org/2000/svg" x="955">0</text><path stroke-width="2" d="M 945 309 L 950 309" /><path stroke-width="2" d="M 945 309 L 950 309"></path><text x="955" y="315" xmlns="http://www.w3.org/2000/svg">47</text><path d="M 945 272 L 950 272" stroke-width="2" /><path stroke-width="2" d="M 945 272 L 950 272"></path><text y="278" xmlns="http://www.w3.org/2000/svg" x="955">94</text><path stroke-width="2" d="M 945 236 L 950 236" /><path stroke-width="2" d="M 945 236 L 950 236"></path><text xmlns="http://www.w3.org/2000/svg" x="955" y="242">140</text><path stroke-width="2" d="M 945 199 L 950 199" /><path stroke-width="2" d="M 945 199 L 950 199"></path><text xmlns="http://www.w3.org/2000/svg" x="955" y="205">187</text><path d="M 945 162 L 950 162" stroke-width="2" /><path stroke-width="2" d="M 945 162 L 950 162"></path><text y="168" xmlns="http://www.w3.org/2000/svg" x="955">234</text><path stroke-width="2" d="M 945 126 L 950 126" /><path stroke-width="2" d="M 945 126 L 950 126"></path><text x="955" y="132" xmlns="http://www.w3.org/2000/svg">280</text><path stroke-width="2" d="M 945 89 L 950 89" /><path stroke-width="2" d="M 945 89 L 950 89"></path><text xmlns="http://www.w3.org/2000/svg" x="955" y="95">327</text><path stroke-width="2" d="M 945 52 L 950 52" /><path stroke-width="2" d="M 945 52 L 950 52"></path><text y="58" xmlns="http://www.w3.org/2000/svg" x="955">374</text><path stroke-width="2" d="M 945 16 L 950 16" /><path stroke-width="2" d="M 945 16 L 950 16"></path><text xmlns="http://www.w3.org/2000/svg" x="955" y="22">420</text><text y="175" transform="rotate(90.00,987,175)" xmlns="http://www.w3.org/2000/svg" x="987">Stargazers</text><path stroke-width="2" d="M 57.000000 346.000000 L 945 346" /><path stroke-width="2" d="M 57.000000 346.000000 L 945 346"></path><path stroke-width="2" d="M 58 346 L 58 351" /><path stroke-width="2" d="M 58 346 L 58 351"></path><text xmlns="http://www.w3.org/2000/svg" x="25" y="368">2023-04-02</text><path stroke-width="2" d="M 157 346 L 157 351" /><path stroke-width="2" d="M 157 346 L 157 351"></path><text xmlns="http://www.w3.org/2000/svg" x="124" y="368">2023-05-15</text><path stroke-width="2" d="M 256 346 L 256 351" /><path stroke-width="2" d="M 256 346 L 256 351"></path><text x="223" y="368" xmlns="http://www.w3.org/2000/svg">2023-06-27</text><path stroke-width="2" d="M 354 346 L 354 351" /><path stroke-width="2" d="M 354 346 L 354 351"></path><text y="368" xmlns="http://www.w3.org/2000/svg" x="321">2023-08-09</text><path stroke-width="2" d="M 453 346 L 453 351" /><path stroke-width="2" d="M 453 346 L 453 351"></path><text y="368" xmlns="http://www.w3.org/2000/svg" x="420">2023-09-21</text><path stroke-width="2" d="M 551 346 L 551 351" /><path stroke-width="2" d="M 551 346 L 551 351"></path><text xmlns="http://www.w3.org/2000/svg" x="518" y="368">2023-11-04</text><path stroke-width="2" d="M 650 346 L 650 351" /><path d="M 650 346 L 650 351" stroke-width="2"></path><text xmlns="http://www.w3.org/2000/svg" x="617" y="368">2023-12-17</text><path stroke-width="2" d="M 748 346 L 748 351" /><path stroke-width="2" d="M 748 346 L 748 351"></path><text xmlns="http://www.w3.org/2000/svg" x="715" y="368">2024-01-29</text><path d="M 847 346 L 847 351" stroke-width="2" /><path stroke-width="2" d="M 847 346 L 847 351"></path><text xmlns="http://www.w3.org/2000/svg" x="814" y="368">2024-03-12</text><path d="M 945 346 L 945 351" stroke-width="2" /><path stroke-width="2" d="M 945 346 L 945 351"></path><text x="912" y="368" xmlns="http://www.w3.org/2000/svg">2024-04-24</text><text y="390" xmlns="http://www.w3.org/2000/svg" x="487">Time</text></svg>