<svg xmlns="http://www.w3.org/2000/svg" xmlns:xlink="http://www.w3.org/1999/xlink" width="1024px" height="400px"><style type="text/css">
path { fill: none; stroke: rgb(51,51,51); }
path.series { stroke: #6b63ff; }
rect.background { fill: rgb(255,255,255); stroke: none; }

text {
	stroke-width: 0;
	stroke: none;
	fill: rgba(51,51,51,1.0);
	font-size: 12.8px;
	font-family: 'Roboto Medium', sans-serif;
}
</style><rect class="background" rx="8" x="0" y="0" width="1024px" height="400px" /><rect height="400px" class="background" rx="8" x="0" y="0" width="1024px"></rect><path stroke-width="2" class="series" d="M 58 345 L 61 344 L 81 344 L 82 343 L 82 343 L 82 342 L 82 342 L 82 341 L 82 341 L 82 340 L 82 340 L 82 339 L 82 339 L 82 338 L 82 338 L 82 337 L 83 336 L 83 336 L 83 335 L 84 335 L 85 334 L 85 334 L 86 333 L 87 333 L 87 332 L 87 332 L 88 331 L 89 331 L 91 330 L 91 330 L 93 329 L 94 328 L 100 328 L 100 327 L 100 327 L 101 326 L 101 326 L 101 325 L 104 325 L 106 324 L 107 324 L 110 323 L 115 323 L 117 322 L 125 322 L 128 321 L 133 320 L 138 320 L 140 319 L 158 319 L 159 318 L 159 318 L 162 317 L 162 317 L 162 316 L 162 316 L 162 315 L 162 315 L 162 314 L 162 314 L 162 313 L 163 313 L 163 312 L 163 311 L 163 311 L 163 310 L 163 310 L 163 309 L 163 309 L 163 308 L 163 308 L 163 307 L 163 307 L 163 306 L 163 306 L 163 305 L 163 305 L 163 304 L 163 303 L 163 303 L 163 302 L 163 302 L 164 301 L 164 301 L 164 300 L 164 300 L 164 299 L 164 299 L 164 298 L 164 298 L 164 297 L 164 297 L 164 296 L 164 295 L 164 295 L 164 294 L 164 294 L 164 293 L 164 293 L 164 292 L 164 292 L 165 291 L 165 291 L 165 290 L 165 290 L 166 289 L 167 289 L 167 288 L 167 287 L 167 287 L 167 286 L 167 286 L 167 285 L 167 285 L 167 284 L 167 284 L 167 283 L 167 283 L 167 282 L 167 282 L 167 281 L 167 281 L 167 280 L 167 280 L 169 279 L 169 278 L 169 278 L 169 277 L 173 277 L 173 276 L 174 276 L 175 275 L 175 275 L 178 274 L 181 274 L 182 273 L 185 273 L 186 272 L 188 272 L 188 271 L 189 270 L 192 270 L 192 269 L 193 269 L 194 268 L 195 268 L 196 267 L 196 267 L 196 266 L 197 266 L 198 265 L 200 265 L 200 264 L 201 264 L 201 263 L 201 262 L 202 262 L 204 261 L 206 261 L 209 260 L 210 260 L 211 259 L 212 259 L 212 258 L 212 258 L 214 257 L 222 257 L 222 256 L 224 256 L 231 255 L 231 254 L 231 254 L 232 253 L 232 253 L 233 252 L 235 252 L 237 251 L 237 251 L 246 250 L 248 250 L 250 249 L 253 249 L 255 248 L 255 248 L 256 247 L 262 247 L 270 246 L 278 245 L 278 245 L 278 244 L 279 244 L 279 243 L 281 243 L 292 242 L 297 242 L 297 241 L 301 241 L 302 240 L 303 240 L 315 239 L 315 239 L 316 238 L 316 237 L 318 237 L 321 236 L 322 236 L 325 235 L 326 235 L 329 234 L 336 234 L 336 233 L 337 233 L 338 232 L 338 232 L 338 231 L 342 231 L 349 230 L 364 229 L 369 229 L 373 228 L 373 228 L 375 227 L 376 227 L 376 226 L 376 226 L 376 225 L 376 225 L 376 224 L 376 224 L 376 223 L 377 223 L 377 222 L 377 221 L 377 221 L 377 220 L 377 220 L 378 219 L 380 219 L 381 218 L 381 218 L 381 217 L 381 217 L 383 216 L 383 216 L 383 215 L 383 215 L 383 214 L 383 214 L 383 213 L 384 212 L 385 212 L 386 211 L 386 211 L 386 210 L 386 210 L 386 209 L 387 209 L 388 208 L 388 208 L 388 207 L 389 207 L 389 206 L 390 206 L 391 205 L 392 204 L 393 204 L 395 203 L 398 203 L 398 202 L 399 202 L 399 201 L 399 201 L 399 200 L 399 200 L 401 199 L 402 199 L 404 198 L 404 198 L 405 197 L 407 196 L 409 196 L 409 195 L 412 195 L 413 194 L 414 194 L 415 193 L 415 193 L 420 192 L 421 192 L 422 191 L 426 191 L 428 190 L 433 190 L 434 189 L 435 188 L 436 188 L 436 187 L 436 187 L 440 186 L 443 186 L 445 185 L 445 185 L 446 184 L 448 184 L 448 183 L 448 183 L 448 182 L 449 182 L 449 181 L 449 181 L 451 180 L 451 179 L 451 179 L 452 178 L 457 178 L 464 177 L 464 177 L 464 176 L 468 176 L 471 175 L 472 175 L 472 174 L 474 174 L 475 173 L 475 173 L 475 172 L 475 171 L 475 171 L 476 170 L 476 170 L 476 169 L 476 169 L 477 168 L 480 168 L 480 167 L 480 167 L 481 166 L 481 166 L 481 165 L 481 165 L 481 164 L 481 163 L 481 163 L 481 162 L 482 162 L 482 161 L 487 161 L 490 160 L 490 160 L 491 159 L 504 159 L 506 158 L 510 158 L 513 157 L 521 157 L 524 156 L 526 155 L 527 155 L 527 154 L 527 154 L 527 153 L 527 153 L 527 152 L 527 152 L 529 151 L 530 151 L 540 150 L 543 150 L 547 149 L 554 149 L 560 148 L 564 148 L 568 147 L 573 146 L 573 146 L 585 145 L 597 145 L 597 144 L 605 144 L 605 143 L 612 143 L 613 142 L 617 142 L 617 141 L 617 141 L 618 140 L 621 140 L 623 139 L 626 138 L 631 138 L 632 137 L 633 137 L 634 136 L 638 136 L 642 135 L 643 135 L 647 134 L 652 134 L 653 133 L 653 133 L 656 132 L 657 132 L 658 131 L 662 130 L 665 130 L 668 129 L 671 129 L 672 128 L 678 128 L 679 127 L 682 127 L 688 126 L 688 126 L 694 125 L 695 125 L 695 124 L 697 124 L 698 123 L 701 122 L 701 122 L 704 121 L 707 121 L 708 120 L 709 120 L 709 119 L 719 119 L 719 118 L 720 118 L 720 117 L 720 117 L 721 116 L 722 116 L 722 115 L 723 115 L 725 114 L 725 113 L 727 113 L 728 112 L 729 112 L 730 111 L 730 111 L 730 110 L 731 110 L 732 109 L 732 109 L 733 108 L 733 108 L 733 107 L 734 107 L 735 106 L 736 105 L 737 105 L 737 104 L 738 104 L 738 103 L 740 103 L 742 102 L 742 102 L 743 101 L 744 101 L 746 100 L 746 100 L 747 99 L 747 99 L 750 98 L 750 97 L 750 97 L 751 96 L 751 96 L 751 95 L 751 95 L 752 94 L 753 94 L 754 93 L 758 93 L 759 92 L 761 92 L 761 91 L 764 91 L 766 90 L 767 89 L 769 89 L 773 88 L 776 88 L 779 87 L 780 87 L 780 86 L 780 86 L 780 85 L 781 85 L 782 84 L 782 84 L 783 83 L 783 83 L 783 82 L 784 82 L 785 81 L 787 80 L 787 80 L 788 79 L 788 79 L 792 78 L 792 78 L 792 77 L 793 77 L 795 76 L 798 76 L 801 75 L 806 75 L 806 74 L 806 74 L 806 73 L 809 72 L 812 72 L 812 71 L 813 71 L 813 70 L 813 70 L 815 69 L 820 69 L 820 68 L 820 68 L 820 67 L 823 67 L 823 66 L 823 66 L 824 65 L 824 64 L 827 64 L 832 63 L 832 63 L 837 62 L 837 62 L 838 61 L 843 61 L 844 60 L 848 60 L 850 59 L 852 59 L 854 58 L 854 58 L 854 57 L 855 56 L 855 56 L 855 55 L 856 55 L 857 54 L 857 54 L 858 53 L 858 53 L 858 52 L 859 52 L 861 51 L 861 51 L 867 50 L 868 50 L 874 49 L 877 49 L 878 48 L 879 47 L 880 47 L 883 46 L 883 46 L 884 45 L 884 45 L 885 44 L 885 44 L 885 43 L 886 43 L 886 42 L 887 42 L 887 41 L 887 41 L 887 40 L 887 39 L 888 39 L 889 38 L 889 38 L 891 37 L 891 37 L 892 36 L 893 36 L 894 35 L 894 35 L 894 34 L 895 34 L 897 33 L 900 33 L 900 32 L 900 31 L 900 31 L 901 30 L 902 30 L 902 29 L 902 29 L 904 28 L 906 28 L 910 27 L 914 27 L 915 26 L 917 26 L 921 25 L 926 25 L 926 24 L 930 23 L 935 23 L 935 22 L 936 22 L 942 21 L 944 21 L 944 20 L 945 20 L 945 19" /><path stroke-width="2" class="series" d="M 58 345 L 61 344 L 81 344 L 82 343 L 82 343 L 82 342 L 82 342 L 82 341 L 82 341 L 82 340 L 82 340 L 82 339 L 82 339 L 82 338 L 82 338 L 82 337 L 83 336 L 83 336 L 83 335 L 84 335 L 85 334 L 85 334 L 86 333 L 87 333 L 87 332 L 87 332 L 88 331 L 89 331 L 91 330 L 91 330 L 93 329 L 94 328 L 100 328 L 100 327 L 100 327 L 101 326 L 101 326 L 101 325 L 104 325 L 106 324 L 107 324 L 110 323 L 115 323 L 117 322 L 125 322 L 128 321 L 133 320 L 138 320 L 140 319 L 158 319 L 159 318 L 159 318 L 162 317 L 162 317 L 162 316 L 162 316 L 162 315 L 162 315 L 162 314 L 162 314 L 162 313 L 163 313 L 163 312 L 163 311 L 163 311 L 163 310 L 163 310 L 163 309 L 163 309 L 163 308 L 163 308 L 163 307 L 163 307 L 163 306 L 163 306 L 163 305 L 163 305 L 163 304 L 163 303 L 163 303 L 163 302 L 163 302 L 164 301 L 164 301 L 164 300 L 164 300 L 164 299 L 164 299 L 164 298 L 164 298 L 164 297 L 164 297 L 164 296 L 164 295 L 164 295 L 164 294 L 164 294 L 164 293 L 164 293 L 164 292 L 164 292 L 165 291 L 165 291 L 165 290 L 165 290 L 166 289 L 167 289 L 167 288 L 167 287 L 167 287 L 167 286 L 167 286 L 167 285 L 167 285 L 167 284 L 167 284 L 167 283 L 167 283 L 167 282 L 167 282 L 167 281 L 167 281 L 167 280 L 167 280 L 169 279 L 169 278 L 169 278 L 169 277 L 173 277 L 173 276 L 174 276 L 175 275 L 175 275 L 178 274 L 181 274 L 182 273 L 185 273 L 186 272 L 188 272 L 188 271 L 189 270 L 192 270 L 192 269 L 193 269 L 194 268 L 195 268 L 196 267 L 196 267 L 196 266 L 197 266 L 198 265 L 200 265 L 200 264 L 201 264 L 201 263 L 201 262 L 202 262 L 204 261 L 206 261 L 209 260 L 210 260 L 211 259 L 212 259 L 212 258 L 212 258 L 214 257 L 222 257 L 222 256 L 224 256 L 231 255 L 231 254 L 231 254 L 232 253 L 232 253 L 233 252 L 235 252 L 237 251 L 237 251 L 246 250 L 248 250 L 250 249 L 253 249 L 255 248 L 255 248 L 256 247 L 262 247 L 270 246 L 278 245 L 278 245 L 278 244 L 279 244 L 279 243 L 281 243 L 292 242 L 297 242 L 297 241 L 301 241 L 302 240 L 303 240 L 315 239 L 315 239 L 316 238 L 316 237 L 318 237 L 321 236 L 322 236 L 325 235 L 326 235 L 329 234 L 336 234 L 336 233 L 337 233 L 338 232 L 338 232 L 338 231 L 342 231 L 349 230 L 364 229 L 369 229 L 373 228 L 373 228 L 375 227 L 376 227 L 376 226 L 376 226 L 376 225 L 376 225 L 376 224 L 376 224 L 376 223 L 377 223 L 377 222 L 377 221 L 377 221 L 377 220 L 377 220 L 378 219 L 380 219 L 381 218 L 381 218 L 381 217 L 381 217 L 383 216 L 383 216 L 383 215 L 383 215 L 383 214 L 383 214 L 383 213 L 384 212 L 385 212 L 386 211 L 386 211 L 386 210 L 386 210 L 386 209 L 387 209 L 388 208 L 388 208 L 388 207 L 389 207 L 389 206 L 390 206 L 391 205 L 392 204 L 393 204 L 395 203 L 398 203 L 398 202 L 399 202 L 399 201 L 399 201 L 399 200 L 399 200 L 401 199 L 402 199 L 404 198 L 404 198 L 405 197 L 407 196 L 409 196 L 409 195 L 412 195 L 413 194 L 414 194 L 415 193 L 415 193 L 420 192 L 421 192 L 422 191 L 426 191 L 428 190 L 433 190 L 434 189 L 435 188 L 436 188 L 436 187 L 436 187 L 440 186 L 443 186 L 445 185 L 445 185 L 446 184 L 448 184 L 448 183 L 448 183 L 448 182 L 449 182 L 449 181 L 449 181 L 451 180 L 451 179 L 451 179 L 452 178 L 457 178 L 464 177 L 464 177 L 464 176 L 468 176 L 471 175 L 472 175 L 472 174 L 474 174 L 475 173 L 475 173 L 475 172 L 475 171 L 475 171 L 476 170 L 476 170 L 476 169 L 476 169 L 477 168 L 480 168 L 480 167 L 480 167 L 481 166 L 481 166 L 481 165 L 481 165 L 481 164 L 481 163 L 481 163 L 481 162 L 482 162 L 482 161 L 487 161 L 490 160 L 490 160 L 491 159 L 504 159 L 506 158 L 510 158 L 513 157 L 521 157 L 524 156 L 526 155 L 527 155 L 527 154 L 527 154 L 527 153 L 527 153 L 527 152 L 527 152 L 529 151 L 530 151 L 540 150 L 543 150 L 547 149 L 554 149 L 560 148 L 564 148 L 568 147 L 573 146 L 573 146 L 585 145 L 597 145 L 597 144 L 605 144 L 605 143 L 612 143 L 613 142 L 617 142 L 617 141 L 617 141 L 618 140 L 621 140 L 623 139 L 626 138 L 631 138 L 632 137 L 633 137 L 634 136 L 638 136 L 642 135 L 643 135 L 647 134 L 652 134 L 653 133 L 653 133 L 656 132 L 657 132 L 658 131 L 662 130 L 665 130 L 668 129 L 671 129 L 672 128 L 678 128 L 679 127 L 682 127 L 688 126 L 688 126 L 694 125 L 695 125 L 695 124 L 697 124 L 698 123 L 701 122 L 701 122 L 704 121 L 707 121 L 708 120 L 709 120 L 709 119 L 719 119 L 719 118 L 720 118 L 720 117 L 720 117 L 721 116 L 722 116 L 722 115 L 723 115 L 725 114 L 725 113 L 727 113 L 728 112 L 729 112 L 730 111 L 730 111 L 730 110 L 731 110 L 732 109 L 732 109 L 733 108 L 733 108 L 733 107 L 734 107 L 735 106 L 736 105 L 737 105 L 737 104 L 738 104 L 738 103 L 740 103 L 742 102 L 742 102 L 743 101 L 744 101 L 746 100 L 746 100 L 747 99 L 747 99 L 750 98 L 750 97 L 750 97 L 751 96 L 751 96 L 751 95 L 751 95 L 752 94 L 753 94 L 754 93 L 758 93 L 759 92 L 761 92 L 761 91 L 764 91 L 766 90 L 767 89 L 769 89 L 773 88 L 776 88 L 779 87 L 780 87 L 780 86 L 780 86 L 780 85 L 781 85 L 782 84 L 782 84 L 783 83 L 783 83 L 783 82 L 784 82 L 785 81 L 787 80 L 787 80 L 788 79 L 788 79 L 792 78 L 792 78 L 792 77 L 793 77 L 795 76 L 798 76 L 801 75 L 806 75 L 806 74 L 806 74 L 806 73 L 809 72 L 812 72 L 812 71 L 813 71 L 813 70 L 813 70 L 815 69 L 820 69 L 820 68 L 820 68 L 820 67 L 823 67 L 823 66 L 823 66 L 824 65 L 824 64 L 827 64 L 832 63 L 832 63 L 837 62 L 837 62 L 838 61 L 843 61 L 844 60 L 848 60 L 850 59 L 852 59 L 854 58 L 854 58 L 854 57 L 855 56 L 855 56 L 855 55 L 856 55 L 857 54 L 857 54 L 858 53 L 858 53 L 858 52 L 859 52 L 861 51 L 861 51 L 867 50 L 868 50 L 874 49 L 877 49 L 878 48 L 879 47 L 880 47 L 883 46 L 883 46 L 884 45 L 884 45 L 885 44 L 885 44 L 885 43 L 886 43 L 886 42 L 887 42 L 887 41 L 887 41 L 887 40 L 887 39 L 888 39 L 889 38 L 889 38 L 891 37 L 891 37 L 892 36 L 893 36 L 894 35 L 894 35 L 894 34 L 895 34 L 897 33 L 900 33 L 900 32 L 900 31 L 900 31 L 901 30 L 902 30 L 902 29 L 902 29 L 904 28 L 906 28 L 910 27 L 914 27 L 915 26 L 917 26 L 921 25 L 926 25 L 926 24 L 930 23 L 935 23 L 935 22 L 936 22 L 942 21 L 944 21 L 944 20 L 945 20 L 945 19"></path><path stroke-width="2" d="M 945 346 L 945.000000 15.000000" /><path d="M 945 346 L 945.000000 15.000000" stroke-width="2"></path><path stroke-width="2" d="M 945 346 L 950 346" /><path d="M 945 346 L 950 346" stroke-width="2"></path><text xmlns="http://www.w3.org/2000/svg" x="955" y="352">0</text><path stroke-width="2" d="M 945 309 L 950 309" /><path stroke-width="2" d="M 945 309 L 950 309"></path><text x="955" y="315" xmlns="http://www.w3.org/2000/svg">69</text><path stroke-width="2" d="M 945 272 L 950 272" /><path stroke-width="2" d="M 945 272 L 950 272"></path><text y="278" xmlns="http://www.w3.org/2000/svg" x="955">138</text><path stroke-width="2" d="M 945 235 L 950 235" /><path stroke-width="2" d="M 945 235 L 950 235"></path><text xmlns="http://www.w3.org/2000/svg" x="955" y="241">207</text><path stroke-width="2" d="M 945 199 L 950 199" /><path d="M 945 199 L 950 199" stroke-width="2"></path><text y="205" xmlns="http://www.w3.org/2000/svg" x="955">276</text><path stroke-width="2" d="M 945 162 L 950 162" /><path stroke-width="2" d="M 945 162 L 950 162"></path><text x="955" y="168" xmlns="http://www.w3.org/2000/svg">345</text><path stroke-width="2" d="M 945 125 L 950 125" /><path stroke-width="2" d="M 945 125 L 950 125"></path><text xmlns="http://www.w3.org/2000/svg" x="955" y="131">414</text><path stroke-width="2" d="M 945 88 L 950 88" /><path stroke-width="2" d="M 945 88 L 950 88"></path><text xmlns="http://www.w3.org/2000/svg" x="955" y="94">483</text><path stroke-width="2" d="M 945 52 L 950 52" /><path stroke-width="2" d="M 945 52 L 950 52"></path><text xmlns="http://www.w3.org/2000/svg" x="955" y="58">552</text><path stroke-width="2" d="M 945 16 L 950 16" /><path stroke-width="2" d="M 945 16 L 950 16"></path><text x="955" y="22" xmlns="http://www.w3.org/2000/svg">620</text><text xmlns="http://www.w3.org/2000/svg" x="987" y="175" transform="rotate(90.00,987,175)">Stargazers</text><path stroke-width="2" d="M 57.000000 346.000000 L 945 346" /><path stroke-width="2" d="M 57.000000 346.000000 L 945 346"></path><path stroke-width="2" d="M 58 346 L 58 351" /><path stroke-width="2" d="M 58 346 L 58 351"></path><text xmlns="http://www.w3.org/2000/svg" x="25" y="368">2023-04-02</text><path stroke-width="2" d="M 157 346 L 157 351" /><path stroke-width="2" d="M 157 346 L 157 351"></path><text xmlns="http://www.w3.org/2000/svg" x="124" y="368">2023-06-02</text><path stroke-width="2" d="M 256 346 L 256 351" /><path stroke-width="2" d="M 256 346 L 256 351"></path><text xmlns="http://www.w3.org/2000/svg" x="223" y="368">2023-08-01</text><path stroke-width="2" d="M 354 346 L 354 351" /><path stroke-width="2" d="M 354 346 L 354 351"></path><text xmlns="http://www.w3.org/2000/svg" x="321" y="368">2023-10-01</text><path stroke-width="2" d="M 453 346 L 453 351" /><path d="M 453 346 L 453 351" stroke-width="2"></path><text xmlns="http://www.w3.org/2000/svg" x="420" y="368">2023-12-01</text><path stroke-width="2" d="M 551 346 L 551 351" /><path stroke-width="2" d="M 551 346 L 551 351"></path><text x="518" y="368" xmlns="http://www.w3.org/2000/svg">2024-01-31</text><path stroke-width="2" d="M 650 346 L 650 351" /><path stroke-width="2" d="M 650 346 L 650 351"></path><text xmlns="http://www.w3.org/2000/svg" x="617" y="368">2024-04-01</text><path stroke-width="2" d="M 748 346 L 748 351" /><path d="M 748 346 L 748 351" stroke-width="2"></path><text x="715" y="368" xmlns="http://www.w3.org/2000/svg">2024-05-31</text><path stroke-width="2" d="M 847 346 L 847 351" /><path stroke-width="2" d="M 847 346 L 847 351"></path><text xmlns="http://www.w3.org/2000/svg" x="814" y="368">2024-07-31</text><path stroke-width="2" d="M 945 346 L 945 351" /><path stroke-width="2" d="M 945 346 L 945 351"></path><text x="912" y="368" xmlns="http://www.w3.org/2000/svg">2024-09-30</text><text x="487" y="390" xmlns="http://www.w3.org/2000/svg">Time</text></svg>