<svg xmlns="http://www.w3.org/2000/svg" xmlns:xlink="http://www.w3.org/1999/xlink" width="1024px" height="400px"><style type="text/css">
path { fill: none; stroke: rgb(51,51,51); }
path.series { stroke: #6b63ff; }
rect.background { fill: rgb(255,255,255); stroke: none; }

text {
	stroke-width: 0;
	stroke: none;
	fill: rgba(51,51,51,1.0);
	font-size: 12.8px;
	font-family: 'Roboto Medium', sans-serif;
}
</style><rect x="0" y="0" width="1024px" height="400px" class="background" rx="8" /><rect width="1024px" height="400px" class="background" rx="8" x="0" y="0"></rect><path d="M 58 345 L 61 345 L 74 344 L 75 344 L 75 344 L 75 343 L 75 343 L 75 343 L 75 342 L 75 342 L 75 342 L 75 341 L 75 341 L 75 341 L 75 340 L 75 340 L 75 340 L 76 339 L 76 339 L 77 339 L 77 338 L 77 338 L 78 338 L 79 337 L 79 337 L 79 337 L 79 336 L 80 336 L 82 336 L 82 335 L 83 335 L 84 335 L 88 334 L 88 334 L 88 333 L 88 333 L 88 333 L 91 332 L 92 332 L 93 332 L 95 331 L 98 331 L 100 331 L 106 330 L 108 330 L 111 330 L 115 329 L 116 329 L 129 329 L 130 328 L 130 328 L 132 328 L 132 327 L 132 327 L 132 327 L 132 326 L 132 326 L 132 326 L 132 325 L 132 325 L 132 325 L 132 324 L 132 324 L 132 324 L 133 323 L 133 323 L 133 322 L 133 322 L 133 322 L 133 321 L 133 321 L 133 321 L 133 320 L 133 320 L 133 320 L 133 319 L 133 319 L 133 319 L 133 318 L 133 318 L 133 318 L 133 317 L 133 317 L 133 317 L 133 316 L 133 316 L 133 316 L 133 315 L 133 315 L 133 315 L 133 314 L 133 314 L 133 314 L 133 313 L 133 313 L 133 313 L 133 312 L 133 312 L 133 311 L 133 311 L 134 311 L 134 310 L 134 310 L 134 310 L 134 309 L 135 309 L 135 309 L 135 308 L 135 308 L 135 308 L 135 307 L 135 307 L 135 307 L 135 306 L 135 306 L 135 306 L 135 305 L 135 305 L 135 305 L 135 304 L 135 304 L 135 304 L 135 303 L 136 303 L 136 303 L 136 302 L 136 302 L 140 302 L 140 301 L 140 301 L 141 300 L 141 300 L 143 300 L 145 299 L 146 299 L 148 299 L 148 298 L 150 298 L 150 298 L 151 297 L 153 297 L 153 297 L 153 296 L 154 296 L 155 296 L 156 295 L 156 295 L 156 295 L 156 294 L 157 294 L 158 294 L 158 293 L 159 293 L 159 293 L 159 292 L 160 292 L 162 292 L 163 291 L 165 291 L 165 291 L 166 290 L 167 290 L 167 289 L 167 289 L 169 289 L 174 288 L 174 288 L 175 288 L 181 287 L 181 287 L 181 287 L 181 286 L 181 286 L 182 286 L 184 285 L 185 285 L 185 285 L 191 284 L 192 284 L 194 284 L 196 283 L 197 283 L 197 283 L 198 282 L 203 282 L 208 282 L 213 281 L 214 281 L 214 281 L 214 280 L 214 280 L 216 280 L 223 279 L 227 279 L 227 278 L 230 278 L 231 278 L 231 277 L 240 277 L 240 277 L 240 276 L 241 276 L 242 276 L 244 275 L 245 275 L 247 275 L 248 274 L 250 274 L 255 274 L 255 273 L 256 273 L 256 273 L 256 272 L 256 272 L 259 272 L 264 271 L 274 271 L 278 271 L 280 270 L 281 270 L 282 270 L 283 269 L 283 269 L 283 269 L 283 268 L 283 268 L 283 267 L 283 267 L 283 267 L 283 266 L 283 266 L 284 266 L 284 265 L 284 265 L 284 265 L 284 264 L 286 264 L 286 264 L 286 263 L 287 263 L 288 263 L 288 262 L 288 262 L 288 262 L 288 261 L 288 261 L 288 261 L 289 260 L 289 260 L 290 260 L 290 259 L 290 259 L 290 259 L 290 258 L 291 258 L 291 258 L 291 257 L 291 257 L 292 256 L 292 256 L 292 256 L 293 255 L 294 255 L 295 255 L 296 254 L 298 254 L 298 254 L 299 253 L 299 253 L 299 253 L 299 252 L 299 252 L 301 252 L 301 251 L 303 251 L 303 251 L 304 250 L 305 250 L 306 250 L 306 249 L 309 249 L 309 249 L 310 248 L 310 248 L 310 248 L 314 247 L 315 247 L 315 247 L 318 246 L 320 246 L 323 245 L 324 245 L 324 245 L 325 244 L 326 244 L 326 244 L 328 243 L 330 243 L 331 243 L 332 242 L 333 242 L 334 242 L 334 241 L 334 241 L 334 241 L 334 240 L 335 240 L 335 240 L 336 239 L 336 239 L 336 239 L 337 238 L 341 238 L 345 238 L 345 237 L 345 237 L 348 237 L 350 236 L 350 236 L 351 236 L 352 235 L 353 235 L 353 234 L 353 234 L 353 234 L 353 233 L 353 233 L 353 233 L 354 232 L 354 232 L 354 232 L 357 231 L 357 231 L 357 231 L 357 230 L 357 230 L 357 230 L 357 229 L 357 229 L 357 229 L 357 228 L 357 228 L 358 228 L 358 227 L 361 227 L 363 227 L 363 226 L 364 226 L 374 226 L 375 225 L 377 225 L 380 225 L 387 224 L 389 224 L 389 223 L 389 223 L 389 223 L 390 222 L 390 222 L 390 222 L 391 221 L 392 221 L 399 221 L 401 220 L 404 220 L 409 220 L 413 219 L 416 219 L 418 219 L 422 218 L 422 218 L 431 218 L 439 217 L 439 217 L 445 217 L 445 216 L 450 216 L 451 216 L 453 215 L 453 215 L 454 215 L 454 214 L 456 214 L 457 214 L 460 213 L 463 213 L 464 212 L 465 212 L 465 212 L 468 211 L 471 211 L 471 211 L 475 210 L 478 210 L 479 210 L 479 209 L 481 209 L 481 209 L 482 208 L 485 208 L 487 208 L 490 207 L 492 207 L 492 207 L 496 206 L 497 206 L 500 206 L 503 205 L 504 205 L 508 205 L 509 204 L 509 204 L 510 204 L 510 203 L 512 203 L 513 203 L 515 202 L 517 202 L 518 201 L 518 201 L 518 201 L 525 200 L 525 200 L 526 200 L 526 199 L 526 199 L 527 199 L 527 198 L 528 198 L 528 198 L 530 197 L 530 197 L 531 197 L 532 196 L 532 196 L 533 196 L 533 195 L 533 195 L 534 195 L 534 194 L 534 194 L 535 194 L 535 193 L 535 193 L 536 193 L 536 192 L 538 192 L 538 192 L 538 191 L 539 191 L 539 190 L 540 190 L 541 190 L 542 189 L 542 189 L 543 189 L 544 188 L 545 188 L 545 188 L 545 187 L 547 187 L 547 187 L 547 186 L 548 186 L 548 186 L 548 185 L 548 185 L 549 185 L 549 184 L 550 184 L 553 184 L 554 183 L 555 183 L 555 183 L 557 182 L 559 182 L 559 182 L 561 181 L 563 181 L 565 181 L 568 180 L 568 180 L 568 179 L 569 179 L 569 179 L 569 178 L 570 178 L 570 178 L 571 177 L 571 177 L 571 177 L 571 176 L 572 176 L 573 176 L 573 175 L 574 175 L 574 175 L 577 174 L 577 174 L 577 174 L 578 173 L 579 173 L 581 173 L 587 172 L 587 172 L 587 172 L 587 171 L 589 171 L 591 171 L 591 170 L 591 170 L 592 170 L 592 169 L 594 169 L 596 168 L 597 168 L 597 168 L 597 167 L 599 167 L 599 167 L 599 166 L 599 166 L 602 166 L 605 165 L 605 165 L 609 165 L 609 164 L 610 164 L 613 164 L 614 163 L 616 163 L 618 163 L 620 162 L 621 162 L 621 162 L 621 161 L 621 161 L 621 161 L 621 160 L 622 160 L 623 160 L 623 159 L 624 159 L 624 159 L 624 158 L 625 158 L 626 157 L 626 157 L 630 157 L 631 156 L 635 156 L 637 156 L 637 155 L 638 155 L 639 155 L 641 154 L 642 154 L 642 154 L 642 153 L 643 153 L 643 153 L 643 152 L 643 152 L 643 152 L 644 151 L 644 151 L 644 151 L 644 150 L 644 150 L 645 150 L 645 149 L 647 149 L 647 149 L 647 148 L 648 148 L 649 148 L 649 147 L 649 147 L 650 146 L 651 146 L 653 146 L 653 145 L 653 145 L 654 145 L 654 144 L 655 144 L 655 144 L 655 143 L 656 143 L 658 143 L 660 142 L 663 142 L 664 142 L 665 141 L 668 141 L 672 141 L 672 140 L 674 140 L 678 140 L 678 139 L 678 139 L 683 139 L 684 138 L 685 138 L 685 138 L 685 137 L 693 137 L 694 137 L 694 136 L 695 136 L 695 135 L 696 135 L 697 135 L 697 134 L 697 134 L 698 134 L 698 133 L 699 133 L 699 133 L 699 132 L 699 132 L 699 132 L 700 131 L 700 131 L 700 131 L 701 130 L 703 130 L 704 130 L 704 129 L 704 129 L 705 129 L 705 128 L 706 128 L 706 128 L 707 127 L 707 127 L 708 127 L 708 126 L 709 126 L 710 126 L 711 125 L 711 125 L 712 124 L 712 124 L 713 124 L 713 123 L 713 123 L 713 123 L 714 122 L 714 122 L 715 122 L 716 121 L 716 121 L 717 121 L 717 120 L 717 120 L 717 120 L 718 119 L 718 119 L 719 119 L 719 118 L 719 118 L 720 118 L 720 117 L 720 117 L 721 117 L 721 116 L 721 116 L 721 116 L 721 115 L 721 115 L 722 115 L 722 114 L 722 114 L 722 113 L 722 113 L 725 113 L 726 112 L 728 112 L 728 112 L 728 111 L 728 111 L 729 111 L 730 110 L 731 110 L 731 110 L 734 109 L 736 109 L 736 109 L 738 108 L 738 108 L 738 108 L 739 107 L 739 107 L 740 107 L 740 106 L 740 106 L 740 106 L 740 105 L 740 105 L 740 105 L 741 104 L 741 104 L 741 104 L 741 103 L 741 103 L 742 102 L 742 102 L 742 102 L 743 101 L 745 101 L 745 101 L 745 100 L 745 100 L 747 100 L 747 99 L 748 99 L 750 99 L 751 98 L 751 98 L 751 98 L 751 97 L 751 97 L 753 97 L 755 96 L 756 96 L 757 96 L 758 95 L 758 95 L 758 95 L 759 94 L 763 94 L 765 94 L 768 93 L 769 93 L 770 92 L 771 92 L 772 92 L 772 91 L 773 91 L 773 91 L 773 90 L 774 90 L 775 90 L 775 89 L 776 89 L 778 89 L 778 88 L 778 88 L 778 88 L 778 87 L 778 87 L 778 87 L 778 86 L 778 86 L 778 86 L 778 85 L 778 85 L 778 85 L 778 84 L 778 84 L 778 84 L 778 83 L 779 83 L 779 83 L 780 82 L 780 82 L 780 82 L 780 81 L 780 81 L 781 80 L 781 80 L 781 80 L 782 79 L 782 79 L 782 79 L 782 78 L 782 78 L 782 78 L 783 77 L 784 77 L 786 77 L 786 76 L 786 76 L 788 76 L 788 75 L 788 75 L 789 75 L 791 74 L 792 74 L 793 74 L 793 73 L 793 73 L 793 73 L 793 72 L 793 72 L 793 72 L 795 71 L 796 71 L 796 71 L 799 70 L 801 70 L 802 69 L 805 69 L 806 69 L 807 68 L 807 68 L 807 68 L 807 67 L 807 67 L 808 67 L 808 66 L 809 66 L 810 66 L 810 65 L 810 65 L 810 65 L 810 64 L 810 64 L 810 64 L 811 63 L 811 63 L 811 63 L 811 62 L 812 62 L 813 62 L 814 61 L 814 61 L 814 61 L 815 60 L 815 60 L 815 60 L 816 59 L 816 59 L 816 58 L 817 58 L 817 58 L 819 57 L 822 57 L 823 57 L 824 56 L 827 56 L 828 56 L 829 55 L 832 55 L 832 55 L 833 54 L 836 54 L 841 54 L 841 53 L 843 53 L 845 53 L 847 52 L 847 52 L 847 52 L 849 51 L 850 51 L 851 51 L 851 50 L 853 50 L 854 50 L 855 49 L 855 49 L 856 49 L 856 48 L 856 48 L 857 47 L 861 47 L 861 47 L 862 46 L 863 46 L 863 46 L 865 45 L 865 45 L 866 45 L 866 44 L 867 44 L 867 44 L 868 43 L 869 43 L 869 43 L 870 42 L 871 42 L 871 42 L 871 41 L 872 41 L 873 41 L 873 40 L 873 40 L 874 40 L 875 39 L 875 39 L 875 39 L 875 38 L 875 38 L 876 38 L 878 37 L 879 37 L 880 36 L 880 36 L 883 36 L 884 35 L 885 35 L 886 35 L 889 34 L 891 34 L 893 34 L 894 33 L 895 33 L 896 33 L 898 32 L 900 32 L 901 32 L 902 31 L 902 31 L 902 31 L 902 30 L 902 30 L 902 30 L 904 29 L 905 29 L 906 29 L 906 28 L 907 28 L 907 28 L 913 27 L 914 27 L 915 27 L 917 26 L 919 26 L 920 25 L 920 25 L 920 25 L 920 24 L 921 24 L 922 24 L 923 23 L 923 23 L 924 23 L 924 22 L 924 22 L 925 22 L 925 21 L 926 21 L 927 21 L 930 20 L 931 20 L 936 20 L 936 19 L 937 19 L 938 19 L 939 18 L 939 18 L 939 18 L 939 17 L 942 17 L 944 17 L 945 16 L 945 16" stroke-width="2" class="series" /><path stroke-width="2" class="series" d="M 58 345 L 61 345 L 74 344 L 75 344 L 75 344 L 75 343 L 75 343 L 75 343 L 75 342 L 75 342 L 75 342 L 75 341 L 75 341 L 75 341 L 75 340 L 75 340 L 75 340 L 76 339 L 76 339 L 77 339 L 77 338 L 77 338 L 78 338 L 79 337 L 79 337 L 79 337 L 79 336 L 80 336 L 82 336 L 82 335 L 83 335 L 84 335 L 88 334 L 88 334 L 88 333 L 88 333 L 88 333 L 91 332 L 92 332 L 93 332 L 95 331 L 98 331 L 100 331 L 106 330 L 108 330 L 111 330 L 115 329 L 116 329 L 129 329 L 130 328 L 130 328 L 132 328 L 132 327 L 132 327 L 132 327 L 132 326 L 132 326 L 132 326 L 132 325 L 132 325 L 132 325 L 132 324 L 132 324 L 132 324 L 133 323 L 133 323 L 133 322 L 133 322 L 133 322 L 133 321 L 133 321 L 133 321 L 133 320 L 133 320 L 133 320 L 133 319 L 133 319 L 133 319 L 133 318 L 133 318 L 133 318 L 133 317 L 133 317 L 133 317 L 133 316 L 133 316 L 133 316 L 133 315 L 133 315 L 133 315 L 133 314 L 133 314 L 133 314 L 133 313 L 133 313 L 133 313 L 133 312 L 133 312 L 133 311 L 133 311 L 134 311 L 134 310 L 134 310 L 134 310 L 134 309 L 135 309 L 135 309 L 135 308 L 135 308 L 135 308 L 135 307 L 135 307 L 135 307 L 135 306 L 135 306 L 135 306 L 135 305 L 135 305 L 135 305 L 135 304 L 135 304 L 135 304 L 135 303 L 136 303 L 136 303 L 136 302 L 136 302 L 140 302 L 140 301 L 140 301 L 141 300 L 141 300 L 143 300 L 145 299 L 146 299 L 148 299 L 148 298 L 150 298 L 150 298 L 151 297 L 153 297 L 153 297 L 153 296 L 154 296 L 155 296 L 156 295 L 156 295 L 156 295 L 156 294 L 157 294 L 158 294 L 158 293 L 159 293 L 159 293 L 159 292 L 160 292 L 162 292 L 163 291 L 165 291 L 165 291 L 166 290 L 167 290 L 167 289 L 167 289 L 169 289 L 174 288 L 174 288 L 175 288 L 181 287 L 181 287 L 181 287 L 181 286 L 181 286 L 182 286 L 184 285 L 185 285 L 185 285 L 191 284 L 192 284 L 194 284 L 196 283 L 197 283 L 197 283 L 198 282 L 203 282 L 208 282 L 213 281 L 214 281 L 214 281 L 214 280 L 214 280 L 216 280 L 223 279 L 227 279 L 227 278 L 230 278 L 231 278 L 231 277 L 240 277 L 240 277 L 240 276 L 241 276 L 242 276 L 244 275 L 245 275 L 247 275 L 248 274 L 250 274 L 255 274 L 255 273 L 256 273 L 256 273 L 256 272 L 256 272 L 259 272 L 264 271 L 274 271 L 278 271 L 280 270 L 281 270 L 282 270 L 283 269 L 283 269 L 283 269 L 283 268 L 283 268 L 283 267 L 283 267 L 283 267 L 283 266 L 283 266 L 284 266 L 284 265 L 284 265 L 284 265 L 284 264 L 286 264 L 286 264 L 286 263 L 287 263 L 288 263 L 288 262 L 288 262 L 288 262 L 288 261 L 288 261 L 288 261 L 289 260 L 289 260 L 290 260 L 290 259 L 290 259 L 290 259 L 290 258 L 291 258 L 291 258 L 291 257 L 291 257 L 292 256 L 292 256 L 292 256 L 293 255 L 294 255 L 295 255 L 296 254 L 298 254 L 298 254 L 299 253 L 299 253 L 299 253 L 299 252 L 299 252 L 301 252 L 301 251 L 303 251 L 303 251 L 304 250 L 305 250 L 306 250 L 306 249 L 309 249 L 309 249 L 310 248 L 310 248 L 310 248 L 314 247 L 315 247 L 315 247 L 318 246 L 320 246 L 323 245 L 324 245 L 324 245 L 325 244 L 326 244 L 326 244 L 328 243 L 330 243 L 331 243 L 332 242 L 333 242 L 334 242 L 334 241 L 334 241 L 334 241 L 334 240 L 335 240 L 335 240 L 336 239 L 336 239 L 336 239 L 337 238 L 341 238 L 345 238 L 345 237 L 345 237 L 348 237 L 350 236 L 350 236 L 351 236 L 352 235 L 353 235 L 353 234 L 353 234 L 353 234 L 353 233 L 353 233 L 353 233 L 354 232 L 354 232 L 354 232 L 357 231 L 357 231 L 357 231 L 357 230 L 357 230 L 357 230 L 357 229 L 357 229 L 357 229 L 357 228 L 357 228 L 358 228 L 358 227 L 361 227 L 363 227 L 363 226 L 364 226 L 374 226 L 375 225 L 377 225 L 380 225 L 387 224 L 389 224 L 389 223 L 389 223 L 389 223 L 390 222 L 390 222 L 390 222 L 391 221 L 392 221 L 399 221 L 401 220 L 404 220 L 409 220 L 413 219 L 416 219 L 418 219 L 422 218 L 422 218 L 431 218 L 439 217 L 439 217 L 445 217 L 445 216 L 450 216 L 451 216 L 453 215 L 453 215 L 454 215 L 454 214 L 456 214 L 457 214 L 460 213 L 463 213 L 464 212 L 465 212 L 465 212 L 468 211 L 471 211 L 471 211 L 475 210 L 478 210 L 479 210 L 479 209 L 481 209 L 481 209 L 482 208 L 485 208 L 487 208 L 490 207 L 492 207 L 492 207 L 496 206 L 497 206 L 500 206 L 503 205 L 504 205 L 508 205 L 509 204 L 509 204 L 510 204 L 510 203 L 512 203 L 513 203 L 515 202 L 517 202 L 518 201 L 518 201 L 518 201 L 525 200 L 525 200 L 526 200 L 526 199 L 526 199 L 527 199 L 527 198 L 528 198 L 528 198 L 530 197 L 530 197 L 531 197 L 532 196 L 532 196 L 533 196 L 533 195 L 533 195 L 534 195 L 534 194 L 534 194 L 535 194 L 535 193 L 535 193 L 536 193 L 536 192 L 538 192 L 538 192 L 538 191 L 539 191 L 539 190 L 540 190 L 541 190 L 542 189 L 542 189 L 543 189 L 544 188 L 545 188 L 545 188 L 545 187 L 547 187 L 547 187 L 547 186 L 548 186 L 548 186 L 548 185 L 548 185 L 549 185 L 549 184 L 550 184 L 553 184 L 554 183 L 555 183 L 555 183 L 557 182 L 559 182 L 559 182 L 561 181 L 563 181 L 565 181 L 568 180 L 568 180 L 568 179 L 569 179 L 569 179 L 569 178 L 570 178 L 570 178 L 571 177 L 571 177 L 571 177 L 571 176 L 572 176 L 573 176 L 573 175 L 574 175 L 574 175 L 577 174 L 577 174 L 577 174 L 578 173 L 579 173 L 581 173 L 587 172 L 587 172 L 587 172 L 587 171 L 589 171 L 591 171 L 591 170 L 591 170 L 592 170 L 592 169 L 594 169 L 596 168 L 597 168 L 597 168 L 597 167 L 599 167 L 599 167 L 599 166 L 599 166 L 602 166 L 605 165 L 605 165 L 609 165 L 609 164 L 610 164 L 613 164 L 614 163 L 616 163 L 618 163 L 620 162 L 621 162 L 621 162 L 621 161 L 621 161 L 621 161 L 621 160 L 622 160 L 623 160 L 623 159 L 624 159 L 624 159 L 624 158 L 625 158 L 626 157 L 626 157 L 630 157 L 631 156 L 635 156 L 637 156 L 637 155 L 638 155 L 639 155 L 641 154 L 642 154 L 642 154 L 642 153 L 643 153 L 643 153 L 643 152 L 643 152 L 643 152 L 644 151 L 644 151 L 644 151 L 644 150 L 644 150 L 645 150 L 645 149 L 647 149 L 647 149 L 647 148 L 648 148 L 649 148 L 649 147 L 649 147 L 650 146 L 651 146 L 653 146 L 653 145 L 653 145 L 654 145 L 654 144 L 655 144 L 655 144 L 655 143 L 656 143 L 658 143 L 660 142 L 663 142 L 664 142 L 665 141 L 668 141 L 672 141 L 672 140 L 674 140 L 678 140 L 678 139 L 678 139 L 683 139 L 684 138 L 685 138 L 685 138 L 685 137 L 693 137 L 694 137 L 694 136 L 695 136 L 695 135 L 696 135 L 697 135 L 697 134 L 697 134 L 698 134 L 698 133 L 699 133 L 699 133 L 699 132 L 699 132 L 699 132 L 700 131 L 700 131 L 700 131 L 701 130 L 703 130 L 704 130 L 704 129 L 704 129 L 705 129 L 705 128 L 706 128 L 706 128 L 707 127 L 707 127 L 708 127 L 708 126 L 709 126 L 710 126 L 711 125 L 711 125 L 712 124 L 712 124 L 713 124 L 713 123 L 713 123 L 713 123 L 714 122 L 714 122 L 715 122 L 716 121 L 716 121 L 717 121 L 717 120 L 717 120 L 717 120 L 718 119 L 718 119 L 719 119 L 719 118 L 719 118 L 720 118 L 720 117 L 720 117 L 721 117 L 721 116 L 721 116 L 721 116 L 721 115 L 721 115 L 722 115 L 722 114 L 722 114 L 722 113 L 722 113 L 725 113 L 726 112 L 728 112 L 728 112 L 728 111 L 728 111 L 729 111 L 730 110 L 731 110 L 731 110 L 734 109 L 736 109 L 736 109 L 738 108 L 738 108 L 738 108 L 739 107 L 739 107 L 740 107 L 740 106 L 740 106 L 740 106 L 740 105 L 740 105 L 740 105 L 741 104 L 741 104 L 741 104 L 741 103 L 741 103 L 742 102 L 742 102 L 742 102 L 743 101 L 745 101 L 745 101 L 745 100 L 745 100 L 747 100 L 747 99 L 748 99 L 750 99 L 751 98 L 751 98 L 751 98 L 751 97 L 751 97 L 753 97 L 755 96 L 756 96 L 757 96 L 758 95 L 758 95 L 758 95 L 759 94 L 763 94 L 765 94 L 768 93 L 769 93 L 770 92 L 771 92 L 772 92 L 772 91 L 773 91 L 773 91 L 773 90 L 774 90 L 775 90 L 775 89 L 776 89 L 778 89 L 778 88 L 778 88 L 778 88 L 778 87 L 778 87 L 778 87 L 778 86 L 778 86 L 778 86 L 778 85 L 778 85 L 778 85 L 778 84 L 778 84 L 778 84 L 778 83 L 779 83 L 779 83 L 780 82 L 780 82 L 780 82 L 780 81 L 780 81 L 781 80 L 781 80 L 781 80 L 782 79 L 782 79 L 782 79 L 782 78 L 782 78 L 782 78 L 783 77 L 784 77 L 786 77 L 786 76 L 786 76 L 788 76 L 788 75 L 788 75 L 789 75 L 791 74 L 792 74 L 793 74 L 793 73 L 793 73 L 793 73 L 793 72 L 793 72 L 793 72 L 795 71 L 796 71 L 796 71 L 799 70 L 801 70 L 802 69 L 805 69 L 806 69 L 807 68 L 807 68 L 807 68 L 807 67 L 807 67 L 808 67 L 808 66 L 809 66 L 810 66 L 810 65 L 810 65 L 810 65 L 810 64 L 810 64 L 810 64 L 811 63 L 811 63 L 811 63 L 811 62 L 812 62 L 813 62 L 814 61 L 814 61 L 814 61 L 815 60 L 815 60 L 815 60 L 816 59 L 816 59 L 816 58 L 817 58 L 817 58 L 819 57 L 822 57 L 823 57 L 824 56 L 827 56 L 828 56 L 829 55 L 832 55 L 832 55 L 833 54 L 836 54 L 841 54 L 841 53 L 843 53 L 845 53 L 847 52 L 847 52 L 847 52 L 849 51 L 850 51 L 851 51 L 851 50 L 853 50 L 854 50 L 855 49 L 855 49 L 856 49 L 856 48 L 856 48 L 857 47 L 861 47 L 861 47 L 862 46 L 863 46 L 863 46 L 865 45 L 865 45 L 866 45 L 866 44 L 867 44 L 867 44 L 868 43 L 869 43 L 869 43 L 870 42 L 871 42 L 871 42 L 871 41 L 872 41 L 873 41 L 873 40 L 873 40 L 874 40 L 875 39 L 875 39 L 875 39 L 875 38 L 875 38 L 876 38 L 878 37 L 879 37 L 880 36 L 880 36 L 883 36 L 884 35 L 885 35 L 886 35 L 889 34 L 891 34 L 893 34 L 894 33 L 895 33 L 896 33 L 898 32 L 900 32 L 901 32 L 902 31 L 902 31 L 902 31 L 902 30 L 902 30 L 902 30 L 904 29 L 905 29 L 906 29 L 906 28 L 907 28 L 907 28 L 913 27 L 914 27 L 915 27 L 917 26 L 919 26 L 920 25 L 920 25 L 920 25 L 920 24 L 921 24 L 922 24 L 923 23 L 923 23 L 924 23 L 924 22 L 924 22 L 925 22 L 925 21 L 926 21 L 927 21 L 930 20 L 931 20 L 936 20 L 936 19 L 937 19 L 938 19 L 939 18 L 939 18 L 939 18 L 939 17 L 942 17 L 944 17 L 945 16 L 945 16"></path><path stroke-width="2" d="M 945 346 L 945.000000 15.000000" /><path stroke-width="2" d="M 945 346 L 945.000000 15.000000"></path><path stroke-width="2" d="M 945 346 L 950 346" /><path stroke-width="2" d="M 945 346 L 950 346"></path><text xmlns="http://www.w3.org/2000/svg" x="955" y="352">0</text><path stroke-width="2" d="M 945 309 L 950 309" /><path stroke-width="2" d="M 945 309 L 950 309"></path><text xmlns="http://www.w3.org/2000/svg" x="955" y="315">107</text><path stroke-width="2" d="M 945 272 L 950 272" /><path stroke-width="2" d="M 945 272 L 950 272"></path><text xmlns="http://www.w3.org/2000/svg" x="955" y="278">214</text><path stroke-width="2" d="M 945 236 L 950 236" /><path stroke-width="2" d="M 945 236 L 950 236"></path><text xmlns="http://www.w3.org/2000/svg" x="955" y="242">320</text><path stroke-width="2" d="M 945 199 L 950 199" /><path stroke-width="2" d="M 945 199 L 950 199"></path><text xmlns="http://www.w3.org/2000/svg" x="955" y="205">427</text><path stroke-width="2" d="M 945 162 L 950 162" /><path stroke-width="2" d="M 945 162 L 950 162"></path><text xmlns="http://www.w3.org/2000/svg" x="955" y="168">534</text><path stroke-width="2" d="M 945 126 L 950 126" /><path d="M 945 126 L 950 126" stroke-width="2"></path><text x="955" y="132" xmlns="http://www.w3.org/2000/svg">640</text><path stroke-width="2" d="M 945 89 L 950 89" /><path stroke-width="2" d="M 945 89 L 950 89"></path><text y="95" xmlns="http://www.w3.org/2000/svg" x="955">747</text><path stroke-width="2" d="M 945 52 L 950 52" /><path stroke-width="2" d="M 945 52 L 950 52"></path><text xmlns="http://www.w3.org/2000/svg" x="955" y="58">854</text><path d="M 945 16 L 950 16" stroke-width="2" /><path stroke-width="2" d="M 945 16 L 950 16"></path><text xmlns="http://www.w3.org/2000/svg" x="955" y="22">960</text><text xmlns="http://www.w3.org/2000/svg" x="987" y="175" transform="rotate(90.00,987,175)">Stargazers</text><path stroke-width="2" d="M 57.000000 346.000000 L 945 346" /><path stroke-width="2" d="M 57.000000 346.000000 L 945 346"></path><path stroke-width="2" d="M 58 346 L 58 351" /><path stroke-width="2" d="M 58 346 L 58 351"></path><text xmlns="http://www.w3.org/2000/svg" x="25" y="368">2023-04-02</text><path stroke-width="2" d="M 157 346 L 157 351" /><path stroke-width="2" d="M 157 346 L 157 351"></path><text xmlns="http://www.w3.org/2000/svg" x="124" y="368">2023-06-27</text><path stroke-width="2" d="M 256 346 L 256 351" /><path stroke-width="2" d="M 256 346 L 256 351"></path><text xmlns="http://www.w3.org/2000/svg" x="223" y="368">2023-09-21</text><path stroke-width="2" d="M 354 346 L 354 351" /><path stroke-width="2" d="M 354 346 L 354 351"></path><text xmlns="http://www.w3.org/2000/svg" x="321" y="368">2023-12-16</text><path stroke-width="2" d="M 453 346 L 453 351" /><path stroke-width="2" d="M 453 346 L 453 351"></path><text y="368" xmlns="http://www.w3.org/2000/svg" x="420">2024-03-11</text><path stroke-width="2" d="M 551 346 L 551 351" /><path stroke-width="2" d="M 551 346 L 551 351"></path><text xmlns="http://www.w3.org/2000/svg" x="518" y="368">2024-06-05</text><path d="M 650 346 L 650 351" stroke-width="2" /><path stroke-width="2" d="M 650 346 L 650 351"></path><text xmlns="http://www.w3.org/2000/svg" x="617" y="368">2024-08-30</text><path stroke-width="2" d="M 748 346 L 748 351" /><path stroke-width="2" d="M 748 346 L 748 351"></path><text y="368" xmlns="http://www.w3.org/2000/svg" x="715">2024-11-24</text><path d="M 847 346 L 847 351" stroke-width="2" /><path stroke-width="2" d="M 847 346 L 847 351"></path><text xmlns="http://www.w3.org/2000/svg" x="814" y="368">2025-02-18</text><path stroke-width="2" d="M 945 346 L 945 351" /><path stroke-width="2" d="M 945 346 L 945 351"></path><text xmlns="http://www.w3.org/2000/svg" x="912" y="368">2025-05-15</text><text y="390" xmlns="http://www.w3.org/2000/svg" x="487">Time</text></svg>