<svg xmlns="http://www.w3.org/2000/svg" xmlns:xlink="http://www.w3.org/1999/xlink" width="1024" height="400">\n<path  d="M 0 0
L 1024 0
L 1024 400
L 0 400
L 0 0" style="stroke-width:0;stroke:rgba(255,255,255,1.0);fill:rgba(255,255,255,1.0)"/><path  d="M 38 11
L 965 11
L 965 351
L 38 351
L 38 11" style="stroke-width:0;stroke:rgba(255,255,255,1.0);fill:rgba(255,255,255,1.0)"/><path  d="M 38 351
L 965 351" style="stroke-width:2;stroke:rgba(85,85,85,1.0);fill:none"/><path  d="M 38 351
L 38 356" style="stroke-width:2;stroke:rgba(85,85,85,1.0);fill:none"/><text x="5" y="373" style="stroke-width:0;stroke:none;fill:rgba(51,51,51,1.0);font-size:12.8px;font-family:'Roboto Medium',sans-serif">2023-04-02</text><path  d="M 154 351
L 154 356" style="stroke-width:2;stroke:rgba(85,85,85,1.0);fill:none"/><text x="121" y="373" style="stroke-width:0;stroke:none;fill:rgba(51,51,51,1.0);font-size:12.8px;font-family:'Roboto Medium',sans-serif">2023-04-21</text><path  d="M 270 351
L 270 356" style="stroke-width:2;stroke:rgba(85,85,85,1.0);fill:none"/><text x="237" y="373" style="stroke-width:0;stroke:none;fill:rgba(51,51,51,1.0);font-size:12.8px;font-family:'Roboto Medium',sans-serif">2023-05-09</text><path  d="M 386 351
L 386 356" style="stroke-width:2;stroke:rgba(85,85,85,1.0);fill:none"/><text x="353" y="373" style="stroke-width:0;stroke:none;fill:rgba(51,51,51,1.0);font-size:12.8px;font-family:'Roboto Medium',sans-serif">2023-05-28</text><path  d="M 502 351
L 502 356" style="stroke-width:2;stroke:rgba(85,85,85,1.0);fill:none"/><text x="469" y="373" style="stroke-width:0;stroke:none;fill:rgba(51,51,51,1.0);font-size:12.8px;font-family:'Roboto Medium',sans-serif">2023-06-16</text><path  d="M 618 351
L 618 356" style="stroke-width:2;stroke:rgba(85,85,85,1.0);fill:none"/><text x="585" y="373" style="stroke-width:0;stroke:none;fill:rgba(51,51,51,1.0);font-size:12.8px;font-family:'Roboto Medium',sans-serif">2023-07-05</text><path  d="M 734 351
L 734 356" style="stroke-width:2;stroke:rgba(85,85,85,1.0);fill:none"/><text x="701" y="373" style="stroke-width:0;stroke:none;fill:rgba(51,51,51,1.0);font-size:12.8px;font-family:'Roboto Medium',sans-serif">2023-07-24</text><path  d="M 850 351
L 850 356" style="stroke-width:2;stroke:rgba(85,85,85,1.0);fill:none"/><text x="817" y="373" style="stroke-width:0;stroke:none;fill:rgba(51,51,51,1.0);font-size:12.8px;font-family:'Roboto Medium',sans-serif">2023-08-11</text><path  d="M 965 351
L 965 356" style="stroke-width:2;stroke:rgba(85,85,85,1.0);fill:none"/><text x="932" y="373" style="stroke-width:0;stroke:none;fill:rgba(51,51,51,1.0);font-size:12.8px;font-family:'Roboto Medium',sans-serif">2023-08-30</text><text x="487" y="395" style="stroke-width:0;stroke:none;fill:rgba(51,51,51,1.0);font-size:12.8px;font-family:'Roboto Medium',sans-serif">Time</text><path  d="M 967 351
L 967 11" style="stroke-width:2;stroke:rgba(85,85,85,1.0);fill:none"/><path  d="M 967 351
L 972 351" style="stroke-width:2;stroke:rgba(85,85,85,1.0);fill:none"/><text x="977" y="357" style="stroke-width:0;stroke:none;fill:rgba(51,51,51,1.0);font-size:12.8px;font-family:'Roboto Medium',sans-serif">0</text><path  d="M 967 308
L 972 308" style="stroke-width:2;stroke:rgba(85,85,85,1.0);fill:none"/><text x="977" y="314" style="stroke-width:0;stroke:none;fill:rgba(51,51,51,1.0);font-size:12.8px;font-family:'Roboto Medium',sans-serif">25</text><path  d="M 967 266
L 972 266" style="stroke-width:2;stroke:rgba(85,85,85,1.0);fill:none"/><text x="977" y="272" style="stroke-width:0;stroke:none;fill:rgba(51,51,51,1.0);font-size:12.8px;font-family:'Roboto Medium',sans-serif">50</text><path  d="M 967 223
L 972 223" style="stroke-width:2;stroke:rgba(85,85,85,1.0);fill:none"/><text x="977" y="229" style="stroke-width:0;stroke:none;fill:rgba(51,51,51,1.0);font-size:12.8px;font-family:'Roboto Medium',sans-serif">75</text><path  d="M 967 181
L 972 181" style="stroke-width:2;stroke:rgba(85,85,85,1.0);fill:none"/><text x="977" y="187" style="stroke-width:0;stroke:none;fill:rgba(51,51,51,1.0);font-size:12.8px;font-family:'Roboto Medium',sans-serif">100</text><path  d="M 967 138
L 972 138" style="stroke-width:2;stroke:rgba(85,85,85,1.0);fill:none"/><text x="977" y="144" style="stroke-width:0;stroke:none;fill:rgba(51,51,51,1.0);font-size:12.8px;font-family:'Roboto Medium',sans-serif">125</text><path  d="M 967 96
L 972 96" style="stroke-width:2;stroke:rgba(85,85,85,1.0);fill:none"/><text x="977" y="102" style="stroke-width:0;stroke:none;fill:rgba(51,51,51,1.0);font-size:12.8px;font-family:'Roboto Medium',sans-serif">150</text><path  d="M 967 53
L 972 53" style="stroke-width:2;stroke:rgba(85,85,85,1.0);fill:none"/><text x="977" y="59" style="stroke-width:0;stroke:none;fill:rgba(51,51,51,1.0);font-size:12.8px;font-family:'Roboto Medium',sans-serif">175</text><path  d="M 967 11
L 972 11" style="stroke-width:2;stroke:rgba(85,85,85,1.0);fill:none"/><text x="977" y="17" style="stroke-width:0;stroke:none;fill:rgba(51,51,51,1.0);font-size:12.8px;font-family:'Roboto Medium',sans-serif">200</text><text x="1009" y="150" style="stroke-width:0;stroke:none;fill:rgba(51,51,51,1.0);font-size:12.8px;font-family:'Roboto Medium',sans-serif" transform="rotate(90.00,1009,150)">Stargazers</text><path  d="M 38 351
L 50 349
L 124 347
L 126 345
L 126 344
L 126 342
L 126 340
L 126 339
L 127 337
L 127 335
L 128 334
L 128 332
L 129 330
L 129 328
L 129 327
L 129 325
L 130 323
L 130 322
L 132 320
L 132 318
L 135 317
L 138 315
L 138 313
L 144 311
L 147 310
L 147 308
L 148 306
L 150 305
L 151 303
L 155 301
L 163 300
L 164 298
L 169 296
L 174 294
L 198 293
L 198 291
L 198 289
L 198 288
L 199 286
L 199 284
L 199 283
L 212 281
L 219 279
L 223 277
L 234 276
L 252 274
L 260 272
L 293 271
L 304 269
L 321 267
L 340 266
L 348 264
L 418 262
L 422 260
L 422 259
L 432 257
L 434 255
L 434 254
L 434 252
L 434 250
L 434 249
L 434 247
L 434 245
L 434 243
L 435 242
L 435 240
L 435 238
L 436 237
L 437 235
L 437 233
L 437 232
L 437 230
L 437 228
L 437 226
L 437 225
L 438 223
L 438 221
L 438 220
L 438 218
L 438 216
L 438 215
L 438 213
L 438 211
L 438 209
L 438 208
L 438 206
L 438 204
L 438 203
L 439 201
L 439 199
L 439 198
L 439 196
L 439 194
L 439 192
L 439 191
L 439 189
L 439 187
L 439 186
L 439 184
L 439 182
L 440 181
L 441 179
L 441 177
L 442 175
L 443 174
L 444 172
L 444 170
L 445 169
L 446 167
L 450 165
L 450 163
L 450 162
L 450 160
L 450 158
L 450 157
L 450 155
L 450 153
L 450 152
L 450 150
L 450 148
L 450 147
L 450 145
L 450 143
L 450 141
L 450 140
L 451 138
L 453 136
L 457 135
L 458 133
L 458 131
L 458 130
L 475 128
L 476 126
L 476 124
L 482 123
L 483 121
L 493 119
L 505 118
L 508 116
L 518 114
L 522 113
L 530 111
L 532 109
L 534 107
L 545 106
L 546 104
L 550 102
L 555 101
L 557 99
L 562 97
L 563 96
L 563 94
L 565 92
L 571 90
L 576 89
L 576 87
L 579 85
L 581 84
L 581 82
L 585 80
L 594 79
L 599 77
L 610 75
L 614 73
L 618 72
L 623 70
L 623 68
L 624 67
L 631 65
L 661 63
L 662 62
L 667 60
L 696 58
L 696 56
L 697 55
L 697 53
L 698 51
L 703 50
L 712 48
L 717 46
L 718 45
L 752 43
L 759 41
L 767 39
L 778 38
L 785 36
L 785 34
L 790 33
L 815 31
L 842 29
L 873 28
L 875 26
L 876 24
L 877 22
L 878 21
L 885 19
L 926 17
L 946 16
L 947 14
L 962 12
L 965 11" style="stroke-width:2;stroke:rgba(129,199,239,1.0);fill:none"/></svg>