<svg xmlns="http://www.w3.org/2000/svg" xmlns:xlink="http://www.w3.org/1999/xlink" width="1024" height="400">\n<path  d="M 0 0
L 1024 0
L 1024 400
L 0 400
L 0 0" style="stroke-width:0;stroke:rgba(255,255,255,1.0);fill:rgba(255,255,255,1.0)"/><path  d="M 38 11
L 965 11
L 965 351
L 38 351
L 38 11" style="stroke-width:0;stroke:rgba(255,255,255,1.0);fill:rgba(255,255,255,1.0)"/><path  d="M 38 351
L 965 351" style="stroke-width:2;stroke:rgba(85,85,85,1.0);fill:none"/><path  d="M 38 351
L 38 356" style="stroke-width:2;stroke:rgba(85,85,85,1.0);fill:none"/><text x="5" y="373" style="stroke-width:0;stroke:none;fill:rgba(51,51,51,1.0);font-size:12.8px;font-family:'Roboto Medium',sans-serif">2023-04-02</text><path  d="M 154 351
L 154 356" style="stroke-width:2;stroke:rgba(85,85,85,1.0);fill:none"/><text x="121" y="373" style="stroke-width:0;stroke:none;fill:rgba(51,51,51,1.0);font-size:12.8px;font-family:'Roboto Medium',sans-serif">2023-04-27</text><path  d="M 270 351
L 270 356" style="stroke-width:2;stroke:rgba(85,85,85,1.0);fill:none"/><text x="237" y="373" style="stroke-width:0;stroke:none;fill:rgba(51,51,51,1.0);font-size:12.8px;font-family:'Roboto Medium',sans-serif">2023-05-22</text><path  d="M 386 351
L 386 356" style="stroke-width:2;stroke:rgba(85,85,85,1.0);fill:none"/><text x="353" y="373" style="stroke-width:0;stroke:none;fill:rgba(51,51,51,1.0);font-size:12.8px;font-family:'Roboto Medium',sans-serif">2023-06-16</text><path  d="M 502 351
L 502 356" style="stroke-width:2;stroke:rgba(85,85,85,1.0);fill:none"/><text x="469" y="373" style="stroke-width:0;stroke:none;fill:rgba(51,51,51,1.0);font-size:12.8px;font-family:'Roboto Medium',sans-serif">2023-07-11</text><path  d="M 618 351
L 618 356" style="stroke-width:2;stroke:rgba(85,85,85,1.0);fill:none"/><text x="585" y="373" style="stroke-width:0;stroke:none;fill:rgba(51,51,51,1.0);font-size:12.8px;font-family:'Roboto Medium',sans-serif">2023-08-05</text><path  d="M 734 351
L 734 356" style="stroke-width:2;stroke:rgba(85,85,85,1.0);fill:none"/><text x="701" y="373" style="stroke-width:0;stroke:none;fill:rgba(51,51,51,1.0);font-size:12.8px;font-family:'Roboto Medium',sans-serif">2023-08-30</text><path  d="M 850 351
L 850 356" style="stroke-width:2;stroke:rgba(85,85,85,1.0);fill:none"/><text x="817" y="373" style="stroke-width:0;stroke:none;fill:rgba(51,51,51,1.0);font-size:12.8px;font-family:'Roboto Medium',sans-serif">2023-09-24</text><path  d="M 965 351
L 965 356" style="stroke-width:2;stroke:rgba(85,85,85,1.0);fill:none"/><text x="932" y="373" style="stroke-width:0;stroke:none;fill:rgba(51,51,51,1.0);font-size:12.8px;font-family:'Roboto Medium',sans-serif">2023-10-19</text><text x="487" y="395" style="stroke-width:0;stroke:none;fill:rgba(51,51,51,1.0);font-size:12.8px;font-family:'Roboto Medium',sans-serif">Time</text><path  d="M 967 351
L 967 11" style="stroke-width:2;stroke:rgba(85,85,85,1.0);fill:none"/><path  d="M 967 351
L 972 351" style="stroke-width:2;stroke:rgba(85,85,85,1.0);fill:none"/><text x="977" y="357" style="stroke-width:0;stroke:none;fill:rgba(51,51,51,1.0);font-size:12.8px;font-family:'Roboto Medium',sans-serif">0</text><path  d="M 967 307
L 972 307" style="stroke-width:2;stroke:rgba(85,85,85,1.0);fill:none"/><text x="977" y="313" style="stroke-width:0;stroke:none;fill:rgba(51,51,51,1.0);font-size:12.8px;font-family:'Roboto Medium',sans-serif">33</text><path  d="M 967 266
L 972 266" style="stroke-width:2;stroke:rgba(85,85,85,1.0);fill:none"/><text x="977" y="272" style="stroke-width:0;stroke:none;fill:rgba(51,51,51,1.0);font-size:12.8px;font-family:'Roboto Medium',sans-serif">65</text><path  d="M 967 222
L 972 222" style="stroke-width:2;stroke:rgba(85,85,85,1.0);fill:none"/><text x="977" y="228" style="stroke-width:0;stroke:none;fill:rgba(51,51,51,1.0);font-size:12.8px;font-family:'Roboto Medium',sans-serif">98</text><path  d="M 967 181
L 972 181" style="stroke-width:2;stroke:rgba(85,85,85,1.0);fill:none"/><text x="977" y="187" style="stroke-width:0;stroke:none;fill:rgba(51,51,51,1.0);font-size:12.8px;font-family:'Roboto Medium',sans-serif">130</text><path  d="M 967 137
L 972 137" style="stroke-width:2;stroke:rgba(85,85,85,1.0);fill:none"/><text x="977" y="143" style="stroke-width:0;stroke:none;fill:rgba(51,51,51,1.0);font-size:12.8px;font-family:'Roboto Medium',sans-serif">163</text><path  d="M 967 96
L 972 96" style="stroke-width:2;stroke:rgba(85,85,85,1.0);fill:none"/><text x="977" y="102" style="stroke-width:0;stroke:none;fill:rgba(51,51,51,1.0);font-size:12.8px;font-family:'Roboto Medium',sans-serif">195</text><path  d="M 967 52
L 972 52" style="stroke-width:2;stroke:rgba(85,85,85,1.0);fill:none"/><text x="977" y="58" style="stroke-width:0;stroke:none;fill:rgba(51,51,51,1.0);font-size:12.8px;font-family:'Roboto Medium',sans-serif">228</text><path  d="M 967 11
L 972 11" style="stroke-width:2;stroke:rgba(85,85,85,1.0);fill:none"/><text x="977" y="17" style="stroke-width:0;stroke:none;fill:rgba(51,51,51,1.0);font-size:12.8px;font-family:'Roboto Medium',sans-serif">260</text><text x="1009" y="150" style="stroke-width:0;stroke:none;fill:rgba(51,51,51,1.0);font-size:12.8px;font-family:'Roboto Medium',sans-serif" transform="rotate(90.00,1009,150)">Stargazers</text><path  d="M 38 351
L 47 349
L 103 348
L 104 347
L 105 345
L 105 344
L 105 343
L 105 341
L 105 340
L 105 339
L 106 337
L 106 336
L 106 335
L 106 334
L 107 332
L 107 331
L 107 330
L 107 328
L 108 327
L 108 326
L 111 324
L 113 323
L 113 322
L 117 320
L 120 319
L 120 318
L 120 317
L 122 315
L 123 314
L 126 313
L 132 311
L 132 310
L 136 309
L 140 307
L 158 306
L 158 305
L 158 303
L 158 302
L 159 301
L 159 300
L 159 298
L 169 297
L 174 296
L 177 294
L 185 293
L 199 292
L 205 290
L 229 289
L 237 288
L 251 286
L 265 285
L 271 284
L 323 283
L 326 281
L 327 280
L 333 279
L 335 277
L 335 276
L 335 275
L 335 273
L 335 272
L 335 271
L 335 269
L 335 268
L 336 267
L 336 266
L 336 264
L 337 263
L 338 262
L 338 260
L 338 259
L 338 258
L 338 256
L 338 255
L 338 254
L 338 252
L 338 251
L 338 250
L 338 249
L 338 247
L 338 246
L 338 245
L 338 243
L 338 242
L 338 241
L 339 239
L 339 238
L 339 237
L 339 235
L 339 234
L 339 233
L 339 232
L 339 230
L 339 229
L 339 228
L 339 226
L 339 225
L 339 224
L 339 222
L 339 221
L 339 220
L 340 218
L 340 217
L 341 216
L 342 215
L 342 213
L 343 212
L 344 211
L 344 209
L 347 208
L 347 207
L 347 205
L 347 204
L 347 203
L 347 201
L 347 200
L 347 199
L 347 198
L 347 196
L 347 195
L 347 194
L 347 192
L 348 191
L 348 190
L 348 188
L 348 187
L 349 186
L 353 184
L 353 183
L 353 182
L 353 181
L 366 179
L 367 178
L 367 177
L 372 175
L 372 174
L 380 173
L 389 171
L 391 170
L 398 169
L 401 167
L 407 166
L 409 165
L 410 163
L 418 162
L 419 161
L 422 160
L 426 158
L 428 157
L 431 156
L 432 154
L 432 153
L 434 152
L 438 150
L 442 149
L 442 148
L 444 147
L 446 145
L 446 144
L 449 143
L 455 141
L 459 140
L 467 139
L 470 137
L 473 136
L 477 135
L 477 133
L 478 132
L 483 131
L 506 130
L 507 128
L 510 127
L 532 126
L 532 124
L 532 123
L 533 122
L 534 120
L 537 119
L 544 118
L 548 116
L 548 115
L 574 114
L 579 113
L 585 111
L 594 110
L 599 109
L 599 107
L 603 106
L 621 105
L 641 103
L 664 102
L 667 101
L 667 99
L 667 98
L 669 97
L 674 96
L 705 94
L 719 93
L 720 92
L 732 90
L 734 89
L 736 88
L 770 86
L 770 85
L 773 84
L 774 82
L 779 81
L 788 80
L 792 79
L 799 77
L 804 76
L 811 75
L 831 73
L 832 72
L 835 71
L 836 69
L 836 68
L 838 67
L 848 65
L 848 64
L 868 63
L 896 62
L 910 60
L 926 59
L 927 58
L 935 56
L 936 55
L 941 54
L 946 52
L 946 51
L 946 50
L 946 48
L 946 47
L 946 46
L 946 45
L 946 43
L 947 42
L 947 41
L 948 39
L 948 38
L 948 37
L 949 35
L 951 34
L 953 33
L 957 31
L 959 30
L 959 29
L 959 28
L 960 26
L 965 25
L 965 24
L 965 22
L 965 21
L 965 20
L 965 18
L 965 17" style="stroke-width:2;stroke:rgba(129,199,239,1.0);fill:none"/></svg>