<svg xmlns="http://www.w3.org/2000/svg" xmlns:xlink="http://www.w3.org/1999/xlink" width="1024" height="400">\n<path  d="M 0 0
L 1024 0
L 1024 400
L 0 400
L 0 0" style="stroke-width:0;stroke:rgba(255,255,255,1.0);fill:rgba(255,255,255,1.0)"/><path  d="M 38 11
L 965 11
L 965 351
L 38 351
L 38 11" style="stroke-width:0;stroke:rgba(255,255,255,1.0);fill:rgba(255,255,255,1.0)"/><path  d="M 38 351
L 965 351" style="stroke-width:2;stroke:rgba(85,85,85,1.0);fill:none"/><path  d="M 38 351
L 38 356" style="stroke-width:2;stroke:rgba(85,85,85,1.0);fill:none"/><text x="5" y="373" style="stroke-width:0;stroke:none;fill:rgba(51,51,51,1.0);font-size:12.8px;font-family:'Roboto Medium',sans-serif">2023-04-02</text><path  d="M 154 351
L 154 356" style="stroke-width:2;stroke:rgba(85,85,85,1.0);fill:none"/><text x="121" y="373" style="stroke-width:0;stroke:none;fill:rgba(51,51,51,1.0);font-size:12.8px;font-family:'Roboto Medium',sans-serif">2023-05-04</text><path  d="M 270 351
L 270 356" style="stroke-width:2;stroke:rgba(85,85,85,1.0);fill:none"/><text x="237" y="373" style="stroke-width:0;stroke:none;fill:rgba(51,51,51,1.0);font-size:12.8px;font-family:'Roboto Medium',sans-serif">2023-06-04</text><path  d="M 386 351
L 386 356" style="stroke-width:2;stroke:rgba(85,85,85,1.0);fill:none"/><text x="353" y="373" style="stroke-width:0;stroke:none;fill:rgba(51,51,51,1.0);font-size:12.8px;font-family:'Roboto Medium',sans-serif">2023-07-06</text><path  d="M 502 351
L 502 356" style="stroke-width:2;stroke:rgba(85,85,85,1.0);fill:none"/><text x="469" y="373" style="stroke-width:0;stroke:none;fill:rgba(51,51,51,1.0);font-size:12.8px;font-family:'Roboto Medium',sans-serif">2023-08-07</text><path  d="M 618 351
L 618 356" style="stroke-width:2;stroke:rgba(85,85,85,1.0);fill:none"/><text x="585" y="373" style="stroke-width:0;stroke:none;fill:rgba(51,51,51,1.0);font-size:12.8px;font-family:'Roboto Medium',sans-serif">2023-09-08</text><path  d="M 734 351
L 734 356" style="stroke-width:2;stroke:rgba(85,85,85,1.0);fill:none"/><text x="701" y="373" style="stroke-width:0;stroke:none;fill:rgba(51,51,51,1.0);font-size:12.8px;font-family:'Roboto Medium',sans-serif">2023-10-09</text><path  d="M 850 351
L 850 356" style="stroke-width:2;stroke:rgba(85,85,85,1.0);fill:none"/><text x="817" y="373" style="stroke-width:0;stroke:none;fill:rgba(51,51,51,1.0);font-size:12.8px;font-family:'Roboto Medium',sans-serif">2023-11-10</text><path  d="M 965 351
L 965 356" style="stroke-width:2;stroke:rgba(85,85,85,1.0);fill:none"/><text x="932" y="373" style="stroke-width:0;stroke:none;fill:rgba(51,51,51,1.0);font-size:12.8px;font-family:'Roboto Medium',sans-serif">2023-12-12</text><text x="487" y="395" style="stroke-width:0;stroke:none;fill:rgba(51,51,51,1.0);font-size:12.8px;font-family:'Roboto Medium',sans-serif">Time</text><path  d="M 967 351
L 967 11" style="stroke-width:2;stroke:rgba(85,85,85,1.0);fill:none"/><path  d="M 967 351
L 972 351" style="stroke-width:2;stroke:rgba(85,85,85,1.0);fill:none"/><text x="977" y="357" style="stroke-width:0;stroke:none;fill:rgba(51,51,51,1.0);font-size:12.8px;font-family:'Roboto Medium',sans-serif">0</text><path  d="M 967 307
L 972 307" style="stroke-width:2;stroke:rgba(85,85,85,1.0);fill:none"/><text x="977" y="313" style="stroke-width:0;stroke:none;fill:rgba(51,51,51,1.0);font-size:12.8px;font-family:'Roboto Medium',sans-serif">42</text><path  d="M 967 265
L 972 265" style="stroke-width:2;stroke:rgba(85,85,85,1.0);fill:none"/><text x="977" y="271" style="stroke-width:0;stroke:none;fill:rgba(51,51,51,1.0);font-size:12.8px;font-family:'Roboto Medium',sans-serif">83</text><path  d="M 967 223
L 972 223" style="stroke-width:2;stroke:rgba(85,85,85,1.0);fill:none"/><text x="977" y="229" style="stroke-width:0;stroke:none;fill:rgba(51,51,51,1.0);font-size:12.8px;font-family:'Roboto Medium',sans-serif">124</text><path  d="M 967 181
L 972 181" style="stroke-width:2;stroke:rgba(85,85,85,1.0);fill:none"/><text x="977" y="187" style="stroke-width:0;stroke:none;fill:rgba(51,51,51,1.0);font-size:12.8px;font-family:'Roboto Medium',sans-serif">165</text><path  d="M 967 137
L 972 137" style="stroke-width:2;stroke:rgba(85,85,85,1.0);fill:none"/><text x="977" y="143" style="stroke-width:0;stroke:none;fill:rgba(51,51,51,1.0);font-size:12.8px;font-family:'Roboto Medium',sans-serif">207</text><path  d="M 967 95
L 972 95" style="stroke-width:2;stroke:rgba(85,85,85,1.0);fill:none"/><text x="977" y="101" style="stroke-width:0;stroke:none;fill:rgba(51,51,51,1.0);font-size:12.8px;font-family:'Roboto Medium',sans-serif">248</text><path  d="M 967 53
L 972 53" style="stroke-width:2;stroke:rgba(85,85,85,1.0);fill:none"/><text x="977" y="59" style="stroke-width:0;stroke:none;fill:rgba(51,51,51,1.0);font-size:12.8px;font-family:'Roboto Medium',sans-serif">289</text><path  d="M 967 11
L 972 11" style="stroke-width:2;stroke:rgba(85,85,85,1.0);fill:none"/><text x="977" y="17" style="stroke-width:0;stroke:none;fill:rgba(51,51,51,1.0);font-size:12.8px;font-family:'Roboto Medium',sans-serif">330</text><text x="1009" y="150" style="stroke-width:0;stroke:none;fill:rgba(51,51,51,1.0);font-size:12.8px;font-family:'Roboto Medium',sans-serif" transform="rotate(90.00,1009,150)">Stargazers</text><path  d="M 38 351
L 45 349
L 89 348
L 90 347
L 91 346
L 91 345
L 91 344
L 91 343
L 91 342
L 91 341
L 92 340
L 92 339
L 92 338
L 92 337
L 92 336
L 92 335
L 92 334
L 93 333
L 93 332
L 93 331
L 96 330
L 97 329
L 97 328
L 101 327
L 103 326
L 103 325
L 103 324
L 104 323
L 107 322
L 112 321
L 112 320
L 116 319
L 119 318
L 133 317
L 133 315
L 133 314
L 133 313
L 133 312
L 133 311
L 133 310
L 141 309
L 145 308
L 147 307
L 154 306
L 165 305
L 169 304
L 189 303
L 195 302
L 206 301
L 217 300
L 222 299
L 263 298
L 265 297
L 265 296
L 271 295
L 272 294
L 272 293
L 272 292
L 272 291
L 272 290
L 272 289
L 272 288
L 272 287
L 273 286
L 273 285
L 273 284
L 273 283
L 274 281
L 274 280
L 274 279
L 274 278
L 274 277
L 274 276
L 274 275
L 274 274
L 274 273
L 274 272
L 274 271
L 274 270
L 274 269
L 275 268
L 275 267
L 275 266
L 275 265
L 275 264
L 275 263
L 275 262
L 275 261
L 275 260
L 275 259
L 275 258
L 275 257
L 275 256
L 275 255
L 275 254
L 275 253
L 275 252
L 275 251
L 276 250
L 276 249
L 276 247
L 276 246
L 277 245
L 278 244
L 278 243
L 278 242
L 279 241
L 279 240
L 282 239
L 282 238
L 282 237
L 282 236
L 282 235
L 282 234
L 282 233
L 282 232
L 282 231
L 282 230
L 282 229
L 282 228
L 282 227
L 282 226
L 282 225
L 282 224
L 283 223
L 283 222
L 286 221
L 286 220
L 287 219
L 287 218
L 296 217
L 297 216
L 297 215
L 301 213
L 301 212
L 307 211
L 314 210
L 316 209
L 322 208
L 324 207
L 329 206
L 330 205
L 331 204
L 338 203
L 338 202
L 341 201
L 344 200
L 345 199
L 348 198
L 348 197
L 349 196
L 350 195
L 353 194
L 357 193
L 357 192
L 358 191
L 359 190
L 360 189
L 362 188
L 367 187
L 370 186
L 376 185
L 379 184
L 381 183
L 384 182
L 384 181
L 384 179
L 389 178
L 407 177
L 407 176
L 410 175
L 427 174
L 428 173
L 428 172
L 428 171
L 429 170
L 431 169
L 436 168
L 440 167
L 440 166
L 461 165
L 465 164
L 469 163
L 476 162
L 480 161
L 480 160
L 483 159
L 497 158
L 513 157
L 532 156
L 533 155
L 533 154
L 534 153
L 535 152
L 539 151
L 563 150
L 575 149
L 575 148
L 585 147
L 587 145
L 588 144
L 615 143
L 615 142
L 617 141
L 618 140
L 622 139
L 629 138
L 632 137
L 638 136
L 641 135
L 647 134
L 663 133
L 663 132
L 666 131
L 666 130
L 667 129
L 668 128
L 676 127
L 676 126
L 692 125
L 714 124
L 725 123
L 738 122
L 739 121
L 745 120
L 746 119
L 750 118
L 754 117
L 754 116
L 754 115
L 754 114
L 754 113
L 754 111
L 754 110
L 754 109
L 754 108
L 754 107
L 755 106
L 755 105
L 755 104
L 756 103
L 757 102
L 759 101
L 762 100
L 763 99
L 764 98
L 764 97
L 764 96
L 768 95
L 768 94
L 768 93
L 768 92
L 768 91
L 769 90
L 769 89
L 771 88
L 772 87
L 773 86
L 774 85
L 775 84
L 775 83
L 776 82
L 776 81
L 778 80
L 779 79
L 779 77
L 779 76
L 782 75
L 783 74
L 783 73
L 786 72
L 789 71
L 791 70
L 795 69
L 801 68
L 802 67
L 804 66
L 804 65
L 804 64
L 804 63
L 805 62
L 809 61
L 811 60
L 816 59
L 816 58
L 818 57
L 823 56
L 827 55
L 828 54
L 835 53
L 836 52
L 837 51
L 840 50
L 840 49
L 853 48
L 855 47
L 856 46
L 866 45
L 871 43
L 881 42
L 884 41
L 885 40
L 887 39
L 889 38
L 889 37
L 896 36
L 903 35
L 907 34
L 908 33
L 911 32
L 915 31
L 915 30
L 915 29
L 915 28
L 917 27
L 917 26
L 918 25
L 921 24
L 921 23
L 921 22
L 924 21
L 936 20
L 951 19
L 951 18
L 951 17
L 961 16
L 965 15" style="stroke-width:2;stroke:rgba(129,199,239,1.0);fill:none"/></svg>