<svg xmlns="http://www.w3.org/2000/svg" xmlns:xlink="http://www.w3.org/1999/xlink" width="1024px" height="400px"><style type="text/css">
path { fill: none; stroke: rgb(51,51,51); }
path.series { stroke: #6b63ff; }
rect.background { fill: rgb(255,255,255); stroke: none; }

text {
	stroke-width: 0;
	stroke: none;
	fill: rgba(51,51,51,1.0);
	font-size: 12.8px;
	font-family: 'Roboto Medium', sans-serif;
}
</style><rect class="background" rx="8" x="0" y="0" width="1024px" height="400px" /><rect x="0" y="0" width="1024px" height="400px" class="background" rx="8"></rect><path stroke-width="2" class="series" d="M 58 345 L 62 344 L 88 343 L 88 343 L 88 342 L 88 341 L 88 341 L 88 340 L 88 339 L 88 338 L 89 338 L 89 337 L 89 336 L 89 336 L 89 335 L 90 334 L 90 334 L 90 333 L 90 332 L 91 331 L 92 331 L 92 330 L 94 329 L 95 329 L 95 328 L 96 327 L 96 327 L 98 326 L 101 325 L 101 324 L 103 324 L 105 323 L 113 322 L 113 322 L 113 321 L 113 320 L 113 320 L 113 319 L 118 318 L 120 317 L 121 317 L 125 316 L 131 315 L 134 315 L 145 314 L 149 313 L 155 313 L 161 312 L 164 311 L 188 310 L 189 310 L 189 309 L 192 308 L 193 308 L 193 307 L 193 306 L 193 305 L 193 305 L 193 304 L 193 303 L 193 303 L 193 302 L 193 301 L 193 301 L 194 300 L 194 299 L 194 298 L 194 298 L 194 297 L 194 296 L 194 296 L 194 295 L 194 294 L 194 294 L 194 293 L 194 292 L 194 291 L 194 291 L 194 290 L 194 289 L 194 289 L 194 288 L 194 287 L 194 287 L 194 286 L 194 285 L 195 284 L 195 284 L 195 283 L 195 282 L 195 282 L 195 281 L 195 280 L 195 280 L 195 279 L 195 278 L 195 277 L 195 277 L 195 276 L 195 275 L 196 275 L 196 274 L 196 273 L 196 272 L 197 272 L 197 271 L 198 270 L 198 270 L 198 269 L 198 268 L 198 268 L 198 267 L 198 266 L 198 265 L 198 265 L 198 264 L 198 263 L 198 263 L 198 262 L 198 261 L 198 261 L 199 260 L 199 259 L 199 258 L 201 258 L 201 257 L 201 256 L 201 256 L 207 255 L 207 254 L 207 254 L 209 253 L 209 252 L 213 251 L 217 251 L 218 250 L 222 249 L 223 249 L 226 248 L 226 247 L 227 247 L 231 246 L 231 245 L 232 244 L 234 244 L 235 243 L 236 242 L 237 242 L 237 241 L 237 240 L 239 239 L 241 239 L 241 238 L 242 237 L 243 237 L 243 236 L 244 235 L 247 235 L 249 234 L 253 233 L 254 232 L 255 232 L 257 231 L 257 230 L 257 230 L 260 229 L 270 228 L 271 228 L 272 227 L 282 226 L 282 225 L 282 225 L 282 224 L 283 223 L 284 223 L 287 222 L 289 221 L 289 221 L 301 220 L 304 219 L 306 218 L 310 218 L 312 217 L 312 216 L 314 216 L 322 215 L 331 214 L 342 214 L 343 213 L 343 212 L 343 211 L 344 211 L 346 210 L 360 209 L 367 209 L 367 208 L 372 207 L 374 206 L 374 206 L 390 205 L 390 204 L 391 204 L 392 203 L 394 202 L 398 202 L 400 201 L 403 200 L 405 199 L 409 199 L 417 198 L 418 197 L 419 197 L 420 196 L 420 195 L 421 195 L 425 194 L 434 193 L 453 192 L 461 192 L 461 191 L 465 190 L 465 190 L 468 189 L 470 188 L 470 188 L 470 187 L 470 186 L 470 185 L 470 185 L 470 184 L 470 183 L 470 183 L 470 182 L 470 181 L 470 181 L 470 180 L 471 179 L 472 178 L 473 178 L 475 177 L 475 176 L 476 176 L 476 175 L 476 174 L 478 173 L 478 173 L 478 172 L 478 171 L 478 171 L 478 170 L 478 169 L 480 169 L 481 168 L 482 167 L 482 166 L 482 166 L 482 165 L 482 164 L 484 164 L 484 163 L 484 162 L 485 162 L 486 161 L 486 160 L 487 159 L 488 159 L 490 158 L 491 157 L 493 157 L 497 156 L 497 155 L 498 155 L 499 154 L 499 153 L 499 152 L 499 152 L 502 151 L 503 150 L 505 150 L 506 149 L 507 148 L 510 148 L 512 147 L 512 146 L 516 145 L 517 145 L 518 144 L 519 143 L 519 143 L 527 142 L 528 141 L 529 140 L 534 140 L 537 139 L 543 138 L 544 138 L 545 137 L 547 136 L 547 136 L 547 135 L 552 134 L 555 133 L 558 133 L 558 132 L 560 131 L 562 131 L 562 130 L 562 129 L 562 129 L 563 128 L 564 127 L 564 126 L 566 126 L 566 125 L 566 124 L 567 124 L 575 123 L 583 122 L 583 122 L 583 121 L 589 120 L 591 119 L 593 119 L 593 118 L 595 117 L 597 117 L 597 116 L 597 115 L 597 115 L 597 114 L 598 113 L 598 112 L 599 112 L 599 111 L 600 110 L 604 110 L 604 109 L 604 108 L 604 107 L 605 107 L 605 106 L 605 105 L 605 105 L 605 104 L 605 103 L 606 103 L 606 102 L 606 101 L 612 100 L 616 100 L 616 99 L 618 98 L 626 98 L 635 97 L 637 96 L 642 96 L 646 95 L 656 94 L 660 93 L 663 93 L 664 92 L 664 91 L 664 91 L 665 90 L 665 89 L 665 89 L 665 88 L 667 87 L 668 86 L 681 86 L 685 85 L 690 84 L 700 84 L 707 83 L 713 82 L 717 82 L 724 81 L 724 80 L 739 79 L 755 79 L 755 78 L 765 77 L 766 77 L 774 76 L 776 75 L 780 74 L 780 74 L 782 73 L 782 72 L 786 72 L 788 71 L 793 70 L 799 70 L 800 69 L 802 68 L 802 67 L 808 67 L 814 66 L 814 65 L 820 65 L 827 64 L 828 63 L 828 63 L 831 62 L 832 61 L 834 60 L 839 60 L 843 59 L 847 58 L 851 58 L 851 57 L 860 56 L 861 56 L 866 55 L 873 54 L 873 53 L 881 53 L 882 52 L 882 51 L 885 51 L 885 50 L 889 49 L 889 49 L 893 48 L 898 47 L 899 46 L 899 46 L 900 45 L 912 44 L 913 44 L 914 43 L 914 42 L 915 41 L 916 41 L 916 40 L 917 39 L 918 39 L 921 38 L 921 37 L 923 37 L 924 36 L 925 35 L 926 34 L 927 34 L 927 33 L 929 32 L 929 32 L 929 31 L 931 30 L 931 30 L 931 29 L 932 28 L 933 27 L 935 27 L 936 26 L 936 25 L 937 25 L 938 24 L 940 23 L 942 23 L 942 22 L 943 21 L 945 20" /><path stroke-width="2" class="series" d="M 58 345 L 62 344 L 88 343 L 88 343 L 88 342 L 88 341 L 88 341 L 88 340 L 88 339 L 88 338 L 89 338 L 89 337 L 89 336 L 89 336 L 89 335 L 90 334 L 90 334 L 90 333 L 90 332 L 91 331 L 92 331 L 92 330 L 94 329 L 95 329 L 95 328 L 96 327 L 96 327 L 98 326 L 101 325 L 101 324 L 103 324 L 105 323 L 113 322 L 113 322 L 113 321 L 113 320 L 113 320 L 113 319 L 118 318 L 120 317 L 121 317 L 125 316 L 131 315 L 134 315 L 145 314 L 149 313 L 155 313 L 161 312 L 164 311 L 188 310 L 189 310 L 189 309 L 192 308 L 193 308 L 193 307 L 193 306 L 193 305 L 193 305 L 193 304 L 193 303 L 193 303 L 193 302 L 193 301 L 193 301 L 194 300 L 194 299 L 194 298 L 194 298 L 194 297 L 194 296 L 194 296 L 194 295 L 194 294 L 194 294 L 194 293 L 194 292 L 194 291 L 194 291 L 194 290 L 194 289 L 194 289 L 194 288 L 194 287 L 194 287 L 194 286 L 194 285 L 195 284 L 195 284 L 195 283 L 195 282 L 195 282 L 195 281 L 195 280 L 195 280 L 195 279 L 195 278 L 195 277 L 195 277 L 195 276 L 195 275 L 196 275 L 196 274 L 196 273 L 196 272 L 197 272 L 197 271 L 198 270 L 198 270 L 198 269 L 198 268 L 198 268 L 198 267 L 198 266 L 198 265 L 198 265 L 198 264 L 198 263 L 198 263 L 198 262 L 198 261 L 198 261 L 199 260 L 199 259 L 199 258 L 201 258 L 201 257 L 201 256 L 201 256 L 207 255 L 207 254 L 207 254 L 209 253 L 209 252 L 213 251 L 217 251 L 218 250 L 222 249 L 223 249 L 226 248 L 226 247 L 227 247 L 231 246 L 231 245 L 232 244 L 234 244 L 235 243 L 236 242 L 237 242 L 237 241 L 237 240 L 239 239 L 241 239 L 241 238 L 242 237 L 243 237 L 243 236 L 244 235 L 247 235 L 249 234 L 253 233 L 254 232 L 255 232 L 257 231 L 257 230 L 257 230 L 260 229 L 270 228 L 271 228 L 272 227 L 282 226 L 282 225 L 282 225 L 282 224 L 283 223 L 284 223 L 287 222 L 289 221 L 289 221 L 301 220 L 304 219 L 306 218 L 310 218 L 312 217 L 312 216 L 314 216 L 322 215 L 331 214 L 342 214 L 343 213 L 343 212 L 343 211 L 344 211 L 346 210 L 360 209 L 367 209 L 367 208 L 372 207 L 374 206 L 374 206 L 390 205 L 390 204 L 391 204 L 392 203 L 394 202 L 398 202 L 400 201 L 403 200 L 405 199 L 409 199 L 417 198 L 418 197 L 419 197 L 420 196 L 420 195 L 421 195 L 425 194 L 434 193 L 453 192 L 461 192 L 461 191 L 465 190 L 465 190 L 468 189 L 470 188 L 470 188 L 470 187 L 470 186 L 470 185 L 470 185 L 470 184 L 470 183 L 470 183 L 470 182 L 470 181 L 470 181 L 470 180 L 471 179 L 472 178 L 473 178 L 475 177 L 475 176 L 476 176 L 476 175 L 476 174 L 478 173 L 478 173 L 478 172 L 478 171 L 478 171 L 478 170 L 478 169 L 480 169 L 481 168 L 482 167 L 482 166 L 482 166 L 482 165 L 482 164 L 484 164 L 484 163 L 484 162 L 485 162 L 486 161 L 486 160 L 487 159 L 488 159 L 490 158 L 491 157 L 493 157 L 497 156 L 497 155 L 498 155 L 499 154 L 499 153 L 499 152 L 499 152 L 502 151 L 503 150 L 505 150 L 506 149 L 507 148 L 510 148 L 512 147 L 512 146 L 516 145 L 517 145 L 518 144 L 519 143 L 519 143 L 527 142 L 528 141 L 529 140 L 534 140 L 537 139 L 543 138 L 544 138 L 545 137 L 547 136 L 547 136 L 547 135 L 552 134 L 555 133 L 558 133 L 558 132 L 560 131 L 562 131 L 562 130 L 562 129 L 562 129 L 563 128 L 564 127 L 564 126 L 566 126 L 566 125 L 566 124 L 567 124 L 575 123 L 583 122 L 583 122 L 583 121 L 589 120 L 591 119 L 593 119 L 593 118 L 595 117 L 597 117 L 597 116 L 597 115 L 597 115 L 597 114 L 598 113 L 598 112 L 599 112 L 599 111 L 600 110 L 604 110 L 604 109 L 604 108 L 604 107 L 605 107 L 605 106 L 605 105 L 605 105 L 605 104 L 605 103 L 606 103 L 606 102 L 606 101 L 612 100 L 616 100 L 616 99 L 618 98 L 626 98 L 635 97 L 637 96 L 642 96 L 646 95 L 656 94 L 660 93 L 663 93 L 664 92 L 664 91 L 664 91 L 665 90 L 665 89 L 665 89 L 665 88 L 667 87 L 668 86 L 681 86 L 685 85 L 690 84 L 700 84 L 707 83 L 713 82 L 717 82 L 724 81 L 724 80 L 739 79 L 755 79 L 755 78 L 765 77 L 766 77 L 774 76 L 776 75 L 780 74 L 780 74 L 782 73 L 782 72 L 786 72 L 788 71 L 793 70 L 799 70 L 800 69 L 802 68 L 802 67 L 808 67 L 814 66 L 814 65 L 820 65 L 827 64 L 828 63 L 828 63 L 831 62 L 832 61 L 834 60 L 839 60 L 843 59 L 847 58 L 851 58 L 851 57 L 860 56 L 861 56 L 866 55 L 873 54 L 873 53 L 881 53 L 882 52 L 882 51 L 885 51 L 885 50 L 889 49 L 889 49 L 893 48 L 898 47 L 899 46 L 899 46 L 900 45 L 912 44 L 913 44 L 914 43 L 914 42 L 915 41 L 916 41 L 916 40 L 917 39 L 918 39 L 921 38 L 921 37 L 923 37 L 924 36 L 925 35 L 926 34 L 927 34 L 927 33 L 929 32 L 929 32 L 929 31 L 931 30 L 931 30 L 931 29 L 932 28 L 933 27 L 935 27 L 936 26 L 936 25 L 937 25 L 938 24 L 940 23 L 942 23 L 942 22 L 943 21 L 945 20"></path><path stroke-width="2" d="M 945 346 L 945.000000 15.000000" /><path stroke-width="2" d="M 945 346 L 945.000000 15.000000"></path><path stroke-width="2" d="M 945 346 L 950 346" /><path stroke-width="2" d="M 945 346 L 950 346"></path><text y="352" xmlns="http://www.w3.org/2000/svg" x="955">0</text><path stroke-width="2" d="M 945 308 L 950 308" /><path stroke-width="2" d="M 945 308 L 950 308"></path><text xmlns="http://www.w3.org/2000/svg" x="955" y="314">53</text><path stroke-width="2" d="M 945 272 L 950 272" /><path stroke-width="2" d="M 945 272 L 950 272"></path><text xmlns="http://www.w3.org/2000/svg" x="955" y="278">105</text><path stroke-width="2" d="M 945 235 L 950 235" /><path stroke-width="2" d="M 945 235 L 950 235"></path><text xmlns="http://www.w3.org/2000/svg" x="955" y="241">157</text><path stroke-width="2" d="M 945 199 L 950 199" /><path stroke-width="2" d="M 945 199 L 950 199"></path><text xmlns="http://www.w3.org/2000/svg" x="955" y="205">209</text><path stroke-width="2" d="M 945 162 L 950 162" /><path stroke-width="2" d="M 945 162 L 950 162"></path><text y="168" xmlns="http://www.w3.org/2000/svg" x="955">262</text><path stroke-width="2" d="M 945 125 L 950 125" /><path d="M 945 125 L 950 125" stroke-width="2"></path><text xmlns="http://www.w3.org/2000/svg" x="955" y="131">314</text><path stroke-width="2" d="M 945 89 L 950 89" /><path stroke-width="2" d="M 945 89 L 950 89"></path><text x="955" y="95" xmlns="http://www.w3.org/2000/svg">366</text><path stroke-width="2" d="M 945 52 L 950 52" /><path stroke-width="2" d="M 945 52 L 950 52"></path><text xmlns="http://www.w3.org/2000/svg" x="955" y="58">418</text><path stroke-width="2" d="M 945 16 L 950 16" /><path stroke-width="2" d="M 945 16 L 950 16"></path><text xmlns="http://www.w3.org/2000/svg" x="955" y="22">470</text><text xmlns="http://www.w3.org/2000/svg" x="987" y="175" transform="rotate(90.00,987,175)">Stargazers</text><path d="M 57.000000 346.000000 L 945 346" stroke-width="2" /><path stroke-width="2" d="M 57.000000 346.000000 L 945 346"></path><path stroke-width="2" d="M 58 346 L 58 351" /><path stroke-width="2" d="M 58 346 L 58 351"></path><text xmlns="http://www.w3.org/2000/svg" x="25" y="368">2023-04-02</text><path stroke-width="2" d="M 157 346 L 157 351" /><path stroke-width="2" d="M 157 346 L 157 351"></path><text y="368" xmlns="http://www.w3.org/2000/svg" x="124">2023-05-19</text><path stroke-width="2" d="M 256 346 L 256 351" /><path stroke-width="2" d="M 256 346 L 256 351"></path><text xmlns="http://www.w3.org/2000/svg" x="223" y="368">2023-07-05</text><path d="M 354 346 L 354 351" stroke-width="2" /><path d="M 354 346 L 354 351" stroke-width="2"></path><text xmlns="http://www.w3.org/2000/svg" x="321" y="368">2023-08-21</text><path stroke-width="2" d="M 453 346 L 453 351" /><path stroke-width="2" d="M 453 346 L 453 351"></path><text xmlns="http://www.w3.org/2000/svg" x="420" y="368">2023-10-07</text><path stroke-width="2" d="M 551 346 L 551 351" /><path stroke-width="2" d="M 551 346 L 551 351"></path><text xmlns="http://www.w3.org/2000/svg" x="518" y="368">2023-11-23</text><path stroke-width="2" d="M 650 346 L 650 351" /><path stroke-width="2" d="M 650 346 L 650 351"></path><text xmlns="http://www.w3.org/2000/svg" x="617" y="368">2024-01-09</text><path stroke-width="2" d="M 748 346 L 748 351" /><path stroke-width="2" d="M 748 346 L 748 351"></path><text xmlns="http://www.w3.org/2000/svg" x="715" y="368">2024-02-25</text><path stroke-width="2" d="M 847 346 L 847 351" /><path stroke-width="2" d="M 847 346 L 847 351"></path><text xmlns="http://www.w3.org/2000/svg" x="814" y="368">2024-04-12</text><path stroke-width="2" d="M 945 346 L 945 351" /><path stroke-width="2" d="M 945 346 L 945 351"></path><text xmlns="http://www.w3.org/2000/svg" x="912" y="368">2024-05-29</text><text xmlns="http://www.w3.org/2000/svg" x="487" y="390">Time</text></svg>