<svg xmlns="http://www.w3.org/2000/svg" xmlns:xlink="http://www.w3.org/1999/xlink" width="1024" height="400">\n<path  d="M 0 0
L 1024 0
L 1024 400
L 0 400
L 0 0" style="stroke-width:0;stroke:rgba(255,255,255,1.0);fill:rgba(255,255,255,1.0)"/><path  d="M 38 11
L 965 11
L 965 351
L 38 351
L 38 11" style="stroke-width:0;stroke:rgba(255,255,255,1.0);fill:rgba(255,255,255,1.0)"/><path  d="M 38 351
L 965 351" style="stroke-width:2;stroke:rgba(85,85,85,1.0);fill:none"/><path  d="M 38 351
L 38 356" style="stroke-width:2;stroke:rgba(85,85,85,1.0);fill:none"/><text x="5" y="373" style="stroke-width:0;stroke:none;fill:rgba(51,51,51,1.0);font-size:12.8px;font-family:'Roboto Medium',sans-serif">2023-04-02</text><path  d="M 154 351
L 154 356" style="stroke-width:2;stroke:rgba(85,85,85,1.0);fill:none"/><text x="121" y="373" style="stroke-width:0;stroke:none;fill:rgba(51,51,51,1.0);font-size:12.8px;font-family:'Roboto Medium',sans-serif">2023-04-29</text><path  d="M 270 351
L 270 356" style="stroke-width:2;stroke:rgba(85,85,85,1.0);fill:none"/><text x="237" y="373" style="stroke-width:0;stroke:none;fill:rgba(51,51,51,1.0);font-size:12.8px;font-family:'Roboto Medium',sans-serif">2023-05-25</text><path  d="M 386 351
L 386 356" style="stroke-width:2;stroke:rgba(85,85,85,1.0);fill:none"/><text x="353" y="373" style="stroke-width:0;stroke:none;fill:rgba(51,51,51,1.0);font-size:12.8px;font-family:'Roboto Medium',sans-serif">2023-06-21</text><path  d="M 502 351
L 502 356" style="stroke-width:2;stroke:rgba(85,85,85,1.0);fill:none"/><text x="469" y="373" style="stroke-width:0;stroke:none;fill:rgba(51,51,51,1.0);font-size:12.8px;font-family:'Roboto Medium',sans-serif">2023-07-18</text><path  d="M 618 351
L 618 356" style="stroke-width:2;stroke:rgba(85,85,85,1.0);fill:none"/><text x="585" y="373" style="stroke-width:0;stroke:none;fill:rgba(51,51,51,1.0);font-size:12.8px;font-family:'Roboto Medium',sans-serif">2023-08-13</text><path  d="M 734 351
L 734 356" style="stroke-width:2;stroke:rgba(85,85,85,1.0);fill:none"/><text x="701" y="373" style="stroke-width:0;stroke:none;fill:rgba(51,51,51,1.0);font-size:12.8px;font-family:'Roboto Medium',sans-serif">2023-09-09</text><path  d="M 850 351
L 850 356" style="stroke-width:2;stroke:rgba(85,85,85,1.0);fill:none"/><text x="817" y="373" style="stroke-width:0;stroke:none;fill:rgba(51,51,51,1.0);font-size:12.8px;font-family:'Roboto Medium',sans-serif">2023-10-06</text><path  d="M 965 351
L 965 356" style="stroke-width:2;stroke:rgba(85,85,85,1.0);fill:none"/><text x="932" y="373" style="stroke-width:0;stroke:none;fill:rgba(51,51,51,1.0);font-size:12.8px;font-family:'Roboto Medium',sans-serif">2023-11-02</text><text x="487" y="395" style="stroke-width:0;stroke:none;fill:rgba(51,51,51,1.0);font-size:12.8px;font-family:'Roboto Medium',sans-serif">Time</text><path  d="M 967 351
L 967 11" style="stroke-width:2;stroke:rgba(85,85,85,1.0);fill:none"/><path  d="M 967 351
L 972 351" style="stroke-width:2;stroke:rgba(85,85,85,1.0);fill:none"/><text x="977" y="357" style="stroke-width:0;stroke:none;fill:rgba(51,51,51,1.0);font-size:12.8px;font-family:'Roboto Medium',sans-serif">0</text><path  d="M 967 307
L 972 307" style="stroke-width:2;stroke:rgba(85,85,85,1.0);fill:none"/><text x="977" y="313" style="stroke-width:0;stroke:none;fill:rgba(51,51,51,1.0);font-size:12.8px;font-family:'Roboto Medium',sans-serif">37</text><path  d="M 967 265
L 972 265" style="stroke-width:2;stroke:rgba(85,85,85,1.0);fill:none"/><text x="977" y="271" style="stroke-width:0;stroke:none;fill:rgba(51,51,51,1.0);font-size:12.8px;font-family:'Roboto Medium',sans-serif">73</text><path  d="M 967 223
L 972 223" style="stroke-width:2;stroke:rgba(85,85,85,1.0);fill:none"/><text x="977" y="229" style="stroke-width:0;stroke:none;fill:rgba(51,51,51,1.0);font-size:12.8px;font-family:'Roboto Medium',sans-serif">109</text><path  d="M 967 181
L 972 181" style="stroke-width:2;stroke:rgba(85,85,85,1.0);fill:none"/><text x="977" y="187" style="stroke-width:0;stroke:none;fill:rgba(51,51,51,1.0);font-size:12.8px;font-family:'Roboto Medium',sans-serif">145</text><path  d="M 967 137
L 972 137" style="stroke-width:2;stroke:rgba(85,85,85,1.0);fill:none"/><text x="977" y="143" style="stroke-width:0;stroke:none;fill:rgba(51,51,51,1.0);font-size:12.8px;font-family:'Roboto Medium',sans-serif">182</text><path  d="M 967 95
L 972 95" style="stroke-width:2;stroke:rgba(85,85,85,1.0);fill:none"/><text x="977" y="101" style="stroke-width:0;stroke:none;fill:rgba(51,51,51,1.0);font-size:12.8px;font-family:'Roboto Medium',sans-serif">218</text><path  d="M 967 53
L 972 53" style="stroke-width:2;stroke:rgba(85,85,85,1.0);fill:none"/><text x="977" y="59" style="stroke-width:0;stroke:none;fill:rgba(51,51,51,1.0);font-size:12.8px;font-family:'Roboto Medium',sans-serif">254</text><path  d="M 967 11
L 972 11" style="stroke-width:2;stroke:rgba(85,85,85,1.0);fill:none"/><text x="977" y="17" style="stroke-width:0;stroke:none;fill:rgba(51,51,51,1.0);font-size:12.8px;font-family:'Roboto Medium',sans-serif">290</text><text x="1009" y="150" style="stroke-width:0;stroke:none;fill:rgba(51,51,51,1.0);font-size:12.8px;font-family:'Roboto Medium',sans-serif" transform="rotate(90.00,1009,150)">Stargazers</text><path  d="M 38 351
L 46 349
L 99 348
L 100 347
L 100 346
L 100 345
L 100 343
L 100 342
L 100 341
L 100 340
L 102 339
L 102 338
L 102 336
L 102 335
L 102 334
L 102 333
L 103 332
L 103 331
L 104 329
L 104 328
L 107 327
L 108 326
L 109 325
L 112 324
L 115 322
L 115 321
L 115 320
L 117 319
L 117 318
L 120 317
L 126 315
L 126 314
L 130 313
L 134 312
L 150 311
L 151 309
L 151 308
L 151 307
L 151 306
L 151 305
L 151 304
L 161 302
L 165 301
L 168 300
L 176 299
L 189 298
L 194 297
L 217 295
L 225 294
L 237 293
L 250 292
L 256 291
L 305 290
L 308 288
L 308 287
L 315 286
L 316 285
L 316 284
L 316 283
L 316 281
L 316 280
L 316 279
L 316 278
L 316 277
L 317 275
L 317 274
L 317 273
L 318 272
L 319 271
L 319 270
L 319 268
L 319 267
L 319 266
L 319 265
L 319 264
L 319 263
L 319 261
L 319 260
L 319 259
L 319 258
L 319 257
L 319 256
L 319 254
L 319 253
L 319 252
L 320 251
L 320 250
L 320 249
L 320 247
L 320 246
L 320 245
L 320 244
L 320 243
L 320 241
L 320 240
L 320 239
L 320 238
L 320 237
L 320 236
L 320 234
L 320 233
L 321 232
L 321 231
L 322 230
L 323 229
L 323 227
L 323 226
L 324 225
L 325 224
L 327 223
L 327 222
L 328 220
L 328 219
L 328 218
L 328 217
L 328 216
L 328 215
L 328 213
L 328 212
L 328 211
L 328 210
L 328 209
L 328 207
L 328 206
L 328 205
L 329 204
L 330 203
L 333 202
L 333 200
L 333 199
L 333 198
L 345 197
L 346 196
L 346 195
L 350 193
L 351 192
L 358 191
L 366 190
L 369 189
L 376 188
L 378 186
L 384 185
L 385 184
L 387 183
L 394 182
L 395 181
L 398 179
L 401 178
L 403 177
L 406 176
L 407 175
L 407 173
L 409 172
L 412 171
L 417 170
L 417 169
L 419 168
L 420 166
L 420 165
L 423 164
L 429 163
L 433 162
L 440 161
L 443 159
L 445 158
L 449 157
L 449 156
L 450 155
L 455 154
L 476 152
L 477 151
L 480 150
L 501 149
L 501 148
L 501 147
L 501 145
L 502 144
L 505 143
L 512 142
L 515 141
L 516 139
L 540 138
L 545 137
L 551 136
L 558 135
L 563 134
L 563 132
L 567 131
L 584 130
L 603 129
L 625 128
L 627 127
L 627 125
L 628 124
L 629 123
L 633 122
L 662 121
L 676 120
L 677 118
L 688 117
L 690 116
L 692 115
L 724 114
L 724 113
L 726 111
L 728 110
L 732 109
L 741 108
L 744 107
L 751 105
L 755 104
L 762 103
L 781 102
L 781 101
L 785 100
L 785 98
L 786 97
L 787 96
L 796 95
L 797 94
L 815 93
L 841 91
L 855 90
L 870 89
L 871 88
L 878 87
L 879 86
L 884 84
L 888 83
L 888 82
L 888 81
L 889 80
L 889 79
L 889 77
L 889 76
L 889 75
L 890 74
L 890 73
L 890 71
L 890 70
L 890 69
L 892 68
L 893 67
L 895 66
L 899 64
L 900 63
L 901 62
L 901 61
L 901 60
L 906 59
L 906 57
L 906 56
L 906 55
L 906 54
L 907 53
L 907 52
L 910 50
L 910 49
L 912 48
L 913 47
L 914 46
L 914 45
L 915 43
L 915 42
L 918 41
L 919 40
L 919 39
L 919 37
L 922 36
L 923 35
L 924 34
L 927 33
L 931 32
L 933 30
L 938 29
L 945 28
L 946 27
L 948 26
L 949 25
L 949 23
L 949 22
L 949 21
L 955 20
L 957 19
L 963 18
L 963 16
L 965 15" style="stroke-width:2;stroke:rgba(129,199,239,1.0);fill:none"/></svg>