<svg xmlns="http://www.w3.org/2000/svg" xmlns:xlink="http://www.w3.org/1999/xlink" width="1024px" height="400px"><style type="text/css">
path { fill: none; stroke: rgb(51,51,51); }
path.series { stroke: #6b63ff; }
rect.background { fill: rgb(255,255,255); stroke: none; }

text {
	stroke-width: 0;
	stroke: none;
	fill: rgba(51,51,51,1.0);
	font-size: 12.8px;
	font-family: 'Roboto Medium', sans-serif;
}
</style><rect rx="8" x="0" y="0" width="1024px" height="400px" class="background" /><rect y="0" width="1024px" height="400px" class="background" rx="8" x="0"></rect><path stroke-width="2" class="series" d="M 58 345 L 63 344 L 90 343 L 91 342 L 91 342 L 91 341 L 91 340 L 91 339 L 91 339 L 91 338 L 91 337 L 91 336 L 91 336 L 91 335 L 92 334 L 92 333 L 92 332 L 92 332 L 92 331 L 92 330 L 94 329 L 95 329 L 95 328 L 97 327 L 98 326 L 98 326 L 98 325 L 99 324 L 101 323 L 104 322 L 104 322 L 106 321 L 108 320 L 117 319 L 117 319 L 117 318 L 117 317 L 117 316 L 117 316 L 122 315 L 124 314 L 126 313 L 130 313 L 137 312 L 139 311 L 151 310 L 155 309 L 162 309 L 168 308 L 171 307 L 197 306 L 198 306 L 198 305 L 202 304 L 203 303 L 203 303 L 203 302 L 203 301 L 203 300 L 203 299 L 203 299 L 203 298 L 203 297 L 203 296 L 203 296 L 203 295 L 204 294 L 204 293 L 204 293 L 204 292 L 204 291 L 204 290 L 204 289 L 204 289 L 204 288 L 204 287 L 204 286 L 204 286 L 204 285 L 204 284 L 204 283 L 204 283 L 204 282 L 204 281 L 204 280 L 204 280 L 204 279 L 204 278 L 204 277 L 204 276 L 204 276 L 204 275 L 204 274 L 205 273 L 205 273 L 205 272 L 205 271 L 205 270 L 205 270 L 205 269 L 205 268 L 206 267 L 206 266 L 206 266 L 206 265 L 207 264 L 207 263 L 208 263 L 208 262 L 208 261 L 209 260 L 209 260 L 209 259 L 209 258 L 209 257 L 209 256 L 209 256 L 209 255 L 209 254 L 209 253 L 209 253 L 209 252 L 209 251 L 209 250 L 210 250 L 211 249 L 211 248 L 212 247 L 212 247 L 218 246 L 218 245 L 218 244 L 220 243 L 220 243 L 224 242 L 229 241 L 230 240 L 233 240 L 235 239 L 238 238 L 238 237 L 239 237 L 243 236 L 243 235 L 245 234 L 247 233 L 248 233 L 249 232 L 250 231 L 250 230 L 250 230 L 253 229 L 255 228 L 255 227 L 256 227 L 256 226 L 256 225 L 258 224 L 261 223 L 263 223 L 267 222 L 268 221 L 270 220 L 271 220 L 272 219 L 272 218 L 275 217 L 286 217 L 286 216 L 288 215 L 298 214 L 298 214 L 298 213 L 299 212 L 299 211 L 301 210 L 304 210 L 306 209 L 306 208 L 319 207 L 321 207 L 324 206 L 328 205 L 331 204 L 331 204 L 333 203 L 341 202 L 351 201 L 363 200 L 364 200 L 364 199 L 364 198 L 365 197 L 367 197 L 382 196 L 389 195 L 390 194 L 395 194 L 397 193 L 397 192 L 414 191 L 414 190 L 415 190 L 416 189 L 418 188 L 423 187 L 425 187 L 428 186 L 430 185 L 434 184 L 444 184 L 444 183 L 446 182 L 446 181 L 446 181 L 447 180 L 452 179 L 461 178 L 482 177 L 490 177 L 490 176 L 494 175 L 495 174 L 497 174 L 499 173 L 499 172 L 499 171 L 500 171 L 500 170 L 500 169 L 500 168 L 500 167 L 500 167 L 500 166 L 500 165 L 500 164 L 500 164 L 501 163 L 502 162 L 503 161 L 505 161 L 506 160 L 506 159 L 506 158 L 506 157 L 509 157 L 509 156 L 509 155 L 509 154 L 509 154 L 509 153 L 509 152 L 510 151 L 512 151 L 512 150 L 513 149 L 513 148 L 513 148 L 513 147 L 515 146 L 515 145 L 515 144 L 515 144 L 517 143 L 517 142 L 518 141 L 519 141 L 521 140 L 522 139 L 525 138 L 529 138 L 529 137 L 530 136 L 531 135 L 531 134 L 531 134 L 531 133 L 534 132 L 535 131 L 538 131 L 538 130 L 539 129 L 542 128 L 545 128 L 545 127 L 550 126 L 550 125 L 551 124 L 553 124 L 553 123 L 561 122 L 562 121 L 563 121 L 569 120 L 572 119 L 578 118 L 580 118 L 580 117 L 582 116 L 583 115 L 583 115 L 588 114 L 591 113 L 594 112 L 594 111 L 597 111 L 599 110 L 599 109 L 599 108 L 599 108 L 600 107 L 601 106 L 601 105 L 603 105 L 603 104 L 603 103 L 604 102 L 612 101 L 621 101 L 621 100 L 621 99 L 627 98 L 630 98 L 632 97 L 632 96 L 634 95 L 636 95 L 636 94 L 636 93 L 636 92 L 637 91 L 637 91 L 637 90 L 638 89 L 638 88 L 639 88 L 644 87 L 644 86 L 644 85 L 644 85 L 644 84 L 645 83 L 645 82 L 645 82 L 645 81 L 645 80 L 645 79 L 646 78 L 646 78 L 648 77 L 653 76 L 657 75 L 657 75 L 659 74 L 667 73 L 677 72 L 679 72 L 684 71 L 689 70 L 700 69 L 704 68 L 707 68 L 708 67 L 708 66 L 708 65 L 709 65 L 709 64 L 709 63 L 709 62 L 711 62 L 713 61 L 727 60 L 731 59 L 736 58 L 747 58 L 754 57 L 760 56 L 765 55 L 772 55 L 773 54 L 789 53 L 805 52 L 805 52 L 817 51 L 817 50 L 826 49 L 828 49 L 833 48 L 833 47 L 834 46 L 834 45 L 839 45 L 841 44 L 846 43 L 853 42 L 854 42 L 856 41 L 857 40 L 862 39 L 868 39 L 869 38 L 876 37 L 883 36 L 884 35 L 884 35 L 887 34 L 889 33 L 890 32 L 896 32 L 900 31 L 905 30 L 906 29 L 909 29 L 909 28 L 918 27 L 920 26 L 924 25 L 932 25 L 932 24 L 941 23 L 942 22 L 942 22 L 945 21 L 945 20" /><path stroke-width="2" class="series" d="M 58 345 L 63 344 L 90 343 L 91 342 L 91 342 L 91 341 L 91 340 L 91 339 L 91 339 L 91 338 L 91 337 L 91 336 L 91 336 L 91 335 L 92 334 L 92 333 L 92 332 L 92 332 L 92 331 L 92 330 L 94 329 L 95 329 L 95 328 L 97 327 L 98 326 L 98 326 L 98 325 L 99 324 L 101 323 L 104 322 L 104 322 L 106 321 L 108 320 L 117 319 L 117 319 L 117 318 L 117 317 L 117 316 L 117 316 L 122 315 L 124 314 L 126 313 L 130 313 L 137 312 L 139 311 L 151 310 L 155 309 L 162 309 L 168 308 L 171 307 L 197 306 L 198 306 L 198 305 L 202 304 L 203 303 L 203 303 L 203 302 L 203 301 L 203 300 L 203 299 L 203 299 L 203 298 L 203 297 L 203 296 L 203 296 L 203 295 L 204 294 L 204 293 L 204 293 L 204 292 L 204 291 L 204 290 L 204 289 L 204 289 L 204 288 L 204 287 L 204 286 L 204 286 L 204 285 L 204 284 L 204 283 L 204 283 L 204 282 L 204 281 L 204 280 L 204 280 L 204 279 L 204 278 L 204 277 L 204 276 L 204 276 L 204 275 L 204 274 L 205 273 L 205 273 L 205 272 L 205 271 L 205 270 L 205 270 L 205 269 L 205 268 L 206 267 L 206 266 L 206 266 L 206 265 L 207 264 L 207 263 L 208 263 L 208 262 L 208 261 L 209 260 L 209 260 L 209 259 L 209 258 L 209 257 L 209 256 L 209 256 L 209 255 L 209 254 L 209 253 L 209 253 L 209 252 L 209 251 L 209 250 L 210 250 L 211 249 L 211 248 L 212 247 L 212 247 L 218 246 L 218 245 L 218 244 L 220 243 L 220 243 L 224 242 L 229 241 L 230 240 L 233 240 L 235 239 L 238 238 L 238 237 L 239 237 L 243 236 L 243 235 L 245 234 L 247 233 L 248 233 L 249 232 L 250 231 L 250 230 L 250 230 L 253 229 L 255 228 L 255 227 L 256 227 L 256 226 L 256 225 L 258 224 L 261 223 L 263 223 L 267 222 L 268 221 L 270 220 L 271 220 L 272 219 L 272 218 L 275 217 L 286 217 L 286 216 L 288 215 L 298 214 L 298 214 L 298 213 L 299 212 L 299 211 L 301 210 L 304 210 L 306 209 L 306 208 L 319 207 L 321 207 L 324 206 L 328 205 L 331 204 L 331 204 L 333 203 L 341 202 L 351 201 L 363 200 L 364 200 L 364 199 L 364 198 L 365 197 L 367 197 L 382 196 L 389 195 L 390 194 L 395 194 L 397 193 L 397 192 L 414 191 L 414 190 L 415 190 L 416 189 L 418 188 L 423 187 L 425 187 L 428 186 L 430 185 L 434 184 L 444 184 L 444 183 L 446 182 L 446 181 L 446 181 L 447 180 L 452 179 L 461 178 L 482 177 L 490 177 L 490 176 L 494 175 L 495 174 L 497 174 L 499 173 L 499 172 L 499 171 L 500 171 L 500 170 L 500 169 L 500 168 L 500 167 L 500 167 L 500 166 L 500 165 L 500 164 L 500 164 L 501 163 L 502 162 L 503 161 L 505 161 L 506 160 L 506 159 L 506 158 L 506 157 L 509 157 L 509 156 L 509 155 L 509 154 L 509 154 L 509 153 L 509 152 L 510 151 L 512 151 L 512 150 L 513 149 L 513 148 L 513 148 L 513 147 L 515 146 L 515 145 L 515 144 L 515 144 L 517 143 L 517 142 L 518 141 L 519 141 L 521 140 L 522 139 L 525 138 L 529 138 L 529 137 L 530 136 L 531 135 L 531 134 L 531 134 L 531 133 L 534 132 L 535 131 L 538 131 L 538 130 L 539 129 L 542 128 L 545 128 L 545 127 L 550 126 L 550 125 L 551 124 L 553 124 L 553 123 L 561 122 L 562 121 L 563 121 L 569 120 L 572 119 L 578 118 L 580 118 L 580 117 L 582 116 L 583 115 L 583 115 L 588 114 L 591 113 L 594 112 L 594 111 L 597 111 L 599 110 L 599 109 L 599 108 L 599 108 L 600 107 L 601 106 L 601 105 L 603 105 L 603 104 L 603 103 L 604 102 L 612 101 L 621 101 L 621 100 L 621 99 L 627 98 L 630 98 L 632 97 L 632 96 L 634 95 L 636 95 L 636 94 L 636 93 L 636 92 L 637 91 L 637 91 L 637 90 L 638 89 L 638 88 L 639 88 L 644 87 L 644 86 L 644 85 L 644 85 L 644 84 L 645 83 L 645 82 L 645 82 L 645 81 L 645 80 L 645 79 L 646 78 L 646 78 L 648 77 L 653 76 L 657 75 L 657 75 L 659 74 L 667 73 L 677 72 L 679 72 L 684 71 L 689 70 L 700 69 L 704 68 L 707 68 L 708 67 L 708 66 L 708 65 L 709 65 L 709 64 L 709 63 L 709 62 L 711 62 L 713 61 L 727 60 L 731 59 L 736 58 L 747 58 L 754 57 L 760 56 L 765 55 L 772 55 L 773 54 L 789 53 L 805 52 L 805 52 L 817 51 L 817 50 L 826 49 L 828 49 L 833 48 L 833 47 L 834 46 L 834 45 L 839 45 L 841 44 L 846 43 L 853 42 L 854 42 L 856 41 L 857 40 L 862 39 L 868 39 L 869 38 L 876 37 L 883 36 L 884 35 L 884 35 L 887 34 L 889 33 L 890 32 L 896 32 L 900 31 L 905 30 L 906 29 L 909 29 L 909 28 L 918 27 L 920 26 L 924 25 L 932 25 L 932 24 L 941 23 L 942 22 L 942 22 L 945 21 L 945 20"></path><path stroke-width="2" d="M 945 346 L 945.000000 15.000000" /><path stroke-width="2" d="M 945 346 L 945.000000 15.000000"></path><path stroke-width="2" d="M 945 346 L 950 346" /><path stroke-width="2" d="M 945 346 L 950 346"></path><text xmlns="http://www.w3.org/2000/svg" x="955" y="352">0</text><path stroke-width="2" d="M 945 309 L 950 309" /><path d="M 945 309 L 950 309" stroke-width="2"></path><text xmlns="http://www.w3.org/2000/svg" x="955" y="315">48</text><path stroke-width="2" d="M 945 272 L 950 272" /><path stroke-width="2" d="M 945 272 L 950 272"></path><text xmlns="http://www.w3.org/2000/svg" x="955" y="278">96</text><path stroke-width="2" d="M 945 235 L 950 235" /><path stroke-width="2" d="M 945 235 L 950 235"></path><text xmlns="http://www.w3.org/2000/svg" x="955" y="241">144</text><path stroke-width="2" d="M 945 198 L 950 198" /><path d="M 945 198 L 950 198" stroke-width="2"></path><text x="955" y="204" xmlns="http://www.w3.org/2000/svg">192</text><path d="M 945 162 L 950 162" stroke-width="2" /><path stroke-width="2" d="M 945 162 L 950 162"></path><text xmlns="http://www.w3.org/2000/svg" x="955" y="168">239</text><path stroke-width="2" d="M 945 125 L 950 125" /><path stroke-width="2" d="M 945 125 L 950 125"></path><text x="955" y="131" xmlns="http://www.w3.org/2000/svg">287</text><path stroke-width="2" d="M 945 88 L 950 88" /><path stroke-width="2" d="M 945 88 L 950 88"></path><text xmlns="http://www.w3.org/2000/svg" x="955" y="94">335</text><path stroke-width="2" d="M 945 52 L 950 52" /><path stroke-width="2" d="M 945 52 L 950 52"></path><text x="955" y="58" xmlns="http://www.w3.org/2000/svg">383</text><path stroke-width="2" d="M 945 16 L 950 16" /><path stroke-width="2" d="M 945 16 L 950 16"></path><text xmlns="http://www.w3.org/2000/svg" x="955" y="22">430</text><text transform="rotate(90.00,987,175)" xmlns="http://www.w3.org/2000/svg" x="987" y="175">Stargazers</text><path stroke-width="2" d="M 57.000000 346.000000 L 945 346" /><path stroke-width="2" d="M 57.000000 346.000000 L 945 346"></path><path stroke-width="2" d="M 58 346 L 58 351" /><path stroke-width="2" d="M 58 346 L 58 351"></path><text xmlns="http://www.w3.org/2000/svg" x="25" y="368">2023-04-02</text><path stroke-width="2" d="M 157 346 L 157 351" /><path stroke-width="2" d="M 157 346 L 157 351"></path><text xmlns="http://www.w3.org/2000/svg" x="124" y="368">2023-05-16</text><path stroke-width="2" d="M 256 346 L 256 351" /><path stroke-width="2" d="M 256 346 L 256 351"></path><text xmlns="http://www.w3.org/2000/svg" x="223" y="368">2023-06-29</text><path stroke-width="2" d="M 354 346 L 354 351" /><path stroke-width="2" d="M 354 346 L 354 351"></path><text xmlns="http://www.w3.org/2000/svg" x="321" y="368">2023-08-11</text><path stroke-width="2" d="M 453 346 L 453 351" /><path stroke-width="2" d="M 453 346 L 453 351"></path><text xmlns="http://www.w3.org/2000/svg" x="420" y="368">2023-09-24</text><path stroke-width="2" d="M 551 346 L 551 351" /><path stroke-width="2" d="M 551 346 L 551 351"></path><text x="518" y="368" xmlns="http://www.w3.org/2000/svg">2023-11-07</text><path stroke-width="2" d="M 650 346 L 650 351" /><path stroke-width="2" d="M 650 346 L 650 351"></path><text xmlns="http://www.w3.org/2000/svg" x="617" y="368">2023-12-21</text><path stroke-width="2" d="M 748 346 L 748 351" /><path d="M 748 346 L 748 351" stroke-width="2"></path><text xmlns="http://www.w3.org/2000/svg" x="715" y="368">2024-02-03</text><path stroke-width="2" d="M 847 346 L 847 351" /><path stroke-width="2" d="M 847 346 L 847 351"></path><text x="814" y="368" xmlns="http://www.w3.org/2000/svg">2024-03-17</text><path stroke-width="2" d="M 945 346 L 945 351" /><path stroke-width="2" d="M 945 346 L 945 351"></path><text xmlns="http://www.w3.org/2000/svg" x="912" y="368">2024-04-30</text><text x="487" y="390" xmlns="http://www.w3.org/2000/svg">Time</text></svg>