<svg xmlns="http://www.w3.org/2000/svg" xmlns:xlink="http://www.w3.org/1999/xlink" width="1024px" height="400px"><style type="text/css">
path { fill: none; stroke: rgb(51,51,51); }
path.series { stroke: #6b63ff; }
rect.background { fill: rgb(255,255,255); stroke: none; }

text {
	stroke-width: 0;
	stroke: none;
	fill: rgba(51,51,51,1.0);
	font-size: 12.8px;
	font-family: 'Roboto Medium', sans-serif;
}
</style><rect class="background" rx="8" x="0" y="0" width="1024px" height="400px" /><rect width="1024px" height="400px" class="background" rx="8" x="0" y="0"></rect><path stroke-width="2" class="series" d="M 58 345 L 62 344 L 88 343 L 89 343 L 89 342 L 89 341 L 89 340 L 89 340 L 89 339 L 89 338 L 90 337 L 90 337 L 90 336 L 90 335 L 90 334 L 90 334 L 90 333 L 91 332 L 91 331 L 92 331 L 93 330 L 93 329 L 95 328 L 97 328 L 97 327 L 97 326 L 97 325 L 99 325 L 102 324 L 102 323 L 104 322 L 106 322 L 114 321 L 114 320 L 114 319 L 114 319 L 114 318 L 115 317 L 119 316 L 121 316 L 123 315 L 127 314 L 133 313 L 136 313 L 147 312 L 151 311 L 157 310 L 164 310 L 167 309 L 191 308 L 193 307 L 193 307 L 196 306 L 197 305 L 197 304 L 197 304 L 197 303 L 197 302 L 197 301 L 197 301 L 197 300 L 197 299 L 197 298 L 197 298 L 197 297 L 198 296 L 198 295 L 198 295 L 198 294 L 198 293 L 198 292 L 198 292 L 198 291 L 198 290 L 198 289 L 198 289 L 198 288 L 198 287 L 198 286 L 198 286 L 198 285 L 198 284 L 198 283 L 198 283 L 198 282 L 198 281 L 198 280 L 198 280 L 198 279 L 198 278 L 198 277 L 198 277 L 199 276 L 199 275 L 199 274 L 199 274 L 199 273 L 199 272 L 199 271 L 199 271 L 199 270 L 200 269 L 200 268 L 200 268 L 201 267 L 201 266 L 202 265 L 202 265 L 202 264 L 202 263 L 202 262 L 202 262 L 202 261 L 202 260 L 202 259 L 202 259 L 202 258 L 202 257 L 202 256 L 202 256 L 202 255 L 203 254 L 203 253 L 203 253 L 205 252 L 205 251 L 205 250 L 205 250 L 211 249 L 211 248 L 212 247 L 214 247 L 214 246 L 218 245 L 222 244 L 223 244 L 226 243 L 228 242 L 230 241 L 231 241 L 232 240 L 236 239 L 236 238 L 237 238 L 239 237 L 240 236 L 242 235 L 242 235 L 242 234 L 243 233 L 245 232 L 247 232 L 247 231 L 248 230 L 248 229 L 248 229 L 250 228 L 253 227 L 255 226 L 258 226 L 260 225 L 261 224 L 263 223 L 263 223 L 263 222 L 266 221 L 276 220 L 277 220 L 278 219 L 288 218 L 289 217 L 289 217 L 289 216 L 289 215 L 291 214 L 294 214 L 296 213 L 296 212 L 308 211 L 311 211 L 313 210 L 317 209 L 320 208 L 320 208 L 321 207 L 330 206 L 339 205 L 350 205 L 351 204 L 351 203 L 352 202 L 352 202 L 354 201 L 369 200 L 376 199 L 376 199 L 381 198 L 383 197 L 384 196 L 400 196 L 400 195 L 401 194 L 401 193 L 403 193 L 408 192 L 410 191 L 413 190 L 415 190 L 419 189 L 428 188 L 428 187 L 430 187 L 430 186 L 430 185 L 431 184 L 436 184 L 445 183 L 465 182 L 472 181 L 473 181 L 476 180 L 477 179 L 479 178 L 481 178 L 481 177 L 481 176 L 481 175 L 481 175 L 481 174 L 481 173 L 482 172 L 482 172 L 482 171 L 482 170 L 482 169 L 482 169 L 483 168 L 483 167 L 485 166 L 486 166 L 487 165 L 487 164 L 488 163 L 488 163 L 490 162 L 490 161 L 490 160 L 490 160 L 490 159 L 490 158 L 490 157 L 492 157 L 493 156 L 494 155 L 494 154 L 494 154 L 494 153 L 495 152 L 496 151 L 496 151 L 496 150 L 497 149 L 498 148 L 499 148 L 499 147 L 500 146 L 502 145 L 503 145 L 506 144 L 510 143 L 510 142 L 511 142 L 511 141 L 511 140 L 511 139 L 512 139 L 514 138 L 515 137 L 518 136 L 518 136 L 520 135 L 523 134 L 525 133 L 525 132 L 529 132 L 530 131 L 531 130 L 532 130 L 532 129 L 540 128 L 541 127 L 542 126 L 548 126 L 551 125 L 557 124 L 558 124 L 559 123 L 561 122 L 561 121 L 561 121 L 566 120 L 569 119 L 572 118 L 572 118 L 575 117 L 577 116 L 577 115 L 577 115 L 577 114 L 578 113 L 578 112 L 578 112 L 580 111 L 580 110 L 581 109 L 582 109 L 589 108 L 598 107 L 598 106 L 598 106 L 604 105 L 607 104 L 608 103 L 609 103 L 611 102 L 613 101 L 613 100 L 613 100 L 613 99 L 613 98 L 613 97 L 613 97 L 614 96 L 614 95 L 616 94 L 620 94 L 620 93 L 620 92 L 620 91 L 620 91 L 621 90 L 621 89 L 621 88 L 621 88 L 621 87 L 621 86 L 621 85 L 622 85 L 628 84 L 632 83 L 632 82 L 634 82 L 642 81 L 652 80 L 653 79 L 659 79 L 663 78 L 674 77 L 677 76 L 681 76 L 681 75 L 681 74 L 681 73 L 682 73 L 682 72 L 682 71 L 682 70 L 684 70 L 686 69 L 699 68 L 703 67 L 708 67 L 718 66 L 726 65 L 731 64 L 736 64 L 743 63 L 743 62 L 759 61 L 774 61 L 775 60 L 785 59 L 786 58 L 795 58 L 796 57 L 801 56 L 801 55 L 802 55 L 802 54 L 807 53 L 809 52 L 814 52 L 820 51 L 821 50 L 823 49 L 824 49 L 829 48 L 835 47 L 835 46 L 842 46 L 849 45 L 850 44 L 850 43 L 853 43 L 854 42 L 856 41 L 861 40 L 866 40 L 870 39 L 871 38 L 874 37 L 874 37 L 883 36 L 884 35 L 889 34 L 896 34 L 896 33 L 905 32 L 906 31 L 906 31 L 908 30 L 909 29 L 913 28 L 913 28 L 917 27 L 922 26 L 923 25 L 924 25 L 924 24 L 937 23 L 937 22 L 938 22 L 938 21 L 939 20 L 940 19 L 941 19 L 941 18 L 942 17 L 945 16 L 945 16" /><path stroke-width="2" class="series" d="M 58 345 L 62 344 L 88 343 L 89 343 L 89 342 L 89 341 L 89 340 L 89 340 L 89 339 L 89 338 L 90 337 L 90 337 L 90 336 L 90 335 L 90 334 L 90 334 L 90 333 L 91 332 L 91 331 L 92 331 L 93 330 L 93 329 L 95 328 L 97 328 L 97 327 L 97 326 L 97 325 L 99 325 L 102 324 L 102 323 L 104 322 L 106 322 L 114 321 L 114 320 L 114 319 L 114 319 L 114 318 L 115 317 L 119 316 L 121 316 L 123 315 L 127 314 L 133 313 L 136 313 L 147 312 L 151 311 L 157 310 L 164 310 L 167 309 L 191 308 L 193 307 L 193 307 L 196 306 L 197 305 L 197 304 L 197 304 L 197 303 L 197 302 L 197 301 L 197 301 L 197 300 L 197 299 L 197 298 L 197 298 L 197 297 L 198 296 L 198 295 L 198 295 L 198 294 L 198 293 L 198 292 L 198 292 L 198 291 L 198 290 L 198 289 L 198 289 L 198 288 L 198 287 L 198 286 L 198 286 L 198 285 L 198 284 L 198 283 L 198 283 L 198 282 L 198 281 L 198 280 L 198 280 L 198 279 L 198 278 L 198 277 L 198 277 L 199 276 L 199 275 L 199 274 L 199 274 L 199 273 L 199 272 L 199 271 L 199 271 L 199 270 L 200 269 L 200 268 L 200 268 L 201 267 L 201 266 L 202 265 L 202 265 L 202 264 L 202 263 L 202 262 L 202 262 L 202 261 L 202 260 L 202 259 L 202 259 L 202 258 L 202 257 L 202 256 L 202 256 L 202 255 L 203 254 L 203 253 L 203 253 L 205 252 L 205 251 L 205 250 L 205 250 L 211 249 L 211 248 L 212 247 L 214 247 L 214 246 L 218 245 L 222 244 L 223 244 L 226 243 L 228 242 L 230 241 L 231 241 L 232 240 L 236 239 L 236 238 L 237 238 L 239 237 L 240 236 L 242 235 L 242 235 L 242 234 L 243 233 L 245 232 L 247 232 L 247 231 L 248 230 L 248 229 L 248 229 L 250 228 L 253 227 L 255 226 L 258 226 L 260 225 L 261 224 L 263 223 L 263 223 L 263 222 L 266 221 L 276 220 L 277 220 L 278 219 L 288 218 L 289 217 L 289 217 L 289 216 L 289 215 L 291 214 L 294 214 L 296 213 L 296 212 L 308 211 L 311 211 L 313 210 L 317 209 L 320 208 L 320 208 L 321 207 L 330 206 L 339 205 L 350 205 L 351 204 L 351 203 L 352 202 L 352 202 L 354 201 L 369 200 L 376 199 L 376 199 L 381 198 L 383 197 L 384 196 L 400 196 L 400 195 L 401 194 L 401 193 L 403 193 L 408 192 L 410 191 L 413 190 L 415 190 L 419 189 L 428 188 L 428 187 L 430 187 L 430 186 L 430 185 L 431 184 L 436 184 L 445 183 L 465 182 L 472 181 L 473 181 L 476 180 L 477 179 L 479 178 L 481 178 L 481 177 L 481 176 L 481 175 L 481 175 L 481 174 L 481 173 L 482 172 L 482 172 L 482 171 L 482 170 L 482 169 L 482 169 L 483 168 L 483 167 L 485 166 L 486 166 L 487 165 L 487 164 L 488 163 L 488 163 L 490 162 L 490 161 L 490 160 L 490 160 L 490 159 L 490 158 L 490 157 L 492 157 L 493 156 L 494 155 L 494 154 L 494 154 L 494 153 L 495 152 L 496 151 L 496 151 L 496 150 L 497 149 L 498 148 L 499 148 L 499 147 L 500 146 L 502 145 L 503 145 L 506 144 L 510 143 L 510 142 L 511 142 L 511 141 L 511 140 L 511 139 L 512 139 L 514 138 L 515 137 L 518 136 L 518 136 L 520 135 L 523 134 L 525 133 L 525 132 L 529 132 L 530 131 L 531 130 L 532 130 L 532 129 L 540 128 L 541 127 L 542 126 L 548 126 L 551 125 L 557 124 L 558 124 L 559 123 L 561 122 L 561 121 L 561 121 L 566 120 L 569 119 L 572 118 L 572 118 L 575 117 L 577 116 L 577 115 L 577 115 L 577 114 L 578 113 L 578 112 L 578 112 L 580 111 L 580 110 L 581 109 L 582 109 L 589 108 L 598 107 L 598 106 L 598 106 L 604 105 L 607 104 L 608 103 L 609 103 L 611 102 L 613 101 L 613 100 L 613 100 L 613 99 L 613 98 L 613 97 L 613 97 L 614 96 L 614 95 L 616 94 L 620 94 L 620 93 L 620 92 L 620 91 L 620 91 L 621 90 L 621 89 L 621 88 L 621 88 L 621 87 L 621 86 L 621 85 L 622 85 L 628 84 L 632 83 L 632 82 L 634 82 L 642 81 L 652 80 L 653 79 L 659 79 L 663 78 L 674 77 L 677 76 L 681 76 L 681 75 L 681 74 L 681 73 L 682 73 L 682 72 L 682 71 L 682 70 L 684 70 L 686 69 L 699 68 L 703 67 L 708 67 L 718 66 L 726 65 L 731 64 L 736 64 L 743 63 L 743 62 L 759 61 L 774 61 L 775 60 L 785 59 L 786 58 L 795 58 L 796 57 L 801 56 L 801 55 L 802 55 L 802 54 L 807 53 L 809 52 L 814 52 L 820 51 L 821 50 L 823 49 L 824 49 L 829 48 L 835 47 L 835 46 L 842 46 L 849 45 L 850 44 L 850 43 L 853 43 L 854 42 L 856 41 L 861 40 L 866 40 L 870 39 L 871 38 L 874 37 L 874 37 L 883 36 L 884 35 L 889 34 L 896 34 L 896 33 L 905 32 L 906 31 L 906 31 L 908 30 L 909 29 L 913 28 L 913 28 L 917 27 L 922 26 L 923 25 L 924 25 L 924 24 L 937 23 L 937 22 L 938 22 L 938 21 L 939 20 L 940 19 L 941 19 L 941 18 L 942 17 L 945 16 L 945 16"></path><path stroke-width="2" d="M 945 346 L 945.000000 15.000000" /><path d="M 945 346 L 945.000000 15.000000" stroke-width="2"></path><path stroke-width="2" d="M 945 346 L 950 346" /><path stroke-width="2" d="M 945 346 L 950 346"></path><text x="955" y="352" xmlns="http://www.w3.org/2000/svg">0</text><path stroke-width="2" d="M 945 309 L 950 309" /><path d="M 945 309 L 950 309" stroke-width="2"></path><text xmlns="http://www.w3.org/2000/svg" x="955" y="315">49</text><path d="M 945 272 L 950 272" stroke-width="2" /><path stroke-width="2" d="M 945 272 L 950 272"></path><text xmlns="http://www.w3.org/2000/svg" x="955" y="278">98</text><path stroke-width="2" d="M 945 235 L 950 235" /><path d="M 945 235 L 950 235" stroke-width="2"></path><text xmlns="http://www.w3.org/2000/svg" x="955" y="241">147</text><path stroke-width="2" d="M 945 199 L 950 199" /><path stroke-width="2" d="M 945 199 L 950 199"></path><text xmlns="http://www.w3.org/2000/svg" x="955" y="205">196</text><path stroke-width="2" d="M 945 162 L 950 162" /><path stroke-width="2" d="M 945 162 L 950 162"></path><text xmlns="http://www.w3.org/2000/svg" x="955" y="168">245</text><path d="M 945 125 L 950 125" stroke-width="2" /><path stroke-width="2" d="M 945 125 L 950 125"></path><text xmlns="http://www.w3.org/2000/svg" x="955" y="131">294</text><path stroke-width="2" d="M 945 88 L 950 88" /><path stroke-width="2" d="M 945 88 L 950 88"></path><text x="955" y="94" xmlns="http://www.w3.org/2000/svg">343</text><path stroke-width="2" d="M 945 52 L 950 52" /><path d="M 945 52 L 950 52" stroke-width="2"></path><text xmlns="http://www.w3.org/2000/svg" x="955" y="58">392</text><path stroke-width="2" d="M 945 16 L 950 16" /><path d="M 945 16 L 950 16" stroke-width="2"></path><text xmlns="http://www.w3.org/2000/svg" x="955" y="22">440</text><text xmlns="http://www.w3.org/2000/svg" x="987" y="175" transform="rotate(90.00,987,175)">Stargazers</text><path stroke-width="2" d="M 57.000000 346.000000 L 945 346" /><path stroke-width="2" d="M 57.000000 346.000000 L 945 346"></path><path stroke-width="2" d="M 58 346 L 58 351" /><path d="M 58 346 L 58 351" stroke-width="2"></path><text y="368" xmlns="http://www.w3.org/2000/svg" x="25">2023-04-02</text><path stroke-width="2" d="M 157 346 L 157 351" /><path stroke-width="2" d="M 157 346 L 157 351"></path><text y="368" xmlns="http://www.w3.org/2000/svg" x="124">2023-05-18</text><path stroke-width="2" d="M 256 346 L 256 351" /><path stroke-width="2" d="M 256 346 L 256 351"></path><text xmlns="http://www.w3.org/2000/svg" x="223" y="368">2023-07-02</text><path stroke-width="2" d="M 354 346 L 354 351" /><path stroke-width="2" d="M 354 346 L 354 351"></path><text xmlns="http://www.w3.org/2000/svg" x="321" y="368">2023-08-17</text><path stroke-width="2" d="M 453 346 L 453 351" /><path stroke-width="2" d="M 453 346 L 453 351"></path><text xmlns="http://www.w3.org/2000/svg" x="420" y="368">2023-10-02</text><path stroke-width="2" d="M 551 346 L 551 351" /><path stroke-width="2" d="M 551 346 L 551 351"></path><text xmlns="http://www.w3.org/2000/svg" x="518" y="368">2023-11-16</text><path stroke-width="2" d="M 650 346 L 650 351" /><path stroke-width="2" d="M 650 346 L 650 351"></path><text xmlns="http://www.w3.org/2000/svg" x="617" y="368">2024-01-01</text><path stroke-width="2" d="M 748 346 L 748 351" /><path stroke-width="2" d="M 748 346 L 748 351"></path><text y="368" xmlns="http://www.w3.org/2000/svg" x="715">2024-02-16</text><path d="M 847 346 L 847 351" stroke-width="2" /><path stroke-width="2" d="M 847 346 L 847 351"></path><text xmlns="http://www.w3.org/2000/svg" x="814" y="368">2024-04-01</text><path d="M 945 346 L 945 351" stroke-width="2" /><path stroke-width="2" d="M 945 346 L 945 351"></path><text x="912" y="368" xmlns="http://www.w3.org/2000/svg">2024-05-17</text><text xmlns="http://www.w3.org/2000/svg" x="487" y="390">Time</text></svg>