<svg xmlns="http://www.w3.org/2000/svg" xmlns:xlink="http://www.w3.org/1999/xlink" width="1024px" height="400px"><style type="text/css">
path { fill: none; stroke: rgb(51,51,51); }
path.series { stroke: #6b63ff; }
rect.background { fill: rgb(255,255,255); stroke: none; }

text {
	stroke-width: 0;
	stroke: none;
	fill: rgba(51,51,51,1.0);
	font-size: 12.8px;
	font-family: 'Roboto Medium', sans-serif;
}
</style><rect y="0" width="1024px" height="400px" class="background" rx="8" x="0" /><rect x="0" y="0" width="1024px" height="400px" class="background" rx="8"></rect><path stroke-width="2" class="series" d="M 58 345 L 62 344 L 87 343 L 88 343 L 88 342 L 88 341 L 88 341 L 88 340 L 88 339 L 88 339 L 88 338 L 88 337 L 89 337 L 89 336 L 89 335 L 89 335 L 89 334 L 89 333 L 89 332 L 91 332 L 91 331 L 92 330 L 93 330 L 95 329 L 95 328 L 95 328 L 96 327 L 97 326 L 100 326 L 100 325 L 102 324 L 104 324 L 112 323 L 112 322 L 112 321 L 112 321 L 112 320 L 112 319 L 116 319 L 118 318 L 120 317 L 123 317 L 130 316 L 132 315 L 143 315 L 147 314 L 153 313 L 159 313 L 162 312 L 185 311 L 186 310 L 186 310 L 189 309 L 190 308 L 190 308 L 190 307 L 190 306 L 190 306 L 190 305 L 190 304 L 190 304 L 190 303 L 190 302 L 190 302 L 191 301 L 191 300 L 191 299 L 191 299 L 191 298 L 191 297 L 191 297 L 191 296 L 191 295 L 191 295 L 191 294 L 191 293 L 191 293 L 191 292 L 191 291 L 191 291 L 191 290 L 191 289 L 192 288 L 192 288 L 192 287 L 192 286 L 192 286 L 192 285 L 192 284 L 192 284 L 192 283 L 192 282 L 192 282 L 192 281 L 192 280 L 192 280 L 192 279 L 192 278 L 192 277 L 192 277 L 193 276 L 193 275 L 193 275 L 193 274 L 194 273 L 194 273 L 195 272 L 195 271 L 195 271 L 195 270 L 195 269 L 195 269 L 195 268 L 195 267 L 195 266 L 195 266 L 195 265 L 195 264 L 195 264 L 195 263 L 195 262 L 196 262 L 196 261 L 196 260 L 198 260 L 198 259 L 198 258 L 198 258 L 204 257 L 204 256 L 204 255 L 206 255 L 206 254 L 210 253 L 214 253 L 215 252 L 218 251 L 219 251 L 222 250 L 223 249 L 223 249 L 227 248 L 227 247 L 229 247 L 230 246 L 231 245 L 233 244 L 233 244 L 233 243 L 234 242 L 236 242 L 237 241 L 237 240 L 238 240 L 239 239 L 239 238 L 240 238 L 243 237 L 245 236 L 249 236 L 250 235 L 251 234 L 253 233 L 253 233 L 253 232 L 256 231 L 266 231 L 266 230 L 268 229 L 277 229 L 277 228 L 277 227 L 278 227 L 278 226 L 279 225 L 282 225 L 284 224 L 285 223 L 296 222 L 298 222 L 301 221 L 305 220 L 307 220 L 307 219 L 309 218 L 317 218 L 326 217 L 336 216 L 337 216 L 337 215 L 337 214 L 338 214 L 340 213 L 354 212 L 360 211 L 361 211 L 366 210 L 367 209 L 368 209 L 383 208 L 383 207 L 384 207 L 385 206 L 387 205 L 391 205 L 393 204 L 396 203 L 398 203 L 401 202 L 410 201 L 410 200 L 412 200 L 412 199 L 412 198 L 413 198 L 417 197 L 426 196 L 445 196 L 452 195 L 456 194 L 457 194 L 459 193 L 461 192 L 461 192 L 461 191 L 461 190 L 461 189 L 461 189 L 461 188 L 461 187 L 461 187 L 461 186 L 462 185 L 462 185 L 462 184 L 462 183 L 463 183 L 464 182 L 466 181 L 466 181 L 467 180 L 467 179 L 467 178 L 469 178 L 469 177 L 469 176 L 469 176 L 469 175 L 469 174 L 469 174 L 471 173 L 472 172 L 473 172 L 473 171 L 473 170 L 473 170 L 473 169 L 475 168 L 475 167 L 475 167 L 475 166 L 477 165 L 477 165 L 478 164 L 479 163 L 481 163 L 482 162 L 484 161 L 488 161 L 488 160 L 489 159 L 489 159 L 489 158 L 489 157 L 490 156 L 492 156 L 493 155 L 496 154 L 496 154 L 497 153 L 500 152 L 502 152 L 503 151 L 507 150 L 507 150 L 508 149 L 509 148 L 509 148 L 517 147 L 518 146 L 519 145 L 524 145 L 527 144 L 533 143 L 534 143 L 535 142 L 536 141 L 537 141 L 537 140 L 541 139 L 545 139 L 547 138 L 548 137 L 550 137 L 551 136 L 552 135 L 552 134 L 552 134 L 553 133 L 553 132 L 553 132 L 555 131 L 555 130 L 555 130 L 557 129 L 564 128 L 572 128 L 572 127 L 572 126 L 577 126 L 580 125 L 581 124 L 582 123 L 584 123 L 586 122 L 586 121 L 586 121 L 586 120 L 586 119 L 586 119 L 587 118 L 587 117 L 587 117 L 589 116 L 592 115 L 592 115 L 592 114 L 593 113 L 593 112 L 594 112 L 594 111 L 594 110 L 594 110 L 594 109 L 594 108 L 594 108 L 594 107 L 601 106 L 605 106 L 605 105 L 606 104 L 614 104 L 623 103 L 625 102 L 630 101 L 634 101 L 644 100 L 647 99 L 651 99 L 651 98 L 651 97 L 651 97 L 652 96 L 652 95 L 652 95 L 652 94 L 654 93 L 656 92 L 668 92 L 672 91 L 676 90 L 686 90 L 693 89 L 699 88 L 703 88 L 710 87 L 710 86 L 725 86 L 740 85 L 740 84 L 750 84 L 751 83 L 759 82 L 761 82 L 765 81 L 765 80 L 766 79 L 766 79 L 771 78 L 773 77 L 777 77 L 783 76 L 784 75 L 786 75 L 787 74 L 792 73 L 798 73 L 798 72 L 804 71 L 810 71 L 812 70 L 812 69 L 814 68 L 816 68 L 817 67 L 822 66 L 827 66 L 831 65 L 834 64 L 835 64 L 843 63 L 844 62 L 848 62 L 855 61 L 856 60 L 864 60 L 865 59 L 865 58 L 867 57 L 868 57 L 871 56 L 872 55 L 875 55 L 880 54 L 881 53 L 882 53 L 882 52 L 894 51 L 894 51 L 895 50 L 896 49 L 896 49 L 898 48 L 898 47 L 899 46 L 899 46 L 902 45 L 902 44 L 905 44 L 906 43 L 907 42 L 908 42 L 909 41 L 909 40 L 910 40 L 911 39 L 911 38 L 912 38 L 912 37 L 912 36 L 913 35 L 914 35 L 917 34 L 917 33 L 917 33 L 919 32 L 919 31 L 921 31 L 923 30 L 924 29 L 925 29 L 927 28 L 929 27 L 929 27 L 930 26 L 931 25 L 934 24 L 934 24 L 934 23 L 935 22 L 935 22 L 935 21 L 936 20 L 936 20 L 937 19 L 939 18 L 944 18 L 945 17" /><path stroke-width="2" class="series" d="M 58 345 L 62 344 L 87 343 L 88 343 L 88 342 L 88 341 L 88 341 L 88 340 L 88 339 L 88 339 L 88 338 L 88 337 L 89 337 L 89 336 L 89 335 L 89 335 L 89 334 L 89 333 L 89 332 L 91 332 L 91 331 L 92 330 L 93 330 L 95 329 L 95 328 L 95 328 L 96 327 L 97 326 L 100 326 L 100 325 L 102 324 L 104 324 L 112 323 L 112 322 L 112 321 L 112 321 L 112 320 L 112 319 L 116 319 L 118 318 L 120 317 L 123 317 L 130 316 L 132 315 L 143 315 L 147 314 L 153 313 L 159 313 L 162 312 L 185 311 L 186 310 L 186 310 L 189 309 L 190 308 L 190 308 L 190 307 L 190 306 L 190 306 L 190 305 L 190 304 L 190 304 L 190 303 L 190 302 L 190 302 L 191 301 L 191 300 L 191 299 L 191 299 L 191 298 L 191 297 L 191 297 L 191 296 L 191 295 L 191 295 L 191 294 L 191 293 L 191 293 L 191 292 L 191 291 L 191 291 L 191 290 L 191 289 L 192 288 L 192 288 L 192 287 L 192 286 L 192 286 L 192 285 L 192 284 L 192 284 L 192 283 L 192 282 L 192 282 L 192 281 L 192 280 L 192 280 L 192 279 L 192 278 L 192 277 L 192 277 L 193 276 L 193 275 L 193 275 L 193 274 L 194 273 L 194 273 L 195 272 L 195 271 L 195 271 L 195 270 L 195 269 L 195 269 L 195 268 L 195 267 L 195 266 L 195 266 L 195 265 L 195 264 L 195 264 L 195 263 L 195 262 L 196 262 L 196 261 L 196 260 L 198 260 L 198 259 L 198 258 L 198 258 L 204 257 L 204 256 L 204 255 L 206 255 L 206 254 L 210 253 L 214 253 L 215 252 L 218 251 L 219 251 L 222 250 L 223 249 L 223 249 L 227 248 L 227 247 L 229 247 L 230 246 L 231 245 L 233 244 L 233 244 L 233 243 L 234 242 L 236 242 L 237 241 L 237 240 L 238 240 L 239 239 L 239 238 L 240 238 L 243 237 L 245 236 L 249 236 L 250 235 L 251 234 L 253 233 L 253 233 L 253 232 L 256 231 L 266 231 L 266 230 L 268 229 L 277 229 L 277 228 L 277 227 L 278 227 L 278 226 L 279 225 L 282 225 L 284 224 L 285 223 L 296 222 L 298 222 L 301 221 L 305 220 L 307 220 L 307 219 L 309 218 L 317 218 L 326 217 L 336 216 L 337 216 L 337 215 L 337 214 L 338 214 L 340 213 L 354 212 L 360 211 L 361 211 L 366 210 L 367 209 L 368 209 L 383 208 L 383 207 L 384 207 L 385 206 L 387 205 L 391 205 L 393 204 L 396 203 L 398 203 L 401 202 L 410 201 L 410 200 L 412 200 L 412 199 L 412 198 L 413 198 L 417 197 L 426 196 L 445 196 L 452 195 L 456 194 L 457 194 L 459 193 L 461 192 L 461 192 L 461 191 L 461 190 L 461 189 L 461 189 L 461 188 L 461 187 L 461 187 L 461 186 L 462 185 L 462 185 L 462 184 L 462 183 L 463 183 L 464 182 L 466 181 L 466 181 L 467 180 L 467 179 L 467 178 L 469 178 L 469 177 L 469 176 L 469 176 L 469 175 L 469 174 L 469 174 L 471 173 L 472 172 L 473 172 L 473 171 L 473 170 L 473 170 L 473 169 L 475 168 L 475 167 L 475 167 L 475 166 L 477 165 L 477 165 L 478 164 L 479 163 L 481 163 L 482 162 L 484 161 L 488 161 L 488 160 L 489 159 L 489 159 L 489 158 L 489 157 L 490 156 L 492 156 L 493 155 L 496 154 L 496 154 L 497 153 L 500 152 L 502 152 L 503 151 L 507 150 L 507 150 L 508 149 L 509 148 L 509 148 L 517 147 L 518 146 L 519 145 L 524 145 L 527 144 L 533 143 L 534 143 L 535 142 L 536 141 L 537 141 L 537 140 L 541 139 L 545 139 L 547 138 L 548 137 L 550 137 L 551 136 L 552 135 L 552 134 L 552 134 L 553 133 L 553 132 L 553 132 L 555 131 L 555 130 L 555 130 L 557 129 L 564 128 L 572 128 L 572 127 L 572 126 L 577 126 L 580 125 L 581 124 L 582 123 L 584 123 L 586 122 L 586 121 L 586 121 L 586 120 L 586 119 L 586 119 L 587 118 L 587 117 L 587 117 L 589 116 L 592 115 L 592 115 L 592 114 L 593 113 L 593 112 L 594 112 L 594 111 L 594 110 L 594 110 L 594 109 L 594 108 L 594 108 L 594 107 L 601 106 L 605 106 L 605 105 L 606 104 L 614 104 L 623 103 L 625 102 L 630 101 L 634 101 L 644 100 L 647 99 L 651 99 L 651 98 L 651 97 L 651 97 L 652 96 L 652 95 L 652 95 L 652 94 L 654 93 L 656 92 L 668 92 L 672 91 L 676 90 L 686 90 L 693 89 L 699 88 L 703 88 L 710 87 L 710 86 L 725 86 L 740 85 L 740 84 L 750 84 L 751 83 L 759 82 L 761 82 L 765 81 L 765 80 L 766 79 L 766 79 L 771 78 L 773 77 L 777 77 L 783 76 L 784 75 L 786 75 L 787 74 L 792 73 L 798 73 L 798 72 L 804 71 L 810 71 L 812 70 L 812 69 L 814 68 L 816 68 L 817 67 L 822 66 L 827 66 L 831 65 L 834 64 L 835 64 L 843 63 L 844 62 L 848 62 L 855 61 L 856 60 L 864 60 L 865 59 L 865 58 L 867 57 L 868 57 L 871 56 L 872 55 L 875 55 L 880 54 L 881 53 L 882 53 L 882 52 L 894 51 L 894 51 L 895 50 L 896 49 L 896 49 L 898 48 L 898 47 L 899 46 L 899 46 L 902 45 L 902 44 L 905 44 L 906 43 L 907 42 L 908 42 L 909 41 L 909 40 L 910 40 L 911 39 L 911 38 L 912 38 L 912 37 L 912 36 L 913 35 L 914 35 L 917 34 L 917 33 L 917 33 L 919 32 L 919 31 L 921 31 L 923 30 L 924 29 L 925 29 L 927 28 L 929 27 L 929 27 L 930 26 L 931 25 L 934 24 L 934 24 L 934 23 L 935 22 L 935 22 L 935 21 L 936 20 L 936 20 L 937 19 L 939 18 L 944 18 L 945 17"></path><path stroke-width="2" d="M 945 346 L 945.000000 15.000000" /><path stroke-width="2" d="M 945 346 L 945.000000 15.000000"></path><path stroke-width="2" d="M 945 346 L 950 346" /><path d="M 945 346 L 950 346" stroke-width="2"></path><text xmlns="http://www.w3.org/2000/svg" x="955" y="352">0</text><path stroke-width="2" d="M 945 308 L 950 308" /><path stroke-width="2" d="M 945 308 L 950 308"></path><text xmlns="http://www.w3.org/2000/svg" x="955" y="314">54</text><path stroke-width="2" d="M 945 272 L 950 272" /><path stroke-width="2" d="M 945 272 L 950 272"></path><text xmlns="http://www.w3.org/2000/svg" x="955" y="278">107</text><path stroke-width="2" d="M 945 236 L 950 236" /><path stroke-width="2" d="M 945 236 L 950 236"></path><text xmlns="http://www.w3.org/2000/svg" x="955" y="242">160</text><path stroke-width="2" d="M 945 198 L 950 198" /><path stroke-width="2" d="M 945 198 L 950 198"></path><text xmlns="http://www.w3.org/2000/svg" x="955" y="204">214</text><path stroke-width="2" d="M 945 162 L 950 162" /><path stroke-width="2" d="M 945 162 L 950 162"></path><text xmlns="http://www.w3.org/2000/svg" x="955" y="168">267</text><path stroke-width="2" d="M 945 126 L 950 126" /><path stroke-width="2" d="M 945 126 L 950 126"></path><text xmlns="http://www.w3.org/2000/svg" x="955" y="132">320</text><path stroke-width="2" d="M 945 88 L 950 88" /><path stroke-width="2" d="M 945 88 L 950 88"></path><text xmlns="http://www.w3.org/2000/svg" x="955" y="94">374</text><path stroke-width="2" d="M 945 52 L 950 52" /><path stroke-width="2" d="M 945 52 L 950 52"></path><text xmlns="http://www.w3.org/2000/svg" x="955" y="58">427</text><path stroke-width="2" d="M 945 16 L 950 16" /><path stroke-width="2" d="M 945 16 L 950 16"></path><text xmlns="http://www.w3.org/2000/svg" x="955" y="22">480</text><text xmlns="http://www.w3.org/2000/svg" x="987" y="175" transform="rotate(90.00,987,175)">Stargazers</text><path stroke-width="2" d="M 57.000000 346.000000 L 945 346" /><path stroke-width="2" d="M 57.000000 346.000000 L 945 346"></path><path stroke-width="2" d="M 58 346 L 58 351" /><path stroke-width="2" d="M 58 346 L 58 351"></path><text xmlns="http://www.w3.org/2000/svg" x="25" y="368">2023-04-02</text><path stroke-width="2" d="M 157 346 L 157 351" /><path stroke-width="2" d="M 157 346 L 157 351"></path><text xmlns="http://www.w3.org/2000/svg" x="124" y="368">2023-05-20</text><path stroke-width="2" d="M 256 346 L 256 351" /><path stroke-width="2" d="M 256 346 L 256 351"></path><text xmlns="http://www.w3.org/2000/svg" x="223" y="368">2023-07-07</text><path stroke-width="2" d="M 354 346 L 354 351" /><path stroke-width="2" d="M 354 346 L 354 351"></path><text xmlns="http://www.w3.org/2000/svg" x="321" y="368">2023-08-24</text><path stroke-width="2" d="M 453 346 L 453 351" /><path d="M 453 346 L 453 351" stroke-width="2"></path><text xmlns="http://www.w3.org/2000/svg" x="420" y="368">2023-10-11</text><path stroke-width="2" d="M 551 346 L 551 351" /><path d="M 551 346 L 551 351" stroke-width="2"></path><text xmlns="http://www.w3.org/2000/svg" x="518" y="368">2023-11-28</text><path stroke-width="2" d="M 650 346 L 650 351" /><path stroke-width="2" d="M 650 346 L 650 351"></path><text xmlns="http://www.w3.org/2000/svg" x="617" y="368">2024-01-15</text><path stroke-width="2" d="M 748 346 L 748 351" /><path stroke-width="2" d="M 748 346 L 748 351"></path><text xmlns="http://www.w3.org/2000/svg" x="715" y="368">2024-03-03</text><path stroke-width="2" d="M 847 346 L 847 351" /><path stroke-width="2" d="M 847 346 L 847 351"></path><text y="368" xmlns="http://www.w3.org/2000/svg" x="814">2024-04-20</text><path stroke-width="2" d="M 945 346 L 945 351" /><path stroke-width="2" d="M 945 346 L 945 351"></path><text xmlns="http://www.w3.org/2000/svg" x="912" y="368">2024-06-07</text><text xmlns="http://www.w3.org/2000/svg" x="487" y="390">Time</text></svg>