<svg xmlns:xlink="http://www.w3.org/1999/xlink" width="1024px" height="400px" xmlns="http://www.w3.org/2000/svg"><style type="text/css">
path { fill: none; stroke: rgb(51,51,51); }
path.series { stroke: #6b63ff; }
rect.background { fill: rgb(255,255,255); stroke: none; }

text {
	stroke-width: 0;
	stroke: none;
	fill: rgba(51,51,51,1.0);
	font-size: 12.8px;
	font-family: 'Roboto Medium', sans-serif;
}
</style><rect rx="8" x="0" y="0" width="1024px" height="400px" class="background" /><rect width="1024px" height="400px" class="background" rx="8" x="0" y="0"></rect><path stroke-width="2" class="series" d="M 58 345 L 61 345 L 77 344 L 77 344 L 77 344 L 77 343 L 77 343 L 77 342 L 77 342 L 77 342 L 78 341 L 78 341 L 78 341 L 78 340 L 78 340 L 78 339 L 78 339 L 78 339 L 78 338 L 79 338 L 80 337 L 80 337 L 81 337 L 82 336 L 82 336 L 82 336 L 82 335 L 83 335 L 85 334 L 85 334 L 86 334 L 87 333 L 92 333 L 92 332 L 92 332 L 92 332 L 93 331 L 95 331 L 97 331 L 98 330 L 100 330 L 104 329 L 105 329 L 112 329 L 115 328 L 118 328 L 122 327 L 124 327 L 139 327 L 140 326 L 140 326 L 142 326 L 142 325 L 142 325 L 142 324 L 142 324 L 142 324 L 142 323 L 142 323 L 142 322 L 142 322 L 142 322 L 142 321 L 143 321 L 143 321 L 143 320 L 143 320 L 143 319 L 143 319 L 143 319 L 143 318 L 143 318 L 143 317 L 143 317 L 143 317 L 143 316 L 143 316 L 143 316 L 143 315 L 143 315 L 143 314 L 143 314 L 143 314 L 143 313 L 143 313 L 143 313 L 143 312 L 143 312 L 143 311 L 143 311 L 143 311 L 143 310 L 143 310 L 143 309 L 143 309 L 143 309 L 144 308 L 144 308 L 144 308 L 144 307 L 144 307 L 144 306 L 144 306 L 145 306 L 145 305 L 146 305 L 146 304 L 146 304 L 146 304 L 146 303 L 146 303 L 146 303 L 146 302 L 146 302 L 146 301 L 146 301 L 146 301 L 146 300 L 146 300 L 146 299 L 146 299 L 146 299 L 146 298 L 147 298 L 147 298 L 147 297 L 147 297 L 151 296 L 151 296 L 151 296 L 153 295 L 153 295 L 155 294 L 157 294 L 158 294 L 160 293 L 161 293 L 163 293 L 163 292 L 164 292 L 166 291 L 166 291 L 167 291 L 168 290 L 169 290 L 170 289 L 170 289 L 170 289 L 170 288 L 171 288 L 173 288 L 173 287 L 173 287 L 174 286 L 174 286 L 174 286 L 176 285 L 177 285 L 180 284 L 180 284 L 181 284 L 182 283 L 182 283 L 183 283 L 184 282 L 190 282 L 191 281 L 192 281 L 198 281 L 198 280 L 198 280 L 198 280 L 198 279 L 199 279 L 201 278 L 202 278 L 203 278 L 210 277 L 211 277 L 213 276 L 215 276 L 217 276 L 217 275 L 218 275 L 223 275 L 229 274 L 235 274 L 236 273 L 236 273 L 236 273 L 237 272 L 238 272 L 247 271 L 251 271 L 251 271 L 254 270 L 255 270 L 256 270 L 265 269 L 265 269 L 266 268 L 266 268 L 268 268 L 270 267 L 271 267 L 273 266 L 275 266 L 277 266 L 282 265 L 283 265 L 284 265 L 284 264 L 284 264 L 284 263 L 287 263 L 293 263 L 305 262 L 309 262 L 312 261 L 312 261 L 314 261 L 315 260 L 315 260 L 315 260 L 315 259 L 315 259 L 315 258 L 315 258 L 315 258 L 315 257 L 315 257 L 315 256 L 315 256 L 315 256 L 316 255 L 316 255 L 318 255 L 318 254 L 319 254 L 319 253 L 319 253 L 320 253 L 320 252 L 320 252 L 320 251 L 320 251 L 320 251 L 320 250 L 321 250 L 322 250 L 322 249 L 323 249 L 323 248 L 323 248 L 323 248 L 324 247 L 324 247 L 324 247 L 324 246 L 325 246 L 325 245 L 326 245 L 327 245 L 328 244 L 328 244 L 330 243 L 332 243 L 332 243 L 333 242 L 333 242 L 333 242 L 333 241 L 333 241 L 335 240 L 335 240 L 337 240 L 337 239 L 338 239 L 340 238 L 341 238 L 341 238 L 344 237 L 345 237 L 345 237 L 346 236 L 346 236 L 350 235 L 351 235 L 352 235 L 355 234 L 357 234 L 361 233 L 362 233 L 362 233 L 363 232 L 363 232 L 363 232 L 366 231 L 368 231 L 370 230 L 370 230 L 371 230 L 373 229 L 373 229 L 373 228 L 373 228 L 373 228 L 374 227 L 374 227 L 375 227 L 375 226 L 375 226 L 376 225 L 380 225 L 386 225 L 386 224 L 386 224 L 389 223 L 391 223 L 392 223 L 392 222 L 393 222 L 395 222 L 395 221 L 395 221 L 395 220 L 395 220 L 395 220 L 395 219 L 396 219 L 396 218 L 396 218 L 399 218 L 399 217 L 399 217 L 399 217 L 399 216 L 399 216 L 400 215 L 400 215 L 400 215 L 400 214 L 400 214 L 400 214 L 400 213 L 404 213 L 406 212 L 407 212 L 407 212 L 418 211 L 419 211 L 422 210 L 425 210 L 431 210 L 434 209 L 436 209 L 436 209 L 436 208 L 436 208 L 437 207 L 437 207 L 437 207 L 437 206 L 438 206 L 439 205 L 447 205 L 449 205 L 452 204 L 459 204 L 463 204 L 467 203 L 469 203 L 474 202 L 474 202 L 483 202 L 493 201 L 493 201 L 499 200 L 500 200 L 505 200 L 506 199 L 509 199 L 509 199 L 509 198 L 510 198 L 513 197 L 514 197 L 516 197 L 520 196 L 521 196 L 522 195 L 523 195 L 526 195 L 529 194 L 530 194 L 534 194 L 538 193 L 538 193 L 538 192 L 540 192 L 541 192 L 542 191 L 545 191 L 548 190 L 551 190 L 553 190 L 553 189 L 558 189 L 559 189 L 562 188 L 566 188 L 567 187 L 572 187 L 572 187 L 572 186 L 574 186 L 574 185 L 577 185 L 577 185 L 579 184 L 582 184 L 583 184 L 583 183 L 583 183 L 591 182 L 591 182 L 592 182 L 592 181 L 592 181 L 593 181 L 593 180 L 594 180 L 594 179 L 596 179 L 596 179 L 598 178 L 599 178 L 599 177 L 600 177 L 600 177 L 600 176 L 601 176 L 602 176 L 602 175 L 602 175 L 602 174 L 603 174 L 603 174 L 604 173 L 605 173 L 606 172 L 606 172 L 607 172 L 607 171 L 608 171 L 610 171 L 610 170 L 610 170 L 612 169 L 613 169 L 613 169 L 614 168 L 614 168 L 616 167 L 616 167 L 616 167 L 617 166 L 617 166 L 617 166 L 617 165 L 618 165 L 618 164 L 619 164 L 623 164 L 624 163 L 625 163 L 625 162 L 628 162 L 629 162 L 630 161 L 632 161 L 635 161 L 637 160 L 640 160 L 640 159 L 640 159 L 641 159 L 641 158 L 642 158 L 642 157 L 642 157 L 643 157 L 643 156 L 643 156 L 643 156 L 645 155 L 646 155 L 646 154 L 647 154 L 647 154 L 650 153 L 650 153 L 650 152 L 651 152 L 652 152 L 655 151 L 657 151 L 662 151 L 662 150 L 662 150 L 662 149 L 664 149 L 666 149 L 667 148 L 667 148 L 667 148 L 667 147 L 669 147 L 672 146 L 673 146 L 673 146 L 673 145 L 675 145 L 676 144 L 676 144 L 676 144 L 679 143 L 682 143 L 683 143 L 687 142 L 687 142 L 688 141 L 691 141 L 692 141 L 695 140 L 697 140 L 699 139 L 700 139 L 700 139 L 701 138 L 701 138 L 701 138 L 701 137 L 702 137 L 702 136 L 702 136 L 703 136 L 703 135 L 703 135 L 705 134 L 706 134 L 706 134 L 711 133 L 712 133 L 717 133 L 719 132 L 719 132 L 720 131 L 721 131 L 723 131 L 724 130 L 725 130 L 725 129 L 726 129 L 726 129 L 726 128 L 726 128 L 726 128 L 727 127 L 727 127 L 727 126 L 727 126 L 727 126 L 728 125 L 728 125 L 728 124 L 730 124 L 730 124 L 731 123 L 731 123 L 732 123 L 733 122 L 733 122 L 733 121 L 735 121 L 737 121 L 738 120 L 738 120 L 738 119 L 738 119 L 739 119 L 739 118 L 739 118 L 740 118 L 742 117 L 745 117 L 748 116 L 749 116 L 751 116 L 755 115 L 758 115 L 759 115 L 761 114 L 766 114 L 766 113 L 766 113 L 771 113 L 773 112 L 773 112 L 774 111 L 774 111 L 783 111 L 783 110 L 784 110 L 784 110 L 785 109 L 786 109 L 787 108 L 787 108 L 787 108 L 788 107 L 789 107 L 789 106 L 790 106 L 790 106 L 790 105 L 790 105 L 790 105 L 790 104 L 790 104 L 792 103 L 794 103 L 795 103 L 795 102 L 795 102 L 796 101 L 797 101 L 798 101 L 798 100 L 799 100 L 799 100 L 799 99 L 799 99 L 801 98 L 802 98 L 803 98 L 803 97 L 804 97 L 805 96 L 805 96 L 806 96 L 806 95 L 806 95 L 807 95 L 807 94 L 807 94 L 808 93 L 808 93 L 810 93 L 810 92 L 810 92 L 811 91 L 811 91 L 811 91 L 812 90 L 812 90 L 812 90 L 813 89 L 813 89 L 814 88 L 814 88 L 815 88 L 815 87 L 815 87 L 815 86 L 815 86 L 816 86 L 816 85 L 816 85 L 816 85 L 816 84 L 819 84 L 820 83 L 822 83 L 822 83 L 822 82 L 822 82 L 824 82 L 825 81 L 826 81 L 826 80 L 829 80 L 832 80 L 832 79 L 833 79 L 834 78 L 834 78 L 835 78 L 836 77 L 836 77 L 836 77 L 836 76 L 836 76 L 836 75 L 836 75 L 836 75 L 837 74 L 837 74 L 837 73 L 837 73 L 837 73 L 837 72 L 838 72 L 838 72 L 839 71 L 839 71 L 840 70 L 842 70 L 842 70 L 842 69 L 842 69 L 844 68 L 844 68 L 845 68 L 848 67 L 849 67 L 849 67 L 849 66 L 849 66 L 849 65 L 851 65 L 854 65 L 854 64 L 856 64 L 856 63 L 856 63 L 857 63 L 858 62 L 863 62 L 865 62 L 868 61 L 870 61 L 871 60 L 872 60 L 873 60 L 873 59 L 874 59 L 874 58 L 874 58 L 875 58 L 876 57 L 876 57 L 877 57 L 880 56 L 880 56 L 880 55 L 880 55 L 880 55 L 880 54 L 880 54 L 880 53 L 880 53 L 880 53 L 880 52 L 880 52 L 880 52 L 880 51 L 880 51 L 880 50 L 880 50 L 881 50 L 881 49 L 881 49 L 881 49 L 882 48 L 882 48 L 882 47 L 883 47 L 883 47 L 883 46 L 884 46 L 884 45 L 884 45 L 884 45 L 884 44 L 884 44 L 885 44 L 887 43 L 889 43 L 889 42 L 889 42 L 891 42 L 891 41 L 891 41 L 892 40 L 895 40 L 896 40 L 897 39 L 897 39 L 897 39 L 897 38 L 897 38 L 897 37 L 897 37 L 899 37 L 900 36 L 900 36 L 904 35 L 906 35 L 907 35 L 910 34 L 911 34 L 912 34 L 912 33 L 912 33 L 913 32 L 913 32 L 914 32 L 914 31 L 915 31 L 916 30 L 916 30 L 916 30 L 916 29 L 917 29 L 917 29 L 917 28 L 917 28 L 917 27 L 918 27 L 918 27 L 918 26 L 920 26 L 920 25 L 921 25 L 921 25 L 922 24 L 922 24 L 922 24 L 923 23 L 923 23 L 923 22 L 924 22 L 925 22 L 926 21 L 930 21 L 931 20 L 932 20 L 935 20 L 936 19 L 938 19 L 941 19 L 941 18 L 942 18 L 945 17" /><path class="series" d="M 58 345 L 61 345 L 77 344 L 77 344 L 77 344 L 77 343 L 77 343 L 77 342 L 77 342 L 77 342 L 78 341 L 78 341 L 78 341 L 78 340 L 78 340 L 78 339 L 78 339 L 78 339 L 78 338 L 79 338 L 80 337 L 80 337 L 81 337 L 82 336 L 82 336 L 82 336 L 82 335 L 83 335 L 85 334 L 85 334 L 86 334 L 87 333 L 92 333 L 92 332 L 92 332 L 92 332 L 93 331 L 95 331 L 97 331 L 98 330 L 100 330 L 104 329 L 105 329 L 112 329 L 115 328 L 118 328 L 122 327 L 124 327 L 139 327 L 140 326 L 140 326 L 142 326 L 142 325 L 142 325 L 142 324 L 142 324 L 142 324 L 142 323 L 142 323 L 142 322 L 142 322 L 142 322 L 142 321 L 143 321 L 143 321 L 143 320 L 143 320 L 143 319 L 143 319 L 143 319 L 143 318 L 143 318 L 143 317 L 143 317 L 143 317 L 143 316 L 143 316 L 143 316 L 143 315 L 143 315 L 143 314 L 143 314 L 143 314 L 143 313 L 143 313 L 143 313 L 143 312 L 143 312 L 143 311 L 143 311 L 143 311 L 143 310 L 143 310 L 143 309 L 143 309 L 143 309 L 144 308 L 144 308 L 144 308 L 144 307 L 144 307 L 144 306 L 144 306 L 145 306 L 145 305 L 146 305 L 146 304 L 146 304 L 146 304 L 146 303 L 146 303 L 146 303 L 146 302 L 146 302 L 146 301 L 146 301 L 146 301 L 146 300 L 146 300 L 146 299 L 146 299 L 146 299 L 146 298 L 147 298 L 147 298 L 147 297 L 147 297 L 151 296 L 151 296 L 151 296 L 153 295 L 153 295 L 155 294 L 157 294 L 158 294 L 160 293 L 161 293 L 163 293 L 163 292 L 164 292 L 166 291 L 166 291 L 167 291 L 168 290 L 169 290 L 170 289 L 170 289 L 170 289 L 170 288 L 171 288 L 173 288 L 173 287 L 173 287 L 174 286 L 174 286 L 174 286 L 176 285 L 177 285 L 180 284 L 180 284 L 181 284 L 182 283 L 182 283 L 183 283 L 184 282 L 190 282 L 191 281 L 192 281 L 198 281 L 198 280 L 198 280 L 198 280 L 198 279 L 199 279 L 201 278 L 202 278 L 203 278 L 210 277 L 211 277 L 213 276 L 215 276 L 217 276 L 217 275 L 218 275 L 223 275 L 229 274 L 235 274 L 236 273 L 236 273 L 236 273 L 237 272 L 238 272 L 247 271 L 251 271 L 251 271 L 254 270 L 255 270 L 256 270 L 265 269 L 265 269 L 266 268 L 266 268 L 268 268 L 270 267 L 271 267 L 273 266 L 275 266 L 277 266 L 282 265 L 283 265 L 284 265 L 284 264 L 284 264 L 284 263 L 287 263 L 293 263 L 305 262 L 309 262 L 312 261 L 312 261 L 314 261 L 315 260 L 315 260 L 315 260 L 315 259 L 315 259 L 315 258 L 315 258 L 315 258 L 315 257 L 315 257 L 315 256 L 315 256 L 315 256 L 316 255 L 316 255 L 318 255 L 318 254 L 319 254 L 319 253 L 319 253 L 320 253 L 320 252 L 320 252 L 320 251 L 320 251 L 320 251 L 320 250 L 321 250 L 322 250 L 322 249 L 323 249 L 323 248 L 323 248 L 323 248 L 324 247 L 324 247 L 324 247 L 324 246 L 325 246 L 325 245 L 326 245 L 327 245 L 328 244 L 328 244 L 330 243 L 332 243 L 332 243 L 333 242 L 333 242 L 333 242 L 333 241 L 333 241 L 335 240 L 335 240 L 337 240 L 337 239 L 338 239 L 340 238 L 341 238 L 341 238 L 344 237 L 345 237 L 345 237 L 346 236 L 346 236 L 350 235 L 351 235 L 352 235 L 355 234 L 357 234 L 361 233 L 362 233 L 362 233 L 363 232 L 363 232 L 363 232 L 366 231 L 368 231 L 370 230 L 370 230 L 371 230 L 373 229 L 373 229 L 373 228 L 373 228 L 373 228 L 374 227 L 374 227 L 375 227 L 375 226 L 375 226 L 376 225 L 380 225 L 386 225 L 386 224 L 386 224 L 389 223 L 391 223 L 392 223 L 392 222 L 393 222 L 395 222 L 395 221 L 395 221 L 395 220 L 395 220 L 395 220 L 395 219 L 396 219 L 396 218 L 396 218 L 399 218 L 399 217 L 399 217 L 399 217 L 399 216 L 399 216 L 400 215 L 400 215 L 400 215 L 400 214 L 400 214 L 400 214 L 400 213 L 404 213 L 406 212 L 407 212 L 407 212 L 418 211 L 419 211 L 422 210 L 425 210 L 431 210 L 434 209 L 436 209 L 436 209 L 436 208 L 436 208 L 437 207 L 437 207 L 437 207 L 437 206 L 438 206 L 439 205 L 447 205 L 449 205 L 452 204 L 459 204 L 463 204 L 467 203 L 469 203 L 474 202 L 474 202 L 483 202 L 493 201 L 493 201 L 499 200 L 500 200 L 505 200 L 506 199 L 509 199 L 509 199 L 509 198 L 510 198 L 513 197 L 514 197 L 516 197 L 520 196 L 521 196 L 522 195 L 523 195 L 526 195 L 529 194 L 530 194 L 534 194 L 538 193 L 538 193 L 538 192 L 540 192 L 541 192 L 542 191 L 545 191 L 548 190 L 551 190 L 553 190 L 553 189 L 558 189 L 559 189 L 562 188 L 566 188 L 567 187 L 572 187 L 572 187 L 572 186 L 574 186 L 574 185 L 577 185 L 577 185 L 579 184 L 582 184 L 583 184 L 583 183 L 583 183 L 591 182 L 591 182 L 592 182 L 592 181 L 592 181 L 593 181 L 593 180 L 594 180 L 594 179 L 596 179 L 596 179 L 598 178 L 599 178 L 599 177 L 600 177 L 600 177 L 600 176 L 601 176 L 602 176 L 602 175 L 602 175 L 602 174 L 603 174 L 603 174 L 604 173 L 605 173 L 606 172 L 606 172 L 607 172 L 607 171 L 608 171 L 610 171 L 610 170 L 610 170 L 612 169 L 613 169 L 613 169 L 614 168 L 614 168 L 616 167 L 616 167 L 616 167 L 617 166 L 617 166 L 617 166 L 617 165 L 618 165 L 618 164 L 619 164 L 623 164 L 624 163 L 625 163 L 625 162 L 628 162 L 629 162 L 630 161 L 632 161 L 635 161 L 637 160 L 640 160 L 640 159 L 640 159 L 641 159 L 641 158 L 642 158 L 642 157 L 642 157 L 643 157 L 643 156 L 643 156 L 643 156 L 645 155 L 646 155 L 646 154 L 647 154 L 647 154 L 650 153 L 650 153 L 650 152 L 651 152 L 652 152 L 655 151 L 657 151 L 662 151 L 662 150 L 662 150 L 662 149 L 664 149 L 666 149 L 667 148 L 667 148 L 667 148 L 667 147 L 669 147 L 672 146 L 673 146 L 673 146 L 673 145 L 675 145 L 676 144 L 676 144 L 676 144 L 679 143 L 682 143 L 683 143 L 687 142 L 687 142 L 688 141 L 691 141 L 692 141 L 695 140 L 697 140 L 699 139 L 700 139 L 700 139 L 701 138 L 701 138 L 701 138 L 701 137 L 702 137 L 702 136 L 702 136 L 703 136 L 703 135 L 703 135 L 705 134 L 706 134 L 706 134 L 711 133 L 712 133 L 717 133 L 719 132 L 719 132 L 720 131 L 721 131 L 723 131 L 724 130 L 725 130 L 725 129 L 726 129 L 726 129 L 726 128 L 726 128 L 726 128 L 727 127 L 727 127 L 727 126 L 727 126 L 727 126 L 728 125 L 728 125 L 728 124 L 730 124 L 730 124 L 731 123 L 731 123 L 732 123 L 733 122 L 733 122 L 733 121 L 735 121 L 737 121 L 738 120 L 738 120 L 738 119 L 738 119 L 739 119 L 739 118 L 739 118 L 740 118 L 742 117 L 745 117 L 748 116 L 749 116 L 751 116 L 755 115 L 758 115 L 759 115 L 761 114 L 766 114 L 766 113 L 766 113 L 771 113 L 773 112 L 773 112 L 774 111 L 774 111 L 783 111 L 783 110 L 784 110 L 784 110 L 785 109 L 786 109 L 787 108 L 787 108 L 787 108 L 788 107 L 789 107 L 789 106 L 790 106 L 790 106 L 790 105 L 790 105 L 790 105 L 790 104 L 790 104 L 792 103 L 794 103 L 795 103 L 795 102 L 795 102 L 796 101 L 797 101 L 798 101 L 798 100 L 799 100 L 799 100 L 799 99 L 799 99 L 801 98 L 802 98 L 803 98 L 803 97 L 804 97 L 805 96 L 805 96 L 806 96 L 806 95 L 806 95 L 807 95 L 807 94 L 807 94 L 808 93 L 808 93 L 810 93 L 810 92 L 810 92 L 811 91 L 811 91 L 811 91 L 812 90 L 812 90 L 812 90 L 813 89 L 813 89 L 814 88 L 814 88 L 815 88 L 815 87 L 815 87 L 815 86 L 815 86 L 816 86 L 816 85 L 816 85 L 816 85 L 816 84 L 819 84 L 820 83 L 822 83 L 822 83 L 822 82 L 822 82 L 824 82 L 825 81 L 826 81 L 826 80 L 829 80 L 832 80 L 832 79 L 833 79 L 834 78 L 834 78 L 835 78 L 836 77 L 836 77 L 836 77 L 836 76 L 836 76 L 836 75 L 836 75 L 836 75 L 837 74 L 837 74 L 837 73 L 837 73 L 837 73 L 837 72 L 838 72 L 838 72 L 839 71 L 839 71 L 840 70 L 842 70 L 842 70 L 842 69 L 842 69 L 844 68 L 844 68 L 845 68 L 848 67 L 849 67 L 849 67 L 849 66 L 849 66 L 849 65 L 851 65 L 854 65 L 854 64 L 856 64 L 856 63 L 856 63 L 857 63 L 858 62 L 863 62 L 865 62 L 868 61 L 870 61 L 871 60 L 872 60 L 873 60 L 873 59 L 874 59 L 874 58 L 874 58 L 875 58 L 876 57 L 876 57 L 877 57 L 880 56 L 880 56 L 880 55 L 880 55 L 880 55 L 880 54 L 880 54 L 880 53 L 880 53 L 880 53 L 880 52 L 880 52 L 880 52 L 880 51 L 880 51 L 880 50 L 880 50 L 881 50 L 881 49 L 881 49 L 881 49 L 882 48 L 882 48 L 882 47 L 883 47 L 883 47 L 883 46 L 884 46 L 884 45 L 884 45 L 884 45 L 884 44 L 884 44 L 885 44 L 887 43 L 889 43 L 889 42 L 889 42 L 891 42 L 891 41 L 891 41 L 892 40 L 895 40 L 896 40 L 897 39 L 897 39 L 897 39 L 897 38 L 897 38 L 897 37 L 897 37 L 899 37 L 900 36 L 900 36 L 904 35 L 906 35 L 907 35 L 910 34 L 911 34 L 912 34 L 912 33 L 912 33 L 913 32 L 913 32 L 914 32 L 914 31 L 915 31 L 916 30 L 916 30 L 916 30 L 916 29 L 917 29 L 917 29 L 917 28 L 917 28 L 917 27 L 918 27 L 918 27 L 918 26 L 920 26 L 920 25 L 921 25 L 921 25 L 922 24 L 922 24 L 922 24 L 923 23 L 923 23 L 923 22 L 924 22 L 925 22 L 926 21 L 930 21 L 931 20 L 932 20 L 935 20 L 936 19 L 938 19 L 941 19 L 941 18 L 942 18 L 945 17" stroke-width="2"></path><path stroke-width="2" d="M 945 346 L 945.000000 15.000000" /><path stroke-width="2" d="M 945 346 L 945.000000 15.000000"></path><path stroke-width="2" d="M 945 346 L 950 346" /><path d="M 945 346 L 950 346" stroke-width="2"></path><text xmlns="http://www.w3.org/2000/svg" x="955" y="352">0</text><path d="M 945 309 L 950 309" stroke-width="2" /><path stroke-width="2" d="M 945 309 L 950 309"></path><text xmlns="http://www.w3.org/2000/svg" x="955" y="315">96</text><path stroke-width="2" d="M 945 272 L 950 272" /><path stroke-width="2" d="M 945 272 L 950 272"></path><text xmlns="http://www.w3.org/2000/svg" x="955" y="278">192</text><path stroke-width="2" d="M 945 235 L 950 235" /><path stroke-width="2" d="M 945 235 L 950 235"></path><text y="241" xmlns="http://www.w3.org/2000/svg" x="955">287</text><path stroke-width="2" d="M 945 199 L 950 199" /><path stroke-width="2" d="M 945 199 L 950 199"></path><text xmlns="http://www.w3.org/2000/svg" x="955" y="205">383</text><path d="M 945 162 L 950 162" stroke-width="2" /><path stroke-width="2" d="M 945 162 L 950 162"></path><text x="955" y="168" xmlns="http://www.w3.org/2000/svg">478</text><path stroke-width="2" d="M 945 125 L 950 125" /><path stroke-width="2" d="M 945 125 L 950 125"></path><text xmlns="http://www.w3.org/2000/svg" x="955" y="131">574</text><path stroke-width="2" d="M 945 89 L 950 89" /><path stroke-width="2" d="M 945 89 L 950 89"></path><text xmlns="http://www.w3.org/2000/svg" x="955" y="95">669</text><path stroke-width="2" d="M 945 52 L 950 52" /><path stroke-width="2" d="M 945 52 L 950 52"></path><text y="58" xmlns="http://www.w3.org/2000/svg" x="955">765</text><path d="M 945 16 L 950 16" stroke-width="2" /><path stroke-width="2" d="M 945 16 L 950 16"></path><text xmlns="http://www.w3.org/2000/svg" x="955" y="22">860</text><text xmlns="http://www.w3.org/2000/svg" x="987" y="175" transform="rotate(90.00,987,175)">Stargazers</text><path stroke-width="2" d="M 57.000000 346.000000 L 945 346" /><path stroke-width="2" d="M 57.000000 346.000000 L 945 346"></path><path d="M 58 346 L 58 351" stroke-width="2" /><path stroke-width="2" d="M 58 346 L 58 351"></path><text y="368" xmlns="http://www.w3.org/2000/svg" x="25">2023-04-02</text><path stroke-width="2" d="M 157 346 L 157 351" /><path d="M 157 346 L 157 351" stroke-width="2"></path><text xmlns="http://www.w3.org/2000/svg" x="124" y="368">2023-06-16</text><path stroke-width="2" d="M 256 346 L 256 351" /><path stroke-width="2" d="M 256 346 L 256 351"></path><text xmlns="http://www.w3.org/2000/svg" x="223" y="368">2023-08-31</text><path stroke-width="2" d="M 354 346 L 354 351" /><path stroke-width="2" d="M 354 346 L 354 351"></path><text x="321" y="368" xmlns="http://www.w3.org/2000/svg">2023-11-14</text><path stroke-width="2" d="M 453 346 L 453 351" /><path stroke-width="2" d="M 453 346 L 453 351"></path><text xmlns="http://www.w3.org/2000/svg" x="420" y="368">2024-01-28</text><path stroke-width="2" d="M 551 346 L 551 351" /><path stroke-width="2" d="M 551 346 L 551 351"></path><text xmlns="http://www.w3.org/2000/svg" x="518" y="368">2024-04-13</text><path stroke-width="2" d="M 650 346 L 650 351" /><path stroke-width="2" d="M 650 346 L 650 351"></path><text xmlns="http://www.w3.org/2000/svg" x="617" y="368">2024-06-27</text><path stroke-width="2" d="M 748 346 L 748 351" /><path stroke-width="2" d="M 748 346 L 748 351"></path><text xmlns="http://www.w3.org/2000/svg" x="715" y="368">2024-09-10</text><path stroke-width="2" d="M 847 346 L 847 351" /><path stroke-width="2" d="M 847 346 L 847 351"></path><text xmlns="http://www.w3.org/2000/svg" x="814" y="368">2024-11-25</text><path stroke-width="2" d="M 945 346 L 945 351" /><path stroke-width="2" d="M 945 346 L 945 351"></path><text xmlns="http://www.w3.org/2000/svg" x="912" y="368">2025-02-08</text><text xmlns="http://www.w3.org/2000/svg" x="487" y="390">Time</text></svg>