<svg xmlns="http://www.w3.org/2000/svg" xmlns:xlink="http://www.w3.org/1999/xlink" width="1024px" height="400px"><style type="text/css">
path { fill: none; stroke: rgb(51,51,51); }
path.series { stroke: #6b63ff; }
rect.background { fill: rgb(255,255,255); stroke: none; }

text {
	stroke-width: 0;
	stroke: none;
	fill: rgba(51,51,51,1.0);
	font-size: 12.8px;
	font-family: 'Roboto Medium', sans-serif;
}
</style><rect x="0" y="0" width="1024px" height="400px" class="background" rx="8" /><rect height="400px" class="background" rx="8" x="0" y="0" width="1024px"></rect><path d="M 58 345 L 60 345 L 71 345 L 71 344 L 71 344 L 71 344 L 71 344 L 71 343 L 71 343 L 71 343 L 71 342 L 71 342 L 71 342 L 71 342 L 71 341 L 72 341 L 72 341 L 72 341 L 72 340 L 72 340 L 73 340 L 73 339 L 74 339 L 74 339 L 74 339 L 74 338 L 74 338 L 75 338 L 76 338 L 76 337 L 77 337 L 78 337 L 81 336 L 81 336 L 81 336 L 81 336 L 81 335 L 83 335 L 84 335 L 85 335 L 86 334 L 89 334 L 90 334 L 95 333 L 96 333 L 99 333 L 102 333 L 103 332 L 113 332 L 113 332 L 115 331 L 115 331 L 115 331 L 115 331 L 115 330 L 115 330 L 115 330 L 115 330 L 115 329 L 115 329 L 115 329 L 115 328 L 115 328 L 116 328 L 116 328 L 116 327 L 116 327 L 116 327 L 116 327 L 116 326 L 116 326 L 116 326 L 116 325 L 116 325 L 116 325 L 116 325 L 116 324 L 116 324 L 116 324 L 116 324 L 116 323 L 116 323 L 116 323 L 116 322 L 116 322 L 116 322 L 116 322 L 116 321 L 116 321 L 116 321 L 116 320 L 116 320 L 116 320 L 116 320 L 116 319 L 116 319 L 116 319 L 116 319 L 116 318 L 116 318 L 116 318 L 117 317 L 117 317 L 117 317 L 117 317 L 117 316 L 117 316 L 117 316 L 117 316 L 117 315 L 117 315 L 117 315 L 117 314 L 117 314 L 117 314 L 117 314 L 117 313 L 117 313 L 117 313 L 117 313 L 118 312 L 118 312 L 118 312 L 119 311 L 119 311 L 119 311 L 121 311 L 121 310 L 121 310 L 122 310 L 122 309 L 124 309 L 125 309 L 126 309 L 127 308 L 128 308 L 129 308 L 129 308 L 129 307 L 131 307 L 131 307 L 132 306 L 132 306 L 133 306 L 133 306 L 134 305 L 134 305 L 134 305 L 135 305 L 136 304 L 136 304 L 136 304 L 136 303 L 136 303 L 137 303 L 138 303 L 139 302 L 140 302 L 141 302 L 141 302 L 142 301 L 142 301 L 142 301 L 143 300 L 148 300 L 148 300 L 149 300 L 153 299 L 153 299 L 153 299 L 153 298 L 153 298 L 154 298 L 155 298 L 156 297 L 156 297 L 161 297 L 162 297 L 163 296 L 164 296 L 165 296 L 165 295 L 166 295 L 170 295 L 173 295 L 178 294 L 178 294 L 178 294 L 179 294 L 179 293 L 186 293 L 188 293 L 189 292 L 191 292 L 191 292 L 192 292 L 198 291 L 198 291 L 199 291 L 199 291 L 200 290 L 202 290 L 204 290 L 205 289 L 206 289 L 210 289 L 210 289 L 211 288 L 211 288 L 211 288 L 211 287 L 213 287 L 217 287 L 225 287 L 228 286 L 230 286 L 230 286 L 232 286 L 232 285 L 232 285 L 232 285 L 232 284 L 232 284 L 232 284 L 232 284 L 232 283 L 232 283 L 232 283 L 232 283 L 232 282 L 232 282 L 233 282 L 234 281 L 234 281 L 234 281 L 234 281 L 235 280 L 235 280 L 235 280 L 235 280 L 235 279 L 235 279 L 235 279 L 236 278 L 236 278 L 237 278 L 237 278 L 237 277 L 237 277 L 237 277 L 238 276 L 238 276 L 238 276 L 239 276 L 239 275 L 239 275 L 240 275 L 240 275 L 241 274 L 242 274 L 243 274 L 243 273 L 244 273 L 244 273 L 244 273 L 244 272 L 244 272 L 245 272 L 246 272 L 247 271 L 247 271 L 247 271 L 249 270 L 250 270 L 250 270 L 251 270 L 252 269 L 252 269 L 253 269 L 253 269 L 256 268 L 256 268 L 257 268 L 259 267 L 260 267 L 263 267 L 263 267 L 263 266 L 264 266 L 264 266 L 264 265 L 266 265 L 268 265 L 269 265 L 269 264 L 271 264 L 271 264 L 271 264 L 271 263 L 271 263 L 271 263 L 271 262 L 272 262 L 272 262 L 272 262 L 273 261 L 276 261 L 279 261 L 279 261 L 279 260 L 282 260 L 283 260 L 284 259 L 284 259 L 285 259 L 285 259 L 285 258 L 285 258 L 285 258 L 286 258 L 286 257 L 286 257 L 286 257 L 286 256 L 287 256 L 288 256 L 288 256 L 288 255 L 288 255 L 289 255 L 289 254 L 289 254 L 289 254 L 289 254 L 289 253 L 289 253 L 289 253 L 292 253 L 294 252 L 294 252 L 294 252 L 301 251 L 302 251 L 304 251 L 306 251 L 312 250 L 313 250 L 314 250 L 314 250 L 314 249 L 314 249 L 314 249 L 314 248 L 315 248 L 315 248 L 321 248 L 322 247 L 324 247 L 329 247 L 332 247 L 334 246 L 336 246 L 339 246 L 339 245 L 345 245 L 352 245 L 352 245 L 356 244 L 356 244 L 360 244 L 361 243 L 363 243 L 363 243 L 363 243 L 363 242 L 365 242 L 366 242 L 368 242 L 370 241 L 371 241 L 371 241 L 372 240 L 374 240 L 377 240 L 377 240 L 379 239 L 382 239 L 383 239 L 383 239 L 384 238 L 384 238 L 385 238 L 387 237 L 389 237 L 391 237 L 392 237 L 393 236 L 396 236 L 397 236 L 398 236 L 402 235 L 402 235 L 405 235 L 405 234 L 406 234 L 407 234 L 407 234 L 408 233 L 409 233 L 410 233 L 412 232 L 413 232 L 413 232 L 413 232 L 418 231 L 418 231 L 419 231 L 419 231 L 419 230 L 420 230 L 420 230 L 420 229 L 420 229 L 422 229 L 422 229 L 423 228 L 423 228 L 424 228 L 424 228 L 425 227 L 425 227 L 425 227 L 425 226 L 425 226 L 426 226 L 426 226 L 426 225 L 426 225 L 427 225 L 428 225 L 428 224 L 428 224 L 429 224 L 429 223 L 430 223 L 431 223 L 431 223 L 431 222 L 432 222 L 433 222 L 433 221 L 434 221 L 435 221 L 435 221 L 435 220 L 436 220 L 436 220 L 436 220 L 436 219 L 436 219 L 437 219 L 437 218 L 440 218 L 440 218 L 441 218 L 441 217 L 443 217 L 444 217 L 444 217 L 446 216 L 448 216 L 449 216 L 451 215 L 451 215 L 452 215 L 452 215 L 452 214 L 452 214 L 452 214 L 453 214 L 453 213 L 453 213 L 453 213 L 454 212 L 455 212 L 455 212 L 455 212 L 456 211 L 456 211 L 458 211 L 458 210 L 458 210 L 459 210 L 460 210 L 461 209 L 466 209 L 466 209 L 466 209 L 466 208 L 467 208 L 469 208 L 469 207 L 469 207 L 469 207 L 470 207 L 471 206 L 473 206 L 474 206 L 474 206 L 474 205 L 475 205 L 475 205 L 475 204 L 475 204 L 477 204 L 480 204 L 480 203 L 483 203 L 483 203 L 483 203 L 486 202 L 487 202 L 489 202 L 490 201 L 491 201 L 492 201 L 492 201 L 492 200 L 492 200 L 492 200 L 492 199 L 493 199 L 493 199 L 493 199 L 494 198 L 494 198 L 494 198 L 495 198 L 496 197 L 496 197 L 499 197 L 500 196 L 503 196 L 505 196 L 505 196 L 505 195 L 506 195 L 508 195 L 509 195 L 509 194 L 509 194 L 509 194 L 509 193 L 509 193 L 509 193 L 510 193 L 510 192 L 510 192 L 510 192 L 510 192 L 511 191 L 511 191 L 512 191 L 512 190 L 512 190 L 513 190 L 514 190 L 514 189 L 514 189 L 514 189 L 515 188 L 517 188 L 517 188 L 517 188 L 517 187 L 517 187 L 518 187 L 518 187 L 518 186 L 519 186 L 520 186 L 522 185 L 524 185 L 525 185 L 526 185 L 529 184 L 531 184 L 531 184 L 533 184 L 536 183 L 536 183 L 536 183 L 540 182 L 541 182 L 541 182 L 542 182 L 542 181 L 548 181 L 548 181 L 549 181 L 549 180 L 549 180 L 550 180 L 550 179 L 551 179 L 551 179 L 552 179 L 552 178 L 552 178 L 552 178 L 552 177 L 552 177 L 553 177 L 553 177 L 553 176 L 553 176 L 554 176 L 555 176 L 556 175 L 556 175 L 556 175 L 557 174 L 557 174 L 558 174 L 558 174 L 559 173 L 559 173 L 559 173 L 559 173 L 560 172 L 560 172 L 561 172 L 561 171 L 562 171 L 563 171 L 563 171 L 563 170 L 563 170 L 563 170 L 564 170 L 564 169 L 564 169 L 565 169 L 565 168 L 566 168 L 566 168 L 566 168 L 566 167 L 567 167 L 567 167 L 567 166 L 567 166 L 567 166 L 568 166 L 568 165 L 568 165 L 569 165 L 569 165 L 569 164 L 569 164 L 569 164 L 569 163 L 570 163 L 570 163 L 570 163 L 570 162 L 570 162 L 572 162 L 573 162 L 574 161 L 574 161 L 574 161 L 574 160 L 576 160 L 576 160 L 577 160 L 577 159 L 579 159 L 581 159 L 581 159 L 582 158 L 582 158 L 582 158 L 583 157 L 583 157 L 584 157 L 584 157 L 584 156 L 584 156 L 584 156 L 584 155 L 584 155 L 584 155 L 584 155 L 584 154 L 585 154 L 585 154 L 585 154 L 585 153 L 586 153 L 586 153 L 587 152 L 588 152 L 588 152 L 588 152 L 589 151 L 589 151 L 590 151 L 592 151 L 592 150 L 592 150 L 592 150 L 592 149 L 594 149 L 596 149 L 596 149 L 597 148 L 597 148 L 597 148 L 598 148 L 598 147 L 602 147 L 603 147 L 605 146 L 607 146 L 607 146 L 608 146 L 609 145 L 609 145 L 609 145 L 609 144 L 610 144 L 610 144 L 610 144 L 611 143 L 612 143 L 613 143 L 613 143 L 613 142 L 613 142 L 613 142 L 613 141 L 613 141 L 613 141 L 613 141 L 613 140 L 613 140 L 613 140 L 613 140 L 613 139 L 613 139 L 613 139 L 613 138 L 614 138 L 614 138 L 614 138 L 614 137 L 614 137 L 614 137 L 614 137 L 615 136 L 615 136 L 615 136 L 616 135 L 616 135 L 616 135 L 616 135 L 616 134 L 616 134 L 617 134 L 618 133 L 619 133 L 620 133 L 620 133 L 621 132 L 621 132 L 621 132 L 622 132 L 623 131 L 624 131 L 625 131 L 625 130 L 625 130 L 625 130 L 625 130 L 625 129 L 625 129 L 626 129 L 627 129 L 627 128 L 630 128 L 631 128 L 632 127 L 634 127 L 635 127 L 635 127 L 635 126 L 635 126 L 636 126 L 636 126 L 636 125 L 636 125 L 637 125 L 637 124 L 638 124 L 638 124 L 638 124 L 638 123 L 638 123 L 638 123 L 638 122 L 638 122 L 639 122 L 639 122 L 639 121 L 640 121 L 641 121 L 641 121 L 641 120 L 641 120 L 641 120 L 642 119 L 642 119 L 643 119 L 643 119 L 643 118 L 644 118 L 644 118 L 647 118 L 649 117 L 651 117 L 651 117 L 652 116 L 654 116 L 655 116 L 655 116 L 658 115 L 662 115 L 662 115 L 663 115 L 665 114 L 666 114 L 667 114 L 667 113 L 668 113 L 669 113 L 669 113 L 670 112 L 671 112 L 672 112 L 672 111 L 673 111 L 673 111 L 673 111 L 673 110 L 674 110 L 677 110 L 677 110 L 678 109 L 679 109 L 679 109 L 680 108 L 681 108 L 681 108 L 681 108 L 682 107 L 682 107 L 682 107 L 683 107 L 683 106 L 684 106 L 685 106 L 685 105 L 685 105 L 686 105 L 686 105 L 686 104 L 687 104 L 687 104 L 688 104 L 688 103 L 688 103 L 688 103 L 688 102 L 688 102 L 690 102 L 691 102 L 692 101 L 694 101 L 695 101 L 696 100 L 696 100 L 698 100 L 700 100 L 702 99 L 703 99 L 704 99 L 704 99 L 705 98 L 707 98 L 709 98 L 709 97 L 709 97 L 709 97 L 709 97 L 709 96 L 710 96 L 711 96 L 712 96 L 712 95 L 712 95 L 712 95 L 717 94 L 718 94 L 719 94 L 720 94 L 721 93 L 722 93 L 722 93 L 723 92 L 723 92 L 723 92 L 724 92 L 725 91 L 725 91 L 725 91 L 726 91 L 726 90 L 726 90 L 727 90 L 728 89 L 730 89 L 731 89 L 735 89 L 735 88 L 735 88 L 736 88 L 737 88 L 737 87 L 737 87 L 737 87 L 740 86 L 741 86 L 742 86 L 742 86 L 743 85 L 743 85 L 744 85 L 745 85 L 747 84 L 747 84 L 747 84 L 747 83 L 748 83 L 748 83 L 748 83 L 749 82 L 749 82 L 749 82 L 751 82 L 751 81 L 752 81 L 752 81 L 752 80 L 752 80 L 753 80 L 753 80 L 756 79 L 759 79 L 759 79 L 762 78 L 763 78 L 765 78 L 765 78 L 766 77 L 766 77 L 767 77 L 768 77 L 769 76 L 771 76 L 771 76 L 774 75 L 778 75 L 778 75 L 778 75 L 779 74 L 779 74 L 780 74 L 780 74 L 780 73 L 788 73 L 790 73 L 790 72 L 791 72 L 793 72 L 795 72 L 796 71 L 797 71 L 797 71 L 798 71 L 799 70 L 803 70 L 804 70 L 805 69 L 806 69 L 808 69 L 809 69 L 809 68 L 809 68 L 809 68 L 810 67 L 810 67 L 811 67 L 813 67 L 814 66 L 814 66 L 815 66 L 817 66 L 819 65 L 821 65 L 821 65 L 823 64 L 823 64 L 823 64 L 823 64 L 823 63 L 824 63 L 824 63 L 825 63 L 827 62 L 827 62 L 827 62 L 827 61 L 827 61 L 828 61 L 828 61 L 828 60 L 828 60 L 828 60 L 828 60 L 828 59 L 829 59 L 829 59 L 830 58 L 830 58 L 830 58 L 830 58 L 830 57 L 831 57 L 836 57 L 837 56 L 838 56 L 838 56 L 838 56 L 838 55 L 838 55 L 838 55 L 838 55 L 838 54 L 838 54 L 838 54 L 839 53 L 839 53 L 839 53 L 839 53 L 839 52 L 839 52 L 839 52 L 839 52 L 839 51 L 840 51 L 840 51 L 840 50 L 841 50 L 841 50 L 842 50 L 843 49 L 844 49 L 844 49 L 845 49 L 845 48 L 847 48 L 847 48 L 847 47 L 848 47 L 849 47 L 850 47 L 850 46 L 851 46 L 852 46 L 852 45 L 854 45 L 854 45 L 855 45 L 856 44 L 857 44 L 857 44 L 857 44 L 858 43 L 859 43 L 859 43 L 860 42 L 861 42 L 862 42 L 864 42 L 867 41 L 868 41 L 868 41 L 872 41 L 872 40 L 872 40 L 873 40 L 873 39 L 873 39 L 874 39 L 875 39 L 876 38 L 877 38 L 877 38 L 877 38 L 877 37 L 878 37 L 878 37 L 882 36 L 882 36 L 883 36 L 884 36 L 885 35 L 886 35 L 891 35 L 892 34 L 892 34 L 893 34 L 893 34 L 894 33 L 895 33 L 896 33 L 896 33 L 896 32 L 896 32 L 896 32 L 900 31 L 902 31 L 902 31 L 904 31 L 905 30 L 905 30 L 906 30 L 906 30 L 906 29 L 907 29 L 907 29 L 909 28 L 909 28 L 911 28 L 911 28 L 911 27 L 911 27 L 915 27 L 915 27 L 916 26 L 917 26 L 918 26 L 921 25 L 924 25 L 928 25 L 929 25 L 931 24 L 932 24 L 932 24 L 933 23 L 933 23 L 936 23 L 936 23 L 937 22 L 937 22 L 937 22 L 937 22 L 937 21" stroke-width="2" class="series" /><path stroke-width="2" class="series" d="M 58 345 L 60 345 L 71 345 L 71 344 L 71 344 L 71 344 L 71 344 L 71 343 L 71 343 L 71 343 L 71 342 L 71 342 L 71 342 L 71 342 L 71 341 L 72 341 L 72 341 L 72 341 L 72 340 L 72 340 L 73 340 L 73 339 L 74 339 L 74 339 L 74 339 L 74 338 L 74 338 L 75 338 L 76 338 L 76 337 L 77 337 L 78 337 L 81 336 L 81 336 L 81 336 L 81 336 L 81 335 L 83 335 L 84 335 L 85 335 L 86 334 L 89 334 L 90 334 L 95 333 L 96 333 L 99 333 L 102 333 L 103 332 L 113 332 L 113 332 L 115 331 L 115 331 L 115 331 L 115 331 L 115 330 L 115 330 L 115 330 L 115 330 L 115 329 L 115 329 L 115 329 L 115 328 L 115 328 L 116 328 L 116 328 L 116 327 L 116 327 L 116 327 L 116 327 L 116 326 L 116 326 L 116 326 L 116 325 L 116 325 L 116 325 L 116 325 L 116 324 L 116 324 L 116 324 L 116 324 L 116 323 L 116 323 L 116 323 L 116 322 L 116 322 L 116 322 L 116 322 L 116 321 L 116 321 L 116 321 L 116 320 L 116 320 L 116 320 L 116 320 L 116 319 L 116 319 L 116 319 L 116 319 L 116 318 L 116 318 L 116 318 L 117 317 L 117 317 L 117 317 L 117 317 L 117 316 L 117 316 L 117 316 L 117 316 L 117 315 L 117 315 L 117 315 L 117 314 L 117 314 L 117 314 L 117 314 L 117 313 L 117 313 L 117 313 L 117 313 L 118 312 L 118 312 L 118 312 L 119 311 L 119 311 L 119 311 L 121 311 L 121 310 L 121 310 L 122 310 L 122 309 L 124 309 L 125 309 L 126 309 L 127 308 L 128 308 L 129 308 L 129 308 L 129 307 L 131 307 L 131 307 L 132 306 L 132 306 L 133 306 L 133 306 L 134 305 L 134 305 L 134 305 L 135 305 L 136 304 L 136 304 L 136 304 L 136 303 L 136 303 L 137 303 L 138 303 L 139 302 L 140 302 L 141 302 L 141 302 L 142 301 L 142 301 L 142 301 L 143 300 L 148 300 L 148 300 L 149 300 L 153 299 L 153 299 L 153 299 L 153 298 L 153 298 L 154 298 L 155 298 L 156 297 L 156 297 L 161 297 L 162 297 L 163 296 L 164 296 L 165 296 L 165 295 L 166 295 L 170 295 L 173 295 L 178 294 L 178 294 L 178 294 L 179 294 L 179 293 L 186 293 L 188 293 L 189 292 L 191 292 L 191 292 L 192 292 L 198 291 L 198 291 L 199 291 L 199 291 L 200 290 L 202 290 L 204 290 L 205 289 L 206 289 L 210 289 L 210 289 L 211 288 L 211 288 L 211 288 L 211 287 L 213 287 L 217 287 L 225 287 L 228 286 L 230 286 L 230 286 L 232 286 L 232 285 L 232 285 L 232 285 L 232 284 L 232 284 L 232 284 L 232 284 L 232 283 L 232 283 L 232 283 L 232 283 L 232 282 L 232 282 L 233 282 L 234 281 L 234 281 L 234 281 L 234 281 L 235 280 L 235 280 L 235 280 L 235 280 L 235 279 L 235 279 L 235 279 L 236 278 L 236 278 L 237 278 L 237 278 L 237 277 L 237 277 L 237 277 L 238 276 L 238 276 L 238 276 L 239 276 L 239 275 L 239 275 L 240 275 L 240 275 L 241 274 L 242 274 L 243 274 L 243 273 L 244 273 L 244 273 L 244 273 L 244 272 L 244 272 L 245 272 L 246 272 L 247 271 L 247 271 L 247 271 L 249 270 L 250 270 L 250 270 L 251 270 L 252 269 L 252 269 L 253 269 L 253 269 L 256 268 L 256 268 L 257 268 L 259 267 L 260 267 L 263 267 L 263 267 L 263 266 L 264 266 L 264 266 L 264 265 L 266 265 L 268 265 L 269 265 L 269 264 L 271 264 L 271 264 L 271 264 L 271 263 L 271 263 L 271 263 L 271 262 L 272 262 L 272 262 L 272 262 L 273 261 L 276 261 L 279 261 L 279 261 L 279 260 L 282 260 L 283 260 L 284 259 L 284 259 L 285 259 L 285 259 L 285 258 L 285 258 L 285 258 L 286 258 L 286 257 L 286 257 L 286 257 L 286 256 L 287 256 L 288 256 L 288 256 L 288 255 L 288 255 L 289 255 L 289 254 L 289 254 L 289 254 L 289 254 L 289 253 L 289 253 L 289 253 L 292 253 L 294 252 L 294 252 L 294 252 L 301 251 L 302 251 L 304 251 L 306 251 L 312 250 L 313 250 L 314 250 L 314 250 L 314 249 L 314 249 L 314 249 L 314 248 L 315 248 L 315 248 L 321 248 L 322 247 L 324 247 L 329 247 L 332 247 L 334 246 L 336 246 L 339 246 L 339 245 L 345 245 L 352 245 L 352 245 L 356 244 L 356 244 L 360 244 L 361 243 L 363 243 L 363 243 L 363 243 L 363 242 L 365 242 L 366 242 L 368 242 L 370 241 L 371 241 L 371 241 L 372 240 L 374 240 L 377 240 L 377 240 L 379 239 L 382 239 L 383 239 L 383 239 L 384 238 L 384 238 L 385 238 L 387 237 L 389 237 L 391 237 L 392 237 L 393 236 L 396 236 L 397 236 L 398 236 L 402 235 L 402 235 L 405 235 L 405 234 L 406 234 L 407 234 L 407 234 L 408 233 L 409 233 L 410 233 L 412 232 L 413 232 L 413 232 L 413 232 L 418 231 L 418 231 L 419 231 L 419 231 L 419 230 L 420 230 L 420 230 L 420 229 L 420 229 L 422 229 L 422 229 L 423 228 L 423 228 L 424 228 L 424 228 L 425 227 L 425 227 L 425 227 L 425 226 L 425 226 L 426 226 L 426 226 L 426 225 L 426 225 L 427 225 L 428 225 L 428 224 L 428 224 L 429 224 L 429 223 L 430 223 L 431 223 L 431 223 L 431 222 L 432 222 L 433 222 L 433 221 L 434 221 L 435 221 L 435 221 L 435 220 L 436 220 L 436 220 L 436 220 L 436 219 L 436 219 L 437 219 L 437 218 L 440 218 L 440 218 L 441 218 L 441 217 L 443 217 L 444 217 L 444 217 L 446 216 L 448 216 L 449 216 L 451 215 L 451 215 L 452 215 L 452 215 L 452 214 L 452 214 L 452 214 L 453 214 L 453 213 L 453 213 L 453 213 L 454 212 L 455 212 L 455 212 L 455 212 L 456 211 L 456 211 L 458 211 L 458 210 L 458 210 L 459 210 L 460 210 L 461 209 L 466 209 L 466 209 L 466 209 L 466 208 L 467 208 L 469 208 L 469 207 L 469 207 L 469 207 L 470 207 L 471 206 L 473 206 L 474 206 L 474 206 L 474 205 L 475 205 L 475 205 L 475 204 L 475 204 L 477 204 L 480 204 L 480 203 L 483 203 L 483 203 L 483 203 L 486 202 L 487 202 L 489 202 L 490 201 L 491 201 L 492 201 L 492 201 L 492 200 L 492 200 L 492 200 L 492 199 L 493 199 L 493 199 L 493 199 L 494 198 L 494 198 L 494 198 L 495 198 L 496 197 L 496 197 L 499 197 L 500 196 L 503 196 L 505 196 L 505 196 L 505 195 L 506 195 L 508 195 L 509 195 L 509 194 L 509 194 L 509 194 L 509 193 L 509 193 L 509 193 L 510 193 L 510 192 L 510 192 L 510 192 L 510 192 L 511 191 L 511 191 L 512 191 L 512 190 L 512 190 L 513 190 L 514 190 L 514 189 L 514 189 L 514 189 L 515 188 L 517 188 L 517 188 L 517 188 L 517 187 L 517 187 L 518 187 L 518 187 L 518 186 L 519 186 L 520 186 L 522 185 L 524 185 L 525 185 L 526 185 L 529 184 L 531 184 L 531 184 L 533 184 L 536 183 L 536 183 L 536 183 L 540 182 L 541 182 L 541 182 L 542 182 L 542 181 L 548 181 L 548 181 L 549 181 L 549 180 L 549 180 L 550 180 L 550 179 L 551 179 L 551 179 L 552 179 L 552 178 L 552 178 L 552 178 L 552 177 L 552 177 L 553 177 L 553 177 L 553 176 L 553 176 L 554 176 L 555 176 L 556 175 L 556 175 L 556 175 L 557 174 L 557 174 L 558 174 L 558 174 L 559 173 L 559 173 L 559 173 L 559 173 L 560 172 L 560 172 L 561 172 L 561 171 L 562 171 L 563 171 L 563 171 L 563 170 L 563 170 L 563 170 L 564 170 L 564 169 L 564 169 L 565 169 L 565 168 L 566 168 L 566 168 L 566 168 L 566 167 L 567 167 L 567 167 L 567 166 L 567 166 L 567 166 L 568 166 L 568 165 L 568 165 L 569 165 L 569 165 L 569 164 L 569 164 L 569 164 L 569 163 L 570 163 L 570 163 L 570 163 L 570 162 L 570 162 L 572 162 L 573 162 L 574 161 L 574 161 L 574 161 L 574 160 L 576 160 L 576 160 L 577 160 L 577 159 L 579 159 L 581 159 L 581 159 L 582 158 L 582 158 L 582 158 L 583 157 L 583 157 L 584 157 L 584 157 L 584 156 L 584 156 L 584 156 L 584 155 L 584 155 L 584 155 L 584 155 L 584 154 L 585 154 L 585 154 L 585 154 L 585 153 L 586 153 L 586 153 L 587 152 L 588 152 L 588 152 L 588 152 L 589 151 L 589 151 L 590 151 L 592 151 L 592 150 L 592 150 L 592 150 L 592 149 L 594 149 L 596 149 L 596 149 L 597 148 L 597 148 L 597 148 L 598 148 L 598 147 L 602 147 L 603 147 L 605 146 L 607 146 L 607 146 L 608 146 L 609 145 L 609 145 L 609 145 L 609 144 L 610 144 L 610 144 L 610 144 L 611 143 L 612 143 L 613 143 L 613 143 L 613 142 L 613 142 L 613 142 L 613 141 L 613 141 L 613 141 L 613 141 L 613 140 L 613 140 L 613 140 L 613 140 L 613 139 L 613 139 L 613 139 L 613 138 L 614 138 L 614 138 L 614 138 L 614 137 L 614 137 L 614 137 L 614 137 L 615 136 L 615 136 L 615 136 L 616 135 L 616 135 L 616 135 L 616 135 L 616 134 L 616 134 L 617 134 L 618 133 L 619 133 L 620 133 L 620 133 L 621 132 L 621 132 L 621 132 L 622 132 L 623 131 L 624 131 L 625 131 L 625 130 L 625 130 L 625 130 L 625 130 L 625 129 L 625 129 L 626 129 L 627 129 L 627 128 L 630 128 L 631 128 L 632 127 L 634 127 L 635 127 L 635 127 L 635 126 L 635 126 L 636 126 L 636 126 L 636 125 L 636 125 L 637 125 L 637 124 L 638 124 L 638 124 L 638 124 L 638 123 L 638 123 L 638 123 L 638 122 L 638 122 L 639 122 L 639 122 L 639 121 L 640 121 L 641 121 L 641 121 L 641 120 L 641 120 L 641 120 L 642 119 L 642 119 L 643 119 L 643 119 L 643 118 L 644 118 L 644 118 L 647 118 L 649 117 L 651 117 L 651 117 L 652 116 L 654 116 L 655 116 L 655 116 L 658 115 L 662 115 L 662 115 L 663 115 L 665 114 L 666 114 L 667 114 L 667 113 L 668 113 L 669 113 L 669 113 L 670 112 L 671 112 L 672 112 L 672 111 L 673 111 L 673 111 L 673 111 L 673 110 L 674 110 L 677 110 L 677 110 L 678 109 L 679 109 L 679 109 L 680 108 L 681 108 L 681 108 L 681 108 L 682 107 L 682 107 L 682 107 L 683 107 L 683 106 L 684 106 L 685 106 L 685 105 L 685 105 L 686 105 L 686 105 L 686 104 L 687 104 L 687 104 L 688 104 L 688 103 L 688 103 L 688 103 L 688 102 L 688 102 L 690 102 L 691 102 L 692 101 L 694 101 L 695 101 L 696 100 L 696 100 L 698 100 L 700 100 L 702 99 L 703 99 L 704 99 L 704 99 L 705 98 L 707 98 L 709 98 L 709 97 L 709 97 L 709 97 L 709 97 L 709 96 L 710 96 L 711 96 L 712 96 L 712 95 L 712 95 L 712 95 L 717 94 L 718 94 L 719 94 L 720 94 L 721 93 L 722 93 L 722 93 L 723 92 L 723 92 L 723 92 L 724 92 L 725 91 L 725 91 L 725 91 L 726 91 L 726 90 L 726 90 L 727 90 L 728 89 L 730 89 L 731 89 L 735 89 L 735 88 L 735 88 L 736 88 L 737 88 L 737 87 L 737 87 L 737 87 L 740 86 L 741 86 L 742 86 L 742 86 L 743 85 L 743 85 L 744 85 L 745 85 L 747 84 L 747 84 L 747 84 L 747 83 L 748 83 L 748 83 L 748 83 L 749 82 L 749 82 L 749 82 L 751 82 L 751 81 L 752 81 L 752 81 L 752 80 L 752 80 L 753 80 L 753 80 L 756 79 L 759 79 L 759 79 L 762 78 L 763 78 L 765 78 L 765 78 L 766 77 L 766 77 L 767 77 L 768 77 L 769 76 L 771 76 L 771 76 L 774 75 L 778 75 L 778 75 L 778 75 L 779 74 L 779 74 L 780 74 L 780 74 L 780 73 L 788 73 L 790 73 L 790 72 L 791 72 L 793 72 L 795 72 L 796 71 L 797 71 L 797 71 L 798 71 L 799 70 L 803 70 L 804 70 L 805 69 L 806 69 L 808 69 L 809 69 L 809 68 L 809 68 L 809 68 L 810 67 L 810 67 L 811 67 L 813 67 L 814 66 L 814 66 L 815 66 L 817 66 L 819 65 L 821 65 L 821 65 L 823 64 L 823 64 L 823 64 L 823 64 L 823 63 L 824 63 L 824 63 L 825 63 L 827 62 L 827 62 L 827 62 L 827 61 L 827 61 L 828 61 L 828 61 L 828 60 L 828 60 L 828 60 L 828 60 L 828 59 L 829 59 L 829 59 L 830 58 L 830 58 L 830 58 L 830 58 L 830 57 L 831 57 L 836 57 L 837 56 L 838 56 L 838 56 L 838 56 L 838 55 L 838 55 L 838 55 L 838 55 L 838 54 L 838 54 L 838 54 L 839 53 L 839 53 L 839 53 L 839 53 L 839 52 L 839 52 L 839 52 L 839 52 L 839 51 L 840 51 L 840 51 L 840 50 L 841 50 L 841 50 L 842 50 L 843 49 L 844 49 L 844 49 L 845 49 L 845 48 L 847 48 L 847 48 L 847 47 L 848 47 L 849 47 L 850 47 L 850 46 L 851 46 L 852 46 L 852 45 L 854 45 L 854 45 L 855 45 L 856 44 L 857 44 L 857 44 L 857 44 L 858 43 L 859 43 L 859 43 L 860 42 L 861 42 L 862 42 L 864 42 L 867 41 L 868 41 L 868 41 L 872 41 L 872 40 L 872 40 L 873 40 L 873 39 L 873 39 L 874 39 L 875 39 L 876 38 L 877 38 L 877 38 L 877 38 L 877 37 L 878 37 L 878 37 L 882 36 L 882 36 L 883 36 L 884 36 L 885 35 L 886 35 L 891 35 L 892 34 L 892 34 L 893 34 L 893 34 L 894 33 L 895 33 L 896 33 L 896 33 L 896 32 L 896 32 L 896 32 L 900 31 L 902 31 L 902 31 L 904 31 L 905 30 L 905 30 L 906 30 L 906 30 L 906 29 L 907 29 L 907 29 L 909 28 L 909 28 L 911 28 L 911 28 L 911 27 L 911 27 L 915 27 L 915 27 L 916 26 L 917 26 L 918 26 L 921 25 L 924 25 L 928 25 L 929 25 L 931 24 L 932 24 L 932 24 L 933 23 L 933 23 L 936 23 L 936 23 L 937 22 L 937 22 L 937 22 L 937 22 L 937 21"></path><path stroke-width="2" d="M 937 346 L 937.000000 15.000000" /><path d="M 937 346 L 937.000000 15.000000" stroke-width="2"></path><path stroke-width="2" d="M 937 346 L 942 346" /><path stroke-width="2" d="M 937 346 L 942 346"></path><text x="947" y="352" xmlns="http://www.w3.org/2000/svg">0</text><path d="M 937 307 L 942 307" stroke-width="2" /><path d="M 937 307 L 942 307" stroke-width="2"></path><text xmlns="http://www.w3.org/2000/svg" x="947" y="313">140</text><path stroke-width="2" d="M 937 271 L 942 271" /><path d="M 937 271 L 942 271" stroke-width="2"></path><text xmlns="http://www.w3.org/2000/svg" x="947" y="277">270</text><path stroke-width="2" d="M 937 236 L 942 236" /><path stroke-width="2" d="M 937 236 L 942 236"></path><text x="947" y="242" xmlns="http://www.w3.org/2000/svg">400</text><path stroke-width="2" d="M 937 197 L 942 197" /><path stroke-width="2" d="M 937 197 L 942 197"></path><text y="203" xmlns="http://www.w3.org/2000/svg" x="947">540</text><path stroke-width="2" d="M 937 161 L 942 161" /><path stroke-width="2" d="M 937 161 L 942 161"></path><text y="167" xmlns="http://www.w3.org/2000/svg" x="947">670</text><path stroke-width="2" d="M 937 126 L 942 126" /><path stroke-width="2" d="M 937 126 L 942 126"></path><text xmlns="http://www.w3.org/2000/svg" x="947" y="132">800</text><path stroke-width="2" d="M 937 87 L 942 87" /><path stroke-width="2" d="M 937 87 L 942 87"></path><text xmlns="http://www.w3.org/2000/svg" x="947" y="93">940</text><path stroke-width="2" d="M 937 51 L 942 51" /><path stroke-width="2" d="M 937 51 L 942 51"></path><text xmlns="http://www.w3.org/2000/svg" x="947" y="57">1070</text><path stroke-width="2" d="M 937 16 L 942 16" /><path stroke-width="2" d="M 937 16 L 942 16"></path><text xmlns="http://www.w3.org/2000/svg" x="947" y="22">1200</text><text xmlns="http://www.w3.org/2000/svg" x="987" y="175" transform="rotate(90.00,987,175)">Stargazers</text><path stroke-width="2" d="M 57.000000 346.000000 L 937 346" /><path stroke-width="2" d="M 57.000000 346.000000 L 937 346"></path><path stroke-width="2" d="M 58 346 L 58 351" /><path stroke-width="2" d="M 58 346 L 58 351"></path><text xmlns="http://www.w3.org/2000/svg" x="25" y="368">2023-04-02</text><path stroke-width="2" d="M 156 346 L 156 351" /><path stroke-width="2" d="M 156 346 L 156 351"></path><text xmlns="http://www.w3.org/2000/svg" x="123" y="368">2023-07-21</text><path stroke-width="2" d="M 254 346 L 254 351" /><path stroke-width="2" d="M 254 346 L 254 351"></path><text xmlns="http://www.w3.org/2000/svg" x="221" y="368">2023-11-09</text><path stroke-width="2" d="M 352 346 L 352 351" /><path stroke-width="2" d="M 352 346 L 352 351"></path><text xmlns="http://www.w3.org/2000/svg" x="319" y="368">2024-02-27</text><path d="M 449 346 L 449 351" stroke-width="2" /><path stroke-width="2" d="M 449 346 L 449 351"></path><text y="368" xmlns="http://www.w3.org/2000/svg" x="416">2024-06-17</text><path stroke-width="2" d="M 547 346 L 547 351" /><path d="M 547 346 L 547 351" stroke-width="2"></path><text xmlns="http://www.w3.org/2000/svg" x="514" y="368">2024-10-06</text><path d="M 645 346 L 645 351" stroke-width="2" /><path stroke-width="2" d="M 645 346 L 645 351"></path><text x="612" y="368" xmlns="http://www.w3.org/2000/svg">2025-01-24</text><path stroke-width="2" d="M 742 346 L 742 351" /><path stroke-width="2" d="M 742 346 L 742 351"></path><text xmlns="http://www.w3.org/2000/svg" x="709" y="368">2025-05-15</text><path stroke-width="2" d="M 840 346 L 840 351" /><path d="M 840 346 L 840 351" stroke-width="2"></path><text xmlns="http://www.w3.org/2000/svg" x="807" y="368">2025-09-02</text><path stroke-width="2" d="M 937 346 L 937 351" /><path stroke-width="2" d="M 937 346 L 937 351"></path><text xmlns="http://www.w3.org/2000/svg" x="904" y="368">2025-12-22</text><text y="390" xmlns="http://www.w3.org/2000/svg" x="483">Time</text></svg>