<svg height="400px" xmlns="http://www.w3.org/2000/svg" xmlns:xlink="http://www.w3.org/1999/xlink" width="1024px"><style type="text/css">
path { fill: none; stroke: rgb(51,51,51); }
path.series { stroke: #6b63ff; }
rect.background { fill: rgb(255,255,255); stroke: none; }

text {
	stroke-width: 0;
	stroke: none;
	fill: rgba(51,51,51,1.0);
	font-size: 12.8px;
	font-family: 'Roboto Medium', sans-serif;
}
</style><rect x="0" y="0" width="1024px" height="400px" class="background" rx="8" /><rect height="400px" class="background" rx="8" x="0" y="0" width="1024px"></rect><path stroke-width="2" class="series" d="M 58 345 L 60 345 L 73 345 L 73 344 L 73 344 L 73 344 L 73 343 L 73 343 L 73 343 L 73 343 L 73 342 L 73 342 L 73 342 L 73 341 L 73 341 L 73 341 L 74 340 L 74 340 L 74 340 L 74 340 L 75 339 L 75 339 L 76 339 L 76 338 L 76 338 L 76 338 L 77 337 L 78 337 L 79 337 L 79 337 L 80 336 L 81 336 L 85 336 L 85 335 L 85 335 L 85 335 L 85 334 L 87 334 L 88 334 L 89 334 L 91 333 L 94 333 L 95 333 L 100 332 L 102 332 L 105 332 L 108 331 L 109 331 L 121 331 L 121 331 L 121 330 L 123 330 L 123 330 L 123 329 L 123 329 L 123 329 L 123 328 L 123 328 L 123 328 L 123 328 L 124 327 L 124 327 L 124 327 L 124 326 L 124 326 L 124 326 L 124 325 L 124 325 L 124 325 L 124 325 L 124 324 L 124 324 L 124 324 L 124 323 L 124 323 L 124 323 L 124 322 L 124 322 L 124 322 L 124 322 L 124 321 L 124 321 L 124 321 L 124 320 L 124 320 L 124 320 L 124 319 L 124 319 L 124 319 L 124 319 L 124 318 L 124 318 L 124 318 L 124 317 L 124 317 L 124 317 L 124 316 L 125 316 L 125 316 L 125 316 L 125 315 L 125 315 L 125 315 L 125 314 L 125 314 L 126 314 L 126 313 L 126 313 L 126 313 L 126 313 L 126 312 L 126 312 L 126 312 L 126 311 L 126 311 L 126 311 L 126 310 L 126 310 L 126 310 L 126 310 L 126 309 L 126 309 L 126 309 L 127 308 L 127 308 L 127 308 L 127 307 L 130 307 L 130 307 L 130 307 L 131 306 L 131 306 L 133 306 L 135 305 L 136 305 L 137 305 L 138 304 L 139 304 L 139 304 L 140 304 L 142 303 L 142 303 L 142 303 L 143 302 L 144 302 L 144 302 L 145 301 L 145 301 L 145 301 L 146 301 L 147 300 L 147 300 L 147 300 L 148 299 L 148 299 L 148 299 L 150 298 L 151 298 L 152 298 L 153 298 L 154 297 L 154 297 L 154 297 L 155 296 L 156 296 L 161 296 L 161 295 L 162 295 L 166 295 L 166 295 L 166 294 L 167 294 L 167 294 L 167 293 L 169 293 L 170 293 L 170 292 L 176 292 L 177 292 L 178 292 L 180 291 L 181 291 L 181 291 L 182 290 L 186 290 L 190 290 L 195 289 L 196 289 L 196 289 L 196 289 L 196 288 L 197 288 L 204 288 L 207 287 L 208 287 L 210 287 L 211 286 L 211 286 L 219 286 L 219 286 L 219 285 L 219 285 L 220 285 L 222 284 L 223 284 L 225 284 L 226 283 L 227 283 L 232 283 L 232 283 L 233 282 L 233 282 L 233 282 L 233 281 L 235 281 L 240 281 L 249 280 L 253 280 L 255 280 L 255 280 L 257 279 L 257 279 L 257 279 L 257 278 L 257 278 L 257 278 L 257 277 L 257 277 L 257 277 L 257 277 L 257 276 L 257 276 L 257 276 L 258 275 L 258 275 L 260 275 L 260 274 L 260 274 L 260 274 L 261 274 L 261 273 L 261 273 L 261 273 L 261 272 L 261 272 L 261 272 L 262 271 L 262 271 L 263 271 L 263 271 L 263 270 L 263 270 L 263 270 L 264 269 L 264 269 L 264 269 L 265 268 L 265 268 L 265 268 L 266 268 L 267 267 L 267 267 L 268 267 L 270 266 L 270 266 L 271 266 L 271 265 L 271 265 L 271 265 L 271 265 L 272 264 L 273 264 L 274 264 L 274 263 L 275 263 L 276 263 L 277 262 L 278 262 L 279 262 L 280 262 L 280 261 L 281 261 L 281 261 L 284 260 L 285 260 L 285 260 L 288 259 L 290 259 L 292 259 L 293 259 L 293 258 L 294 258 L 294 258 L 294 257 L 297 257 L 298 257 L 300 256 L 300 256 L 302 256 L 302 256 L 302 255 L 302 255 L 302 255 L 302 254 L 303 254 L 303 254 L 303 253 L 304 253 L 304 253 L 308 253 L 312 252 L 312 252 L 312 252 L 314 251 L 316 251 L 316 251 L 317 250 L 318 250 L 319 250 L 319 250 L 319 249 L 319 249 L 319 249 L 319 248 L 319 248 L 319 248 L 319 247 L 320 247 L 322 247 L 322 247 L 322 246 L 322 246 L 322 246 L 322 245 L 322 245 L 323 245 L 323 244 L 323 244 L 323 244 L 323 244 L 323 243 L 326 243 L 328 243 L 328 242 L 329 242 L 337 242 L 338 241 L 340 241 L 342 241 L 349 241 L 351 240 L 351 240 L 351 240 L 351 239 L 351 239 L 351 239 L 351 238 L 352 238 L 353 238 L 359 238 L 361 237 L 363 237 L 368 237 L 372 236 L 374 236 L 376 236 L 380 235 L 380 235 L 387 235 L 395 235 L 395 234 L 400 234 L 400 234 L 404 233 L 405 233 L 407 233 L 407 232 L 408 232 L 408 232 L 410 232 L 411 231 L 413 231 L 416 231 L 416 230 L 417 230 L 418 230 L 420 229 L 423 229 L 423 229 L 426 229 L 429 228 L 430 228 L 430 228 L 431 227 L 432 227 L 433 227 L 435 226 L 437 226 L 439 226 L 441 226 L 441 225 L 445 225 L 446 225 L 448 224 L 452 224 L 452 224 L 456 223 L 456 223 L 456 223 L 457 223 L 458 222 L 459 222 L 460 222 L 461 221 L 464 221 L 464 221 L 464 220 L 465 220 L 471 220 L 471 220 L 471 219 L 472 219 L 472 219 L 472 218 L 473 218 L 473 218 L 473 217 L 475 217 L 475 217 L 476 217 L 477 216 L 477 216 L 478 216 L 478 215 L 478 215 L 479 215 L 479 214 L 479 214 L 480 214 L 480 214 L 480 213 L 480 213 L 481 213 L 482 212 L 482 212 L 482 212 L 483 211 L 483 211 L 484 211 L 485 211 L 485 210 L 486 210 L 487 210 L 488 209 L 488 209 L 488 209 L 489 208 L 490 208 L 490 208 L 490 208 L 491 207 L 491 207 L 491 207 L 491 206 L 492 206 L 492 206 L 493 205 L 495 205 L 496 205 L 497 205 L 497 204 L 499 204 L 500 204 L 501 203 L 502 203 L 504 203 L 506 202 L 508 202 L 509 202 L 509 202 L 509 201 L 509 201 L 510 201 L 510 200 L 510 200 L 511 200 L 511 199 L 511 199 L 511 199 L 512 199 L 513 198 L 513 198 L 514 198 L 514 197 L 516 197 L 517 197 L 517 196 L 517 196 L 518 196 L 520 196 L 525 195 L 525 195 L 525 195 L 525 194 L 527 194 L 529 194 L 529 193 L 529 193 L 529 193 L 530 193 L 531 192 L 534 192 L 534 192 L 534 191 L 534 191 L 536 191 L 536 190 L 536 190 L 536 190 L 539 190 L 541 189 L 541 189 L 545 189 L 545 188 L 546 188 L 548 188 L 549 187 L 551 187 L 553 187 L 554 187 L 555 186 L 555 186 L 555 186 L 556 185 L 556 185 L 556 185 L 557 184 L 557 184 L 557 184 L 558 184 L 558 183 L 558 183 L 559 183 L 559 182 L 560 182 L 564 182 L 564 181 L 568 181 L 570 181 L 570 181 L 571 180 L 571 180 L 574 180 L 574 179 L 574 179 L 575 179 L 575 178 L 575 178 L 575 178 L 575 178 L 576 177 L 576 177 L 576 177 L 576 176 L 576 176 L 577 176 L 577 175 L 578 175 L 578 175 L 579 175 L 579 174 L 580 174 L 580 174 L 580 173 L 581 173 L 582 173 L 584 172 L 584 172 L 584 172 L 584 172 L 584 171 L 585 171 L 585 171 L 585 170 L 586 170 L 588 170 L 590 169 L 592 169 L 593 169 L 594 169 L 597 168 L 600 168 L 600 168 L 603 167 L 606 167 L 606 167 L 606 166 L 610 166 L 611 166 L 612 166 L 612 165 L 612 165 L 619 165 L 620 164 L 620 164 L 620 164 L 621 163 L 621 163 L 622 163 L 623 163 L 623 162 L 624 162 L 624 162 L 624 161 L 624 161 L 625 161 L 625 160 L 625 160 L 625 160 L 625 160 L 625 159 L 626 159 L 628 159 L 628 158 L 629 158 L 629 158 L 629 157 L 630 157 L 631 157 L 631 157 L 632 156 L 632 156 L 632 156 L 632 155 L 633 155 L 634 155 L 635 154 L 635 154 L 636 154 L 636 154 L 636 153 L 637 153 L 637 153 L 637 152 L 637 152 L 638 152 L 638 151 L 639 151 L 639 151 L 640 151 L 640 150 L 640 150 L 641 150 L 641 149 L 641 149 L 642 149 L 642 148 L 642 148 L 643 148 L 643 148 L 643 147 L 643 147 L 644 147 L 644 146 L 644 146 L 644 146 L 644 145 L 645 145 L 645 145 L 645 145 L 645 144 L 645 144 L 647 144 L 648 143 L 650 143 L 650 143 L 650 142 L 650 142 L 651 142 L 652 142 L 652 141 L 653 141 L 655 141 L 657 140 L 657 140 L 658 140 L 659 139 L 659 139 L 660 139 L 660 139 L 660 138 L 660 138 L 660 138 L 660 137 L 660 137 L 661 137 L 661 136 L 661 136 L 661 136 L 661 136 L 661 135 L 662 135 L 662 135 L 662 134 L 663 134 L 663 134 L 665 133 L 665 133 L 665 133 L 665 132 L 666 132 L 666 132 L 667 132 L 670 131 L 670 131 L 670 131 L 670 130 L 670 130 L 672 130 L 674 130 L 674 129 L 676 129 L 676 129 L 676 128 L 676 128 L 677 128 L 681 127 L 683 127 L 685 127 L 687 126 L 687 126 L 688 126 L 689 126 L 689 125 L 690 125 L 690 125 L 690 124 L 691 124 L 691 124 L 691 124 L 692 123 L 694 123 L 694 123 L 694 122 L 694 122 L 694 122 L 694 121 L 694 121 L 694 121 L 694 121 L 694 120 L 694 120 L 694 120 L 694 119 L 694 119 L 694 119 L 694 118 L 695 118 L 695 118 L 695 118 L 695 117 L 695 117 L 696 117 L 696 116 L 696 116 L 696 116 L 696 115 L 696 115 L 697 115 L 697 115 L 697 114 L 697 114 L 697 114 L 697 113 L 698 113 L 700 113 L 701 112 L 701 112 L 702 112 L 703 112 L 703 111 L 703 111 L 704 111 L 706 110 L 707 110 L 708 110 L 708 109 L 708 109 L 708 109 L 708 109 L 708 108 L 708 108 L 709 108 L 710 107 L 710 107 L 713 107 L 714 106 L 716 106 L 718 106 L 719 106 L 719 105 L 719 105 L 719 105 L 720 104 L 720 104 L 721 104 L 721 103 L 721 103 L 722 103 L 722 103 L 722 102 L 723 102 L 723 102 L 723 101 L 723 101 L 723 101 L 723 100 L 723 100 L 724 100 L 724 100 L 725 99 L 726 99 L 726 99 L 726 98 L 727 98 L 727 98 L 727 97 L 728 97 L 728 97 L 728 97 L 729 96 L 729 96 L 730 96 L 733 95 L 734 95 L 735 95 L 737 94 L 738 94 L 739 94 L 741 94 L 742 93 L 742 93 L 745 93 L 750 92 L 750 92 L 751 92 L 753 91 L 755 91 L 755 91 L 755 91 L 757 90 L 758 90 L 758 90 L 759 89 L 760 89 L 761 89 L 762 88 L 762 88 L 763 88 L 763 88 L 763 87 L 764 87 L 767 87 L 767 86 L 768 86 L 769 86 L 770 85 L 771 85 L 771 85 L 772 85 L 772 84 L 773 84 L 773 84 L 773 83 L 774 83 L 774 83 L 775 82 L 776 82 L 776 82 L 777 82 L 777 81 L 778 81 L 778 81 L 778 80 L 779 80 L 779 80 L 779 79 L 779 79 L 780 79 L 780 79 L 780 78 L 782 78 L 784 78 L 784 77 L 784 77 L 787 77 L 788 76 L 789 76 L 790 76 L 792 76 L 794 75 L 796 75 L 797 75 L 798 74 L 798 74 L 800 74 L 802 73 L 804 73 L 804 73 L 804 73 L 804 72 L 804 72 L 804 72 L 805 71 L 806 71 L 807 71 L 808 70 L 808 70 L 808 70 L 814 70 L 814 69 L 815 69 L 817 69 L 818 68 L 819 68 L 819 68 L 820 67 L 820 67 L 820 67 L 821 67 L 822 66 L 822 66 L 823 66 L 823 65 L 823 65 L 824 65 L 824 64 L 825 64 L 826 64 L 829 64 L 829 63 L 833 63 L 834 63 L 834 62 L 835 62 L 836 62 L 836 61 L 836 61 L 836 61 L 839 61 L 840 60 L 842 60 L 842 60 L 842 59 L 842 59 L 844 59 L 845 58 L 847 58 L 847 58 L 848 58 L 848 57 L 848 57 L 848 57 L 849 56 L 850 56 L 850 56 L 850 55 L 852 55 L 852 55 L 853 55 L 853 54 L 854 54 L 854 54 L 854 53 L 855 53 L 858 53 L 861 52 L 862 52 L 865 52 L 866 52 L 868 51 L 869 51 L 870 51 L 870 50 L 871 50 L 871 50 L 873 49 L 874 49 L 875 49 L 876 49 L 879 48 L 884 48 L 884 48 L 884 47 L 884 47 L 884 47 L 886 46 L 886 46 L 886 46 L 894 46 L 897 45 L 897 45 L 898 45 L 900 44 L 902 44 L 904 44 L 905 43 L 905 43 L 906 43 L 907 43 L 912 42 L 913 42 L 914 42 L 915 41 L 918 41 L 918 41 L 918 40 L 918 40 L 918 40 L 919 40 L 919 39 L 919 39 L 921 39 L 923 38 L 924 38 L 924 38 L 924 37 L 925 37 L 927 37 L 931 37 L 932 36 L 933 36 L 934 36 L 934 35 L 935 35 L 935 35 L 935 34 L 935 34 L 935 34 L 937 34" /><path stroke-width="2" class="series" d="M 58 345 L 60 345 L 73 345 L 73 344 L 73 344 L 73 344 L 73 343 L 73 343 L 73 343 L 73 343 L 73 342 L 73 342 L 73 342 L 73 341 L 73 341 L 73 341 L 74 340 L 74 340 L 74 340 L 74 340 L 75 339 L 75 339 L 76 339 L 76 338 L 76 338 L 76 338 L 77 337 L 78 337 L 79 337 L 79 337 L 80 336 L 81 336 L 85 336 L 85 335 L 85 335 L 85 335 L 85 334 L 87 334 L 88 334 L 89 334 L 91 333 L 94 333 L 95 333 L 100 332 L 102 332 L 105 332 L 108 331 L 109 331 L 121 331 L 121 331 L 121 330 L 123 330 L 123 330 L 123 329 L 123 329 L 123 329 L 123 328 L 123 328 L 123 328 L 123 328 L 124 327 L 124 327 L 124 327 L 124 326 L 124 326 L 124 326 L 124 325 L 124 325 L 124 325 L 124 325 L 124 324 L 124 324 L 124 324 L 124 323 L 124 323 L 124 323 L 124 322 L 124 322 L 124 322 L 124 322 L 124 321 L 124 321 L 124 321 L 124 320 L 124 320 L 124 320 L 124 319 L 124 319 L 124 319 L 124 319 L 124 318 L 124 318 L 124 318 L 124 317 L 124 317 L 124 317 L 124 316 L 125 316 L 125 316 L 125 316 L 125 315 L 125 315 L 125 315 L 125 314 L 125 314 L 126 314 L 126 313 L 126 313 L 126 313 L 126 313 L 126 312 L 126 312 L 126 312 L 126 311 L 126 311 L 126 311 L 126 310 L 126 310 L 126 310 L 126 310 L 126 309 L 126 309 L 126 309 L 127 308 L 127 308 L 127 308 L 127 307 L 130 307 L 130 307 L 130 307 L 131 306 L 131 306 L 133 306 L 135 305 L 136 305 L 137 305 L 138 304 L 139 304 L 139 304 L 140 304 L 142 303 L 142 303 L 142 303 L 143 302 L 144 302 L 144 302 L 145 301 L 145 301 L 145 301 L 146 301 L 147 300 L 147 300 L 147 300 L 148 299 L 148 299 L 148 299 L 150 298 L 151 298 L 152 298 L 153 298 L 154 297 L 154 297 L 154 297 L 155 296 L 156 296 L 161 296 L 161 295 L 162 295 L 166 295 L 166 295 L 166 294 L 167 294 L 167 294 L 167 293 L 169 293 L 170 293 L 170 292 L 176 292 L 177 292 L 178 292 L 180 291 L 181 291 L 181 291 L 182 290 L 186 290 L 190 290 L 195 289 L 196 289 L 196 289 L 196 289 L 196 288 L 197 288 L 204 288 L 207 287 L 208 287 L 210 287 L 211 286 L 211 286 L 219 286 L 219 286 L 219 285 L 219 285 L 220 285 L 222 284 L 223 284 L 225 284 L 226 283 L 227 283 L 232 283 L 232 283 L 233 282 L 233 282 L 233 282 L 233 281 L 235 281 L 240 281 L 249 280 L 253 280 L 255 280 L 255 280 L 257 279 L 257 279 L 257 279 L 257 278 L 257 278 L 257 278 L 257 277 L 257 277 L 257 277 L 257 277 L 257 276 L 257 276 L 257 276 L 258 275 L 258 275 L 260 275 L 260 274 L 260 274 L 260 274 L 261 274 L 261 273 L 261 273 L 261 273 L 261 272 L 261 272 L 261 272 L 262 271 L 262 271 L 263 271 L 263 271 L 263 270 L 263 270 L 263 270 L 264 269 L 264 269 L 264 269 L 265 268 L 265 268 L 265 268 L 266 268 L 267 267 L 267 267 L 268 267 L 270 266 L 270 266 L 271 266 L 271 265 L 271 265 L 271 265 L 271 265 L 272 264 L 273 264 L 274 264 L 274 263 L 275 263 L 276 263 L 277 262 L 278 262 L 279 262 L 280 262 L 280 261 L 281 261 L 281 261 L 284 260 L 285 260 L 285 260 L 288 259 L 290 259 L 292 259 L 293 259 L 293 258 L 294 258 L 294 258 L 294 257 L 297 257 L 298 257 L 300 256 L 300 256 L 302 256 L 302 256 L 302 255 L 302 255 L 302 255 L 302 254 L 303 254 L 303 254 L 303 253 L 304 253 L 304 253 L 308 253 L 312 252 L 312 252 L 312 252 L 314 251 L 316 251 L 316 251 L 317 250 L 318 250 L 319 250 L 319 250 L 319 249 L 319 249 L 319 249 L 319 248 L 319 248 L 319 248 L 319 247 L 320 247 L 322 247 L 322 247 L 322 246 L 322 246 L 322 246 L 322 245 L 322 245 L 323 245 L 323 244 L 323 244 L 323 244 L 323 244 L 323 243 L 326 243 L 328 243 L 328 242 L 329 242 L 337 242 L 338 241 L 340 241 L 342 241 L 349 241 L 351 240 L 351 240 L 351 240 L 351 239 L 351 239 L 351 239 L 351 238 L 352 238 L 353 238 L 359 238 L 361 237 L 363 237 L 368 237 L 372 236 L 374 236 L 376 236 L 380 235 L 380 235 L 387 235 L 395 235 L 395 234 L 400 234 L 400 234 L 404 233 L 405 233 L 407 233 L 407 232 L 408 232 L 408 232 L 410 232 L 411 231 L 413 231 L 416 231 L 416 230 L 417 230 L 418 230 L 420 229 L 423 229 L 423 229 L 426 229 L 429 228 L 430 228 L 430 228 L 431 227 L 432 227 L 433 227 L 435 226 L 437 226 L 439 226 L 441 226 L 441 225 L 445 225 L 446 225 L 448 224 L 452 224 L 452 224 L 456 223 L 456 223 L 456 223 L 457 223 L 458 222 L 459 222 L 460 222 L 461 221 L 464 221 L 464 221 L 464 220 L 465 220 L 471 220 L 471 220 L 471 219 L 472 219 L 472 219 L 472 218 L 473 218 L 473 218 L 473 217 L 475 217 L 475 217 L 476 217 L 477 216 L 477 216 L 478 216 L 478 215 L 478 215 L 479 215 L 479 214 L 479 214 L 480 214 L 480 214 L 480 213 L 480 213 L 481 213 L 482 212 L 482 212 L 482 212 L 483 211 L 483 211 L 484 211 L 485 211 L 485 210 L 486 210 L 487 210 L 488 209 L 488 209 L 488 209 L 489 208 L 490 208 L 490 208 L 490 208 L 491 207 L 491 207 L 491 207 L 491 206 L 492 206 L 492 206 L 493 205 L 495 205 L 496 205 L 497 205 L 497 204 L 499 204 L 500 204 L 501 203 L 502 203 L 504 203 L 506 202 L 508 202 L 509 202 L 509 202 L 509 201 L 509 201 L 510 201 L 510 200 L 510 200 L 511 200 L 511 199 L 511 199 L 511 199 L 512 199 L 513 198 L 513 198 L 514 198 L 514 197 L 516 197 L 517 197 L 517 196 L 517 196 L 518 196 L 520 196 L 525 195 L 525 195 L 525 195 L 525 194 L 527 194 L 529 194 L 529 193 L 529 193 L 529 193 L 530 193 L 531 192 L 534 192 L 534 192 L 534 191 L 534 191 L 536 191 L 536 190 L 536 190 L 536 190 L 539 190 L 541 189 L 541 189 L 545 189 L 545 188 L 546 188 L 548 188 L 549 187 L 551 187 L 553 187 L 554 187 L 555 186 L 555 186 L 555 186 L 556 185 L 556 185 L 556 185 L 557 184 L 557 184 L 557 184 L 558 184 L 558 183 L 558 183 L 559 183 L 559 182 L 560 182 L 564 182 L 564 181 L 568 181 L 570 181 L 570 181 L 571 180 L 571 180 L 574 180 L 574 179 L 574 179 L 575 179 L 575 178 L 575 178 L 575 178 L 575 178 L 576 177 L 576 177 L 576 177 L 576 176 L 576 176 L 577 176 L 577 175 L 578 175 L 578 175 L 579 175 L 579 174 L 580 174 L 580 174 L 580 173 L 581 173 L 582 173 L 584 172 L 584 172 L 584 172 L 584 172 L 584 171 L 585 171 L 585 171 L 585 170 L 586 170 L 588 170 L 590 169 L 592 169 L 593 169 L 594 169 L 597 168 L 600 168 L 600 168 L 603 167 L 606 167 L 606 167 L 606 166 L 610 166 L 611 166 L 612 166 L 612 165 L 612 165 L 619 165 L 620 164 L 620 164 L 620 164 L 621 163 L 621 163 L 622 163 L 623 163 L 623 162 L 624 162 L 624 162 L 624 161 L 624 161 L 625 161 L 625 160 L 625 160 L 625 160 L 625 160 L 625 159 L 626 159 L 628 159 L 628 158 L 629 158 L 629 158 L 629 157 L 630 157 L 631 157 L 631 157 L 632 156 L 632 156 L 632 156 L 632 155 L 633 155 L 634 155 L 635 154 L 635 154 L 636 154 L 636 154 L 636 153 L 637 153 L 637 153 L 637 152 L 637 152 L 638 152 L 638 151 L 639 151 L 639 151 L 640 151 L 640 150 L 640 150 L 641 150 L 641 149 L 641 149 L 642 149 L 642 148 L 642 148 L 643 148 L 643 148 L 643 147 L 643 147 L 644 147 L 644 146 L 644 146 L 644 146 L 644 145 L 645 145 L 645 145 L 645 145 L 645 144 L 645 144 L 647 144 L 648 143 L 650 143 L 650 143 L 650 142 L 650 142 L 651 142 L 652 142 L 652 141 L 653 141 L 655 141 L 657 140 L 657 140 L 658 140 L 659 139 L 659 139 L 660 139 L 660 139 L 660 138 L 660 138 L 660 138 L 660 137 L 660 137 L 661 137 L 661 136 L 661 136 L 661 136 L 661 136 L 661 135 L 662 135 L 662 135 L 662 134 L 663 134 L 663 134 L 665 133 L 665 133 L 665 133 L 665 132 L 666 132 L 666 132 L 667 132 L 670 131 L 670 131 L 670 131 L 670 130 L 670 130 L 672 130 L 674 130 L 674 129 L 676 129 L 676 129 L 676 128 L 676 128 L 677 128 L 681 127 L 683 127 L 685 127 L 687 126 L 687 126 L 688 126 L 689 126 L 689 125 L 690 125 L 690 125 L 690 124 L 691 124 L 691 124 L 691 124 L 692 123 L 694 123 L 694 123 L 694 122 L 694 122 L 694 122 L 694 121 L 694 121 L 694 121 L 694 121 L 694 120 L 694 120 L 694 120 L 694 119 L 694 119 L 694 119 L 694 118 L 695 118 L 695 118 L 695 118 L 695 117 L 695 117 L 696 117 L 696 116 L 696 116 L 696 116 L 696 115 L 696 115 L 697 115 L 697 115 L 697 114 L 697 114 L 697 114 L 697 113 L 698 113 L 700 113 L 701 112 L 701 112 L 702 112 L 703 112 L 703 111 L 703 111 L 704 111 L 706 110 L 707 110 L 708 110 L 708 109 L 708 109 L 708 109 L 708 109 L 708 108 L 708 108 L 709 108 L 710 107 L 710 107 L 713 107 L 714 106 L 716 106 L 718 106 L 719 106 L 719 105 L 719 105 L 719 105 L 720 104 L 720 104 L 721 104 L 721 103 L 721 103 L 722 103 L 722 103 L 722 102 L 723 102 L 723 102 L 723 101 L 723 101 L 723 101 L 723 100 L 723 100 L 724 100 L 724 100 L 725 99 L 726 99 L 726 99 L 726 98 L 727 98 L 727 98 L 727 97 L 728 97 L 728 97 L 728 97 L 729 96 L 729 96 L 730 96 L 733 95 L 734 95 L 735 95 L 737 94 L 738 94 L 739 94 L 741 94 L 742 93 L 742 93 L 745 93 L 750 92 L 750 92 L 751 92 L 753 91 L 755 91 L 755 91 L 755 91 L 757 90 L 758 90 L 758 90 L 759 89 L 760 89 L 761 89 L 762 88 L 762 88 L 763 88 L 763 88 L 763 87 L 764 87 L 767 87 L 767 86 L 768 86 L 769 86 L 770 85 L 771 85 L 771 85 L 772 85 L 772 84 L 773 84 L 773 84 L 773 83 L 774 83 L 774 83 L 775 82 L 776 82 L 776 82 L 777 82 L 777 81 L 778 81 L 778 81 L 778 80 L 779 80 L 779 80 L 779 79 L 779 79 L 780 79 L 780 79 L 780 78 L 782 78 L 784 78 L 784 77 L 784 77 L 787 77 L 788 76 L 789 76 L 790 76 L 792 76 L 794 75 L 796 75 L 797 75 L 798 74 L 798 74 L 800 74 L 802 73 L 804 73 L 804 73 L 804 73 L 804 72 L 804 72 L 804 72 L 805 71 L 806 71 L 807 71 L 808 70 L 808 70 L 808 70 L 814 70 L 814 69 L 815 69 L 817 69 L 818 68 L 819 68 L 819 68 L 820 67 L 820 67 L 820 67 L 821 67 L 822 66 L 822 66 L 823 66 L 823 65 L 823 65 L 824 65 L 824 64 L 825 64 L 826 64 L 829 64 L 829 63 L 833 63 L 834 63 L 834 62 L 835 62 L 836 62 L 836 61 L 836 61 L 836 61 L 839 61 L 840 60 L 842 60 L 842 60 L 842 59 L 842 59 L 844 59 L 845 58 L 847 58 L 847 58 L 848 58 L 848 57 L 848 57 L 848 57 L 849 56 L 850 56 L 850 56 L 850 55 L 852 55 L 852 55 L 853 55 L 853 54 L 854 54 L 854 54 L 854 53 L 855 53 L 858 53 L 861 52 L 862 52 L 865 52 L 866 52 L 868 51 L 869 51 L 870 51 L 870 50 L 871 50 L 871 50 L 873 49 L 874 49 L 875 49 L 876 49 L 879 48 L 884 48 L 884 48 L 884 47 L 884 47 L 884 47 L 886 46 L 886 46 L 886 46 L 894 46 L 897 45 L 897 45 L 898 45 L 900 44 L 902 44 L 904 44 L 905 43 L 905 43 L 906 43 L 907 43 L 912 42 L 913 42 L 914 42 L 915 41 L 918 41 L 918 41 L 918 40 L 918 40 L 918 40 L 919 40 L 919 39 L 919 39 L 921 39 L 923 38 L 924 38 L 924 38 L 924 37 L 925 37 L 927 37 L 931 37 L 932 36 L 933 36 L 934 36 L 934 35 L 935 35 L 935 35 L 935 34 L 935 34 L 935 34 L 937 34"></path><path d="M 937 346 L 937.000000 15.000000" stroke-width="2" /><path stroke-width="2" d="M 937 346 L 937.000000 15.000000"></path><path stroke-width="2" d="M 937 346 L 942 346" /><path stroke-width="2" d="M 937 346 L 942 346"></path><text xmlns="http://www.w3.org/2000/svg" x="947" y="352">0</text><path stroke-width="2" d="M 937 307 L 942 307" /><path stroke-width="2" d="M 937 307 L 942 307"></path><text xmlns="http://www.w3.org/2000/svg" x="947" y="313">130</text><path stroke-width="2" d="M 937 271 L 942 271" /><path stroke-width="2" d="M 937 271 L 942 271"></path><text y="277" xmlns="http://www.w3.org/2000/svg" x="947">250</text><path stroke-width="2" d="M 937 235 L 942 235" /><path stroke-width="2" d="M 937 235 L 942 235"></path><text y="241" xmlns="http://www.w3.org/2000/svg" x="947">370</text><path stroke-width="2" d="M 937 199 L 942 199" /><path stroke-width="2" d="M 937 199 L 942 199"></path><text xmlns="http://www.w3.org/2000/svg" x="947" y="205">490</text><path stroke-width="2" d="M 937 160 L 942 160" /><path stroke-width="2" d="M 937 160 L 942 160"></path><text xmlns="http://www.w3.org/2000/svg" x="947" y="166">620</text><path stroke-width="2" d="M 937 124 L 942 124" /><path stroke-width="2" d="M 937 124 L 942 124"></path><text xmlns="http://www.w3.org/2000/svg" x="947" y="130">740</text><path stroke-width="2" d="M 937 88 L 942 88" /><path stroke-width="2" d="M 937 88 L 942 88"></path><text xmlns="http://www.w3.org/2000/svg" x="947" y="94">860</text><path d="M 937 52 L 942 52" stroke-width="2" /><path stroke-width="2" d="M 937 52 L 942 52"></path><text xmlns="http://www.w3.org/2000/svg" x="947" y="58">980</text><path stroke-width="2" d="M 937 16 L 942 16" /><path stroke-width="2" d="M 937 16 L 942 16"></path><text y="22" xmlns="http://www.w3.org/2000/svg" x="947">1100</text><text xmlns="http://www.w3.org/2000/svg" x="987" y="175" transform="rotate(90.00,987,175)">Stargazers</text><path stroke-width="2" d="M 57.000000 346.000000 L 937 346" /><path stroke-width="2" d="M 57.000000 346.000000 L 937 346"></path><path stroke-width="2" d="M 58 346 L 58 351" /><path stroke-width="2" d="M 58 346 L 58 351"></path><text xmlns="http://www.w3.org/2000/svg" x="25" y="368">2023-04-02</text><path stroke-width="2" d="M 156 346 L 156 351" /><path stroke-width="2" d="M 156 346 L 156 351"></path><text xmlns="http://www.w3.org/2000/svg" x="123" y="368">2023-07-07</text><path stroke-width="2" d="M 254 346 L 254 351" /><path stroke-width="2" d="M 254 346 L 254 351"></path><text xmlns="http://www.w3.org/2000/svg" x="221" y="368">2023-10-12</text><path stroke-width="2" d="M 352 346 L 352 351" /><path stroke-width="2" d="M 352 346 L 352 351"></path><text x="319" y="368" xmlns="http://www.w3.org/2000/svg">2024-01-16</text><path stroke-width="2" d="M 449 346 L 449 351" /><path stroke-width="2" d="M 449 346 L 449 351"></path><text y="368" xmlns="http://www.w3.org/2000/svg" x="416">2024-04-22</text><path stroke-width="2" d="M 547 346 L 547 351" /><path stroke-width="2" d="M 547 346 L 547 351"></path><text xmlns="http://www.w3.org/2000/svg" x="514" y="368">2024-07-27</text><path stroke-width="2" d="M 645 346 L 645 351" /><path stroke-width="2" d="M 645 346 L 645 351"></path><text xmlns="http://www.w3.org/2000/svg" x="612" y="368">2024-11-01</text><path d="M 742 346 L 742 351" stroke-width="2" /><path stroke-width="2" d="M 742 346 L 742 351"></path><text xmlns="http://www.w3.org/2000/svg" x="709" y="368">2025-02-05</text><path stroke-width="2" d="M 840 346 L 840 351" /><path stroke-width="2" d="M 840 346 L 840 351"></path><text xmlns="http://www.w3.org/2000/svg" x="807" y="368">2025-05-12</text><path stroke-width="2" d="M 937 346 L 937 351" /><path stroke-width="2" d="M 937 346 L 937 351"></path><text x="904" y="368" xmlns="http://www.w3.org/2000/svg">2025-08-17</text><text y="390" xmlns="http://www.w3.org/2000/svg" x="483">Time</text></svg>