<svg xmlns="http://www.w3.org/2000/svg" xmlns:xlink="http://www.w3.org/1999/xlink" width="1024px" height="400px"><style type="text/css">
path { fill: none; stroke: rgb(51,51,51); }
path.series { stroke: #6b63ff; }
rect.background { fill: rgb(255,255,255); stroke: none; }

text {
	stroke-width: 0;
	stroke: none;
	fill: rgba(51,51,51,1.0);
	font-size: 12.8px;
	font-family: 'Roboto Medium', sans-serif;
}
</style><rect x="0" y="0" width="1024px" height="400px" class="background" rx="8" /><rect height="400px" class="background" rx="8" x="0" y="0" width="1024px"></rect><path stroke-width="2" class="series" d="M 58 345 L 61 345 L 76 344 L 77 344 L 77 344 L 77 343 L 77 343 L 77 343 L 77 342 L 77 342 L 77 341 L 77 341 L 77 341 L 77 340 L 77 340 L 77 340 L 77 339 L 78 339 L 78 338 L 79 338 L 79 338 L 79 337 L 80 337 L 81 337 L 81 336 L 81 336 L 82 335 L 83 335 L 84 335 L 84 334 L 85 334 L 87 334 L 91 333 L 91 333 L 92 332 L 92 332 L 92 332 L 94 331 L 96 331 L 97 331 L 99 330 L 103 330 L 104 329 L 111 329 L 113 329 L 117 328 L 121 328 L 123 328 L 137 327 L 138 327 L 138 326 L 140 326 L 140 326 L 140 325 L 140 325 L 140 325 L 140 324 L 140 324 L 140 323 L 140 323 L 140 323 L 140 322 L 140 322 L 141 322 L 141 321 L 141 321 L 141 320 L 141 320 L 141 320 L 141 319 L 141 319 L 141 319 L 141 318 L 141 318 L 141 317 L 141 317 L 141 317 L 141 316 L 141 316 L 141 316 L 141 315 L 141 315 L 141 314 L 141 314 L 141 314 L 141 313 L 141 313 L 141 313 L 141 312 L 141 312 L 141 311 L 141 311 L 141 311 L 141 310 L 141 310 L 141 310 L 141 309 L 142 309 L 142 308 L 142 308 L 142 308 L 142 307 L 142 307 L 143 307 L 143 306 L 143 306 L 143 305 L 143 305 L 144 305 L 144 304 L 144 304 L 144 304 L 144 303 L 144 303 L 144 302 L 144 302 L 144 302 L 144 301 L 144 301 L 144 301 L 144 300 L 144 300 L 144 299 L 145 299 L 145 299 L 145 298 L 145 298 L 149 298 L 149 297 L 149 297 L 150 296 L 150 296 L 153 296 L 155 295 L 156 295 L 158 295 L 158 294 L 160 294 L 160 293 L 161 293 L 163 293 L 163 292 L 164 292 L 165 292 L 166 291 L 167 291 L 167 290 L 167 290 L 167 290 L 168 289 L 170 289 L 170 289 L 170 288 L 171 288 L 171 287 L 172 287 L 173 287 L 174 286 L 177 286 L 177 286 L 178 285 L 179 285 L 179 284 L 179 284 L 181 284 L 187 283 L 187 283 L 188 283 L 194 282 L 194 282 L 195 281 L 195 281 L 195 281 L 196 280 L 198 280 L 199 280 L 199 279 L 206 279 L 207 278 L 209 278 L 211 278 L 213 277 L 213 277 L 214 277 L 219 276 L 224 276 L 231 275 L 231 275 L 231 275 L 232 274 L 232 274 L 233 274 L 242 273 L 246 273 L 246 272 L 249 272 L 250 272 L 251 271 L 260 271 L 260 271 L 261 270 L 261 270 L 262 269 L 265 269 L 266 269 L 268 268 L 269 268 L 271 268 L 277 267 L 277 267 L 278 266 L 278 266 L 278 266 L 279 265 L 281 265 L 287 265 L 299 264 L 303 264 L 305 263 L 306 263 L 307 263 L 308 262 L 308 262 L 308 262 L 308 261 L 308 261 L 309 260 L 309 260 L 309 260 L 309 259 L 309 259 L 309 259 L 309 258 L 309 258 L 309 257 L 310 257 L 311 257 L 312 256 L 312 256 L 312 256 L 312 255 L 314 255 L 314 254 L 314 254 L 314 254 L 314 253 L 314 253 L 314 253 L 315 252 L 315 252 L 316 251 L 316 251 L 316 251 L 316 250 L 316 250 L 317 250 L 317 249 L 317 249 L 318 248 L 318 248 L 319 248 L 319 247 L 320 247 L 321 247 L 321 246 L 323 246 L 325 245 L 325 245 L 326 245 L 326 244 L 326 244 L 326 244 L 326 243 L 328 243 L 328 242 L 330 242 L 330 242 L 331 241 L 333 241 L 334 241 L 334 240 L 337 240 L 337 239 L 338 239 L 339 239 L 339 238 L 343 238 L 344 238 L 344 237 L 348 237 L 349 236 L 353 236 L 354 236 L 354 235 L 355 235 L 356 235 L 356 234 L 358 234 L 361 233 L 362 233 L 362 233 L 364 232 L 365 232 L 365 232 L 365 231 L 365 231 L 366 230 L 366 230 L 366 230 L 367 229 L 367 229 L 367 229 L 368 228 L 372 228 L 377 227 L 377 227 L 377 227 L 381 226 L 383 226 L 383 226 L 384 225 L 385 225 L 386 224 L 386 224 L 386 224 L 386 223 L 386 223 L 387 223 L 387 222 L 387 222 L 387 221 L 388 221 L 390 221 L 390 220 L 390 220 L 390 220 L 391 219 L 391 219 L 391 218 L 391 218 L 391 218 L 391 217 L 391 217 L 391 217 L 391 216 L 395 216 L 398 215 L 398 215 L 399 215 L 409 214 L 410 214 L 413 214 L 416 213 L 422 213 L 424 212 L 426 212 L 427 212 L 427 211 L 427 211 L 427 211 L 427 210 L 427 210 L 427 209 L 428 209 L 429 209 L 437 208 L 439 208 L 442 208 L 448 207 L 453 207 L 456 206 L 459 206 L 463 206 L 463 205 L 473 205 L 482 205 L 482 204 L 488 204 L 488 203 L 494 203 L 495 203 L 497 202 L 497 202 L 498 202 L 498 201 L 501 201 L 502 200 L 505 200 L 509 200 L 509 199 L 510 199 L 511 199 L 514 198 L 518 198 L 518 197 L 522 197 L 526 197 L 526 196 L 526 196 L 528 196 L 529 195 L 530 195 L 533 194 L 536 194 L 538 194 L 541 193 L 541 193 L 546 193 L 547 192 L 549 192 L 554 191 L 554 191 L 559 191 L 559 190 L 559 190 L 561 190 L 561 189 L 563 189 L 564 188 L 566 188 L 569 188 L 569 187 L 570 187 L 570 187 L 578 186 L 578 186 L 578 185 L 579 185 L 579 185 L 580 184 L 580 184 L 580 184 L 581 183 L 583 183 L 583 182 L 584 182 L 585 182 L 586 181 L 586 181 L 587 181 L 587 180 L 588 180 L 588 179 L 588 179 L 589 179 L 589 178 L 589 178 L 589 178 L 590 177 L 592 177 L 592 176 L 592 176 L 593 176 L 593 175 L 595 175 L 596 175 L 596 174 L 597 174 L 598 173 L 599 173 L 599 173 L 600 172 L 600 172 L 602 172 L 602 171 L 602 171 L 603 170 L 603 170 L 603 170 L 603 169 L 604 169 L 604 169 L 605 168 L 608 168 L 610 167 L 611 167 L 611 167 L 613 166 L 615 166 L 615 166 L 617 165 L 620 165 L 622 164 L 625 164 L 626 164 L 626 163 L 626 163 L 626 163 L 627 162 L 627 162 L 627 161 L 628 161 L 628 161 L 628 160 L 629 160 L 630 160 L 631 159 L 631 159 L 632 158 L 632 158 L 635 158 L 635 157 L 635 157 L 636 157 L 637 156 L 640 156 L 642 155 L 646 155 L 646 155 L 646 154 L 647 154 L 649 154 L 651 153 L 651 153 L 651 152 L 651 152 L 652 152 L 654 151 L 657 151 L 658 151 L 658 150 L 658 150 L 660 149 L 660 149 L 660 149 L 660 148 L 663 148 L 667 148 L 667 147 L 671 147 L 671 146 L 672 146 L 675 146 L 677 145 L 679 145 L 681 145 L 683 144 L 684 144 L 684 143 L 684 143 L 685 143 L 685 142 L 685 142 L 686 142 L 686 141 L 686 141 L 687 140 L 687 140 L 687 140 L 688 139 L 689 139 L 690 139 L 695 138 L 695 138 L 700 137 L 702 137 L 703 137 L 704 136 L 704 136 L 707 136 L 707 135 L 708 135 L 708 134 L 709 134 L 709 134 L 709 133 L 709 133 L 709 132 L 710 132 L 710 132 L 710 131 L 710 131 L 710 131 L 711 130 L 711 130 L 711 130 L 713 129 L 713 129 L 714 128 L 714 128 L 715 128 L 716 127 L 716 127 L 716 126 L 718 126 L 720 126 L 720 125 L 720 125 L 721 125 L 721 124 L 722 124 L 722 124 L 722 123 L 723 123 L 725 122 L 728 122 L 731 122 L 732 121 L 733 121 L 737 121 L 741 120 L 741 120 L 744 119 L 748 119 L 748 119 L 748 118 L 753 118 L 755 118 L 755 117 L 756 117 L 756 116 L 765 116 L 765 116 L 766 115 L 766 115 L 767 115 L 767 114 L 769 114 L 769 113 L 769 113 L 770 113 L 770 112 L 771 112 L 771 112 L 771 111 L 771 111 L 772 110 L 772 110 L 772 110 L 772 109 L 774 109 L 775 109 L 776 108 L 776 108 L 777 107 L 777 107 L 778 107 L 779 106 L 779 106 L 780 106 L 780 105 L 781 105 L 781 104 L 782 104 L 783 104 L 784 103 L 784 103 L 785 103 L 786 102 L 786 102 L 787 101 L 787 101 L 787 101 L 788 100 L 788 100 L 788 100 L 789 99 L 789 99 L 791 98 L 791 98 L 791 98 L 792 97 L 792 97 L 792 97 L 793 96 L 793 96 L 793 95 L 794 95 L 794 95 L 795 94 L 795 94 L 796 94 L 796 93 L 796 93 L 796 92 L 796 92 L 797 92 L 797 91 L 797 91 L 797 91 L 797 90 L 800 90 L 801 89 L 803 89 L 803 89 L 803 88 L 803 88 L 805 88 L 806 87 L 806 87 L 807 86 L 809 86 L 812 86 L 812 85 L 814 85 L 815 85 L 815 84 L 816 84 L 816 83 L 816 83 L 816 83 L 816 82 L 816 82 L 817 82 L 817 81 L 817 81 L 817 80 L 817 80 L 817 80 L 818 79 L 818 79 L 818 79 L 818 78 L 819 78 L 819 77 L 819 77 L 820 77 L 822 76 L 822 76 L 823 76 L 823 75 L 824 75 L 824 74 L 825 74 L 828 74 L 829 73 L 829 73 L 829 73 L 829 72 L 829 72 L 831 71 L 834 71 L 834 71 L 836 70 L 836 70 L 836 70 L 837 69 L 837 69 L 843 68 L 845 68 L 848 68 L 849 67 L 850 67 L 852 67 L 853 66 L 853 66 L 853 65 L 853 65 L 854 65 L 855 64 L 855 64 L 855 64 L 857 63 L 859 63 L 859 62 L 859 62 L 859 62 L 859 61 L 859 61 L 859 61 L 859 60 L 859 60 L 859 59 L 859 59 L 859 59 L 859 58 L 859 58 L 859 58 L 859 57 L 859 57 L 860 56 L 860 56 L 861 56 L 861 55 L 861 55 L 861 55 L 861 54 L 862 54 L 862 53 L 862 53 L 863 53 L 863 52 L 863 52 L 863 52 L 863 51 L 863 51 L 864 50 L 866 50 L 868 50 L 868 49 L 868 49 L 870 49 L 870 48 L 870 48 L 871 47 L 873 47 L 875 47 L 876 46 L 876 46 L 876 46 L 876 45 L 876 45 L 876 44 L 876 44 L 878 44 L 879 43 L 879 43 L 883 43 L 885 42 L 886 42 L 889 41 L 890 41 L 891 41 L 891 40 L 891 40 L 891 40 L 892 39 L 892 39 L 893 38 L 893 38 L 894 38 L 894 37 L 895 37 L 895 37 L 895 36 L 895 36 L 895 35 L 895 35 L 895 35 L 896 34 L 896 34 L 896 34 L 898 33 L 899 33 L 899 32 L 899 32 L 900 32 L 900 31 L 901 31 L 901 31 L 902 30 L 902 30 L 902 29 L 903 29 L 904 29 L 908 28 L 909 28 L 910 28 L 913 27 L 914 27 L 915 26 L 919 26 L 919 26 L 920 25 L 923 25 L 929 25 L 929 24 L 931 24 L 933 23 L 936 23 L 936 23 L 936 22 L 938 22 L 939 22 L 940 21 L 941 21 L 942 20 L 944 20 L 945 20 L 945 19 L 945 19" /><path stroke-width="2" class="series" d="M 58 345 L 61 345 L 76 344 L 77 344 L 77 344 L 77 343 L 77 343 L 77 343 L 77 342 L 77 342 L 77 341 L 77 341 L 77 341 L 77 340 L 77 340 L 77 340 L 77 339 L 78 339 L 78 338 L 79 338 L 79 338 L 79 337 L 80 337 L 81 337 L 81 336 L 81 336 L 82 335 L 83 335 L 84 335 L 84 334 L 85 334 L 87 334 L 91 333 L 91 333 L 92 332 L 92 332 L 92 332 L 94 331 L 96 331 L 97 331 L 99 330 L 103 330 L 104 329 L 111 329 L 113 329 L 117 328 L 121 328 L 123 328 L 137 327 L 138 327 L 138 326 L 140 326 L 140 326 L 140 325 L 140 325 L 140 325 L 140 324 L 140 324 L 140 323 L 140 323 L 140 323 L 140 322 L 140 322 L 141 322 L 141 321 L 141 321 L 141 320 L 141 320 L 141 320 L 141 319 L 141 319 L 141 319 L 141 318 L 141 318 L 141 317 L 141 317 L 141 317 L 141 316 L 141 316 L 141 316 L 141 315 L 141 315 L 141 314 L 141 314 L 141 314 L 141 313 L 141 313 L 141 313 L 141 312 L 141 312 L 141 311 L 141 311 L 141 311 L 141 310 L 141 310 L 141 310 L 141 309 L 142 309 L 142 308 L 142 308 L 142 308 L 142 307 L 142 307 L 143 307 L 143 306 L 143 306 L 143 305 L 143 305 L 144 305 L 144 304 L 144 304 L 144 304 L 144 303 L 144 303 L 144 302 L 144 302 L 144 302 L 144 301 L 144 301 L 144 301 L 144 300 L 144 300 L 144 299 L 145 299 L 145 299 L 145 298 L 145 298 L 149 298 L 149 297 L 149 297 L 150 296 L 150 296 L 153 296 L 155 295 L 156 295 L 158 295 L 158 294 L 160 294 L 160 293 L 161 293 L 163 293 L 163 292 L 164 292 L 165 292 L 166 291 L 167 291 L 167 290 L 167 290 L 167 290 L 168 289 L 170 289 L 170 289 L 170 288 L 171 288 L 171 287 L 172 287 L 173 287 L 174 286 L 177 286 L 177 286 L 178 285 L 179 285 L 179 284 L 179 284 L 181 284 L 187 283 L 187 283 L 188 283 L 194 282 L 194 282 L 195 281 L 195 281 L 195 281 L 196 280 L 198 280 L 199 280 L 199 279 L 206 279 L 207 278 L 209 278 L 211 278 L 213 277 L 213 277 L 214 277 L 219 276 L 224 276 L 231 275 L 231 275 L 231 275 L 232 274 L 232 274 L 233 274 L 242 273 L 246 273 L 246 272 L 249 272 L 250 272 L 251 271 L 260 271 L 260 271 L 261 270 L 261 270 L 262 269 L 265 269 L 266 269 L 268 268 L 269 268 L 271 268 L 277 267 L 277 267 L 278 266 L 278 266 L 278 266 L 279 265 L 281 265 L 287 265 L 299 264 L 303 264 L 305 263 L 306 263 L 307 263 L 308 262 L 308 262 L 308 262 L 308 261 L 308 261 L 309 260 L 309 260 L 309 260 L 309 259 L 309 259 L 309 259 L 309 258 L 309 258 L 309 257 L 310 257 L 311 257 L 312 256 L 312 256 L 312 256 L 312 255 L 314 255 L 314 254 L 314 254 L 314 254 L 314 253 L 314 253 L 314 253 L 315 252 L 315 252 L 316 251 L 316 251 L 316 251 L 316 250 L 316 250 L 317 250 L 317 249 L 317 249 L 318 248 L 318 248 L 319 248 L 319 247 L 320 247 L 321 247 L 321 246 L 323 246 L 325 245 L 325 245 L 326 245 L 326 244 L 326 244 L 326 244 L 326 243 L 328 243 L 328 242 L 330 242 L 330 242 L 331 241 L 333 241 L 334 241 L 334 240 L 337 240 L 337 239 L 338 239 L 339 239 L 339 238 L 343 238 L 344 238 L 344 237 L 348 237 L 349 236 L 353 236 L 354 236 L 354 235 L 355 235 L 356 235 L 356 234 L 358 234 L 361 233 L 362 233 L 362 233 L 364 232 L 365 232 L 365 232 L 365 231 L 365 231 L 366 230 L 366 230 L 366 230 L 367 229 L 367 229 L 367 229 L 368 228 L 372 228 L 377 227 L 377 227 L 377 227 L 381 226 L 383 226 L 383 226 L 384 225 L 385 225 L 386 224 L 386 224 L 386 224 L 386 223 L 386 223 L 387 223 L 387 222 L 387 222 L 387 221 L 388 221 L 390 221 L 390 220 L 390 220 L 390 220 L 391 219 L 391 219 L 391 218 L 391 218 L 391 218 L 391 217 L 391 217 L 391 217 L 391 216 L 395 216 L 398 215 L 398 215 L 399 215 L 409 214 L 410 214 L 413 214 L 416 213 L 422 213 L 424 212 L 426 212 L 427 212 L 427 211 L 427 211 L 427 211 L 427 210 L 427 210 L 427 209 L 428 209 L 429 209 L 437 208 L 439 208 L 442 208 L 448 207 L 453 207 L 456 206 L 459 206 L 463 206 L 463 205 L 473 205 L 482 205 L 482 204 L 488 204 L 488 203 L 494 203 L 495 203 L 497 202 L 497 202 L 498 202 L 498 201 L 501 201 L 502 200 L 505 200 L 509 200 L 509 199 L 510 199 L 511 199 L 514 198 L 518 198 L 518 197 L 522 197 L 526 197 L 526 196 L 526 196 L 528 196 L 529 195 L 530 195 L 533 194 L 536 194 L 538 194 L 541 193 L 541 193 L 546 193 L 547 192 L 549 192 L 554 191 L 554 191 L 559 191 L 559 190 L 559 190 L 561 190 L 561 189 L 563 189 L 564 188 L 566 188 L 569 188 L 569 187 L 570 187 L 570 187 L 578 186 L 578 186 L 578 185 L 579 185 L 579 185 L 580 184 L 580 184 L 580 184 L 581 183 L 583 183 L 583 182 L 584 182 L 585 182 L 586 181 L 586 181 L 587 181 L 587 180 L 588 180 L 588 179 L 588 179 L 589 179 L 589 178 L 589 178 L 589 178 L 590 177 L 592 177 L 592 176 L 592 176 L 593 176 L 593 175 L 595 175 L 596 175 L 596 174 L 597 174 L 598 173 L 599 173 L 599 173 L 600 172 L 600 172 L 602 172 L 602 171 L 602 171 L 603 170 L 603 170 L 603 170 L 603 169 L 604 169 L 604 169 L 605 168 L 608 168 L 610 167 L 611 167 L 611 167 L 613 166 L 615 166 L 615 166 L 617 165 L 620 165 L 622 164 L 625 164 L 626 164 L 626 163 L 626 163 L 626 163 L 627 162 L 627 162 L 627 161 L 628 161 L 628 161 L 628 160 L 629 160 L 630 160 L 631 159 L 631 159 L 632 158 L 632 158 L 635 158 L 635 157 L 635 157 L 636 157 L 637 156 L 640 156 L 642 155 L 646 155 L 646 155 L 646 154 L 647 154 L 649 154 L 651 153 L 651 153 L 651 152 L 651 152 L 652 152 L 654 151 L 657 151 L 658 151 L 658 150 L 658 150 L 660 149 L 660 149 L 660 149 L 660 148 L 663 148 L 667 148 L 667 147 L 671 147 L 671 146 L 672 146 L 675 146 L 677 145 L 679 145 L 681 145 L 683 144 L 684 144 L 684 143 L 684 143 L 685 143 L 685 142 L 685 142 L 686 142 L 686 141 L 686 141 L 687 140 L 687 140 L 687 140 L 688 139 L 689 139 L 690 139 L 695 138 L 695 138 L 700 137 L 702 137 L 703 137 L 704 136 L 704 136 L 707 136 L 707 135 L 708 135 L 708 134 L 709 134 L 709 134 L 709 133 L 709 133 L 709 132 L 710 132 L 710 132 L 710 131 L 710 131 L 710 131 L 711 130 L 711 130 L 711 130 L 713 129 L 713 129 L 714 128 L 714 128 L 715 128 L 716 127 L 716 127 L 716 126 L 718 126 L 720 126 L 720 125 L 720 125 L 721 125 L 721 124 L 722 124 L 722 124 L 722 123 L 723 123 L 725 122 L 728 122 L 731 122 L 732 121 L 733 121 L 737 121 L 741 120 L 741 120 L 744 119 L 748 119 L 748 119 L 748 118 L 753 118 L 755 118 L 755 117 L 756 117 L 756 116 L 765 116 L 765 116 L 766 115 L 766 115 L 767 115 L 767 114 L 769 114 L 769 113 L 769 113 L 770 113 L 770 112 L 771 112 L 771 112 L 771 111 L 771 111 L 772 110 L 772 110 L 772 110 L 772 109 L 774 109 L 775 109 L 776 108 L 776 108 L 777 107 L 777 107 L 778 107 L 779 106 L 779 106 L 780 106 L 780 105 L 781 105 L 781 104 L 782 104 L 783 104 L 784 103 L 784 103 L 785 103 L 786 102 L 786 102 L 787 101 L 787 101 L 787 101 L 788 100 L 788 100 L 788 100 L 789 99 L 789 99 L 791 98 L 791 98 L 791 98 L 792 97 L 792 97 L 792 97 L 793 96 L 793 96 L 793 95 L 794 95 L 794 95 L 795 94 L 795 94 L 796 94 L 796 93 L 796 93 L 796 92 L 796 92 L 797 92 L 797 91 L 797 91 L 797 91 L 797 90 L 800 90 L 801 89 L 803 89 L 803 89 L 803 88 L 803 88 L 805 88 L 806 87 L 806 87 L 807 86 L 809 86 L 812 86 L 812 85 L 814 85 L 815 85 L 815 84 L 816 84 L 816 83 L 816 83 L 816 83 L 816 82 L 816 82 L 817 82 L 817 81 L 817 81 L 817 80 L 817 80 L 817 80 L 818 79 L 818 79 L 818 79 L 818 78 L 819 78 L 819 77 L 819 77 L 820 77 L 822 76 L 822 76 L 823 76 L 823 75 L 824 75 L 824 74 L 825 74 L 828 74 L 829 73 L 829 73 L 829 73 L 829 72 L 829 72 L 831 71 L 834 71 L 834 71 L 836 70 L 836 70 L 836 70 L 837 69 L 837 69 L 843 68 L 845 68 L 848 68 L 849 67 L 850 67 L 852 67 L 853 66 L 853 66 L 853 65 L 853 65 L 854 65 L 855 64 L 855 64 L 855 64 L 857 63 L 859 63 L 859 62 L 859 62 L 859 62 L 859 61 L 859 61 L 859 61 L 859 60 L 859 60 L 859 59 L 859 59 L 859 59 L 859 58 L 859 58 L 859 58 L 859 57 L 859 57 L 860 56 L 860 56 L 861 56 L 861 55 L 861 55 L 861 55 L 861 54 L 862 54 L 862 53 L 862 53 L 863 53 L 863 52 L 863 52 L 863 52 L 863 51 L 863 51 L 864 50 L 866 50 L 868 50 L 868 49 L 868 49 L 870 49 L 870 48 L 870 48 L 871 47 L 873 47 L 875 47 L 876 46 L 876 46 L 876 46 L 876 45 L 876 45 L 876 44 L 876 44 L 878 44 L 879 43 L 879 43 L 883 43 L 885 42 L 886 42 L 889 41 L 890 41 L 891 41 L 891 40 L 891 40 L 891 40 L 892 39 L 892 39 L 893 38 L 893 38 L 894 38 L 894 37 L 895 37 L 895 37 L 895 36 L 895 36 L 895 35 L 895 35 L 895 35 L 896 34 L 896 34 L 896 34 L 898 33 L 899 33 L 899 32 L 899 32 L 900 32 L 900 31 L 901 31 L 901 31 L 902 30 L 902 30 L 902 29 L 903 29 L 904 29 L 908 28 L 909 28 L 910 28 L 913 27 L 914 27 L 915 26 L 919 26 L 919 26 L 920 25 L 923 25 L 929 25 L 929 24 L 931 24 L 933 23 L 936 23 L 936 23 L 936 22 L 938 22 L 939 22 L 940 21 L 941 21 L 942 20 L 944 20 L 945 20 L 945 19 L 945 19"></path><path d="M 945 346 L 945.000000 15.000000" stroke-width="2" /><path stroke-width="2" d="M 945 346 L 945.000000 15.000000"></path><path stroke-width="2" d="M 945 346 L 950 346" /><path stroke-width="2" d="M 945 346 L 950 346"></path><text xmlns="http://www.w3.org/2000/svg" x="955" y="352">0</text><path stroke-width="2" d="M 945 309 L 950 309" /><path stroke-width="2" d="M 945 309 L 950 309"></path><text xmlns="http://www.w3.org/2000/svg" x="955" y="315">98</text><path stroke-width="2" d="M 945 272 L 950 272" /><path stroke-width="2" d="M 945 272 L 950 272"></path><text y="278" xmlns="http://www.w3.org/2000/svg" x="955">196</text><path stroke-width="2" d="M 945 235 L 950 235" /><path stroke-width="2" d="M 945 235 L 950 235"></path><text xmlns="http://www.w3.org/2000/svg" x="955" y="241">294</text><path stroke-width="2" d="M 945 199 L 950 199" /><path stroke-width="2" d="M 945 199 L 950 199"></path><text xmlns="http://www.w3.org/2000/svg" x="955" y="205">392</text><path stroke-width="2" d="M 945 162 L 950 162" /><path stroke-width="2" d="M 945 162 L 950 162"></path><text xmlns="http://www.w3.org/2000/svg" x="955" y="168">489</text><path d="M 945 125 L 950 125" stroke-width="2" /><path stroke-width="2" d="M 945 125 L 950 125"></path><text y="131" xmlns="http://www.w3.org/2000/svg" x="955">587</text><path stroke-width="2" d="M 945 89 L 950 89" /><path stroke-width="2" d="M 945 89 L 950 89"></path><text xmlns="http://www.w3.org/2000/svg" x="955" y="95">685</text><path stroke-width="2" d="M 945 52 L 950 52" /><path stroke-width="2" d="M 945 52 L 950 52"></path><text xmlns="http://www.w3.org/2000/svg" x="955" y="58">783</text><path stroke-width="2" d="M 945 16 L 950 16" /><path stroke-width="2" d="M 945 16 L 950 16"></path><text y="22" xmlns="http://www.w3.org/2000/svg" x="955">880</text><text xmlns="http://www.w3.org/2000/svg" x="987" y="175" transform="rotate(90.00,987,175)">Stargazers</text><path stroke-width="2" d="M 57.000000 346.000000 L 945 346" /><path stroke-width="2" d="M 57.000000 346.000000 L 945 346"></path><path stroke-width="2" d="M 58 346 L 58 351" /><path stroke-width="2" d="M 58 346 L 58 351"></path><text xmlns="http://www.w3.org/2000/svg" x="25" y="368">2023-04-02</text><path stroke-width="2" d="M 157 346 L 157 351" /><path d="M 157 346 L 157 351" stroke-width="2"></path><text y="368" xmlns="http://www.w3.org/2000/svg" x="124">2023-06-18</text><path stroke-width="2" d="M 256 346 L 256 351" /><path stroke-width="2" d="M 256 346 L 256 351"></path><text xmlns="http://www.w3.org/2000/svg" x="223" y="368">2023-09-03</text><path stroke-width="2" d="M 354 346 L 354 351" /><path stroke-width="2" d="M 354 346 L 354 351"></path><text xmlns="http://www.w3.org/2000/svg" x="321" y="368">2023-11-20</text><path stroke-width="2" d="M 453 346 L 453 351" /><path stroke-width="2" d="M 453 346 L 453 351"></path><text xmlns="http://www.w3.org/2000/svg" x="420" y="368">2024-02-05</text><path stroke-width="2" d="M 551 346 L 551 351" /><path stroke-width="2" d="M 551 346 L 551 351"></path><text xmlns="http://www.w3.org/2000/svg" x="518" y="368">2024-04-22</text><path stroke-width="2" d="M 650 346 L 650 351" /><path stroke-width="2" d="M 650 346 L 650 351"></path><text y="368" xmlns="http://www.w3.org/2000/svg" x="617">2024-07-09</text><path stroke-width="2" d="M 748 346 L 748 351" /><path stroke-width="2" d="M 748 346 L 748 351"></path><text xmlns="http://www.w3.org/2000/svg" x="715" y="368">2024-09-24</text><path stroke-width="2" d="M 847 346 L 847 351" /><path stroke-width="2" d="M 847 346 L 847 351"></path><text xmlns="http://www.w3.org/2000/svg" x="814" y="368">2024-12-10</text><path stroke-width="2" d="M 945 346 L 945 351" /><path stroke-width="2" d="M 945 346 L 945 351"></path><text xmlns="http://www.w3.org/2000/svg" x="912" y="368">2025-02-25</text><text x="487" y="390" xmlns="http://www.w3.org/2000/svg">Time</text></svg>