<svg xmlns="http://www.w3.org/2000/svg" xmlns:xlink="http://www.w3.org/1999/xlink" width="1024px" height="400px"><style type="text/css">
path { fill: none; stroke: rgb(51,51,51); }
path.series { stroke: #6b63ff; }
rect.background { fill: rgb(255,255,255); stroke: none; }

text {
	stroke-width: 0;
	stroke: none;
	fill: rgba(51,51,51,1.0);
	font-size: 12.8px;
	font-family: 'Roboto Medium', sans-serif;
}
</style><rect x="0" y="0" width="1024px" height="400px" class="background" rx="8" /><rect class="background" rx="8" x="0" y="0" width="1024px" height="400px"></rect><path stroke-width="2" class="series" d="M 58 345 L 62 344 L 82 344 L 82 343 L 82 343 L 82 342 L 82 342 L 82 341 L 82 341 L 82 340 L 83 340 L 83 339 L 83 338 L 83 338 L 83 337 L 83 337 L 83 336 L 84 336 L 84 335 L 85 335 L 85 334 L 86 334 L 87 333 L 88 333 L 88 332 L 88 331 L 89 331 L 90 330 L 92 330 L 93 329 L 94 329 L 95 328 L 102 328 L 102 327 L 102 327 L 102 326 L 102 325 L 102 325 L 106 324 L 108 324 L 109 323 L 112 323 L 117 322 L 119 322 L 128 321 L 131 321 L 136 320 L 141 320 L 143 319 L 162 318 L 163 318 L 163 317 L 165 317 L 166 316 L 166 316 L 166 315 L 166 315 L 166 314 L 166 314 L 166 313 L 166 313 L 166 312 L 166 311 L 166 311 L 167 310 L 167 310 L 167 309 L 167 309 L 167 308 L 167 308 L 167 307 L 167 307 L 167 306 L 167 305 L 167 305 L 167 304 L 167 304 L 167 303 L 167 303 L 167 302 L 167 302 L 167 301 L 167 301 L 167 300 L 167 300 L 167 299 L 167 298 L 167 298 L 167 297 L 167 297 L 167 296 L 168 296 L 168 295 L 168 295 L 168 294 L 168 294 L 168 293 L 168 292 L 168 292 L 168 291 L 168 291 L 169 290 L 169 290 L 169 289 L 169 289 L 169 288 L 170 288 L 170 287 L 170 287 L 171 286 L 171 285 L 171 285 L 171 284 L 171 284 L 171 283 L 171 283 L 171 282 L 171 282 L 171 281 L 171 281 L 171 280 L 171 280 L 171 279 L 171 278 L 173 278 L 173 277 L 173 277 L 173 276 L 177 276 L 178 275 L 178 275 L 179 274 L 179 274 L 182 273 L 186 272 L 186 272 L 189 271 L 190 271 L 192 270 L 193 270 L 193 269 L 196 269 L 197 268 L 198 268 L 199 267 L 200 267 L 201 266 L 201 265 L 201 265 L 202 264 L 203 264 L 205 263 L 205 263 L 206 262 L 206 262 L 206 261 L 207 261 L 210 260 L 211 259 L 214 259 L 215 258 L 216 258 L 218 257 L 218 257 L 218 256 L 220 256 L 228 255 L 228 255 L 230 254 L 237 254 L 238 253 L 238 252 L 238 252 L 238 251 L 239 251 L 242 250 L 243 250 L 243 249 L 253 249 L 255 248 L 257 248 L 260 247 L 262 247 L 262 246 L 263 245 L 270 245 L 277 244 L 286 244 L 286 243 L 286 243 L 287 242 L 287 242 L 289 241 L 300 241 L 305 240 L 306 239 L 310 239 L 311 238 L 312 238 L 324 237 L 324 237 L 325 236 L 325 236 L 327 235 L 330 235 L 332 234 L 334 234 L 336 233 L 339 232 L 346 232 L 346 231 L 347 231 L 348 230 L 348 230 L 348 229 L 352 229 L 359 228 L 375 228 L 381 227 L 384 226 L 384 226 L 386 225 L 388 225 L 388 224 L 388 224 L 388 223 L 388 223 L 388 222 L 388 222 L 388 221 L 388 221 L 388 220 L 388 219 L 388 219 L 388 218 L 389 218 L 389 217 L 392 217 L 392 216 L 393 216 L 393 215 L 393 215 L 395 214 L 395 214 L 395 213 L 395 212 L 395 212 L 395 211 L 395 211 L 396 210 L 397 210 L 397 209 L 398 209 L 398 208 L 398 208 L 398 207 L 399 206 L 399 206 L 400 205 L 400 205 L 401 204 L 401 204 L 401 203 L 403 203 L 404 202 L 405 202 L 407 201 L 410 201 L 410 200 L 411 199 L 411 199 L 411 198 L 411 198 L 411 197 L 413 197 L 414 196 L 416 196 L 417 195 L 418 195 L 420 194 L 422 193 L 422 193 L 425 192 L 426 192 L 426 191 L 428 191 L 428 190 L 433 190 L 435 189 L 435 189 L 439 188 L 442 188 L 446 187 L 448 186 L 448 186 L 449 185 L 450 185 L 450 184 L 454 184 L 456 183 L 458 183 L 459 182 L 460 182 L 462 181 L 462 181 L 462 180 L 462 179 L 463 179 L 463 178 L 463 178 L 465 177 L 465 177 L 465 176 L 466 176 L 472 175 L 478 175 L 478 174 L 479 173 L 483 173 L 485 172 L 486 172 L 487 171 L 488 171 L 490 170 L 490 170 L 490 169 L 490 169 L 490 168 L 491 168 L 491 167 L 491 166 L 491 166 L 492 165 L 495 165 L 495 164 L 495 164 L 496 163 L 496 163 L 496 162 L 496 162 L 496 161 L 497 160 L 497 160 L 497 159 L 497 159 L 497 158 L 502 158 L 505 157 L 505 157 L 507 156 L 513 156 L 520 155 L 522 155 L 526 154 L 529 153 L 537 153 L 540 152 L 543 152 L 543 151 L 543 151 L 544 150 L 544 150 L 544 149 L 544 149 L 544 148 L 546 148 L 547 147 L 557 146 L 560 146 L 564 145 L 572 145 L 578 144 L 583 144 L 586 143 L 592 143 L 592 142 L 604 142 L 616 141 L 616 140 L 625 140 L 625 139 L 632 139 L 633 138 L 637 138 L 637 137 L 638 137 L 638 136 L 641 136 L 643 135 L 646 135 L 651 134 L 652 133 L 654 133 L 654 132 L 659 132 L 663 131 L 663 131 L 669 130 L 674 130 L 675 129 L 675 129 L 677 128 L 678 127 L 680 127 L 684 126 L 687 126 L 690 125 L 694 125 L 694 124 L 700 124 L 701 123 L 705 123 L 711 122 L 711 122 L 717 121 L 718 120 L 718 120 L 720 119 L 721 119 L 724 118 L 724 118 L 727 117 L 731 117 L 732 116 L 732 116 L 732 115 L 742 115 L 743 114 L 743 113 L 744 113 L 744 112 L 745 112 L 745 111 L 746 111 L 747 110 L 749 110 L 749 109 L 751 109 L 752 108 L 753 107 L 754 107 L 754 106 L 754 106 L 755 105 L 756 105 L 756 104 L 757 104 L 757 103 L 757 103 L 758 102 L 759 102 L 761 101 L 761 100 L 761 100 L 762 99 L 763 99 L 765 98 L 766 98 L 766 97 L 767 97 L 769 96 L 771 96 L 771 95 L 772 94 L 772 94 L 775 93 L 775 93 L 775 92 L 775 92 L 776 91 L 776 91 L 776 90 L 777 90 L 777 89 L 779 89 L 783 88 L 784 87 L 786 87 L 786 86 L 790 86 L 791 85 L 792 85 L 795 84 L 798 84 L 801 83 L 805 83 L 806 82 L 806 82 L 806 81 L 806 80 L 807 80 L 808 79 L 808 79 L 809 78 L 809 78 L 809 77 L 810 77 L 812 76 L 813 76 L 813 75 L 814 74 L 814 74 L 818 73 L 818 73 L 819 72 L 820 72 L 821 71 L 824 71 L 828 70 L 833 70 L 833 69 L 833 69 L 833 68 L 836 67 L 839 67 L 840 66 L 840 66 L 840 65 L 840 65 L 843 64 L 847 64 L 848 63 L 848 63 L 848 62 L 850 61 L 851 61 L 851 60 L 851 60 L 851 59 L 855 59 L 860 58 L 860 58 L 865 57 L 865 57 L 866 56 L 871 56 L 873 55 L 876 54 L 879 54 L 881 53 L 882 53 L 882 52 L 883 52 L 883 51 L 883 51 L 883 50 L 885 50 L 885 49 L 885 49 L 887 48 L 887 47 L 887 47 L 888 46 L 890 46 L 890 45 L 897 45 L 897 44 L 904 44 L 907 43 L 907 43 L 908 42 L 909 41 L 912 41 L 913 40 L 914 40 L 914 39 L 915 39 L 915 38 L 915 38 L 915 37 L 915 37 L 917 36 L 917 36 L 917 35 L 917 34 L 917 34 L 918 33 L 919 33 L 919 32 L 920 32 L 920 31 L 921 31 L 922 30 L 923 30 L 924 29 L 924 28 L 924 28 L 925 27 L 927 27 L 930 26 L 930 26 L 930 25 L 931 25 L 931 24 L 932 24 L 932 23 L 932 23 L 934 22 L 937 21 L 940 21 L 944 20 L 945 20" /><path stroke-width="2" class="series" d="M 58 345 L 62 344 L 82 344 L 82 343 L 82 343 L 82 342 L 82 342 L 82 341 L 82 341 L 82 340 L 83 340 L 83 339 L 83 338 L 83 338 L 83 337 L 83 337 L 83 336 L 84 336 L 84 335 L 85 335 L 85 334 L 86 334 L 87 333 L 88 333 L 88 332 L 88 331 L 89 331 L 90 330 L 92 330 L 93 329 L 94 329 L 95 328 L 102 328 L 102 327 L 102 327 L 102 326 L 102 325 L 102 325 L 106 324 L 108 324 L 109 323 L 112 323 L 117 322 L 119 322 L 128 321 L 131 321 L 136 320 L 141 320 L 143 319 L 162 318 L 163 318 L 163 317 L 165 317 L 166 316 L 166 316 L 166 315 L 166 315 L 166 314 L 166 314 L 166 313 L 166 313 L 166 312 L 166 311 L 166 311 L 167 310 L 167 310 L 167 309 L 167 309 L 167 308 L 167 308 L 167 307 L 167 307 L 167 306 L 167 305 L 167 305 L 167 304 L 167 304 L 167 303 L 167 303 L 167 302 L 167 302 L 167 301 L 167 301 L 167 300 L 167 300 L 167 299 L 167 298 L 167 298 L 167 297 L 167 297 L 167 296 L 168 296 L 168 295 L 168 295 L 168 294 L 168 294 L 168 293 L 168 292 L 168 292 L 168 291 L 168 291 L 169 290 L 169 290 L 169 289 L 169 289 L 169 288 L 170 288 L 170 287 L 170 287 L 171 286 L 171 285 L 171 285 L 171 284 L 171 284 L 171 283 L 171 283 L 171 282 L 171 282 L 171 281 L 171 281 L 171 280 L 171 280 L 171 279 L 171 278 L 173 278 L 173 277 L 173 277 L 173 276 L 177 276 L 178 275 L 178 275 L 179 274 L 179 274 L 182 273 L 186 272 L 186 272 L 189 271 L 190 271 L 192 270 L 193 270 L 193 269 L 196 269 L 197 268 L 198 268 L 199 267 L 200 267 L 201 266 L 201 265 L 201 265 L 202 264 L 203 264 L 205 263 L 205 263 L 206 262 L 206 262 L 206 261 L 207 261 L 210 260 L 211 259 L 214 259 L 215 258 L 216 258 L 218 257 L 218 257 L 218 256 L 220 256 L 228 255 L 228 255 L 230 254 L 237 254 L 238 253 L 238 252 L 238 252 L 238 251 L 239 251 L 242 250 L 243 250 L 243 249 L 253 249 L 255 248 L 257 248 L 260 247 L 262 247 L 262 246 L 263 245 L 270 245 L 277 244 L 286 244 L 286 243 L 286 243 L 287 242 L 287 242 L 289 241 L 300 241 L 305 240 L 306 239 L 310 239 L 311 238 L 312 238 L 324 237 L 324 237 L 325 236 L 325 236 L 327 235 L 330 235 L 332 234 L 334 234 L 336 233 L 339 232 L 346 232 L 346 231 L 347 231 L 348 230 L 348 230 L 348 229 L 352 229 L 359 228 L 375 228 L 381 227 L 384 226 L 384 226 L 386 225 L 388 225 L 388 224 L 388 224 L 388 223 L 388 223 L 388 222 L 388 222 L 388 221 L 388 221 L 388 220 L 388 219 L 388 219 L 388 218 L 389 218 L 389 217 L 392 217 L 392 216 L 393 216 L 393 215 L 393 215 L 395 214 L 395 214 L 395 213 L 395 212 L 395 212 L 395 211 L 395 211 L 396 210 L 397 210 L 397 209 L 398 209 L 398 208 L 398 208 L 398 207 L 399 206 L 399 206 L 400 205 L 400 205 L 401 204 L 401 204 L 401 203 L 403 203 L 404 202 L 405 202 L 407 201 L 410 201 L 410 200 L 411 199 L 411 199 L 411 198 L 411 198 L 411 197 L 413 197 L 414 196 L 416 196 L 417 195 L 418 195 L 420 194 L 422 193 L 422 193 L 425 192 L 426 192 L 426 191 L 428 191 L 428 190 L 433 190 L 435 189 L 435 189 L 439 188 L 442 188 L 446 187 L 448 186 L 448 186 L 449 185 L 450 185 L 450 184 L 454 184 L 456 183 L 458 183 L 459 182 L 460 182 L 462 181 L 462 181 L 462 180 L 462 179 L 463 179 L 463 178 L 463 178 L 465 177 L 465 177 L 465 176 L 466 176 L 472 175 L 478 175 L 478 174 L 479 173 L 483 173 L 485 172 L 486 172 L 487 171 L 488 171 L 490 170 L 490 170 L 490 169 L 490 169 L 490 168 L 491 168 L 491 167 L 491 166 L 491 166 L 492 165 L 495 165 L 495 164 L 495 164 L 496 163 L 496 163 L 496 162 L 496 162 L 496 161 L 497 160 L 497 160 L 497 159 L 497 159 L 497 158 L 502 158 L 505 157 L 505 157 L 507 156 L 513 156 L 520 155 L 522 155 L 526 154 L 529 153 L 537 153 L 540 152 L 543 152 L 543 151 L 543 151 L 544 150 L 544 150 L 544 149 L 544 149 L 544 148 L 546 148 L 547 147 L 557 146 L 560 146 L 564 145 L 572 145 L 578 144 L 583 144 L 586 143 L 592 143 L 592 142 L 604 142 L 616 141 L 616 140 L 625 140 L 625 139 L 632 139 L 633 138 L 637 138 L 637 137 L 638 137 L 638 136 L 641 136 L 643 135 L 646 135 L 651 134 L 652 133 L 654 133 L 654 132 L 659 132 L 663 131 L 663 131 L 669 130 L 674 130 L 675 129 L 675 129 L 677 128 L 678 127 L 680 127 L 684 126 L 687 126 L 690 125 L 694 125 L 694 124 L 700 124 L 701 123 L 705 123 L 711 122 L 711 122 L 717 121 L 718 120 L 718 120 L 720 119 L 721 119 L 724 118 L 724 118 L 727 117 L 731 117 L 732 116 L 732 116 L 732 115 L 742 115 L 743 114 L 743 113 L 744 113 L 744 112 L 745 112 L 745 111 L 746 111 L 747 110 L 749 110 L 749 109 L 751 109 L 752 108 L 753 107 L 754 107 L 754 106 L 754 106 L 755 105 L 756 105 L 756 104 L 757 104 L 757 103 L 757 103 L 758 102 L 759 102 L 761 101 L 761 100 L 761 100 L 762 99 L 763 99 L 765 98 L 766 98 L 766 97 L 767 97 L 769 96 L 771 96 L 771 95 L 772 94 L 772 94 L 775 93 L 775 93 L 775 92 L 775 92 L 776 91 L 776 91 L 776 90 L 777 90 L 777 89 L 779 89 L 783 88 L 784 87 L 786 87 L 786 86 L 790 86 L 791 85 L 792 85 L 795 84 L 798 84 L 801 83 L 805 83 L 806 82 L 806 82 L 806 81 L 806 80 L 807 80 L 808 79 L 808 79 L 809 78 L 809 78 L 809 77 L 810 77 L 812 76 L 813 76 L 813 75 L 814 74 L 814 74 L 818 73 L 818 73 L 819 72 L 820 72 L 821 71 L 824 71 L 828 70 L 833 70 L 833 69 L 833 69 L 833 68 L 836 67 L 839 67 L 840 66 L 840 66 L 840 65 L 840 65 L 843 64 L 847 64 L 848 63 L 848 63 L 848 62 L 850 61 L 851 61 L 851 60 L 851 60 L 851 59 L 855 59 L 860 58 L 860 58 L 865 57 L 865 57 L 866 56 L 871 56 L 873 55 L 876 54 L 879 54 L 881 53 L 882 53 L 882 52 L 883 52 L 883 51 L 883 51 L 883 50 L 885 50 L 885 49 L 885 49 L 887 48 L 887 47 L 887 47 L 888 46 L 890 46 L 890 45 L 897 45 L 897 44 L 904 44 L 907 43 L 907 43 L 908 42 L 909 41 L 912 41 L 913 40 L 914 40 L 914 39 L 915 39 L 915 38 L 915 38 L 915 37 L 915 37 L 917 36 L 917 36 L 917 35 L 917 34 L 917 34 L 918 33 L 919 33 L 919 32 L 920 32 L 920 31 L 921 31 L 922 30 L 923 30 L 924 29 L 924 28 L 924 28 L 925 27 L 927 27 L 930 26 L 930 26 L 930 25 L 931 25 L 931 24 L 932 24 L 932 23 L 932 23 L 934 22 L 937 21 L 940 21 L 944 20 L 945 20"></path><path stroke-width="2" d="M 945 346 L 945.000000 15.000000" /><path stroke-width="2" d="M 945 346 L 945.000000 15.000000"></path><path stroke-width="2" d="M 945 346 L 950 346" /><path d="M 945 346 L 950 346" stroke-width="2"></path><text xmlns="http://www.w3.org/2000/svg" x="955" y="352">0</text><path stroke-width="2" d="M 945 309 L 950 309" /><path stroke-width="2" d="M 945 309 L 950 309"></path><text xmlns="http://www.w3.org/2000/svg" x="955" y="315">68</text><path stroke-width="2" d="M 945 272 L 950 272" /><path stroke-width="2" d="M 945 272 L 950 272"></path><text xmlns="http://www.w3.org/2000/svg" x="955" y="278">136</text><path stroke-width="2" d="M 945 235 L 950 235" /><path stroke-width="2" d="M 945 235 L 950 235"></path><text xmlns="http://www.w3.org/2000/svg" x="955" y="241">204</text><path stroke-width="2" d="M 945 198 L 950 198" /><path stroke-width="2" d="M 945 198 L 950 198"></path><text xmlns="http://www.w3.org/2000/svg" x="955" y="204">272</text><path stroke-width="2" d="M 945 162 L 950 162" /><path stroke-width="2" d="M 945 162 L 950 162"></path><text xmlns="http://www.w3.org/2000/svg" x="955" y="168">339</text><path stroke-width="2" d="M 945 125 L 950 125" /><path d="M 945 125 L 950 125" stroke-width="2"></path><text xmlns="http://www.w3.org/2000/svg" x="955" y="131">407</text><path stroke-width="2" d="M 945 89 L 950 89" /><path d="M 945 89 L 950 89" stroke-width="2"></path><text y="95" xmlns="http://www.w3.org/2000/svg" x="955">475</text><path stroke-width="2" d="M 945 52 L 950 52" /><path stroke-width="2" d="M 945 52 L 950 52"></path><text xmlns="http://www.w3.org/2000/svg" x="955" y="58">543</text><path stroke-width="2" d="M 945 16 L 950 16" /><path d="M 945 16 L 950 16" stroke-width="2"></path><text xmlns="http://www.w3.org/2000/svg" x="955" y="22">610</text><text xmlns="http://www.w3.org/2000/svg" x="987" y="175" transform="rotate(90.00,987,175)">Stargazers</text><path d="M 57.000000 346.000000 L 945 346" stroke-width="2" /><path d="M 57.000000 346.000000 L 945 346" stroke-width="2"></path><path stroke-width="2" d="M 58 346 L 58 351" /><path stroke-width="2" d="M 58 346 L 58 351"></path><text xmlns="http://www.w3.org/2000/svg" x="25" y="368">2023-04-02</text><path d="M 157 346 L 157 351" stroke-width="2" /><path d="M 157 346 L 157 351" stroke-width="2"></path><text xmlns="http://www.w3.org/2000/svg" x="124" y="368">2023-05-31</text><path stroke-width="2" d="M 256 346 L 256 351" /><path stroke-width="2" d="M 256 346 L 256 351"></path><text xmlns="http://www.w3.org/2000/svg" x="223" y="368">2023-07-28</text><path stroke-width="2" d="M 354 346 L 354 351" /><path stroke-width="2" d="M 354 346 L 354 351"></path><text x="321" y="368" xmlns="http://www.w3.org/2000/svg">2023-09-25</text><path stroke-width="2" d="M 453 346 L 453 351" /><path stroke-width="2" d="M 453 346 L 453 351"></path><text x="420" y="368" xmlns="http://www.w3.org/2000/svg">2023-11-23</text><path stroke-width="2" d="M 551 346 L 551 351" /><path stroke-width="2" d="M 551 346 L 551 351"></path><text xmlns="http://www.w3.org/2000/svg" x="518" y="368">2024-01-20</text><path stroke-width="2" d="M 650 346 L 650 351" /><path stroke-width="2" d="M 650 346 L 650 351"></path><text y="368" xmlns="http://www.w3.org/2000/svg" x="617">2024-03-19</text><path stroke-width="2" d="M 748 346 L 748 351" /><path stroke-width="2" d="M 748 346 L 748 351"></path><text xmlns="http://www.w3.org/2000/svg" x="715" y="368">2024-05-17</text><path stroke-width="2" d="M 847 346 L 847 351" /><path stroke-width="2" d="M 847 346 L 847 351"></path><text xmlns="http://www.w3.org/2000/svg" x="814" y="368">2024-07-14</text><path stroke-width="2" d="M 945 346 L 945 351" /><path stroke-width="2" d="M 945 346 L 945 351"></path><text xmlns="http://www.w3.org/2000/svg" x="912" y="368">2024-09-11</text><text xmlns="http://www.w3.org/2000/svg" x="487" y="390">Time</text></svg>