<svg width="1024px" height="400px" xmlns="http://www.w3.org/2000/svg" xmlns:xlink="http://www.w3.org/1999/xlink"><style type="text/css">
path { fill: none; stroke: rgb(51,51,51); }
path.series { stroke: #6b63ff; }
rect.background { fill: rgb(255,255,255); stroke: none; }

text {
	stroke-width: 0;
	stroke: none;
	fill: rgba(51,51,51,1.0);
	font-size: 12.8px;
	font-family: 'Roboto Medium', sans-serif;
}
</style><rect y="0" width="1024px" height="400px" class="background" rx="8" x="0" /><rect x="0" y="0" width="1024px" height="400px" class="background" rx="8"></rect><path stroke-width="2" class="series" d="M 58 345 L 63 344 L 92 343 L 92 342 L 92 341 L 92 341 L 92 340 L 92 339 L 93 338 L 93 337 L 93 337 L 93 336 L 93 335 L 93 334 L 94 333 L 94 333 L 94 332 L 94 331 L 94 330 L 94 329 L 96 329 L 97 328 L 97 327 L 99 326 L 100 325 L 101 325 L 101 324 L 102 323 L 103 322 L 106 321 L 107 321 L 109 320 L 111 319 L 120 318 L 120 317 L 120 317 L 120 316 L 120 315 L 121 314 L 126 313 L 128 313 L 130 312 L 134 311 L 141 310 L 144 309 L 157 308 L 161 308 L 168 307 L 175 306 L 178 305 L 205 304 L 207 304 L 207 303 L 210 302 L 211 301 L 211 300 L 211 300 L 211 299 L 211 298 L 211 297 L 211 296 L 211 296 L 212 295 L 212 294 L 212 293 L 212 292 L 213 292 L 213 291 L 213 290 L 213 289 L 213 288 L 213 288 L 213 287 L 213 286 L 213 285 L 213 284 L 213 284 L 213 283 L 213 282 L 213 281 L 213 280 L 213 280 L 213 279 L 213 278 L 213 277 L 213 276 L 213 275 L 213 275 L 213 274 L 213 273 L 213 272 L 213 271 L 213 271 L 213 270 L 213 269 L 213 268 L 213 267 L 213 267 L 213 266 L 214 265 L 214 264 L 214 263 L 215 263 L 215 262 L 215 261 L 216 260 L 216 259 L 217 259 L 217 258 L 217 257 L 217 256 L 217 255 L 217 255 L 217 254 L 217 253 L 217 252 L 217 251 L 217 251 L 217 250 L 218 249 L 218 248 L 218 247 L 218 247 L 218 246 L 219 245 L 220 244 L 220 243 L 221 242 L 221 242 L 227 241 L 228 240 L 228 239 L 230 238 L 230 238 L 234 237 L 239 236 L 240 235 L 244 234 L 245 234 L 248 233 L 249 232 L 250 231 L 254 230 L 254 230 L 256 229 L 258 228 L 259 227 L 261 226 L 261 226 L 261 225 L 262 224 L 264 223 L 266 222 L 266 222 L 267 221 L 268 220 L 268 219 L 270 218 L 273 218 L 275 217 L 279 216 L 281 215 L 282 214 L 284 214 L 284 213 L 285 212 L 287 211 L 299 210 L 299 209 L 301 209 L 312 208 L 313 207 L 313 206 L 313 205 L 313 205 L 315 204 L 319 203 L 321 202 L 321 201 L 334 201 L 337 200 L 340 199 L 344 198 L 347 197 L 347 197 L 349 196 L 358 195 L 369 194 L 381 193 L 382 193 L 382 192 L 382 191 L 383 190 L 386 189 L 401 189 L 409 188 L 409 187 L 415 186 L 417 185 L 418 185 L 435 184 L 435 183 L 437 182 L 437 181 L 440 181 L 444 180 L 446 179 L 450 178 L 452 177 L 456 176 L 466 176 L 467 175 L 469 174 L 469 173 L 469 172 L 470 172 L 475 171 L 485 170 L 507 169 L 516 168 L 516 168 L 520 167 L 521 166 L 523 165 L 526 164 L 526 164 L 526 163 L 526 162 L 526 161 L 526 160 L 526 160 L 526 159 L 526 158 L 526 157 L 526 156 L 527 156 L 527 155 L 527 154 L 528 153 L 529 152 L 531 152 L 532 151 L 532 150 L 533 149 L 533 148 L 535 148 L 535 147 L 535 146 L 535 145 L 535 144 L 536 143 L 536 143 L 537 142 L 539 141 L 539 140 L 540 139 L 540 139 L 540 138 L 540 137 L 542 136 L 542 135 L 542 135 L 543 134 L 544 133 L 545 132 L 545 131 L 547 131 L 549 130 L 550 129 L 553 128 L 557 127 L 557 127 L 558 126 L 559 125 L 559 124 L 559 123 L 559 123 L 562 122 L 563 121 L 566 120 L 567 119 L 568 119 L 571 118 L 574 117 L 574 116 L 579 115 L 580 115 L 580 114 L 582 113 L 582 112 L 590 111 L 592 110 L 593 110 L 599 109 L 602 108 L 609 107 L 611 106 L 611 106 L 613 105 L 614 104 L 614 103 L 619 102 L 623 102 L 626 101 L 626 100 L 629 99 L 631 98 L 631 98 L 631 97 L 631 96 L 632 95 L 633 94 L 633 94 L 635 93 L 635 92 L 635 91 L 637 90 L 645 90 L 654 89 L 654 88 L 655 87 L 661 86 L 664 86 L 666 85 L 666 84 L 669 83 L 671 82 L 671 82 L 671 81 L 671 80 L 671 79 L 672 78 L 672 77 L 673 77 L 673 76 L 674 75 L 678 74 L 678 73 L 679 73 L 679 72 L 679 71 L 680 70 L 680 69 L 680 69 L 680 68 L 680 67 L 680 66 L 680 65 L 681 65 L 683 64 L 688 63 L 693 62 L 693 61 L 694 61 L 703 60 L 714 59 L 716 58 L 722 57 L 726 57 L 738 56 L 742 55 L 746 54 L 747 53 L 747 53 L 747 52 L 747 51 L 747 50 L 747 49 L 747 49 L 750 48 L 752 47 L 766 46 L 771 45 L 776 44 L 787 44 L 796 43 L 802 42 L 807 41 L 815 40 L 815 40 L 832 39 L 850 38 L 850 37 L 862 36 L 862 36 L 872 35 L 874 34 L 879 33 L 879 32 L 880 32 L 880 31 L 886 30 L 888 29 L 893 28 L 900 28 L 901 27 L 903 26 L 904 25 L 910 24 L 917 24 L 917 23 L 924 22 L 931 21 L 933 20 L 933 20 L 936 19 L 938 18 L 940 17 L 945 16" /><path d="M 58 345 L 63 344 L 92 343 L 92 342 L 92 341 L 92 341 L 92 340 L 92 339 L 93 338 L 93 337 L 93 337 L 93 336 L 93 335 L 93 334 L 94 333 L 94 333 L 94 332 L 94 331 L 94 330 L 94 329 L 96 329 L 97 328 L 97 327 L 99 326 L 100 325 L 101 325 L 101 324 L 102 323 L 103 322 L 106 321 L 107 321 L 109 320 L 111 319 L 120 318 L 120 317 L 120 317 L 120 316 L 120 315 L 121 314 L 126 313 L 128 313 L 130 312 L 134 311 L 141 310 L 144 309 L 157 308 L 161 308 L 168 307 L 175 306 L 178 305 L 205 304 L 207 304 L 207 303 L 210 302 L 211 301 L 211 300 L 211 300 L 211 299 L 211 298 L 211 297 L 211 296 L 211 296 L 212 295 L 212 294 L 212 293 L 212 292 L 213 292 L 213 291 L 213 290 L 213 289 L 213 288 L 213 288 L 213 287 L 213 286 L 213 285 L 213 284 L 213 284 L 213 283 L 213 282 L 213 281 L 213 280 L 213 280 L 213 279 L 213 278 L 213 277 L 213 276 L 213 275 L 213 275 L 213 274 L 213 273 L 213 272 L 213 271 L 213 271 L 213 270 L 213 269 L 213 268 L 213 267 L 213 267 L 213 266 L 214 265 L 214 264 L 214 263 L 215 263 L 215 262 L 215 261 L 216 260 L 216 259 L 217 259 L 217 258 L 217 257 L 217 256 L 217 255 L 217 255 L 217 254 L 217 253 L 217 252 L 217 251 L 217 251 L 217 250 L 218 249 L 218 248 L 218 247 L 218 247 L 218 246 L 219 245 L 220 244 L 220 243 L 221 242 L 221 242 L 227 241 L 228 240 L 228 239 L 230 238 L 230 238 L 234 237 L 239 236 L 240 235 L 244 234 L 245 234 L 248 233 L 249 232 L 250 231 L 254 230 L 254 230 L 256 229 L 258 228 L 259 227 L 261 226 L 261 226 L 261 225 L 262 224 L 264 223 L 266 222 L 266 222 L 267 221 L 268 220 L 268 219 L 270 218 L 273 218 L 275 217 L 279 216 L 281 215 L 282 214 L 284 214 L 284 213 L 285 212 L 287 211 L 299 210 L 299 209 L 301 209 L 312 208 L 313 207 L 313 206 L 313 205 L 313 205 L 315 204 L 319 203 L 321 202 L 321 201 L 334 201 L 337 200 L 340 199 L 344 198 L 347 197 L 347 197 L 349 196 L 358 195 L 369 194 L 381 193 L 382 193 L 382 192 L 382 191 L 383 190 L 386 189 L 401 189 L 409 188 L 409 187 L 415 186 L 417 185 L 418 185 L 435 184 L 435 183 L 437 182 L 437 181 L 440 181 L 444 180 L 446 179 L 450 178 L 452 177 L 456 176 L 466 176 L 467 175 L 469 174 L 469 173 L 469 172 L 470 172 L 475 171 L 485 170 L 507 169 L 516 168 L 516 168 L 520 167 L 521 166 L 523 165 L 526 164 L 526 164 L 526 163 L 526 162 L 526 161 L 526 160 L 526 160 L 526 159 L 526 158 L 526 157 L 526 156 L 527 156 L 527 155 L 527 154 L 528 153 L 529 152 L 531 152 L 532 151 L 532 150 L 533 149 L 533 148 L 535 148 L 535 147 L 535 146 L 535 145 L 535 144 L 536 143 L 536 143 L 537 142 L 539 141 L 539 140 L 540 139 L 540 139 L 540 138 L 540 137 L 542 136 L 542 135 L 542 135 L 543 134 L 544 133 L 545 132 L 545 131 L 547 131 L 549 130 L 550 129 L 553 128 L 557 127 L 557 127 L 558 126 L 559 125 L 559 124 L 559 123 L 559 123 L 562 122 L 563 121 L 566 120 L 567 119 L 568 119 L 571 118 L 574 117 L 574 116 L 579 115 L 580 115 L 580 114 L 582 113 L 582 112 L 590 111 L 592 110 L 593 110 L 599 109 L 602 108 L 609 107 L 611 106 L 611 106 L 613 105 L 614 104 L 614 103 L 619 102 L 623 102 L 626 101 L 626 100 L 629 99 L 631 98 L 631 98 L 631 97 L 631 96 L 632 95 L 633 94 L 633 94 L 635 93 L 635 92 L 635 91 L 637 90 L 645 90 L 654 89 L 654 88 L 655 87 L 661 86 L 664 86 L 666 85 L 666 84 L 669 83 L 671 82 L 671 82 L 671 81 L 671 80 L 671 79 L 672 78 L 672 77 L 673 77 L 673 76 L 674 75 L 678 74 L 678 73 L 679 73 L 679 72 L 679 71 L 680 70 L 680 69 L 680 69 L 680 68 L 680 67 L 680 66 L 680 65 L 681 65 L 683 64 L 688 63 L 693 62 L 693 61 L 694 61 L 703 60 L 714 59 L 716 58 L 722 57 L 726 57 L 738 56 L 742 55 L 746 54 L 747 53 L 747 53 L 747 52 L 747 51 L 747 50 L 747 49 L 747 49 L 750 48 L 752 47 L 766 46 L 771 45 L 776 44 L 787 44 L 796 43 L 802 42 L 807 41 L 815 40 L 815 40 L 832 39 L 850 38 L 850 37 L 862 36 L 862 36 L 872 35 L 874 34 L 879 33 L 879 32 L 880 32 L 880 31 L 886 30 L 888 29 L 893 28 L 900 28 L 901 27 L 903 26 L 904 25 L 910 24 L 917 24 L 917 23 L 924 22 L 931 21 L 933 20 L 933 20 L 936 19 L 938 18 L 940 17 L 945 16" stroke-width="2" class="series"></path><path stroke-width="2" d="M 945 346 L 945.000000 15.000000" /><path stroke-width="2" d="M 945 346 L 945.000000 15.000000"></path><path stroke-width="2" d="M 945 346 L 950 346" /><path stroke-width="2" d="M 945 346 L 950 346"></path><text xmlns="http://www.w3.org/2000/svg" x="955" y="352">0</text><path stroke-width="2" d="M 945 308 L 950 308" /><path d="M 945 308 L 950 308" stroke-width="2"></path><text xmlns="http://www.w3.org/2000/svg" x="955" y="314">46</text><path d="M 945 271 L 950 271" stroke-width="2" /><path d="M 945 271 L 950 271" stroke-width="2"></path><text xmlns="http://www.w3.org/2000/svg" x="955" y="277">92</text><path stroke-width="2" d="M 945 235 L 950 235" /><path stroke-width="2" d="M 945 235 L 950 235"></path><text x="955" y="241" xmlns="http://www.w3.org/2000/svg">137</text><path stroke-width="2" d="M 945 198 L 950 198" /><path stroke-width="2" d="M 945 198 L 950 198"></path><text xmlns="http://www.w3.org/2000/svg" x="955" y="204">183</text><path d="M 945 162 L 950 162" stroke-width="2" /><path stroke-width="2" d="M 945 162 L 950 162"></path><text xmlns="http://www.w3.org/2000/svg" x="955" y="168">228</text><path stroke-width="2" d="M 945 125 L 950 125" /><path stroke-width="2" d="M 945 125 L 950 125"></path><text x="955" y="131" xmlns="http://www.w3.org/2000/svg">274</text><path stroke-width="2" d="M 945 89 L 950 89" /><path d="M 945 89 L 950 89" stroke-width="2"></path><text xmlns="http://www.w3.org/2000/svg" x="955" y="95">319</text><path stroke-width="2" d="M 945 52 L 950 52" /><path stroke-width="2" d="M 945 52 L 950 52"></path><text xmlns="http://www.w3.org/2000/svg" x="955" y="58">365</text><path stroke-width="2" d="M 945 16 L 950 16" /><path stroke-width="2" d="M 945 16 L 950 16"></path><text xmlns="http://www.w3.org/2000/svg" x="955" y="22">410</text><text xmlns="http://www.w3.org/2000/svg" x="987" y="175" transform="rotate(90.00,987,175)">Stargazers</text><path stroke-width="2" d="M 57.000000 346.000000 L 945 346" /><path stroke-width="2" d="M 57.000000 346.000000 L 945 346"></path><path stroke-width="2" d="M 58 346 L 58 351" /><path stroke-width="2" d="M 58 346 L 58 351"></path><text xmlns="http://www.w3.org/2000/svg" x="25" y="368">2023-04-02</text><path stroke-width="2" d="M 157 346 L 157 351" /><path stroke-width="2" d="M 157 346 L 157 351"></path><text y="368" xmlns="http://www.w3.org/2000/svg" x="124">2023-05-13</text><path d="M 256 346 L 256 351" stroke-width="2" /><path stroke-width="2" d="M 256 346 L 256 351"></path><text xmlns="http://www.w3.org/2000/svg" x="223" y="368">2023-06-24</text><path stroke-width="2" d="M 354 346 L 354 351" /><path stroke-width="2" d="M 354 346 L 354 351"></path><text xmlns="http://www.w3.org/2000/svg" x="321" y="368">2023-08-04</text><path stroke-width="2" d="M 453 346 L 453 351" /><path stroke-width="2" d="M 453 346 L 453 351"></path><text y="368" xmlns="http://www.w3.org/2000/svg" x="420">2023-09-14</text><path d="M 551 346 L 551 351" stroke-width="2" /><path stroke-width="2" d="M 551 346 L 551 351"></path><text xmlns="http://www.w3.org/2000/svg" x="518" y="368">2023-10-26</text><path stroke-width="2" d="M 650 346 L 650 351" /><path stroke-width="2" d="M 650 346 L 650 351"></path><text xmlns="http://www.w3.org/2000/svg" x="617" y="368">2023-12-06</text><path d="M 748 346 L 748 351" stroke-width="2" /><path stroke-width="2" d="M 748 346 L 748 351"></path><text xmlns="http://www.w3.org/2000/svg" x="715" y="368">2024-01-16</text><path stroke-width="2" d="M 847 346 L 847 351" /><path stroke-width="2" d="M 847 346 L 847 351"></path><text x="814" y="368" xmlns="http://www.w3.org/2000/svg">2024-02-27</text><path stroke-width="2" d="M 945 346 L 945 351" /><path stroke-width="2" d="M 945 346 L 945 351"></path><text x="912" y="368" xmlns="http://www.w3.org/2000/svg">2024-04-08</text><text xmlns="http://www.w3.org/2000/svg" x="487" y="390">Time</text></svg>