<svg xmlns="http://www.w3.org/2000/svg" xmlns:xlink="http://www.w3.org/1999/xlink" width="1024px" height="400px"><style type="text/css">
path { fill: none; stroke: rgb(51,51,51); }
path.series { stroke: #6b63ff; }
rect.background { fill: rgb(255,255,255); stroke: none; }

text {
	stroke-width: 0;
	stroke: none;
	fill: rgba(51,51,51,1.0);
	font-size: 12.8px;
	font-family: 'Roboto Medium', sans-serif;
}
</style><rect width="1024px" height="400px" class="background" rx="8" x="0" y="0" /><rect class="background" rx="8" x="0" y="0" width="1024px" height="400px"></rect><path stroke-width="2" class="series" d="M 58 345 L 60 345 L 71 345 L 71 344 L 71 344 L 71 344 L 71 344 L 71 343 L 71 343 L 71 343 L 71 342 L 71 342 L 71 342 L 71 342 L 71 341 L 71 341 L 71 341 L 72 341 L 72 340 L 72 340 L 73 340 L 73 339 L 73 339 L 74 339 L 74 339 L 74 338 L 74 338 L 75 338 L 76 338 L 76 337 L 77 337 L 78 337 L 81 336 L 81 336 L 81 336 L 81 336 L 81 335 L 83 335 L 84 335 L 85 335 L 86 334 L 89 334 L 90 334 L 94 333 L 96 333 L 98 333 L 101 333 L 102 332 L 113 332 L 113 332 L 114 331 L 114 331 L 114 331 L 114 331 L 114 330 L 114 330 L 114 330 L 114 330 L 114 329 L 114 329 L 114 329 L 114 328 L 115 328 L 115 328 L 115 328 L 115 327 L 115 327 L 115 327 L 115 327 L 115 326 L 115 326 L 115 326 L 115 325 L 115 325 L 115 325 L 115 325 L 115 324 L 115 324 L 115 324 L 115 324 L 115 323 L 115 323 L 115 323 L 115 322 L 115 322 L 115 322 L 115 322 L 115 321 L 115 321 L 115 321 L 115 320 L 115 320 L 115 320 L 115 320 L 115 319 L 115 319 L 115 319 L 115 319 L 115 318 L 116 318 L 116 318 L 116 317 L 116 317 L 116 317 L 117 317 L 117 316 L 117 316 L 117 316 L 117 316 L 117 315 L 117 315 L 117 315 L 117 314 L 117 314 L 117 314 L 117 314 L 117 313 L 117 313 L 117 313 L 117 313 L 117 312 L 117 312 L 118 312 L 118 311 L 118 311 L 118 311 L 120 311 L 120 310 L 120 310 L 121 310 L 121 309 L 123 309 L 124 309 L 125 309 L 126 308 L 127 308 L 128 308 L 128 308 L 128 307 L 130 307 L 130 307 L 131 306 L 131 306 L 132 306 L 132 306 L 133 305 L 133 305 L 133 305 L 134 305 L 134 304 L 135 304 L 135 304 L 135 303 L 135 303 L 136 303 L 137 303 L 138 302 L 139 302 L 140 302 L 140 302 L 141 301 L 141 301 L 141 301 L 142 300 L 146 300 L 147 300 L 147 300 L 151 299 L 151 299 L 151 299 L 152 298 L 152 298 L 152 298 L 154 298 L 154 297 L 154 297 L 159 297 L 160 297 L 161 296 L 163 296 L 164 296 L 164 295 L 165 295 L 168 295 L 172 295 L 176 294 L 177 294 L 177 294 L 177 294 L 177 293 L 184 293 L 187 293 L 187 292 L 189 292 L 189 292 L 190 292 L 196 291 L 196 291 L 197 291 L 197 291 L 198 290 L 200 290 L 202 290 L 203 289 L 204 289 L 208 289 L 208 289 L 208 288 L 209 288 L 209 288 L 209 287 L 211 287 L 215 287 L 223 287 L 226 286 L 227 286 L 228 286 L 229 286 L 229 285 L 229 285 L 229 285 L 229 284 L 229 284 L 229 284 L 229 284 L 230 283 L 230 283 L 230 283 L 230 283 L 230 282 L 230 282 L 230 282 L 232 281 L 232 281 L 232 281 L 232 281 L 233 280 L 233 280 L 233 280 L 233 280 L 233 279 L 233 279 L 233 279 L 234 278 L 234 278 L 234 278 L 235 278 L 235 277 L 235 277 L 235 277 L 235 276 L 235 276 L 236 276 L 236 276 L 236 275 L 236 275 L 237 275 L 238 275 L 238 274 L 239 274 L 241 274 L 241 273 L 241 273 L 241 273 L 241 273 L 241 272 L 242 272 L 243 272 L 243 272 L 244 271 L 244 271 L 245 271 L 246 270 L 247 270 L 247 270 L 249 270 L 249 269 L 249 269 L 250 269 L 250 269 L 253 268 L 254 268 L 254 268 L 256 267 L 257 267 L 260 267 L 260 267 L 261 266 L 261 266 L 262 266 L 262 265 L 264 265 L 265 265 L 266 265 L 266 264 L 268 264 L 268 264 L 268 264 L 268 263 L 268 263 L 269 263 L 269 262 L 269 262 L 269 262 L 269 262 L 270 261 L 273 261 L 276 261 L 276 261 L 277 260 L 279 260 L 280 260 L 281 259 L 281 259 L 282 259 L 282 259 L 282 258 L 282 258 L 282 258 L 282 258 L 283 257 L 283 257 L 283 257 L 283 256 L 284 256 L 285 256 L 285 256 L 285 255 L 285 255 L 286 255 L 286 254 L 286 254 L 286 254 L 286 254 L 286 253 L 286 253 L 286 253 L 289 253 L 290 252 L 290 252 L 291 252 L 298 251 L 299 251 L 301 251 L 303 251 L 308 250 L 310 250 L 310 250 L 310 250 L 310 249 L 310 249 L 310 249 L 310 248 L 311 248 L 312 248 L 317 248 L 319 247 L 321 247 L 325 247 L 328 247 L 330 246 L 332 246 L 335 246 L 335 245 L 342 245 L 348 245 L 348 245 L 352 244 L 352 244 L 356 244 L 357 243 L 359 243 L 359 243 L 359 243 L 359 242 L 361 242 L 362 242 L 364 242 L 366 241 L 367 241 L 367 241 L 368 240 L 370 240 L 372 240 L 372 240 L 375 239 L 378 239 L 378 239 L 378 239 L 379 238 L 380 238 L 381 238 L 383 237 L 385 237 L 386 237 L 388 237 L 388 236 L 391 236 L 392 236 L 394 236 L 397 235 L 397 235 L 400 235 L 401 234 L 401 234 L 402 234 L 402 234 L 404 233 L 404 233 L 405 233 L 407 232 L 408 232 L 408 232 L 408 232 L 413 231 L 413 231 L 414 231 L 414 231 L 414 230 L 415 230 L 415 230 L 415 229 L 416 229 L 417 229 L 417 229 L 418 228 L 418 228 L 419 228 L 419 228 L 420 227 L 420 227 L 420 227 L 420 226 L 420 226 L 421 226 L 421 226 L 421 225 L 421 225 L 422 225 L 423 225 L 423 224 L 423 224 L 424 224 L 424 223 L 425 223 L 426 223 L 426 223 L 426 222 L 427 222 L 428 222 L 428 221 L 429 221 L 430 221 L 430 221 L 430 220 L 431 220 L 431 220 L 431 220 L 431 219 L 431 219 L 432 219 L 432 218 L 434 218 L 435 218 L 436 218 L 436 217 L 438 217 L 439 217 L 439 217 L 441 216 L 442 216 L 444 216 L 446 215 L 446 215 L 446 215 L 446 215 L 447 214 L 447 214 L 447 214 L 447 214 L 448 213 L 448 213 L 448 213 L 448 212 L 449 212 L 450 212 L 450 212 L 451 211 L 451 211 L 453 211 L 453 210 L 453 210 L 454 210 L 454 210 L 456 209 L 460 209 L 460 209 L 460 209 L 460 208 L 462 208 L 464 208 L 464 207 L 464 207 L 464 207 L 464 207 L 465 206 L 468 206 L 468 206 L 468 206 L 468 205 L 469 205 L 470 205 L 470 204 L 470 204 L 472 204 L 474 204 L 474 203 L 477 203 L 477 203 L 478 203 L 480 202 L 481 202 L 483 202 L 484 201 L 485 201 L 486 201 L 486 201 L 486 200 L 487 200 L 487 200 L 487 199 L 487 199 L 487 199 L 488 199 L 488 198 L 488 198 L 488 198 L 489 198 L 490 197 L 490 197 L 493 197 L 494 196 L 497 196 L 499 196 L 499 196 L 499 195 L 500 195 L 502 195 L 502 195 L 502 194 L 503 194 L 503 194 L 503 193 L 503 193 L 503 193 L 504 193 L 504 192 L 504 192 L 504 192 L 504 192 L 505 191 L 505 191 L 506 191 L 506 190 L 506 190 L 507 190 L 508 190 L 508 189 L 508 189 L 508 189 L 509 188 L 511 188 L 511 188 L 511 188 L 511 187 L 511 187 L 512 187 L 512 187 L 512 186 L 513 186 L 514 186 L 516 185 L 518 185 L 519 185 L 520 185 L 522 184 L 525 184 L 525 184 L 527 184 L 530 183 L 530 183 L 530 183 L 533 182 L 534 182 L 535 182 L 535 182 L 535 181 L 541 181 L 542 181 L 542 181 L 542 180 L 543 180 L 543 180 L 544 179 L 544 179 L 544 179 L 545 179 L 545 178 L 545 178 L 546 178 L 546 177 L 546 177 L 546 177 L 546 177 L 546 176 L 546 176 L 547 176 L 548 176 L 549 175 L 549 175 L 549 175 L 550 174 L 550 174 L 551 174 L 551 174 L 552 173 L 552 173 L 552 173 L 552 173 L 553 172 L 554 172 L 555 172 L 555 171 L 555 171 L 556 171 L 556 171 L 556 170 L 556 170 L 556 170 L 557 170 L 557 169 L 557 169 L 558 169 L 558 168 L 559 168 L 559 168 L 560 168 L 560 167 L 560 167 L 560 167 L 560 166 L 560 166 L 560 166 L 562 166 L 562 165 L 562 165 L 562 165 L 562 165 L 562 164 L 562 164 L 562 164 L 563 163 L 563 163 L 563 163 L 563 163 L 563 162 L 563 162 L 565 162 L 566 162 L 567 161 L 567 161 L 567 161 L 568 160 L 569 160 L 569 160 L 570 160 L 570 159 L 572 159 L 574 159 L 574 159 L 575 158 L 575 158 L 575 158 L 576 157 L 576 157 L 576 157 L 577 157 L 577 156 L 577 156 L 577 156 L 577 155 L 577 155 L 577 155 L 577 155 L 577 154 L 577 154 L 578 154 L 578 154 L 578 153 L 579 153 L 579 153 L 580 152 L 581 152 L 581 152 L 581 152 L 582 151 L 582 151 L 582 151 L 585 151 L 585 150 L 585 150 L 585 150 L 585 149 L 587 149 L 588 149 L 589 149 L 590 148 L 590 148 L 590 148 L 590 148 L 591 147 L 594 147 L 596 147 L 598 146 L 599 146 L 600 146 L 601 146 L 601 145 L 601 145 L 602 145 L 602 144 L 602 144 L 603 144 L 603 144 L 603 143 L 604 143 L 606 143 L 606 143 L 606 142 L 606 142 L 606 142 L 606 141 L 606 141 L 606 141 L 606 141 L 606 140 L 606 140 L 606 140 L 606 140 L 606 139 L 606 139 L 606 139 L 606 138 L 607 138 L 607 138 L 607 138 L 607 137 L 607 137 L 607 137 L 607 137 L 608 136 L 608 136 L 608 136 L 608 135 L 609 135 L 609 135 L 609 135 L 609 134 L 609 134 L 609 134 L 610 133 L 612 133 L 612 133 L 612 133 L 613 132 L 613 132 L 614 132 L 614 132 L 616 131 L 616 131 L 617 131 L 617 130 L 617 130 L 617 130 L 617 130 L 617 129 L 617 129 L 619 129 L 619 129 L 619 128 L 622 128 L 623 128 L 624 127 L 626 127 L 627 127 L 627 127 L 628 126 L 628 126 L 628 126 L 628 126 L 628 125 L 629 125 L 629 125 L 630 124 L 630 124 L 630 124 L 630 124 L 630 123 L 630 123 L 630 123 L 631 122 L 631 122 L 631 122 L 631 122 L 631 121 L 632 121 L 633 121 L 633 121 L 633 120 L 634 120 L 634 120 L 634 119 L 635 119 L 635 119 L 635 119 L 635 118 L 636 118 L 636 118 L 639 118 L 641 117 L 643 117 L 643 117 L 644 116 L 646 116 L 647 116 L 647 116 L 650 115 L 653 115 L 654 115 L 655 115 L 657 114 L 658 114 L 658 114 L 659 113 L 660 113 L 660 113 L 661 113 L 662 112 L 663 112 L 664 112 L 664 111 L 664 111 L 665 111 L 665 111 L 665 110 L 666 110 L 669 110 L 669 110 L 670 109 L 671 109 L 671 109 L 672 108 L 672 108 L 673 108 L 673 108 L 673 107 L 673 107 L 674 107 L 675 107 L 675 106 L 675 106 L 676 106 L 677 105 L 677 105 L 677 105 L 678 105 L 678 104 L 678 104 L 679 104 L 679 104 L 679 103 L 679 103 L 679 103 L 679 102 L 680 102 L 682 102 L 683 102 L 683 101 L 686 101 L 686 101 L 687 100 L 688 100 L 690 100 L 691 100 L 693 99 L 694 99 L 695 99 L 695 99 L 697 98 L 698 98 L 700 98 L 700 97 L 700 97 L 700 97 L 700 97 L 700 96 L 701 96 L 702 96 L 703 96 L 703 95 L 704 95 L 704 95 L 709 94 L 709 94 L 710 94 L 711 94 L 713 93 L 713 93 L 713 93 L 714 92 L 714 92 L 714 92 L 715 92 L 716 91 L 716 91 L 716 91 L 717 91 L 717 90 L 717 90 L 718 90 L 719 89 L 721 89 L 722 89 L 726 89 L 726 88 L 726 88 L 727 88 L 728 88 L 728 87 L 728 87 L 728 87 L 731 86 L 732 86 L 733 86 L 733 86 L 733 85 L 733 85 L 735 85 L 736 85 L 738 84 L 738 84 L 738 84 L 738 83 L 739 83 L 739 83 L 739 83 L 740 82 L 740 82 L 740 82 L 741 82 L 742 81 L 743 81 L 743 81 L 743 80 L 743 80 L 744 80 L 744 80 L 746 79 L 750 79 L 750 79 L 753 78 L 754 78 L 756 78 L 756 78 L 757 77 L 757 77 L 758 77 L 758 77 L 759 76 L 761 76 L 762 76 L 765 75 L 769 75 L 769 75 L 769 75 L 769 74 L 769 74 L 771 74 L 771 74 L 771 73 L 778 73 L 780 73 L 780 72 L 781 72 L 783 72 L 785 72 L 786 71 L 787 71 L 787 71 L 788 71 L 789 70 L 793 70 L 794 70 L 795 69 L 796 69 L 798 69 L 799 69 L 799 68 L 799 68 L 799 68 L 800 67 L 800 67 L 801 67 L 803 67 L 804 66 L 804 66 L 805 66 L 807 66 L 809 65 L 811 65 L 811 65 L 812 64 L 813 64 L 813 64 L 813 64 L 813 63 L 813 63 L 813 63 L 815 63 L 816 62 L 816 62 L 817 62 L 817 61 L 817 61 L 817 61 L 817 61 L 817 60 L 818 60 L 818 60 L 818 60 L 818 59 L 819 59 L 819 59 L 819 58 L 820 58 L 820 58 L 820 58 L 820 57 L 821 57 L 825 57 L 826 56 L 827 56 L 828 56 L 828 56 L 828 55 L 828 55 L 828 55 L 828 55 L 828 54 L 828 54 L 828 54 L 828 53 L 828 53 L 828 53 L 828 53 L 828 52 L 828 52 L 828 52 L 828 52 L 829 51 L 829 51 L 829 51 L 830 50 L 831 50 L 831 50 L 832 50 L 833 49 L 834 49 L 834 49 L 834 49 L 834 48 L 836 48 L 836 48 L 836 47 L 838 47 L 839 47 L 840 47 L 840 46 L 841 46 L 841 46 L 841 45 L 843 45 L 843 45 L 844 45 L 845 44 L 847 44 L 847 44 L 847 44 L 848 43 L 848 43 L 848 43 L 849 42 L 850 42 L 851 42 L 853 42 L 856 41 L 857 41 L 857 41 L 861 41 L 861 40 L 862 40 L 862 40 L 862 39 L 862 39 L 863 39 L 864 39 L 865 38 L 866 38 L 866 38 L 866 38 L 866 37 L 867 37 L 867 37 L 871 36 L 871 36 L 872 36 L 873 36 L 874 35 L 874 35 L 880 35 L 880 34 L 881 34 L 882 34 L 882 34 L 883 33 L 884 33 L 885 33 L 885 33 L 885 32 L 885 32 L 885 32 L 888 31 L 890 31 L 891 31 L 893 31 L 894 30 L 894 30 L 894 30 L 894 30 L 895 29 L 895 29 L 895 29 L 897 28 L 897 28 L 899 28 L 900 28 L 900 27 L 900 27 L 903 27 L 904 27 L 905 26 L 905 26 L 906 26 L 910 25 L 912 25 L 916 25 L 917 25 L 919 24 L 920 24 L 921 24 L 922 23 L 922 23 L 924 23 L 924 23 L 925 22 L 925 22 L 925 22 L 926 22 L 926 21 L 927 21 L 927 21 L 927 20 L 928 20 L 929 20 L 929 20 L 929 19 L 930 19 L 931 19 L 931 19 L 932 18 L 932 18 L 932 18 L 932 17 L 933 17 L 937 17 L 937 17 L 937 16" /><path stroke-width="2" class="series" d="M 58 345 L 60 345 L 71 345 L 71 344 L 71 344 L 71 344 L 71 344 L 71 343 L 71 343 L 71 343 L 71 342 L 71 342 L 71 342 L 71 342 L 71 341 L 71 341 L 71 341 L 72 341 L 72 340 L 72 340 L 73 340 L 73 339 L 73 339 L 74 339 L 74 339 L 74 338 L 74 338 L 75 338 L 76 338 L 76 337 L 77 337 L 78 337 L 81 336 L 81 336 L 81 336 L 81 336 L 81 335 L 83 335 L 84 335 L 85 335 L 86 334 L 89 334 L 90 334 L 94 333 L 96 333 L 98 333 L 101 333 L 102 332 L 113 332 L 113 332 L 114 331 L 114 331 L 114 331 L 114 331 L 114 330 L 114 330 L 114 330 L 114 330 L 114 329 L 114 329 L 114 329 L 114 328 L 115 328 L 115 328 L 115 328 L 115 327 L 115 327 L 115 327 L 115 327 L 115 326 L 115 326 L 115 326 L 115 325 L 115 325 L 115 325 L 115 325 L 115 324 L 115 324 L 115 324 L 115 324 L 115 323 L 115 323 L 115 323 L 115 322 L 115 322 L 115 322 L 115 322 L 115 321 L 115 321 L 115 321 L 115 320 L 115 320 L 115 320 L 115 320 L 115 319 L 115 319 L 115 319 L 115 319 L 115 318 L 116 318 L 116 318 L 116 317 L 116 317 L 116 317 L 117 317 L 117 316 L 117 316 L 117 316 L 117 316 L 117 315 L 117 315 L 117 315 L 117 314 L 117 314 L 117 314 L 117 314 L 117 313 L 117 313 L 117 313 L 117 313 L 117 312 L 117 312 L 118 312 L 118 311 L 118 311 L 118 311 L 120 311 L 120 310 L 120 310 L 121 310 L 121 309 L 123 309 L 124 309 L 125 309 L 126 308 L 127 308 L 128 308 L 128 308 L 128 307 L 130 307 L 130 307 L 131 306 L 131 306 L 132 306 L 132 306 L 133 305 L 133 305 L 133 305 L 134 305 L 134 304 L 135 304 L 135 304 L 135 303 L 135 303 L 136 303 L 137 303 L 138 302 L 139 302 L 140 302 L 140 302 L 141 301 L 141 301 L 141 301 L 142 300 L 146 300 L 147 300 L 147 300 L 151 299 L 151 299 L 151 299 L 152 298 L 152 298 L 152 298 L 154 298 L 154 297 L 154 297 L 159 297 L 160 297 L 161 296 L 163 296 L 164 296 L 164 295 L 165 295 L 168 295 L 172 295 L 176 294 L 177 294 L 177 294 L 177 294 L 177 293 L 184 293 L 187 293 L 187 292 L 189 292 L 189 292 L 190 292 L 196 291 L 196 291 L 197 291 L 197 291 L 198 290 L 200 290 L 202 290 L 203 289 L 204 289 L 208 289 L 208 289 L 208 288 L 209 288 L 209 288 L 209 287 L 211 287 L 215 287 L 223 287 L 226 286 L 227 286 L 228 286 L 229 286 L 229 285 L 229 285 L 229 285 L 229 284 L 229 284 L 229 284 L 229 284 L 230 283 L 230 283 L 230 283 L 230 283 L 230 282 L 230 282 L 230 282 L 232 281 L 232 281 L 232 281 L 232 281 L 233 280 L 233 280 L 233 280 L 233 280 L 233 279 L 233 279 L 233 279 L 234 278 L 234 278 L 234 278 L 235 278 L 235 277 L 235 277 L 235 277 L 235 276 L 235 276 L 236 276 L 236 276 L 236 275 L 236 275 L 237 275 L 238 275 L 238 274 L 239 274 L 241 274 L 241 273 L 241 273 L 241 273 L 241 273 L 241 272 L 242 272 L 243 272 L 243 272 L 244 271 L 244 271 L 245 271 L 246 270 L 247 270 L 247 270 L 249 270 L 249 269 L 249 269 L 250 269 L 250 269 L 253 268 L 254 268 L 254 268 L 256 267 L 257 267 L 260 267 L 260 267 L 261 266 L 261 266 L 262 266 L 262 265 L 264 265 L 265 265 L 266 265 L 266 264 L 268 264 L 268 264 L 268 264 L 268 263 L 268 263 L 269 263 L 269 262 L 269 262 L 269 262 L 269 262 L 270 261 L 273 261 L 276 261 L 276 261 L 277 260 L 279 260 L 280 260 L 281 259 L 281 259 L 282 259 L 282 259 L 282 258 L 282 258 L 282 258 L 282 258 L 283 257 L 283 257 L 283 257 L 283 256 L 284 256 L 285 256 L 285 256 L 285 255 L 285 255 L 286 255 L 286 254 L 286 254 L 286 254 L 286 254 L 286 253 L 286 253 L 286 253 L 289 253 L 290 252 L 290 252 L 291 252 L 298 251 L 299 251 L 301 251 L 303 251 L 308 250 L 310 250 L 310 250 L 310 250 L 310 249 L 310 249 L 310 249 L 310 248 L 311 248 L 312 248 L 317 248 L 319 247 L 321 247 L 325 247 L 328 247 L 330 246 L 332 246 L 335 246 L 335 245 L 342 245 L 348 245 L 348 245 L 352 244 L 352 244 L 356 244 L 357 243 L 359 243 L 359 243 L 359 243 L 359 242 L 361 242 L 362 242 L 364 242 L 366 241 L 367 241 L 367 241 L 368 240 L 370 240 L 372 240 L 372 240 L 375 239 L 378 239 L 378 239 L 378 239 L 379 238 L 380 238 L 381 238 L 383 237 L 385 237 L 386 237 L 388 237 L 388 236 L 391 236 L 392 236 L 394 236 L 397 235 L 397 235 L 400 235 L 401 234 L 401 234 L 402 234 L 402 234 L 404 233 L 404 233 L 405 233 L 407 232 L 408 232 L 408 232 L 408 232 L 413 231 L 413 231 L 414 231 L 414 231 L 414 230 L 415 230 L 415 230 L 415 229 L 416 229 L 417 229 L 417 229 L 418 228 L 418 228 L 419 228 L 419 228 L 420 227 L 420 227 L 420 227 L 420 226 L 420 226 L 421 226 L 421 226 L 421 225 L 421 225 L 422 225 L 423 225 L 423 224 L 423 224 L 424 224 L 424 223 L 425 223 L 426 223 L 426 223 L 426 222 L 427 222 L 428 222 L 428 221 L 429 221 L 430 221 L 430 221 L 430 220 L 431 220 L 431 220 L 431 220 L 431 219 L 431 219 L 432 219 L 432 218 L 434 218 L 435 218 L 436 218 L 436 217 L 438 217 L 439 217 L 439 217 L 441 216 L 442 216 L 444 216 L 446 215 L 446 215 L 446 215 L 446 215 L 447 214 L 447 214 L 447 214 L 447 214 L 448 213 L 448 213 L 448 213 L 448 212 L 449 212 L 450 212 L 450 212 L 451 211 L 451 211 L 453 211 L 453 210 L 453 210 L 454 210 L 454 210 L 456 209 L 460 209 L 460 209 L 460 209 L 460 208 L 462 208 L 464 208 L 464 207 L 464 207 L 464 207 L 464 207 L 465 206 L 468 206 L 468 206 L 468 206 L 468 205 L 469 205 L 470 205 L 470 204 L 470 204 L 472 204 L 474 204 L 474 203 L 477 203 L 477 203 L 478 203 L 480 202 L 481 202 L 483 202 L 484 201 L 485 201 L 486 201 L 486 201 L 486 200 L 487 200 L 487 200 L 487 199 L 487 199 L 487 199 L 488 199 L 488 198 L 488 198 L 488 198 L 489 198 L 490 197 L 490 197 L 493 197 L 494 196 L 497 196 L 499 196 L 499 196 L 499 195 L 500 195 L 502 195 L 502 195 L 502 194 L 503 194 L 503 194 L 503 193 L 503 193 L 503 193 L 504 193 L 504 192 L 504 192 L 504 192 L 504 192 L 505 191 L 505 191 L 506 191 L 506 190 L 506 190 L 507 190 L 508 190 L 508 189 L 508 189 L 508 189 L 509 188 L 511 188 L 511 188 L 511 188 L 511 187 L 511 187 L 512 187 L 512 187 L 512 186 L 513 186 L 514 186 L 516 185 L 518 185 L 519 185 L 520 185 L 522 184 L 525 184 L 525 184 L 527 184 L 530 183 L 530 183 L 530 183 L 533 182 L 534 182 L 535 182 L 535 182 L 535 181 L 541 181 L 542 181 L 542 181 L 542 180 L 543 180 L 543 180 L 544 179 L 544 179 L 544 179 L 545 179 L 545 178 L 545 178 L 546 178 L 546 177 L 546 177 L 546 177 L 546 177 L 546 176 L 546 176 L 547 176 L 548 176 L 549 175 L 549 175 L 549 175 L 550 174 L 550 174 L 551 174 L 551 174 L 552 173 L 552 173 L 552 173 L 552 173 L 553 172 L 554 172 L 555 172 L 555 171 L 555 171 L 556 171 L 556 171 L 556 170 L 556 170 L 556 170 L 557 170 L 557 169 L 557 169 L 558 169 L 558 168 L 559 168 L 559 168 L 560 168 L 560 167 L 560 167 L 560 167 L 560 166 L 560 166 L 560 166 L 562 166 L 562 165 L 562 165 L 562 165 L 562 165 L 562 164 L 562 164 L 562 164 L 563 163 L 563 163 L 563 163 L 563 163 L 563 162 L 563 162 L 565 162 L 566 162 L 567 161 L 567 161 L 567 161 L 568 160 L 569 160 L 569 160 L 570 160 L 570 159 L 572 159 L 574 159 L 574 159 L 575 158 L 575 158 L 575 158 L 576 157 L 576 157 L 576 157 L 577 157 L 577 156 L 577 156 L 577 156 L 577 155 L 577 155 L 577 155 L 577 155 L 577 154 L 577 154 L 578 154 L 578 154 L 578 153 L 579 153 L 579 153 L 580 152 L 581 152 L 581 152 L 581 152 L 582 151 L 582 151 L 582 151 L 585 151 L 585 150 L 585 150 L 585 150 L 585 149 L 587 149 L 588 149 L 589 149 L 590 148 L 590 148 L 590 148 L 590 148 L 591 147 L 594 147 L 596 147 L 598 146 L 599 146 L 600 146 L 601 146 L 601 145 L 601 145 L 602 145 L 602 144 L 602 144 L 603 144 L 603 144 L 603 143 L 604 143 L 606 143 L 606 143 L 606 142 L 606 142 L 606 142 L 606 141 L 606 141 L 606 141 L 606 141 L 606 140 L 606 140 L 606 140 L 606 140 L 606 139 L 606 139 L 606 139 L 606 138 L 607 138 L 607 138 L 607 138 L 607 137 L 607 137 L 607 137 L 607 137 L 608 136 L 608 136 L 608 136 L 608 135 L 609 135 L 609 135 L 609 135 L 609 134 L 609 134 L 609 134 L 610 133 L 612 133 L 612 133 L 612 133 L 613 132 L 613 132 L 614 132 L 614 132 L 616 131 L 616 131 L 617 131 L 617 130 L 617 130 L 617 130 L 617 130 L 617 129 L 617 129 L 619 129 L 619 129 L 619 128 L 622 128 L 623 128 L 624 127 L 626 127 L 627 127 L 627 127 L 628 126 L 628 126 L 628 126 L 628 126 L 628 125 L 629 125 L 629 125 L 630 124 L 630 124 L 630 124 L 630 124 L 630 123 L 630 123 L 630 123 L 631 122 L 631 122 L 631 122 L 631 122 L 631 121 L 632 121 L 633 121 L 633 121 L 633 120 L 634 120 L 634 120 L 634 119 L 635 119 L 635 119 L 635 119 L 635 118 L 636 118 L 636 118 L 639 118 L 641 117 L 643 117 L 643 117 L 644 116 L 646 116 L 647 116 L 647 116 L 650 115 L 653 115 L 654 115 L 655 115 L 657 114 L 658 114 L 658 114 L 659 113 L 660 113 L 660 113 L 661 113 L 662 112 L 663 112 L 664 112 L 664 111 L 664 111 L 665 111 L 665 111 L 665 110 L 666 110 L 669 110 L 669 110 L 670 109 L 671 109 L 671 109 L 672 108 L 672 108 L 673 108 L 673 108 L 673 107 L 673 107 L 674 107 L 675 107 L 675 106 L 675 106 L 676 106 L 677 105 L 677 105 L 677 105 L 678 105 L 678 104 L 678 104 L 679 104 L 679 104 L 679 103 L 679 103 L 679 103 L 679 102 L 680 102 L 682 102 L 683 102 L 683 101 L 686 101 L 686 101 L 687 100 L 688 100 L 690 100 L 691 100 L 693 99 L 694 99 L 695 99 L 695 99 L 697 98 L 698 98 L 700 98 L 700 97 L 700 97 L 700 97 L 700 97 L 700 96 L 701 96 L 702 96 L 703 96 L 703 95 L 704 95 L 704 95 L 709 94 L 709 94 L 710 94 L 711 94 L 713 93 L 713 93 L 713 93 L 714 92 L 714 92 L 714 92 L 715 92 L 716 91 L 716 91 L 716 91 L 717 91 L 717 90 L 717 90 L 718 90 L 719 89 L 721 89 L 722 89 L 726 89 L 726 88 L 726 88 L 727 88 L 728 88 L 728 87 L 728 87 L 728 87 L 731 86 L 732 86 L 733 86 L 733 86 L 733 85 L 733 85 L 735 85 L 736 85 L 738 84 L 738 84 L 738 84 L 738 83 L 739 83 L 739 83 L 739 83 L 740 82 L 740 82 L 740 82 L 741 82 L 742 81 L 743 81 L 743 81 L 743 80 L 743 80 L 744 80 L 744 80 L 746 79 L 750 79 L 750 79 L 753 78 L 754 78 L 756 78 L 756 78 L 757 77 L 757 77 L 758 77 L 758 77 L 759 76 L 761 76 L 762 76 L 765 75 L 769 75 L 769 75 L 769 75 L 769 74 L 769 74 L 771 74 L 771 74 L 771 73 L 778 73 L 780 73 L 780 72 L 781 72 L 783 72 L 785 72 L 786 71 L 787 71 L 787 71 L 788 71 L 789 70 L 793 70 L 794 70 L 795 69 L 796 69 L 798 69 L 799 69 L 799 68 L 799 68 L 799 68 L 800 67 L 800 67 L 801 67 L 803 67 L 804 66 L 804 66 L 805 66 L 807 66 L 809 65 L 811 65 L 811 65 L 812 64 L 813 64 L 813 64 L 813 64 L 813 63 L 813 63 L 813 63 L 815 63 L 816 62 L 816 62 L 817 62 L 817 61 L 817 61 L 817 61 L 817 61 L 817 60 L 818 60 L 818 60 L 818 60 L 818 59 L 819 59 L 819 59 L 819 58 L 820 58 L 820 58 L 820 58 L 820 57 L 821 57 L 825 57 L 826 56 L 827 56 L 828 56 L 828 56 L 828 55 L 828 55 L 828 55 L 828 55 L 828 54 L 828 54 L 828 54 L 828 53 L 828 53 L 828 53 L 828 53 L 828 52 L 828 52 L 828 52 L 828 52 L 829 51 L 829 51 L 829 51 L 830 50 L 831 50 L 831 50 L 832 50 L 833 49 L 834 49 L 834 49 L 834 49 L 834 48 L 836 48 L 836 48 L 836 47 L 838 47 L 839 47 L 840 47 L 840 46 L 841 46 L 841 46 L 841 45 L 843 45 L 843 45 L 844 45 L 845 44 L 847 44 L 847 44 L 847 44 L 848 43 L 848 43 L 848 43 L 849 42 L 850 42 L 851 42 L 853 42 L 856 41 L 857 41 L 857 41 L 861 41 L 861 40 L 862 40 L 862 40 L 862 39 L 862 39 L 863 39 L 864 39 L 865 38 L 866 38 L 866 38 L 866 38 L 866 37 L 867 37 L 867 37 L 871 36 L 871 36 L 872 36 L 873 36 L 874 35 L 874 35 L 880 35 L 880 34 L 881 34 L 882 34 L 882 34 L 883 33 L 884 33 L 885 33 L 885 33 L 885 32 L 885 32 L 885 32 L 888 31 L 890 31 L 891 31 L 893 31 L 894 30 L 894 30 L 894 30 L 894 30 L 895 29 L 895 29 L 895 29 L 897 28 L 897 28 L 899 28 L 900 28 L 900 27 L 900 27 L 903 27 L 904 27 L 905 26 L 905 26 L 906 26 L 910 25 L 912 25 L 916 25 L 917 25 L 919 24 L 920 24 L 921 24 L 922 23 L 922 23 L 924 23 L 924 23 L 925 22 L 925 22 L 925 22 L 926 22 L 926 21 L 927 21 L 927 21 L 927 20 L 928 20 L 929 20 L 929 20 L 929 19 L 930 19 L 931 19 L 931 19 L 932 18 L 932 18 L 932 18 L 932 17 L 933 17 L 937 17 L 937 17 L 937 16"></path><path stroke-width="2" d="M 937 346 L 937.000000 15.000000" /><path stroke-width="2" d="M 937 346 L 937.000000 15.000000"></path><path stroke-width="2" d="M 937 346 L 942 346" /><path stroke-width="2" d="M 937 346 L 942 346"></path><text x="947" y="352" xmlns="http://www.w3.org/2000/svg">0</text><path stroke-width="2" d="M 937 307 L 942 307" /><path d="M 937 307 L 942 307" stroke-width="2"></path><text xmlns="http://www.w3.org/2000/svg" x="947" y="313">140</text><path stroke-width="2" d="M 937 271 L 942 271" /><path stroke-width="2" d="M 937 271 L 942 271"></path><text x="947" y="277" xmlns="http://www.w3.org/2000/svg">270</text><path d="M 937 236 L 942 236" stroke-width="2" /><path d="M 937 236 L 942 236" stroke-width="2"></path><text xmlns="http://www.w3.org/2000/svg" x="947" y="242">400</text><path stroke-width="2" d="M 937 197 L 942 197" /><path stroke-width="2" d="M 937 197 L 942 197"></path><text xmlns="http://www.w3.org/2000/svg" x="947" y="203">540</text><path stroke-width="2" d="M 937 161 L 942 161" /><path stroke-width="2" d="M 937 161 L 942 161"></path><text xmlns="http://www.w3.org/2000/svg" x="947" y="167">670</text><path stroke-width="2" d="M 937 126 L 942 126" /><path stroke-width="2" d="M 937 126 L 942 126"></path><text y="132" xmlns="http://www.w3.org/2000/svg" x="947">800</text><path stroke-width="2" d="M 937 87 L 942 87" /><path stroke-width="2" d="M 937 87 L 942 87"></path><text xmlns="http://www.w3.org/2000/svg" x="947" y="93">940</text><path stroke-width="2" d="M 937 51 L 942 51" /><path stroke-width="2" d="M 937 51 L 942 51"></path><text y="57" xmlns="http://www.w3.org/2000/svg" x="947">1070</text><path stroke-width="2" d="M 937 16 L 942 16" /><path stroke-width="2" d="M 937 16 L 942 16"></path><text y="22" xmlns="http://www.w3.org/2000/svg" x="947">1200</text><text xmlns="http://www.w3.org/2000/svg" x="987" y="175" transform="rotate(90.00,987,175)">Stargazers</text><path stroke-width="2" d="M 57.000000 346.000000 L 937 346" /><path stroke-width="2" d="M 57.000000 346.000000 L 937 346"></path><path stroke-width="2" d="M 58 346 L 58 351" /><path stroke-width="2" d="M 58 346 L 58 351"></path><text xmlns="http://www.w3.org/2000/svg" x="25" y="368">2023-04-02</text><path stroke-width="2" d="M 156 346 L 156 351" /><path stroke-width="2" d="M 156 346 L 156 351"></path><text xmlns="http://www.w3.org/2000/svg" x="123" y="368">2023-07-23</text><path stroke-width="2" d="M 254 346 L 254 351" /><path stroke-width="2" d="M 254 346 L 254 351"></path><text xmlns="http://www.w3.org/2000/svg" x="221" y="368">2023-11-12</text><path stroke-width="2" d="M 351 346 L 351 351" /><path stroke-width="2" d="M 351 346 L 351 351"></path><text y="368" xmlns="http://www.w3.org/2000/svg" x="318">2024-03-03</text><path stroke-width="2" d="M 449 346 L 449 351" /><path stroke-width="2" d="M 449 346 L 449 351"></path><text xmlns="http://www.w3.org/2000/svg" x="416" y="368">2024-06-23</text><path stroke-width="2" d="M 547 346 L 547 351" /><path stroke-width="2" d="M 547 346 L 547 351"></path><text y="368" xmlns="http://www.w3.org/2000/svg" x="514">2024-10-13</text><path stroke-width="2" d="M 644 346 L 644 351" /><path stroke-width="2" d="M 644 346 L 644 351"></path><text xmlns="http://www.w3.org/2000/svg" x="611" y="368">2025-02-02</text><path stroke-width="2" d="M 742 346 L 742 351" /><path stroke-width="2" d="M 742 346 L 742 351"></path><text xmlns="http://www.w3.org/2000/svg" x="709" y="368">2025-05-25</text><path stroke-width="2" d="M 840 346 L 840 351" /><path stroke-width="2" d="M 840 346 L 840 351"></path><text xmlns="http://www.w3.org/2000/svg" x="807" y="368">2025-09-14</text><path stroke-width="2" d="M 937 346 L 937 351" /><path stroke-width="2" d="M 937 346 L 937 351"></path><text x="904" y="368" xmlns="http://www.w3.org/2000/svg">2026-01-04</text><text xmlns="http://www.w3.org/2000/svg" x="483" y="390">Time</text></svg>