<svg width="1024px" height="400px" xmlns="http://www.w3.org/2000/svg" xmlns:xlink="http://www.w3.org/1999/xlink"><style type="text/css">
path { fill: none; stroke: rgb(51,51,51); }
path.series { stroke: #6b63ff; }
rect.background { fill: rgb(255,255,255); stroke: none; }

text {
	stroke-width: 0;
	stroke: none;
	fill: rgba(51,51,51,1.0);
	font-size: 12.8px;
	font-family: 'Roboto Medium', sans-serif;
}
</style><rect class="background" rx="8" x="0" y="0" width="1024px" height="400px" /><rect width="1024px" height="400px" class="background" rx="8" x="0" y="0"></rect><path class="series" d="M 58 345 L 60 345 L 71 345 L 71 344 L 71 344 L 71 344 L 71 344 L 71 343 L 71 343 L 71 343 L 71 342 L 71 342 L 71 342 L 71 342 L 71 341 L 71 341 L 71 341 L 72 341 L 72 340 L 72 340 L 73 340 L 73 339 L 73 339 L 74 339 L 74 339 L 74 338 L 74 338 L 75 338 L 76 338 L 76 337 L 77 337 L 78 337 L 81 336 L 81 336 L 81 336 L 81 336 L 81 335 L 83 335 L 84 335 L 85 335 L 86 334 L 89 334 L 90 334 L 95 333 L 96 333 L 99 333 L 101 333 L 102 332 L 113 332 L 113 332 L 114 331 L 115 331 L 115 331 L 115 331 L 115 330 L 115 330 L 115 330 L 115 330 L 115 329 L 115 329 L 115 329 L 115 328 L 115 328 L 115 328 L 115 328 L 115 327 L 115 327 L 115 327 L 115 327 L 115 326 L 115 326 L 115 326 L 115 325 L 115 325 L 115 325 L 115 325 L 115 324 L 115 324 L 115 324 L 115 324 L 115 323 L 115 323 L 115 323 L 115 322 L 115 322 L 115 322 L 115 322 L 115 321 L 115 321 L 115 321 L 115 320 L 115 320 L 115 320 L 115 320 L 115 319 L 115 319 L 116 319 L 116 319 L 116 318 L 116 318 L 116 318 L 116 317 L 116 317 L 116 317 L 117 317 L 117 316 L 117 316 L 117 316 L 117 316 L 117 315 L 117 315 L 117 315 L 117 314 L 117 314 L 117 314 L 117 314 L 117 313 L 117 313 L 117 313 L 117 313 L 117 312 L 117 312 L 118 312 L 118 311 L 118 311 L 118 311 L 120 311 L 121 310 L 121 310 L 122 310 L 122 309 L 123 309 L 125 309 L 125 309 L 127 308 L 127 308 L 128 308 L 129 308 L 129 307 L 130 307 L 131 307 L 131 306 L 132 306 L 132 306 L 133 306 L 133 305 L 133 305 L 133 305 L 134 305 L 135 304 L 135 304 L 135 304 L 136 303 L 136 303 L 136 303 L 137 303 L 138 302 L 140 302 L 140 302 L 141 302 L 141 301 L 141 301 L 142 301 L 143 300 L 147 300 L 147 300 L 148 300 L 152 299 L 152 299 L 152 299 L 152 298 L 152 298 L 153 298 L 154 298 L 155 297 L 155 297 L 160 297 L 161 297 L 162 296 L 164 296 L 165 296 L 165 295 L 165 295 L 169 295 L 173 295 L 177 294 L 177 294 L 177 294 L 178 294 L 178 293 L 185 293 L 187 293 L 187 292 L 190 292 L 190 292 L 190 292 L 197 291 L 197 291 L 197 291 L 198 291 L 199 290 L 201 290 L 202 290 L 203 289 L 205 289 L 208 289 L 209 289 L 209 288 L 209 288 L 209 288 L 210 287 L 212 287 L 215 287 L 223 287 L 226 286 L 228 286 L 228 286 L 230 286 L 230 285 L 230 285 L 230 285 L 230 284 L 230 284 L 230 284 L 230 284 L 230 283 L 230 283 L 231 283 L 231 283 L 231 282 L 231 282 L 231 282 L 233 281 L 233 281 L 233 281 L 233 281 L 234 280 L 234 280 L 234 280 L 234 280 L 234 279 L 234 279 L 234 279 L 235 278 L 235 278 L 235 278 L 235 278 L 235 277 L 236 277 L 236 277 L 236 276 L 236 276 L 236 276 L 237 276 L 237 275 L 237 275 L 238 275 L 239 275 L 239 274 L 240 274 L 242 274 L 242 273 L 242 273 L 242 273 L 242 273 L 242 272 L 243 272 L 244 272 L 244 272 L 245 271 L 245 271 L 246 271 L 247 270 L 248 270 L 248 270 L 250 270 L 250 269 L 250 269 L 251 269 L 251 269 L 254 268 L 255 268 L 255 268 L 257 267 L 258 267 L 261 267 L 261 267 L 262 266 L 262 266 L 263 266 L 263 265 L 265 265 L 266 265 L 267 265 L 267 264 L 269 264 L 269 264 L 269 264 L 269 263 L 269 263 L 270 263 L 270 262 L 270 262 L 270 262 L 271 262 L 271 261 L 274 261 L 278 261 L 278 261 L 278 260 L 280 260 L 281 260 L 282 259 L 282 259 L 283 259 L 284 259 L 284 258 L 284 258 L 284 258 L 284 258 L 284 257 L 284 257 L 284 257 L 284 256 L 285 256 L 286 256 L 286 256 L 286 255 L 287 255 L 287 255 L 287 254 L 287 254 L 287 254 L 287 254 L 287 253 L 287 253 L 287 253 L 290 253 L 292 252 L 292 252 L 292 252 L 299 251 L 300 251 L 302 251 L 304 251 L 310 250 L 311 250 L 311 250 L 311 250 L 311 249 L 312 249 L 312 249 L 312 248 L 313 248 L 313 248 L 319 248 L 320 247 L 322 247 L 326 247 L 329 247 L 332 246 L 334 246 L 337 246 L 337 245 L 343 245 L 349 245 L 349 245 L 354 244 L 354 244 L 357 244 L 358 243 L 360 243 L 360 243 L 361 243 L 361 242 L 363 242 L 363 242 L 365 242 L 368 241 L 368 241 L 369 241 L 369 240 L 372 240 L 374 240 L 374 240 L 377 239 L 379 239 L 380 239 L 380 239 L 381 238 L 382 238 L 382 238 L 385 237 L 386 237 L 388 237 L 390 237 L 390 236 L 393 236 L 394 236 L 396 236 L 399 235 L 399 235 L 402 235 L 403 234 L 403 234 L 404 234 L 404 234 L 405 233 L 406 233 L 407 233 L 409 232 L 410 232 L 410 232 L 410 232 L 415 231 L 415 231 L 416 231 L 416 231 L 416 230 L 417 230 L 417 230 L 417 229 L 417 229 L 419 229 L 419 229 L 420 228 L 420 228 L 421 228 L 421 228 L 421 227 L 421 227 L 422 227 L 422 226 L 422 226 L 423 226 L 423 226 L 423 225 L 423 225 L 424 225 L 425 225 L 425 224 L 425 224 L 426 224 L 426 223 L 427 223 L 428 223 L 428 223 L 428 222 L 429 222 L 430 222 L 430 221 L 430 221 L 432 221 L 432 221 L 432 220 L 432 220 L 433 220 L 433 220 L 433 219 L 433 219 L 433 219 L 434 218 L 436 218 L 437 218 L 438 218 L 438 217 L 440 217 L 441 217 L 441 217 L 443 216 L 444 216 L 446 216 L 448 215 L 448 215 L 448 215 L 448 215 L 449 214 L 449 214 L 449 214 L 449 214 L 450 213 L 450 213 L 450 213 L 450 212 L 451 212 L 452 212 L 452 212 L 453 211 L 453 211 L 455 211 L 455 210 L 455 210 L 456 210 L 456 210 L 458 209 L 462 209 L 462 209 L 462 209 L 463 208 L 464 208 L 466 208 L 466 207 L 466 207 L 466 207 L 466 207 L 467 206 L 470 206 L 470 206 L 470 206 L 470 205 L 471 205 L 472 205 L 472 204 L 472 204 L 474 204 L 476 204 L 476 203 L 479 203 L 479 203 L 480 203 L 482 202 L 483 202 L 485 202 L 486 201 L 487 201 L 488 201 L 488 201 L 489 200 L 489 200 L 489 200 L 489 199 L 489 199 L 490 199 L 490 199 L 490 198 L 490 198 L 490 198 L 491 198 L 492 197 L 492 197 L 496 197 L 496 196 L 499 196 L 501 196 L 501 196 L 502 195 L 502 195 L 504 195 L 505 195 L 505 194 L 505 194 L 505 194 L 505 193 L 505 193 L 505 193 L 506 193 L 506 192 L 506 192 L 506 192 L 506 192 L 507 191 L 507 191 L 508 191 L 508 190 L 509 190 L 509 190 L 510 190 L 510 189 L 510 189 L 510 189 L 511 188 L 513 188 L 513 188 L 513 188 L 513 187 L 513 187 L 514 187 L 514 187 L 514 186 L 515 186 L 517 186 L 518 185 L 520 185 L 521 185 L 522 185 L 525 184 L 527 184 L 527 184 L 529 184 L 532 183 L 532 183 L 532 183 L 536 182 L 537 182 L 537 182 L 538 182 L 538 181 L 544 181 L 544 181 L 545 181 L 545 180 L 545 180 L 546 180 L 546 179 L 547 179 L 547 179 L 547 179 L 547 178 L 548 178 L 548 178 L 548 177 L 548 177 L 548 177 L 548 177 L 549 176 L 549 176 L 550 176 L 551 176 L 552 175 L 552 175 L 552 175 L 552 174 L 553 174 L 554 174 L 554 174 L 554 173 L 554 173 L 555 173 L 555 173 L 556 172 L 556 172 L 557 172 L 557 171 L 558 171 L 558 171 L 559 171 L 559 170 L 559 170 L 559 170 L 559 170 L 560 169 L 560 169 L 561 169 L 561 168 L 562 168 L 562 168 L 562 168 L 562 167 L 562 167 L 563 167 L 563 166 L 563 166 L 563 166 L 564 166 L 564 165 L 564 165 L 565 165 L 565 165 L 565 164 L 565 164 L 565 164 L 565 163 L 566 163 L 566 163 L 566 163 L 566 162 L 566 162 L 568 162 L 568 162 L 570 161 L 570 161 L 570 161 L 570 160 L 571 160 L 572 160 L 572 160 L 573 159 L 574 159 L 576 159 L 576 159 L 578 158 L 578 158 L 578 158 L 579 157 L 579 157 L 579 157 L 579 157 L 579 156 L 579 156 L 579 156 L 579 155 L 580 155 L 580 155 L 580 155 L 580 154 L 580 154 L 581 154 L 581 154 L 581 153 L 581 153 L 582 153 L 583 152 L 583 152 L 584 152 L 584 152 L 585 151 L 585 151 L 585 151 L 588 151 L 588 150 L 588 150 L 588 150 L 588 149 L 590 149 L 591 149 L 591 149 L 593 148 L 593 148 L 593 148 L 593 148 L 594 147 L 597 147 L 599 147 L 601 146 L 602 146 L 603 146 L 603 146 L 604 145 L 604 145 L 605 145 L 605 144 L 605 144 L 605 144 L 606 144 L 606 143 L 607 143 L 609 143 L 609 143 L 609 142 L 609 142 L 609 142 L 609 141 L 609 141 L 609 141 L 609 141 L 609 140 L 609 140 L 609 140 L 609 140 L 609 139 L 609 139 L 609 139 L 609 138 L 609 138 L 609 138 L 610 138 L 610 137 L 610 137 L 610 137 L 610 137 L 610 136 L 610 136 L 610 136 L 611 135 L 611 135 L 611 135 L 611 135 L 611 134 L 611 134 L 612 134 L 613 133 L 615 133 L 615 133 L 615 133 L 616 132 L 616 132 L 616 132 L 617 132 L 618 131 L 619 131 L 620 131 L 620 130 L 620 130 L 620 130 L 620 130 L 620 129 L 620 129 L 622 129 L 622 129 L 622 128 L 625 128 L 626 128 L 627 127 L 629 127 L 630 127 L 630 127 L 630 126 L 630 126 L 631 126 L 631 126 L 631 125 L 632 125 L 632 125 L 633 124 L 633 124 L 633 124 L 633 124 L 633 123 L 633 123 L 633 123 L 633 122 L 634 122 L 634 122 L 634 122 L 634 121 L 635 121 L 636 121 L 636 121 L 636 120 L 637 120 L 637 120 L 637 119 L 638 119 L 638 119 L 638 119 L 638 118 L 639 118 L 639 118 L 642 118 L 644 117 L 646 117 L 646 117 L 647 116 L 649 116 L 650 116 L 650 116 L 653 115 L 656 115 L 657 115 L 658 115 L 660 114 L 661 114 L 661 114 L 662 113 L 663 113 L 663 113 L 664 113 L 665 112 L 666 112 L 667 112 L 667 111 L 667 111 L 668 111 L 668 111 L 668 110 L 669 110 L 672 110 L 672 110 L 673 109 L 674 109 L 674 109 L 675 108 L 675 108 L 676 108 L 676 108 L 676 107 L 676 107 L 677 107 L 678 107 L 678 106 L 679 106 L 679 106 L 680 105 L 680 105 L 681 105 L 681 105 L 681 104 L 681 104 L 682 104 L 682 104 L 682 103 L 682 103 L 682 103 L 683 102 L 683 102 L 685 102 L 686 102 L 687 101 L 689 101 L 689 101 L 690 100 L 691 100 L 693 100 L 695 100 L 696 99 L 697 99 L 698 99 L 699 99 L 700 98 L 702 98 L 703 98 L 703 97 L 703 97 L 703 97 L 704 97 L 704 96 L 704 96 L 705 96 L 706 96 L 707 95 L 707 95 L 707 95 L 712 94 L 712 94 L 713 94 L 715 94 L 716 93 L 717 93 L 717 93 L 717 92 L 717 92 L 718 92 L 719 92 L 719 91 L 719 91 L 720 91 L 720 91 L 720 90 L 721 90 L 721 90 L 722 89 L 725 89 L 725 89 L 729 89 L 729 88 L 730 88 L 731 88 L 731 88 L 731 87 L 731 87 L 732 87 L 734 86 L 735 86 L 736 86 L 736 86 L 737 85 L 737 85 L 738 85 L 739 85 L 741 84 L 741 84 L 741 84 L 741 83 L 742 83 L 742 83 L 742 83 L 743 82 L 743 82 L 744 82 L 745 82 L 745 81 L 746 81 L 746 81 L 746 80 L 747 80 L 747 80 L 747 80 L 750 79 L 753 79 L 754 79 L 756 78 L 757 78 L 759 78 L 759 78 L 760 77 L 760 77 L 762 77 L 762 77 L 763 76 L 765 76 L 766 76 L 768 75 L 772 75 L 772 75 L 772 75 L 773 74 L 773 74 L 774 74 L 774 74 L 774 73 L 782 73 L 784 73 L 784 72 L 785 72 L 787 72 L 789 72 L 790 71 L 791 71 L 791 71 L 792 71 L 793 70 L 797 70 L 798 70 L 799 69 L 800 69 L 802 69 L 802 69 L 802 68 L 803 68 L 803 68 L 803 67 L 803 67 L 805 67 L 807 67 L 808 66 L 808 66 L 808 66 L 810 66 L 813 65 L 815 65 L 815 65 L 816 64 L 816 64 L 817 64 L 817 64 L 817 63 L 817 63 L 817 63 L 819 63 L 820 62 L 820 62 L 821 62 L 821 61 L 821 61 L 821 61 L 821 61 L 821 60 L 821 60 L 822 60 L 822 60 L 822 59 L 823 59 L 823 59 L 823 58 L 823 58 L 823 58 L 824 58 L 824 57 L 825 57 L 829 57 L 830 56 L 831 56 L 832 56 L 832 56 L 832 55 L 832 55 L 832 55 L 832 55 L 832 54 L 832 54 L 832 54 L 832 53 L 832 53 L 832 53 L 832 53 L 832 52 L 832 52 L 832 52 L 832 52 L 833 51 L 833 51 L 833 51 L 834 50 L 835 50 L 835 50 L 836 50 L 837 49 L 838 49 L 838 49 L 838 49 L 838 48 L 840 48 L 840 48 L 840 47 L 842 47 L 843 47 L 844 47 L 844 46 L 845 46 L 845 46 L 845 45 L 847 45 L 847 45 L 848 45 L 849 44 L 851 44 L 851 44 L 851 44 L 852 43 L 852 43 L 852 43 L 853 42 L 854 42 L 855 42 L 857 42 L 861 41 L 861 41 L 861 41 L 865 41 L 866 40 L 866 40 L 866 40 L 866 39 L 867 39 L 867 39 L 868 39 L 869 38 L 870 38 L 870 38 L 870 38 L 871 37 L 871 37 L 871 37 L 875 36 L 875 36 L 876 36 L 877 36 L 878 35 L 879 35 L 884 35 L 885 34 L 885 34 L 886 34 L 886 34 L 887 33 L 888 33 L 889 33 L 889 33 L 889 32 L 889 32 L 889 32 L 893 31 L 894 31 L 895 31 L 897 31 L 898 30 L 898 30 L 899 30 L 899 30 L 899 29 L 899 29 L 900 29 L 902 28 L 902 28 L 903 28 L 904 28 L 904 27 L 904 27 L 907 27 L 908 27 L 909 26 L 909 26 L 910 26 L 914 25 L 917 25 L 921 25 L 921 25 L 923 24 L 925 24 L 925 24 L 926 23 L 926 23 L 928 23 L 928 23 L 929 22 L 930 22 L 930 22 L 930 22 L 930 21 L 931 21 L 931 21 L 932 20 L 932 20 L 933 20 L 934 20 L 934 19 L 934 19 L 935 19 L 935 19 L 936 18 L 936 18 L 936 18 L 937 17 L 937 17" stroke-width="2" /><path stroke-width="2" class="series" d="M 58 345 L 60 345 L 71 345 L 71 344 L 71 344 L 71 344 L 71 344 L 71 343 L 71 343 L 71 343 L 71 342 L 71 342 L 71 342 L 71 342 L 71 341 L 71 341 L 71 341 L 72 341 L 72 340 L 72 340 L 73 340 L 73 339 L 73 339 L 74 339 L 74 339 L 74 338 L 74 338 L 75 338 L 76 338 L 76 337 L 77 337 L 78 337 L 81 336 L 81 336 L 81 336 L 81 336 L 81 335 L 83 335 L 84 335 L 85 335 L 86 334 L 89 334 L 90 334 L 95 333 L 96 333 L 99 333 L 101 333 L 102 332 L 113 332 L 113 332 L 114 331 L 115 331 L 115 331 L 115 331 L 115 330 L 115 330 L 115 330 L 115 330 L 115 329 L 115 329 L 115 329 L 115 328 L 115 328 L 115 328 L 115 328 L 115 327 L 115 327 L 115 327 L 115 327 L 115 326 L 115 326 L 115 326 L 115 325 L 115 325 L 115 325 L 115 325 L 115 324 L 115 324 L 115 324 L 115 324 L 115 323 L 115 323 L 115 323 L 115 322 L 115 322 L 115 322 L 115 322 L 115 321 L 115 321 L 115 321 L 115 320 L 115 320 L 115 320 L 115 320 L 115 319 L 115 319 L 116 319 L 116 319 L 116 318 L 116 318 L 116 318 L 116 317 L 116 317 L 116 317 L 117 317 L 117 316 L 117 316 L 117 316 L 117 316 L 117 315 L 117 315 L 117 315 L 117 314 L 117 314 L 117 314 L 117 314 L 117 313 L 117 313 L 117 313 L 117 313 L 117 312 L 117 312 L 118 312 L 118 311 L 118 311 L 118 311 L 120 311 L 121 310 L 121 310 L 122 310 L 122 309 L 123 309 L 125 309 L 125 309 L 127 308 L 127 308 L 128 308 L 129 308 L 129 307 L 130 307 L 131 307 L 131 306 L 132 306 L 132 306 L 133 306 L 133 305 L 133 305 L 133 305 L 134 305 L 135 304 L 135 304 L 135 304 L 136 303 L 136 303 L 136 303 L 137 303 L 138 302 L 140 302 L 140 302 L 141 302 L 141 301 L 141 301 L 142 301 L 143 300 L 147 300 L 147 300 L 148 300 L 152 299 L 152 299 L 152 299 L 152 298 L 152 298 L 153 298 L 154 298 L 155 297 L 155 297 L 160 297 L 161 297 L 162 296 L 164 296 L 165 296 L 165 295 L 165 295 L 169 295 L 173 295 L 177 294 L 177 294 L 177 294 L 178 294 L 178 293 L 185 293 L 187 293 L 187 292 L 190 292 L 190 292 L 190 292 L 197 291 L 197 291 L 197 291 L 198 291 L 199 290 L 201 290 L 202 290 L 203 289 L 205 289 L 208 289 L 209 289 L 209 288 L 209 288 L 209 288 L 210 287 L 212 287 L 215 287 L 223 287 L 226 286 L 228 286 L 228 286 L 230 286 L 230 285 L 230 285 L 230 285 L 230 284 L 230 284 L 230 284 L 230 284 L 230 283 L 230 283 L 231 283 L 231 283 L 231 282 L 231 282 L 231 282 L 233 281 L 233 281 L 233 281 L 233 281 L 234 280 L 234 280 L 234 280 L 234 280 L 234 279 L 234 279 L 234 279 L 235 278 L 235 278 L 235 278 L 235 278 L 235 277 L 236 277 L 236 277 L 236 276 L 236 276 L 236 276 L 237 276 L 237 275 L 237 275 L 238 275 L 239 275 L 239 274 L 240 274 L 242 274 L 242 273 L 242 273 L 242 273 L 242 273 L 242 272 L 243 272 L 244 272 L 244 272 L 245 271 L 245 271 L 246 271 L 247 270 L 248 270 L 248 270 L 250 270 L 250 269 L 250 269 L 251 269 L 251 269 L 254 268 L 255 268 L 255 268 L 257 267 L 258 267 L 261 267 L 261 267 L 262 266 L 262 266 L 263 266 L 263 265 L 265 265 L 266 265 L 267 265 L 267 264 L 269 264 L 269 264 L 269 264 L 269 263 L 269 263 L 270 263 L 270 262 L 270 262 L 270 262 L 271 262 L 271 261 L 274 261 L 278 261 L 278 261 L 278 260 L 280 260 L 281 260 L 282 259 L 282 259 L 283 259 L 284 259 L 284 258 L 284 258 L 284 258 L 284 258 L 284 257 L 284 257 L 284 257 L 284 256 L 285 256 L 286 256 L 286 256 L 286 255 L 287 255 L 287 255 L 287 254 L 287 254 L 287 254 L 287 254 L 287 253 L 287 253 L 287 253 L 290 253 L 292 252 L 292 252 L 292 252 L 299 251 L 300 251 L 302 251 L 304 251 L 310 250 L 311 250 L 311 250 L 311 250 L 311 249 L 312 249 L 312 249 L 312 248 L 313 248 L 313 248 L 319 248 L 320 247 L 322 247 L 326 247 L 329 247 L 332 246 L 334 246 L 337 246 L 337 245 L 343 245 L 349 245 L 349 245 L 354 244 L 354 244 L 357 244 L 358 243 L 360 243 L 360 243 L 361 243 L 361 242 L 363 242 L 363 242 L 365 242 L 368 241 L 368 241 L 369 241 L 369 240 L 372 240 L 374 240 L 374 240 L 377 239 L 379 239 L 380 239 L 380 239 L 381 238 L 382 238 L 382 238 L 385 237 L 386 237 L 388 237 L 390 237 L 390 236 L 393 236 L 394 236 L 396 236 L 399 235 L 399 235 L 402 235 L 403 234 L 403 234 L 404 234 L 404 234 L 405 233 L 406 233 L 407 233 L 409 232 L 410 232 L 410 232 L 410 232 L 415 231 L 415 231 L 416 231 L 416 231 L 416 230 L 417 230 L 417 230 L 417 229 L 417 229 L 419 229 L 419 229 L 420 228 L 420 228 L 421 228 L 421 228 L 421 227 L 421 227 L 422 227 L 422 226 L 422 226 L 423 226 L 423 226 L 423 225 L 423 225 L 424 225 L 425 225 L 425 224 L 425 224 L 426 224 L 426 223 L 427 223 L 428 223 L 428 223 L 428 222 L 429 222 L 430 222 L 430 221 L 430 221 L 432 221 L 432 221 L 432 220 L 432 220 L 433 220 L 433 220 L 433 219 L 433 219 L 433 219 L 434 218 L 436 218 L 437 218 L 438 218 L 438 217 L 440 217 L 441 217 L 441 217 L 443 216 L 444 216 L 446 216 L 448 215 L 448 215 L 448 215 L 448 215 L 449 214 L 449 214 L 449 214 L 449 214 L 450 213 L 450 213 L 450 213 L 450 212 L 451 212 L 452 212 L 452 212 L 453 211 L 453 211 L 455 211 L 455 210 L 455 210 L 456 210 L 456 210 L 458 209 L 462 209 L 462 209 L 462 209 L 463 208 L 464 208 L 466 208 L 466 207 L 466 207 L 466 207 L 466 207 L 467 206 L 470 206 L 470 206 L 470 206 L 470 205 L 471 205 L 472 205 L 472 204 L 472 204 L 474 204 L 476 204 L 476 203 L 479 203 L 479 203 L 480 203 L 482 202 L 483 202 L 485 202 L 486 201 L 487 201 L 488 201 L 488 201 L 489 200 L 489 200 L 489 200 L 489 199 L 489 199 L 490 199 L 490 199 L 490 198 L 490 198 L 490 198 L 491 198 L 492 197 L 492 197 L 496 197 L 496 196 L 499 196 L 501 196 L 501 196 L 502 195 L 502 195 L 504 195 L 505 195 L 505 194 L 505 194 L 505 194 L 505 193 L 505 193 L 505 193 L 506 193 L 506 192 L 506 192 L 506 192 L 506 192 L 507 191 L 507 191 L 508 191 L 508 190 L 509 190 L 509 190 L 510 190 L 510 189 L 510 189 L 510 189 L 511 188 L 513 188 L 513 188 L 513 188 L 513 187 L 513 187 L 514 187 L 514 187 L 514 186 L 515 186 L 517 186 L 518 185 L 520 185 L 521 185 L 522 185 L 525 184 L 527 184 L 527 184 L 529 184 L 532 183 L 532 183 L 532 183 L 536 182 L 537 182 L 537 182 L 538 182 L 538 181 L 544 181 L 544 181 L 545 181 L 545 180 L 545 180 L 546 180 L 546 179 L 547 179 L 547 179 L 547 179 L 547 178 L 548 178 L 548 178 L 548 177 L 548 177 L 548 177 L 548 177 L 549 176 L 549 176 L 550 176 L 551 176 L 552 175 L 552 175 L 552 175 L 552 174 L 553 174 L 554 174 L 554 174 L 554 173 L 554 173 L 555 173 L 555 173 L 556 172 L 556 172 L 557 172 L 557 171 L 558 171 L 558 171 L 559 171 L 559 170 L 559 170 L 559 170 L 559 170 L 560 169 L 560 169 L 561 169 L 561 168 L 562 168 L 562 168 L 562 168 L 562 167 L 562 167 L 563 167 L 563 166 L 563 166 L 563 166 L 564 166 L 564 165 L 564 165 L 565 165 L 565 165 L 565 164 L 565 164 L 565 164 L 565 163 L 566 163 L 566 163 L 566 163 L 566 162 L 566 162 L 568 162 L 568 162 L 570 161 L 570 161 L 570 161 L 570 160 L 571 160 L 572 160 L 572 160 L 573 159 L 574 159 L 576 159 L 576 159 L 578 158 L 578 158 L 578 158 L 579 157 L 579 157 L 579 157 L 579 157 L 579 156 L 579 156 L 579 156 L 579 155 L 580 155 L 580 155 L 580 155 L 580 154 L 580 154 L 581 154 L 581 154 L 581 153 L 581 153 L 582 153 L 583 152 L 583 152 L 584 152 L 584 152 L 585 151 L 585 151 L 585 151 L 588 151 L 588 150 L 588 150 L 588 150 L 588 149 L 590 149 L 591 149 L 591 149 L 593 148 L 593 148 L 593 148 L 593 148 L 594 147 L 597 147 L 599 147 L 601 146 L 602 146 L 603 146 L 603 146 L 604 145 L 604 145 L 605 145 L 605 144 L 605 144 L 605 144 L 606 144 L 606 143 L 607 143 L 609 143 L 609 143 L 609 142 L 609 142 L 609 142 L 609 141 L 609 141 L 609 141 L 609 141 L 609 140 L 609 140 L 609 140 L 609 140 L 609 139 L 609 139 L 609 139 L 609 138 L 609 138 L 609 138 L 610 138 L 610 137 L 610 137 L 610 137 L 610 137 L 610 136 L 610 136 L 610 136 L 611 135 L 611 135 L 611 135 L 611 135 L 611 134 L 611 134 L 612 134 L 613 133 L 615 133 L 615 133 L 615 133 L 616 132 L 616 132 L 616 132 L 617 132 L 618 131 L 619 131 L 620 131 L 620 130 L 620 130 L 620 130 L 620 130 L 620 129 L 620 129 L 622 129 L 622 129 L 622 128 L 625 128 L 626 128 L 627 127 L 629 127 L 630 127 L 630 127 L 630 126 L 630 126 L 631 126 L 631 126 L 631 125 L 632 125 L 632 125 L 633 124 L 633 124 L 633 124 L 633 124 L 633 123 L 633 123 L 633 123 L 633 122 L 634 122 L 634 122 L 634 122 L 634 121 L 635 121 L 636 121 L 636 121 L 636 120 L 637 120 L 637 120 L 637 119 L 638 119 L 638 119 L 638 119 L 638 118 L 639 118 L 639 118 L 642 118 L 644 117 L 646 117 L 646 117 L 647 116 L 649 116 L 650 116 L 650 116 L 653 115 L 656 115 L 657 115 L 658 115 L 660 114 L 661 114 L 661 114 L 662 113 L 663 113 L 663 113 L 664 113 L 665 112 L 666 112 L 667 112 L 667 111 L 667 111 L 668 111 L 668 111 L 668 110 L 669 110 L 672 110 L 672 110 L 673 109 L 674 109 L 674 109 L 675 108 L 675 108 L 676 108 L 676 108 L 676 107 L 676 107 L 677 107 L 678 107 L 678 106 L 679 106 L 679 106 L 680 105 L 680 105 L 681 105 L 681 105 L 681 104 L 681 104 L 682 104 L 682 104 L 682 103 L 682 103 L 682 103 L 683 102 L 683 102 L 685 102 L 686 102 L 687 101 L 689 101 L 689 101 L 690 100 L 691 100 L 693 100 L 695 100 L 696 99 L 697 99 L 698 99 L 699 99 L 700 98 L 702 98 L 703 98 L 703 97 L 703 97 L 703 97 L 704 97 L 704 96 L 704 96 L 705 96 L 706 96 L 707 95 L 707 95 L 707 95 L 712 94 L 712 94 L 713 94 L 715 94 L 716 93 L 717 93 L 717 93 L 717 92 L 717 92 L 718 92 L 719 92 L 719 91 L 719 91 L 720 91 L 720 91 L 720 90 L 721 90 L 721 90 L 722 89 L 725 89 L 725 89 L 729 89 L 729 88 L 730 88 L 731 88 L 731 88 L 731 87 L 731 87 L 732 87 L 734 86 L 735 86 L 736 86 L 736 86 L 737 85 L 737 85 L 738 85 L 739 85 L 741 84 L 741 84 L 741 84 L 741 83 L 742 83 L 742 83 L 742 83 L 743 82 L 743 82 L 744 82 L 745 82 L 745 81 L 746 81 L 746 81 L 746 80 L 747 80 L 747 80 L 747 80 L 750 79 L 753 79 L 754 79 L 756 78 L 757 78 L 759 78 L 759 78 L 760 77 L 760 77 L 762 77 L 762 77 L 763 76 L 765 76 L 766 76 L 768 75 L 772 75 L 772 75 L 772 75 L 773 74 L 773 74 L 774 74 L 774 74 L 774 73 L 782 73 L 784 73 L 784 72 L 785 72 L 787 72 L 789 72 L 790 71 L 791 71 L 791 71 L 792 71 L 793 70 L 797 70 L 798 70 L 799 69 L 800 69 L 802 69 L 802 69 L 802 68 L 803 68 L 803 68 L 803 67 L 803 67 L 805 67 L 807 67 L 808 66 L 808 66 L 808 66 L 810 66 L 813 65 L 815 65 L 815 65 L 816 64 L 816 64 L 817 64 L 817 64 L 817 63 L 817 63 L 817 63 L 819 63 L 820 62 L 820 62 L 821 62 L 821 61 L 821 61 L 821 61 L 821 61 L 821 60 L 821 60 L 822 60 L 822 60 L 822 59 L 823 59 L 823 59 L 823 58 L 823 58 L 823 58 L 824 58 L 824 57 L 825 57 L 829 57 L 830 56 L 831 56 L 832 56 L 832 56 L 832 55 L 832 55 L 832 55 L 832 55 L 832 54 L 832 54 L 832 54 L 832 53 L 832 53 L 832 53 L 832 53 L 832 52 L 832 52 L 832 52 L 832 52 L 833 51 L 833 51 L 833 51 L 834 50 L 835 50 L 835 50 L 836 50 L 837 49 L 838 49 L 838 49 L 838 49 L 838 48 L 840 48 L 840 48 L 840 47 L 842 47 L 843 47 L 844 47 L 844 46 L 845 46 L 845 46 L 845 45 L 847 45 L 847 45 L 848 45 L 849 44 L 851 44 L 851 44 L 851 44 L 852 43 L 852 43 L 852 43 L 853 42 L 854 42 L 855 42 L 857 42 L 861 41 L 861 41 L 861 41 L 865 41 L 866 40 L 866 40 L 866 40 L 866 39 L 867 39 L 867 39 L 868 39 L 869 38 L 870 38 L 870 38 L 870 38 L 871 37 L 871 37 L 871 37 L 875 36 L 875 36 L 876 36 L 877 36 L 878 35 L 879 35 L 884 35 L 885 34 L 885 34 L 886 34 L 886 34 L 887 33 L 888 33 L 889 33 L 889 33 L 889 32 L 889 32 L 889 32 L 893 31 L 894 31 L 895 31 L 897 31 L 898 30 L 898 30 L 899 30 L 899 30 L 899 29 L 899 29 L 900 29 L 902 28 L 902 28 L 903 28 L 904 28 L 904 27 L 904 27 L 907 27 L 908 27 L 909 26 L 909 26 L 910 26 L 914 25 L 917 25 L 921 25 L 921 25 L 923 24 L 925 24 L 925 24 L 926 23 L 926 23 L 928 23 L 928 23 L 929 22 L 930 22 L 930 22 L 930 22 L 930 21 L 931 21 L 931 21 L 932 20 L 932 20 L 933 20 L 934 20 L 934 19 L 934 19 L 935 19 L 935 19 L 936 18 L 936 18 L 936 18 L 937 17 L 937 17"></path><path d="M 937 346 L 937.000000 15.000000" stroke-width="2" /><path stroke-width="2" d="M 937 346 L 937.000000 15.000000"></path><path stroke-width="2" d="M 937 346 L 942 346" /><path stroke-width="2" d="M 937 346 L 942 346"></path><text xmlns="http://www.w3.org/2000/svg" x="947" y="352">0</text><path stroke-width="2" d="M 937 307 L 942 307" /><path stroke-width="2" d="M 937 307 L 942 307"></path><text y="313" xmlns="http://www.w3.org/2000/svg" x="947">140</text><path stroke-width="2" d="M 937 271 L 942 271" /><path stroke-width="2" d="M 937 271 L 942 271"></path><text xmlns="http://www.w3.org/2000/svg" x="947" y="277">270</text><path d="M 937 236 L 942 236" stroke-width="2" /><path stroke-width="2" d="M 937 236 L 942 236"></path><text xmlns="http://www.w3.org/2000/svg" x="947" y="242">400</text><path d="M 937 197 L 942 197" stroke-width="2" /><path stroke-width="2" d="M 937 197 L 942 197"></path><text xmlns="http://www.w3.org/2000/svg" x="947" y="203">540</text><path stroke-width="2" d="M 937 161 L 942 161" /><path stroke-width="2" d="M 937 161 L 942 161"></path><text xmlns="http://www.w3.org/2000/svg" x="947" y="167">670</text><path stroke-width="2" d="M 937 126 L 942 126" /><path stroke-width="2" d="M 937 126 L 942 126"></path><text y="132" xmlns="http://www.w3.org/2000/svg" x="947">800</text><path stroke-width="2" d="M 937 87 L 942 87" /><path stroke-width="2" d="M 937 87 L 942 87"></path><text y="93" xmlns="http://www.w3.org/2000/svg" x="947">940</text><path stroke-width="2" d="M 937 51 L 942 51" /><path stroke-width="2" d="M 937 51 L 942 51"></path><text xmlns="http://www.w3.org/2000/svg" x="947" y="57">1070</text><path stroke-width="2" d="M 937 16 L 942 16" /><path stroke-width="2" d="M 937 16 L 942 16"></path><text xmlns="http://www.w3.org/2000/svg" x="947" y="22">1200</text><text xmlns="http://www.w3.org/2000/svg" x="987" y="175" transform="rotate(90.00,987,175)">Stargazers</text><path stroke-width="2" d="M 57.000000 346.000000 L 937 346" /><path stroke-width="2" d="M 57.000000 346.000000 L 937 346"></path><path stroke-width="2" d="M 58 346 L 58 351" /><path stroke-width="2" d="M 58 346 L 58 351"></path><text x="25" y="368" xmlns="http://www.w3.org/2000/svg">2023-04-02</text><path stroke-width="2" d="M 156 346 L 156 351" /><path stroke-width="2" d="M 156 346 L 156 351"></path><text xmlns="http://www.w3.org/2000/svg" x="123" y="368">2023-07-22</text><path stroke-width="2" d="M 254 346 L 254 351" /><path stroke-width="2" d="M 254 346 L 254 351"></path><text xmlns="http://www.w3.org/2000/svg" x="221" y="368">2023-11-11</text><path stroke-width="2" d="M 351 346 L 351 351" /><path stroke-width="2" d="M 351 346 L 351 351"></path><text xmlns="http://www.w3.org/2000/svg" x="318" y="368">2024-03-01</text><path stroke-width="2" d="M 449 346 L 449 351" /><path stroke-width="2" d="M 449 346 L 449 351"></path><text xmlns="http://www.w3.org/2000/svg" x="416" y="368">2024-06-21</text><path stroke-width="2" d="M 547 346 L 547 351" /><path stroke-width="2" d="M 547 346 L 547 351"></path><text x="514" y="368" xmlns="http://www.w3.org/2000/svg">2024-10-10</text><path stroke-width="2" d="M 644 346 L 644 351" /><path stroke-width="2" d="M 644 346 L 644 351"></path><text xmlns="http://www.w3.org/2000/svg" x="611" y="368">2025-01-30</text><path stroke-width="2" d="M 742 346 L 742 351" /><path stroke-width="2" d="M 742 346 L 742 351"></path><text xmlns="http://www.w3.org/2000/svg" x="709" y="368">2025-05-21</text><path stroke-width="2" d="M 840 346 L 840 351" /><path stroke-width="2" d="M 840 346 L 840 351"></path><text xmlns="http://www.w3.org/2000/svg" x="807" y="368">2025-09-10</text><path stroke-width="2" d="M 937 346 L 937 351" /><path stroke-width="2" d="M 937 346 L 937 351"></path><text xmlns="http://www.w3.org/2000/svg" x="904" y="368">2025-12-30</text><text y="390" xmlns="http://www.w3.org/2000/svg" x="483">Time</text></svg>