<svg xmlns="http://www.w3.org/2000/svg" xmlns:xlink="http://www.w3.org/1999/xlink" width="1024px" height="400px"><style type="text/css">
path { fill: none; stroke: rgb(51,51,51); }
path.series { stroke: #6b63ff; }
rect.background { fill: rgb(255,255,255); stroke: none; }

text {
	stroke-width: 0;
	stroke: none;
	fill: rgba(51,51,51,1.0);
	font-size: 12.8px;
	font-family: 'Roboto Medium', sans-serif;
}
</style><rect x="0" y="0" width="1024px" height="400px" class="background" rx="8" /><rect x="0" y="0" width="1024px" height="400px" class="background" rx="8"></rect><path stroke-width="2" class="series" d="M 58 345 L 61 344 L 81 344 L 82 343 L 82 343 L 82 342 L 82 342 L 82 341 L 82 341 L 82 340 L 83 340 L 83 339 L 83 338 L 83 338 L 83 337 L 83 337 L 83 336 L 83 336 L 83 335 L 84 335 L 85 334 L 85 334 L 87 333 L 88 333 L 88 332 L 88 331 L 88 331 L 90 330 L 92 330 L 92 329 L 93 329 L 95 328 L 101 328 L 101 327 L 101 327 L 101 326 L 101 325 L 101 325 L 105 324 L 107 324 L 108 323 L 111 323 L 116 322 L 118 322 L 127 321 L 129 321 L 134 320 L 139 320 L 141 319 L 160 318 L 161 318 L 161 317 L 164 317 L 164 316 L 164 316 L 164 315 L 164 315 L 164 314 L 164 314 L 164 313 L 164 313 L 164 312 L 164 311 L 164 311 L 165 310 L 165 310 L 165 309 L 165 309 L 165 308 L 165 308 L 165 307 L 165 307 L 165 306 L 165 305 L 165 305 L 165 304 L 165 304 L 165 303 L 165 303 L 165 302 L 165 302 L 165 301 L 165 301 L 166 300 L 166 300 L 166 299 L 166 298 L 166 298 L 166 297 L 166 297 L 166 296 L 166 296 L 166 295 L 166 295 L 166 294 L 166 294 L 166 293 L 166 292 L 166 292 L 166 291 L 166 291 L 167 290 L 167 290 L 167 289 L 167 289 L 168 288 L 168 288 L 168 287 L 169 287 L 169 286 L 169 285 L 169 285 L 169 284 L 169 284 L 169 283 L 169 283 L 169 282 L 169 282 L 169 281 L 169 281 L 169 280 L 169 280 L 169 279 L 169 278 L 171 278 L 171 277 L 171 277 L 171 276 L 175 276 L 176 275 L 176 275 L 177 274 L 177 274 L 180 273 L 183 272 L 184 272 L 187 271 L 188 271 L 190 270 L 190 270 L 191 269 L 194 269 L 194 268 L 195 268 L 197 267 L 197 267 L 199 266 L 199 265 L 199 265 L 199 264 L 201 264 L 202 263 L 202 263 L 203 262 L 204 262 L 204 261 L 205 261 L 207 260 L 209 259 L 211 259 L 212 258 L 213 258 L 215 257 L 215 257 L 215 256 L 217 256 L 225 255 L 225 255 L 227 254 L 234 254 L 235 253 L 235 252 L 235 252 L 235 251 L 236 251 L 239 250 L 240 250 L 240 249 L 250 249 L 251 248 L 253 248 L 256 247 L 258 247 L 258 246 L 260 245 L 266 245 L 273 244 L 282 244 L 282 243 L 282 243 L 283 242 L 283 242 L 285 241 L 296 241 L 301 240 L 301 239 L 306 239 L 306 238 L 307 238 L 319 237 L 319 237 L 320 236 L 321 236 L 322 235 L 326 235 L 327 234 L 330 234 L 331 233 L 334 232 L 341 232 L 341 231 L 342 231 L 343 230 L 343 230 L 343 229 L 347 229 L 354 228 L 369 228 L 375 227 L 378 226 L 379 226 L 380 225 L 382 225 L 382 224 L 382 224 L 382 223 L 382 223 L 382 222 L 382 222 L 382 221 L 382 221 L 382 220 L 383 219 L 383 219 L 383 218 L 383 218 L 384 217 L 386 217 L 387 216 L 387 216 L 387 215 L 387 215 L 389 214 L 389 214 L 389 213 L 389 212 L 389 212 L 389 211 L 389 211 L 390 210 L 391 210 L 392 209 L 392 209 L 392 208 L 392 208 L 392 207 L 393 206 L 394 206 L 394 205 L 394 205 L 395 204 L 395 204 L 395 203 L 397 203 L 398 202 L 399 202 L 401 201 L 404 201 L 404 200 L 405 199 L 405 199 L 405 198 L 405 198 L 405 197 L 407 197 L 408 196 L 410 196 L 410 195 L 411 195 L 414 194 L 415 193 L 416 193 L 419 192 L 419 192 L 420 191 L 421 191 L 421 190 L 427 190 L 428 189 L 429 189 L 433 188 L 435 188 L 440 187 L 441 186 L 441 186 L 443 185 L 443 185 L 443 184 L 447 184 L 449 183 L 451 183 L 452 182 L 453 182 L 455 181 L 455 181 L 455 180 L 455 179 L 456 179 L 456 178 L 456 178 L 458 177 L 458 177 L 458 176 L 459 176 L 465 175 L 471 175 L 471 174 L 471 173 L 476 173 L 478 172 L 479 172 L 479 171 L 481 171 L 482 170 L 482 170 L 483 169 L 483 169 L 483 168 L 483 168 L 483 167 L 484 166 L 484 166 L 485 165 L 488 165 L 488 164 L 488 164 L 488 163 L 488 163 L 489 162 L 489 162 L 489 161 L 489 160 L 489 160 L 489 159 L 489 159 L 489 158 L 494 158 L 498 157 L 498 157 L 499 156 L 505 156 L 512 155 L 514 155 L 518 154 L 521 153 L 529 153 L 532 152 L 535 152 L 535 151 L 535 151 L 535 150 L 535 150 L 535 149 L 535 149 L 536 148 L 537 148 L 539 147 L 549 146 L 552 146 L 555 145 L 563 145 L 569 144 L 573 144 L 577 143 L 582 143 L 582 142 L 594 142 L 606 141 L 606 140 L 615 140 L 615 139 L 622 139 L 623 138 L 627 138 L 627 137 L 628 137 L 628 136 L 631 136 L 633 135 L 636 135 L 641 134 L 642 133 L 643 133 L 644 132 L 648 132 L 653 131 L 653 131 L 658 130 L 663 130 L 664 129 L 664 129 L 666 128 L 668 127 L 669 127 L 673 126 L 676 126 L 679 125 L 682 125 L 683 124 L 689 124 L 690 123 L 694 123 L 699 122 L 700 122 L 706 121 L 707 120 L 707 120 L 709 119 L 709 119 L 712 118 L 712 118 L 715 117 L 719 117 L 720 116 L 720 116 L 721 115 L 731 115 L 731 114 L 732 113 L 732 113 L 732 112 L 733 112 L 733 111 L 734 111 L 735 110 L 737 110 L 737 109 L 739 109 L 740 108 L 741 107 L 742 107 L 742 106 L 742 106 L 743 105 L 744 105 L 744 104 L 745 104 L 745 103 L 745 103 L 746 102 L 747 102 L 749 101 L 749 100 L 749 100 L 750 99 L 751 99 L 752 98 L 754 98 L 754 97 L 755 97 L 757 96 L 758 96 L 759 95 L 759 94 L 760 94 L 762 93 L 762 93 L 762 92 L 763 92 L 763 91 L 764 91 L 764 90 L 765 90 L 765 89 L 766 89 L 770 88 L 772 87 L 773 87 L 774 86 L 777 86 L 779 85 L 779 85 L 782 84 L 785 84 L 789 83 L 792 83 L 793 82 L 793 82 L 793 81 L 793 80 L 794 80 L 795 79 L 795 79 L 796 78 L 796 78 L 796 77 L 797 77 L 799 76 L 800 76 L 800 75 L 801 74 L 801 74 L 805 73 L 805 73 L 805 72 L 807 72 L 808 71 L 811 71 L 814 70 L 819 70 L 819 69 L 819 69 L 820 68 L 823 67 L 825 67 L 826 66 L 826 66 L 826 65 L 827 65 L 829 64 L 833 64 L 834 63 L 834 63 L 834 62 L 836 61 L 837 61 L 837 60 L 837 60 L 838 59 L 841 59 L 846 58 L 846 58 L 851 57 L 851 57 L 852 56 L 857 56 L 858 55 L 862 54 L 864 54 L 866 53 L 868 53 L 868 52 L 869 52 L 869 51 L 869 51 L 869 50 L 870 50 L 871 49 L 871 49 L 872 48 L 872 47 L 872 47 L 874 46 L 875 46 L 876 45 L 882 45 L 883 44 L 889 44 L 892 43 L 892 43 L 893 42 L 894 41 L 898 41 L 898 40 L 899 40 L 899 39 L 900 39 L 900 38 L 900 38 L 901 37 L 901 37 L 902 36 L 902 36 L 902 35 L 902 34 L 902 34 L 903 33 L 904 33 L 904 32 L 905 32 L 906 31 L 907 31 L 908 30 L 909 30 L 909 29 L 909 28 L 910 28 L 912 27 L 915 27 L 915 26 L 915 26 L 916 25 L 916 25 L 917 24 L 917 24 L 917 23 L 919 23 L 922 22 L 925 21 L 929 21 L 930 20 L 932 20 L 937 19 L 941 19 L 942 18 L 945 18" /><path stroke-width="2" class="series" d="M 58 345 L 61 344 L 81 344 L 82 343 L 82 343 L 82 342 L 82 342 L 82 341 L 82 341 L 82 340 L 83 340 L 83 339 L 83 338 L 83 338 L 83 337 L 83 337 L 83 336 L 83 336 L 83 335 L 84 335 L 85 334 L 85 334 L 87 333 L 88 333 L 88 332 L 88 331 L 88 331 L 90 330 L 92 330 L 92 329 L 93 329 L 95 328 L 101 328 L 101 327 L 101 327 L 101 326 L 101 325 L 101 325 L 105 324 L 107 324 L 108 323 L 111 323 L 116 322 L 118 322 L 127 321 L 129 321 L 134 320 L 139 320 L 141 319 L 160 318 L 161 318 L 161 317 L 164 317 L 164 316 L 164 316 L 164 315 L 164 315 L 164 314 L 164 314 L 164 313 L 164 313 L 164 312 L 164 311 L 164 311 L 165 310 L 165 310 L 165 309 L 165 309 L 165 308 L 165 308 L 165 307 L 165 307 L 165 306 L 165 305 L 165 305 L 165 304 L 165 304 L 165 303 L 165 303 L 165 302 L 165 302 L 165 301 L 165 301 L 166 300 L 166 300 L 166 299 L 166 298 L 166 298 L 166 297 L 166 297 L 166 296 L 166 296 L 166 295 L 166 295 L 166 294 L 166 294 L 166 293 L 166 292 L 166 292 L 166 291 L 166 291 L 167 290 L 167 290 L 167 289 L 167 289 L 168 288 L 168 288 L 168 287 L 169 287 L 169 286 L 169 285 L 169 285 L 169 284 L 169 284 L 169 283 L 169 283 L 169 282 L 169 282 L 169 281 L 169 281 L 169 280 L 169 280 L 169 279 L 169 278 L 171 278 L 171 277 L 171 277 L 171 276 L 175 276 L 176 275 L 176 275 L 177 274 L 177 274 L 180 273 L 183 272 L 184 272 L 187 271 L 188 271 L 190 270 L 190 270 L 191 269 L 194 269 L 194 268 L 195 268 L 197 267 L 197 267 L 199 266 L 199 265 L 199 265 L 199 264 L 201 264 L 202 263 L 202 263 L 203 262 L 204 262 L 204 261 L 205 261 L 207 260 L 209 259 L 211 259 L 212 258 L 213 258 L 215 257 L 215 257 L 215 256 L 217 256 L 225 255 L 225 255 L 227 254 L 234 254 L 235 253 L 235 252 L 235 252 L 235 251 L 236 251 L 239 250 L 240 250 L 240 249 L 250 249 L 251 248 L 253 248 L 256 247 L 258 247 L 258 246 L 260 245 L 266 245 L 273 244 L 282 244 L 282 243 L 282 243 L 283 242 L 283 242 L 285 241 L 296 241 L 301 240 L 301 239 L 306 239 L 306 238 L 307 238 L 319 237 L 319 237 L 320 236 L 321 236 L 322 235 L 326 235 L 327 234 L 330 234 L 331 233 L 334 232 L 341 232 L 341 231 L 342 231 L 343 230 L 343 230 L 343 229 L 347 229 L 354 228 L 369 228 L 375 227 L 378 226 L 379 226 L 380 225 L 382 225 L 382 224 L 382 224 L 382 223 L 382 223 L 382 222 L 382 222 L 382 221 L 382 221 L 382 220 L 383 219 L 383 219 L 383 218 L 383 218 L 384 217 L 386 217 L 387 216 L 387 216 L 387 215 L 387 215 L 389 214 L 389 214 L 389 213 L 389 212 L 389 212 L 389 211 L 389 211 L 390 210 L 391 210 L 392 209 L 392 209 L 392 208 L 392 208 L 392 207 L 393 206 L 394 206 L 394 205 L 394 205 L 395 204 L 395 204 L 395 203 L 397 203 L 398 202 L 399 202 L 401 201 L 404 201 L 404 200 L 405 199 L 405 199 L 405 198 L 405 198 L 405 197 L 407 197 L 408 196 L 410 196 L 410 195 L 411 195 L 414 194 L 415 193 L 416 193 L 419 192 L 419 192 L 420 191 L 421 191 L 421 190 L 427 190 L 428 189 L 429 189 L 433 188 L 435 188 L 440 187 L 441 186 L 441 186 L 443 185 L 443 185 L 443 184 L 447 184 L 449 183 L 451 183 L 452 182 L 453 182 L 455 181 L 455 181 L 455 180 L 455 179 L 456 179 L 456 178 L 456 178 L 458 177 L 458 177 L 458 176 L 459 176 L 465 175 L 471 175 L 471 174 L 471 173 L 476 173 L 478 172 L 479 172 L 479 171 L 481 171 L 482 170 L 482 170 L 483 169 L 483 169 L 483 168 L 483 168 L 483 167 L 484 166 L 484 166 L 485 165 L 488 165 L 488 164 L 488 164 L 488 163 L 488 163 L 489 162 L 489 162 L 489 161 L 489 160 L 489 160 L 489 159 L 489 159 L 489 158 L 494 158 L 498 157 L 498 157 L 499 156 L 505 156 L 512 155 L 514 155 L 518 154 L 521 153 L 529 153 L 532 152 L 535 152 L 535 151 L 535 151 L 535 150 L 535 150 L 535 149 L 535 149 L 536 148 L 537 148 L 539 147 L 549 146 L 552 146 L 555 145 L 563 145 L 569 144 L 573 144 L 577 143 L 582 143 L 582 142 L 594 142 L 606 141 L 606 140 L 615 140 L 615 139 L 622 139 L 623 138 L 627 138 L 627 137 L 628 137 L 628 136 L 631 136 L 633 135 L 636 135 L 641 134 L 642 133 L 643 133 L 644 132 L 648 132 L 653 131 L 653 131 L 658 130 L 663 130 L 664 129 L 664 129 L 666 128 L 668 127 L 669 127 L 673 126 L 676 126 L 679 125 L 682 125 L 683 124 L 689 124 L 690 123 L 694 123 L 699 122 L 700 122 L 706 121 L 707 120 L 707 120 L 709 119 L 709 119 L 712 118 L 712 118 L 715 117 L 719 117 L 720 116 L 720 116 L 721 115 L 731 115 L 731 114 L 732 113 L 732 113 L 732 112 L 733 112 L 733 111 L 734 111 L 735 110 L 737 110 L 737 109 L 739 109 L 740 108 L 741 107 L 742 107 L 742 106 L 742 106 L 743 105 L 744 105 L 744 104 L 745 104 L 745 103 L 745 103 L 746 102 L 747 102 L 749 101 L 749 100 L 749 100 L 750 99 L 751 99 L 752 98 L 754 98 L 754 97 L 755 97 L 757 96 L 758 96 L 759 95 L 759 94 L 760 94 L 762 93 L 762 93 L 762 92 L 763 92 L 763 91 L 764 91 L 764 90 L 765 90 L 765 89 L 766 89 L 770 88 L 772 87 L 773 87 L 774 86 L 777 86 L 779 85 L 779 85 L 782 84 L 785 84 L 789 83 L 792 83 L 793 82 L 793 82 L 793 81 L 793 80 L 794 80 L 795 79 L 795 79 L 796 78 L 796 78 L 796 77 L 797 77 L 799 76 L 800 76 L 800 75 L 801 74 L 801 74 L 805 73 L 805 73 L 805 72 L 807 72 L 808 71 L 811 71 L 814 70 L 819 70 L 819 69 L 819 69 L 820 68 L 823 67 L 825 67 L 826 66 L 826 66 L 826 65 L 827 65 L 829 64 L 833 64 L 834 63 L 834 63 L 834 62 L 836 61 L 837 61 L 837 60 L 837 60 L 838 59 L 841 59 L 846 58 L 846 58 L 851 57 L 851 57 L 852 56 L 857 56 L 858 55 L 862 54 L 864 54 L 866 53 L 868 53 L 868 52 L 869 52 L 869 51 L 869 51 L 869 50 L 870 50 L 871 49 L 871 49 L 872 48 L 872 47 L 872 47 L 874 46 L 875 46 L 876 45 L 882 45 L 883 44 L 889 44 L 892 43 L 892 43 L 893 42 L 894 41 L 898 41 L 898 40 L 899 40 L 899 39 L 900 39 L 900 38 L 900 38 L 901 37 L 901 37 L 902 36 L 902 36 L 902 35 L 902 34 L 902 34 L 903 33 L 904 33 L 904 32 L 905 32 L 906 31 L 907 31 L 908 30 L 909 30 L 909 29 L 909 28 L 910 28 L 912 27 L 915 27 L 915 26 L 915 26 L 916 25 L 916 25 L 917 24 L 917 24 L 917 23 L 919 23 L 922 22 L 925 21 L 929 21 L 930 20 L 932 20 L 937 19 L 941 19 L 942 18 L 945 18"></path><path d="M 945 346 L 945.000000 15.000000" stroke-width="2" /><path stroke-width="2" d="M 945 346 L 945.000000 15.000000"></path><path d="M 945 346 L 950 346" stroke-width="2" /><path stroke-width="2" d="M 945 346 L 950 346"></path><text xmlns="http://www.w3.org/2000/svg" x="955" y="352">0</text><path stroke-width="2" d="M 945 309 L 950 309" /><path stroke-width="2" d="M 945 309 L 950 309"></path><text xmlns="http://www.w3.org/2000/svg" x="955" y="315">68</text><path stroke-width="2" d="M 945 272 L 950 272" /><path stroke-width="2" d="M 945 272 L 950 272"></path><text xmlns="http://www.w3.org/2000/svg" x="955" y="278">136</text><path stroke-width="2" d="M 945 235 L 950 235" /><path stroke-width="2" d="M 945 235 L 950 235"></path><text y="241" xmlns="http://www.w3.org/2000/svg" x="955">204</text><path d="M 945 198 L 950 198" stroke-width="2" /><path stroke-width="2" d="M 945 198 L 950 198"></path><text x="955" y="204" xmlns="http://www.w3.org/2000/svg">272</text><path stroke-width="2" d="M 945 162 L 950 162" /><path d="M 945 162 L 950 162" stroke-width="2"></path><text xmlns="http://www.w3.org/2000/svg" x="955" y="168">339</text><path stroke-width="2" d="M 945 125 L 950 125" /><path stroke-width="2" d="M 945 125 L 950 125"></path><text xmlns="http://www.w3.org/2000/svg" x="955" y="131">407</text><path stroke-width="2" d="M 945 89 L 950 89" /><path stroke-width="2" d="M 945 89 L 950 89"></path><text xmlns="http://www.w3.org/2000/svg" x="955" y="95">475</text><path stroke-width="2" d="M 945 52 L 950 52" /><path d="M 945 52 L 950 52" stroke-width="2"></path><text x="955" y="58" xmlns="http://www.w3.org/2000/svg">543</text><path stroke-width="2" d="M 945 16 L 950 16" /><path stroke-width="2" d="M 945 16 L 950 16"></path><text xmlns="http://www.w3.org/2000/svg" x="955" y="22">610</text><text xmlns="http://www.w3.org/2000/svg" x="987" y="175" transform="rotate(90.00,987,175)">Stargazers</text><path stroke-width="2" d="M 57.000000 346.000000 L 945 346" /><path d="M 57.000000 346.000000 L 945 346" stroke-width="2"></path><path stroke-width="2" d="M 58 346 L 58 351" /><path stroke-width="2" d="M 58 346 L 58 351"></path><text y="368" xmlns="http://www.w3.org/2000/svg" x="25">2023-04-02</text><path stroke-width="2" d="M 157 346 L 157 351" /><path stroke-width="2" d="M 157 346 L 157 351"></path><text xmlns="http://www.w3.org/2000/svg" x="124" y="368">2023-06-01</text><path d="M 256 346 L 256 351" stroke-width="2" /><path stroke-width="2" d="M 256 346 L 256 351"></path><text xmlns="http://www.w3.org/2000/svg" x="223" y="368">2023-07-30</text><path stroke-width="2" d="M 354 346 L 354 351" /><path d="M 354 346 L 354 351" stroke-width="2"></path><text xmlns="http://www.w3.org/2000/svg" x="321" y="368">2023-09-28</text><path d="M 453 346 L 453 351" stroke-width="2" /><path stroke-width="2" d="M 453 346 L 453 351"></path><text xmlns="http://www.w3.org/2000/svg" x="420" y="368">2023-11-27</text><path stroke-width="2" d="M 551 346 L 551 351" /><path stroke-width="2" d="M 551 346 L 551 351"></path><text xmlns="http://www.w3.org/2000/svg" x="518" y="368">2024-01-25</text><path d="M 650 346 L 650 351" stroke-width="2" /><path stroke-width="2" d="M 650 346 L 650 351"></path><text xmlns="http://www.w3.org/2000/svg" x="617" y="368">2024-03-25</text><path stroke-width="2" d="M 748 346 L 748 351" /><path stroke-width="2" d="M 748 346 L 748 351"></path><text xmlns="http://www.w3.org/2000/svg" x="715" y="368">2024-05-24</text><path stroke-width="2" d="M 847 346 L 847 351" /><path stroke-width="2" d="M 847 346 L 847 351"></path><text xmlns="http://www.w3.org/2000/svg" x="814" y="368">2024-07-22</text><path stroke-width="2" d="M 945 346 L 945 351" /><path stroke-width="2" d="M 945 346 L 945 351"></path><text xmlns="http://www.w3.org/2000/svg" x="912" y="368">2024-09-20</text><text xmlns="http://www.w3.org/2000/svg" x="487" y="390">Time</text></svg>