<svg xmlns="http://www.w3.org/2000/svg" xmlns:xlink="http://www.w3.org/1999/xlink" width="1024px" height="400px"><style type="text/css">
path { fill: none; stroke: rgb(51,51,51); }
path.series { stroke: #6b63ff; }
rect.background { fill: rgb(255,255,255); stroke: none; }

text {
	stroke-width: 0;
	stroke: none;
	fill: rgba(51,51,51,1.0);
	font-size: 12.8px;
	font-family: 'Roboto Medium', sans-serif;
}
</style><rect height="400px" class="background" rx="8" x="0" y="0" width="1024px" /><rect x="0" y="0" width="1024px" height="400px" class="background" rx="8"></rect><path stroke-width="2" class="series" d="M 58 345 L 61 345 L 78 344 L 78 344 L 79 343 L 79 343 L 79 343 L 79 342 L 79 342 L 79 341 L 79 341 L 79 341 L 79 340 L 79 340 L 79 339 L 79 339 L 79 338 L 80 338 L 80 338 L 81 337 L 81 337 L 81 336 L 82 336 L 83 336 L 83 335 L 83 335 L 84 334 L 85 334 L 87 334 L 87 333 L 88 333 L 89 332 L 95 332 L 95 331 L 95 331 L 95 331 L 95 330 L 95 330 L 98 329 L 99 329 L 100 329 L 103 328 L 107 328 L 109 327 L 116 327 L 119 327 L 123 326 L 127 326 L 129 325 L 145 325 L 146 324 L 146 324 L 148 324 L 148 323 L 148 323 L 148 322 L 148 322 L 148 322 L 148 321 L 148 321 L 148 320 L 149 320 L 149 320 L 149 319 L 149 319 L 149 318 L 149 318 L 149 317 L 149 317 L 149 317 L 149 316 L 149 316 L 149 315 L 149 315 L 149 315 L 149 314 L 149 314 L 149 313 L 149 313 L 149 313 L 149 312 L 149 312 L 149 311 L 149 311 L 149 310 L 150 310 L 150 310 L 150 309 L 150 309 L 150 308 L 150 308 L 150 308 L 150 307 L 150 307 L 150 306 L 150 306 L 150 305 L 150 305 L 150 305 L 150 304 L 150 304 L 151 303 L 151 303 L 151 303 L 151 302 L 151 302 L 152 301 L 152 301 L 152 301 L 152 300 L 152 300 L 152 299 L 152 299 L 152 298 L 152 298 L 152 298 L 152 297 L 152 297 L 152 296 L 152 296 L 152 296 L 152 295 L 152 295 L 153 294 L 154 294 L 154 294 L 154 293 L 154 293 L 158 292 L 158 292 L 158 291 L 159 291 L 160 291 L 162 290 L 165 290 L 165 289 L 168 289 L 169 289 L 170 288 L 171 288 L 171 287 L 174 287 L 174 287 L 175 286 L 176 286 L 177 285 L 178 285 L 178 284 L 178 284 L 178 284 L 180 283 L 181 283 L 181 282 L 182 282 L 182 282 L 182 281 L 183 281 L 185 280 L 186 280 L 188 280 L 189 279 L 190 279 L 191 278 L 191 278 L 192 277 L 193 277 L 200 277 L 200 276 L 202 276 L 208 275 L 208 275 L 208 275 L 208 274 L 209 274 L 210 273 L 212 273 L 213 272 L 213 272 L 221 272 L 222 271 L 224 271 L 227 270 L 228 270 L 228 270 L 230 269 L 235 269 L 241 268 L 248 268 L 249 268 L 249 267 L 249 267 L 249 266 L 251 266 L 260 265 L 265 265 L 265 265 L 269 264 L 269 264 L 270 263 L 280 263 L 280 263 L 281 262 L 282 262 L 283 261 L 286 261 L 287 261 L 289 260 L 290 260 L 293 259 L 299 259 L 299 258 L 300 258 L 300 258 L 300 257 L 301 257 L 304 256 L 310 256 L 323 256 L 328 255 L 330 255 L 331 254 L 332 254 L 334 254 L 334 253 L 334 253 L 334 252 L 334 252 L 334 251 L 334 251 L 334 251 L 334 250 L 334 250 L 334 249 L 334 249 L 334 249 L 335 248 L 335 248 L 337 247 L 337 247 L 338 247 L 338 246 L 338 246 L 339 245 L 339 245 L 339 244 L 339 244 L 339 244 L 339 243 L 339 243 L 340 242 L 341 242 L 342 242 L 342 241 L 342 241 L 342 240 L 342 240 L 343 239 L 343 239 L 343 239 L 344 238 L 344 238 L 345 237 L 345 237 L 346 237 L 347 236 L 348 236 L 350 235 L 352 235 L 352 235 L 353 234 L 353 234 L 353 233 L 353 233 L 353 232 L 355 232 L 356 232 L 358 231 L 358 231 L 359 230 L 360 230 L 362 230 L 362 229 L 365 229 L 365 228 L 366 228 L 367 228 L 367 227 L 372 227 L 373 226 L 373 226 L 377 225 L 379 225 L 383 225 L 384 224 L 384 224 L 385 223 L 386 223 L 386 223 L 389 222 L 391 222 L 393 221 L 393 221 L 394 221 L 396 220 L 396 220 L 396 219 L 396 219 L 396 218 L 397 218 L 397 218 L 398 217 L 398 217 L 398 216 L 399 216 L 404 216 L 409 215 L 409 215 L 410 214 L 413 214 L 415 214 L 416 213 L 416 213 L 418 212 L 419 212 L 419 211 L 419 211 L 419 211 L 419 210 L 420 210 L 420 209 L 420 209 L 420 209 L 421 208 L 424 208 L 424 207 L 424 207 L 424 206 L 424 206 L 424 206 L 424 205 L 424 205 L 425 204 L 425 204 L 425 204 L 425 203 L 425 203 L 429 202 L 432 202 L 432 202 L 433 201 L 444 201 L 446 200 L 449 200 L 452 199 L 459 199 L 461 199 L 463 198 L 464 198 L 464 197 L 464 197 L 464 197 L 464 196 L 464 196 L 464 195 L 466 195 L 467 195 L 475 194 L 478 194 L 481 193 L 488 193 L 493 192 L 496 192 L 499 192 L 504 191 L 504 191 L 514 190 L 524 190 L 524 190 L 531 189 L 532 189 L 537 188 L 539 188 L 542 188 L 542 187 L 542 187 L 542 186 L 546 186 L 547 185 L 550 185 L 554 185 L 555 184 L 556 184 L 556 183 L 560 183 L 564 183 L 564 182 L 568 182 L 573 181 L 573 181 L 573 181 L 575 180 L 576 180 L 577 179 L 581 179 L 584 178 L 586 178 L 589 178 L 589 177 L 595 177 L 596 176 L 599 176 L 603 176 L 604 175 L 609 175 L 610 174 L 610 174 L 611 173 L 612 173 L 614 173 L 615 172 L 617 172 L 620 171 L 621 171 L 621 171 L 622 170 L 630 170 L 630 169 L 631 169 L 631 169 L 631 168 L 632 168 L 632 167 L 633 167 L 633 166 L 635 166 L 636 166 L 637 165 L 638 165 L 639 164 L 639 164 L 640 164 L 640 163 L 641 163 L 641 162 L 641 162 L 642 162 L 642 161 L 642 161 L 643 160 L 644 160 L 645 159 L 645 159 L 646 159 L 647 158 L 647 158 L 648 157 L 650 157 L 650 157 L 651 156 L 652 156 L 654 155 L 654 155 L 654 155 L 655 154 L 657 154 L 657 153 L 657 153 L 658 152 L 658 152 L 658 152 L 658 151 L 659 151 L 659 150 L 660 150 L 664 150 L 665 149 L 666 149 L 667 148 L 669 148 L 671 148 L 671 147 L 674 147 L 677 146 L 679 146 L 682 145 L 683 145 L 683 145 L 683 144 L 683 144 L 684 143 L 684 143 L 684 143 L 686 142 L 686 142 L 686 141 L 686 141 L 688 140 L 689 140 L 689 140 L 690 139 L 690 139 L 693 138 L 693 138 L 694 138 L 695 137 L 696 137 L 698 136 L 701 136 L 705 136 L 706 135 L 706 135 L 706 134 L 708 134 L 711 133 L 711 133 L 711 133 L 711 132 L 712 132 L 714 131 L 717 131 L 718 131 L 718 130 L 718 130 L 720 129 L 721 129 L 721 129 L 721 128 L 721 128 L 724 127 L 728 127 L 728 126 L 732 126 L 733 126 L 734 125 L 737 125 L 739 124 L 742 124 L 744 124 L 745 123 L 747 123 L 747 122 L 747 122 L 748 122 L 748 121 L 748 121 L 749 120 L 749 120 L 749 119 L 750 119 L 750 119 L 750 118 L 752 118 L 753 117 L 753 117 L 759 117 L 759 116 L 765 116 L 767 115 L 767 115 L 768 115 L 769 114 L 772 114 L 773 113 L 773 113 L 773 112 L 774 112 L 774 112 L 774 111 L 774 111 L 775 110 L 776 110 L 776 110 L 776 109 L 776 109 L 776 108 L 777 108 L 777 107 L 777 107 L 779 107 L 779 106 L 780 106 L 780 105 L 782 105 L 782 105 L 782 104 L 782 104 L 784 103 L 787 103 L 787 103 L 787 102 L 787 102 L 787 101 L 788 101 L 789 100 L 789 100 L 790 100 L 792 99 L 795 99 L 799 98 L 800 98 L 801 98 L 805 97 L 809 97 L 810 96 L 813 96 L 817 96 L 818 95 L 818 95 L 823 94 L 825 94 L 825 93 L 826 93 L 826 93 L 836 92 L 836 92 L 837 91 L 837 91 L 838 91 L 839 90 L 840 90 L 840 89 L 841 89 L 842 89 L 842 88 L 842 88 L 843 87 L 843 87 L 843 86 L 843 86 L 843 86 L 844 85 L 844 85 L 845 84 L 846 84 L 847 84 L 848 83 L 849 83 L 849 82 L 850 82 L 850 82 L 852 81 L 852 81 L 853 80 L 853 80 L 853 79 L 853 79 L 855 79 L 856 78 L 857 78 L 857 77 L 858 77 L 859 77 L 860 76 L 860 76 L 860 75 L 860 75 L 861 74 L 861 74 L 862 74 L 863 73 L 863 73 L 865 72 L 865 72 L 865 72 L 865 71 L 865 71 L 866 70 L 867 70 L 867 70 L 867 69 L 868 69 L 869 68 L 869 68 L 869 67 L 870 67 L 870 67 L 870 66 L 870 66 L 870 65 L 871 65 L 871 65 L 871 64 L 871 64 L 871 63 L 874 63 L 875 63 L 878 62 L 878 62 L 878 61 L 878 61 L 880 60 L 881 60 L 881 60 L 882 59 L 885 59 L 888 58 L 888 58 L 890 58 L 891 57 L 891 57 L 892 56 L 892 56 L 893 56 L 893 55 L 893 55 L 893 54 L 893 54 L 893 53 L 893 53 L 893 53 L 893 52 L 893 52 L 894 51 L 894 51 L 894 51 L 894 50 L 895 50 L 895 49 L 895 49 L 896 49 L 897 48 L 899 48 L 899 47 L 900 47 L 900 46 L 901 46 L 901 46 L 902 45 L 905 45 L 906 44 L 906 44 L 906 44 L 906 43 L 907 43 L 909 42 L 912 42 L 912 41 L 914 41 L 914 41 L 915 40 L 915 40 L 916 39 L 921 39 L 924 39 L 927 38 L 929 38 L 930 37 L 931 37 L 933 37 L 933 36 L 933 36 L 933 35 L 934 35 L 935 34 L 935 34 L 936 34 L 937 33 L 940 33 L 940 32 L 940 32 L 940 32 L 940 31 L 940 31 L 940 30 L 940 30 L 940 30 L 940 29 L 940 29 L 940 28 L 940 28 L 940 27 L 940 27 L 940 27 L 940 26 L 941 26 L 941 25 L 941 25 L 941 25 L 942 24 L 942 24 L 942 23 L 943 23 L 943 23 L 943 22 L 944 22 L 944 21 L 944 21 L 944 20 L 944 20 L 944 20 L 945 19" /><path stroke-width="2" class="series" d="M 58 345 L 61 345 L 78 344 L 78 344 L 79 343 L 79 343 L 79 343 L 79 342 L 79 342 L 79 341 L 79 341 L 79 341 L 79 340 L 79 340 L 79 339 L 79 339 L 79 338 L 80 338 L 80 338 L 81 337 L 81 337 L 81 336 L 82 336 L 83 336 L 83 335 L 83 335 L 84 334 L 85 334 L 87 334 L 87 333 L 88 333 L 89 332 L 95 332 L 95 331 L 95 331 L 95 331 L 95 330 L 95 330 L 98 329 L 99 329 L 100 329 L 103 328 L 107 328 L 109 327 L 116 327 L 119 327 L 123 326 L 127 326 L 129 325 L 145 325 L 146 324 L 146 324 L 148 324 L 148 323 L 148 323 L 148 322 L 148 322 L 148 322 L 148 321 L 148 321 L 148 320 L 149 320 L 149 320 L 149 319 L 149 319 L 149 318 L 149 318 L 149 317 L 149 317 L 149 317 L 149 316 L 149 316 L 149 315 L 149 315 L 149 315 L 149 314 L 149 314 L 149 313 L 149 313 L 149 313 L 149 312 L 149 312 L 149 311 L 149 311 L 149 310 L 150 310 L 150 310 L 150 309 L 150 309 L 150 308 L 150 308 L 150 308 L 150 307 L 150 307 L 150 306 L 150 306 L 150 305 L 150 305 L 150 305 L 150 304 L 150 304 L 151 303 L 151 303 L 151 303 L 151 302 L 151 302 L 152 301 L 152 301 L 152 301 L 152 300 L 152 300 L 152 299 L 152 299 L 152 298 L 152 298 L 152 298 L 152 297 L 152 297 L 152 296 L 152 296 L 152 296 L 152 295 L 152 295 L 153 294 L 154 294 L 154 294 L 154 293 L 154 293 L 158 292 L 158 292 L 158 291 L 159 291 L 160 291 L 162 290 L 165 290 L 165 289 L 168 289 L 169 289 L 170 288 L 171 288 L 171 287 L 174 287 L 174 287 L 175 286 L 176 286 L 177 285 L 178 285 L 178 284 L 178 284 L 178 284 L 180 283 L 181 283 L 181 282 L 182 282 L 182 282 L 182 281 L 183 281 L 185 280 L 186 280 L 188 280 L 189 279 L 190 279 L 191 278 L 191 278 L 192 277 L 193 277 L 200 277 L 200 276 L 202 276 L 208 275 L 208 275 L 208 275 L 208 274 L 209 274 L 210 273 L 212 273 L 213 272 L 213 272 L 221 272 L 222 271 L 224 271 L 227 270 L 228 270 L 228 270 L 230 269 L 235 269 L 241 268 L 248 268 L 249 268 L 249 267 L 249 267 L 249 266 L 251 266 L 260 265 L 265 265 L 265 265 L 269 264 L 269 264 L 270 263 L 280 263 L 280 263 L 281 262 L 282 262 L 283 261 L 286 261 L 287 261 L 289 260 L 290 260 L 293 259 L 299 259 L 299 258 L 300 258 L 300 258 L 300 257 L 301 257 L 304 256 L 310 256 L 323 256 L 328 255 L 330 255 L 331 254 L 332 254 L 334 254 L 334 253 L 334 253 L 334 252 L 334 252 L 334 251 L 334 251 L 334 251 L 334 250 L 334 250 L 334 249 L 334 249 L 334 249 L 335 248 L 335 248 L 337 247 L 337 247 L 338 247 L 338 246 L 338 246 L 339 245 L 339 245 L 339 244 L 339 244 L 339 244 L 339 243 L 339 243 L 340 242 L 341 242 L 342 242 L 342 241 L 342 241 L 342 240 L 342 240 L 343 239 L 343 239 L 343 239 L 344 238 L 344 238 L 345 237 L 345 237 L 346 237 L 347 236 L 348 236 L 350 235 L 352 235 L 352 235 L 353 234 L 353 234 L 353 233 L 353 233 L 353 232 L 355 232 L 356 232 L 358 231 L 358 231 L 359 230 L 360 230 L 362 230 L 362 229 L 365 229 L 365 228 L 366 228 L 367 228 L 367 227 L 372 227 L 373 226 L 373 226 L 377 225 L 379 225 L 383 225 L 384 224 L 384 224 L 385 223 L 386 223 L 386 223 L 389 222 L 391 222 L 393 221 L 393 221 L 394 221 L 396 220 L 396 220 L 396 219 L 396 219 L 396 218 L 397 218 L 397 218 L 398 217 L 398 217 L 398 216 L 399 216 L 404 216 L 409 215 L 409 215 L 410 214 L 413 214 L 415 214 L 416 213 L 416 213 L 418 212 L 419 212 L 419 211 L 419 211 L 419 211 L 419 210 L 420 210 L 420 209 L 420 209 L 420 209 L 421 208 L 424 208 L 424 207 L 424 207 L 424 206 L 424 206 L 424 206 L 424 205 L 424 205 L 425 204 L 425 204 L 425 204 L 425 203 L 425 203 L 429 202 L 432 202 L 432 202 L 433 201 L 444 201 L 446 200 L 449 200 L 452 199 L 459 199 L 461 199 L 463 198 L 464 198 L 464 197 L 464 197 L 464 197 L 464 196 L 464 196 L 464 195 L 466 195 L 467 195 L 475 194 L 478 194 L 481 193 L 488 193 L 493 192 L 496 192 L 499 192 L 504 191 L 504 191 L 514 190 L 524 190 L 524 190 L 531 189 L 532 189 L 537 188 L 539 188 L 542 188 L 542 187 L 542 187 L 542 186 L 546 186 L 547 185 L 550 185 L 554 185 L 555 184 L 556 184 L 556 183 L 560 183 L 564 183 L 564 182 L 568 182 L 573 181 L 573 181 L 573 181 L 575 180 L 576 180 L 577 179 L 581 179 L 584 178 L 586 178 L 589 178 L 589 177 L 595 177 L 596 176 L 599 176 L 603 176 L 604 175 L 609 175 L 610 174 L 610 174 L 611 173 L 612 173 L 614 173 L 615 172 L 617 172 L 620 171 L 621 171 L 621 171 L 622 170 L 630 170 L 630 169 L 631 169 L 631 169 L 631 168 L 632 168 L 632 167 L 633 167 L 633 166 L 635 166 L 636 166 L 637 165 L 638 165 L 639 164 L 639 164 L 640 164 L 640 163 L 641 163 L 641 162 L 641 162 L 642 162 L 642 161 L 642 161 L 643 160 L 644 160 L 645 159 L 645 159 L 646 159 L 647 158 L 647 158 L 648 157 L 650 157 L 650 157 L 651 156 L 652 156 L 654 155 L 654 155 L 654 155 L 655 154 L 657 154 L 657 153 L 657 153 L 658 152 L 658 152 L 658 152 L 658 151 L 659 151 L 659 150 L 660 150 L 664 150 L 665 149 L 666 149 L 667 148 L 669 148 L 671 148 L 671 147 L 674 147 L 677 146 L 679 146 L 682 145 L 683 145 L 683 145 L 683 144 L 683 144 L 684 143 L 684 143 L 684 143 L 686 142 L 686 142 L 686 141 L 686 141 L 688 140 L 689 140 L 689 140 L 690 139 L 690 139 L 693 138 L 693 138 L 694 138 L 695 137 L 696 137 L 698 136 L 701 136 L 705 136 L 706 135 L 706 135 L 706 134 L 708 134 L 711 133 L 711 133 L 711 133 L 711 132 L 712 132 L 714 131 L 717 131 L 718 131 L 718 130 L 718 130 L 720 129 L 721 129 L 721 129 L 721 128 L 721 128 L 724 127 L 728 127 L 728 126 L 732 126 L 733 126 L 734 125 L 737 125 L 739 124 L 742 124 L 744 124 L 745 123 L 747 123 L 747 122 L 747 122 L 748 122 L 748 121 L 748 121 L 749 120 L 749 120 L 749 119 L 750 119 L 750 119 L 750 118 L 752 118 L 753 117 L 753 117 L 759 117 L 759 116 L 765 116 L 767 115 L 767 115 L 768 115 L 769 114 L 772 114 L 773 113 L 773 113 L 773 112 L 774 112 L 774 112 L 774 111 L 774 111 L 775 110 L 776 110 L 776 110 L 776 109 L 776 109 L 776 108 L 777 108 L 777 107 L 777 107 L 779 107 L 779 106 L 780 106 L 780 105 L 782 105 L 782 105 L 782 104 L 782 104 L 784 103 L 787 103 L 787 103 L 787 102 L 787 102 L 787 101 L 788 101 L 789 100 L 789 100 L 790 100 L 792 99 L 795 99 L 799 98 L 800 98 L 801 98 L 805 97 L 809 97 L 810 96 L 813 96 L 817 96 L 818 95 L 818 95 L 823 94 L 825 94 L 825 93 L 826 93 L 826 93 L 836 92 L 836 92 L 837 91 L 837 91 L 838 91 L 839 90 L 840 90 L 840 89 L 841 89 L 842 89 L 842 88 L 842 88 L 843 87 L 843 87 L 843 86 L 843 86 L 843 86 L 844 85 L 844 85 L 845 84 L 846 84 L 847 84 L 848 83 L 849 83 L 849 82 L 850 82 L 850 82 L 852 81 L 852 81 L 853 80 L 853 80 L 853 79 L 853 79 L 855 79 L 856 78 L 857 78 L 857 77 L 858 77 L 859 77 L 860 76 L 860 76 L 860 75 L 860 75 L 861 74 L 861 74 L 862 74 L 863 73 L 863 73 L 865 72 L 865 72 L 865 72 L 865 71 L 865 71 L 866 70 L 867 70 L 867 70 L 867 69 L 868 69 L 869 68 L 869 68 L 869 67 L 870 67 L 870 67 L 870 66 L 870 66 L 870 65 L 871 65 L 871 65 L 871 64 L 871 64 L 871 63 L 874 63 L 875 63 L 878 62 L 878 62 L 878 61 L 878 61 L 880 60 L 881 60 L 881 60 L 882 59 L 885 59 L 888 58 L 888 58 L 890 58 L 891 57 L 891 57 L 892 56 L 892 56 L 893 56 L 893 55 L 893 55 L 893 54 L 893 54 L 893 53 L 893 53 L 893 53 L 893 52 L 893 52 L 894 51 L 894 51 L 894 51 L 894 50 L 895 50 L 895 49 L 895 49 L 896 49 L 897 48 L 899 48 L 899 47 L 900 47 L 900 46 L 901 46 L 901 46 L 902 45 L 905 45 L 906 44 L 906 44 L 906 44 L 906 43 L 907 43 L 909 42 L 912 42 L 912 41 L 914 41 L 914 41 L 915 40 L 915 40 L 916 39 L 921 39 L 924 39 L 927 38 L 929 38 L 930 37 L 931 37 L 933 37 L 933 36 L 933 36 L 933 35 L 934 35 L 935 34 L 935 34 L 936 34 L 937 33 L 940 33 L 940 32 L 940 32 L 940 32 L 940 31 L 940 31 L 940 30 L 940 30 L 940 30 L 940 29 L 940 29 L 940 28 L 940 28 L 940 27 L 940 27 L 940 27 L 940 26 L 941 26 L 941 25 L 941 25 L 941 25 L 942 24 L 942 24 L 942 23 L 943 23 L 943 23 L 943 22 L 944 22 L 944 21 L 944 21 L 944 20 L 944 20 L 944 20 L 945 19"></path><path stroke-width="2" d="M 945 346 L 945.000000 15.000000" /><path stroke-width="2" d="M 945 346 L 945.000000 15.000000"></path><path stroke-width="2" d="M 945 346 L 950 346" /><path stroke-width="2" d="M 945 346 L 950 346"></path><text xmlns="http://www.w3.org/2000/svg" x="955" y="352">0</text><path stroke-width="2" d="M 945 309 L 950 309" /><path stroke-width="2" d="M 945 309 L 950 309"></path><text xmlns="http://www.w3.org/2000/svg" x="955" y="315">89</text><path stroke-width="2" d="M 945 272 L 950 272" /><path stroke-width="2" d="M 945 272 L 950 272"></path><text y="278" xmlns="http://www.w3.org/2000/svg" x="955">178</text><path stroke-width="2" d="M 945 235 L 950 235" /><path stroke-width="2" d="M 945 235 L 950 235"></path><text x="955" y="241" xmlns="http://www.w3.org/2000/svg">267</text><path stroke-width="2" d="M 945 199 L 950 199" /><path stroke-width="2" d="M 945 199 L 950 199"></path><text x="955" y="205" xmlns="http://www.w3.org/2000/svg">356</text><path stroke-width="2" d="M 945 162 L 950 162" /><path stroke-width="2" d="M 945 162 L 950 162"></path><text x="955" y="168" xmlns="http://www.w3.org/2000/svg">445</text><path stroke-width="2" d="M 945 125 L 950 125" /><path stroke-width="2" d="M 945 125 L 950 125"></path><text x="955" y="131" xmlns="http://www.w3.org/2000/svg">534</text><path stroke-width="2" d="M 945 89 L 950 89" /><path stroke-width="2" d="M 945 89 L 950 89"></path><text xmlns="http://www.w3.org/2000/svg" x="955" y="95">623</text><path stroke-width="2" d="M 945 52 L 950 52" /><path stroke-width="2" d="M 945 52 L 950 52"></path><text xmlns="http://www.w3.org/2000/svg" x="955" y="58">712</text><path d="M 945 16 L 950 16" stroke-width="2" /><path stroke-width="2" d="M 945 16 L 950 16"></path><text xmlns="http://www.w3.org/2000/svg" x="955" y="22">800</text><text y="175" transform="rotate(90.00,987,175)" xmlns="http://www.w3.org/2000/svg" x="987">Stargazers</text><path stroke-width="2" d="M 57.000000 346.000000 L 945 346" /><path stroke-width="2" d="M 57.000000 346.000000 L 945 346"></path><path stroke-width="2" d="M 58 346 L 58 351" /><path stroke-width="2" d="M 58 346 L 58 351"></path><text xmlns="http://www.w3.org/2000/svg" x="25" y="368">2023-04-02</text><path stroke-width="2" d="M 157 346 L 157 351" /><path stroke-width="2" d="M 157 346 L 157 351"></path><text y="368" xmlns="http://www.w3.org/2000/svg" x="124">2023-06-11</text><path d="M 256 346 L 256 351" stroke-width="2" /><path stroke-width="2" d="M 256 346 L 256 351"></path><text xmlns="http://www.w3.org/2000/svg" x="223" y="368">2023-08-20</text><path stroke-width="2" d="M 354 346 L 354 351" /><path stroke-width="2" d="M 354 346 L 354 351"></path><text xmlns="http://www.w3.org/2000/svg" x="321" y="368">2023-10-30</text><path stroke-width="2" d="M 453 346 L 453 351" /><path stroke-width="2" d="M 453 346 L 453 351"></path><text xmlns="http://www.w3.org/2000/svg" x="420" y="368">2024-01-08</text><path stroke-width="2" d="M 551 346 L 551 351" /><path stroke-width="2" d="M 551 346 L 551 351"></path><text y="368" xmlns="http://www.w3.org/2000/svg" x="518">2024-03-18</text><path stroke-width="2" d="M 650 346 L 650 351" /><path stroke-width="2" d="M 650 346 L 650 351"></path><text y="368" xmlns="http://www.w3.org/2000/svg" x="617">2024-05-27</text><path stroke-width="2" d="M 748 346 L 748 351" /><path stroke-width="2" d="M 748 346 L 748 351"></path><text xmlns="http://www.w3.org/2000/svg" x="715" y="368">2024-08-05</text><path stroke-width="2" d="M 847 346 L 847 351" /><path stroke-width="2" d="M 847 346 L 847 351"></path><text x="814" y="368" xmlns="http://www.w3.org/2000/svg">2024-10-15</text><path stroke-width="2" d="M 945 346 L 945 351" /><path stroke-width="2" d="M 945 346 L 945 351"></path><text y="368" xmlns="http://www.w3.org/2000/svg" x="912">2024-12-24</text><text y="390" xmlns="http://www.w3.org/2000/svg" x="487">Time</text></svg>