<svg xmlns="http://www.w3.org/2000/svg" xmlns:xlink="http://www.w3.org/1999/xlink" width="1024px" height="400px"><style type="text/css">
path { fill: none; stroke: rgb(51,51,51); }
path.series { stroke: #6b63ff; }
rect.background { fill: rgb(255,255,255); stroke: none; }

text {
	stroke-width: 0;
	stroke: none;
	fill: rgba(51,51,51,1.0);
	font-size: 12.8px;
	font-family: 'Roboto Medium', sans-serif;
}
</style><rect width="1024px" height="400px" class="background" rx="8" x="0" y="0" /><rect x="0" y="0" width="1024px" height="400px" class="background" rx="8"></rect><path stroke-width="2" class="series" d="M 58 345 L 64 344 L 102 343 L 104 342 L 104 341 L 104 340 L 104 339 L 104 338 L 104 337 L 104 337 L 105 336 L 105 335 L 105 334 L 105 333 L 105 332 L 105 331 L 105 330 L 105 329 L 106 329 L 106 328 L 108 327 L 109 326 L 110 325 L 112 324 L 114 323 L 114 322 L 114 321 L 116 321 L 118 320 L 122 319 L 123 318 L 125 317 L 128 316 L 140 315 L 140 314 L 140 313 L 141 313 L 141 312 L 141 311 L 141 310 L 148 309 L 151 308 L 153 307 L 159 306 L 168 305 L 172 304 L 189 304 L 195 303 L 204 302 L 213 301 L 217 300 L 253 299 L 255 298 L 255 297 L 260 296 L 261 296 L 261 295 L 261 294 L 261 293 L 261 292 L 261 291 L 261 290 L 261 289 L 262 288 L 262 288 L 262 287 L 262 286 L 263 285 L 263 284 L 263 283 L 263 282 L 263 281 L 263 280 L 263 280 L 263 279 L 263 278 L 263 277 L 263 276 L 263 275 L 263 274 L 263 273 L 263 272 L 263 271 L 263 271 L 264 270 L 264 269 L 264 268 L 264 267 L 264 266 L 264 265 L 264 264 L 264 263 L 264 263 L 264 262 L 264 261 L 264 260 L 264 259 L 264 258 L 264 257 L 264 256 L 265 255 L 265 255 L 265 254 L 266 253 L 266 252 L 267 251 L 267 250 L 268 249 L 269 248 L 269 247 L 270 247 L 270 246 L 270 245 L 270 244 L 270 243 L 270 242 L 270 241 L 270 240 L 270 239 L 270 238 L 270 238 L 270 237 L 270 236 L 270 235 L 270 234 L 271 233 L 273 232 L 274 231 L 274 230 L 274 230 L 282 229 L 283 228 L 283 227 L 286 226 L 286 225 L 292 224 L 298 223 L 299 222 L 305 222 L 307 221 L 311 220 L 312 219 L 313 218 L 318 217 L 319 216 L 321 215 L 323 214 L 325 214 L 327 213 L 327 212 L 328 211 L 329 210 L 332 209 L 335 208 L 335 207 L 336 206 L 337 205 L 337 205 L 339 204 L 343 203 L 346 202 L 352 201 L 354 200 L 356 199 L 358 198 L 358 197 L 359 197 L 363 196 L 378 195 L 379 194 L 381 193 L 396 192 L 396 191 L 396 190 L 396 189 L 397 189 L 399 188 L 404 187 L 407 186 L 407 185 L 425 184 L 428 183 L 432 182 L 438 181 L 442 181 L 442 180 L 444 179 L 457 178 L 471 177 L 486 176 L 488 175 L 488 174 L 489 173 L 489 172 L 493 172 L 514 171 L 524 170 L 524 169 L 532 168 L 534 167 L 535 166 L 559 165 L 559 164 L 561 164 L 562 163 L 565 162 L 571 161 L 574 160 L 579 159 L 582 158 L 587 157 L 600 156 L 601 156 L 603 155 L 603 154 L 604 153 L 605 152 L 612 151 L 612 150 L 625 149 L 645 148 L 654 148 L 666 147 L 666 146 L 672 145 L 672 144 L 676 143 L 679 142 L 679 141 L 679 140 L 679 139 L 679 139 L 679 138 L 679 137 L 679 136 L 680 135 L 680 134 L 680 133 L 680 132 L 680 131 L 681 131 L 682 130 L 684 129 L 686 128 L 688 127 L 688 126 L 688 125 L 688 124 L 692 123 L 692 123 L 692 122 L 692 121 L 692 120 L 692 119 L 692 118 L 695 117 L 695 116 L 696 115 L 697 115 L 698 114 L 698 113 L 698 112 L 698 111 L 701 110 L 701 109 L 701 108 L 702 107 L 704 106 L 704 106 L 705 105 L 707 104 L 710 103 L 711 102 L 715 101 L 721 100 L 721 99 L 722 98 L 723 98 L 723 97 L 723 96 L 723 95 L 727 94 L 729 93 L 733 92 L 733 91 L 735 90 L 739 90 L 743 89 L 743 88 L 749 87 L 751 86 L 752 85 L 754 84 L 754 83 L 765 82 L 767 82 L 768 81 L 776 80 L 781 79 L 790 78 L 792 77 L 793 76 L 795 75 L 796 74 L 796 73 L 803 73 L 808 72 L 812 71 L 813 70 L 816 69 L 819 68 L 819 67 L 819 66 L 819 65 L 821 65 L 821 64 L 822 63 L 824 62 L 825 61 L 825 60 L 827 59 L 837 58 L 850 57 L 850 57 L 850 56 L 859 55 L 863 54 L 865 53 L 866 52 L 869 51 L 872 50 L 872 49 L 872 49 L 872 48 L 872 47 L 873 46 L 873 45 L 874 44 L 874 43 L 876 42 L 882 41 L 882 40 L 882 40 L 882 39 L 883 38 L 884 37 L 884 36 L 884 35 L 884 34 L 884 33 L 884 32 L 885 32 L 885 31 L 888 30 L 894 29 L 901 28 L 901 27 L 903 26 L 915 25 L 929 24 L 932 24 L 939 23 L 945 22" /><path d="M 58 345 L 64 344 L 102 343 L 104 342 L 104 341 L 104 340 L 104 339 L 104 338 L 104 337 L 104 337 L 105 336 L 105 335 L 105 334 L 105 333 L 105 332 L 105 331 L 105 330 L 105 329 L 106 329 L 106 328 L 108 327 L 109 326 L 110 325 L 112 324 L 114 323 L 114 322 L 114 321 L 116 321 L 118 320 L 122 319 L 123 318 L 125 317 L 128 316 L 140 315 L 140 314 L 140 313 L 141 313 L 141 312 L 141 311 L 141 310 L 148 309 L 151 308 L 153 307 L 159 306 L 168 305 L 172 304 L 189 304 L 195 303 L 204 302 L 213 301 L 217 300 L 253 299 L 255 298 L 255 297 L 260 296 L 261 296 L 261 295 L 261 294 L 261 293 L 261 292 L 261 291 L 261 290 L 261 289 L 262 288 L 262 288 L 262 287 L 262 286 L 263 285 L 263 284 L 263 283 L 263 282 L 263 281 L 263 280 L 263 280 L 263 279 L 263 278 L 263 277 L 263 276 L 263 275 L 263 274 L 263 273 L 263 272 L 263 271 L 263 271 L 264 270 L 264 269 L 264 268 L 264 267 L 264 266 L 264 265 L 264 264 L 264 263 L 264 263 L 264 262 L 264 261 L 264 260 L 264 259 L 264 258 L 264 257 L 264 256 L 265 255 L 265 255 L 265 254 L 266 253 L 266 252 L 267 251 L 267 250 L 268 249 L 269 248 L 269 247 L 270 247 L 270 246 L 270 245 L 270 244 L 270 243 L 270 242 L 270 241 L 270 240 L 270 239 L 270 238 L 270 238 L 270 237 L 270 236 L 270 235 L 270 234 L 271 233 L 273 232 L 274 231 L 274 230 L 274 230 L 282 229 L 283 228 L 283 227 L 286 226 L 286 225 L 292 224 L 298 223 L 299 222 L 305 222 L 307 221 L 311 220 L 312 219 L 313 218 L 318 217 L 319 216 L 321 215 L 323 214 L 325 214 L 327 213 L 327 212 L 328 211 L 329 210 L 332 209 L 335 208 L 335 207 L 336 206 L 337 205 L 337 205 L 339 204 L 343 203 L 346 202 L 352 201 L 354 200 L 356 199 L 358 198 L 358 197 L 359 197 L 363 196 L 378 195 L 379 194 L 381 193 L 396 192 L 396 191 L 396 190 L 396 189 L 397 189 L 399 188 L 404 187 L 407 186 L 407 185 L 425 184 L 428 183 L 432 182 L 438 181 L 442 181 L 442 180 L 444 179 L 457 178 L 471 177 L 486 176 L 488 175 L 488 174 L 489 173 L 489 172 L 493 172 L 514 171 L 524 170 L 524 169 L 532 168 L 534 167 L 535 166 L 559 165 L 559 164 L 561 164 L 562 163 L 565 162 L 571 161 L 574 160 L 579 159 L 582 158 L 587 157 L 600 156 L 601 156 L 603 155 L 603 154 L 604 153 L 605 152 L 612 151 L 612 150 L 625 149 L 645 148 L 654 148 L 666 147 L 666 146 L 672 145 L 672 144 L 676 143 L 679 142 L 679 141 L 679 140 L 679 139 L 679 139 L 679 138 L 679 137 L 679 136 L 680 135 L 680 134 L 680 133 L 680 132 L 680 131 L 681 131 L 682 130 L 684 129 L 686 128 L 688 127 L 688 126 L 688 125 L 688 124 L 692 123 L 692 123 L 692 122 L 692 121 L 692 120 L 692 119 L 692 118 L 695 117 L 695 116 L 696 115 L 697 115 L 698 114 L 698 113 L 698 112 L 698 111 L 701 110 L 701 109 L 701 108 L 702 107 L 704 106 L 704 106 L 705 105 L 707 104 L 710 103 L 711 102 L 715 101 L 721 100 L 721 99 L 722 98 L 723 98 L 723 97 L 723 96 L 723 95 L 727 94 L 729 93 L 733 92 L 733 91 L 735 90 L 739 90 L 743 89 L 743 88 L 749 87 L 751 86 L 752 85 L 754 84 L 754 83 L 765 82 L 767 82 L 768 81 L 776 80 L 781 79 L 790 78 L 792 77 L 793 76 L 795 75 L 796 74 L 796 73 L 803 73 L 808 72 L 812 71 L 813 70 L 816 69 L 819 68 L 819 67 L 819 66 L 819 65 L 821 65 L 821 64 L 822 63 L 824 62 L 825 61 L 825 60 L 827 59 L 837 58 L 850 57 L 850 57 L 850 56 L 859 55 L 863 54 L 865 53 L 866 52 L 869 51 L 872 50 L 872 49 L 872 49 L 872 48 L 872 47 L 873 46 L 873 45 L 874 44 L 874 43 L 876 42 L 882 41 L 882 40 L 882 40 L 882 39 L 883 38 L 884 37 L 884 36 L 884 35 L 884 34 L 884 33 L 884 32 L 885 32 L 885 31 L 888 30 L 894 29 L 901 28 L 901 27 L 903 26 L 915 25 L 929 24 L 932 24 L 939 23 L 945 22" stroke-width="2" class="series"></path><path stroke-width="2" d="M 945 346 L 945.000000 15.000000" /><path stroke-width="2" d="M 945 346 L 945.000000 15.000000"></path><path stroke-width="2" d="M 945 346 L 950 346" /><path d="M 945 346 L 950 346" stroke-width="2"></path><text xmlns="http://www.w3.org/2000/svg" x="955" y="352">0</text><path d="M 945 308 L 950 308" stroke-width="2" /><path stroke-width="2" d="M 945 308 L 950 308"></path><text xmlns="http://www.w3.org/2000/svg" x="955" y="314">42</text><path stroke-width="2" d="M 945 271 L 950 271" /><path stroke-width="2" d="M 945 271 L 950 271"></path><text xmlns="http://www.w3.org/2000/svg" x="955" y="277">83</text><path stroke-width="2" d="M 945 235 L 950 235" /><path stroke-width="2" d="M 945 235 L 950 235"></path><text xmlns="http://www.w3.org/2000/svg" x="955" y="241">124</text><path stroke-width="2" d="M 945 198 L 950 198" /><path stroke-width="2" d="M 945 198 L 950 198"></path><text xmlns="http://www.w3.org/2000/svg" x="955" y="204">165</text><path stroke-width="2" d="M 945 162 L 950 162" /><path stroke-width="2" d="M 945 162 L 950 162"></path><text y="168" xmlns="http://www.w3.org/2000/svg" x="955">206</text><path stroke-width="2" d="M 945 125 L 950 125" /><path stroke-width="2" d="M 945 125 L 950 125"></path><text xmlns="http://www.w3.org/2000/svg" x="955" y="131">247</text><path stroke-width="2" d="M 945 89 L 950 89" /><path stroke-width="2" d="M 945 89 L 950 89"></path><text xmlns="http://www.w3.org/2000/svg" x="955" y="95">288</text><path stroke-width="2" d="M 945 52 L 950 52" /><path stroke-width="2" d="M 945 52 L 950 52"></path><text xmlns="http://www.w3.org/2000/svg" x="955" y="58">329</text><path stroke-width="2" d="M 945 16 L 950 16" /><path stroke-width="2" d="M 945 16 L 950 16"></path><text xmlns="http://www.w3.org/2000/svg" x="955" y="22">370</text><text xmlns="http://www.w3.org/2000/svg" x="987" y="175" transform="rotate(90.00,987,175)">Stargazers</text><path stroke-width="2" d="M 57.000000 346.000000 L 945 346" /><path stroke-width="2" d="M 57.000000 346.000000 L 945 346"></path><path d="M 58 346 L 58 351" stroke-width="2" /><path stroke-width="2" d="M 58 346 L 58 351"></path><text y="368" xmlns="http://www.w3.org/2000/svg" x="25">2023-04-02</text><path stroke-width="2" d="M 157 346 L 157 351" /><path d="M 157 346 L 157 351" stroke-width="2"></path><text x="124" y="368" xmlns="http://www.w3.org/2000/svg">2023-05-03</text><path stroke-width="2" d="M 256 346 L 256 351" /><path stroke-width="2" d="M 256 346 L 256 351"></path><text xmlns="http://www.w3.org/2000/svg" x="223" y="368">2023-06-03</text><path stroke-width="2" d="M 354 346 L 354 351" /><path stroke-width="2" d="M 354 346 L 354 351"></path><text xmlns="http://www.w3.org/2000/svg" x="321" y="368">2023-07-04</text><path stroke-width="2" d="M 453 346 L 453 351" /><path stroke-width="2" d="M 453 346 L 453 351"></path><text y="368" xmlns="http://www.w3.org/2000/svg" x="420">2023-08-04</text><path stroke-width="2" d="M 551 346 L 551 351" /><path stroke-width="2" d="M 551 346 L 551 351"></path><text xmlns="http://www.w3.org/2000/svg" x="518" y="368">2023-09-05</text><path stroke-width="2" d="M 650 346 L 650 351" /><path stroke-width="2" d="M 650 346 L 650 351"></path><text x="617" y="368" xmlns="http://www.w3.org/2000/svg">2023-10-06</text><path stroke-width="2" d="M 748 346 L 748 351" /><path stroke-width="2" d="M 748 346 L 748 351"></path><text y="368" xmlns="http://www.w3.org/2000/svg" x="715">2023-11-06</text><path stroke-width="2" d="M 847 346 L 847 351" /><path stroke-width="2" d="M 847 346 L 847 351"></path><text xmlns="http://www.w3.org/2000/svg" x="814" y="368">2023-12-07</text><path d="M 945 346 L 945 351" stroke-width="2" /><path stroke-width="2" d="M 945 346 L 945 351"></path><text xmlns="http://www.w3.org/2000/svg" x="912" y="368">2024-01-07</text><text xmlns="http://www.w3.org/2000/svg" x="487" y="390">Time</text></svg>