<svg xmlns="http://www.w3.org/2000/svg" xmlns:xlink="http://www.w3.org/1999/xlink" width="1024px" height="400px"><style type="text/css">
path { fill: none; stroke: rgb(51,51,51); }
path.series { stroke: #6b63ff; }
rect.background { fill: rgb(255,255,255); stroke: none; }

text {
	stroke-width: 0;
	stroke: none;
	fill: rgba(51,51,51,1.0);
	font-size: 12.8px;
	font-family: 'Roboto Medium', sans-serif;
}
</style><rect y="0" width="1024px" height="400px" class="background" rx="8" x="0" /><rect class="background" rx="8" x="0" y="0" width="1024px" height="400px"></rect><path class="series" d="M 58 345 L 60 345 L 73 345 L 74 344 L 74 344 L 74 344 L 74 343 L 74 343 L 74 343 L 74 343 L 74 342 L 74 342 L 74 342 L 74 341 L 74 341 L 74 341 L 74 340 L 74 340 L 74 340 L 75 340 L 76 339 L 76 339 L 77 339 L 77 338 L 77 338 L 77 338 L 78 337 L 78 337 L 80 337 L 80 337 L 81 336 L 82 336 L 86 336 L 86 335 L 86 335 L 86 335 L 86 334 L 88 334 L 89 334 L 90 334 L 92 333 L 95 333 L 97 333 L 102 332 L 104 332 L 107 332 L 110 331 L 112 331 L 124 331 L 124 331 L 124 330 L 126 330 L 126 330 L 126 329 L 126 329 L 126 329 L 126 328 L 126 328 L 126 328 L 126 328 L 127 327 L 127 327 L 127 327 L 127 326 L 127 326 L 127 326 L 127 325 L 127 325 L 127 325 L 127 325 L 127 324 L 127 324 L 127 324 L 127 323 L 127 323 L 127 323 L 127 322 L 127 322 L 127 322 L 127 322 L 127 321 L 127 321 L 127 321 L 127 320 L 127 320 L 127 320 L 127 319 L 127 319 L 127 319 L 127 319 L 127 318 L 127 318 L 127 318 L 127 317 L 127 317 L 127 317 L 127 316 L 128 316 L 128 316 L 128 316 L 128 315 L 128 315 L 128 315 L 128 314 L 129 314 L 129 314 L 129 313 L 129 313 L 129 313 L 129 313 L 129 312 L 129 312 L 129 312 L 129 311 L 129 311 L 129 311 L 129 310 L 129 310 L 129 310 L 129 310 L 129 309 L 129 309 L 130 309 L 130 308 L 131 308 L 131 308 L 131 307 L 133 307 L 134 307 L 134 307 L 135 306 L 135 306 L 137 306 L 139 305 L 139 305 L 141 305 L 142 304 L 143 304 L 143 304 L 144 304 L 145 303 L 146 303 L 146 303 L 147 302 L 148 302 L 148 302 L 149 301 L 149 301 L 149 301 L 150 301 L 151 300 L 151 300 L 151 300 L 152 299 L 152 299 L 152 299 L 154 298 L 155 298 L 157 298 L 157 298 L 158 297 L 159 297 L 159 297 L 159 296 L 160 296 L 165 296 L 166 295 L 167 295 L 171 295 L 172 295 L 172 294 L 172 294 L 172 294 L 173 293 L 174 293 L 175 293 L 175 292 L 181 292 L 182 292 L 184 292 L 186 291 L 187 291 L 187 291 L 188 290 L 192 290 L 196 290 L 202 289 L 202 289 L 202 289 L 203 289 L 203 288 L 204 288 L 211 288 L 214 287 L 215 287 L 217 287 L 218 286 L 218 286 L 226 286 L 226 286 L 227 285 L 227 285 L 228 285 L 230 284 L 231 284 L 233 284 L 234 283 L 235 283 L 240 283 L 240 283 L 241 282 L 241 282 L 241 282 L 241 281 L 244 281 L 248 281 L 258 280 L 262 280 L 264 280 L 264 280 L 265 279 L 266 279 L 266 279 L 266 278 L 266 278 L 266 278 L 266 277 L 266 277 L 266 277 L 267 277 L 267 276 L 267 276 L 267 276 L 267 275 L 267 275 L 267 275 L 269 274 L 269 274 L 269 274 L 269 274 L 271 273 L 271 273 L 271 273 L 271 272 L 271 272 L 271 272 L 271 271 L 271 271 L 272 271 L 272 271 L 273 270 L 273 270 L 273 270 L 273 269 L 274 269 L 274 269 L 274 268 L 274 268 L 275 268 L 275 268 L 276 267 L 277 267 L 277 267 L 278 266 L 280 266 L 280 266 L 281 265 L 281 265 L 281 265 L 281 265 L 281 264 L 282 264 L 283 264 L 284 263 L 284 263 L 285 263 L 287 262 L 288 262 L 288 262 L 290 262 L 290 261 L 291 261 L 291 261 L 291 260 L 295 260 L 296 260 L 296 259 L 299 259 L 300 259 L 303 259 L 304 258 L 304 258 L 305 258 L 306 257 L 306 257 L 308 257 L 310 256 L 311 256 L 311 256 L 313 256 L 313 255 L 313 255 L 313 255 L 314 254 L 314 254 L 314 254 L 315 253 L 315 253 L 315 253 L 316 253 L 319 252 L 324 252 L 324 252 L 324 251 L 326 251 L 328 251 L 329 250 L 329 250 L 330 250 L 331 250 L 331 249 L 331 249 L 331 249 L 331 248 L 331 248 L 331 248 L 332 247 L 332 247 L 332 247 L 334 247 L 334 246 L 334 246 L 334 246 L 335 245 L 335 245 L 335 245 L 335 244 L 335 244 L 335 244 L 335 244 L 335 243 L 335 243 L 338 243 L 340 242 L 340 242 L 341 242 L 350 241 L 351 241 L 353 241 L 356 241 L 363 240 L 364 240 L 365 240 L 365 239 L 365 239 L 365 239 L 365 238 L 365 238 L 366 238 L 367 238 L 373 237 L 375 237 L 378 237 L 383 236 L 386 236 L 389 236 L 391 235 L 395 235 L 395 235 L 403 235 L 410 234 L 410 234 L 416 234 L 416 233 L 420 233 L 421 233 L 423 232 L 423 232 L 424 232 L 424 232 L 426 231 L 427 231 L 430 231 L 433 230 L 433 230 L 434 230 L 435 229 L 437 229 L 440 229 L 440 229 L 444 228 L 447 228 L 447 228 L 447 227 L 449 227 L 450 227 L 450 226 L 453 226 L 455 226 L 457 226 L 459 225 L 459 225 L 463 225 L 464 224 L 466 224 L 470 224 L 470 223 L 474 223 L 475 223 L 475 223 L 476 222 L 476 222 L 478 222 L 478 221 L 480 221 L 483 221 L 483 220 L 484 220 L 484 220 L 490 220 L 490 219 L 491 219 L 491 219 L 491 218 L 492 218 L 492 218 L 492 217 L 493 217 L 494 217 L 494 217 L 496 216 L 496 216 L 497 216 L 497 215 L 498 215 L 498 215 L 498 214 L 499 214 L 499 214 L 499 214 L 499 213 L 499 213 L 500 213 L 501 212 L 502 212 L 502 212 L 502 211 L 503 211 L 503 211 L 504 211 L 505 210 L 505 210 L 506 210 L 507 209 L 508 209 L 508 209 L 508 208 L 509 208 L 510 208 L 511 208 L 511 207 L 511 207 L 511 207 L 511 206 L 511 206 L 512 206 L 512 205 L 513 205 L 516 205 L 517 205 L 518 204 L 518 204 L 520 204 L 521 203 L 521 203 L 523 203 L 525 202 L 527 202 L 529 202 L 530 202 L 530 201 L 530 201 L 530 201 L 531 200 L 531 200 L 531 200 L 532 199 L 532 199 L 532 199 L 533 199 L 534 198 L 535 198 L 535 198 L 535 197 L 535 197 L 538 197 L 538 196 L 538 196 L 539 196 L 540 196 L 542 195 L 547 195 L 547 195 L 547 194 L 547 194 L 549 194 L 551 193 L 551 193 L 551 193 L 551 193 L 552 192 L 553 192 L 556 192 L 556 191 L 556 191 L 556 191 L 558 190 L 559 190 L 559 190 L 559 190 L 561 189 L 564 189 L 564 189 L 568 188 L 568 188 L 568 188 L 571 187 L 572 187 L 574 187 L 576 187 L 577 186 L 578 186 L 578 186 L 579 185 L 579 185 L 579 185 L 579 184 L 580 184 L 580 184 L 580 184 L 581 183 L 581 183 L 581 183 L 582 182 L 583 182 L 583 182 L 587 181 L 588 181 L 592 181 L 594 181 L 594 180 L 595 180 L 595 180 L 598 179 L 598 179 L 598 179 L 599 178 L 599 178 L 599 178 L 599 178 L 599 177 L 600 177 L 600 177 L 600 176 L 600 176 L 600 176 L 601 175 L 601 175 L 602 175 L 603 175 L 603 174 L 604 174 L 605 174 L 605 173 L 605 173 L 605 173 L 606 172 L 609 172 L 609 172 L 609 172 L 609 171 L 609 171 L 610 171 L 610 170 L 610 170 L 611 170 L 613 169 L 615 169 L 617 169 L 618 169 L 620 168 L 622 168 L 626 168 L 626 167 L 628 167 L 632 167 L 632 166 L 632 166 L 636 166 L 637 166 L 638 165 L 638 165 L 638 165 L 646 164 L 646 164 L 647 164 L 647 163 L 647 163 L 648 163 L 649 163 L 649 162 L 649 162 L 650 162 L 650 161 L 650 161 L 651 161 L 651 160 L 651 160 L 651 160 L 651 160 L 652 159 L 652 159 L 653 159 L 654 158 L 655 158 L 655 158 L 655 157 L 656 157 L 657 157 L 657 157 L 658 156 L 659 156 L 659 156 L 659 155 L 659 155 L 660 155 L 661 154 L 662 154 L 662 154 L 663 154 L 663 153 L 664 153 L 664 153 L 664 152 L 664 152 L 665 152 L 665 151 L 665 151 L 666 151 L 666 151 L 667 150 L 668 150 L 668 150 L 668 149 L 668 149 L 668 149 L 669 148 L 669 148 L 669 148 L 670 148 L 670 147 L 670 147 L 671 147 L 671 146 L 671 146 L 671 146 L 671 145 L 671 145 L 672 145 L 672 145 L 672 144 L 672 144 L 672 144 L 675 143 L 675 143 L 677 143 L 677 142 L 677 142 L 678 142 L 679 142 L 680 141 L 680 141 L 681 141 L 683 140 L 685 140 L 685 140 L 686 139 L 687 139 L 687 139 L 688 139 L 688 138 L 688 138 L 689 138 L 689 137 L 689 137 L 689 137 L 689 136 L 689 136 L 689 136 L 689 136 L 689 135 L 690 135 L 690 135 L 690 134 L 691 134 L 691 134 L 692 133 L 693 133 L 693 133 L 694 132 L 694 132 L 695 132 L 695 132 L 696 131 L 699 131 L 699 131 L 699 130 L 699 130 L 699 130 L 701 130 L 703 129 L 703 129 L 705 129 L 705 128 L 705 128 L 705 128 L 706 127 L 710 127 L 712 127 L 715 126 L 716 126 L 717 126 L 718 126 L 719 125 L 719 125 L 719 125 L 719 124 L 720 124 L 720 124 L 721 124 L 721 123 L 722 123 L 724 123 L 724 122 L 724 122 L 724 122 L 724 121 L 724 121 L 724 121 L 724 121 L 724 120 L 724 120 L 724 120 L 724 119 L 724 119 L 724 119 L 724 118 L 724 118 L 724 118 L 725 118 L 725 117 L 725 117 L 725 117 L 726 116 L 726 116 L 726 116 L 726 115 L 726 115 L 726 115 L 727 115 L 727 114 L 727 114 L 727 114 L 727 113 L 727 113 L 728 113 L 730 112 L 732 112 L 732 112 L 732 112 L 733 111 L 733 111 L 733 111 L 734 110 L 736 110 L 737 110 L 738 109 L 738 109 L 738 109 L 738 109 L 738 108 L 738 108 L 738 108 L 740 107 L 740 107 L 740 107 L 744 106 L 745 106 L 746 106 L 749 106 L 750 105 L 750 105 L 750 105 L 750 104 L 751 104 L 751 104 L 752 103 L 752 103 L 753 103 L 753 103 L 753 102 L 754 102 L 754 102 L 754 101 L 754 101 L 754 101 L 754 100 L 754 100 L 755 100 L 755 100 L 755 99 L 756 99 L 757 99 L 757 98 L 757 98 L 758 98 L 758 97 L 759 97 L 759 97 L 759 97 L 759 96 L 760 96 L 760 96 L 761 95 L 765 95 L 765 95 L 766 94 L 769 94 L 770 94 L 771 94 L 773 93 L 774 93 L 775 93 L 777 92 L 782 92 L 782 92 L 784 91 L 786 91 L 788 91 L 788 91 L 788 90 L 790 90 L 790 90 L 791 89 L 792 89 L 793 89 L 794 88 L 795 88 L 795 88 L 796 88 L 796 87 L 796 87 L 797 87 L 800 86 L 801 86 L 802 86 L 803 85 L 803 85 L 804 85 L 805 85 L 806 84 L 806 84 L 806 84 L 806 83 L 807 83 L 808 83 L 808 82 L 809 82 L 810 82 L 810 82 L 810 81 L 811 81 L 812 81 L 812 80 L 812 80 L 813 80 L 813 79 L 813 79 L 813 79 L 813 79 L 814 78 L 814 78 L 816 78 L 818 77 L 818 77 L 818 77 L 821 76 L 822 76 L 823 76 L 824 76 L 826 75 L 828 75 L 830 75 L 831 74 L 832 74 L 833 74 L 835 73 L 837 73 L 838 73 L 839 73 L 839 72 L 839 72 L 839 72 L 839 71 L 839 71 L 840 71 L 841 70 L 842 70 L 843 70 L 843 70 L 843 69 L 849 69 L 850 69 L 851 68 L 852 68 L 854 68 L 855 67 L 855 67 L 856 67 L 856 67 L 856 66 L 857 66 L 858 66 L 858 65 L 859 65 L 859 65 L 859 64 L 860 64 L 860 64 L 861 64 L 862 63 L 865 63 L 865 63 L 870 62 L 870 62 L 871 62 L 872 61 L 873 61 L 873 61 L 873 61 L 873 60 L 876 60 L 877 60 L 879 59 L 879 59 L 879 59 L 879 58 L 881 58 L 882 58 L 884 58 L 884 57 L 885 57 L 885 57 L 885 56 L 886 56 L 886 56 L 887 55 L 887 55 L 888 55 L 889 55 L 890 54 L 891 54 L 891 54 L 891 53 L 891 53 L 892 53 L 892 52 L 895 52 L 899 52 L 899 52 L 903 51 L 904 51 L 906 51 L 907 50 L 907 50 L 908 50 L 908 49 L 909 49 L 910 49 L 911 49 L 912 48 L 913 48 L 914 48 L 917 47 L 922 47 L 922 47 L 922 46 L 922 46 L 923 46 L 924 46 L 925 45 L 925 45 L 933 45 L 936 44 L 936 44 L 937 44" stroke-width="2" /><path class="series" d="M 58 345 L 60 345 L 73 345 L 74 344 L 74 344 L 74 344 L 74 343 L 74 343 L 74 343 L 74 343 L 74 342 L 74 342 L 74 342 L 74 341 L 74 341 L 74 341 L 74 340 L 74 340 L 74 340 L 75 340 L 76 339 L 76 339 L 77 339 L 77 338 L 77 338 L 77 338 L 78 337 L 78 337 L 80 337 L 80 337 L 81 336 L 82 336 L 86 336 L 86 335 L 86 335 L 86 335 L 86 334 L 88 334 L 89 334 L 90 334 L 92 333 L 95 333 L 97 333 L 102 332 L 104 332 L 107 332 L 110 331 L 112 331 L 124 331 L 124 331 L 124 330 L 126 330 L 126 330 L 126 329 L 126 329 L 126 329 L 126 328 L 126 328 L 126 328 L 126 328 L 127 327 L 127 327 L 127 327 L 127 326 L 127 326 L 127 326 L 127 325 L 127 325 L 127 325 L 127 325 L 127 324 L 127 324 L 127 324 L 127 323 L 127 323 L 127 323 L 127 322 L 127 322 L 127 322 L 127 322 L 127 321 L 127 321 L 127 321 L 127 320 L 127 320 L 127 320 L 127 319 L 127 319 L 127 319 L 127 319 L 127 318 L 127 318 L 127 318 L 127 317 L 127 317 L 127 317 L 127 316 L 128 316 L 128 316 L 128 316 L 128 315 L 128 315 L 128 315 L 128 314 L 129 314 L 129 314 L 129 313 L 129 313 L 129 313 L 129 313 L 129 312 L 129 312 L 129 312 L 129 311 L 129 311 L 129 311 L 129 310 L 129 310 L 129 310 L 129 310 L 129 309 L 129 309 L 130 309 L 130 308 L 131 308 L 131 308 L 131 307 L 133 307 L 134 307 L 134 307 L 135 306 L 135 306 L 137 306 L 139 305 L 139 305 L 141 305 L 142 304 L 143 304 L 143 304 L 144 304 L 145 303 L 146 303 L 146 303 L 147 302 L 148 302 L 148 302 L 149 301 L 149 301 L 149 301 L 150 301 L 151 300 L 151 300 L 151 300 L 152 299 L 152 299 L 152 299 L 154 298 L 155 298 L 157 298 L 157 298 L 158 297 L 159 297 L 159 297 L 159 296 L 160 296 L 165 296 L 166 295 L 167 295 L 171 295 L 172 295 L 172 294 L 172 294 L 172 294 L 173 293 L 174 293 L 175 293 L 175 292 L 181 292 L 182 292 L 184 292 L 186 291 L 187 291 L 187 291 L 188 290 L 192 290 L 196 290 L 202 289 L 202 289 L 202 289 L 203 289 L 203 288 L 204 288 L 211 288 L 214 287 L 215 287 L 217 287 L 218 286 L 218 286 L 226 286 L 226 286 L 227 285 L 227 285 L 228 285 L 230 284 L 231 284 L 233 284 L 234 283 L 235 283 L 240 283 L 240 283 L 241 282 L 241 282 L 241 282 L 241 281 L 244 281 L 248 281 L 258 280 L 262 280 L 264 280 L 264 280 L 265 279 L 266 279 L 266 279 L 266 278 L 266 278 L 266 278 L 266 277 L 266 277 L 266 277 L 267 277 L 267 276 L 267 276 L 267 276 L 267 275 L 267 275 L 267 275 L 269 274 L 269 274 L 269 274 L 269 274 L 271 273 L 271 273 L 271 273 L 271 272 L 271 272 L 271 272 L 271 271 L 271 271 L 272 271 L 272 271 L 273 270 L 273 270 L 273 270 L 273 269 L 274 269 L 274 269 L 274 268 L 274 268 L 275 268 L 275 268 L 276 267 L 277 267 L 277 267 L 278 266 L 280 266 L 280 266 L 281 265 L 281 265 L 281 265 L 281 265 L 281 264 L 282 264 L 283 264 L 284 263 L 284 263 L 285 263 L 287 262 L 288 262 L 288 262 L 290 262 L 290 261 L 291 261 L 291 261 L 291 260 L 295 260 L 296 260 L 296 259 L 299 259 L 300 259 L 303 259 L 304 258 L 304 258 L 305 258 L 306 257 L 306 257 L 308 257 L 310 256 L 311 256 L 311 256 L 313 256 L 313 255 L 313 255 L 313 255 L 314 254 L 314 254 L 314 254 L 315 253 L 315 253 L 315 253 L 316 253 L 319 252 L 324 252 L 324 252 L 324 251 L 326 251 L 328 251 L 329 250 L 329 250 L 330 250 L 331 250 L 331 249 L 331 249 L 331 249 L 331 248 L 331 248 L 331 248 L 332 247 L 332 247 L 332 247 L 334 247 L 334 246 L 334 246 L 334 246 L 335 245 L 335 245 L 335 245 L 335 244 L 335 244 L 335 244 L 335 244 L 335 243 L 335 243 L 338 243 L 340 242 L 340 242 L 341 242 L 350 241 L 351 241 L 353 241 L 356 241 L 363 240 L 364 240 L 365 240 L 365 239 L 365 239 L 365 239 L 365 238 L 365 238 L 366 238 L 367 238 L 373 237 L 375 237 L 378 237 L 383 236 L 386 236 L 389 236 L 391 235 L 395 235 L 395 235 L 403 235 L 410 234 L 410 234 L 416 234 L 416 233 L 420 233 L 421 233 L 423 232 L 423 232 L 424 232 L 424 232 L 426 231 L 427 231 L 430 231 L 433 230 L 433 230 L 434 230 L 435 229 L 437 229 L 440 229 L 440 229 L 444 228 L 447 228 L 447 228 L 447 227 L 449 227 L 450 227 L 450 226 L 453 226 L 455 226 L 457 226 L 459 225 L 459 225 L 463 225 L 464 224 L 466 224 L 470 224 L 470 223 L 474 223 L 475 223 L 475 223 L 476 222 L 476 222 L 478 222 L 478 221 L 480 221 L 483 221 L 483 220 L 484 220 L 484 220 L 490 220 L 490 219 L 491 219 L 491 219 L 491 218 L 492 218 L 492 218 L 492 217 L 493 217 L 494 217 L 494 217 L 496 216 L 496 216 L 497 216 L 497 215 L 498 215 L 498 215 L 498 214 L 499 214 L 499 214 L 499 214 L 499 213 L 499 213 L 500 213 L 501 212 L 502 212 L 502 212 L 502 211 L 503 211 L 503 211 L 504 211 L 505 210 L 505 210 L 506 210 L 507 209 L 508 209 L 508 209 L 508 208 L 509 208 L 510 208 L 511 208 L 511 207 L 511 207 L 511 207 L 511 206 L 511 206 L 512 206 L 512 205 L 513 205 L 516 205 L 517 205 L 518 204 L 518 204 L 520 204 L 521 203 L 521 203 L 523 203 L 525 202 L 527 202 L 529 202 L 530 202 L 530 201 L 530 201 L 530 201 L 531 200 L 531 200 L 531 200 L 532 199 L 532 199 L 532 199 L 533 199 L 534 198 L 535 198 L 535 198 L 535 197 L 535 197 L 538 197 L 538 196 L 538 196 L 539 196 L 540 196 L 542 195 L 547 195 L 547 195 L 547 194 L 547 194 L 549 194 L 551 193 L 551 193 L 551 193 L 551 193 L 552 192 L 553 192 L 556 192 L 556 191 L 556 191 L 556 191 L 558 190 L 559 190 L 559 190 L 559 190 L 561 189 L 564 189 L 564 189 L 568 188 L 568 188 L 568 188 L 571 187 L 572 187 L 574 187 L 576 187 L 577 186 L 578 186 L 578 186 L 579 185 L 579 185 L 579 185 L 579 184 L 580 184 L 580 184 L 580 184 L 581 183 L 581 183 L 581 183 L 582 182 L 583 182 L 583 182 L 587 181 L 588 181 L 592 181 L 594 181 L 594 180 L 595 180 L 595 180 L 598 179 L 598 179 L 598 179 L 599 178 L 599 178 L 599 178 L 599 178 L 599 177 L 600 177 L 600 177 L 600 176 L 600 176 L 600 176 L 601 175 L 601 175 L 602 175 L 603 175 L 603 174 L 604 174 L 605 174 L 605 173 L 605 173 L 605 173 L 606 172 L 609 172 L 609 172 L 609 172 L 609 171 L 609 171 L 610 171 L 610 170 L 610 170 L 611 170 L 613 169 L 615 169 L 617 169 L 618 169 L 620 168 L 622 168 L 626 168 L 626 167 L 628 167 L 632 167 L 632 166 L 632 166 L 636 166 L 637 166 L 638 165 L 638 165 L 638 165 L 646 164 L 646 164 L 647 164 L 647 163 L 647 163 L 648 163 L 649 163 L 649 162 L 649 162 L 650 162 L 650 161 L 650 161 L 651 161 L 651 160 L 651 160 L 651 160 L 651 160 L 652 159 L 652 159 L 653 159 L 654 158 L 655 158 L 655 158 L 655 157 L 656 157 L 657 157 L 657 157 L 658 156 L 659 156 L 659 156 L 659 155 L 659 155 L 660 155 L 661 154 L 662 154 L 662 154 L 663 154 L 663 153 L 664 153 L 664 153 L 664 152 L 664 152 L 665 152 L 665 151 L 665 151 L 666 151 L 666 151 L 667 150 L 668 150 L 668 150 L 668 149 L 668 149 L 668 149 L 669 148 L 669 148 L 669 148 L 670 148 L 670 147 L 670 147 L 671 147 L 671 146 L 671 146 L 671 146 L 671 145 L 671 145 L 672 145 L 672 145 L 672 144 L 672 144 L 672 144 L 675 143 L 675 143 L 677 143 L 677 142 L 677 142 L 678 142 L 679 142 L 680 141 L 680 141 L 681 141 L 683 140 L 685 140 L 685 140 L 686 139 L 687 139 L 687 139 L 688 139 L 688 138 L 688 138 L 689 138 L 689 137 L 689 137 L 689 137 L 689 136 L 689 136 L 689 136 L 689 136 L 689 135 L 690 135 L 690 135 L 690 134 L 691 134 L 691 134 L 692 133 L 693 133 L 693 133 L 694 132 L 694 132 L 695 132 L 695 132 L 696 131 L 699 131 L 699 131 L 699 130 L 699 130 L 699 130 L 701 130 L 703 129 L 703 129 L 705 129 L 705 128 L 705 128 L 705 128 L 706 127 L 710 127 L 712 127 L 715 126 L 716 126 L 717 126 L 718 126 L 719 125 L 719 125 L 719 125 L 719 124 L 720 124 L 720 124 L 721 124 L 721 123 L 722 123 L 724 123 L 724 122 L 724 122 L 724 122 L 724 121 L 724 121 L 724 121 L 724 121 L 724 120 L 724 120 L 724 120 L 724 119 L 724 119 L 724 119 L 724 118 L 724 118 L 724 118 L 725 118 L 725 117 L 725 117 L 725 117 L 726 116 L 726 116 L 726 116 L 726 115 L 726 115 L 726 115 L 727 115 L 727 114 L 727 114 L 727 114 L 727 113 L 727 113 L 728 113 L 730 112 L 732 112 L 732 112 L 732 112 L 733 111 L 733 111 L 733 111 L 734 110 L 736 110 L 737 110 L 738 109 L 738 109 L 738 109 L 738 109 L 738 108 L 738 108 L 738 108 L 740 107 L 740 107 L 740 107 L 744 106 L 745 106 L 746 106 L 749 106 L 750 105 L 750 105 L 750 105 L 750 104 L 751 104 L 751 104 L 752 103 L 752 103 L 753 103 L 753 103 L 753 102 L 754 102 L 754 102 L 754 101 L 754 101 L 754 101 L 754 100 L 754 100 L 755 100 L 755 100 L 755 99 L 756 99 L 757 99 L 757 98 L 757 98 L 758 98 L 758 97 L 759 97 L 759 97 L 759 97 L 759 96 L 760 96 L 760 96 L 761 95 L 765 95 L 765 95 L 766 94 L 769 94 L 770 94 L 771 94 L 773 93 L 774 93 L 775 93 L 777 92 L 782 92 L 782 92 L 784 91 L 786 91 L 788 91 L 788 91 L 788 90 L 790 90 L 790 90 L 791 89 L 792 89 L 793 89 L 794 88 L 795 88 L 795 88 L 796 88 L 796 87 L 796 87 L 797 87 L 800 86 L 801 86 L 802 86 L 803 85 L 803 85 L 804 85 L 805 85 L 806 84 L 806 84 L 806 84 L 806 83 L 807 83 L 808 83 L 808 82 L 809 82 L 810 82 L 810 82 L 810 81 L 811 81 L 812 81 L 812 80 L 812 80 L 813 80 L 813 79 L 813 79 L 813 79 L 813 79 L 814 78 L 814 78 L 816 78 L 818 77 L 818 77 L 818 77 L 821 76 L 822 76 L 823 76 L 824 76 L 826 75 L 828 75 L 830 75 L 831 74 L 832 74 L 833 74 L 835 73 L 837 73 L 838 73 L 839 73 L 839 72 L 839 72 L 839 72 L 839 71 L 839 71 L 840 71 L 841 70 L 842 70 L 843 70 L 843 70 L 843 69 L 849 69 L 850 69 L 851 68 L 852 68 L 854 68 L 855 67 L 855 67 L 856 67 L 856 67 L 856 66 L 857 66 L 858 66 L 858 65 L 859 65 L 859 65 L 859 64 L 860 64 L 860 64 L 861 64 L 862 63 L 865 63 L 865 63 L 870 62 L 870 62 L 871 62 L 872 61 L 873 61 L 873 61 L 873 61 L 873 60 L 876 60 L 877 60 L 879 59 L 879 59 L 879 59 L 879 58 L 881 58 L 882 58 L 884 58 L 884 57 L 885 57 L 885 57 L 885 56 L 886 56 L 886 56 L 887 55 L 887 55 L 888 55 L 889 55 L 890 54 L 891 54 L 891 54 L 891 53 L 891 53 L 892 53 L 892 52 L 895 52 L 899 52 L 899 52 L 903 51 L 904 51 L 906 51 L 907 50 L 907 50 L 908 50 L 908 49 L 909 49 L 910 49 L 911 49 L 912 48 L 913 48 L 914 48 L 917 47 L 922 47 L 922 47 L 922 46 L 922 46 L 923 46 L 924 46 L 925 45 L 925 45 L 933 45 L 936 44 L 936 44 L 937 44" stroke-width="2"></path><path stroke-width="2" d="M 937 346 L 937.000000 15.000000" /><path stroke-width="2" d="M 937 346 L 937.000000 15.000000"></path><path d="M 937 346 L 942 346" stroke-width="2" /><path stroke-width="2" d="M 937 346 L 942 346"></path><text xmlns="http://www.w3.org/2000/svg" x="947" y="352">0</text><path stroke-width="2" d="M 937 307 L 942 307" /><path stroke-width="2" d="M 937 307 L 942 307"></path><text xmlns="http://www.w3.org/2000/svg" x="947" y="313">130</text><path d="M 937 271 L 942 271" stroke-width="2" /><path stroke-width="2" d="M 937 271 L 942 271"></path><text xmlns="http://www.w3.org/2000/svg" x="947" y="277">250</text><path stroke-width="2" d="M 937 235 L 942 235" /><path stroke-width="2" d="M 937 235 L 942 235"></path><text xmlns="http://www.w3.org/2000/svg" x="947" y="241">370</text><path stroke-width="2" d="M 937 199 L 942 199" /><path stroke-width="2" d="M 937 199 L 942 199"></path><text xmlns="http://www.w3.org/2000/svg" x="947" y="205">490</text><path stroke-width="2" d="M 937 160 L 942 160" /><path stroke-width="2" d="M 937 160 L 942 160"></path><text xmlns="http://www.w3.org/2000/svg" x="947" y="166">620</text><path stroke-width="2" d="M 937 124 L 942 124" /><path stroke-width="2" d="M 937 124 L 942 124"></path><text y="130" xmlns="http://www.w3.org/2000/svg" x="947">740</text><path stroke-width="2" d="M 937 88 L 942 88" /><path stroke-width="2" d="M 937 88 L 942 88"></path><text xmlns="http://www.w3.org/2000/svg" x="947" y="94">860</text><path stroke-width="2" d="M 937 52 L 942 52" /><path d="M 937 52 L 942 52" stroke-width="2"></path><text xmlns="http://www.w3.org/2000/svg" x="947" y="58">980</text><path stroke-width="2" d="M 937 16 L 942 16" /><path stroke-width="2" d="M 937 16 L 942 16"></path><text xmlns="http://www.w3.org/2000/svg" x="947" y="22">1100</text><text xmlns="http://www.w3.org/2000/svg" x="987" y="175" transform="rotate(90.00,987,175)">Stargazers</text><path d="M 57.000000 346.000000 L 937 346" stroke-width="2" /><path stroke-width="2" d="M 57.000000 346.000000 L 937 346"></path><path stroke-width="2" d="M 58 346 L 58 351" /><path stroke-width="2" d="M 58 346 L 58 351"></path><text xmlns="http://www.w3.org/2000/svg" x="25" y="368">2023-04-02</text><path stroke-width="2" d="M 156 346 L 156 351" /><path stroke-width="2" d="M 156 346 L 156 351"></path><text xmlns="http://www.w3.org/2000/svg" x="123" y="368">2023-07-03</text><path stroke-width="2" d="M 254 346 L 254 351" /><path stroke-width="2" d="M 254 346 L 254 351"></path><text xmlns="http://www.w3.org/2000/svg" x="221" y="368">2023-10-03</text><path stroke-width="2" d="M 351 346 L 351 351" /><path stroke-width="2" d="M 351 346 L 351 351"></path><text xmlns="http://www.w3.org/2000/svg" x="318" y="368">2024-01-03</text><path stroke-width="2" d="M 449 346 L 449 351" /><path stroke-width="2" d="M 449 346 L 449 351"></path><text xmlns="http://www.w3.org/2000/svg" x="416" y="368">2024-04-04</text><path stroke-width="2" d="M 547 346 L 547 351" /><path stroke-width="2" d="M 547 346 L 547 351"></path><text xmlns="http://www.w3.org/2000/svg" x="514" y="368">2024-07-05</text><path stroke-width="2" d="M 644 346 L 644 351" /><path stroke-width="2" d="M 644 346 L 644 351"></path><text xmlns="http://www.w3.org/2000/svg" x="611" y="368">2024-10-06</text><path stroke-width="2" d="M 742 346 L 742 351" /><path stroke-width="2" d="M 742 346 L 742 351"></path><text x="709" y="368" xmlns="http://www.w3.org/2000/svg">2025-01-06</text><path stroke-width="2" d="M 840 346 L 840 351" /><path stroke-width="2" d="M 840 346 L 840 351"></path><text xmlns="http://www.w3.org/2000/svg" x="807" y="368">2025-04-08</text><path stroke-width="2" d="M 937 346 L 937 351" /><path stroke-width="2" d="M 937 346 L 937 351"></path><text xmlns="http://www.w3.org/2000/svg" x="904" y="368">2025-07-09</text><text xmlns="http://www.w3.org/2000/svg" x="483" y="390">Time</text></svg>