<svg xmlns:xlink="http://www.w3.org/1999/xlink" width="1024px" height="400px" xmlns="http://www.w3.org/2000/svg"><style type="text/css">
path { fill: none; stroke: rgb(51,51,51); }
path.series { stroke: #6b63ff; }
rect.background { fill: rgb(255,255,255); stroke: none; }

text {
	stroke-width: 0;
	stroke: none;
	fill: rgba(51,51,51,1.0);
	font-size: 12.8px;
	font-family: 'Roboto Medium', sans-serif;
}
</style><rect x="0" y="0" width="1024px" height="400px" class="background" rx="8" /><rect height="400px" class="background" rx="8" x="0" y="0" width="1024px"></rect><path stroke-width="2" class="series" d="M 58 345 L 62 344 L 82 344 L 83 343 L 83 343 L 83 342 L 83 342 L 83 341 L 83 341 L 83 340 L 83 339 L 83 339 L 83 338 L 83 338 L 84 337 L 84 337 L 84 336 L 84 336 L 84 335 L 85 335 L 86 334 L 86 333 L 88 333 L 89 332 L 89 332 L 89 331 L 89 331 L 91 330 L 93 330 L 93 329 L 95 328 L 96 328 L 103 327 L 103 327 L 103 326 L 103 326 L 103 325 L 103 325 L 107 324 L 108 324 L 109 323 L 112 322 L 118 322 L 120 321 L 129 321 L 132 320 L 137 320 L 142 319 L 144 319 L 163 318 L 164 317 L 165 317 L 167 316 L 168 316 L 168 315 L 168 315 L 168 314 L 168 314 L 168 313 L 168 313 L 168 312 L 168 311 L 168 311 L 168 310 L 168 310 L 169 309 L 169 309 L 169 308 L 169 308 L 169 307 L 169 306 L 169 306 L 169 305 L 169 305 L 169 304 L 169 304 L 169 303 L 169 303 L 169 302 L 169 302 L 169 301 L 169 300 L 169 300 L 169 299 L 169 299 L 169 298 L 169 298 L 169 297 L 169 297 L 169 296 L 169 295 L 169 295 L 169 294 L 169 294 L 169 293 L 169 293 L 169 292 L 169 292 L 170 291 L 170 291 L 170 290 L 170 289 L 170 289 L 171 288 L 171 288 L 171 287 L 172 287 L 172 286 L 172 286 L 172 285 L 172 284 L 172 284 L 172 283 L 172 283 L 172 282 L 172 282 L 172 281 L 172 281 L 172 280 L 172 280 L 172 279 L 172 278 L 173 278 L 173 277 L 174 277 L 174 276 L 174 276 L 174 275 L 179 275 L 179 274 L 179 273 L 181 273 L 181 272 L 184 272 L 187 271 L 188 271 L 191 270 L 192 270 L 194 269 L 195 269 L 195 268 L 198 267 L 199 267 L 200 266 L 201 266 L 202 265 L 203 265 L 203 264 L 203 264 L 204 263 L 206 262 L 207 262 L 207 261 L 208 261 L 208 260 L 209 260 L 210 259 L 212 259 L 213 258 L 216 258 L 217 257 L 219 256 L 220 256 L 220 255 L 220 255 L 222 254 L 231 254 L 231 253 L 232 253 L 240 252 L 240 251 L 240 251 L 240 250 L 241 250 L 242 249 L 245 249 L 246 248 L 246 248 L 256 247 L 258 247 L 260 246 L 263 245 L 265 245 L 265 244 L 266 244 L 273 243 L 280 243 L 289 242 L 290 242 L 290 241 L 290 240 L 291 240 L 292 239 L 304 239 L 309 238 L 309 238 L 314 237 L 315 237 L 315 236 L 328 236 L 328 235 L 329 234 L 329 234 L 331 233 L 335 233 L 336 232 L 339 232 L 340 231 L 343 231 L 350 230 L 351 229 L 352 229 L 352 228 L 352 228 L 353 227 L 357 227 L 364 226 L 379 226 L 385 225 L 389 225 L 389 224 L 391 223 L 393 223 L 393 222 L 393 222 L 393 221 L 393 221 L 393 220 L 393 220 L 393 219 L 393 218 L 393 218 L 393 217 L 393 217 L 393 216 L 394 216 L 394 215 L 397 215 L 397 214 L 398 214 L 398 213 L 398 212 L 400 212 L 400 211 L 400 211 L 400 210 L 400 210 L 400 209 L 400 209 L 401 208 L 402 207 L 402 207 L 403 206 L 403 206 L 403 205 L 403 205 L 404 204 L 405 204 L 405 203 L 405 203 L 406 202 L 406 201 L 407 201 L 408 200 L 409 200 L 410 199 L 412 199 L 415 198 L 415 198 L 416 197 L 416 196 L 416 196 L 416 195 L 417 195 L 419 194 L 419 194 L 422 193 L 422 193 L 423 192 L 425 192 L 427 191 L 427 190 L 431 190 L 431 189 L 432 189 L 433 188 L 433 188 L 439 187 L 440 187 L 441 186 L 445 185 L 448 185 L 452 184 L 454 184 L 454 183 L 455 183 L 456 182 L 456 182 L 459 181 L 462 181 L 464 180 L 465 179 L 466 179 L 468 178 L 468 178 L 468 177 L 468 177 L 469 176 L 469 176 L 469 175 L 471 174 L 471 174 L 471 173 L 472 173 L 478 172 L 485 172 L 485 171 L 485 171 L 489 170 L 492 170 L 493 169 L 493 168 L 495 168 L 496 167 L 496 167 L 496 166 L 496 166 L 497 165 L 497 165 L 497 164 L 498 163 L 498 163 L 499 162 L 502 162 L 502 161 L 502 161 L 502 160 L 503 160 L 503 159 L 503 159 L 503 158 L 503 157 L 503 157 L 503 156 L 503 156 L 504 155 L 509 155 L 512 154 L 512 154 L 513 153 L 520 152 L 527 152 L 529 151 L 533 151 L 536 150 L 545 150 L 547 149 L 550 149 L 551 148 L 551 148 L 551 147 L 551 146 L 551 146 L 551 145 L 551 145 L 553 144 L 554 144 L 565 143 L 568 143 L 572 142 L 580 141 L 586 141 L 590 140 L 594 140 L 600 139 L 600 139 L 612 138 L 624 138 L 624 137 L 633 137 L 633 136 L 640 135 L 642 135 L 645 134 L 645 134 L 646 133 L 646 133 L 650 132 L 652 132 L 655 131 L 660 130 L 661 130 L 663 129 L 663 129 L 668 128 L 672 128 L 673 127 L 678 127 L 683 126 L 684 126 L 684 125 L 686 124 L 688 124 L 689 123 L 693 123 L 696 122 L 700 122 L 703 121 L 703 121 L 710 120 L 711 119 L 715 119 L 720 118 L 721 118 L 727 117 L 728 117 L 728 116 L 730 116 L 731 115 L 734 115 L 734 114 L 737 113 L 741 113 L 742 112 L 742 112 L 743 111 L 753 111 L 753 110 L 754 110 L 754 109 L 754 108 L 755 108 L 756 107 L 756 107 L 757 106 L 759 106 L 760 105 L 761 105 L 762 104 L 763 104 L 764 103 L 765 102 L 765 102 L 766 101 L 766 101 L 766 100 L 767 100 L 767 99 L 768 99 L 768 98 L 769 97 L 771 97 L 771 96 L 772 96 L 773 95 L 773 95 L 775 94 L 777 94 L 777 93 L 778 92 L 780 92 L 781 91 L 782 91 L 782 90 L 783 90 L 785 89 L 785 89 L 786 88 L 786 88 L 787 87 L 787 86 L 787 86 L 788 85 L 788 85 L 790 84 L 794 84 L 795 83 L 797 83 L 797 82 L 800 82 L 802 81 L 803 80 L 806 80 L 809 79 L 813 79 L 816 78 L 817 78 L 817 77 L 817 77 L 817 76 L 818 75 L 819 75 L 819 74 L 820 74 L 820 73 L 820 73 L 821 72 L 823 72 L 824 71 L 824 71 L 826 70 L 826 69 L 829 69 L 830 68 L 830 68 L 831 67 L 832 67 L 836 66 L 839 66 L 844 65 L 844 64 L 844 64 L 845 63 L 848 63 L 851 62 L 851 62 L 851 61 L 851 61 L 852 60 L 854 60 L 859 59 L 859 58 L 859 58 L 859 57 L 862 57 L 863 56 L 863 56 L 863 55 L 863 55 L 867 54 L 872 53 L 872 53 L 877 52 L 877 52 L 879 51 L 883 51 L 885 50 L 888 50 L 891 49 L 893 49 L 895 48 L 895 47 L 895 47 L 896 46 L 896 46 L 896 45 L 897 45 L 898 44 L 898 44 L 899 43 L 899 42 L 899 42 L 901 41 L 902 41 L 903 40 L 909 40 L 910 39 L 916 39 L 919 38 L 920 38 L 921 37 L 922 36 L 925 36 L 926 35 L 927 35 L 927 34 L 928 34 L 928 33 L 928 33 L 928 32 L 928 31 L 930 31 L 930 30 L 930 30 L 930 29 L 930 29 L 931 28 L 931 28 L 932 27 L 933 27 L 933 26 L 934 25 L 934 25 L 936 24 L 937 24 L 937 23 L 937 23 L 938 22 L 940 22 L 943 21 L 943 20 L 943 20 L 944 19 L 944 19 L 945 18 L 945 18 L 945 17" /><path stroke-width="2" class="series" d="M 58 345 L 62 344 L 82 344 L 83 343 L 83 343 L 83 342 L 83 342 L 83 341 L 83 341 L 83 340 L 83 339 L 83 339 L 83 338 L 83 338 L 84 337 L 84 337 L 84 336 L 84 336 L 84 335 L 85 335 L 86 334 L 86 333 L 88 333 L 89 332 L 89 332 L 89 331 L 89 331 L 91 330 L 93 330 L 93 329 L 95 328 L 96 328 L 103 327 L 103 327 L 103 326 L 103 326 L 103 325 L 103 325 L 107 324 L 108 324 L 109 323 L 112 322 L 118 322 L 120 321 L 129 321 L 132 320 L 137 320 L 142 319 L 144 319 L 163 318 L 164 317 L 165 317 L 167 316 L 168 316 L 168 315 L 168 315 L 168 314 L 168 314 L 168 313 L 168 313 L 168 312 L 168 311 L 168 311 L 168 310 L 168 310 L 169 309 L 169 309 L 169 308 L 169 308 L 169 307 L 169 306 L 169 306 L 169 305 L 169 305 L 169 304 L 169 304 L 169 303 L 169 303 L 169 302 L 169 302 L 169 301 L 169 300 L 169 300 L 169 299 L 169 299 L 169 298 L 169 298 L 169 297 L 169 297 L 169 296 L 169 295 L 169 295 L 169 294 L 169 294 L 169 293 L 169 293 L 169 292 L 169 292 L 170 291 L 170 291 L 170 290 L 170 289 L 170 289 L 171 288 L 171 288 L 171 287 L 172 287 L 172 286 L 172 286 L 172 285 L 172 284 L 172 284 L 172 283 L 172 283 L 172 282 L 172 282 L 172 281 L 172 281 L 172 280 L 172 280 L 172 279 L 172 278 L 173 278 L 173 277 L 174 277 L 174 276 L 174 276 L 174 275 L 179 275 L 179 274 L 179 273 L 181 273 L 181 272 L 184 272 L 187 271 L 188 271 L 191 270 L 192 270 L 194 269 L 195 269 L 195 268 L 198 267 L 199 267 L 200 266 L 201 266 L 202 265 L 203 265 L 203 264 L 203 264 L 204 263 L 206 262 L 207 262 L 207 261 L 208 261 L 208 260 L 209 260 L 210 259 L 212 259 L 213 258 L 216 258 L 217 257 L 219 256 L 220 256 L 220 255 L 220 255 L 222 254 L 231 254 L 231 253 L 232 253 L 240 252 L 240 251 L 240 251 L 240 250 L 241 250 L 242 249 L 245 249 L 246 248 L 246 248 L 256 247 L 258 247 L 260 246 L 263 245 L 265 245 L 265 244 L 266 244 L 273 243 L 280 243 L 289 242 L 290 242 L 290 241 L 290 240 L 291 240 L 292 239 L 304 239 L 309 238 L 309 238 L 314 237 L 315 237 L 315 236 L 328 236 L 328 235 L 329 234 L 329 234 L 331 233 L 335 233 L 336 232 L 339 232 L 340 231 L 343 231 L 350 230 L 351 229 L 352 229 L 352 228 L 352 228 L 353 227 L 357 227 L 364 226 L 379 226 L 385 225 L 389 225 L 389 224 L 391 223 L 393 223 L 393 222 L 393 222 L 393 221 L 393 221 L 393 220 L 393 220 L 393 219 L 393 218 L 393 218 L 393 217 L 393 217 L 393 216 L 394 216 L 394 215 L 397 215 L 397 214 L 398 214 L 398 213 L 398 212 L 400 212 L 400 211 L 400 211 L 400 210 L 400 210 L 400 209 L 400 209 L 401 208 L 402 207 L 402 207 L 403 206 L 403 206 L 403 205 L 403 205 L 404 204 L 405 204 L 405 203 L 405 203 L 406 202 L 406 201 L 407 201 L 408 200 L 409 200 L 410 199 L 412 199 L 415 198 L 415 198 L 416 197 L 416 196 L 416 196 L 416 195 L 417 195 L 419 194 L 419 194 L 422 193 L 422 193 L 423 192 L 425 192 L 427 191 L 427 190 L 431 190 L 431 189 L 432 189 L 433 188 L 433 188 L 439 187 L 440 187 L 441 186 L 445 185 L 448 185 L 452 184 L 454 184 L 454 183 L 455 183 L 456 182 L 456 182 L 459 181 L 462 181 L 464 180 L 465 179 L 466 179 L 468 178 L 468 178 L 468 177 L 468 177 L 469 176 L 469 176 L 469 175 L 471 174 L 471 174 L 471 173 L 472 173 L 478 172 L 485 172 L 485 171 L 485 171 L 489 170 L 492 170 L 493 169 L 493 168 L 495 168 L 496 167 L 496 167 L 496 166 L 496 166 L 497 165 L 497 165 L 497 164 L 498 163 L 498 163 L 499 162 L 502 162 L 502 161 L 502 161 L 502 160 L 503 160 L 503 159 L 503 159 L 503 158 L 503 157 L 503 157 L 503 156 L 503 156 L 504 155 L 509 155 L 512 154 L 512 154 L 513 153 L 520 152 L 527 152 L 529 151 L 533 151 L 536 150 L 545 150 L 547 149 L 550 149 L 551 148 L 551 148 L 551 147 L 551 146 L 551 146 L 551 145 L 551 145 L 553 144 L 554 144 L 565 143 L 568 143 L 572 142 L 580 141 L 586 141 L 590 140 L 594 140 L 600 139 L 600 139 L 612 138 L 624 138 L 624 137 L 633 137 L 633 136 L 640 135 L 642 135 L 645 134 L 645 134 L 646 133 L 646 133 L 650 132 L 652 132 L 655 131 L 660 130 L 661 130 L 663 129 L 663 129 L 668 128 L 672 128 L 673 127 L 678 127 L 683 126 L 684 126 L 684 125 L 686 124 L 688 124 L 689 123 L 693 123 L 696 122 L 700 122 L 703 121 L 703 121 L 710 120 L 711 119 L 715 119 L 720 118 L 721 118 L 727 117 L 728 117 L 728 116 L 730 116 L 731 115 L 734 115 L 734 114 L 737 113 L 741 113 L 742 112 L 742 112 L 743 111 L 753 111 L 753 110 L 754 110 L 754 109 L 754 108 L 755 108 L 756 107 L 756 107 L 757 106 L 759 106 L 760 105 L 761 105 L 762 104 L 763 104 L 764 103 L 765 102 L 765 102 L 766 101 L 766 101 L 766 100 L 767 100 L 767 99 L 768 99 L 768 98 L 769 97 L 771 97 L 771 96 L 772 96 L 773 95 L 773 95 L 775 94 L 777 94 L 777 93 L 778 92 L 780 92 L 781 91 L 782 91 L 782 90 L 783 90 L 785 89 L 785 89 L 786 88 L 786 88 L 787 87 L 787 86 L 787 86 L 788 85 L 788 85 L 790 84 L 794 84 L 795 83 L 797 83 L 797 82 L 800 82 L 802 81 L 803 80 L 806 80 L 809 79 L 813 79 L 816 78 L 817 78 L 817 77 L 817 77 L 817 76 L 818 75 L 819 75 L 819 74 L 820 74 L 820 73 L 820 73 L 821 72 L 823 72 L 824 71 L 824 71 L 826 70 L 826 69 L 829 69 L 830 68 L 830 68 L 831 67 L 832 67 L 836 66 L 839 66 L 844 65 L 844 64 L 844 64 L 845 63 L 848 63 L 851 62 L 851 62 L 851 61 L 851 61 L 852 60 L 854 60 L 859 59 L 859 58 L 859 58 L 859 57 L 862 57 L 863 56 L 863 56 L 863 55 L 863 55 L 867 54 L 872 53 L 872 53 L 877 52 L 877 52 L 879 51 L 883 51 L 885 50 L 888 50 L 891 49 L 893 49 L 895 48 L 895 47 L 895 47 L 896 46 L 896 46 L 896 45 L 897 45 L 898 44 L 898 44 L 899 43 L 899 42 L 899 42 L 901 41 L 902 41 L 903 40 L 909 40 L 910 39 L 916 39 L 919 38 L 920 38 L 921 37 L 922 36 L 925 36 L 926 35 L 927 35 L 927 34 L 928 34 L 928 33 L 928 33 L 928 32 L 928 31 L 930 31 L 930 30 L 930 30 L 930 29 L 930 29 L 931 28 L 931 28 L 932 27 L 933 27 L 933 26 L 934 25 L 934 25 L 936 24 L 937 24 L 937 23 L 937 23 L 938 22 L 940 22 L 943 21 L 943 20 L 943 20 L 944 19 L 944 19 L 945 18 L 945 18 L 945 17"></path><path d="M 945 346 L 945.000000 15.000000" stroke-width="2" /><path stroke-width="2" d="M 945 346 L 945.000000 15.000000"></path><path stroke-width="2" d="M 945 346 L 950 346" /><path stroke-width="2" d="M 945 346 L 950 346"></path><text xmlns="http://www.w3.org/2000/svg" x="955" y="352">0</text><path d="M 945 309 L 950 309" stroke-width="2" /><path stroke-width="2" d="M 945 309 L 950 309"></path><text xmlns="http://www.w3.org/2000/svg" x="955" y="315">67</text><path stroke-width="2" d="M 945 272 L 950 272" /><path stroke-width="2" d="M 945 272 L 950 272"></path><text xmlns="http://www.w3.org/2000/svg" x="955" y="278">134</text><path d="M 945 236 L 950 236" stroke-width="2" /><path stroke-width="2" d="M 945 236 L 950 236"></path><text xmlns="http://www.w3.org/2000/svg" x="955" y="242">200</text><path stroke-width="2" d="M 945 199 L 950 199" /><path stroke-width="2" d="M 945 199 L 950 199"></path><text xmlns="http://www.w3.org/2000/svg" x="955" y="205">267</text><path stroke-width="2" d="M 945 162 L 950 162" /><path stroke-width="2" d="M 945 162 L 950 162"></path><text xmlns="http://www.w3.org/2000/svg" x="955" y="168">334</text><path stroke-width="2" d="M 945 126 L 950 126" /><path stroke-width="2" d="M 945 126 L 950 126"></path><text xmlns="http://www.w3.org/2000/svg" x="955" y="132">400</text><path stroke-width="2" d="M 945 89 L 950 89" /><path stroke-width="2" d="M 945 89 L 950 89"></path><text xmlns="http://www.w3.org/2000/svg" x="955" y="95">467</text><path stroke-width="2" d="M 945 52 L 950 52" /><path stroke-width="2" d="M 945 52 L 950 52"></path><text xmlns="http://www.w3.org/2000/svg" x="955" y="58">534</text><path stroke-width="2" d="M 945 16 L 950 16" /><path stroke-width="2" d="M 945 16 L 950 16"></path><text xmlns="http://www.w3.org/2000/svg" x="955" y="22">600</text><text x="987" y="175" transform="rotate(90.00,987,175)" xmlns="http://www.w3.org/2000/svg">Stargazers</text><path stroke-width="2" d="M 57.000000 346.000000 L 945 346" /><path stroke-width="2" d="M 57.000000 346.000000 L 945 346"></path><path stroke-width="2" d="M 58 346 L 58 351" /><path stroke-width="2" d="M 58 346 L 58 351"></path><text xmlns="http://www.w3.org/2000/svg" x="25" y="368">2023-04-02</text><path stroke-width="2" d="M 157 346 L 157 351" /><path stroke-width="2" d="M 157 346 L 157 351"></path><text xmlns="http://www.w3.org/2000/svg" x="124" y="368">2023-05-30</text><path stroke-width="2" d="M 256 346 L 256 351" /><path stroke-width="2" d="M 256 346 L 256 351"></path><text y="368" xmlns="http://www.w3.org/2000/svg" x="223">2023-07-27</text><path stroke-width="2" d="M 354 346 L 354 351" /><path d="M 354 346 L 354 351" stroke-width="2"></path><text xmlns="http://www.w3.org/2000/svg" x="321" y="368">2023-09-22</text><path stroke-width="2" d="M 453 346 L 453 351" /><path d="M 453 346 L 453 351" stroke-width="2"></path><text xmlns="http://www.w3.org/2000/svg" x="420" y="368">2023-11-19</text><path stroke-width="2" d="M 551 346 L 551 351" /><path stroke-width="2" d="M 551 346 L 551 351"></path><text xmlns="http://www.w3.org/2000/svg" x="518" y="368">2024-01-16</text><path d="M 650 346 L 650 351" stroke-width="2" /><path stroke-width="2" d="M 650 346 L 650 351"></path><text xmlns="http://www.w3.org/2000/svg" x="617" y="368">2024-03-14</text><path stroke-width="2" d="M 748 346 L 748 351" /><path stroke-width="2" d="M 748 346 L 748 351"></path><text xmlns="http://www.w3.org/2000/svg" x="715" y="368">2024-05-10</text><path stroke-width="2" d="M 847 346 L 847 351" /><path stroke-width="2" d="M 847 346 L 847 351"></path><text xmlns="http://www.w3.org/2000/svg" x="814" y="368">2024-07-07</text><path stroke-width="2" d="M 945 346 L 945 351" /><path stroke-width="2" d="M 945 346 L 945 351"></path><text xmlns="http://www.w3.org/2000/svg" x="912" y="368">2024-09-03</text><text xmlns="http://www.w3.org/2000/svg" x="487" y="390">Time</text></svg>