<svg xmlns="http://www.w3.org/2000/svg" xmlns:xlink="http://www.w3.org/1999/xlink" width="1024px" height="400px"><style type="text/css">
path { fill: none; stroke: rgb(51,51,51); }
path.series { stroke: #6b63ff; }
rect.background { fill: rgb(255,255,255); stroke: none; }

text {
	stroke-width: 0;
	stroke: none;
	fill: rgba(51,51,51,1.0);
	font-size: 12.8px;
	font-family: 'Roboto Medium', sans-serif;
}
</style><rect height="400px" class="background" rx="8" x="0" y="0" width="1024px" /><rect x="0" y="0" width="1024px" height="400px" class="background" rx="8"></rect><path stroke-width="2" class="series" d="M 58 345 L 61 345 L 75 344 L 76 344 L 76 344 L 76 343 L 76 343 L 76 343 L 76 342 L 76 342 L 76 342 L 76 341 L 76 341 L 76 341 L 76 340 L 76 340 L 76 339 L 77 339 L 77 339 L 77 338 L 78 338 L 78 338 L 79 337 L 80 337 L 80 337 L 80 336 L 80 336 L 81 336 L 83 335 L 83 335 L 84 335 L 85 334 L 90 334 L 90 333 L 90 333 L 90 333 L 90 332 L 92 332 L 94 332 L 94 331 L 97 331 L 100 331 L 102 330 L 108 330 L 110 330 L 114 329 L 117 329 L 119 328 L 132 328 L 133 328 L 133 327 L 135 327 L 135 327 L 135 326 L 135 326 L 135 326 L 135 325 L 135 325 L 136 325 L 136 324 L 136 324 L 136 324 L 136 323 L 136 323 L 136 322 L 136 322 L 136 322 L 136 321 L 136 321 L 136 321 L 136 320 L 136 320 L 136 320 L 136 319 L 136 319 L 136 319 L 136 318 L 136 318 L 136 317 L 136 317 L 136 317 L 136 316 L 136 316 L 136 316 L 136 315 L 136 315 L 136 315 L 136 314 L 136 314 L 136 314 L 136 313 L 136 313 L 136 313 L 137 312 L 137 312 L 137 311 L 137 311 L 137 311 L 137 310 L 137 310 L 137 310 L 137 309 L 137 309 L 138 309 L 138 308 L 139 308 L 139 308 L 139 307 L 139 307 L 139 306 L 139 306 L 139 306 L 139 305 L 139 305 L 139 305 L 139 304 L 139 304 L 139 304 L 139 303 L 139 303 L 139 303 L 139 302 L 139 302 L 140 302 L 140 301 L 140 301 L 140 300 L 143 300 L 144 300 L 144 299 L 145 299 L 145 299 L 147 298 L 149 298 L 150 298 L 152 297 L 153 297 L 154 297 L 155 296 L 155 296 L 157 295 L 157 295 L 158 295 L 159 294 L 160 294 L 160 294 L 161 293 L 161 293 L 161 293 L 162 292 L 163 292 L 163 292 L 164 291 L 164 291 L 164 291 L 165 290 L 167 290 L 168 289 L 170 289 L 170 289 L 171 288 L 172 288 L 172 288 L 172 287 L 174 287 L 180 287 L 180 286 L 181 286 L 187 286 L 187 285 L 187 285 L 187 284 L 187 284 L 188 284 L 190 283 L 191 283 L 191 283 L 198 282 L 199 282 L 200 282 L 203 281 L 204 281 L 204 281 L 205 280 L 210 280 L 215 280 L 221 279 L 221 279 L 222 278 L 222 278 L 222 278 L 223 277 L 231 277 L 235 277 L 235 276 L 238 276 L 239 276 L 240 275 L 248 275 L 248 275 L 249 274 L 249 274 L 251 273 L 253 273 L 254 273 L 256 272 L 257 272 L 259 272 L 264 271 L 264 271 L 265 271 L 265 270 L 266 270 L 266 270 L 269 269 L 274 269 L 285 269 L 289 268 L 291 268 L 291 267 L 293 267 L 294 267 L 294 266 L 294 266 L 294 266 L 294 265 L 294 265 L 294 265 L 294 264 L 294 264 L 294 264 L 294 263 L 294 263 L 295 262 L 295 262 L 295 262 L 297 261 L 297 261 L 297 261 L 297 260 L 298 260 L 299 260 L 299 259 L 299 259 L 299 259 L 299 258 L 299 258 L 299 258 L 300 257 L 300 257 L 301 256 L 301 256 L 301 256 L 301 255 L 301 255 L 302 255 L 302 254 L 302 254 L 303 254 L 303 253 L 304 253 L 304 253 L 305 252 L 306 252 L 306 251 L 308 251 L 310 251 L 310 250 L 310 250 L 311 250 L 311 249 L 311 249 L 311 249 L 312 248 L 313 248 L 315 248 L 315 247 L 315 247 L 317 247 L 318 246 L 318 246 L 321 245 L 321 245 L 322 245 L 322 244 L 322 244 L 327 244 L 327 243 L 328 243 L 331 243 L 333 242 L 336 242 L 337 242 L 337 241 L 338 241 L 338 240 L 339 240 L 341 240 L 343 239 L 345 239 L 345 239 L 346 238 L 347 238 L 347 238 L 347 237 L 347 237 L 348 237 L 348 236 L 348 236 L 349 236 L 349 235 L 349 235 L 350 234 L 354 234 L 359 234 L 359 233 L 359 233 L 362 233 L 364 232 L 365 232 L 365 232 L 366 231 L 367 231 L 367 231 L 367 230 L 367 230 L 367 229 L 368 229 L 368 229 L 368 228 L 368 228 L 369 228 L 371 227 L 371 227 L 371 227 L 371 226 L 371 226 L 372 226 L 372 225 L 372 225 L 372 225 L 372 224 L 372 224 L 372 223 L 372 223 L 376 223 L 378 222 L 378 222 L 379 222 L 389 221 L 390 221 L 393 221 L 395 220 L 401 220 L 403 220 L 405 219 L 405 219 L 405 218 L 405 218 L 406 218 L 406 217 L 406 217 L 407 217 L 408 216 L 415 216 L 417 216 L 420 215 L 426 215 L 430 215 L 433 214 L 436 214 L 440 214 L 440 213 L 449 213 L 457 212 L 457 212 L 463 212 L 464 211 L 469 211 L 469 211 L 472 210 L 472 210 L 473 210 L 473 209 L 476 209 L 477 209 L 479 208 L 483 208 L 483 207 L 484 207 L 485 207 L 488 206 L 491 206 L 491 206 L 495 205 L 499 205 L 499 205 L 499 204 L 501 204 L 502 204 L 503 203 L 506 203 L 508 203 L 510 202 L 513 202 L 513 201 L 517 201 L 518 201 L 521 200 L 525 200 L 525 200 L 530 199 L 530 199 L 530 199 L 532 198 L 532 198 L 534 198 L 534 197 L 537 197 L 539 196 L 540 196 L 540 196 L 541 195 L 548 195 L 548 195 L 548 194 L 549 194 L 549 194 L 550 193 L 550 193 L 550 193 L 551 192 L 552 192 L 553 192 L 554 191 L 555 191 L 555 190 L 556 190 L 556 190 L 556 189 L 557 189 L 557 189 L 557 188 L 558 188 L 558 188 L 558 187 L 559 187 L 560 187 L 561 186 L 561 186 L 561 185 L 562 185 L 562 185 L 564 184 L 565 184 L 565 184 L 565 183 L 567 183 L 568 183 L 568 182 L 569 182 L 569 182 L 571 181 L 571 181 L 571 181 L 571 180 L 572 180 L 572 179 L 572 179 L 572 179 L 573 178 L 574 178 L 577 178 L 578 177 L 579 177 L 579 177 L 581 176 L 583 176 L 583 176 L 585 175 L 588 175 L 590 174 L 592 174 L 593 174 L 593 173 L 593 173 L 593 173 L 594 172 L 594 172 L 594 172 L 595 171 L 595 171 L 595 171 L 596 170 L 597 170 L 598 170 L 598 169 L 599 169 L 599 168 L 602 168 L 602 168 L 602 167 L 603 167 L 604 167 L 606 166 L 609 166 L 612 166 L 612 165 L 612 165 L 613 165 L 615 164 L 617 164 L 617 163 L 617 163 L 617 163 L 618 162 L 619 162 L 622 162 L 623 161 L 623 161 L 623 161 L 625 160 L 625 160 L 625 160 L 626 159 L 628 159 L 632 159 L 632 158 L 635 158 L 636 157 L 636 157 L 640 157 L 641 156 L 643 156 L 645 156 L 647 155 L 648 155 L 648 155 L 648 154 L 648 154 L 649 154 L 649 153 L 650 153 L 650 152 L 650 152 L 651 152 L 651 151 L 651 151 L 652 151 L 653 150 L 653 150 L 658 150 L 658 149 L 663 149 L 665 149 L 665 148 L 666 148 L 667 148 L 669 147 L 670 147 L 670 146 L 670 146 L 671 146 L 671 145 L 671 145 L 671 145 L 671 144 L 672 144 L 672 144 L 672 143 L 672 143 L 673 143 L 673 142 L 674 142 L 675 141 L 675 141 L 676 141 L 677 140 L 678 140 L 678 140 L 678 139 L 678 139 L 680 139 L 682 138 L 682 138 L 682 138 L 682 137 L 682 137 L 683 137 L 683 136 L 684 136 L 685 135 L 687 135 L 689 135 L 692 134 L 693 134 L 694 134 L 698 133 L 701 133 L 702 133 L 704 132 L 708 132 L 708 132 L 708 131 L 713 131 L 714 130 L 715 130 L 716 130 L 716 129 L 724 129 L 724 129 L 725 128 L 725 128 L 726 128 L 726 127 L 728 127 L 728 127 L 728 126 L 729 126 L 729 126 L 729 125 L 730 125 L 730 124 L 730 124 L 730 124 L 730 123 L 731 123 L 731 123 L 732 122 L 734 122 L 735 122 L 735 121 L 735 121 L 736 121 L 736 120 L 737 120 L 738 119 L 739 119 L 739 119 L 739 118 L 739 118 L 741 118 L 741 117 L 742 117 L 742 117 L 743 116 L 744 116 L 744 116 L 745 115 L 745 115 L 745 115 L 746 114 L 746 114 L 746 113 L 747 113 L 747 113 L 749 112 L 749 112 L 749 112 L 749 111 L 749 111 L 750 111 L 750 110 L 750 110 L 750 110 L 752 109 L 752 109 L 752 108 L 753 108 L 753 108 L 753 107 L 753 107 L 753 107 L 753 106 L 754 106 L 754 106 L 754 105 L 754 105 L 754 105 L 757 104 L 758 104 L 760 104 L 760 103 L 760 103 L 760 102 L 762 102 L 763 102 L 763 101 L 764 101 L 766 101 L 769 100 L 769 100 L 770 100 L 771 99 L 771 99 L 772 99 L 772 98 L 772 98 L 773 97 L 773 97 L 773 97 L 773 96 L 773 96 L 773 96 L 773 95 L 773 95 L 774 95 L 774 94 L 774 94 L 774 94 L 774 93 L 775 93 L 775 92 L 775 92 L 776 92 L 778 91 L 778 91 L 779 91 L 779 90 L 780 90 L 780 90 L 781 89 L 783 89 L 784 89 L 784 88 L 784 88 L 784 88 L 785 87 L 787 87 L 789 86 L 789 86 L 791 86 L 791 85 L 791 85 L 792 85 L 792 84 L 797 84 L 800 84 L 802 83 L 804 83 L 805 83 L 806 82 L 807 82 L 807 82 L 807 81 L 807 81 L 808 80 L 809 80 L 809 80 L 809 79 L 811 79 L 813 79 L 813 78 L 813 78 L 813 78 L 813 77 L 813 77 L 813 77 L 813 76 L 813 76 L 813 75 L 813 75 L 813 75 L 813 74 L 813 74 L 813 74 L 813 73 L 813 73 L 814 73 L 814 72 L 814 72 L 814 72 L 815 71 L 815 71 L 815 71 L 815 70 L 815 70 L 815 69 L 817 69 L 817 69 L 817 68 L 817 68 L 817 68 L 817 67 L 818 67 L 819 67 L 821 66 L 822 66 L 822 66 L 823 65 L 823 65 L 824 64 L 824 64 L 826 64 L 828 63 L 829 63 L 829 63 L 829 62 L 829 62 L 829 62 L 829 61 L 829 61 L 831 61 L 831 60 L 831 60 L 835 60 L 837 59 L 838 59 L 841 58 L 842 58 L 843 58 L 843 57 L 843 57 L 843 57 L 844 56 L 844 56 L 844 56 L 845 55 L 846 55 L 846 55 L 846 54 L 847 54 L 847 53 L 847 53 L 847 53 L 847 52 L 847 52 L 848 52 L 848 51 L 848 51 L 850 51 L 850 50 L 850 50 L 851 50 L 851 49 L 851 49 L 852 49 L 853 48 L 853 48 L 853 47 L 854 47 L 854 47 L 855 46 L 859 46 L 860 46 L 861 45 L 864 45 L 865 45 L 866 44 L 869 44 L 869 44 L 870 43 L 873 43 L 879 42 L 879 42 L 881 42 L 883 41 L 885 41 L 885 41 L 886 40 L 888 40 L 888 40 L 889 39 L 890 39 L 891 39 L 893 38 L 893 38 L 894 38 L 894 37 L 895 37 L 895 36 L 896 36 L 900 36 L 900 35 L 901 35 L 902 35 L 902 34 L 904 34 L 904 34 L 905 33 L 905 33 L 906 33 L 906 32 L 907 32 L 908 31 L 908 31 L 909 31 L 910 30 L 910 30 L 911 30 L 912 29 L 912 29 L 913 29 L 913 28 L 913 28 L 914 28 L 914 27 L 914 27 L 914 27 L 914 26 L 915 26 L 916 25 L 918 25 L 919 25 L 919 24 L 920 24 L 923 24 L 924 23 L 925 23 L 926 23 L 929 22 L 931 22 L 933 22 L 935 21 L 936 21 L 936 20 L 938 20 L 941 20 L 941 19 L 942 19 L 943 19 L 943 18 L 943 18 L 943 18 L 943 17 L 943 17 L 944 17 L 945 16" /><path stroke-width="2" class="series" d="M 58 345 L 61 345 L 75 344 L 76 344 L 76 344 L 76 343 L 76 343 L 76 343 L 76 342 L 76 342 L 76 342 L 76 341 L 76 341 L 76 341 L 76 340 L 76 340 L 76 339 L 77 339 L 77 339 L 77 338 L 78 338 L 78 338 L 79 337 L 80 337 L 80 337 L 80 336 L 80 336 L 81 336 L 83 335 L 83 335 L 84 335 L 85 334 L 90 334 L 90 333 L 90 333 L 90 333 L 90 332 L 92 332 L 94 332 L 94 331 L 97 331 L 100 331 L 102 330 L 108 330 L 110 330 L 114 329 L 117 329 L 119 328 L 132 328 L 133 328 L 133 327 L 135 327 L 135 327 L 135 326 L 135 326 L 135 326 L 135 325 L 135 325 L 136 325 L 136 324 L 136 324 L 136 324 L 136 323 L 136 323 L 136 322 L 136 322 L 136 322 L 136 321 L 136 321 L 136 321 L 136 320 L 136 320 L 136 320 L 136 319 L 136 319 L 136 319 L 136 318 L 136 318 L 136 317 L 136 317 L 136 317 L 136 316 L 136 316 L 136 316 L 136 315 L 136 315 L 136 315 L 136 314 L 136 314 L 136 314 L 136 313 L 136 313 L 136 313 L 137 312 L 137 312 L 137 311 L 137 311 L 137 311 L 137 310 L 137 310 L 137 310 L 137 309 L 137 309 L 138 309 L 138 308 L 139 308 L 139 308 L 139 307 L 139 307 L 139 306 L 139 306 L 139 306 L 139 305 L 139 305 L 139 305 L 139 304 L 139 304 L 139 304 L 139 303 L 139 303 L 139 303 L 139 302 L 139 302 L 140 302 L 140 301 L 140 301 L 140 300 L 143 300 L 144 300 L 144 299 L 145 299 L 145 299 L 147 298 L 149 298 L 150 298 L 152 297 L 153 297 L 154 297 L 155 296 L 155 296 L 157 295 L 157 295 L 158 295 L 159 294 L 160 294 L 160 294 L 161 293 L 161 293 L 161 293 L 162 292 L 163 292 L 163 292 L 164 291 L 164 291 L 164 291 L 165 290 L 167 290 L 168 289 L 170 289 L 170 289 L 171 288 L 172 288 L 172 288 L 172 287 L 174 287 L 180 287 L 180 286 L 181 286 L 187 286 L 187 285 L 187 285 L 187 284 L 187 284 L 188 284 L 190 283 L 191 283 L 191 283 L 198 282 L 199 282 L 200 282 L 203 281 L 204 281 L 204 281 L 205 280 L 210 280 L 215 280 L 221 279 L 221 279 L 222 278 L 222 278 L 222 278 L 223 277 L 231 277 L 235 277 L 235 276 L 238 276 L 239 276 L 240 275 L 248 275 L 248 275 L 249 274 L 249 274 L 251 273 L 253 273 L 254 273 L 256 272 L 257 272 L 259 272 L 264 271 L 264 271 L 265 271 L 265 270 L 266 270 L 266 270 L 269 269 L 274 269 L 285 269 L 289 268 L 291 268 L 291 267 L 293 267 L 294 267 L 294 266 L 294 266 L 294 266 L 294 265 L 294 265 L 294 265 L 294 264 L 294 264 L 294 264 L 294 263 L 294 263 L 295 262 L 295 262 L 295 262 L 297 261 L 297 261 L 297 261 L 297 260 L 298 260 L 299 260 L 299 259 L 299 259 L 299 259 L 299 258 L 299 258 L 299 258 L 300 257 L 300 257 L 301 256 L 301 256 L 301 256 L 301 255 L 301 255 L 302 255 L 302 254 L 302 254 L 303 254 L 303 253 L 304 253 L 304 253 L 305 252 L 306 252 L 306 251 L 308 251 L 310 251 L 310 250 L 310 250 L 311 250 L 311 249 L 311 249 L 311 249 L 312 248 L 313 248 L 315 248 L 315 247 L 315 247 L 317 247 L 318 246 L 318 246 L 321 245 L 321 245 L 322 245 L 322 244 L 322 244 L 327 244 L 327 243 L 328 243 L 331 243 L 333 242 L 336 242 L 337 242 L 337 241 L 338 241 L 338 240 L 339 240 L 341 240 L 343 239 L 345 239 L 345 239 L 346 238 L 347 238 L 347 238 L 347 237 L 347 237 L 348 237 L 348 236 L 348 236 L 349 236 L 349 235 L 349 235 L 350 234 L 354 234 L 359 234 L 359 233 L 359 233 L 362 233 L 364 232 L 365 232 L 365 232 L 366 231 L 367 231 L 367 231 L 367 230 L 367 230 L 367 229 L 368 229 L 368 229 L 368 228 L 368 228 L 369 228 L 371 227 L 371 227 L 371 227 L 371 226 L 371 226 L 372 226 L 372 225 L 372 225 L 372 225 L 372 224 L 372 224 L 372 223 L 372 223 L 376 223 L 378 222 L 378 222 L 379 222 L 389 221 L 390 221 L 393 221 L 395 220 L 401 220 L 403 220 L 405 219 L 405 219 L 405 218 L 405 218 L 406 218 L 406 217 L 406 217 L 407 217 L 408 216 L 415 216 L 417 216 L 420 215 L 426 215 L 430 215 L 433 214 L 436 214 L 440 214 L 440 213 L 449 213 L 457 212 L 457 212 L 463 212 L 464 211 L 469 211 L 469 211 L 472 210 L 472 210 L 473 210 L 473 209 L 476 209 L 477 209 L 479 208 L 483 208 L 483 207 L 484 207 L 485 207 L 488 206 L 491 206 L 491 206 L 495 205 L 499 205 L 499 205 L 499 204 L 501 204 L 502 204 L 503 203 L 506 203 L 508 203 L 510 202 L 513 202 L 513 201 L 517 201 L 518 201 L 521 200 L 525 200 L 525 200 L 530 199 L 530 199 L 530 199 L 532 198 L 532 198 L 534 198 L 534 197 L 537 197 L 539 196 L 540 196 L 540 196 L 541 195 L 548 195 L 548 195 L 548 194 L 549 194 L 549 194 L 550 193 L 550 193 L 550 193 L 551 192 L 552 192 L 553 192 L 554 191 L 555 191 L 555 190 L 556 190 L 556 190 L 556 189 L 557 189 L 557 189 L 557 188 L 558 188 L 558 188 L 558 187 L 559 187 L 560 187 L 561 186 L 561 186 L 561 185 L 562 185 L 562 185 L 564 184 L 565 184 L 565 184 L 565 183 L 567 183 L 568 183 L 568 182 L 569 182 L 569 182 L 571 181 L 571 181 L 571 181 L 571 180 L 572 180 L 572 179 L 572 179 L 572 179 L 573 178 L 574 178 L 577 178 L 578 177 L 579 177 L 579 177 L 581 176 L 583 176 L 583 176 L 585 175 L 588 175 L 590 174 L 592 174 L 593 174 L 593 173 L 593 173 L 593 173 L 594 172 L 594 172 L 594 172 L 595 171 L 595 171 L 595 171 L 596 170 L 597 170 L 598 170 L 598 169 L 599 169 L 599 168 L 602 168 L 602 168 L 602 167 L 603 167 L 604 167 L 606 166 L 609 166 L 612 166 L 612 165 L 612 165 L 613 165 L 615 164 L 617 164 L 617 163 L 617 163 L 617 163 L 618 162 L 619 162 L 622 162 L 623 161 L 623 161 L 623 161 L 625 160 L 625 160 L 625 160 L 626 159 L 628 159 L 632 159 L 632 158 L 635 158 L 636 157 L 636 157 L 640 157 L 641 156 L 643 156 L 645 156 L 647 155 L 648 155 L 648 155 L 648 154 L 648 154 L 649 154 L 649 153 L 650 153 L 650 152 L 650 152 L 651 152 L 651 151 L 651 151 L 652 151 L 653 150 L 653 150 L 658 150 L 658 149 L 663 149 L 665 149 L 665 148 L 666 148 L 667 148 L 669 147 L 670 147 L 670 146 L 670 146 L 671 146 L 671 145 L 671 145 L 671 145 L 671 144 L 672 144 L 672 144 L 672 143 L 672 143 L 673 143 L 673 142 L 674 142 L 675 141 L 675 141 L 676 141 L 677 140 L 678 140 L 678 140 L 678 139 L 678 139 L 680 139 L 682 138 L 682 138 L 682 138 L 682 137 L 682 137 L 683 137 L 683 136 L 684 136 L 685 135 L 687 135 L 689 135 L 692 134 L 693 134 L 694 134 L 698 133 L 701 133 L 702 133 L 704 132 L 708 132 L 708 132 L 708 131 L 713 131 L 714 130 L 715 130 L 716 130 L 716 129 L 724 129 L 724 129 L 725 128 L 725 128 L 726 128 L 726 127 L 728 127 L 728 127 L 728 126 L 729 126 L 729 126 L 729 125 L 730 125 L 730 124 L 730 124 L 730 124 L 730 123 L 731 123 L 731 123 L 732 122 L 734 122 L 735 122 L 735 121 L 735 121 L 736 121 L 736 120 L 737 120 L 738 119 L 739 119 L 739 119 L 739 118 L 739 118 L 741 118 L 741 117 L 742 117 L 742 117 L 743 116 L 744 116 L 744 116 L 745 115 L 745 115 L 745 115 L 746 114 L 746 114 L 746 113 L 747 113 L 747 113 L 749 112 L 749 112 L 749 112 L 749 111 L 749 111 L 750 111 L 750 110 L 750 110 L 750 110 L 752 109 L 752 109 L 752 108 L 753 108 L 753 108 L 753 107 L 753 107 L 753 107 L 753 106 L 754 106 L 754 106 L 754 105 L 754 105 L 754 105 L 757 104 L 758 104 L 760 104 L 760 103 L 760 103 L 760 102 L 762 102 L 763 102 L 763 101 L 764 101 L 766 101 L 769 100 L 769 100 L 770 100 L 771 99 L 771 99 L 772 99 L 772 98 L 772 98 L 773 97 L 773 97 L 773 97 L 773 96 L 773 96 L 773 96 L 773 95 L 773 95 L 774 95 L 774 94 L 774 94 L 774 94 L 774 93 L 775 93 L 775 92 L 775 92 L 776 92 L 778 91 L 778 91 L 779 91 L 779 90 L 780 90 L 780 90 L 781 89 L 783 89 L 784 89 L 784 88 L 784 88 L 784 88 L 785 87 L 787 87 L 789 86 L 789 86 L 791 86 L 791 85 L 791 85 L 792 85 L 792 84 L 797 84 L 800 84 L 802 83 L 804 83 L 805 83 L 806 82 L 807 82 L 807 82 L 807 81 L 807 81 L 808 80 L 809 80 L 809 80 L 809 79 L 811 79 L 813 79 L 813 78 L 813 78 L 813 78 L 813 77 L 813 77 L 813 77 L 813 76 L 813 76 L 813 75 L 813 75 L 813 75 L 813 74 L 813 74 L 813 74 L 813 73 L 813 73 L 814 73 L 814 72 L 814 72 L 814 72 L 815 71 L 815 71 L 815 71 L 815 70 L 815 70 L 815 69 L 817 69 L 817 69 L 817 68 L 817 68 L 817 68 L 817 67 L 818 67 L 819 67 L 821 66 L 822 66 L 822 66 L 823 65 L 823 65 L 824 64 L 824 64 L 826 64 L 828 63 L 829 63 L 829 63 L 829 62 L 829 62 L 829 62 L 829 61 L 829 61 L 831 61 L 831 60 L 831 60 L 835 60 L 837 59 L 838 59 L 841 58 L 842 58 L 843 58 L 843 57 L 843 57 L 843 57 L 844 56 L 844 56 L 844 56 L 845 55 L 846 55 L 846 55 L 846 54 L 847 54 L 847 53 L 847 53 L 847 53 L 847 52 L 847 52 L 848 52 L 848 51 L 848 51 L 850 51 L 850 50 L 850 50 L 851 50 L 851 49 L 851 49 L 852 49 L 853 48 L 853 48 L 853 47 L 854 47 L 854 47 L 855 46 L 859 46 L 860 46 L 861 45 L 864 45 L 865 45 L 866 44 L 869 44 L 869 44 L 870 43 L 873 43 L 879 42 L 879 42 L 881 42 L 883 41 L 885 41 L 885 41 L 886 40 L 888 40 L 888 40 L 889 39 L 890 39 L 891 39 L 893 38 L 893 38 L 894 38 L 894 37 L 895 37 L 895 36 L 896 36 L 900 36 L 900 35 L 901 35 L 902 35 L 902 34 L 904 34 L 904 34 L 905 33 L 905 33 L 906 33 L 906 32 L 907 32 L 908 31 L 908 31 L 909 31 L 910 30 L 910 30 L 911 30 L 912 29 L 912 29 L 913 29 L 913 28 L 913 28 L 914 28 L 914 27 L 914 27 L 914 27 L 914 26 L 915 26 L 916 25 L 918 25 L 919 25 L 919 24 L 920 24 L 923 24 L 924 23 L 925 23 L 926 23 L 929 22 L 931 22 L 933 22 L 935 21 L 936 21 L 936 20 L 938 20 L 941 20 L 941 19 L 942 19 L 943 19 L 943 18 L 943 18 L 943 18 L 943 17 L 943 17 L 944 17 L 945 16"></path><path stroke-width="2" d="M 945 346 L 945.000000 15.000000" /><path stroke-width="2" d="M 945 346 L 945.000000 15.000000"></path><path d="M 945 346 L 950 346" stroke-width="2" /><path stroke-width="2" d="M 945 346 L 950 346"></path><text x="955" y="352" xmlns="http://www.w3.org/2000/svg">0</text><path stroke-width="2" d="M 945 309 L 950 309" /><path stroke-width="2" d="M 945 309 L 950 309"></path><text xmlns="http://www.w3.org/2000/svg" x="955" y="315">104</text><path d="M 945 272 L 950 272" stroke-width="2" /><path stroke-width="2" d="M 945 272 L 950 272"></path><text xmlns="http://www.w3.org/2000/svg" x="955" y="278">207</text><path stroke-width="2" d="M 945 236 L 950 236" /><path stroke-width="2" d="M 945 236 L 950 236"></path><text xmlns="http://www.w3.org/2000/svg" x="955" y="242">310</text><path stroke-width="2" d="M 945 199 L 950 199" /><path stroke-width="2" d="M 945 199 L 950 199"></path><text x="955" y="205" xmlns="http://www.w3.org/2000/svg">414</text><path stroke-width="2" d="M 945 162 L 950 162" /><path d="M 945 162 L 950 162" stroke-width="2"></path><text x="955" y="168" xmlns="http://www.w3.org/2000/svg">517</text><path stroke-width="2" d="M 945 126 L 950 126" /><path stroke-width="2" d="M 945 126 L 950 126"></path><text xmlns="http://www.w3.org/2000/svg" x="955" y="132">620</text><path stroke-width="2" d="M 945 89 L 950 89" /><path stroke-width="2" d="M 945 89 L 950 89"></path><text x="955" y="95" xmlns="http://www.w3.org/2000/svg">724</text><path stroke-width="2" d="M 945 52 L 950 52" /><path stroke-width="2" d="M 945 52 L 950 52"></path><text xmlns="http://www.w3.org/2000/svg" x="955" y="58">827</text><path stroke-width="2" d="M 945 16 L 950 16" /><path stroke-width="2" d="M 945 16 L 950 16"></path><text xmlns="http://www.w3.org/2000/svg" x="955" y="22">930</text><text y="175" transform="rotate(90.00,987,175)" xmlns="http://www.w3.org/2000/svg" x="987">Stargazers</text><path stroke-width="2" d="M 57.000000 346.000000 L 945 346" /><path stroke-width="2" d="M 57.000000 346.000000 L 945 346"></path><path stroke-width="2" d="M 58 346 L 58 351" /><path stroke-width="2" d="M 58 346 L 58 351"></path><text x="25" y="368" xmlns="http://www.w3.org/2000/svg">2023-04-02</text><path d="M 157 346 L 157 351" stroke-width="2" /><path stroke-width="2" d="M 157 346 L 157 351"></path><text y="368" xmlns="http://www.w3.org/2000/svg" x="124">2023-06-23</text><path stroke-width="2" d="M 256 346 L 256 351" /><path d="M 256 346 L 256 351" stroke-width="2"></path><text xmlns="http://www.w3.org/2000/svg" x="223" y="368">2023-09-13</text><path stroke-width="2" d="M 354 346 L 354 351" /><path d="M 354 346 L 354 351" stroke-width="2"></path><text xmlns="http://www.w3.org/2000/svg" x="321" y="368">2023-12-04</text><path stroke-width="2" d="M 453 346 L 453 351" /><path stroke-width="2" d="M 453 346 L 453 351"></path><text xmlns="http://www.w3.org/2000/svg" x="420" y="368">2024-02-24</text><path stroke-width="2" d="M 551 346 L 551 351" /><path stroke-width="2" d="M 551 346 L 551 351"></path><text xmlns="http://www.w3.org/2000/svg" x="518" y="368">2024-05-16</text><path stroke-width="2" d="M 650 346 L 650 351" /><path stroke-width="2" d="M 650 346 L 650 351"></path><text x="617" y="368" xmlns="http://www.w3.org/2000/svg">2024-08-06</text><path stroke-width="2" d="M 748 346 L 748 351" /><path stroke-width="2" d="M 748 346 L 748 351"></path><text xmlns="http://www.w3.org/2000/svg" x="715" y="368">2024-10-27</text><path d="M 847 346 L 847 351" stroke-width="2" /><path stroke-width="2" d="M 847 346 L 847 351"></path><text xmlns="http://www.w3.org/2000/svg" x="814" y="368">2025-01-17</text><path stroke-width="2" d="M 945 346 L 945 351" /><path stroke-width="2" d="M 945 346 L 945 351"></path><text xmlns="http://www.w3.org/2000/svg" x="912" y="368">2025-04-09</text><text xmlns="http://www.w3.org/2000/svg" x="487" y="390">Time</text></svg>