<svg width="1024px" height="400px" xmlns="http://www.w3.org/2000/svg" xmlns:xlink="http://www.w3.org/1999/xlink"><style type="text/css">
path { fill: none; stroke: rgb(51,51,51); }
path.series { stroke: #6b63ff; }
rect.background { fill: rgb(255,255,255); stroke: none; }

text {
	stroke-width: 0;
	stroke: none;
	fill: rgba(51,51,51,1.0);
	font-size: 12.8px;
	font-family: 'Roboto Medium', sans-serif;
}
</style><rect rx="8" x="0" y="0" width="1024px" height="400px" class="background" /><rect width="1024px" height="400px" class="background" rx="8" x="0" y="0"></rect><path stroke-width="2" class="series" d="M 58 345 L 61 345 L 74 344 L 75 344 L 75 344 L 75 343 L 75 343 L 75 343 L 75 342 L 75 342 L 75 342 L 75 341 L 75 341 L 75 341 L 75 340 L 75 340 L 76 340 L 76 339 L 76 339 L 77 339 L 77 338 L 77 338 L 78 338 L 79 337 L 79 337 L 79 337 L 79 336 L 80 336 L 82 336 L 82 335 L 83 335 L 84 335 L 88 334 L 88 334 L 88 333 L 88 333 L 88 333 L 91 332 L 92 332 L 93 332 L 95 331 L 98 331 L 100 331 L 106 330 L 108 330 L 111 330 L 115 329 L 116 329 L 129 329 L 130 328 L 130 328 L 132 328 L 132 327 L 132 327 L 132 327 L 132 326 L 132 326 L 132 326 L 132 325 L 132 325 L 132 325 L 132 324 L 132 324 L 132 324 L 133 323 L 133 323 L 133 322 L 133 322 L 133 322 L 133 321 L 133 321 L 133 321 L 133 320 L 133 320 L 133 320 L 133 319 L 133 319 L 133 319 L 133 318 L 133 318 L 133 318 L 133 317 L 133 317 L 133 317 L 133 316 L 133 316 L 133 316 L 133 315 L 133 315 L 133 315 L 133 314 L 133 314 L 133 314 L 133 313 L 133 313 L 133 313 L 133 312 L 133 312 L 133 311 L 134 311 L 134 311 L 134 310 L 134 310 L 134 310 L 134 309 L 135 309 L 135 309 L 135 308 L 135 308 L 135 308 L 135 307 L 135 307 L 135 307 L 135 306 L 135 306 L 135 306 L 135 305 L 135 305 L 135 305 L 135 304 L 135 304 L 135 304 L 136 303 L 136 303 L 137 303 L 137 302 L 137 302 L 140 302 L 140 301 L 140 301 L 141 300 L 141 300 L 143 300 L 145 299 L 146 299 L 148 299 L 149 298 L 150 298 L 150 298 L 151 297 L 153 297 L 153 297 L 154 296 L 155 296 L 155 296 L 156 295 L 156 295 L 156 295 L 157 294 L 158 294 L 159 294 L 159 293 L 159 293 L 160 293 L 160 292 L 160 292 L 162 292 L 163 291 L 165 291 L 166 291 L 166 290 L 167 290 L 167 289 L 167 289 L 169 289 L 174 288 L 175 288 L 176 288 L 181 287 L 181 287 L 181 287 L 181 286 L 181 286 L 182 286 L 184 285 L 185 285 L 185 285 L 191 284 L 193 284 L 194 284 L 196 283 L 198 283 L 198 283 L 198 282 L 203 282 L 208 282 L 214 281 L 214 281 L 214 281 L 215 280 L 215 280 L 216 280 L 224 279 L 227 279 L 228 278 L 230 278 L 231 278 L 232 277 L 240 277 L 240 277 L 241 276 L 241 276 L 242 276 L 244 275 L 245 275 L 247 275 L 248 274 L 250 274 L 255 274 L 255 273 L 256 273 L 256 273 L 256 272 L 257 272 L 259 272 L 264 271 L 275 271 L 279 271 L 281 270 L 281 270 L 282 270 L 284 269 L 284 269 L 284 269 L 284 268 L 284 268 L 284 267 L 284 267 L 284 267 L 284 266 L 284 266 L 284 266 L 284 265 L 284 265 L 284 265 L 285 264 L 287 264 L 287 264 L 287 263 L 287 263 L 288 263 L 288 262 L 288 262 L 288 262 L 288 261 L 288 261 L 288 261 L 289 260 L 290 260 L 290 260 L 290 259 L 290 259 L 291 259 L 291 258 L 291 258 L 292 258 L 292 257 L 292 257 L 293 256 L 293 256 L 293 256 L 294 255 L 295 255 L 295 255 L 297 254 L 299 254 L 299 254 L 299 253 L 300 253 L 300 253 L 300 252 L 300 252 L 301 252 L 302 251 L 303 251 L 303 251 L 304 250 L 306 250 L 307 250 L 307 249 L 309 249 L 310 249 L 310 248 L 311 248 L 311 248 L 315 247 L 316 247 L 316 247 L 319 246 L 321 246 L 324 245 L 325 245 L 325 245 L 326 244 L 326 244 L 326 244 L 329 243 L 331 243 L 332 243 L 332 242 L 333 242 L 334 242 L 334 241 L 334 241 L 334 241 L 335 240 L 335 240 L 335 240 L 336 239 L 336 239 L 336 239 L 337 238 L 341 238 L 346 238 L 346 237 L 346 237 L 349 237 L 350 236 L 351 236 L 351 236 L 352 235 L 354 235 L 354 234 L 354 234 L 354 234 L 354 233 L 354 233 L 354 233 L 354 232 L 354 232 L 355 232 L 357 231 L 357 231 L 357 231 L 357 230 L 358 230 L 358 230 L 358 229 L 358 229 L 358 229 L 358 228 L 358 228 L 358 228 L 358 227 L 362 227 L 364 227 L 364 226 L 365 226 L 374 226 L 375 225 L 378 225 L 380 225 L 388 224 L 390 224 L 390 223 L 390 223 L 390 223 L 390 222 L 390 222 L 390 222 L 392 221 L 393 221 L 400 221 L 402 220 L 404 220 L 410 220 L 414 219 L 417 219 L 419 219 L 423 218 L 423 218 L 431 218 L 440 217 L 440 217 L 446 217 L 446 216 L 450 216 L 451 216 L 454 215 L 454 215 L 454 215 L 455 214 L 457 214 L 458 214 L 460 213 L 464 213 L 464 212 L 465 212 L 466 212 L 469 211 L 472 211 L 472 211 L 476 210 L 479 210 L 480 210 L 480 209 L 481 209 L 482 209 L 483 208 L 486 208 L 488 208 L 491 207 L 493 207 L 493 207 L 497 206 L 498 206 L 500 206 L 504 205 L 505 205 L 509 205 L 510 204 L 510 204 L 511 204 L 511 203 L 513 203 L 514 203 L 515 202 L 518 202 L 519 201 L 519 201 L 519 201 L 526 200 L 526 200 L 527 200 L 527 199 L 527 199 L 528 199 L 528 198 L 529 198 L 529 198 L 531 197 L 531 197 L 532 197 L 533 196 L 533 196 L 534 196 L 534 195 L 534 195 L 535 195 L 535 194 L 535 194 L 536 194 L 536 193 L 536 193 L 537 193 L 537 192 L 539 192 L 539 192 L 539 191 L 540 191 L 540 190 L 541 190 L 542 190 L 543 189 L 543 189 L 544 189 L 545 188 L 546 188 L 546 188 L 546 187 L 548 187 L 548 187 L 548 186 L 549 186 L 549 186 L 549 185 L 549 185 L 550 185 L 550 184 L 551 184 L 554 184 L 555 183 L 556 183 L 556 183 L 558 182 L 560 182 L 560 182 L 562 181 L 564 181 L 566 181 L 569 180 L 569 180 L 569 179 L 570 179 L 570 179 L 570 178 L 571 178 L 571 178 L 572 177 L 572 177 L 572 177 L 572 176 L 573 176 L 574 176 L 574 175 L 575 175 L 575 175 L 578 174 L 578 174 L 578 174 L 579 173 L 580 173 L 582 173 L 588 172 L 588 172 L 588 172 L 588 171 L 590 171 L 592 171 L 593 170 L 593 170 L 593 170 L 593 169 L 595 169 L 598 168 L 598 168 L 598 168 L 598 167 L 600 167 L 600 167 L 600 166 L 601 166 L 603 166 L 606 165 L 606 165 L 610 165 L 610 164 L 611 164 L 614 164 L 615 163 L 618 163 L 619 163 L 621 162 L 622 162 L 622 162 L 622 161 L 622 161 L 623 161 L 623 160 L 623 160 L 624 160 L 624 159 L 625 159 L 625 159 L 625 158 L 626 158 L 627 157 L 627 157 L 632 157 L 632 156 L 636 156 L 639 156 L 639 155 L 639 155 L 640 155 L 642 154 L 643 154 L 644 154 L 644 153 L 644 153 L 644 153 L 644 152 L 644 152 L 644 152 L 645 151 L 645 151 L 645 151 L 645 150 L 646 150 L 646 150 L 647 149 L 648 149 L 648 149 L 649 148 L 649 148 L 650 148 L 650 147 L 650 147 L 651 146 L 652 146 L 655 146 L 655 145 L 655 145 L 655 145 L 655 144 L 656 144 L 656 144 L 656 143 L 657 143 L 659 143 L 661 142 L 664 142 L 665 142 L 666 141 L 670 141 L 673 141 L 673 140 L 676 140 L 680 140 L 680 139 L 680 139 L 684 139 L 685 138 L 686 138 L 687 138 L 687 137 L 695 137 L 695 137 L 696 136 L 696 136 L 697 135 L 697 135 L 698 135 L 698 134 L 699 134 L 699 134 L 700 133 L 700 133 L 700 133 L 701 132 L 701 132 L 701 132 L 701 131 L 701 131 L 701 131 L 703 130 L 704 130 L 705 130 L 705 129 L 705 129 L 706 129 L 707 128 L 707 128 L 708 128 L 709 127 L 709 127 L 709 127 L 709 126 L 711 126 L 711 126 L 712 125 L 712 125 L 713 124 L 714 124 L 714 124 L 714 123 L 715 123 L 715 123 L 715 122 L 716 122 L 716 122 L 717 121 L 717 121 L 718 121 L 719 120 L 719 120 L 719 120 L 719 119 L 719 119 L 720 119 L 720 118 L 720 118 L 721 118 L 721 117 L 721 117 L 722 117 L 722 116 L 722 116 L 723 116 L 723 115 L 723 115 L 723 115 L 723 114 L 724 114 L 724 113 L 724 113 L 726 113 L 727 112 L 729 112 L 729 112 L 729 111 L 729 111 L 731 111 L 732 110 L 732 110 L 733 110 L 735 109 L 737 109 L 737 109 L 739 108 L 740 108 L 740 108 L 741 107 L 741 107 L 741 107 L 741 106 L 741 106 L 741 106 L 741 105 L 741 105 L 742 105 L 742 104 L 742 104 L 742 104 L 742 103 L 743 103 L 743 102 L 743 102 L 744 102 L 745 101 L 746 101 L 746 101 L 747 100 L 747 100 L 748 100 L 748 99 L 749 99 L 751 99 L 752 98 L 752 98 L 752 98 L 752 97 L 753 97 L 755 97 L 757 96 L 757 96 L 759 96 L 759 95 L 759 95 L 759 95 L 760 94 L 765 94 L 767 94 L 770 93 L 771 93 L 772 92 L 773 92 L 774 92 L 774 91 L 774 91 L 774 91 L 775 90 L 776 90 L 776 90 L 776 89 L 778 89 L 780 89 L 780 88 L 780 88 L 780 88 L 780 87 L 780 87 L 780 87 L 780 86 L 780 86 L 780 86 L 780 85 L 780 85 L 780 85 L 780 84 L 780 84 L 780 84 L 780 83 L 781 83 L 781 83 L 781 82 L 781 82 L 781 82 L 781 81 L 781 81 L 782 80 L 782 80 L 782 80 L 783 79 L 783 79 L 783 79 L 783 78 L 783 78 L 783 78 L 784 77 L 786 77 L 788 77 L 788 76 L 788 76 L 789 76 L 789 75 L 790 75 L 791 75 L 793 74 L 794 74 L 795 74 L 795 73 L 795 73 L 795 73 L 795 72 L 795 72 L 795 72 L 797 71 L 797 71 L 797 71 L 801 70 L 803 70 L 804 69 L 806 69 L 807 69 L 808 68 L 808 68 L 808 68 L 809 67 L 809 67 L 809 67 L 810 66 L 811 66 L 811 66 L 811 65 L 812 65 L 812 65 L 812 64 L 812 64 L 812 64 L 812 63 L 812 63 L 813 63 L 813 62 L 813 62 L 815 62 L 815 61 L 815 61 L 816 61 L 816 60 L 816 60 L 817 60 L 818 59 L 818 59 L 818 58 L 819 58 L 819 58 L 820 57 L 824 57 L 824 57 L 826 56 L 828 56 L 829 56 L 830 55 L 833 55 L 834 55 L 834 54 L 837 54 L 842 54 L 843 53 L 845 53 L 846 53 L 849 52 L 849 52 L 849 52 L 851 51 L 852 51 L 852 51 L 853 50 L 855 50 L 856 50 L 857 49 L 857 49 L 857 49 L 858 48 L 858 48 L 859 47 L 862 47 L 863 47 L 864 46 L 865 46 L 865 46 L 866 45 L 867 45 L 868 45 L 868 44 L 868 44 L 869 44 L 869 43 L 871 43 L 871 43 L 871 42 L 872 42 L 873 42 L 873 41 L 874 41 L 875 41 L 875 40 L 875 40 L 876 40 L 876 39 L 876 39 L 876 39 L 877 38 L 877 38 L 877 38 L 880 37 L 881 37 L 881 36 L 882 36 L 885 36 L 885 35 L 887 35 L 888 35 L 890 34 L 892 34 L 895 34 L 896 33 L 897 33 L 898 33 L 899 32 L 902 32 L 903 32 L 904 31 L 904 31 L 904 31 L 904 30 L 904 30 L 904 30 L 905 29 L 906 29 L 907 29 L 908 28 L 908 28 L 909 28 L 915 27 L 916 27 L 917 27 L 919 26 L 920 26 L 921 25 L 922 25 L 922 25 L 922 24 L 923 24 L 924 24 L 924 23 L 925 23 L 925 23 L 926 22 L 926 22 L 927 22 L 927 21 L 928 21 L 929 21 L 932 20 L 932 20 L 937 20 L 938 19 L 938 19 L 940 19 L 941 18 L 941 18 L 941 18 L 941 17 L 944 17 L 945 17" /><path d="M 58 345 L 61 345 L 74 344 L 75 344 L 75 344 L 75 343 L 75 343 L 75 343 L 75 342 L 75 342 L 75 342 L 75 341 L 75 341 L 75 341 L 75 340 L 75 340 L 76 340 L 76 339 L 76 339 L 77 339 L 77 338 L 77 338 L 78 338 L 79 337 L 79 337 L 79 337 L 79 336 L 80 336 L 82 336 L 82 335 L 83 335 L 84 335 L 88 334 L 88 334 L 88 333 L 88 333 L 88 333 L 91 332 L 92 332 L 93 332 L 95 331 L 98 331 L 100 331 L 106 330 L 108 330 L 111 330 L 115 329 L 116 329 L 129 329 L 130 328 L 130 328 L 132 328 L 132 327 L 132 327 L 132 327 L 132 326 L 132 326 L 132 326 L 132 325 L 132 325 L 132 325 L 132 324 L 132 324 L 132 324 L 133 323 L 133 323 L 133 322 L 133 322 L 133 322 L 133 321 L 133 321 L 133 321 L 133 320 L 133 320 L 133 320 L 133 319 L 133 319 L 133 319 L 133 318 L 133 318 L 133 318 L 133 317 L 133 317 L 133 317 L 133 316 L 133 316 L 133 316 L 133 315 L 133 315 L 133 315 L 133 314 L 133 314 L 133 314 L 133 313 L 133 313 L 133 313 L 133 312 L 133 312 L 133 311 L 134 311 L 134 311 L 134 310 L 134 310 L 134 310 L 134 309 L 135 309 L 135 309 L 135 308 L 135 308 L 135 308 L 135 307 L 135 307 L 135 307 L 135 306 L 135 306 L 135 306 L 135 305 L 135 305 L 135 305 L 135 304 L 135 304 L 135 304 L 136 303 L 136 303 L 137 303 L 137 302 L 137 302 L 140 302 L 140 301 L 140 301 L 141 300 L 141 300 L 143 300 L 145 299 L 146 299 L 148 299 L 149 298 L 150 298 L 150 298 L 151 297 L 153 297 L 153 297 L 154 296 L 155 296 L 155 296 L 156 295 L 156 295 L 156 295 L 157 294 L 158 294 L 159 294 L 159 293 L 159 293 L 160 293 L 160 292 L 160 292 L 162 292 L 163 291 L 165 291 L 166 291 L 166 290 L 167 290 L 167 289 L 167 289 L 169 289 L 174 288 L 175 288 L 176 288 L 181 287 L 181 287 L 181 287 L 181 286 L 181 286 L 182 286 L 184 285 L 185 285 L 185 285 L 191 284 L 193 284 L 194 284 L 196 283 L 198 283 L 198 283 L 198 282 L 203 282 L 208 282 L 214 281 L 214 281 L 214 281 L 215 280 L 215 280 L 216 280 L 224 279 L 227 279 L 228 278 L 230 278 L 231 278 L 232 277 L 240 277 L 240 277 L 241 276 L 241 276 L 242 276 L 244 275 L 245 275 L 247 275 L 248 274 L 250 274 L 255 274 L 255 273 L 256 273 L 256 273 L 256 272 L 257 272 L 259 272 L 264 271 L 275 271 L 279 271 L 281 270 L 281 270 L 282 270 L 284 269 L 284 269 L 284 269 L 284 268 L 284 268 L 284 267 L 284 267 L 284 267 L 284 266 L 284 266 L 284 266 L 284 265 L 284 265 L 284 265 L 285 264 L 287 264 L 287 264 L 287 263 L 287 263 L 288 263 L 288 262 L 288 262 L 288 262 L 288 261 L 288 261 L 288 261 L 289 260 L 290 260 L 290 260 L 290 259 L 290 259 L 291 259 L 291 258 L 291 258 L 292 258 L 292 257 L 292 257 L 293 256 L 293 256 L 293 256 L 294 255 L 295 255 L 295 255 L 297 254 L 299 254 L 299 254 L 299 253 L 300 253 L 300 253 L 300 252 L 300 252 L 301 252 L 302 251 L 303 251 L 303 251 L 304 250 L 306 250 L 307 250 L 307 249 L 309 249 L 310 249 L 310 248 L 311 248 L 311 248 L 315 247 L 316 247 L 316 247 L 319 246 L 321 246 L 324 245 L 325 245 L 325 245 L 326 244 L 326 244 L 326 244 L 329 243 L 331 243 L 332 243 L 332 242 L 333 242 L 334 242 L 334 241 L 334 241 L 334 241 L 335 240 L 335 240 L 335 240 L 336 239 L 336 239 L 336 239 L 337 238 L 341 238 L 346 238 L 346 237 L 346 237 L 349 237 L 350 236 L 351 236 L 351 236 L 352 235 L 354 235 L 354 234 L 354 234 L 354 234 L 354 233 L 354 233 L 354 233 L 354 232 L 354 232 L 355 232 L 357 231 L 357 231 L 357 231 L 357 230 L 358 230 L 358 230 L 358 229 L 358 229 L 358 229 L 358 228 L 358 228 L 358 228 L 358 227 L 362 227 L 364 227 L 364 226 L 365 226 L 374 226 L 375 225 L 378 225 L 380 225 L 388 224 L 390 224 L 390 223 L 390 223 L 390 223 L 390 222 L 390 222 L 390 222 L 392 221 L 393 221 L 400 221 L 402 220 L 404 220 L 410 220 L 414 219 L 417 219 L 419 219 L 423 218 L 423 218 L 431 218 L 440 217 L 440 217 L 446 217 L 446 216 L 450 216 L 451 216 L 454 215 L 454 215 L 454 215 L 455 214 L 457 214 L 458 214 L 460 213 L 464 213 L 464 212 L 465 212 L 466 212 L 469 211 L 472 211 L 472 211 L 476 210 L 479 210 L 480 210 L 480 209 L 481 209 L 482 209 L 483 208 L 486 208 L 488 208 L 491 207 L 493 207 L 493 207 L 497 206 L 498 206 L 500 206 L 504 205 L 505 205 L 509 205 L 510 204 L 510 204 L 511 204 L 511 203 L 513 203 L 514 203 L 515 202 L 518 202 L 519 201 L 519 201 L 519 201 L 526 200 L 526 200 L 527 200 L 527 199 L 527 199 L 528 199 L 528 198 L 529 198 L 529 198 L 531 197 L 531 197 L 532 197 L 533 196 L 533 196 L 534 196 L 534 195 L 534 195 L 535 195 L 535 194 L 535 194 L 536 194 L 536 193 L 536 193 L 537 193 L 537 192 L 539 192 L 539 192 L 539 191 L 540 191 L 540 190 L 541 190 L 542 190 L 543 189 L 543 189 L 544 189 L 545 188 L 546 188 L 546 188 L 546 187 L 548 187 L 548 187 L 548 186 L 549 186 L 549 186 L 549 185 L 549 185 L 550 185 L 550 184 L 551 184 L 554 184 L 555 183 L 556 183 L 556 183 L 558 182 L 560 182 L 560 182 L 562 181 L 564 181 L 566 181 L 569 180 L 569 180 L 569 179 L 570 179 L 570 179 L 570 178 L 571 178 L 571 178 L 572 177 L 572 177 L 572 177 L 572 176 L 573 176 L 574 176 L 574 175 L 575 175 L 575 175 L 578 174 L 578 174 L 578 174 L 579 173 L 580 173 L 582 173 L 588 172 L 588 172 L 588 172 L 588 171 L 590 171 L 592 171 L 593 170 L 593 170 L 593 170 L 593 169 L 595 169 L 598 168 L 598 168 L 598 168 L 598 167 L 600 167 L 600 167 L 600 166 L 601 166 L 603 166 L 606 165 L 606 165 L 610 165 L 610 164 L 611 164 L 614 164 L 615 163 L 618 163 L 619 163 L 621 162 L 622 162 L 622 162 L 622 161 L 622 161 L 623 161 L 623 160 L 623 160 L 624 160 L 624 159 L 625 159 L 625 159 L 625 158 L 626 158 L 627 157 L 627 157 L 632 157 L 632 156 L 636 156 L 639 156 L 639 155 L 639 155 L 640 155 L 642 154 L 643 154 L 644 154 L 644 153 L 644 153 L 644 153 L 644 152 L 644 152 L 644 152 L 645 151 L 645 151 L 645 151 L 645 150 L 646 150 L 646 150 L 647 149 L 648 149 L 648 149 L 649 148 L 649 148 L 650 148 L 650 147 L 650 147 L 651 146 L 652 146 L 655 146 L 655 145 L 655 145 L 655 145 L 655 144 L 656 144 L 656 144 L 656 143 L 657 143 L 659 143 L 661 142 L 664 142 L 665 142 L 666 141 L 670 141 L 673 141 L 673 140 L 676 140 L 680 140 L 680 139 L 680 139 L 684 139 L 685 138 L 686 138 L 687 138 L 687 137 L 695 137 L 695 137 L 696 136 L 696 136 L 697 135 L 697 135 L 698 135 L 698 134 L 699 134 L 699 134 L 700 133 L 700 133 L 700 133 L 701 132 L 701 132 L 701 132 L 701 131 L 701 131 L 701 131 L 703 130 L 704 130 L 705 130 L 705 129 L 705 129 L 706 129 L 707 128 L 707 128 L 708 128 L 709 127 L 709 127 L 709 127 L 709 126 L 711 126 L 711 126 L 712 125 L 712 125 L 713 124 L 714 124 L 714 124 L 714 123 L 715 123 L 715 123 L 715 122 L 716 122 L 716 122 L 717 121 L 717 121 L 718 121 L 719 120 L 719 120 L 719 120 L 719 119 L 719 119 L 720 119 L 720 118 L 720 118 L 721 118 L 721 117 L 721 117 L 722 117 L 722 116 L 722 116 L 723 116 L 723 115 L 723 115 L 723 115 L 723 114 L 724 114 L 724 113 L 724 113 L 726 113 L 727 112 L 729 112 L 729 112 L 729 111 L 729 111 L 731 111 L 732 110 L 732 110 L 733 110 L 735 109 L 737 109 L 737 109 L 739 108 L 740 108 L 740 108 L 741 107 L 741 107 L 741 107 L 741 106 L 741 106 L 741 106 L 741 105 L 741 105 L 742 105 L 742 104 L 742 104 L 742 104 L 742 103 L 743 103 L 743 102 L 743 102 L 744 102 L 745 101 L 746 101 L 746 101 L 747 100 L 747 100 L 748 100 L 748 99 L 749 99 L 751 99 L 752 98 L 752 98 L 752 98 L 752 97 L 753 97 L 755 97 L 757 96 L 757 96 L 759 96 L 759 95 L 759 95 L 759 95 L 760 94 L 765 94 L 767 94 L 770 93 L 771 93 L 772 92 L 773 92 L 774 92 L 774 91 L 774 91 L 774 91 L 775 90 L 776 90 L 776 90 L 776 89 L 778 89 L 780 89 L 780 88 L 780 88 L 780 88 L 780 87 L 780 87 L 780 87 L 780 86 L 780 86 L 780 86 L 780 85 L 780 85 L 780 85 L 780 84 L 780 84 L 780 84 L 780 83 L 781 83 L 781 83 L 781 82 L 781 82 L 781 82 L 781 81 L 781 81 L 782 80 L 782 80 L 782 80 L 783 79 L 783 79 L 783 79 L 783 78 L 783 78 L 783 78 L 784 77 L 786 77 L 788 77 L 788 76 L 788 76 L 789 76 L 789 75 L 790 75 L 791 75 L 793 74 L 794 74 L 795 74 L 795 73 L 795 73 L 795 73 L 795 72 L 795 72 L 795 72 L 797 71 L 797 71 L 797 71 L 801 70 L 803 70 L 804 69 L 806 69 L 807 69 L 808 68 L 808 68 L 808 68 L 809 67 L 809 67 L 809 67 L 810 66 L 811 66 L 811 66 L 811 65 L 812 65 L 812 65 L 812 64 L 812 64 L 812 64 L 812 63 L 812 63 L 813 63 L 813 62 L 813 62 L 815 62 L 815 61 L 815 61 L 816 61 L 816 60 L 816 60 L 817 60 L 818 59 L 818 59 L 818 58 L 819 58 L 819 58 L 820 57 L 824 57 L 824 57 L 826 56 L 828 56 L 829 56 L 830 55 L 833 55 L 834 55 L 834 54 L 837 54 L 842 54 L 843 53 L 845 53 L 846 53 L 849 52 L 849 52 L 849 52 L 851 51 L 852 51 L 852 51 L 853 50 L 855 50 L 856 50 L 857 49 L 857 49 L 857 49 L 858 48 L 858 48 L 859 47 L 862 47 L 863 47 L 864 46 L 865 46 L 865 46 L 866 45 L 867 45 L 868 45 L 868 44 L 868 44 L 869 44 L 869 43 L 871 43 L 871 43 L 871 42 L 872 42 L 873 42 L 873 41 L 874 41 L 875 41 L 875 40 L 875 40 L 876 40 L 876 39 L 876 39 L 876 39 L 877 38 L 877 38 L 877 38 L 880 37 L 881 37 L 881 36 L 882 36 L 885 36 L 885 35 L 887 35 L 888 35 L 890 34 L 892 34 L 895 34 L 896 33 L 897 33 L 898 33 L 899 32 L 902 32 L 903 32 L 904 31 L 904 31 L 904 31 L 904 30 L 904 30 L 904 30 L 905 29 L 906 29 L 907 29 L 908 28 L 908 28 L 909 28 L 915 27 L 916 27 L 917 27 L 919 26 L 920 26 L 921 25 L 922 25 L 922 25 L 922 24 L 923 24 L 924 24 L 924 23 L 925 23 L 925 23 L 926 22 L 926 22 L 927 22 L 927 21 L 928 21 L 929 21 L 932 20 L 932 20 L 937 20 L 938 19 L 938 19 L 940 19 L 941 18 L 941 18 L 941 18 L 941 17 L 944 17 L 945 17" stroke-width="2" class="series"></path><path d="M 945 346 L 945.000000 15.000000" stroke-width="2" /><path stroke-width="2" d="M 945 346 L 945.000000 15.000000"></path><path d="M 945 346 L 950 346" stroke-width="2" /><path stroke-width="2" d="M 945 346 L 950 346"></path><text xmlns="http://www.w3.org/2000/svg" x="955" y="352">0</text><path stroke-width="2" d="M 945 309 L 950 309" /><path stroke-width="2" d="M 945 309 L 950 309"></path><text xmlns="http://www.w3.org/2000/svg" x="955" y="315">107</text><path stroke-width="2" d="M 945 272 L 950 272" /><path stroke-width="2" d="M 945 272 L 950 272"></path><text xmlns="http://www.w3.org/2000/svg" x="955" y="278">214</text><path stroke-width="2" d="M 945 236 L 950 236" /><path stroke-width="2" d="M 945 236 L 950 236"></path><text xmlns="http://www.w3.org/2000/svg" x="955" y="242">320</text><path stroke-width="2" d="M 945 199 L 950 199" /><path stroke-width="2" d="M 945 199 L 950 199"></path><text xmlns="http://www.w3.org/2000/svg" x="955" y="205">427</text><path stroke-width="2" d="M 945 162 L 950 162" /><path stroke-width="2" d="M 945 162 L 950 162"></path><text xmlns="http://www.w3.org/2000/svg" x="955" y="168">534</text><path d="M 945 126 L 950 126" stroke-width="2" /><path stroke-width="2" d="M 945 126 L 950 126"></path><text x="955" y="132" xmlns="http://www.w3.org/2000/svg">640</text><path stroke-width="2" d="M 945 89 L 950 89" /><path stroke-width="2" d="M 945 89 L 950 89"></path><text xmlns="http://www.w3.org/2000/svg" x="955" y="95">747</text><path d="M 945 52 L 950 52" stroke-width="2" /><path d="M 945 52 L 950 52" stroke-width="2"></path><text xmlns="http://www.w3.org/2000/svg" x="955" y="58">854</text><path d="M 945 16 L 950 16" stroke-width="2" /><path stroke-width="2" d="M 945 16 L 950 16"></path><text x="955" y="22" xmlns="http://www.w3.org/2000/svg">960</text><text x="987" y="175" transform="rotate(90.00,987,175)" xmlns="http://www.w3.org/2000/svg">Stargazers</text><path stroke-width="2" d="M 57.000000 346.000000 L 945 346" /><path stroke-width="2" d="M 57.000000 346.000000 L 945 346"></path><path stroke-width="2" d="M 58 346 L 58 351" /><path stroke-width="2" d="M 58 346 L 58 351"></path><text y="368" xmlns="http://www.w3.org/2000/svg" x="25">2023-04-02</text><path stroke-width="2" d="M 157 346 L 157 351" /><path stroke-width="2" d="M 157 346 L 157 351"></path><text y="368" xmlns="http://www.w3.org/2000/svg" x="124">2023-06-27</text><path stroke-width="2" d="M 256 346 L 256 351" /><path stroke-width="2" d="M 256 346 L 256 351"></path><text xmlns="http://www.w3.org/2000/svg" x="223" y="368">2023-09-20</text><path stroke-width="2" d="M 354 346 L 354 351" /><path stroke-width="2" d="M 354 346 L 354 351"></path><text xmlns="http://www.w3.org/2000/svg" x="321" y="368">2023-12-15</text><path d="M 453 346 L 453 351" stroke-width="2" /><path stroke-width="2" d="M 453 346 L 453 351"></path><text xmlns="http://www.w3.org/2000/svg" x="420" y="368">2024-03-10</text><path stroke-width="2" d="M 551 346 L 551 351" /><path stroke-width="2" d="M 551 346 L 551 351"></path><text xmlns="http://www.w3.org/2000/svg" x="518" y="368">2024-06-04</text><path stroke-width="2" d="M 650 346 L 650 351" /><path stroke-width="2" d="M 650 346 L 650 351"></path><text xmlns="http://www.w3.org/2000/svg" x="617" y="368">2024-08-29</text><path stroke-width="2" d="M 748 346 L 748 351" /><path stroke-width="2" d="M 748 346 L 748 351"></path><text xmlns="http://www.w3.org/2000/svg" x="715" y="368">2024-11-22</text><path stroke-width="2" d="M 847 346 L 847 351" /><path stroke-width="2" d="M 847 346 L 847 351"></path><text xmlns="http://www.w3.org/2000/svg" x="814" y="368">2025-02-16</text><path stroke-width="2" d="M 945 346 L 945 351" /><path stroke-width="2" d="M 945 346 L 945 351"></path><text xmlns="http://www.w3.org/2000/svg" x="912" y="368">2025-05-13</text><text xmlns="http://www.w3.org/2000/svg" x="487" y="390">Time</text></svg>