<svg xmlns="http://www.w3.org/2000/svg" xmlns:xlink="http://www.w3.org/1999/xlink" width="1024px" height="400px"><style type="text/css">
path { fill: none; stroke: rgb(51,51,51); }
path.series { stroke: #6b63ff; }
rect.background { fill: rgb(255,255,255); stroke: none; }

text {
	stroke-width: 0;
	stroke: none;
	fill: rgba(51,51,51,1.0);
	font-size: 12.8px;
	font-family: 'Roboto Medium', sans-serif;
}
</style><rect x="0" y="0" width="1024px" height="400px" class="background" rx="8" /><rect x="0" y="0" width="1024px" height="400px" class="background" rx="8"></rect><path stroke-width="2" class="series" d="M 58 345 L 61 345 L 76 344 L 77 344 L 77 344 L 77 343 L 77 343 L 77 342 L 77 342 L 77 342 L 77 341 L 77 341 L 77 341 L 77 340 L 77 340 L 78 339 L 78 339 L 78 339 L 78 338 L 79 338 L 79 337 L 79 337 L 81 337 L 81 336 L 81 336 L 81 336 L 82 335 L 83 335 L 85 334 L 85 334 L 86 334 L 87 333 L 92 333 L 92 332 L 92 332 L 92 332 L 92 331 L 95 331 L 96 331 L 97 330 L 99 330 L 103 329 L 105 329 L 112 329 L 114 328 L 118 328 L 122 327 L 123 327 L 138 327 L 139 326 L 139 326 L 141 326 L 141 325 L 141 325 L 141 324 L 141 324 L 141 324 L 141 323 L 141 323 L 141 322 L 142 322 L 142 322 L 142 321 L 142 321 L 142 321 L 142 320 L 142 320 L 142 319 L 142 319 L 142 319 L 142 318 L 142 318 L 142 317 L 142 317 L 142 317 L 142 316 L 142 316 L 142 316 L 142 315 L 142 315 L 142 314 L 142 314 L 142 314 L 142 313 L 142 313 L 142 313 L 142 312 L 142 312 L 142 311 L 142 311 L 142 311 L 142 310 L 142 310 L 142 309 L 142 309 L 143 309 L 143 308 L 143 308 L 143 308 L 143 307 L 143 307 L 143 306 L 143 306 L 144 306 L 144 305 L 145 305 L 145 304 L 145 304 L 145 304 L 145 303 L 145 303 L 145 303 L 145 302 L 145 302 L 145 301 L 145 301 L 145 301 L 145 300 L 145 300 L 145 299 L 145 299 L 145 299 L 145 298 L 146 298 L 146 298 L 146 297 L 146 297 L 150 296 L 150 296 L 150 296 L 151 295 L 152 295 L 154 294 L 156 294 L 157 294 L 159 293 L 160 293 L 161 293 L 162 292 L 162 292 L 165 291 L 165 291 L 166 291 L 167 290 L 167 290 L 168 289 L 168 289 L 168 289 L 169 288 L 170 288 L 171 288 L 171 287 L 172 287 L 172 286 L 172 286 L 173 286 L 175 285 L 176 285 L 178 284 L 179 284 L 180 284 L 181 283 L 181 283 L 181 283 L 183 282 L 189 282 L 189 281 L 190 281 L 196 281 L 196 280 L 196 280 L 197 280 L 197 279 L 198 279 L 200 278 L 201 278 L 201 278 L 208 277 L 210 277 L 211 276 L 214 276 L 215 276 L 215 275 L 216 275 L 221 275 L 227 274 L 233 274 L 234 273 L 234 273 L 234 273 L 234 272 L 236 272 L 245 271 L 249 271 L 249 271 L 252 270 L 253 270 L 253 270 L 263 269 L 263 269 L 264 268 L 264 268 L 265 268 L 268 267 L 269 267 L 271 266 L 272 266 L 274 266 L 280 265 L 280 265 L 281 265 L 281 264 L 281 264 L 282 263 L 284 263 L 290 263 L 302 262 L 306 262 L 309 261 L 309 261 L 311 261 L 312 260 L 312 260 L 312 260 L 312 259 L 312 259 L 312 258 L 312 258 L 312 258 L 312 257 L 312 257 L 312 256 L 312 256 L 312 256 L 313 255 L 313 255 L 315 255 L 315 254 L 316 254 L 316 253 L 316 253 L 317 253 L 317 252 L 317 252 L 317 251 L 317 251 L 317 251 L 317 250 L 318 250 L 319 250 L 319 249 L 320 249 L 320 248 L 320 248 L 320 248 L 321 247 L 321 247 L 321 247 L 321 246 L 322 246 L 322 245 L 322 245 L 323 245 L 325 244 L 325 244 L 327 243 L 329 243 L 329 243 L 330 242 L 330 242 L 330 242 L 330 241 L 330 241 L 332 240 L 332 240 L 334 240 L 334 239 L 335 239 L 337 238 L 338 238 L 338 238 L 341 237 L 341 237 L 342 237 L 343 236 L 343 236 L 347 235 L 348 235 L 348 235 L 352 234 L 354 234 L 357 233 L 358 233 L 358 233 L 359 232 L 360 232 L 360 232 L 363 231 L 365 231 L 366 230 L 367 230 L 368 230 L 369 229 L 369 229 L 369 228 L 369 228 L 370 228 L 370 227 L 370 227 L 371 227 L 371 226 L 371 226 L 372 225 L 377 225 L 382 225 L 382 224 L 382 224 L 385 223 L 387 223 L 388 223 L 388 222 L 389 222 L 391 222 L 391 221 L 391 221 L 391 220 L 391 220 L 391 220 L 391 219 L 392 219 L 392 218 L 392 218 L 395 218 L 395 217 L 395 217 L 395 217 L 395 216 L 396 216 L 396 215 L 396 215 L 396 215 L 396 214 L 396 214 L 396 214 L 396 213 L 400 213 L 402 212 L 402 212 L 403 212 L 414 211 L 415 211 L 418 210 L 421 210 L 427 210 L 429 209 L 431 209 L 432 209 L 432 208 L 432 208 L 432 207 L 432 207 L 432 207 L 432 206 L 434 206 L 435 205 L 443 205 L 445 205 L 448 204 L 454 204 L 458 204 L 462 203 L 464 203 L 469 202 L 469 202 L 478 202 L 488 201 L 488 201 L 494 200 L 494 200 L 500 200 L 501 199 L 503 199 L 504 199 L 504 198 L 504 198 L 507 197 L 508 197 L 511 197 L 515 196 L 515 196 L 517 195 L 517 195 L 520 195 L 524 194 L 524 194 L 528 194 L 532 193 L 533 193 L 533 192 L 535 192 L 536 192 L 537 191 L 540 191 L 542 190 L 545 190 L 547 190 L 547 189 L 552 189 L 553 189 L 556 188 L 560 188 L 561 187 L 566 187 L 566 187 L 566 186 L 568 186 L 568 185 L 570 185 L 571 185 L 573 184 L 576 184 L 577 184 L 577 183 L 577 183 L 585 182 L 585 182 L 586 182 L 586 181 L 586 181 L 587 181 L 587 180 L 588 180 L 588 179 L 590 179 L 590 179 L 592 178 L 592 178 L 593 177 L 594 177 L 594 177 L 594 176 L 595 176 L 595 176 L 595 175 L 596 175 L 596 174 L 596 174 L 597 174 L 598 173 L 599 173 L 599 172 L 600 172 L 600 172 L 601 171 L 602 171 L 603 171 L 603 170 L 604 170 L 605 169 L 607 169 L 607 169 L 607 168 L 608 168 L 610 167 L 610 167 L 610 167 L 610 166 L 611 166 L 611 166 L 611 165 L 612 165 L 612 164 L 613 164 L 616 164 L 617 163 L 619 163 L 619 162 L 621 162 L 623 162 L 623 161 L 625 161 L 628 161 L 630 160 L 633 160 L 634 159 L 634 159 L 634 159 L 634 158 L 635 158 L 635 157 L 635 157 L 636 157 L 636 156 L 636 156 L 637 156 L 638 155 L 639 155 L 639 154 L 640 154 L 640 154 L 643 153 L 643 153 L 643 152 L 644 152 L 645 152 L 648 151 L 650 151 L 655 151 L 655 150 L 655 150 L 655 149 L 657 149 L 659 149 L 660 148 L 660 148 L 660 148 L 660 147 L 662 147 L 665 146 L 666 146 L 666 146 L 666 145 L 668 145 L 668 144 L 668 144 L 669 144 L 672 143 L 675 143 L 675 143 L 679 142 L 680 142 L 680 141 L 684 141 L 685 141 L 688 140 L 690 140 L 691 139 L 693 139 L 693 139 L 693 138 L 693 138 L 693 138 L 693 137 L 694 137 L 695 136 L 695 136 L 696 136 L 696 135 L 696 135 L 697 134 L 698 134 L 699 134 L 704 133 L 704 133 L 709 133 L 711 132 L 712 132 L 712 131 L 713 131 L 716 131 L 716 130 L 717 130 L 717 129 L 718 129 L 718 129 L 718 128 L 718 128 L 718 128 L 719 127 L 719 127 L 719 126 L 719 126 L 719 126 L 720 125 L 721 125 L 721 124 L 722 124 L 722 124 L 723 123 L 724 123 L 725 123 L 725 122 L 725 122 L 725 121 L 727 121 L 730 121 L 730 120 L 730 120 L 730 119 L 730 119 L 731 119 L 731 118 L 731 118 L 732 118 L 734 117 L 737 117 L 740 116 L 741 116 L 743 116 L 746 115 L 750 115 L 751 115 L 753 114 L 758 114 L 758 113 L 758 113 L 763 113 L 764 112 L 765 112 L 766 111 L 766 111 L 775 111 L 775 110 L 776 110 L 776 110 L 777 109 L 777 109 L 778 108 L 779 108 L 779 108 L 780 107 L 780 107 L 780 106 L 781 106 L 781 106 L 781 105 L 781 105 L 782 105 L 782 104 L 782 104 L 784 103 L 785 103 L 786 103 L 786 102 L 786 102 L 787 101 L 788 101 L 789 101 L 789 100 L 790 100 L 790 100 L 791 99 L 791 99 L 793 98 L 793 98 L 794 98 L 794 97 L 795 97 L 796 96 L 796 96 L 797 96 L 797 95 L 797 95 L 798 95 L 798 94 L 798 94 L 800 93 L 800 93 L 801 93 L 802 92 L 802 92 L 802 91 L 802 91 L 802 91 L 803 90 L 803 90 L 803 90 L 805 89 L 805 89 L 805 88 L 805 88 L 806 88 L 806 87 L 806 87 L 806 86 L 806 86 L 807 86 L 807 85 L 807 85 L 807 85 L 807 84 L 810 84 L 811 83 L 813 83 L 813 83 L 813 82 L 814 82 L 815 82 L 816 81 L 817 81 L 817 80 L 820 80 L 823 80 L 823 79 L 824 79 L 825 78 L 825 78 L 826 78 L 826 77 L 827 77 L 827 77 L 827 76 L 827 76 L 827 75 L 827 75 L 827 75 L 828 74 L 828 74 L 828 73 L 828 73 L 828 73 L 828 72 L 829 72 L 829 72 L 830 71 L 830 71 L 831 70 L 832 70 L 833 70 L 833 69 L 833 69 L 835 68 L 835 68 L 836 68 L 838 67 L 839 67 L 839 67 L 839 66 L 839 66 L 840 65 L 842 65 L 844 65 L 845 64 L 847 64 L 847 63 L 847 63 L 847 63 L 848 62 L 853 62 L 856 62 L 859 61 L 860 61 L 861 60 L 863 60 L 864 60 L 864 59 L 864 59 L 864 58 L 865 58 L 866 58 L 866 57 L 867 57 L 868 57 L 870 56 L 870 56 L 870 55 L 870 55 L 870 55 L 870 54 L 870 54 L 870 53 L 870 53 L 870 53 L 870 52 L 870 52 L 870 52 L 870 51 L 871 51 L 871 50 L 871 50 L 871 50 L 872 49 L 872 49 L 872 49 L 872 48 L 872 48 L 872 47 L 873 47 L 873 47 L 873 46 L 874 46 L 874 45 L 874 45 L 874 45 L 874 44 L 874 44 L 876 44 L 877 43 L 879 43 L 880 42 L 880 42 L 881 42 L 881 41 L 882 41 L 883 40 L 885 40 L 886 40 L 887 39 L 887 39 L 887 39 L 887 38 L 887 38 L 887 37 L 887 37 L 890 37 L 890 36 L 890 36 L 894 35 L 896 35 L 897 35 L 900 34 L 901 34 L 902 34 L 903 33 L 903 33 L 903 32 L 903 32 L 904 32 L 904 31 L 905 31 L 906 30 L 906 30 L 906 30 L 906 29 L 907 29 L 907 29 L 907 28 L 907 28 L 907 27 L 908 27 L 908 27 L 908 26 L 910 26 L 910 25 L 911 25 L 911 25 L 912 24 L 912 24 L 912 24 L 913 23 L 913 23 L 913 22 L 914 22 L 915 22 L 916 21 L 920 21 L 921 20 L 922 20 L 925 20 L 926 19 L 927 19 L 931 19 L 931 18 L 932 18 L 935 17 L 941 17 L 942 17 L 943 16 L 945 16" /><path stroke-width="2" class="series" d="M 58 345 L 61 345 L 76 344 L 77 344 L 77 344 L 77 343 L 77 343 L 77 342 L 77 342 L 77 342 L 77 341 L 77 341 L 77 341 L 77 340 L 77 340 L 78 339 L 78 339 L 78 339 L 78 338 L 79 338 L 79 337 L 79 337 L 81 337 L 81 336 L 81 336 L 81 336 L 82 335 L 83 335 L 85 334 L 85 334 L 86 334 L 87 333 L 92 333 L 92 332 L 92 332 L 92 332 L 92 331 L 95 331 L 96 331 L 97 330 L 99 330 L 103 329 L 105 329 L 112 329 L 114 328 L 118 328 L 122 327 L 123 327 L 138 327 L 139 326 L 139 326 L 141 326 L 141 325 L 141 325 L 141 324 L 141 324 L 141 324 L 141 323 L 141 323 L 141 322 L 142 322 L 142 322 L 142 321 L 142 321 L 142 321 L 142 320 L 142 320 L 142 319 L 142 319 L 142 319 L 142 318 L 142 318 L 142 317 L 142 317 L 142 317 L 142 316 L 142 316 L 142 316 L 142 315 L 142 315 L 142 314 L 142 314 L 142 314 L 142 313 L 142 313 L 142 313 L 142 312 L 142 312 L 142 311 L 142 311 L 142 311 L 142 310 L 142 310 L 142 309 L 142 309 L 143 309 L 143 308 L 143 308 L 143 308 L 143 307 L 143 307 L 143 306 L 143 306 L 144 306 L 144 305 L 145 305 L 145 304 L 145 304 L 145 304 L 145 303 L 145 303 L 145 303 L 145 302 L 145 302 L 145 301 L 145 301 L 145 301 L 145 300 L 145 300 L 145 299 L 145 299 L 145 299 L 145 298 L 146 298 L 146 298 L 146 297 L 146 297 L 150 296 L 150 296 L 150 296 L 151 295 L 152 295 L 154 294 L 156 294 L 157 294 L 159 293 L 160 293 L 161 293 L 162 292 L 162 292 L 165 291 L 165 291 L 166 291 L 167 290 L 167 290 L 168 289 L 168 289 L 168 289 L 169 288 L 170 288 L 171 288 L 171 287 L 172 287 L 172 286 L 172 286 L 173 286 L 175 285 L 176 285 L 178 284 L 179 284 L 180 284 L 181 283 L 181 283 L 181 283 L 183 282 L 189 282 L 189 281 L 190 281 L 196 281 L 196 280 L 196 280 L 197 280 L 197 279 L 198 279 L 200 278 L 201 278 L 201 278 L 208 277 L 210 277 L 211 276 L 214 276 L 215 276 L 215 275 L 216 275 L 221 275 L 227 274 L 233 274 L 234 273 L 234 273 L 234 273 L 234 272 L 236 272 L 245 271 L 249 271 L 249 271 L 252 270 L 253 270 L 253 270 L 263 269 L 263 269 L 264 268 L 264 268 L 265 268 L 268 267 L 269 267 L 271 266 L 272 266 L 274 266 L 280 265 L 280 265 L 281 265 L 281 264 L 281 264 L 282 263 L 284 263 L 290 263 L 302 262 L 306 262 L 309 261 L 309 261 L 311 261 L 312 260 L 312 260 L 312 260 L 312 259 L 312 259 L 312 258 L 312 258 L 312 258 L 312 257 L 312 257 L 312 256 L 312 256 L 312 256 L 313 255 L 313 255 L 315 255 L 315 254 L 316 254 L 316 253 L 316 253 L 317 253 L 317 252 L 317 252 L 317 251 L 317 251 L 317 251 L 317 250 L 318 250 L 319 250 L 319 249 L 320 249 L 320 248 L 320 248 L 320 248 L 321 247 L 321 247 L 321 247 L 321 246 L 322 246 L 322 245 L 322 245 L 323 245 L 325 244 L 325 244 L 327 243 L 329 243 L 329 243 L 330 242 L 330 242 L 330 242 L 330 241 L 330 241 L 332 240 L 332 240 L 334 240 L 334 239 L 335 239 L 337 238 L 338 238 L 338 238 L 341 237 L 341 237 L 342 237 L 343 236 L 343 236 L 347 235 L 348 235 L 348 235 L 352 234 L 354 234 L 357 233 L 358 233 L 358 233 L 359 232 L 360 232 L 360 232 L 363 231 L 365 231 L 366 230 L 367 230 L 368 230 L 369 229 L 369 229 L 369 228 L 369 228 L 370 228 L 370 227 L 370 227 L 371 227 L 371 226 L 371 226 L 372 225 L 377 225 L 382 225 L 382 224 L 382 224 L 385 223 L 387 223 L 388 223 L 388 222 L 389 222 L 391 222 L 391 221 L 391 221 L 391 220 L 391 220 L 391 220 L 391 219 L 392 219 L 392 218 L 392 218 L 395 218 L 395 217 L 395 217 L 395 217 L 395 216 L 396 216 L 396 215 L 396 215 L 396 215 L 396 214 L 396 214 L 396 214 L 396 213 L 400 213 L 402 212 L 402 212 L 403 212 L 414 211 L 415 211 L 418 210 L 421 210 L 427 210 L 429 209 L 431 209 L 432 209 L 432 208 L 432 208 L 432 207 L 432 207 L 432 207 L 432 206 L 434 206 L 435 205 L 443 205 L 445 205 L 448 204 L 454 204 L 458 204 L 462 203 L 464 203 L 469 202 L 469 202 L 478 202 L 488 201 L 488 201 L 494 200 L 494 200 L 500 200 L 501 199 L 503 199 L 504 199 L 504 198 L 504 198 L 507 197 L 508 197 L 511 197 L 515 196 L 515 196 L 517 195 L 517 195 L 520 195 L 524 194 L 524 194 L 528 194 L 532 193 L 533 193 L 533 192 L 535 192 L 536 192 L 537 191 L 540 191 L 542 190 L 545 190 L 547 190 L 547 189 L 552 189 L 553 189 L 556 188 L 560 188 L 561 187 L 566 187 L 566 187 L 566 186 L 568 186 L 568 185 L 570 185 L 571 185 L 573 184 L 576 184 L 577 184 L 577 183 L 577 183 L 585 182 L 585 182 L 586 182 L 586 181 L 586 181 L 587 181 L 587 180 L 588 180 L 588 179 L 590 179 L 590 179 L 592 178 L 592 178 L 593 177 L 594 177 L 594 177 L 594 176 L 595 176 L 595 176 L 595 175 L 596 175 L 596 174 L 596 174 L 597 174 L 598 173 L 599 173 L 599 172 L 600 172 L 600 172 L 601 171 L 602 171 L 603 171 L 603 170 L 604 170 L 605 169 L 607 169 L 607 169 L 607 168 L 608 168 L 610 167 L 610 167 L 610 167 L 610 166 L 611 166 L 611 166 L 611 165 L 612 165 L 612 164 L 613 164 L 616 164 L 617 163 L 619 163 L 619 162 L 621 162 L 623 162 L 623 161 L 625 161 L 628 161 L 630 160 L 633 160 L 634 159 L 634 159 L 634 159 L 634 158 L 635 158 L 635 157 L 635 157 L 636 157 L 636 156 L 636 156 L 637 156 L 638 155 L 639 155 L 639 154 L 640 154 L 640 154 L 643 153 L 643 153 L 643 152 L 644 152 L 645 152 L 648 151 L 650 151 L 655 151 L 655 150 L 655 150 L 655 149 L 657 149 L 659 149 L 660 148 L 660 148 L 660 148 L 660 147 L 662 147 L 665 146 L 666 146 L 666 146 L 666 145 L 668 145 L 668 144 L 668 144 L 669 144 L 672 143 L 675 143 L 675 143 L 679 142 L 680 142 L 680 141 L 684 141 L 685 141 L 688 140 L 690 140 L 691 139 L 693 139 L 693 139 L 693 138 L 693 138 L 693 138 L 693 137 L 694 137 L 695 136 L 695 136 L 696 136 L 696 135 L 696 135 L 697 134 L 698 134 L 699 134 L 704 133 L 704 133 L 709 133 L 711 132 L 712 132 L 712 131 L 713 131 L 716 131 L 716 130 L 717 130 L 717 129 L 718 129 L 718 129 L 718 128 L 718 128 L 718 128 L 719 127 L 719 127 L 719 126 L 719 126 L 719 126 L 720 125 L 721 125 L 721 124 L 722 124 L 722 124 L 723 123 L 724 123 L 725 123 L 725 122 L 725 122 L 725 121 L 727 121 L 730 121 L 730 120 L 730 120 L 730 119 L 730 119 L 731 119 L 731 118 L 731 118 L 732 118 L 734 117 L 737 117 L 740 116 L 741 116 L 743 116 L 746 115 L 750 115 L 751 115 L 753 114 L 758 114 L 758 113 L 758 113 L 763 113 L 764 112 L 765 112 L 766 111 L 766 111 L 775 111 L 775 110 L 776 110 L 776 110 L 777 109 L 777 109 L 778 108 L 779 108 L 779 108 L 780 107 L 780 107 L 780 106 L 781 106 L 781 106 L 781 105 L 781 105 L 782 105 L 782 104 L 782 104 L 784 103 L 785 103 L 786 103 L 786 102 L 786 102 L 787 101 L 788 101 L 789 101 L 789 100 L 790 100 L 790 100 L 791 99 L 791 99 L 793 98 L 793 98 L 794 98 L 794 97 L 795 97 L 796 96 L 796 96 L 797 96 L 797 95 L 797 95 L 798 95 L 798 94 L 798 94 L 800 93 L 800 93 L 801 93 L 802 92 L 802 92 L 802 91 L 802 91 L 802 91 L 803 90 L 803 90 L 803 90 L 805 89 L 805 89 L 805 88 L 805 88 L 806 88 L 806 87 L 806 87 L 806 86 L 806 86 L 807 86 L 807 85 L 807 85 L 807 85 L 807 84 L 810 84 L 811 83 L 813 83 L 813 83 L 813 82 L 814 82 L 815 82 L 816 81 L 817 81 L 817 80 L 820 80 L 823 80 L 823 79 L 824 79 L 825 78 L 825 78 L 826 78 L 826 77 L 827 77 L 827 77 L 827 76 L 827 76 L 827 75 L 827 75 L 827 75 L 828 74 L 828 74 L 828 73 L 828 73 L 828 73 L 828 72 L 829 72 L 829 72 L 830 71 L 830 71 L 831 70 L 832 70 L 833 70 L 833 69 L 833 69 L 835 68 L 835 68 L 836 68 L 838 67 L 839 67 L 839 67 L 839 66 L 839 66 L 840 65 L 842 65 L 844 65 L 845 64 L 847 64 L 847 63 L 847 63 L 847 63 L 848 62 L 853 62 L 856 62 L 859 61 L 860 61 L 861 60 L 863 60 L 864 60 L 864 59 L 864 59 L 864 58 L 865 58 L 866 58 L 866 57 L 867 57 L 868 57 L 870 56 L 870 56 L 870 55 L 870 55 L 870 55 L 870 54 L 870 54 L 870 53 L 870 53 L 870 53 L 870 52 L 870 52 L 870 52 L 870 51 L 871 51 L 871 50 L 871 50 L 871 50 L 872 49 L 872 49 L 872 49 L 872 48 L 872 48 L 872 47 L 873 47 L 873 47 L 873 46 L 874 46 L 874 45 L 874 45 L 874 45 L 874 44 L 874 44 L 876 44 L 877 43 L 879 43 L 880 42 L 880 42 L 881 42 L 881 41 L 882 41 L 883 40 L 885 40 L 886 40 L 887 39 L 887 39 L 887 39 L 887 38 L 887 38 L 887 37 L 887 37 L 890 37 L 890 36 L 890 36 L 894 35 L 896 35 L 897 35 L 900 34 L 901 34 L 902 34 L 903 33 L 903 33 L 903 32 L 903 32 L 904 32 L 904 31 L 905 31 L 906 30 L 906 30 L 906 30 L 906 29 L 907 29 L 907 29 L 907 28 L 907 28 L 907 27 L 908 27 L 908 27 L 908 26 L 910 26 L 910 25 L 911 25 L 911 25 L 912 24 L 912 24 L 912 24 L 913 23 L 913 23 L 913 22 L 914 22 L 915 22 L 916 21 L 920 21 L 921 20 L 922 20 L 925 20 L 926 19 L 927 19 L 931 19 L 931 18 L 932 18 L 935 17 L 941 17 L 942 17 L 943 16 L 945 16"></path><path stroke-width="2" d="M 945 346 L 945.000000 15.000000" /><path d="M 945 346 L 945.000000 15.000000" stroke-width="2"></path><path stroke-width="2" d="M 945 346 L 950 346" /><path stroke-width="2" d="M 945 346 L 950 346"></path><text x="955" y="352" xmlns="http://www.w3.org/2000/svg">0</text><path stroke-width="2" d="M 945 309 L 950 309" /><path stroke-width="2" d="M 945 309 L 950 309"></path><text x="955" y="315" xmlns="http://www.w3.org/2000/svg">96</text><path stroke-width="2" d="M 945 272 L 950 272" /><path stroke-width="2" d="M 945 272 L 950 272"></path><text xmlns="http://www.w3.org/2000/svg" x="955" y="278">192</text><path stroke-width="2" d="M 945 235 L 950 235" /><path stroke-width="2" d="M 945 235 L 950 235"></path><text xmlns="http://www.w3.org/2000/svg" x="955" y="241">287</text><path stroke-width="2" d="M 945 199 L 950 199" /><path stroke-width="2" d="M 945 199 L 950 199"></path><text xmlns="http://www.w3.org/2000/svg" x="955" y="205">383</text><path stroke-width="2" d="M 945 162 L 950 162" /><path stroke-width="2" d="M 945 162 L 950 162"></path><text xmlns="http://www.w3.org/2000/svg" x="955" y="168">478</text><path stroke-width="2" d="M 945 125 L 950 125" /><path stroke-width="2" d="M 945 125 L 950 125"></path><text xmlns="http://www.w3.org/2000/svg" x="955" y="131">574</text><path stroke-width="2" d="M 945 89 L 950 89" /><path stroke-width="2" d="M 945 89 L 950 89"></path><text xmlns="http://www.w3.org/2000/svg" x="955" y="95">669</text><path stroke-width="2" d="M 945 52 L 950 52" /><path stroke-width="2" d="M 945 52 L 950 52"></path><text xmlns="http://www.w3.org/2000/svg" x="955" y="58">765</text><path stroke-width="2" d="M 945 16 L 950 16" /><path stroke-width="2" d="M 945 16 L 950 16"></path><text xmlns="http://www.w3.org/2000/svg" x="955" y="22">860</text><text y="175" transform="rotate(90.00,987,175)" xmlns="http://www.w3.org/2000/svg" x="987">Stargazers</text><path d="M 57.000000 346.000000 L 945 346" stroke-width="2" /><path stroke-width="2" d="M 57.000000 346.000000 L 945 346"></path><path stroke-width="2" d="M 58 346 L 58 351" /><path stroke-width="2" d="M 58 346 L 58 351"></path><text xmlns="http://www.w3.org/2000/svg" x="25" y="368">2023-04-02</text><path stroke-width="2" d="M 157 346 L 157 351" /><path stroke-width="2" d="M 157 346 L 157 351"></path><text y="368" xmlns="http://www.w3.org/2000/svg" x="124">2023-06-17</text><path stroke-width="2" d="M 256 346 L 256 351" /><path stroke-width="2" d="M 256 346 L 256 351"></path><text x="223" y="368" xmlns="http://www.w3.org/2000/svg">2023-09-01</text><path d="M 354 346 L 354 351" stroke-width="2" /><path stroke-width="2" d="M 354 346 L 354 351"></path><text x="321" y="368" xmlns="http://www.w3.org/2000/svg">2023-11-17</text><path stroke-width="2" d="M 453 346 L 453 351" /><path d="M 453 346 L 453 351" stroke-width="2"></path><text x="420" y="368" xmlns="http://www.w3.org/2000/svg">2024-02-01</text><path stroke-width="2" d="M 551 346 L 551 351" /><path stroke-width="2" d="M 551 346 L 551 351"></path><text xmlns="http://www.w3.org/2000/svg" x="518" y="368">2024-04-17</text><path stroke-width="2" d="M 650 346 L 650 351" /><path stroke-width="2" d="M 650 346 L 650 351"></path><text x="617" y="368" xmlns="http://www.w3.org/2000/svg">2024-07-02</text><path stroke-width="2" d="M 748 346 L 748 351" /><path stroke-width="2" d="M 748 346 L 748 351"></path><text x="715" y="368" xmlns="http://www.w3.org/2000/svg">2024-09-16</text><path stroke-width="2" d="M 847 346 L 847 351" /><path stroke-width="2" d="M 847 346 L 847 351"></path><text xmlns="http://www.w3.org/2000/svg" x="814" y="368">2024-12-02</text><path stroke-width="2" d="M 945 346 L 945 351" /><path stroke-width="2" d="M 945 346 L 945 351"></path><text xmlns="http://www.w3.org/2000/svg" x="912" y="368">2025-02-16</text><text y="390" xmlns="http://www.w3.org/2000/svg" x="487">Time</text></svg>