<svg width="1024px" height="400px" xmlns="http://www.w3.org/2000/svg" xmlns:xlink="http://www.w3.org/1999/xlink"><style type="text/css">
path { fill: none; stroke: rgb(51,51,51); }
path.series { stroke: #6b63ff; }
rect.background { fill: rgb(255,255,255); stroke: none; }

text {
	stroke-width: 0;
	stroke: none;
	fill: rgba(51,51,51,1.0);
	font-size: 12.8px;
	font-family: 'Roboto Medium', sans-serif;
}
</style><rect width="1024px" height="400px" class="background" rx="8" x="0" y="0" /><rect width="1024px" height="400px" class="background" rx="8" x="0" y="0"></rect><path stroke-width="2" class="series" d="M 58 345 L 61 345 L 78 344 L 79 344 L 79 343 L 79 343 L 79 342 L 79 342 L 79 342 L 79 341 L 79 341 L 79 340 L 80 340 L 80 339 L 80 339 L 80 338 L 80 338 L 80 338 L 80 337 L 81 337 L 82 336 L 82 336 L 83 335 L 84 335 L 84 335 L 84 334 L 84 334 L 86 333 L 87 333 L 88 332 L 89 332 L 90 331 L 96 331 L 96 331 L 96 330 L 96 330 L 96 329 L 96 329 L 99 328 L 100 328 L 101 327 L 104 327 L 108 327 L 110 326 L 118 326 L 120 325 L 124 325 L 129 324 L 131 324 L 147 324 L 148 323 L 148 323 L 150 322 L 151 322 L 151 321 L 151 321 L 151 320 L 151 320 L 151 320 L 151 319 L 151 319 L 151 318 L 151 318 L 151 317 L 151 317 L 151 316 L 151 316 L 151 316 L 151 315 L 151 315 L 151 314 L 152 314 L 152 313 L 152 313 L 152 313 L 152 312 L 152 312 L 152 311 L 152 311 L 152 310 L 152 310 L 152 309 L 152 309 L 152 309 L 152 308 L 152 308 L 152 307 L 152 307 L 152 306 L 152 306 L 152 305 L 152 305 L 152 305 L 152 304 L 152 304 L 152 303 L 152 303 L 152 302 L 152 302 L 152 302 L 152 301 L 153 301 L 153 300 L 153 300 L 153 299 L 153 299 L 154 298 L 154 298 L 154 298 L 154 297 L 154 297 L 154 296 L 154 296 L 154 295 L 154 295 L 154 294 L 154 294 L 154 294 L 154 293 L 154 293 L 154 292 L 155 292 L 155 291 L 155 291 L 156 291 L 156 290 L 156 290 L 156 289 L 160 289 L 160 288 L 161 288 L 162 287 L 162 287 L 165 287 L 167 286 L 168 286 L 170 285 L 171 285 L 173 284 L 173 284 L 174 283 L 177 283 L 177 283 L 178 282 L 179 282 L 179 281 L 181 281 L 181 280 L 181 280 L 181 280 L 183 279 L 184 279 L 184 278 L 185 278 L 185 277 L 185 277 L 186 276 L 188 276 L 189 276 L 192 275 L 193 275 L 193 274 L 195 274 L 195 273 L 195 273 L 197 272 L 204 272 L 204 272 L 205 271 L 212 271 L 212 270 L 212 270 L 212 269 L 212 269 L 213 269 L 215 268 L 217 268 L 217 267 L 225 267 L 227 266 L 228 266 L 231 265 L 233 265 L 233 265 L 234 264 L 239 264 L 246 263 L 253 263 L 254 262 L 254 262 L 254 261 L 254 261 L 256 261 L 265 260 L 270 260 L 270 259 L 274 259 L 275 258 L 275 258 L 286 258 L 286 257 L 287 257 L 287 256 L 288 256 L 291 255 L 293 255 L 295 254 L 296 254 L 299 254 L 305 253 L 305 253 L 306 252 L 306 252 L 306 251 L 307 251 L 310 250 L 316 250 L 329 250 L 334 249 L 337 249 L 337 248 L 339 248 L 340 247 L 340 247 L 340 247 L 340 246 L 340 246 L 340 245 L 340 245 L 341 244 L 341 244 L 341 243 L 341 243 L 341 243 L 341 242 L 341 242 L 342 241 L 344 241 L 344 240 L 344 240 L 345 239 L 345 239 L 346 239 L 346 238 L 346 238 L 346 237 L 346 237 L 346 236 L 346 236 L 347 236 L 348 235 L 349 235 L 349 234 L 349 234 L 349 233 L 349 233 L 350 232 L 350 232 L 350 232 L 351 231 L 352 231 L 352 230 L 352 230 L 353 229 L 354 229 L 355 228 L 357 228 L 359 228 L 359 227 L 360 227 L 360 226 L 360 226 L 360 225 L 361 225 L 362 225 L 363 224 L 365 224 L 365 223 L 366 223 L 368 222 L 370 222 L 370 221 L 372 221 L 373 221 L 373 220 L 374 220 L 374 219 L 379 219 L 380 218 L 381 218 L 385 217 L 387 217 L 391 217 L 392 216 L 392 216 L 393 215 L 394 215 L 394 214 L 397 214 L 399 214 L 401 213 L 401 213 L 403 212 L 404 212 L 404 211 L 404 211 L 404 210 L 405 210 L 405 210 L 405 209 L 406 209 L 407 208 L 407 208 L 408 207 L 412 207 L 418 206 L 418 206 L 418 206 L 422 205 L 424 205 L 425 204 L 425 204 L 427 203 L 428 203 L 428 203 L 428 202 L 428 202 L 428 201 L 428 201 L 428 200 L 429 200 L 429 199 L 430 199 L 433 199 L 433 198 L 433 198 L 433 197 L 433 197 L 433 196 L 433 196 L 434 195 L 434 195 L 434 195 L 434 194 L 434 194 L 434 193 L 438 193 L 441 192 L 441 192 L 442 192 L 454 191 L 455 191 L 459 190 L 461 190 L 469 189 L 471 189 L 473 188 L 474 188 L 474 188 L 474 187 L 474 187 L 474 186 L 474 186 L 474 185 L 476 185 L 477 184 L 486 184 L 488 184 L 491 183 L 498 183 L 503 182 L 507 182 L 510 181 L 515 181 L 515 181 L 525 180 L 536 180 L 536 179 L 543 179 L 543 178 L 549 178 L 550 177 L 553 177 L 554 177 L 554 176 L 554 176 L 558 175 L 559 175 L 562 174 L 566 174 L 567 173 L 568 173 L 569 173 L 572 172 L 576 172 L 576 171 L 581 171 L 585 170 L 586 170 L 586 170 L 588 169 L 589 169 L 590 168 L 594 168 L 597 167 L 599 167 L 602 166 L 602 166 L 608 166 L 609 165 L 612 165 L 617 164 L 617 164 L 623 163 L 623 163 L 623 162 L 625 162 L 626 162 L 628 161 L 628 161 L 631 160 L 634 160 L 635 159 L 635 159 L 636 159 L 644 158 L 644 158 L 645 157 L 645 157 L 646 156 L 646 156 L 647 155 L 647 155 L 648 155 L 650 154 L 650 154 L 652 153 L 652 153 L 653 152 L 654 152 L 654 151 L 654 151 L 655 151 L 656 150 L 656 150 L 657 149 L 657 149 L 657 148 L 657 148 L 658 148 L 660 147 L 660 147 L 660 146 L 661 146 L 662 145 L 663 145 L 664 144 L 665 144 L 665 144 L 667 143 L 668 143 L 669 142 L 669 142 L 670 141 L 672 141 L 672 140 L 672 140 L 672 140 L 673 139 L 673 139 L 673 138 L 674 138 L 674 137 L 675 137 L 679 137 L 680 136 L 681 136 L 682 135 L 684 135 L 686 134 L 687 134 L 689 133 L 692 133 L 695 133 L 697 132 L 698 132 L 698 131 L 699 131 L 699 130 L 700 130 L 700 129 L 700 129 L 701 129 L 701 128 L 701 128 L 702 127 L 703 127 L 704 126 L 704 126 L 706 126 L 706 125 L 709 125 L 709 124 L 709 124 L 710 123 L 711 123 L 714 122 L 717 122 L 721 122 L 722 121 L 722 121 L 722 120 L 724 120 L 727 119 L 727 119 L 727 118 L 727 118 L 728 118 L 730 117 L 733 117 L 734 116 L 734 116 L 734 115 L 736 115 L 737 115 L 737 114 L 737 114 L 737 113 L 740 113 L 744 112 L 745 112 L 749 111 L 749 111 L 750 111 L 754 110 L 756 110 L 759 109 L 761 109 L 762 108 L 764 108 L 764 107 L 764 107 L 765 107 L 765 106 L 765 106 L 766 105 L 766 105 L 766 104 L 767 104 L 767 104 L 768 103 L 769 103 L 770 102 L 770 102 L 776 101 L 777 101 L 782 100 L 785 100 L 785 100 L 786 99 L 787 99 L 790 98 L 790 98 L 791 97 L 791 97 L 792 96 L 792 96 L 792 96 L 792 95 L 792 95 L 793 94 L 793 94 L 793 93 L 793 93 L 794 92 L 795 92 L 795 92 L 795 91 L 797 91 L 797 90 L 797 90 L 798 89 L 799 89 L 800 89 L 800 88 L 800 88 L 802 87 L 805 87 L 805 86 L 805 86 L 805 85 L 805 85 L 806 85 L 807 84 L 807 84 L 808 83 L 810 83 L 813 82 L 817 82 L 818 82 L 820 81 L 824 81 L 828 80 L 828 80 L 831 79 L 836 79 L 836 78 L 836 78 L 842 78 L 844 77 L 844 77 L 845 76 L 845 76 L 855 75 L 856 75 L 857 74 L 857 74 L 857 74 L 858 73 L 859 73 L 860 72 L 860 72 L 861 71 L 861 71 L 862 71 L 862 70 L 863 70 L 863 69 L 863 69 L 863 68 L 863 68 L 863 67 L 864 67 L 865 67 L 867 66 L 868 66 L 868 65 L 868 65 L 869 64 L 870 64 L 871 63 L 872 63 L 873 63 L 873 62 L 873 62 L 873 61 L 875 61 L 876 60 L 877 60 L 877 60 L 878 59 L 879 59 L 879 58 L 880 58 L 880 57 L 880 57 L 881 56 L 881 56 L 882 56 L 883 55 L 883 55 L 885 54 L 885 54 L 885 53 L 885 53 L 885 52 L 886 52 L 887 52 L 887 51 L 887 51 L 888 50 L 889 50 L 889 49 L 889 49 L 890 49 L 890 48 L 890 48 L 890 47 L 890 47 L 891 46 L 891 46 L 891 45 L 891 45 L 891 45 L 894 44 L 896 44 L 898 43 L 898 43 L 898 42 L 898 42 L 900 41 L 901 41 L 902 41 L 903 40 L 906 40 L 908 39 L 909 39 L 911 38 L 911 38 L 911 38 L 913 37 L 913 37 L 913 36 L 913 36 L 913 35 L 913 35 L 913 34 L 913 34 L 914 34 L 914 33 L 914 33 L 914 32 L 915 32 L 915 31 L 915 31 L 915 30 L 915 30 L 916 30 L 916 29 L 917 29 L 918 28 L 919 28 L 920 27 L 920 27 L 920 27 L 922 26 L 922 26 L 923 25 L 926 25 L 927 24 L 927 24 L 927 23 L 927 23 L 928 23 L 930 22 L 933 22 L 933 21 L 936 21 L 936 20 L 936 20 L 936 19 L 937 19 L 943 19 L 945 18" /><path stroke-width="2" class="series" d="M 58 345 L 61 345 L 78 344 L 79 344 L 79 343 L 79 343 L 79 342 L 79 342 L 79 342 L 79 341 L 79 341 L 79 340 L 80 340 L 80 339 L 80 339 L 80 338 L 80 338 L 80 338 L 80 337 L 81 337 L 82 336 L 82 336 L 83 335 L 84 335 L 84 335 L 84 334 L 84 334 L 86 333 L 87 333 L 88 332 L 89 332 L 90 331 L 96 331 L 96 331 L 96 330 L 96 330 L 96 329 L 96 329 L 99 328 L 100 328 L 101 327 L 104 327 L 108 327 L 110 326 L 118 326 L 120 325 L 124 325 L 129 324 L 131 324 L 147 324 L 148 323 L 148 323 L 150 322 L 151 322 L 151 321 L 151 321 L 151 320 L 151 320 L 151 320 L 151 319 L 151 319 L 151 318 L 151 318 L 151 317 L 151 317 L 151 316 L 151 316 L 151 316 L 151 315 L 151 315 L 151 314 L 152 314 L 152 313 L 152 313 L 152 313 L 152 312 L 152 312 L 152 311 L 152 311 L 152 310 L 152 310 L 152 309 L 152 309 L 152 309 L 152 308 L 152 308 L 152 307 L 152 307 L 152 306 L 152 306 L 152 305 L 152 305 L 152 305 L 152 304 L 152 304 L 152 303 L 152 303 L 152 302 L 152 302 L 152 302 L 152 301 L 153 301 L 153 300 L 153 300 L 153 299 L 153 299 L 154 298 L 154 298 L 154 298 L 154 297 L 154 297 L 154 296 L 154 296 L 154 295 L 154 295 L 154 294 L 154 294 L 154 294 L 154 293 L 154 293 L 154 292 L 155 292 L 155 291 L 155 291 L 156 291 L 156 290 L 156 290 L 156 289 L 160 289 L 160 288 L 161 288 L 162 287 L 162 287 L 165 287 L 167 286 L 168 286 L 170 285 L 171 285 L 173 284 L 173 284 L 174 283 L 177 283 L 177 283 L 178 282 L 179 282 L 179 281 L 181 281 L 181 280 L 181 280 L 181 280 L 183 279 L 184 279 L 184 278 L 185 278 L 185 277 L 185 277 L 186 276 L 188 276 L 189 276 L 192 275 L 193 275 L 193 274 L 195 274 L 195 273 L 195 273 L 197 272 L 204 272 L 204 272 L 205 271 L 212 271 L 212 270 L 212 270 L 212 269 L 212 269 L 213 269 L 215 268 L 217 268 L 217 267 L 225 267 L 227 266 L 228 266 L 231 265 L 233 265 L 233 265 L 234 264 L 239 264 L 246 263 L 253 263 L 254 262 L 254 262 L 254 261 L 254 261 L 256 261 L 265 260 L 270 260 L 270 259 L 274 259 L 275 258 L 275 258 L 286 258 L 286 257 L 287 257 L 287 256 L 288 256 L 291 255 L 293 255 L 295 254 L 296 254 L 299 254 L 305 253 L 305 253 L 306 252 L 306 252 L 306 251 L 307 251 L 310 250 L 316 250 L 329 250 L 334 249 L 337 249 L 337 248 L 339 248 L 340 247 L 340 247 L 340 247 L 340 246 L 340 246 L 340 245 L 340 245 L 341 244 L 341 244 L 341 243 L 341 243 L 341 243 L 341 242 L 341 242 L 342 241 L 344 241 L 344 240 L 344 240 L 345 239 L 345 239 L 346 239 L 346 238 L 346 238 L 346 237 L 346 237 L 346 236 L 346 236 L 347 236 L 348 235 L 349 235 L 349 234 L 349 234 L 349 233 L 349 233 L 350 232 L 350 232 L 350 232 L 351 231 L 352 231 L 352 230 L 352 230 L 353 229 L 354 229 L 355 228 L 357 228 L 359 228 L 359 227 L 360 227 L 360 226 L 360 226 L 360 225 L 361 225 L 362 225 L 363 224 L 365 224 L 365 223 L 366 223 L 368 222 L 370 222 L 370 221 L 372 221 L 373 221 L 373 220 L 374 220 L 374 219 L 379 219 L 380 218 L 381 218 L 385 217 L 387 217 L 391 217 L 392 216 L 392 216 L 393 215 L 394 215 L 394 214 L 397 214 L 399 214 L 401 213 L 401 213 L 403 212 L 404 212 L 404 211 L 404 211 L 404 210 L 405 210 L 405 210 L 405 209 L 406 209 L 407 208 L 407 208 L 408 207 L 412 207 L 418 206 L 418 206 L 418 206 L 422 205 L 424 205 L 425 204 L 425 204 L 427 203 L 428 203 L 428 203 L 428 202 L 428 202 L 428 201 L 428 201 L 428 200 L 429 200 L 429 199 L 430 199 L 433 199 L 433 198 L 433 198 L 433 197 L 433 197 L 433 196 L 433 196 L 434 195 L 434 195 L 434 195 L 434 194 L 434 194 L 434 193 L 438 193 L 441 192 L 441 192 L 442 192 L 454 191 L 455 191 L 459 190 L 461 190 L 469 189 L 471 189 L 473 188 L 474 188 L 474 188 L 474 187 L 474 187 L 474 186 L 474 186 L 474 185 L 476 185 L 477 184 L 486 184 L 488 184 L 491 183 L 498 183 L 503 182 L 507 182 L 510 181 L 515 181 L 515 181 L 525 180 L 536 180 L 536 179 L 543 179 L 543 178 L 549 178 L 550 177 L 553 177 L 554 177 L 554 176 L 554 176 L 558 175 L 559 175 L 562 174 L 566 174 L 567 173 L 568 173 L 569 173 L 572 172 L 576 172 L 576 171 L 581 171 L 585 170 L 586 170 L 586 170 L 588 169 L 589 169 L 590 168 L 594 168 L 597 167 L 599 167 L 602 166 L 602 166 L 608 166 L 609 165 L 612 165 L 617 164 L 617 164 L 623 163 L 623 163 L 623 162 L 625 162 L 626 162 L 628 161 L 628 161 L 631 160 L 634 160 L 635 159 L 635 159 L 636 159 L 644 158 L 644 158 L 645 157 L 645 157 L 646 156 L 646 156 L 647 155 L 647 155 L 648 155 L 650 154 L 650 154 L 652 153 L 652 153 L 653 152 L 654 152 L 654 151 L 654 151 L 655 151 L 656 150 L 656 150 L 657 149 L 657 149 L 657 148 L 657 148 L 658 148 L 660 147 L 660 147 L 660 146 L 661 146 L 662 145 L 663 145 L 664 144 L 665 144 L 665 144 L 667 143 L 668 143 L 669 142 L 669 142 L 670 141 L 672 141 L 672 140 L 672 140 L 672 140 L 673 139 L 673 139 L 673 138 L 674 138 L 674 137 L 675 137 L 679 137 L 680 136 L 681 136 L 682 135 L 684 135 L 686 134 L 687 134 L 689 133 L 692 133 L 695 133 L 697 132 L 698 132 L 698 131 L 699 131 L 699 130 L 700 130 L 700 129 L 700 129 L 701 129 L 701 128 L 701 128 L 702 127 L 703 127 L 704 126 L 704 126 L 706 126 L 706 125 L 709 125 L 709 124 L 709 124 L 710 123 L 711 123 L 714 122 L 717 122 L 721 122 L 722 121 L 722 121 L 722 120 L 724 120 L 727 119 L 727 119 L 727 118 L 727 118 L 728 118 L 730 117 L 733 117 L 734 116 L 734 116 L 734 115 L 736 115 L 737 115 L 737 114 L 737 114 L 737 113 L 740 113 L 744 112 L 745 112 L 749 111 L 749 111 L 750 111 L 754 110 L 756 110 L 759 109 L 761 109 L 762 108 L 764 108 L 764 107 L 764 107 L 765 107 L 765 106 L 765 106 L 766 105 L 766 105 L 766 104 L 767 104 L 767 104 L 768 103 L 769 103 L 770 102 L 770 102 L 776 101 L 777 101 L 782 100 L 785 100 L 785 100 L 786 99 L 787 99 L 790 98 L 790 98 L 791 97 L 791 97 L 792 96 L 792 96 L 792 96 L 792 95 L 792 95 L 793 94 L 793 94 L 793 93 L 793 93 L 794 92 L 795 92 L 795 92 L 795 91 L 797 91 L 797 90 L 797 90 L 798 89 L 799 89 L 800 89 L 800 88 L 800 88 L 802 87 L 805 87 L 805 86 L 805 86 L 805 85 L 805 85 L 806 85 L 807 84 L 807 84 L 808 83 L 810 83 L 813 82 L 817 82 L 818 82 L 820 81 L 824 81 L 828 80 L 828 80 L 831 79 L 836 79 L 836 78 L 836 78 L 842 78 L 844 77 L 844 77 L 845 76 L 845 76 L 855 75 L 856 75 L 857 74 L 857 74 L 857 74 L 858 73 L 859 73 L 860 72 L 860 72 L 861 71 L 861 71 L 862 71 L 862 70 L 863 70 L 863 69 L 863 69 L 863 68 L 863 68 L 863 67 L 864 67 L 865 67 L 867 66 L 868 66 L 868 65 L 868 65 L 869 64 L 870 64 L 871 63 L 872 63 L 873 63 L 873 62 L 873 62 L 873 61 L 875 61 L 876 60 L 877 60 L 877 60 L 878 59 L 879 59 L 879 58 L 880 58 L 880 57 L 880 57 L 881 56 L 881 56 L 882 56 L 883 55 L 883 55 L 885 54 L 885 54 L 885 53 L 885 53 L 885 52 L 886 52 L 887 52 L 887 51 L 887 51 L 888 50 L 889 50 L 889 49 L 889 49 L 890 49 L 890 48 L 890 48 L 890 47 L 890 47 L 891 46 L 891 46 L 891 45 L 891 45 L 891 45 L 894 44 L 896 44 L 898 43 L 898 43 L 898 42 L 898 42 L 900 41 L 901 41 L 902 41 L 903 40 L 906 40 L 908 39 L 909 39 L 911 38 L 911 38 L 911 38 L 913 37 L 913 37 L 913 36 L 913 36 L 913 35 L 913 35 L 913 34 L 913 34 L 914 34 L 914 33 L 914 33 L 914 32 L 915 32 L 915 31 L 915 31 L 915 30 L 915 30 L 916 30 L 916 29 L 917 29 L 918 28 L 919 28 L 920 27 L 920 27 L 920 27 L 922 26 L 922 26 L 923 25 L 926 25 L 927 24 L 927 24 L 927 23 L 927 23 L 928 23 L 930 22 L 933 22 L 933 21 L 936 21 L 936 20 L 936 20 L 936 19 L 937 19 L 943 19 L 945 18"></path><path stroke-width="2" d="M 945 346 L 945.000000 15.000000" /><path stroke-width="2" d="M 945 346 L 945.000000 15.000000"></path><path stroke-width="2" d="M 945 346 L 950 346" /><path stroke-width="2" d="M 945 346 L 950 346"></path><text xmlns="http://www.w3.org/2000/svg" x="955" y="352">0</text><path stroke-width="2" d="M 945 309 L 950 309" /><path stroke-width="2" d="M 945 309 L 950 309"></path><text xmlns="http://www.w3.org/2000/svg" x="955" y="315">84</text><path stroke-width="2" d="M 945 272 L 950 272" /><path stroke-width="2" d="M 945 272 L 950 272"></path><text xmlns="http://www.w3.org/2000/svg" x="955" y="278">167</text><path stroke-width="2" d="M 945 236 L 950 236" /><path stroke-width="2" d="M 945 236 L 950 236"></path><text xmlns="http://www.w3.org/2000/svg" x="955" y="242">250</text><path stroke-width="2" d="M 945 199 L 950 199" /><path stroke-width="2" d="M 945 199 L 950 199"></path><text xmlns="http://www.w3.org/2000/svg" x="955" y="205">334</text><path stroke-width="2" d="M 945 162 L 950 162" /><path d="M 945 162 L 950 162" stroke-width="2"></path><text y="168" xmlns="http://www.w3.org/2000/svg" x="955">417</text><path stroke-width="2" d="M 945 126 L 950 126" /><path stroke-width="2" d="M 945 126 L 950 126"></path><text xmlns="http://www.w3.org/2000/svg" x="955" y="132">500</text><path d="M 945 89 L 950 89" stroke-width="2" /><path stroke-width="2" d="M 945 89 L 950 89"></path><text xmlns="http://www.w3.org/2000/svg" x="955" y="95">584</text><path stroke-width="2" d="M 945 52 L 950 52" /><path stroke-width="2" d="M 945 52 L 950 52"></path><text xmlns="http://www.w3.org/2000/svg" x="955" y="58">667</text><path stroke-width="2" d="M 945 16 L 950 16" /><path stroke-width="2" d="M 945 16 L 950 16"></path><text xmlns="http://www.w3.org/2000/svg" x="955" y="22">750</text><text xmlns="http://www.w3.org/2000/svg" x="987" y="175" transform="rotate(90.00,987,175)">Stargazers</text><path stroke-width="2" d="M 57.000000 346.000000 L 945 346" /><path stroke-width="2" d="M 57.000000 346.000000 L 945 346"></path><path stroke-width="2" d="M 58 346 L 58 351" /><path stroke-width="2" d="M 58 346 L 58 351"></path><text xmlns="http://www.w3.org/2000/svg" x="25" y="368">2023-04-02</text><path stroke-width="2" d="M 157 346 L 157 351" /><path stroke-width="2" d="M 157 346 L 157 351"></path><text xmlns="http://www.w3.org/2000/svg" x="124" y="368">2023-06-09</text><path d="M 256 346 L 256 351" stroke-width="2" /><path stroke-width="2" d="M 256 346 L 256 351"></path><text y="368" xmlns="http://www.w3.org/2000/svg" x="223">2023-08-17</text><path stroke-width="2" d="M 354 346 L 354 351" /><path stroke-width="2" d="M 354 346 L 354 351"></path><text y="368" xmlns="http://www.w3.org/2000/svg" x="321">2023-10-24</text><path d="M 453 346 L 453 351" stroke-width="2" /><path stroke-width="2" d="M 453 346 L 453 351"></path><text y="368" xmlns="http://www.w3.org/2000/svg" x="420">2024-01-01</text><path stroke-width="2" d="M 551 346 L 551 351" /><path stroke-width="2" d="M 551 346 L 551 351"></path><text xmlns="http://www.w3.org/2000/svg" x="518" y="368">2024-03-09</text><path d="M 650 346 L 650 351" stroke-width="2" /><path stroke-width="2" d="M 650 346 L 650 351"></path><text xmlns="http://www.w3.org/2000/svg" x="617" y="368">2024-05-17</text><path stroke-width="2" d="M 748 346 L 748 351" /><path stroke-width="2" d="M 748 346 L 748 351"></path><text xmlns="http://www.w3.org/2000/svg" x="715" y="368">2024-07-24</text><path stroke-width="2" d="M 847 346 L 847 351" /><path stroke-width="2" d="M 847 346 L 847 351"></path><text xmlns="http://www.w3.org/2000/svg" x="814" y="368">2024-10-01</text><path stroke-width="2" d="M 945 346 L 945 351" /><path stroke-width="2" d="M 945 346 L 945 351"></path><text xmlns="http://www.w3.org/2000/svg" x="912" y="368">2024-12-09</text><text xmlns="http://www.w3.org/2000/svg" x="487" y="390">Time</text></svg>