<svg xmlns="http://www.w3.org/2000/svg" xmlns:xlink="http://www.w3.org/1999/xlink" width="1024" height="400">\n<path  d="M 0 0
L 1024 0
L 1024 400
L 0 400
L 0 0" style="stroke-width:0;stroke:rgba(255,255,255,1.0);fill:rgba(255,255,255,1.0)"/><path  d="M 38 11
L 965 11
L 965 351
L 38 351
L 38 11" style="stroke-width:0;stroke:rgba(255,255,255,1.0);fill:rgba(255,255,255,1.0)"/><path  d="M 38 351
L 965 351" style="stroke-width:2;stroke:rgba(85,85,85,1.0);fill:none"/><path  d="M 38 351
L 38 356" style="stroke-width:2;stroke:rgba(85,85,85,1.0);fill:none"/><text x="5" y="373" style="stroke-width:0;stroke:none;fill:rgba(51,51,51,1.0);font-size:12.8px;font-family:'Roboto Medium',sans-serif">2023-04-02</text><path  d="M 154 351
L 154 356" style="stroke-width:2;stroke:rgba(85,85,85,1.0);fill:none"/><text x="121" y="373" style="stroke-width:0;stroke:none;fill:rgba(51,51,51,1.0);font-size:12.8px;font-family:'Roboto Medium',sans-serif">2023-04-27</text><path  d="M 270 351
L 270 356" style="stroke-width:2;stroke:rgba(85,85,85,1.0);fill:none"/><text x="237" y="373" style="stroke-width:0;stroke:none;fill:rgba(51,51,51,1.0);font-size:12.8px;font-family:'Roboto Medium',sans-serif">2023-05-21</text><path  d="M 386 351
L 386 356" style="stroke-width:2;stroke:rgba(85,85,85,1.0);fill:none"/><text x="353" y="373" style="stroke-width:0;stroke:none;fill:rgba(51,51,51,1.0);font-size:12.8px;font-family:'Roboto Medium',sans-serif">2023-06-15</text><path  d="M 502 351
L 502 356" style="stroke-width:2;stroke:rgba(85,85,85,1.0);fill:none"/><text x="469" y="373" style="stroke-width:0;stroke:none;fill:rgba(51,51,51,1.0);font-size:12.8px;font-family:'Roboto Medium',sans-serif">2023-07-10</text><path  d="M 618 351
L 618 356" style="stroke-width:2;stroke:rgba(85,85,85,1.0);fill:none"/><text x="585" y="373" style="stroke-width:0;stroke:none;fill:rgba(51,51,51,1.0);font-size:12.8px;font-family:'Roboto Medium',sans-serif">2023-08-03</text><path  d="M 734 351
L 734 356" style="stroke-width:2;stroke:rgba(85,85,85,1.0);fill:none"/><text x="701" y="373" style="stroke-width:0;stroke:none;fill:rgba(51,51,51,1.0);font-size:12.8px;font-family:'Roboto Medium',sans-serif">2023-08-28</text><path  d="M 850 351
L 850 356" style="stroke-width:2;stroke:rgba(85,85,85,1.0);fill:none"/><text x="817" y="373" style="stroke-width:0;stroke:none;fill:rgba(51,51,51,1.0);font-size:12.8px;font-family:'Roboto Medium',sans-serif">2023-09-22</text><path  d="M 965 351
L 965 356" style="stroke-width:2;stroke:rgba(85,85,85,1.0);fill:none"/><text x="932" y="373" style="stroke-width:0;stroke:none;fill:rgba(51,51,51,1.0);font-size:12.8px;font-family:'Roboto Medium',sans-serif">2023-10-16</text><text x="487" y="395" style="stroke-width:0;stroke:none;fill:rgba(51,51,51,1.0);font-size:12.8px;font-family:'Roboto Medium',sans-serif">Time</text><path  d="M 967 351
L 967 11" style="stroke-width:2;stroke:rgba(85,85,85,1.0);fill:none"/><path  d="M 967 351
L 972 351" style="stroke-width:2;stroke:rgba(85,85,85,1.0);fill:none"/><text x="977" y="357" style="stroke-width:0;stroke:none;fill:rgba(51,51,51,1.0);font-size:12.8px;font-family:'Roboto Medium',sans-serif">0</text><path  d="M 967 307
L 972 307" style="stroke-width:2;stroke:rgba(85,85,85,1.0);fill:none"/><text x="977" y="313" style="stroke-width:0;stroke:none;fill:rgba(51,51,51,1.0);font-size:12.8px;font-family:'Roboto Medium',sans-serif">32</text><path  d="M 967 265
L 972 265" style="stroke-width:2;stroke:rgba(85,85,85,1.0);fill:none"/><text x="977" y="271" style="stroke-width:0;stroke:none;fill:rgba(51,51,51,1.0);font-size:12.8px;font-family:'Roboto Medium',sans-serif">63</text><path  d="M 967 223
L 972 223" style="stroke-width:2;stroke:rgba(85,85,85,1.0);fill:none"/><text x="977" y="229" style="stroke-width:0;stroke:none;fill:rgba(51,51,51,1.0);font-size:12.8px;font-family:'Roboto Medium',sans-serif">94</text><path  d="M 967 181
L 972 181" style="stroke-width:2;stroke:rgba(85,85,85,1.0);fill:none"/><text x="977" y="187" style="stroke-width:0;stroke:none;fill:rgba(51,51,51,1.0);font-size:12.8px;font-family:'Roboto Medium',sans-serif">125</text><path  d="M 967 137
L 972 137" style="stroke-width:2;stroke:rgba(85,85,85,1.0);fill:none"/><text x="977" y="143" style="stroke-width:0;stroke:none;fill:rgba(51,51,51,1.0);font-size:12.8px;font-family:'Roboto Medium',sans-serif">157</text><path  d="M 967 95
L 972 95" style="stroke-width:2;stroke:rgba(85,85,85,1.0);fill:none"/><text x="977" y="101" style="stroke-width:0;stroke:none;fill:rgba(51,51,51,1.0);font-size:12.8px;font-family:'Roboto Medium',sans-serif">188</text><path  d="M 967 53
L 972 53" style="stroke-width:2;stroke:rgba(85,85,85,1.0);fill:none"/><text x="977" y="59" style="stroke-width:0;stroke:none;fill:rgba(51,51,51,1.0);font-size:12.8px;font-family:'Roboto Medium',sans-serif">219</text><path  d="M 967 11
L 972 11" style="stroke-width:2;stroke:rgba(85,85,85,1.0);fill:none"/><text x="977" y="17" style="stroke-width:0;stroke:none;fill:rgba(51,51,51,1.0);font-size:12.8px;font-family:'Roboto Medium',sans-serif">250</text><text x="1009" y="150" style="stroke-width:0;stroke:none;fill:rgba(51,51,51,1.0);font-size:12.8px;font-family:'Roboto Medium',sans-serif" transform="rotate(90.00,1009,150)">Stargazers</text><path  d="M 38 351
L 47 349
L 104 348
L 105 346
L 105 345
L 105 344
L 105 342
L 105 341
L 105 340
L 105 338
L 107 337
L 107 336
L 107 334
L 107 333
L 107 331
L 108 330
L 108 329
L 108 327
L 109 326
L 109 325
L 112 323
L 114 322
L 114 321
L 118 319
L 121 318
L 121 317
L 121 315
L 123 314
L 124 312
L 127 311
L 133 310
L 134 308
L 138 307
L 142 306
L 160 304
L 160 303
L 160 302
L 160 300
L 160 299
L 161 297
L 161 296
L 171 295
L 175 293
L 179 292
L 187 291
L 201 289
L 207 288
L 232 287
L 240 285
L 254 284
L 268 283
L 274 281
L 327 280
L 330 278
L 330 277
L 337 276
L 339 274
L 339 273
L 339 272
L 339 270
L 339 269
L 339 268
L 339 266
L 339 265
L 340 263
L 340 262
L 340 261
L 341 259
L 342 258
L 342 257
L 342 255
L 342 254
L 342 253
L 342 251
L 342 250
L 342 249
L 342 247
L 342 246
L 342 244
L 342 243
L 342 242
L 342 240
L 342 239
L 342 238
L 342 236
L 343 235
L 343 234
L 343 232
L 343 231
L 343 229
L 343 228
L 343 227
L 343 225
L 343 224
L 343 223
L 343 221
L 343 220
L 343 219
L 343 217
L 343 216
L 344 215
L 344 213
L 345 212
L 345 210
L 346 209
L 347 208
L 347 206
L 348 205
L 348 204
L 351 202
L 351 201
L 351 200
L 351 198
L 351 197
L 351 195
L 351 194
L 351 193
L 351 191
L 351 190
L 351 189
L 351 187
L 352 186
L 352 185
L 352 183
L 352 182
L 352 181
L 354 179
L 357 178
L 357 176
L 358 175
L 358 174
L 370 172
L 371 171
L 371 170
L 376 168
L 376 167
L 384 166
L 393 164
L 396 163
L 403 161
L 406 160
L 412 159
L 414 157
L 415 156
L 424 155
L 424 153
L 427 152
L 431 151
L 433 149
L 437 148
L 437 147
L 438 145
L 439 144
L 443 142
L 448 141
L 448 140
L 450 138
L 451 137
L 451 136
L 455 134
L 461 133
L 465 132
L 473 130
L 476 129
L 479 127
L 483 126
L 483 125
L 484 123
L 489 122
L 512 121
L 513 119
L 517 118
L 538 117
L 539 115
L 539 114
L 539 113
L 540 111
L 544 110
L 550 108
L 554 107
L 555 106
L 582 104
L 587 103
L 593 102
L 601 100
L 606 99
L 607 98
L 610 96
L 629 95
L 649 93
L 673 92
L 675 91
L 675 89
L 676 88
L 677 87
L 682 85
L 714 84
L 728 83
L 729 81
L 741 80
L 744 79
L 746 77
L 780 76
L 780 74
L 783 73
L 784 72
L 789 70
L 798 69
L 802 68
L 810 66
L 814 65
L 822 64
L 842 62
L 842 61
L 846 59
L 846 58
L 847 57
L 849 55
L 859 54
L 859 53
L 879 51
L 907 50
L 922 49
L 938 47
L 939 46
L 947 45
L 948 43
L 954 42
L 958 40
L 958 39
L 958 38
L 958 36
L 959 35
L 959 34
L 959 32
L 959 31
L 959 30
L 960 28
L 960 27
L 960 25
L 960 24
L 962 23
L 963 21
L 965 20" style="stroke-width:2;stroke:rgba(129,199,239,1.0);fill:none"/></svg>