<svg xmlns="http://www.w3.org/2000/svg" xmlns:xlink="http://www.w3.org/1999/xlink" width="1024" height="400">\n<path  d="M 0 0
L 1024 0
L 1024 400
L 0 400
L 0 0" style="stroke-width:0;stroke:rgba(255,255,255,1.0);fill:rgba(255,255,255,1.0)"/><path  d="M 38 11
L 965 11
L 965 351
L 38 351
L 38 11" style="stroke-width:0;stroke:rgba(255,255,255,1.0);fill:rgba(255,255,255,1.0)"/><path  d="M 38 351
L 965 351" style="stroke-width:2;stroke:rgba(85,85,85,1.0);fill:none"/><path  d="M 38 351
L 38 356" style="stroke-width:2;stroke:rgba(85,85,85,1.0);fill:none"/><text x="5" y="373" style="stroke-width:0;stroke:none;fill:rgba(51,51,51,1.0);font-size:12.8px;font-family:'Roboto Medium',sans-serif">2023-04-02</text><path  d="M 154 351
L 154 356" style="stroke-width:2;stroke:rgba(85,85,85,1.0);fill:none"/><text x="121" y="373" style="stroke-width:0;stroke:none;fill:rgba(51,51,51,1.0);font-size:12.8px;font-family:'Roboto Medium',sans-serif">2023-05-01</text><path  d="M 270 351
L 270 356" style="stroke-width:2;stroke:rgba(85,85,85,1.0);fill:none"/><text x="237" y="373" style="stroke-width:0;stroke:none;fill:rgba(51,51,51,1.0);font-size:12.8px;font-family:'Roboto Medium',sans-serif">2023-05-31</text><path  d="M 386 351
L 386 356" style="stroke-width:2;stroke:rgba(85,85,85,1.0);fill:none"/><text x="353" y="373" style="stroke-width:0;stroke:none;fill:rgba(51,51,51,1.0);font-size:12.8px;font-family:'Roboto Medium',sans-serif">2023-06-29</text><path  d="M 502 351
L 502 356" style="stroke-width:2;stroke:rgba(85,85,85,1.0);fill:none"/><text x="469" y="373" style="stroke-width:0;stroke:none;fill:rgba(51,51,51,1.0);font-size:12.8px;font-family:'Roboto Medium',sans-serif">2023-07-28</text><path  d="M 618 351
L 618 356" style="stroke-width:2;stroke:rgba(85,85,85,1.0);fill:none"/><text x="585" y="373" style="stroke-width:0;stroke:none;fill:rgba(51,51,51,1.0);font-size:12.8px;font-family:'Roboto Medium',sans-serif">2023-08-27</text><path  d="M 734 351
L 734 356" style="stroke-width:2;stroke:rgba(85,85,85,1.0);fill:none"/><text x="701" y="373" style="stroke-width:0;stroke:none;fill:rgba(51,51,51,1.0);font-size:12.8px;font-family:'Roboto Medium',sans-serif">2023-09-25</text><path  d="M 850 351
L 850 356" style="stroke-width:2;stroke:rgba(85,85,85,1.0);fill:none"/><text x="817" y="373" style="stroke-width:0;stroke:none;fill:rgba(51,51,51,1.0);font-size:12.8px;font-family:'Roboto Medium',sans-serif">2023-10-25</text><path  d="M 965 351
L 965 356" style="stroke-width:2;stroke:rgba(85,85,85,1.0);fill:none"/><text x="932" y="373" style="stroke-width:0;stroke:none;fill:rgba(51,51,51,1.0);font-size:12.8px;font-family:'Roboto Medium',sans-serif">2023-11-23</text><text x="487" y="395" style="stroke-width:0;stroke:none;fill:rgba(51,51,51,1.0);font-size:12.8px;font-family:'Roboto Medium',sans-serif">Time</text><path  d="M 967 351
L 967 11" style="stroke-width:2;stroke:rgba(85,85,85,1.0);fill:none"/><path  d="M 967 351
L 972 351" style="stroke-width:2;stroke:rgba(85,85,85,1.0);fill:none"/><text x="977" y="357" style="stroke-width:0;stroke:none;fill:rgba(51,51,51,1.0);font-size:12.8px;font-family:'Roboto Medium',sans-serif">0</text><path  d="M 967 308
L 972 308" style="stroke-width:2;stroke:rgba(85,85,85,1.0);fill:none"/><text x="977" y="314" style="stroke-width:0;stroke:none;fill:rgba(51,51,51,1.0);font-size:12.8px;font-family:'Roboto Medium',sans-serif">39</text><path  d="M 967 265
L 972 265" style="stroke-width:2;stroke:rgba(85,85,85,1.0);fill:none"/><text x="977" y="271" style="stroke-width:0;stroke:none;fill:rgba(51,51,51,1.0);font-size:12.8px;font-family:'Roboto Medium',sans-serif">78</text><path  d="M 967 222
L 972 222" style="stroke-width:2;stroke:rgba(85,85,85,1.0);fill:none"/><text x="977" y="228" style="stroke-width:0;stroke:none;fill:rgba(51,51,51,1.0);font-size:12.8px;font-family:'Roboto Medium',sans-serif">117</text><path  d="M 967 181
L 972 181" style="stroke-width:2;stroke:rgba(85,85,85,1.0);fill:none"/><text x="977" y="187" style="stroke-width:0;stroke:none;fill:rgba(51,51,51,1.0);font-size:12.8px;font-family:'Roboto Medium',sans-serif">155</text><path  d="M 967 138
L 972 138" style="stroke-width:2;stroke:rgba(85,85,85,1.0);fill:none"/><text x="977" y="144" style="stroke-width:0;stroke:none;fill:rgba(51,51,51,1.0);font-size:12.8px;font-family:'Roboto Medium',sans-serif">194</text><path  d="M 967 95
L 972 95" style="stroke-width:2;stroke:rgba(85,85,85,1.0);fill:none"/><text x="977" y="101" style="stroke-width:0;stroke:none;fill:rgba(51,51,51,1.0);font-size:12.8px;font-family:'Roboto Medium',sans-serif">233</text><path  d="M 967 52
L 972 52" style="stroke-width:2;stroke:rgba(85,85,85,1.0);fill:none"/><text x="977" y="58" style="stroke-width:0;stroke:none;fill:rgba(51,51,51,1.0);font-size:12.8px;font-family:'Roboto Medium',sans-serif">272</text><path  d="M 967 11
L 972 11" style="stroke-width:2;stroke:rgba(85,85,85,1.0);fill:none"/><text x="977" y="17" style="stroke-width:0;stroke:none;fill:rgba(51,51,51,1.0);font-size:12.8px;font-family:'Roboto Medium',sans-serif">310</text><text x="1009" y="150" style="stroke-width:0;stroke:none;fill:rgba(51,51,51,1.0);font-size:12.8px;font-family:'Roboto Medium',sans-serif" transform="rotate(90.00,1009,150)">Stargazers</text><path  d="M 38 351
L 46 349
L 93 348
L 95 347
L 95 346
L 95 345
L 95 344
L 95 343
L 95 342
L 95 341
L 96 340
L 96 338
L 96 337
L 96 336
L 96 335
L 96 334
L 97 333
L 97 332
L 98 331
L 98 330
L 100 329
L 102 327
L 102 326
L 106 325
L 108 324
L 108 323
L 108 322
L 110 321
L 113 320
L 118 319
L 118 318
L 122 317
L 125 315
L 140 314
L 140 313
L 140 312
L 141 311
L 141 310
L 141 309
L 141 308
L 150 307
L 154 306
L 156 304
L 163 303
L 175 302
L 180 301
L 201 300
L 208 299
L 219 298
L 231 297
L 236 296
L 281 295
L 283 293
L 284 292
L 290 291
L 291 290
L 291 289
L 291 288
L 291 287
L 291 286
L 291 285
L 291 284
L 291 283
L 292 281
L 292 280
L 292 279
L 292 278
L 293 277
L 293 276
L 293 275
L 293 274
L 293 273
L 293 272
L 293 270
L 293 269
L 293 268
L 293 267
L 293 266
L 293 265
L 294 264
L 294 263
L 294 262
L 294 261
L 294 259
L 294 258
L 294 257
L 294 256
L 294 255
L 294 254
L 294 253
L 294 252
L 294 251
L 294 250
L 294 249
L 294 247
L 294 246
L 294 245
L 295 244
L 295 243
L 295 242
L 295 241
L 296 240
L 296 239
L 297 238
L 297 236
L 298 235
L 298 234
L 299 233
L 301 232
L 301 231
L 301 230
L 301 229
L 301 228
L 301 227
L 301 225
L 301 224
L 301 223
L 301 222
L 301 221
L 301 220
L 301 219
L 302 218
L 302 217
L 302 216
L 302 215
L 303 213
L 306 212
L 306 211
L 307 210
L 307 209
L 317 208
L 318 207
L 318 206
L 322 205
L 322 204
L 329 202
L 337 201
L 339 200
L 345 199
L 347 198
L 352 197
L 354 196
L 355 195
L 362 194
L 363 193
L 365 191
L 368 190
L 370 189
L 373 188
L 373 187
L 374 186
L 375 185
L 378 184
L 382 183
L 382 182
L 384 181
L 385 179
L 385 178
L 388 177
L 393 176
L 397 175
L 404 174
L 406 173
L 408 172
L 412 171
L 412 170
L 412 168
L 417 167
L 436 166
L 437 165
L 440 164
L 458 163
L 459 162
L 459 161
L 459 160
L 460 159
L 463 157
L 469 156
L 472 155
L 473 154
L 495 153
L 499 152
L 504 151
L 511 150
L 516 149
L 516 148
L 519 147
L 534 145
L 552 144
L 571 143
L 573 142
L 573 141
L 574 140
L 575 139
L 579 138
L 606 137
L 618 136
L 619 134
L 629 133
L 631 132
L 632 131
L 662 130
L 662 129
L 664 128
L 665 127
L 669 126
L 677 125
L 680 123
L 686 122
L 690 121
L 696 120
L 713 119
L 714 118
L 717 117
L 717 116
L 718 115
L 719 114
L 727 113
L 728 111
L 744 110
L 768 109
L 781 108
L 794 107
L 795 106
L 802 105
L 803 104
L 807 103
L 811 102
L 811 100
L 811 99
L 811 98
L 811 97
L 811 96
L 811 95
L 811 94
L 812 93
L 812 92
L 812 91
L 813 89
L 813 88
L 814 87
L 815 86
L 817 85
L 820 84
L 822 83
L 822 82
L 822 81
L 823 80
L 827 79
L 827 77
L 827 76
L 827 75
L 827 74
L 828 73
L 828 72
L 830 71
L 831 70
L 832 69
L 834 68
L 834 66
L 835 65
L 835 64
L 835 63
L 838 62
L 838 61
L 839 60
L 839 59
L 842 58
L 842 57
L 843 55
L 846 54
L 849 53
L 851 52
L 856 51
L 863 50
L 863 49
L 865 48
L 866 47
L 866 46
L 866 45
L 866 43
L 871 42
L 873 41
L 879 40
L 879 39
L 881 38
L 886 37
L 891 36
L 891 35
L 899 34
L 900 32
L 902 31
L 904 30
L 904 29
L 918 28
L 921 27
L 922 26
L 932 25
L 938 24
L 949 23
L 952 21
L 953 20
L 956 19
L 957 18
L 957 17
L 965 16" style="stroke-width:2;stroke:rgba(129,199,239,1.0);fill:none"/></svg>