<svg xmlns="http://www.w3.org/2000/svg" xmlns:xlink="http://www.w3.org/1999/xlink" width="1024px" height="400px"><style type="text/css">
path { fill: none; stroke: rgb(51,51,51); }
path.series { stroke: #6b63ff; }
rect.background { fill: rgb(255,255,255); stroke: none; }

text {
	stroke-width: 0;
	stroke: none;
	fill: rgba(51,51,51,1.0);
	font-size: 12.8px;
	font-family: 'Roboto Medium', sans-serif;
}
</style><rect class="background" rx="8" x="0" y="0" width="1024px" height="400px" /><rect x="0" y="0" width="1024px" height="400px" class="background" rx="8"></rect><path stroke-width="2" class="series" d="M 58 345 L 62 344 L 87 343 L 88 343 L 88 342 L 88 341 L 88 341 L 88 340 L 88 339 L 88 339 L 89 338 L 89 337 L 89 337 L 89 336 L 89 335 L 89 335 L 89 334 L 90 333 L 90 332 L 91 332 L 92 331 L 92 330 L 94 330 L 95 329 L 95 328 L 95 328 L 96 327 L 98 326 L 100 326 L 101 325 L 102 324 L 104 324 L 112 323 L 112 322 L 112 321 L 112 321 L 112 320 L 112 319 L 117 319 L 119 318 L 120 317 L 124 317 L 130 316 L 133 315 L 144 315 L 148 314 L 154 313 L 160 313 L 163 312 L 186 311 L 187 310 L 188 310 L 191 309 L 191 308 L 191 308 L 191 307 L 191 306 L 191 306 L 191 305 L 191 304 L 191 304 L 192 303 L 192 302 L 192 302 L 192 301 L 193 300 L 193 299 L 193 299 L 193 298 L 193 297 L 193 297 L 193 296 L 193 295 L 193 295 L 193 294 L 193 293 L 193 293 L 193 292 L 193 291 L 193 291 L 193 290 L 193 289 L 193 288 L 193 288 L 193 287 L 193 286 L 193 286 L 193 285 L 193 284 L 193 284 L 193 283 L 193 282 L 193 282 L 193 281 L 193 280 L 193 280 L 193 279 L 193 278 L 194 277 L 194 277 L 194 276 L 195 275 L 195 275 L 195 274 L 195 273 L 195 273 L 197 272 L 197 271 L 197 271 L 197 270 L 197 269 L 197 269 L 197 268 L 197 267 L 197 266 L 197 266 L 197 265 L 197 264 L 197 264 L 197 263 L 197 262 L 197 262 L 197 261 L 198 260 L 199 260 L 199 259 L 200 258 L 200 258 L 205 257 L 206 256 L 206 255 L 208 255 L 208 254 L 211 253 L 215 253 L 216 252 L 220 251 L 221 251 L 224 250 L 224 249 L 225 249 L 229 248 L 229 247 L 230 247 L 232 246 L 233 245 L 234 244 L 235 244 L 235 243 L 235 242 L 237 242 L 239 241 L 239 240 L 240 240 L 241 239 L 241 238 L 242 238 L 245 237 L 247 236 L 251 236 L 252 235 L 253 234 L 255 233 L 255 233 L 255 232 L 258 231 L 268 231 L 268 230 L 270 229 L 279 229 L 280 228 L 280 227 L 280 227 L 280 226 L 282 225 L 285 225 L 286 224 L 287 223 L 298 222 L 301 222 L 303 221 L 307 220 L 309 220 L 310 219 L 311 218 L 319 218 L 328 217 L 339 216 L 340 216 L 340 215 L 340 214 L 341 214 L 343 213 L 357 212 L 363 211 L 364 211 L 369 210 L 370 209 L 371 209 L 386 208 L 386 207 L 387 207 L 388 206 L 390 205 L 394 205 L 396 204 L 399 203 L 401 203 L 405 202 L 413 201 L 414 200 L 415 200 L 415 199 L 416 198 L 416 198 L 421 197 L 430 196 L 449 196 L 456 195 L 460 194 L 461 194 L 463 193 L 465 192 L 465 192 L 465 191 L 465 190 L 465 189 L 465 189 L 465 188 L 465 187 L 465 187 L 466 186 L 466 185 L 466 185 L 466 184 L 466 183 L 467 183 L 468 182 L 470 181 L 471 181 L 471 180 L 471 179 L 471 178 L 473 178 L 473 177 L 473 176 L 473 176 L 473 175 L 474 174 L 474 174 L 475 173 L 476 172 L 477 172 L 477 171 L 477 170 L 478 170 L 478 169 L 479 168 L 479 167 L 479 167 L 480 166 L 481 165 L 481 165 L 482 164 L 483 163 L 485 163 L 486 162 L 489 161 L 492 161 L 492 160 L 493 159 L 494 159 L 494 158 L 494 157 L 494 156 L 497 156 L 498 155 L 500 154 L 501 154 L 502 153 L 505 152 L 507 152 L 507 151 L 511 150 L 512 150 L 513 149 L 514 148 L 514 148 L 521 147 L 523 146 L 523 145 L 529 145 L 532 144 L 537 143 L 539 143 L 539 142 L 541 141 L 542 141 L 542 140 L 546 139 L 550 139 L 552 138 L 553 137 L 555 137 L 557 136 L 557 135 L 557 134 L 557 134 L 558 133 L 558 132 L 558 132 L 560 131 L 560 130 L 560 130 L 562 129 L 569 128 L 577 128 L 577 127 L 577 126 L 583 126 L 585 125 L 587 124 L 587 123 L 589 123 L 591 122 L 591 121 L 591 121 L 591 120 L 591 119 L 592 119 L 592 118 L 593 117 L 593 117 L 594 116 L 598 115 L 598 115 L 598 114 L 598 113 L 599 112 L 599 112 L 599 111 L 599 110 L 599 110 L 599 109 L 599 108 L 600 108 L 600 107 L 606 106 L 610 106 L 610 105 L 612 104 L 619 104 L 629 103 L 630 102 L 635 101 L 640 101 L 650 100 L 653 99 L 657 99 L 657 98 L 657 97 L 657 97 L 658 96 L 658 95 L 658 95 L 658 94 L 660 93 L 662 92 L 674 92 L 678 91 L 683 90 L 693 90 L 700 89 L 705 88 L 709 88 L 717 87 L 717 86 L 732 86 L 747 85 L 747 84 L 757 84 L 758 83 L 766 82 L 768 82 L 772 81 L 772 80 L 773 79 L 774 79 L 778 78 L 780 77 L 784 77 L 790 76 L 791 75 L 793 75 L 794 74 L 799 73 L 805 73 L 805 72 L 812 71 L 818 71 L 819 70 L 819 69 L 822 68 L 824 68 L 825 67 L 830 66 L 834 66 L 839 65 L 842 64 L 843 64 L 851 63 L 852 62 L 856 62 L 864 61 L 864 60 L 872 60 L 873 59 L 873 58 L 875 57 L 876 57 L 880 56 L 880 55 L 884 55 L 888 54 L 889 53 L 890 53 L 890 52 L 903 51 L 903 51 L 904 50 L 904 49 L 905 49 L 906 48 L 907 47 L 907 46 L 908 46 L 911 45 L 911 44 L 914 44 L 915 43 L 916 42 L 917 42 L 918 41 L 918 40 L 919 40 L 919 39 L 920 38 L 921 38 L 921 37 L 921 36 L 922 35 L 923 35 L 926 34 L 926 33 L 926 33 L 928 32 L 928 31 L 930 31 L 932 30 L 932 29 L 933 29 L 936 28 L 938 27 L 938 27 L 939 26 L 940 25 L 943 24 L 943 24 L 943 23 L 944 22 L 944 22 L 944 21 L 945 20 L 945 20" /><path class="series" d="M 58 345 L 62 344 L 87 343 L 88 343 L 88 342 L 88 341 L 88 341 L 88 340 L 88 339 L 88 339 L 89 338 L 89 337 L 89 337 L 89 336 L 89 335 L 89 335 L 89 334 L 90 333 L 90 332 L 91 332 L 92 331 L 92 330 L 94 330 L 95 329 L 95 328 L 95 328 L 96 327 L 98 326 L 100 326 L 101 325 L 102 324 L 104 324 L 112 323 L 112 322 L 112 321 L 112 321 L 112 320 L 112 319 L 117 319 L 119 318 L 120 317 L 124 317 L 130 316 L 133 315 L 144 315 L 148 314 L 154 313 L 160 313 L 163 312 L 186 311 L 187 310 L 188 310 L 191 309 L 191 308 L 191 308 L 191 307 L 191 306 L 191 306 L 191 305 L 191 304 L 191 304 L 192 303 L 192 302 L 192 302 L 192 301 L 193 300 L 193 299 L 193 299 L 193 298 L 193 297 L 193 297 L 193 296 L 193 295 L 193 295 L 193 294 L 193 293 L 193 293 L 193 292 L 193 291 L 193 291 L 193 290 L 193 289 L 193 288 L 193 288 L 193 287 L 193 286 L 193 286 L 193 285 L 193 284 L 193 284 L 193 283 L 193 282 L 193 282 L 193 281 L 193 280 L 193 280 L 193 279 L 193 278 L 194 277 L 194 277 L 194 276 L 195 275 L 195 275 L 195 274 L 195 273 L 195 273 L 197 272 L 197 271 L 197 271 L 197 270 L 197 269 L 197 269 L 197 268 L 197 267 L 197 266 L 197 266 L 197 265 L 197 264 L 197 264 L 197 263 L 197 262 L 197 262 L 197 261 L 198 260 L 199 260 L 199 259 L 200 258 L 200 258 L 205 257 L 206 256 L 206 255 L 208 255 L 208 254 L 211 253 L 215 253 L 216 252 L 220 251 L 221 251 L 224 250 L 224 249 L 225 249 L 229 248 L 229 247 L 230 247 L 232 246 L 233 245 L 234 244 L 235 244 L 235 243 L 235 242 L 237 242 L 239 241 L 239 240 L 240 240 L 241 239 L 241 238 L 242 238 L 245 237 L 247 236 L 251 236 L 252 235 L 253 234 L 255 233 L 255 233 L 255 232 L 258 231 L 268 231 L 268 230 L 270 229 L 279 229 L 280 228 L 280 227 L 280 227 L 280 226 L 282 225 L 285 225 L 286 224 L 287 223 L 298 222 L 301 222 L 303 221 L 307 220 L 309 220 L 310 219 L 311 218 L 319 218 L 328 217 L 339 216 L 340 216 L 340 215 L 340 214 L 341 214 L 343 213 L 357 212 L 363 211 L 364 211 L 369 210 L 370 209 L 371 209 L 386 208 L 386 207 L 387 207 L 388 206 L 390 205 L 394 205 L 396 204 L 399 203 L 401 203 L 405 202 L 413 201 L 414 200 L 415 200 L 415 199 L 416 198 L 416 198 L 421 197 L 430 196 L 449 196 L 456 195 L 460 194 L 461 194 L 463 193 L 465 192 L 465 192 L 465 191 L 465 190 L 465 189 L 465 189 L 465 188 L 465 187 L 465 187 L 466 186 L 466 185 L 466 185 L 466 184 L 466 183 L 467 183 L 468 182 L 470 181 L 471 181 L 471 180 L 471 179 L 471 178 L 473 178 L 473 177 L 473 176 L 473 176 L 473 175 L 474 174 L 474 174 L 475 173 L 476 172 L 477 172 L 477 171 L 477 170 L 478 170 L 478 169 L 479 168 L 479 167 L 479 167 L 480 166 L 481 165 L 481 165 L 482 164 L 483 163 L 485 163 L 486 162 L 489 161 L 492 161 L 492 160 L 493 159 L 494 159 L 494 158 L 494 157 L 494 156 L 497 156 L 498 155 L 500 154 L 501 154 L 502 153 L 505 152 L 507 152 L 507 151 L 511 150 L 512 150 L 513 149 L 514 148 L 514 148 L 521 147 L 523 146 L 523 145 L 529 145 L 532 144 L 537 143 L 539 143 L 539 142 L 541 141 L 542 141 L 542 140 L 546 139 L 550 139 L 552 138 L 553 137 L 555 137 L 557 136 L 557 135 L 557 134 L 557 134 L 558 133 L 558 132 L 558 132 L 560 131 L 560 130 L 560 130 L 562 129 L 569 128 L 577 128 L 577 127 L 577 126 L 583 126 L 585 125 L 587 124 L 587 123 L 589 123 L 591 122 L 591 121 L 591 121 L 591 120 L 591 119 L 592 119 L 592 118 L 593 117 L 593 117 L 594 116 L 598 115 L 598 115 L 598 114 L 598 113 L 599 112 L 599 112 L 599 111 L 599 110 L 599 110 L 599 109 L 599 108 L 600 108 L 600 107 L 606 106 L 610 106 L 610 105 L 612 104 L 619 104 L 629 103 L 630 102 L 635 101 L 640 101 L 650 100 L 653 99 L 657 99 L 657 98 L 657 97 L 657 97 L 658 96 L 658 95 L 658 95 L 658 94 L 660 93 L 662 92 L 674 92 L 678 91 L 683 90 L 693 90 L 700 89 L 705 88 L 709 88 L 717 87 L 717 86 L 732 86 L 747 85 L 747 84 L 757 84 L 758 83 L 766 82 L 768 82 L 772 81 L 772 80 L 773 79 L 774 79 L 778 78 L 780 77 L 784 77 L 790 76 L 791 75 L 793 75 L 794 74 L 799 73 L 805 73 L 805 72 L 812 71 L 818 71 L 819 70 L 819 69 L 822 68 L 824 68 L 825 67 L 830 66 L 834 66 L 839 65 L 842 64 L 843 64 L 851 63 L 852 62 L 856 62 L 864 61 L 864 60 L 872 60 L 873 59 L 873 58 L 875 57 L 876 57 L 880 56 L 880 55 L 884 55 L 888 54 L 889 53 L 890 53 L 890 52 L 903 51 L 903 51 L 904 50 L 904 49 L 905 49 L 906 48 L 907 47 L 907 46 L 908 46 L 911 45 L 911 44 L 914 44 L 915 43 L 916 42 L 917 42 L 918 41 L 918 40 L 919 40 L 919 39 L 920 38 L 921 38 L 921 37 L 921 36 L 922 35 L 923 35 L 926 34 L 926 33 L 926 33 L 928 32 L 928 31 L 930 31 L 932 30 L 932 29 L 933 29 L 936 28 L 938 27 L 938 27 L 939 26 L 940 25 L 943 24 L 943 24 L 943 23 L 944 22 L 944 22 L 944 21 L 945 20 L 945 20" stroke-width="2"></path><path stroke-width="2" d="M 945 346 L 945.000000 15.000000" /><path stroke-width="2" d="M 945 346 L 945.000000 15.000000"></path><path stroke-width="2" d="M 945 346 L 950 346" /><path d="M 945 346 L 950 346" stroke-width="2"></path><text x="955" y="352" xmlns="http://www.w3.org/2000/svg">0</text><path stroke-width="2" d="M 945 308 L 950 308" /><path stroke-width="2" d="M 945 308 L 950 308"></path><text xmlns="http://www.w3.org/2000/svg" x="955" y="314">54</text><path stroke-width="2" d="M 945 272 L 950 272" /><path stroke-width="2" d="M 945 272 L 950 272"></path><text x="955" y="278" xmlns="http://www.w3.org/2000/svg">107</text><path stroke-width="2" d="M 945 236 L 950 236" /><path stroke-width="2" d="M 945 236 L 950 236"></path><text xmlns="http://www.w3.org/2000/svg" x="955" y="242">160</text><path stroke-width="2" d="M 945 198 L 950 198" /><path stroke-width="2" d="M 945 198 L 950 198"></path><text xmlns="http://www.w3.org/2000/svg" x="955" y="204">214</text><path stroke-width="2" d="M 945 162 L 950 162" /><path stroke-width="2" d="M 945 162 L 950 162"></path><text xmlns="http://www.w3.org/2000/svg" x="955" y="168">267</text><path d="M 945 126 L 950 126" stroke-width="2" /><path stroke-width="2" d="M 945 126 L 950 126"></path><text x="955" y="132" xmlns="http://www.w3.org/2000/svg">320</text><path stroke-width="2" d="M 945 88 L 950 88" /><path stroke-width="2" d="M 945 88 L 950 88"></path><text xmlns="http://www.w3.org/2000/svg" x="955" y="94">374</text><path d="M 945 52 L 950 52" stroke-width="2" /><path stroke-width="2" d="M 945 52 L 950 52"></path><text xmlns="http://www.w3.org/2000/svg" x="955" y="58">427</text><path d="M 945 16 L 950 16" stroke-width="2" /><path stroke-width="2" d="M 945 16 L 950 16"></path><text xmlns="http://www.w3.org/2000/svg" x="955" y="22">480</text><text xmlns="http://www.w3.org/2000/svg" x="987" y="175" transform="rotate(90.00,987,175)">Stargazers</text><path stroke-width="2" d="M 57.000000 346.000000 L 945 346" /><path stroke-width="2" d="M 57.000000 346.000000 L 945 346"></path><path stroke-width="2" d="M 58 346 L 58 351" /><path stroke-width="2" d="M 58 346 L 58 351"></path><text xmlns="http://www.w3.org/2000/svg" x="25" y="368">2023-04-02</text><path d="M 157 346 L 157 351" stroke-width="2" /><path stroke-width="2" d="M 157 346 L 157 351"></path><text xmlns="http://www.w3.org/2000/svg" x="124" y="368">2023-05-19</text><path stroke-width="2" d="M 256 346 L 256 351" /><path stroke-width="2" d="M 256 346 L 256 351"></path><text xmlns="http://www.w3.org/2000/svg" x="223" y="368">2023-07-06</text><path stroke-width="2" d="M 354 346 L 354 351" /><path stroke-width="2" d="M 354 346 L 354 351"></path><text xmlns="http://www.w3.org/2000/svg" x="321" y="368">2023-08-22</text><path d="M 453 346 L 453 351" stroke-width="2" /><path stroke-width="2" d="M 453 346 L 453 351"></path><text xmlns="http://www.w3.org/2000/svg" x="420" y="368">2023-10-09</text><path stroke-width="2" d="M 551 346 L 551 351" /><path stroke-width="2" d="M 551 346 L 551 351"></path><text xmlns="http://www.w3.org/2000/svg" x="518" y="368">2023-11-25</text><path stroke-width="2" d="M 650 346 L 650 351" /><path stroke-width="2" d="M 650 346 L 650 351"></path><text x="617" y="368" xmlns="http://www.w3.org/2000/svg">2024-01-12</text><path d="M 748 346 L 748 351" stroke-width="2" /><path stroke-width="2" d="M 748 346 L 748 351"></path><text xmlns="http://www.w3.org/2000/svg" x="715" y="368">2024-02-29</text><path stroke-width="2" d="M 847 346 L 847 351" /><path stroke-width="2" d="M 847 346 L 847 351"></path><text xmlns="http://www.w3.org/2000/svg" x="814" y="368">2024-04-16</text><path stroke-width="2" d="M 945 346 L 945 351" /><path d="M 945 346 L 945 351" stroke-width="2"></path><text xmlns="http://www.w3.org/2000/svg" x="912" y="368">2024-06-03</text><text x="487" y="390" xmlns="http://www.w3.org/2000/svg">Time</text></svg>