<svg height="400px" xmlns="http://www.w3.org/2000/svg" xmlns:xlink="http://www.w3.org/1999/xlink" width="1024px"><style type="text/css">
path { fill: none; stroke: rgb(51,51,51); }
path.series { stroke: #6b63ff; }
rect.background { fill: rgb(255,255,255); stroke: none; }

text {
	stroke-width: 0;
	stroke: none;
	fill: rgba(51,51,51,1.0);
	font-size: 12.8px;
	font-family: 'Roboto Medium', sans-serif;
}
</style><rect x="0" y="0" width="1024px" height="400px" class="background" rx="8" /><rect width="1024px" height="400px" class="background" rx="8" x="0" y="0"></rect><path stroke-width="2" class="series" d="M 58 345 L 60 345 L 73 345 L 74 344 L 74 344 L 74 344 L 74 343 L 74 343 L 74 343 L 74 343 L 74 342 L 74 342 L 74 342 L 74 341 L 74 341 L 74 341 L 74 340 L 74 340 L 74 340 L 75 340 L 76 339 L 76 339 L 77 339 L 77 338 L 77 338 L 77 338 L 78 337 L 78 337 L 80 337 L 80 337 L 81 336 L 82 336 L 86 336 L 86 335 L 86 335 L 86 335 L 86 334 L 88 334 L 89 334 L 90 334 L 92 333 L 95 333 L 96 333 L 102 332 L 104 332 L 107 332 L 110 331 L 112 331 L 124 331 L 124 331 L 124 330 L 126 330 L 126 330 L 126 329 L 126 329 L 126 329 L 126 328 L 126 328 L 126 328 L 126 328 L 126 327 L 126 327 L 126 327 L 127 326 L 127 326 L 127 326 L 127 325 L 127 325 L 127 325 L 127 325 L 127 324 L 127 324 L 127 324 L 127 323 L 127 323 L 127 323 L 127 322 L 127 322 L 127 322 L 127 322 L 127 321 L 127 321 L 127 321 L 127 320 L 127 320 L 127 320 L 127 319 L 127 319 L 127 319 L 127 319 L 127 318 L 127 318 L 127 318 L 127 317 L 127 317 L 127 317 L 127 316 L 127 316 L 127 316 L 128 316 L 128 315 L 128 315 L 128 315 L 128 314 L 128 314 L 129 314 L 129 313 L 129 313 L 129 313 L 129 313 L 129 312 L 129 312 L 129 312 L 129 311 L 129 311 L 129 311 L 129 310 L 129 310 L 129 310 L 129 310 L 129 309 L 129 309 L 130 309 L 130 308 L 130 308 L 130 308 L 130 307 L 133 307 L 134 307 L 134 307 L 135 306 L 135 306 L 136 306 L 139 305 L 139 305 L 141 305 L 141 304 L 143 304 L 143 304 L 143 304 L 145 303 L 145 303 L 146 303 L 147 302 L 147 302 L 148 302 L 148 301 L 148 301 L 149 301 L 150 301 L 151 300 L 151 300 L 151 300 L 152 299 L 152 299 L 152 299 L 154 298 L 155 298 L 156 298 L 157 298 L 158 297 L 159 297 L 159 297 L 159 296 L 160 296 L 165 296 L 165 295 L 166 295 L 171 295 L 171 295 L 171 294 L 171 294 L 172 294 L 172 293 L 174 293 L 175 293 L 175 292 L 181 292 L 182 292 L 183 292 L 185 291 L 187 291 L 187 291 L 187 290 L 192 290 L 196 290 L 201 289 L 202 289 L 202 289 L 202 289 L 202 288 L 204 288 L 211 288 L 214 287 L 214 287 L 217 287 L 217 286 L 218 286 L 226 286 L 226 286 L 226 285 L 227 285 L 228 285 L 230 284 L 231 284 L 232 284 L 233 283 L 235 283 L 240 283 L 240 283 L 240 282 L 241 282 L 241 282 L 241 281 L 243 281 L 248 281 L 258 280 L 261 280 L 263 280 L 264 280 L 265 279 L 266 279 L 266 279 L 266 278 L 266 278 L 266 278 L 266 277 L 266 277 L 266 277 L 266 277 L 266 276 L 266 276 L 266 276 L 266 275 L 267 275 L 267 275 L 269 274 L 269 274 L 269 274 L 269 274 L 270 273 L 270 273 L 270 273 L 270 272 L 270 272 L 270 272 L 270 271 L 271 271 L 272 271 L 272 271 L 272 270 L 272 270 L 272 270 L 272 269 L 273 269 L 273 269 L 273 268 L 274 268 L 274 268 L 274 268 L 275 267 L 276 267 L 277 267 L 278 266 L 280 266 L 280 266 L 280 265 L 280 265 L 281 265 L 281 265 L 281 264 L 282 264 L 282 264 L 284 263 L 284 263 L 285 263 L 286 262 L 287 262 L 287 262 L 289 262 L 290 261 L 290 261 L 291 261 L 291 260 L 295 260 L 295 260 L 296 259 L 298 259 L 300 259 L 303 259 L 304 258 L 304 258 L 305 258 L 305 257 L 305 257 L 307 257 L 309 256 L 310 256 L 310 256 L 313 256 L 313 255 L 313 255 L 313 255 L 313 254 L 313 254 L 313 254 L 314 253 L 314 253 L 314 253 L 315 253 L 319 252 L 323 252 L 323 252 L 323 251 L 326 251 L 327 251 L 328 250 L 328 250 L 329 250 L 330 250 L 330 249 L 330 249 L 330 249 L 330 248 L 331 248 L 331 248 L 331 247 L 331 247 L 332 247 L 334 247 L 334 246 L 334 246 L 334 246 L 334 245 L 334 245 L 334 245 L 334 244 L 334 244 L 334 244 L 334 244 L 335 243 L 335 243 L 338 243 L 340 242 L 340 242 L 341 242 L 349 241 L 350 241 L 353 241 L 355 241 L 362 240 L 364 240 L 364 240 L 364 239 L 364 239 L 364 239 L 364 238 L 364 238 L 365 238 L 366 238 L 373 237 L 375 237 L 377 237 L 382 236 L 386 236 L 388 236 L 391 235 L 394 235 L 394 235 L 402 235 L 410 234 L 410 234 L 415 234 L 415 233 L 419 233 L 420 233 L 423 232 L 423 232 L 423 232 L 423 232 L 426 231 L 427 231 L 429 231 L 432 230 L 432 230 L 433 230 L 434 229 L 436 229 L 439 229 L 439 229 L 443 228 L 446 228 L 447 228 L 447 227 L 448 227 L 449 227 L 450 226 L 452 226 L 454 226 L 456 226 L 458 225 L 458 225 L 463 225 L 463 224 L 466 224 L 469 224 L 469 223 L 473 223 L 474 223 L 474 223 L 475 222 L 476 222 L 477 222 L 478 221 L 479 221 L 482 221 L 482 220 L 483 220 L 483 220 L 489 220 L 489 219 L 490 219 L 490 219 L 490 218 L 491 218 L 491 218 L 491 217 L 492 217 L 493 217 L 493 217 L 495 216 L 495 216 L 496 216 L 496 215 L 497 215 L 497 215 L 497 214 L 498 214 L 498 214 L 498 214 L 498 213 L 498 213 L 499 213 L 500 212 L 501 212 L 501 212 L 501 211 L 502 211 L 502 211 L 503 211 L 504 210 L 504 210 L 505 210 L 506 209 L 507 209 L 507 209 L 508 208 L 508 208 L 510 208 L 510 208 L 510 207 L 510 207 L 510 207 L 510 206 L 510 206 L 511 206 L 511 205 L 512 205 L 515 205 L 516 205 L 517 204 L 517 204 L 519 204 L 520 203 L 520 203 L 522 203 L 524 202 L 526 202 L 528 202 L 529 202 L 529 201 L 529 201 L 529 201 L 530 200 L 530 200 L 530 200 L 531 199 L 531 199 L 531 199 L 532 199 L 533 198 L 534 198 L 534 198 L 534 197 L 534 197 L 537 197 L 537 196 L 537 196 L 538 196 L 539 196 L 541 195 L 546 195 L 546 195 L 546 194 L 546 194 L 548 194 L 550 193 L 550 193 L 550 193 L 550 193 L 551 192 L 552 192 L 555 192 L 555 191 L 555 191 L 555 191 L 557 190 L 558 190 L 558 190 L 558 190 L 560 189 L 563 189 L 563 189 L 566 188 L 567 188 L 567 188 L 570 187 L 571 187 L 573 187 L 575 187 L 576 186 L 577 186 L 577 186 L 578 185 L 578 185 L 578 185 L 578 184 L 579 184 L 579 184 L 579 184 L 580 183 L 580 183 L 580 183 L 581 182 L 582 182 L 582 182 L 586 181 L 587 181 L 591 181 L 593 181 L 593 180 L 594 180 L 594 180 L 597 179 L 597 179 L 597 179 L 598 178 L 598 178 L 598 178 L 598 178 L 598 177 L 599 177 L 599 177 L 599 176 L 599 176 L 599 176 L 600 175 L 600 175 L 601 175 L 601 175 L 602 174 L 603 174 L 603 174 L 604 173 L 604 173 L 604 173 L 605 172 L 607 172 L 608 172 L 608 172 L 608 171 L 608 171 L 609 171 L 609 170 L 609 170 L 610 170 L 612 169 L 614 169 L 616 169 L 617 169 L 618 168 L 621 168 L 624 168 L 625 167 L 627 167 L 631 167 L 631 166 L 631 166 L 635 166 L 636 166 L 636 165 L 637 165 L 637 165 L 644 164 L 645 164 L 645 164 L 645 163 L 646 163 L 646 163 L 648 163 L 648 162 L 648 162 L 649 162 L 649 161 L 649 161 L 650 161 L 650 160 L 650 160 L 650 160 L 650 160 L 650 159 L 650 159 L 652 159 L 653 158 L 654 158 L 654 158 L 654 157 L 655 157 L 655 157 L 656 157 L 656 156 L 657 156 L 657 156 L 657 155 L 658 155 L 659 155 L 659 154 L 660 154 L 660 154 L 661 154 L 662 153 L 662 153 L 663 153 L 663 152 L 663 152 L 663 152 L 664 151 L 664 151 L 665 151 L 665 151 L 666 150 L 666 150 L 666 150 L 667 149 L 667 149 L 667 149 L 668 148 L 668 148 L 668 148 L 669 148 L 669 147 L 669 147 L 670 147 L 670 146 L 670 146 L 670 146 L 670 145 L 670 145 L 671 145 L 671 145 L 671 144 L 671 144 L 671 144 L 673 143 L 674 143 L 676 143 L 676 142 L 676 142 L 676 142 L 678 142 L 678 141 L 679 141 L 679 141 L 681 140 L 684 140 L 684 140 L 685 139 L 686 139 L 686 139 L 687 139 L 687 138 L 687 138 L 687 138 L 687 137 L 687 137 L 687 137 L 687 136 L 688 136 L 688 136 L 688 136 L 688 135 L 688 135 L 689 135 L 689 134 L 689 134 L 690 134 L 690 133 L 692 133 L 692 133 L 692 132 L 692 132 L 694 132 L 694 132 L 694 131 L 697 131 L 697 131 L 697 130 L 697 130 L 698 130 L 700 130 L 701 129 L 702 129 L 704 129 L 704 128 L 704 128 L 704 128 L 705 127 L 709 127 L 711 127 L 713 126 L 715 126 L 715 126 L 716 126 L 717 125 L 717 125 L 718 125 L 718 124 L 718 124 L 719 124 L 719 124 L 720 123 L 721 123 L 723 123 L 723 122 L 723 122 L 723 122 L 723 121 L 723 121 L 723 121 L 723 121 L 723 120 L 723 120 L 723 120 L 723 119 L 723 119 L 723 119 L 723 118 L 723 118 L 723 118 L 724 118 L 724 117 L 724 117 L 724 117 L 724 116 L 724 116 L 724 116 L 725 115 L 725 115 L 725 115 L 726 115 L 726 114 L 726 114 L 726 114 L 726 113 L 726 113 L 727 113 L 728 112 L 730 112 L 730 112 L 730 112 L 732 111 L 732 111 L 732 111 L 733 110 L 735 110 L 736 110 L 737 109 L 737 109 L 737 109 L 737 109 L 737 108 L 737 108 L 737 108 L 738 107 L 739 107 L 739 107 L 742 106 L 744 106 L 745 106 L 747 106 L 748 105 L 749 105 L 749 105 L 749 104 L 749 104 L 750 104 L 750 103 L 750 103 L 751 103 L 752 103 L 752 102 L 752 102 L 752 102 L 752 101 L 752 101 L 752 101 L 753 100 L 753 100 L 753 100 L 753 100 L 754 99 L 755 99 L 755 99 L 756 98 L 756 98 L 756 98 L 756 97 L 757 97 L 758 97 L 758 97 L 758 96 L 759 96 L 759 96 L 760 95 L 763 95 L 764 95 L 765 94 L 767 94 L 768 94 L 769 94 L 772 93 L 772 93 L 773 93 L 776 92 L 780 92 L 781 92 L 782 91 L 784 91 L 786 91 L 786 91 L 787 90 L 788 90 L 789 90 L 790 89 L 790 89 L 792 89 L 793 88 L 794 88 L 794 88 L 794 88 L 795 87 L 795 87 L 796 87 L 799 86 L 799 86 L 800 86 L 801 85 L 801 85 L 803 85 L 803 85 L 804 84 L 804 84 L 804 84 L 805 83 L 805 83 L 806 83 L 806 82 L 807 82 L 808 82 L 809 82 L 809 81 L 809 81 L 810 81 L 810 80 L 810 80 L 811 80 L 812 79 L 812 79 L 812 79 L 812 79 L 812 78 L 813 78 L 815 78 L 816 77 L 816 77 L 817 77 L 820 76 L 820 76 L 821 76 L 822 76 L 825 75 L 826 75 L 829 75 L 830 74 L 831 74 L 831 74 L 833 73 L 835 73 L 836 73 L 837 73 L 837 72 L 837 72 L 837 72 L 837 71 L 837 71 L 838 71 L 839 70 L 840 70 L 841 70 L 841 70 L 841 69 L 847 69 L 848 69 L 849 68 L 851 68 L 852 68 L 853 67 L 853 67 L 854 67 L 854 67 L 854 66 L 856 66 L 856 66 L 856 65 L 857 65 L 857 65 L 857 64 L 858 64 L 858 64 L 859 64 L 860 63 L 863 63 L 863 63 L 868 62 L 869 62 L 869 62 L 870 61 L 871 61 L 871 61 L 871 61 L 871 60 L 874 60 L 875 60 L 877 59 L 877 59 L 877 59 L 878 58 L 879 58 L 880 58 L 882 58 L 883 57 L 883 57 L 883 57 L 884 56 L 884 56 L 884 56 L 885 55 L 885 55 L 886 55 L 887 55 L 888 54 L 889 54 L 889 54 L 889 53 L 889 53 L 890 53 L 890 52 L 893 52 L 897 52 L 898 52 L 901 51 L 902 51 L 905 51 L 905 50 L 905 50 L 906 50 L 906 49 L 907 49 L 908 49 L 909 49 L 910 48 L 911 48 L 912 48 L 915 47 L 920 47 L 920 47 L 920 46 L 921 46 L 921 46 L 923 46 L 923 45 L 923 45 L 932 45 L 934 44 L 934 44 L 936 44 L 937 43" /><path stroke-width="2" class="series" d="M 58 345 L 60 345 L 73 345 L 74 344 L 74 344 L 74 344 L 74 343 L 74 343 L 74 343 L 74 343 L 74 342 L 74 342 L 74 342 L 74 341 L 74 341 L 74 341 L 74 340 L 74 340 L 74 340 L 75 340 L 76 339 L 76 339 L 77 339 L 77 338 L 77 338 L 77 338 L 78 337 L 78 337 L 80 337 L 80 337 L 81 336 L 82 336 L 86 336 L 86 335 L 86 335 L 86 335 L 86 334 L 88 334 L 89 334 L 90 334 L 92 333 L 95 333 L 96 333 L 102 332 L 104 332 L 107 332 L 110 331 L 112 331 L 124 331 L 124 331 L 124 330 L 126 330 L 126 330 L 126 329 L 126 329 L 126 329 L 126 328 L 126 328 L 126 328 L 126 328 L 126 327 L 126 327 L 126 327 L 127 326 L 127 326 L 127 326 L 127 325 L 127 325 L 127 325 L 127 325 L 127 324 L 127 324 L 127 324 L 127 323 L 127 323 L 127 323 L 127 322 L 127 322 L 127 322 L 127 322 L 127 321 L 127 321 L 127 321 L 127 320 L 127 320 L 127 320 L 127 319 L 127 319 L 127 319 L 127 319 L 127 318 L 127 318 L 127 318 L 127 317 L 127 317 L 127 317 L 127 316 L 127 316 L 127 316 L 128 316 L 128 315 L 128 315 L 128 315 L 128 314 L 128 314 L 129 314 L 129 313 L 129 313 L 129 313 L 129 313 L 129 312 L 129 312 L 129 312 L 129 311 L 129 311 L 129 311 L 129 310 L 129 310 L 129 310 L 129 310 L 129 309 L 129 309 L 130 309 L 130 308 L 130 308 L 130 308 L 130 307 L 133 307 L 134 307 L 134 307 L 135 306 L 135 306 L 136 306 L 139 305 L 139 305 L 141 305 L 141 304 L 143 304 L 143 304 L 143 304 L 145 303 L 145 303 L 146 303 L 147 302 L 147 302 L 148 302 L 148 301 L 148 301 L 149 301 L 150 301 L 151 300 L 151 300 L 151 300 L 152 299 L 152 299 L 152 299 L 154 298 L 155 298 L 156 298 L 157 298 L 158 297 L 159 297 L 159 297 L 159 296 L 160 296 L 165 296 L 165 295 L 166 295 L 171 295 L 171 295 L 171 294 L 171 294 L 172 294 L 172 293 L 174 293 L 175 293 L 175 292 L 181 292 L 182 292 L 183 292 L 185 291 L 187 291 L 187 291 L 187 290 L 192 290 L 196 290 L 201 289 L 202 289 L 202 289 L 202 289 L 202 288 L 204 288 L 211 288 L 214 287 L 214 287 L 217 287 L 217 286 L 218 286 L 226 286 L 226 286 L 226 285 L 227 285 L 228 285 L 230 284 L 231 284 L 232 284 L 233 283 L 235 283 L 240 283 L 240 283 L 240 282 L 241 282 L 241 282 L 241 281 L 243 281 L 248 281 L 258 280 L 261 280 L 263 280 L 264 280 L 265 279 L 266 279 L 266 279 L 266 278 L 266 278 L 266 278 L 266 277 L 266 277 L 266 277 L 266 277 L 266 276 L 266 276 L 266 276 L 266 275 L 267 275 L 267 275 L 269 274 L 269 274 L 269 274 L 269 274 L 270 273 L 270 273 L 270 273 L 270 272 L 270 272 L 270 272 L 270 271 L 271 271 L 272 271 L 272 271 L 272 270 L 272 270 L 272 270 L 272 269 L 273 269 L 273 269 L 273 268 L 274 268 L 274 268 L 274 268 L 275 267 L 276 267 L 277 267 L 278 266 L 280 266 L 280 266 L 280 265 L 280 265 L 281 265 L 281 265 L 281 264 L 282 264 L 282 264 L 284 263 L 284 263 L 285 263 L 286 262 L 287 262 L 287 262 L 289 262 L 290 261 L 290 261 L 291 261 L 291 260 L 295 260 L 295 260 L 296 259 L 298 259 L 300 259 L 303 259 L 304 258 L 304 258 L 305 258 L 305 257 L 305 257 L 307 257 L 309 256 L 310 256 L 310 256 L 313 256 L 313 255 L 313 255 L 313 255 L 313 254 L 313 254 L 313 254 L 314 253 L 314 253 L 314 253 L 315 253 L 319 252 L 323 252 L 323 252 L 323 251 L 326 251 L 327 251 L 328 250 L 328 250 L 329 250 L 330 250 L 330 249 L 330 249 L 330 249 L 330 248 L 331 248 L 331 248 L 331 247 L 331 247 L 332 247 L 334 247 L 334 246 L 334 246 L 334 246 L 334 245 L 334 245 L 334 245 L 334 244 L 334 244 L 334 244 L 334 244 L 335 243 L 335 243 L 338 243 L 340 242 L 340 242 L 341 242 L 349 241 L 350 241 L 353 241 L 355 241 L 362 240 L 364 240 L 364 240 L 364 239 L 364 239 L 364 239 L 364 238 L 364 238 L 365 238 L 366 238 L 373 237 L 375 237 L 377 237 L 382 236 L 386 236 L 388 236 L 391 235 L 394 235 L 394 235 L 402 235 L 410 234 L 410 234 L 415 234 L 415 233 L 419 233 L 420 233 L 423 232 L 423 232 L 423 232 L 423 232 L 426 231 L 427 231 L 429 231 L 432 230 L 432 230 L 433 230 L 434 229 L 436 229 L 439 229 L 439 229 L 443 228 L 446 228 L 447 228 L 447 227 L 448 227 L 449 227 L 450 226 L 452 226 L 454 226 L 456 226 L 458 225 L 458 225 L 463 225 L 463 224 L 466 224 L 469 224 L 469 223 L 473 223 L 474 223 L 474 223 L 475 222 L 476 222 L 477 222 L 478 221 L 479 221 L 482 221 L 482 220 L 483 220 L 483 220 L 489 220 L 489 219 L 490 219 L 490 219 L 490 218 L 491 218 L 491 218 L 491 217 L 492 217 L 493 217 L 493 217 L 495 216 L 495 216 L 496 216 L 496 215 L 497 215 L 497 215 L 497 214 L 498 214 L 498 214 L 498 214 L 498 213 L 498 213 L 499 213 L 500 212 L 501 212 L 501 212 L 501 211 L 502 211 L 502 211 L 503 211 L 504 210 L 504 210 L 505 210 L 506 209 L 507 209 L 507 209 L 508 208 L 508 208 L 510 208 L 510 208 L 510 207 L 510 207 L 510 207 L 510 206 L 510 206 L 511 206 L 511 205 L 512 205 L 515 205 L 516 205 L 517 204 L 517 204 L 519 204 L 520 203 L 520 203 L 522 203 L 524 202 L 526 202 L 528 202 L 529 202 L 529 201 L 529 201 L 529 201 L 530 200 L 530 200 L 530 200 L 531 199 L 531 199 L 531 199 L 532 199 L 533 198 L 534 198 L 534 198 L 534 197 L 534 197 L 537 197 L 537 196 L 537 196 L 538 196 L 539 196 L 541 195 L 546 195 L 546 195 L 546 194 L 546 194 L 548 194 L 550 193 L 550 193 L 550 193 L 550 193 L 551 192 L 552 192 L 555 192 L 555 191 L 555 191 L 555 191 L 557 190 L 558 190 L 558 190 L 558 190 L 560 189 L 563 189 L 563 189 L 566 188 L 567 188 L 567 188 L 570 187 L 571 187 L 573 187 L 575 187 L 576 186 L 577 186 L 577 186 L 578 185 L 578 185 L 578 185 L 578 184 L 579 184 L 579 184 L 579 184 L 580 183 L 580 183 L 580 183 L 581 182 L 582 182 L 582 182 L 586 181 L 587 181 L 591 181 L 593 181 L 593 180 L 594 180 L 594 180 L 597 179 L 597 179 L 597 179 L 598 178 L 598 178 L 598 178 L 598 178 L 598 177 L 599 177 L 599 177 L 599 176 L 599 176 L 599 176 L 600 175 L 600 175 L 601 175 L 601 175 L 602 174 L 603 174 L 603 174 L 604 173 L 604 173 L 604 173 L 605 172 L 607 172 L 608 172 L 608 172 L 608 171 L 608 171 L 609 171 L 609 170 L 609 170 L 610 170 L 612 169 L 614 169 L 616 169 L 617 169 L 618 168 L 621 168 L 624 168 L 625 167 L 627 167 L 631 167 L 631 166 L 631 166 L 635 166 L 636 166 L 636 165 L 637 165 L 637 165 L 644 164 L 645 164 L 645 164 L 645 163 L 646 163 L 646 163 L 648 163 L 648 162 L 648 162 L 649 162 L 649 161 L 649 161 L 650 161 L 650 160 L 650 160 L 650 160 L 650 160 L 650 159 L 650 159 L 652 159 L 653 158 L 654 158 L 654 158 L 654 157 L 655 157 L 655 157 L 656 157 L 656 156 L 657 156 L 657 156 L 657 155 L 658 155 L 659 155 L 659 154 L 660 154 L 660 154 L 661 154 L 662 153 L 662 153 L 663 153 L 663 152 L 663 152 L 663 152 L 664 151 L 664 151 L 665 151 L 665 151 L 666 150 L 666 150 L 666 150 L 667 149 L 667 149 L 667 149 L 668 148 L 668 148 L 668 148 L 669 148 L 669 147 L 669 147 L 670 147 L 670 146 L 670 146 L 670 146 L 670 145 L 670 145 L 671 145 L 671 145 L 671 144 L 671 144 L 671 144 L 673 143 L 674 143 L 676 143 L 676 142 L 676 142 L 676 142 L 678 142 L 678 141 L 679 141 L 679 141 L 681 140 L 684 140 L 684 140 L 685 139 L 686 139 L 686 139 L 687 139 L 687 138 L 687 138 L 687 138 L 687 137 L 687 137 L 687 137 L 687 136 L 688 136 L 688 136 L 688 136 L 688 135 L 688 135 L 689 135 L 689 134 L 689 134 L 690 134 L 690 133 L 692 133 L 692 133 L 692 132 L 692 132 L 694 132 L 694 132 L 694 131 L 697 131 L 697 131 L 697 130 L 697 130 L 698 130 L 700 130 L 701 129 L 702 129 L 704 129 L 704 128 L 704 128 L 704 128 L 705 127 L 709 127 L 711 127 L 713 126 L 715 126 L 715 126 L 716 126 L 717 125 L 717 125 L 718 125 L 718 124 L 718 124 L 719 124 L 719 124 L 720 123 L 721 123 L 723 123 L 723 122 L 723 122 L 723 122 L 723 121 L 723 121 L 723 121 L 723 121 L 723 120 L 723 120 L 723 120 L 723 119 L 723 119 L 723 119 L 723 118 L 723 118 L 723 118 L 724 118 L 724 117 L 724 117 L 724 117 L 724 116 L 724 116 L 724 116 L 725 115 L 725 115 L 725 115 L 726 115 L 726 114 L 726 114 L 726 114 L 726 113 L 726 113 L 727 113 L 728 112 L 730 112 L 730 112 L 730 112 L 732 111 L 732 111 L 732 111 L 733 110 L 735 110 L 736 110 L 737 109 L 737 109 L 737 109 L 737 109 L 737 108 L 737 108 L 737 108 L 738 107 L 739 107 L 739 107 L 742 106 L 744 106 L 745 106 L 747 106 L 748 105 L 749 105 L 749 105 L 749 104 L 749 104 L 750 104 L 750 103 L 750 103 L 751 103 L 752 103 L 752 102 L 752 102 L 752 102 L 752 101 L 752 101 L 752 101 L 753 100 L 753 100 L 753 100 L 753 100 L 754 99 L 755 99 L 755 99 L 756 98 L 756 98 L 756 98 L 756 97 L 757 97 L 758 97 L 758 97 L 758 96 L 759 96 L 759 96 L 760 95 L 763 95 L 764 95 L 765 94 L 767 94 L 768 94 L 769 94 L 772 93 L 772 93 L 773 93 L 776 92 L 780 92 L 781 92 L 782 91 L 784 91 L 786 91 L 786 91 L 787 90 L 788 90 L 789 90 L 790 89 L 790 89 L 792 89 L 793 88 L 794 88 L 794 88 L 794 88 L 795 87 L 795 87 L 796 87 L 799 86 L 799 86 L 800 86 L 801 85 L 801 85 L 803 85 L 803 85 L 804 84 L 804 84 L 804 84 L 805 83 L 805 83 L 806 83 L 806 82 L 807 82 L 808 82 L 809 82 L 809 81 L 809 81 L 810 81 L 810 80 L 810 80 L 811 80 L 812 79 L 812 79 L 812 79 L 812 79 L 812 78 L 813 78 L 815 78 L 816 77 L 816 77 L 817 77 L 820 76 L 820 76 L 821 76 L 822 76 L 825 75 L 826 75 L 829 75 L 830 74 L 831 74 L 831 74 L 833 73 L 835 73 L 836 73 L 837 73 L 837 72 L 837 72 L 837 72 L 837 71 L 837 71 L 838 71 L 839 70 L 840 70 L 841 70 L 841 70 L 841 69 L 847 69 L 848 69 L 849 68 L 851 68 L 852 68 L 853 67 L 853 67 L 854 67 L 854 67 L 854 66 L 856 66 L 856 66 L 856 65 L 857 65 L 857 65 L 857 64 L 858 64 L 858 64 L 859 64 L 860 63 L 863 63 L 863 63 L 868 62 L 869 62 L 869 62 L 870 61 L 871 61 L 871 61 L 871 61 L 871 60 L 874 60 L 875 60 L 877 59 L 877 59 L 877 59 L 878 58 L 879 58 L 880 58 L 882 58 L 883 57 L 883 57 L 883 57 L 884 56 L 884 56 L 884 56 L 885 55 L 885 55 L 886 55 L 887 55 L 888 54 L 889 54 L 889 54 L 889 53 L 889 53 L 890 53 L 890 52 L 893 52 L 897 52 L 898 52 L 901 51 L 902 51 L 905 51 L 905 50 L 905 50 L 906 50 L 906 49 L 907 49 L 908 49 L 909 49 L 910 48 L 911 48 L 912 48 L 915 47 L 920 47 L 920 47 L 920 46 L 921 46 L 921 46 L 923 46 L 923 45 L 923 45 L 932 45 L 934 44 L 934 44 L 936 44 L 937 43"></path><path stroke-width="2" d="M 937 346 L 937.000000 15.000000" /><path stroke-width="2" d="M 937 346 L 937.000000 15.000000"></path><path stroke-width="2" d="M 937 346 L 942 346" /><path stroke-width="2" d="M 937 346 L 942 346"></path><text xmlns="http://www.w3.org/2000/svg" x="947" y="352">0</text><path stroke-width="2" d="M 937 307 L 942 307" /><path stroke-width="2" d="M 937 307 L 942 307"></path><text xmlns="http://www.w3.org/2000/svg" x="947" y="313">130</text><path stroke-width="2" d="M 937 271 L 942 271" /><path stroke-width="2" d="M 937 271 L 942 271"></path><text xmlns="http://www.w3.org/2000/svg" x="947" y="277">250</text><path stroke-width="2" d="M 937 235 L 942 235" /><path stroke-width="2" d="M 937 235 L 942 235"></path><text xmlns="http://www.w3.org/2000/svg" x="947" y="241">370</text><path stroke-width="2" d="M 937 199 L 942 199" /><path stroke-width="2" d="M 937 199 L 942 199"></path><text xmlns="http://www.w3.org/2000/svg" x="947" y="205">490</text><path stroke-width="2" d="M 937 160 L 942 160" /><path d="M 937 160 L 942 160" stroke-width="2"></path><text x="947" y="166" xmlns="http://www.w3.org/2000/svg">620</text><path stroke-width="2" d="M 937 124 L 942 124" /><path stroke-width="2" d="M 937 124 L 942 124"></path><text xmlns="http://www.w3.org/2000/svg" x="947" y="130">740</text><path stroke-width="2" d="M 937 88 L 942 88" /><path stroke-width="2" d="M 937 88 L 942 88"></path><text xmlns="http://www.w3.org/2000/svg" x="947" y="94">860</text><path stroke-width="2" d="M 937 52 L 942 52" /><path d="M 937 52 L 942 52" stroke-width="2"></path><text xmlns="http://www.w3.org/2000/svg" x="947" y="58">980</text><path stroke-width="2" d="M 937 16 L 942 16" /><path stroke-width="2" d="M 937 16 L 942 16"></path><text xmlns="http://www.w3.org/2000/svg" x="947" y="22">1100</text><text transform="rotate(90.00,987,175)" xmlns="http://www.w3.org/2000/svg" x="987" y="175">Stargazers</text><path stroke-width="2" d="M 57.000000 346.000000 L 937 346" /><path stroke-width="2" d="M 57.000000 346.000000 L 937 346"></path><path stroke-width="2" d="M 58 346 L 58 351" /><path stroke-width="2" d="M 58 346 L 58 351"></path><text xmlns="http://www.w3.org/2000/svg" x="25" y="368">2023-04-02</text><path stroke-width="2" d="M 156 346 L 156 351" /><path stroke-width="2" d="M 156 346 L 156 351"></path><text y="368" xmlns="http://www.w3.org/2000/svg" x="123">2023-07-03</text><path stroke-width="2" d="M 254 346 L 254 351" /><path stroke-width="2" d="M 254 346 L 254 351"></path><text xmlns="http://www.w3.org/2000/svg" x="221" y="368">2023-10-04</text><path stroke-width="2" d="M 352 346 L 352 351" /><path stroke-width="2" d="M 352 346 L 352 351"></path><text y="368" xmlns="http://www.w3.org/2000/svg" x="319">2024-01-04</text><path d="M 449 346 L 449 351" stroke-width="2" /><path stroke-width="2" d="M 449 346 L 449 351"></path><text x="416" y="368" xmlns="http://www.w3.org/2000/svg">2024-04-05</text><path stroke-width="2" d="M 547 346 L 547 351" /><path stroke-width="2" d="M 547 346 L 547 351"></path><text xmlns="http://www.w3.org/2000/svg" x="514" y="368">2024-07-06</text><path d="M 645 346 L 645 351" stroke-width="2" /><path stroke-width="2" d="M 645 346 L 645 351"></path><text xmlns="http://www.w3.org/2000/svg" x="612" y="368">2024-10-07</text><path stroke-width="2" d="M 742 346 L 742 351" /><path d="M 742 346 L 742 351" stroke-width="2"></path><text xmlns="http://www.w3.org/2000/svg" x="709" y="368">2025-01-07</text><path stroke-width="2" d="M 840 346 L 840 351" /><path stroke-width="2" d="M 840 346 L 840 351"></path><text xmlns="http://www.w3.org/2000/svg" x="807" y="368">2025-04-09</text><path stroke-width="2" d="M 937 346 L 937 351" /><path stroke-width="2" d="M 937 346 L 937 351"></path><text xmlns="http://www.w3.org/2000/svg" x="904" y="368">2025-07-11</text><text xmlns="http://www.w3.org/2000/svg" x="483" y="390">Time</text></svg>