<svg width="1024px" height="400px" xmlns="http://www.w3.org/2000/svg" xmlns:xlink="http://www.w3.org/1999/xlink"><style type="text/css">
path { fill: none; stroke: rgb(51,51,51); }
path.series { stroke: #6b63ff; }
rect.background { fill: rgb(255,255,255); stroke: none; }

text {
	stroke-width: 0;
	stroke: none;
	fill: rgba(51,51,51,1.0);
	font-size: 12.8px;
	font-family: 'Roboto Medium', sans-serif;
}
</style><rect width="1024px" height="400px" class="background" rx="8" x="0" y="0" /><rect x="0" y="0" width="1024px" height="400px" class="background" rx="8"></rect><path class="series" d="M 58 345 L 62 344 L 88 343 L 89 343 L 89 342 L 89 341 L 89 340 L 89 340 L 89 339 L 89 338 L 90 338 L 90 337 L 90 336 L 90 335 L 90 335 L 90 334 L 90 333 L 91 333 L 91 332 L 92 331 L 93 330 L 93 330 L 95 329 L 96 328 L 96 328 L 96 327 L 97 326 L 99 325 L 101 325 L 102 324 L 104 323 L 105 323 L 114 322 L 114 321 L 114 320 L 114 320 L 114 319 L 114 318 L 119 318 L 121 317 L 122 316 L 126 315 L 132 315 L 135 314 L 146 313 L 150 313 L 156 312 L 163 311 L 165 310 L 190 310 L 191 309 L 191 308 L 194 307 L 195 307 L 195 306 L 195 305 L 195 305 L 195 304 L 195 303 L 195 302 L 195 302 L 195 301 L 195 300 L 195 300 L 196 299 L 196 298 L 196 297 L 196 297 L 196 296 L 196 295 L 196 295 L 196 294 L 196 293 L 196 292 L 196 292 L 196 291 L 196 290 L 196 290 L 196 289 L 196 288 L 196 287 L 196 287 L 197 286 L 197 285 L 197 285 L 197 284 L 197 283 L 197 282 L 197 282 L 197 281 L 197 280 L 197 280 L 197 279 L 197 278 L 197 277 L 197 277 L 197 276 L 197 275 L 197 274 L 197 274 L 198 273 L 198 272 L 198 272 L 198 271 L 199 270 L 199 269 L 200 269 L 200 268 L 200 267 L 201 267 L 201 266 L 201 265 L 201 264 L 201 264 L 201 263 L 201 262 L 201 262 L 201 261 L 201 260 L 201 259 L 201 259 L 201 258 L 201 257 L 202 257 L 203 256 L 203 255 L 203 254 L 203 254 L 209 253 L 210 252 L 210 252 L 212 251 L 212 250 L 216 249 L 220 249 L 221 248 L 224 247 L 226 247 L 228 246 L 229 245 L 230 244 L 233 244 L 234 243 L 235 242 L 237 241 L 238 241 L 239 240 L 239 239 L 240 239 L 240 238 L 242 237 L 244 236 L 244 236 L 245 235 L 246 234 L 246 234 L 247 233 L 250 232 L 252 231 L 256 231 L 257 230 L 258 229 L 260 229 L 260 228 L 261 227 L 263 226 L 273 226 L 274 225 L 276 224 L 285 224 L 286 223 L 286 222 L 286 221 L 286 221 L 288 220 L 291 219 L 293 219 L 293 218 L 305 217 L 307 216 L 310 216 L 314 215 L 316 214 L 316 214 L 318 213 L 326 212 L 336 211 L 346 211 L 347 210 L 348 209 L 348 208 L 348 208 L 351 207 L 365 206 L 372 206 L 372 205 L 377 204 L 379 203 L 379 203 L 395 202 L 395 201 L 396 201 L 397 200 L 399 199 L 403 198 L 405 198 L 409 197 L 411 196 L 414 196 L 423 195 L 423 194 L 425 193 L 425 193 L 426 192 L 426 191 L 431 191 L 440 190 L 460 189 L 467 188 L 468 188 L 471 187 L 472 186 L 474 186 L 476 185 L 476 184 L 476 183 L 476 183 L 476 182 L 476 181 L 476 181 L 476 180 L 477 179 L 477 178 L 477 178 L 477 177 L 477 176 L 478 175 L 478 175 L 479 174 L 481 173 L 482 173 L 482 172 L 482 171 L 482 170 L 485 170 L 485 169 L 485 168 L 485 168 L 485 167 L 485 166 L 485 165 L 487 165 L 488 164 L 488 163 L 489 163 L 489 162 L 489 161 L 489 160 L 491 160 L 491 159 L 491 158 L 491 158 L 493 157 L 493 156 L 493 155 L 495 155 L 497 154 L 498 153 L 500 153 L 504 152 L 504 151 L 505 150 L 506 150 L 506 149 L 506 148 L 506 148 L 509 147 L 510 146 L 513 145 L 513 145 L 514 144 L 517 143 L 519 142 L 519 142 L 523 141 L 524 140 L 525 140 L 527 139 L 527 138 L 534 137 L 535 137 L 536 136 L 542 135 L 545 135 L 551 134 L 552 133 L 553 132 L 554 132 L 555 131 L 555 130 L 560 130 L 563 129 L 566 128 L 566 127 L 568 127 L 570 126 L 570 125 L 570 125 L 570 124 L 571 123 L 572 122 L 572 122 L 574 121 L 574 120 L 574 120 L 576 119 L 583 118 L 591 117 L 591 117 L 591 116 L 597 115 L 600 115 L 601 114 L 602 113 L 604 112 L 606 112 L 606 111 L 606 110 L 606 109 L 606 109 L 606 108 L 607 107 L 607 107 L 607 106 L 609 105 L 613 104 L 613 104 L 613 103 L 613 102 L 613 102 L 614 101 L 614 100 L 614 99 L 614 99 L 614 98 L 614 97 L 614 97 L 615 96 L 621 95 L 625 94 L 625 94 L 627 93 L 635 92 L 644 92 L 646 91 L 651 90 L 655 89 L 666 89 L 669 88 L 673 87 L 674 87 L 674 86 L 674 85 L 674 84 L 674 84 L 674 83 L 674 82 L 676 82 L 678 81 L 691 80 L 695 79 L 700 79 L 710 78 L 717 77 L 723 76 L 727 76 L 735 75 L 735 74 L 750 74 L 766 73 L 766 72 L 776 71 L 777 71 L 786 70 L 787 69 L 792 69 L 792 68 L 793 67 L 793 66 L 798 66 L 800 65 L 804 64 L 810 64 L 811 63 L 813 62 L 814 61 L 820 61 L 826 60 L 826 59 L 832 59 L 839 58 L 840 57 L 840 56 L 843 56 L 845 55 L 846 54 L 851 54 L 856 53 L 860 52 L 864 51 L 864 51 L 872 50 L 874 49 L 878 49 L 886 48 L 886 47 L 894 46 L 895 46 L 895 45 L 898 44 L 898 43 L 902 43 L 902 42 L 906 41 L 911 41 L 912 40 L 913 39 L 913 38 L 926 38 L 926 37 L 927 36 L 928 36 L 928 35 L 929 34 L 930 33 L 930 33 L 931 32 L 934 31 L 934 31 L 937 30 L 938 29 L 939 28 L 940 28 L 941 27 L 941 26 L 942 26 L 943 25 L 943 24 L 944 23 L 944 23 L 945 22 L 945 21" stroke-width="2" /><path class="series" d="M 58 345 L 62 344 L 88 343 L 89 343 L 89 342 L 89 341 L 89 340 L 89 340 L 89 339 L 89 338 L 90 338 L 90 337 L 90 336 L 90 335 L 90 335 L 90 334 L 90 333 L 91 333 L 91 332 L 92 331 L 93 330 L 93 330 L 95 329 L 96 328 L 96 328 L 96 327 L 97 326 L 99 325 L 101 325 L 102 324 L 104 323 L 105 323 L 114 322 L 114 321 L 114 320 L 114 320 L 114 319 L 114 318 L 119 318 L 121 317 L 122 316 L 126 315 L 132 315 L 135 314 L 146 313 L 150 313 L 156 312 L 163 311 L 165 310 L 190 310 L 191 309 L 191 308 L 194 307 L 195 307 L 195 306 L 195 305 L 195 305 L 195 304 L 195 303 L 195 302 L 195 302 L 195 301 L 195 300 L 195 300 L 196 299 L 196 298 L 196 297 L 196 297 L 196 296 L 196 295 L 196 295 L 196 294 L 196 293 L 196 292 L 196 292 L 196 291 L 196 290 L 196 290 L 196 289 L 196 288 L 196 287 L 196 287 L 197 286 L 197 285 L 197 285 L 197 284 L 197 283 L 197 282 L 197 282 L 197 281 L 197 280 L 197 280 L 197 279 L 197 278 L 197 277 L 197 277 L 197 276 L 197 275 L 197 274 L 197 274 L 198 273 L 198 272 L 198 272 L 198 271 L 199 270 L 199 269 L 200 269 L 200 268 L 200 267 L 201 267 L 201 266 L 201 265 L 201 264 L 201 264 L 201 263 L 201 262 L 201 262 L 201 261 L 201 260 L 201 259 L 201 259 L 201 258 L 201 257 L 202 257 L 203 256 L 203 255 L 203 254 L 203 254 L 209 253 L 210 252 L 210 252 L 212 251 L 212 250 L 216 249 L 220 249 L 221 248 L 224 247 L 226 247 L 228 246 L 229 245 L 230 244 L 233 244 L 234 243 L 235 242 L 237 241 L 238 241 L 239 240 L 239 239 L 240 239 L 240 238 L 242 237 L 244 236 L 244 236 L 245 235 L 246 234 L 246 234 L 247 233 L 250 232 L 252 231 L 256 231 L 257 230 L 258 229 L 260 229 L 260 228 L 261 227 L 263 226 L 273 226 L 274 225 L 276 224 L 285 224 L 286 223 L 286 222 L 286 221 L 286 221 L 288 220 L 291 219 L 293 219 L 293 218 L 305 217 L 307 216 L 310 216 L 314 215 L 316 214 L 316 214 L 318 213 L 326 212 L 336 211 L 346 211 L 347 210 L 348 209 L 348 208 L 348 208 L 351 207 L 365 206 L 372 206 L 372 205 L 377 204 L 379 203 L 379 203 L 395 202 L 395 201 L 396 201 L 397 200 L 399 199 L 403 198 L 405 198 L 409 197 L 411 196 L 414 196 L 423 195 L 423 194 L 425 193 L 425 193 L 426 192 L 426 191 L 431 191 L 440 190 L 460 189 L 467 188 L 468 188 L 471 187 L 472 186 L 474 186 L 476 185 L 476 184 L 476 183 L 476 183 L 476 182 L 476 181 L 476 181 L 476 180 L 477 179 L 477 178 L 477 178 L 477 177 L 477 176 L 478 175 L 478 175 L 479 174 L 481 173 L 482 173 L 482 172 L 482 171 L 482 170 L 485 170 L 485 169 L 485 168 L 485 168 L 485 167 L 485 166 L 485 165 L 487 165 L 488 164 L 488 163 L 489 163 L 489 162 L 489 161 L 489 160 L 491 160 L 491 159 L 491 158 L 491 158 L 493 157 L 493 156 L 493 155 L 495 155 L 497 154 L 498 153 L 500 153 L 504 152 L 504 151 L 505 150 L 506 150 L 506 149 L 506 148 L 506 148 L 509 147 L 510 146 L 513 145 L 513 145 L 514 144 L 517 143 L 519 142 L 519 142 L 523 141 L 524 140 L 525 140 L 527 139 L 527 138 L 534 137 L 535 137 L 536 136 L 542 135 L 545 135 L 551 134 L 552 133 L 553 132 L 554 132 L 555 131 L 555 130 L 560 130 L 563 129 L 566 128 L 566 127 L 568 127 L 570 126 L 570 125 L 570 125 L 570 124 L 571 123 L 572 122 L 572 122 L 574 121 L 574 120 L 574 120 L 576 119 L 583 118 L 591 117 L 591 117 L 591 116 L 597 115 L 600 115 L 601 114 L 602 113 L 604 112 L 606 112 L 606 111 L 606 110 L 606 109 L 606 109 L 606 108 L 607 107 L 607 107 L 607 106 L 609 105 L 613 104 L 613 104 L 613 103 L 613 102 L 613 102 L 614 101 L 614 100 L 614 99 L 614 99 L 614 98 L 614 97 L 614 97 L 615 96 L 621 95 L 625 94 L 625 94 L 627 93 L 635 92 L 644 92 L 646 91 L 651 90 L 655 89 L 666 89 L 669 88 L 673 87 L 674 87 L 674 86 L 674 85 L 674 84 L 674 84 L 674 83 L 674 82 L 676 82 L 678 81 L 691 80 L 695 79 L 700 79 L 710 78 L 717 77 L 723 76 L 727 76 L 735 75 L 735 74 L 750 74 L 766 73 L 766 72 L 776 71 L 777 71 L 786 70 L 787 69 L 792 69 L 792 68 L 793 67 L 793 66 L 798 66 L 800 65 L 804 64 L 810 64 L 811 63 L 813 62 L 814 61 L 820 61 L 826 60 L 826 59 L 832 59 L 839 58 L 840 57 L 840 56 L 843 56 L 845 55 L 846 54 L 851 54 L 856 53 L 860 52 L 864 51 L 864 51 L 872 50 L 874 49 L 878 49 L 886 48 L 886 47 L 894 46 L 895 46 L 895 45 L 898 44 L 898 43 L 902 43 L 902 42 L 906 41 L 911 41 L 912 40 L 913 39 L 913 38 L 926 38 L 926 37 L 927 36 L 928 36 L 928 35 L 929 34 L 930 33 L 930 33 L 931 32 L 934 31 L 934 31 L 937 30 L 938 29 L 939 28 L 940 28 L 941 27 L 941 26 L 942 26 L 943 25 L 943 24 L 944 23 L 944 23 L 945 22 L 945 21" stroke-width="2"></path><path stroke-width="2" d="M 945 346 L 945.000000 15.000000" /><path d="M 945 346 L 945.000000 15.000000" stroke-width="2"></path><path stroke-width="2" d="M 945 346 L 950 346" /><path stroke-width="2" d="M 945 346 L 950 346"></path><text y="352" xmlns="http://www.w3.org/2000/svg" x="955">0</text><path stroke-width="2" d="M 945 308 L 950 308" /><path stroke-width="2" d="M 945 308 L 950 308"></path><text xmlns="http://www.w3.org/2000/svg" x="955" y="314">52</text><path d="M 945 272 L 950 272" stroke-width="2" /><path stroke-width="2" d="M 945 272 L 950 272"></path><text y="278" xmlns="http://www.w3.org/2000/svg" x="955">103</text><path d="M 945 235 L 950 235" stroke-width="2" /><path stroke-width="2" d="M 945 235 L 950 235"></path><text xmlns="http://www.w3.org/2000/svg" x="955" y="241">154</text><path stroke-width="2" d="M 945 198 L 950 198" /><path stroke-width="2" d="M 945 198 L 950 198"></path><text xmlns="http://www.w3.org/2000/svg" x="955" y="204">205</text><path stroke-width="2" d="M 945 162 L 950 162" /><path stroke-width="2" d="M 945 162 L 950 162"></path><text xmlns="http://www.w3.org/2000/svg" x="955" y="168">256</text><path stroke-width="2" d="M 945 125 L 950 125" /><path stroke-width="2" d="M 945 125 L 950 125"></path><text y="131" xmlns="http://www.w3.org/2000/svg" x="955">307</text><path stroke-width="2" d="M 945 89 L 950 89" /><path stroke-width="2" d="M 945 89 L 950 89"></path><text x="955" y="95" xmlns="http://www.w3.org/2000/svg">358</text><path stroke-width="2" d="M 945 52 L 950 52" /><path stroke-width="2" d="M 945 52 L 950 52"></path><text xmlns="http://www.w3.org/2000/svg" x="955" y="58">409</text><path stroke-width="2" d="M 945 16 L 950 16" /><path stroke-width="2" d="M 945 16 L 950 16"></path><text x="955" y="22" xmlns="http://www.w3.org/2000/svg">460</text><text x="987" y="175" transform="rotate(90.00,987,175)" xmlns="http://www.w3.org/2000/svg">Stargazers</text><path stroke-width="2" d="M 57.000000 346.000000 L 945 346" /><path d="M 57.000000 346.000000 L 945 346" stroke-width="2"></path><path stroke-width="2" d="M 58 346 L 58 351" /><path d="M 58 346 L 58 351" stroke-width="2"></path><text y="368" xmlns="http://www.w3.org/2000/svg" x="25">2023-04-02</text><path stroke-width="2" d="M 157 346 L 157 351" /><path stroke-width="2" d="M 157 346 L 157 351"></path><text xmlns="http://www.w3.org/2000/svg" x="124" y="368">2023-05-18</text><path stroke-width="2" d="M 256 346 L 256 351" /><path stroke-width="2" d="M 256 346 L 256 351"></path><text x="223" y="368" xmlns="http://www.w3.org/2000/svg">2023-07-03</text><path stroke-width="2" d="M 354 346 L 354 351" /><path stroke-width="2" d="M 354 346 L 354 351"></path><text x="321" y="368" xmlns="http://www.w3.org/2000/svg">2023-08-19</text><path stroke-width="2" d="M 453 346 L 453 351" /><path stroke-width="2" d="M 453 346 L 453 351"></path><text xmlns="http://www.w3.org/2000/svg" x="420" y="368">2023-10-04</text><path stroke-width="2" d="M 551 346 L 551 351" /><path stroke-width="2" d="M 551 346 L 551 351"></path><text xmlns="http://www.w3.org/2000/svg" x="518" y="368">2023-11-19</text><path stroke-width="2" d="M 650 346 L 650 351" /><path stroke-width="2" d="M 650 346 L 650 351"></path><text xmlns="http://www.w3.org/2000/svg" x="617" y="368">2024-01-04</text><path stroke-width="2" d="M 748 346 L 748 351" /><path stroke-width="2" d="M 748 346 L 748 351"></path><text xmlns="http://www.w3.org/2000/svg" x="715" y="368">2024-02-20</text><path stroke-width="2" d="M 847 346 L 847 351" /><path d="M 847 346 L 847 351" stroke-width="2"></path><text xmlns="http://www.w3.org/2000/svg" x="814" y="368">2024-04-06</text><path stroke-width="2" d="M 945 346 L 945 351" /><path stroke-width="2" d="M 945 346 L 945 351"></path><text xmlns="http://www.w3.org/2000/svg" x="912" y="368">2024-05-22</text><text xmlns="http://www.w3.org/2000/svg" x="487" y="390">Time</text></svg>