<svg xmlns="http://www.w3.org/2000/svg" xmlns:xlink="http://www.w3.org/1999/xlink" width="1024" height="400">\n<path  d="M 0 0
L 1024 0
L 1024 400
L 0 400
L 0 0" style="stroke-width:0;stroke:rgba(255,255,255,1.0);fill:rgba(255,255,255,1.0)"/><path  d="M 38 11
L 965 11
L 965 351
L 38 351
L 38 11" style="stroke-width:0;stroke:rgba(255,255,255,1.0);fill:rgba(255,255,255,1.0)"/><path  d="M 38 351
L 965 351" style="stroke-width:2;stroke:rgba(85,85,85,1.0);fill:none"/><path  d="M 38 351
L 38 356" style="stroke-width:2;stroke:rgba(85,85,85,1.0);fill:none"/><text x="5" y="373" style="stroke-width:0;stroke:none;fill:rgba(51,51,51,1.0);font-size:12.8px;font-family:'Roboto Medium',sans-serif">2023-04-02</text><path  d="M 154 351
L 154 356" style="stroke-width:2;stroke:rgba(85,85,85,1.0);fill:none"/><text x="121" y="373" style="stroke-width:0;stroke:none;fill:rgba(51,51,51,1.0);font-size:12.8px;font-family:'Roboto Medium',sans-serif">2023-04-22</text><path  d="M 270 351
L 270 356" style="stroke-width:2;stroke:rgba(85,85,85,1.0);fill:none"/><text x="237" y="373" style="stroke-width:0;stroke:none;fill:rgba(51,51,51,1.0);font-size:12.8px;font-family:'Roboto Medium',sans-serif">2023-05-13</text><path  d="M 386 351
L 386 356" style="stroke-width:2;stroke:rgba(85,85,85,1.0);fill:none"/><text x="353" y="373" style="stroke-width:0;stroke:none;fill:rgba(51,51,51,1.0);font-size:12.8px;font-family:'Roboto Medium',sans-serif">2023-06-03</text><path  d="M 502 351
L 502 356" style="stroke-width:2;stroke:rgba(85,85,85,1.0);fill:none"/><text x="469" y="373" style="stroke-width:0;stroke:none;fill:rgba(51,51,51,1.0);font-size:12.8px;font-family:'Roboto Medium',sans-serif">2023-06-23</text><path  d="M 618 351
L 618 356" style="stroke-width:2;stroke:rgba(85,85,85,1.0);fill:none"/><text x="585" y="373" style="stroke-width:0;stroke:none;fill:rgba(51,51,51,1.0);font-size:12.8px;font-family:'Roboto Medium',sans-serif">2023-07-14</text><path  d="M 734 351
L 734 356" style="stroke-width:2;stroke:rgba(85,85,85,1.0);fill:none"/><text x="701" y="373" style="stroke-width:0;stroke:none;fill:rgba(51,51,51,1.0);font-size:12.8px;font-family:'Roboto Medium',sans-serif">2023-08-03</text><path  d="M 850 351
L 850 356" style="stroke-width:2;stroke:rgba(85,85,85,1.0);fill:none"/><text x="817" y="373" style="stroke-width:0;stroke:none;fill:rgba(51,51,51,1.0);font-size:12.8px;font-family:'Roboto Medium',sans-serif">2023-08-24</text><path  d="M 965 351
L 965 356" style="stroke-width:2;stroke:rgba(85,85,85,1.0);fill:none"/><text x="932" y="373" style="stroke-width:0;stroke:none;fill:rgba(51,51,51,1.0);font-size:12.8px;font-family:'Roboto Medium',sans-serif">2023-09-13</text><text x="487" y="395" style="stroke-width:0;stroke:none;fill:rgba(51,51,51,1.0);font-size:12.8px;font-family:'Roboto Medium',sans-serif">Time</text><path  d="M 967 351
L 967 11" style="stroke-width:2;stroke:rgba(85,85,85,1.0);fill:none"/><path  d="M 967 351
L 972 351" style="stroke-width:2;stroke:rgba(85,85,85,1.0);fill:none"/><text x="977" y="357" style="stroke-width:0;stroke:none;fill:rgba(51,51,51,1.0);font-size:12.8px;font-family:'Roboto Medium',sans-serif">0</text><path  d="M 967 307
L 972 307" style="stroke-width:2;stroke:rgba(85,85,85,1.0);fill:none"/><text x="977" y="313" style="stroke-width:0;stroke:none;fill:rgba(51,51,51,1.0);font-size:12.8px;font-family:'Roboto Medium',sans-serif">27</text><path  d="M 967 265
L 972 265" style="stroke-width:2;stroke:rgba(85,85,85,1.0);fill:none"/><text x="977" y="271" style="stroke-width:0;stroke:none;fill:rgba(51,51,51,1.0);font-size:12.8px;font-family:'Roboto Medium',sans-serif">53</text><path  d="M 967 223
L 972 223" style="stroke-width:2;stroke:rgba(85,85,85,1.0);fill:none"/><text x="977" y="229" style="stroke-width:0;stroke:none;fill:rgba(51,51,51,1.0);font-size:12.8px;font-family:'Roboto Medium',sans-serif">79</text><path  d="M 967 181
L 972 181" style="stroke-width:2;stroke:rgba(85,85,85,1.0);fill:none"/><text x="977" y="187" style="stroke-width:0;stroke:none;fill:rgba(51,51,51,1.0);font-size:12.8px;font-family:'Roboto Medium',sans-serif">105</text><path  d="M 967 137
L 972 137" style="stroke-width:2;stroke:rgba(85,85,85,1.0);fill:none"/><text x="977" y="143" style="stroke-width:0;stroke:none;fill:rgba(51,51,51,1.0);font-size:12.8px;font-family:'Roboto Medium',sans-serif">132</text><path  d="M 967 95
L 972 95" style="stroke-width:2;stroke:rgba(85,85,85,1.0);fill:none"/><text x="977" y="101" style="stroke-width:0;stroke:none;fill:rgba(51,51,51,1.0);font-size:12.8px;font-family:'Roboto Medium',sans-serif">158</text><path  d="M 967 53
L 972 53" style="stroke-width:2;stroke:rgba(85,85,85,1.0);fill:none"/><text x="977" y="59" style="stroke-width:0;stroke:none;fill:rgba(51,51,51,1.0);font-size:12.8px;font-family:'Roboto Medium',sans-serif">184</text><path  d="M 967 11
L 972 11" style="stroke-width:2;stroke:rgba(85,85,85,1.0);fill:none"/><text x="977" y="17" style="stroke-width:0;stroke:none;fill:rgba(51,51,51,1.0);font-size:12.8px;font-family:'Roboto Medium',sans-serif">210</text><text x="1009" y="150" style="stroke-width:0;stroke:none;fill:rgba(51,51,51,1.0);font-size:12.8px;font-family:'Roboto Medium',sans-serif" transform="rotate(90.00,1009,150)">Stargazers</text><path  d="M 38 351
L 49 349
L 117 347
L 119 346
L 119 344
L 119 342
L 119 341
L 119 339
L 119 338
L 119 336
L 121 334
L 121 333
L 121 331
L 121 329
L 121 328
L 122 326
L 122 325
L 122 323
L 124 321
L 124 320
L 127 318
L 129 317
L 130 315
L 135 313
L 138 312
L 138 310
L 138 308
L 140 307
L 141 305
L 145 304
L 152 302
L 153 300
L 158 299
L 162 297
L 184 295
L 184 294
L 184 292
L 185 291
L 185 289
L 185 287
L 185 286
L 198 284
L 203 283
L 207 281
L 217 279
L 234 278
L 241 276
L 271 274
L 281 273
L 297 271
L 314 270
L 322 268
L 386 266
L 389 265
L 390 263
L 398 261
L 400 260
L 400 258
L 400 257
L 400 255
L 400 253
L 400 252
L 400 250
L 400 249
L 401 247
L 401 245
L 401 244
L 402 242
L 403 240
L 403 239
L 403 237
L 403 236
L 403 234
L 403 232
L 403 231
L 403 229
L 403 227
L 403 226
L 403 224
L 403 223
L 404 221
L 404 219
L 404 218
L 404 216
L 404 215
L 404 213
L 404 211
L 404 210
L 404 208
L 404 206
L 404 205
L 404 203
L 404 202
L 405 200
L 405 198
L 405 197
L 405 195
L 405 193
L 405 192
L 405 190
L 405 189
L 406 187
L 406 185
L 407 184
L 409 182
L 409 181
L 409 179
L 410 177
L 411 176
L 414 174
L 414 172
L 415 171
L 415 169
L 415 168
L 415 166
L 415 164
L 415 163
L 415 161
L 415 159
L 415 158
L 415 156
L 415 155
L 415 153
L 415 151
L 415 150
L 416 148
L 417 147
L 421 145
L 422 143
L 422 142
L 422 140
L 437 138
L 439 137
L 439 135
L 444 134
L 445 132
L 454 130
L 465 129
L 468 127
L 477 125
L 481 124
L 488 122
L 490 121
L 491 119
L 501 117
L 502 116
L 506 114
L 511 113
L 513 111
L 517 109
L 518 108
L 518 106
L 520 104
L 525 103
L 530 101
L 530 100
L 533 98
L 535 96
L 535 95
L 539 93
L 546 91
L 551 90
L 561 88
L 564 87
L 568 85
L 573 83
L 573 82
L 574 80
L 580 79
L 608 77
L 609 75
L 613 74
L 640 72
L 640 70
L 640 69
L 641 67
L 642 66
L 646 64
L 654 62
L 659 61
L 660 59
L 691 57
L 698 56
L 705 54
L 715 53
L 721 51
L 722 49
L 726 48
L 748 46
L 773 45
L 801 43
L 804 41
L 804 40
L 805 38
L 806 36
L 813 35
L 850 33
L 868 32
L 869 30
L 883 28
L 886 27
L 889 25
L 930 23
L 930 22
L 934 20
L 935 19
L 941 17
L 952 15
L 957 14
L 965 12" style="stroke-width:2;stroke:rgba(129,199,239,1.0);fill:none"/></svg>