<svg xmlns="http://www.w3.org/2000/svg" xmlns:xlink="http://www.w3.org/1999/xlink" width="1024px" height="400px"><style type="text/css">
path { fill: none; stroke: rgb(51,51,51); }
path.series { stroke: #6b63ff; }
rect.background { fill: rgb(255,255,255); stroke: none; }

text {
	stroke-width: 0;
	stroke: none;
	fill: rgba(51,51,51,1.0);
	font-size: 12.8px;
	font-family: 'Roboto Medium', sans-serif;
}
</style><rect height="400px" class="background" rx="8" x="0" y="0" width="1024px" /><rect y="0" width="1024px" height="400px" class="background" rx="8" x="0"></rect><path stroke-width="2" class="series" d="M 58 345 L 61 345 L 76 344 L 77 344 L 77 344 L 77 343 L 77 343 L 77 343 L 77 342 L 77 342 L 77 341 L 77 341 L 77 341 L 77 340 L 77 340 L 77 340 L 77 339 L 78 339 L 78 338 L 79 338 L 79 338 L 79 337 L 80 337 L 81 337 L 81 336 L 81 336 L 82 335 L 82 335 L 84 335 L 84 334 L 85 334 L 86 334 L 91 333 L 91 333 L 91 332 L 92 332 L 92 332 L 94 331 L 96 331 L 96 331 L 99 330 L 103 330 L 104 329 L 111 329 L 113 329 L 117 328 L 121 328 L 122 328 L 137 327 L 138 327 L 138 326 L 140 326 L 140 326 L 140 325 L 140 325 L 140 325 L 140 324 L 140 324 L 140 323 L 140 323 L 140 323 L 140 322 L 140 322 L 140 322 L 141 321 L 141 321 L 141 320 L 141 320 L 141 320 L 141 319 L 141 319 L 141 319 L 141 318 L 141 318 L 141 317 L 141 317 L 141 317 L 141 316 L 141 316 L 141 316 L 141 315 L 141 315 L 141 314 L 141 314 L 141 314 L 141 313 L 141 313 L 141 313 L 141 312 L 141 312 L 141 311 L 141 311 L 141 311 L 141 310 L 141 310 L 141 310 L 141 309 L 141 309 L 142 308 L 142 308 L 142 308 L 142 307 L 142 307 L 142 307 L 143 306 L 143 306 L 143 305 L 143 305 L 143 305 L 143 304 L 143 304 L 143 304 L 143 303 L 143 303 L 143 302 L 143 302 L 143 302 L 143 301 L 143 301 L 143 301 L 143 300 L 144 300 L 144 299 L 145 299 L 145 299 L 145 298 L 145 298 L 148 298 L 149 297 L 149 297 L 150 296 L 150 296 L 152 296 L 155 295 L 155 295 L 157 295 L 158 294 L 160 294 L 160 293 L 161 293 L 163 293 L 163 292 L 164 292 L 165 292 L 166 291 L 167 291 L 167 290 L 167 290 L 167 290 L 168 289 L 169 289 L 169 289 L 170 288 L 170 288 L 171 287 L 171 287 L 173 287 L 174 286 L 176 286 L 177 286 L 178 285 L 179 285 L 179 284 L 179 284 L 181 284 L 187 283 L 187 283 L 188 283 L 194 282 L 194 282 L 194 281 L 194 281 L 195 281 L 196 280 L 197 280 L 198 280 L 199 279 L 206 279 L 207 278 L 209 278 L 211 278 L 213 277 L 213 277 L 214 277 L 219 276 L 224 276 L 231 275 L 231 275 L 231 275 L 231 274 L 232 274 L 233 274 L 242 273 L 246 273 L 246 272 L 249 272 L 250 272 L 250 271 L 260 271 L 260 271 L 260 270 L 261 270 L 262 269 L 265 269 L 266 269 L 268 268 L 269 268 L 271 268 L 276 267 L 277 267 L 277 266 L 278 266 L 278 266 L 278 265 L 281 265 L 286 265 L 298 264 L 303 264 L 305 263 L 305 263 L 307 263 L 308 262 L 308 262 L 308 262 L 308 261 L 308 261 L 308 260 L 308 260 L 308 260 L 308 259 L 308 259 L 308 259 L 308 258 L 309 258 L 309 257 L 309 257 L 311 257 L 311 256 L 312 256 L 312 256 L 312 255 L 313 255 L 313 254 L 313 254 L 313 254 L 313 253 L 313 253 L 313 253 L 314 252 L 315 252 L 315 251 L 316 251 L 316 251 L 316 250 L 316 250 L 317 250 L 317 249 L 317 249 L 317 248 L 318 248 L 318 248 L 318 247 L 319 247 L 320 247 L 321 246 L 322 246 L 325 245 L 325 245 L 325 245 L 326 244 L 326 244 L 326 244 L 326 243 L 327 243 L 328 242 L 330 242 L 330 242 L 331 241 L 332 241 L 334 241 L 334 240 L 336 240 L 337 239 L 337 239 L 338 239 L 338 238 L 343 238 L 343 238 L 344 237 L 347 237 L 349 236 L 352 236 L 353 236 L 354 235 L 355 235 L 355 235 L 355 234 L 358 234 L 360 233 L 362 233 L 362 233 L 363 232 L 364 232 L 364 232 L 364 231 L 364 231 L 365 230 L 365 230 L 365 230 L 366 229 L 366 229 L 367 229 L 367 228 L 372 228 L 377 227 L 377 227 L 377 227 L 380 226 L 382 226 L 383 226 L 383 225 L 384 225 L 385 224 L 385 224 L 385 224 L 385 223 L 386 223 L 386 223 L 386 222 L 386 222 L 387 221 L 387 221 L 390 221 L 390 220 L 390 220 L 390 220 L 390 219 L 390 219 L 390 218 L 390 218 L 390 218 L 390 217 L 391 217 L 391 217 L 391 216 L 395 216 L 397 215 L 397 215 L 398 215 L 408 214 L 410 214 L 413 214 L 415 213 L 421 213 L 424 212 L 426 212 L 426 212 L 426 211 L 426 211 L 426 211 L 426 210 L 426 210 L 426 209 L 428 209 L 429 209 L 437 208 L 439 208 L 442 208 L 448 207 L 452 207 L 456 206 L 458 206 L 462 206 L 463 205 L 472 205 L 481 205 L 481 204 L 487 204 L 488 203 L 493 203 L 494 203 L 497 202 L 497 202 L 497 202 L 497 201 L 500 201 L 501 200 L 504 200 L 508 200 L 508 199 L 509 199 L 510 199 L 513 198 L 517 198 L 517 197 L 521 197 L 525 197 L 525 196 L 526 196 L 527 196 L 528 195 L 529 195 L 532 194 L 535 194 L 537 194 L 540 193 L 540 193 L 545 193 L 546 192 L 548 192 L 553 191 L 553 191 L 558 191 L 558 190 L 559 190 L 560 190 L 560 189 L 563 189 L 563 188 L 565 188 L 568 188 L 569 187 L 569 187 L 569 187 L 577 186 L 577 186 L 578 185 L 578 185 L 578 185 L 579 184 L 579 184 L 579 184 L 580 183 L 582 183 L 582 182 L 583 182 L 584 182 L 585 181 L 585 181 L 586 181 L 586 180 L 587 180 L 587 179 L 587 179 L 588 179 L 588 178 L 588 178 L 588 178 L 589 177 L 591 177 L 591 176 L 591 176 L 592 176 L 592 175 L 594 175 L 595 175 L 595 174 L 596 174 L 597 173 L 598 173 L 598 173 L 599 172 L 599 172 L 601 172 L 601 171 L 601 171 L 602 170 L 602 170 L 602 170 L 602 169 L 603 169 L 603 169 L 604 168 L 607 168 L 609 167 L 610 167 L 610 167 L 612 166 L 614 166 L 614 166 L 616 165 L 619 165 L 621 164 L 624 164 L 625 164 L 625 163 L 625 163 L 625 163 L 626 162 L 626 162 L 626 161 L 627 161 L 627 161 L 627 160 L 628 160 L 629 160 L 630 159 L 630 159 L 631 158 L 631 158 L 634 158 L 634 157 L 634 157 L 635 157 L 636 156 L 639 156 L 641 155 L 645 155 L 645 155 L 645 154 L 646 154 L 648 154 L 650 153 L 650 153 L 650 152 L 650 152 L 651 152 L 653 151 L 656 151 L 656 151 L 656 150 L 657 150 L 658 149 L 659 149 L 659 149 L 659 148 L 662 148 L 666 148 L 666 147 L 670 147 L 670 146 L 671 146 L 674 146 L 675 145 L 678 145 L 680 145 L 682 144 L 683 144 L 683 143 L 683 143 L 684 143 L 684 142 L 684 142 L 685 142 L 685 141 L 685 141 L 686 140 L 686 140 L 686 140 L 687 139 L 688 139 L 689 139 L 694 138 L 694 138 L 699 137 L 701 137 L 701 137 L 702 136 L 703 136 L 706 136 L 706 135 L 707 135 L 707 134 L 708 134 L 708 134 L 708 133 L 708 133 L 708 132 L 709 132 L 709 132 L 709 131 L 709 131 L 709 131 L 710 130 L 710 130 L 710 130 L 712 129 L 712 129 L 712 128 L 713 128 L 714 128 L 714 127 L 714 127 L 715 126 L 716 126 L 719 126 L 719 125 L 719 125 L 719 125 L 719 124 L 720 124 L 721 124 L 721 123 L 722 123 L 724 122 L 727 122 L 730 122 L 731 121 L 732 121 L 736 121 L 739 120 L 740 120 L 743 119 L 747 119 L 747 119 L 747 118 L 752 118 L 753 118 L 754 117 L 755 117 L 755 116 L 764 116 L 764 116 L 765 115 L 765 115 L 766 115 L 766 114 L 767 114 L 768 113 L 768 113 L 769 113 L 769 112 L 769 112 L 770 112 L 770 111 L 770 111 L 770 110 L 770 110 L 771 110 L 771 109 L 773 109 L 774 109 L 775 108 L 775 108 L 775 107 L 776 107 L 777 107 L 778 106 L 778 106 L 779 106 L 779 105 L 779 105 L 779 104 L 781 104 L 782 104 L 783 103 L 783 103 L 784 103 L 785 102 L 785 102 L 785 101 L 786 101 L 786 101 L 786 100 L 787 100 L 787 100 L 788 99 L 788 99 L 790 98 L 790 98 L 790 98 L 790 97 L 790 97 L 791 97 L 791 96 L 791 96 L 791 95 L 793 95 L 793 95 L 793 94 L 794 94 L 794 94 L 794 93 L 794 93 L 794 92 L 795 92 L 795 92 L 795 91 L 796 91 L 796 91 L 796 90 L 798 90 L 799 89 L 802 89 L 802 89 L 802 88 L 802 88 L 803 88 L 804 87 L 805 87 L 806 86 L 808 86 L 811 86 L 811 85 L 813 85 L 813 85 L 813 84 L 814 84 L 815 83 L 815 83 L 815 83 L 815 82 L 815 82 L 815 82 L 815 81 L 815 81 L 816 80 L 816 80 L 816 80 L 816 79 L 816 79 L 816 79 L 817 78 L 817 78 L 818 77 L 818 77 L 819 77 L 821 76 L 821 76 L 821 76 L 821 75 L 823 75 L 823 74 L 824 74 L 826 74 L 827 73 L 827 73 L 827 73 L 827 72 L 828 72 L 830 71 L 832 71 L 833 71 L 835 70 L 835 70 L 835 70 L 835 69 L 836 69 L 841 68 L 844 68 L 847 68 L 848 67 L 849 67 L 850 67 L 851 66 L 851 66 L 852 65 L 852 65 L 852 65 L 853 64 L 854 64 L 854 64 L 855 63 L 858 63 L 858 62 L 858 62 L 858 62 L 858 61 L 858 61 L 858 61 L 858 60 L 858 60 L 858 59 L 858 59 L 858 59 L 858 58 L 858 58 L 858 58 L 858 57 L 858 57 L 859 56 L 859 56 L 859 56 L 859 55 L 859 55 L 859 55 L 860 54 L 860 54 L 860 53 L 860 53 L 862 53 L 862 52 L 862 52 L 862 52 L 862 51 L 862 51 L 863 50 L 864 50 L 867 50 L 867 49 L 867 49 L 869 49 L 869 48 L 869 48 L 870 47 L 872 47 L 873 47 L 874 46 L 874 46 L 874 46 L 874 45 L 874 45 L 874 44 L 874 44 L 877 44 L 877 43 L 877 43 L 881 43 L 883 42 L 885 42 L 887 41 L 888 41 L 889 41 L 889 40 L 889 40 L 890 40 L 890 39 L 891 39 L 891 38 L 892 38 L 893 38 L 893 37 L 893 37 L 893 37 L 893 36 L 894 36 L 894 35 L 894 35 L 894 35 L 894 34 L 895 34 L 895 34 L 897 33 L 897 33 L 897 32 L 898 32 L 898 32 L 898 31 L 899 31 L 900 31 L 900 30 L 900 30 L 901 29 L 901 29 L 903 29 L 907 28 L 907 28 L 909 28 L 912 27 L 913 27 L 914 26 L 917 26 L 917 26 L 918 25 L 922 25 L 927 25 L 928 24 L 930 24 L 932 23 L 934 23 L 934 23 L 935 22 L 937 22 L 937 22 L 938 21 L 939 21 L 941 20 L 942 20 L 943 20 L 943 19 L 944 19 L 944 19 L 945 18 L 945 18" /><path stroke-width="2" class="series" d="M 58 345 L 61 345 L 76 344 L 77 344 L 77 344 L 77 343 L 77 343 L 77 343 L 77 342 L 77 342 L 77 341 L 77 341 L 77 341 L 77 340 L 77 340 L 77 340 L 77 339 L 78 339 L 78 338 L 79 338 L 79 338 L 79 337 L 80 337 L 81 337 L 81 336 L 81 336 L 82 335 L 82 335 L 84 335 L 84 334 L 85 334 L 86 334 L 91 333 L 91 333 L 91 332 L 92 332 L 92 332 L 94 331 L 96 331 L 96 331 L 99 330 L 103 330 L 104 329 L 111 329 L 113 329 L 117 328 L 121 328 L 122 328 L 137 327 L 138 327 L 138 326 L 140 326 L 140 326 L 140 325 L 140 325 L 140 325 L 140 324 L 140 324 L 140 323 L 140 323 L 140 323 L 140 322 L 140 322 L 140 322 L 141 321 L 141 321 L 141 320 L 141 320 L 141 320 L 141 319 L 141 319 L 141 319 L 141 318 L 141 318 L 141 317 L 141 317 L 141 317 L 141 316 L 141 316 L 141 316 L 141 315 L 141 315 L 141 314 L 141 314 L 141 314 L 141 313 L 141 313 L 141 313 L 141 312 L 141 312 L 141 311 L 141 311 L 141 311 L 141 310 L 141 310 L 141 310 L 141 309 L 141 309 L 142 308 L 142 308 L 142 308 L 142 307 L 142 307 L 142 307 L 143 306 L 143 306 L 143 305 L 143 305 L 143 305 L 143 304 L 143 304 L 143 304 L 143 303 L 143 303 L 143 302 L 143 302 L 143 302 L 143 301 L 143 301 L 143 301 L 143 300 L 144 300 L 144 299 L 145 299 L 145 299 L 145 298 L 145 298 L 148 298 L 149 297 L 149 297 L 150 296 L 150 296 L 152 296 L 155 295 L 155 295 L 157 295 L 158 294 L 160 294 L 160 293 L 161 293 L 163 293 L 163 292 L 164 292 L 165 292 L 166 291 L 167 291 L 167 290 L 167 290 L 167 290 L 168 289 L 169 289 L 169 289 L 170 288 L 170 288 L 171 287 L 171 287 L 173 287 L 174 286 L 176 286 L 177 286 L 178 285 L 179 285 L 179 284 L 179 284 L 181 284 L 187 283 L 187 283 L 188 283 L 194 282 L 194 282 L 194 281 L 194 281 L 195 281 L 196 280 L 197 280 L 198 280 L 199 279 L 206 279 L 207 278 L 209 278 L 211 278 L 213 277 L 213 277 L 214 277 L 219 276 L 224 276 L 231 275 L 231 275 L 231 275 L 231 274 L 232 274 L 233 274 L 242 273 L 246 273 L 246 272 L 249 272 L 250 272 L 250 271 L 260 271 L 260 271 L 260 270 L 261 270 L 262 269 L 265 269 L 266 269 L 268 268 L 269 268 L 271 268 L 276 267 L 277 267 L 277 266 L 278 266 L 278 266 L 278 265 L 281 265 L 286 265 L 298 264 L 303 264 L 305 263 L 305 263 L 307 263 L 308 262 L 308 262 L 308 262 L 308 261 L 308 261 L 308 260 L 308 260 L 308 260 L 308 259 L 308 259 L 308 259 L 308 258 L 309 258 L 309 257 L 309 257 L 311 257 L 311 256 L 312 256 L 312 256 L 312 255 L 313 255 L 313 254 L 313 254 L 313 254 L 313 253 L 313 253 L 313 253 L 314 252 L 315 252 L 315 251 L 316 251 L 316 251 L 316 250 L 316 250 L 317 250 L 317 249 L 317 249 L 317 248 L 318 248 L 318 248 L 318 247 L 319 247 L 320 247 L 321 246 L 322 246 L 325 245 L 325 245 L 325 245 L 326 244 L 326 244 L 326 244 L 326 243 L 327 243 L 328 242 L 330 242 L 330 242 L 331 241 L 332 241 L 334 241 L 334 240 L 336 240 L 337 239 L 337 239 L 338 239 L 338 238 L 343 238 L 343 238 L 344 237 L 347 237 L 349 236 L 352 236 L 353 236 L 354 235 L 355 235 L 355 235 L 355 234 L 358 234 L 360 233 L 362 233 L 362 233 L 363 232 L 364 232 L 364 232 L 364 231 L 364 231 L 365 230 L 365 230 L 365 230 L 366 229 L 366 229 L 367 229 L 367 228 L 372 228 L 377 227 L 377 227 L 377 227 L 380 226 L 382 226 L 383 226 L 383 225 L 384 225 L 385 224 L 385 224 L 385 224 L 385 223 L 386 223 L 386 223 L 386 222 L 386 222 L 387 221 L 387 221 L 390 221 L 390 220 L 390 220 L 390 220 L 390 219 L 390 219 L 390 218 L 390 218 L 390 218 L 390 217 L 391 217 L 391 217 L 391 216 L 395 216 L 397 215 L 397 215 L 398 215 L 408 214 L 410 214 L 413 214 L 415 213 L 421 213 L 424 212 L 426 212 L 426 212 L 426 211 L 426 211 L 426 211 L 426 210 L 426 210 L 426 209 L 428 209 L 429 209 L 437 208 L 439 208 L 442 208 L 448 207 L 452 207 L 456 206 L 458 206 L 462 206 L 463 205 L 472 205 L 481 205 L 481 204 L 487 204 L 488 203 L 493 203 L 494 203 L 497 202 L 497 202 L 497 202 L 497 201 L 500 201 L 501 200 L 504 200 L 508 200 L 508 199 L 509 199 L 510 199 L 513 198 L 517 198 L 517 197 L 521 197 L 525 197 L 525 196 L 526 196 L 527 196 L 528 195 L 529 195 L 532 194 L 535 194 L 537 194 L 540 193 L 540 193 L 545 193 L 546 192 L 548 192 L 553 191 L 553 191 L 558 191 L 558 190 L 559 190 L 560 190 L 560 189 L 563 189 L 563 188 L 565 188 L 568 188 L 569 187 L 569 187 L 569 187 L 577 186 L 577 186 L 578 185 L 578 185 L 578 185 L 579 184 L 579 184 L 579 184 L 580 183 L 582 183 L 582 182 L 583 182 L 584 182 L 585 181 L 585 181 L 586 181 L 586 180 L 587 180 L 587 179 L 587 179 L 588 179 L 588 178 L 588 178 L 588 178 L 589 177 L 591 177 L 591 176 L 591 176 L 592 176 L 592 175 L 594 175 L 595 175 L 595 174 L 596 174 L 597 173 L 598 173 L 598 173 L 599 172 L 599 172 L 601 172 L 601 171 L 601 171 L 602 170 L 602 170 L 602 170 L 602 169 L 603 169 L 603 169 L 604 168 L 607 168 L 609 167 L 610 167 L 610 167 L 612 166 L 614 166 L 614 166 L 616 165 L 619 165 L 621 164 L 624 164 L 625 164 L 625 163 L 625 163 L 625 163 L 626 162 L 626 162 L 626 161 L 627 161 L 627 161 L 627 160 L 628 160 L 629 160 L 630 159 L 630 159 L 631 158 L 631 158 L 634 158 L 634 157 L 634 157 L 635 157 L 636 156 L 639 156 L 641 155 L 645 155 L 645 155 L 645 154 L 646 154 L 648 154 L 650 153 L 650 153 L 650 152 L 650 152 L 651 152 L 653 151 L 656 151 L 656 151 L 656 150 L 657 150 L 658 149 L 659 149 L 659 149 L 659 148 L 662 148 L 666 148 L 666 147 L 670 147 L 670 146 L 671 146 L 674 146 L 675 145 L 678 145 L 680 145 L 682 144 L 683 144 L 683 143 L 683 143 L 684 143 L 684 142 L 684 142 L 685 142 L 685 141 L 685 141 L 686 140 L 686 140 L 686 140 L 687 139 L 688 139 L 689 139 L 694 138 L 694 138 L 699 137 L 701 137 L 701 137 L 702 136 L 703 136 L 706 136 L 706 135 L 707 135 L 707 134 L 708 134 L 708 134 L 708 133 L 708 133 L 708 132 L 709 132 L 709 132 L 709 131 L 709 131 L 709 131 L 710 130 L 710 130 L 710 130 L 712 129 L 712 129 L 712 128 L 713 128 L 714 128 L 714 127 L 714 127 L 715 126 L 716 126 L 719 126 L 719 125 L 719 125 L 719 125 L 719 124 L 720 124 L 721 124 L 721 123 L 722 123 L 724 122 L 727 122 L 730 122 L 731 121 L 732 121 L 736 121 L 739 120 L 740 120 L 743 119 L 747 119 L 747 119 L 747 118 L 752 118 L 753 118 L 754 117 L 755 117 L 755 116 L 764 116 L 764 116 L 765 115 L 765 115 L 766 115 L 766 114 L 767 114 L 768 113 L 768 113 L 769 113 L 769 112 L 769 112 L 770 112 L 770 111 L 770 111 L 770 110 L 770 110 L 771 110 L 771 109 L 773 109 L 774 109 L 775 108 L 775 108 L 775 107 L 776 107 L 777 107 L 778 106 L 778 106 L 779 106 L 779 105 L 779 105 L 779 104 L 781 104 L 782 104 L 783 103 L 783 103 L 784 103 L 785 102 L 785 102 L 785 101 L 786 101 L 786 101 L 786 100 L 787 100 L 787 100 L 788 99 L 788 99 L 790 98 L 790 98 L 790 98 L 790 97 L 790 97 L 791 97 L 791 96 L 791 96 L 791 95 L 793 95 L 793 95 L 793 94 L 794 94 L 794 94 L 794 93 L 794 93 L 794 92 L 795 92 L 795 92 L 795 91 L 796 91 L 796 91 L 796 90 L 798 90 L 799 89 L 802 89 L 802 89 L 802 88 L 802 88 L 803 88 L 804 87 L 805 87 L 806 86 L 808 86 L 811 86 L 811 85 L 813 85 L 813 85 L 813 84 L 814 84 L 815 83 L 815 83 L 815 83 L 815 82 L 815 82 L 815 82 L 815 81 L 815 81 L 816 80 L 816 80 L 816 80 L 816 79 L 816 79 L 816 79 L 817 78 L 817 78 L 818 77 L 818 77 L 819 77 L 821 76 L 821 76 L 821 76 L 821 75 L 823 75 L 823 74 L 824 74 L 826 74 L 827 73 L 827 73 L 827 73 L 827 72 L 828 72 L 830 71 L 832 71 L 833 71 L 835 70 L 835 70 L 835 70 L 835 69 L 836 69 L 841 68 L 844 68 L 847 68 L 848 67 L 849 67 L 850 67 L 851 66 L 851 66 L 852 65 L 852 65 L 852 65 L 853 64 L 854 64 L 854 64 L 855 63 L 858 63 L 858 62 L 858 62 L 858 62 L 858 61 L 858 61 L 858 61 L 858 60 L 858 60 L 858 59 L 858 59 L 858 59 L 858 58 L 858 58 L 858 58 L 858 57 L 858 57 L 859 56 L 859 56 L 859 56 L 859 55 L 859 55 L 859 55 L 860 54 L 860 54 L 860 53 L 860 53 L 862 53 L 862 52 L 862 52 L 862 52 L 862 51 L 862 51 L 863 50 L 864 50 L 867 50 L 867 49 L 867 49 L 869 49 L 869 48 L 869 48 L 870 47 L 872 47 L 873 47 L 874 46 L 874 46 L 874 46 L 874 45 L 874 45 L 874 44 L 874 44 L 877 44 L 877 43 L 877 43 L 881 43 L 883 42 L 885 42 L 887 41 L 888 41 L 889 41 L 889 40 L 889 40 L 890 40 L 890 39 L 891 39 L 891 38 L 892 38 L 893 38 L 893 37 L 893 37 L 893 37 L 893 36 L 894 36 L 894 35 L 894 35 L 894 35 L 894 34 L 895 34 L 895 34 L 897 33 L 897 33 L 897 32 L 898 32 L 898 32 L 898 31 L 899 31 L 900 31 L 900 30 L 900 30 L 901 29 L 901 29 L 903 29 L 907 28 L 907 28 L 909 28 L 912 27 L 913 27 L 914 26 L 917 26 L 917 26 L 918 25 L 922 25 L 927 25 L 928 24 L 930 24 L 932 23 L 934 23 L 934 23 L 935 22 L 937 22 L 937 22 L 938 21 L 939 21 L 941 20 L 942 20 L 943 20 L 943 19 L 944 19 L 944 19 L 945 18 L 945 18"></path><path stroke-width="2" d="M 945 346 L 945.000000 15.000000" /><path stroke-width="2" d="M 945 346 L 945.000000 15.000000"></path><path stroke-width="2" d="M 945 346 L 950 346" /><path d="M 945 346 L 950 346" stroke-width="2"></path><text xmlns="http://www.w3.org/2000/svg" x="955" y="352">0</text><path stroke-width="2" d="M 945 309 L 950 309" /><path stroke-width="2" d="M 945 309 L 950 309"></path><text xmlns="http://www.w3.org/2000/svg" x="955" y="315">98</text><path stroke-width="2" d="M 945 272 L 950 272" /><path stroke-width="2" d="M 945 272 L 950 272"></path><text xmlns="http://www.w3.org/2000/svg" x="955" y="278">196</text><path d="M 945 235 L 950 235" stroke-width="2" /><path stroke-width="2" d="M 945 235 L 950 235"></path><text y="241" xmlns="http://www.w3.org/2000/svg" x="955">294</text><path stroke-width="2" d="M 945 199 L 950 199" /><path stroke-width="2" d="M 945 199 L 950 199"></path><text y="205" xmlns="http://www.w3.org/2000/svg" x="955">392</text><path stroke-width="2" d="M 945 162 L 950 162" /><path stroke-width="2" d="M 945 162 L 950 162"></path><text xmlns="http://www.w3.org/2000/svg" x="955" y="168">489</text><path d="M 945 125 L 950 125" stroke-width="2" /><path d="M 945 125 L 950 125" stroke-width="2"></path><text xmlns="http://www.w3.org/2000/svg" x="955" y="131">587</text><path stroke-width="2" d="M 945 89 L 950 89" /><path stroke-width="2" d="M 945 89 L 950 89"></path><text xmlns="http://www.w3.org/2000/svg" x="955" y="95">685</text><path d="M 945 52 L 950 52" stroke-width="2" /><path stroke-width="2" d="M 945 52 L 950 52"></path><text x="955" y="58" xmlns="http://www.w3.org/2000/svg">783</text><path stroke-width="2" d="M 945 16 L 950 16" /><path stroke-width="2" d="M 945 16 L 950 16"></path><text xmlns="http://www.w3.org/2000/svg" x="955" y="22">880</text><text xmlns="http://www.w3.org/2000/svg" x="987" y="175" transform="rotate(90.00,987,175)">Stargazers</text><path stroke-width="2" d="M 57.000000 346.000000 L 945 346" /><path stroke-width="2" d="M 57.000000 346.000000 L 945 346"></path><path stroke-width="2" d="M 58 346 L 58 351" /><path stroke-width="2" d="M 58 346 L 58 351"></path><text xmlns="http://www.w3.org/2000/svg" x="25" y="368">2023-04-02</text><path stroke-width="2" d="M 157 346 L 157 351" /><path stroke-width="2" d="M 157 346 L 157 351"></path><text y="368" xmlns="http://www.w3.org/2000/svg" x="124">2023-06-18</text><path stroke-width="2" d="M 256 346 L 256 351" /><path stroke-width="2" d="M 256 346 L 256 351"></path><text xmlns="http://www.w3.org/2000/svg" x="223" y="368">2023-09-04</text><path d="M 354 346 L 354 351" stroke-width="2" /><path stroke-width="2" d="M 354 346 L 354 351"></path><text xmlns="http://www.w3.org/2000/svg" x="321" y="368">2023-11-20</text><path stroke-width="2" d="M 453 346 L 453 351" /><path stroke-width="2" d="M 453 346 L 453 351"></path><text xmlns="http://www.w3.org/2000/svg" x="420" y="368">2024-02-06</text><path d="M 551 346 L 551 351" stroke-width="2" /><path d="M 551 346 L 551 351" stroke-width="2"></path><text xmlns="http://www.w3.org/2000/svg" x="518" y="368">2024-04-23</text><path stroke-width="2" d="M 650 346 L 650 351" /><path stroke-width="2" d="M 650 346 L 650 351"></path><text xmlns="http://www.w3.org/2000/svg" x="617" y="368">2024-07-09</text><path stroke-width="2" d="M 748 346 L 748 351" /><path stroke-width="2" d="M 748 346 L 748 351"></path><text xmlns="http://www.w3.org/2000/svg" x="715" y="368">2024-09-25</text><path stroke-width="2" d="M 847 346 L 847 351" /><path stroke-width="2" d="M 847 346 L 847 351"></path><text xmlns="http://www.w3.org/2000/svg" x="814" y="368">2024-12-11</text><path stroke-width="2" d="M 945 346 L 945 351" /><path d="M 945 346 L 945 351" stroke-width="2"></path><text xmlns="http://www.w3.org/2000/svg" x="912" y="368">2025-02-27</text><text xmlns="http://www.w3.org/2000/svg" x="487" y="390">Time</text></svg>