<svg xmlns="http://www.w3.org/2000/svg" xmlns:xlink="http://www.w3.org/1999/xlink" width="1024" height="400">\n<path  d="M 0 0
L 1024 0
L 1024 400
L 0 400
L 0 0" style="stroke-width:0;stroke:rgba(255,255,255,1.0);fill:rgba(255,255,255,1.0)"/><path  d="M 38 11
L 965 11
L 965 351
L 38 351
L 38 11" style="stroke-width:0;stroke:rgba(255,255,255,1.0);fill:rgba(255,255,255,1.0)"/><path  d="M 38 351
L 965 351" style="stroke-width:2;stroke:rgba(85,85,85,1.0);fill:none"/><path  d="M 38 351
L 38 356" style="stroke-width:2;stroke:rgba(85,85,85,1.0);fill:none"/><text x="5" y="373" style="stroke-width:0;stroke:none;fill:rgba(51,51,51,1.0);font-size:12.8px;font-family:'Roboto Medium',sans-serif">2023-04-02</text><path  d="M 154 351
L 154 356" style="stroke-width:2;stroke:rgba(85,85,85,1.0);fill:none"/><text x="121" y="373" style="stroke-width:0;stroke:none;fill:rgba(51,51,51,1.0);font-size:12.8px;font-family:'Roboto Medium',sans-serif">2023-04-27</text><path  d="M 270 351
L 270 356" style="stroke-width:2;stroke:rgba(85,85,85,1.0);fill:none"/><text x="237" y="373" style="stroke-width:0;stroke:none;fill:rgba(51,51,51,1.0);font-size:12.8px;font-family:'Roboto Medium',sans-serif">2023-05-22</text><path  d="M 386 351
L 386 356" style="stroke-width:2;stroke:rgba(85,85,85,1.0);fill:none"/><text x="353" y="373" style="stroke-width:0;stroke:none;fill:rgba(51,51,51,1.0);font-size:12.8px;font-family:'Roboto Medium',sans-serif">2023-06-16</text><path  d="M 502 351
L 502 356" style="stroke-width:2;stroke:rgba(85,85,85,1.0);fill:none"/><text x="469" y="373" style="stroke-width:0;stroke:none;fill:rgba(51,51,51,1.0);font-size:12.8px;font-family:'Roboto Medium',sans-serif">2023-07-12</text><path  d="M 618 351
L 618 356" style="stroke-width:2;stroke:rgba(85,85,85,1.0);fill:none"/><text x="585" y="373" style="stroke-width:0;stroke:none;fill:rgba(51,51,51,1.0);font-size:12.8px;font-family:'Roboto Medium',sans-serif">2023-08-06</text><path  d="M 734 351
L 734 356" style="stroke-width:2;stroke:rgba(85,85,85,1.0);fill:none"/><text x="701" y="373" style="stroke-width:0;stroke:none;fill:rgba(51,51,51,1.0);font-size:12.8px;font-family:'Roboto Medium',sans-serif">2023-08-31</text><path  d="M 850 351
L 850 356" style="stroke-width:2;stroke:rgba(85,85,85,1.0);fill:none"/><text x="817" y="373" style="stroke-width:0;stroke:none;fill:rgba(51,51,51,1.0);font-size:12.8px;font-family:'Roboto Medium',sans-serif">2023-09-25</text><path  d="M 965 351
L 965 356" style="stroke-width:2;stroke:rgba(85,85,85,1.0);fill:none"/><text x="932" y="373" style="stroke-width:0;stroke:none;fill:rgba(51,51,51,1.0);font-size:12.8px;font-family:'Roboto Medium',sans-serif">2023-10-20</text><text x="487" y="395" style="stroke-width:0;stroke:none;fill:rgba(51,51,51,1.0);font-size:12.8px;font-family:'Roboto Medium',sans-serif">Time</text><path  d="M 967 351
L 967 11" style="stroke-width:2;stroke:rgba(85,85,85,1.0);fill:none"/><path  d="M 967 351
L 972 351" style="stroke-width:2;stroke:rgba(85,85,85,1.0);fill:none"/><text x="977" y="357" style="stroke-width:0;stroke:none;fill:rgba(51,51,51,1.0);font-size:12.8px;font-family:'Roboto Medium',sans-serif">0</text><path  d="M 967 307
L 972 307" style="stroke-width:2;stroke:rgba(85,85,85,1.0);fill:none"/><text x="977" y="313" style="stroke-width:0;stroke:none;fill:rgba(51,51,51,1.0);font-size:12.8px;font-family:'Roboto Medium',sans-serif">33</text><path  d="M 967 266
L 972 266" style="stroke-width:2;stroke:rgba(85,85,85,1.0);fill:none"/><text x="977" y="272" style="stroke-width:0;stroke:none;fill:rgba(51,51,51,1.0);font-size:12.8px;font-family:'Roboto Medium',sans-serif">65</text><path  d="M 967 222
L 972 222" style="stroke-width:2;stroke:rgba(85,85,85,1.0);fill:none"/><text x="977" y="228" style="stroke-width:0;stroke:none;fill:rgba(51,51,51,1.0);font-size:12.8px;font-family:'Roboto Medium',sans-serif">98</text><path  d="M 967 181
L 972 181" style="stroke-width:2;stroke:rgba(85,85,85,1.0);fill:none"/><text x="977" y="187" style="stroke-width:0;stroke:none;fill:rgba(51,51,51,1.0);font-size:12.8px;font-family:'Roboto Medium',sans-serif">130</text><path  d="M 967 137
L 972 137" style="stroke-width:2;stroke:rgba(85,85,85,1.0);fill:none"/><text x="977" y="143" style="stroke-width:0;stroke:none;fill:rgba(51,51,51,1.0);font-size:12.8px;font-family:'Roboto Medium',sans-serif">163</text><path  d="M 967 96
L 972 96" style="stroke-width:2;stroke:rgba(85,85,85,1.0);fill:none"/><text x="977" y="102" style="stroke-width:0;stroke:none;fill:rgba(51,51,51,1.0);font-size:12.8px;font-family:'Roboto Medium',sans-serif">195</text><path  d="M 967 52
L 972 52" style="stroke-width:2;stroke:rgba(85,85,85,1.0);fill:none"/><text x="977" y="58" style="stroke-width:0;stroke:none;fill:rgba(51,51,51,1.0);font-size:12.8px;font-family:'Roboto Medium',sans-serif">228</text><path  d="M 967 11
L 972 11" style="stroke-width:2;stroke:rgba(85,85,85,1.0);fill:none"/><text x="977" y="17" style="stroke-width:0;stroke:none;fill:rgba(51,51,51,1.0);font-size:12.8px;font-family:'Roboto Medium',sans-serif">260</text><text x="1009" y="150" style="stroke-width:0;stroke:none;fill:rgba(51,51,51,1.0);font-size:12.8px;font-family:'Roboto Medium',sans-serif" transform="rotate(90.00,1009,150)">Stargazers</text><path  d="M 38 351
L 47 349
L 102 348
L 104 347
L 104 345
L 104 344
L 104 343
L 104 341
L 104 340
L 104 339
L 106 337
L 106 336
L 106 335
L 106 334
L 106 332
L 106 331
L 107 330
L 107 328
L 108 327
L 108 326
L 111 324
L 112 323
L 113 322
L 117 320
L 120 319
L 120 318
L 120 317
L 122 315
L 122 314
L 125 313
L 131 311
L 132 310
L 136 309
L 140 307
L 157 306
L 158 305
L 158 303
L 158 302
L 158 301
L 158 300
L 158 298
L 168 297
L 173 296
L 176 294
L 184 293
L 198 292
L 204 290
L 228 289
L 236 288
L 249 286
L 263 285
L 270 284
L 322 283
L 325 281
L 325 280
L 332 279
L 333 277
L 333 276
L 333 275
L 333 273
L 333 272
L 333 271
L 333 269
L 334 268
L 334 267
L 334 266
L 334 264
L 335 263
L 336 262
L 336 260
L 336 259
L 336 258
L 336 256
L 336 255
L 336 254
L 336 252
L 336 251
L 336 250
L 336 249
L 336 247
L 336 246
L 336 245
L 336 243
L 336 242
L 336 241
L 337 239
L 337 238
L 337 237
L 337 235
L 337 234
L 337 233
L 337 232
L 337 230
L 337 229
L 337 228
L 337 226
L 337 225
L 337 224
L 337 222
L 338 221
L 338 220
L 339 218
L 339 217
L 339 216
L 341 215
L 341 213
L 341 212
L 342 211
L 343 209
L 345 208
L 345 207
L 345 205
L 345 204
L 345 203
L 345 201
L 345 200
L 345 199
L 345 198
L 345 196
L 345 195
L 345 194
L 346 192
L 346 191
L 346 190
L 346 188
L 346 187
L 348 186
L 351 184
L 351 183
L 352 182
L 352 181
L 364 179
L 365 178
L 365 177
L 370 175
L 370 174
L 378 173
L 387 171
L 389 170
L 396 169
L 399 167
L 405 166
L 406 165
L 408 163
L 416 162
L 417 161
L 420 160
L 424 158
L 426 157
L 429 156
L 429 154
L 430 153
L 431 152
L 435 150
L 440 149
L 440 148
L 442 147
L 443 145
L 444 144
L 447 143
L 453 141
L 457 140
L 465 139
L 468 137
L 470 136
L 474 135
L 474 133
L 475 132
L 481 131
L 503 130
L 504 128
L 508 127
L 529 126
L 529 124
L 529 123
L 530 122
L 531 120
L 534 119
L 541 118
L 545 116
L 545 115
L 571 114
L 576 113
L 582 111
L 590 110
L 596 109
L 596 107
L 599 106
L 617 105
L 638 103
L 661 102
L 663 101
L 663 99
L 664 98
L 665 97
L 670 96
L 701 94
L 715 93
L 716 92
L 728 90
L 730 89
L 732 88
L 766 86
L 766 85
L 769 84
L 770 82
L 774 81
L 784 80
L 788 79
L 795 77
L 799 76
L 807 75
L 826 73
L 827 72
L 830 71
L 831 69
L 832 68
L 833 67
L 843 65
L 843 64
L 863 63
L 891 62
L 905 60
L 921 59
L 922 58
L 930 56
L 931 55
L 936 54
L 941 52
L 941 51
L 941 50
L 941 48
L 941 47
L 941 46
L 941 45
L 941 43
L 942 42
L 942 41
L 942 39
L 942 38
L 943 37
L 944 35
L 945 34
L 948 33
L 951 31
L 953 30
L 954 29
L 954 28
L 954 26
L 959 25
L 959 24
L 959 22
L 959 21
L 959 20
L 960 18
L 960 17
L 963 16
L 964 14
L 965 13" style="stroke-width:2;stroke:rgba(129,199,239,1.0);fill:none"/></svg>