<svg width="1024px" height="400px" xmlns="http://www.w3.org/2000/svg" xmlns:xlink="http://www.w3.org/1999/xlink"><style type="text/css">
path { fill: none; stroke: rgb(51,51,51); }
path.series { stroke: #6b63ff; }
rect.background { fill: rgb(255,255,255); stroke: none; }

text {
	stroke-width: 0;
	stroke: none;
	fill: rgba(51,51,51,1.0);
	font-size: 12.8px;
	font-family: 'Roboto Medium', sans-serif;
}
</style><rect x="0" y="0" width="1024px" height="400px" class="background" rx="8" /><rect width="1024px" height="400px" class="background" rx="8" x="0" y="0"></rect><path stroke-width="2" class="series" d="M 58 345 L 60 345 L 72 345 L 73 344 L 73 344 L 73 344 L 73 343 L 73 343 L 73 343 L 73 343 L 73 342 L 73 342 L 73 342 L 73 341 L 73 341 L 73 341 L 73 340 L 74 340 L 74 340 L 74 340 L 75 339 L 75 339 L 76 339 L 76 338 L 76 338 L 76 338 L 77 337 L 77 337 L 79 337 L 79 337 L 80 336 L 80 336 L 84 336 L 84 335 L 84 335 L 84 335 L 84 334 L 87 334 L 88 334 L 88 334 L 90 333 L 93 333 L 94 333 L 100 332 L 101 332 L 104 332 L 107 331 L 109 331 L 121 331 L 121 331 L 122 330 L 122 330 L 122 330 L 122 329 L 122 329 L 122 329 L 122 328 L 122 328 L 122 328 L 123 328 L 123 327 L 123 327 L 123 327 L 123 326 L 123 326 L 123 326 L 123 325 L 123 325 L 123 325 L 123 325 L 123 324 L 123 324 L 123 324 L 123 323 L 123 323 L 123 323 L 123 322 L 123 322 L 123 322 L 123 322 L 123 321 L 123 321 L 123 321 L 123 320 L 123 320 L 123 320 L 123 319 L 123 319 L 123 319 L 123 319 L 123 318 L 123 318 L 123 318 L 123 317 L 123 317 L 123 317 L 124 316 L 124 316 L 124 316 L 124 316 L 124 315 L 124 315 L 124 315 L 124 314 L 125 314 L 125 314 L 125 313 L 125 313 L 125 313 L 125 313 L 125 312 L 125 312 L 125 312 L 125 311 L 125 311 L 125 311 L 125 310 L 125 310 L 125 310 L 125 310 L 125 309 L 126 309 L 126 309 L 126 308 L 126 308 L 126 308 L 129 307 L 129 307 L 129 307 L 130 307 L 130 306 L 132 306 L 134 306 L 134 305 L 136 305 L 137 305 L 138 304 L 138 304 L 139 304 L 140 304 L 141 303 L 141 303 L 142 303 L 142 302 L 143 302 L 143 302 L 143 301 L 144 301 L 145 301 L 146 301 L 146 300 L 146 300 L 146 300 L 146 299 L 147 299 L 148 299 L 149 298 L 151 298 L 152 298 L 152 298 L 153 297 L 153 297 L 153 297 L 154 296 L 159 296 L 159 296 L 160 295 L 165 295 L 165 295 L 165 295 L 165 294 L 165 294 L 166 294 L 167 293 L 168 293 L 168 293 L 174 292 L 175 292 L 176 292 L 178 292 L 179 291 L 179 291 L 180 291 L 184 290 L 188 290 L 193 290 L 194 289 L 194 289 L 194 289 L 194 289 L 202 288 L 205 288 L 205 288 L 208 287 L 208 287 L 209 287 L 216 286 L 216 286 L 217 286 L 217 286 L 218 285 L 220 285 L 221 285 L 222 284 L 223 284 L 225 284 L 229 283 L 229 283 L 230 283 L 230 283 L 231 282 L 231 282 L 233 282 L 237 281 L 246 281 L 250 281 L 252 280 L 252 280 L 254 280 L 254 280 L 254 279 L 254 279 L 254 279 L 254 278 L 254 278 L 254 278 L 254 277 L 254 277 L 254 277 L 255 277 L 255 276 L 255 276 L 255 276 L 257 275 L 257 275 L 257 275 L 257 274 L 258 274 L 258 274 L 258 274 L 258 273 L 258 273 L 258 273 L 258 272 L 259 272 L 260 272 L 260 271 L 260 271 L 260 271 L 260 271 L 260 270 L 261 270 L 261 270 L 261 269 L 262 269 L 262 269 L 262 268 L 263 268 L 264 268 L 264 268 L 266 267 L 267 267 L 267 267 L 268 266 L 268 266 L 268 266 L 268 265 L 268 265 L 269 265 L 270 265 L 271 264 L 271 264 L 272 264 L 273 263 L 274 263 L 274 263 L 276 262 L 277 262 L 277 262 L 278 262 L 278 261 L 281 261 L 282 261 L 282 260 L 285 260 L 286 260 L 289 259 L 290 259 L 290 259 L 291 259 L 291 258 L 291 258 L 293 258 L 295 257 L 296 257 L 296 257 L 298 256 L 298 256 L 298 256 L 298 256 L 299 255 L 299 255 L 299 255 L 300 254 L 300 254 L 300 254 L 301 253 L 304 253 L 308 253 L 308 253 L 308 252 L 311 252 L 312 252 L 313 251 L 313 251 L 314 251 L 315 250 L 315 250 L 315 250 L 315 250 L 315 249 L 315 249 L 315 249 L 316 248 L 316 248 L 316 248 L 318 247 L 318 247 L 318 247 L 318 247 L 318 246 L 319 246 L 319 246 L 319 245 L 319 245 L 319 245 L 319 244 L 319 244 L 319 244 L 322 244 L 324 243 L 324 243 L 325 243 L 333 242 L 334 242 L 336 242 L 338 241 L 345 241 L 346 241 L 347 241 L 347 240 L 347 240 L 347 240 L 347 239 L 347 239 L 348 239 L 349 238 L 355 238 L 357 238 L 359 238 L 364 237 L 367 237 L 370 237 L 372 236 L 375 236 L 375 236 L 383 235 L 390 235 L 390 235 L 395 235 L 395 234 L 399 234 L 400 234 L 402 233 L 402 233 L 403 233 L 403 232 L 405 232 L 406 232 L 408 232 L 411 231 L 411 231 L 412 231 L 413 230 L 415 230 L 418 230 L 418 229 L 421 229 L 424 229 L 425 229 L 425 228 L 426 228 L 427 228 L 428 227 L 430 227 L 432 227 L 434 226 L 436 226 L 436 226 L 440 226 L 441 225 L 443 225 L 446 225 L 446 224 L 450 224 L 450 224 L 451 223 L 452 223 L 452 223 L 454 223 L 454 222 L 456 222 L 458 222 L 458 221 L 459 221 L 459 221 L 465 220 L 465 220 L 465 220 L 466 220 L 466 219 L 467 219 L 467 219 L 467 218 L 467 218 L 469 218 L 469 217 L 470 217 L 471 217 L 471 217 L 472 216 L 472 216 L 472 216 L 473 215 L 473 215 L 473 215 L 474 214 L 474 214 L 474 214 L 474 214 L 475 213 L 476 213 L 476 213 L 476 212 L 477 212 L 477 212 L 478 211 L 479 211 L 479 211 L 480 211 L 481 210 L 482 210 L 482 210 L 482 209 L 483 209 L 484 209 L 484 208 L 484 208 L 485 208 L 485 208 L 485 207 L 485 207 L 485 207 L 486 206 L 487 206 L 489 206 L 490 205 L 491 205 L 491 205 L 493 205 L 494 204 L 494 204 L 496 204 L 498 203 L 500 203 L 502 203 L 502 202 L 503 202 L 503 202 L 503 202 L 503 201 L 504 201 L 504 201 L 504 200 L 504 200 L 505 200 L 505 199 L 506 199 L 507 199 L 507 199 L 508 198 L 508 198 L 510 198 L 510 197 L 510 197 L 511 197 L 512 196 L 514 196 L 519 196 L 519 196 L 519 195 L 519 195 L 521 195 L 522 194 L 523 194 L 523 194 L 523 193 L 523 193 L 524 193 L 527 193 L 527 192 L 527 192 L 527 192 L 529 191 L 529 191 L 529 191 L 530 190 L 532 190 L 535 190 L 535 190 L 538 189 L 538 189 L 539 189 L 541 188 L 542 188 L 544 188 L 546 187 L 547 187 L 548 187 L 548 187 L 548 186 L 549 186 L 549 186 L 549 185 L 550 185 L 550 185 L 550 184 L 551 184 L 551 184 L 551 184 L 552 183 L 552 183 L 553 183 L 556 182 L 557 182 L 561 182 L 563 181 L 563 181 L 563 181 L 564 181 L 566 180 L 567 180 L 567 180 L 567 179 L 568 179 L 568 179 L 568 178 L 568 178 L 568 178 L 568 178 L 568 177 L 569 177 L 569 177 L 569 176 L 570 176 L 571 176 L 571 175 L 571 175 L 572 175 L 573 175 L 573 174 L 573 174 L 573 174 L 574 173 L 577 173 L 577 173 L 577 172 L 577 172 L 577 172 L 578 172 L 578 171 L 578 171 L 579 171 L 580 170 L 582 170 L 585 170 L 586 169 L 587 169 L 590 169 L 592 169 L 593 168 L 595 168 L 598 168 L 598 167 L 598 167 L 602 167 L 603 166 L 604 166 L 604 166 L 605 166 L 611 165 L 612 165 L 612 165 L 612 164 L 613 164 L 613 164 L 614 163 L 615 163 L 615 163 L 616 163 L 616 162 L 616 162 L 616 162 L 617 161 L 617 161 L 617 161 L 617 160 L 617 160 L 617 160 L 618 160 L 619 159 L 620 159 L 620 159 L 621 158 L 621 158 L 622 158 L 623 157 L 623 157 L 624 157 L 624 157 L 624 156 L 624 156 L 625 156 L 626 155 L 627 155 L 627 155 L 627 154 L 628 154 L 628 154 L 629 154 L 629 153 L 629 153 L 629 153 L 630 152 L 630 152 L 631 152 L 631 151 L 632 151 L 632 151 L 632 151 L 632 150 L 632 150 L 633 150 L 633 149 L 633 149 L 633 149 L 635 148 L 635 148 L 635 148 L 635 148 L 636 147 L 636 147 L 636 147 L 636 146 L 636 146 L 636 146 L 636 145 L 636 145 L 637 145 L 637 145 L 639 144 L 639 144 L 641 144 L 641 143 L 641 143 L 641 143 L 643 142 L 643 142 L 644 142 L 644 142 L 646 141 L 648 141 L 648 141 L 650 140 L 650 140 L 650 140 L 651 139 L 651 139 L 652 139 L 652 139 L 652 138 L 652 138 L 652 138 L 652 137 L 652 137 L 653 137 L 653 136 L 653 136 L 653 136 L 653 136 L 653 135 L 654 135 L 654 135 L 655 134 L 656 134 L 656 134 L 657 133 L 657 133 L 658 133 L 658 132 L 659 132 L 661 132 L 661 132 L 661 131 L 661 131 L 662 131 L 664 130 L 665 130 L 666 130 L 667 130 L 667 129 L 667 129 L 668 129 L 668 128 L 672 128 L 674 128 L 676 127 L 678 127 L 678 127 L 679 126 L 680 126 L 680 126 L 681 126 L 681 125 L 681 125 L 682 125 L 682 124 L 682 124 L 683 124 L 685 124 L 685 123 L 685 123 L 685 123 L 685 122 L 685 122 L 685 122 L 685 121 L 685 121 L 685 121 L 685 121 L 685 120 L 685 120 L 685 120 L 685 119 L 685 119 L 686 119 L 686 118 L 686 118 L 686 118 L 686 118 L 687 117 L 687 117 L 687 117 L 687 116 L 687 116 L 687 116 L 688 115 L 688 115 L 688 115 L 688 115 L 688 114 L 688 114 L 689 114 L 690 113 L 692 113 L 692 113 L 692 112 L 694 112 L 694 112 L 694 112 L 695 111 L 696 111 L 697 111 L 698 110 L 698 110 L 698 110 L 698 109 L 698 109 L 698 109 L 698 109 L 700 108 L 700 108 L 700 108 L 704 107 L 705 107 L 706 107 L 708 106 L 709 106 L 710 106 L 710 106 L 710 105 L 710 105 L 711 105 L 711 104 L 711 104 L 712 104 L 713 103 L 713 103 L 713 103 L 713 103 L 713 102 L 713 102 L 713 102 L 714 101 L 714 101 L 714 101 L 714 100 L 714 100 L 716 100 L 716 100 L 716 99 L 717 99 L 717 99 L 717 98 L 718 98 L 718 98 L 718 97 L 718 97 L 719 97 L 719 97 L 720 96 L 724 96 L 724 96 L 725 95 L 728 95 L 728 95 L 729 94 L 732 94 L 732 94 L 733 94 L 735 93 L 740 93 L 740 93 L 742 92 L 743 92 L 745 92 L 745 91 L 746 91 L 747 91 L 748 91 L 748 90 L 749 90 L 750 90 L 751 89 L 752 89 L 752 89 L 753 88 L 753 88 L 753 88 L 754 88 L 757 87 L 757 87 L 758 87 L 759 86 L 760 86 L 761 86 L 761 85 L 762 85 L 762 85 L 762 85 L 763 84 L 763 84 L 764 84 L 764 83 L 765 83 L 766 83 L 766 82 L 766 82 L 767 82 L 768 82 L 768 81 L 768 81 L 769 81 L 769 80 L 769 80 L 769 80 L 769 79 L 770 79 L 770 79 L 772 79 L 773 78 L 774 78 L 777 78 L 777 77 L 778 77 L 779 77 L 781 76 L 783 76 L 785 76 L 786 76 L 787 75 L 788 75 L 789 75 L 791 74 L 793 74 L 793 74 L 793 73 L 793 73 L 793 73 L 793 73 L 794 72 L 795 72 L 796 72 L 797 71 L 797 71 L 797 71 L 803 70 L 804 70 L 804 70 L 806 70 L 808 69 L 808 69 L 809 69 L 809 68 L 809 68 L 810 68 L 811 67 L 811 67 L 811 67 L 812 67 L 812 66 L 812 66 L 813 66 L 813 65 L 814 65 L 815 65 L 818 64 L 818 64 L 822 64 L 823 64 L 823 63 L 824 63 L 825 63 L 825 62 L 825 62 L 825 62 L 828 61 L 829 61 L 831 61 L 831 61 L 831 60 L 831 60 L 833 60 L 834 59 L 836 59 L 836 59 L 836 58 L 837 58 L 837 58 L 837 58 L 837 57 L 838 57 L 839 57 L 839 56 L 840 56 L 841 56 L 842 55 L 842 55 L 842 55 L 842 55 L 843 54 L 843 54 L 846 54 L 850 53 L 850 53 L 854 53 L 854 52 L 857 52 L 857 52 L 858 52 L 858 51 L 859 51 L 860 51 L 861 50 L 863 50 L 864 50 L 867 49 L 872 49 L 872 49 L 872 49 L 872 48 L 872 48 L 874 48 L 874 47 L 874 47 L 882 47 L 885 46 L 885 46 L 886 46 L 888 46 L 890 45 L 892 45 L 893 45 L 893 44 L 894 44 L 895 44 L 900 43 L 901 43 L 902 43 L 903 43 L 905 42 L 906 42 L 906 42 L 906 41 L 906 41 L 907 41 L 907 40 L 907 40 L 909 40 L 911 40 L 911 39 L 912 39 L 912 39 L 913 38 L 915 38 L 918 38 L 920 37 L 920 37 L 922 37 L 922 37 L 922 36 L 922 36 L 922 36 L 923 35 L 923 35 L 925 35 L 926 34 L 926 34 L 926 34 L 927 34 L 927 33 L 927 33 L 927 33 L 928 32 L 928 32 L 928 32 L 928 31 L 928 31 L 928 31 L 929 31 L 929 30 L 930 30 L 930 30 L 930 29 L 930 29 L 930 29 L 932 28 L 937 28 L 937 28" /><path stroke-width="2" class="series" d="M 58 345 L 60 345 L 72 345 L 73 344 L 73 344 L 73 344 L 73 343 L 73 343 L 73 343 L 73 343 L 73 342 L 73 342 L 73 342 L 73 341 L 73 341 L 73 341 L 73 340 L 74 340 L 74 340 L 74 340 L 75 339 L 75 339 L 76 339 L 76 338 L 76 338 L 76 338 L 77 337 L 77 337 L 79 337 L 79 337 L 80 336 L 80 336 L 84 336 L 84 335 L 84 335 L 84 335 L 84 334 L 87 334 L 88 334 L 88 334 L 90 333 L 93 333 L 94 333 L 100 332 L 101 332 L 104 332 L 107 331 L 109 331 L 121 331 L 121 331 L 122 330 L 122 330 L 122 330 L 122 329 L 122 329 L 122 329 L 122 328 L 122 328 L 122 328 L 123 328 L 123 327 L 123 327 L 123 327 L 123 326 L 123 326 L 123 326 L 123 325 L 123 325 L 123 325 L 123 325 L 123 324 L 123 324 L 123 324 L 123 323 L 123 323 L 123 323 L 123 322 L 123 322 L 123 322 L 123 322 L 123 321 L 123 321 L 123 321 L 123 320 L 123 320 L 123 320 L 123 319 L 123 319 L 123 319 L 123 319 L 123 318 L 123 318 L 123 318 L 123 317 L 123 317 L 123 317 L 124 316 L 124 316 L 124 316 L 124 316 L 124 315 L 124 315 L 124 315 L 124 314 L 125 314 L 125 314 L 125 313 L 125 313 L 125 313 L 125 313 L 125 312 L 125 312 L 125 312 L 125 311 L 125 311 L 125 311 L 125 310 L 125 310 L 125 310 L 125 310 L 125 309 L 126 309 L 126 309 L 126 308 L 126 308 L 126 308 L 129 307 L 129 307 L 129 307 L 130 307 L 130 306 L 132 306 L 134 306 L 134 305 L 136 305 L 137 305 L 138 304 L 138 304 L 139 304 L 140 304 L 141 303 L 141 303 L 142 303 L 142 302 L 143 302 L 143 302 L 143 301 L 144 301 L 145 301 L 146 301 L 146 300 L 146 300 L 146 300 L 146 299 L 147 299 L 148 299 L 149 298 L 151 298 L 152 298 L 152 298 L 153 297 L 153 297 L 153 297 L 154 296 L 159 296 L 159 296 L 160 295 L 165 295 L 165 295 L 165 295 L 165 294 L 165 294 L 166 294 L 167 293 L 168 293 L 168 293 L 174 292 L 175 292 L 176 292 L 178 292 L 179 291 L 179 291 L 180 291 L 184 290 L 188 290 L 193 290 L 194 289 L 194 289 L 194 289 L 194 289 L 202 288 L 205 288 L 205 288 L 208 287 L 208 287 L 209 287 L 216 286 L 216 286 L 217 286 L 217 286 L 218 285 L 220 285 L 221 285 L 222 284 L 223 284 L 225 284 L 229 283 L 229 283 L 230 283 L 230 283 L 231 282 L 231 282 L 233 282 L 237 281 L 246 281 L 250 281 L 252 280 L 252 280 L 254 280 L 254 280 L 254 279 L 254 279 L 254 279 L 254 278 L 254 278 L 254 278 L 254 277 L 254 277 L 254 277 L 255 277 L 255 276 L 255 276 L 255 276 L 257 275 L 257 275 L 257 275 L 257 274 L 258 274 L 258 274 L 258 274 L 258 273 L 258 273 L 258 273 L 258 272 L 259 272 L 260 272 L 260 271 L 260 271 L 260 271 L 260 271 L 260 270 L 261 270 L 261 270 L 261 269 L 262 269 L 262 269 L 262 268 L 263 268 L 264 268 L 264 268 L 266 267 L 267 267 L 267 267 L 268 266 L 268 266 L 268 266 L 268 265 L 268 265 L 269 265 L 270 265 L 271 264 L 271 264 L 272 264 L 273 263 L 274 263 L 274 263 L 276 262 L 277 262 L 277 262 L 278 262 L 278 261 L 281 261 L 282 261 L 282 260 L 285 260 L 286 260 L 289 259 L 290 259 L 290 259 L 291 259 L 291 258 L 291 258 L 293 258 L 295 257 L 296 257 L 296 257 L 298 256 L 298 256 L 298 256 L 298 256 L 299 255 L 299 255 L 299 255 L 300 254 L 300 254 L 300 254 L 301 253 L 304 253 L 308 253 L 308 253 L 308 252 L 311 252 L 312 252 L 313 251 L 313 251 L 314 251 L 315 250 L 315 250 L 315 250 L 315 250 L 315 249 L 315 249 L 315 249 L 316 248 L 316 248 L 316 248 L 318 247 L 318 247 L 318 247 L 318 247 L 318 246 L 319 246 L 319 246 L 319 245 L 319 245 L 319 245 L 319 244 L 319 244 L 319 244 L 322 244 L 324 243 L 324 243 L 325 243 L 333 242 L 334 242 L 336 242 L 338 241 L 345 241 L 346 241 L 347 241 L 347 240 L 347 240 L 347 240 L 347 239 L 347 239 L 348 239 L 349 238 L 355 238 L 357 238 L 359 238 L 364 237 L 367 237 L 370 237 L 372 236 L 375 236 L 375 236 L 383 235 L 390 235 L 390 235 L 395 235 L 395 234 L 399 234 L 400 234 L 402 233 L 402 233 L 403 233 L 403 232 L 405 232 L 406 232 L 408 232 L 411 231 L 411 231 L 412 231 L 413 230 L 415 230 L 418 230 L 418 229 L 421 229 L 424 229 L 425 229 L 425 228 L 426 228 L 427 228 L 428 227 L 430 227 L 432 227 L 434 226 L 436 226 L 436 226 L 440 226 L 441 225 L 443 225 L 446 225 L 446 224 L 450 224 L 450 224 L 451 223 L 452 223 L 452 223 L 454 223 L 454 222 L 456 222 L 458 222 L 458 221 L 459 221 L 459 221 L 465 220 L 465 220 L 465 220 L 466 220 L 466 219 L 467 219 L 467 219 L 467 218 L 467 218 L 469 218 L 469 217 L 470 217 L 471 217 L 471 217 L 472 216 L 472 216 L 472 216 L 473 215 L 473 215 L 473 215 L 474 214 L 474 214 L 474 214 L 474 214 L 475 213 L 476 213 L 476 213 L 476 212 L 477 212 L 477 212 L 478 211 L 479 211 L 479 211 L 480 211 L 481 210 L 482 210 L 482 210 L 482 209 L 483 209 L 484 209 L 484 208 L 484 208 L 485 208 L 485 208 L 485 207 L 485 207 L 485 207 L 486 206 L 487 206 L 489 206 L 490 205 L 491 205 L 491 205 L 493 205 L 494 204 L 494 204 L 496 204 L 498 203 L 500 203 L 502 203 L 502 202 L 503 202 L 503 202 L 503 202 L 503 201 L 504 201 L 504 201 L 504 200 L 504 200 L 505 200 L 505 199 L 506 199 L 507 199 L 507 199 L 508 198 L 508 198 L 510 198 L 510 197 L 510 197 L 511 197 L 512 196 L 514 196 L 519 196 L 519 196 L 519 195 L 519 195 L 521 195 L 522 194 L 523 194 L 523 194 L 523 193 L 523 193 L 524 193 L 527 193 L 527 192 L 527 192 L 527 192 L 529 191 L 529 191 L 529 191 L 530 190 L 532 190 L 535 190 L 535 190 L 538 189 L 538 189 L 539 189 L 541 188 L 542 188 L 544 188 L 546 187 L 547 187 L 548 187 L 548 187 L 548 186 L 549 186 L 549 186 L 549 185 L 550 185 L 550 185 L 550 184 L 551 184 L 551 184 L 551 184 L 552 183 L 552 183 L 553 183 L 556 182 L 557 182 L 561 182 L 563 181 L 563 181 L 563 181 L 564 181 L 566 180 L 567 180 L 567 180 L 567 179 L 568 179 L 568 179 L 568 178 L 568 178 L 568 178 L 568 178 L 568 177 L 569 177 L 569 177 L 569 176 L 570 176 L 571 176 L 571 175 L 571 175 L 572 175 L 573 175 L 573 174 L 573 174 L 573 174 L 574 173 L 577 173 L 577 173 L 577 172 L 577 172 L 577 172 L 578 172 L 578 171 L 578 171 L 579 171 L 580 170 L 582 170 L 585 170 L 586 169 L 587 169 L 590 169 L 592 169 L 593 168 L 595 168 L 598 168 L 598 167 L 598 167 L 602 167 L 603 166 L 604 166 L 604 166 L 605 166 L 611 165 L 612 165 L 612 165 L 612 164 L 613 164 L 613 164 L 614 163 L 615 163 L 615 163 L 616 163 L 616 162 L 616 162 L 616 162 L 617 161 L 617 161 L 617 161 L 617 160 L 617 160 L 617 160 L 618 160 L 619 159 L 620 159 L 620 159 L 621 158 L 621 158 L 622 158 L 623 157 L 623 157 L 624 157 L 624 157 L 624 156 L 624 156 L 625 156 L 626 155 L 627 155 L 627 155 L 627 154 L 628 154 L 628 154 L 629 154 L 629 153 L 629 153 L 629 153 L 630 152 L 630 152 L 631 152 L 631 151 L 632 151 L 632 151 L 632 151 L 632 150 L 632 150 L 633 150 L 633 149 L 633 149 L 633 149 L 635 148 L 635 148 L 635 148 L 635 148 L 636 147 L 636 147 L 636 147 L 636 146 L 636 146 L 636 146 L 636 145 L 636 145 L 637 145 L 637 145 L 639 144 L 639 144 L 641 144 L 641 143 L 641 143 L 641 143 L 643 142 L 643 142 L 644 142 L 644 142 L 646 141 L 648 141 L 648 141 L 650 140 L 650 140 L 650 140 L 651 139 L 651 139 L 652 139 L 652 139 L 652 138 L 652 138 L 652 138 L 652 137 L 652 137 L 653 137 L 653 136 L 653 136 L 653 136 L 653 136 L 653 135 L 654 135 L 654 135 L 655 134 L 656 134 L 656 134 L 657 133 L 657 133 L 658 133 L 658 132 L 659 132 L 661 132 L 661 132 L 661 131 L 661 131 L 662 131 L 664 130 L 665 130 L 666 130 L 667 130 L 667 129 L 667 129 L 668 129 L 668 128 L 672 128 L 674 128 L 676 127 L 678 127 L 678 127 L 679 126 L 680 126 L 680 126 L 681 126 L 681 125 L 681 125 L 682 125 L 682 124 L 682 124 L 683 124 L 685 124 L 685 123 L 685 123 L 685 123 L 685 122 L 685 122 L 685 122 L 685 121 L 685 121 L 685 121 L 685 121 L 685 120 L 685 120 L 685 120 L 685 119 L 685 119 L 686 119 L 686 118 L 686 118 L 686 118 L 686 118 L 687 117 L 687 117 L 687 117 L 687 116 L 687 116 L 687 116 L 688 115 L 688 115 L 688 115 L 688 115 L 688 114 L 688 114 L 689 114 L 690 113 L 692 113 L 692 113 L 692 112 L 694 112 L 694 112 L 694 112 L 695 111 L 696 111 L 697 111 L 698 110 L 698 110 L 698 110 L 698 109 L 698 109 L 698 109 L 698 109 L 700 108 L 700 108 L 700 108 L 704 107 L 705 107 L 706 107 L 708 106 L 709 106 L 710 106 L 710 106 L 710 105 L 710 105 L 711 105 L 711 104 L 711 104 L 712 104 L 713 103 L 713 103 L 713 103 L 713 103 L 713 102 L 713 102 L 713 102 L 714 101 L 714 101 L 714 101 L 714 100 L 714 100 L 716 100 L 716 100 L 716 99 L 717 99 L 717 99 L 717 98 L 718 98 L 718 98 L 718 97 L 718 97 L 719 97 L 719 97 L 720 96 L 724 96 L 724 96 L 725 95 L 728 95 L 728 95 L 729 94 L 732 94 L 732 94 L 733 94 L 735 93 L 740 93 L 740 93 L 742 92 L 743 92 L 745 92 L 745 91 L 746 91 L 747 91 L 748 91 L 748 90 L 749 90 L 750 90 L 751 89 L 752 89 L 752 89 L 753 88 L 753 88 L 753 88 L 754 88 L 757 87 L 757 87 L 758 87 L 759 86 L 760 86 L 761 86 L 761 85 L 762 85 L 762 85 L 762 85 L 763 84 L 763 84 L 764 84 L 764 83 L 765 83 L 766 83 L 766 82 L 766 82 L 767 82 L 768 82 L 768 81 L 768 81 L 769 81 L 769 80 L 769 80 L 769 80 L 769 79 L 770 79 L 770 79 L 772 79 L 773 78 L 774 78 L 777 78 L 777 77 L 778 77 L 779 77 L 781 76 L 783 76 L 785 76 L 786 76 L 787 75 L 788 75 L 789 75 L 791 74 L 793 74 L 793 74 L 793 73 L 793 73 L 793 73 L 793 73 L 794 72 L 795 72 L 796 72 L 797 71 L 797 71 L 797 71 L 803 70 L 804 70 L 804 70 L 806 70 L 808 69 L 808 69 L 809 69 L 809 68 L 809 68 L 810 68 L 811 67 L 811 67 L 811 67 L 812 67 L 812 66 L 812 66 L 813 66 L 813 65 L 814 65 L 815 65 L 818 64 L 818 64 L 822 64 L 823 64 L 823 63 L 824 63 L 825 63 L 825 62 L 825 62 L 825 62 L 828 61 L 829 61 L 831 61 L 831 61 L 831 60 L 831 60 L 833 60 L 834 59 L 836 59 L 836 59 L 836 58 L 837 58 L 837 58 L 837 58 L 837 57 L 838 57 L 839 57 L 839 56 L 840 56 L 841 56 L 842 55 L 842 55 L 842 55 L 842 55 L 843 54 L 843 54 L 846 54 L 850 53 L 850 53 L 854 53 L 854 52 L 857 52 L 857 52 L 858 52 L 858 51 L 859 51 L 860 51 L 861 50 L 863 50 L 864 50 L 867 49 L 872 49 L 872 49 L 872 49 L 872 48 L 872 48 L 874 48 L 874 47 L 874 47 L 882 47 L 885 46 L 885 46 L 886 46 L 888 46 L 890 45 L 892 45 L 893 45 L 893 44 L 894 44 L 895 44 L 900 43 L 901 43 L 902 43 L 903 43 L 905 42 L 906 42 L 906 42 L 906 41 L 906 41 L 907 41 L 907 40 L 907 40 L 909 40 L 911 40 L 911 39 L 912 39 L 912 39 L 913 38 L 915 38 L 918 38 L 920 37 L 920 37 L 922 37 L 922 37 L 922 36 L 922 36 L 922 36 L 923 35 L 923 35 L 925 35 L 926 34 L 926 34 L 926 34 L 927 34 L 927 33 L 927 33 L 927 33 L 928 32 L 928 32 L 928 32 L 928 31 L 928 31 L 928 31 L 929 31 L 929 30 L 930 30 L 930 30 L 930 29 L 930 29 L 930 29 L 932 28 L 937 28 L 937 28"></path><path stroke-width="2" d="M 937 346 L 937.000000 15.000000" /><path stroke-width="2" d="M 937 346 L 937.000000 15.000000"></path><path stroke-width="2" d="M 937 346 L 942 346" /><path d="M 937 346 L 942 346" stroke-width="2"></path><text y="352" xmlns="http://www.w3.org/2000/svg" x="947">0</text><path stroke-width="2" d="M 937 307 L 942 307" /><path stroke-width="2" d="M 937 307 L 942 307"></path><text xmlns="http://www.w3.org/2000/svg" x="947" y="313">130</text><path stroke-width="2" d="M 937 271 L 942 271" /><path stroke-width="2" d="M 937 271 L 942 271"></path><text xmlns="http://www.w3.org/2000/svg" x="947" y="277">250</text><path stroke-width="2" d="M 937 235 L 942 235" /><path stroke-width="2" d="M 937 235 L 942 235"></path><text xmlns="http://www.w3.org/2000/svg" x="947" y="241">370</text><path stroke-width="2" d="M 937 199 L 942 199" /><path stroke-width="2" d="M 937 199 L 942 199"></path><text xmlns="http://www.w3.org/2000/svg" x="947" y="205">490</text><path stroke-width="2" d="M 937 160 L 942 160" /><path stroke-width="2" d="M 937 160 L 942 160"></path><text xmlns="http://www.w3.org/2000/svg" x="947" y="166">620</text><path stroke-width="2" d="M 937 124 L 942 124" /><path stroke-width="2" d="M 937 124 L 942 124"></path><text xmlns="http://www.w3.org/2000/svg" x="947" y="130">740</text><path stroke-width="2" d="M 937 88 L 942 88" /><path stroke-width="2" d="M 937 88 L 942 88"></path><text xmlns="http://www.w3.org/2000/svg" x="947" y="94">860</text><path stroke-width="2" d="M 937 52 L 942 52" /><path stroke-width="2" d="M 937 52 L 942 52"></path><text y="58" xmlns="http://www.w3.org/2000/svg" x="947">980</text><path stroke-width="2" d="M 937 16 L 942 16" /><path stroke-width="2" d="M 937 16 L 942 16"></path><text y="22" xmlns="http://www.w3.org/2000/svg" x="947">1100</text><text xmlns="http://www.w3.org/2000/svg" x="987" y="175" transform="rotate(90.00,987,175)">Stargazers</text><path stroke-width="2" d="M 57.000000 346.000000 L 937 346" /><path stroke-width="2" d="M 57.000000 346.000000 L 937 346"></path><path stroke-width="2" d="M 58 346 L 58 351" /><path stroke-width="2" d="M 58 346 L 58 351"></path><text xmlns="http://www.w3.org/2000/svg" x="25" y="368">2023-04-02</text><path stroke-width="2" d="M 156 346 L 156 351" /><path stroke-width="2" d="M 156 346 L 156 351"></path><text xmlns="http://www.w3.org/2000/svg" x="123" y="368">2023-07-09</text><path d="M 254 346 L 254 351" stroke-width="2" /><path stroke-width="2" d="M 254 346 L 254 351"></path><text xmlns="http://www.w3.org/2000/svg" x="221" y="368">2023-10-15</text><path stroke-width="2" d="M 352 346 L 352 351" /><path stroke-width="2" d="M 352 346 L 352 351"></path><text xmlns="http://www.w3.org/2000/svg" x="319" y="368">2024-01-20</text><path stroke-width="2" d="M 449 346 L 449 351" /><path stroke-width="2" d="M 449 346 L 449 351"></path><text xmlns="http://www.w3.org/2000/svg" x="416" y="368">2024-04-27</text><path stroke-width="2" d="M 547 346 L 547 351" /><path stroke-width="2" d="M 547 346 L 547 351"></path><text xmlns="http://www.w3.org/2000/svg" x="514" y="368">2024-08-03</text><path d="M 645 346 L 645 351" stroke-width="2" /><path stroke-width="2" d="M 645 346 L 645 351"></path><text xmlns="http://www.w3.org/2000/svg" x="612" y="368">2024-11-09</text><path stroke-width="2" d="M 742 346 L 742 351" /><path stroke-width="2" d="M 742 346 L 742 351"></path><text xmlns="http://www.w3.org/2000/svg" x="709" y="368">2025-02-15</text><path stroke-width="2" d="M 840 346 L 840 351" /><path stroke-width="2" d="M 840 346 L 840 351"></path><text xmlns="http://www.w3.org/2000/svg" x="807" y="368">2025-05-24</text><path d="M 937 346 L 937 351" stroke-width="2" /><path stroke-width="2" d="M 937 346 L 937 351"></path><text xmlns="http://www.w3.org/2000/svg" x="904" y="368">2025-08-29</text><text x="483" y="390" xmlns="http://www.w3.org/2000/svg">Time</text></svg>