<svg xmlns:xlink="http://www.w3.org/1999/xlink" width="1024px" height="400px" xmlns="http://www.w3.org/2000/svg"><style type="text/css">
path { fill: none; stroke: rgb(51,51,51); }
path.series { stroke: #6b63ff; }
rect.background { fill: rgb(255,255,255); stroke: none; }

text {
	stroke-width: 0;
	stroke: none;
	fill: rgba(51,51,51,1.0);
	font-size: 12.8px;
	font-family: 'Roboto Medium', sans-serif;
}
</style><rect x="0" y="0" width="1024px" height="400px" class="background" rx="8" /><rect x="0" y="0" width="1024px" height="400px" class="background" rx="8"></rect><path stroke-width="2" class="series" d="M 58 345 L 61 345 L 77 344 L 77 344 L 77 344 L 77 343 L 77 343 L 77 342 L 77 342 L 77 342 L 78 341 L 78 341 L 78 341 L 78 340 L 78 340 L 78 339 L 78 339 L 78 339 L 78 338 L 79 338 L 80 337 L 80 337 L 81 337 L 82 336 L 82 336 L 82 336 L 82 335 L 83 335 L 85 334 L 85 334 L 86 334 L 88 333 L 93 333 L 93 332 L 93 332 L 93 332 L 93 331 L 96 331 L 97 331 L 98 330 L 100 330 L 104 329 L 106 329 L 113 329 L 115 328 L 119 328 L 123 327 L 125 327 L 140 327 L 141 326 L 141 326 L 143 326 L 143 325 L 143 325 L 143 324 L 143 324 L 143 324 L 143 323 L 143 323 L 143 322 L 143 322 L 143 322 L 143 321 L 144 321 L 144 321 L 144 320 L 144 320 L 144 319 L 144 319 L 144 319 L 144 318 L 144 318 L 144 317 L 144 317 L 144 317 L 144 316 L 144 316 L 144 316 L 144 315 L 144 315 L 144 314 L 144 314 L 144 314 L 144 313 L 144 313 L 144 313 L 144 312 L 144 312 L 144 311 L 144 311 L 144 311 L 144 310 L 144 310 L 144 309 L 144 309 L 144 309 L 144 308 L 145 308 L 145 308 L 145 307 L 145 307 L 145 306 L 145 306 L 146 306 L 146 305 L 147 305 L 147 304 L 147 304 L 147 304 L 147 303 L 147 303 L 147 303 L 147 302 L 147 302 L 147 301 L 147 301 L 147 301 L 147 300 L 147 300 L 147 299 L 147 299 L 147 299 L 147 298 L 148 298 L 148 298 L 148 297 L 148 297 L 152 296 L 152 296 L 152 296 L 154 295 L 154 295 L 156 294 L 158 294 L 159 294 L 161 293 L 162 293 L 164 293 L 164 292 L 165 292 L 167 291 L 167 291 L 168 291 L 169 290 L 170 290 L 171 289 L 171 289 L 171 289 L 171 288 L 173 288 L 174 288 L 174 287 L 174 287 L 175 286 L 175 286 L 176 286 L 177 285 L 179 285 L 181 284 L 182 284 L 183 284 L 184 283 L 184 283 L 184 283 L 185 282 L 192 282 L 192 281 L 193 281 L 199 281 L 199 280 L 199 280 L 200 280 L 200 279 L 201 279 L 203 278 L 204 278 L 204 278 L 211 277 L 213 277 L 215 276 L 217 276 L 218 276 L 219 275 L 220 275 L 225 275 L 231 274 L 237 274 L 238 273 L 238 273 L 238 273 L 238 272 L 240 272 L 249 271 L 253 271 L 253 271 L 256 270 L 257 270 L 258 270 L 267 269 L 267 269 L 268 268 L 269 268 L 270 268 L 273 267 L 274 267 L 276 266 L 277 266 L 279 266 L 285 265 L 285 265 L 286 265 L 286 264 L 286 264 L 287 263 L 290 263 L 295 263 L 307 262 L 312 262 L 315 261 L 315 261 L 316 261 L 318 260 L 318 260 L 318 260 L 318 259 L 318 259 L 318 258 L 318 258 L 318 258 L 318 257 L 318 257 L 318 256 L 318 256 L 318 256 L 319 255 L 319 255 L 321 255 L 321 254 L 321 254 L 321 253 L 321 253 L 323 253 L 323 252 L 323 252 L 323 251 L 323 251 L 323 251 L 323 250 L 324 250 L 325 250 L 325 249 L 325 249 L 325 248 L 326 248 L 326 248 L 327 247 L 327 247 L 327 247 L 327 246 L 328 246 L 328 245 L 328 245 L 329 245 L 330 244 L 331 244 L 333 243 L 335 243 L 335 243 L 336 242 L 336 242 L 336 242 L 336 241 L 336 241 L 338 240 L 338 240 L 340 240 L 340 239 L 341 239 L 343 238 L 344 238 L 344 238 L 347 237 L 348 237 L 348 237 L 349 236 L 349 236 L 354 235 L 354 235 L 355 235 L 358 234 L 360 234 L 364 233 L 365 233 L 365 233 L 366 232 L 367 232 L 367 232 L 369 231 L 372 231 L 373 230 L 373 230 L 375 230 L 376 229 L 376 229 L 376 228 L 376 228 L 377 228 L 377 227 L 377 227 L 378 227 L 378 226 L 378 226 L 379 225 L 384 225 L 389 225 L 389 224 L 389 224 L 393 223 L 394 223 L 395 223 L 396 222 L 397 222 L 398 222 L 398 221 L 398 221 L 398 220 L 398 220 L 399 220 L 399 219 L 399 219 L 399 218 L 400 218 L 402 218 L 402 217 L 402 217 L 403 217 L 403 216 L 403 216 L 403 215 L 403 215 L 403 215 L 403 214 L 403 214 L 403 214 L 404 213 L 408 213 L 410 212 L 410 212 L 411 212 L 422 211 L 423 211 L 426 210 L 429 210 L 435 210 L 438 209 L 440 209 L 440 209 L 440 208 L 440 208 L 441 207 L 441 207 L 441 207 L 441 206 L 442 206 L 443 205 L 451 205 L 453 205 L 456 204 L 463 204 L 467 204 L 471 203 L 473 203 L 478 202 L 478 202 L 488 202 L 497 201 L 497 201 L 504 200 L 504 200 L 510 200 L 511 199 L 513 199 L 514 199 L 514 198 L 514 198 L 517 197 L 519 197 L 521 197 L 525 196 L 526 196 L 527 195 L 527 195 L 531 195 L 534 194 L 535 194 L 539 194 L 543 193 L 543 193 L 544 192 L 545 192 L 546 192 L 547 191 L 550 191 L 553 190 L 556 190 L 558 190 L 558 189 L 563 189 L 564 189 L 567 188 L 572 188 L 572 187 L 577 187 L 578 187 L 578 186 L 579 186 L 580 185 L 582 185 L 582 185 L 584 184 L 587 184 L 588 184 L 589 183 L 589 183 L 597 182 L 597 182 L 598 182 L 598 181 L 598 181 L 599 181 L 599 180 L 600 180 L 600 179 L 602 179 L 602 179 L 604 178 L 604 178 L 605 177 L 606 177 L 606 177 L 606 176 L 607 176 L 607 176 L 607 175 L 608 175 L 608 174 L 608 174 L 609 174 L 610 173 L 611 173 L 611 172 L 612 172 L 613 172 L 613 171 L 614 171 L 615 171 L 616 170 L 616 170 L 618 169 L 619 169 L 619 169 L 620 168 L 620 168 L 622 167 L 622 167 L 622 167 L 623 166 L 623 166 L 623 166 L 623 165 L 624 165 L 624 164 L 625 164 L 629 164 L 630 163 L 631 163 L 631 162 L 634 162 L 635 162 L 636 161 L 638 161 L 641 161 L 643 160 L 646 160 L 646 159 L 647 159 L 647 159 L 647 158 L 648 158 L 648 157 L 648 157 L 649 157 L 649 156 L 649 156 L 650 156 L 651 155 L 652 155 L 652 154 L 653 154 L 653 154 L 656 153 L 657 153 L 657 152 L 658 152 L 659 152 L 661 151 L 664 151 L 668 151 L 668 150 L 668 150 L 668 149 L 670 149 L 673 149 L 673 148 L 673 148 L 673 148 L 674 147 L 676 147 L 679 146 L 679 146 L 680 146 L 680 145 L 682 145 L 682 144 L 682 144 L 682 144 L 682 143 L 685 143 L 689 143 L 689 142 L 693 142 L 694 141 L 694 141 L 698 141 L 699 140 L 702 140 L 704 139 L 706 139 L 707 139 L 707 138 L 707 138 L 708 138 L 708 137 L 708 137 L 709 136 L 709 136 L 709 136 L 710 135 L 710 135 L 710 134 L 712 134 L 713 134 L 713 133 L 718 133 L 718 133 L 724 132 L 726 132 L 726 131 L 727 131 L 728 131 L 731 130 L 731 130 L 732 129 L 732 129 L 733 129 L 733 128 L 733 128 L 733 128 L 733 127 L 734 127 L 734 126 L 734 126 L 734 126 L 734 125 L 735 125 L 735 124 L 735 124 L 737 124 L 737 123 L 738 123 L 739 123 L 740 122 L 740 122 L 740 121 L 740 121 L 742 121 L 745 120 L 745 120 L 745 119 L 745 119 L 745 119 L 746 118 L 746 118 L 746 118 L 748 117 L 750 117 L 752 116 L 756 116 L 757 116 L 758 115 L 762 115 L 766 115 L 766 114 L 769 114 L 773 113 L 773 113 L 774 113 L 779 112 L 780 112 L 781 111 L 781 111 L 782 111 L 791 110 L 791 110 L 792 110 L 792 109 L 793 109 L 793 108 L 795 108 L 795 108 L 795 107 L 796 107 L 796 106 L 797 106 L 797 106 L 798 105 L 798 105 L 798 105 L 798 104 L 798 104 L 798 103 L 799 103 L 800 103 L 801 102 L 803 102 L 803 101 L 803 101 L 804 101 L 804 100 L 805 100 L 806 100 L 807 99 L 807 99 L 807 98 L 807 98 L 809 98 L 809 97 L 811 97 L 811 96 L 812 96 L 813 96 L 813 95 L 813 95 L 814 95 L 814 94 L 814 94 L 815 93 L 815 93 L 816 93 L 816 92 L 818 92 L 818 91 L 818 91 L 819 91 L 819 90 L 819 90 L 820 90 L 820 89 L 820 89 L 821 88 L 821 88 L 822 88 L 822 87 L 823 87 L 823 86 L 823 86 L 823 86 L 823 85 L 824 85 L 824 85 L 824 84 L 824 84 L 824 83 L 827 83 L 828 83 L 830 82 L 830 82 L 830 82 L 831 81 L 832 81 L 833 80 L 834 80 L 834 80 L 837 79 L 840 79 L 840 78 L 842 78 L 842 78 L 842 77 L 844 77 L 844 77 L 844 76 L 844 76 L 844 75 L 844 75 L 844 75 L 845 74 L 845 74 L 845 73 L 845 73 L 845 73 L 845 72 L 845 72 L 846 72 L 846 71 L 847 71 L 847 70 L 847 70 L 848 70 L 850 69 L 850 69 L 851 68 L 851 68 L 852 68 L 852 67 L 853 67 L 856 67 L 857 66 L 857 66 L 857 65 L 857 65 L 857 65 L 860 64 L 862 64 L 863 63 L 865 63 L 865 63 L 865 62 L 865 62 L 866 62 L 871 61 L 874 61 L 877 60 L 879 60 L 880 60 L 881 59 L 882 59 L 882 58 L 882 58 L 883 58 L 883 57 L 884 57 L 884 57 L 885 56 L 886 56 L 888 55 L 888 55 L 888 55 L 888 54 L 888 54 L 888 53 L 888 53 L 889 53 L 889 52 L 889 52 L 889 52 L 889 51 L 889 51 L 889 50 L 889 50 L 889 50 L 889 49 L 890 49 L 890 49 L 890 48 L 890 48 L 890 47 L 890 47 L 890 47 L 891 46 L 891 46 L 891 45 L 893 45 L 893 45 L 893 44 L 893 44 L 893 44 L 893 43 L 894 43 L 895 42 L 898 42 L 898 42 L 898 41 L 900 41 L 900 40 L 900 40 L 901 40 L 903 39 L 905 39 L 906 39 L 906 38 L 906 38 L 906 37 L 906 37 L 906 37 L 906 36 L 908 36 L 909 35 L 909 35 L 913 35 L 915 34 L 916 34 L 919 34 L 920 33 L 921 33 L 921 32 L 922 32 L 922 32 L 922 31 L 923 31 L 923 30 L 924 30 L 925 30 L 925 29 L 925 29 L 926 29 L 926 28 L 926 28 L 926 27 L 926 27 L 926 27 L 927 26 L 927 26 L 927 25 L 929 25 L 929 25 L 930 24 L 930 24 L 931 24 L 931 23 L 932 23 L 932 22 L 933 22 L 933 22 L 933 21 L 934 21 L 935 20 L 939 20 L 940 20 L 941 19 L 945 19 L 945 19" /><path stroke-width="2" class="series" d="M 58 345 L 61 345 L 77 344 L 77 344 L 77 344 L 77 343 L 77 343 L 77 342 L 77 342 L 77 342 L 78 341 L 78 341 L 78 341 L 78 340 L 78 340 L 78 339 L 78 339 L 78 339 L 78 338 L 79 338 L 80 337 L 80 337 L 81 337 L 82 336 L 82 336 L 82 336 L 82 335 L 83 335 L 85 334 L 85 334 L 86 334 L 88 333 L 93 333 L 93 332 L 93 332 L 93 332 L 93 331 L 96 331 L 97 331 L 98 330 L 100 330 L 104 329 L 106 329 L 113 329 L 115 328 L 119 328 L 123 327 L 125 327 L 140 327 L 141 326 L 141 326 L 143 326 L 143 325 L 143 325 L 143 324 L 143 324 L 143 324 L 143 323 L 143 323 L 143 322 L 143 322 L 143 322 L 143 321 L 144 321 L 144 321 L 144 320 L 144 320 L 144 319 L 144 319 L 144 319 L 144 318 L 144 318 L 144 317 L 144 317 L 144 317 L 144 316 L 144 316 L 144 316 L 144 315 L 144 315 L 144 314 L 144 314 L 144 314 L 144 313 L 144 313 L 144 313 L 144 312 L 144 312 L 144 311 L 144 311 L 144 311 L 144 310 L 144 310 L 144 309 L 144 309 L 144 309 L 144 308 L 145 308 L 145 308 L 145 307 L 145 307 L 145 306 L 145 306 L 146 306 L 146 305 L 147 305 L 147 304 L 147 304 L 147 304 L 147 303 L 147 303 L 147 303 L 147 302 L 147 302 L 147 301 L 147 301 L 147 301 L 147 300 L 147 300 L 147 299 L 147 299 L 147 299 L 147 298 L 148 298 L 148 298 L 148 297 L 148 297 L 152 296 L 152 296 L 152 296 L 154 295 L 154 295 L 156 294 L 158 294 L 159 294 L 161 293 L 162 293 L 164 293 L 164 292 L 165 292 L 167 291 L 167 291 L 168 291 L 169 290 L 170 290 L 171 289 L 171 289 L 171 289 L 171 288 L 173 288 L 174 288 L 174 287 L 174 287 L 175 286 L 175 286 L 176 286 L 177 285 L 179 285 L 181 284 L 182 284 L 183 284 L 184 283 L 184 283 L 184 283 L 185 282 L 192 282 L 192 281 L 193 281 L 199 281 L 199 280 L 199 280 L 200 280 L 200 279 L 201 279 L 203 278 L 204 278 L 204 278 L 211 277 L 213 277 L 215 276 L 217 276 L 218 276 L 219 275 L 220 275 L 225 275 L 231 274 L 237 274 L 238 273 L 238 273 L 238 273 L 238 272 L 240 272 L 249 271 L 253 271 L 253 271 L 256 270 L 257 270 L 258 270 L 267 269 L 267 269 L 268 268 L 269 268 L 270 268 L 273 267 L 274 267 L 276 266 L 277 266 L 279 266 L 285 265 L 285 265 L 286 265 L 286 264 L 286 264 L 287 263 L 290 263 L 295 263 L 307 262 L 312 262 L 315 261 L 315 261 L 316 261 L 318 260 L 318 260 L 318 260 L 318 259 L 318 259 L 318 258 L 318 258 L 318 258 L 318 257 L 318 257 L 318 256 L 318 256 L 318 256 L 319 255 L 319 255 L 321 255 L 321 254 L 321 254 L 321 253 L 321 253 L 323 253 L 323 252 L 323 252 L 323 251 L 323 251 L 323 251 L 323 250 L 324 250 L 325 250 L 325 249 L 325 249 L 325 248 L 326 248 L 326 248 L 327 247 L 327 247 L 327 247 L 327 246 L 328 246 L 328 245 L 328 245 L 329 245 L 330 244 L 331 244 L 333 243 L 335 243 L 335 243 L 336 242 L 336 242 L 336 242 L 336 241 L 336 241 L 338 240 L 338 240 L 340 240 L 340 239 L 341 239 L 343 238 L 344 238 L 344 238 L 347 237 L 348 237 L 348 237 L 349 236 L 349 236 L 354 235 L 354 235 L 355 235 L 358 234 L 360 234 L 364 233 L 365 233 L 365 233 L 366 232 L 367 232 L 367 232 L 369 231 L 372 231 L 373 230 L 373 230 L 375 230 L 376 229 L 376 229 L 376 228 L 376 228 L 377 228 L 377 227 L 377 227 L 378 227 L 378 226 L 378 226 L 379 225 L 384 225 L 389 225 L 389 224 L 389 224 L 393 223 L 394 223 L 395 223 L 396 222 L 397 222 L 398 222 L 398 221 L 398 221 L 398 220 L 398 220 L 399 220 L 399 219 L 399 219 L 399 218 L 400 218 L 402 218 L 402 217 L 402 217 L 403 217 L 403 216 L 403 216 L 403 215 L 403 215 L 403 215 L 403 214 L 403 214 L 403 214 L 404 213 L 408 213 L 410 212 L 410 212 L 411 212 L 422 211 L 423 211 L 426 210 L 429 210 L 435 210 L 438 209 L 440 209 L 440 209 L 440 208 L 440 208 L 441 207 L 441 207 L 441 207 L 441 206 L 442 206 L 443 205 L 451 205 L 453 205 L 456 204 L 463 204 L 467 204 L 471 203 L 473 203 L 478 202 L 478 202 L 488 202 L 497 201 L 497 201 L 504 200 L 504 200 L 510 200 L 511 199 L 513 199 L 514 199 L 514 198 L 514 198 L 517 197 L 519 197 L 521 197 L 525 196 L 526 196 L 527 195 L 527 195 L 531 195 L 534 194 L 535 194 L 539 194 L 543 193 L 543 193 L 544 192 L 545 192 L 546 192 L 547 191 L 550 191 L 553 190 L 556 190 L 558 190 L 558 189 L 563 189 L 564 189 L 567 188 L 572 188 L 572 187 L 577 187 L 578 187 L 578 186 L 579 186 L 580 185 L 582 185 L 582 185 L 584 184 L 587 184 L 588 184 L 589 183 L 589 183 L 597 182 L 597 182 L 598 182 L 598 181 L 598 181 L 599 181 L 599 180 L 600 180 L 600 179 L 602 179 L 602 179 L 604 178 L 604 178 L 605 177 L 606 177 L 606 177 L 606 176 L 607 176 L 607 176 L 607 175 L 608 175 L 608 174 L 608 174 L 609 174 L 610 173 L 611 173 L 611 172 L 612 172 L 613 172 L 613 171 L 614 171 L 615 171 L 616 170 L 616 170 L 618 169 L 619 169 L 619 169 L 620 168 L 620 168 L 622 167 L 622 167 L 622 167 L 623 166 L 623 166 L 623 166 L 623 165 L 624 165 L 624 164 L 625 164 L 629 164 L 630 163 L 631 163 L 631 162 L 634 162 L 635 162 L 636 161 L 638 161 L 641 161 L 643 160 L 646 160 L 646 159 L 647 159 L 647 159 L 647 158 L 648 158 L 648 157 L 648 157 L 649 157 L 649 156 L 649 156 L 650 156 L 651 155 L 652 155 L 652 154 L 653 154 L 653 154 L 656 153 L 657 153 L 657 152 L 658 152 L 659 152 L 661 151 L 664 151 L 668 151 L 668 150 L 668 150 L 668 149 L 670 149 L 673 149 L 673 148 L 673 148 L 673 148 L 674 147 L 676 147 L 679 146 L 679 146 L 680 146 L 680 145 L 682 145 L 682 144 L 682 144 L 682 144 L 682 143 L 685 143 L 689 143 L 689 142 L 693 142 L 694 141 L 694 141 L 698 141 L 699 140 L 702 140 L 704 139 L 706 139 L 707 139 L 707 138 L 707 138 L 708 138 L 708 137 L 708 137 L 709 136 L 709 136 L 709 136 L 710 135 L 710 135 L 710 134 L 712 134 L 713 134 L 713 133 L 718 133 L 718 133 L 724 132 L 726 132 L 726 131 L 727 131 L 728 131 L 731 130 L 731 130 L 732 129 L 732 129 L 733 129 L 733 128 L 733 128 L 733 128 L 733 127 L 734 127 L 734 126 L 734 126 L 734 126 L 734 125 L 735 125 L 735 124 L 735 124 L 737 124 L 737 123 L 738 123 L 739 123 L 740 122 L 740 122 L 740 121 L 740 121 L 742 121 L 745 120 L 745 120 L 745 119 L 745 119 L 745 119 L 746 118 L 746 118 L 746 118 L 748 117 L 750 117 L 752 116 L 756 116 L 757 116 L 758 115 L 762 115 L 766 115 L 766 114 L 769 114 L 773 113 L 773 113 L 774 113 L 779 112 L 780 112 L 781 111 L 781 111 L 782 111 L 791 110 L 791 110 L 792 110 L 792 109 L 793 109 L 793 108 L 795 108 L 795 108 L 795 107 L 796 107 L 796 106 L 797 106 L 797 106 L 798 105 L 798 105 L 798 105 L 798 104 L 798 104 L 798 103 L 799 103 L 800 103 L 801 102 L 803 102 L 803 101 L 803 101 L 804 101 L 804 100 L 805 100 L 806 100 L 807 99 L 807 99 L 807 98 L 807 98 L 809 98 L 809 97 L 811 97 L 811 96 L 812 96 L 813 96 L 813 95 L 813 95 L 814 95 L 814 94 L 814 94 L 815 93 L 815 93 L 816 93 L 816 92 L 818 92 L 818 91 L 818 91 L 819 91 L 819 90 L 819 90 L 820 90 L 820 89 L 820 89 L 821 88 L 821 88 L 822 88 L 822 87 L 823 87 L 823 86 L 823 86 L 823 86 L 823 85 L 824 85 L 824 85 L 824 84 L 824 84 L 824 83 L 827 83 L 828 83 L 830 82 L 830 82 L 830 82 L 831 81 L 832 81 L 833 80 L 834 80 L 834 80 L 837 79 L 840 79 L 840 78 L 842 78 L 842 78 L 842 77 L 844 77 L 844 77 L 844 76 L 844 76 L 844 75 L 844 75 L 844 75 L 845 74 L 845 74 L 845 73 L 845 73 L 845 73 L 845 72 L 845 72 L 846 72 L 846 71 L 847 71 L 847 70 L 847 70 L 848 70 L 850 69 L 850 69 L 851 68 L 851 68 L 852 68 L 852 67 L 853 67 L 856 67 L 857 66 L 857 66 L 857 65 L 857 65 L 857 65 L 860 64 L 862 64 L 863 63 L 865 63 L 865 63 L 865 62 L 865 62 L 866 62 L 871 61 L 874 61 L 877 60 L 879 60 L 880 60 L 881 59 L 882 59 L 882 58 L 882 58 L 883 58 L 883 57 L 884 57 L 884 57 L 885 56 L 886 56 L 888 55 L 888 55 L 888 55 L 888 54 L 888 54 L 888 53 L 888 53 L 889 53 L 889 52 L 889 52 L 889 52 L 889 51 L 889 51 L 889 50 L 889 50 L 889 50 L 889 49 L 890 49 L 890 49 L 890 48 L 890 48 L 890 47 L 890 47 L 890 47 L 891 46 L 891 46 L 891 45 L 893 45 L 893 45 L 893 44 L 893 44 L 893 44 L 893 43 L 894 43 L 895 42 L 898 42 L 898 42 L 898 41 L 900 41 L 900 40 L 900 40 L 901 40 L 903 39 L 905 39 L 906 39 L 906 38 L 906 38 L 906 37 L 906 37 L 906 37 L 906 36 L 908 36 L 909 35 L 909 35 L 913 35 L 915 34 L 916 34 L 919 34 L 920 33 L 921 33 L 921 32 L 922 32 L 922 32 L 922 31 L 923 31 L 923 30 L 924 30 L 925 30 L 925 29 L 925 29 L 926 29 L 926 28 L 926 28 L 926 27 L 926 27 L 926 27 L 927 26 L 927 26 L 927 25 L 929 25 L 929 25 L 930 24 L 930 24 L 931 24 L 931 23 L 932 23 L 932 22 L 933 22 L 933 22 L 933 21 L 934 21 L 935 20 L 939 20 L 940 20 L 941 19 L 945 19 L 945 19"></path><path stroke-width="2" d="M 945 346 L 945.000000 15.000000" /><path stroke-width="2" d="M 945 346 L 945.000000 15.000000"></path><path stroke-width="2" d="M 945 346 L 950 346" /><path stroke-width="2" d="M 945 346 L 950 346"></path><text x="955" y="352" xmlns="http://www.w3.org/2000/svg">0</text><path d="M 945 309 L 950 309" stroke-width="2" /><path d="M 945 309 L 950 309" stroke-width="2"></path><text xmlns="http://www.w3.org/2000/svg" x="955" y="315">96</text><path stroke-width="2" d="M 945 272 L 950 272" /><path d="M 945 272 L 950 272" stroke-width="2"></path><text xmlns="http://www.w3.org/2000/svg" x="955" y="278">192</text><path stroke-width="2" d="M 945 235 L 950 235" /><path stroke-width="2" d="M 945 235 L 950 235"></path><text xmlns="http://www.w3.org/2000/svg" x="955" y="241">287</text><path stroke-width="2" d="M 945 199 L 950 199" /><path stroke-width="2" d="M 945 199 L 950 199"></path><text x="955" y="205" xmlns="http://www.w3.org/2000/svg">383</text><path stroke-width="2" d="M 945 162 L 950 162" /><path stroke-width="2" d="M 945 162 L 950 162"></path><text xmlns="http://www.w3.org/2000/svg" x="955" y="168">478</text><path stroke-width="2" d="M 945 125 L 950 125" /><path stroke-width="2" d="M 945 125 L 950 125"></path><text xmlns="http://www.w3.org/2000/svg" x="955" y="131">574</text><path d="M 945 89 L 950 89" stroke-width="2" /><path stroke-width="2" d="M 945 89 L 950 89"></path><text y="95" xmlns="http://www.w3.org/2000/svg" x="955">669</text><path stroke-width="2" d="M 945 52 L 950 52" /><path stroke-width="2" d="M 945 52 L 950 52"></path><text xmlns="http://www.w3.org/2000/svg" x="955" y="58">765</text><path stroke-width="2" d="M 945 16 L 950 16" /><path d="M 945 16 L 950 16" stroke-width="2"></path><text xmlns="http://www.w3.org/2000/svg" x="955" y="22">860</text><text x="987" y="175" transform="rotate(90.00,987,175)" xmlns="http://www.w3.org/2000/svg">Stargazers</text><path stroke-width="2" d="M 57.000000 346.000000 L 945 346" /><path stroke-width="2" d="M 57.000000 346.000000 L 945 346"></path><path stroke-width="2" d="M 58 346 L 58 351" /><path stroke-width="2" d="M 58 346 L 58 351"></path><text y="368" xmlns="http://www.w3.org/2000/svg" x="25">2023-04-02</text><path stroke-width="2" d="M 157 346 L 157 351" /><path stroke-width="2" d="M 157 346 L 157 351"></path><text xmlns="http://www.w3.org/2000/svg" x="124" y="368">2023-06-15</text><path stroke-width="2" d="M 256 346 L 256 351" /><path d="M 256 346 L 256 351" stroke-width="2"></path><text xmlns="http://www.w3.org/2000/svg" x="223" y="368">2023-08-29</text><path stroke-width="2" d="M 354 346 L 354 351" /><path d="M 354 346 L 354 351" stroke-width="2"></path><text xmlns="http://www.w3.org/2000/svg" x="321" y="368">2023-11-12</text><path stroke-width="2" d="M 453 346 L 453 351" /><path stroke-width="2" d="M 453 346 L 453 351"></path><text xmlns="http://www.w3.org/2000/svg" x="420" y="368">2024-01-25</text><path stroke-width="2" d="M 551 346 L 551 351" /><path stroke-width="2" d="M 551 346 L 551 351"></path><text xmlns="http://www.w3.org/2000/svg" x="518" y="368">2024-04-09</text><path stroke-width="2" d="M 650 346 L 650 351" /><path stroke-width="2" d="M 650 346 L 650 351"></path><text xmlns="http://www.w3.org/2000/svg" x="617" y="368">2024-06-22</text><path stroke-width="2" d="M 748 346 L 748 351" /><path stroke-width="2" d="M 748 346 L 748 351"></path><text xmlns="http://www.w3.org/2000/svg" x="715" y="368">2024-09-05</text><path d="M 847 346 L 847 351" stroke-width="2" /><path stroke-width="2" d="M 847 346 L 847 351"></path><text y="368" xmlns="http://www.w3.org/2000/svg" x="814">2024-11-18</text><path stroke-width="2" d="M 945 346 L 945 351" /><path stroke-width="2" d="M 945 346 L 945 351"></path><text y="368" xmlns="http://www.w3.org/2000/svg" x="912">2025-02-01</text><text y="390" xmlns="http://www.w3.org/2000/svg" x="487">Time</text></svg>