<svg xmlns="http://www.w3.org/2000/svg" xmlns:xlink="http://www.w3.org/1999/xlink" width="1024px" height="400px"><style type="text/css">
path { fill: none; stroke: rgb(51,51,51); }
path.series { stroke: #6b63ff; }
rect.background { fill: rgb(255,255,255); stroke: none; }

text {
	stroke-width: 0;
	stroke: none;
	fill: rgba(51,51,51,1.0);
	font-size: 12.8px;
	font-family: 'Roboto Medium', sans-serif;
}
</style><rect x="0" y="0" width="1024px" height="400px" class="background" rx="8" /><rect x="0" y="0" width="1024px" height="400px" class="background" rx="8"></rect><path stroke-width="2" class="series" d="M 58 345 L 64 344 L 98 343 L 99 342 L 99 341 L 99 340 L 99 340 L 99 339 L 99 338 L 99 337 L 100 336 L 100 335 L 100 335 L 100 334 L 100 333 L 100 332 L 101 331 L 101 330 L 101 329 L 101 329 L 103 328 L 104 327 L 104 326 L 107 325 L 109 324 L 109 324 L 109 323 L 110 322 L 112 321 L 116 320 L 116 319 L 119 318 L 121 318 L 132 317 L 132 316 L 132 315 L 132 314 L 132 313 L 133 313 L 133 312 L 139 311 L 142 310 L 143 309 L 148 308 L 157 307 L 161 307 L 176 306 L 181 305 L 189 304 L 197 303 L 201 302 L 233 302 L 235 301 L 235 300 L 240 299 L 241 298 L 241 297 L 241 296 L 241 296 L 241 295 L 241 294 L 241 293 L 241 292 L 241 291 L 241 291 L 241 290 L 242 289 L 242 288 L 242 287 L 242 286 L 242 285 L 242 285 L 242 284 L 242 283 L 242 282 L 242 281 L 242 280 L 242 280 L 242 279 L 242 278 L 243 277 L 243 276 L 243 275 L 243 274 L 243 274 L 243 273 L 243 272 L 243 271 L 243 270 L 243 269 L 243 269 L 243 268 L 243 267 L 243 266 L 243 265 L 243 264 L 243 263 L 243 263 L 243 262 L 243 261 L 244 260 L 244 259 L 244 258 L 245 258 L 245 257 L 245 256 L 246 255 L 246 254 L 248 253 L 248 252 L 248 252 L 248 251 L 248 250 L 248 249 L 248 248 L 248 247 L 248 247 L 248 246 L 248 245 L 248 244 L 248 243 L 248 242 L 248 241 L 248 241 L 249 240 L 249 239 L 251 238 L 252 237 L 252 236 L 252 236 L 260 235 L 260 234 L 260 233 L 263 232 L 263 231 L 268 230 L 274 230 L 275 229 L 280 228 L 281 227 L 285 226 L 286 225 L 287 225 L 292 224 L 292 223 L 294 222 L 296 221 L 298 220 L 300 219 L 300 219 L 300 218 L 301 217 L 304 216 L 306 215 L 306 214 L 308 214 L 309 213 L 309 212 L 311 211 L 314 210 L 317 209 L 322 208 L 324 208 L 325 207 L 328 206 L 328 205 L 328 204 L 332 203 L 345 203 L 346 202 L 348 201 L 361 200 L 362 199 L 362 198 L 362 197 L 363 197 L 365 196 L 369 195 L 371 194 L 372 193 L 388 192 L 391 192 L 394 191 L 399 190 L 403 189 L 403 188 L 405 187 L 416 186 L 429 186 L 443 185 L 444 184 L 444 183 L 445 182 L 445 181 L 449 181 L 468 180 L 477 179 L 477 178 L 484 177 L 486 176 L 487 175 L 508 175 L 508 174 L 510 173 L 510 172 L 513 171 L 519 170 L 521 170 L 526 169 L 528 168 L 533 167 L 545 166 L 546 165 L 548 164 L 548 164 L 549 163 L 549 162 L 556 161 L 556 160 L 568 159 L 585 159 L 594 158 L 604 157 L 604 156 L 609 155 L 610 154 L 613 153 L 616 153 L 616 152 L 616 151 L 616 150 L 616 149 L 616 148 L 616 148 L 616 147 L 617 146 L 617 145 L 617 144 L 617 143 L 617 142 L 618 142 L 619 141 L 620 140 L 622 139 L 624 138 L 624 137 L 624 137 L 624 136 L 627 135 L 627 134 L 627 133 L 627 132 L 627 131 L 628 131 L 628 130 L 630 129 L 630 128 L 631 127 L 632 126 L 633 126 L 633 125 L 633 124 L 633 123 L 635 122 L 636 121 L 636 120 L 636 120 L 638 119 L 638 118 L 639 117 L 641 116 L 644 115 L 645 115 L 648 114 L 653 113 L 653 112 L 655 111 L 655 110 L 655 109 L 655 109 L 656 108 L 659 107 L 661 106 L 664 105 L 665 104 L 666 104 L 670 103 L 673 102 L 674 101 L 679 100 L 680 99 L 681 98 L 683 98 L 683 97 L 693 96 L 695 95 L 696 94 L 703 93 L 707 92 L 715 92 L 717 91 L 718 90 L 720 89 L 721 88 L 721 87 L 727 87 L 732 86 L 735 85 L 736 84 L 739 83 L 741 82 L 742 82 L 742 81 L 742 80 L 743 79 L 744 78 L 744 77 L 746 76 L 747 76 L 747 75 L 749 74 L 758 73 L 769 72 L 769 71 L 770 71 L 777 70 L 781 69 L 783 68 L 784 67 L 786 66 L 789 65 L 789 65 L 789 64 L 789 63 L 789 62 L 790 61 L 790 60 L 791 60 L 791 59 L 793 58 L 798 57 L 798 56 L 798 55 L 799 54 L 799 54 L 800 53 L 800 52 L 800 51 L 800 50 L 800 49 L 800 49 L 800 48 L 801 47 L 804 46 L 809 45 L 815 44 L 815 43 L 817 43 L 828 42 L 840 41 L 843 40 L 850 39 L 855 38 L 869 38 L 874 37 L 879 36 L 879 35 L 879 34 L 880 33 L 880 32 L 880 32 L 880 31 L 880 30 L 883 29 L 885 28 L 903 27 L 908 27 L 915 26 L 928 25 L 938 24 L 945 23" /><path stroke-width="2" class="series" d="M 58 345 L 64 344 L 98 343 L 99 342 L 99 341 L 99 340 L 99 340 L 99 339 L 99 338 L 99 337 L 100 336 L 100 335 L 100 335 L 100 334 L 100 333 L 100 332 L 101 331 L 101 330 L 101 329 L 101 329 L 103 328 L 104 327 L 104 326 L 107 325 L 109 324 L 109 324 L 109 323 L 110 322 L 112 321 L 116 320 L 116 319 L 119 318 L 121 318 L 132 317 L 132 316 L 132 315 L 132 314 L 132 313 L 133 313 L 133 312 L 139 311 L 142 310 L 143 309 L 148 308 L 157 307 L 161 307 L 176 306 L 181 305 L 189 304 L 197 303 L 201 302 L 233 302 L 235 301 L 235 300 L 240 299 L 241 298 L 241 297 L 241 296 L 241 296 L 241 295 L 241 294 L 241 293 L 241 292 L 241 291 L 241 291 L 241 290 L 242 289 L 242 288 L 242 287 L 242 286 L 242 285 L 242 285 L 242 284 L 242 283 L 242 282 L 242 281 L 242 280 L 242 280 L 242 279 L 242 278 L 243 277 L 243 276 L 243 275 L 243 274 L 243 274 L 243 273 L 243 272 L 243 271 L 243 270 L 243 269 L 243 269 L 243 268 L 243 267 L 243 266 L 243 265 L 243 264 L 243 263 L 243 263 L 243 262 L 243 261 L 244 260 L 244 259 L 244 258 L 245 258 L 245 257 L 245 256 L 246 255 L 246 254 L 248 253 L 248 252 L 248 252 L 248 251 L 248 250 L 248 249 L 248 248 L 248 247 L 248 247 L 248 246 L 248 245 L 248 244 L 248 243 L 248 242 L 248 241 L 248 241 L 249 240 L 249 239 L 251 238 L 252 237 L 252 236 L 252 236 L 260 235 L 260 234 L 260 233 L 263 232 L 263 231 L 268 230 L 274 230 L 275 229 L 280 228 L 281 227 L 285 226 L 286 225 L 287 225 L 292 224 L 292 223 L 294 222 L 296 221 L 298 220 L 300 219 L 300 219 L 300 218 L 301 217 L 304 216 L 306 215 L 306 214 L 308 214 L 309 213 L 309 212 L 311 211 L 314 210 L 317 209 L 322 208 L 324 208 L 325 207 L 328 206 L 328 205 L 328 204 L 332 203 L 345 203 L 346 202 L 348 201 L 361 200 L 362 199 L 362 198 L 362 197 L 363 197 L 365 196 L 369 195 L 371 194 L 372 193 L 388 192 L 391 192 L 394 191 L 399 190 L 403 189 L 403 188 L 405 187 L 416 186 L 429 186 L 443 185 L 444 184 L 444 183 L 445 182 L 445 181 L 449 181 L 468 180 L 477 179 L 477 178 L 484 177 L 486 176 L 487 175 L 508 175 L 508 174 L 510 173 L 510 172 L 513 171 L 519 170 L 521 170 L 526 169 L 528 168 L 533 167 L 545 166 L 546 165 L 548 164 L 548 164 L 549 163 L 549 162 L 556 161 L 556 160 L 568 159 L 585 159 L 594 158 L 604 157 L 604 156 L 609 155 L 610 154 L 613 153 L 616 153 L 616 152 L 616 151 L 616 150 L 616 149 L 616 148 L 616 148 L 616 147 L 617 146 L 617 145 L 617 144 L 617 143 L 617 142 L 618 142 L 619 141 L 620 140 L 622 139 L 624 138 L 624 137 L 624 137 L 624 136 L 627 135 L 627 134 L 627 133 L 627 132 L 627 131 L 628 131 L 628 130 L 630 129 L 630 128 L 631 127 L 632 126 L 633 126 L 633 125 L 633 124 L 633 123 L 635 122 L 636 121 L 636 120 L 636 120 L 638 119 L 638 118 L 639 117 L 641 116 L 644 115 L 645 115 L 648 114 L 653 113 L 653 112 L 655 111 L 655 110 L 655 109 L 655 109 L 656 108 L 659 107 L 661 106 L 664 105 L 665 104 L 666 104 L 670 103 L 673 102 L 674 101 L 679 100 L 680 99 L 681 98 L 683 98 L 683 97 L 693 96 L 695 95 L 696 94 L 703 93 L 707 92 L 715 92 L 717 91 L 718 90 L 720 89 L 721 88 L 721 87 L 727 87 L 732 86 L 735 85 L 736 84 L 739 83 L 741 82 L 742 82 L 742 81 L 742 80 L 743 79 L 744 78 L 744 77 L 746 76 L 747 76 L 747 75 L 749 74 L 758 73 L 769 72 L 769 71 L 770 71 L 777 70 L 781 69 L 783 68 L 784 67 L 786 66 L 789 65 L 789 65 L 789 64 L 789 63 L 789 62 L 790 61 L 790 60 L 791 60 L 791 59 L 793 58 L 798 57 L 798 56 L 798 55 L 799 54 L 799 54 L 800 53 L 800 52 L 800 51 L 800 50 L 800 49 L 800 49 L 800 48 L 801 47 L 804 46 L 809 45 L 815 44 L 815 43 L 817 43 L 828 42 L 840 41 L 843 40 L 850 39 L 855 38 L 869 38 L 874 37 L 879 36 L 879 35 L 879 34 L 880 33 L 880 32 L 880 32 L 880 31 L 880 30 L 883 29 L 885 28 L 903 27 L 908 27 L 915 26 L 928 25 L 938 24 L 945 23"></path><path stroke-width="2" d="M 945 346 L 945.000000 15.000000" /><path d="M 945 346 L 945.000000 15.000000" stroke-width="2"></path><path stroke-width="2" d="M 945 346 L 950 346" /><path d="M 945 346 L 950 346" stroke-width="2"></path><text xmlns="http://www.w3.org/2000/svg" x="955" y="352">0</text><path stroke-width="2" d="M 945 308 L 950 308" /><path stroke-width="2" d="M 945 308 L 950 308"></path><text y="314" xmlns="http://www.w3.org/2000/svg" x="955">44</text><path stroke-width="2" d="M 945 272 L 950 272" /><path d="M 945 272 L 950 272" stroke-width="2"></path><text xmlns="http://www.w3.org/2000/svg" x="955" y="278">87</text><path stroke-width="2" d="M 945 236 L 950 236" /><path stroke-width="2" d="M 945 236 L 950 236"></path><text xmlns="http://www.w3.org/2000/svg" x="955" y="242">130</text><path stroke-width="2" d="M 945 198 L 950 198" /><path stroke-width="2" d="M 945 198 L 950 198"></path><text y="204" xmlns="http://www.w3.org/2000/svg" x="955">174</text><path d="M 945 162 L 950 162" stroke-width="2" /><path stroke-width="2" d="M 945 162 L 950 162"></path><text x="955" y="168" xmlns="http://www.w3.org/2000/svg">217</text><path stroke-width="2" d="M 945 126 L 950 126" /><path stroke-width="2" d="M 945 126 L 950 126"></path><text y="132" xmlns="http://www.w3.org/2000/svg" x="955">260</text><path stroke-width="2" d="M 945 88 L 950 88" /><path stroke-width="2" d="M 945 88 L 950 88"></path><text xmlns="http://www.w3.org/2000/svg" x="955" y="94">304</text><path stroke-width="2" d="M 945 52 L 950 52" /><path stroke-width="2" d="M 945 52 L 950 52"></path><text x="955" y="58" xmlns="http://www.w3.org/2000/svg">347</text><path stroke-width="2" d="M 945 16 L 950 16" /><path stroke-width="2" d="M 945 16 L 950 16"></path><text y="22" xmlns="http://www.w3.org/2000/svg" x="955">390</text><text xmlns="http://www.w3.org/2000/svg" x="987" y="175" transform="rotate(90.00,987,175)">Stargazers</text><path stroke-width="2" d="M 57.000000 346.000000 L 945 346" /><path stroke-width="2" d="M 57.000000 346.000000 L 945 346"></path><path stroke-width="2" d="M 58 346 L 58 351" /><path stroke-width="2" d="M 58 346 L 58 351"></path><text xmlns="http://www.w3.org/2000/svg" x="25" y="368">2023-04-02</text><path stroke-width="2" d="M 157 346 L 157 351" /><path stroke-width="2" d="M 157 346 L 157 351"></path><text xmlns="http://www.w3.org/2000/svg" x="124" y="368">2023-05-07</text><path stroke-width="2" d="M 256 346 L 256 351" /><path stroke-width="2" d="M 256 346 L 256 351"></path><text xmlns="http://www.w3.org/2000/svg" x="223" y="368">2023-06-10</text><path stroke-width="2" d="M 354 346 L 354 351" /><path stroke-width="2" d="M 354 346 L 354 351"></path><text xmlns="http://www.w3.org/2000/svg" x="321" y="368">2023-07-15</text><path stroke-width="2" d="M 453 346 L 453 351" /><path stroke-width="2" d="M 453 346 L 453 351"></path><text xmlns="http://www.w3.org/2000/svg" x="420" y="368">2023-08-19</text><path d="M 551 346 L 551 351" stroke-width="2" /><path stroke-width="2" d="M 551 346 L 551 351"></path><text xmlns="http://www.w3.org/2000/svg" x="518" y="368">2023-09-22</text><path stroke-width="2" d="M 650 346 L 650 351" /><path stroke-width="2" d="M 650 346 L 650 351"></path><text xmlns="http://www.w3.org/2000/svg" x="617" y="368">2023-10-27</text><path stroke-width="2" d="M 748 346 L 748 351" /><path stroke-width="2" d="M 748 346 L 748 351"></path><text xmlns="http://www.w3.org/2000/svg" x="715" y="368">2023-11-30</text><path d="M 847 346 L 847 351" stroke-width="2" /><path stroke-width="2" d="M 847 346 L 847 351"></path><text xmlns="http://www.w3.org/2000/svg" x="814" y="368">2024-01-04</text><path stroke-width="2" d="M 945 346 L 945 351" /><path stroke-width="2" d="M 945 346 L 945 351"></path><text xmlns="http://www.w3.org/2000/svg" x="912" y="368">2024-02-08</text><text xmlns="http://www.w3.org/2000/svg" x="487" y="390">Time</text></svg>