<svg xmlns:xlink="http://www.w3.org/1999/xlink" width="1024px" height="400px" xmlns="http://www.w3.org/2000/svg"><style type="text/css">
path { fill: none; stroke: rgb(51,51,51); }
path.series { stroke: #6b63ff; }
rect.background { fill: rgb(255,255,255); stroke: none; }

text {
	stroke-width: 0;
	stroke: none;
	fill: rgba(51,51,51,1.0);
	font-size: 12.8px;
	font-family: 'Roboto Medium', sans-serif;
}
</style><rect x="0" y="0" width="1024px" height="400px" class="background" rx="8" /><rect x="0" y="0" width="1024px" height="400px" class="background" rx="8"></rect><path class="series" d="M 58 345 L 61 345 L 75 344 L 75 344 L 75 344 L 75 343 L 75 343 L 75 343 L 75 342 L 75 342 L 76 342 L 76 341 L 76 341 L 76 341 L 76 340 L 76 340 L 76 340 L 76 339 L 76 339 L 77 338 L 78 338 L 78 338 L 79 337 L 79 337 L 79 337 L 79 336 L 80 336 L 81 336 L 82 335 L 83 335 L 84 335 L 85 334 L 89 334 L 89 334 L 89 333 L 89 333 L 89 333 L 92 332 L 93 332 L 94 331 L 96 331 L 100 331 L 101 330 L 107 330 L 109 330 L 113 329 L 117 329 L 118 329 L 132 328 L 132 328 L 132 328 L 134 327 L 135 327 L 135 327 L 135 326 L 135 326 L 135 325 L 135 325 L 135 325 L 135 324 L 135 324 L 135 324 L 135 323 L 135 323 L 135 323 L 135 322 L 135 322 L 135 322 L 135 321 L 135 321 L 135 321 L 135 320 L 135 320 L 135 320 L 135 319 L 135 319 L 135 318 L 135 318 L 135 318 L 135 317 L 135 317 L 135 317 L 135 316 L 135 316 L 135 316 L 135 315 L 135 315 L 135 315 L 135 314 L 136 314 L 136 314 L 136 313 L 136 313 L 136 313 L 136 312 L 136 312 L 136 311 L 136 311 L 136 311 L 136 310 L 136 310 L 136 310 L 136 309 L 137 309 L 137 309 L 138 308 L 138 308 L 138 308 L 138 307 L 138 307 L 138 307 L 138 306 L 138 306 L 138 305 L 138 305 L 138 305 L 138 304 L 138 304 L 138 304 L 138 303 L 138 303 L 138 303 L 138 302 L 139 302 L 139 302 L 139 301 L 139 301 L 142 301 L 143 300 L 143 300 L 144 300 L 144 299 L 146 299 L 148 298 L 149 298 L 151 298 L 152 297 L 153 297 L 153 297 L 154 296 L 156 296 L 156 296 L 157 295 L 158 295 L 158 295 L 159 294 L 159 294 L 159 294 L 160 293 L 161 293 L 162 292 L 162 292 L 163 292 L 163 291 L 163 291 L 164 291 L 165 290 L 166 290 L 168 290 L 169 289 L 170 289 L 171 289 L 171 288 L 171 288 L 173 288 L 178 287 L 179 287 L 179 287 L 185 286 L 185 286 L 185 285 L 185 285 L 185 285 L 186 284 L 188 284 L 189 284 L 189 283 L 196 283 L 197 283 L 199 282 L 201 282 L 202 282 L 202 281 L 203 281 L 208 281 L 213 280 L 219 280 L 220 280 L 220 279 L 220 279 L 220 278 L 221 278 L 229 278 L 233 277 L 233 277 L 236 277 L 237 276 L 237 276 L 246 276 L 246 275 L 247 275 L 247 275 L 248 274 L 251 274 L 252 274 L 254 273 L 255 273 L 257 272 L 262 272 L 262 272 L 263 271 L 263 271 L 263 271 L 263 270 L 266 270 L 271 270 L 282 269 L 286 269 L 288 269 L 289 268 L 290 268 L 291 268 L 291 267 L 291 267 L 291 267 L 291 266 L 291 266 L 291 265 L 291 265 L 291 265 L 291 264 L 292 264 L 292 264 L 292 263 L 292 263 L 292 263 L 294 262 L 295 262 L 295 262 L 295 261 L 296 261 L 296 261 L 296 260 L 296 260 L 296 259 L 296 259 L 296 259 L 297 258 L 298 258 L 298 258 L 298 257 L 298 257 L 298 257 L 298 256 L 299 256 L 299 256 L 299 255 L 300 255 L 300 255 L 301 254 L 301 254 L 302 254 L 303 253 L 303 253 L 305 252 L 307 252 L 307 252 L 307 251 L 308 251 L 308 251 L 308 250 L 308 250 L 309 250 L 310 249 L 311 249 L 311 249 L 312 248 L 314 248 L 315 248 L 315 247 L 318 247 L 318 247 L 318 246 L 319 246 L 319 245 L 323 245 L 324 245 L 325 244 L 328 244 L 329 244 L 333 243 L 333 243 L 334 243 L 335 242 L 335 242 L 335 242 L 338 241 L 340 241 L 341 241 L 341 240 L 342 240 L 344 239 L 344 239 L 344 239 L 344 238 L 344 238 L 344 238 L 345 237 L 346 237 L 346 237 L 346 236 L 347 236 L 351 236 L 355 235 L 355 235 L 355 235 L 359 234 L 360 234 L 361 234 L 361 233 L 362 233 L 363 232 L 363 232 L 363 232 L 363 231 L 363 231 L 364 231 L 364 230 L 364 230 L 364 230 L 365 229 L 367 229 L 367 229 L 367 228 L 367 228 L 368 228 L 368 227 L 368 227 L 368 226 L 368 226 L 368 226 L 368 225 L 368 225 L 368 225 L 372 224 L 374 224 L 374 224 L 375 223 L 385 223 L 386 223 L 389 222 L 391 222 L 399 222 L 401 221 L 401 221 L 401 221 L 401 220 L 401 220 L 401 219 L 402 219 L 403 219 L 404 218 L 411 218 L 413 218 L 416 217 L 421 217 L 426 217 L 429 216 L 431 216 L 435 216 L 435 215 L 444 215 L 452 215 L 452 214 L 458 214 L 459 214 L 464 213 L 464 213 L 467 212 L 467 212 L 468 212 L 468 211 L 470 211 L 472 211 L 474 210 L 477 210 L 478 210 L 479 209 L 479 209 L 483 209 L 486 208 L 486 208 L 490 208 L 493 207 L 494 207 L 494 206 L 496 206 L 496 206 L 497 205 L 500 205 L 503 205 L 505 204 L 507 204 L 507 204 L 512 203 L 513 203 L 515 203 L 519 202 L 519 202 L 524 202 L 525 201 L 525 201 L 526 201 L 526 200 L 529 200 L 529 199 L 531 199 L 533 199 L 534 198 L 534 198 L 535 198 L 542 197 L 542 197 L 542 197 L 543 196 L 543 196 L 544 196 L 544 195 L 544 195 L 545 195 L 546 194 L 547 194 L 548 193 L 548 193 L 549 193 L 550 192 L 550 192 L 550 192 L 551 191 L 551 191 L 551 191 L 552 190 L 552 190 L 552 190 L 553 189 L 553 189 L 555 189 L 555 188 L 555 188 L 556 188 L 556 187 L 557 187 L 559 186 L 559 186 L 559 186 L 560 185 L 562 185 L 562 185 L 562 184 L 563 184 L 565 184 L 565 183 L 565 183 L 565 183 L 565 182 L 565 182 L 566 182 L 566 181 L 567 181 L 567 181 L 570 180 L 571 180 L 573 179 L 573 179 L 575 179 L 576 178 L 577 178 L 579 178 L 581 177 L 583 177 L 586 177 L 586 176 L 587 176 L 587 176 L 587 175 L 588 175 L 588 175 L 588 174 L 589 174 L 589 173 L 589 173 L 589 173 L 591 172 L 592 172 L 592 172 L 592 171 L 593 171 L 595 171 L 595 170 L 595 170 L 596 170 L 597 169 L 600 169 L 602 169 L 606 168 L 606 168 L 606 168 L 606 167 L 608 167 L 610 166 L 610 166 L 610 166 L 610 165 L 611 165 L 613 165 L 616 164 L 616 164 L 616 164 L 616 163 L 618 163 L 618 163 L 618 162 L 619 162 L 621 162 L 625 161 L 625 161 L 628 160 L 629 160 L 629 160 L 633 159 L 634 159 L 636 159 L 638 158 L 639 158 L 641 158 L 641 157 L 641 157 L 641 157 L 641 156 L 641 156 L 642 156 L 643 155 L 643 155 L 644 155 L 644 154 L 644 154 L 645 153 L 646 153 L 646 153 L 651 152 L 651 152 L 656 152 L 658 151 L 658 151 L 659 151 L 659 150 L 662 150 L 662 150 L 663 149 L 663 149 L 664 149 L 664 148 L 664 148 L 664 148 L 664 147 L 665 147 L 665 146 L 665 146 L 665 146 L 665 145 L 666 145 L 666 145 L 668 144 L 668 144 L 668 144 L 669 143 L 670 143 L 670 143 L 670 142 L 671 142 L 672 142 L 674 141 L 675 141 L 675 140 L 675 140 L 675 140 L 676 139 L 676 139 L 676 139 L 677 138 L 679 138 L 682 138 L 684 137 L 685 137 L 687 137 L 690 136 L 693 136 L 694 136 L 696 135 L 700 135 L 700 135 L 700 134 L 705 134 L 706 133 L 707 133 L 708 133 L 708 132 L 716 132 L 716 132 L 717 131 L 717 131 L 718 131 L 718 130 L 719 130 L 720 130 L 720 129 L 721 129 L 721 129 L 721 128 L 722 128 L 722 127 L 722 127 L 722 127 L 722 126 L 723 126 L 723 126 L 724 125 L 725 125 L 727 125 L 727 124 L 727 124 L 728 124 L 728 123 L 729 123 L 729 123 L 730 122 L 730 122 L 731 122 L 731 121 L 732 121 L 733 120 L 734 120 L 734 120 L 735 119 L 736 119 L 736 119 L 736 118 L 736 118 L 737 118 L 737 117 L 738 117 L 738 117 L 739 116 L 739 116 L 740 116 L 741 115 L 741 115 L 741 115 L 741 114 L 741 114 L 742 113 L 742 113 L 742 113 L 743 112 L 743 112 L 744 112 L 744 111 L 745 111 L 745 111 L 745 110 L 745 110 L 745 110 L 745 109 L 746 109 L 746 109 L 746 108 L 746 108 L 748 107 L 749 107 L 751 107 L 751 106 L 752 106 L 752 106 L 753 105 L 754 105 L 754 105 L 755 104 L 758 104 L 760 104 L 760 103 L 762 103 L 762 103 L 762 102 L 763 102 L 763 102 L 764 101 L 764 101 L 764 100 L 764 100 L 764 100 L 764 99 L 765 99 L 765 99 L 765 98 L 765 98 L 765 98 L 765 97 L 766 97 L 766 97 L 766 96 L 767 96 L 767 96 L 769 95 L 769 95 L 770 94 L 770 94 L 771 94 L 771 93 L 772 93 L 774 93 L 775 92 L 775 92 L 775 92 L 775 91 L 776 91 L 778 91 L 780 90 L 780 90 L 782 90 L 782 89 L 782 89 L 783 89 L 783 88 L 788 88 L 790 87 L 793 87 L 795 87 L 796 86 L 797 86 L 798 86 L 798 85 L 798 85 L 798 85 L 799 84 L 799 84 L 800 84 L 800 83 L 802 83 L 804 83 L 804 82 L 804 82 L 804 82 L 804 81 L 804 81 L 804 80 L 804 80 L 804 80 L 804 79 L 804 79 L 804 79 L 804 78 L 804 78 L 804 78 L 804 77 L 804 77 L 805 77 L 805 76 L 805 76 L 805 76 L 805 75 L 805 75 L 805 74 L 806 74 L 806 74 L 806 73 L 807 73 L 807 73 L 807 72 L 807 72 L 807 72 L 807 71 L 809 71 L 810 71 L 812 70 L 812 70 L 812 70 L 814 69 L 814 69 L 814 69 L 815 68 L 817 68 L 818 67 L 819 67 L 819 67 L 819 66 L 819 66 L 819 66 L 819 65 L 819 65 L 821 65 L 822 64 L 822 64 L 826 64 L 827 63 L 829 63 L 831 63 L 832 62 L 833 62 L 833 61 L 833 61 L 834 61 L 834 60 L 834 60 L 835 60 L 836 59 L 836 59 L 836 59 L 837 58 L 837 58 L 837 58 L 837 57 L 837 57 L 837 57 L 838 56 L 838 56 L 838 56 L 838 55 L 840 55 L 840 54 L 841 54 L 841 54 L 842 53 L 842 53 L 842 53 L 843 52 L 843 52 L 843 52 L 844 51 L 844 51 L 845 51 L 849 50 L 850 50 L 851 50 L 854 49 L 855 49 L 856 49 L 859 48 L 859 48 L 860 47 L 863 47 L 869 47 L 869 46 L 871 46 L 873 46 L 875 45 L 875 45 L 875 45 L 878 44 L 878 44 L 879 44 L 880 43 L 881 43 L 882 43 L 883 42 L 883 42 L 884 41 L 885 41 L 885 41 L 886 40 L 889 40 L 889 40 L 890 39 L 892 39 L 892 39 L 893 38 L 894 38 L 895 38 L 895 37 L 895 37 L 896 37 L 896 36 L 898 36 L 898 36 L 899 35 L 900 35 L 900 34 L 900 34 L 901 34 L 902 33 L 902 33 L 902 33 L 903 32 L 904 32 L 904 32 L 904 31 L 904 31 L 904 31 L 905 30 L 907 30 L 908 30 L 909 29 L 909 29 L 912 28 L 913 28 L 915 28 L 915 27 L 918 27 L 920 27 L 923 26 L 924 26 L 925 26 L 926 25 L 927 25 L 930 25 L 930 24 L 931 24 L 932 24 L 932 23 L 932 23 L 932 23 L 932 22 L 932 22 L 934 21 L 935 21 L 936 21 L 936 20 L 937 20 L 937 20 L 944 19 L 944 19 L 945 19" stroke-width="2" /><path stroke-width="2" class="series" d="M 58 345 L 61 345 L 75 344 L 75 344 L 75 344 L 75 343 L 75 343 L 75 343 L 75 342 L 75 342 L 76 342 L 76 341 L 76 341 L 76 341 L 76 340 L 76 340 L 76 340 L 76 339 L 76 339 L 77 338 L 78 338 L 78 338 L 79 337 L 79 337 L 79 337 L 79 336 L 80 336 L 81 336 L 82 335 L 83 335 L 84 335 L 85 334 L 89 334 L 89 334 L 89 333 L 89 333 L 89 333 L 92 332 L 93 332 L 94 331 L 96 331 L 100 331 L 101 330 L 107 330 L 109 330 L 113 329 L 117 329 L 118 329 L 132 328 L 132 328 L 132 328 L 134 327 L 135 327 L 135 327 L 135 326 L 135 326 L 135 325 L 135 325 L 135 325 L 135 324 L 135 324 L 135 324 L 135 323 L 135 323 L 135 323 L 135 322 L 135 322 L 135 322 L 135 321 L 135 321 L 135 321 L 135 320 L 135 320 L 135 320 L 135 319 L 135 319 L 135 318 L 135 318 L 135 318 L 135 317 L 135 317 L 135 317 L 135 316 L 135 316 L 135 316 L 135 315 L 135 315 L 135 315 L 135 314 L 136 314 L 136 314 L 136 313 L 136 313 L 136 313 L 136 312 L 136 312 L 136 311 L 136 311 L 136 311 L 136 310 L 136 310 L 136 310 L 136 309 L 137 309 L 137 309 L 138 308 L 138 308 L 138 308 L 138 307 L 138 307 L 138 307 L 138 306 L 138 306 L 138 305 L 138 305 L 138 305 L 138 304 L 138 304 L 138 304 L 138 303 L 138 303 L 138 303 L 138 302 L 139 302 L 139 302 L 139 301 L 139 301 L 142 301 L 143 300 L 143 300 L 144 300 L 144 299 L 146 299 L 148 298 L 149 298 L 151 298 L 152 297 L 153 297 L 153 297 L 154 296 L 156 296 L 156 296 L 157 295 L 158 295 L 158 295 L 159 294 L 159 294 L 159 294 L 160 293 L 161 293 L 162 292 L 162 292 L 163 292 L 163 291 L 163 291 L 164 291 L 165 290 L 166 290 L 168 290 L 169 289 L 170 289 L 171 289 L 171 288 L 171 288 L 173 288 L 178 287 L 179 287 L 179 287 L 185 286 L 185 286 L 185 285 L 185 285 L 185 285 L 186 284 L 188 284 L 189 284 L 189 283 L 196 283 L 197 283 L 199 282 L 201 282 L 202 282 L 202 281 L 203 281 L 208 281 L 213 280 L 219 280 L 220 280 L 220 279 L 220 279 L 220 278 L 221 278 L 229 278 L 233 277 L 233 277 L 236 277 L 237 276 L 237 276 L 246 276 L 246 275 L 247 275 L 247 275 L 248 274 L 251 274 L 252 274 L 254 273 L 255 273 L 257 272 L 262 272 L 262 272 L 263 271 L 263 271 L 263 271 L 263 270 L 266 270 L 271 270 L 282 269 L 286 269 L 288 269 L 289 268 L 290 268 L 291 268 L 291 267 L 291 267 L 291 267 L 291 266 L 291 266 L 291 265 L 291 265 L 291 265 L 291 264 L 292 264 L 292 264 L 292 263 L 292 263 L 292 263 L 294 262 L 295 262 L 295 262 L 295 261 L 296 261 L 296 261 L 296 260 L 296 260 L 296 259 L 296 259 L 296 259 L 297 258 L 298 258 L 298 258 L 298 257 L 298 257 L 298 257 L 298 256 L 299 256 L 299 256 L 299 255 L 300 255 L 300 255 L 301 254 L 301 254 L 302 254 L 303 253 L 303 253 L 305 252 L 307 252 L 307 252 L 307 251 L 308 251 L 308 251 L 308 250 L 308 250 L 309 250 L 310 249 L 311 249 L 311 249 L 312 248 L 314 248 L 315 248 L 315 247 L 318 247 L 318 247 L 318 246 L 319 246 L 319 245 L 323 245 L 324 245 L 325 244 L 328 244 L 329 244 L 333 243 L 333 243 L 334 243 L 335 242 L 335 242 L 335 242 L 338 241 L 340 241 L 341 241 L 341 240 L 342 240 L 344 239 L 344 239 L 344 239 L 344 238 L 344 238 L 344 238 L 345 237 L 346 237 L 346 237 L 346 236 L 347 236 L 351 236 L 355 235 L 355 235 L 355 235 L 359 234 L 360 234 L 361 234 L 361 233 L 362 233 L 363 232 L 363 232 L 363 232 L 363 231 L 363 231 L 364 231 L 364 230 L 364 230 L 364 230 L 365 229 L 367 229 L 367 229 L 367 228 L 367 228 L 368 228 L 368 227 L 368 227 L 368 226 L 368 226 L 368 226 L 368 225 L 368 225 L 368 225 L 372 224 L 374 224 L 374 224 L 375 223 L 385 223 L 386 223 L 389 222 L 391 222 L 399 222 L 401 221 L 401 221 L 401 221 L 401 220 L 401 220 L 401 219 L 402 219 L 403 219 L 404 218 L 411 218 L 413 218 L 416 217 L 421 217 L 426 217 L 429 216 L 431 216 L 435 216 L 435 215 L 444 215 L 452 215 L 452 214 L 458 214 L 459 214 L 464 213 L 464 213 L 467 212 L 467 212 L 468 212 L 468 211 L 470 211 L 472 211 L 474 210 L 477 210 L 478 210 L 479 209 L 479 209 L 483 209 L 486 208 L 486 208 L 490 208 L 493 207 L 494 207 L 494 206 L 496 206 L 496 206 L 497 205 L 500 205 L 503 205 L 505 204 L 507 204 L 507 204 L 512 203 L 513 203 L 515 203 L 519 202 L 519 202 L 524 202 L 525 201 L 525 201 L 526 201 L 526 200 L 529 200 L 529 199 L 531 199 L 533 199 L 534 198 L 534 198 L 535 198 L 542 197 L 542 197 L 542 197 L 543 196 L 543 196 L 544 196 L 544 195 L 544 195 L 545 195 L 546 194 L 547 194 L 548 193 L 548 193 L 549 193 L 550 192 L 550 192 L 550 192 L 551 191 L 551 191 L 551 191 L 552 190 L 552 190 L 552 190 L 553 189 L 553 189 L 555 189 L 555 188 L 555 188 L 556 188 L 556 187 L 557 187 L 559 186 L 559 186 L 559 186 L 560 185 L 562 185 L 562 185 L 562 184 L 563 184 L 565 184 L 565 183 L 565 183 L 565 183 L 565 182 L 565 182 L 566 182 L 566 181 L 567 181 L 567 181 L 570 180 L 571 180 L 573 179 L 573 179 L 575 179 L 576 178 L 577 178 L 579 178 L 581 177 L 583 177 L 586 177 L 586 176 L 587 176 L 587 176 L 587 175 L 588 175 L 588 175 L 588 174 L 589 174 L 589 173 L 589 173 L 589 173 L 591 172 L 592 172 L 592 172 L 592 171 L 593 171 L 595 171 L 595 170 L 595 170 L 596 170 L 597 169 L 600 169 L 602 169 L 606 168 L 606 168 L 606 168 L 606 167 L 608 167 L 610 166 L 610 166 L 610 166 L 610 165 L 611 165 L 613 165 L 616 164 L 616 164 L 616 164 L 616 163 L 618 163 L 618 163 L 618 162 L 619 162 L 621 162 L 625 161 L 625 161 L 628 160 L 629 160 L 629 160 L 633 159 L 634 159 L 636 159 L 638 158 L 639 158 L 641 158 L 641 157 L 641 157 L 641 157 L 641 156 L 641 156 L 642 156 L 643 155 L 643 155 L 644 155 L 644 154 L 644 154 L 645 153 L 646 153 L 646 153 L 651 152 L 651 152 L 656 152 L 658 151 L 658 151 L 659 151 L 659 150 L 662 150 L 662 150 L 663 149 L 663 149 L 664 149 L 664 148 L 664 148 L 664 148 L 664 147 L 665 147 L 665 146 L 665 146 L 665 146 L 665 145 L 666 145 L 666 145 L 668 144 L 668 144 L 668 144 L 669 143 L 670 143 L 670 143 L 670 142 L 671 142 L 672 142 L 674 141 L 675 141 L 675 140 L 675 140 L 675 140 L 676 139 L 676 139 L 676 139 L 677 138 L 679 138 L 682 138 L 684 137 L 685 137 L 687 137 L 690 136 L 693 136 L 694 136 L 696 135 L 700 135 L 700 135 L 700 134 L 705 134 L 706 133 L 707 133 L 708 133 L 708 132 L 716 132 L 716 132 L 717 131 L 717 131 L 718 131 L 718 130 L 719 130 L 720 130 L 720 129 L 721 129 L 721 129 L 721 128 L 722 128 L 722 127 L 722 127 L 722 127 L 722 126 L 723 126 L 723 126 L 724 125 L 725 125 L 727 125 L 727 124 L 727 124 L 728 124 L 728 123 L 729 123 L 729 123 L 730 122 L 730 122 L 731 122 L 731 121 L 732 121 L 733 120 L 734 120 L 734 120 L 735 119 L 736 119 L 736 119 L 736 118 L 736 118 L 737 118 L 737 117 L 738 117 L 738 117 L 739 116 L 739 116 L 740 116 L 741 115 L 741 115 L 741 115 L 741 114 L 741 114 L 742 113 L 742 113 L 742 113 L 743 112 L 743 112 L 744 112 L 744 111 L 745 111 L 745 111 L 745 110 L 745 110 L 745 110 L 745 109 L 746 109 L 746 109 L 746 108 L 746 108 L 748 107 L 749 107 L 751 107 L 751 106 L 752 106 L 752 106 L 753 105 L 754 105 L 754 105 L 755 104 L 758 104 L 760 104 L 760 103 L 762 103 L 762 103 L 762 102 L 763 102 L 763 102 L 764 101 L 764 101 L 764 100 L 764 100 L 764 100 L 764 99 L 765 99 L 765 99 L 765 98 L 765 98 L 765 98 L 765 97 L 766 97 L 766 97 L 766 96 L 767 96 L 767 96 L 769 95 L 769 95 L 770 94 L 770 94 L 771 94 L 771 93 L 772 93 L 774 93 L 775 92 L 775 92 L 775 92 L 775 91 L 776 91 L 778 91 L 780 90 L 780 90 L 782 90 L 782 89 L 782 89 L 783 89 L 783 88 L 788 88 L 790 87 L 793 87 L 795 87 L 796 86 L 797 86 L 798 86 L 798 85 L 798 85 L 798 85 L 799 84 L 799 84 L 800 84 L 800 83 L 802 83 L 804 83 L 804 82 L 804 82 L 804 82 L 804 81 L 804 81 L 804 80 L 804 80 L 804 80 L 804 79 L 804 79 L 804 79 L 804 78 L 804 78 L 804 78 L 804 77 L 804 77 L 805 77 L 805 76 L 805 76 L 805 76 L 805 75 L 805 75 L 805 74 L 806 74 L 806 74 L 806 73 L 807 73 L 807 73 L 807 72 L 807 72 L 807 72 L 807 71 L 809 71 L 810 71 L 812 70 L 812 70 L 812 70 L 814 69 L 814 69 L 814 69 L 815 68 L 817 68 L 818 67 L 819 67 L 819 67 L 819 66 L 819 66 L 819 66 L 819 65 L 819 65 L 821 65 L 822 64 L 822 64 L 826 64 L 827 63 L 829 63 L 831 63 L 832 62 L 833 62 L 833 61 L 833 61 L 834 61 L 834 60 L 834 60 L 835 60 L 836 59 L 836 59 L 836 59 L 837 58 L 837 58 L 837 58 L 837 57 L 837 57 L 837 57 L 838 56 L 838 56 L 838 56 L 838 55 L 840 55 L 840 54 L 841 54 L 841 54 L 842 53 L 842 53 L 842 53 L 843 52 L 843 52 L 843 52 L 844 51 L 844 51 L 845 51 L 849 50 L 850 50 L 851 50 L 854 49 L 855 49 L 856 49 L 859 48 L 859 48 L 860 47 L 863 47 L 869 47 L 869 46 L 871 46 L 873 46 L 875 45 L 875 45 L 875 45 L 878 44 L 878 44 L 879 44 L 880 43 L 881 43 L 882 43 L 883 42 L 883 42 L 884 41 L 885 41 L 885 41 L 886 40 L 889 40 L 889 40 L 890 39 L 892 39 L 892 39 L 893 38 L 894 38 L 895 38 L 895 37 L 895 37 L 896 37 L 896 36 L 898 36 L 898 36 L 899 35 L 900 35 L 900 34 L 900 34 L 901 34 L 902 33 L 902 33 L 902 33 L 903 32 L 904 32 L 904 32 L 904 31 L 904 31 L 904 31 L 905 30 L 907 30 L 908 30 L 909 29 L 909 29 L 912 28 L 913 28 L 915 28 L 915 27 L 918 27 L 920 27 L 923 26 L 924 26 L 925 26 L 926 25 L 927 25 L 930 25 L 930 24 L 931 24 L 932 24 L 932 23 L 932 23 L 932 23 L 932 22 L 932 22 L 934 21 L 935 21 L 936 21 L 936 20 L 937 20 L 937 20 L 944 19 L 944 19 L 945 19"></path><path stroke-width="2" d="M 945 346 L 945.000000 15.000000" /><path stroke-width="2" d="M 945 346 L 945.000000 15.000000"></path><path stroke-width="2" d="M 945 346 L 950 346" /><path stroke-width="2" d="M 945 346 L 950 346"></path><text xmlns="http://www.w3.org/2000/svg" x="955" y="352">0</text><path stroke-width="2" d="M 945 309 L 950 309" /><path stroke-width="2" d="M 945 309 L 950 309"></path><text x="955" y="315" xmlns="http://www.w3.org/2000/svg">105</text><path stroke-width="2" d="M 945 272 L 950 272" /><path stroke-width="2" d="M 945 272 L 950 272"></path><text xmlns="http://www.w3.org/2000/svg" x="955" y="278">209</text><path d="M 945 235 L 950 235" stroke-width="2" /><path stroke-width="2" d="M 945 235 L 950 235"></path><text xmlns="http://www.w3.org/2000/svg" x="955" y="241">314</text><path stroke-width="2" d="M 945 199 L 950 199" /><path d="M 945 199 L 950 199" stroke-width="2"></path><text xmlns="http://www.w3.org/2000/svg" x="955" y="205">418</text><path stroke-width="2" d="M 945 162 L 950 162" /><path stroke-width="2" d="M 945 162 L 950 162"></path><text xmlns="http://www.w3.org/2000/svg" x="955" y="168">523</text><path stroke-width="2" d="M 945 125 L 950 125" /><path stroke-width="2" d="M 945 125 L 950 125"></path><text x="955" y="131" xmlns="http://www.w3.org/2000/svg">627</text><path stroke-width="2" d="M 945 89 L 950 89" /><path stroke-width="2" d="M 945 89 L 950 89"></path><text y="95" xmlns="http://www.w3.org/2000/svg" x="955">732</text><path stroke-width="2" d="M 945 52 L 950 52" /><path stroke-width="2" d="M 945 52 L 950 52"></path><text xmlns="http://www.w3.org/2000/svg" x="955" y="58">836</text><path stroke-width="2" d="M 945 16 L 950 16" /><path stroke-width="2" d="M 945 16 L 950 16"></path><text xmlns="http://www.w3.org/2000/svg" x="955" y="22">940</text><text xmlns="http://www.w3.org/2000/svg" x="987" y="175" transform="rotate(90.00,987,175)">Stargazers</text><path stroke-width="2" d="M 57.000000 346.000000 L 945 346" /><path stroke-width="2" d="M 57.000000 346.000000 L 945 346"></path><path stroke-width="2" d="M 58 346 L 58 351" /><path stroke-width="2" d="M 58 346 L 58 351"></path><text y="368" xmlns="http://www.w3.org/2000/svg" x="25">2023-04-02</text><path d="M 157 346 L 157 351" stroke-width="2" /><path stroke-width="2" d="M 157 346 L 157 351"></path><text xmlns="http://www.w3.org/2000/svg" x="124" y="368">2023-06-24</text><path d="M 256 346 L 256 351" stroke-width="2" /><path stroke-width="2" d="M 256 346 L 256 351"></path><text xmlns="http://www.w3.org/2000/svg" x="223" y="368">2023-09-15</text><path stroke-width="2" d="M 354 346 L 354 351" /><path stroke-width="2" d="M 354 346 L 354 351"></path><text xmlns="http://www.w3.org/2000/svg" x="321" y="368">2023-12-07</text><path stroke-width="2" d="M 453 346 L 453 351" /><path stroke-width="2" d="M 453 346 L 453 351"></path><text xmlns="http://www.w3.org/2000/svg" x="420" y="368">2024-02-28</text><path stroke-width="2" d="M 551 346 L 551 351" /><path d="M 551 346 L 551 351" stroke-width="2"></path><text x="518" y="368" xmlns="http://www.w3.org/2000/svg">2024-05-21</text><path stroke-width="2" d="M 650 346 L 650 351" /><path stroke-width="2" d="M 650 346 L 650 351"></path><text y="368" xmlns="http://www.w3.org/2000/svg" x="617">2024-08-12</text><path stroke-width="2" d="M 748 346 L 748 351" /><path stroke-width="2" d="M 748 346 L 748 351"></path><text xmlns="http://www.w3.org/2000/svg" x="715" y="368">2024-11-03</text><path stroke-width="2" d="M 847 346 L 847 351" /><path d="M 847 346 L 847 351" stroke-width="2"></path><text xmlns="http://www.w3.org/2000/svg" x="814" y="368">2025-01-25</text><path d="M 945 346 L 945 351" stroke-width="2" /><path stroke-width="2" d="M 945 346 L 945 351"></path><text xmlns="http://www.w3.org/2000/svg" x="912" y="368">2025-04-18</text><text y="390" xmlns="http://www.w3.org/2000/svg" x="487">Time</text></svg>