<svg xmlns="http://www.w3.org/2000/svg" xmlns:xlink="http://www.w3.org/1999/xlink" width="1024px" height="400px"><style type="text/css">
path { fill: none; stroke: rgb(51,51,51); }
path.series { stroke: #6b63ff; }
rect.background { fill: rgb(255,255,255); stroke: none; }

text {
	stroke-width: 0;
	stroke: none;
	fill: rgba(51,51,51,1.0);
	font-size: 12.8px;
	font-family: 'Roboto Medium', sans-serif;
}
</style><rect x="0" y="0" width="1024px" height="400px" class="background" rx="8" /><rect x="0" y="0" width="1024px" height="400px" class="background" rx="8"></rect><path class="series" d="M 58 345 L 62 344 L 86 344 L 87 343 L 87 342 L 87 342 L 87 341 L 87 340 L 87 340 L 87 339 L 88 338 L 88 338 L 88 337 L 88 336 L 88 336 L 88 335 L 88 334 L 89 334 L 89 333 L 90 332 L 91 332 L 91 331 L 92 330 L 94 330 L 94 329 L 94 328 L 95 328 L 96 327 L 99 326 L 99 326 L 101 325 L 102 324 L 110 324 L 110 323 L 110 322 L 110 322 L 110 321 L 110 320 L 115 320 L 117 319 L 118 318 L 122 318 L 128 317 L 130 316 L 141 316 L 144 315 L 150 314 L 156 314 L 159 313 L 181 313 L 182 312 L 182 311 L 185 311 L 186 310 L 186 309 L 186 309 L 186 308 L 186 307 L 186 307 L 186 306 L 186 305 L 186 305 L 186 304 L 186 303 L 187 303 L 187 302 L 187 301 L 187 301 L 187 300 L 187 299 L 187 299 L 187 298 L 187 297 L 187 297 L 187 296 L 187 295 L 187 295 L 187 294 L 187 293 L 187 293 L 187 292 L 187 291 L 188 291 L 188 290 L 188 289 L 188 289 L 188 288 L 188 287 L 188 287 L 188 286 L 188 285 L 188 285 L 188 284 L 188 283 L 188 283 L 188 282 L 188 281 L 188 281 L 188 280 L 188 280 L 189 279 L 189 278 L 189 278 L 189 277 L 190 276 L 190 276 L 191 275 L 191 274 L 191 274 L 191 273 L 191 272 L 191 272 L 191 271 L 191 270 L 191 270 L 191 269 L 191 268 L 191 268 L 191 267 L 191 266 L 191 266 L 192 265 L 192 264 L 192 264 L 194 263 L 194 262 L 194 262 L 194 261 L 199 260 L 200 260 L 200 259 L 202 258 L 202 258 L 205 257 L 209 256 L 210 256 L 213 255 L 215 254 L 217 254 L 218 253 L 218 252 L 222 252 L 222 251 L 224 250 L 225 250 L 226 249 L 228 248 L 228 248 L 228 247 L 229 247 L 230 246 L 232 245 L 232 245 L 233 244 L 234 243 L 234 243 L 235 242 L 238 241 L 240 241 L 243 240 L 244 239 L 246 239 L 247 238 L 247 237 L 247 237 L 250 236 L 260 235 L 260 235 L 262 234 L 271 233 L 271 233 L 271 232 L 271 231 L 272 231 L 273 230 L 276 229 L 278 229 L 278 228 L 289 227 L 291 227 L 294 226 L 297 225 L 300 225 L 300 224 L 301 223 L 309 223 L 318 222 L 328 221 L 329 221 L 329 220 L 329 219 L 330 219 L 332 218 L 345 217 L 351 217 L 352 216 L 357 215 L 358 215 L 359 214 L 373 214 L 373 213 L 375 212 L 375 212 L 377 211 L 381 210 L 383 210 L 386 209 L 388 208 L 391 208 L 399 207 L 400 206 L 401 206 L 402 205 L 402 204 L 402 204 L 407 203 L 415 202 L 434 202 L 441 201 L 444 200 L 445 200 L 447 199 L 449 198 L 449 198 L 449 197 L 449 196 L 449 196 L 449 195 L 449 194 L 449 194 L 450 193 L 450 192 L 450 192 L 450 191 L 450 190 L 450 190 L 451 189 L 452 188 L 454 188 L 454 187 L 455 186 L 455 186 L 455 185 L 457 184 L 457 184 L 457 183 L 457 182 L 457 182 L 457 181 L 457 181 L 459 180 L 460 179 L 461 179 L 461 178 L 461 177 L 461 177 L 461 176 L 463 175 L 463 175 L 463 174 L 463 173 L 464 173 L 465 172 L 465 171 L 467 171 L 468 170 L 469 169 L 472 169 L 475 168 L 475 167 L 476 167 L 477 166 L 477 165 L 477 165 L 477 164 L 480 163 L 480 163 L 483 162 L 483 161 L 484 161 L 487 160 L 489 159 L 490 159 L 493 158 L 494 157 L 495 157 L 496 156 L 496 155 L 503 155 L 505 154 L 505 153 L 510 153 L 513 152 L 519 151 L 520 151 L 521 150 L 522 149 L 523 149 L 523 148 L 527 148 L 530 147 L 533 146 L 533 146 L 535 145 L 537 144 L 537 144 L 537 143 L 537 142 L 538 142 L 539 141 L 539 140 L 541 140 L 541 139 L 541 138 L 542 138 L 549 137 L 557 136 L 557 136 L 557 135 L 562 134 L 565 134 L 566 133 L 567 132 L 569 132 L 570 131 L 570 130 L 570 130 L 570 129 L 571 128 L 571 128 L 571 127 L 572 126 L 572 126 L 573 125 L 577 124 L 577 124 L 577 123 L 577 122 L 577 122 L 578 121 L 578 120 L 578 120 L 578 119 L 578 118 L 578 118 L 578 117 L 579 116 L 585 116 L 589 115 L 589 115 L 590 114 L 597 113 L 606 113 L 608 112 L 613 111 L 617 111 L 627 110 L 630 109 L 633 109 L 634 108 L 634 107 L 634 107 L 634 106 L 634 105 L 634 105 L 634 104 L 636 103 L 638 103 L 650 102 L 654 101 L 658 101 L 668 100 L 675 99 L 680 99 L 684 98 L 691 97 L 691 97 L 705 96 L 720 95 L 720 95 L 730 94 L 730 93 L 738 93 L 740 92 L 744 91 L 744 91 L 745 90 L 746 89 L 750 89 L 752 88 L 756 87 L 762 87 L 763 86 L 764 85 L 765 85 L 770 84 L 776 83 L 776 83 L 782 82 L 788 82 L 789 81 L 790 80 L 792 80 L 794 79 L 795 78 L 800 78 L 804 77 L 808 76 L 812 76 L 812 75 L 820 74 L 821 74 L 825 73 L 832 72 L 832 72 L 840 71 L 841 70 L 841 70 L 843 69 L 844 68 L 848 68 L 848 67 L 851 66 L 856 66 L 857 65 L 857 64 L 858 64 L 870 63 L 870 62 L 871 62 L 871 61 L 872 60 L 873 60 L 873 59 L 874 58 L 875 58 L 878 57 L 878 56 L 880 56 L 881 55 L 882 54 L 883 54 L 884 53 L 884 52 L 885 52 L 886 51 L 886 50 L 887 50 L 887 49 L 887 49 L 888 48 L 889 47 L 892 47 L 892 46 L 892 45 L 894 45 L 894 44 L 896 43 L 898 43 L 898 42 L 899 41 L 901 41 L 903 40 L 904 39 L 904 39 L 905 38 L 908 37 L 908 37 L 908 36 L 909 35 L 909 35 L 910 34 L 910 33 L 911 33 L 911 32 L 913 31 L 918 31 L 920 30 L 922 29 L 922 29 L 926 28 L 928 27 L 929 27 L 932 26 L 936 25 L 940 25 L 944 24 L 945 23 L 945 23 L 945 22 L 945 21" stroke-width="2" /><path stroke-width="2" class="series" d="M 58 345 L 62 344 L 86 344 L 87 343 L 87 342 L 87 342 L 87 341 L 87 340 L 87 340 L 87 339 L 88 338 L 88 338 L 88 337 L 88 336 L 88 336 L 88 335 L 88 334 L 89 334 L 89 333 L 90 332 L 91 332 L 91 331 L 92 330 L 94 330 L 94 329 L 94 328 L 95 328 L 96 327 L 99 326 L 99 326 L 101 325 L 102 324 L 110 324 L 110 323 L 110 322 L 110 322 L 110 321 L 110 320 L 115 320 L 117 319 L 118 318 L 122 318 L 128 317 L 130 316 L 141 316 L 144 315 L 150 314 L 156 314 L 159 313 L 181 313 L 182 312 L 182 311 L 185 311 L 186 310 L 186 309 L 186 309 L 186 308 L 186 307 L 186 307 L 186 306 L 186 305 L 186 305 L 186 304 L 186 303 L 187 303 L 187 302 L 187 301 L 187 301 L 187 300 L 187 299 L 187 299 L 187 298 L 187 297 L 187 297 L 187 296 L 187 295 L 187 295 L 187 294 L 187 293 L 187 293 L 187 292 L 187 291 L 188 291 L 188 290 L 188 289 L 188 289 L 188 288 L 188 287 L 188 287 L 188 286 L 188 285 L 188 285 L 188 284 L 188 283 L 188 283 L 188 282 L 188 281 L 188 281 L 188 280 L 188 280 L 189 279 L 189 278 L 189 278 L 189 277 L 190 276 L 190 276 L 191 275 L 191 274 L 191 274 L 191 273 L 191 272 L 191 272 L 191 271 L 191 270 L 191 270 L 191 269 L 191 268 L 191 268 L 191 267 L 191 266 L 191 266 L 192 265 L 192 264 L 192 264 L 194 263 L 194 262 L 194 262 L 194 261 L 199 260 L 200 260 L 200 259 L 202 258 L 202 258 L 205 257 L 209 256 L 210 256 L 213 255 L 215 254 L 217 254 L 218 253 L 218 252 L 222 252 L 222 251 L 224 250 L 225 250 L 226 249 L 228 248 L 228 248 L 228 247 L 229 247 L 230 246 L 232 245 L 232 245 L 233 244 L 234 243 L 234 243 L 235 242 L 238 241 L 240 241 L 243 240 L 244 239 L 246 239 L 247 238 L 247 237 L 247 237 L 250 236 L 260 235 L 260 235 L 262 234 L 271 233 L 271 233 L 271 232 L 271 231 L 272 231 L 273 230 L 276 229 L 278 229 L 278 228 L 289 227 L 291 227 L 294 226 L 297 225 L 300 225 L 300 224 L 301 223 L 309 223 L 318 222 L 328 221 L 329 221 L 329 220 L 329 219 L 330 219 L 332 218 L 345 217 L 351 217 L 352 216 L 357 215 L 358 215 L 359 214 L 373 214 L 373 213 L 375 212 L 375 212 L 377 211 L 381 210 L 383 210 L 386 209 L 388 208 L 391 208 L 399 207 L 400 206 L 401 206 L 402 205 L 402 204 L 402 204 L 407 203 L 415 202 L 434 202 L 441 201 L 444 200 L 445 200 L 447 199 L 449 198 L 449 198 L 449 197 L 449 196 L 449 196 L 449 195 L 449 194 L 449 194 L 450 193 L 450 192 L 450 192 L 450 191 L 450 190 L 450 190 L 451 189 L 452 188 L 454 188 L 454 187 L 455 186 L 455 186 L 455 185 L 457 184 L 457 184 L 457 183 L 457 182 L 457 182 L 457 181 L 457 181 L 459 180 L 460 179 L 461 179 L 461 178 L 461 177 L 461 177 L 461 176 L 463 175 L 463 175 L 463 174 L 463 173 L 464 173 L 465 172 L 465 171 L 467 171 L 468 170 L 469 169 L 472 169 L 475 168 L 475 167 L 476 167 L 477 166 L 477 165 L 477 165 L 477 164 L 480 163 L 480 163 L 483 162 L 483 161 L 484 161 L 487 160 L 489 159 L 490 159 L 493 158 L 494 157 L 495 157 L 496 156 L 496 155 L 503 155 L 505 154 L 505 153 L 510 153 L 513 152 L 519 151 L 520 151 L 521 150 L 522 149 L 523 149 L 523 148 L 527 148 L 530 147 L 533 146 L 533 146 L 535 145 L 537 144 L 537 144 L 537 143 L 537 142 L 538 142 L 539 141 L 539 140 L 541 140 L 541 139 L 541 138 L 542 138 L 549 137 L 557 136 L 557 136 L 557 135 L 562 134 L 565 134 L 566 133 L 567 132 L 569 132 L 570 131 L 570 130 L 570 130 L 570 129 L 571 128 L 571 128 L 571 127 L 572 126 L 572 126 L 573 125 L 577 124 L 577 124 L 577 123 L 577 122 L 577 122 L 578 121 L 578 120 L 578 120 L 578 119 L 578 118 L 578 118 L 578 117 L 579 116 L 585 116 L 589 115 L 589 115 L 590 114 L 597 113 L 606 113 L 608 112 L 613 111 L 617 111 L 627 110 L 630 109 L 633 109 L 634 108 L 634 107 L 634 107 L 634 106 L 634 105 L 634 105 L 634 104 L 636 103 L 638 103 L 650 102 L 654 101 L 658 101 L 668 100 L 675 99 L 680 99 L 684 98 L 691 97 L 691 97 L 705 96 L 720 95 L 720 95 L 730 94 L 730 93 L 738 93 L 740 92 L 744 91 L 744 91 L 745 90 L 746 89 L 750 89 L 752 88 L 756 87 L 762 87 L 763 86 L 764 85 L 765 85 L 770 84 L 776 83 L 776 83 L 782 82 L 788 82 L 789 81 L 790 80 L 792 80 L 794 79 L 795 78 L 800 78 L 804 77 L 808 76 L 812 76 L 812 75 L 820 74 L 821 74 L 825 73 L 832 72 L 832 72 L 840 71 L 841 70 L 841 70 L 843 69 L 844 68 L 848 68 L 848 67 L 851 66 L 856 66 L 857 65 L 857 64 L 858 64 L 870 63 L 870 62 L 871 62 L 871 61 L 872 60 L 873 60 L 873 59 L 874 58 L 875 58 L 878 57 L 878 56 L 880 56 L 881 55 L 882 54 L 883 54 L 884 53 L 884 52 L 885 52 L 886 51 L 886 50 L 887 50 L 887 49 L 887 49 L 888 48 L 889 47 L 892 47 L 892 46 L 892 45 L 894 45 L 894 44 L 896 43 L 898 43 L 898 42 L 899 41 L 901 41 L 903 40 L 904 39 L 904 39 L 905 38 L 908 37 L 908 37 L 908 36 L 909 35 L 909 35 L 910 34 L 910 33 L 911 33 L 911 32 L 913 31 L 918 31 L 920 30 L 922 29 L 922 29 L 926 28 L 928 27 L 929 27 L 932 26 L 936 25 L 940 25 L 944 24 L 945 23 L 945 23 L 945 22 L 945 21"></path><path stroke-width="2" d="M 945 346 L 945.000000 15.000000" /><path stroke-width="2" d="M 945 346 L 945.000000 15.000000"></path><path d="M 945 346 L 950 346" stroke-width="2" /><path stroke-width="2" d="M 945 346 L 950 346"></path><text xmlns="http://www.w3.org/2000/svg" x="955" y="352">0</text><path stroke-width="2" d="M 945 309 L 950 309" /><path stroke-width="2" d="M 945 309 L 950 309"></path><text xmlns="http://www.w3.org/2000/svg" x="955" y="315">56</text><path stroke-width="2" d="M 945 272 L 950 272" /><path stroke-width="2" d="M 945 272 L 950 272"></path><text xmlns="http://www.w3.org/2000/svg" x="955" y="278">112</text><path stroke-width="2" d="M 945 235 L 950 235" /><path stroke-width="2" d="M 945 235 L 950 235"></path><text xmlns="http://www.w3.org/2000/svg" x="955" y="241">167</text><path stroke-width="2" d="M 945 198 L 950 198" /><path stroke-width="2" d="M 945 198 L 950 198"></path><text xmlns="http://www.w3.org/2000/svg" x="955" y="204">223</text><path stroke-width="2" d="M 945 162 L 950 162" /><path stroke-width="2" d="M 945 162 L 950 162"></path><text xmlns="http://www.w3.org/2000/svg" x="955" y="168">278</text><path stroke-width="2" d="M 945 125 L 950 125" /><path stroke-width="2" d="M 945 125 L 950 125"></path><text xmlns="http://www.w3.org/2000/svg" x="955" y="131">334</text><path stroke-width="2" d="M 945 89 L 950 89" /><path stroke-width="2" d="M 945 89 L 950 89"></path><text xmlns="http://www.w3.org/2000/svg" x="955" y="95">389</text><path stroke-width="2" d="M 945 52 L 950 52" /><path stroke-width="2" d="M 945 52 L 950 52"></path><text xmlns="http://www.w3.org/2000/svg" x="955" y="58">445</text><path stroke-width="2" d="M 945 16 L 950 16" /><path stroke-width="2" d="M 945 16 L 950 16"></path><text y="22" xmlns="http://www.w3.org/2000/svg" x="955">500</text><text x="987" y="175" transform="rotate(90.00,987,175)" xmlns="http://www.w3.org/2000/svg">Stargazers</text><path stroke-width="2" d="M 57.000000 346.000000 L 945 346" /><path stroke-width="2" d="M 57.000000 346.000000 L 945 346"></path><path d="M 58 346 L 58 351" stroke-width="2" /><path stroke-width="2" d="M 58 346 L 58 351"></path><text y="368" xmlns="http://www.w3.org/2000/svg" x="25">2023-04-02</text><path stroke-width="2" d="M 157 346 L 157 351" /><path stroke-width="2" d="M 157 346 L 157 351"></path><text xmlns="http://www.w3.org/2000/svg" x="124" y="368">2023-05-21</text><path stroke-width="2" d="M 256 346 L 256 351" /><path stroke-width="2" d="M 256 346 L 256 351"></path><text xmlns="http://www.w3.org/2000/svg" x="223" y="368">2023-07-10</text><path stroke-width="2" d="M 354 346 L 354 351" /><path stroke-width="2" d="M 354 346 L 354 351"></path><text y="368" xmlns="http://www.w3.org/2000/svg" x="321">2023-08-28</text><path stroke-width="2" d="M 453 346 L 453 351" /><path stroke-width="2" d="M 453 346 L 453 351"></path><text xmlns="http://www.w3.org/2000/svg" x="420" y="368">2023-10-17</text><path stroke-width="2" d="M 551 346 L 551 351" /><path stroke-width="2" d="M 551 346 L 551 351"></path><text xmlns="http://www.w3.org/2000/svg" x="518" y="368">2023-12-05</text><path stroke-width="2" d="M 650 346 L 650 351" /><path stroke-width="2" d="M 650 346 L 650 351"></path><text x="617" y="368" xmlns="http://www.w3.org/2000/svg">2024-01-24</text><path stroke-width="2" d="M 748 346 L 748 351" /><path stroke-width="2" d="M 748 346 L 748 351"></path><text xmlns="http://www.w3.org/2000/svg" x="715" y="368">2024-03-13</text><path stroke-width="2" d="M 847 346 L 847 351" /><path stroke-width="2" d="M 847 346 L 847 351"></path><text xmlns="http://www.w3.org/2000/svg" x="814" y="368">2024-05-02</text><path stroke-width="2" d="M 945 346 L 945 351" /><path stroke-width="2" d="M 945 346 L 945 351"></path><text xmlns="http://www.w3.org/2000/svg" x="912" y="368">2024-06-20</text><text xmlns="http://www.w3.org/2000/svg" x="487" y="390">Time</text></svg>