<svg xmlns="http://www.w3.org/2000/svg" xmlns:xlink="http://www.w3.org/1999/xlink" width="1024" height="400">\n<path  d="M 0 0
L 1024 0
L 1024 400
L 0 400
L 0 0" style="stroke-width:0;stroke:rgba(255,255,255,1.0);fill:rgba(255,255,255,1.0)"/><path  d="M 38 11
L 965 11
L 965 351
L 38 351
L 38 11" style="stroke-width:0;stroke:rgba(255,255,255,1.0);fill:rgba(255,255,255,1.0)"/><path  d="M 38 351
L 965 351" style="stroke-width:2;stroke:rgba(85,85,85,1.0);fill:none"/><path  d="M 38 351
L 38 356" style="stroke-width:2;stroke:rgba(85,85,85,1.0);fill:none"/><text x="5" y="373" style="stroke-width:0;stroke:none;fill:rgba(51,51,51,1.0);font-size:12.8px;font-family:'Roboto Medium',sans-serif">2023-04-02</text><path  d="M 154 351
L 154 356" style="stroke-width:2;stroke:rgba(85,85,85,1.0);fill:none"/><text x="121" y="373" style="stroke-width:0;stroke:none;fill:rgba(51,51,51,1.0);font-size:12.8px;font-family:'Roboto Medium',sans-serif">2023-05-04</text><path  d="M 270 351
L 270 356" style="stroke-width:2;stroke:rgba(85,85,85,1.0);fill:none"/><text x="237" y="373" style="stroke-width:0;stroke:none;fill:rgba(51,51,51,1.0);font-size:12.8px;font-family:'Roboto Medium',sans-serif">2023-06-06</text><path  d="M 386 351
L 386 356" style="stroke-width:2;stroke:rgba(85,85,85,1.0);fill:none"/><text x="353" y="373" style="stroke-width:0;stroke:none;fill:rgba(51,51,51,1.0);font-size:12.8px;font-family:'Roboto Medium',sans-serif">2023-07-09</text><path  d="M 502 351
L 502 356" style="stroke-width:2;stroke:rgba(85,85,85,1.0);fill:none"/><text x="469" y="373" style="stroke-width:0;stroke:none;fill:rgba(51,51,51,1.0);font-size:12.8px;font-family:'Roboto Medium',sans-serif">2023-08-10</text><path  d="M 618 351
L 618 356" style="stroke-width:2;stroke:rgba(85,85,85,1.0);fill:none"/><text x="585" y="373" style="stroke-width:0;stroke:none;fill:rgba(51,51,51,1.0);font-size:12.8px;font-family:'Roboto Medium',sans-serif">2023-09-12</text><path  d="M 734 351
L 734 356" style="stroke-width:2;stroke:rgba(85,85,85,1.0);fill:none"/><text x="701" y="373" style="stroke-width:0;stroke:none;fill:rgba(51,51,51,1.0);font-size:12.8px;font-family:'Roboto Medium',sans-serif">2023-10-14</text><path  d="M 850 351
L 850 356" style="stroke-width:2;stroke:rgba(85,85,85,1.0);fill:none"/><text x="817" y="373" style="stroke-width:0;stroke:none;fill:rgba(51,51,51,1.0);font-size:12.8px;font-family:'Roboto Medium',sans-serif">2023-11-16</text><path  d="M 965 351
L 965 356" style="stroke-width:2;stroke:rgba(85,85,85,1.0);fill:none"/><text x="932" y="373" style="stroke-width:0;stroke:none;fill:rgba(51,51,51,1.0);font-size:12.8px;font-family:'Roboto Medium',sans-serif">2023-12-19</text><text x="487" y="395" style="stroke-width:0;stroke:none;fill:rgba(51,51,51,1.0);font-size:12.8px;font-family:'Roboto Medium',sans-serif">Time</text><path  d="M 967 351
L 967 11" style="stroke-width:2;stroke:rgba(85,85,85,1.0);fill:none"/><path  d="M 967 351
L 972 351" style="stroke-width:2;stroke:rgba(85,85,85,1.0);fill:none"/><text x="977" y="357" style="stroke-width:0;stroke:none;fill:rgba(51,51,51,1.0);font-size:12.8px;font-family:'Roboto Medium',sans-serif">0</text><path  d="M 967 308
L 972 308" style="stroke-width:2;stroke:rgba(85,85,85,1.0);fill:none"/><text x="977" y="314" style="stroke-width:0;stroke:none;fill:rgba(51,51,51,1.0);font-size:12.8px;font-family:'Roboto Medium',sans-serif">44</text><path  d="M 967 265
L 972 265" style="stroke-width:2;stroke:rgba(85,85,85,1.0);fill:none"/><text x="977" y="271" style="stroke-width:0;stroke:none;fill:rgba(51,51,51,1.0);font-size:12.8px;font-family:'Roboto Medium',sans-serif">88</text><path  d="M 967 222
L 972 222" style="stroke-width:2;stroke:rgba(85,85,85,1.0);fill:none"/><text x="977" y="228" style="stroke-width:0;stroke:none;fill:rgba(51,51,51,1.0);font-size:12.8px;font-family:'Roboto Medium',sans-serif">132</text><path  d="M 967 181
L 972 181" style="stroke-width:2;stroke:rgba(85,85,85,1.0);fill:none"/><text x="977" y="187" style="stroke-width:0;stroke:none;fill:rgba(51,51,51,1.0);font-size:12.8px;font-family:'Roboto Medium',sans-serif">175</text><path  d="M 967 138
L 972 138" style="stroke-width:2;stroke:rgba(85,85,85,1.0);fill:none"/><text x="977" y="144" style="stroke-width:0;stroke:none;fill:rgba(51,51,51,1.0);font-size:12.8px;font-family:'Roboto Medium',sans-serif">219</text><path  d="M 967 95
L 972 95" style="stroke-width:2;stroke:rgba(85,85,85,1.0);fill:none"/><text x="977" y="101" style="stroke-width:0;stroke:none;fill:rgba(51,51,51,1.0);font-size:12.8px;font-family:'Roboto Medium',sans-serif">263</text><path  d="M 967 52
L 972 52" style="stroke-width:2;stroke:rgba(85,85,85,1.0);fill:none"/><text x="977" y="58" style="stroke-width:0;stroke:none;fill:rgba(51,51,51,1.0);font-size:12.8px;font-family:'Roboto Medium',sans-serif">307</text><path  d="M 967 11
L 972 11" style="stroke-width:2;stroke:rgba(85,85,85,1.0);fill:none"/><text x="977" y="17" style="stroke-width:0;stroke:none;fill:rgba(51,51,51,1.0);font-size:12.8px;font-family:'Roboto Medium',sans-serif">350</text><text x="1009" y="150" style="stroke-width:0;stroke:none;fill:rgba(51,51,51,1.0);font-size:12.8px;font-family:'Roboto Medium',sans-serif" transform="rotate(90.00,1009,150)">Stargazers</text><path  d="M 38 351
L 45 350
L 88 349
L 89 348
L 89 347
L 89 346
L 89 345
L 89 344
L 89 343
L 89 342
L 90 341
L 90 340
L 91 339
L 91 338
L 91 337
L 91 336
L 91 335
L 91 334
L 92 333
L 92 332
L 94 331
L 96 330
L 96 329
L 99 328
L 101 327
L 101 326
L 101 325
L 103 324
L 105 323
L 110 322
L 111 321
L 114 320
L 117 319
L 130 318
L 130 317
L 130 317
L 131 316
L 131 315
L 131 314
L 131 313
L 139 312
L 142 311
L 145 310
L 151 309
L 162 308
L 166 307
L 185 306
L 191 305
L 202 304
L 212 303
L 217 302
L 257 301
L 259 300
L 260 299
L 265 298
L 266 297
L 266 296
L 266 295
L 266 294
L 266 293
L 266 292
L 266 291
L 266 290
L 267 289
L 267 288
L 267 287
L 268 286
L 268 285
L 268 284
L 268 283
L 268 283
L 268 282
L 268 281
L 268 280
L 268 279
L 269 278
L 269 277
L 269 276
L 269 275
L 269 274
L 269 273
L 269 272
L 269 271
L 269 270
L 269 269
L 269 268
L 269 267
L 269 266
L 269 265
L 269 264
L 269 263
L 269 262
L 269 261
L 269 260
L 269 259
L 269 258
L 269 257
L 270 256
L 270 255
L 270 254
L 270 253
L 270 252
L 271 251
L 272 250
L 272 249
L 272 249
L 273 248
L 273 247
L 275 246
L 275 245
L 276 244
L 276 243
L 276 242
L 276 241
L 276 240
L 276 239
L 276 238
L 276 237
L 276 236
L 276 235
L 276 234
L 276 233
L 276 232
L 276 231
L 276 230
L 277 229
L 280 228
L 280 227
L 280 226
L 280 225
L 290 224
L 291 223
L 291 222
L 294 221
L 294 220
L 301 219
L 307 218
L 309 217
L 315 216
L 317 215
L 322 215
L 323 214
L 324 213
L 330 212
L 331 211
L 333 210
L 336 209
L 338 208
L 340 207
L 341 206
L 341 205
L 342 204
L 345 203
L 349 202
L 349 201
L 350 200
L 351 199
L 351 198
L 354 197
L 359 196
L 362 195
L 368 194
L 370 193
L 372 192
L 375 191
L 375 190
L 376 189
L 380 188
L 397 187
L 398 186
L 401 185
L 417 184
L 418 183
L 418 182
L 418 181
L 419 181
L 421 180
L 426 179
L 429 178
L 430 177
L 450 176
L 454 175
L 459 174
L 465 173
L 469 172
L 469 171
L 472 170
L 486 169
L 501 168
L 519 167
L 521 166
L 521 165
L 522 164
L 522 163
L 526 162
L 550 161
L 561 160
L 562 159
L 571 158
L 573 157
L 574 156
L 601 155
L 601 154
L 603 153
L 604 152
L 607 151
L 614 150
L 617 149
L 623 148
L 626 147
L 632 147
L 647 146
L 648 145
L 650 144
L 651 143
L 651 142
L 652 141
L 660 140
L 660 139
L 675 138
L 697 137
L 708 136
L 720 135
L 721 134
L 727 133
L 728 132
L 732 131
L 736 130
L 736 129
L 736 128
L 736 127
L 736 126
L 736 125
L 736 124
L 736 123
L 736 122
L 736 121
L 737 120
L 737 119
L 737 118
L 738 117
L 739 116
L 741 115
L 744 114
L 745 113
L 746 113
L 746 112
L 746 111
L 750 110
L 750 109
L 750 108
L 750 107
L 750 106
L 750 105
L 751 104
L 753 103
L 754 102
L 755 101
L 756 100
L 757 99
L 757 98
L 757 97
L 757 96
L 760 95
L 760 94
L 760 93
L 761 92
L 763 91
L 764 90
L 765 89
L 767 88
L 770 87
L 772 86
L 776 85
L 782 84
L 782 83
L 784 82
L 785 81
L 785 80
L 785 79
L 785 79
L 790 78
L 791 77
L 796 76
L 797 75
L 799 74
L 803 73
L 808 72
L 808 71
L 815 70
L 816 69
L 817 68
L 820 67
L 820 66
L 832 65
L 835 64
L 836 63
L 845 62
L 850 61
L 860 60
L 862 59
L 863 58
L 866 57
L 867 56
L 867 55
L 875 54
L 881 53
L 885 52
L 886 51
L 889 50
L 893 49
L 893 48
L 893 47
L 893 46
L 895 45
L 895 45
L 896 44
L 899 43
L 899 42
L 899 41
L 902 40
L 914 39
L 928 38
L 928 37
L 928 36
L 937 35
L 942 34
L 944 33
L 945 32
L 949 31
L 952 30
L 952 29
L 952 28
L 952 27
L 952 26
L 953 25
L 953 24
L 955 23
L 955 22
L 957 21
L 963 20
L 964 19
L 964 18
L 964 17
L 965 16
L 965 15
L 965 14" style="stroke-width:2;stroke:rgba(129,199,239,1.0);fill:none"/></svg>