<svg xmlns="http://www.w3.org/2000/svg" xmlns:xlink="http://www.w3.org/1999/xlink" width="1024px" height="400px"><style type="text/css">
path { fill: none; stroke: rgb(51,51,51); }
path.series { stroke: #6b63ff; }
rect.background { fill: rgb(255,255,255); stroke: none; }

text {
	stroke-width: 0;
	stroke: none;
	fill: rgba(51,51,51,1.0);
	font-size: 12.8px;
	font-family: 'Roboto Medium', sans-serif;
}
</style><rect x="0" y="0" width="1024px" height="400px" class="background" rx="8" /><rect x="0" y="0" width="1024px" height="400px" class="background" rx="8"></rect><path d="M 58 345 L 60 345 L 71 345 L 72 344 L 72 344 L 72 344 L 72 344 L 72 343 L 72 343 L 72 343 L 72 342 L 72 342 L 72 342 L 72 342 L 72 341 L 72 341 L 72 341 L 72 341 L 72 340 L 73 340 L 73 340 L 73 339 L 74 339 L 75 339 L 75 339 L 75 338 L 75 338 L 76 338 L 77 338 L 77 337 L 78 337 L 79 337 L 82 336 L 82 336 L 82 336 L 82 336 L 82 335 L 84 335 L 85 335 L 86 335 L 88 334 L 90 334 L 92 334 L 96 333 L 98 333 L 101 333 L 104 333 L 105 332 L 116 332 L 116 332 L 117 331 L 118 331 L 118 331 L 118 331 L 118 330 L 118 330 L 118 330 L 118 330 L 118 329 L 118 329 L 118 329 L 118 328 L 118 328 L 118 328 L 118 328 L 118 327 L 118 327 L 118 327 L 118 327 L 118 326 L 118 326 L 118 326 L 118 325 L 118 325 L 118 325 L 118 325 L 118 324 L 118 324 L 118 324 L 118 324 L 118 323 L 118 323 L 118 323 L 118 322 L 118 322 L 118 322 L 118 322 L 118 321 L 118 321 L 118 321 L 118 320 L 118 320 L 118 320 L 118 320 L 118 319 L 118 319 L 119 319 L 119 319 L 119 318 L 119 318 L 119 318 L 119 317 L 119 317 L 119 317 L 120 317 L 120 316 L 120 316 L 120 316 L 120 316 L 120 315 L 120 315 L 120 315 L 120 314 L 120 314 L 120 314 L 120 314 L 120 313 L 120 313 L 120 313 L 120 313 L 120 312 L 120 312 L 121 312 L 121 311 L 121 311 L 121 311 L 124 311 L 124 310 L 124 310 L 125 310 L 125 309 L 126 309 L 128 309 L 129 309 L 130 308 L 131 308 L 132 308 L 132 308 L 132 307 L 134 307 L 134 307 L 135 306 L 136 306 L 136 306 L 137 306 L 137 305 L 137 305 L 137 305 L 138 305 L 139 304 L 139 304 L 139 304 L 140 303 L 140 303 L 140 303 L 141 303 L 142 302 L 144 302 L 144 302 L 145 302 L 146 301 L 146 301 L 146 301 L 147 300 L 151 300 L 152 300 L 152 300 L 157 299 L 157 299 L 157 299 L 157 298 L 157 298 L 158 298 L 159 298 L 160 297 L 160 297 L 165 297 L 166 297 L 167 296 L 169 296 L 170 296 L 170 295 L 171 295 L 174 295 L 178 295 L 183 294 L 183 294 L 183 294 L 184 294 L 184 293 L 191 293 L 194 293 L 194 292 L 196 292 L 197 292 L 197 292 L 204 291 L 204 291 L 205 291 L 205 291 L 206 290 L 208 290 L 210 290 L 211 289 L 212 289 L 216 289 L 216 289 L 217 288 L 217 288 L 217 288 L 218 287 L 220 287 L 223 287 L 232 287 L 235 286 L 237 286 L 237 286 L 239 286 L 239 285 L 239 285 L 239 285 L 239 284 L 239 284 L 239 284 L 239 284 L 239 283 L 239 283 L 239 283 L 239 283 L 239 282 L 240 282 L 240 282 L 242 281 L 242 281 L 242 281 L 242 281 L 243 280 L 243 280 L 243 280 L 243 280 L 243 279 L 243 279 L 243 279 L 244 278 L 244 278 L 244 278 L 245 278 L 245 277 L 245 277 L 245 277 L 245 276 L 246 276 L 246 276 L 246 276 L 246 275 L 247 275 L 247 275 L 248 275 L 248 274 L 250 274 L 251 274 L 251 273 L 252 273 L 252 273 L 252 273 L 252 272 L 252 272 L 253 272 L 254 272 L 255 271 L 255 271 L 255 271 L 257 270 L 258 270 L 258 270 L 260 270 L 260 269 L 260 269 L 261 269 L 261 269 L 264 268 L 265 268 L 265 268 L 267 267 L 269 267 L 271 267 L 272 267 L 272 266 L 273 266 L 273 266 L 273 265 L 275 265 L 277 265 L 278 265 L 278 264 L 280 264 L 280 264 L 280 264 L 280 263 L 280 263 L 280 263 L 281 262 L 281 262 L 281 262 L 281 262 L 282 261 L 285 261 L 289 261 L 289 261 L 289 260 L 291 260 L 293 260 L 293 259 L 293 259 L 294 259 L 295 259 L 295 258 L 295 258 L 295 258 L 295 258 L 295 257 L 295 257 L 296 257 L 296 256 L 296 256 L 298 256 L 298 256 L 298 255 L 298 255 L 298 255 L 299 254 L 299 254 L 299 254 L 299 254 L 299 253 L 299 253 L 299 253 L 299 253 L 302 252 L 304 252 L 304 252 L 304 251 L 312 251 L 313 251 L 315 251 L 317 250 L 323 250 L 324 250 L 324 250 L 324 249 L 325 249 L 325 249 L 325 248 L 325 248 L 326 248 L 326 248 L 332 247 L 334 247 L 336 247 L 340 247 L 343 246 L 346 246 L 348 246 L 351 245 L 351 245 L 358 245 L 364 245 L 364 244 L 369 244 L 369 244 L 373 243 L 374 243 L 376 243 L 376 243 L 376 242 L 376 242 L 378 242 L 379 242 L 381 241 L 384 241 L 384 241 L 385 240 L 385 240 L 388 240 L 390 240 L 390 239 L 393 239 L 396 239 L 396 239 L 397 238 L 398 238 L 398 238 L 399 237 L 401 237 L 403 237 L 405 237 L 407 236 L 407 236 L 410 236 L 411 236 L 413 235 L 416 235 L 416 235 L 420 234 L 420 234 L 420 234 L 421 234 L 422 233 L 423 233 L 423 233 L 425 232 L 427 232 L 428 232 L 428 232 L 428 231 L 434 231 L 434 231 L 434 231 L 434 230 L 435 230 L 435 230 L 435 229 L 435 229 L 436 229 L 437 229 L 437 228 L 438 228 L 439 228 L 439 228 L 440 227 L 440 227 L 440 227 L 441 226 L 441 226 L 441 226 L 442 226 L 442 225 L 442 225 L 442 225 L 443 225 L 444 224 L 444 224 L 444 224 L 445 223 L 445 223 L 446 223 L 447 223 L 447 222 L 447 222 L 448 222 L 449 221 L 449 221 L 450 221 L 451 221 L 451 220 L 451 220 L 452 220 L 452 220 L 452 219 L 452 219 L 453 219 L 453 218 L 454 218 L 456 218 L 457 218 L 458 217 L 458 217 L 459 217 L 460 217 L 461 216 L 462 216 L 464 216 L 466 215 L 468 215 L 468 215 L 468 215 L 468 214 L 469 214 L 469 214 L 469 214 L 469 213 L 470 213 L 470 213 L 470 212 L 470 212 L 472 212 L 472 212 L 472 211 L 473 211 L 473 211 L 475 210 L 475 210 L 475 210 L 476 210 L 477 209 L 478 209 L 483 209 L 483 209 L 483 208 L 483 208 L 485 208 L 487 207 L 487 207 L 487 207 L 487 207 L 487 206 L 489 206 L 491 206 L 491 206 L 491 205 L 491 205 L 493 205 L 493 204 L 493 204 L 493 204 L 495 204 L 498 203 L 498 203 L 501 203 L 501 203 L 502 202 L 504 202 L 505 202 L 507 201 L 508 201 L 509 201 L 510 201 L 510 200 L 511 200 L 511 200 L 511 199 L 511 199 L 512 199 L 512 199 L 512 198 L 513 198 L 513 198 L 513 198 L 514 197 L 514 197 L 515 197 L 518 196 L 518 196 L 522 196 L 524 196 L 524 195 L 524 195 L 525 195 L 527 195 L 528 194 L 528 194 L 528 194 L 528 193 L 528 193 L 528 193 L 528 193 L 529 192 L 529 192 L 529 192 L 529 192 L 529 191 L 530 191 L 530 191 L 531 190 L 531 190 L 532 190 L 532 190 L 533 189 L 533 189 L 533 189 L 534 188 L 535 188 L 537 188 L 537 188 L 537 187 L 537 187 L 537 187 L 538 187 L 538 186 L 538 186 L 539 186 L 540 185 L 542 185 L 544 185 L 545 185 L 546 184 L 549 184 L 551 184 L 552 184 L 554 183 L 557 183 L 557 183 L 557 182 L 560 182 L 561 182 L 562 182 L 562 181 L 562 181 L 569 181 L 569 181 L 570 180 L 570 180 L 570 180 L 571 179 L 571 179 L 572 179 L 572 179 L 573 178 L 573 178 L 573 178 L 573 177 L 573 177 L 574 177 L 574 177 L 574 176 L 574 176 L 574 176 L 575 176 L 576 175 L 577 175 L 577 175 L 577 174 L 578 174 L 578 174 L 579 174 L 579 173 L 580 173 L 580 173 L 580 173 L 580 172 L 581 172 L 582 172 L 583 171 L 583 171 L 584 171 L 584 171 L 584 170 L 585 170 L 585 170 L 585 170 L 585 169 L 586 169 L 586 169 L 587 168 L 587 168 L 588 168 L 588 168 L 588 167 L 588 167 L 588 167 L 588 166 L 589 166 L 589 166 L 589 166 L 590 165 L 590 165 L 590 165 L 591 165 L 591 164 L 591 164 L 591 164 L 591 163 L 591 163 L 592 163 L 592 163 L 592 162 L 592 162 L 592 162 L 594 162 L 595 161 L 596 161 L 596 161 L 596 160 L 596 160 L 598 160 L 598 160 L 599 159 L 599 159 L 601 159 L 603 159 L 603 158 L 604 158 L 605 158 L 605 157 L 606 157 L 606 157 L 606 157 L 606 156 L 606 156 L 606 156 L 606 155 L 606 155 L 607 155 L 607 155 L 607 154 L 607 154 L 607 154 L 607 154 L 608 153 L 608 153 L 608 153 L 609 152 L 610 152 L 610 152 L 611 152 L 611 151 L 612 151 L 612 151 L 612 151 L 615 150 L 615 150 L 615 150 L 615 149 L 615 149 L 617 149 L 618 149 L 619 148 L 620 148 L 620 148 L 620 148 L 621 147 L 621 147 L 625 147 L 627 146 L 629 146 L 630 146 L 631 146 L 631 145 L 632 145 L 632 145 L 633 144 L 633 144 L 633 144 L 634 144 L 634 143 L 634 143 L 635 143 L 637 143 L 637 142 L 637 142 L 637 142 L 637 141 L 637 141 L 637 141 L 637 141 L 637 140 L 637 140 L 637 140 L 637 140 L 637 139 L 637 139 L 637 139 L 637 138 L 637 138 L 638 138 L 638 138 L 638 137 L 638 137 L 638 137 L 638 137 L 638 136 L 639 136 L 639 136 L 639 135 L 640 135 L 640 135 L 640 135 L 640 134 L 640 134 L 640 134 L 641 133 L 642 133 L 643 133 L 643 133 L 644 132 L 645 132 L 645 132 L 645 132 L 646 131 L 647 131 L 648 131 L 649 130 L 649 130 L 649 130 L 649 130 L 649 129 L 649 129 L 649 129 L 651 129 L 651 128 L 651 128 L 654 128 L 655 127 L 656 127 L 658 127 L 659 127 L 660 126 L 660 126 L 660 126 L 660 126 L 660 125 L 661 125 L 661 125 L 662 124 L 662 124 L 662 124 L 663 124 L 663 123 L 663 123 L 663 123 L 663 122 L 663 122 L 663 122 L 663 122 L 664 121 L 664 121 L 665 121 L 665 121 L 666 120 L 666 120 L 666 120 L 666 119 L 667 119 L 667 119 L 668 119 L 668 118 L 668 118 L 669 118 L 669 118 L 672 117 L 674 117 L 676 117 L 677 116 L 678 116 L 680 116 L 680 116 L 681 115 L 683 115 L 687 115 L 688 115 L 689 114 L 690 114 L 692 114 L 692 113 L 693 113 L 694 113 L 695 113 L 695 112 L 696 112 L 697 112 L 698 111 L 699 111 L 699 111 L 699 111 L 700 110 L 700 110 L 700 110 L 703 110 L 703 109 L 704 109 L 705 109 L 705 108 L 706 108 L 707 108 L 708 108 L 708 107 L 708 107 L 708 107 L 709 107 L 710 106 L 710 106 L 710 106 L 711 105 L 712 105 L 712 105 L 713 105 L 713 104 L 713 104 L 713 104 L 714 104 L 714 103 L 714 103 L 714 103 L 715 102 L 715 102 L 715 102 L 717 102 L 718 101 L 719 101 L 721 101 L 722 100 L 723 100 L 724 100 L 726 100 L 727 99 L 729 99 L 730 99 L 731 99 L 732 98 L 733 98 L 735 98 L 736 97 L 736 97 L 736 97 L 737 97 L 737 96 L 737 96 L 738 96 L 739 96 L 739 95 L 740 95 L 740 95 L 740 94 L 746 94 L 746 94 L 747 94 L 748 93 L 750 93 L 751 93 L 751 92 L 751 92 L 751 92 L 752 92 L 753 91 L 753 91 L 753 91 L 754 91 L 754 90 L 754 90 L 755 90 L 755 89 L 757 89 L 759 89 L 759 89 L 763 88 L 764 88 L 764 88 L 765 88 L 766 87 L 766 87 L 766 87 L 766 86 L 769 86 L 770 86 L 771 86 L 771 85 L 772 85 L 772 85 L 773 85 L 774 84 L 776 84 L 776 84 L 776 83 L 777 83 L 777 83 L 777 83 L 777 82 L 778 82 L 779 82 L 779 82 L 780 81 L 781 81 L 782 81 L 782 80 L 782 80 L 782 80 L 782 80 L 783 79 L 785 79 L 789 79 L 789 78 L 792 78 L 793 78 L 795 78 L 796 77 L 796 77 L 796 77 L 798 77 L 798 76 L 799 76 L 801 76 L 802 75 L 805 75 L 809 75 L 809 75 L 809 74 L 809 74 L 810 74 L 811 74 L 811 73 L 811 73 L 819 73 L 821 72 L 821 72 L 822 72 L 824 72 L 826 71 L 828 71 L 829 71 L 829 71 L 830 70 L 831 70 L 835 70 L 836 69 L 837 69 L 838 69 L 840 69 L 841 68 L 841 68 L 841 68 L 841 67 L 841 67 L 842 67 L 842 67 L 844 66 L 846 66 L 846 66 L 846 66 L 847 65 L 849 65 L 852 65 L 853 64 L 854 64 L 855 64 L 855 64 L 856 63 L 856 63 L 856 63 L 856 63 L 856 62 L 858 62 L 859 62 L 859 61 L 860 61 L 860 61 L 860 61 L 860 60 L 860 60 L 861 60 L 861 60 L 861 59 L 861 59 L 861 59 L 862 58 L 862 58 L 863 58 L 863 58 L 863 57 L 863 57 L 863 57 L 864 56 L 869 56 L 870 56 L 871 56 L 871 55 L 871 55 L 871 55 L 872 55 L 872 54 L 872 54 L 872 54 L 872 53 L 872 53 L 872 53 L 872 53 L 872 52 L 872 52 L 872 52 L 872 52 L 872 51 L 872 51 L 873 51 L 873 50 L 873 50 L 874 50 L 875 50 L 875 49 L 876 49 L 877 49 L 878 49 L 878 48 L 879 48 L 879 48 L 880 47 L 880 47 L 880 47 L 882 47 L 883 46 L 884 46 L 884 46 L 885 45 L 886 45 L 886 45 L 888 45 L 888 44 L 889 44 L 890 44 L 891 44 L 891 43 L 891 43 L 892 43 L 893 42 L 893 42 L 894 42 L 895 42 L 896 41 L 898 41 L 898 41 L 902 41 L 902 40 L 903 40 L 907 40 L 907 39 L 907 39 L 908 39 L 908 39 L 908 38 L 909 38 L 910 38 L 911 38 L 912 37 L 912 37 L 912 37 L 912 36 L 913 36 L 913 36 L 917 36 L 917 35 L 918 35 L 919 35 L 920 34 L 921 34 L 926 34 L 927 34 L 928 33 L 928 33 L 928 33 L 929 33 L 931 32 L 932 32 L 932 32 L 932 31 L 932 31 L 932 31 L 936 31 L 937 30" stroke-width="2" class="series" /><path stroke-width="2" class="series" d="M 58 345 L 60 345 L 71 345 L 72 344 L 72 344 L 72 344 L 72 344 L 72 343 L 72 343 L 72 343 L 72 342 L 72 342 L 72 342 L 72 342 L 72 341 L 72 341 L 72 341 L 72 341 L 72 340 L 73 340 L 73 340 L 73 339 L 74 339 L 75 339 L 75 339 L 75 338 L 75 338 L 76 338 L 77 338 L 77 337 L 78 337 L 79 337 L 82 336 L 82 336 L 82 336 L 82 336 L 82 335 L 84 335 L 85 335 L 86 335 L 88 334 L 90 334 L 92 334 L 96 333 L 98 333 L 101 333 L 104 333 L 105 332 L 116 332 L 116 332 L 117 331 L 118 331 L 118 331 L 118 331 L 118 330 L 118 330 L 118 330 L 118 330 L 118 329 L 118 329 L 118 329 L 118 328 L 118 328 L 118 328 L 118 328 L 118 327 L 118 327 L 118 327 L 118 327 L 118 326 L 118 326 L 118 326 L 118 325 L 118 325 L 118 325 L 118 325 L 118 324 L 118 324 L 118 324 L 118 324 L 118 323 L 118 323 L 118 323 L 118 322 L 118 322 L 118 322 L 118 322 L 118 321 L 118 321 L 118 321 L 118 320 L 118 320 L 118 320 L 118 320 L 118 319 L 118 319 L 119 319 L 119 319 L 119 318 L 119 318 L 119 318 L 119 317 L 119 317 L 119 317 L 120 317 L 120 316 L 120 316 L 120 316 L 120 316 L 120 315 L 120 315 L 120 315 L 120 314 L 120 314 L 120 314 L 120 314 L 120 313 L 120 313 L 120 313 L 120 313 L 120 312 L 120 312 L 121 312 L 121 311 L 121 311 L 121 311 L 124 311 L 124 310 L 124 310 L 125 310 L 125 309 L 126 309 L 128 309 L 129 309 L 130 308 L 131 308 L 132 308 L 132 308 L 132 307 L 134 307 L 134 307 L 135 306 L 136 306 L 136 306 L 137 306 L 137 305 L 137 305 L 137 305 L 138 305 L 139 304 L 139 304 L 139 304 L 140 303 L 140 303 L 140 303 L 141 303 L 142 302 L 144 302 L 144 302 L 145 302 L 146 301 L 146 301 L 146 301 L 147 300 L 151 300 L 152 300 L 152 300 L 157 299 L 157 299 L 157 299 L 157 298 L 157 298 L 158 298 L 159 298 L 160 297 L 160 297 L 165 297 L 166 297 L 167 296 L 169 296 L 170 296 L 170 295 L 171 295 L 174 295 L 178 295 L 183 294 L 183 294 L 183 294 L 184 294 L 184 293 L 191 293 L 194 293 L 194 292 L 196 292 L 197 292 L 197 292 L 204 291 L 204 291 L 205 291 L 205 291 L 206 290 L 208 290 L 210 290 L 211 289 L 212 289 L 216 289 L 216 289 L 217 288 L 217 288 L 217 288 L 218 287 L 220 287 L 223 287 L 232 287 L 235 286 L 237 286 L 237 286 L 239 286 L 239 285 L 239 285 L 239 285 L 239 284 L 239 284 L 239 284 L 239 284 L 239 283 L 239 283 L 239 283 L 239 283 L 239 282 L 240 282 L 240 282 L 242 281 L 242 281 L 242 281 L 242 281 L 243 280 L 243 280 L 243 280 L 243 280 L 243 279 L 243 279 L 243 279 L 244 278 L 244 278 L 244 278 L 245 278 L 245 277 L 245 277 L 245 277 L 245 276 L 246 276 L 246 276 L 246 276 L 246 275 L 247 275 L 247 275 L 248 275 L 248 274 L 250 274 L 251 274 L 251 273 L 252 273 L 252 273 L 252 273 L 252 272 L 252 272 L 253 272 L 254 272 L 255 271 L 255 271 L 255 271 L 257 270 L 258 270 L 258 270 L 260 270 L 260 269 L 260 269 L 261 269 L 261 269 L 264 268 L 265 268 L 265 268 L 267 267 L 269 267 L 271 267 L 272 267 L 272 266 L 273 266 L 273 266 L 273 265 L 275 265 L 277 265 L 278 265 L 278 264 L 280 264 L 280 264 L 280 264 L 280 263 L 280 263 L 280 263 L 281 262 L 281 262 L 281 262 L 281 262 L 282 261 L 285 261 L 289 261 L 289 261 L 289 260 L 291 260 L 293 260 L 293 259 L 293 259 L 294 259 L 295 259 L 295 258 L 295 258 L 295 258 L 295 258 L 295 257 L 295 257 L 296 257 L 296 256 L 296 256 L 298 256 L 298 256 L 298 255 L 298 255 L 298 255 L 299 254 L 299 254 L 299 254 L 299 254 L 299 253 L 299 253 L 299 253 L 299 253 L 302 252 L 304 252 L 304 252 L 304 251 L 312 251 L 313 251 L 315 251 L 317 250 L 323 250 L 324 250 L 324 250 L 324 249 L 325 249 L 325 249 L 325 248 L 325 248 L 326 248 L 326 248 L 332 247 L 334 247 L 336 247 L 340 247 L 343 246 L 346 246 L 348 246 L 351 245 L 351 245 L 358 245 L 364 245 L 364 244 L 369 244 L 369 244 L 373 243 L 374 243 L 376 243 L 376 243 L 376 242 L 376 242 L 378 242 L 379 242 L 381 241 L 384 241 L 384 241 L 385 240 L 385 240 L 388 240 L 390 240 L 390 239 L 393 239 L 396 239 L 396 239 L 397 238 L 398 238 L 398 238 L 399 237 L 401 237 L 403 237 L 405 237 L 407 236 L 407 236 L 410 236 L 411 236 L 413 235 L 416 235 L 416 235 L 420 234 L 420 234 L 420 234 L 421 234 L 422 233 L 423 233 L 423 233 L 425 232 L 427 232 L 428 232 L 428 232 L 428 231 L 434 231 L 434 231 L 434 231 L 434 230 L 435 230 L 435 230 L 435 229 L 435 229 L 436 229 L 437 229 L 437 228 L 438 228 L 439 228 L 439 228 L 440 227 L 440 227 L 440 227 L 441 226 L 441 226 L 441 226 L 442 226 L 442 225 L 442 225 L 442 225 L 443 225 L 444 224 L 444 224 L 444 224 L 445 223 L 445 223 L 446 223 L 447 223 L 447 222 L 447 222 L 448 222 L 449 221 L 449 221 L 450 221 L 451 221 L 451 220 L 451 220 L 452 220 L 452 220 L 452 219 L 452 219 L 453 219 L 453 218 L 454 218 L 456 218 L 457 218 L 458 217 L 458 217 L 459 217 L 460 217 L 461 216 L 462 216 L 464 216 L 466 215 L 468 215 L 468 215 L 468 215 L 468 214 L 469 214 L 469 214 L 469 214 L 469 213 L 470 213 L 470 213 L 470 212 L 470 212 L 472 212 L 472 212 L 472 211 L 473 211 L 473 211 L 475 210 L 475 210 L 475 210 L 476 210 L 477 209 L 478 209 L 483 209 L 483 209 L 483 208 L 483 208 L 485 208 L 487 207 L 487 207 L 487 207 L 487 207 L 487 206 L 489 206 L 491 206 L 491 206 L 491 205 L 491 205 L 493 205 L 493 204 L 493 204 L 493 204 L 495 204 L 498 203 L 498 203 L 501 203 L 501 203 L 502 202 L 504 202 L 505 202 L 507 201 L 508 201 L 509 201 L 510 201 L 510 200 L 511 200 L 511 200 L 511 199 L 511 199 L 512 199 L 512 199 L 512 198 L 513 198 L 513 198 L 513 198 L 514 197 L 514 197 L 515 197 L 518 196 L 518 196 L 522 196 L 524 196 L 524 195 L 524 195 L 525 195 L 527 195 L 528 194 L 528 194 L 528 194 L 528 193 L 528 193 L 528 193 L 528 193 L 529 192 L 529 192 L 529 192 L 529 192 L 529 191 L 530 191 L 530 191 L 531 190 L 531 190 L 532 190 L 532 190 L 533 189 L 533 189 L 533 189 L 534 188 L 535 188 L 537 188 L 537 188 L 537 187 L 537 187 L 537 187 L 538 187 L 538 186 L 538 186 L 539 186 L 540 185 L 542 185 L 544 185 L 545 185 L 546 184 L 549 184 L 551 184 L 552 184 L 554 183 L 557 183 L 557 183 L 557 182 L 560 182 L 561 182 L 562 182 L 562 181 L 562 181 L 569 181 L 569 181 L 570 180 L 570 180 L 570 180 L 571 179 L 571 179 L 572 179 L 572 179 L 573 178 L 573 178 L 573 178 L 573 177 L 573 177 L 574 177 L 574 177 L 574 176 L 574 176 L 574 176 L 575 176 L 576 175 L 577 175 L 577 175 L 577 174 L 578 174 L 578 174 L 579 174 L 579 173 L 580 173 L 580 173 L 580 173 L 580 172 L 581 172 L 582 172 L 583 171 L 583 171 L 584 171 L 584 171 L 584 170 L 585 170 L 585 170 L 585 170 L 585 169 L 586 169 L 586 169 L 587 168 L 587 168 L 588 168 L 588 168 L 588 167 L 588 167 L 588 167 L 588 166 L 589 166 L 589 166 L 589 166 L 590 165 L 590 165 L 590 165 L 591 165 L 591 164 L 591 164 L 591 164 L 591 163 L 591 163 L 592 163 L 592 163 L 592 162 L 592 162 L 592 162 L 594 162 L 595 161 L 596 161 L 596 161 L 596 160 L 596 160 L 598 160 L 598 160 L 599 159 L 599 159 L 601 159 L 603 159 L 603 158 L 604 158 L 605 158 L 605 157 L 606 157 L 606 157 L 606 157 L 606 156 L 606 156 L 606 156 L 606 155 L 606 155 L 607 155 L 607 155 L 607 154 L 607 154 L 607 154 L 607 154 L 608 153 L 608 153 L 608 153 L 609 152 L 610 152 L 610 152 L 611 152 L 611 151 L 612 151 L 612 151 L 612 151 L 615 150 L 615 150 L 615 150 L 615 149 L 615 149 L 617 149 L 618 149 L 619 148 L 620 148 L 620 148 L 620 148 L 621 147 L 621 147 L 625 147 L 627 146 L 629 146 L 630 146 L 631 146 L 631 145 L 632 145 L 632 145 L 633 144 L 633 144 L 633 144 L 634 144 L 634 143 L 634 143 L 635 143 L 637 143 L 637 142 L 637 142 L 637 142 L 637 141 L 637 141 L 637 141 L 637 141 L 637 140 L 637 140 L 637 140 L 637 140 L 637 139 L 637 139 L 637 139 L 637 138 L 637 138 L 638 138 L 638 138 L 638 137 L 638 137 L 638 137 L 638 137 L 638 136 L 639 136 L 639 136 L 639 135 L 640 135 L 640 135 L 640 135 L 640 134 L 640 134 L 640 134 L 641 133 L 642 133 L 643 133 L 643 133 L 644 132 L 645 132 L 645 132 L 645 132 L 646 131 L 647 131 L 648 131 L 649 130 L 649 130 L 649 130 L 649 130 L 649 129 L 649 129 L 649 129 L 651 129 L 651 128 L 651 128 L 654 128 L 655 127 L 656 127 L 658 127 L 659 127 L 660 126 L 660 126 L 660 126 L 660 126 L 660 125 L 661 125 L 661 125 L 662 124 L 662 124 L 662 124 L 663 124 L 663 123 L 663 123 L 663 123 L 663 122 L 663 122 L 663 122 L 663 122 L 664 121 L 664 121 L 665 121 L 665 121 L 666 120 L 666 120 L 666 120 L 666 119 L 667 119 L 667 119 L 668 119 L 668 118 L 668 118 L 669 118 L 669 118 L 672 117 L 674 117 L 676 117 L 677 116 L 678 116 L 680 116 L 680 116 L 681 115 L 683 115 L 687 115 L 688 115 L 689 114 L 690 114 L 692 114 L 692 113 L 693 113 L 694 113 L 695 113 L 695 112 L 696 112 L 697 112 L 698 111 L 699 111 L 699 111 L 699 111 L 700 110 L 700 110 L 700 110 L 703 110 L 703 109 L 704 109 L 705 109 L 705 108 L 706 108 L 707 108 L 708 108 L 708 107 L 708 107 L 708 107 L 709 107 L 710 106 L 710 106 L 710 106 L 711 105 L 712 105 L 712 105 L 713 105 L 713 104 L 713 104 L 713 104 L 714 104 L 714 103 L 714 103 L 714 103 L 715 102 L 715 102 L 715 102 L 717 102 L 718 101 L 719 101 L 721 101 L 722 100 L 723 100 L 724 100 L 726 100 L 727 99 L 729 99 L 730 99 L 731 99 L 732 98 L 733 98 L 735 98 L 736 97 L 736 97 L 736 97 L 737 97 L 737 96 L 737 96 L 738 96 L 739 96 L 739 95 L 740 95 L 740 95 L 740 94 L 746 94 L 746 94 L 747 94 L 748 93 L 750 93 L 751 93 L 751 92 L 751 92 L 751 92 L 752 92 L 753 91 L 753 91 L 753 91 L 754 91 L 754 90 L 754 90 L 755 90 L 755 89 L 757 89 L 759 89 L 759 89 L 763 88 L 764 88 L 764 88 L 765 88 L 766 87 L 766 87 L 766 87 L 766 86 L 769 86 L 770 86 L 771 86 L 771 85 L 772 85 L 772 85 L 773 85 L 774 84 L 776 84 L 776 84 L 776 83 L 777 83 L 777 83 L 777 83 L 777 82 L 778 82 L 779 82 L 779 82 L 780 81 L 781 81 L 782 81 L 782 80 L 782 80 L 782 80 L 782 80 L 783 79 L 785 79 L 789 79 L 789 78 L 792 78 L 793 78 L 795 78 L 796 77 L 796 77 L 796 77 L 798 77 L 798 76 L 799 76 L 801 76 L 802 75 L 805 75 L 809 75 L 809 75 L 809 74 L 809 74 L 810 74 L 811 74 L 811 73 L 811 73 L 819 73 L 821 72 L 821 72 L 822 72 L 824 72 L 826 71 L 828 71 L 829 71 L 829 71 L 830 70 L 831 70 L 835 70 L 836 69 L 837 69 L 838 69 L 840 69 L 841 68 L 841 68 L 841 68 L 841 67 L 841 67 L 842 67 L 842 67 L 844 66 L 846 66 L 846 66 L 846 66 L 847 65 L 849 65 L 852 65 L 853 64 L 854 64 L 855 64 L 855 64 L 856 63 L 856 63 L 856 63 L 856 63 L 856 62 L 858 62 L 859 62 L 859 61 L 860 61 L 860 61 L 860 61 L 860 60 L 860 60 L 861 60 L 861 60 L 861 59 L 861 59 L 861 59 L 862 58 L 862 58 L 863 58 L 863 58 L 863 57 L 863 57 L 863 57 L 864 56 L 869 56 L 870 56 L 871 56 L 871 55 L 871 55 L 871 55 L 872 55 L 872 54 L 872 54 L 872 54 L 872 53 L 872 53 L 872 53 L 872 53 L 872 52 L 872 52 L 872 52 L 872 52 L 872 51 L 872 51 L 873 51 L 873 50 L 873 50 L 874 50 L 875 50 L 875 49 L 876 49 L 877 49 L 878 49 L 878 48 L 879 48 L 879 48 L 880 47 L 880 47 L 880 47 L 882 47 L 883 46 L 884 46 L 884 46 L 885 45 L 886 45 L 886 45 L 888 45 L 888 44 L 889 44 L 890 44 L 891 44 L 891 43 L 891 43 L 892 43 L 893 42 L 893 42 L 894 42 L 895 42 L 896 41 L 898 41 L 898 41 L 902 41 L 902 40 L 903 40 L 907 40 L 907 39 L 907 39 L 908 39 L 908 39 L 908 38 L 909 38 L 910 38 L 911 38 L 912 37 L 912 37 L 912 37 L 912 36 L 913 36 L 913 36 L 917 36 L 917 35 L 918 35 L 919 35 L 920 34 L 921 34 L 926 34 L 927 34 L 928 33 L 928 33 L 928 33 L 929 33 L 931 32 L 932 32 L 932 32 L 932 31 L 932 31 L 932 31 L 936 31 L 937 30"></path><path stroke-width="2" d="M 937 346 L 937.000000 15.000000" /><path stroke-width="2" d="M 937 346 L 937.000000 15.000000"></path><path stroke-width="2" d="M 937 346 L 942 346" /><path stroke-width="2" d="M 937 346 L 942 346"></path><text xmlns="http://www.w3.org/2000/svg" x="947" y="352">0</text><path stroke-width="2" d="M 937 307 L 942 307" /><path stroke-width="2" d="M 937 307 L 942 307"></path><text y="313" xmlns="http://www.w3.org/2000/svg" x="947">140</text><path stroke-width="2" d="M 937 271 L 942 271" /><path stroke-width="2" d="M 937 271 L 942 271"></path><text xmlns="http://www.w3.org/2000/svg" x="947" y="277">270</text><path stroke-width="2" d="M 937 236 L 942 236" /><path stroke-width="2" d="M 937 236 L 942 236"></path><text xmlns="http://www.w3.org/2000/svg" x="947" y="242">400</text><path stroke-width="2" d="M 937 197 L 942 197" /><path stroke-width="2" d="M 937 197 L 942 197"></path><text xmlns="http://www.w3.org/2000/svg" x="947" y="203">540</text><path stroke-width="2" d="M 937 161 L 942 161" /><path stroke-width="2" d="M 937 161 L 942 161"></path><text xmlns="http://www.w3.org/2000/svg" x="947" y="167">670</text><path d="M 937 126 L 942 126" stroke-width="2" /><path stroke-width="2" d="M 937 126 L 942 126"></path><text xmlns="http://www.w3.org/2000/svg" x="947" y="132">800</text><path stroke-width="2" d="M 937 87 L 942 87" /><path stroke-width="2" d="M 937 87 L 942 87"></path><text xmlns="http://www.w3.org/2000/svg" x="947" y="93">940</text><path stroke-width="2" d="M 937 51 L 942 51" /><path stroke-width="2" d="M 937 51 L 942 51"></path><text x="947" y="57" xmlns="http://www.w3.org/2000/svg">1070</text><path stroke-width="2" d="M 937 16 L 942 16" /><path stroke-width="2" d="M 937 16 L 942 16"></path><text xmlns="http://www.w3.org/2000/svg" x="947" y="22">1200</text><text transform="rotate(90.00,987,175)" xmlns="http://www.w3.org/2000/svg" x="987" y="175">Stargazers</text><path stroke-width="2" d="M 57.000000 346.000000 L 937 346" /><path stroke-width="2" d="M 57.000000 346.000000 L 937 346"></path><path stroke-width="2" d="M 58 346 L 58 351" /><path d="M 58 346 L 58 351" stroke-width="2"></path><text xmlns="http://www.w3.org/2000/svg" x="25" y="368">2023-04-02</text><path stroke-width="2" d="M 156 346 L 156 351" /><path d="M 156 346 L 156 351" stroke-width="2"></path><text xmlns="http://www.w3.org/2000/svg" x="123" y="368">2023-07-17</text><path stroke-width="2" d="M 254 346 L 254 351" /><path stroke-width="2" d="M 254 346 L 254 351"></path><text xmlns="http://www.w3.org/2000/svg" x="221" y="368">2023-10-31</text><path stroke-width="2" d="M 351 346 L 351 351" /><path stroke-width="2" d="M 351 346 L 351 351"></path><text x="318" y="368" xmlns="http://www.w3.org/2000/svg">2024-02-14</text><path stroke-width="2" d="M 449 346 L 449 351" /><path stroke-width="2" d="M 449 346 L 449 351"></path><text y="368" xmlns="http://www.w3.org/2000/svg" x="416">2024-05-30</text><path stroke-width="2" d="M 547 346 L 547 351" /><path stroke-width="2" d="M 547 346 L 547 351"></path><text xmlns="http://www.w3.org/2000/svg" x="514" y="368">2024-09-13</text><path stroke-width="2" d="M 644 346 L 644 351" /><path stroke-width="2" d="M 644 346 L 644 351"></path><text x="611" y="368" xmlns="http://www.w3.org/2000/svg">2024-12-28</text><path stroke-width="2" d="M 742 346 L 742 351" /><path stroke-width="2" d="M 742 346 L 742 351"></path><text xmlns="http://www.w3.org/2000/svg" x="709" y="368">2025-04-13</text><path stroke-width="2" d="M 840 346 L 840 351" /><path stroke-width="2" d="M 840 346 L 840 351"></path><text xmlns="http://www.w3.org/2000/svg" x="807" y="368">2025-07-28</text><path stroke-width="2" d="M 937 346 L 937 351" /><path stroke-width="2" d="M 937 346 L 937 351"></path><text xmlns="http://www.w3.org/2000/svg" x="904" y="368">2025-11-11</text><text xmlns="http://www.w3.org/2000/svg" x="483" y="390">Time</text></svg>