<svg xmlns="http://www.w3.org/2000/svg" xmlns:xlink="http://www.w3.org/1999/xlink" width="1024px" height="400px"><style type="text/css">
path { fill: none; stroke: rgb(51,51,51); }
path.series { stroke: #6b63ff; }
rect.background { fill: rgb(255,255,255); stroke: none; }

text {
	stroke-width: 0;
	stroke: none;
	fill: rgba(51,51,51,1.0);
	font-size: 12.8px;
	font-family: 'Roboto Medium', sans-serif;
}
</style><rect x="0" y="0" width="1024px" height="400px" class="background" rx="8" /><rect x="0" y="0" width="1024px" height="400px" class="background" rx="8"></rect><path stroke-width="2" class="series" d="M 58 345 L 63 344 L 92 343 L 93 342 L 93 341 L 93 341 L 93 340 L 93 339 L 93 338 L 93 337 L 93 337 L 93 336 L 94 335 L 94 334 L 94 333 L 94 333 L 94 332 L 94 331 L 95 330 L 95 329 L 96 329 L 97 328 L 97 327 L 99 326 L 101 325 L 101 325 L 101 324 L 102 323 L 104 322 L 107 321 L 107 321 L 109 320 L 111 319 L 120 318 L 121 317 L 121 317 L 121 316 L 121 315 L 121 314 L 126 313 L 129 313 L 130 312 L 134 311 L 142 310 L 145 309 L 157 308 L 162 308 L 168 307 L 176 306 L 179 305 L 206 304 L 208 304 L 208 303 L 211 302 L 212 301 L 212 300 L 212 300 L 212 299 L 212 298 L 212 297 L 212 296 L 212 296 L 213 295 L 213 294 L 213 293 L 213 292 L 214 292 L 214 291 L 214 290 L 214 289 L 214 288 L 214 288 L 214 287 L 214 286 L 214 285 L 214 284 L 214 284 L 214 283 L 214 282 L 214 281 L 214 280 L 214 280 L 214 279 L 214 278 L 214 277 L 214 276 L 214 275 L 214 275 L 214 274 L 214 273 L 214 272 L 214 271 L 214 271 L 214 270 L 214 269 L 214 268 L 214 267 L 214 267 L 214 266 L 215 265 L 215 264 L 215 263 L 216 263 L 216 262 L 216 261 L 217 260 L 217 259 L 218 259 L 218 258 L 218 257 L 218 256 L 218 255 L 218 255 L 218 254 L 218 253 L 218 252 L 218 251 L 218 251 L 218 250 L 219 249 L 219 248 L 219 247 L 219 247 L 219 246 L 220 245 L 221 244 L 221 243 L 222 242 L 222 242 L 228 241 L 229 240 L 229 239 L 231 238 L 231 238 L 235 237 L 240 236 L 241 235 L 245 234 L 247 234 L 250 233 L 250 232 L 251 231 L 255 230 L 256 230 L 257 229 L 259 228 L 260 227 L 262 226 L 262 226 L 263 225 L 263 224 L 265 223 L 268 222 L 268 222 L 269 221 L 270 220 L 270 219 L 271 218 L 274 218 L 277 217 L 281 216 L 282 215 L 284 214 L 286 214 L 286 213 L 286 212 L 289 211 L 301 210 L 301 209 L 303 209 L 314 208 L 314 207 L 314 206 L 315 205 L 315 205 L 317 204 L 320 203 L 322 202 L 323 201 L 336 201 L 339 200 L 342 199 L 346 198 L 349 197 L 349 197 L 351 196 L 360 195 L 371 194 L 383 193 L 384 193 L 384 192 L 384 191 L 385 190 L 388 189 L 404 189 L 411 188 L 412 187 L 418 186 L 419 185 L 420 185 L 438 184 L 438 183 L 439 182 L 440 181 L 442 181 L 447 180 L 449 179 L 453 178 L 455 177 L 459 176 L 469 176 L 469 175 L 471 174 L 471 173 L 472 172 L 473 172 L 478 171 L 488 170 L 510 169 L 518 168 L 519 168 L 523 167 L 524 166 L 526 165 L 529 164 L 529 164 L 529 163 L 529 162 L 529 161 L 529 160 L 529 160 L 529 159 L 529 158 L 529 157 L 529 156 L 530 156 L 530 155 L 530 154 L 531 153 L 532 152 L 534 152 L 535 151 L 535 150 L 536 149 L 536 148 L 538 148 L 538 147 L 538 146 L 538 145 L 538 144 L 539 143 L 539 143 L 540 142 L 542 141 L 542 140 L 543 139 L 543 139 L 543 138 L 543 137 L 545 136 L 545 135 L 546 135 L 546 134 L 547 133 L 548 132 L 548 131 L 550 131 L 552 130 L 553 129 L 556 128 L 560 127 L 560 127 L 562 126 L 562 125 L 562 124 L 562 123 L 562 123 L 565 122 L 566 121 L 570 120 L 570 119 L 571 119 L 575 118 L 577 117 L 577 116 L 582 115 L 583 115 L 584 114 L 586 113 L 586 112 L 594 111 L 595 110 L 596 110 L 603 109 L 606 108 L 613 107 L 614 106 L 615 106 L 617 105 L 617 104 L 618 103 L 623 102 L 627 102 L 630 101 L 630 100 L 632 99 L 635 98 L 635 98 L 635 97 L 635 96 L 636 95 L 636 94 L 637 94 L 639 93 L 639 92 L 639 91 L 641 90 L 649 90 L 658 89 L 658 88 L 659 87 L 665 86 L 668 86 L 670 85 L 670 84 L 673 83 L 675 82 L 675 82 L 675 81 L 675 80 L 675 79 L 676 78 L 676 77 L 677 77 L 677 76 L 678 75 L 682 74 L 682 73 L 683 73 L 683 72 L 683 71 L 684 70 L 684 69 L 684 69 L 684 68 L 684 67 L 684 66 L 684 65 L 685 65 L 687 64 L 692 63 L 697 62 L 697 61 L 698 61 L 707 60 L 718 59 L 720 58 L 726 57 L 731 57 L 742 56 L 746 55 L 750 54 L 751 53 L 751 53 L 751 52 L 752 51 L 752 50 L 752 49 L 752 49 L 754 48 L 756 47 L 771 46 L 775 45 L 781 44 L 792 44 L 800 43 L 807 42 L 812 41 L 820 40 L 820 40 L 837 39 L 855 38 L 855 37 L 867 36 L 867 36 L 877 35 L 879 34 L 884 33 L 884 32 L 885 32 L 886 31 L 891 30 L 893 29 L 898 28 L 905 28 L 906 27 L 908 26 L 909 25 L 916 24 L 922 24 L 922 23 L 930 22 L 937 21 L 939 20 L 939 20 L 942 19 L 944 18 L 945 17" /><path stroke-width="2" class="series" d="M 58 345 L 63 344 L 92 343 L 93 342 L 93 341 L 93 341 L 93 340 L 93 339 L 93 338 L 93 337 L 93 337 L 93 336 L 94 335 L 94 334 L 94 333 L 94 333 L 94 332 L 94 331 L 95 330 L 95 329 L 96 329 L 97 328 L 97 327 L 99 326 L 101 325 L 101 325 L 101 324 L 102 323 L 104 322 L 107 321 L 107 321 L 109 320 L 111 319 L 120 318 L 121 317 L 121 317 L 121 316 L 121 315 L 121 314 L 126 313 L 129 313 L 130 312 L 134 311 L 142 310 L 145 309 L 157 308 L 162 308 L 168 307 L 176 306 L 179 305 L 206 304 L 208 304 L 208 303 L 211 302 L 212 301 L 212 300 L 212 300 L 212 299 L 212 298 L 212 297 L 212 296 L 212 296 L 213 295 L 213 294 L 213 293 L 213 292 L 214 292 L 214 291 L 214 290 L 214 289 L 214 288 L 214 288 L 214 287 L 214 286 L 214 285 L 214 284 L 214 284 L 214 283 L 214 282 L 214 281 L 214 280 L 214 280 L 214 279 L 214 278 L 214 277 L 214 276 L 214 275 L 214 275 L 214 274 L 214 273 L 214 272 L 214 271 L 214 271 L 214 270 L 214 269 L 214 268 L 214 267 L 214 267 L 214 266 L 215 265 L 215 264 L 215 263 L 216 263 L 216 262 L 216 261 L 217 260 L 217 259 L 218 259 L 218 258 L 218 257 L 218 256 L 218 255 L 218 255 L 218 254 L 218 253 L 218 252 L 218 251 L 218 251 L 218 250 L 219 249 L 219 248 L 219 247 L 219 247 L 219 246 L 220 245 L 221 244 L 221 243 L 222 242 L 222 242 L 228 241 L 229 240 L 229 239 L 231 238 L 231 238 L 235 237 L 240 236 L 241 235 L 245 234 L 247 234 L 250 233 L 250 232 L 251 231 L 255 230 L 256 230 L 257 229 L 259 228 L 260 227 L 262 226 L 262 226 L 263 225 L 263 224 L 265 223 L 268 222 L 268 222 L 269 221 L 270 220 L 270 219 L 271 218 L 274 218 L 277 217 L 281 216 L 282 215 L 284 214 L 286 214 L 286 213 L 286 212 L 289 211 L 301 210 L 301 209 L 303 209 L 314 208 L 314 207 L 314 206 L 315 205 L 315 205 L 317 204 L 320 203 L 322 202 L 323 201 L 336 201 L 339 200 L 342 199 L 346 198 L 349 197 L 349 197 L 351 196 L 360 195 L 371 194 L 383 193 L 384 193 L 384 192 L 384 191 L 385 190 L 388 189 L 404 189 L 411 188 L 412 187 L 418 186 L 419 185 L 420 185 L 438 184 L 438 183 L 439 182 L 440 181 L 442 181 L 447 180 L 449 179 L 453 178 L 455 177 L 459 176 L 469 176 L 469 175 L 471 174 L 471 173 L 472 172 L 473 172 L 478 171 L 488 170 L 510 169 L 518 168 L 519 168 L 523 167 L 524 166 L 526 165 L 529 164 L 529 164 L 529 163 L 529 162 L 529 161 L 529 160 L 529 160 L 529 159 L 529 158 L 529 157 L 529 156 L 530 156 L 530 155 L 530 154 L 531 153 L 532 152 L 534 152 L 535 151 L 535 150 L 536 149 L 536 148 L 538 148 L 538 147 L 538 146 L 538 145 L 538 144 L 539 143 L 539 143 L 540 142 L 542 141 L 542 140 L 543 139 L 543 139 L 543 138 L 543 137 L 545 136 L 545 135 L 546 135 L 546 134 L 547 133 L 548 132 L 548 131 L 550 131 L 552 130 L 553 129 L 556 128 L 560 127 L 560 127 L 562 126 L 562 125 L 562 124 L 562 123 L 562 123 L 565 122 L 566 121 L 570 120 L 570 119 L 571 119 L 575 118 L 577 117 L 577 116 L 582 115 L 583 115 L 584 114 L 586 113 L 586 112 L 594 111 L 595 110 L 596 110 L 603 109 L 606 108 L 613 107 L 614 106 L 615 106 L 617 105 L 617 104 L 618 103 L 623 102 L 627 102 L 630 101 L 630 100 L 632 99 L 635 98 L 635 98 L 635 97 L 635 96 L 636 95 L 636 94 L 637 94 L 639 93 L 639 92 L 639 91 L 641 90 L 649 90 L 658 89 L 658 88 L 659 87 L 665 86 L 668 86 L 670 85 L 670 84 L 673 83 L 675 82 L 675 82 L 675 81 L 675 80 L 675 79 L 676 78 L 676 77 L 677 77 L 677 76 L 678 75 L 682 74 L 682 73 L 683 73 L 683 72 L 683 71 L 684 70 L 684 69 L 684 69 L 684 68 L 684 67 L 684 66 L 684 65 L 685 65 L 687 64 L 692 63 L 697 62 L 697 61 L 698 61 L 707 60 L 718 59 L 720 58 L 726 57 L 731 57 L 742 56 L 746 55 L 750 54 L 751 53 L 751 53 L 751 52 L 752 51 L 752 50 L 752 49 L 752 49 L 754 48 L 756 47 L 771 46 L 775 45 L 781 44 L 792 44 L 800 43 L 807 42 L 812 41 L 820 40 L 820 40 L 837 39 L 855 38 L 855 37 L 867 36 L 867 36 L 877 35 L 879 34 L 884 33 L 884 32 L 885 32 L 886 31 L 891 30 L 893 29 L 898 28 L 905 28 L 906 27 L 908 26 L 909 25 L 916 24 L 922 24 L 922 23 L 930 22 L 937 21 L 939 20 L 939 20 L 942 19 L 944 18 L 945 17"></path><path stroke-width="2" d="M 945 346 L 945.000000 15.000000" /><path stroke-width="2" d="M 945 346 L 945.000000 15.000000"></path><path d="M 945 346 L 950 346" stroke-width="2" /><path stroke-width="2" d="M 945 346 L 950 346"></path><text xmlns="http://www.w3.org/2000/svg" x="955" y="352">0</text><path stroke-width="2" d="M 945 308 L 950 308" /><path stroke-width="2" d="M 945 308 L 950 308"></path><text xmlns="http://www.w3.org/2000/svg" x="955" y="314">46</text><path stroke-width="2" d="M 945 271 L 950 271" /><path stroke-width="2" d="M 945 271 L 950 271"></path><text xmlns="http://www.w3.org/2000/svg" x="955" y="277">92</text><path stroke-width="2" d="M 945 235 L 950 235" /><path stroke-width="2" d="M 945 235 L 950 235"></path><text xmlns="http://www.w3.org/2000/svg" x="955" y="241">137</text><path stroke-width="2" d="M 945 198 L 950 198" /><path stroke-width="2" d="M 945 198 L 950 198"></path><text y="204" xmlns="http://www.w3.org/2000/svg" x="955">183</text><path stroke-width="2" d="M 945 162 L 950 162" /><path stroke-width="2" d="M 945 162 L 950 162"></path><text x="955" y="168" xmlns="http://www.w3.org/2000/svg">228</text><path stroke-width="2" d="M 945 125 L 950 125" /><path stroke-width="2" d="M 945 125 L 950 125"></path><text xmlns="http://www.w3.org/2000/svg" x="955" y="131">274</text><path stroke-width="2" d="M 945 89 L 950 89" /><path stroke-width="2" d="M 945 89 L 950 89"></path><text xmlns="http://www.w3.org/2000/svg" x="955" y="95">319</text><path d="M 945 52 L 950 52" stroke-width="2" /><path stroke-width="2" d="M 945 52 L 950 52"></path><text xmlns="http://www.w3.org/2000/svg" x="955" y="58">365</text><path stroke-width="2" d="M 945 16 L 950 16" /><path stroke-width="2" d="M 945 16 L 950 16"></path><text xmlns="http://www.w3.org/2000/svg" x="955" y="22">410</text><text xmlns="http://www.w3.org/2000/svg" x="987" y="175" transform="rotate(90.00,987,175)">Stargazers</text><path stroke-width="2" d="M 57.000000 346.000000 L 945 346" /><path stroke-width="2" d="M 57.000000 346.000000 L 945 346"></path><path stroke-width="2" d="M 58 346 L 58 351" /><path stroke-width="2" d="M 58 346 L 58 351"></path><text xmlns="http://www.w3.org/2000/svg" x="25" y="368">2023-04-02</text><path stroke-width="2" d="M 157 346 L 157 351" /><path stroke-width="2" d="M 157 346 L 157 351"></path><text xmlns="http://www.w3.org/2000/svg" x="124" y="368">2023-05-13</text><path stroke-width="2" d="M 256 346 L 256 351" /><path stroke-width="2" d="M 256 346 L 256 351"></path><text xmlns="http://www.w3.org/2000/svg" x="223" y="368">2023-06-23</text><path stroke-width="2" d="M 354 346 L 354 351" /><path stroke-width="2" d="M 354 346 L 354 351"></path><text xmlns="http://www.w3.org/2000/svg" x="321" y="368">2023-08-03</text><path stroke-width="2" d="M 453 346 L 453 351" /><path stroke-width="2" d="M 453 346 L 453 351"></path><text xmlns="http://www.w3.org/2000/svg" x="420" y="368">2023-09-13</text><path stroke-width="2" d="M 551 346 L 551 351" /><path stroke-width="2" d="M 551 346 L 551 351"></path><text xmlns="http://www.w3.org/2000/svg" x="518" y="368">2023-10-24</text><path stroke-width="2" d="M 650 346 L 650 351" /><path stroke-width="2" d="M 650 346 L 650 351"></path><text xmlns="http://www.w3.org/2000/svg" x="617" y="368">2023-12-04</text><path stroke-width="2" d="M 748 346 L 748 351" /><path stroke-width="2" d="M 748 346 L 748 351"></path><text xmlns="http://www.w3.org/2000/svg" x="715" y="368">2024-01-14</text><path stroke-width="2" d="M 847 346 L 847 351" /><path stroke-width="2" d="M 847 346 L 847 351"></path><text xmlns="http://www.w3.org/2000/svg" x="814" y="368">2024-02-25</text><path stroke-width="2" d="M 945 346 L 945 351" /><path stroke-width="2" d="M 945 346 L 945 351"></path><text xmlns="http://www.w3.org/2000/svg" x="912" y="368">2024-04-06</text><text xmlns="http://www.w3.org/2000/svg" x="487" y="390">Time</text></svg>