<svg xmlns="http://www.w3.org/2000/svg" xmlns:xlink="http://www.w3.org/1999/xlink" width="1024" height="400">\n<path  d="M 0 0
L 1024 0
L 1024 400
L 0 400
L 0 0" style="stroke-width:0;stroke:rgba(255,255,255,1.0);fill:rgba(255,255,255,1.0)"/><path  d="M 38 11
L 965 11
L 965 351
L 38 351
L 38 11" style="stroke-width:0;stroke:rgba(255,255,255,1.0);fill:rgba(255,255,255,1.0)"/><path  d="M 38 351
L 965 351" style="stroke-width:2;stroke:rgba(85,85,85,1.0);fill:none"/><path  d="M 38 351
L 38 356" style="stroke-width:2;stroke:rgba(85,85,85,1.0);fill:none"/><text x="5" y="373" style="stroke-width:0;stroke:none;fill:rgba(51,51,51,1.0);font-size:12.8px;font-family:'Roboto Medium',sans-serif">2023-04-02</text><path  d="M 154 351
L 154 356" style="stroke-width:2;stroke:rgba(85,85,85,1.0);fill:none"/><text x="121" y="373" style="stroke-width:0;stroke:none;fill:rgba(51,51,51,1.0);font-size:12.8px;font-family:'Roboto Medium',sans-serif">2023-05-06</text><path  d="M 270 351
L 270 356" style="stroke-width:2;stroke:rgba(85,85,85,1.0);fill:none"/><text x="237" y="373" style="stroke-width:0;stroke:none;fill:rgba(51,51,51,1.0);font-size:12.8px;font-family:'Roboto Medium',sans-serif">2023-06-10</text><path  d="M 386 351
L 386 356" style="stroke-width:2;stroke:rgba(85,85,85,1.0);fill:none"/><text x="353" y="373" style="stroke-width:0;stroke:none;fill:rgba(51,51,51,1.0);font-size:12.8px;font-family:'Roboto Medium',sans-serif">2023-07-14</text><path  d="M 502 351
L 502 356" style="stroke-width:2;stroke:rgba(85,85,85,1.0);fill:none"/><text x="469" y="373" style="stroke-width:0;stroke:none;fill:rgba(51,51,51,1.0);font-size:12.8px;font-family:'Roboto Medium',sans-serif">2023-08-17</text><path  d="M 618 351
L 618 356" style="stroke-width:2;stroke:rgba(85,85,85,1.0);fill:none"/><text x="585" y="373" style="stroke-width:0;stroke:none;fill:rgba(51,51,51,1.0);font-size:12.8px;font-family:'Roboto Medium',sans-serif">2023-09-21</text><path  d="M 734 351
L 734 356" style="stroke-width:2;stroke:rgba(85,85,85,1.0);fill:none"/><text x="701" y="373" style="stroke-width:0;stroke:none;fill:rgba(51,51,51,1.0);font-size:12.8px;font-family:'Roboto Medium',sans-serif">2023-10-25</text><path  d="M 850 351
L 850 356" style="stroke-width:2;stroke:rgba(85,85,85,1.0);fill:none"/><text x="817" y="373" style="stroke-width:0;stroke:none;fill:rgba(51,51,51,1.0);font-size:12.8px;font-family:'Roboto Medium',sans-serif">2023-11-28</text><path  d="M 965 351
L 965 356" style="stroke-width:2;stroke:rgba(85,85,85,1.0);fill:none"/><text x="932" y="373" style="stroke-width:0;stroke:none;fill:rgba(51,51,51,1.0);font-size:12.8px;font-family:'Roboto Medium',sans-serif">2024-01-02</text><text x="487" y="395" style="stroke-width:0;stroke:none;fill:rgba(51,51,51,1.0);font-size:12.8px;font-family:'Roboto Medium',sans-serif">Time</text><path  d="M 967 351
L 967 11" style="stroke-width:2;stroke:rgba(85,85,85,1.0);fill:none"/><path  d="M 967 351
L 972 351" style="stroke-width:2;stroke:rgba(85,85,85,1.0);fill:none"/><text x="977" y="357" style="stroke-width:0;stroke:none;fill:rgba(51,51,51,1.0);font-size:12.8px;font-family:'Roboto Medium',sans-serif">0</text><path  d="M 967 308
L 972 308" style="stroke-width:2;stroke:rgba(85,85,85,1.0);fill:none"/><text x="977" y="314" style="stroke-width:0;stroke:none;fill:rgba(51,51,51,1.0);font-size:12.8px;font-family:'Roboto Medium',sans-serif">45</text><path  d="M 967 266
L 972 266" style="stroke-width:2;stroke:rgba(85,85,85,1.0);fill:none"/><text x="977" y="272" style="stroke-width:0;stroke:none;fill:rgba(51,51,51,1.0);font-size:12.8px;font-family:'Roboto Medium',sans-serif">90</text><path  d="M 967 223
L 972 223" style="stroke-width:2;stroke:rgba(85,85,85,1.0);fill:none"/><text x="977" y="229" style="stroke-width:0;stroke:none;fill:rgba(51,51,51,1.0);font-size:12.8px;font-family:'Roboto Medium',sans-serif">135</text><path  d="M 967 181
L 972 181" style="stroke-width:2;stroke:rgba(85,85,85,1.0);fill:none"/><text x="977" y="187" style="stroke-width:0;stroke:none;fill:rgba(51,51,51,1.0);font-size:12.8px;font-family:'Roboto Medium',sans-serif">180</text><path  d="M 967 138
L 972 138" style="stroke-width:2;stroke:rgba(85,85,85,1.0);fill:none"/><text x="977" y="144" style="stroke-width:0;stroke:none;fill:rgba(51,51,51,1.0);font-size:12.8px;font-family:'Roboto Medium',sans-serif">225</text><path  d="M 967 96
L 972 96" style="stroke-width:2;stroke:rgba(85,85,85,1.0);fill:none"/><text x="977" y="102" style="stroke-width:0;stroke:none;fill:rgba(51,51,51,1.0);font-size:12.8px;font-family:'Roboto Medium',sans-serif">270</text><path  d="M 967 53
L 972 53" style="stroke-width:2;stroke:rgba(85,85,85,1.0);fill:none"/><text x="977" y="59" style="stroke-width:0;stroke:none;fill:rgba(51,51,51,1.0);font-size:12.8px;font-family:'Roboto Medium',sans-serif">315</text><path  d="M 967 11
L 972 11" style="stroke-width:2;stroke:rgba(85,85,85,1.0);fill:none"/><text x="977" y="17" style="stroke-width:0;stroke:none;fill:rgba(51,51,51,1.0);font-size:12.8px;font-family:'Roboto Medium',sans-serif">360</text><text x="1009" y="150" style="stroke-width:0;stroke:none;fill:rgba(51,51,51,1.0);font-size:12.8px;font-family:'Roboto Medium',sans-serif" transform="rotate(90.00,1009,150)">Stargazers</text><path  d="M 38 351
L 45 350
L 85 349
L 87 348
L 87 347
L 87 346
L 87 345
L 87 344
L 87 343
L 87 342
L 88 341
L 88 340
L 88 339
L 88 338
L 88 337
L 88 336
L 88 335
L 88 334
L 89 334
L 89 333
L 91 332
L 93 331
L 93 330
L 96 329
L 98 328
L 98 327
L 98 326
L 99 325
L 102 324
L 106 323
L 107 322
L 110 321
L 113 320
L 126 319
L 126 318
L 126 317
L 126 317
L 126 316
L 126 315
L 126 314
L 134 313
L 137 312
L 139 311
L 145 310
L 155 309
L 160 308
L 178 307
L 183 306
L 193 305
L 203 304
L 208 303
L 246 302
L 248 301
L 248 300
L 253 300
L 254 299
L 254 298
L 255 297
L 255 296
L 255 295
L 255 294
L 255 293
L 255 292
L 255 291
L 255 290
L 255 289
L 256 288
L 256 287
L 256 286
L 256 285
L 256 284
L 256 283
L 257 283
L 257 282
L 257 281
L 257 280
L 257 279
L 257 278
L 257 277
L 257 276
L 257 275
L 257 274
L 257 273
L 257 272
L 257 271
L 257 270
L 257 269
L 257 268
L 257 267
L 257 266
L 257 266
L 257 265
L 257 264
L 257 263
L 257 262
L 257 261
L 257 260
L 258 259
L 258 258
L 258 257
L 258 256
L 258 255
L 259 254
L 260 253
L 260 252
L 260 251
L 261 250
L 261 249
L 263 249
L 263 248
L 263 247
L 263 246
L 263 245
L 263 244
L 263 243
L 263 242
L 263 241
L 263 240
L 263 239
L 263 238
L 263 237
L 264 236
L 264 235
L 264 234
L 264 233
L 265 232
L 267 232
L 268 231
L 268 230
L 268 229
L 277 228
L 278 227
L 278 226
L 281 225
L 281 224
L 287 223
L 294 222
L 295 221
L 301 220
L 303 219
L 307 218
L 308 217
L 309 216
L 315 215
L 316 215
L 318 214
L 321 213
L 322 212
L 325 211
L 325 210
L 325 209
L 326 208
L 329 207
L 333 206
L 333 205
L 334 204
L 335 203
L 335 202
L 337 201
L 342 200
L 345 199
L 351 198
L 353 198
L 355 197
L 358 196
L 358 195
L 358 194
L 362 193
L 379 192
L 379 191
L 382 190
L 398 189
L 398 188
L 398 187
L 398 186
L 399 185
L 402 184
L 406 183
L 409 182
L 410 181
L 429 181
L 432 180
L 437 179
L 443 178
L 447 177
L 447 176
L 449 175
L 463 174
L 477 173
L 494 172
L 496 171
L 496 170
L 497 169
L 497 168
L 501 167
L 524 166
L 534 165
L 535 164
L 543 163
L 545 163
L 547 162
L 572 161
L 572 160
L 573 159
L 574 158
L 578 157
L 585 156
L 587 155
L 593 154
L 596 153
L 601 152
L 616 151
L 616 150
L 619 149
L 619 148
L 620 147
L 621 147
L 628 146
L 628 145
L 642 144
L 663 143
L 673 142
L 685 141
L 686 140
L 692 139
L 692 138
L 696 137
L 699 136
L 699 135
L 699 134
L 700 133
L 700 132
L 700 131
L 700 130
L 700 130
L 700 129
L 700 128
L 701 127
L 701 126
L 701 125
L 702 124
L 703 123
L 705 122
L 707 121
L 709 120
L 709 119
L 709 118
L 709 117
L 713 116
L 713 115
L 713 114
L 713 113
L 713 113
L 714 112
L 714 111
L 716 110
L 717 109
L 718 108
L 719 107
L 719 106
L 719 105
L 720 104
L 720 103
L 722 102
L 723 101
L 723 100
L 723 99
L 726 98
L 726 97
L 727 96
L 729 96
L 732 95
L 734 94
L 738 93
L 744 92
L 744 91
L 746 90
L 746 89
L 746 88
L 746 87
L 747 86
L 751 85
L 752 84
L 757 83
L 757 82
L 759 81
L 764 80
L 768 79
L 768 79
L 774 78
L 776 77
L 777 76
L 779 75
L 779 74
L 791 73
L 793 72
L 794 71
L 803 70
L 808 69
L 817 68
L 820 67
L 821 66
L 823 65
L 824 64
L 824 63
L 832 62
L 837 62
L 841 61
L 842 60
L 845 59
L 848 58
L 849 57
L 849 56
L 849 55
L 850 54
L 851 53
L 851 52
L 854 51
L 854 50
L 855 49
L 857 48
L 868 47
L 882 46
L 882 45
L 882 45
L 891 44
L 895 43
L 898 42
L 898 41
L 902 40
L 905 39
L 905 38
L 905 37
L 905 36
L 905 35
L 906 34
L 906 33
L 907 32
L 907 31
L 909 30
L 916 29
L 916 28
L 916 28
L 916 27
L 917 26
L 917 25
L 918 24
L 918 23
L 918 22
L 918 21
L 918 20
L 918 19
L 919 18
L 922 17
L 929 16
L 936 15
L 936 14
L 938 13
L 951 12
L 965 11" style="stroke-width:2;stroke:rgba(129,199,239,1.0);fill:none"/></svg>