<svg xmlns="http://www.w3.org/2000/svg" xmlns:xlink="http://www.w3.org/1999/xlink" width="1024px" height="400px"><style type="text/css">
path { fill: none; stroke: rgb(51,51,51); }
path.series { stroke: #6b63ff; }
rect.background { fill: rgb(255,255,255); stroke: none; }

text {
	stroke-width: 0;
	stroke: none;
	fill: rgba(51,51,51,1.0);
	font-size: 12.8px;
	font-family: 'Roboto Medium', sans-serif;
}
</style><rect rx="8" x="0" y="0" width="1024px" height="400px" class="background" /><rect x="0" y="0" width="1024px" height="400px" class="background" rx="8"></rect><path stroke-width="2" class="series" d="M 58 345 L 62 344 L 83 344 L 84 343 L 84 343 L 84 342 L 84 341 L 84 341 L 84 340 L 84 340 L 85 339 L 85 338 L 85 338 L 85 337 L 85 337 L 85 336 L 85 335 L 86 335 L 86 334 L 87 334 L 87 333 L 87 333 L 89 332 L 90 331 L 90 331 L 90 330 L 91 330 L 92 329 L 95 328 L 95 328 L 96 327 L 98 327 L 105 326 L 105 325 L 105 325 L 105 324 L 105 324 L 105 323 L 109 323 L 111 322 L 112 321 L 115 321 L 121 320 L 123 320 L 132 319 L 135 318 L 141 318 L 146 317 L 148 317 L 169 316 L 170 315 L 170 315 L 173 314 L 173 314 L 173 313 L 173 313 L 173 312 L 173 311 L 173 311 L 173 310 L 173 310 L 174 309 L 174 308 L 174 308 L 174 307 L 174 307 L 174 306 L 174 305 L 174 305 L 174 304 L 174 304 L 174 303 L 174 302 L 174 302 L 174 301 L 174 301 L 174 300 L 174 300 L 174 299 L 174 298 L 174 298 L 174 297 L 175 297 L 175 296 L 175 295 L 175 295 L 175 294 L 175 294 L 175 293 L 175 292 L 175 292 L 175 291 L 175 291 L 175 290 L 175 290 L 175 289 L 175 288 L 175 288 L 175 287 L 175 287 L 176 286 L 176 285 L 176 285 L 176 284 L 177 284 L 177 283 L 178 282 L 178 282 L 178 281 L 178 281 L 178 280 L 178 280 L 178 279 L 178 278 L 178 278 L 178 277 L 178 277 L 178 276 L 178 275 L 178 275 L 178 274 L 178 274 L 178 273 L 179 272 L 180 272 L 180 271 L 180 271 L 180 270 L 185 269 L 186 269 L 186 268 L 187 268 L 187 267 L 191 267 L 194 266 L 195 265 L 198 265 L 199 264 L 201 264 L 202 263 L 202 262 L 206 262 L 206 261 L 207 261 L 208 260 L 209 259 L 211 259 L 211 258 L 211 258 L 211 257 L 213 257 L 215 256 L 215 255 L 216 255 L 216 254 L 216 254 L 217 253 L 220 252 L 221 252 L 224 251 L 226 251 L 227 250 L 228 249 L 228 249 L 228 248 L 231 248 L 239 247 L 240 247 L 241 246 L 249 245 L 250 245 L 250 244 L 250 244 L 250 243 L 251 242 L 254 242 L 255 241 L 256 241 L 266 240 L 268 239 L 270 239 L 273 238 L 275 238 L 275 237 L 277 236 L 284 236 L 292 235 L 301 235 L 302 234 L 302 234 L 302 233 L 302 232 L 304 232 L 316 231 L 322 231 L 322 230 L 327 229 L 328 229 L 328 228 L 342 228 L 342 227 L 343 226 L 343 226 L 345 225 L 349 225 L 350 224 L 353 224 L 355 223 L 358 222 L 365 222 L 365 221 L 367 221 L 367 220 L 367 219 L 368 219 L 372 218 L 379 218 L 396 217 L 402 216 L 406 216 L 406 215 L 408 215 L 410 214 L 410 214 L 410 213 L 410 212 L 410 212 L 410 211 L 410 211 L 410 210 L 410 209 L 410 209 L 410 208 L 410 208 L 410 207 L 411 206 L 411 206 L 412 205 L 414 205 L 415 204 L 415 203 L 415 203 L 415 202 L 417 202 L 417 201 L 417 201 L 417 200 L 417 199 L 417 199 L 417 198 L 418 198 L 419 197 L 420 196 L 420 196 L 420 195 L 421 195 L 421 194 L 422 193 L 422 193 L 422 192 L 422 192 L 424 191 L 424 191 L 424 190 L 426 189 L 427 189 L 428 188 L 430 188 L 433 187 L 433 186 L 434 186 L 435 185 L 435 185 L 435 184 L 435 183 L 437 183 L 438 182 L 440 182 L 440 181 L 442 181 L 444 180 L 446 179 L 446 179 L 450 178 L 450 178 L 451 177 L 452 176 L 452 176 L 458 175 L 460 175 L 460 174 L 465 173 L 467 173 L 472 172 L 474 172 L 474 171 L 475 170 L 476 170 L 476 169 L 480 169 L 483 168 L 485 168 L 485 167 L 487 166 L 489 166 L 489 165 L 489 165 L 489 164 L 490 163 L 490 163 L 490 162 L 492 162 L 492 161 L 492 160 L 493 160 L 499 159 L 506 159 L 506 158 L 507 158 L 511 157 L 514 156 L 515 156 L 515 155 L 517 155 L 519 154 L 519 153 L 519 153 L 519 152 L 519 152 L 519 151 L 519 150 L 520 150 L 520 149 L 521 149 L 525 148 L 525 148 L 525 147 L 525 146 L 525 146 L 526 145 L 526 145 L 526 144 L 526 143 L 526 143 L 526 142 L 526 142 L 526 141 L 532 140 L 535 140 L 535 139 L 536 139 L 543 138 L 551 137 L 553 137 L 557 136 L 561 136 L 569 135 L 572 135 L 575 134 L 576 133 L 576 133 L 576 132 L 576 132 L 576 131 L 576 130 L 576 130 L 578 129 L 580 129 L 591 128 L 594 127 L 598 127 L 606 126 L 613 126 L 617 125 L 621 125 L 627 124 L 627 123 L 640 123 L 653 122 L 653 122 L 662 121 L 663 120 L 670 120 L 671 119 L 675 119 L 675 118 L 676 117 L 676 117 L 680 116 L 682 116 L 686 115 L 691 115 L 692 114 L 693 113 L 694 113 L 699 112 L 704 112 L 704 111 L 709 110 L 715 110 L 716 109 L 716 109 L 718 108 L 720 107 L 721 107 L 725 106 L 729 106 L 732 105 L 736 104 L 736 104 L 743 103 L 744 103 L 748 102 L 754 102 L 754 101 L 761 100 L 762 100 L 762 99 L 764 99 L 765 98 L 768 97 L 768 97 L 771 96 L 775 96 L 776 95 L 777 94 L 777 94 L 788 93 L 788 93 L 789 92 L 789 92 L 790 91 L 791 90 L 791 90 L 792 89 L 793 89 L 795 88 L 795 87 L 797 87 L 798 86 L 799 86 L 800 85 L 801 84 L 801 84 L 802 83 L 802 83 L 802 82 L 804 82 L 804 81 L 804 80 L 805 80 L 806 79 L 808 79 L 808 78 L 808 77 L 809 77 L 810 76 L 812 76 L 813 75 L 814 74 L 815 74 L 816 73 L 818 73 L 819 72 L 819 71 L 820 71 L 822 70 L 823 70 L 823 69 L 823 69 L 824 68 L 824 67 L 824 67 L 825 66 L 825 66 L 827 65 L 831 64 L 833 64 L 835 63 L 835 63 L 838 62 L 840 61 L 841 61 L 844 60 L 848 60 L 851 59 L 854 59 L 855 58 L 856 57 L 856 57 L 856 56 L 857 56 L 858 55 L 858 54 L 859 54 L 859 53 L 859 53 L 860 52 L 862 51 L 863 51 L 863 50 L 865 50 L 865 49 L 869 49 L 869 48 L 869 47 L 871 47 L 872 46 L 875 46 L 879 45 L 884 44 L 885 44 L 885 43 L 885 43 L 888 42 L 891 41 L 892 41 L 892 40 L 892 40 L 893 39 L 895 38 L 899 38 L 900 37 L 900 37 L 900 36 L 903 36 L 904 35 L 904 34 L 904 34 L 904 33 L 908 33 L 913 32 L 913 31 L 919 31 L 919 30 L 920 30 L 925 29 L 927 28 L 931 28 L 933 27 L 936 27 L 937 26 L 937 26 L 938 25 L 938 24 L 938 24 L 939 23 L 940 23 L 940 22 L 940 21 L 942 21 L 942 20 L 942 20 L 944 19 L 945 18 L 945 18" /><path stroke-width="2" class="series" d="M 58 345 L 62 344 L 83 344 L 84 343 L 84 343 L 84 342 L 84 341 L 84 341 L 84 340 L 84 340 L 85 339 L 85 338 L 85 338 L 85 337 L 85 337 L 85 336 L 85 335 L 86 335 L 86 334 L 87 334 L 87 333 L 87 333 L 89 332 L 90 331 L 90 331 L 90 330 L 91 330 L 92 329 L 95 328 L 95 328 L 96 327 L 98 327 L 105 326 L 105 325 L 105 325 L 105 324 L 105 324 L 105 323 L 109 323 L 111 322 L 112 321 L 115 321 L 121 320 L 123 320 L 132 319 L 135 318 L 141 318 L 146 317 L 148 317 L 169 316 L 170 315 L 170 315 L 173 314 L 173 314 L 173 313 L 173 313 L 173 312 L 173 311 L 173 311 L 173 310 L 173 310 L 174 309 L 174 308 L 174 308 L 174 307 L 174 307 L 174 306 L 174 305 L 174 305 L 174 304 L 174 304 L 174 303 L 174 302 L 174 302 L 174 301 L 174 301 L 174 300 L 174 300 L 174 299 L 174 298 L 174 298 L 174 297 L 175 297 L 175 296 L 175 295 L 175 295 L 175 294 L 175 294 L 175 293 L 175 292 L 175 292 L 175 291 L 175 291 L 175 290 L 175 290 L 175 289 L 175 288 L 175 288 L 175 287 L 175 287 L 176 286 L 176 285 L 176 285 L 176 284 L 177 284 L 177 283 L 178 282 L 178 282 L 178 281 L 178 281 L 178 280 L 178 280 L 178 279 L 178 278 L 178 278 L 178 277 L 178 277 L 178 276 L 178 275 L 178 275 L 178 274 L 178 274 L 178 273 L 179 272 L 180 272 L 180 271 L 180 271 L 180 270 L 185 269 L 186 269 L 186 268 L 187 268 L 187 267 L 191 267 L 194 266 L 195 265 L 198 265 L 199 264 L 201 264 L 202 263 L 202 262 L 206 262 L 206 261 L 207 261 L 208 260 L 209 259 L 211 259 L 211 258 L 211 258 L 211 257 L 213 257 L 215 256 L 215 255 L 216 255 L 216 254 L 216 254 L 217 253 L 220 252 L 221 252 L 224 251 L 226 251 L 227 250 L 228 249 L 228 249 L 228 248 L 231 248 L 239 247 L 240 247 L 241 246 L 249 245 L 250 245 L 250 244 L 250 244 L 250 243 L 251 242 L 254 242 L 255 241 L 256 241 L 266 240 L 268 239 L 270 239 L 273 238 L 275 238 L 275 237 L 277 236 L 284 236 L 292 235 L 301 235 L 302 234 L 302 234 L 302 233 L 302 232 L 304 232 L 316 231 L 322 231 L 322 230 L 327 229 L 328 229 L 328 228 L 342 228 L 342 227 L 343 226 L 343 226 L 345 225 L 349 225 L 350 224 L 353 224 L 355 223 L 358 222 L 365 222 L 365 221 L 367 221 L 367 220 L 367 219 L 368 219 L 372 218 L 379 218 L 396 217 L 402 216 L 406 216 L 406 215 L 408 215 L 410 214 L 410 214 L 410 213 L 410 212 L 410 212 L 410 211 L 410 211 L 410 210 L 410 209 L 410 209 L 410 208 L 410 208 L 410 207 L 411 206 L 411 206 L 412 205 L 414 205 L 415 204 L 415 203 L 415 203 L 415 202 L 417 202 L 417 201 L 417 201 L 417 200 L 417 199 L 417 199 L 417 198 L 418 198 L 419 197 L 420 196 L 420 196 L 420 195 L 421 195 L 421 194 L 422 193 L 422 193 L 422 192 L 422 192 L 424 191 L 424 191 L 424 190 L 426 189 L 427 189 L 428 188 L 430 188 L 433 187 L 433 186 L 434 186 L 435 185 L 435 185 L 435 184 L 435 183 L 437 183 L 438 182 L 440 182 L 440 181 L 442 181 L 444 180 L 446 179 L 446 179 L 450 178 L 450 178 L 451 177 L 452 176 L 452 176 L 458 175 L 460 175 L 460 174 L 465 173 L 467 173 L 472 172 L 474 172 L 474 171 L 475 170 L 476 170 L 476 169 L 480 169 L 483 168 L 485 168 L 485 167 L 487 166 L 489 166 L 489 165 L 489 165 L 489 164 L 490 163 L 490 163 L 490 162 L 492 162 L 492 161 L 492 160 L 493 160 L 499 159 L 506 159 L 506 158 L 507 158 L 511 157 L 514 156 L 515 156 L 515 155 L 517 155 L 519 154 L 519 153 L 519 153 L 519 152 L 519 152 L 519 151 L 519 150 L 520 150 L 520 149 L 521 149 L 525 148 L 525 148 L 525 147 L 525 146 L 525 146 L 526 145 L 526 145 L 526 144 L 526 143 L 526 143 L 526 142 L 526 142 L 526 141 L 532 140 L 535 140 L 535 139 L 536 139 L 543 138 L 551 137 L 553 137 L 557 136 L 561 136 L 569 135 L 572 135 L 575 134 L 576 133 L 576 133 L 576 132 L 576 132 L 576 131 L 576 130 L 576 130 L 578 129 L 580 129 L 591 128 L 594 127 L 598 127 L 606 126 L 613 126 L 617 125 L 621 125 L 627 124 L 627 123 L 640 123 L 653 122 L 653 122 L 662 121 L 663 120 L 670 120 L 671 119 L 675 119 L 675 118 L 676 117 L 676 117 L 680 116 L 682 116 L 686 115 L 691 115 L 692 114 L 693 113 L 694 113 L 699 112 L 704 112 L 704 111 L 709 110 L 715 110 L 716 109 L 716 109 L 718 108 L 720 107 L 721 107 L 725 106 L 729 106 L 732 105 L 736 104 L 736 104 L 743 103 L 744 103 L 748 102 L 754 102 L 754 101 L 761 100 L 762 100 L 762 99 L 764 99 L 765 98 L 768 97 L 768 97 L 771 96 L 775 96 L 776 95 L 777 94 L 777 94 L 788 93 L 788 93 L 789 92 L 789 92 L 790 91 L 791 90 L 791 90 L 792 89 L 793 89 L 795 88 L 795 87 L 797 87 L 798 86 L 799 86 L 800 85 L 801 84 L 801 84 L 802 83 L 802 83 L 802 82 L 804 82 L 804 81 L 804 80 L 805 80 L 806 79 L 808 79 L 808 78 L 808 77 L 809 77 L 810 76 L 812 76 L 813 75 L 814 74 L 815 74 L 816 73 L 818 73 L 819 72 L 819 71 L 820 71 L 822 70 L 823 70 L 823 69 L 823 69 L 824 68 L 824 67 L 824 67 L 825 66 L 825 66 L 827 65 L 831 64 L 833 64 L 835 63 L 835 63 L 838 62 L 840 61 L 841 61 L 844 60 L 848 60 L 851 59 L 854 59 L 855 58 L 856 57 L 856 57 L 856 56 L 857 56 L 858 55 L 858 54 L 859 54 L 859 53 L 859 53 L 860 52 L 862 51 L 863 51 L 863 50 L 865 50 L 865 49 L 869 49 L 869 48 L 869 47 L 871 47 L 872 46 L 875 46 L 879 45 L 884 44 L 885 44 L 885 43 L 885 43 L 888 42 L 891 41 L 892 41 L 892 40 L 892 40 L 893 39 L 895 38 L 899 38 L 900 37 L 900 37 L 900 36 L 903 36 L 904 35 L 904 34 L 904 34 L 904 33 L 908 33 L 913 32 L 913 31 L 919 31 L 919 30 L 920 30 L 925 29 L 927 28 L 931 28 L 933 27 L 936 27 L 937 26 L 937 26 L 938 25 L 938 24 L 938 24 L 939 23 L 940 23 L 940 22 L 940 21 L 942 21 L 942 20 L 942 20 L 944 19 L 945 18 L 945 18"></path><path stroke-width="2" d="M 945 346 L 945.000000 15.000000" /><path stroke-width="2" d="M 945 346 L 945.000000 15.000000"></path><path stroke-width="2" d="M 945 346 L 950 346" /><path stroke-width="2" d="M 945 346 L 950 346"></path><text xmlns="http://www.w3.org/2000/svg" x="955" y="352">0</text><path stroke-width="2" d="M 945 308 L 950 308" /><path stroke-width="2" d="M 945 308 L 950 308"></path><text xmlns="http://www.w3.org/2000/svg" x="955" y="314">63</text><path stroke-width="2" d="M 945 272 L 950 272" /><path stroke-width="2" d="M 945 272 L 950 272"></path><text y="278" xmlns="http://www.w3.org/2000/svg" x="955">125</text><path stroke-width="2" d="M 945 235 L 950 235" /><path stroke-width="2" d="M 945 235 L 950 235"></path><text xmlns="http://www.w3.org/2000/svg" x="955" y="241">187</text><path stroke-width="2" d="M 945 199 L 950 199" /><path stroke-width="2" d="M 945 199 L 950 199"></path><text xmlns="http://www.w3.org/2000/svg" x="955" y="205">249</text><path stroke-width="2" d="M 945 162 L 950 162" /><path stroke-width="2" d="M 945 162 L 950 162"></path><text xmlns="http://www.w3.org/2000/svg" x="955" y="168">312</text><path stroke-width="2" d="M 945 125 L 950 125" /><path stroke-width="2" d="M 945 125 L 950 125"></path><text xmlns="http://www.w3.org/2000/svg" x="955" y="131">374</text><path stroke-width="2" d="M 945 89 L 950 89" /><path d="M 945 89 L 950 89" stroke-width="2"></path><text xmlns="http://www.w3.org/2000/svg" x="955" y="95">436</text><path stroke-width="2" d="M 945 52 L 950 52" /><path stroke-width="2" d="M 945 52 L 950 52"></path><text xmlns="http://www.w3.org/2000/svg" x="955" y="58">498</text><path stroke-width="2" d="M 945 16 L 950 16" /><path stroke-width="2" d="M 945 16 L 950 16"></path><text x="955" y="22" xmlns="http://www.w3.org/2000/svg">560</text><text y="175" transform="rotate(90.00,987,175)" xmlns="http://www.w3.org/2000/svg" x="987">Stargazers</text><path stroke-width="2" d="M 57.000000 346.000000 L 945 346" /><path stroke-width="2" d="M 57.000000 346.000000 L 945 346"></path><path stroke-width="2" d="M 58 346 L 58 351" /><path stroke-width="2" d="M 58 346 L 58 351"></path><text xmlns="http://www.w3.org/2000/svg" x="25" y="368">2023-04-02</text><path stroke-width="2" d="M 157 346 L 157 351" /><path stroke-width="2" d="M 157 346 L 157 351"></path><text xmlns="http://www.w3.org/2000/svg" x="124" y="368">2023-05-27</text><path stroke-width="2" d="M 256 346 L 256 351" /><path d="M 256 346 L 256 351" stroke-width="2"></path><text xmlns="http://www.w3.org/2000/svg" x="223" y="368">2023-07-21</text><path stroke-width="2" d="M 354 346 L 354 351" /><path stroke-width="2" d="M 354 346 L 354 351"></path><text xmlns="http://www.w3.org/2000/svg" x="321" y="368">2023-09-14</text><path stroke-width="2" d="M 453 346 L 453 351" /><path stroke-width="2" d="M 453 346 L 453 351"></path><text xmlns="http://www.w3.org/2000/svg" x="420" y="368">2023-11-08</text><path stroke-width="2" d="M 551 346 L 551 351" /><path stroke-width="2" d="M 551 346 L 551 351"></path><text xmlns="http://www.w3.org/2000/svg" x="518" y="368">2024-01-02</text><path stroke-width="2" d="M 650 346 L 650 351" /><path stroke-width="2" d="M 650 346 L 650 351"></path><text xmlns="http://www.w3.org/2000/svg" x="617" y="368">2024-02-26</text><path stroke-width="2" d="M 748 346 L 748 351" /><path stroke-width="2" d="M 748 346 L 748 351"></path><text xmlns="http://www.w3.org/2000/svg" x="715" y="368">2024-04-21</text><path d="M 847 346 L 847 351" stroke-width="2" /><path stroke-width="2" d="M 847 346 L 847 351"></path><text xmlns="http://www.w3.org/2000/svg" x="814" y="368">2024-06-15</text><path stroke-width="2" d="M 945 346 L 945 351" /><path stroke-width="2" d="M 945 346 L 945 351"></path><text xmlns="http://www.w3.org/2000/svg" x="912" y="368">2024-08-09</text><text xmlns="http://www.w3.org/2000/svg" x="487" y="390">Time</text></svg>