<svg width="1024px" height="400px" xmlns="http://www.w3.org/2000/svg" xmlns:xlink="http://www.w3.org/1999/xlink"><style type="text/css">
path { fill: none; stroke: rgb(51,51,51); }
path.series { stroke: #6b63ff; }
rect.background { fill: rgb(255,255,255); stroke: none; }

text {
	stroke-width: 0;
	stroke: none;
	fill: rgba(51,51,51,1.0);
	font-size: 12.8px;
	font-family: 'Roboto Medium', sans-serif;
}
</style><rect width="1024px" height="400px" class="background" rx="8" x="0" y="0" /><rect x="0" y="0" width="1024px" height="400px" class="background" rx="8"></rect><path class="series" d="M 58 345 L 61 345 L 76 344 L 77 344 L 77 344 L 77 343 L 77 343 L 77 342 L 77 342 L 77 342 L 77 341 L 77 341 L 77 341 L 77 340 L 77 340 L 77 339 L 77 339 L 78 339 L 78 338 L 79 338 L 79 338 L 79 337 L 80 337 L 81 336 L 81 336 L 81 336 L 82 335 L 83 335 L 84 335 L 84 334 L 85 334 L 87 333 L 91 333 L 92 333 L 92 332 L 92 332 L 92 331 L 95 331 L 96 331 L 97 330 L 99 330 L 103 330 L 104 329 L 111 329 L 113 328 L 117 328 L 121 328 L 123 327 L 137 327 L 138 327 L 138 326 L 140 326 L 140 325 L 140 325 L 140 325 L 140 324 L 140 324 L 140 324 L 140 323 L 140 323 L 141 322 L 141 322 L 141 322 L 141 321 L 141 321 L 141 320 L 141 320 L 141 320 L 141 319 L 141 319 L 141 319 L 141 318 L 141 318 L 141 317 L 141 317 L 141 317 L 141 316 L 141 316 L 141 316 L 141 315 L 141 315 L 141 314 L 141 314 L 141 314 L 141 313 L 141 313 L 141 313 L 141 312 L 141 312 L 141 311 L 141 311 L 141 311 L 141 310 L 141 310 L 141 309 L 142 309 L 142 309 L 142 308 L 142 308 L 142 308 L 142 307 L 142 307 L 142 306 L 143 306 L 143 306 L 144 305 L 144 305 L 144 305 L 144 304 L 144 304 L 144 303 L 144 303 L 144 303 L 144 302 L 144 302 L 144 302 L 144 301 L 144 301 L 144 300 L 144 300 L 144 300 L 144 299 L 144 299 L 145 298 L 145 298 L 145 298 L 145 297 L 149 297 L 149 297 L 149 296 L 150 296 L 150 295 L 153 295 L 155 295 L 156 294 L 158 294 L 159 294 L 160 293 L 161 293 L 161 292 L 163 292 L 164 292 L 164 291 L 165 291 L 166 291 L 167 290 L 167 290 L 167 289 L 168 289 L 169 289 L 170 288 L 170 288 L 170 287 L 171 287 L 171 287 L 172 286 L 173 286 L 175 286 L 177 285 L 178 285 L 178 284 L 179 284 L 179 284 L 180 283 L 181 283 L 187 283 L 188 282 L 189 282 L 195 281 L 195 281 L 195 281 L 195 280 L 195 280 L 196 280 L 198 279 L 199 279 L 199 278 L 206 278 L 208 278 L 209 277 L 212 277 L 213 276 L 213 276 L 214 276 L 219 275 L 225 275 L 231 275 L 232 274 L 232 274 L 232 273 L 232 273 L 234 273 L 242 272 L 246 272 L 247 272 L 250 271 L 250 271 L 251 270 L 260 270 L 260 270 L 261 269 L 262 269 L 263 269 L 265 268 L 266 268 L 268 267 L 270 267 L 272 267 L 277 266 L 277 266 L 278 265 L 278 265 L 279 265 L 279 264 L 282 264 L 287 264 L 299 263 L 303 263 L 306 262 L 306 262 L 308 262 L 309 261 L 309 261 L 309 261 L 309 260 L 309 260 L 309 259 L 309 259 L 309 259 L 309 258 L 309 258 L 309 258 L 309 257 L 309 257 L 310 256 L 310 256 L 312 256 L 312 255 L 313 255 L 313 254 L 313 254 L 314 254 L 314 253 L 314 253 L 314 253 L 314 252 L 314 252 L 314 251 L 315 251 L 316 251 L 316 250 L 317 250 L 317 250 L 317 249 L 317 249 L 318 248 L 318 248 L 318 248 L 318 247 L 319 247 L 319 247 L 319 246 L 320 246 L 321 245 L 322 245 L 323 245 L 326 244 L 326 244 L 326 243 L 327 243 L 327 243 L 327 242 L 327 242 L 328 242 L 329 241 L 331 241 L 331 240 L 332 240 L 333 240 L 335 239 L 335 239 L 337 239 L 338 238 L 338 238 L 339 237 L 339 237 L 344 237 L 345 236 L 345 236 L 348 236 L 350 235 L 354 235 L 355 234 L 355 234 L 356 234 L 356 233 L 356 233 L 359 232 L 361 232 L 363 232 L 363 231 L 364 231 L 365 231 L 365 230 L 365 230 L 366 229 L 366 229 L 366 229 L 366 228 L 368 228 L 368 228 L 368 227 L 369 227 L 373 226 L 378 226 L 378 226 L 378 225 L 381 225 L 383 225 L 384 224 L 384 224 L 386 223 L 387 223 L 387 223 L 387 222 L 387 222 L 387 221 L 387 221 L 387 221 L 388 220 L 388 220 L 388 220 L 391 219 L 391 219 L 391 218 L 391 218 L 391 218 L 392 217 L 392 217 L 392 217 L 392 216 L 392 216 L 392 215 L 392 215 L 392 215 L 396 214 L 398 214 L 398 214 L 399 213 L 410 213 L 411 212 L 414 212 L 416 212 L 423 211 L 425 211 L 427 210 L 427 210 L 427 210 L 427 209 L 428 209 L 428 209 L 428 208 L 428 208 L 429 207 L 430 207 L 438 207 L 440 206 L 443 206 L 449 206 L 454 205 L 457 205 L 460 204 L 464 204 L 464 204 L 473 203 L 483 203 L 483 203 L 489 202 L 489 202 L 495 201 L 495 201 L 498 201 L 498 200 L 499 200 L 499 199 L 502 199 L 503 199 L 506 198 L 509 198 L 510 198 L 511 197 L 512 197 L 515 196 L 518 196 L 519 196 L 523 195 L 526 195 L 527 195 L 527 194 L 529 194 L 530 193 L 531 193 L 534 193 L 537 192 L 539 192 L 541 192 L 542 191 L 547 191 L 548 190 L 550 190 L 555 190 L 555 189 L 560 189 L 560 188 L 560 188 L 562 188 L 562 187 L 564 187 L 565 187 L 567 186 L 570 186 L 570 185 L 571 185 L 571 185 L 579 184 L 579 184 L 579 184 L 580 183 L 580 183 L 581 182 L 581 182 L 581 182 L 582 181 L 584 181 L 584 181 L 585 180 L 586 180 L 587 179 L 587 179 L 588 179 L 588 178 L 589 178 L 589 177 L 589 177 L 590 177 L 590 176 L 590 176 L 590 176 L 591 175 L 593 175 L 593 174 L 593 174 L 594 174 L 594 173 L 596 173 L 597 173 L 597 172 L 598 172 L 599 171 L 600 171 L 600 171 L 601 170 L 601 170 L 603 170 L 603 169 L 603 169 L 604 168 L 604 168 L 604 168 L 604 167 L 605 167 L 605 166 L 606 166 L 610 166 L 611 165 L 612 165 L 612 165 L 615 164 L 616 164 L 617 163 L 619 163 L 621 163 L 624 162 L 626 162 L 627 162 L 627 161 L 627 161 L 627 160 L 628 160 L 628 160 L 628 159 L 629 159 L 629 159 L 629 158 L 630 158 L 631 157 L 632 157 L 632 157 L 633 156 L 633 156 L 636 155 L 637 155 L 637 155 L 638 154 L 638 154 L 641 154 L 643 153 L 647 153 L 647 152 L 648 152 L 648 152 L 650 151 L 652 151 L 653 151 L 653 150 L 653 150 L 653 149 L 655 149 L 658 149 L 659 148 L 659 148 L 659 148 L 661 147 L 661 147 L 661 146 L 662 146 L 664 146 L 668 145 L 668 145 L 672 144 L 672 144 L 673 144 L 677 143 L 678 143 L 680 143 L 682 142 L 684 142 L 685 141 L 685 141 L 686 141 L 686 140 L 686 140 L 686 140 L 687 139 L 687 139 L 687 138 L 688 138 L 688 138 L 688 137 L 690 137 L 691 137 L 691 136 L 696 136 L 696 135 L 701 135 L 704 135 L 704 134 L 705 134 L 705 133 L 708 133 L 709 133 L 709 132 L 709 132 L 710 132 L 710 131 L 710 131 L 710 130 L 710 130 L 711 130 L 711 129 L 711 129 L 711 129 L 712 128 L 712 128 L 713 127 L 713 127 L 714 127 L 714 126 L 715 126 L 716 126 L 717 125 L 717 125 L 717 124 L 718 124 L 719 124 L 722 123 L 722 123 L 722 122 L 722 122 L 722 122 L 723 121 L 723 121 L 723 121 L 724 120 L 727 120 L 729 119 L 732 119 L 733 119 L 735 118 L 738 118 L 742 118 L 742 117 L 745 117 L 749 116 L 749 116 L 750 116 L 755 115 L 756 115 L 757 115 L 757 114 L 757 114 L 766 113 L 767 113 L 767 113 L 768 112 L 768 112 L 769 111 L 770 111 L 770 111 L 771 110 L 771 110 L 772 110 L 772 109 L 773 109 L 773 108 L 773 108 L 773 108 L 773 107 L 773 107 L 773 107 L 775 106 L 777 106 L 778 105 L 778 105 L 778 105 L 779 104 L 779 104 L 780 104 L 781 103 L 782 103 L 782 102 L 782 102 L 782 102 L 784 101 L 784 101 L 786 100 L 786 100 L 787 100 L 787 99 L 788 99 L 788 99 L 788 98 L 788 98 L 789 97 L 789 97 L 790 97 L 791 96 L 791 96 L 792 96 L 793 95 L 793 95 L 793 94 L 793 94 L 794 94 L 794 93 L 794 93 L 794 92 L 796 92 L 796 92 L 796 91 L 797 91 L 797 91 L 797 90 L 797 90 L 797 89 L 797 89 L 798 89 L 798 88 L 798 88 L 798 88 L 798 87 L 801 87 L 802 86 L 804 86 L 805 86 L 805 85 L 805 85 L 806 85 L 807 84 L 808 84 L 808 83 L 811 83 L 814 83 L 814 82 L 815 82 L 816 82 L 816 81 L 817 81 L 817 80 L 818 80 L 818 80 L 818 79 L 818 79 L 818 78 L 818 78 L 818 78 L 819 77 L 819 77 L 819 77 L 819 76 L 819 76 L 819 75 L 820 75 L 820 75 L 820 74 L 821 74 L 822 74 L 823 73 L 824 73 L 824 72 L 824 72 L 826 72 L 826 71 L 827 71 L 829 71 L 830 70 L 830 70 L 830 69 L 830 69 L 831 69 L 833 68 L 835 68 L 836 67 L 838 67 L 838 67 L 838 66 L 838 66 L 839 66 L 844 65 L 846 65 L 850 64 L 851 64 L 852 64 L 853 63 L 854 63 L 854 63 L 855 62 L 855 62 L 855 61 L 856 61 L 857 61 L 857 60 L 858 60 L 861 60 L 861 59 L 861 59 L 861 58 L 861 58 L 861 58 L 861 57 L 861 57 L 861 56 L 861 56 L 861 56 L 861 55 L 861 55 L 861 55 L 861 54 L 861 54 L 861 53 L 862 53 L 862 53 L 862 52 L 862 52 L 862 52 L 862 51 L 863 51 L 863 50 L 863 50 L 863 50 L 865 49 L 865 49 L 865 49 L 865 48 L 865 48 L 865 47 L 866 47 L 867 47 L 870 46 L 870 46 L 870 45 L 872 45 L 872 45 L 872 44 L 873 44 L 875 44 L 876 43 L 878 43 L 878 42 L 878 42 L 878 42 L 878 41 L 878 41 L 878 41 L 880 40 L 880 40 L 880 39 L 884 39 L 886 39 L 888 38 L 890 38 L 892 38 L 892 37 L 893 37 L 893 36 L 893 36 L 893 36 L 894 35 L 894 35 L 895 34 L 896 34 L 896 34 L 896 33 L 896 33 L 897 33 L 897 32 L 897 32 L 897 31 L 897 31 L 898 31 L 898 30 L 898 30 L 900 30 L 900 29 L 900 29 L 901 28 L 901 28 L 902 28 L 902 27 L 903 27 L 903 27 L 903 26 L 904 26 L 905 25 L 906 25 L 910 25 L 911 24 L 912 24 L 915 23 L 916 23 L 917 23 L 920 22 L 921 22 L 922 22 L 925 21 L 931 21 L 931 20 L 933 20 L 935 20 L 937 19 L 938 19 L 938 19 L 940 18 L 941 18 L 942 17 L 942 17 L 944 17 L 945 16" stroke-width="2" /><path stroke-width="2" class="series" d="M 58 345 L 61 345 L 76 344 L 77 344 L 77 344 L 77 343 L 77 343 L 77 342 L 77 342 L 77 342 L 77 341 L 77 341 L 77 341 L 77 340 L 77 340 L 77 339 L 77 339 L 78 339 L 78 338 L 79 338 L 79 338 L 79 337 L 80 337 L 81 336 L 81 336 L 81 336 L 82 335 L 83 335 L 84 335 L 84 334 L 85 334 L 87 333 L 91 333 L 92 333 L 92 332 L 92 332 L 92 331 L 95 331 L 96 331 L 97 330 L 99 330 L 103 330 L 104 329 L 111 329 L 113 328 L 117 328 L 121 328 L 123 327 L 137 327 L 138 327 L 138 326 L 140 326 L 140 325 L 140 325 L 140 325 L 140 324 L 140 324 L 140 324 L 140 323 L 140 323 L 141 322 L 141 322 L 141 322 L 141 321 L 141 321 L 141 320 L 141 320 L 141 320 L 141 319 L 141 319 L 141 319 L 141 318 L 141 318 L 141 317 L 141 317 L 141 317 L 141 316 L 141 316 L 141 316 L 141 315 L 141 315 L 141 314 L 141 314 L 141 314 L 141 313 L 141 313 L 141 313 L 141 312 L 141 312 L 141 311 L 141 311 L 141 311 L 141 310 L 141 310 L 141 309 L 142 309 L 142 309 L 142 308 L 142 308 L 142 308 L 142 307 L 142 307 L 142 306 L 143 306 L 143 306 L 144 305 L 144 305 L 144 305 L 144 304 L 144 304 L 144 303 L 144 303 L 144 303 L 144 302 L 144 302 L 144 302 L 144 301 L 144 301 L 144 300 L 144 300 L 144 300 L 144 299 L 144 299 L 145 298 L 145 298 L 145 298 L 145 297 L 149 297 L 149 297 L 149 296 L 150 296 L 150 295 L 153 295 L 155 295 L 156 294 L 158 294 L 159 294 L 160 293 L 161 293 L 161 292 L 163 292 L 164 292 L 164 291 L 165 291 L 166 291 L 167 290 L 167 290 L 167 289 L 168 289 L 169 289 L 170 288 L 170 288 L 170 287 L 171 287 L 171 287 L 172 286 L 173 286 L 175 286 L 177 285 L 178 285 L 178 284 L 179 284 L 179 284 L 180 283 L 181 283 L 187 283 L 188 282 L 189 282 L 195 281 L 195 281 L 195 281 L 195 280 L 195 280 L 196 280 L 198 279 L 199 279 L 199 278 L 206 278 L 208 278 L 209 277 L 212 277 L 213 276 L 213 276 L 214 276 L 219 275 L 225 275 L 231 275 L 232 274 L 232 274 L 232 273 L 232 273 L 234 273 L 242 272 L 246 272 L 247 272 L 250 271 L 250 271 L 251 270 L 260 270 L 260 270 L 261 269 L 262 269 L 263 269 L 265 268 L 266 268 L 268 267 L 270 267 L 272 267 L 277 266 L 277 266 L 278 265 L 278 265 L 279 265 L 279 264 L 282 264 L 287 264 L 299 263 L 303 263 L 306 262 L 306 262 L 308 262 L 309 261 L 309 261 L 309 261 L 309 260 L 309 260 L 309 259 L 309 259 L 309 259 L 309 258 L 309 258 L 309 258 L 309 257 L 309 257 L 310 256 L 310 256 L 312 256 L 312 255 L 313 255 L 313 254 L 313 254 L 314 254 L 314 253 L 314 253 L 314 253 L 314 252 L 314 252 L 314 251 L 315 251 L 316 251 L 316 250 L 317 250 L 317 250 L 317 249 L 317 249 L 318 248 L 318 248 L 318 248 L 318 247 L 319 247 L 319 247 L 319 246 L 320 246 L 321 245 L 322 245 L 323 245 L 326 244 L 326 244 L 326 243 L 327 243 L 327 243 L 327 242 L 327 242 L 328 242 L 329 241 L 331 241 L 331 240 L 332 240 L 333 240 L 335 239 L 335 239 L 337 239 L 338 238 L 338 238 L 339 237 L 339 237 L 344 237 L 345 236 L 345 236 L 348 236 L 350 235 L 354 235 L 355 234 L 355 234 L 356 234 L 356 233 L 356 233 L 359 232 L 361 232 L 363 232 L 363 231 L 364 231 L 365 231 L 365 230 L 365 230 L 366 229 L 366 229 L 366 229 L 366 228 L 368 228 L 368 228 L 368 227 L 369 227 L 373 226 L 378 226 L 378 226 L 378 225 L 381 225 L 383 225 L 384 224 L 384 224 L 386 223 L 387 223 L 387 223 L 387 222 L 387 222 L 387 221 L 387 221 L 387 221 L 388 220 L 388 220 L 388 220 L 391 219 L 391 219 L 391 218 L 391 218 L 391 218 L 392 217 L 392 217 L 392 217 L 392 216 L 392 216 L 392 215 L 392 215 L 392 215 L 396 214 L 398 214 L 398 214 L 399 213 L 410 213 L 411 212 L 414 212 L 416 212 L 423 211 L 425 211 L 427 210 L 427 210 L 427 210 L 427 209 L 428 209 L 428 209 L 428 208 L 428 208 L 429 207 L 430 207 L 438 207 L 440 206 L 443 206 L 449 206 L 454 205 L 457 205 L 460 204 L 464 204 L 464 204 L 473 203 L 483 203 L 483 203 L 489 202 L 489 202 L 495 201 L 495 201 L 498 201 L 498 200 L 499 200 L 499 199 L 502 199 L 503 199 L 506 198 L 509 198 L 510 198 L 511 197 L 512 197 L 515 196 L 518 196 L 519 196 L 523 195 L 526 195 L 527 195 L 527 194 L 529 194 L 530 193 L 531 193 L 534 193 L 537 192 L 539 192 L 541 192 L 542 191 L 547 191 L 548 190 L 550 190 L 555 190 L 555 189 L 560 189 L 560 188 L 560 188 L 562 188 L 562 187 L 564 187 L 565 187 L 567 186 L 570 186 L 570 185 L 571 185 L 571 185 L 579 184 L 579 184 L 579 184 L 580 183 L 580 183 L 581 182 L 581 182 L 581 182 L 582 181 L 584 181 L 584 181 L 585 180 L 586 180 L 587 179 L 587 179 L 588 179 L 588 178 L 589 178 L 589 177 L 589 177 L 590 177 L 590 176 L 590 176 L 590 176 L 591 175 L 593 175 L 593 174 L 593 174 L 594 174 L 594 173 L 596 173 L 597 173 L 597 172 L 598 172 L 599 171 L 600 171 L 600 171 L 601 170 L 601 170 L 603 170 L 603 169 L 603 169 L 604 168 L 604 168 L 604 168 L 604 167 L 605 167 L 605 166 L 606 166 L 610 166 L 611 165 L 612 165 L 612 165 L 615 164 L 616 164 L 617 163 L 619 163 L 621 163 L 624 162 L 626 162 L 627 162 L 627 161 L 627 161 L 627 160 L 628 160 L 628 160 L 628 159 L 629 159 L 629 159 L 629 158 L 630 158 L 631 157 L 632 157 L 632 157 L 633 156 L 633 156 L 636 155 L 637 155 L 637 155 L 638 154 L 638 154 L 641 154 L 643 153 L 647 153 L 647 152 L 648 152 L 648 152 L 650 151 L 652 151 L 653 151 L 653 150 L 653 150 L 653 149 L 655 149 L 658 149 L 659 148 L 659 148 L 659 148 L 661 147 L 661 147 L 661 146 L 662 146 L 664 146 L 668 145 L 668 145 L 672 144 L 672 144 L 673 144 L 677 143 L 678 143 L 680 143 L 682 142 L 684 142 L 685 141 L 685 141 L 686 141 L 686 140 L 686 140 L 686 140 L 687 139 L 687 139 L 687 138 L 688 138 L 688 138 L 688 137 L 690 137 L 691 137 L 691 136 L 696 136 L 696 135 L 701 135 L 704 135 L 704 134 L 705 134 L 705 133 L 708 133 L 709 133 L 709 132 L 709 132 L 710 132 L 710 131 L 710 131 L 710 130 L 710 130 L 711 130 L 711 129 L 711 129 L 711 129 L 712 128 L 712 128 L 713 127 L 713 127 L 714 127 L 714 126 L 715 126 L 716 126 L 717 125 L 717 125 L 717 124 L 718 124 L 719 124 L 722 123 L 722 123 L 722 122 L 722 122 L 722 122 L 723 121 L 723 121 L 723 121 L 724 120 L 727 120 L 729 119 L 732 119 L 733 119 L 735 118 L 738 118 L 742 118 L 742 117 L 745 117 L 749 116 L 749 116 L 750 116 L 755 115 L 756 115 L 757 115 L 757 114 L 757 114 L 766 113 L 767 113 L 767 113 L 768 112 L 768 112 L 769 111 L 770 111 L 770 111 L 771 110 L 771 110 L 772 110 L 772 109 L 773 109 L 773 108 L 773 108 L 773 108 L 773 107 L 773 107 L 773 107 L 775 106 L 777 106 L 778 105 L 778 105 L 778 105 L 779 104 L 779 104 L 780 104 L 781 103 L 782 103 L 782 102 L 782 102 L 782 102 L 784 101 L 784 101 L 786 100 L 786 100 L 787 100 L 787 99 L 788 99 L 788 99 L 788 98 L 788 98 L 789 97 L 789 97 L 790 97 L 791 96 L 791 96 L 792 96 L 793 95 L 793 95 L 793 94 L 793 94 L 794 94 L 794 93 L 794 93 L 794 92 L 796 92 L 796 92 L 796 91 L 797 91 L 797 91 L 797 90 L 797 90 L 797 89 L 797 89 L 798 89 L 798 88 L 798 88 L 798 88 L 798 87 L 801 87 L 802 86 L 804 86 L 805 86 L 805 85 L 805 85 L 806 85 L 807 84 L 808 84 L 808 83 L 811 83 L 814 83 L 814 82 L 815 82 L 816 82 L 816 81 L 817 81 L 817 80 L 818 80 L 818 80 L 818 79 L 818 79 L 818 78 L 818 78 L 818 78 L 819 77 L 819 77 L 819 77 L 819 76 L 819 76 L 819 75 L 820 75 L 820 75 L 820 74 L 821 74 L 822 74 L 823 73 L 824 73 L 824 72 L 824 72 L 826 72 L 826 71 L 827 71 L 829 71 L 830 70 L 830 70 L 830 69 L 830 69 L 831 69 L 833 68 L 835 68 L 836 67 L 838 67 L 838 67 L 838 66 L 838 66 L 839 66 L 844 65 L 846 65 L 850 64 L 851 64 L 852 64 L 853 63 L 854 63 L 854 63 L 855 62 L 855 62 L 855 61 L 856 61 L 857 61 L 857 60 L 858 60 L 861 60 L 861 59 L 861 59 L 861 58 L 861 58 L 861 58 L 861 57 L 861 57 L 861 56 L 861 56 L 861 56 L 861 55 L 861 55 L 861 55 L 861 54 L 861 54 L 861 53 L 862 53 L 862 53 L 862 52 L 862 52 L 862 52 L 862 51 L 863 51 L 863 50 L 863 50 L 863 50 L 865 49 L 865 49 L 865 49 L 865 48 L 865 48 L 865 47 L 866 47 L 867 47 L 870 46 L 870 46 L 870 45 L 872 45 L 872 45 L 872 44 L 873 44 L 875 44 L 876 43 L 878 43 L 878 42 L 878 42 L 878 42 L 878 41 L 878 41 L 878 41 L 880 40 L 880 40 L 880 39 L 884 39 L 886 39 L 888 38 L 890 38 L 892 38 L 892 37 L 893 37 L 893 36 L 893 36 L 893 36 L 894 35 L 894 35 L 895 34 L 896 34 L 896 34 L 896 33 L 896 33 L 897 33 L 897 32 L 897 32 L 897 31 L 897 31 L 898 31 L 898 30 L 898 30 L 900 30 L 900 29 L 900 29 L 901 28 L 901 28 L 902 28 L 902 27 L 903 27 L 903 27 L 903 26 L 904 26 L 905 25 L 906 25 L 910 25 L 911 24 L 912 24 L 915 23 L 916 23 L 917 23 L 920 22 L 921 22 L 922 22 L 925 21 L 931 21 L 931 20 L 933 20 L 935 20 L 937 19 L 938 19 L 938 19 L 940 18 L 941 18 L 942 17 L 942 17 L 944 17 L 945 16"></path><path stroke-width="2" d="M 945 346 L 945.000000 15.000000" /><path stroke-width="2" d="M 945 346 L 945.000000 15.000000"></path><path stroke-width="2" d="M 945 346 L 950 346" /><path stroke-width="2" d="M 945 346 L 950 346"></path><text xmlns="http://www.w3.org/2000/svg" x="955" y="352">0</text><path stroke-width="2" d="M 945 309 L 950 309" /><path stroke-width="2" d="M 945 309 L 950 309"></path><text x="955" y="315" xmlns="http://www.w3.org/2000/svg">97</text><path stroke-width="2" d="M 945 272 L 950 272" /><path stroke-width="2" d="M 945 272 L 950 272"></path><text xmlns="http://www.w3.org/2000/svg" x="955" y="278">194</text><path stroke-width="2" d="M 945 236 L 950 236" /><path d="M 945 236 L 950 236" stroke-width="2"></path><text xmlns="http://www.w3.org/2000/svg" x="955" y="242">290</text><path stroke-width="2" d="M 945 199 L 950 199" /><path stroke-width="2" d="M 945 199 L 950 199"></path><text xmlns="http://www.w3.org/2000/svg" x="955" y="205">387</text><path stroke-width="2" d="M 945 162 L 950 162" /><path stroke-width="2" d="M 945 162 L 950 162"></path><text xmlns="http://www.w3.org/2000/svg" x="955" y="168">484</text><path stroke-width="2" d="M 945 126 L 950 126" /><path d="M 945 126 L 950 126" stroke-width="2"></path><text xmlns="http://www.w3.org/2000/svg" x="955" y="132">580</text><path stroke-width="2" d="M 945 89 L 950 89" /><path stroke-width="2" d="M 945 89 L 950 89"></path><text xmlns="http://www.w3.org/2000/svg" x="955" y="95">677</text><path stroke-width="2" d="M 945 52 L 950 52" /><path stroke-width="2" d="M 945 52 L 950 52"></path><text xmlns="http://www.w3.org/2000/svg" x="955" y="58">774</text><path stroke-width="2" d="M 945 16 L 950 16" /><path stroke-width="2" d="M 945 16 L 950 16"></path><text xmlns="http://www.w3.org/2000/svg" x="955" y="22">870</text><text xmlns="http://www.w3.org/2000/svg" x="987" y="175" transform="rotate(90.00,987,175)">Stargazers</text><path stroke-width="2" d="M 57.000000 346.000000 L 945 346" /><path stroke-width="2" d="M 57.000000 346.000000 L 945 346"></path><path stroke-width="2" d="M 58 346 L 58 351" /><path stroke-width="2" d="M 58 346 L 58 351"></path><text x="25" y="368" xmlns="http://www.w3.org/2000/svg">2023-04-02</text><path stroke-width="2" d="M 157 346 L 157 351" /><path stroke-width="2" d="M 157 346 L 157 351"></path><text xmlns="http://www.w3.org/2000/svg" x="124" y="368">2023-06-18</text><path stroke-width="2" d="M 256 346 L 256 351" /><path stroke-width="2" d="M 256 346 L 256 351"></path><text xmlns="http://www.w3.org/2000/svg" x="223" y="368">2023-09-03</text><path stroke-width="2" d="M 354 346 L 354 351" /><path stroke-width="2" d="M 354 346 L 354 351"></path><text y="368" xmlns="http://www.w3.org/2000/svg" x="321">2023-11-19</text><path d="M 453 346 L 453 351" stroke-width="2" /><path stroke-width="2" d="M 453 346 L 453 351"></path><text y="368" xmlns="http://www.w3.org/2000/svg" x="420">2024-02-04</text><path stroke-width="2" d="M 551 346 L 551 351" /><path d="M 551 346 L 551 351" stroke-width="2"></path><text x="518" y="368" xmlns="http://www.w3.org/2000/svg">2024-04-22</text><path stroke-width="2" d="M 650 346 L 650 351" /><path stroke-width="2" d="M 650 346 L 650 351"></path><text y="368" xmlns="http://www.w3.org/2000/svg" x="617">2024-07-08</text><path stroke-width="2" d="M 748 346 L 748 351" /><path stroke-width="2" d="M 748 346 L 748 351"></path><text xmlns="http://www.w3.org/2000/svg" x="715" y="368">2024-09-23</text><path stroke-width="2" d="M 847 346 L 847 351" /><path stroke-width="2" d="M 847 346 L 847 351"></path><text xmlns="http://www.w3.org/2000/svg" x="814" y="368">2024-12-09</text><path stroke-width="2" d="M 945 346 L 945 351" /><path stroke-width="2" d="M 945 346 L 945 351"></path><text x="912" y="368" xmlns="http://www.w3.org/2000/svg">2025-02-24</text><text y="390" xmlns="http://www.w3.org/2000/svg" x="487">Time</text></svg>