<svg xmlns="http://www.w3.org/2000/svg" xmlns:xlink="http://www.w3.org/1999/xlink" width="1024px" height="400px"><style type="text/css">
path { fill: none; stroke: rgb(51,51,51); }
path.series { stroke: #6b63ff; }
rect.background { fill: rgb(255,255,255); stroke: none; }

text {
	stroke-width: 0;
	stroke: none;
	fill: rgba(51,51,51,1.0);
	font-size: 12.8px;
	font-family: 'Roboto Medium', sans-serif;
}
</style><rect class="background" rx="8" x="0" y="0" width="1024px" height="400px" /><rect y="0" width="1024px" height="400px" class="background" rx="8" x="0"></rect><path stroke-width="2" class="series" d="M 58 345 L 61 345 L 78 344 L 79 344 L 79 343 L 79 343 L 79 342 L 79 342 L 79 342 L 79 341 L 79 341 L 79 340 L 79 340 L 79 339 L 80 339 L 80 338 L 80 338 L 80 338 L 80 337 L 81 337 L 81 336 L 82 336 L 83 335 L 84 335 L 84 335 L 84 334 L 84 334 L 85 333 L 87 333 L 87 332 L 89 332 L 90 331 L 95 331 L 95 331 L 95 330 L 96 330 L 96 329 L 96 329 L 99 328 L 100 328 L 101 327 L 104 327 L 108 327 L 110 326 L 117 326 L 120 325 L 124 325 L 128 324 L 130 324 L 146 324 L 147 323 L 147 323 L 150 322 L 150 322 L 150 321 L 150 321 L 150 320 L 150 320 L 150 320 L 150 319 L 150 319 L 150 318 L 150 318 L 150 317 L 151 317 L 151 316 L 151 316 L 151 316 L 151 315 L 151 315 L 151 314 L 151 314 L 151 313 L 151 313 L 151 313 L 151 312 L 151 312 L 151 311 L 151 311 L 151 310 L 151 310 L 151 309 L 151 309 L 151 309 L 151 308 L 151 308 L 151 307 L 151 307 L 151 306 L 151 306 L 151 305 L 151 305 L 151 305 L 151 304 L 151 304 L 151 303 L 151 303 L 151 302 L 152 302 L 152 302 L 152 301 L 152 301 L 152 300 L 152 300 L 153 299 L 153 299 L 154 298 L 154 298 L 154 298 L 154 297 L 154 297 L 154 296 L 154 296 L 154 295 L 154 295 L 154 294 L 154 294 L 154 294 L 154 293 L 154 293 L 154 292 L 154 292 L 154 291 L 155 291 L 156 291 L 156 290 L 156 290 L 156 289 L 160 289 L 160 288 L 160 288 L 161 287 L 161 287 L 164 287 L 167 286 L 167 286 L 170 285 L 171 285 L 172 284 L 173 284 L 173 283 L 176 283 L 176 283 L 177 282 L 178 282 L 179 281 L 180 281 L 180 280 L 180 280 L 181 280 L 182 279 L 183 279 L 183 278 L 184 278 L 184 277 L 184 277 L 185 276 L 187 276 L 188 276 L 191 275 L 192 275 L 193 274 L 194 274 L 194 273 L 194 273 L 196 272 L 203 272 L 203 272 L 204 271 L 211 271 L 211 270 L 211 270 L 211 269 L 211 269 L 212 269 L 215 268 L 216 268 L 216 267 L 224 267 L 226 266 L 227 266 L 230 265 L 232 265 L 232 265 L 233 264 L 238 264 L 245 263 L 252 263 L 252 262 L 252 262 L 253 261 L 253 261 L 255 261 L 264 260 L 269 260 L 269 259 L 273 259 L 273 258 L 274 258 L 285 258 L 285 257 L 285 257 L 286 256 L 287 256 L 290 255 L 291 255 L 293 254 L 295 254 L 297 254 L 303 253 L 303 253 L 305 252 L 305 252 L 305 251 L 305 251 L 308 250 L 315 250 L 328 250 L 333 249 L 335 249 L 336 248 L 337 248 L 339 247 L 339 247 L 339 247 L 339 246 L 339 246 L 339 245 L 339 245 L 339 244 L 339 244 L 339 243 L 339 243 L 339 243 L 339 242 L 340 242 L 340 241 L 342 241 L 343 240 L 343 240 L 343 239 L 343 239 L 345 239 L 345 238 L 345 238 L 345 237 L 345 237 L 345 236 L 345 236 L 346 236 L 346 235 L 347 235 L 347 234 L 347 234 L 347 233 L 348 233 L 349 232 L 349 232 L 349 232 L 349 231 L 350 231 L 350 230 L 350 230 L 351 229 L 353 229 L 353 228 L 355 228 L 358 228 L 358 227 L 358 227 L 359 226 L 359 226 L 359 225 L 359 225 L 361 225 L 361 224 L 363 224 L 363 223 L 364 223 L 366 222 L 368 222 L 368 221 L 371 221 L 371 221 L 372 220 L 373 220 L 373 219 L 378 219 L 379 218 L 379 218 L 383 217 L 385 217 L 389 217 L 390 216 L 390 216 L 391 215 L 392 215 L 392 214 L 395 214 L 397 214 L 399 213 L 399 213 L 401 212 L 402 212 L 402 211 L 402 211 L 402 210 L 403 210 L 403 210 L 403 209 L 404 209 L 405 208 L 405 208 L 406 207 L 410 207 L 416 206 L 416 206 L 416 206 L 420 205 L 422 205 L 423 204 L 423 204 L 425 203 L 426 203 L 426 203 L 426 202 L 426 202 L 426 201 L 426 201 L 426 200 L 427 200 L 427 199 L 428 199 L 430 199 L 430 198 L 430 198 L 431 197 L 431 197 L 431 196 L 431 196 L 431 195 L 431 195 L 431 195 L 432 194 L 432 194 L 432 193 L 436 193 L 439 192 L 439 192 L 440 192 L 452 191 L 453 191 L 456 190 L 459 190 L 466 189 L 469 189 L 471 188 L 471 188 L 471 188 L 471 187 L 472 187 L 472 186 L 472 186 L 472 185 L 473 185 L 474 184 L 483 184 L 486 184 L 489 183 L 496 183 L 501 182 L 505 182 L 507 181 L 512 181 L 512 181 L 523 180 L 533 180 L 533 179 L 540 179 L 541 178 L 546 178 L 548 177 L 551 177 L 551 177 L 551 176 L 552 176 L 555 175 L 556 175 L 559 174 L 563 174 L 564 173 L 565 173 L 566 173 L 569 172 L 573 172 L 574 171 L 578 171 L 582 170 L 583 170 L 583 170 L 585 169 L 586 169 L 587 168 L 591 168 L 594 167 L 596 167 L 599 166 L 599 166 L 605 166 L 606 165 L 609 165 L 614 164 L 614 164 L 619 163 L 620 163 L 620 162 L 622 162 L 622 162 L 625 161 L 625 161 L 627 160 L 631 160 L 631 159 L 632 159 L 632 159 L 641 158 L 641 158 L 642 157 L 642 157 L 642 156 L 643 156 L 643 155 L 644 155 L 644 155 L 646 154 L 646 154 L 648 153 L 649 153 L 650 152 L 650 152 L 651 151 L 651 151 L 652 151 L 652 150 L 652 150 L 653 149 L 653 149 L 653 148 L 654 148 L 655 148 L 656 147 L 656 147 L 657 146 L 658 146 L 658 145 L 660 145 L 661 144 L 661 144 L 662 144 L 663 143 L 665 143 L 665 142 L 666 142 L 666 141 L 668 141 L 668 140 L 668 140 L 669 140 L 669 139 L 669 139 L 669 138 L 670 138 L 671 137 L 672 137 L 675 137 L 676 136 L 678 136 L 678 135 L 681 135 L 682 134 L 683 134 L 685 133 L 688 133 L 691 133 L 694 132 L 694 132 L 695 131 L 695 131 L 695 130 L 696 130 L 696 129 L 696 129 L 697 129 L 697 128 L 698 128 L 698 127 L 700 127 L 701 126 L 701 126 L 702 126 L 702 125 L 705 125 L 705 124 L 705 124 L 707 123 L 708 123 L 710 122 L 713 122 L 718 122 L 718 121 L 718 121 L 718 120 L 720 120 L 723 119 L 723 119 L 723 118 L 723 118 L 724 118 L 726 117 L 730 117 L 730 116 L 730 116 L 730 115 L 732 115 L 733 115 L 733 114 L 733 114 L 733 113 L 737 113 L 741 112 L 741 112 L 745 111 L 745 111 L 746 111 L 750 110 L 752 110 L 755 109 L 757 109 L 758 108 L 760 108 L 760 107 L 760 107 L 761 107 L 761 106 L 761 106 L 762 105 L 762 105 L 762 104 L 763 104 L 763 104 L 763 103 L 765 103 L 766 102 L 766 102 L 772 101 L 772 101 L 778 100 L 781 100 L 781 100 L 782 99 L 783 99 L 785 98 L 786 98 L 787 97 L 787 97 L 788 96 L 788 96 L 788 96 L 788 95 L 788 95 L 789 94 L 789 94 L 789 93 L 789 93 L 790 92 L 790 92 L 791 92 L 791 91 L 792 91 L 793 90 L 793 90 L 794 89 L 795 89 L 795 89 L 795 88 L 796 88 L 798 87 L 801 87 L 801 86 L 801 86 L 801 85 L 801 85 L 802 85 L 802 84 L 802 84 L 804 83 L 806 83 L 809 82 L 813 82 L 814 82 L 815 81 L 819 81 L 823 80 L 824 80 L 827 79 L 832 79 L 832 78 L 832 78 L 838 78 L 839 77 L 840 77 L 840 76 L 841 76 L 851 75 L 851 75 L 852 74 L 852 74 L 853 74 L 853 73 L 855 73 L 855 72 L 855 72 L 856 71 L 857 71 L 857 71 L 858 70 L 858 70 L 858 69 L 858 69 L 858 68 L 859 68 L 859 67 L 860 67 L 861 67 L 862 66 L 863 66 L 863 65 L 864 65 L 865 64 L 865 64 L 866 63 L 867 63 L 868 63 L 868 62 L 868 62 L 868 61 L 870 61 L 871 60 L 872 60 L 872 60 L 874 59 L 874 59 L 875 58 L 875 58 L 875 57 L 875 57 L 876 56 L 877 56 L 877 56 L 878 55 L 878 55 L 880 54 L 880 54 L 880 53 L 881 53 L 881 52 L 881 52 L 882 52 L 882 51 L 882 51 L 884 50 L 884 50 L 884 49 L 885 49 L 885 49 L 885 48 L 885 48 L 885 47 L 885 47 L 886 46 L 886 46 L 886 45 L 887 45 L 887 45 L 889 44 L 891 44 L 893 43 L 893 43 L 893 42 L 894 42 L 895 41 L 896 41 L 897 41 L 898 40 L 901 40 L 904 39 L 904 39 L 906 38 L 906 38 L 906 38 L 908 37 L 908 37 L 908 36 L 908 36 L 908 35 L 909 35 L 909 34 L 909 34 L 909 34 L 909 33 L 909 33 L 909 32 L 910 32 L 910 31 L 910 31 L 910 30 L 911 30 L 911 30 L 911 29 L 912 29 L 913 28 L 915 28 L 915 27 L 915 27 L 915 27 L 917 26 L 917 26 L 918 25 L 921 25 L 922 24 L 922 24 L 922 23 L 922 23 L 923 23 L 925 22 L 928 22 L 928 21 L 931 21 L 931 20 L 931 20 L 931 19 L 932 19 L 938 19 L 940 18 L 944 18 L 945 17" /><path class="series" d="M 58 345 L 61 345 L 78 344 L 79 344 L 79 343 L 79 343 L 79 342 L 79 342 L 79 342 L 79 341 L 79 341 L 79 340 L 79 340 L 79 339 L 80 339 L 80 338 L 80 338 L 80 338 L 80 337 L 81 337 L 81 336 L 82 336 L 83 335 L 84 335 L 84 335 L 84 334 L 84 334 L 85 333 L 87 333 L 87 332 L 89 332 L 90 331 L 95 331 L 95 331 L 95 330 L 96 330 L 96 329 L 96 329 L 99 328 L 100 328 L 101 327 L 104 327 L 108 327 L 110 326 L 117 326 L 120 325 L 124 325 L 128 324 L 130 324 L 146 324 L 147 323 L 147 323 L 150 322 L 150 322 L 150 321 L 150 321 L 150 320 L 150 320 L 150 320 L 150 319 L 150 319 L 150 318 L 150 318 L 150 317 L 151 317 L 151 316 L 151 316 L 151 316 L 151 315 L 151 315 L 151 314 L 151 314 L 151 313 L 151 313 L 151 313 L 151 312 L 151 312 L 151 311 L 151 311 L 151 310 L 151 310 L 151 309 L 151 309 L 151 309 L 151 308 L 151 308 L 151 307 L 151 307 L 151 306 L 151 306 L 151 305 L 151 305 L 151 305 L 151 304 L 151 304 L 151 303 L 151 303 L 151 302 L 152 302 L 152 302 L 152 301 L 152 301 L 152 300 L 152 300 L 153 299 L 153 299 L 154 298 L 154 298 L 154 298 L 154 297 L 154 297 L 154 296 L 154 296 L 154 295 L 154 295 L 154 294 L 154 294 L 154 294 L 154 293 L 154 293 L 154 292 L 154 292 L 154 291 L 155 291 L 156 291 L 156 290 L 156 290 L 156 289 L 160 289 L 160 288 L 160 288 L 161 287 L 161 287 L 164 287 L 167 286 L 167 286 L 170 285 L 171 285 L 172 284 L 173 284 L 173 283 L 176 283 L 176 283 L 177 282 L 178 282 L 179 281 L 180 281 L 180 280 L 180 280 L 181 280 L 182 279 L 183 279 L 183 278 L 184 278 L 184 277 L 184 277 L 185 276 L 187 276 L 188 276 L 191 275 L 192 275 L 193 274 L 194 274 L 194 273 L 194 273 L 196 272 L 203 272 L 203 272 L 204 271 L 211 271 L 211 270 L 211 270 L 211 269 L 211 269 L 212 269 L 215 268 L 216 268 L 216 267 L 224 267 L 226 266 L 227 266 L 230 265 L 232 265 L 232 265 L 233 264 L 238 264 L 245 263 L 252 263 L 252 262 L 252 262 L 253 261 L 253 261 L 255 261 L 264 260 L 269 260 L 269 259 L 273 259 L 273 258 L 274 258 L 285 258 L 285 257 L 285 257 L 286 256 L 287 256 L 290 255 L 291 255 L 293 254 L 295 254 L 297 254 L 303 253 L 303 253 L 305 252 L 305 252 L 305 251 L 305 251 L 308 250 L 315 250 L 328 250 L 333 249 L 335 249 L 336 248 L 337 248 L 339 247 L 339 247 L 339 247 L 339 246 L 339 246 L 339 245 L 339 245 L 339 244 L 339 244 L 339 243 L 339 243 L 339 243 L 339 242 L 340 242 L 340 241 L 342 241 L 343 240 L 343 240 L 343 239 L 343 239 L 345 239 L 345 238 L 345 238 L 345 237 L 345 237 L 345 236 L 345 236 L 346 236 L 346 235 L 347 235 L 347 234 L 347 234 L 347 233 L 348 233 L 349 232 L 349 232 L 349 232 L 349 231 L 350 231 L 350 230 L 350 230 L 351 229 L 353 229 L 353 228 L 355 228 L 358 228 L 358 227 L 358 227 L 359 226 L 359 226 L 359 225 L 359 225 L 361 225 L 361 224 L 363 224 L 363 223 L 364 223 L 366 222 L 368 222 L 368 221 L 371 221 L 371 221 L 372 220 L 373 220 L 373 219 L 378 219 L 379 218 L 379 218 L 383 217 L 385 217 L 389 217 L 390 216 L 390 216 L 391 215 L 392 215 L 392 214 L 395 214 L 397 214 L 399 213 L 399 213 L 401 212 L 402 212 L 402 211 L 402 211 L 402 210 L 403 210 L 403 210 L 403 209 L 404 209 L 405 208 L 405 208 L 406 207 L 410 207 L 416 206 L 416 206 L 416 206 L 420 205 L 422 205 L 423 204 L 423 204 L 425 203 L 426 203 L 426 203 L 426 202 L 426 202 L 426 201 L 426 201 L 426 200 L 427 200 L 427 199 L 428 199 L 430 199 L 430 198 L 430 198 L 431 197 L 431 197 L 431 196 L 431 196 L 431 195 L 431 195 L 431 195 L 432 194 L 432 194 L 432 193 L 436 193 L 439 192 L 439 192 L 440 192 L 452 191 L 453 191 L 456 190 L 459 190 L 466 189 L 469 189 L 471 188 L 471 188 L 471 188 L 471 187 L 472 187 L 472 186 L 472 186 L 472 185 L 473 185 L 474 184 L 483 184 L 486 184 L 489 183 L 496 183 L 501 182 L 505 182 L 507 181 L 512 181 L 512 181 L 523 180 L 533 180 L 533 179 L 540 179 L 541 178 L 546 178 L 548 177 L 551 177 L 551 177 L 551 176 L 552 176 L 555 175 L 556 175 L 559 174 L 563 174 L 564 173 L 565 173 L 566 173 L 569 172 L 573 172 L 574 171 L 578 171 L 582 170 L 583 170 L 583 170 L 585 169 L 586 169 L 587 168 L 591 168 L 594 167 L 596 167 L 599 166 L 599 166 L 605 166 L 606 165 L 609 165 L 614 164 L 614 164 L 619 163 L 620 163 L 620 162 L 622 162 L 622 162 L 625 161 L 625 161 L 627 160 L 631 160 L 631 159 L 632 159 L 632 159 L 641 158 L 641 158 L 642 157 L 642 157 L 642 156 L 643 156 L 643 155 L 644 155 L 644 155 L 646 154 L 646 154 L 648 153 L 649 153 L 650 152 L 650 152 L 651 151 L 651 151 L 652 151 L 652 150 L 652 150 L 653 149 L 653 149 L 653 148 L 654 148 L 655 148 L 656 147 L 656 147 L 657 146 L 658 146 L 658 145 L 660 145 L 661 144 L 661 144 L 662 144 L 663 143 L 665 143 L 665 142 L 666 142 L 666 141 L 668 141 L 668 140 L 668 140 L 669 140 L 669 139 L 669 139 L 669 138 L 670 138 L 671 137 L 672 137 L 675 137 L 676 136 L 678 136 L 678 135 L 681 135 L 682 134 L 683 134 L 685 133 L 688 133 L 691 133 L 694 132 L 694 132 L 695 131 L 695 131 L 695 130 L 696 130 L 696 129 L 696 129 L 697 129 L 697 128 L 698 128 L 698 127 L 700 127 L 701 126 L 701 126 L 702 126 L 702 125 L 705 125 L 705 124 L 705 124 L 707 123 L 708 123 L 710 122 L 713 122 L 718 122 L 718 121 L 718 121 L 718 120 L 720 120 L 723 119 L 723 119 L 723 118 L 723 118 L 724 118 L 726 117 L 730 117 L 730 116 L 730 116 L 730 115 L 732 115 L 733 115 L 733 114 L 733 114 L 733 113 L 737 113 L 741 112 L 741 112 L 745 111 L 745 111 L 746 111 L 750 110 L 752 110 L 755 109 L 757 109 L 758 108 L 760 108 L 760 107 L 760 107 L 761 107 L 761 106 L 761 106 L 762 105 L 762 105 L 762 104 L 763 104 L 763 104 L 763 103 L 765 103 L 766 102 L 766 102 L 772 101 L 772 101 L 778 100 L 781 100 L 781 100 L 782 99 L 783 99 L 785 98 L 786 98 L 787 97 L 787 97 L 788 96 L 788 96 L 788 96 L 788 95 L 788 95 L 789 94 L 789 94 L 789 93 L 789 93 L 790 92 L 790 92 L 791 92 L 791 91 L 792 91 L 793 90 L 793 90 L 794 89 L 795 89 L 795 89 L 795 88 L 796 88 L 798 87 L 801 87 L 801 86 L 801 86 L 801 85 L 801 85 L 802 85 L 802 84 L 802 84 L 804 83 L 806 83 L 809 82 L 813 82 L 814 82 L 815 81 L 819 81 L 823 80 L 824 80 L 827 79 L 832 79 L 832 78 L 832 78 L 838 78 L 839 77 L 840 77 L 840 76 L 841 76 L 851 75 L 851 75 L 852 74 L 852 74 L 853 74 L 853 73 L 855 73 L 855 72 L 855 72 L 856 71 L 857 71 L 857 71 L 858 70 L 858 70 L 858 69 L 858 69 L 858 68 L 859 68 L 859 67 L 860 67 L 861 67 L 862 66 L 863 66 L 863 65 L 864 65 L 865 64 L 865 64 L 866 63 L 867 63 L 868 63 L 868 62 L 868 62 L 868 61 L 870 61 L 871 60 L 872 60 L 872 60 L 874 59 L 874 59 L 875 58 L 875 58 L 875 57 L 875 57 L 876 56 L 877 56 L 877 56 L 878 55 L 878 55 L 880 54 L 880 54 L 880 53 L 881 53 L 881 52 L 881 52 L 882 52 L 882 51 L 882 51 L 884 50 L 884 50 L 884 49 L 885 49 L 885 49 L 885 48 L 885 48 L 885 47 L 885 47 L 886 46 L 886 46 L 886 45 L 887 45 L 887 45 L 889 44 L 891 44 L 893 43 L 893 43 L 893 42 L 894 42 L 895 41 L 896 41 L 897 41 L 898 40 L 901 40 L 904 39 L 904 39 L 906 38 L 906 38 L 906 38 L 908 37 L 908 37 L 908 36 L 908 36 L 908 35 L 909 35 L 909 34 L 909 34 L 909 34 L 909 33 L 909 33 L 909 32 L 910 32 L 910 31 L 910 31 L 910 30 L 911 30 L 911 30 L 911 29 L 912 29 L 913 28 L 915 28 L 915 27 L 915 27 L 915 27 L 917 26 L 917 26 L 918 25 L 921 25 L 922 24 L 922 24 L 922 23 L 922 23 L 923 23 L 925 22 L 928 22 L 928 21 L 931 21 L 931 20 L 931 20 L 931 19 L 932 19 L 938 19 L 940 18 L 944 18 L 945 17" stroke-width="2"></path><path stroke-width="2" d="M 945 346 L 945.000000 15.000000" /><path stroke-width="2" d="M 945 346 L 945.000000 15.000000"></path><path stroke-width="2" d="M 945 346 L 950 346" /><path stroke-width="2" d="M 945 346 L 950 346"></path><text xmlns="http://www.w3.org/2000/svg" x="955" y="352">0</text><path stroke-width="2" d="M 945 309 L 950 309" /><path stroke-width="2" d="M 945 309 L 950 309"></path><text xmlns="http://www.w3.org/2000/svg" x="955" y="315">84</text><path stroke-width="2" d="M 945 272 L 950 272" /><path stroke-width="2" d="M 945 272 L 950 272"></path><text x="955" y="278" xmlns="http://www.w3.org/2000/svg">167</text><path stroke-width="2" d="M 945 236 L 950 236" /><path stroke-width="2" d="M 945 236 L 950 236"></path><text x="955" y="242" xmlns="http://www.w3.org/2000/svg">250</text><path stroke-width="2" d="M 945 199 L 950 199" /><path stroke-width="2" d="M 945 199 L 950 199"></path><text xmlns="http://www.w3.org/2000/svg" x="955" y="205">334</text><path stroke-width="2" d="M 945 162 L 950 162" /><path stroke-width="2" d="M 945 162 L 950 162"></path><text xmlns="http://www.w3.org/2000/svg" x="955" y="168">417</text><path stroke-width="2" d="M 945 126 L 950 126" /><path stroke-width="2" d="M 945 126 L 950 126"></path><text xmlns="http://www.w3.org/2000/svg" x="955" y="132">500</text><path stroke-width="2" d="M 945 89 L 950 89" /><path stroke-width="2" d="M 945 89 L 950 89"></path><text y="95" xmlns="http://www.w3.org/2000/svg" x="955">584</text><path stroke-width="2" d="M 945 52 L 950 52" /><path stroke-width="2" d="M 945 52 L 950 52"></path><text x="955" y="58" xmlns="http://www.w3.org/2000/svg">667</text><path stroke-width="2" d="M 945 16 L 950 16" /><path stroke-width="2" d="M 945 16 L 950 16"></path><text x="955" y="22" xmlns="http://www.w3.org/2000/svg">750</text><text xmlns="http://www.w3.org/2000/svg" x="987" y="175" transform="rotate(90.00,987,175)">Stargazers</text><path d="M 57.000000 346.000000 L 945 346" stroke-width="2" /><path d="M 57.000000 346.000000 L 945 346" stroke-width="2"></path><path stroke-width="2" d="M 58 346 L 58 351" /><path stroke-width="2" d="M 58 346 L 58 351"></path><text xmlns="http://www.w3.org/2000/svg" x="25" y="368">2023-04-02</text><path stroke-width="2" d="M 157 346 L 157 351" /><path stroke-width="2" d="M 157 346 L 157 351"></path><text xmlns="http://www.w3.org/2000/svg" x="124" y="368">2023-06-10</text><path stroke-width="2" d="M 256 346 L 256 351" /><path stroke-width="2" d="M 256 346 L 256 351"></path><text xmlns="http://www.w3.org/2000/svg" x="223" y="368">2023-08-18</text><path stroke-width="2" d="M 354 346 L 354 351" /><path stroke-width="2" d="M 354 346 L 354 351"></path><text xmlns="http://www.w3.org/2000/svg" x="321" y="368">2023-10-26</text><path stroke-width="2" d="M 453 346 L 453 351" /><path stroke-width="2" d="M 453 346 L 453 351"></path><text xmlns="http://www.w3.org/2000/svg" x="420" y="368">2024-01-03</text><path stroke-width="2" d="M 551 346 L 551 351" /><path stroke-width="2" d="M 551 346 L 551 351"></path><text xmlns="http://www.w3.org/2000/svg" x="518" y="368">2024-03-11</text><path stroke-width="2" d="M 650 346 L 650 351" /><path stroke-width="2" d="M 650 346 L 650 351"></path><text y="368" xmlns="http://www.w3.org/2000/svg" x="617">2024-05-19</text><path stroke-width="2" d="M 748 346 L 748 351" /><path stroke-width="2" d="M 748 346 L 748 351"></path><text y="368" xmlns="http://www.w3.org/2000/svg" x="715">2024-07-27</text><path stroke-width="2" d="M 847 346 L 847 351" /><path stroke-width="2" d="M 847 346 L 847 351"></path><text x="814" y="368" xmlns="http://www.w3.org/2000/svg">2024-10-04</text><path stroke-width="2" d="M 945 346 L 945 351" /><path stroke-width="2" d="M 945 346 L 945 351"></path><text xmlns="http://www.w3.org/2000/svg" x="912" y="368">2024-12-12</text><text xmlns="http://www.w3.org/2000/svg" x="487" y="390">Time</text></svg>