<svg height="400px" xmlns="http://www.w3.org/2000/svg" xmlns:xlink="http://www.w3.org/1999/xlink" width="1024px"><style type="text/css">
path { fill: none; stroke: rgb(51,51,51); }
path.series { stroke: #6b63ff; }
rect.background { fill: rgb(255,255,255); stroke: none; }

text {
	stroke-width: 0;
	stroke: none;
	fill: rgba(51,51,51,1.0);
	font-size: 12.8px;
	font-family: 'Roboto Medium', sans-serif;
}
</style><rect height="400px" class="background" rx="8" x="0" y="0" width="1024px" /><rect rx="8" x="0" y="0" width="1024px" height="400px" class="background"></rect><path stroke-width="2" class="series" d="M 58 345 L 64 344 L 100 343 L 101 342 L 101 341 L 101 340 L 101 339 L 101 339 L 101 338 L 101 337 L 102 336 L 102 335 L 102 334 L 102 333 L 102 332 L 102 332 L 103 331 L 103 330 L 104 329 L 104 328 L 105 327 L 106 326 L 107 326 L 109 325 L 111 324 L 111 323 L 111 322 L 112 321 L 115 320 L 119 319 L 119 319 L 122 318 L 124 317 L 136 316 L 136 315 L 136 314 L 136 313 L 136 313 L 136 312 L 136 311 L 143 310 L 146 309 L 148 308 L 153 307 L 162 306 L 166 306 L 182 305 L 187 304 L 195 303 L 204 302 L 208 301 L 242 300 L 244 299 L 244 299 L 249 298 L 250 297 L 250 296 L 250 295 L 250 294 L 250 293 L 250 293 L 250 292 L 250 291 L 250 290 L 250 289 L 250 288 L 251 287 L 252 286 L 252 286 L 252 285 L 252 284 L 252 283 L 252 282 L 252 281 L 252 280 L 252 280 L 252 279 L 252 278 L 252 277 L 252 276 L 252 275 L 252 274 L 252 273 L 252 273 L 252 272 L 252 271 L 252 270 L 252 269 L 252 268 L 252 267 L 252 266 L 252 266 L 252 265 L 252 264 L 252 263 L 252 262 L 252 261 L 252 260 L 253 260 L 253 259 L 253 258 L 253 257 L 254 256 L 254 255 L 255 254 L 255 253 L 255 253 L 256 252 L 257 251 L 258 250 L 258 249 L 258 248 L 258 247 L 258 247 L 258 246 L 258 245 L 258 244 L 258 243 L 258 242 L 258 241 L 258 240 L 258 240 L 258 239 L 258 238 L 258 237 L 259 236 L 261 235 L 261 234 L 262 233 L 262 233 L 270 232 L 270 231 L 270 230 L 273 229 L 273 228 L 279 227 L 284 227 L 286 226 L 291 225 L 293 224 L 296 223 L 297 222 L 298 221 L 304 220 L 304 220 L 306 219 L 308 218 L 310 217 L 312 216 L 312 215 L 312 214 L 313 214 L 316 213 L 319 212 L 319 211 L 320 210 L 321 209 L 321 208 L 323 207 L 327 207 L 330 206 L 335 205 L 337 204 L 339 203 L 341 202 L 341 201 L 342 200 L 345 200 L 360 199 L 360 198 L 363 197 L 377 196 L 377 195 L 377 194 L 377 194 L 378 193 L 380 192 L 384 191 L 387 190 L 387 189 L 404 188 L 407 187 L 411 187 L 417 186 L 420 185 L 420 184 L 422 183 L 434 182 L 447 181 L 462 181 L 464 180 L 464 179 L 464 178 L 465 177 L 468 176 L 488 175 L 498 174 L 498 174 L 506 173 L 507 172 L 508 171 L 531 170 L 531 169 L 532 168 L 533 167 L 536 167 L 542 166 L 545 165 L 549 164 L 552 163 L 557 162 L 570 161 L 570 161 L 572 160 L 573 159 L 573 158 L 574 157 L 581 156 L 581 155 L 593 154 L 611 154 L 621 153 L 631 152 L 632 151 L 637 150 L 638 149 L 641 148 L 644 148 L 644 147 L 644 146 L 644 145 L 644 144 L 644 143 L 644 142 L 644 141 L 645 141 L 645 140 L 645 139 L 645 138 L 645 137 L 646 136 L 647 135 L 648 134 L 651 134 L 652 133 L 652 132 L 652 131 L 653 130 L 656 129 L 656 128 L 656 128 L 656 127 L 656 126 L 656 125 L 656 124 L 658 123 L 659 122 L 660 121 L 661 121 L 662 120 L 662 119 L 662 118 L 662 117 L 664 116 L 665 115 L 665 115 L 665 114 L 667 113 L 668 112 L 668 111 L 670 110 L 673 109 L 674 108 L 678 108 L 683 107 L 683 106 L 685 105 L 685 104 L 685 103 L 685 102 L 686 101 L 690 101 L 691 100 L 695 99 L 695 98 L 697 97 L 701 96 L 704 95 L 704 95 L 710 94 L 712 93 L 712 92 L 715 91 L 715 90 L 725 89 L 727 88 L 728 88 L 736 87 L 740 86 L 748 85 L 750 84 L 751 83 L 753 82 L 754 82 L 754 81 L 761 80 L 766 79 L 769 78 L 770 77 L 773 76 L 776 75 L 776 75 L 776 74 L 776 73 L 777 72 L 778 71 L 778 70 L 781 69 L 781 68 L 781 68 L 783 67 L 793 66 L 805 65 L 805 64 L 805 63 L 813 62 L 817 62 L 819 61 L 820 60 L 823 59 L 826 58 L 826 57 L 826 56 L 826 55 L 826 55 L 827 54 L 827 53 L 828 52 L 828 51 L 830 50 L 835 49 L 835 49 L 835 48 L 836 47 L 836 46 L 837 45 L 837 44 L 837 43 L 837 42 L 837 42 L 838 41 L 838 40 L 841 39 L 847 38 L 853 37 L 853 36 L 855 35 L 866 35 L 879 34 L 882 33 L 889 32 L 895 31 L 910 30 L 915 29 L 920 29 L 921 28 L 921 27 L 921 26 L 921 25 L 921 24 L 921 23 L 922 22 L 925 22 L 927 21 L 945 20" /><path stroke-width="2" class="series" d="M 58 345 L 64 344 L 100 343 L 101 342 L 101 341 L 101 340 L 101 339 L 101 339 L 101 338 L 101 337 L 102 336 L 102 335 L 102 334 L 102 333 L 102 332 L 102 332 L 103 331 L 103 330 L 104 329 L 104 328 L 105 327 L 106 326 L 107 326 L 109 325 L 111 324 L 111 323 L 111 322 L 112 321 L 115 320 L 119 319 L 119 319 L 122 318 L 124 317 L 136 316 L 136 315 L 136 314 L 136 313 L 136 313 L 136 312 L 136 311 L 143 310 L 146 309 L 148 308 L 153 307 L 162 306 L 166 306 L 182 305 L 187 304 L 195 303 L 204 302 L 208 301 L 242 300 L 244 299 L 244 299 L 249 298 L 250 297 L 250 296 L 250 295 L 250 294 L 250 293 L 250 293 L 250 292 L 250 291 L 250 290 L 250 289 L 250 288 L 251 287 L 252 286 L 252 286 L 252 285 L 252 284 L 252 283 L 252 282 L 252 281 L 252 280 L 252 280 L 252 279 L 252 278 L 252 277 L 252 276 L 252 275 L 252 274 L 252 273 L 252 273 L 252 272 L 252 271 L 252 270 L 252 269 L 252 268 L 252 267 L 252 266 L 252 266 L 252 265 L 252 264 L 252 263 L 252 262 L 252 261 L 252 260 L 253 260 L 253 259 L 253 258 L 253 257 L 254 256 L 254 255 L 255 254 L 255 253 L 255 253 L 256 252 L 257 251 L 258 250 L 258 249 L 258 248 L 258 247 L 258 247 L 258 246 L 258 245 L 258 244 L 258 243 L 258 242 L 258 241 L 258 240 L 258 240 L 258 239 L 258 238 L 258 237 L 259 236 L 261 235 L 261 234 L 262 233 L 262 233 L 270 232 L 270 231 L 270 230 L 273 229 L 273 228 L 279 227 L 284 227 L 286 226 L 291 225 L 293 224 L 296 223 L 297 222 L 298 221 L 304 220 L 304 220 L 306 219 L 308 218 L 310 217 L 312 216 L 312 215 L 312 214 L 313 214 L 316 213 L 319 212 L 319 211 L 320 210 L 321 209 L 321 208 L 323 207 L 327 207 L 330 206 L 335 205 L 337 204 L 339 203 L 341 202 L 341 201 L 342 200 L 345 200 L 360 199 L 360 198 L 363 197 L 377 196 L 377 195 L 377 194 L 377 194 L 378 193 L 380 192 L 384 191 L 387 190 L 387 189 L 404 188 L 407 187 L 411 187 L 417 186 L 420 185 L 420 184 L 422 183 L 434 182 L 447 181 L 462 181 L 464 180 L 464 179 L 464 178 L 465 177 L 468 176 L 488 175 L 498 174 L 498 174 L 506 173 L 507 172 L 508 171 L 531 170 L 531 169 L 532 168 L 533 167 L 536 167 L 542 166 L 545 165 L 549 164 L 552 163 L 557 162 L 570 161 L 570 161 L 572 160 L 573 159 L 573 158 L 574 157 L 581 156 L 581 155 L 593 154 L 611 154 L 621 153 L 631 152 L 632 151 L 637 150 L 638 149 L 641 148 L 644 148 L 644 147 L 644 146 L 644 145 L 644 144 L 644 143 L 644 142 L 644 141 L 645 141 L 645 140 L 645 139 L 645 138 L 645 137 L 646 136 L 647 135 L 648 134 L 651 134 L 652 133 L 652 132 L 652 131 L 653 130 L 656 129 L 656 128 L 656 128 L 656 127 L 656 126 L 656 125 L 656 124 L 658 123 L 659 122 L 660 121 L 661 121 L 662 120 L 662 119 L 662 118 L 662 117 L 664 116 L 665 115 L 665 115 L 665 114 L 667 113 L 668 112 L 668 111 L 670 110 L 673 109 L 674 108 L 678 108 L 683 107 L 683 106 L 685 105 L 685 104 L 685 103 L 685 102 L 686 101 L 690 101 L 691 100 L 695 99 L 695 98 L 697 97 L 701 96 L 704 95 L 704 95 L 710 94 L 712 93 L 712 92 L 715 91 L 715 90 L 725 89 L 727 88 L 728 88 L 736 87 L 740 86 L 748 85 L 750 84 L 751 83 L 753 82 L 754 82 L 754 81 L 761 80 L 766 79 L 769 78 L 770 77 L 773 76 L 776 75 L 776 75 L 776 74 L 776 73 L 777 72 L 778 71 L 778 70 L 781 69 L 781 68 L 781 68 L 783 67 L 793 66 L 805 65 L 805 64 L 805 63 L 813 62 L 817 62 L 819 61 L 820 60 L 823 59 L 826 58 L 826 57 L 826 56 L 826 55 L 826 55 L 827 54 L 827 53 L 828 52 L 828 51 L 830 50 L 835 49 L 835 49 L 835 48 L 836 47 L 836 46 L 837 45 L 837 44 L 837 43 L 837 42 L 837 42 L 838 41 L 838 40 L 841 39 L 847 38 L 853 37 L 853 36 L 855 35 L 866 35 L 879 34 L 882 33 L 889 32 L 895 31 L 910 30 L 915 29 L 920 29 L 921 28 L 921 27 L 921 26 L 921 25 L 921 24 L 921 23 L 922 22 L 925 22 L 927 21 L 945 20"></path><path d="M 945 346 L 945.000000 15.000000" stroke-width="2" /><path stroke-width="2" d="M 945 346 L 945.000000 15.000000"></path><path stroke-width="2" d="M 945 346 L 950 346" /><path stroke-width="2" d="M 945 346 L 950 346"></path><text y="352" xmlns="http://www.w3.org/2000/svg" x="955">0</text><path d="M 945 308 L 950 308" stroke-width="2" /><path stroke-width="2" d="M 945 308 L 950 308"></path><text x="955" y="314" xmlns="http://www.w3.org/2000/svg">43</text><path stroke-width="2" d="M 945 272 L 950 272" /><path stroke-width="2" d="M 945 272 L 950 272"></path><text xmlns="http://www.w3.org/2000/svg" x="955" y="278">85</text><path stroke-width="2" d="M 945 235 L 950 235" /><path d="M 945 235 L 950 235" stroke-width="2"></path><text xmlns="http://www.w3.org/2000/svg" x="955" y="241">127</text><path stroke-width="2" d="M 945 199 L 950 199" /><path d="M 945 199 L 950 199" stroke-width="2"></path><text xmlns="http://www.w3.org/2000/svg" x="955" y="205">169</text><path stroke-width="2" d="M 945 161 L 950 161" /><path stroke-width="2" d="M 945 161 L 950 161"></path><text xmlns="http://www.w3.org/2000/svg" x="955" y="167">212</text><path stroke-width="2" d="M 945 125 L 950 125" /><path stroke-width="2" d="M 945 125 L 950 125"></path><text xmlns="http://www.w3.org/2000/svg" x="955" y="131">254</text><path stroke-width="2" d="M 945 88 L 950 88" /><path stroke-width="2" d="M 945 88 L 950 88"></path><text xmlns="http://www.w3.org/2000/svg" x="955" y="94">296</text><path stroke-width="2" d="M 945 52 L 950 52" /><path d="M 945 52 L 950 52" stroke-width="2"></path><text xmlns="http://www.w3.org/2000/svg" x="955" y="58">338</text><path stroke-width="2" d="M 945 16 L 950 16" /><path d="M 945 16 L 950 16" stroke-width="2"></path><text xmlns="http://www.w3.org/2000/svg" x="955" y="22">380</text><text xmlns="http://www.w3.org/2000/svg" x="987" y="175" transform="rotate(90.00,987,175)">Stargazers</text><path d="M 57.000000 346.000000 L 945 346" stroke-width="2" /><path stroke-width="2" d="M 57.000000 346.000000 L 945 346"></path><path stroke-width="2" d="M 58 346 L 58 351" /><path stroke-width="2" d="M 58 346 L 58 351"></path><text xmlns="http://www.w3.org/2000/svg" x="25" y="368">2023-04-02</text><path stroke-width="2" d="M 157 346 L 157 351" /><path stroke-width="2" d="M 157 346 L 157 351"></path><text xmlns="http://www.w3.org/2000/svg" x="124" y="368">2023-05-05</text><path stroke-width="2" d="M 256 346 L 256 351" /><path stroke-width="2" d="M 256 346 L 256 351"></path><text xmlns="http://www.w3.org/2000/svg" x="223" y="368">2023-06-07</text><path stroke-width="2" d="M 354 346 L 354 351" /><path stroke-width="2" d="M 354 346 L 354 351"></path><text y="368" xmlns="http://www.w3.org/2000/svg" x="321">2023-07-10</text><path d="M 453 346 L 453 351" stroke-width="2" /><path stroke-width="2" d="M 453 346 L 453 351"></path><text xmlns="http://www.w3.org/2000/svg" x="420" y="368">2023-08-12</text><path stroke-width="2" d="M 551 346 L 551 351" /><path stroke-width="2" d="M 551 346 L 551 351"></path><text xmlns="http://www.w3.org/2000/svg" x="518" y="368">2023-09-14</text><path stroke-width="2" d="M 650 346 L 650 351" /><path d="M 650 346 L 650 351" stroke-width="2"></path><text xmlns="http://www.w3.org/2000/svg" x="617" y="368">2023-10-17</text><path stroke-width="2" d="M 748 346 L 748 351" /><path stroke-width="2" d="M 748 346 L 748 351"></path><text xmlns="http://www.w3.org/2000/svg" x="715" y="368">2023-11-19</text><path stroke-width="2" d="M 847 346 L 847 351" /><path stroke-width="2" d="M 847 346 L 847 351"></path><text xmlns="http://www.w3.org/2000/svg" x="814" y="368">2023-12-22</text><path stroke-width="2" d="M 945 346 L 945 351" /><path stroke-width="2" d="M 945 346 L 945 351"></path><text xmlns="http://www.w3.org/2000/svg" x="912" y="368">2024-01-24</text><text y="390" xmlns="http://www.w3.org/2000/svg" x="487">Time</text></svg>