<svg height="400px" xmlns="http://www.w3.org/2000/svg" xmlns:xlink="http://www.w3.org/1999/xlink" width="1024px"><style type="text/css">
path { fill: none; stroke: rgb(51,51,51); }
path.series { stroke: #6b63ff; }
rect.background { fill: rgb(255,255,255); stroke: none; }

text {
	stroke-width: 0;
	stroke: none;
	fill: rgba(51,51,51,1.0);
	font-size: 12.8px;
	font-family: 'Roboto Medium', sans-serif;
}
</style><rect x="0" y="0" width="1024px" height="400px" class="background" rx="8" /><rect y="0" width="1024px" height="400px" class="background" rx="8" x="0"></rect><path stroke-width="2" class="series" d="M 58 345 L 61 345 L 75 344 L 75 344 L 75 344 L 75 343 L 75 343 L 75 343 L 75 342 L 75 342 L 76 342 L 76 341 L 76 341 L 76 341 L 76 340 L 76 340 L 76 340 L 76 339 L 76 339 L 77 339 L 77 338 L 77 338 L 78 338 L 79 337 L 79 337 L 79 336 L 80 336 L 81 336 L 82 335 L 82 335 L 83 335 L 84 334 L 89 334 L 89 334 L 89 333 L 89 333 L 89 333 L 91 332 L 93 332 L 93 332 L 96 331 L 99 331 L 101 331 L 107 330 L 109 330 L 112 330 L 116 329 L 117 329 L 131 328 L 131 328 L 131 328 L 133 327 L 133 327 L 133 327 L 133 326 L 133 326 L 133 326 L 133 325 L 134 325 L 134 325 L 134 324 L 134 324 L 134 324 L 134 323 L 134 323 L 134 323 L 134 322 L 134 322 L 134 322 L 134 321 L 134 321 L 134 320 L 134 320 L 134 320 L 134 319 L 134 319 L 134 319 L 134 318 L 134 318 L 134 318 L 134 317 L 134 317 L 134 317 L 134 316 L 134 316 L 134 316 L 134 315 L 134 315 L 134 315 L 134 314 L 134 314 L 134 314 L 134 313 L 134 313 L 135 313 L 135 312 L 135 312 L 135 311 L 135 311 L 135 311 L 135 310 L 135 310 L 135 310 L 136 309 L 136 309 L 136 309 L 136 308 L 137 308 L 137 308 L 137 307 L 137 307 L 137 307 L 137 306 L 137 306 L 137 306 L 137 305 L 137 305 L 137 305 L 137 304 L 137 304 L 137 303 L 137 303 L 137 303 L 138 302 L 138 302 L 138 302 L 138 301 L 141 301 L 141 301 L 142 300 L 143 300 L 143 300 L 145 299 L 147 299 L 148 299 L 149 298 L 150 298 L 152 298 L 152 297 L 152 297 L 155 297 L 155 296 L 155 296 L 156 295 L 157 295 L 158 295 L 158 294 L 158 294 L 158 294 L 159 293 L 161 293 L 161 293 L 161 292 L 161 292 L 161 292 L 162 291 L 164 291 L 165 291 L 167 290 L 168 290 L 168 290 L 169 289 L 169 289 L 170 289 L 171 288 L 177 288 L 177 287 L 178 287 L 183 287 L 183 286 L 183 286 L 183 286 L 184 285 L 184 285 L 186 285 L 187 284 L 187 284 L 194 284 L 195 283 L 197 283 L 199 283 L 200 282 L 200 282 L 201 282 L 206 281 L 211 281 L 217 281 L 217 280 L 217 280 L 217 280 L 218 279 L 219 279 L 227 278 L 231 278 L 231 278 L 234 277 L 234 277 L 235 277 L 244 276 L 244 276 L 244 276 L 245 275 L 246 275 L 248 275 L 249 274 L 251 274 L 252 274 L 254 273 L 259 273 L 259 273 L 260 272 L 260 272 L 260 272 L 261 271 L 263 271 L 268 270 L 279 270 L 283 270 L 285 269 L 285 269 L 287 269 L 288 268 L 288 268 L 288 268 L 288 267 L 288 267 L 288 267 L 288 266 L 288 266 L 288 266 L 288 265 L 288 265 L 288 265 L 288 264 L 289 264 L 289 264 L 291 263 L 291 263 L 291 262 L 291 262 L 293 262 L 293 261 L 293 261 L 293 261 L 293 260 L 293 260 L 293 260 L 294 259 L 294 259 L 295 259 L 295 258 L 295 258 L 295 258 L 295 257 L 296 257 L 296 257 L 296 256 L 296 256 L 297 256 L 297 255 L 297 255 L 298 254 L 299 254 L 300 254 L 301 253 L 303 253 L 303 253 L 304 252 L 304 252 L 304 252 L 304 251 L 304 251 L 306 251 L 306 250 L 308 250 L 308 250 L 309 249 L 310 249 L 312 249 L 312 248 L 314 248 L 314 248 L 315 247 L 316 247 L 316 247 L 320 246 L 320 246 L 321 245 L 324 245 L 326 245 L 329 244 L 330 244 L 330 244 L 331 243 L 331 243 L 331 243 L 334 242 L 336 242 L 337 242 L 337 241 L 338 241 L 340 241 L 340 240 L 340 240 L 340 240 L 340 239 L 340 239 L 341 239 L 342 238 L 342 238 L 342 237 L 343 237 L 346 237 L 351 236 L 351 236 L 351 236 L 354 235 L 356 235 L 357 235 L 357 234 L 358 234 L 359 234 L 359 233 L 359 233 L 359 233 L 359 232 L 360 232 L 360 232 L 360 231 L 360 231 L 361 231 L 363 230 L 363 230 L 363 229 L 363 229 L 363 229 L 364 228 L 364 228 L 364 228 L 364 227 L 364 227 L 364 227 L 364 226 L 364 226 L 368 226 L 370 225 L 370 225 L 371 225 L 380 224 L 381 224 L 384 224 L 386 223 L 394 223 L 396 223 L 396 222 L 396 222 L 396 221 L 397 221 L 397 221 L 397 220 L 398 220 L 399 220 L 406 219 L 408 219 L 411 219 L 416 218 L 420 218 L 424 218 L 426 217 L 430 217 L 430 217 L 439 216 L 447 216 L 447 216 L 453 215 L 453 215 L 458 215 L 459 214 L 461 214 L 461 214 L 462 213 L 462 213 L 465 212 L 466 212 L 468 212 L 472 211 L 472 211 L 473 211 L 474 210 L 477 210 L 480 210 L 480 209 L 484 209 L 487 209 L 488 208 L 488 208 L 489 208 L 490 207 L 491 207 L 494 207 L 496 206 L 499 206 L 501 206 L 501 205 L 506 205 L 506 204 L 509 204 L 513 204 L 513 203 L 518 203 L 518 203 L 518 202 L 520 202 L 520 202 L 522 201 L 522 201 L 524 201 L 527 200 L 527 200 L 528 200 L 528 199 L 535 199 L 535 199 L 536 198 L 536 198 L 536 198 L 537 197 L 537 197 L 537 196 L 538 196 L 540 196 L 540 195 L 541 195 L 542 195 L 542 194 L 543 194 L 543 194 L 543 193 L 544 193 L 544 193 L 544 192 L 545 192 L 545 192 L 545 191 L 546 191 L 547 191 L 548 190 L 548 190 L 548 190 L 549 189 L 549 189 L 550 188 L 552 188 L 552 188 L 552 187 L 553 187 L 555 187 L 555 186 L 555 186 L 556 186 L 558 185 L 558 185 L 558 185 L 558 184 L 558 184 L 558 184 L 559 183 L 559 183 L 559 183 L 560 182 L 563 182 L 564 182 L 565 181 L 566 181 L 568 181 L 569 180 L 570 180 L 572 179 L 574 179 L 576 179 L 578 178 L 579 178 L 579 178 L 579 177 L 580 177 L 580 177 L 580 176 L 580 176 L 581 176 L 581 175 L 582 175 L 582 175 L 583 174 L 584 174 L 584 174 L 585 173 L 585 173 L 588 173 L 588 172 L 588 172 L 589 171 L 590 171 L 592 171 L 594 170 L 598 170 L 598 170 L 598 169 L 598 169 L 600 169 L 602 168 L 603 168 L 603 168 L 603 167 L 603 167 L 605 167 L 608 166 L 608 166 L 608 166 L 608 165 L 610 165 L 611 165 L 611 164 L 611 164 L 613 163 L 617 163 L 617 163 L 621 162 L 621 162 L 621 162 L 625 161 L 626 161 L 628 161 L 630 160 L 631 160 L 632 160 L 632 159 L 633 159 L 633 159 L 633 158 L 633 158 L 634 158 L 634 157 L 635 157 L 635 157 L 635 156 L 635 156 L 637 155 L 638 155 L 638 155 L 642 154 L 643 154 L 647 154 L 650 153 L 650 153 L 651 153 L 651 152 L 653 152 L 654 152 L 655 151 L 655 151 L 655 151 L 655 150 L 655 150 L 656 150 L 656 149 L 656 149 L 656 149 L 656 148 L 656 148 L 657 148 L 658 147 L 658 147 L 659 146 L 659 146 L 660 146 L 661 145 L 661 145 L 662 145 L 662 144 L 662 144 L 663 144 L 666 143 L 666 143 L 666 143 L 666 142 L 666 142 L 667 142 L 667 141 L 667 141 L 669 141 L 670 140 L 673 140 L 676 140 L 677 139 L 678 139 L 681 138 L 685 138 L 685 138 L 687 137 L 691 137 L 691 137 L 692 136 L 696 136 L 697 136 L 698 135 L 699 135 L 699 135 L 707 134 L 707 134 L 708 134 L 708 133 L 709 133 L 709 133 L 710 132 L 711 132 L 711 132 L 712 131 L 712 131 L 712 130 L 713 130 L 713 130 L 713 129 L 713 129 L 713 129 L 713 128 L 713 128 L 715 128 L 716 127 L 717 127 L 717 127 L 718 126 L 718 126 L 719 126 L 720 125 L 720 125 L 721 125 L 721 124 L 721 124 L 721 124 L 723 123 L 723 123 L 725 122 L 725 122 L 726 122 L 726 121 L 727 121 L 727 121 L 727 120 L 727 120 L 728 120 L 728 119 L 728 119 L 729 119 L 729 118 L 731 118 L 731 118 L 731 117 L 731 117 L 731 117 L 732 116 L 732 116 L 732 116 L 732 115 L 734 115 L 734 115 L 734 114 L 735 114 L 735 113 L 735 113 L 735 113 L 735 112 L 735 112 L 736 112 L 736 111 L 736 111 L 736 111 L 736 110 L 739 110 L 740 110 L 742 109 L 742 109 L 742 109 L 742 108 L 743 108 L 744 108 L 745 107 L 745 107 L 748 107 L 750 106 L 750 106 L 752 105 L 753 105 L 753 105 L 754 104 L 754 104 L 754 104 L 754 103 L 754 103 L 754 103 L 754 102 L 754 102 L 755 102 L 755 101 L 755 101 L 755 101 L 755 100 L 755 100 L 756 100 L 756 99 L 756 99 L 757 99 L 758 98 L 759 98 L 760 97 L 760 97 L 760 97 L 761 96 L 761 96 L 762 96 L 764 95 L 765 95 L 765 95 L 765 94 L 766 94 L 766 94 L 768 93 L 770 93 L 770 93 L 772 92 L 772 92 L 772 92 L 773 91 L 773 91 L 778 91 L 780 90 L 783 90 L 785 89 L 785 89 L 786 89 L 787 88 L 788 88 L 788 88 L 788 87 L 789 87 L 789 87 L 790 86 L 790 86 L 791 86 L 793 85 L 793 85 L 793 85 L 793 84 L 793 84 L 793 84 L 793 83 L 793 83 L 793 83 L 793 82 L 793 82 L 793 82 L 794 81 L 794 81 L 794 80 L 794 80 L 794 80 L 794 79 L 795 79 L 795 79 L 795 78 L 795 78 L 795 78 L 795 77 L 796 77 L 796 77 L 796 76 L 797 76 L 797 76 L 797 75 L 797 75 L 797 75 L 797 74 L 798 74 L 800 74 L 802 73 L 802 73 L 802 72 L 803 72 L 803 72 L 804 71 L 805 71 L 807 71 L 808 70 L 809 70 L 809 70 L 809 69 L 809 69 L 809 69 L 809 68 L 809 68 L 811 68 L 811 67 L 811 67 L 815 67 L 817 66 L 818 66 L 821 66 L 822 65 L 822 65 L 823 64 L 823 64 L 823 64 L 823 63 L 824 63 L 824 63 L 825 62 L 826 62 L 826 62 L 826 61 L 826 61 L 826 61 L 826 60 L 826 60 L 827 60 L 827 59 L 827 59 L 827 59 L 828 58 L 829 58 L 830 58 L 830 57 L 830 57 L 831 56 L 831 56 L 831 56 L 832 55 L 832 55 L 832 55 L 833 54 L 834 54 L 835 54 L 838 53 L 839 53 L 840 53 L 843 52 L 844 52 L 845 52 L 848 51 L 848 51 L 849 51 L 852 50 L 857 50 L 858 50 L 860 49 L 861 49 L 864 49 L 864 48 L 864 48 L 866 47 L 867 47 L 867 47 L 868 46 L 870 46 L 871 46 L 872 45 L 872 45 L 873 45 L 873 44 L 873 44 L 874 44 L 878 43 L 878 43 L 879 43 L 880 42 L 880 42 L 882 42 L 882 41 L 884 41 L 884 41 L 884 40 L 884 40 L 885 39 L 886 39 L 886 39 L 887 38 L 888 38 L 888 38 L 889 37 L 889 37 L 890 37 L 890 36 L 891 36 L 891 36 L 892 35 L 892 35 L 892 35 L 892 34 L 892 34 L 893 34 L 895 33 L 897 33 L 897 33 L 898 32 L 901 32 L 901 31 L 903 31 L 904 31 L 906 30 L 908 30 L 911 30 L 912 29 L 913 29 L 914 29 L 915 28 L 918 28 L 918 28 L 919 27 L 920 27 L 920 27 L 920 26 L 920 26 L 920 26 L 920 25 L 921 25 L 923 25 L 924 24 L 924 24 L 925 23 L 925 23 L 931 23 L 932 22 L 933 22 L 935 22 L 937 21 L 938 21 L 938 21 L 939 20 L 939 20 L 939 20 L 940 19 L 941 19 L 941 19 L 942 18 L 942 18 L 942 18 L 943 17 L 943 17 L 945 17 L 945 16" /><path class="series" d="M 58 345 L 61 345 L 75 344 L 75 344 L 75 344 L 75 343 L 75 343 L 75 343 L 75 342 L 75 342 L 76 342 L 76 341 L 76 341 L 76 341 L 76 340 L 76 340 L 76 340 L 76 339 L 76 339 L 77 339 L 77 338 L 77 338 L 78 338 L 79 337 L 79 337 L 79 336 L 80 336 L 81 336 L 82 335 L 82 335 L 83 335 L 84 334 L 89 334 L 89 334 L 89 333 L 89 333 L 89 333 L 91 332 L 93 332 L 93 332 L 96 331 L 99 331 L 101 331 L 107 330 L 109 330 L 112 330 L 116 329 L 117 329 L 131 328 L 131 328 L 131 328 L 133 327 L 133 327 L 133 327 L 133 326 L 133 326 L 133 326 L 133 325 L 134 325 L 134 325 L 134 324 L 134 324 L 134 324 L 134 323 L 134 323 L 134 323 L 134 322 L 134 322 L 134 322 L 134 321 L 134 321 L 134 320 L 134 320 L 134 320 L 134 319 L 134 319 L 134 319 L 134 318 L 134 318 L 134 318 L 134 317 L 134 317 L 134 317 L 134 316 L 134 316 L 134 316 L 134 315 L 134 315 L 134 315 L 134 314 L 134 314 L 134 314 L 134 313 L 134 313 L 135 313 L 135 312 L 135 312 L 135 311 L 135 311 L 135 311 L 135 310 L 135 310 L 135 310 L 136 309 L 136 309 L 136 309 L 136 308 L 137 308 L 137 308 L 137 307 L 137 307 L 137 307 L 137 306 L 137 306 L 137 306 L 137 305 L 137 305 L 137 305 L 137 304 L 137 304 L 137 303 L 137 303 L 137 303 L 138 302 L 138 302 L 138 302 L 138 301 L 141 301 L 141 301 L 142 300 L 143 300 L 143 300 L 145 299 L 147 299 L 148 299 L 149 298 L 150 298 L 152 298 L 152 297 L 152 297 L 155 297 L 155 296 L 155 296 L 156 295 L 157 295 L 158 295 L 158 294 L 158 294 L 158 294 L 159 293 L 161 293 L 161 293 L 161 292 L 161 292 L 161 292 L 162 291 L 164 291 L 165 291 L 167 290 L 168 290 L 168 290 L 169 289 L 169 289 L 170 289 L 171 288 L 177 288 L 177 287 L 178 287 L 183 287 L 183 286 L 183 286 L 183 286 L 184 285 L 184 285 L 186 285 L 187 284 L 187 284 L 194 284 L 195 283 L 197 283 L 199 283 L 200 282 L 200 282 L 201 282 L 206 281 L 211 281 L 217 281 L 217 280 L 217 280 L 217 280 L 218 279 L 219 279 L 227 278 L 231 278 L 231 278 L 234 277 L 234 277 L 235 277 L 244 276 L 244 276 L 244 276 L 245 275 L 246 275 L 248 275 L 249 274 L 251 274 L 252 274 L 254 273 L 259 273 L 259 273 L 260 272 L 260 272 L 260 272 L 261 271 L 263 271 L 268 270 L 279 270 L 283 270 L 285 269 L 285 269 L 287 269 L 288 268 L 288 268 L 288 268 L 288 267 L 288 267 L 288 267 L 288 266 L 288 266 L 288 266 L 288 265 L 288 265 L 288 265 L 288 264 L 289 264 L 289 264 L 291 263 L 291 263 L 291 262 L 291 262 L 293 262 L 293 261 L 293 261 L 293 261 L 293 260 L 293 260 L 293 260 L 294 259 L 294 259 L 295 259 L 295 258 L 295 258 L 295 258 L 295 257 L 296 257 L 296 257 L 296 256 L 296 256 L 297 256 L 297 255 L 297 255 L 298 254 L 299 254 L 300 254 L 301 253 L 303 253 L 303 253 L 304 252 L 304 252 L 304 252 L 304 251 L 304 251 L 306 251 L 306 250 L 308 250 L 308 250 L 309 249 L 310 249 L 312 249 L 312 248 L 314 248 L 314 248 L 315 247 L 316 247 L 316 247 L 320 246 L 320 246 L 321 245 L 324 245 L 326 245 L 329 244 L 330 244 L 330 244 L 331 243 L 331 243 L 331 243 L 334 242 L 336 242 L 337 242 L 337 241 L 338 241 L 340 241 L 340 240 L 340 240 L 340 240 L 340 239 L 340 239 L 341 239 L 342 238 L 342 238 L 342 237 L 343 237 L 346 237 L 351 236 L 351 236 L 351 236 L 354 235 L 356 235 L 357 235 L 357 234 L 358 234 L 359 234 L 359 233 L 359 233 L 359 233 L 359 232 L 360 232 L 360 232 L 360 231 L 360 231 L 361 231 L 363 230 L 363 230 L 363 229 L 363 229 L 363 229 L 364 228 L 364 228 L 364 228 L 364 227 L 364 227 L 364 227 L 364 226 L 364 226 L 368 226 L 370 225 L 370 225 L 371 225 L 380 224 L 381 224 L 384 224 L 386 223 L 394 223 L 396 223 L 396 222 L 396 222 L 396 221 L 397 221 L 397 221 L 397 220 L 398 220 L 399 220 L 406 219 L 408 219 L 411 219 L 416 218 L 420 218 L 424 218 L 426 217 L 430 217 L 430 217 L 439 216 L 447 216 L 447 216 L 453 215 L 453 215 L 458 215 L 459 214 L 461 214 L 461 214 L 462 213 L 462 213 L 465 212 L 466 212 L 468 212 L 472 211 L 472 211 L 473 211 L 474 210 L 477 210 L 480 210 L 480 209 L 484 209 L 487 209 L 488 208 L 488 208 L 489 208 L 490 207 L 491 207 L 494 207 L 496 206 L 499 206 L 501 206 L 501 205 L 506 205 L 506 204 L 509 204 L 513 204 L 513 203 L 518 203 L 518 203 L 518 202 L 520 202 L 520 202 L 522 201 L 522 201 L 524 201 L 527 200 L 527 200 L 528 200 L 528 199 L 535 199 L 535 199 L 536 198 L 536 198 L 536 198 L 537 197 L 537 197 L 537 196 L 538 196 L 540 196 L 540 195 L 541 195 L 542 195 L 542 194 L 543 194 L 543 194 L 543 193 L 544 193 L 544 193 L 544 192 L 545 192 L 545 192 L 545 191 L 546 191 L 547 191 L 548 190 L 548 190 L 548 190 L 549 189 L 549 189 L 550 188 L 552 188 L 552 188 L 552 187 L 553 187 L 555 187 L 555 186 L 555 186 L 556 186 L 558 185 L 558 185 L 558 185 L 558 184 L 558 184 L 558 184 L 559 183 L 559 183 L 559 183 L 560 182 L 563 182 L 564 182 L 565 181 L 566 181 L 568 181 L 569 180 L 570 180 L 572 179 L 574 179 L 576 179 L 578 178 L 579 178 L 579 178 L 579 177 L 580 177 L 580 177 L 580 176 L 580 176 L 581 176 L 581 175 L 582 175 L 582 175 L 583 174 L 584 174 L 584 174 L 585 173 L 585 173 L 588 173 L 588 172 L 588 172 L 589 171 L 590 171 L 592 171 L 594 170 L 598 170 L 598 170 L 598 169 L 598 169 L 600 169 L 602 168 L 603 168 L 603 168 L 603 167 L 603 167 L 605 167 L 608 166 L 608 166 L 608 166 L 608 165 L 610 165 L 611 165 L 611 164 L 611 164 L 613 163 L 617 163 L 617 163 L 621 162 L 621 162 L 621 162 L 625 161 L 626 161 L 628 161 L 630 160 L 631 160 L 632 160 L 632 159 L 633 159 L 633 159 L 633 158 L 633 158 L 634 158 L 634 157 L 635 157 L 635 157 L 635 156 L 635 156 L 637 155 L 638 155 L 638 155 L 642 154 L 643 154 L 647 154 L 650 153 L 650 153 L 651 153 L 651 152 L 653 152 L 654 152 L 655 151 L 655 151 L 655 151 L 655 150 L 655 150 L 656 150 L 656 149 L 656 149 L 656 149 L 656 148 L 656 148 L 657 148 L 658 147 L 658 147 L 659 146 L 659 146 L 660 146 L 661 145 L 661 145 L 662 145 L 662 144 L 662 144 L 663 144 L 666 143 L 666 143 L 666 143 L 666 142 L 666 142 L 667 142 L 667 141 L 667 141 L 669 141 L 670 140 L 673 140 L 676 140 L 677 139 L 678 139 L 681 138 L 685 138 L 685 138 L 687 137 L 691 137 L 691 137 L 692 136 L 696 136 L 697 136 L 698 135 L 699 135 L 699 135 L 707 134 L 707 134 L 708 134 L 708 133 L 709 133 L 709 133 L 710 132 L 711 132 L 711 132 L 712 131 L 712 131 L 712 130 L 713 130 L 713 130 L 713 129 L 713 129 L 713 129 L 713 128 L 713 128 L 715 128 L 716 127 L 717 127 L 717 127 L 718 126 L 718 126 L 719 126 L 720 125 L 720 125 L 721 125 L 721 124 L 721 124 L 721 124 L 723 123 L 723 123 L 725 122 L 725 122 L 726 122 L 726 121 L 727 121 L 727 121 L 727 120 L 727 120 L 728 120 L 728 119 L 728 119 L 729 119 L 729 118 L 731 118 L 731 118 L 731 117 L 731 117 L 731 117 L 732 116 L 732 116 L 732 116 L 732 115 L 734 115 L 734 115 L 734 114 L 735 114 L 735 113 L 735 113 L 735 113 L 735 112 L 735 112 L 736 112 L 736 111 L 736 111 L 736 111 L 736 110 L 739 110 L 740 110 L 742 109 L 742 109 L 742 109 L 742 108 L 743 108 L 744 108 L 745 107 L 745 107 L 748 107 L 750 106 L 750 106 L 752 105 L 753 105 L 753 105 L 754 104 L 754 104 L 754 104 L 754 103 L 754 103 L 754 103 L 754 102 L 754 102 L 755 102 L 755 101 L 755 101 L 755 101 L 755 100 L 755 100 L 756 100 L 756 99 L 756 99 L 757 99 L 758 98 L 759 98 L 760 97 L 760 97 L 760 97 L 761 96 L 761 96 L 762 96 L 764 95 L 765 95 L 765 95 L 765 94 L 766 94 L 766 94 L 768 93 L 770 93 L 770 93 L 772 92 L 772 92 L 772 92 L 773 91 L 773 91 L 778 91 L 780 90 L 783 90 L 785 89 L 785 89 L 786 89 L 787 88 L 788 88 L 788 88 L 788 87 L 789 87 L 789 87 L 790 86 L 790 86 L 791 86 L 793 85 L 793 85 L 793 85 L 793 84 L 793 84 L 793 84 L 793 83 L 793 83 L 793 83 L 793 82 L 793 82 L 793 82 L 794 81 L 794 81 L 794 80 L 794 80 L 794 80 L 794 79 L 795 79 L 795 79 L 795 78 L 795 78 L 795 78 L 795 77 L 796 77 L 796 77 L 796 76 L 797 76 L 797 76 L 797 75 L 797 75 L 797 75 L 797 74 L 798 74 L 800 74 L 802 73 L 802 73 L 802 72 L 803 72 L 803 72 L 804 71 L 805 71 L 807 71 L 808 70 L 809 70 L 809 70 L 809 69 L 809 69 L 809 69 L 809 68 L 809 68 L 811 68 L 811 67 L 811 67 L 815 67 L 817 66 L 818 66 L 821 66 L 822 65 L 822 65 L 823 64 L 823 64 L 823 64 L 823 63 L 824 63 L 824 63 L 825 62 L 826 62 L 826 62 L 826 61 L 826 61 L 826 61 L 826 60 L 826 60 L 827 60 L 827 59 L 827 59 L 827 59 L 828 58 L 829 58 L 830 58 L 830 57 L 830 57 L 831 56 L 831 56 L 831 56 L 832 55 L 832 55 L 832 55 L 833 54 L 834 54 L 835 54 L 838 53 L 839 53 L 840 53 L 843 52 L 844 52 L 845 52 L 848 51 L 848 51 L 849 51 L 852 50 L 857 50 L 858 50 L 860 49 L 861 49 L 864 49 L 864 48 L 864 48 L 866 47 L 867 47 L 867 47 L 868 46 L 870 46 L 871 46 L 872 45 L 872 45 L 873 45 L 873 44 L 873 44 L 874 44 L 878 43 L 878 43 L 879 43 L 880 42 L 880 42 L 882 42 L 882 41 L 884 41 L 884 41 L 884 40 L 884 40 L 885 39 L 886 39 L 886 39 L 887 38 L 888 38 L 888 38 L 889 37 L 889 37 L 890 37 L 890 36 L 891 36 L 891 36 L 892 35 L 892 35 L 892 35 L 892 34 L 892 34 L 893 34 L 895 33 L 897 33 L 897 33 L 898 32 L 901 32 L 901 31 L 903 31 L 904 31 L 906 30 L 908 30 L 911 30 L 912 29 L 913 29 L 914 29 L 915 28 L 918 28 L 918 28 L 919 27 L 920 27 L 920 27 L 920 26 L 920 26 L 920 26 L 920 25 L 921 25 L 923 25 L 924 24 L 924 24 L 925 23 L 925 23 L 931 23 L 932 22 L 933 22 L 935 22 L 937 21 L 938 21 L 938 21 L 939 20 L 939 20 L 939 20 L 940 19 L 941 19 L 941 19 L 942 18 L 942 18 L 942 18 L 943 17 L 943 17 L 945 17 L 945 16" stroke-width="2"></path><path stroke-width="2" d="M 945 346 L 945.000000 15.000000" /><path stroke-width="2" d="M 945 346 L 945.000000 15.000000"></path><path stroke-width="2" d="M 945 346 L 950 346" /><path stroke-width="2" d="M 945 346 L 950 346"></path><text xmlns="http://www.w3.org/2000/svg" x="955" y="352">0</text><path stroke-width="2" d="M 945 309 L 950 309" /><path stroke-width="2" d="M 945 309 L 950 309"></path><text x="955" y="315" xmlns="http://www.w3.org/2000/svg">106</text><path stroke-width="2" d="M 945 272 L 950 272" /><path stroke-width="2" d="M 945 272 L 950 272"></path><text xmlns="http://www.w3.org/2000/svg" x="955" y="278">212</text><path stroke-width="2" d="M 945 235 L 950 235" /><path stroke-width="2" d="M 945 235 L 950 235"></path><text x="955" y="241" xmlns="http://www.w3.org/2000/svg">317</text><path stroke-width="2" d="M 945 199 L 950 199" /><path stroke-width="2" d="M 945 199 L 950 199"></path><text xmlns="http://www.w3.org/2000/svg" x="955" y="205">423</text><path stroke-width="2" d="M 945 162 L 950 162" /><path stroke-width="2" d="M 945 162 L 950 162"></path><text xmlns="http://www.w3.org/2000/svg" x="955" y="168">528</text><path stroke-width="2" d="M 945 125 L 950 125" /><path stroke-width="2" d="M 945 125 L 950 125"></path><text xmlns="http://www.w3.org/2000/svg" x="955" y="131">634</text><path stroke-width="2" d="M 945 89 L 950 89" /><path stroke-width="2" d="M 945 89 L 950 89"></path><text xmlns="http://www.w3.org/2000/svg" x="955" y="95">739</text><path stroke-width="2" d="M 945 52 L 950 52" /><path stroke-width="2" d="M 945 52 L 950 52"></path><text x="955" y="58" xmlns="http://www.w3.org/2000/svg">845</text><path stroke-width="2" d="M 945 16 L 950 16" /><path stroke-width="2" d="M 945 16 L 950 16"></path><text x="955" y="22" xmlns="http://www.w3.org/2000/svg">950</text><text x="987" y="175" transform="rotate(90.00,987,175)" xmlns="http://www.w3.org/2000/svg">Stargazers</text><path stroke-width="2" d="M 57.000000 346.000000 L 945 346" /><path stroke-width="2" d="M 57.000000 346.000000 L 945 346"></path><path stroke-width="2" d="M 58 346 L 58 351" /><path stroke-width="2" d="M 58 346 L 58 351"></path><text xmlns="http://www.w3.org/2000/svg" x="25" y="368">2023-04-02</text><path d="M 157 346 L 157 351" stroke-width="2" /><path stroke-width="2" d="M 157 346 L 157 351"></path><text xmlns="http://www.w3.org/2000/svg" x="124" y="368">2023-06-25</text><path stroke-width="2" d="M 256 346 L 256 351" /><path stroke-width="2" d="M 256 346 L 256 351"></path><text xmlns="http://www.w3.org/2000/svg" x="223" y="368">2023-09-17</text><path stroke-width="2" d="M 354 346 L 354 351" /><path stroke-width="2" d="M 354 346 L 354 351"></path><text x="321" y="368" xmlns="http://www.w3.org/2000/svg">2023-12-10</text><path stroke-width="2" d="M 453 346 L 453 351" /><path d="M 453 346 L 453 351" stroke-width="2"></path><text xmlns="http://www.w3.org/2000/svg" x="420" y="368">2024-03-04</text><path stroke-width="2" d="M 551 346 L 551 351" /><path stroke-width="2" d="M 551 346 L 551 351"></path><text y="368" xmlns="http://www.w3.org/2000/svg" x="518">2024-05-27</text><path stroke-width="2" d="M 650 346 L 650 351" /><path stroke-width="2" d="M 650 346 L 650 351"></path><text xmlns="http://www.w3.org/2000/svg" x="617" y="368">2024-08-19</text><path stroke-width="2" d="M 748 346 L 748 351" /><path stroke-width="2" d="M 748 346 L 748 351"></path><text xmlns="http://www.w3.org/2000/svg" x="715" y="368">2024-11-11</text><path stroke-width="2" d="M 847 346 L 847 351" /><path stroke-width="2" d="M 847 346 L 847 351"></path><text xmlns="http://www.w3.org/2000/svg" x="814" y="368">2025-02-03</text><path stroke-width="2" d="M 945 346 L 945 351" /><path stroke-width="2" d="M 945 346 L 945 351"></path><text xmlns="http://www.w3.org/2000/svg" x="912" y="368">2025-04-29</text><text xmlns="http://www.w3.org/2000/svg" x="487" y="390">Time</text></svg>