<svg height="400px" xmlns="http://www.w3.org/2000/svg" xmlns:xlink="http://www.w3.org/1999/xlink" width="1024px"><style type="text/css">
path { fill: none; stroke: rgb(51,51,51); }
path.series { stroke: #6b63ff; }
rect.background { fill: rgb(255,255,255); stroke: none; }

text {
	stroke-width: 0;
	stroke: none;
	fill: rgba(51,51,51,1.0);
	font-size: 12.8px;
	font-family: 'Roboto Medium', sans-serif;
}
</style><rect height="400px" class="background" rx="8" x="0" y="0" width="1024px" /><rect width="1024px" height="400px" class="background" rx="8" x="0" y="0"></rect><path stroke-width="2" class="series" d="M 58 345 L 61 345 L 74 344 L 75 344 L 75 344 L 75 343 L 75 343 L 75 343 L 75 342 L 75 342 L 75 342 L 75 341 L 75 341 L 75 341 L 75 340 L 75 340 L 75 340 L 76 339 L 76 339 L 76 339 L 77 338 L 77 338 L 78 338 L 78 337 L 78 337 L 79 337 L 79 336 L 80 336 L 81 336 L 81 335 L 82 335 L 83 335 L 88 334 L 88 334 L 88 334 L 88 333 L 88 333 L 90 333 L 92 332 L 92 332 L 94 332 L 98 331 L 99 331 L 105 331 L 107 330 L 110 330 L 114 330 L 115 329 L 128 329 L 129 329 L 129 328 L 131 328 L 131 328 L 131 327 L 131 327 L 131 327 L 131 326 L 131 326 L 131 326 L 131 325 L 131 325 L 131 325 L 131 324 L 131 324 L 132 324 L 132 323 L 132 323 L 132 323 L 132 322 L 132 322 L 132 322 L 132 321 L 132 321 L 132 321 L 132 320 L 132 320 L 132 320 L 132 319 L 132 319 L 132 319 L 132 318 L 132 318 L 132 318 L 132 317 L 132 317 L 132 317 L 132 316 L 132 316 L 132 316 L 132 315 L 132 315 L 132 315 L 132 314 L 132 314 L 132 314 L 132 313 L 132 313 L 132 313 L 132 312 L 132 312 L 133 311 L 133 311 L 133 311 L 133 310 L 133 310 L 134 310 L 134 309 L 134 309 L 134 309 L 134 308 L 134 308 L 134 308 L 134 307 L 134 307 L 134 307 L 134 306 L 134 306 L 134 306 L 134 305 L 134 305 L 134 305 L 134 304 L 135 304 L 135 304 L 135 303 L 136 303 L 136 303 L 139 302 L 139 302 L 139 302 L 140 301 L 140 301 L 142 301 L 144 300 L 145 300 L 147 300 L 147 299 L 149 299 L 149 299 L 149 298 L 151 298 L 152 298 L 152 297 L 153 297 L 154 297 L 155 296 L 155 296 L 155 296 L 155 295 L 156 295 L 157 295 L 157 294 L 158 294 L 158 294 L 158 293 L 159 293 L 160 293 L 161 292 L 163 292 L 164 292 L 165 291 L 166 291 L 166 291 L 166 290 L 167 290 L 173 290 L 173 289 L 174 289 L 179 289 L 179 288 L 179 288 L 179 288 L 180 287 L 180 287 L 182 287 L 183 286 L 183 286 L 190 286 L 191 285 L 192 285 L 194 285 L 196 284 L 196 284 L 196 284 L 201 283 L 206 283 L 212 283 L 212 282 L 212 282 L 212 282 L 213 281 L 214 281 L 221 281 L 225 280 L 225 280 L 228 280 L 229 279 L 229 279 L 237 278 L 237 278 L 238 278 L 238 277 L 240 277 L 242 277 L 243 276 L 245 276 L 246 276 L 247 275 L 252 275 L 252 275 L 253 274 L 253 274 L 254 274 L 254 273 L 256 273 L 261 273 L 272 272 L 276 272 L 278 272 L 278 271 L 279 271 L 280 271 L 280 270 L 280 270 L 280 270 L 280 269 L 280 269 L 281 269 L 281 268 L 281 268 L 281 268 L 281 267 L 281 267 L 281 267 L 281 266 L 282 266 L 284 266 L 284 265 L 284 265 L 284 265 L 285 264 L 285 264 L 285 264 L 285 263 L 285 263 L 285 263 L 285 262 L 286 262 L 287 262 L 287 261 L 287 261 L 287 261 L 287 260 L 287 260 L 288 260 L 288 259 L 288 259 L 288 259 L 289 258 L 289 258 L 290 258 L 290 257 L 291 257 L 292 257 L 293 256 L 295 256 L 295 256 L 296 255 L 296 255 L 296 255 L 296 254 L 296 254 L 298 254 L 298 253 L 300 253 L 300 253 L 301 252 L 302 252 L 303 252 L 303 251 L 306 251 L 306 251 L 306 250 L 307 250 L 307 250 L 311 249 L 312 249 L 312 249 L 315 248 L 317 248 L 320 248 L 321 247 L 321 247 L 322 247 L 322 246 L 322 246 L 325 245 L 327 245 L 328 245 L 328 244 L 329 244 L 330 244 L 330 243 L 330 243 L 331 243 L 331 242 L 331 242 L 331 242 L 332 241 L 332 241 L 333 241 L 333 240 L 337 240 L 342 240 L 342 239 L 342 239 L 345 239 L 346 238 L 347 238 L 347 238 L 348 237 L 349 237 L 349 237 L 349 236 L 349 236 L 349 236 L 350 235 L 350 235 L 350 235 L 350 234 L 351 234 L 353 234 L 353 233 L 353 233 L 353 233 L 353 232 L 354 232 L 354 232 L 354 231 L 354 231 L 354 231 L 354 230 L 354 230 L 354 230 L 357 229 L 360 229 L 360 229 L 361 228 L 370 228 L 371 228 L 374 227 L 376 227 L 383 227 L 385 226 L 385 226 L 385 226 L 385 225 L 386 225 L 386 225 L 386 224 L 387 224 L 388 224 L 395 223 L 397 223 L 399 223 L 405 222 L 409 222 L 412 222 L 414 221 L 418 221 L 418 221 L 426 220 L 434 220 L 434 220 L 440 219 L 440 219 L 445 219 L 446 218 L 448 218 L 448 218 L 449 217 L 449 217 L 451 217 L 453 216 L 455 216 L 458 216 L 459 215 L 460 215 L 460 215 L 463 214 L 466 214 L 466 214 L 470 213 L 473 213 L 474 212 L 474 212 L 475 212 L 476 211 L 477 211 L 480 211 L 482 210 L 484 210 L 487 210 L 487 209 L 491 209 L 492 209 L 494 208 L 498 208 L 498 208 L 503 207 L 503 207 L 503 207 L 505 206 L 505 206 L 507 206 L 507 205 L 509 205 L 511 205 L 512 204 L 513 204 L 513 204 L 520 203 L 520 203 L 520 203 L 520 202 L 521 202 L 521 202 L 522 201 L 522 201 L 522 201 L 524 200 L 524 200 L 525 200 L 526 199 L 527 199 L 527 199 L 528 198 L 528 198 L 528 198 L 529 197 L 529 197 L 529 197 L 529 196 L 529 196 L 530 196 L 531 195 L 532 195 L 532 195 L 532 194 L 533 194 L 533 194 L 534 193 L 536 193 L 536 193 L 536 192 L 537 192 L 539 192 L 539 191 L 539 191 L 540 191 L 541 190 L 541 190 L 541 190 L 542 189 L 542 189 L 542 189 L 542 188 L 543 188 L 543 188 L 544 187 L 547 187 L 548 187 L 549 186 L 549 186 L 551 186 L 553 185 L 553 185 L 555 185 L 557 184 L 559 184 L 561 184 L 562 183 L 562 183 L 562 183 L 563 182 L 563 182 L 563 182 L 563 181 L 564 181 L 564 181 L 565 180 L 565 180 L 566 179 L 567 179 L 567 179 L 568 178 L 568 178 L 570 178 L 571 177 L 571 177 L 572 177 L 572 176 L 575 176 L 580 176 L 580 175 L 580 175 L 581 175 L 583 174 L 585 174 L 585 174 L 585 173 L 585 173 L 586 173 L 587 172 L 590 172 L 590 172 L 590 171 L 590 171 L 592 171 L 593 170 L 593 170 L 593 170 L 595 169 L 599 169 L 599 169 L 602 168 L 602 168 L 603 168 L 606 167 L 607 167 L 610 167 L 611 166 L 613 166 L 614 166 L 614 165 L 614 165 L 615 165 L 615 164 L 615 164 L 615 164 L 616 163 L 616 163 L 617 163 L 617 162 L 617 162 L 618 162 L 619 161 L 619 161 L 623 161 L 624 160 L 628 160 L 630 160 L 630 159 L 631 159 L 632 159 L 635 158 L 635 158 L 635 158 L 636 157 L 636 157 L 636 157 L 636 156 L 636 156 L 637 156 L 637 155 L 637 155 L 637 155 L 637 154 L 638 154 L 638 154 L 640 153 L 640 153 L 640 153 L 641 152 L 642 152 L 642 152 L 642 151 L 643 151 L 644 151 L 646 150 L 646 150 L 646 150 L 646 149 L 646 149 L 647 149 L 647 148 L 648 148 L 649 148 L 650 147 L 653 147 L 656 146 L 656 146 L 658 146 L 661 145 L 664 145 L 665 145 L 667 144 L 671 144 L 671 144 L 671 143 L 675 143 L 677 143 L 677 142 L 678 142 L 678 142 L 686 141 L 686 141 L 687 141 L 687 140 L 687 140 L 688 140 L 689 139 L 689 139 L 689 139 L 690 138 L 690 138 L 691 138 L 691 137 L 691 137 L 692 137 L 692 136 L 692 136 L 692 136 L 692 135 L 694 135 L 695 135 L 696 134 L 696 134 L 696 134 L 697 133 L 697 133 L 698 133 L 699 132 L 699 132 L 700 132 L 700 131 L 700 131 L 701 131 L 702 130 L 703 130 L 703 130 L 704 129 L 705 129 L 705 129 L 705 128 L 705 128 L 705 128 L 706 127 L 706 127 L 707 127 L 708 126 L 708 126 L 709 126 L 709 125 L 709 125 L 709 125 L 710 124 L 710 124 L 711 124 L 711 123 L 711 123 L 712 123 L 712 122 L 712 122 L 713 122 L 713 121 L 713 121 L 713 121 L 713 120 L 713 120 L 714 120 L 714 119 L 714 119 L 714 119 L 714 118 L 717 118 L 717 118 L 720 117 L 720 117 L 720 117 L 720 116 L 721 116 L 722 116 L 722 115 L 723 115 L 725 115 L 728 114 L 728 114 L 729 113 L 730 113 L 730 113 L 731 112 L 731 112 L 732 112 L 732 111 L 732 111 L 732 111 L 732 110 L 732 110 L 732 110 L 732 109 L 732 109 L 733 109 L 733 108 L 733 108 L 734 108 L 734 107 L 735 107 L 736 107 L 737 106 L 737 106 L 737 106 L 738 105 L 738 105 L 739 105 L 742 104 L 742 104 L 742 104 L 742 103 L 743 103 L 745 103 L 747 102 L 747 102 L 749 102 L 749 101 L 749 101 L 749 101 L 750 100 L 755 100 L 757 100 L 760 99 L 761 99 L 762 99 L 763 98 L 764 98 L 764 98 L 764 97 L 764 97 L 765 97 L 765 96 L 766 96 L 766 96 L 767 95 L 769 95 L 769 95 L 769 94 L 769 94 L 769 94 L 769 93 L 769 93 L 769 93 L 769 92 L 769 92 L 769 92 L 770 91 L 770 91 L 770 91 L 770 90 L 770 90 L 770 90 L 770 89 L 771 89 L 771 89 L 771 88 L 771 88 L 771 88 L 771 87 L 772 87 L 772 87 L 772 86 L 773 86 L 773 86 L 773 85 L 773 85 L 773 85 L 773 84 L 774 84 L 775 84 L 777 83 L 778 83 L 778 83 L 779 82 L 779 82 L 779 82 L 780 81 L 782 81 L 783 80 L 784 80 L 784 80 L 784 79 L 784 79 L 784 79 L 784 78 L 784 78 L 786 78 L 787 77 L 787 77 L 790 77 L 792 76 L 793 76 L 796 76 L 797 75 L 798 75 L 798 75 L 798 74 L 798 74 L 798 74 L 799 73 L 799 73 L 800 73 L 801 72 L 801 72 L 801 72 L 801 71 L 801 71 L 801 71 L 801 70 L 802 70 L 802 70 L 802 69 L 802 69 L 803 69 L 804 68 L 804 68 L 805 68 L 805 67 L 806 67 L 806 67 L 806 66 L 807 66 L 807 66 L 807 65 L 808 65 L 808 65 L 809 64 L 813 64 L 814 64 L 815 63 L 817 63 L 818 63 L 819 62 L 822 62 L 823 62 L 823 61 L 826 61 L 831 61 L 832 60 L 833 60 L 835 60 L 837 59 L 838 59 L 838 59 L 840 58 L 840 58 L 841 58 L 842 57 L 843 57 L 845 57 L 845 56 L 846 56 L 846 56 L 847 55 L 847 55 L 848 55 L 851 54 L 851 54 L 852 54 L 853 53 L 854 53 L 855 53 L 856 52 L 857 52 L 857 52 L 857 51 L 857 51 L 858 51 L 859 50 L 859 50 L 860 50 L 861 49 L 861 49 L 862 49 L 862 48 L 863 48 L 863 47 L 863 47 L 864 47 L 865 46 L 865 46 L 865 46 L 865 45 L 865 45 L 866 45 L 868 44 L 869 44 L 870 44 L 870 43 L 873 43 L 874 43 L 875 42 L 876 42 L 879 42 L 881 41 L 883 41 L 884 41 L 885 40 L 886 40 L 887 40 L 890 39 L 891 39 L 892 39 L 892 38 L 892 38 L 892 38 L 892 37 L 892 37 L 893 37 L 894 36 L 895 36 L 896 36 L 896 35 L 897 35 L 903 35 L 904 34 L 905 34 L 906 34 L 908 33 L 909 33 L 909 33 L 910 32 L 910 32 L 910 32 L 912 31 L 912 31 L 912 31 L 913 30 L 914 30 L 914 30 L 914 29 L 915 29 L 916 29 L 917 28 L 920 28 L 920 28 L 925 27 L 926 27 L 926 27 L 927 26 L 928 26 L 928 26 L 928 25 L 928 25 L 932 25 L 933 24 L 935 24 L 935 24 L 935 23 L 935 23 L 937 23 L 938 22 L 941 22 L 941 22 L 941 21 L 941 21 L 942 21 L 942 20 L 942 20 L 943 20 L 944 19 L 944 19 L 945 19" /><path stroke-width="2" class="series" d="M 58 345 L 61 345 L 74 344 L 75 344 L 75 344 L 75 343 L 75 343 L 75 343 L 75 342 L 75 342 L 75 342 L 75 341 L 75 341 L 75 341 L 75 340 L 75 340 L 75 340 L 76 339 L 76 339 L 76 339 L 77 338 L 77 338 L 78 338 L 78 337 L 78 337 L 79 337 L 79 336 L 80 336 L 81 336 L 81 335 L 82 335 L 83 335 L 88 334 L 88 334 L 88 334 L 88 333 L 88 333 L 90 333 L 92 332 L 92 332 L 94 332 L 98 331 L 99 331 L 105 331 L 107 330 L 110 330 L 114 330 L 115 329 L 128 329 L 129 329 L 129 328 L 131 328 L 131 328 L 131 327 L 131 327 L 131 327 L 131 326 L 131 326 L 131 326 L 131 325 L 131 325 L 131 325 L 131 324 L 131 324 L 132 324 L 132 323 L 132 323 L 132 323 L 132 322 L 132 322 L 132 322 L 132 321 L 132 321 L 132 321 L 132 320 L 132 320 L 132 320 L 132 319 L 132 319 L 132 319 L 132 318 L 132 318 L 132 318 L 132 317 L 132 317 L 132 317 L 132 316 L 132 316 L 132 316 L 132 315 L 132 315 L 132 315 L 132 314 L 132 314 L 132 314 L 132 313 L 132 313 L 132 313 L 132 312 L 132 312 L 133 311 L 133 311 L 133 311 L 133 310 L 133 310 L 134 310 L 134 309 L 134 309 L 134 309 L 134 308 L 134 308 L 134 308 L 134 307 L 134 307 L 134 307 L 134 306 L 134 306 L 134 306 L 134 305 L 134 305 L 134 305 L 134 304 L 135 304 L 135 304 L 135 303 L 136 303 L 136 303 L 139 302 L 139 302 L 139 302 L 140 301 L 140 301 L 142 301 L 144 300 L 145 300 L 147 300 L 147 299 L 149 299 L 149 299 L 149 298 L 151 298 L 152 298 L 152 297 L 153 297 L 154 297 L 155 296 L 155 296 L 155 296 L 155 295 L 156 295 L 157 295 L 157 294 L 158 294 L 158 294 L 158 293 L 159 293 L 160 293 L 161 292 L 163 292 L 164 292 L 165 291 L 166 291 L 166 291 L 166 290 L 167 290 L 173 290 L 173 289 L 174 289 L 179 289 L 179 288 L 179 288 L 179 288 L 180 287 L 180 287 L 182 287 L 183 286 L 183 286 L 190 286 L 191 285 L 192 285 L 194 285 L 196 284 L 196 284 L 196 284 L 201 283 L 206 283 L 212 283 L 212 282 L 212 282 L 212 282 L 213 281 L 214 281 L 221 281 L 225 280 L 225 280 L 228 280 L 229 279 L 229 279 L 237 278 L 237 278 L 238 278 L 238 277 L 240 277 L 242 277 L 243 276 L 245 276 L 246 276 L 247 275 L 252 275 L 252 275 L 253 274 L 253 274 L 254 274 L 254 273 L 256 273 L 261 273 L 272 272 L 276 272 L 278 272 L 278 271 L 279 271 L 280 271 L 280 270 L 280 270 L 280 270 L 280 269 L 280 269 L 281 269 L 281 268 L 281 268 L 281 268 L 281 267 L 281 267 L 281 267 L 281 266 L 282 266 L 284 266 L 284 265 L 284 265 L 284 265 L 285 264 L 285 264 L 285 264 L 285 263 L 285 263 L 285 263 L 285 262 L 286 262 L 287 262 L 287 261 L 287 261 L 287 261 L 287 260 L 287 260 L 288 260 L 288 259 L 288 259 L 288 259 L 289 258 L 289 258 L 290 258 L 290 257 L 291 257 L 292 257 L 293 256 L 295 256 L 295 256 L 296 255 L 296 255 L 296 255 L 296 254 L 296 254 L 298 254 L 298 253 L 300 253 L 300 253 L 301 252 L 302 252 L 303 252 L 303 251 L 306 251 L 306 251 L 306 250 L 307 250 L 307 250 L 311 249 L 312 249 L 312 249 L 315 248 L 317 248 L 320 248 L 321 247 L 321 247 L 322 247 L 322 246 L 322 246 L 325 245 L 327 245 L 328 245 L 328 244 L 329 244 L 330 244 L 330 243 L 330 243 L 331 243 L 331 242 L 331 242 L 331 242 L 332 241 L 332 241 L 333 241 L 333 240 L 337 240 L 342 240 L 342 239 L 342 239 L 345 239 L 346 238 L 347 238 L 347 238 L 348 237 L 349 237 L 349 237 L 349 236 L 349 236 L 349 236 L 350 235 L 350 235 L 350 235 L 350 234 L 351 234 L 353 234 L 353 233 L 353 233 L 353 233 L 353 232 L 354 232 L 354 232 L 354 231 L 354 231 L 354 231 L 354 230 L 354 230 L 354 230 L 357 229 L 360 229 L 360 229 L 361 228 L 370 228 L 371 228 L 374 227 L 376 227 L 383 227 L 385 226 L 385 226 L 385 226 L 385 225 L 386 225 L 386 225 L 386 224 L 387 224 L 388 224 L 395 223 L 397 223 L 399 223 L 405 222 L 409 222 L 412 222 L 414 221 L 418 221 L 418 221 L 426 220 L 434 220 L 434 220 L 440 219 L 440 219 L 445 219 L 446 218 L 448 218 L 448 218 L 449 217 L 449 217 L 451 217 L 453 216 L 455 216 L 458 216 L 459 215 L 460 215 L 460 215 L 463 214 L 466 214 L 466 214 L 470 213 L 473 213 L 474 212 L 474 212 L 475 212 L 476 211 L 477 211 L 480 211 L 482 210 L 484 210 L 487 210 L 487 209 L 491 209 L 492 209 L 494 208 L 498 208 L 498 208 L 503 207 L 503 207 L 503 207 L 505 206 L 505 206 L 507 206 L 507 205 L 509 205 L 511 205 L 512 204 L 513 204 L 513 204 L 520 203 L 520 203 L 520 203 L 520 202 L 521 202 L 521 202 L 522 201 L 522 201 L 522 201 L 524 200 L 524 200 L 525 200 L 526 199 L 527 199 L 527 199 L 528 198 L 528 198 L 528 198 L 529 197 L 529 197 L 529 197 L 529 196 L 529 196 L 530 196 L 531 195 L 532 195 L 532 195 L 532 194 L 533 194 L 533 194 L 534 193 L 536 193 L 536 193 L 536 192 L 537 192 L 539 192 L 539 191 L 539 191 L 540 191 L 541 190 L 541 190 L 541 190 L 542 189 L 542 189 L 542 189 L 542 188 L 543 188 L 543 188 L 544 187 L 547 187 L 548 187 L 549 186 L 549 186 L 551 186 L 553 185 L 553 185 L 555 185 L 557 184 L 559 184 L 561 184 L 562 183 L 562 183 L 562 183 L 563 182 L 563 182 L 563 182 L 563 181 L 564 181 L 564 181 L 565 180 L 565 180 L 566 179 L 567 179 L 567 179 L 568 178 L 568 178 L 570 178 L 571 177 L 571 177 L 572 177 L 572 176 L 575 176 L 580 176 L 580 175 L 580 175 L 581 175 L 583 174 L 585 174 L 585 174 L 585 173 L 585 173 L 586 173 L 587 172 L 590 172 L 590 172 L 590 171 L 590 171 L 592 171 L 593 170 L 593 170 L 593 170 L 595 169 L 599 169 L 599 169 L 602 168 L 602 168 L 603 168 L 606 167 L 607 167 L 610 167 L 611 166 L 613 166 L 614 166 L 614 165 L 614 165 L 615 165 L 615 164 L 615 164 L 615 164 L 616 163 L 616 163 L 617 163 L 617 162 L 617 162 L 618 162 L 619 161 L 619 161 L 623 161 L 624 160 L 628 160 L 630 160 L 630 159 L 631 159 L 632 159 L 635 158 L 635 158 L 635 158 L 636 157 L 636 157 L 636 157 L 636 156 L 636 156 L 637 156 L 637 155 L 637 155 L 637 155 L 637 154 L 638 154 L 638 154 L 640 153 L 640 153 L 640 153 L 641 152 L 642 152 L 642 152 L 642 151 L 643 151 L 644 151 L 646 150 L 646 150 L 646 150 L 646 149 L 646 149 L 647 149 L 647 148 L 648 148 L 649 148 L 650 147 L 653 147 L 656 146 L 656 146 L 658 146 L 661 145 L 664 145 L 665 145 L 667 144 L 671 144 L 671 144 L 671 143 L 675 143 L 677 143 L 677 142 L 678 142 L 678 142 L 686 141 L 686 141 L 687 141 L 687 140 L 687 140 L 688 140 L 689 139 L 689 139 L 689 139 L 690 138 L 690 138 L 691 138 L 691 137 L 691 137 L 692 137 L 692 136 L 692 136 L 692 136 L 692 135 L 694 135 L 695 135 L 696 134 L 696 134 L 696 134 L 697 133 L 697 133 L 698 133 L 699 132 L 699 132 L 700 132 L 700 131 L 700 131 L 701 131 L 702 130 L 703 130 L 703 130 L 704 129 L 705 129 L 705 129 L 705 128 L 705 128 L 705 128 L 706 127 L 706 127 L 707 127 L 708 126 L 708 126 L 709 126 L 709 125 L 709 125 L 709 125 L 710 124 L 710 124 L 711 124 L 711 123 L 711 123 L 712 123 L 712 122 L 712 122 L 713 122 L 713 121 L 713 121 L 713 121 L 713 120 L 713 120 L 714 120 L 714 119 L 714 119 L 714 119 L 714 118 L 717 118 L 717 118 L 720 117 L 720 117 L 720 117 L 720 116 L 721 116 L 722 116 L 722 115 L 723 115 L 725 115 L 728 114 L 728 114 L 729 113 L 730 113 L 730 113 L 731 112 L 731 112 L 732 112 L 732 111 L 732 111 L 732 111 L 732 110 L 732 110 L 732 110 L 732 109 L 732 109 L 733 109 L 733 108 L 733 108 L 734 108 L 734 107 L 735 107 L 736 107 L 737 106 L 737 106 L 737 106 L 738 105 L 738 105 L 739 105 L 742 104 L 742 104 L 742 104 L 742 103 L 743 103 L 745 103 L 747 102 L 747 102 L 749 102 L 749 101 L 749 101 L 749 101 L 750 100 L 755 100 L 757 100 L 760 99 L 761 99 L 762 99 L 763 98 L 764 98 L 764 98 L 764 97 L 764 97 L 765 97 L 765 96 L 766 96 L 766 96 L 767 95 L 769 95 L 769 95 L 769 94 L 769 94 L 769 94 L 769 93 L 769 93 L 769 93 L 769 92 L 769 92 L 769 92 L 770 91 L 770 91 L 770 91 L 770 90 L 770 90 L 770 90 L 770 89 L 771 89 L 771 89 L 771 88 L 771 88 L 771 88 L 771 87 L 772 87 L 772 87 L 772 86 L 773 86 L 773 86 L 773 85 L 773 85 L 773 85 L 773 84 L 774 84 L 775 84 L 777 83 L 778 83 L 778 83 L 779 82 L 779 82 L 779 82 L 780 81 L 782 81 L 783 80 L 784 80 L 784 80 L 784 79 L 784 79 L 784 79 L 784 78 L 784 78 L 786 78 L 787 77 L 787 77 L 790 77 L 792 76 L 793 76 L 796 76 L 797 75 L 798 75 L 798 75 L 798 74 L 798 74 L 798 74 L 799 73 L 799 73 L 800 73 L 801 72 L 801 72 L 801 72 L 801 71 L 801 71 L 801 71 L 801 70 L 802 70 L 802 70 L 802 69 L 802 69 L 803 69 L 804 68 L 804 68 L 805 68 L 805 67 L 806 67 L 806 67 L 806 66 L 807 66 L 807 66 L 807 65 L 808 65 L 808 65 L 809 64 L 813 64 L 814 64 L 815 63 L 817 63 L 818 63 L 819 62 L 822 62 L 823 62 L 823 61 L 826 61 L 831 61 L 832 60 L 833 60 L 835 60 L 837 59 L 838 59 L 838 59 L 840 58 L 840 58 L 841 58 L 842 57 L 843 57 L 845 57 L 845 56 L 846 56 L 846 56 L 847 55 L 847 55 L 848 55 L 851 54 L 851 54 L 852 54 L 853 53 L 854 53 L 855 53 L 856 52 L 857 52 L 857 52 L 857 51 L 857 51 L 858 51 L 859 50 L 859 50 L 860 50 L 861 49 L 861 49 L 862 49 L 862 48 L 863 48 L 863 47 L 863 47 L 864 47 L 865 46 L 865 46 L 865 46 L 865 45 L 865 45 L 866 45 L 868 44 L 869 44 L 870 44 L 870 43 L 873 43 L 874 43 L 875 42 L 876 42 L 879 42 L 881 41 L 883 41 L 884 41 L 885 40 L 886 40 L 887 40 L 890 39 L 891 39 L 892 39 L 892 38 L 892 38 L 892 38 L 892 37 L 892 37 L 893 37 L 894 36 L 895 36 L 896 36 L 896 35 L 897 35 L 903 35 L 904 34 L 905 34 L 906 34 L 908 33 L 909 33 L 909 33 L 910 32 L 910 32 L 910 32 L 912 31 L 912 31 L 912 31 L 913 30 L 914 30 L 914 30 L 914 29 L 915 29 L 916 29 L 917 28 L 920 28 L 920 28 L 925 27 L 926 27 L 926 27 L 927 26 L 928 26 L 928 26 L 928 25 L 928 25 L 932 25 L 933 24 L 935 24 L 935 24 L 935 23 L 935 23 L 937 23 L 938 22 L 941 22 L 941 22 L 941 21 L 941 21 L 942 21 L 942 20 L 942 20 L 943 20 L 944 19 L 944 19 L 945 19"></path><path stroke-width="2" d="M 945 346 L 945.000000 15.000000" /><path stroke-width="2" d="M 945 346 L 945.000000 15.000000"></path><path d="M 945 346 L 950 346" stroke-width="2" /><path stroke-width="2" d="M 945 346 L 950 346"></path><text xmlns="http://www.w3.org/2000/svg" x="955" y="352">0</text><path stroke-width="2" d="M 945 309 L 950 309" /><path stroke-width="2" d="M 945 309 L 950 309"></path><text xmlns="http://www.w3.org/2000/svg" x="955" y="315">109</text><path stroke-width="2" d="M 945 272 L 950 272" /><path stroke-width="2" d="M 945 272 L 950 272"></path><text xmlns="http://www.w3.org/2000/svg" x="955" y="278">218</text><path stroke-width="2" d="M 945 235 L 950 235" /><path stroke-width="2" d="M 945 235 L 950 235"></path><text xmlns="http://www.w3.org/2000/svg" x="955" y="241">327</text><path stroke-width="2" d="M 945 199 L 950 199" /><path stroke-width="2" d="M 945 199 L 950 199"></path><text xmlns="http://www.w3.org/2000/svg" x="955" y="205">436</text><path stroke-width="2" d="M 945 162 L 950 162" /><path stroke-width="2" d="M 945 162 L 950 162"></path><text xmlns="http://www.w3.org/2000/svg" x="955" y="168">545</text><path d="M 945 125 L 950 125" stroke-width="2" /><path stroke-width="2" d="M 945 125 L 950 125"></path><text xmlns="http://www.w3.org/2000/svg" x="955" y="131">654</text><path stroke-width="2" d="M 945 89 L 950 89" /><path stroke-width="2" d="M 945 89 L 950 89"></path><text x="955" y="95" xmlns="http://www.w3.org/2000/svg">763</text><path stroke-width="2" d="M 945 52 L 950 52" /><path stroke-width="2" d="M 945 52 L 950 52"></path><text xmlns="http://www.w3.org/2000/svg" x="955" y="58">872</text><path stroke-width="2" d="M 945 16 L 950 16" /><path stroke-width="2" d="M 945 16 L 950 16"></path><text xmlns="http://www.w3.org/2000/svg" x="955" y="22">980</text><text transform="rotate(90.00,987,175)" xmlns="http://www.w3.org/2000/svg" x="987" y="175">Stargazers</text><path stroke-width="2" d="M 57.000000 346.000000 L 945 346" /><path stroke-width="2" d="M 57.000000 346.000000 L 945 346"></path><path stroke-width="2" d="M 58 346 L 58 351" /><path stroke-width="2" d="M 58 346 L 58 351"></path><text xmlns="http://www.w3.org/2000/svg" x="25" y="368">2023-04-02</text><path stroke-width="2" d="M 157 346 L 157 351" /><path stroke-width="2" d="M 157 346 L 157 351"></path><text xmlns="http://www.w3.org/2000/svg" x="124" y="368">2023-06-28</text><path stroke-width="2" d="M 256 346 L 256 351" /><path stroke-width="2" d="M 256 346 L 256 351"></path><text xmlns="http://www.w3.org/2000/svg" x="223" y="368">2023-09-23</text><path stroke-width="2" d="M 354 346 L 354 351" /><path stroke-width="2" d="M 354 346 L 354 351"></path><text x="321" y="368" xmlns="http://www.w3.org/2000/svg">2023-12-19</text><path stroke-width="2" d="M 453 346 L 453 351" /><path stroke-width="2" d="M 453 346 L 453 351"></path><text x="420" y="368" xmlns="http://www.w3.org/2000/svg">2024-03-15</text><path stroke-width="2" d="M 551 346 L 551 351" /><path stroke-width="2" d="M 551 346 L 551 351"></path><text x="518" y="368" xmlns="http://www.w3.org/2000/svg">2024-06-10</text><path stroke-width="2" d="M 650 346 L 650 351" /><path stroke-width="2" d="M 650 346 L 650 351"></path><text xmlns="http://www.w3.org/2000/svg" x="617" y="368">2024-09-05</text><path stroke-width="2" d="M 748 346 L 748 351" /><path d="M 748 346 L 748 351" stroke-width="2"></path><text xmlns="http://www.w3.org/2000/svg" x="715" y="368">2024-12-01</text><path stroke-width="2" d="M 847 346 L 847 351" /><path stroke-width="2" d="M 847 346 L 847 351"></path><text xmlns="http://www.w3.org/2000/svg" x="814" y="368">2025-02-26</text><path stroke-width="2" d="M 945 346 L 945 351" /><path stroke-width="2" d="M 945 346 L 945 351"></path><text xmlns="http://www.w3.org/2000/svg" x="912" y="368">2025-05-24</text><text xmlns="http://www.w3.org/2000/svg" x="487" y="390">Time</text></svg>