<svg xmlns="http://www.w3.org/2000/svg" xmlns:xlink="http://www.w3.org/1999/xlink" width="1024px" height="400px"><style type="text/css">
path { fill: none; stroke: rgb(51,51,51); }
path.series { stroke: #6b63ff; }
rect.background { fill: rgb(255,255,255); stroke: none; }

text {
	stroke-width: 0;
	stroke: none;
	fill: rgba(51,51,51,1.0);
	font-size: 12.8px;
	font-family: 'Roboto Medium', sans-serif;
}
</style><rect x="0" y="0" width="1024px" height="400px" class="background" rx="8" /><rect width="1024px" height="400px" class="background" rx="8" x="0" y="0"></rect><path stroke-width="2" class="series" d="M 58 345 L 61 345 L 80 344 L 80 344 L 80 343 L 80 343 L 80 342 L 80 342 L 80 341 L 80 341 L 81 340 L 81 340 L 81 339 L 81 339 L 81 338 L 81 338 L 81 337 L 82 337 L 82 336 L 83 336 L 83 335 L 83 335 L 85 334 L 86 334 L 86 333 L 86 333 L 86 332 L 87 332 L 89 331 L 90 331 L 91 330 L 92 330 L 98 329 L 98 329 L 98 329 L 98 328 L 98 328 L 98 327 L 102 327 L 103 326 L 104 326 L 107 325 L 112 325 L 114 324 L 122 324 L 124 323 L 129 323 L 133 322 L 135 322 L 153 321 L 154 321 L 154 320 L 156 320 L 157 319 L 157 319 L 157 318 L 157 318 L 157 317 L 157 317 L 157 316 L 157 316 L 157 315 L 157 315 L 157 314 L 157 314 L 158 313 L 158 313 L 158 313 L 158 312 L 158 312 L 158 311 L 158 311 L 158 310 L 158 310 L 158 309 L 158 309 L 158 308 L 158 308 L 158 307 L 158 307 L 158 306 L 158 306 L 158 305 L 158 305 L 158 304 L 158 304 L 158 303 L 158 303 L 158 302 L 158 302 L 158 301 L 158 301 L 158 300 L 158 300 L 158 299 L 158 299 L 158 298 L 158 298 L 158 297 L 159 297 L 159 296 L 159 296 L 159 296 L 159 295 L 160 295 L 160 294 L 161 294 L 161 293 L 161 293 L 161 292 L 161 292 L 161 291 L 161 291 L 161 290 L 161 290 L 161 289 L 161 289 L 161 288 L 161 288 L 161 287 L 161 287 L 161 286 L 161 286 L 162 285 L 163 285 L 163 284 L 163 284 L 163 283 L 167 283 L 167 282 L 167 282 L 169 281 L 169 281 L 172 280 L 175 280 L 175 280 L 178 279 L 179 279 L 181 278 L 181 278 L 182 277 L 184 277 L 185 276 L 186 276 L 187 275 L 188 275 L 189 274 L 189 274 L 189 273 L 189 273 L 191 272 L 192 272 L 192 271 L 193 271 L 193 270 L 193 270 L 194 269 L 197 269 L 198 268 L 201 268 L 201 267 L 202 267 L 204 266 L 204 266 L 204 265 L 206 265 L 213 264 L 214 264 L 215 263 L 222 263 L 222 263 L 222 262 L 222 262 L 223 261 L 224 261 L 226 260 L 227 260 L 227 259 L 236 259 L 238 258 L 240 258 L 242 257 L 244 257 L 244 256 L 245 256 L 251 255 L 258 255 L 266 254 L 267 254 L 267 253 L 267 253 L 267 252 L 269 252 L 279 251 L 284 251 L 284 250 L 288 250 L 289 249 L 290 249 L 301 248 L 301 248 L 302 247 L 302 247 L 304 247 L 307 246 L 308 246 L 311 245 L 312 245 L 314 244 L 321 244 L 321 243 L 322 243 L 323 242 L 323 242 L 323 241 L 327 241 L 333 240 L 347 240 L 353 239 L 356 239 L 356 238 L 358 238 L 359 237 L 359 237 L 359 236 L 359 236 L 359 235 L 359 235 L 359 234 L 359 234 L 360 233 L 360 233 L 360 232 L 360 232 L 360 231 L 360 231 L 361 230 L 363 230 L 363 230 L 363 229 L 364 229 L 364 228 L 365 228 L 365 227 L 365 227 L 365 226 L 365 226 L 366 225 L 366 225 L 367 224 L 367 224 L 368 223 L 368 223 L 368 222 L 368 222 L 369 221 L 370 221 L 370 220 L 370 220 L 370 219 L 371 219 L 371 218 L 372 218 L 373 217 L 374 217 L 375 216 L 377 216 L 379 215 L 379 215 L 380 214 L 380 214 L 380 214 L 381 213 L 381 213 L 383 212 L 383 212 L 385 211 L 385 211 L 386 210 L 388 210 L 390 209 L 390 209 L 393 208 L 394 208 L 394 207 L 395 207 L 395 206 L 401 206 L 402 205 L 402 205 L 406 204 L 408 204 L 413 203 L 414 203 L 414 202 L 415 202 L 416 201 L 416 201 L 419 200 L 422 200 L 424 199 L 424 199 L 425 198 L 427 198 L 427 197 L 427 197 L 427 197 L 428 196 L 428 196 L 428 195 L 430 195 L 430 194 L 430 194 L 431 193 L 436 193 L 442 192 L 442 192 L 442 191 L 446 191 L 448 190 L 449 190 L 450 189 L 451 189 L 452 188 L 453 188 L 453 187 L 453 187 L 453 186 L 453 186 L 453 185 L 454 185 L 454 184 L 455 184 L 457 183 L 457 183 L 458 182 L 458 182 L 458 181 L 458 181 L 458 181 L 458 180 L 459 180 L 459 179 L 459 179 L 459 178 L 459 178 L 464 177 L 467 177 L 467 176 L 468 176 L 480 175 L 482 175 L 485 174 L 488 174 L 496 173 L 498 173 L 501 172 L 501 172 L 501 171 L 501 171 L 502 170 L 502 170 L 502 169 L 502 169 L 503 168 L 505 168 L 514 167 L 517 167 L 520 166 L 528 166 L 533 165 L 537 165 L 540 164 L 545 164 L 545 164 L 557 163 L 568 163 L 568 162 L 575 162 L 576 161 L 582 161 L 583 160 L 586 160 L 586 159 L 587 159 L 587 158 L 591 158 L 592 157 L 595 157 L 600 156 L 601 156 L 602 155 L 603 155 L 607 154 L 611 154 L 611 153 L 616 153 L 620 152 L 621 152 L 621 151 L 623 151 L 624 150 L 626 150 L 629 149 L 632 149 L 635 148 L 638 148 L 638 148 L 644 147 L 646 147 L 649 146 L 654 146 L 654 145 L 660 145 L 661 144 L 661 144 L 663 143 L 663 143 L 666 142 L 666 142 L 669 141 L 672 141 L 673 140 L 674 140 L 674 139 L 683 139 L 683 138 L 684 138 L 684 137 L 685 137 L 686 136 L 686 136 L 686 135 L 687 135 L 689 134 L 689 134 L 691 133 L 692 133 L 692 132 L 693 132 L 694 131 L 694 131 L 695 131 L 695 130 L 695 130 L 696 129 L 696 129 L 696 128 L 697 128 L 698 127 L 700 127 L 700 126 L 700 126 L 701 125 L 702 125 L 703 124 L 705 124 L 705 123 L 706 123 L 707 122 L 709 122 L 709 121 L 710 121 L 710 120 L 713 120 L 713 119 L 713 119 L 713 118 L 713 118 L 714 117 L 714 117 L 715 116 L 715 116 L 716 115 L 720 115 L 721 115 L 723 114 L 723 114 L 726 113 L 728 113 L 728 112 L 731 112 L 734 111 L 737 111 L 740 110 L 741 110 L 741 109 L 741 109 L 741 108 L 742 108 L 743 107 L 743 107 L 744 106 L 744 106 L 744 105 L 744 105 L 746 104 L 747 104 L 747 103 L 749 103 L 749 102 L 752 102 L 752 101 L 752 101 L 754 100 L 755 100 L 758 99 L 761 99 L 766 98 L 766 98 L 766 98 L 766 97 L 768 97 L 771 96 L 772 96 L 772 95 L 772 95 L 772 94 L 775 94 L 778 93 L 779 93 L 779 92 L 779 92 L 781 91 L 782 91 L 782 90 L 782 90 L 782 89 L 786 89 L 790 88 L 790 88 L 795 87 L 795 87 L 796 86 L 801 86 L 802 85 L 805 85 L 807 84 L 809 84 L 811 83 L 811 83 L 811 82 L 812 82 L 812 82 L 812 81 L 813 81 L 813 80 L 813 80 L 815 79 L 815 79 L 815 78 L 816 78 L 817 77 L 818 77 L 824 76 L 824 76 L 830 75 L 833 75 L 833 74 L 834 74 L 835 73 L 838 73 L 839 72 L 840 72 L 840 71 L 841 71 L 841 70 L 841 70 L 841 69 L 841 69 L 842 68 L 842 68 L 842 67 L 842 67 L 843 66 L 844 66 L 844 65 L 844 65 L 846 65 L 846 64 L 847 64 L 847 63 L 849 63 L 849 62 L 849 62 L 850 61 L 851 61 L 855 60 L 855 60 L 855 59 L 855 59 L 855 58 L 856 58 L 856 57 L 856 57 L 858 56 L 860 56 L 864 55 L 867 55 L 868 54 L 870 54 L 875 53 L 879 53 L 880 52 L 883 52 L 888 51 L 888 51 L 888 50 L 894 50 L 896 49 L 897 49 L 897 49 L 898 48 L 908 48 L 909 47 L 910 47 L 910 46 L 911 46 L 911 45 L 913 45 L 913 44 L 913 44 L 914 43 L 915 43 L 915 42 L 916 42 L 916 41 L 916 41 L 916 40 L 916 40 L 917 39 L 917 39 L 918 38 L 919 38 L 920 37 L 921 37 L 922 36 L 922 36 L 922 35 L 923 35 L 924 34 L 925 34 L 926 33 L 927 33 L 927 32 L 927 32 L 927 32 L 929 31 L 930 31 L 931 30 L 931 30 L 933 29 L 934 29 L 934 28 L 934 28 L 935 27 L 935 27 L 936 26 L 936 26 L 936 25 L 938 25 L 938 24 L 940 24 L 940 23 L 940 23 L 940 22 L 940 22 L 941 21 L 942 21 L 942 20 L 942 20 L 944 19 L 944 19 L 944 18 L 945 18 L 945 17 L 945 17 L 945 16 L 945 16 L 945 16" /><path stroke-width="2" class="series" d="M 58 345 L 61 345 L 80 344 L 80 344 L 80 343 L 80 343 L 80 342 L 80 342 L 80 341 L 80 341 L 81 340 L 81 340 L 81 339 L 81 339 L 81 338 L 81 338 L 81 337 L 82 337 L 82 336 L 83 336 L 83 335 L 83 335 L 85 334 L 86 334 L 86 333 L 86 333 L 86 332 L 87 332 L 89 331 L 90 331 L 91 330 L 92 330 L 98 329 L 98 329 L 98 329 L 98 328 L 98 328 L 98 327 L 102 327 L 103 326 L 104 326 L 107 325 L 112 325 L 114 324 L 122 324 L 124 323 L 129 323 L 133 322 L 135 322 L 153 321 L 154 321 L 154 320 L 156 320 L 157 319 L 157 319 L 157 318 L 157 318 L 157 317 L 157 317 L 157 316 L 157 316 L 157 315 L 157 315 L 157 314 L 157 314 L 158 313 L 158 313 L 158 313 L 158 312 L 158 312 L 158 311 L 158 311 L 158 310 L 158 310 L 158 309 L 158 309 L 158 308 L 158 308 L 158 307 L 158 307 L 158 306 L 158 306 L 158 305 L 158 305 L 158 304 L 158 304 L 158 303 L 158 303 L 158 302 L 158 302 L 158 301 L 158 301 L 158 300 L 158 300 L 158 299 L 158 299 L 158 298 L 158 298 L 158 297 L 159 297 L 159 296 L 159 296 L 159 296 L 159 295 L 160 295 L 160 294 L 161 294 L 161 293 L 161 293 L 161 292 L 161 292 L 161 291 L 161 291 L 161 290 L 161 290 L 161 289 L 161 289 L 161 288 L 161 288 L 161 287 L 161 287 L 161 286 L 161 286 L 162 285 L 163 285 L 163 284 L 163 284 L 163 283 L 167 283 L 167 282 L 167 282 L 169 281 L 169 281 L 172 280 L 175 280 L 175 280 L 178 279 L 179 279 L 181 278 L 181 278 L 182 277 L 184 277 L 185 276 L 186 276 L 187 275 L 188 275 L 189 274 L 189 274 L 189 273 L 189 273 L 191 272 L 192 272 L 192 271 L 193 271 L 193 270 L 193 270 L 194 269 L 197 269 L 198 268 L 201 268 L 201 267 L 202 267 L 204 266 L 204 266 L 204 265 L 206 265 L 213 264 L 214 264 L 215 263 L 222 263 L 222 263 L 222 262 L 222 262 L 223 261 L 224 261 L 226 260 L 227 260 L 227 259 L 236 259 L 238 258 L 240 258 L 242 257 L 244 257 L 244 256 L 245 256 L 251 255 L 258 255 L 266 254 L 267 254 L 267 253 L 267 253 L 267 252 L 269 252 L 279 251 L 284 251 L 284 250 L 288 250 L 289 249 L 290 249 L 301 248 L 301 248 L 302 247 L 302 247 L 304 247 L 307 246 L 308 246 L 311 245 L 312 245 L 314 244 L 321 244 L 321 243 L 322 243 L 323 242 L 323 242 L 323 241 L 327 241 L 333 240 L 347 240 L 353 239 L 356 239 L 356 238 L 358 238 L 359 237 L 359 237 L 359 236 L 359 236 L 359 235 L 359 235 L 359 234 L 359 234 L 360 233 L 360 233 L 360 232 L 360 232 L 360 231 L 360 231 L 361 230 L 363 230 L 363 230 L 363 229 L 364 229 L 364 228 L 365 228 L 365 227 L 365 227 L 365 226 L 365 226 L 366 225 L 366 225 L 367 224 L 367 224 L 368 223 L 368 223 L 368 222 L 368 222 L 369 221 L 370 221 L 370 220 L 370 220 L 370 219 L 371 219 L 371 218 L 372 218 L 373 217 L 374 217 L 375 216 L 377 216 L 379 215 L 379 215 L 380 214 L 380 214 L 380 214 L 381 213 L 381 213 L 383 212 L 383 212 L 385 211 L 385 211 L 386 210 L 388 210 L 390 209 L 390 209 L 393 208 L 394 208 L 394 207 L 395 207 L 395 206 L 401 206 L 402 205 L 402 205 L 406 204 L 408 204 L 413 203 L 414 203 L 414 202 L 415 202 L 416 201 L 416 201 L 419 200 L 422 200 L 424 199 L 424 199 L 425 198 L 427 198 L 427 197 L 427 197 L 427 197 L 428 196 L 428 196 L 428 195 L 430 195 L 430 194 L 430 194 L 431 193 L 436 193 L 442 192 L 442 192 L 442 191 L 446 191 L 448 190 L 449 190 L 450 189 L 451 189 L 452 188 L 453 188 L 453 187 L 453 187 L 453 186 L 453 186 L 453 185 L 454 185 L 454 184 L 455 184 L 457 183 L 457 183 L 458 182 L 458 182 L 458 181 L 458 181 L 458 181 L 458 180 L 459 180 L 459 179 L 459 179 L 459 178 L 459 178 L 464 177 L 467 177 L 467 176 L 468 176 L 480 175 L 482 175 L 485 174 L 488 174 L 496 173 L 498 173 L 501 172 L 501 172 L 501 171 L 501 171 L 502 170 L 502 170 L 502 169 L 502 169 L 503 168 L 505 168 L 514 167 L 517 167 L 520 166 L 528 166 L 533 165 L 537 165 L 540 164 L 545 164 L 545 164 L 557 163 L 568 163 L 568 162 L 575 162 L 576 161 L 582 161 L 583 160 L 586 160 L 586 159 L 587 159 L 587 158 L 591 158 L 592 157 L 595 157 L 600 156 L 601 156 L 602 155 L 603 155 L 607 154 L 611 154 L 611 153 L 616 153 L 620 152 L 621 152 L 621 151 L 623 151 L 624 150 L 626 150 L 629 149 L 632 149 L 635 148 L 638 148 L 638 148 L 644 147 L 646 147 L 649 146 L 654 146 L 654 145 L 660 145 L 661 144 L 661 144 L 663 143 L 663 143 L 666 142 L 666 142 L 669 141 L 672 141 L 673 140 L 674 140 L 674 139 L 683 139 L 683 138 L 684 138 L 684 137 L 685 137 L 686 136 L 686 136 L 686 135 L 687 135 L 689 134 L 689 134 L 691 133 L 692 133 L 692 132 L 693 132 L 694 131 L 694 131 L 695 131 L 695 130 L 695 130 L 696 129 L 696 129 L 696 128 L 697 128 L 698 127 L 700 127 L 700 126 L 700 126 L 701 125 L 702 125 L 703 124 L 705 124 L 705 123 L 706 123 L 707 122 L 709 122 L 709 121 L 710 121 L 710 120 L 713 120 L 713 119 L 713 119 L 713 118 L 713 118 L 714 117 L 714 117 L 715 116 L 715 116 L 716 115 L 720 115 L 721 115 L 723 114 L 723 114 L 726 113 L 728 113 L 728 112 L 731 112 L 734 111 L 737 111 L 740 110 L 741 110 L 741 109 L 741 109 L 741 108 L 742 108 L 743 107 L 743 107 L 744 106 L 744 106 L 744 105 L 744 105 L 746 104 L 747 104 L 747 103 L 749 103 L 749 102 L 752 102 L 752 101 L 752 101 L 754 100 L 755 100 L 758 99 L 761 99 L 766 98 L 766 98 L 766 98 L 766 97 L 768 97 L 771 96 L 772 96 L 772 95 L 772 95 L 772 94 L 775 94 L 778 93 L 779 93 L 779 92 L 779 92 L 781 91 L 782 91 L 782 90 L 782 90 L 782 89 L 786 89 L 790 88 L 790 88 L 795 87 L 795 87 L 796 86 L 801 86 L 802 85 L 805 85 L 807 84 L 809 84 L 811 83 L 811 83 L 811 82 L 812 82 L 812 82 L 812 81 L 813 81 L 813 80 L 813 80 L 815 79 L 815 79 L 815 78 L 816 78 L 817 77 L 818 77 L 824 76 L 824 76 L 830 75 L 833 75 L 833 74 L 834 74 L 835 73 L 838 73 L 839 72 L 840 72 L 840 71 L 841 71 L 841 70 L 841 70 L 841 69 L 841 69 L 842 68 L 842 68 L 842 67 L 842 67 L 843 66 L 844 66 L 844 65 L 844 65 L 846 65 L 846 64 L 847 64 L 847 63 L 849 63 L 849 62 L 849 62 L 850 61 L 851 61 L 855 60 L 855 60 L 855 59 L 855 59 L 855 58 L 856 58 L 856 57 L 856 57 L 858 56 L 860 56 L 864 55 L 867 55 L 868 54 L 870 54 L 875 53 L 879 53 L 880 52 L 883 52 L 888 51 L 888 51 L 888 50 L 894 50 L 896 49 L 897 49 L 897 49 L 898 48 L 908 48 L 909 47 L 910 47 L 910 46 L 911 46 L 911 45 L 913 45 L 913 44 L 913 44 L 914 43 L 915 43 L 915 42 L 916 42 L 916 41 L 916 41 L 916 40 L 916 40 L 917 39 L 917 39 L 918 38 L 919 38 L 920 37 L 921 37 L 922 36 L 922 36 L 922 35 L 923 35 L 924 34 L 925 34 L 926 33 L 927 33 L 927 32 L 927 32 L 927 32 L 929 31 L 930 31 L 931 30 L 931 30 L 933 29 L 934 29 L 934 28 L 934 28 L 935 27 L 935 27 L 936 26 L 936 26 L 936 25 L 938 25 L 938 24 L 940 24 L 940 23 L 940 23 L 940 22 L 940 22 L 941 21 L 942 21 L 942 20 L 942 20 L 944 19 L 944 19 L 944 18 L 945 18 L 945 17 L 945 17 L 945 16 L 945 16 L 945 16"></path><path stroke-width="2" d="M 945 346 L 945.000000 15.000000" /><path stroke-width="2" d="M 945 346 L 945.000000 15.000000"></path><path stroke-width="2" d="M 945 346 L 950 346" /><path stroke-width="2" d="M 945 346 L 950 346"></path><text xmlns="http://www.w3.org/2000/svg" x="955" y="352">0</text><path stroke-width="2" d="M 945 309 L 950 309" /><path stroke-width="2" d="M 945 309 L 950 309"></path><text x="955" y="315" xmlns="http://www.w3.org/2000/svg">76</text><path stroke-width="2" d="M 945 272 L 950 272" /><path stroke-width="2" d="M 945 272 L 950 272"></path><text xmlns="http://www.w3.org/2000/svg" x="955" y="278">152</text><path d="M 945 235 L 950 235" stroke-width="2" /><path d="M 945 235 L 950 235" stroke-width="2"></path><text xmlns="http://www.w3.org/2000/svg" x="955" y="241">227</text><path stroke-width="2" d="M 945 198 L 950 198" /><path stroke-width="2" d="M 945 198 L 950 198"></path><text xmlns="http://www.w3.org/2000/svg" x="955" y="204">303</text><path stroke-width="2" d="M 945 162 L 950 162" /><path stroke-width="2" d="M 945 162 L 950 162"></path><text xmlns="http://www.w3.org/2000/svg" x="955" y="168">378</text><path stroke-width="2" d="M 945 125 L 950 125" /><path stroke-width="2" d="M 945 125 L 950 125"></path><text xmlns="http://www.w3.org/2000/svg" x="955" y="131">454</text><path stroke-width="2" d="M 945 89 L 950 89" /><path stroke-width="2" d="M 945 89 L 950 89"></path><text xmlns="http://www.w3.org/2000/svg" x="955" y="95">529</text><path d="M 945 52 L 950 52" stroke-width="2" /><path stroke-width="2" d="M 945 52 L 950 52"></path><text xmlns="http://www.w3.org/2000/svg" x="955" y="58">605</text><path stroke-width="2" d="M 945 16 L 950 16" /><path stroke-width="2" d="M 945 16 L 950 16"></path><text xmlns="http://www.w3.org/2000/svg" x="955" y="22">680</text><text xmlns="http://www.w3.org/2000/svg" x="987" y="175" transform="rotate(90.00,987,175)">Stargazers</text><path stroke-width="2" d="M 57.000000 346.000000 L 945 346" /><path stroke-width="2" d="M 57.000000 346.000000 L 945 346"></path><path stroke-width="2" d="M 58 346 L 58 351" /><path stroke-width="2" d="M 58 346 L 58 351"></path><text xmlns="http://www.w3.org/2000/svg" x="25" y="368">2023-04-02</text><path d="M 157 346 L 157 351" stroke-width="2" /><path stroke-width="2" d="M 157 346 L 157 351"></path><text xmlns="http://www.w3.org/2000/svg" x="124" y="368">2023-06-05</text><path stroke-width="2" d="M 256 346 L 256 351" /><path d="M 256 346 L 256 351" stroke-width="2"></path><text xmlns="http://www.w3.org/2000/svg" x="223" y="368">2023-08-08</text><path stroke-width="2" d="M 354 346 L 354 351" /><path stroke-width="2" d="M 354 346 L 354 351"></path><text y="368" xmlns="http://www.w3.org/2000/svg" x="321">2023-10-12</text><path stroke-width="2" d="M 453 346 L 453 351" /><path stroke-width="2" d="M 453 346 L 453 351"></path><text xmlns="http://www.w3.org/2000/svg" x="420" y="368">2023-12-15</text><path stroke-width="2" d="M 551 346 L 551 351" /><path stroke-width="2" d="M 551 346 L 551 351"></path><text xmlns="http://www.w3.org/2000/svg" x="518" y="368">2024-02-17</text><path stroke-width="2" d="M 650 346 L 650 351" /><path stroke-width="2" d="M 650 346 L 650 351"></path><text x="617" y="368" xmlns="http://www.w3.org/2000/svg">2024-04-21</text><path stroke-width="2" d="M 748 346 L 748 351" /><path stroke-width="2" d="M 748 346 L 748 351"></path><text x="715" y="368" xmlns="http://www.w3.org/2000/svg">2024-06-25</text><path stroke-width="2" d="M 847 346 L 847 351" /><path stroke-width="2" d="M 847 346 L 847 351"></path><text y="368" xmlns="http://www.w3.org/2000/svg" x="814">2024-08-28</text><path stroke-width="2" d="M 945 346 L 945 351" /><path stroke-width="2" d="M 945 346 L 945 351"></path><text x="912" y="368" xmlns="http://www.w3.org/2000/svg">2024-10-31</text><text xmlns="http://www.w3.org/2000/svg" x="487" y="390">Time</text></svg>