<svg height="400px" xmlns="http://www.w3.org/2000/svg" xmlns:xlink="http://www.w3.org/1999/xlink" width="1024px"><style type="text/css">
path { fill: none; stroke: rgb(51,51,51); }
path.series { stroke: #6b63ff; }
rect.background { fill: rgb(255,255,255); stroke: none; }

text {
	stroke-width: 0;
	stroke: none;
	fill: rgba(51,51,51,1.0);
	font-size: 12.8px;
	font-family: 'Roboto Medium', sans-serif;
}
</style><rect y="0" width="1024px" height="400px" class="background" rx="8" x="0" /><rect width="1024px" height="400px" class="background" rx="8" x="0" y="0"></rect><path stroke-width="2" class="series" d="M 58 345 L 60 345 L 73 345 L 73 344 L 73 344 L 73 344 L 73 343 L 73 343 L 73 343 L 73 343 L 74 342 L 74 342 L 74 342 L 74 341 L 74 341 L 74 341 L 74 340 L 74 340 L 74 340 L 75 340 L 75 339 L 75 339 L 76 339 L 77 338 L 77 338 L 77 338 L 77 337 L 78 337 L 79 337 L 80 337 L 80 336 L 81 336 L 85 336 L 85 335 L 85 335 L 85 335 L 86 334 L 88 334 L 89 334 L 89 334 L 91 333 L 94 333 L 96 333 L 101 332 L 103 332 L 106 332 L 109 331 L 111 331 L 122 331 L 123 331 L 123 330 L 125 330 L 125 330 L 125 329 L 125 329 L 125 329 L 125 328 L 125 328 L 125 328 L 125 328 L 125 327 L 125 327 L 125 327 L 125 326 L 126 326 L 126 326 L 126 325 L 126 325 L 126 325 L 126 325 L 126 324 L 126 324 L 126 324 L 126 323 L 126 323 L 126 323 L 126 322 L 126 322 L 126 322 L 126 322 L 126 321 L 126 321 L 126 321 L 126 320 L 126 320 L 126 320 L 126 319 L 126 319 L 126 319 L 126 319 L 126 318 L 126 318 L 126 318 L 126 317 L 126 317 L 126 317 L 126 316 L 126 316 L 126 316 L 126 316 L 127 315 L 127 315 L 127 315 L 127 314 L 127 314 L 128 314 L 128 313 L 128 313 L 128 313 L 128 313 L 128 312 L 128 312 L 128 312 L 128 311 L 128 311 L 128 311 L 128 310 L 128 310 L 128 310 L 128 310 L 128 309 L 128 309 L 128 309 L 129 308 L 129 308 L 129 308 L 129 307 L 132 307 L 132 307 L 132 307 L 133 306 L 133 306 L 135 306 L 137 305 L 137 305 L 139 305 L 140 304 L 141 304 L 141 304 L 142 304 L 144 303 L 144 303 L 144 303 L 145 302 L 146 302 L 147 302 L 147 301 L 147 301 L 147 301 L 148 301 L 149 300 L 149 300 L 149 300 L 150 299 L 150 299 L 150 299 L 152 298 L 153 298 L 155 298 L 155 298 L 156 297 L 157 297 L 157 297 L 157 296 L 158 296 L 163 296 L 163 295 L 164 295 L 169 295 L 169 295 L 169 294 L 169 294 L 169 294 L 170 293 L 172 293 L 173 293 L 173 292 L 179 292 L 180 292 L 181 292 L 183 291 L 184 291 L 184 291 L 185 290 L 189 290 L 194 290 L 199 289 L 199 289 L 199 289 L 199 289 L 200 288 L 201 288 L 208 288 L 211 287 L 211 287 L 214 287 L 214 286 L 215 286 L 223 286 L 223 286 L 223 285 L 223 285 L 224 285 L 227 284 L 227 284 L 229 284 L 230 283 L 232 283 L 236 283 L 236 283 L 237 282 L 237 282 L 237 282 L 238 281 L 240 281 L 244 281 L 254 280 L 257 280 L 259 280 L 260 280 L 262 279 L 262 279 L 262 279 L 262 278 L 262 278 L 262 278 L 262 277 L 262 277 L 262 277 L 262 277 L 262 276 L 262 276 L 262 276 L 263 275 L 263 275 L 265 275 L 265 274 L 265 274 L 265 274 L 266 274 L 266 273 L 266 273 L 266 273 L 266 272 L 266 272 L 266 272 L 267 271 L 267 271 L 268 271 L 268 271 L 268 270 L 268 270 L 268 270 L 269 269 L 269 269 L 269 269 L 270 268 L 270 268 L 270 268 L 271 268 L 272 267 L 272 267 L 274 267 L 275 266 L 276 266 L 276 266 L 276 265 L 276 265 L 276 265 L 276 265 L 278 264 L 278 264 L 280 264 L 280 263 L 280 263 L 282 263 L 283 262 L 283 262 L 285 262 L 285 262 L 286 261 L 286 261 L 286 261 L 290 260 L 291 260 L 291 260 L 294 259 L 295 259 L 298 259 L 299 259 L 299 258 L 300 258 L 300 258 L 300 257 L 303 257 L 304 257 L 306 256 L 306 256 L 308 256 L 308 256 L 308 255 L 308 255 L 308 255 L 308 254 L 309 254 L 310 254 L 310 253 L 310 253 L 310 253 L 314 253 L 318 252 L 318 252 L 318 252 L 321 251 L 322 251 L 323 251 L 323 250 L 324 250 L 325 250 L 325 250 L 325 249 L 325 249 L 325 249 L 325 248 L 325 248 L 326 248 L 326 247 L 326 247 L 328 247 L 328 247 L 328 246 L 329 246 L 329 246 L 329 245 L 329 245 L 329 245 L 329 244 L 329 244 L 329 244 L 329 244 L 329 243 L 332 243 L 335 243 L 335 242 L 335 242 L 344 242 L 345 241 L 347 241 L 349 241 L 356 241 L 358 240 L 358 240 L 358 240 L 358 239 L 358 239 L 358 239 L 358 238 L 359 238 L 360 238 L 367 238 L 368 237 L 371 237 L 376 237 L 379 236 L 382 236 L 384 236 L 388 235 L 388 235 L 395 235 L 403 235 L 403 234 L 408 234 L 408 234 L 413 233 L 413 233 L 416 233 L 416 232 L 416 232 L 416 232 L 419 232 L 420 231 L 422 231 L 425 231 L 425 230 L 426 230 L 427 230 L 429 229 L 432 229 L 432 229 L 435 229 L 439 228 L 439 228 L 439 228 L 441 227 L 441 227 L 442 227 L 445 226 L 447 226 L 449 226 L 451 226 L 451 225 L 455 225 L 456 225 L 458 224 L 461 224 L 461 224 L 465 223 L 466 223 L 466 223 L 467 223 L 468 222 L 469 222 L 470 222 L 471 221 L 474 221 L 474 221 L 475 220 L 475 220 L 481 220 L 481 220 L 482 219 L 482 219 L 482 219 L 483 218 L 483 218 L 483 218 L 484 217 L 485 217 L 485 217 L 486 217 L 487 216 L 487 216 L 488 216 L 488 215 L 488 215 L 489 215 L 489 214 L 489 214 L 490 214 L 490 214 L 490 213 L 491 213 L 491 213 L 492 212 L 492 212 L 493 212 L 493 211 L 494 211 L 495 211 L 496 211 L 496 210 L 496 210 L 497 210 L 498 209 L 499 209 L 499 209 L 499 208 L 501 208 L 501 208 L 501 208 L 501 207 L 502 207 L 502 207 L 502 206 L 502 206 L 503 206 L 503 205 L 506 205 L 507 205 L 508 205 L 508 204 L 510 204 L 511 204 L 512 203 L 513 203 L 515 203 L 517 202 L 519 202 L 520 202 L 520 202 L 520 201 L 520 201 L 521 201 L 521 200 L 521 200 L 522 200 L 522 199 L 522 199 L 523 199 L 524 199 L 524 198 L 524 198 L 525 198 L 525 197 L 528 197 L 528 197 L 528 196 L 529 196 L 530 196 L 531 196 L 537 195 L 537 195 L 537 195 L 537 194 L 539 194 L 541 194 L 541 193 L 541 193 L 541 193 L 541 193 L 543 192 L 545 192 L 546 192 L 546 191 L 546 191 L 548 191 L 548 190 L 548 190 L 548 190 L 551 190 L 553 189 L 553 189 L 557 189 L 557 188 L 558 188 L 560 188 L 561 187 L 564 187 L 565 187 L 566 187 L 567 186 L 567 186 L 568 186 L 568 185 L 568 185 L 568 185 L 569 184 L 569 184 L 569 184 L 570 184 L 570 183 L 570 183 L 571 183 L 572 182 L 572 182 L 576 182 L 577 181 L 581 181 L 582 181 L 583 181 L 583 180 L 584 180 L 586 180 L 587 179 L 587 179 L 588 179 L 588 178 L 588 178 L 588 178 L 588 178 L 589 177 L 589 177 L 589 177 L 589 176 L 589 176 L 590 176 L 590 175 L 591 175 L 591 175 L 592 175 L 592 174 L 593 174 L 593 174 L 593 173 L 594 173 L 595 173 L 597 172 L 597 172 L 597 172 L 597 172 L 597 171 L 598 171 L 598 171 L 598 170 L 599 170 L 601 170 L 603 169 L 606 169 L 606 169 L 608 169 L 611 168 L 614 168 L 614 168 L 616 167 L 620 167 L 620 167 L 620 166 L 624 166 L 625 166 L 625 166 L 626 165 L 626 165 L 633 165 L 634 164 L 634 164 L 634 164 L 635 163 L 635 163 L 636 163 L 637 163 L 637 162 L 638 162 L 638 162 L 638 161 L 638 161 L 639 161 L 639 160 L 639 160 L 639 160 L 639 160 L 639 159 L 641 159 L 642 159 L 643 158 L 643 158 L 643 158 L 644 157 L 644 157 L 645 157 L 645 157 L 646 156 L 646 156 L 646 156 L 646 155 L 648 155 L 648 155 L 649 154 L 649 154 L 650 154 L 651 154 L 651 153 L 651 153 L 651 153 L 651 152 L 652 152 L 652 152 L 652 151 L 653 151 L 653 151 L 655 151 L 655 150 L 655 150 L 655 150 L 655 149 L 655 149 L 656 149 L 656 148 L 656 148 L 657 148 L 657 148 L 657 147 L 658 147 L 658 147 L 658 146 L 658 146 L 658 146 L 659 145 L 659 145 L 659 145 L 659 145 L 659 144 L 659 144 L 662 144 L 662 143 L 664 143 L 664 143 L 664 142 L 664 142 L 666 142 L 667 142 L 667 141 L 667 141 L 670 141 L 672 140 L 672 140 L 673 140 L 674 139 L 674 139 L 675 139 L 675 139 L 675 138 L 675 138 L 675 138 L 675 137 L 675 137 L 675 137 L 676 136 L 676 136 L 676 136 L 676 136 L 676 135 L 677 135 L 677 135 L 677 134 L 678 134 L 678 134 L 680 133 L 680 133 L 680 133 L 680 132 L 681 132 L 682 132 L 682 132 L 685 131 L 685 131 L 685 131 L 685 130 L 686 130 L 688 130 L 689 130 L 690 129 L 691 129 L 691 129 L 691 128 L 692 128 L 692 128 L 696 127 L 698 127 L 701 127 L 702 126 L 703 126 L 704 126 L 705 126 L 705 125 L 705 125 L 705 125 L 706 124 L 706 124 L 707 124 L 707 124 L 708 123 L 710 123 L 710 123 L 710 122 L 710 122 L 710 122 L 710 121 L 710 121 L 710 121 L 710 121 L 710 120 L 710 120 L 710 120 L 710 119 L 710 119 L 710 119 L 710 118 L 710 118 L 711 118 L 711 118 L 711 117 L 711 117 L 711 117 L 711 116 L 711 116 L 712 116 L 712 115 L 712 115 L 713 115 L 713 115 L 713 114 L 713 114 L 713 114 L 713 113 L 714 113 L 715 113 L 717 112 L 717 112 L 718 112 L 719 112 L 719 111 L 719 111 L 720 111 L 722 110 L 723 110 L 724 110 L 724 109 L 724 109 L 724 109 L 724 109 L 724 108 L 724 108 L 726 108 L 726 107 L 726 107 L 729 107 L 731 106 L 732 106 L 734 106 L 735 106 L 736 105 L 736 105 L 736 105 L 736 104 L 737 104 L 737 104 L 737 103 L 738 103 L 739 103 L 739 103 L 739 102 L 739 102 L 739 102 L 739 101 L 739 101 L 739 101 L 740 100 L 740 100 L 740 100 L 740 100 L 742 99 L 742 99 L 742 99 L 743 98 L 743 98 L 743 98 L 744 97 L 744 97 L 745 97 L 745 97 L 745 96 L 746 96 L 747 96 L 750 95 L 750 95 L 751 95 L 754 94 L 755 94 L 756 94 L 758 94 L 759 93 L 759 93 L 762 93 L 767 92 L 767 92 L 769 92 L 770 91 L 772 91 L 773 91 L 773 91 L 775 90 L 775 90 L 776 90 L 776 89 L 778 89 L 779 89 L 780 88 L 780 88 L 780 88 L 781 88 L 781 87 L 782 87 L 785 87 L 785 86 L 786 86 L 787 86 L 787 85 L 788 85 L 789 85 L 790 85 L 790 84 L 790 84 L 790 84 L 791 83 L 792 83 L 792 83 L 793 82 L 794 82 L 794 82 L 794 82 L 795 81 L 796 81 L 796 81 L 796 80 L 797 80 L 797 80 L 797 79 L 797 79 L 798 79 L 798 79 L 798 78 L 800 78 L 801 78 L 802 77 L 802 77 L 805 77 L 806 76 L 807 76 L 808 76 L 810 76 L 812 75 L 814 75 L 815 75 L 816 74 L 817 74 L 818 74 L 820 73 L 822 73 L 822 73 L 822 73 L 822 72 L 822 72 L 823 72 L 824 71 L 825 71 L 825 71 L 826 70 L 826 70 L 826 70 L 832 70 L 833 69 L 834 69 L 836 69 L 837 68 L 838 68 L 838 68 L 839 67 L 839 67 L 839 67 L 840 67 L 841 66 L 841 66 L 842 66 L 842 65 L 842 65 L 843 65 L 843 64 L 844 64 L 845 64 L 848 64 L 848 63 L 853 63 L 853 63 L 853 62 L 855 62 L 855 62 L 855 61 L 855 61 L 856 61 L 859 61 L 860 60 L 861 60 L 861 60 L 862 59 L 862 59 L 864 59 L 865 58 L 867 58 L 867 58 L 867 58 L 867 57 L 868 57 L 868 57 L 868 56 L 869 56 L 870 56 L 870 55 L 871 55 L 872 55 L 873 55 L 873 54 L 873 54 L 873 54 L 874 53 L 874 53 L 877 53 L 881 52 L 882 52 L 885 52 L 886 52 L 889 51 L 889 51 L 890 51 L 890 50 L 891 50 L 892 50 L 893 49 L 894 49 L 895 49 L 896 49 L 899 48 L 904 48 L 904 48 L 904 47 L 904 47 L 904 47 L 906 46 L 906 46 L 906 46 L 915 46 L 918 45 L 918 45 L 919 45 L 921 44 L 923 44 L 925 44 L 926 43 L 926 43 L 927 43 L 928 43 L 933 42 L 934 42 L 935 42 L 936 41 L 937 41" /><path stroke-width="2" class="series" d="M 58 345 L 60 345 L 73 345 L 73 344 L 73 344 L 73 344 L 73 343 L 73 343 L 73 343 L 73 343 L 74 342 L 74 342 L 74 342 L 74 341 L 74 341 L 74 341 L 74 340 L 74 340 L 74 340 L 75 340 L 75 339 L 75 339 L 76 339 L 77 338 L 77 338 L 77 338 L 77 337 L 78 337 L 79 337 L 80 337 L 80 336 L 81 336 L 85 336 L 85 335 L 85 335 L 85 335 L 86 334 L 88 334 L 89 334 L 89 334 L 91 333 L 94 333 L 96 333 L 101 332 L 103 332 L 106 332 L 109 331 L 111 331 L 122 331 L 123 331 L 123 330 L 125 330 L 125 330 L 125 329 L 125 329 L 125 329 L 125 328 L 125 328 L 125 328 L 125 328 L 125 327 L 125 327 L 125 327 L 125 326 L 126 326 L 126 326 L 126 325 L 126 325 L 126 325 L 126 325 L 126 324 L 126 324 L 126 324 L 126 323 L 126 323 L 126 323 L 126 322 L 126 322 L 126 322 L 126 322 L 126 321 L 126 321 L 126 321 L 126 320 L 126 320 L 126 320 L 126 319 L 126 319 L 126 319 L 126 319 L 126 318 L 126 318 L 126 318 L 126 317 L 126 317 L 126 317 L 126 316 L 126 316 L 126 316 L 126 316 L 127 315 L 127 315 L 127 315 L 127 314 L 127 314 L 128 314 L 128 313 L 128 313 L 128 313 L 128 313 L 128 312 L 128 312 L 128 312 L 128 311 L 128 311 L 128 311 L 128 310 L 128 310 L 128 310 L 128 310 L 128 309 L 128 309 L 128 309 L 129 308 L 129 308 L 129 308 L 129 307 L 132 307 L 132 307 L 132 307 L 133 306 L 133 306 L 135 306 L 137 305 L 137 305 L 139 305 L 140 304 L 141 304 L 141 304 L 142 304 L 144 303 L 144 303 L 144 303 L 145 302 L 146 302 L 147 302 L 147 301 L 147 301 L 147 301 L 148 301 L 149 300 L 149 300 L 149 300 L 150 299 L 150 299 L 150 299 L 152 298 L 153 298 L 155 298 L 155 298 L 156 297 L 157 297 L 157 297 L 157 296 L 158 296 L 163 296 L 163 295 L 164 295 L 169 295 L 169 295 L 169 294 L 169 294 L 169 294 L 170 293 L 172 293 L 173 293 L 173 292 L 179 292 L 180 292 L 181 292 L 183 291 L 184 291 L 184 291 L 185 290 L 189 290 L 194 290 L 199 289 L 199 289 L 199 289 L 199 289 L 200 288 L 201 288 L 208 288 L 211 287 L 211 287 L 214 287 L 214 286 L 215 286 L 223 286 L 223 286 L 223 285 L 223 285 L 224 285 L 227 284 L 227 284 L 229 284 L 230 283 L 232 283 L 236 283 L 236 283 L 237 282 L 237 282 L 237 282 L 238 281 L 240 281 L 244 281 L 254 280 L 257 280 L 259 280 L 260 280 L 262 279 L 262 279 L 262 279 L 262 278 L 262 278 L 262 278 L 262 277 L 262 277 L 262 277 L 262 277 L 262 276 L 262 276 L 262 276 L 263 275 L 263 275 L 265 275 L 265 274 L 265 274 L 265 274 L 266 274 L 266 273 L 266 273 L 266 273 L 266 272 L 266 272 L 266 272 L 267 271 L 267 271 L 268 271 L 268 271 L 268 270 L 268 270 L 268 270 L 269 269 L 269 269 L 269 269 L 270 268 L 270 268 L 270 268 L 271 268 L 272 267 L 272 267 L 274 267 L 275 266 L 276 266 L 276 266 L 276 265 L 276 265 L 276 265 L 276 265 L 278 264 L 278 264 L 280 264 L 280 263 L 280 263 L 282 263 L 283 262 L 283 262 L 285 262 L 285 262 L 286 261 L 286 261 L 286 261 L 290 260 L 291 260 L 291 260 L 294 259 L 295 259 L 298 259 L 299 259 L 299 258 L 300 258 L 300 258 L 300 257 L 303 257 L 304 257 L 306 256 L 306 256 L 308 256 L 308 256 L 308 255 L 308 255 L 308 255 L 308 254 L 309 254 L 310 254 L 310 253 L 310 253 L 310 253 L 314 253 L 318 252 L 318 252 L 318 252 L 321 251 L 322 251 L 323 251 L 323 250 L 324 250 L 325 250 L 325 250 L 325 249 L 325 249 L 325 249 L 325 248 L 325 248 L 326 248 L 326 247 L 326 247 L 328 247 L 328 247 L 328 246 L 329 246 L 329 246 L 329 245 L 329 245 L 329 245 L 329 244 L 329 244 L 329 244 L 329 244 L 329 243 L 332 243 L 335 243 L 335 242 L 335 242 L 344 242 L 345 241 L 347 241 L 349 241 L 356 241 L 358 240 L 358 240 L 358 240 L 358 239 L 358 239 L 358 239 L 358 238 L 359 238 L 360 238 L 367 238 L 368 237 L 371 237 L 376 237 L 379 236 L 382 236 L 384 236 L 388 235 L 388 235 L 395 235 L 403 235 L 403 234 L 408 234 L 408 234 L 413 233 L 413 233 L 416 233 L 416 232 L 416 232 L 416 232 L 419 232 L 420 231 L 422 231 L 425 231 L 425 230 L 426 230 L 427 230 L 429 229 L 432 229 L 432 229 L 435 229 L 439 228 L 439 228 L 439 228 L 441 227 L 441 227 L 442 227 L 445 226 L 447 226 L 449 226 L 451 226 L 451 225 L 455 225 L 456 225 L 458 224 L 461 224 L 461 224 L 465 223 L 466 223 L 466 223 L 467 223 L 468 222 L 469 222 L 470 222 L 471 221 L 474 221 L 474 221 L 475 220 L 475 220 L 481 220 L 481 220 L 482 219 L 482 219 L 482 219 L 483 218 L 483 218 L 483 218 L 484 217 L 485 217 L 485 217 L 486 217 L 487 216 L 487 216 L 488 216 L 488 215 L 488 215 L 489 215 L 489 214 L 489 214 L 490 214 L 490 214 L 490 213 L 491 213 L 491 213 L 492 212 L 492 212 L 493 212 L 493 211 L 494 211 L 495 211 L 496 211 L 496 210 L 496 210 L 497 210 L 498 209 L 499 209 L 499 209 L 499 208 L 501 208 L 501 208 L 501 208 L 501 207 L 502 207 L 502 207 L 502 206 L 502 206 L 503 206 L 503 205 L 506 205 L 507 205 L 508 205 L 508 204 L 510 204 L 511 204 L 512 203 L 513 203 L 515 203 L 517 202 L 519 202 L 520 202 L 520 202 L 520 201 L 520 201 L 521 201 L 521 200 L 521 200 L 522 200 L 522 199 L 522 199 L 523 199 L 524 199 L 524 198 L 524 198 L 525 198 L 525 197 L 528 197 L 528 197 L 528 196 L 529 196 L 530 196 L 531 196 L 537 195 L 537 195 L 537 195 L 537 194 L 539 194 L 541 194 L 541 193 L 541 193 L 541 193 L 541 193 L 543 192 L 545 192 L 546 192 L 546 191 L 546 191 L 548 191 L 548 190 L 548 190 L 548 190 L 551 190 L 553 189 L 553 189 L 557 189 L 557 188 L 558 188 L 560 188 L 561 187 L 564 187 L 565 187 L 566 187 L 567 186 L 567 186 L 568 186 L 568 185 L 568 185 L 568 185 L 569 184 L 569 184 L 569 184 L 570 184 L 570 183 L 570 183 L 571 183 L 572 182 L 572 182 L 576 182 L 577 181 L 581 181 L 582 181 L 583 181 L 583 180 L 584 180 L 586 180 L 587 179 L 587 179 L 588 179 L 588 178 L 588 178 L 588 178 L 588 178 L 589 177 L 589 177 L 589 177 L 589 176 L 589 176 L 590 176 L 590 175 L 591 175 L 591 175 L 592 175 L 592 174 L 593 174 L 593 174 L 593 173 L 594 173 L 595 173 L 597 172 L 597 172 L 597 172 L 597 172 L 597 171 L 598 171 L 598 171 L 598 170 L 599 170 L 601 170 L 603 169 L 606 169 L 606 169 L 608 169 L 611 168 L 614 168 L 614 168 L 616 167 L 620 167 L 620 167 L 620 166 L 624 166 L 625 166 L 625 166 L 626 165 L 626 165 L 633 165 L 634 164 L 634 164 L 634 164 L 635 163 L 635 163 L 636 163 L 637 163 L 637 162 L 638 162 L 638 162 L 638 161 L 638 161 L 639 161 L 639 160 L 639 160 L 639 160 L 639 160 L 639 159 L 641 159 L 642 159 L 643 158 L 643 158 L 643 158 L 644 157 L 644 157 L 645 157 L 645 157 L 646 156 L 646 156 L 646 156 L 646 155 L 648 155 L 648 155 L 649 154 L 649 154 L 650 154 L 651 154 L 651 153 L 651 153 L 651 153 L 651 152 L 652 152 L 652 152 L 652 151 L 653 151 L 653 151 L 655 151 L 655 150 L 655 150 L 655 150 L 655 149 L 655 149 L 656 149 L 656 148 L 656 148 L 657 148 L 657 148 L 657 147 L 658 147 L 658 147 L 658 146 L 658 146 L 658 146 L 659 145 L 659 145 L 659 145 L 659 145 L 659 144 L 659 144 L 662 144 L 662 143 L 664 143 L 664 143 L 664 142 L 664 142 L 666 142 L 667 142 L 667 141 L 667 141 L 670 141 L 672 140 L 672 140 L 673 140 L 674 139 L 674 139 L 675 139 L 675 139 L 675 138 L 675 138 L 675 138 L 675 137 L 675 137 L 675 137 L 676 136 L 676 136 L 676 136 L 676 136 L 676 135 L 677 135 L 677 135 L 677 134 L 678 134 L 678 134 L 680 133 L 680 133 L 680 133 L 680 132 L 681 132 L 682 132 L 682 132 L 685 131 L 685 131 L 685 131 L 685 130 L 686 130 L 688 130 L 689 130 L 690 129 L 691 129 L 691 129 L 691 128 L 692 128 L 692 128 L 696 127 L 698 127 L 701 127 L 702 126 L 703 126 L 704 126 L 705 126 L 705 125 L 705 125 L 705 125 L 706 124 L 706 124 L 707 124 L 707 124 L 708 123 L 710 123 L 710 123 L 710 122 L 710 122 L 710 122 L 710 121 L 710 121 L 710 121 L 710 121 L 710 120 L 710 120 L 710 120 L 710 119 L 710 119 L 710 119 L 710 118 L 710 118 L 711 118 L 711 118 L 711 117 L 711 117 L 711 117 L 711 116 L 711 116 L 712 116 L 712 115 L 712 115 L 713 115 L 713 115 L 713 114 L 713 114 L 713 114 L 713 113 L 714 113 L 715 113 L 717 112 L 717 112 L 718 112 L 719 112 L 719 111 L 719 111 L 720 111 L 722 110 L 723 110 L 724 110 L 724 109 L 724 109 L 724 109 L 724 109 L 724 108 L 724 108 L 726 108 L 726 107 L 726 107 L 729 107 L 731 106 L 732 106 L 734 106 L 735 106 L 736 105 L 736 105 L 736 105 L 736 104 L 737 104 L 737 104 L 737 103 L 738 103 L 739 103 L 739 103 L 739 102 L 739 102 L 739 102 L 739 101 L 739 101 L 739 101 L 740 100 L 740 100 L 740 100 L 740 100 L 742 99 L 742 99 L 742 99 L 743 98 L 743 98 L 743 98 L 744 97 L 744 97 L 745 97 L 745 97 L 745 96 L 746 96 L 747 96 L 750 95 L 750 95 L 751 95 L 754 94 L 755 94 L 756 94 L 758 94 L 759 93 L 759 93 L 762 93 L 767 92 L 767 92 L 769 92 L 770 91 L 772 91 L 773 91 L 773 91 L 775 90 L 775 90 L 776 90 L 776 89 L 778 89 L 779 89 L 780 88 L 780 88 L 780 88 L 781 88 L 781 87 L 782 87 L 785 87 L 785 86 L 786 86 L 787 86 L 787 85 L 788 85 L 789 85 L 790 85 L 790 84 L 790 84 L 790 84 L 791 83 L 792 83 L 792 83 L 793 82 L 794 82 L 794 82 L 794 82 L 795 81 L 796 81 L 796 81 L 796 80 L 797 80 L 797 80 L 797 79 L 797 79 L 798 79 L 798 79 L 798 78 L 800 78 L 801 78 L 802 77 L 802 77 L 805 77 L 806 76 L 807 76 L 808 76 L 810 76 L 812 75 L 814 75 L 815 75 L 816 74 L 817 74 L 818 74 L 820 73 L 822 73 L 822 73 L 822 73 L 822 72 L 822 72 L 823 72 L 824 71 L 825 71 L 825 71 L 826 70 L 826 70 L 826 70 L 832 70 L 833 69 L 834 69 L 836 69 L 837 68 L 838 68 L 838 68 L 839 67 L 839 67 L 839 67 L 840 67 L 841 66 L 841 66 L 842 66 L 842 65 L 842 65 L 843 65 L 843 64 L 844 64 L 845 64 L 848 64 L 848 63 L 853 63 L 853 63 L 853 62 L 855 62 L 855 62 L 855 61 L 855 61 L 856 61 L 859 61 L 860 60 L 861 60 L 861 60 L 862 59 L 862 59 L 864 59 L 865 58 L 867 58 L 867 58 L 867 58 L 867 57 L 868 57 L 868 57 L 868 56 L 869 56 L 870 56 L 870 55 L 871 55 L 872 55 L 873 55 L 873 54 L 873 54 L 873 54 L 874 53 L 874 53 L 877 53 L 881 52 L 882 52 L 885 52 L 886 52 L 889 51 L 889 51 L 890 51 L 890 50 L 891 50 L 892 50 L 893 49 L 894 49 L 895 49 L 896 49 L 899 48 L 904 48 L 904 48 L 904 47 L 904 47 L 904 47 L 906 46 L 906 46 L 906 46 L 915 46 L 918 45 L 918 45 L 919 45 L 921 44 L 923 44 L 925 44 L 926 43 L 926 43 L 927 43 L 928 43 L 933 42 L 934 42 L 935 42 L 936 41 L 937 41"></path><path d="M 937 346 L 937.000000 15.000000" stroke-width="2" /><path stroke-width="2" d="M 937 346 L 937.000000 15.000000"></path><path stroke-width="2" d="M 937 346 L 942 346" /><path stroke-width="2" d="M 937 346 L 942 346"></path><text xmlns="http://www.w3.org/2000/svg" x="947" y="352">0</text><path stroke-width="2" d="M 937 307 L 942 307" /><path stroke-width="2" d="M 937 307 L 942 307"></path><text xmlns="http://www.w3.org/2000/svg" x="947" y="313">130</text><path stroke-width="2" d="M 937 271 L 942 271" /><path stroke-width="2" d="M 937 271 L 942 271"></path><text x="947" y="277" xmlns="http://www.w3.org/2000/svg">250</text><path stroke-width="2" d="M 937 235 L 942 235" /><path stroke-width="2" d="M 937 235 L 942 235"></path><text xmlns="http://www.w3.org/2000/svg" x="947" y="241">370</text><path stroke-width="2" d="M 937 199 L 942 199" /><path stroke-width="2" d="M 937 199 L 942 199"></path><text xmlns="http://www.w3.org/2000/svg" x="947" y="205">490</text><path stroke-width="2" d="M 937 160 L 942 160" /><path stroke-width="2" d="M 937 160 L 942 160"></path><text xmlns="http://www.w3.org/2000/svg" x="947" y="166">620</text><path d="M 937 124 L 942 124" stroke-width="2" /><path stroke-width="2" d="M 937 124 L 942 124"></path><text xmlns="http://www.w3.org/2000/svg" x="947" y="130">740</text><path stroke-width="2" d="M 937 88 L 942 88" /><path stroke-width="2" d="M 937 88 L 942 88"></path><text xmlns="http://www.w3.org/2000/svg" x="947" y="94">860</text><path stroke-width="2" d="M 937 52 L 942 52" /><path stroke-width="2" d="M 937 52 L 942 52"></path><text xmlns="http://www.w3.org/2000/svg" x="947" y="58">980</text><path stroke-width="2" d="M 937 16 L 942 16" /><path d="M 937 16 L 942 16" stroke-width="2"></path><text x="947" y="22" xmlns="http://www.w3.org/2000/svg">1100</text><text xmlns="http://www.w3.org/2000/svg" x="987" y="175" transform="rotate(90.00,987,175)">Stargazers</text><path stroke-width="2" d="M 57.000000 346.000000 L 937 346" /><path stroke-width="2" d="M 57.000000 346.000000 L 937 346"></path><path d="M 58 346 L 58 351" stroke-width="2" /><path stroke-width="2" d="M 58 346 L 58 351"></path><text xmlns="http://www.w3.org/2000/svg" x="25" y="368">2023-04-02</text><path stroke-width="2" d="M 156 346 L 156 351" /><path stroke-width="2" d="M 156 346 L 156 351"></path><text x="123" y="368" xmlns="http://www.w3.org/2000/svg">2023-07-05</text><path stroke-width="2" d="M 254 346 L 254 351" /><path stroke-width="2" d="M 254 346 L 254 351"></path><text xmlns="http://www.w3.org/2000/svg" x="221" y="368">2023-10-07</text><path stroke-width="2" d="M 351 346 L 351 351" /><path stroke-width="2" d="M 351 346 L 351 351"></path><text xmlns="http://www.w3.org/2000/svg" x="318" y="368">2024-01-09</text><path stroke-width="2" d="M 449 346 L 449 351" /><path d="M 449 346 L 449 351" stroke-width="2"></path><text xmlns="http://www.w3.org/2000/svg" x="416" y="368">2024-04-12</text><path stroke-width="2" d="M 547 346 L 547 351" /><path stroke-width="2" d="M 547 346 L 547 351"></path><text xmlns="http://www.w3.org/2000/svg" x="514" y="368">2024-07-15</text><path stroke-width="2" d="M 644 346 L 644 351" /><path stroke-width="2" d="M 644 346 L 644 351"></path><text x="611" y="368" xmlns="http://www.w3.org/2000/svg">2024-10-18</text><path stroke-width="2" d="M 742 346 L 742 351" /><path d="M 742 346 L 742 351" stroke-width="2"></path><text xmlns="http://www.w3.org/2000/svg" x="709" y="368">2025-01-20</text><path stroke-width="2" d="M 840 346 L 840 351" /><path stroke-width="2" d="M 840 346 L 840 351"></path><text xmlns="http://www.w3.org/2000/svg" x="807" y="368">2025-04-24</text><path stroke-width="2" d="M 937 346 L 937 351" /><path stroke-width="2" d="M 937 346 L 937 351"></path><text x="904" y="368" xmlns="http://www.w3.org/2000/svg">2025-07-27</text><text y="390" xmlns="http://www.w3.org/2000/svg" x="483">Time</text></svg>