<svg xmlns="http://www.w3.org/2000/svg" xmlns:xlink="http://www.w3.org/1999/xlink" width="1024px" height="400px"><style type="text/css">
path { fill: none; stroke: rgb(51,51,51); }
path.series { stroke: #6b63ff; }
rect.background { fill: rgb(255,255,255); stroke: none; }

text {
	stroke-width: 0;
	stroke: none;
	fill: rgba(51,51,51,1.0);
	font-size: 12.8px;
	font-family: 'Roboto Medium', sans-serif;
}
</style><rect rx="8" x="0" y="0" width="1024px" height="400px" class="background" /><rect x="0" y="0" width="1024px" height="400px" class="background" rx="8"></rect><path stroke-width="2" class="series" d="M 58 345 L 61 345 L 80 344 L 81 344 L 81 343 L 81 343 L 81 342 L 81 342 L 81 341 L 81 341 L 81 340 L 81 340 L 81 339 L 81 339 L 81 338 L 81 338 L 81 337 L 82 337 L 82 336 L 83 336 L 83 335 L 83 335 L 85 334 L 86 334 L 86 333 L 86 333 L 86 332 L 88 332 L 90 331 L 90 331 L 91 330 L 92 330 L 98 329 L 99 329 L 99 328 L 99 328 L 99 327 L 99 327 L 102 326 L 104 326 L 105 325 L 107 325 L 112 324 L 114 324 L 122 323 L 125 323 L 129 322 L 134 322 L 136 321 L 154 321 L 155 320 L 155 320 L 157 319 L 158 319 L 158 318 L 158 318 L 158 317 L 158 317 L 158 316 L 158 316 L 158 315 L 158 315 L 158 314 L 158 314 L 158 313 L 159 313 L 159 313 L 159 312 L 159 312 L 159 311 L 159 311 L 159 310 L 159 310 L 159 309 L 159 309 L 159 308 L 159 308 L 159 307 L 159 307 L 159 306 L 159 306 L 159 305 L 159 305 L 159 304 L 159 304 L 159 303 L 159 303 L 159 302 L 159 302 L 159 301 L 159 301 L 159 300 L 159 300 L 159 299 L 159 299 L 159 298 L 159 298 L 159 297 L 159 297 L 159 296 L 160 296 L 160 295 L 160 295 L 160 294 L 161 294 L 161 293 L 162 293 L 162 292 L 162 292 L 162 291 L 162 291 L 162 290 L 162 290 L 162 289 L 162 289 L 162 288 L 162 288 L 162 287 L 162 287 L 162 286 L 162 286 L 162 285 L 162 285 L 162 284 L 164 284 L 164 283 L 164 283 L 164 282 L 168 282 L 168 281 L 168 281 L 170 280 L 170 280 L 173 280 L 176 279 L 176 279 L 179 278 L 180 278 L 182 277 L 182 277 L 183 276 L 185 276 L 186 275 L 187 275 L 188 274 L 189 274 L 190 273 L 190 273 L 190 272 L 191 272 L 192 271 L 193 271 L 193 270 L 194 270 L 195 269 L 195 269 L 196 268 L 198 268 L 199 267 L 202 267 L 203 266 L 204 266 L 205 265 L 205 265 L 205 264 L 207 264 L 215 263 L 215 263 L 216 262 L 223 262 L 224 261 L 224 261 L 224 260 L 224 260 L 225 259 L 227 259 L 229 258 L 229 258 L 238 257 L 239 257 L 241 256 L 244 256 L 246 255 L 246 255 L 247 254 L 253 254 L 260 253 L 268 253 L 268 252 L 268 252 L 269 251 L 269 251 L 271 250 L 281 250 L 286 249 L 286 249 L 290 248 L 291 248 L 292 247 L 303 247 L 303 247 L 304 246 L 304 246 L 306 245 L 309 245 L 310 244 L 313 244 L 314 243 L 317 243 L 323 242 L 324 242 L 325 241 L 325 241 L 325 240 L 326 240 L 329 239 L 336 239 L 350 238 L 355 238 L 358 237 L 359 237 L 360 236 L 362 236 L 362 235 L 362 235 L 362 234 L 362 234 L 362 233 L 362 233 L 362 232 L 362 232 L 362 231 L 362 231 L 362 230 L 362 230 L 363 229 L 363 229 L 365 228 L 366 228 L 366 227 L 366 227 L 366 226 L 368 226 L 368 225 L 368 225 L 368 224 L 368 224 L 368 223 L 368 223 L 369 222 L 370 222 L 371 221 L 371 221 L 371 220 L 371 220 L 371 219 L 372 219 L 373 218 L 373 218 L 373 217 L 374 217 L 374 216 L 374 216 L 376 215 L 377 215 L 378 214 L 379 214 L 382 214 L 382 213 L 383 213 L 383 212 L 383 212 L 383 211 L 383 211 L 385 210 L 386 210 L 388 209 L 388 209 L 389 208 L 391 208 L 393 207 L 393 207 L 396 206 L 397 206 L 397 205 L 398 205 L 398 204 L 404 204 L 405 203 L 405 203 L 409 202 L 412 202 L 416 201 L 417 201 L 417 200 L 419 200 L 419 199 L 419 199 L 422 198 L 425 198 L 427 197 L 427 197 L 429 196 L 430 196 L 430 195 L 430 195 L 430 194 L 431 194 L 431 193 L 431 193 L 433 192 L 433 192 L 433 191 L 434 191 L 439 190 L 445 190 L 445 189 L 446 189 L 450 188 L 452 188 L 453 187 L 453 187 L 455 186 L 456 186 L 456 185 L 456 185 L 456 184 L 456 184 L 457 183 L 457 183 L 457 182 L 457 182 L 458 181 L 461 181 L 461 181 L 461 180 L 461 180 L 461 179 L 462 179 L 462 178 L 462 178 L 462 177 L 462 177 L 462 176 L 462 176 L 462 175 L 467 175 L 470 174 L 470 174 L 471 173 L 484 173 L 485 172 L 489 172 L 492 171 L 500 171 L 502 170 L 505 170 L 505 169 L 505 169 L 505 168 L 506 168 L 506 167 L 506 167 L 506 166 L 507 166 L 509 165 L 518 165 L 521 164 L 524 164 L 532 163 L 537 163 L 541 162 L 544 162 L 550 161 L 550 161 L 561 160 L 572 160 L 572 159 L 580 159 L 580 158 L 587 158 L 588 157 L 591 157 L 591 156 L 592 156 L 592 155 L 596 155 L 597 154 L 600 154 L 605 153 L 605 153 L 607 152 L 607 152 L 611 151 L 616 151 L 616 150 L 620 150 L 625 149 L 626 149 L 626 148 L 628 148 L 629 148 L 631 147 L 634 147 L 637 146 L 641 146 L 643 145 L 643 145 L 650 144 L 651 144 L 654 143 L 659 143 L 659 142 L 665 142 L 666 141 L 666 141 L 668 140 L 669 140 L 671 139 L 671 139 L 674 138 L 678 138 L 678 137 L 679 137 L 679 136 L 688 136 L 689 135 L 689 135 L 690 134 L 690 134 L 691 133 L 691 133 L 692 132 L 692 132 L 695 131 L 695 131 L 697 130 L 697 130 L 698 129 L 699 129 L 700 128 L 700 128 L 701 127 L 701 127 L 701 126 L 702 126 L 702 125 L 702 125 L 703 124 L 704 124 L 705 123 L 706 123 L 706 122 L 707 122 L 707 121 L 709 121 L 710 120 L 711 120 L 711 119 L 713 119 L 714 118 L 715 118 L 715 117 L 716 117 L 718 116 L 718 116 L 718 115 L 719 115 L 719 115 L 719 114 L 720 114 L 720 113 L 721 113 L 722 112 L 726 112 L 727 111 L 729 111 L 729 110 L 732 110 L 734 109 L 734 109 L 737 108 L 740 108 L 743 107 L 746 107 L 747 106 L 747 106 L 747 105 L 747 105 L 748 104 L 749 104 L 749 103 L 750 103 L 750 102 L 750 102 L 750 101 L 752 101 L 753 100 L 753 100 L 755 99 L 755 99 L 758 98 L 758 98 L 759 97 L 760 97 L 761 96 L 764 96 L 767 95 L 772 95 L 772 94 L 772 94 L 772 93 L 775 93 L 777 92 L 778 92 L 778 91 L 778 91 L 779 90 L 781 90 L 785 89 L 785 89 L 785 88 L 785 88 L 788 87 L 788 87 L 788 86 L 789 86 L 789 85 L 792 85 L 797 84 L 797 84 L 801 83 L 802 83 L 803 82 L 807 82 L 808 82 L 812 81 L 814 81 L 816 80 L 817 80 L 817 79 L 818 79 L 818 78 L 818 78 L 818 77 L 820 77 L 820 76 L 820 76 L 821 75 L 821 75 L 821 74 L 823 74 L 824 73 L 824 73 L 830 72 L 831 72 L 837 71 L 840 71 L 840 70 L 841 70 L 842 69 L 845 69 L 846 68 L 847 68 L 847 67 L 847 67 L 848 66 L 848 66 L 848 65 L 848 65 L 849 64 L 849 64 L 849 63 L 849 63 L 850 62 L 850 62 L 851 61 L 851 61 L 852 60 L 853 60 L 853 59 L 854 59 L 856 58 L 856 58 L 856 57 L 857 57 L 858 56 L 862 56 L 862 55 L 862 55 L 862 54 L 862 54 L 863 53 L 863 53 L 863 52 L 865 52 L 867 51 L 871 51 L 874 50 L 876 50 L 878 49 L 882 49 L 886 49 L 887 48 L 890 48 L 895 47 L 895 47 L 895 46 L 901 46 L 903 45 L 904 45 L 905 44 L 905 44 L 916 43 L 916 43 L 917 42 L 917 42 L 918 41 L 919 41 L 920 40 L 921 40 L 921 39 L 922 39 L 922 38 L 923 38 L 923 37 L 924 37 L 924 36 L 924 36 L 924 35 L 924 35 L 924 34 L 925 34 L 926 33 L 928 33 L 929 32 L 929 32 L 930 31 L 930 31 L 931 30 L 932 30 L 933 29 L 933 29 L 934 28 L 934 28 L 935 27 L 935 27 L 937 26 L 937 26 L 939 25 L 939 25 L 940 24 L 941 24 L 942 23 L 942 23 L 942 22 L 942 22 L 943 21 L 944 21 L 944 20 L 945 20 L 945 19" /><path d="M 58 345 L 61 345 L 80 344 L 81 344 L 81 343 L 81 343 L 81 342 L 81 342 L 81 341 L 81 341 L 81 340 L 81 340 L 81 339 L 81 339 L 81 338 L 81 338 L 81 337 L 82 337 L 82 336 L 83 336 L 83 335 L 83 335 L 85 334 L 86 334 L 86 333 L 86 333 L 86 332 L 88 332 L 90 331 L 90 331 L 91 330 L 92 330 L 98 329 L 99 329 L 99 328 L 99 328 L 99 327 L 99 327 L 102 326 L 104 326 L 105 325 L 107 325 L 112 324 L 114 324 L 122 323 L 125 323 L 129 322 L 134 322 L 136 321 L 154 321 L 155 320 L 155 320 L 157 319 L 158 319 L 158 318 L 158 318 L 158 317 L 158 317 L 158 316 L 158 316 L 158 315 L 158 315 L 158 314 L 158 314 L 158 313 L 159 313 L 159 313 L 159 312 L 159 312 L 159 311 L 159 311 L 159 310 L 159 310 L 159 309 L 159 309 L 159 308 L 159 308 L 159 307 L 159 307 L 159 306 L 159 306 L 159 305 L 159 305 L 159 304 L 159 304 L 159 303 L 159 303 L 159 302 L 159 302 L 159 301 L 159 301 L 159 300 L 159 300 L 159 299 L 159 299 L 159 298 L 159 298 L 159 297 L 159 297 L 159 296 L 160 296 L 160 295 L 160 295 L 160 294 L 161 294 L 161 293 L 162 293 L 162 292 L 162 292 L 162 291 L 162 291 L 162 290 L 162 290 L 162 289 L 162 289 L 162 288 L 162 288 L 162 287 L 162 287 L 162 286 L 162 286 L 162 285 L 162 285 L 162 284 L 164 284 L 164 283 L 164 283 L 164 282 L 168 282 L 168 281 L 168 281 L 170 280 L 170 280 L 173 280 L 176 279 L 176 279 L 179 278 L 180 278 L 182 277 L 182 277 L 183 276 L 185 276 L 186 275 L 187 275 L 188 274 L 189 274 L 190 273 L 190 273 L 190 272 L 191 272 L 192 271 L 193 271 L 193 270 L 194 270 L 195 269 L 195 269 L 196 268 L 198 268 L 199 267 L 202 267 L 203 266 L 204 266 L 205 265 L 205 265 L 205 264 L 207 264 L 215 263 L 215 263 L 216 262 L 223 262 L 224 261 L 224 261 L 224 260 L 224 260 L 225 259 L 227 259 L 229 258 L 229 258 L 238 257 L 239 257 L 241 256 L 244 256 L 246 255 L 246 255 L 247 254 L 253 254 L 260 253 L 268 253 L 268 252 L 268 252 L 269 251 L 269 251 L 271 250 L 281 250 L 286 249 L 286 249 L 290 248 L 291 248 L 292 247 L 303 247 L 303 247 L 304 246 L 304 246 L 306 245 L 309 245 L 310 244 L 313 244 L 314 243 L 317 243 L 323 242 L 324 242 L 325 241 L 325 241 L 325 240 L 326 240 L 329 239 L 336 239 L 350 238 L 355 238 L 358 237 L 359 237 L 360 236 L 362 236 L 362 235 L 362 235 L 362 234 L 362 234 L 362 233 L 362 233 L 362 232 L 362 232 L 362 231 L 362 231 L 362 230 L 362 230 L 363 229 L 363 229 L 365 228 L 366 228 L 366 227 L 366 227 L 366 226 L 368 226 L 368 225 L 368 225 L 368 224 L 368 224 L 368 223 L 368 223 L 369 222 L 370 222 L 371 221 L 371 221 L 371 220 L 371 220 L 371 219 L 372 219 L 373 218 L 373 218 L 373 217 L 374 217 L 374 216 L 374 216 L 376 215 L 377 215 L 378 214 L 379 214 L 382 214 L 382 213 L 383 213 L 383 212 L 383 212 L 383 211 L 383 211 L 385 210 L 386 210 L 388 209 L 388 209 L 389 208 L 391 208 L 393 207 L 393 207 L 396 206 L 397 206 L 397 205 L 398 205 L 398 204 L 404 204 L 405 203 L 405 203 L 409 202 L 412 202 L 416 201 L 417 201 L 417 200 L 419 200 L 419 199 L 419 199 L 422 198 L 425 198 L 427 197 L 427 197 L 429 196 L 430 196 L 430 195 L 430 195 L 430 194 L 431 194 L 431 193 L 431 193 L 433 192 L 433 192 L 433 191 L 434 191 L 439 190 L 445 190 L 445 189 L 446 189 L 450 188 L 452 188 L 453 187 L 453 187 L 455 186 L 456 186 L 456 185 L 456 185 L 456 184 L 456 184 L 457 183 L 457 183 L 457 182 L 457 182 L 458 181 L 461 181 L 461 181 L 461 180 L 461 180 L 461 179 L 462 179 L 462 178 L 462 178 L 462 177 L 462 177 L 462 176 L 462 176 L 462 175 L 467 175 L 470 174 L 470 174 L 471 173 L 484 173 L 485 172 L 489 172 L 492 171 L 500 171 L 502 170 L 505 170 L 505 169 L 505 169 L 505 168 L 506 168 L 506 167 L 506 167 L 506 166 L 507 166 L 509 165 L 518 165 L 521 164 L 524 164 L 532 163 L 537 163 L 541 162 L 544 162 L 550 161 L 550 161 L 561 160 L 572 160 L 572 159 L 580 159 L 580 158 L 587 158 L 588 157 L 591 157 L 591 156 L 592 156 L 592 155 L 596 155 L 597 154 L 600 154 L 605 153 L 605 153 L 607 152 L 607 152 L 611 151 L 616 151 L 616 150 L 620 150 L 625 149 L 626 149 L 626 148 L 628 148 L 629 148 L 631 147 L 634 147 L 637 146 L 641 146 L 643 145 L 643 145 L 650 144 L 651 144 L 654 143 L 659 143 L 659 142 L 665 142 L 666 141 L 666 141 L 668 140 L 669 140 L 671 139 L 671 139 L 674 138 L 678 138 L 678 137 L 679 137 L 679 136 L 688 136 L 689 135 L 689 135 L 690 134 L 690 134 L 691 133 L 691 133 L 692 132 L 692 132 L 695 131 L 695 131 L 697 130 L 697 130 L 698 129 L 699 129 L 700 128 L 700 128 L 701 127 L 701 127 L 701 126 L 702 126 L 702 125 L 702 125 L 703 124 L 704 124 L 705 123 L 706 123 L 706 122 L 707 122 L 707 121 L 709 121 L 710 120 L 711 120 L 711 119 L 713 119 L 714 118 L 715 118 L 715 117 L 716 117 L 718 116 L 718 116 L 718 115 L 719 115 L 719 115 L 719 114 L 720 114 L 720 113 L 721 113 L 722 112 L 726 112 L 727 111 L 729 111 L 729 110 L 732 110 L 734 109 L 734 109 L 737 108 L 740 108 L 743 107 L 746 107 L 747 106 L 747 106 L 747 105 L 747 105 L 748 104 L 749 104 L 749 103 L 750 103 L 750 102 L 750 102 L 750 101 L 752 101 L 753 100 L 753 100 L 755 99 L 755 99 L 758 98 L 758 98 L 759 97 L 760 97 L 761 96 L 764 96 L 767 95 L 772 95 L 772 94 L 772 94 L 772 93 L 775 93 L 777 92 L 778 92 L 778 91 L 778 91 L 779 90 L 781 90 L 785 89 L 785 89 L 785 88 L 785 88 L 788 87 L 788 87 L 788 86 L 789 86 L 789 85 L 792 85 L 797 84 L 797 84 L 801 83 L 802 83 L 803 82 L 807 82 L 808 82 L 812 81 L 814 81 L 816 80 L 817 80 L 817 79 L 818 79 L 818 78 L 818 78 L 818 77 L 820 77 L 820 76 L 820 76 L 821 75 L 821 75 L 821 74 L 823 74 L 824 73 L 824 73 L 830 72 L 831 72 L 837 71 L 840 71 L 840 70 L 841 70 L 842 69 L 845 69 L 846 68 L 847 68 L 847 67 L 847 67 L 848 66 L 848 66 L 848 65 L 848 65 L 849 64 L 849 64 L 849 63 L 849 63 L 850 62 L 850 62 L 851 61 L 851 61 L 852 60 L 853 60 L 853 59 L 854 59 L 856 58 L 856 58 L 856 57 L 857 57 L 858 56 L 862 56 L 862 55 L 862 55 L 862 54 L 862 54 L 863 53 L 863 53 L 863 52 L 865 52 L 867 51 L 871 51 L 874 50 L 876 50 L 878 49 L 882 49 L 886 49 L 887 48 L 890 48 L 895 47 L 895 47 L 895 46 L 901 46 L 903 45 L 904 45 L 905 44 L 905 44 L 916 43 L 916 43 L 917 42 L 917 42 L 918 41 L 919 41 L 920 40 L 921 40 L 921 39 L 922 39 L 922 38 L 923 38 L 923 37 L 924 37 L 924 36 L 924 36 L 924 35 L 924 35 L 924 34 L 925 34 L 926 33 L 928 33 L 929 32 L 929 32 L 930 31 L 930 31 L 931 30 L 932 30 L 933 29 L 933 29 L 934 28 L 934 28 L 935 27 L 935 27 L 937 26 L 937 26 L 939 25 L 939 25 L 940 24 L 941 24 L 942 23 L 942 23 L 942 22 L 942 22 L 943 21 L 944 21 L 944 20 L 945 20 L 945 19" stroke-width="2" class="series"></path><path stroke-width="2" d="M 945 346 L 945.000000 15.000000" /><path stroke-width="2" d="M 945 346 L 945.000000 15.000000"></path><path stroke-width="2" d="M 945 346 L 950 346" /><path d="M 945 346 L 950 346" stroke-width="2"></path><text y="352" xmlns="http://www.w3.org/2000/svg" x="955">0</text><path d="M 945 309 L 950 309" stroke-width="2" /><path stroke-width="2" d="M 945 309 L 950 309"></path><text y="315" xmlns="http://www.w3.org/2000/svg" x="955">75</text><path stroke-width="2" d="M 945 272 L 950 272" /><path stroke-width="2" d="M 945 272 L 950 272"></path><text xmlns="http://www.w3.org/2000/svg" x="955" y="278">149</text><path stroke-width="2" d="M 945 235 L 950 235" /><path stroke-width="2" d="M 945 235 L 950 235"></path><text xmlns="http://www.w3.org/2000/svg" x="955" y="241">224</text><path stroke-width="2" d="M 945 199 L 950 199" /><path stroke-width="2" d="M 945 199 L 950 199"></path><text y="205" xmlns="http://www.w3.org/2000/svg" x="955">298</text><path d="M 945 162 L 950 162" stroke-width="2" /><path stroke-width="2" d="M 945 162 L 950 162"></path><text y="168" xmlns="http://www.w3.org/2000/svg" x="955">373</text><path stroke-width="2" d="M 945 125 L 950 125" /><path stroke-width="2" d="M 945 125 L 950 125"></path><text x="955" y="131" xmlns="http://www.w3.org/2000/svg">447</text><path stroke-width="2" d="M 945 88 L 950 88" /><path d="M 945 88 L 950 88" stroke-width="2"></path><text xmlns="http://www.w3.org/2000/svg" x="955" y="94">522</text><path stroke-width="2" d="M 945 52 L 950 52" /><path d="M 945 52 L 950 52" stroke-width="2"></path><text y="58" xmlns="http://www.w3.org/2000/svg" x="955">596</text><path d="M 945 16 L 950 16" stroke-width="2" /><path stroke-width="2" d="M 945 16 L 950 16"></path><text xmlns="http://www.w3.org/2000/svg" x="955" y="22">670</text><text transform="rotate(90.00,987,175)" xmlns="http://www.w3.org/2000/svg" x="987" y="175">Stargazers</text><path d="M 57.000000 346.000000 L 945 346" stroke-width="2" /><path stroke-width="2" d="M 57.000000 346.000000 L 945 346"></path><path stroke-width="2" d="M 58 346 L 58 351" /><path stroke-width="2" d="M 58 346 L 58 351"></path><text xmlns="http://www.w3.org/2000/svg" x="25" y="368">2023-04-02</text><path stroke-width="2" d="M 157 346 L 157 351" /><path stroke-width="2" d="M 157 346 L 157 351"></path><text xmlns="http://www.w3.org/2000/svg" x="124" y="368">2023-06-05</text><path stroke-width="2" d="M 256 346 L 256 351" /><path stroke-width="2" d="M 256 346 L 256 351"></path><text xmlns="http://www.w3.org/2000/svg" x="223" y="368">2023-08-07</text><path stroke-width="2" d="M 354 346 L 354 351" /><path d="M 354 346 L 354 351" stroke-width="2"></path><text xmlns="http://www.w3.org/2000/svg" x="321" y="368">2023-10-10</text><path stroke-width="2" d="M 453 346 L 453 351" /><path stroke-width="2" d="M 453 346 L 453 351"></path><text x="420" y="368" xmlns="http://www.w3.org/2000/svg">2023-12-13</text><path d="M 551 346 L 551 351" stroke-width="2" /><path stroke-width="2" d="M 551 346 L 551 351"></path><text x="518" y="368" xmlns="http://www.w3.org/2000/svg">2024-02-14</text><path d="M 650 346 L 650 351" stroke-width="2" /><path stroke-width="2" d="M 650 346 L 650 351"></path><text xmlns="http://www.w3.org/2000/svg" x="617" y="368">2024-04-18</text><path stroke-width="2" d="M 748 346 L 748 351" /><path d="M 748 346 L 748 351" stroke-width="2"></path><text xmlns="http://www.w3.org/2000/svg" x="715" y="368">2024-06-21</text><path stroke-width="2" d="M 847 346 L 847 351" /><path stroke-width="2" d="M 847 346 L 847 351"></path><text xmlns="http://www.w3.org/2000/svg" x="814" y="368">2024-08-23</text><path stroke-width="2" d="M 945 346 L 945 351" /><path stroke-width="2" d="M 945 346 L 945 351"></path><text xmlns="http://www.w3.org/2000/svg" x="912" y="368">2024-10-26</text><text y="390" xmlns="http://www.w3.org/2000/svg" x="487">Time</text></svg>