<svg xmlns="http://www.w3.org/2000/svg" xmlns:xlink="http://www.w3.org/1999/xlink" width="1024px" height="400px"><style type="text/css">
path { fill: none; stroke: rgb(51,51,51); }
path.series { stroke: #6b63ff; }
rect.background { fill: rgb(255,255,255); stroke: none; }

text {
	stroke-width: 0;
	stroke: none;
	fill: rgba(51,51,51,1.0);
	font-size: 12.8px;
	font-family: 'Roboto Medium', sans-serif;
}
</style><rect x="0" y="0" width="1024px" height="400px" class="background" rx="8" /><rect x="0" y="0" width="1024px" height="400px" class="background" rx="8"></rect><path d="M 58 345 L 64 344 L 103 343 L 104 342 L 104 341 L 104 340 L 104 339 L 104 338 L 104 337 L 104 337 L 105 336 L 105 335 L 106 334 L 106 333 L 106 332 L 106 331 L 106 330 L 106 329 L 107 329 L 107 328 L 109 327 L 110 326 L 110 325 L 113 324 L 115 323 L 115 322 L 115 321 L 117 321 L 119 320 L 123 319 L 124 318 L 126 317 L 129 316 L 142 315 L 142 314 L 142 313 L 142 313 L 142 312 L 142 311 L 142 310 L 149 309 L 152 308 L 154 307 L 160 306 L 170 305 L 174 304 L 191 304 L 197 303 L 206 302 L 216 301 L 220 300 L 256 299 L 258 298 L 259 297 L 263 296 L 265 296 L 265 295 L 265 294 L 265 293 L 265 292 L 265 291 L 265 290 L 265 289 L 265 288 L 265 288 L 265 287 L 266 286 L 266 285 L 266 284 L 266 283 L 266 282 L 266 281 L 266 280 L 266 280 L 266 279 L 267 278 L 267 277 L 267 276 L 267 275 L 267 274 L 267 273 L 267 272 L 267 271 L 267 271 L 267 270 L 267 269 L 267 268 L 267 267 L 267 266 L 267 265 L 267 264 L 267 263 L 267 263 L 267 262 L 267 261 L 267 260 L 267 259 L 267 258 L 267 257 L 268 256 L 268 255 L 268 255 L 269 254 L 270 253 L 270 252 L 270 251 L 271 250 L 271 249 L 273 248 L 273 247 L 273 247 L 273 246 L 273 245 L 273 244 L 273 243 L 273 242 L 273 241 L 273 240 L 273 239 L 273 238 L 273 238 L 273 237 L 273 236 L 273 235 L 274 234 L 274 233 L 277 232 L 277 231 L 277 230 L 277 230 L 286 229 L 287 228 L 287 227 L 290 226 L 290 225 L 296 224 L 302 223 L 303 222 L 308 222 L 311 221 L 315 220 L 316 219 L 317 218 L 322 217 L 323 216 L 325 215 L 328 214 L 329 214 L 331 213 L 332 212 L 332 211 L 333 210 L 336 209 L 339 208 L 339 207 L 340 206 L 341 205 L 342 205 L 344 204 L 348 203 L 351 202 L 356 201 L 358 200 L 360 199 L 363 198 L 363 197 L 364 197 L 367 196 L 383 195 L 384 194 L 386 193 L 401 192 L 401 191 L 402 190 L 402 189 L 402 189 L 405 188 L 409 187 L 412 186 L 413 185 L 431 184 L 434 183 L 438 182 L 444 181 L 448 181 L 448 180 L 450 179 L 463 178 L 477 177 L 493 176 L 495 175 L 495 174 L 495 173 L 496 172 L 500 172 L 521 171 L 531 170 L 532 169 L 540 168 L 542 167 L 543 166 L 567 165 L 567 164 L 569 164 L 570 163 L 573 162 L 579 161 L 582 160 L 587 159 L 590 158 L 595 157 L 609 156 L 609 156 L 612 155 L 612 154 L 613 153 L 614 152 L 621 151 L 621 150 L 634 149 L 654 148 L 664 148 L 675 147 L 676 146 L 681 145 L 682 144 L 686 143 L 689 142 L 689 141 L 689 140 L 689 139 L 689 139 L 689 138 L 689 137 L 689 136 L 690 135 L 690 134 L 690 133 L 690 132 L 690 131 L 691 131 L 692 130 L 694 129 L 696 128 L 698 127 L 698 126 L 698 125 L 698 124 L 702 123 L 702 123 L 702 122 L 702 121 L 702 120 L 702 119 L 702 118 L 705 117 L 705 116 L 706 115 L 707 115 L 708 114 L 708 113 L 708 112 L 709 111 L 711 110 L 711 109 L 711 108 L 712 107 L 714 106 L 714 106 L 715 105 L 717 104 L 720 103 L 722 102 L 726 101 L 731 100 L 731 99 L 733 98 L 734 98 L 734 97 L 734 96 L 734 95 L 738 94 L 739 93 L 744 92 L 744 91 L 746 90 L 750 90 L 754 89 L 754 88 L 760 87 L 762 86 L 763 85 L 765 84 L 765 83 L 776 82 L 778 82 L 779 81 L 788 80 L 792 79 L 801 78 L 804 77 L 804 76 L 807 75 L 808 74 L 808 73 L 815 73 L 820 72 L 824 71 L 825 70 L 828 69 L 831 68 L 831 67 L 831 66 L 831 65 L 833 65 L 833 64 L 834 63 L 837 62 L 837 61 L 837 60 L 839 59 L 850 58 L 863 57 L 863 57 L 863 56 L 872 55 L 876 54 L 878 53 L 879 52 L 882 51 L 885 50 L 885 49 L 885 49 L 885 48 L 885 47 L 886 46 L 886 45 L 887 44 L 887 43 L 889 42 L 895 41 L 895 40 L 895 40 L 896 39 L 896 38 L 897 37 L 897 36 L 897 35 L 897 34 L 897 33 L 897 32 L 898 32 L 898 31 L 902 30 L 908 29 L 914 28 L 914 27 L 916 26 L 928 25 L 943 24 L 945 24" stroke-width="2" class="series" /><path stroke-width="2" class="series" d="M 58 345 L 64 344 L 103 343 L 104 342 L 104 341 L 104 340 L 104 339 L 104 338 L 104 337 L 104 337 L 105 336 L 105 335 L 106 334 L 106 333 L 106 332 L 106 331 L 106 330 L 106 329 L 107 329 L 107 328 L 109 327 L 110 326 L 110 325 L 113 324 L 115 323 L 115 322 L 115 321 L 117 321 L 119 320 L 123 319 L 124 318 L 126 317 L 129 316 L 142 315 L 142 314 L 142 313 L 142 313 L 142 312 L 142 311 L 142 310 L 149 309 L 152 308 L 154 307 L 160 306 L 170 305 L 174 304 L 191 304 L 197 303 L 206 302 L 216 301 L 220 300 L 256 299 L 258 298 L 259 297 L 263 296 L 265 296 L 265 295 L 265 294 L 265 293 L 265 292 L 265 291 L 265 290 L 265 289 L 265 288 L 265 288 L 265 287 L 266 286 L 266 285 L 266 284 L 266 283 L 266 282 L 266 281 L 266 280 L 266 280 L 266 279 L 267 278 L 267 277 L 267 276 L 267 275 L 267 274 L 267 273 L 267 272 L 267 271 L 267 271 L 267 270 L 267 269 L 267 268 L 267 267 L 267 266 L 267 265 L 267 264 L 267 263 L 267 263 L 267 262 L 267 261 L 267 260 L 267 259 L 267 258 L 267 257 L 268 256 L 268 255 L 268 255 L 269 254 L 270 253 L 270 252 L 270 251 L 271 250 L 271 249 L 273 248 L 273 247 L 273 247 L 273 246 L 273 245 L 273 244 L 273 243 L 273 242 L 273 241 L 273 240 L 273 239 L 273 238 L 273 238 L 273 237 L 273 236 L 273 235 L 274 234 L 274 233 L 277 232 L 277 231 L 277 230 L 277 230 L 286 229 L 287 228 L 287 227 L 290 226 L 290 225 L 296 224 L 302 223 L 303 222 L 308 222 L 311 221 L 315 220 L 316 219 L 317 218 L 322 217 L 323 216 L 325 215 L 328 214 L 329 214 L 331 213 L 332 212 L 332 211 L 333 210 L 336 209 L 339 208 L 339 207 L 340 206 L 341 205 L 342 205 L 344 204 L 348 203 L 351 202 L 356 201 L 358 200 L 360 199 L 363 198 L 363 197 L 364 197 L 367 196 L 383 195 L 384 194 L 386 193 L 401 192 L 401 191 L 402 190 L 402 189 L 402 189 L 405 188 L 409 187 L 412 186 L 413 185 L 431 184 L 434 183 L 438 182 L 444 181 L 448 181 L 448 180 L 450 179 L 463 178 L 477 177 L 493 176 L 495 175 L 495 174 L 495 173 L 496 172 L 500 172 L 521 171 L 531 170 L 532 169 L 540 168 L 542 167 L 543 166 L 567 165 L 567 164 L 569 164 L 570 163 L 573 162 L 579 161 L 582 160 L 587 159 L 590 158 L 595 157 L 609 156 L 609 156 L 612 155 L 612 154 L 613 153 L 614 152 L 621 151 L 621 150 L 634 149 L 654 148 L 664 148 L 675 147 L 676 146 L 681 145 L 682 144 L 686 143 L 689 142 L 689 141 L 689 140 L 689 139 L 689 139 L 689 138 L 689 137 L 689 136 L 690 135 L 690 134 L 690 133 L 690 132 L 690 131 L 691 131 L 692 130 L 694 129 L 696 128 L 698 127 L 698 126 L 698 125 L 698 124 L 702 123 L 702 123 L 702 122 L 702 121 L 702 120 L 702 119 L 702 118 L 705 117 L 705 116 L 706 115 L 707 115 L 708 114 L 708 113 L 708 112 L 709 111 L 711 110 L 711 109 L 711 108 L 712 107 L 714 106 L 714 106 L 715 105 L 717 104 L 720 103 L 722 102 L 726 101 L 731 100 L 731 99 L 733 98 L 734 98 L 734 97 L 734 96 L 734 95 L 738 94 L 739 93 L 744 92 L 744 91 L 746 90 L 750 90 L 754 89 L 754 88 L 760 87 L 762 86 L 763 85 L 765 84 L 765 83 L 776 82 L 778 82 L 779 81 L 788 80 L 792 79 L 801 78 L 804 77 L 804 76 L 807 75 L 808 74 L 808 73 L 815 73 L 820 72 L 824 71 L 825 70 L 828 69 L 831 68 L 831 67 L 831 66 L 831 65 L 833 65 L 833 64 L 834 63 L 837 62 L 837 61 L 837 60 L 839 59 L 850 58 L 863 57 L 863 57 L 863 56 L 872 55 L 876 54 L 878 53 L 879 52 L 882 51 L 885 50 L 885 49 L 885 49 L 885 48 L 885 47 L 886 46 L 886 45 L 887 44 L 887 43 L 889 42 L 895 41 L 895 40 L 895 40 L 896 39 L 896 38 L 897 37 L 897 36 L 897 35 L 897 34 L 897 33 L 897 32 L 898 32 L 898 31 L 902 30 L 908 29 L 914 28 L 914 27 L 916 26 L 928 25 L 943 24 L 945 24"></path><path stroke-width="2" d="M 945 346 L 945.000000 15.000000" /><path stroke-width="2" d="M 945 346 L 945.000000 15.000000"></path><path stroke-width="2" d="M 945 346 L 950 346" /><path stroke-width="2" d="M 945 346 L 950 346"></path><text xmlns="http://www.w3.org/2000/svg" x="955" y="352">0</text><path stroke-width="2" d="M 945 308 L 950 308" /><path stroke-width="2" d="M 945 308 L 950 308"></path><text xmlns="http://www.w3.org/2000/svg" x="955" y="314">42</text><path stroke-width="2" d="M 945 271 L 950 271" /><path stroke-width="2" d="M 945 271 L 950 271"></path><text xmlns="http://www.w3.org/2000/svg" x="955" y="277">83</text><path stroke-width="2" d="M 945 235 L 950 235" /><path stroke-width="2" d="M 945 235 L 950 235"></path><text xmlns="http://www.w3.org/2000/svg" x="955" y="241">124</text><path stroke-width="2" d="M 945 198 L 950 198" /><path stroke-width="2" d="M 945 198 L 950 198"></path><text y="204" xmlns="http://www.w3.org/2000/svg" x="955">165</text><path d="M 945 162 L 950 162" stroke-width="2" /><path stroke-width="2" d="M 945 162 L 950 162"></path><text xmlns="http://www.w3.org/2000/svg" x="955" y="168">206</text><path stroke-width="2" d="M 945 125 L 950 125" /><path stroke-width="2" d="M 945 125 L 950 125"></path><text xmlns="http://www.w3.org/2000/svg" x="955" y="131">247</text><path stroke-width="2" d="M 945 89 L 950 89" /><path stroke-width="2" d="M 945 89 L 950 89"></path><text xmlns="http://www.w3.org/2000/svg" x="955" y="95">288</text><path stroke-width="2" d="M 945 52 L 950 52" /><path stroke-width="2" d="M 945 52 L 950 52"></path><text xmlns="http://www.w3.org/2000/svg" x="955" y="58">329</text><path d="M 945 16 L 950 16" stroke-width="2" /><path stroke-width="2" d="M 945 16 L 950 16"></path><text xmlns="http://www.w3.org/2000/svg" x="955" y="22">370</text><text x="987" y="175" transform="rotate(90.00,987,175)" xmlns="http://www.w3.org/2000/svg">Stargazers</text><path stroke-width="2" d="M 57.000000 346.000000 L 945 346" /><path stroke-width="2" d="M 57.000000 346.000000 L 945 346"></path><path stroke-width="2" d="M 58 346 L 58 351" /><path stroke-width="2" d="M 58 346 L 58 351"></path><text xmlns="http://www.w3.org/2000/svg" x="25" y="368">2023-04-02</text><path stroke-width="2" d="M 157 346 L 157 351" /><path stroke-width="2" d="M 157 346 L 157 351"></path><text x="124" y="368" xmlns="http://www.w3.org/2000/svg">2023-05-03</text><path stroke-width="2" d="M 256 346 L 256 351" /><path stroke-width="2" d="M 256 346 L 256 351"></path><text xmlns="http://www.w3.org/2000/svg" x="223" y="368">2023-06-02</text><path stroke-width="2" d="M 354 346 L 354 351" /><path stroke-width="2" d="M 354 346 L 354 351"></path><text xmlns="http://www.w3.org/2000/svg" x="321" y="368">2023-07-03</text><path stroke-width="2" d="M 453 346 L 453 351" /><path stroke-width="2" d="M 453 346 L 453 351"></path><text xmlns="http://www.w3.org/2000/svg" x="420" y="368">2023-08-02</text><path stroke-width="2" d="M 551 346 L 551 351" /><path stroke-width="2" d="M 551 346 L 551 351"></path><text xmlns="http://www.w3.org/2000/svg" x="518" y="368">2023-09-02</text><path d="M 650 346 L 650 351" stroke-width="2" /><path stroke-width="2" d="M 650 346 L 650 351"></path><text xmlns="http://www.w3.org/2000/svg" x="617" y="368">2023-10-03</text><path stroke-width="2" d="M 748 346 L 748 351" /><path stroke-width="2" d="M 748 346 L 748 351"></path><text xmlns="http://www.w3.org/2000/svg" x="715" y="368">2023-11-02</text><path stroke-width="2" d="M 847 346 L 847 351" /><path d="M 847 346 L 847 351" stroke-width="2"></path><text xmlns="http://www.w3.org/2000/svg" x="814" y="368">2023-12-03</text><path stroke-width="2" d="M 945 346 L 945 351" /><path stroke-width="2" d="M 945 346 L 945 351"></path><text xmlns="http://www.w3.org/2000/svg" x="912" y="368">2024-01-03</text><text xmlns="http://www.w3.org/2000/svg" x="487" y="390">Time</text></svg>