<svg height="400px" xmlns="http://www.w3.org/2000/svg" xmlns:xlink="http://www.w3.org/1999/xlink" width="1024px"><style type="text/css">
path { fill: none; stroke: rgb(51,51,51); }
path.series { stroke: #6b63ff; }
rect.background { fill: rgb(255,255,255); stroke: none; }

text {
	stroke-width: 0;
	stroke: none;
	fill: rgba(51,51,51,1.0);
	font-size: 12.8px;
	font-family: 'Roboto Medium', sans-serif;
}
</style><rect x="0" y="0" width="1024px" height="400px" class="background" rx="8" /><rect x="0" y="0" width="1024px" height="400px" class="background" rx="8"></rect><path stroke-width="2" class="series" d="M 58 345 L 61 345 L 78 344 L 79 344 L 79 343 L 79 343 L 79 343 L 79 342 L 79 342 L 79 341 L 79 341 L 79 340 L 79 340 L 79 340 L 79 339 L 79 339 L 79 338 L 80 338 L 80 338 L 81 337 L 81 337 L 81 336 L 83 336 L 83 335 L 83 335 L 83 335 L 84 334 L 85 334 L 87 333 L 87 333 L 88 333 L 89 332 L 95 332 L 95 331 L 95 331 L 95 330 L 95 330 L 95 330 L 98 329 L 100 329 L 101 328 L 103 328 L 107 328 L 109 327 L 117 327 L 119 326 L 123 326 L 127 325 L 129 325 L 145 325 L 146 324 L 146 324 L 148 323 L 149 323 L 149 323 L 149 322 L 149 322 L 149 321 L 149 321 L 149 320 L 149 320 L 149 320 L 149 319 L 149 319 L 149 318 L 150 318 L 150 318 L 150 317 L 150 317 L 150 316 L 150 316 L 150 315 L 150 315 L 150 315 L 150 314 L 150 314 L 150 313 L 150 313 L 150 313 L 150 312 L 150 312 L 150 311 L 150 311 L 150 310 L 150 310 L 150 310 L 150 309 L 150 309 L 150 308 L 150 308 L 150 307 L 150 307 L 150 307 L 150 306 L 150 306 L 150 305 L 150 305 L 150 305 L 150 304 L 150 304 L 151 303 L 151 303 L 151 302 L 151 302 L 151 302 L 152 301 L 152 301 L 152 300 L 152 300 L 152 300 L 152 299 L 152 299 L 153 298 L 153 298 L 153 297 L 153 297 L 153 297 L 153 296 L 153 296 L 153 295 L 153 295 L 153 295 L 153 294 L 153 294 L 154 293 L 154 293 L 154 292 L 154 292 L 158 292 L 158 291 L 159 291 L 160 290 L 160 290 L 162 290 L 165 289 L 166 289 L 168 288 L 169 288 L 171 287 L 171 287 L 172 287 L 174 286 L 174 286 L 175 285 L 176 285 L 177 285 L 178 284 L 178 284 L 178 283 L 179 283 L 180 282 L 181 282 L 181 282 L 182 281 L 182 281 L 183 280 L 183 280 L 185 280 L 187 279 L 189 279 L 190 278 L 191 278 L 192 277 L 192 277 L 192 277 L 194 276 L 201 276 L 201 275 L 202 275 L 209 274 L 209 274 L 209 274 L 209 273 L 209 273 L 210 272 L 212 272 L 213 272 L 214 271 L 222 271 L 223 270 L 225 270 L 228 269 L 229 269 L 229 269 L 230 268 L 236 268 L 242 267 L 249 267 L 250 267 L 250 266 L 250 266 L 250 265 L 252 265 L 261 264 L 266 264 L 266 264 L 270 263 L 270 263 L 271 262 L 281 262 L 281 262 L 282 261 L 283 261 L 284 260 L 287 260 L 288 259 L 290 259 L 291 259 L 294 258 L 300 258 L 300 257 L 301 257 L 301 257 L 301 256 L 302 256 L 305 255 L 311 255 L 324 254 L 329 254 L 332 254 L 332 253 L 333 253 L 335 252 L 335 252 L 335 252 L 335 251 L 335 251 L 335 250 L 335 250 L 335 249 L 335 249 L 335 249 L 335 248 L 335 248 L 335 247 L 336 247 L 336 247 L 338 246 L 339 246 L 339 245 L 339 245 L 339 244 L 340 244 L 340 244 L 340 243 L 341 243 L 341 242 L 341 242 L 341 241 L 342 241 L 342 241 L 343 240 L 343 240 L 343 239 L 343 239 L 343 239 L 344 238 L 345 238 L 345 237 L 345 237 L 346 236 L 346 236 L 346 236 L 347 235 L 349 235 L 349 234 L 351 234 L 353 234 L 353 233 L 354 233 L 354 232 L 354 232 L 354 231 L 355 231 L 356 231 L 357 230 L 359 230 L 359 229 L 360 229 L 362 229 L 363 228 L 363 228 L 366 227 L 367 227 L 367 226 L 368 226 L 368 226 L 373 225 L 374 225 L 374 224 L 378 224 L 380 224 L 384 223 L 385 223 L 385 222 L 387 222 L 387 221 L 387 221 L 390 221 L 392 220 L 394 220 L 394 219 L 396 219 L 397 219 L 397 218 L 397 218 L 397 217 L 398 217 L 398 216 L 398 216 L 400 216 L 400 215 L 400 215 L 401 214 L 405 214 L 411 214 L 411 213 L 411 213 L 415 212 L 417 212 L 418 211 L 418 211 L 419 211 L 421 210 L 421 210 L 421 209 L 421 209 L 421 208 L 421 208 L 421 208 L 422 207 L 422 207 L 422 206 L 425 206 L 425 206 L 425 205 L 425 205 L 426 204 L 426 204 L 426 203 L 426 203 L 426 203 L 426 202 L 426 202 L 426 201 L 426 201 L 431 201 L 433 200 L 433 200 L 435 199 L 446 199 L 447 198 L 451 198 L 453 198 L 460 197 L 463 197 L 465 196 L 465 196 L 465 196 L 466 195 L 466 195 L 466 194 L 466 194 L 466 193 L 467 193 L 468 193 L 477 192 L 480 192 L 483 191 L 490 191 L 494 191 L 498 190 L 501 190 L 506 189 L 506 189 L 516 188 L 526 188 L 526 188 L 533 187 L 534 187 L 540 186 L 541 186 L 544 186 L 544 185 L 544 185 L 544 184 L 548 184 L 549 183 L 552 183 L 556 183 L 557 182 L 558 182 L 558 181 L 562 181 L 566 181 L 566 180 L 570 180 L 575 179 L 576 179 L 576 178 L 578 178 L 579 178 L 580 177 L 583 177 L 586 176 L 589 176 L 591 175 L 591 175 L 597 175 L 598 174 L 601 174 L 606 173 L 606 173 L 611 173 L 612 172 L 612 172 L 614 171 L 614 171 L 617 170 L 617 170 L 619 170 L 622 169 L 623 169 L 624 168 L 624 168 L 632 168 L 633 167 L 633 167 L 633 166 L 634 166 L 635 165 L 635 165 L 635 165 L 636 164 L 638 164 L 638 163 L 640 163 L 640 163 L 641 162 L 642 162 L 642 161 L 643 161 L 643 160 L 644 160 L 644 160 L 645 159 L 645 159 L 645 158 L 645 158 L 646 158 L 648 157 L 648 157 L 648 156 L 649 156 L 650 155 L 651 155 L 652 155 L 653 154 L 653 154 L 655 153 L 656 153 L 656 153 L 657 152 L 657 152 L 660 151 L 660 151 L 660 150 L 660 150 L 660 150 L 661 149 L 661 149 L 661 148 L 662 148 L 663 148 L 666 147 L 668 147 L 669 146 L 669 146 L 672 145 L 674 145 L 674 145 L 676 144 L 679 144 L 682 143 L 685 143 L 685 142 L 686 142 L 686 142 L 686 141 L 687 141 L 687 140 L 687 140 L 688 140 L 688 139 L 688 139 L 689 138 L 690 138 L 692 137 L 692 137 L 693 137 L 693 136 L 696 136 L 696 135 L 696 135 L 697 135 L 698 134 L 701 134 L 704 133 L 708 133 L 708 132 L 708 132 L 709 132 L 711 131 L 713 131 L 714 130 L 714 130 L 714 130 L 715 129 L 716 129 L 720 128 L 721 128 L 721 127 L 721 127 L 723 127 L 723 126 L 723 126 L 724 125 L 724 125 L 727 125 L 731 124 L 731 124 L 735 123 L 736 123 L 737 122 L 740 122 L 742 122 L 745 121 L 747 121 L 748 120 L 750 120 L 750 120 L 750 119 L 751 119 L 751 118 L 751 118 L 752 117 L 752 117 L 752 117 L 753 116 L 753 116 L 753 115 L 755 115 L 756 115 L 756 114 L 762 114 L 762 113 L 768 113 L 770 112 L 770 112 L 771 112 L 772 111 L 775 111 L 776 110 L 776 110 L 776 109 L 777 109 L 777 109 L 777 108 L 778 108 L 778 107 L 779 107 L 779 107 L 779 106 L 779 106 L 779 105 L 780 105 L 780 104 L 780 104 L 782 104 L 782 103 L 783 103 L 784 102 L 785 102 L 785 102 L 785 101 L 786 101 L 787 100 L 790 100 L 790 99 L 790 99 L 790 99 L 790 98 L 792 98 L 792 97 L 792 97 L 793 97 L 795 96 L 798 96 L 802 95 L 803 95 L 805 94 L 808 94 L 813 94 L 813 93 L 816 93 L 821 92 L 821 92 L 821 92 L 826 91 L 828 91 L 829 90 L 829 90 L 830 89 L 839 89 L 840 89 L 841 88 L 841 88 L 842 87 L 842 87 L 843 87 L 844 86 L 844 86 L 845 85 L 845 85 L 846 84 L 846 84 L 846 84 L 847 83 L 847 83 L 847 82 L 847 82 L 847 82 L 848 81 L 849 81 L 851 80 L 852 80 L 852 79 L 852 79 L 853 79 L 854 78 L 855 78 L 855 77 L 856 77 L 856 76 L 857 76 L 857 76 L 859 75 L 859 75 L 861 74 L 861 74 L 862 74 L 863 73 L 863 73 L 863 72 L 864 72 L 864 71 L 865 71 L 865 71 L 865 70 L 867 70 L 867 69 L 868 69 L 869 69 L 869 68 L 869 68 L 869 67 L 869 67 L 870 66 L 870 66 L 870 66 L 872 65 L 872 65 L 872 64 L 873 64 L 873 64 L 873 63 L 873 63 L 873 62 L 874 62 L 874 61 L 875 61 L 875 61 L 875 60 L 875 60 L 878 59 L 879 59 L 881 59 L 882 58 L 882 58 L 882 57 L 883 57 L 884 56 L 885 56 L 886 56 L 889 55 L 892 55 L 892 54 L 894 54 L 894 54 L 894 53 L 896 53 L 896 52 L 896 52 L 896 51 L 896 51 L 896 51 L 896 50 L 896 50 L 897 49 L 897 49 L 897 49 L 897 48 L 897 48 L 897 47 L 898 47 L 898 46 L 898 46 L 899 46 L 899 45 L 900 45 L 900 44 L 902 44 L 903 43 L 903 43 L 903 43 L 905 42 L 905 42 L 906 41 L 909 41 L 910 41 L 910 40 L 910 40 L 910 39 L 910 39 L 913 38 L 915 38 L 916 38 L 918 37 L 918 37 L 918 36 L 919 36 L 919 36 L 925 35 L 928 35 L 931 34 L 933 34 L 934 33 L 935 33 L 936 33 L 937 32 L 937 32 L 937 31 L 938 31 L 938 31 L 939 30 L 939 30 L 941 29 L 943 29 L 943 28 L 943 28 L 943 28 L 943 27 L 943 27 L 943 26 L 943 26 L 944 26 L 944 25 L 944 25 L 944 24 L 944 24 L 944 23 L 944 23 L 944 23 L 944 22 L 945 22 L 945 21 L 945 21 L 945 21 L 945 20 L 945 20 L 945 19" /><path stroke-width="2" class="series" d="M 58 345 L 61 345 L 78 344 L 79 344 L 79 343 L 79 343 L 79 343 L 79 342 L 79 342 L 79 341 L 79 341 L 79 340 L 79 340 L 79 340 L 79 339 L 79 339 L 79 338 L 80 338 L 80 338 L 81 337 L 81 337 L 81 336 L 83 336 L 83 335 L 83 335 L 83 335 L 84 334 L 85 334 L 87 333 L 87 333 L 88 333 L 89 332 L 95 332 L 95 331 L 95 331 L 95 330 L 95 330 L 95 330 L 98 329 L 100 329 L 101 328 L 103 328 L 107 328 L 109 327 L 117 327 L 119 326 L 123 326 L 127 325 L 129 325 L 145 325 L 146 324 L 146 324 L 148 323 L 149 323 L 149 323 L 149 322 L 149 322 L 149 321 L 149 321 L 149 320 L 149 320 L 149 320 L 149 319 L 149 319 L 149 318 L 150 318 L 150 318 L 150 317 L 150 317 L 150 316 L 150 316 L 150 315 L 150 315 L 150 315 L 150 314 L 150 314 L 150 313 L 150 313 L 150 313 L 150 312 L 150 312 L 150 311 L 150 311 L 150 310 L 150 310 L 150 310 L 150 309 L 150 309 L 150 308 L 150 308 L 150 307 L 150 307 L 150 307 L 150 306 L 150 306 L 150 305 L 150 305 L 150 305 L 150 304 L 150 304 L 151 303 L 151 303 L 151 302 L 151 302 L 151 302 L 152 301 L 152 301 L 152 300 L 152 300 L 152 300 L 152 299 L 152 299 L 153 298 L 153 298 L 153 297 L 153 297 L 153 297 L 153 296 L 153 296 L 153 295 L 153 295 L 153 295 L 153 294 L 153 294 L 154 293 L 154 293 L 154 292 L 154 292 L 158 292 L 158 291 L 159 291 L 160 290 L 160 290 L 162 290 L 165 289 L 166 289 L 168 288 L 169 288 L 171 287 L 171 287 L 172 287 L 174 286 L 174 286 L 175 285 L 176 285 L 177 285 L 178 284 L 178 284 L 178 283 L 179 283 L 180 282 L 181 282 L 181 282 L 182 281 L 182 281 L 183 280 L 183 280 L 185 280 L 187 279 L 189 279 L 190 278 L 191 278 L 192 277 L 192 277 L 192 277 L 194 276 L 201 276 L 201 275 L 202 275 L 209 274 L 209 274 L 209 274 L 209 273 L 209 273 L 210 272 L 212 272 L 213 272 L 214 271 L 222 271 L 223 270 L 225 270 L 228 269 L 229 269 L 229 269 L 230 268 L 236 268 L 242 267 L 249 267 L 250 267 L 250 266 L 250 266 L 250 265 L 252 265 L 261 264 L 266 264 L 266 264 L 270 263 L 270 263 L 271 262 L 281 262 L 281 262 L 282 261 L 283 261 L 284 260 L 287 260 L 288 259 L 290 259 L 291 259 L 294 258 L 300 258 L 300 257 L 301 257 L 301 257 L 301 256 L 302 256 L 305 255 L 311 255 L 324 254 L 329 254 L 332 254 L 332 253 L 333 253 L 335 252 L 335 252 L 335 252 L 335 251 L 335 251 L 335 250 L 335 250 L 335 249 L 335 249 L 335 249 L 335 248 L 335 248 L 335 247 L 336 247 L 336 247 L 338 246 L 339 246 L 339 245 L 339 245 L 339 244 L 340 244 L 340 244 L 340 243 L 341 243 L 341 242 L 341 242 L 341 241 L 342 241 L 342 241 L 343 240 L 343 240 L 343 239 L 343 239 L 343 239 L 344 238 L 345 238 L 345 237 L 345 237 L 346 236 L 346 236 L 346 236 L 347 235 L 349 235 L 349 234 L 351 234 L 353 234 L 353 233 L 354 233 L 354 232 L 354 232 L 354 231 L 355 231 L 356 231 L 357 230 L 359 230 L 359 229 L 360 229 L 362 229 L 363 228 L 363 228 L 366 227 L 367 227 L 367 226 L 368 226 L 368 226 L 373 225 L 374 225 L 374 224 L 378 224 L 380 224 L 384 223 L 385 223 L 385 222 L 387 222 L 387 221 L 387 221 L 390 221 L 392 220 L 394 220 L 394 219 L 396 219 L 397 219 L 397 218 L 397 218 L 397 217 L 398 217 L 398 216 L 398 216 L 400 216 L 400 215 L 400 215 L 401 214 L 405 214 L 411 214 L 411 213 L 411 213 L 415 212 L 417 212 L 418 211 L 418 211 L 419 211 L 421 210 L 421 210 L 421 209 L 421 209 L 421 208 L 421 208 L 421 208 L 422 207 L 422 207 L 422 206 L 425 206 L 425 206 L 425 205 L 425 205 L 426 204 L 426 204 L 426 203 L 426 203 L 426 203 L 426 202 L 426 202 L 426 201 L 426 201 L 431 201 L 433 200 L 433 200 L 435 199 L 446 199 L 447 198 L 451 198 L 453 198 L 460 197 L 463 197 L 465 196 L 465 196 L 465 196 L 466 195 L 466 195 L 466 194 L 466 194 L 466 193 L 467 193 L 468 193 L 477 192 L 480 192 L 483 191 L 490 191 L 494 191 L 498 190 L 501 190 L 506 189 L 506 189 L 516 188 L 526 188 L 526 188 L 533 187 L 534 187 L 540 186 L 541 186 L 544 186 L 544 185 L 544 185 L 544 184 L 548 184 L 549 183 L 552 183 L 556 183 L 557 182 L 558 182 L 558 181 L 562 181 L 566 181 L 566 180 L 570 180 L 575 179 L 576 179 L 576 178 L 578 178 L 579 178 L 580 177 L 583 177 L 586 176 L 589 176 L 591 175 L 591 175 L 597 175 L 598 174 L 601 174 L 606 173 L 606 173 L 611 173 L 612 172 L 612 172 L 614 171 L 614 171 L 617 170 L 617 170 L 619 170 L 622 169 L 623 169 L 624 168 L 624 168 L 632 168 L 633 167 L 633 167 L 633 166 L 634 166 L 635 165 L 635 165 L 635 165 L 636 164 L 638 164 L 638 163 L 640 163 L 640 163 L 641 162 L 642 162 L 642 161 L 643 161 L 643 160 L 644 160 L 644 160 L 645 159 L 645 159 L 645 158 L 645 158 L 646 158 L 648 157 L 648 157 L 648 156 L 649 156 L 650 155 L 651 155 L 652 155 L 653 154 L 653 154 L 655 153 L 656 153 L 656 153 L 657 152 L 657 152 L 660 151 L 660 151 L 660 150 L 660 150 L 660 150 L 661 149 L 661 149 L 661 148 L 662 148 L 663 148 L 666 147 L 668 147 L 669 146 L 669 146 L 672 145 L 674 145 L 674 145 L 676 144 L 679 144 L 682 143 L 685 143 L 685 142 L 686 142 L 686 142 L 686 141 L 687 141 L 687 140 L 687 140 L 688 140 L 688 139 L 688 139 L 689 138 L 690 138 L 692 137 L 692 137 L 693 137 L 693 136 L 696 136 L 696 135 L 696 135 L 697 135 L 698 134 L 701 134 L 704 133 L 708 133 L 708 132 L 708 132 L 709 132 L 711 131 L 713 131 L 714 130 L 714 130 L 714 130 L 715 129 L 716 129 L 720 128 L 721 128 L 721 127 L 721 127 L 723 127 L 723 126 L 723 126 L 724 125 L 724 125 L 727 125 L 731 124 L 731 124 L 735 123 L 736 123 L 737 122 L 740 122 L 742 122 L 745 121 L 747 121 L 748 120 L 750 120 L 750 120 L 750 119 L 751 119 L 751 118 L 751 118 L 752 117 L 752 117 L 752 117 L 753 116 L 753 116 L 753 115 L 755 115 L 756 115 L 756 114 L 762 114 L 762 113 L 768 113 L 770 112 L 770 112 L 771 112 L 772 111 L 775 111 L 776 110 L 776 110 L 776 109 L 777 109 L 777 109 L 777 108 L 778 108 L 778 107 L 779 107 L 779 107 L 779 106 L 779 106 L 779 105 L 780 105 L 780 104 L 780 104 L 782 104 L 782 103 L 783 103 L 784 102 L 785 102 L 785 102 L 785 101 L 786 101 L 787 100 L 790 100 L 790 99 L 790 99 L 790 99 L 790 98 L 792 98 L 792 97 L 792 97 L 793 97 L 795 96 L 798 96 L 802 95 L 803 95 L 805 94 L 808 94 L 813 94 L 813 93 L 816 93 L 821 92 L 821 92 L 821 92 L 826 91 L 828 91 L 829 90 L 829 90 L 830 89 L 839 89 L 840 89 L 841 88 L 841 88 L 842 87 L 842 87 L 843 87 L 844 86 L 844 86 L 845 85 L 845 85 L 846 84 L 846 84 L 846 84 L 847 83 L 847 83 L 847 82 L 847 82 L 847 82 L 848 81 L 849 81 L 851 80 L 852 80 L 852 79 L 852 79 L 853 79 L 854 78 L 855 78 L 855 77 L 856 77 L 856 76 L 857 76 L 857 76 L 859 75 L 859 75 L 861 74 L 861 74 L 862 74 L 863 73 L 863 73 L 863 72 L 864 72 L 864 71 L 865 71 L 865 71 L 865 70 L 867 70 L 867 69 L 868 69 L 869 69 L 869 68 L 869 68 L 869 67 L 869 67 L 870 66 L 870 66 L 870 66 L 872 65 L 872 65 L 872 64 L 873 64 L 873 64 L 873 63 L 873 63 L 873 62 L 874 62 L 874 61 L 875 61 L 875 61 L 875 60 L 875 60 L 878 59 L 879 59 L 881 59 L 882 58 L 882 58 L 882 57 L 883 57 L 884 56 L 885 56 L 886 56 L 889 55 L 892 55 L 892 54 L 894 54 L 894 54 L 894 53 L 896 53 L 896 52 L 896 52 L 896 51 L 896 51 L 896 51 L 896 50 L 896 50 L 897 49 L 897 49 L 897 49 L 897 48 L 897 48 L 897 47 L 898 47 L 898 46 L 898 46 L 899 46 L 899 45 L 900 45 L 900 44 L 902 44 L 903 43 L 903 43 L 903 43 L 905 42 L 905 42 L 906 41 L 909 41 L 910 41 L 910 40 L 910 40 L 910 39 L 910 39 L 913 38 L 915 38 L 916 38 L 918 37 L 918 37 L 918 36 L 919 36 L 919 36 L 925 35 L 928 35 L 931 34 L 933 34 L 934 33 L 935 33 L 936 33 L 937 32 L 937 32 L 937 31 L 938 31 L 938 31 L 939 30 L 939 30 L 941 29 L 943 29 L 943 28 L 943 28 L 943 28 L 943 27 L 943 27 L 943 26 L 943 26 L 944 26 L 944 25 L 944 25 L 944 24 L 944 24 L 944 23 L 944 23 L 944 23 L 944 22 L 945 22 L 945 21 L 945 21 L 945 21 L 945 20 L 945 20 L 945 19"></path><path stroke-width="2" d="M 945 346 L 945.000000 15.000000" /><path stroke-width="2" d="M 945 346 L 945.000000 15.000000"></path><path stroke-width="2" d="M 945 346 L 950 346" /><path stroke-width="2" d="M 945 346 L 950 346"></path><text xmlns="http://www.w3.org/2000/svg" x="955" y="352">0</text><path stroke-width="2" d="M 945 309 L 950 309" /><path stroke-width="2" d="M 945 309 L 950 309"></path><text xmlns="http://www.w3.org/2000/svg" x="955" y="315">88</text><path stroke-width="2" d="M 945 272 L 950 272" /><path stroke-width="2" d="M 945 272 L 950 272"></path><text xmlns="http://www.w3.org/2000/svg" x="955" y="278">176</text><path stroke-width="2" d="M 945 235 L 950 235" /><path stroke-width="2" d="M 945 235 L 950 235"></path><text y="241" xmlns="http://www.w3.org/2000/svg" x="955">264</text><path stroke-width="2" d="M 945 198 L 950 198" /><path stroke-width="2" d="M 945 198 L 950 198"></path><text xmlns="http://www.w3.org/2000/svg" x="955" y="204">352</text><path stroke-width="2" d="M 945 162 L 950 162" /><path stroke-width="2" d="M 945 162 L 950 162"></path><text xmlns="http://www.w3.org/2000/svg" x="955" y="168">439</text><path stroke-width="2" d="M 945 125 L 950 125" /><path stroke-width="2" d="M 945 125 L 950 125"></path><text x="955" y="131" xmlns="http://www.w3.org/2000/svg">527</text><path stroke-width="2" d="M 945 89 L 950 89" /><path stroke-width="2" d="M 945 89 L 950 89"></path><text xmlns="http://www.w3.org/2000/svg" x="955" y="95">615</text><path stroke-width="2" d="M 945 52 L 950 52" /><path stroke-width="2" d="M 945 52 L 950 52"></path><text y="58" xmlns="http://www.w3.org/2000/svg" x="955">703</text><path d="M 945 16 L 950 16" stroke-width="2" /><path stroke-width="2" d="M 945 16 L 950 16"></path><text xmlns="http://www.w3.org/2000/svg" x="955" y="22">790</text><text y="175" transform="rotate(90.00,987,175)" xmlns="http://www.w3.org/2000/svg" x="987">Stargazers</text><path stroke-width="2" d="M 57.000000 346.000000 L 945 346" /><path stroke-width="2" d="M 57.000000 346.000000 L 945 346"></path><path stroke-width="2" d="M 58 346 L 58 351" /><path stroke-width="2" d="M 58 346 L 58 351"></path><text xmlns="http://www.w3.org/2000/svg" x="25" y="368">2023-04-02</text><path stroke-width="2" d="M 157 346 L 157 351" /><path stroke-width="2" d="M 157 346 L 157 351"></path><text xmlns="http://www.w3.org/2000/svg" x="124" y="368">2023-06-11</text><path stroke-width="2" d="M 256 346 L 256 351" /><path stroke-width="2" d="M 256 346 L 256 351"></path><text xmlns="http://www.w3.org/2000/svg" x="223" y="368">2023-08-20</text><path stroke-width="2" d="M 354 346 L 354 351" /><path stroke-width="2" d="M 354 346 L 354 351"></path><text xmlns="http://www.w3.org/2000/svg" x="321" y="368">2023-10-29</text><path stroke-width="2" d="M 453 346 L 453 351" /><path stroke-width="2" d="M 453 346 L 453 351"></path><text xmlns="http://www.w3.org/2000/svg" x="420" y="368">2024-01-07</text><path d="M 551 346 L 551 351" stroke-width="2" /><path stroke-width="2" d="M 551 346 L 551 351"></path><text xmlns="http://www.w3.org/2000/svg" x="518" y="368">2024-03-16</text><path stroke-width="2" d="M 650 346 L 650 351" /><path stroke-width="2" d="M 650 346 L 650 351"></path><text xmlns="http://www.w3.org/2000/svg" x="617" y="368">2024-05-25</text><path stroke-width="2" d="M 748 346 L 748 351" /><path stroke-width="2" d="M 748 346 L 748 351"></path><text x="715" y="368" xmlns="http://www.w3.org/2000/svg">2024-08-03</text><path stroke-width="2" d="M 847 346 L 847 351" /><path stroke-width="2" d="M 847 346 L 847 351"></path><text xmlns="http://www.w3.org/2000/svg" x="814" y="368">2024-10-12</text><path stroke-width="2" d="M 945 346 L 945 351" /><path stroke-width="2" d="M 945 346 L 945 351"></path><text xmlns="http://www.w3.org/2000/svg" x="912" y="368">2024-12-21</text><text xmlns="http://www.w3.org/2000/svg" x="487" y="390">Time</text></svg>