<svg xmlns="http://www.w3.org/2000/svg" xmlns:xlink="http://www.w3.org/1999/xlink" width="1024" height="400">\n<path  d="M 0 0
L 1024 0
L 1024 400
L 0 400
L 0 0" style="stroke-width:0;stroke:rgba(255,255,255,1.0);fill:rgba(255,255,255,1.0)"/><path  d="M 38 11
L 965 11
L 965 351
L 38 351
L 38 11" style="stroke-width:0;stroke:rgba(255,255,255,1.0);fill:rgba(255,255,255,1.0)"/><path  d="M 38 351
L 965 351" style="stroke-width:2;stroke:rgba(85,85,85,1.0);fill:none"/><path  d="M 38 351
L 38 356" style="stroke-width:2;stroke:rgba(85,85,85,1.0);fill:none"/><text x="5" y="373" style="stroke-width:0;stroke:none;fill:rgba(51,51,51,1.0);font-size:12.8px;font-family:'Roboto Medium',sans-serif">2023-04-02</text><path  d="M 154 351
L 154 356" style="stroke-width:2;stroke:rgba(85,85,85,1.0);fill:none"/><text x="121" y="373" style="stroke-width:0;stroke:none;fill:rgba(51,51,51,1.0);font-size:12.8px;font-family:'Roboto Medium',sans-serif">2023-05-01</text><path  d="M 270 351
L 270 356" style="stroke-width:2;stroke:rgba(85,85,85,1.0);fill:none"/><text x="237" y="373" style="stroke-width:0;stroke:none;fill:rgba(51,51,51,1.0);font-size:12.8px;font-family:'Roboto Medium',sans-serif">2023-05-30</text><path  d="M 386 351
L 386 356" style="stroke-width:2;stroke:rgba(85,85,85,1.0);fill:none"/><text x="353" y="373" style="stroke-width:0;stroke:none;fill:rgba(51,51,51,1.0);font-size:12.8px;font-family:'Roboto Medium',sans-serif">2023-06-28</text><path  d="M 502 351
L 502 356" style="stroke-width:2;stroke:rgba(85,85,85,1.0);fill:none"/><text x="469" y="373" style="stroke-width:0;stroke:none;fill:rgba(51,51,51,1.0);font-size:12.8px;font-family:'Roboto Medium',sans-serif">2023-07-27</text><path  d="M 618 351
L 618 356" style="stroke-width:2;stroke:rgba(85,85,85,1.0);fill:none"/><text x="585" y="373" style="stroke-width:0;stroke:none;fill:rgba(51,51,51,1.0);font-size:12.8px;font-family:'Roboto Medium',sans-serif">2023-08-26</text><path  d="M 734 351
L 734 356" style="stroke-width:2;stroke:rgba(85,85,85,1.0);fill:none"/><text x="701" y="373" style="stroke-width:0;stroke:none;fill:rgba(51,51,51,1.0);font-size:12.8px;font-family:'Roboto Medium',sans-serif">2023-09-24</text><path  d="M 850 351
L 850 356" style="stroke-width:2;stroke:rgba(85,85,85,1.0);fill:none"/><text x="817" y="373" style="stroke-width:0;stroke:none;fill:rgba(51,51,51,1.0);font-size:12.8px;font-family:'Roboto Medium',sans-serif">2023-10-23</text><path  d="M 965 351
L 965 356" style="stroke-width:2;stroke:rgba(85,85,85,1.0);fill:none"/><text x="932" y="373" style="stroke-width:0;stroke:none;fill:rgba(51,51,51,1.0);font-size:12.8px;font-family:'Roboto Medium',sans-serif">2023-11-21</text><text x="487" y="395" style="stroke-width:0;stroke:none;fill:rgba(51,51,51,1.0);font-size:12.8px;font-family:'Roboto Medium',sans-serif">Time</text><path  d="M 967 351
L 967 11" style="stroke-width:2;stroke:rgba(85,85,85,1.0);fill:none"/><path  d="M 967 351
L 972 351" style="stroke-width:2;stroke:rgba(85,85,85,1.0);fill:none"/><text x="977" y="357" style="stroke-width:0;stroke:none;fill:rgba(51,51,51,1.0);font-size:12.8px;font-family:'Roboto Medium',sans-serif">0</text><path  d="M 967 308
L 972 308" style="stroke-width:2;stroke:rgba(85,85,85,1.0);fill:none"/><text x="977" y="314" style="stroke-width:0;stroke:none;fill:rgba(51,51,51,1.0);font-size:12.8px;font-family:'Roboto Medium',sans-serif">39</text><path  d="M 967 265
L 972 265" style="stroke-width:2;stroke:rgba(85,85,85,1.0);fill:none"/><text x="977" y="271" style="stroke-width:0;stroke:none;fill:rgba(51,51,51,1.0);font-size:12.8px;font-family:'Roboto Medium',sans-serif">78</text><path  d="M 967 222
L 972 222" style="stroke-width:2;stroke:rgba(85,85,85,1.0);fill:none"/><text x="977" y="228" style="stroke-width:0;stroke:none;fill:rgba(51,51,51,1.0);font-size:12.8px;font-family:'Roboto Medium',sans-serif">117</text><path  d="M 967 181
L 972 181" style="stroke-width:2;stroke:rgba(85,85,85,1.0);fill:none"/><text x="977" y="187" style="stroke-width:0;stroke:none;fill:rgba(51,51,51,1.0);font-size:12.8px;font-family:'Roboto Medium',sans-serif">155</text><path  d="M 967 138
L 972 138" style="stroke-width:2;stroke:rgba(85,85,85,1.0);fill:none"/><text x="977" y="144" style="stroke-width:0;stroke:none;fill:rgba(51,51,51,1.0);font-size:12.8px;font-family:'Roboto Medium',sans-serif">194</text><path  d="M 967 95
L 972 95" style="stroke-width:2;stroke:rgba(85,85,85,1.0);fill:none"/><text x="977" y="101" style="stroke-width:0;stroke:none;fill:rgba(51,51,51,1.0);font-size:12.8px;font-family:'Roboto Medium',sans-serif">233</text><path  d="M 967 52
L 972 52" style="stroke-width:2;stroke:rgba(85,85,85,1.0);fill:none"/><text x="977" y="58" style="stroke-width:0;stroke:none;fill:rgba(51,51,51,1.0);font-size:12.8px;font-family:'Roboto Medium',sans-serif">272</text><path  d="M 967 11
L 972 11" style="stroke-width:2;stroke:rgba(85,85,85,1.0);fill:none"/><text x="977" y="17" style="stroke-width:0;stroke:none;fill:rgba(51,51,51,1.0);font-size:12.8px;font-family:'Roboto Medium',sans-serif">310</text><text x="1009" y="150" style="stroke-width:0;stroke:none;fill:rgba(51,51,51,1.0);font-size:12.8px;font-family:'Roboto Medium',sans-serif" transform="rotate(90.00,1009,150)">Stargazers</text><path  d="M 38 351
L 46 349
L 94 348
L 95 347
L 95 346
L 95 345
L 95 344
L 95 343
L 95 342
L 95 341
L 96 340
L 96 338
L 97 337
L 97 336
L 97 335
L 97 334
L 97 333
L 97 332
L 98 331
L 98 330
L 101 329
L 102 327
L 103 326
L 106 325
L 109 324
L 109 323
L 109 322
L 110 321
L 113 320
L 119 319
L 119 318
L 123 317
L 126 315
L 141 314
L 141 313
L 141 312
L 142 311
L 142 310
L 142 309
L 142 308
L 151 307
L 155 306
L 157 304
L 164 303
L 176 302
L 181 301
L 203 300
L 209 299
L 221 298
L 233 297
L 238 296
L 283 295
L 286 293
L 286 292
L 292 291
L 293 290
L 293 289
L 293 288
L 293 287
L 293 286
L 293 285
L 293 284
L 293 283
L 294 281
L 294 280
L 294 279
L 295 278
L 296 277
L 296 276
L 296 275
L 296 274
L 296 273
L 296 272
L 296 270
L 296 269
L 296 268
L 296 267
L 296 266
L 296 265
L 296 264
L 296 263
L 296 262
L 296 261
L 296 259
L 296 258
L 296 257
L 296 256
L 296 255
L 296 254
L 296 253
L 297 252
L 297 251
L 297 250
L 297 249
L 297 247
L 297 246
L 297 245
L 297 244
L 297 243
L 297 242
L 298 241
L 298 240
L 298 239
L 300 238
L 300 236
L 300 235
L 301 234
L 301 233
L 304 232
L 304 231
L 304 230
L 304 229
L 304 228
L 304 227
L 304 225
L 304 224
L 304 223
L 304 222
L 304 221
L 304 220
L 304 219
L 304 218
L 304 217
L 304 216
L 305 215
L 306 213
L 308 212
L 309 211
L 309 210
L 309 209
L 320 208
L 321 207
L 321 206
L 325 205
L 325 204
L 332 202
L 339 201
L 341 200
L 348 199
L 350 198
L 355 197
L 357 196
L 358 195
L 365 194
L 366 193
L 368 191
L 371 190
L 373 189
L 376 188
L 376 187
L 377 186
L 378 185
L 382 184
L 385 183
L 385 182
L 387 181
L 388 179
L 389 178
L 391 177
L 397 176
L 400 175
L 407 174
L 409 173
L 412 172
L 415 171
L 415 170
L 416 168
L 421 167
L 440 166
L 441 165
L 444 164
L 462 163
L 463 162
L 463 161
L 463 160
L 464 159
L 467 157
L 472 156
L 476 155
L 476 154
L 499 153
L 503 152
L 508 151
L 515 150
L 520 149
L 520 148
L 523 147
L 539 145
L 556 144
L 576 143
L 578 142
L 578 141
L 579 140
L 580 139
L 584 138
L 611 137
L 623 136
L 624 134
L 634 133
L 636 132
L 638 131
L 667 130
L 667 129
L 670 128
L 671 127
L 674 126
L 683 125
L 686 123
L 692 122
L 696 121
L 702 120
L 719 119
L 720 118
L 723 117
L 723 116
L 724 115
L 725 114
L 734 113
L 734 111
L 751 110
L 775 109
L 787 108
L 801 107
L 802 106
L 809 105
L 810 104
L 814 103
L 818 102
L 818 100
L 818 99
L 818 98
L 818 97
L 818 96
L 818 95
L 819 94
L 819 93
L 819 92
L 819 91
L 820 89
L 820 88
L 821 87
L 822 86
L 824 85
L 828 84
L 829 83
L 829 82
L 830 81
L 830 80
L 834 79
L 834 77
L 834 76
L 834 75
L 834 74
L 835 73
L 835 72
L 838 71
L 838 70
L 840 69
L 841 68
L 842 66
L 842 65
L 842 64
L 843 63
L 845 62
L 846 61
L 846 60
L 846 59
L 849 58
L 850 57
L 851 55
L 853 54
L 857 53
L 859 52
L 863 51
L 870 50
L 871 49
L 873 48
L 873 47
L 873 46
L 874 45
L 874 43
L 879 42
L 881 41
L 886 40
L 886 39
L 889 38
L 894 37
L 899 36
L 899 35
L 907 34
L 908 32
L 910 31
L 912 30
L 912 29
L 926 28
L 929 27
L 930 26
L 941 25
L 946 24
L 957 23
L 960 21
L 961 20
L 964 19
L 965 18
L 965 17" style="stroke-width:2;stroke:rgba(129,199,239,1.0);fill:none"/></svg>