<svg xmlns="http://www.w3.org/2000/svg" xmlns:xlink="http://www.w3.org/1999/xlink" width="1024px" height="400px"><style type="text/css">
path { fill: none; stroke: rgb(51,51,51); }
path.series { stroke: #6b63ff; }
rect.background { fill: rgb(255,255,255); stroke: none; }

text {
	stroke-width: 0;
	stroke: none;
	fill: rgba(51,51,51,1.0);
	font-size: 12.8px;
	font-family: 'Roboto Medium', sans-serif;
}
</style><rect height="400px" class="background" rx="8" x="0" y="0" width="1024px" /><rect height="400px" class="background" rx="8" x="0" y="0" width="1024px"></rect><path stroke-width="2" class="series" d="M 58 345 L 64 344 L 101 343 L 102 342 L 102 341 L 102 340 L 102 339 L 102 338 L 102 337 L 102 337 L 103 336 L 103 335 L 103 334 L 103 333 L 104 332 L 104 331 L 104 330 L 104 329 L 105 329 L 105 328 L 107 327 L 108 326 L 108 325 L 111 324 L 113 323 L 113 322 L 113 321 L 114 321 L 116 320 L 120 319 L 121 318 L 123 317 L 126 316 L 138 315 L 138 314 L 138 313 L 138 313 L 138 312 L 138 311 L 139 310 L 145 309 L 148 308 L 150 307 L 156 306 L 165 305 L 169 304 L 185 304 L 191 303 L 199 302 L 209 301 L 213 300 L 248 299 L 249 298 L 250 297 L 254 296 L 255 296 L 255 295 L 255 294 L 255 293 L 255 292 L 255 291 L 255 290 L 255 289 L 256 288 L 256 288 L 256 287 L 256 286 L 257 285 L 257 284 L 257 283 L 257 282 L 257 281 L 257 280 L 257 280 L 257 279 L 257 278 L 257 277 L 257 276 L 257 275 L 257 274 L 257 273 L 257 272 L 257 271 L 257 271 L 258 270 L 258 269 L 258 268 L 258 267 L 258 266 L 258 265 L 258 264 L 258 263 L 258 263 L 258 262 L 258 261 L 258 260 L 258 259 L 258 258 L 258 257 L 258 256 L 259 255 L 259 255 L 259 254 L 260 253 L 260 252 L 260 251 L 261 250 L 261 249 L 263 248 L 263 247 L 263 247 L 263 246 L 263 245 L 263 244 L 263 243 L 263 242 L 263 241 L 263 240 L 263 239 L 263 238 L 263 238 L 264 237 L 264 236 L 264 235 L 264 234 L 265 233 L 267 232 L 267 231 L 267 230 L 267 230 L 276 229 L 276 228 L 276 227 L 279 226 L 280 225 L 285 224 L 291 223 L 292 222 L 297 222 L 299 221 L 303 220 L 304 219 L 305 218 L 311 217 L 311 216 L 313 215 L 316 214 L 317 214 L 319 213 L 319 212 L 320 211 L 321 210 L 323 209 L 326 208 L 326 207 L 328 206 L 329 205 L 329 205 L 331 204 L 335 203 L 338 202 L 343 201 L 345 200 L 347 199 L 349 198 L 349 197 L 350 197 L 354 196 L 369 195 L 369 194 L 372 193 L 386 192 L 386 191 L 386 190 L 386 189 L 387 189 L 389 188 L 394 187 L 396 186 L 397 185 L 414 184 L 417 183 L 421 182 L 427 181 L 430 181 L 430 180 L 433 179 L 445 178 L 458 177 L 474 176 L 475 175 L 475 174 L 476 173 L 477 172 L 480 172 L 501 171 L 510 170 L 511 169 L 518 168 L 520 167 L 521 166 L 544 165 L 544 164 L 546 164 L 547 163 L 550 162 L 556 161 L 559 160 L 563 159 L 566 158 L 571 157 L 584 156 L 585 156 L 587 155 L 587 154 L 588 153 L 589 152 L 596 151 L 596 150 L 609 149 L 627 148 L 637 148 L 648 147 L 648 146 L 654 145 L 654 144 L 658 143 L 661 142 L 661 141 L 661 140 L 661 139 L 661 139 L 661 138 L 661 137 L 661 136 L 661 135 L 661 134 L 662 133 L 662 132 L 662 131 L 663 131 L 664 130 L 665 129 L 668 128 L 669 127 L 669 126 L 670 125 L 670 124 L 673 123 L 673 123 L 673 122 L 673 121 L 673 120 L 674 119 L 674 118 L 676 117 L 676 116 L 677 115 L 678 115 L 679 114 L 679 113 L 679 112 L 680 111 L 682 110 L 682 109 L 682 108 L 683 107 L 685 106 L 685 106 L 686 105 L 688 104 L 691 103 L 692 102 L 696 101 L 701 100 L 701 99 L 703 98 L 703 98 L 703 97 L 703 96 L 704 95 L 708 94 L 709 93 L 713 92 L 713 91 L 715 90 L 719 90 L 723 89 L 723 88 L 729 87 L 730 86 L 731 85 L 733 84 L 734 83 L 744 82 L 746 82 L 747 81 L 755 80 L 760 79 L 768 78 L 770 77 L 771 76 L 773 75 L 774 74 L 774 73 L 781 73 L 786 72 L 790 71 L 790 70 L 793 69 L 796 68 L 797 67 L 797 66 L 797 65 L 798 65 L 799 64 L 799 63 L 802 62 L 802 61 L 802 60 L 804 59 L 814 58 L 827 57 L 827 57 L 827 56 L 835 55 L 839 54 L 841 53 L 842 52 L 845 51 L 848 50 L 848 49 L 848 49 L 848 48 L 848 47 L 849 46 L 849 45 L 850 44 L 850 43 L 852 42 L 858 41 L 858 40 L 858 40 L 858 39 L 859 38 L 859 37 L 860 36 L 860 35 L 860 34 L 860 33 L 860 32 L 860 32 L 860 31 L 864 30 L 870 29 L 876 28 L 876 27 L 878 26 L 890 25 L 903 24 L 906 24 L 913 23 L 919 22 L 934 21 L 940 20 L 945 19 L 945 18 L 945 17" /><path stroke-width="2" class="series" d="M 58 345 L 64 344 L 101 343 L 102 342 L 102 341 L 102 340 L 102 339 L 102 338 L 102 337 L 102 337 L 103 336 L 103 335 L 103 334 L 103 333 L 104 332 L 104 331 L 104 330 L 104 329 L 105 329 L 105 328 L 107 327 L 108 326 L 108 325 L 111 324 L 113 323 L 113 322 L 113 321 L 114 321 L 116 320 L 120 319 L 121 318 L 123 317 L 126 316 L 138 315 L 138 314 L 138 313 L 138 313 L 138 312 L 138 311 L 139 310 L 145 309 L 148 308 L 150 307 L 156 306 L 165 305 L 169 304 L 185 304 L 191 303 L 199 302 L 209 301 L 213 300 L 248 299 L 249 298 L 250 297 L 254 296 L 255 296 L 255 295 L 255 294 L 255 293 L 255 292 L 255 291 L 255 290 L 255 289 L 256 288 L 256 288 L 256 287 L 256 286 L 257 285 L 257 284 L 257 283 L 257 282 L 257 281 L 257 280 L 257 280 L 257 279 L 257 278 L 257 277 L 257 276 L 257 275 L 257 274 L 257 273 L 257 272 L 257 271 L 257 271 L 258 270 L 258 269 L 258 268 L 258 267 L 258 266 L 258 265 L 258 264 L 258 263 L 258 263 L 258 262 L 258 261 L 258 260 L 258 259 L 258 258 L 258 257 L 258 256 L 259 255 L 259 255 L 259 254 L 260 253 L 260 252 L 260 251 L 261 250 L 261 249 L 263 248 L 263 247 L 263 247 L 263 246 L 263 245 L 263 244 L 263 243 L 263 242 L 263 241 L 263 240 L 263 239 L 263 238 L 263 238 L 264 237 L 264 236 L 264 235 L 264 234 L 265 233 L 267 232 L 267 231 L 267 230 L 267 230 L 276 229 L 276 228 L 276 227 L 279 226 L 280 225 L 285 224 L 291 223 L 292 222 L 297 222 L 299 221 L 303 220 L 304 219 L 305 218 L 311 217 L 311 216 L 313 215 L 316 214 L 317 214 L 319 213 L 319 212 L 320 211 L 321 210 L 323 209 L 326 208 L 326 207 L 328 206 L 329 205 L 329 205 L 331 204 L 335 203 L 338 202 L 343 201 L 345 200 L 347 199 L 349 198 L 349 197 L 350 197 L 354 196 L 369 195 L 369 194 L 372 193 L 386 192 L 386 191 L 386 190 L 386 189 L 387 189 L 389 188 L 394 187 L 396 186 L 397 185 L 414 184 L 417 183 L 421 182 L 427 181 L 430 181 L 430 180 L 433 179 L 445 178 L 458 177 L 474 176 L 475 175 L 475 174 L 476 173 L 477 172 L 480 172 L 501 171 L 510 170 L 511 169 L 518 168 L 520 167 L 521 166 L 544 165 L 544 164 L 546 164 L 547 163 L 550 162 L 556 161 L 559 160 L 563 159 L 566 158 L 571 157 L 584 156 L 585 156 L 587 155 L 587 154 L 588 153 L 589 152 L 596 151 L 596 150 L 609 149 L 627 148 L 637 148 L 648 147 L 648 146 L 654 145 L 654 144 L 658 143 L 661 142 L 661 141 L 661 140 L 661 139 L 661 139 L 661 138 L 661 137 L 661 136 L 661 135 L 661 134 L 662 133 L 662 132 L 662 131 L 663 131 L 664 130 L 665 129 L 668 128 L 669 127 L 669 126 L 670 125 L 670 124 L 673 123 L 673 123 L 673 122 L 673 121 L 673 120 L 674 119 L 674 118 L 676 117 L 676 116 L 677 115 L 678 115 L 679 114 L 679 113 L 679 112 L 680 111 L 682 110 L 682 109 L 682 108 L 683 107 L 685 106 L 685 106 L 686 105 L 688 104 L 691 103 L 692 102 L 696 101 L 701 100 L 701 99 L 703 98 L 703 98 L 703 97 L 703 96 L 704 95 L 708 94 L 709 93 L 713 92 L 713 91 L 715 90 L 719 90 L 723 89 L 723 88 L 729 87 L 730 86 L 731 85 L 733 84 L 734 83 L 744 82 L 746 82 L 747 81 L 755 80 L 760 79 L 768 78 L 770 77 L 771 76 L 773 75 L 774 74 L 774 73 L 781 73 L 786 72 L 790 71 L 790 70 L 793 69 L 796 68 L 797 67 L 797 66 L 797 65 L 798 65 L 799 64 L 799 63 L 802 62 L 802 61 L 802 60 L 804 59 L 814 58 L 827 57 L 827 57 L 827 56 L 835 55 L 839 54 L 841 53 L 842 52 L 845 51 L 848 50 L 848 49 L 848 49 L 848 48 L 848 47 L 849 46 L 849 45 L 850 44 L 850 43 L 852 42 L 858 41 L 858 40 L 858 40 L 858 39 L 859 38 L 859 37 L 860 36 L 860 35 L 860 34 L 860 33 L 860 32 L 860 32 L 860 31 L 864 30 L 870 29 L 876 28 L 876 27 L 878 26 L 890 25 L 903 24 L 906 24 L 913 23 L 919 22 L 934 21 L 940 20 L 945 19 L 945 18 L 945 17"></path><path stroke-width="2" d="M 945 346 L 945.000000 15.000000" /><path d="M 945 346 L 945.000000 15.000000" stroke-width="2"></path><path stroke-width="2" d="M 945 346 L 950 346" /><path stroke-width="2" d="M 945 346 L 950 346"></path><text xmlns="http://www.w3.org/2000/svg" x="955" y="352">0</text><path d="M 945 308 L 950 308" stroke-width="2" /><path stroke-width="2" d="M 945 308 L 950 308"></path><text xmlns="http://www.w3.org/2000/svg" x="955" y="314">42</text><path stroke-width="2" d="M 945 271 L 950 271" /><path stroke-width="2" d="M 945 271 L 950 271"></path><text xmlns="http://www.w3.org/2000/svg" x="955" y="277">83</text><path stroke-width="2" d="M 945 235 L 950 235" /><path stroke-width="2" d="M 945 235 L 950 235"></path><text xmlns="http://www.w3.org/2000/svg" x="955" y="241">124</text><path stroke-width="2" d="M 945 198 L 950 198" /><path stroke-width="2" d="M 945 198 L 950 198"></path><text xmlns="http://www.w3.org/2000/svg" x="955" y="204">165</text><path d="M 945 162 L 950 162" stroke-width="2" /><path stroke-width="2" d="M 945 162 L 950 162"></path><text xmlns="http://www.w3.org/2000/svg" x="955" y="168">206</text><path stroke-width="2" d="M 945 125 L 950 125" /><path stroke-width="2" d="M 945 125 L 950 125"></path><text xmlns="http://www.w3.org/2000/svg" x="955" y="131">247</text><path stroke-width="2" d="M 945 89 L 950 89" /><path stroke-width="2" d="M 945 89 L 950 89"></path><text xmlns="http://www.w3.org/2000/svg" x="955" y="95">288</text><path stroke-width="2" d="M 945 52 L 950 52" /><path stroke-width="2" d="M 945 52 L 950 52"></path><text xmlns="http://www.w3.org/2000/svg" x="955" y="58">329</text><path stroke-width="2" d="M 945 16 L 950 16" /><path stroke-width="2" d="M 945 16 L 950 16"></path><text xmlns="http://www.w3.org/2000/svg" x="955" y="22">370</text><text y="175" transform="rotate(90.00,987,175)" xmlns="http://www.w3.org/2000/svg" x="987">Stargazers</text><path stroke-width="2" d="M 57.000000 346.000000 L 945 346" /><path stroke-width="2" d="M 57.000000 346.000000 L 945 346"></path><path stroke-width="2" d="M 58 346 L 58 351" /><path stroke-width="2" d="M 58 346 L 58 351"></path><text xmlns="http://www.w3.org/2000/svg" x="25" y="368">2023-04-02</text><path stroke-width="2" d="M 157 346 L 157 351" /><path stroke-width="2" d="M 157 346 L 157 351"></path><text xmlns="http://www.w3.org/2000/svg" x="124" y="368">2023-05-04</text><path stroke-width="2" d="M 256 346 L 256 351" /><path stroke-width="2" d="M 256 346 L 256 351"></path><text xmlns="http://www.w3.org/2000/svg" x="223" y="368">2023-06-05</text><path stroke-width="2" d="M 354 346 L 354 351" /><path stroke-width="2" d="M 354 346 L 354 351"></path><text xmlns="http://www.w3.org/2000/svg" x="321" y="368">2023-07-07</text><path stroke-width="2" d="M 453 346 L 453 351" /><path stroke-width="2" d="M 453 346 L 453 351"></path><text xmlns="http://www.w3.org/2000/svg" x="420" y="368">2023-08-08</text><path stroke-width="2" d="M 551 346 L 551 351" /><path stroke-width="2" d="M 551 346 L 551 351"></path><text xmlns="http://www.w3.org/2000/svg" x="518" y="368">2023-09-09</text><path stroke-width="2" d="M 650 346 L 650 351" /><path stroke-width="2" d="M 650 346 L 650 351"></path><text xmlns="http://www.w3.org/2000/svg" x="617" y="368">2023-10-11</text><path stroke-width="2" d="M 748 346 L 748 351" /><path stroke-width="2" d="M 748 346 L 748 351"></path><text xmlns="http://www.w3.org/2000/svg" x="715" y="368">2023-11-12</text><path d="M 847 346 L 847 351" stroke-width="2" /><path stroke-width="2" d="M 847 346 L 847 351"></path><text xmlns="http://www.w3.org/2000/svg" x="814" y="368">2023-12-14</text><path stroke-width="2" d="M 945 346 L 945 351" /><path stroke-width="2" d="M 945 346 L 945 351"></path><text xmlns="http://www.w3.org/2000/svg" x="912" y="368">2024-01-16</text><text y="390" xmlns="http://www.w3.org/2000/svg" x="487">Time</text></svg>