<svg height="400px" xmlns="http://www.w3.org/2000/svg" xmlns:xlink="http://www.w3.org/1999/xlink" width="1024px"><style type="text/css">
path { fill: none; stroke: rgb(51,51,51); }
path.series { stroke: #6b63ff; }
rect.background { fill: rgb(255,255,255); stroke: none; }

text {
	stroke-width: 0;
	stroke: none;
	fill: rgba(51,51,51,1.0);
	font-size: 12.8px;
	font-family: 'Roboto Medium', sans-serif;
}
</style><rect x="0" y="0" width="1024px" height="400px" class="background" rx="8" /><rect rx="8" x="0" y="0" width="1024px" height="400px" class="background"></rect><path d="M 58 345 L 61 345 L 74 344 L 75 344 L 75 344 L 75 343 L 75 343 L 75 343 L 75 342 L 75 342 L 75 342 L 75 341 L 75 341 L 75 341 L 75 340 L 75 340 L 75 340 L 75 339 L 75 339 L 76 339 L 77 338 L 77 338 L 78 338 L 78 337 L 78 337 L 78 337 L 79 336 L 80 336 L 81 336 L 81 335 L 82 335 L 83 335 L 88 334 L 88 334 L 88 334 L 88 333 L 88 333 L 90 333 L 91 332 L 92 332 L 94 332 L 97 331 L 99 331 L 105 331 L 107 330 L 110 330 L 113 330 L 115 329 L 128 329 L 128 329 L 128 328 L 130 328 L 130 328 L 130 327 L 131 327 L 131 327 L 131 326 L 131 326 L 131 326 L 131 325 L 131 325 L 131 325 L 131 324 L 131 324 L 131 324 L 131 323 L 131 323 L 131 323 L 131 322 L 131 322 L 131 322 L 131 321 L 131 321 L 131 321 L 131 320 L 131 320 L 131 320 L 131 319 L 131 319 L 131 319 L 131 318 L 131 318 L 131 318 L 131 317 L 131 317 L 131 317 L 131 316 L 131 316 L 131 316 L 131 315 L 131 315 L 131 315 L 131 314 L 131 314 L 132 314 L 132 313 L 132 313 L 132 313 L 132 312 L 132 312 L 132 311 L 132 311 L 132 311 L 133 310 L 133 310 L 133 310 L 133 309 L 133 309 L 133 309 L 133 308 L 133 308 L 133 308 L 133 307 L 133 307 L 133 307 L 133 306 L 133 306 L 133 306 L 134 305 L 134 305 L 134 305 L 134 304 L 134 304 L 135 304 L 135 303 L 135 303 L 135 303 L 138 302 L 138 302 L 138 302 L 139 301 L 139 301 L 141 301 L 144 300 L 144 300 L 146 300 L 147 299 L 148 299 L 148 299 L 149 298 L 151 298 L 151 298 L 152 297 L 153 297 L 153 297 L 154 296 L 154 296 L 154 296 L 154 295 L 155 295 L 156 295 L 156 294 L 157 294 L 157 294 L 157 293 L 158 293 L 160 293 L 161 292 L 163 292 L 163 292 L 164 291 L 165 291 L 165 291 L 165 290 L 166 290 L 172 290 L 172 289 L 173 289 L 178 289 L 178 288 L 178 288 L 178 288 L 179 287 L 179 287 L 181 287 L 182 286 L 182 286 L 189 286 L 190 285 L 191 285 L 193 285 L 195 284 L 195 284 L 195 284 L 200 283 L 205 283 L 210 283 L 211 282 L 211 282 L 211 282 L 211 281 L 213 281 L 220 281 L 224 280 L 224 280 L 227 280 L 227 279 L 228 279 L 236 278 L 236 278 L 237 278 L 237 277 L 238 277 L 240 277 L 241 276 L 243 276 L 244 276 L 246 275 L 251 275 L 251 275 L 252 274 L 252 274 L 252 274 L 253 273 L 255 273 L 260 273 L 270 272 L 274 272 L 276 272 L 276 271 L 278 271 L 279 271 L 279 270 L 279 270 L 279 270 L 279 269 L 279 269 L 279 269 L 279 268 L 279 268 L 279 268 L 279 267 L 279 267 L 279 267 L 280 266 L 280 266 L 282 266 L 282 265 L 282 265 L 282 265 L 283 264 L 283 264 L 283 264 L 283 263 L 283 263 L 284 263 L 284 262 L 284 262 L 285 262 L 285 261 L 285 261 L 285 261 L 286 260 L 286 260 L 286 260 L 287 259 L 287 259 L 287 259 L 288 258 L 288 258 L 288 258 L 289 257 L 290 257 L 290 257 L 292 256 L 294 256 L 294 256 L 294 255 L 294 255 L 294 255 L 294 254 L 295 254 L 296 254 L 296 253 L 298 253 L 298 253 L 299 252 L 300 252 L 302 252 L 302 251 L 304 251 L 304 251 L 305 250 L 305 250 L 305 250 L 309 249 L 310 249 L 310 249 L 313 248 L 315 248 L 318 248 L 319 247 L 319 247 L 320 247 L 320 246 L 320 246 L 323 245 L 325 245 L 326 245 L 326 244 L 327 244 L 328 244 L 328 243 L 328 243 L 329 243 L 329 242 L 329 242 L 329 242 L 330 241 L 330 241 L 331 241 L 331 240 L 335 240 L 340 240 L 340 239 L 340 239 L 343 239 L 344 238 L 345 238 L 345 238 L 346 237 L 347 237 L 347 237 L 347 236 L 347 236 L 347 236 L 348 235 L 348 235 L 348 235 L 348 234 L 349 234 L 351 234 L 351 233 L 351 233 L 351 233 L 351 232 L 351 232 L 352 232 L 352 231 L 352 231 L 352 231 L 352 230 L 352 230 L 352 230 L 355 229 L 357 229 L 358 229 L 358 228 L 367 228 L 368 228 L 371 227 L 373 227 L 381 227 L 383 226 L 383 226 L 383 226 L 383 225 L 383 225 L 383 225 L 383 224 L 385 224 L 385 224 L 392 223 L 394 223 L 397 223 L 402 222 L 406 222 L 409 222 L 411 221 L 415 221 L 415 221 L 423 220 L 432 220 L 432 220 L 437 219 L 438 219 L 442 219 L 443 218 L 445 218 L 445 218 L 446 217 L 446 217 L 449 217 L 450 216 L 452 216 L 455 216 L 456 215 L 457 215 L 457 215 L 460 214 L 463 214 L 463 214 L 467 213 L 470 213 L 471 212 L 471 212 L 472 212 L 473 211 L 474 211 L 477 211 L 479 210 L 481 210 L 483 210 L 483 209 L 488 209 L 489 209 L 491 208 L 495 208 L 495 208 L 499 207 L 500 207 L 500 207 L 501 206 L 502 206 L 504 206 L 504 205 L 506 205 L 508 205 L 509 204 L 509 204 L 509 204 L 516 203 L 516 203 L 517 203 L 517 202 L 517 202 L 518 202 L 518 201 L 518 201 L 519 201 L 521 200 L 521 200 L 522 200 L 523 199 L 523 199 L 524 199 L 524 198 L 524 198 L 525 198 L 525 197 L 525 197 L 526 197 L 526 196 L 526 196 L 526 196 L 527 195 L 528 195 L 529 195 L 529 194 L 530 194 L 530 194 L 531 193 L 532 193 L 532 193 L 533 192 L 534 192 L 535 192 L 535 191 L 536 191 L 536 191 L 538 190 L 538 190 L 538 190 L 538 189 L 538 189 L 539 189 L 539 188 L 539 188 L 540 188 L 540 187 L 543 187 L 544 187 L 545 186 L 546 186 L 548 186 L 549 185 L 549 185 L 551 185 L 554 184 L 556 184 L 558 184 L 558 183 L 559 183 L 559 183 L 559 182 L 559 182 L 560 182 L 560 181 L 561 181 L 561 181 L 561 180 L 561 180 L 562 179 L 563 179 L 563 179 L 564 178 L 564 178 L 567 178 L 567 177 L 567 177 L 568 177 L 569 176 L 571 176 L 577 176 L 577 175 L 577 175 L 577 175 L 579 174 L 581 174 L 581 174 L 581 173 L 581 173 L 582 173 L 583 172 L 586 172 L 586 172 L 587 171 L 587 171 L 588 171 L 589 170 L 589 170 L 589 170 L 591 169 L 595 169 L 595 169 L 598 168 L 598 168 L 599 168 L 602 167 L 603 167 L 606 167 L 607 166 L 609 166 L 610 166 L 610 165 L 610 165 L 610 165 L 611 164 L 611 164 L 611 164 L 612 163 L 612 163 L 613 163 L 613 162 L 613 162 L 614 162 L 615 161 L 615 161 L 619 161 L 620 160 L 624 160 L 626 160 L 626 159 L 627 159 L 628 159 L 630 158 L 631 158 L 631 158 L 632 157 L 632 157 L 632 157 L 632 156 L 632 156 L 633 156 L 633 155 L 633 155 L 633 155 L 633 154 L 634 154 L 634 154 L 635 153 L 635 153 L 636 153 L 637 152 L 638 152 L 638 152 L 638 151 L 638 151 L 639 151 L 642 150 L 642 150 L 642 150 L 642 149 L 642 149 L 643 149 L 643 148 L 643 148 L 644 148 L 646 147 L 648 147 L 651 146 L 652 146 L 653 146 L 657 145 L 660 145 L 660 145 L 662 144 L 666 144 L 666 144 L 666 143 L 671 143 L 672 143 L 673 142 L 673 142 L 673 142 L 681 141 L 681 141 L 682 141 L 682 140 L 683 140 L 683 140 L 684 139 L 685 139 L 685 139 L 686 138 L 686 138 L 686 138 L 687 137 L 687 137 L 687 137 L 687 136 L 687 136 L 687 136 L 687 135 L 689 135 L 690 135 L 691 134 L 691 134 L 691 134 L 692 133 L 693 133 L 694 133 L 694 132 L 695 132 L 695 132 L 695 131 L 695 131 L 697 131 L 697 130 L 698 130 L 698 130 L 699 129 L 700 129 L 700 129 L 700 128 L 701 128 L 701 128 L 701 127 L 702 127 L 702 127 L 703 126 L 703 126 L 704 126 L 704 125 L 705 125 L 705 125 L 705 124 L 705 124 L 706 124 L 706 123 L 706 123 L 707 123 L 707 122 L 707 122 L 708 122 L 708 121 L 708 121 L 708 121 L 708 120 L 708 120 L 709 120 L 709 119 L 709 119 L 709 119 L 709 118 L 712 118 L 713 118 L 715 117 L 715 117 L 715 117 L 715 116 L 716 116 L 717 116 L 718 115 L 718 115 L 720 115 L 723 114 L 723 114 L 724 113 L 725 113 L 725 113 L 726 112 L 726 112 L 726 112 L 727 111 L 727 111 L 727 111 L 727 110 L 727 110 L 727 110 L 727 109 L 728 109 L 728 109 L 728 108 L 728 108 L 728 108 L 729 107 L 729 107 L 730 107 L 731 106 L 732 106 L 732 106 L 732 105 L 733 105 L 733 105 L 734 104 L 737 104 L 737 104 L 737 103 L 737 103 L 738 103 L 740 102 L 742 102 L 742 102 L 744 101 L 744 101 L 744 101 L 744 100 L 745 100 L 750 100 L 752 99 L 754 99 L 756 99 L 757 98 L 757 98 L 759 98 L 759 97 L 759 97 L 759 97 L 760 96 L 760 96 L 761 96 L 761 95 L 762 95 L 764 95 L 764 94 L 764 94 L 764 94 L 764 93 L 764 93 L 764 93 L 764 92 L 764 92 L 764 92 L 764 91 L 764 91 L 764 91 L 764 90 L 764 90 L 764 90 L 765 89 L 765 89 L 765 89 L 766 88 L 766 88 L 766 88 L 766 87 L 766 87 L 767 87 L 767 86 L 767 86 L 768 86 L 768 85 L 768 85 L 768 85 L 768 84 L 768 84 L 769 84 L 770 83 L 772 83 L 772 83 L 772 82 L 774 82 L 774 82 L 774 81 L 775 81 L 777 80 L 778 80 L 779 80 L 779 79 L 779 79 L 779 79 L 779 78 L 779 78 L 779 78 L 781 77 L 781 77 L 781 77 L 785 76 L 787 76 L 788 76 L 790 75 L 791 75 L 792 75 L 792 74 L 792 74 L 793 74 L 793 73 L 793 73 L 794 73 L 794 72 L 795 72 L 795 72 L 796 71 L 796 71 L 796 71 L 796 70 L 796 70 L 796 70 L 796 69 L 797 69 L 797 69 L 797 68 L 798 68 L 799 68 L 799 67 L 800 67 L 800 67 L 800 66 L 801 66 L 801 66 L 802 65 L 802 65 L 802 65 L 803 64 L 804 64 L 807 64 L 808 63 L 809 63 L 812 63 L 813 62 L 814 62 L 817 62 L 817 61 L 818 61 L 821 61 L 826 60 L 826 60 L 828 60 L 830 59 L 832 59 L 832 59 L 832 58 L 834 58 L 835 58 L 835 57 L 836 57 L 838 57 L 839 56 L 840 56 L 840 56 L 840 55 L 841 55 L 841 55 L 842 54 L 845 54 L 845 54 L 846 53 L 848 53 L 848 53 L 849 52 L 850 52 L 851 52 L 851 51 L 851 51 L 851 51 L 852 50 L 853 50 L 853 50 L 854 49 L 855 49 L 855 49 L 856 48 L 856 48 L 857 47 L 857 47 L 858 47 L 858 46 L 859 46 L 859 46 L 859 45 L 859 45 L 859 45 L 860 44 L 862 44 L 863 44 L 864 43 L 864 43 L 867 43 L 868 42 L 869 42 L 870 42 L 872 41 L 875 41 L 877 41 L 878 40 L 879 40 L 880 40 L 881 39 L 884 39 L 885 39 L 886 38 L 886 38 L 886 38 L 886 37 L 886 37 L 886 37 L 887 36 L 888 36 L 889 36 L 890 35 L 890 35 L 890 35 L 897 34 L 898 34 L 898 34 L 900 33 L 902 33 L 903 33 L 903 32 L 904 32 L 904 32 L 904 31 L 905 31 L 906 31 L 906 30 L 907 30 L 907 30 L 907 29 L 908 29 L 908 29 L 909 28 L 910 28 L 913 28 L 914 27 L 919 27 L 919 27 L 920 26 L 921 26 L 922 26 L 922 25 L 922 25 L 922 25 L 925 24 L 927 24 L 928 24 L 928 23 L 929 23 L 929 23 L 931 22 L 932 22 L 934 22 L 934 21 L 934 21 L 935 21 L 935 20 L 935 20 L 936 20 L 937 19 L 937 19 L 938 19 L 939 18 L 940 18 L 941 18 L 941 17 L 941 17 L 941 17 L 942 16 L 942 16 L 945 16" stroke-width="2" class="series" /><path stroke-width="2" class="series" d="M 58 345 L 61 345 L 74 344 L 75 344 L 75 344 L 75 343 L 75 343 L 75 343 L 75 342 L 75 342 L 75 342 L 75 341 L 75 341 L 75 341 L 75 340 L 75 340 L 75 340 L 75 339 L 75 339 L 76 339 L 77 338 L 77 338 L 78 338 L 78 337 L 78 337 L 78 337 L 79 336 L 80 336 L 81 336 L 81 335 L 82 335 L 83 335 L 88 334 L 88 334 L 88 334 L 88 333 L 88 333 L 90 333 L 91 332 L 92 332 L 94 332 L 97 331 L 99 331 L 105 331 L 107 330 L 110 330 L 113 330 L 115 329 L 128 329 L 128 329 L 128 328 L 130 328 L 130 328 L 130 327 L 131 327 L 131 327 L 131 326 L 131 326 L 131 326 L 131 325 L 131 325 L 131 325 L 131 324 L 131 324 L 131 324 L 131 323 L 131 323 L 131 323 L 131 322 L 131 322 L 131 322 L 131 321 L 131 321 L 131 321 L 131 320 L 131 320 L 131 320 L 131 319 L 131 319 L 131 319 L 131 318 L 131 318 L 131 318 L 131 317 L 131 317 L 131 317 L 131 316 L 131 316 L 131 316 L 131 315 L 131 315 L 131 315 L 131 314 L 131 314 L 132 314 L 132 313 L 132 313 L 132 313 L 132 312 L 132 312 L 132 311 L 132 311 L 132 311 L 133 310 L 133 310 L 133 310 L 133 309 L 133 309 L 133 309 L 133 308 L 133 308 L 133 308 L 133 307 L 133 307 L 133 307 L 133 306 L 133 306 L 133 306 L 134 305 L 134 305 L 134 305 L 134 304 L 134 304 L 135 304 L 135 303 L 135 303 L 135 303 L 138 302 L 138 302 L 138 302 L 139 301 L 139 301 L 141 301 L 144 300 L 144 300 L 146 300 L 147 299 L 148 299 L 148 299 L 149 298 L 151 298 L 151 298 L 152 297 L 153 297 L 153 297 L 154 296 L 154 296 L 154 296 L 154 295 L 155 295 L 156 295 L 156 294 L 157 294 L 157 294 L 157 293 L 158 293 L 160 293 L 161 292 L 163 292 L 163 292 L 164 291 L 165 291 L 165 291 L 165 290 L 166 290 L 172 290 L 172 289 L 173 289 L 178 289 L 178 288 L 178 288 L 178 288 L 179 287 L 179 287 L 181 287 L 182 286 L 182 286 L 189 286 L 190 285 L 191 285 L 193 285 L 195 284 L 195 284 L 195 284 L 200 283 L 205 283 L 210 283 L 211 282 L 211 282 L 211 282 L 211 281 L 213 281 L 220 281 L 224 280 L 224 280 L 227 280 L 227 279 L 228 279 L 236 278 L 236 278 L 237 278 L 237 277 L 238 277 L 240 277 L 241 276 L 243 276 L 244 276 L 246 275 L 251 275 L 251 275 L 252 274 L 252 274 L 252 274 L 253 273 L 255 273 L 260 273 L 270 272 L 274 272 L 276 272 L 276 271 L 278 271 L 279 271 L 279 270 L 279 270 L 279 270 L 279 269 L 279 269 L 279 269 L 279 268 L 279 268 L 279 268 L 279 267 L 279 267 L 279 267 L 280 266 L 280 266 L 282 266 L 282 265 L 282 265 L 282 265 L 283 264 L 283 264 L 283 264 L 283 263 L 283 263 L 284 263 L 284 262 L 284 262 L 285 262 L 285 261 L 285 261 L 285 261 L 286 260 L 286 260 L 286 260 L 287 259 L 287 259 L 287 259 L 288 258 L 288 258 L 288 258 L 289 257 L 290 257 L 290 257 L 292 256 L 294 256 L 294 256 L 294 255 L 294 255 L 294 255 L 294 254 L 295 254 L 296 254 L 296 253 L 298 253 L 298 253 L 299 252 L 300 252 L 302 252 L 302 251 L 304 251 L 304 251 L 305 250 L 305 250 L 305 250 L 309 249 L 310 249 L 310 249 L 313 248 L 315 248 L 318 248 L 319 247 L 319 247 L 320 247 L 320 246 L 320 246 L 323 245 L 325 245 L 326 245 L 326 244 L 327 244 L 328 244 L 328 243 L 328 243 L 329 243 L 329 242 L 329 242 L 329 242 L 330 241 L 330 241 L 331 241 L 331 240 L 335 240 L 340 240 L 340 239 L 340 239 L 343 239 L 344 238 L 345 238 L 345 238 L 346 237 L 347 237 L 347 237 L 347 236 L 347 236 L 347 236 L 348 235 L 348 235 L 348 235 L 348 234 L 349 234 L 351 234 L 351 233 L 351 233 L 351 233 L 351 232 L 351 232 L 352 232 L 352 231 L 352 231 L 352 231 L 352 230 L 352 230 L 352 230 L 355 229 L 357 229 L 358 229 L 358 228 L 367 228 L 368 228 L 371 227 L 373 227 L 381 227 L 383 226 L 383 226 L 383 226 L 383 225 L 383 225 L 383 225 L 383 224 L 385 224 L 385 224 L 392 223 L 394 223 L 397 223 L 402 222 L 406 222 L 409 222 L 411 221 L 415 221 L 415 221 L 423 220 L 432 220 L 432 220 L 437 219 L 438 219 L 442 219 L 443 218 L 445 218 L 445 218 L 446 217 L 446 217 L 449 217 L 450 216 L 452 216 L 455 216 L 456 215 L 457 215 L 457 215 L 460 214 L 463 214 L 463 214 L 467 213 L 470 213 L 471 212 L 471 212 L 472 212 L 473 211 L 474 211 L 477 211 L 479 210 L 481 210 L 483 210 L 483 209 L 488 209 L 489 209 L 491 208 L 495 208 L 495 208 L 499 207 L 500 207 L 500 207 L 501 206 L 502 206 L 504 206 L 504 205 L 506 205 L 508 205 L 509 204 L 509 204 L 509 204 L 516 203 L 516 203 L 517 203 L 517 202 L 517 202 L 518 202 L 518 201 L 518 201 L 519 201 L 521 200 L 521 200 L 522 200 L 523 199 L 523 199 L 524 199 L 524 198 L 524 198 L 525 198 L 525 197 L 525 197 L 526 197 L 526 196 L 526 196 L 526 196 L 527 195 L 528 195 L 529 195 L 529 194 L 530 194 L 530 194 L 531 193 L 532 193 L 532 193 L 533 192 L 534 192 L 535 192 L 535 191 L 536 191 L 536 191 L 538 190 L 538 190 L 538 190 L 538 189 L 538 189 L 539 189 L 539 188 L 539 188 L 540 188 L 540 187 L 543 187 L 544 187 L 545 186 L 546 186 L 548 186 L 549 185 L 549 185 L 551 185 L 554 184 L 556 184 L 558 184 L 558 183 L 559 183 L 559 183 L 559 182 L 559 182 L 560 182 L 560 181 L 561 181 L 561 181 L 561 180 L 561 180 L 562 179 L 563 179 L 563 179 L 564 178 L 564 178 L 567 178 L 567 177 L 567 177 L 568 177 L 569 176 L 571 176 L 577 176 L 577 175 L 577 175 L 577 175 L 579 174 L 581 174 L 581 174 L 581 173 L 581 173 L 582 173 L 583 172 L 586 172 L 586 172 L 587 171 L 587 171 L 588 171 L 589 170 L 589 170 L 589 170 L 591 169 L 595 169 L 595 169 L 598 168 L 598 168 L 599 168 L 602 167 L 603 167 L 606 167 L 607 166 L 609 166 L 610 166 L 610 165 L 610 165 L 610 165 L 611 164 L 611 164 L 611 164 L 612 163 L 612 163 L 613 163 L 613 162 L 613 162 L 614 162 L 615 161 L 615 161 L 619 161 L 620 160 L 624 160 L 626 160 L 626 159 L 627 159 L 628 159 L 630 158 L 631 158 L 631 158 L 632 157 L 632 157 L 632 157 L 632 156 L 632 156 L 633 156 L 633 155 L 633 155 L 633 155 L 633 154 L 634 154 L 634 154 L 635 153 L 635 153 L 636 153 L 637 152 L 638 152 L 638 152 L 638 151 L 638 151 L 639 151 L 642 150 L 642 150 L 642 150 L 642 149 L 642 149 L 643 149 L 643 148 L 643 148 L 644 148 L 646 147 L 648 147 L 651 146 L 652 146 L 653 146 L 657 145 L 660 145 L 660 145 L 662 144 L 666 144 L 666 144 L 666 143 L 671 143 L 672 143 L 673 142 L 673 142 L 673 142 L 681 141 L 681 141 L 682 141 L 682 140 L 683 140 L 683 140 L 684 139 L 685 139 L 685 139 L 686 138 L 686 138 L 686 138 L 687 137 L 687 137 L 687 137 L 687 136 L 687 136 L 687 136 L 687 135 L 689 135 L 690 135 L 691 134 L 691 134 L 691 134 L 692 133 L 693 133 L 694 133 L 694 132 L 695 132 L 695 132 L 695 131 L 695 131 L 697 131 L 697 130 L 698 130 L 698 130 L 699 129 L 700 129 L 700 129 L 700 128 L 701 128 L 701 128 L 701 127 L 702 127 L 702 127 L 703 126 L 703 126 L 704 126 L 704 125 L 705 125 L 705 125 L 705 124 L 705 124 L 706 124 L 706 123 L 706 123 L 707 123 L 707 122 L 707 122 L 708 122 L 708 121 L 708 121 L 708 121 L 708 120 L 708 120 L 709 120 L 709 119 L 709 119 L 709 119 L 709 118 L 712 118 L 713 118 L 715 117 L 715 117 L 715 117 L 715 116 L 716 116 L 717 116 L 718 115 L 718 115 L 720 115 L 723 114 L 723 114 L 724 113 L 725 113 L 725 113 L 726 112 L 726 112 L 726 112 L 727 111 L 727 111 L 727 111 L 727 110 L 727 110 L 727 110 L 727 109 L 728 109 L 728 109 L 728 108 L 728 108 L 728 108 L 729 107 L 729 107 L 730 107 L 731 106 L 732 106 L 732 106 L 732 105 L 733 105 L 733 105 L 734 104 L 737 104 L 737 104 L 737 103 L 737 103 L 738 103 L 740 102 L 742 102 L 742 102 L 744 101 L 744 101 L 744 101 L 744 100 L 745 100 L 750 100 L 752 99 L 754 99 L 756 99 L 757 98 L 757 98 L 759 98 L 759 97 L 759 97 L 759 97 L 760 96 L 760 96 L 761 96 L 761 95 L 762 95 L 764 95 L 764 94 L 764 94 L 764 94 L 764 93 L 764 93 L 764 93 L 764 92 L 764 92 L 764 92 L 764 91 L 764 91 L 764 91 L 764 90 L 764 90 L 764 90 L 765 89 L 765 89 L 765 89 L 766 88 L 766 88 L 766 88 L 766 87 L 766 87 L 767 87 L 767 86 L 767 86 L 768 86 L 768 85 L 768 85 L 768 85 L 768 84 L 768 84 L 769 84 L 770 83 L 772 83 L 772 83 L 772 82 L 774 82 L 774 82 L 774 81 L 775 81 L 777 80 L 778 80 L 779 80 L 779 79 L 779 79 L 779 79 L 779 78 L 779 78 L 779 78 L 781 77 L 781 77 L 781 77 L 785 76 L 787 76 L 788 76 L 790 75 L 791 75 L 792 75 L 792 74 L 792 74 L 793 74 L 793 73 L 793 73 L 794 73 L 794 72 L 795 72 L 795 72 L 796 71 L 796 71 L 796 71 L 796 70 L 796 70 L 796 70 L 796 69 L 797 69 L 797 69 L 797 68 L 798 68 L 799 68 L 799 67 L 800 67 L 800 67 L 800 66 L 801 66 L 801 66 L 802 65 L 802 65 L 802 65 L 803 64 L 804 64 L 807 64 L 808 63 L 809 63 L 812 63 L 813 62 L 814 62 L 817 62 L 817 61 L 818 61 L 821 61 L 826 60 L 826 60 L 828 60 L 830 59 L 832 59 L 832 59 L 832 58 L 834 58 L 835 58 L 835 57 L 836 57 L 838 57 L 839 56 L 840 56 L 840 56 L 840 55 L 841 55 L 841 55 L 842 54 L 845 54 L 845 54 L 846 53 L 848 53 L 848 53 L 849 52 L 850 52 L 851 52 L 851 51 L 851 51 L 851 51 L 852 50 L 853 50 L 853 50 L 854 49 L 855 49 L 855 49 L 856 48 L 856 48 L 857 47 L 857 47 L 858 47 L 858 46 L 859 46 L 859 46 L 859 45 L 859 45 L 859 45 L 860 44 L 862 44 L 863 44 L 864 43 L 864 43 L 867 43 L 868 42 L 869 42 L 870 42 L 872 41 L 875 41 L 877 41 L 878 40 L 879 40 L 880 40 L 881 39 L 884 39 L 885 39 L 886 38 L 886 38 L 886 38 L 886 37 L 886 37 L 886 37 L 887 36 L 888 36 L 889 36 L 890 35 L 890 35 L 890 35 L 897 34 L 898 34 L 898 34 L 900 33 L 902 33 L 903 33 L 903 32 L 904 32 L 904 32 L 904 31 L 905 31 L 906 31 L 906 30 L 907 30 L 907 30 L 907 29 L 908 29 L 908 29 L 909 28 L 910 28 L 913 28 L 914 27 L 919 27 L 919 27 L 920 26 L 921 26 L 922 26 L 922 25 L 922 25 L 922 25 L 925 24 L 927 24 L 928 24 L 928 23 L 929 23 L 929 23 L 931 22 L 932 22 L 934 22 L 934 21 L 934 21 L 935 21 L 935 20 L 935 20 L 936 20 L 937 19 L 937 19 L 938 19 L 939 18 L 940 18 L 941 18 L 941 17 L 941 17 L 941 17 L 942 16 L 942 16 L 945 16"></path><path stroke-width="2" d="M 945 346 L 945.000000 15.000000" /><path stroke-width="2" d="M 945 346 L 945.000000 15.000000"></path><path d="M 945 346 L 950 346" stroke-width="2" /><path stroke-width="2" d="M 945 346 L 950 346"></path><text xmlns="http://www.w3.org/2000/svg" x="955" y="352">0</text><path stroke-width="2" d="M 945 309 L 950 309" /><path stroke-width="2" d="M 945 309 L 950 309"></path><text xmlns="http://www.w3.org/2000/svg" x="955" y="315">109</text><path stroke-width="2" d="M 945 272 L 950 272" /><path stroke-width="2" d="M 945 272 L 950 272"></path><text xmlns="http://www.w3.org/2000/svg" x="955" y="278">218</text><path stroke-width="2" d="M 945 235 L 950 235" /><path stroke-width="2" d="M 945 235 L 950 235"></path><text xmlns="http://www.w3.org/2000/svg" x="955" y="241">327</text><path stroke-width="2" d="M 945 199 L 950 199" /><path stroke-width="2" d="M 945 199 L 950 199"></path><text xmlns="http://www.w3.org/2000/svg" x="955" y="205">436</text><path stroke-width="2" d="M 945 162 L 950 162" /><path stroke-width="2" d="M 945 162 L 950 162"></path><text xmlns="http://www.w3.org/2000/svg" x="955" y="168">545</text><path stroke-width="2" d="M 945 125 L 950 125" /><path stroke-width="2" d="M 945 125 L 950 125"></path><text xmlns="http://www.w3.org/2000/svg" x="955" y="131">654</text><path stroke-width="2" d="M 945 89 L 950 89" /><path stroke-width="2" d="M 945 89 L 950 89"></path><text xmlns="http://www.w3.org/2000/svg" x="955" y="95">763</text><path stroke-width="2" d="M 945 52 L 950 52" /><path stroke-width="2" d="M 945 52 L 950 52"></path><text xmlns="http://www.w3.org/2000/svg" x="955" y="58">872</text><path stroke-width="2" d="M 945 16 L 950 16" /><path stroke-width="2" d="M 945 16 L 950 16"></path><text x="955" y="22" xmlns="http://www.w3.org/2000/svg">980</text><text xmlns="http://www.w3.org/2000/svg" x="987" y="175" transform="rotate(90.00,987,175)">Stargazers</text><path d="M 57.000000 346.000000 L 945 346" stroke-width="2" /><path stroke-width="2" d="M 57.000000 346.000000 L 945 346"></path><path stroke-width="2" d="M 58 346 L 58 351" /><path d="M 58 346 L 58 351" stroke-width="2"></path><text xmlns="http://www.w3.org/2000/svg" x="25" y="368">2023-04-02</text><path d="M 157 346 L 157 351" stroke-width="2" /><path stroke-width="2" d="M 157 346 L 157 351"></path><text y="368" xmlns="http://www.w3.org/2000/svg" x="124">2023-06-29</text><path stroke-width="2" d="M 256 346 L 256 351" /><path stroke-width="2" d="M 256 346 L 256 351"></path><text xmlns="http://www.w3.org/2000/svg" x="223" y="368">2023-09-24</text><path stroke-width="2" d="M 354 346 L 354 351" /><path stroke-width="2" d="M 354 346 L 354 351"></path><text x="321" y="368" xmlns="http://www.w3.org/2000/svg">2023-12-21</text><path stroke-width="2" d="M 453 346 L 453 351" /><path stroke-width="2" d="M 453 346 L 453 351"></path><text xmlns="http://www.w3.org/2000/svg" x="420" y="368">2024-03-18</text><path stroke-width="2" d="M 551 346 L 551 351" /><path stroke-width="2" d="M 551 346 L 551 351"></path><text y="368" xmlns="http://www.w3.org/2000/svg" x="518">2024-06-13</text><path stroke-width="2" d="M 650 346 L 650 351" /><path stroke-width="2" d="M 650 346 L 650 351"></path><text xmlns="http://www.w3.org/2000/svg" x="617" y="368">2024-09-09</text><path stroke-width="2" d="M 748 346 L 748 351" /><path stroke-width="2" d="M 748 346 L 748 351"></path><text xmlns="http://www.w3.org/2000/svg" x="715" y="368">2024-12-06</text><path stroke-width="2" d="M 847 346 L 847 351" /><path stroke-width="2" d="M 847 346 L 847 351"></path><text xmlns="http://www.w3.org/2000/svg" x="814" y="368">2025-03-03</text><path d="M 945 346 L 945 351" stroke-width="2" /><path d="M 945 346 L 945 351" stroke-width="2"></path><text xmlns="http://www.w3.org/2000/svg" x="912" y="368">2025-05-30</text><text y="390" xmlns="http://www.w3.org/2000/svg" x="487">Time</text></svg>