<svg xmlns="http://www.w3.org/2000/svg" xmlns:xlink="http://www.w3.org/1999/xlink" width="1024px" height="400px"><style type="text/css">
path { fill: none; stroke: rgb(51,51,51); }
path.series { stroke: #6b63ff; }
rect.background { fill: rgb(255,255,255); stroke: none; }

text {
	stroke-width: 0;
	stroke: none;
	fill: rgba(51,51,51,1.0);
	font-size: 12.8px;
	font-family: 'Roboto Medium', sans-serif;
}
</style><rect x="0" y="0" width="1024px" height="400px" class="background" rx="8" /><rect x="0" y="0" width="1024px" height="400px" class="background" rx="8"></rect><path stroke-width="2" class="series" d="M 58 345 L 63 344 L 89 343 L 90 343 L 90 342 L 90 341 L 90 340 L 90 340 L 90 339 L 90 338 L 91 337 L 91 337 L 91 336 L 91 335 L 91 334 L 91 334 L 91 333 L 91 332 L 92 331 L 92 331 L 93 330 L 94 329 L 94 328 L 96 328 L 97 327 L 97 326 L 98 325 L 98 325 L 100 324 L 103 323 L 103 322 L 105 322 L 107 321 L 116 320 L 116 319 L 116 319 L 116 318 L 116 317 L 116 316 L 121 316 L 123 315 L 124 314 L 128 313 L 135 313 L 138 312 L 150 311 L 153 310 L 160 310 L 167 309 L 169 308 L 195 307 L 196 307 L 196 306 L 199 305 L 200 304 L 200 304 L 200 303 L 200 302 L 200 301 L 200 301 L 200 300 L 200 299 L 200 298 L 200 298 L 200 297 L 201 296 L 201 295 L 201 295 L 201 294 L 201 293 L 201 292 L 201 292 L 201 291 L 201 290 L 201 289 L 202 289 L 202 288 L 202 287 L 202 286 L 202 286 L 202 285 L 202 284 L 202 283 L 202 283 L 202 282 L 202 281 L 202 280 L 202 280 L 202 279 L 202 278 L 202 277 L 202 277 L 202 276 L 202 275 L 202 274 L 202 274 L 202 273 L 202 272 L 202 271 L 203 271 L 203 270 L 203 269 L 204 268 L 204 268 L 204 267 L 204 266 L 205 265 L 206 265 L 206 264 L 206 263 L 206 262 L 206 262 L 206 261 L 206 260 L 206 259 L 206 259 L 206 258 L 206 257 L 206 256 L 206 256 L 206 255 L 206 254 L 206 253 L 206 253 L 207 252 L 209 251 L 209 250 L 209 250 L 209 249 L 215 248 L 215 247 L 215 247 L 218 246 L 218 245 L 221 244 L 226 244 L 227 243 L 230 242 L 232 241 L 235 241 L 235 240 L 236 239 L 240 238 L 240 238 L 242 237 L 244 236 L 244 235 L 246 235 L 246 234 L 247 233 L 247 232 L 249 232 L 251 231 L 251 230 L 252 229 L 253 229 L 253 228 L 254 227 L 257 226 L 259 226 L 263 225 L 265 224 L 266 223 L 268 223 L 268 222 L 268 221 L 271 220 L 282 220 L 282 219 L 284 218 L 294 217 L 294 217 L 294 216 L 294 215 L 295 214 L 296 214 L 300 213 L 302 212 L 302 211 L 314 211 L 317 210 L 320 209 L 324 208 L 326 208 L 326 207 L 328 206 L 337 205 L 346 205 L 357 204 L 358 203 L 358 202 L 359 202 L 359 201 L 362 200 L 377 199 L 384 199 L 384 198 L 389 197 L 391 196 L 392 196 L 408 195 L 408 194 L 409 193 L 410 193 L 412 192 L 416 191 L 418 190 L 422 190 L 424 189 L 427 188 L 437 187 L 437 187 L 439 186 L 439 185 L 440 184 L 440 184 L 445 183 L 454 182 L 475 181 L 482 181 L 483 180 L 487 179 L 487 178 L 490 178 L 492 177 L 492 176 L 492 175 L 492 175 L 492 174 L 492 173 L 492 172 L 492 172 L 492 171 L 492 170 L 493 169 L 493 169 L 493 168 L 493 167 L 494 166 L 495 166 L 497 165 L 498 164 L 498 163 L 498 163 L 498 162 L 501 161 L 501 160 L 501 160 L 501 159 L 501 158 L 501 157 L 501 157 L 503 156 L 504 155 L 505 154 L 505 154 L 505 153 L 505 152 L 505 151 L 507 151 L 507 150 L 507 149 L 508 148 L 509 148 L 509 147 L 510 146 L 511 145 L 513 145 L 514 144 L 517 143 L 521 142 L 521 142 L 522 141 L 523 140 L 523 139 L 523 139 L 523 138 L 526 137 L 527 136 L 530 136 L 530 135 L 531 134 L 534 133 L 537 132 L 537 132 L 541 131 L 542 130 L 543 130 L 544 129 L 544 128 L 552 127 L 553 126 L 554 126 L 560 125 L 563 124 L 569 124 L 571 123 L 571 122 L 573 121 L 574 121 L 574 120 L 578 119 L 582 118 L 585 118 L 585 117 L 587 116 L 589 115 L 590 115 L 590 114 L 590 113 L 591 112 L 591 112 L 591 111 L 593 110 L 593 109 L 594 109 L 595 108 L 602 107 L 611 106 L 611 106 L 611 105 L 617 104 L 620 103 L 622 103 L 622 102 L 624 101 L 626 100 L 626 100 L 626 99 L 626 98 L 627 97 L 627 97 L 627 96 L 628 95 L 628 94 L 629 94 L 634 93 L 634 92 L 634 91 L 634 91 L 634 90 L 635 89 L 635 88 L 635 88 L 635 87 L 635 86 L 635 85 L 635 85 L 636 84 L 638 83 L 642 82 L 647 82 L 647 81 L 648 80 L 657 79 L 666 79 L 668 78 L 674 77 L 678 76 L 689 76 L 693 75 L 696 74 L 697 73 L 697 73 L 697 72 L 697 71 L 697 70 L 697 70 L 697 69 L 700 68 L 701 67 L 715 67 L 719 66 L 724 65 L 735 64 L 742 64 L 748 63 L 753 62 L 760 61 L 760 61 L 776 60 L 792 59 L 792 58 L 804 58 L 804 57 L 813 56 L 815 55 L 819 55 L 819 54 L 821 53 L 821 52 L 826 52 L 828 51 L 832 50 L 839 49 L 840 49 L 842 48 L 843 47 L 848 46 L 854 46 L 855 45 L 861 44 L 868 43 L 870 43 L 870 42 L 873 41 L 874 40 L 876 40 L 881 39 L 886 38 L 890 37 L 891 37 L 894 36 L 894 35 L 903 34 L 905 34 L 909 33 L 917 32 L 917 31 L 926 31 L 927 30 L 927 29 L 929 28 L 930 28 L 934 27 L 934 26 L 938 25 L 943 25 L 944 24 L 945 23 L 945 22" /><path stroke-width="2" class="series" d="M 58 345 L 63 344 L 89 343 L 90 343 L 90 342 L 90 341 L 90 340 L 90 340 L 90 339 L 90 338 L 91 337 L 91 337 L 91 336 L 91 335 L 91 334 L 91 334 L 91 333 L 91 332 L 92 331 L 92 331 L 93 330 L 94 329 L 94 328 L 96 328 L 97 327 L 97 326 L 98 325 L 98 325 L 100 324 L 103 323 L 103 322 L 105 322 L 107 321 L 116 320 L 116 319 L 116 319 L 116 318 L 116 317 L 116 316 L 121 316 L 123 315 L 124 314 L 128 313 L 135 313 L 138 312 L 150 311 L 153 310 L 160 310 L 167 309 L 169 308 L 195 307 L 196 307 L 196 306 L 199 305 L 200 304 L 200 304 L 200 303 L 200 302 L 200 301 L 200 301 L 200 300 L 200 299 L 200 298 L 200 298 L 200 297 L 201 296 L 201 295 L 201 295 L 201 294 L 201 293 L 201 292 L 201 292 L 201 291 L 201 290 L 201 289 L 202 289 L 202 288 L 202 287 L 202 286 L 202 286 L 202 285 L 202 284 L 202 283 L 202 283 L 202 282 L 202 281 L 202 280 L 202 280 L 202 279 L 202 278 L 202 277 L 202 277 L 202 276 L 202 275 L 202 274 L 202 274 L 202 273 L 202 272 L 202 271 L 203 271 L 203 270 L 203 269 L 204 268 L 204 268 L 204 267 L 204 266 L 205 265 L 206 265 L 206 264 L 206 263 L 206 262 L 206 262 L 206 261 L 206 260 L 206 259 L 206 259 L 206 258 L 206 257 L 206 256 L 206 256 L 206 255 L 206 254 L 206 253 L 206 253 L 207 252 L 209 251 L 209 250 L 209 250 L 209 249 L 215 248 L 215 247 L 215 247 L 218 246 L 218 245 L 221 244 L 226 244 L 227 243 L 230 242 L 232 241 L 235 241 L 235 240 L 236 239 L 240 238 L 240 238 L 242 237 L 244 236 L 244 235 L 246 235 L 246 234 L 247 233 L 247 232 L 249 232 L 251 231 L 251 230 L 252 229 L 253 229 L 253 228 L 254 227 L 257 226 L 259 226 L 263 225 L 265 224 L 266 223 L 268 223 L 268 222 L 268 221 L 271 220 L 282 220 L 282 219 L 284 218 L 294 217 L 294 217 L 294 216 L 294 215 L 295 214 L 296 214 L 300 213 L 302 212 L 302 211 L 314 211 L 317 210 L 320 209 L 324 208 L 326 208 L 326 207 L 328 206 L 337 205 L 346 205 L 357 204 L 358 203 L 358 202 L 359 202 L 359 201 L 362 200 L 377 199 L 384 199 L 384 198 L 389 197 L 391 196 L 392 196 L 408 195 L 408 194 L 409 193 L 410 193 L 412 192 L 416 191 L 418 190 L 422 190 L 424 189 L 427 188 L 437 187 L 437 187 L 439 186 L 439 185 L 440 184 L 440 184 L 445 183 L 454 182 L 475 181 L 482 181 L 483 180 L 487 179 L 487 178 L 490 178 L 492 177 L 492 176 L 492 175 L 492 175 L 492 174 L 492 173 L 492 172 L 492 172 L 492 171 L 492 170 L 493 169 L 493 169 L 493 168 L 493 167 L 494 166 L 495 166 L 497 165 L 498 164 L 498 163 L 498 163 L 498 162 L 501 161 L 501 160 L 501 160 L 501 159 L 501 158 L 501 157 L 501 157 L 503 156 L 504 155 L 505 154 L 505 154 L 505 153 L 505 152 L 505 151 L 507 151 L 507 150 L 507 149 L 508 148 L 509 148 L 509 147 L 510 146 L 511 145 L 513 145 L 514 144 L 517 143 L 521 142 L 521 142 L 522 141 L 523 140 L 523 139 L 523 139 L 523 138 L 526 137 L 527 136 L 530 136 L 530 135 L 531 134 L 534 133 L 537 132 L 537 132 L 541 131 L 542 130 L 543 130 L 544 129 L 544 128 L 552 127 L 553 126 L 554 126 L 560 125 L 563 124 L 569 124 L 571 123 L 571 122 L 573 121 L 574 121 L 574 120 L 578 119 L 582 118 L 585 118 L 585 117 L 587 116 L 589 115 L 590 115 L 590 114 L 590 113 L 591 112 L 591 112 L 591 111 L 593 110 L 593 109 L 594 109 L 595 108 L 602 107 L 611 106 L 611 106 L 611 105 L 617 104 L 620 103 L 622 103 L 622 102 L 624 101 L 626 100 L 626 100 L 626 99 L 626 98 L 627 97 L 627 97 L 627 96 L 628 95 L 628 94 L 629 94 L 634 93 L 634 92 L 634 91 L 634 91 L 634 90 L 635 89 L 635 88 L 635 88 L 635 87 L 635 86 L 635 85 L 635 85 L 636 84 L 638 83 L 642 82 L 647 82 L 647 81 L 648 80 L 657 79 L 666 79 L 668 78 L 674 77 L 678 76 L 689 76 L 693 75 L 696 74 L 697 73 L 697 73 L 697 72 L 697 71 L 697 70 L 697 70 L 697 69 L 700 68 L 701 67 L 715 67 L 719 66 L 724 65 L 735 64 L 742 64 L 748 63 L 753 62 L 760 61 L 760 61 L 776 60 L 792 59 L 792 58 L 804 58 L 804 57 L 813 56 L 815 55 L 819 55 L 819 54 L 821 53 L 821 52 L 826 52 L 828 51 L 832 50 L 839 49 L 840 49 L 842 48 L 843 47 L 848 46 L 854 46 L 855 45 L 861 44 L 868 43 L 870 43 L 870 42 L 873 41 L 874 40 L 876 40 L 881 39 L 886 38 L 890 37 L 891 37 L 894 36 L 894 35 L 903 34 L 905 34 L 909 33 L 917 32 L 917 31 L 926 31 L 927 30 L 927 29 L 929 28 L 930 28 L 934 27 L 934 26 L 938 25 L 943 25 L 944 24 L 945 23 L 945 22"></path><path stroke-width="2" d="M 945 346 L 945.000000 15.000000" /><path stroke-width="2" d="M 945 346 L 945.000000 15.000000"></path><path stroke-width="2" d="M 945 346 L 950 346" /><path stroke-width="2" d="M 945 346 L 950 346"></path><text xmlns="http://www.w3.org/2000/svg" x="955" y="352">0</text><path stroke-width="2" d="M 945 309 L 950 309" /><path stroke-width="2" d="M 945 309 L 950 309"></path><text x="955" y="315" xmlns="http://www.w3.org/2000/svg">49</text><path d="M 945 272 L 950 272" stroke-width="2" /><path stroke-width="2" d="M 945 272 L 950 272"></path><text xmlns="http://www.w3.org/2000/svg" x="955" y="278">98</text><path stroke-width="2" d="M 945 235 L 950 235" /><path stroke-width="2" d="M 945 235 L 950 235"></path><text xmlns="http://www.w3.org/2000/svg" x="955" y="241">147</text><path stroke-width="2" d="M 945 199 L 950 199" /><path stroke-width="2" d="M 945 199 L 950 199"></path><text xmlns="http://www.w3.org/2000/svg" x="955" y="205">196</text><path stroke-width="2" d="M 945 162 L 950 162" /><path stroke-width="2" d="M 945 162 L 950 162"></path><text xmlns="http://www.w3.org/2000/svg" x="955" y="168">245</text><path stroke-width="2" d="M 945 125 L 950 125" /><path stroke-width="2" d="M 945 125 L 950 125"></path><text xmlns="http://www.w3.org/2000/svg" x="955" y="131">294</text><path stroke-width="2" d="M 945 88 L 950 88" /><path stroke-width="2" d="M 945 88 L 950 88"></path><text xmlns="http://www.w3.org/2000/svg" x="955" y="94">343</text><path stroke-width="2" d="M 945 52 L 950 52" /><path stroke-width="2" d="M 945 52 L 950 52"></path><text xmlns="http://www.w3.org/2000/svg" x="955" y="58">392</text><path stroke-width="2" d="M 945 16 L 950 16" /><path stroke-width="2" d="M 945 16 L 950 16"></path><text x="955" y="22" xmlns="http://www.w3.org/2000/svg">440</text><text xmlns="http://www.w3.org/2000/svg" x="987" y="175" transform="rotate(90.00,987,175)">Stargazers</text><path stroke-width="2" d="M 57.000000 346.000000 L 945 346" /><path stroke-width="2" d="M 57.000000 346.000000 L 945 346"></path><path stroke-width="2" d="M 58 346 L 58 351" /><path stroke-width="2" d="M 58 346 L 58 351"></path><text x="25" y="368" xmlns="http://www.w3.org/2000/svg">2023-04-02</text><path stroke-width="2" d="M 157 346 L 157 351" /><path stroke-width="2" d="M 157 346 L 157 351"></path><text xmlns="http://www.w3.org/2000/svg" x="124" y="368">2023-05-16</text><path stroke-width="2" d="M 256 346 L 256 351" /><path stroke-width="2" d="M 256 346 L 256 351"></path><text xmlns="http://www.w3.org/2000/svg" x="223" y="368">2023-06-30</text><path stroke-width="2" d="M 354 346 L 354 351" /><path d="M 354 346 L 354 351" stroke-width="2"></path><text xmlns="http://www.w3.org/2000/svg" x="321" y="368">2023-08-14</text><path stroke-width="2" d="M 453 346 L 453 351" /><path stroke-width="2" d="M 453 346 L 453 351"></path><text x="420" y="368" xmlns="http://www.w3.org/2000/svg">2023-09-27</text><path stroke-width="2" d="M 551 346 L 551 351" /><path stroke-width="2" d="M 551 346 L 551 351"></path><text xmlns="http://www.w3.org/2000/svg" x="518" y="368">2023-11-11</text><path stroke-width="2" d="M 650 346 L 650 351" /><path stroke-width="2" d="M 650 346 L 650 351"></path><text xmlns="http://www.w3.org/2000/svg" x="617" y="368">2023-12-25</text><path stroke-width="2" d="M 748 346 L 748 351" /><path d="M 748 346 L 748 351" stroke-width="2"></path><text xmlns="http://www.w3.org/2000/svg" x="715" y="368">2024-02-08</text><path stroke-width="2" d="M 847 346 L 847 351" /><path stroke-width="2" d="M 847 346 L 847 351"></path><text xmlns="http://www.w3.org/2000/svg" x="814" y="368">2024-03-23</text><path stroke-width="2" d="M 945 346 L 945 351" /><path stroke-width="2" d="M 945 346 L 945 351"></path><text xmlns="http://www.w3.org/2000/svg" x="912" y="368">2024-05-07</text><text xmlns="http://www.w3.org/2000/svg" x="487" y="390">Time</text></svg>