<svg height="400px" xmlns="http://www.w3.org/2000/svg" xmlns:xlink="http://www.w3.org/1999/xlink" width="1024px"><style type="text/css">
path { fill: none; stroke: rgb(51,51,51); }
path.series { stroke: #6b63ff; }
rect.background { fill: rgb(255,255,255); stroke: none; }

text {
	stroke-width: 0;
	stroke: none;
	fill: rgba(51,51,51,1.0);
	font-size: 12.8px;
	font-family: 'Roboto Medium', sans-serif;
}
</style><rect width="1024px" height="400px" class="background" rx="8" x="0" y="0" /><rect class="background" rx="8" x="0" y="0" width="1024px" height="400px"></rect><path stroke-width="2" class="series" d="M 58 345 L 60 345 L 72 345 L 73 344 L 73 344 L 73 344 L 73 343 L 73 343 L 73 343 L 73 343 L 73 342 L 73 342 L 73 342 L 73 341 L 73 341 L 73 341 L 73 340 L 73 340 L 73 340 L 74 340 L 74 339 L 74 339 L 75 339 L 76 338 L 76 338 L 76 338 L 76 337 L 77 337 L 78 337 L 78 337 L 79 336 L 80 336 L 84 336 L 84 335 L 84 335 L 84 335 L 84 334 L 86 334 L 87 334 L 88 334 L 90 333 L 93 333 L 94 333 L 99 332 L 101 332 L 104 332 L 107 331 L 108 331 L 120 331 L 120 331 L 121 330 L 122 330 L 122 330 L 122 329 L 122 329 L 122 329 L 122 328 L 122 328 L 122 328 L 122 328 L 122 327 L 122 327 L 122 327 L 122 326 L 122 326 L 122 326 L 122 325 L 122 325 L 122 325 L 122 325 L 122 324 L 122 324 L 122 324 L 122 323 L 122 323 L 122 323 L 122 322 L 122 322 L 122 322 L 122 322 L 122 321 L 122 321 L 122 321 L 122 320 L 122 320 L 122 320 L 122 319 L 122 319 L 122 319 L 122 319 L 122 318 L 122 318 L 122 318 L 122 317 L 122 317 L 122 317 L 123 316 L 123 316 L 123 316 L 123 316 L 123 315 L 123 315 L 123 315 L 124 314 L 124 314 L 124 314 L 124 313 L 124 313 L 124 313 L 124 313 L 124 312 L 124 312 L 124 312 L 124 311 L 124 311 L 124 311 L 124 310 L 124 310 L 124 310 L 124 310 L 124 309 L 125 309 L 125 309 L 125 308 L 125 308 L 125 308 L 128 307 L 128 307 L 128 307 L 129 307 L 129 306 L 131 306 L 133 306 L 133 305 L 135 305 L 136 305 L 137 304 L 137 304 L 138 304 L 139 304 L 139 303 L 140 303 L 141 303 L 141 302 L 142 302 L 142 302 L 142 301 L 142 301 L 143 301 L 144 301 L 144 300 L 145 300 L 145 300 L 145 299 L 146 299 L 147 299 L 148 298 L 150 298 L 150 298 L 151 298 L 152 297 L 152 297 L 152 297 L 153 296 L 158 296 L 158 296 L 159 295 L 163 295 L 163 295 L 163 295 L 164 294 L 164 294 L 164 294 L 166 293 L 167 293 L 167 293 L 172 292 L 173 292 L 175 292 L 176 292 L 178 291 L 178 291 L 178 291 L 182 290 L 187 290 L 192 290 L 192 289 L 192 289 L 192 289 L 192 289 L 200 288 L 203 288 L 203 288 L 206 287 L 206 287 L 207 287 L 214 286 L 214 286 L 215 286 L 215 286 L 216 285 L 218 285 L 219 285 L 220 284 L 221 284 L 223 284 L 227 283 L 227 283 L 228 283 L 228 283 L 228 282 L 228 282 L 231 282 L 235 281 L 244 281 L 247 281 L 249 280 L 249 280 L 251 280 L 251 280 L 251 279 L 251 279 L 251 279 L 251 278 L 251 278 L 251 278 L 252 277 L 252 277 L 252 277 L 252 277 L 252 276 L 252 276 L 252 276 L 254 275 L 254 275 L 254 275 L 254 274 L 255 274 L 255 274 L 255 274 L 255 273 L 255 273 L 256 273 L 256 272 L 256 272 L 257 272 L 257 271 L 257 271 L 257 271 L 257 271 L 257 270 L 258 270 L 258 270 L 258 269 L 259 269 L 259 269 L 259 268 L 260 268 L 261 268 L 261 268 L 263 267 L 264 267 L 264 267 L 265 266 L 265 266 L 265 266 L 265 265 L 265 265 L 266 265 L 267 265 L 268 264 L 268 264 L 269 264 L 270 263 L 271 263 L 271 263 L 273 262 L 274 262 L 274 262 L 275 262 L 275 261 L 278 261 L 279 261 L 279 260 L 282 260 L 283 260 L 286 259 L 286 259 L 287 259 L 288 259 L 288 258 L 288 258 L 290 258 L 292 257 L 293 257 L 293 257 L 295 256 L 295 256 L 295 256 L 295 256 L 295 255 L 296 255 L 296 255 L 297 254 L 297 254 L 297 254 L 297 253 L 301 253 L 305 253 L 305 253 L 305 252 L 307 252 L 309 252 L 309 251 L 309 251 L 310 251 L 311 250 L 311 250 L 311 250 L 311 250 L 311 249 L 312 249 L 312 249 L 312 248 L 312 248 L 313 248 L 314 247 L 314 247 L 314 247 L 315 247 L 315 246 L 315 246 L 315 246 L 315 245 L 315 245 L 315 245 L 315 244 L 315 244 L 315 244 L 318 244 L 320 243 L 320 243 L 321 243 L 329 242 L 330 242 L 332 242 L 334 241 L 341 241 L 342 241 L 343 241 L 343 240 L 343 240 L 343 240 L 343 239 L 343 239 L 344 239 L 345 238 L 351 238 L 352 238 L 355 238 L 359 237 L 363 237 L 365 237 L 367 236 L 371 236 L 371 236 L 378 235 L 385 235 L 385 235 L 390 235 L 390 234 L 394 234 L 395 234 L 397 233 L 397 233 L 398 233 L 398 232 L 400 232 L 401 232 L 403 232 L 406 231 L 406 231 L 407 231 L 408 230 L 410 230 L 413 230 L 413 229 L 416 229 L 419 229 L 420 229 L 420 228 L 421 228 L 422 228 L 422 227 L 425 227 L 427 227 L 429 226 L 431 226 L 431 226 L 434 226 L 435 225 L 437 225 L 441 225 L 441 224 L 444 224 L 445 224 L 445 223 L 446 223 L 446 223 L 448 223 L 448 222 L 450 222 L 452 222 L 453 221 L 453 221 L 453 221 L 459 220 L 459 220 L 460 220 L 460 220 L 460 219 L 461 219 L 461 219 L 461 218 L 462 218 L 463 218 L 463 217 L 464 217 L 465 217 L 465 217 L 466 216 L 466 216 L 466 216 L 467 215 L 467 215 L 467 215 L 468 214 L 468 214 L 468 214 L 468 214 L 469 213 L 470 213 L 470 213 L 470 212 L 471 212 L 471 212 L 472 211 L 473 211 L 473 211 L 474 211 L 475 210 L 476 210 L 476 210 L 476 209 L 477 209 L 478 209 L 478 208 L 478 208 L 479 208 L 479 208 L 479 207 L 479 207 L 479 207 L 480 206 L 480 206 L 483 206 L 484 205 L 485 205 L 485 205 L 487 205 L 488 204 L 488 204 L 490 204 L 492 203 L 494 203 L 496 203 L 496 202 L 496 202 L 496 202 L 497 202 L 497 201 L 497 201 L 497 201 L 498 200 L 498 200 L 498 200 L 499 199 L 500 199 L 500 199 L 500 199 L 501 198 L 501 198 L 503 198 L 504 197 L 504 197 L 504 197 L 505 196 L 507 196 L 512 196 L 512 196 L 512 195 L 512 195 L 514 195 L 516 194 L 516 194 L 516 194 L 516 193 L 517 193 L 518 193 L 520 193 L 521 192 L 521 192 L 521 192 L 522 191 L 523 191 L 523 191 L 523 190 L 525 190 L 528 190 L 528 190 L 531 189 L 531 189 L 532 189 L 535 188 L 535 188 L 538 188 L 539 187 L 540 187 L 541 187 L 541 187 L 542 186 L 542 186 L 542 186 L 542 185 L 543 185 L 543 185 L 543 184 L 544 184 L 544 184 L 544 184 L 545 183 L 545 183 L 546 183 L 549 182 L 550 182 L 554 182 L 555 181 L 556 181 L 556 181 L 557 181 L 559 180 L 560 180 L 560 180 L 560 179 L 560 179 L 560 179 L 561 178 L 561 178 L 561 178 L 561 178 L 561 177 L 561 177 L 562 177 L 562 176 L 562 176 L 563 176 L 564 175 L 564 175 L 565 175 L 565 175 L 566 174 L 566 174 L 566 174 L 567 173 L 569 173 L 569 173 L 569 172 L 569 172 L 569 172 L 570 172 L 570 171 L 570 171 L 571 171 L 573 170 L 575 170 L 577 170 L 578 169 L 579 169 L 582 169 L 585 169 L 585 168 L 587 168 L 591 168 L 591 167 L 591 167 L 595 167 L 596 166 L 596 166 L 597 166 L 597 166 L 604 165 L 604 165 L 605 165 L 605 164 L 605 164 L 606 164 L 606 163 L 607 163 L 607 163 L 608 163 L 608 162 L 608 162 L 608 162 L 609 161 L 609 161 L 609 161 L 609 160 L 609 160 L 609 160 L 611 160 L 612 159 L 612 159 L 612 159 L 613 158 L 613 158 L 614 158 L 615 157 L 615 157 L 616 157 L 616 157 L 616 156 L 616 156 L 617 156 L 618 155 L 619 155 L 619 155 L 619 154 L 620 154 L 620 154 L 620 154 L 621 153 L 621 153 L 621 153 L 621 152 L 622 152 L 623 152 L 623 151 L 624 151 L 624 151 L 624 151 L 624 150 L 624 150 L 625 150 L 625 149 L 625 149 L 625 149 L 626 148 L 626 148 L 627 148 L 627 148 L 627 147 L 627 147 L 627 147 L 627 146 L 628 146 L 628 146 L 628 145 L 628 145 L 628 145 L 628 145 L 630 144 L 631 144 L 633 144 L 633 143 L 633 143 L 633 143 L 634 142 L 635 142 L 636 142 L 636 142 L 638 141 L 640 141 L 640 141 L 641 140 L 642 140 L 642 140 L 643 139 L 643 139 L 643 139 L 643 139 L 643 138 L 643 138 L 643 138 L 644 137 L 644 137 L 644 137 L 644 136 L 644 136 L 644 136 L 645 136 L 645 135 L 645 135 L 646 135 L 646 134 L 648 134 L 648 134 L 648 133 L 648 133 L 649 133 L 649 132 L 650 132 L 653 132 L 653 132 L 653 131 L 653 131 L 653 131 L 655 130 L 657 130 L 657 130 L 659 130 L 659 129 L 659 129 L 659 129 L 660 128 L 664 128 L 665 128 L 668 127 L 669 127 L 670 127 L 670 126 L 671 126 L 671 126 L 672 126 L 672 125 L 672 125 L 673 125 L 673 124 L 674 124 L 675 124 L 676 124 L 676 123 L 676 123 L 676 123 L 676 122 L 676 122 L 676 122 L 676 121 L 676 121 L 676 121 L 676 121 L 676 120 L 676 120 L 677 120 L 677 119 L 677 119 L 677 119 L 677 118 L 677 118 L 678 118 L 678 118 L 678 117 L 678 117 L 678 117 L 678 116 L 678 116 L 678 116 L 679 115 L 679 115 L 679 115 L 679 115 L 679 114 L 679 114 L 680 114 L 682 113 L 683 113 L 683 113 L 684 112 L 685 112 L 685 112 L 685 112 L 686 111 L 687 111 L 688 111 L 689 110 L 689 110 L 689 110 L 689 109 L 689 109 L 689 109 L 689 109 L 691 108 L 691 108 L 691 108 L 695 107 L 696 107 L 697 107 L 699 106 L 700 106 L 701 106 L 701 106 L 701 105 L 701 105 L 702 105 L 702 104 L 702 104 L 703 104 L 703 103 L 704 103 L 704 103 L 704 103 L 704 102 L 704 102 L 704 102 L 704 101 L 704 101 L 705 101 L 705 100 L 705 100 L 706 100 L 707 100 L 707 99 L 707 99 L 708 99 L 708 98 L 708 98 L 709 98 L 709 97 L 709 97 L 710 97 L 710 97 L 711 96 L 714 96 L 716 96 L 718 95 L 719 95 L 720 95 L 722 94 L 723 94 L 723 94 L 726 94 L 730 93 L 731 93 L 732 93 L 734 92 L 735 92 L 736 92 L 736 91 L 738 91 L 738 91 L 739 91 L 739 90 L 741 90 L 742 90 L 742 89 L 742 89 L 743 89 L 743 88 L 743 88 L 744 88 L 747 88 L 747 87 L 748 87 L 749 87 L 750 86 L 751 86 L 751 86 L 752 85 L 752 85 L 752 85 L 753 85 L 753 84 L 754 84 L 754 84 L 755 83 L 756 83 L 756 83 L 756 82 L 757 82 L 758 82 L 758 82 L 758 81 L 759 81 L 759 81 L 759 80 L 759 80 L 759 80 L 760 79 L 760 79 L 762 79 L 763 79 L 764 78 L 767 78 L 767 78 L 768 77 L 769 77 L 771 77 L 773 76 L 775 76 L 776 76 L 777 76 L 777 75 L 779 75 L 781 75 L 783 74 L 783 74 L 783 74 L 783 73 L 783 73 L 783 73 L 784 73 L 785 72 L 786 72 L 786 72 L 787 71 L 787 71 L 792 71 L 793 70 L 794 70 L 795 70 L 797 70 L 798 69 L 798 69 L 798 69 L 799 68 L 799 68 L 800 68 L 800 67 L 801 67 L 801 67 L 802 67 L 802 66 L 802 66 L 803 66 L 804 65 L 804 65 L 807 65 L 807 64 L 812 64 L 812 64 L 812 64 L 813 63 L 814 63 L 814 63 L 814 62 L 815 62 L 817 62 L 818 61 L 820 61 L 820 61 L 820 61 L 820 60 L 822 60 L 823 60 L 825 59 L 825 59 L 825 59 L 826 58 L 826 58 L 826 58 L 826 58 L 827 57 L 828 57 L 828 57 L 829 56 L 830 56 L 831 56 L 831 55 L 831 55 L 831 55 L 832 55 L 832 54 L 835 54 L 839 54 L 839 53 L 842 53 L 843 53 L 846 52 L 846 52 L 847 52 L 847 52 L 848 51 L 849 51 L 850 51 L 852 50 L 853 50 L 856 50 L 860 49 L 860 49 L 860 49 L 861 49 L 861 48 L 862 48 L 863 48 L 863 47 L 871 47 L 873 47 L 873 46 L 875 46 L 876 46 L 879 46 L 880 45 L 881 45 L 881 45 L 882 44 L 883 44 L 888 44 L 889 43 L 890 43 L 891 43 L 893 43 L 894 42 L 894 42 L 894 42 L 894 41 L 895 41 L 895 41 L 895 40 L 897 40 L 898 40 L 899 40 L 900 39 L 900 39 L 901 39 L 903 38 L 906 38 L 908 38 L 908 37 L 910 37 L 910 37 L 910 37 L 910 36 L 910 36 L 911 36 L 911 35 L 913 35 L 914 35 L 914 34 L 914 34 L 915 34 L 915 34 L 915 33 L 915 33 L 915 33 L 915 32 L 915 32 L 916 32 L 916 31 L 916 31 L 917 31 L 917 31 L 917 30 L 918 30 L 918 30 L 918 29 L 918 29 L 919 29 L 924 28 L 925 28 L 926 28 L 927 28 L 927 27 L 927 27 L 927 27 L 927 26 L 927 26 L 927 26 L 927 25 L 927 25 L 927 25 L 927 25 L 927 24 L 928 24 L 928 24 L 928 23 L 928 23 L 928 23 L 928 22 L 929 22 L 929 22 L 929 22 L 930 21 L 930 21 L 932 21 L 933 20 L 934 20 L 934 20 L 934 19 L 934 19 L 936 19 L 936 19 L 937 18 L 937 18" /><path class="series" d="M 58 345 L 60 345 L 72 345 L 73 344 L 73 344 L 73 344 L 73 343 L 73 343 L 73 343 L 73 343 L 73 342 L 73 342 L 73 342 L 73 341 L 73 341 L 73 341 L 73 340 L 73 340 L 73 340 L 74 340 L 74 339 L 74 339 L 75 339 L 76 338 L 76 338 L 76 338 L 76 337 L 77 337 L 78 337 L 78 337 L 79 336 L 80 336 L 84 336 L 84 335 L 84 335 L 84 335 L 84 334 L 86 334 L 87 334 L 88 334 L 90 333 L 93 333 L 94 333 L 99 332 L 101 332 L 104 332 L 107 331 L 108 331 L 120 331 L 120 331 L 121 330 L 122 330 L 122 330 L 122 329 L 122 329 L 122 329 L 122 328 L 122 328 L 122 328 L 122 328 L 122 327 L 122 327 L 122 327 L 122 326 L 122 326 L 122 326 L 122 325 L 122 325 L 122 325 L 122 325 L 122 324 L 122 324 L 122 324 L 122 323 L 122 323 L 122 323 L 122 322 L 122 322 L 122 322 L 122 322 L 122 321 L 122 321 L 122 321 L 122 320 L 122 320 L 122 320 L 122 319 L 122 319 L 122 319 L 122 319 L 122 318 L 122 318 L 122 318 L 122 317 L 122 317 L 122 317 L 123 316 L 123 316 L 123 316 L 123 316 L 123 315 L 123 315 L 123 315 L 124 314 L 124 314 L 124 314 L 124 313 L 124 313 L 124 313 L 124 313 L 124 312 L 124 312 L 124 312 L 124 311 L 124 311 L 124 311 L 124 310 L 124 310 L 124 310 L 124 310 L 124 309 L 125 309 L 125 309 L 125 308 L 125 308 L 125 308 L 128 307 L 128 307 L 128 307 L 129 307 L 129 306 L 131 306 L 133 306 L 133 305 L 135 305 L 136 305 L 137 304 L 137 304 L 138 304 L 139 304 L 139 303 L 140 303 L 141 303 L 141 302 L 142 302 L 142 302 L 142 301 L 142 301 L 143 301 L 144 301 L 144 300 L 145 300 L 145 300 L 145 299 L 146 299 L 147 299 L 148 298 L 150 298 L 150 298 L 151 298 L 152 297 L 152 297 L 152 297 L 153 296 L 158 296 L 158 296 L 159 295 L 163 295 L 163 295 L 163 295 L 164 294 L 164 294 L 164 294 L 166 293 L 167 293 L 167 293 L 172 292 L 173 292 L 175 292 L 176 292 L 178 291 L 178 291 L 178 291 L 182 290 L 187 290 L 192 290 L 192 289 L 192 289 L 192 289 L 192 289 L 200 288 L 203 288 L 203 288 L 206 287 L 206 287 L 207 287 L 214 286 L 214 286 L 215 286 L 215 286 L 216 285 L 218 285 L 219 285 L 220 284 L 221 284 L 223 284 L 227 283 L 227 283 L 228 283 L 228 283 L 228 282 L 228 282 L 231 282 L 235 281 L 244 281 L 247 281 L 249 280 L 249 280 L 251 280 L 251 280 L 251 279 L 251 279 L 251 279 L 251 278 L 251 278 L 251 278 L 252 277 L 252 277 L 252 277 L 252 277 L 252 276 L 252 276 L 252 276 L 254 275 L 254 275 L 254 275 L 254 274 L 255 274 L 255 274 L 255 274 L 255 273 L 255 273 L 256 273 L 256 272 L 256 272 L 257 272 L 257 271 L 257 271 L 257 271 L 257 271 L 257 270 L 258 270 L 258 270 L 258 269 L 259 269 L 259 269 L 259 268 L 260 268 L 261 268 L 261 268 L 263 267 L 264 267 L 264 267 L 265 266 L 265 266 L 265 266 L 265 265 L 265 265 L 266 265 L 267 265 L 268 264 L 268 264 L 269 264 L 270 263 L 271 263 L 271 263 L 273 262 L 274 262 L 274 262 L 275 262 L 275 261 L 278 261 L 279 261 L 279 260 L 282 260 L 283 260 L 286 259 L 286 259 L 287 259 L 288 259 L 288 258 L 288 258 L 290 258 L 292 257 L 293 257 L 293 257 L 295 256 L 295 256 L 295 256 L 295 256 L 295 255 L 296 255 L 296 255 L 297 254 L 297 254 L 297 254 L 297 253 L 301 253 L 305 253 L 305 253 L 305 252 L 307 252 L 309 252 L 309 251 L 309 251 L 310 251 L 311 250 L 311 250 L 311 250 L 311 250 L 311 249 L 312 249 L 312 249 L 312 248 L 312 248 L 313 248 L 314 247 L 314 247 L 314 247 L 315 247 L 315 246 L 315 246 L 315 246 L 315 245 L 315 245 L 315 245 L 315 244 L 315 244 L 315 244 L 318 244 L 320 243 L 320 243 L 321 243 L 329 242 L 330 242 L 332 242 L 334 241 L 341 241 L 342 241 L 343 241 L 343 240 L 343 240 L 343 240 L 343 239 L 343 239 L 344 239 L 345 238 L 351 238 L 352 238 L 355 238 L 359 237 L 363 237 L 365 237 L 367 236 L 371 236 L 371 236 L 378 235 L 385 235 L 385 235 L 390 235 L 390 234 L 394 234 L 395 234 L 397 233 L 397 233 L 398 233 L 398 232 L 400 232 L 401 232 L 403 232 L 406 231 L 406 231 L 407 231 L 408 230 L 410 230 L 413 230 L 413 229 L 416 229 L 419 229 L 420 229 L 420 228 L 421 228 L 422 228 L 422 227 L 425 227 L 427 227 L 429 226 L 431 226 L 431 226 L 434 226 L 435 225 L 437 225 L 441 225 L 441 224 L 444 224 L 445 224 L 445 223 L 446 223 L 446 223 L 448 223 L 448 222 L 450 222 L 452 222 L 453 221 L 453 221 L 453 221 L 459 220 L 459 220 L 460 220 L 460 220 L 460 219 L 461 219 L 461 219 L 461 218 L 462 218 L 463 218 L 463 217 L 464 217 L 465 217 L 465 217 L 466 216 L 466 216 L 466 216 L 467 215 L 467 215 L 467 215 L 468 214 L 468 214 L 468 214 L 468 214 L 469 213 L 470 213 L 470 213 L 470 212 L 471 212 L 471 212 L 472 211 L 473 211 L 473 211 L 474 211 L 475 210 L 476 210 L 476 210 L 476 209 L 477 209 L 478 209 L 478 208 L 478 208 L 479 208 L 479 208 L 479 207 L 479 207 L 479 207 L 480 206 L 480 206 L 483 206 L 484 205 L 485 205 L 485 205 L 487 205 L 488 204 L 488 204 L 490 204 L 492 203 L 494 203 L 496 203 L 496 202 L 496 202 L 496 202 L 497 202 L 497 201 L 497 201 L 497 201 L 498 200 L 498 200 L 498 200 L 499 199 L 500 199 L 500 199 L 500 199 L 501 198 L 501 198 L 503 198 L 504 197 L 504 197 L 504 197 L 505 196 L 507 196 L 512 196 L 512 196 L 512 195 L 512 195 L 514 195 L 516 194 L 516 194 L 516 194 L 516 193 L 517 193 L 518 193 L 520 193 L 521 192 L 521 192 L 521 192 L 522 191 L 523 191 L 523 191 L 523 190 L 525 190 L 528 190 L 528 190 L 531 189 L 531 189 L 532 189 L 535 188 L 535 188 L 538 188 L 539 187 L 540 187 L 541 187 L 541 187 L 542 186 L 542 186 L 542 186 L 542 185 L 543 185 L 543 185 L 543 184 L 544 184 L 544 184 L 544 184 L 545 183 L 545 183 L 546 183 L 549 182 L 550 182 L 554 182 L 555 181 L 556 181 L 556 181 L 557 181 L 559 180 L 560 180 L 560 180 L 560 179 L 560 179 L 560 179 L 561 178 L 561 178 L 561 178 L 561 178 L 561 177 L 561 177 L 562 177 L 562 176 L 562 176 L 563 176 L 564 175 L 564 175 L 565 175 L 565 175 L 566 174 L 566 174 L 566 174 L 567 173 L 569 173 L 569 173 L 569 172 L 569 172 L 569 172 L 570 172 L 570 171 L 570 171 L 571 171 L 573 170 L 575 170 L 577 170 L 578 169 L 579 169 L 582 169 L 585 169 L 585 168 L 587 168 L 591 168 L 591 167 L 591 167 L 595 167 L 596 166 L 596 166 L 597 166 L 597 166 L 604 165 L 604 165 L 605 165 L 605 164 L 605 164 L 606 164 L 606 163 L 607 163 L 607 163 L 608 163 L 608 162 L 608 162 L 608 162 L 609 161 L 609 161 L 609 161 L 609 160 L 609 160 L 609 160 L 611 160 L 612 159 L 612 159 L 612 159 L 613 158 L 613 158 L 614 158 L 615 157 L 615 157 L 616 157 L 616 157 L 616 156 L 616 156 L 617 156 L 618 155 L 619 155 L 619 155 L 619 154 L 620 154 L 620 154 L 620 154 L 621 153 L 621 153 L 621 153 L 621 152 L 622 152 L 623 152 L 623 151 L 624 151 L 624 151 L 624 151 L 624 150 L 624 150 L 625 150 L 625 149 L 625 149 L 625 149 L 626 148 L 626 148 L 627 148 L 627 148 L 627 147 L 627 147 L 627 147 L 627 146 L 628 146 L 628 146 L 628 145 L 628 145 L 628 145 L 628 145 L 630 144 L 631 144 L 633 144 L 633 143 L 633 143 L 633 143 L 634 142 L 635 142 L 636 142 L 636 142 L 638 141 L 640 141 L 640 141 L 641 140 L 642 140 L 642 140 L 643 139 L 643 139 L 643 139 L 643 139 L 643 138 L 643 138 L 643 138 L 644 137 L 644 137 L 644 137 L 644 136 L 644 136 L 644 136 L 645 136 L 645 135 L 645 135 L 646 135 L 646 134 L 648 134 L 648 134 L 648 133 L 648 133 L 649 133 L 649 132 L 650 132 L 653 132 L 653 132 L 653 131 L 653 131 L 653 131 L 655 130 L 657 130 L 657 130 L 659 130 L 659 129 L 659 129 L 659 129 L 660 128 L 664 128 L 665 128 L 668 127 L 669 127 L 670 127 L 670 126 L 671 126 L 671 126 L 672 126 L 672 125 L 672 125 L 673 125 L 673 124 L 674 124 L 675 124 L 676 124 L 676 123 L 676 123 L 676 123 L 676 122 L 676 122 L 676 122 L 676 121 L 676 121 L 676 121 L 676 121 L 676 120 L 676 120 L 677 120 L 677 119 L 677 119 L 677 119 L 677 118 L 677 118 L 678 118 L 678 118 L 678 117 L 678 117 L 678 117 L 678 116 L 678 116 L 678 116 L 679 115 L 679 115 L 679 115 L 679 115 L 679 114 L 679 114 L 680 114 L 682 113 L 683 113 L 683 113 L 684 112 L 685 112 L 685 112 L 685 112 L 686 111 L 687 111 L 688 111 L 689 110 L 689 110 L 689 110 L 689 109 L 689 109 L 689 109 L 689 109 L 691 108 L 691 108 L 691 108 L 695 107 L 696 107 L 697 107 L 699 106 L 700 106 L 701 106 L 701 106 L 701 105 L 701 105 L 702 105 L 702 104 L 702 104 L 703 104 L 703 103 L 704 103 L 704 103 L 704 103 L 704 102 L 704 102 L 704 102 L 704 101 L 704 101 L 705 101 L 705 100 L 705 100 L 706 100 L 707 100 L 707 99 L 707 99 L 708 99 L 708 98 L 708 98 L 709 98 L 709 97 L 709 97 L 710 97 L 710 97 L 711 96 L 714 96 L 716 96 L 718 95 L 719 95 L 720 95 L 722 94 L 723 94 L 723 94 L 726 94 L 730 93 L 731 93 L 732 93 L 734 92 L 735 92 L 736 92 L 736 91 L 738 91 L 738 91 L 739 91 L 739 90 L 741 90 L 742 90 L 742 89 L 742 89 L 743 89 L 743 88 L 743 88 L 744 88 L 747 88 L 747 87 L 748 87 L 749 87 L 750 86 L 751 86 L 751 86 L 752 85 L 752 85 L 752 85 L 753 85 L 753 84 L 754 84 L 754 84 L 755 83 L 756 83 L 756 83 L 756 82 L 757 82 L 758 82 L 758 82 L 758 81 L 759 81 L 759 81 L 759 80 L 759 80 L 759 80 L 760 79 L 760 79 L 762 79 L 763 79 L 764 78 L 767 78 L 767 78 L 768 77 L 769 77 L 771 77 L 773 76 L 775 76 L 776 76 L 777 76 L 777 75 L 779 75 L 781 75 L 783 74 L 783 74 L 783 74 L 783 73 L 783 73 L 783 73 L 784 73 L 785 72 L 786 72 L 786 72 L 787 71 L 787 71 L 792 71 L 793 70 L 794 70 L 795 70 L 797 70 L 798 69 L 798 69 L 798 69 L 799 68 L 799 68 L 800 68 L 800 67 L 801 67 L 801 67 L 802 67 L 802 66 L 802 66 L 803 66 L 804 65 L 804 65 L 807 65 L 807 64 L 812 64 L 812 64 L 812 64 L 813 63 L 814 63 L 814 63 L 814 62 L 815 62 L 817 62 L 818 61 L 820 61 L 820 61 L 820 61 L 820 60 L 822 60 L 823 60 L 825 59 L 825 59 L 825 59 L 826 58 L 826 58 L 826 58 L 826 58 L 827 57 L 828 57 L 828 57 L 829 56 L 830 56 L 831 56 L 831 55 L 831 55 L 831 55 L 832 55 L 832 54 L 835 54 L 839 54 L 839 53 L 842 53 L 843 53 L 846 52 L 846 52 L 847 52 L 847 52 L 848 51 L 849 51 L 850 51 L 852 50 L 853 50 L 856 50 L 860 49 L 860 49 L 860 49 L 861 49 L 861 48 L 862 48 L 863 48 L 863 47 L 871 47 L 873 47 L 873 46 L 875 46 L 876 46 L 879 46 L 880 45 L 881 45 L 881 45 L 882 44 L 883 44 L 888 44 L 889 43 L 890 43 L 891 43 L 893 43 L 894 42 L 894 42 L 894 42 L 894 41 L 895 41 L 895 41 L 895 40 L 897 40 L 898 40 L 899 40 L 900 39 L 900 39 L 901 39 L 903 38 L 906 38 L 908 38 L 908 37 L 910 37 L 910 37 L 910 37 L 910 36 L 910 36 L 911 36 L 911 35 L 913 35 L 914 35 L 914 34 L 914 34 L 915 34 L 915 34 L 915 33 L 915 33 L 915 33 L 915 32 L 915 32 L 916 32 L 916 31 L 916 31 L 917 31 L 917 31 L 917 30 L 918 30 L 918 30 L 918 29 L 918 29 L 919 29 L 924 28 L 925 28 L 926 28 L 927 28 L 927 27 L 927 27 L 927 27 L 927 26 L 927 26 L 927 26 L 927 25 L 927 25 L 927 25 L 927 25 L 927 24 L 928 24 L 928 24 L 928 23 L 928 23 L 928 23 L 928 22 L 929 22 L 929 22 L 929 22 L 930 21 L 930 21 L 932 21 L 933 20 L 934 20 L 934 20 L 934 19 L 934 19 L 936 19 L 936 19 L 937 18 L 937 18" stroke-width="2"></path><path stroke-width="2" d="M 937 346 L 937.000000 15.000000" /><path stroke-width="2" d="M 937 346 L 937.000000 15.000000"></path><path stroke-width="2" d="M 937 346 L 942 346" /><path stroke-width="2" d="M 937 346 L 942 346"></path><text x="947" y="352" xmlns="http://www.w3.org/2000/svg">0</text><path d="M 937 307 L 942 307" stroke-width="2" /><path stroke-width="2" d="M 937 307 L 942 307"></path><text y="313" xmlns="http://www.w3.org/2000/svg" x="947">130</text><path stroke-width="2" d="M 937 271 L 942 271" /><path stroke-width="2" d="M 937 271 L 942 271"></path><text xmlns="http://www.w3.org/2000/svg" x="947" y="277">250</text><path stroke-width="2" d="M 937 235 L 942 235" /><path stroke-width="2" d="M 937 235 L 942 235"></path><text xmlns="http://www.w3.org/2000/svg" x="947" y="241">370</text><path d="M 937 199 L 942 199" stroke-width="2" /><path stroke-width="2" d="M 937 199 L 942 199"></path><text xmlns="http://www.w3.org/2000/svg" x="947" y="205">490</text><path d="M 937 160 L 942 160" stroke-width="2" /><path stroke-width="2" d="M 937 160 L 942 160"></path><text xmlns="http://www.w3.org/2000/svg" x="947" y="166">620</text><path stroke-width="2" d="M 937 124 L 942 124" /><path stroke-width="2" d="M 937 124 L 942 124"></path><text y="130" xmlns="http://www.w3.org/2000/svg" x="947">740</text><path stroke-width="2" d="M 937 88 L 942 88" /><path stroke-width="2" d="M 937 88 L 942 88"></path><text y="94" xmlns="http://www.w3.org/2000/svg" x="947">860</text><path stroke-width="2" d="M 937 52 L 942 52" /><path stroke-width="2" d="M 937 52 L 942 52"></path><text xmlns="http://www.w3.org/2000/svg" x="947" y="58">980</text><path stroke-width="2" d="M 937 16 L 942 16" /><path stroke-width="2" d="M 937 16 L 942 16"></path><text xmlns="http://www.w3.org/2000/svg" x="947" y="22">1100</text><text y="175" transform="rotate(90.00,987,175)" xmlns="http://www.w3.org/2000/svg" x="987">Stargazers</text><path stroke-width="2" d="M 57.000000 346.000000 L 937 346" /><path stroke-width="2" d="M 57.000000 346.000000 L 937 346"></path><path d="M 58 346 L 58 351" stroke-width="2" /><path stroke-width="2" d="M 58 346 L 58 351"></path><text xmlns="http://www.w3.org/2000/svg" x="25" y="368">2023-04-02</text><path stroke-width="2" d="M 156 346 L 156 351" /><path stroke-width="2" d="M 156 346 L 156 351"></path><text xmlns="http://www.w3.org/2000/svg" x="123" y="368">2023-07-10</text><path stroke-width="2" d="M 254 346 L 254 351" /><path d="M 254 346 L 254 351" stroke-width="2"></path><text xmlns="http://www.w3.org/2000/svg" x="221" y="368">2023-10-17</text><path stroke-width="2" d="M 352 346 L 352 351" /><path stroke-width="2" d="M 352 346 L 352 351"></path><text x="319" y="368" xmlns="http://www.w3.org/2000/svg">2024-01-25</text><path stroke-width="2" d="M 449 346 L 449 351" /><path d="M 449 346 L 449 351" stroke-width="2"></path><text xmlns="http://www.w3.org/2000/svg" x="416" y="368">2024-05-03</text><path stroke-width="2" d="M 547 346 L 547 351" /><path stroke-width="2" d="M 547 346 L 547 351"></path><text xmlns="http://www.w3.org/2000/svg" x="514" y="368">2024-08-10</text><path stroke-width="2" d="M 645 346 L 645 351" /><path stroke-width="2" d="M 645 346 L 645 351"></path><text y="368" xmlns="http://www.w3.org/2000/svg" x="612">2024-11-17</text><path d="M 742 346 L 742 351" stroke-width="2" /><path d="M 742 346 L 742 351" stroke-width="2"></path><text xmlns="http://www.w3.org/2000/svg" x="709" y="368">2025-02-25</text><path stroke-width="2" d="M 840 346 L 840 351" /><path stroke-width="2" d="M 840 346 L 840 351"></path><text xmlns="http://www.w3.org/2000/svg" x="807" y="368">2025-06-04</text><path stroke-width="2" d="M 937 346 L 937 351" /><path d="M 937 346 L 937 351" stroke-width="2"></path><text xmlns="http://www.w3.org/2000/svg" x="904" y="368">2025-09-11</text><text x="483" y="390" xmlns="http://www.w3.org/2000/svg">Time</text></svg>