<svg xmlns="http://www.w3.org/2000/svg" xmlns:xlink="http://www.w3.org/1999/xlink" width="1024px" height="400px"><style type="text/css">
path { fill: none; stroke: rgb(51,51,51); }
path.series { stroke: #6b63ff; }
rect.background { fill: rgb(255,255,255); stroke: none; }

text {
	stroke-width: 0;
	stroke: none;
	fill: rgba(51,51,51,1.0);
	font-size: 12.8px;
	font-family: 'Roboto Medium', sans-serif;
}
</style><rect y="0" width="1024px" height="400px" class="background" rx="8" x="0" /><rect width="1024px" height="400px" class="background" rx="8" x="0" y="0"></rect><path stroke-width="2" class="series" d="M 58 345 L 62 344 L 82 344 L 83 343 L 83 343 L 83 342 L 83 342 L 83 341 L 83 340 L 83 340 L 84 339 L 84 339 L 84 338 L 84 338 L 84 337 L 84 337 L 84 336 L 85 335 L 85 335 L 86 334 L 86 334 L 86 333 L 88 333 L 89 332 L 89 332 L 89 331 L 90 330 L 91 330 L 93 329 L 94 329 L 95 328 L 96 328 L 103 327 L 103 326 L 103 326 L 103 325 L 103 325 L 103 324 L 107 324 L 109 323 L 110 323 L 113 322 L 118 321 L 121 321 L 130 320 L 133 320 L 138 319 L 143 319 L 145 318 L 165 318 L 166 317 L 166 316 L 169 316 L 169 315 L 169 315 L 169 314 L 169 314 L 169 313 L 169 313 L 169 312 L 169 311 L 169 311 L 169 310 L 169 310 L 170 309 L 170 309 L 170 308 L 170 307 L 170 307 L 170 306 L 170 306 L 170 305 L 170 305 L 170 304 L 170 304 L 170 303 L 170 302 L 170 302 L 170 301 L 170 301 L 170 300 L 170 300 L 170 299 L 171 299 L 171 298 L 171 297 L 171 297 L 171 296 L 171 296 L 171 295 L 171 295 L 171 294 L 171 293 L 171 293 L 171 292 L 171 292 L 171 291 L 171 291 L 171 290 L 171 290 L 171 289 L 172 288 L 172 288 L 172 287 L 172 287 L 173 286 L 174 286 L 174 285 L 174 285 L 174 284 L 174 283 L 174 283 L 174 282 L 174 282 L 174 281 L 174 281 L 174 280 L 174 280 L 174 279 L 174 278 L 174 278 L 174 277 L 174 277 L 175 276 L 176 276 L 176 275 L 176 274 L 176 274 L 181 273 L 181 273 L 181 272 L 183 272 L 183 271 L 186 271 L 189 270 L 190 269 L 193 269 L 194 268 L 196 268 L 197 267 L 197 267 L 200 266 L 201 266 L 202 265 L 203 264 L 204 264 L 205 263 L 205 263 L 205 262 L 206 262 L 208 261 L 209 260 L 209 260 L 210 259 L 210 259 L 211 258 L 212 258 L 214 257 L 216 257 L 219 256 L 220 255 L 221 255 L 222 254 L 222 254 L 222 253 L 224 253 L 233 252 L 233 252 L 235 251 L 243 250 L 243 250 L 243 249 L 243 249 L 243 248 L 245 248 L 247 247 L 248 247 L 249 246 L 258 245 L 260 245 L 263 244 L 266 244 L 268 243 L 268 243 L 269 242 L 276 241 L 283 241 L 292 240 L 293 240 L 293 239 L 293 239 L 294 238 L 296 238 L 307 237 L 313 236 L 313 236 L 317 235 L 318 235 L 319 234 L 332 234 L 332 233 L 333 233 L 333 232 L 335 231 L 338 231 L 340 230 L 342 230 L 344 229 L 347 229 L 354 228 L 355 227 L 356 227 L 356 226 L 356 226 L 357 225 L 361 225 L 368 224 L 384 224 L 390 223 L 393 222 L 394 222 L 395 221 L 397 221 L 397 220 L 397 220 L 397 219 L 397 219 L 397 218 L 397 217 L 397 217 L 398 216 L 398 216 L 398 215 L 398 215 L 398 214 L 398 214 L 399 213 L 401 212 L 402 212 L 402 211 L 402 211 L 402 210 L 404 210 L 404 209 L 404 208 L 404 208 L 404 207 L 404 207 L 404 206 L 406 206 L 407 205 L 407 205 L 407 204 L 407 203 L 408 203 L 408 202 L 409 202 L 409 201 L 409 201 L 409 200 L 411 200 L 411 199 L 411 198 L 413 198 L 414 197 L 415 197 L 417 196 L 420 196 L 420 195 L 421 194 L 421 194 L 421 193 L 421 193 L 421 192 L 424 192 L 424 191 L 427 191 L 427 190 L 428 189 L 430 189 L 432 188 L 432 188 L 436 187 L 436 187 L 437 186 L 438 186 L 438 185 L 444 184 L 445 184 L 446 183 L 450 183 L 453 182 L 458 182 L 459 181 L 459 181 L 461 180 L 461 179 L 461 179 L 465 178 L 468 178 L 470 177 L 470 177 L 472 176 L 473 175 L 474 175 L 474 174 L 474 174 L 475 173 L 475 173 L 475 172 L 477 172 L 477 171 L 477 170 L 478 170 L 484 169 L 491 169 L 491 168 L 491 168 L 495 167 L 498 167 L 499 166 L 499 165 L 501 165 L 502 164 L 502 164 L 502 163 L 502 163 L 503 162 L 503 161 L 503 161 L 504 160 L 504 160 L 505 159 L 508 159 L 508 158 L 508 158 L 508 157 L 509 156 L 509 156 L 509 155 L 509 155 L 509 154 L 509 154 L 509 153 L 509 153 L 510 152 L 515 151 L 518 151 L 518 150 L 519 150 L 526 149 L 534 149 L 535 148 L 539 148 L 543 147 L 551 146 L 554 146 L 557 145 L 557 145 L 557 144 L 557 144 L 558 143 L 558 142 L 558 142 L 558 141 L 560 141 L 561 140 L 572 140 L 575 139 L 579 139 L 587 138 L 593 137 L 598 137 L 601 136 L 607 136 L 607 135 L 620 135 L 632 134 L 632 134 L 641 133 L 641 132 L 648 132 L 649 131 L 653 131 L 653 130 L 654 130 L 654 129 L 658 128 L 660 128 L 663 127 L 668 127 L 669 126 L 671 126 L 671 125 L 676 125 L 681 124 L 681 123 L 686 123 L 691 122 L 692 122 L 693 121 L 695 121 L 696 120 L 697 120 L 702 119 L 705 118 L 708 118 L 712 117 L 712 117 L 719 116 L 720 116 L 723 115 L 729 115 L 730 114 L 736 113 L 737 113 L 737 112 L 739 112 L 740 111 L 743 111 L 743 110 L 746 109 L 750 109 L 751 108 L 751 108 L 752 107 L 762 107 L 762 106 L 763 106 L 763 105 L 764 104 L 765 104 L 765 103 L 766 103 L 766 102 L 769 102 L 769 101 L 771 101 L 772 100 L 773 99 L 774 99 L 774 98 L 774 98 L 775 97 L 776 97 L 776 96 L 777 95 L 777 95 L 777 94 L 778 94 L 779 93 L 781 93 L 781 92 L 782 92 L 783 91 L 783 90 L 785 90 L 786 89 L 787 89 L 788 88 L 789 88 L 791 87 L 792 87 L 792 86 L 793 85 L 795 85 L 795 84 L 795 84 L 796 83 L 796 83 L 797 82 L 797 82 L 798 81 L 798 80 L 799 80 L 804 79 L 805 79 L 807 78 L 807 78 L 811 77 L 812 76 L 813 76 L 816 75 L 820 75 L 823 74 L 826 74 L 827 73 L 827 73 L 827 72 L 828 71 L 829 71 L 829 70 L 829 70 L 831 69 L 831 69 L 831 68 L 831 68 L 833 67 L 835 66 L 835 66 L 836 65 L 836 65 L 840 64 L 840 64 L 840 63 L 842 62 L 843 62 L 846 61 L 850 61 L 855 60 L 855 60 L 855 59 L 855 59 L 858 58 L 861 57 L 862 57 L 862 56 L 862 56 L 863 55 L 865 55 L 869 54 L 870 54 L 870 53 L 870 52 L 873 52 L 874 51 L 874 51 L 874 50 L 874 50 L 878 49 L 883 49 L 883 48 L 888 47 L 889 47 L 890 46 L 894 46 L 896 45 L 900 45 L 902 44 L 904 43 L 906 43 L 906 42 L 907 42 L 907 41 L 907 41 L 907 40 L 908 40 L 909 39 L 909 38 L 910 38 L 910 37 L 910 37 L 912 36 L 913 36 L 914 35 L 921 35 L 921 34 L 928 33 L 931 33 L 931 32 L 933 32 L 933 31 L 937 31 L 938 30 L 939 29 L 939 29 L 940 28 L 940 28 L 940 27 L 940 27 L 940 26 L 941 26 L 941 25 L 941 24 L 941 24 L 942 23 L 943 23 L 943 22 L 943 22 L 944 21 L 945 21 L 945 20" /><path stroke-width="2" class="series" d="M 58 345 L 62 344 L 82 344 L 83 343 L 83 343 L 83 342 L 83 342 L 83 341 L 83 340 L 83 340 L 84 339 L 84 339 L 84 338 L 84 338 L 84 337 L 84 337 L 84 336 L 85 335 L 85 335 L 86 334 L 86 334 L 86 333 L 88 333 L 89 332 L 89 332 L 89 331 L 90 330 L 91 330 L 93 329 L 94 329 L 95 328 L 96 328 L 103 327 L 103 326 L 103 326 L 103 325 L 103 325 L 103 324 L 107 324 L 109 323 L 110 323 L 113 322 L 118 321 L 121 321 L 130 320 L 133 320 L 138 319 L 143 319 L 145 318 L 165 318 L 166 317 L 166 316 L 169 316 L 169 315 L 169 315 L 169 314 L 169 314 L 169 313 L 169 313 L 169 312 L 169 311 L 169 311 L 169 310 L 169 310 L 170 309 L 170 309 L 170 308 L 170 307 L 170 307 L 170 306 L 170 306 L 170 305 L 170 305 L 170 304 L 170 304 L 170 303 L 170 302 L 170 302 L 170 301 L 170 301 L 170 300 L 170 300 L 170 299 L 171 299 L 171 298 L 171 297 L 171 297 L 171 296 L 171 296 L 171 295 L 171 295 L 171 294 L 171 293 L 171 293 L 171 292 L 171 292 L 171 291 L 171 291 L 171 290 L 171 290 L 171 289 L 172 288 L 172 288 L 172 287 L 172 287 L 173 286 L 174 286 L 174 285 L 174 285 L 174 284 L 174 283 L 174 283 L 174 282 L 174 282 L 174 281 L 174 281 L 174 280 L 174 280 L 174 279 L 174 278 L 174 278 L 174 277 L 174 277 L 175 276 L 176 276 L 176 275 L 176 274 L 176 274 L 181 273 L 181 273 L 181 272 L 183 272 L 183 271 L 186 271 L 189 270 L 190 269 L 193 269 L 194 268 L 196 268 L 197 267 L 197 267 L 200 266 L 201 266 L 202 265 L 203 264 L 204 264 L 205 263 L 205 263 L 205 262 L 206 262 L 208 261 L 209 260 L 209 260 L 210 259 L 210 259 L 211 258 L 212 258 L 214 257 L 216 257 L 219 256 L 220 255 L 221 255 L 222 254 L 222 254 L 222 253 L 224 253 L 233 252 L 233 252 L 235 251 L 243 250 L 243 250 L 243 249 L 243 249 L 243 248 L 245 248 L 247 247 L 248 247 L 249 246 L 258 245 L 260 245 L 263 244 L 266 244 L 268 243 L 268 243 L 269 242 L 276 241 L 283 241 L 292 240 L 293 240 L 293 239 L 293 239 L 294 238 L 296 238 L 307 237 L 313 236 L 313 236 L 317 235 L 318 235 L 319 234 L 332 234 L 332 233 L 333 233 L 333 232 L 335 231 L 338 231 L 340 230 L 342 230 L 344 229 L 347 229 L 354 228 L 355 227 L 356 227 L 356 226 L 356 226 L 357 225 L 361 225 L 368 224 L 384 224 L 390 223 L 393 222 L 394 222 L 395 221 L 397 221 L 397 220 L 397 220 L 397 219 L 397 219 L 397 218 L 397 217 L 397 217 L 398 216 L 398 216 L 398 215 L 398 215 L 398 214 L 398 214 L 399 213 L 401 212 L 402 212 L 402 211 L 402 211 L 402 210 L 404 210 L 404 209 L 404 208 L 404 208 L 404 207 L 404 207 L 404 206 L 406 206 L 407 205 L 407 205 L 407 204 L 407 203 L 408 203 L 408 202 L 409 202 L 409 201 L 409 201 L 409 200 L 411 200 L 411 199 L 411 198 L 413 198 L 414 197 L 415 197 L 417 196 L 420 196 L 420 195 L 421 194 L 421 194 L 421 193 L 421 193 L 421 192 L 424 192 L 424 191 L 427 191 L 427 190 L 428 189 L 430 189 L 432 188 L 432 188 L 436 187 L 436 187 L 437 186 L 438 186 L 438 185 L 444 184 L 445 184 L 446 183 L 450 183 L 453 182 L 458 182 L 459 181 L 459 181 L 461 180 L 461 179 L 461 179 L 465 178 L 468 178 L 470 177 L 470 177 L 472 176 L 473 175 L 474 175 L 474 174 L 474 174 L 475 173 L 475 173 L 475 172 L 477 172 L 477 171 L 477 170 L 478 170 L 484 169 L 491 169 L 491 168 L 491 168 L 495 167 L 498 167 L 499 166 L 499 165 L 501 165 L 502 164 L 502 164 L 502 163 L 502 163 L 503 162 L 503 161 L 503 161 L 504 160 L 504 160 L 505 159 L 508 159 L 508 158 L 508 158 L 508 157 L 509 156 L 509 156 L 509 155 L 509 155 L 509 154 L 509 154 L 509 153 L 509 153 L 510 152 L 515 151 L 518 151 L 518 150 L 519 150 L 526 149 L 534 149 L 535 148 L 539 148 L 543 147 L 551 146 L 554 146 L 557 145 L 557 145 L 557 144 L 557 144 L 558 143 L 558 142 L 558 142 L 558 141 L 560 141 L 561 140 L 572 140 L 575 139 L 579 139 L 587 138 L 593 137 L 598 137 L 601 136 L 607 136 L 607 135 L 620 135 L 632 134 L 632 134 L 641 133 L 641 132 L 648 132 L 649 131 L 653 131 L 653 130 L 654 130 L 654 129 L 658 128 L 660 128 L 663 127 L 668 127 L 669 126 L 671 126 L 671 125 L 676 125 L 681 124 L 681 123 L 686 123 L 691 122 L 692 122 L 693 121 L 695 121 L 696 120 L 697 120 L 702 119 L 705 118 L 708 118 L 712 117 L 712 117 L 719 116 L 720 116 L 723 115 L 729 115 L 730 114 L 736 113 L 737 113 L 737 112 L 739 112 L 740 111 L 743 111 L 743 110 L 746 109 L 750 109 L 751 108 L 751 108 L 752 107 L 762 107 L 762 106 L 763 106 L 763 105 L 764 104 L 765 104 L 765 103 L 766 103 L 766 102 L 769 102 L 769 101 L 771 101 L 772 100 L 773 99 L 774 99 L 774 98 L 774 98 L 775 97 L 776 97 L 776 96 L 777 95 L 777 95 L 777 94 L 778 94 L 779 93 L 781 93 L 781 92 L 782 92 L 783 91 L 783 90 L 785 90 L 786 89 L 787 89 L 788 88 L 789 88 L 791 87 L 792 87 L 792 86 L 793 85 L 795 85 L 795 84 L 795 84 L 796 83 L 796 83 L 797 82 L 797 82 L 798 81 L 798 80 L 799 80 L 804 79 L 805 79 L 807 78 L 807 78 L 811 77 L 812 76 L 813 76 L 816 75 L 820 75 L 823 74 L 826 74 L 827 73 L 827 73 L 827 72 L 828 71 L 829 71 L 829 70 L 829 70 L 831 69 L 831 69 L 831 68 L 831 68 L 833 67 L 835 66 L 835 66 L 836 65 L 836 65 L 840 64 L 840 64 L 840 63 L 842 62 L 843 62 L 846 61 L 850 61 L 855 60 L 855 60 L 855 59 L 855 59 L 858 58 L 861 57 L 862 57 L 862 56 L 862 56 L 863 55 L 865 55 L 869 54 L 870 54 L 870 53 L 870 52 L 873 52 L 874 51 L 874 51 L 874 50 L 874 50 L 878 49 L 883 49 L 883 48 L 888 47 L 889 47 L 890 46 L 894 46 L 896 45 L 900 45 L 902 44 L 904 43 L 906 43 L 906 42 L 907 42 L 907 41 L 907 41 L 907 40 L 908 40 L 909 39 L 909 38 L 910 38 L 910 37 L 910 37 L 912 36 L 913 36 L 914 35 L 921 35 L 921 34 L 928 33 L 931 33 L 931 32 L 933 32 L 933 31 L 937 31 L 938 30 L 939 29 L 939 29 L 940 28 L 940 28 L 940 27 L 940 27 L 940 26 L 941 26 L 941 25 L 941 24 L 941 24 L 942 23 L 943 23 L 943 22 L 943 22 L 944 21 L 945 21 L 945 20"></path><path stroke-width="2" d="M 945 346 L 945.000000 15.000000" /><path stroke-width="2" d="M 945 346 L 945.000000 15.000000"></path><path stroke-width="2" d="M 945 346 L 950 346" /><path d="M 945 346 L 950 346" stroke-width="2"></path><text xmlns="http://www.w3.org/2000/svg" x="955" y="352">0</text><path stroke-width="2" d="M 945 309 L 950 309" /><path stroke-width="2" d="M 945 309 L 950 309"></path><text xmlns="http://www.w3.org/2000/svg" x="955" y="315">66</text><path stroke-width="2" d="M 945 272 L 950 272" /><path stroke-width="2" d="M 945 272 L 950 272"></path><text xmlns="http://www.w3.org/2000/svg" x="955" y="278">132</text><path stroke-width="2" d="M 945 235 L 950 235" /><path stroke-width="2" d="M 945 235 L 950 235"></path><text y="241" xmlns="http://www.w3.org/2000/svg" x="955">197</text><path stroke-width="2" d="M 945 198 L 950 198" /><path stroke-width="2" d="M 945 198 L 950 198"></path><text xmlns="http://www.w3.org/2000/svg" x="955" y="204">263</text><path stroke-width="2" d="M 945 162 L 950 162" /><path stroke-width="2" d="M 945 162 L 950 162"></path><text xmlns="http://www.w3.org/2000/svg" x="955" y="168">328</text><path stroke-width="2" d="M 945 125 L 950 125" /><path d="M 945 125 L 950 125" stroke-width="2"></path><text xmlns="http://www.w3.org/2000/svg" x="955" y="131">394</text><path stroke-width="2" d="M 945 89 L 950 89" /><path d="M 945 89 L 950 89" stroke-width="2"></path><text x="955" y="95" xmlns="http://www.w3.org/2000/svg">459</text><path stroke-width="2" d="M 945 52 L 950 52" /><path stroke-width="2" d="M 945 52 L 950 52"></path><text xmlns="http://www.w3.org/2000/svg" x="955" y="58">525</text><path stroke-width="2" d="M 945 16 L 950 16" /><path stroke-width="2" d="M 945 16 L 950 16"></path><text y="22" xmlns="http://www.w3.org/2000/svg" x="955">590</text><text xmlns="http://www.w3.org/2000/svg" x="987" y="175" transform="rotate(90.00,987,175)">Stargazers</text><path stroke-width="2" d="M 57.000000 346.000000 L 945 346" /><path stroke-width="2" d="M 57.000000 346.000000 L 945 346"></path><path stroke-width="2" d="M 58 346 L 58 351" /><path stroke-width="2" d="M 58 346 L 58 351"></path><text x="25" y="368" xmlns="http://www.w3.org/2000/svg">2023-04-02</text><path d="M 157 346 L 157 351" stroke-width="2" /><path stroke-width="2" d="M 157 346 L 157 351"></path><text x="124" y="368" xmlns="http://www.w3.org/2000/svg">2023-05-29</text><path stroke-width="2" d="M 256 346 L 256 351" /><path stroke-width="2" d="M 256 346 L 256 351"></path><text xmlns="http://www.w3.org/2000/svg" x="223" y="368">2023-07-25</text><path stroke-width="2" d="M 354 346 L 354 351" /><path d="M 354 346 L 354 351" stroke-width="2"></path><text xmlns="http://www.w3.org/2000/svg" x="321" y="368">2023-09-20</text><path stroke-width="2" d="M 453 346 L 453 351" /><path stroke-width="2" d="M 453 346 L 453 351"></path><text y="368" xmlns="http://www.w3.org/2000/svg" x="420">2023-11-16</text><path stroke-width="2" d="M 551 346 L 551 351" /><path stroke-width="2" d="M 551 346 L 551 351"></path><text xmlns="http://www.w3.org/2000/svg" x="518" y="368">2024-01-12</text><path stroke-width="2" d="M 650 346 L 650 351" /><path d="M 650 346 L 650 351" stroke-width="2"></path><text xmlns="http://www.w3.org/2000/svg" x="617" y="368">2024-03-09</text><path stroke-width="2" d="M 748 346 L 748 351" /><path stroke-width="2" d="M 748 346 L 748 351"></path><text xmlns="http://www.w3.org/2000/svg" x="715" y="368">2024-05-05</text><path d="M 847 346 L 847 351" stroke-width="2" /><path stroke-width="2" d="M 847 346 L 847 351"></path><text xmlns="http://www.w3.org/2000/svg" x="814" y="368">2024-07-01</text><path d="M 945 346 L 945 351" stroke-width="2" /><path stroke-width="2" d="M 945 346 L 945 351"></path><text xmlns="http://www.w3.org/2000/svg" x="912" y="368">2024-08-27</text><text xmlns="http://www.w3.org/2000/svg" x="487" y="390">Time</text></svg>