<svg xmlns="http://www.w3.org/2000/svg" xmlns:xlink="http://www.w3.org/1999/xlink" width="1024px" height="400px"><style type="text/css">
path { fill: none; stroke: rgb(51,51,51); }
path.series { stroke: #6b63ff; }
rect.background { fill: rgb(255,255,255); stroke: none; }

text {
	stroke-width: 0;
	stroke: none;
	fill: rgba(51,51,51,1.0);
	font-size: 12.8px;
	font-family: 'Roboto Medium', sans-serif;
}
</style><rect height="400px" class="background" rx="8" x="0" y="0" width="1024px" /><rect x="0" y="0" width="1024px" height="400px" class="background" rx="8"></rect><path stroke-width="2" class="series" d="M 58 345 L 61 344 L 81 344 L 81 343 L 81 343 L 81 342 L 81 342 L 81 341 L 81 341 L 81 340 L 82 340 L 82 339 L 82 339 L 82 338 L 82 338 L 82 337 L 82 336 L 83 336 L 83 335 L 84 335 L 84 334 L 84 334 L 86 333 L 87 333 L 87 332 L 87 332 L 87 331 L 89 331 L 91 330 L 91 330 L 92 329 L 94 328 L 100 328 L 100 327 L 100 327 L 100 326 L 100 326 L 100 325 L 103 325 L 105 324 L 106 324 L 109 323 L 114 323 L 116 322 L 124 322 L 127 321 L 132 320 L 136 320 L 139 319 L 157 319 L 158 318 L 158 318 L 160 317 L 161 317 L 161 316 L 161 316 L 161 315 L 161 315 L 161 314 L 161 314 L 161 313 L 161 313 L 161 312 L 161 311 L 161 311 L 162 310 L 162 310 L 162 309 L 162 309 L 162 308 L 162 308 L 162 307 L 162 307 L 162 306 L 162 306 L 162 305 L 162 305 L 162 304 L 162 303 L 162 303 L 162 302 L 162 302 L 162 301 L 162 301 L 162 300 L 162 300 L 162 299 L 162 299 L 162 298 L 162 298 L 162 297 L 162 297 L 162 296 L 162 295 L 162 295 L 162 294 L 162 294 L 162 293 L 163 293 L 163 292 L 163 292 L 163 291 L 163 291 L 163 290 L 164 290 L 164 289 L 165 289 L 165 288 L 165 287 L 165 287 L 165 286 L 165 286 L 165 285 L 165 285 L 165 284 L 165 284 L 165 283 L 165 283 L 165 282 L 165 282 L 165 281 L 165 281 L 165 280 L 166 280 L 167 279 L 167 278 L 167 278 L 167 277 L 171 277 L 172 276 L 172 276 L 173 275 L 173 275 L 176 274 L 179 274 L 180 273 L 183 273 L 184 272 L 186 272 L 186 271 L 187 270 L 189 270 L 190 269 L 191 269 L 192 268 L 193 268 L 194 267 L 194 267 L 194 266 L 195 266 L 196 265 L 198 265 L 198 264 L 198 264 L 199 263 L 199 262 L 200 262 L 202 261 L 204 261 L 206 260 L 207 260 L 208 259 L 210 259 L 210 258 L 210 258 L 212 257 L 220 257 L 220 256 L 221 256 L 229 255 L 229 254 L 229 254 L 229 253 L 229 253 L 230 252 L 233 252 L 234 251 L 234 251 L 243 250 L 245 250 L 247 249 L 250 249 L 252 248 L 252 248 L 253 247 L 259 247 L 266 246 L 274 245 L 275 245 L 275 244 L 275 244 L 276 243 L 277 243 L 288 242 L 293 242 L 293 241 L 297 241 L 298 240 L 299 240 L 311 239 L 311 239 L 312 238 L 312 237 L 314 237 L 317 236 L 318 236 L 321 235 L 322 235 L 325 234 L 332 234 L 332 233 L 333 233 L 333 232 L 334 232 L 334 231 L 337 231 L 344 230 L 359 229 L 364 229 L 368 228 L 368 228 L 370 227 L 371 227 L 371 226 L 371 226 L 371 225 L 371 225 L 371 224 L 371 224 L 371 223 L 372 223 L 372 222 L 372 221 L 372 221 L 372 220 L 372 220 L 373 219 L 375 219 L 376 218 L 376 218 L 376 217 L 376 217 L 378 216 L 378 216 L 378 215 L 378 215 L 378 214 L 378 214 L 378 213 L 379 212 L 380 212 L 380 211 L 381 211 L 381 210 L 381 210 L 381 209 L 382 209 L 382 208 L 382 208 L 383 207 L 384 207 L 384 206 L 384 206 L 385 205 L 387 204 L 388 204 L 389 203 L 392 203 L 392 202 L 393 202 L 393 201 L 393 201 L 393 200 L 394 200 L 396 199 L 396 199 L 399 198 L 399 198 L 400 197 L 402 196 L 404 196 L 404 195 L 407 195 L 407 194 L 408 194 L 409 193 L 409 193 L 415 192 L 416 192 L 416 191 L 420 191 L 423 190 L 427 190 L 428 189 L 429 188 L 430 188 L 430 187 L 430 187 L 434 186 L 436 186 L 438 185 L 439 185 L 440 184 L 442 184 L 442 183 L 442 183 L 442 182 L 443 182 L 443 181 L 443 181 L 445 180 L 445 179 L 445 179 L 446 178 L 451 178 L 457 177 L 457 177 L 458 176 L 462 176 L 464 175 L 465 175 L 465 174 L 467 174 L 468 173 L 468 173 L 468 172 L 468 171 L 469 171 L 469 170 L 469 170 L 470 169 L 470 169 L 471 168 L 474 168 L 474 167 L 474 167 L 474 166 L 474 166 L 474 165 L 475 165 L 475 164 L 475 163 L 475 163 L 475 162 L 475 162 L 475 161 L 480 161 L 483 160 L 483 160 L 484 159 L 497 159 L 499 158 L 502 158 L 506 157 L 513 157 L 516 156 L 519 155 L 519 155 L 519 154 L 519 154 L 520 153 L 520 153 L 520 152 L 520 152 L 521 151 L 523 151 L 532 150 L 535 150 L 539 149 L 547 149 L 552 148 L 556 148 L 559 147 L 565 146 L 565 146 L 577 145 L 588 145 L 588 144 L 596 144 L 597 143 L 603 143 L 604 142 L 608 142 L 608 141 L 609 141 L 609 140 L 612 140 L 614 139 L 617 138 L 622 138 L 622 137 L 624 137 L 625 136 L 629 136 L 633 135 L 633 135 L 638 134 L 643 134 L 644 133 L 644 133 L 646 132 L 647 132 L 649 131 L 652 130 L 656 130 L 659 129 L 662 129 L 662 128 L 668 128 L 669 127 L 673 127 L 678 126 L 678 126 L 684 125 L 685 125 L 685 124 L 687 124 L 688 123 L 690 122 L 691 122 L 693 121 L 697 121 L 698 120 L 698 120 L 699 119 L 708 119 L 708 118 L 709 118 L 709 117 L 710 117 L 711 116 L 711 116 L 712 115 L 712 115 L 714 114 L 715 113 L 716 113 L 717 112 L 718 112 L 719 111 L 720 111 L 720 110 L 721 110 L 721 109 L 721 109 L 722 108 L 722 108 L 722 107 L 723 107 L 724 106 L 726 105 L 726 105 L 726 104 L 727 104 L 728 103 L 729 103 L 731 102 L 731 102 L 732 101 L 733 101 L 735 100 L 735 100 L 736 99 L 736 99 L 739 98 L 739 97 L 739 97 L 740 96 L 740 96 L 740 95 L 740 95 L 741 94 L 741 94 L 743 93 L 747 93 L 748 92 L 750 92 L 750 91 L 753 91 L 755 90 L 755 89 L 758 89 L 761 88 L 764 88 L 767 87 L 768 87 L 768 86 L 769 86 L 769 85 L 770 85 L 770 84 L 770 84 L 771 83 L 771 83 L 772 82 L 772 82 L 774 81 L 775 80 L 775 80 L 776 79 L 777 79 L 780 78 L 780 78 L 780 77 L 782 77 L 783 76 L 786 76 L 789 75 L 794 75 L 794 74 L 794 74 L 794 73 L 797 72 L 800 72 L 800 71 L 801 71 L 801 70 L 801 70 L 803 69 L 807 69 L 808 68 L 808 68 L 808 67 L 811 67 L 811 66 L 811 66 L 811 65 L 812 64 L 815 64 L 820 63 L 820 63 L 825 62 L 825 62 L 826 61 L 830 61 L 832 60 L 835 60 L 838 59 L 840 59 L 841 58 L 841 58 L 842 57 L 842 56 L 842 56 L 842 55 L 843 55 L 844 54 L 844 54 L 845 53 L 845 53 L 845 52 L 847 52 L 848 51 L 848 51 L 855 50 L 855 50 L 861 49 L 864 49 L 864 48 L 866 47 L 866 47 L 870 46 L 870 46 L 871 45 L 871 45 L 872 44 L 872 44 L 872 43 L 873 43 L 873 42 L 874 42 L 874 41 L 874 41 L 874 40 L 874 39 L 875 39 L 876 38 L 876 38 L 877 37 L 878 37 L 878 36 L 879 36 L 881 35 L 881 35 L 881 34 L 882 34 L 883 33 L 887 33 L 887 32 L 887 31 L 887 31 L 887 30 L 888 30 L 889 29 L 889 29 L 890 28 L 893 28 L 896 27 L 900 27 L 901 26 L 903 26 L 908 25 L 912 25 L 913 24 L 916 23 L 921 23 L 921 22 L 922 22 L 928 21 L 930 21 L 930 20 L 931 20 L 931 19 L 942 19 L 943 18 L 944 18 L 944 17 L 945 17 L 945 16" /><path stroke-width="2" class="series" d="M 58 345 L 61 344 L 81 344 L 81 343 L 81 343 L 81 342 L 81 342 L 81 341 L 81 341 L 81 340 L 82 340 L 82 339 L 82 339 L 82 338 L 82 338 L 82 337 L 82 336 L 83 336 L 83 335 L 84 335 L 84 334 L 84 334 L 86 333 L 87 333 L 87 332 L 87 332 L 87 331 L 89 331 L 91 330 L 91 330 L 92 329 L 94 328 L 100 328 L 100 327 L 100 327 L 100 326 L 100 326 L 100 325 L 103 325 L 105 324 L 106 324 L 109 323 L 114 323 L 116 322 L 124 322 L 127 321 L 132 320 L 136 320 L 139 319 L 157 319 L 158 318 L 158 318 L 160 317 L 161 317 L 161 316 L 161 316 L 161 315 L 161 315 L 161 314 L 161 314 L 161 313 L 161 313 L 161 312 L 161 311 L 161 311 L 162 310 L 162 310 L 162 309 L 162 309 L 162 308 L 162 308 L 162 307 L 162 307 L 162 306 L 162 306 L 162 305 L 162 305 L 162 304 L 162 303 L 162 303 L 162 302 L 162 302 L 162 301 L 162 301 L 162 300 L 162 300 L 162 299 L 162 299 L 162 298 L 162 298 L 162 297 L 162 297 L 162 296 L 162 295 L 162 295 L 162 294 L 162 294 L 162 293 L 163 293 L 163 292 L 163 292 L 163 291 L 163 291 L 163 290 L 164 290 L 164 289 L 165 289 L 165 288 L 165 287 L 165 287 L 165 286 L 165 286 L 165 285 L 165 285 L 165 284 L 165 284 L 165 283 L 165 283 L 165 282 L 165 282 L 165 281 L 165 281 L 165 280 L 166 280 L 167 279 L 167 278 L 167 278 L 167 277 L 171 277 L 172 276 L 172 276 L 173 275 L 173 275 L 176 274 L 179 274 L 180 273 L 183 273 L 184 272 L 186 272 L 186 271 L 187 270 L 189 270 L 190 269 L 191 269 L 192 268 L 193 268 L 194 267 L 194 267 L 194 266 L 195 266 L 196 265 L 198 265 L 198 264 L 198 264 L 199 263 L 199 262 L 200 262 L 202 261 L 204 261 L 206 260 L 207 260 L 208 259 L 210 259 L 210 258 L 210 258 L 212 257 L 220 257 L 220 256 L 221 256 L 229 255 L 229 254 L 229 254 L 229 253 L 229 253 L 230 252 L 233 252 L 234 251 L 234 251 L 243 250 L 245 250 L 247 249 L 250 249 L 252 248 L 252 248 L 253 247 L 259 247 L 266 246 L 274 245 L 275 245 L 275 244 L 275 244 L 276 243 L 277 243 L 288 242 L 293 242 L 293 241 L 297 241 L 298 240 L 299 240 L 311 239 L 311 239 L 312 238 L 312 237 L 314 237 L 317 236 L 318 236 L 321 235 L 322 235 L 325 234 L 332 234 L 332 233 L 333 233 L 333 232 L 334 232 L 334 231 L 337 231 L 344 230 L 359 229 L 364 229 L 368 228 L 368 228 L 370 227 L 371 227 L 371 226 L 371 226 L 371 225 L 371 225 L 371 224 L 371 224 L 371 223 L 372 223 L 372 222 L 372 221 L 372 221 L 372 220 L 372 220 L 373 219 L 375 219 L 376 218 L 376 218 L 376 217 L 376 217 L 378 216 L 378 216 L 378 215 L 378 215 L 378 214 L 378 214 L 378 213 L 379 212 L 380 212 L 380 211 L 381 211 L 381 210 L 381 210 L 381 209 L 382 209 L 382 208 L 382 208 L 383 207 L 384 207 L 384 206 L 384 206 L 385 205 L 387 204 L 388 204 L 389 203 L 392 203 L 392 202 L 393 202 L 393 201 L 393 201 L 393 200 L 394 200 L 396 199 L 396 199 L 399 198 L 399 198 L 400 197 L 402 196 L 404 196 L 404 195 L 407 195 L 407 194 L 408 194 L 409 193 L 409 193 L 415 192 L 416 192 L 416 191 L 420 191 L 423 190 L 427 190 L 428 189 L 429 188 L 430 188 L 430 187 L 430 187 L 434 186 L 436 186 L 438 185 L 439 185 L 440 184 L 442 184 L 442 183 L 442 183 L 442 182 L 443 182 L 443 181 L 443 181 L 445 180 L 445 179 L 445 179 L 446 178 L 451 178 L 457 177 L 457 177 L 458 176 L 462 176 L 464 175 L 465 175 L 465 174 L 467 174 L 468 173 L 468 173 L 468 172 L 468 171 L 469 171 L 469 170 L 469 170 L 470 169 L 470 169 L 471 168 L 474 168 L 474 167 L 474 167 L 474 166 L 474 166 L 474 165 L 475 165 L 475 164 L 475 163 L 475 163 L 475 162 L 475 162 L 475 161 L 480 161 L 483 160 L 483 160 L 484 159 L 497 159 L 499 158 L 502 158 L 506 157 L 513 157 L 516 156 L 519 155 L 519 155 L 519 154 L 519 154 L 520 153 L 520 153 L 520 152 L 520 152 L 521 151 L 523 151 L 532 150 L 535 150 L 539 149 L 547 149 L 552 148 L 556 148 L 559 147 L 565 146 L 565 146 L 577 145 L 588 145 L 588 144 L 596 144 L 597 143 L 603 143 L 604 142 L 608 142 L 608 141 L 609 141 L 609 140 L 612 140 L 614 139 L 617 138 L 622 138 L 622 137 L 624 137 L 625 136 L 629 136 L 633 135 L 633 135 L 638 134 L 643 134 L 644 133 L 644 133 L 646 132 L 647 132 L 649 131 L 652 130 L 656 130 L 659 129 L 662 129 L 662 128 L 668 128 L 669 127 L 673 127 L 678 126 L 678 126 L 684 125 L 685 125 L 685 124 L 687 124 L 688 123 L 690 122 L 691 122 L 693 121 L 697 121 L 698 120 L 698 120 L 699 119 L 708 119 L 708 118 L 709 118 L 709 117 L 710 117 L 711 116 L 711 116 L 712 115 L 712 115 L 714 114 L 715 113 L 716 113 L 717 112 L 718 112 L 719 111 L 720 111 L 720 110 L 721 110 L 721 109 L 721 109 L 722 108 L 722 108 L 722 107 L 723 107 L 724 106 L 726 105 L 726 105 L 726 104 L 727 104 L 728 103 L 729 103 L 731 102 L 731 102 L 732 101 L 733 101 L 735 100 L 735 100 L 736 99 L 736 99 L 739 98 L 739 97 L 739 97 L 740 96 L 740 96 L 740 95 L 740 95 L 741 94 L 741 94 L 743 93 L 747 93 L 748 92 L 750 92 L 750 91 L 753 91 L 755 90 L 755 89 L 758 89 L 761 88 L 764 88 L 767 87 L 768 87 L 768 86 L 769 86 L 769 85 L 770 85 L 770 84 L 770 84 L 771 83 L 771 83 L 772 82 L 772 82 L 774 81 L 775 80 L 775 80 L 776 79 L 777 79 L 780 78 L 780 78 L 780 77 L 782 77 L 783 76 L 786 76 L 789 75 L 794 75 L 794 74 L 794 74 L 794 73 L 797 72 L 800 72 L 800 71 L 801 71 L 801 70 L 801 70 L 803 69 L 807 69 L 808 68 L 808 68 L 808 67 L 811 67 L 811 66 L 811 66 L 811 65 L 812 64 L 815 64 L 820 63 L 820 63 L 825 62 L 825 62 L 826 61 L 830 61 L 832 60 L 835 60 L 838 59 L 840 59 L 841 58 L 841 58 L 842 57 L 842 56 L 842 56 L 842 55 L 843 55 L 844 54 L 844 54 L 845 53 L 845 53 L 845 52 L 847 52 L 848 51 L 848 51 L 855 50 L 855 50 L 861 49 L 864 49 L 864 48 L 866 47 L 866 47 L 870 46 L 870 46 L 871 45 L 871 45 L 872 44 L 872 44 L 872 43 L 873 43 L 873 42 L 874 42 L 874 41 L 874 41 L 874 40 L 874 39 L 875 39 L 876 38 L 876 38 L 877 37 L 878 37 L 878 36 L 879 36 L 881 35 L 881 35 L 881 34 L 882 34 L 883 33 L 887 33 L 887 32 L 887 31 L 887 31 L 887 30 L 888 30 L 889 29 L 889 29 L 890 28 L 893 28 L 896 27 L 900 27 L 901 26 L 903 26 L 908 25 L 912 25 L 913 24 L 916 23 L 921 23 L 921 22 L 922 22 L 928 21 L 930 21 L 930 20 L 931 20 L 931 19 L 942 19 L 943 18 L 944 18 L 944 17 L 945 17 L 945 16"></path><path stroke-width="2" d="M 945 346 L 945.000000 15.000000" /><path stroke-width="2" d="M 945 346 L 945.000000 15.000000"></path><path stroke-width="2" d="M 945 346 L 950 346" /><path stroke-width="2" d="M 945 346 L 950 346"></path><text xmlns="http://www.w3.org/2000/svg" x="955" y="352">0</text><path stroke-width="2" d="M 945 309 L 950 309" /><path stroke-width="2" d="M 945 309 L 950 309"></path><text xmlns="http://www.w3.org/2000/svg" x="955" y="315">69</text><path stroke-width="2" d="M 945 272 L 950 272" /><path stroke-width="2" d="M 945 272 L 950 272"></path><text xmlns="http://www.w3.org/2000/svg" x="955" y="278">138</text><path stroke-width="2" d="M 945 235 L 950 235" /><path d="M 945 235 L 950 235" stroke-width="2"></path><text xmlns="http://www.w3.org/2000/svg" x="955" y="241">207</text><path d="M 945 199 L 950 199" stroke-width="2" /><path stroke-width="2" d="M 945 199 L 950 199"></path><text xmlns="http://www.w3.org/2000/svg" x="955" y="205">276</text><path stroke-width="2" d="M 945 162 L 950 162" /><path stroke-width="2" d="M 945 162 L 950 162"></path><text y="168" xmlns="http://www.w3.org/2000/svg" x="955">345</text><path stroke-width="2" d="M 945 125 L 950 125" /><path stroke-width="2" d="M 945 125 L 950 125"></path><text xmlns="http://www.w3.org/2000/svg" x="955" y="131">414</text><path d="M 945 88 L 950 88" stroke-width="2" /><path stroke-width="2" d="M 945 88 L 950 88"></path><text xmlns="http://www.w3.org/2000/svg" x="955" y="94">483</text><path stroke-width="2" d="M 945 52 L 950 52" /><path d="M 945 52 L 950 52" stroke-width="2"></path><text xmlns="http://www.w3.org/2000/svg" x="955" y="58">552</text><path d="M 945 16 L 950 16" stroke-width="2" /><path stroke-width="2" d="M 945 16 L 950 16"></path><text y="22" xmlns="http://www.w3.org/2000/svg" x="955">620</text><text xmlns="http://www.w3.org/2000/svg" x="987" y="175" transform="rotate(90.00,987,175)">Stargazers</text><path stroke-width="2" d="M 57.000000 346.000000 L 945 346" /><path d="M 57.000000 346.000000 L 945 346" stroke-width="2"></path><path stroke-width="2" d="M 58 346 L 58 351" /><path stroke-width="2" d="M 58 346 L 58 351"></path><text xmlns="http://www.w3.org/2000/svg" x="25" y="368">2023-04-02</text><path d="M 157 346 L 157 351" stroke-width="2" /><path stroke-width="2" d="M 157 346 L 157 351"></path><text xmlns="http://www.w3.org/2000/svg" x="124" y="368">2023-06-03</text><path d="M 256 346 L 256 351" stroke-width="2" /><path stroke-width="2" d="M 256 346 L 256 351"></path><text xmlns="http://www.w3.org/2000/svg" x="223" y="368">2023-08-03</text><path d="M 354 346 L 354 351" stroke-width="2" /><path d="M 354 346 L 354 351" stroke-width="2"></path><text xmlns="http://www.w3.org/2000/svg" x="321" y="368">2023-10-04</text><path stroke-width="2" d="M 453 346 L 453 351" /><path stroke-width="2" d="M 453 346 L 453 351"></path><text xmlns="http://www.w3.org/2000/svg" x="420" y="368">2023-12-05</text><path stroke-width="2" d="M 551 346 L 551 351" /><path stroke-width="2" d="M 551 346 L 551 351"></path><text xmlns="http://www.w3.org/2000/svg" x="518" y="368">2024-02-05</text><path stroke-width="2" d="M 650 346 L 650 351" /><path stroke-width="2" d="M 650 346 L 650 351"></path><text xmlns="http://www.w3.org/2000/svg" x="617" y="368">2024-04-06</text><path stroke-width="2" d="M 748 346 L 748 351" /><path stroke-width="2" d="M 748 346 L 748 351"></path><text xmlns="http://www.w3.org/2000/svg" x="715" y="368">2024-06-07</text><path d="M 847 346 L 847 351" stroke-width="2" /><path stroke-width="2" d="M 847 346 L 847 351"></path><text xmlns="http://www.w3.org/2000/svg" x="814" y="368">2024-08-08</text><path stroke-width="2" d="M 945 346 L 945 351" /><path stroke-width="2" d="M 945 346 L 945 351"></path><text xmlns="http://www.w3.org/2000/svg" x="912" y="368">2024-10-09</text><text y="390" xmlns="http://www.w3.org/2000/svg" x="487">Time</text></svg>