<svg width="1024px" height="400px" xmlns="http://www.w3.org/2000/svg" xmlns:xlink="http://www.w3.org/1999/xlink"><style type="text/css">
path { fill: none; stroke: rgb(51,51,51); }
path.series { stroke: #6b63ff; }
rect.background { fill: rgb(255,255,255); stroke: none; }

text {
	stroke-width: 0;
	stroke: none;
	fill: rgba(51,51,51,1.0);
	font-size: 12.8px;
	font-family: 'Roboto Medium', sans-serif;
}
</style><rect x="0" y="0" width="1024px" height="400px" class="background" rx="8" /><rect rx="8" x="0" y="0" width="1024px" height="400px" class="background"></rect><path stroke-width="2" class="series" d="M 58 345 L 60 345 L 72 345 L 73 344 L 73 344 L 73 344 L 73 343 L 73 343 L 73 343 L 73 343 L 73 342 L 73 342 L 73 342 L 73 341 L 73 341 L 73 341 L 73 340 L 74 340 L 74 340 L 74 340 L 75 339 L 75 339 L 76 339 L 76 338 L 76 338 L 76 338 L 77 337 L 77 337 L 79 337 L 79 337 L 80 336 L 81 336 L 84 336 L 84 335 L 85 335 L 85 335 L 85 334 L 87 334 L 88 334 L 88 334 L 90 333 L 93 333 L 95 333 L 100 332 L 102 332 L 105 332 L 108 331 L 109 331 L 120 331 L 121 331 L 121 330 L 122 330 L 123 330 L 123 329 L 123 329 L 123 329 L 123 328 L 123 328 L 123 328 L 123 328 L 123 327 L 123 327 L 123 327 L 123 326 L 123 326 L 123 326 L 123 325 L 123 325 L 123 325 L 123 325 L 123 324 L 123 324 L 123 324 L 123 323 L 123 323 L 123 323 L 123 322 L 124 322 L 124 322 L 124 322 L 124 321 L 124 321 L 124 321 L 124 320 L 124 320 L 124 320 L 124 319 L 124 319 L 124 319 L 124 319 L 124 318 L 124 318 L 124 318 L 124 317 L 124 317 L 124 317 L 124 316 L 124 316 L 124 316 L 124 316 L 124 315 L 124 315 L 125 315 L 125 314 L 125 314 L 125 314 L 125 313 L 125 313 L 125 313 L 125 313 L 125 312 L 126 312 L 126 312 L 126 311 L 126 311 L 126 311 L 126 310 L 126 310 L 126 310 L 126 310 L 126 309 L 126 309 L 126 309 L 127 308 L 127 308 L 127 308 L 127 307 L 130 307 L 130 307 L 130 307 L 131 306 L 131 306 L 133 306 L 134 305 L 135 305 L 137 305 L 137 304 L 139 304 L 139 304 L 139 304 L 141 303 L 141 303 L 142 303 L 143 302 L 143 302 L 144 302 L 144 301 L 144 301 L 144 301 L 145 301 L 146 300 L 146 300 L 147 300 L 147 299 L 147 299 L 148 299 L 149 298 L 150 298 L 152 298 L 152 298 L 153 297 L 154 297 L 154 297 L 154 296 L 155 296 L 160 296 L 160 295 L 161 295 L 166 295 L 166 295 L 166 294 L 166 294 L 166 294 L 167 293 L 168 293 L 169 293 L 169 292 L 175 292 L 176 292 L 177 292 L 179 291 L 180 291 L 180 291 L 181 290 L 185 290 L 189 290 L 194 289 L 195 289 L 195 289 L 195 289 L 195 288 L 203 288 L 206 288 L 206 287 L 209 287 L 209 287 L 210 286 L 217 286 L 217 286 L 218 286 L 218 285 L 219 285 L 221 285 L 222 284 L 224 284 L 225 284 L 226 283 L 230 283 L 231 283 L 231 283 L 231 282 L 232 282 L 232 282 L 234 281 L 238 281 L 248 281 L 251 280 L 253 280 L 253 280 L 255 280 L 255 279 L 255 279 L 255 279 L 255 278 L 255 278 L 255 278 L 256 277 L 256 277 L 256 277 L 256 277 L 256 276 L 256 276 L 256 276 L 256 275 L 258 275 L 258 275 L 258 274 L 258 274 L 259 274 L 259 274 L 259 273 L 260 273 L 260 273 L 260 272 L 260 272 L 260 272 L 261 271 L 261 271 L 261 271 L 261 271 L 262 270 L 262 270 L 262 270 L 262 269 L 263 269 L 263 269 L 263 268 L 264 268 L 264 268 L 265 268 L 266 267 L 267 267 L 269 267 L 269 266 L 269 266 L 269 266 L 269 265 L 269 265 L 270 265 L 271 265 L 271 264 L 273 264 L 273 264 L 273 263 L 275 263 L 276 263 L 276 262 L 278 262 L 278 262 L 279 262 L 279 261 L 279 261 L 283 261 L 283 260 L 284 260 L 286 260 L 288 259 L 291 259 L 291 259 L 292 259 L 292 258 L 293 258 L 293 258 L 295 257 L 296 257 L 298 257 L 298 256 L 300 256 L 300 256 L 300 256 L 300 255 L 300 255 L 301 255 L 301 254 L 302 254 L 302 254 L 302 253 L 302 253 L 306 253 L 310 253 L 310 252 L 310 252 L 312 252 L 314 251 L 314 251 L 315 251 L 316 250 L 317 250 L 317 250 L 317 250 L 317 249 L 317 249 L 317 249 L 317 248 L 317 248 L 317 248 L 318 247 L 320 247 L 320 247 L 320 247 L 320 246 L 320 246 L 320 246 L 320 245 L 320 245 L 320 245 L 321 244 L 321 244 L 321 244 L 321 244 L 324 243 L 326 243 L 326 243 L 327 242 L 335 242 L 336 242 L 338 241 L 340 241 L 347 241 L 348 241 L 349 240 L 349 240 L 349 240 L 349 239 L 349 239 L 349 239 L 350 238 L 351 238 L 357 238 L 359 238 L 361 237 L 366 237 L 369 237 L 372 236 L 374 236 L 377 236 L 377 235 L 385 235 L 392 235 L 392 235 L 397 234 L 397 234 L 401 234 L 402 233 L 404 233 L 404 233 L 405 232 L 405 232 L 407 232 L 408 232 L 410 231 L 413 231 L 414 231 L 414 230 L 415 230 L 417 230 L 420 229 L 420 229 L 423 229 L 426 229 L 427 228 L 427 228 L 428 228 L 429 227 L 430 227 L 432 227 L 434 226 L 436 226 L 438 226 L 438 226 L 442 225 L 443 225 L 445 225 L 449 224 L 449 224 L 453 224 L 453 223 L 453 223 L 454 223 L 455 223 L 456 222 L 457 222 L 458 222 L 460 221 L 461 221 L 461 221 L 462 220 L 468 220 L 468 220 L 468 220 L 468 219 L 469 219 L 469 219 L 469 218 L 470 218 L 470 218 L 471 217 L 472 217 L 473 217 L 473 217 L 474 216 L 474 216 L 475 216 L 475 215 L 475 215 L 476 215 L 476 214 L 476 214 L 476 214 L 476 214 L 477 213 L 477 213 L 479 213 L 479 212 L 479 212 L 480 212 L 480 211 L 481 211 L 482 211 L 482 211 L 482 210 L 483 210 L 484 210 L 485 209 L 485 209 L 485 209 L 487 208 L 487 208 L 487 208 L 487 208 L 488 207 L 488 207 L 488 207 L 488 206 L 489 206 L 489 206 L 492 205 L 493 205 L 494 205 L 494 205 L 496 204 L 497 204 L 497 204 L 499 203 L 501 203 L 503 203 L 505 202 L 505 202 L 505 202 L 506 202 L 506 201 L 506 201 L 507 201 L 507 200 L 507 200 L 507 200 L 507 199 L 508 199 L 509 199 L 510 199 L 510 198 L 510 198 L 511 198 L 513 197 L 513 197 L 513 197 L 514 196 L 515 196 L 516 196 L 522 196 L 522 195 L 522 195 L 522 195 L 524 194 L 525 194 L 526 194 L 526 193 L 526 193 L 526 193 L 527 193 L 530 192 L 530 192 L 530 192 L 530 191 L 532 191 L 532 191 L 532 190 L 533 190 L 535 190 L 538 190 L 538 189 L 541 189 L 541 189 L 542 188 L 545 188 L 545 188 L 548 187 L 549 187 L 550 187 L 551 187 L 551 186 L 552 186 L 552 186 L 552 185 L 552 185 L 553 185 L 553 184 L 553 184 L 554 184 L 554 184 L 554 183 L 555 183 L 556 183 L 556 182 L 560 182 L 560 182 L 564 181 L 566 181 L 566 181 L 567 181 L 567 180 L 570 180 L 570 180 L 570 179 L 571 179 L 571 179 L 571 178 L 571 178 L 571 178 L 572 178 L 572 177 L 572 177 L 572 177 L 572 176 L 573 176 L 573 176 L 574 175 L 574 175 L 575 175 L 575 175 L 576 174 L 576 174 L 576 174 L 577 173 L 578 173 L 580 173 L 580 172 L 580 172 L 580 172 L 580 172 L 581 171 L 581 171 L 581 171 L 582 170 L 584 170 L 586 170 L 588 169 L 589 169 L 590 169 L 593 169 L 596 168 L 596 168 L 598 168 L 602 167 L 602 167 L 602 167 L 606 166 L 607 166 L 607 166 L 608 166 L 608 165 L 615 165 L 615 165 L 616 164 L 616 164 L 617 164 L 617 163 L 618 163 L 618 163 L 618 163 L 619 162 L 619 162 L 620 162 L 620 161 L 620 161 L 620 161 L 620 160 L 620 160 L 621 160 L 621 160 L 622 159 L 623 159 L 624 159 L 624 158 L 624 158 L 625 158 L 625 157 L 626 157 L 626 157 L 627 157 L 627 156 L 627 156 L 628 156 L 629 155 L 629 155 L 630 155 L 630 154 L 631 154 L 632 154 L 632 154 L 632 153 L 632 153 L 632 153 L 633 152 L 633 152 L 633 152 L 634 151 L 634 151 L 636 151 L 636 151 L 636 150 L 636 150 L 636 150 L 636 149 L 637 149 L 637 149 L 637 148 L 638 148 L 638 148 L 638 148 L 639 147 L 639 147 L 639 147 L 639 146 L 639 146 L 639 146 L 640 145 L 640 145 L 640 145 L 640 145 L 640 144 L 642 144 L 643 144 L 645 143 L 645 143 L 645 143 L 645 142 L 646 142 L 647 142 L 648 142 L 648 141 L 650 141 L 652 141 L 652 140 L 654 140 L 654 140 L 654 139 L 655 139 L 655 139 L 656 139 L 656 138 L 656 138 L 656 138 L 656 137 L 656 137 L 656 137 L 656 136 L 656 136 L 657 136 L 657 136 L 657 135 L 657 135 L 658 135 L 658 134 L 659 134 L 660 134 L 660 133 L 661 133 L 661 133 L 662 132 L 662 132 L 662 132 L 665 132 L 665 131 L 665 131 L 665 131 L 666 130 L 668 130 L 669 130 L 670 130 L 671 129 L 671 129 L 671 129 L 671 128 L 672 128 L 676 128 L 678 127 L 680 127 L 682 127 L 682 126 L 683 126 L 684 126 L 684 126 L 685 125 L 685 125 L 685 125 L 686 124 L 686 124 L 686 124 L 687 124 L 689 123 L 689 123 L 689 123 L 689 122 L 689 122 L 689 122 L 689 121 L 689 121 L 689 121 L 689 121 L 689 120 L 689 120 L 689 120 L 689 119 L 690 119 L 690 119 L 690 118 L 690 118 L 690 118 L 691 118 L 691 117 L 691 117 L 691 117 L 691 116 L 691 116 L 691 116 L 691 115 L 692 115 L 692 115 L 692 115 L 692 114 L 692 114 L 692 114 L 693 113 L 695 113 L 696 113 L 697 112 L 697 112 L 698 112 L 698 112 L 698 111 L 699 111 L 701 111 L 702 110 L 703 110 L 703 110 L 703 109 L 703 109 L 703 109 L 703 109 L 703 108 L 704 108 L 705 108 L 705 107 L 708 107 L 709 107 L 710 106 L 713 106 L 714 106 L 714 106 L 714 105 L 714 105 L 715 105 L 715 104 L 715 104 L 716 104 L 716 103 L 717 103 L 717 103 L 717 103 L 717 102 L 717 102 L 718 102 L 718 101 L 718 101 L 718 101 L 718 100 L 719 100 L 719 100 L 720 100 L 720 99 L 721 99 L 721 99 L 721 98 L 721 98 L 722 98 L 723 97 L 723 97 L 723 97 L 723 97 L 724 96 L 725 96 L 728 96 L 728 95 L 729 95 L 732 95 L 733 94 L 734 94 L 736 94 L 736 94 L 737 93 L 740 93 L 744 93 L 745 92 L 746 92 L 748 92 L 750 91 L 750 91 L 750 91 L 752 91 L 752 90 L 753 90 L 754 90 L 755 89 L 756 89 L 757 89 L 757 88 L 757 88 L 758 88 L 758 88 L 759 87 L 762 87 L 762 87 L 763 86 L 764 86 L 764 86 L 765 85 L 766 85 L 767 85 L 767 85 L 767 84 L 767 84 L 768 84 L 769 83 L 769 83 L 770 83 L 770 82 L 771 82 L 771 82 L 772 82 L 772 81 L 773 81 L 773 81 L 773 80 L 774 80 L 774 80 L 774 79 L 774 79 L 774 79 L 775 79 L 777 78 L 778 78 L 778 78 L 779 77 L 781 77 L 782 77 L 783 76 L 784 76 L 786 76 L 788 76 L 790 75 L 791 75 L 792 75 L 792 74 L 794 74 L 796 74 L 798 73 L 798 73 L 798 73 L 798 73 L 798 72 L 798 72 L 799 72 L 800 71 L 801 71 L 802 71 L 802 70 L 802 70 L 808 70 L 808 70 L 809 69 L 811 69 L 812 69 L 813 68 L 813 68 L 814 68 L 814 67 L 814 67 L 816 67 L 816 67 L 816 66 L 817 66 L 817 66 L 817 65 L 818 65 L 818 65 L 819 64 L 820 64 L 823 64 L 823 64 L 827 63 L 828 63 L 828 63 L 829 62 L 830 62 L 830 62 L 830 61 L 830 61 L 833 61 L 834 61 L 836 60 L 836 60 L 836 60 L 836 59 L 838 59 L 839 59 L 841 58 L 841 58 L 841 58 L 842 58 L 842 57 L 842 57 L 842 57 L 844 56 L 844 56 L 844 56 L 846 55 L 846 55 L 847 55 L 847 55 L 847 54 L 848 54 L 848 54 L 848 53 L 851 53 L 855 53 L 855 52 L 859 52 L 860 52 L 862 52 L 862 51 L 863 51 L 863 51 L 865 50 L 865 50 L 866 50 L 869 49 L 869 49 L 872 49 L 877 49 L 877 48 L 877 48 L 877 48 L 878 47 L 879 47 L 879 47 L 879 46 L 888 46 L 890 46 L 890 46 L 892 45 L 893 45 L 896 45 L 898 44 L 898 44 L 899 44 L 899 43 L 901 43 L 906 43 L 906 43 L 907 42 L 909 42 L 911 42 L 912 41 L 912 41 L 912 41 L 912 40 L 912 40 L 913 40 L 913 40 L 915 39 L 916 39 L 917 39 L 918 38 L 918 38 L 919 38 L 921 37 L 924 37 L 925 37 L 926 37 L 927 36 L 928 36 L 928 36 L 928 35 L 928 35 L 929 35 L 929 34 L 931 34 L 931 34 L 932 34 L 932 33 L 933 33 L 933 33 L 933 32 L 933 32 L 933 32 L 933 31 L 933 31 L 934 31 L 934 31 L 934 30 L 935 30 L 935 30 L 935 29 L 936 29 L 936 29 L 936 28 L 936 28 L 937 28" /><path stroke-width="2" class="series" d="M 58 345 L 60 345 L 72 345 L 73 344 L 73 344 L 73 344 L 73 343 L 73 343 L 73 343 L 73 343 L 73 342 L 73 342 L 73 342 L 73 341 L 73 341 L 73 341 L 73 340 L 74 340 L 74 340 L 74 340 L 75 339 L 75 339 L 76 339 L 76 338 L 76 338 L 76 338 L 77 337 L 77 337 L 79 337 L 79 337 L 80 336 L 81 336 L 84 336 L 84 335 L 85 335 L 85 335 L 85 334 L 87 334 L 88 334 L 88 334 L 90 333 L 93 333 L 95 333 L 100 332 L 102 332 L 105 332 L 108 331 L 109 331 L 120 331 L 121 331 L 121 330 L 122 330 L 123 330 L 123 329 L 123 329 L 123 329 L 123 328 L 123 328 L 123 328 L 123 328 L 123 327 L 123 327 L 123 327 L 123 326 L 123 326 L 123 326 L 123 325 L 123 325 L 123 325 L 123 325 L 123 324 L 123 324 L 123 324 L 123 323 L 123 323 L 123 323 L 123 322 L 124 322 L 124 322 L 124 322 L 124 321 L 124 321 L 124 321 L 124 320 L 124 320 L 124 320 L 124 319 L 124 319 L 124 319 L 124 319 L 124 318 L 124 318 L 124 318 L 124 317 L 124 317 L 124 317 L 124 316 L 124 316 L 124 316 L 124 316 L 124 315 L 124 315 L 125 315 L 125 314 L 125 314 L 125 314 L 125 313 L 125 313 L 125 313 L 125 313 L 125 312 L 126 312 L 126 312 L 126 311 L 126 311 L 126 311 L 126 310 L 126 310 L 126 310 L 126 310 L 126 309 L 126 309 L 126 309 L 127 308 L 127 308 L 127 308 L 127 307 L 130 307 L 130 307 L 130 307 L 131 306 L 131 306 L 133 306 L 134 305 L 135 305 L 137 305 L 137 304 L 139 304 L 139 304 L 139 304 L 141 303 L 141 303 L 142 303 L 143 302 L 143 302 L 144 302 L 144 301 L 144 301 L 144 301 L 145 301 L 146 300 L 146 300 L 147 300 L 147 299 L 147 299 L 148 299 L 149 298 L 150 298 L 152 298 L 152 298 L 153 297 L 154 297 L 154 297 L 154 296 L 155 296 L 160 296 L 160 295 L 161 295 L 166 295 L 166 295 L 166 294 L 166 294 L 166 294 L 167 293 L 168 293 L 169 293 L 169 292 L 175 292 L 176 292 L 177 292 L 179 291 L 180 291 L 180 291 L 181 290 L 185 290 L 189 290 L 194 289 L 195 289 L 195 289 L 195 289 L 195 288 L 203 288 L 206 288 L 206 287 L 209 287 L 209 287 L 210 286 L 217 286 L 217 286 L 218 286 L 218 285 L 219 285 L 221 285 L 222 284 L 224 284 L 225 284 L 226 283 L 230 283 L 231 283 L 231 283 L 231 282 L 232 282 L 232 282 L 234 281 L 238 281 L 248 281 L 251 280 L 253 280 L 253 280 L 255 280 L 255 279 L 255 279 L 255 279 L 255 278 L 255 278 L 255 278 L 256 277 L 256 277 L 256 277 L 256 277 L 256 276 L 256 276 L 256 276 L 256 275 L 258 275 L 258 275 L 258 274 L 258 274 L 259 274 L 259 274 L 259 273 L 260 273 L 260 273 L 260 272 L 260 272 L 260 272 L 261 271 L 261 271 L 261 271 L 261 271 L 262 270 L 262 270 L 262 270 L 262 269 L 263 269 L 263 269 L 263 268 L 264 268 L 264 268 L 265 268 L 266 267 L 267 267 L 269 267 L 269 266 L 269 266 L 269 266 L 269 265 L 269 265 L 270 265 L 271 265 L 271 264 L 273 264 L 273 264 L 273 263 L 275 263 L 276 263 L 276 262 L 278 262 L 278 262 L 279 262 L 279 261 L 279 261 L 283 261 L 283 260 L 284 260 L 286 260 L 288 259 L 291 259 L 291 259 L 292 259 L 292 258 L 293 258 L 293 258 L 295 257 L 296 257 L 298 257 L 298 256 L 300 256 L 300 256 L 300 256 L 300 255 L 300 255 L 301 255 L 301 254 L 302 254 L 302 254 L 302 253 L 302 253 L 306 253 L 310 253 L 310 252 L 310 252 L 312 252 L 314 251 L 314 251 L 315 251 L 316 250 L 317 250 L 317 250 L 317 250 L 317 249 L 317 249 L 317 249 L 317 248 L 317 248 L 317 248 L 318 247 L 320 247 L 320 247 L 320 247 L 320 246 L 320 246 L 320 246 L 320 245 L 320 245 L 320 245 L 321 244 L 321 244 L 321 244 L 321 244 L 324 243 L 326 243 L 326 243 L 327 242 L 335 242 L 336 242 L 338 241 L 340 241 L 347 241 L 348 241 L 349 240 L 349 240 L 349 240 L 349 239 L 349 239 L 349 239 L 350 238 L 351 238 L 357 238 L 359 238 L 361 237 L 366 237 L 369 237 L 372 236 L 374 236 L 377 236 L 377 235 L 385 235 L 392 235 L 392 235 L 397 234 L 397 234 L 401 234 L 402 233 L 404 233 L 404 233 L 405 232 L 405 232 L 407 232 L 408 232 L 410 231 L 413 231 L 414 231 L 414 230 L 415 230 L 417 230 L 420 229 L 420 229 L 423 229 L 426 229 L 427 228 L 427 228 L 428 228 L 429 227 L 430 227 L 432 227 L 434 226 L 436 226 L 438 226 L 438 226 L 442 225 L 443 225 L 445 225 L 449 224 L 449 224 L 453 224 L 453 223 L 453 223 L 454 223 L 455 223 L 456 222 L 457 222 L 458 222 L 460 221 L 461 221 L 461 221 L 462 220 L 468 220 L 468 220 L 468 220 L 468 219 L 469 219 L 469 219 L 469 218 L 470 218 L 470 218 L 471 217 L 472 217 L 473 217 L 473 217 L 474 216 L 474 216 L 475 216 L 475 215 L 475 215 L 476 215 L 476 214 L 476 214 L 476 214 L 476 214 L 477 213 L 477 213 L 479 213 L 479 212 L 479 212 L 480 212 L 480 211 L 481 211 L 482 211 L 482 211 L 482 210 L 483 210 L 484 210 L 485 209 L 485 209 L 485 209 L 487 208 L 487 208 L 487 208 L 487 208 L 488 207 L 488 207 L 488 207 L 488 206 L 489 206 L 489 206 L 492 205 L 493 205 L 494 205 L 494 205 L 496 204 L 497 204 L 497 204 L 499 203 L 501 203 L 503 203 L 505 202 L 505 202 L 505 202 L 506 202 L 506 201 L 506 201 L 507 201 L 507 200 L 507 200 L 507 200 L 507 199 L 508 199 L 509 199 L 510 199 L 510 198 L 510 198 L 511 198 L 513 197 L 513 197 L 513 197 L 514 196 L 515 196 L 516 196 L 522 196 L 522 195 L 522 195 L 522 195 L 524 194 L 525 194 L 526 194 L 526 193 L 526 193 L 526 193 L 527 193 L 530 192 L 530 192 L 530 192 L 530 191 L 532 191 L 532 191 L 532 190 L 533 190 L 535 190 L 538 190 L 538 189 L 541 189 L 541 189 L 542 188 L 545 188 L 545 188 L 548 187 L 549 187 L 550 187 L 551 187 L 551 186 L 552 186 L 552 186 L 552 185 L 552 185 L 553 185 L 553 184 L 553 184 L 554 184 L 554 184 L 554 183 L 555 183 L 556 183 L 556 182 L 560 182 L 560 182 L 564 181 L 566 181 L 566 181 L 567 181 L 567 180 L 570 180 L 570 180 L 570 179 L 571 179 L 571 179 L 571 178 L 571 178 L 571 178 L 572 178 L 572 177 L 572 177 L 572 177 L 572 176 L 573 176 L 573 176 L 574 175 L 574 175 L 575 175 L 575 175 L 576 174 L 576 174 L 576 174 L 577 173 L 578 173 L 580 173 L 580 172 L 580 172 L 580 172 L 580 172 L 581 171 L 581 171 L 581 171 L 582 170 L 584 170 L 586 170 L 588 169 L 589 169 L 590 169 L 593 169 L 596 168 L 596 168 L 598 168 L 602 167 L 602 167 L 602 167 L 606 166 L 607 166 L 607 166 L 608 166 L 608 165 L 615 165 L 615 165 L 616 164 L 616 164 L 617 164 L 617 163 L 618 163 L 618 163 L 618 163 L 619 162 L 619 162 L 620 162 L 620 161 L 620 161 L 620 161 L 620 160 L 620 160 L 621 160 L 621 160 L 622 159 L 623 159 L 624 159 L 624 158 L 624 158 L 625 158 L 625 157 L 626 157 L 626 157 L 627 157 L 627 156 L 627 156 L 628 156 L 629 155 L 629 155 L 630 155 L 630 154 L 631 154 L 632 154 L 632 154 L 632 153 L 632 153 L 632 153 L 633 152 L 633 152 L 633 152 L 634 151 L 634 151 L 636 151 L 636 151 L 636 150 L 636 150 L 636 150 L 636 149 L 637 149 L 637 149 L 637 148 L 638 148 L 638 148 L 638 148 L 639 147 L 639 147 L 639 147 L 639 146 L 639 146 L 639 146 L 640 145 L 640 145 L 640 145 L 640 145 L 640 144 L 642 144 L 643 144 L 645 143 L 645 143 L 645 143 L 645 142 L 646 142 L 647 142 L 648 142 L 648 141 L 650 141 L 652 141 L 652 140 L 654 140 L 654 140 L 654 139 L 655 139 L 655 139 L 656 139 L 656 138 L 656 138 L 656 138 L 656 137 L 656 137 L 656 137 L 656 136 L 656 136 L 657 136 L 657 136 L 657 135 L 657 135 L 658 135 L 658 134 L 659 134 L 660 134 L 660 133 L 661 133 L 661 133 L 662 132 L 662 132 L 662 132 L 665 132 L 665 131 L 665 131 L 665 131 L 666 130 L 668 130 L 669 130 L 670 130 L 671 129 L 671 129 L 671 129 L 671 128 L 672 128 L 676 128 L 678 127 L 680 127 L 682 127 L 682 126 L 683 126 L 684 126 L 684 126 L 685 125 L 685 125 L 685 125 L 686 124 L 686 124 L 686 124 L 687 124 L 689 123 L 689 123 L 689 123 L 689 122 L 689 122 L 689 122 L 689 121 L 689 121 L 689 121 L 689 121 L 689 120 L 689 120 L 689 120 L 689 119 L 690 119 L 690 119 L 690 118 L 690 118 L 690 118 L 691 118 L 691 117 L 691 117 L 691 117 L 691 116 L 691 116 L 691 116 L 691 115 L 692 115 L 692 115 L 692 115 L 692 114 L 692 114 L 692 114 L 693 113 L 695 113 L 696 113 L 697 112 L 697 112 L 698 112 L 698 112 L 698 111 L 699 111 L 701 111 L 702 110 L 703 110 L 703 110 L 703 109 L 703 109 L 703 109 L 703 109 L 703 108 L 704 108 L 705 108 L 705 107 L 708 107 L 709 107 L 710 106 L 713 106 L 714 106 L 714 106 L 714 105 L 714 105 L 715 105 L 715 104 L 715 104 L 716 104 L 716 103 L 717 103 L 717 103 L 717 103 L 717 102 L 717 102 L 718 102 L 718 101 L 718 101 L 718 101 L 718 100 L 719 100 L 719 100 L 720 100 L 720 99 L 721 99 L 721 99 L 721 98 L 721 98 L 722 98 L 723 97 L 723 97 L 723 97 L 723 97 L 724 96 L 725 96 L 728 96 L 728 95 L 729 95 L 732 95 L 733 94 L 734 94 L 736 94 L 736 94 L 737 93 L 740 93 L 744 93 L 745 92 L 746 92 L 748 92 L 750 91 L 750 91 L 750 91 L 752 91 L 752 90 L 753 90 L 754 90 L 755 89 L 756 89 L 757 89 L 757 88 L 757 88 L 758 88 L 758 88 L 759 87 L 762 87 L 762 87 L 763 86 L 764 86 L 764 86 L 765 85 L 766 85 L 767 85 L 767 85 L 767 84 L 767 84 L 768 84 L 769 83 L 769 83 L 770 83 L 770 82 L 771 82 L 771 82 L 772 82 L 772 81 L 773 81 L 773 81 L 773 80 L 774 80 L 774 80 L 774 79 L 774 79 L 774 79 L 775 79 L 777 78 L 778 78 L 778 78 L 779 77 L 781 77 L 782 77 L 783 76 L 784 76 L 786 76 L 788 76 L 790 75 L 791 75 L 792 75 L 792 74 L 794 74 L 796 74 L 798 73 L 798 73 L 798 73 L 798 73 L 798 72 L 798 72 L 799 72 L 800 71 L 801 71 L 802 71 L 802 70 L 802 70 L 808 70 L 808 70 L 809 69 L 811 69 L 812 69 L 813 68 L 813 68 L 814 68 L 814 67 L 814 67 L 816 67 L 816 67 L 816 66 L 817 66 L 817 66 L 817 65 L 818 65 L 818 65 L 819 64 L 820 64 L 823 64 L 823 64 L 827 63 L 828 63 L 828 63 L 829 62 L 830 62 L 830 62 L 830 61 L 830 61 L 833 61 L 834 61 L 836 60 L 836 60 L 836 60 L 836 59 L 838 59 L 839 59 L 841 58 L 841 58 L 841 58 L 842 58 L 842 57 L 842 57 L 842 57 L 844 56 L 844 56 L 844 56 L 846 55 L 846 55 L 847 55 L 847 55 L 847 54 L 848 54 L 848 54 L 848 53 L 851 53 L 855 53 L 855 52 L 859 52 L 860 52 L 862 52 L 862 51 L 863 51 L 863 51 L 865 50 L 865 50 L 866 50 L 869 49 L 869 49 L 872 49 L 877 49 L 877 48 L 877 48 L 877 48 L 878 47 L 879 47 L 879 47 L 879 46 L 888 46 L 890 46 L 890 46 L 892 45 L 893 45 L 896 45 L 898 44 L 898 44 L 899 44 L 899 43 L 901 43 L 906 43 L 906 43 L 907 42 L 909 42 L 911 42 L 912 41 L 912 41 L 912 41 L 912 40 L 912 40 L 913 40 L 913 40 L 915 39 L 916 39 L 917 39 L 918 38 L 918 38 L 919 38 L 921 37 L 924 37 L 925 37 L 926 37 L 927 36 L 928 36 L 928 36 L 928 35 L 928 35 L 929 35 L 929 34 L 931 34 L 931 34 L 932 34 L 932 33 L 933 33 L 933 33 L 933 32 L 933 32 L 933 32 L 933 31 L 933 31 L 934 31 L 934 31 L 934 30 L 935 30 L 935 30 L 935 29 L 936 29 L 936 29 L 936 28 L 936 28 L 937 28"></path><path stroke-width="2" d="M 937 346 L 937.000000 15.000000" /><path stroke-width="2" d="M 937 346 L 937.000000 15.000000"></path><path stroke-width="2" d="M 937 346 L 942 346" /><path stroke-width="2" d="M 937 346 L 942 346"></path><text xmlns="http://www.w3.org/2000/svg" x="947" y="352">0</text><path stroke-width="2" d="M 937 307 L 942 307" /><path stroke-width="2" d="M 937 307 L 942 307"></path><text x="947" y="313" xmlns="http://www.w3.org/2000/svg">130</text><path stroke-width="2" d="M 937 271 L 942 271" /><path stroke-width="2" d="M 937 271 L 942 271"></path><text y="277" xmlns="http://www.w3.org/2000/svg" x="947">250</text><path stroke-width="2" d="M 937 235 L 942 235" /><path stroke-width="2" d="M 937 235 L 942 235"></path><text y="241" xmlns="http://www.w3.org/2000/svg" x="947">370</text><path stroke-width="2" d="M 937 199 L 942 199" /><path stroke-width="2" d="M 937 199 L 942 199"></path><text y="205" xmlns="http://www.w3.org/2000/svg" x="947">490</text><path stroke-width="2" d="M 937 160 L 942 160" /><path stroke-width="2" d="M 937 160 L 942 160"></path><text y="166" xmlns="http://www.w3.org/2000/svg" x="947">620</text><path stroke-width="2" d="M 937 124 L 942 124" /><path stroke-width="2" d="M 937 124 L 942 124"></path><text xmlns="http://www.w3.org/2000/svg" x="947" y="130">740</text><path stroke-width="2" d="M 937 88 L 942 88" /><path stroke-width="2" d="M 937 88 L 942 88"></path><text xmlns="http://www.w3.org/2000/svg" x="947" y="94">860</text><path stroke-width="2" d="M 937 52 L 942 52" /><path stroke-width="2" d="M 937 52 L 942 52"></path><text xmlns="http://www.w3.org/2000/svg" x="947" y="58">980</text><path stroke-width="2" d="M 937 16 L 942 16" /><path stroke-width="2" d="M 937 16 L 942 16"></path><text xmlns="http://www.w3.org/2000/svg" x="947" y="22">1100</text><text xmlns="http://www.w3.org/2000/svg" x="987" y="175" transform="rotate(90.00,987,175)">Stargazers</text><path stroke-width="2" d="M 57.000000 346.000000 L 937 346" /><path stroke-width="2" d="M 57.000000 346.000000 L 937 346"></path><path stroke-width="2" d="M 58 346 L 58 351" /><path stroke-width="2" d="M 58 346 L 58 351"></path><text xmlns="http://www.w3.org/2000/svg" x="25" y="368">2023-04-02</text><path stroke-width="2" d="M 156 346 L 156 351" /><path stroke-width="2" d="M 156 346 L 156 351"></path><text y="368" xmlns="http://www.w3.org/2000/svg" x="123">2023-07-08</text><path stroke-width="2" d="M 254 346 L 254 351" /><path stroke-width="2" d="M 254 346 L 254 351"></path><text x="221" y="368" xmlns="http://www.w3.org/2000/svg">2023-10-13</text><path stroke-width="2" d="M 352 346 L 352 351" /><path stroke-width="2" d="M 352 346 L 352 351"></path><text xmlns="http://www.w3.org/2000/svg" x="319" y="368">2024-01-18</text><path stroke-width="2" d="M 449 346 L 449 351" /><path d="M 449 346 L 449 351" stroke-width="2"></path><text y="368" xmlns="http://www.w3.org/2000/svg" x="416">2024-04-25</text><path stroke-width="2" d="M 547 346 L 547 351" /><path stroke-width="2" d="M 547 346 L 547 351"></path><text xmlns="http://www.w3.org/2000/svg" x="514" y="368">2024-07-31</text><path stroke-width="2" d="M 645 346 L 645 351" /><path stroke-width="2" d="M 645 346 L 645 351"></path><text x="612" y="368" xmlns="http://www.w3.org/2000/svg">2024-11-05</text><path stroke-width="2" d="M 742 346 L 742 351" /><path stroke-width="2" d="M 742 346 L 742 351"></path><text xmlns="http://www.w3.org/2000/svg" x="709" y="368">2025-02-10</text><path stroke-width="2" d="M 840 346 L 840 351" /><path stroke-width="2" d="M 840 346 L 840 351"></path><text xmlns="http://www.w3.org/2000/svg" x="807" y="368">2025-05-18</text><path stroke-width="2" d="M 937 346 L 937 351" /><path stroke-width="2" d="M 937 346 L 937 351"></path><text xmlns="http://www.w3.org/2000/svg" x="904" y="368">2025-08-24</text><text y="390" xmlns="http://www.w3.org/2000/svg" x="483">Time</text></svg>