<svg width="1024px" height="400px" xmlns="http://www.w3.org/2000/svg" xmlns:xlink="http://www.w3.org/1999/xlink"><style type="text/css">
path { fill: none; stroke: rgb(51,51,51); }
path.series { stroke: #6b63ff; }
rect.background { fill: rgb(255,255,255); stroke: none; }

text {
	stroke-width: 0;
	stroke: none;
	fill: rgba(51,51,51,1.0);
	font-size: 12.8px;
	font-family: 'Roboto Medium', sans-serif;
}
</style><rect x="0" y="0" width="1024px" height="400px" class="background" rx="8" /><rect class="background" rx="8" x="0" y="0" width="1024px" height="400px"></rect><path stroke-width="2" class="series" d="M 58 345 L 62 344 L 89 343 L 89 343 L 90 342 L 90 341 L 90 340 L 90 340 L 90 339 L 90 338 L 90 337 L 90 337 L 90 336 L 90 335 L 90 334 L 91 334 L 91 333 L 91 332 L 91 331 L 93 331 L 93 330 L 94 329 L 96 328 L 97 328 L 97 327 L 97 326 L 98 325 L 99 325 L 102 324 L 103 323 L 104 322 L 106 322 L 115 321 L 115 320 L 115 319 L 115 319 L 115 318 L 115 317 L 120 316 L 122 316 L 123 315 L 127 314 L 134 313 L 137 313 L 148 312 L 152 311 L 158 310 L 165 310 L 168 309 L 192 308 L 194 307 L 194 307 L 197 306 L 198 305 L 198 304 L 198 304 L 198 303 L 198 302 L 198 301 L 198 301 L 198 300 L 198 299 L 198 298 L 198 298 L 199 297 L 199 296 L 199 295 L 199 295 L 199 294 L 199 293 L 199 292 L 199 292 L 199 291 L 199 290 L 199 289 L 199 289 L 199 288 L 199 287 L 199 286 L 199 286 L 199 285 L 199 284 L 199 283 L 200 283 L 200 282 L 200 281 L 200 280 L 200 280 L 200 279 L 200 278 L 200 277 L 200 277 L 200 276 L 200 275 L 200 274 L 200 274 L 200 273 L 200 272 L 200 271 L 200 271 L 201 270 L 201 269 L 201 268 L 201 268 L 202 267 L 202 266 L 203 265 L 203 265 L 203 264 L 204 263 L 204 262 L 204 262 L 204 261 L 204 260 L 204 259 L 204 259 L 204 258 L 204 257 L 204 256 L 204 256 L 204 255 L 204 254 L 204 253 L 205 253 L 206 252 L 206 251 L 206 250 L 206 250 L 212 249 L 213 248 L 213 247 L 215 247 L 215 246 L 219 245 L 223 244 L 224 244 L 228 243 L 229 242 L 232 241 L 232 241 L 233 240 L 237 239 L 237 238 L 239 238 L 241 237 L 241 236 L 243 235 L 243 235 L 244 234 L 244 233 L 246 232 L 248 232 L 248 231 L 249 230 L 250 229 L 250 229 L 251 228 L 254 227 L 256 226 L 260 226 L 261 225 L 263 224 L 264 223 L 264 223 L 265 222 L 267 221 L 278 220 L 278 220 L 280 219 L 290 218 L 290 217 L 291 217 L 291 216 L 291 215 L 293 214 L 296 214 L 298 213 L 298 212 L 310 211 L 313 211 L 315 210 L 319 209 L 322 208 L 322 208 L 324 207 L 332 206 L 342 205 L 353 205 L 354 204 L 354 203 L 354 202 L 355 202 L 357 201 L 372 200 L 378 199 L 379 199 L 384 198 L 385 197 L 386 196 L 402 196 L 402 195 L 404 194 L 404 193 L 406 193 L 411 192 L 413 191 L 416 190 L 418 190 L 422 189 L 431 188 L 431 187 L 433 187 L 433 186 L 433 185 L 434 184 L 439 184 L 448 183 L 468 182 L 476 181 L 476 181 L 480 180 L 480 179 L 483 178 L 485 178 L 485 177 L 485 176 L 485 175 L 485 175 L 485 174 L 485 173 L 485 172 L 485 172 L 485 171 L 486 170 L 486 169 L 486 169 L 486 168 L 487 167 L 488 166 L 490 166 L 491 165 L 491 164 L 491 163 L 491 163 L 494 162 L 494 161 L 494 160 L 494 160 L 494 159 L 494 158 L 494 157 L 496 157 L 497 156 L 497 155 L 498 154 L 498 154 L 498 153 L 498 152 L 500 151 L 500 151 L 500 150 L 500 149 L 502 148 L 502 148 L 503 147 L 504 146 L 506 145 L 507 145 L 510 144 L 513 143 L 514 142 L 515 142 L 515 141 L 515 140 L 515 139 L 515 139 L 518 138 L 519 137 L 522 136 L 522 136 L 524 135 L 526 134 L 529 133 L 529 132 L 533 132 L 534 131 L 535 130 L 536 130 L 536 129 L 544 128 L 545 127 L 546 126 L 552 126 L 555 125 L 561 124 L 563 124 L 563 123 L 565 122 L 565 121 L 565 121 L 570 120 L 574 119 L 576 118 L 577 118 L 579 117 L 581 116 L 581 115 L 581 115 L 581 114 L 582 113 L 583 112 L 583 112 L 585 111 L 585 110 L 585 109 L 586 109 L 594 108 L 602 107 L 602 106 L 603 106 L 608 105 L 611 104 L 613 103 L 613 103 L 615 102 L 617 101 L 617 100 L 617 100 L 617 99 L 618 98 L 618 97 L 618 97 L 619 96 L 619 95 L 620 94 L 624 94 L 624 93 L 624 92 L 625 91 L 625 91 L 626 90 L 626 89 L 626 88 L 626 88 L 626 87 L 626 86 L 626 85 L 626 85 L 633 84 L 637 83 L 637 82 L 639 82 L 647 81 L 657 80 L 658 79 L 664 79 L 668 78 L 679 77 L 682 76 L 686 76 L 686 75 L 687 74 L 687 73 L 687 73 L 687 72 L 687 71 L 687 70 L 690 70 L 691 69 L 705 68 L 708 67 L 713 67 L 724 66 L 731 65 L 737 64 L 741 64 L 749 63 L 749 62 L 765 61 L 780 61 L 781 60 L 792 59 L 792 58 L 801 58 L 803 57 L 807 56 L 807 55 L 808 55 L 809 54 L 814 53 L 816 52 L 820 52 L 826 51 L 827 50 L 829 49 L 830 49 L 836 48 L 842 47 L 842 46 L 849 46 L 855 45 L 857 44 L 857 43 L 860 43 L 861 42 L 863 41 L 868 40 L 872 40 L 877 39 L 878 38 L 881 37 L 881 37 L 889 36 L 891 35 L 896 34 L 903 34 L 903 33 L 912 32 L 913 31 L 913 31 L 916 30 L 916 29 L 920 28 L 920 28 L 924 27 L 929 26 L 930 25 L 931 25 L 931 24 L 944 23 L 944 22 L 945 22" /><path stroke-width="2" class="series" d="M 58 345 L 62 344 L 89 343 L 89 343 L 90 342 L 90 341 L 90 340 L 90 340 L 90 339 L 90 338 L 90 337 L 90 337 L 90 336 L 90 335 L 90 334 L 91 334 L 91 333 L 91 332 L 91 331 L 93 331 L 93 330 L 94 329 L 96 328 L 97 328 L 97 327 L 97 326 L 98 325 L 99 325 L 102 324 L 103 323 L 104 322 L 106 322 L 115 321 L 115 320 L 115 319 L 115 319 L 115 318 L 115 317 L 120 316 L 122 316 L 123 315 L 127 314 L 134 313 L 137 313 L 148 312 L 152 311 L 158 310 L 165 310 L 168 309 L 192 308 L 194 307 L 194 307 L 197 306 L 198 305 L 198 304 L 198 304 L 198 303 L 198 302 L 198 301 L 198 301 L 198 300 L 198 299 L 198 298 L 198 298 L 199 297 L 199 296 L 199 295 L 199 295 L 199 294 L 199 293 L 199 292 L 199 292 L 199 291 L 199 290 L 199 289 L 199 289 L 199 288 L 199 287 L 199 286 L 199 286 L 199 285 L 199 284 L 199 283 L 200 283 L 200 282 L 200 281 L 200 280 L 200 280 L 200 279 L 200 278 L 200 277 L 200 277 L 200 276 L 200 275 L 200 274 L 200 274 L 200 273 L 200 272 L 200 271 L 200 271 L 201 270 L 201 269 L 201 268 L 201 268 L 202 267 L 202 266 L 203 265 L 203 265 L 203 264 L 204 263 L 204 262 L 204 262 L 204 261 L 204 260 L 204 259 L 204 259 L 204 258 L 204 257 L 204 256 L 204 256 L 204 255 L 204 254 L 204 253 L 205 253 L 206 252 L 206 251 L 206 250 L 206 250 L 212 249 L 213 248 L 213 247 L 215 247 L 215 246 L 219 245 L 223 244 L 224 244 L 228 243 L 229 242 L 232 241 L 232 241 L 233 240 L 237 239 L 237 238 L 239 238 L 241 237 L 241 236 L 243 235 L 243 235 L 244 234 L 244 233 L 246 232 L 248 232 L 248 231 L 249 230 L 250 229 L 250 229 L 251 228 L 254 227 L 256 226 L 260 226 L 261 225 L 263 224 L 264 223 L 264 223 L 265 222 L 267 221 L 278 220 L 278 220 L 280 219 L 290 218 L 290 217 L 291 217 L 291 216 L 291 215 L 293 214 L 296 214 L 298 213 L 298 212 L 310 211 L 313 211 L 315 210 L 319 209 L 322 208 L 322 208 L 324 207 L 332 206 L 342 205 L 353 205 L 354 204 L 354 203 L 354 202 L 355 202 L 357 201 L 372 200 L 378 199 L 379 199 L 384 198 L 385 197 L 386 196 L 402 196 L 402 195 L 404 194 L 404 193 L 406 193 L 411 192 L 413 191 L 416 190 L 418 190 L 422 189 L 431 188 L 431 187 L 433 187 L 433 186 L 433 185 L 434 184 L 439 184 L 448 183 L 468 182 L 476 181 L 476 181 L 480 180 L 480 179 L 483 178 L 485 178 L 485 177 L 485 176 L 485 175 L 485 175 L 485 174 L 485 173 L 485 172 L 485 172 L 485 171 L 486 170 L 486 169 L 486 169 L 486 168 L 487 167 L 488 166 L 490 166 L 491 165 L 491 164 L 491 163 L 491 163 L 494 162 L 494 161 L 494 160 L 494 160 L 494 159 L 494 158 L 494 157 L 496 157 L 497 156 L 497 155 L 498 154 L 498 154 L 498 153 L 498 152 L 500 151 L 500 151 L 500 150 L 500 149 L 502 148 L 502 148 L 503 147 L 504 146 L 506 145 L 507 145 L 510 144 L 513 143 L 514 142 L 515 142 L 515 141 L 515 140 L 515 139 L 515 139 L 518 138 L 519 137 L 522 136 L 522 136 L 524 135 L 526 134 L 529 133 L 529 132 L 533 132 L 534 131 L 535 130 L 536 130 L 536 129 L 544 128 L 545 127 L 546 126 L 552 126 L 555 125 L 561 124 L 563 124 L 563 123 L 565 122 L 565 121 L 565 121 L 570 120 L 574 119 L 576 118 L 577 118 L 579 117 L 581 116 L 581 115 L 581 115 L 581 114 L 582 113 L 583 112 L 583 112 L 585 111 L 585 110 L 585 109 L 586 109 L 594 108 L 602 107 L 602 106 L 603 106 L 608 105 L 611 104 L 613 103 L 613 103 L 615 102 L 617 101 L 617 100 L 617 100 L 617 99 L 618 98 L 618 97 L 618 97 L 619 96 L 619 95 L 620 94 L 624 94 L 624 93 L 624 92 L 625 91 L 625 91 L 626 90 L 626 89 L 626 88 L 626 88 L 626 87 L 626 86 L 626 85 L 626 85 L 633 84 L 637 83 L 637 82 L 639 82 L 647 81 L 657 80 L 658 79 L 664 79 L 668 78 L 679 77 L 682 76 L 686 76 L 686 75 L 687 74 L 687 73 L 687 73 L 687 72 L 687 71 L 687 70 L 690 70 L 691 69 L 705 68 L 708 67 L 713 67 L 724 66 L 731 65 L 737 64 L 741 64 L 749 63 L 749 62 L 765 61 L 780 61 L 781 60 L 792 59 L 792 58 L 801 58 L 803 57 L 807 56 L 807 55 L 808 55 L 809 54 L 814 53 L 816 52 L 820 52 L 826 51 L 827 50 L 829 49 L 830 49 L 836 48 L 842 47 L 842 46 L 849 46 L 855 45 L 857 44 L 857 43 L 860 43 L 861 42 L 863 41 L 868 40 L 872 40 L 877 39 L 878 38 L 881 37 L 881 37 L 889 36 L 891 35 L 896 34 L 903 34 L 903 33 L 912 32 L 913 31 L 913 31 L 916 30 L 916 29 L 920 28 L 920 28 L 924 27 L 929 26 L 930 25 L 931 25 L 931 24 L 944 23 L 944 22 L 945 22"></path><path d="M 945 346 L 945.000000 15.000000" stroke-width="2" /><path stroke-width="2" d="M 945 346 L 945.000000 15.000000"></path><path stroke-width="2" d="M 945 346 L 950 346" /><path stroke-width="2" d="M 945 346 L 950 346"></path><text xmlns="http://www.w3.org/2000/svg" x="955" y="352">0</text><path stroke-width="2" d="M 945 309 L 950 309" /><path stroke-width="2" d="M 945 309 L 950 309"></path><text xmlns="http://www.w3.org/2000/svg" x="955" y="315">49</text><path stroke-width="2" d="M 945 272 L 950 272" /><path d="M 945 272 L 950 272" stroke-width="2"></path><text xmlns="http://www.w3.org/2000/svg" x="955" y="278">98</text><path stroke-width="2" d="M 945 235 L 950 235" /><path stroke-width="2" d="M 945 235 L 950 235"></path><text xmlns="http://www.w3.org/2000/svg" x="955" y="241">147</text><path stroke-width="2" d="M 945 199 L 950 199" /><path stroke-width="2" d="M 945 199 L 950 199"></path><text xmlns="http://www.w3.org/2000/svg" x="955" y="205">196</text><path stroke-width="2" d="M 945 162 L 950 162" /><path stroke-width="2" d="M 945 162 L 950 162"></path><text xmlns="http://www.w3.org/2000/svg" x="955" y="168">245</text><path stroke-width="2" d="M 945 125 L 950 125" /><path stroke-width="2" d="M 945 125 L 950 125"></path><text xmlns="http://www.w3.org/2000/svg" x="955" y="131">294</text><path stroke-width="2" d="M 945 88 L 950 88" /><path stroke-width="2" d="M 945 88 L 950 88"></path><text xmlns="http://www.w3.org/2000/svg" x="955" y="94">343</text><path stroke-width="2" d="M 945 52 L 950 52" /><path stroke-width="2" d="M 945 52 L 950 52"></path><text xmlns="http://www.w3.org/2000/svg" x="955" y="58">392</text><path d="M 945 16 L 950 16" stroke-width="2" /><path stroke-width="2" d="M 945 16 L 950 16"></path><text x="955" y="22" xmlns="http://www.w3.org/2000/svg">440</text><text xmlns="http://www.w3.org/2000/svg" x="987" y="175" transform="rotate(90.00,987,175)">Stargazers</text><path d="M 57.000000 346.000000 L 945 346" stroke-width="2" /><path d="M 57.000000 346.000000 L 945 346" stroke-width="2"></path><path stroke-width="2" d="M 58 346 L 58 351" /><path stroke-width="2" d="M 58 346 L 58 351"></path><text xmlns="http://www.w3.org/2000/svg" x="25" y="368">2023-04-02</text><path stroke-width="2" d="M 157 346 L 157 351" /><path stroke-width="2" d="M 157 346 L 157 351"></path><text xmlns="http://www.w3.org/2000/svg" x="124" y="368">2023-05-17</text><path stroke-width="2" d="M 256 346 L 256 351" /><path d="M 256 346 L 256 351" stroke-width="2"></path><text xmlns="http://www.w3.org/2000/svg" x="223" y="368">2023-07-02</text><path stroke-width="2" d="M 354 346 L 354 351" /><path stroke-width="2" d="M 354 346 L 354 351"></path><text xmlns="http://www.w3.org/2000/svg" x="321" y="368">2023-08-16</text><path stroke-width="2" d="M 453 346 L 453 351" /><path stroke-width="2" d="M 453 346 L 453 351"></path><text xmlns="http://www.w3.org/2000/svg" x="420" y="368">2023-09-30</text><path stroke-width="2" d="M 551 346 L 551 351" /><path stroke-width="2" d="M 551 346 L 551 351"></path><text xmlns="http://www.w3.org/2000/svg" x="518" y="368">2023-11-14</text><path stroke-width="2" d="M 650 346 L 650 351" /><path stroke-width="2" d="M 650 346 L 650 351"></path><text xmlns="http://www.w3.org/2000/svg" x="617" y="368">2023-12-30</text><path stroke-width="2" d="M 748 346 L 748 351" /><path stroke-width="2" d="M 748 346 L 748 351"></path><text y="368" xmlns="http://www.w3.org/2000/svg" x="715">2024-02-13</text><path d="M 847 346 L 847 351" stroke-width="2" /><path stroke-width="2" d="M 847 346 L 847 351"></path><text y="368" xmlns="http://www.w3.org/2000/svg" x="814">2024-03-29</text><path stroke-width="2" d="M 945 346 L 945 351" /><path stroke-width="2" d="M 945 346 L 945 351"></path><text xmlns="http://www.w3.org/2000/svg" x="912" y="368">2024-05-14</text><text x="487" y="390" xmlns="http://www.w3.org/2000/svg">Time</text></svg>