<svg xmlns="http://www.w3.org/2000/svg" xmlns:xlink="http://www.w3.org/1999/xlink" width="1024px" height="400px"><style type="text/css">
path { fill: none; stroke: rgb(51,51,51); }
path.series { stroke: #6b63ff; }
rect.background { fill: rgb(255,255,255); stroke: none; }

text {
	stroke-width: 0;
	stroke: none;
	fill: rgba(51,51,51,1.0);
	font-size: 12.8px;
	font-family: 'Roboto Medium', sans-serif;
}
</style><rect rx="8" x="0" y="0" width="1024px" height="400px" class="background" /><rect rx="8" x="0" y="0" width="1024px" height="400px" class="background"></rect><path d="M 58 345 L 61 345 L 76 344 L 76 344 L 76 344 L 76 343 L 76 343 L 76 343 L 76 342 L 76 342 L 77 342 L 77 341 L 77 341 L 77 340 L 77 340 L 77 340 L 77 339 L 77 339 L 77 339 L 78 338 L 78 338 L 79 338 L 80 337 L 80 337 L 80 336 L 80 336 L 81 336 L 82 335 L 83 335 L 84 335 L 85 334 L 86 334 L 91 334 L 91 333 L 91 333 L 91 332 L 91 332 L 93 332 L 95 331 L 96 331 L 98 331 L 102 330 L 103 330 L 110 330 L 112 329 L 115 329 L 119 328 L 121 328 L 135 328 L 136 327 L 136 327 L 138 327 L 138 326 L 138 326 L 138 326 L 138 325 L 138 325 L 138 324 L 138 324 L 138 324 L 138 323 L 138 323 L 138 323 L 138 322 L 139 322 L 139 322 L 139 321 L 139 321 L 139 320 L 139 320 L 139 320 L 139 319 L 139 319 L 139 319 L 139 318 L 139 318 L 139 318 L 139 317 L 139 317 L 139 316 L 139 316 L 139 316 L 139 315 L 139 315 L 139 315 L 139 314 L 139 314 L 139 314 L 139 313 L 139 313 L 139 313 L 139 312 L 139 312 L 139 311 L 139 311 L 139 311 L 139 310 L 139 310 L 139 310 L 140 309 L 140 309 L 140 309 L 140 308 L 140 308 L 140 307 L 141 307 L 141 307 L 141 306 L 141 306 L 141 306 L 141 305 L 141 305 L 141 305 L 141 304 L 141 304 L 141 303 L 141 303 L 141 303 L 141 302 L 141 302 L 141 302 L 142 301 L 142 301 L 143 301 L 143 300 L 143 300 L 143 299 L 146 299 L 146 299 L 147 298 L 148 298 L 148 298 L 150 297 L 152 297 L 153 297 L 155 296 L 156 296 L 157 295 L 158 295 L 158 295 L 160 294 L 161 294 L 161 294 L 162 293 L 163 293 L 164 293 L 164 292 L 164 292 L 164 291 L 165 291 L 167 291 L 167 290 L 167 290 L 168 290 L 168 289 L 168 289 L 170 289 L 171 288 L 173 288 L 174 287 L 175 287 L 176 287 L 176 286 L 176 286 L 178 286 L 184 285 L 184 285 L 185 285 L 191 284 L 191 284 L 191 283 L 191 283 L 191 283 L 192 282 L 194 282 L 195 282 L 195 281 L 202 281 L 203 281 L 205 280 L 207 280 L 209 280 L 209 279 L 210 279 L 215 278 L 220 278 L 226 278 L 227 277 L 227 277 L 227 277 L 227 276 L 229 276 L 237 276 L 241 275 L 241 275 L 244 274 L 245 274 L 245 274 L 255 273 L 255 273 L 255 273 L 256 272 L 257 272 L 259 272 L 260 271 L 262 271 L 264 270 L 266 270 L 271 270 L 271 269 L 272 269 L 272 269 L 272 268 L 273 268 L 275 268 L 281 267 L 292 267 L 296 266 L 299 266 L 299 266 L 300 265 L 302 265 L 302 265 L 302 264 L 302 264 L 302 264 L 302 263 L 302 263 L 302 262 L 302 262 L 302 262 L 302 261 L 302 261 L 302 261 L 303 260 L 303 260 L 305 260 L 305 259 L 305 259 L 305 258 L 305 258 L 307 258 L 307 257 L 307 257 L 307 257 L 307 256 L 307 256 L 307 256 L 308 255 L 308 255 L 309 254 L 309 254 L 309 254 L 309 253 L 309 253 L 310 253 L 310 252 L 310 252 L 310 252 L 311 251 L 312 251 L 312 250 L 313 250 L 314 250 L 314 249 L 316 249 L 318 249 L 318 248 L 319 248 L 319 248 L 319 247 L 319 247 L 319 247 L 321 246 L 321 246 L 323 245 L 323 245 L 324 245 L 325 244 L 327 244 L 327 244 L 329 243 L 330 243 L 330 243 L 331 242 L 331 242 L 335 241 L 336 241 L 337 241 L 340 240 L 342 240 L 345 240 L 346 239 L 346 239 L 347 239 L 348 238 L 348 238 L 350 237 L 352 237 L 354 237 L 354 236 L 355 236 L 356 236 L 356 235 L 357 235 L 357 235 L 357 234 L 357 234 L 358 233 L 359 233 L 359 233 L 359 232 L 360 232 L 364 232 L 369 231 L 369 231 L 369 231 L 372 230 L 374 230 L 375 229 L 375 229 L 376 229 L 377 228 L 377 228 L 377 228 L 377 227 L 377 227 L 378 227 L 378 226 L 378 226 L 378 225 L 379 225 L 381 225 L 381 224 L 381 224 L 381 224 L 382 223 L 382 223 L 382 223 L 382 222 L 382 222 L 382 221 L 382 221 L 382 221 L 382 220 L 386 220 L 389 220 L 389 219 L 389 219 L 400 219 L 401 218 L 404 218 L 406 217 L 412 217 L 414 217 L 416 216 L 417 216 L 417 216 L 417 215 L 417 215 L 417 215 L 417 214 L 417 214 L 418 214 L 419 213 L 427 213 L 429 212 L 432 212 L 438 212 L 442 211 L 445 211 L 448 211 L 452 210 L 452 210 L 461 210 L 470 209 L 470 209 L 477 208 L 477 208 L 482 208 L 483 207 L 485 207 L 485 207 L 486 206 L 486 206 L 489 206 L 490 205 L 493 205 L 496 204 L 497 204 L 498 204 L 499 203 L 502 203 L 505 203 L 505 202 L 509 202 L 513 202 L 514 201 L 514 201 L 515 200 L 516 200 L 517 200 L 520 199 L 523 199 L 525 199 L 527 198 L 528 198 L 532 198 L 533 197 L 536 197 L 540 196 L 540 196 L 545 196 L 546 195 L 546 195 L 547 195 L 548 194 L 550 194 L 550 194 L 552 193 L 555 193 L 556 192 L 556 192 L 556 192 L 564 191 L 564 191 L 564 191 L 565 190 L 565 190 L 566 190 L 566 189 L 566 189 L 567 188 L 568 188 L 569 188 L 570 187 L 571 187 L 571 187 L 572 186 L 572 186 L 572 186 L 573 185 L 574 185 L 574 184 L 574 184 L 574 184 L 574 183 L 575 183 L 576 183 L 577 182 L 577 182 L 578 182 L 578 181 L 579 181 L 580 181 L 581 180 L 581 180 L 582 179 L 583 179 L 584 179 L 585 178 L 585 178 L 586 178 L 587 177 L 587 177 L 588 177 L 588 176 L 588 176 L 588 175 L 589 175 L 589 175 L 589 174 L 590 174 L 594 174 L 595 173 L 596 173 L 596 173 L 598 172 L 600 172 L 600 171 L 602 171 L 605 171 L 607 170 L 610 170 L 610 170 L 610 169 L 611 169 L 611 169 L 611 168 L 612 168 L 612 167 L 613 167 L 613 167 L 613 166 L 613 166 L 615 166 L 616 165 L 616 165 L 617 165 L 617 164 L 619 164 L 620 163 L 620 163 L 621 163 L 622 162 L 624 162 L 626 162 L 630 161 L 630 161 L 630 161 L 631 160 L 633 160 L 635 159 L 635 159 L 635 159 L 635 158 L 636 158 L 638 158 L 641 157 L 641 157 L 641 157 L 641 156 L 643 156 L 644 155 L 644 155 L 644 155 L 647 154 L 650 154 L 650 154 L 654 153 L 654 153 L 655 153 L 659 152 L 660 152 L 662 151 L 664 151 L 666 151 L 667 150 L 667 150 L 667 150 L 668 149 L 668 149 L 668 149 L 669 148 L 669 148 L 669 148 L 670 147 L 670 147 L 670 146 L 671 146 L 672 146 L 673 145 L 677 145 L 678 145 L 683 144 L 685 144 L 685 144 L 686 143 L 687 143 L 689 142 L 690 142 L 690 142 L 690 141 L 691 141 L 691 141 L 691 140 L 691 140 L 691 140 L 692 139 L 692 139 L 692 138 L 692 138 L 693 138 L 693 137 L 694 137 L 695 137 L 695 136 L 696 136 L 697 136 L 698 135 L 698 135 L 698 134 L 698 134 L 700 134 L 702 133 L 702 133 L 702 133 L 703 132 L 703 132 L 704 132 L 704 131 L 704 131 L 705 130 L 707 130 L 710 130 L 713 129 L 714 129 L 715 129 L 719 128 L 722 128 L 723 128 L 725 127 L 729 127 L 729 126 L 729 126 L 734 126 L 736 125 L 736 125 L 737 125 L 737 124 L 746 124 L 746 124 L 747 123 L 747 123 L 748 122 L 748 122 L 749 122 L 750 121 L 750 121 L 751 121 L 751 120 L 751 120 L 752 120 L 752 119 L 752 119 L 752 118 L 752 118 L 753 118 L 753 117 L 754 117 L 756 117 L 757 116 L 757 116 L 757 116 L 758 115 L 758 115 L 759 115 L 760 114 L 761 114 L 761 113 L 761 113 L 761 113 L 763 112 L 763 112 L 765 112 L 765 111 L 766 111 L 766 111 L 767 110 L 767 110 L 767 109 L 767 109 L 768 109 L 768 108 L 769 108 L 770 108 L 770 107 L 771 107 L 771 107 L 772 106 L 772 106 L 772 105 L 772 105 L 773 105 L 773 104 L 773 104 L 774 104 L 774 103 L 775 103 L 775 103 L 776 102 L 776 102 L 776 101 L 776 101 L 776 101 L 777 100 L 777 100 L 777 100 L 777 99 L 777 99 L 779 99 L 781 98 L 783 98 L 783 97 L 783 97 L 783 97 L 784 96 L 785 96 L 786 96 L 787 95 L 789 95 L 792 95 L 792 94 L 793 94 L 794 93 L 794 93 L 795 93 L 795 92 L 796 92 L 796 92 L 796 91 L 796 91 L 796 91 L 796 90 L 796 90 L 796 89 L 796 89 L 797 89 L 797 88 L 797 88 L 797 88 L 798 87 L 798 87 L 798 87 L 799 86 L 799 86 L 801 85 L 802 85 L 802 85 L 802 84 L 803 84 L 803 84 L 804 83 L 807 83 L 808 83 L 808 82 L 808 82 L 808 82 L 808 81 L 811 81 L 813 80 L 813 80 L 815 80 L 815 79 L 815 79 L 815 79 L 816 78 L 821 78 L 824 78 L 827 77 L 828 77 L 829 76 L 830 76 L 831 76 L 831 75 L 832 75 L 832 75 L 832 74 L 833 74 L 834 74 L 834 73 L 835 73 L 837 72 L 837 72 L 837 72 L 837 71 L 837 71 L 837 71 L 837 70 L 837 70 L 837 70 L 837 69 L 837 69 L 838 68 L 838 68 L 838 68 L 838 67 L 838 67 L 838 67 L 839 66 L 839 66 L 839 66 L 839 65 L 839 65 L 839 64 L 839 64 L 840 64 L 840 63 L 840 63 L 841 63 L 841 62 L 841 62 L 841 62 L 841 61 L 841 61 L 843 60 L 844 60 L 846 60 L 846 59 L 846 59 L 848 59 L 848 58 L 848 58 L 849 58 L 851 57 L 853 57 L 854 56 L 854 56 L 854 56 L 854 55 L 854 55 L 854 55 L 854 54 L 856 54 L 856 54 L 856 53 L 860 53 L 862 52 L 864 52 L 866 52 L 867 51 L 868 51 L 868 51 L 868 50 L 869 50 L 869 50 L 870 49 L 870 49 L 871 49 L 871 48 L 872 48 L 872 47 L 872 47 L 872 47 L 872 46 L 872 46 L 873 46 L 873 45 L 873 45 L 873 45 L 874 44 L 875 44 L 876 43 L 876 43 L 876 43 L 877 42 L 877 42 L 878 42 L 878 41 L 879 41 L 879 41 L 879 40 L 880 40 L 881 39 L 885 39 L 886 39 L 887 38 L 890 38 L 891 38 L 892 37 L 895 37 L 896 37 L 897 36 L 900 36 L 905 35 L 906 35 L 908 35 L 910 34 L 912 34 L 912 34 L 912 33 L 915 33 L 915 33 L 916 32 L 917 32 L 918 31 L 920 31 L 921 31 L 921 30 L 921 30 L 922 30 L 922 29 L 923 29 L 927 29 L 927 28 L 928 28 L 930 27 L 930 27 L 931 27 L 932 26 L 933 26 L 933 26 L 933 25 L 933 25 L 934 25 L 936 24 L 936 24 L 936 23 L 938 23 L 938 23 L 938 22 L 939 22 L 940 22 L 940 21 L 940 21 L 941 21 L 942 20 L 942 20 L 942 19 L 942 19 L 942 19 L 943 18 L 943 18 L 945 18" stroke-width="2" class="series" /><path d="M 58 345 L 61 345 L 76 344 L 76 344 L 76 344 L 76 343 L 76 343 L 76 343 L 76 342 L 76 342 L 77 342 L 77 341 L 77 341 L 77 340 L 77 340 L 77 340 L 77 339 L 77 339 L 77 339 L 78 338 L 78 338 L 79 338 L 80 337 L 80 337 L 80 336 L 80 336 L 81 336 L 82 335 L 83 335 L 84 335 L 85 334 L 86 334 L 91 334 L 91 333 L 91 333 L 91 332 L 91 332 L 93 332 L 95 331 L 96 331 L 98 331 L 102 330 L 103 330 L 110 330 L 112 329 L 115 329 L 119 328 L 121 328 L 135 328 L 136 327 L 136 327 L 138 327 L 138 326 L 138 326 L 138 326 L 138 325 L 138 325 L 138 324 L 138 324 L 138 324 L 138 323 L 138 323 L 138 323 L 138 322 L 139 322 L 139 322 L 139 321 L 139 321 L 139 320 L 139 320 L 139 320 L 139 319 L 139 319 L 139 319 L 139 318 L 139 318 L 139 318 L 139 317 L 139 317 L 139 316 L 139 316 L 139 316 L 139 315 L 139 315 L 139 315 L 139 314 L 139 314 L 139 314 L 139 313 L 139 313 L 139 313 L 139 312 L 139 312 L 139 311 L 139 311 L 139 311 L 139 310 L 139 310 L 139 310 L 140 309 L 140 309 L 140 309 L 140 308 L 140 308 L 140 307 L 141 307 L 141 307 L 141 306 L 141 306 L 141 306 L 141 305 L 141 305 L 141 305 L 141 304 L 141 304 L 141 303 L 141 303 L 141 303 L 141 302 L 141 302 L 141 302 L 142 301 L 142 301 L 143 301 L 143 300 L 143 300 L 143 299 L 146 299 L 146 299 L 147 298 L 148 298 L 148 298 L 150 297 L 152 297 L 153 297 L 155 296 L 156 296 L 157 295 L 158 295 L 158 295 L 160 294 L 161 294 L 161 294 L 162 293 L 163 293 L 164 293 L 164 292 L 164 292 L 164 291 L 165 291 L 167 291 L 167 290 L 167 290 L 168 290 L 168 289 L 168 289 L 170 289 L 171 288 L 173 288 L 174 287 L 175 287 L 176 287 L 176 286 L 176 286 L 178 286 L 184 285 L 184 285 L 185 285 L 191 284 L 191 284 L 191 283 L 191 283 L 191 283 L 192 282 L 194 282 L 195 282 L 195 281 L 202 281 L 203 281 L 205 280 L 207 280 L 209 280 L 209 279 L 210 279 L 215 278 L 220 278 L 226 278 L 227 277 L 227 277 L 227 277 L 227 276 L 229 276 L 237 276 L 241 275 L 241 275 L 244 274 L 245 274 L 245 274 L 255 273 L 255 273 L 255 273 L 256 272 L 257 272 L 259 272 L 260 271 L 262 271 L 264 270 L 266 270 L 271 270 L 271 269 L 272 269 L 272 269 L 272 268 L 273 268 L 275 268 L 281 267 L 292 267 L 296 266 L 299 266 L 299 266 L 300 265 L 302 265 L 302 265 L 302 264 L 302 264 L 302 264 L 302 263 L 302 263 L 302 262 L 302 262 L 302 262 L 302 261 L 302 261 L 302 261 L 303 260 L 303 260 L 305 260 L 305 259 L 305 259 L 305 258 L 305 258 L 307 258 L 307 257 L 307 257 L 307 257 L 307 256 L 307 256 L 307 256 L 308 255 L 308 255 L 309 254 L 309 254 L 309 254 L 309 253 L 309 253 L 310 253 L 310 252 L 310 252 L 310 252 L 311 251 L 312 251 L 312 250 L 313 250 L 314 250 L 314 249 L 316 249 L 318 249 L 318 248 L 319 248 L 319 248 L 319 247 L 319 247 L 319 247 L 321 246 L 321 246 L 323 245 L 323 245 L 324 245 L 325 244 L 327 244 L 327 244 L 329 243 L 330 243 L 330 243 L 331 242 L 331 242 L 335 241 L 336 241 L 337 241 L 340 240 L 342 240 L 345 240 L 346 239 L 346 239 L 347 239 L 348 238 L 348 238 L 350 237 L 352 237 L 354 237 L 354 236 L 355 236 L 356 236 L 356 235 L 357 235 L 357 235 L 357 234 L 357 234 L 358 233 L 359 233 L 359 233 L 359 232 L 360 232 L 364 232 L 369 231 L 369 231 L 369 231 L 372 230 L 374 230 L 375 229 L 375 229 L 376 229 L 377 228 L 377 228 L 377 228 L 377 227 L 377 227 L 378 227 L 378 226 L 378 226 L 378 225 L 379 225 L 381 225 L 381 224 L 381 224 L 381 224 L 382 223 L 382 223 L 382 223 L 382 222 L 382 222 L 382 221 L 382 221 L 382 221 L 382 220 L 386 220 L 389 220 L 389 219 L 389 219 L 400 219 L 401 218 L 404 218 L 406 217 L 412 217 L 414 217 L 416 216 L 417 216 L 417 216 L 417 215 L 417 215 L 417 215 L 417 214 L 417 214 L 418 214 L 419 213 L 427 213 L 429 212 L 432 212 L 438 212 L 442 211 L 445 211 L 448 211 L 452 210 L 452 210 L 461 210 L 470 209 L 470 209 L 477 208 L 477 208 L 482 208 L 483 207 L 485 207 L 485 207 L 486 206 L 486 206 L 489 206 L 490 205 L 493 205 L 496 204 L 497 204 L 498 204 L 499 203 L 502 203 L 505 203 L 505 202 L 509 202 L 513 202 L 514 201 L 514 201 L 515 200 L 516 200 L 517 200 L 520 199 L 523 199 L 525 199 L 527 198 L 528 198 L 532 198 L 533 197 L 536 197 L 540 196 L 540 196 L 545 196 L 546 195 L 546 195 L 547 195 L 548 194 L 550 194 L 550 194 L 552 193 L 555 193 L 556 192 L 556 192 L 556 192 L 564 191 L 564 191 L 564 191 L 565 190 L 565 190 L 566 190 L 566 189 L 566 189 L 567 188 L 568 188 L 569 188 L 570 187 L 571 187 L 571 187 L 572 186 L 572 186 L 572 186 L 573 185 L 574 185 L 574 184 L 574 184 L 574 184 L 574 183 L 575 183 L 576 183 L 577 182 L 577 182 L 578 182 L 578 181 L 579 181 L 580 181 L 581 180 L 581 180 L 582 179 L 583 179 L 584 179 L 585 178 L 585 178 L 586 178 L 587 177 L 587 177 L 588 177 L 588 176 L 588 176 L 588 175 L 589 175 L 589 175 L 589 174 L 590 174 L 594 174 L 595 173 L 596 173 L 596 173 L 598 172 L 600 172 L 600 171 L 602 171 L 605 171 L 607 170 L 610 170 L 610 170 L 610 169 L 611 169 L 611 169 L 611 168 L 612 168 L 612 167 L 613 167 L 613 167 L 613 166 L 613 166 L 615 166 L 616 165 L 616 165 L 617 165 L 617 164 L 619 164 L 620 163 L 620 163 L 621 163 L 622 162 L 624 162 L 626 162 L 630 161 L 630 161 L 630 161 L 631 160 L 633 160 L 635 159 L 635 159 L 635 159 L 635 158 L 636 158 L 638 158 L 641 157 L 641 157 L 641 157 L 641 156 L 643 156 L 644 155 L 644 155 L 644 155 L 647 154 L 650 154 L 650 154 L 654 153 L 654 153 L 655 153 L 659 152 L 660 152 L 662 151 L 664 151 L 666 151 L 667 150 L 667 150 L 667 150 L 668 149 L 668 149 L 668 149 L 669 148 L 669 148 L 669 148 L 670 147 L 670 147 L 670 146 L 671 146 L 672 146 L 673 145 L 677 145 L 678 145 L 683 144 L 685 144 L 685 144 L 686 143 L 687 143 L 689 142 L 690 142 L 690 142 L 690 141 L 691 141 L 691 141 L 691 140 L 691 140 L 691 140 L 692 139 L 692 139 L 692 138 L 692 138 L 693 138 L 693 137 L 694 137 L 695 137 L 695 136 L 696 136 L 697 136 L 698 135 L 698 135 L 698 134 L 698 134 L 700 134 L 702 133 L 702 133 L 702 133 L 703 132 L 703 132 L 704 132 L 704 131 L 704 131 L 705 130 L 707 130 L 710 130 L 713 129 L 714 129 L 715 129 L 719 128 L 722 128 L 723 128 L 725 127 L 729 127 L 729 126 L 729 126 L 734 126 L 736 125 L 736 125 L 737 125 L 737 124 L 746 124 L 746 124 L 747 123 L 747 123 L 748 122 L 748 122 L 749 122 L 750 121 L 750 121 L 751 121 L 751 120 L 751 120 L 752 120 L 752 119 L 752 119 L 752 118 L 752 118 L 753 118 L 753 117 L 754 117 L 756 117 L 757 116 L 757 116 L 757 116 L 758 115 L 758 115 L 759 115 L 760 114 L 761 114 L 761 113 L 761 113 L 761 113 L 763 112 L 763 112 L 765 112 L 765 111 L 766 111 L 766 111 L 767 110 L 767 110 L 767 109 L 767 109 L 768 109 L 768 108 L 769 108 L 770 108 L 770 107 L 771 107 L 771 107 L 772 106 L 772 106 L 772 105 L 772 105 L 773 105 L 773 104 L 773 104 L 774 104 L 774 103 L 775 103 L 775 103 L 776 102 L 776 102 L 776 101 L 776 101 L 776 101 L 777 100 L 777 100 L 777 100 L 777 99 L 777 99 L 779 99 L 781 98 L 783 98 L 783 97 L 783 97 L 783 97 L 784 96 L 785 96 L 786 96 L 787 95 L 789 95 L 792 95 L 792 94 L 793 94 L 794 93 L 794 93 L 795 93 L 795 92 L 796 92 L 796 92 L 796 91 L 796 91 L 796 91 L 796 90 L 796 90 L 796 89 L 796 89 L 797 89 L 797 88 L 797 88 L 797 88 L 798 87 L 798 87 L 798 87 L 799 86 L 799 86 L 801 85 L 802 85 L 802 85 L 802 84 L 803 84 L 803 84 L 804 83 L 807 83 L 808 83 L 808 82 L 808 82 L 808 82 L 808 81 L 811 81 L 813 80 L 813 80 L 815 80 L 815 79 L 815 79 L 815 79 L 816 78 L 821 78 L 824 78 L 827 77 L 828 77 L 829 76 L 830 76 L 831 76 L 831 75 L 832 75 L 832 75 L 832 74 L 833 74 L 834 74 L 834 73 L 835 73 L 837 72 L 837 72 L 837 72 L 837 71 L 837 71 L 837 71 L 837 70 L 837 70 L 837 70 L 837 69 L 837 69 L 838 68 L 838 68 L 838 68 L 838 67 L 838 67 L 838 67 L 839 66 L 839 66 L 839 66 L 839 65 L 839 65 L 839 64 L 839 64 L 840 64 L 840 63 L 840 63 L 841 63 L 841 62 L 841 62 L 841 62 L 841 61 L 841 61 L 843 60 L 844 60 L 846 60 L 846 59 L 846 59 L 848 59 L 848 58 L 848 58 L 849 58 L 851 57 L 853 57 L 854 56 L 854 56 L 854 56 L 854 55 L 854 55 L 854 55 L 854 54 L 856 54 L 856 54 L 856 53 L 860 53 L 862 52 L 864 52 L 866 52 L 867 51 L 868 51 L 868 51 L 868 50 L 869 50 L 869 50 L 870 49 L 870 49 L 871 49 L 871 48 L 872 48 L 872 47 L 872 47 L 872 47 L 872 46 L 872 46 L 873 46 L 873 45 L 873 45 L 873 45 L 874 44 L 875 44 L 876 43 L 876 43 L 876 43 L 877 42 L 877 42 L 878 42 L 878 41 L 879 41 L 879 41 L 879 40 L 880 40 L 881 39 L 885 39 L 886 39 L 887 38 L 890 38 L 891 38 L 892 37 L 895 37 L 896 37 L 897 36 L 900 36 L 905 35 L 906 35 L 908 35 L 910 34 L 912 34 L 912 34 L 912 33 L 915 33 L 915 33 L 916 32 L 917 32 L 918 31 L 920 31 L 921 31 L 921 30 L 921 30 L 922 30 L 922 29 L 923 29 L 927 29 L 927 28 L 928 28 L 930 27 L 930 27 L 931 27 L 932 26 L 933 26 L 933 26 L 933 25 L 933 25 L 934 25 L 936 24 L 936 24 L 936 23 L 938 23 L 938 23 L 938 22 L 939 22 L 940 22 L 940 21 L 940 21 L 941 21 L 942 20 L 942 20 L 942 19 L 942 19 L 942 19 L 943 18 L 943 18 L 945 18" stroke-width="2" class="series"></path><path stroke-width="2" d="M 945 346 L 945.000000 15.000000" /><path stroke-width="2" d="M 945 346 L 945.000000 15.000000"></path><path d="M 945 346 L 950 346" stroke-width="2" /><path stroke-width="2" d="M 945 346 L 950 346"></path><text xmlns="http://www.w3.org/2000/svg" x="955" y="352">0</text><path stroke-width="2" d="M 945 309 L 950 309" /><path stroke-width="2" d="M 945 309 L 950 309"></path><text xmlns="http://www.w3.org/2000/svg" x="955" y="315">102</text><path stroke-width="2" d="M 945 272 L 950 272" /><path stroke-width="2" d="M 945 272 L 950 272"></path><text y="278" xmlns="http://www.w3.org/2000/svg" x="955">203</text><path stroke-width="2" d="M 945 235 L 950 235" /><path stroke-width="2" d="M 945 235 L 950 235"></path><text x="955" y="241" xmlns="http://www.w3.org/2000/svg">304</text><path stroke-width="2" d="M 945 199 L 950 199" /><path stroke-width="2" d="M 945 199 L 950 199"></path><text x="955" y="205" xmlns="http://www.w3.org/2000/svg">405</text><path stroke-width="2" d="M 945 162 L 950 162" /><path stroke-width="2" d="M 945 162 L 950 162"></path><text xmlns="http://www.w3.org/2000/svg" x="955" y="168">506</text><path stroke-width="2" d="M 945 125 L 950 125" /><path stroke-width="2" d="M 945 125 L 950 125"></path><text xmlns="http://www.w3.org/2000/svg" x="955" y="131">607</text><path stroke-width="2" d="M 945 89 L 950 89" /><path stroke-width="2" d="M 945 89 L 950 89"></path><text xmlns="http://www.w3.org/2000/svg" x="955" y="95">708</text><path stroke-width="2" d="M 945 52 L 950 52" /><path stroke-width="2" d="M 945 52 L 950 52"></path><text xmlns="http://www.w3.org/2000/svg" x="955" y="58">809</text><path stroke-width="2" d="M 945 16 L 950 16" /><path stroke-width="2" d="M 945 16 L 950 16"></path><text y="22" xmlns="http://www.w3.org/2000/svg" x="955">910</text><text xmlns="http://www.w3.org/2000/svg" x="987" y="175" transform="rotate(90.00,987,175)">Stargazers</text><path stroke-width="2" d="M 57.000000 346.000000 L 945 346" /><path stroke-width="2" d="M 57.000000 346.000000 L 945 346"></path><path stroke-width="2" d="M 58 346 L 58 351" /><path stroke-width="2" d="M 58 346 L 58 351"></path><text xmlns="http://www.w3.org/2000/svg" x="25" y="368">2023-04-02</text><path d="M 157 346 L 157 351" stroke-width="2" /><path stroke-width="2" d="M 157 346 L 157 351"></path><text xmlns="http://www.w3.org/2000/svg" x="124" y="368">2023-06-20</text><path stroke-width="2" d="M 256 346 L 256 351" /><path stroke-width="2" d="M 256 346 L 256 351"></path><text x="223" y="368" xmlns="http://www.w3.org/2000/svg">2023-09-08</text><path stroke-width="2" d="M 354 346 L 354 351" /><path stroke-width="2" d="M 354 346 L 354 351"></path><text xmlns="http://www.w3.org/2000/svg" x="321" y="368">2023-11-26</text><path stroke-width="2" d="M 453 346 L 453 351" /><path d="M 453 346 L 453 351" stroke-width="2"></path><text x="420" y="368" xmlns="http://www.w3.org/2000/svg">2024-02-14</text><path stroke-width="2" d="M 551 346 L 551 351" /><path stroke-width="2" d="M 551 346 L 551 351"></path><text xmlns="http://www.w3.org/2000/svg" x="518" y="368">2024-05-03</text><path stroke-width="2" d="M 650 346 L 650 351" /><path stroke-width="2" d="M 650 346 L 650 351"></path><text xmlns="http://www.w3.org/2000/svg" x="617" y="368">2024-07-21</text><path d="M 748 346 L 748 351" stroke-width="2" /><path stroke-width="2" d="M 748 346 L 748 351"></path><text xmlns="http://www.w3.org/2000/svg" x="715" y="368">2024-10-09</text><path stroke-width="2" d="M 847 346 L 847 351" /><path stroke-width="2" d="M 847 346 L 847 351"></path><text xmlns="http://www.w3.org/2000/svg" x="814" y="368">2024-12-27</text><path stroke-width="2" d="M 945 346 L 945 351" /><path stroke-width="2" d="M 945 346 L 945 351"></path><text xmlns="http://www.w3.org/2000/svg" x="912" y="368">2025-03-17</text><text xmlns="http://www.w3.org/2000/svg" x="487" y="390">Time</text></svg>