<svg width="1024px" height="400px" xmlns="http://www.w3.org/2000/svg" xmlns:xlink="http://www.w3.org/1999/xlink"><style type="text/css">
path { fill: none; stroke: rgb(51,51,51); }
path.series { stroke: #6b63ff; }
rect.background { fill: rgb(255,255,255); stroke: none; }

text {
	stroke-width: 0;
	stroke: none;
	fill: rgba(51,51,51,1.0);
	font-size: 12.8px;
	font-family: 'Roboto Medium', sans-serif;
}
</style><rect x="0" y="0" width="1024px" height="400px" class="background" rx="8" /><rect x="0" y="0" width="1024px" height="400px" class="background" rx="8"></rect><path stroke-width="2" class="series" d="M 58 345 L 64 344 L 103 343 L 104 342 L 105 341 L 105 340 L 105 339 L 105 338 L 105 337 L 105 336 L 105 335 L 106 335 L 106 334 L 106 333 L 106 332 L 106 331 L 106 330 L 106 329 L 107 328 L 107 327 L 109 326 L 110 325 L 111 324 L 113 324 L 115 323 L 115 322 L 116 321 L 117 320 L 119 319 L 123 318 L 124 317 L 127 316 L 129 315 L 142 314 L 142 313 L 142 313 L 142 312 L 142 311 L 142 310 L 143 309 L 149 308 L 153 307 L 155 306 L 161 305 L 170 304 L 174 303 L 192 302 L 197 302 L 206 301 L 216 300 L 220 299 L 257 298 L 259 297 L 259 296 L 264 295 L 265 294 L 265 293 L 265 292 L 265 291 L 265 291 L 265 290 L 265 289 L 265 288 L 266 287 L 266 286 L 266 285 L 266 284 L 267 283 L 267 282 L 267 281 L 267 280 L 267 280 L 267 279 L 267 278 L 267 277 L 267 276 L 267 275 L 267 274 L 267 273 L 267 272 L 267 271 L 267 270 L 267 269 L 267 269 L 268 268 L 268 267 L 268 266 L 268 265 L 268 264 L 268 263 L 268 262 L 268 261 L 268 260 L 268 259 L 268 258 L 268 258 L 268 257 L 268 256 L 268 255 L 268 254 L 269 253 L 269 252 L 269 251 L 270 250 L 270 249 L 271 248 L 271 247 L 272 247 L 273 246 L 274 245 L 274 244 L 274 243 L 274 242 L 274 241 L 274 240 L 274 239 L 274 238 L 274 237 L 274 236 L 274 236 L 274 235 L 274 234 L 274 233 L 274 232 L 274 231 L 275 230 L 278 229 L 278 228 L 278 227 L 278 226 L 287 225 L 287 225 L 287 224 L 291 223 L 291 222 L 296 221 L 303 220 L 304 219 L 309 218 L 311 217 L 315 216 L 316 215 L 318 214 L 323 214 L 324 213 L 326 212 L 329 211 L 330 210 L 332 209 L 333 208 L 333 207 L 334 206 L 337 205 L 340 204 L 340 203 L 341 203 L 342 202 L 342 201 L 345 200 L 349 199 L 352 198 L 357 197 L 359 196 L 361 195 L 364 194 L 364 193 L 365 192 L 368 192 L 384 191 L 385 190 L 387 189 L 402 188 L 403 187 L 403 186 L 403 185 L 404 184 L 406 183 L 411 182 L 413 181 L 414 181 L 432 180 L 435 179 L 440 178 L 445 177 L 449 176 L 449 175 L 452 174 L 464 173 L 478 172 L 495 171 L 496 170 L 496 170 L 497 169 L 498 168 L 501 167 L 523 166 L 533 165 L 533 164 L 542 163 L 543 162 L 545 161 L 569 160 L 569 159 L 570 159 L 571 158 L 574 157 L 581 156 L 584 155 L 589 154 L 592 153 L 597 152 L 611 151 L 611 150 L 614 149 L 614 148 L 615 148 L 615 147 L 623 146 L 623 145 L 636 144 L 656 143 L 666 142 L 677 141 L 678 140 L 683 139 L 684 138 L 688 137 L 691 137 L 691 136 L 691 135 L 691 134 L 691 133 L 691 132 L 691 131 L 691 130 L 692 129 L 692 128 L 692 127 L 692 126 L 692 126 L 693 125 L 694 124 L 696 123 L 699 122 L 700 121 L 700 120 L 700 119 L 700 118 L 704 117 L 704 116 L 704 115 L 704 115 L 704 114 L 704 113 L 705 112 L 707 111 L 707 110 L 708 109 L 709 108 L 710 107 L 710 106 L 711 105 L 711 104 L 713 104 L 713 103 L 714 102 L 714 101 L 716 100 L 717 99 L 717 98 L 720 97 L 722 96 L 724 95 L 728 94 L 733 93 L 733 92 L 735 92 L 736 91 L 736 90 L 736 89 L 736 88 L 740 87 L 742 86 L 746 85 L 746 84 L 748 83 L 753 82 L 756 82 L 756 81 L 763 80 L 764 79 L 765 78 L 767 77 L 767 76 L 779 75 L 781 74 L 782 73 L 790 72 L 795 71 L 804 71 L 806 70 L 807 69 L 809 68 L 810 67 L 810 66 L 817 65 L 823 64 L 827 63 L 827 62 L 830 61 L 833 60 L 834 60 L 834 59 L 834 58 L 835 57 L 836 56 L 836 55 L 839 54 L 839 53 L 839 52 L 842 51 L 852 50 L 865 49 L 865 49 L 866 48 L 874 47 L 878 46 L 880 45 L 881 44 L 884 43 L 887 42 L 887 41 L 887 40 L 887 39 L 888 38 L 888 38 L 889 37 L 890 36 L 890 35 L 892 34 L 898 33 L 898 32 L 898 31 L 898 30 L 899 29 L 900 28 L 900 27 L 900 27 L 900 26 L 900 25 L 900 24 L 900 23 L 901 22 L 904 21 L 910 20 L 917 19 L 917 18 L 919 17 L 931 16 L 945 16" /><path stroke-width="2" class="series" d="M 58 345 L 64 344 L 103 343 L 104 342 L 105 341 L 105 340 L 105 339 L 105 338 L 105 337 L 105 336 L 105 335 L 106 335 L 106 334 L 106 333 L 106 332 L 106 331 L 106 330 L 106 329 L 107 328 L 107 327 L 109 326 L 110 325 L 111 324 L 113 324 L 115 323 L 115 322 L 116 321 L 117 320 L 119 319 L 123 318 L 124 317 L 127 316 L 129 315 L 142 314 L 142 313 L 142 313 L 142 312 L 142 311 L 142 310 L 143 309 L 149 308 L 153 307 L 155 306 L 161 305 L 170 304 L 174 303 L 192 302 L 197 302 L 206 301 L 216 300 L 220 299 L 257 298 L 259 297 L 259 296 L 264 295 L 265 294 L 265 293 L 265 292 L 265 291 L 265 291 L 265 290 L 265 289 L 265 288 L 266 287 L 266 286 L 266 285 L 266 284 L 267 283 L 267 282 L 267 281 L 267 280 L 267 280 L 267 279 L 267 278 L 267 277 L 267 276 L 267 275 L 267 274 L 267 273 L 267 272 L 267 271 L 267 270 L 267 269 L 267 269 L 268 268 L 268 267 L 268 266 L 268 265 L 268 264 L 268 263 L 268 262 L 268 261 L 268 260 L 268 259 L 268 258 L 268 258 L 268 257 L 268 256 L 268 255 L 268 254 L 269 253 L 269 252 L 269 251 L 270 250 L 270 249 L 271 248 L 271 247 L 272 247 L 273 246 L 274 245 L 274 244 L 274 243 L 274 242 L 274 241 L 274 240 L 274 239 L 274 238 L 274 237 L 274 236 L 274 236 L 274 235 L 274 234 L 274 233 L 274 232 L 274 231 L 275 230 L 278 229 L 278 228 L 278 227 L 278 226 L 287 225 L 287 225 L 287 224 L 291 223 L 291 222 L 296 221 L 303 220 L 304 219 L 309 218 L 311 217 L 315 216 L 316 215 L 318 214 L 323 214 L 324 213 L 326 212 L 329 211 L 330 210 L 332 209 L 333 208 L 333 207 L 334 206 L 337 205 L 340 204 L 340 203 L 341 203 L 342 202 L 342 201 L 345 200 L 349 199 L 352 198 L 357 197 L 359 196 L 361 195 L 364 194 L 364 193 L 365 192 L 368 192 L 384 191 L 385 190 L 387 189 L 402 188 L 403 187 L 403 186 L 403 185 L 404 184 L 406 183 L 411 182 L 413 181 L 414 181 L 432 180 L 435 179 L 440 178 L 445 177 L 449 176 L 449 175 L 452 174 L 464 173 L 478 172 L 495 171 L 496 170 L 496 170 L 497 169 L 498 168 L 501 167 L 523 166 L 533 165 L 533 164 L 542 163 L 543 162 L 545 161 L 569 160 L 569 159 L 570 159 L 571 158 L 574 157 L 581 156 L 584 155 L 589 154 L 592 153 L 597 152 L 611 151 L 611 150 L 614 149 L 614 148 L 615 148 L 615 147 L 623 146 L 623 145 L 636 144 L 656 143 L 666 142 L 677 141 L 678 140 L 683 139 L 684 138 L 688 137 L 691 137 L 691 136 L 691 135 L 691 134 L 691 133 L 691 132 L 691 131 L 691 130 L 692 129 L 692 128 L 692 127 L 692 126 L 692 126 L 693 125 L 694 124 L 696 123 L 699 122 L 700 121 L 700 120 L 700 119 L 700 118 L 704 117 L 704 116 L 704 115 L 704 115 L 704 114 L 704 113 L 705 112 L 707 111 L 707 110 L 708 109 L 709 108 L 710 107 L 710 106 L 711 105 L 711 104 L 713 104 L 713 103 L 714 102 L 714 101 L 716 100 L 717 99 L 717 98 L 720 97 L 722 96 L 724 95 L 728 94 L 733 93 L 733 92 L 735 92 L 736 91 L 736 90 L 736 89 L 736 88 L 740 87 L 742 86 L 746 85 L 746 84 L 748 83 L 753 82 L 756 82 L 756 81 L 763 80 L 764 79 L 765 78 L 767 77 L 767 76 L 779 75 L 781 74 L 782 73 L 790 72 L 795 71 L 804 71 L 806 70 L 807 69 L 809 68 L 810 67 L 810 66 L 817 65 L 823 64 L 827 63 L 827 62 L 830 61 L 833 60 L 834 60 L 834 59 L 834 58 L 835 57 L 836 56 L 836 55 L 839 54 L 839 53 L 839 52 L 842 51 L 852 50 L 865 49 L 865 49 L 866 48 L 874 47 L 878 46 L 880 45 L 881 44 L 884 43 L 887 42 L 887 41 L 887 40 L 887 39 L 888 38 L 888 38 L 889 37 L 890 36 L 890 35 L 892 34 L 898 33 L 898 32 L 898 31 L 898 30 L 899 29 L 900 28 L 900 27 L 900 27 L 900 26 L 900 25 L 900 24 L 900 23 L 901 22 L 904 21 L 910 20 L 917 19 L 917 18 L 919 17 L 931 16 L 945 16"></path><path stroke-width="2" d="M 945 346 L 945.000000 15.000000" /><path stroke-width="2" d="M 945 346 L 945.000000 15.000000"></path><path d="M 945 346 L 950 346" stroke-width="2" /><path d="M 945 346 L 950 346" stroke-width="2"></path><text xmlns="http://www.w3.org/2000/svg" x="955" y="352">0</text><path stroke-width="2" d="M 945 309 L 950 309" /><path stroke-width="2" d="M 945 309 L 950 309"></path><text xmlns="http://www.w3.org/2000/svg" x="955" y="315">40</text><path stroke-width="2" d="M 945 272 L 950 272" /><path stroke-width="2" d="M 945 272 L 950 272"></path><text xmlns="http://www.w3.org/2000/svg" x="955" y="278">80</text><path stroke-width="2" d="M 945 236 L 950 236" /><path stroke-width="2" d="M 945 236 L 950 236"></path><text xmlns="http://www.w3.org/2000/svg" x="955" y="242">120</text><path stroke-width="2" d="M 945 199 L 950 199" /><path stroke-width="2" d="M 945 199 L 950 199"></path><text x="955" y="205" xmlns="http://www.w3.org/2000/svg">160</text><path stroke-width="2" d="M 945 162 L 950 162" /><path stroke-width="2" d="M 945 162 L 950 162"></path><text xmlns="http://www.w3.org/2000/svg" x="955" y="168">200</text><path d="M 945 126 L 950 126" stroke-width="2" /><path stroke-width="2" d="M 945 126 L 950 126"></path><text xmlns="http://www.w3.org/2000/svg" x="955" y="132">240</text><path stroke-width="2" d="M 945 89 L 950 89" /><path stroke-width="2" d="M 945 89 L 950 89"></path><text xmlns="http://www.w3.org/2000/svg" x="955" y="95">280</text><path d="M 945 52 L 950 52" stroke-width="2" /><path stroke-width="2" d="M 945 52 L 950 52"></path><text y="58" xmlns="http://www.w3.org/2000/svg" x="955">320</text><path stroke-width="2" d="M 945 16 L 950 16" /><path stroke-width="2" d="M 945 16 L 950 16"></path><text xmlns="http://www.w3.org/2000/svg" x="955" y="22">360</text><text xmlns="http://www.w3.org/2000/svg" x="987" y="175" transform="rotate(90.00,987,175)">Stargazers</text><path stroke-width="2" d="M 57.000000 346.000000 L 945 346" /><path stroke-width="2" d="M 57.000000 346.000000 L 945 346"></path><path stroke-width="2" d="M 58 346 L 58 351" /><path stroke-width="2" d="M 58 346 L 58 351"></path><text xmlns="http://www.w3.org/2000/svg" x="25" y="368">2023-04-02</text><path d="M 157 346 L 157 351" stroke-width="2" /><path stroke-width="2" d="M 157 346 L 157 351"></path><text xmlns="http://www.w3.org/2000/svg" x="124" y="368">2023-05-02</text><path stroke-width="2" d="M 256 346 L 256 351" /><path stroke-width="2" d="M 256 346 L 256 351"></path><text xmlns="http://www.w3.org/2000/svg" x="223" y="368">2023-06-02</text><path stroke-width="2" d="M 354 346 L 354 351" /><path stroke-width="2" d="M 354 346 L 354 351"></path><text xmlns="http://www.w3.org/2000/svg" x="321" y="368">2023-07-03</text><path stroke-width="2" d="M 453 346 L 453 351" /><path stroke-width="2" d="M 453 346 L 453 351"></path><text xmlns="http://www.w3.org/2000/svg" x="420" y="368">2023-08-02</text><path stroke-width="2" d="M 551 346 L 551 351" /><path stroke-width="2" d="M 551 346 L 551 351"></path><text xmlns="http://www.w3.org/2000/svg" x="518" y="368">2023-09-02</text><path stroke-width="2" d="M 650 346 L 650 351" /><path d="M 650 346 L 650 351" stroke-width="2"></path><text xmlns="http://www.w3.org/2000/svg" x="617" y="368">2023-10-02</text><path stroke-width="2" d="M 748 346 L 748 351" /><path stroke-width="2" d="M 748 346 L 748 351"></path><text xmlns="http://www.w3.org/2000/svg" x="715" y="368">2023-11-02</text><path stroke-width="2" d="M 847 346 L 847 351" /><path stroke-width="2" d="M 847 346 L 847 351"></path><text xmlns="http://www.w3.org/2000/svg" x="814" y="368">2023-12-02</text><path stroke-width="2" d="M 945 346 L 945 351" /><path stroke-width="2" d="M 945 346 L 945 351"></path><text xmlns="http://www.w3.org/2000/svg" x="912" y="368">2024-01-02</text><text x="487" y="390" xmlns="http://www.w3.org/2000/svg">Time</text></svg>