<svg xmlns="http://www.w3.org/2000/svg" xmlns:xlink="http://www.w3.org/1999/xlink" width="1024" height="400">\n<path  d="M 0 0
L 1024 0
L 1024 400
L 0 400
L 0 0" style="stroke-width:0;stroke:rgba(255,255,255,1.0);fill:rgba(255,255,255,1.0)"/><path  d="M 38 11
L 965 11
L 965 351
L 38 351
L 38 11" style="stroke-width:0;stroke:rgba(255,255,255,1.0);fill:rgba(255,255,255,1.0)"/><path  d="M 38 351
L 965 351" style="stroke-width:2;stroke:rgba(85,85,85,1.0);fill:none"/><path  d="M 38 351
L 38 356" style="stroke-width:2;stroke:rgba(85,85,85,1.0);fill:none"/><text x="5" y="373" style="stroke-width:0;stroke:none;fill:rgba(51,51,51,1.0);font-size:12.8px;font-family:'Roboto Medium',sans-serif">2023-04-02</text><path  d="M 154 351
L 154 356" style="stroke-width:2;stroke:rgba(85,85,85,1.0);fill:none"/><text x="121" y="373" style="stroke-width:0;stroke:none;fill:rgba(51,51,51,1.0);font-size:12.8px;font-family:'Roboto Medium',sans-serif">2023-04-27</text><path  d="M 270 351
L 270 356" style="stroke-width:2;stroke:rgba(85,85,85,1.0);fill:none"/><text x="237" y="373" style="stroke-width:0;stroke:none;fill:rgba(51,51,51,1.0);font-size:12.8px;font-family:'Roboto Medium',sans-serif">2023-05-21</text><path  d="M 386 351
L 386 356" style="stroke-width:2;stroke:rgba(85,85,85,1.0);fill:none"/><text x="353" y="373" style="stroke-width:0;stroke:none;fill:rgba(51,51,51,1.0);font-size:12.8px;font-family:'Roboto Medium',sans-serif">2023-06-15</text><path  d="M 502 351
L 502 356" style="stroke-width:2;stroke:rgba(85,85,85,1.0);fill:none"/><text x="469" y="373" style="stroke-width:0;stroke:none;fill:rgba(51,51,51,1.0);font-size:12.8px;font-family:'Roboto Medium',sans-serif">2023-07-09</text><path  d="M 618 351
L 618 356" style="stroke-width:2;stroke:rgba(85,85,85,1.0);fill:none"/><text x="585" y="373" style="stroke-width:0;stroke:none;fill:rgba(51,51,51,1.0);font-size:12.8px;font-family:'Roboto Medium',sans-serif">2023-08-03</text><path  d="M 734 351
L 734 356" style="stroke-width:2;stroke:rgba(85,85,85,1.0);fill:none"/><text x="701" y="373" style="stroke-width:0;stroke:none;fill:rgba(51,51,51,1.0);font-size:12.8px;font-family:'Roboto Medium',sans-serif">2023-08-28</text><path  d="M 850 351
L 850 356" style="stroke-width:2;stroke:rgba(85,85,85,1.0);fill:none"/><text x="817" y="373" style="stroke-width:0;stroke:none;fill:rgba(51,51,51,1.0);font-size:12.8px;font-family:'Roboto Medium',sans-serif">2023-09-21</text><path  d="M 965 351
L 965 356" style="stroke-width:2;stroke:rgba(85,85,85,1.0);fill:none"/><text x="932" y="373" style="stroke-width:0;stroke:none;fill:rgba(51,51,51,1.0);font-size:12.8px;font-family:'Roboto Medium',sans-serif">2023-10-16</text><text x="487" y="395" style="stroke-width:0;stroke:none;fill:rgba(51,51,51,1.0);font-size:12.8px;font-family:'Roboto Medium',sans-serif">Time</text><path  d="M 967 351
L 967 11" style="stroke-width:2;stroke:rgba(85,85,85,1.0);fill:none"/><path  d="M 967 351
L 972 351" style="stroke-width:2;stroke:rgba(85,85,85,1.0);fill:none"/><text x="977" y="357" style="stroke-width:0;stroke:none;fill:rgba(51,51,51,1.0);font-size:12.8px;font-family:'Roboto Medium',sans-serif">0</text><path  d="M 967 307
L 972 307" style="stroke-width:2;stroke:rgba(85,85,85,1.0);fill:none"/><text x="977" y="313" style="stroke-width:0;stroke:none;fill:rgba(51,51,51,1.0);font-size:12.8px;font-family:'Roboto Medium',sans-serif">32</text><path  d="M 967 265
L 972 265" style="stroke-width:2;stroke:rgba(85,85,85,1.0);fill:none"/><text x="977" y="271" style="stroke-width:0;stroke:none;fill:rgba(51,51,51,1.0);font-size:12.8px;font-family:'Roboto Medium',sans-serif">63</text><path  d="M 967 223
L 972 223" style="stroke-width:2;stroke:rgba(85,85,85,1.0);fill:none"/><text x="977" y="229" style="stroke-width:0;stroke:none;fill:rgba(51,51,51,1.0);font-size:12.8px;font-family:'Roboto Medium',sans-serif">94</text><path  d="M 967 181
L 972 181" style="stroke-width:2;stroke:rgba(85,85,85,1.0);fill:none"/><text x="977" y="187" style="stroke-width:0;stroke:none;fill:rgba(51,51,51,1.0);font-size:12.8px;font-family:'Roboto Medium',sans-serif">125</text><path  d="M 967 137
L 972 137" style="stroke-width:2;stroke:rgba(85,85,85,1.0);fill:none"/><text x="977" y="143" style="stroke-width:0;stroke:none;fill:rgba(51,51,51,1.0);font-size:12.8px;font-family:'Roboto Medium',sans-serif">157</text><path  d="M 967 95
L 972 95" style="stroke-width:2;stroke:rgba(85,85,85,1.0);fill:none"/><text x="977" y="101" style="stroke-width:0;stroke:none;fill:rgba(51,51,51,1.0);font-size:12.8px;font-family:'Roboto Medium',sans-serif">188</text><path  d="M 967 53
L 972 53" style="stroke-width:2;stroke:rgba(85,85,85,1.0);fill:none"/><text x="977" y="59" style="stroke-width:0;stroke:none;fill:rgba(51,51,51,1.0);font-size:12.8px;font-family:'Roboto Medium',sans-serif">219</text><path  d="M 967 11
L 972 11" style="stroke-width:2;stroke:rgba(85,85,85,1.0);fill:none"/><text x="977" y="17" style="stroke-width:0;stroke:none;fill:rgba(51,51,51,1.0);font-size:12.8px;font-family:'Roboto Medium',sans-serif">250</text><text x="1009" y="150" style="stroke-width:0;stroke:none;fill:rgba(51,51,51,1.0);font-size:12.8px;font-family:'Roboto Medium',sans-serif" transform="rotate(90.00,1009,150)">Stargazers</text><path  d="M 38 351
L 47 349
L 104 348
L 106 346
L 106 345
L 106 344
L 106 342
L 106 341
L 106 340
L 106 338
L 107 337
L 107 336
L 107 334
L 107 333
L 108 331
L 108 330
L 108 329
L 108 327
L 109 326
L 109 325
L 112 323
L 114 322
L 115 321
L 119 319
L 121 318
L 121 317
L 122 315
L 124 314
L 124 312
L 127 311
L 133 310
L 134 308
L 138 307
L 142 306
L 160 304
L 160 303
L 160 302
L 160 300
L 161 299
L 161 297
L 161 296
L 171 295
L 176 293
L 179 292
L 187 291
L 202 289
L 207 288
L 233 287
L 241 285
L 254 284
L 268 283
L 275 281
L 328 280
L 331 278
L 331 277
L 338 276
L 340 274
L 340 273
L 340 272
L 340 270
L 340 269
L 340 268
L 340 266
L 340 265
L 341 263
L 341 262
L 341 261
L 342 259
L 343 258
L 343 257
L 343 255
L 343 254
L 343 253
L 343 251
L 343 250
L 343 249
L 343 247
L 343 246
L 343 244
L 343 243
L 343 242
L 343 240
L 343 239
L 343 238
L 343 236
L 343 235
L 344 234
L 344 232
L 344 231
L 344 229
L 344 228
L 344 227
L 344 225
L 344 224
L 344 223
L 344 221
L 344 220
L 344 219
L 344 217
L 344 216
L 344 215
L 345 213
L 345 212
L 346 210
L 347 209
L 347 208
L 348 206
L 349 205
L 349 204
L 352 202
L 352 201
L 352 200
L 352 198
L 352 197
L 352 195
L 352 194
L 352 193
L 352 191
L 352 190
L 352 189
L 352 187
L 352 186
L 353 185
L 353 183
L 353 182
L 353 181
L 355 179
L 358 178
L 358 176
L 359 175
L 359 174
L 371 172
L 372 171
L 372 170
L 377 168
L 377 167
L 385 166
L 394 164
L 397 163
L 404 161
L 407 160
L 413 159
L 415 157
L 416 156
L 425 155
L 425 153
L 428 152
L 432 151
L 434 149
L 438 148
L 438 147
L 439 145
L 440 144
L 444 142
L 449 141
L 449 140
L 451 138
L 452 137
L 453 136
L 456 134
L 462 133
L 466 132
L 474 130
L 477 129
L 480 127
L 484 126
L 484 125
L 485 123
L 491 122
L 513 121
L 514 119
L 518 118
L 540 117
L 540 115
L 540 114
L 541 113
L 542 111
L 545 110
L 552 108
L 556 107
L 557 106
L 583 104
L 588 103
L 594 102
L 603 100
L 608 99
L 608 98
L 612 96
L 630 95
L 651 93
L 675 92
L 677 91
L 677 89
L 678 88
L 679 87
L 684 85
L 716 84
L 730 83
L 731 81
L 743 80
L 746 79
L 747 77
L 782 76
L 782 74
L 785 73
L 786 72
L 791 70
L 800 69
L 805 68
L 812 66
L 816 65
L 824 64
L 844 62
L 845 61
L 848 59
L 849 58
L 849 57
L 851 55
L 861 54
L 861 53
L 881 51
L 910 50
L 924 49
L 941 47
L 942 46
L 950 45
L 951 43
L 956 42
L 961 40
L 961 39
L 961 38
L 961 36
L 961 35
L 961 34
L 961 32
L 961 31
L 962 30
L 962 28
L 962 27
L 963 25
L 963 24
L 964 23
L 965 21" style="stroke-width:2;stroke:rgba(129,199,239,1.0);fill:none"/></svg>