<svg xmlns="http://www.w3.org/2000/svg" xmlns:xlink="http://www.w3.org/1999/xlink" width="1024px" height="400px"><style type="text/css">
path { fill: none; stroke: rgb(51,51,51); }
path.series { stroke: #6b63ff; }
rect.background { fill: rgb(255,255,255); stroke: none; }

text {
	stroke-width: 0;
	stroke: none;
	fill: rgba(51,51,51,1.0);
	font-size: 12.8px;
	font-family: 'Roboto Medium', sans-serif;
}
</style><rect width="1024px" height="400px" class="background" rx="8" x="0" y="0" /><rect class="background" rx="8" x="0" y="0" width="1024px" height="400px"></rect><path class="series" d="M 58 345 L 61 345 L 76 344 L 76 344 L 76 344 L 76 343 L 76 343 L 76 343 L 76 342 L 76 342 L 77 342 L 77 341 L 77 341 L 77 340 L 77 340 L 77 340 L 77 339 L 77 339 L 77 339 L 78 338 L 78 338 L 79 338 L 80 337 L 80 337 L 80 336 L 80 336 L 81 336 L 82 335 L 84 335 L 84 335 L 85 334 L 86 334 L 91 334 L 91 333 L 91 333 L 91 332 L 91 332 L 94 332 L 95 331 L 96 331 L 98 331 L 102 330 L 103 330 L 110 330 L 112 329 L 116 329 L 119 328 L 121 328 L 135 328 L 136 327 L 136 327 L 138 327 L 138 326 L 138 326 L 138 326 L 138 325 L 138 325 L 138 324 L 138 324 L 138 324 L 138 323 L 138 323 L 138 323 L 139 322 L 139 322 L 139 322 L 139 321 L 139 321 L 139 320 L 139 320 L 139 320 L 139 319 L 139 319 L 139 319 L 139 318 L 139 318 L 139 318 L 139 317 L 139 317 L 139 316 L 139 316 L 139 316 L 139 315 L 139 315 L 139 315 L 139 314 L 139 314 L 139 314 L 139 313 L 139 313 L 139 313 L 139 312 L 139 312 L 139 311 L 139 311 L 139 311 L 139 310 L 140 310 L 140 310 L 140 309 L 140 309 L 140 309 L 140 308 L 141 308 L 141 307 L 141 307 L 141 307 L 141 306 L 141 306 L 141 306 L 141 305 L 141 305 L 141 305 L 141 304 L 141 304 L 141 303 L 141 303 L 141 303 L 142 302 L 142 302 L 142 302 L 142 301 L 142 301 L 143 301 L 143 300 L 143 300 L 143 299 L 146 299 L 147 299 L 147 298 L 148 298 L 148 298 L 150 297 L 153 297 L 153 297 L 155 296 L 156 296 L 158 295 L 158 295 L 158 295 L 161 294 L 161 294 L 162 294 L 163 293 L 163 293 L 164 293 L 164 292 L 164 292 L 165 291 L 166 291 L 167 291 L 167 290 L 168 290 L 168 290 L 168 289 L 169 289 L 170 289 L 172 288 L 174 288 L 174 287 L 175 287 L 176 287 L 176 286 L 176 286 L 178 286 L 184 285 L 184 285 L 185 285 L 191 284 L 191 284 L 191 283 L 191 283 L 192 283 L 192 282 L 194 282 L 195 282 L 195 281 L 202 281 L 204 281 L 205 280 L 208 280 L 209 280 L 209 279 L 210 279 L 215 278 L 220 278 L 227 278 L 227 277 L 227 277 L 227 277 L 228 276 L 229 276 L 238 276 L 241 275 L 242 275 L 245 274 L 245 274 L 246 274 L 255 273 L 255 273 L 256 273 L 256 272 L 257 272 L 260 272 L 261 271 L 263 271 L 264 270 L 266 270 L 271 270 L 272 269 L 273 269 L 273 269 L 273 268 L 273 268 L 276 268 L 281 267 L 293 267 L 297 266 L 299 266 L 300 266 L 301 265 L 302 265 L 302 265 L 302 264 L 302 264 L 302 264 L 302 263 L 302 263 L 302 262 L 303 262 L 303 262 L 303 261 L 303 261 L 303 261 L 303 260 L 304 260 L 305 260 L 306 259 L 306 259 L 306 258 L 306 258 L 307 258 L 307 257 L 307 257 L 307 257 L 307 256 L 308 256 L 308 256 L 308 255 L 309 255 L 309 254 L 310 254 L 310 254 L 310 253 L 310 253 L 311 253 L 311 252 L 311 252 L 311 252 L 312 251 L 312 251 L 312 250 L 313 250 L 314 250 L 315 249 L 316 249 L 319 249 L 319 248 L 319 248 L 320 248 L 320 247 L 320 247 L 320 247 L 321 246 L 322 246 L 324 245 L 324 245 L 324 245 L 326 244 L 328 244 L 328 244 L 330 243 L 331 243 L 331 243 L 332 242 L 332 242 L 336 241 L 337 241 L 337 241 L 341 240 L 342 240 L 346 240 L 347 239 L 347 239 L 348 239 L 348 238 L 348 238 L 351 237 L 353 237 L 355 237 L 355 236 L 356 236 L 357 236 L 357 235 L 357 235 L 357 235 L 358 234 L 358 234 L 358 233 L 359 233 L 359 233 L 360 232 L 360 232 L 365 232 L 370 231 L 370 231 L 370 231 L 373 230 L 375 230 L 375 229 L 376 229 L 377 229 L 378 228 L 378 228 L 378 228 L 378 227 L 378 227 L 378 227 L 378 226 L 379 226 L 379 225 L 380 225 L 382 225 L 382 224 L 382 224 L 382 224 L 382 223 L 383 223 L 383 223 L 383 222 L 383 222 L 383 221 L 383 221 L 383 221 L 383 220 L 387 220 L 389 220 L 389 219 L 390 219 L 400 219 L 402 218 L 405 218 L 407 217 L 413 217 L 415 217 L 417 216 L 418 216 L 418 216 L 418 215 L 418 215 L 418 215 L 418 214 L 418 214 L 419 214 L 420 213 L 428 213 L 430 212 L 433 212 L 439 212 L 443 211 L 447 211 L 449 211 L 453 210 L 453 210 L 462 210 L 471 209 L 471 209 L 478 208 L 478 208 L 483 208 L 484 207 L 487 207 L 487 207 L 487 206 L 487 206 L 490 206 L 491 205 L 494 205 L 498 204 L 498 204 L 499 204 L 500 203 L 503 203 L 506 203 L 507 202 L 510 202 L 514 202 L 515 201 L 515 201 L 517 200 L 517 200 L 518 200 L 521 199 L 524 199 L 526 199 L 529 198 L 529 198 L 534 198 L 535 197 L 537 197 L 541 196 L 542 196 L 546 196 L 547 195 L 547 195 L 549 195 L 549 194 L 551 194 L 551 194 L 553 193 L 556 193 L 557 192 L 557 192 L 558 192 L 565 191 L 565 191 L 566 191 L 566 190 L 566 190 L 567 190 L 567 189 L 568 189 L 568 188 L 570 188 L 570 188 L 571 187 L 572 187 L 573 187 L 573 186 L 574 186 L 574 186 L 575 185 L 575 185 L 575 184 L 576 184 L 576 184 L 576 183 L 576 183 L 577 183 L 579 182 L 579 182 L 579 182 L 580 181 L 580 181 L 581 181 L 583 180 L 583 180 L 583 179 L 585 179 L 586 179 L 586 178 L 587 178 L 587 178 L 589 177 L 589 177 L 589 177 L 589 176 L 590 176 L 590 175 L 590 175 L 591 175 L 591 174 L 592 174 L 595 174 L 596 173 L 597 173 L 598 173 L 600 172 L 601 172 L 602 171 L 604 171 L 606 171 L 609 170 L 611 170 L 612 170 L 612 169 L 612 169 L 612 169 L 613 168 L 613 168 L 613 167 L 614 167 L 614 167 L 614 166 L 615 166 L 616 166 L 617 165 L 617 165 L 618 165 L 618 164 L 621 164 L 621 163 L 621 163 L 622 163 L 623 162 L 626 162 L 628 162 L 632 161 L 632 161 L 632 161 L 632 160 L 634 160 L 636 159 L 637 159 L 637 159 L 637 158 L 637 158 L 639 158 L 642 157 L 643 157 L 643 157 L 643 156 L 645 156 L 645 155 L 645 155 L 646 155 L 648 154 L 652 154 L 652 154 L 656 153 L 656 153 L 657 153 L 660 152 L 661 152 L 664 151 L 666 151 L 667 151 L 669 150 L 669 150 L 669 150 L 669 149 L 669 149 L 669 149 L 670 148 L 671 148 L 671 148 L 672 147 L 672 147 L 672 146 L 673 146 L 674 146 L 674 145 L 679 145 L 680 145 L 684 144 L 687 144 L 687 144 L 688 143 L 688 143 L 691 142 L 691 142 L 692 142 L 692 141 L 693 141 L 693 141 L 693 140 L 693 140 L 693 140 L 694 139 L 694 139 L 694 138 L 694 138 L 694 138 L 695 137 L 695 137 L 697 137 L 697 136 L 698 136 L 698 136 L 699 135 L 699 135 L 699 134 L 700 134 L 701 134 L 704 133 L 704 133 L 704 133 L 704 132 L 704 132 L 705 132 L 706 131 L 706 131 L 707 130 L 709 130 L 711 130 L 714 129 L 715 129 L 717 129 L 720 128 L 724 128 L 724 128 L 727 127 L 731 127 L 731 126 L 731 126 L 736 126 L 738 125 L 738 125 L 739 125 L 739 124 L 748 124 L 748 124 L 749 123 L 749 123 L 750 122 L 750 122 L 751 122 L 751 121 L 752 121 L 753 121 L 753 120 L 753 120 L 754 120 L 754 119 L 754 119 L 754 118 L 754 118 L 755 118 L 755 117 L 756 117 L 758 117 L 759 116 L 759 116 L 759 116 L 760 115 L 760 115 L 761 115 L 762 114 L 763 114 L 763 113 L 763 113 L 763 113 L 765 112 L 765 112 L 766 112 L 766 111 L 768 111 L 768 111 L 769 110 L 769 110 L 769 109 L 769 109 L 770 109 L 770 108 L 770 108 L 772 108 L 772 107 L 773 107 L 773 107 L 773 106 L 774 106 L 774 105 L 774 105 L 775 105 L 775 104 L 775 104 L 776 104 L 776 103 L 777 103 L 777 103 L 778 102 L 778 102 L 778 101 L 778 101 L 778 101 L 779 100 L 779 100 L 779 100 L 779 99 L 779 99 L 781 99 L 782 98 L 785 98 L 785 97 L 785 97 L 785 97 L 786 96 L 787 96 L 788 96 L 789 95 L 791 95 L 794 95 L 794 94 L 795 94 L 796 93 L 796 93 L 797 93 L 797 92 L 798 92 L 798 92 L 798 91 L 798 91 L 798 91 L 798 90 L 798 90 L 798 89 L 798 89 L 799 89 L 799 88 L 799 88 L 799 88 L 800 87 L 800 87 L 800 87 L 801 86 L 801 86 L 803 85 L 804 85 L 804 85 L 804 84 L 805 84 L 805 84 L 806 83 L 809 83 L 810 83 L 810 82 L 810 82 L 810 82 L 810 81 L 813 81 L 815 80 L 815 80 L 817 80 L 817 79 L 817 79 L 817 79 L 818 78 L 823 78 L 826 78 L 829 77 L 830 77 L 831 76 L 832 76 L 833 76 L 833 75 L 834 75 L 834 75 L 834 74 L 835 74 L 836 74 L 836 73 L 837 73 L 839 72 L 839 72 L 839 72 L 839 71 L 839 71 L 839 71 L 839 70 L 839 70 L 840 70 L 840 69 L 840 69 L 840 68 L 840 68 L 840 68 L 840 67 L 840 67 L 840 67 L 841 66 L 841 66 L 841 66 L 841 65 L 841 65 L 841 64 L 841 64 L 842 64 L 842 63 L 842 63 L 843 63 L 843 62 L 843 62 L 843 62 L 843 61 L 843 61 L 845 60 L 846 60 L 848 60 L 848 59 L 849 59 L 850 59 L 850 58 L 851 58 L 851 58 L 854 57 L 855 57 L 856 56 L 856 56 L 856 56 L 856 55 L 856 55 L 856 55 L 856 54 L 858 54 L 858 54 L 859 53 L 863 53 L 864 52 L 866 52 L 868 52 L 870 51 L 870 51 L 871 51 L 871 50 L 871 50 L 871 50 L 872 49 L 872 49 L 873 49 L 874 48 L 874 48 L 874 47 L 874 47 L 874 47 L 875 46 L 875 46 L 875 46 L 875 45 L 875 45 L 876 45 L 876 44 L 877 44 L 878 43 L 878 43 L 879 43 L 879 42 L 879 42 L 880 42 L 881 41 L 881 41 L 881 41 L 882 40 L 882 40 L 883 39 L 887 39 L 888 39 L 889 38 L 892 38 L 893 38 L 894 37 L 898 37 L 898 37 L 899 36 L 902 36 L 908 35 L 908 35 L 910 35 L 912 34 L 914 34 L 915 34 L 915 33 L 917 33 L 917 33 L 918 32 L 919 32 L 921 31 L 922 31 L 923 31 L 923 30 L 924 30 L 924 30 L 924 29 L 925 29 L 929 29 L 929 28 L 930 28 L 932 27 L 932 27 L 933 27 L 934 26 L 935 26 L 935 26 L 936 25 L 936 25 L 937 25 L 938 24 L 938 24 L 939 23 L 940 23 L 941 23 L 941 22 L 942 22 L 942 22 L 943 21 L 943 21 L 944 21 L 944 20 L 944 20 L 944 19 L 944 19 L 945 19 L 945 18" stroke-width="2" /><path stroke-width="2" class="series" d="M 58 345 L 61 345 L 76 344 L 76 344 L 76 344 L 76 343 L 76 343 L 76 343 L 76 342 L 76 342 L 77 342 L 77 341 L 77 341 L 77 340 L 77 340 L 77 340 L 77 339 L 77 339 L 77 339 L 78 338 L 78 338 L 79 338 L 80 337 L 80 337 L 80 336 L 80 336 L 81 336 L 82 335 L 84 335 L 84 335 L 85 334 L 86 334 L 91 334 L 91 333 L 91 333 L 91 332 L 91 332 L 94 332 L 95 331 L 96 331 L 98 331 L 102 330 L 103 330 L 110 330 L 112 329 L 116 329 L 119 328 L 121 328 L 135 328 L 136 327 L 136 327 L 138 327 L 138 326 L 138 326 L 138 326 L 138 325 L 138 325 L 138 324 L 138 324 L 138 324 L 138 323 L 138 323 L 138 323 L 139 322 L 139 322 L 139 322 L 139 321 L 139 321 L 139 320 L 139 320 L 139 320 L 139 319 L 139 319 L 139 319 L 139 318 L 139 318 L 139 318 L 139 317 L 139 317 L 139 316 L 139 316 L 139 316 L 139 315 L 139 315 L 139 315 L 139 314 L 139 314 L 139 314 L 139 313 L 139 313 L 139 313 L 139 312 L 139 312 L 139 311 L 139 311 L 139 311 L 139 310 L 140 310 L 140 310 L 140 309 L 140 309 L 140 309 L 140 308 L 141 308 L 141 307 L 141 307 L 141 307 L 141 306 L 141 306 L 141 306 L 141 305 L 141 305 L 141 305 L 141 304 L 141 304 L 141 303 L 141 303 L 141 303 L 142 302 L 142 302 L 142 302 L 142 301 L 142 301 L 143 301 L 143 300 L 143 300 L 143 299 L 146 299 L 147 299 L 147 298 L 148 298 L 148 298 L 150 297 L 153 297 L 153 297 L 155 296 L 156 296 L 158 295 L 158 295 L 158 295 L 161 294 L 161 294 L 162 294 L 163 293 L 163 293 L 164 293 L 164 292 L 164 292 L 165 291 L 166 291 L 167 291 L 167 290 L 168 290 L 168 290 L 168 289 L 169 289 L 170 289 L 172 288 L 174 288 L 174 287 L 175 287 L 176 287 L 176 286 L 176 286 L 178 286 L 184 285 L 184 285 L 185 285 L 191 284 L 191 284 L 191 283 L 191 283 L 192 283 L 192 282 L 194 282 L 195 282 L 195 281 L 202 281 L 204 281 L 205 280 L 208 280 L 209 280 L 209 279 L 210 279 L 215 278 L 220 278 L 227 278 L 227 277 L 227 277 L 227 277 L 228 276 L 229 276 L 238 276 L 241 275 L 242 275 L 245 274 L 245 274 L 246 274 L 255 273 L 255 273 L 256 273 L 256 272 L 257 272 L 260 272 L 261 271 L 263 271 L 264 270 L 266 270 L 271 270 L 272 269 L 273 269 L 273 269 L 273 268 L 273 268 L 276 268 L 281 267 L 293 267 L 297 266 L 299 266 L 300 266 L 301 265 L 302 265 L 302 265 L 302 264 L 302 264 L 302 264 L 302 263 L 302 263 L 302 262 L 303 262 L 303 262 L 303 261 L 303 261 L 303 261 L 303 260 L 304 260 L 305 260 L 306 259 L 306 259 L 306 258 L 306 258 L 307 258 L 307 257 L 307 257 L 307 257 L 307 256 L 308 256 L 308 256 L 308 255 L 309 255 L 309 254 L 310 254 L 310 254 L 310 253 L 310 253 L 311 253 L 311 252 L 311 252 L 311 252 L 312 251 L 312 251 L 312 250 L 313 250 L 314 250 L 315 249 L 316 249 L 319 249 L 319 248 L 319 248 L 320 248 L 320 247 L 320 247 L 320 247 L 321 246 L 322 246 L 324 245 L 324 245 L 324 245 L 326 244 L 328 244 L 328 244 L 330 243 L 331 243 L 331 243 L 332 242 L 332 242 L 336 241 L 337 241 L 337 241 L 341 240 L 342 240 L 346 240 L 347 239 L 347 239 L 348 239 L 348 238 L 348 238 L 351 237 L 353 237 L 355 237 L 355 236 L 356 236 L 357 236 L 357 235 L 357 235 L 357 235 L 358 234 L 358 234 L 358 233 L 359 233 L 359 233 L 360 232 L 360 232 L 365 232 L 370 231 L 370 231 L 370 231 L 373 230 L 375 230 L 375 229 L 376 229 L 377 229 L 378 228 L 378 228 L 378 228 L 378 227 L 378 227 L 378 227 L 378 226 L 379 226 L 379 225 L 380 225 L 382 225 L 382 224 L 382 224 L 382 224 L 382 223 L 383 223 L 383 223 L 383 222 L 383 222 L 383 221 L 383 221 L 383 221 L 383 220 L 387 220 L 389 220 L 389 219 L 390 219 L 400 219 L 402 218 L 405 218 L 407 217 L 413 217 L 415 217 L 417 216 L 418 216 L 418 216 L 418 215 L 418 215 L 418 215 L 418 214 L 418 214 L 419 214 L 420 213 L 428 213 L 430 212 L 433 212 L 439 212 L 443 211 L 447 211 L 449 211 L 453 210 L 453 210 L 462 210 L 471 209 L 471 209 L 478 208 L 478 208 L 483 208 L 484 207 L 487 207 L 487 207 L 487 206 L 487 206 L 490 206 L 491 205 L 494 205 L 498 204 L 498 204 L 499 204 L 500 203 L 503 203 L 506 203 L 507 202 L 510 202 L 514 202 L 515 201 L 515 201 L 517 200 L 517 200 L 518 200 L 521 199 L 524 199 L 526 199 L 529 198 L 529 198 L 534 198 L 535 197 L 537 197 L 541 196 L 542 196 L 546 196 L 547 195 L 547 195 L 549 195 L 549 194 L 551 194 L 551 194 L 553 193 L 556 193 L 557 192 L 557 192 L 558 192 L 565 191 L 565 191 L 566 191 L 566 190 L 566 190 L 567 190 L 567 189 L 568 189 L 568 188 L 570 188 L 570 188 L 571 187 L 572 187 L 573 187 L 573 186 L 574 186 L 574 186 L 575 185 L 575 185 L 575 184 L 576 184 L 576 184 L 576 183 L 576 183 L 577 183 L 579 182 L 579 182 L 579 182 L 580 181 L 580 181 L 581 181 L 583 180 L 583 180 L 583 179 L 585 179 L 586 179 L 586 178 L 587 178 L 587 178 L 589 177 L 589 177 L 589 177 L 589 176 L 590 176 L 590 175 L 590 175 L 591 175 L 591 174 L 592 174 L 595 174 L 596 173 L 597 173 L 598 173 L 600 172 L 601 172 L 602 171 L 604 171 L 606 171 L 609 170 L 611 170 L 612 170 L 612 169 L 612 169 L 612 169 L 613 168 L 613 168 L 613 167 L 614 167 L 614 167 L 614 166 L 615 166 L 616 166 L 617 165 L 617 165 L 618 165 L 618 164 L 621 164 L 621 163 L 621 163 L 622 163 L 623 162 L 626 162 L 628 162 L 632 161 L 632 161 L 632 161 L 632 160 L 634 160 L 636 159 L 637 159 L 637 159 L 637 158 L 637 158 L 639 158 L 642 157 L 643 157 L 643 157 L 643 156 L 645 156 L 645 155 L 645 155 L 646 155 L 648 154 L 652 154 L 652 154 L 656 153 L 656 153 L 657 153 L 660 152 L 661 152 L 664 151 L 666 151 L 667 151 L 669 150 L 669 150 L 669 150 L 669 149 L 669 149 L 669 149 L 670 148 L 671 148 L 671 148 L 672 147 L 672 147 L 672 146 L 673 146 L 674 146 L 674 145 L 679 145 L 680 145 L 684 144 L 687 144 L 687 144 L 688 143 L 688 143 L 691 142 L 691 142 L 692 142 L 692 141 L 693 141 L 693 141 L 693 140 L 693 140 L 693 140 L 694 139 L 694 139 L 694 138 L 694 138 L 694 138 L 695 137 L 695 137 L 697 137 L 697 136 L 698 136 L 698 136 L 699 135 L 699 135 L 699 134 L 700 134 L 701 134 L 704 133 L 704 133 L 704 133 L 704 132 L 704 132 L 705 132 L 706 131 L 706 131 L 707 130 L 709 130 L 711 130 L 714 129 L 715 129 L 717 129 L 720 128 L 724 128 L 724 128 L 727 127 L 731 127 L 731 126 L 731 126 L 736 126 L 738 125 L 738 125 L 739 125 L 739 124 L 748 124 L 748 124 L 749 123 L 749 123 L 750 122 L 750 122 L 751 122 L 751 121 L 752 121 L 753 121 L 753 120 L 753 120 L 754 120 L 754 119 L 754 119 L 754 118 L 754 118 L 755 118 L 755 117 L 756 117 L 758 117 L 759 116 L 759 116 L 759 116 L 760 115 L 760 115 L 761 115 L 762 114 L 763 114 L 763 113 L 763 113 L 763 113 L 765 112 L 765 112 L 766 112 L 766 111 L 768 111 L 768 111 L 769 110 L 769 110 L 769 109 L 769 109 L 770 109 L 770 108 L 770 108 L 772 108 L 772 107 L 773 107 L 773 107 L 773 106 L 774 106 L 774 105 L 774 105 L 775 105 L 775 104 L 775 104 L 776 104 L 776 103 L 777 103 L 777 103 L 778 102 L 778 102 L 778 101 L 778 101 L 778 101 L 779 100 L 779 100 L 779 100 L 779 99 L 779 99 L 781 99 L 782 98 L 785 98 L 785 97 L 785 97 L 785 97 L 786 96 L 787 96 L 788 96 L 789 95 L 791 95 L 794 95 L 794 94 L 795 94 L 796 93 L 796 93 L 797 93 L 797 92 L 798 92 L 798 92 L 798 91 L 798 91 L 798 91 L 798 90 L 798 90 L 798 89 L 798 89 L 799 89 L 799 88 L 799 88 L 799 88 L 800 87 L 800 87 L 800 87 L 801 86 L 801 86 L 803 85 L 804 85 L 804 85 L 804 84 L 805 84 L 805 84 L 806 83 L 809 83 L 810 83 L 810 82 L 810 82 L 810 82 L 810 81 L 813 81 L 815 80 L 815 80 L 817 80 L 817 79 L 817 79 L 817 79 L 818 78 L 823 78 L 826 78 L 829 77 L 830 77 L 831 76 L 832 76 L 833 76 L 833 75 L 834 75 L 834 75 L 834 74 L 835 74 L 836 74 L 836 73 L 837 73 L 839 72 L 839 72 L 839 72 L 839 71 L 839 71 L 839 71 L 839 70 L 839 70 L 840 70 L 840 69 L 840 69 L 840 68 L 840 68 L 840 68 L 840 67 L 840 67 L 840 67 L 841 66 L 841 66 L 841 66 L 841 65 L 841 65 L 841 64 L 841 64 L 842 64 L 842 63 L 842 63 L 843 63 L 843 62 L 843 62 L 843 62 L 843 61 L 843 61 L 845 60 L 846 60 L 848 60 L 848 59 L 849 59 L 850 59 L 850 58 L 851 58 L 851 58 L 854 57 L 855 57 L 856 56 L 856 56 L 856 56 L 856 55 L 856 55 L 856 55 L 856 54 L 858 54 L 858 54 L 859 53 L 863 53 L 864 52 L 866 52 L 868 52 L 870 51 L 870 51 L 871 51 L 871 50 L 871 50 L 871 50 L 872 49 L 872 49 L 873 49 L 874 48 L 874 48 L 874 47 L 874 47 L 874 47 L 875 46 L 875 46 L 875 46 L 875 45 L 875 45 L 876 45 L 876 44 L 877 44 L 878 43 L 878 43 L 879 43 L 879 42 L 879 42 L 880 42 L 881 41 L 881 41 L 881 41 L 882 40 L 882 40 L 883 39 L 887 39 L 888 39 L 889 38 L 892 38 L 893 38 L 894 37 L 898 37 L 898 37 L 899 36 L 902 36 L 908 35 L 908 35 L 910 35 L 912 34 L 914 34 L 915 34 L 915 33 L 917 33 L 917 33 L 918 32 L 919 32 L 921 31 L 922 31 L 923 31 L 923 30 L 924 30 L 924 30 L 924 29 L 925 29 L 929 29 L 929 28 L 930 28 L 932 27 L 932 27 L 933 27 L 934 26 L 935 26 L 935 26 L 936 25 L 936 25 L 937 25 L 938 24 L 938 24 L 939 23 L 940 23 L 941 23 L 941 22 L 942 22 L 942 22 L 943 21 L 943 21 L 944 21 L 944 20 L 944 20 L 944 19 L 944 19 L 945 19 L 945 18"></path><path stroke-width="2" d="M 945 346 L 945.000000 15.000000" /><path stroke-width="2" d="M 945 346 L 945.000000 15.000000"></path><path d="M 945 346 L 950 346" stroke-width="2" /><path stroke-width="2" d="M 945 346 L 950 346"></path><text xmlns="http://www.w3.org/2000/svg" x="955" y="352">0</text><path stroke-width="2" d="M 945 309 L 950 309" /><path stroke-width="2" d="M 945 309 L 950 309"></path><text xmlns="http://www.w3.org/2000/svg" x="955" y="315">102</text><path stroke-width="2" d="M 945 272 L 950 272" /><path stroke-width="2" d="M 945 272 L 950 272"></path><text x="955" y="278" xmlns="http://www.w3.org/2000/svg">203</text><path stroke-width="2" d="M 945 235 L 950 235" /><path stroke-width="2" d="M 945 235 L 950 235"></path><text xmlns="http://www.w3.org/2000/svg" x="955" y="241">304</text><path stroke-width="2" d="M 945 199 L 950 199" /><path stroke-width="2" d="M 945 199 L 950 199"></path><text xmlns="http://www.w3.org/2000/svg" x="955" y="205">405</text><path stroke-width="2" d="M 945 162 L 950 162" /><path stroke-width="2" d="M 945 162 L 950 162"></path><text xmlns="http://www.w3.org/2000/svg" x="955" y="168">506</text><path stroke-width="2" d="M 945 125 L 950 125" /><path stroke-width="2" d="M 945 125 L 950 125"></path><text xmlns="http://www.w3.org/2000/svg" x="955" y="131">607</text><path stroke-width="2" d="M 945 89 L 950 89" /><path stroke-width="2" d="M 945 89 L 950 89"></path><text x="955" y="95" xmlns="http://www.w3.org/2000/svg">708</text><path d="M 945 52 L 950 52" stroke-width="2" /><path stroke-width="2" d="M 945 52 L 950 52"></path><text y="58" xmlns="http://www.w3.org/2000/svg" x="955">809</text><path stroke-width="2" d="M 945 16 L 950 16" /><path stroke-width="2" d="M 945 16 L 950 16"></path><text xmlns="http://www.w3.org/2000/svg" x="955" y="22">910</text><text xmlns="http://www.w3.org/2000/svg" x="987" y="175" transform="rotate(90.00,987,175)">Stargazers</text><path stroke-width="2" d="M 57.000000 346.000000 L 945 346" /><path stroke-width="2" d="M 57.000000 346.000000 L 945 346"></path><path stroke-width="2" d="M 58 346 L 58 351" /><path stroke-width="2" d="M 58 346 L 58 351"></path><text x="25" y="368" xmlns="http://www.w3.org/2000/svg">2023-04-02</text><path stroke-width="2" d="M 157 346 L 157 351" /><path stroke-width="2" d="M 157 346 L 157 351"></path><text xmlns="http://www.w3.org/2000/svg" x="124" y="368">2023-06-20</text><path stroke-width="2" d="M 256 346 L 256 351" /><path stroke-width="2" d="M 256 346 L 256 351"></path><text y="368" xmlns="http://www.w3.org/2000/svg" x="223">2023-09-07</text><path stroke-width="2" d="M 354 346 L 354 351" /><path stroke-width="2" d="M 354 346 L 354 351"></path><text x="321" y="368" xmlns="http://www.w3.org/2000/svg">2023-11-26</text><path stroke-width="2" d="M 453 346 L 453 351" /><path stroke-width="2" d="M 453 346 L 453 351"></path><text xmlns="http://www.w3.org/2000/svg" x="420" y="368">2024-02-13</text><path d="M 551 346 L 551 351" stroke-width="2" /><path stroke-width="2" d="M 551 346 L 551 351"></path><text xmlns="http://www.w3.org/2000/svg" x="518" y="368">2024-05-02</text><path stroke-width="2" d="M 650 346 L 650 351" /><path stroke-width="2" d="M 650 346 L 650 351"></path><text x="617" y="368" xmlns="http://www.w3.org/2000/svg">2024-07-20</text><path stroke-width="2" d="M 748 346 L 748 351" /><path stroke-width="2" d="M 748 346 L 748 351"></path><text x="715" y="368" xmlns="http://www.w3.org/2000/svg">2024-10-07</text><path d="M 847 346 L 847 351" stroke-width="2" /><path stroke-width="2" d="M 847 346 L 847 351"></path><text xmlns="http://www.w3.org/2000/svg" x="814" y="368">2024-12-26</text><path stroke-width="2" d="M 945 346 L 945 351" /><path stroke-width="2" d="M 945 346 L 945 351"></path><text xmlns="http://www.w3.org/2000/svg" x="912" y="368">2025-03-15</text><text xmlns="http://www.w3.org/2000/svg" x="487" y="390">Time</text></svg>