<svg xmlns="http://www.w3.org/2000/svg" xmlns:xlink="http://www.w3.org/1999/xlink" width="1024px" height="400px"><style type="text/css">
path { fill: none; stroke: rgb(51,51,51); }
path.series { stroke: #6b63ff; }
rect.background { fill: rgb(255,255,255); stroke: none; }

text {
	stroke-width: 0;
	stroke: none;
	fill: rgba(51,51,51,1.0);
	font-size: 12.8px;
	font-family: 'Roboto Medium', sans-serif;
}
</style><rect height="400px" class="background" rx="8" x="0" y="0" width="1024px" /><rect rx="8" x="0" y="0" width="1024px" height="400px" class="background"></rect><path stroke-width="2" class="series" d="M 58 345 L 62 344 L 82 344 L 83 343 L 83 343 L 83 342 L 83 342 L 83 341 L 83 341 L 83 340 L 83 339 L 83 339 L 84 338 L 84 338 L 84 337 L 84 337 L 84 336 L 84 336 L 84 335 L 85 335 L 86 334 L 86 333 L 88 333 L 89 332 L 89 332 L 89 331 L 89 331 L 91 330 L 93 330 L 93 329 L 95 328 L 96 328 L 103 327 L 103 327 L 103 326 L 103 326 L 103 325 L 103 325 L 107 324 L 108 324 L 109 323 L 113 322 L 118 322 L 120 321 L 129 321 L 132 320 L 137 320 L 142 319 L 144 319 L 164 318 L 165 317 L 165 317 L 167 316 L 168 316 L 168 315 L 168 315 L 168 314 L 168 314 L 168 313 L 168 313 L 168 312 L 168 311 L 168 311 L 168 310 L 169 310 L 169 309 L 169 309 L 169 308 L 169 308 L 169 307 L 169 306 L 169 306 L 169 305 L 169 305 L 169 304 L 169 304 L 169 303 L 169 303 L 169 302 L 169 302 L 169 301 L 169 300 L 169 300 L 169 299 L 169 299 L 169 298 L 169 298 L 169 297 L 169 297 L 169 296 L 169 295 L 169 295 L 169 294 L 169 294 L 169 293 L 169 293 L 169 292 L 170 292 L 170 291 L 170 291 L 170 290 L 171 289 L 171 289 L 171 288 L 171 288 L 171 287 L 172 287 L 172 286 L 172 286 L 172 285 L 172 284 L 172 284 L 172 283 L 172 283 L 172 282 L 172 282 L 172 281 L 172 281 L 172 280 L 173 280 L 173 279 L 173 278 L 173 278 L 173 277 L 174 277 L 175 276 L 175 276 L 175 275 L 179 275 L 180 274 L 180 273 L 181 273 L 181 272 L 184 272 L 188 271 L 189 271 L 191 270 L 192 270 L 195 269 L 195 269 L 196 268 L 199 267 L 199 267 L 200 266 L 201 266 L 202 265 L 203 265 L 204 264 L 204 264 L 204 263 L 206 262 L 207 262 L 207 261 L 208 261 L 209 260 L 209 260 L 210 259 L 212 259 L 214 258 L 217 258 L 218 257 L 219 256 L 220 256 L 220 255 L 221 255 L 223 254 L 231 254 L 231 253 L 233 253 L 240 252 L 241 251 L 241 251 L 241 250 L 241 250 L 242 249 L 245 249 L 246 248 L 247 248 L 256 247 L 258 247 L 260 246 L 263 245 L 265 245 L 265 244 L 267 244 L 273 243 L 281 243 L 289 242 L 290 242 L 290 241 L 291 240 L 291 240 L 293 239 L 304 239 L 310 238 L 310 238 L 314 237 L 315 237 L 316 236 L 329 236 L 329 235 L 329 234 L 330 234 L 332 233 L 335 233 L 337 232 L 339 232 L 341 231 L 344 231 L 351 230 L 351 229 L 352 229 L 353 228 L 353 228 L 353 227 L 357 227 L 364 226 L 380 226 L 386 225 L 389 225 L 390 224 L 392 223 L 393 223 L 393 222 L 393 222 L 393 221 L 393 221 L 393 220 L 393 220 L 393 219 L 394 218 L 394 218 L 394 217 L 394 217 L 394 216 L 395 216 L 395 215 L 397 215 L 398 214 L 398 214 L 398 213 L 398 212 L 400 212 L 400 211 L 400 211 L 400 210 L 400 210 L 400 209 L 400 209 L 402 208 L 403 207 L 403 207 L 403 206 L 403 206 L 404 205 L 404 205 L 405 204 L 405 204 L 405 203 L 405 203 L 407 202 L 407 201 L 407 201 L 408 200 L 410 200 L 411 199 L 413 199 L 416 198 L 416 198 L 417 197 L 417 196 L 417 196 L 417 195 L 417 195 L 419 194 L 420 194 L 423 193 L 423 193 L 424 192 L 426 192 L 428 191 L 428 190 L 431 190 L 432 189 L 433 189 L 434 188 L 434 188 L 440 187 L 441 187 L 441 186 L 446 185 L 448 185 L 453 184 L 454 184 L 455 183 L 456 183 L 457 182 L 457 182 L 460 181 L 463 181 L 465 180 L 465 179 L 467 179 L 469 178 L 469 178 L 469 177 L 469 177 L 470 176 L 470 176 L 470 175 L 472 174 L 472 174 L 472 173 L 473 173 L 479 172 L 486 172 L 486 171 L 486 171 L 490 170 L 493 170 L 494 169 L 494 168 L 496 168 L 497 167 L 497 167 L 497 166 L 497 166 L 497 165 L 498 165 L 498 164 L 499 163 L 499 163 L 500 162 L 503 162 L 503 161 L 503 161 L 503 160 L 503 160 L 504 159 L 504 159 L 504 158 L 504 157 L 504 157 L 504 156 L 504 156 L 504 155 L 510 155 L 513 154 L 513 154 L 514 153 L 521 152 L 528 152 L 530 151 L 534 151 L 537 150 L 546 150 L 548 149 L 551 149 L 552 148 L 552 148 L 552 147 L 552 146 L 552 146 L 552 145 L 552 145 L 554 144 L 555 144 L 566 143 L 569 143 L 573 142 L 581 141 L 587 141 L 591 140 L 595 140 L 601 139 L 601 139 L 613 138 L 625 138 L 626 137 L 634 137 L 635 136 L 641 135 L 643 135 L 646 134 L 646 134 L 647 133 L 647 133 L 651 132 L 653 132 L 656 131 L 661 130 L 662 130 L 664 129 L 664 129 L 669 128 L 673 128 L 674 127 L 679 127 L 684 126 L 685 126 L 685 125 L 687 124 L 689 124 L 690 123 L 694 123 L 698 122 L 701 122 L 704 121 L 704 121 L 711 120 L 712 119 L 716 119 L 722 118 L 722 118 L 728 117 L 729 117 L 729 116 L 731 116 L 732 115 L 735 115 L 735 114 L 738 113 L 742 113 L 743 112 L 743 112 L 744 111 L 754 111 L 754 110 L 755 110 L 755 109 L 756 108 L 757 108 L 757 107 L 758 107 L 758 106 L 761 106 L 761 105 L 763 105 L 764 104 L 765 104 L 765 103 L 766 102 L 766 102 L 767 101 L 768 101 L 768 100 L 769 100 L 769 99 L 769 99 L 770 98 L 771 97 L 773 97 L 773 96 L 773 96 L 774 95 L 775 95 L 777 94 L 778 94 L 778 93 L 779 92 L 781 92 L 783 91 L 783 91 L 784 90 L 784 90 L 787 89 L 787 89 L 787 88 L 788 88 L 788 87 L 788 86 L 788 86 L 789 85 L 790 85 L 791 84 L 795 84 L 797 83 L 798 83 L 799 82 L 802 82 L 804 81 L 805 80 L 807 80 L 811 79 L 814 79 L 817 78 L 818 78 L 818 77 L 819 77 L 819 76 L 820 75 L 820 75 L 820 74 L 822 74 L 822 73 L 822 73 L 822 72 L 824 72 L 826 71 L 826 71 L 827 70 L 827 69 L 831 69 L 831 68 L 831 68 L 833 67 L 834 67 L 837 66 L 841 66 L 846 65 L 846 64 L 846 64 L 846 63 L 849 63 L 852 62 L 853 62 L 853 61 L 853 61 L 854 60 L 856 60 L 860 59 L 861 58 L 861 58 L 861 57 L 864 57 L 864 56 L 864 56 L 864 55 L 865 55 L 868 54 L 873 53 L 873 53 L 879 52 L 879 52 L 880 51 L 885 51 L 886 50 L 890 50 L 892 49 L 895 49 L 896 48 L 896 47 L 897 47 L 897 46 L 897 46 L 897 45 L 899 45 L 899 44 L 899 44 L 901 43 L 901 42 L 901 42 L 902 41 L 904 41 L 904 40 L 911 40 L 911 39 L 918 39 L 921 38 L 921 38 L 923 37 L 923 36 L 927 36 L 928 35 L 929 35 L 929 34 L 930 34 L 930 33 L 930 33 L 930 32 L 930 31 L 931 31 L 931 30 L 931 30 L 931 29 L 932 29 L 933 28 L 933 28 L 933 27 L 934 27 L 935 26 L 935 25 L 936 25 L 937 24 L 939 24 L 939 23 L 939 23 L 940 22 L 941 22 L 945 21 L 945 20 L 945 20 L 945 19 L 945 19" /><path d="M 58 345 L 62 344 L 82 344 L 83 343 L 83 343 L 83 342 L 83 342 L 83 341 L 83 341 L 83 340 L 83 339 L 83 339 L 84 338 L 84 338 L 84 337 L 84 337 L 84 336 L 84 336 L 84 335 L 85 335 L 86 334 L 86 333 L 88 333 L 89 332 L 89 332 L 89 331 L 89 331 L 91 330 L 93 330 L 93 329 L 95 328 L 96 328 L 103 327 L 103 327 L 103 326 L 103 326 L 103 325 L 103 325 L 107 324 L 108 324 L 109 323 L 113 322 L 118 322 L 120 321 L 129 321 L 132 320 L 137 320 L 142 319 L 144 319 L 164 318 L 165 317 L 165 317 L 167 316 L 168 316 L 168 315 L 168 315 L 168 314 L 168 314 L 168 313 L 168 313 L 168 312 L 168 311 L 168 311 L 168 310 L 169 310 L 169 309 L 169 309 L 169 308 L 169 308 L 169 307 L 169 306 L 169 306 L 169 305 L 169 305 L 169 304 L 169 304 L 169 303 L 169 303 L 169 302 L 169 302 L 169 301 L 169 300 L 169 300 L 169 299 L 169 299 L 169 298 L 169 298 L 169 297 L 169 297 L 169 296 L 169 295 L 169 295 L 169 294 L 169 294 L 169 293 L 169 293 L 169 292 L 170 292 L 170 291 L 170 291 L 170 290 L 171 289 L 171 289 L 171 288 L 171 288 L 171 287 L 172 287 L 172 286 L 172 286 L 172 285 L 172 284 L 172 284 L 172 283 L 172 283 L 172 282 L 172 282 L 172 281 L 172 281 L 172 280 L 173 280 L 173 279 L 173 278 L 173 278 L 173 277 L 174 277 L 175 276 L 175 276 L 175 275 L 179 275 L 180 274 L 180 273 L 181 273 L 181 272 L 184 272 L 188 271 L 189 271 L 191 270 L 192 270 L 195 269 L 195 269 L 196 268 L 199 267 L 199 267 L 200 266 L 201 266 L 202 265 L 203 265 L 204 264 L 204 264 L 204 263 L 206 262 L 207 262 L 207 261 L 208 261 L 209 260 L 209 260 L 210 259 L 212 259 L 214 258 L 217 258 L 218 257 L 219 256 L 220 256 L 220 255 L 221 255 L 223 254 L 231 254 L 231 253 L 233 253 L 240 252 L 241 251 L 241 251 L 241 250 L 241 250 L 242 249 L 245 249 L 246 248 L 247 248 L 256 247 L 258 247 L 260 246 L 263 245 L 265 245 L 265 244 L 267 244 L 273 243 L 281 243 L 289 242 L 290 242 L 290 241 L 291 240 L 291 240 L 293 239 L 304 239 L 310 238 L 310 238 L 314 237 L 315 237 L 316 236 L 329 236 L 329 235 L 329 234 L 330 234 L 332 233 L 335 233 L 337 232 L 339 232 L 341 231 L 344 231 L 351 230 L 351 229 L 352 229 L 353 228 L 353 228 L 353 227 L 357 227 L 364 226 L 380 226 L 386 225 L 389 225 L 390 224 L 392 223 L 393 223 L 393 222 L 393 222 L 393 221 L 393 221 L 393 220 L 393 220 L 393 219 L 394 218 L 394 218 L 394 217 L 394 217 L 394 216 L 395 216 L 395 215 L 397 215 L 398 214 L 398 214 L 398 213 L 398 212 L 400 212 L 400 211 L 400 211 L 400 210 L 400 210 L 400 209 L 400 209 L 402 208 L 403 207 L 403 207 L 403 206 L 403 206 L 404 205 L 404 205 L 405 204 L 405 204 L 405 203 L 405 203 L 407 202 L 407 201 L 407 201 L 408 200 L 410 200 L 411 199 L 413 199 L 416 198 L 416 198 L 417 197 L 417 196 L 417 196 L 417 195 L 417 195 L 419 194 L 420 194 L 423 193 L 423 193 L 424 192 L 426 192 L 428 191 L 428 190 L 431 190 L 432 189 L 433 189 L 434 188 L 434 188 L 440 187 L 441 187 L 441 186 L 446 185 L 448 185 L 453 184 L 454 184 L 455 183 L 456 183 L 457 182 L 457 182 L 460 181 L 463 181 L 465 180 L 465 179 L 467 179 L 469 178 L 469 178 L 469 177 L 469 177 L 470 176 L 470 176 L 470 175 L 472 174 L 472 174 L 472 173 L 473 173 L 479 172 L 486 172 L 486 171 L 486 171 L 490 170 L 493 170 L 494 169 L 494 168 L 496 168 L 497 167 L 497 167 L 497 166 L 497 166 L 497 165 L 498 165 L 498 164 L 499 163 L 499 163 L 500 162 L 503 162 L 503 161 L 503 161 L 503 160 L 503 160 L 504 159 L 504 159 L 504 158 L 504 157 L 504 157 L 504 156 L 504 156 L 504 155 L 510 155 L 513 154 L 513 154 L 514 153 L 521 152 L 528 152 L 530 151 L 534 151 L 537 150 L 546 150 L 548 149 L 551 149 L 552 148 L 552 148 L 552 147 L 552 146 L 552 146 L 552 145 L 552 145 L 554 144 L 555 144 L 566 143 L 569 143 L 573 142 L 581 141 L 587 141 L 591 140 L 595 140 L 601 139 L 601 139 L 613 138 L 625 138 L 626 137 L 634 137 L 635 136 L 641 135 L 643 135 L 646 134 L 646 134 L 647 133 L 647 133 L 651 132 L 653 132 L 656 131 L 661 130 L 662 130 L 664 129 L 664 129 L 669 128 L 673 128 L 674 127 L 679 127 L 684 126 L 685 126 L 685 125 L 687 124 L 689 124 L 690 123 L 694 123 L 698 122 L 701 122 L 704 121 L 704 121 L 711 120 L 712 119 L 716 119 L 722 118 L 722 118 L 728 117 L 729 117 L 729 116 L 731 116 L 732 115 L 735 115 L 735 114 L 738 113 L 742 113 L 743 112 L 743 112 L 744 111 L 754 111 L 754 110 L 755 110 L 755 109 L 756 108 L 757 108 L 757 107 L 758 107 L 758 106 L 761 106 L 761 105 L 763 105 L 764 104 L 765 104 L 765 103 L 766 102 L 766 102 L 767 101 L 768 101 L 768 100 L 769 100 L 769 99 L 769 99 L 770 98 L 771 97 L 773 97 L 773 96 L 773 96 L 774 95 L 775 95 L 777 94 L 778 94 L 778 93 L 779 92 L 781 92 L 783 91 L 783 91 L 784 90 L 784 90 L 787 89 L 787 89 L 787 88 L 788 88 L 788 87 L 788 86 L 788 86 L 789 85 L 790 85 L 791 84 L 795 84 L 797 83 L 798 83 L 799 82 L 802 82 L 804 81 L 805 80 L 807 80 L 811 79 L 814 79 L 817 78 L 818 78 L 818 77 L 819 77 L 819 76 L 820 75 L 820 75 L 820 74 L 822 74 L 822 73 L 822 73 L 822 72 L 824 72 L 826 71 L 826 71 L 827 70 L 827 69 L 831 69 L 831 68 L 831 68 L 833 67 L 834 67 L 837 66 L 841 66 L 846 65 L 846 64 L 846 64 L 846 63 L 849 63 L 852 62 L 853 62 L 853 61 L 853 61 L 854 60 L 856 60 L 860 59 L 861 58 L 861 58 L 861 57 L 864 57 L 864 56 L 864 56 L 864 55 L 865 55 L 868 54 L 873 53 L 873 53 L 879 52 L 879 52 L 880 51 L 885 51 L 886 50 L 890 50 L 892 49 L 895 49 L 896 48 L 896 47 L 897 47 L 897 46 L 897 46 L 897 45 L 899 45 L 899 44 L 899 44 L 901 43 L 901 42 L 901 42 L 902 41 L 904 41 L 904 40 L 911 40 L 911 39 L 918 39 L 921 38 L 921 38 L 923 37 L 923 36 L 927 36 L 928 35 L 929 35 L 929 34 L 930 34 L 930 33 L 930 33 L 930 32 L 930 31 L 931 31 L 931 30 L 931 30 L 931 29 L 932 29 L 933 28 L 933 28 L 933 27 L 934 27 L 935 26 L 935 25 L 936 25 L 937 24 L 939 24 L 939 23 L 939 23 L 940 22 L 941 22 L 945 21 L 945 20 L 945 20 L 945 19 L 945 19" stroke-width="2" class="series"></path><path d="M 945 346 L 945.000000 15.000000" stroke-width="2" /><path stroke-width="2" d="M 945 346 L 945.000000 15.000000"></path><path stroke-width="2" d="M 945 346 L 950 346" /><path stroke-width="2" d="M 945 346 L 950 346"></path><text xmlns="http://www.w3.org/2000/svg" x="955" y="352">0</text><path stroke-width="2" d="M 945 309 L 950 309" /><path stroke-width="2" d="M 945 309 L 950 309"></path><text xmlns="http://www.w3.org/2000/svg" x="955" y="315">67</text><path d="M 945 272 L 950 272" stroke-width="2" /><path d="M 945 272 L 950 272" stroke-width="2"></path><text xmlns="http://www.w3.org/2000/svg" x="955" y="278">134</text><path d="M 945 236 L 950 236" stroke-width="2" /><path stroke-width="2" d="M 945 236 L 950 236"></path><text xmlns="http://www.w3.org/2000/svg" x="955" y="242">200</text><path stroke-width="2" d="M 945 199 L 950 199" /><path stroke-width="2" d="M 945 199 L 950 199"></path><text xmlns="http://www.w3.org/2000/svg" x="955" y="205">267</text><path stroke-width="2" d="M 945 162 L 950 162" /><path stroke-width="2" d="M 945 162 L 950 162"></path><text xmlns="http://www.w3.org/2000/svg" x="955" y="168">334</text><path stroke-width="2" d="M 945 126 L 950 126" /><path stroke-width="2" d="M 945 126 L 950 126"></path><text xmlns="http://www.w3.org/2000/svg" x="955" y="132">400</text><path stroke-width="2" d="M 945 89 L 950 89" /><path stroke-width="2" d="M 945 89 L 950 89"></path><text xmlns="http://www.w3.org/2000/svg" x="955" y="95">467</text><path stroke-width="2" d="M 945 52 L 950 52" /><path stroke-width="2" d="M 945 52 L 950 52"></path><text xmlns="http://www.w3.org/2000/svg" x="955" y="58">534</text><path stroke-width="2" d="M 945 16 L 950 16" /><path stroke-width="2" d="M 945 16 L 950 16"></path><text xmlns="http://www.w3.org/2000/svg" x="955" y="22">600</text><text xmlns="http://www.w3.org/2000/svg" x="987" y="175" transform="rotate(90.00,987,175)">Stargazers</text><path stroke-width="2" d="M 57.000000 346.000000 L 945 346" /><path stroke-width="2" d="M 57.000000 346.000000 L 945 346"></path><path d="M 58 346 L 58 351" stroke-width="2" /><path stroke-width="2" d="M 58 346 L 58 351"></path><text y="368" xmlns="http://www.w3.org/2000/svg" x="25">2023-04-02</text><path stroke-width="2" d="M 157 346 L 157 351" /><path stroke-width="2" d="M 157 346 L 157 351"></path><text y="368" xmlns="http://www.w3.org/2000/svg" x="124">2023-05-30</text><path stroke-width="2" d="M 256 346 L 256 351" /><path stroke-width="2" d="M 256 346 L 256 351"></path><text y="368" xmlns="http://www.w3.org/2000/svg" x="223">2023-07-26</text><path stroke-width="2" d="M 354 346 L 354 351" /><path stroke-width="2" d="M 354 346 L 354 351"></path><text xmlns="http://www.w3.org/2000/svg" x="321" y="368">2023-09-22</text><path d="M 453 346 L 453 351" stroke-width="2" /><path stroke-width="2" d="M 453 346 L 453 351"></path><text xmlns="http://www.w3.org/2000/svg" x="420" y="368">2023-11-19</text><path stroke-width="2" d="M 551 346 L 551 351" /><path stroke-width="2" d="M 551 346 L 551 351"></path><text xmlns="http://www.w3.org/2000/svg" x="518" y="368">2024-01-15</text><path stroke-width="2" d="M 650 346 L 650 351" /><path stroke-width="2" d="M 650 346 L 650 351"></path><text x="617" y="368" xmlns="http://www.w3.org/2000/svg">2024-03-13</text><path stroke-width="2" d="M 748 346 L 748 351" /><path stroke-width="2" d="M 748 346 L 748 351"></path><text xmlns="http://www.w3.org/2000/svg" x="715" y="368">2024-05-10</text><path d="M 847 346 L 847 351" stroke-width="2" /><path stroke-width="2" d="M 847 346 L 847 351"></path><text xmlns="http://www.w3.org/2000/svg" x="814" y="368">2024-07-06</text><path stroke-width="2" d="M 945 346 L 945 351" /><path stroke-width="2" d="M 945 346 L 945 351"></path><text xmlns="http://www.w3.org/2000/svg" x="912" y="368">2024-09-02</text><text xmlns="http://www.w3.org/2000/svg" x="487" y="390">Time</text></svg>