<svg xmlns="http://www.w3.org/2000/svg" xmlns:xlink="http://www.w3.org/1999/xlink" width="1024px" height="400px"><style type="text/css">
path { fill: none; stroke: rgb(51,51,51); }
path.series { stroke: #6b63ff; }
rect.background { fill: rgb(255,255,255); stroke: none; }

text {
	stroke-width: 0;
	stroke: none;
	fill: rgba(51,51,51,1.0);
	font-size: 12.8px;
	font-family: 'Roboto Medium', sans-serif;
}
</style><rect x="0" y="0" width="1024px" height="400px" class="background" rx="8" /><rect width="1024px" height="400px" class="background" rx="8" x="0" y="0"></rect><path d="M 58 345 L 62 344 L 87 343 L 88 343 L 88 342 L 88 341 L 88 341 L 88 340 L 88 339 L 88 339 L 88 338 L 88 337 L 88 337 L 88 336 L 88 335 L 89 335 L 89 334 L 89 333 L 89 333 L 91 332 L 91 331 L 91 331 L 93 330 L 94 329 L 94 329 L 95 328 L 95 327 L 97 327 L 100 326 L 100 325 L 102 325 L 103 324 L 111 323 L 111 323 L 111 322 L 111 321 L 111 321 L 112 320 L 116 319 L 118 319 L 119 318 L 123 317 L 129 317 L 132 316 L 143 315 L 146 315 L 152 314 L 158 313 L 161 313 L 184 312 L 185 311 L 185 310 L 188 310 L 189 309 L 189 308 L 189 308 L 189 307 L 189 306 L 189 306 L 189 305 L 189 304 L 189 304 L 189 303 L 189 302 L 190 302 L 190 301 L 190 300 L 190 300 L 190 299 L 190 298 L 190 298 L 190 297 L 190 296 L 190 296 L 190 295 L 190 294 L 190 294 L 190 293 L 190 292 L 190 292 L 190 291 L 190 290 L 191 290 L 191 289 L 191 288 L 191 288 L 191 287 L 191 286 L 191 286 L 191 285 L 191 284 L 191 284 L 191 283 L 191 282 L 191 282 L 191 281 L 191 280 L 191 280 L 191 279 L 191 278 L 192 277 L 192 277 L 192 276 L 192 275 L 193 275 L 193 274 L 194 273 L 194 273 L 194 272 L 194 271 L 194 271 L 194 270 L 194 269 L 194 269 L 194 268 L 194 267 L 194 267 L 194 266 L 194 265 L 195 265 L 195 264 L 195 263 L 195 263 L 195 262 L 197 261 L 197 261 L 197 260 L 197 259 L 203 259 L 203 258 L 203 257 L 205 257 L 205 256 L 209 255 L 213 255 L 214 254 L 217 253 L 218 253 L 221 252 L 221 251 L 222 251 L 226 250 L 226 249 L 227 249 L 229 248 L 230 247 L 231 247 L 232 246 L 232 245 L 232 244 L 234 244 L 236 243 L 236 242 L 237 242 L 238 241 L 238 240 L 239 240 L 242 239 L 244 238 L 247 238 L 248 237 L 250 236 L 251 236 L 251 235 L 252 234 L 254 234 L 264 233 L 265 232 L 266 232 L 276 231 L 276 230 L 276 230 L 276 229 L 276 228 L 278 228 L 281 227 L 283 226 L 283 226 L 294 225 L 297 224 L 299 224 L 303 223 L 305 222 L 305 222 L 307 221 L 315 220 L 324 220 L 334 219 L 335 218 L 335 218 L 335 217 L 336 216 L 338 216 L 352 215 L 358 214 L 358 214 L 364 213 L 365 212 L 366 211 L 381 211 L 381 210 L 382 209 L 382 209 L 384 208 L 389 207 L 390 207 L 393 206 L 395 205 L 399 205 L 407 204 L 408 203 L 409 203 L 409 202 L 410 201 L 410 201 L 415 200 L 423 199 L 442 199 L 449 198 L 453 197 L 454 197 L 456 196 L 458 195 L 458 195 L 458 194 L 458 193 L 458 193 L 458 192 L 458 191 L 458 191 L 458 190 L 459 189 L 459 189 L 459 188 L 459 187 L 459 187 L 460 186 L 461 185 L 463 185 L 464 184 L 464 183 L 464 183 L 464 182 L 466 181 L 466 181 L 466 180 L 466 179 L 466 178 L 467 178 L 467 177 L 468 176 L 469 176 L 470 175 L 470 174 L 470 174 L 470 173 L 471 172 L 472 172 L 472 171 L 472 170 L 472 170 L 474 169 L 474 168 L 475 168 L 476 167 L 478 166 L 479 166 L 481 165 L 485 164 L 485 164 L 486 163 L 486 162 L 486 162 L 486 161 L 487 160 L 489 160 L 490 159 L 493 158 L 493 158 L 494 157 L 497 156 L 499 156 L 499 155 L 503 154 L 504 154 L 505 153 L 506 152 L 506 152 L 513 151 L 515 150 L 515 150 L 521 149 L 524 148 L 529 148 L 531 147 L 531 146 L 533 145 L 533 145 L 533 144 L 538 143 L 541 143 L 544 142 L 544 141 L 546 141 L 548 140 L 548 139 L 548 139 L 548 138 L 549 137 L 550 137 L 550 136 L 552 135 L 552 135 L 552 134 L 553 133 L 560 133 L 568 132 L 568 131 L 568 131 L 574 130 L 576 129 L 578 129 L 578 128 L 580 127 L 582 127 L 582 126 L 582 125 L 582 125 L 582 124 L 583 123 L 583 123 L 584 122 L 584 121 L 585 121 L 589 120 L 589 119 L 589 119 L 589 118 L 589 117 L 590 117 L 590 116 L 590 115 L 590 115 L 590 114 L 590 113 L 590 112 L 590 112 L 597 111 L 601 110 L 601 110 L 602 109 L 610 108 L 619 108 L 621 107 L 626 106 L 630 106 L 640 105 L 643 104 L 646 104 L 647 103 L 647 102 L 647 102 L 647 101 L 647 100 L 647 100 L 648 99 L 650 98 L 651 98 L 664 97 L 667 96 L 672 96 L 682 95 L 689 94 L 694 94 L 698 93 L 705 92 L 706 92 L 720 91 L 735 90 L 735 90 L 745 89 L 746 88 L 754 88 L 756 87 L 760 86 L 760 86 L 761 85 L 761 84 L 766 84 L 768 83 L 772 82 L 778 82 L 779 81 L 781 80 L 781 79 L 787 79 L 792 78 L 793 77 L 799 77 L 805 76 L 806 75 L 806 75 L 809 74 L 810 73 L 812 73 L 817 72 L 821 71 L 825 71 L 829 70 L 829 69 L 837 69 L 839 68 L 843 67 L 850 67 L 850 66 L 858 65 L 859 65 L 859 64 L 861 63 L 862 63 L 866 62 L 866 61 L 869 61 L 874 60 L 875 59 L 876 59 L 876 58 L 888 57 L 889 57 L 890 56 L 890 55 L 890 55 L 892 54 L 892 53 L 893 53 L 893 52 L 896 51 L 897 51 L 899 50 L 900 49 L 901 49 L 902 48 L 903 47 L 903 46 L 904 46 L 905 45 L 905 44 L 906 44 L 906 43 L 906 42 L 907 42 L 908 41 L 911 40 L 911 40 L 911 39 L 913 38 L 913 38 L 915 37 L 917 36 L 917 36 L 918 35 L 920 34 L 923 34 L 923 33 L 924 32 L 924 32 L 928 31 L 928 30 L 928 30 L 928 29 L 929 28 L 929 28 L 929 27 L 930 26 L 931 26 L 932 25 L 937 24 L 939 24 L 941 23 L 942 22 L 945 22" stroke-width="2" class="series" /><path stroke-width="2" class="series" d="M 58 345 L 62 344 L 87 343 L 88 343 L 88 342 L 88 341 L 88 341 L 88 340 L 88 339 L 88 339 L 88 338 L 88 337 L 88 337 L 88 336 L 88 335 L 89 335 L 89 334 L 89 333 L 89 333 L 91 332 L 91 331 L 91 331 L 93 330 L 94 329 L 94 329 L 95 328 L 95 327 L 97 327 L 100 326 L 100 325 L 102 325 L 103 324 L 111 323 L 111 323 L 111 322 L 111 321 L 111 321 L 112 320 L 116 319 L 118 319 L 119 318 L 123 317 L 129 317 L 132 316 L 143 315 L 146 315 L 152 314 L 158 313 L 161 313 L 184 312 L 185 311 L 185 310 L 188 310 L 189 309 L 189 308 L 189 308 L 189 307 L 189 306 L 189 306 L 189 305 L 189 304 L 189 304 L 189 303 L 189 302 L 190 302 L 190 301 L 190 300 L 190 300 L 190 299 L 190 298 L 190 298 L 190 297 L 190 296 L 190 296 L 190 295 L 190 294 L 190 294 L 190 293 L 190 292 L 190 292 L 190 291 L 190 290 L 191 290 L 191 289 L 191 288 L 191 288 L 191 287 L 191 286 L 191 286 L 191 285 L 191 284 L 191 284 L 191 283 L 191 282 L 191 282 L 191 281 L 191 280 L 191 280 L 191 279 L 191 278 L 192 277 L 192 277 L 192 276 L 192 275 L 193 275 L 193 274 L 194 273 L 194 273 L 194 272 L 194 271 L 194 271 L 194 270 L 194 269 L 194 269 L 194 268 L 194 267 L 194 267 L 194 266 L 194 265 L 195 265 L 195 264 L 195 263 L 195 263 L 195 262 L 197 261 L 197 261 L 197 260 L 197 259 L 203 259 L 203 258 L 203 257 L 205 257 L 205 256 L 209 255 L 213 255 L 214 254 L 217 253 L 218 253 L 221 252 L 221 251 L 222 251 L 226 250 L 226 249 L 227 249 L 229 248 L 230 247 L 231 247 L 232 246 L 232 245 L 232 244 L 234 244 L 236 243 L 236 242 L 237 242 L 238 241 L 238 240 L 239 240 L 242 239 L 244 238 L 247 238 L 248 237 L 250 236 L 251 236 L 251 235 L 252 234 L 254 234 L 264 233 L 265 232 L 266 232 L 276 231 L 276 230 L 276 230 L 276 229 L 276 228 L 278 228 L 281 227 L 283 226 L 283 226 L 294 225 L 297 224 L 299 224 L 303 223 L 305 222 L 305 222 L 307 221 L 315 220 L 324 220 L 334 219 L 335 218 L 335 218 L 335 217 L 336 216 L 338 216 L 352 215 L 358 214 L 358 214 L 364 213 L 365 212 L 366 211 L 381 211 L 381 210 L 382 209 L 382 209 L 384 208 L 389 207 L 390 207 L 393 206 L 395 205 L 399 205 L 407 204 L 408 203 L 409 203 L 409 202 L 410 201 L 410 201 L 415 200 L 423 199 L 442 199 L 449 198 L 453 197 L 454 197 L 456 196 L 458 195 L 458 195 L 458 194 L 458 193 L 458 193 L 458 192 L 458 191 L 458 191 L 458 190 L 459 189 L 459 189 L 459 188 L 459 187 L 459 187 L 460 186 L 461 185 L 463 185 L 464 184 L 464 183 L 464 183 L 464 182 L 466 181 L 466 181 L 466 180 L 466 179 L 466 178 L 467 178 L 467 177 L 468 176 L 469 176 L 470 175 L 470 174 L 470 174 L 470 173 L 471 172 L 472 172 L 472 171 L 472 170 L 472 170 L 474 169 L 474 168 L 475 168 L 476 167 L 478 166 L 479 166 L 481 165 L 485 164 L 485 164 L 486 163 L 486 162 L 486 162 L 486 161 L 487 160 L 489 160 L 490 159 L 493 158 L 493 158 L 494 157 L 497 156 L 499 156 L 499 155 L 503 154 L 504 154 L 505 153 L 506 152 L 506 152 L 513 151 L 515 150 L 515 150 L 521 149 L 524 148 L 529 148 L 531 147 L 531 146 L 533 145 L 533 145 L 533 144 L 538 143 L 541 143 L 544 142 L 544 141 L 546 141 L 548 140 L 548 139 L 548 139 L 548 138 L 549 137 L 550 137 L 550 136 L 552 135 L 552 135 L 552 134 L 553 133 L 560 133 L 568 132 L 568 131 L 568 131 L 574 130 L 576 129 L 578 129 L 578 128 L 580 127 L 582 127 L 582 126 L 582 125 L 582 125 L 582 124 L 583 123 L 583 123 L 584 122 L 584 121 L 585 121 L 589 120 L 589 119 L 589 119 L 589 118 L 589 117 L 590 117 L 590 116 L 590 115 L 590 115 L 590 114 L 590 113 L 590 112 L 590 112 L 597 111 L 601 110 L 601 110 L 602 109 L 610 108 L 619 108 L 621 107 L 626 106 L 630 106 L 640 105 L 643 104 L 646 104 L 647 103 L 647 102 L 647 102 L 647 101 L 647 100 L 647 100 L 648 99 L 650 98 L 651 98 L 664 97 L 667 96 L 672 96 L 682 95 L 689 94 L 694 94 L 698 93 L 705 92 L 706 92 L 720 91 L 735 90 L 735 90 L 745 89 L 746 88 L 754 88 L 756 87 L 760 86 L 760 86 L 761 85 L 761 84 L 766 84 L 768 83 L 772 82 L 778 82 L 779 81 L 781 80 L 781 79 L 787 79 L 792 78 L 793 77 L 799 77 L 805 76 L 806 75 L 806 75 L 809 74 L 810 73 L 812 73 L 817 72 L 821 71 L 825 71 L 829 70 L 829 69 L 837 69 L 839 68 L 843 67 L 850 67 L 850 66 L 858 65 L 859 65 L 859 64 L 861 63 L 862 63 L 866 62 L 866 61 L 869 61 L 874 60 L 875 59 L 876 59 L 876 58 L 888 57 L 889 57 L 890 56 L 890 55 L 890 55 L 892 54 L 892 53 L 893 53 L 893 52 L 896 51 L 897 51 L 899 50 L 900 49 L 901 49 L 902 48 L 903 47 L 903 46 L 904 46 L 905 45 L 905 44 L 906 44 L 906 43 L 906 42 L 907 42 L 908 41 L 911 40 L 911 40 L 911 39 L 913 38 L 913 38 L 915 37 L 917 36 L 917 36 L 918 35 L 920 34 L 923 34 L 923 33 L 924 32 L 924 32 L 928 31 L 928 30 L 928 30 L 928 29 L 929 28 L 929 28 L 929 27 L 930 26 L 931 26 L 932 25 L 937 24 L 939 24 L 941 23 L 942 22 L 945 22"></path><path d="M 945 346 L 945.000000 15.000000" stroke-width="2" /><path stroke-width="2" d="M 945 346 L 945.000000 15.000000"></path><path stroke-width="2" d="M 945 346 L 950 346" /><path stroke-width="2" d="M 945 346 L 950 346"></path><text xmlns="http://www.w3.org/2000/svg" x="955" y="352">0</text><path d="M 945 308 L 950 308" stroke-width="2" /><path stroke-width="2" d="M 945 308 L 950 308"></path><text xmlns="http://www.w3.org/2000/svg" x="955" y="314">55</text><path stroke-width="2" d="M 945 272 L 950 272" /><path d="M 945 272 L 950 272" stroke-width="2"></path><text xmlns="http://www.w3.org/2000/svg" x="955" y="278">109</text><path d="M 945 235 L 950 235" stroke-width="2" /><path stroke-width="2" d="M 945 235 L 950 235"></path><text xmlns="http://www.w3.org/2000/svg" x="955" y="241">164</text><path stroke-width="2" d="M 945 199 L 950 199" /><path stroke-width="2" d="M 945 199 L 950 199"></path><text xmlns="http://www.w3.org/2000/svg" x="955" y="205">218</text><path stroke-width="2" d="M 945 162 L 950 162" /><path d="M 945 162 L 950 162" stroke-width="2"></path><text xmlns="http://www.w3.org/2000/svg" x="955" y="168">273</text><path stroke-width="2" d="M 945 125 L 950 125" /><path stroke-width="2" d="M 945 125 L 950 125"></path><text xmlns="http://www.w3.org/2000/svg" x="955" y="131">327</text><path stroke-width="2" d="M 945 88 L 950 88" /><path stroke-width="2" d="M 945 88 L 950 88"></path><text x="955" y="94" xmlns="http://www.w3.org/2000/svg">382</text><path d="M 945 52 L 950 52" stroke-width="2" /><path d="M 945 52 L 950 52" stroke-width="2"></path><text xmlns="http://www.w3.org/2000/svg" x="955" y="58">436</text><path stroke-width="2" d="M 945 16 L 950 16" /><path stroke-width="2" d="M 945 16 L 950 16"></path><text x="955" y="22" xmlns="http://www.w3.org/2000/svg">490</text><text y="175" transform="rotate(90.00,987,175)" xmlns="http://www.w3.org/2000/svg" x="987">Stargazers</text><path stroke-width="2" d="M 57.000000 346.000000 L 945 346" /><path stroke-width="2" d="M 57.000000 346.000000 L 945 346"></path><path stroke-width="2" d="M 58 346 L 58 351" /><path stroke-width="2" d="M 58 346 L 58 351"></path><text xmlns="http://www.w3.org/2000/svg" x="25" y="368">2023-04-02</text><path stroke-width="2" d="M 157 346 L 157 351" /><path stroke-width="2" d="M 157 346 L 157 351"></path><text y="368" xmlns="http://www.w3.org/2000/svg" x="124">2023-05-20</text><path d="M 256 346 L 256 351" stroke-width="2" /><path stroke-width="2" d="M 256 346 L 256 351"></path><text y="368" xmlns="http://www.w3.org/2000/svg" x="223">2023-07-08</text><path d="M 354 346 L 354 351" stroke-width="2" /><path d="M 354 346 L 354 351" stroke-width="2"></path><text x="321" y="368" xmlns="http://www.w3.org/2000/svg">2023-08-25</text><path stroke-width="2" d="M 453 346 L 453 351" /><path stroke-width="2" d="M 453 346 L 453 351"></path><text xmlns="http://www.w3.org/2000/svg" x="420" y="368">2023-10-12</text><path d="M 551 346 L 551 351" stroke-width="2" /><path stroke-width="2" d="M 551 346 L 551 351"></path><text x="518" y="368" xmlns="http://www.w3.org/2000/svg">2023-11-30</text><path stroke-width="2" d="M 650 346 L 650 351" /><path stroke-width="2" d="M 650 346 L 650 351"></path><text xmlns="http://www.w3.org/2000/svg" x="617" y="368">2024-01-17</text><path stroke-width="2" d="M 748 346 L 748 351" /><path stroke-width="2" d="M 748 346 L 748 351"></path><text xmlns="http://www.w3.org/2000/svg" x="715" y="368">2024-03-05</text><path stroke-width="2" d="M 847 346 L 847 351" /><path stroke-width="2" d="M 847 346 L 847 351"></path><text xmlns="http://www.w3.org/2000/svg" x="814" y="368">2024-04-23</text><path stroke-width="2" d="M 945 346 L 945 351" /><path stroke-width="2" d="M 945 346 L 945 351"></path><text x="912" y="368" xmlns="http://www.w3.org/2000/svg">2024-06-10</text><text xmlns="http://www.w3.org/2000/svg" x="487" y="390">Time</text></svg>