<svg xmlns="http://www.w3.org/2000/svg" xmlns:xlink="http://www.w3.org/1999/xlink" width="1024px" height="400px"><style type="text/css">
path { fill: none; stroke: rgb(51,51,51); }
path.series { stroke: #6b63ff; }
rect.background { fill: rgb(255,255,255); stroke: none; }

text {
	stroke-width: 0;
	stroke: none;
	fill: rgba(51,51,51,1.0);
	font-size: 12.8px;
	font-family: 'Roboto Medium', sans-serif;
}
</style><rect rx="8" x="0" y="0" width="1024px" height="400px" class="background" /><rect x="0" y="0" width="1024px" height="400px" class="background" rx="8"></rect><path d="M 58 345 L 60 345 L 71 345 L 71 344 L 71 344 L 71 344 L 71 344 L 71 343 L 71 343 L 71 343 L 71 342 L 71 342 L 71 342 L 71 342 L 71 341 L 72 341 L 72 341 L 72 341 L 72 340 L 72 340 L 73 340 L 73 339 L 74 339 L 74 339 L 74 339 L 74 338 L 74 338 L 75 338 L 76 338 L 76 337 L 77 337 L 78 337 L 81 336 L 81 336 L 81 336 L 81 336 L 81 335 L 83 335 L 84 335 L 85 335 L 86 334 L 89 334 L 90 334 L 95 333 L 96 333 L 99 333 L 102 333 L 103 332 L 113 332 L 113 332 L 115 331 L 115 331 L 115 331 L 115 331 L 115 330 L 115 330 L 115 330 L 115 330 L 115 329 L 115 329 L 115 329 L 115 328 L 115 328 L 115 328 L 115 328 L 115 327 L 115 327 L 115 327 L 115 327 L 115 326 L 115 326 L 115 326 L 116 325 L 116 325 L 116 325 L 116 325 L 116 324 L 116 324 L 116 324 L 116 324 L 116 323 L 116 323 L 116 323 L 116 322 L 116 322 L 116 322 L 116 322 L 116 321 L 116 321 L 116 321 L 116 320 L 116 320 L 116 320 L 116 320 L 116 319 L 116 319 L 116 319 L 116 319 L 116 318 L 116 318 L 116 318 L 116 317 L 117 317 L 117 317 L 117 317 L 117 316 L 117 316 L 117 316 L 117 316 L 117 315 L 117 315 L 117 315 L 117 314 L 117 314 L 117 314 L 117 314 L 117 313 L 117 313 L 117 313 L 117 313 L 117 312 L 118 312 L 118 312 L 118 311 L 118 311 L 118 311 L 121 311 L 121 310 L 121 310 L 122 310 L 122 309 L 123 309 L 125 309 L 126 309 L 127 308 L 128 308 L 129 308 L 129 308 L 129 307 L 131 307 L 131 307 L 132 306 L 132 306 L 133 306 L 133 306 L 133 305 L 133 305 L 134 305 L 135 305 L 135 304 L 135 304 L 136 304 L 136 303 L 136 303 L 137 303 L 138 303 L 139 302 L 140 302 L 141 302 L 141 302 L 142 301 L 142 301 L 142 301 L 143 300 L 147 300 L 148 300 L 148 300 L 152 299 L 152 299 L 152 299 L 153 298 L 153 298 L 153 298 L 155 298 L 155 297 L 156 297 L 160 297 L 161 297 L 163 296 L 164 296 L 165 296 L 165 295 L 166 295 L 169 295 L 173 295 L 178 294 L 178 294 L 178 294 L 178 294 L 178 293 L 185 293 L 188 293 L 188 292 L 190 292 L 191 292 L 191 292 L 198 291 L 198 291 L 198 291 L 199 291 L 199 290 L 202 290 L 203 290 L 204 289 L 206 289 L 209 289 L 209 289 L 210 288 L 210 288 L 210 288 L 211 287 L 213 287 L 216 287 L 224 287 L 227 286 L 229 286 L 229 286 L 231 286 L 231 285 L 231 285 L 231 285 L 231 284 L 231 284 L 231 284 L 231 284 L 231 283 L 231 283 L 232 283 L 232 283 L 232 282 L 232 282 L 232 282 L 234 281 L 234 281 L 234 281 L 234 281 L 235 280 L 235 280 L 235 280 L 235 280 L 235 279 L 235 279 L 235 279 L 236 278 L 236 278 L 236 278 L 236 278 L 236 277 L 237 277 L 237 277 L 237 276 L 237 276 L 238 276 L 238 276 L 238 275 L 238 275 L 239 275 L 240 275 L 240 274 L 241 274 L 243 274 L 243 273 L 243 273 L 243 273 L 243 273 L 244 272 L 244 272 L 245 272 L 245 272 L 246 271 L 246 271 L 247 271 L 248 270 L 249 270 L 249 270 L 251 270 L 251 269 L 251 269 L 252 269 L 252 269 L 255 268 L 256 268 L 256 268 L 258 267 L 260 267 L 262 267 L 263 267 L 263 266 L 264 266 L 264 266 L 264 265 L 266 265 L 267 265 L 268 265 L 268 264 L 270 264 L 270 264 L 270 264 L 270 263 L 271 263 L 271 263 L 271 262 L 272 262 L 272 262 L 272 262 L 272 261 L 275 261 L 279 261 L 279 261 L 279 260 L 281 260 L 282 260 L 283 259 L 283 259 L 284 259 L 285 259 L 285 258 L 285 258 L 285 258 L 285 258 L 285 257 L 285 257 L 286 257 L 286 256 L 286 256 L 288 256 L 288 256 L 288 255 L 288 255 L 288 255 L 288 254 L 288 254 L 288 254 L 288 254 L 288 253 L 288 253 L 289 253 L 291 253 L 293 252 L 293 252 L 294 252 L 301 251 L 302 251 L 304 251 L 305 251 L 311 250 L 313 250 L 313 250 L 313 250 L 313 249 L 313 249 L 313 249 L 313 248 L 314 248 L 315 248 L 320 248 L 322 247 L 324 247 L 328 247 L 331 247 L 333 246 L 335 246 L 338 246 L 338 245 L 345 245 L 351 245 L 351 245 L 355 244 L 356 244 L 359 244 L 360 243 L 362 243 L 362 243 L 362 243 L 362 242 L 364 242 L 365 242 L 367 242 L 370 241 L 370 241 L 371 241 L 371 240 L 373 240 L 376 240 L 376 240 L 379 239 L 381 239 L 382 239 L 382 239 L 383 238 L 384 238 L 384 238 L 386 237 L 388 237 L 390 237 L 392 237 L 392 236 L 395 236 L 396 236 L 398 236 L 401 235 L 401 235 L 404 235 L 405 234 L 405 234 L 406 234 L 406 234 L 408 233 L 408 233 L 409 233 L 411 232 L 412 232 L 412 232 L 412 232 L 417 231 L 417 231 L 418 231 L 418 231 L 418 230 L 419 230 L 419 230 L 419 229 L 420 229 L 421 229 L 421 229 L 422 228 L 422 228 L 423 228 L 423 228 L 424 227 L 424 227 L 424 227 L 424 226 L 424 226 L 425 226 L 425 226 L 425 225 L 425 225 L 426 225 L 427 225 L 427 224 L 427 224 L 428 224 L 428 223 L 429 223 L 430 223 L 430 223 L 430 222 L 431 222 L 432 222 L 432 221 L 433 221 L 434 221 L 434 221 L 434 220 L 435 220 L 435 220 L 435 220 L 435 219 L 435 219 L 436 219 L 436 218 L 439 218 L 439 218 L 440 218 L 440 217 L 442 217 L 443 217 L 443 217 L 445 216 L 447 216 L 448 216 L 450 215 L 450 215 L 451 215 L 451 215 L 451 214 L 451 214 L 452 214 L 452 214 L 452 213 L 452 213 L 452 213 L 453 212 L 454 212 L 454 212 L 454 212 L 455 211 L 455 211 L 457 211 L 457 210 L 457 210 L 458 210 L 459 210 L 460 209 L 465 209 L 465 209 L 465 209 L 465 208 L 466 208 L 468 208 L 468 207 L 468 207 L 468 207 L 469 207 L 470 206 L 472 206 L 472 206 L 473 206 L 473 205 L 474 205 L 474 205 L 474 204 L 474 204 L 476 204 L 479 204 L 479 203 L 482 203 L 482 203 L 482 203 L 485 202 L 486 202 L 487 202 L 489 201 L 490 201 L 491 201 L 491 201 L 491 200 L 491 200 L 491 200 L 491 199 L 492 199 L 492 199 L 492 199 L 493 198 L 493 198 L 493 198 L 494 198 L 495 197 L 495 197 L 498 197 L 498 196 L 502 196 L 504 196 L 504 196 L 504 195 L 505 195 L 507 195 L 507 195 L 507 194 L 508 194 L 508 194 L 508 193 L 508 193 L 508 193 L 509 193 L 509 192 L 509 192 L 509 192 L 509 192 L 510 191 L 510 191 L 511 191 L 511 190 L 511 190 L 512 190 L 513 190 L 513 189 L 513 189 L 513 189 L 514 188 L 516 188 L 516 188 L 516 188 L 516 187 L 516 187 L 517 187 L 517 187 L 517 186 L 518 186 L 519 186 L 521 185 L 523 185 L 524 185 L 525 185 L 527 184 L 530 184 L 530 184 L 532 184 L 535 183 L 535 183 L 535 183 L 539 182 L 540 182 L 540 182 L 540 182 L 541 181 L 547 181 L 547 181 L 548 181 L 548 180 L 548 180 L 548 180 L 549 179 L 549 179 L 550 179 L 550 179 L 550 178 L 551 178 L 551 178 L 551 177 L 551 177 L 551 177 L 551 177 L 552 176 L 552 176 L 553 176 L 554 176 L 555 175 L 555 175 L 555 175 L 555 174 L 556 174 L 556 174 L 557 174 L 557 173 L 557 173 L 558 173 L 558 173 L 559 172 L 559 172 L 560 172 L 560 171 L 561 171 L 561 171 L 562 171 L 562 170 L 562 170 L 562 170 L 562 170 L 563 169 L 563 169 L 564 169 L 564 168 L 565 168 L 565 168 L 565 168 L 565 167 L 565 167 L 566 167 L 566 166 L 566 166 L 566 166 L 567 166 L 567 165 L 567 165 L 568 165 L 568 165 L 568 164 L 568 164 L 568 164 L 568 163 L 569 163 L 569 163 L 569 163 L 569 162 L 569 162 L 571 162 L 571 162 L 573 161 L 573 161 L 573 161 L 573 160 L 574 160 L 575 160 L 575 160 L 576 159 L 578 159 L 579 159 L 579 159 L 581 158 L 581 158 L 581 158 L 582 157 L 582 157 L 582 157 L 582 157 L 582 156 L 582 156 L 582 156 L 583 155 L 583 155 L 583 155 L 583 155 L 583 154 L 583 154 L 584 154 L 584 154 L 584 153 L 584 153 L 585 153 L 586 152 L 586 152 L 587 152 L 587 152 L 588 151 L 588 151 L 588 151 L 591 151 L 591 150 L 591 150 L 591 150 L 591 149 L 593 149 L 594 149 L 595 149 L 596 148 L 596 148 L 596 148 L 596 148 L 597 147 L 600 147 L 602 147 L 604 146 L 605 146 L 606 146 L 607 146 L 607 145 L 607 145 L 608 145 L 608 144 L 608 144 L 609 144 L 609 144 L 609 143 L 610 143 L 612 143 L 612 143 L 612 142 L 612 142 L 612 142 L 612 141 L 612 141 L 612 141 L 612 141 L 612 140 L 612 140 L 612 140 L 612 140 L 612 139 L 612 139 L 612 139 L 612 138 L 613 138 L 613 138 L 613 138 L 613 137 L 613 137 L 613 137 L 613 137 L 614 136 L 614 136 L 614 136 L 615 135 L 615 135 L 615 135 L 615 135 L 615 134 L 615 134 L 615 134 L 616 133 L 618 133 L 618 133 L 618 133 L 619 132 L 619 132 L 620 132 L 620 132 L 622 131 L 623 131 L 623 131 L 623 130 L 623 130 L 623 130 L 623 130 L 623 129 L 623 129 L 625 129 L 625 129 L 625 128 L 628 128 L 629 128 L 630 127 L 632 127 L 633 127 L 634 127 L 634 126 L 634 126 L 634 126 L 634 126 L 635 125 L 635 125 L 636 125 L 636 124 L 636 124 L 636 124 L 637 124 L 637 123 L 637 123 L 637 123 L 637 122 L 637 122 L 637 122 L 637 122 L 638 121 L 639 121 L 639 121 L 639 121 L 640 120 L 640 120 L 640 120 L 641 119 L 641 119 L 641 119 L 641 119 L 642 118 L 642 118 L 643 118 L 646 118 L 647 117 L 649 117 L 650 117 L 651 116 L 653 116 L 653 116 L 654 116 L 656 115 L 660 115 L 660 115 L 662 115 L 663 114 L 665 114 L 665 114 L 665 113 L 667 113 L 667 113 L 668 113 L 668 112 L 669 112 L 670 112 L 671 111 L 671 111 L 672 111 L 672 111 L 672 110 L 673 110 L 675 110 L 675 110 L 676 109 L 677 109 L 677 109 L 678 108 L 679 108 L 680 108 L 680 108 L 680 107 L 680 107 L 681 107 L 682 107 L 682 106 L 682 106 L 683 106 L 683 105 L 684 105 L 684 105 L 685 105 L 685 104 L 685 104 L 686 104 L 686 104 L 686 103 L 686 103 L 686 103 L 686 102 L 687 102 L 689 102 L 690 102 L 690 101 L 693 101 L 693 101 L 694 100 L 695 100 L 697 100 L 698 100 L 700 99 L 701 99 L 702 99 L 702 99 L 704 98 L 705 98 L 707 98 L 707 97 L 707 97 L 707 97 L 707 97 L 707 96 L 708 96 L 709 96 L 710 96 L 710 95 L 711 95 L 711 95 L 716 94 L 716 94 L 717 94 L 718 94 L 720 93 L 721 93 L 721 93 L 721 92 L 721 92 L 722 92 L 723 92 L 723 91 L 723 91 L 724 91 L 724 91 L 724 90 L 725 90 L 725 90 L 726 89 L 729 89 L 729 89 L 733 89 L 733 88 L 734 88 L 735 88 L 735 88 L 735 87 L 735 87 L 736 87 L 738 86 L 739 86 L 740 86 L 741 86 L 741 85 L 741 85 L 742 85 L 743 85 L 745 84 L 745 84 L 745 84 L 746 83 L 746 83 L 746 83 L 746 83 L 747 82 L 748 82 L 748 82 L 749 82 L 749 81 L 750 81 L 750 81 L 751 80 L 751 80 L 751 80 L 751 80 L 754 79 L 757 79 L 758 79 L 761 78 L 761 78 L 763 78 L 764 78 L 764 77 L 765 77 L 766 77 L 766 77 L 767 76 L 769 76 L 770 76 L 772 75 L 777 75 L 777 75 L 777 75 L 777 74 L 777 74 L 778 74 L 779 74 L 779 73 L 786 73 L 788 73 L 788 72 L 789 72 L 791 72 L 793 72 L 795 71 L 795 71 L 795 71 L 796 71 L 797 70 L 802 70 L 802 70 L 803 69 L 804 69 L 806 69 L 807 69 L 807 68 L 807 68 L 807 68 L 808 67 L 808 67 L 810 67 L 812 67 L 812 66 L 812 66 L 813 66 L 815 66 L 818 65 L 819 65 L 819 65 L 821 64 L 821 64 L 821 64 L 821 64 L 821 63 L 822 63 L 822 63 L 824 63 L 825 62 L 825 62 L 825 62 L 825 61 L 826 61 L 826 61 L 826 61 L 826 60 L 826 60 L 826 60 L 826 60 L 826 59 L 827 59 L 827 59 L 828 58 L 828 58 L 828 58 L 828 58 L 828 57 L 830 57 L 834 57 L 835 56 L 836 56 L 836 56 L 836 56 L 836 55 L 836 55 L 836 55 L 837 55 L 837 54 L 837 54 L 837 54 L 837 53 L 837 53 L 837 53 L 837 53 L 837 52 L 837 52 L 837 52 L 837 52 L 838 51 L 838 51 L 838 51 L 838 50 L 839 50 L 839 50 L 840 50 L 841 49 L 842 49 L 842 49 L 843 49 L 843 48 L 845 48 L 845 48 L 845 47 L 846 47 L 847 47 L 848 47 L 848 46 L 849 46 L 850 46 L 850 45 L 852 45 L 852 45 L 853 45 L 854 44 L 855 44 L 855 44 L 855 44 L 856 43 L 857 43 L 857 43 L 858 42 L 859 42 L 860 42 L 862 42 L 865 41 L 866 41 L 866 41 L 870 41 L 870 40 L 870 40 L 871 40 L 871 39 L 871 39 L 872 39 L 873 39 L 874 38 L 875 38 L 875 38 L 875 38 L 875 37 L 876 37 L 876 37 L 880 36 L 880 36 L 881 36 L 882 36 L 883 35 L 883 35 L 889 35 L 889 34 L 890 34 L 891 34 L 891 34 L 892 33 L 893 33 L 894 33 L 894 33 L 894 32 L 894 32 L 894 32 L 898 31 L 899 31 L 900 31 L 902 31 L 903 30 L 903 30 L 904 30 L 904 30 L 904 29 L 904 29 L 905 29 L 907 28 L 907 28 L 908 28 L 909 28 L 909 27 L 909 27 L 912 27 L 913 27 L 914 26 L 914 26 L 915 26 L 919 25 L 922 25 L 926 25 L 926 25 L 929 24 L 930 24 L 930 24 L 931 23 L 931 23 L 934 23 L 934 23 L 935 22 L 935 22 L 935 22 L 935 22 L 935 21 L 937 21 L 937 21 L 937 20 L 937 20" stroke-width="2" class="series" /><path class="series" d="M 58 345 L 60 345 L 71 345 L 71 344 L 71 344 L 71 344 L 71 344 L 71 343 L 71 343 L 71 343 L 71 342 L 71 342 L 71 342 L 71 342 L 71 341 L 72 341 L 72 341 L 72 341 L 72 340 L 72 340 L 73 340 L 73 339 L 74 339 L 74 339 L 74 339 L 74 338 L 74 338 L 75 338 L 76 338 L 76 337 L 77 337 L 78 337 L 81 336 L 81 336 L 81 336 L 81 336 L 81 335 L 83 335 L 84 335 L 85 335 L 86 334 L 89 334 L 90 334 L 95 333 L 96 333 L 99 333 L 102 333 L 103 332 L 113 332 L 113 332 L 115 331 L 115 331 L 115 331 L 115 331 L 115 330 L 115 330 L 115 330 L 115 330 L 115 329 L 115 329 L 115 329 L 115 328 L 115 328 L 115 328 L 115 328 L 115 327 L 115 327 L 115 327 L 115 327 L 115 326 L 115 326 L 115 326 L 116 325 L 116 325 L 116 325 L 116 325 L 116 324 L 116 324 L 116 324 L 116 324 L 116 323 L 116 323 L 116 323 L 116 322 L 116 322 L 116 322 L 116 322 L 116 321 L 116 321 L 116 321 L 116 320 L 116 320 L 116 320 L 116 320 L 116 319 L 116 319 L 116 319 L 116 319 L 116 318 L 116 318 L 116 318 L 116 317 L 117 317 L 117 317 L 117 317 L 117 316 L 117 316 L 117 316 L 117 316 L 117 315 L 117 315 L 117 315 L 117 314 L 117 314 L 117 314 L 117 314 L 117 313 L 117 313 L 117 313 L 117 313 L 117 312 L 118 312 L 118 312 L 118 311 L 118 311 L 118 311 L 121 311 L 121 310 L 121 310 L 122 310 L 122 309 L 123 309 L 125 309 L 126 309 L 127 308 L 128 308 L 129 308 L 129 308 L 129 307 L 131 307 L 131 307 L 132 306 L 132 306 L 133 306 L 133 306 L 133 305 L 133 305 L 134 305 L 135 305 L 135 304 L 135 304 L 136 304 L 136 303 L 136 303 L 137 303 L 138 303 L 139 302 L 140 302 L 141 302 L 141 302 L 142 301 L 142 301 L 142 301 L 143 300 L 147 300 L 148 300 L 148 300 L 152 299 L 152 299 L 152 299 L 153 298 L 153 298 L 153 298 L 155 298 L 155 297 L 156 297 L 160 297 L 161 297 L 163 296 L 164 296 L 165 296 L 165 295 L 166 295 L 169 295 L 173 295 L 178 294 L 178 294 L 178 294 L 178 294 L 178 293 L 185 293 L 188 293 L 188 292 L 190 292 L 191 292 L 191 292 L 198 291 L 198 291 L 198 291 L 199 291 L 199 290 L 202 290 L 203 290 L 204 289 L 206 289 L 209 289 L 209 289 L 210 288 L 210 288 L 210 288 L 211 287 L 213 287 L 216 287 L 224 287 L 227 286 L 229 286 L 229 286 L 231 286 L 231 285 L 231 285 L 231 285 L 231 284 L 231 284 L 231 284 L 231 284 L 231 283 L 231 283 L 232 283 L 232 283 L 232 282 L 232 282 L 232 282 L 234 281 L 234 281 L 234 281 L 234 281 L 235 280 L 235 280 L 235 280 L 235 280 L 235 279 L 235 279 L 235 279 L 236 278 L 236 278 L 236 278 L 236 278 L 236 277 L 237 277 L 237 277 L 237 276 L 237 276 L 238 276 L 238 276 L 238 275 L 238 275 L 239 275 L 240 275 L 240 274 L 241 274 L 243 274 L 243 273 L 243 273 L 243 273 L 243 273 L 244 272 L 244 272 L 245 272 L 245 272 L 246 271 L 246 271 L 247 271 L 248 270 L 249 270 L 249 270 L 251 270 L 251 269 L 251 269 L 252 269 L 252 269 L 255 268 L 256 268 L 256 268 L 258 267 L 260 267 L 262 267 L 263 267 L 263 266 L 264 266 L 264 266 L 264 265 L 266 265 L 267 265 L 268 265 L 268 264 L 270 264 L 270 264 L 270 264 L 270 263 L 271 263 L 271 263 L 271 262 L 272 262 L 272 262 L 272 262 L 272 261 L 275 261 L 279 261 L 279 261 L 279 260 L 281 260 L 282 260 L 283 259 L 283 259 L 284 259 L 285 259 L 285 258 L 285 258 L 285 258 L 285 258 L 285 257 L 285 257 L 286 257 L 286 256 L 286 256 L 288 256 L 288 256 L 288 255 L 288 255 L 288 255 L 288 254 L 288 254 L 288 254 L 288 254 L 288 253 L 288 253 L 289 253 L 291 253 L 293 252 L 293 252 L 294 252 L 301 251 L 302 251 L 304 251 L 305 251 L 311 250 L 313 250 L 313 250 L 313 250 L 313 249 L 313 249 L 313 249 L 313 248 L 314 248 L 315 248 L 320 248 L 322 247 L 324 247 L 328 247 L 331 247 L 333 246 L 335 246 L 338 246 L 338 245 L 345 245 L 351 245 L 351 245 L 355 244 L 356 244 L 359 244 L 360 243 L 362 243 L 362 243 L 362 243 L 362 242 L 364 242 L 365 242 L 367 242 L 370 241 L 370 241 L 371 241 L 371 240 L 373 240 L 376 240 L 376 240 L 379 239 L 381 239 L 382 239 L 382 239 L 383 238 L 384 238 L 384 238 L 386 237 L 388 237 L 390 237 L 392 237 L 392 236 L 395 236 L 396 236 L 398 236 L 401 235 L 401 235 L 404 235 L 405 234 L 405 234 L 406 234 L 406 234 L 408 233 L 408 233 L 409 233 L 411 232 L 412 232 L 412 232 L 412 232 L 417 231 L 417 231 L 418 231 L 418 231 L 418 230 L 419 230 L 419 230 L 419 229 L 420 229 L 421 229 L 421 229 L 422 228 L 422 228 L 423 228 L 423 228 L 424 227 L 424 227 L 424 227 L 424 226 L 424 226 L 425 226 L 425 226 L 425 225 L 425 225 L 426 225 L 427 225 L 427 224 L 427 224 L 428 224 L 428 223 L 429 223 L 430 223 L 430 223 L 430 222 L 431 222 L 432 222 L 432 221 L 433 221 L 434 221 L 434 221 L 434 220 L 435 220 L 435 220 L 435 220 L 435 219 L 435 219 L 436 219 L 436 218 L 439 218 L 439 218 L 440 218 L 440 217 L 442 217 L 443 217 L 443 217 L 445 216 L 447 216 L 448 216 L 450 215 L 450 215 L 451 215 L 451 215 L 451 214 L 451 214 L 452 214 L 452 214 L 452 213 L 452 213 L 452 213 L 453 212 L 454 212 L 454 212 L 454 212 L 455 211 L 455 211 L 457 211 L 457 210 L 457 210 L 458 210 L 459 210 L 460 209 L 465 209 L 465 209 L 465 209 L 465 208 L 466 208 L 468 208 L 468 207 L 468 207 L 468 207 L 469 207 L 470 206 L 472 206 L 472 206 L 473 206 L 473 205 L 474 205 L 474 205 L 474 204 L 474 204 L 476 204 L 479 204 L 479 203 L 482 203 L 482 203 L 482 203 L 485 202 L 486 202 L 487 202 L 489 201 L 490 201 L 491 201 L 491 201 L 491 200 L 491 200 L 491 200 L 491 199 L 492 199 L 492 199 L 492 199 L 493 198 L 493 198 L 493 198 L 494 198 L 495 197 L 495 197 L 498 197 L 498 196 L 502 196 L 504 196 L 504 196 L 504 195 L 505 195 L 507 195 L 507 195 L 507 194 L 508 194 L 508 194 L 508 193 L 508 193 L 508 193 L 509 193 L 509 192 L 509 192 L 509 192 L 509 192 L 510 191 L 510 191 L 511 191 L 511 190 L 511 190 L 512 190 L 513 190 L 513 189 L 513 189 L 513 189 L 514 188 L 516 188 L 516 188 L 516 188 L 516 187 L 516 187 L 517 187 L 517 187 L 517 186 L 518 186 L 519 186 L 521 185 L 523 185 L 524 185 L 525 185 L 527 184 L 530 184 L 530 184 L 532 184 L 535 183 L 535 183 L 535 183 L 539 182 L 540 182 L 540 182 L 540 182 L 541 181 L 547 181 L 547 181 L 548 181 L 548 180 L 548 180 L 548 180 L 549 179 L 549 179 L 550 179 L 550 179 L 550 178 L 551 178 L 551 178 L 551 177 L 551 177 L 551 177 L 551 177 L 552 176 L 552 176 L 553 176 L 554 176 L 555 175 L 555 175 L 555 175 L 555 174 L 556 174 L 556 174 L 557 174 L 557 173 L 557 173 L 558 173 L 558 173 L 559 172 L 559 172 L 560 172 L 560 171 L 561 171 L 561 171 L 562 171 L 562 170 L 562 170 L 562 170 L 562 170 L 563 169 L 563 169 L 564 169 L 564 168 L 565 168 L 565 168 L 565 168 L 565 167 L 565 167 L 566 167 L 566 166 L 566 166 L 566 166 L 567 166 L 567 165 L 567 165 L 568 165 L 568 165 L 568 164 L 568 164 L 568 164 L 568 163 L 569 163 L 569 163 L 569 163 L 569 162 L 569 162 L 571 162 L 571 162 L 573 161 L 573 161 L 573 161 L 573 160 L 574 160 L 575 160 L 575 160 L 576 159 L 578 159 L 579 159 L 579 159 L 581 158 L 581 158 L 581 158 L 582 157 L 582 157 L 582 157 L 582 157 L 582 156 L 582 156 L 582 156 L 583 155 L 583 155 L 583 155 L 583 155 L 583 154 L 583 154 L 584 154 L 584 154 L 584 153 L 584 153 L 585 153 L 586 152 L 586 152 L 587 152 L 587 152 L 588 151 L 588 151 L 588 151 L 591 151 L 591 150 L 591 150 L 591 150 L 591 149 L 593 149 L 594 149 L 595 149 L 596 148 L 596 148 L 596 148 L 596 148 L 597 147 L 600 147 L 602 147 L 604 146 L 605 146 L 606 146 L 607 146 L 607 145 L 607 145 L 608 145 L 608 144 L 608 144 L 609 144 L 609 144 L 609 143 L 610 143 L 612 143 L 612 143 L 612 142 L 612 142 L 612 142 L 612 141 L 612 141 L 612 141 L 612 141 L 612 140 L 612 140 L 612 140 L 612 140 L 612 139 L 612 139 L 612 139 L 612 138 L 613 138 L 613 138 L 613 138 L 613 137 L 613 137 L 613 137 L 613 137 L 614 136 L 614 136 L 614 136 L 615 135 L 615 135 L 615 135 L 615 135 L 615 134 L 615 134 L 615 134 L 616 133 L 618 133 L 618 133 L 618 133 L 619 132 L 619 132 L 620 132 L 620 132 L 622 131 L 623 131 L 623 131 L 623 130 L 623 130 L 623 130 L 623 130 L 623 129 L 623 129 L 625 129 L 625 129 L 625 128 L 628 128 L 629 128 L 630 127 L 632 127 L 633 127 L 634 127 L 634 126 L 634 126 L 634 126 L 634 126 L 635 125 L 635 125 L 636 125 L 636 124 L 636 124 L 636 124 L 637 124 L 637 123 L 637 123 L 637 123 L 637 122 L 637 122 L 637 122 L 637 122 L 638 121 L 639 121 L 639 121 L 639 121 L 640 120 L 640 120 L 640 120 L 641 119 L 641 119 L 641 119 L 641 119 L 642 118 L 642 118 L 643 118 L 646 118 L 647 117 L 649 117 L 650 117 L 651 116 L 653 116 L 653 116 L 654 116 L 656 115 L 660 115 L 660 115 L 662 115 L 663 114 L 665 114 L 665 114 L 665 113 L 667 113 L 667 113 L 668 113 L 668 112 L 669 112 L 670 112 L 671 111 L 671 111 L 672 111 L 672 111 L 672 110 L 673 110 L 675 110 L 675 110 L 676 109 L 677 109 L 677 109 L 678 108 L 679 108 L 680 108 L 680 108 L 680 107 L 680 107 L 681 107 L 682 107 L 682 106 L 682 106 L 683 106 L 683 105 L 684 105 L 684 105 L 685 105 L 685 104 L 685 104 L 686 104 L 686 104 L 686 103 L 686 103 L 686 103 L 686 102 L 687 102 L 689 102 L 690 102 L 690 101 L 693 101 L 693 101 L 694 100 L 695 100 L 697 100 L 698 100 L 700 99 L 701 99 L 702 99 L 702 99 L 704 98 L 705 98 L 707 98 L 707 97 L 707 97 L 707 97 L 707 97 L 707 96 L 708 96 L 709 96 L 710 96 L 710 95 L 711 95 L 711 95 L 716 94 L 716 94 L 717 94 L 718 94 L 720 93 L 721 93 L 721 93 L 721 92 L 721 92 L 722 92 L 723 92 L 723 91 L 723 91 L 724 91 L 724 91 L 724 90 L 725 90 L 725 90 L 726 89 L 729 89 L 729 89 L 733 89 L 733 88 L 734 88 L 735 88 L 735 88 L 735 87 L 735 87 L 736 87 L 738 86 L 739 86 L 740 86 L 741 86 L 741 85 L 741 85 L 742 85 L 743 85 L 745 84 L 745 84 L 745 84 L 746 83 L 746 83 L 746 83 L 746 83 L 747 82 L 748 82 L 748 82 L 749 82 L 749 81 L 750 81 L 750 81 L 751 80 L 751 80 L 751 80 L 751 80 L 754 79 L 757 79 L 758 79 L 761 78 L 761 78 L 763 78 L 764 78 L 764 77 L 765 77 L 766 77 L 766 77 L 767 76 L 769 76 L 770 76 L 772 75 L 777 75 L 777 75 L 777 75 L 777 74 L 777 74 L 778 74 L 779 74 L 779 73 L 786 73 L 788 73 L 788 72 L 789 72 L 791 72 L 793 72 L 795 71 L 795 71 L 795 71 L 796 71 L 797 70 L 802 70 L 802 70 L 803 69 L 804 69 L 806 69 L 807 69 L 807 68 L 807 68 L 807 68 L 808 67 L 808 67 L 810 67 L 812 67 L 812 66 L 812 66 L 813 66 L 815 66 L 818 65 L 819 65 L 819 65 L 821 64 L 821 64 L 821 64 L 821 64 L 821 63 L 822 63 L 822 63 L 824 63 L 825 62 L 825 62 L 825 62 L 825 61 L 826 61 L 826 61 L 826 61 L 826 60 L 826 60 L 826 60 L 826 60 L 826 59 L 827 59 L 827 59 L 828 58 L 828 58 L 828 58 L 828 58 L 828 57 L 830 57 L 834 57 L 835 56 L 836 56 L 836 56 L 836 56 L 836 55 L 836 55 L 836 55 L 837 55 L 837 54 L 837 54 L 837 54 L 837 53 L 837 53 L 837 53 L 837 53 L 837 52 L 837 52 L 837 52 L 837 52 L 838 51 L 838 51 L 838 51 L 838 50 L 839 50 L 839 50 L 840 50 L 841 49 L 842 49 L 842 49 L 843 49 L 843 48 L 845 48 L 845 48 L 845 47 L 846 47 L 847 47 L 848 47 L 848 46 L 849 46 L 850 46 L 850 45 L 852 45 L 852 45 L 853 45 L 854 44 L 855 44 L 855 44 L 855 44 L 856 43 L 857 43 L 857 43 L 858 42 L 859 42 L 860 42 L 862 42 L 865 41 L 866 41 L 866 41 L 870 41 L 870 40 L 870 40 L 871 40 L 871 39 L 871 39 L 872 39 L 873 39 L 874 38 L 875 38 L 875 38 L 875 38 L 875 37 L 876 37 L 876 37 L 880 36 L 880 36 L 881 36 L 882 36 L 883 35 L 883 35 L 889 35 L 889 34 L 890 34 L 891 34 L 891 34 L 892 33 L 893 33 L 894 33 L 894 33 L 894 32 L 894 32 L 894 32 L 898 31 L 899 31 L 900 31 L 902 31 L 903 30 L 903 30 L 904 30 L 904 30 L 904 29 L 904 29 L 905 29 L 907 28 L 907 28 L 908 28 L 909 28 L 909 27 L 909 27 L 912 27 L 913 27 L 914 26 L 914 26 L 915 26 L 919 25 L 922 25 L 926 25 L 926 25 L 929 24 L 930 24 L 930 24 L 931 23 L 931 23 L 934 23 L 934 23 L 935 22 L 935 22 L 935 22 L 935 22 L 935 21 L 937 21 L 937 21 L 937 20 L 937 20" stroke-width="2"></path><path stroke-width="2" d="M 937 346 L 937.000000 15.000000" /><path stroke-width="2" d="M 937 346 L 937.000000 15.000000"></path><path stroke-width="2" d="M 937 346 L 942 346" /><path stroke-width="2" d="M 937 346 L 942 346"></path><text xmlns="http://www.w3.org/2000/svg" x="947" y="352">0</text><path stroke-width="2" d="M 937 307 L 942 307" /><path stroke-width="2" d="M 937 307 L 942 307"></path><text xmlns="http://www.w3.org/2000/svg" x="947" y="313">140</text><path d="M 937 271 L 942 271" stroke-width="2" /><path stroke-width="2" d="M 937 271 L 942 271"></path><text xmlns="http://www.w3.org/2000/svg" x="947" y="277">270</text><path stroke-width="2" d="M 937 236 L 942 236" /><path stroke-width="2" d="M 937 236 L 942 236"></path><text xmlns="http://www.w3.org/2000/svg" x="947" y="242">400</text><path stroke-width="2" d="M 937 197 L 942 197" /><path stroke-width="2" d="M 937 197 L 942 197"></path><text xmlns="http://www.w3.org/2000/svg" x="947" y="203">540</text><path d="M 937 161 L 942 161" stroke-width="2" /><path stroke-width="2" d="M 937 161 L 942 161"></path><text xmlns="http://www.w3.org/2000/svg" x="947" y="167">670</text><path stroke-width="2" d="M 937 126 L 942 126" /><path d="M 937 126 L 942 126" stroke-width="2"></path><text xmlns="http://www.w3.org/2000/svg" x="947" y="132">800</text><path d="M 937 87 L 942 87" stroke-width="2" /><path stroke-width="2" d="M 937 87 L 942 87"></path><text xmlns="http://www.w3.org/2000/svg" x="947" y="93">940</text><path stroke-width="2" d="M 937 51 L 942 51" /><path stroke-width="2" d="M 937 51 L 942 51"></path><text y="57" xmlns="http://www.w3.org/2000/svg" x="947">1070</text><path stroke-width="2" d="M 937 16 L 942 16" /><path stroke-width="2" d="M 937 16 L 942 16"></path><text xmlns="http://www.w3.org/2000/svg" x="947" y="22">1200</text><text xmlns="http://www.w3.org/2000/svg" x="987" y="175" transform="rotate(90.00,987,175)">Stargazers</text><path d="M 57.000000 346.000000 L 937 346" stroke-width="2" /><path stroke-width="2" d="M 57.000000 346.000000 L 937 346"></path><path d="M 58 346 L 58 351" stroke-width="2" /><path stroke-width="2" d="M 58 346 L 58 351"></path><text xmlns="http://www.w3.org/2000/svg" x="25" y="368">2023-04-02</text><path stroke-width="2" d="M 156 346 L 156 351" /><path stroke-width="2" d="M 156 346 L 156 351"></path><text x="123" y="368" xmlns="http://www.w3.org/2000/svg">2023-07-22</text><path stroke-width="2" d="M 254 346 L 254 351" /><path stroke-width="2" d="M 254 346 L 254 351"></path><text xmlns="http://www.w3.org/2000/svg" x="221" y="368">2023-11-10</text><path stroke-width="2" d="M 352 346 L 352 351" /><path stroke-width="2" d="M 352 346 L 352 351"></path><text xmlns="http://www.w3.org/2000/svg" x="319" y="368">2024-02-28</text><path stroke-width="2" d="M 449 346 L 449 351" /><path stroke-width="2" d="M 449 346 L 449 351"></path><text xmlns="http://www.w3.org/2000/svg" x="416" y="368">2024-06-18</text><path stroke-width="2" d="M 547 346 L 547 351" /><path stroke-width="2" d="M 547 346 L 547 351"></path><text xmlns="http://www.w3.org/2000/svg" x="514" y="368">2024-10-07</text><path stroke-width="2" d="M 645 346 L 645 351" /><path stroke-width="2" d="M 645 346 L 645 351"></path><text xmlns="http://www.w3.org/2000/svg" x="612" y="368">2025-01-26</text><path stroke-width="2" d="M 742 346 L 742 351" /><path stroke-width="2" d="M 742 346 L 742 351"></path><text xmlns="http://www.w3.org/2000/svg" x="709" y="368">2025-05-16</text><path stroke-width="2" d="M 840 346 L 840 351" /><path stroke-width="2" d="M 840 346 L 840 351"></path><text xmlns="http://www.w3.org/2000/svg" x="807" y="368">2025-09-04</text><path d="M 937 346 L 937 351" stroke-width="2" /><path stroke-width="2" d="M 937 346 L 937 351"></path><text x="904" y="368" xmlns="http://www.w3.org/2000/svg">2025-12-24</text><text xmlns="http://www.w3.org/2000/svg" x="483" y="390">Time</text></svg>