<svg xmlns="http://www.w3.org/2000/svg" xmlns:xlink="http://www.w3.org/1999/xlink" width="1024px" height="400px"><style type="text/css">
path { fill: none; stroke: rgb(51,51,51); }
path.series { stroke: #6b63ff; }
rect.background { fill: rgb(255,255,255); stroke: none; }

text {
	stroke-width: 0;
	stroke: none;
	fill: rgba(51,51,51,1.0);
	font-size: 12.8px;
	font-family: 'Roboto Medium', sans-serif;
}
</style><rect height="400px" class="background" rx="8" x="0" y="0" width="1024px" /><rect width="1024px" height="400px" class="background" rx="8" x="0" y="0"></rect><path stroke-width="2" class="series" d="M 58 345 L 61 345 L 80 344 L 80 344 L 80 343 L 80 343 L 80 342 L 80 342 L 80 341 L 80 341 L 81 340 L 81 340 L 81 339 L 81 339 L 81 338 L 81 338 L 81 337 L 81 337 L 81 337 L 82 336 L 83 336 L 83 335 L 84 335 L 85 334 L 85 334 L 85 333 L 86 333 L 87 332 L 89 332 L 89 331 L 90 331 L 92 330 L 98 330 L 98 329 L 98 329 L 98 329 L 98 328 L 98 328 L 101 327 L 103 327 L 104 326 L 106 326 L 111 325 L 113 325 L 121 324 L 124 324 L 128 323 L 132 323 L 134 322 L 152 322 L 153 321 L 153 321 L 155 321 L 155 320 L 155 320 L 155 319 L 155 319 L 155 318 L 155 318 L 156 317 L 156 317 L 156 316 L 156 316 L 156 315 L 156 315 L 156 314 L 156 314 L 156 313 L 156 313 L 156 313 L 156 312 L 156 312 L 156 311 L 156 311 L 156 310 L 156 310 L 156 309 L 156 309 L 156 308 L 156 308 L 156 307 L 156 307 L 157 306 L 157 306 L 157 305 L 157 305 L 157 304 L 157 304 L 157 304 L 157 303 L 157 303 L 157 302 L 157 302 L 157 301 L 157 301 L 157 300 L 157 300 L 157 299 L 157 299 L 157 298 L 157 298 L 158 297 L 158 297 L 158 296 L 158 296 L 158 296 L 159 295 L 159 295 L 159 294 L 159 294 L 159 293 L 159 293 L 159 292 L 159 292 L 159 291 L 159 291 L 159 290 L 159 290 L 159 289 L 160 289 L 160 288 L 160 288 L 160 288 L 160 287 L 161 287 L 161 286 L 161 286 L 161 285 L 166 285 L 166 284 L 166 284 L 167 283 L 167 283 L 170 282 L 173 282 L 174 281 L 176 281 L 177 280 L 179 280 L 180 280 L 180 279 L 183 279 L 183 278 L 184 278 L 185 277 L 186 277 L 187 276 L 187 276 L 187 275 L 188 275 L 189 274 L 190 274 L 190 273 L 191 273 L 192 272 L 192 272 L 193 271 L 195 271 L 196 271 L 199 270 L 200 270 L 201 269 L 202 269 L 202 268 L 202 268 L 204 267 L 211 267 L 212 266 L 213 266 L 220 265 L 220 265 L 220 264 L 220 264 L 220 263 L 221 263 L 224 263 L 225 262 L 225 262 L 234 261 L 235 261 L 237 260 L 240 260 L 242 259 L 242 259 L 243 258 L 249 258 L 256 257 L 263 257 L 264 256 L 264 256 L 264 255 L 264 255 L 266 255 L 276 254 L 281 254 L 281 253 L 285 253 L 286 252 L 287 252 L 298 251 L 298 251 L 299 250 L 299 250 L 301 249 L 304 249 L 305 248 L 307 248 L 309 247 L 311 247 L 318 247 L 318 246 L 319 246 L 319 245 L 319 245 L 320 244 L 323 244 L 330 243 L 343 243 L 349 242 L 352 242 L 352 241 L 354 241 L 355 240 L 355 240 L 355 239 L 355 239 L 355 238 L 355 238 L 355 238 L 355 237 L 356 237 L 356 236 L 356 236 L 356 235 L 356 235 L 356 234 L 357 234 L 359 233 L 359 233 L 359 232 L 360 232 L 360 231 L 361 231 L 361 230 L 361 230 L 361 230 L 361 229 L 362 229 L 362 228 L 363 228 L 363 227 L 364 227 L 364 226 L 364 226 L 364 225 L 364 225 L 366 224 L 366 224 L 366 223 L 366 223 L 367 222 L 367 222 L 368 222 L 369 221 L 370 221 L 371 220 L 372 220 L 375 219 L 375 219 L 376 218 L 376 218 L 376 217 L 376 217 L 376 216 L 378 216 L 379 215 L 381 215 L 381 214 L 382 214 L 384 214 L 386 213 L 386 213 L 389 212 L 390 212 L 390 211 L 391 211 L 391 210 L 396 210 L 397 209 L 398 209 L 402 208 L 404 208 L 408 207 L 409 207 L 410 206 L 411 206 L 411 205 L 411 205 L 414 205 L 417 204 L 419 204 L 419 203 L 421 203 L 422 202 L 422 202 L 422 201 L 422 201 L 423 200 L 423 200 L 423 199 L 425 199 L 425 198 L 425 198 L 426 197 L 431 197 L 437 197 L 437 196 L 437 196 L 441 195 L 443 195 L 444 194 L 445 194 L 446 193 L 447 193 L 447 192 L 447 192 L 447 191 L 447 191 L 448 190 L 448 190 L 449 189 L 449 189 L 449 189 L 452 188 L 452 188 L 452 187 L 452 187 L 453 186 L 453 186 L 453 185 L 453 185 L 453 184 L 453 184 L 453 183 L 453 183 L 454 182 L 458 182 L 461 181 L 461 181 L 462 181 L 475 180 L 476 180 L 480 179 L 483 179 L 490 178 L 493 178 L 495 177 L 495 177 L 495 176 L 496 176 L 496 175 L 496 175 L 496 174 L 496 174 L 498 173 L 499 173 L 508 172 L 511 172 L 514 172 L 521 171 L 527 171 L 531 170 L 534 170 L 539 169 L 539 169 L 550 168 L 561 168 L 561 167 L 569 167 L 569 166 L 575 166 L 576 165 L 579 165 L 579 164 L 580 164 L 580 164 L 584 163 L 585 163 L 588 162 L 593 162 L 593 161 L 595 161 L 595 160 L 599 160 L 603 159 L 604 159 L 608 158 L 613 158 L 614 157 L 614 157 L 616 156 L 617 156 L 618 156 L 622 155 L 625 155 L 628 154 L 631 154 L 631 153 L 637 153 L 638 152 L 641 152 L 646 151 L 646 151 L 652 150 L 653 150 L 653 149 L 655 149 L 655 148 L 658 148 L 658 148 L 661 147 L 664 147 L 665 146 L 665 146 L 666 145 L 675 145 L 675 144 L 676 144 L 676 143 L 676 143 L 677 142 L 677 142 L 678 141 L 679 141 L 681 140 L 681 140 L 683 139 L 683 139 L 684 139 L 685 138 L 686 138 L 686 137 L 687 137 L 687 136 L 687 136 L 688 135 L 688 135 L 688 134 L 689 134 L 690 133 L 691 133 L 691 132 L 692 132 L 693 131 L 693 131 L 695 131 L 696 130 L 696 130 L 697 129 L 699 129 L 700 128 L 701 128 L 701 127 L 702 127 L 704 126 L 704 126 L 704 125 L 705 125 L 705 124 L 705 124 L 705 123 L 706 123 L 706 123 L 708 122 L 711 122 L 713 121 L 714 121 L 714 120 L 717 120 L 719 119 L 720 119 L 722 118 L 725 118 L 728 117 L 731 117 L 732 116 L 732 116 L 732 115 L 732 115 L 733 115 L 733 114 L 734 114 L 735 113 L 735 113 L 735 112 L 735 112 L 737 111 L 738 111 L 738 110 L 739 110 L 740 109 L 743 109 L 743 108 L 743 108 L 744 107 L 746 107 L 748 106 L 751 106 L 756 106 L 756 105 L 756 105 L 757 104 L 759 104 L 762 103 L 762 103 L 762 102 L 762 102 L 763 101 L 765 101 L 769 100 L 770 100 L 770 99 L 770 99 L 772 98 L 773 98 L 773 98 L 773 97 L 773 97 L 776 96 L 780 96 L 781 95 L 785 95 L 786 94 L 787 94 L 791 93 L 792 93 L 795 92 L 797 92 L 799 91 L 801 91 L 801 90 L 801 90 L 802 90 L 802 89 L 802 89 L 803 88 L 803 88 L 804 87 L 805 87 L 805 86 L 805 86 L 806 85 L 807 85 L 808 84 L 814 84 L 814 83 L 820 83 L 823 82 L 823 82 L 824 82 L 825 81 L 828 81 L 829 80 L 829 80 L 829 79 L 830 79 L 830 78 L 830 78 L 831 77 L 831 77 L 832 76 L 832 76 L 832 75 L 832 75 L 832 74 L 833 74 L 834 73 L 834 73 L 835 73 L 835 72 L 836 72 L 837 71 L 838 71 L 838 70 L 838 70 L 839 69 L 841 69 L 844 68 L 844 68 L 844 67 L 844 67 L 844 66 L 846 66 L 846 65 L 846 65 L 847 65 L 850 64 L 853 64 L 857 63 L 858 63 L 860 62 L 864 62 L 868 61 L 869 61 L 872 60 L 877 60 L 877 59 L 877 59 L 883 58 L 885 58 L 886 57 L 886 57 L 886 57 L 897 56 L 897 56 L 898 55 L 898 55 L 899 54 L 900 54 L 901 53 L 902 53 L 902 52 L 903 52 L 903 51 L 904 51 L 904 50 L 905 50 L 905 49 L 905 49 L 905 49 L 905 48 L 905 48 L 907 47 L 908 47 L 909 46 L 910 46 L 910 45 L 911 45 L 911 44 L 912 44 L 913 43 L 914 43 L 914 42 L 915 42 L 915 41 L 916 41 L 916 40 L 918 40 L 918 40 L 920 39 L 920 39 L 921 38 L 922 38 L 922 37 L 923 37 L 923 36 L 923 36 L 924 35 L 924 35 L 925 34 L 926 34 L 926 33 L 928 33 L 928 32 L 929 32 L 929 32 L 929 31 L 929 31 L 930 30 L 930 30 L 930 29 L 932 29 L 932 28 L 932 28 L 933 27 L 934 27 L 934 26 L 934 26 L 934 25 L 934 25 L 935 24 L 935 24 L 935 24 L 935 23 L 935 23 L 938 22 L 939 22 L 942 21 L 942 21 L 942 20 L 942 20 L 944 19 L 945 19" /><path class="series" d="M 58 345 L 61 345 L 80 344 L 80 344 L 80 343 L 80 343 L 80 342 L 80 342 L 80 341 L 80 341 L 81 340 L 81 340 L 81 339 L 81 339 L 81 338 L 81 338 L 81 337 L 81 337 L 81 337 L 82 336 L 83 336 L 83 335 L 84 335 L 85 334 L 85 334 L 85 333 L 86 333 L 87 332 L 89 332 L 89 331 L 90 331 L 92 330 L 98 330 L 98 329 L 98 329 L 98 329 L 98 328 L 98 328 L 101 327 L 103 327 L 104 326 L 106 326 L 111 325 L 113 325 L 121 324 L 124 324 L 128 323 L 132 323 L 134 322 L 152 322 L 153 321 L 153 321 L 155 321 L 155 320 L 155 320 L 155 319 L 155 319 L 155 318 L 155 318 L 156 317 L 156 317 L 156 316 L 156 316 L 156 315 L 156 315 L 156 314 L 156 314 L 156 313 L 156 313 L 156 313 L 156 312 L 156 312 L 156 311 L 156 311 L 156 310 L 156 310 L 156 309 L 156 309 L 156 308 L 156 308 L 156 307 L 156 307 L 157 306 L 157 306 L 157 305 L 157 305 L 157 304 L 157 304 L 157 304 L 157 303 L 157 303 L 157 302 L 157 302 L 157 301 L 157 301 L 157 300 L 157 300 L 157 299 L 157 299 L 157 298 L 157 298 L 158 297 L 158 297 L 158 296 L 158 296 L 158 296 L 159 295 L 159 295 L 159 294 L 159 294 L 159 293 L 159 293 L 159 292 L 159 292 L 159 291 L 159 291 L 159 290 L 159 290 L 159 289 L 160 289 L 160 288 L 160 288 L 160 288 L 160 287 L 161 287 L 161 286 L 161 286 L 161 285 L 166 285 L 166 284 L 166 284 L 167 283 L 167 283 L 170 282 L 173 282 L 174 281 L 176 281 L 177 280 L 179 280 L 180 280 L 180 279 L 183 279 L 183 278 L 184 278 L 185 277 L 186 277 L 187 276 L 187 276 L 187 275 L 188 275 L 189 274 L 190 274 L 190 273 L 191 273 L 192 272 L 192 272 L 193 271 L 195 271 L 196 271 L 199 270 L 200 270 L 201 269 L 202 269 L 202 268 L 202 268 L 204 267 L 211 267 L 212 266 L 213 266 L 220 265 L 220 265 L 220 264 L 220 264 L 220 263 L 221 263 L 224 263 L 225 262 L 225 262 L 234 261 L 235 261 L 237 260 L 240 260 L 242 259 L 242 259 L 243 258 L 249 258 L 256 257 L 263 257 L 264 256 L 264 256 L 264 255 L 264 255 L 266 255 L 276 254 L 281 254 L 281 253 L 285 253 L 286 252 L 287 252 L 298 251 L 298 251 L 299 250 L 299 250 L 301 249 L 304 249 L 305 248 L 307 248 L 309 247 L 311 247 L 318 247 L 318 246 L 319 246 L 319 245 L 319 245 L 320 244 L 323 244 L 330 243 L 343 243 L 349 242 L 352 242 L 352 241 L 354 241 L 355 240 L 355 240 L 355 239 L 355 239 L 355 238 L 355 238 L 355 238 L 355 237 L 356 237 L 356 236 L 356 236 L 356 235 L 356 235 L 356 234 L 357 234 L 359 233 L 359 233 L 359 232 L 360 232 L 360 231 L 361 231 L 361 230 L 361 230 L 361 230 L 361 229 L 362 229 L 362 228 L 363 228 L 363 227 L 364 227 L 364 226 L 364 226 L 364 225 L 364 225 L 366 224 L 366 224 L 366 223 L 366 223 L 367 222 L 367 222 L 368 222 L 369 221 L 370 221 L 371 220 L 372 220 L 375 219 L 375 219 L 376 218 L 376 218 L 376 217 L 376 217 L 376 216 L 378 216 L 379 215 L 381 215 L 381 214 L 382 214 L 384 214 L 386 213 L 386 213 L 389 212 L 390 212 L 390 211 L 391 211 L 391 210 L 396 210 L 397 209 L 398 209 L 402 208 L 404 208 L 408 207 L 409 207 L 410 206 L 411 206 L 411 205 L 411 205 L 414 205 L 417 204 L 419 204 L 419 203 L 421 203 L 422 202 L 422 202 L 422 201 L 422 201 L 423 200 L 423 200 L 423 199 L 425 199 L 425 198 L 425 198 L 426 197 L 431 197 L 437 197 L 437 196 L 437 196 L 441 195 L 443 195 L 444 194 L 445 194 L 446 193 L 447 193 L 447 192 L 447 192 L 447 191 L 447 191 L 448 190 L 448 190 L 449 189 L 449 189 L 449 189 L 452 188 L 452 188 L 452 187 L 452 187 L 453 186 L 453 186 L 453 185 L 453 185 L 453 184 L 453 184 L 453 183 L 453 183 L 454 182 L 458 182 L 461 181 L 461 181 L 462 181 L 475 180 L 476 180 L 480 179 L 483 179 L 490 178 L 493 178 L 495 177 L 495 177 L 495 176 L 496 176 L 496 175 L 496 175 L 496 174 L 496 174 L 498 173 L 499 173 L 508 172 L 511 172 L 514 172 L 521 171 L 527 171 L 531 170 L 534 170 L 539 169 L 539 169 L 550 168 L 561 168 L 561 167 L 569 167 L 569 166 L 575 166 L 576 165 L 579 165 L 579 164 L 580 164 L 580 164 L 584 163 L 585 163 L 588 162 L 593 162 L 593 161 L 595 161 L 595 160 L 599 160 L 603 159 L 604 159 L 608 158 L 613 158 L 614 157 L 614 157 L 616 156 L 617 156 L 618 156 L 622 155 L 625 155 L 628 154 L 631 154 L 631 153 L 637 153 L 638 152 L 641 152 L 646 151 L 646 151 L 652 150 L 653 150 L 653 149 L 655 149 L 655 148 L 658 148 L 658 148 L 661 147 L 664 147 L 665 146 L 665 146 L 666 145 L 675 145 L 675 144 L 676 144 L 676 143 L 676 143 L 677 142 L 677 142 L 678 141 L 679 141 L 681 140 L 681 140 L 683 139 L 683 139 L 684 139 L 685 138 L 686 138 L 686 137 L 687 137 L 687 136 L 687 136 L 688 135 L 688 135 L 688 134 L 689 134 L 690 133 L 691 133 L 691 132 L 692 132 L 693 131 L 693 131 L 695 131 L 696 130 L 696 130 L 697 129 L 699 129 L 700 128 L 701 128 L 701 127 L 702 127 L 704 126 L 704 126 L 704 125 L 705 125 L 705 124 L 705 124 L 705 123 L 706 123 L 706 123 L 708 122 L 711 122 L 713 121 L 714 121 L 714 120 L 717 120 L 719 119 L 720 119 L 722 118 L 725 118 L 728 117 L 731 117 L 732 116 L 732 116 L 732 115 L 732 115 L 733 115 L 733 114 L 734 114 L 735 113 L 735 113 L 735 112 L 735 112 L 737 111 L 738 111 L 738 110 L 739 110 L 740 109 L 743 109 L 743 108 L 743 108 L 744 107 L 746 107 L 748 106 L 751 106 L 756 106 L 756 105 L 756 105 L 757 104 L 759 104 L 762 103 L 762 103 L 762 102 L 762 102 L 763 101 L 765 101 L 769 100 L 770 100 L 770 99 L 770 99 L 772 98 L 773 98 L 773 98 L 773 97 L 773 97 L 776 96 L 780 96 L 781 95 L 785 95 L 786 94 L 787 94 L 791 93 L 792 93 L 795 92 L 797 92 L 799 91 L 801 91 L 801 90 L 801 90 L 802 90 L 802 89 L 802 89 L 803 88 L 803 88 L 804 87 L 805 87 L 805 86 L 805 86 L 806 85 L 807 85 L 808 84 L 814 84 L 814 83 L 820 83 L 823 82 L 823 82 L 824 82 L 825 81 L 828 81 L 829 80 L 829 80 L 829 79 L 830 79 L 830 78 L 830 78 L 831 77 L 831 77 L 832 76 L 832 76 L 832 75 L 832 75 L 832 74 L 833 74 L 834 73 L 834 73 L 835 73 L 835 72 L 836 72 L 837 71 L 838 71 L 838 70 L 838 70 L 839 69 L 841 69 L 844 68 L 844 68 L 844 67 L 844 67 L 844 66 L 846 66 L 846 65 L 846 65 L 847 65 L 850 64 L 853 64 L 857 63 L 858 63 L 860 62 L 864 62 L 868 61 L 869 61 L 872 60 L 877 60 L 877 59 L 877 59 L 883 58 L 885 58 L 886 57 L 886 57 L 886 57 L 897 56 L 897 56 L 898 55 L 898 55 L 899 54 L 900 54 L 901 53 L 902 53 L 902 52 L 903 52 L 903 51 L 904 51 L 904 50 L 905 50 L 905 49 L 905 49 L 905 49 L 905 48 L 905 48 L 907 47 L 908 47 L 909 46 L 910 46 L 910 45 L 911 45 L 911 44 L 912 44 L 913 43 L 914 43 L 914 42 L 915 42 L 915 41 L 916 41 L 916 40 L 918 40 L 918 40 L 920 39 L 920 39 L 921 38 L 922 38 L 922 37 L 923 37 L 923 36 L 923 36 L 924 35 L 924 35 L 925 34 L 926 34 L 926 33 L 928 33 L 928 32 L 929 32 L 929 32 L 929 31 L 929 31 L 930 30 L 930 30 L 930 29 L 932 29 L 932 28 L 932 28 L 933 27 L 934 27 L 934 26 L 934 26 L 934 25 L 934 25 L 935 24 L 935 24 L 935 24 L 935 23 L 935 23 L 938 22 L 939 22 L 942 21 L 942 21 L 942 20 L 942 20 L 944 19 L 945 19" stroke-width="2"></path><path stroke-width="2" d="M 945 346 L 945.000000 15.000000" /><path stroke-width="2" d="M 945 346 L 945.000000 15.000000"></path><path stroke-width="2" d="M 945 346 L 950 346" /><path stroke-width="2" d="M 945 346 L 950 346"></path><text xmlns="http://www.w3.org/2000/svg" x="955" y="352">0</text><path stroke-width="2" d="M 945 309 L 950 309" /><path stroke-width="2" d="M 945 309 L 950 309"></path><text xmlns="http://www.w3.org/2000/svg" x="955" y="315">78</text><path stroke-width="2" d="M 945 272 L 950 272" /><path d="M 945 272 L 950 272" stroke-width="2"></path><text xmlns="http://www.w3.org/2000/svg" x="955" y="278">156</text><path d="M 945 235 L 950 235" stroke-width="2" /><path stroke-width="2" d="M 945 235 L 950 235"></path><text y="241" xmlns="http://www.w3.org/2000/svg" x="955">234</text><path stroke-width="2" d="M 945 198 L 950 198" /><path stroke-width="2" d="M 945 198 L 950 198"></path><text xmlns="http://www.w3.org/2000/svg" x="955" y="204">312</text><path stroke-width="2" d="M 945 162 L 950 162" /><path stroke-width="2" d="M 945 162 L 950 162"></path><text xmlns="http://www.w3.org/2000/svg" x="955" y="168">389</text><path stroke-width="2" d="M 945 125 L 950 125" /><path stroke-width="2" d="M 945 125 L 950 125"></path><text xmlns="http://www.w3.org/2000/svg" x="955" y="131">467</text><path stroke-width="2" d="M 945 89 L 950 89" /><path stroke-width="2" d="M 945 89 L 950 89"></path><text y="95" xmlns="http://www.w3.org/2000/svg" x="955">545</text><path d="M 945 52 L 950 52" stroke-width="2" /><path stroke-width="2" d="M 945 52 L 950 52"></path><text xmlns="http://www.w3.org/2000/svg" x="955" y="58">623</text><path stroke-width="2" d="M 945 16 L 950 16" /><path stroke-width="2" d="M 945 16 L 950 16"></path><text xmlns="http://www.w3.org/2000/svg" x="955" y="22">700</text><text xmlns="http://www.w3.org/2000/svg" x="987" y="175" transform="rotate(90.00,987,175)">Stargazers</text><path stroke-width="2" d="M 57.000000 346.000000 L 945 346" /><path stroke-width="2" d="M 57.000000 346.000000 L 945 346"></path><path stroke-width="2" d="M 58 346 L 58 351" /><path stroke-width="2" d="M 58 346 L 58 351"></path><text xmlns="http://www.w3.org/2000/svg" x="25" y="368">2023-04-02</text><path stroke-width="2" d="M 157 346 L 157 351" /><path stroke-width="2" d="M 157 346 L 157 351"></path><text xmlns="http://www.w3.org/2000/svg" x="124" y="368">2023-06-06</text><path stroke-width="2" d="M 256 346 L 256 351" /><path d="M 256 346 L 256 351" stroke-width="2"></path><text xmlns="http://www.w3.org/2000/svg" x="223" y="368">2023-08-10</text><path stroke-width="2" d="M 354 346 L 354 351" /><path d="M 354 346 L 354 351" stroke-width="2"></path><text xmlns="http://www.w3.org/2000/svg" x="321" y="368">2023-10-14</text><path d="M 453 346 L 453 351" stroke-width="2" /><path stroke-width="2" d="M 453 346 L 453 351"></path><text xmlns="http://www.w3.org/2000/svg" x="420" y="368">2023-12-18</text><path stroke-width="2" d="M 551 346 L 551 351" /><path stroke-width="2" d="M 551 346 L 551 351"></path><text xmlns="http://www.w3.org/2000/svg" x="518" y="368">2024-02-21</text><path stroke-width="2" d="M 650 346 L 650 351" /><path stroke-width="2" d="M 650 346 L 650 351"></path><text x="617" y="368" xmlns="http://www.w3.org/2000/svg">2024-04-27</text><path stroke-width="2" d="M 748 346 L 748 351" /><path stroke-width="2" d="M 748 346 L 748 351"></path><text xmlns="http://www.w3.org/2000/svg" x="715" y="368">2024-07-01</text><path stroke-width="2" d="M 847 346 L 847 351" /><path stroke-width="2" d="M 847 346 L 847 351"></path><text xmlns="http://www.w3.org/2000/svg" x="814" y="368">2024-09-04</text><path stroke-width="2" d="M 945 346 L 945 351" /><path stroke-width="2" d="M 945 346 L 945 351"></path><text xmlns="http://www.w3.org/2000/svg" x="912" y="368">2024-11-08</text><text xmlns="http://www.w3.org/2000/svg" x="487" y="390">Time</text></svg>