<svg xmlns="http://www.w3.org/2000/svg" xmlns:xlink="http://www.w3.org/1999/xlink" width="1024px" height="400px"><style type="text/css">
path { fill: none; stroke: rgb(51,51,51); }
path.series { stroke: #6b63ff; }
rect.background { fill: rgb(255,255,255); stroke: none; }

text {
	stroke-width: 0;
	stroke: none;
	fill: rgba(51,51,51,1.0);
	font-size: 12.8px;
	font-family: 'Roboto Medium', sans-serif;
}
</style><rect y="0" width="1024px" height="400px" class="background" rx="8" x="0" /><rect y="0" width="1024px" height="400px" class="background" rx="8" x="0"></rect><path stroke-width="2" class="series" d="M 58 345 L 63 344 L 94 343 L 95 342 L 95 341 L 95 340 L 95 340 L 95 339 L 96 338 L 96 337 L 96 336 L 96 335 L 96 335 L 96 334 L 97 333 L 97 332 L 97 331 L 97 330 L 98 329 L 98 329 L 99 328 L 100 327 L 100 326 L 103 325 L 104 324 L 104 324 L 104 323 L 105 322 L 107 321 L 111 320 L 111 319 L 113 318 L 115 318 L 125 317 L 126 316 L 126 315 L 126 314 L 126 313 L 126 313 L 126 312 L 132 311 L 134 310 L 136 309 L 141 308 L 148 307 L 152 307 L 165 306 L 170 305 L 177 304 L 185 303 L 189 302 L 218 302 L 220 301 L 220 300 L 224 299 L 225 298 L 225 297 L 225 296 L 225 296 L 225 295 L 225 294 L 225 293 L 225 292 L 225 291 L 225 291 L 225 290 L 226 289 L 226 288 L 226 287 L 226 286 L 226 285 L 226 285 L 226 284 L 226 283 L 226 282 L 226 281 L 226 280 L 226 280 L 226 279 L 226 278 L 226 277 L 226 276 L 226 275 L 226 274 L 227 274 L 227 273 L 227 272 L 227 271 L 227 270 L 227 269 L 227 269 L 227 268 L 227 267 L 227 266 L 227 265 L 227 264 L 227 263 L 227 263 L 227 262 L 227 261 L 228 260 L 228 259 L 228 258 L 229 258 L 229 257 L 229 256 L 229 255 L 230 254 L 231 253 L 231 252 L 231 252 L 231 251 L 231 250 L 231 249 L 231 248 L 231 247 L 231 247 L 231 246 L 231 245 L 231 244 L 232 243 L 232 242 L 232 241 L 232 241 L 232 240 L 233 239 L 235 238 L 235 237 L 235 236 L 235 236 L 242 235 L 242 234 L 243 233 L 245 232 L 245 231 L 250 230 L 255 230 L 256 229 L 260 228 L 262 227 L 265 226 L 266 225 L 267 225 L 271 224 L 272 223 L 273 222 L 276 221 L 277 220 L 279 219 L 279 219 L 279 218 L 280 217 L 282 216 L 285 215 L 285 214 L 286 214 L 287 213 L 287 212 L 288 211 L 292 210 L 294 209 L 299 208 L 300 208 L 302 207 L 304 206 L 304 205 L 304 204 L 308 203 L 320 203 L 321 202 L 323 201 L 335 200 L 335 199 L 335 198 L 335 197 L 336 197 L 338 196 L 341 195 L 344 194 L 344 193 L 359 192 L 361 192 L 365 191 L 369 190 L 372 189 L 372 188 L 374 187 L 385 186 L 396 186 L 409 185 L 410 184 L 410 183 L 411 182 L 411 181 L 414 181 L 432 180 L 440 179 L 440 178 L 447 177 L 448 176 L 449 175 L 468 175 L 468 174 L 470 173 L 471 172 L 473 171 L 478 170 L 481 170 L 485 169 L 487 168 L 491 167 L 502 166 L 503 165 L 505 164 L 505 164 L 505 163 L 506 162 L 512 161 L 512 160 L 523 159 L 539 159 L 547 158 L 556 157 L 556 156 L 561 155 L 561 154 L 564 153 L 567 153 L 567 152 L 567 151 L 567 150 L 567 149 L 567 148 L 567 148 L 567 147 L 567 146 L 568 145 L 568 144 L 568 143 L 568 142 L 569 142 L 569 141 L 571 140 L 573 139 L 574 138 L 574 137 L 574 137 L 574 136 L 577 135 L 577 134 L 577 133 L 577 132 L 577 131 L 578 131 L 578 130 L 580 129 L 581 128 L 582 127 L 582 126 L 582 126 L 583 125 L 583 124 L 585 123 L 585 122 L 585 121 L 585 120 L 587 120 L 587 119 L 588 118 L 590 117 L 592 116 L 593 115 L 596 115 L 601 114 L 601 113 L 602 112 L 603 111 L 603 110 L 603 109 L 603 109 L 607 108 L 608 107 L 611 106 L 611 105 L 613 104 L 616 104 L 619 103 L 620 102 L 625 101 L 626 100 L 626 99 L 628 98 L 628 98 L 637 97 L 639 96 L 640 95 L 647 94 L 650 93 L 658 92 L 659 92 L 660 91 L 662 90 L 663 89 L 663 88 L 668 87 L 673 87 L 676 86 L 676 85 L 679 84 L 681 83 L 681 82 L 681 82 L 682 81 L 683 80 L 683 79 L 684 78 L 686 77 L 686 76 L 686 76 L 688 75 L 697 74 L 707 73 L 707 72 L 707 71 L 714 71 L 718 70 L 719 69 L 720 68 L 722 67 L 725 66 L 725 65 L 725 65 L 725 64 L 725 63 L 726 62 L 726 61 L 727 60 L 727 60 L 728 59 L 733 58 L 733 57 L 733 56 L 734 55 L 734 54 L 735 54 L 735 53 L 735 52 L 735 51 L 735 50 L 735 49 L 735 49 L 735 48 L 738 47 L 743 46 L 748 45 L 748 44 L 750 43 L 760 43 L 771 42 L 774 41 L 780 40 L 785 39 L 798 38 L 802 38 L 807 37 L 807 36 L 807 35 L 807 34 L 808 33 L 808 32 L 808 32 L 808 31 L 811 30 L 813 29 L 829 28 L 833 27 L 839 27 L 852 26 L 861 25 L 868 24 L 873 23 L 882 22 L 882 21 L 901 21 L 919 20 L 919 19 L 932 18 L 933 17 L 944 16 L 945 16" /><path stroke-width="2" class="series" d="M 58 345 L 63 344 L 94 343 L 95 342 L 95 341 L 95 340 L 95 340 L 95 339 L 96 338 L 96 337 L 96 336 L 96 335 L 96 335 L 96 334 L 97 333 L 97 332 L 97 331 L 97 330 L 98 329 L 98 329 L 99 328 L 100 327 L 100 326 L 103 325 L 104 324 L 104 324 L 104 323 L 105 322 L 107 321 L 111 320 L 111 319 L 113 318 L 115 318 L 125 317 L 126 316 L 126 315 L 126 314 L 126 313 L 126 313 L 126 312 L 132 311 L 134 310 L 136 309 L 141 308 L 148 307 L 152 307 L 165 306 L 170 305 L 177 304 L 185 303 L 189 302 L 218 302 L 220 301 L 220 300 L 224 299 L 225 298 L 225 297 L 225 296 L 225 296 L 225 295 L 225 294 L 225 293 L 225 292 L 225 291 L 225 291 L 225 290 L 226 289 L 226 288 L 226 287 L 226 286 L 226 285 L 226 285 L 226 284 L 226 283 L 226 282 L 226 281 L 226 280 L 226 280 L 226 279 L 226 278 L 226 277 L 226 276 L 226 275 L 226 274 L 227 274 L 227 273 L 227 272 L 227 271 L 227 270 L 227 269 L 227 269 L 227 268 L 227 267 L 227 266 L 227 265 L 227 264 L 227 263 L 227 263 L 227 262 L 227 261 L 228 260 L 228 259 L 228 258 L 229 258 L 229 257 L 229 256 L 229 255 L 230 254 L 231 253 L 231 252 L 231 252 L 231 251 L 231 250 L 231 249 L 231 248 L 231 247 L 231 247 L 231 246 L 231 245 L 231 244 L 232 243 L 232 242 L 232 241 L 232 241 L 232 240 L 233 239 L 235 238 L 235 237 L 235 236 L 235 236 L 242 235 L 242 234 L 243 233 L 245 232 L 245 231 L 250 230 L 255 230 L 256 229 L 260 228 L 262 227 L 265 226 L 266 225 L 267 225 L 271 224 L 272 223 L 273 222 L 276 221 L 277 220 L 279 219 L 279 219 L 279 218 L 280 217 L 282 216 L 285 215 L 285 214 L 286 214 L 287 213 L 287 212 L 288 211 L 292 210 L 294 209 L 299 208 L 300 208 L 302 207 L 304 206 L 304 205 L 304 204 L 308 203 L 320 203 L 321 202 L 323 201 L 335 200 L 335 199 L 335 198 L 335 197 L 336 197 L 338 196 L 341 195 L 344 194 L 344 193 L 359 192 L 361 192 L 365 191 L 369 190 L 372 189 L 372 188 L 374 187 L 385 186 L 396 186 L 409 185 L 410 184 L 410 183 L 411 182 L 411 181 L 414 181 L 432 180 L 440 179 L 440 178 L 447 177 L 448 176 L 449 175 L 468 175 L 468 174 L 470 173 L 471 172 L 473 171 L 478 170 L 481 170 L 485 169 L 487 168 L 491 167 L 502 166 L 503 165 L 505 164 L 505 164 L 505 163 L 506 162 L 512 161 L 512 160 L 523 159 L 539 159 L 547 158 L 556 157 L 556 156 L 561 155 L 561 154 L 564 153 L 567 153 L 567 152 L 567 151 L 567 150 L 567 149 L 567 148 L 567 148 L 567 147 L 567 146 L 568 145 L 568 144 L 568 143 L 568 142 L 569 142 L 569 141 L 571 140 L 573 139 L 574 138 L 574 137 L 574 137 L 574 136 L 577 135 L 577 134 L 577 133 L 577 132 L 577 131 L 578 131 L 578 130 L 580 129 L 581 128 L 582 127 L 582 126 L 582 126 L 583 125 L 583 124 L 585 123 L 585 122 L 585 121 L 585 120 L 587 120 L 587 119 L 588 118 L 590 117 L 592 116 L 593 115 L 596 115 L 601 114 L 601 113 L 602 112 L 603 111 L 603 110 L 603 109 L 603 109 L 607 108 L 608 107 L 611 106 L 611 105 L 613 104 L 616 104 L 619 103 L 620 102 L 625 101 L 626 100 L 626 99 L 628 98 L 628 98 L 637 97 L 639 96 L 640 95 L 647 94 L 650 93 L 658 92 L 659 92 L 660 91 L 662 90 L 663 89 L 663 88 L 668 87 L 673 87 L 676 86 L 676 85 L 679 84 L 681 83 L 681 82 L 681 82 L 682 81 L 683 80 L 683 79 L 684 78 L 686 77 L 686 76 L 686 76 L 688 75 L 697 74 L 707 73 L 707 72 L 707 71 L 714 71 L 718 70 L 719 69 L 720 68 L 722 67 L 725 66 L 725 65 L 725 65 L 725 64 L 725 63 L 726 62 L 726 61 L 727 60 L 727 60 L 728 59 L 733 58 L 733 57 L 733 56 L 734 55 L 734 54 L 735 54 L 735 53 L 735 52 L 735 51 L 735 50 L 735 49 L 735 49 L 735 48 L 738 47 L 743 46 L 748 45 L 748 44 L 750 43 L 760 43 L 771 42 L 774 41 L 780 40 L 785 39 L 798 38 L 802 38 L 807 37 L 807 36 L 807 35 L 807 34 L 808 33 L 808 32 L 808 32 L 808 31 L 811 30 L 813 29 L 829 28 L 833 27 L 839 27 L 852 26 L 861 25 L 868 24 L 873 23 L 882 22 L 882 21 L 901 21 L 919 20 L 919 19 L 932 18 L 933 17 L 944 16 L 945 16"></path><path stroke-width="2" d="M 945 346 L 945.000000 15.000000" /><path stroke-width="2" d="M 945 346 L 945.000000 15.000000"></path><path stroke-width="2" d="M 945 346 L 950 346" /><path stroke-width="2" d="M 945 346 L 950 346"></path><text xmlns="http://www.w3.org/2000/svg" x="955" y="352">0</text><path stroke-width="2" d="M 945 308 L 950 308" /><path stroke-width="2" d="M 945 308 L 950 308"></path><text xmlns="http://www.w3.org/2000/svg" x="955" y="314">44</text><path stroke-width="2" d="M 945 272 L 950 272" /><path stroke-width="2" d="M 945 272 L 950 272"></path><text xmlns="http://www.w3.org/2000/svg" x="955" y="278">87</text><path stroke-width="2" d="M 945 236 L 950 236" /><path d="M 945 236 L 950 236" stroke-width="2"></path><text xmlns="http://www.w3.org/2000/svg" x="955" y="242">130</text><path stroke-width="2" d="M 945 198 L 950 198" /><path stroke-width="2" d="M 945 198 L 950 198"></path><text xmlns="http://www.w3.org/2000/svg" x="955" y="204">174</text><path stroke-width="2" d="M 945 162 L 950 162" /><path stroke-width="2" d="M 945 162 L 950 162"></path><text xmlns="http://www.w3.org/2000/svg" x="955" y="168">217</text><path stroke-width="2" d="M 945 126 L 950 126" /><path stroke-width="2" d="M 945 126 L 950 126"></path><text y="132" xmlns="http://www.w3.org/2000/svg" x="955">260</text><path stroke-width="2" d="M 945 88 L 950 88" /><path stroke-width="2" d="M 945 88 L 950 88"></path><text xmlns="http://www.w3.org/2000/svg" x="955" y="94">304</text><path stroke-width="2" d="M 945 52 L 950 52" /><path stroke-width="2" d="M 945 52 L 950 52"></path><text xmlns="http://www.w3.org/2000/svg" x="955" y="58">347</text><path stroke-width="2" d="M 945 16 L 950 16" /><path stroke-width="2" d="M 945 16 L 950 16"></path><text y="22" xmlns="http://www.w3.org/2000/svg" x="955">390</text><text xmlns="http://www.w3.org/2000/svg" x="987" y="175" transform="rotate(90.00,987,175)">Stargazers</text><path stroke-width="2" d="M 57.000000 346.000000 L 945 346" /><path stroke-width="2" d="M 57.000000 346.000000 L 945 346"></path><path stroke-width="2" d="M 58 346 L 58 351" /><path stroke-width="2" d="M 58 346 L 58 351"></path><text xmlns="http://www.w3.org/2000/svg" x="25" y="368">2023-04-02</text><path stroke-width="2" d="M 157 346 L 157 351" /><path stroke-width="2" d="M 157 346 L 157 351"></path><text x="124" y="368" xmlns="http://www.w3.org/2000/svg">2023-05-10</text><path d="M 256 346 L 256 351" stroke-width="2" /><path stroke-width="2" d="M 256 346 L 256 351"></path><text x="223" y="368" xmlns="http://www.w3.org/2000/svg">2023-06-17</text><path d="M 354 346 L 354 351" stroke-width="2" /><path stroke-width="2" d="M 354 346 L 354 351"></path><text xmlns="http://www.w3.org/2000/svg" x="321" y="368">2023-07-25</text><path stroke-width="2" d="M 453 346 L 453 351" /><path stroke-width="2" d="M 453 346 L 453 351"></path><text xmlns="http://www.w3.org/2000/svg" x="420" y="368">2023-09-01</text><path stroke-width="2" d="M 551 346 L 551 351" /><path stroke-width="2" d="M 551 346 L 551 351"></path><text xmlns="http://www.w3.org/2000/svg" x="518" y="368">2023-10-09</text><path d="M 650 346 L 650 351" stroke-width="2" /><path stroke-width="2" d="M 650 346 L 650 351"></path><text xmlns="http://www.w3.org/2000/svg" x="617" y="368">2023-11-16</text><path stroke-width="2" d="M 748 346 L 748 351" /><path stroke-width="2" d="M 748 346 L 748 351"></path><text xmlns="http://www.w3.org/2000/svg" x="715" y="368">2023-12-24</text><path stroke-width="2" d="M 847 346 L 847 351" /><path stroke-width="2" d="M 847 346 L 847 351"></path><text xmlns="http://www.w3.org/2000/svg" x="814" y="368">2024-01-31</text><path stroke-width="2" d="M 945 346 L 945 351" /><path stroke-width="2" d="M 945 346 L 945 351"></path><text xmlns="http://www.w3.org/2000/svg" x="912" y="368">2024-03-09</text><text xmlns="http://www.w3.org/2000/svg" x="487" y="390">Time</text></svg>