<svg xmlns="http://www.w3.org/2000/svg" xmlns:xlink="http://www.w3.org/1999/xlink" width="1024px" height="400px"><style type="text/css">
path { fill: none; stroke: rgb(51,51,51); }
path.series { stroke: #6b63ff; }
rect.background { fill: rgb(255,255,255); stroke: none; }

text {
	stroke-width: 0;
	stroke: none;
	fill: rgba(51,51,51,1.0);
	font-size: 12.8px;
	font-family: 'Roboto Medium', sans-serif;
}
</style><rect x="0" y="0" width="1024px" height="400px" class="background" rx="8" /><rect x="0" y="0" width="1024px" height="400px" class="background" rx="8"></rect><path stroke-width="2" class="series" d="M 58 345 L 60 345 L 72 345 L 73 344 L 73 344 L 73 344 L 73 343 L 73 343 L 73 343 L 73 343 L 73 342 L 73 342 L 73 342 L 73 341 L 73 341 L 73 341 L 73 340 L 74 340 L 74 340 L 74 340 L 75 339 L 75 339 L 76 339 L 76 338 L 76 338 L 76 338 L 77 337 L 77 337 L 79 337 L 79 337 L 80 336 L 81 336 L 85 336 L 85 335 L 85 335 L 85 335 L 85 334 L 87 334 L 88 334 L 89 334 L 90 333 L 93 333 L 95 333 L 100 332 L 102 332 L 105 332 L 108 331 L 109 331 L 121 331 L 121 331 L 121 330 L 123 330 L 123 330 L 123 329 L 123 329 L 123 329 L 123 328 L 123 328 L 123 328 L 123 328 L 123 327 L 123 327 L 123 327 L 123 326 L 124 326 L 124 326 L 124 325 L 124 325 L 124 325 L 124 325 L 124 324 L 124 324 L 124 324 L 124 323 L 124 323 L 124 323 L 124 322 L 124 322 L 124 322 L 124 322 L 124 321 L 124 321 L 124 321 L 124 320 L 124 320 L 124 320 L 124 319 L 124 319 L 124 319 L 124 319 L 124 318 L 124 318 L 124 318 L 124 317 L 124 317 L 124 317 L 124 316 L 124 316 L 124 316 L 124 316 L 125 315 L 125 315 L 125 315 L 125 314 L 125 314 L 126 314 L 126 313 L 126 313 L 126 313 L 126 313 L 126 312 L 126 312 L 126 312 L 126 311 L 126 311 L 126 311 L 126 310 L 126 310 L 126 310 L 126 310 L 126 309 L 126 309 L 126 309 L 127 308 L 127 308 L 127 308 L 127 307 L 130 307 L 130 307 L 130 307 L 131 306 L 131 306 L 133 306 L 135 305 L 135 305 L 137 305 L 137 304 L 139 304 L 139 304 L 139 304 L 141 303 L 141 303 L 142 303 L 143 302 L 143 302 L 144 302 L 144 301 L 144 301 L 144 301 L 145 301 L 146 300 L 146 300 L 147 300 L 147 299 L 147 299 L 148 299 L 149 298 L 150 298 L 152 298 L 152 298 L 153 297 L 154 297 L 154 297 L 154 296 L 155 296 L 160 296 L 160 295 L 161 295 L 166 295 L 166 295 L 166 294 L 166 294 L 166 294 L 167 293 L 168 293 L 169 293 L 169 292 L 175 292 L 176 292 L 178 292 L 179 291 L 180 291 L 180 291 L 181 290 L 185 290 L 190 290 L 195 289 L 195 289 L 195 289 L 195 289 L 196 288 L 204 288 L 207 288 L 207 287 L 209 287 L 210 287 L 210 286 L 218 286 L 218 286 L 218 286 L 219 285 L 220 285 L 222 285 L 223 284 L 224 284 L 225 284 L 227 283 L 231 283 L 231 283 L 232 283 L 232 282 L 232 282 L 232 282 L 235 281 L 239 281 L 248 281 L 252 280 L 254 280 L 254 280 L 256 280 L 256 279 L 256 279 L 256 279 L 256 278 L 256 278 L 256 278 L 256 277 L 256 277 L 256 277 L 256 277 L 256 276 L 256 276 L 257 276 L 257 275 L 259 275 L 259 275 L 259 274 L 259 274 L 260 274 L 260 274 L 260 273 L 260 273 L 260 273 L 260 272 L 260 272 L 261 272 L 261 271 L 262 271 L 262 271 L 262 271 L 262 270 L 262 270 L 263 270 L 263 269 L 263 269 L 264 269 L 264 268 L 264 268 L 265 268 L 266 268 L 266 267 L 267 267 L 269 267 L 269 266 L 270 266 L 270 266 L 270 265 L 270 265 L 270 265 L 271 265 L 272 264 L 273 264 L 273 264 L 274 263 L 275 263 L 276 263 L 276 262 L 278 262 L 279 262 L 279 262 L 280 261 L 280 261 L 283 261 L 284 260 L 284 260 L 287 260 L 288 259 L 291 259 L 292 259 L 292 259 L 293 258 L 293 258 L 293 258 L 296 257 L 297 257 L 298 257 L 299 256 L 301 256 L 301 256 L 301 256 L 301 255 L 301 255 L 301 255 L 301 254 L 302 254 L 302 254 L 302 253 L 303 253 L 306 253 L 310 253 L 310 252 L 311 252 L 313 252 L 315 251 L 315 251 L 315 251 L 316 250 L 317 250 L 317 250 L 317 250 L 317 249 L 317 249 L 318 249 L 318 248 L 318 248 L 318 248 L 319 247 L 321 247 L 321 247 L 321 247 L 321 246 L 321 246 L 321 246 L 321 245 L 321 245 L 321 245 L 321 244 L 321 244 L 321 244 L 322 244 L 325 243 L 327 243 L 327 243 L 327 242 L 336 242 L 336 242 L 339 241 L 341 241 L 348 241 L 349 241 L 349 240 L 349 240 L 350 240 L 350 239 L 350 239 L 350 239 L 351 238 L 352 238 L 358 238 L 360 238 L 362 237 L 367 237 L 370 237 L 373 236 L 375 236 L 378 236 L 378 235 L 386 235 L 393 235 L 393 235 L 398 234 L 398 234 L 402 234 L 403 233 L 405 233 L 405 233 L 406 232 L 406 232 L 408 232 L 409 232 L 411 231 L 414 231 L 415 231 L 416 230 L 416 230 L 419 230 L 421 229 L 421 229 L 425 229 L 428 229 L 428 228 L 428 228 L 430 228 L 430 227 L 431 227 L 434 227 L 436 226 L 438 226 L 439 226 L 439 226 L 443 225 L 444 225 L 446 225 L 450 224 L 450 224 L 454 224 L 454 223 L 454 223 L 456 223 L 456 223 L 458 222 L 458 222 L 459 222 L 462 221 L 462 221 L 463 221 L 463 220 L 469 220 L 469 220 L 469 220 L 470 219 L 470 219 L 470 219 L 471 218 L 471 218 L 471 218 L 473 217 L 473 217 L 474 217 L 475 217 L 475 216 L 476 216 L 476 216 L 476 215 L 477 215 L 477 215 L 477 214 L 478 214 L 478 214 L 478 214 L 478 213 L 479 213 L 480 213 L 480 212 L 480 212 L 481 212 L 481 211 L 482 211 L 483 211 L 483 211 L 484 210 L 485 210 L 486 210 L 486 209 L 486 209 L 487 209 L 488 208 L 488 208 L 488 208 L 489 208 L 489 207 L 489 207 L 489 207 L 490 206 L 490 206 L 491 206 L 493 205 L 494 205 L 495 205 L 495 205 L 497 204 L 498 204 L 499 204 L 500 203 L 502 203 L 504 203 L 506 202 L 507 202 L 507 202 L 507 202 L 507 201 L 508 201 L 508 201 L 508 200 L 509 200 L 509 200 L 509 199 L 509 199 L 510 199 L 511 199 L 511 198 L 512 198 L 512 198 L 514 197 L 514 197 L 514 197 L 515 196 L 516 196 L 518 196 L 523 196 L 523 195 L 523 195 L 523 195 L 525 194 L 527 194 L 527 194 L 527 193 L 527 193 L 528 193 L 529 193 L 531 192 L 532 192 L 532 192 L 532 191 L 533 191 L 534 191 L 534 190 L 534 190 L 536 190 L 539 190 L 539 189 L 542 189 L 543 189 L 543 188 L 546 188 L 547 188 L 549 187 L 551 187 L 552 187 L 553 187 L 553 186 L 553 186 L 553 186 L 553 185 L 553 185 L 554 185 L 554 184 L 555 184 L 555 184 L 555 184 L 555 183 L 556 183 L 557 183 L 557 182 L 561 182 L 562 182 L 566 181 L 567 181 L 568 181 L 568 181 L 569 180 L 571 180 L 572 180 L 572 179 L 572 179 L 572 179 L 572 178 L 573 178 L 573 178 L 573 178 L 573 177 L 573 177 L 573 177 L 574 176 L 574 176 L 575 176 L 576 175 L 576 175 L 576 175 L 577 175 L 578 174 L 578 174 L 578 174 L 578 173 L 579 173 L 582 173 L 582 172 L 582 172 L 582 172 L 582 172 L 583 171 L 583 171 L 583 171 L 584 170 L 585 170 L 587 170 L 590 169 L 591 169 L 592 169 L 595 169 L 598 168 L 598 168 L 600 168 L 603 167 L 603 167 L 604 167 L 608 166 L 609 166 L 609 166 L 610 166 L 610 165 L 617 165 L 617 165 L 618 164 L 618 164 L 618 164 L 619 163 L 620 163 L 620 163 L 620 163 L 621 162 L 621 162 L 621 162 L 622 161 L 622 161 L 622 161 L 622 160 L 622 160 L 622 160 L 622 160 L 624 159 L 625 159 L 626 159 L 626 158 L 626 158 L 627 158 L 627 157 L 628 157 L 628 157 L 629 157 L 629 156 L 629 156 L 629 156 L 631 155 L 631 155 L 632 155 L 632 154 L 633 154 L 633 154 L 634 154 L 634 153 L 634 153 L 634 153 L 635 152 L 635 152 L 635 152 L 636 151 L 636 151 L 637 151 L 638 151 L 638 150 L 638 150 L 638 150 L 638 149 L 639 149 L 639 149 L 639 148 L 640 148 L 640 148 L 640 148 L 641 147 L 641 147 L 641 147 L 641 146 L 641 146 L 641 146 L 642 145 L 642 145 L 642 145 L 642 145 L 642 144 L 644 144 L 645 144 L 647 143 L 647 143 L 647 143 L 647 142 L 648 142 L 649 142 L 649 142 L 650 141 L 652 141 L 654 141 L 654 140 L 656 140 L 656 140 L 656 139 L 657 139 L 657 139 L 657 139 L 657 138 L 657 138 L 658 138 L 658 137 L 658 137 L 658 137 L 658 136 L 658 136 L 658 136 L 658 136 L 659 135 L 659 135 L 659 135 L 660 134 L 660 134 L 662 134 L 662 133 L 662 133 L 662 133 L 664 132 L 664 132 L 664 132 L 667 132 L 667 131 L 667 131 L 667 131 L 667 130 L 669 130 L 671 130 L 671 130 L 673 129 L 673 129 L 673 129 L 673 128 L 674 128 L 678 128 L 680 127 L 682 127 L 684 127 L 684 126 L 685 126 L 686 126 L 686 126 L 687 125 L 687 125 L 687 125 L 688 124 L 688 124 L 688 124 L 689 124 L 691 123 L 691 123 L 691 123 L 691 122 L 691 122 L 691 122 L 691 121 L 691 121 L 691 121 L 691 121 L 691 120 L 691 120 L 691 120 L 691 119 L 691 119 L 691 119 L 692 118 L 692 118 L 692 118 L 692 118 L 692 117 L 693 117 L 693 117 L 693 116 L 693 116 L 693 116 L 693 115 L 694 115 L 694 115 L 694 115 L 694 114 L 694 114 L 694 114 L 695 113 L 697 113 L 698 113 L 698 112 L 699 112 L 700 112 L 700 112 L 700 111 L 701 111 L 703 111 L 704 110 L 705 110 L 705 110 L 705 109 L 705 109 L 705 109 L 705 109 L 705 108 L 706 108 L 707 108 L 707 107 L 710 107 L 711 107 L 712 106 L 715 106 L 716 106 L 716 106 L 716 105 L 716 105 L 717 105 L 717 104 L 717 104 L 718 104 L 718 103 L 719 103 L 719 103 L 719 103 L 719 102 L 719 102 L 720 102 L 720 101 L 720 101 L 720 101 L 720 100 L 721 100 L 721 100 L 722 100 L 722 99 L 723 99 L 723 99 L 723 98 L 723 98 L 724 98 L 725 97 L 725 97 L 725 97 L 725 97 L 726 96 L 727 96 L 730 96 L 731 95 L 731 95 L 734 95 L 735 94 L 736 94 L 738 94 L 739 94 L 739 93 L 742 93 L 746 93 L 747 92 L 748 92 L 750 92 L 752 91 L 752 91 L 752 91 L 754 91 L 754 90 L 755 90 L 756 90 L 757 89 L 758 89 L 759 89 L 759 88 L 759 88 L 760 88 L 760 88 L 761 87 L 764 87 L 764 87 L 765 86 L 766 86 L 766 86 L 767 85 L 768 85 L 769 85 L 769 85 L 769 84 L 769 84 L 770 84 L 771 83 L 771 83 L 772 83 L 773 82 L 773 82 L 773 82 L 774 82 L 775 81 L 775 81 L 775 81 L 776 80 L 776 80 L 776 80 L 776 79 L 776 79 L 776 79 L 777 79 L 779 78 L 780 78 L 780 78 L 781 77 L 784 77 L 784 77 L 785 76 L 786 76 L 788 76 L 790 76 L 792 75 L 793 75 L 794 75 L 795 74 L 796 74 L 798 74 L 800 73 L 800 73 L 800 73 L 800 73 L 800 72 L 801 72 L 801 72 L 802 71 L 803 71 L 804 71 L 804 70 L 804 70 L 810 70 L 811 70 L 812 69 L 813 69 L 815 69 L 816 68 L 816 68 L 816 68 L 816 67 L 817 67 L 818 67 L 818 67 L 818 66 L 819 66 L 819 66 L 820 65 L 820 65 L 820 65 L 821 64 L 822 64 L 825 64 L 825 64 L 830 63 L 830 63 L 830 63 L 832 62 L 832 62 L 832 62 L 833 61 L 833 61 L 836 61 L 837 61 L 838 60 L 838 60 L 839 60 L 839 59 L 840 59 L 842 59 L 844 58 L 844 58 L 844 58 L 844 58 L 845 57 L 845 57 L 845 57 L 846 56 L 846 56 L 847 56 L 848 55 L 849 55 L 849 55 L 850 55 L 850 54 L 850 54 L 850 54 L 851 53 L 854 53 L 858 53 L 858 52 L 861 52 L 862 52 L 865 52 L 865 51 L 866 51 L 866 51 L 867 50 L 868 50 L 869 50 L 871 49 L 872 49 L 875 49 L 880 49 L 880 48 L 880 48 L 880 48 L 880 47 L 882 47 L 882 47 L 882 46 L 890 46 L 893 46 L 893 46 L 894 45 L 896 45 L 898 45 L 900 44 L 901 44 L 901 44 L 902 43 L 903 43 L 908 43 L 909 43 L 910 42 L 911 42 L 914 42 L 914 41 L 914 41 L 914 41 L 914 40 L 915 40 L 915 40 L 915 40 L 917 39 L 919 39 L 920 39 L 920 38 L 920 38 L 921 38 L 923 37 L 927 37 L 928 37 L 928 37 L 930 36 L 930 36 L 930 36 L 930 35 L 931 35 L 931 35 L 931 34 L 933 34 L 934 34 L 935 34 L 935 33 L 935 33 L 935 33 L 936 32 L 936 32 L 936 32 L 936 31 L 936 31 L 936 31 L 937 31 L 937 30 L 937 30 L 937 30" /><path stroke-width="2" class="series" d="M 58 345 L 60 345 L 72 345 L 73 344 L 73 344 L 73 344 L 73 343 L 73 343 L 73 343 L 73 343 L 73 342 L 73 342 L 73 342 L 73 341 L 73 341 L 73 341 L 73 340 L 74 340 L 74 340 L 74 340 L 75 339 L 75 339 L 76 339 L 76 338 L 76 338 L 76 338 L 77 337 L 77 337 L 79 337 L 79 337 L 80 336 L 81 336 L 85 336 L 85 335 L 85 335 L 85 335 L 85 334 L 87 334 L 88 334 L 89 334 L 90 333 L 93 333 L 95 333 L 100 332 L 102 332 L 105 332 L 108 331 L 109 331 L 121 331 L 121 331 L 121 330 L 123 330 L 123 330 L 123 329 L 123 329 L 123 329 L 123 328 L 123 328 L 123 328 L 123 328 L 123 327 L 123 327 L 123 327 L 123 326 L 124 326 L 124 326 L 124 325 L 124 325 L 124 325 L 124 325 L 124 324 L 124 324 L 124 324 L 124 323 L 124 323 L 124 323 L 124 322 L 124 322 L 124 322 L 124 322 L 124 321 L 124 321 L 124 321 L 124 320 L 124 320 L 124 320 L 124 319 L 124 319 L 124 319 L 124 319 L 124 318 L 124 318 L 124 318 L 124 317 L 124 317 L 124 317 L 124 316 L 124 316 L 124 316 L 124 316 L 125 315 L 125 315 L 125 315 L 125 314 L 125 314 L 126 314 L 126 313 L 126 313 L 126 313 L 126 313 L 126 312 L 126 312 L 126 312 L 126 311 L 126 311 L 126 311 L 126 310 L 126 310 L 126 310 L 126 310 L 126 309 L 126 309 L 126 309 L 127 308 L 127 308 L 127 308 L 127 307 L 130 307 L 130 307 L 130 307 L 131 306 L 131 306 L 133 306 L 135 305 L 135 305 L 137 305 L 137 304 L 139 304 L 139 304 L 139 304 L 141 303 L 141 303 L 142 303 L 143 302 L 143 302 L 144 302 L 144 301 L 144 301 L 144 301 L 145 301 L 146 300 L 146 300 L 147 300 L 147 299 L 147 299 L 148 299 L 149 298 L 150 298 L 152 298 L 152 298 L 153 297 L 154 297 L 154 297 L 154 296 L 155 296 L 160 296 L 160 295 L 161 295 L 166 295 L 166 295 L 166 294 L 166 294 L 166 294 L 167 293 L 168 293 L 169 293 L 169 292 L 175 292 L 176 292 L 178 292 L 179 291 L 180 291 L 180 291 L 181 290 L 185 290 L 190 290 L 195 289 L 195 289 L 195 289 L 195 289 L 196 288 L 204 288 L 207 288 L 207 287 L 209 287 L 210 287 L 210 286 L 218 286 L 218 286 L 218 286 L 219 285 L 220 285 L 222 285 L 223 284 L 224 284 L 225 284 L 227 283 L 231 283 L 231 283 L 232 283 L 232 282 L 232 282 L 232 282 L 235 281 L 239 281 L 248 281 L 252 280 L 254 280 L 254 280 L 256 280 L 256 279 L 256 279 L 256 279 L 256 278 L 256 278 L 256 278 L 256 277 L 256 277 L 256 277 L 256 277 L 256 276 L 256 276 L 257 276 L 257 275 L 259 275 L 259 275 L 259 274 L 259 274 L 260 274 L 260 274 L 260 273 L 260 273 L 260 273 L 260 272 L 260 272 L 261 272 L 261 271 L 262 271 L 262 271 L 262 271 L 262 270 L 262 270 L 263 270 L 263 269 L 263 269 L 264 269 L 264 268 L 264 268 L 265 268 L 266 268 L 266 267 L 267 267 L 269 267 L 269 266 L 270 266 L 270 266 L 270 265 L 270 265 L 270 265 L 271 265 L 272 264 L 273 264 L 273 264 L 274 263 L 275 263 L 276 263 L 276 262 L 278 262 L 279 262 L 279 262 L 280 261 L 280 261 L 283 261 L 284 260 L 284 260 L 287 260 L 288 259 L 291 259 L 292 259 L 292 259 L 293 258 L 293 258 L 293 258 L 296 257 L 297 257 L 298 257 L 299 256 L 301 256 L 301 256 L 301 256 L 301 255 L 301 255 L 301 255 L 301 254 L 302 254 L 302 254 L 302 253 L 303 253 L 306 253 L 310 253 L 310 252 L 311 252 L 313 252 L 315 251 L 315 251 L 315 251 L 316 250 L 317 250 L 317 250 L 317 250 L 317 249 L 317 249 L 318 249 L 318 248 L 318 248 L 318 248 L 319 247 L 321 247 L 321 247 L 321 247 L 321 246 L 321 246 L 321 246 L 321 245 L 321 245 L 321 245 L 321 244 L 321 244 L 321 244 L 322 244 L 325 243 L 327 243 L 327 243 L 327 242 L 336 242 L 336 242 L 339 241 L 341 241 L 348 241 L 349 241 L 349 240 L 349 240 L 350 240 L 350 239 L 350 239 L 350 239 L 351 238 L 352 238 L 358 238 L 360 238 L 362 237 L 367 237 L 370 237 L 373 236 L 375 236 L 378 236 L 378 235 L 386 235 L 393 235 L 393 235 L 398 234 L 398 234 L 402 234 L 403 233 L 405 233 L 405 233 L 406 232 L 406 232 L 408 232 L 409 232 L 411 231 L 414 231 L 415 231 L 416 230 L 416 230 L 419 230 L 421 229 L 421 229 L 425 229 L 428 229 L 428 228 L 428 228 L 430 228 L 430 227 L 431 227 L 434 227 L 436 226 L 438 226 L 439 226 L 439 226 L 443 225 L 444 225 L 446 225 L 450 224 L 450 224 L 454 224 L 454 223 L 454 223 L 456 223 L 456 223 L 458 222 L 458 222 L 459 222 L 462 221 L 462 221 L 463 221 L 463 220 L 469 220 L 469 220 L 469 220 L 470 219 L 470 219 L 470 219 L 471 218 L 471 218 L 471 218 L 473 217 L 473 217 L 474 217 L 475 217 L 475 216 L 476 216 L 476 216 L 476 215 L 477 215 L 477 215 L 477 214 L 478 214 L 478 214 L 478 214 L 478 213 L 479 213 L 480 213 L 480 212 L 480 212 L 481 212 L 481 211 L 482 211 L 483 211 L 483 211 L 484 210 L 485 210 L 486 210 L 486 209 L 486 209 L 487 209 L 488 208 L 488 208 L 488 208 L 489 208 L 489 207 L 489 207 L 489 207 L 490 206 L 490 206 L 491 206 L 493 205 L 494 205 L 495 205 L 495 205 L 497 204 L 498 204 L 499 204 L 500 203 L 502 203 L 504 203 L 506 202 L 507 202 L 507 202 L 507 202 L 507 201 L 508 201 L 508 201 L 508 200 L 509 200 L 509 200 L 509 199 L 509 199 L 510 199 L 511 199 L 511 198 L 512 198 L 512 198 L 514 197 L 514 197 L 514 197 L 515 196 L 516 196 L 518 196 L 523 196 L 523 195 L 523 195 L 523 195 L 525 194 L 527 194 L 527 194 L 527 193 L 527 193 L 528 193 L 529 193 L 531 192 L 532 192 L 532 192 L 532 191 L 533 191 L 534 191 L 534 190 L 534 190 L 536 190 L 539 190 L 539 189 L 542 189 L 543 189 L 543 188 L 546 188 L 547 188 L 549 187 L 551 187 L 552 187 L 553 187 L 553 186 L 553 186 L 553 186 L 553 185 L 553 185 L 554 185 L 554 184 L 555 184 L 555 184 L 555 184 L 555 183 L 556 183 L 557 183 L 557 182 L 561 182 L 562 182 L 566 181 L 567 181 L 568 181 L 568 181 L 569 180 L 571 180 L 572 180 L 572 179 L 572 179 L 572 179 L 572 178 L 573 178 L 573 178 L 573 178 L 573 177 L 573 177 L 573 177 L 574 176 L 574 176 L 575 176 L 576 175 L 576 175 L 576 175 L 577 175 L 578 174 L 578 174 L 578 174 L 578 173 L 579 173 L 582 173 L 582 172 L 582 172 L 582 172 L 582 172 L 583 171 L 583 171 L 583 171 L 584 170 L 585 170 L 587 170 L 590 169 L 591 169 L 592 169 L 595 169 L 598 168 L 598 168 L 600 168 L 603 167 L 603 167 L 604 167 L 608 166 L 609 166 L 609 166 L 610 166 L 610 165 L 617 165 L 617 165 L 618 164 L 618 164 L 618 164 L 619 163 L 620 163 L 620 163 L 620 163 L 621 162 L 621 162 L 621 162 L 622 161 L 622 161 L 622 161 L 622 160 L 622 160 L 622 160 L 622 160 L 624 159 L 625 159 L 626 159 L 626 158 L 626 158 L 627 158 L 627 157 L 628 157 L 628 157 L 629 157 L 629 156 L 629 156 L 629 156 L 631 155 L 631 155 L 632 155 L 632 154 L 633 154 L 633 154 L 634 154 L 634 153 L 634 153 L 634 153 L 635 152 L 635 152 L 635 152 L 636 151 L 636 151 L 637 151 L 638 151 L 638 150 L 638 150 L 638 150 L 638 149 L 639 149 L 639 149 L 639 148 L 640 148 L 640 148 L 640 148 L 641 147 L 641 147 L 641 147 L 641 146 L 641 146 L 641 146 L 642 145 L 642 145 L 642 145 L 642 145 L 642 144 L 644 144 L 645 144 L 647 143 L 647 143 L 647 143 L 647 142 L 648 142 L 649 142 L 649 142 L 650 141 L 652 141 L 654 141 L 654 140 L 656 140 L 656 140 L 656 139 L 657 139 L 657 139 L 657 139 L 657 138 L 657 138 L 658 138 L 658 137 L 658 137 L 658 137 L 658 136 L 658 136 L 658 136 L 658 136 L 659 135 L 659 135 L 659 135 L 660 134 L 660 134 L 662 134 L 662 133 L 662 133 L 662 133 L 664 132 L 664 132 L 664 132 L 667 132 L 667 131 L 667 131 L 667 131 L 667 130 L 669 130 L 671 130 L 671 130 L 673 129 L 673 129 L 673 129 L 673 128 L 674 128 L 678 128 L 680 127 L 682 127 L 684 127 L 684 126 L 685 126 L 686 126 L 686 126 L 687 125 L 687 125 L 687 125 L 688 124 L 688 124 L 688 124 L 689 124 L 691 123 L 691 123 L 691 123 L 691 122 L 691 122 L 691 122 L 691 121 L 691 121 L 691 121 L 691 121 L 691 120 L 691 120 L 691 120 L 691 119 L 691 119 L 691 119 L 692 118 L 692 118 L 692 118 L 692 118 L 692 117 L 693 117 L 693 117 L 693 116 L 693 116 L 693 116 L 693 115 L 694 115 L 694 115 L 694 115 L 694 114 L 694 114 L 694 114 L 695 113 L 697 113 L 698 113 L 698 112 L 699 112 L 700 112 L 700 112 L 700 111 L 701 111 L 703 111 L 704 110 L 705 110 L 705 110 L 705 109 L 705 109 L 705 109 L 705 109 L 705 108 L 706 108 L 707 108 L 707 107 L 710 107 L 711 107 L 712 106 L 715 106 L 716 106 L 716 106 L 716 105 L 716 105 L 717 105 L 717 104 L 717 104 L 718 104 L 718 103 L 719 103 L 719 103 L 719 103 L 719 102 L 719 102 L 720 102 L 720 101 L 720 101 L 720 101 L 720 100 L 721 100 L 721 100 L 722 100 L 722 99 L 723 99 L 723 99 L 723 98 L 723 98 L 724 98 L 725 97 L 725 97 L 725 97 L 725 97 L 726 96 L 727 96 L 730 96 L 731 95 L 731 95 L 734 95 L 735 94 L 736 94 L 738 94 L 739 94 L 739 93 L 742 93 L 746 93 L 747 92 L 748 92 L 750 92 L 752 91 L 752 91 L 752 91 L 754 91 L 754 90 L 755 90 L 756 90 L 757 89 L 758 89 L 759 89 L 759 88 L 759 88 L 760 88 L 760 88 L 761 87 L 764 87 L 764 87 L 765 86 L 766 86 L 766 86 L 767 85 L 768 85 L 769 85 L 769 85 L 769 84 L 769 84 L 770 84 L 771 83 L 771 83 L 772 83 L 773 82 L 773 82 L 773 82 L 774 82 L 775 81 L 775 81 L 775 81 L 776 80 L 776 80 L 776 80 L 776 79 L 776 79 L 776 79 L 777 79 L 779 78 L 780 78 L 780 78 L 781 77 L 784 77 L 784 77 L 785 76 L 786 76 L 788 76 L 790 76 L 792 75 L 793 75 L 794 75 L 795 74 L 796 74 L 798 74 L 800 73 L 800 73 L 800 73 L 800 73 L 800 72 L 801 72 L 801 72 L 802 71 L 803 71 L 804 71 L 804 70 L 804 70 L 810 70 L 811 70 L 812 69 L 813 69 L 815 69 L 816 68 L 816 68 L 816 68 L 816 67 L 817 67 L 818 67 L 818 67 L 818 66 L 819 66 L 819 66 L 820 65 L 820 65 L 820 65 L 821 64 L 822 64 L 825 64 L 825 64 L 830 63 L 830 63 L 830 63 L 832 62 L 832 62 L 832 62 L 833 61 L 833 61 L 836 61 L 837 61 L 838 60 L 838 60 L 839 60 L 839 59 L 840 59 L 842 59 L 844 58 L 844 58 L 844 58 L 844 58 L 845 57 L 845 57 L 845 57 L 846 56 L 846 56 L 847 56 L 848 55 L 849 55 L 849 55 L 850 55 L 850 54 L 850 54 L 850 54 L 851 53 L 854 53 L 858 53 L 858 52 L 861 52 L 862 52 L 865 52 L 865 51 L 866 51 L 866 51 L 867 50 L 868 50 L 869 50 L 871 49 L 872 49 L 875 49 L 880 49 L 880 48 L 880 48 L 880 48 L 880 47 L 882 47 L 882 47 L 882 46 L 890 46 L 893 46 L 893 46 L 894 45 L 896 45 L 898 45 L 900 44 L 901 44 L 901 44 L 902 43 L 903 43 L 908 43 L 909 43 L 910 42 L 911 42 L 914 42 L 914 41 L 914 41 L 914 41 L 914 40 L 915 40 L 915 40 L 915 40 L 917 39 L 919 39 L 920 39 L 920 38 L 920 38 L 921 38 L 923 37 L 927 37 L 928 37 L 928 37 L 930 36 L 930 36 L 930 36 L 930 35 L 931 35 L 931 35 L 931 34 L 933 34 L 934 34 L 935 34 L 935 33 L 935 33 L 935 33 L 936 32 L 936 32 L 936 32 L 936 31 L 936 31 L 936 31 L 937 31 L 937 30 L 937 30 L 937 30"></path><path d="M 937 346 L 937.000000 15.000000" stroke-width="2" /><path d="M 937 346 L 937.000000 15.000000" stroke-width="2"></path><path d="M 937 346 L 942 346" stroke-width="2" /><path stroke-width="2" d="M 937 346 L 942 346"></path><text xmlns="http://www.w3.org/2000/svg" x="947" y="352">0</text><path stroke-width="2" d="M 937 307 L 942 307" /><path stroke-width="2" d="M 937 307 L 942 307"></path><text xmlns="http://www.w3.org/2000/svg" x="947" y="313">130</text><path d="M 937 271 L 942 271" stroke-width="2" /><path stroke-width="2" d="M 937 271 L 942 271"></path><text xmlns="http://www.w3.org/2000/svg" x="947" y="277">250</text><path stroke-width="2" d="M 937 235 L 942 235" /><path stroke-width="2" d="M 937 235 L 942 235"></path><text xmlns="http://www.w3.org/2000/svg" x="947" y="241">370</text><path stroke-width="2" d="M 937 199 L 942 199" /><path d="M 937 199 L 942 199" stroke-width="2"></path><text xmlns="http://www.w3.org/2000/svg" x="947" y="205">490</text><path stroke-width="2" d="M 937 160 L 942 160" /><path stroke-width="2" d="M 937 160 L 942 160"></path><text y="166" xmlns="http://www.w3.org/2000/svg" x="947">620</text><path stroke-width="2" d="M 937 124 L 942 124" /><path stroke-width="2" d="M 937 124 L 942 124"></path><text xmlns="http://www.w3.org/2000/svg" x="947" y="130">740</text><path stroke-width="2" d="M 937 88 L 942 88" /><path stroke-width="2" d="M 937 88 L 942 88"></path><text xmlns="http://www.w3.org/2000/svg" x="947" y="94">860</text><path stroke-width="2" d="M 937 52 L 942 52" /><path stroke-width="2" d="M 937 52 L 942 52"></path><text xmlns="http://www.w3.org/2000/svg" x="947" y="58">980</text><path stroke-width="2" d="M 937 16 L 942 16" /><path stroke-width="2" d="M 937 16 L 942 16"></path><text xmlns="http://www.w3.org/2000/svg" x="947" y="22">1100</text><text x="987" y="175" transform="rotate(90.00,987,175)" xmlns="http://www.w3.org/2000/svg">Stargazers</text><path stroke-width="2" d="M 57.000000 346.000000 L 937 346" /><path stroke-width="2" d="M 57.000000 346.000000 L 937 346"></path><path stroke-width="2" d="M 58 346 L 58 351" /><path stroke-width="2" d="M 58 346 L 58 351"></path><text xmlns="http://www.w3.org/2000/svg" x="25" y="368">2023-04-02</text><path d="M 156 346 L 156 351" stroke-width="2" /><path stroke-width="2" d="M 156 346 L 156 351"></path><text x="123" y="368" xmlns="http://www.w3.org/2000/svg">2023-07-08</text><path stroke-width="2" d="M 254 346 L 254 351" /><path stroke-width="2" d="M 254 346 L 254 351"></path><text xmlns="http://www.w3.org/2000/svg" x="221" y="368">2023-10-13</text><path stroke-width="2" d="M 352 346 L 352 351" /><path d="M 352 346 L 352 351" stroke-width="2"></path><text xmlns="http://www.w3.org/2000/svg" x="319" y="368">2024-01-18</text><path d="M 449 346 L 449 351" stroke-width="2" /><path stroke-width="2" d="M 449 346 L 449 351"></path><text xmlns="http://www.w3.org/2000/svg" x="416" y="368">2024-04-23</text><path stroke-width="2" d="M 547 346 L 547 351" /><path stroke-width="2" d="M 547 346 L 547 351"></path><text xmlns="http://www.w3.org/2000/svg" x="514" y="368">2024-07-29</text><path stroke-width="2" d="M 645 346 L 645 351" /><path stroke-width="2" d="M 645 346 L 645 351"></path><text xmlns="http://www.w3.org/2000/svg" x="612" y="368">2024-11-03</text><path stroke-width="2" d="M 742 346 L 742 351" /><path stroke-width="2" d="M 742 346 L 742 351"></path><text y="368" xmlns="http://www.w3.org/2000/svg" x="709">2025-02-08</text><path stroke-width="2" d="M 840 346 L 840 351" /><path stroke-width="2" d="M 840 346 L 840 351"></path><text xmlns="http://www.w3.org/2000/svg" x="807" y="368">2025-05-16</text><path stroke-width="2" d="M 937 346 L 937 351" /><path stroke-width="2" d="M 937 346 L 937 351"></path><text xmlns="http://www.w3.org/2000/svg" x="904" y="368">2025-08-21</text><text x="483" y="390" xmlns="http://www.w3.org/2000/svg">Time</text></svg>