<svg width="1024px" height="400px" xmlns="http://www.w3.org/2000/svg" xmlns:xlink="http://www.w3.org/1999/xlink"><style type="text/css">
path { fill: none; stroke: rgb(51,51,51); }
path.series { stroke: #6b63ff; }
rect.background { fill: rgb(255,255,255); stroke: none; }

text {
	stroke-width: 0;
	stroke: none;
	fill: rgba(51,51,51,1.0);
	font-size: 12.8px;
	font-family: 'Roboto Medium', sans-serif;
}
</style><rect x="0" y="0" width="1024px" height="400px" class="background" rx="8" /><rect class="background" rx="8" x="0" y="0" width="1024px" height="400px"></rect><path stroke-width="2" class="series" d="M 58 345 L 61 345 L 76 344 L 76 344 L 76 344 L 76 343 L 76 343 L 76 343 L 76 342 L 76 342 L 77 341 L 77 341 L 77 341 L 77 340 L 77 340 L 77 340 L 77 339 L 77 339 L 77 339 L 78 338 L 79 338 L 79 337 L 80 337 L 81 337 L 81 336 L 81 336 L 81 336 L 82 335 L 84 335 L 84 335 L 85 334 L 86 334 L 91 333 L 91 333 L 91 333 L 91 332 L 91 332 L 94 332 L 95 331 L 96 331 L 98 330 L 102 330 L 103 330 L 110 329 L 112 329 L 116 329 L 120 328 L 121 328 L 135 328 L 136 327 L 136 327 L 138 326 L 139 326 L 139 326 L 139 325 L 139 325 L 139 325 L 139 324 L 139 324 L 139 324 L 139 323 L 139 323 L 139 322 L 139 322 L 139 322 L 139 321 L 139 321 L 139 321 L 139 320 L 139 320 L 139 319 L 139 319 L 139 319 L 139 318 L 139 318 L 139 318 L 139 317 L 139 317 L 139 317 L 139 316 L 139 316 L 139 315 L 139 315 L 139 315 L 140 314 L 140 314 L 140 314 L 140 313 L 140 313 L 140 313 L 140 312 L 140 312 L 140 311 L 140 311 L 140 311 L 140 310 L 140 310 L 140 310 L 140 309 L 140 309 L 140 308 L 141 308 L 141 308 L 141 307 L 141 307 L 142 307 L 142 306 L 142 306 L 142 306 L 142 305 L 142 305 L 142 304 L 142 304 L 142 304 L 142 303 L 142 303 L 142 303 L 142 302 L 142 302 L 142 302 L 142 301 L 142 301 L 142 300 L 143 300 L 143 300 L 143 299 L 143 299 L 147 299 L 147 298 L 147 298 L 148 297 L 148 297 L 151 297 L 153 296 L 154 296 L 156 296 L 156 295 L 158 295 L 158 295 L 159 294 L 161 294 L 161 293 L 162 293 L 163 293 L 164 292 L 165 292 L 165 292 L 165 291 L 165 291 L 166 291 L 167 290 L 167 290 L 168 289 L 168 289 L 168 289 L 169 288 L 171 288 L 172 288 L 174 287 L 175 287 L 176 286 L 177 286 L 177 286 L 177 285 L 179 285 L 185 285 L 185 284 L 186 284 L 192 284 L 192 283 L 192 283 L 192 282 L 192 282 L 193 282 L 195 281 L 196 281 L 196 281 L 203 280 L 204 280 L 206 280 L 208 279 L 210 279 L 210 278 L 211 278 L 216 278 L 221 277 L 227 277 L 228 277 L 228 276 L 228 276 L 229 275 L 230 275 L 238 275 L 242 274 L 242 274 L 246 274 L 246 273 L 247 273 L 256 273 L 256 272 L 257 272 L 257 271 L 258 271 L 261 271 L 262 270 L 264 270 L 265 270 L 267 269 L 272 269 L 273 269 L 273 268 L 274 268 L 274 267 L 274 267 L 277 267 L 282 266 L 294 266 L 298 266 L 300 265 L 301 265 L 302 264 L 303 264 L 303 264 L 303 263 L 303 263 L 303 263 L 303 262 L 303 262 L 304 262 L 304 261 L 304 261 L 304 260 L 304 260 L 304 260 L 304 259 L 305 259 L 306 259 L 307 258 L 307 258 L 307 258 L 307 257 L 308 257 L 308 256 L 308 256 L 308 256 L 308 255 L 309 255 L 309 255 L 310 254 L 310 254 L 311 253 L 311 253 L 311 253 L 311 252 L 311 252 L 312 252 L 312 251 L 312 251 L 312 251 L 313 250 L 313 250 L 314 249 L 314 249 L 316 249 L 316 248 L 318 248 L 320 248 L 320 247 L 321 247 L 321 247 L 321 246 L 321 246 L 321 245 L 322 245 L 323 245 L 325 244 L 325 244 L 326 244 L 327 243 L 329 243 L 329 242 L 331 242 L 332 242 L 332 241 L 333 241 L 333 241 L 337 240 L 338 240 L 339 240 L 342 239 L 344 239 L 347 238 L 348 238 L 348 238 L 349 237 L 350 237 L 350 237 L 352 236 L 354 236 L 356 236 L 356 235 L 357 235 L 359 234 L 359 234 L 359 234 L 359 233 L 359 233 L 360 233 L 360 232 L 361 232 L 361 231 L 361 231 L 362 231 L 366 230 L 371 230 L 371 230 L 371 229 L 374 229 L 376 229 L 377 228 L 377 228 L 378 227 L 379 227 L 379 227 L 379 226 L 379 226 L 380 226 L 380 225 L 380 225 L 380 225 L 380 224 L 381 224 L 383 223 L 383 223 L 384 223 L 384 222 L 384 222 L 384 222 L 384 221 L 384 221 L 384 220 L 384 220 L 384 220 L 385 219 L 385 219 L 388 219 L 391 218 L 391 218 L 392 218 L 402 217 L 403 217 L 406 216 L 409 216 L 415 216 L 417 215 L 419 215 L 419 215 L 419 214 L 419 214 L 420 214 L 420 213 L 420 213 L 420 212 L 421 212 L 422 212 L 430 211 L 432 211 L 435 211 L 441 210 L 445 210 L 448 209 L 451 209 L 455 209 L 455 208 L 464 208 L 473 208 L 473 207 L 480 207 L 480 207 L 485 206 L 486 206 L 488 205 L 489 205 L 489 205 L 489 204 L 492 204 L 493 204 L 496 203 L 499 203 L 500 203 L 501 202 L 502 202 L 505 201 L 508 201 L 508 201 L 512 200 L 516 200 L 517 200 L 517 199 L 519 199 L 519 198 L 520 198 L 523 198 L 526 197 L 528 197 L 531 197 L 531 196 L 536 196 L 537 196 L 539 195 L 544 195 L 544 194 L 548 194 L 549 194 L 549 193 L 551 193 L 551 193 L 553 192 L 553 192 L 556 192 L 558 191 L 559 191 L 559 190 L 560 190 L 567 190 L 567 189 L 568 189 L 568 189 L 568 188 L 569 188 L 569 187 L 570 187 L 570 187 L 572 186 L 572 186 L 574 186 L 574 185 L 575 185 L 576 185 L 576 184 L 576 184 L 577 183 L 577 183 L 577 183 L 578 182 L 578 182 L 578 182 L 579 181 L 579 181 L 581 181 L 581 180 L 581 180 L 582 179 L 582 179 L 584 179 L 585 178 L 585 178 L 586 178 L 587 177 L 588 177 L 588 176 L 589 176 L 589 176 L 591 175 L 591 175 L 591 175 L 592 174 L 592 174 L 592 174 L 592 173 L 593 173 L 593 172 L 594 172 L 597 172 L 598 171 L 600 171 L 600 171 L 602 170 L 604 170 L 604 170 L 606 169 L 609 169 L 611 168 L 613 168 L 614 168 L 614 167 L 615 167 L 615 167 L 615 166 L 616 166 L 616 165 L 617 165 L 617 165 L 617 164 L 617 164 L 619 164 L 620 163 L 620 163 L 621 163 L 621 162 L 623 162 L 624 161 L 624 161 L 625 161 L 626 160 L 628 160 L 631 160 L 634 159 L 634 159 L 634 159 L 635 158 L 637 158 L 639 157 L 639 157 L 639 157 L 640 156 L 640 156 L 642 156 L 645 155 L 645 155 L 645 154 L 645 154 L 647 154 L 648 153 L 648 153 L 648 153 L 651 152 L 654 152 L 654 152 L 658 151 L 659 151 L 659 150 L 663 150 L 664 150 L 667 149 L 668 149 L 670 149 L 671 148 L 671 148 L 672 148 L 672 147 L 672 147 L 672 146 L 673 146 L 673 146 L 673 145 L 674 145 L 674 145 L 674 144 L 676 144 L 677 143 L 677 143 L 682 143 L 682 142 L 687 142 L 689 142 L 690 141 L 690 141 L 691 141 L 694 140 L 694 140 L 695 139 L 695 139 L 696 139 L 696 138 L 696 138 L 696 138 L 696 137 L 697 137 L 697 137 L 697 136 L 697 136 L 697 135 L 698 135 L 698 135 L 700 134 L 700 134 L 700 134 L 701 133 L 702 133 L 702 132 L 702 132 L 703 132 L 704 131 L 707 131 L 707 131 L 707 130 L 707 130 L 707 130 L 708 129 L 708 129 L 708 128 L 710 128 L 712 128 L 714 127 L 717 127 L 718 127 L 720 126 L 723 126 L 727 126 L 727 125 L 730 125 L 734 124 L 734 124 L 734 124 L 739 123 L 741 123 L 741 123 L 742 122 L 742 122 L 751 121 L 751 121 L 752 121 L 752 120 L 753 120 L 753 120 L 754 119 L 755 119 L 755 119 L 756 118 L 756 118 L 756 117 L 757 117 L 757 117 L 757 116 L 757 116 L 757 116 L 758 115 L 758 115 L 759 115 L 761 114 L 762 114 L 762 113 L 762 113 L 763 113 L 763 112 L 764 112 L 765 112 L 766 111 L 766 111 L 766 110 L 766 110 L 768 110 L 768 109 L 770 109 L 770 109 L 771 108 L 771 108 L 772 108 L 772 107 L 772 107 L 772 106 L 773 106 L 773 106 L 774 105 L 775 105 L 775 105 L 776 104 L 777 104 L 777 104 L 777 103 L 777 103 L 777 102 L 778 102 L 778 102 L 778 101 L 779 101 L 780 101 L 780 100 L 780 100 L 781 99 L 781 99 L 781 99 L 781 98 L 781 98 L 782 98 L 782 97 L 782 97 L 782 97 L 782 96 L 785 96 L 786 95 L 788 95 L 788 95 L 788 94 L 788 94 L 790 94 L 791 93 L 791 93 L 792 92 L 794 92 L 797 92 L 797 91 L 799 91 L 799 91 L 799 90 L 800 90 L 801 90 L 801 89 L 801 89 L 801 88 L 801 88 L 801 88 L 801 87 L 801 87 L 802 87 L 802 86 L 802 86 L 802 86 L 802 85 L 802 85 L 803 84 L 803 84 L 804 84 L 804 83 L 805 83 L 806 83 L 807 82 L 807 82 L 807 82 L 809 81 L 809 81 L 810 80 L 812 80 L 813 80 L 813 79 L 813 79 L 813 79 L 813 78 L 816 78 L 818 77 L 818 77 L 820 77 L 820 76 L 821 76 L 821 76 L 822 75 L 827 75 L 829 75 L 832 74 L 833 74 L 834 73 L 835 73 L 837 73 L 837 72 L 837 72 L 837 72 L 838 71 L 838 71 L 839 71 L 839 70 L 841 70 L 843 69 L 843 69 L 843 69 L 843 68 L 843 68 L 843 68 L 843 67 L 843 67 L 843 66 L 843 66 L 843 66 L 843 65 L 843 65 L 843 65 L 843 64 L 843 64 L 843 64 L 844 63 L 844 63 L 844 62 L 844 62 L 845 62 L 845 61 L 845 61 L 846 61 L 846 60 L 846 60 L 847 60 L 847 59 L 847 59 L 847 58 L 847 58 L 847 58 L 848 57 L 850 57 L 852 57 L 852 56 L 852 56 L 854 55 L 854 55 L 854 55 L 855 54 L 857 54 L 858 54 L 859 53 L 859 53 L 859 53 L 859 52 L 859 52 L 859 51 L 859 51 L 862 51 L 862 50 L 862 50 L 866 50 L 868 49 L 869 49 L 872 49 L 873 48 L 874 48 L 874 47 L 874 47 L 874 47 L 875 46 L 875 46 L 876 46 L 877 45 L 877 45 L 877 44 L 878 44 L 878 44 L 878 43 L 878 43 L 878 43 L 878 42 L 879 42 L 879 42 L 879 41 L 879 41 L 881 40 L 882 40 L 882 40 L 882 39 L 883 39 L 883 39 L 884 38 L 884 38 L 885 38 L 885 37 L 885 37 L 886 36 L 887 36 L 891 36 L 892 35 L 893 35 L 896 35 L 897 34 L 898 34 L 901 33 L 902 33 L 902 33 L 906 32 L 911 32 L 912 32 L 914 31 L 916 31 L 918 31 L 918 30 L 919 30 L 921 29 L 921 29 L 922 29 L 923 28 L 924 28 L 926 28 L 927 27 L 927 27 L 928 27 L 928 26 L 928 26 L 929 25 L 933 25 L 933 25 L 934 24 L 936 24 L 936 24 L 937 23 L 938 23 L 939 22 L 939 22 L 940 22 L 940 21 L 941 21 L 942 21 L 942 20 L 943 20 L 944 20 L 944 19 L 945 19 L 945 18" /><path stroke-width="2" class="series" d="M 58 345 L 61 345 L 76 344 L 76 344 L 76 344 L 76 343 L 76 343 L 76 343 L 76 342 L 76 342 L 77 341 L 77 341 L 77 341 L 77 340 L 77 340 L 77 340 L 77 339 L 77 339 L 77 339 L 78 338 L 79 338 L 79 337 L 80 337 L 81 337 L 81 336 L 81 336 L 81 336 L 82 335 L 84 335 L 84 335 L 85 334 L 86 334 L 91 333 L 91 333 L 91 333 L 91 332 L 91 332 L 94 332 L 95 331 L 96 331 L 98 330 L 102 330 L 103 330 L 110 329 L 112 329 L 116 329 L 120 328 L 121 328 L 135 328 L 136 327 L 136 327 L 138 326 L 139 326 L 139 326 L 139 325 L 139 325 L 139 325 L 139 324 L 139 324 L 139 324 L 139 323 L 139 323 L 139 322 L 139 322 L 139 322 L 139 321 L 139 321 L 139 321 L 139 320 L 139 320 L 139 319 L 139 319 L 139 319 L 139 318 L 139 318 L 139 318 L 139 317 L 139 317 L 139 317 L 139 316 L 139 316 L 139 315 L 139 315 L 139 315 L 140 314 L 140 314 L 140 314 L 140 313 L 140 313 L 140 313 L 140 312 L 140 312 L 140 311 L 140 311 L 140 311 L 140 310 L 140 310 L 140 310 L 140 309 L 140 309 L 140 308 L 141 308 L 141 308 L 141 307 L 141 307 L 142 307 L 142 306 L 142 306 L 142 306 L 142 305 L 142 305 L 142 304 L 142 304 L 142 304 L 142 303 L 142 303 L 142 303 L 142 302 L 142 302 L 142 302 L 142 301 L 142 301 L 142 300 L 143 300 L 143 300 L 143 299 L 143 299 L 147 299 L 147 298 L 147 298 L 148 297 L 148 297 L 151 297 L 153 296 L 154 296 L 156 296 L 156 295 L 158 295 L 158 295 L 159 294 L 161 294 L 161 293 L 162 293 L 163 293 L 164 292 L 165 292 L 165 292 L 165 291 L 165 291 L 166 291 L 167 290 L 167 290 L 168 289 L 168 289 L 168 289 L 169 288 L 171 288 L 172 288 L 174 287 L 175 287 L 176 286 L 177 286 L 177 286 L 177 285 L 179 285 L 185 285 L 185 284 L 186 284 L 192 284 L 192 283 L 192 283 L 192 282 L 192 282 L 193 282 L 195 281 L 196 281 L 196 281 L 203 280 L 204 280 L 206 280 L 208 279 L 210 279 L 210 278 L 211 278 L 216 278 L 221 277 L 227 277 L 228 277 L 228 276 L 228 276 L 229 275 L 230 275 L 238 275 L 242 274 L 242 274 L 246 274 L 246 273 L 247 273 L 256 273 L 256 272 L 257 272 L 257 271 L 258 271 L 261 271 L 262 270 L 264 270 L 265 270 L 267 269 L 272 269 L 273 269 L 273 268 L 274 268 L 274 267 L 274 267 L 277 267 L 282 266 L 294 266 L 298 266 L 300 265 L 301 265 L 302 264 L 303 264 L 303 264 L 303 263 L 303 263 L 303 263 L 303 262 L 303 262 L 304 262 L 304 261 L 304 261 L 304 260 L 304 260 L 304 260 L 304 259 L 305 259 L 306 259 L 307 258 L 307 258 L 307 258 L 307 257 L 308 257 L 308 256 L 308 256 L 308 256 L 308 255 L 309 255 L 309 255 L 310 254 L 310 254 L 311 253 L 311 253 L 311 253 L 311 252 L 311 252 L 312 252 L 312 251 L 312 251 L 312 251 L 313 250 L 313 250 L 314 249 L 314 249 L 316 249 L 316 248 L 318 248 L 320 248 L 320 247 L 321 247 L 321 247 L 321 246 L 321 246 L 321 245 L 322 245 L 323 245 L 325 244 L 325 244 L 326 244 L 327 243 L 329 243 L 329 242 L 331 242 L 332 242 L 332 241 L 333 241 L 333 241 L 337 240 L 338 240 L 339 240 L 342 239 L 344 239 L 347 238 L 348 238 L 348 238 L 349 237 L 350 237 L 350 237 L 352 236 L 354 236 L 356 236 L 356 235 L 357 235 L 359 234 L 359 234 L 359 234 L 359 233 L 359 233 L 360 233 L 360 232 L 361 232 L 361 231 L 361 231 L 362 231 L 366 230 L 371 230 L 371 230 L 371 229 L 374 229 L 376 229 L 377 228 L 377 228 L 378 227 L 379 227 L 379 227 L 379 226 L 379 226 L 380 226 L 380 225 L 380 225 L 380 225 L 380 224 L 381 224 L 383 223 L 383 223 L 384 223 L 384 222 L 384 222 L 384 222 L 384 221 L 384 221 L 384 220 L 384 220 L 384 220 L 385 219 L 385 219 L 388 219 L 391 218 L 391 218 L 392 218 L 402 217 L 403 217 L 406 216 L 409 216 L 415 216 L 417 215 L 419 215 L 419 215 L 419 214 L 419 214 L 420 214 L 420 213 L 420 213 L 420 212 L 421 212 L 422 212 L 430 211 L 432 211 L 435 211 L 441 210 L 445 210 L 448 209 L 451 209 L 455 209 L 455 208 L 464 208 L 473 208 L 473 207 L 480 207 L 480 207 L 485 206 L 486 206 L 488 205 L 489 205 L 489 205 L 489 204 L 492 204 L 493 204 L 496 203 L 499 203 L 500 203 L 501 202 L 502 202 L 505 201 L 508 201 L 508 201 L 512 200 L 516 200 L 517 200 L 517 199 L 519 199 L 519 198 L 520 198 L 523 198 L 526 197 L 528 197 L 531 197 L 531 196 L 536 196 L 537 196 L 539 195 L 544 195 L 544 194 L 548 194 L 549 194 L 549 193 L 551 193 L 551 193 L 553 192 L 553 192 L 556 192 L 558 191 L 559 191 L 559 190 L 560 190 L 567 190 L 567 189 L 568 189 L 568 189 L 568 188 L 569 188 L 569 187 L 570 187 L 570 187 L 572 186 L 572 186 L 574 186 L 574 185 L 575 185 L 576 185 L 576 184 L 576 184 L 577 183 L 577 183 L 577 183 L 578 182 L 578 182 L 578 182 L 579 181 L 579 181 L 581 181 L 581 180 L 581 180 L 582 179 L 582 179 L 584 179 L 585 178 L 585 178 L 586 178 L 587 177 L 588 177 L 588 176 L 589 176 L 589 176 L 591 175 L 591 175 L 591 175 L 592 174 L 592 174 L 592 174 L 592 173 L 593 173 L 593 172 L 594 172 L 597 172 L 598 171 L 600 171 L 600 171 L 602 170 L 604 170 L 604 170 L 606 169 L 609 169 L 611 168 L 613 168 L 614 168 L 614 167 L 615 167 L 615 167 L 615 166 L 616 166 L 616 165 L 617 165 L 617 165 L 617 164 L 617 164 L 619 164 L 620 163 L 620 163 L 621 163 L 621 162 L 623 162 L 624 161 L 624 161 L 625 161 L 626 160 L 628 160 L 631 160 L 634 159 L 634 159 L 634 159 L 635 158 L 637 158 L 639 157 L 639 157 L 639 157 L 640 156 L 640 156 L 642 156 L 645 155 L 645 155 L 645 154 L 645 154 L 647 154 L 648 153 L 648 153 L 648 153 L 651 152 L 654 152 L 654 152 L 658 151 L 659 151 L 659 150 L 663 150 L 664 150 L 667 149 L 668 149 L 670 149 L 671 148 L 671 148 L 672 148 L 672 147 L 672 147 L 672 146 L 673 146 L 673 146 L 673 145 L 674 145 L 674 145 L 674 144 L 676 144 L 677 143 L 677 143 L 682 143 L 682 142 L 687 142 L 689 142 L 690 141 L 690 141 L 691 141 L 694 140 L 694 140 L 695 139 L 695 139 L 696 139 L 696 138 L 696 138 L 696 138 L 696 137 L 697 137 L 697 137 L 697 136 L 697 136 L 697 135 L 698 135 L 698 135 L 700 134 L 700 134 L 700 134 L 701 133 L 702 133 L 702 132 L 702 132 L 703 132 L 704 131 L 707 131 L 707 131 L 707 130 L 707 130 L 707 130 L 708 129 L 708 129 L 708 128 L 710 128 L 712 128 L 714 127 L 717 127 L 718 127 L 720 126 L 723 126 L 727 126 L 727 125 L 730 125 L 734 124 L 734 124 L 734 124 L 739 123 L 741 123 L 741 123 L 742 122 L 742 122 L 751 121 L 751 121 L 752 121 L 752 120 L 753 120 L 753 120 L 754 119 L 755 119 L 755 119 L 756 118 L 756 118 L 756 117 L 757 117 L 757 117 L 757 116 L 757 116 L 757 116 L 758 115 L 758 115 L 759 115 L 761 114 L 762 114 L 762 113 L 762 113 L 763 113 L 763 112 L 764 112 L 765 112 L 766 111 L 766 111 L 766 110 L 766 110 L 768 110 L 768 109 L 770 109 L 770 109 L 771 108 L 771 108 L 772 108 L 772 107 L 772 107 L 772 106 L 773 106 L 773 106 L 774 105 L 775 105 L 775 105 L 776 104 L 777 104 L 777 104 L 777 103 L 777 103 L 777 102 L 778 102 L 778 102 L 778 101 L 779 101 L 780 101 L 780 100 L 780 100 L 781 99 L 781 99 L 781 99 L 781 98 L 781 98 L 782 98 L 782 97 L 782 97 L 782 97 L 782 96 L 785 96 L 786 95 L 788 95 L 788 95 L 788 94 L 788 94 L 790 94 L 791 93 L 791 93 L 792 92 L 794 92 L 797 92 L 797 91 L 799 91 L 799 91 L 799 90 L 800 90 L 801 90 L 801 89 L 801 89 L 801 88 L 801 88 L 801 88 L 801 87 L 801 87 L 802 87 L 802 86 L 802 86 L 802 86 L 802 85 L 802 85 L 803 84 L 803 84 L 804 84 L 804 83 L 805 83 L 806 83 L 807 82 L 807 82 L 807 82 L 809 81 L 809 81 L 810 80 L 812 80 L 813 80 L 813 79 L 813 79 L 813 79 L 813 78 L 816 78 L 818 77 L 818 77 L 820 77 L 820 76 L 821 76 L 821 76 L 822 75 L 827 75 L 829 75 L 832 74 L 833 74 L 834 73 L 835 73 L 837 73 L 837 72 L 837 72 L 837 72 L 838 71 L 838 71 L 839 71 L 839 70 L 841 70 L 843 69 L 843 69 L 843 69 L 843 68 L 843 68 L 843 68 L 843 67 L 843 67 L 843 66 L 843 66 L 843 66 L 843 65 L 843 65 L 843 65 L 843 64 L 843 64 L 843 64 L 844 63 L 844 63 L 844 62 L 844 62 L 845 62 L 845 61 L 845 61 L 846 61 L 846 60 L 846 60 L 847 60 L 847 59 L 847 59 L 847 58 L 847 58 L 847 58 L 848 57 L 850 57 L 852 57 L 852 56 L 852 56 L 854 55 L 854 55 L 854 55 L 855 54 L 857 54 L 858 54 L 859 53 L 859 53 L 859 53 L 859 52 L 859 52 L 859 51 L 859 51 L 862 51 L 862 50 L 862 50 L 866 50 L 868 49 L 869 49 L 872 49 L 873 48 L 874 48 L 874 47 L 874 47 L 874 47 L 875 46 L 875 46 L 876 46 L 877 45 L 877 45 L 877 44 L 878 44 L 878 44 L 878 43 L 878 43 L 878 43 L 878 42 L 879 42 L 879 42 L 879 41 L 879 41 L 881 40 L 882 40 L 882 40 L 882 39 L 883 39 L 883 39 L 884 38 L 884 38 L 885 38 L 885 37 L 885 37 L 886 36 L 887 36 L 891 36 L 892 35 L 893 35 L 896 35 L 897 34 L 898 34 L 901 33 L 902 33 L 902 33 L 906 32 L 911 32 L 912 32 L 914 31 L 916 31 L 918 31 L 918 30 L 919 30 L 921 29 L 921 29 L 922 29 L 923 28 L 924 28 L 926 28 L 927 27 L 927 27 L 928 27 L 928 26 L 928 26 L 929 25 L 933 25 L 933 25 L 934 24 L 936 24 L 936 24 L 937 23 L 938 23 L 939 22 L 939 22 L 940 22 L 940 21 L 941 21 L 942 21 L 942 20 L 943 20 L 944 20 L 944 19 L 945 19 L 945 18"></path><path stroke-width="2" d="M 945 346 L 945.000000 15.000000" /><path stroke-width="2" d="M 945 346 L 945.000000 15.000000"></path><path stroke-width="2" d="M 945 346 L 950 346" /><path stroke-width="2" d="M 945 346 L 950 346"></path><text xmlns="http://www.w3.org/2000/svg" x="955" y="352">0</text><path stroke-width="2" d="M 945 309 L 950 309" /><path stroke-width="2" d="M 945 309 L 950 309"></path><text y="315" xmlns="http://www.w3.org/2000/svg" x="955">100</text><path stroke-width="2" d="M 945 272 L 950 272" /><path stroke-width="2" d="M 945 272 L 950 272"></path><text xmlns="http://www.w3.org/2000/svg" x="955" y="278">200</text><path stroke-width="2" d="M 945 236 L 950 236" /><path stroke-width="2" d="M 945 236 L 950 236"></path><text y="242" xmlns="http://www.w3.org/2000/svg" x="955">300</text><path stroke-width="2" d="M 945 199 L 950 199" /><path stroke-width="2" d="M 945 199 L 950 199"></path><text xmlns="http://www.w3.org/2000/svg" x="955" y="205">400</text><path stroke-width="2" d="M 945 162 L 950 162" /><path stroke-width="2" d="M 945 162 L 950 162"></path><text xmlns="http://www.w3.org/2000/svg" x="955" y="168">500</text><path stroke-width="2" d="M 945 126 L 950 126" /><path stroke-width="2" d="M 945 126 L 950 126"></path><text xmlns="http://www.w3.org/2000/svg" x="955" y="132">600</text><path d="M 945 89 L 950 89" stroke-width="2" /><path stroke-width="2" d="M 945 89 L 950 89"></path><text x="955" y="95" xmlns="http://www.w3.org/2000/svg">700</text><path stroke-width="2" d="M 945 52 L 950 52" /><path stroke-width="2" d="M 945 52 L 950 52"></path><text y="58" xmlns="http://www.w3.org/2000/svg" x="955">800</text><path stroke-width="2" d="M 945 16 L 950 16" /><path stroke-width="2" d="M 945 16 L 950 16"></path><text xmlns="http://www.w3.org/2000/svg" x="955" y="22">900</text><text xmlns="http://www.w3.org/2000/svg" x="987" y="175" transform="rotate(90.00,987,175)">Stargazers</text><path stroke-width="2" d="M 57.000000 346.000000 L 945 346" /><path stroke-width="2" d="M 57.000000 346.000000 L 945 346"></path><path stroke-width="2" d="M 58 346 L 58 351" /><path stroke-width="2" d="M 58 346 L 58 351"></path><text xmlns="http://www.w3.org/2000/svg" x="25" y="368">2023-04-02</text><path stroke-width="2" d="M 157 346 L 157 351" /><path stroke-width="2" d="M 157 346 L 157 351"></path><text xmlns="http://www.w3.org/2000/svg" x="124" y="368">2023-06-20</text><path stroke-width="2" d="M 256 346 L 256 351" /><path stroke-width="2" d="M 256 346 L 256 351"></path><text y="368" xmlns="http://www.w3.org/2000/svg" x="223">2023-09-07</text><path stroke-width="2" d="M 354 346 L 354 351" /><path stroke-width="2" d="M 354 346 L 354 351"></path><text xmlns="http://www.w3.org/2000/svg" x="321" y="368">2023-11-25</text><path stroke-width="2" d="M 453 346 L 453 351" /><path stroke-width="2" d="M 453 346 L 453 351"></path><text xmlns="http://www.w3.org/2000/svg" x="420" y="368">2024-02-11</text><path stroke-width="2" d="M 551 346 L 551 351" /><path stroke-width="2" d="M 551 346 L 551 351"></path><text xmlns="http://www.w3.org/2000/svg" x="518" y="368">2024-04-30</text><path stroke-width="2" d="M 650 346 L 650 351" /><path stroke-width="2" d="M 650 346 L 650 351"></path><text x="617" y="368" xmlns="http://www.w3.org/2000/svg">2024-07-18</text><path stroke-width="2" d="M 748 346 L 748 351" /><path stroke-width="2" d="M 748 346 L 748 351"></path><text xmlns="http://www.w3.org/2000/svg" x="715" y="368">2024-10-05</text><path stroke-width="2" d="M 847 346 L 847 351" /><path stroke-width="2" d="M 847 346 L 847 351"></path><text xmlns="http://www.w3.org/2000/svg" x="814" y="368">2024-12-23</text><path stroke-width="2" d="M 945 346 L 945 351" /><path stroke-width="2" d="M 945 346 L 945 351"></path><text xmlns="http://www.w3.org/2000/svg" x="912" y="368">2025-03-12</text><text xmlns="http://www.w3.org/2000/svg" x="487" y="390">Time</text></svg>