<svg xmlns="http://www.w3.org/2000/svg" xmlns:xlink="http://www.w3.org/1999/xlink" width="1024px" height="400px"><style type="text/css">
path { fill: none; stroke: rgb(51,51,51); }
path.series { stroke: #6b63ff; }
rect.background { fill: rgb(255,255,255); stroke: none; }

text {
	stroke-width: 0;
	stroke: none;
	fill: rgba(51,51,51,1.0);
	font-size: 12.8px;
	font-family: 'Roboto Medium', sans-serif;
}
</style><rect width="1024px" height="400px" class="background" rx="8" x="0" y="0" /><rect rx="8" x="0" y="0" width="1024px" height="400px" class="background"></rect><path stroke-width="2" class="series" d="M 58 345 L 61 344 L 81 344 L 81 343 L 81 343 L 81 342 L 81 342 L 81 341 L 81 341 L 81 340 L 82 340 L 82 339 L 82 339 L 82 338 L 82 338 L 82 337 L 82 337 L 82 336 L 82 336 L 83 335 L 84 335 L 84 334 L 86 333 L 86 333 L 86 332 L 87 332 L 87 331 L 88 331 L 90 330 L 91 330 L 92 329 L 93 329 L 99 328 L 100 328 L 100 327 L 100 327 L 100 326 L 100 326 L 103 325 L 105 325 L 106 324 L 109 324 L 114 323 L 115 322 L 124 322 L 127 321 L 131 321 L 136 320 L 138 320 L 156 319 L 157 319 L 157 318 L 160 318 L 160 317 L 160 317 L 160 316 L 160 316 L 160 315 L 160 315 L 160 314 L 160 314 L 160 313 L 160 313 L 160 312 L 161 311 L 161 311 L 161 310 L 161 310 L 161 309 L 161 309 L 161 308 L 161 308 L 161 307 L 161 307 L 161 306 L 161 306 L 161 305 L 161 305 L 161 304 L 161 304 L 161 303 L 161 303 L 161 302 L 161 302 L 161 301 L 161 300 L 161 300 L 161 299 L 161 299 L 161 298 L 161 298 L 161 297 L 161 297 L 161 296 L 162 296 L 162 295 L 162 295 L 162 294 L 162 294 L 162 293 L 162 293 L 163 292 L 163 292 L 163 291 L 163 291 L 163 290 L 164 289 L 164 289 L 164 288 L 164 288 L 164 287 L 164 287 L 164 286 L 164 286 L 164 285 L 164 285 L 164 284 L 164 284 L 164 283 L 164 283 L 164 282 L 164 282 L 165 281 L 165 281 L 166 280 L 166 280 L 166 279 L 166 278 L 171 278 L 171 277 L 171 277 L 173 276 L 173 276 L 175 275 L 179 275 L 179 274 L 182 274 L 183 273 L 185 273 L 185 272 L 186 272 L 189 271 L 189 271 L 190 270 L 191 270 L 192 269 L 193 269 L 193 268 L 193 267 L 194 267 L 195 266 L 197 266 L 197 265 L 198 265 L 198 264 L 198 264 L 199 263 L 201 263 L 203 262 L 205 262 L 206 261 L 207 261 L 209 260 L 209 260 L 209 259 L 211 259 L 219 258 L 219 258 L 220 257 L 228 256 L 228 256 L 228 255 L 228 255 L 228 254 L 229 254 L 232 253 L 233 253 L 233 252 L 242 252 L 244 251 L 246 251 L 249 250 L 251 250 L 251 249 L 252 249 L 258 248 L 265 248 L 273 247 L 274 247 L 274 246 L 274 245 L 274 245 L 276 244 L 287 244 L 292 243 L 292 243 L 296 242 L 297 242 L 298 241 L 309 241 L 309 240 L 310 240 L 311 239 L 312 239 L 315 238 L 317 238 L 319 237 L 321 237 L 323 236 L 330 236 L 330 235 L 331 234 L 332 234 L 332 233 L 332 233 L 336 232 L 343 232 L 357 231 L 363 231 L 366 230 L 366 230 L 368 229 L 369 229 L 369 228 L 369 228 L 370 227 L 370 227 L 370 226 L 370 226 L 370 225 L 370 225 L 370 224 L 370 223 L 370 223 L 370 222 L 371 222 L 371 221 L 373 221 L 374 220 L 374 220 L 374 219 L 374 219 L 376 218 L 376 218 L 376 217 L 376 217 L 376 216 L 376 216 L 376 215 L 377 215 L 378 214 L 379 214 L 379 213 L 379 212 L 379 212 L 379 211 L 380 211 L 381 210 L 381 210 L 381 209 L 382 209 L 382 208 L 382 208 L 384 207 L 385 207 L 386 206 L 388 206 L 390 205 L 390 205 L 391 204 L 391 204 L 392 203 L 392 203 L 392 202 L 394 201 L 394 201 L 397 200 L 397 200 L 398 199 L 400 199 L 402 198 L 402 198 L 405 197 L 405 197 L 406 196 L 407 196 L 407 195 L 413 195 L 414 194 L 414 194 L 418 193 L 421 193 L 425 192 L 426 192 L 426 191 L 428 190 L 428 190 L 428 189 L 432 189 L 434 188 L 436 188 L 436 187 L 438 187 L 440 186 L 440 186 L 440 185 L 440 185 L 440 184 L 441 184 L 441 183 L 442 183 L 442 182 L 442 182 L 444 181 L 449 181 L 455 180 L 455 179 L 455 179 L 460 178 L 462 178 L 463 177 L 463 177 L 465 176 L 466 176 L 466 175 L 466 175 L 466 174 L 466 174 L 467 173 L 467 173 L 467 172 L 467 172 L 468 171 L 471 171 L 471 170 L 471 170 L 471 169 L 472 168 L 472 168 L 472 167 L 472 167 L 472 166 L 472 166 L 472 165 L 472 165 L 473 164 L 477 164 L 481 163 L 481 163 L 482 162 L 495 162 L 496 161 L 500 161 L 503 160 L 511 160 L 514 159 L 516 159 L 517 158 L 517 157 L 517 157 L 517 156 L 517 156 L 517 155 L 517 155 L 519 154 L 520 154 L 530 153 L 533 153 L 536 152 L 544 152 L 549 151 L 553 151 L 557 150 L 562 150 L 562 149 L 574 149 L 585 148 L 585 148 L 593 147 L 594 146 L 600 146 L 601 145 L 605 145 L 605 144 L 605 144 L 606 143 L 609 143 L 611 142 L 614 142 L 618 141 L 619 141 L 621 140 L 621 140 L 625 139 L 630 139 L 630 138 L 635 138 L 640 137 L 641 137 L 641 136 L 643 135 L 644 135 L 645 134 L 649 134 L 652 133 L 655 133 L 658 132 L 658 132 L 665 131 L 666 131 L 669 130 L 674 130 L 675 129 L 681 129 L 682 128 L 682 128 L 684 127 L 684 127 L 687 126 L 687 126 L 690 125 L 693 124 L 694 124 L 695 123 L 695 123 L 704 122 L 705 122 L 705 121 L 706 121 L 706 120 L 707 120 L 707 119 L 708 119 L 708 118 L 711 118 L 711 117 L 713 117 L 714 116 L 714 116 L 715 115 L 716 115 L 716 114 L 717 113 L 717 113 L 717 112 L 718 112 L 718 111 L 718 111 L 719 110 L 720 110 L 722 109 L 722 109 L 722 108 L 723 108 L 724 107 L 725 107 L 727 106 L 727 106 L 728 105 L 730 105 L 731 104 L 732 104 L 732 103 L 733 102 L 735 102 L 735 101 L 735 101 L 736 100 L 736 100 L 736 99 L 736 99 L 737 98 L 738 98 L 739 97 L 743 97 L 744 96 L 746 96 L 746 95 L 749 95 L 751 94 L 751 94 L 754 93 L 757 92 L 760 92 L 763 91 L 764 91 L 764 90 L 765 90 L 765 89 L 766 89 L 766 88 L 766 88 L 767 87 L 767 87 L 768 86 L 768 86 L 770 85 L 771 85 L 771 84 L 772 84 L 772 83 L 776 83 L 776 82 L 776 82 L 778 81 L 779 80 L 782 80 L 785 79 L 790 79 L 790 78 L 790 78 L 790 77 L 793 77 L 796 76 L 796 76 L 796 75 L 796 75 L 797 74 L 799 74 L 803 73 L 804 73 L 804 72 L 804 72 L 806 71 L 807 71 L 807 70 L 807 69 L 807 69 L 811 68 L 815 68 L 815 67 L 820 67 L 821 66 L 822 66 L 826 65 L 827 65 L 831 64 L 833 64 L 835 63 L 837 63 L 837 62 L 837 62 L 838 61 L 838 61 L 838 60 L 839 60 L 839 59 L 839 58 L 841 58 L 841 57 L 841 57 L 842 56 L 844 56 L 844 55 L 850 55 L 851 54 L 857 54 L 860 53 L 860 53 L 861 52 L 862 52 L 865 51 L 866 51 L 867 50 L 867 50 L 868 49 L 868 49 L 868 48 L 868 47 L 868 47 L 869 46 L 869 46 L 869 45 L 869 45 L 870 44 L 871 44 L 871 43 L 871 43 L 873 42 L 873 42 L 874 41 L 875 41 L 876 40 L 876 40 L 876 39 L 877 39 L 879 38 L 882 38 L 882 37 L 882 36 L 882 36 L 882 35 L 884 35 L 884 34 L 884 34 L 885 33 L 888 33 L 891 32 L 895 32 L 896 31 L 898 31 L 903 30 L 907 30 L 908 29 L 911 29 L 916 28 L 917 28 L 917 27 L 923 27 L 925 26 L 925 25 L 926 25 L 926 24 L 937 24 L 938 23 L 939 23 L 939 22 L 940 22 L 940 21 L 942 21 L 942 20 L 943 20 L 944 19 L 944 19 L 944 18 L 945 18 L 945 17 L 945 17" /><path stroke-width="2" class="series" d="M 58 345 L 61 344 L 81 344 L 81 343 L 81 343 L 81 342 L 81 342 L 81 341 L 81 341 L 81 340 L 82 340 L 82 339 L 82 339 L 82 338 L 82 338 L 82 337 L 82 337 L 82 336 L 82 336 L 83 335 L 84 335 L 84 334 L 86 333 L 86 333 L 86 332 L 87 332 L 87 331 L 88 331 L 90 330 L 91 330 L 92 329 L 93 329 L 99 328 L 100 328 L 100 327 L 100 327 L 100 326 L 100 326 L 103 325 L 105 325 L 106 324 L 109 324 L 114 323 L 115 322 L 124 322 L 127 321 L 131 321 L 136 320 L 138 320 L 156 319 L 157 319 L 157 318 L 160 318 L 160 317 L 160 317 L 160 316 L 160 316 L 160 315 L 160 315 L 160 314 L 160 314 L 160 313 L 160 313 L 160 312 L 161 311 L 161 311 L 161 310 L 161 310 L 161 309 L 161 309 L 161 308 L 161 308 L 161 307 L 161 307 L 161 306 L 161 306 L 161 305 L 161 305 L 161 304 L 161 304 L 161 303 L 161 303 L 161 302 L 161 302 L 161 301 L 161 300 L 161 300 L 161 299 L 161 299 L 161 298 L 161 298 L 161 297 L 161 297 L 161 296 L 162 296 L 162 295 L 162 295 L 162 294 L 162 294 L 162 293 L 162 293 L 163 292 L 163 292 L 163 291 L 163 291 L 163 290 L 164 289 L 164 289 L 164 288 L 164 288 L 164 287 L 164 287 L 164 286 L 164 286 L 164 285 L 164 285 L 164 284 L 164 284 L 164 283 L 164 283 L 164 282 L 164 282 L 165 281 L 165 281 L 166 280 L 166 280 L 166 279 L 166 278 L 171 278 L 171 277 L 171 277 L 173 276 L 173 276 L 175 275 L 179 275 L 179 274 L 182 274 L 183 273 L 185 273 L 185 272 L 186 272 L 189 271 L 189 271 L 190 270 L 191 270 L 192 269 L 193 269 L 193 268 L 193 267 L 194 267 L 195 266 L 197 266 L 197 265 L 198 265 L 198 264 L 198 264 L 199 263 L 201 263 L 203 262 L 205 262 L 206 261 L 207 261 L 209 260 L 209 260 L 209 259 L 211 259 L 219 258 L 219 258 L 220 257 L 228 256 L 228 256 L 228 255 L 228 255 L 228 254 L 229 254 L 232 253 L 233 253 L 233 252 L 242 252 L 244 251 L 246 251 L 249 250 L 251 250 L 251 249 L 252 249 L 258 248 L 265 248 L 273 247 L 274 247 L 274 246 L 274 245 L 274 245 L 276 244 L 287 244 L 292 243 L 292 243 L 296 242 L 297 242 L 298 241 L 309 241 L 309 240 L 310 240 L 311 239 L 312 239 L 315 238 L 317 238 L 319 237 L 321 237 L 323 236 L 330 236 L 330 235 L 331 234 L 332 234 L 332 233 L 332 233 L 336 232 L 343 232 L 357 231 L 363 231 L 366 230 L 366 230 L 368 229 L 369 229 L 369 228 L 369 228 L 370 227 L 370 227 L 370 226 L 370 226 L 370 225 L 370 225 L 370 224 L 370 223 L 370 223 L 370 222 L 371 222 L 371 221 L 373 221 L 374 220 L 374 220 L 374 219 L 374 219 L 376 218 L 376 218 L 376 217 L 376 217 L 376 216 L 376 216 L 376 215 L 377 215 L 378 214 L 379 214 L 379 213 L 379 212 L 379 212 L 379 211 L 380 211 L 381 210 L 381 210 L 381 209 L 382 209 L 382 208 L 382 208 L 384 207 L 385 207 L 386 206 L 388 206 L 390 205 L 390 205 L 391 204 L 391 204 L 392 203 L 392 203 L 392 202 L 394 201 L 394 201 L 397 200 L 397 200 L 398 199 L 400 199 L 402 198 L 402 198 L 405 197 L 405 197 L 406 196 L 407 196 L 407 195 L 413 195 L 414 194 L 414 194 L 418 193 L 421 193 L 425 192 L 426 192 L 426 191 L 428 190 L 428 190 L 428 189 L 432 189 L 434 188 L 436 188 L 436 187 L 438 187 L 440 186 L 440 186 L 440 185 L 440 185 L 440 184 L 441 184 L 441 183 L 442 183 L 442 182 L 442 182 L 444 181 L 449 181 L 455 180 L 455 179 L 455 179 L 460 178 L 462 178 L 463 177 L 463 177 L 465 176 L 466 176 L 466 175 L 466 175 L 466 174 L 466 174 L 467 173 L 467 173 L 467 172 L 467 172 L 468 171 L 471 171 L 471 170 L 471 170 L 471 169 L 472 168 L 472 168 L 472 167 L 472 167 L 472 166 L 472 166 L 472 165 L 472 165 L 473 164 L 477 164 L 481 163 L 481 163 L 482 162 L 495 162 L 496 161 L 500 161 L 503 160 L 511 160 L 514 159 L 516 159 L 517 158 L 517 157 L 517 157 L 517 156 L 517 156 L 517 155 L 517 155 L 519 154 L 520 154 L 530 153 L 533 153 L 536 152 L 544 152 L 549 151 L 553 151 L 557 150 L 562 150 L 562 149 L 574 149 L 585 148 L 585 148 L 593 147 L 594 146 L 600 146 L 601 145 L 605 145 L 605 144 L 605 144 L 606 143 L 609 143 L 611 142 L 614 142 L 618 141 L 619 141 L 621 140 L 621 140 L 625 139 L 630 139 L 630 138 L 635 138 L 640 137 L 641 137 L 641 136 L 643 135 L 644 135 L 645 134 L 649 134 L 652 133 L 655 133 L 658 132 L 658 132 L 665 131 L 666 131 L 669 130 L 674 130 L 675 129 L 681 129 L 682 128 L 682 128 L 684 127 L 684 127 L 687 126 L 687 126 L 690 125 L 693 124 L 694 124 L 695 123 L 695 123 L 704 122 L 705 122 L 705 121 L 706 121 L 706 120 L 707 120 L 707 119 L 708 119 L 708 118 L 711 118 L 711 117 L 713 117 L 714 116 L 714 116 L 715 115 L 716 115 L 716 114 L 717 113 L 717 113 L 717 112 L 718 112 L 718 111 L 718 111 L 719 110 L 720 110 L 722 109 L 722 109 L 722 108 L 723 108 L 724 107 L 725 107 L 727 106 L 727 106 L 728 105 L 730 105 L 731 104 L 732 104 L 732 103 L 733 102 L 735 102 L 735 101 L 735 101 L 736 100 L 736 100 L 736 99 L 736 99 L 737 98 L 738 98 L 739 97 L 743 97 L 744 96 L 746 96 L 746 95 L 749 95 L 751 94 L 751 94 L 754 93 L 757 92 L 760 92 L 763 91 L 764 91 L 764 90 L 765 90 L 765 89 L 766 89 L 766 88 L 766 88 L 767 87 L 767 87 L 768 86 L 768 86 L 770 85 L 771 85 L 771 84 L 772 84 L 772 83 L 776 83 L 776 82 L 776 82 L 778 81 L 779 80 L 782 80 L 785 79 L 790 79 L 790 78 L 790 78 L 790 77 L 793 77 L 796 76 L 796 76 L 796 75 L 796 75 L 797 74 L 799 74 L 803 73 L 804 73 L 804 72 L 804 72 L 806 71 L 807 71 L 807 70 L 807 69 L 807 69 L 811 68 L 815 68 L 815 67 L 820 67 L 821 66 L 822 66 L 826 65 L 827 65 L 831 64 L 833 64 L 835 63 L 837 63 L 837 62 L 837 62 L 838 61 L 838 61 L 838 60 L 839 60 L 839 59 L 839 58 L 841 58 L 841 57 L 841 57 L 842 56 L 844 56 L 844 55 L 850 55 L 851 54 L 857 54 L 860 53 L 860 53 L 861 52 L 862 52 L 865 51 L 866 51 L 867 50 L 867 50 L 868 49 L 868 49 L 868 48 L 868 47 L 868 47 L 869 46 L 869 46 L 869 45 L 869 45 L 870 44 L 871 44 L 871 43 L 871 43 L 873 42 L 873 42 L 874 41 L 875 41 L 876 40 L 876 40 L 876 39 L 877 39 L 879 38 L 882 38 L 882 37 L 882 36 L 882 36 L 882 35 L 884 35 L 884 34 L 884 34 L 885 33 L 888 33 L 891 32 L 895 32 L 896 31 L 898 31 L 903 30 L 907 30 L 908 29 L 911 29 L 916 28 L 917 28 L 917 27 L 923 27 L 925 26 L 925 25 L 926 25 L 926 24 L 937 24 L 938 23 L 939 23 L 939 22 L 940 22 L 940 21 L 942 21 L 942 20 L 943 20 L 944 19 L 944 19 L 944 18 L 945 18 L 945 17 L 945 17"></path><path d="M 945 346 L 945.000000 15.000000" stroke-width="2" /><path stroke-width="2" d="M 945 346 L 945.000000 15.000000"></path><path stroke-width="2" d="M 945 346 L 950 346" /><path stroke-width="2" d="M 945 346 L 950 346"></path><text xmlns="http://www.w3.org/2000/svg" x="955" y="352">0</text><path stroke-width="2" d="M 945 309 L 950 309" /><path stroke-width="2" d="M 945 309 L 950 309"></path><text xmlns="http://www.w3.org/2000/svg" x="955" y="315">70</text><path stroke-width="2" d="M 945 272 L 950 272" /><path stroke-width="2" d="M 945 272 L 950 272"></path><text xmlns="http://www.w3.org/2000/svg" x="955" y="278">140</text><path stroke-width="2" d="M 945 236 L 950 236" /><path stroke-width="2" d="M 945 236 L 950 236"></path><text y="242" xmlns="http://www.w3.org/2000/svg" x="955">210</text><path stroke-width="2" d="M 945 199 L 950 199" /><path stroke-width="2" d="M 945 199 L 950 199"></path><text xmlns="http://www.w3.org/2000/svg" x="955" y="205">280</text><path stroke-width="2" d="M 945 162 L 950 162" /><path d="M 945 162 L 950 162" stroke-width="2"></path><text x="955" y="168" xmlns="http://www.w3.org/2000/svg">350</text><path stroke-width="2" d="M 945 126 L 950 126" /><path stroke-width="2" d="M 945 126 L 950 126"></path><text xmlns="http://www.w3.org/2000/svg" x="955" y="132">420</text><path stroke-width="2" d="M 945 89 L 950 89" /><path stroke-width="2" d="M 945 89 L 950 89"></path><text xmlns="http://www.w3.org/2000/svg" x="955" y="95">490</text><path stroke-width="2" d="M 945 52 L 950 52" /><path stroke-width="2" d="M 945 52 L 950 52"></path><text xmlns="http://www.w3.org/2000/svg" x="955" y="58">560</text><path stroke-width="2" d="M 945 16 L 950 16" /><path stroke-width="2" d="M 945 16 L 950 16"></path><text x="955" y="22" xmlns="http://www.w3.org/2000/svg">630</text><text y="175" transform="rotate(90.00,987,175)" xmlns="http://www.w3.org/2000/svg" x="987">Stargazers</text><path stroke-width="2" d="M 57.000000 346.000000 L 945 346" /><path stroke-width="2" d="M 57.000000 346.000000 L 945 346"></path><path stroke-width="2" d="M 58 346 L 58 351" /><path stroke-width="2" d="M 58 346 L 58 351"></path><text xmlns="http://www.w3.org/2000/svg" x="25" y="368">2023-04-02</text><path stroke-width="2" d="M 157 346 L 157 351" /><path stroke-width="2" d="M 157 346 L 157 351"></path><text xmlns="http://www.w3.org/2000/svg" x="124" y="368">2023-06-03</text><path stroke-width="2" d="M 256 346 L 256 351" /><path stroke-width="2" d="M 256 346 L 256 351"></path><text xmlns="http://www.w3.org/2000/svg" x="223" y="368">2023-08-04</text><path stroke-width="2" d="M 354 346 L 354 351" /><path stroke-width="2" d="M 354 346 L 354 351"></path><text xmlns="http://www.w3.org/2000/svg" x="321" y="368">2023-10-05</text><path stroke-width="2" d="M 453 346 L 453 351" /><path d="M 453 346 L 453 351" stroke-width="2"></path><text xmlns="http://www.w3.org/2000/svg" x="420" y="368">2023-12-06</text><path stroke-width="2" d="M 551 346 L 551 351" /><path stroke-width="2" d="M 551 346 L 551 351"></path><text x="518" y="368" xmlns="http://www.w3.org/2000/svg">2024-02-06</text><path stroke-width="2" d="M 650 346 L 650 351" /><path d="M 650 346 L 650 351" stroke-width="2"></path><text x="617" y="368" xmlns="http://www.w3.org/2000/svg">2024-04-09</text><path stroke-width="2" d="M 748 346 L 748 351" /><path stroke-width="2" d="M 748 346 L 748 351"></path><text xmlns="http://www.w3.org/2000/svg" x="715" y="368">2024-06-10</text><path stroke-width="2" d="M 847 346 L 847 351" /><path stroke-width="2" d="M 847 346 L 847 351"></path><text xmlns="http://www.w3.org/2000/svg" x="814" y="368">2024-08-11</text><path stroke-width="2" d="M 945 346 L 945 351" /><path stroke-width="2" d="M 945 346 L 945 351"></path><text xmlns="http://www.w3.org/2000/svg" x="912" y="368">2024-10-12</text><text xmlns="http://www.w3.org/2000/svg" x="487" y="390">Time</text></svg>