<svg xmlns="http://www.w3.org/2000/svg" xmlns:xlink="http://www.w3.org/1999/xlink" width="1024px" height="400px"><style type="text/css">
path { fill: none; stroke: rgb(51,51,51); }
path.series { stroke: #6b63ff; }
rect.background { fill: rgb(255,255,255); stroke: none; }

text {
	stroke-width: 0;
	stroke: none;
	fill: rgba(51,51,51,1.0);
	font-size: 12.8px;
	font-family: 'Roboto Medium', sans-serif;
}
</style><rect width="1024px" height="400px" class="background" rx="8" x="0" y="0" /><rect x="0" y="0" width="1024px" height="400px" class="background" rx="8"></rect><path stroke-width="2" class="series" d="M 58 345 L 60 345 L 74 345 L 74 344 L 74 344 L 74 344 L 74 343 L 74 343 L 74 343 L 74 342 L 74 342 L 74 342 L 74 341 L 74 341 L 75 341 L 75 340 L 75 340 L 75 340 L 75 339 L 76 339 L 76 339 L 76 338 L 77 338 L 78 338 L 78 337 L 78 337 L 78 337 L 79 336 L 80 336 L 81 336 L 82 335 L 82 335 L 87 335 L 87 334 L 87 334 L 87 334 L 87 333 L 89 333 L 90 333 L 91 332 L 93 332 L 96 332 L 98 331 L 103 331 L 105 331 L 108 330 L 112 330 L 113 330 L 126 329 L 126 329 L 126 329 L 128 328 L 128 328 L 128 328 L 128 327 L 128 327 L 128 327 L 128 326 L 128 326 L 128 326 L 128 325 L 128 325 L 128 325 L 129 324 L 129 324 L 129 324 L 129 323 L 129 323 L 129 323 L 129 322 L 129 322 L 129 322 L 129 321 L 129 321 L 129 321 L 129 320 L 129 320 L 129 320 L 129 319 L 129 319 L 129 319 L 129 318 L 129 318 L 129 318 L 129 317 L 129 317 L 129 317 L 129 316 L 129 316 L 129 316 L 129 315 L 129 315 L 129 315 L 129 314 L 129 314 L 129 314 L 129 313 L 130 313 L 130 313 L 130 313 L 130 312 L 130 312 L 130 312 L 130 311 L 130 311 L 131 311 L 131 310 L 131 310 L 131 310 L 131 309 L 131 309 L 131 309 L 131 308 L 131 308 L 131 308 L 131 307 L 131 307 L 131 307 L 131 306 L 131 306 L 131 306 L 131 305 L 132 305 L 132 305 L 133 304 L 133 304 L 133 304 L 136 303 L 136 303 L 136 303 L 137 302 L 137 302 L 139 302 L 141 301 L 141 301 L 143 301 L 144 300 L 145 300 L 146 300 L 146 299 L 148 299 L 148 299 L 149 298 L 150 298 L 150 298 L 151 297 L 151 297 L 151 297 L 151 296 L 152 296 L 153 296 L 153 295 L 154 295 L 154 295 L 154 294 L 155 294 L 157 294 L 158 293 L 159 293 L 160 293 L 161 292 L 162 292 L 162 292 L 162 291 L 163 291 L 168 291 L 169 290 L 169 290 L 175 290 L 175 289 L 175 289 L 175 289 L 175 288 L 176 288 L 177 288 L 178 287 L 178 287 L 185 287 L 186 286 L 187 286 L 189 286 L 190 285 L 190 285 L 191 285 L 196 284 L 200 284 L 206 284 L 206 283 L 206 283 L 206 283 L 207 282 L 208 282 L 215 282 L 219 281 L 219 281 L 222 281 L 222 280 L 223 280 L 231 280 L 231 280 L 231 279 L 232 279 L 233 279 L 235 278 L 236 278 L 237 278 L 239 277 L 240 277 L 245 277 L 245 276 L 246 276 L 246 276 L 246 275 L 247 275 L 249 275 L 254 274 L 264 274 L 267 274 L 269 273 L 270 273 L 271 273 L 272 272 L 272 272 L 272 272 L 272 271 L 272 271 L 272 271 L 272 270 L 272 270 L 272 270 L 272 269 L 272 269 L 272 269 L 272 268 L 273 268 L 273 268 L 275 267 L 275 267 L 275 267 L 275 266 L 276 266 L 276 266 L 276 265 L 276 265 L 276 265 L 277 264 L 277 264 L 277 264 L 278 263 L 278 263 L 278 263 L 278 262 L 279 262 L 279 262 L 279 261 L 280 261 L 280 261 L 280 260 L 280 260 L 281 260 L 281 259 L 282 259 L 283 259 L 283 258 L 284 258 L 286 258 L 286 257 L 287 257 L 287 257 L 287 256 L 287 256 L 287 256 L 289 255 L 289 255 L 291 255 L 291 254 L 291 254 L 293 254 L 294 253 L 294 253 L 296 253 L 297 252 L 297 252 L 298 252 L 298 251 L 302 251 L 302 251 L 303 250 L 306 250 L 307 250 L 310 249 L 311 249 L 311 249 L 312 248 L 312 248 L 312 248 L 315 247 L 316 247 L 318 247 L 318 247 L 320 246 L 320 246 L 320 246 L 320 245 L 321 245 L 321 245 L 321 244 L 322 244 L 322 244 L 322 243 L 323 243 L 326 243 L 331 242 L 331 242 L 331 242 L 334 241 L 335 241 L 336 241 L 336 240 L 337 240 L 338 240 L 338 239 L 338 239 L 338 239 L 338 238 L 339 238 L 339 238 L 339 237 L 339 237 L 340 237 L 342 236 L 342 236 L 342 236 L 342 235 L 342 235 L 342 235 L 342 234 L 343 234 L 343 234 L 343 233 L 343 233 L 343 233 L 343 232 L 346 232 L 348 232 L 348 231 L 349 231 L 358 231 L 359 230 L 362 230 L 364 230 L 371 229 L 373 229 L 373 229 L 373 228 L 373 228 L 373 228 L 373 227 L 373 227 L 374 227 L 375 226 L 382 226 L 384 226 L 386 225 L 392 225 L 395 225 L 398 224 L 400 224 L 404 224 L 404 223 L 412 223 L 420 223 L 420 222 L 426 222 L 426 222 L 430 221 L 431 221 L 433 221 L 433 220 L 434 220 L 434 220 L 437 219 L 438 219 L 440 219 L 443 218 L 443 218 L 444 218 L 445 217 L 448 217 L 451 217 L 451 216 L 454 216 L 457 216 L 458 215 L 458 215 L 460 215 L 460 214 L 461 214 L 464 214 L 466 214 L 468 213 L 470 213 L 470 213 L 475 212 L 475 212 L 478 212 L 481 211 L 482 211 L 486 211 L 486 210 L 486 210 L 488 210 L 488 209 L 490 209 L 490 209 L 492 208 L 494 208 L 495 208 L 495 207 L 496 207 L 502 207 L 502 206 L 503 206 L 503 206 L 503 205 L 504 205 L 504 205 L 504 204 L 505 204 L 506 204 L 506 203 L 508 203 L 508 203 L 509 202 L 509 202 L 510 202 L 510 201 L 510 201 L 511 201 L 511 200 L 511 200 L 511 200 L 512 199 L 512 199 L 513 199 L 514 198 L 514 198 L 514 198 L 515 197 L 515 197 L 516 197 L 517 196 L 518 196 L 518 196 L 519 195 L 520 195 L 521 195 L 521 194 L 521 194 L 523 194 L 523 193 L 523 193 L 523 193 L 524 192 L 524 192 L 524 192 L 524 191 L 525 191 L 526 191 L 528 190 L 529 190 L 530 190 L 531 189 L 533 189 L 534 189 L 534 188 L 536 188 L 538 188 L 540 187 L 542 187 L 543 187 L 543 186 L 543 186 L 543 186 L 544 185 L 544 185 L 544 185 L 545 184 L 545 184 L 545 184 L 546 183 L 547 183 L 548 183 L 548 182 L 549 182 L 549 182 L 551 181 L 551 181 L 551 181 L 552 181 L 553 180 L 555 180 L 561 180 L 561 179 L 561 179 L 561 179 L 563 178 L 565 178 L 565 178 L 565 177 L 565 177 L 565 177 L 567 176 L 570 176 L 570 176 L 570 175 L 570 175 L 572 175 L 572 174 L 572 174 L 573 174 L 575 173 L 578 173 L 578 173 L 582 172 L 582 172 L 582 172 L 585 171 L 586 171 L 589 171 L 590 170 L 592 170 L 593 170 L 593 169 L 593 169 L 593 169 L 593 168 L 593 168 L 594 168 L 595 167 L 595 167 L 595 167 L 595 166 L 595 166 L 597 166 L 597 165 L 598 165 L 602 165 L 602 164 L 607 164 L 609 164 L 609 163 L 609 163 L 610 163 L 613 162 L 613 162 L 613 162 L 614 161 L 614 161 L 614 161 L 614 160 L 614 160 L 615 160 L 615 159 L 615 159 L 615 159 L 615 158 L 616 158 L 616 158 L 617 157 L 618 157 L 618 157 L 619 156 L 620 156 L 620 156 L 620 155 L 620 155 L 622 155 L 624 154 L 624 154 L 624 154 L 624 153 L 624 153 L 625 153 L 625 152 L 625 152 L 626 152 L 628 151 L 630 151 L 633 151 L 634 150 L 635 150 L 638 150 L 641 149 L 642 149 L 644 149 L 648 148 L 648 148 L 648 148 L 652 148 L 653 147 L 654 147 L 654 147 L 654 146 L 662 146 L 662 146 L 663 145 L 663 145 L 664 145 L 664 144 L 665 144 L 665 144 L 666 143 L 666 143 L 666 143 L 667 142 L 667 142 L 667 142 L 667 141 L 668 141 L 668 141 L 668 140 L 668 140 L 670 140 L 671 139 L 672 139 L 672 139 L 672 138 L 673 138 L 673 138 L 674 137 L 674 137 L 675 137 L 675 136 L 675 136 L 675 136 L 677 135 L 677 135 L 678 135 L 678 134 L 679 134 L 680 134 L 680 133 L 681 133 L 681 133 L 681 132 L 681 132 L 682 132 L 682 131 L 683 131 L 683 131 L 684 130 L 685 130 L 685 130 L 685 129 L 685 129 L 685 129 L 686 128 L 686 128 L 686 128 L 687 127 L 687 127 L 687 127 L 688 126 L 688 126 L 688 126 L 688 125 L 688 125 L 688 125 L 689 124 L 689 124 L 689 124 L 689 123 L 689 123 L 692 123 L 692 122 L 694 122 L 694 122 L 695 121 L 695 121 L 696 121 L 697 120 L 697 120 L 698 120 L 700 119 L 702 119 L 702 119 L 704 118 L 704 118 L 704 118 L 705 117 L 705 117 L 706 117 L 706 116 L 706 116 L 706 116 L 706 115 L 706 115 L 706 115 L 707 115 L 707 114 L 707 114 L 707 114 L 708 113 L 708 113 L 708 113 L 708 112 L 709 112 L 711 112 L 711 111 L 711 111 L 711 111 L 712 110 L 713 110 L 713 110 L 716 109 L 716 109 L 716 109 L 716 108 L 717 108 L 719 108 L 721 107 L 721 107 L 723 107 L 723 106 L 723 106 L 723 106 L 724 105 L 728 105 L 730 105 L 733 104 L 734 104 L 735 104 L 736 103 L 737 103 L 737 103 L 737 102 L 737 102 L 738 102 L 738 101 L 739 101 L 739 101 L 740 100 L 742 100 L 742 100 L 742 99 L 742 99 L 742 99 L 742 98 L 742 98 L 742 98 L 742 97 L 742 97 L 742 97 L 742 96 L 743 96 L 743 96 L 743 95 L 743 95 L 743 95 L 743 94 L 743 94 L 744 94 L 744 93 L 744 93 L 744 93 L 744 92 L 745 92 L 745 92 L 745 91 L 746 91 L 746 91 L 746 90 L 746 90 L 746 90 L 746 89 L 747 89 L 748 89 L 750 88 L 750 88 L 750 88 L 752 87 L 752 87 L 752 87 L 753 86 L 755 86 L 756 86 L 757 85 L 757 85 L 757 85 L 757 84 L 757 84 L 757 84 L 757 83 L 759 83 L 759 83 L 759 82 L 763 82 L 764 82 L 765 82 L 768 81 L 769 81 L 769 81 L 770 80 L 770 80 L 770 80 L 770 79 L 771 79 L 771 79 L 772 78 L 772 78 L 772 78 L 773 77 L 773 77 L 773 77 L 773 76 L 773 76 L 773 76 L 773 75 L 774 75 L 774 75 L 774 74 L 776 74 L 776 74 L 776 73 L 777 73 L 777 73 L 777 72 L 778 72 L 778 72 L 779 71 L 779 71 L 779 71 L 780 70 L 781 70 L 784 70 L 785 69 L 786 69 L 789 69 L 789 68 L 790 68 L 793 68 L 794 67 L 794 67 L 797 67 L 802 66 L 802 66 L 804 66 L 806 65 L 808 65 L 808 65 L 808 64 L 810 64 L 811 64 L 811 63 L 812 63 L 813 63 L 815 62 L 815 62 L 816 62 L 816 61 L 817 61 L 817 61 L 818 60 L 821 60 L 821 60 L 822 59 L 823 59 L 823 59 L 825 58 L 825 58 L 826 58 L 826 57 L 827 57 L 827 57 L 827 56 L 829 56 L 829 56 L 829 55 L 830 55 L 831 55 L 831 54 L 832 54 L 833 54 L 833 53 L 833 53 L 834 53 L 834 52 L 834 52 L 834 52 L 834 51 L 834 51 L 835 51 L 837 50 L 838 50 L 839 50 L 839 49 L 842 49 L 843 49 L 844 49 L 845 48 L 847 48 L 849 48 L 852 47 L 853 47 L 854 47 L 854 46 L 856 46 L 858 46 L 859 45 L 860 45 L 860 45 L 860 44 L 860 44 L 860 44 L 861 43 L 862 43 L 863 43 L 864 42 L 864 42 L 865 42 L 865 41 L 871 41 L 872 41 L 873 40 L 874 40 L 876 40 L 877 39 L 877 39 L 878 39 L 878 38 L 878 38 L 879 38 L 880 37 L 880 37 L 881 37 L 881 36 L 881 36 L 882 36 L 882 35 L 883 35 L 884 35 L 887 34 L 887 34 L 892 34 L 893 33 L 893 33 L 894 33 L 895 32 L 895 32 L 895 32 L 895 31 L 898 31 L 900 31 L 901 30 L 901 30 L 902 30 L 902 29 L 904 29 L 905 29 L 907 28 L 907 28 L 907 28 L 908 27 L 908 27 L 908 27 L 908 26 L 910 26 L 910 26 L 910 25 L 912 25 L 912 25 L 913 24 L 914 24 L 914 24 L 914 23 L 914 23 L 915 23 L 918 22 L 922 22 L 923 22 L 926 21 L 927 21 L 930 21 L 930 20 L 930 20 L 931 20 L 931 19 L 933 19 L 933 19 L 934 18 L 936 18 L 937 18 L 937 17" /><path stroke-width="2" class="series" d="M 58 345 L 60 345 L 74 345 L 74 344 L 74 344 L 74 344 L 74 343 L 74 343 L 74 343 L 74 342 L 74 342 L 74 342 L 74 341 L 74 341 L 75 341 L 75 340 L 75 340 L 75 340 L 75 339 L 76 339 L 76 339 L 76 338 L 77 338 L 78 338 L 78 337 L 78 337 L 78 337 L 79 336 L 80 336 L 81 336 L 82 335 L 82 335 L 87 335 L 87 334 L 87 334 L 87 334 L 87 333 L 89 333 L 90 333 L 91 332 L 93 332 L 96 332 L 98 331 L 103 331 L 105 331 L 108 330 L 112 330 L 113 330 L 126 329 L 126 329 L 126 329 L 128 328 L 128 328 L 128 328 L 128 327 L 128 327 L 128 327 L 128 326 L 128 326 L 128 326 L 128 325 L 128 325 L 128 325 L 129 324 L 129 324 L 129 324 L 129 323 L 129 323 L 129 323 L 129 322 L 129 322 L 129 322 L 129 321 L 129 321 L 129 321 L 129 320 L 129 320 L 129 320 L 129 319 L 129 319 L 129 319 L 129 318 L 129 318 L 129 318 L 129 317 L 129 317 L 129 317 L 129 316 L 129 316 L 129 316 L 129 315 L 129 315 L 129 315 L 129 314 L 129 314 L 129 314 L 129 313 L 130 313 L 130 313 L 130 313 L 130 312 L 130 312 L 130 312 L 130 311 L 130 311 L 131 311 L 131 310 L 131 310 L 131 310 L 131 309 L 131 309 L 131 309 L 131 308 L 131 308 L 131 308 L 131 307 L 131 307 L 131 307 L 131 306 L 131 306 L 131 306 L 131 305 L 132 305 L 132 305 L 133 304 L 133 304 L 133 304 L 136 303 L 136 303 L 136 303 L 137 302 L 137 302 L 139 302 L 141 301 L 141 301 L 143 301 L 144 300 L 145 300 L 146 300 L 146 299 L 148 299 L 148 299 L 149 298 L 150 298 L 150 298 L 151 297 L 151 297 L 151 297 L 151 296 L 152 296 L 153 296 L 153 295 L 154 295 L 154 295 L 154 294 L 155 294 L 157 294 L 158 293 L 159 293 L 160 293 L 161 292 L 162 292 L 162 292 L 162 291 L 163 291 L 168 291 L 169 290 L 169 290 L 175 290 L 175 289 L 175 289 L 175 289 L 175 288 L 176 288 L 177 288 L 178 287 L 178 287 L 185 287 L 186 286 L 187 286 L 189 286 L 190 285 L 190 285 L 191 285 L 196 284 L 200 284 L 206 284 L 206 283 L 206 283 L 206 283 L 207 282 L 208 282 L 215 282 L 219 281 L 219 281 L 222 281 L 222 280 L 223 280 L 231 280 L 231 280 L 231 279 L 232 279 L 233 279 L 235 278 L 236 278 L 237 278 L 239 277 L 240 277 L 245 277 L 245 276 L 246 276 L 246 276 L 246 275 L 247 275 L 249 275 L 254 274 L 264 274 L 267 274 L 269 273 L 270 273 L 271 273 L 272 272 L 272 272 L 272 272 L 272 271 L 272 271 L 272 271 L 272 270 L 272 270 L 272 270 L 272 269 L 272 269 L 272 269 L 272 268 L 273 268 L 273 268 L 275 267 L 275 267 L 275 267 L 275 266 L 276 266 L 276 266 L 276 265 L 276 265 L 276 265 L 277 264 L 277 264 L 277 264 L 278 263 L 278 263 L 278 263 L 278 262 L 279 262 L 279 262 L 279 261 L 280 261 L 280 261 L 280 260 L 280 260 L 281 260 L 281 259 L 282 259 L 283 259 L 283 258 L 284 258 L 286 258 L 286 257 L 287 257 L 287 257 L 287 256 L 287 256 L 287 256 L 289 255 L 289 255 L 291 255 L 291 254 L 291 254 L 293 254 L 294 253 L 294 253 L 296 253 L 297 252 L 297 252 L 298 252 L 298 251 L 302 251 L 302 251 L 303 250 L 306 250 L 307 250 L 310 249 L 311 249 L 311 249 L 312 248 L 312 248 L 312 248 L 315 247 L 316 247 L 318 247 L 318 247 L 320 246 L 320 246 L 320 246 L 320 245 L 321 245 L 321 245 L 321 244 L 322 244 L 322 244 L 322 243 L 323 243 L 326 243 L 331 242 L 331 242 L 331 242 L 334 241 L 335 241 L 336 241 L 336 240 L 337 240 L 338 240 L 338 239 L 338 239 L 338 239 L 338 238 L 339 238 L 339 238 L 339 237 L 339 237 L 340 237 L 342 236 L 342 236 L 342 236 L 342 235 L 342 235 L 342 235 L 342 234 L 343 234 L 343 234 L 343 233 L 343 233 L 343 233 L 343 232 L 346 232 L 348 232 L 348 231 L 349 231 L 358 231 L 359 230 L 362 230 L 364 230 L 371 229 L 373 229 L 373 229 L 373 228 L 373 228 L 373 228 L 373 227 L 373 227 L 374 227 L 375 226 L 382 226 L 384 226 L 386 225 L 392 225 L 395 225 L 398 224 L 400 224 L 404 224 L 404 223 L 412 223 L 420 223 L 420 222 L 426 222 L 426 222 L 430 221 L 431 221 L 433 221 L 433 220 L 434 220 L 434 220 L 437 219 L 438 219 L 440 219 L 443 218 L 443 218 L 444 218 L 445 217 L 448 217 L 451 217 L 451 216 L 454 216 L 457 216 L 458 215 L 458 215 L 460 215 L 460 214 L 461 214 L 464 214 L 466 214 L 468 213 L 470 213 L 470 213 L 475 212 L 475 212 L 478 212 L 481 211 L 482 211 L 486 211 L 486 210 L 486 210 L 488 210 L 488 209 L 490 209 L 490 209 L 492 208 L 494 208 L 495 208 L 495 207 L 496 207 L 502 207 L 502 206 L 503 206 L 503 206 L 503 205 L 504 205 L 504 205 L 504 204 L 505 204 L 506 204 L 506 203 L 508 203 L 508 203 L 509 202 L 509 202 L 510 202 L 510 201 L 510 201 L 511 201 L 511 200 L 511 200 L 511 200 L 512 199 L 512 199 L 513 199 L 514 198 L 514 198 L 514 198 L 515 197 L 515 197 L 516 197 L 517 196 L 518 196 L 518 196 L 519 195 L 520 195 L 521 195 L 521 194 L 521 194 L 523 194 L 523 193 L 523 193 L 523 193 L 524 192 L 524 192 L 524 192 L 524 191 L 525 191 L 526 191 L 528 190 L 529 190 L 530 190 L 531 189 L 533 189 L 534 189 L 534 188 L 536 188 L 538 188 L 540 187 L 542 187 L 543 187 L 543 186 L 543 186 L 543 186 L 544 185 L 544 185 L 544 185 L 545 184 L 545 184 L 545 184 L 546 183 L 547 183 L 548 183 L 548 182 L 549 182 L 549 182 L 551 181 L 551 181 L 551 181 L 552 181 L 553 180 L 555 180 L 561 180 L 561 179 L 561 179 L 561 179 L 563 178 L 565 178 L 565 178 L 565 177 L 565 177 L 565 177 L 567 176 L 570 176 L 570 176 L 570 175 L 570 175 L 572 175 L 572 174 L 572 174 L 573 174 L 575 173 L 578 173 L 578 173 L 582 172 L 582 172 L 582 172 L 585 171 L 586 171 L 589 171 L 590 170 L 592 170 L 593 170 L 593 169 L 593 169 L 593 169 L 593 168 L 593 168 L 594 168 L 595 167 L 595 167 L 595 167 L 595 166 L 595 166 L 597 166 L 597 165 L 598 165 L 602 165 L 602 164 L 607 164 L 609 164 L 609 163 L 609 163 L 610 163 L 613 162 L 613 162 L 613 162 L 614 161 L 614 161 L 614 161 L 614 160 L 614 160 L 615 160 L 615 159 L 615 159 L 615 159 L 615 158 L 616 158 L 616 158 L 617 157 L 618 157 L 618 157 L 619 156 L 620 156 L 620 156 L 620 155 L 620 155 L 622 155 L 624 154 L 624 154 L 624 154 L 624 153 L 624 153 L 625 153 L 625 152 L 625 152 L 626 152 L 628 151 L 630 151 L 633 151 L 634 150 L 635 150 L 638 150 L 641 149 L 642 149 L 644 149 L 648 148 L 648 148 L 648 148 L 652 148 L 653 147 L 654 147 L 654 147 L 654 146 L 662 146 L 662 146 L 663 145 L 663 145 L 664 145 L 664 144 L 665 144 L 665 144 L 666 143 L 666 143 L 666 143 L 667 142 L 667 142 L 667 142 L 667 141 L 668 141 L 668 141 L 668 140 L 668 140 L 670 140 L 671 139 L 672 139 L 672 139 L 672 138 L 673 138 L 673 138 L 674 137 L 674 137 L 675 137 L 675 136 L 675 136 L 675 136 L 677 135 L 677 135 L 678 135 L 678 134 L 679 134 L 680 134 L 680 133 L 681 133 L 681 133 L 681 132 L 681 132 L 682 132 L 682 131 L 683 131 L 683 131 L 684 130 L 685 130 L 685 130 L 685 129 L 685 129 L 685 129 L 686 128 L 686 128 L 686 128 L 687 127 L 687 127 L 687 127 L 688 126 L 688 126 L 688 126 L 688 125 L 688 125 L 688 125 L 689 124 L 689 124 L 689 124 L 689 123 L 689 123 L 692 123 L 692 122 L 694 122 L 694 122 L 695 121 L 695 121 L 696 121 L 697 120 L 697 120 L 698 120 L 700 119 L 702 119 L 702 119 L 704 118 L 704 118 L 704 118 L 705 117 L 705 117 L 706 117 L 706 116 L 706 116 L 706 116 L 706 115 L 706 115 L 706 115 L 707 115 L 707 114 L 707 114 L 707 114 L 708 113 L 708 113 L 708 113 L 708 112 L 709 112 L 711 112 L 711 111 L 711 111 L 711 111 L 712 110 L 713 110 L 713 110 L 716 109 L 716 109 L 716 109 L 716 108 L 717 108 L 719 108 L 721 107 L 721 107 L 723 107 L 723 106 L 723 106 L 723 106 L 724 105 L 728 105 L 730 105 L 733 104 L 734 104 L 735 104 L 736 103 L 737 103 L 737 103 L 737 102 L 737 102 L 738 102 L 738 101 L 739 101 L 739 101 L 740 100 L 742 100 L 742 100 L 742 99 L 742 99 L 742 99 L 742 98 L 742 98 L 742 98 L 742 97 L 742 97 L 742 97 L 742 96 L 743 96 L 743 96 L 743 95 L 743 95 L 743 95 L 743 94 L 743 94 L 744 94 L 744 93 L 744 93 L 744 93 L 744 92 L 745 92 L 745 92 L 745 91 L 746 91 L 746 91 L 746 90 L 746 90 L 746 90 L 746 89 L 747 89 L 748 89 L 750 88 L 750 88 L 750 88 L 752 87 L 752 87 L 752 87 L 753 86 L 755 86 L 756 86 L 757 85 L 757 85 L 757 85 L 757 84 L 757 84 L 757 84 L 757 83 L 759 83 L 759 83 L 759 82 L 763 82 L 764 82 L 765 82 L 768 81 L 769 81 L 769 81 L 770 80 L 770 80 L 770 80 L 770 79 L 771 79 L 771 79 L 772 78 L 772 78 L 772 78 L 773 77 L 773 77 L 773 77 L 773 76 L 773 76 L 773 76 L 773 75 L 774 75 L 774 75 L 774 74 L 776 74 L 776 74 L 776 73 L 777 73 L 777 73 L 777 72 L 778 72 L 778 72 L 779 71 L 779 71 L 779 71 L 780 70 L 781 70 L 784 70 L 785 69 L 786 69 L 789 69 L 789 68 L 790 68 L 793 68 L 794 67 L 794 67 L 797 67 L 802 66 L 802 66 L 804 66 L 806 65 L 808 65 L 808 65 L 808 64 L 810 64 L 811 64 L 811 63 L 812 63 L 813 63 L 815 62 L 815 62 L 816 62 L 816 61 L 817 61 L 817 61 L 818 60 L 821 60 L 821 60 L 822 59 L 823 59 L 823 59 L 825 58 L 825 58 L 826 58 L 826 57 L 827 57 L 827 57 L 827 56 L 829 56 L 829 56 L 829 55 L 830 55 L 831 55 L 831 54 L 832 54 L 833 54 L 833 53 L 833 53 L 834 53 L 834 52 L 834 52 L 834 52 L 834 51 L 834 51 L 835 51 L 837 50 L 838 50 L 839 50 L 839 49 L 842 49 L 843 49 L 844 49 L 845 48 L 847 48 L 849 48 L 852 47 L 853 47 L 854 47 L 854 46 L 856 46 L 858 46 L 859 45 L 860 45 L 860 45 L 860 44 L 860 44 L 860 44 L 861 43 L 862 43 L 863 43 L 864 42 L 864 42 L 865 42 L 865 41 L 871 41 L 872 41 L 873 40 L 874 40 L 876 40 L 877 39 L 877 39 L 878 39 L 878 38 L 878 38 L 879 38 L 880 37 L 880 37 L 881 37 L 881 36 L 881 36 L 882 36 L 882 35 L 883 35 L 884 35 L 887 34 L 887 34 L 892 34 L 893 33 L 893 33 L 894 33 L 895 32 L 895 32 L 895 32 L 895 31 L 898 31 L 900 31 L 901 30 L 901 30 L 902 30 L 902 29 L 904 29 L 905 29 L 907 28 L 907 28 L 907 28 L 908 27 L 908 27 L 908 27 L 908 26 L 910 26 L 910 26 L 910 25 L 912 25 L 912 25 L 913 24 L 914 24 L 914 24 L 914 23 L 914 23 L 915 23 L 918 22 L 922 22 L 923 22 L 926 21 L 927 21 L 930 21 L 930 20 L 930 20 L 931 20 L 931 19 L 933 19 L 933 19 L 934 18 L 936 18 L 937 18 L 937 17"></path><path stroke-width="2" d="M 937 346 L 937.000000 15.000000" /><path stroke-width="2" d="M 937 346 L 937.000000 15.000000"></path><path stroke-width="2" d="M 937 346 L 942 346" /><path stroke-width="2" d="M 937 346 L 942 346"></path><text x="947" y="352" xmlns="http://www.w3.org/2000/svg">0</text><path stroke-width="2" d="M 937 309 L 942 309" /><path stroke-width="2" d="M 937 309 L 942 309"></path><text xmlns="http://www.w3.org/2000/svg" x="947" y="315">112</text><path stroke-width="2" d="M 937 272 L 942 272" /><path stroke-width="2" d="M 937 272 L 942 272"></path><text xmlns="http://www.w3.org/2000/svg" x="947" y="278">223</text><path stroke-width="2" d="M 937 235 L 942 235" /><path d="M 937 235 L 942 235" stroke-width="2"></path><text y="241" xmlns="http://www.w3.org/2000/svg" x="947">334</text><path stroke-width="2" d="M 937 199 L 942 199" /><path stroke-width="2" d="M 937 199 L 942 199"></path><text xmlns="http://www.w3.org/2000/svg" x="947" y="205">445</text><path stroke-width="2" d="M 937 162 L 942 162" /><path stroke-width="2" d="M 937 162 L 942 162"></path><text xmlns="http://www.w3.org/2000/svg" x="947" y="168">556</text><path stroke-width="2" d="M 937 125 L 942 125" /><path stroke-width="2" d="M 937 125 L 942 125"></path><text xmlns="http://www.w3.org/2000/svg" x="947" y="131">667</text><path stroke-width="2" d="M 937 89 L 942 89" /><path d="M 937 89 L 942 89" stroke-width="2"></path><text xmlns="http://www.w3.org/2000/svg" x="947" y="95">778</text><path stroke-width="2" d="M 937 52 L 942 52" /><path stroke-width="2" d="M 937 52 L 942 52"></path><text xmlns="http://www.w3.org/2000/svg" x="947" y="58">889</text><path stroke-width="2" d="M 937 16 L 942 16" /><path stroke-width="2" d="M 937 16 L 942 16"></path><text y="22" xmlns="http://www.w3.org/2000/svg" x="947">1000</text><text x="987" y="175" transform="rotate(90.00,987,175)" xmlns="http://www.w3.org/2000/svg">Stargazers</text><path stroke-width="2" d="M 57.000000 346.000000 L 937 346" /><path stroke-width="2" d="M 57.000000 346.000000 L 937 346"></path><path stroke-width="2" d="M 58 346 L 58 351" /><path stroke-width="2" d="M 58 346 L 58 351"></path><text xmlns="http://www.w3.org/2000/svg" x="25" y="368">2023-04-02</text><path stroke-width="2" d="M 156 346 L 156 351" /><path stroke-width="2" d="M 156 346 L 156 351"></path><text x="123" y="368" xmlns="http://www.w3.org/2000/svg">2023-07-01</text><path stroke-width="2" d="M 254 346 L 254 351" /><path stroke-width="2" d="M 254 346 L 254 351"></path><text y="368" xmlns="http://www.w3.org/2000/svg" x="221">2023-09-28</text><path stroke-width="2" d="M 352 346 L 352 351" /><path d="M 352 346 L 352 351" stroke-width="2"></path><text x="319" y="368" xmlns="http://www.w3.org/2000/svg">2023-12-27</text><path stroke-width="2" d="M 449 346 L 449 351" /><path stroke-width="2" d="M 449 346 L 449 351"></path><text y="368" xmlns="http://www.w3.org/2000/svg" x="416">2024-03-25</text><path stroke-width="2" d="M 547 346 L 547 351" /><path stroke-width="2" d="M 547 346 L 547 351"></path><text xmlns="http://www.w3.org/2000/svg" x="514" y="368">2024-06-23</text><path stroke-width="2" d="M 645 346 L 645 351" /><path stroke-width="2" d="M 645 346 L 645 351"></path><text xmlns="http://www.w3.org/2000/svg" x="612" y="368">2024-09-21</text><path stroke-width="2" d="M 742 346 L 742 351" /><path d="M 742 346 L 742 351" stroke-width="2"></path><text y="368" xmlns="http://www.w3.org/2000/svg" x="709">2024-12-19</text><path d="M 840 346 L 840 351" stroke-width="2" /><path stroke-width="2" d="M 840 346 L 840 351"></path><text xmlns="http://www.w3.org/2000/svg" x="807" y="368">2025-03-19</text><path stroke-width="2" d="M 937 346 L 937 351" /><path stroke-width="2" d="M 937 346 L 937 351"></path><text xmlns="http://www.w3.org/2000/svg" x="904" y="368">2025-06-17</text><text x="483" y="390" xmlns="http://www.w3.org/2000/svg">Time</text></svg>