<svg xmlns="http://www.w3.org/2000/svg" xmlns:xlink="http://www.w3.org/1999/xlink" width="1024px" height="400px"><style type="text/css">
path { fill: none; stroke: rgb(51,51,51); }
path.series { stroke: #6b63ff; }
rect.background { fill: rgb(255,255,255); stroke: none; }

text {
	stroke-width: 0;
	stroke: none;
	fill: rgba(51,51,51,1.0);
	font-size: 12.8px;
	font-family: 'Roboto Medium', sans-serif;
}
</style><rect height="400px" class="background" rx="8" x="0" y="0" width="1024px" /><rect width="1024px" height="400px" class="background" rx="8" x="0" y="0"></rect><path stroke-width="2" class="series" d="M 58 345 L 61 345 L 76 344 L 76 344 L 76 344 L 76 343 L 76 343 L 76 343 L 76 342 L 76 342 L 77 341 L 77 341 L 77 341 L 77 340 L 77 340 L 77 340 L 77 339 L 77 339 L 77 338 L 78 338 L 79 338 L 79 337 L 80 337 L 81 337 L 81 336 L 81 336 L 81 335 L 82 335 L 84 335 L 84 334 L 85 334 L 86 334 L 91 333 L 91 333 L 91 333 L 91 332 L 91 332 L 94 331 L 95 331 L 96 331 L 98 330 L 102 330 L 103 330 L 110 329 L 112 329 L 116 328 L 120 328 L 121 328 L 136 327 L 136 327 L 136 327 L 138 326 L 139 326 L 139 325 L 139 325 L 139 325 L 139 324 L 139 324 L 139 324 L 139 323 L 139 323 L 139 323 L 139 322 L 139 322 L 140 321 L 140 321 L 140 321 L 140 320 L 140 320 L 140 320 L 140 319 L 140 319 L 140 318 L 140 318 L 140 318 L 140 317 L 140 317 L 140 317 L 140 316 L 140 316 L 140 315 L 140 315 L 140 315 L 140 314 L 140 314 L 140 314 L 140 313 L 140 313 L 140 313 L 140 312 L 140 312 L 140 311 L 140 311 L 140 311 L 140 310 L 140 310 L 140 310 L 140 309 L 140 309 L 140 308 L 141 308 L 141 308 L 141 307 L 141 307 L 141 307 L 142 306 L 142 306 L 142 305 L 142 305 L 142 305 L 142 304 L 142 304 L 142 304 L 142 303 L 142 303 L 142 302 L 142 302 L 142 302 L 142 301 L 142 301 L 142 301 L 142 300 L 143 300 L 144 300 L 144 299 L 144 299 L 144 298 L 147 298 L 147 298 L 147 297 L 149 297 L 149 297 L 151 296 L 153 296 L 154 295 L 156 295 L 157 295 L 158 294 L 159 294 L 159 294 L 161 293 L 162 293 L 162 292 L 163 292 L 164 292 L 165 291 L 165 291 L 165 291 L 165 290 L 167 290 L 168 290 L 168 289 L 168 289 L 169 288 L 169 288 L 170 288 L 171 287 L 172 287 L 175 287 L 175 286 L 176 286 L 177 285 L 177 285 L 177 285 L 179 284 L 185 284 L 185 284 L 186 283 L 192 283 L 192 282 L 192 282 L 192 282 L 193 281 L 193 281 L 195 281 L 196 280 L 196 280 L 204 280 L 205 279 L 207 279 L 209 278 L 210 278 L 210 278 L 211 277 L 216 277 L 222 277 L 228 276 L 229 276 L 229 275 L 229 275 L 229 275 L 230 274 L 239 274 L 243 274 L 243 273 L 246 273 L 247 272 L 247 272 L 257 272 L 257 271 L 257 271 L 258 271 L 259 270 L 261 270 L 263 269 L 264 269 L 266 269 L 268 268 L 273 268 L 273 268 L 274 267 L 274 267 L 274 267 L 275 266 L 278 266 L 283 265 L 294 265 L 299 265 L 301 264 L 302 264 L 303 264 L 304 263 L 304 263 L 304 262 L 304 262 L 304 262 L 304 261 L 304 261 L 304 261 L 304 260 L 304 260 L 305 259 L 305 259 L 305 259 L 305 258 L 305 258 L 307 258 L 308 257 L 308 257 L 308 257 L 308 256 L 309 256 L 309 255 L 309 255 L 309 255 L 309 254 L 309 254 L 309 254 L 310 253 L 311 253 L 311 252 L 312 252 L 312 252 L 312 251 L 312 251 L 313 251 L 313 250 L 313 250 L 313 249 L 314 249 L 314 249 L 314 248 L 315 248 L 316 248 L 317 247 L 318 247 L 321 247 L 321 246 L 321 246 L 322 245 L 322 245 L 322 245 L 322 244 L 323 244 L 324 244 L 326 243 L 326 243 L 326 242 L 328 242 L 330 242 L 330 241 L 332 241 L 333 241 L 333 240 L 334 240 L 334 239 L 338 239 L 339 239 L 339 238 L 343 238 L 344 238 L 348 237 L 349 237 L 349 236 L 350 236 L 351 236 L 351 235 L 353 235 L 355 235 L 357 234 L 357 234 L 358 234 L 359 233 L 360 233 L 360 232 L 360 232 L 360 232 L 360 231 L 361 231 L 362 231 L 362 230 L 362 230 L 363 229 L 367 229 L 372 229 L 372 228 L 372 228 L 375 228 L 377 227 L 378 227 L 378 226 L 379 226 L 380 226 L 380 225 L 380 225 L 380 225 L 381 224 L 381 224 L 381 224 L 381 223 L 381 223 L 382 222 L 384 222 L 384 222 L 385 221 L 385 221 L 385 221 L 385 220 L 385 220 L 385 219 L 385 219 L 385 219 L 385 218 L 386 218 L 386 218 L 389 217 L 392 217 L 392 216 L 393 216 L 403 216 L 404 215 L 407 215 L 410 215 L 416 214 L 418 214 L 420 214 L 420 213 L 420 213 L 420 212 L 421 212 L 421 212 L 421 211 L 421 211 L 422 211 L 423 210 L 431 210 L 433 209 L 436 209 L 442 209 L 446 208 L 449 208 L 452 208 L 456 207 L 456 207 L 465 206 L 474 206 L 475 206 L 481 205 L 481 205 L 486 205 L 487 204 L 490 204 L 490 203 L 491 203 L 491 203 L 493 202 L 495 202 L 497 202 L 501 201 L 501 201 L 502 201 L 503 200 L 506 200 L 510 199 L 510 199 L 514 199 L 518 198 L 518 198 L 518 198 L 520 197 L 521 197 L 522 196 L 525 196 L 527 196 L 530 195 L 532 195 L 532 195 L 537 194 L 538 194 L 541 193 L 545 193 L 545 193 L 550 192 L 551 192 L 551 192 L 552 191 L 553 191 L 555 191 L 555 190 L 557 190 L 560 189 L 561 189 L 561 189 L 561 188 L 569 188 L 569 188 L 570 187 L 570 187 L 570 186 L 571 186 L 571 186 L 571 185 L 572 185 L 574 185 L 574 184 L 575 184 L 576 183 L 577 183 L 577 183 L 578 182 L 578 182 L 579 182 L 579 181 L 579 181 L 580 181 L 580 180 L 580 180 L 580 179 L 581 179 L 582 179 L 583 178 L 583 178 L 584 178 L 584 177 L 585 177 L 586 176 L 587 176 L 587 176 L 589 175 L 590 175 L 590 175 L 591 174 L 591 174 L 593 173 L 593 173 L 593 173 L 593 172 L 594 172 L 594 172 L 594 171 L 595 171 L 595 170 L 596 170 L 599 170 L 600 169 L 601 169 L 602 169 L 604 168 L 605 168 L 606 168 L 608 167 L 610 167 L 613 166 L 615 166 L 616 166 L 616 165 L 616 165 L 616 165 L 617 164 L 617 164 L 617 163 L 618 163 L 618 163 L 619 162 L 619 162 L 620 162 L 621 161 L 621 161 L 622 160 L 622 160 L 625 160 L 625 159 L 626 159 L 626 159 L 627 158 L 630 158 L 632 158 L 636 157 L 636 157 L 636 156 L 636 156 L 639 156 L 641 155 L 641 155 L 641 155 L 641 154 L 642 154 L 644 153 L 647 153 L 647 153 L 647 152 L 647 152 L 649 152 L 650 151 L 650 151 L 650 150 L 653 150 L 656 150 L 656 149 L 660 149 L 661 149 L 661 148 L 665 148 L 666 148 L 669 147 L 670 147 L 672 146 L 673 146 L 673 146 L 674 145 L 674 145 L 674 145 L 674 144 L 675 144 L 675 143 L 675 143 L 676 143 L 676 142 L 676 142 L 678 142 L 679 141 L 679 141 L 684 140 L 684 140 L 689 140 L 691 139 L 692 139 L 692 139 L 693 138 L 696 138 L 696 137 L 697 137 L 697 137 L 698 136 L 698 136 L 698 136 L 698 135 L 698 135 L 699 135 L 699 134 L 699 134 L 699 133 L 699 133 L 700 133 L 700 132 L 702 132 L 702 132 L 702 131 L 703 131 L 704 130 L 704 130 L 704 130 L 705 129 L 706 129 L 709 129 L 709 128 L 709 128 L 709 127 L 709 127 L 710 127 L 710 126 L 711 126 L 712 126 L 714 125 L 716 125 L 719 125 L 720 124 L 722 124 L 725 123 L 729 123 L 729 123 L 732 122 L 736 122 L 736 122 L 736 121 L 741 121 L 743 120 L 743 120 L 744 120 L 744 119 L 753 119 L 753 119 L 754 118 L 754 118 L 755 117 L 755 117 L 756 117 L 757 116 L 757 116 L 758 116 L 758 115 L 758 115 L 759 115 L 759 114 L 759 114 L 759 113 L 759 113 L 760 113 L 760 112 L 762 112 L 763 112 L 764 111 L 764 111 L 764 110 L 765 110 L 766 110 L 767 109 L 767 109 L 768 109 L 768 108 L 768 108 L 768 107 L 770 107 L 770 107 L 772 106 L 772 106 L 773 106 L 774 105 L 774 105 L 774 104 L 774 104 L 774 104 L 775 103 L 776 103 L 776 103 L 777 102 L 777 102 L 778 102 L 779 101 L 779 101 L 779 100 L 779 100 L 780 100 L 780 99 L 780 99 L 780 99 L 782 98 L 782 98 L 782 97 L 783 97 L 783 97 L 783 96 L 783 96 L 783 96 L 783 95 L 784 95 L 784 94 L 784 94 L 784 94 L 784 93 L 787 93 L 788 93 L 790 92 L 790 92 L 790 92 L 790 91 L 792 91 L 793 90 L 793 90 L 794 90 L 797 89 L 799 89 L 799 89 L 801 88 L 802 88 L 802 87 L 803 87 L 803 87 L 803 86 L 803 86 L 803 86 L 803 85 L 804 85 L 804 84 L 804 84 L 804 84 L 804 83 L 804 83 L 804 83 L 804 82 L 805 82 L 805 82 L 806 81 L 806 81 L 806 80 L 807 80 L 809 80 L 809 79 L 810 79 L 810 79 L 811 78 L 811 78 L 812 77 L 814 77 L 815 77 L 816 76 L 816 76 L 816 76 L 816 75 L 818 75 L 820 74 L 821 74 L 823 74 L 823 73 L 823 73 L 823 73 L 824 72 L 829 72 L 831 71 L 834 71 L 836 71 L 837 70 L 838 70 L 839 70 L 839 69 L 840 69 L 840 69 L 840 68 L 841 68 L 841 67 L 842 67 L 843 67 L 845 66 L 845 66 L 845 66 L 845 65 L 845 65 L 845 64 L 845 64 L 845 64 L 845 63 L 845 63 L 845 63 L 845 62 L 846 62 L 846 61 L 846 61 L 846 61 L 846 60 L 847 60 L 847 60 L 847 59 L 847 59 L 847 59 L 847 58 L 847 58 L 848 57 L 848 57 L 848 57 L 849 56 L 849 56 L 849 56 L 849 55 L 849 55 L 849 54 L 851 54 L 852 54 L 854 53 L 854 53 L 855 53 L 856 52 L 856 52 L 857 51 L 857 51 L 860 51 L 861 50 L 862 50 L 862 50 L 862 49 L 862 49 L 862 49 L 862 48 L 862 48 L 864 47 L 864 47 L 865 47 L 869 46 L 870 46 L 872 46 L 874 45 L 876 45 L 877 44 L 877 44 L 877 44 L 877 43 L 877 43 L 878 43 L 878 42 L 879 42 L 880 41 L 880 41 L 880 41 L 880 40 L 881 40 L 881 40 L 881 39 L 881 39 L 881 38 L 882 38 L 882 38 L 882 37 L 884 37 L 884 37 L 884 36 L 885 36 L 885 36 L 885 35 L 886 35 L 887 34 L 887 34 L 887 34 L 888 33 L 888 33 L 890 33 L 894 32 L 894 32 L 895 31 L 899 31 L 899 31 L 901 30 L 904 30 L 904 30 L 905 29 L 908 29 L 914 28 L 914 28 L 916 28 L 918 27 L 921 27 L 921 27 L 921 26 L 923 26 L 924 26 L 925 25 L 926 25 L 927 24 L 929 24 L 929 24 L 930 23 L 930 23 L 931 23 L 931 22 L 932 22 L 936 21 L 936 21 L 937 21 L 938 20 L 939 20 L 940 20 L 941 19 L 942 19 L 942 18 L 942 18 L 942 18 L 943 17 L 945 17 L 945 17 L 945 16" /><path stroke-width="2" class="series" d="M 58 345 L 61 345 L 76 344 L 76 344 L 76 344 L 76 343 L 76 343 L 76 343 L 76 342 L 76 342 L 77 341 L 77 341 L 77 341 L 77 340 L 77 340 L 77 340 L 77 339 L 77 339 L 77 338 L 78 338 L 79 338 L 79 337 L 80 337 L 81 337 L 81 336 L 81 336 L 81 335 L 82 335 L 84 335 L 84 334 L 85 334 L 86 334 L 91 333 L 91 333 L 91 333 L 91 332 L 91 332 L 94 331 L 95 331 L 96 331 L 98 330 L 102 330 L 103 330 L 110 329 L 112 329 L 116 328 L 120 328 L 121 328 L 136 327 L 136 327 L 136 327 L 138 326 L 139 326 L 139 325 L 139 325 L 139 325 L 139 324 L 139 324 L 139 324 L 139 323 L 139 323 L 139 323 L 139 322 L 139 322 L 140 321 L 140 321 L 140 321 L 140 320 L 140 320 L 140 320 L 140 319 L 140 319 L 140 318 L 140 318 L 140 318 L 140 317 L 140 317 L 140 317 L 140 316 L 140 316 L 140 315 L 140 315 L 140 315 L 140 314 L 140 314 L 140 314 L 140 313 L 140 313 L 140 313 L 140 312 L 140 312 L 140 311 L 140 311 L 140 311 L 140 310 L 140 310 L 140 310 L 140 309 L 140 309 L 140 308 L 141 308 L 141 308 L 141 307 L 141 307 L 141 307 L 142 306 L 142 306 L 142 305 L 142 305 L 142 305 L 142 304 L 142 304 L 142 304 L 142 303 L 142 303 L 142 302 L 142 302 L 142 302 L 142 301 L 142 301 L 142 301 L 142 300 L 143 300 L 144 300 L 144 299 L 144 299 L 144 298 L 147 298 L 147 298 L 147 297 L 149 297 L 149 297 L 151 296 L 153 296 L 154 295 L 156 295 L 157 295 L 158 294 L 159 294 L 159 294 L 161 293 L 162 293 L 162 292 L 163 292 L 164 292 L 165 291 L 165 291 L 165 291 L 165 290 L 167 290 L 168 290 L 168 289 L 168 289 L 169 288 L 169 288 L 170 288 L 171 287 L 172 287 L 175 287 L 175 286 L 176 286 L 177 285 L 177 285 L 177 285 L 179 284 L 185 284 L 185 284 L 186 283 L 192 283 L 192 282 L 192 282 L 192 282 L 193 281 L 193 281 L 195 281 L 196 280 L 196 280 L 204 280 L 205 279 L 207 279 L 209 278 L 210 278 L 210 278 L 211 277 L 216 277 L 222 277 L 228 276 L 229 276 L 229 275 L 229 275 L 229 275 L 230 274 L 239 274 L 243 274 L 243 273 L 246 273 L 247 272 L 247 272 L 257 272 L 257 271 L 257 271 L 258 271 L 259 270 L 261 270 L 263 269 L 264 269 L 266 269 L 268 268 L 273 268 L 273 268 L 274 267 L 274 267 L 274 267 L 275 266 L 278 266 L 283 265 L 294 265 L 299 265 L 301 264 L 302 264 L 303 264 L 304 263 L 304 263 L 304 262 L 304 262 L 304 262 L 304 261 L 304 261 L 304 261 L 304 260 L 304 260 L 305 259 L 305 259 L 305 259 L 305 258 L 305 258 L 307 258 L 308 257 L 308 257 L 308 257 L 308 256 L 309 256 L 309 255 L 309 255 L 309 255 L 309 254 L 309 254 L 309 254 L 310 253 L 311 253 L 311 252 L 312 252 L 312 252 L 312 251 L 312 251 L 313 251 L 313 250 L 313 250 L 313 249 L 314 249 L 314 249 L 314 248 L 315 248 L 316 248 L 317 247 L 318 247 L 321 247 L 321 246 L 321 246 L 322 245 L 322 245 L 322 245 L 322 244 L 323 244 L 324 244 L 326 243 L 326 243 L 326 242 L 328 242 L 330 242 L 330 241 L 332 241 L 333 241 L 333 240 L 334 240 L 334 239 L 338 239 L 339 239 L 339 238 L 343 238 L 344 238 L 348 237 L 349 237 L 349 236 L 350 236 L 351 236 L 351 235 L 353 235 L 355 235 L 357 234 L 357 234 L 358 234 L 359 233 L 360 233 L 360 232 L 360 232 L 360 232 L 360 231 L 361 231 L 362 231 L 362 230 L 362 230 L 363 229 L 367 229 L 372 229 L 372 228 L 372 228 L 375 228 L 377 227 L 378 227 L 378 226 L 379 226 L 380 226 L 380 225 L 380 225 L 380 225 L 381 224 L 381 224 L 381 224 L 381 223 L 381 223 L 382 222 L 384 222 L 384 222 L 385 221 L 385 221 L 385 221 L 385 220 L 385 220 L 385 219 L 385 219 L 385 219 L 385 218 L 386 218 L 386 218 L 389 217 L 392 217 L 392 216 L 393 216 L 403 216 L 404 215 L 407 215 L 410 215 L 416 214 L 418 214 L 420 214 L 420 213 L 420 213 L 420 212 L 421 212 L 421 212 L 421 211 L 421 211 L 422 211 L 423 210 L 431 210 L 433 209 L 436 209 L 442 209 L 446 208 L 449 208 L 452 208 L 456 207 L 456 207 L 465 206 L 474 206 L 475 206 L 481 205 L 481 205 L 486 205 L 487 204 L 490 204 L 490 203 L 491 203 L 491 203 L 493 202 L 495 202 L 497 202 L 501 201 L 501 201 L 502 201 L 503 200 L 506 200 L 510 199 L 510 199 L 514 199 L 518 198 L 518 198 L 518 198 L 520 197 L 521 197 L 522 196 L 525 196 L 527 196 L 530 195 L 532 195 L 532 195 L 537 194 L 538 194 L 541 193 L 545 193 L 545 193 L 550 192 L 551 192 L 551 192 L 552 191 L 553 191 L 555 191 L 555 190 L 557 190 L 560 189 L 561 189 L 561 189 L 561 188 L 569 188 L 569 188 L 570 187 L 570 187 L 570 186 L 571 186 L 571 186 L 571 185 L 572 185 L 574 185 L 574 184 L 575 184 L 576 183 L 577 183 L 577 183 L 578 182 L 578 182 L 579 182 L 579 181 L 579 181 L 580 181 L 580 180 L 580 180 L 580 179 L 581 179 L 582 179 L 583 178 L 583 178 L 584 178 L 584 177 L 585 177 L 586 176 L 587 176 L 587 176 L 589 175 L 590 175 L 590 175 L 591 174 L 591 174 L 593 173 L 593 173 L 593 173 L 593 172 L 594 172 L 594 172 L 594 171 L 595 171 L 595 170 L 596 170 L 599 170 L 600 169 L 601 169 L 602 169 L 604 168 L 605 168 L 606 168 L 608 167 L 610 167 L 613 166 L 615 166 L 616 166 L 616 165 L 616 165 L 616 165 L 617 164 L 617 164 L 617 163 L 618 163 L 618 163 L 619 162 L 619 162 L 620 162 L 621 161 L 621 161 L 622 160 L 622 160 L 625 160 L 625 159 L 626 159 L 626 159 L 627 158 L 630 158 L 632 158 L 636 157 L 636 157 L 636 156 L 636 156 L 639 156 L 641 155 L 641 155 L 641 155 L 641 154 L 642 154 L 644 153 L 647 153 L 647 153 L 647 152 L 647 152 L 649 152 L 650 151 L 650 151 L 650 150 L 653 150 L 656 150 L 656 149 L 660 149 L 661 149 L 661 148 L 665 148 L 666 148 L 669 147 L 670 147 L 672 146 L 673 146 L 673 146 L 674 145 L 674 145 L 674 145 L 674 144 L 675 144 L 675 143 L 675 143 L 676 143 L 676 142 L 676 142 L 678 142 L 679 141 L 679 141 L 684 140 L 684 140 L 689 140 L 691 139 L 692 139 L 692 139 L 693 138 L 696 138 L 696 137 L 697 137 L 697 137 L 698 136 L 698 136 L 698 136 L 698 135 L 698 135 L 699 135 L 699 134 L 699 134 L 699 133 L 699 133 L 700 133 L 700 132 L 702 132 L 702 132 L 702 131 L 703 131 L 704 130 L 704 130 L 704 130 L 705 129 L 706 129 L 709 129 L 709 128 L 709 128 L 709 127 L 709 127 L 710 127 L 710 126 L 711 126 L 712 126 L 714 125 L 716 125 L 719 125 L 720 124 L 722 124 L 725 123 L 729 123 L 729 123 L 732 122 L 736 122 L 736 122 L 736 121 L 741 121 L 743 120 L 743 120 L 744 120 L 744 119 L 753 119 L 753 119 L 754 118 L 754 118 L 755 117 L 755 117 L 756 117 L 757 116 L 757 116 L 758 116 L 758 115 L 758 115 L 759 115 L 759 114 L 759 114 L 759 113 L 759 113 L 760 113 L 760 112 L 762 112 L 763 112 L 764 111 L 764 111 L 764 110 L 765 110 L 766 110 L 767 109 L 767 109 L 768 109 L 768 108 L 768 108 L 768 107 L 770 107 L 770 107 L 772 106 L 772 106 L 773 106 L 774 105 L 774 105 L 774 104 L 774 104 L 774 104 L 775 103 L 776 103 L 776 103 L 777 102 L 777 102 L 778 102 L 779 101 L 779 101 L 779 100 L 779 100 L 780 100 L 780 99 L 780 99 L 780 99 L 782 98 L 782 98 L 782 97 L 783 97 L 783 97 L 783 96 L 783 96 L 783 96 L 783 95 L 784 95 L 784 94 L 784 94 L 784 94 L 784 93 L 787 93 L 788 93 L 790 92 L 790 92 L 790 92 L 790 91 L 792 91 L 793 90 L 793 90 L 794 90 L 797 89 L 799 89 L 799 89 L 801 88 L 802 88 L 802 87 L 803 87 L 803 87 L 803 86 L 803 86 L 803 86 L 803 85 L 804 85 L 804 84 L 804 84 L 804 84 L 804 83 L 804 83 L 804 83 L 804 82 L 805 82 L 805 82 L 806 81 L 806 81 L 806 80 L 807 80 L 809 80 L 809 79 L 810 79 L 810 79 L 811 78 L 811 78 L 812 77 L 814 77 L 815 77 L 816 76 L 816 76 L 816 76 L 816 75 L 818 75 L 820 74 L 821 74 L 823 74 L 823 73 L 823 73 L 823 73 L 824 72 L 829 72 L 831 71 L 834 71 L 836 71 L 837 70 L 838 70 L 839 70 L 839 69 L 840 69 L 840 69 L 840 68 L 841 68 L 841 67 L 842 67 L 843 67 L 845 66 L 845 66 L 845 66 L 845 65 L 845 65 L 845 64 L 845 64 L 845 64 L 845 63 L 845 63 L 845 63 L 845 62 L 846 62 L 846 61 L 846 61 L 846 61 L 846 60 L 847 60 L 847 60 L 847 59 L 847 59 L 847 59 L 847 58 L 847 58 L 848 57 L 848 57 L 848 57 L 849 56 L 849 56 L 849 56 L 849 55 L 849 55 L 849 54 L 851 54 L 852 54 L 854 53 L 854 53 L 855 53 L 856 52 L 856 52 L 857 51 L 857 51 L 860 51 L 861 50 L 862 50 L 862 50 L 862 49 L 862 49 L 862 49 L 862 48 L 862 48 L 864 47 L 864 47 L 865 47 L 869 46 L 870 46 L 872 46 L 874 45 L 876 45 L 877 44 L 877 44 L 877 44 L 877 43 L 877 43 L 878 43 L 878 42 L 879 42 L 880 41 L 880 41 L 880 41 L 880 40 L 881 40 L 881 40 L 881 39 L 881 39 L 881 38 L 882 38 L 882 38 L 882 37 L 884 37 L 884 37 L 884 36 L 885 36 L 885 36 L 885 35 L 886 35 L 887 34 L 887 34 L 887 34 L 888 33 L 888 33 L 890 33 L 894 32 L 894 32 L 895 31 L 899 31 L 899 31 L 901 30 L 904 30 L 904 30 L 905 29 L 908 29 L 914 28 L 914 28 L 916 28 L 918 27 L 921 27 L 921 27 L 921 26 L 923 26 L 924 26 L 925 25 L 926 25 L 927 24 L 929 24 L 929 24 L 930 23 L 930 23 L 931 23 L 931 22 L 932 22 L 936 21 L 936 21 L 937 21 L 938 20 L 939 20 L 940 20 L 941 19 L 942 19 L 942 18 L 942 18 L 942 18 L 943 17 L 945 17 L 945 17 L 945 16"></path><path stroke-width="2" d="M 945 346 L 945.000000 15.000000" /><path stroke-width="2" d="M 945 346 L 945.000000 15.000000"></path><path stroke-width="2" d="M 945 346 L 950 346" /><path stroke-width="2" d="M 945 346 L 950 346"></path><text xmlns="http://www.w3.org/2000/svg" x="955" y="352">0</text><path stroke-width="2" d="M 945 309 L 950 309" /><path stroke-width="2" d="M 945 309 L 950 309"></path><text y="315" xmlns="http://www.w3.org/2000/svg" x="955">99</text><path d="M 945 272 L 950 272" stroke-width="2" /><path d="M 945 272 L 950 272" stroke-width="2"></path><text xmlns="http://www.w3.org/2000/svg" x="955" y="278">198</text><path stroke-width="2" d="M 945 235 L 950 235" /><path stroke-width="2" d="M 945 235 L 950 235"></path><text xmlns="http://www.w3.org/2000/svg" x="955" y="241">297</text><path stroke-width="2" d="M 945 199 L 950 199" /><path d="M 945 199 L 950 199" stroke-width="2"></path><text xmlns="http://www.w3.org/2000/svg" x="955" y="205">396</text><path stroke-width="2" d="M 945 162 L 950 162" /><path stroke-width="2" d="M 945 162 L 950 162"></path><text xmlns="http://www.w3.org/2000/svg" x="955" y="168">495</text><path stroke-width="2" d="M 945 125 L 950 125" /><path d="M 945 125 L 950 125" stroke-width="2"></path><text xmlns="http://www.w3.org/2000/svg" x="955" y="131">594</text><path stroke-width="2" d="M 945 89 L 950 89" /><path stroke-width="2" d="M 945 89 L 950 89"></path><text xmlns="http://www.w3.org/2000/svg" x="955" y="95">693</text><path stroke-width="2" d="M 945 52 L 950 52" /><path stroke-width="2" d="M 945 52 L 950 52"></path><text x="955" y="58" xmlns="http://www.w3.org/2000/svg">792</text><path stroke-width="2" d="M 945 16 L 950 16" /><path stroke-width="2" d="M 945 16 L 950 16"></path><text xmlns="http://www.w3.org/2000/svg" x="955" y="22">890</text><text xmlns="http://www.w3.org/2000/svg" x="987" y="175" transform="rotate(90.00,987,175)">Stargazers</text><path stroke-width="2" d="M 57.000000 346.000000 L 945 346" /><path stroke-width="2" d="M 57.000000 346.000000 L 945 346"></path><path stroke-width="2" d="M 58 346 L 58 351" /><path stroke-width="2" d="M 58 346 L 58 351"></path><text xmlns="http://www.w3.org/2000/svg" x="25" y="368">2023-04-02</text><path stroke-width="2" d="M 157 346 L 157 351" /><path stroke-width="2" d="M 157 346 L 157 351"></path><text xmlns="http://www.w3.org/2000/svg" x="124" y="368">2023-06-20</text><path stroke-width="2" d="M 256 346 L 256 351" /><path stroke-width="2" d="M 256 346 L 256 351"></path><text xmlns="http://www.w3.org/2000/svg" x="223" y="368">2023-09-06</text><path stroke-width="2" d="M 354 346 L 354 351" /><path stroke-width="2" d="M 354 346 L 354 351"></path><text xmlns="http://www.w3.org/2000/svg" x="321" y="368">2023-11-24</text><path stroke-width="2" d="M 453 346 L 453 351" /><path stroke-width="2" d="M 453 346 L 453 351"></path><text xmlns="http://www.w3.org/2000/svg" x="420" y="368">2024-02-10</text><path stroke-width="2" d="M 551 346 L 551 351" /><path stroke-width="2" d="M 551 346 L 551 351"></path><text xmlns="http://www.w3.org/2000/svg" x="518" y="368">2024-04-29</text><path stroke-width="2" d="M 650 346 L 650 351" /><path d="M 650 346 L 650 351" stroke-width="2"></path><text xmlns="http://www.w3.org/2000/svg" x="617" y="368">2024-07-17</text><path d="M 748 346 L 748 351" stroke-width="2" /><path stroke-width="2" d="M 748 346 L 748 351"></path><text xmlns="http://www.w3.org/2000/svg" x="715" y="368">2024-10-03</text><path stroke-width="2" d="M 847 346 L 847 351" /><path stroke-width="2" d="M 847 346 L 847 351"></path><text xmlns="http://www.w3.org/2000/svg" x="814" y="368">2024-12-21</text><path stroke-width="2" d="M 945 346 L 945 351" /><path stroke-width="2" d="M 945 346 L 945 351"></path><text xmlns="http://www.w3.org/2000/svg" x="912" y="368">2025-03-10</text><text xmlns="http://www.w3.org/2000/svg" x="487" y="390">Time</text></svg>