<svg xmlns="http://www.w3.org/2000/svg" xmlns:xlink="http://www.w3.org/1999/xlink" width="1024px" height="400px"><style type="text/css">
path { fill: none; stroke: rgb(51,51,51); }
path.series { stroke: #6b63ff; }
rect.background { fill: rgb(255,255,255); stroke: none; }

text {
	stroke-width: 0;
	stroke: none;
	fill: rgba(51,51,51,1.0);
	font-size: 12.8px;
	font-family: 'Roboto Medium', sans-serif;
}
</style><rect class="background" rx="8" x="0" y="0" width="1024px" height="400px" /><rect x="0" y="0" width="1024px" height="400px" class="background" rx="8"></rect><path stroke-width="2" class="series" d="M 58 345 L 60 345 L 70 345 L 71 344 L 71 344 L 71 344 L 71 344 L 71 343 L 71 343 L 71 343 L 71 343 L 71 342 L 71 342 L 71 342 L 71 342 L 71 341 L 71 341 L 71 341 L 71 341 L 72 340 L 72 340 L 72 340 L 73 340 L 73 339 L 73 339 L 73 339 L 74 339 L 74 338 L 75 338 L 76 338 L 76 338 L 77 337 L 80 337 L 80 337 L 80 337 L 80 336 L 80 336 L 82 336 L 83 336 L 84 335 L 85 335 L 88 335 L 89 335 L 93 334 L 95 334 L 97 334 L 100 334 L 101 333 L 111 333 L 111 333 L 112 333 L 112 332 L 112 332 L 112 332 L 112 332 L 113 331 L 113 331 L 113 331 L 113 331 L 113 330 L 113 330 L 113 330 L 113 330 L 113 329 L 113 329 L 113 329 L 113 328 L 113 328 L 113 328 L 113 328 L 113 327 L 113 327 L 113 327 L 113 327 L 113 326 L 113 326 L 113 326 L 113 326 L 113 325 L 113 325 L 113 325 L 113 325 L 113 324 L 113 324 L 113 324 L 113 324 L 113 323 L 113 323 L 113 323 L 113 323 L 113 322 L 113 322 L 113 322 L 113 322 L 113 321 L 113 321 L 113 321 L 113 321 L 114 320 L 114 320 L 114 320 L 114 320 L 114 319 L 114 319 L 115 319 L 115 319 L 115 318 L 115 318 L 115 318 L 115 318 L 115 317 L 115 317 L 115 317 L 115 317 L 115 316 L 115 316 L 115 316 L 115 316 L 115 315 L 115 315 L 115 315 L 115 315 L 116 314 L 116 314 L 116 314 L 116 314 L 118 313 L 118 313 L 118 313 L 119 313 L 119 312 L 121 312 L 122 312 L 123 311 L 124 311 L 125 311 L 126 311 L 126 310 L 126 310 L 128 310 L 128 310 L 128 309 L 129 309 L 129 309 L 130 309 L 130 308 L 130 308 L 130 308 L 131 308 L 132 307 L 132 307 L 132 307 L 133 307 L 133 306 L 133 306 L 134 306 L 135 306 L 137 305 L 137 305 L 138 305 L 138 305 L 138 304 L 138 304 L 139 304 L 144 304 L 144 303 L 144 303 L 148 303 L 148 303 L 148 302 L 148 302 L 149 302 L 149 302 L 150 301 L 151 301 L 151 301 L 156 301 L 157 300 L 158 300 L 160 300 L 161 300 L 161 299 L 161 299 L 165 299 L 168 299 L 172 298 L 173 298 L 173 298 L 173 298 L 173 297 L 180 297 L 182 297 L 183 297 L 185 296 L 185 296 L 185 296 L 192 295 L 192 295 L 192 295 L 192 295 L 193 294 L 196 294 L 197 294 L 198 294 L 199 293 L 203 293 L 203 293 L 204 293 L 204 292 L 204 292 L 204 292 L 206 292 L 209 291 L 217 291 L 220 291 L 222 291 L 222 290 L 224 290 L 224 290 L 224 290 L 224 289 L 224 289 L 224 289 L 224 289 L 224 288 L 224 288 L 224 288 L 224 288 L 224 287 L 224 287 L 224 287 L 225 287 L 226 286 L 226 286 L 226 286 L 226 286 L 227 285 L 227 285 L 227 285 L 227 285 L 227 284 L 227 284 L 227 284 L 228 284 L 228 283 L 229 283 L 229 283 L 229 283 L 229 282 L 229 282 L 229 282 L 230 282 L 230 281 L 230 281 L 230 281 L 231 281 L 231 280 L 232 280 L 232 280 L 233 280 L 235 279 L 235 279 L 235 279 L 235 278 L 235 278 L 235 278 L 236 278 L 237 277 L 237 277 L 238 277 L 238 277 L 239 276 L 240 276 L 241 276 L 241 276 L 242 275 L 243 275 L 243 275 L 244 275 L 244 274 L 247 274 L 247 274 L 247 274 L 250 273 L 251 273 L 253 273 L 254 273 L 254 272 L 255 272 L 255 272 L 255 272 L 257 271 L 258 271 L 259 271 L 259 271 L 261 270 L 261 270 L 261 270 L 261 270 L 261 269 L 262 269 L 262 269 L 262 269 L 262 268 L 262 268 L 263 268 L 266 268 L 269 267 L 269 267 L 269 267 L 272 267 L 273 266 L 273 266 L 273 266 L 274 266 L 275 265 L 275 265 L 275 265 L 275 265 L 275 264 L 275 264 L 276 264 L 276 264 L 276 263 L 278 263 L 278 263 L 278 262 L 278 262 L 278 262 L 278 262 L 278 261 L 278 261 L 278 261 L 278 261 L 278 260 L 278 260 L 281 260 L 283 260 L 283 259 L 283 259 L 290 259 L 291 259 L 293 258 L 295 258 L 300 258 L 302 258 L 302 257 L 302 257 L 302 257 L 302 257 L 302 256 L 302 256 L 303 256 L 304 256 L 309 255 L 310 255 L 312 255 L 316 255 L 319 254 L 321 254 L 323 254 L 326 254 L 326 253 L 332 253 L 338 253 L 338 253 L 343 252 L 343 252 L 346 252 L 347 252 L 349 251 L 349 251 L 349 251 L 349 251 L 351 250 L 352 250 L 353 250 L 356 250 L 356 249 L 357 249 L 357 249 L 360 249 L 362 248 L 362 248 L 365 248 L 367 248 L 368 247 L 368 247 L 369 247 L 369 247 L 370 246 L 372 246 L 374 246 L 376 245 L 377 245 L 377 245 L 380 245 L 381 244 L 383 244 L 386 244 L 386 244 L 389 243 L 389 243 L 390 243 L 391 243 L 391 242 L 392 242 L 392 242 L 394 242 L 396 241 L 396 241 L 396 241 L 397 241 L 402 240 L 402 240 L 402 240 L 402 240 L 403 239 L 403 239 L 403 239 L 403 239 L 404 238 L 405 238 L 405 238 L 406 238 L 406 237 L 407 237 L 407 237 L 408 237 L 408 236 L 408 236 L 408 236 L 408 236 L 409 235 L 409 235 L 409 235 L 409 235 L 410 234 L 411 234 L 411 234 L 411 234 L 412 233 L 412 233 L 413 233 L 414 233 L 414 232 L 414 232 L 415 232 L 416 232 L 416 231 L 416 231 L 418 231 L 418 231 L 418 230 L 418 230 L 418 230 L 419 229 L 419 229 L 419 229 L 419 229 L 420 228 L 422 228 L 423 228 L 424 228 L 424 227 L 425 227 L 426 227 L 427 227 L 428 226 L 430 226 L 431 226 L 433 226 L 433 225 L 433 225 L 434 225 L 434 225 L 434 224 L 434 224 L 434 224 L 435 224 L 435 223 L 435 223 L 435 223 L 436 223 L 437 222 L 437 222 L 438 222 L 438 222 L 440 221 L 440 221 L 440 221 L 440 221 L 441 220 L 443 220 L 447 220 L 447 220 L 447 219 L 447 219 L 449 219 L 450 219 L 450 218 L 450 218 L 450 218 L 451 218 L 452 217 L 454 217 L 454 217 L 454 217 L 454 216 L 456 216 L 456 216 L 456 216 L 456 215 L 458 215 L 460 215 L 461 215 L 463 214 L 463 214 L 464 214 L 466 214 L 467 213 L 469 213 L 470 213 L 471 212 L 472 212 L 472 212 L 472 212 L 472 211 L 472 211 L 472 211 L 473 211 L 473 210 L 473 210 L 474 210 L 474 210 L 474 209 L 475 209 L 476 209 L 476 209 L 479 208 L 479 208 L 483 208 L 484 208 L 484 207 L 485 207 L 485 207 L 487 207 L 488 206 L 488 206 L 488 206 L 488 206 L 488 205 L 488 205 L 488 205 L 489 205 L 489 204 L 489 204 L 489 204 L 489 204 L 490 203 L 490 203 L 491 203 L 491 203 L 492 202 L 492 202 L 493 202 L 493 202 L 493 201 L 493 201 L 494 201 L 496 201 L 496 200 L 496 200 L 496 200 L 496 200 L 497 199 L 497 199 L 497 199 L 498 199 L 499 198 L 501 198 L 503 198 L 504 198 L 505 197 L 507 197 L 509 197 L 510 196 L 511 196 L 514 196 L 514 196 L 514 195 L 518 195 L 519 195 L 519 195 L 519 194 L 520 194 L 525 194 L 526 194 L 526 193 L 526 193 L 527 193 L 527 193 L 528 192 L 528 192 L 528 192 L 529 192 L 529 191 L 529 191 L 530 191 L 530 191 L 530 190 L 530 190 L 530 190 L 530 190 L 530 189 L 531 189 L 532 189 L 533 189 L 533 188 L 533 188 L 534 188 L 534 188 L 535 187 L 535 187 L 536 187 L 536 187 L 536 186 L 536 186 L 537 186 L 537 186 L 538 185 L 538 185 L 539 185 L 539 185 L 540 184 L 540 184 L 540 184 L 540 184 L 540 183 L 541 183 L 541 183 L 542 183 L 542 182 L 543 182 L 543 182 L 543 182 L 543 181 L 543 181 L 543 181 L 544 181 L 544 180 L 544 180 L 545 180 L 545 179 L 545 179 L 545 179 L 546 179 L 546 178 L 546 178 L 546 178 L 546 178 L 546 177 L 546 177 L 546 177 L 547 177 L 547 176 L 548 176 L 549 176 L 551 176 L 551 175 L 551 175 L 551 175 L 552 175 L 552 174 L 553 174 L 553 174 L 555 174 L 557 173 L 557 173 L 558 173 L 558 173 L 558 172 L 559 172 L 559 172 L 559 172 L 559 171 L 559 171 L 559 171 L 560 171 L 560 170 L 560 170 L 560 170 L 560 170 L 560 169 L 560 169 L 561 169 L 561 169 L 561 168 L 561 168 L 562 168 L 563 168 L 563 167 L 564 167 L 564 167 L 565 167 L 565 166 L 565 166 L 568 166 L 568 166 L 568 165 L 568 165 L 568 165 L 569 165 L 571 164 L 571 164 L 572 164 L 572 163 L 573 163 L 573 163 L 573 163 L 577 162 L 578 162 L 580 162 L 581 162 L 582 161 L 583 161 L 583 161 L 584 161 L 584 160 L 584 160 L 584 160 L 585 160 L 585 159 L 585 159 L 586 159 L 588 159 L 588 158 L 588 158 L 588 158 L 588 158 L 588 157 L 588 157 L 588 157 L 588 157 L 588 156 L 588 156 L 588 156 L 588 156 L 588 155 L 588 155 L 588 155 L 588 155 L 588 154 L 589 154 L 589 154 L 589 154 L 589 153 L 589 153 L 589 153 L 589 153 L 589 152 L 589 152 L 590 152 L 590 152 L 590 151 L 590 151 L 590 151 L 590 151 L 591 150 L 592 150 L 594 150 L 594 150 L 594 149 L 595 149 L 595 149 L 595 149 L 596 148 L 597 148 L 598 148 L 599 148 L 599 147 L 599 147 L 599 147 L 599 146 L 599 146 L 599 146 L 600 146 L 601 145 L 601 145 L 603 145 L 605 145 L 605 144 L 607 144 L 608 144 L 609 144 L 609 143 L 609 143 L 609 143 L 609 143 L 610 142 L 610 142 L 610 142 L 611 142 L 611 141 L 611 141 L 611 141 L 611 141 L 611 140 L 611 140 L 612 140 L 612 140 L 612 139 L 612 139 L 612 139 L 613 139 L 614 138 L 614 138 L 614 138 L 615 138 L 615 137 L 615 137 L 616 137 L 616 137 L 616 136 L 616 136 L 617 136 L 617 136 L 620 135 L 621 135 L 623 135 L 624 135 L 625 134 L 627 134 L 627 134 L 628 134 L 630 133 L 634 133 L 634 133 L 635 133 L 637 132 L 638 132 L 639 132 L 639 132 L 640 131 L 640 131 L 641 131 L 642 130 L 643 130 L 644 130 L 644 130 L 644 129 L 645 129 L 645 129 L 645 129 L 646 128 L 648 128 L 649 128 L 649 128 L 650 127 L 650 127 L 651 127 L 652 127 L 653 126 L 653 126 L 653 126 L 653 126 L 654 125 L 654 125 L 654 125 L 655 125 L 656 124 L 656 124 L 656 124 L 657 124 L 657 123 L 658 123 L 658 123 L 658 123 L 659 122 L 659 122 L 659 122 L 659 122 L 659 121 L 659 121 L 661 121 L 662 121 L 663 120 L 665 120 L 665 120 L 666 120 L 667 119 L 669 119 L 670 119 L 672 119 L 673 118 L 674 118 L 674 118 L 676 118 L 677 117 L 679 117 L 679 117 L 679 117 L 679 116 L 679 116 L 679 116 L 680 116 L 681 115 L 681 115 L 682 115 L 682 115 L 682 114 L 687 114 L 688 114 L 688 113 L 690 113 L 691 113 L 692 113 L 692 112 L 692 112 L 692 112 L 693 112 L 694 111 L 694 111 L 694 111 L 695 111 L 695 110 L 695 110 L 696 110 L 696 110 L 697 109 L 700 109 L 700 109 L 703 109 L 704 108 L 704 108 L 705 108 L 706 108 L 706 107 L 706 107 L 706 107 L 708 107 L 709 106 L 711 106 L 711 106 L 711 106 L 711 105 L 712 105 L 713 105 L 715 105 L 715 104 L 715 104 L 716 104 L 716 104 L 716 103 L 716 103 L 717 103 L 717 103 L 718 102 L 719 102 L 719 102 L 720 102 L 720 101 L 720 101 L 720 101 L 721 101 L 721 100 L 724 100 L 727 100 L 727 100 L 730 99 L 731 99 L 733 99 L 733 99 L 734 98 L 734 98 L 735 98 L 735 97 L 736 97 L 738 97 L 739 97 L 741 96 L 745 96 L 745 96 L 745 96 L 745 95 L 746 95 L 747 95 L 747 95 L 747 94 L 754 94 L 756 94 L 756 94 L 757 93 L 759 93 L 761 93 L 762 93 L 763 92 L 763 92 L 764 92 L 765 92 L 769 91 L 770 91 L 771 91 L 772 91 L 774 90 L 774 90 L 774 90 L 774 90 L 775 89 L 775 89 L 775 89 L 777 89 L 779 88 L 779 88 L 779 88 L 780 88 L 782 87 L 784 87 L 786 87 L 786 87 L 788 86 L 788 86 L 788 86 L 788 86 L 788 85 L 788 85 L 788 85 L 790 85 L 791 84 L 791 84 L 792 84 L 792 84 L 792 83 L 792 83 L 792 83 L 792 83 L 792 82 L 793 82 L 793 82 L 793 82 L 794 81 L 794 81 L 794 81 L 794 80 L 794 80 L 795 80 L 795 80 L 796 79 L 800 79 L 801 79 L 802 79 L 802 78 L 802 78 L 802 78 L 802 78 L 802 77 L 803 77 L 803 77 L 803 77 L 803 76 L 803 76 L 803 76 L 803 76 L 803 75 L 803 75 L 803 75 L 803 75 L 803 74 L 803 74 L 804 74 L 804 74 L 804 73 L 805 73 L 805 73 L 806 73 L 807 72 L 808 72 L 808 72 L 809 72 L 809 71 L 810 71 L 810 71 L 811 71 L 812 70 L 813 70 L 814 70 L 814 70 L 815 69 L 815 69 L 815 69 L 817 69 L 817 68 L 818 68 L 819 68 L 821 68 L 821 67 L 821 67 L 821 67 L 822 67 L 822 66 L 823 66 L 824 66 L 825 66 L 827 65 L 830 65 L 830 65 L 831 64 L 835 64 L 835 64 L 835 64 L 836 63 L 836 63 L 836 63 L 836 63 L 837 62 L 838 62 L 839 62 L 839 62 L 839 61 L 840 61 L 840 61 L 840 61 L 844 60 L 844 60 L 845 60 L 846 60 L 847 59 L 847 59 L 852 59 L 853 59 L 854 58 L 854 58 L 854 58 L 855 58 L 857 57 L 857 57 L 857 57 L 858 57 L 858 56 L 858 56 L 861 56 L 863 56 L 863 55 L 865 55 L 866 55 L 866 55 L 867 54 L 867 54 L 867 54 L 868 54 L 868 53 L 869 53 L 870 53 L 871 53 L 872 52 L 872 52 L 872 52 L 875 52 L 876 51 L 877 51 L 877 51 L 878 51 L 882 50 L 884 50 L 888 50 L 889 50 L 891 49 L 892 49 L 892 49 L 893 49 L 893 48 L 895 48 L 895 48 L 896 47 L 896 47 L 897 47 L 897 47 L 897 46 L 898 46 L 898 46 L 898 46 L 899 45 L 900 45 L 900 45 L 901 45 L 901 44 L 902 44 L 902 44 L 903 44 L 903 43 L 903 43 L 903 43 L 904 43 L 908 42 L 908 42 L 908 42 L 911 42 L 912 41 L 914 41 L 921 41 L 922 41 L 922 40 L 924 40 L 924 40 L 925 40 L 925 39 L 925 39 L 927 39 L 928 39 L 928 38 L 930 38 L 931 38 L 932 38 L 932 37 L 933 37 L 933 37 L 933 37 L 934 36 L 935 36 L 937 36 L 937 36 L 937 35" /><path stroke-width="2" class="series" d="M 58 345 L 60 345 L 70 345 L 71 344 L 71 344 L 71 344 L 71 344 L 71 343 L 71 343 L 71 343 L 71 343 L 71 342 L 71 342 L 71 342 L 71 342 L 71 341 L 71 341 L 71 341 L 71 341 L 72 340 L 72 340 L 72 340 L 73 340 L 73 339 L 73 339 L 73 339 L 74 339 L 74 338 L 75 338 L 76 338 L 76 338 L 77 337 L 80 337 L 80 337 L 80 337 L 80 336 L 80 336 L 82 336 L 83 336 L 84 335 L 85 335 L 88 335 L 89 335 L 93 334 L 95 334 L 97 334 L 100 334 L 101 333 L 111 333 L 111 333 L 112 333 L 112 332 L 112 332 L 112 332 L 112 332 L 113 331 L 113 331 L 113 331 L 113 331 L 113 330 L 113 330 L 113 330 L 113 330 L 113 329 L 113 329 L 113 329 L 113 328 L 113 328 L 113 328 L 113 328 L 113 327 L 113 327 L 113 327 L 113 327 L 113 326 L 113 326 L 113 326 L 113 326 L 113 325 L 113 325 L 113 325 L 113 325 L 113 324 L 113 324 L 113 324 L 113 324 L 113 323 L 113 323 L 113 323 L 113 323 L 113 322 L 113 322 L 113 322 L 113 322 L 113 321 L 113 321 L 113 321 L 113 321 L 114 320 L 114 320 L 114 320 L 114 320 L 114 319 L 114 319 L 115 319 L 115 319 L 115 318 L 115 318 L 115 318 L 115 318 L 115 317 L 115 317 L 115 317 L 115 317 L 115 316 L 115 316 L 115 316 L 115 316 L 115 315 L 115 315 L 115 315 L 115 315 L 116 314 L 116 314 L 116 314 L 116 314 L 118 313 L 118 313 L 118 313 L 119 313 L 119 312 L 121 312 L 122 312 L 123 311 L 124 311 L 125 311 L 126 311 L 126 310 L 126 310 L 128 310 L 128 310 L 128 309 L 129 309 L 129 309 L 130 309 L 130 308 L 130 308 L 130 308 L 131 308 L 132 307 L 132 307 L 132 307 L 133 307 L 133 306 L 133 306 L 134 306 L 135 306 L 137 305 L 137 305 L 138 305 L 138 305 L 138 304 L 138 304 L 139 304 L 144 304 L 144 303 L 144 303 L 148 303 L 148 303 L 148 302 L 148 302 L 149 302 L 149 302 L 150 301 L 151 301 L 151 301 L 156 301 L 157 300 L 158 300 L 160 300 L 161 300 L 161 299 L 161 299 L 165 299 L 168 299 L 172 298 L 173 298 L 173 298 L 173 298 L 173 297 L 180 297 L 182 297 L 183 297 L 185 296 L 185 296 L 185 296 L 192 295 L 192 295 L 192 295 L 192 295 L 193 294 L 196 294 L 197 294 L 198 294 L 199 293 L 203 293 L 203 293 L 204 293 L 204 292 L 204 292 L 204 292 L 206 292 L 209 291 L 217 291 L 220 291 L 222 291 L 222 290 L 224 290 L 224 290 L 224 290 L 224 289 L 224 289 L 224 289 L 224 289 L 224 288 L 224 288 L 224 288 L 224 288 L 224 287 L 224 287 L 224 287 L 225 287 L 226 286 L 226 286 L 226 286 L 226 286 L 227 285 L 227 285 L 227 285 L 227 285 L 227 284 L 227 284 L 227 284 L 228 284 L 228 283 L 229 283 L 229 283 L 229 283 L 229 282 L 229 282 L 229 282 L 230 282 L 230 281 L 230 281 L 230 281 L 231 281 L 231 280 L 232 280 L 232 280 L 233 280 L 235 279 L 235 279 L 235 279 L 235 278 L 235 278 L 235 278 L 236 278 L 237 277 L 237 277 L 238 277 L 238 277 L 239 276 L 240 276 L 241 276 L 241 276 L 242 275 L 243 275 L 243 275 L 244 275 L 244 274 L 247 274 L 247 274 L 247 274 L 250 273 L 251 273 L 253 273 L 254 273 L 254 272 L 255 272 L 255 272 L 255 272 L 257 271 L 258 271 L 259 271 L 259 271 L 261 270 L 261 270 L 261 270 L 261 270 L 261 269 L 262 269 L 262 269 L 262 269 L 262 268 L 262 268 L 263 268 L 266 268 L 269 267 L 269 267 L 269 267 L 272 267 L 273 266 L 273 266 L 273 266 L 274 266 L 275 265 L 275 265 L 275 265 L 275 265 L 275 264 L 275 264 L 276 264 L 276 264 L 276 263 L 278 263 L 278 263 L 278 262 L 278 262 L 278 262 L 278 262 L 278 261 L 278 261 L 278 261 L 278 261 L 278 260 L 278 260 L 281 260 L 283 260 L 283 259 L 283 259 L 290 259 L 291 259 L 293 258 L 295 258 L 300 258 L 302 258 L 302 257 L 302 257 L 302 257 L 302 257 L 302 256 L 302 256 L 303 256 L 304 256 L 309 255 L 310 255 L 312 255 L 316 255 L 319 254 L 321 254 L 323 254 L 326 254 L 326 253 L 332 253 L 338 253 L 338 253 L 343 252 L 343 252 L 346 252 L 347 252 L 349 251 L 349 251 L 349 251 L 349 251 L 351 250 L 352 250 L 353 250 L 356 250 L 356 249 L 357 249 L 357 249 L 360 249 L 362 248 L 362 248 L 365 248 L 367 248 L 368 247 L 368 247 L 369 247 L 369 247 L 370 246 L 372 246 L 374 246 L 376 245 L 377 245 L 377 245 L 380 245 L 381 244 L 383 244 L 386 244 L 386 244 L 389 243 L 389 243 L 390 243 L 391 243 L 391 242 L 392 242 L 392 242 L 394 242 L 396 241 L 396 241 L 396 241 L 397 241 L 402 240 L 402 240 L 402 240 L 402 240 L 403 239 L 403 239 L 403 239 L 403 239 L 404 238 L 405 238 L 405 238 L 406 238 L 406 237 L 407 237 L 407 237 L 408 237 L 408 236 L 408 236 L 408 236 L 408 236 L 409 235 L 409 235 L 409 235 L 409 235 L 410 234 L 411 234 L 411 234 L 411 234 L 412 233 L 412 233 L 413 233 L 414 233 L 414 232 L 414 232 L 415 232 L 416 232 L 416 231 L 416 231 L 418 231 L 418 231 L 418 230 L 418 230 L 418 230 L 419 229 L 419 229 L 419 229 L 419 229 L 420 228 L 422 228 L 423 228 L 424 228 L 424 227 L 425 227 L 426 227 L 427 227 L 428 226 L 430 226 L 431 226 L 433 226 L 433 225 L 433 225 L 434 225 L 434 225 L 434 224 L 434 224 L 434 224 L 435 224 L 435 223 L 435 223 L 435 223 L 436 223 L 437 222 L 437 222 L 438 222 L 438 222 L 440 221 L 440 221 L 440 221 L 440 221 L 441 220 L 443 220 L 447 220 L 447 220 L 447 219 L 447 219 L 449 219 L 450 219 L 450 218 L 450 218 L 450 218 L 451 218 L 452 217 L 454 217 L 454 217 L 454 217 L 454 216 L 456 216 L 456 216 L 456 216 L 456 215 L 458 215 L 460 215 L 461 215 L 463 214 L 463 214 L 464 214 L 466 214 L 467 213 L 469 213 L 470 213 L 471 212 L 472 212 L 472 212 L 472 212 L 472 211 L 472 211 L 472 211 L 473 211 L 473 210 L 473 210 L 474 210 L 474 210 L 474 209 L 475 209 L 476 209 L 476 209 L 479 208 L 479 208 L 483 208 L 484 208 L 484 207 L 485 207 L 485 207 L 487 207 L 488 206 L 488 206 L 488 206 L 488 206 L 488 205 L 488 205 L 488 205 L 489 205 L 489 204 L 489 204 L 489 204 L 489 204 L 490 203 L 490 203 L 491 203 L 491 203 L 492 202 L 492 202 L 493 202 L 493 202 L 493 201 L 493 201 L 494 201 L 496 201 L 496 200 L 496 200 L 496 200 L 496 200 L 497 199 L 497 199 L 497 199 L 498 199 L 499 198 L 501 198 L 503 198 L 504 198 L 505 197 L 507 197 L 509 197 L 510 196 L 511 196 L 514 196 L 514 196 L 514 195 L 518 195 L 519 195 L 519 195 L 519 194 L 520 194 L 525 194 L 526 194 L 526 193 L 526 193 L 527 193 L 527 193 L 528 192 L 528 192 L 528 192 L 529 192 L 529 191 L 529 191 L 530 191 L 530 191 L 530 190 L 530 190 L 530 190 L 530 190 L 530 189 L 531 189 L 532 189 L 533 189 L 533 188 L 533 188 L 534 188 L 534 188 L 535 187 L 535 187 L 536 187 L 536 187 L 536 186 L 536 186 L 537 186 L 537 186 L 538 185 L 538 185 L 539 185 L 539 185 L 540 184 L 540 184 L 540 184 L 540 184 L 540 183 L 541 183 L 541 183 L 542 183 L 542 182 L 543 182 L 543 182 L 543 182 L 543 181 L 543 181 L 543 181 L 544 181 L 544 180 L 544 180 L 545 180 L 545 179 L 545 179 L 545 179 L 546 179 L 546 178 L 546 178 L 546 178 L 546 178 L 546 177 L 546 177 L 546 177 L 547 177 L 547 176 L 548 176 L 549 176 L 551 176 L 551 175 L 551 175 L 551 175 L 552 175 L 552 174 L 553 174 L 553 174 L 555 174 L 557 173 L 557 173 L 558 173 L 558 173 L 558 172 L 559 172 L 559 172 L 559 172 L 559 171 L 559 171 L 559 171 L 560 171 L 560 170 L 560 170 L 560 170 L 560 170 L 560 169 L 560 169 L 561 169 L 561 169 L 561 168 L 561 168 L 562 168 L 563 168 L 563 167 L 564 167 L 564 167 L 565 167 L 565 166 L 565 166 L 568 166 L 568 166 L 568 165 L 568 165 L 568 165 L 569 165 L 571 164 L 571 164 L 572 164 L 572 163 L 573 163 L 573 163 L 573 163 L 577 162 L 578 162 L 580 162 L 581 162 L 582 161 L 583 161 L 583 161 L 584 161 L 584 160 L 584 160 L 584 160 L 585 160 L 585 159 L 585 159 L 586 159 L 588 159 L 588 158 L 588 158 L 588 158 L 588 158 L 588 157 L 588 157 L 588 157 L 588 157 L 588 156 L 588 156 L 588 156 L 588 156 L 588 155 L 588 155 L 588 155 L 588 155 L 588 154 L 589 154 L 589 154 L 589 154 L 589 153 L 589 153 L 589 153 L 589 153 L 589 152 L 589 152 L 590 152 L 590 152 L 590 151 L 590 151 L 590 151 L 590 151 L 591 150 L 592 150 L 594 150 L 594 150 L 594 149 L 595 149 L 595 149 L 595 149 L 596 148 L 597 148 L 598 148 L 599 148 L 599 147 L 599 147 L 599 147 L 599 146 L 599 146 L 599 146 L 600 146 L 601 145 L 601 145 L 603 145 L 605 145 L 605 144 L 607 144 L 608 144 L 609 144 L 609 143 L 609 143 L 609 143 L 609 143 L 610 142 L 610 142 L 610 142 L 611 142 L 611 141 L 611 141 L 611 141 L 611 141 L 611 140 L 611 140 L 612 140 L 612 140 L 612 139 L 612 139 L 612 139 L 613 139 L 614 138 L 614 138 L 614 138 L 615 138 L 615 137 L 615 137 L 616 137 L 616 137 L 616 136 L 616 136 L 617 136 L 617 136 L 620 135 L 621 135 L 623 135 L 624 135 L 625 134 L 627 134 L 627 134 L 628 134 L 630 133 L 634 133 L 634 133 L 635 133 L 637 132 L 638 132 L 639 132 L 639 132 L 640 131 L 640 131 L 641 131 L 642 130 L 643 130 L 644 130 L 644 130 L 644 129 L 645 129 L 645 129 L 645 129 L 646 128 L 648 128 L 649 128 L 649 128 L 650 127 L 650 127 L 651 127 L 652 127 L 653 126 L 653 126 L 653 126 L 653 126 L 654 125 L 654 125 L 654 125 L 655 125 L 656 124 L 656 124 L 656 124 L 657 124 L 657 123 L 658 123 L 658 123 L 658 123 L 659 122 L 659 122 L 659 122 L 659 122 L 659 121 L 659 121 L 661 121 L 662 121 L 663 120 L 665 120 L 665 120 L 666 120 L 667 119 L 669 119 L 670 119 L 672 119 L 673 118 L 674 118 L 674 118 L 676 118 L 677 117 L 679 117 L 679 117 L 679 117 L 679 116 L 679 116 L 679 116 L 680 116 L 681 115 L 681 115 L 682 115 L 682 115 L 682 114 L 687 114 L 688 114 L 688 113 L 690 113 L 691 113 L 692 113 L 692 112 L 692 112 L 692 112 L 693 112 L 694 111 L 694 111 L 694 111 L 695 111 L 695 110 L 695 110 L 696 110 L 696 110 L 697 109 L 700 109 L 700 109 L 703 109 L 704 108 L 704 108 L 705 108 L 706 108 L 706 107 L 706 107 L 706 107 L 708 107 L 709 106 L 711 106 L 711 106 L 711 106 L 711 105 L 712 105 L 713 105 L 715 105 L 715 104 L 715 104 L 716 104 L 716 104 L 716 103 L 716 103 L 717 103 L 717 103 L 718 102 L 719 102 L 719 102 L 720 102 L 720 101 L 720 101 L 720 101 L 721 101 L 721 100 L 724 100 L 727 100 L 727 100 L 730 99 L 731 99 L 733 99 L 733 99 L 734 98 L 734 98 L 735 98 L 735 97 L 736 97 L 738 97 L 739 97 L 741 96 L 745 96 L 745 96 L 745 96 L 745 95 L 746 95 L 747 95 L 747 95 L 747 94 L 754 94 L 756 94 L 756 94 L 757 93 L 759 93 L 761 93 L 762 93 L 763 92 L 763 92 L 764 92 L 765 92 L 769 91 L 770 91 L 771 91 L 772 91 L 774 90 L 774 90 L 774 90 L 774 90 L 775 89 L 775 89 L 775 89 L 777 89 L 779 88 L 779 88 L 779 88 L 780 88 L 782 87 L 784 87 L 786 87 L 786 87 L 788 86 L 788 86 L 788 86 L 788 86 L 788 85 L 788 85 L 788 85 L 790 85 L 791 84 L 791 84 L 792 84 L 792 84 L 792 83 L 792 83 L 792 83 L 792 83 L 792 82 L 793 82 L 793 82 L 793 82 L 794 81 L 794 81 L 794 81 L 794 80 L 794 80 L 795 80 L 795 80 L 796 79 L 800 79 L 801 79 L 802 79 L 802 78 L 802 78 L 802 78 L 802 78 L 802 77 L 803 77 L 803 77 L 803 77 L 803 76 L 803 76 L 803 76 L 803 76 L 803 75 L 803 75 L 803 75 L 803 75 L 803 74 L 803 74 L 804 74 L 804 74 L 804 73 L 805 73 L 805 73 L 806 73 L 807 72 L 808 72 L 808 72 L 809 72 L 809 71 L 810 71 L 810 71 L 811 71 L 812 70 L 813 70 L 814 70 L 814 70 L 815 69 L 815 69 L 815 69 L 817 69 L 817 68 L 818 68 L 819 68 L 821 68 L 821 67 L 821 67 L 821 67 L 822 67 L 822 66 L 823 66 L 824 66 L 825 66 L 827 65 L 830 65 L 830 65 L 831 64 L 835 64 L 835 64 L 835 64 L 836 63 L 836 63 L 836 63 L 836 63 L 837 62 L 838 62 L 839 62 L 839 62 L 839 61 L 840 61 L 840 61 L 840 61 L 844 60 L 844 60 L 845 60 L 846 60 L 847 59 L 847 59 L 852 59 L 853 59 L 854 58 L 854 58 L 854 58 L 855 58 L 857 57 L 857 57 L 857 57 L 858 57 L 858 56 L 858 56 L 861 56 L 863 56 L 863 55 L 865 55 L 866 55 L 866 55 L 867 54 L 867 54 L 867 54 L 868 54 L 868 53 L 869 53 L 870 53 L 871 53 L 872 52 L 872 52 L 872 52 L 875 52 L 876 51 L 877 51 L 877 51 L 878 51 L 882 50 L 884 50 L 888 50 L 889 50 L 891 49 L 892 49 L 892 49 L 893 49 L 893 48 L 895 48 L 895 48 L 896 47 L 896 47 L 897 47 L 897 47 L 897 46 L 898 46 L 898 46 L 898 46 L 899 45 L 900 45 L 900 45 L 901 45 L 901 44 L 902 44 L 902 44 L 903 44 L 903 43 L 903 43 L 903 43 L 904 43 L 908 42 L 908 42 L 908 42 L 911 42 L 912 41 L 914 41 L 921 41 L 922 41 L 922 40 L 924 40 L 924 40 L 925 40 L 925 39 L 925 39 L 927 39 L 928 39 L 928 38 L 930 38 L 931 38 L 932 38 L 932 37 L 933 37 L 933 37 L 933 37 L 934 36 L 935 36 L 937 36 L 937 36 L 937 35"></path><path stroke-width="2" d="M 937 346 L 937.000000 15.000000" /><path stroke-width="2" d="M 937 346 L 937.000000 15.000000"></path><path stroke-width="2" d="M 937 346 L 942 346" /><path d="M 937 346 L 942 346" stroke-width="2"></path><text xmlns="http://www.w3.org/2000/svg" x="947" y="352">0</text><path d="M 937 307 L 942 307" stroke-width="2" /><path stroke-width="2" d="M 937 307 L 942 307"></path><text xmlns="http://www.w3.org/2000/svg" x="947" y="313">150</text><path stroke-width="2" d="M 937 272 L 942 272" /><path d="M 937 272 L 942 272" stroke-width="2"></path><text y="278" xmlns="http://www.w3.org/2000/svg" x="947">290</text><path stroke-width="2" d="M 937 234 L 942 234" /><path stroke-width="2" d="M 937 234 L 942 234"></path><text x="947" y="240" xmlns="http://www.w3.org/2000/svg">440</text><path stroke-width="2" d="M 937 198 L 942 198" /><path d="M 937 198 L 942 198" stroke-width="2"></path><text xmlns="http://www.w3.org/2000/svg" x="947" y="204">580</text><path stroke-width="2" d="M 937 160 L 942 160" /><path stroke-width="2" d="M 937 160 L 942 160"></path><text xmlns="http://www.w3.org/2000/svg" x="947" y="166">730</text><path stroke-width="2" d="M 937 125 L 942 125" /><path stroke-width="2" d="M 937 125 L 942 125"></path><text y="131" xmlns="http://www.w3.org/2000/svg" x="947">870</text><path d="M 937 87 L 942 87" stroke-width="2" /><path stroke-width="2" d="M 937 87 L 942 87"></path><text xmlns="http://www.w3.org/2000/svg" x="947" y="93">1020</text><path stroke-width="2" d="M 937 51 L 942 51" /><path stroke-width="2" d="M 937 51 L 942 51"></path><text xmlns="http://www.w3.org/2000/svg" x="947" y="57">1160</text><path stroke-width="2" d="M 937 16 L 942 16" /><path stroke-width="2" d="M 937 16 L 942 16"></path><text y="22" xmlns="http://www.w3.org/2000/svg" x="947">1300</text><text xmlns="http://www.w3.org/2000/svg" x="987" y="175" transform="rotate(90.00,987,175)">Stargazers</text><path stroke-width="2" d="M 57.000000 346.000000 L 937 346" /><path stroke-width="2" d="M 57.000000 346.000000 L 937 346"></path><path stroke-width="2" d="M 58 346 L 58 351" /><path stroke-width="2" d="M 58 346 L 58 351"></path><text x="25" y="368" xmlns="http://www.w3.org/2000/svg">2023-04-02</text><path stroke-width="2" d="M 156 346 L 156 351" /><path stroke-width="2" d="M 156 346 L 156 351"></path><text x="123" y="368" xmlns="http://www.w3.org/2000/svg">2023-07-27</text><path stroke-width="2" d="M 254 346 L 254 351" /><path stroke-width="2" d="M 254 346 L 254 351"></path><text xmlns="http://www.w3.org/2000/svg" x="221" y="368">2023-11-20</text><path stroke-width="2" d="M 352 346 L 352 351" /><path stroke-width="2" d="M 352 346 L 352 351"></path><text xmlns="http://www.w3.org/2000/svg" x="319" y="368">2024-03-14</text><path stroke-width="2" d="M 449 346 L 449 351" /><path stroke-width="2" d="M 449 346 L 449 351"></path><text xmlns="http://www.w3.org/2000/svg" x="416" y="368">2024-07-08</text><path d="M 547 346 L 547 351" stroke-width="2" /><path stroke-width="2" d="M 547 346 L 547 351"></path><text xmlns="http://www.w3.org/2000/svg" x="514" y="368">2024-11-01</text><path stroke-width="2" d="M 645 346 L 645 351" /><path stroke-width="2" d="M 645 346 L 645 351"></path><text xmlns="http://www.w3.org/2000/svg" x="612" y="368">2025-02-25</text><path stroke-width="2" d="M 742 346 L 742 351" /><path stroke-width="2" d="M 742 346 L 742 351"></path><text xmlns="http://www.w3.org/2000/svg" x="709" y="368">2025-06-21</text><path stroke-width="2" d="M 840 346 L 840 351" /><path stroke-width="2" d="M 840 346 L 840 351"></path><text xmlns="http://www.w3.org/2000/svg" x="807" y="368">2025-10-15</text><path d="M 937 346 L 937 351" stroke-width="2" /><path stroke-width="2" d="M 937 346 L 937 351"></path><text xmlns="http://www.w3.org/2000/svg" x="904" y="368">2026-02-08</text><text xmlns="http://www.w3.org/2000/svg" x="483" y="390">Time</text></svg>