<svg xmlns="http://www.w3.org/2000/svg" xmlns:xlink="http://www.w3.org/1999/xlink" width="1024px" height="400px"><style type="text/css">
path { fill: none; stroke: rgb(51,51,51); }
path.series { stroke: #6b63ff; }
rect.background { fill: rgb(255,255,255); stroke: none; }

text {
	stroke-width: 0;
	stroke: none;
	fill: rgba(51,51,51,1.0);
	font-size: 12.8px;
	font-family: 'Roboto Medium', sans-serif;
}
</style><rect x="0" y="0" width="1024px" height="400px" class="background" rx="8" /><rect width="1024px" height="400px" class="background" rx="8" x="0" y="0"></rect><path stroke-width="2" class="series" d="M 58 345 L 61 345 L 78 344 L 79 344 L 79 343 L 79 343 L 79 343 L 79 342 L 79 342 L 79 341 L 79 341 L 79 340 L 79 340 L 79 340 L 79 339 L 79 339 L 79 338 L 80 338 L 80 337 L 81 337 L 81 337 L 81 336 L 83 336 L 83 335 L 83 335 L 83 335 L 84 334 L 85 334 L 87 333 L 87 333 L 88 332 L 90 332 L 95 332 L 95 331 L 95 331 L 95 330 L 95 330 L 95 329 L 98 329 L 100 329 L 101 328 L 103 328 L 107 327 L 109 327 L 117 326 L 119 326 L 123 326 L 128 325 L 129 325 L 145 324 L 146 324 L 146 324 L 148 323 L 149 323 L 149 322 L 149 322 L 149 321 L 149 321 L 149 321 L 149 320 L 149 320 L 149 319 L 149 319 L 149 318 L 149 318 L 150 318 L 150 317 L 150 317 L 150 316 L 150 316 L 150 315 L 150 315 L 150 315 L 150 314 L 150 314 L 150 313 L 150 313 L 150 313 L 150 312 L 150 312 L 150 311 L 150 311 L 150 310 L 150 310 L 150 310 L 150 309 L 150 309 L 150 308 L 150 308 L 150 307 L 150 307 L 150 307 L 150 306 L 150 306 L 150 305 L 150 305 L 150 304 L 150 304 L 151 304 L 151 303 L 151 303 L 151 302 L 151 302 L 151 302 L 152 301 L 152 301 L 153 300 L 153 300 L 153 299 L 153 299 L 153 299 L 153 298 L 153 298 L 153 297 L 153 297 L 153 296 L 153 296 L 153 296 L 153 295 L 153 295 L 153 294 L 153 294 L 153 293 L 153 293 L 154 293 L 154 292 L 155 292 L 155 291 L 158 291 L 159 291 L 159 290 L 160 290 L 160 289 L 163 289 L 165 288 L 166 288 L 168 288 L 169 287 L 171 287 L 171 286 L 172 286 L 174 285 L 175 285 L 176 285 L 177 284 L 177 284 L 178 283 L 178 283 L 179 282 L 179 282 L 180 282 L 182 281 L 182 281 L 182 280 L 183 280 L 183 280 L 184 279 L 186 279 L 187 278 L 189 278 L 190 277 L 191 277 L 192 277 L 192 276 L 192 276 L 194 275 L 201 275 L 201 274 L 202 274 L 209 274 L 209 273 L 209 273 L 209 272 L 210 272 L 211 271 L 213 271 L 214 271 L 214 270 L 222 270 L 223 269 L 225 269 L 228 269 L 229 268 L 229 268 L 231 267 L 236 267 L 242 266 L 249 266 L 250 266 L 250 265 L 250 265 L 251 264 L 252 264 L 262 263 L 266 263 L 266 263 L 270 262 L 271 262 L 271 261 L 282 261 L 282 260 L 283 260 L 283 260 L 284 259 L 287 259 L 288 258 L 291 258 L 292 258 L 294 257 L 300 257 L 300 256 L 301 256 L 302 255 L 302 255 L 302 255 L 305 254 L 311 254 L 324 253 L 329 253 L 332 252 L 332 252 L 334 252 L 335 251 L 335 251 L 335 250 L 335 250 L 335 249 L 335 249 L 335 249 L 335 248 L 336 248 L 336 247 L 336 247 L 336 247 L 336 246 L 336 246 L 337 245 L 339 245 L 339 244 L 339 244 L 339 244 L 339 243 L 341 243 L 341 242 L 341 242 L 341 241 L 341 241 L 341 241 L 341 240 L 342 240 L 343 239 L 343 239 L 344 238 L 344 238 L 344 238 L 344 237 L 345 237 L 345 236 L 345 236 L 345 236 L 346 235 L 347 235 L 347 234 L 348 234 L 349 233 L 350 233 L 351 233 L 354 232 L 354 232 L 355 231 L 355 231 L 355 230 L 355 230 L 355 230 L 357 229 L 358 229 L 359 228 L 360 228 L 360 227 L 362 227 L 364 227 L 364 226 L 367 226 L 367 225 L 368 225 L 369 225 L 369 224 L 374 224 L 375 223 L 375 223 L 379 222 L 381 222 L 385 222 L 386 221 L 386 221 L 387 220 L 388 220 L 388 219 L 391 219 L 393 219 L 395 218 L 395 218 L 396 217 L 398 217 L 398 216 L 398 216 L 398 216 L 399 215 L 399 215 L 399 214 L 400 214 L 400 214 L 400 213 L 401 213 L 406 212 L 412 212 L 412 211 L 412 211 L 415 211 L 417 210 L 418 210 L 419 209 L 420 209 L 421 208 L 421 208 L 421 208 L 421 207 L 421 207 L 422 206 L 422 206 L 422 205 L 422 205 L 423 205 L 426 204 L 426 204 L 426 203 L 426 203 L 426 203 L 427 202 L 427 202 L 427 201 L 427 201 L 427 200 L 427 200 L 427 200 L 427 199 L 431 199 L 434 198 L 434 198 L 435 197 L 447 197 L 448 197 L 451 196 L 454 196 L 461 195 L 464 195 L 466 194 L 466 194 L 466 194 L 466 193 L 467 193 L 467 192 L 467 192 L 467 192 L 468 191 L 469 191 L 478 190 L 480 190 L 484 189 L 490 189 L 495 189 L 499 188 L 502 188 L 507 187 L 507 187 L 517 186 L 527 186 L 527 186 L 534 185 L 535 185 L 540 184 L 541 184 L 545 183 L 545 183 L 545 183 L 545 182 L 549 182 L 550 181 L 553 181 L 557 181 L 558 180 L 559 180 L 559 179 L 563 179 L 567 178 L 567 178 L 571 178 L 576 177 L 577 177 L 577 176 L 579 176 L 580 175 L 581 175 L 584 175 L 587 174 L 590 174 L 592 173 L 592 173 L 598 172 L 599 172 L 602 172 L 607 171 L 607 171 L 612 170 L 613 170 L 613 170 L 615 169 L 615 169 L 618 168 L 618 168 L 620 167 L 623 167 L 624 167 L 625 166 L 625 166 L 633 165 L 634 165 L 634 164 L 635 164 L 635 164 L 636 163 L 636 163 L 636 162 L 637 162 L 639 161 L 639 161 L 641 161 L 642 160 L 642 160 L 643 159 L 644 159 L 644 159 L 644 158 L 645 158 L 645 157 L 646 157 L 646 156 L 646 156 L 646 156 L 647 155 L 649 155 L 649 154 L 649 154 L 650 153 L 651 153 L 652 153 L 653 152 L 654 152 L 654 151 L 656 151 L 657 150 L 658 150 L 658 150 L 658 149 L 661 149 L 661 148 L 661 148 L 661 148 L 662 147 L 662 147 L 662 146 L 663 146 L 663 145 L 664 145 L 668 145 L 669 144 L 670 144 L 670 143 L 673 143 L 675 142 L 675 142 L 677 142 L 680 141 L 683 141 L 686 140 L 687 140 L 687 139 L 687 139 L 687 139 L 688 138 L 688 138 L 688 137 L 689 137 L 689 137 L 690 136 L 690 136 L 692 135 L 693 135 L 693 134 L 694 134 L 694 134 L 697 133 L 697 133 L 697 132 L 699 132 L 700 131 L 702 131 L 705 131 L 710 130 L 710 130 L 710 129 L 710 129 L 712 128 L 715 128 L 715 128 L 715 127 L 715 127 L 716 126 L 718 126 L 721 126 L 722 125 L 722 125 L 722 124 L 724 124 L 725 123 L 725 123 L 725 123 L 725 122 L 728 122 L 732 121 L 732 121 L 737 120 L 737 120 L 738 120 L 742 119 L 743 119 L 746 118 L 748 118 L 750 117 L 751 117 L 751 117 L 752 116 L 752 116 L 752 115 L 752 115 L 753 115 L 754 114 L 754 114 L 755 113 L 755 113 L 755 112 L 756 112 L 757 112 L 758 111 L 763 111 L 764 110 L 769 110 L 772 109 L 772 109 L 773 109 L 774 108 L 776 108 L 777 107 L 778 107 L 778 106 L 779 106 L 779 106 L 779 105 L 779 105 L 779 104 L 780 104 L 780 104 L 780 103 L 780 103 L 780 102 L 781 102 L 782 101 L 782 101 L 783 101 L 783 100 L 784 100 L 785 99 L 786 99 L 786 98 L 786 98 L 787 98 L 788 97 L 791 97 L 792 96 L 792 96 L 792 95 L 792 95 L 793 95 L 793 94 L 793 94 L 795 93 L 797 93 L 800 92 L 803 92 L 804 92 L 806 91 L 810 91 L 814 90 L 814 90 L 817 90 L 822 89 L 822 89 L 822 88 L 828 88 L 829 87 L 830 87 L 831 87 L 831 86 L 841 86 L 841 85 L 842 85 L 842 84 L 843 84 L 844 84 L 845 83 L 845 83 L 846 82 L 847 82 L 847 82 L 847 81 L 848 81 L 848 80 L 848 80 L 848 79 L 848 79 L 849 79 L 849 78 L 850 78 L 851 77 L 852 77 L 853 76 L 854 76 L 854 76 L 855 75 L 855 75 L 856 74 L 857 74 L 858 73 L 858 73 L 858 73 L 858 72 L 860 72 L 861 71 L 862 71 L 862 71 L 863 70 L 864 70 L 865 69 L 865 69 L 865 68 L 865 68 L 866 68 L 866 67 L 867 67 L 868 66 L 868 66 L 870 65 L 870 65 L 870 65 L 870 64 L 871 64 L 871 63 L 872 63 L 872 62 L 872 62 L 873 62 L 874 61 L 874 61 L 874 60 L 875 60 L 875 60 L 875 59 L 875 59 L 875 58 L 876 58 L 876 57 L 876 57 L 876 57 L 876 56 L 879 56 L 880 55 L 883 55 L 883 54 L 883 54 L 883 54 L 885 53 L 886 53 L 887 52 L 887 52 L 890 51 L 893 51 L 893 51 L 895 50 L 896 50 L 896 49 L 897 49 L 897 49 L 898 48 L 898 48 L 898 47 L 898 47 L 898 46 L 898 46 L 898 46 L 898 45 L 899 45 L 899 44 L 899 44 L 899 43 L 899 43 L 899 43 L 900 42 L 900 42 L 901 41 L 901 41 L 902 40 L 904 40 L 904 40 L 905 39 L 905 39 L 906 38 L 906 38 L 907 38 L 910 37 L 911 37 L 912 36 L 912 36 L 912 35 L 912 35 L 915 35 L 917 34 L 918 34 L 920 33 L 920 33 L 920 32 L 920 32 L 921 32 L 927 31 L 929 31 L 933 30 L 935 30 L 936 29 L 937 29 L 938 29 L 938 28 L 939 28 L 939 27 L 939 27 L 940 27 L 941 26 L 941 26 L 943 25 L 945 25 L 945 24 L 945 24 L 945 24 L 945 23 L 945 23 L 945 22 L 945 22 L 945 21 L 945 21 L 945 21 L 945 20 L 945 20 L 945 19 L 945 19" /><path d="M 58 345 L 61 345 L 78 344 L 79 344 L 79 343 L 79 343 L 79 343 L 79 342 L 79 342 L 79 341 L 79 341 L 79 340 L 79 340 L 79 340 L 79 339 L 79 339 L 79 338 L 80 338 L 80 337 L 81 337 L 81 337 L 81 336 L 83 336 L 83 335 L 83 335 L 83 335 L 84 334 L 85 334 L 87 333 L 87 333 L 88 332 L 90 332 L 95 332 L 95 331 L 95 331 L 95 330 L 95 330 L 95 329 L 98 329 L 100 329 L 101 328 L 103 328 L 107 327 L 109 327 L 117 326 L 119 326 L 123 326 L 128 325 L 129 325 L 145 324 L 146 324 L 146 324 L 148 323 L 149 323 L 149 322 L 149 322 L 149 321 L 149 321 L 149 321 L 149 320 L 149 320 L 149 319 L 149 319 L 149 318 L 149 318 L 150 318 L 150 317 L 150 317 L 150 316 L 150 316 L 150 315 L 150 315 L 150 315 L 150 314 L 150 314 L 150 313 L 150 313 L 150 313 L 150 312 L 150 312 L 150 311 L 150 311 L 150 310 L 150 310 L 150 310 L 150 309 L 150 309 L 150 308 L 150 308 L 150 307 L 150 307 L 150 307 L 150 306 L 150 306 L 150 305 L 150 305 L 150 304 L 150 304 L 151 304 L 151 303 L 151 303 L 151 302 L 151 302 L 151 302 L 152 301 L 152 301 L 153 300 L 153 300 L 153 299 L 153 299 L 153 299 L 153 298 L 153 298 L 153 297 L 153 297 L 153 296 L 153 296 L 153 296 L 153 295 L 153 295 L 153 294 L 153 294 L 153 293 L 153 293 L 154 293 L 154 292 L 155 292 L 155 291 L 158 291 L 159 291 L 159 290 L 160 290 L 160 289 L 163 289 L 165 288 L 166 288 L 168 288 L 169 287 L 171 287 L 171 286 L 172 286 L 174 285 L 175 285 L 176 285 L 177 284 L 177 284 L 178 283 L 178 283 L 179 282 L 179 282 L 180 282 L 182 281 L 182 281 L 182 280 L 183 280 L 183 280 L 184 279 L 186 279 L 187 278 L 189 278 L 190 277 L 191 277 L 192 277 L 192 276 L 192 276 L 194 275 L 201 275 L 201 274 L 202 274 L 209 274 L 209 273 L 209 273 L 209 272 L 210 272 L 211 271 L 213 271 L 214 271 L 214 270 L 222 270 L 223 269 L 225 269 L 228 269 L 229 268 L 229 268 L 231 267 L 236 267 L 242 266 L 249 266 L 250 266 L 250 265 L 250 265 L 251 264 L 252 264 L 262 263 L 266 263 L 266 263 L 270 262 L 271 262 L 271 261 L 282 261 L 282 260 L 283 260 L 283 260 L 284 259 L 287 259 L 288 258 L 291 258 L 292 258 L 294 257 L 300 257 L 300 256 L 301 256 L 302 255 L 302 255 L 302 255 L 305 254 L 311 254 L 324 253 L 329 253 L 332 252 L 332 252 L 334 252 L 335 251 L 335 251 L 335 250 L 335 250 L 335 249 L 335 249 L 335 249 L 335 248 L 336 248 L 336 247 L 336 247 L 336 247 L 336 246 L 336 246 L 337 245 L 339 245 L 339 244 L 339 244 L 339 244 L 339 243 L 341 243 L 341 242 L 341 242 L 341 241 L 341 241 L 341 241 L 341 240 L 342 240 L 343 239 L 343 239 L 344 238 L 344 238 L 344 238 L 344 237 L 345 237 L 345 236 L 345 236 L 345 236 L 346 235 L 347 235 L 347 234 L 348 234 L 349 233 L 350 233 L 351 233 L 354 232 L 354 232 L 355 231 L 355 231 L 355 230 L 355 230 L 355 230 L 357 229 L 358 229 L 359 228 L 360 228 L 360 227 L 362 227 L 364 227 L 364 226 L 367 226 L 367 225 L 368 225 L 369 225 L 369 224 L 374 224 L 375 223 L 375 223 L 379 222 L 381 222 L 385 222 L 386 221 L 386 221 L 387 220 L 388 220 L 388 219 L 391 219 L 393 219 L 395 218 L 395 218 L 396 217 L 398 217 L 398 216 L 398 216 L 398 216 L 399 215 L 399 215 L 399 214 L 400 214 L 400 214 L 400 213 L 401 213 L 406 212 L 412 212 L 412 211 L 412 211 L 415 211 L 417 210 L 418 210 L 419 209 L 420 209 L 421 208 L 421 208 L 421 208 L 421 207 L 421 207 L 422 206 L 422 206 L 422 205 L 422 205 L 423 205 L 426 204 L 426 204 L 426 203 L 426 203 L 426 203 L 427 202 L 427 202 L 427 201 L 427 201 L 427 200 L 427 200 L 427 200 L 427 199 L 431 199 L 434 198 L 434 198 L 435 197 L 447 197 L 448 197 L 451 196 L 454 196 L 461 195 L 464 195 L 466 194 L 466 194 L 466 194 L 466 193 L 467 193 L 467 192 L 467 192 L 467 192 L 468 191 L 469 191 L 478 190 L 480 190 L 484 189 L 490 189 L 495 189 L 499 188 L 502 188 L 507 187 L 507 187 L 517 186 L 527 186 L 527 186 L 534 185 L 535 185 L 540 184 L 541 184 L 545 183 L 545 183 L 545 183 L 545 182 L 549 182 L 550 181 L 553 181 L 557 181 L 558 180 L 559 180 L 559 179 L 563 179 L 567 178 L 567 178 L 571 178 L 576 177 L 577 177 L 577 176 L 579 176 L 580 175 L 581 175 L 584 175 L 587 174 L 590 174 L 592 173 L 592 173 L 598 172 L 599 172 L 602 172 L 607 171 L 607 171 L 612 170 L 613 170 L 613 170 L 615 169 L 615 169 L 618 168 L 618 168 L 620 167 L 623 167 L 624 167 L 625 166 L 625 166 L 633 165 L 634 165 L 634 164 L 635 164 L 635 164 L 636 163 L 636 163 L 636 162 L 637 162 L 639 161 L 639 161 L 641 161 L 642 160 L 642 160 L 643 159 L 644 159 L 644 159 L 644 158 L 645 158 L 645 157 L 646 157 L 646 156 L 646 156 L 646 156 L 647 155 L 649 155 L 649 154 L 649 154 L 650 153 L 651 153 L 652 153 L 653 152 L 654 152 L 654 151 L 656 151 L 657 150 L 658 150 L 658 150 L 658 149 L 661 149 L 661 148 L 661 148 L 661 148 L 662 147 L 662 147 L 662 146 L 663 146 L 663 145 L 664 145 L 668 145 L 669 144 L 670 144 L 670 143 L 673 143 L 675 142 L 675 142 L 677 142 L 680 141 L 683 141 L 686 140 L 687 140 L 687 139 L 687 139 L 687 139 L 688 138 L 688 138 L 688 137 L 689 137 L 689 137 L 690 136 L 690 136 L 692 135 L 693 135 L 693 134 L 694 134 L 694 134 L 697 133 L 697 133 L 697 132 L 699 132 L 700 131 L 702 131 L 705 131 L 710 130 L 710 130 L 710 129 L 710 129 L 712 128 L 715 128 L 715 128 L 715 127 L 715 127 L 716 126 L 718 126 L 721 126 L 722 125 L 722 125 L 722 124 L 724 124 L 725 123 L 725 123 L 725 123 L 725 122 L 728 122 L 732 121 L 732 121 L 737 120 L 737 120 L 738 120 L 742 119 L 743 119 L 746 118 L 748 118 L 750 117 L 751 117 L 751 117 L 752 116 L 752 116 L 752 115 L 752 115 L 753 115 L 754 114 L 754 114 L 755 113 L 755 113 L 755 112 L 756 112 L 757 112 L 758 111 L 763 111 L 764 110 L 769 110 L 772 109 L 772 109 L 773 109 L 774 108 L 776 108 L 777 107 L 778 107 L 778 106 L 779 106 L 779 106 L 779 105 L 779 105 L 779 104 L 780 104 L 780 104 L 780 103 L 780 103 L 780 102 L 781 102 L 782 101 L 782 101 L 783 101 L 783 100 L 784 100 L 785 99 L 786 99 L 786 98 L 786 98 L 787 98 L 788 97 L 791 97 L 792 96 L 792 96 L 792 95 L 792 95 L 793 95 L 793 94 L 793 94 L 795 93 L 797 93 L 800 92 L 803 92 L 804 92 L 806 91 L 810 91 L 814 90 L 814 90 L 817 90 L 822 89 L 822 89 L 822 88 L 828 88 L 829 87 L 830 87 L 831 87 L 831 86 L 841 86 L 841 85 L 842 85 L 842 84 L 843 84 L 844 84 L 845 83 L 845 83 L 846 82 L 847 82 L 847 82 L 847 81 L 848 81 L 848 80 L 848 80 L 848 79 L 848 79 L 849 79 L 849 78 L 850 78 L 851 77 L 852 77 L 853 76 L 854 76 L 854 76 L 855 75 L 855 75 L 856 74 L 857 74 L 858 73 L 858 73 L 858 73 L 858 72 L 860 72 L 861 71 L 862 71 L 862 71 L 863 70 L 864 70 L 865 69 L 865 69 L 865 68 L 865 68 L 866 68 L 866 67 L 867 67 L 868 66 L 868 66 L 870 65 L 870 65 L 870 65 L 870 64 L 871 64 L 871 63 L 872 63 L 872 62 L 872 62 L 873 62 L 874 61 L 874 61 L 874 60 L 875 60 L 875 60 L 875 59 L 875 59 L 875 58 L 876 58 L 876 57 L 876 57 L 876 57 L 876 56 L 879 56 L 880 55 L 883 55 L 883 54 L 883 54 L 883 54 L 885 53 L 886 53 L 887 52 L 887 52 L 890 51 L 893 51 L 893 51 L 895 50 L 896 50 L 896 49 L 897 49 L 897 49 L 898 48 L 898 48 L 898 47 L 898 47 L 898 46 L 898 46 L 898 46 L 898 45 L 899 45 L 899 44 L 899 44 L 899 43 L 899 43 L 899 43 L 900 42 L 900 42 L 901 41 L 901 41 L 902 40 L 904 40 L 904 40 L 905 39 L 905 39 L 906 38 L 906 38 L 907 38 L 910 37 L 911 37 L 912 36 L 912 36 L 912 35 L 912 35 L 915 35 L 917 34 L 918 34 L 920 33 L 920 33 L 920 32 L 920 32 L 921 32 L 927 31 L 929 31 L 933 30 L 935 30 L 936 29 L 937 29 L 938 29 L 938 28 L 939 28 L 939 27 L 939 27 L 940 27 L 941 26 L 941 26 L 943 25 L 945 25 L 945 24 L 945 24 L 945 24 L 945 23 L 945 23 L 945 22 L 945 22 L 945 21 L 945 21 L 945 21 L 945 20 L 945 20 L 945 19 L 945 19" stroke-width="2" class="series"></path><path stroke-width="2" d="M 945 346 L 945.000000 15.000000" /><path stroke-width="2" d="M 945 346 L 945.000000 15.000000"></path><path stroke-width="2" d="M 945 346 L 950 346" /><path stroke-width="2" d="M 945 346 L 950 346"></path><text xmlns="http://www.w3.org/2000/svg" x="955" y="352">0</text><path stroke-width="2" d="M 945 309 L 950 309" /><path d="M 945 309 L 950 309" stroke-width="2"></path><text y="315" xmlns="http://www.w3.org/2000/svg" x="955">87</text><path stroke-width="2" d="M 945 272 L 950 272" /><path stroke-width="2" d="M 945 272 L 950 272"></path><text xmlns="http://www.w3.org/2000/svg" x="955" y="278">174</text><path stroke-width="2" d="M 945 236 L 950 236" /><path stroke-width="2" d="M 945 236 L 950 236"></path><text x="955" y="242" xmlns="http://www.w3.org/2000/svg">260</text><path stroke-width="2" d="M 945 199 L 950 199" /><path stroke-width="2" d="M 945 199 L 950 199"></path><text y="205" xmlns="http://www.w3.org/2000/svg" x="955">347</text><path stroke-width="2" d="M 945 162 L 950 162" /><path stroke-width="2" d="M 945 162 L 950 162"></path><text y="168" xmlns="http://www.w3.org/2000/svg" x="955">434</text><path stroke-width="2" d="M 945 126 L 950 126" /><path stroke-width="2" d="M 945 126 L 950 126"></path><text xmlns="http://www.w3.org/2000/svg" x="955" y="132">520</text><path stroke-width="2" d="M 945 89 L 950 89" /><path stroke-width="2" d="M 945 89 L 950 89"></path><text xmlns="http://www.w3.org/2000/svg" x="955" y="95">607</text><path stroke-width="2" d="M 945 52 L 950 52" /><path d="M 945 52 L 950 52" stroke-width="2"></path><text xmlns="http://www.w3.org/2000/svg" x="955" y="58">694</text><path stroke-width="2" d="M 945 16 L 950 16" /><path stroke-width="2" d="M 945 16 L 950 16"></path><text xmlns="http://www.w3.org/2000/svg" x="955" y="22">780</text><text x="987" y="175" transform="rotate(90.00,987,175)" xmlns="http://www.w3.org/2000/svg">Stargazers</text><path stroke-width="2" d="M 57.000000 346.000000 L 945 346" /><path stroke-width="2" d="M 57.000000 346.000000 L 945 346"></path><path d="M 58 346 L 58 351" stroke-width="2" /><path stroke-width="2" d="M 58 346 L 58 351"></path><text x="25" y="368" xmlns="http://www.w3.org/2000/svg">2023-04-02</text><path stroke-width="2" d="M 157 346 L 157 351" /><path stroke-width="2" d="M 157 346 L 157 351"></path><text xmlns="http://www.w3.org/2000/svg" x="124" y="368">2023-06-11</text><path stroke-width="2" d="M 256 346 L 256 351" /><path stroke-width="2" d="M 256 346 L 256 351"></path><text y="368" xmlns="http://www.w3.org/2000/svg" x="223">2023-08-19</text><path stroke-width="2" d="M 354 346 L 354 351" /><path stroke-width="2" d="M 354 346 L 354 351"></path><text xmlns="http://www.w3.org/2000/svg" x="321" y="368">2023-10-28</text><path stroke-width="2" d="M 453 346 L 453 351" /><path stroke-width="2" d="M 453 346 L 453 351"></path><text xmlns="http://www.w3.org/2000/svg" x="420" y="368">2024-01-06</text><path stroke-width="2" d="M 551 346 L 551 351" /><path stroke-width="2" d="M 551 346 L 551 351"></path><text xmlns="http://www.w3.org/2000/svg" x="518" y="368">2024-03-16</text><path d="M 650 346 L 650 351" stroke-width="2" /><path stroke-width="2" d="M 650 346 L 650 351"></path><text xmlns="http://www.w3.org/2000/svg" x="617" y="368">2024-05-25</text><path stroke-width="2" d="M 748 346 L 748 351" /><path stroke-width="2" d="M 748 346 L 748 351"></path><text y="368" xmlns="http://www.w3.org/2000/svg" x="715">2024-08-02</text><path stroke-width="2" d="M 847 346 L 847 351" /><path stroke-width="2" d="M 847 346 L 847 351"></path><text xmlns="http://www.w3.org/2000/svg" x="814" y="368">2024-10-11</text><path stroke-width="2" d="M 945 346 L 945 351" /><path stroke-width="2" d="M 945 346 L 945 351"></path><text x="912" y="368" xmlns="http://www.w3.org/2000/svg">2024-12-20</text><text xmlns="http://www.w3.org/2000/svg" x="487" y="390">Time</text></svg>