<svg xmlns="http://www.w3.org/2000/svg" xmlns:xlink="http://www.w3.org/1999/xlink" width="1024" height="400">\n<path  d="M 0 0
L 1024 0
L 1024 400
L 0 400
L 0 0" style="stroke-width:0;stroke:rgba(255,255,255,1.0);fill:rgba(255,255,255,1.0)"/><path  d="M 38 11
L 965 11
L 965 351
L 38 351
L 38 11" style="stroke-width:0;stroke:rgba(255,255,255,1.0);fill:rgba(255,255,255,1.0)"/><path  d="M 38 351
L 965 351" style="stroke-width:2;stroke:rgba(85,85,85,1.0);fill:none"/><path  d="M 38 351
L 38 356" style="stroke-width:2;stroke:rgba(85,85,85,1.0);fill:none"/><text x="5" y="373" style="stroke-width:0;stroke:none;fill:rgba(51,51,51,1.0);font-size:12.8px;font-family:'Roboto Medium',sans-serif">2023-04-02</text><path  d="M 154 351
L 154 356" style="stroke-width:2;stroke:rgba(85,85,85,1.0);fill:none"/><text x="121" y="373" style="stroke-width:0;stroke:none;fill:rgba(51,51,51,1.0);font-size:12.8px;font-family:'Roboto Medium',sans-serif">2023-04-26</text><path  d="M 270 351
L 270 356" style="stroke-width:2;stroke:rgba(85,85,85,1.0);fill:none"/><text x="237" y="373" style="stroke-width:0;stroke:none;fill:rgba(51,51,51,1.0);font-size:12.8px;font-family:'Roboto Medium',sans-serif">2023-05-20</text><path  d="M 386 351
L 386 356" style="stroke-width:2;stroke:rgba(85,85,85,1.0);fill:none"/><text x="353" y="373" style="stroke-width:0;stroke:none;fill:rgba(51,51,51,1.0);font-size:12.8px;font-family:'Roboto Medium',sans-serif">2023-06-14</text><path  d="M 502 351
L 502 356" style="stroke-width:2;stroke:rgba(85,85,85,1.0);fill:none"/><text x="469" y="373" style="stroke-width:0;stroke:none;fill:rgba(51,51,51,1.0);font-size:12.8px;font-family:'Roboto Medium',sans-serif">2023-07-08</text><path  d="M 618 351
L 618 356" style="stroke-width:2;stroke:rgba(85,85,85,1.0);fill:none"/><text x="585" y="373" style="stroke-width:0;stroke:none;fill:rgba(51,51,51,1.0);font-size:12.8px;font-family:'Roboto Medium',sans-serif">2023-08-01</text><path  d="M 734 351
L 734 356" style="stroke-width:2;stroke:rgba(85,85,85,1.0);fill:none"/><text x="701" y="373" style="stroke-width:0;stroke:none;fill:rgba(51,51,51,1.0);font-size:12.8px;font-family:'Roboto Medium',sans-serif">2023-08-25</text><path  d="M 850 351
L 850 356" style="stroke-width:2;stroke:rgba(85,85,85,1.0);fill:none"/><text x="817" y="373" style="stroke-width:0;stroke:none;fill:rgba(51,51,51,1.0);font-size:12.8px;font-family:'Roboto Medium',sans-serif">2023-09-19</text><path  d="M 965 351
L 965 356" style="stroke-width:2;stroke:rgba(85,85,85,1.0);fill:none"/><text x="932" y="373" style="stroke-width:0;stroke:none;fill:rgba(51,51,51,1.0);font-size:12.8px;font-family:'Roboto Medium',sans-serif">2023-10-13</text><text x="487" y="395" style="stroke-width:0;stroke:none;fill:rgba(51,51,51,1.0);font-size:12.8px;font-family:'Roboto Medium',sans-serif">Time</text><path  d="M 967 351
L 967 11" style="stroke-width:2;stroke:rgba(85,85,85,1.0);fill:none"/><path  d="M 967 351
L 972 351" style="stroke-width:2;stroke:rgba(85,85,85,1.0);fill:none"/><text x="977" y="357" style="stroke-width:0;stroke:none;fill:rgba(51,51,51,1.0);font-size:12.8px;font-family:'Roboto Medium',sans-serif">0</text><path  d="M 967 308
L 972 308" style="stroke-width:2;stroke:rgba(85,85,85,1.0);fill:none"/><text x="977" y="314" style="stroke-width:0;stroke:none;fill:rgba(51,51,51,1.0);font-size:12.8px;font-family:'Roboto Medium',sans-serif">29</text><path  d="M 967 265
L 972 265" style="stroke-width:2;stroke:rgba(85,85,85,1.0);fill:none"/><text x="977" y="271" style="stroke-width:0;stroke:none;fill:rgba(51,51,51,1.0);font-size:12.8px;font-family:'Roboto Medium',sans-serif">58</text><path  d="M 967 222
L 972 222" style="stroke-width:2;stroke:rgba(85,85,85,1.0);fill:none"/><text x="977" y="228" style="stroke-width:0;stroke:none;fill:rgba(51,51,51,1.0);font-size:12.8px;font-family:'Roboto Medium',sans-serif">87</text><path  d="M 967 181
L 972 181" style="stroke-width:2;stroke:rgba(85,85,85,1.0);fill:none"/><text x="977" y="187" style="stroke-width:0;stroke:none;fill:rgba(51,51,51,1.0);font-size:12.8px;font-family:'Roboto Medium',sans-serif">115</text><path  d="M 967 138
L 972 138" style="stroke-width:2;stroke:rgba(85,85,85,1.0);fill:none"/><text x="977" y="144" style="stroke-width:0;stroke:none;fill:rgba(51,51,51,1.0);font-size:12.8px;font-family:'Roboto Medium',sans-serif">144</text><path  d="M 967 95
L 972 95" style="stroke-width:2;stroke:rgba(85,85,85,1.0);fill:none"/><text x="977" y="101" style="stroke-width:0;stroke:none;fill:rgba(51,51,51,1.0);font-size:12.8px;font-family:'Roboto Medium',sans-serif">173</text><path  d="M 967 52
L 972 52" style="stroke-width:2;stroke:rgba(85,85,85,1.0);fill:none"/><text x="977" y="58" style="stroke-width:0;stroke:none;fill:rgba(51,51,51,1.0);font-size:12.8px;font-family:'Roboto Medium',sans-serif">202</text><path  d="M 967 11
L 972 11" style="stroke-width:2;stroke:rgba(85,85,85,1.0);fill:none"/><text x="977" y="17" style="stroke-width:0;stroke:none;fill:rgba(51,51,51,1.0);font-size:12.8px;font-family:'Roboto Medium',sans-serif">230</text><text x="1009" y="150" style="stroke-width:0;stroke:none;fill:rgba(51,51,51,1.0);font-size:12.8px;font-family:'Roboto Medium',sans-serif" transform="rotate(90.00,1009,150)">Stargazers</text><path  d="M 38 351
L 47 349
L 105 348
L 107 346
L 107 345
L 107 343
L 107 342
L 107 340
L 107 339
L 107 337
L 108 336
L 108 334
L 109 333
L 109 331
L 109 330
L 109 328
L 109 327
L 109 325
L 111 324
L 111 322
L 114 321
L 115 319
L 116 318
L 120 317
L 123 315
L 123 314
L 123 312
L 125 311
L 125 309
L 128 308
L 135 306
L 135 305
L 140 303
L 144 302
L 162 300
L 162 299
L 162 297
L 162 296
L 163 294
L 163 293
L 163 291
L 173 290
L 178 288
L 181 287
L 190 285
L 204 284
L 210 283
L 236 281
L 244 280
L 258 278
L 272 277
L 278 275
L 333 274
L 336 272
L 336 271
L 343 269
L 345 268
L 345 266
L 345 265
L 345 263
L 345 262
L 345 260
L 345 259
L 345 257
L 345 256
L 345 254
L 345 253
L 346 251
L 348 250
L 348 249
L 348 247
L 348 246
L 348 244
L 348 243
L 348 241
L 348 240
L 348 238
L 348 237
L 348 235
L 348 234
L 348 232
L 348 231
L 348 229
L 348 228
L 348 226
L 348 225
L 348 223
L 348 222
L 349 220
L 349 219
L 349 217
L 349 216
L 349 215
L 349 213
L 349 212
L 349 210
L 349 209
L 349 207
L 349 206
L 349 204
L 349 203
L 350 201
L 350 200
L 351 198
L 352 197
L 352 195
L 353 194
L 354 192
L 354 191
L 357 189
L 357 188
L 357 186
L 357 185
L 357 183
L 357 182
L 357 181
L 357 179
L 357 178
L 357 176
L 357 175
L 357 173
L 357 172
L 358 170
L 358 169
L 358 167
L 358 166
L 360 164
L 363 163
L 363 161
L 364 160
L 364 158
L 377 157
L 377 155
L 378 154
L 382 152
L 383 151
L 391 149
L 400 148
L 402 147
L 410 145
L 413 144
L 419 142
L 421 141
L 422 139
L 431 138
L 432 136
L 435 135
L 439 133
L 441 132
L 444 130
L 445 129
L 445 127
L 446 126
L 451 124
L 455 123
L 455 121
L 458 120
L 459 118
L 459 117
L 462 115
L 469 114
L 473 113
L 481 111
L 484 110
L 487 108
L 491 107
L 491 105
L 492 104
L 498 102
L 521 101
L 522 99
L 526 98
L 548 96
L 548 95
L 548 93
L 549 92
L 550 90
L 553 89
L 560 87
L 564 86
L 565 84
L 592 83
L 597 81
L 603 80
L 612 79
L 617 77
L 617 76
L 621 74
L 640 73
L 661 71
L 685 70
L 687 68
L 687 67
L 688 65
L 689 64
L 694 62
L 726 61
L 741 59
L 742 58
L 754 56
L 757 55
L 759 53
L 794 52
L 794 50
L 797 49
L 798 47
L 803 46
L 813 45
L 817 43
L 824 42
L 829 40
L 836 39
L 857 37
L 857 36
L 861 34
L 861 33
L 862 31
L 864 30
L 874 28
L 875 27
L 895 25
L 923 24
L 939 22
L 955 21
L 956 19
L 964 18
L 965 16" style="stroke-width:2;stroke:rgba(129,199,239,1.0);fill:none"/></svg>