<svg xmlns="http://www.w3.org/2000/svg" xmlns:xlink="http://www.w3.org/1999/xlink" width="1024" height="400">\n<path  d="M 0 0
L 1024 0
L 1024 400
L 0 400
L 0 0" style="stroke-width:0;stroke:rgba(255,255,255,1.0);fill:rgba(255,255,255,1.0)"/><path  d="M 38 11
L 965 11
L 965 351
L 38 351
L 38 11" style="stroke-width:0;stroke:rgba(255,255,255,1.0);fill:rgba(255,255,255,1.0)"/><path  d="M 38 351
L 965 351" style="stroke-width:2;stroke:rgba(85,85,85,1.0);fill:none"/><path  d="M 38 351
L 38 356" style="stroke-width:2;stroke:rgba(85,85,85,1.0);fill:none"/><text x="5" y="373" style="stroke-width:0;stroke:none;fill:rgba(51,51,51,1.0);font-size:12.8px;font-family:'Roboto Medium',sans-serif">2023-04-02</text><path  d="M 154 351
L 154 356" style="stroke-width:2;stroke:rgba(85,85,85,1.0);fill:none"/><text x="121" y="373" style="stroke-width:0;stroke:none;fill:rgba(51,51,51,1.0);font-size:12.8px;font-family:'Roboto Medium',sans-serif">2023-04-27</text><path  d="M 270 351
L 270 356" style="stroke-width:2;stroke:rgba(85,85,85,1.0);fill:none"/><text x="237" y="373" style="stroke-width:0;stroke:none;fill:rgba(51,51,51,1.0);font-size:12.8px;font-family:'Roboto Medium',sans-serif">2023-05-21</text><path  d="M 386 351
L 386 356" style="stroke-width:2;stroke:rgba(85,85,85,1.0);fill:none"/><text x="353" y="373" style="stroke-width:0;stroke:none;fill:rgba(51,51,51,1.0);font-size:12.8px;font-family:'Roboto Medium',sans-serif">2023-06-15</text><path  d="M 502 351
L 502 356" style="stroke-width:2;stroke:rgba(85,85,85,1.0);fill:none"/><text x="469" y="373" style="stroke-width:0;stroke:none;fill:rgba(51,51,51,1.0);font-size:12.8px;font-family:'Roboto Medium',sans-serif">2023-07-10</text><path  d="M 618 351
L 618 356" style="stroke-width:2;stroke:rgba(85,85,85,1.0);fill:none"/><text x="585" y="373" style="stroke-width:0;stroke:none;fill:rgba(51,51,51,1.0);font-size:12.8px;font-family:'Roboto Medium',sans-serif">2023-08-04</text><path  d="M 734 351
L 734 356" style="stroke-width:2;stroke:rgba(85,85,85,1.0);fill:none"/><text x="701" y="373" style="stroke-width:0;stroke:none;fill:rgba(51,51,51,1.0);font-size:12.8px;font-family:'Roboto Medium',sans-serif">2023-08-29</text><path  d="M 850 351
L 850 356" style="stroke-width:2;stroke:rgba(85,85,85,1.0);fill:none"/><text x="817" y="373" style="stroke-width:0;stroke:none;fill:rgba(51,51,51,1.0);font-size:12.8px;font-family:'Roboto Medium',sans-serif">2023-09-22</text><path  d="M 965 351
L 965 356" style="stroke-width:2;stroke:rgba(85,85,85,1.0);fill:none"/><text x="932" y="373" style="stroke-width:0;stroke:none;fill:rgba(51,51,51,1.0);font-size:12.8px;font-family:'Roboto Medium',sans-serif">2023-10-17</text><text x="487" y="395" style="stroke-width:0;stroke:none;fill:rgba(51,51,51,1.0);font-size:12.8px;font-family:'Roboto Medium',sans-serif">Time</text><path  d="M 967 351
L 967 11" style="stroke-width:2;stroke:rgba(85,85,85,1.0);fill:none"/><path  d="M 967 351
L 972 351" style="stroke-width:2;stroke:rgba(85,85,85,1.0);fill:none"/><text x="977" y="357" style="stroke-width:0;stroke:none;fill:rgba(51,51,51,1.0);font-size:12.8px;font-family:'Roboto Medium',sans-serif">0</text><path  d="M 967 307
L 972 307" style="stroke-width:2;stroke:rgba(85,85,85,1.0);fill:none"/><text x="977" y="313" style="stroke-width:0;stroke:none;fill:rgba(51,51,51,1.0);font-size:12.8px;font-family:'Roboto Medium',sans-serif">32</text><path  d="M 967 265
L 972 265" style="stroke-width:2;stroke:rgba(85,85,85,1.0);fill:none"/><text x="977" y="271" style="stroke-width:0;stroke:none;fill:rgba(51,51,51,1.0);font-size:12.8px;font-family:'Roboto Medium',sans-serif">63</text><path  d="M 967 223
L 972 223" style="stroke-width:2;stroke:rgba(85,85,85,1.0);fill:none"/><text x="977" y="229" style="stroke-width:0;stroke:none;fill:rgba(51,51,51,1.0);font-size:12.8px;font-family:'Roboto Medium',sans-serif">94</text><path  d="M 967 181
L 972 181" style="stroke-width:2;stroke:rgba(85,85,85,1.0);fill:none"/><text x="977" y="187" style="stroke-width:0;stroke:none;fill:rgba(51,51,51,1.0);font-size:12.8px;font-family:'Roboto Medium',sans-serif">125</text><path  d="M 967 137
L 972 137" style="stroke-width:2;stroke:rgba(85,85,85,1.0);fill:none"/><text x="977" y="143" style="stroke-width:0;stroke:none;fill:rgba(51,51,51,1.0);font-size:12.8px;font-family:'Roboto Medium',sans-serif">157</text><path  d="M 967 95
L 972 95" style="stroke-width:2;stroke:rgba(85,85,85,1.0);fill:none"/><text x="977" y="101" style="stroke-width:0;stroke:none;fill:rgba(51,51,51,1.0);font-size:12.8px;font-family:'Roboto Medium',sans-serif">188</text><path  d="M 967 53
L 972 53" style="stroke-width:2;stroke:rgba(85,85,85,1.0);fill:none"/><text x="977" y="59" style="stroke-width:0;stroke:none;fill:rgba(51,51,51,1.0);font-size:12.8px;font-family:'Roboto Medium',sans-serif">219</text><path  d="M 967 11
L 972 11" style="stroke-width:2;stroke:rgba(85,85,85,1.0);fill:none"/><text x="977" y="17" style="stroke-width:0;stroke:none;fill:rgba(51,51,51,1.0);font-size:12.8px;font-family:'Roboto Medium',sans-serif">250</text><text x="1009" y="150" style="stroke-width:0;stroke:none;fill:rgba(51,51,51,1.0);font-size:12.8px;font-family:'Roboto Medium',sans-serif" transform="rotate(90.00,1009,150)">Stargazers</text><path  d="M 38 351
L 47 349
L 103 348
L 105 346
L 105 345
L 105 344
L 105 342
L 105 341
L 105 340
L 105 338
L 107 337
L 107 336
L 107 334
L 107 333
L 107 331
L 107 330
L 108 329
L 108 327
L 109 326
L 109 325
L 112 323
L 114 322
L 114 321
L 118 319
L 121 318
L 121 317
L 121 315
L 123 314
L 123 312
L 126 311
L 133 310
L 133 308
L 137 307
L 141 306
L 159 304
L 159 303
L 159 302
L 160 300
L 160 299
L 160 297
L 160 296
L 170 295
L 175 293
L 178 292
L 186 291
L 201 289
L 206 288
L 231 287
L 239 285
L 253 284
L 267 283
L 273 281
L 326 280
L 329 278
L 329 277
L 336 276
L 338 274
L 338 273
L 338 272
L 338 270
L 338 269
L 338 268
L 338 266
L 338 265
L 339 263
L 339 262
L 339 261
L 340 259
L 341 258
L 341 257
L 341 255
L 341 254
L 341 253
L 341 251
L 341 250
L 341 249
L 341 247
L 341 246
L 341 244
L 341 243
L 341 242
L 341 240
L 341 239
L 341 238
L 341 236
L 341 235
L 341 234
L 341 232
L 342 231
L 342 229
L 342 228
L 342 227
L 342 225
L 342 224
L 342 223
L 342 221
L 342 220
L 342 219
L 342 217
L 342 216
L 342 215
L 343 213
L 343 212
L 344 210
L 345 209
L 345 208
L 346 206
L 347 205
L 347 204
L 350 202
L 350 201
L 350 200
L 350 198
L 350 197
L 350 195
L 350 194
L 350 193
L 350 191
L 350 190
L 350 189
L 350 187
L 350 186
L 350 185
L 350 183
L 351 182
L 351 181
L 352 179
L 356 178
L 356 176
L 356 175
L 356 174
L 369 172
L 370 171
L 370 170
L 375 168
L 375 167
L 383 166
L 392 164
L 394 163
L 402 161
L 405 160
L 411 159
L 412 157
L 414 156
L 422 155
L 423 153
L 426 152
L 430 151
L 432 149
L 435 148
L 436 147
L 436 145
L 437 144
L 442 142
L 446 141
L 446 140
L 448 138
L 450 137
L 450 136
L 453 134
L 459 133
L 463 132
L 471 130
L 474 129
L 477 127
L 481 126
L 481 125
L 482 123
L 487 122
L 510 121
L 511 119
L 515 118
L 536 117
L 537 115
L 537 114
L 537 113
L 538 111
L 542 110
L 548 108
L 552 107
L 553 106
L 579 104
L 585 103
L 590 102
L 599 100
L 604 99
L 604 98
L 608 96
L 626 95
L 647 93
L 670 92
L 672 91
L 673 89
L 673 88
L 674 87
L 680 85
L 711 84
L 726 83
L 726 81
L 738 80
L 741 79
L 743 77
L 777 76
L 777 74
L 780 73
L 781 72
L 786 70
L 795 69
L 799 68
L 806 66
L 811 65
L 819 64
L 838 62
L 839 61
L 843 59
L 843 58
L 844 57
L 845 55
L 855 54
L 856 53
L 875 51
L 904 50
L 918 49
L 935 47
L 936 46
L 944 45
L 945 43
L 950 42
L 955 40
L 955 39
L 955 38
L 955 36
L 955 35
L 955 34
L 955 32
L 955 31
L 956 30
L 956 28
L 956 27
L 956 25
L 957 24
L 958 23
L 959 21
L 962 20
L 965 19" style="stroke-width:2;stroke:rgba(129,199,239,1.0);fill:none"/></svg>