<svg xmlns="http://www.w3.org/2000/svg" xmlns:xlink="http://www.w3.org/1999/xlink" width="1024px" height="400px"><style type="text/css">
path { fill: none; stroke: rgb(51,51,51); }
path.series { stroke: #6b63ff; }
rect.background { fill: rgb(255,255,255); stroke: none; }

text {
	stroke-width: 0;
	stroke: none;
	fill: rgba(51,51,51,1.0);
	font-size: 12.8px;
	font-family: 'Roboto Medium', sans-serif;
}
</style><rect rx="8" x="0" y="0" width="1024px" height="400px" class="background" /><rect y="0" width="1024px" height="400px" class="background" rx="8" x="0"></rect><path d="M 58 345 L 61 345 L 75 344 L 75 344 L 75 344 L 75 343 L 75 343 L 75 343 L 75 342 L 75 342 L 76 342 L 76 341 L 76 341 L 76 341 L 76 340 L 76 340 L 76 340 L 76 339 L 76 339 L 77 339 L 77 338 L 77 338 L 79 338 L 79 337 L 79 337 L 79 336 L 80 336 L 81 336 L 82 335 L 82 335 L 83 335 L 84 334 L 89 334 L 89 334 L 89 333 L 89 333 L 89 333 L 92 332 L 93 332 L 94 332 L 96 331 L 99 331 L 101 331 L 107 330 L 109 330 L 112 330 L 116 329 L 117 329 L 131 328 L 131 328 L 132 328 L 133 327 L 134 327 L 134 327 L 134 326 L 134 326 L 134 326 L 134 325 L 134 325 L 134 325 L 134 324 L 134 324 L 134 324 L 134 323 L 134 323 L 134 323 L 134 322 L 134 322 L 134 322 L 134 321 L 134 321 L 134 320 L 134 320 L 134 320 L 134 319 L 134 319 L 134 319 L 135 318 L 135 318 L 135 318 L 135 317 L 135 317 L 135 317 L 135 316 L 135 316 L 135 316 L 135 315 L 135 315 L 135 315 L 135 314 L 135 314 L 135 314 L 135 313 L 135 313 L 135 313 L 135 312 L 135 312 L 135 311 L 135 311 L 135 311 L 136 310 L 136 310 L 136 310 L 136 309 L 136 309 L 137 309 L 137 308 L 137 308 L 137 308 L 137 307 L 137 307 L 137 307 L 137 306 L 137 306 L 137 306 L 137 305 L 137 305 L 137 305 L 137 304 L 137 304 L 137 303 L 137 303 L 137 303 L 138 302 L 138 302 L 138 302 L 138 301 L 142 301 L 142 301 L 142 300 L 143 300 L 143 300 L 145 299 L 147 299 L 148 299 L 150 298 L 151 298 L 152 298 L 152 297 L 153 297 L 155 297 L 155 296 L 156 296 L 157 295 L 157 295 L 158 295 L 158 294 L 158 294 L 159 294 L 160 293 L 161 293 L 161 293 L 161 292 L 162 292 L 162 292 L 163 291 L 164 291 L 165 291 L 167 290 L 168 290 L 169 290 L 170 289 L 170 289 L 170 289 L 171 288 L 177 288 L 177 287 L 178 287 L 184 287 L 184 286 L 184 286 L 184 286 L 184 285 L 185 285 L 187 285 L 188 284 L 188 284 L 194 284 L 196 283 L 197 283 L 199 283 L 201 282 L 201 282 L 202 282 L 206 281 L 211 281 L 217 281 L 218 280 L 218 280 L 218 280 L 218 279 L 220 279 L 228 278 L 231 278 L 231 278 L 234 277 L 235 277 L 235 277 L 244 276 L 244 276 L 245 276 L 245 275 L 246 275 L 249 275 L 250 274 L 251 274 L 253 274 L 255 273 L 260 273 L 260 273 L 261 272 L 261 272 L 261 272 L 261 271 L 264 271 L 269 270 L 280 270 L 284 270 L 286 269 L 286 269 L 288 269 L 289 268 L 289 268 L 289 268 L 289 267 L 289 267 L 289 267 L 289 266 L 289 266 L 289 266 L 289 265 L 289 265 L 289 265 L 289 264 L 290 264 L 290 264 L 292 263 L 292 263 L 292 262 L 292 262 L 293 262 L 293 261 L 293 261 L 294 261 L 294 260 L 294 260 L 294 260 L 294 259 L 295 259 L 295 259 L 296 258 L 296 258 L 296 258 L 296 257 L 297 257 L 297 257 L 297 256 L 297 256 L 298 256 L 298 255 L 298 255 L 299 254 L 300 254 L 301 254 L 302 253 L 304 253 L 304 253 L 305 252 L 305 252 L 305 252 L 305 251 L 305 251 L 307 251 L 307 250 L 309 250 L 309 250 L 310 249 L 311 249 L 313 249 L 313 248 L 315 248 L 315 248 L 316 247 L 317 247 L 317 247 L 321 246 L 321 246 L 322 245 L 325 245 L 327 245 L 330 244 L 331 244 L 331 244 L 332 243 L 332 243 L 332 243 L 335 242 L 337 242 L 338 242 L 338 241 L 339 241 L 341 241 L 341 240 L 341 240 L 341 240 L 341 239 L 341 239 L 342 239 L 343 238 L 343 238 L 343 237 L 344 237 L 347 237 L 352 236 L 352 236 L 352 236 L 355 235 L 357 235 L 358 235 L 358 234 L 359 234 L 360 234 L 360 233 L 360 233 L 360 233 L 360 232 L 361 232 L 361 232 L 361 231 L 361 231 L 362 231 L 364 230 L 364 230 L 364 229 L 364 229 L 364 229 L 365 228 L 365 228 L 365 228 L 365 227 L 365 227 L 365 227 L 365 226 L 365 226 L 369 226 L 371 225 L 371 225 L 372 225 L 381 224 L 382 224 L 385 224 L 388 223 L 395 223 L 397 223 L 398 222 L 398 222 L 398 221 L 398 221 L 398 221 L 398 220 L 399 220 L 400 220 L 407 219 L 409 219 L 412 219 L 418 218 L 422 218 L 425 218 L 427 217 L 431 217 L 431 217 L 440 216 L 448 216 L 448 216 L 454 215 L 455 215 L 459 215 L 460 214 L 463 214 L 463 214 L 463 213 L 463 213 L 466 212 L 467 212 L 470 212 L 473 211 L 474 211 L 475 211 L 475 210 L 478 210 L 481 210 L 482 209 L 485 209 L 489 209 L 489 208 L 489 208 L 491 208 L 492 207 L 493 207 L 496 207 L 498 206 L 500 206 L 503 206 L 503 205 L 507 205 L 508 204 L 510 204 L 515 204 L 515 203 L 519 203 L 520 203 L 520 202 L 521 202 L 522 202 L 524 201 L 524 201 L 526 201 L 528 200 L 529 200 L 529 200 L 530 199 L 537 199 L 537 199 L 537 198 L 538 198 L 538 198 L 539 197 L 539 197 L 539 196 L 540 196 L 541 196 L 541 195 L 543 195 L 543 195 L 544 194 L 545 194 L 545 194 L 545 193 L 546 193 L 546 193 L 546 192 L 547 192 L 547 192 L 547 191 L 548 191 L 548 191 L 550 190 L 550 190 L 550 190 L 551 189 L 551 189 L 552 188 L 553 188 L 553 188 L 554 187 L 555 187 L 556 187 L 557 186 L 557 186 L 558 186 L 559 185 L 559 185 L 559 185 L 560 184 L 560 184 L 560 184 L 560 183 L 561 183 L 561 183 L 562 182 L 565 182 L 566 182 L 567 181 L 567 181 L 570 181 L 571 180 L 571 180 L 573 179 L 576 179 L 578 179 L 580 178 L 581 178 L 581 178 L 581 177 L 581 177 L 582 177 L 582 176 L 582 176 L 583 176 L 583 175 L 583 175 L 584 175 L 585 174 L 586 174 L 586 174 L 587 173 L 587 173 L 590 173 L 590 172 L 590 172 L 591 171 L 592 171 L 594 171 L 596 170 L 600 170 L 600 170 L 600 169 L 600 169 L 602 169 L 604 168 L 605 168 L 605 168 L 605 167 L 605 167 L 607 167 L 610 166 L 610 166 L 610 166 L 610 165 L 612 165 L 613 165 L 613 164 L 613 164 L 615 163 L 619 163 L 619 163 L 623 162 L 623 162 L 623 162 L 627 161 L 628 161 L 630 161 L 632 160 L 633 160 L 634 160 L 635 159 L 635 159 L 635 159 L 635 158 L 635 158 L 636 158 L 637 157 L 637 157 L 638 157 L 638 156 L 638 156 L 639 155 L 640 155 L 640 155 L 645 154 L 645 154 L 650 154 L 652 153 L 652 153 L 653 153 L 653 152 L 656 152 L 656 152 L 657 151 L 657 151 L 657 151 L 657 150 L 658 150 L 658 150 L 658 149 L 659 149 L 659 149 L 659 148 L 659 148 L 659 148 L 660 147 L 660 147 L 661 146 L 661 146 L 662 146 L 663 145 L 664 145 L 664 145 L 664 144 L 664 144 L 666 144 L 668 143 L 668 143 L 668 143 L 668 142 L 668 142 L 669 142 L 669 141 L 670 141 L 671 141 L 673 140 L 675 140 L 678 140 L 679 139 L 680 139 L 683 138 L 687 138 L 687 138 L 690 137 L 694 137 L 694 137 L 694 136 L 698 136 L 700 136 L 700 135 L 701 135 L 701 135 L 709 134 L 709 134 L 710 134 L 710 133 L 711 133 L 711 133 L 713 132 L 713 132 L 713 132 L 714 131 L 714 131 L 714 130 L 715 130 L 715 130 L 715 129 L 715 129 L 715 129 L 716 128 L 716 128 L 717 128 L 719 127 L 720 127 L 720 127 L 720 126 L 721 126 L 721 126 L 722 125 L 723 125 L 723 125 L 723 124 L 724 124 L 724 124 L 725 123 L 726 123 L 727 122 L 727 122 L 728 122 L 729 121 L 729 121 L 729 121 L 729 120 L 729 120 L 730 120 L 730 119 L 731 119 L 732 119 L 732 118 L 733 118 L 734 118 L 734 117 L 734 117 L 734 117 L 734 116 L 735 116 L 735 116 L 735 115 L 736 115 L 736 115 L 736 114 L 737 114 L 738 113 L 738 113 L 738 113 L 738 112 L 738 112 L 738 112 L 739 111 L 739 111 L 739 111 L 739 110 L 741 110 L 742 110 L 744 109 L 744 109 L 744 109 L 744 108 L 746 108 L 747 108 L 747 107 L 748 107 L 750 107 L 753 106 L 753 106 L 754 105 L 755 105 L 755 105 L 756 104 L 756 104 L 756 104 L 757 103 L 757 103 L 757 103 L 757 102 L 757 102 L 757 102 L 757 101 L 758 101 L 758 101 L 758 100 L 758 100 L 758 100 L 759 99 L 759 99 L 759 99 L 760 98 L 762 98 L 762 97 L 762 97 L 762 97 L 764 96 L 764 96 L 765 96 L 767 95 L 768 95 L 768 95 L 768 94 L 768 94 L 768 94 L 771 93 L 772 93 L 773 93 L 775 92 L 775 92 L 775 92 L 775 91 L 776 91 L 781 91 L 783 90 L 786 90 L 787 89 L 788 89 L 789 89 L 790 88 L 790 88 L 791 88 L 791 87 L 791 87 L 792 87 L 792 86 L 793 86 L 794 86 L 796 85 L 796 85 L 796 85 L 796 84 L 796 84 L 796 84 L 796 83 L 796 83 L 796 83 L 796 82 L 796 82 L 796 82 L 796 81 L 796 81 L 796 80 L 796 80 L 796 80 L 797 79 L 797 79 L 797 79 L 797 78 L 798 78 L 798 78 L 798 77 L 798 77 L 798 77 L 798 76 L 800 76 L 800 76 L 800 75 L 800 75 L 800 75 L 800 74 L 801 74 L 802 74 L 804 73 L 804 73 L 805 72 L 806 72 L 806 72 L 806 71 L 807 71 L 809 71 L 810 70 L 811 70 L 811 70 L 811 69 L 811 69 L 811 69 L 811 68 L 811 68 L 814 68 L 814 67 L 814 67 L 818 67 L 819 66 L 821 66 L 823 66 L 824 65 L 825 65 L 825 64 L 825 64 L 826 64 L 826 63 L 826 63 L 827 63 L 828 62 L 828 62 L 828 62 L 829 61 L 829 61 L 829 61 L 829 60 L 829 60 L 829 60 L 829 59 L 830 59 L 830 59 L 830 58 L 832 58 L 832 58 L 833 57 L 833 57 L 833 56 L 834 56 L 834 56 L 835 55 L 835 55 L 835 55 L 836 54 L 836 54 L 837 54 L 841 53 L 842 53 L 843 53 L 846 52 L 847 52 L 848 52 L 851 51 L 851 51 L 852 51 L 855 50 L 860 50 L 861 50 L 862 49 L 864 49 L 866 49 L 867 48 L 867 48 L 869 47 L 870 47 L 870 47 L 871 46 L 873 46 L 874 46 L 875 45 L 875 45 L 876 45 L 876 44 L 876 44 L 877 44 L 881 43 L 881 43 L 882 43 L 883 42 L 883 42 L 885 42 L 885 41 L 886 41 L 887 41 L 887 40 L 887 40 L 888 39 L 889 39 L 889 39 L 890 38 L 891 38 L 891 38 L 892 37 L 892 37 L 893 37 L 893 36 L 894 36 L 894 36 L 895 35 L 895 35 L 895 35 L 895 34 L 895 34 L 896 34 L 898 33 L 900 33 L 900 33 L 901 32 L 904 32 L 904 31 L 906 31 L 907 31 L 909 30 L 911 30 L 914 30 L 915 29 L 916 29 L 917 29 L 918 28 L 921 28 L 921 28 L 922 27 L 923 27 L 923 27 L 923 26 L 923 26 L 923 26 L 923 25 L 925 25 L 926 25 L 927 24 L 927 24 L 928 23 L 928 23 L 934 23 L 935 22 L 936 22 L 938 22 L 940 21 L 941 21 L 941 21 L 942 20 L 942 20 L 942 20 L 944 19 L 944 19 L 944 19 L 945 18 L 945 18 L 945 18" stroke-width="2" class="series" /><path stroke-width="2" class="series" d="M 58 345 L 61 345 L 75 344 L 75 344 L 75 344 L 75 343 L 75 343 L 75 343 L 75 342 L 75 342 L 76 342 L 76 341 L 76 341 L 76 341 L 76 340 L 76 340 L 76 340 L 76 339 L 76 339 L 77 339 L 77 338 L 77 338 L 79 338 L 79 337 L 79 337 L 79 336 L 80 336 L 81 336 L 82 335 L 82 335 L 83 335 L 84 334 L 89 334 L 89 334 L 89 333 L 89 333 L 89 333 L 92 332 L 93 332 L 94 332 L 96 331 L 99 331 L 101 331 L 107 330 L 109 330 L 112 330 L 116 329 L 117 329 L 131 328 L 131 328 L 132 328 L 133 327 L 134 327 L 134 327 L 134 326 L 134 326 L 134 326 L 134 325 L 134 325 L 134 325 L 134 324 L 134 324 L 134 324 L 134 323 L 134 323 L 134 323 L 134 322 L 134 322 L 134 322 L 134 321 L 134 321 L 134 320 L 134 320 L 134 320 L 134 319 L 134 319 L 134 319 L 135 318 L 135 318 L 135 318 L 135 317 L 135 317 L 135 317 L 135 316 L 135 316 L 135 316 L 135 315 L 135 315 L 135 315 L 135 314 L 135 314 L 135 314 L 135 313 L 135 313 L 135 313 L 135 312 L 135 312 L 135 311 L 135 311 L 135 311 L 136 310 L 136 310 L 136 310 L 136 309 L 136 309 L 137 309 L 137 308 L 137 308 L 137 308 L 137 307 L 137 307 L 137 307 L 137 306 L 137 306 L 137 306 L 137 305 L 137 305 L 137 305 L 137 304 L 137 304 L 137 303 L 137 303 L 137 303 L 138 302 L 138 302 L 138 302 L 138 301 L 142 301 L 142 301 L 142 300 L 143 300 L 143 300 L 145 299 L 147 299 L 148 299 L 150 298 L 151 298 L 152 298 L 152 297 L 153 297 L 155 297 L 155 296 L 156 296 L 157 295 L 157 295 L 158 295 L 158 294 L 158 294 L 159 294 L 160 293 L 161 293 L 161 293 L 161 292 L 162 292 L 162 292 L 163 291 L 164 291 L 165 291 L 167 290 L 168 290 L 169 290 L 170 289 L 170 289 L 170 289 L 171 288 L 177 288 L 177 287 L 178 287 L 184 287 L 184 286 L 184 286 L 184 286 L 184 285 L 185 285 L 187 285 L 188 284 L 188 284 L 194 284 L 196 283 L 197 283 L 199 283 L 201 282 L 201 282 L 202 282 L 206 281 L 211 281 L 217 281 L 218 280 L 218 280 L 218 280 L 218 279 L 220 279 L 228 278 L 231 278 L 231 278 L 234 277 L 235 277 L 235 277 L 244 276 L 244 276 L 245 276 L 245 275 L 246 275 L 249 275 L 250 274 L 251 274 L 253 274 L 255 273 L 260 273 L 260 273 L 261 272 L 261 272 L 261 272 L 261 271 L 264 271 L 269 270 L 280 270 L 284 270 L 286 269 L 286 269 L 288 269 L 289 268 L 289 268 L 289 268 L 289 267 L 289 267 L 289 267 L 289 266 L 289 266 L 289 266 L 289 265 L 289 265 L 289 265 L 289 264 L 290 264 L 290 264 L 292 263 L 292 263 L 292 262 L 292 262 L 293 262 L 293 261 L 293 261 L 294 261 L 294 260 L 294 260 L 294 260 L 294 259 L 295 259 L 295 259 L 296 258 L 296 258 L 296 258 L 296 257 L 297 257 L 297 257 L 297 256 L 297 256 L 298 256 L 298 255 L 298 255 L 299 254 L 300 254 L 301 254 L 302 253 L 304 253 L 304 253 L 305 252 L 305 252 L 305 252 L 305 251 L 305 251 L 307 251 L 307 250 L 309 250 L 309 250 L 310 249 L 311 249 L 313 249 L 313 248 L 315 248 L 315 248 L 316 247 L 317 247 L 317 247 L 321 246 L 321 246 L 322 245 L 325 245 L 327 245 L 330 244 L 331 244 L 331 244 L 332 243 L 332 243 L 332 243 L 335 242 L 337 242 L 338 242 L 338 241 L 339 241 L 341 241 L 341 240 L 341 240 L 341 240 L 341 239 L 341 239 L 342 239 L 343 238 L 343 238 L 343 237 L 344 237 L 347 237 L 352 236 L 352 236 L 352 236 L 355 235 L 357 235 L 358 235 L 358 234 L 359 234 L 360 234 L 360 233 L 360 233 L 360 233 L 360 232 L 361 232 L 361 232 L 361 231 L 361 231 L 362 231 L 364 230 L 364 230 L 364 229 L 364 229 L 364 229 L 365 228 L 365 228 L 365 228 L 365 227 L 365 227 L 365 227 L 365 226 L 365 226 L 369 226 L 371 225 L 371 225 L 372 225 L 381 224 L 382 224 L 385 224 L 388 223 L 395 223 L 397 223 L 398 222 L 398 222 L 398 221 L 398 221 L 398 221 L 398 220 L 399 220 L 400 220 L 407 219 L 409 219 L 412 219 L 418 218 L 422 218 L 425 218 L 427 217 L 431 217 L 431 217 L 440 216 L 448 216 L 448 216 L 454 215 L 455 215 L 459 215 L 460 214 L 463 214 L 463 214 L 463 213 L 463 213 L 466 212 L 467 212 L 470 212 L 473 211 L 474 211 L 475 211 L 475 210 L 478 210 L 481 210 L 482 209 L 485 209 L 489 209 L 489 208 L 489 208 L 491 208 L 492 207 L 493 207 L 496 207 L 498 206 L 500 206 L 503 206 L 503 205 L 507 205 L 508 204 L 510 204 L 515 204 L 515 203 L 519 203 L 520 203 L 520 202 L 521 202 L 522 202 L 524 201 L 524 201 L 526 201 L 528 200 L 529 200 L 529 200 L 530 199 L 537 199 L 537 199 L 537 198 L 538 198 L 538 198 L 539 197 L 539 197 L 539 196 L 540 196 L 541 196 L 541 195 L 543 195 L 543 195 L 544 194 L 545 194 L 545 194 L 545 193 L 546 193 L 546 193 L 546 192 L 547 192 L 547 192 L 547 191 L 548 191 L 548 191 L 550 190 L 550 190 L 550 190 L 551 189 L 551 189 L 552 188 L 553 188 L 553 188 L 554 187 L 555 187 L 556 187 L 557 186 L 557 186 L 558 186 L 559 185 L 559 185 L 559 185 L 560 184 L 560 184 L 560 184 L 560 183 L 561 183 L 561 183 L 562 182 L 565 182 L 566 182 L 567 181 L 567 181 L 570 181 L 571 180 L 571 180 L 573 179 L 576 179 L 578 179 L 580 178 L 581 178 L 581 178 L 581 177 L 581 177 L 582 177 L 582 176 L 582 176 L 583 176 L 583 175 L 583 175 L 584 175 L 585 174 L 586 174 L 586 174 L 587 173 L 587 173 L 590 173 L 590 172 L 590 172 L 591 171 L 592 171 L 594 171 L 596 170 L 600 170 L 600 170 L 600 169 L 600 169 L 602 169 L 604 168 L 605 168 L 605 168 L 605 167 L 605 167 L 607 167 L 610 166 L 610 166 L 610 166 L 610 165 L 612 165 L 613 165 L 613 164 L 613 164 L 615 163 L 619 163 L 619 163 L 623 162 L 623 162 L 623 162 L 627 161 L 628 161 L 630 161 L 632 160 L 633 160 L 634 160 L 635 159 L 635 159 L 635 159 L 635 158 L 635 158 L 636 158 L 637 157 L 637 157 L 638 157 L 638 156 L 638 156 L 639 155 L 640 155 L 640 155 L 645 154 L 645 154 L 650 154 L 652 153 L 652 153 L 653 153 L 653 152 L 656 152 L 656 152 L 657 151 L 657 151 L 657 151 L 657 150 L 658 150 L 658 150 L 658 149 L 659 149 L 659 149 L 659 148 L 659 148 L 659 148 L 660 147 L 660 147 L 661 146 L 661 146 L 662 146 L 663 145 L 664 145 L 664 145 L 664 144 L 664 144 L 666 144 L 668 143 L 668 143 L 668 143 L 668 142 L 668 142 L 669 142 L 669 141 L 670 141 L 671 141 L 673 140 L 675 140 L 678 140 L 679 139 L 680 139 L 683 138 L 687 138 L 687 138 L 690 137 L 694 137 L 694 137 L 694 136 L 698 136 L 700 136 L 700 135 L 701 135 L 701 135 L 709 134 L 709 134 L 710 134 L 710 133 L 711 133 L 711 133 L 713 132 L 713 132 L 713 132 L 714 131 L 714 131 L 714 130 L 715 130 L 715 130 L 715 129 L 715 129 L 715 129 L 716 128 L 716 128 L 717 128 L 719 127 L 720 127 L 720 127 L 720 126 L 721 126 L 721 126 L 722 125 L 723 125 L 723 125 L 723 124 L 724 124 L 724 124 L 725 123 L 726 123 L 727 122 L 727 122 L 728 122 L 729 121 L 729 121 L 729 121 L 729 120 L 729 120 L 730 120 L 730 119 L 731 119 L 732 119 L 732 118 L 733 118 L 734 118 L 734 117 L 734 117 L 734 117 L 734 116 L 735 116 L 735 116 L 735 115 L 736 115 L 736 115 L 736 114 L 737 114 L 738 113 L 738 113 L 738 113 L 738 112 L 738 112 L 738 112 L 739 111 L 739 111 L 739 111 L 739 110 L 741 110 L 742 110 L 744 109 L 744 109 L 744 109 L 744 108 L 746 108 L 747 108 L 747 107 L 748 107 L 750 107 L 753 106 L 753 106 L 754 105 L 755 105 L 755 105 L 756 104 L 756 104 L 756 104 L 757 103 L 757 103 L 757 103 L 757 102 L 757 102 L 757 102 L 757 101 L 758 101 L 758 101 L 758 100 L 758 100 L 758 100 L 759 99 L 759 99 L 759 99 L 760 98 L 762 98 L 762 97 L 762 97 L 762 97 L 764 96 L 764 96 L 765 96 L 767 95 L 768 95 L 768 95 L 768 94 L 768 94 L 768 94 L 771 93 L 772 93 L 773 93 L 775 92 L 775 92 L 775 92 L 775 91 L 776 91 L 781 91 L 783 90 L 786 90 L 787 89 L 788 89 L 789 89 L 790 88 L 790 88 L 791 88 L 791 87 L 791 87 L 792 87 L 792 86 L 793 86 L 794 86 L 796 85 L 796 85 L 796 85 L 796 84 L 796 84 L 796 84 L 796 83 L 796 83 L 796 83 L 796 82 L 796 82 L 796 82 L 796 81 L 796 81 L 796 80 L 796 80 L 796 80 L 797 79 L 797 79 L 797 79 L 797 78 L 798 78 L 798 78 L 798 77 L 798 77 L 798 77 L 798 76 L 800 76 L 800 76 L 800 75 L 800 75 L 800 75 L 800 74 L 801 74 L 802 74 L 804 73 L 804 73 L 805 72 L 806 72 L 806 72 L 806 71 L 807 71 L 809 71 L 810 70 L 811 70 L 811 70 L 811 69 L 811 69 L 811 69 L 811 68 L 811 68 L 814 68 L 814 67 L 814 67 L 818 67 L 819 66 L 821 66 L 823 66 L 824 65 L 825 65 L 825 64 L 825 64 L 826 64 L 826 63 L 826 63 L 827 63 L 828 62 L 828 62 L 828 62 L 829 61 L 829 61 L 829 61 L 829 60 L 829 60 L 829 60 L 829 59 L 830 59 L 830 59 L 830 58 L 832 58 L 832 58 L 833 57 L 833 57 L 833 56 L 834 56 L 834 56 L 835 55 L 835 55 L 835 55 L 836 54 L 836 54 L 837 54 L 841 53 L 842 53 L 843 53 L 846 52 L 847 52 L 848 52 L 851 51 L 851 51 L 852 51 L 855 50 L 860 50 L 861 50 L 862 49 L 864 49 L 866 49 L 867 48 L 867 48 L 869 47 L 870 47 L 870 47 L 871 46 L 873 46 L 874 46 L 875 45 L 875 45 L 876 45 L 876 44 L 876 44 L 877 44 L 881 43 L 881 43 L 882 43 L 883 42 L 883 42 L 885 42 L 885 41 L 886 41 L 887 41 L 887 40 L 887 40 L 888 39 L 889 39 L 889 39 L 890 38 L 891 38 L 891 38 L 892 37 L 892 37 L 893 37 L 893 36 L 894 36 L 894 36 L 895 35 L 895 35 L 895 35 L 895 34 L 895 34 L 896 34 L 898 33 L 900 33 L 900 33 L 901 32 L 904 32 L 904 31 L 906 31 L 907 31 L 909 30 L 911 30 L 914 30 L 915 29 L 916 29 L 917 29 L 918 28 L 921 28 L 921 28 L 922 27 L 923 27 L 923 27 L 923 26 L 923 26 L 923 26 L 923 25 L 925 25 L 926 25 L 927 24 L 927 24 L 928 23 L 928 23 L 934 23 L 935 22 L 936 22 L 938 22 L 940 21 L 941 21 L 941 21 L 942 20 L 942 20 L 942 20 L 944 19 L 944 19 L 944 19 L 945 18 L 945 18 L 945 18"></path><path stroke-width="2" d="M 945 346 L 945.000000 15.000000" /><path stroke-width="2" d="M 945 346 L 945.000000 15.000000"></path><path stroke-width="2" d="M 945 346 L 950 346" /><path stroke-width="2" d="M 945 346 L 950 346"></path><text xmlns="http://www.w3.org/2000/svg" x="955" y="352">0</text><path stroke-width="2" d="M 945 309 L 950 309" /><path d="M 945 309 L 950 309" stroke-width="2"></path><text xmlns="http://www.w3.org/2000/svg" x="955" y="315">106</text><path stroke-width="2" d="M 945 272 L 950 272" /><path stroke-width="2" d="M 945 272 L 950 272"></path><text xmlns="http://www.w3.org/2000/svg" x="955" y="278">212</text><path stroke-width="2" d="M 945 235 L 950 235" /><path stroke-width="2" d="M 945 235 L 950 235"></path><text xmlns="http://www.w3.org/2000/svg" x="955" y="241">317</text><path stroke-width="2" d="M 945 199 L 950 199" /><path stroke-width="2" d="M 945 199 L 950 199"></path><text xmlns="http://www.w3.org/2000/svg" x="955" y="205">423</text><path stroke-width="2" d="M 945 162 L 950 162" /><path stroke-width="2" d="M 945 162 L 950 162"></path><text xmlns="http://www.w3.org/2000/svg" x="955" y="168">528</text><path stroke-width="2" d="M 945 125 L 950 125" /><path stroke-width="2" d="M 945 125 L 950 125"></path><text xmlns="http://www.w3.org/2000/svg" x="955" y="131">634</text><path stroke-width="2" d="M 945 89 L 950 89" /><path stroke-width="2" d="M 945 89 L 950 89"></path><text xmlns="http://www.w3.org/2000/svg" x="955" y="95">739</text><path stroke-width="2" d="M 945 52 L 950 52" /><path stroke-width="2" d="M 945 52 L 950 52"></path><text xmlns="http://www.w3.org/2000/svg" x="955" y="58">845</text><path stroke-width="2" d="M 945 16 L 950 16" /><path d="M 945 16 L 950 16" stroke-width="2"></path><text xmlns="http://www.w3.org/2000/svg" x="955" y="22">950</text><text xmlns="http://www.w3.org/2000/svg" x="987" y="175" transform="rotate(90.00,987,175)">Stargazers</text><path stroke-width="2" d="M 57.000000 346.000000 L 945 346" /><path stroke-width="2" d="M 57.000000 346.000000 L 945 346"></path><path d="M 58 346 L 58 351" stroke-width="2" /><path stroke-width="2" d="M 58 346 L 58 351"></path><text xmlns="http://www.w3.org/2000/svg" x="25" y="368">2023-04-02</text><path stroke-width="2" d="M 157 346 L 157 351" /><path stroke-width="2" d="M 157 346 L 157 351"></path><text xmlns="http://www.w3.org/2000/svg" x="124" y="368">2023-06-25</text><path stroke-width="2" d="M 256 346 L 256 351" /><path d="M 256 346 L 256 351" stroke-width="2"></path><text xmlns="http://www.w3.org/2000/svg" x="223" y="368">2023-09-17</text><path stroke-width="2" d="M 354 346 L 354 351" /><path stroke-width="2" d="M 354 346 L 354 351"></path><text xmlns="http://www.w3.org/2000/svg" x="321" y="368">2023-12-10</text><path stroke-width="2" d="M 453 346 L 453 351" /><path stroke-width="2" d="M 453 346 L 453 351"></path><text x="420" y="368" xmlns="http://www.w3.org/2000/svg">2024-03-02</text><path stroke-width="2" d="M 551 346 L 551 351" /><path stroke-width="2" d="M 551 346 L 551 351"></path><text xmlns="http://www.w3.org/2000/svg" x="518" y="368">2024-05-25</text><path d="M 650 346 L 650 351" stroke-width="2" /><path stroke-width="2" d="M 650 346 L 650 351"></path><text xmlns="http://www.w3.org/2000/svg" x="617" y="368">2024-08-17</text><path stroke-width="2" d="M 748 346 L 748 351" /><path d="M 748 346 L 748 351" stroke-width="2"></path><text y="368" xmlns="http://www.w3.org/2000/svg" x="715">2024-11-09</text><path stroke-width="2" d="M 847 346 L 847 351" /><path stroke-width="2" d="M 847 346 L 847 351"></path><text xmlns="http://www.w3.org/2000/svg" x="814" y="368">2025-02-01</text><path stroke-width="2" d="M 945 346 L 945 351" /><path stroke-width="2" d="M 945 346 L 945 351"></path><text xmlns="http://www.w3.org/2000/svg" x="912" y="368">2025-04-26</text><text xmlns="http://www.w3.org/2000/svg" x="487" y="390">Time</text></svg>