<svg height="400px" xmlns="http://www.w3.org/2000/svg" xmlns:xlink="http://www.w3.org/1999/xlink" width="1024px"><style type="text/css">
path { fill: none; stroke: rgb(51,51,51); }
path.series { stroke: #6b63ff; }
rect.background { fill: rgb(255,255,255); stroke: none; }

text {
	stroke-width: 0;
	stroke: none;
	fill: rgba(51,51,51,1.0);
	font-size: 12.8px;
	font-family: 'Roboto Medium', sans-serif;
}
</style><rect width="1024px" height="400px" class="background" rx="8" x="0" y="0" /><rect x="0" y="0" width="1024px" height="400px" class="background" rx="8"></rect><path stroke-width="2" class="series" d="M 58 345 L 62 344 L 86 344 L 87 343 L 87 342 L 87 342 L 87 341 L 87 340 L 87 340 L 87 339 L 87 338 L 87 338 L 87 337 L 87 336 L 87 336 L 88 335 L 88 335 L 88 334 L 88 333 L 89 333 L 90 332 L 90 331 L 92 331 L 93 330 L 93 329 L 93 329 L 94 328 L 96 327 L 98 327 L 98 326 L 100 325 L 102 325 L 109 324 L 109 324 L 109 323 L 110 322 L 110 322 L 110 321 L 114 320 L 116 320 L 117 319 L 121 318 L 127 318 L 129 317 L 140 316 L 143 316 L 149 315 L 155 314 L 157 314 L 180 313 L 181 313 L 181 312 L 184 311 L 185 311 L 185 310 L 185 309 L 185 309 L 185 308 L 185 307 L 185 307 L 185 306 L 185 305 L 185 305 L 185 304 L 185 303 L 186 303 L 186 302 L 186 302 L 186 301 L 186 300 L 186 300 L 186 299 L 186 298 L 186 298 L 186 297 L 186 296 L 186 296 L 186 295 L 186 294 L 186 294 L 186 293 L 186 292 L 186 292 L 186 291 L 186 291 L 186 290 L 186 289 L 186 289 L 186 288 L 186 287 L 186 287 L 186 286 L 186 285 L 186 285 L 186 284 L 187 283 L 187 283 L 187 282 L 187 281 L 187 281 L 187 280 L 188 280 L 188 279 L 188 278 L 188 278 L 189 277 L 190 276 L 190 276 L 190 275 L 190 274 L 190 274 L 190 273 L 190 272 L 190 272 L 190 271 L 190 270 L 190 270 L 190 269 L 190 269 L 190 268 L 190 267 L 190 267 L 190 266 L 191 265 L 192 265 L 192 264 L 193 263 L 193 263 L 198 262 L 198 261 L 198 261 L 200 260 L 200 259 L 204 259 L 208 258 L 209 258 L 212 257 L 213 256 L 215 256 L 216 255 L 217 254 L 220 254 L 221 253 L 222 252 L 223 252 L 224 251 L 226 250 L 226 250 L 226 249 L 227 248 L 229 248 L 230 247 L 230 247 L 231 246 L 232 245 L 232 245 L 233 244 L 236 243 L 238 243 L 241 242 L 242 241 L 244 241 L 245 240 L 245 239 L 245 239 L 248 238 L 257 237 L 258 237 L 259 236 L 269 236 L 269 235 L 269 234 L 269 234 L 269 233 L 271 232 L 274 232 L 275 231 L 276 230 L 287 230 L 289 229 L 291 228 L 295 228 L 297 227 L 297 226 L 299 226 L 306 225 L 315 225 L 325 224 L 326 223 L 326 223 L 326 222 L 327 221 L 329 221 L 342 220 L 348 219 L 349 219 L 354 218 L 355 217 L 355 217 L 370 216 L 370 215 L 371 215 L 372 214 L 374 214 L 378 213 L 379 212 L 382 212 L 384 211 L 388 210 L 396 210 L 396 209 L 398 208 L 398 208 L 398 207 L 399 206 L 403 206 L 411 205 L 430 204 L 436 204 L 440 203 L 441 203 L 443 202 L 445 201 L 445 201 L 445 200 L 445 199 L 445 199 L 445 198 L 445 197 L 445 197 L 445 196 L 445 195 L 446 195 L 446 194 L 446 193 L 446 193 L 447 192 L 448 192 L 450 191 L 450 190 L 450 190 L 451 189 L 451 188 L 453 188 L 453 187 L 453 186 L 453 186 L 453 185 L 453 184 L 453 184 L 455 183 L 456 182 L 456 182 L 457 181 L 457 181 L 457 180 L 457 179 L 458 179 L 459 178 L 459 177 L 459 177 L 460 176 L 461 175 L 461 175 L 462 174 L 464 173 L 465 173 L 467 172 L 471 171 L 471 171 L 472 170 L 472 170 L 472 169 L 472 168 L 473 168 L 475 167 L 476 166 L 479 166 L 479 165 L 480 164 L 483 164 L 485 163 L 485 162 L 489 162 L 490 161 L 490 160 L 492 160 L 492 159 L 498 159 L 500 158 L 500 157 L 506 157 L 508 156 L 514 155 L 515 155 L 516 154 L 517 153 L 518 153 L 518 152 L 522 151 L 525 151 L 528 150 L 528 149 L 530 149 L 532 148 L 532 148 L 532 147 L 532 146 L 533 146 L 533 145 L 534 144 L 535 144 L 535 143 L 536 142 L 537 142 L 543 141 L 551 140 L 551 140 L 552 139 L 557 138 L 559 138 L 561 137 L 561 137 L 563 136 L 565 135 L 565 135 L 565 134 L 565 133 L 565 133 L 566 132 L 566 131 L 566 131 L 566 130 L 568 129 L 571 129 L 571 128 L 571 127 L 572 127 L 572 126 L 572 126 L 572 125 L 573 124 L 573 124 L 573 123 L 573 122 L 573 122 L 573 121 L 579 120 L 583 120 L 583 119 L 584 118 L 592 118 L 600 117 L 602 116 L 607 116 L 611 115 L 621 115 L 624 114 L 627 113 L 628 113 L 628 112 L 628 111 L 628 111 L 628 110 L 628 109 L 628 109 L 630 108 L 632 107 L 644 107 L 647 106 L 652 105 L 661 105 L 668 104 L 673 104 L 677 103 L 684 102 L 684 102 L 699 101 L 713 100 L 713 100 L 723 99 L 723 98 L 731 98 L 733 97 L 737 96 L 737 96 L 738 95 L 738 94 L 743 94 L 744 93 L 748 92 L 754 92 L 755 91 L 757 91 L 758 90 L 763 89 L 768 89 L 768 88 L 774 87 L 781 87 L 782 86 L 782 85 L 784 85 L 786 84 L 787 83 L 792 83 L 796 82 L 800 82 L 804 81 L 804 80 L 811 80 L 813 79 L 817 78 L 824 78 L 824 77 L 832 76 L 833 76 L 833 75 L 835 74 L 836 74 L 839 73 L 839 72 L 843 72 L 847 71 L 848 71 L 849 70 L 849 69 L 861 69 L 861 68 L 862 67 L 863 67 L 863 66 L 864 65 L 865 65 L 865 64 L 866 63 L 869 63 L 869 62 L 871 61 L 872 61 L 873 60 L 874 60 L 875 59 L 875 58 L 876 58 L 877 57 L 877 56 L 878 56 L 878 55 L 878 54 L 879 54 L 880 53 L 883 52 L 883 52 L 883 51 L 885 50 L 885 50 L 887 49 L 889 49 L 889 48 L 890 47 L 892 47 L 894 46 L 895 45 L 895 45 L 896 44 L 899 43 L 899 43 L 899 42 L 900 41 L 900 41 L 901 40 L 901 39 L 902 39 L 902 38 L 904 38 L 909 37 L 910 36 L 912 36 L 913 35 L 916 34 L 919 34 L 919 33 L 923 32 L 927 32 L 930 31 L 934 30 L 935 30 L 936 29 L 936 28 L 936 28 L 937 27 L 938 27 L 938 26 L 939 25 L 939 25 L 939 24 L 940 23 L 942 23 L 944 22 L 944 21 L 945 21 L 945 20" /><path stroke-width="2" class="series" d="M 58 345 L 62 344 L 86 344 L 87 343 L 87 342 L 87 342 L 87 341 L 87 340 L 87 340 L 87 339 L 87 338 L 87 338 L 87 337 L 87 336 L 87 336 L 88 335 L 88 335 L 88 334 L 88 333 L 89 333 L 90 332 L 90 331 L 92 331 L 93 330 L 93 329 L 93 329 L 94 328 L 96 327 L 98 327 L 98 326 L 100 325 L 102 325 L 109 324 L 109 324 L 109 323 L 110 322 L 110 322 L 110 321 L 114 320 L 116 320 L 117 319 L 121 318 L 127 318 L 129 317 L 140 316 L 143 316 L 149 315 L 155 314 L 157 314 L 180 313 L 181 313 L 181 312 L 184 311 L 185 311 L 185 310 L 185 309 L 185 309 L 185 308 L 185 307 L 185 307 L 185 306 L 185 305 L 185 305 L 185 304 L 185 303 L 186 303 L 186 302 L 186 302 L 186 301 L 186 300 L 186 300 L 186 299 L 186 298 L 186 298 L 186 297 L 186 296 L 186 296 L 186 295 L 186 294 L 186 294 L 186 293 L 186 292 L 186 292 L 186 291 L 186 291 L 186 290 L 186 289 L 186 289 L 186 288 L 186 287 L 186 287 L 186 286 L 186 285 L 186 285 L 186 284 L 187 283 L 187 283 L 187 282 L 187 281 L 187 281 L 187 280 L 188 280 L 188 279 L 188 278 L 188 278 L 189 277 L 190 276 L 190 276 L 190 275 L 190 274 L 190 274 L 190 273 L 190 272 L 190 272 L 190 271 L 190 270 L 190 270 L 190 269 L 190 269 L 190 268 L 190 267 L 190 267 L 190 266 L 191 265 L 192 265 L 192 264 L 193 263 L 193 263 L 198 262 L 198 261 L 198 261 L 200 260 L 200 259 L 204 259 L 208 258 L 209 258 L 212 257 L 213 256 L 215 256 L 216 255 L 217 254 L 220 254 L 221 253 L 222 252 L 223 252 L 224 251 L 226 250 L 226 250 L 226 249 L 227 248 L 229 248 L 230 247 L 230 247 L 231 246 L 232 245 L 232 245 L 233 244 L 236 243 L 238 243 L 241 242 L 242 241 L 244 241 L 245 240 L 245 239 L 245 239 L 248 238 L 257 237 L 258 237 L 259 236 L 269 236 L 269 235 L 269 234 L 269 234 L 269 233 L 271 232 L 274 232 L 275 231 L 276 230 L 287 230 L 289 229 L 291 228 L 295 228 L 297 227 L 297 226 L 299 226 L 306 225 L 315 225 L 325 224 L 326 223 L 326 223 L 326 222 L 327 221 L 329 221 L 342 220 L 348 219 L 349 219 L 354 218 L 355 217 L 355 217 L 370 216 L 370 215 L 371 215 L 372 214 L 374 214 L 378 213 L 379 212 L 382 212 L 384 211 L 388 210 L 396 210 L 396 209 L 398 208 L 398 208 L 398 207 L 399 206 L 403 206 L 411 205 L 430 204 L 436 204 L 440 203 L 441 203 L 443 202 L 445 201 L 445 201 L 445 200 L 445 199 L 445 199 L 445 198 L 445 197 L 445 197 L 445 196 L 445 195 L 446 195 L 446 194 L 446 193 L 446 193 L 447 192 L 448 192 L 450 191 L 450 190 L 450 190 L 451 189 L 451 188 L 453 188 L 453 187 L 453 186 L 453 186 L 453 185 L 453 184 L 453 184 L 455 183 L 456 182 L 456 182 L 457 181 L 457 181 L 457 180 L 457 179 L 458 179 L 459 178 L 459 177 L 459 177 L 460 176 L 461 175 L 461 175 L 462 174 L 464 173 L 465 173 L 467 172 L 471 171 L 471 171 L 472 170 L 472 170 L 472 169 L 472 168 L 473 168 L 475 167 L 476 166 L 479 166 L 479 165 L 480 164 L 483 164 L 485 163 L 485 162 L 489 162 L 490 161 L 490 160 L 492 160 L 492 159 L 498 159 L 500 158 L 500 157 L 506 157 L 508 156 L 514 155 L 515 155 L 516 154 L 517 153 L 518 153 L 518 152 L 522 151 L 525 151 L 528 150 L 528 149 L 530 149 L 532 148 L 532 148 L 532 147 L 532 146 L 533 146 L 533 145 L 534 144 L 535 144 L 535 143 L 536 142 L 537 142 L 543 141 L 551 140 L 551 140 L 552 139 L 557 138 L 559 138 L 561 137 L 561 137 L 563 136 L 565 135 L 565 135 L 565 134 L 565 133 L 565 133 L 566 132 L 566 131 L 566 131 L 566 130 L 568 129 L 571 129 L 571 128 L 571 127 L 572 127 L 572 126 L 572 126 L 572 125 L 573 124 L 573 124 L 573 123 L 573 122 L 573 122 L 573 121 L 579 120 L 583 120 L 583 119 L 584 118 L 592 118 L 600 117 L 602 116 L 607 116 L 611 115 L 621 115 L 624 114 L 627 113 L 628 113 L 628 112 L 628 111 L 628 111 L 628 110 L 628 109 L 628 109 L 630 108 L 632 107 L 644 107 L 647 106 L 652 105 L 661 105 L 668 104 L 673 104 L 677 103 L 684 102 L 684 102 L 699 101 L 713 100 L 713 100 L 723 99 L 723 98 L 731 98 L 733 97 L 737 96 L 737 96 L 738 95 L 738 94 L 743 94 L 744 93 L 748 92 L 754 92 L 755 91 L 757 91 L 758 90 L 763 89 L 768 89 L 768 88 L 774 87 L 781 87 L 782 86 L 782 85 L 784 85 L 786 84 L 787 83 L 792 83 L 796 82 L 800 82 L 804 81 L 804 80 L 811 80 L 813 79 L 817 78 L 824 78 L 824 77 L 832 76 L 833 76 L 833 75 L 835 74 L 836 74 L 839 73 L 839 72 L 843 72 L 847 71 L 848 71 L 849 70 L 849 69 L 861 69 L 861 68 L 862 67 L 863 67 L 863 66 L 864 65 L 865 65 L 865 64 L 866 63 L 869 63 L 869 62 L 871 61 L 872 61 L 873 60 L 874 60 L 875 59 L 875 58 L 876 58 L 877 57 L 877 56 L 878 56 L 878 55 L 878 54 L 879 54 L 880 53 L 883 52 L 883 52 L 883 51 L 885 50 L 885 50 L 887 49 L 889 49 L 889 48 L 890 47 L 892 47 L 894 46 L 895 45 L 895 45 L 896 44 L 899 43 L 899 43 L 899 42 L 900 41 L 900 41 L 901 40 L 901 39 L 902 39 L 902 38 L 904 38 L 909 37 L 910 36 L 912 36 L 913 35 L 916 34 L 919 34 L 919 33 L 923 32 L 927 32 L 930 31 L 934 30 L 935 30 L 936 29 L 936 28 L 936 28 L 937 27 L 938 27 L 938 26 L 939 25 L 939 25 L 939 24 L 940 23 L 942 23 L 944 22 L 944 21 L 945 21 L 945 20"></path><path stroke-width="2" d="M 945 346 L 945.000000 15.000000" /><path d="M 945 346 L 945.000000 15.000000" stroke-width="2"></path><path d="M 945 346 L 950 346" stroke-width="2" /><path stroke-width="2" d="M 945 346 L 950 346"></path><text xmlns="http://www.w3.org/2000/svg" x="955" y="352">0</text><path d="M 945 309 L 950 309" stroke-width="2" /><path d="M 945 309 L 950 309" stroke-width="2"></path><text xmlns="http://www.w3.org/2000/svg" x="955" y="315">57</text><path stroke-width="2" d="M 945 272 L 950 272" /><path stroke-width="2" d="M 945 272 L 950 272"></path><text y="278" xmlns="http://www.w3.org/2000/svg" x="955">114</text><path stroke-width="2" d="M 945 236 L 950 236" /><path stroke-width="2" d="M 945 236 L 950 236"></path><text xmlns="http://www.w3.org/2000/svg" x="955" y="242">170</text><path stroke-width="2" d="M 945 199 L 950 199" /><path stroke-width="2" d="M 945 199 L 950 199"></path><text xmlns="http://www.w3.org/2000/svg" x="955" y="205">227</text><path d="M 945 162 L 950 162" stroke-width="2" /><path stroke-width="2" d="M 945 162 L 950 162"></path><text xmlns="http://www.w3.org/2000/svg" x="955" y="168">284</text><path stroke-width="2" d="M 945 126 L 950 126" /><path stroke-width="2" d="M 945 126 L 950 126"></path><text xmlns="http://www.w3.org/2000/svg" x="955" y="132">340</text><path stroke-width="2" d="M 945 89 L 950 89" /><path stroke-width="2" d="M 945 89 L 950 89"></path><text xmlns="http://www.w3.org/2000/svg" x="955" y="95">397</text><path stroke-width="2" d="M 945 52 L 950 52" /><path stroke-width="2" d="M 945 52 L 950 52"></path><text xmlns="http://www.w3.org/2000/svg" x="955" y="58">454</text><path stroke-width="2" d="M 945 16 L 950 16" /><path stroke-width="2" d="M 945 16 L 950 16"></path><text xmlns="http://www.w3.org/2000/svg" x="955" y="22">510</text><text xmlns="http://www.w3.org/2000/svg" x="987" y="175" transform="rotate(90.00,987,175)">Stargazers</text><path stroke-width="2" d="M 57.000000 346.000000 L 945 346" /><path stroke-width="2" d="M 57.000000 346.000000 L 945 346"></path><path stroke-width="2" d="M 58 346 L 58 351" /><path stroke-width="2" d="M 58 346 L 58 351"></path><text xmlns="http://www.w3.org/2000/svg" x="25" y="368">2023-04-02</text><path stroke-width="2" d="M 157 346 L 157 351" /><path d="M 157 346 L 157 351" stroke-width="2"></path><text xmlns="http://www.w3.org/2000/svg" x="124" y="368">2023-05-22</text><path stroke-width="2" d="M 256 346 L 256 351" /><path stroke-width="2" d="M 256 346 L 256 351"></path><text xmlns="http://www.w3.org/2000/svg" x="223" y="368">2023-07-11</text><path stroke-width="2" d="M 354 346 L 354 351" /><path stroke-width="2" d="M 354 346 L 354 351"></path><text xmlns="http://www.w3.org/2000/svg" x="321" y="368">2023-08-30</text><path stroke-width="2" d="M 453 346 L 453 351" /><path stroke-width="2" d="M 453 346 L 453 351"></path><text xmlns="http://www.w3.org/2000/svg" x="420" y="368">2023-10-19</text><path d="M 551 346 L 551 351" stroke-width="2" /><path stroke-width="2" d="M 551 346 L 551 351"></path><text xmlns="http://www.w3.org/2000/svg" x="518" y="368">2023-12-08</text><path stroke-width="2" d="M 650 346 L 650 351" /><path stroke-width="2" d="M 650 346 L 650 351"></path><text xmlns="http://www.w3.org/2000/svg" x="617" y="368">2024-01-27</text><path stroke-width="2" d="M 748 346 L 748 351" /><path stroke-width="2" d="M 748 346 L 748 351"></path><text xmlns="http://www.w3.org/2000/svg" x="715" y="368">2024-03-17</text><path stroke-width="2" d="M 847 346 L 847 351" /><path stroke-width="2" d="M 847 346 L 847 351"></path><text x="814" y="368" xmlns="http://www.w3.org/2000/svg">2024-05-06</text><path stroke-width="2" d="M 945 346 L 945 351" /><path stroke-width="2" d="M 945 346 L 945 351"></path><text xmlns="http://www.w3.org/2000/svg" x="912" y="368">2024-06-25</text><text y="390" xmlns="http://www.w3.org/2000/svg" x="487">Time</text></svg>