<svg height="400px" xmlns="http://www.w3.org/2000/svg" xmlns:xlink="http://www.w3.org/1999/xlink" width="1024px"><style type="text/css">
path { fill: none; stroke: rgb(51,51,51); }
path.series { stroke: #6b63ff; }
rect.background { fill: rgb(255,255,255); stroke: none; }

text {
	stroke-width: 0;
	stroke: none;
	fill: rgba(51,51,51,1.0);
	font-size: 12.8px;
	font-family: 'Roboto Medium', sans-serif;
}
</style><rect height="400px" class="background" rx="8" x="0" y="0" width="1024px" /><rect x="0" y="0" width="1024px" height="400px" class="background" rx="8"></rect><path stroke-width="2" class="series" d="M 58 345 L 61 345 L 76 344 L 76 344 L 76 344 L 76 343 L 76 343 L 76 343 L 76 342 L 76 342 L 76 342 L 76 341 L 76 341 L 76 340 L 77 340 L 77 340 L 77 339 L 77 339 L 77 339 L 78 338 L 78 338 L 78 338 L 79 337 L 80 337 L 80 336 L 80 336 L 81 336 L 82 335 L 83 335 L 83 335 L 84 334 L 85 334 L 90 334 L 90 333 L 90 333 L 90 332 L 90 332 L 93 332 L 94 331 L 95 331 L 97 331 L 101 330 L 103 330 L 109 330 L 111 329 L 115 329 L 119 328 L 120 328 L 134 328 L 135 327 L 135 327 L 137 327 L 137 326 L 137 326 L 137 326 L 137 325 L 137 325 L 137 324 L 137 324 L 137 324 L 137 323 L 137 323 L 137 323 L 138 322 L 138 322 L 138 322 L 138 321 L 138 321 L 138 320 L 138 320 L 138 320 L 138 319 L 138 319 L 138 319 L 138 318 L 138 318 L 138 318 L 138 317 L 138 317 L 138 316 L 138 316 L 138 316 L 138 315 L 138 315 L 138 315 L 138 314 L 138 314 L 138 314 L 138 313 L 138 313 L 138 313 L 138 312 L 138 312 L 138 311 L 138 311 L 138 311 L 138 310 L 139 310 L 139 310 L 139 309 L 139 309 L 139 309 L 139 308 L 139 308 L 140 307 L 140 307 L 140 307 L 140 306 L 140 306 L 140 306 L 140 305 L 140 305 L 140 305 L 140 304 L 140 304 L 140 303 L 140 303 L 140 303 L 140 302 L 140 302 L 141 302 L 141 301 L 141 301 L 142 301 L 142 300 L 142 300 L 142 299 L 145 299 L 146 299 L 146 298 L 147 298 L 147 298 L 149 297 L 151 297 L 152 297 L 154 296 L 155 296 L 156 295 L 157 295 L 157 295 L 159 294 L 160 294 L 160 294 L 161 293 L 162 293 L 163 293 L 163 292 L 163 292 L 163 291 L 164 291 L 166 291 L 166 290 L 166 290 L 167 290 L 167 289 L 167 289 L 169 289 L 170 288 L 172 288 L 173 287 L 174 287 L 175 287 L 175 286 L 175 286 L 176 286 L 182 285 L 183 285 L 184 285 L 189 284 L 190 284 L 190 283 L 190 283 L 190 283 L 191 282 L 193 282 L 194 282 L 194 281 L 201 281 L 202 281 L 204 280 L 206 280 L 207 280 L 207 279 L 208 279 L 213 278 L 218 278 L 225 278 L 225 277 L 225 277 L 225 277 L 226 276 L 227 276 L 235 276 L 239 275 L 239 275 L 242 274 L 243 274 L 244 274 L 253 273 L 253 273 L 253 273 L 254 272 L 255 272 L 257 272 L 258 271 L 260 271 L 262 270 L 264 270 L 269 270 L 269 269 L 270 269 L 270 269 L 270 268 L 271 268 L 273 268 L 278 267 L 290 267 L 294 266 L 296 266 L 297 266 L 298 265 L 299 265 L 299 265 L 299 264 L 299 264 L 299 264 L 299 263 L 299 263 L 299 262 L 300 262 L 300 262 L 300 261 L 300 261 L 300 261 L 300 260 L 300 260 L 302 260 L 303 259 L 303 259 L 303 258 L 303 258 L 304 258 L 304 257 L 304 257 L 304 257 L 304 256 L 304 256 L 304 256 L 305 255 L 306 255 L 306 254 L 307 254 L 307 254 L 307 253 L 307 253 L 308 253 L 308 252 L 308 252 L 308 252 L 309 251 L 309 251 L 309 250 L 310 250 L 311 250 L 312 249 L 313 249 L 315 249 L 315 248 L 316 248 L 316 248 L 316 247 L 316 247 L 317 247 L 318 246 L 319 246 L 320 245 L 320 245 L 321 245 L 323 244 L 324 244 L 324 244 L 327 243 L 327 243 L 328 243 L 328 242 L 328 242 L 333 241 L 333 241 L 334 241 L 337 240 L 339 240 L 342 240 L 343 239 L 343 239 L 344 239 L 345 238 L 345 238 L 347 237 L 349 237 L 351 237 L 351 236 L 352 236 L 354 236 L 354 235 L 354 235 L 354 235 L 354 234 L 354 234 L 355 233 L 356 233 L 356 233 L 356 232 L 357 232 L 361 232 L 366 231 L 366 231 L 366 231 L 369 230 L 371 230 L 371 229 L 372 229 L 373 229 L 374 228 L 374 228 L 374 228 L 374 227 L 374 227 L 374 227 L 375 226 L 375 226 L 375 225 L 376 225 L 378 225 L 378 224 L 378 224 L 378 224 L 378 223 L 379 223 L 379 223 L 379 222 L 379 222 L 379 221 L 379 221 L 379 221 L 379 220 L 383 220 L 385 220 L 385 219 L 386 219 L 396 219 L 397 218 L 400 218 L 403 217 L 409 217 L 411 217 L 413 216 L 413 216 L 413 216 L 413 215 L 413 215 L 414 215 L 414 214 L 415 214 L 416 214 L 423 213 L 426 213 L 428 212 L 434 212 L 438 212 L 442 211 L 444 211 L 448 211 L 448 210 L 457 210 L 466 210 L 466 209 L 472 209 L 473 208 L 478 208 L 479 208 L 481 207 L 481 207 L 482 207 L 482 206 L 485 206 L 486 206 L 488 205 L 492 205 L 493 204 L 494 204 L 494 204 L 497 203 L 501 203 L 501 203 L 505 202 L 508 202 L 509 202 L 509 201 L 511 201 L 512 200 L 513 200 L 516 200 L 518 199 L 521 199 L 523 199 L 523 198 L 528 198 L 529 198 L 531 197 L 535 197 L 536 196 L 540 196 L 541 196 L 541 195 L 542 195 L 543 195 L 545 194 L 545 194 L 547 194 L 550 193 L 551 193 L 551 192 L 551 192 L 559 192 L 559 191 L 559 191 L 560 191 L 560 190 L 561 190 L 561 190 L 561 189 L 562 189 L 563 188 L 564 188 L 565 188 L 566 187 L 566 187 L 567 187 L 567 186 L 567 186 L 568 186 L 569 185 L 569 185 L 569 184 L 569 184 L 569 184 L 570 183 L 571 183 L 572 183 L 572 182 L 573 182 L 573 182 L 574 181 L 575 181 L 576 181 L 576 180 L 577 180 L 578 179 L 579 179 L 580 179 L 580 178 L 580 178 L 582 178 L 582 177 L 582 177 L 583 177 L 583 176 L 583 176 L 583 175 L 584 175 L 584 175 L 585 174 L 588 174 L 589 174 L 591 173 L 591 173 L 593 173 L 594 172 L 595 172 L 597 171 L 600 171 L 602 171 L 604 170 L 605 170 L 605 170 L 605 169 L 605 169 L 606 169 L 606 168 L 606 168 L 607 167 L 607 167 L 607 167 L 608 166 L 609 166 L 610 166 L 610 165 L 611 165 L 611 165 L 614 164 L 614 164 L 614 163 L 615 163 L 616 163 L 618 162 L 621 162 L 625 162 L 625 161 L 625 161 L 625 161 L 627 160 L 629 160 L 630 159 L 630 159 L 630 159 L 630 158 L 632 158 L 635 158 L 636 157 L 636 157 L 636 157 L 638 156 L 638 156 L 638 155 L 638 155 L 641 155 L 644 154 L 645 154 L 648 154 L 649 153 L 649 153 L 653 153 L 654 152 L 656 152 L 658 151 L 660 151 L 661 151 L 661 150 L 661 150 L 662 150 L 662 149 L 662 149 L 663 149 L 663 148 L 663 148 L 664 148 L 664 147 L 664 147 L 665 146 L 666 146 L 667 146 L 671 145 L 672 145 L 677 145 L 679 144 L 679 144 L 680 144 L 681 143 L 683 143 L 684 142 L 684 142 L 684 142 L 685 141 L 685 141 L 685 141 L 685 140 L 685 140 L 686 140 L 686 139 L 686 139 L 686 138 L 687 138 L 687 138 L 688 137 L 689 137 L 689 137 L 690 136 L 690 136 L 691 136 L 691 135 L 691 135 L 692 134 L 693 134 L 696 134 L 696 133 L 696 133 L 696 133 L 696 132 L 697 132 L 697 132 L 698 131 L 699 131 L 701 130 L 703 130 L 706 130 L 707 129 L 709 129 L 712 129 L 716 128 L 716 128 L 719 128 L 723 127 L 723 127 L 723 126 L 728 126 L 729 126 L 730 125 L 730 125 L 730 125 L 739 124 L 739 124 L 740 124 L 740 123 L 741 123 L 741 122 L 743 122 L 743 122 L 743 121 L 744 121 L 744 121 L 745 120 L 745 120 L 745 120 L 745 119 L 745 119 L 746 118 L 746 118 L 746 118 L 748 117 L 749 117 L 750 117 L 750 116 L 750 116 L 751 116 L 752 115 L 753 115 L 753 115 L 754 114 L 754 114 L 754 113 L 754 113 L 756 113 L 756 112 L 758 112 L 758 112 L 759 111 L 759 111 L 760 111 L 760 110 L 760 110 L 760 109 L 761 109 L 761 109 L 762 108 L 763 108 L 763 108 L 764 107 L 765 107 L 765 107 L 765 106 L 765 106 L 765 105 L 766 105 L 766 105 L 766 104 L 767 104 L 767 104 L 768 103 L 768 103 L 769 103 L 769 102 L 769 102 L 769 101 L 769 101 L 770 101 L 770 100 L 770 100 L 770 100 L 770 99 L 772 99 L 773 99 L 776 98 L 776 98 L 776 97 L 776 97 L 777 97 L 778 96 L 779 96 L 780 96 L 782 95 L 784 95 L 785 95 L 786 94 L 787 94 L 787 93 L 788 93 L 788 93 L 788 92 L 789 92 L 789 92 L 789 91 L 789 91 L 789 91 L 789 90 L 789 90 L 789 89 L 790 89 L 790 89 L 790 88 L 790 88 L 790 88 L 791 87 L 791 87 L 791 87 L 792 86 L 794 86 L 794 85 L 795 85 L 795 85 L 796 84 L 796 84 L 797 84 L 800 83 L 800 83 L 801 83 L 801 82 L 801 82 L 801 82 L 803 81 L 805 81 L 806 80 L 808 80 L 808 80 L 808 79 L 808 79 L 809 79 L 814 78 L 816 78 L 819 78 L 821 77 L 821 77 L 822 76 L 824 76 L 824 76 L 824 75 L 824 75 L 825 75 L 825 74 L 826 74 L 826 74 L 828 73 L 830 73 L 830 72 L 830 72 L 830 72 L 830 71 L 830 71 L 830 71 L 830 70 L 830 70 L 830 70 L 830 69 L 830 69 L 830 68 L 830 68 L 830 68 L 830 67 L 830 67 L 831 67 L 831 66 L 831 66 L 831 66 L 831 65 L 832 65 L 832 64 L 832 64 L 832 64 L 832 63 L 834 63 L 834 63 L 834 62 L 834 62 L 834 62 L 834 61 L 835 61 L 836 60 L 838 60 L 839 60 L 839 59 L 840 59 L 840 59 L 841 58 L 842 58 L 844 58 L 845 57 L 846 57 L 846 56 L 846 56 L 846 56 L 846 55 L 846 55 L 846 55 L 848 54 L 848 54 L 849 54 L 853 53 L 854 53 L 856 52 L 858 52 L 859 52 L 860 51 L 860 51 L 860 51 L 861 50 L 861 50 L 862 50 L 862 49 L 863 49 L 864 49 L 864 48 L 864 48 L 864 47 L 864 47 L 864 47 L 864 46 L 865 46 L 865 46 L 865 45 L 866 45 L 866 45 L 867 44 L 868 44 L 868 43 L 868 43 L 869 43 L 869 42 L 870 42 L 870 42 L 871 41 L 871 41 L 871 41 L 872 40 L 873 40 L 877 39 L 878 39 L 879 39 L 882 38 L 883 38 L 884 38 L 887 37 L 887 37 L 888 37 L 891 36 L 897 36 L 897 35 L 899 35 L 901 35 L 903 34 L 904 34 L 904 34 L 906 33 L 907 33 L 908 33 L 908 32 L 910 32 L 911 31 L 912 31 L 912 31 L 913 30 L 913 30 L 914 30 L 915 29 L 918 29 L 919 29 L 920 28 L 921 28 L 921 27 L 923 27 L 923 27 L 924 26 L 924 26 L 925 26 L 925 25 L 926 25 L 927 25 L 927 24 L 928 24 L 929 23 L 930 23 L 930 23 L 931 22 L 931 22 L 932 22 L 932 21 L 933 21 L 933 21 L 933 20 L 933 20 L 933 19 L 934 19 L 934 19 L 935 18 L 937 18 L 938 18 L 938 17 L 939 17 L 942 17 L 943 16 L 945 16 L 945 16" /><path stroke-width="2" class="series" d="M 58 345 L 61 345 L 76 344 L 76 344 L 76 344 L 76 343 L 76 343 L 76 343 L 76 342 L 76 342 L 76 342 L 76 341 L 76 341 L 76 340 L 77 340 L 77 340 L 77 339 L 77 339 L 77 339 L 78 338 L 78 338 L 78 338 L 79 337 L 80 337 L 80 336 L 80 336 L 81 336 L 82 335 L 83 335 L 83 335 L 84 334 L 85 334 L 90 334 L 90 333 L 90 333 L 90 332 L 90 332 L 93 332 L 94 331 L 95 331 L 97 331 L 101 330 L 103 330 L 109 330 L 111 329 L 115 329 L 119 328 L 120 328 L 134 328 L 135 327 L 135 327 L 137 327 L 137 326 L 137 326 L 137 326 L 137 325 L 137 325 L 137 324 L 137 324 L 137 324 L 137 323 L 137 323 L 137 323 L 138 322 L 138 322 L 138 322 L 138 321 L 138 321 L 138 320 L 138 320 L 138 320 L 138 319 L 138 319 L 138 319 L 138 318 L 138 318 L 138 318 L 138 317 L 138 317 L 138 316 L 138 316 L 138 316 L 138 315 L 138 315 L 138 315 L 138 314 L 138 314 L 138 314 L 138 313 L 138 313 L 138 313 L 138 312 L 138 312 L 138 311 L 138 311 L 138 311 L 138 310 L 139 310 L 139 310 L 139 309 L 139 309 L 139 309 L 139 308 L 139 308 L 140 307 L 140 307 L 140 307 L 140 306 L 140 306 L 140 306 L 140 305 L 140 305 L 140 305 L 140 304 L 140 304 L 140 303 L 140 303 L 140 303 L 140 302 L 140 302 L 141 302 L 141 301 L 141 301 L 142 301 L 142 300 L 142 300 L 142 299 L 145 299 L 146 299 L 146 298 L 147 298 L 147 298 L 149 297 L 151 297 L 152 297 L 154 296 L 155 296 L 156 295 L 157 295 L 157 295 L 159 294 L 160 294 L 160 294 L 161 293 L 162 293 L 163 293 L 163 292 L 163 292 L 163 291 L 164 291 L 166 291 L 166 290 L 166 290 L 167 290 L 167 289 L 167 289 L 169 289 L 170 288 L 172 288 L 173 287 L 174 287 L 175 287 L 175 286 L 175 286 L 176 286 L 182 285 L 183 285 L 184 285 L 189 284 L 190 284 L 190 283 L 190 283 L 190 283 L 191 282 L 193 282 L 194 282 L 194 281 L 201 281 L 202 281 L 204 280 L 206 280 L 207 280 L 207 279 L 208 279 L 213 278 L 218 278 L 225 278 L 225 277 L 225 277 L 225 277 L 226 276 L 227 276 L 235 276 L 239 275 L 239 275 L 242 274 L 243 274 L 244 274 L 253 273 L 253 273 L 253 273 L 254 272 L 255 272 L 257 272 L 258 271 L 260 271 L 262 270 L 264 270 L 269 270 L 269 269 L 270 269 L 270 269 L 270 268 L 271 268 L 273 268 L 278 267 L 290 267 L 294 266 L 296 266 L 297 266 L 298 265 L 299 265 L 299 265 L 299 264 L 299 264 L 299 264 L 299 263 L 299 263 L 299 262 L 300 262 L 300 262 L 300 261 L 300 261 L 300 261 L 300 260 L 300 260 L 302 260 L 303 259 L 303 259 L 303 258 L 303 258 L 304 258 L 304 257 L 304 257 L 304 257 L 304 256 L 304 256 L 304 256 L 305 255 L 306 255 L 306 254 L 307 254 L 307 254 L 307 253 L 307 253 L 308 253 L 308 252 L 308 252 L 308 252 L 309 251 L 309 251 L 309 250 L 310 250 L 311 250 L 312 249 L 313 249 L 315 249 L 315 248 L 316 248 L 316 248 L 316 247 L 316 247 L 317 247 L 318 246 L 319 246 L 320 245 L 320 245 L 321 245 L 323 244 L 324 244 L 324 244 L 327 243 L 327 243 L 328 243 L 328 242 L 328 242 L 333 241 L 333 241 L 334 241 L 337 240 L 339 240 L 342 240 L 343 239 L 343 239 L 344 239 L 345 238 L 345 238 L 347 237 L 349 237 L 351 237 L 351 236 L 352 236 L 354 236 L 354 235 L 354 235 L 354 235 L 354 234 L 354 234 L 355 233 L 356 233 L 356 233 L 356 232 L 357 232 L 361 232 L 366 231 L 366 231 L 366 231 L 369 230 L 371 230 L 371 229 L 372 229 L 373 229 L 374 228 L 374 228 L 374 228 L 374 227 L 374 227 L 374 227 L 375 226 L 375 226 L 375 225 L 376 225 L 378 225 L 378 224 L 378 224 L 378 224 L 378 223 L 379 223 L 379 223 L 379 222 L 379 222 L 379 221 L 379 221 L 379 221 L 379 220 L 383 220 L 385 220 L 385 219 L 386 219 L 396 219 L 397 218 L 400 218 L 403 217 L 409 217 L 411 217 L 413 216 L 413 216 L 413 216 L 413 215 L 413 215 L 414 215 L 414 214 L 415 214 L 416 214 L 423 213 L 426 213 L 428 212 L 434 212 L 438 212 L 442 211 L 444 211 L 448 211 L 448 210 L 457 210 L 466 210 L 466 209 L 472 209 L 473 208 L 478 208 L 479 208 L 481 207 L 481 207 L 482 207 L 482 206 L 485 206 L 486 206 L 488 205 L 492 205 L 493 204 L 494 204 L 494 204 L 497 203 L 501 203 L 501 203 L 505 202 L 508 202 L 509 202 L 509 201 L 511 201 L 512 200 L 513 200 L 516 200 L 518 199 L 521 199 L 523 199 L 523 198 L 528 198 L 529 198 L 531 197 L 535 197 L 536 196 L 540 196 L 541 196 L 541 195 L 542 195 L 543 195 L 545 194 L 545 194 L 547 194 L 550 193 L 551 193 L 551 192 L 551 192 L 559 192 L 559 191 L 559 191 L 560 191 L 560 190 L 561 190 L 561 190 L 561 189 L 562 189 L 563 188 L 564 188 L 565 188 L 566 187 L 566 187 L 567 187 L 567 186 L 567 186 L 568 186 L 569 185 L 569 185 L 569 184 L 569 184 L 569 184 L 570 183 L 571 183 L 572 183 L 572 182 L 573 182 L 573 182 L 574 181 L 575 181 L 576 181 L 576 180 L 577 180 L 578 179 L 579 179 L 580 179 L 580 178 L 580 178 L 582 178 L 582 177 L 582 177 L 583 177 L 583 176 L 583 176 L 583 175 L 584 175 L 584 175 L 585 174 L 588 174 L 589 174 L 591 173 L 591 173 L 593 173 L 594 172 L 595 172 L 597 171 L 600 171 L 602 171 L 604 170 L 605 170 L 605 170 L 605 169 L 605 169 L 606 169 L 606 168 L 606 168 L 607 167 L 607 167 L 607 167 L 608 166 L 609 166 L 610 166 L 610 165 L 611 165 L 611 165 L 614 164 L 614 164 L 614 163 L 615 163 L 616 163 L 618 162 L 621 162 L 625 162 L 625 161 L 625 161 L 625 161 L 627 160 L 629 160 L 630 159 L 630 159 L 630 159 L 630 158 L 632 158 L 635 158 L 636 157 L 636 157 L 636 157 L 638 156 L 638 156 L 638 155 L 638 155 L 641 155 L 644 154 L 645 154 L 648 154 L 649 153 L 649 153 L 653 153 L 654 152 L 656 152 L 658 151 L 660 151 L 661 151 L 661 150 L 661 150 L 662 150 L 662 149 L 662 149 L 663 149 L 663 148 L 663 148 L 664 148 L 664 147 L 664 147 L 665 146 L 666 146 L 667 146 L 671 145 L 672 145 L 677 145 L 679 144 L 679 144 L 680 144 L 681 143 L 683 143 L 684 142 L 684 142 L 684 142 L 685 141 L 685 141 L 685 141 L 685 140 L 685 140 L 686 140 L 686 139 L 686 139 L 686 138 L 687 138 L 687 138 L 688 137 L 689 137 L 689 137 L 690 136 L 690 136 L 691 136 L 691 135 L 691 135 L 692 134 L 693 134 L 696 134 L 696 133 L 696 133 L 696 133 L 696 132 L 697 132 L 697 132 L 698 131 L 699 131 L 701 130 L 703 130 L 706 130 L 707 129 L 709 129 L 712 129 L 716 128 L 716 128 L 719 128 L 723 127 L 723 127 L 723 126 L 728 126 L 729 126 L 730 125 L 730 125 L 730 125 L 739 124 L 739 124 L 740 124 L 740 123 L 741 123 L 741 122 L 743 122 L 743 122 L 743 121 L 744 121 L 744 121 L 745 120 L 745 120 L 745 120 L 745 119 L 745 119 L 746 118 L 746 118 L 746 118 L 748 117 L 749 117 L 750 117 L 750 116 L 750 116 L 751 116 L 752 115 L 753 115 L 753 115 L 754 114 L 754 114 L 754 113 L 754 113 L 756 113 L 756 112 L 758 112 L 758 112 L 759 111 L 759 111 L 760 111 L 760 110 L 760 110 L 760 109 L 761 109 L 761 109 L 762 108 L 763 108 L 763 108 L 764 107 L 765 107 L 765 107 L 765 106 L 765 106 L 765 105 L 766 105 L 766 105 L 766 104 L 767 104 L 767 104 L 768 103 L 768 103 L 769 103 L 769 102 L 769 102 L 769 101 L 769 101 L 770 101 L 770 100 L 770 100 L 770 100 L 770 99 L 772 99 L 773 99 L 776 98 L 776 98 L 776 97 L 776 97 L 777 97 L 778 96 L 779 96 L 780 96 L 782 95 L 784 95 L 785 95 L 786 94 L 787 94 L 787 93 L 788 93 L 788 93 L 788 92 L 789 92 L 789 92 L 789 91 L 789 91 L 789 91 L 789 90 L 789 90 L 789 89 L 790 89 L 790 89 L 790 88 L 790 88 L 790 88 L 791 87 L 791 87 L 791 87 L 792 86 L 794 86 L 794 85 L 795 85 L 795 85 L 796 84 L 796 84 L 797 84 L 800 83 L 800 83 L 801 83 L 801 82 L 801 82 L 801 82 L 803 81 L 805 81 L 806 80 L 808 80 L 808 80 L 808 79 L 808 79 L 809 79 L 814 78 L 816 78 L 819 78 L 821 77 L 821 77 L 822 76 L 824 76 L 824 76 L 824 75 L 824 75 L 825 75 L 825 74 L 826 74 L 826 74 L 828 73 L 830 73 L 830 72 L 830 72 L 830 72 L 830 71 L 830 71 L 830 71 L 830 70 L 830 70 L 830 70 L 830 69 L 830 69 L 830 68 L 830 68 L 830 68 L 830 67 L 830 67 L 831 67 L 831 66 L 831 66 L 831 66 L 831 65 L 832 65 L 832 64 L 832 64 L 832 64 L 832 63 L 834 63 L 834 63 L 834 62 L 834 62 L 834 62 L 834 61 L 835 61 L 836 60 L 838 60 L 839 60 L 839 59 L 840 59 L 840 59 L 841 58 L 842 58 L 844 58 L 845 57 L 846 57 L 846 56 L 846 56 L 846 56 L 846 55 L 846 55 L 846 55 L 848 54 L 848 54 L 849 54 L 853 53 L 854 53 L 856 52 L 858 52 L 859 52 L 860 51 L 860 51 L 860 51 L 861 50 L 861 50 L 862 50 L 862 49 L 863 49 L 864 49 L 864 48 L 864 48 L 864 47 L 864 47 L 864 47 L 864 46 L 865 46 L 865 46 L 865 45 L 866 45 L 866 45 L 867 44 L 868 44 L 868 43 L 868 43 L 869 43 L 869 42 L 870 42 L 870 42 L 871 41 L 871 41 L 871 41 L 872 40 L 873 40 L 877 39 L 878 39 L 879 39 L 882 38 L 883 38 L 884 38 L 887 37 L 887 37 L 888 37 L 891 36 L 897 36 L 897 35 L 899 35 L 901 35 L 903 34 L 904 34 L 904 34 L 906 33 L 907 33 L 908 33 L 908 32 L 910 32 L 911 31 L 912 31 L 912 31 L 913 30 L 913 30 L 914 30 L 915 29 L 918 29 L 919 29 L 920 28 L 921 28 L 921 27 L 923 27 L 923 27 L 924 26 L 924 26 L 925 26 L 925 25 L 926 25 L 927 25 L 927 24 L 928 24 L 929 23 L 930 23 L 930 23 L 931 22 L 931 22 L 932 22 L 932 21 L 933 21 L 933 21 L 933 20 L 933 20 L 933 19 L 934 19 L 934 19 L 935 18 L 937 18 L 938 18 L 938 17 L 939 17 L 942 17 L 943 16 L 945 16 L 945 16"></path><path stroke-width="2" d="M 945 346 L 945.000000 15.000000" /><path stroke-width="2" d="M 945 346 L 945.000000 15.000000"></path><path stroke-width="2" d="M 945 346 L 950 346" /><path d="M 945 346 L 950 346" stroke-width="2"></path><text xmlns="http://www.w3.org/2000/svg" x="955" y="352">0</text><path stroke-width="2" d="M 945 309 L 950 309" /><path stroke-width="2" d="M 945 309 L 950 309"></path><text xmlns="http://www.w3.org/2000/svg" x="955" y="315">102</text><path stroke-width="2" d="M 945 272 L 950 272" /><path stroke-width="2" d="M 945 272 L 950 272"></path><text xmlns="http://www.w3.org/2000/svg" x="955" y="278">203</text><path stroke-width="2" d="M 945 235 L 950 235" /><path stroke-width="2" d="M 945 235 L 950 235"></path><text y="241" xmlns="http://www.w3.org/2000/svg" x="955">304</text><path stroke-width="2" d="M 945 199 L 950 199" /><path stroke-width="2" d="M 945 199 L 950 199"></path><text xmlns="http://www.w3.org/2000/svg" x="955" y="205">405</text><path stroke-width="2" d="M 945 162 L 950 162" /><path stroke-width="2" d="M 945 162 L 950 162"></path><text xmlns="http://www.w3.org/2000/svg" x="955" y="168">506</text><path stroke-width="2" d="M 945 125 L 950 125" /><path stroke-width="2" d="M 945 125 L 950 125"></path><text xmlns="http://www.w3.org/2000/svg" x="955" y="131">607</text><path stroke-width="2" d="M 945 89 L 950 89" /><path stroke-width="2" d="M 945 89 L 950 89"></path><text y="95" xmlns="http://www.w3.org/2000/svg" x="955">708</text><path stroke-width="2" d="M 945 52 L 950 52" /><path stroke-width="2" d="M 945 52 L 950 52"></path><text xmlns="http://www.w3.org/2000/svg" x="955" y="58">809</text><path stroke-width="2" d="M 945 16 L 950 16" /><path d="M 945 16 L 950 16" stroke-width="2"></path><text xmlns="http://www.w3.org/2000/svg" x="955" y="22">910</text><text xmlns="http://www.w3.org/2000/svg" x="987" y="175" transform="rotate(90.00,987,175)">Stargazers</text><path stroke-width="2" d="M 57.000000 346.000000 L 945 346" /><path stroke-width="2" d="M 57.000000 346.000000 L 945 346"></path><path stroke-width="2" d="M 58 346 L 58 351" /><path stroke-width="2" d="M 58 346 L 58 351"></path><text xmlns="http://www.w3.org/2000/svg" x="25" y="368">2023-04-02</text><path stroke-width="2" d="M 157 346 L 157 351" /><path stroke-width="2" d="M 157 346 L 157 351"></path><text xmlns="http://www.w3.org/2000/svg" x="124" y="368">2023-06-21</text><path stroke-width="2" d="M 256 346 L 256 351" /><path d="M 256 346 L 256 351" stroke-width="2"></path><text x="223" y="368" xmlns="http://www.w3.org/2000/svg">2023-09-09</text><path stroke-width="2" d="M 354 346 L 354 351" /><path stroke-width="2" d="M 354 346 L 354 351"></path><text xmlns="http://www.w3.org/2000/svg" x="321" y="368">2023-11-29</text><path stroke-width="2" d="M 453 346 L 453 351" /><path d="M 453 346 L 453 351" stroke-width="2"></path><text xmlns="http://www.w3.org/2000/svg" x="420" y="368">2024-02-17</text><path d="M 551 346 L 551 351" stroke-width="2" /><path stroke-width="2" d="M 551 346 L 551 351"></path><text xmlns="http://www.w3.org/2000/svg" x="518" y="368">2024-05-07</text><path stroke-width="2" d="M 650 346 L 650 351" /><path stroke-width="2" d="M 650 346 L 650 351"></path><text y="368" xmlns="http://www.w3.org/2000/svg" x="617">2024-07-26</text><path stroke-width="2" d="M 748 346 L 748 351" /><path d="M 748 346 L 748 351" stroke-width="2"></path><text xmlns="http://www.w3.org/2000/svg" x="715" y="368">2024-10-14</text><path stroke-width="2" d="M 847 346 L 847 351" /><path stroke-width="2" d="M 847 346 L 847 351"></path><text y="368" xmlns="http://www.w3.org/2000/svg" x="814">2025-01-03</text><path stroke-width="2" d="M 945 346 L 945 351" /><path stroke-width="2" d="M 945 346 L 945 351"></path><text xmlns="http://www.w3.org/2000/svg" x="912" y="368">2025-03-24</text><text xmlns="http://www.w3.org/2000/svg" x="487" y="390">Time</text></svg>