<svg xmlns="http://www.w3.org/2000/svg" xmlns:xlink="http://www.w3.org/1999/xlink" width="1024px" height="400px"><style type="text/css">
path { fill: none; stroke: rgb(51,51,51); }
path.series { stroke: #6b63ff; }
rect.background { fill: rgb(255,255,255); stroke: none; }

text {
	stroke-width: 0;
	stroke: none;
	fill: rgba(51,51,51,1.0);
	font-size: 12.8px;
	font-family: 'Roboto Medium', sans-serif;
}
</style><rect height="400px" class="background" rx="8" x="0" y="0" width="1024px" /><rect width="1024px" height="400px" class="background" rx="8" x="0" y="0"></rect><path stroke-width="2" class="series" d="M 58 345 L 60 345 L 73 345 L 73 344 L 73 344 L 73 344 L 73 343 L 73 343 L 73 343 L 73 343 L 74 342 L 74 342 L 74 342 L 74 341 L 74 341 L 74 341 L 74 340 L 74 340 L 74 340 L 75 340 L 75 339 L 75 339 L 76 339 L 77 338 L 77 338 L 77 338 L 77 337 L 78 337 L 79 337 L 79 337 L 80 336 L 81 336 L 85 336 L 85 335 L 85 335 L 85 335 L 85 334 L 88 334 L 89 334 L 89 334 L 91 333 L 94 333 L 96 333 L 101 332 L 103 332 L 106 332 L 109 331 L 111 331 L 122 331 L 123 331 L 123 330 L 124 330 L 125 330 L 125 329 L 125 329 L 125 329 L 125 328 L 125 328 L 125 328 L 125 328 L 125 327 L 125 327 L 125 327 L 125 326 L 125 326 L 125 326 L 125 325 L 125 325 L 125 325 L 125 325 L 125 324 L 125 324 L 126 324 L 126 323 L 126 323 L 126 323 L 126 322 L 126 322 L 126 322 L 126 322 L 126 321 L 126 321 L 126 321 L 126 320 L 126 320 L 126 320 L 126 319 L 126 319 L 126 319 L 126 319 L 126 318 L 126 318 L 126 318 L 126 317 L 126 317 L 126 317 L 126 316 L 126 316 L 126 316 L 126 316 L 126 315 L 127 315 L 127 315 L 127 314 L 127 314 L 128 314 L 128 313 L 128 313 L 128 313 L 128 313 L 128 312 L 128 312 L 128 312 L 128 311 L 128 311 L 128 311 L 128 310 L 128 310 L 128 310 L 128 310 L 128 309 L 128 309 L 128 309 L 129 308 L 129 308 L 129 308 L 129 307 L 132 307 L 132 307 L 132 307 L 133 306 L 133 306 L 135 306 L 137 305 L 137 305 L 139 305 L 140 304 L 141 304 L 141 304 L 142 304 L 144 303 L 144 303 L 144 303 L 145 302 L 146 302 L 146 302 L 147 301 L 147 301 L 147 301 L 148 301 L 149 300 L 149 300 L 149 300 L 150 299 L 150 299 L 150 299 L 152 298 L 153 298 L 154 298 L 155 298 L 156 297 L 157 297 L 157 297 L 157 296 L 158 296 L 163 296 L 163 295 L 164 295 L 169 295 L 169 295 L 169 294 L 169 294 L 169 294 L 170 293 L 172 293 L 172 293 L 173 292 L 178 292 L 180 292 L 181 292 L 183 291 L 184 291 L 184 291 L 185 290 L 189 290 L 193 290 L 199 289 L 199 289 L 199 289 L 199 289 L 199 288 L 201 288 L 208 288 L 211 287 L 211 287 L 214 287 L 214 286 L 215 286 L 222 286 L 222 286 L 223 285 L 223 285 L 224 285 L 226 284 L 227 284 L 229 284 L 230 283 L 231 283 L 236 283 L 236 283 L 237 282 L 237 282 L 237 282 L 237 281 L 240 281 L 244 281 L 254 280 L 257 280 L 259 280 L 259 280 L 262 279 L 262 279 L 262 279 L 262 278 L 262 278 L 262 278 L 262 277 L 262 277 L 262 277 L 262 277 L 262 276 L 262 276 L 262 276 L 262 275 L 263 275 L 264 275 L 264 274 L 265 274 L 265 274 L 266 274 L 266 273 L 266 273 L 266 273 L 266 272 L 266 272 L 266 272 L 267 271 L 267 271 L 268 271 L 268 271 L 268 270 L 268 270 L 268 270 L 269 269 L 269 269 L 269 269 L 270 268 L 270 268 L 270 268 L 271 268 L 272 267 L 272 267 L 273 267 L 275 266 L 275 266 L 276 266 L 276 265 L 276 265 L 276 265 L 276 265 L 277 264 L 278 264 L 279 264 L 279 263 L 280 263 L 281 263 L 283 262 L 283 262 L 285 262 L 285 262 L 285 261 L 286 261 L 286 261 L 290 260 L 290 260 L 291 260 L 293 259 L 295 259 L 298 259 L 299 259 L 299 258 L 300 258 L 300 258 L 300 257 L 302 257 L 304 257 L 305 256 L 305 256 L 307 256 L 307 256 L 307 255 L 307 255 L 308 255 L 308 254 L 308 254 L 309 254 L 309 253 L 309 253 L 310 253 L 313 253 L 318 252 L 318 252 L 318 252 L 320 251 L 322 251 L 322 251 L 323 250 L 324 250 L 325 250 L 325 250 L 325 249 L 325 249 L 325 249 L 325 248 L 325 248 L 325 248 L 325 247 L 326 247 L 328 247 L 328 247 L 328 246 L 328 246 L 328 246 L 329 245 L 329 245 L 329 245 L 329 244 L 329 244 L 329 244 L 329 244 L 329 243 L 332 243 L 334 243 L 334 242 L 335 242 L 343 242 L 344 241 L 347 241 L 349 241 L 356 241 L 357 240 L 358 240 L 358 240 L 358 239 L 358 239 L 358 239 L 358 238 L 359 238 L 360 238 L 366 238 L 368 237 L 370 237 L 375 237 L 379 236 L 382 236 L 384 236 L 387 235 L 387 235 L 395 235 L 402 235 L 402 234 L 408 234 L 408 234 L 412 233 L 413 233 L 415 233 L 415 232 L 416 232 L 416 232 L 418 232 L 419 231 L 421 231 L 424 231 L 425 230 L 426 230 L 426 230 L 429 229 L 431 229 L 432 229 L 435 229 L 438 228 L 439 228 L 439 228 L 440 227 L 441 227 L 442 227 L 444 226 L 446 226 L 448 226 L 450 226 L 450 225 L 454 225 L 455 225 L 457 224 L 461 224 L 461 224 L 465 223 L 465 223 L 465 223 L 467 223 L 467 222 L 469 222 L 469 222 L 471 221 L 473 221 L 474 221 L 474 220 L 474 220 L 480 220 L 480 220 L 481 219 L 481 219 L 481 219 L 482 218 L 482 218 L 482 218 L 483 217 L 484 217 L 484 217 L 486 217 L 486 216 L 487 216 L 487 216 L 488 215 L 488 215 L 488 215 L 489 214 L 489 214 L 489 214 L 489 214 L 489 213 L 490 213 L 490 213 L 492 212 L 492 212 L 492 212 L 493 211 L 493 211 L 494 211 L 495 211 L 495 210 L 496 210 L 497 210 L 498 209 L 498 209 L 498 209 L 499 208 L 500 208 L 500 208 L 500 208 L 501 207 L 501 207 L 501 207 L 501 206 L 502 206 L 502 206 L 503 205 L 505 205 L 506 205 L 507 205 L 507 204 L 509 204 L 511 204 L 511 203 L 513 203 L 515 203 L 517 202 L 519 202 L 519 202 L 519 202 L 520 201 L 520 201 L 520 201 L 520 200 L 521 200 L 521 200 L 521 199 L 521 199 L 522 199 L 523 199 L 524 198 L 524 198 L 525 198 L 525 197 L 527 197 L 527 197 L 527 196 L 528 196 L 529 196 L 531 196 L 536 195 L 536 195 L 536 195 L 536 194 L 538 194 L 540 194 L 540 193 L 540 193 L 540 193 L 541 193 L 542 192 L 545 192 L 545 192 L 545 191 L 545 191 L 547 191 L 547 190 L 547 190 L 547 190 L 550 190 L 553 189 L 553 189 L 556 189 L 556 188 L 557 188 L 560 188 L 561 187 L 563 187 L 564 187 L 566 187 L 567 186 L 567 186 L 567 186 L 567 185 L 567 185 L 567 185 L 568 184 L 568 184 L 568 184 L 569 184 L 569 183 L 569 183 L 570 183 L 571 182 L 571 182 L 575 182 L 576 181 L 580 181 L 582 181 L 582 181 L 583 180 L 583 180 L 586 180 L 586 179 L 586 179 L 587 179 L 587 178 L 587 178 L 587 178 L 587 178 L 588 177 L 588 177 L 588 177 L 588 176 L 588 176 L 589 176 L 589 175 L 590 175 L 590 175 L 591 175 L 591 174 L 592 174 L 592 174 L 592 173 L 593 173 L 594 173 L 596 172 L 596 172 L 596 172 L 596 172 L 596 171 L 597 171 L 597 171 L 597 170 L 598 170 L 600 170 L 602 169 L 605 169 L 606 169 L 607 169 L 610 168 L 613 168 L 613 168 L 615 167 L 619 167 L 619 167 L 619 166 L 623 166 L 624 166 L 625 166 L 625 165 L 625 165 L 632 165 L 633 164 L 633 164 L 633 164 L 634 163 L 634 163 L 635 163 L 636 163 L 636 162 L 637 162 L 637 162 L 637 161 L 638 161 L 638 161 L 638 160 L 638 160 L 638 160 L 638 160 L 638 159 L 640 159 L 641 159 L 642 158 L 642 158 L 642 158 L 643 157 L 643 157 L 644 157 L 644 157 L 645 156 L 645 156 L 645 156 L 645 155 L 647 155 L 647 155 L 648 154 L 648 154 L 649 154 L 650 154 L 650 153 L 650 153 L 650 153 L 650 152 L 651 152 L 651 152 L 651 151 L 652 151 L 652 151 L 654 151 L 654 150 L 654 150 L 654 150 L 654 149 L 655 149 L 655 149 L 655 148 L 655 148 L 656 148 L 656 148 L 657 147 L 657 147 L 657 147 L 657 146 L 657 146 L 657 146 L 658 145 L 658 145 L 658 145 L 658 145 L 658 144 L 658 144 L 661 144 L 661 143 L 663 143 L 663 143 L 663 142 L 664 142 L 665 142 L 666 142 L 666 141 L 667 141 L 669 141 L 671 140 L 671 140 L 672 140 L 673 139 L 673 139 L 674 139 L 674 139 L 674 138 L 674 138 L 674 138 L 674 137 L 674 137 L 674 137 L 675 136 L 675 136 L 675 136 L 675 136 L 675 135 L 676 135 L 676 135 L 676 134 L 677 134 L 677 134 L 679 133 L 679 133 L 679 133 L 679 132 L 681 132 L 681 132 L 681 132 L 684 131 L 684 131 L 684 131 L 684 130 L 685 130 L 687 130 L 688 130 L 689 129 L 690 129 L 690 129 L 690 128 L 691 128 L 691 128 L 695 127 L 697 127 L 700 127 L 701 126 L 702 126 L 703 126 L 704 126 L 704 125 L 704 125 L 704 125 L 705 124 L 705 124 L 706 124 L 706 124 L 707 123 L 709 123 L 709 123 L 709 122 L 709 122 L 709 122 L 709 121 L 709 121 L 709 121 L 709 121 L 709 120 L 709 120 L 709 120 L 709 119 L 709 119 L 709 119 L 709 118 L 709 118 L 710 118 L 710 118 L 710 117 L 710 117 L 710 117 L 710 116 L 710 116 L 711 116 L 711 115 L 711 115 L 712 115 L 712 115 L 712 114 L 712 114 L 712 114 L 712 113 L 713 113 L 714 113 L 716 112 L 716 112 L 717 112 L 718 112 L 718 111 L 718 111 L 719 111 L 721 110 L 722 110 L 723 110 L 723 109 L 723 109 L 723 109 L 723 109 L 723 108 L 723 108 L 724 108 L 725 107 L 725 107 L 728 107 L 730 106 L 731 106 L 733 106 L 734 106 L 735 105 L 735 105 L 735 105 L 735 104 L 735 104 L 736 104 L 736 103 L 737 103 L 737 103 L 738 103 L 738 102 L 738 102 L 738 102 L 738 101 L 738 101 L 738 101 L 738 100 L 739 100 L 739 100 L 739 100 L 741 99 L 741 99 L 741 99 L 742 98 L 742 98 L 742 98 L 743 97 L 743 97 L 743 97 L 743 97 L 744 96 L 745 96 L 745 96 L 749 95 L 749 95 L 750 95 L 753 94 L 754 94 L 755 94 L 757 94 L 758 93 L 758 93 L 761 93 L 766 92 L 766 92 L 768 92 L 769 91 L 771 91 L 771 91 L 772 91 L 773 90 L 774 90 L 775 90 L 775 89 L 777 89 L 778 89 L 778 88 L 779 88 L 779 88 L 780 88 L 780 87 L 780 87 L 784 87 L 784 86 L 785 86 L 786 86 L 786 85 L 787 85 L 788 85 L 789 85 L 789 84 L 789 84 L 789 84 L 790 83 L 791 83 L 791 83 L 792 82 L 793 82 L 793 82 L 793 82 L 794 81 L 795 81 L 795 81 L 795 80 L 796 80 L 796 80 L 796 79 L 796 79 L 796 79 L 797 79 L 797 78 L 799 78 L 800 78 L 801 77 L 801 77 L 804 77 L 804 76 L 806 76 L 807 76 L 809 76 L 811 75 L 813 75 L 814 75 L 815 74 L 815 74 L 817 74 L 819 73 L 821 73 L 821 73 L 821 73 L 821 72 L 821 72 L 821 72 L 822 71 L 823 71 L 824 71 L 825 70 L 825 70 L 825 70 L 831 70 L 832 69 L 833 69 L 834 69 L 836 68 L 837 68 L 837 68 L 838 67 L 838 67 L 838 67 L 839 67 L 840 66 L 840 66 L 841 66 L 841 65 L 841 65 L 842 65 L 842 64 L 843 64 L 844 64 L 846 64 L 847 63 L 851 63 L 852 63 L 852 62 L 853 62 L 854 62 L 854 61 L 854 61 L 854 61 L 857 61 L 859 60 L 860 60 L 860 60 L 861 59 L 861 59 L 862 59 L 863 58 L 866 58 L 866 58 L 866 58 L 866 57 L 867 57 L 867 57 L 867 56 L 868 56 L 868 56 L 869 55 L 870 55 L 871 55 L 872 55 L 872 54 L 872 54 L 872 54 L 873 53 L 873 53 L 876 53 L 880 52 L 880 52 L 884 52 L 885 52 L 887 51 L 887 51 L 888 51 L 888 50 L 890 50 L 890 50 L 892 49 L 893 49 L 894 49 L 895 49 L 898 48 L 903 48 L 903 48 L 903 47 L 903 47 L 903 47 L 905 46 L 905 46 L 905 46 L 914 46 L 916 45 L 916 45 L 918 45 L 919 44 L 922 44 L 924 44 L 925 43 L 925 43 L 926 43 L 927 43 L 932 42 L 933 42 L 934 42 L 935 41 L 936 41 L 937 41" /><path stroke-width="2" class="series" d="M 58 345 L 60 345 L 73 345 L 73 344 L 73 344 L 73 344 L 73 343 L 73 343 L 73 343 L 73 343 L 74 342 L 74 342 L 74 342 L 74 341 L 74 341 L 74 341 L 74 340 L 74 340 L 74 340 L 75 340 L 75 339 L 75 339 L 76 339 L 77 338 L 77 338 L 77 338 L 77 337 L 78 337 L 79 337 L 79 337 L 80 336 L 81 336 L 85 336 L 85 335 L 85 335 L 85 335 L 85 334 L 88 334 L 89 334 L 89 334 L 91 333 L 94 333 L 96 333 L 101 332 L 103 332 L 106 332 L 109 331 L 111 331 L 122 331 L 123 331 L 123 330 L 124 330 L 125 330 L 125 329 L 125 329 L 125 329 L 125 328 L 125 328 L 125 328 L 125 328 L 125 327 L 125 327 L 125 327 L 125 326 L 125 326 L 125 326 L 125 325 L 125 325 L 125 325 L 125 325 L 125 324 L 125 324 L 126 324 L 126 323 L 126 323 L 126 323 L 126 322 L 126 322 L 126 322 L 126 322 L 126 321 L 126 321 L 126 321 L 126 320 L 126 320 L 126 320 L 126 319 L 126 319 L 126 319 L 126 319 L 126 318 L 126 318 L 126 318 L 126 317 L 126 317 L 126 317 L 126 316 L 126 316 L 126 316 L 126 316 L 126 315 L 127 315 L 127 315 L 127 314 L 127 314 L 128 314 L 128 313 L 128 313 L 128 313 L 128 313 L 128 312 L 128 312 L 128 312 L 128 311 L 128 311 L 128 311 L 128 310 L 128 310 L 128 310 L 128 310 L 128 309 L 128 309 L 128 309 L 129 308 L 129 308 L 129 308 L 129 307 L 132 307 L 132 307 L 132 307 L 133 306 L 133 306 L 135 306 L 137 305 L 137 305 L 139 305 L 140 304 L 141 304 L 141 304 L 142 304 L 144 303 L 144 303 L 144 303 L 145 302 L 146 302 L 146 302 L 147 301 L 147 301 L 147 301 L 148 301 L 149 300 L 149 300 L 149 300 L 150 299 L 150 299 L 150 299 L 152 298 L 153 298 L 154 298 L 155 298 L 156 297 L 157 297 L 157 297 L 157 296 L 158 296 L 163 296 L 163 295 L 164 295 L 169 295 L 169 295 L 169 294 L 169 294 L 169 294 L 170 293 L 172 293 L 172 293 L 173 292 L 178 292 L 180 292 L 181 292 L 183 291 L 184 291 L 184 291 L 185 290 L 189 290 L 193 290 L 199 289 L 199 289 L 199 289 L 199 289 L 199 288 L 201 288 L 208 288 L 211 287 L 211 287 L 214 287 L 214 286 L 215 286 L 222 286 L 222 286 L 223 285 L 223 285 L 224 285 L 226 284 L 227 284 L 229 284 L 230 283 L 231 283 L 236 283 L 236 283 L 237 282 L 237 282 L 237 282 L 237 281 L 240 281 L 244 281 L 254 280 L 257 280 L 259 280 L 259 280 L 262 279 L 262 279 L 262 279 L 262 278 L 262 278 L 262 278 L 262 277 L 262 277 L 262 277 L 262 277 L 262 276 L 262 276 L 262 276 L 262 275 L 263 275 L 264 275 L 264 274 L 265 274 L 265 274 L 266 274 L 266 273 L 266 273 L 266 273 L 266 272 L 266 272 L 266 272 L 267 271 L 267 271 L 268 271 L 268 271 L 268 270 L 268 270 L 268 270 L 269 269 L 269 269 L 269 269 L 270 268 L 270 268 L 270 268 L 271 268 L 272 267 L 272 267 L 273 267 L 275 266 L 275 266 L 276 266 L 276 265 L 276 265 L 276 265 L 276 265 L 277 264 L 278 264 L 279 264 L 279 263 L 280 263 L 281 263 L 283 262 L 283 262 L 285 262 L 285 262 L 285 261 L 286 261 L 286 261 L 290 260 L 290 260 L 291 260 L 293 259 L 295 259 L 298 259 L 299 259 L 299 258 L 300 258 L 300 258 L 300 257 L 302 257 L 304 257 L 305 256 L 305 256 L 307 256 L 307 256 L 307 255 L 307 255 L 308 255 L 308 254 L 308 254 L 309 254 L 309 253 L 309 253 L 310 253 L 313 253 L 318 252 L 318 252 L 318 252 L 320 251 L 322 251 L 322 251 L 323 250 L 324 250 L 325 250 L 325 250 L 325 249 L 325 249 L 325 249 L 325 248 L 325 248 L 325 248 L 325 247 L 326 247 L 328 247 L 328 247 L 328 246 L 328 246 L 328 246 L 329 245 L 329 245 L 329 245 L 329 244 L 329 244 L 329 244 L 329 244 L 329 243 L 332 243 L 334 243 L 334 242 L 335 242 L 343 242 L 344 241 L 347 241 L 349 241 L 356 241 L 357 240 L 358 240 L 358 240 L 358 239 L 358 239 L 358 239 L 358 238 L 359 238 L 360 238 L 366 238 L 368 237 L 370 237 L 375 237 L 379 236 L 382 236 L 384 236 L 387 235 L 387 235 L 395 235 L 402 235 L 402 234 L 408 234 L 408 234 L 412 233 L 413 233 L 415 233 L 415 232 L 416 232 L 416 232 L 418 232 L 419 231 L 421 231 L 424 231 L 425 230 L 426 230 L 426 230 L 429 229 L 431 229 L 432 229 L 435 229 L 438 228 L 439 228 L 439 228 L 440 227 L 441 227 L 442 227 L 444 226 L 446 226 L 448 226 L 450 226 L 450 225 L 454 225 L 455 225 L 457 224 L 461 224 L 461 224 L 465 223 L 465 223 L 465 223 L 467 223 L 467 222 L 469 222 L 469 222 L 471 221 L 473 221 L 474 221 L 474 220 L 474 220 L 480 220 L 480 220 L 481 219 L 481 219 L 481 219 L 482 218 L 482 218 L 482 218 L 483 217 L 484 217 L 484 217 L 486 217 L 486 216 L 487 216 L 487 216 L 488 215 L 488 215 L 488 215 L 489 214 L 489 214 L 489 214 L 489 214 L 489 213 L 490 213 L 490 213 L 492 212 L 492 212 L 492 212 L 493 211 L 493 211 L 494 211 L 495 211 L 495 210 L 496 210 L 497 210 L 498 209 L 498 209 L 498 209 L 499 208 L 500 208 L 500 208 L 500 208 L 501 207 L 501 207 L 501 207 L 501 206 L 502 206 L 502 206 L 503 205 L 505 205 L 506 205 L 507 205 L 507 204 L 509 204 L 511 204 L 511 203 L 513 203 L 515 203 L 517 202 L 519 202 L 519 202 L 519 202 L 520 201 L 520 201 L 520 201 L 520 200 L 521 200 L 521 200 L 521 199 L 521 199 L 522 199 L 523 199 L 524 198 L 524 198 L 525 198 L 525 197 L 527 197 L 527 197 L 527 196 L 528 196 L 529 196 L 531 196 L 536 195 L 536 195 L 536 195 L 536 194 L 538 194 L 540 194 L 540 193 L 540 193 L 540 193 L 541 193 L 542 192 L 545 192 L 545 192 L 545 191 L 545 191 L 547 191 L 547 190 L 547 190 L 547 190 L 550 190 L 553 189 L 553 189 L 556 189 L 556 188 L 557 188 L 560 188 L 561 187 L 563 187 L 564 187 L 566 187 L 567 186 L 567 186 L 567 186 L 567 185 L 567 185 L 567 185 L 568 184 L 568 184 L 568 184 L 569 184 L 569 183 L 569 183 L 570 183 L 571 182 L 571 182 L 575 182 L 576 181 L 580 181 L 582 181 L 582 181 L 583 180 L 583 180 L 586 180 L 586 179 L 586 179 L 587 179 L 587 178 L 587 178 L 587 178 L 587 178 L 588 177 L 588 177 L 588 177 L 588 176 L 588 176 L 589 176 L 589 175 L 590 175 L 590 175 L 591 175 L 591 174 L 592 174 L 592 174 L 592 173 L 593 173 L 594 173 L 596 172 L 596 172 L 596 172 L 596 172 L 596 171 L 597 171 L 597 171 L 597 170 L 598 170 L 600 170 L 602 169 L 605 169 L 606 169 L 607 169 L 610 168 L 613 168 L 613 168 L 615 167 L 619 167 L 619 167 L 619 166 L 623 166 L 624 166 L 625 166 L 625 165 L 625 165 L 632 165 L 633 164 L 633 164 L 633 164 L 634 163 L 634 163 L 635 163 L 636 163 L 636 162 L 637 162 L 637 162 L 637 161 L 638 161 L 638 161 L 638 160 L 638 160 L 638 160 L 638 160 L 638 159 L 640 159 L 641 159 L 642 158 L 642 158 L 642 158 L 643 157 L 643 157 L 644 157 L 644 157 L 645 156 L 645 156 L 645 156 L 645 155 L 647 155 L 647 155 L 648 154 L 648 154 L 649 154 L 650 154 L 650 153 L 650 153 L 650 153 L 650 152 L 651 152 L 651 152 L 651 151 L 652 151 L 652 151 L 654 151 L 654 150 L 654 150 L 654 150 L 654 149 L 655 149 L 655 149 L 655 148 L 655 148 L 656 148 L 656 148 L 657 147 L 657 147 L 657 147 L 657 146 L 657 146 L 657 146 L 658 145 L 658 145 L 658 145 L 658 145 L 658 144 L 658 144 L 661 144 L 661 143 L 663 143 L 663 143 L 663 142 L 664 142 L 665 142 L 666 142 L 666 141 L 667 141 L 669 141 L 671 140 L 671 140 L 672 140 L 673 139 L 673 139 L 674 139 L 674 139 L 674 138 L 674 138 L 674 138 L 674 137 L 674 137 L 674 137 L 675 136 L 675 136 L 675 136 L 675 136 L 675 135 L 676 135 L 676 135 L 676 134 L 677 134 L 677 134 L 679 133 L 679 133 L 679 133 L 679 132 L 681 132 L 681 132 L 681 132 L 684 131 L 684 131 L 684 131 L 684 130 L 685 130 L 687 130 L 688 130 L 689 129 L 690 129 L 690 129 L 690 128 L 691 128 L 691 128 L 695 127 L 697 127 L 700 127 L 701 126 L 702 126 L 703 126 L 704 126 L 704 125 L 704 125 L 704 125 L 705 124 L 705 124 L 706 124 L 706 124 L 707 123 L 709 123 L 709 123 L 709 122 L 709 122 L 709 122 L 709 121 L 709 121 L 709 121 L 709 121 L 709 120 L 709 120 L 709 120 L 709 119 L 709 119 L 709 119 L 709 118 L 709 118 L 710 118 L 710 118 L 710 117 L 710 117 L 710 117 L 710 116 L 710 116 L 711 116 L 711 115 L 711 115 L 712 115 L 712 115 L 712 114 L 712 114 L 712 114 L 712 113 L 713 113 L 714 113 L 716 112 L 716 112 L 717 112 L 718 112 L 718 111 L 718 111 L 719 111 L 721 110 L 722 110 L 723 110 L 723 109 L 723 109 L 723 109 L 723 109 L 723 108 L 723 108 L 724 108 L 725 107 L 725 107 L 728 107 L 730 106 L 731 106 L 733 106 L 734 106 L 735 105 L 735 105 L 735 105 L 735 104 L 735 104 L 736 104 L 736 103 L 737 103 L 737 103 L 738 103 L 738 102 L 738 102 L 738 102 L 738 101 L 738 101 L 738 101 L 738 100 L 739 100 L 739 100 L 739 100 L 741 99 L 741 99 L 741 99 L 742 98 L 742 98 L 742 98 L 743 97 L 743 97 L 743 97 L 743 97 L 744 96 L 745 96 L 745 96 L 749 95 L 749 95 L 750 95 L 753 94 L 754 94 L 755 94 L 757 94 L 758 93 L 758 93 L 761 93 L 766 92 L 766 92 L 768 92 L 769 91 L 771 91 L 771 91 L 772 91 L 773 90 L 774 90 L 775 90 L 775 89 L 777 89 L 778 89 L 778 88 L 779 88 L 779 88 L 780 88 L 780 87 L 780 87 L 784 87 L 784 86 L 785 86 L 786 86 L 786 85 L 787 85 L 788 85 L 789 85 L 789 84 L 789 84 L 789 84 L 790 83 L 791 83 L 791 83 L 792 82 L 793 82 L 793 82 L 793 82 L 794 81 L 795 81 L 795 81 L 795 80 L 796 80 L 796 80 L 796 79 L 796 79 L 796 79 L 797 79 L 797 78 L 799 78 L 800 78 L 801 77 L 801 77 L 804 77 L 804 76 L 806 76 L 807 76 L 809 76 L 811 75 L 813 75 L 814 75 L 815 74 L 815 74 L 817 74 L 819 73 L 821 73 L 821 73 L 821 73 L 821 72 L 821 72 L 821 72 L 822 71 L 823 71 L 824 71 L 825 70 L 825 70 L 825 70 L 831 70 L 832 69 L 833 69 L 834 69 L 836 68 L 837 68 L 837 68 L 838 67 L 838 67 L 838 67 L 839 67 L 840 66 L 840 66 L 841 66 L 841 65 L 841 65 L 842 65 L 842 64 L 843 64 L 844 64 L 846 64 L 847 63 L 851 63 L 852 63 L 852 62 L 853 62 L 854 62 L 854 61 L 854 61 L 854 61 L 857 61 L 859 60 L 860 60 L 860 60 L 861 59 L 861 59 L 862 59 L 863 58 L 866 58 L 866 58 L 866 58 L 866 57 L 867 57 L 867 57 L 867 56 L 868 56 L 868 56 L 869 55 L 870 55 L 871 55 L 872 55 L 872 54 L 872 54 L 872 54 L 873 53 L 873 53 L 876 53 L 880 52 L 880 52 L 884 52 L 885 52 L 887 51 L 887 51 L 888 51 L 888 50 L 890 50 L 890 50 L 892 49 L 893 49 L 894 49 L 895 49 L 898 48 L 903 48 L 903 48 L 903 47 L 903 47 L 903 47 L 905 46 L 905 46 L 905 46 L 914 46 L 916 45 L 916 45 L 918 45 L 919 44 L 922 44 L 924 44 L 925 43 L 925 43 L 926 43 L 927 43 L 932 42 L 933 42 L 934 42 L 935 41 L 936 41 L 937 41"></path><path stroke-width="2" d="M 937 346 L 937.000000 15.000000" /><path stroke-width="2" d="M 937 346 L 937.000000 15.000000"></path><path stroke-width="2" d="M 937 346 L 942 346" /><path stroke-width="2" d="M 937 346 L 942 346"></path><text xmlns="http://www.w3.org/2000/svg" x="947" y="352">0</text><path stroke-width="2" d="M 937 307 L 942 307" /><path stroke-width="2" d="M 937 307 L 942 307"></path><text x="947" y="313" xmlns="http://www.w3.org/2000/svg">130</text><path stroke-width="2" d="M 937 271 L 942 271" /><path stroke-width="2" d="M 937 271 L 942 271"></path><text x="947" y="277" xmlns="http://www.w3.org/2000/svg">250</text><path d="M 937 235 L 942 235" stroke-width="2" /><path stroke-width="2" d="M 937 235 L 942 235"></path><text xmlns="http://www.w3.org/2000/svg" x="947" y="241">370</text><path stroke-width="2" d="M 937 199 L 942 199" /><path stroke-width="2" d="M 937 199 L 942 199"></path><text xmlns="http://www.w3.org/2000/svg" x="947" y="205">490</text><path stroke-width="2" d="M 937 160 L 942 160" /><path stroke-width="2" d="M 937 160 L 942 160"></path><text xmlns="http://www.w3.org/2000/svg" x="947" y="166">620</text><path stroke-width="2" d="M 937 124 L 942 124" /><path stroke-width="2" d="M 937 124 L 942 124"></path><text xmlns="http://www.w3.org/2000/svg" x="947" y="130">740</text><path stroke-width="2" d="M 937 88 L 942 88" /><path stroke-width="2" d="M 937 88 L 942 88"></path><text xmlns="http://www.w3.org/2000/svg" x="947" y="94">860</text><path stroke-width="2" d="M 937 52 L 942 52" /><path stroke-width="2" d="M 937 52 L 942 52"></path><text y="58" xmlns="http://www.w3.org/2000/svg" x="947">980</text><path stroke-width="2" d="M 937 16 L 942 16" /><path stroke-width="2" d="M 937 16 L 942 16"></path><text xmlns="http://www.w3.org/2000/svg" x="947" y="22">1100</text><text xmlns="http://www.w3.org/2000/svg" x="987" y="175" transform="rotate(90.00,987,175)">Stargazers</text><path stroke-width="2" d="M 57.000000 346.000000 L 937 346" /><path stroke-width="2" d="M 57.000000 346.000000 L 937 346"></path><path stroke-width="2" d="M 58 346 L 58 351" /><path stroke-width="2" d="M 58 346 L 58 351"></path><text xmlns="http://www.w3.org/2000/svg" x="25" y="368">2023-04-02</text><path stroke-width="2" d="M 156 346 L 156 351" /><path stroke-width="2" d="M 156 346 L 156 351"></path><text xmlns="http://www.w3.org/2000/svg" x="123" y="368">2023-07-05</text><path stroke-width="2" d="M 254 346 L 254 351" /><path d="M 254 346 L 254 351" stroke-width="2"></path><text x="221" y="368" xmlns="http://www.w3.org/2000/svg">2023-10-07</text><path stroke-width="2" d="M 352 346 L 352 351" /><path stroke-width="2" d="M 352 346 L 352 351"></path><text xmlns="http://www.w3.org/2000/svg" x="319" y="368">2024-01-10</text><path stroke-width="2" d="M 449 346 L 449 351" /><path stroke-width="2" d="M 449 346 L 449 351"></path><text xmlns="http://www.w3.org/2000/svg" x="416" y="368">2024-04-13</text><path stroke-width="2" d="M 547 346 L 547 351" /><path stroke-width="2" d="M 547 346 L 547 351"></path><text x="514" y="368" xmlns="http://www.w3.org/2000/svg">2024-07-16</text><path stroke-width="2" d="M 645 346 L 645 351" /><path stroke-width="2" d="M 645 346 L 645 351"></path><text xmlns="http://www.w3.org/2000/svg" x="612" y="368">2024-10-18</text><path stroke-width="2" d="M 742 346 L 742 351" /><path stroke-width="2" d="M 742 346 L 742 351"></path><text xmlns="http://www.w3.org/2000/svg" x="709" y="368">2025-01-21</text><path d="M 840 346 L 840 351" stroke-width="2" /><path stroke-width="2" d="M 840 346 L 840 351"></path><text y="368" xmlns="http://www.w3.org/2000/svg" x="807">2025-04-25</text><path stroke-width="2" d="M 937 346 L 937 351" /><path stroke-width="2" d="M 937 346 L 937 351"></path><text y="368" xmlns="http://www.w3.org/2000/svg" x="904">2025-07-28</text><text y="390" xmlns="http://www.w3.org/2000/svg" x="483">Time</text></svg>