<svg xmlns="http://www.w3.org/2000/svg" xmlns:xlink="http://www.w3.org/1999/xlink" width="1024px" height="400px"><style type="text/css">
path { fill: none; stroke: rgb(51,51,51); }
path.series { stroke: #6b63ff; }
rect.background { fill: rgb(255,255,255); stroke: none; }

text {
	stroke-width: 0;
	stroke: none;
	fill: rgba(51,51,51,1.0);
	font-size: 12.8px;
	font-family: 'Roboto Medium', sans-serif;
}
</style><rect x="0" y="0" width="1024px" height="400px" class="background" rx="8" /><rect width="1024px" height="400px" class="background" rx="8" x="0" y="0"></rect><path class="series" d="M 58 345 L 60 345 L 73 345 L 73 344 L 73 344 L 73 344 L 73 343 L 73 343 L 73 343 L 73 343 L 74 342 L 74 342 L 74 342 L 74 341 L 74 341 L 74 341 L 74 340 L 74 340 L 74 340 L 75 340 L 75 339 L 75 339 L 76 339 L 77 338 L 77 338 L 77 338 L 77 337 L 78 337 L 79 337 L 80 337 L 81 336 L 81 336 L 85 336 L 85 335 L 85 335 L 86 335 L 86 334 L 88 334 L 89 334 L 90 334 L 91 333 L 95 333 L 96 333 L 101 332 L 103 332 L 106 332 L 109 331 L 111 331 L 123 331 L 123 331 L 123 330 L 125 330 L 125 330 L 125 329 L 125 329 L 125 329 L 125 328 L 125 328 L 125 328 L 125 328 L 125 327 L 125 327 L 125 327 L 126 326 L 126 326 L 126 326 L 126 325 L 126 325 L 126 325 L 126 325 L 126 324 L 126 324 L 126 324 L 126 323 L 126 323 L 126 323 L 126 322 L 126 322 L 126 322 L 126 322 L 126 321 L 126 321 L 126 321 L 126 320 L 126 320 L 126 320 L 126 319 L 126 319 L 126 319 L 126 319 L 126 318 L 126 318 L 126 318 L 126 317 L 126 317 L 126 317 L 126 316 L 126 316 L 126 316 L 127 316 L 127 315 L 127 315 L 127 315 L 127 314 L 127 314 L 128 314 L 128 313 L 128 313 L 128 313 L 128 313 L 128 312 L 128 312 L 128 312 L 128 311 L 128 311 L 128 311 L 128 310 L 128 310 L 128 310 L 128 310 L 128 309 L 128 309 L 128 309 L 129 308 L 129 308 L 129 308 L 129 307 L 132 307 L 132 307 L 132 307 L 133 306 L 133 306 L 135 306 L 137 305 L 138 305 L 139 305 L 140 304 L 141 304 L 142 304 L 142 304 L 144 303 L 144 303 L 145 303 L 146 302 L 146 302 L 147 302 L 147 301 L 147 301 L 147 301 L 148 301 L 149 300 L 149 300 L 150 300 L 150 299 L 150 299 L 151 299 L 152 298 L 153 298 L 155 298 L 156 298 L 156 297 L 157 297 L 157 297 L 157 296 L 159 296 L 164 296 L 164 295 L 165 295 L 169 295 L 170 295 L 170 294 L 170 294 L 170 294 L 171 293 L 172 293 L 173 293 L 173 292 L 179 292 L 180 292 L 182 292 L 183 291 L 185 291 L 185 291 L 185 290 L 190 290 L 194 290 L 199 289 L 200 289 L 200 289 L 200 289 L 200 288 L 201 288 L 208 288 L 212 287 L 212 287 L 214 287 L 215 286 L 215 286 L 223 286 L 223 286 L 224 285 L 224 285 L 225 285 L 227 284 L 228 284 L 230 284 L 231 283 L 232 283 L 237 283 L 237 283 L 238 282 L 238 282 L 238 282 L 238 281 L 241 281 L 245 281 L 255 280 L 258 280 L 260 280 L 260 280 L 263 279 L 263 279 L 263 279 L 263 278 L 263 278 L 263 278 L 263 277 L 263 277 L 263 277 L 263 277 L 263 276 L 263 276 L 263 276 L 263 275 L 264 275 L 265 275 L 266 274 L 266 274 L 266 274 L 267 274 L 267 273 L 267 273 L 267 273 L 267 272 L 267 272 L 267 272 L 268 271 L 268 271 L 269 271 L 269 271 L 269 270 L 269 270 L 269 270 L 270 269 L 270 269 L 270 269 L 271 268 L 271 268 L 271 268 L 272 268 L 273 267 L 273 267 L 275 267 L 276 266 L 276 266 L 277 266 L 277 265 L 277 265 L 277 265 L 277 265 L 279 264 L 279 264 L 280 264 L 281 263 L 281 263 L 283 263 L 284 262 L 284 262 L 286 262 L 286 262 L 287 261 L 287 261 L 287 261 L 291 260 L 292 260 L 292 260 L 295 259 L 296 259 L 299 259 L 300 259 L 300 258 L 301 258 L 301 258 L 301 257 L 303 257 L 305 257 L 306 256 L 307 256 L 309 256 L 309 256 L 309 255 L 309 255 L 309 255 L 309 254 L 310 254 L 311 254 L 311 253 L 311 253 L 311 253 L 315 253 L 319 252 L 319 252 L 319 252 L 322 251 L 323 251 L 324 251 L 324 250 L 325 250 L 326 250 L 326 250 L 326 249 L 326 249 L 326 249 L 326 248 L 326 248 L 327 248 L 327 247 L 327 247 L 329 247 L 329 247 L 329 246 L 330 246 L 330 246 L 330 245 L 330 245 L 330 245 L 330 244 L 330 244 L 330 244 L 330 244 L 330 243 L 334 243 L 336 243 L 336 242 L 336 242 L 345 242 L 346 241 L 348 241 L 350 241 L 357 241 L 359 240 L 359 240 L 359 240 L 359 239 L 359 239 L 360 239 L 360 238 L 361 238 L 361 238 L 368 238 L 370 237 L 372 237 L 377 237 L 381 236 L 383 236 L 385 236 L 389 235 L 389 235 L 397 235 L 404 235 L 404 234 L 410 234 L 410 234 L 414 233 L 415 233 L 417 233 L 417 232 L 418 232 L 418 232 L 420 232 L 421 231 L 423 231 L 426 231 L 427 230 L 428 230 L 428 230 L 431 229 L 434 229 L 434 229 L 437 229 L 440 228 L 441 228 L 441 228 L 442 227 L 443 227 L 444 227 L 446 226 L 448 226 L 450 226 L 452 226 L 452 225 L 456 225 L 457 225 L 459 224 L 463 224 L 463 224 L 467 223 L 468 223 L 468 223 L 469 223 L 469 222 L 471 222 L 471 222 L 473 221 L 475 221 L 476 221 L 476 220 L 476 220 L 483 220 L 483 220 L 483 219 L 483 219 L 484 219 L 484 218 L 484 218 L 485 218 L 485 217 L 487 217 L 487 217 L 488 217 L 489 216 L 489 216 L 490 216 L 490 215 L 490 215 L 491 215 L 491 214 L 491 214 L 492 214 L 492 214 L 492 213 L 492 213 L 493 213 L 494 212 L 494 212 L 494 212 L 495 211 L 495 211 L 496 211 L 497 211 L 497 210 L 498 210 L 499 210 L 500 209 L 500 209 L 501 209 L 501 208 L 503 208 L 503 208 L 503 208 L 503 207 L 503 207 L 503 207 L 504 206 L 504 206 L 504 206 L 505 205 L 508 205 L 509 205 L 510 205 L 510 204 L 512 204 L 513 204 L 513 203 L 515 203 L 517 203 L 519 202 L 521 202 L 522 202 L 522 202 L 522 201 L 522 201 L 523 201 L 523 200 L 523 200 L 524 200 L 524 199 L 524 199 L 524 199 L 525 199 L 526 198 L 526 198 L 527 198 L 527 197 L 529 197 L 530 197 L 530 196 L 531 196 L 531 196 L 533 196 L 539 195 L 539 195 L 539 195 L 539 194 L 541 194 L 542 194 L 543 193 L 543 193 L 543 193 L 543 193 L 545 192 L 547 192 L 548 192 L 548 191 L 548 191 L 549 191 L 550 190 L 550 190 L 550 190 L 552 190 L 555 189 L 555 189 L 559 189 L 559 188 L 560 188 L 562 188 L 563 187 L 566 187 L 567 187 L 568 187 L 569 186 L 569 186 L 570 186 L 570 185 L 570 185 L 570 185 L 571 184 L 571 184 L 571 184 L 572 184 L 572 183 L 572 183 L 573 183 L 574 182 L 574 182 L 578 182 L 579 181 L 583 181 L 584 181 L 585 181 L 585 180 L 586 180 L 588 180 L 589 179 L 589 179 L 590 179 L 590 178 L 590 178 L 590 178 L 590 178 L 591 177 L 591 177 L 591 177 L 591 176 L 591 176 L 592 176 L 592 175 L 593 175 L 593 175 L 594 175 L 594 174 L 595 174 L 595 174 L 595 173 L 596 173 L 597 173 L 599 172 L 599 172 L 599 172 L 599 172 L 599 171 L 600 171 L 600 171 L 600 170 L 601 170 L 603 170 L 605 169 L 608 169 L 609 169 L 610 169 L 613 168 L 616 168 L 616 168 L 618 167 L 622 167 L 622 167 L 622 166 L 626 166 L 627 166 L 628 166 L 628 165 L 628 165 L 635 165 L 636 164 L 636 164 L 637 164 L 637 163 L 637 163 L 639 163 L 639 163 L 639 162 L 640 162 L 640 162 L 640 161 L 641 161 L 641 161 L 641 160 L 641 160 L 641 160 L 641 160 L 641 159 L 643 159 L 644 159 L 645 158 L 645 158 L 645 158 L 646 157 L 646 157 L 647 157 L 647 157 L 648 156 L 648 156 L 648 156 L 648 155 L 650 155 L 650 155 L 651 154 L 651 154 L 652 154 L 653 154 L 653 153 L 653 153 L 653 153 L 654 152 L 654 152 L 654 152 L 655 151 L 656 151 L 656 151 L 657 151 L 657 150 L 657 150 L 657 150 L 657 149 L 658 149 L 658 149 L 658 148 L 658 148 L 660 148 L 660 148 L 660 147 L 660 147 L 661 147 L 661 146 L 661 146 L 661 146 L 661 145 L 661 145 L 662 145 L 662 145 L 662 144 L 662 144 L 664 144 L 665 143 L 667 143 L 667 143 L 667 142 L 667 142 L 668 142 L 669 142 L 669 141 L 670 141 L 672 141 L 674 140 L 674 140 L 676 140 L 676 139 L 676 139 L 677 139 L 677 139 L 677 138 L 678 138 L 678 138 L 678 137 L 678 137 L 678 137 L 678 136 L 678 136 L 678 136 L 678 136 L 679 135 L 679 135 L 679 135 L 680 134 L 680 134 L 681 134 L 682 133 L 682 133 L 683 133 L 683 132 L 684 132 L 684 132 L 685 132 L 688 131 L 688 131 L 688 131 L 688 130 L 688 130 L 690 130 L 692 130 L 692 129 L 694 129 L 694 129 L 694 128 L 694 128 L 695 128 L 699 127 L 701 127 L 703 127 L 705 126 L 705 126 L 706 126 L 707 126 L 707 125 L 708 125 L 708 125 L 708 124 L 709 124 L 709 124 L 709 124 L 711 123 L 712 123 L 712 123 L 712 122 L 712 122 L 712 122 L 712 121 L 712 121 L 712 121 L 712 121 L 713 120 L 713 120 L 713 120 L 713 119 L 713 119 L 713 119 L 713 118 L 713 118 L 713 118 L 714 118 L 714 117 L 714 117 L 714 117 L 714 116 L 714 116 L 715 116 L 715 115 L 715 115 L 716 115 L 716 115 L 716 114 L 716 114 L 716 114 L 716 113 L 717 113 L 718 113 L 720 112 L 720 112 L 720 112 L 721 112 L 721 111 L 722 111 L 722 111 L 724 110 L 725 110 L 726 110 L 726 109 L 726 109 L 726 109 L 726 109 L 726 108 L 726 108 L 728 108 L 728 107 L 728 107 L 732 107 L 733 106 L 734 106 L 737 106 L 738 106 L 738 105 L 738 105 L 738 105 L 739 104 L 739 104 L 740 104 L 740 103 L 740 103 L 741 103 L 741 103 L 742 102 L 742 102 L 742 102 L 742 101 L 742 101 L 742 101 L 742 100 L 743 100 L 743 100 L 743 100 L 744 99 L 745 99 L 745 99 L 745 98 L 746 98 L 746 98 L 746 97 L 747 97 L 747 97 L 747 97 L 748 96 L 748 96 L 749 96 L 753 95 L 753 95 L 754 95 L 757 94 L 757 94 L 758 94 L 761 94 L 761 93 L 762 93 L 765 93 L 769 92 L 770 92 L 771 92 L 773 91 L 775 91 L 775 91 L 775 91 L 777 90 L 778 90 L 778 90 L 779 89 L 780 89 L 782 89 L 782 88 L 782 88 L 783 88 L 783 88 L 784 87 L 784 87 L 788 87 L 788 86 L 789 86 L 790 86 L 790 85 L 791 85 L 792 85 L 793 85 L 793 84 L 793 84 L 793 84 L 794 83 L 795 83 L 795 83 L 796 82 L 797 82 L 797 82 L 797 82 L 798 81 L 799 81 L 799 81 L 799 80 L 800 80 L 800 80 L 800 79 L 800 79 L 800 79 L 801 79 L 801 78 L 803 78 L 804 78 L 805 77 L 805 77 L 808 77 L 808 76 L 810 76 L 811 76 L 813 76 L 815 75 L 817 75 L 818 75 L 819 74 L 819 74 L 821 74 L 823 73 L 825 73 L 825 73 L 825 73 L 825 72 L 825 72 L 825 72 L 826 71 L 827 71 L 828 71 L 829 70 L 829 70 L 829 70 L 835 70 L 836 69 L 837 69 L 839 69 L 840 68 L 841 68 L 841 68 L 842 67 L 842 67 L 842 67 L 843 67 L 844 66 L 844 66 L 845 66 L 845 65 L 845 65 L 846 65 L 846 64 L 847 64 L 848 64 L 851 64 L 851 63 L 856 63 L 856 63 L 856 62 L 858 62 L 858 62 L 858 61 L 859 61 L 859 61 L 862 61 L 863 60 L 864 60 L 865 60 L 865 59 L 865 59 L 867 59 L 868 58 L 870 58 L 870 58 L 870 58 L 870 57 L 871 57 L 871 57 L 871 56 L 872 56 L 873 56 L 873 55 L 874 55 L 875 55 L 876 55 L 876 54 L 876 54 L 877 54 L 877 53 L 877 53 L 880 53 L 885 52 L 885 52 L 888 52 L 889 52 L 892 51 L 892 51 L 893 51 L 893 50 L 894 50 L 895 50 L 896 49 L 897 49 L 898 49 L 899 49 L 902 48 L 907 48 L 907 48 L 907 47 L 907 47 L 908 47 L 909 46 L 910 46 L 910 46 L 918 46 L 921 45 L 921 45 L 922 45 L 924 44 L 927 44 L 928 44 L 929 43 L 929 43 L 930 43 L 932 43 L 937 42 L 937 42" stroke-width="2" /><path d="M 58 345 L 60 345 L 73 345 L 73 344 L 73 344 L 73 344 L 73 343 L 73 343 L 73 343 L 73 343 L 74 342 L 74 342 L 74 342 L 74 341 L 74 341 L 74 341 L 74 340 L 74 340 L 74 340 L 75 340 L 75 339 L 75 339 L 76 339 L 77 338 L 77 338 L 77 338 L 77 337 L 78 337 L 79 337 L 80 337 L 81 336 L 81 336 L 85 336 L 85 335 L 85 335 L 86 335 L 86 334 L 88 334 L 89 334 L 90 334 L 91 333 L 95 333 L 96 333 L 101 332 L 103 332 L 106 332 L 109 331 L 111 331 L 123 331 L 123 331 L 123 330 L 125 330 L 125 330 L 125 329 L 125 329 L 125 329 L 125 328 L 125 328 L 125 328 L 125 328 L 125 327 L 125 327 L 125 327 L 126 326 L 126 326 L 126 326 L 126 325 L 126 325 L 126 325 L 126 325 L 126 324 L 126 324 L 126 324 L 126 323 L 126 323 L 126 323 L 126 322 L 126 322 L 126 322 L 126 322 L 126 321 L 126 321 L 126 321 L 126 320 L 126 320 L 126 320 L 126 319 L 126 319 L 126 319 L 126 319 L 126 318 L 126 318 L 126 318 L 126 317 L 126 317 L 126 317 L 126 316 L 126 316 L 126 316 L 127 316 L 127 315 L 127 315 L 127 315 L 127 314 L 127 314 L 128 314 L 128 313 L 128 313 L 128 313 L 128 313 L 128 312 L 128 312 L 128 312 L 128 311 L 128 311 L 128 311 L 128 310 L 128 310 L 128 310 L 128 310 L 128 309 L 128 309 L 128 309 L 129 308 L 129 308 L 129 308 L 129 307 L 132 307 L 132 307 L 132 307 L 133 306 L 133 306 L 135 306 L 137 305 L 138 305 L 139 305 L 140 304 L 141 304 L 142 304 L 142 304 L 144 303 L 144 303 L 145 303 L 146 302 L 146 302 L 147 302 L 147 301 L 147 301 L 147 301 L 148 301 L 149 300 L 149 300 L 150 300 L 150 299 L 150 299 L 151 299 L 152 298 L 153 298 L 155 298 L 156 298 L 156 297 L 157 297 L 157 297 L 157 296 L 159 296 L 164 296 L 164 295 L 165 295 L 169 295 L 170 295 L 170 294 L 170 294 L 170 294 L 171 293 L 172 293 L 173 293 L 173 292 L 179 292 L 180 292 L 182 292 L 183 291 L 185 291 L 185 291 L 185 290 L 190 290 L 194 290 L 199 289 L 200 289 L 200 289 L 200 289 L 200 288 L 201 288 L 208 288 L 212 287 L 212 287 L 214 287 L 215 286 L 215 286 L 223 286 L 223 286 L 224 285 L 224 285 L 225 285 L 227 284 L 228 284 L 230 284 L 231 283 L 232 283 L 237 283 L 237 283 L 238 282 L 238 282 L 238 282 L 238 281 L 241 281 L 245 281 L 255 280 L 258 280 L 260 280 L 260 280 L 263 279 L 263 279 L 263 279 L 263 278 L 263 278 L 263 278 L 263 277 L 263 277 L 263 277 L 263 277 L 263 276 L 263 276 L 263 276 L 263 275 L 264 275 L 265 275 L 266 274 L 266 274 L 266 274 L 267 274 L 267 273 L 267 273 L 267 273 L 267 272 L 267 272 L 267 272 L 268 271 L 268 271 L 269 271 L 269 271 L 269 270 L 269 270 L 269 270 L 270 269 L 270 269 L 270 269 L 271 268 L 271 268 L 271 268 L 272 268 L 273 267 L 273 267 L 275 267 L 276 266 L 276 266 L 277 266 L 277 265 L 277 265 L 277 265 L 277 265 L 279 264 L 279 264 L 280 264 L 281 263 L 281 263 L 283 263 L 284 262 L 284 262 L 286 262 L 286 262 L 287 261 L 287 261 L 287 261 L 291 260 L 292 260 L 292 260 L 295 259 L 296 259 L 299 259 L 300 259 L 300 258 L 301 258 L 301 258 L 301 257 L 303 257 L 305 257 L 306 256 L 307 256 L 309 256 L 309 256 L 309 255 L 309 255 L 309 255 L 309 254 L 310 254 L 311 254 L 311 253 L 311 253 L 311 253 L 315 253 L 319 252 L 319 252 L 319 252 L 322 251 L 323 251 L 324 251 L 324 250 L 325 250 L 326 250 L 326 250 L 326 249 L 326 249 L 326 249 L 326 248 L 326 248 L 327 248 L 327 247 L 327 247 L 329 247 L 329 247 L 329 246 L 330 246 L 330 246 L 330 245 L 330 245 L 330 245 L 330 244 L 330 244 L 330 244 L 330 244 L 330 243 L 334 243 L 336 243 L 336 242 L 336 242 L 345 242 L 346 241 L 348 241 L 350 241 L 357 241 L 359 240 L 359 240 L 359 240 L 359 239 L 359 239 L 360 239 L 360 238 L 361 238 L 361 238 L 368 238 L 370 237 L 372 237 L 377 237 L 381 236 L 383 236 L 385 236 L 389 235 L 389 235 L 397 235 L 404 235 L 404 234 L 410 234 L 410 234 L 414 233 L 415 233 L 417 233 L 417 232 L 418 232 L 418 232 L 420 232 L 421 231 L 423 231 L 426 231 L 427 230 L 428 230 L 428 230 L 431 229 L 434 229 L 434 229 L 437 229 L 440 228 L 441 228 L 441 228 L 442 227 L 443 227 L 444 227 L 446 226 L 448 226 L 450 226 L 452 226 L 452 225 L 456 225 L 457 225 L 459 224 L 463 224 L 463 224 L 467 223 L 468 223 L 468 223 L 469 223 L 469 222 L 471 222 L 471 222 L 473 221 L 475 221 L 476 221 L 476 220 L 476 220 L 483 220 L 483 220 L 483 219 L 483 219 L 484 219 L 484 218 L 484 218 L 485 218 L 485 217 L 487 217 L 487 217 L 488 217 L 489 216 L 489 216 L 490 216 L 490 215 L 490 215 L 491 215 L 491 214 L 491 214 L 492 214 L 492 214 L 492 213 L 492 213 L 493 213 L 494 212 L 494 212 L 494 212 L 495 211 L 495 211 L 496 211 L 497 211 L 497 210 L 498 210 L 499 210 L 500 209 L 500 209 L 501 209 L 501 208 L 503 208 L 503 208 L 503 208 L 503 207 L 503 207 L 503 207 L 504 206 L 504 206 L 504 206 L 505 205 L 508 205 L 509 205 L 510 205 L 510 204 L 512 204 L 513 204 L 513 203 L 515 203 L 517 203 L 519 202 L 521 202 L 522 202 L 522 202 L 522 201 L 522 201 L 523 201 L 523 200 L 523 200 L 524 200 L 524 199 L 524 199 L 524 199 L 525 199 L 526 198 L 526 198 L 527 198 L 527 197 L 529 197 L 530 197 L 530 196 L 531 196 L 531 196 L 533 196 L 539 195 L 539 195 L 539 195 L 539 194 L 541 194 L 542 194 L 543 193 L 543 193 L 543 193 L 543 193 L 545 192 L 547 192 L 548 192 L 548 191 L 548 191 L 549 191 L 550 190 L 550 190 L 550 190 L 552 190 L 555 189 L 555 189 L 559 189 L 559 188 L 560 188 L 562 188 L 563 187 L 566 187 L 567 187 L 568 187 L 569 186 L 569 186 L 570 186 L 570 185 L 570 185 L 570 185 L 571 184 L 571 184 L 571 184 L 572 184 L 572 183 L 572 183 L 573 183 L 574 182 L 574 182 L 578 182 L 579 181 L 583 181 L 584 181 L 585 181 L 585 180 L 586 180 L 588 180 L 589 179 L 589 179 L 590 179 L 590 178 L 590 178 L 590 178 L 590 178 L 591 177 L 591 177 L 591 177 L 591 176 L 591 176 L 592 176 L 592 175 L 593 175 L 593 175 L 594 175 L 594 174 L 595 174 L 595 174 L 595 173 L 596 173 L 597 173 L 599 172 L 599 172 L 599 172 L 599 172 L 599 171 L 600 171 L 600 171 L 600 170 L 601 170 L 603 170 L 605 169 L 608 169 L 609 169 L 610 169 L 613 168 L 616 168 L 616 168 L 618 167 L 622 167 L 622 167 L 622 166 L 626 166 L 627 166 L 628 166 L 628 165 L 628 165 L 635 165 L 636 164 L 636 164 L 637 164 L 637 163 L 637 163 L 639 163 L 639 163 L 639 162 L 640 162 L 640 162 L 640 161 L 641 161 L 641 161 L 641 160 L 641 160 L 641 160 L 641 160 L 641 159 L 643 159 L 644 159 L 645 158 L 645 158 L 645 158 L 646 157 L 646 157 L 647 157 L 647 157 L 648 156 L 648 156 L 648 156 L 648 155 L 650 155 L 650 155 L 651 154 L 651 154 L 652 154 L 653 154 L 653 153 L 653 153 L 653 153 L 654 152 L 654 152 L 654 152 L 655 151 L 656 151 L 656 151 L 657 151 L 657 150 L 657 150 L 657 150 L 657 149 L 658 149 L 658 149 L 658 148 L 658 148 L 660 148 L 660 148 L 660 147 L 660 147 L 661 147 L 661 146 L 661 146 L 661 146 L 661 145 L 661 145 L 662 145 L 662 145 L 662 144 L 662 144 L 664 144 L 665 143 L 667 143 L 667 143 L 667 142 L 667 142 L 668 142 L 669 142 L 669 141 L 670 141 L 672 141 L 674 140 L 674 140 L 676 140 L 676 139 L 676 139 L 677 139 L 677 139 L 677 138 L 678 138 L 678 138 L 678 137 L 678 137 L 678 137 L 678 136 L 678 136 L 678 136 L 678 136 L 679 135 L 679 135 L 679 135 L 680 134 L 680 134 L 681 134 L 682 133 L 682 133 L 683 133 L 683 132 L 684 132 L 684 132 L 685 132 L 688 131 L 688 131 L 688 131 L 688 130 L 688 130 L 690 130 L 692 130 L 692 129 L 694 129 L 694 129 L 694 128 L 694 128 L 695 128 L 699 127 L 701 127 L 703 127 L 705 126 L 705 126 L 706 126 L 707 126 L 707 125 L 708 125 L 708 125 L 708 124 L 709 124 L 709 124 L 709 124 L 711 123 L 712 123 L 712 123 L 712 122 L 712 122 L 712 122 L 712 121 L 712 121 L 712 121 L 712 121 L 713 120 L 713 120 L 713 120 L 713 119 L 713 119 L 713 119 L 713 118 L 713 118 L 713 118 L 714 118 L 714 117 L 714 117 L 714 117 L 714 116 L 714 116 L 715 116 L 715 115 L 715 115 L 716 115 L 716 115 L 716 114 L 716 114 L 716 114 L 716 113 L 717 113 L 718 113 L 720 112 L 720 112 L 720 112 L 721 112 L 721 111 L 722 111 L 722 111 L 724 110 L 725 110 L 726 110 L 726 109 L 726 109 L 726 109 L 726 109 L 726 108 L 726 108 L 728 108 L 728 107 L 728 107 L 732 107 L 733 106 L 734 106 L 737 106 L 738 106 L 738 105 L 738 105 L 738 105 L 739 104 L 739 104 L 740 104 L 740 103 L 740 103 L 741 103 L 741 103 L 742 102 L 742 102 L 742 102 L 742 101 L 742 101 L 742 101 L 742 100 L 743 100 L 743 100 L 743 100 L 744 99 L 745 99 L 745 99 L 745 98 L 746 98 L 746 98 L 746 97 L 747 97 L 747 97 L 747 97 L 748 96 L 748 96 L 749 96 L 753 95 L 753 95 L 754 95 L 757 94 L 757 94 L 758 94 L 761 94 L 761 93 L 762 93 L 765 93 L 769 92 L 770 92 L 771 92 L 773 91 L 775 91 L 775 91 L 775 91 L 777 90 L 778 90 L 778 90 L 779 89 L 780 89 L 782 89 L 782 88 L 782 88 L 783 88 L 783 88 L 784 87 L 784 87 L 788 87 L 788 86 L 789 86 L 790 86 L 790 85 L 791 85 L 792 85 L 793 85 L 793 84 L 793 84 L 793 84 L 794 83 L 795 83 L 795 83 L 796 82 L 797 82 L 797 82 L 797 82 L 798 81 L 799 81 L 799 81 L 799 80 L 800 80 L 800 80 L 800 79 L 800 79 L 800 79 L 801 79 L 801 78 L 803 78 L 804 78 L 805 77 L 805 77 L 808 77 L 808 76 L 810 76 L 811 76 L 813 76 L 815 75 L 817 75 L 818 75 L 819 74 L 819 74 L 821 74 L 823 73 L 825 73 L 825 73 L 825 73 L 825 72 L 825 72 L 825 72 L 826 71 L 827 71 L 828 71 L 829 70 L 829 70 L 829 70 L 835 70 L 836 69 L 837 69 L 839 69 L 840 68 L 841 68 L 841 68 L 842 67 L 842 67 L 842 67 L 843 67 L 844 66 L 844 66 L 845 66 L 845 65 L 845 65 L 846 65 L 846 64 L 847 64 L 848 64 L 851 64 L 851 63 L 856 63 L 856 63 L 856 62 L 858 62 L 858 62 L 858 61 L 859 61 L 859 61 L 862 61 L 863 60 L 864 60 L 865 60 L 865 59 L 865 59 L 867 59 L 868 58 L 870 58 L 870 58 L 870 58 L 870 57 L 871 57 L 871 57 L 871 56 L 872 56 L 873 56 L 873 55 L 874 55 L 875 55 L 876 55 L 876 54 L 876 54 L 877 54 L 877 53 L 877 53 L 880 53 L 885 52 L 885 52 L 888 52 L 889 52 L 892 51 L 892 51 L 893 51 L 893 50 L 894 50 L 895 50 L 896 49 L 897 49 L 898 49 L 899 49 L 902 48 L 907 48 L 907 48 L 907 47 L 907 47 L 908 47 L 909 46 L 910 46 L 910 46 L 918 46 L 921 45 L 921 45 L 922 45 L 924 44 L 927 44 L 928 44 L 929 43 L 929 43 L 930 43 L 932 43 L 937 42 L 937 42" stroke-width="2" class="series"></path><path stroke-width="2" d="M 937 346 L 937.000000 15.000000" /><path stroke-width="2" d="M 937 346 L 937.000000 15.000000"></path><path stroke-width="2" d="M 937 346 L 942 346" /><path stroke-width="2" d="M 937 346 L 942 346"></path><text xmlns="http://www.w3.org/2000/svg" x="947" y="352">0</text><path stroke-width="2" d="M 937 307 L 942 307" /><path stroke-width="2" d="M 937 307 L 942 307"></path><text xmlns="http://www.w3.org/2000/svg" x="947" y="313">130</text><path stroke-width="2" d="M 937 271 L 942 271" /><path stroke-width="2" d="M 937 271 L 942 271"></path><text y="277" xmlns="http://www.w3.org/2000/svg" x="947">250</text><path stroke-width="2" d="M 937 235 L 942 235" /><path stroke-width="2" d="M 937 235 L 942 235"></path><text xmlns="http://www.w3.org/2000/svg" x="947" y="241">370</text><path stroke-width="2" d="M 937 199 L 942 199" /><path stroke-width="2" d="M 937 199 L 942 199"></path><text x="947" y="205" xmlns="http://www.w3.org/2000/svg">490</text><path stroke-width="2" d="M 937 160 L 942 160" /><path stroke-width="2" d="M 937 160 L 942 160"></path><text xmlns="http://www.w3.org/2000/svg" x="947" y="166">620</text><path stroke-width="2" d="M 937 124 L 942 124" /><path d="M 937 124 L 942 124" stroke-width="2"></path><text xmlns="http://www.w3.org/2000/svg" x="947" y="130">740</text><path stroke-width="2" d="M 937 88 L 942 88" /><path stroke-width="2" d="M 937 88 L 942 88"></path><text xmlns="http://www.w3.org/2000/svg" x="947" y="94">860</text><path d="M 937 52 L 942 52" stroke-width="2" /><path stroke-width="2" d="M 937 52 L 942 52"></path><text xmlns="http://www.w3.org/2000/svg" x="947" y="58">980</text><path stroke-width="2" d="M 937 16 L 942 16" /><path stroke-width="2" d="M 937 16 L 942 16"></path><text xmlns="http://www.w3.org/2000/svg" x="947" y="22">1100</text><text y="175" transform="rotate(90.00,987,175)" xmlns="http://www.w3.org/2000/svg" x="987">Stargazers</text><path stroke-width="2" d="M 57.000000 346.000000 L 937 346" /><path stroke-width="2" d="M 57.000000 346.000000 L 937 346"></path><path stroke-width="2" d="M 58 346 L 58 351" /><path stroke-width="2" d="M 58 346 L 58 351"></path><text xmlns="http://www.w3.org/2000/svg" x="25" y="368">2023-04-02</text><path stroke-width="2" d="M 156 346 L 156 351" /><path stroke-width="2" d="M 156 346 L 156 351"></path><text xmlns="http://www.w3.org/2000/svg" x="123" y="368">2023-07-05</text><path stroke-width="2" d="M 254 346 L 254 351" /><path d="M 254 346 L 254 351" stroke-width="2"></path><text xmlns="http://www.w3.org/2000/svg" x="221" y="368">2023-10-06</text><path d="M 351 346 L 351 351" stroke-width="2" /><path stroke-width="2" d="M 351 346 L 351 351"></path><text xmlns="http://www.w3.org/2000/svg" x="318" y="368">2024-01-08</text><path stroke-width="2" d="M 449 346 L 449 351" /><path stroke-width="2" d="M 449 346 L 449 351"></path><text xmlns="http://www.w3.org/2000/svg" x="416" y="368">2024-04-11</text><path stroke-width="2" d="M 547 346 L 547 351" /><path stroke-width="2" d="M 547 346 L 547 351"></path><text xmlns="http://www.w3.org/2000/svg" x="514" y="368">2024-07-14</text><path stroke-width="2" d="M 644 346 L 644 351" /><path stroke-width="2" d="M 644 346 L 644 351"></path><text xmlns="http://www.w3.org/2000/svg" x="611" y="368">2024-10-15</text><path stroke-width="2" d="M 742 346 L 742 351" /><path stroke-width="2" d="M 742 346 L 742 351"></path><text xmlns="http://www.w3.org/2000/svg" x="709" y="368">2025-01-17</text><path stroke-width="2" d="M 840 346 L 840 351" /><path stroke-width="2" d="M 840 346 L 840 351"></path><text xmlns="http://www.w3.org/2000/svg" x="807" y="368">2025-04-21</text><path stroke-width="2" d="M 937 346 L 937 351" /><path stroke-width="2" d="M 937 346 L 937 351"></path><text y="368" xmlns="http://www.w3.org/2000/svg" x="904">2025-07-24</text><text x="483" y="390" xmlns="http://www.w3.org/2000/svg">Time</text></svg>