<svg xmlns="http://www.w3.org/2000/svg" xmlns:xlink="http://www.w3.org/1999/xlink" width="1024px" height="400px"><style type="text/css">
path { fill: none; stroke: rgb(51,51,51); }
path.series { stroke: #6b63ff; }
rect.background { fill: rgb(255,255,255); stroke: none; }

text {
	stroke-width: 0;
	stroke: none;
	fill: rgba(51,51,51,1.0);
	font-size: 12.8px;
	font-family: 'Roboto Medium', sans-serif;
}
</style><rect height="400px" class="background" rx="8" x="0" y="0" width="1024px" /><rect height="400px" class="background" rx="8" x="0" y="0" width="1024px"></rect><path class="series" d="M 58 345 L 62 344 L 83 344 L 83 343 L 84 343 L 84 342 L 84 341 L 84 341 L 84 340 L 84 340 L 84 339 L 84 339 L 84 338 L 84 337 L 84 337 L 84 336 L 84 336 L 85 335 L 85 335 L 86 334 L 87 333 L 87 333 L 88 332 L 89 332 L 89 331 L 89 330 L 90 330 L 92 329 L 94 329 L 94 328 L 96 328 L 97 327 L 104 326 L 104 326 L 104 325 L 104 325 L 104 324 L 104 324 L 108 323 L 110 322 L 111 322 L 114 321 L 119 321 L 121 320 L 131 319 L 134 319 L 139 318 L 144 318 L 147 317 L 166 317 L 167 316 L 168 315 L 170 315 L 171 314 L 171 314 L 171 313 L 171 313 L 171 312 L 171 311 L 171 311 L 171 310 L 171 310 L 171 309 L 171 308 L 171 308 L 172 307 L 172 307 L 172 306 L 172 306 L 172 305 L 172 304 L 172 304 L 172 303 L 172 303 L 172 302 L 172 302 L 172 301 L 172 300 L 172 300 L 172 299 L 172 299 L 172 298 L 172 297 L 172 297 L 172 296 L 172 296 L 172 295 L 172 295 L 172 294 L 172 293 L 172 293 L 172 292 L 172 292 L 172 291 L 172 291 L 172 290 L 172 289 L 172 289 L 173 288 L 173 288 L 173 287 L 174 286 L 174 286 L 174 285 L 174 285 L 174 284 L 175 284 L 175 283 L 175 282 L 175 282 L 175 281 L 175 281 L 175 280 L 175 280 L 175 279 L 175 278 L 175 278 L 175 277 L 175 277 L 176 276 L 176 275 L 176 275 L 176 274 L 176 274 L 178 273 L 178 273 L 178 272 L 178 271 L 182 271 L 183 270 L 183 270 L 185 269 L 185 269 L 188 268 L 191 267 L 192 267 L 195 266 L 196 266 L 198 265 L 199 264 L 199 264 L 202 263 L 203 263 L 204 262 L 205 262 L 206 261 L 207 260 L 207 260 L 208 259 L 208 259 L 210 258 L 211 258 L 211 257 L 212 256 L 213 256 L 213 255 L 214 255 L 216 254 L 218 253 L 221 253 L 222 252 L 223 252 L 224 251 L 225 251 L 225 250 L 227 249 L 235 249 L 236 248 L 237 248 L 245 247 L 246 247 L 246 246 L 246 245 L 246 245 L 247 244 L 250 244 L 251 243 L 252 242 L 261 242 L 263 241 L 266 241 L 269 240 L 271 240 L 271 239 L 272 238 L 279 238 L 287 237 L 296 237 L 296 236 L 296 236 L 297 235 L 297 234 L 299 234 L 311 233 L 316 233 L 317 232 L 321 231 L 322 231 L 323 230 L 336 230 L 336 229 L 337 229 L 337 228 L 339 227 L 342 227 L 344 226 L 347 226 L 348 225 L 351 225 L 359 224 L 359 223 L 360 223 L 360 222 L 361 222 L 361 221 L 365 220 L 373 220 L 389 219 L 395 219 L 398 218 L 399 218 L 400 217 L 402 216 L 402 216 L 402 215 L 402 215 L 402 214 L 402 214 L 402 213 L 402 212 L 403 212 L 403 211 L 403 211 L 403 210 L 403 209 L 403 209 L 404 208 L 406 208 L 407 207 L 407 207 L 407 206 L 407 205 L 409 205 L 409 204 L 409 204 L 409 203 L 409 203 L 410 202 L 410 201 L 411 201 L 412 200 L 412 200 L 413 199 L 413 198 L 413 198 L 413 197 L 414 197 L 414 196 L 414 196 L 415 195 L 416 194 L 416 194 L 416 193 L 418 193 L 419 192 L 420 192 L 422 191 L 425 190 L 425 190 L 426 189 L 427 189 L 427 188 L 427 187 L 427 187 L 429 186 L 430 186 L 432 185 L 432 185 L 433 184 L 436 183 L 438 183 L 438 182 L 441 182 L 442 181 L 443 181 L 444 180 L 444 179 L 450 179 L 451 178 L 452 178 L 456 177 L 459 176 L 464 176 L 465 175 L 465 175 L 467 174 L 467 174 L 467 173 L 471 172 L 474 172 L 476 171 L 476 171 L 478 170 L 480 170 L 480 169 L 480 168 L 480 168 L 481 167 L 481 167 L 481 166 L 483 165 L 483 165 L 483 164 L 484 164 L 490 163 L 497 163 L 497 162 L 497 161 L 502 161 L 504 160 L 505 160 L 506 159 L 507 159 L 509 158 L 509 157 L 509 157 L 509 156 L 509 156 L 510 155 L 510 154 L 510 154 L 510 153 L 511 153 L 515 152 L 515 152 L 515 151 L 515 150 L 515 150 L 516 149 L 516 149 L 516 148 L 516 148 L 516 147 L 516 146 L 516 146 L 516 145 L 522 145 L 525 144 L 525 143 L 526 143 L 533 142 L 541 142 L 542 141 L 546 141 L 550 140 L 558 139 L 561 139 L 564 138 L 565 138 L 565 137 L 565 137 L 565 136 L 565 135 L 565 135 L 565 134 L 567 134 L 569 133 L 579 132 L 582 132 L 586 131 L 595 131 L 601 130 L 606 130 L 609 129 L 615 128 L 615 128 L 628 127 L 640 127 L 641 126 L 649 126 L 650 125 L 657 124 L 658 124 L 662 123 L 662 123 L 663 122 L 663 121 L 667 121 L 669 120 L 672 120 L 677 119 L 678 119 L 680 118 L 681 117 L 685 117 L 690 116 L 690 116 L 695 115 L 701 115 L 702 114 L 702 113 L 704 113 L 706 112 L 707 112 L 711 111 L 715 110 L 718 110 L 721 109 L 721 109 L 728 108 L 730 108 L 733 107 L 739 106 L 740 106 L 746 105 L 747 105 L 747 104 L 749 104 L 750 103 L 753 102 L 753 102 L 756 101 L 760 101 L 761 100 L 762 99 L 762 99 L 772 98 L 773 98 L 773 97 L 774 97 L 774 96 L 775 95 L 776 95 L 776 94 L 777 94 L 779 93 L 780 92 L 782 92 L 782 91 L 783 91 L 784 90 L 785 90 L 785 89 L 786 88 L 787 88 L 787 87 L 788 87 L 788 86 L 788 86 L 789 85 L 790 84 L 792 84 L 792 83 L 792 83 L 793 82 L 794 82 L 796 81 L 797 80 L 797 80 L 798 79 L 800 79 L 802 78 L 802 77 L 803 77 L 803 76 L 806 76 L 806 75 L 806 75 L 807 74 L 807 73 L 808 73 L 808 72 L 809 72 L 809 71 L 810 71 L 815 70 L 816 69 L 818 69 L 818 68 L 822 68 L 824 67 L 824 66 L 827 66 L 831 65 L 834 65 L 837 64 L 838 64 L 839 63 L 839 62 L 839 62 L 840 61 L 840 61 L 841 60 L 842 60 L 842 59 L 842 58 L 843 58 L 845 57 L 846 57 L 846 56 L 847 55 L 848 55 L 851 54 L 852 54 L 852 53 L 853 53 L 855 52 L 858 51 L 861 51 L 867 50 L 867 50 L 867 49 L 867 49 L 870 48 L 873 47 L 874 47 L 874 46 L 874 46 L 875 45 L 877 44 L 881 44 L 882 43 L 882 43 L 882 42 L 885 42 L 886 41 L 886 40 L 886 40 L 886 39 L 890 39 L 895 38 L 895 38 L 901 37 L 901 36 L 902 36 L 907 35 L 908 35 L 912 34 L 915 33 L 917 33 L 918 32 L 918 32 L 919 31 L 920 31 L 920 30 L 920 29 L 921 29 L 921 28 L 922 28 L 923 27 L 923 27 L 923 26 L 925 25 L 926 25 L 927 24 L 933 24 L 934 23 L 941 22 L 944 22 L 944 21 L 945 21" stroke-width="2" /><path stroke-width="2" class="series" d="M 58 345 L 62 344 L 83 344 L 83 343 L 84 343 L 84 342 L 84 341 L 84 341 L 84 340 L 84 340 L 84 339 L 84 339 L 84 338 L 84 337 L 84 337 L 84 336 L 84 336 L 85 335 L 85 335 L 86 334 L 87 333 L 87 333 L 88 332 L 89 332 L 89 331 L 89 330 L 90 330 L 92 329 L 94 329 L 94 328 L 96 328 L 97 327 L 104 326 L 104 326 L 104 325 L 104 325 L 104 324 L 104 324 L 108 323 L 110 322 L 111 322 L 114 321 L 119 321 L 121 320 L 131 319 L 134 319 L 139 318 L 144 318 L 147 317 L 166 317 L 167 316 L 168 315 L 170 315 L 171 314 L 171 314 L 171 313 L 171 313 L 171 312 L 171 311 L 171 311 L 171 310 L 171 310 L 171 309 L 171 308 L 171 308 L 172 307 L 172 307 L 172 306 L 172 306 L 172 305 L 172 304 L 172 304 L 172 303 L 172 303 L 172 302 L 172 302 L 172 301 L 172 300 L 172 300 L 172 299 L 172 299 L 172 298 L 172 297 L 172 297 L 172 296 L 172 296 L 172 295 L 172 295 L 172 294 L 172 293 L 172 293 L 172 292 L 172 292 L 172 291 L 172 291 L 172 290 L 172 289 L 172 289 L 173 288 L 173 288 L 173 287 L 174 286 L 174 286 L 174 285 L 174 285 L 174 284 L 175 284 L 175 283 L 175 282 L 175 282 L 175 281 L 175 281 L 175 280 L 175 280 L 175 279 L 175 278 L 175 278 L 175 277 L 175 277 L 176 276 L 176 275 L 176 275 L 176 274 L 176 274 L 178 273 L 178 273 L 178 272 L 178 271 L 182 271 L 183 270 L 183 270 L 185 269 L 185 269 L 188 268 L 191 267 L 192 267 L 195 266 L 196 266 L 198 265 L 199 264 L 199 264 L 202 263 L 203 263 L 204 262 L 205 262 L 206 261 L 207 260 L 207 260 L 208 259 L 208 259 L 210 258 L 211 258 L 211 257 L 212 256 L 213 256 L 213 255 L 214 255 L 216 254 L 218 253 L 221 253 L 222 252 L 223 252 L 224 251 L 225 251 L 225 250 L 227 249 L 235 249 L 236 248 L 237 248 L 245 247 L 246 247 L 246 246 L 246 245 L 246 245 L 247 244 L 250 244 L 251 243 L 252 242 L 261 242 L 263 241 L 266 241 L 269 240 L 271 240 L 271 239 L 272 238 L 279 238 L 287 237 L 296 237 L 296 236 L 296 236 L 297 235 L 297 234 L 299 234 L 311 233 L 316 233 L 317 232 L 321 231 L 322 231 L 323 230 L 336 230 L 336 229 L 337 229 L 337 228 L 339 227 L 342 227 L 344 226 L 347 226 L 348 225 L 351 225 L 359 224 L 359 223 L 360 223 L 360 222 L 361 222 L 361 221 L 365 220 L 373 220 L 389 219 L 395 219 L 398 218 L 399 218 L 400 217 L 402 216 L 402 216 L 402 215 L 402 215 L 402 214 L 402 214 L 402 213 L 402 212 L 403 212 L 403 211 L 403 211 L 403 210 L 403 209 L 403 209 L 404 208 L 406 208 L 407 207 L 407 207 L 407 206 L 407 205 L 409 205 L 409 204 L 409 204 L 409 203 L 409 203 L 410 202 L 410 201 L 411 201 L 412 200 L 412 200 L 413 199 L 413 198 L 413 198 L 413 197 L 414 197 L 414 196 L 414 196 L 415 195 L 416 194 L 416 194 L 416 193 L 418 193 L 419 192 L 420 192 L 422 191 L 425 190 L 425 190 L 426 189 L 427 189 L 427 188 L 427 187 L 427 187 L 429 186 L 430 186 L 432 185 L 432 185 L 433 184 L 436 183 L 438 183 L 438 182 L 441 182 L 442 181 L 443 181 L 444 180 L 444 179 L 450 179 L 451 178 L 452 178 L 456 177 L 459 176 L 464 176 L 465 175 L 465 175 L 467 174 L 467 174 L 467 173 L 471 172 L 474 172 L 476 171 L 476 171 L 478 170 L 480 170 L 480 169 L 480 168 L 480 168 L 481 167 L 481 167 L 481 166 L 483 165 L 483 165 L 483 164 L 484 164 L 490 163 L 497 163 L 497 162 L 497 161 L 502 161 L 504 160 L 505 160 L 506 159 L 507 159 L 509 158 L 509 157 L 509 157 L 509 156 L 509 156 L 510 155 L 510 154 L 510 154 L 510 153 L 511 153 L 515 152 L 515 152 L 515 151 L 515 150 L 515 150 L 516 149 L 516 149 L 516 148 L 516 148 L 516 147 L 516 146 L 516 146 L 516 145 L 522 145 L 525 144 L 525 143 L 526 143 L 533 142 L 541 142 L 542 141 L 546 141 L 550 140 L 558 139 L 561 139 L 564 138 L 565 138 L 565 137 L 565 137 L 565 136 L 565 135 L 565 135 L 565 134 L 567 134 L 569 133 L 579 132 L 582 132 L 586 131 L 595 131 L 601 130 L 606 130 L 609 129 L 615 128 L 615 128 L 628 127 L 640 127 L 641 126 L 649 126 L 650 125 L 657 124 L 658 124 L 662 123 L 662 123 L 663 122 L 663 121 L 667 121 L 669 120 L 672 120 L 677 119 L 678 119 L 680 118 L 681 117 L 685 117 L 690 116 L 690 116 L 695 115 L 701 115 L 702 114 L 702 113 L 704 113 L 706 112 L 707 112 L 711 111 L 715 110 L 718 110 L 721 109 L 721 109 L 728 108 L 730 108 L 733 107 L 739 106 L 740 106 L 746 105 L 747 105 L 747 104 L 749 104 L 750 103 L 753 102 L 753 102 L 756 101 L 760 101 L 761 100 L 762 99 L 762 99 L 772 98 L 773 98 L 773 97 L 774 97 L 774 96 L 775 95 L 776 95 L 776 94 L 777 94 L 779 93 L 780 92 L 782 92 L 782 91 L 783 91 L 784 90 L 785 90 L 785 89 L 786 88 L 787 88 L 787 87 L 788 87 L 788 86 L 788 86 L 789 85 L 790 84 L 792 84 L 792 83 L 792 83 L 793 82 L 794 82 L 796 81 L 797 80 L 797 80 L 798 79 L 800 79 L 802 78 L 802 77 L 803 77 L 803 76 L 806 76 L 806 75 L 806 75 L 807 74 L 807 73 L 808 73 L 808 72 L 809 72 L 809 71 L 810 71 L 815 70 L 816 69 L 818 69 L 818 68 L 822 68 L 824 67 L 824 66 L 827 66 L 831 65 L 834 65 L 837 64 L 838 64 L 839 63 L 839 62 L 839 62 L 840 61 L 840 61 L 841 60 L 842 60 L 842 59 L 842 58 L 843 58 L 845 57 L 846 57 L 846 56 L 847 55 L 848 55 L 851 54 L 852 54 L 852 53 L 853 53 L 855 52 L 858 51 L 861 51 L 867 50 L 867 50 L 867 49 L 867 49 L 870 48 L 873 47 L 874 47 L 874 46 L 874 46 L 875 45 L 877 44 L 881 44 L 882 43 L 882 43 L 882 42 L 885 42 L 886 41 L 886 40 L 886 40 L 886 39 L 890 39 L 895 38 L 895 38 L 901 37 L 901 36 L 902 36 L 907 35 L 908 35 L 912 34 L 915 33 L 917 33 L 918 32 L 918 32 L 919 31 L 920 31 L 920 30 L 920 29 L 921 29 L 921 28 L 922 28 L 923 27 L 923 27 L 923 26 L 925 25 L 926 25 L 927 24 L 933 24 L 934 23 L 941 22 L 944 22 L 944 21 L 945 21"></path><path stroke-width="2" d="M 945 346 L 945.000000 15.000000" /><path stroke-width="2" d="M 945 346 L 945.000000 15.000000"></path><path stroke-width="2" d="M 945 346 L 950 346" /><path stroke-width="2" d="M 945 346 L 950 346"></path><text xmlns="http://www.w3.org/2000/svg" x="955" y="352">0</text><path stroke-width="2" d="M 945 308 L 950 308" /><path stroke-width="2" d="M 945 308 L 950 308"></path><text x="955" y="314" xmlns="http://www.w3.org/2000/svg">64</text><path stroke-width="2" d="M 945 272 L 950 272" /><path d="M 945 272 L 950 272" stroke-width="2"></path><text xmlns="http://www.w3.org/2000/svg" x="955" y="278">127</text><path stroke-width="2" d="M 945 236 L 950 236" /><path stroke-width="2" d="M 945 236 L 950 236"></path><text xmlns="http://www.w3.org/2000/svg" x="955" y="242">190</text><path stroke-width="2" d="M 945 198 L 950 198" /><path stroke-width="2" d="M 945 198 L 950 198"></path><text xmlns="http://www.w3.org/2000/svg" x="955" y="204">254</text><path stroke-width="2" d="M 945 162 L 950 162" /><path stroke-width="2" d="M 945 162 L 950 162"></path><text xmlns="http://www.w3.org/2000/svg" x="955" y="168">317</text><path stroke-width="2" d="M 945 126 L 950 126" /><path stroke-width="2" d="M 945 126 L 950 126"></path><text xmlns="http://www.w3.org/2000/svg" x="955" y="132">380</text><path d="M 945 88 L 950 88" stroke-width="2" /><path d="M 945 88 L 950 88" stroke-width="2"></path><text xmlns="http://www.w3.org/2000/svg" x="955" y="94">444</text><path d="M 945 52 L 950 52" stroke-width="2" /><path stroke-width="2" d="M 945 52 L 950 52"></path><text xmlns="http://www.w3.org/2000/svg" x="955" y="58">507</text><path d="M 945 16 L 950 16" stroke-width="2" /><path stroke-width="2" d="M 945 16 L 950 16"></path><text xmlns="http://www.w3.org/2000/svg" x="955" y="22">570</text><text xmlns="http://www.w3.org/2000/svg" x="987" y="175" transform="rotate(90.00,987,175)">Stargazers</text><path stroke-width="2" d="M 57.000000 346.000000 L 945 346" /><path stroke-width="2" d="M 57.000000 346.000000 L 945 346"></path><path stroke-width="2" d="M 58 346 L 58 351" /><path stroke-width="2" d="M 58 346 L 58 351"></path><text xmlns="http://www.w3.org/2000/svg" x="25" y="368">2023-04-02</text><path stroke-width="2" d="M 157 346 L 157 351" /><path stroke-width="2" d="M 157 346 L 157 351"></path><text xmlns="http://www.w3.org/2000/svg" x="124" y="368">2023-05-28</text><path stroke-width="2" d="M 256 346 L 256 351" /><path d="M 256 346 L 256 351" stroke-width="2"></path><text xmlns="http://www.w3.org/2000/svg" x="223" y="368">2023-07-23</text><path stroke-width="2" d="M 354 346 L 354 351" /><path d="M 354 346 L 354 351" stroke-width="2"></path><text xmlns="http://www.w3.org/2000/svg" x="321" y="368">2023-09-17</text><path stroke-width="2" d="M 453 346 L 453 351" /><path stroke-width="2" d="M 453 346 L 453 351"></path><text xmlns="http://www.w3.org/2000/svg" x="420" y="368">2023-11-13</text><path stroke-width="2" d="M 551 346 L 551 351" /><path stroke-width="2" d="M 551 346 L 551 351"></path><text xmlns="http://www.w3.org/2000/svg" x="518" y="368">2024-01-08</text><path d="M 650 346 L 650 351" stroke-width="2" /><path stroke-width="2" d="M 650 346 L 650 351"></path><text xmlns="http://www.w3.org/2000/svg" x="617" y="368">2024-03-04</text><path stroke-width="2" d="M 748 346 L 748 351" /><path stroke-width="2" d="M 748 346 L 748 351"></path><text xmlns="http://www.w3.org/2000/svg" x="715" y="368">2024-04-29</text><path stroke-width="2" d="M 847 346 L 847 351" /><path stroke-width="2" d="M 847 346 L 847 351"></path><text x="814" y="368" xmlns="http://www.w3.org/2000/svg">2024-06-24</text><path stroke-width="2" d="M 945 346 L 945 351" /><path stroke-width="2" d="M 945 346 L 945 351"></path><text xmlns="http://www.w3.org/2000/svg" x="912" y="368">2024-08-20</text><text xmlns="http://www.w3.org/2000/svg" x="487" y="390">Time</text></svg>