<svg xmlns="http://www.w3.org/2000/svg" xmlns:xlink="http://www.w3.org/1999/xlink" width="1024px" height="400px"><style type="text/css">
path { fill: none; stroke: rgb(51,51,51); }
path.series { stroke: #6b63ff; }
rect.background { fill: rgb(255,255,255); stroke: none; }

text {
	stroke-width: 0;
	stroke: none;
	fill: rgba(51,51,51,1.0);
	font-size: 12.8px;
	font-family: 'Roboto Medium', sans-serif;
}
</style><rect height="400px" class="background" rx="8" x="0" y="0" width="1024px" /><rect x="0" y="0" width="1024px" height="400px" class="background" rx="8"></rect><path stroke-width="2" class="series" d="M 58 345 L 62 344 L 87 343 L 88 343 L 88 342 L 88 341 L 88 341 L 88 340 L 88 339 L 88 339 L 88 338 L 88 337 L 88 337 L 88 336 L 89 335 L 89 335 L 89 334 L 89 333 L 89 332 L 91 332 L 91 331 L 92 330 L 93 330 L 95 329 L 95 328 L 95 328 L 95 327 L 97 326 L 100 326 L 100 325 L 102 324 L 103 324 L 111 323 L 111 322 L 111 321 L 112 321 L 112 320 L 112 319 L 116 319 L 118 318 L 120 317 L 123 317 L 129 316 L 132 315 L 143 315 L 146 314 L 152 313 L 159 313 L 161 312 L 184 311 L 186 310 L 186 310 L 189 309 L 190 308 L 190 308 L 190 307 L 190 306 L 190 306 L 190 305 L 190 304 L 190 304 L 190 303 L 190 302 L 190 302 L 190 301 L 191 300 L 191 299 L 191 299 L 191 298 L 191 297 L 191 297 L 191 296 L 191 295 L 191 295 L 191 294 L 191 293 L 191 293 L 191 292 L 191 291 L 191 291 L 191 290 L 191 289 L 191 288 L 191 288 L 191 287 L 191 286 L 191 286 L 191 285 L 191 284 L 191 284 L 191 283 L 191 282 L 191 282 L 191 281 L 191 280 L 191 280 L 192 279 L 192 278 L 192 277 L 192 277 L 192 276 L 193 275 L 193 275 L 193 274 L 193 273 L 194 273 L 195 272 L 195 271 L 195 271 L 195 270 L 195 269 L 195 269 L 195 268 L 195 267 L 195 266 L 195 266 L 195 265 L 195 264 L 195 264 L 195 263 L 195 262 L 195 262 L 195 261 L 196 260 L 197 260 L 198 259 L 198 258 L 198 258 L 203 257 L 204 256 L 204 255 L 206 255 L 206 254 L 209 253 L 213 253 L 214 252 L 218 251 L 219 251 L 222 250 L 222 249 L 223 249 L 226 248 L 227 247 L 228 247 L 230 246 L 231 245 L 232 244 L 232 244 L 233 243 L 233 242 L 235 242 L 237 241 L 237 240 L 238 240 L 239 239 L 239 238 L 240 238 L 243 237 L 245 236 L 248 236 L 249 235 L 251 234 L 252 233 L 252 233 L 253 232 L 255 231 L 265 231 L 265 230 L 267 229 L 277 229 L 277 228 L 277 227 L 277 227 L 277 226 L 279 225 L 282 225 L 284 224 L 284 223 L 295 222 L 298 222 L 300 221 L 304 220 L 306 220 L 306 219 L 308 218 L 316 218 L 325 217 L 335 216 L 336 216 L 336 215 L 337 214 L 337 214 L 339 213 L 353 212 L 359 211 L 360 211 L 365 210 L 366 209 L 367 209 L 382 208 L 382 207 L 383 207 L 384 206 L 386 205 L 390 205 L 392 204 L 395 203 L 397 203 L 400 202 L 409 201 L 409 200 L 411 200 L 411 199 L 411 198 L 412 198 L 416 197 L 425 196 L 444 196 L 451 195 L 455 194 L 455 194 L 458 193 L 460 192 L 460 192 L 460 191 L 460 190 L 460 189 L 460 189 L 460 188 L 460 187 L 460 187 L 460 186 L 460 185 L 460 185 L 461 184 L 461 183 L 462 183 L 463 182 L 465 181 L 465 181 L 466 180 L 466 179 L 466 178 L 468 178 L 468 177 L 468 176 L 468 176 L 468 175 L 468 174 L 468 174 L 470 173 L 471 172 L 471 172 L 472 171 L 472 170 L 472 170 L 472 169 L 474 168 L 474 167 L 474 167 L 474 166 L 476 165 L 476 165 L 476 164 L 478 163 L 480 163 L 481 162 L 483 161 L 487 161 L 487 160 L 488 159 L 488 159 L 488 158 L 488 157 L 488 156 L 491 156 L 492 155 L 495 154 L 495 154 L 496 153 L 499 152 L 501 152 L 501 151 L 505 150 L 506 150 L 507 149 L 508 148 L 508 148 L 515 147 L 517 146 L 517 145 L 523 145 L 526 144 L 531 143 L 533 143 L 533 142 L 535 141 L 535 141 L 536 140 L 540 139 L 543 139 L 546 138 L 546 137 L 548 137 L 550 136 L 550 135 L 550 134 L 550 134 L 551 133 L 552 132 L 552 132 L 554 131 L 554 130 L 554 130 L 555 129 L 562 128 L 570 128 L 570 127 L 570 126 L 576 126 L 579 125 L 580 124 L 580 123 L 582 123 L 584 122 L 584 121 L 584 121 L 584 120 L 584 119 L 585 119 L 585 118 L 586 117 L 586 117 L 587 116 L 591 115 L 591 115 L 591 114 L 591 113 L 592 112 L 592 112 L 592 111 L 592 110 L 592 110 L 592 109 L 592 108 L 593 108 L 593 107 L 599 106 L 603 106 L 603 105 L 605 104 L 612 104 L 621 103 L 623 102 L 628 101 L 632 101 L 642 100 L 646 99 L 649 99 L 649 98 L 649 97 L 650 97 L 650 96 L 650 95 L 650 95 L 650 94 L 652 93 L 654 92 L 666 92 L 670 91 L 675 90 L 684 90 L 692 89 L 697 88 L 701 88 L 708 87 L 708 86 L 723 86 L 738 85 L 738 84 L 748 84 L 749 83 L 757 82 L 759 82 L 763 81 L 763 80 L 764 79 L 764 79 L 769 78 L 771 77 L 775 77 L 781 76 L 782 75 L 784 75 L 785 74 L 790 73 L 795 73 L 796 72 L 802 71 L 808 71 L 809 70 L 810 69 L 812 68 L 814 68 L 815 67 L 820 66 L 824 66 L 828 65 L 832 64 L 832 64 L 840 63 L 842 62 L 846 62 L 853 61 L 853 60 L 861 60 L 862 59 L 863 58 L 865 57 L 866 57 L 869 56 L 869 55 L 873 55 L 877 54 L 879 53 L 879 53 L 880 52 L 892 51 L 892 51 L 893 50 L 893 49 L 894 49 L 895 48 L 896 47 L 896 46 L 897 46 L 900 45 L 900 44 L 902 44 L 904 43 L 905 42 L 906 42 L 907 41 L 907 40 L 908 40 L 908 39 L 908 38 L 910 38 L 910 37 L 910 36 L 911 35 L 912 35 L 914 34 L 914 33 L 915 33 L 916 32 L 917 31 L 919 31 L 921 30 L 921 29 L 922 29 L 924 28 L 926 27 L 927 27 L 927 26 L 928 25 L 931 24 L 931 24 L 931 23 L 932 22 L 933 22 L 933 21 L 933 20 L 934 20 L 935 19 L 936 18 L 941 18 L 943 17 L 945 16 L 945 16" /><path stroke-width="2" class="series" d="M 58 345 L 62 344 L 87 343 L 88 343 L 88 342 L 88 341 L 88 341 L 88 340 L 88 339 L 88 339 L 88 338 L 88 337 L 88 337 L 88 336 L 89 335 L 89 335 L 89 334 L 89 333 L 89 332 L 91 332 L 91 331 L 92 330 L 93 330 L 95 329 L 95 328 L 95 328 L 95 327 L 97 326 L 100 326 L 100 325 L 102 324 L 103 324 L 111 323 L 111 322 L 111 321 L 112 321 L 112 320 L 112 319 L 116 319 L 118 318 L 120 317 L 123 317 L 129 316 L 132 315 L 143 315 L 146 314 L 152 313 L 159 313 L 161 312 L 184 311 L 186 310 L 186 310 L 189 309 L 190 308 L 190 308 L 190 307 L 190 306 L 190 306 L 190 305 L 190 304 L 190 304 L 190 303 L 190 302 L 190 302 L 190 301 L 191 300 L 191 299 L 191 299 L 191 298 L 191 297 L 191 297 L 191 296 L 191 295 L 191 295 L 191 294 L 191 293 L 191 293 L 191 292 L 191 291 L 191 291 L 191 290 L 191 289 L 191 288 L 191 288 L 191 287 L 191 286 L 191 286 L 191 285 L 191 284 L 191 284 L 191 283 L 191 282 L 191 282 L 191 281 L 191 280 L 191 280 L 192 279 L 192 278 L 192 277 L 192 277 L 192 276 L 193 275 L 193 275 L 193 274 L 193 273 L 194 273 L 195 272 L 195 271 L 195 271 L 195 270 L 195 269 L 195 269 L 195 268 L 195 267 L 195 266 L 195 266 L 195 265 L 195 264 L 195 264 L 195 263 L 195 262 L 195 262 L 195 261 L 196 260 L 197 260 L 198 259 L 198 258 L 198 258 L 203 257 L 204 256 L 204 255 L 206 255 L 206 254 L 209 253 L 213 253 L 214 252 L 218 251 L 219 251 L 222 250 L 222 249 L 223 249 L 226 248 L 227 247 L 228 247 L 230 246 L 231 245 L 232 244 L 232 244 L 233 243 L 233 242 L 235 242 L 237 241 L 237 240 L 238 240 L 239 239 L 239 238 L 240 238 L 243 237 L 245 236 L 248 236 L 249 235 L 251 234 L 252 233 L 252 233 L 253 232 L 255 231 L 265 231 L 265 230 L 267 229 L 277 229 L 277 228 L 277 227 L 277 227 L 277 226 L 279 225 L 282 225 L 284 224 L 284 223 L 295 222 L 298 222 L 300 221 L 304 220 L 306 220 L 306 219 L 308 218 L 316 218 L 325 217 L 335 216 L 336 216 L 336 215 L 337 214 L 337 214 L 339 213 L 353 212 L 359 211 L 360 211 L 365 210 L 366 209 L 367 209 L 382 208 L 382 207 L 383 207 L 384 206 L 386 205 L 390 205 L 392 204 L 395 203 L 397 203 L 400 202 L 409 201 L 409 200 L 411 200 L 411 199 L 411 198 L 412 198 L 416 197 L 425 196 L 444 196 L 451 195 L 455 194 L 455 194 L 458 193 L 460 192 L 460 192 L 460 191 L 460 190 L 460 189 L 460 189 L 460 188 L 460 187 L 460 187 L 460 186 L 460 185 L 460 185 L 461 184 L 461 183 L 462 183 L 463 182 L 465 181 L 465 181 L 466 180 L 466 179 L 466 178 L 468 178 L 468 177 L 468 176 L 468 176 L 468 175 L 468 174 L 468 174 L 470 173 L 471 172 L 471 172 L 472 171 L 472 170 L 472 170 L 472 169 L 474 168 L 474 167 L 474 167 L 474 166 L 476 165 L 476 165 L 476 164 L 478 163 L 480 163 L 481 162 L 483 161 L 487 161 L 487 160 L 488 159 L 488 159 L 488 158 L 488 157 L 488 156 L 491 156 L 492 155 L 495 154 L 495 154 L 496 153 L 499 152 L 501 152 L 501 151 L 505 150 L 506 150 L 507 149 L 508 148 L 508 148 L 515 147 L 517 146 L 517 145 L 523 145 L 526 144 L 531 143 L 533 143 L 533 142 L 535 141 L 535 141 L 536 140 L 540 139 L 543 139 L 546 138 L 546 137 L 548 137 L 550 136 L 550 135 L 550 134 L 550 134 L 551 133 L 552 132 L 552 132 L 554 131 L 554 130 L 554 130 L 555 129 L 562 128 L 570 128 L 570 127 L 570 126 L 576 126 L 579 125 L 580 124 L 580 123 L 582 123 L 584 122 L 584 121 L 584 121 L 584 120 L 584 119 L 585 119 L 585 118 L 586 117 L 586 117 L 587 116 L 591 115 L 591 115 L 591 114 L 591 113 L 592 112 L 592 112 L 592 111 L 592 110 L 592 110 L 592 109 L 592 108 L 593 108 L 593 107 L 599 106 L 603 106 L 603 105 L 605 104 L 612 104 L 621 103 L 623 102 L 628 101 L 632 101 L 642 100 L 646 99 L 649 99 L 649 98 L 649 97 L 650 97 L 650 96 L 650 95 L 650 95 L 650 94 L 652 93 L 654 92 L 666 92 L 670 91 L 675 90 L 684 90 L 692 89 L 697 88 L 701 88 L 708 87 L 708 86 L 723 86 L 738 85 L 738 84 L 748 84 L 749 83 L 757 82 L 759 82 L 763 81 L 763 80 L 764 79 L 764 79 L 769 78 L 771 77 L 775 77 L 781 76 L 782 75 L 784 75 L 785 74 L 790 73 L 795 73 L 796 72 L 802 71 L 808 71 L 809 70 L 810 69 L 812 68 L 814 68 L 815 67 L 820 66 L 824 66 L 828 65 L 832 64 L 832 64 L 840 63 L 842 62 L 846 62 L 853 61 L 853 60 L 861 60 L 862 59 L 863 58 L 865 57 L 866 57 L 869 56 L 869 55 L 873 55 L 877 54 L 879 53 L 879 53 L 880 52 L 892 51 L 892 51 L 893 50 L 893 49 L 894 49 L 895 48 L 896 47 L 896 46 L 897 46 L 900 45 L 900 44 L 902 44 L 904 43 L 905 42 L 906 42 L 907 41 L 907 40 L 908 40 L 908 39 L 908 38 L 910 38 L 910 37 L 910 36 L 911 35 L 912 35 L 914 34 L 914 33 L 915 33 L 916 32 L 917 31 L 919 31 L 921 30 L 921 29 L 922 29 L 924 28 L 926 27 L 927 27 L 927 26 L 928 25 L 931 24 L 931 24 L 931 23 L 932 22 L 933 22 L 933 21 L 933 20 L 934 20 L 935 19 L 936 18 L 941 18 L 943 17 L 945 16 L 945 16"></path><path stroke-width="2" d="M 945 346 L 945.000000 15.000000" /><path stroke-width="2" d="M 945 346 L 945.000000 15.000000"></path><path stroke-width="2" d="M 945 346 L 950 346" /><path stroke-width="2" d="M 945 346 L 950 346"></path><text xmlns="http://www.w3.org/2000/svg" x="955" y="352">0</text><path stroke-width="2" d="M 945 308 L 950 308" /><path stroke-width="2" d="M 945 308 L 950 308"></path><text y="314" xmlns="http://www.w3.org/2000/svg" x="955">54</text><path d="M 945 272 L 950 272" stroke-width="2" /><path d="M 945 272 L 950 272" stroke-width="2"></path><text xmlns="http://www.w3.org/2000/svg" x="955" y="278">107</text><path stroke-width="2" d="M 945 236 L 950 236" /><path stroke-width="2" d="M 945 236 L 950 236"></path><text xmlns="http://www.w3.org/2000/svg" x="955" y="242">160</text><path stroke-width="2" d="M 945 198 L 950 198" /><path stroke-width="2" d="M 945 198 L 950 198"></path><text xmlns="http://www.w3.org/2000/svg" x="955" y="204">214</text><path stroke-width="2" d="M 945 162 L 950 162" /><path stroke-width="2" d="M 945 162 L 950 162"></path><text xmlns="http://www.w3.org/2000/svg" x="955" y="168">267</text><path d="M 945 126 L 950 126" stroke-width="2" /><path stroke-width="2" d="M 945 126 L 950 126"></path><text xmlns="http://www.w3.org/2000/svg" x="955" y="132">320</text><path d="M 945 88 L 950 88" stroke-width="2" /><path stroke-width="2" d="M 945 88 L 950 88"></path><text xmlns="http://www.w3.org/2000/svg" x="955" y="94">374</text><path d="M 945 52 L 950 52" stroke-width="2" /><path stroke-width="2" d="M 945 52 L 950 52"></path><text y="58" xmlns="http://www.w3.org/2000/svg" x="955">427</text><path stroke-width="2" d="M 945 16 L 950 16" /><path stroke-width="2" d="M 945 16 L 950 16"></path><text x="955" y="22" xmlns="http://www.w3.org/2000/svg">480</text><text xmlns="http://www.w3.org/2000/svg" x="987" y="175" transform="rotate(90.00,987,175)">Stargazers</text><path stroke-width="2" d="M 57.000000 346.000000 L 945 346" /><path stroke-width="2" d="M 57.000000 346.000000 L 945 346"></path><path stroke-width="2" d="M 58 346 L 58 351" /><path stroke-width="2" d="M 58 346 L 58 351"></path><text xmlns="http://www.w3.org/2000/svg" x="25" y="368">2023-04-02</text><path stroke-width="2" d="M 157 346 L 157 351" /><path stroke-width="2" d="M 157 346 L 157 351"></path><text xmlns="http://www.w3.org/2000/svg" x="124" y="368">2023-05-20</text><path stroke-width="2" d="M 256 346 L 256 351" /><path d="M 256 346 L 256 351" stroke-width="2"></path><text x="223" y="368" xmlns="http://www.w3.org/2000/svg">2023-07-07</text><path stroke-width="2" d="M 354 346 L 354 351" /><path d="M 354 346 L 354 351" stroke-width="2"></path><text xmlns="http://www.w3.org/2000/svg" x="321" y="368">2023-08-24</text><path stroke-width="2" d="M 453 346 L 453 351" /><path stroke-width="2" d="M 453 346 L 453 351"></path><text y="368" xmlns="http://www.w3.org/2000/svg" x="420">2023-10-11</text><path stroke-width="2" d="M 551 346 L 551 351" /><path stroke-width="2" d="M 551 346 L 551 351"></path><text x="518" y="368" xmlns="http://www.w3.org/2000/svg">2023-11-29</text><path stroke-width="2" d="M 650 346 L 650 351" /><path stroke-width="2" d="M 650 346 L 650 351"></path><text xmlns="http://www.w3.org/2000/svg" x="617" y="368">2024-01-16</text><path stroke-width="2" d="M 748 346 L 748 351" /><path stroke-width="2" d="M 748 346 L 748 351"></path><text xmlns="http://www.w3.org/2000/svg" x="715" y="368">2024-03-04</text><path stroke-width="2" d="M 847 346 L 847 351" /><path stroke-width="2" d="M 847 346 L 847 351"></path><text xmlns="http://www.w3.org/2000/svg" x="814" y="368">2024-04-21</text><path stroke-width="2" d="M 945 346 L 945 351" /><path stroke-width="2" d="M 945 346 L 945 351"></path><text y="368" xmlns="http://www.w3.org/2000/svg" x="912">2024-06-08</text><text xmlns="http://www.w3.org/2000/svg" x="487" y="390">Time</text></svg>