<svg xmlns="http://www.w3.org/2000/svg" xmlns:xlink="http://www.w3.org/1999/xlink" width="1024px" height="400px"><style type="text/css">
path { fill: none; stroke: rgb(51,51,51); }
path.series { stroke: #6b63ff; }
rect.background { fill: rgb(255,255,255); stroke: none; }

text {
	stroke-width: 0;
	stroke: none;
	fill: rgba(51,51,51,1.0);
	font-size: 12.8px;
	font-family: 'Roboto Medium', sans-serif;
}
</style><rect y="0" width="1024px" height="400px" class="background" rx="8" x="0" /><rect width="1024px" height="400px" class="background" rx="8" x="0" y="0"></rect><path stroke-width="2" class="series" d="M 58 345 L 62 344 L 84 344 L 85 343 L 85 342 L 85 342 L 85 341 L 85 341 L 85 340 L 85 339 L 85 339 L 85 338 L 86 338 L 86 337 L 86 336 L 86 336 L 86 335 L 86 335 L 86 334 L 87 333 L 88 333 L 88 332 L 90 331 L 91 331 L 91 330 L 91 330 L 92 329 L 93 328 L 96 328 L 96 327 L 97 327 L 99 326 L 106 325 L 106 325 L 106 324 L 106 324 L 106 323 L 107 322 L 110 322 L 112 321 L 114 320 L 117 320 L 122 319 L 125 319 L 135 318 L 138 317 L 143 317 L 149 316 L 151 316 L 172 315 L 173 314 L 173 314 L 176 313 L 177 313 L 177 312 L 177 311 L 177 311 L 177 310 L 177 309 L 177 309 L 177 308 L 177 308 L 177 307 L 177 306 L 177 306 L 178 305 L 178 305 L 178 304 L 178 303 L 178 303 L 178 302 L 178 302 L 178 301 L 178 300 L 178 300 L 178 299 L 178 298 L 178 298 L 178 297 L 178 297 L 178 296 L 178 295 L 178 295 L 178 294 L 178 294 L 178 293 L 178 292 L 178 292 L 178 291 L 178 291 L 178 290 L 178 289 L 178 289 L 178 288 L 178 287 L 178 287 L 178 286 L 178 286 L 179 285 L 179 284 L 179 284 L 180 283 L 180 283 L 180 282 L 180 281 L 180 281 L 181 280 L 181 280 L 181 279 L 181 278 L 181 278 L 181 277 L 181 276 L 181 276 L 181 275 L 181 275 L 181 274 L 181 273 L 182 273 L 182 272 L 182 272 L 182 271 L 182 270 L 182 270 L 184 269 L 184 269 L 184 268 L 184 267 L 189 267 L 189 266 L 189 265 L 191 265 L 191 264 L 194 264 L 198 263 L 199 262 L 202 262 L 203 261 L 205 261 L 206 260 L 207 259 L 210 259 L 210 258 L 211 258 L 213 257 L 214 256 L 215 256 L 215 255 L 215 254 L 216 254 L 218 253 L 219 253 L 219 252 L 220 251 L 221 251 L 221 250 L 222 250 L 224 249 L 226 248 L 229 248 L 230 247 L 232 247 L 233 246 L 233 245 L 233 245 L 236 244 L 245 243 L 245 243 L 246 242 L 255 242 L 255 241 L 255 240 L 255 240 L 256 239 L 257 239 L 260 238 L 261 237 L 262 237 L 272 236 L 274 236 L 276 235 L 280 234 L 282 234 L 282 233 L 283 232 L 290 232 L 299 231 L 308 231 L 309 230 L 309 229 L 309 229 L 309 228 L 312 228 L 324 227 L 330 226 L 330 226 L 335 225 L 336 225 L 336 224 L 350 223 L 350 223 L 351 222 L 352 221 L 353 221 L 357 220 L 359 220 L 361 219 L 363 218 L 366 218 L 374 217 L 374 217 L 376 216 L 376 215 L 376 215 L 377 214 L 381 214 L 389 213 L 406 212 L 412 212 L 416 211 L 416 210 L 418 210 L 420 209 L 420 209 L 420 208 L 420 207 L 420 207 L 420 206 L 420 206 L 420 205 L 420 204 L 420 204 L 421 203 L 421 203 L 421 202 L 421 201 L 422 201 L 423 200 L 424 199 L 425 199 L 425 198 L 425 198 L 425 197 L 427 196 L 427 196 L 427 195 L 427 195 L 427 194 L 428 193 L 428 193 L 429 192 L 430 192 L 431 191 L 431 190 L 431 190 L 431 189 L 431 188 L 433 188 L 433 187 L 433 187 L 433 186 L 434 185 L 435 185 L 435 184 L 436 184 L 438 183 L 439 182 L 441 182 L 444 181 L 444 181 L 445 180 L 446 179 L 446 179 L 446 178 L 446 177 L 448 177 L 449 176 L 452 176 L 452 175 L 453 174 L 455 174 L 457 173 L 457 173 L 461 172 L 462 171 L 462 171 L 464 170 L 464 170 L 470 169 L 471 168 L 472 168 L 477 167 L 479 166 L 484 166 L 486 165 L 486 165 L 488 164 L 488 163 L 488 163 L 492 162 L 495 162 L 497 161 L 498 160 L 500 160 L 501 159 L 501 159 L 501 158 L 502 157 L 502 157 L 503 156 L 503 155 L 505 155 L 505 154 L 505 154 L 506 153 L 512 152 L 520 152 L 520 151 L 520 151 L 525 150 L 527 149 L 528 149 L 529 148 L 530 148 L 532 147 L 532 146 L 532 146 L 532 145 L 532 144 L 533 144 L 533 143 L 534 143 L 534 142 L 535 141 L 538 141 L 538 140 L 538 140 L 538 139 L 539 138 L 539 138 L 539 137 L 539 137 L 539 136 L 539 135 L 540 135 L 540 134 L 540 133 L 545 133 L 549 132 L 549 132 L 550 131 L 557 130 L 565 130 L 567 129 L 572 129 L 575 128 L 584 127 L 587 127 L 590 126 L 591 126 L 591 125 L 591 124 L 591 124 L 591 123 L 591 122 L 591 122 L 593 121 L 595 121 L 606 120 L 609 119 L 614 119 L 622 118 L 629 118 L 634 117 L 637 116 L 644 116 L 644 115 L 657 115 L 670 114 L 671 113 L 680 113 L 680 112 L 688 111 L 689 111 L 693 110 L 693 110 L 694 109 L 694 108 L 698 108 L 700 107 L 704 107 L 709 106 L 710 105 L 712 105 L 713 104 L 717 104 L 722 103 L 723 102 L 728 102 L 734 101 L 735 100 L 735 100 L 738 99 L 739 99 L 740 98 L 745 97 L 748 97 L 752 96 L 756 96 L 756 95 L 763 94 L 764 94 L 768 93 L 774 92 L 775 92 L 782 91 L 783 91 L 783 90 L 785 89 L 786 89 L 789 88 L 789 88 L 792 87 L 796 86 L 797 86 L 798 85 L 798 85 L 809 84 L 809 83 L 810 83 L 811 82 L 811 82 L 812 81 L 813 80 L 813 80 L 814 79 L 817 78 L 817 78 L 819 77 L 820 77 L 821 76 L 822 75 L 822 75 L 823 74 L 824 74 L 824 73 L 824 72 L 825 72 L 825 71 L 826 71 L 826 70 L 827 69 L 829 69 L 830 68 L 830 67 L 831 67 L 832 66 L 834 66 L 835 65 L 836 64 L 837 64 L 838 63 L 840 63 L 841 62 L 841 61 L 842 61 L 845 60 L 845 60 L 845 59 L 846 58 L 846 58 L 846 57 L 846 56 L 847 56 L 848 55 L 849 55 L 854 54 L 855 53 L 857 53 L 858 52 L 861 52 L 863 51 L 864 50 L 867 50 L 871 49 L 874 49 L 878 48 L 879 47 L 879 47 L 879 46 L 879 45 L 880 45 L 881 44 L 881 44 L 882 43 L 882 42 L 883 42 L 883 41 L 885 41 L 887 40 L 887 39 L 888 39 L 888 38 L 892 38 L 893 37 L 893 36 L 894 36 L 896 35 L 899 34 L 903 34 L 909 33 L 909 33 L 909 32 L 909 31 L 912 31 L 915 30 L 916 30 L 916 29 L 916 28 L 917 28 L 919 27 L 924 27 L 925 26 L 925 25 L 925 25 L 928 24 L 928 23 L 928 23 L 928 22 L 929 22 L 933 21 L 938 20 L 938 20 L 944 19 L 944 19 L 945 18" /><path stroke-width="2" class="series" d="M 58 345 L 62 344 L 84 344 L 85 343 L 85 342 L 85 342 L 85 341 L 85 341 L 85 340 L 85 339 L 85 339 L 85 338 L 86 338 L 86 337 L 86 336 L 86 336 L 86 335 L 86 335 L 86 334 L 87 333 L 88 333 L 88 332 L 90 331 L 91 331 L 91 330 L 91 330 L 92 329 L 93 328 L 96 328 L 96 327 L 97 327 L 99 326 L 106 325 L 106 325 L 106 324 L 106 324 L 106 323 L 107 322 L 110 322 L 112 321 L 114 320 L 117 320 L 122 319 L 125 319 L 135 318 L 138 317 L 143 317 L 149 316 L 151 316 L 172 315 L 173 314 L 173 314 L 176 313 L 177 313 L 177 312 L 177 311 L 177 311 L 177 310 L 177 309 L 177 309 L 177 308 L 177 308 L 177 307 L 177 306 L 177 306 L 178 305 L 178 305 L 178 304 L 178 303 L 178 303 L 178 302 L 178 302 L 178 301 L 178 300 L 178 300 L 178 299 L 178 298 L 178 298 L 178 297 L 178 297 L 178 296 L 178 295 L 178 295 L 178 294 L 178 294 L 178 293 L 178 292 L 178 292 L 178 291 L 178 291 L 178 290 L 178 289 L 178 289 L 178 288 L 178 287 L 178 287 L 178 286 L 178 286 L 179 285 L 179 284 L 179 284 L 180 283 L 180 283 L 180 282 L 180 281 L 180 281 L 181 280 L 181 280 L 181 279 L 181 278 L 181 278 L 181 277 L 181 276 L 181 276 L 181 275 L 181 275 L 181 274 L 181 273 L 182 273 L 182 272 L 182 272 L 182 271 L 182 270 L 182 270 L 184 269 L 184 269 L 184 268 L 184 267 L 189 267 L 189 266 L 189 265 L 191 265 L 191 264 L 194 264 L 198 263 L 199 262 L 202 262 L 203 261 L 205 261 L 206 260 L 207 259 L 210 259 L 210 258 L 211 258 L 213 257 L 214 256 L 215 256 L 215 255 L 215 254 L 216 254 L 218 253 L 219 253 L 219 252 L 220 251 L 221 251 L 221 250 L 222 250 L 224 249 L 226 248 L 229 248 L 230 247 L 232 247 L 233 246 L 233 245 L 233 245 L 236 244 L 245 243 L 245 243 L 246 242 L 255 242 L 255 241 L 255 240 L 255 240 L 256 239 L 257 239 L 260 238 L 261 237 L 262 237 L 272 236 L 274 236 L 276 235 L 280 234 L 282 234 L 282 233 L 283 232 L 290 232 L 299 231 L 308 231 L 309 230 L 309 229 L 309 229 L 309 228 L 312 228 L 324 227 L 330 226 L 330 226 L 335 225 L 336 225 L 336 224 L 350 223 L 350 223 L 351 222 L 352 221 L 353 221 L 357 220 L 359 220 L 361 219 L 363 218 L 366 218 L 374 217 L 374 217 L 376 216 L 376 215 L 376 215 L 377 214 L 381 214 L 389 213 L 406 212 L 412 212 L 416 211 L 416 210 L 418 210 L 420 209 L 420 209 L 420 208 L 420 207 L 420 207 L 420 206 L 420 206 L 420 205 L 420 204 L 420 204 L 421 203 L 421 203 L 421 202 L 421 201 L 422 201 L 423 200 L 424 199 L 425 199 L 425 198 L 425 198 L 425 197 L 427 196 L 427 196 L 427 195 L 427 195 L 427 194 L 428 193 L 428 193 L 429 192 L 430 192 L 431 191 L 431 190 L 431 190 L 431 189 L 431 188 L 433 188 L 433 187 L 433 187 L 433 186 L 434 185 L 435 185 L 435 184 L 436 184 L 438 183 L 439 182 L 441 182 L 444 181 L 444 181 L 445 180 L 446 179 L 446 179 L 446 178 L 446 177 L 448 177 L 449 176 L 452 176 L 452 175 L 453 174 L 455 174 L 457 173 L 457 173 L 461 172 L 462 171 L 462 171 L 464 170 L 464 170 L 470 169 L 471 168 L 472 168 L 477 167 L 479 166 L 484 166 L 486 165 L 486 165 L 488 164 L 488 163 L 488 163 L 492 162 L 495 162 L 497 161 L 498 160 L 500 160 L 501 159 L 501 159 L 501 158 L 502 157 L 502 157 L 503 156 L 503 155 L 505 155 L 505 154 L 505 154 L 506 153 L 512 152 L 520 152 L 520 151 L 520 151 L 525 150 L 527 149 L 528 149 L 529 148 L 530 148 L 532 147 L 532 146 L 532 146 L 532 145 L 532 144 L 533 144 L 533 143 L 534 143 L 534 142 L 535 141 L 538 141 L 538 140 L 538 140 L 538 139 L 539 138 L 539 138 L 539 137 L 539 137 L 539 136 L 539 135 L 540 135 L 540 134 L 540 133 L 545 133 L 549 132 L 549 132 L 550 131 L 557 130 L 565 130 L 567 129 L 572 129 L 575 128 L 584 127 L 587 127 L 590 126 L 591 126 L 591 125 L 591 124 L 591 124 L 591 123 L 591 122 L 591 122 L 593 121 L 595 121 L 606 120 L 609 119 L 614 119 L 622 118 L 629 118 L 634 117 L 637 116 L 644 116 L 644 115 L 657 115 L 670 114 L 671 113 L 680 113 L 680 112 L 688 111 L 689 111 L 693 110 L 693 110 L 694 109 L 694 108 L 698 108 L 700 107 L 704 107 L 709 106 L 710 105 L 712 105 L 713 104 L 717 104 L 722 103 L 723 102 L 728 102 L 734 101 L 735 100 L 735 100 L 738 99 L 739 99 L 740 98 L 745 97 L 748 97 L 752 96 L 756 96 L 756 95 L 763 94 L 764 94 L 768 93 L 774 92 L 775 92 L 782 91 L 783 91 L 783 90 L 785 89 L 786 89 L 789 88 L 789 88 L 792 87 L 796 86 L 797 86 L 798 85 L 798 85 L 809 84 L 809 83 L 810 83 L 811 82 L 811 82 L 812 81 L 813 80 L 813 80 L 814 79 L 817 78 L 817 78 L 819 77 L 820 77 L 821 76 L 822 75 L 822 75 L 823 74 L 824 74 L 824 73 L 824 72 L 825 72 L 825 71 L 826 71 L 826 70 L 827 69 L 829 69 L 830 68 L 830 67 L 831 67 L 832 66 L 834 66 L 835 65 L 836 64 L 837 64 L 838 63 L 840 63 L 841 62 L 841 61 L 842 61 L 845 60 L 845 60 L 845 59 L 846 58 L 846 58 L 846 57 L 846 56 L 847 56 L 848 55 L 849 55 L 854 54 L 855 53 L 857 53 L 858 52 L 861 52 L 863 51 L 864 50 L 867 50 L 871 49 L 874 49 L 878 48 L 879 47 L 879 47 L 879 46 L 879 45 L 880 45 L 881 44 L 881 44 L 882 43 L 882 42 L 883 42 L 883 41 L 885 41 L 887 40 L 887 39 L 888 39 L 888 38 L 892 38 L 893 37 L 893 36 L 894 36 L 896 35 L 899 34 L 903 34 L 909 33 L 909 33 L 909 32 L 909 31 L 912 31 L 915 30 L 916 30 L 916 29 L 916 28 L 917 28 L 919 27 L 924 27 L 925 26 L 925 25 L 925 25 L 928 24 L 928 23 L 928 23 L 928 22 L 929 22 L 933 21 L 938 20 L 938 20 L 944 19 L 944 19 L 945 18"></path><path stroke-width="2" d="M 945 346 L 945.000000 15.000000" /><path stroke-width="2" d="M 945 346 L 945.000000 15.000000"></path><path stroke-width="2" d="M 945 346 L 950 346" /><path stroke-width="2" d="M 945 346 L 950 346"></path><text xmlns="http://www.w3.org/2000/svg" x="955" y="352">0</text><path stroke-width="2" d="M 945 309 L 950 309" /><path stroke-width="2" d="M 945 309 L 950 309"></path><text xmlns="http://www.w3.org/2000/svg" x="955" y="315">60</text><path stroke-width="2" d="M 945 272 L 950 272" /><path stroke-width="2" d="M 945 272 L 950 272"></path><text xmlns="http://www.w3.org/2000/svg" x="955" y="278">120</text><path d="M 945 236 L 950 236" stroke-width="2" /><path stroke-width="2" d="M 945 236 L 950 236"></path><text xmlns="http://www.w3.org/2000/svg" x="955" y="242">180</text><path stroke-width="2" d="M 945 199 L 950 199" /><path stroke-width="2" d="M 945 199 L 950 199"></path><text x="955" y="205" xmlns="http://www.w3.org/2000/svg">240</text><path stroke-width="2" d="M 945 162 L 950 162" /><path d="M 945 162 L 950 162" stroke-width="2"></path><text xmlns="http://www.w3.org/2000/svg" x="955" y="168">300</text><path stroke-width="2" d="M 945 126 L 950 126" /><path stroke-width="2" d="M 945 126 L 950 126"></path><text xmlns="http://www.w3.org/2000/svg" x="955" y="132">360</text><path stroke-width="2" d="M 945 89 L 950 89" /><path stroke-width="2" d="M 945 89 L 950 89"></path><text y="95" xmlns="http://www.w3.org/2000/svg" x="955">420</text><path stroke-width="2" d="M 945 52 L 950 52" /><path stroke-width="2" d="M 945 52 L 950 52"></path><text xmlns="http://www.w3.org/2000/svg" x="955" y="58">480</text><path stroke-width="2" d="M 945 16 L 950 16" /><path stroke-width="2" d="M 945 16 L 950 16"></path><text xmlns="http://www.w3.org/2000/svg" x="955" y="22">540</text><text xmlns="http://www.w3.org/2000/svg" x="987" y="175" transform="rotate(90.00,987,175)">Stargazers</text><path stroke-width="2" d="M 57.000000 346.000000 L 945 346" /><path stroke-width="2" d="M 57.000000 346.000000 L 945 346"></path><path stroke-width="2" d="M 58 346 L 58 351" /><path stroke-width="2" d="M 58 346 L 58 351"></path><text xmlns="http://www.w3.org/2000/svg" x="25" y="368">2023-04-02</text><path d="M 157 346 L 157 351" stroke-width="2" /><path stroke-width="2" d="M 157 346 L 157 351"></path><text xmlns="http://www.w3.org/2000/svg" x="124" y="368">2023-05-25</text><path stroke-width="2" d="M 256 346 L 256 351" /><path stroke-width="2" d="M 256 346 L 256 351"></path><text xmlns="http://www.w3.org/2000/svg" x="223" y="368">2023-07-18</text><path stroke-width="2" d="M 354 346 L 354 351" /><path d="M 354 346 L 354 351" stroke-width="2"></path><text xmlns="http://www.w3.org/2000/svg" x="321" y="368">2023-09-09</text><path stroke-width="2" d="M 453 346 L 453 351" /><path d="M 453 346 L 453 351" stroke-width="2"></path><text xmlns="http://www.w3.org/2000/svg" x="420" y="368">2023-11-02</text><path stroke-width="2" d="M 551 346 L 551 351" /><path stroke-width="2" d="M 551 346 L 551 351"></path><text xmlns="http://www.w3.org/2000/svg" x="518" y="368">2023-12-25</text><path stroke-width="2" d="M 650 346 L 650 351" /><path stroke-width="2" d="M 650 346 L 650 351"></path><text xmlns="http://www.w3.org/2000/svg" x="617" y="368">2024-02-17</text><path stroke-width="2" d="M 748 346 L 748 351" /><path stroke-width="2" d="M 748 346 L 748 351"></path><text xmlns="http://www.w3.org/2000/svg" x="715" y="368">2024-04-10</text><path stroke-width="2" d="M 847 346 L 847 351" /><path stroke-width="2" d="M 847 346 L 847 351"></path><text xmlns="http://www.w3.org/2000/svg" x="814" y="368">2024-06-02</text><path stroke-width="2" d="M 945 346 L 945 351" /><path stroke-width="2" d="M 945 346 L 945 351"></path><text xmlns="http://www.w3.org/2000/svg" x="912" y="368">2024-07-26</text><text xmlns="http://www.w3.org/2000/svg" x="487" y="390">Time</text></svg>