<svg width="1024px" height="400px" xmlns="http://www.w3.org/2000/svg" xmlns:xlink="http://www.w3.org/1999/xlink"><style type="text/css">
path { fill: none; stroke: rgb(51,51,51); }
path.series { stroke: #6b63ff; }
rect.background { fill: rgb(255,255,255); stroke: none; }

text {
	stroke-width: 0;
	stroke: none;
	fill: rgba(51,51,51,1.0);
	font-size: 12.8px;
	font-family: 'Roboto Medium', sans-serif;
}
</style><rect height="400px" class="background" rx="8" x="0" y="0" width="1024px" /><rect x="0" y="0" width="1024px" height="400px" class="background" rx="8"></rect><path stroke-width="2" class="series" d="M 58 345 L 62 344 L 83 344 L 83 343 L 83 343 L 83 342 L 83 341 L 83 341 L 83 340 L 83 340 L 84 339 L 84 339 L 84 338 L 84 337 L 84 337 L 84 336 L 84 336 L 85 335 L 85 335 L 86 334 L 86 333 L 87 333 L 88 332 L 89 332 L 89 331 L 89 330 L 90 330 L 91 329 L 94 329 L 94 328 L 95 328 L 97 327 L 103 326 L 104 326 L 104 325 L 104 325 L 104 324 L 104 324 L 108 323 L 109 322 L 110 322 L 114 321 L 119 321 L 121 320 L 130 319 L 133 319 L 138 318 L 144 318 L 146 317 L 166 317 L 167 316 L 167 315 L 169 315 L 170 314 L 170 314 L 170 313 L 170 313 L 170 312 L 170 311 L 170 311 L 170 310 L 170 310 L 170 309 L 170 308 L 171 308 L 171 307 L 171 307 L 171 306 L 171 306 L 171 305 L 171 304 L 171 304 L 171 303 L 171 303 L 171 302 L 171 302 L 171 301 L 171 300 L 171 300 L 171 299 L 171 299 L 171 298 L 171 297 L 171 297 L 171 296 L 171 296 L 171 295 L 171 295 L 171 294 L 171 293 L 171 293 L 172 292 L 172 292 L 172 291 L 172 291 L 172 290 L 172 289 L 172 289 L 172 288 L 172 288 L 172 287 L 173 286 L 173 286 L 173 285 L 173 285 L 174 284 L 175 284 L 175 283 L 175 282 L 175 282 L 175 281 L 175 281 L 175 280 L 175 280 L 175 279 L 175 278 L 175 278 L 175 277 L 175 277 L 175 276 L 175 275 L 175 275 L 175 274 L 175 274 L 177 273 L 177 273 L 177 272 L 177 271 L 182 271 L 182 270 L 182 270 L 184 269 L 184 269 L 187 268 L 190 267 L 191 267 L 194 266 L 195 266 L 197 265 L 198 264 L 198 264 L 201 263 L 202 263 L 203 262 L 204 262 L 205 261 L 206 260 L 206 260 L 207 259 L 207 259 L 209 258 L 210 258 L 210 257 L 211 256 L 212 256 L 212 255 L 213 255 L 215 254 L 217 253 L 220 253 L 221 252 L 222 252 L 223 251 L 223 251 L 224 250 L 226 249 L 234 249 L 235 248 L 236 248 L 244 247 L 244 247 L 244 246 L 244 245 L 245 245 L 246 244 L 248 244 L 250 243 L 250 242 L 260 242 L 262 241 L 264 241 L 267 240 L 269 240 L 269 239 L 271 238 L 278 238 L 285 237 L 294 237 L 295 236 L 295 236 L 295 235 L 295 234 L 297 234 L 309 233 L 315 233 L 315 232 L 319 231 L 320 231 L 321 230 L 334 230 L 334 229 L 335 229 L 335 228 L 337 227 L 340 227 L 342 226 L 345 226 L 346 225 L 349 225 L 357 224 L 357 223 L 358 223 L 358 222 L 359 222 L 359 221 L 363 220 L 370 220 L 386 219 L 392 219 L 396 218 L 396 218 L 398 217 L 400 216 L 400 216 L 400 215 L 400 215 L 400 214 L 400 214 L 400 213 L 400 212 L 400 212 L 400 211 L 400 211 L 400 210 L 401 209 L 401 209 L 402 208 L 404 208 L 405 207 L 405 207 L 405 206 L 405 205 L 407 205 L 407 204 L 407 204 L 407 203 L 407 203 L 407 202 L 407 201 L 408 201 L 409 200 L 410 200 L 410 199 L 410 198 L 410 198 L 411 197 L 412 197 L 412 196 L 412 196 L 412 195 L 413 194 L 414 194 L 414 193 L 415 193 L 417 192 L 418 192 L 420 191 L 423 190 L 423 190 L 424 189 L 424 189 L 424 188 L 424 187 L 424 187 L 426 186 L 427 186 L 430 185 L 430 185 L 431 184 L 433 183 L 435 183 L 435 182 L 439 182 L 439 181 L 440 181 L 441 180 L 441 179 L 447 179 L 448 178 L 449 178 L 453 177 L 456 176 L 461 176 L 462 175 L 462 175 L 464 174 L 464 174 L 464 173 L 468 172 L 471 172 L 473 171 L 473 171 L 475 170 L 477 170 L 477 169 L 477 168 L 477 168 L 478 167 L 478 167 L 478 166 L 480 165 L 480 165 L 480 164 L 481 164 L 487 163 L 494 163 L 494 162 L 494 161 L 499 161 L 501 160 L 502 160 L 503 159 L 504 159 L 506 158 L 506 157 L 506 157 L 506 156 L 506 156 L 506 155 L 506 154 L 507 154 L 507 153 L 508 153 L 511 152 L 511 152 L 512 151 L 512 150 L 512 150 L 512 149 L 513 149 L 513 148 L 513 148 L 513 147 L 513 146 L 513 146 L 513 145 L 518 145 L 522 144 L 522 143 L 523 143 L 530 142 L 537 142 L 539 141 L 543 141 L 546 140 L 555 139 L 558 139 L 561 138 L 561 138 L 561 137 L 561 137 L 562 136 L 562 135 L 562 135 L 562 134 L 564 134 L 565 133 L 576 132 L 579 132 L 583 131 L 591 131 L 597 130 L 602 130 L 605 129 L 611 128 L 611 128 L 624 127 L 636 127 L 637 126 L 645 126 L 646 125 L 653 124 L 654 124 L 658 123 L 658 123 L 659 122 L 659 121 L 663 121 L 664 120 L 668 120 L 673 119 L 674 119 L 675 118 L 676 117 L 681 117 L 685 116 L 686 116 L 691 115 L 696 115 L 697 114 L 697 113 L 700 113 L 701 112 L 702 112 L 707 111 L 710 110 L 714 110 L 717 109 L 717 109 L 724 108 L 725 108 L 729 107 L 735 106 L 735 106 L 741 105 L 742 105 L 743 104 L 745 104 L 745 103 L 748 102 L 748 102 L 751 101 L 755 101 L 756 100 L 757 99 L 757 99 L 768 98 L 768 98 L 769 97 L 769 97 L 769 96 L 770 95 L 771 95 L 771 94 L 772 94 L 774 93 L 775 92 L 777 92 L 777 91 L 778 91 L 779 90 L 780 90 L 780 89 L 781 88 L 782 88 L 782 87 L 783 87 L 783 86 L 783 86 L 784 85 L 785 84 L 787 84 L 787 83 L 787 83 L 788 82 L 789 82 L 791 81 L 792 80 L 792 80 L 793 79 L 795 79 L 797 78 L 797 77 L 798 77 L 798 76 L 801 76 L 801 75 L 801 75 L 802 74 L 802 73 L 802 73 L 803 72 L 803 72 L 804 71 L 805 71 L 810 70 L 811 69 L 813 69 L 813 68 L 816 68 L 818 67 L 819 66 L 822 66 L 825 65 L 829 65 L 832 64 L 833 64 L 833 63 L 833 62 L 834 62 L 835 61 L 835 61 L 835 60 L 837 60 L 837 59 L 837 58 L 837 58 L 839 57 L 841 57 L 841 56 L 842 55 L 842 55 L 846 54 L 846 54 L 846 53 L 848 53 L 849 52 L 852 51 L 856 51 L 861 50 L 861 50 L 861 49 L 862 49 L 865 48 L 868 47 L 868 47 L 868 46 L 868 46 L 869 45 L 871 44 L 876 44 L 877 43 L 877 43 L 877 42 L 879 42 L 880 41 L 880 40 L 880 40 L 880 39 L 884 39 L 889 38 L 889 38 L 895 37 L 895 36 L 896 36 L 901 35 L 902 35 L 906 34 L 909 33 L 911 33 L 912 32 L 913 32 L 913 31 L 914 31 L 914 30 L 914 29 L 915 29 L 916 28 L 916 28 L 917 27 L 917 27 L 917 26 L 919 25 L 920 25 L 921 24 L 927 24 L 928 23 L 935 22 L 938 22 L 938 21 L 939 21 L 940 20 L 944 20 L 944 19 L 945 18 L 945 18" /><path stroke-width="2" class="series" d="M 58 345 L 62 344 L 83 344 L 83 343 L 83 343 L 83 342 L 83 341 L 83 341 L 83 340 L 83 340 L 84 339 L 84 339 L 84 338 L 84 337 L 84 337 L 84 336 L 84 336 L 85 335 L 85 335 L 86 334 L 86 333 L 87 333 L 88 332 L 89 332 L 89 331 L 89 330 L 90 330 L 91 329 L 94 329 L 94 328 L 95 328 L 97 327 L 103 326 L 104 326 L 104 325 L 104 325 L 104 324 L 104 324 L 108 323 L 109 322 L 110 322 L 114 321 L 119 321 L 121 320 L 130 319 L 133 319 L 138 318 L 144 318 L 146 317 L 166 317 L 167 316 L 167 315 L 169 315 L 170 314 L 170 314 L 170 313 L 170 313 L 170 312 L 170 311 L 170 311 L 170 310 L 170 310 L 170 309 L 170 308 L 171 308 L 171 307 L 171 307 L 171 306 L 171 306 L 171 305 L 171 304 L 171 304 L 171 303 L 171 303 L 171 302 L 171 302 L 171 301 L 171 300 L 171 300 L 171 299 L 171 299 L 171 298 L 171 297 L 171 297 L 171 296 L 171 296 L 171 295 L 171 295 L 171 294 L 171 293 L 171 293 L 172 292 L 172 292 L 172 291 L 172 291 L 172 290 L 172 289 L 172 289 L 172 288 L 172 288 L 172 287 L 173 286 L 173 286 L 173 285 L 173 285 L 174 284 L 175 284 L 175 283 L 175 282 L 175 282 L 175 281 L 175 281 L 175 280 L 175 280 L 175 279 L 175 278 L 175 278 L 175 277 L 175 277 L 175 276 L 175 275 L 175 275 L 175 274 L 175 274 L 177 273 L 177 273 L 177 272 L 177 271 L 182 271 L 182 270 L 182 270 L 184 269 L 184 269 L 187 268 L 190 267 L 191 267 L 194 266 L 195 266 L 197 265 L 198 264 L 198 264 L 201 263 L 202 263 L 203 262 L 204 262 L 205 261 L 206 260 L 206 260 L 207 259 L 207 259 L 209 258 L 210 258 L 210 257 L 211 256 L 212 256 L 212 255 L 213 255 L 215 254 L 217 253 L 220 253 L 221 252 L 222 252 L 223 251 L 223 251 L 224 250 L 226 249 L 234 249 L 235 248 L 236 248 L 244 247 L 244 247 L 244 246 L 244 245 L 245 245 L 246 244 L 248 244 L 250 243 L 250 242 L 260 242 L 262 241 L 264 241 L 267 240 L 269 240 L 269 239 L 271 238 L 278 238 L 285 237 L 294 237 L 295 236 L 295 236 L 295 235 L 295 234 L 297 234 L 309 233 L 315 233 L 315 232 L 319 231 L 320 231 L 321 230 L 334 230 L 334 229 L 335 229 L 335 228 L 337 227 L 340 227 L 342 226 L 345 226 L 346 225 L 349 225 L 357 224 L 357 223 L 358 223 L 358 222 L 359 222 L 359 221 L 363 220 L 370 220 L 386 219 L 392 219 L 396 218 L 396 218 L 398 217 L 400 216 L 400 216 L 400 215 L 400 215 L 400 214 L 400 214 L 400 213 L 400 212 L 400 212 L 400 211 L 400 211 L 400 210 L 401 209 L 401 209 L 402 208 L 404 208 L 405 207 L 405 207 L 405 206 L 405 205 L 407 205 L 407 204 L 407 204 L 407 203 L 407 203 L 407 202 L 407 201 L 408 201 L 409 200 L 410 200 L 410 199 L 410 198 L 410 198 L 411 197 L 412 197 L 412 196 L 412 196 L 412 195 L 413 194 L 414 194 L 414 193 L 415 193 L 417 192 L 418 192 L 420 191 L 423 190 L 423 190 L 424 189 L 424 189 L 424 188 L 424 187 L 424 187 L 426 186 L 427 186 L 430 185 L 430 185 L 431 184 L 433 183 L 435 183 L 435 182 L 439 182 L 439 181 L 440 181 L 441 180 L 441 179 L 447 179 L 448 178 L 449 178 L 453 177 L 456 176 L 461 176 L 462 175 L 462 175 L 464 174 L 464 174 L 464 173 L 468 172 L 471 172 L 473 171 L 473 171 L 475 170 L 477 170 L 477 169 L 477 168 L 477 168 L 478 167 L 478 167 L 478 166 L 480 165 L 480 165 L 480 164 L 481 164 L 487 163 L 494 163 L 494 162 L 494 161 L 499 161 L 501 160 L 502 160 L 503 159 L 504 159 L 506 158 L 506 157 L 506 157 L 506 156 L 506 156 L 506 155 L 506 154 L 507 154 L 507 153 L 508 153 L 511 152 L 511 152 L 512 151 L 512 150 L 512 150 L 512 149 L 513 149 L 513 148 L 513 148 L 513 147 L 513 146 L 513 146 L 513 145 L 518 145 L 522 144 L 522 143 L 523 143 L 530 142 L 537 142 L 539 141 L 543 141 L 546 140 L 555 139 L 558 139 L 561 138 L 561 138 L 561 137 L 561 137 L 562 136 L 562 135 L 562 135 L 562 134 L 564 134 L 565 133 L 576 132 L 579 132 L 583 131 L 591 131 L 597 130 L 602 130 L 605 129 L 611 128 L 611 128 L 624 127 L 636 127 L 637 126 L 645 126 L 646 125 L 653 124 L 654 124 L 658 123 L 658 123 L 659 122 L 659 121 L 663 121 L 664 120 L 668 120 L 673 119 L 674 119 L 675 118 L 676 117 L 681 117 L 685 116 L 686 116 L 691 115 L 696 115 L 697 114 L 697 113 L 700 113 L 701 112 L 702 112 L 707 111 L 710 110 L 714 110 L 717 109 L 717 109 L 724 108 L 725 108 L 729 107 L 735 106 L 735 106 L 741 105 L 742 105 L 743 104 L 745 104 L 745 103 L 748 102 L 748 102 L 751 101 L 755 101 L 756 100 L 757 99 L 757 99 L 768 98 L 768 98 L 769 97 L 769 97 L 769 96 L 770 95 L 771 95 L 771 94 L 772 94 L 774 93 L 775 92 L 777 92 L 777 91 L 778 91 L 779 90 L 780 90 L 780 89 L 781 88 L 782 88 L 782 87 L 783 87 L 783 86 L 783 86 L 784 85 L 785 84 L 787 84 L 787 83 L 787 83 L 788 82 L 789 82 L 791 81 L 792 80 L 792 80 L 793 79 L 795 79 L 797 78 L 797 77 L 798 77 L 798 76 L 801 76 L 801 75 L 801 75 L 802 74 L 802 73 L 802 73 L 803 72 L 803 72 L 804 71 L 805 71 L 810 70 L 811 69 L 813 69 L 813 68 L 816 68 L 818 67 L 819 66 L 822 66 L 825 65 L 829 65 L 832 64 L 833 64 L 833 63 L 833 62 L 834 62 L 835 61 L 835 61 L 835 60 L 837 60 L 837 59 L 837 58 L 837 58 L 839 57 L 841 57 L 841 56 L 842 55 L 842 55 L 846 54 L 846 54 L 846 53 L 848 53 L 849 52 L 852 51 L 856 51 L 861 50 L 861 50 L 861 49 L 862 49 L 865 48 L 868 47 L 868 47 L 868 46 L 868 46 L 869 45 L 871 44 L 876 44 L 877 43 L 877 43 L 877 42 L 879 42 L 880 41 L 880 40 L 880 40 L 880 39 L 884 39 L 889 38 L 889 38 L 895 37 L 895 36 L 896 36 L 901 35 L 902 35 L 906 34 L 909 33 L 911 33 L 912 32 L 913 32 L 913 31 L 914 31 L 914 30 L 914 29 L 915 29 L 916 28 L 916 28 L 917 27 L 917 27 L 917 26 L 919 25 L 920 25 L 921 24 L 927 24 L 928 23 L 935 22 L 938 22 L 938 21 L 939 21 L 940 20 L 944 20 L 944 19 L 945 18 L 945 18"></path><path stroke-width="2" d="M 945 346 L 945.000000 15.000000" /><path stroke-width="2" d="M 945 346 L 945.000000 15.000000"></path><path stroke-width="2" d="M 945 346 L 950 346" /><path stroke-width="2" d="M 945 346 L 950 346"></path><text xmlns="http://www.w3.org/2000/svg" x="955" y="352">0</text><path d="M 945 308 L 950 308" stroke-width="2" /><path stroke-width="2" d="M 945 308 L 950 308"></path><text xmlns="http://www.w3.org/2000/svg" x="955" y="314">64</text><path stroke-width="2" d="M 945 272 L 950 272" /><path stroke-width="2" d="M 945 272 L 950 272"></path><text xmlns="http://www.w3.org/2000/svg" x="955" y="278">127</text><path stroke-width="2" d="M 945 236 L 950 236" /><path stroke-width="2" d="M 945 236 L 950 236"></path><text xmlns="http://www.w3.org/2000/svg" x="955" y="242">190</text><path stroke-width="2" d="M 945 198 L 950 198" /><path stroke-width="2" d="M 945 198 L 950 198"></path><text xmlns="http://www.w3.org/2000/svg" x="955" y="204">254</text><path d="M 945 162 L 950 162" stroke-width="2" /><path stroke-width="2" d="M 945 162 L 950 162"></path><text xmlns="http://www.w3.org/2000/svg" x="955" y="168">317</text><path stroke-width="2" d="M 945 126 L 950 126" /><path stroke-width="2" d="M 945 126 L 950 126"></path><text xmlns="http://www.w3.org/2000/svg" x="955" y="132">380</text><path stroke-width="2" d="M 945 88 L 950 88" /><path stroke-width="2" d="M 945 88 L 950 88"></path><text xmlns="http://www.w3.org/2000/svg" x="955" y="94">444</text><path stroke-width="2" d="M 945 52 L 950 52" /><path stroke-width="2" d="M 945 52 L 950 52"></path><text y="58" xmlns="http://www.w3.org/2000/svg" x="955">507</text><path stroke-width="2" d="M 945 16 L 950 16" /><path d="M 945 16 L 950 16" stroke-width="2"></path><text y="22" xmlns="http://www.w3.org/2000/svg" x="955">570</text><text xmlns="http://www.w3.org/2000/svg" x="987" y="175" transform="rotate(90.00,987,175)">Stargazers</text><path stroke-width="2" d="M 57.000000 346.000000 L 945 346" /><path stroke-width="2" d="M 57.000000 346.000000 L 945 346"></path><path stroke-width="2" d="M 58 346 L 58 351" /><path stroke-width="2" d="M 58 346 L 58 351"></path><text xmlns="http://www.w3.org/2000/svg" x="25" y="368">2023-04-02</text><path stroke-width="2" d="M 157 346 L 157 351" /><path stroke-width="2" d="M 157 346 L 157 351"></path><text xmlns="http://www.w3.org/2000/svg" x="124" y="368">2023-05-28</text><path stroke-width="2" d="M 256 346 L 256 351" /><path stroke-width="2" d="M 256 346 L 256 351"></path><text xmlns="http://www.w3.org/2000/svg" x="223" y="368">2023-07-24</text><path stroke-width="2" d="M 354 346 L 354 351" /><path stroke-width="2" d="M 354 346 L 354 351"></path><text xmlns="http://www.w3.org/2000/svg" x="321" y="368">2023-09-19</text><path d="M 453 346 L 453 351" stroke-width="2" /><path stroke-width="2" d="M 453 346 L 453 351"></path><text xmlns="http://www.w3.org/2000/svg" x="420" y="368">2023-11-14</text><path d="M 551 346 L 551 351" stroke-width="2" /><path stroke-width="2" d="M 551 346 L 551 351"></path><text xmlns="http://www.w3.org/2000/svg" x="518" y="368">2024-01-10</text><path stroke-width="2" d="M 650 346 L 650 351" /><path stroke-width="2" d="M 650 346 L 650 351"></path><text xmlns="http://www.w3.org/2000/svg" x="617" y="368">2024-03-06</text><path stroke-width="2" d="M 748 346 L 748 351" /><path stroke-width="2" d="M 748 346 L 748 351"></path><text x="715" y="368" xmlns="http://www.w3.org/2000/svg">2024-05-02</text><path stroke-width="2" d="M 847 346 L 847 351" /><path stroke-width="2" d="M 847 346 L 847 351"></path><text y="368" xmlns="http://www.w3.org/2000/svg" x="814">2024-06-28</text><path stroke-width="2" d="M 945 346 L 945 351" /><path stroke-width="2" d="M 945 346 L 945 351"></path><text xmlns="http://www.w3.org/2000/svg" x="912" y="368">2024-08-23</text><text xmlns="http://www.w3.org/2000/svg" x="487" y="390">Time</text></svg>