<svg xmlns="http://www.w3.org/2000/svg" xmlns:xlink="http://www.w3.org/1999/xlink" width="1024px" height="400px"><style type="text/css">
path { fill: none; stroke: rgb(51,51,51); }
path.series { stroke: #6b63ff; }
rect.background { fill: rgb(255,255,255); stroke: none; }

text {
	stroke-width: 0;
	stroke: none;
	fill: rgba(51,51,51,1.0);
	font-size: 12.8px;
	font-family: 'Roboto Medium', sans-serif;
}
</style><rect x="0" y="0" width="1024px" height="400px" class="background" rx="8" /><rect x="0" y="0" width="1024px" height="400px" class="background" rx="8"></rect><path stroke-width="2" class="series" d="M 58 345 L 64 344 L 101 343 L 102 342 L 102 341 L 102 340 L 102 339 L 102 339 L 102 338 L 102 337 L 103 336 L 103 335 L 103 334 L 103 333 L 103 332 L 103 332 L 104 331 L 104 330 L 104 329 L 104 328 L 106 327 L 108 326 L 108 326 L 110 325 L 112 324 L 112 323 L 112 322 L 114 321 L 116 320 L 120 319 L 120 319 L 123 318 L 126 317 L 137 316 L 137 315 L 137 314 L 138 313 L 138 313 L 138 312 L 138 311 L 144 310 L 148 309 L 149 308 L 155 307 L 164 306 L 168 306 L 184 305 L 190 304 L 198 303 L 208 302 L 212 301 L 246 300 L 248 299 L 248 299 L 253 298 L 254 297 L 254 296 L 254 295 L 254 294 L 254 293 L 254 293 L 254 292 L 254 291 L 254 290 L 254 289 L 254 288 L 255 287 L 256 286 L 256 286 L 256 285 L 256 284 L 256 283 L 256 282 L 256 281 L 256 280 L 256 280 L 256 279 L 256 278 L 256 277 L 256 276 L 256 275 L 256 274 L 256 273 L 256 273 L 256 272 L 256 271 L 256 270 L 256 269 L 256 268 L 256 267 L 256 266 L 256 266 L 256 265 L 256 264 L 256 263 L 256 262 L 257 261 L 257 260 L 257 260 L 257 259 L 257 258 L 257 257 L 258 256 L 259 255 L 259 254 L 259 253 L 260 253 L 260 252 L 262 251 L 262 250 L 262 249 L 262 248 L 262 247 L 262 247 L 262 246 L 262 245 L 262 244 L 262 243 L 262 242 L 262 241 L 262 240 L 262 240 L 262 239 L 262 238 L 263 237 L 263 236 L 266 235 L 266 234 L 266 233 L 266 233 L 274 232 L 275 231 L 275 230 L 278 229 L 278 228 L 283 227 L 289 227 L 291 226 L 296 225 L 298 224 L 301 223 L 302 222 L 303 221 L 309 220 L 309 220 L 311 219 L 314 218 L 315 217 L 317 216 L 318 215 L 318 214 L 319 214 L 322 213 L 324 212 L 324 211 L 326 210 L 327 209 L 327 208 L 329 207 L 333 207 L 336 206 L 341 205 L 343 204 L 345 203 L 347 202 L 347 201 L 348 200 L 351 200 L 366 199 L 367 198 L 369 197 L 383 196 L 384 195 L 384 194 L 384 194 L 385 193 L 387 192 L 391 191 L 394 190 L 394 189 L 411 188 L 415 187 L 419 187 L 424 186 L 428 185 L 428 184 L 430 183 L 442 182 L 455 181 L 471 181 L 472 180 L 472 179 L 473 178 L 474 177 L 477 176 L 497 175 L 507 174 L 507 174 L 515 173 L 517 172 L 518 171 L 541 170 L 541 169 L 542 168 L 543 167 L 546 167 L 552 166 L 555 165 L 560 164 L 563 163 L 568 162 L 580 161 L 581 161 L 583 160 L 584 159 L 584 158 L 585 157 L 592 156 L 592 155 L 605 154 L 623 154 L 633 153 L 643 152 L 644 151 L 649 150 L 650 149 L 653 148 L 656 148 L 656 147 L 656 146 L 656 145 L 656 144 L 656 143 L 656 142 L 657 141 L 657 141 L 657 140 L 657 139 L 657 138 L 658 137 L 658 136 L 659 135 L 661 134 L 663 134 L 665 133 L 665 132 L 665 131 L 665 130 L 669 129 L 669 128 L 669 128 L 669 127 L 669 126 L 669 125 L 669 124 L 671 123 L 672 122 L 673 121 L 674 121 L 674 120 L 674 119 L 675 118 L 675 117 L 677 116 L 677 115 L 678 115 L 678 114 L 680 113 L 681 112 L 681 111 L 683 110 L 686 109 L 687 108 L 691 108 L 696 107 L 696 106 L 698 105 L 699 104 L 699 103 L 699 102 L 699 101 L 703 101 L 704 100 L 708 99 L 709 98 L 710 97 L 715 96 L 718 95 L 718 95 L 724 94 L 725 93 L 726 92 L 729 91 L 729 90 L 739 89 L 741 88 L 742 88 L 750 87 L 754 86 L 763 85 L 765 84 L 766 83 L 768 82 L 769 82 L 769 81 L 776 80 L 781 79 L 785 78 L 785 77 L 788 76 L 791 75 L 791 75 L 791 74 L 791 73 L 793 72 L 793 71 L 794 70 L 796 69 L 796 68 L 797 68 L 799 67 L 809 66 L 821 65 L 821 64 L 821 63 L 829 62 L 834 62 L 835 61 L 836 60 L 839 59 L 842 58 L 842 57 L 842 56 L 842 55 L 842 55 L 843 54 L 843 53 L 844 52 L 844 51 L 846 50 L 852 49 L 852 49 L 852 48 L 852 47 L 853 46 L 853 45 L 854 44 L 854 43 L 854 42 L 854 42 L 854 41 L 855 40 L 858 39 L 864 38 L 870 37 L 870 36 L 872 35 L 883 35 L 897 34 L 900 33 L 907 32 L 913 31 L 928 30 L 933 29 L 938 29 L 939 28 L 939 27 L 939 26 L 940 25 L 940 24 L 940 23 L 940 22 L 943 22 L 945 21" /><path stroke-width="2" class="series" d="M 58 345 L 64 344 L 101 343 L 102 342 L 102 341 L 102 340 L 102 339 L 102 339 L 102 338 L 102 337 L 103 336 L 103 335 L 103 334 L 103 333 L 103 332 L 103 332 L 104 331 L 104 330 L 104 329 L 104 328 L 106 327 L 108 326 L 108 326 L 110 325 L 112 324 L 112 323 L 112 322 L 114 321 L 116 320 L 120 319 L 120 319 L 123 318 L 126 317 L 137 316 L 137 315 L 137 314 L 138 313 L 138 313 L 138 312 L 138 311 L 144 310 L 148 309 L 149 308 L 155 307 L 164 306 L 168 306 L 184 305 L 190 304 L 198 303 L 208 302 L 212 301 L 246 300 L 248 299 L 248 299 L 253 298 L 254 297 L 254 296 L 254 295 L 254 294 L 254 293 L 254 293 L 254 292 L 254 291 L 254 290 L 254 289 L 254 288 L 255 287 L 256 286 L 256 286 L 256 285 L 256 284 L 256 283 L 256 282 L 256 281 L 256 280 L 256 280 L 256 279 L 256 278 L 256 277 L 256 276 L 256 275 L 256 274 L 256 273 L 256 273 L 256 272 L 256 271 L 256 270 L 256 269 L 256 268 L 256 267 L 256 266 L 256 266 L 256 265 L 256 264 L 256 263 L 256 262 L 257 261 L 257 260 L 257 260 L 257 259 L 257 258 L 257 257 L 258 256 L 259 255 L 259 254 L 259 253 L 260 253 L 260 252 L 262 251 L 262 250 L 262 249 L 262 248 L 262 247 L 262 247 L 262 246 L 262 245 L 262 244 L 262 243 L 262 242 L 262 241 L 262 240 L 262 240 L 262 239 L 262 238 L 263 237 L 263 236 L 266 235 L 266 234 L 266 233 L 266 233 L 274 232 L 275 231 L 275 230 L 278 229 L 278 228 L 283 227 L 289 227 L 291 226 L 296 225 L 298 224 L 301 223 L 302 222 L 303 221 L 309 220 L 309 220 L 311 219 L 314 218 L 315 217 L 317 216 L 318 215 L 318 214 L 319 214 L 322 213 L 324 212 L 324 211 L 326 210 L 327 209 L 327 208 L 329 207 L 333 207 L 336 206 L 341 205 L 343 204 L 345 203 L 347 202 L 347 201 L 348 200 L 351 200 L 366 199 L 367 198 L 369 197 L 383 196 L 384 195 L 384 194 L 384 194 L 385 193 L 387 192 L 391 191 L 394 190 L 394 189 L 411 188 L 415 187 L 419 187 L 424 186 L 428 185 L 428 184 L 430 183 L 442 182 L 455 181 L 471 181 L 472 180 L 472 179 L 473 178 L 474 177 L 477 176 L 497 175 L 507 174 L 507 174 L 515 173 L 517 172 L 518 171 L 541 170 L 541 169 L 542 168 L 543 167 L 546 167 L 552 166 L 555 165 L 560 164 L 563 163 L 568 162 L 580 161 L 581 161 L 583 160 L 584 159 L 584 158 L 585 157 L 592 156 L 592 155 L 605 154 L 623 154 L 633 153 L 643 152 L 644 151 L 649 150 L 650 149 L 653 148 L 656 148 L 656 147 L 656 146 L 656 145 L 656 144 L 656 143 L 656 142 L 657 141 L 657 141 L 657 140 L 657 139 L 657 138 L 658 137 L 658 136 L 659 135 L 661 134 L 663 134 L 665 133 L 665 132 L 665 131 L 665 130 L 669 129 L 669 128 L 669 128 L 669 127 L 669 126 L 669 125 L 669 124 L 671 123 L 672 122 L 673 121 L 674 121 L 674 120 L 674 119 L 675 118 L 675 117 L 677 116 L 677 115 L 678 115 L 678 114 L 680 113 L 681 112 L 681 111 L 683 110 L 686 109 L 687 108 L 691 108 L 696 107 L 696 106 L 698 105 L 699 104 L 699 103 L 699 102 L 699 101 L 703 101 L 704 100 L 708 99 L 709 98 L 710 97 L 715 96 L 718 95 L 718 95 L 724 94 L 725 93 L 726 92 L 729 91 L 729 90 L 739 89 L 741 88 L 742 88 L 750 87 L 754 86 L 763 85 L 765 84 L 766 83 L 768 82 L 769 82 L 769 81 L 776 80 L 781 79 L 785 78 L 785 77 L 788 76 L 791 75 L 791 75 L 791 74 L 791 73 L 793 72 L 793 71 L 794 70 L 796 69 L 796 68 L 797 68 L 799 67 L 809 66 L 821 65 L 821 64 L 821 63 L 829 62 L 834 62 L 835 61 L 836 60 L 839 59 L 842 58 L 842 57 L 842 56 L 842 55 L 842 55 L 843 54 L 843 53 L 844 52 L 844 51 L 846 50 L 852 49 L 852 49 L 852 48 L 852 47 L 853 46 L 853 45 L 854 44 L 854 43 L 854 42 L 854 42 L 854 41 L 855 40 L 858 39 L 864 38 L 870 37 L 870 36 L 872 35 L 883 35 L 897 34 L 900 33 L 907 32 L 913 31 L 928 30 L 933 29 L 938 29 L 939 28 L 939 27 L 939 26 L 940 25 L 940 24 L 940 23 L 940 22 L 943 22 L 945 21"></path><path d="M 945 346 L 945.000000 15.000000" stroke-width="2" /><path stroke-width="2" d="M 945 346 L 945.000000 15.000000"></path><path stroke-width="2" d="M 945 346 L 950 346" /><path stroke-width="2" d="M 945 346 L 950 346"></path><text xmlns="http://www.w3.org/2000/svg" x="955" y="352">0</text><path stroke-width="2" d="M 945 308 L 950 308" /><path stroke-width="2" d="M 945 308 L 950 308"></path><text xmlns="http://www.w3.org/2000/svg" x="955" y="314">43</text><path stroke-width="2" d="M 945 272 L 950 272" /><path stroke-width="2" d="M 945 272 L 950 272"></path><text xmlns="http://www.w3.org/2000/svg" x="955" y="278">85</text><path stroke-width="2" d="M 945 235 L 950 235" /><path stroke-width="2" d="M 945 235 L 950 235"></path><text xmlns="http://www.w3.org/2000/svg" x="955" y="241">127</text><path stroke-width="2" d="M 945 199 L 950 199" /><path stroke-width="2" d="M 945 199 L 950 199"></path><text x="955" y="205" xmlns="http://www.w3.org/2000/svg">169</text><path stroke-width="2" d="M 945 161 L 950 161" /><path stroke-width="2" d="M 945 161 L 950 161"></path><text y="167" xmlns="http://www.w3.org/2000/svg" x="955">212</text><path stroke-width="2" d="M 945 125 L 950 125" /><path stroke-width="2" d="M 945 125 L 950 125"></path><text xmlns="http://www.w3.org/2000/svg" x="955" y="131">254</text><path stroke-width="2" d="M 945 88 L 950 88" /><path stroke-width="2" d="M 945 88 L 950 88"></path><text y="94" xmlns="http://www.w3.org/2000/svg" x="955">296</text><path stroke-width="2" d="M 945 52 L 950 52" /><path stroke-width="2" d="M 945 52 L 950 52"></path><text xmlns="http://www.w3.org/2000/svg" x="955" y="58">338</text><path stroke-width="2" d="M 945 16 L 950 16" /><path stroke-width="2" d="M 945 16 L 950 16"></path><text xmlns="http://www.w3.org/2000/svg" x="955" y="22">380</text><text xmlns="http://www.w3.org/2000/svg" x="987" y="175" transform="rotate(90.00,987,175)">Stargazers</text><path stroke-width="2" d="M 57.000000 346.000000 L 945 346" /><path stroke-width="2" d="M 57.000000 346.000000 L 945 346"></path><path stroke-width="2" d="M 58 346 L 58 351" /><path stroke-width="2" d="M 58 346 L 58 351"></path><text xmlns="http://www.w3.org/2000/svg" x="25" y="368">2023-04-02</text><path stroke-width="2" d="M 157 346 L 157 351" /><path d="M 157 346 L 157 351" stroke-width="2"></path><text y="368" xmlns="http://www.w3.org/2000/svg" x="124">2023-05-04</text><path stroke-width="2" d="M 256 346 L 256 351" /><path stroke-width="2" d="M 256 346 L 256 351"></path><text x="223" y="368" xmlns="http://www.w3.org/2000/svg">2023-06-06</text><path d="M 354 346 L 354 351" stroke-width="2" /><path stroke-width="2" d="M 354 346 L 354 351"></path><text xmlns="http://www.w3.org/2000/svg" x="321" y="368">2023-07-08</text><path stroke-width="2" d="M 453 346 L 453 351" /><path stroke-width="2" d="M 453 346 L 453 351"></path><text xmlns="http://www.w3.org/2000/svg" x="420" y="368">2023-08-09</text><path stroke-width="2" d="M 551 346 L 551 351" /><path stroke-width="2" d="M 551 346 L 551 351"></path><text xmlns="http://www.w3.org/2000/svg" x="518" y="368">2023-09-10</text><path stroke-width="2" d="M 650 346 L 650 351" /><path stroke-width="2" d="M 650 346 L 650 351"></path><text x="617" y="368" xmlns="http://www.w3.org/2000/svg">2023-10-13</text><path stroke-width="2" d="M 748 346 L 748 351" /><path stroke-width="2" d="M 748 346 L 748 351"></path><text y="368" xmlns="http://www.w3.org/2000/svg" x="715">2023-11-14</text><path stroke-width="2" d="M 847 346 L 847 351" /><path stroke-width="2" d="M 847 346 L 847 351"></path><text y="368" xmlns="http://www.w3.org/2000/svg" x="814">2023-12-16</text><path stroke-width="2" d="M 945 346 L 945 351" /><path stroke-width="2" d="M 945 346 L 945 351"></path><text x="912" y="368" xmlns="http://www.w3.org/2000/svg">2024-01-18</text><text xmlns="http://www.w3.org/2000/svg" x="487" y="390">Time</text></svg>