<svg width="1024px" height="400px" xmlns="http://www.w3.org/2000/svg" xmlns:xlink="http://www.w3.org/1999/xlink"><style type="text/css">
path { fill: none; stroke: rgb(51,51,51); }
path.series { stroke: #6b63ff; }
rect.background { fill: rgb(255,255,255); stroke: none; }

text {
	stroke-width: 0;
	stroke: none;
	fill: rgba(51,51,51,1.0);
	font-size: 12.8px;
	font-family: 'Roboto Medium', sans-serif;
}
</style><rect y="0" width="1024px" height="400px" class="background" rx="8" x="0" /><rect height="400px" class="background" rx="8" x="0" y="0" width="1024px"></rect><path stroke-width="2" class="series" d="M 58 345 L 62 344 L 89 343 L 89 343 L 89 342 L 89 341 L 89 340 L 89 340 L 89 339 L 89 338 L 90 337 L 90 337 L 90 336 L 90 335 L 90 334 L 91 334 L 91 333 L 91 332 L 91 331 L 93 331 L 93 330 L 93 329 L 95 328 L 97 328 L 97 327 L 97 326 L 98 325 L 99 325 L 102 324 L 102 323 L 104 322 L 106 322 L 114 321 L 114 320 L 115 319 L 115 319 L 115 318 L 115 317 L 120 316 L 122 316 L 123 315 L 127 314 L 134 313 L 136 313 L 148 312 L 152 311 L 158 310 L 164 310 L 167 309 L 192 308 L 193 307 L 193 307 L 196 306 L 197 305 L 197 304 L 197 304 L 197 303 L 197 302 L 197 301 L 197 301 L 197 300 L 197 299 L 198 298 L 198 298 L 198 297 L 198 296 L 198 295 L 198 295 L 198 294 L 198 293 L 198 292 L 199 292 L 199 291 L 199 290 L 199 289 L 199 289 L 199 288 L 199 287 L 199 286 L 199 286 L 199 285 L 199 284 L 199 283 L 199 283 L 199 282 L 199 281 L 199 280 L 199 280 L 199 279 L 199 278 L 199 277 L 199 277 L 199 276 L 199 275 L 199 274 L 199 274 L 199 273 L 199 272 L 200 271 L 200 271 L 200 270 L 201 269 L 201 268 L 201 268 L 201 267 L 202 266 L 203 265 L 203 265 L 203 264 L 203 263 L 203 262 L 203 262 L 203 261 L 203 260 L 203 259 L 203 259 L 203 258 L 203 257 L 203 256 L 203 256 L 203 255 L 203 254 L 203 253 L 204 253 L 205 252 L 206 251 L 206 250 L 206 250 L 212 249 L 212 248 L 212 247 L 214 247 L 214 246 L 218 245 L 222 244 L 223 244 L 227 243 L 228 242 L 231 241 L 232 241 L 232 240 L 236 239 L 237 238 L 238 238 L 240 237 L 241 236 L 242 235 L 242 235 L 243 234 L 243 233 L 245 232 L 247 232 L 247 231 L 248 230 L 249 229 L 249 229 L 250 228 L 253 227 L 255 226 L 259 226 L 260 225 L 262 224 L 263 223 L 263 223 L 264 222 L 266 221 L 277 220 L 277 220 L 279 219 L 289 218 L 289 217 L 289 217 L 290 216 L 290 215 L 292 214 L 295 214 L 297 213 L 297 212 L 309 211 L 311 211 L 314 210 L 318 209 L 321 208 L 321 208 L 322 207 L 331 206 L 340 205 L 351 205 L 352 204 L 352 203 L 353 202 L 353 202 L 356 201 L 370 200 L 377 199 L 377 199 L 383 198 L 384 197 L 385 196 L 401 196 L 401 195 L 402 194 L 403 193 L 405 193 L 409 192 L 411 191 L 414 190 L 416 190 L 420 189 L 429 188 L 429 187 L 431 187 L 431 186 L 432 185 L 432 184 L 437 184 L 446 183 L 466 182 L 474 181 L 474 181 L 478 180 L 478 179 L 481 178 L 483 178 L 483 177 L 483 176 L 483 175 L 483 175 L 483 174 L 483 173 L 483 172 L 483 172 L 483 171 L 484 170 L 484 169 L 484 169 L 484 168 L 485 167 L 486 166 L 488 166 L 489 165 L 489 164 L 489 163 L 489 163 L 492 162 L 492 161 L 492 160 L 492 160 L 492 159 L 492 158 L 492 157 L 493 157 L 495 156 L 495 155 L 496 154 L 496 154 L 496 153 L 496 152 L 498 151 L 498 151 L 498 150 L 498 149 L 500 148 L 500 148 L 501 147 L 502 146 L 504 145 L 505 145 L 508 144 L 511 143 L 511 142 L 513 142 L 513 141 L 513 140 L 513 139 L 513 139 L 516 138 L 517 137 L 520 136 L 520 136 L 521 135 L 524 134 L 527 133 L 527 132 L 531 132 L 532 131 L 533 130 L 534 130 L 534 129 L 542 128 L 543 127 L 544 126 L 550 126 L 553 125 L 559 124 L 560 124 L 561 123 L 562 122 L 563 121 L 563 121 L 568 120 L 571 119 L 574 118 L 574 118 L 576 117 L 578 116 L 579 115 L 579 115 L 579 114 L 580 113 L 580 112 L 580 112 L 582 111 L 582 110 L 582 109 L 584 109 L 591 108 L 600 107 L 600 106 L 600 106 L 606 105 L 609 104 L 610 103 L 611 103 L 613 102 L 615 101 L 615 100 L 615 100 L 615 99 L 615 98 L 615 97 L 615 97 L 616 96 L 616 95 L 618 94 L 622 94 L 622 93 L 622 92 L 622 91 L 622 91 L 623 90 L 623 89 L 623 88 L 623 88 L 623 87 L 623 86 L 623 85 L 624 85 L 630 84 L 634 83 L 634 82 L 636 82 L 644 81 L 654 80 L 656 79 L 661 79 L 665 78 L 676 77 L 679 76 L 683 76 L 684 75 L 684 74 L 684 73 L 684 73 L 684 72 L 684 71 L 684 70 L 687 70 L 688 69 L 702 68 L 705 67 L 710 67 L 721 66 L 728 65 L 734 64 L 738 64 L 746 63 L 746 62 L 761 61 L 777 61 L 777 60 L 788 59 L 789 58 L 797 58 L 799 57 L 804 56 L 804 55 L 805 55 L 805 54 L 810 53 L 812 52 L 816 52 L 823 51 L 824 50 L 826 49 L 826 49 L 832 48 L 838 47 L 838 46 L 845 46 L 852 45 L 853 44 L 853 43 L 856 43 L 857 42 L 859 41 L 864 40 L 869 40 L 873 39 L 874 38 L 877 37 L 877 37 L 886 36 L 887 35 L 892 34 L 899 34 L 899 33 L 908 32 L 909 31 L 909 31 L 911 30 L 912 29 L 916 28 L 916 28 L 920 27 L 925 26 L 926 25 L 927 25 L 927 24 L 940 23 L 940 22 L 941 22 L 942 21 L 942 20 L 944 19 L 944 19 L 945 18 L 945 17" /><path stroke-width="2" class="series" d="M 58 345 L 62 344 L 89 343 L 89 343 L 89 342 L 89 341 L 89 340 L 89 340 L 89 339 L 89 338 L 90 337 L 90 337 L 90 336 L 90 335 L 90 334 L 91 334 L 91 333 L 91 332 L 91 331 L 93 331 L 93 330 L 93 329 L 95 328 L 97 328 L 97 327 L 97 326 L 98 325 L 99 325 L 102 324 L 102 323 L 104 322 L 106 322 L 114 321 L 114 320 L 115 319 L 115 319 L 115 318 L 115 317 L 120 316 L 122 316 L 123 315 L 127 314 L 134 313 L 136 313 L 148 312 L 152 311 L 158 310 L 164 310 L 167 309 L 192 308 L 193 307 L 193 307 L 196 306 L 197 305 L 197 304 L 197 304 L 197 303 L 197 302 L 197 301 L 197 301 L 197 300 L 197 299 L 198 298 L 198 298 L 198 297 L 198 296 L 198 295 L 198 295 L 198 294 L 198 293 L 198 292 L 199 292 L 199 291 L 199 290 L 199 289 L 199 289 L 199 288 L 199 287 L 199 286 L 199 286 L 199 285 L 199 284 L 199 283 L 199 283 L 199 282 L 199 281 L 199 280 L 199 280 L 199 279 L 199 278 L 199 277 L 199 277 L 199 276 L 199 275 L 199 274 L 199 274 L 199 273 L 199 272 L 200 271 L 200 271 L 200 270 L 201 269 L 201 268 L 201 268 L 201 267 L 202 266 L 203 265 L 203 265 L 203 264 L 203 263 L 203 262 L 203 262 L 203 261 L 203 260 L 203 259 L 203 259 L 203 258 L 203 257 L 203 256 L 203 256 L 203 255 L 203 254 L 203 253 L 204 253 L 205 252 L 206 251 L 206 250 L 206 250 L 212 249 L 212 248 L 212 247 L 214 247 L 214 246 L 218 245 L 222 244 L 223 244 L 227 243 L 228 242 L 231 241 L 232 241 L 232 240 L 236 239 L 237 238 L 238 238 L 240 237 L 241 236 L 242 235 L 242 235 L 243 234 L 243 233 L 245 232 L 247 232 L 247 231 L 248 230 L 249 229 L 249 229 L 250 228 L 253 227 L 255 226 L 259 226 L 260 225 L 262 224 L 263 223 L 263 223 L 264 222 L 266 221 L 277 220 L 277 220 L 279 219 L 289 218 L 289 217 L 289 217 L 290 216 L 290 215 L 292 214 L 295 214 L 297 213 L 297 212 L 309 211 L 311 211 L 314 210 L 318 209 L 321 208 L 321 208 L 322 207 L 331 206 L 340 205 L 351 205 L 352 204 L 352 203 L 353 202 L 353 202 L 356 201 L 370 200 L 377 199 L 377 199 L 383 198 L 384 197 L 385 196 L 401 196 L 401 195 L 402 194 L 403 193 L 405 193 L 409 192 L 411 191 L 414 190 L 416 190 L 420 189 L 429 188 L 429 187 L 431 187 L 431 186 L 432 185 L 432 184 L 437 184 L 446 183 L 466 182 L 474 181 L 474 181 L 478 180 L 478 179 L 481 178 L 483 178 L 483 177 L 483 176 L 483 175 L 483 175 L 483 174 L 483 173 L 483 172 L 483 172 L 483 171 L 484 170 L 484 169 L 484 169 L 484 168 L 485 167 L 486 166 L 488 166 L 489 165 L 489 164 L 489 163 L 489 163 L 492 162 L 492 161 L 492 160 L 492 160 L 492 159 L 492 158 L 492 157 L 493 157 L 495 156 L 495 155 L 496 154 L 496 154 L 496 153 L 496 152 L 498 151 L 498 151 L 498 150 L 498 149 L 500 148 L 500 148 L 501 147 L 502 146 L 504 145 L 505 145 L 508 144 L 511 143 L 511 142 L 513 142 L 513 141 L 513 140 L 513 139 L 513 139 L 516 138 L 517 137 L 520 136 L 520 136 L 521 135 L 524 134 L 527 133 L 527 132 L 531 132 L 532 131 L 533 130 L 534 130 L 534 129 L 542 128 L 543 127 L 544 126 L 550 126 L 553 125 L 559 124 L 560 124 L 561 123 L 562 122 L 563 121 L 563 121 L 568 120 L 571 119 L 574 118 L 574 118 L 576 117 L 578 116 L 579 115 L 579 115 L 579 114 L 580 113 L 580 112 L 580 112 L 582 111 L 582 110 L 582 109 L 584 109 L 591 108 L 600 107 L 600 106 L 600 106 L 606 105 L 609 104 L 610 103 L 611 103 L 613 102 L 615 101 L 615 100 L 615 100 L 615 99 L 615 98 L 615 97 L 615 97 L 616 96 L 616 95 L 618 94 L 622 94 L 622 93 L 622 92 L 622 91 L 622 91 L 623 90 L 623 89 L 623 88 L 623 88 L 623 87 L 623 86 L 623 85 L 624 85 L 630 84 L 634 83 L 634 82 L 636 82 L 644 81 L 654 80 L 656 79 L 661 79 L 665 78 L 676 77 L 679 76 L 683 76 L 684 75 L 684 74 L 684 73 L 684 73 L 684 72 L 684 71 L 684 70 L 687 70 L 688 69 L 702 68 L 705 67 L 710 67 L 721 66 L 728 65 L 734 64 L 738 64 L 746 63 L 746 62 L 761 61 L 777 61 L 777 60 L 788 59 L 789 58 L 797 58 L 799 57 L 804 56 L 804 55 L 805 55 L 805 54 L 810 53 L 812 52 L 816 52 L 823 51 L 824 50 L 826 49 L 826 49 L 832 48 L 838 47 L 838 46 L 845 46 L 852 45 L 853 44 L 853 43 L 856 43 L 857 42 L 859 41 L 864 40 L 869 40 L 873 39 L 874 38 L 877 37 L 877 37 L 886 36 L 887 35 L 892 34 L 899 34 L 899 33 L 908 32 L 909 31 L 909 31 L 911 30 L 912 29 L 916 28 L 916 28 L 920 27 L 925 26 L 926 25 L 927 25 L 927 24 L 940 23 L 940 22 L 941 22 L 942 21 L 942 20 L 944 19 L 944 19 L 945 18 L 945 17"></path><path stroke-width="2" d="M 945 346 L 945.000000 15.000000" /><path stroke-width="2" d="M 945 346 L 945.000000 15.000000"></path><path stroke-width="2" d="M 945 346 L 950 346" /><path stroke-width="2" d="M 945 346 L 950 346"></path><text xmlns="http://www.w3.org/2000/svg" x="955" y="352">0</text><path stroke-width="2" d="M 945 309 L 950 309" /><path stroke-width="2" d="M 945 309 L 950 309"></path><text xmlns="http://www.w3.org/2000/svg" x="955" y="315">49</text><path stroke-width="2" d="M 945 272 L 950 272" /><path stroke-width="2" d="M 945 272 L 950 272"></path><text xmlns="http://www.w3.org/2000/svg" x="955" y="278">98</text><path stroke-width="2" d="M 945 235 L 950 235" /><path stroke-width="2" d="M 945 235 L 950 235"></path><text y="241" xmlns="http://www.w3.org/2000/svg" x="955">147</text><path stroke-width="2" d="M 945 199 L 950 199" /><path stroke-width="2" d="M 945 199 L 950 199"></path><text xmlns="http://www.w3.org/2000/svg" x="955" y="205">196</text><path stroke-width="2" d="M 945 162 L 950 162" /><path stroke-width="2" d="M 945 162 L 950 162"></path><text xmlns="http://www.w3.org/2000/svg" x="955" y="168">245</text><path stroke-width="2" d="M 945 125 L 950 125" /><path stroke-width="2" d="M 945 125 L 950 125"></path><text xmlns="http://www.w3.org/2000/svg" x="955" y="131">294</text><path d="M 945 88 L 950 88" stroke-width="2" /><path stroke-width="2" d="M 945 88 L 950 88"></path><text xmlns="http://www.w3.org/2000/svg" x="955" y="94">343</text><path stroke-width="2" d="M 945 52 L 950 52" /><path stroke-width="2" d="M 945 52 L 950 52"></path><text xmlns="http://www.w3.org/2000/svg" x="955" y="58">392</text><path d="M 945 16 L 950 16" stroke-width="2" /><path stroke-width="2" d="M 945 16 L 950 16"></path><text xmlns="http://www.w3.org/2000/svg" x="955" y="22">440</text><text x="987" y="175" transform="rotate(90.00,987,175)" xmlns="http://www.w3.org/2000/svg">Stargazers</text><path stroke-width="2" d="M 57.000000 346.000000 L 945 346" /><path stroke-width="2" d="M 57.000000 346.000000 L 945 346"></path><path stroke-width="2" d="M 58 346 L 58 351" /><path stroke-width="2" d="M 58 346 L 58 351"></path><text xmlns="http://www.w3.org/2000/svg" x="25" y="368">2023-04-02</text><path stroke-width="2" d="M 157 346 L 157 351" /><path stroke-width="2" d="M 157 346 L 157 351"></path><text x="124" y="368" xmlns="http://www.w3.org/2000/svg">2023-05-17</text><path d="M 256 346 L 256 351" stroke-width="2" /><path stroke-width="2" d="M 256 346 L 256 351"></path><text xmlns="http://www.w3.org/2000/svg" x="223" y="368">2023-07-02</text><path stroke-width="2" d="M 354 346 L 354 351" /><path stroke-width="2" d="M 354 346 L 354 351"></path><text xmlns="http://www.w3.org/2000/svg" x="321" y="368">2023-08-16</text><path stroke-width="2" d="M 453 346 L 453 351" /><path stroke-width="2" d="M 453 346 L 453 351"></path><text xmlns="http://www.w3.org/2000/svg" x="420" y="368">2023-10-01</text><path stroke-width="2" d="M 551 346 L 551 351" /><path stroke-width="2" d="M 551 346 L 551 351"></path><text xmlns="http://www.w3.org/2000/svg" x="518" y="368">2023-11-15</text><path stroke-width="2" d="M 650 346 L 650 351" /><path stroke-width="2" d="M 650 346 L 650 351"></path><text xmlns="http://www.w3.org/2000/svg" x="617" y="368">2023-12-31</text><path stroke-width="2" d="M 748 346 L 748 351" /><path stroke-width="2" d="M 748 346 L 748 351"></path><text x="715" y="368" xmlns="http://www.w3.org/2000/svg">2024-02-14</text><path d="M 847 346 L 847 351" stroke-width="2" /><path stroke-width="2" d="M 847 346 L 847 351"></path><text xmlns="http://www.w3.org/2000/svg" x="814" y="368">2024-03-31</text><path d="M 945 346 L 945 351" stroke-width="2" /><path stroke-width="2" d="M 945 346 L 945 351"></path><text xmlns="http://www.w3.org/2000/svg" x="912" y="368">2024-05-16</text><text xmlns="http://www.w3.org/2000/svg" x="487" y="390">Time</text></svg>