<svg xmlns="http://www.w3.org/2000/svg" xmlns:xlink="http://www.w3.org/1999/xlink" width="1024px" height="400px"><style type="text/css">
path { fill: none; stroke: rgb(51,51,51); }
path.series { stroke: #6b63ff; }
rect.background { fill: rgb(255,255,255); stroke: none; }

text {
	stroke-width: 0;
	stroke: none;
	fill: rgba(51,51,51,1.0);
	font-size: 12.8px;
	font-family: 'Roboto Medium', sans-serif;
}
</style><rect width="1024px" height="400px" class="background" rx="8" x="0" y="0" /><rect class="background" rx="8" x="0" y="0" width="1024px" height="400px"></rect><path stroke-width="2" class="series" d="M 58 345 L 60 345 L 72 345 L 73 344 L 73 344 L 73 344 L 73 343 L 73 343 L 73 343 L 73 343 L 73 342 L 73 342 L 73 342 L 73 341 L 73 341 L 73 341 L 73 340 L 73 340 L 73 340 L 74 340 L 74 339 L 74 339 L 75 339 L 76 338 L 76 338 L 76 338 L 76 337 L 77 337 L 78 337 L 79 337 L 79 336 L 80 336 L 84 336 L 84 335 L 84 335 L 84 335 L 84 334 L 86 334 L 87 334 L 88 334 L 90 333 L 93 333 L 94 333 L 99 332 L 101 332 L 104 332 L 107 331 L 108 331 L 120 331 L 120 331 L 121 330 L 122 330 L 122 330 L 122 329 L 122 329 L 122 329 L 122 328 L 122 328 L 122 328 L 122 328 L 122 327 L 122 327 L 122 327 L 122 326 L 122 326 L 122 326 L 122 325 L 122 325 L 122 325 L 122 325 L 122 324 L 122 324 L 122 324 L 122 323 L 122 323 L 122 323 L 122 322 L 122 322 L 122 322 L 122 322 L 122 321 L 123 321 L 123 321 L 123 320 L 123 320 L 123 320 L 123 319 L 123 319 L 123 319 L 123 319 L 123 318 L 123 318 L 123 318 L 123 317 L 123 317 L 123 317 L 123 316 L 123 316 L 123 316 L 123 316 L 123 315 L 123 315 L 124 315 L 124 314 L 124 314 L 124 314 L 124 313 L 124 313 L 124 313 L 124 313 L 124 312 L 124 312 L 124 312 L 124 311 L 124 311 L 124 311 L 124 310 L 124 310 L 124 310 L 124 310 L 125 309 L 125 309 L 126 309 L 126 308 L 126 308 L 126 308 L 128 307 L 129 307 L 129 307 L 130 307 L 130 306 L 131 306 L 133 306 L 134 305 L 135 305 L 136 305 L 137 304 L 137 304 L 138 304 L 140 304 L 140 303 L 140 303 L 141 303 L 142 302 L 142 302 L 142 302 L 142 301 L 143 301 L 144 301 L 145 301 L 145 300 L 145 300 L 145 300 L 145 299 L 146 299 L 147 299 L 148 298 L 150 298 L 151 298 L 151 298 L 152 297 L 152 297 L 152 297 L 153 296 L 158 296 L 158 296 L 159 295 L 164 295 L 164 295 L 164 295 L 164 294 L 164 294 L 165 294 L 166 293 L 167 293 L 167 293 L 173 292 L 174 292 L 175 292 L 177 292 L 178 291 L 178 291 L 179 291 L 183 290 L 187 290 L 192 290 L 192 289 L 192 289 L 193 289 L 193 289 L 201 288 L 204 288 L 204 288 L 206 287 L 207 287 L 207 287 L 215 286 L 215 286 L 215 286 L 215 286 L 216 285 L 218 285 L 219 285 L 221 284 L 222 284 L 223 284 L 227 283 L 228 283 L 228 283 L 228 283 L 229 282 L 229 282 L 231 282 L 235 281 L 244 281 L 248 281 L 250 280 L 250 280 L 252 280 L 252 280 L 252 279 L 252 279 L 252 279 L 252 278 L 252 278 L 252 278 L 252 277 L 252 277 L 252 277 L 252 277 L 252 276 L 253 276 L 253 276 L 255 275 L 255 275 L 255 275 L 255 274 L 256 274 L 256 274 L 256 274 L 256 273 L 256 273 L 256 273 L 256 272 L 257 272 L 257 272 L 258 271 L 258 271 L 258 271 L 258 271 L 258 270 L 259 270 L 259 270 L 259 269 L 260 269 L 260 269 L 260 268 L 261 268 L 262 268 L 262 268 L 263 267 L 265 267 L 265 267 L 266 266 L 266 266 L 266 266 L 266 265 L 266 265 L 267 265 L 268 265 L 269 264 L 269 264 L 270 264 L 271 263 L 272 263 L 272 263 L 274 262 L 274 262 L 275 262 L 275 262 L 275 261 L 279 261 L 280 261 L 280 260 L 282 260 L 284 260 L 287 259 L 287 259 L 288 259 L 288 259 L 289 258 L 289 258 L 291 258 L 292 257 L 294 257 L 294 257 L 296 256 L 296 256 L 296 256 L 296 256 L 296 255 L 296 255 L 297 255 L 297 254 L 297 254 L 297 254 L 298 253 L 301 253 L 305 253 L 305 253 L 305 252 L 308 252 L 309 252 L 310 251 L 310 251 L 311 251 L 312 250 L 312 250 L 312 250 L 312 250 L 312 249 L 312 249 L 313 249 L 313 248 L 313 248 L 313 248 L 315 247 L 315 247 L 315 247 L 316 247 L 316 246 L 316 246 L 316 246 L 316 245 L 316 245 L 316 245 L 316 244 L 316 244 L 316 244 L 319 244 L 321 243 L 321 243 L 322 243 L 330 242 L 331 242 L 333 242 L 335 241 L 342 241 L 343 241 L 344 241 L 344 240 L 344 240 L 344 240 L 344 239 L 344 239 L 345 239 L 346 238 L 352 238 L 354 238 L 356 238 L 360 237 L 364 237 L 367 237 L 368 236 L 372 236 L 372 236 L 379 235 L 386 235 L 386 235 L 391 235 L 391 234 L 395 234 L 396 234 L 398 233 L 398 233 L 399 233 L 399 232 L 401 232 L 402 232 L 404 232 L 407 231 L 408 231 L 408 231 L 409 230 L 411 230 L 414 230 L 414 229 L 417 229 L 420 229 L 421 229 L 421 228 L 422 228 L 423 228 L 424 227 L 426 227 L 428 227 L 430 226 L 432 226 L 432 226 L 436 226 L 436 225 L 438 225 L 442 225 L 442 224 L 446 224 L 446 224 L 446 223 L 448 223 L 448 223 L 450 223 L 450 222 L 451 222 L 454 222 L 454 221 L 454 221 L 455 221 L 461 220 L 461 220 L 461 220 L 461 220 L 462 219 L 462 219 L 462 219 L 463 218 L 463 218 L 464 218 L 465 217 L 466 217 L 466 217 L 467 217 L 467 216 L 468 216 L 468 216 L 468 215 L 468 215 L 468 215 L 469 214 L 469 214 L 469 214 L 470 214 L 470 213 L 471 213 L 471 213 L 472 212 L 472 212 L 473 212 L 474 211 L 475 211 L 475 211 L 475 211 L 476 210 L 477 210 L 477 210 L 478 209 L 478 209 L 480 209 L 480 208 L 480 208 L 480 208 L 480 208 L 480 207 L 480 207 L 481 207 L 481 206 L 482 206 L 484 206 L 485 205 L 486 205 L 486 205 L 488 205 L 489 204 L 490 204 L 491 204 L 493 203 L 495 203 L 497 203 L 498 202 L 498 202 L 498 202 L 498 202 L 499 201 L 499 201 L 499 201 L 500 200 L 500 200 L 500 200 L 500 199 L 501 199 L 502 199 L 502 199 L 503 198 L 503 198 L 505 198 L 505 197 L 505 197 L 506 197 L 507 196 L 509 196 L 514 196 L 514 196 L 514 195 L 514 195 L 516 195 L 517 194 L 518 194 L 518 194 L 518 193 L 518 193 L 519 193 L 522 193 L 522 192 L 522 192 L 522 192 L 524 191 L 524 191 L 524 191 L 525 190 L 527 190 L 529 190 L 530 190 L 533 189 L 533 189 L 533 189 L 536 188 L 537 188 L 539 188 L 541 187 L 542 187 L 543 187 L 543 187 L 543 186 L 543 186 L 543 186 L 543 185 L 544 185 L 544 185 L 545 184 L 545 184 L 545 184 L 545 184 L 546 183 L 547 183 L 547 183 L 551 182 L 551 182 L 555 182 L 557 181 L 557 181 L 558 181 L 559 181 L 561 180 L 561 180 L 561 180 L 562 179 L 562 179 L 562 179 L 562 178 L 562 178 L 563 178 L 563 178 L 563 177 L 563 177 L 563 177 L 564 176 L 564 176 L 565 176 L 565 175 L 566 175 L 566 175 L 567 175 L 567 174 L 567 174 L 568 174 L 569 173 L 571 173 L 571 173 L 571 172 L 571 172 L 571 172 L 572 172 L 572 171 L 572 171 L 573 171 L 575 170 L 577 170 L 579 170 L 580 169 L 581 169 L 584 169 L 587 169 L 587 168 L 589 168 L 592 168 L 593 167 L 593 167 L 596 167 L 598 166 L 598 166 L 598 166 L 599 166 L 606 165 L 606 165 L 606 165 L 606 164 L 607 164 L 607 164 L 608 163 L 609 163 L 609 163 L 610 163 L 610 162 L 610 162 L 610 162 L 611 161 L 611 161 L 611 161 L 611 160 L 611 160 L 611 160 L 612 160 L 613 159 L 614 159 L 614 159 L 615 158 L 615 158 L 616 158 L 616 157 L 617 157 L 618 157 L 618 157 L 618 156 L 618 156 L 619 156 L 619 155 L 620 155 L 620 155 L 621 154 L 622 154 L 622 154 L 622 154 L 623 153 L 623 153 L 623 153 L 623 152 L 624 152 L 625 152 L 625 151 L 626 151 L 626 151 L 626 151 L 626 150 L 626 150 L 627 150 L 627 149 L 627 149 L 627 149 L 628 148 L 628 148 L 628 148 L 629 148 L 629 147 L 629 147 L 629 147 L 629 146 L 630 146 L 630 146 L 630 145 L 630 145 L 630 145 L 630 145 L 632 144 L 633 144 L 635 144 L 635 143 L 635 143 L 635 143 L 636 142 L 637 142 L 638 142 L 638 142 L 640 141 L 642 141 L 642 141 L 643 140 L 644 140 L 644 140 L 645 139 L 645 139 L 645 139 L 645 139 L 645 138 L 645 138 L 646 138 L 646 137 L 646 137 L 646 137 L 646 136 L 646 136 L 646 136 L 647 136 L 647 135 L 647 135 L 648 135 L 648 134 L 650 134 L 650 134 L 650 133 L 650 133 L 651 133 L 651 132 L 652 132 L 655 132 L 655 132 L 655 131 L 655 131 L 655 131 L 657 130 L 659 130 L 659 130 L 661 130 L 661 129 L 661 129 L 661 129 L 662 128 L 666 128 L 667 128 L 670 127 L 671 127 L 672 127 L 673 126 L 674 126 L 674 126 L 674 126 L 674 125 L 674 125 L 675 125 L 675 124 L 676 124 L 677 124 L 678 124 L 678 123 L 678 123 L 678 123 L 678 122 L 678 122 L 678 122 L 678 121 L 679 121 L 679 121 L 679 121 L 679 120 L 679 120 L 679 120 L 679 119 L 679 119 L 679 119 L 679 118 L 679 118 L 680 118 L 680 118 L 680 117 L 680 117 L 680 117 L 681 116 L 681 116 L 681 116 L 682 115 L 682 115 L 682 115 L 682 115 L 682 114 L 682 114 L 683 114 L 684 113 L 685 113 L 686 113 L 686 112 L 687 112 L 687 112 L 687 112 L 688 111 L 690 111 L 691 111 L 691 110 L 691 110 L 691 110 L 691 109 L 691 109 L 691 109 L 692 109 L 693 108 L 694 108 L 694 108 L 697 107 L 698 107 L 699 107 L 701 106 L 702 106 L 703 106 L 703 106 L 703 105 L 703 105 L 704 105 L 704 104 L 704 104 L 705 104 L 706 103 L 706 103 L 706 103 L 706 103 L 706 102 L 706 102 L 706 102 L 707 101 L 707 101 L 707 101 L 707 100 L 707 100 L 709 100 L 709 100 L 709 99 L 710 99 L 710 99 L 710 98 L 711 98 L 711 98 L 711 97 L 711 97 L 712 97 L 712 97 L 713 96 L 716 96 L 717 96 L 718 95 L 720 95 L 721 95 L 722 94 L 725 94 L 725 94 L 726 94 L 728 93 L 732 93 L 733 93 L 734 92 L 736 92 L 738 92 L 738 91 L 738 91 L 740 91 L 740 91 L 741 90 L 742 90 L 743 90 L 744 89 L 745 89 L 745 89 L 745 88 L 746 88 L 746 88 L 747 88 L 750 87 L 750 87 L 751 87 L 752 86 L 752 86 L 753 86 L 754 85 L 755 85 L 755 85 L 755 85 L 755 84 L 756 84 L 757 84 L 757 83 L 757 83 L 758 83 L 759 82 L 759 82 L 760 82 L 760 82 L 760 81 L 760 81 L 761 81 L 762 80 L 762 80 L 762 80 L 762 79 L 762 79 L 763 79 L 765 79 L 766 78 L 766 78 L 769 78 L 769 77 L 771 77 L 771 77 L 774 76 L 775 76 L 777 76 L 778 76 L 780 75 L 780 75 L 781 75 L 783 74 L 785 74 L 785 74 L 785 73 L 785 73 L 786 73 L 786 73 L 787 72 L 787 72 L 788 72 L 789 71 L 789 71 L 789 71 L 795 70 L 796 70 L 796 70 L 798 70 L 799 69 L 800 69 L 800 69 L 801 68 L 801 68 L 801 68 L 803 67 L 803 67 L 803 67 L 804 67 L 804 66 L 804 66 L 805 66 L 805 65 L 806 65 L 807 65 L 810 64 L 810 64 L 814 64 L 815 64 L 815 63 L 816 63 L 817 63 L 817 62 L 817 62 L 817 62 L 820 61 L 821 61 L 823 61 L 823 61 L 823 60 L 823 60 L 825 60 L 826 59 L 828 59 L 828 59 L 828 58 L 828 58 L 829 58 L 829 58 L 829 57 L 830 57 L 831 57 L 831 56 L 832 56 L 833 56 L 834 55 L 834 55 L 834 55 L 834 55 L 834 54 L 835 54 L 838 54 L 842 53 L 842 53 L 845 53 L 846 52 L 848 52 L 849 52 L 849 52 L 850 51 L 851 51 L 851 51 L 853 50 L 855 50 L 855 50 L 858 49 L 863 49 L 863 49 L 863 49 L 863 48 L 864 48 L 865 48 L 865 47 L 865 47 L 874 47 L 876 46 L 876 46 L 877 46 L 879 46 L 881 45 L 883 45 L 884 45 L 884 44 L 885 44 L 886 44 L 891 43 L 892 43 L 893 43 L 894 43 L 896 42 L 897 42 L 897 42 L 897 41 L 897 41 L 897 41 L 898 40 L 898 40 L 900 40 L 901 40 L 902 39 L 903 39 L 903 39 L 904 38 L 906 38 L 909 38 L 911 37 L 911 37 L 913 37 L 913 37 L 913 36 L 913 36 L 913 36 L 914 35 L 914 35 L 916 35 L 916 34 L 917 34 L 917 34 L 918 34 L 918 33 L 918 33 L 918 33 L 918 32 L 918 32 L 918 32 L 919 31 L 919 31 L 919 31 L 920 31 L 920 30 L 920 30 L 921 30 L 921 29 L 921 29 L 921 29 L 922 28 L 927 28 L 928 28 L 929 28 L 930 27 L 930 27 L 930 27 L 930 26 L 930 26 L 930 26 L 930 25 L 930 25 L 930 25 L 930 25 L 930 24 L 930 24 L 931 24 L 931 23 L 931 23 L 931 23 L 931 22 L 931 22 L 932 22 L 932 22 L 932 21 L 933 21 L 933 21 L 935 20 L 936 20 L 937 20 L 937 19 L 937 19 L 937 19" /><path stroke-width="2" class="series" d="M 58 345 L 60 345 L 72 345 L 73 344 L 73 344 L 73 344 L 73 343 L 73 343 L 73 343 L 73 343 L 73 342 L 73 342 L 73 342 L 73 341 L 73 341 L 73 341 L 73 340 L 73 340 L 73 340 L 74 340 L 74 339 L 74 339 L 75 339 L 76 338 L 76 338 L 76 338 L 76 337 L 77 337 L 78 337 L 79 337 L 79 336 L 80 336 L 84 336 L 84 335 L 84 335 L 84 335 L 84 334 L 86 334 L 87 334 L 88 334 L 90 333 L 93 333 L 94 333 L 99 332 L 101 332 L 104 332 L 107 331 L 108 331 L 120 331 L 120 331 L 121 330 L 122 330 L 122 330 L 122 329 L 122 329 L 122 329 L 122 328 L 122 328 L 122 328 L 122 328 L 122 327 L 122 327 L 122 327 L 122 326 L 122 326 L 122 326 L 122 325 L 122 325 L 122 325 L 122 325 L 122 324 L 122 324 L 122 324 L 122 323 L 122 323 L 122 323 L 122 322 L 122 322 L 122 322 L 122 322 L 122 321 L 123 321 L 123 321 L 123 320 L 123 320 L 123 320 L 123 319 L 123 319 L 123 319 L 123 319 L 123 318 L 123 318 L 123 318 L 123 317 L 123 317 L 123 317 L 123 316 L 123 316 L 123 316 L 123 316 L 123 315 L 123 315 L 124 315 L 124 314 L 124 314 L 124 314 L 124 313 L 124 313 L 124 313 L 124 313 L 124 312 L 124 312 L 124 312 L 124 311 L 124 311 L 124 311 L 124 310 L 124 310 L 124 310 L 124 310 L 125 309 L 125 309 L 126 309 L 126 308 L 126 308 L 126 308 L 128 307 L 129 307 L 129 307 L 130 307 L 130 306 L 131 306 L 133 306 L 134 305 L 135 305 L 136 305 L 137 304 L 137 304 L 138 304 L 140 304 L 140 303 L 140 303 L 141 303 L 142 302 L 142 302 L 142 302 L 142 301 L 143 301 L 144 301 L 145 301 L 145 300 L 145 300 L 145 300 L 145 299 L 146 299 L 147 299 L 148 298 L 150 298 L 151 298 L 151 298 L 152 297 L 152 297 L 152 297 L 153 296 L 158 296 L 158 296 L 159 295 L 164 295 L 164 295 L 164 295 L 164 294 L 164 294 L 165 294 L 166 293 L 167 293 L 167 293 L 173 292 L 174 292 L 175 292 L 177 292 L 178 291 L 178 291 L 179 291 L 183 290 L 187 290 L 192 290 L 192 289 L 192 289 L 193 289 L 193 289 L 201 288 L 204 288 L 204 288 L 206 287 L 207 287 L 207 287 L 215 286 L 215 286 L 215 286 L 215 286 L 216 285 L 218 285 L 219 285 L 221 284 L 222 284 L 223 284 L 227 283 L 228 283 L 228 283 L 228 283 L 229 282 L 229 282 L 231 282 L 235 281 L 244 281 L 248 281 L 250 280 L 250 280 L 252 280 L 252 280 L 252 279 L 252 279 L 252 279 L 252 278 L 252 278 L 252 278 L 252 277 L 252 277 L 252 277 L 252 277 L 252 276 L 253 276 L 253 276 L 255 275 L 255 275 L 255 275 L 255 274 L 256 274 L 256 274 L 256 274 L 256 273 L 256 273 L 256 273 L 256 272 L 257 272 L 257 272 L 258 271 L 258 271 L 258 271 L 258 271 L 258 270 L 259 270 L 259 270 L 259 269 L 260 269 L 260 269 L 260 268 L 261 268 L 262 268 L 262 268 L 263 267 L 265 267 L 265 267 L 266 266 L 266 266 L 266 266 L 266 265 L 266 265 L 267 265 L 268 265 L 269 264 L 269 264 L 270 264 L 271 263 L 272 263 L 272 263 L 274 262 L 274 262 L 275 262 L 275 262 L 275 261 L 279 261 L 280 261 L 280 260 L 282 260 L 284 260 L 287 259 L 287 259 L 288 259 L 288 259 L 289 258 L 289 258 L 291 258 L 292 257 L 294 257 L 294 257 L 296 256 L 296 256 L 296 256 L 296 256 L 296 255 L 296 255 L 297 255 L 297 254 L 297 254 L 297 254 L 298 253 L 301 253 L 305 253 L 305 253 L 305 252 L 308 252 L 309 252 L 310 251 L 310 251 L 311 251 L 312 250 L 312 250 L 312 250 L 312 250 L 312 249 L 312 249 L 313 249 L 313 248 L 313 248 L 313 248 L 315 247 L 315 247 L 315 247 L 316 247 L 316 246 L 316 246 L 316 246 L 316 245 L 316 245 L 316 245 L 316 244 L 316 244 L 316 244 L 319 244 L 321 243 L 321 243 L 322 243 L 330 242 L 331 242 L 333 242 L 335 241 L 342 241 L 343 241 L 344 241 L 344 240 L 344 240 L 344 240 L 344 239 L 344 239 L 345 239 L 346 238 L 352 238 L 354 238 L 356 238 L 360 237 L 364 237 L 367 237 L 368 236 L 372 236 L 372 236 L 379 235 L 386 235 L 386 235 L 391 235 L 391 234 L 395 234 L 396 234 L 398 233 L 398 233 L 399 233 L 399 232 L 401 232 L 402 232 L 404 232 L 407 231 L 408 231 L 408 231 L 409 230 L 411 230 L 414 230 L 414 229 L 417 229 L 420 229 L 421 229 L 421 228 L 422 228 L 423 228 L 424 227 L 426 227 L 428 227 L 430 226 L 432 226 L 432 226 L 436 226 L 436 225 L 438 225 L 442 225 L 442 224 L 446 224 L 446 224 L 446 223 L 448 223 L 448 223 L 450 223 L 450 222 L 451 222 L 454 222 L 454 221 L 454 221 L 455 221 L 461 220 L 461 220 L 461 220 L 461 220 L 462 219 L 462 219 L 462 219 L 463 218 L 463 218 L 464 218 L 465 217 L 466 217 L 466 217 L 467 217 L 467 216 L 468 216 L 468 216 L 468 215 L 468 215 L 468 215 L 469 214 L 469 214 L 469 214 L 470 214 L 470 213 L 471 213 L 471 213 L 472 212 L 472 212 L 473 212 L 474 211 L 475 211 L 475 211 L 475 211 L 476 210 L 477 210 L 477 210 L 478 209 L 478 209 L 480 209 L 480 208 L 480 208 L 480 208 L 480 208 L 480 207 L 480 207 L 481 207 L 481 206 L 482 206 L 484 206 L 485 205 L 486 205 L 486 205 L 488 205 L 489 204 L 490 204 L 491 204 L 493 203 L 495 203 L 497 203 L 498 202 L 498 202 L 498 202 L 498 202 L 499 201 L 499 201 L 499 201 L 500 200 L 500 200 L 500 200 L 500 199 L 501 199 L 502 199 L 502 199 L 503 198 L 503 198 L 505 198 L 505 197 L 505 197 L 506 197 L 507 196 L 509 196 L 514 196 L 514 196 L 514 195 L 514 195 L 516 195 L 517 194 L 518 194 L 518 194 L 518 193 L 518 193 L 519 193 L 522 193 L 522 192 L 522 192 L 522 192 L 524 191 L 524 191 L 524 191 L 525 190 L 527 190 L 529 190 L 530 190 L 533 189 L 533 189 L 533 189 L 536 188 L 537 188 L 539 188 L 541 187 L 542 187 L 543 187 L 543 187 L 543 186 L 543 186 L 543 186 L 543 185 L 544 185 L 544 185 L 545 184 L 545 184 L 545 184 L 545 184 L 546 183 L 547 183 L 547 183 L 551 182 L 551 182 L 555 182 L 557 181 L 557 181 L 558 181 L 559 181 L 561 180 L 561 180 L 561 180 L 562 179 L 562 179 L 562 179 L 562 178 L 562 178 L 563 178 L 563 178 L 563 177 L 563 177 L 563 177 L 564 176 L 564 176 L 565 176 L 565 175 L 566 175 L 566 175 L 567 175 L 567 174 L 567 174 L 568 174 L 569 173 L 571 173 L 571 173 L 571 172 L 571 172 L 571 172 L 572 172 L 572 171 L 572 171 L 573 171 L 575 170 L 577 170 L 579 170 L 580 169 L 581 169 L 584 169 L 587 169 L 587 168 L 589 168 L 592 168 L 593 167 L 593 167 L 596 167 L 598 166 L 598 166 L 598 166 L 599 166 L 606 165 L 606 165 L 606 165 L 606 164 L 607 164 L 607 164 L 608 163 L 609 163 L 609 163 L 610 163 L 610 162 L 610 162 L 610 162 L 611 161 L 611 161 L 611 161 L 611 160 L 611 160 L 611 160 L 612 160 L 613 159 L 614 159 L 614 159 L 615 158 L 615 158 L 616 158 L 616 157 L 617 157 L 618 157 L 618 157 L 618 156 L 618 156 L 619 156 L 619 155 L 620 155 L 620 155 L 621 154 L 622 154 L 622 154 L 622 154 L 623 153 L 623 153 L 623 153 L 623 152 L 624 152 L 625 152 L 625 151 L 626 151 L 626 151 L 626 151 L 626 150 L 626 150 L 627 150 L 627 149 L 627 149 L 627 149 L 628 148 L 628 148 L 628 148 L 629 148 L 629 147 L 629 147 L 629 147 L 629 146 L 630 146 L 630 146 L 630 145 L 630 145 L 630 145 L 630 145 L 632 144 L 633 144 L 635 144 L 635 143 L 635 143 L 635 143 L 636 142 L 637 142 L 638 142 L 638 142 L 640 141 L 642 141 L 642 141 L 643 140 L 644 140 L 644 140 L 645 139 L 645 139 L 645 139 L 645 139 L 645 138 L 645 138 L 646 138 L 646 137 L 646 137 L 646 137 L 646 136 L 646 136 L 646 136 L 647 136 L 647 135 L 647 135 L 648 135 L 648 134 L 650 134 L 650 134 L 650 133 L 650 133 L 651 133 L 651 132 L 652 132 L 655 132 L 655 132 L 655 131 L 655 131 L 655 131 L 657 130 L 659 130 L 659 130 L 661 130 L 661 129 L 661 129 L 661 129 L 662 128 L 666 128 L 667 128 L 670 127 L 671 127 L 672 127 L 673 126 L 674 126 L 674 126 L 674 126 L 674 125 L 674 125 L 675 125 L 675 124 L 676 124 L 677 124 L 678 124 L 678 123 L 678 123 L 678 123 L 678 122 L 678 122 L 678 122 L 678 121 L 679 121 L 679 121 L 679 121 L 679 120 L 679 120 L 679 120 L 679 119 L 679 119 L 679 119 L 679 118 L 679 118 L 680 118 L 680 118 L 680 117 L 680 117 L 680 117 L 681 116 L 681 116 L 681 116 L 682 115 L 682 115 L 682 115 L 682 115 L 682 114 L 682 114 L 683 114 L 684 113 L 685 113 L 686 113 L 686 112 L 687 112 L 687 112 L 687 112 L 688 111 L 690 111 L 691 111 L 691 110 L 691 110 L 691 110 L 691 109 L 691 109 L 691 109 L 692 109 L 693 108 L 694 108 L 694 108 L 697 107 L 698 107 L 699 107 L 701 106 L 702 106 L 703 106 L 703 106 L 703 105 L 703 105 L 704 105 L 704 104 L 704 104 L 705 104 L 706 103 L 706 103 L 706 103 L 706 103 L 706 102 L 706 102 L 706 102 L 707 101 L 707 101 L 707 101 L 707 100 L 707 100 L 709 100 L 709 100 L 709 99 L 710 99 L 710 99 L 710 98 L 711 98 L 711 98 L 711 97 L 711 97 L 712 97 L 712 97 L 713 96 L 716 96 L 717 96 L 718 95 L 720 95 L 721 95 L 722 94 L 725 94 L 725 94 L 726 94 L 728 93 L 732 93 L 733 93 L 734 92 L 736 92 L 738 92 L 738 91 L 738 91 L 740 91 L 740 91 L 741 90 L 742 90 L 743 90 L 744 89 L 745 89 L 745 89 L 745 88 L 746 88 L 746 88 L 747 88 L 750 87 L 750 87 L 751 87 L 752 86 L 752 86 L 753 86 L 754 85 L 755 85 L 755 85 L 755 85 L 755 84 L 756 84 L 757 84 L 757 83 L 757 83 L 758 83 L 759 82 L 759 82 L 760 82 L 760 82 L 760 81 L 760 81 L 761 81 L 762 80 L 762 80 L 762 80 L 762 79 L 762 79 L 763 79 L 765 79 L 766 78 L 766 78 L 769 78 L 769 77 L 771 77 L 771 77 L 774 76 L 775 76 L 777 76 L 778 76 L 780 75 L 780 75 L 781 75 L 783 74 L 785 74 L 785 74 L 785 73 L 785 73 L 786 73 L 786 73 L 787 72 L 787 72 L 788 72 L 789 71 L 789 71 L 789 71 L 795 70 L 796 70 L 796 70 L 798 70 L 799 69 L 800 69 L 800 69 L 801 68 L 801 68 L 801 68 L 803 67 L 803 67 L 803 67 L 804 67 L 804 66 L 804 66 L 805 66 L 805 65 L 806 65 L 807 65 L 810 64 L 810 64 L 814 64 L 815 64 L 815 63 L 816 63 L 817 63 L 817 62 L 817 62 L 817 62 L 820 61 L 821 61 L 823 61 L 823 61 L 823 60 L 823 60 L 825 60 L 826 59 L 828 59 L 828 59 L 828 58 L 828 58 L 829 58 L 829 58 L 829 57 L 830 57 L 831 57 L 831 56 L 832 56 L 833 56 L 834 55 L 834 55 L 834 55 L 834 55 L 834 54 L 835 54 L 838 54 L 842 53 L 842 53 L 845 53 L 846 52 L 848 52 L 849 52 L 849 52 L 850 51 L 851 51 L 851 51 L 853 50 L 855 50 L 855 50 L 858 49 L 863 49 L 863 49 L 863 49 L 863 48 L 864 48 L 865 48 L 865 47 L 865 47 L 874 47 L 876 46 L 876 46 L 877 46 L 879 46 L 881 45 L 883 45 L 884 45 L 884 44 L 885 44 L 886 44 L 891 43 L 892 43 L 893 43 L 894 43 L 896 42 L 897 42 L 897 42 L 897 41 L 897 41 L 897 41 L 898 40 L 898 40 L 900 40 L 901 40 L 902 39 L 903 39 L 903 39 L 904 38 L 906 38 L 909 38 L 911 37 L 911 37 L 913 37 L 913 37 L 913 36 L 913 36 L 913 36 L 914 35 L 914 35 L 916 35 L 916 34 L 917 34 L 917 34 L 918 34 L 918 33 L 918 33 L 918 33 L 918 32 L 918 32 L 918 32 L 919 31 L 919 31 L 919 31 L 920 31 L 920 30 L 920 30 L 921 30 L 921 29 L 921 29 L 921 29 L 922 28 L 927 28 L 928 28 L 929 28 L 930 27 L 930 27 L 930 27 L 930 26 L 930 26 L 930 26 L 930 25 L 930 25 L 930 25 L 930 25 L 930 24 L 930 24 L 931 24 L 931 23 L 931 23 L 931 23 L 931 22 L 931 22 L 932 22 L 932 22 L 932 21 L 933 21 L 933 21 L 935 20 L 936 20 L 937 20 L 937 19 L 937 19 L 937 19"></path><path stroke-width="2" d="M 937 346 L 937.000000 15.000000" /><path stroke-width="2" d="M 937 346 L 937.000000 15.000000"></path><path stroke-width="2" d="M 937 346 L 942 346" /><path stroke-width="2" d="M 937 346 L 942 346"></path><text x="947" y="352" xmlns="http://www.w3.org/2000/svg">0</text><path d="M 937 307 L 942 307" stroke-width="2" /><path stroke-width="2" d="M 937 307 L 942 307"></path><text xmlns="http://www.w3.org/2000/svg" x="947" y="313">130</text><path stroke-width="2" d="M 937 271 L 942 271" /><path stroke-width="2" d="M 937 271 L 942 271"></path><text y="277" xmlns="http://www.w3.org/2000/svg" x="947">250</text><path stroke-width="2" d="M 937 235 L 942 235" /><path stroke-width="2" d="M 937 235 L 942 235"></path><text y="241" xmlns="http://www.w3.org/2000/svg" x="947">370</text><path d="M 937 199 L 942 199" stroke-width="2" /><path stroke-width="2" d="M 937 199 L 942 199"></path><text x="947" y="205" xmlns="http://www.w3.org/2000/svg">490</text><path stroke-width="2" d="M 937 160 L 942 160" /><path stroke-width="2" d="M 937 160 L 942 160"></path><text x="947" y="166" xmlns="http://www.w3.org/2000/svg">620</text><path stroke-width="2" d="M 937 124 L 942 124" /><path stroke-width="2" d="M 937 124 L 942 124"></path><text y="130" xmlns="http://www.w3.org/2000/svg" x="947">740</text><path stroke-width="2" d="M 937 88 L 942 88" /><path stroke-width="2" d="M 937 88 L 942 88"></path><text xmlns="http://www.w3.org/2000/svg" x="947" y="94">860</text><path stroke-width="2" d="M 937 52 L 942 52" /><path stroke-width="2" d="M 937 52 L 942 52"></path><text xmlns="http://www.w3.org/2000/svg" x="947" y="58">980</text><path stroke-width="2" d="M 937 16 L 942 16" /><path d="M 937 16 L 942 16" stroke-width="2"></path><text x="947" y="22" xmlns="http://www.w3.org/2000/svg">1100</text><text xmlns="http://www.w3.org/2000/svg" x="987" y="175" transform="rotate(90.00,987,175)">Stargazers</text><path stroke-width="2" d="M 57.000000 346.000000 L 937 346" /><path stroke-width="2" d="M 57.000000 346.000000 L 937 346"></path><path stroke-width="2" d="M 58 346 L 58 351" /><path stroke-width="2" d="M 58 346 L 58 351"></path><text x="25" y="368" xmlns="http://www.w3.org/2000/svg">2023-04-02</text><path stroke-width="2" d="M 156 346 L 156 351" /><path stroke-width="2" d="M 156 346 L 156 351"></path><text y="368" xmlns="http://www.w3.org/2000/svg" x="123">2023-07-10</text><path stroke-width="2" d="M 254 346 L 254 351" /><path stroke-width="2" d="M 254 346 L 254 351"></path><text y="368" xmlns="http://www.w3.org/2000/svg" x="221">2023-10-17</text><path stroke-width="2" d="M 352 346 L 352 351" /><path stroke-width="2" d="M 352 346 L 352 351"></path><text x="319" y="368" xmlns="http://www.w3.org/2000/svg">2024-01-24</text><path stroke-width="2" d="M 449 346 L 449 351" /><path stroke-width="2" d="M 449 346 L 449 351"></path><text y="368" xmlns="http://www.w3.org/2000/svg" x="416">2024-05-01</text><path d="M 547 346 L 547 351" stroke-width="2" /><path stroke-width="2" d="M 547 346 L 547 351"></path><text xmlns="http://www.w3.org/2000/svg" x="514" y="368">2024-08-08</text><path stroke-width="2" d="M 645 346 L 645 351" /><path stroke-width="2" d="M 645 346 L 645 351"></path><text x="612" y="368" xmlns="http://www.w3.org/2000/svg">2024-11-15</text><path stroke-width="2" d="M 742 346 L 742 351" /><path stroke-width="2" d="M 742 346 L 742 351"></path><text xmlns="http://www.w3.org/2000/svg" x="709" y="368">2025-02-22</text><path stroke-width="2" d="M 840 346 L 840 351" /><path stroke-width="2" d="M 840 346 L 840 351"></path><text xmlns="http://www.w3.org/2000/svg" x="807" y="368">2025-06-01</text><path stroke-width="2" d="M 937 346 L 937 351" /><path stroke-width="2" d="M 937 346 L 937 351"></path><text xmlns="http://www.w3.org/2000/svg" x="904" y="368">2025-09-08</text><text x="483" y="390" xmlns="http://www.w3.org/2000/svg">Time</text></svg>