<svg xmlns="http://www.w3.org/2000/svg" xmlns:xlink="http://www.w3.org/1999/xlink" width="1024px" height="400px"><style type="text/css">
path { fill: none; stroke: rgb(51,51,51); }
path.series { stroke: #6b63ff; }
rect.background { fill: rgb(255,255,255); stroke: none; }

text {
	stroke-width: 0;
	stroke: none;
	fill: rgba(51,51,51,1.0);
	font-size: 12.8px;
	font-family: 'Roboto Medium', sans-serif;
}
</style><rect x="0" y="0" width="1024px" height="400px" class="background" rx="8" /><rect x="0" y="0" width="1024px" height="400px" class="background" rx="8"></rect><path stroke-width="2" class="series" d="M 58 345 L 62 344 L 84 344 L 85 343 L 85 342 L 85 342 L 85 341 L 85 341 L 85 340 L 85 339 L 85 339 L 85 338 L 85 338 L 85 337 L 85 336 L 86 336 L 86 335 L 86 335 L 86 334 L 87 333 L 88 333 L 88 332 L 90 331 L 91 331 L 91 330 L 91 330 L 92 329 L 93 328 L 95 328 L 96 327 L 97 327 L 99 326 L 106 325 L 106 325 L 106 324 L 106 324 L 106 323 L 106 322 L 110 322 L 112 321 L 113 320 L 116 320 L 122 319 L 124 319 L 134 318 L 137 317 L 142 317 L 148 316 L 150 316 L 171 315 L 172 314 L 172 314 L 175 313 L 176 313 L 176 312 L 176 311 L 176 311 L 176 310 L 176 309 L 176 309 L 176 308 L 176 308 L 176 307 L 176 306 L 176 306 L 177 305 L 177 305 L 177 304 L 177 303 L 177 303 L 177 302 L 177 302 L 177 301 L 177 300 L 177 300 L 177 299 L 177 298 L 177 298 L 177 297 L 177 297 L 177 296 L 177 295 L 177 295 L 177 294 L 177 294 L 177 293 L 177 292 L 177 292 L 177 291 L 177 291 L 177 290 L 177 289 L 177 289 L 177 288 L 177 287 L 177 287 L 177 286 L 177 286 L 178 285 L 178 284 L 178 284 L 179 283 L 179 283 L 179 282 L 179 281 L 179 281 L 180 280 L 180 280 L 180 279 L 181 278 L 181 278 L 181 277 L 181 276 L 181 276 L 181 275 L 181 275 L 181 274 L 181 273 L 181 273 L 181 272 L 181 272 L 181 271 L 181 270 L 181 270 L 183 269 L 183 269 L 183 268 L 183 267 L 188 267 L 188 266 L 188 265 L 190 265 L 190 264 L 193 264 L 197 263 L 198 262 L 201 262 L 202 261 L 204 261 L 205 260 L 205 259 L 209 259 L 209 258 L 210 258 L 212 257 L 212 256 L 214 256 L 214 255 L 214 254 L 215 254 L 216 253 L 218 253 L 218 252 L 219 251 L 219 251 L 220 250 L 221 250 L 223 249 L 225 248 L 228 248 L 229 247 L 230 247 L 232 246 L 232 245 L 232 245 L 234 244 L 243 243 L 244 243 L 245 242 L 253 242 L 254 241 L 254 240 L 254 240 L 254 239 L 256 239 L 258 238 L 260 237 L 260 237 L 270 236 L 272 236 L 275 235 L 278 234 L 280 234 L 280 233 L 281 232 L 289 232 L 297 231 L 306 231 L 307 230 L 307 229 L 307 229 L 308 228 L 310 228 L 322 227 L 328 226 L 328 226 L 332 225 L 333 225 L 334 224 L 348 223 L 348 223 L 349 222 L 349 221 L 351 221 L 355 220 L 356 220 L 359 219 L 361 218 L 364 218 L 372 217 L 372 217 L 373 216 L 374 215 L 374 215 L 374 214 L 378 214 L 386 213 L 403 212 L 409 212 L 413 211 L 413 210 L 415 210 L 417 209 L 417 209 L 417 208 L 417 207 L 417 207 L 417 206 L 417 206 L 417 205 L 418 204 L 418 204 L 418 203 L 418 203 L 418 202 L 419 201 L 419 201 L 420 200 L 422 199 L 422 199 L 422 198 L 422 198 L 423 197 L 425 196 L 425 196 L 425 195 L 425 195 L 425 194 L 425 193 L 425 193 L 426 192 L 427 192 L 428 191 L 428 190 L 428 190 L 428 189 L 428 188 L 430 188 L 430 187 L 430 187 L 430 186 L 431 185 L 432 185 L 432 184 L 433 184 L 435 183 L 436 182 L 438 182 L 441 181 L 441 181 L 442 180 L 443 179 L 443 179 L 443 178 L 443 177 L 445 177 L 446 176 L 449 176 L 449 175 L 450 174 L 452 174 L 454 173 L 454 173 L 458 172 L 459 171 L 459 171 L 461 170 L 461 170 L 467 169 L 468 168 L 469 168 L 474 167 L 476 166 L 481 166 L 483 165 L 483 165 L 484 164 L 485 163 L 485 163 L 489 162 L 492 162 L 494 161 L 495 160 L 496 160 L 498 159 L 498 159 L 498 158 L 498 157 L 499 157 L 499 156 L 500 155 L 501 155 L 501 154 L 501 154 L 503 153 L 509 152 L 516 152 L 516 151 L 516 151 L 521 150 L 524 149 L 525 149 L 525 148 L 527 148 L 529 147 L 529 146 L 529 146 L 529 145 L 529 144 L 529 144 L 529 143 L 530 143 L 530 142 L 531 141 L 535 141 L 535 140 L 535 140 L 535 139 L 535 138 L 536 138 L 536 137 L 536 137 L 536 136 L 536 135 L 536 135 L 536 134 L 536 133 L 542 133 L 545 132 L 545 132 L 547 131 L 554 130 L 562 130 L 563 129 L 568 129 L 571 128 L 580 127 L 583 127 L 586 126 L 587 126 L 587 125 L 587 124 L 587 124 L 587 123 L 587 122 L 587 122 L 589 121 L 591 121 L 602 120 L 605 119 L 609 119 L 618 118 L 624 118 L 629 117 L 633 116 L 639 116 L 640 115 L 653 115 L 666 114 L 666 113 L 675 113 L 676 112 L 683 111 L 684 111 L 688 110 L 688 110 L 689 109 L 690 108 L 694 108 L 695 107 L 699 107 L 704 106 L 705 105 L 707 105 L 708 104 L 712 104 L 717 103 L 718 102 L 723 102 L 729 101 L 730 100 L 730 100 L 732 99 L 734 99 L 735 98 L 740 97 L 743 97 L 747 96 L 750 96 L 750 95 L 758 94 L 759 94 L 763 93 L 769 92 L 769 92 L 776 91 L 777 91 L 777 90 L 780 89 L 780 89 L 783 88 L 784 88 L 787 87 L 791 86 L 792 86 L 792 85 L 793 85 L 804 84 L 804 83 L 805 83 L 805 82 L 806 82 L 807 81 L 807 80 L 807 80 L 808 79 L 811 78 L 811 78 L 813 77 L 814 77 L 815 76 L 816 75 L 817 75 L 817 74 L 818 74 L 818 73 L 818 72 L 820 72 L 820 71 L 820 71 L 820 70 L 822 69 L 824 69 L 824 68 L 824 67 L 826 67 L 826 66 L 828 66 L 830 65 L 830 64 L 831 64 L 833 63 L 834 63 L 835 62 L 835 61 L 836 61 L 839 60 L 839 60 L 839 59 L 840 58 L 840 58 L 840 57 L 840 56 L 841 56 L 842 55 L 843 55 L 848 54 L 849 53 L 851 53 L 852 52 L 855 52 L 857 51 L 858 50 L 861 50 L 865 49 L 868 49 L 871 48 L 872 47 L 873 47 L 873 46 L 873 45 L 874 45 L 875 44 L 875 44 L 876 43 L 876 42 L 876 42 L 877 41 L 879 41 L 880 40 L 880 39 L 882 39 L 882 38 L 886 38 L 886 37 L 887 36 L 888 36 L 889 35 L 893 34 L 896 34 L 902 33 L 902 33 L 902 32 L 903 31 L 906 31 L 909 30 L 910 30 L 910 29 L 910 28 L 910 28 L 913 27 L 917 27 L 918 26 L 918 25 L 918 25 L 921 24 L 922 23 L 922 23 L 922 22 L 922 22 L 926 21 L 931 20 L 932 20 L 937 19 L 938 19 L 939 18 L 944 17 L 945 17" /><path stroke-width="2" class="series" d="M 58 345 L 62 344 L 84 344 L 85 343 L 85 342 L 85 342 L 85 341 L 85 341 L 85 340 L 85 339 L 85 339 L 85 338 L 85 338 L 85 337 L 85 336 L 86 336 L 86 335 L 86 335 L 86 334 L 87 333 L 88 333 L 88 332 L 90 331 L 91 331 L 91 330 L 91 330 L 92 329 L 93 328 L 95 328 L 96 327 L 97 327 L 99 326 L 106 325 L 106 325 L 106 324 L 106 324 L 106 323 L 106 322 L 110 322 L 112 321 L 113 320 L 116 320 L 122 319 L 124 319 L 134 318 L 137 317 L 142 317 L 148 316 L 150 316 L 171 315 L 172 314 L 172 314 L 175 313 L 176 313 L 176 312 L 176 311 L 176 311 L 176 310 L 176 309 L 176 309 L 176 308 L 176 308 L 176 307 L 176 306 L 176 306 L 177 305 L 177 305 L 177 304 L 177 303 L 177 303 L 177 302 L 177 302 L 177 301 L 177 300 L 177 300 L 177 299 L 177 298 L 177 298 L 177 297 L 177 297 L 177 296 L 177 295 L 177 295 L 177 294 L 177 294 L 177 293 L 177 292 L 177 292 L 177 291 L 177 291 L 177 290 L 177 289 L 177 289 L 177 288 L 177 287 L 177 287 L 177 286 L 177 286 L 178 285 L 178 284 L 178 284 L 179 283 L 179 283 L 179 282 L 179 281 L 179 281 L 180 280 L 180 280 L 180 279 L 181 278 L 181 278 L 181 277 L 181 276 L 181 276 L 181 275 L 181 275 L 181 274 L 181 273 L 181 273 L 181 272 L 181 272 L 181 271 L 181 270 L 181 270 L 183 269 L 183 269 L 183 268 L 183 267 L 188 267 L 188 266 L 188 265 L 190 265 L 190 264 L 193 264 L 197 263 L 198 262 L 201 262 L 202 261 L 204 261 L 205 260 L 205 259 L 209 259 L 209 258 L 210 258 L 212 257 L 212 256 L 214 256 L 214 255 L 214 254 L 215 254 L 216 253 L 218 253 L 218 252 L 219 251 L 219 251 L 220 250 L 221 250 L 223 249 L 225 248 L 228 248 L 229 247 L 230 247 L 232 246 L 232 245 L 232 245 L 234 244 L 243 243 L 244 243 L 245 242 L 253 242 L 254 241 L 254 240 L 254 240 L 254 239 L 256 239 L 258 238 L 260 237 L 260 237 L 270 236 L 272 236 L 275 235 L 278 234 L 280 234 L 280 233 L 281 232 L 289 232 L 297 231 L 306 231 L 307 230 L 307 229 L 307 229 L 308 228 L 310 228 L 322 227 L 328 226 L 328 226 L 332 225 L 333 225 L 334 224 L 348 223 L 348 223 L 349 222 L 349 221 L 351 221 L 355 220 L 356 220 L 359 219 L 361 218 L 364 218 L 372 217 L 372 217 L 373 216 L 374 215 L 374 215 L 374 214 L 378 214 L 386 213 L 403 212 L 409 212 L 413 211 L 413 210 L 415 210 L 417 209 L 417 209 L 417 208 L 417 207 L 417 207 L 417 206 L 417 206 L 417 205 L 418 204 L 418 204 L 418 203 L 418 203 L 418 202 L 419 201 L 419 201 L 420 200 L 422 199 L 422 199 L 422 198 L 422 198 L 423 197 L 425 196 L 425 196 L 425 195 L 425 195 L 425 194 L 425 193 L 425 193 L 426 192 L 427 192 L 428 191 L 428 190 L 428 190 L 428 189 L 428 188 L 430 188 L 430 187 L 430 187 L 430 186 L 431 185 L 432 185 L 432 184 L 433 184 L 435 183 L 436 182 L 438 182 L 441 181 L 441 181 L 442 180 L 443 179 L 443 179 L 443 178 L 443 177 L 445 177 L 446 176 L 449 176 L 449 175 L 450 174 L 452 174 L 454 173 L 454 173 L 458 172 L 459 171 L 459 171 L 461 170 L 461 170 L 467 169 L 468 168 L 469 168 L 474 167 L 476 166 L 481 166 L 483 165 L 483 165 L 484 164 L 485 163 L 485 163 L 489 162 L 492 162 L 494 161 L 495 160 L 496 160 L 498 159 L 498 159 L 498 158 L 498 157 L 499 157 L 499 156 L 500 155 L 501 155 L 501 154 L 501 154 L 503 153 L 509 152 L 516 152 L 516 151 L 516 151 L 521 150 L 524 149 L 525 149 L 525 148 L 527 148 L 529 147 L 529 146 L 529 146 L 529 145 L 529 144 L 529 144 L 529 143 L 530 143 L 530 142 L 531 141 L 535 141 L 535 140 L 535 140 L 535 139 L 535 138 L 536 138 L 536 137 L 536 137 L 536 136 L 536 135 L 536 135 L 536 134 L 536 133 L 542 133 L 545 132 L 545 132 L 547 131 L 554 130 L 562 130 L 563 129 L 568 129 L 571 128 L 580 127 L 583 127 L 586 126 L 587 126 L 587 125 L 587 124 L 587 124 L 587 123 L 587 122 L 587 122 L 589 121 L 591 121 L 602 120 L 605 119 L 609 119 L 618 118 L 624 118 L 629 117 L 633 116 L 639 116 L 640 115 L 653 115 L 666 114 L 666 113 L 675 113 L 676 112 L 683 111 L 684 111 L 688 110 L 688 110 L 689 109 L 690 108 L 694 108 L 695 107 L 699 107 L 704 106 L 705 105 L 707 105 L 708 104 L 712 104 L 717 103 L 718 102 L 723 102 L 729 101 L 730 100 L 730 100 L 732 99 L 734 99 L 735 98 L 740 97 L 743 97 L 747 96 L 750 96 L 750 95 L 758 94 L 759 94 L 763 93 L 769 92 L 769 92 L 776 91 L 777 91 L 777 90 L 780 89 L 780 89 L 783 88 L 784 88 L 787 87 L 791 86 L 792 86 L 792 85 L 793 85 L 804 84 L 804 83 L 805 83 L 805 82 L 806 82 L 807 81 L 807 80 L 807 80 L 808 79 L 811 78 L 811 78 L 813 77 L 814 77 L 815 76 L 816 75 L 817 75 L 817 74 L 818 74 L 818 73 L 818 72 L 820 72 L 820 71 L 820 71 L 820 70 L 822 69 L 824 69 L 824 68 L 824 67 L 826 67 L 826 66 L 828 66 L 830 65 L 830 64 L 831 64 L 833 63 L 834 63 L 835 62 L 835 61 L 836 61 L 839 60 L 839 60 L 839 59 L 840 58 L 840 58 L 840 57 L 840 56 L 841 56 L 842 55 L 843 55 L 848 54 L 849 53 L 851 53 L 852 52 L 855 52 L 857 51 L 858 50 L 861 50 L 865 49 L 868 49 L 871 48 L 872 47 L 873 47 L 873 46 L 873 45 L 874 45 L 875 44 L 875 44 L 876 43 L 876 42 L 876 42 L 877 41 L 879 41 L 880 40 L 880 39 L 882 39 L 882 38 L 886 38 L 886 37 L 887 36 L 888 36 L 889 35 L 893 34 L 896 34 L 902 33 L 902 33 L 902 32 L 903 31 L 906 31 L 909 30 L 910 30 L 910 29 L 910 28 L 910 28 L 913 27 L 917 27 L 918 26 L 918 25 L 918 25 L 921 24 L 922 23 L 922 23 L 922 22 L 922 22 L 926 21 L 931 20 L 932 20 L 937 19 L 938 19 L 939 18 L 944 17 L 945 17"></path><path stroke-width="2" d="M 945 346 L 945.000000 15.000000" /><path stroke-width="2" d="M 945 346 L 945.000000 15.000000"></path><path stroke-width="2" d="M 945 346 L 950 346" /><path stroke-width="2" d="M 945 346 L 950 346"></path><text xmlns="http://www.w3.org/2000/svg" x="955" y="352">0</text><path stroke-width="2" d="M 945 309 L 950 309" /><path stroke-width="2" d="M 945 309 L 950 309"></path><text xmlns="http://www.w3.org/2000/svg" x="955" y="315">60</text><path d="M 945 272 L 950 272" stroke-width="2" /><path stroke-width="2" d="M 945 272 L 950 272"></path><text xmlns="http://www.w3.org/2000/svg" x="955" y="278">120</text><path stroke-width="2" d="M 945 236 L 950 236" /><path stroke-width="2" d="M 945 236 L 950 236"></path><text y="242" xmlns="http://www.w3.org/2000/svg" x="955">180</text><path stroke-width="2" d="M 945 199 L 950 199" /><path stroke-width="2" d="M 945 199 L 950 199"></path><text y="205" xmlns="http://www.w3.org/2000/svg" x="955">240</text><path stroke-width="2" d="M 945 162 L 950 162" /><path stroke-width="2" d="M 945 162 L 950 162"></path><text xmlns="http://www.w3.org/2000/svg" x="955" y="168">300</text><path stroke-width="2" d="M 945 126 L 950 126" /><path stroke-width="2" d="M 945 126 L 950 126"></path><text y="132" xmlns="http://www.w3.org/2000/svg" x="955">360</text><path d="M 945 89 L 950 89" stroke-width="2" /><path stroke-width="2" d="M 945 89 L 950 89"></path><text xmlns="http://www.w3.org/2000/svg" x="955" y="95">420</text><path stroke-width="2" d="M 945 52 L 950 52" /><path stroke-width="2" d="M 945 52 L 950 52"></path><text xmlns="http://www.w3.org/2000/svg" x="955" y="58">480</text><path d="M 945 16 L 950 16" stroke-width="2" /><path stroke-width="2" d="M 945 16 L 950 16"></path><text xmlns="http://www.w3.org/2000/svg" x="955" y="22">540</text><text xmlns="http://www.w3.org/2000/svg" x="987" y="175" transform="rotate(90.00,987,175)">Stargazers</text><path stroke-width="2" d="M 57.000000 346.000000 L 945 346" /><path stroke-width="2" d="M 57.000000 346.000000 L 945 346"></path><path d="M 58 346 L 58 351" stroke-width="2" /><path stroke-width="2" d="M 58 346 L 58 351"></path><text xmlns="http://www.w3.org/2000/svg" x="25" y="368">2023-04-02</text><path stroke-width="2" d="M 157 346 L 157 351" /><path d="M 157 346 L 157 351" stroke-width="2"></path><text xmlns="http://www.w3.org/2000/svg" x="124" y="368">2023-05-26</text><path stroke-width="2" d="M 256 346 L 256 351" /><path stroke-width="2" d="M 256 346 L 256 351"></path><text x="223" y="368" xmlns="http://www.w3.org/2000/svg">2023-07-19</text><path stroke-width="2" d="M 354 346 L 354 351" /><path stroke-width="2" d="M 354 346 L 354 351"></path><text xmlns="http://www.w3.org/2000/svg" x="321" y="368">2023-09-10</text><path stroke-width="2" d="M 453 346 L 453 351" /><path stroke-width="2" d="M 453 346 L 453 351"></path><text y="368" xmlns="http://www.w3.org/2000/svg" x="420">2023-11-03</text><path stroke-width="2" d="M 551 346 L 551 351" /><path stroke-width="2" d="M 551 346 L 551 351"></path><text x="518" y="368" xmlns="http://www.w3.org/2000/svg">2023-12-27</text><path stroke-width="2" d="M 650 346 L 650 351" /><path stroke-width="2" d="M 650 346 L 650 351"></path><text xmlns="http://www.w3.org/2000/svg" x="617" y="368">2024-02-19</text><path d="M 748 346 L 748 351" stroke-width="2" /><path stroke-width="2" d="M 748 346 L 748 351"></path><text xmlns="http://www.w3.org/2000/svg" x="715" y="368">2024-04-13</text><path stroke-width="2" d="M 847 346 L 847 351" /><path stroke-width="2" d="M 847 346 L 847 351"></path><text y="368" xmlns="http://www.w3.org/2000/svg" x="814">2024-06-06</text><path d="M 945 346 L 945 351" stroke-width="2" /><path stroke-width="2" d="M 945 346 L 945 351"></path><text xmlns="http://www.w3.org/2000/svg" x="912" y="368">2024-07-29</text><text xmlns="http://www.w3.org/2000/svg" x="487" y="390">Time</text></svg>