<svg xmlns="http://www.w3.org/2000/svg" xmlns:xlink="http://www.w3.org/1999/xlink" width="1024px" height="400px"><style type="text/css">
path { fill: none; stroke: rgb(51,51,51); }
path.series { stroke: #6b63ff; }
rect.background { fill: rgb(255,255,255); stroke: none; }

text {
	stroke-width: 0;
	stroke: none;
	fill: rgba(51,51,51,1.0);
	font-size: 12.8px;
	font-family: 'Roboto Medium', sans-serif;
}
</style><rect rx="8" x="0" y="0" width="1024px" height="400px" class="background" /><rect rx="8" x="0" y="0" width="1024px" height="400px" class="background"></rect><path stroke-width="2" class="series" d="M 58 345 L 61 344 L 80 344 L 81 343 L 81 343 L 81 342 L 81 342 L 81 341 L 81 341 L 81 340 L 81 340 L 81 339 L 81 339 L 81 338 L 81 338 L 82 337 L 82 337 L 82 336 L 82 336 L 83 335 L 84 335 L 84 334 L 85 334 L 86 333 L 86 333 L 86 332 L 87 332 L 88 331 L 90 331 L 90 330 L 92 330 L 93 329 L 99 329 L 99 328 L 99 328 L 99 327 L 99 327 L 99 326 L 103 326 L 104 325 L 105 325 L 108 324 L 113 324 L 115 323 L 123 323 L 126 322 L 130 322 L 135 321 L 137 321 L 155 320 L 156 320 L 156 319 L 158 319 L 159 318 L 159 318 L 159 317 L 159 317 L 159 316 L 159 316 L 159 315 L 159 315 L 159 314 L 159 314 L 159 313 L 159 313 L 159 312 L 159 311 L 159 311 L 159 310 L 159 310 L 160 309 L 160 309 L 160 308 L 160 308 L 160 307 L 160 307 L 160 306 L 160 306 L 160 305 L 160 305 L 160 304 L 160 304 L 160 303 L 160 303 L 160 302 L 160 302 L 160 301 L 160 301 L 160 300 L 160 300 L 160 299 L 160 299 L 160 298 L 160 298 L 160 297 L 160 297 L 160 296 L 160 296 L 160 295 L 160 295 L 161 294 L 161 294 L 161 293 L 161 293 L 161 292 L 162 292 L 163 291 L 163 291 L 163 290 L 163 290 L 163 289 L 163 289 L 163 288 L 163 288 L 163 287 L 163 287 L 163 286 L 163 286 L 163 285 L 163 285 L 163 284 L 163 284 L 163 283 L 163 283 L 165 282 L 165 282 L 165 281 L 165 281 L 169 280 L 169 280 L 169 279 L 171 278 L 171 278 L 174 277 L 177 277 L 177 276 L 180 276 L 181 275 L 183 275 L 183 274 L 184 274 L 187 273 L 187 273 L 188 272 L 189 272 L 190 271 L 191 271 L 191 270 L 191 270 L 192 269 L 193 269 L 195 268 L 195 268 L 195 267 L 196 267 L 196 266 L 197 266 L 199 265 L 201 265 L 203 264 L 204 264 L 205 263 L 206 263 L 206 262 L 207 262 L 209 261 L 216 261 L 216 260 L 218 260 L 225 259 L 225 259 L 225 258 L 225 258 L 226 257 L 227 257 L 229 256 L 230 256 L 231 255 L 239 255 L 241 254 L 243 254 L 246 253 L 248 253 L 248 252 L 249 252 L 255 251 L 262 251 L 270 250 L 270 250 L 270 249 L 271 249 L 271 248 L 273 248 L 283 247 L 288 247 L 288 246 L 292 245 L 293 245 L 294 244 L 305 244 L 305 243 L 306 243 L 307 242 L 308 242 L 311 241 L 313 241 L 315 240 L 317 240 L 319 239 L 326 239 L 326 238 L 327 238 L 327 237 L 328 237 L 328 236 L 332 236 L 338 235 L 353 235 L 358 234 L 361 234 L 361 233 L 363 233 L 365 232 L 365 232 L 365 231 L 365 231 L 365 230 L 365 230 L 365 229 L 365 229 L 365 228 L 365 228 L 365 227 L 365 227 L 365 226 L 366 226 L 366 225 L 368 225 L 369 224 L 369 224 L 369 223 L 369 223 L 371 222 L 371 222 L 371 221 L 371 221 L 371 220 L 371 220 L 371 219 L 372 219 L 373 218 L 374 218 L 374 217 L 374 217 L 374 216 L 374 216 L 375 215 L 376 215 L 376 214 L 376 214 L 377 213 L 377 212 L 377 212 L 379 211 L 380 211 L 381 210 L 383 210 L 385 209 L 385 209 L 386 208 L 386 208 L 386 207 L 386 207 L 387 206 L 389 206 L 389 205 L 391 205 L 392 204 L 392 204 L 395 203 L 396 203 L 396 202 L 399 202 L 400 201 L 401 201 L 402 200 L 402 200 L 407 199 L 408 199 L 409 198 L 413 198 L 415 197 L 419 197 L 420 196 L 421 196 L 422 195 L 423 195 L 423 194 L 426 194 L 429 193 L 430 193 L 431 192 L 432 192 L 434 191 L 434 191 L 434 190 L 434 190 L 435 189 L 435 189 L 435 188 L 437 188 L 437 187 L 437 187 L 438 186 L 443 186 L 449 185 L 449 185 L 449 184 L 453 184 L 456 183 L 456 183 L 457 182 L 458 182 L 460 181 L 460 181 L 460 180 L 460 179 L 460 179 L 460 178 L 460 178 L 461 177 L 461 177 L 462 176 L 465 176 L 465 175 L 465 175 L 465 174 L 465 174 L 466 173 L 466 173 L 466 172 L 466 172 L 466 171 L 466 171 L 466 170 L 466 170 L 471 169 L 474 169 L 474 168 L 475 168 L 488 167 L 489 167 L 493 166 L 496 166 L 504 165 L 507 165 L 509 164 L 510 164 L 510 163 L 510 163 L 510 162 L 510 162 L 510 161 L 510 161 L 512 160 L 513 160 L 523 159 L 525 159 L 529 158 L 536 158 L 542 157 L 546 157 L 549 156 L 554 156 L 554 155 L 566 155 L 577 154 L 577 154 L 585 153 L 585 153 L 592 152 L 593 152 L 596 151 L 596 151 L 597 150 L 597 150 L 601 149 L 602 149 L 605 148 L 610 148 L 611 147 L 612 146 L 613 146 L 617 145 L 621 145 L 621 144 L 626 144 L 631 143 L 632 143 L 632 142 L 634 142 L 635 141 L 636 141 L 640 140 L 643 140 L 646 139 L 649 139 L 649 138 L 655 138 L 656 137 L 660 137 L 665 136 L 665 136 L 671 135 L 672 135 L 672 134 L 674 134 L 674 133 L 677 133 L 677 132 L 680 132 L 684 131 L 685 131 L 685 130 L 685 130 L 695 129 L 695 129 L 696 128 L 696 128 L 696 127 L 697 127 L 697 126 L 698 126 L 699 125 L 701 125 L 701 124 L 703 124 L 704 123 L 704 123 L 705 122 L 706 122 L 706 121 L 707 121 L 707 120 L 707 120 L 708 119 L 708 119 L 708 118 L 709 118 L 710 117 L 712 117 L 712 116 L 712 116 L 713 115 L 714 115 L 715 114 L 717 113 L 717 113 L 718 112 L 719 112 L 721 111 L 721 111 L 722 110 L 722 110 L 725 109 L 725 109 L 725 108 L 725 108 L 726 107 L 726 107 L 726 106 L 727 106 L 727 105 L 728 105 L 732 104 L 734 104 L 735 103 L 736 103 L 738 102 L 740 102 L 741 101 L 743 101 L 747 100 L 749 100 L 752 99 L 753 99 L 754 98 L 754 98 L 754 97 L 755 97 L 755 96 L 755 96 L 757 95 L 757 95 L 757 94 L 757 94 L 759 93 L 760 93 L 760 92 L 761 92 L 762 91 L 765 91 L 765 90 L 765 90 L 767 89 L 768 89 L 771 88 L 774 88 L 779 87 L 779 87 L 779 86 L 779 86 L 782 85 L 784 85 L 785 84 L 785 84 L 785 83 L 786 83 L 788 82 L 792 82 L 792 81 L 792 80 L 792 80 L 795 79 L 796 79 L 796 78 L 796 78 L 796 77 L 799 77 L 804 76 L 804 76 L 809 75 L 809 75 L 810 74 L 814 74 L 816 73 L 819 73 L 821 72 L 823 72 L 825 71 L 825 71 L 825 70 L 826 70 L 826 69 L 826 69 L 827 68 L 827 68 L 828 67 L 829 67 L 829 66 L 829 66 L 830 65 L 832 65 L 832 64 L 838 64 L 839 63 L 845 63 L 847 62 L 848 62 L 849 61 L 850 61 L 853 60 L 853 60 L 854 59 L 854 59 L 855 58 L 855 58 L 855 57 L 856 57 L 856 56 L 857 56 L 857 55 L 857 55 L 857 54 L 857 54 L 858 53 L 858 53 L 859 52 L 860 52 L 860 51 L 861 51 L 862 50 L 863 50 L 863 49 L 864 49 L 864 48 L 866 47 L 869 47 L 869 46 L 869 46 L 870 45 L 870 45 L 871 44 L 871 44 L 871 43 L 873 43 L 875 42 L 879 42 L 882 41 L 884 41 L 885 40 L 890 40 L 894 39 L 895 39 L 898 38 L 903 38 L 903 37 L 904 37 L 910 36 L 911 36 L 912 35 L 913 35 L 913 34 L 924 34 L 924 33 L 925 33 L 926 32 L 926 32 L 927 31 L 928 31 L 929 30 L 929 30 L 930 29 L 930 29 L 931 28 L 932 28 L 932 27 L 932 27 L 932 26 L 932 26 L 933 25 L 933 25 L 934 24 L 935 24 L 936 23 L 937 23 L 938 22 L 938 22 L 938 21 L 939 21 L 940 20 L 941 20 L 942 19 L 943 19 L 943 18 L 943 18 L 943 17 L 945 17" /><path stroke-width="2" class="series" d="M 58 345 L 61 344 L 80 344 L 81 343 L 81 343 L 81 342 L 81 342 L 81 341 L 81 341 L 81 340 L 81 340 L 81 339 L 81 339 L 81 338 L 81 338 L 82 337 L 82 337 L 82 336 L 82 336 L 83 335 L 84 335 L 84 334 L 85 334 L 86 333 L 86 333 L 86 332 L 87 332 L 88 331 L 90 331 L 90 330 L 92 330 L 93 329 L 99 329 L 99 328 L 99 328 L 99 327 L 99 327 L 99 326 L 103 326 L 104 325 L 105 325 L 108 324 L 113 324 L 115 323 L 123 323 L 126 322 L 130 322 L 135 321 L 137 321 L 155 320 L 156 320 L 156 319 L 158 319 L 159 318 L 159 318 L 159 317 L 159 317 L 159 316 L 159 316 L 159 315 L 159 315 L 159 314 L 159 314 L 159 313 L 159 313 L 159 312 L 159 311 L 159 311 L 159 310 L 159 310 L 160 309 L 160 309 L 160 308 L 160 308 L 160 307 L 160 307 L 160 306 L 160 306 L 160 305 L 160 305 L 160 304 L 160 304 L 160 303 L 160 303 L 160 302 L 160 302 L 160 301 L 160 301 L 160 300 L 160 300 L 160 299 L 160 299 L 160 298 L 160 298 L 160 297 L 160 297 L 160 296 L 160 296 L 160 295 L 160 295 L 161 294 L 161 294 L 161 293 L 161 293 L 161 292 L 162 292 L 163 291 L 163 291 L 163 290 L 163 290 L 163 289 L 163 289 L 163 288 L 163 288 L 163 287 L 163 287 L 163 286 L 163 286 L 163 285 L 163 285 L 163 284 L 163 284 L 163 283 L 163 283 L 165 282 L 165 282 L 165 281 L 165 281 L 169 280 L 169 280 L 169 279 L 171 278 L 171 278 L 174 277 L 177 277 L 177 276 L 180 276 L 181 275 L 183 275 L 183 274 L 184 274 L 187 273 L 187 273 L 188 272 L 189 272 L 190 271 L 191 271 L 191 270 L 191 270 L 192 269 L 193 269 L 195 268 L 195 268 L 195 267 L 196 267 L 196 266 L 197 266 L 199 265 L 201 265 L 203 264 L 204 264 L 205 263 L 206 263 L 206 262 L 207 262 L 209 261 L 216 261 L 216 260 L 218 260 L 225 259 L 225 259 L 225 258 L 225 258 L 226 257 L 227 257 L 229 256 L 230 256 L 231 255 L 239 255 L 241 254 L 243 254 L 246 253 L 248 253 L 248 252 L 249 252 L 255 251 L 262 251 L 270 250 L 270 250 L 270 249 L 271 249 L 271 248 L 273 248 L 283 247 L 288 247 L 288 246 L 292 245 L 293 245 L 294 244 L 305 244 L 305 243 L 306 243 L 307 242 L 308 242 L 311 241 L 313 241 L 315 240 L 317 240 L 319 239 L 326 239 L 326 238 L 327 238 L 327 237 L 328 237 L 328 236 L 332 236 L 338 235 L 353 235 L 358 234 L 361 234 L 361 233 L 363 233 L 365 232 L 365 232 L 365 231 L 365 231 L 365 230 L 365 230 L 365 229 L 365 229 L 365 228 L 365 228 L 365 227 L 365 227 L 365 226 L 366 226 L 366 225 L 368 225 L 369 224 L 369 224 L 369 223 L 369 223 L 371 222 L 371 222 L 371 221 L 371 221 L 371 220 L 371 220 L 371 219 L 372 219 L 373 218 L 374 218 L 374 217 L 374 217 L 374 216 L 374 216 L 375 215 L 376 215 L 376 214 L 376 214 L 377 213 L 377 212 L 377 212 L 379 211 L 380 211 L 381 210 L 383 210 L 385 209 L 385 209 L 386 208 L 386 208 L 386 207 L 386 207 L 387 206 L 389 206 L 389 205 L 391 205 L 392 204 L 392 204 L 395 203 L 396 203 L 396 202 L 399 202 L 400 201 L 401 201 L 402 200 L 402 200 L 407 199 L 408 199 L 409 198 L 413 198 L 415 197 L 419 197 L 420 196 L 421 196 L 422 195 L 423 195 L 423 194 L 426 194 L 429 193 L 430 193 L 431 192 L 432 192 L 434 191 L 434 191 L 434 190 L 434 190 L 435 189 L 435 189 L 435 188 L 437 188 L 437 187 L 437 187 L 438 186 L 443 186 L 449 185 L 449 185 L 449 184 L 453 184 L 456 183 L 456 183 L 457 182 L 458 182 L 460 181 L 460 181 L 460 180 L 460 179 L 460 179 L 460 178 L 460 178 L 461 177 L 461 177 L 462 176 L 465 176 L 465 175 L 465 175 L 465 174 L 465 174 L 466 173 L 466 173 L 466 172 L 466 172 L 466 171 L 466 171 L 466 170 L 466 170 L 471 169 L 474 169 L 474 168 L 475 168 L 488 167 L 489 167 L 493 166 L 496 166 L 504 165 L 507 165 L 509 164 L 510 164 L 510 163 L 510 163 L 510 162 L 510 162 L 510 161 L 510 161 L 512 160 L 513 160 L 523 159 L 525 159 L 529 158 L 536 158 L 542 157 L 546 157 L 549 156 L 554 156 L 554 155 L 566 155 L 577 154 L 577 154 L 585 153 L 585 153 L 592 152 L 593 152 L 596 151 L 596 151 L 597 150 L 597 150 L 601 149 L 602 149 L 605 148 L 610 148 L 611 147 L 612 146 L 613 146 L 617 145 L 621 145 L 621 144 L 626 144 L 631 143 L 632 143 L 632 142 L 634 142 L 635 141 L 636 141 L 640 140 L 643 140 L 646 139 L 649 139 L 649 138 L 655 138 L 656 137 L 660 137 L 665 136 L 665 136 L 671 135 L 672 135 L 672 134 L 674 134 L 674 133 L 677 133 L 677 132 L 680 132 L 684 131 L 685 131 L 685 130 L 685 130 L 695 129 L 695 129 L 696 128 L 696 128 L 696 127 L 697 127 L 697 126 L 698 126 L 699 125 L 701 125 L 701 124 L 703 124 L 704 123 L 704 123 L 705 122 L 706 122 L 706 121 L 707 121 L 707 120 L 707 120 L 708 119 L 708 119 L 708 118 L 709 118 L 710 117 L 712 117 L 712 116 L 712 116 L 713 115 L 714 115 L 715 114 L 717 113 L 717 113 L 718 112 L 719 112 L 721 111 L 721 111 L 722 110 L 722 110 L 725 109 L 725 109 L 725 108 L 725 108 L 726 107 L 726 107 L 726 106 L 727 106 L 727 105 L 728 105 L 732 104 L 734 104 L 735 103 L 736 103 L 738 102 L 740 102 L 741 101 L 743 101 L 747 100 L 749 100 L 752 99 L 753 99 L 754 98 L 754 98 L 754 97 L 755 97 L 755 96 L 755 96 L 757 95 L 757 95 L 757 94 L 757 94 L 759 93 L 760 93 L 760 92 L 761 92 L 762 91 L 765 91 L 765 90 L 765 90 L 767 89 L 768 89 L 771 88 L 774 88 L 779 87 L 779 87 L 779 86 L 779 86 L 782 85 L 784 85 L 785 84 L 785 84 L 785 83 L 786 83 L 788 82 L 792 82 L 792 81 L 792 80 L 792 80 L 795 79 L 796 79 L 796 78 L 796 78 L 796 77 L 799 77 L 804 76 L 804 76 L 809 75 L 809 75 L 810 74 L 814 74 L 816 73 L 819 73 L 821 72 L 823 72 L 825 71 L 825 71 L 825 70 L 826 70 L 826 69 L 826 69 L 827 68 L 827 68 L 828 67 L 829 67 L 829 66 L 829 66 L 830 65 L 832 65 L 832 64 L 838 64 L 839 63 L 845 63 L 847 62 L 848 62 L 849 61 L 850 61 L 853 60 L 853 60 L 854 59 L 854 59 L 855 58 L 855 58 L 855 57 L 856 57 L 856 56 L 857 56 L 857 55 L 857 55 L 857 54 L 857 54 L 858 53 L 858 53 L 859 52 L 860 52 L 860 51 L 861 51 L 862 50 L 863 50 L 863 49 L 864 49 L 864 48 L 866 47 L 869 47 L 869 46 L 869 46 L 870 45 L 870 45 L 871 44 L 871 44 L 871 43 L 873 43 L 875 42 L 879 42 L 882 41 L 884 41 L 885 40 L 890 40 L 894 39 L 895 39 L 898 38 L 903 38 L 903 37 L 904 37 L 910 36 L 911 36 L 912 35 L 913 35 L 913 34 L 924 34 L 924 33 L 925 33 L 926 32 L 926 32 L 927 31 L 928 31 L 929 30 L 929 30 L 930 29 L 930 29 L 931 28 L 932 28 L 932 27 L 932 27 L 932 26 L 932 26 L 933 25 L 933 25 L 934 24 L 935 24 L 936 23 L 937 23 L 938 22 L 938 22 L 938 21 L 939 21 L 940 20 L 941 20 L 942 19 L 943 19 L 943 18 L 943 18 L 943 17 L 945 17"></path><path stroke-width="2" d="M 945 346 L 945.000000 15.000000" /><path stroke-width="2" d="M 945 346 L 945.000000 15.000000"></path><path stroke-width="2" d="M 945 346 L 950 346" /><path stroke-width="2" d="M 945 346 L 950 346"></path><text xmlns="http://www.w3.org/2000/svg" x="955" y="352">0</text><path stroke-width="2" d="M 945 308 L 950 308" /><path stroke-width="2" d="M 945 308 L 950 308"></path><text xmlns="http://www.w3.org/2000/svg" x="955" y="314">73</text><path stroke-width="2" d="M 945 272 L 950 272" /><path stroke-width="2" d="M 945 272 L 950 272"></path><text xmlns="http://www.w3.org/2000/svg" x="955" y="278">145</text><path stroke-width="2" d="M 945 235 L 950 235" /><path stroke-width="2" d="M 945 235 L 950 235"></path><text xmlns="http://www.w3.org/2000/svg" x="955" y="241">217</text><path stroke-width="2" d="M 945 199 L 950 199" /><path stroke-width="2" d="M 945 199 L 950 199"></path><text xmlns="http://www.w3.org/2000/svg" x="955" y="205">289</text><path stroke-width="2" d="M 945 162 L 950 162" /><path stroke-width="2" d="M 945 162 L 950 162"></path><text y="168" xmlns="http://www.w3.org/2000/svg" x="955">362</text><path d="M 945 125 L 950 125" stroke-width="2" /><path d="M 945 125 L 950 125" stroke-width="2"></path><text xmlns="http://www.w3.org/2000/svg" x="955" y="131">434</text><path stroke-width="2" d="M 945 89 L 950 89" /><path stroke-width="2" d="M 945 89 L 950 89"></path><text xmlns="http://www.w3.org/2000/svg" x="955" y="95">506</text><path d="M 945 52 L 950 52" stroke-width="2" /><path stroke-width="2" d="M 945 52 L 950 52"></path><text xmlns="http://www.w3.org/2000/svg" x="955" y="58">578</text><path d="M 945 16 L 950 16" stroke-width="2" /><path stroke-width="2" d="M 945 16 L 950 16"></path><text xmlns="http://www.w3.org/2000/svg" x="955" y="22">650</text><text y="175" transform="rotate(90.00,987,175)" xmlns="http://www.w3.org/2000/svg" x="987">Stargazers</text><path stroke-width="2" d="M 57.000000 346.000000 L 945 346" /><path stroke-width="2" d="M 57.000000 346.000000 L 945 346"></path><path stroke-width="2" d="M 58 346 L 58 351" /><path stroke-width="2" d="M 58 346 L 58 351"></path><text xmlns="http://www.w3.org/2000/svg" x="25" y="368">2023-04-02</text><path stroke-width="2" d="M 157 346 L 157 351" /><path stroke-width="2" d="M 157 346 L 157 351"></path><text x="124" y="368" xmlns="http://www.w3.org/2000/svg">2023-06-04</text><path stroke-width="2" d="M 256 346 L 256 351" /><path stroke-width="2" d="M 256 346 L 256 351"></path><text xmlns="http://www.w3.org/2000/svg" x="223" y="368">2023-08-06</text><path stroke-width="2" d="M 354 346 L 354 351" /><path stroke-width="2" d="M 354 346 L 354 351"></path><text x="321" y="368" xmlns="http://www.w3.org/2000/svg">2023-10-08</text><path stroke-width="2" d="M 453 346 L 453 351" /><path stroke-width="2" d="M 453 346 L 453 351"></path><text x="420" y="368" xmlns="http://www.w3.org/2000/svg">2023-12-10</text><path d="M 551 346 L 551 351" stroke-width="2" /><path stroke-width="2" d="M 551 346 L 551 351"></path><text xmlns="http://www.w3.org/2000/svg" x="518" y="368">2024-02-11</text><path stroke-width="2" d="M 650 346 L 650 351" /><path stroke-width="2" d="M 650 346 L 650 351"></path><text y="368" xmlns="http://www.w3.org/2000/svg" x="617">2024-04-14</text><path stroke-width="2" d="M 748 346 L 748 351" /><path stroke-width="2" d="M 748 346 L 748 351"></path><text x="715" y="368" xmlns="http://www.w3.org/2000/svg">2024-06-16</text><path stroke-width="2" d="M 847 346 L 847 351" /><path stroke-width="2" d="M 847 346 L 847 351"></path><text xmlns="http://www.w3.org/2000/svg" x="814" y="368">2024-08-18</text><path stroke-width="2" d="M 945 346 L 945 351" /><path stroke-width="2" d="M 945 346 L 945 351"></path><text xmlns="http://www.w3.org/2000/svg" x="912" y="368">2024-10-21</text><text y="390" xmlns="http://www.w3.org/2000/svg" x="487">Time</text></svg>