<svg width="1024px" height="400px" xmlns="http://www.w3.org/2000/svg" xmlns:xlink="http://www.w3.org/1999/xlink"><style type="text/css">
path { fill: none; stroke: rgb(51,51,51); }
path.series { stroke: #6b63ff; }
rect.background { fill: rgb(255,255,255); stroke: none; }

text {
	stroke-width: 0;
	stroke: none;
	fill: rgba(51,51,51,1.0);
	font-size: 12.8px;
	font-family: 'Roboto Medium', sans-serif;
}
</style><rect x="0" y="0" width="1024px" height="400px" class="background" rx="8" /><rect height="400px" class="background" rx="8" x="0" y="0" width="1024px"></rect><path stroke-width="2" class="series" d="M 58 345 L 63 344 L 93 343 L 94 342 L 94 341 L 94 341 L 94 340 L 94 339 L 94 338 L 94 337 L 94 337 L 94 336 L 95 335 L 95 334 L 95 333 L 95 333 L 95 332 L 95 331 L 96 330 L 96 329 L 97 329 L 98 328 L 98 327 L 100 326 L 102 325 L 102 325 L 102 324 L 103 323 L 105 322 L 108 321 L 108 321 L 111 320 L 113 319 L 122 318 L 122 317 L 122 317 L 122 316 L 122 315 L 123 314 L 128 313 L 130 313 L 132 312 L 136 311 L 144 310 L 147 309 L 160 308 L 164 308 L 171 307 L 179 306 L 182 305 L 210 304 L 212 304 L 212 303 L 215 302 L 216 301 L 216 300 L 216 300 L 216 299 L 216 298 L 216 297 L 216 296 L 216 296 L 217 295 L 217 294 L 217 293 L 217 292 L 218 292 L 218 291 L 218 290 L 218 289 L 218 288 L 218 288 L 218 287 L 218 286 L 218 285 L 218 284 L 218 284 L 218 283 L 218 282 L 218 281 L 218 280 L 218 280 L 218 279 L 218 278 L 218 277 L 218 276 L 218 275 L 218 275 L 218 274 L 218 273 L 218 272 L 218 271 L 218 271 L 218 270 L 218 269 L 218 268 L 218 267 L 219 267 L 219 266 L 219 265 L 219 264 L 219 263 L 220 263 L 220 262 L 220 261 L 221 260 L 221 259 L 223 259 L 223 258 L 223 257 L 223 256 L 223 255 L 223 255 L 223 254 L 223 253 L 223 252 L 223 251 L 223 251 L 223 250 L 223 249 L 223 248 L 223 247 L 223 247 L 223 246 L 224 245 L 226 244 L 226 243 L 226 242 L 226 242 L 233 241 L 233 240 L 233 239 L 236 238 L 236 238 L 240 237 L 245 236 L 246 235 L 250 234 L 252 234 L 255 233 L 255 232 L 256 231 L 261 230 L 261 230 L 263 229 L 265 228 L 266 227 L 267 226 L 268 226 L 268 225 L 269 224 L 271 223 L 273 222 L 273 222 L 274 221 L 275 220 L 275 219 L 277 218 L 280 218 L 282 217 L 287 216 L 288 215 L 290 214 L 292 214 L 292 213 L 292 212 L 295 211 L 307 210 L 308 209 L 309 209 L 321 208 L 321 207 L 321 206 L 321 205 L 322 205 L 324 204 L 327 203 L 329 202 L 330 201 L 343 201 L 346 200 L 349 199 L 354 198 L 357 197 L 357 197 L 359 196 L 368 195 L 379 194 L 391 193 L 393 193 L 393 192 L 393 191 L 394 190 L 396 189 L 413 189 L 421 188 L 421 187 L 427 186 L 429 185 L 430 185 L 448 184 L 448 183 L 449 182 L 450 181 L 452 181 L 457 180 L 459 179 L 463 178 L 466 177 L 470 176 L 480 176 L 480 175 L 482 174 L 482 173 L 483 172 L 484 172 L 489 171 L 489 170 L 500 169 L 514 168 L 522 168 L 531 167 L 531 166 L 535 165 L 536 164 L 539 164 L 541 163 L 541 162 L 541 161 L 541 160 L 541 160 L 541 159 L 541 158 L 541 157 L 542 156 L 542 156 L 542 155 L 542 154 L 542 153 L 543 152 L 544 152 L 545 151 L 547 150 L 548 149 L 548 148 L 548 148 L 548 147 L 551 146 L 551 145 L 551 144 L 551 143 L 551 143 L 552 142 L 552 141 L 553 140 L 555 139 L 555 139 L 556 138 L 556 137 L 556 136 L 556 135 L 558 135 L 558 134 L 558 133 L 559 132 L 560 131 L 561 131 L 561 130 L 563 129 L 565 128 L 566 127 L 569 127 L 574 126 L 574 125 L 575 124 L 575 123 L 575 123 L 576 122 L 576 121 L 579 120 L 580 119 L 583 119 L 583 118 L 585 117 L 588 116 L 591 115 L 591 115 L 596 114 L 597 113 L 598 112 L 600 111 L 600 110 L 608 110 L 610 109 L 611 108 L 617 107 L 620 106 L 627 106 L 629 105 L 630 104 L 632 103 L 632 102 L 632 102 L 638 101 L 642 100 L 645 99 L 645 98 L 648 98 L 650 97 L 650 96 L 650 95 L 650 94 L 651 94 L 652 93 L 652 92 L 654 91 L 654 90 L 655 90 L 656 89 L 664 88 L 674 87 L 674 86 L 674 86 L 681 85 L 684 84 L 686 83 L 687 82 L 689 82 L 691 81 L 691 80 L 691 79 L 691 78 L 691 77 L 692 77 L 692 76 L 693 75 L 693 74 L 694 73 L 699 73 L 699 72 L 699 71 L 699 70 L 700 69 L 700 69 L 701 68 L 701 67 L 701 66 L 701 65 L 701 65 L 701 64 L 701 63 L 704 62 L 709 61 L 714 61 L 714 60 L 715 59 L 725 58 L 736 57 L 738 57 L 744 56 L 749 55 L 761 54 L 765 53 L 769 53 L 769 52 L 770 51 L 770 50 L 770 49 L 770 49 L 770 48 L 770 47 L 773 46 L 775 45 L 790 44 L 794 44 L 800 43 L 812 42 L 820 41 L 827 40 L 832 40 L 840 39 L 840 38 L 858 37 L 876 36 L 876 36 L 888 35 L 889 34 L 899 33 L 901 32 L 906 32 L 906 31 L 907 30 L 908 29 L 913 28 L 916 28 L 920 27 L 928 26 L 929 25 L 931 24 L 932 24 L 939 23 L 945 22 L 945 21" /><path stroke-width="2" class="series" d="M 58 345 L 63 344 L 93 343 L 94 342 L 94 341 L 94 341 L 94 340 L 94 339 L 94 338 L 94 337 L 94 337 L 94 336 L 95 335 L 95 334 L 95 333 L 95 333 L 95 332 L 95 331 L 96 330 L 96 329 L 97 329 L 98 328 L 98 327 L 100 326 L 102 325 L 102 325 L 102 324 L 103 323 L 105 322 L 108 321 L 108 321 L 111 320 L 113 319 L 122 318 L 122 317 L 122 317 L 122 316 L 122 315 L 123 314 L 128 313 L 130 313 L 132 312 L 136 311 L 144 310 L 147 309 L 160 308 L 164 308 L 171 307 L 179 306 L 182 305 L 210 304 L 212 304 L 212 303 L 215 302 L 216 301 L 216 300 L 216 300 L 216 299 L 216 298 L 216 297 L 216 296 L 216 296 L 217 295 L 217 294 L 217 293 L 217 292 L 218 292 L 218 291 L 218 290 L 218 289 L 218 288 L 218 288 L 218 287 L 218 286 L 218 285 L 218 284 L 218 284 L 218 283 L 218 282 L 218 281 L 218 280 L 218 280 L 218 279 L 218 278 L 218 277 L 218 276 L 218 275 L 218 275 L 218 274 L 218 273 L 218 272 L 218 271 L 218 271 L 218 270 L 218 269 L 218 268 L 218 267 L 219 267 L 219 266 L 219 265 L 219 264 L 219 263 L 220 263 L 220 262 L 220 261 L 221 260 L 221 259 L 223 259 L 223 258 L 223 257 L 223 256 L 223 255 L 223 255 L 223 254 L 223 253 L 223 252 L 223 251 L 223 251 L 223 250 L 223 249 L 223 248 L 223 247 L 223 247 L 223 246 L 224 245 L 226 244 L 226 243 L 226 242 L 226 242 L 233 241 L 233 240 L 233 239 L 236 238 L 236 238 L 240 237 L 245 236 L 246 235 L 250 234 L 252 234 L 255 233 L 255 232 L 256 231 L 261 230 L 261 230 L 263 229 L 265 228 L 266 227 L 267 226 L 268 226 L 268 225 L 269 224 L 271 223 L 273 222 L 273 222 L 274 221 L 275 220 L 275 219 L 277 218 L 280 218 L 282 217 L 287 216 L 288 215 L 290 214 L 292 214 L 292 213 L 292 212 L 295 211 L 307 210 L 308 209 L 309 209 L 321 208 L 321 207 L 321 206 L 321 205 L 322 205 L 324 204 L 327 203 L 329 202 L 330 201 L 343 201 L 346 200 L 349 199 L 354 198 L 357 197 L 357 197 L 359 196 L 368 195 L 379 194 L 391 193 L 393 193 L 393 192 L 393 191 L 394 190 L 396 189 L 413 189 L 421 188 L 421 187 L 427 186 L 429 185 L 430 185 L 448 184 L 448 183 L 449 182 L 450 181 L 452 181 L 457 180 L 459 179 L 463 178 L 466 177 L 470 176 L 480 176 L 480 175 L 482 174 L 482 173 L 483 172 L 484 172 L 489 171 L 489 170 L 500 169 L 514 168 L 522 168 L 531 167 L 531 166 L 535 165 L 536 164 L 539 164 L 541 163 L 541 162 L 541 161 L 541 160 L 541 160 L 541 159 L 541 158 L 541 157 L 542 156 L 542 156 L 542 155 L 542 154 L 542 153 L 543 152 L 544 152 L 545 151 L 547 150 L 548 149 L 548 148 L 548 148 L 548 147 L 551 146 L 551 145 L 551 144 L 551 143 L 551 143 L 552 142 L 552 141 L 553 140 L 555 139 L 555 139 L 556 138 L 556 137 L 556 136 L 556 135 L 558 135 L 558 134 L 558 133 L 559 132 L 560 131 L 561 131 L 561 130 L 563 129 L 565 128 L 566 127 L 569 127 L 574 126 L 574 125 L 575 124 L 575 123 L 575 123 L 576 122 L 576 121 L 579 120 L 580 119 L 583 119 L 583 118 L 585 117 L 588 116 L 591 115 L 591 115 L 596 114 L 597 113 L 598 112 L 600 111 L 600 110 L 608 110 L 610 109 L 611 108 L 617 107 L 620 106 L 627 106 L 629 105 L 630 104 L 632 103 L 632 102 L 632 102 L 638 101 L 642 100 L 645 99 L 645 98 L 648 98 L 650 97 L 650 96 L 650 95 L 650 94 L 651 94 L 652 93 L 652 92 L 654 91 L 654 90 L 655 90 L 656 89 L 664 88 L 674 87 L 674 86 L 674 86 L 681 85 L 684 84 L 686 83 L 687 82 L 689 82 L 691 81 L 691 80 L 691 79 L 691 78 L 691 77 L 692 77 L 692 76 L 693 75 L 693 74 L 694 73 L 699 73 L 699 72 L 699 71 L 699 70 L 700 69 L 700 69 L 701 68 L 701 67 L 701 66 L 701 65 L 701 65 L 701 64 L 701 63 L 704 62 L 709 61 L 714 61 L 714 60 L 715 59 L 725 58 L 736 57 L 738 57 L 744 56 L 749 55 L 761 54 L 765 53 L 769 53 L 769 52 L 770 51 L 770 50 L 770 49 L 770 49 L 770 48 L 770 47 L 773 46 L 775 45 L 790 44 L 794 44 L 800 43 L 812 42 L 820 41 L 827 40 L 832 40 L 840 39 L 840 38 L 858 37 L 876 36 L 876 36 L 888 35 L 889 34 L 899 33 L 901 32 L 906 32 L 906 31 L 907 30 L 908 29 L 913 28 L 916 28 L 920 27 L 928 26 L 929 25 L 931 24 L 932 24 L 939 23 L 945 22 L 945 21"></path><path stroke-width="2" d="M 945 346 L 945.000000 15.000000" /><path stroke-width="2" d="M 945 346 L 945.000000 15.000000"></path><path stroke-width="2" d="M 945 346 L 950 346" /><path stroke-width="2" d="M 945 346 L 950 346"></path><text x="955" y="352" xmlns="http://www.w3.org/2000/svg">0</text><path d="M 945 308 L 950 308" stroke-width="2" /><path stroke-width="2" d="M 945 308 L 950 308"></path><text xmlns="http://www.w3.org/2000/svg" x="955" y="314">46</text><path stroke-width="2" d="M 945 271 L 950 271" /><path stroke-width="2" d="M 945 271 L 950 271"></path><text y="277" xmlns="http://www.w3.org/2000/svg" x="955">92</text><path d="M 945 235 L 950 235" stroke-width="2" /><path stroke-width="2" d="M 945 235 L 950 235"></path><text xmlns="http://www.w3.org/2000/svg" x="955" y="241">137</text><path stroke-width="2" d="M 945 198 L 950 198" /><path stroke-width="2" d="M 945 198 L 950 198"></path><text x="955" y="204" xmlns="http://www.w3.org/2000/svg">183</text><path stroke-width="2" d="M 945 162 L 950 162" /><path stroke-width="2" d="M 945 162 L 950 162"></path><text x="955" y="168" xmlns="http://www.w3.org/2000/svg">228</text><path stroke-width="2" d="M 945 125 L 950 125" /><path stroke-width="2" d="M 945 125 L 950 125"></path><text xmlns="http://www.w3.org/2000/svg" x="955" y="131">274</text><path stroke-width="2" d="M 945 89 L 950 89" /><path stroke-width="2" d="M 945 89 L 950 89"></path><text xmlns="http://www.w3.org/2000/svg" x="955" y="95">319</text><path stroke-width="2" d="M 945 52 L 950 52" /><path stroke-width="2" d="M 945 52 L 950 52"></path><text xmlns="http://www.w3.org/2000/svg" x="955" y="58">365</text><path stroke-width="2" d="M 945 16 L 950 16" /><path stroke-width="2" d="M 945 16 L 950 16"></path><text xmlns="http://www.w3.org/2000/svg" x="955" y="22">410</text><text xmlns="http://www.w3.org/2000/svg" x="987" y="175" transform="rotate(90.00,987,175)">Stargazers</text><path stroke-width="2" d="M 57.000000 346.000000 L 945 346" /><path stroke-width="2" d="M 57.000000 346.000000 L 945 346"></path><path d="M 58 346 L 58 351" stroke-width="2" /><path stroke-width="2" d="M 58 346 L 58 351"></path><text xmlns="http://www.w3.org/2000/svg" x="25" y="368">2023-04-02</text><path stroke-width="2" d="M 157 346 L 157 351" /><path stroke-width="2" d="M 157 346 L 157 351"></path><text xmlns="http://www.w3.org/2000/svg" x="124" y="368">2023-05-12</text><path stroke-width="2" d="M 256 346 L 256 351" /><path stroke-width="2" d="M 256 346 L 256 351"></path><text xmlns="http://www.w3.org/2000/svg" x="223" y="368">2023-06-21</text><path stroke-width="2" d="M 354 346 L 354 351" /><path stroke-width="2" d="M 354 346 L 354 351"></path><text xmlns="http://www.w3.org/2000/svg" x="321" y="368">2023-07-31</text><path stroke-width="2" d="M 453 346 L 453 351" /><path stroke-width="2" d="M 453 346 L 453 351"></path><text xmlns="http://www.w3.org/2000/svg" x="420" y="368">2023-09-09</text><path stroke-width="2" d="M 551 346 L 551 351" /><path stroke-width="2" d="M 551 346 L 551 351"></path><text y="368" xmlns="http://www.w3.org/2000/svg" x="518">2023-10-19</text><path stroke-width="2" d="M 650 346 L 650 351" /><path stroke-width="2" d="M 650 346 L 650 351"></path><text xmlns="http://www.w3.org/2000/svg" x="617" y="368">2023-11-28</text><path stroke-width="2" d="M 748 346 L 748 351" /><path stroke-width="2" d="M 748 346 L 748 351"></path><text xmlns="http://www.w3.org/2000/svg" x="715" y="368">2024-01-07</text><path stroke-width="2" d="M 847 346 L 847 351" /><path stroke-width="2" d="M 847 346 L 847 351"></path><text xmlns="http://www.w3.org/2000/svg" x="814" y="368">2024-02-16</text><path stroke-width="2" d="M 945 346 L 945 351" /><path d="M 945 346 L 945 351" stroke-width="2"></path><text xmlns="http://www.w3.org/2000/svg" x="912" y="368">2024-03-27</text><text xmlns="http://www.w3.org/2000/svg" x="487" y="390">Time</text></svg>