<svg xmlns="http://www.w3.org/2000/svg" xmlns:xlink="http://www.w3.org/1999/xlink" width="1024px" height="400px"><style type="text/css">
path { fill: none; stroke: rgb(51,51,51); }
path.series { stroke: #6b63ff; }
rect.background { fill: rgb(255,255,255); stroke: none; }

text {
	stroke-width: 0;
	stroke: none;
	fill: rgba(51,51,51,1.0);
	font-size: 12.8px;
	font-family: 'Roboto Medium', sans-serif;
}
</style><rect class="background" rx="8" x="0" y="0" width="1024px" height="400px" /><rect x="0" y="0" width="1024px" height="400px" class="background" rx="8"></rect><path stroke-width="2" class="series" d="M 58 345 L 60 345 L 72 345 L 73 344 L 73 344 L 73 344 L 73 343 L 73 343 L 73 343 L 73 343 L 73 342 L 73 342 L 73 342 L 73 341 L 73 341 L 73 341 L 73 340 L 73 340 L 73 340 L 74 340 L 74 339 L 75 339 L 75 339 L 76 338 L 76 338 L 76 338 L 76 337 L 77 337 L 78 337 L 79 337 L 79 336 L 80 336 L 84 336 L 84 335 L 84 335 L 84 335 L 84 334 L 86 334 L 87 334 L 88 334 L 90 333 L 93 333 L 94 333 L 99 332 L 101 332 L 104 332 L 107 331 L 108 331 L 120 331 L 120 331 L 122 330 L 122 330 L 122 330 L 122 329 L 122 329 L 122 329 L 122 328 L 122 328 L 122 328 L 122 328 L 122 327 L 122 327 L 122 327 L 123 326 L 123 326 L 123 326 L 123 325 L 123 325 L 123 325 L 123 325 L 123 324 L 123 324 L 123 324 L 123 323 L 123 323 L 123 323 L 123 322 L 123 322 L 123 322 L 123 322 L 123 321 L 123 321 L 123 321 L 123 320 L 123 320 L 123 320 L 123 319 L 123 319 L 123 319 L 123 319 L 123 318 L 123 318 L 123 318 L 123 317 L 123 317 L 123 317 L 123 316 L 123 316 L 123 316 L 124 316 L 124 315 L 124 315 L 124 315 L 124 314 L 125 314 L 125 314 L 125 313 L 125 313 L 125 313 L 125 313 L 125 312 L 125 312 L 125 312 L 125 311 L 125 311 L 125 311 L 125 310 L 125 310 L 125 310 L 125 310 L 125 309 L 125 309 L 126 309 L 126 308 L 126 308 L 126 308 L 129 307 L 129 307 L 129 307 L 130 307 L 130 306 L 132 306 L 134 306 L 134 305 L 136 305 L 136 305 L 138 304 L 138 304 L 138 304 L 140 304 L 140 303 L 141 303 L 142 303 L 142 302 L 143 302 L 143 302 L 143 301 L 143 301 L 144 301 L 145 301 L 145 300 L 145 300 L 146 300 L 146 299 L 146 299 L 148 299 L 149 298 L 150 298 L 151 298 L 152 298 L 152 297 L 152 297 L 153 297 L 154 296 L 159 296 L 159 296 L 160 295 L 164 295 L 164 295 L 164 295 L 164 294 L 165 294 L 165 294 L 167 293 L 168 293 L 168 293 L 173 292 L 174 292 L 176 292 L 177 292 L 179 291 L 179 291 L 179 291 L 183 290 L 188 290 L 193 290 L 193 289 L 193 289 L 193 289 L 194 289 L 201 288 L 204 288 L 205 288 L 207 287 L 208 287 L 208 287 L 215 286 L 215 286 L 216 286 L 216 286 L 217 285 L 219 285 L 220 285 L 222 284 L 222 284 L 224 284 L 228 283 L 228 283 L 229 283 L 229 283 L 229 282 L 230 282 L 232 282 L 236 281 L 245 281 L 249 281 L 251 280 L 251 280 L 253 280 L 253 280 L 253 279 L 253 279 L 253 279 L 253 278 L 253 278 L 253 278 L 253 277 L 253 277 L 253 277 L 253 277 L 253 276 L 254 276 L 254 276 L 256 275 L 256 275 L 256 275 L 256 274 L 257 274 L 257 274 L 257 274 L 257 273 L 257 273 L 257 273 L 257 272 L 258 272 L 258 272 L 259 271 L 259 271 L 259 271 L 259 271 L 259 270 L 260 270 L 260 270 L 260 269 L 261 269 L 261 269 L 261 268 L 262 268 L 263 268 L 263 268 L 264 267 L 266 267 L 266 267 L 267 266 L 267 266 L 267 266 L 267 265 L 267 265 L 268 265 L 269 265 L 270 264 L 270 264 L 271 264 L 272 263 L 273 263 L 273 263 L 275 262 L 275 262 L 276 262 L 276 262 L 276 261 L 280 261 L 281 261 L 281 260 L 284 260 L 285 260 L 288 259 L 288 259 L 289 259 L 289 259 L 290 258 L 290 258 L 292 258 L 294 257 L 295 257 L 295 257 L 297 256 L 297 256 L 297 256 L 297 256 L 297 255 L 298 255 L 298 255 L 299 254 L 299 254 L 299 254 L 299 253 L 303 253 L 307 253 L 307 253 L 307 252 L 309 252 L 311 252 L 311 251 L 312 251 L 312 251 L 313 250 L 313 250 L 313 250 L 313 250 L 313 249 L 314 249 L 314 249 L 314 248 L 314 248 L 315 248 L 317 247 L 317 247 L 317 247 L 317 247 L 317 246 L 317 246 L 317 246 L 317 245 L 317 245 L 317 245 L 317 244 L 317 244 L 317 244 L 320 244 L 322 243 L 322 243 L 323 243 L 331 242 L 332 242 L 335 242 L 336 241 L 343 241 L 345 241 L 345 241 L 345 240 L 345 240 L 345 240 L 345 239 L 345 239 L 346 239 L 347 238 L 353 238 L 355 238 L 357 238 L 362 237 L 365 237 L 368 237 L 370 236 L 373 236 L 373 236 L 381 235 L 388 235 L 388 235 L 393 235 L 393 234 L 397 234 L 398 234 L 400 233 L 400 233 L 401 233 L 401 232 L 403 232 L 404 232 L 406 232 L 409 231 L 409 231 L 410 231 L 410 230 L 413 230 L 416 230 L 416 229 L 419 229 L 422 229 L 422 229 L 423 228 L 424 228 L 425 228 L 425 227 L 428 227 L 430 227 L 432 226 L 434 226 L 434 226 L 437 226 L 438 225 L 440 225 L 444 225 L 444 224 L 448 224 L 448 224 L 448 223 L 449 223 L 450 223 L 451 223 L 452 222 L 453 222 L 455 222 L 456 221 L 456 221 L 457 221 L 462 220 L 463 220 L 463 220 L 463 220 L 463 219 L 464 219 L 464 219 L 465 218 L 465 218 L 466 218 L 466 217 L 468 217 L 468 217 L 469 217 L 469 216 L 470 216 L 470 216 L 470 215 L 470 215 L 470 215 L 471 214 L 471 214 L 471 214 L 472 214 L 472 213 L 473 213 L 473 213 L 474 212 L 474 212 L 475 212 L 476 211 L 476 211 L 477 211 L 477 211 L 478 210 L 479 210 L 479 210 L 480 209 L 480 209 L 482 209 L 482 208 L 482 208 L 482 208 L 482 208 L 482 207 L 482 207 L 483 207 L 483 206 L 484 206 L 486 206 L 487 205 L 488 205 L 488 205 L 490 205 L 491 204 L 492 204 L 493 204 L 495 203 L 497 203 L 499 203 L 500 202 L 500 202 L 500 202 L 500 202 L 501 201 L 501 201 L 501 201 L 502 200 L 502 200 L 502 200 L 502 199 L 503 199 L 504 199 L 504 199 L 505 198 L 505 198 L 507 198 L 507 197 L 507 197 L 508 197 L 509 196 L 511 196 L 516 196 L 516 196 L 516 195 L 516 195 L 518 195 L 520 194 L 520 194 L 520 194 L 520 193 L 520 193 L 522 193 L 524 193 L 525 192 L 525 192 L 525 192 L 526 191 L 527 191 L 527 191 L 527 190 L 529 190 L 532 190 L 532 190 L 535 189 L 535 189 L 536 189 L 538 188 L 539 188 L 541 188 L 543 187 L 544 187 L 545 187 L 545 187 L 545 186 L 546 186 L 546 186 L 546 185 L 547 185 L 547 185 L 547 184 L 548 184 L 548 184 L 548 184 L 549 183 L 549 183 L 550 183 L 554 182 L 554 182 L 558 182 L 560 181 L 560 181 L 560 181 L 561 181 L 563 180 L 564 180 L 564 180 L 564 179 L 564 179 L 565 179 L 565 178 L 565 178 L 565 178 L 565 178 L 565 177 L 565 177 L 566 177 L 566 176 L 567 176 L 568 176 L 568 175 L 568 175 L 569 175 L 570 175 L 570 174 L 570 174 L 570 174 L 571 173 L 573 173 L 574 173 L 574 172 L 574 172 L 574 172 L 574 172 L 575 171 L 575 171 L 576 171 L 577 170 L 579 170 L 582 170 L 582 169 L 584 169 L 586 169 L 589 169 L 590 168 L 592 168 L 595 168 L 595 167 L 595 167 L 599 167 L 600 166 L 601 166 L 601 166 L 601 166 L 608 165 L 608 165 L 609 165 L 609 164 L 610 164 L 610 164 L 611 163 L 611 163 L 611 163 L 612 163 L 612 162 L 613 162 L 613 162 L 613 161 L 613 161 L 613 161 L 613 160 L 614 160 L 614 160 L 615 160 L 616 159 L 617 159 L 617 159 L 617 158 L 618 158 L 618 158 L 619 157 L 619 157 L 620 157 L 620 157 L 620 156 L 620 156 L 622 156 L 622 155 L 623 155 L 623 155 L 624 154 L 625 154 L 625 154 L 625 154 L 625 153 L 625 153 L 626 153 L 626 152 L 626 152 L 627 152 L 627 151 L 628 151 L 629 151 L 629 151 L 629 150 L 629 150 L 629 150 L 630 149 L 630 149 L 630 149 L 631 148 L 631 148 L 631 148 L 632 148 L 632 147 L 632 147 L 632 147 L 632 146 L 632 146 L 633 146 L 633 145 L 633 145 L 633 145 L 633 145 L 635 144 L 636 144 L 638 144 L 638 143 L 638 143 L 638 143 L 639 142 L 640 142 L 640 142 L 641 142 L 643 141 L 645 141 L 645 141 L 646 140 L 647 140 L 647 140 L 648 139 L 648 139 L 648 139 L 648 139 L 648 138 L 648 138 L 648 138 L 648 137 L 649 137 L 649 137 L 649 136 L 649 136 L 649 136 L 650 136 L 650 135 L 650 135 L 650 135 L 651 134 L 652 134 L 653 134 L 653 133 L 653 133 L 654 133 L 654 132 L 655 132 L 658 132 L 658 132 L 658 131 L 658 131 L 658 131 L 660 130 L 662 130 L 662 130 L 664 130 L 664 129 L 664 129 L 664 129 L 665 128 L 669 128 L 670 128 L 673 127 L 674 127 L 675 127 L 676 126 L 676 126 L 677 126 L 677 126 L 677 125 L 677 125 L 678 125 L 678 124 L 679 124 L 680 124 L 681 124 L 681 123 L 681 123 L 681 123 L 681 122 L 681 122 L 681 122 L 681 121 L 681 121 L 681 121 L 682 121 L 682 120 L 682 120 L 682 120 L 682 119 L 682 119 L 682 119 L 682 118 L 682 118 L 683 118 L 683 118 L 683 117 L 683 117 L 683 117 L 683 116 L 684 116 L 684 116 L 685 115 L 685 115 L 685 115 L 685 115 L 685 114 L 685 114 L 686 114 L 687 113 L 688 113 L 689 113 L 689 112 L 690 112 L 690 112 L 690 112 L 691 111 L 693 111 L 694 111 L 695 110 L 695 110 L 695 110 L 695 109 L 695 109 L 695 109 L 695 109 L 696 108 L 697 108 L 697 108 L 700 107 L 701 107 L 702 107 L 704 106 L 705 106 L 706 106 L 706 106 L 706 105 L 706 105 L 707 105 L 707 104 L 707 104 L 708 104 L 709 103 L 709 103 L 709 103 L 709 103 L 709 102 L 709 102 L 709 102 L 710 101 L 710 101 L 710 101 L 710 100 L 710 100 L 712 100 L 712 100 L 712 99 L 713 99 L 713 99 L 713 98 L 714 98 L 714 98 L 714 97 L 714 97 L 715 97 L 716 97 L 716 96 L 720 96 L 720 96 L 721 95 L 724 95 L 724 95 L 725 94 L 728 94 L 728 94 L 729 94 L 731 93 L 736 93 L 736 93 L 738 92 L 739 92 L 741 92 L 741 91 L 741 91 L 743 91 L 744 91 L 744 90 L 745 90 L 746 90 L 747 89 L 748 89 L 748 89 L 749 88 L 749 88 L 749 88 L 750 88 L 753 87 L 753 87 L 754 87 L 755 86 L 755 86 L 756 86 L 757 85 L 758 85 L 758 85 L 758 85 L 758 84 L 759 84 L 760 84 L 760 83 L 761 83 L 762 83 L 762 82 L 762 82 L 763 82 L 764 82 L 764 81 L 764 81 L 765 81 L 765 80 L 765 80 L 765 80 L 765 79 L 765 79 L 766 79 L 768 79 L 769 78 L 770 78 L 772 78 L 773 77 L 774 77 L 775 77 L 777 76 L 779 76 L 781 76 L 782 76 L 783 75 L 783 75 L 785 75 L 787 74 L 789 74 L 789 74 L 789 73 L 789 73 L 789 73 L 789 73 L 790 72 L 791 72 L 792 72 L 792 71 L 793 71 L 793 71 L 798 70 L 799 70 L 800 70 L 802 70 L 803 69 L 804 69 L 804 69 L 805 68 L 805 68 L 805 68 L 806 67 L 807 67 L 807 67 L 807 67 L 808 66 L 808 66 L 808 66 L 809 65 L 810 65 L 810 65 L 813 64 L 813 64 L 818 64 L 818 64 L 819 63 L 820 63 L 820 63 L 821 62 L 821 62 L 821 62 L 824 61 L 825 61 L 826 61 L 826 61 L 827 60 L 827 60 L 828 60 L 829 59 L 831 59 L 831 59 L 832 58 L 832 58 L 833 58 L 833 58 L 833 57 L 834 57 L 834 57 L 834 56 L 836 56 L 836 56 L 837 55 L 838 55 L 838 55 L 838 55 L 838 54 L 839 54 L 841 54 L 845 53 L 846 53 L 849 53 L 850 52 L 852 52 L 852 52 L 853 52 L 853 51 L 855 51 L 855 51 L 856 50 L 858 50 L 859 50 L 862 49 L 867 49 L 867 49 L 867 49 L 867 48 L 867 48 L 869 48 L 869 47 L 869 47 L 877 47 L 880 46 L 880 46 L 881 46 L 883 46 L 885 45 L 887 45 L 888 45 L 888 44 L 889 44 L 890 44 L 895 43 L 896 43 L 897 43 L 898 43 L 900 42 L 901 42 L 901 42 L 901 41 L 901 41 L 901 41 L 902 40 L 902 40 L 904 40 L 905 40 L 906 39 L 907 39 L 907 39 L 908 38 L 910 38 L 913 38 L 915 37 L 915 37 L 917 37 L 917 37 L 917 36 L 917 36 L 917 36 L 918 35 L 918 35 L 920 35 L 921 34 L 921 34 L 921 34 L 922 34 L 922 33 L 922 33 L 922 33 L 922 32 L 922 32 L 922 32 L 923 31 L 923 31 L 923 31 L 924 31 L 924 30 L 925 30 L 925 30 L 925 29 L 925 29 L 925 29 L 927 28 L 932 28 L 932 28 L 934 28 L 934 27 L 934 27 L 934 27 L 934 26 L 934 26 L 934 26 L 934 25 L 934 25 L 934 25 L 934 25 L 934 24 L 935 24 L 935 24 L 935 23 L 935 23 L 935 23 L 935 22 L 935 22 L 936 22 L 936 22 L 936 21 L 937 21 L 937 21" /><path class="series" d="M 58 345 L 60 345 L 72 345 L 73 344 L 73 344 L 73 344 L 73 343 L 73 343 L 73 343 L 73 343 L 73 342 L 73 342 L 73 342 L 73 341 L 73 341 L 73 341 L 73 340 L 73 340 L 73 340 L 74 340 L 74 339 L 75 339 L 75 339 L 76 338 L 76 338 L 76 338 L 76 337 L 77 337 L 78 337 L 79 337 L 79 336 L 80 336 L 84 336 L 84 335 L 84 335 L 84 335 L 84 334 L 86 334 L 87 334 L 88 334 L 90 333 L 93 333 L 94 333 L 99 332 L 101 332 L 104 332 L 107 331 L 108 331 L 120 331 L 120 331 L 122 330 L 122 330 L 122 330 L 122 329 L 122 329 L 122 329 L 122 328 L 122 328 L 122 328 L 122 328 L 122 327 L 122 327 L 122 327 L 123 326 L 123 326 L 123 326 L 123 325 L 123 325 L 123 325 L 123 325 L 123 324 L 123 324 L 123 324 L 123 323 L 123 323 L 123 323 L 123 322 L 123 322 L 123 322 L 123 322 L 123 321 L 123 321 L 123 321 L 123 320 L 123 320 L 123 320 L 123 319 L 123 319 L 123 319 L 123 319 L 123 318 L 123 318 L 123 318 L 123 317 L 123 317 L 123 317 L 123 316 L 123 316 L 123 316 L 124 316 L 124 315 L 124 315 L 124 315 L 124 314 L 125 314 L 125 314 L 125 313 L 125 313 L 125 313 L 125 313 L 125 312 L 125 312 L 125 312 L 125 311 L 125 311 L 125 311 L 125 310 L 125 310 L 125 310 L 125 310 L 125 309 L 125 309 L 126 309 L 126 308 L 126 308 L 126 308 L 129 307 L 129 307 L 129 307 L 130 307 L 130 306 L 132 306 L 134 306 L 134 305 L 136 305 L 136 305 L 138 304 L 138 304 L 138 304 L 140 304 L 140 303 L 141 303 L 142 303 L 142 302 L 143 302 L 143 302 L 143 301 L 143 301 L 144 301 L 145 301 L 145 300 L 145 300 L 146 300 L 146 299 L 146 299 L 148 299 L 149 298 L 150 298 L 151 298 L 152 298 L 152 297 L 152 297 L 153 297 L 154 296 L 159 296 L 159 296 L 160 295 L 164 295 L 164 295 L 164 295 L 164 294 L 165 294 L 165 294 L 167 293 L 168 293 L 168 293 L 173 292 L 174 292 L 176 292 L 177 292 L 179 291 L 179 291 L 179 291 L 183 290 L 188 290 L 193 290 L 193 289 L 193 289 L 193 289 L 194 289 L 201 288 L 204 288 L 205 288 L 207 287 L 208 287 L 208 287 L 215 286 L 215 286 L 216 286 L 216 286 L 217 285 L 219 285 L 220 285 L 222 284 L 222 284 L 224 284 L 228 283 L 228 283 L 229 283 L 229 283 L 229 282 L 230 282 L 232 282 L 236 281 L 245 281 L 249 281 L 251 280 L 251 280 L 253 280 L 253 280 L 253 279 L 253 279 L 253 279 L 253 278 L 253 278 L 253 278 L 253 277 L 253 277 L 253 277 L 253 277 L 253 276 L 254 276 L 254 276 L 256 275 L 256 275 L 256 275 L 256 274 L 257 274 L 257 274 L 257 274 L 257 273 L 257 273 L 257 273 L 257 272 L 258 272 L 258 272 L 259 271 L 259 271 L 259 271 L 259 271 L 259 270 L 260 270 L 260 270 L 260 269 L 261 269 L 261 269 L 261 268 L 262 268 L 263 268 L 263 268 L 264 267 L 266 267 L 266 267 L 267 266 L 267 266 L 267 266 L 267 265 L 267 265 L 268 265 L 269 265 L 270 264 L 270 264 L 271 264 L 272 263 L 273 263 L 273 263 L 275 262 L 275 262 L 276 262 L 276 262 L 276 261 L 280 261 L 281 261 L 281 260 L 284 260 L 285 260 L 288 259 L 288 259 L 289 259 L 289 259 L 290 258 L 290 258 L 292 258 L 294 257 L 295 257 L 295 257 L 297 256 L 297 256 L 297 256 L 297 256 L 297 255 L 298 255 L 298 255 L 299 254 L 299 254 L 299 254 L 299 253 L 303 253 L 307 253 L 307 253 L 307 252 L 309 252 L 311 252 L 311 251 L 312 251 L 312 251 L 313 250 L 313 250 L 313 250 L 313 250 L 313 249 L 314 249 L 314 249 L 314 248 L 314 248 L 315 248 L 317 247 L 317 247 L 317 247 L 317 247 L 317 246 L 317 246 L 317 246 L 317 245 L 317 245 L 317 245 L 317 244 L 317 244 L 317 244 L 320 244 L 322 243 L 322 243 L 323 243 L 331 242 L 332 242 L 335 242 L 336 241 L 343 241 L 345 241 L 345 241 L 345 240 L 345 240 L 345 240 L 345 239 L 345 239 L 346 239 L 347 238 L 353 238 L 355 238 L 357 238 L 362 237 L 365 237 L 368 237 L 370 236 L 373 236 L 373 236 L 381 235 L 388 235 L 388 235 L 393 235 L 393 234 L 397 234 L 398 234 L 400 233 L 400 233 L 401 233 L 401 232 L 403 232 L 404 232 L 406 232 L 409 231 L 409 231 L 410 231 L 410 230 L 413 230 L 416 230 L 416 229 L 419 229 L 422 229 L 422 229 L 423 228 L 424 228 L 425 228 L 425 227 L 428 227 L 430 227 L 432 226 L 434 226 L 434 226 L 437 226 L 438 225 L 440 225 L 444 225 L 444 224 L 448 224 L 448 224 L 448 223 L 449 223 L 450 223 L 451 223 L 452 222 L 453 222 L 455 222 L 456 221 L 456 221 L 457 221 L 462 220 L 463 220 L 463 220 L 463 220 L 463 219 L 464 219 L 464 219 L 465 218 L 465 218 L 466 218 L 466 217 L 468 217 L 468 217 L 469 217 L 469 216 L 470 216 L 470 216 L 470 215 L 470 215 L 470 215 L 471 214 L 471 214 L 471 214 L 472 214 L 472 213 L 473 213 L 473 213 L 474 212 L 474 212 L 475 212 L 476 211 L 476 211 L 477 211 L 477 211 L 478 210 L 479 210 L 479 210 L 480 209 L 480 209 L 482 209 L 482 208 L 482 208 L 482 208 L 482 208 L 482 207 L 482 207 L 483 207 L 483 206 L 484 206 L 486 206 L 487 205 L 488 205 L 488 205 L 490 205 L 491 204 L 492 204 L 493 204 L 495 203 L 497 203 L 499 203 L 500 202 L 500 202 L 500 202 L 500 202 L 501 201 L 501 201 L 501 201 L 502 200 L 502 200 L 502 200 L 502 199 L 503 199 L 504 199 L 504 199 L 505 198 L 505 198 L 507 198 L 507 197 L 507 197 L 508 197 L 509 196 L 511 196 L 516 196 L 516 196 L 516 195 L 516 195 L 518 195 L 520 194 L 520 194 L 520 194 L 520 193 L 520 193 L 522 193 L 524 193 L 525 192 L 525 192 L 525 192 L 526 191 L 527 191 L 527 191 L 527 190 L 529 190 L 532 190 L 532 190 L 535 189 L 535 189 L 536 189 L 538 188 L 539 188 L 541 188 L 543 187 L 544 187 L 545 187 L 545 187 L 545 186 L 546 186 L 546 186 L 546 185 L 547 185 L 547 185 L 547 184 L 548 184 L 548 184 L 548 184 L 549 183 L 549 183 L 550 183 L 554 182 L 554 182 L 558 182 L 560 181 L 560 181 L 560 181 L 561 181 L 563 180 L 564 180 L 564 180 L 564 179 L 564 179 L 565 179 L 565 178 L 565 178 L 565 178 L 565 178 L 565 177 L 565 177 L 566 177 L 566 176 L 567 176 L 568 176 L 568 175 L 568 175 L 569 175 L 570 175 L 570 174 L 570 174 L 570 174 L 571 173 L 573 173 L 574 173 L 574 172 L 574 172 L 574 172 L 574 172 L 575 171 L 575 171 L 576 171 L 577 170 L 579 170 L 582 170 L 582 169 L 584 169 L 586 169 L 589 169 L 590 168 L 592 168 L 595 168 L 595 167 L 595 167 L 599 167 L 600 166 L 601 166 L 601 166 L 601 166 L 608 165 L 608 165 L 609 165 L 609 164 L 610 164 L 610 164 L 611 163 L 611 163 L 611 163 L 612 163 L 612 162 L 613 162 L 613 162 L 613 161 L 613 161 L 613 161 L 613 160 L 614 160 L 614 160 L 615 160 L 616 159 L 617 159 L 617 159 L 617 158 L 618 158 L 618 158 L 619 157 L 619 157 L 620 157 L 620 157 L 620 156 L 620 156 L 622 156 L 622 155 L 623 155 L 623 155 L 624 154 L 625 154 L 625 154 L 625 154 L 625 153 L 625 153 L 626 153 L 626 152 L 626 152 L 627 152 L 627 151 L 628 151 L 629 151 L 629 151 L 629 150 L 629 150 L 629 150 L 630 149 L 630 149 L 630 149 L 631 148 L 631 148 L 631 148 L 632 148 L 632 147 L 632 147 L 632 147 L 632 146 L 632 146 L 633 146 L 633 145 L 633 145 L 633 145 L 633 145 L 635 144 L 636 144 L 638 144 L 638 143 L 638 143 L 638 143 L 639 142 L 640 142 L 640 142 L 641 142 L 643 141 L 645 141 L 645 141 L 646 140 L 647 140 L 647 140 L 648 139 L 648 139 L 648 139 L 648 139 L 648 138 L 648 138 L 648 138 L 648 137 L 649 137 L 649 137 L 649 136 L 649 136 L 649 136 L 650 136 L 650 135 L 650 135 L 650 135 L 651 134 L 652 134 L 653 134 L 653 133 L 653 133 L 654 133 L 654 132 L 655 132 L 658 132 L 658 132 L 658 131 L 658 131 L 658 131 L 660 130 L 662 130 L 662 130 L 664 130 L 664 129 L 664 129 L 664 129 L 665 128 L 669 128 L 670 128 L 673 127 L 674 127 L 675 127 L 676 126 L 676 126 L 677 126 L 677 126 L 677 125 L 677 125 L 678 125 L 678 124 L 679 124 L 680 124 L 681 124 L 681 123 L 681 123 L 681 123 L 681 122 L 681 122 L 681 122 L 681 121 L 681 121 L 681 121 L 682 121 L 682 120 L 682 120 L 682 120 L 682 119 L 682 119 L 682 119 L 682 118 L 682 118 L 683 118 L 683 118 L 683 117 L 683 117 L 683 117 L 683 116 L 684 116 L 684 116 L 685 115 L 685 115 L 685 115 L 685 115 L 685 114 L 685 114 L 686 114 L 687 113 L 688 113 L 689 113 L 689 112 L 690 112 L 690 112 L 690 112 L 691 111 L 693 111 L 694 111 L 695 110 L 695 110 L 695 110 L 695 109 L 695 109 L 695 109 L 695 109 L 696 108 L 697 108 L 697 108 L 700 107 L 701 107 L 702 107 L 704 106 L 705 106 L 706 106 L 706 106 L 706 105 L 706 105 L 707 105 L 707 104 L 707 104 L 708 104 L 709 103 L 709 103 L 709 103 L 709 103 L 709 102 L 709 102 L 709 102 L 710 101 L 710 101 L 710 101 L 710 100 L 710 100 L 712 100 L 712 100 L 712 99 L 713 99 L 713 99 L 713 98 L 714 98 L 714 98 L 714 97 L 714 97 L 715 97 L 716 97 L 716 96 L 720 96 L 720 96 L 721 95 L 724 95 L 724 95 L 725 94 L 728 94 L 728 94 L 729 94 L 731 93 L 736 93 L 736 93 L 738 92 L 739 92 L 741 92 L 741 91 L 741 91 L 743 91 L 744 91 L 744 90 L 745 90 L 746 90 L 747 89 L 748 89 L 748 89 L 749 88 L 749 88 L 749 88 L 750 88 L 753 87 L 753 87 L 754 87 L 755 86 L 755 86 L 756 86 L 757 85 L 758 85 L 758 85 L 758 85 L 758 84 L 759 84 L 760 84 L 760 83 L 761 83 L 762 83 L 762 82 L 762 82 L 763 82 L 764 82 L 764 81 L 764 81 L 765 81 L 765 80 L 765 80 L 765 80 L 765 79 L 765 79 L 766 79 L 768 79 L 769 78 L 770 78 L 772 78 L 773 77 L 774 77 L 775 77 L 777 76 L 779 76 L 781 76 L 782 76 L 783 75 L 783 75 L 785 75 L 787 74 L 789 74 L 789 74 L 789 73 L 789 73 L 789 73 L 789 73 L 790 72 L 791 72 L 792 72 L 792 71 L 793 71 L 793 71 L 798 70 L 799 70 L 800 70 L 802 70 L 803 69 L 804 69 L 804 69 L 805 68 L 805 68 L 805 68 L 806 67 L 807 67 L 807 67 L 807 67 L 808 66 L 808 66 L 808 66 L 809 65 L 810 65 L 810 65 L 813 64 L 813 64 L 818 64 L 818 64 L 819 63 L 820 63 L 820 63 L 821 62 L 821 62 L 821 62 L 824 61 L 825 61 L 826 61 L 826 61 L 827 60 L 827 60 L 828 60 L 829 59 L 831 59 L 831 59 L 832 58 L 832 58 L 833 58 L 833 58 L 833 57 L 834 57 L 834 57 L 834 56 L 836 56 L 836 56 L 837 55 L 838 55 L 838 55 L 838 55 L 838 54 L 839 54 L 841 54 L 845 53 L 846 53 L 849 53 L 850 52 L 852 52 L 852 52 L 853 52 L 853 51 L 855 51 L 855 51 L 856 50 L 858 50 L 859 50 L 862 49 L 867 49 L 867 49 L 867 49 L 867 48 L 867 48 L 869 48 L 869 47 L 869 47 L 877 47 L 880 46 L 880 46 L 881 46 L 883 46 L 885 45 L 887 45 L 888 45 L 888 44 L 889 44 L 890 44 L 895 43 L 896 43 L 897 43 L 898 43 L 900 42 L 901 42 L 901 42 L 901 41 L 901 41 L 901 41 L 902 40 L 902 40 L 904 40 L 905 40 L 906 39 L 907 39 L 907 39 L 908 38 L 910 38 L 913 38 L 915 37 L 915 37 L 917 37 L 917 37 L 917 36 L 917 36 L 917 36 L 918 35 L 918 35 L 920 35 L 921 34 L 921 34 L 921 34 L 922 34 L 922 33 L 922 33 L 922 33 L 922 32 L 922 32 L 922 32 L 923 31 L 923 31 L 923 31 L 924 31 L 924 30 L 925 30 L 925 30 L 925 29 L 925 29 L 925 29 L 927 28 L 932 28 L 932 28 L 934 28 L 934 27 L 934 27 L 934 27 L 934 26 L 934 26 L 934 26 L 934 25 L 934 25 L 934 25 L 934 25 L 934 24 L 935 24 L 935 24 L 935 23 L 935 23 L 935 23 L 935 22 L 935 22 L 936 22 L 936 22 L 936 21 L 937 21 L 937 21" stroke-width="2"></path><path stroke-width="2" d="M 937 346 L 937.000000 15.000000" /><path stroke-width="2" d="M 937 346 L 937.000000 15.000000"></path><path stroke-width="2" d="M 937 346 L 942 346" /><path d="M 937 346 L 942 346" stroke-width="2"></path><text xmlns="http://www.w3.org/2000/svg" x="947" y="352">0</text><path stroke-width="2" d="M 937 307 L 942 307" /><path stroke-width="2" d="M 937 307 L 942 307"></path><text xmlns="http://www.w3.org/2000/svg" x="947" y="313">130</text><path stroke-width="2" d="M 937 271 L 942 271" /><path stroke-width="2" d="M 937 271 L 942 271"></path><text xmlns="http://www.w3.org/2000/svg" x="947" y="277">250</text><path stroke-width="2" d="M 937 235 L 942 235" /><path stroke-width="2" d="M 937 235 L 942 235"></path><text xmlns="http://www.w3.org/2000/svg" x="947" y="241">370</text><path stroke-width="2" d="M 937 199 L 942 199" /><path stroke-width="2" d="M 937 199 L 942 199"></path><text xmlns="http://www.w3.org/2000/svg" x="947" y="205">490</text><path stroke-width="2" d="M 937 160 L 942 160" /><path stroke-width="2" d="M 937 160 L 942 160"></path><text xmlns="http://www.w3.org/2000/svg" x="947" y="166">620</text><path d="M 937 124 L 942 124" stroke-width="2" /><path stroke-width="2" d="M 937 124 L 942 124"></path><text x="947" y="130" xmlns="http://www.w3.org/2000/svg">740</text><path stroke-width="2" d="M 937 88 L 942 88" /><path stroke-width="2" d="M 937 88 L 942 88"></path><text xmlns="http://www.w3.org/2000/svg" x="947" y="94">860</text><path stroke-width="2" d="M 937 52 L 942 52" /><path stroke-width="2" d="M 937 52 L 942 52"></path><text xmlns="http://www.w3.org/2000/svg" x="947" y="58">980</text><path stroke-width="2" d="M 937 16 L 942 16" /><path stroke-width="2" d="M 937 16 L 942 16"></path><text x="947" y="22" xmlns="http://www.w3.org/2000/svg">1100</text><text xmlns="http://www.w3.org/2000/svg" x="987" y="175" transform="rotate(90.00,987,175)">Stargazers</text><path stroke-width="2" d="M 57.000000 346.000000 L 937 346" /><path stroke-width="2" d="M 57.000000 346.000000 L 937 346"></path><path stroke-width="2" d="M 58 346 L 58 351" /><path stroke-width="2" d="M 58 346 L 58 351"></path><text xmlns="http://www.w3.org/2000/svg" x="25" y="368">2023-04-02</text><path stroke-width="2" d="M 156 346 L 156 351" /><path stroke-width="2" d="M 156 346 L 156 351"></path><text xmlns="http://www.w3.org/2000/svg" x="123" y="368">2023-07-09</text><path stroke-width="2" d="M 254 346 L 254 351" /><path stroke-width="2" d="M 254 346 L 254 351"></path><text y="368" xmlns="http://www.w3.org/2000/svg" x="221">2023-10-16</text><path stroke-width="2" d="M 351 346 L 351 351" /><path stroke-width="2" d="M 351 346 L 351 351"></path><text xmlns="http://www.w3.org/2000/svg" x="318" y="368">2024-01-22</text><path stroke-width="2" d="M 449 346 L 449 351" /><path stroke-width="2" d="M 449 346 L 449 351"></path><text xmlns="http://www.w3.org/2000/svg" x="416" y="368">2024-04-30</text><path stroke-width="2" d="M 547 346 L 547 351" /><path stroke-width="2" d="M 547 346 L 547 351"></path><text xmlns="http://www.w3.org/2000/svg" x="514" y="368">2024-08-06</text><path stroke-width="2" d="M 644 346 L 644 351" /><path stroke-width="2" d="M 644 346 L 644 351"></path><text y="368" xmlns="http://www.w3.org/2000/svg" x="611">2024-11-12</text><path stroke-width="2" d="M 742 346 L 742 351" /><path stroke-width="2" d="M 742 346 L 742 351"></path><text y="368" xmlns="http://www.w3.org/2000/svg" x="709">2025-02-19</text><path stroke-width="2" d="M 840 346 L 840 351" /><path stroke-width="2" d="M 840 346 L 840 351"></path><text xmlns="http://www.w3.org/2000/svg" x="807" y="368">2025-05-28</text><path stroke-width="2" d="M 937 346 L 937 351" /><path stroke-width="2" d="M 937 346 L 937 351"></path><text xmlns="http://www.w3.org/2000/svg" x="904" y="368">2025-09-04</text><text x="483" y="390" xmlns="http://www.w3.org/2000/svg">Time</text></svg>