<svg xmlns="http://www.w3.org/2000/svg" xmlns:xlink="http://www.w3.org/1999/xlink" width="1024" height="400">\n<path  d="M 0 0
L 1024 0
L 1024 400
L 0 400
L 0 0" style="stroke-width:0;stroke:rgba(255,255,255,1.0);fill:rgba(255,255,255,1.0)"/><path  d="M 38 11
L 965 11
L 965 351
L 38 351
L 38 11" style="stroke-width:0;stroke:rgba(255,255,255,1.0);fill:rgba(255,255,255,1.0)"/><path  d="M 38 351
L 965 351" style="stroke-width:2;stroke:rgba(85,85,85,1.0);fill:none"/><path  d="M 38 351
L 38 356" style="stroke-width:2;stroke:rgba(85,85,85,1.0);fill:none"/><text x="5" y="373" style="stroke-width:0;stroke:none;fill:rgba(51,51,51,1.0);font-size:12.8px;font-family:'Roboto Medium',sans-serif">2023-04-02</text><path  d="M 154 351
L 154 356" style="stroke-width:2;stroke:rgba(85,85,85,1.0);fill:none"/><text x="121" y="373" style="stroke-width:0;stroke:none;fill:rgba(51,51,51,1.0);font-size:12.8px;font-family:'Roboto Medium',sans-serif">2023-04-23</text><path  d="M 270 351
L 270 356" style="stroke-width:2;stroke:rgba(85,85,85,1.0);fill:none"/><text x="237" y="373" style="stroke-width:0;stroke:none;fill:rgba(51,51,51,1.0);font-size:12.8px;font-family:'Roboto Medium',sans-serif">2023-05-15</text><path  d="M 386 351
L 386 356" style="stroke-width:2;stroke:rgba(85,85,85,1.0);fill:none"/><text x="353" y="373" style="stroke-width:0;stroke:none;fill:rgba(51,51,51,1.0);font-size:12.8px;font-family:'Roboto Medium',sans-serif">2023-06-05</text><path  d="M 502 351
L 502 356" style="stroke-width:2;stroke:rgba(85,85,85,1.0);fill:none"/><text x="469" y="373" style="stroke-width:0;stroke:none;fill:rgba(51,51,51,1.0);font-size:12.8px;font-family:'Roboto Medium',sans-serif">2023-06-27</text><path  d="M 618 351
L 618 356" style="stroke-width:2;stroke:rgba(85,85,85,1.0);fill:none"/><text x="585" y="373" style="stroke-width:0;stroke:none;fill:rgba(51,51,51,1.0);font-size:12.8px;font-family:'Roboto Medium',sans-serif">2023-07-18</text><path  d="M 734 351
L 734 356" style="stroke-width:2;stroke:rgba(85,85,85,1.0);fill:none"/><text x="701" y="373" style="stroke-width:0;stroke:none;fill:rgba(51,51,51,1.0);font-size:12.8px;font-family:'Roboto Medium',sans-serif">2023-08-09</text><path  d="M 850 351
L 850 356" style="stroke-width:2;stroke:rgba(85,85,85,1.0);fill:none"/><text x="817" y="373" style="stroke-width:0;stroke:none;fill:rgba(51,51,51,1.0);font-size:12.8px;font-family:'Roboto Medium',sans-serif">2023-08-31</text><path  d="M 965 351
L 965 356" style="stroke-width:2;stroke:rgba(85,85,85,1.0);fill:none"/><text x="932" y="373" style="stroke-width:0;stroke:none;fill:rgba(51,51,51,1.0);font-size:12.8px;font-family:'Roboto Medium',sans-serif">2023-09-21</text><text x="487" y="395" style="stroke-width:0;stroke:none;fill:rgba(51,51,51,1.0);font-size:12.8px;font-family:'Roboto Medium',sans-serif">Time</text><path  d="M 967 351
L 967 11" style="stroke-width:2;stroke:rgba(85,85,85,1.0);fill:none"/><path  d="M 967 351
L 972 351" style="stroke-width:2;stroke:rgba(85,85,85,1.0);fill:none"/><text x="977" y="357" style="stroke-width:0;stroke:none;fill:rgba(51,51,51,1.0);font-size:12.8px;font-family:'Roboto Medium',sans-serif">0</text><path  d="M 967 307
L 972 307" style="stroke-width:2;stroke:rgba(85,85,85,1.0);fill:none"/><text x="977" y="313" style="stroke-width:0;stroke:none;fill:rgba(51,51,51,1.0);font-size:12.8px;font-family:'Roboto Medium',sans-serif">28</text><path  d="M 967 266
L 972 266" style="stroke-width:2;stroke:rgba(85,85,85,1.0);fill:none"/><text x="977" y="272" style="stroke-width:0;stroke:none;fill:rgba(51,51,51,1.0);font-size:12.8px;font-family:'Roboto Medium',sans-serif">55</text><path  d="M 967 222
L 972 222" style="stroke-width:2;stroke:rgba(85,85,85,1.0);fill:none"/><text x="977" y="228" style="stroke-width:0;stroke:none;fill:rgba(51,51,51,1.0);font-size:12.8px;font-family:'Roboto Medium',sans-serif">83</text><path  d="M 967 181
L 972 181" style="stroke-width:2;stroke:rgba(85,85,85,1.0);fill:none"/><text x="977" y="187" style="stroke-width:0;stroke:none;fill:rgba(51,51,51,1.0);font-size:12.8px;font-family:'Roboto Medium',sans-serif">110</text><path  d="M 967 137
L 972 137" style="stroke-width:2;stroke:rgba(85,85,85,1.0);fill:none"/><text x="977" y="143" style="stroke-width:0;stroke:none;fill:rgba(51,51,51,1.0);font-size:12.8px;font-family:'Roboto Medium',sans-serif">138</text><path  d="M 967 96
L 972 96" style="stroke-width:2;stroke:rgba(85,85,85,1.0);fill:none"/><text x="977" y="102" style="stroke-width:0;stroke:none;fill:rgba(51,51,51,1.0);font-size:12.8px;font-family:'Roboto Medium',sans-serif">165</text><path  d="M 967 52
L 972 52" style="stroke-width:2;stroke:rgba(85,85,85,1.0);fill:none"/><text x="977" y="58" style="stroke-width:0;stroke:none;fill:rgba(51,51,51,1.0);font-size:12.8px;font-family:'Roboto Medium',sans-serif">193</text><path  d="M 967 11
L 972 11" style="stroke-width:2;stroke:rgba(85,85,85,1.0);fill:none"/><text x="977" y="17" style="stroke-width:0;stroke:none;fill:rgba(51,51,51,1.0);font-size:12.8px;font-family:'Roboto Medium',sans-serif">220</text><text x="1009" y="150" style="stroke-width:0;stroke:none;fill:rgba(51,51,51,1.0);font-size:12.8px;font-family:'Roboto Medium',sans-serif" transform="rotate(90.00,1009,150)">Stargazers</text><path  d="M 38 351
L 48 349
L 113 347
L 115 346
L 115 344
L 115 343
L 115 341
L 115 340
L 115 338
L 115 337
L 117 335
L 117 334
L 117 332
L 117 330
L 118 329
L 118 327
L 118 326
L 118 324
L 120 323
L 120 321
L 123 320
L 125 318
L 125 317
L 130 315
L 133 313
L 133 312
L 134 310
L 136 309
L 136 307
L 140 306
L 147 304
L 148 303
L 152 301
L 157 300
L 178 298
L 178 296
L 178 295
L 178 293
L 178 292
L 179 290
L 179 289
L 190 287
L 196 286
L 199 284
L 209 283
L 225 281
L 232 279
L 261 278
L 270 276
L 285 275
L 302 273
L 309 272
L 370 270
L 373 269
L 374 267
L 382 266
L 383 264
L 383 262
L 383 261
L 384 259
L 384 258
L 384 256
L 384 255
L 384 253
L 384 252
L 384 250
L 384 249
L 385 247
L 387 245
L 387 244
L 387 242
L 387 241
L 387 239
L 387 238
L 387 236
L 387 235
L 387 233
L 387 232
L 387 230
L 387 228
L 387 227
L 387 225
L 387 224
L 387 222
L 387 221
L 388 219
L 388 218
L 388 216
L 388 215
L 388 213
L 388 211
L 388 210
L 388 208
L 388 207
L 388 205
L 388 204
L 388 202
L 388 201
L 388 199
L 388 198
L 388 196
L 390 194
L 390 193
L 390 191
L 392 190
L 392 188
L 392 187
L 393 185
L 394 184
L 397 182
L 397 181
L 397 179
L 398 177
L 398 176
L 398 174
L 398 173
L 398 171
L 398 170
L 398 168
L 398 167
L 398 165
L 398 163
L 398 162
L 398 160
L 398 159
L 399 157
L 400 156
L 404 154
L 404 153
L 405 151
L 405 150
L 419 148
L 420 147
L 421 145
L 426 143
L 426 142
L 436 140
L 446 139
L 448 137
L 457 136
L 461 134
L 467 133
L 469 131
L 471 130
L 480 128
L 481 126
L 485 125
L 489 123
L 491 122
L 495 120
L 496 119
L 496 117
L 498 116
L 503 114
L 508 113
L 508 111
L 510 109
L 512 108
L 512 106
L 516 105
L 523 103
L 528 102
L 537 100
L 540 99
L 544 97
L 548 96
L 548 94
L 549 92
L 556 91
L 582 89
L 583 88
L 587 86
L 612 85
L 613 83
L 613 82
L 613 80
L 614 79
L 618 77
L 626 75
L 631 74
L 631 72
L 662 71
L 668 69
L 674 68
L 684 66
L 690 65
L 690 63
L 695 62
L 716 60
L 739 58
L 766 57
L 769 55
L 769 54
L 770 52
L 771 51
L 777 49
L 813 48
L 830 46
L 831 45
L 845 43
L 848 41
L 850 40
L 890 38
L 890 37
L 893 35
L 894 34
L 899 32
L 910 31
L 915 29
L 923 28
L 928 26
L 937 24
L 960 23
L 961 21
L 965 20
L 965 18" style="stroke-width:2;stroke:rgba(129,199,239,1.0);fill:none"/></svg>