<svg xmlns="http://www.w3.org/2000/svg" xmlns:xlink="http://www.w3.org/1999/xlink" width="1024px" height="400px"><style type="text/css">
path { fill: none; stroke: rgb(51,51,51); }
path.series { stroke: #6b63ff; }
rect.background { fill: rgb(255,255,255); stroke: none; }

text {
	stroke-width: 0;
	stroke: none;
	fill: rgba(51,51,51,1.0);
	font-size: 12.8px;
	font-family: 'Roboto Medium', sans-serif;
}
</style><rect x="0" y="0" width="1024px" height="400px" class="background" rx="8" /><rect x="0" y="0" width="1024px" height="400px" class="background" rx="8"></rect><path stroke-width="2" class="series" d="M 58 345 L 61 345 L 75 344 L 76 344 L 76 344 L 76 343 L 76 343 L 76 343 L 76 342 L 76 342 L 76 342 L 76 341 L 76 341 L 76 340 L 76 340 L 76 340 L 77 339 L 77 339 L 77 339 L 78 338 L 78 338 L 78 338 L 79 337 L 80 337 L 80 337 L 80 336 L 80 336 L 81 335 L 83 335 L 83 335 L 84 334 L 85 334 L 90 334 L 90 333 L 90 333 L 90 333 L 90 332 L 93 332 L 94 332 L 95 331 L 97 331 L 101 330 L 102 330 L 109 330 L 111 329 L 114 329 L 118 329 L 120 328 L 133 328 L 134 328 L 134 327 L 136 327 L 136 326 L 136 326 L 136 326 L 136 325 L 136 325 L 136 325 L 136 324 L 136 324 L 137 324 L 137 323 L 137 323 L 137 323 L 137 322 L 137 322 L 137 321 L 137 321 L 137 321 L 137 320 L 137 320 L 137 320 L 137 319 L 137 319 L 137 319 L 137 318 L 137 318 L 137 318 L 137 317 L 137 317 L 137 316 L 137 316 L 137 316 L 137 315 L 137 315 L 137 315 L 137 314 L 137 314 L 137 314 L 137 313 L 137 313 L 137 313 L 137 312 L 137 312 L 138 311 L 138 311 L 138 311 L 138 310 L 138 310 L 138 310 L 138 309 L 138 309 L 138 309 L 139 308 L 139 308 L 140 307 L 140 307 L 140 307 L 140 306 L 140 306 L 140 306 L 140 305 L 140 305 L 140 305 L 140 304 L 140 304 L 140 304 L 140 303 L 140 303 L 140 302 L 140 302 L 140 302 L 140 301 L 141 301 L 141 301 L 141 300 L 141 300 L 145 300 L 145 299 L 145 299 L 146 299 L 146 298 L 148 298 L 151 297 L 151 297 L 153 297 L 154 296 L 155 296 L 156 296 L 156 295 L 158 295 L 159 295 L 159 294 L 160 294 L 161 293 L 162 293 L 162 293 L 162 292 L 162 292 L 163 292 L 165 291 L 165 291 L 165 291 L 166 290 L 166 290 L 166 290 L 168 289 L 169 289 L 171 288 L 172 288 L 173 288 L 174 287 L 174 287 L 174 287 L 175 286 L 181 286 L 182 286 L 182 285 L 188 285 L 188 285 L 188 284 L 188 284 L 189 283 L 189 283 L 191 283 L 192 282 L 192 282 L 199 282 L 201 281 L 202 281 L 204 281 L 206 280 L 206 280 L 207 280 L 212 279 L 217 279 L 223 278 L 224 278 L 224 278 L 224 277 L 224 277 L 225 277 L 234 276 L 237 276 L 238 276 L 241 275 L 241 275 L 242 274 L 251 274 L 251 274 L 251 273 L 252 273 L 253 273 L 255 272 L 257 272 L 258 272 L 260 271 L 262 271 L 267 271 L 267 270 L 268 270 L 268 269 L 268 269 L 269 269 L 271 268 L 276 268 L 288 268 L 292 267 L 294 267 L 294 267 L 296 266 L 297 266 L 297 266 L 297 265 L 297 265 L 297 264 L 297 264 L 297 264 L 297 263 L 297 263 L 297 263 L 297 262 L 297 262 L 297 262 L 298 261 L 298 261 L 300 260 L 300 260 L 300 260 L 300 259 L 301 259 L 302 259 L 302 258 L 302 258 L 302 258 L 302 257 L 302 257 L 302 257 L 303 256 L 304 256 L 304 255 L 304 255 L 304 255 L 304 254 L 304 254 L 305 254 L 305 253 L 305 253 L 306 253 L 306 252 L 307 252 L 307 252 L 308 251 L 309 251 L 309 250 L 311 250 L 313 250 L 313 249 L 314 249 L 314 249 L 314 248 L 314 248 L 314 248 L 316 247 L 316 247 L 318 247 L 318 246 L 319 246 L 320 245 L 322 245 L 322 245 L 324 244 L 325 244 L 325 244 L 326 243 L 326 243 L 330 243 L 331 242 L 331 242 L 334 241 L 336 241 L 339 241 L 340 240 L 341 240 L 342 240 L 342 239 L 342 239 L 345 239 L 347 238 L 348 238 L 348 238 L 350 237 L 351 237 L 351 236 L 351 236 L 351 236 L 351 235 L 352 235 L 352 235 L 353 234 L 353 234 L 353 234 L 354 233 L 358 233 L 363 233 L 363 232 L 363 232 L 366 231 L 368 231 L 368 231 L 369 230 L 370 230 L 371 230 L 371 229 L 371 229 L 371 229 L 371 228 L 371 228 L 371 227 L 372 227 L 372 227 L 373 226 L 375 226 L 375 226 L 375 225 L 375 225 L 375 225 L 376 224 L 376 224 L 376 224 L 376 223 L 376 223 L 376 222 L 376 222 L 376 222 L 380 221 L 382 221 L 382 221 L 383 220 L 393 220 L 394 220 L 397 219 L 399 219 L 405 219 L 407 218 L 409 218 L 410 217 L 410 217 L 410 217 L 410 216 L 410 216 L 410 216 L 411 215 L 412 215 L 420 215 L 422 214 L 425 214 L 431 214 L 435 213 L 438 213 L 440 212 L 445 212 L 445 212 L 454 211 L 462 211 L 462 211 L 468 210 L 469 210 L 474 210 L 475 209 L 477 209 L 477 208 L 478 208 L 478 208 L 481 207 L 482 207 L 484 207 L 488 206 L 488 206 L 489 206 L 490 205 L 493 205 L 496 205 L 497 204 L 500 204 L 504 203 L 505 203 L 505 203 L 506 202 L 507 202 L 508 202 L 511 201 L 514 201 L 516 201 L 518 200 L 518 200 L 523 200 L 524 199 L 527 199 L 531 198 L 531 198 L 536 198 L 536 197 L 536 197 L 538 197 L 538 196 L 540 196 L 540 196 L 543 195 L 545 195 L 546 194 L 546 194 L 547 194 L 554 193 L 554 193 L 555 193 L 555 192 L 555 192 L 556 192 L 556 191 L 556 191 L 557 191 L 559 190 L 559 190 L 560 189 L 561 189 L 561 189 L 562 188 L 563 188 L 563 188 L 563 187 L 564 187 L 564 187 L 564 186 L 564 186 L 565 186 L 565 185 L 566 185 L 567 184 L 567 184 L 568 184 L 568 183 L 569 183 L 570 183 L 571 182 L 571 182 L 572 182 L 573 181 L 574 181 L 575 181 L 575 180 L 575 180 L 577 179 L 577 179 L 577 179 L 578 178 L 578 178 L 578 178 L 578 177 L 579 177 L 579 177 L 580 176 L 583 176 L 584 175 L 585 175 L 586 175 L 588 174 L 589 174 L 590 174 L 592 173 L 594 173 L 597 173 L 599 172 L 600 172 L 600 172 L 600 171 L 600 171 L 601 170 L 601 170 L 601 170 L 602 169 L 602 169 L 602 169 L 603 168 L 604 168 L 605 168 L 605 167 L 606 167 L 606 167 L 608 166 L 609 166 L 609 165 L 610 165 L 611 165 L 613 164 L 615 164 L 619 164 L 619 163 L 619 163 L 620 163 L 622 162 L 624 162 L 624 161 L 624 161 L 624 161 L 625 160 L 626 160 L 629 160 L 630 159 L 630 159 L 630 159 L 632 158 L 632 158 L 632 158 L 633 157 L 635 157 L 639 156 L 639 156 L 643 156 L 643 155 L 644 155 L 647 155 L 648 154 L 651 154 L 652 154 L 654 153 L 655 153 L 655 153 L 656 152 L 656 152 L 656 151 L 656 151 L 657 151 L 657 150 L 657 150 L 658 150 L 658 149 L 658 149 L 659 149 L 660 148 L 661 148 L 665 148 L 666 147 L 671 147 L 673 146 L 673 146 L 674 146 L 675 145 L 677 145 L 677 145 L 678 144 L 678 144 L 679 144 L 679 143 L 679 143 L 679 142 L 679 142 L 680 142 L 680 141 L 680 141 L 680 141 L 680 140 L 681 140 L 681 140 L 683 139 L 683 139 L 684 139 L 684 138 L 685 138 L 685 137 L 685 137 L 686 137 L 687 136 L 690 136 L 690 136 L 690 135 L 690 135 L 690 135 L 691 134 L 691 134 L 691 134 L 693 133 L 695 133 L 697 132 L 700 132 L 701 132 L 702 131 L 706 131 L 709 131 L 710 130 L 712 130 L 716 130 L 716 129 L 717 129 L 721 128 L 723 128 L 723 128 L 724 127 L 724 127 L 732 127 L 733 126 L 734 126 L 734 126 L 734 125 L 735 125 L 736 125 L 736 124 L 736 124 L 737 123 L 737 123 L 738 123 L 738 122 L 739 122 L 739 122 L 739 121 L 739 121 L 739 121 L 739 120 L 741 120 L 742 120 L 743 119 L 743 119 L 744 118 L 744 118 L 745 118 L 746 117 L 746 117 L 747 117 L 747 116 L 747 116 L 748 116 L 749 115 L 750 115 L 751 115 L 751 114 L 752 114 L 753 113 L 753 113 L 753 113 L 753 112 L 753 112 L 754 112 L 755 111 L 755 111 L 756 111 L 756 110 L 757 110 L 758 109 L 758 109 L 758 109 L 758 108 L 758 108 L 759 108 L 759 107 L 759 107 L 761 107 L 761 106 L 761 106 L 761 106 L 762 105 L 762 105 L 762 104 L 762 104 L 762 104 L 763 103 L 763 103 L 763 103 L 763 102 L 763 102 L 765 102 L 767 101 L 769 101 L 769 101 L 769 100 L 769 100 L 770 99 L 771 99 L 772 99 L 773 98 L 775 98 L 777 98 L 778 97 L 779 97 L 780 97 L 780 96 L 781 96 L 781 95 L 781 95 L 782 95 L 782 94 L 782 94 L 782 94 L 782 93 L 782 93 L 782 93 L 782 92 L 783 92 L 783 92 L 783 91 L 783 91 L 783 90 L 784 90 L 784 90 L 784 89 L 785 89 L 787 89 L 787 88 L 788 88 L 788 88 L 789 87 L 789 87 L 790 87 L 792 86 L 793 86 L 793 85 L 793 85 L 793 85 L 794 84 L 796 84 L 798 84 L 799 83 L 800 83 L 800 83 L 801 82 L 801 82 L 802 82 L 806 81 L 809 81 L 812 80 L 813 80 L 814 80 L 815 79 L 816 79 L 816 79 L 817 78 L 817 78 L 817 78 L 818 77 L 819 77 L 819 76 L 820 76 L 822 76 L 822 75 L 822 75 L 822 75 L 822 74 L 822 74 L 822 74 L 822 73 L 822 73 L 822 73 L 822 72 L 822 72 L 822 71 L 823 71 L 823 71 L 823 70 L 823 70 L 823 70 L 824 69 L 824 69 L 824 69 L 824 68 L 824 68 L 824 68 L 825 67 L 825 67 L 825 66 L 826 66 L 826 66 L 826 65 L 826 65 L 826 65 L 826 64 L 827 64 L 829 64 L 831 63 L 831 63 L 831 62 L 833 62 L 833 62 L 833 61 L 834 61 L 836 61 L 837 60 L 838 60 L 838 60 L 838 59 L 838 59 L 838 59 L 838 58 L 838 58 L 841 57 L 841 57 L 841 57 L 845 56 L 847 56 L 848 56 L 851 55 L 852 55 L 853 55 L 853 54 L 853 54 L 853 54 L 853 53 L 854 53 L 854 52 L 855 52 L 856 52 L 856 51 L 856 51 L 856 51 L 856 50 L 857 50 L 857 50 L 857 49 L 857 49 L 857 49 L 858 48 L 858 48 L 859 47 L 860 47 L 860 47 L 861 46 L 861 46 L 861 46 L 862 45 L 863 45 L 863 45 L 863 44 L 864 44 L 864 43 L 865 43 L 869 43 L 870 42 L 871 42 L 874 42 L 875 41 L 876 41 L 879 41 L 879 40 L 880 40 L 883 40 L 889 39 L 889 39 L 891 38 L 893 38 L 895 38 L 896 37 L 896 37 L 898 37 L 898 36 L 899 36 L 900 36 L 902 35 L 903 35 L 904 35 L 904 34 L 905 34 L 905 33 L 905 33 L 906 33 L 910 32 L 910 32 L 911 32 L 913 31 L 913 31 L 914 31 L 915 30 L 916 30 L 916 29 L 916 29 L 917 29 L 917 28 L 919 28 L 919 28 L 920 27 L 921 27 L 921 27 L 921 26 L 922 26 L 923 26 L 923 25 L 923 25 L 924 24 L 925 24 L 925 24 L 925 23 L 925 23 L 925 23 L 926 22 L 926 22 L 928 22 L 930 21 L 930 21 L 931 21 L 934 20 L 934 20 L 936 19 L 937 19 L 940 19 L 942 18 L 944 18 L 945 18" /><path stroke-width="2" class="series" d="M 58 345 L 61 345 L 75 344 L 76 344 L 76 344 L 76 343 L 76 343 L 76 343 L 76 342 L 76 342 L 76 342 L 76 341 L 76 341 L 76 340 L 76 340 L 76 340 L 77 339 L 77 339 L 77 339 L 78 338 L 78 338 L 78 338 L 79 337 L 80 337 L 80 337 L 80 336 L 80 336 L 81 335 L 83 335 L 83 335 L 84 334 L 85 334 L 90 334 L 90 333 L 90 333 L 90 333 L 90 332 L 93 332 L 94 332 L 95 331 L 97 331 L 101 330 L 102 330 L 109 330 L 111 329 L 114 329 L 118 329 L 120 328 L 133 328 L 134 328 L 134 327 L 136 327 L 136 326 L 136 326 L 136 326 L 136 325 L 136 325 L 136 325 L 136 324 L 136 324 L 137 324 L 137 323 L 137 323 L 137 323 L 137 322 L 137 322 L 137 321 L 137 321 L 137 321 L 137 320 L 137 320 L 137 320 L 137 319 L 137 319 L 137 319 L 137 318 L 137 318 L 137 318 L 137 317 L 137 317 L 137 316 L 137 316 L 137 316 L 137 315 L 137 315 L 137 315 L 137 314 L 137 314 L 137 314 L 137 313 L 137 313 L 137 313 L 137 312 L 137 312 L 138 311 L 138 311 L 138 311 L 138 310 L 138 310 L 138 310 L 138 309 L 138 309 L 138 309 L 139 308 L 139 308 L 140 307 L 140 307 L 140 307 L 140 306 L 140 306 L 140 306 L 140 305 L 140 305 L 140 305 L 140 304 L 140 304 L 140 304 L 140 303 L 140 303 L 140 302 L 140 302 L 140 302 L 140 301 L 141 301 L 141 301 L 141 300 L 141 300 L 145 300 L 145 299 L 145 299 L 146 299 L 146 298 L 148 298 L 151 297 L 151 297 L 153 297 L 154 296 L 155 296 L 156 296 L 156 295 L 158 295 L 159 295 L 159 294 L 160 294 L 161 293 L 162 293 L 162 293 L 162 292 L 162 292 L 163 292 L 165 291 L 165 291 L 165 291 L 166 290 L 166 290 L 166 290 L 168 289 L 169 289 L 171 288 L 172 288 L 173 288 L 174 287 L 174 287 L 174 287 L 175 286 L 181 286 L 182 286 L 182 285 L 188 285 L 188 285 L 188 284 L 188 284 L 189 283 L 189 283 L 191 283 L 192 282 L 192 282 L 199 282 L 201 281 L 202 281 L 204 281 L 206 280 L 206 280 L 207 280 L 212 279 L 217 279 L 223 278 L 224 278 L 224 278 L 224 277 L 224 277 L 225 277 L 234 276 L 237 276 L 238 276 L 241 275 L 241 275 L 242 274 L 251 274 L 251 274 L 251 273 L 252 273 L 253 273 L 255 272 L 257 272 L 258 272 L 260 271 L 262 271 L 267 271 L 267 270 L 268 270 L 268 269 L 268 269 L 269 269 L 271 268 L 276 268 L 288 268 L 292 267 L 294 267 L 294 267 L 296 266 L 297 266 L 297 266 L 297 265 L 297 265 L 297 264 L 297 264 L 297 264 L 297 263 L 297 263 L 297 263 L 297 262 L 297 262 L 297 262 L 298 261 L 298 261 L 300 260 L 300 260 L 300 260 L 300 259 L 301 259 L 302 259 L 302 258 L 302 258 L 302 258 L 302 257 L 302 257 L 302 257 L 303 256 L 304 256 L 304 255 L 304 255 L 304 255 L 304 254 L 304 254 L 305 254 L 305 253 L 305 253 L 306 253 L 306 252 L 307 252 L 307 252 L 308 251 L 309 251 L 309 250 L 311 250 L 313 250 L 313 249 L 314 249 L 314 249 L 314 248 L 314 248 L 314 248 L 316 247 L 316 247 L 318 247 L 318 246 L 319 246 L 320 245 L 322 245 L 322 245 L 324 244 L 325 244 L 325 244 L 326 243 L 326 243 L 330 243 L 331 242 L 331 242 L 334 241 L 336 241 L 339 241 L 340 240 L 341 240 L 342 240 L 342 239 L 342 239 L 345 239 L 347 238 L 348 238 L 348 238 L 350 237 L 351 237 L 351 236 L 351 236 L 351 236 L 351 235 L 352 235 L 352 235 L 353 234 L 353 234 L 353 234 L 354 233 L 358 233 L 363 233 L 363 232 L 363 232 L 366 231 L 368 231 L 368 231 L 369 230 L 370 230 L 371 230 L 371 229 L 371 229 L 371 229 L 371 228 L 371 228 L 371 227 L 372 227 L 372 227 L 373 226 L 375 226 L 375 226 L 375 225 L 375 225 L 375 225 L 376 224 L 376 224 L 376 224 L 376 223 L 376 223 L 376 222 L 376 222 L 376 222 L 380 221 L 382 221 L 382 221 L 383 220 L 393 220 L 394 220 L 397 219 L 399 219 L 405 219 L 407 218 L 409 218 L 410 217 L 410 217 L 410 217 L 410 216 L 410 216 L 410 216 L 411 215 L 412 215 L 420 215 L 422 214 L 425 214 L 431 214 L 435 213 L 438 213 L 440 212 L 445 212 L 445 212 L 454 211 L 462 211 L 462 211 L 468 210 L 469 210 L 474 210 L 475 209 L 477 209 L 477 208 L 478 208 L 478 208 L 481 207 L 482 207 L 484 207 L 488 206 L 488 206 L 489 206 L 490 205 L 493 205 L 496 205 L 497 204 L 500 204 L 504 203 L 505 203 L 505 203 L 506 202 L 507 202 L 508 202 L 511 201 L 514 201 L 516 201 L 518 200 L 518 200 L 523 200 L 524 199 L 527 199 L 531 198 L 531 198 L 536 198 L 536 197 L 536 197 L 538 197 L 538 196 L 540 196 L 540 196 L 543 195 L 545 195 L 546 194 L 546 194 L 547 194 L 554 193 L 554 193 L 555 193 L 555 192 L 555 192 L 556 192 L 556 191 L 556 191 L 557 191 L 559 190 L 559 190 L 560 189 L 561 189 L 561 189 L 562 188 L 563 188 L 563 188 L 563 187 L 564 187 L 564 187 L 564 186 L 564 186 L 565 186 L 565 185 L 566 185 L 567 184 L 567 184 L 568 184 L 568 183 L 569 183 L 570 183 L 571 182 L 571 182 L 572 182 L 573 181 L 574 181 L 575 181 L 575 180 L 575 180 L 577 179 L 577 179 L 577 179 L 578 178 L 578 178 L 578 178 L 578 177 L 579 177 L 579 177 L 580 176 L 583 176 L 584 175 L 585 175 L 586 175 L 588 174 L 589 174 L 590 174 L 592 173 L 594 173 L 597 173 L 599 172 L 600 172 L 600 172 L 600 171 L 600 171 L 601 170 L 601 170 L 601 170 L 602 169 L 602 169 L 602 169 L 603 168 L 604 168 L 605 168 L 605 167 L 606 167 L 606 167 L 608 166 L 609 166 L 609 165 L 610 165 L 611 165 L 613 164 L 615 164 L 619 164 L 619 163 L 619 163 L 620 163 L 622 162 L 624 162 L 624 161 L 624 161 L 624 161 L 625 160 L 626 160 L 629 160 L 630 159 L 630 159 L 630 159 L 632 158 L 632 158 L 632 158 L 633 157 L 635 157 L 639 156 L 639 156 L 643 156 L 643 155 L 644 155 L 647 155 L 648 154 L 651 154 L 652 154 L 654 153 L 655 153 L 655 153 L 656 152 L 656 152 L 656 151 L 656 151 L 657 151 L 657 150 L 657 150 L 658 150 L 658 149 L 658 149 L 659 149 L 660 148 L 661 148 L 665 148 L 666 147 L 671 147 L 673 146 L 673 146 L 674 146 L 675 145 L 677 145 L 677 145 L 678 144 L 678 144 L 679 144 L 679 143 L 679 143 L 679 142 L 679 142 L 680 142 L 680 141 L 680 141 L 680 141 L 680 140 L 681 140 L 681 140 L 683 139 L 683 139 L 684 139 L 684 138 L 685 138 L 685 137 L 685 137 L 686 137 L 687 136 L 690 136 L 690 136 L 690 135 L 690 135 L 690 135 L 691 134 L 691 134 L 691 134 L 693 133 L 695 133 L 697 132 L 700 132 L 701 132 L 702 131 L 706 131 L 709 131 L 710 130 L 712 130 L 716 130 L 716 129 L 717 129 L 721 128 L 723 128 L 723 128 L 724 127 L 724 127 L 732 127 L 733 126 L 734 126 L 734 126 L 734 125 L 735 125 L 736 125 L 736 124 L 736 124 L 737 123 L 737 123 L 738 123 L 738 122 L 739 122 L 739 122 L 739 121 L 739 121 L 739 121 L 739 120 L 741 120 L 742 120 L 743 119 L 743 119 L 744 118 L 744 118 L 745 118 L 746 117 L 746 117 L 747 117 L 747 116 L 747 116 L 748 116 L 749 115 L 750 115 L 751 115 L 751 114 L 752 114 L 753 113 L 753 113 L 753 113 L 753 112 L 753 112 L 754 112 L 755 111 L 755 111 L 756 111 L 756 110 L 757 110 L 758 109 L 758 109 L 758 109 L 758 108 L 758 108 L 759 108 L 759 107 L 759 107 L 761 107 L 761 106 L 761 106 L 761 106 L 762 105 L 762 105 L 762 104 L 762 104 L 762 104 L 763 103 L 763 103 L 763 103 L 763 102 L 763 102 L 765 102 L 767 101 L 769 101 L 769 101 L 769 100 L 769 100 L 770 99 L 771 99 L 772 99 L 773 98 L 775 98 L 777 98 L 778 97 L 779 97 L 780 97 L 780 96 L 781 96 L 781 95 L 781 95 L 782 95 L 782 94 L 782 94 L 782 94 L 782 93 L 782 93 L 782 93 L 782 92 L 783 92 L 783 92 L 783 91 L 783 91 L 783 90 L 784 90 L 784 90 L 784 89 L 785 89 L 787 89 L 787 88 L 788 88 L 788 88 L 789 87 L 789 87 L 790 87 L 792 86 L 793 86 L 793 85 L 793 85 L 793 85 L 794 84 L 796 84 L 798 84 L 799 83 L 800 83 L 800 83 L 801 82 L 801 82 L 802 82 L 806 81 L 809 81 L 812 80 L 813 80 L 814 80 L 815 79 L 816 79 L 816 79 L 817 78 L 817 78 L 817 78 L 818 77 L 819 77 L 819 76 L 820 76 L 822 76 L 822 75 L 822 75 L 822 75 L 822 74 L 822 74 L 822 74 L 822 73 L 822 73 L 822 73 L 822 72 L 822 72 L 822 71 L 823 71 L 823 71 L 823 70 L 823 70 L 823 70 L 824 69 L 824 69 L 824 69 L 824 68 L 824 68 L 824 68 L 825 67 L 825 67 L 825 66 L 826 66 L 826 66 L 826 65 L 826 65 L 826 65 L 826 64 L 827 64 L 829 64 L 831 63 L 831 63 L 831 62 L 833 62 L 833 62 L 833 61 L 834 61 L 836 61 L 837 60 L 838 60 L 838 60 L 838 59 L 838 59 L 838 59 L 838 58 L 838 58 L 841 57 L 841 57 L 841 57 L 845 56 L 847 56 L 848 56 L 851 55 L 852 55 L 853 55 L 853 54 L 853 54 L 853 54 L 853 53 L 854 53 L 854 52 L 855 52 L 856 52 L 856 51 L 856 51 L 856 51 L 856 50 L 857 50 L 857 50 L 857 49 L 857 49 L 857 49 L 858 48 L 858 48 L 859 47 L 860 47 L 860 47 L 861 46 L 861 46 L 861 46 L 862 45 L 863 45 L 863 45 L 863 44 L 864 44 L 864 43 L 865 43 L 869 43 L 870 42 L 871 42 L 874 42 L 875 41 L 876 41 L 879 41 L 879 40 L 880 40 L 883 40 L 889 39 L 889 39 L 891 38 L 893 38 L 895 38 L 896 37 L 896 37 L 898 37 L 898 36 L 899 36 L 900 36 L 902 35 L 903 35 L 904 35 L 904 34 L 905 34 L 905 33 L 905 33 L 906 33 L 910 32 L 910 32 L 911 32 L 913 31 L 913 31 L 914 31 L 915 30 L 916 30 L 916 29 L 916 29 L 917 29 L 917 28 L 919 28 L 919 28 L 920 27 L 921 27 L 921 27 L 921 26 L 922 26 L 923 26 L 923 25 L 923 25 L 924 24 L 925 24 L 925 24 L 925 23 L 925 23 L 925 23 L 926 22 L 926 22 L 928 22 L 930 21 L 930 21 L 931 21 L 934 20 L 934 20 L 936 19 L 937 19 L 940 19 L 942 18 L 944 18 L 945 18"></path><path stroke-width="2" d="M 945 346 L 945.000000 15.000000" /><path stroke-width="2" d="M 945 346 L 945.000000 15.000000"></path><path stroke-width="2" d="M 945 346 L 950 346" /><path stroke-width="2" d="M 945 346 L 950 346"></path><text xmlns="http://www.w3.org/2000/svg" x="955" y="352">0</text><path stroke-width="2" d="M 945 309 L 950 309" /><path d="M 945 309 L 950 309" stroke-width="2"></path><text xmlns="http://www.w3.org/2000/svg" x="955" y="315">103</text><path stroke-width="2" d="M 945 272 L 950 272" /><path stroke-width="2" d="M 945 272 L 950 272"></path><text xmlns="http://www.w3.org/2000/svg" x="955" y="278">205</text><path stroke-width="2" d="M 945 235 L 950 235" /><path stroke-width="2" d="M 945 235 L 950 235"></path><text y="241" xmlns="http://www.w3.org/2000/svg" x="955">307</text><path stroke-width="2" d="M 945 199 L 950 199" /><path stroke-width="2" d="M 945 199 L 950 199"></path><text xmlns="http://www.w3.org/2000/svg" x="955" y="205">409</text><path d="M 945 162 L 950 162" stroke-width="2" /><path stroke-width="2" d="M 945 162 L 950 162"></path><text xmlns="http://www.w3.org/2000/svg" x="955" y="168">512</text><path d="M 945 125 L 950 125" stroke-width="2" /><path stroke-width="2" d="M 945 125 L 950 125"></path><text xmlns="http://www.w3.org/2000/svg" x="955" y="131">614</text><path stroke-width="2" d="M 945 89 L 950 89" /><path stroke-width="2" d="M 945 89 L 950 89"></path><text xmlns="http://www.w3.org/2000/svg" x="955" y="95">716</text><path stroke-width="2" d="M 945 52 L 950 52" /><path d="M 945 52 L 950 52" stroke-width="2"></path><text xmlns="http://www.w3.org/2000/svg" x="955" y="58">818</text><path stroke-width="2" d="M 945 16 L 950 16" /><path stroke-width="2" d="M 945 16 L 950 16"></path><text xmlns="http://www.w3.org/2000/svg" x="955" y="22">920</text><text xmlns="http://www.w3.org/2000/svg" x="987" y="175" transform="rotate(90.00,987,175)">Stargazers</text><path stroke-width="2" d="M 57.000000 346.000000 L 945 346" /><path d="M 57.000000 346.000000 L 945 346" stroke-width="2"></path><path stroke-width="2" d="M 58 346 L 58 351" /><path stroke-width="2" d="M 58 346 L 58 351"></path><text y="368" xmlns="http://www.w3.org/2000/svg" x="25">2023-04-02</text><path stroke-width="2" d="M 157 346 L 157 351" /><path stroke-width="2" d="M 157 346 L 157 351"></path><text y="368" xmlns="http://www.w3.org/2000/svg" x="124">2023-06-22</text><path stroke-width="2" d="M 256 346 L 256 351" /><path stroke-width="2" d="M 256 346 L 256 351"></path><text xmlns="http://www.w3.org/2000/svg" x="223" y="368">2023-09-11</text><path stroke-width="2" d="M 354 346 L 354 351" /><path stroke-width="2" d="M 354 346 L 354 351"></path><text xmlns="http://www.w3.org/2000/svg" x="321" y="368">2023-12-01</text><path d="M 453 346 L 453 351" stroke-width="2" /><path stroke-width="2" d="M 453 346 L 453 351"></path><text xmlns="http://www.w3.org/2000/svg" x="420" y="368">2024-02-20</text><path stroke-width="2" d="M 551 346 L 551 351" /><path d="M 551 346 L 551 351" stroke-width="2"></path><text y="368" xmlns="http://www.w3.org/2000/svg" x="518">2024-05-11</text><path stroke-width="2" d="M 650 346 L 650 351" /><path stroke-width="2" d="M 650 346 L 650 351"></path><text xmlns="http://www.w3.org/2000/svg" x="617" y="368">2024-07-31</text><path stroke-width="2" d="M 748 346 L 748 351" /><path stroke-width="2" d="M 748 346 L 748 351"></path><text x="715" y="368" xmlns="http://www.w3.org/2000/svg">2024-10-20</text><path stroke-width="2" d="M 847 346 L 847 351" /><path stroke-width="2" d="M 847 346 L 847 351"></path><text xmlns="http://www.w3.org/2000/svg" x="814" y="368">2025-01-09</text><path d="M 945 346 L 945 351" stroke-width="2" /><path stroke-width="2" d="M 945 346 L 945 351"></path><text xmlns="http://www.w3.org/2000/svg" x="912" y="368">2025-03-31</text><text xmlns="http://www.w3.org/2000/svg" x="487" y="390">Time</text></svg>