<svg xmlns="http://www.w3.org/2000/svg" xmlns:xlink="http://www.w3.org/1999/xlink" width="1024px" height="400px"><style type="text/css">
path { fill: none; stroke: rgb(51,51,51); }
path.series { stroke: #6b63ff; }
rect.background { fill: rgb(255,255,255); stroke: none; }

text {
	stroke-width: 0;
	stroke: none;
	fill: rgba(51,51,51,1.0);
	font-size: 12.8px;
	font-family: 'Roboto Medium', sans-serif;
}
</style><rect x="0" y="0" width="1024px" height="400px" class="background" rx="8" /><rect width="1024px" height="400px" class="background" rx="8" x="0" y="0"></rect><path d="M 58 345 L 62 344 L 86 344 L 86 343 L 86 342 L 86 342 L 86 341 L 86 340 L 86 340 L 86 339 L 87 338 L 87 338 L 87 337 L 87 336 L 87 336 L 87 335 L 88 335 L 88 334 L 88 333 L 89 333 L 90 332 L 90 331 L 92 331 L 93 330 L 93 329 L 93 329 L 94 328 L 95 327 L 98 327 L 98 326 L 100 325 L 102 325 L 109 324 L 109 324 L 109 323 L 109 322 L 109 322 L 109 321 L 114 320 L 116 320 L 117 319 L 120 318 L 126 318 L 129 317 L 139 316 L 143 316 L 148 315 L 154 314 L 157 314 L 179 313 L 180 313 L 180 312 L 183 311 L 184 311 L 184 310 L 184 309 L 184 309 L 184 308 L 184 307 L 184 307 L 184 306 L 184 305 L 184 305 L 184 304 L 185 303 L 185 303 L 185 302 L 185 302 L 185 301 L 185 300 L 185 300 L 185 299 L 185 298 L 185 298 L 185 297 L 185 296 L 185 296 L 185 295 L 185 294 L 185 294 L 185 293 L 185 292 L 185 292 L 185 291 L 185 291 L 185 290 L 185 289 L 185 289 L 185 288 L 185 287 L 185 287 L 186 286 L 186 285 L 186 285 L 186 284 L 186 283 L 186 283 L 186 282 L 186 281 L 186 281 L 186 280 L 187 280 L 187 279 L 187 278 L 188 278 L 188 277 L 189 276 L 189 276 L 189 275 L 189 274 L 189 274 L 189 273 L 189 272 L 189 272 L 189 271 L 189 270 L 189 270 L 189 269 L 189 269 L 189 268 L 189 267 L 189 267 L 189 266 L 190 265 L 191 265 L 191 264 L 192 263 L 192 263 L 197 262 L 197 261 L 197 261 L 199 260 L 199 259 L 203 259 L 207 258 L 207 258 L 211 257 L 212 256 L 214 256 L 215 255 L 216 254 L 219 254 L 219 253 L 221 252 L 222 252 L 223 251 L 225 250 L 225 250 L 225 249 L 226 248 L 227 248 L 229 247 L 229 247 L 230 246 L 231 245 L 231 245 L 232 244 L 235 243 L 236 243 L 240 242 L 241 241 L 242 241 L 244 240 L 244 239 L 244 239 L 246 238 L 256 237 L 256 237 L 258 236 L 267 236 L 267 235 L 267 234 L 267 234 L 268 233 L 269 232 L 272 232 L 274 231 L 274 230 L 285 230 L 287 229 L 290 228 L 293 228 L 295 227 L 295 226 L 297 226 L 305 225 L 313 225 L 323 224 L 324 223 L 324 223 L 324 222 L 325 221 L 327 221 L 340 220 L 346 219 L 347 219 L 352 218 L 353 217 L 353 217 L 368 216 L 368 215 L 369 215 L 370 214 L 371 214 L 375 213 L 377 212 L 380 212 L 382 211 L 385 210 L 393 210 L 394 209 L 395 208 L 395 208 L 396 207 L 396 206 L 401 206 L 409 205 L 427 204 L 434 204 L 438 203 L 438 203 L 440 202 L 442 201 L 442 201 L 442 200 L 442 199 L 442 199 L 442 198 L 442 197 L 442 197 L 443 196 L 443 195 L 443 195 L 443 194 L 443 193 L 443 193 L 444 192 L 445 192 L 447 191 L 447 190 L 448 190 L 448 189 L 448 188 L 450 188 L 450 187 L 450 186 L 450 186 L 450 185 L 450 184 L 450 184 L 452 183 L 453 182 L 453 182 L 454 181 L 454 181 L 454 180 L 454 179 L 455 179 L 456 178 L 456 177 L 456 177 L 457 176 L 458 175 L 458 175 L 459 174 L 461 173 L 462 173 L 464 172 L 468 171 L 468 171 L 469 170 L 469 170 L 469 169 L 469 168 L 470 168 L 472 167 L 473 166 L 476 166 L 476 165 L 477 164 L 479 164 L 482 163 L 482 162 L 486 162 L 486 161 L 487 160 L 488 160 L 489 159 L 495 159 L 497 158 L 497 157 L 502 157 L 505 156 L 511 155 L 512 155 L 512 154 L 514 153 L 515 153 L 515 152 L 519 151 L 522 151 L 524 150 L 525 149 L 527 149 L 529 148 L 529 148 L 529 147 L 529 146 L 530 146 L 530 145 L 530 144 L 532 144 L 532 143 L 532 142 L 533 142 L 540 141 L 548 140 L 548 140 L 548 139 L 553 138 L 556 138 L 557 137 L 558 137 L 559 136 L 561 135 L 561 135 L 561 134 L 561 133 L 561 133 L 562 132 L 562 131 L 563 131 L 563 130 L 564 129 L 568 129 L 568 128 L 568 127 L 568 127 L 568 126 L 569 126 L 569 125 L 569 124 L 569 124 L 569 123 L 569 122 L 569 122 L 569 121 L 575 120 L 579 120 L 579 119 L 581 118 L 588 118 L 597 117 L 598 116 L 603 116 L 607 115 L 617 115 L 620 114 L 623 113 L 623 113 L 624 112 L 624 111 L 624 111 L 624 110 L 624 109 L 624 109 L 626 108 L 628 107 L 640 107 L 643 106 L 648 105 L 657 105 L 664 104 L 669 104 L 673 103 L 680 102 L 680 102 L 694 101 L 708 100 L 708 100 L 718 99 L 718 98 L 726 98 L 728 97 L 732 96 L 732 96 L 733 95 L 733 94 L 738 94 L 740 93 L 744 92 L 749 92 L 750 91 L 752 91 L 753 90 L 758 89 L 763 89 L 763 88 L 769 87 L 775 87 L 777 86 L 777 85 L 779 85 L 781 84 L 782 83 L 787 83 L 791 82 L 795 82 L 798 81 L 798 80 L 806 80 L 808 79 L 812 78 L 818 78 L 819 77 L 826 76 L 827 76 L 827 75 L 830 74 L 830 74 L 834 73 L 834 72 L 837 72 L 842 71 L 843 71 L 843 70 L 844 69 L 855 69 L 856 68 L 857 67 L 857 67 L 857 66 L 859 65 L 859 65 L 859 64 L 860 63 L 863 63 L 863 62 L 866 61 L 867 61 L 867 60 L 868 60 L 869 59 L 869 58 L 871 58 L 871 57 L 871 56 L 872 56 L 872 55 L 873 54 L 873 54 L 875 53 L 877 52 L 877 52 L 878 51 L 879 50 L 879 50 L 881 49 L 883 49 L 883 48 L 884 47 L 886 47 L 888 46 L 889 45 L 889 45 L 890 44 L 893 43 L 893 43 L 893 42 L 894 41 L 894 41 L 895 40 L 895 39 L 896 39 L 896 38 L 898 38 L 903 37 L 904 36 L 906 36 L 907 35 L 910 34 L 912 34 L 913 33 L 916 32 L 920 32 L 924 31 L 928 30 L 929 30 L 929 29 L 929 28 L 930 28 L 931 27 L 931 27 L 931 26 L 933 25 L 933 25 L 933 24 L 934 23 L 936 23 L 937 22 L 937 21 L 939 21 L 939 20 L 943 19 L 944 19 L 944 18 L 945 17" stroke-width="2" class="series" /><path stroke-width="2" class="series" d="M 58 345 L 62 344 L 86 344 L 86 343 L 86 342 L 86 342 L 86 341 L 86 340 L 86 340 L 86 339 L 87 338 L 87 338 L 87 337 L 87 336 L 87 336 L 87 335 L 88 335 L 88 334 L 88 333 L 89 333 L 90 332 L 90 331 L 92 331 L 93 330 L 93 329 L 93 329 L 94 328 L 95 327 L 98 327 L 98 326 L 100 325 L 102 325 L 109 324 L 109 324 L 109 323 L 109 322 L 109 322 L 109 321 L 114 320 L 116 320 L 117 319 L 120 318 L 126 318 L 129 317 L 139 316 L 143 316 L 148 315 L 154 314 L 157 314 L 179 313 L 180 313 L 180 312 L 183 311 L 184 311 L 184 310 L 184 309 L 184 309 L 184 308 L 184 307 L 184 307 L 184 306 L 184 305 L 184 305 L 184 304 L 185 303 L 185 303 L 185 302 L 185 302 L 185 301 L 185 300 L 185 300 L 185 299 L 185 298 L 185 298 L 185 297 L 185 296 L 185 296 L 185 295 L 185 294 L 185 294 L 185 293 L 185 292 L 185 292 L 185 291 L 185 291 L 185 290 L 185 289 L 185 289 L 185 288 L 185 287 L 185 287 L 186 286 L 186 285 L 186 285 L 186 284 L 186 283 L 186 283 L 186 282 L 186 281 L 186 281 L 186 280 L 187 280 L 187 279 L 187 278 L 188 278 L 188 277 L 189 276 L 189 276 L 189 275 L 189 274 L 189 274 L 189 273 L 189 272 L 189 272 L 189 271 L 189 270 L 189 270 L 189 269 L 189 269 L 189 268 L 189 267 L 189 267 L 189 266 L 190 265 L 191 265 L 191 264 L 192 263 L 192 263 L 197 262 L 197 261 L 197 261 L 199 260 L 199 259 L 203 259 L 207 258 L 207 258 L 211 257 L 212 256 L 214 256 L 215 255 L 216 254 L 219 254 L 219 253 L 221 252 L 222 252 L 223 251 L 225 250 L 225 250 L 225 249 L 226 248 L 227 248 L 229 247 L 229 247 L 230 246 L 231 245 L 231 245 L 232 244 L 235 243 L 236 243 L 240 242 L 241 241 L 242 241 L 244 240 L 244 239 L 244 239 L 246 238 L 256 237 L 256 237 L 258 236 L 267 236 L 267 235 L 267 234 L 267 234 L 268 233 L 269 232 L 272 232 L 274 231 L 274 230 L 285 230 L 287 229 L 290 228 L 293 228 L 295 227 L 295 226 L 297 226 L 305 225 L 313 225 L 323 224 L 324 223 L 324 223 L 324 222 L 325 221 L 327 221 L 340 220 L 346 219 L 347 219 L 352 218 L 353 217 L 353 217 L 368 216 L 368 215 L 369 215 L 370 214 L 371 214 L 375 213 L 377 212 L 380 212 L 382 211 L 385 210 L 393 210 L 394 209 L 395 208 L 395 208 L 396 207 L 396 206 L 401 206 L 409 205 L 427 204 L 434 204 L 438 203 L 438 203 L 440 202 L 442 201 L 442 201 L 442 200 L 442 199 L 442 199 L 442 198 L 442 197 L 442 197 L 443 196 L 443 195 L 443 195 L 443 194 L 443 193 L 443 193 L 444 192 L 445 192 L 447 191 L 447 190 L 448 190 L 448 189 L 448 188 L 450 188 L 450 187 L 450 186 L 450 186 L 450 185 L 450 184 L 450 184 L 452 183 L 453 182 L 453 182 L 454 181 L 454 181 L 454 180 L 454 179 L 455 179 L 456 178 L 456 177 L 456 177 L 457 176 L 458 175 L 458 175 L 459 174 L 461 173 L 462 173 L 464 172 L 468 171 L 468 171 L 469 170 L 469 170 L 469 169 L 469 168 L 470 168 L 472 167 L 473 166 L 476 166 L 476 165 L 477 164 L 479 164 L 482 163 L 482 162 L 486 162 L 486 161 L 487 160 L 488 160 L 489 159 L 495 159 L 497 158 L 497 157 L 502 157 L 505 156 L 511 155 L 512 155 L 512 154 L 514 153 L 515 153 L 515 152 L 519 151 L 522 151 L 524 150 L 525 149 L 527 149 L 529 148 L 529 148 L 529 147 L 529 146 L 530 146 L 530 145 L 530 144 L 532 144 L 532 143 L 532 142 L 533 142 L 540 141 L 548 140 L 548 140 L 548 139 L 553 138 L 556 138 L 557 137 L 558 137 L 559 136 L 561 135 L 561 135 L 561 134 L 561 133 L 561 133 L 562 132 L 562 131 L 563 131 L 563 130 L 564 129 L 568 129 L 568 128 L 568 127 L 568 127 L 568 126 L 569 126 L 569 125 L 569 124 L 569 124 L 569 123 L 569 122 L 569 122 L 569 121 L 575 120 L 579 120 L 579 119 L 581 118 L 588 118 L 597 117 L 598 116 L 603 116 L 607 115 L 617 115 L 620 114 L 623 113 L 623 113 L 624 112 L 624 111 L 624 111 L 624 110 L 624 109 L 624 109 L 626 108 L 628 107 L 640 107 L 643 106 L 648 105 L 657 105 L 664 104 L 669 104 L 673 103 L 680 102 L 680 102 L 694 101 L 708 100 L 708 100 L 718 99 L 718 98 L 726 98 L 728 97 L 732 96 L 732 96 L 733 95 L 733 94 L 738 94 L 740 93 L 744 92 L 749 92 L 750 91 L 752 91 L 753 90 L 758 89 L 763 89 L 763 88 L 769 87 L 775 87 L 777 86 L 777 85 L 779 85 L 781 84 L 782 83 L 787 83 L 791 82 L 795 82 L 798 81 L 798 80 L 806 80 L 808 79 L 812 78 L 818 78 L 819 77 L 826 76 L 827 76 L 827 75 L 830 74 L 830 74 L 834 73 L 834 72 L 837 72 L 842 71 L 843 71 L 843 70 L 844 69 L 855 69 L 856 68 L 857 67 L 857 67 L 857 66 L 859 65 L 859 65 L 859 64 L 860 63 L 863 63 L 863 62 L 866 61 L 867 61 L 867 60 L 868 60 L 869 59 L 869 58 L 871 58 L 871 57 L 871 56 L 872 56 L 872 55 L 873 54 L 873 54 L 875 53 L 877 52 L 877 52 L 878 51 L 879 50 L 879 50 L 881 49 L 883 49 L 883 48 L 884 47 L 886 47 L 888 46 L 889 45 L 889 45 L 890 44 L 893 43 L 893 43 L 893 42 L 894 41 L 894 41 L 895 40 L 895 39 L 896 39 L 896 38 L 898 38 L 903 37 L 904 36 L 906 36 L 907 35 L 910 34 L 912 34 L 913 33 L 916 32 L 920 32 L 924 31 L 928 30 L 929 30 L 929 29 L 929 28 L 930 28 L 931 27 L 931 27 L 931 26 L 933 25 L 933 25 L 933 24 L 934 23 L 936 23 L 937 22 L 937 21 L 939 21 L 939 20 L 943 19 L 944 19 L 944 18 L 945 17"></path><path stroke-width="2" d="M 945 346 L 945.000000 15.000000" /><path stroke-width="2" d="M 945 346 L 945.000000 15.000000"></path><path stroke-width="2" d="M 945 346 L 950 346" /><path stroke-width="2" d="M 945 346 L 950 346"></path><text xmlns="http://www.w3.org/2000/svg" x="955" y="352">0</text><path d="M 945 309 L 950 309" stroke-width="2" /><path stroke-width="2" d="M 945 309 L 950 309"></path><text xmlns="http://www.w3.org/2000/svg" x="955" y="315">57</text><path stroke-width="2" d="M 945 272 L 950 272" /><path stroke-width="2" d="M 945 272 L 950 272"></path><text xmlns="http://www.w3.org/2000/svg" x="955" y="278">114</text><path d="M 945 236 L 950 236" stroke-width="2" /><path stroke-width="2" d="M 945 236 L 950 236"></path><text xmlns="http://www.w3.org/2000/svg" x="955" y="242">170</text><path stroke-width="2" d="M 945 199 L 950 199" /><path stroke-width="2" d="M 945 199 L 950 199"></path><text xmlns="http://www.w3.org/2000/svg" x="955" y="205">227</text><path stroke-width="2" d="M 945 162 L 950 162" /><path stroke-width="2" d="M 945 162 L 950 162"></path><text xmlns="http://www.w3.org/2000/svg" x="955" y="168">284</text><path stroke-width="2" d="M 945 126 L 950 126" /><path stroke-width="2" d="M 945 126 L 950 126"></path><text xmlns="http://www.w3.org/2000/svg" x="955" y="132">340</text><path stroke-width="2" d="M 945 89 L 950 89" /><path stroke-width="2" d="M 945 89 L 950 89"></path><text xmlns="http://www.w3.org/2000/svg" x="955" y="95">397</text><path d="M 945 52 L 950 52" stroke-width="2" /><path stroke-width="2" d="M 945 52 L 950 52"></path><text xmlns="http://www.w3.org/2000/svg" x="955" y="58">454</text><path stroke-width="2" d="M 945 16 L 950 16" /><path stroke-width="2" d="M 945 16 L 950 16"></path><text xmlns="http://www.w3.org/2000/svg" x="955" y="22">510</text><text xmlns="http://www.w3.org/2000/svg" x="987" y="175" transform="rotate(90.00,987,175)">Stargazers</text><path stroke-width="2" d="M 57.000000 346.000000 L 945 346" /><path stroke-width="2" d="M 57.000000 346.000000 L 945 346"></path><path d="M 58 346 L 58 351" stroke-width="2" /><path stroke-width="2" d="M 58 346 L 58 351"></path><text xmlns="http://www.w3.org/2000/svg" x="25" y="368">2023-04-02</text><path stroke-width="2" d="M 157 346 L 157 351" /><path stroke-width="2" d="M 157 346 L 157 351"></path><text xmlns="http://www.w3.org/2000/svg" x="124" y="368">2023-05-22</text><path stroke-width="2" d="M 256 346 L 256 351" /><path stroke-width="2" d="M 256 346 L 256 351"></path><text xmlns="http://www.w3.org/2000/svg" x="223" y="368">2023-07-12</text><path stroke-width="2" d="M 354 346 L 354 351" /><path stroke-width="2" d="M 354 346 L 354 351"></path><text xmlns="http://www.w3.org/2000/svg" x="321" y="368">2023-08-31</text><path stroke-width="2" d="M 453 346 L 453 351" /><path stroke-width="2" d="M 453 346 L 453 351"></path><text y="368" xmlns="http://www.w3.org/2000/svg" x="420">2023-10-20</text><path d="M 551 346 L 551 351" stroke-width="2" /><path stroke-width="2" d="M 551 346 L 551 351"></path><text xmlns="http://www.w3.org/2000/svg" x="518" y="368">2023-12-10</text><path stroke-width="2" d="M 650 346 L 650 351" /><path stroke-width="2" d="M 650 346 L 650 351"></path><text xmlns="http://www.w3.org/2000/svg" x="617" y="368">2024-01-29</text><path stroke-width="2" d="M 748 346 L 748 351" /><path stroke-width="2" d="M 748 346 L 748 351"></path><text y="368" xmlns="http://www.w3.org/2000/svg" x="715">2024-03-19</text><path stroke-width="2" d="M 847 346 L 847 351" /><path stroke-width="2" d="M 847 346 L 847 351"></path><text x="814" y="368" xmlns="http://www.w3.org/2000/svg">2024-05-09</text><path stroke-width="2" d="M 945 346 L 945 351" /><path stroke-width="2" d="M 945 346 L 945 351"></path><text xmlns="http://www.w3.org/2000/svg" x="912" y="368">2024-06-28</text><text y="390" xmlns="http://www.w3.org/2000/svg" x="487">Time</text></svg>