<svg xmlns="http://www.w3.org/2000/svg" xmlns:xlink="http://www.w3.org/1999/xlink" width="1024px" height="400px"><style type="text/css">
path { fill: none; stroke: rgb(51,51,51); }
path.series { stroke: #6b63ff; }
rect.background { fill: rgb(255,255,255); stroke: none; }

text {
	stroke-width: 0;
	stroke: none;
	fill: rgba(51,51,51,1.0);
	font-size: 12.8px;
	font-family: 'Roboto Medium', sans-serif;
}
</style><rect x="0" y="0" width="1024px" height="400px" class="background" rx="8" /><rect rx="8" x="0" y="0" width="1024px" height="400px" class="background"></rect><path d="M 58 345 L 62 344 L 86 343 L 87 343 L 87 342 L 87 341 L 87 341 L 87 340 L 87 339 L 87 339 L 88 338 L 88 337 L 88 337 L 88 336 L 88 335 L 88 335 L 88 334 L 89 333 L 89 333 L 90 332 L 91 331 L 91 331 L 92 330 L 94 329 L 94 329 L 94 328 L 95 327 L 96 327 L 99 326 L 99 325 L 101 325 L 102 324 L 110 323 L 110 323 L 110 322 L 110 321 L 110 321 L 110 320 L 115 319 L 117 319 L 118 318 L 122 317 L 128 317 L 130 316 L 141 315 L 144 315 L 150 314 L 156 313 L 159 313 L 181 312 L 182 311 L 182 310 L 185 310 L 186 309 L 186 308 L 186 308 L 186 307 L 186 306 L 186 306 L 186 305 L 186 304 L 186 304 L 186 303 L 186 302 L 187 302 L 187 301 L 187 300 L 187 300 L 187 299 L 187 298 L 187 298 L 187 297 L 187 296 L 187 296 L 187 295 L 187 294 L 187 294 L 187 293 L 187 292 L 187 292 L 187 291 L 188 290 L 188 290 L 188 289 L 188 288 L 188 288 L 188 287 L 188 286 L 188 286 L 188 285 L 188 284 L 188 284 L 188 283 L 188 282 L 188 282 L 188 281 L 188 280 L 188 280 L 188 279 L 188 278 L 189 277 L 189 277 L 189 276 L 189 275 L 190 275 L 190 274 L 191 273 L 191 273 L 191 272 L 191 271 L 191 271 L 191 270 L 191 269 L 191 269 L 191 268 L 191 267 L 191 267 L 191 266 L 191 265 L 192 265 L 192 264 L 192 263 L 192 263 L 192 262 L 194 261 L 194 261 L 194 260 L 194 259 L 199 259 L 200 258 L 200 257 L 202 257 L 202 256 L 205 255 L 209 255 L 210 254 L 213 253 L 215 253 L 217 252 L 218 251 L 219 251 L 222 250 L 222 249 L 224 249 L 225 248 L 226 247 L 228 247 L 228 246 L 228 245 L 229 244 L 230 244 L 232 243 L 232 242 L 233 242 L 234 241 L 234 240 L 235 240 L 238 239 L 240 238 L 243 238 L 244 237 L 246 236 L 247 236 L 247 235 L 248 234 L 250 234 L 260 233 L 260 232 L 262 232 L 271 231 L 271 230 L 271 230 L 271 229 L 272 228 L 273 228 L 276 227 L 278 226 L 278 226 L 289 225 L 291 224 L 294 224 L 297 223 L 300 222 L 300 222 L 301 221 L 309 220 L 318 220 L 328 219 L 329 218 L 329 218 L 329 217 L 330 216 L 332 216 L 345 215 L 352 214 L 352 214 L 357 213 L 358 212 L 359 211 L 374 211 L 374 210 L 375 209 L 375 209 L 377 208 L 381 207 L 383 207 L 386 206 L 388 205 L 391 205 L 400 204 L 400 203 L 401 203 L 402 202 L 402 201 L 403 201 L 407 200 L 415 199 L 434 199 L 441 198 L 445 197 L 445 197 L 447 196 L 449 195 L 449 195 L 449 194 L 449 193 L 449 193 L 449 192 L 449 191 L 449 191 L 450 190 L 450 189 L 450 189 L 450 188 L 450 187 L 451 187 L 451 186 L 452 185 L 454 185 L 455 184 L 455 183 L 455 183 L 455 182 L 457 181 L 457 181 L 457 180 L 457 179 L 457 178 L 458 178 L 458 177 L 459 176 L 460 176 L 461 175 L 461 174 L 461 174 L 461 173 L 461 172 L 463 172 L 463 171 L 463 170 L 463 170 L 465 169 L 465 168 L 465 168 L 467 167 L 469 166 L 469 166 L 472 165 L 475 164 L 475 164 L 477 163 L 477 162 L 477 162 L 477 161 L 477 160 L 480 160 L 481 159 L 483 158 L 483 158 L 485 157 L 487 156 L 490 156 L 490 155 L 494 154 L 494 154 L 495 153 L 496 152 L 496 152 L 503 151 L 505 150 L 505 150 L 511 149 L 513 148 L 519 148 L 520 147 L 521 146 L 522 145 L 523 145 L 523 144 L 527 143 L 531 143 L 533 142 L 533 141 L 535 141 L 537 140 L 537 139 L 537 139 L 537 138 L 538 137 L 539 137 L 539 136 L 541 135 L 541 135 L 541 134 L 542 133 L 549 133 L 557 132 L 557 131 L 557 131 L 562 130 L 565 129 L 566 129 L 567 128 L 569 127 L 570 127 L 570 126 L 570 125 L 571 125 L 571 124 L 571 123 L 571 123 L 572 122 L 572 121 L 573 121 L 577 120 L 577 119 L 577 119 L 577 118 L 578 117 L 578 117 L 578 116 L 578 115 L 578 115 L 578 114 L 578 113 L 579 112 L 579 112 L 585 111 L 589 110 L 589 110 L 590 109 L 598 108 L 606 108 L 608 107 L 613 106 L 617 106 L 627 105 L 630 104 L 633 104 L 634 103 L 634 102 L 634 102 L 634 101 L 634 100 L 634 100 L 635 99 L 637 98 L 638 98 L 651 97 L 654 96 L 659 96 L 668 95 L 675 94 L 680 94 L 684 93 L 691 92 L 691 92 L 706 91 L 720 90 L 720 90 L 730 89 L 731 88 L 739 88 L 740 87 L 744 86 L 745 86 L 746 85 L 746 84 L 750 84 L 752 83 L 756 82 L 762 82 L 763 81 L 765 80 L 765 79 L 771 79 L 776 78 L 776 77 L 782 77 L 789 76 L 790 75 L 790 75 L 792 74 L 794 73 L 795 73 L 800 72 L 804 71 L 808 71 L 812 70 L 812 69 L 820 69 L 821 68 L 825 67 L 832 67 L 833 66 L 840 65 L 841 65 L 841 64 L 844 63 L 844 63 L 848 62 L 848 61 L 851 61 L 856 60 L 857 59 L 858 59 L 858 58 L 870 57 L 870 57 L 871 56 L 872 55 L 872 55 L 873 54 L 874 53 L 874 53 L 875 52 L 878 51 L 878 51 L 880 50 L 881 49 L 882 49 L 883 48 L 884 47 L 884 46 L 886 46 L 886 45 L 886 44 L 887 44 L 887 43 L 888 42 L 888 42 L 890 41 L 892 40 L 892 40 L 893 39 L 894 38 L 894 38 L 896 37 L 898 36 L 898 36 L 899 35 L 901 34 L 904 34 L 904 33 L 905 32 L 905 32 L 908 31 L 908 30 L 909 30 L 909 29 L 910 28 L 910 28 L 910 27 L 911 26 L 912 26 L 913 25 L 918 24 L 920 24 L 922 23 L 922 22 L 926 22 L 928 21 L 929 20 L 932 20 L 936 19 L 940 18 L 944 18 L 945 17 L 945 16 L 945 16" stroke-width="2" class="series" /><path stroke-width="2" class="series" d="M 58 345 L 62 344 L 86 343 L 87 343 L 87 342 L 87 341 L 87 341 L 87 340 L 87 339 L 87 339 L 88 338 L 88 337 L 88 337 L 88 336 L 88 335 L 88 335 L 88 334 L 89 333 L 89 333 L 90 332 L 91 331 L 91 331 L 92 330 L 94 329 L 94 329 L 94 328 L 95 327 L 96 327 L 99 326 L 99 325 L 101 325 L 102 324 L 110 323 L 110 323 L 110 322 L 110 321 L 110 321 L 110 320 L 115 319 L 117 319 L 118 318 L 122 317 L 128 317 L 130 316 L 141 315 L 144 315 L 150 314 L 156 313 L 159 313 L 181 312 L 182 311 L 182 310 L 185 310 L 186 309 L 186 308 L 186 308 L 186 307 L 186 306 L 186 306 L 186 305 L 186 304 L 186 304 L 186 303 L 186 302 L 187 302 L 187 301 L 187 300 L 187 300 L 187 299 L 187 298 L 187 298 L 187 297 L 187 296 L 187 296 L 187 295 L 187 294 L 187 294 L 187 293 L 187 292 L 187 292 L 187 291 L 188 290 L 188 290 L 188 289 L 188 288 L 188 288 L 188 287 L 188 286 L 188 286 L 188 285 L 188 284 L 188 284 L 188 283 L 188 282 L 188 282 L 188 281 L 188 280 L 188 280 L 188 279 L 188 278 L 189 277 L 189 277 L 189 276 L 189 275 L 190 275 L 190 274 L 191 273 L 191 273 L 191 272 L 191 271 L 191 271 L 191 270 L 191 269 L 191 269 L 191 268 L 191 267 L 191 267 L 191 266 L 191 265 L 192 265 L 192 264 L 192 263 L 192 263 L 192 262 L 194 261 L 194 261 L 194 260 L 194 259 L 199 259 L 200 258 L 200 257 L 202 257 L 202 256 L 205 255 L 209 255 L 210 254 L 213 253 L 215 253 L 217 252 L 218 251 L 219 251 L 222 250 L 222 249 L 224 249 L 225 248 L 226 247 L 228 247 L 228 246 L 228 245 L 229 244 L 230 244 L 232 243 L 232 242 L 233 242 L 234 241 L 234 240 L 235 240 L 238 239 L 240 238 L 243 238 L 244 237 L 246 236 L 247 236 L 247 235 L 248 234 L 250 234 L 260 233 L 260 232 L 262 232 L 271 231 L 271 230 L 271 230 L 271 229 L 272 228 L 273 228 L 276 227 L 278 226 L 278 226 L 289 225 L 291 224 L 294 224 L 297 223 L 300 222 L 300 222 L 301 221 L 309 220 L 318 220 L 328 219 L 329 218 L 329 218 L 329 217 L 330 216 L 332 216 L 345 215 L 352 214 L 352 214 L 357 213 L 358 212 L 359 211 L 374 211 L 374 210 L 375 209 L 375 209 L 377 208 L 381 207 L 383 207 L 386 206 L 388 205 L 391 205 L 400 204 L 400 203 L 401 203 L 402 202 L 402 201 L 403 201 L 407 200 L 415 199 L 434 199 L 441 198 L 445 197 L 445 197 L 447 196 L 449 195 L 449 195 L 449 194 L 449 193 L 449 193 L 449 192 L 449 191 L 449 191 L 450 190 L 450 189 L 450 189 L 450 188 L 450 187 L 451 187 L 451 186 L 452 185 L 454 185 L 455 184 L 455 183 L 455 183 L 455 182 L 457 181 L 457 181 L 457 180 L 457 179 L 457 178 L 458 178 L 458 177 L 459 176 L 460 176 L 461 175 L 461 174 L 461 174 L 461 173 L 461 172 L 463 172 L 463 171 L 463 170 L 463 170 L 465 169 L 465 168 L 465 168 L 467 167 L 469 166 L 469 166 L 472 165 L 475 164 L 475 164 L 477 163 L 477 162 L 477 162 L 477 161 L 477 160 L 480 160 L 481 159 L 483 158 L 483 158 L 485 157 L 487 156 L 490 156 L 490 155 L 494 154 L 494 154 L 495 153 L 496 152 L 496 152 L 503 151 L 505 150 L 505 150 L 511 149 L 513 148 L 519 148 L 520 147 L 521 146 L 522 145 L 523 145 L 523 144 L 527 143 L 531 143 L 533 142 L 533 141 L 535 141 L 537 140 L 537 139 L 537 139 L 537 138 L 538 137 L 539 137 L 539 136 L 541 135 L 541 135 L 541 134 L 542 133 L 549 133 L 557 132 L 557 131 L 557 131 L 562 130 L 565 129 L 566 129 L 567 128 L 569 127 L 570 127 L 570 126 L 570 125 L 571 125 L 571 124 L 571 123 L 571 123 L 572 122 L 572 121 L 573 121 L 577 120 L 577 119 L 577 119 L 577 118 L 578 117 L 578 117 L 578 116 L 578 115 L 578 115 L 578 114 L 578 113 L 579 112 L 579 112 L 585 111 L 589 110 L 589 110 L 590 109 L 598 108 L 606 108 L 608 107 L 613 106 L 617 106 L 627 105 L 630 104 L 633 104 L 634 103 L 634 102 L 634 102 L 634 101 L 634 100 L 634 100 L 635 99 L 637 98 L 638 98 L 651 97 L 654 96 L 659 96 L 668 95 L 675 94 L 680 94 L 684 93 L 691 92 L 691 92 L 706 91 L 720 90 L 720 90 L 730 89 L 731 88 L 739 88 L 740 87 L 744 86 L 745 86 L 746 85 L 746 84 L 750 84 L 752 83 L 756 82 L 762 82 L 763 81 L 765 80 L 765 79 L 771 79 L 776 78 L 776 77 L 782 77 L 789 76 L 790 75 L 790 75 L 792 74 L 794 73 L 795 73 L 800 72 L 804 71 L 808 71 L 812 70 L 812 69 L 820 69 L 821 68 L 825 67 L 832 67 L 833 66 L 840 65 L 841 65 L 841 64 L 844 63 L 844 63 L 848 62 L 848 61 L 851 61 L 856 60 L 857 59 L 858 59 L 858 58 L 870 57 L 870 57 L 871 56 L 872 55 L 872 55 L 873 54 L 874 53 L 874 53 L 875 52 L 878 51 L 878 51 L 880 50 L 881 49 L 882 49 L 883 48 L 884 47 L 884 46 L 886 46 L 886 45 L 886 44 L 887 44 L 887 43 L 888 42 L 888 42 L 890 41 L 892 40 L 892 40 L 893 39 L 894 38 L 894 38 L 896 37 L 898 36 L 898 36 L 899 35 L 901 34 L 904 34 L 904 33 L 905 32 L 905 32 L 908 31 L 908 30 L 909 30 L 909 29 L 910 28 L 910 28 L 910 27 L 911 26 L 912 26 L 913 25 L 918 24 L 920 24 L 922 23 L 922 22 L 926 22 L 928 21 L 929 20 L 932 20 L 936 19 L 940 18 L 944 18 L 945 17 L 945 16 L 945 16"></path><path stroke-width="2" d="M 945 346 L 945.000000 15.000000" /><path stroke-width="2" d="M 945 346 L 945.000000 15.000000"></path><path stroke-width="2" d="M 945 346 L 950 346" /><path stroke-width="2" d="M 945 346 L 950 346"></path><text xmlns="http://www.w3.org/2000/svg" x="955" y="352">0</text><path stroke-width="2" d="M 945 308 L 950 308" /><path stroke-width="2" d="M 945 308 L 950 308"></path><text x="955" y="314" xmlns="http://www.w3.org/2000/svg">55</text><path stroke-width="2" d="M 945 272 L 950 272" /><path stroke-width="2" d="M 945 272 L 950 272"></path><text xmlns="http://www.w3.org/2000/svg" x="955" y="278">109</text><path d="M 945 235 L 950 235" stroke-width="2" /><path stroke-width="2" d="M 945 235 L 950 235"></path><text xmlns="http://www.w3.org/2000/svg" x="955" y="241">164</text><path stroke-width="2" d="M 945 199 L 950 199" /><path stroke-width="2" d="M 945 199 L 950 199"></path><text xmlns="http://www.w3.org/2000/svg" x="955" y="205">218</text><path stroke-width="2" d="M 945 162 L 950 162" /><path d="M 945 162 L 950 162" stroke-width="2"></path><text y="168" xmlns="http://www.w3.org/2000/svg" x="955">273</text><path d="M 945 125 L 950 125" stroke-width="2" /><path stroke-width="2" d="M 945 125 L 950 125"></path><text xmlns="http://www.w3.org/2000/svg" x="955" y="131">327</text><path stroke-width="2" d="M 945 88 L 950 88" /><path stroke-width="2" d="M 945 88 L 950 88"></path><text xmlns="http://www.w3.org/2000/svg" x="955" y="94">382</text><path stroke-width="2" d="M 945 52 L 950 52" /><path stroke-width="2" d="M 945 52 L 950 52"></path><text xmlns="http://www.w3.org/2000/svg" x="955" y="58">436</text><path d="M 945 16 L 950 16" stroke-width="2" /><path d="M 945 16 L 950 16" stroke-width="2"></path><text x="955" y="22" xmlns="http://www.w3.org/2000/svg">490</text><text xmlns="http://www.w3.org/2000/svg" x="987" y="175" transform="rotate(90.00,987,175)">Stargazers</text><path stroke-width="2" d="M 57.000000 346.000000 L 945 346" /><path stroke-width="2" d="M 57.000000 346.000000 L 945 346"></path><path d="M 58 346 L 58 351" stroke-width="2" /><path stroke-width="2" d="M 58 346 L 58 351"></path><text xmlns="http://www.w3.org/2000/svg" x="25" y="368">2023-04-02</text><path stroke-width="2" d="M 157 346 L 157 351" /><path stroke-width="2" d="M 157 346 L 157 351"></path><text xmlns="http://www.w3.org/2000/svg" x="124" y="368">2023-05-21</text><path d="M 256 346 L 256 351" stroke-width="2" /><path stroke-width="2" d="M 256 346 L 256 351"></path><text xmlns="http://www.w3.org/2000/svg" x="223" y="368">2023-07-10</text><path d="M 354 346 L 354 351" stroke-width="2" /><path stroke-width="2" d="M 354 346 L 354 351"></path><text xmlns="http://www.w3.org/2000/svg" x="321" y="368">2023-08-28</text><path stroke-width="2" d="M 453 346 L 453 351" /><path d="M 453 346 L 453 351" stroke-width="2"></path><text xmlns="http://www.w3.org/2000/svg" x="420" y="368">2023-10-17</text><path stroke-width="2" d="M 551 346 L 551 351" /><path stroke-width="2" d="M 551 346 L 551 351"></path><text x="518" y="368" xmlns="http://www.w3.org/2000/svg">2023-12-05</text><path stroke-width="2" d="M 650 346 L 650 351" /><path stroke-width="2" d="M 650 346 L 650 351"></path><text xmlns="http://www.w3.org/2000/svg" x="617" y="368">2024-01-24</text><path stroke-width="2" d="M 748 346 L 748 351" /><path stroke-width="2" d="M 748 346 L 748 351"></path><text x="715" y="368" xmlns="http://www.w3.org/2000/svg">2024-03-13</text><path stroke-width="2" d="M 847 346 L 847 351" /><path stroke-width="2" d="M 847 346 L 847 351"></path><text xmlns="http://www.w3.org/2000/svg" x="814" y="368">2024-05-01</text><path stroke-width="2" d="M 945 346 L 945 351" /><path stroke-width="2" d="M 945 346 L 945 351"></path><text xmlns="http://www.w3.org/2000/svg" x="912" y="368">2024-06-20</text><text xmlns="http://www.w3.org/2000/svg" x="487" y="390">Time</text></svg>