<svg xmlns:xlink="http://www.w3.org/1999/xlink" width="1024px" height="400px" xmlns="http://www.w3.org/2000/svg"><style type="text/css">
path { fill: none; stroke: rgb(51,51,51); }
path.series { stroke: #6b63ff; }
rect.background { fill: rgb(255,255,255); stroke: none; }

text {
	stroke-width: 0;
	stroke: none;
	fill: rgba(51,51,51,1.0);
	font-size: 12.8px;
	font-family: 'Roboto Medium', sans-serif;
}
</style><rect x="0" y="0" width="1024px" height="400px" class="background" rx="8" /><rect x="0" y="0" width="1024px" height="400px" class="background" rx="8"></rect><path stroke-width="2" class="series" d="M 58 345 L 60 345 L 72 345 L 73 344 L 73 344 L 73 344 L 73 343 L 73 343 L 73 343 L 73 343 L 73 342 L 73 342 L 73 342 L 73 341 L 73 341 L 73 341 L 73 340 L 73 340 L 73 340 L 74 340 L 74 339 L 75 339 L 75 339 L 76 338 L 76 338 L 76 338 L 76 337 L 77 337 L 78 337 L 79 337 L 80 336 L 80 336 L 84 336 L 84 335 L 84 335 L 84 335 L 84 334 L 87 334 L 88 334 L 88 334 L 90 333 L 93 333 L 94 333 L 99 332 L 101 332 L 104 332 L 107 331 L 108 331 L 120 331 L 120 331 L 122 330 L 122 330 L 122 330 L 122 329 L 122 329 L 122 329 L 122 328 L 122 328 L 122 328 L 122 328 L 122 327 L 122 327 L 123 327 L 123 326 L 123 326 L 123 326 L 123 325 L 123 325 L 123 325 L 123 325 L 123 324 L 123 324 L 123 324 L 123 323 L 123 323 L 123 323 L 123 322 L 123 322 L 123 322 L 123 322 L 123 321 L 123 321 L 123 321 L 123 320 L 123 320 L 123 320 L 123 319 L 123 319 L 123 319 L 123 319 L 123 318 L 123 318 L 123 318 L 123 317 L 123 317 L 123 317 L 123 316 L 123 316 L 123 316 L 124 316 L 124 315 L 124 315 L 124 315 L 124 314 L 125 314 L 125 314 L 125 313 L 125 313 L 125 313 L 125 313 L 125 312 L 125 312 L 125 312 L 125 311 L 125 311 L 125 311 L 125 310 L 125 310 L 125 310 L 125 310 L 125 309 L 125 309 L 126 309 L 126 308 L 126 308 L 126 308 L 129 307 L 129 307 L 129 307 L 130 307 L 130 306 L 132 306 L 134 306 L 134 305 L 136 305 L 136 305 L 138 304 L 138 304 L 138 304 L 140 304 L 140 303 L 141 303 L 142 303 L 142 302 L 143 302 L 143 302 L 143 301 L 143 301 L 144 301 L 145 301 L 145 300 L 146 300 L 146 300 L 146 299 L 147 299 L 148 299 L 149 298 L 151 298 L 151 298 L 152 298 L 153 297 L 153 297 L 153 297 L 154 296 L 159 296 L 159 296 L 160 295 L 164 295 L 165 295 L 165 295 L 165 294 L 165 294 L 166 294 L 167 293 L 168 293 L 168 293 L 174 292 L 175 292 L 176 292 L 178 292 L 179 291 L 179 291 L 180 291 L 184 290 L 188 290 L 193 290 L 193 289 L 193 289 L 194 289 L 194 289 L 202 288 L 205 288 L 205 288 L 207 287 L 208 287 L 208 287 L 216 286 L 216 286 L 216 286 L 216 286 L 217 285 L 219 285 L 220 285 L 222 284 L 223 284 L 224 284 L 229 283 L 229 283 L 230 283 L 230 283 L 230 282 L 230 282 L 232 282 L 236 281 L 246 281 L 249 281 L 251 280 L 251 280 L 253 280 L 253 280 L 253 279 L 253 279 L 253 279 L 253 278 L 253 278 L 253 278 L 254 277 L 254 277 L 254 277 L 254 277 L 254 276 L 254 276 L 254 276 L 256 275 L 256 275 L 256 275 L 256 274 L 257 274 L 257 274 L 257 274 L 257 273 L 257 273 L 257 273 L 258 272 L 258 272 L 259 272 L 259 271 L 259 271 L 259 271 L 259 271 L 259 270 L 260 270 L 260 270 L 260 269 L 261 269 L 261 269 L 261 268 L 262 268 L 263 268 L 263 268 L 265 267 L 266 267 L 266 267 L 267 266 L 267 266 L 267 266 L 267 265 L 267 265 L 269 265 L 269 265 L 270 264 L 270 264 L 271 264 L 272 263 L 273 263 L 274 263 L 275 262 L 276 262 L 276 262 L 277 262 L 277 261 L 280 261 L 281 261 L 281 260 L 284 260 L 285 260 L 288 259 L 289 259 L 289 259 L 290 259 L 290 258 L 290 258 L 292 258 L 294 257 L 295 257 L 295 257 L 297 256 L 297 256 L 297 256 L 297 256 L 298 255 L 298 255 L 298 255 L 299 254 L 299 254 L 299 254 L 300 253 L 303 253 L 307 253 L 307 253 L 307 252 L 310 252 L 311 252 L 312 251 L 312 251 L 313 251 L 314 250 L 314 250 L 314 250 L 314 250 L 314 249 L 314 249 L 314 249 L 315 248 L 315 248 L 315 248 L 317 247 L 317 247 L 317 247 L 317 247 L 317 246 L 318 246 L 318 246 L 318 245 L 318 245 L 318 245 L 318 244 L 318 244 L 318 244 L 321 244 L 323 243 L 323 243 L 324 243 L 332 242 L 333 242 L 335 242 L 337 241 L 344 241 L 345 241 L 345 241 L 345 240 L 346 240 L 346 240 L 346 239 L 346 239 L 347 239 L 348 238 L 354 238 L 355 238 L 358 238 L 362 237 L 366 237 L 369 237 L 371 236 L 374 236 L 374 236 L 381 235 L 388 235 L 388 235 L 393 235 L 394 234 L 398 234 L 398 234 L 401 233 L 401 233 L 401 233 L 401 232 L 403 232 L 404 232 L 406 232 L 409 231 L 410 231 L 411 231 L 411 230 L 414 230 L 416 230 L 416 229 L 420 229 L 423 229 L 423 229 L 423 228 L 425 228 L 425 228 L 426 227 L 428 227 L 430 227 L 432 226 L 434 226 L 434 226 L 438 226 L 439 225 L 441 225 L 444 225 L 445 224 L 448 224 L 449 224 L 449 223 L 450 223 L 450 223 L 452 223 L 452 222 L 454 222 L 456 222 L 457 221 L 457 221 L 457 221 L 463 220 L 463 220 L 464 220 L 464 220 L 464 219 L 465 219 L 465 219 L 465 218 L 466 218 L 467 218 L 467 217 L 468 217 L 469 217 L 469 217 L 470 216 L 470 216 L 470 216 L 471 215 L 471 215 L 471 215 L 472 214 L 472 214 L 472 214 L 472 214 L 473 213 L 474 213 L 474 213 L 474 212 L 475 212 L 475 212 L 476 211 L 477 211 L 477 211 L 478 211 L 479 210 L 480 210 L 480 210 L 480 209 L 481 209 L 482 209 L 482 208 L 482 208 L 483 208 L 483 208 L 483 207 L 483 207 L 484 207 L 484 206 L 485 206 L 487 206 L 488 205 L 489 205 L 489 205 L 491 205 L 492 204 L 493 204 L 494 204 L 496 203 L 498 203 L 500 203 L 501 202 L 501 202 L 501 202 L 501 202 L 502 201 L 502 201 L 502 201 L 503 200 L 503 200 L 503 200 L 503 199 L 504 199 L 505 199 L 505 199 L 506 198 L 506 198 L 508 198 L 508 197 L 508 197 L 509 197 L 510 196 L 512 196 L 517 196 L 517 196 L 517 195 L 517 195 L 519 195 L 520 194 L 521 194 L 521 194 L 521 193 L 521 193 L 523 193 L 525 193 L 525 192 L 525 192 L 525 192 L 527 191 L 527 191 L 527 191 L 528 190 L 530 190 L 533 190 L 533 190 L 536 189 L 536 189 L 537 189 L 539 188 L 540 188 L 542 188 L 544 187 L 545 187 L 546 187 L 546 187 L 546 186 L 547 186 L 547 186 L 547 185 L 547 185 L 548 185 L 548 184 L 549 184 L 549 184 L 549 184 L 549 183 L 550 183 L 551 183 L 554 182 L 555 182 L 559 182 L 560 181 L 561 181 L 561 181 L 562 181 L 564 180 L 565 180 L 565 180 L 565 179 L 565 179 L 565 179 L 566 178 L 566 178 L 566 178 L 566 178 L 566 177 L 566 177 L 567 177 L 567 176 L 567 176 L 569 176 L 569 175 L 569 175 L 570 175 L 571 175 L 571 174 L 571 174 L 571 174 L 572 173 L 574 173 L 574 173 L 574 172 L 575 172 L 575 172 L 575 172 L 576 171 L 576 171 L 577 171 L 578 170 L 580 170 L 583 170 L 583 169 L 585 169 L 587 169 L 590 169 L 591 168 L 593 168 L 596 168 L 596 167 L 596 167 L 600 167 L 601 166 L 602 166 L 602 166 L 602 166 L 609 165 L 609 165 L 610 165 L 610 164 L 611 164 L 611 164 L 612 163 L 612 163 L 612 163 L 613 163 L 613 162 L 614 162 L 614 162 L 614 161 L 614 161 L 614 161 L 614 160 L 615 160 L 615 160 L 616 160 L 617 159 L 618 159 L 618 159 L 618 158 L 619 158 L 619 158 L 620 157 L 620 157 L 621 157 L 621 157 L 621 156 L 621 156 L 623 156 L 623 155 L 624 155 L 624 155 L 625 154 L 626 154 L 626 154 L 626 154 L 626 153 L 626 153 L 627 153 L 627 152 L 627 152 L 628 152 L 628 151 L 629 151 L 630 151 L 630 151 L 630 150 L 630 150 L 630 150 L 631 149 L 631 149 L 631 149 L 632 148 L 632 148 L 632 148 L 633 148 L 633 147 L 633 147 L 633 147 L 633 146 L 633 146 L 634 146 L 634 145 L 634 145 L 634 145 L 634 145 L 636 144 L 637 144 L 639 144 L 639 143 L 639 143 L 639 143 L 640 142 L 641 142 L 641 142 L 642 142 L 644 141 L 646 141 L 646 141 L 647 140 L 648 140 L 648 140 L 649 139 L 649 139 L 649 139 L 649 139 L 649 138 L 649 138 L 649 138 L 649 137 L 650 137 L 650 137 L 650 136 L 650 136 L 650 136 L 651 136 L 651 135 L 651 135 L 652 135 L 652 134 L 654 134 L 654 134 L 654 133 L 654 133 L 655 133 L 655 132 L 656 132 L 659 132 L 659 132 L 659 131 L 659 131 L 659 131 L 661 130 L 663 130 L 663 130 L 665 130 L 665 129 L 665 129 L 665 129 L 666 128 L 670 128 L 672 128 L 674 127 L 675 127 L 676 127 L 677 126 L 678 126 L 678 126 L 678 126 L 678 125 L 679 125 L 679 125 L 680 124 L 680 124 L 681 124 L 683 124 L 683 123 L 683 123 L 683 123 L 683 122 L 683 122 L 683 122 L 683 121 L 683 121 L 683 121 L 683 121 L 683 120 L 683 120 L 683 120 L 683 119 L 683 119 L 683 119 L 684 118 L 684 118 L 684 118 L 684 118 L 684 117 L 684 117 L 684 117 L 685 116 L 685 116 L 685 116 L 686 115 L 686 115 L 686 115 L 686 115 L 686 114 L 686 114 L 687 114 L 688 113 L 690 113 L 690 113 L 690 112 L 691 112 L 691 112 L 691 112 L 692 111 L 694 111 L 695 111 L 696 110 L 696 110 L 696 110 L 696 109 L 696 109 L 696 109 L 696 109 L 697 108 L 698 108 L 698 108 L 701 107 L 702 107 L 704 107 L 706 106 L 707 106 L 707 106 L 707 106 L 707 105 L 708 105 L 708 105 L 708 104 L 709 104 L 709 104 L 710 103 L 710 103 L 710 103 L 710 103 L 710 102 L 711 102 L 711 102 L 711 101 L 711 101 L 711 101 L 711 100 L 712 100 L 713 100 L 713 100 L 714 99 L 714 99 L 714 99 L 714 98 L 715 98 L 716 98 L 716 97 L 716 97 L 716 97 L 717 97 L 718 96 L 721 96 L 721 96 L 722 95 L 725 95 L 725 95 L 726 94 L 729 94 L 729 94 L 730 94 L 732 93 L 737 93 L 737 93 L 739 92 L 740 92 L 742 92 L 743 91 L 743 91 L 744 91 L 745 91 L 746 90 L 746 90 L 747 90 L 749 89 L 749 89 L 749 89 L 750 88 L 750 88 L 750 88 L 751 88 L 754 87 L 754 87 L 755 87 L 756 86 L 757 86 L 758 86 L 758 85 L 759 85 L 759 85 L 759 85 L 760 84 L 760 84 L 761 84 L 761 83 L 762 83 L 763 83 L 763 82 L 763 82 L 764 82 L 765 82 L 765 81 L 765 81 L 766 81 L 766 80 L 766 80 L 766 80 L 766 79 L 767 79 L 767 79 L 769 79 L 770 78 L 771 78 L 774 78 L 774 77 L 775 77 L 776 77 L 778 76 L 780 76 L 782 76 L 783 76 L 784 75 L 785 75 L 786 75 L 788 74 L 790 74 L 790 74 L 790 73 L 790 73 L 790 73 L 790 73 L 791 72 L 792 72 L 793 72 L 794 71 L 794 71 L 794 71 L 800 70 L 800 70 L 801 70 L 803 70 L 804 69 L 805 69 L 805 69 L 806 68 L 806 68 L 806 68 L 808 67 L 808 67 L 808 67 L 809 67 L 809 66 L 809 66 L 810 66 L 810 65 L 811 65 L 812 65 L 814 64 L 815 64 L 819 64 L 820 64 L 820 63 L 821 63 L 822 63 L 822 62 L 822 62 L 822 62 L 825 61 L 826 61 L 828 61 L 828 61 L 828 60 L 828 60 L 830 60 L 831 59 L 833 59 L 833 59 L 833 58 L 833 58 L 834 58 L 834 58 L 834 57 L 835 57 L 836 57 L 836 56 L 837 56 L 838 56 L 839 55 L 839 55 L 839 55 L 839 55 L 840 54 L 840 54 L 843 54 L 847 53 L 847 53 L 850 53 L 851 52 L 854 52 L 854 52 L 855 52 L 855 51 L 856 51 L 857 51 L 858 50 L 860 50 L 861 50 L 864 49 L 868 49 L 868 49 L 868 49 L 869 48 L 869 48 L 870 48 L 871 47 L 871 47 L 879 47 L 882 46 L 882 46 L 883 46 L 885 46 L 887 45 L 889 45 L 890 45 L 890 44 L 891 44 L 892 44 L 897 43 L 897 43 L 898 43 L 900 43 L 902 42 L 903 42 L 903 42 L 903 41 L 903 41 L 903 41 L 904 40 L 904 40 L 906 40 L 907 40 L 908 39 L 908 39 L 908 39 L 909 38 L 911 38 L 915 38 L 916 37 L 917 37 L 918 37 L 918 37 L 919 36 L 919 36 L 919 36 L 919 35 L 919 35 L 921 35 L 922 34 L 923 34 L 923 34 L 923 34 L 923 33 L 924 33 L 924 33 L 924 32 L 924 32 L 924 32 L 924 31 L 925 31 L 925 31 L 925 31 L 926 30 L 926 30 L 926 30 L 926 29 L 927 29 L 927 29 L 928 28 L 933 28 L 934 28 L 935 28 L 936 27 L 936 27 L 936 27 L 936 26 L 936 26 L 936 26 L 936 25 L 936 25 L 936 25 L 936 25 L 936 24 L 936 24 L 936 24 L 936 23 L 936 23 L 936 23 L 936 22 L 937 22 L 937 22 L 937 22" /><path d="M 58 345 L 60 345 L 72 345 L 73 344 L 73 344 L 73 344 L 73 343 L 73 343 L 73 343 L 73 343 L 73 342 L 73 342 L 73 342 L 73 341 L 73 341 L 73 341 L 73 340 L 73 340 L 73 340 L 74 340 L 74 339 L 75 339 L 75 339 L 76 338 L 76 338 L 76 338 L 76 337 L 77 337 L 78 337 L 79 337 L 80 336 L 80 336 L 84 336 L 84 335 L 84 335 L 84 335 L 84 334 L 87 334 L 88 334 L 88 334 L 90 333 L 93 333 L 94 333 L 99 332 L 101 332 L 104 332 L 107 331 L 108 331 L 120 331 L 120 331 L 122 330 L 122 330 L 122 330 L 122 329 L 122 329 L 122 329 L 122 328 L 122 328 L 122 328 L 122 328 L 122 327 L 122 327 L 123 327 L 123 326 L 123 326 L 123 326 L 123 325 L 123 325 L 123 325 L 123 325 L 123 324 L 123 324 L 123 324 L 123 323 L 123 323 L 123 323 L 123 322 L 123 322 L 123 322 L 123 322 L 123 321 L 123 321 L 123 321 L 123 320 L 123 320 L 123 320 L 123 319 L 123 319 L 123 319 L 123 319 L 123 318 L 123 318 L 123 318 L 123 317 L 123 317 L 123 317 L 123 316 L 123 316 L 123 316 L 124 316 L 124 315 L 124 315 L 124 315 L 124 314 L 125 314 L 125 314 L 125 313 L 125 313 L 125 313 L 125 313 L 125 312 L 125 312 L 125 312 L 125 311 L 125 311 L 125 311 L 125 310 L 125 310 L 125 310 L 125 310 L 125 309 L 125 309 L 126 309 L 126 308 L 126 308 L 126 308 L 129 307 L 129 307 L 129 307 L 130 307 L 130 306 L 132 306 L 134 306 L 134 305 L 136 305 L 136 305 L 138 304 L 138 304 L 138 304 L 140 304 L 140 303 L 141 303 L 142 303 L 142 302 L 143 302 L 143 302 L 143 301 L 143 301 L 144 301 L 145 301 L 145 300 L 146 300 L 146 300 L 146 299 L 147 299 L 148 299 L 149 298 L 151 298 L 151 298 L 152 298 L 153 297 L 153 297 L 153 297 L 154 296 L 159 296 L 159 296 L 160 295 L 164 295 L 165 295 L 165 295 L 165 294 L 165 294 L 166 294 L 167 293 L 168 293 L 168 293 L 174 292 L 175 292 L 176 292 L 178 292 L 179 291 L 179 291 L 180 291 L 184 290 L 188 290 L 193 290 L 193 289 L 193 289 L 194 289 L 194 289 L 202 288 L 205 288 L 205 288 L 207 287 L 208 287 L 208 287 L 216 286 L 216 286 L 216 286 L 216 286 L 217 285 L 219 285 L 220 285 L 222 284 L 223 284 L 224 284 L 229 283 L 229 283 L 230 283 L 230 283 L 230 282 L 230 282 L 232 282 L 236 281 L 246 281 L 249 281 L 251 280 L 251 280 L 253 280 L 253 280 L 253 279 L 253 279 L 253 279 L 253 278 L 253 278 L 253 278 L 254 277 L 254 277 L 254 277 L 254 277 L 254 276 L 254 276 L 254 276 L 256 275 L 256 275 L 256 275 L 256 274 L 257 274 L 257 274 L 257 274 L 257 273 L 257 273 L 257 273 L 258 272 L 258 272 L 259 272 L 259 271 L 259 271 L 259 271 L 259 271 L 259 270 L 260 270 L 260 270 L 260 269 L 261 269 L 261 269 L 261 268 L 262 268 L 263 268 L 263 268 L 265 267 L 266 267 L 266 267 L 267 266 L 267 266 L 267 266 L 267 265 L 267 265 L 269 265 L 269 265 L 270 264 L 270 264 L 271 264 L 272 263 L 273 263 L 274 263 L 275 262 L 276 262 L 276 262 L 277 262 L 277 261 L 280 261 L 281 261 L 281 260 L 284 260 L 285 260 L 288 259 L 289 259 L 289 259 L 290 259 L 290 258 L 290 258 L 292 258 L 294 257 L 295 257 L 295 257 L 297 256 L 297 256 L 297 256 L 297 256 L 298 255 L 298 255 L 298 255 L 299 254 L 299 254 L 299 254 L 300 253 L 303 253 L 307 253 L 307 253 L 307 252 L 310 252 L 311 252 L 312 251 L 312 251 L 313 251 L 314 250 L 314 250 L 314 250 L 314 250 L 314 249 L 314 249 L 314 249 L 315 248 L 315 248 L 315 248 L 317 247 L 317 247 L 317 247 L 317 247 L 317 246 L 318 246 L 318 246 L 318 245 L 318 245 L 318 245 L 318 244 L 318 244 L 318 244 L 321 244 L 323 243 L 323 243 L 324 243 L 332 242 L 333 242 L 335 242 L 337 241 L 344 241 L 345 241 L 345 241 L 345 240 L 346 240 L 346 240 L 346 239 L 346 239 L 347 239 L 348 238 L 354 238 L 355 238 L 358 238 L 362 237 L 366 237 L 369 237 L 371 236 L 374 236 L 374 236 L 381 235 L 388 235 L 388 235 L 393 235 L 394 234 L 398 234 L 398 234 L 401 233 L 401 233 L 401 233 L 401 232 L 403 232 L 404 232 L 406 232 L 409 231 L 410 231 L 411 231 L 411 230 L 414 230 L 416 230 L 416 229 L 420 229 L 423 229 L 423 229 L 423 228 L 425 228 L 425 228 L 426 227 L 428 227 L 430 227 L 432 226 L 434 226 L 434 226 L 438 226 L 439 225 L 441 225 L 444 225 L 445 224 L 448 224 L 449 224 L 449 223 L 450 223 L 450 223 L 452 223 L 452 222 L 454 222 L 456 222 L 457 221 L 457 221 L 457 221 L 463 220 L 463 220 L 464 220 L 464 220 L 464 219 L 465 219 L 465 219 L 465 218 L 466 218 L 467 218 L 467 217 L 468 217 L 469 217 L 469 217 L 470 216 L 470 216 L 470 216 L 471 215 L 471 215 L 471 215 L 472 214 L 472 214 L 472 214 L 472 214 L 473 213 L 474 213 L 474 213 L 474 212 L 475 212 L 475 212 L 476 211 L 477 211 L 477 211 L 478 211 L 479 210 L 480 210 L 480 210 L 480 209 L 481 209 L 482 209 L 482 208 L 482 208 L 483 208 L 483 208 L 483 207 L 483 207 L 484 207 L 484 206 L 485 206 L 487 206 L 488 205 L 489 205 L 489 205 L 491 205 L 492 204 L 493 204 L 494 204 L 496 203 L 498 203 L 500 203 L 501 202 L 501 202 L 501 202 L 501 202 L 502 201 L 502 201 L 502 201 L 503 200 L 503 200 L 503 200 L 503 199 L 504 199 L 505 199 L 505 199 L 506 198 L 506 198 L 508 198 L 508 197 L 508 197 L 509 197 L 510 196 L 512 196 L 517 196 L 517 196 L 517 195 L 517 195 L 519 195 L 520 194 L 521 194 L 521 194 L 521 193 L 521 193 L 523 193 L 525 193 L 525 192 L 525 192 L 525 192 L 527 191 L 527 191 L 527 191 L 528 190 L 530 190 L 533 190 L 533 190 L 536 189 L 536 189 L 537 189 L 539 188 L 540 188 L 542 188 L 544 187 L 545 187 L 546 187 L 546 187 L 546 186 L 547 186 L 547 186 L 547 185 L 547 185 L 548 185 L 548 184 L 549 184 L 549 184 L 549 184 L 549 183 L 550 183 L 551 183 L 554 182 L 555 182 L 559 182 L 560 181 L 561 181 L 561 181 L 562 181 L 564 180 L 565 180 L 565 180 L 565 179 L 565 179 L 565 179 L 566 178 L 566 178 L 566 178 L 566 178 L 566 177 L 566 177 L 567 177 L 567 176 L 567 176 L 569 176 L 569 175 L 569 175 L 570 175 L 571 175 L 571 174 L 571 174 L 571 174 L 572 173 L 574 173 L 574 173 L 574 172 L 575 172 L 575 172 L 575 172 L 576 171 L 576 171 L 577 171 L 578 170 L 580 170 L 583 170 L 583 169 L 585 169 L 587 169 L 590 169 L 591 168 L 593 168 L 596 168 L 596 167 L 596 167 L 600 167 L 601 166 L 602 166 L 602 166 L 602 166 L 609 165 L 609 165 L 610 165 L 610 164 L 611 164 L 611 164 L 612 163 L 612 163 L 612 163 L 613 163 L 613 162 L 614 162 L 614 162 L 614 161 L 614 161 L 614 161 L 614 160 L 615 160 L 615 160 L 616 160 L 617 159 L 618 159 L 618 159 L 618 158 L 619 158 L 619 158 L 620 157 L 620 157 L 621 157 L 621 157 L 621 156 L 621 156 L 623 156 L 623 155 L 624 155 L 624 155 L 625 154 L 626 154 L 626 154 L 626 154 L 626 153 L 626 153 L 627 153 L 627 152 L 627 152 L 628 152 L 628 151 L 629 151 L 630 151 L 630 151 L 630 150 L 630 150 L 630 150 L 631 149 L 631 149 L 631 149 L 632 148 L 632 148 L 632 148 L 633 148 L 633 147 L 633 147 L 633 147 L 633 146 L 633 146 L 634 146 L 634 145 L 634 145 L 634 145 L 634 145 L 636 144 L 637 144 L 639 144 L 639 143 L 639 143 L 639 143 L 640 142 L 641 142 L 641 142 L 642 142 L 644 141 L 646 141 L 646 141 L 647 140 L 648 140 L 648 140 L 649 139 L 649 139 L 649 139 L 649 139 L 649 138 L 649 138 L 649 138 L 649 137 L 650 137 L 650 137 L 650 136 L 650 136 L 650 136 L 651 136 L 651 135 L 651 135 L 652 135 L 652 134 L 654 134 L 654 134 L 654 133 L 654 133 L 655 133 L 655 132 L 656 132 L 659 132 L 659 132 L 659 131 L 659 131 L 659 131 L 661 130 L 663 130 L 663 130 L 665 130 L 665 129 L 665 129 L 665 129 L 666 128 L 670 128 L 672 128 L 674 127 L 675 127 L 676 127 L 677 126 L 678 126 L 678 126 L 678 126 L 678 125 L 679 125 L 679 125 L 680 124 L 680 124 L 681 124 L 683 124 L 683 123 L 683 123 L 683 123 L 683 122 L 683 122 L 683 122 L 683 121 L 683 121 L 683 121 L 683 121 L 683 120 L 683 120 L 683 120 L 683 119 L 683 119 L 683 119 L 684 118 L 684 118 L 684 118 L 684 118 L 684 117 L 684 117 L 684 117 L 685 116 L 685 116 L 685 116 L 686 115 L 686 115 L 686 115 L 686 115 L 686 114 L 686 114 L 687 114 L 688 113 L 690 113 L 690 113 L 690 112 L 691 112 L 691 112 L 691 112 L 692 111 L 694 111 L 695 111 L 696 110 L 696 110 L 696 110 L 696 109 L 696 109 L 696 109 L 696 109 L 697 108 L 698 108 L 698 108 L 701 107 L 702 107 L 704 107 L 706 106 L 707 106 L 707 106 L 707 106 L 707 105 L 708 105 L 708 105 L 708 104 L 709 104 L 709 104 L 710 103 L 710 103 L 710 103 L 710 103 L 710 102 L 711 102 L 711 102 L 711 101 L 711 101 L 711 101 L 711 100 L 712 100 L 713 100 L 713 100 L 714 99 L 714 99 L 714 99 L 714 98 L 715 98 L 716 98 L 716 97 L 716 97 L 716 97 L 717 97 L 718 96 L 721 96 L 721 96 L 722 95 L 725 95 L 725 95 L 726 94 L 729 94 L 729 94 L 730 94 L 732 93 L 737 93 L 737 93 L 739 92 L 740 92 L 742 92 L 743 91 L 743 91 L 744 91 L 745 91 L 746 90 L 746 90 L 747 90 L 749 89 L 749 89 L 749 89 L 750 88 L 750 88 L 750 88 L 751 88 L 754 87 L 754 87 L 755 87 L 756 86 L 757 86 L 758 86 L 758 85 L 759 85 L 759 85 L 759 85 L 760 84 L 760 84 L 761 84 L 761 83 L 762 83 L 763 83 L 763 82 L 763 82 L 764 82 L 765 82 L 765 81 L 765 81 L 766 81 L 766 80 L 766 80 L 766 80 L 766 79 L 767 79 L 767 79 L 769 79 L 770 78 L 771 78 L 774 78 L 774 77 L 775 77 L 776 77 L 778 76 L 780 76 L 782 76 L 783 76 L 784 75 L 785 75 L 786 75 L 788 74 L 790 74 L 790 74 L 790 73 L 790 73 L 790 73 L 790 73 L 791 72 L 792 72 L 793 72 L 794 71 L 794 71 L 794 71 L 800 70 L 800 70 L 801 70 L 803 70 L 804 69 L 805 69 L 805 69 L 806 68 L 806 68 L 806 68 L 808 67 L 808 67 L 808 67 L 809 67 L 809 66 L 809 66 L 810 66 L 810 65 L 811 65 L 812 65 L 814 64 L 815 64 L 819 64 L 820 64 L 820 63 L 821 63 L 822 63 L 822 62 L 822 62 L 822 62 L 825 61 L 826 61 L 828 61 L 828 61 L 828 60 L 828 60 L 830 60 L 831 59 L 833 59 L 833 59 L 833 58 L 833 58 L 834 58 L 834 58 L 834 57 L 835 57 L 836 57 L 836 56 L 837 56 L 838 56 L 839 55 L 839 55 L 839 55 L 839 55 L 840 54 L 840 54 L 843 54 L 847 53 L 847 53 L 850 53 L 851 52 L 854 52 L 854 52 L 855 52 L 855 51 L 856 51 L 857 51 L 858 50 L 860 50 L 861 50 L 864 49 L 868 49 L 868 49 L 868 49 L 869 48 L 869 48 L 870 48 L 871 47 L 871 47 L 879 47 L 882 46 L 882 46 L 883 46 L 885 46 L 887 45 L 889 45 L 890 45 L 890 44 L 891 44 L 892 44 L 897 43 L 897 43 L 898 43 L 900 43 L 902 42 L 903 42 L 903 42 L 903 41 L 903 41 L 903 41 L 904 40 L 904 40 L 906 40 L 907 40 L 908 39 L 908 39 L 908 39 L 909 38 L 911 38 L 915 38 L 916 37 L 917 37 L 918 37 L 918 37 L 919 36 L 919 36 L 919 36 L 919 35 L 919 35 L 921 35 L 922 34 L 923 34 L 923 34 L 923 34 L 923 33 L 924 33 L 924 33 L 924 32 L 924 32 L 924 32 L 924 31 L 925 31 L 925 31 L 925 31 L 926 30 L 926 30 L 926 30 L 926 29 L 927 29 L 927 29 L 928 28 L 933 28 L 934 28 L 935 28 L 936 27 L 936 27 L 936 27 L 936 26 L 936 26 L 936 26 L 936 25 L 936 25 L 936 25 L 936 25 L 936 24 L 936 24 L 936 24 L 936 23 L 936 23 L 936 23 L 936 22 L 937 22 L 937 22 L 937 22" stroke-width="2" class="series"></path><path stroke-width="2" d="M 937 346 L 937.000000 15.000000" /><path stroke-width="2" d="M 937 346 L 937.000000 15.000000"></path><path stroke-width="2" d="M 937 346 L 942 346" /><path stroke-width="2" d="M 937 346 L 942 346"></path><text y="352" xmlns="http://www.w3.org/2000/svg" x="947">0</text><path stroke-width="2" d="M 937 307 L 942 307" /><path stroke-width="2" d="M 937 307 L 942 307"></path><text xmlns="http://www.w3.org/2000/svg" x="947" y="313">130</text><path stroke-width="2" d="M 937 271 L 942 271" /><path stroke-width="2" d="M 937 271 L 942 271"></path><text xmlns="http://www.w3.org/2000/svg" x="947" y="277">250</text><path stroke-width="2" d="M 937 235 L 942 235" /><path stroke-width="2" d="M 937 235 L 942 235"></path><text xmlns="http://www.w3.org/2000/svg" x="947" y="241">370</text><path stroke-width="2" d="M 937 199 L 942 199" /><path stroke-width="2" d="M 937 199 L 942 199"></path><text x="947" y="205" xmlns="http://www.w3.org/2000/svg">490</text><path d="M 937 160 L 942 160" stroke-width="2" /><path stroke-width="2" d="M 937 160 L 942 160"></path><text xmlns="http://www.w3.org/2000/svg" x="947" y="166">620</text><path stroke-width="2" d="M 937 124 L 942 124" /><path stroke-width="2" d="M 937 124 L 942 124"></path><text y="130" xmlns="http://www.w3.org/2000/svg" x="947">740</text><path stroke-width="2" d="M 937 88 L 942 88" /><path stroke-width="2" d="M 937 88 L 942 88"></path><text y="94" xmlns="http://www.w3.org/2000/svg" x="947">860</text><path stroke-width="2" d="M 937 52 L 942 52" /><path stroke-width="2" d="M 937 52 L 942 52"></path><text xmlns="http://www.w3.org/2000/svg" x="947" y="58">980</text><path stroke-width="2" d="M 937 16 L 942 16" /><path stroke-width="2" d="M 937 16 L 942 16"></path><text x="947" y="22" xmlns="http://www.w3.org/2000/svg">1100</text><text xmlns="http://www.w3.org/2000/svg" x="987" y="175" transform="rotate(90.00,987,175)">Stargazers</text><path d="M 57.000000 346.000000 L 937 346" stroke-width="2" /><path stroke-width="2" d="M 57.000000 346.000000 L 937 346"></path><path stroke-width="2" d="M 58 346 L 58 351" /><path stroke-width="2" d="M 58 346 L 58 351"></path><text xmlns="http://www.w3.org/2000/svg" x="25" y="368">2023-04-02</text><path stroke-width="2" d="M 156 346 L 156 351" /><path d="M 156 346 L 156 351" stroke-width="2"></path><text y="368" xmlns="http://www.w3.org/2000/svg" x="123">2023-07-09</text><path stroke-width="2" d="M 254 346 L 254 351" /><path stroke-width="2" d="M 254 346 L 254 351"></path><text xmlns="http://www.w3.org/2000/svg" x="221" y="368">2023-10-15</text><path stroke-width="2" d="M 351 346 L 351 351" /><path stroke-width="2" d="M 351 346 L 351 351"></path><text xmlns="http://www.w3.org/2000/svg" x="318" y="368">2024-01-22</text><path stroke-width="2" d="M 449 346 L 449 351" /><path d="M 449 346 L 449 351" stroke-width="2"></path><text y="368" xmlns="http://www.w3.org/2000/svg" x="416">2024-04-29</text><path stroke-width="2" d="M 547 346 L 547 351" /><path d="M 547 346 L 547 351" stroke-width="2"></path><text y="368" xmlns="http://www.w3.org/2000/svg" x="514">2024-08-05</text><path stroke-width="2" d="M 644 346 L 644 351" /><path stroke-width="2" d="M 644 346 L 644 351"></path><text x="611" y="368" xmlns="http://www.w3.org/2000/svg">2024-11-11</text><path stroke-width="2" d="M 742 346 L 742 351" /><path stroke-width="2" d="M 742 346 L 742 351"></path><text xmlns="http://www.w3.org/2000/svg" x="709" y="368">2025-02-18</text><path stroke-width="2" d="M 840 346 L 840 351" /><path stroke-width="2" d="M 840 346 L 840 351"></path><text x="807" y="368" xmlns="http://www.w3.org/2000/svg">2025-05-27</text><path stroke-width="2" d="M 937 346 L 937 351" /><path d="M 937 346 L 937 351" stroke-width="2"></path><text xmlns="http://www.w3.org/2000/svg" x="904" y="368">2025-09-02</text><text xmlns="http://www.w3.org/2000/svg" x="483" y="390">Time</text></svg>