<svg xmlns="http://www.w3.org/2000/svg" xmlns:xlink="http://www.w3.org/1999/xlink" width="1024px" height="400px"><style type="text/css">
path { fill: none; stroke: rgb(51,51,51); }
path.series { stroke: #6b63ff; }
rect.background { fill: rgb(255,255,255); stroke: none; }

text {
	stroke-width: 0;
	stroke: none;
	fill: rgba(51,51,51,1.0);
	font-size: 12.8px;
	font-family: 'Roboto Medium', sans-serif;
}
</style><rect width="1024px" height="400px" class="background" rx="8" x="0" y="0" /><rect x="0" y="0" width="1024px" height="400px" class="background" rx="8"></rect><path stroke-width="2" class="series" d="M 58 345 L 64 344 L 99 343 L 100 342 L 100 341 L 100 340 L 100 339 L 100 339 L 100 338 L 100 337 L 101 336 L 101 335 L 101 334 L 101 333 L 101 332 L 101 332 L 101 331 L 101 330 L 102 329 L 102 328 L 104 327 L 105 326 L 105 326 L 108 325 L 110 324 L 110 323 L 110 322 L 111 321 L 113 320 L 117 319 L 117 319 L 120 318 L 122 317 L 133 316 L 134 315 L 134 314 L 134 313 L 134 313 L 134 312 L 134 311 L 140 310 L 143 309 L 145 308 L 150 307 L 159 306 L 163 306 L 178 305 L 183 304 L 191 303 L 200 302 L 204 301 L 237 300 L 239 299 L 239 299 L 243 298 L 244 297 L 244 296 L 244 295 L 244 294 L 244 293 L 244 293 L 244 292 L 244 291 L 245 290 L 245 289 L 245 288 L 245 287 L 246 286 L 246 286 L 246 285 L 246 284 L 246 283 L 246 282 L 246 281 L 246 280 L 246 280 L 246 279 L 246 278 L 246 277 L 246 276 L 246 275 L 246 274 L 246 273 L 246 273 L 246 272 L 247 271 L 247 270 L 247 269 L 247 268 L 247 267 L 247 266 L 247 266 L 247 265 L 247 264 L 247 263 L 247 262 L 247 261 L 247 260 L 247 260 L 247 259 L 248 258 L 248 257 L 248 256 L 249 255 L 249 254 L 249 253 L 250 253 L 250 252 L 252 251 L 252 250 L 252 249 L 252 248 L 252 247 L 252 247 L 252 246 L 252 245 L 252 244 L 252 243 L 252 242 L 252 241 L 252 240 L 252 240 L 252 239 L 252 238 L 253 237 L 253 236 L 255 235 L 256 234 L 256 233 L 256 233 L 264 232 L 264 231 L 264 230 L 267 229 L 267 228 L 272 227 L 278 227 L 279 226 L 284 225 L 286 224 L 289 223 L 290 222 L 291 221 L 296 220 L 297 220 L 299 219 L 301 218 L 302 217 L 305 216 L 305 215 L 305 214 L 306 214 L 309 213 L 311 212 L 311 211 L 313 210 L 314 209 L 314 208 L 316 207 L 320 207 L 322 206 L 327 205 L 329 204 L 331 203 L 333 202 L 333 201 L 334 200 L 337 200 L 351 199 L 352 198 L 354 197 L 368 196 L 368 195 L 368 194 L 368 194 L 369 193 L 371 192 L 375 191 L 377 190 L 378 189 L 394 188 L 397 187 L 401 187 L 406 186 L 410 185 L 410 184 L 412 183 L 423 182 L 436 181 L 451 181 L 452 180 L 452 179 L 453 178 L 453 177 L 456 176 L 476 175 L 485 174 L 485 174 L 493 173 L 494 172 L 495 171 L 517 170 L 517 169 L 519 168 L 519 167 L 522 167 L 528 166 L 531 165 L 535 164 L 538 163 L 543 162 L 555 161 L 555 161 L 557 160 L 558 159 L 558 158 L 559 157 L 565 156 L 566 155 L 578 154 L 595 154 L 605 153 L 615 152 L 615 151 L 620 150 L 621 149 L 624 148 L 627 148 L 627 147 L 627 146 L 627 145 L 627 144 L 627 143 L 627 142 L 627 141 L 628 141 L 628 140 L 628 139 L 628 138 L 628 137 L 629 136 L 630 135 L 631 134 L 634 134 L 635 133 L 635 132 L 635 131 L 635 130 L 639 129 L 639 128 L 639 128 L 639 127 L 639 126 L 639 125 L 639 124 L 641 123 L 642 122 L 643 121 L 644 121 L 644 120 L 644 119 L 645 118 L 645 117 L 647 116 L 647 115 L 647 115 L 648 114 L 649 113 L 650 112 L 651 111 L 653 110 L 655 109 L 657 108 L 660 108 L 665 107 L 665 106 L 667 105 L 667 104 L 667 103 L 667 102 L 668 101 L 671 101 L 673 100 L 677 99 L 677 98 L 679 97 L 682 96 L 686 95 L 686 95 L 692 94 L 693 93 L 694 92 L 696 91 L 696 90 L 706 89 L 708 88 L 709 88 L 716 87 L 720 86 L 728 85 L 730 84 L 731 83 L 733 82 L 734 82 L 734 81 L 741 80 L 745 79 L 749 78 L 749 77 L 752 76 L 755 75 L 755 75 L 755 74 L 755 73 L 757 72 L 757 71 L 758 70 L 760 69 L 760 68 L 760 68 L 762 67 L 772 66 L 784 65 L 784 64 L 784 63 L 792 62 L 796 62 L 797 61 L 798 60 L 801 59 L 803 58 L 804 57 L 804 56 L 804 55 L 804 55 L 805 54 L 805 53 L 806 52 L 806 51 L 807 50 L 813 49 L 813 49 L 813 48 L 813 47 L 814 46 L 815 45 L 815 44 L 815 43 L 815 42 L 815 42 L 815 41 L 816 40 L 819 39 L 824 38 L 830 37 L 830 36 L 832 35 L 843 35 L 856 34 L 858 33 L 865 32 L 871 31 L 885 30 L 890 29 L 895 29 L 896 28 L 896 27 L 896 26 L 897 25 L 897 24 L 897 23 L 897 22 L 900 22 L 902 21 L 920 20 L 925 19 L 932 18 L 945 17" /><path stroke-width="2" class="series" d="M 58 345 L 64 344 L 99 343 L 100 342 L 100 341 L 100 340 L 100 339 L 100 339 L 100 338 L 100 337 L 101 336 L 101 335 L 101 334 L 101 333 L 101 332 L 101 332 L 101 331 L 101 330 L 102 329 L 102 328 L 104 327 L 105 326 L 105 326 L 108 325 L 110 324 L 110 323 L 110 322 L 111 321 L 113 320 L 117 319 L 117 319 L 120 318 L 122 317 L 133 316 L 134 315 L 134 314 L 134 313 L 134 313 L 134 312 L 134 311 L 140 310 L 143 309 L 145 308 L 150 307 L 159 306 L 163 306 L 178 305 L 183 304 L 191 303 L 200 302 L 204 301 L 237 300 L 239 299 L 239 299 L 243 298 L 244 297 L 244 296 L 244 295 L 244 294 L 244 293 L 244 293 L 244 292 L 244 291 L 245 290 L 245 289 L 245 288 L 245 287 L 246 286 L 246 286 L 246 285 L 246 284 L 246 283 L 246 282 L 246 281 L 246 280 L 246 280 L 246 279 L 246 278 L 246 277 L 246 276 L 246 275 L 246 274 L 246 273 L 246 273 L 246 272 L 247 271 L 247 270 L 247 269 L 247 268 L 247 267 L 247 266 L 247 266 L 247 265 L 247 264 L 247 263 L 247 262 L 247 261 L 247 260 L 247 260 L 247 259 L 248 258 L 248 257 L 248 256 L 249 255 L 249 254 L 249 253 L 250 253 L 250 252 L 252 251 L 252 250 L 252 249 L 252 248 L 252 247 L 252 247 L 252 246 L 252 245 L 252 244 L 252 243 L 252 242 L 252 241 L 252 240 L 252 240 L 252 239 L 252 238 L 253 237 L 253 236 L 255 235 L 256 234 L 256 233 L 256 233 L 264 232 L 264 231 L 264 230 L 267 229 L 267 228 L 272 227 L 278 227 L 279 226 L 284 225 L 286 224 L 289 223 L 290 222 L 291 221 L 296 220 L 297 220 L 299 219 L 301 218 L 302 217 L 305 216 L 305 215 L 305 214 L 306 214 L 309 213 L 311 212 L 311 211 L 313 210 L 314 209 L 314 208 L 316 207 L 320 207 L 322 206 L 327 205 L 329 204 L 331 203 L 333 202 L 333 201 L 334 200 L 337 200 L 351 199 L 352 198 L 354 197 L 368 196 L 368 195 L 368 194 L 368 194 L 369 193 L 371 192 L 375 191 L 377 190 L 378 189 L 394 188 L 397 187 L 401 187 L 406 186 L 410 185 L 410 184 L 412 183 L 423 182 L 436 181 L 451 181 L 452 180 L 452 179 L 453 178 L 453 177 L 456 176 L 476 175 L 485 174 L 485 174 L 493 173 L 494 172 L 495 171 L 517 170 L 517 169 L 519 168 L 519 167 L 522 167 L 528 166 L 531 165 L 535 164 L 538 163 L 543 162 L 555 161 L 555 161 L 557 160 L 558 159 L 558 158 L 559 157 L 565 156 L 566 155 L 578 154 L 595 154 L 605 153 L 615 152 L 615 151 L 620 150 L 621 149 L 624 148 L 627 148 L 627 147 L 627 146 L 627 145 L 627 144 L 627 143 L 627 142 L 627 141 L 628 141 L 628 140 L 628 139 L 628 138 L 628 137 L 629 136 L 630 135 L 631 134 L 634 134 L 635 133 L 635 132 L 635 131 L 635 130 L 639 129 L 639 128 L 639 128 L 639 127 L 639 126 L 639 125 L 639 124 L 641 123 L 642 122 L 643 121 L 644 121 L 644 120 L 644 119 L 645 118 L 645 117 L 647 116 L 647 115 L 647 115 L 648 114 L 649 113 L 650 112 L 651 111 L 653 110 L 655 109 L 657 108 L 660 108 L 665 107 L 665 106 L 667 105 L 667 104 L 667 103 L 667 102 L 668 101 L 671 101 L 673 100 L 677 99 L 677 98 L 679 97 L 682 96 L 686 95 L 686 95 L 692 94 L 693 93 L 694 92 L 696 91 L 696 90 L 706 89 L 708 88 L 709 88 L 716 87 L 720 86 L 728 85 L 730 84 L 731 83 L 733 82 L 734 82 L 734 81 L 741 80 L 745 79 L 749 78 L 749 77 L 752 76 L 755 75 L 755 75 L 755 74 L 755 73 L 757 72 L 757 71 L 758 70 L 760 69 L 760 68 L 760 68 L 762 67 L 772 66 L 784 65 L 784 64 L 784 63 L 792 62 L 796 62 L 797 61 L 798 60 L 801 59 L 803 58 L 804 57 L 804 56 L 804 55 L 804 55 L 805 54 L 805 53 L 806 52 L 806 51 L 807 50 L 813 49 L 813 49 L 813 48 L 813 47 L 814 46 L 815 45 L 815 44 L 815 43 L 815 42 L 815 42 L 815 41 L 816 40 L 819 39 L 824 38 L 830 37 L 830 36 L 832 35 L 843 35 L 856 34 L 858 33 L 865 32 L 871 31 L 885 30 L 890 29 L 895 29 L 896 28 L 896 27 L 896 26 L 897 25 L 897 24 L 897 23 L 897 22 L 900 22 L 902 21 L 920 20 L 925 19 L 932 18 L 945 17"></path><path d="M 945 346 L 945.000000 15.000000" stroke-width="2" /><path stroke-width="2" d="M 945 346 L 945.000000 15.000000"></path><path stroke-width="2" d="M 945 346 L 950 346" /><path stroke-width="2" d="M 945 346 L 950 346"></path><text xmlns="http://www.w3.org/2000/svg" x="955" y="352">0</text><path stroke-width="2" d="M 945 308 L 950 308" /><path stroke-width="2" d="M 945 308 L 950 308"></path><text xmlns="http://www.w3.org/2000/svg" x="955" y="314">43</text><path stroke-width="2" d="M 945 272 L 950 272" /><path stroke-width="2" d="M 945 272 L 950 272"></path><text xmlns="http://www.w3.org/2000/svg" x="955" y="278">85</text><path stroke-width="2" d="M 945 235 L 950 235" /><path d="M 945 235 L 950 235" stroke-width="2"></path><text xmlns="http://www.w3.org/2000/svg" x="955" y="241">127</text><path d="M 945 199 L 950 199" stroke-width="2" /><path d="M 945 199 L 950 199" stroke-width="2"></path><text xmlns="http://www.w3.org/2000/svg" x="955" y="205">169</text><path d="M 945 161 L 950 161" stroke-width="2" /><path stroke-width="2" d="M 945 161 L 950 161"></path><text xmlns="http://www.w3.org/2000/svg" x="955" y="167">212</text><path stroke-width="2" d="M 945 125 L 950 125" /><path d="M 945 125 L 950 125" stroke-width="2"></path><text xmlns="http://www.w3.org/2000/svg" x="955" y="131">254</text><path stroke-width="2" d="M 945 88 L 950 88" /><path stroke-width="2" d="M 945 88 L 950 88"></path><text x="955" y="94" xmlns="http://www.w3.org/2000/svg">296</text><path stroke-width="2" d="M 945 52 L 950 52" /><path stroke-width="2" d="M 945 52 L 950 52"></path><text xmlns="http://www.w3.org/2000/svg" x="955" y="58">338</text><path stroke-width="2" d="M 945 16 L 950 16" /><path d="M 945 16 L 950 16" stroke-width="2"></path><text xmlns="http://www.w3.org/2000/svg" x="955" y="22">380</text><text xmlns="http://www.w3.org/2000/svg" x="987" y="175" transform="rotate(90.00,987,175)">Stargazers</text><path d="M 57.000000 346.000000 L 945 346" stroke-width="2" /><path stroke-width="2" d="M 57.000000 346.000000 L 945 346"></path><path stroke-width="2" d="M 58 346 L 58 351" /><path stroke-width="2" d="M 58 346 L 58 351"></path><text xmlns="http://www.w3.org/2000/svg" x="25" y="368">2023-04-02</text><path stroke-width="2" d="M 157 346 L 157 351" /><path stroke-width="2" d="M 157 346 L 157 351"></path><text xmlns="http://www.w3.org/2000/svg" x="124" y="368">2023-05-06</text><path stroke-width="2" d="M 256 346 L 256 351" /><path stroke-width="2" d="M 256 346 L 256 351"></path><text xmlns="http://www.w3.org/2000/svg" x="223" y="368">2023-06-09</text><path stroke-width="2" d="M 354 346 L 354 351" /><path stroke-width="2" d="M 354 346 L 354 351"></path><text xmlns="http://www.w3.org/2000/svg" x="321" y="368">2023-07-13</text><path stroke-width="2" d="M 453 346 L 453 351" /><path stroke-width="2" d="M 453 346 L 453 351"></path><text x="420" y="368" xmlns="http://www.w3.org/2000/svg">2023-08-16</text><path stroke-width="2" d="M 551 346 L 551 351" /><path stroke-width="2" d="M 551 346 L 551 351"></path><text xmlns="http://www.w3.org/2000/svg" x="518" y="368">2023-09-19</text><path stroke-width="2" d="M 650 346 L 650 351" /><path stroke-width="2" d="M 650 346 L 650 351"></path><text x="617" y="368" xmlns="http://www.w3.org/2000/svg">2023-10-23</text><path stroke-width="2" d="M 748 346 L 748 351" /><path stroke-width="2" d="M 748 346 L 748 351"></path><text xmlns="http://www.w3.org/2000/svg" x="715" y="368">2023-11-26</text><path stroke-width="2" d="M 847 346 L 847 351" /><path stroke-width="2" d="M 847 346 L 847 351"></path><text y="368" xmlns="http://www.w3.org/2000/svg" x="814">2023-12-30</text><path stroke-width="2" d="M 945 346 L 945 351" /><path stroke-width="2" d="M 945 346 L 945 351"></path><text xmlns="http://www.w3.org/2000/svg" x="912" y="368">2024-02-02</text><text xmlns="http://www.w3.org/2000/svg" x="487" y="390">Time</text></svg>