<svg xmlns:xlink="http://www.w3.org/1999/xlink" width="1024px" height="400px" xmlns="http://www.w3.org/2000/svg"><style type="text/css">
path { fill: none; stroke: rgb(51,51,51); }
path.series { stroke: #6b63ff; }
rect.background { fill: rgb(255,255,255); stroke: none; }

text {
	stroke-width: 0;
	stroke: none;
	fill: rgba(51,51,51,1.0);
	font-size: 12.8px;
	font-family: 'Roboto Medium', sans-serif;
}
</style><rect rx="8" x="0" y="0" width="1024px" height="400px" class="background" /><rect x="0" y="0" width="1024px" height="400px" class="background" rx="8"></rect><path stroke-width="2" class="series" d="M 58 345 L 60 345 L 72 345 L 72 344 L 72 344 L 72 344 L 72 343 L 72 343 L 72 343 L 72 343 L 73 342 L 73 342 L 73 342 L 73 341 L 73 341 L 73 341 L 73 340 L 73 340 L 73 340 L 74 340 L 74 339 L 74 339 L 75 339 L 76 338 L 76 338 L 76 338 L 76 337 L 77 337 L 78 337 L 78 337 L 79 336 L 80 336 L 84 336 L 84 335 L 84 335 L 84 335 L 84 334 L 86 334 L 87 334 L 88 334 L 90 333 L 93 333 L 94 333 L 99 332 L 101 332 L 103 332 L 106 331 L 108 331 L 119 331 L 120 331 L 121 330 L 121 330 L 121 330 L 121 329 L 121 329 L 121 329 L 121 328 L 121 328 L 121 328 L 121 328 L 121 327 L 121 327 L 122 327 L 122 326 L 122 326 L 122 326 L 122 325 L 122 325 L 122 325 L 122 325 L 122 324 L 122 324 L 122 324 L 122 323 L 122 323 L 122 323 L 122 322 L 122 322 L 122 322 L 122 322 L 122 321 L 122 321 L 122 321 L 122 320 L 122 320 L 122 320 L 122 319 L 122 319 L 122 319 L 122 319 L 122 318 L 122 318 L 122 318 L 122 317 L 122 317 L 122 317 L 122 316 L 122 316 L 123 316 L 123 316 L 123 315 L 123 315 L 123 315 L 123 314 L 124 314 L 124 314 L 124 313 L 124 313 L 124 313 L 124 313 L 124 312 L 124 312 L 124 312 L 124 311 L 124 311 L 124 311 L 124 310 L 124 310 L 124 310 L 124 310 L 124 309 L 124 309 L 125 309 L 125 308 L 125 308 L 125 308 L 128 307 L 128 307 L 128 307 L 129 307 L 129 306 L 131 306 L 133 306 L 133 305 L 135 305 L 135 305 L 137 304 L 137 304 L 137 304 L 139 304 L 139 303 L 140 303 L 141 303 L 141 302 L 142 302 L 142 302 L 142 301 L 142 301 L 143 301 L 144 301 L 144 300 L 144 300 L 145 300 L 145 299 L 145 299 L 147 299 L 148 298 L 149 298 L 150 298 L 151 298 L 151 297 L 151 297 L 152 297 L 153 296 L 157 296 L 158 296 L 158 295 L 163 295 L 163 295 L 163 295 L 163 294 L 163 294 L 164 294 L 165 293 L 166 293 L 166 293 L 172 292 L 173 292 L 174 292 L 176 292 L 177 291 L 177 291 L 178 291 L 182 290 L 186 290 L 191 290 L 192 289 L 192 289 L 192 289 L 192 289 L 200 288 L 203 288 L 203 288 L 205 287 L 206 287 L 206 287 L 214 286 L 214 286 L 214 286 L 214 286 L 215 285 L 217 285 L 218 285 L 220 284 L 221 284 L 222 284 L 226 283 L 226 283 L 227 283 L 227 283 L 228 282 L 228 282 L 230 282 L 234 281 L 243 281 L 247 281 L 248 280 L 249 280 L 251 280 L 251 280 L 251 279 L 251 279 L 251 279 L 251 278 L 251 278 L 251 278 L 251 277 L 251 277 L 251 277 L 251 277 L 251 276 L 251 276 L 252 276 L 253 275 L 254 275 L 254 275 L 254 274 L 255 274 L 255 274 L 255 274 L 255 273 L 255 273 L 255 273 L 255 272 L 256 272 L 256 272 L 256 271 L 257 271 L 257 271 L 257 271 L 257 270 L 257 270 L 258 270 L 258 269 L 258 269 L 259 269 L 259 268 L 259 268 L 260 268 L 261 268 L 262 267 L 264 267 L 264 267 L 264 266 L 264 266 L 264 266 L 264 265 L 264 265 L 266 265 L 266 265 L 268 264 L 268 264 L 268 264 L 269 263 L 271 263 L 271 263 L 273 262 L 273 262 L 273 262 L 274 262 L 274 261 L 277 261 L 278 261 L 278 260 L 281 260 L 282 260 L 285 259 L 286 259 L 286 259 L 287 259 L 287 258 L 287 258 L 289 258 L 291 257 L 292 257 L 292 257 L 294 256 L 294 256 L 294 256 L 294 256 L 295 255 L 295 255 L 295 255 L 296 254 L 296 254 L 296 254 L 296 253 L 300 253 L 304 253 L 304 253 L 304 252 L 306 252 L 308 252 L 308 251 L 309 251 L 310 251 L 310 250 L 310 250 L 310 250 L 310 250 L 311 249 L 311 249 L 311 249 L 311 248 L 311 248 L 312 248 L 314 247 L 314 247 L 314 247 L 314 247 L 314 246 L 314 246 L 314 246 L 314 245 L 314 245 L 314 245 L 314 244 L 314 244 L 314 244 L 317 244 L 319 243 L 319 243 L 320 243 L 328 242 L 329 242 L 331 242 L 333 241 L 340 241 L 341 241 L 342 241 L 342 240 L 342 240 L 342 240 L 342 239 L 342 239 L 343 239 L 344 238 L 350 238 L 351 238 L 354 238 L 358 237 L 362 237 L 364 237 L 366 236 L 370 236 L 370 236 L 377 235 L 384 235 L 384 235 L 389 235 L 389 234 L 393 234 L 394 234 L 396 233 L 396 233 L 397 233 L 397 232 L 399 232 L 400 232 L 402 232 L 405 231 L 405 231 L 406 231 L 406 230 L 409 230 L 412 230 L 412 229 L 415 229 L 418 229 L 418 229 L 418 228 L 420 228 L 420 228 L 421 227 L 423 227 L 425 227 L 427 226 L 429 226 L 429 226 L 433 226 L 434 225 L 436 225 L 439 225 L 439 224 L 443 224 L 444 224 L 444 223 L 445 223 L 445 223 L 447 223 L 447 222 L 449 222 L 451 222 L 451 221 L 452 221 L 452 221 L 458 220 L 458 220 L 458 220 L 459 220 L 459 219 L 459 219 L 460 219 L 460 218 L 460 218 L 462 218 L 462 217 L 463 217 L 463 217 L 464 217 L 464 216 L 465 216 L 465 216 L 465 215 L 466 215 L 466 215 L 466 214 L 466 214 L 466 214 L 467 214 L 467 213 L 469 213 L 469 213 L 469 212 L 470 212 L 470 212 L 471 211 L 472 211 L 472 211 L 472 211 L 473 210 L 474 210 L 475 210 L 475 209 L 475 209 L 477 209 L 477 208 L 477 208 L 477 208 L 477 208 L 477 207 L 478 207 L 478 207 L 478 206 L 479 206 L 481 206 L 482 205 L 483 205 L 483 205 L 485 205 L 486 204 L 487 204 L 488 204 L 490 203 L 492 203 L 494 203 L 495 202 L 495 202 L 495 202 L 495 202 L 496 201 L 496 201 L 496 201 L 497 200 L 497 200 L 497 200 L 497 199 L 498 199 L 499 199 L 499 199 L 500 198 L 500 198 L 502 198 L 502 197 L 502 197 L 503 197 L 504 196 L 506 196 L 511 196 L 511 196 L 511 195 L 511 195 L 512 195 L 514 194 L 515 194 L 515 194 L 515 193 L 515 193 L 516 193 L 519 193 L 519 192 L 519 192 L 519 192 L 521 191 L 521 191 L 521 191 L 521 190 L 524 190 L 526 190 L 526 190 L 529 189 L 530 189 L 530 189 L 533 188 L 534 188 L 536 188 L 537 187 L 539 187 L 539 187 L 539 187 L 540 186 L 540 186 L 540 186 L 540 185 L 541 185 L 541 185 L 541 184 L 542 184 L 542 184 L 542 184 L 543 183 L 544 183 L 544 183 L 548 182 L 548 182 L 552 182 L 554 181 L 554 181 L 555 181 L 555 181 L 557 180 L 558 180 L 558 180 L 559 179 L 559 179 L 559 179 L 559 178 L 559 178 L 560 178 L 560 178 L 560 177 L 560 177 L 560 177 L 560 176 L 561 176 L 562 176 L 562 175 L 562 175 L 563 175 L 564 175 L 564 174 L 564 174 L 564 174 L 565 173 L 567 173 L 568 173 L 568 172 L 568 172 L 568 172 L 569 172 L 569 171 L 569 171 L 570 171 L 571 170 L 573 170 L 576 170 L 576 169 L 578 169 L 580 169 L 583 169 L 583 168 L 586 168 L 589 168 L 589 167 L 589 167 L 593 167 L 594 166 L 594 166 L 595 166 L 595 166 L 602 165 L 602 165 L 603 165 L 603 164 L 603 164 L 604 164 L 605 163 L 605 163 L 605 163 L 606 163 L 606 162 L 606 162 L 607 162 L 607 161 L 607 161 L 607 161 L 607 160 L 607 160 L 607 160 L 609 160 L 610 159 L 610 159 L 611 159 L 611 158 L 611 158 L 612 158 L 613 157 L 613 157 L 614 157 L 614 157 L 614 156 L 614 156 L 615 156 L 616 155 L 617 155 L 617 155 L 617 154 L 618 154 L 618 154 L 619 154 L 619 153 L 619 153 L 619 153 L 620 152 L 620 152 L 621 152 L 621 151 L 622 151 L 622 151 L 622 151 L 622 150 L 622 150 L 623 150 L 623 149 L 623 149 L 623 149 L 624 148 L 624 148 L 625 148 L 625 148 L 625 147 L 625 147 L 625 147 L 626 146 L 626 146 L 626 146 L 626 145 L 626 145 L 626 145 L 626 145 L 628 144 L 629 144 L 631 144 L 631 143 L 631 143 L 631 143 L 632 142 L 633 142 L 634 142 L 634 142 L 636 141 L 638 141 L 638 141 L 639 140 L 640 140 L 640 140 L 641 139 L 641 139 L 641 139 L 641 139 L 641 138 L 641 138 L 642 138 L 642 137 L 642 137 L 642 137 L 642 136 L 642 136 L 642 136 L 643 136 L 643 135 L 643 135 L 644 135 L 644 134 L 646 134 L 646 134 L 646 133 L 646 133 L 647 133 L 647 132 L 648 132 L 651 132 L 651 132 L 651 131 L 651 131 L 651 131 L 653 130 L 655 130 L 655 130 L 657 130 L 657 129 L 657 129 L 657 129 L 658 128 L 661 128 L 663 128 L 666 127 L 667 127 L 668 127 L 668 126 L 669 126 L 669 126 L 670 126 L 670 125 L 670 125 L 671 125 L 671 124 L 671 124 L 672 124 L 674 124 L 674 123 L 674 123 L 674 123 L 674 122 L 674 122 L 674 122 L 674 121 L 674 121 L 674 121 L 674 121 L 674 120 L 674 120 L 674 120 L 674 119 L 674 119 L 675 119 L 675 118 L 675 118 L 675 118 L 675 118 L 676 117 L 676 117 L 676 117 L 676 116 L 676 116 L 676 116 L 677 115 L 677 115 L 677 115 L 677 115 L 677 114 L 677 114 L 678 114 L 679 113 L 681 113 L 681 113 L 681 112 L 683 112 L 683 112 L 683 112 L 684 111 L 685 111 L 686 111 L 687 110 L 687 110 L 687 110 L 687 109 L 687 109 L 687 109 L 687 109 L 689 108 L 689 108 L 689 108 L 692 107 L 694 107 L 695 107 L 697 106 L 698 106 L 699 106 L 699 106 L 699 105 L 699 105 L 699 105 L 700 104 L 700 104 L 701 104 L 701 103 L 701 103 L 702 103 L 702 103 L 702 102 L 702 102 L 702 102 L 702 101 L 702 101 L 703 101 L 703 100 L 703 100 L 704 100 L 705 100 L 705 99 L 705 99 L 706 99 L 706 98 L 706 98 L 707 98 L 707 97 L 707 97 L 708 97 L 708 97 L 709 96 L 712 96 L 713 96 L 716 95 L 717 95 L 718 95 L 720 94 L 720 94 L 721 94 L 723 94 L 728 93 L 728 93 L 730 93 L 731 92 L 733 92 L 733 92 L 734 91 L 735 91 L 736 91 L 736 91 L 737 90 L 738 90 L 739 90 L 740 89 L 740 89 L 741 89 L 741 88 L 741 88 L 742 88 L 745 88 L 745 87 L 746 87 L 747 87 L 747 86 L 748 86 L 749 86 L 750 85 L 750 85 L 750 85 L 750 85 L 751 84 L 752 84 L 752 84 L 753 83 L 753 83 L 754 83 L 754 82 L 755 82 L 755 82 L 756 82 L 756 81 L 756 81 L 757 81 L 757 80 L 757 80 L 757 80 L 757 79 L 758 79 L 760 79 L 761 79 L 762 78 L 764 78 L 765 78 L 766 77 L 767 77 L 769 77 L 771 76 L 772 76 L 774 76 L 775 76 L 775 75 L 776 75 L 778 75 L 780 74 L 780 74 L 780 74 L 780 73 L 781 73 L 781 73 L 782 73 L 782 72 L 783 72 L 784 72 L 784 71 L 784 71 L 790 71 L 791 70 L 791 70 L 793 70 L 794 70 L 795 69 L 795 69 L 796 69 L 796 68 L 796 68 L 797 68 L 798 67 L 798 67 L 799 67 L 799 67 L 799 66 L 800 66 L 800 66 L 801 65 L 802 65 L 804 65 L 805 64 L 809 64 L 809 64 L 810 64 L 811 63 L 812 63 L 812 63 L 812 62 L 812 62 L 815 62 L 816 61 L 817 61 L 817 61 L 818 61 L 818 60 L 819 60 L 821 60 L 822 59 L 823 59 L 823 59 L 823 58 L 824 58 L 824 58 L 824 58 L 825 57 L 825 57 L 826 57 L 827 56 L 827 56 L 828 56 L 828 55 L 829 55 L 829 55 L 829 55 L 830 54 L 832 54 L 836 54 L 836 53 L 840 53 L 841 53 L 843 52 L 843 52 L 844 52 L 844 52 L 845 51 L 846 51 L 847 51 L 849 50 L 850 50 L 853 50 L 858 49 L 858 49 L 858 49 L 858 49 L 858 48 L 860 48 L 860 48 L 860 47 L 868 47 L 871 47 L 871 46 L 872 46 L 873 46 L 876 46 L 878 45 L 878 45 L 879 45 L 879 44 L 881 44 L 885 44 L 886 43 L 887 43 L 888 43 L 891 43 L 891 42 L 891 42 L 891 42 L 891 41 L 892 41 L 892 41 L 892 40 L 894 40 L 896 40 L 896 40 L 897 39 L 897 39 L 898 39 L 900 38 L 903 38 L 905 38 L 905 37 L 907 37 L 907 37 L 907 37 L 907 36 L 907 36 L 908 36 L 908 35 L 910 35 L 911 35 L 911 34 L 911 34 L 912 34 L 912 34 L 912 33 L 912 33 L 912 33 L 912 32 L 912 32 L 913 32 L 913 31 L 913 31 L 914 31 L 914 31 L 915 30 L 915 30 L 915 30 L 915 29 L 915 29 L 917 29 L 921 28 L 922 28 L 923 28 L 924 28 L 924 27 L 924 27 L 924 27 L 924 26 L 924 26 L 924 26 L 924 25 L 924 25 L 924 25 L 924 25 L 924 24 L 925 24 L 925 24 L 925 23 L 925 23 L 925 23 L 925 22 L 926 22 L 926 22 L 926 22 L 927 21 L 927 21 L 929 21 L 930 20 L 931 20 L 931 20 L 931 19 L 931 19 L 933 19 L 933 19 L 934 18 L 934 18 L 935 18 L 936 17 L 937 17 L 937 17" /><path stroke-width="2" class="series" d="M 58 345 L 60 345 L 72 345 L 72 344 L 72 344 L 72 344 L 72 343 L 72 343 L 72 343 L 72 343 L 73 342 L 73 342 L 73 342 L 73 341 L 73 341 L 73 341 L 73 340 L 73 340 L 73 340 L 74 340 L 74 339 L 74 339 L 75 339 L 76 338 L 76 338 L 76 338 L 76 337 L 77 337 L 78 337 L 78 337 L 79 336 L 80 336 L 84 336 L 84 335 L 84 335 L 84 335 L 84 334 L 86 334 L 87 334 L 88 334 L 90 333 L 93 333 L 94 333 L 99 332 L 101 332 L 103 332 L 106 331 L 108 331 L 119 331 L 120 331 L 121 330 L 121 330 L 121 330 L 121 329 L 121 329 L 121 329 L 121 328 L 121 328 L 121 328 L 121 328 L 121 327 L 121 327 L 122 327 L 122 326 L 122 326 L 122 326 L 122 325 L 122 325 L 122 325 L 122 325 L 122 324 L 122 324 L 122 324 L 122 323 L 122 323 L 122 323 L 122 322 L 122 322 L 122 322 L 122 322 L 122 321 L 122 321 L 122 321 L 122 320 L 122 320 L 122 320 L 122 319 L 122 319 L 122 319 L 122 319 L 122 318 L 122 318 L 122 318 L 122 317 L 122 317 L 122 317 L 122 316 L 122 316 L 123 316 L 123 316 L 123 315 L 123 315 L 123 315 L 123 314 L 124 314 L 124 314 L 124 313 L 124 313 L 124 313 L 124 313 L 124 312 L 124 312 L 124 312 L 124 311 L 124 311 L 124 311 L 124 310 L 124 310 L 124 310 L 124 310 L 124 309 L 124 309 L 125 309 L 125 308 L 125 308 L 125 308 L 128 307 L 128 307 L 128 307 L 129 307 L 129 306 L 131 306 L 133 306 L 133 305 L 135 305 L 135 305 L 137 304 L 137 304 L 137 304 L 139 304 L 139 303 L 140 303 L 141 303 L 141 302 L 142 302 L 142 302 L 142 301 L 142 301 L 143 301 L 144 301 L 144 300 L 144 300 L 145 300 L 145 299 L 145 299 L 147 299 L 148 298 L 149 298 L 150 298 L 151 298 L 151 297 L 151 297 L 152 297 L 153 296 L 157 296 L 158 296 L 158 295 L 163 295 L 163 295 L 163 295 L 163 294 L 163 294 L 164 294 L 165 293 L 166 293 L 166 293 L 172 292 L 173 292 L 174 292 L 176 292 L 177 291 L 177 291 L 178 291 L 182 290 L 186 290 L 191 290 L 192 289 L 192 289 L 192 289 L 192 289 L 200 288 L 203 288 L 203 288 L 205 287 L 206 287 L 206 287 L 214 286 L 214 286 L 214 286 L 214 286 L 215 285 L 217 285 L 218 285 L 220 284 L 221 284 L 222 284 L 226 283 L 226 283 L 227 283 L 227 283 L 228 282 L 228 282 L 230 282 L 234 281 L 243 281 L 247 281 L 248 280 L 249 280 L 251 280 L 251 280 L 251 279 L 251 279 L 251 279 L 251 278 L 251 278 L 251 278 L 251 277 L 251 277 L 251 277 L 251 277 L 251 276 L 251 276 L 252 276 L 253 275 L 254 275 L 254 275 L 254 274 L 255 274 L 255 274 L 255 274 L 255 273 L 255 273 L 255 273 L 255 272 L 256 272 L 256 272 L 256 271 L 257 271 L 257 271 L 257 271 L 257 270 L 257 270 L 258 270 L 258 269 L 258 269 L 259 269 L 259 268 L 259 268 L 260 268 L 261 268 L 262 267 L 264 267 L 264 267 L 264 266 L 264 266 L 264 266 L 264 265 L 264 265 L 266 265 L 266 265 L 268 264 L 268 264 L 268 264 L 269 263 L 271 263 L 271 263 L 273 262 L 273 262 L 273 262 L 274 262 L 274 261 L 277 261 L 278 261 L 278 260 L 281 260 L 282 260 L 285 259 L 286 259 L 286 259 L 287 259 L 287 258 L 287 258 L 289 258 L 291 257 L 292 257 L 292 257 L 294 256 L 294 256 L 294 256 L 294 256 L 295 255 L 295 255 L 295 255 L 296 254 L 296 254 L 296 254 L 296 253 L 300 253 L 304 253 L 304 253 L 304 252 L 306 252 L 308 252 L 308 251 L 309 251 L 310 251 L 310 250 L 310 250 L 310 250 L 310 250 L 311 249 L 311 249 L 311 249 L 311 248 L 311 248 L 312 248 L 314 247 L 314 247 L 314 247 L 314 247 L 314 246 L 314 246 L 314 246 L 314 245 L 314 245 L 314 245 L 314 244 L 314 244 L 314 244 L 317 244 L 319 243 L 319 243 L 320 243 L 328 242 L 329 242 L 331 242 L 333 241 L 340 241 L 341 241 L 342 241 L 342 240 L 342 240 L 342 240 L 342 239 L 342 239 L 343 239 L 344 238 L 350 238 L 351 238 L 354 238 L 358 237 L 362 237 L 364 237 L 366 236 L 370 236 L 370 236 L 377 235 L 384 235 L 384 235 L 389 235 L 389 234 L 393 234 L 394 234 L 396 233 L 396 233 L 397 233 L 397 232 L 399 232 L 400 232 L 402 232 L 405 231 L 405 231 L 406 231 L 406 230 L 409 230 L 412 230 L 412 229 L 415 229 L 418 229 L 418 229 L 418 228 L 420 228 L 420 228 L 421 227 L 423 227 L 425 227 L 427 226 L 429 226 L 429 226 L 433 226 L 434 225 L 436 225 L 439 225 L 439 224 L 443 224 L 444 224 L 444 223 L 445 223 L 445 223 L 447 223 L 447 222 L 449 222 L 451 222 L 451 221 L 452 221 L 452 221 L 458 220 L 458 220 L 458 220 L 459 220 L 459 219 L 459 219 L 460 219 L 460 218 L 460 218 L 462 218 L 462 217 L 463 217 L 463 217 L 464 217 L 464 216 L 465 216 L 465 216 L 465 215 L 466 215 L 466 215 L 466 214 L 466 214 L 466 214 L 467 214 L 467 213 L 469 213 L 469 213 L 469 212 L 470 212 L 470 212 L 471 211 L 472 211 L 472 211 L 472 211 L 473 210 L 474 210 L 475 210 L 475 209 L 475 209 L 477 209 L 477 208 L 477 208 L 477 208 L 477 208 L 477 207 L 478 207 L 478 207 L 478 206 L 479 206 L 481 206 L 482 205 L 483 205 L 483 205 L 485 205 L 486 204 L 487 204 L 488 204 L 490 203 L 492 203 L 494 203 L 495 202 L 495 202 L 495 202 L 495 202 L 496 201 L 496 201 L 496 201 L 497 200 L 497 200 L 497 200 L 497 199 L 498 199 L 499 199 L 499 199 L 500 198 L 500 198 L 502 198 L 502 197 L 502 197 L 503 197 L 504 196 L 506 196 L 511 196 L 511 196 L 511 195 L 511 195 L 512 195 L 514 194 L 515 194 L 515 194 L 515 193 L 515 193 L 516 193 L 519 193 L 519 192 L 519 192 L 519 192 L 521 191 L 521 191 L 521 191 L 521 190 L 524 190 L 526 190 L 526 190 L 529 189 L 530 189 L 530 189 L 533 188 L 534 188 L 536 188 L 537 187 L 539 187 L 539 187 L 539 187 L 540 186 L 540 186 L 540 186 L 540 185 L 541 185 L 541 185 L 541 184 L 542 184 L 542 184 L 542 184 L 543 183 L 544 183 L 544 183 L 548 182 L 548 182 L 552 182 L 554 181 L 554 181 L 555 181 L 555 181 L 557 180 L 558 180 L 558 180 L 559 179 L 559 179 L 559 179 L 559 178 L 559 178 L 560 178 L 560 178 L 560 177 L 560 177 L 560 177 L 560 176 L 561 176 L 562 176 L 562 175 L 562 175 L 563 175 L 564 175 L 564 174 L 564 174 L 564 174 L 565 173 L 567 173 L 568 173 L 568 172 L 568 172 L 568 172 L 569 172 L 569 171 L 569 171 L 570 171 L 571 170 L 573 170 L 576 170 L 576 169 L 578 169 L 580 169 L 583 169 L 583 168 L 586 168 L 589 168 L 589 167 L 589 167 L 593 167 L 594 166 L 594 166 L 595 166 L 595 166 L 602 165 L 602 165 L 603 165 L 603 164 L 603 164 L 604 164 L 605 163 L 605 163 L 605 163 L 606 163 L 606 162 L 606 162 L 607 162 L 607 161 L 607 161 L 607 161 L 607 160 L 607 160 L 607 160 L 609 160 L 610 159 L 610 159 L 611 159 L 611 158 L 611 158 L 612 158 L 613 157 L 613 157 L 614 157 L 614 157 L 614 156 L 614 156 L 615 156 L 616 155 L 617 155 L 617 155 L 617 154 L 618 154 L 618 154 L 619 154 L 619 153 L 619 153 L 619 153 L 620 152 L 620 152 L 621 152 L 621 151 L 622 151 L 622 151 L 622 151 L 622 150 L 622 150 L 623 150 L 623 149 L 623 149 L 623 149 L 624 148 L 624 148 L 625 148 L 625 148 L 625 147 L 625 147 L 625 147 L 626 146 L 626 146 L 626 146 L 626 145 L 626 145 L 626 145 L 626 145 L 628 144 L 629 144 L 631 144 L 631 143 L 631 143 L 631 143 L 632 142 L 633 142 L 634 142 L 634 142 L 636 141 L 638 141 L 638 141 L 639 140 L 640 140 L 640 140 L 641 139 L 641 139 L 641 139 L 641 139 L 641 138 L 641 138 L 642 138 L 642 137 L 642 137 L 642 137 L 642 136 L 642 136 L 642 136 L 643 136 L 643 135 L 643 135 L 644 135 L 644 134 L 646 134 L 646 134 L 646 133 L 646 133 L 647 133 L 647 132 L 648 132 L 651 132 L 651 132 L 651 131 L 651 131 L 651 131 L 653 130 L 655 130 L 655 130 L 657 130 L 657 129 L 657 129 L 657 129 L 658 128 L 661 128 L 663 128 L 666 127 L 667 127 L 668 127 L 668 126 L 669 126 L 669 126 L 670 126 L 670 125 L 670 125 L 671 125 L 671 124 L 671 124 L 672 124 L 674 124 L 674 123 L 674 123 L 674 123 L 674 122 L 674 122 L 674 122 L 674 121 L 674 121 L 674 121 L 674 121 L 674 120 L 674 120 L 674 120 L 674 119 L 674 119 L 675 119 L 675 118 L 675 118 L 675 118 L 675 118 L 676 117 L 676 117 L 676 117 L 676 116 L 676 116 L 676 116 L 677 115 L 677 115 L 677 115 L 677 115 L 677 114 L 677 114 L 678 114 L 679 113 L 681 113 L 681 113 L 681 112 L 683 112 L 683 112 L 683 112 L 684 111 L 685 111 L 686 111 L 687 110 L 687 110 L 687 110 L 687 109 L 687 109 L 687 109 L 687 109 L 689 108 L 689 108 L 689 108 L 692 107 L 694 107 L 695 107 L 697 106 L 698 106 L 699 106 L 699 106 L 699 105 L 699 105 L 699 105 L 700 104 L 700 104 L 701 104 L 701 103 L 701 103 L 702 103 L 702 103 L 702 102 L 702 102 L 702 102 L 702 101 L 702 101 L 703 101 L 703 100 L 703 100 L 704 100 L 705 100 L 705 99 L 705 99 L 706 99 L 706 98 L 706 98 L 707 98 L 707 97 L 707 97 L 708 97 L 708 97 L 709 96 L 712 96 L 713 96 L 716 95 L 717 95 L 718 95 L 720 94 L 720 94 L 721 94 L 723 94 L 728 93 L 728 93 L 730 93 L 731 92 L 733 92 L 733 92 L 734 91 L 735 91 L 736 91 L 736 91 L 737 90 L 738 90 L 739 90 L 740 89 L 740 89 L 741 89 L 741 88 L 741 88 L 742 88 L 745 88 L 745 87 L 746 87 L 747 87 L 747 86 L 748 86 L 749 86 L 750 85 L 750 85 L 750 85 L 750 85 L 751 84 L 752 84 L 752 84 L 753 83 L 753 83 L 754 83 L 754 82 L 755 82 L 755 82 L 756 82 L 756 81 L 756 81 L 757 81 L 757 80 L 757 80 L 757 80 L 757 79 L 758 79 L 760 79 L 761 79 L 762 78 L 764 78 L 765 78 L 766 77 L 767 77 L 769 77 L 771 76 L 772 76 L 774 76 L 775 76 L 775 75 L 776 75 L 778 75 L 780 74 L 780 74 L 780 74 L 780 73 L 781 73 L 781 73 L 782 73 L 782 72 L 783 72 L 784 72 L 784 71 L 784 71 L 790 71 L 791 70 L 791 70 L 793 70 L 794 70 L 795 69 L 795 69 L 796 69 L 796 68 L 796 68 L 797 68 L 798 67 L 798 67 L 799 67 L 799 67 L 799 66 L 800 66 L 800 66 L 801 65 L 802 65 L 804 65 L 805 64 L 809 64 L 809 64 L 810 64 L 811 63 L 812 63 L 812 63 L 812 62 L 812 62 L 815 62 L 816 61 L 817 61 L 817 61 L 818 61 L 818 60 L 819 60 L 821 60 L 822 59 L 823 59 L 823 59 L 823 58 L 824 58 L 824 58 L 824 58 L 825 57 L 825 57 L 826 57 L 827 56 L 827 56 L 828 56 L 828 55 L 829 55 L 829 55 L 829 55 L 830 54 L 832 54 L 836 54 L 836 53 L 840 53 L 841 53 L 843 52 L 843 52 L 844 52 L 844 52 L 845 51 L 846 51 L 847 51 L 849 50 L 850 50 L 853 50 L 858 49 L 858 49 L 858 49 L 858 49 L 858 48 L 860 48 L 860 48 L 860 47 L 868 47 L 871 47 L 871 46 L 872 46 L 873 46 L 876 46 L 878 45 L 878 45 L 879 45 L 879 44 L 881 44 L 885 44 L 886 43 L 887 43 L 888 43 L 891 43 L 891 42 L 891 42 L 891 42 L 891 41 L 892 41 L 892 41 L 892 40 L 894 40 L 896 40 L 896 40 L 897 39 L 897 39 L 898 39 L 900 38 L 903 38 L 905 38 L 905 37 L 907 37 L 907 37 L 907 37 L 907 36 L 907 36 L 908 36 L 908 35 L 910 35 L 911 35 L 911 34 L 911 34 L 912 34 L 912 34 L 912 33 L 912 33 L 912 33 L 912 32 L 912 32 L 913 32 L 913 31 L 913 31 L 914 31 L 914 31 L 915 30 L 915 30 L 915 30 L 915 29 L 915 29 L 917 29 L 921 28 L 922 28 L 923 28 L 924 28 L 924 27 L 924 27 L 924 27 L 924 26 L 924 26 L 924 26 L 924 25 L 924 25 L 924 25 L 924 25 L 924 24 L 925 24 L 925 24 L 925 23 L 925 23 L 925 23 L 925 22 L 926 22 L 926 22 L 926 22 L 927 21 L 927 21 L 929 21 L 930 20 L 931 20 L 931 20 L 931 19 L 931 19 L 933 19 L 933 19 L 934 18 L 934 18 L 935 18 L 936 17 L 937 17 L 937 17"></path><path stroke-width="2" d="M 937 346 L 937.000000 15.000000" /><path stroke-width="2" d="M 937 346 L 937.000000 15.000000"></path><path stroke-width="2" d="M 937 346 L 942 346" /><path stroke-width="2" d="M 937 346 L 942 346"></path><text xmlns="http://www.w3.org/2000/svg" x="947" y="352">0</text><path stroke-width="2" d="M 937 307 L 942 307" /><path stroke-width="2" d="M 937 307 L 942 307"></path><text xmlns="http://www.w3.org/2000/svg" x="947" y="313">130</text><path stroke-width="2" d="M 937 271 L 942 271" /><path stroke-width="2" d="M 937 271 L 942 271"></path><text xmlns="http://www.w3.org/2000/svg" x="947" y="277">250</text><path stroke-width="2" d="M 937 235 L 942 235" /><path stroke-width="2" d="M 937 235 L 942 235"></path><text xmlns="http://www.w3.org/2000/svg" x="947" y="241">370</text><path stroke-width="2" d="M 937 199 L 942 199" /><path stroke-width="2" d="M 937 199 L 942 199"></path><text xmlns="http://www.w3.org/2000/svg" x="947" y="205">490</text><path stroke-width="2" d="M 937 160 L 942 160" /><path stroke-width="2" d="M 937 160 L 942 160"></path><text xmlns="http://www.w3.org/2000/svg" x="947" y="166">620</text><path stroke-width="2" d="M 937 124 L 942 124" /><path d="M 937 124 L 942 124" stroke-width="2"></path><text xmlns="http://www.w3.org/2000/svg" x="947" y="130">740</text><path d="M 937 88 L 942 88" stroke-width="2" /><path d="M 937 88 L 942 88" stroke-width="2"></path><text xmlns="http://www.w3.org/2000/svg" x="947" y="94">860</text><path stroke-width="2" d="M 937 52 L 942 52" /><path stroke-width="2" d="M 937 52 L 942 52"></path><text y="58" xmlns="http://www.w3.org/2000/svg" x="947">980</text><path stroke-width="2" d="M 937 16 L 942 16" /><path stroke-width="2" d="M 937 16 L 942 16"></path><text xmlns="http://www.w3.org/2000/svg" x="947" y="22">1100</text><text y="175" transform="rotate(90.00,987,175)" xmlns="http://www.w3.org/2000/svg" x="987">Stargazers</text><path stroke-width="2" d="M 57.000000 346.000000 L 937 346" /><path stroke-width="2" d="M 57.000000 346.000000 L 937 346"></path><path stroke-width="2" d="M 58 346 L 58 351" /><path stroke-width="2" d="M 58 346 L 58 351"></path><text xmlns="http://www.w3.org/2000/svg" x="25" y="368">2023-04-02</text><path stroke-width="2" d="M 156 346 L 156 351" /><path stroke-width="2" d="M 156 346 L 156 351"></path><text y="368" xmlns="http://www.w3.org/2000/svg" x="123">2023-07-10</text><path stroke-width="2" d="M 254 346 L 254 351" /><path d="M 254 346 L 254 351" stroke-width="2"></path><text xmlns="http://www.w3.org/2000/svg" x="221" y="368">2023-10-18</text><path stroke-width="2" d="M 352 346 L 352 351" /><path stroke-width="2" d="M 352 346 L 352 351"></path><text xmlns="http://www.w3.org/2000/svg" x="319" y="368">2024-01-26</text><path stroke-width="2" d="M 449 346 L 449 351" /><path stroke-width="2" d="M 449 346 L 449 351"></path><text xmlns="http://www.w3.org/2000/svg" x="416" y="368">2024-05-04</text><path stroke-width="2" d="M 547 346 L 547 351" /><path stroke-width="2" d="M 547 346 L 547 351"></path><text x="514" y="368" xmlns="http://www.w3.org/2000/svg">2024-08-12</text><path stroke-width="2" d="M 645 346 L 645 351" /><path d="M 645 346 L 645 351" stroke-width="2"></path><text xmlns="http://www.w3.org/2000/svg" x="612" y="368">2024-11-19</text><path stroke-width="2" d="M 742 346 L 742 351" /><path stroke-width="2" d="M 742 346 L 742 351"></path><text xmlns="http://www.w3.org/2000/svg" x="709" y="368">2025-02-27</text><path stroke-width="2" d="M 840 346 L 840 351" /><path stroke-width="2" d="M 840 346 L 840 351"></path><text xmlns="http://www.w3.org/2000/svg" x="807" y="368">2025-06-06</text><path stroke-width="2" d="M 937 346 L 937 351" /><path stroke-width="2" d="M 937 346 L 937 351"></path><text x="904" y="368" xmlns="http://www.w3.org/2000/svg">2025-09-14</text><text x="483" y="390" xmlns="http://www.w3.org/2000/svg">Time</text></svg>