<svg xmlns="http://www.w3.org/2000/svg" xmlns:xlink="http://www.w3.org/1999/xlink" width="1024" height="400">\n<path  d="M 0 0
L 1024 0
L 1024 400
L 0 400
L 0 0" style="stroke-width:0;stroke:rgba(255,255,255,1.0);fill:rgba(255,255,255,1.0)"/><path  d="M 38 11
L 965 11
L 965 351
L 38 351
L 38 11" style="stroke-width:0;stroke:rgba(255,255,255,1.0);fill:rgba(255,255,255,1.0)"/><path  d="M 38 351
L 965 351" style="stroke-width:2;stroke:rgba(85,85,85,1.0);fill:none"/><path  d="M 38 351
L 38 356" style="stroke-width:2;stroke:rgba(85,85,85,1.0);fill:none"/><text x="5" y="373" style="stroke-width:0;stroke:none;fill:rgba(51,51,51,1.0);font-size:12.8px;font-family:'Roboto Medium',sans-serif">2023-04-02</text><path  d="M 154 351
L 154 356" style="stroke-width:2;stroke:rgba(85,85,85,1.0);fill:none"/><text x="121" y="373" style="stroke-width:0;stroke:none;fill:rgba(51,51,51,1.0);font-size:12.8px;font-family:'Roboto Medium',sans-serif">2023-04-28</text><path  d="M 270 351
L 270 356" style="stroke-width:2;stroke:rgba(85,85,85,1.0);fill:none"/><text x="237" y="373" style="stroke-width:0;stroke:none;fill:rgba(51,51,51,1.0);font-size:12.8px;font-family:'Roboto Medium',sans-serif">2023-05-23</text><path  d="M 386 351
L 386 356" style="stroke-width:2;stroke:rgba(85,85,85,1.0);fill:none"/><text x="353" y="373" style="stroke-width:0;stroke:none;fill:rgba(51,51,51,1.0);font-size:12.8px;font-family:'Roboto Medium',sans-serif">2023-06-18</text><path  d="M 502 351
L 502 356" style="stroke-width:2;stroke:rgba(85,85,85,1.0);fill:none"/><text x="469" y="373" style="stroke-width:0;stroke:none;fill:rgba(51,51,51,1.0);font-size:12.8px;font-family:'Roboto Medium',sans-serif">2023-07-14</text><path  d="M 618 351
L 618 356" style="stroke-width:2;stroke:rgba(85,85,85,1.0);fill:none"/><text x="585" y="373" style="stroke-width:0;stroke:none;fill:rgba(51,51,51,1.0);font-size:12.8px;font-family:'Roboto Medium',sans-serif">2023-08-09</text><path  d="M 734 351
L 734 356" style="stroke-width:2;stroke:rgba(85,85,85,1.0);fill:none"/><text x="701" y="373" style="stroke-width:0;stroke:none;fill:rgba(51,51,51,1.0);font-size:12.8px;font-family:'Roboto Medium',sans-serif">2023-09-04</text><path  d="M 850 351
L 850 356" style="stroke-width:2;stroke:rgba(85,85,85,1.0);fill:none"/><text x="817" y="373" style="stroke-width:0;stroke:none;fill:rgba(51,51,51,1.0);font-size:12.8px;font-family:'Roboto Medium',sans-serif">2023-09-29</text><path  d="M 965 351
L 965 356" style="stroke-width:2;stroke:rgba(85,85,85,1.0);fill:none"/><text x="932" y="373" style="stroke-width:0;stroke:none;fill:rgba(51,51,51,1.0);font-size:12.8px;font-family:'Roboto Medium',sans-serif">2023-10-25</text><text x="487" y="395" style="stroke-width:0;stroke:none;fill:rgba(51,51,51,1.0);font-size:12.8px;font-family:'Roboto Medium',sans-serif">Time</text><path  d="M 967 351
L 967 11" style="stroke-width:2;stroke:rgba(85,85,85,1.0);fill:none"/><path  d="M 967 351
L 972 351" style="stroke-width:2;stroke:rgba(85,85,85,1.0);fill:none"/><text x="977" y="357" style="stroke-width:0;stroke:none;fill:rgba(51,51,51,1.0);font-size:12.8px;font-family:'Roboto Medium',sans-serif">0</text><path  d="M 967 308
L 972 308" style="stroke-width:2;stroke:rgba(85,85,85,1.0);fill:none"/><text x="977" y="314" style="stroke-width:0;stroke:none;fill:rgba(51,51,51,1.0);font-size:12.8px;font-family:'Roboto Medium',sans-serif">35</text><path  d="M 967 266
L 972 266" style="stroke-width:2;stroke:rgba(85,85,85,1.0);fill:none"/><text x="977" y="272" style="stroke-width:0;stroke:none;fill:rgba(51,51,51,1.0);font-size:12.8px;font-family:'Roboto Medium',sans-serif">70</text><path  d="M 967 223
L 972 223" style="stroke-width:2;stroke:rgba(85,85,85,1.0);fill:none"/><text x="977" y="229" style="stroke-width:0;stroke:none;fill:rgba(51,51,51,1.0);font-size:12.8px;font-family:'Roboto Medium',sans-serif">105</text><path  d="M 967 181
L 972 181" style="stroke-width:2;stroke:rgba(85,85,85,1.0);fill:none"/><text x="977" y="187" style="stroke-width:0;stroke:none;fill:rgba(51,51,51,1.0);font-size:12.8px;font-family:'Roboto Medium',sans-serif">140</text><path  d="M 967 138
L 972 138" style="stroke-width:2;stroke:rgba(85,85,85,1.0);fill:none"/><text x="977" y="144" style="stroke-width:0;stroke:none;fill:rgba(51,51,51,1.0);font-size:12.8px;font-family:'Roboto Medium',sans-serif">175</text><path  d="M 967 96
L 972 96" style="stroke-width:2;stroke:rgba(85,85,85,1.0);fill:none"/><text x="977" y="102" style="stroke-width:0;stroke:none;fill:rgba(51,51,51,1.0);font-size:12.8px;font-family:'Roboto Medium',sans-serif">210</text><path  d="M 967 53
L 972 53" style="stroke-width:2;stroke:rgba(85,85,85,1.0);fill:none"/><text x="977" y="59" style="stroke-width:0;stroke:none;fill:rgba(51,51,51,1.0);font-size:12.8px;font-family:'Roboto Medium',sans-serif">245</text><path  d="M 967 11
L 972 11" style="stroke-width:2;stroke:rgba(85,85,85,1.0);fill:none"/><text x="977" y="17" style="stroke-width:0;stroke:none;fill:rgba(51,51,51,1.0);font-size:12.8px;font-family:'Roboto Medium',sans-serif">280</text><text x="1009" y="150" style="stroke-width:0;stroke:none;fill:rgba(51,51,51,1.0);font-size:12.8px;font-family:'Roboto Medium',sans-serif" transform="rotate(90.00,1009,150)">Stargazers</text><path  d="M 38 351
L 47 349
L 101 348
L 103 347
L 103 346
L 103 344
L 103 343
L 103 342
L 103 341
L 103 340
L 104 338
L 104 337
L 104 336
L 104 335
L 105 334
L 105 332
L 105 331
L 105 330
L 106 329
L 106 327
L 109 326
L 111 325
L 111 324
L 115 323
L 118 321
L 118 320
L 118 319
L 120 318
L 120 317
L 123 315
L 129 314
L 130 313
L 133 312
L 137 310
L 155 309
L 155 308
L 155 307
L 155 306
L 155 304
L 156 303
L 156 302
L 165 301
L 170 300
L 173 298
L 181 297
L 194 296
L 200 295
L 224 293
L 232 292
L 245 291
L 258 290
L 264 289
L 315 287
L 318 286
L 318 285
L 325 284
L 326 283
L 326 281
L 327 280
L 327 279
L 327 278
L 327 276
L 327 275
L 327 274
L 327 273
L 327 272
L 327 270
L 328 269
L 329 268
L 329 267
L 329 266
L 329 264
L 329 263
L 329 262
L 329 261
L 329 259
L 329 258
L 329 257
L 329 256
L 329 255
L 329 253
L 329 252
L 329 251
L 329 250
L 330 249
L 330 247
L 330 246
L 330 245
L 330 244
L 330 242
L 330 241
L 330 240
L 330 239
L 330 238
L 330 236
L 330 235
L 330 234
L 330 233
L 331 232
L 331 230
L 331 229
L 332 228
L 332 227
L 332 225
L 334 224
L 334 223
L 334 222
L 335 221
L 335 219
L 338 218
L 338 217
L 338 216
L 338 215
L 338 213
L 338 212
L 338 211
L 338 210
L 338 208
L 338 207
L 338 206
L 338 205
L 338 204
L 339 202
L 339 201
L 339 200
L 339 199
L 340 198
L 344 196
L 344 195
L 344 194
L 344 193
L 356 191
L 357 190
L 357 189
L 362 188
L 362 187
L 370 185
L 379 184
L 381 183
L 388 182
L 391 181
L 397 179
L 398 178
L 399 177
L 407 176
L 408 174
L 411 173
L 415 172
L 417 171
L 420 170
L 420 168
L 421 167
L 422 166
L 426 165
L 431 163
L 431 162
L 433 161
L 434 160
L 434 159
L 437 157
L 443 156
L 447 155
L 455 154
L 458 153
L 460 151
L 464 150
L 464 149
L 465 148
L 470 147
L 492 145
L 493 144
L 497 143
L 518 142
L 518 140
L 518 139
L 518 138
L 519 137
L 523 136
L 529 134
L 533 133
L 534 132
L 559 131
L 564 130
L 569 128
L 578 127
L 583 126
L 583 125
L 586 123
L 604 122
L 624 121
L 646 120
L 648 119
L 648 117
L 649 116
L 650 115
L 655 114
L 685 113
L 699 111
L 700 110
L 712 109
L 714 108
L 716 106
L 749 105
L 749 104
L 752 103
L 753 102
L 757 100
L 766 99
L 770 98
L 777 97
L 782 96
L 789 94
L 808 93
L 809 92
L 812 91
L 812 89
L 813 88
L 815 87
L 824 86
L 825 85
L 844 83
L 871 82
L 885 81
L 901 80
L 902 79
L 909 77
L 910 76
L 915 75
L 920 74
L 920 72
L 920 71
L 920 70
L 920 69
L 920 68
L 920 66
L 920 65
L 921 64
L 921 63
L 921 62
L 921 60
L 922 59
L 923 58
L 924 57
L 927 55
L 930 54
L 932 53
L 933 52
L 933 51
L 933 49
L 938 48
L 938 47
L 938 46
L 938 45
L 938 43
L 939 42
L 939 41
L 942 40
L 943 38
L 944 37
L 946 36
L 946 35
L 946 34
L 947 32
L 947 31
L 950 30
L 951 29
L 951 28
L 952 26
L 955 25
L 956 24
L 956 23
L 960 21
L 964 20
L 965 19" style="stroke-width:2;stroke:rgba(129,199,239,1.0);fill:none"/></svg>