<svg xmlns:xlink="http://www.w3.org/1999/xlink" width="1024px" height="400px" xmlns="http://www.w3.org/2000/svg"><style type="text/css">
path { fill: none; stroke: rgb(51,51,51); }
path.series { stroke: #6b63ff; }
rect.background { fill: rgb(255,255,255); stroke: none; }

text {
	stroke-width: 0;
	stroke: none;
	fill: rgba(51,51,51,1.0);
	font-size: 12.8px;
	font-family: 'Roboto Medium', sans-serif;
}
</style><rect class="background" rx="8" x="0" y="0" width="1024px" height="400px" /><rect rx="8" x="0" y="0" width="1024px" height="400px" class="background"></rect><path stroke-width="2" class="series" d="M 58 345 L 61 345 L 78 344 L 79 344 L 79 343 L 79 343 L 79 342 L 79 342 L 79 342 L 79 341 L 79 341 L 79 340 L 79 340 L 79 339 L 80 339 L 80 338 L 80 338 L 80 338 L 80 337 L 81 337 L 82 336 L 82 336 L 83 335 L 84 335 L 84 335 L 84 334 L 84 334 L 85 333 L 87 333 L 88 332 L 89 332 L 90 331 L 96 331 L 96 331 L 96 330 L 96 330 L 96 329 L 96 329 L 99 328 L 100 328 L 101 327 L 104 327 L 108 327 L 110 326 L 118 326 L 120 325 L 124 325 L 129 324 L 130 324 L 147 324 L 148 323 L 148 323 L 150 322 L 150 322 L 150 321 L 150 321 L 150 320 L 150 320 L 150 320 L 150 319 L 150 319 L 150 318 L 150 318 L 150 317 L 151 317 L 151 316 L 151 316 L 151 316 L 151 315 L 151 315 L 151 314 L 151 314 L 151 313 L 151 313 L 151 313 L 151 312 L 151 312 L 151 311 L 151 311 L 151 310 L 151 310 L 151 309 L 151 309 L 151 309 L 151 308 L 151 308 L 151 307 L 151 307 L 151 306 L 151 306 L 151 305 L 151 305 L 151 305 L 152 304 L 152 304 L 152 303 L 152 303 L 152 302 L 152 302 L 152 302 L 152 301 L 153 301 L 153 300 L 153 300 L 153 299 L 153 299 L 154 298 L 154 298 L 154 298 L 154 297 L 154 297 L 154 296 L 154 296 L 154 295 L 154 295 L 154 294 L 154 294 L 154 294 L 154 293 L 154 293 L 154 292 L 154 292 L 154 291 L 155 291 L 156 291 L 156 290 L 156 290 L 156 289 L 160 289 L 160 288 L 160 288 L 162 287 L 162 287 L 164 287 L 167 286 L 168 286 L 170 285 L 171 285 L 173 284 L 173 284 L 174 283 L 176 283 L 176 283 L 177 282 L 178 282 L 179 281 L 180 281 L 180 280 L 180 280 L 181 280 L 182 279 L 183 279 L 183 278 L 184 278 L 185 277 L 185 277 L 186 276 L 187 276 L 189 276 L 191 275 L 192 275 L 193 274 L 194 274 L 194 273 L 194 273 L 196 272 L 203 272 L 203 272 L 204 271 L 211 271 L 211 270 L 211 270 L 211 269 L 212 269 L 213 269 L 215 268 L 216 268 L 216 267 L 224 267 L 226 266 L 228 266 L 230 265 L 232 265 L 232 265 L 233 264 L 239 264 L 245 263 L 252 263 L 253 262 L 253 262 L 253 261 L 253 261 L 255 261 L 265 260 L 269 260 L 269 259 L 273 259 L 274 258 L 274 258 L 285 258 L 285 257 L 286 257 L 286 256 L 288 256 L 290 255 L 292 255 L 294 254 L 295 254 L 298 254 L 304 253 L 304 253 L 305 252 L 305 252 L 305 251 L 306 251 L 309 250 L 315 250 L 328 250 L 333 249 L 336 249 L 336 248 L 338 248 L 339 247 L 339 247 L 339 247 L 339 246 L 339 246 L 339 245 L 339 245 L 339 244 L 340 244 L 340 243 L 340 243 L 340 243 L 340 242 L 340 242 L 341 241 L 343 241 L 343 240 L 343 240 L 343 239 L 343 239 L 345 239 L 345 238 L 345 238 L 345 237 L 345 237 L 345 236 L 345 236 L 346 236 L 347 235 L 348 235 L 348 234 L 348 234 L 348 233 L 348 233 L 349 232 L 349 232 L 349 232 L 350 231 L 350 231 L 351 230 L 351 230 L 352 229 L 353 229 L 354 228 L 356 228 L 358 228 L 358 227 L 359 227 L 359 226 L 359 226 L 359 225 L 359 225 L 361 225 L 362 224 L 364 224 L 364 223 L 365 223 L 367 222 L 368 222 L 368 221 L 371 221 L 372 221 L 372 220 L 373 220 L 373 219 L 378 219 L 379 218 L 380 218 L 383 217 L 385 217 L 389 217 L 390 216 L 391 216 L 392 215 L 392 215 L 392 214 L 395 214 L 398 214 L 400 213 L 400 213 L 401 212 L 403 212 L 403 211 L 403 211 L 403 210 L 403 210 L 404 210 L 404 209 L 405 209 L 405 208 L 405 208 L 406 207 L 411 207 L 417 206 L 417 206 L 417 206 L 421 205 L 423 205 L 423 204 L 424 204 L 425 203 L 427 203 L 427 203 L 427 202 L 427 202 L 427 201 L 427 201 L 427 200 L 428 200 L 428 199 L 428 199 L 431 199 L 431 198 L 431 198 L 431 197 L 432 197 L 432 196 L 432 196 L 432 195 L 432 195 L 432 195 L 432 194 L 432 194 L 432 193 L 437 193 L 440 192 L 440 192 L 441 192 L 452 191 L 454 191 L 457 190 L 460 190 L 467 189 L 469 189 L 472 188 L 472 188 L 472 188 L 472 187 L 472 187 L 473 186 L 473 186 L 473 185 L 474 185 L 475 184 L 484 184 L 487 184 L 490 183 L 497 183 L 502 182 L 505 182 L 508 181 L 513 181 L 513 181 L 524 180 L 534 180 L 534 179 L 541 179 L 542 178 L 547 178 L 548 177 L 552 177 L 552 177 L 552 176 L 552 176 L 556 175 L 557 175 L 560 174 L 564 174 L 565 173 L 566 173 L 567 173 L 570 172 L 574 172 L 575 171 L 579 171 L 583 170 L 584 170 L 584 170 L 586 169 L 587 169 L 588 168 L 592 168 L 595 167 L 597 167 L 600 166 L 600 166 L 606 166 L 607 165 L 610 165 L 615 164 L 615 164 L 620 163 L 621 163 L 621 162 L 623 162 L 623 162 L 626 161 L 626 161 L 629 160 L 632 160 L 633 159 L 633 159 L 633 159 L 642 158 L 642 158 L 643 157 L 643 157 L 643 156 L 644 156 L 644 155 L 645 155 L 645 155 L 647 154 L 648 154 L 649 153 L 650 153 L 651 152 L 651 152 L 652 151 L 652 151 L 653 151 L 653 150 L 653 150 L 654 149 L 654 149 L 654 148 L 655 148 L 656 148 L 658 147 L 658 147 L 658 146 L 659 146 L 659 145 L 661 145 L 662 144 L 662 144 L 663 144 L 664 143 L 666 143 L 666 142 L 667 142 L 667 141 L 669 141 L 669 140 L 669 140 L 670 140 L 670 139 L 671 139 L 671 138 L 671 138 L 672 137 L 673 137 L 676 137 L 678 136 L 679 136 L 679 135 L 682 135 L 684 134 L 684 134 L 686 133 L 689 133 L 692 133 L 695 132 L 696 132 L 696 131 L 696 131 L 696 130 L 697 130 L 697 129 L 697 129 L 699 129 L 699 128 L 699 128 L 699 127 L 701 127 L 702 126 L 702 126 L 703 126 L 703 125 L 706 125 L 707 124 L 707 124 L 708 123 L 709 123 L 712 122 L 714 122 L 719 122 L 719 121 L 719 121 L 719 120 L 722 120 L 724 119 L 725 119 L 725 118 L 725 118 L 725 118 L 727 117 L 731 117 L 732 116 L 732 116 L 732 115 L 734 115 L 734 115 L 734 114 L 734 114 L 735 113 L 738 113 L 742 112 L 742 112 L 746 111 L 747 111 L 748 111 L 752 110 L 753 110 L 756 109 L 758 109 L 760 108 L 761 108 L 761 107 L 762 107 L 762 107 L 762 106 L 762 106 L 763 105 L 764 105 L 764 104 L 765 104 L 765 104 L 765 103 L 766 103 L 767 102 L 768 102 L 773 101 L 774 101 L 779 100 L 782 100 L 782 100 L 783 99 L 784 99 L 787 98 L 787 98 L 788 97 L 788 97 L 789 96 L 789 96 L 789 96 L 789 95 L 789 95 L 790 94 L 790 94 L 790 93 L 791 93 L 791 92 L 792 92 L 792 92 L 792 91 L 794 91 L 794 90 L 795 90 L 795 89 L 797 89 L 797 89 L 797 88 L 798 88 L 799 87 L 802 87 L 802 86 L 802 86 L 802 85 L 802 85 L 804 85 L 804 84 L 804 84 L 805 83 L 808 83 L 811 82 L 814 82 L 815 82 L 817 81 L 821 81 L 825 80 L 825 80 L 828 79 L 833 79 L 833 78 L 833 78 L 839 78 L 841 77 L 841 77 L 842 76 L 842 76 L 852 75 L 852 75 L 853 74 L 854 74 L 854 74 L 855 73 L 856 73 L 857 72 L 857 72 L 858 71 L 858 71 L 859 71 L 859 70 L 859 70 L 859 69 L 860 69 L 860 68 L 860 68 L 860 67 L 861 67 L 862 67 L 864 66 L 865 66 L 865 65 L 865 65 L 866 64 L 867 64 L 868 63 L 868 63 L 870 63 L 870 62 L 870 62 L 870 61 L 872 61 L 872 60 L 874 60 L 874 60 L 875 59 L 876 59 L 876 58 L 877 58 L 877 57 L 877 57 L 878 56 L 878 56 L 878 56 L 880 55 L 880 55 L 882 54 L 882 54 L 882 53 L 882 53 L 882 52 L 883 52 L 884 52 L 884 51 L 884 51 L 885 50 L 885 50 L 885 49 L 886 49 L 887 49 L 887 48 L 887 48 L 887 47 L 887 47 L 888 46 L 888 46 L 888 45 L 888 45 L 888 45 L 891 44 L 892 44 L 895 43 L 895 43 L 895 42 L 895 42 L 897 41 L 898 41 L 899 41 L 899 40 L 902 40 L 905 39 L 905 39 L 907 38 L 908 38 L 908 38 L 909 37 L 909 37 L 910 36 L 910 36 L 910 35 L 910 35 L 910 34 L 910 34 L 910 34 L 910 33 L 911 33 L 911 32 L 911 32 L 911 31 L 911 31 L 911 30 L 912 30 L 913 30 L 913 29 L 913 29 L 914 28 L 916 28 L 917 27 L 917 27 L 917 27 L 919 26 L 919 26 L 920 25 L 923 25 L 924 24 L 924 24 L 924 23 L 924 23 L 924 23 L 927 22 L 929 22 L 930 21 L 932 21 L 932 20 L 932 20 L 933 19 L 934 19 L 939 19 L 942 18 L 945 18" /><path stroke-width="2" class="series" d="M 58 345 L 61 345 L 78 344 L 79 344 L 79 343 L 79 343 L 79 342 L 79 342 L 79 342 L 79 341 L 79 341 L 79 340 L 79 340 L 79 339 L 80 339 L 80 338 L 80 338 L 80 338 L 80 337 L 81 337 L 82 336 L 82 336 L 83 335 L 84 335 L 84 335 L 84 334 L 84 334 L 85 333 L 87 333 L 88 332 L 89 332 L 90 331 L 96 331 L 96 331 L 96 330 L 96 330 L 96 329 L 96 329 L 99 328 L 100 328 L 101 327 L 104 327 L 108 327 L 110 326 L 118 326 L 120 325 L 124 325 L 129 324 L 130 324 L 147 324 L 148 323 L 148 323 L 150 322 L 150 322 L 150 321 L 150 321 L 150 320 L 150 320 L 150 320 L 150 319 L 150 319 L 150 318 L 150 318 L 150 317 L 151 317 L 151 316 L 151 316 L 151 316 L 151 315 L 151 315 L 151 314 L 151 314 L 151 313 L 151 313 L 151 313 L 151 312 L 151 312 L 151 311 L 151 311 L 151 310 L 151 310 L 151 309 L 151 309 L 151 309 L 151 308 L 151 308 L 151 307 L 151 307 L 151 306 L 151 306 L 151 305 L 151 305 L 151 305 L 152 304 L 152 304 L 152 303 L 152 303 L 152 302 L 152 302 L 152 302 L 152 301 L 153 301 L 153 300 L 153 300 L 153 299 L 153 299 L 154 298 L 154 298 L 154 298 L 154 297 L 154 297 L 154 296 L 154 296 L 154 295 L 154 295 L 154 294 L 154 294 L 154 294 L 154 293 L 154 293 L 154 292 L 154 292 L 154 291 L 155 291 L 156 291 L 156 290 L 156 290 L 156 289 L 160 289 L 160 288 L 160 288 L 162 287 L 162 287 L 164 287 L 167 286 L 168 286 L 170 285 L 171 285 L 173 284 L 173 284 L 174 283 L 176 283 L 176 283 L 177 282 L 178 282 L 179 281 L 180 281 L 180 280 L 180 280 L 181 280 L 182 279 L 183 279 L 183 278 L 184 278 L 185 277 L 185 277 L 186 276 L 187 276 L 189 276 L 191 275 L 192 275 L 193 274 L 194 274 L 194 273 L 194 273 L 196 272 L 203 272 L 203 272 L 204 271 L 211 271 L 211 270 L 211 270 L 211 269 L 212 269 L 213 269 L 215 268 L 216 268 L 216 267 L 224 267 L 226 266 L 228 266 L 230 265 L 232 265 L 232 265 L 233 264 L 239 264 L 245 263 L 252 263 L 253 262 L 253 262 L 253 261 L 253 261 L 255 261 L 265 260 L 269 260 L 269 259 L 273 259 L 274 258 L 274 258 L 285 258 L 285 257 L 286 257 L 286 256 L 288 256 L 290 255 L 292 255 L 294 254 L 295 254 L 298 254 L 304 253 L 304 253 L 305 252 L 305 252 L 305 251 L 306 251 L 309 250 L 315 250 L 328 250 L 333 249 L 336 249 L 336 248 L 338 248 L 339 247 L 339 247 L 339 247 L 339 246 L 339 246 L 339 245 L 339 245 L 339 244 L 340 244 L 340 243 L 340 243 L 340 243 L 340 242 L 340 242 L 341 241 L 343 241 L 343 240 L 343 240 L 343 239 L 343 239 L 345 239 L 345 238 L 345 238 L 345 237 L 345 237 L 345 236 L 345 236 L 346 236 L 347 235 L 348 235 L 348 234 L 348 234 L 348 233 L 348 233 L 349 232 L 349 232 L 349 232 L 350 231 L 350 231 L 351 230 L 351 230 L 352 229 L 353 229 L 354 228 L 356 228 L 358 228 L 358 227 L 359 227 L 359 226 L 359 226 L 359 225 L 359 225 L 361 225 L 362 224 L 364 224 L 364 223 L 365 223 L 367 222 L 368 222 L 368 221 L 371 221 L 372 221 L 372 220 L 373 220 L 373 219 L 378 219 L 379 218 L 380 218 L 383 217 L 385 217 L 389 217 L 390 216 L 391 216 L 392 215 L 392 215 L 392 214 L 395 214 L 398 214 L 400 213 L 400 213 L 401 212 L 403 212 L 403 211 L 403 211 L 403 210 L 403 210 L 404 210 L 404 209 L 405 209 L 405 208 L 405 208 L 406 207 L 411 207 L 417 206 L 417 206 L 417 206 L 421 205 L 423 205 L 423 204 L 424 204 L 425 203 L 427 203 L 427 203 L 427 202 L 427 202 L 427 201 L 427 201 L 427 200 L 428 200 L 428 199 L 428 199 L 431 199 L 431 198 L 431 198 L 431 197 L 432 197 L 432 196 L 432 196 L 432 195 L 432 195 L 432 195 L 432 194 L 432 194 L 432 193 L 437 193 L 440 192 L 440 192 L 441 192 L 452 191 L 454 191 L 457 190 L 460 190 L 467 189 L 469 189 L 472 188 L 472 188 L 472 188 L 472 187 L 472 187 L 473 186 L 473 186 L 473 185 L 474 185 L 475 184 L 484 184 L 487 184 L 490 183 L 497 183 L 502 182 L 505 182 L 508 181 L 513 181 L 513 181 L 524 180 L 534 180 L 534 179 L 541 179 L 542 178 L 547 178 L 548 177 L 552 177 L 552 177 L 552 176 L 552 176 L 556 175 L 557 175 L 560 174 L 564 174 L 565 173 L 566 173 L 567 173 L 570 172 L 574 172 L 575 171 L 579 171 L 583 170 L 584 170 L 584 170 L 586 169 L 587 169 L 588 168 L 592 168 L 595 167 L 597 167 L 600 166 L 600 166 L 606 166 L 607 165 L 610 165 L 615 164 L 615 164 L 620 163 L 621 163 L 621 162 L 623 162 L 623 162 L 626 161 L 626 161 L 629 160 L 632 160 L 633 159 L 633 159 L 633 159 L 642 158 L 642 158 L 643 157 L 643 157 L 643 156 L 644 156 L 644 155 L 645 155 L 645 155 L 647 154 L 648 154 L 649 153 L 650 153 L 651 152 L 651 152 L 652 151 L 652 151 L 653 151 L 653 150 L 653 150 L 654 149 L 654 149 L 654 148 L 655 148 L 656 148 L 658 147 L 658 147 L 658 146 L 659 146 L 659 145 L 661 145 L 662 144 L 662 144 L 663 144 L 664 143 L 666 143 L 666 142 L 667 142 L 667 141 L 669 141 L 669 140 L 669 140 L 670 140 L 670 139 L 671 139 L 671 138 L 671 138 L 672 137 L 673 137 L 676 137 L 678 136 L 679 136 L 679 135 L 682 135 L 684 134 L 684 134 L 686 133 L 689 133 L 692 133 L 695 132 L 696 132 L 696 131 L 696 131 L 696 130 L 697 130 L 697 129 L 697 129 L 699 129 L 699 128 L 699 128 L 699 127 L 701 127 L 702 126 L 702 126 L 703 126 L 703 125 L 706 125 L 707 124 L 707 124 L 708 123 L 709 123 L 712 122 L 714 122 L 719 122 L 719 121 L 719 121 L 719 120 L 722 120 L 724 119 L 725 119 L 725 118 L 725 118 L 725 118 L 727 117 L 731 117 L 732 116 L 732 116 L 732 115 L 734 115 L 734 115 L 734 114 L 734 114 L 735 113 L 738 113 L 742 112 L 742 112 L 746 111 L 747 111 L 748 111 L 752 110 L 753 110 L 756 109 L 758 109 L 760 108 L 761 108 L 761 107 L 762 107 L 762 107 L 762 106 L 762 106 L 763 105 L 764 105 L 764 104 L 765 104 L 765 104 L 765 103 L 766 103 L 767 102 L 768 102 L 773 101 L 774 101 L 779 100 L 782 100 L 782 100 L 783 99 L 784 99 L 787 98 L 787 98 L 788 97 L 788 97 L 789 96 L 789 96 L 789 96 L 789 95 L 789 95 L 790 94 L 790 94 L 790 93 L 791 93 L 791 92 L 792 92 L 792 92 L 792 91 L 794 91 L 794 90 L 795 90 L 795 89 L 797 89 L 797 89 L 797 88 L 798 88 L 799 87 L 802 87 L 802 86 L 802 86 L 802 85 L 802 85 L 804 85 L 804 84 L 804 84 L 805 83 L 808 83 L 811 82 L 814 82 L 815 82 L 817 81 L 821 81 L 825 80 L 825 80 L 828 79 L 833 79 L 833 78 L 833 78 L 839 78 L 841 77 L 841 77 L 842 76 L 842 76 L 852 75 L 852 75 L 853 74 L 854 74 L 854 74 L 855 73 L 856 73 L 857 72 L 857 72 L 858 71 L 858 71 L 859 71 L 859 70 L 859 70 L 859 69 L 860 69 L 860 68 L 860 68 L 860 67 L 861 67 L 862 67 L 864 66 L 865 66 L 865 65 L 865 65 L 866 64 L 867 64 L 868 63 L 868 63 L 870 63 L 870 62 L 870 62 L 870 61 L 872 61 L 872 60 L 874 60 L 874 60 L 875 59 L 876 59 L 876 58 L 877 58 L 877 57 L 877 57 L 878 56 L 878 56 L 878 56 L 880 55 L 880 55 L 882 54 L 882 54 L 882 53 L 882 53 L 882 52 L 883 52 L 884 52 L 884 51 L 884 51 L 885 50 L 885 50 L 885 49 L 886 49 L 887 49 L 887 48 L 887 48 L 887 47 L 887 47 L 888 46 L 888 46 L 888 45 L 888 45 L 888 45 L 891 44 L 892 44 L 895 43 L 895 43 L 895 42 L 895 42 L 897 41 L 898 41 L 899 41 L 899 40 L 902 40 L 905 39 L 905 39 L 907 38 L 908 38 L 908 38 L 909 37 L 909 37 L 910 36 L 910 36 L 910 35 L 910 35 L 910 34 L 910 34 L 910 34 L 910 33 L 911 33 L 911 32 L 911 32 L 911 31 L 911 31 L 911 30 L 912 30 L 913 30 L 913 29 L 913 29 L 914 28 L 916 28 L 917 27 L 917 27 L 917 27 L 919 26 L 919 26 L 920 25 L 923 25 L 924 24 L 924 24 L 924 23 L 924 23 L 924 23 L 927 22 L 929 22 L 930 21 L 932 21 L 932 20 L 932 20 L 933 19 L 934 19 L 939 19 L 942 18 L 945 18"></path><path stroke-width="2" d="M 945 346 L 945.000000 15.000000" /><path stroke-width="2" d="M 945 346 L 945.000000 15.000000"></path><path stroke-width="2" d="M 945 346 L 950 346" /><path stroke-width="2" d="M 945 346 L 950 346"></path><text xmlns="http://www.w3.org/2000/svg" x="955" y="352">0</text><path stroke-width="2" d="M 945 309 L 950 309" /><path stroke-width="2" d="M 945 309 L 950 309"></path><text xmlns="http://www.w3.org/2000/svg" x="955" y="315">84</text><path stroke-width="2" d="M 945 272 L 950 272" /><path stroke-width="2" d="M 945 272 L 950 272"></path><text xmlns="http://www.w3.org/2000/svg" x="955" y="278">167</text><path stroke-width="2" d="M 945 236 L 950 236" /><path stroke-width="2" d="M 945 236 L 950 236"></path><text y="242" xmlns="http://www.w3.org/2000/svg" x="955">250</text><path stroke-width="2" d="M 945 199 L 950 199" /><path stroke-width="2" d="M 945 199 L 950 199"></path><text xmlns="http://www.w3.org/2000/svg" x="955" y="205">334</text><path d="M 945 162 L 950 162" stroke-width="2" /><path stroke-width="2" d="M 945 162 L 950 162"></path><text y="168" xmlns="http://www.w3.org/2000/svg" x="955">417</text><path stroke-width="2" d="M 945 126 L 950 126" /><path stroke-width="2" d="M 945 126 L 950 126"></path><text xmlns="http://www.w3.org/2000/svg" x="955" y="132">500</text><path stroke-width="2" d="M 945 89 L 950 89" /><path stroke-width="2" d="M 945 89 L 950 89"></path><text xmlns="http://www.w3.org/2000/svg" x="955" y="95">584</text><path stroke-width="2" d="M 945 52 L 950 52" /><path stroke-width="2" d="M 945 52 L 950 52"></path><text xmlns="http://www.w3.org/2000/svg" x="955" y="58">667</text><path stroke-width="2" d="M 945 16 L 950 16" /><path stroke-width="2" d="M 945 16 L 950 16"></path><text xmlns="http://www.w3.org/2000/svg" x="955" y="22">750</text><text xmlns="http://www.w3.org/2000/svg" x="987" y="175" transform="rotate(90.00,987,175)">Stargazers</text><path stroke-width="2" d="M 57.000000 346.000000 L 945 346" /><path stroke-width="2" d="M 57.000000 346.000000 L 945 346"></path><path stroke-width="2" d="M 58 346 L 58 351" /><path stroke-width="2" d="M 58 346 L 58 351"></path><text x="25" y="368" xmlns="http://www.w3.org/2000/svg">2023-04-02</text><path stroke-width="2" d="M 157 346 L 157 351" /><path stroke-width="2" d="M 157 346 L 157 351"></path><text xmlns="http://www.w3.org/2000/svg" x="124" y="368">2023-06-10</text><path stroke-width="2" d="M 256 346 L 256 351" /><path stroke-width="2" d="M 256 346 L 256 351"></path><text xmlns="http://www.w3.org/2000/svg" x="223" y="368">2023-08-17</text><path stroke-width="2" d="M 354 346 L 354 351" /><path stroke-width="2" d="M 354 346 L 354 351"></path><text xmlns="http://www.w3.org/2000/svg" x="321" y="368">2023-10-25</text><path stroke-width="2" d="M 453 346 L 453 351" /><path stroke-width="2" d="M 453 346 L 453 351"></path><text x="420" y="368" xmlns="http://www.w3.org/2000/svg">2024-01-02</text><path stroke-width="2" d="M 551 346 L 551 351" /><path d="M 551 346 L 551 351" stroke-width="2"></path><text y="368" xmlns="http://www.w3.org/2000/svg" x="518">2024-03-11</text><path stroke-width="2" d="M 650 346 L 650 351" /><path stroke-width="2" d="M 650 346 L 650 351"></path><text xmlns="http://www.w3.org/2000/svg" x="617" y="368">2024-05-19</text><path d="M 748 346 L 748 351" stroke-width="2" /><path stroke-width="2" d="M 748 346 L 748 351"></path><text xmlns="http://www.w3.org/2000/svg" x="715" y="368">2024-07-26</text><path d="M 847 346 L 847 351" stroke-width="2" /><path d="M 847 346 L 847 351" stroke-width="2"></path><text xmlns="http://www.w3.org/2000/svg" x="814" y="368">2024-10-03</text><path stroke-width="2" d="M 945 346 L 945 351" /><path stroke-width="2" d="M 945 346 L 945 351"></path><text y="368" xmlns="http://www.w3.org/2000/svg" x="912">2024-12-11</text><text xmlns="http://www.w3.org/2000/svg" x="487" y="390">Time</text></svg>