<svg xmlns="http://www.w3.org/2000/svg" xmlns:xlink="http://www.w3.org/1999/xlink" width="1024px" height="400px"><style type="text/css">
path { fill: none; stroke: rgb(51,51,51); }
path.series { stroke: #6b63ff; }
rect.background { fill: rgb(255,255,255); stroke: none; }

text {
	stroke-width: 0;
	stroke: none;
	fill: rgba(51,51,51,1.0);
	font-size: 12.8px;
	font-family: 'Roboto Medium', sans-serif;
}
</style><rect x="0" y="0" width="1024px" height="400px" class="background" rx="8" /><rect x="0" y="0" width="1024px" height="400px" class="background" rx="8"></rect><path stroke-width="2" class="series" d="M 58 345 L 60 345 L 72 345 L 72 344 L 72 344 L 72 344 L 72 344 L 72 343 L 72 343 L 72 343 L 73 342 L 73 342 L 73 342 L 73 342 L 73 341 L 73 341 L 73 341 L 73 341 L 73 340 L 74 340 L 74 340 L 74 339 L 75 339 L 76 339 L 76 339 L 76 338 L 76 338 L 77 338 L 78 338 L 78 337 L 79 337 L 80 337 L 84 336 L 84 336 L 84 336 L 84 336 L 84 335 L 86 335 L 87 335 L 88 335 L 89 334 L 92 334 L 93 334 L 99 333 L 100 333 L 103 333 L 106 333 L 107 332 L 119 332 L 119 332 L 120 331 L 121 331 L 121 331 L 121 331 L 121 330 L 121 330 L 121 330 L 121 330 L 121 329 L 121 329 L 121 329 L 121 328 L 121 328 L 121 328 L 121 328 L 121 327 L 121 327 L 121 327 L 121 327 L 121 326 L 121 326 L 121 326 L 121 325 L 121 325 L 121 325 L 121 325 L 121 324 L 121 324 L 121 324 L 121 324 L 122 323 L 122 323 L 122 323 L 122 322 L 122 322 L 122 322 L 122 322 L 122 321 L 122 321 L 122 321 L 122 320 L 122 320 L 122 320 L 122 320 L 122 319 L 122 319 L 122 319 L 122 319 L 122 318 L 122 318 L 122 318 L 122 317 L 123 317 L 123 317 L 123 317 L 123 316 L 123 316 L 123 316 L 123 316 L 123 315 L 123 315 L 123 315 L 123 314 L 123 314 L 123 314 L 123 314 L 123 313 L 123 313 L 123 313 L 123 313 L 124 312 L 124 312 L 124 312 L 125 311 L 125 311 L 125 311 L 127 311 L 127 310 L 127 310 L 128 310 L 128 309 L 130 309 L 132 309 L 132 309 L 134 308 L 135 308 L 136 308 L 136 308 L 137 307 L 138 307 L 138 307 L 139 306 L 140 306 L 140 306 L 141 306 L 141 305 L 141 305 L 141 305 L 142 305 L 143 304 L 143 304 L 144 304 L 144 303 L 144 303 L 145 303 L 146 303 L 147 302 L 149 302 L 149 302 L 150 302 L 151 301 L 151 301 L 151 301 L 152 300 L 157 300 L 157 300 L 158 300 L 162 299 L 162 299 L 162 299 L 162 298 L 162 298 L 163 298 L 165 298 L 165 297 L 166 297 L 171 297 L 172 297 L 173 296 L 175 296 L 176 296 L 176 295 L 177 295 L 181 295 L 185 295 L 190 294 L 190 294 L 190 294 L 191 294 L 191 293 L 198 293 L 201 293 L 202 292 L 204 292 L 205 292 L 205 292 L 212 291 L 212 291 L 213 291 L 213 291 L 214 290 L 216 290 L 217 290 L 218 289 L 219 289 L 221 289 L 225 289 L 225 288 L 226 288 L 226 288 L 226 287 L 226 287 L 228 287 L 233 287 L 242 286 L 245 286 L 247 286 L 247 286 L 249 285 L 249 285 L 249 285 L 249 284 L 249 284 L 249 284 L 249 284 L 249 283 L 249 283 L 249 283 L 249 283 L 249 282 L 249 282 L 250 282 L 250 281 L 252 281 L 252 281 L 252 281 L 252 280 L 253 280 L 253 280 L 253 280 L 253 279 L 253 279 L 253 279 L 253 278 L 254 278 L 254 278 L 255 278 L 255 277 L 255 277 L 255 277 L 255 276 L 256 276 L 256 276 L 256 276 L 257 275 L 257 275 L 257 275 L 258 275 L 259 274 L 259 274 L 260 274 L 262 273 L 262 273 L 262 273 L 263 273 L 263 272 L 263 272 L 263 272 L 264 272 L 264 271 L 266 271 L 266 271 L 266 270 L 268 270 L 269 270 L 269 270 L 271 269 L 271 269 L 271 269 L 272 269 L 272 268 L 275 268 L 276 268 L 276 267 L 279 267 L 280 267 L 283 267 L 284 266 L 284 266 L 285 266 L 285 265 L 285 265 L 287 265 L 289 265 L 290 264 L 290 264 L 292 264 L 292 264 L 292 263 L 292 263 L 293 263 L 293 262 L 293 262 L 294 262 L 294 262 L 294 261 L 294 261 L 298 261 L 302 261 L 302 260 L 302 260 L 304 260 L 306 259 L 306 259 L 306 259 L 307 259 L 308 258 L 308 258 L 308 258 L 308 258 L 308 257 L 309 257 L 309 257 L 309 256 L 309 256 L 310 256 L 311 256 L 311 255 L 311 255 L 312 255 L 312 254 L 312 254 L 312 254 L 312 254 L 312 253 L 312 253 L 312 253 L 312 253 L 312 252 L 315 252 L 317 252 L 317 251 L 318 251 L 326 251 L 327 251 L 329 250 L 331 250 L 337 250 L 339 250 L 339 249 L 339 249 L 339 249 L 339 248 L 339 248 L 339 248 L 341 248 L 341 247 L 347 247 L 349 247 L 351 247 L 356 246 L 359 246 L 362 246 L 364 245 L 367 245 L 367 245 L 374 245 L 381 244 L 381 244 L 386 244 L 386 243 L 390 243 L 391 243 L 393 243 L 393 242 L 394 242 L 394 242 L 396 242 L 397 241 L 399 241 L 402 241 L 402 240 L 403 240 L 403 240 L 406 240 L 409 239 L 409 239 L 412 239 L 415 239 L 415 238 L 415 238 L 416 238 L 417 237 L 418 237 L 420 237 L 422 237 L 424 236 L 426 236 L 426 236 L 430 236 L 431 235 L 433 235 L 436 235 L 436 234 L 440 234 L 440 234 L 440 234 L 442 233 L 442 233 L 443 233 L 444 232 L 445 232 L 447 232 L 448 232 L 448 231 L 449 231 L 454 231 L 454 231 L 455 230 L 455 230 L 455 230 L 456 229 L 456 229 L 456 229 L 457 229 L 458 228 L 458 228 L 459 228 L 460 228 L 460 227 L 461 227 L 461 227 L 461 226 L 462 226 L 462 226 L 462 226 L 463 225 L 463 225 L 463 225 L 463 225 L 464 224 L 465 224 L 465 224 L 465 223 L 466 223 L 466 223 L 467 223 L 468 222 L 468 222 L 469 222 L 470 221 L 471 221 L 471 221 L 471 221 L 472 220 L 473 220 L 473 220 L 473 220 L 473 219 L 474 219 L 474 219 L 474 218 L 474 218 L 475 218 L 475 218 L 478 217 L 479 217 L 480 217 L 480 217 L 482 216 L 483 216 L 483 216 L 485 215 L 487 215 L 488 215 L 490 215 L 491 214 L 491 214 L 491 214 L 491 214 L 492 213 L 492 213 L 492 213 L 493 212 L 493 212 L 493 212 L 493 212 L 494 211 L 495 211 L 495 211 L 496 210 L 496 210 L 498 210 L 498 210 L 498 209 L 499 209 L 500 209 L 502 209 L 507 208 L 507 208 L 507 208 L 507 207 L 508 207 L 510 207 L 511 207 L 511 206 L 511 206 L 511 206 L 512 206 L 515 205 L 515 205 L 515 205 L 515 204 L 517 204 L 517 204 L 517 204 L 517 203 L 519 203 L 522 203 L 522 203 L 525 202 L 525 202 L 526 202 L 529 201 L 530 201 L 532 201 L 533 201 L 534 200 L 535 200 L 535 200 L 536 199 L 536 199 L 536 199 L 536 199 L 537 198 L 537 198 L 537 198 L 538 198 L 538 197 L 538 197 L 539 197 L 540 196 L 540 196 L 544 196 L 544 196 L 548 195 L 549 195 L 550 195 L 550 195 L 551 194 L 553 194 L 554 194 L 554 193 L 554 193 L 554 193 L 554 193 L 554 192 L 554 192 L 555 192 L 555 192 L 555 191 L 555 191 L 556 191 L 556 190 L 556 190 L 557 190 L 558 190 L 558 189 L 559 189 L 559 189 L 559 188 L 559 188 L 560 188 L 561 188 L 563 187 L 563 187 L 563 187 L 563 187 L 563 186 L 564 186 L 564 186 L 564 185 L 565 185 L 567 185 L 569 185 L 571 184 L 572 184 L 573 184 L 576 184 L 579 183 L 579 183 L 581 183 L 584 182 L 584 182 L 584 182 L 588 182 L 589 181 L 590 181 L 590 181 L 590 181 L 597 180 L 597 180 L 598 180 L 598 179 L 599 179 L 599 179 L 600 179 L 600 178 L 600 178 L 601 178 L 601 177 L 601 177 L 602 177 L 602 177 L 602 176 L 602 176 L 602 176 L 602 176 L 602 175 L 604 175 L 605 175 L 606 174 L 606 174 L 606 174 L 607 174 L 607 173 L 608 173 L 608 173 L 609 173 L 609 172 L 609 172 L 609 172 L 610 171 L 611 171 L 612 171 L 612 171 L 613 170 L 613 170 L 613 170 L 614 170 L 614 169 L 614 169 L 614 169 L 615 168 L 615 168 L 616 168 L 616 168 L 617 167 L 617 167 L 617 167 L 617 166 L 617 166 L 618 166 L 618 166 L 618 165 L 618 165 L 620 165 L 620 165 L 620 164 L 620 164 L 620 164 L 621 163 L 621 163 L 621 163 L 621 163 L 621 162 L 621 162 L 621 162 L 621 162 L 621 161 L 623 161 L 624 161 L 626 160 L 626 160 L 626 160 L 626 160 L 627 159 L 628 159 L 629 159 L 629 159 L 631 158 L 633 158 L 633 158 L 634 157 L 635 157 L 635 157 L 636 157 L 636 156 L 636 156 L 636 156 L 636 155 L 636 155 L 636 155 L 637 155 L 637 154 L 637 154 L 637 154 L 637 154 L 637 153 L 638 153 L 638 153 L 638 152 L 639 152 L 639 152 L 640 152 L 641 151 L 641 151 L 641 151 L 642 151 L 642 150 L 643 150 L 646 150 L 646 149 L 646 149 L 646 149 L 646 149 L 648 148 L 649 148 L 650 148 L 651 148 L 651 147 L 651 147 L 652 147 L 652 146 L 656 146 L 658 146 L 660 146 L 662 145 L 662 145 L 663 145 L 664 144 L 664 144 L 664 144 L 664 144 L 665 143 L 665 143 L 666 143 L 666 143 L 667 142 L 669 142 L 669 142 L 669 141 L 669 141 L 669 141 L 669 141 L 669 140 L 669 140 L 669 140 L 669 140 L 669 139 L 669 139 L 669 139 L 669 138 L 669 138 L 669 138 L 669 138 L 670 137 L 670 137 L 670 137 L 670 137 L 670 136 L 670 136 L 670 136 L 671 135 L 671 135 L 671 135 L 672 135 L 672 134 L 672 134 L 672 134 L 672 133 L 672 133 L 673 133 L 674 133 L 676 132 L 676 132 L 676 132 L 677 132 L 677 131 L 678 131 L 678 131 L 680 130 L 681 130 L 682 130 L 682 130 L 682 129 L 682 129 L 682 129 L 682 129 L 682 128 L 683 128 L 684 128 L 684 127 L 687 127 L 688 127 L 689 127 L 691 126 L 692 126 L 693 126 L 693 126 L 693 125 L 693 125 L 694 125 L 694 124 L 694 124 L 695 124 L 696 124 L 696 123 L 696 123 L 696 123 L 696 122 L 696 122 L 696 122 L 696 122 L 697 121 L 697 121 L 697 121 L 697 121 L 699 120 L 699 120 L 699 120 L 699 119 L 700 119 L 700 119 L 700 119 L 701 118 L 701 118 L 701 118 L 702 118 L 702 117 L 703 117 L 706 117 L 708 116 L 710 116 L 711 116 L 712 116 L 714 115 L 715 115 L 715 115 L 718 115 L 722 114 L 722 114 L 724 114 L 725 113 L 727 113 L 728 113 L 728 113 L 729 112 L 730 112 L 730 112 L 731 111 L 732 111 L 733 111 L 734 111 L 734 110 L 735 110 L 735 110 L 735 110 L 736 109 L 739 109 L 739 109 L 740 108 L 741 108 L 741 108 L 742 108 L 743 107 L 744 107 L 744 107 L 744 107 L 744 106 L 745 106 L 746 106 L 746 105 L 747 105 L 747 105 L 748 105 L 748 104 L 749 104 L 749 104 L 750 104 L 750 103 L 750 103 L 751 103 L 751 102 L 751 102 L 751 102 L 751 102 L 752 101 L 754 101 L 755 101 L 755 100 L 758 100 L 758 100 L 760 100 L 760 99 L 763 99 L 764 99 L 766 99 L 767 98 L 768 98 L 769 98 L 770 97 L 772 97 L 774 97 L 774 97 L 774 96 L 774 96 L 774 96 L 774 96 L 775 95 L 776 95 L 777 95 L 778 94 L 778 94 L 778 94 L 784 94 L 784 93 L 785 93 L 787 93 L 788 92 L 789 92 L 789 92 L 790 92 L 790 91 L 790 91 L 791 91 L 791 91 L 792 90 L 792 90 L 793 90 L 793 89 L 793 89 L 794 89 L 795 89 L 798 88 L 798 88 L 802 88 L 803 88 L 803 87 L 804 87 L 805 87 L 805 86 L 805 86 L 805 86 L 808 86 L 809 85 L 811 85 L 811 85 L 811 85 L 811 84 L 813 84 L 814 84 L 816 83 L 816 83 L 816 83 L 816 83 L 817 82 L 817 82 L 817 82 L 818 82 L 819 81 L 819 81 L 820 81 L 821 80 L 822 80 L 822 80 L 822 80 L 822 79 L 822 79 L 823 79 L 826 78 L 829 78 L 830 78 L 833 78 L 834 77 L 836 77 L 836 77 L 837 77 L 837 76 L 839 76 L 839 76 L 840 75 L 842 75 L 843 75 L 846 75 L 851 74 L 851 74 L 851 74 L 851 74 L 851 73 L 853 73 L 853 73 L 853 72 L 861 72 L 864 72 L 864 72 L 865 71 L 866 71 L 869 71 L 870 71 L 871 70 L 871 70 L 872 70 L 873 69 L 878 69 L 879 69 L 880 69 L 881 68 L 883 68 L 884 68 L 884 67 L 884 67 L 884 67 L 884 67 L 885 66 L 885 66 L 887 66 L 888 66 L 889 65 L 890 65 L 890 65 L 891 64 L 893 64 L 896 64 L 897 64 L 898 63 L 899 63 L 900 63 L 900 63 L 900 62 L 900 62 L 900 62 L 901 61 L 902 61 L 903 61 L 904 61 L 904 60 L 904 60 L 904 60 L 905 60 L 905 59 L 905 59 L 905 59 L 905 58 L 905 58 L 906 58 L 906 58 L 906 57 L 906 57 L 907 57 L 907 56 L 907 56 L 908 56 L 908 56 L 909 55 L 914 55 L 915 55 L 916 55 L 916 54 L 916 54 L 916 54 L 917 53 L 917 53 L 917 53 L 917 53 L 917 52 L 917 52 L 917 52 L 917 52 L 917 51 L 917 51 L 917 51 L 917 50 L 917 50 L 917 50 L 918 50 L 918 49 L 918 49 L 919 49 L 920 49 L 920 48 L 921 48 L 922 48 L 923 47 L 923 47 L 924 47 L 924 47 L 926 46 L 926 46 L 926 46 L 927 45 L 928 45 L 929 45 L 930 45 L 930 44 L 931 44 L 932 44 L 932 44 L 934 43 L 934 43 L 935 43 L 936 42 L 937 42 L 937 42 L 937 42" /><path d="M 58 345 L 60 345 L 72 345 L 72 344 L 72 344 L 72 344 L 72 344 L 72 343 L 72 343 L 72 343 L 73 342 L 73 342 L 73 342 L 73 342 L 73 341 L 73 341 L 73 341 L 73 341 L 73 340 L 74 340 L 74 340 L 74 339 L 75 339 L 76 339 L 76 339 L 76 338 L 76 338 L 77 338 L 78 338 L 78 337 L 79 337 L 80 337 L 84 336 L 84 336 L 84 336 L 84 336 L 84 335 L 86 335 L 87 335 L 88 335 L 89 334 L 92 334 L 93 334 L 99 333 L 100 333 L 103 333 L 106 333 L 107 332 L 119 332 L 119 332 L 120 331 L 121 331 L 121 331 L 121 331 L 121 330 L 121 330 L 121 330 L 121 330 L 121 329 L 121 329 L 121 329 L 121 328 L 121 328 L 121 328 L 121 328 L 121 327 L 121 327 L 121 327 L 121 327 L 121 326 L 121 326 L 121 326 L 121 325 L 121 325 L 121 325 L 121 325 L 121 324 L 121 324 L 121 324 L 121 324 L 122 323 L 122 323 L 122 323 L 122 322 L 122 322 L 122 322 L 122 322 L 122 321 L 122 321 L 122 321 L 122 320 L 122 320 L 122 320 L 122 320 L 122 319 L 122 319 L 122 319 L 122 319 L 122 318 L 122 318 L 122 318 L 122 317 L 123 317 L 123 317 L 123 317 L 123 316 L 123 316 L 123 316 L 123 316 L 123 315 L 123 315 L 123 315 L 123 314 L 123 314 L 123 314 L 123 314 L 123 313 L 123 313 L 123 313 L 123 313 L 124 312 L 124 312 L 124 312 L 125 311 L 125 311 L 125 311 L 127 311 L 127 310 L 127 310 L 128 310 L 128 309 L 130 309 L 132 309 L 132 309 L 134 308 L 135 308 L 136 308 L 136 308 L 137 307 L 138 307 L 138 307 L 139 306 L 140 306 L 140 306 L 141 306 L 141 305 L 141 305 L 141 305 L 142 305 L 143 304 L 143 304 L 144 304 L 144 303 L 144 303 L 145 303 L 146 303 L 147 302 L 149 302 L 149 302 L 150 302 L 151 301 L 151 301 L 151 301 L 152 300 L 157 300 L 157 300 L 158 300 L 162 299 L 162 299 L 162 299 L 162 298 L 162 298 L 163 298 L 165 298 L 165 297 L 166 297 L 171 297 L 172 297 L 173 296 L 175 296 L 176 296 L 176 295 L 177 295 L 181 295 L 185 295 L 190 294 L 190 294 L 190 294 L 191 294 L 191 293 L 198 293 L 201 293 L 202 292 L 204 292 L 205 292 L 205 292 L 212 291 L 212 291 L 213 291 L 213 291 L 214 290 L 216 290 L 217 290 L 218 289 L 219 289 L 221 289 L 225 289 L 225 288 L 226 288 L 226 288 L 226 287 L 226 287 L 228 287 L 233 287 L 242 286 L 245 286 L 247 286 L 247 286 L 249 285 L 249 285 L 249 285 L 249 284 L 249 284 L 249 284 L 249 284 L 249 283 L 249 283 L 249 283 L 249 283 L 249 282 L 249 282 L 250 282 L 250 281 L 252 281 L 252 281 L 252 281 L 252 280 L 253 280 L 253 280 L 253 280 L 253 279 L 253 279 L 253 279 L 253 278 L 254 278 L 254 278 L 255 278 L 255 277 L 255 277 L 255 277 L 255 276 L 256 276 L 256 276 L 256 276 L 257 275 L 257 275 L 257 275 L 258 275 L 259 274 L 259 274 L 260 274 L 262 273 L 262 273 L 262 273 L 263 273 L 263 272 L 263 272 L 263 272 L 264 272 L 264 271 L 266 271 L 266 271 L 266 270 L 268 270 L 269 270 L 269 270 L 271 269 L 271 269 L 271 269 L 272 269 L 272 268 L 275 268 L 276 268 L 276 267 L 279 267 L 280 267 L 283 267 L 284 266 L 284 266 L 285 266 L 285 265 L 285 265 L 287 265 L 289 265 L 290 264 L 290 264 L 292 264 L 292 264 L 292 263 L 292 263 L 293 263 L 293 262 L 293 262 L 294 262 L 294 262 L 294 261 L 294 261 L 298 261 L 302 261 L 302 260 L 302 260 L 304 260 L 306 259 L 306 259 L 306 259 L 307 259 L 308 258 L 308 258 L 308 258 L 308 258 L 308 257 L 309 257 L 309 257 L 309 256 L 309 256 L 310 256 L 311 256 L 311 255 L 311 255 L 312 255 L 312 254 L 312 254 L 312 254 L 312 254 L 312 253 L 312 253 L 312 253 L 312 253 L 312 252 L 315 252 L 317 252 L 317 251 L 318 251 L 326 251 L 327 251 L 329 250 L 331 250 L 337 250 L 339 250 L 339 249 L 339 249 L 339 249 L 339 248 L 339 248 L 339 248 L 341 248 L 341 247 L 347 247 L 349 247 L 351 247 L 356 246 L 359 246 L 362 246 L 364 245 L 367 245 L 367 245 L 374 245 L 381 244 L 381 244 L 386 244 L 386 243 L 390 243 L 391 243 L 393 243 L 393 242 L 394 242 L 394 242 L 396 242 L 397 241 L 399 241 L 402 241 L 402 240 L 403 240 L 403 240 L 406 240 L 409 239 L 409 239 L 412 239 L 415 239 L 415 238 L 415 238 L 416 238 L 417 237 L 418 237 L 420 237 L 422 237 L 424 236 L 426 236 L 426 236 L 430 236 L 431 235 L 433 235 L 436 235 L 436 234 L 440 234 L 440 234 L 440 234 L 442 233 L 442 233 L 443 233 L 444 232 L 445 232 L 447 232 L 448 232 L 448 231 L 449 231 L 454 231 L 454 231 L 455 230 L 455 230 L 455 230 L 456 229 L 456 229 L 456 229 L 457 229 L 458 228 L 458 228 L 459 228 L 460 228 L 460 227 L 461 227 L 461 227 L 461 226 L 462 226 L 462 226 L 462 226 L 463 225 L 463 225 L 463 225 L 463 225 L 464 224 L 465 224 L 465 224 L 465 223 L 466 223 L 466 223 L 467 223 L 468 222 L 468 222 L 469 222 L 470 221 L 471 221 L 471 221 L 471 221 L 472 220 L 473 220 L 473 220 L 473 220 L 473 219 L 474 219 L 474 219 L 474 218 L 474 218 L 475 218 L 475 218 L 478 217 L 479 217 L 480 217 L 480 217 L 482 216 L 483 216 L 483 216 L 485 215 L 487 215 L 488 215 L 490 215 L 491 214 L 491 214 L 491 214 L 491 214 L 492 213 L 492 213 L 492 213 L 493 212 L 493 212 L 493 212 L 493 212 L 494 211 L 495 211 L 495 211 L 496 210 L 496 210 L 498 210 L 498 210 L 498 209 L 499 209 L 500 209 L 502 209 L 507 208 L 507 208 L 507 208 L 507 207 L 508 207 L 510 207 L 511 207 L 511 206 L 511 206 L 511 206 L 512 206 L 515 205 L 515 205 L 515 205 L 515 204 L 517 204 L 517 204 L 517 204 L 517 203 L 519 203 L 522 203 L 522 203 L 525 202 L 525 202 L 526 202 L 529 201 L 530 201 L 532 201 L 533 201 L 534 200 L 535 200 L 535 200 L 536 199 L 536 199 L 536 199 L 536 199 L 537 198 L 537 198 L 537 198 L 538 198 L 538 197 L 538 197 L 539 197 L 540 196 L 540 196 L 544 196 L 544 196 L 548 195 L 549 195 L 550 195 L 550 195 L 551 194 L 553 194 L 554 194 L 554 193 L 554 193 L 554 193 L 554 193 L 554 192 L 554 192 L 555 192 L 555 192 L 555 191 L 555 191 L 556 191 L 556 190 L 556 190 L 557 190 L 558 190 L 558 189 L 559 189 L 559 189 L 559 188 L 559 188 L 560 188 L 561 188 L 563 187 L 563 187 L 563 187 L 563 187 L 563 186 L 564 186 L 564 186 L 564 185 L 565 185 L 567 185 L 569 185 L 571 184 L 572 184 L 573 184 L 576 184 L 579 183 L 579 183 L 581 183 L 584 182 L 584 182 L 584 182 L 588 182 L 589 181 L 590 181 L 590 181 L 590 181 L 597 180 L 597 180 L 598 180 L 598 179 L 599 179 L 599 179 L 600 179 L 600 178 L 600 178 L 601 178 L 601 177 L 601 177 L 602 177 L 602 177 L 602 176 L 602 176 L 602 176 L 602 176 L 602 175 L 604 175 L 605 175 L 606 174 L 606 174 L 606 174 L 607 174 L 607 173 L 608 173 L 608 173 L 609 173 L 609 172 L 609 172 L 609 172 L 610 171 L 611 171 L 612 171 L 612 171 L 613 170 L 613 170 L 613 170 L 614 170 L 614 169 L 614 169 L 614 169 L 615 168 L 615 168 L 616 168 L 616 168 L 617 167 L 617 167 L 617 167 L 617 166 L 617 166 L 618 166 L 618 166 L 618 165 L 618 165 L 620 165 L 620 165 L 620 164 L 620 164 L 620 164 L 621 163 L 621 163 L 621 163 L 621 163 L 621 162 L 621 162 L 621 162 L 621 162 L 621 161 L 623 161 L 624 161 L 626 160 L 626 160 L 626 160 L 626 160 L 627 159 L 628 159 L 629 159 L 629 159 L 631 158 L 633 158 L 633 158 L 634 157 L 635 157 L 635 157 L 636 157 L 636 156 L 636 156 L 636 156 L 636 155 L 636 155 L 636 155 L 637 155 L 637 154 L 637 154 L 637 154 L 637 154 L 637 153 L 638 153 L 638 153 L 638 152 L 639 152 L 639 152 L 640 152 L 641 151 L 641 151 L 641 151 L 642 151 L 642 150 L 643 150 L 646 150 L 646 149 L 646 149 L 646 149 L 646 149 L 648 148 L 649 148 L 650 148 L 651 148 L 651 147 L 651 147 L 652 147 L 652 146 L 656 146 L 658 146 L 660 146 L 662 145 L 662 145 L 663 145 L 664 144 L 664 144 L 664 144 L 664 144 L 665 143 L 665 143 L 666 143 L 666 143 L 667 142 L 669 142 L 669 142 L 669 141 L 669 141 L 669 141 L 669 141 L 669 140 L 669 140 L 669 140 L 669 140 L 669 139 L 669 139 L 669 139 L 669 138 L 669 138 L 669 138 L 669 138 L 670 137 L 670 137 L 670 137 L 670 137 L 670 136 L 670 136 L 670 136 L 671 135 L 671 135 L 671 135 L 672 135 L 672 134 L 672 134 L 672 134 L 672 133 L 672 133 L 673 133 L 674 133 L 676 132 L 676 132 L 676 132 L 677 132 L 677 131 L 678 131 L 678 131 L 680 130 L 681 130 L 682 130 L 682 130 L 682 129 L 682 129 L 682 129 L 682 129 L 682 128 L 683 128 L 684 128 L 684 127 L 687 127 L 688 127 L 689 127 L 691 126 L 692 126 L 693 126 L 693 126 L 693 125 L 693 125 L 694 125 L 694 124 L 694 124 L 695 124 L 696 124 L 696 123 L 696 123 L 696 123 L 696 122 L 696 122 L 696 122 L 696 122 L 697 121 L 697 121 L 697 121 L 697 121 L 699 120 L 699 120 L 699 120 L 699 119 L 700 119 L 700 119 L 700 119 L 701 118 L 701 118 L 701 118 L 702 118 L 702 117 L 703 117 L 706 117 L 708 116 L 710 116 L 711 116 L 712 116 L 714 115 L 715 115 L 715 115 L 718 115 L 722 114 L 722 114 L 724 114 L 725 113 L 727 113 L 728 113 L 728 113 L 729 112 L 730 112 L 730 112 L 731 111 L 732 111 L 733 111 L 734 111 L 734 110 L 735 110 L 735 110 L 735 110 L 736 109 L 739 109 L 739 109 L 740 108 L 741 108 L 741 108 L 742 108 L 743 107 L 744 107 L 744 107 L 744 107 L 744 106 L 745 106 L 746 106 L 746 105 L 747 105 L 747 105 L 748 105 L 748 104 L 749 104 L 749 104 L 750 104 L 750 103 L 750 103 L 751 103 L 751 102 L 751 102 L 751 102 L 751 102 L 752 101 L 754 101 L 755 101 L 755 100 L 758 100 L 758 100 L 760 100 L 760 99 L 763 99 L 764 99 L 766 99 L 767 98 L 768 98 L 769 98 L 770 97 L 772 97 L 774 97 L 774 97 L 774 96 L 774 96 L 774 96 L 774 96 L 775 95 L 776 95 L 777 95 L 778 94 L 778 94 L 778 94 L 784 94 L 784 93 L 785 93 L 787 93 L 788 92 L 789 92 L 789 92 L 790 92 L 790 91 L 790 91 L 791 91 L 791 91 L 792 90 L 792 90 L 793 90 L 793 89 L 793 89 L 794 89 L 795 89 L 798 88 L 798 88 L 802 88 L 803 88 L 803 87 L 804 87 L 805 87 L 805 86 L 805 86 L 805 86 L 808 86 L 809 85 L 811 85 L 811 85 L 811 85 L 811 84 L 813 84 L 814 84 L 816 83 L 816 83 L 816 83 L 816 83 L 817 82 L 817 82 L 817 82 L 818 82 L 819 81 L 819 81 L 820 81 L 821 80 L 822 80 L 822 80 L 822 80 L 822 79 L 822 79 L 823 79 L 826 78 L 829 78 L 830 78 L 833 78 L 834 77 L 836 77 L 836 77 L 837 77 L 837 76 L 839 76 L 839 76 L 840 75 L 842 75 L 843 75 L 846 75 L 851 74 L 851 74 L 851 74 L 851 74 L 851 73 L 853 73 L 853 73 L 853 72 L 861 72 L 864 72 L 864 72 L 865 71 L 866 71 L 869 71 L 870 71 L 871 70 L 871 70 L 872 70 L 873 69 L 878 69 L 879 69 L 880 69 L 881 68 L 883 68 L 884 68 L 884 67 L 884 67 L 884 67 L 884 67 L 885 66 L 885 66 L 887 66 L 888 66 L 889 65 L 890 65 L 890 65 L 891 64 L 893 64 L 896 64 L 897 64 L 898 63 L 899 63 L 900 63 L 900 63 L 900 62 L 900 62 L 900 62 L 901 61 L 902 61 L 903 61 L 904 61 L 904 60 L 904 60 L 904 60 L 905 60 L 905 59 L 905 59 L 905 59 L 905 58 L 905 58 L 906 58 L 906 58 L 906 57 L 906 57 L 907 57 L 907 56 L 907 56 L 908 56 L 908 56 L 909 55 L 914 55 L 915 55 L 916 55 L 916 54 L 916 54 L 916 54 L 917 53 L 917 53 L 917 53 L 917 53 L 917 52 L 917 52 L 917 52 L 917 52 L 917 51 L 917 51 L 917 51 L 917 50 L 917 50 L 917 50 L 918 50 L 918 49 L 918 49 L 919 49 L 920 49 L 920 48 L 921 48 L 922 48 L 923 47 L 923 47 L 924 47 L 924 47 L 926 46 L 926 46 L 926 46 L 927 45 L 928 45 L 929 45 L 930 45 L 930 44 L 931 44 L 932 44 L 932 44 L 934 43 L 934 43 L 935 43 L 936 42 L 937 42 L 937 42 L 937 42" stroke-width="2" class="series"></path><path stroke-width="2" d="M 937 346 L 937.000000 15.000000" /><path stroke-width="2" d="M 937 346 L 937.000000 15.000000"></path><path stroke-width="2" d="M 937 346 L 942 346" /><path stroke-width="2" d="M 937 346 L 942 346"></path><text xmlns="http://www.w3.org/2000/svg" x="947" y="352">0</text><path stroke-width="2" d="M 937 307 L 942 307" /><path d="M 937 307 L 942 307" stroke-width="2"></path><text y="313" xmlns="http://www.w3.org/2000/svg" x="947">140</text><path stroke-width="2" d="M 937 271 L 942 271" /><path stroke-width="2" d="M 937 271 L 942 271"></path><text xmlns="http://www.w3.org/2000/svg" x="947" y="277">270</text><path stroke-width="2" d="M 937 236 L 942 236" /><path stroke-width="2" d="M 937 236 L 942 236"></path><text xmlns="http://www.w3.org/2000/svg" x="947" y="242">400</text><path stroke-width="2" d="M 937 197 L 942 197" /><path stroke-width="2" d="M 937 197 L 942 197"></path><text xmlns="http://www.w3.org/2000/svg" x="947" y="203">540</text><path stroke-width="2" d="M 937 161 L 942 161" /><path stroke-width="2" d="M 937 161 L 942 161"></path><text xmlns="http://www.w3.org/2000/svg" x="947" y="167">670</text><path stroke-width="2" d="M 937 126 L 942 126" /><path stroke-width="2" d="M 937 126 L 942 126"></path><text xmlns="http://www.w3.org/2000/svg" x="947" y="132">800</text><path stroke-width="2" d="M 937 87 L 942 87" /><path stroke-width="2" d="M 937 87 L 942 87"></path><text xmlns="http://www.w3.org/2000/svg" x="947" y="93">940</text><path stroke-width="2" d="M 937 51 L 942 51" /><path stroke-width="2" d="M 937 51 L 942 51"></path><text xmlns="http://www.w3.org/2000/svg" x="947" y="57">1070</text><path stroke-width="2" d="M 937 16 L 942 16" /><path stroke-width="2" d="M 937 16 L 942 16"></path><text xmlns="http://www.w3.org/2000/svg" x="947" y="22">1200</text><text x="987" y="175" transform="rotate(90.00,987,175)" xmlns="http://www.w3.org/2000/svg">Stargazers</text><path stroke-width="2" d="M 57.000000 346.000000 L 937 346" /><path d="M 57.000000 346.000000 L 937 346" stroke-width="2"></path><path stroke-width="2" d="M 58 346 L 58 351" /><path stroke-width="2" d="M 58 346 L 58 351"></path><text xmlns="http://www.w3.org/2000/svg" x="25" y="368">2023-04-02</text><path stroke-width="2" d="M 156 346 L 156 351" /><path stroke-width="2" d="M 156 346 L 156 351"></path><text x="123" y="368" xmlns="http://www.w3.org/2000/svg">2023-07-11</text><path d="M 254 346 L 254 351" stroke-width="2" /><path stroke-width="2" d="M 254 346 L 254 351"></path><text xmlns="http://www.w3.org/2000/svg" x="221" y="368">2023-10-20</text><path stroke-width="2" d="M 352 346 L 352 351" /><path stroke-width="2" d="M 352 346 L 352 351"></path><text x="319" y="368" xmlns="http://www.w3.org/2000/svg">2024-01-28</text><path stroke-width="2" d="M 449 346 L 449 351" /><path stroke-width="2" d="M 449 346 L 449 351"></path><text xmlns="http://www.w3.org/2000/svg" x="416" y="368">2024-05-08</text><path stroke-width="2" d="M 547 346 L 547 351" /><path stroke-width="2" d="M 547 346 L 547 351"></path><text xmlns="http://www.w3.org/2000/svg" x="514" y="368">2024-08-16</text><path stroke-width="2" d="M 645 346 L 645 351" /><path stroke-width="2" d="M 645 346 L 645 351"></path><text x="612" y="368" xmlns="http://www.w3.org/2000/svg">2024-11-25</text><path stroke-width="2" d="M 742 346 L 742 351" /><path d="M 742 346 L 742 351" stroke-width="2"></path><text y="368" xmlns="http://www.w3.org/2000/svg" x="709">2025-03-05</text><path stroke-width="2" d="M 840 346 L 840 351" /><path stroke-width="2" d="M 840 346 L 840 351"></path><text xmlns="http://www.w3.org/2000/svg" x="807" y="368">2025-06-13</text><path stroke-width="2" d="M 937 346 L 937 351" /><path stroke-width="2" d="M 937 346 L 937 351"></path><text xmlns="http://www.w3.org/2000/svg" x="904" y="368">2025-09-22</text><text xmlns="http://www.w3.org/2000/svg" x="483" y="390">Time</text></svg>