<svg xmlns="http://www.w3.org/2000/svg" xmlns:xlink="http://www.w3.org/1999/xlink" width="1024px" height="400px"><style type="text/css">
path { fill: none; stroke: rgb(51,51,51); }
path.series { stroke: #6b63ff; }
rect.background { fill: rgb(255,255,255); stroke: none; }

text {
	stroke-width: 0;
	stroke: none;
	fill: rgba(51,51,51,1.0);
	font-size: 12.8px;
	font-family: 'Roboto Medium', sans-serif;
}
</style><rect x="0" y="0" width="1024px" height="400px" class="background" rx="8" /><rect x="0" y="0" width="1024px" height="400px" class="background" rx="8"></rect><path stroke-width="2" class="series" d="M 58 345 L 61 345 L 75 344 L 75 344 L 75 344 L 75 343 L 75 343 L 75 343 L 75 342 L 75 342 L 76 342 L 76 341 L 76 341 L 76 341 L 76 340 L 76 340 L 76 339 L 76 339 L 76 339 L 77 338 L 78 338 L 78 338 L 79 337 L 79 337 L 79 337 L 80 336 L 80 336 L 81 336 L 82 335 L 83 335 L 84 335 L 85 334 L 89 334 L 89 333 L 89 333 L 89 333 L 89 332 L 92 332 L 93 332 L 94 331 L 96 331 L 100 331 L 101 330 L 108 330 L 110 330 L 113 329 L 117 329 L 118 328 L 132 328 L 132 328 L 132 327 L 134 327 L 135 327 L 135 326 L 135 326 L 135 326 L 135 325 L 135 325 L 135 325 L 135 324 L 135 324 L 135 324 L 135 323 L 135 323 L 135 322 L 135 322 L 135 322 L 135 321 L 135 321 L 135 321 L 135 320 L 135 320 L 135 320 L 135 319 L 135 319 L 135 319 L 135 318 L 135 318 L 135 317 L 135 317 L 135 317 L 136 316 L 136 316 L 136 316 L 136 315 L 136 315 L 136 315 L 136 314 L 136 314 L 136 314 L 136 313 L 136 313 L 136 313 L 136 312 L 136 312 L 136 311 L 136 311 L 136 311 L 136 310 L 136 310 L 137 310 L 137 309 L 137 309 L 137 309 L 137 308 L 138 308 L 138 308 L 138 307 L 138 307 L 138 306 L 138 306 L 138 306 L 138 305 L 138 305 L 138 305 L 138 304 L 138 304 L 138 304 L 138 303 L 138 303 L 138 303 L 138 302 L 138 302 L 139 302 L 139 301 L 139 301 L 139 300 L 143 300 L 143 300 L 143 299 L 144 299 L 144 299 L 146 298 L 148 298 L 149 298 L 151 297 L 152 297 L 153 297 L 154 296 L 154 296 L 156 295 L 156 295 L 157 295 L 158 294 L 159 294 L 159 294 L 160 293 L 160 293 L 160 293 L 161 292 L 162 292 L 162 292 L 163 291 L 163 291 L 163 291 L 164 290 L 166 290 L 167 289 L 169 289 L 169 289 L 170 288 L 171 288 L 171 288 L 171 287 L 173 287 L 179 287 L 179 286 L 180 286 L 185 286 L 185 285 L 185 285 L 185 284 L 186 284 L 187 284 L 188 283 L 189 283 L 189 283 L 196 282 L 197 282 L 199 282 L 201 281 L 202 281 L 202 281 L 203 280 L 208 280 L 213 280 L 219 279 L 220 279 L 220 278 L 220 278 L 220 278 L 222 277 L 230 277 L 233 277 L 234 276 L 237 276 L 237 276 L 238 275 L 247 275 L 247 275 L 247 274 L 248 274 L 249 273 L 251 273 L 252 273 L 254 272 L 255 272 L 257 272 L 262 271 L 262 271 L 263 271 L 263 270 L 263 270 L 264 270 L 266 269 L 271 269 L 282 269 L 287 268 L 289 268 L 289 267 L 290 267 L 292 267 L 292 266 L 292 266 L 292 266 L 292 265 L 292 265 L 292 265 L 292 264 L 292 264 L 292 264 L 292 263 L 292 263 L 292 262 L 292 262 L 293 262 L 295 261 L 295 261 L 295 261 L 295 260 L 296 260 L 296 260 L 296 259 L 296 259 L 296 259 L 297 258 L 297 258 L 297 258 L 298 257 L 298 257 L 299 256 L 299 256 L 299 256 L 299 255 L 300 255 L 300 255 L 300 254 L 300 254 L 301 254 L 301 253 L 301 253 L 302 253 L 303 252 L 304 252 L 305 251 L 307 251 L 307 251 L 308 250 L 308 250 L 308 250 L 308 249 L 308 249 L 310 249 L 310 248 L 312 248 L 312 248 L 313 247 L 314 247 L 316 247 L 316 246 L 318 246 L 319 245 L 319 245 L 320 245 L 320 244 L 324 244 L 325 244 L 325 243 L 328 243 L 330 243 L 333 242 L 334 242 L 334 242 L 335 241 L 336 241 L 336 240 L 338 240 L 340 240 L 342 239 L 342 239 L 343 239 L 344 238 L 344 238 L 344 238 L 344 237 L 345 237 L 345 237 L 345 236 L 346 236 L 346 236 L 346 235 L 347 235 L 351 234 L 356 234 L 356 234 L 356 233 L 359 233 L 361 233 L 361 232 L 362 232 L 363 232 L 364 231 L 364 231 L 364 231 L 364 230 L 364 230 L 364 229 L 364 229 L 365 229 L 365 228 L 366 228 L 368 228 L 368 227 L 368 227 L 368 227 L 368 226 L 369 226 L 369 226 L 369 225 L 369 225 L 369 225 L 369 224 L 369 224 L 369 223 L 373 223 L 375 223 L 375 222 L 376 222 L 385 222 L 387 221 L 389 221 L 392 221 L 400 220 L 402 220 L 402 220 L 402 219 L 402 219 L 402 218 L 402 218 L 402 218 L 404 217 L 404 217 L 412 217 L 414 216 L 417 216 L 422 216 L 426 215 L 430 215 L 432 215 L 436 214 L 436 214 L 445 214 L 453 213 L 453 213 L 459 212 L 460 212 L 464 212 L 465 211 L 468 211 L 468 211 L 469 210 L 469 210 L 471 210 L 472 209 L 475 209 L 478 209 L 479 208 L 480 208 L 480 207 L 483 207 L 487 207 L 487 206 L 490 206 L 494 206 L 495 205 L 495 205 L 496 205 L 497 204 L 498 204 L 501 204 L 504 203 L 506 203 L 508 203 L 508 202 L 513 202 L 514 201 L 516 201 L 520 201 L 520 200 L 525 200 L 526 200 L 526 199 L 527 199 L 527 199 L 529 198 L 530 198 L 532 198 L 534 197 L 535 197 L 535 196 L 536 196 L 543 196 L 543 195 L 543 195 L 544 195 L 544 194 L 545 194 L 545 194 L 545 193 L 546 193 L 547 193 L 548 192 L 549 192 L 550 192 L 550 191 L 551 191 L 551 190 L 551 190 L 552 190 L 552 189 L 552 189 L 553 189 L 553 188 L 553 188 L 554 188 L 554 187 L 556 187 L 556 187 L 556 186 L 557 186 L 557 185 L 558 185 L 560 185 L 560 184 L 560 184 L 562 184 L 563 183 L 563 183 L 563 183 L 564 182 L 566 182 L 566 182 L 566 181 L 566 181 L 566 181 L 567 180 L 567 180 L 567 179 L 568 179 L 568 179 L 571 178 L 572 178 L 574 178 L 574 177 L 576 177 L 577 177 L 578 176 L 580 176 L 582 176 L 585 175 L 587 175 L 587 174 L 588 174 L 588 174 L 588 173 L 589 173 L 589 173 L 589 172 L 590 172 L 590 172 L 590 171 L 590 171 L 592 171 L 593 170 L 593 170 L 594 170 L 594 169 L 596 169 L 597 168 L 597 168 L 598 168 L 598 167 L 601 167 L 603 167 L 607 166 L 607 166 L 607 166 L 607 165 L 609 165 L 611 165 L 612 164 L 612 164 L 612 163 L 612 163 L 614 163 L 617 162 L 617 162 L 617 162 L 617 161 L 619 161 L 620 161 L 620 160 L 620 160 L 622 160 L 626 159 L 626 159 L 630 159 L 630 158 L 631 158 L 634 157 L 635 157 L 637 157 L 639 156 L 641 156 L 642 156 L 642 155 L 642 155 L 643 155 L 643 154 L 643 154 L 644 154 L 644 153 L 644 153 L 645 152 L 645 152 L 645 152 L 646 151 L 647 151 L 647 151 L 652 150 L 652 150 L 657 150 L 659 149 L 659 149 L 660 149 L 661 148 L 663 148 L 664 148 L 664 147 L 664 147 L 665 146 L 665 146 L 665 146 L 665 145 L 665 145 L 666 145 L 666 144 L 666 144 L 666 144 L 667 143 L 667 143 L 668 143 L 669 142 L 669 142 L 670 141 L 670 141 L 671 141 L 671 140 L 671 140 L 672 140 L 673 139 L 676 139 L 676 139 L 676 138 L 676 138 L 676 138 L 677 137 L 677 137 L 677 137 L 678 136 L 680 136 L 683 135 L 686 135 L 687 135 L 688 134 L 691 134 L 695 134 L 695 133 L 698 133 L 702 133 L 702 132 L 702 132 L 706 132 L 708 131 L 708 131 L 709 130 L 709 130 L 717 130 L 718 129 L 718 129 L 719 129 L 719 128 L 720 128 L 721 128 L 721 127 L 721 127 L 722 127 L 722 126 L 723 126 L 723 126 L 723 125 L 723 125 L 724 124 L 724 124 L 724 124 L 724 123 L 726 123 L 727 123 L 728 122 L 728 122 L 728 122 L 729 121 L 730 121 L 731 121 L 731 120 L 732 120 L 732 119 L 732 119 L 732 119 L 734 118 L 734 118 L 735 118 L 735 117 L 736 117 L 737 117 L 737 116 L 738 116 L 738 116 L 738 115 L 739 115 L 739 115 L 739 114 L 740 114 L 740 113 L 742 113 L 742 113 L 742 112 L 742 112 L 742 112 L 743 111 L 743 111 L 743 111 L 743 110 L 745 110 L 745 110 L 745 109 L 746 109 L 746 108 L 746 108 L 746 108 L 746 107 L 746 107 L 747 107 L 747 106 L 747 106 L 747 106 L 747 105 L 750 105 L 751 105 L 753 104 L 753 104 L 753 104 L 753 103 L 755 103 L 755 102 L 756 102 L 757 102 L 759 101 L 761 101 L 761 101 L 763 100 L 764 100 L 764 100 L 765 99 L 765 99 L 765 99 L 765 98 L 765 98 L 765 97 L 766 97 L 766 97 L 766 96 L 766 96 L 766 96 L 766 95 L 766 95 L 767 95 L 767 94 L 767 94 L 768 94 L 768 93 L 769 93 L 771 92 L 771 92 L 771 92 L 771 91 L 773 91 L 773 91 L 773 90 L 776 90 L 777 90 L 777 89 L 777 89 L 777 89 L 777 88 L 779 88 L 781 88 L 782 87 L 784 87 L 784 86 L 784 86 L 784 86 L 785 85 L 790 85 L 792 85 L 795 84 L 796 84 L 797 84 L 798 83 L 799 83 L 799 83 L 800 82 L 800 82 L 800 82 L 801 81 L 802 81 L 802 80 L 803 80 L 805 80 L 805 79 L 805 79 L 805 79 L 805 78 L 805 78 L 805 78 L 805 77 L 805 77 L 805 77 L 805 76 L 805 76 L 805 75 L 805 75 L 806 75 L 806 74 L 806 74 L 806 74 L 806 73 L 807 73 L 807 73 L 807 72 L 807 72 L 807 72 L 808 71 L 808 71 L 808 71 L 809 70 L 809 70 L 809 69 L 809 69 L 809 69 L 809 68 L 810 68 L 811 68 L 814 67 L 814 67 L 814 67 L 815 66 L 815 66 L 816 66 L 817 65 L 819 65 L 820 64 L 821 64 L 821 64 L 821 63 L 821 63 L 821 63 L 821 62 L 821 62 L 823 62 L 823 61 L 823 61 L 827 61 L 829 60 L 830 60 L 833 60 L 834 59 L 835 59 L 835 58 L 835 58 L 835 58 L 836 57 L 836 57 L 836 57 L 837 56 L 838 56 L 838 56 L 838 55 L 839 55 L 839 55 L 839 54 L 839 54 L 839 53 L 839 53 L 840 53 L 840 52 L 840 52 L 842 52 L 842 51 L 842 51 L 843 51 L 843 50 L 843 50 L 844 50 L 845 49 L 845 49 L 845 49 L 846 48 L 846 48 L 847 47 L 851 47 L 852 47 L 853 46 L 856 46 L 857 46 L 858 45 L 861 45 L 861 45 L 862 44 L 865 44 L 870 44 L 871 43 L 872 43 L 874 42 L 877 42 L 877 42 L 877 41 L 879 41 L 880 41 L 881 40 L 881 40 L 883 40 L 884 39 L 885 39 L 885 39 L 886 38 L 886 38 L 886 38 L 887 37 L 891 37 L 891 36 L 892 36 L 894 36 L 894 35 L 895 35 L 896 35 L 897 34 L 897 34 L 897 34 L 897 33 L 898 33 L 899 33 L 899 32 L 900 32 L 901 31 L 902 31 L 902 31 L 903 30 L 904 30 L 904 30 L 904 29 L 905 29 L 905 29 L 905 28 L 905 28 L 906 28 L 906 27 L 907 27 L 909 27 L 910 26 L 910 26 L 911 25 L 914 25 L 915 25 L 916 24 L 917 24 L 920 24 L 922 23 L 924 23 L 926 23 L 927 22 L 927 22 L 929 22 L 932 21 L 932 21 L 933 20 L 934 20 L 934 20 L 934 19 L 934 19 L 934 19 L 934 18 L 935 18 L 937 18 L 938 17 L 938 17 L 939 17 L 939 16 L 945 16" /><path stroke-width="2" class="series" d="M 58 345 L 61 345 L 75 344 L 75 344 L 75 344 L 75 343 L 75 343 L 75 343 L 75 342 L 75 342 L 76 342 L 76 341 L 76 341 L 76 341 L 76 340 L 76 340 L 76 339 L 76 339 L 76 339 L 77 338 L 78 338 L 78 338 L 79 337 L 79 337 L 79 337 L 80 336 L 80 336 L 81 336 L 82 335 L 83 335 L 84 335 L 85 334 L 89 334 L 89 333 L 89 333 L 89 333 L 89 332 L 92 332 L 93 332 L 94 331 L 96 331 L 100 331 L 101 330 L 108 330 L 110 330 L 113 329 L 117 329 L 118 328 L 132 328 L 132 328 L 132 327 L 134 327 L 135 327 L 135 326 L 135 326 L 135 326 L 135 325 L 135 325 L 135 325 L 135 324 L 135 324 L 135 324 L 135 323 L 135 323 L 135 322 L 135 322 L 135 322 L 135 321 L 135 321 L 135 321 L 135 320 L 135 320 L 135 320 L 135 319 L 135 319 L 135 319 L 135 318 L 135 318 L 135 317 L 135 317 L 135 317 L 136 316 L 136 316 L 136 316 L 136 315 L 136 315 L 136 315 L 136 314 L 136 314 L 136 314 L 136 313 L 136 313 L 136 313 L 136 312 L 136 312 L 136 311 L 136 311 L 136 311 L 136 310 L 136 310 L 137 310 L 137 309 L 137 309 L 137 309 L 137 308 L 138 308 L 138 308 L 138 307 L 138 307 L 138 306 L 138 306 L 138 306 L 138 305 L 138 305 L 138 305 L 138 304 L 138 304 L 138 304 L 138 303 L 138 303 L 138 303 L 138 302 L 138 302 L 139 302 L 139 301 L 139 301 L 139 300 L 143 300 L 143 300 L 143 299 L 144 299 L 144 299 L 146 298 L 148 298 L 149 298 L 151 297 L 152 297 L 153 297 L 154 296 L 154 296 L 156 295 L 156 295 L 157 295 L 158 294 L 159 294 L 159 294 L 160 293 L 160 293 L 160 293 L 161 292 L 162 292 L 162 292 L 163 291 L 163 291 L 163 291 L 164 290 L 166 290 L 167 289 L 169 289 L 169 289 L 170 288 L 171 288 L 171 288 L 171 287 L 173 287 L 179 287 L 179 286 L 180 286 L 185 286 L 185 285 L 185 285 L 185 284 L 186 284 L 187 284 L 188 283 L 189 283 L 189 283 L 196 282 L 197 282 L 199 282 L 201 281 L 202 281 L 202 281 L 203 280 L 208 280 L 213 280 L 219 279 L 220 279 L 220 278 L 220 278 L 220 278 L 222 277 L 230 277 L 233 277 L 234 276 L 237 276 L 237 276 L 238 275 L 247 275 L 247 275 L 247 274 L 248 274 L 249 273 L 251 273 L 252 273 L 254 272 L 255 272 L 257 272 L 262 271 L 262 271 L 263 271 L 263 270 L 263 270 L 264 270 L 266 269 L 271 269 L 282 269 L 287 268 L 289 268 L 289 267 L 290 267 L 292 267 L 292 266 L 292 266 L 292 266 L 292 265 L 292 265 L 292 265 L 292 264 L 292 264 L 292 264 L 292 263 L 292 263 L 292 262 L 292 262 L 293 262 L 295 261 L 295 261 L 295 261 L 295 260 L 296 260 L 296 260 L 296 259 L 296 259 L 296 259 L 297 258 L 297 258 L 297 258 L 298 257 L 298 257 L 299 256 L 299 256 L 299 256 L 299 255 L 300 255 L 300 255 L 300 254 L 300 254 L 301 254 L 301 253 L 301 253 L 302 253 L 303 252 L 304 252 L 305 251 L 307 251 L 307 251 L 308 250 L 308 250 L 308 250 L 308 249 L 308 249 L 310 249 L 310 248 L 312 248 L 312 248 L 313 247 L 314 247 L 316 247 L 316 246 L 318 246 L 319 245 L 319 245 L 320 245 L 320 244 L 324 244 L 325 244 L 325 243 L 328 243 L 330 243 L 333 242 L 334 242 L 334 242 L 335 241 L 336 241 L 336 240 L 338 240 L 340 240 L 342 239 L 342 239 L 343 239 L 344 238 L 344 238 L 344 238 L 344 237 L 345 237 L 345 237 L 345 236 L 346 236 L 346 236 L 346 235 L 347 235 L 351 234 L 356 234 L 356 234 L 356 233 L 359 233 L 361 233 L 361 232 L 362 232 L 363 232 L 364 231 L 364 231 L 364 231 L 364 230 L 364 230 L 364 229 L 364 229 L 365 229 L 365 228 L 366 228 L 368 228 L 368 227 L 368 227 L 368 227 L 368 226 L 369 226 L 369 226 L 369 225 L 369 225 L 369 225 L 369 224 L 369 224 L 369 223 L 373 223 L 375 223 L 375 222 L 376 222 L 385 222 L 387 221 L 389 221 L 392 221 L 400 220 L 402 220 L 402 220 L 402 219 L 402 219 L 402 218 L 402 218 L 402 218 L 404 217 L 404 217 L 412 217 L 414 216 L 417 216 L 422 216 L 426 215 L 430 215 L 432 215 L 436 214 L 436 214 L 445 214 L 453 213 L 453 213 L 459 212 L 460 212 L 464 212 L 465 211 L 468 211 L 468 211 L 469 210 L 469 210 L 471 210 L 472 209 L 475 209 L 478 209 L 479 208 L 480 208 L 480 207 L 483 207 L 487 207 L 487 206 L 490 206 L 494 206 L 495 205 L 495 205 L 496 205 L 497 204 L 498 204 L 501 204 L 504 203 L 506 203 L 508 203 L 508 202 L 513 202 L 514 201 L 516 201 L 520 201 L 520 200 L 525 200 L 526 200 L 526 199 L 527 199 L 527 199 L 529 198 L 530 198 L 532 198 L 534 197 L 535 197 L 535 196 L 536 196 L 543 196 L 543 195 L 543 195 L 544 195 L 544 194 L 545 194 L 545 194 L 545 193 L 546 193 L 547 193 L 548 192 L 549 192 L 550 192 L 550 191 L 551 191 L 551 190 L 551 190 L 552 190 L 552 189 L 552 189 L 553 189 L 553 188 L 553 188 L 554 188 L 554 187 L 556 187 L 556 187 L 556 186 L 557 186 L 557 185 L 558 185 L 560 185 L 560 184 L 560 184 L 562 184 L 563 183 L 563 183 L 563 183 L 564 182 L 566 182 L 566 182 L 566 181 L 566 181 L 566 181 L 567 180 L 567 180 L 567 179 L 568 179 L 568 179 L 571 178 L 572 178 L 574 178 L 574 177 L 576 177 L 577 177 L 578 176 L 580 176 L 582 176 L 585 175 L 587 175 L 587 174 L 588 174 L 588 174 L 588 173 L 589 173 L 589 173 L 589 172 L 590 172 L 590 172 L 590 171 L 590 171 L 592 171 L 593 170 L 593 170 L 594 170 L 594 169 L 596 169 L 597 168 L 597 168 L 598 168 L 598 167 L 601 167 L 603 167 L 607 166 L 607 166 L 607 166 L 607 165 L 609 165 L 611 165 L 612 164 L 612 164 L 612 163 L 612 163 L 614 163 L 617 162 L 617 162 L 617 162 L 617 161 L 619 161 L 620 161 L 620 160 L 620 160 L 622 160 L 626 159 L 626 159 L 630 159 L 630 158 L 631 158 L 634 157 L 635 157 L 637 157 L 639 156 L 641 156 L 642 156 L 642 155 L 642 155 L 643 155 L 643 154 L 643 154 L 644 154 L 644 153 L 644 153 L 645 152 L 645 152 L 645 152 L 646 151 L 647 151 L 647 151 L 652 150 L 652 150 L 657 150 L 659 149 L 659 149 L 660 149 L 661 148 L 663 148 L 664 148 L 664 147 L 664 147 L 665 146 L 665 146 L 665 146 L 665 145 L 665 145 L 666 145 L 666 144 L 666 144 L 666 144 L 667 143 L 667 143 L 668 143 L 669 142 L 669 142 L 670 141 L 670 141 L 671 141 L 671 140 L 671 140 L 672 140 L 673 139 L 676 139 L 676 139 L 676 138 L 676 138 L 676 138 L 677 137 L 677 137 L 677 137 L 678 136 L 680 136 L 683 135 L 686 135 L 687 135 L 688 134 L 691 134 L 695 134 L 695 133 L 698 133 L 702 133 L 702 132 L 702 132 L 706 132 L 708 131 L 708 131 L 709 130 L 709 130 L 717 130 L 718 129 L 718 129 L 719 129 L 719 128 L 720 128 L 721 128 L 721 127 L 721 127 L 722 127 L 722 126 L 723 126 L 723 126 L 723 125 L 723 125 L 724 124 L 724 124 L 724 124 L 724 123 L 726 123 L 727 123 L 728 122 L 728 122 L 728 122 L 729 121 L 730 121 L 731 121 L 731 120 L 732 120 L 732 119 L 732 119 L 732 119 L 734 118 L 734 118 L 735 118 L 735 117 L 736 117 L 737 117 L 737 116 L 738 116 L 738 116 L 738 115 L 739 115 L 739 115 L 739 114 L 740 114 L 740 113 L 742 113 L 742 113 L 742 112 L 742 112 L 742 112 L 743 111 L 743 111 L 743 111 L 743 110 L 745 110 L 745 110 L 745 109 L 746 109 L 746 108 L 746 108 L 746 108 L 746 107 L 746 107 L 747 107 L 747 106 L 747 106 L 747 106 L 747 105 L 750 105 L 751 105 L 753 104 L 753 104 L 753 104 L 753 103 L 755 103 L 755 102 L 756 102 L 757 102 L 759 101 L 761 101 L 761 101 L 763 100 L 764 100 L 764 100 L 765 99 L 765 99 L 765 99 L 765 98 L 765 98 L 765 97 L 766 97 L 766 97 L 766 96 L 766 96 L 766 96 L 766 95 L 766 95 L 767 95 L 767 94 L 767 94 L 768 94 L 768 93 L 769 93 L 771 92 L 771 92 L 771 92 L 771 91 L 773 91 L 773 91 L 773 90 L 776 90 L 777 90 L 777 89 L 777 89 L 777 89 L 777 88 L 779 88 L 781 88 L 782 87 L 784 87 L 784 86 L 784 86 L 784 86 L 785 85 L 790 85 L 792 85 L 795 84 L 796 84 L 797 84 L 798 83 L 799 83 L 799 83 L 800 82 L 800 82 L 800 82 L 801 81 L 802 81 L 802 80 L 803 80 L 805 80 L 805 79 L 805 79 L 805 79 L 805 78 L 805 78 L 805 78 L 805 77 L 805 77 L 805 77 L 805 76 L 805 76 L 805 75 L 805 75 L 806 75 L 806 74 L 806 74 L 806 74 L 806 73 L 807 73 L 807 73 L 807 72 L 807 72 L 807 72 L 808 71 L 808 71 L 808 71 L 809 70 L 809 70 L 809 69 L 809 69 L 809 69 L 809 68 L 810 68 L 811 68 L 814 67 L 814 67 L 814 67 L 815 66 L 815 66 L 816 66 L 817 65 L 819 65 L 820 64 L 821 64 L 821 64 L 821 63 L 821 63 L 821 63 L 821 62 L 821 62 L 823 62 L 823 61 L 823 61 L 827 61 L 829 60 L 830 60 L 833 60 L 834 59 L 835 59 L 835 58 L 835 58 L 835 58 L 836 57 L 836 57 L 836 57 L 837 56 L 838 56 L 838 56 L 838 55 L 839 55 L 839 55 L 839 54 L 839 54 L 839 53 L 839 53 L 840 53 L 840 52 L 840 52 L 842 52 L 842 51 L 842 51 L 843 51 L 843 50 L 843 50 L 844 50 L 845 49 L 845 49 L 845 49 L 846 48 L 846 48 L 847 47 L 851 47 L 852 47 L 853 46 L 856 46 L 857 46 L 858 45 L 861 45 L 861 45 L 862 44 L 865 44 L 870 44 L 871 43 L 872 43 L 874 42 L 877 42 L 877 42 L 877 41 L 879 41 L 880 41 L 881 40 L 881 40 L 883 40 L 884 39 L 885 39 L 885 39 L 886 38 L 886 38 L 886 38 L 887 37 L 891 37 L 891 36 L 892 36 L 894 36 L 894 35 L 895 35 L 896 35 L 897 34 L 897 34 L 897 34 L 897 33 L 898 33 L 899 33 L 899 32 L 900 32 L 901 31 L 902 31 L 902 31 L 903 30 L 904 30 L 904 30 L 904 29 L 905 29 L 905 29 L 905 28 L 905 28 L 906 28 L 906 27 L 907 27 L 909 27 L 910 26 L 910 26 L 911 25 L 914 25 L 915 25 L 916 24 L 917 24 L 920 24 L 922 23 L 924 23 L 926 23 L 927 22 L 927 22 L 929 22 L 932 21 L 932 21 L 933 20 L 934 20 L 934 20 L 934 19 L 934 19 L 934 19 L 934 18 L 935 18 L 937 18 L 938 17 L 938 17 L 939 17 L 939 16 L 945 16"></path><path stroke-width="2" d="M 945 346 L 945.000000 15.000000" /><path stroke-width="2" d="M 945 346 L 945.000000 15.000000"></path><path stroke-width="2" d="M 945 346 L 950 346" /><path stroke-width="2" d="M 945 346 L 950 346"></path><text x="955" y="352" xmlns="http://www.w3.org/2000/svg">0</text><path stroke-width="2" d="M 945 309 L 950 309" /><path stroke-width="2" d="M 945 309 L 950 309"></path><text xmlns="http://www.w3.org/2000/svg" x="955" y="315">104</text><path stroke-width="2" d="M 945 272 L 950 272" /><path stroke-width="2" d="M 945 272 L 950 272"></path><text xmlns="http://www.w3.org/2000/svg" x="955" y="278">207</text><path d="M 945 236 L 950 236" stroke-width="2" /><path stroke-width="2" d="M 945 236 L 950 236"></path><text xmlns="http://www.w3.org/2000/svg" x="955" y="242">310</text><path stroke-width="2" d="M 945 199 L 950 199" /><path stroke-width="2" d="M 945 199 L 950 199"></path><text xmlns="http://www.w3.org/2000/svg" x="955" y="205">414</text><path stroke-width="2" d="M 945 162 L 950 162" /><path stroke-width="2" d="M 945 162 L 950 162"></path><text xmlns="http://www.w3.org/2000/svg" x="955" y="168">517</text><path stroke-width="2" d="M 945 126 L 950 126" /><path d="M 945 126 L 950 126" stroke-width="2"></path><text x="955" y="132" xmlns="http://www.w3.org/2000/svg">620</text><path stroke-width="2" d="M 945 89 L 950 89" /><path stroke-width="2" d="M 945 89 L 950 89"></path><text xmlns="http://www.w3.org/2000/svg" x="955" y="95">724</text><path stroke-width="2" d="M 945 52 L 950 52" /><path stroke-width="2" d="M 945 52 L 950 52"></path><text xmlns="http://www.w3.org/2000/svg" x="955" y="58">827</text><path stroke-width="2" d="M 945 16 L 950 16" /><path d="M 945 16 L 950 16" stroke-width="2"></path><text xmlns="http://www.w3.org/2000/svg" x="955" y="22">930</text><text xmlns="http://www.w3.org/2000/svg" x="987" y="175" transform="rotate(90.00,987,175)">Stargazers</text><path stroke-width="2" d="M 57.000000 346.000000 L 945 346" /><path stroke-width="2" d="M 57.000000 346.000000 L 945 346"></path><path stroke-width="2" d="M 58 346 L 58 351" /><path stroke-width="2" d="M 58 346 L 58 351"></path><text xmlns="http://www.w3.org/2000/svg" x="25" y="368">2023-04-02</text><path stroke-width="2" d="M 157 346 L 157 351" /><path stroke-width="2" d="M 157 346 L 157 351"></path><text xmlns="http://www.w3.org/2000/svg" x="124" y="368">2023-06-24</text><path stroke-width="2" d="M 256 346 L 256 351" /><path stroke-width="2" d="M 256 346 L 256 351"></path><text xmlns="http://www.w3.org/2000/svg" x="223" y="368">2023-09-15</text><path stroke-width="2" d="M 354 346 L 354 351" /><path stroke-width="2" d="M 354 346 L 354 351"></path><text xmlns="http://www.w3.org/2000/svg" x="321" y="368">2023-12-06</text><path stroke-width="2" d="M 453 346 L 453 351" /><path stroke-width="2" d="M 453 346 L 453 351"></path><text x="420" y="368" xmlns="http://www.w3.org/2000/svg">2024-02-27</text><path stroke-width="2" d="M 551 346 L 551 351" /><path stroke-width="2" d="M 551 346 L 551 351"></path><text x="518" y="368" xmlns="http://www.w3.org/2000/svg">2024-05-20</text><path stroke-width="2" d="M 650 346 L 650 351" /><path stroke-width="2" d="M 650 346 L 650 351"></path><text y="368" xmlns="http://www.w3.org/2000/svg" x="617">2024-08-11</text><path stroke-width="2" d="M 748 346 L 748 351" /><path d="M 748 346 L 748 351" stroke-width="2"></path><text x="715" y="368" xmlns="http://www.w3.org/2000/svg">2024-11-02</text><path stroke-width="2" d="M 847 346 L 847 351" /><path stroke-width="2" d="M 847 346 L 847 351"></path><text xmlns="http://www.w3.org/2000/svg" x="814" y="368">2025-01-24</text><path stroke-width="2" d="M 945 346 L 945 351" /><path d="M 945 346 L 945 351" stroke-width="2"></path><text xmlns="http://www.w3.org/2000/svg" x="912" y="368">2025-04-17</text><text xmlns="http://www.w3.org/2000/svg" x="487" y="390">Time</text></svg>