<svg xmlns="http://www.w3.org/2000/svg" xmlns:xlink="http://www.w3.org/1999/xlink" width="1024px" height="400px"><style type="text/css">
path { fill: none; stroke: rgb(51,51,51); }
path.series { stroke: #6b63ff; }
rect.background { fill: rgb(255,255,255); stroke: none; }

text {
	stroke-width: 0;
	stroke: none;
	fill: rgba(51,51,51,1.0);
	font-size: 12.8px;
	font-family: 'Roboto Medium', sans-serif;
}
</style><rect class="background" rx="8" x="0" y="0" width="1024px" height="400px" /><rect x="0" y="0" width="1024px" height="400px" class="background" rx="8"></rect><path stroke-width="2" class="series" d="M 58 345 L 63 344 L 92 343 L 93 342 L 93 341 L 93 341 L 93 340 L 93 339 L 93 338 L 93 337 L 94 337 L 94 336 L 94 335 L 94 334 L 94 333 L 94 333 L 94 332 L 94 331 L 95 330 L 95 329 L 96 329 L 97 328 L 97 327 L 100 326 L 101 325 L 101 325 L 101 324 L 102 323 L 104 322 L 107 321 L 107 321 L 109 320 L 111 319 L 121 318 L 121 317 L 121 317 L 121 316 L 121 315 L 121 314 L 126 313 L 129 313 L 130 312 L 135 311 L 142 310 L 145 309 L 158 308 L 162 308 L 169 307 L 176 306 L 179 305 L 207 304 L 208 304 L 208 303 L 212 302 L 213 301 L 213 300 L 213 300 L 213 299 L 213 298 L 213 297 L 213 296 L 213 296 L 213 295 L 213 294 L 213 293 L 214 292 L 214 292 L 214 291 L 214 290 L 214 289 L 214 288 L 214 288 L 214 287 L 214 286 L 214 285 L 214 284 L 214 284 L 214 283 L 214 282 L 214 281 L 214 280 L 214 280 L 214 279 L 215 278 L 215 277 L 215 276 L 215 275 L 215 275 L 215 274 L 215 273 L 215 272 L 215 271 L 215 271 L 215 270 L 215 269 L 215 268 L 215 267 L 215 267 L 215 266 L 216 265 L 216 264 L 216 263 L 217 263 L 217 262 L 217 261 L 217 260 L 218 259 L 219 259 L 219 258 L 219 257 L 219 256 L 219 255 L 219 255 L 219 254 L 219 253 L 219 252 L 219 251 L 219 251 L 219 250 L 219 249 L 219 248 L 219 247 L 219 247 L 220 246 L 220 245 L 222 244 L 222 243 L 222 242 L 222 242 L 229 241 L 229 240 L 229 239 L 232 238 L 232 238 L 236 237 L 241 236 L 242 235 L 246 234 L 247 234 L 250 233 L 251 232 L 252 231 L 256 230 L 257 230 L 258 229 L 260 228 L 261 227 L 263 226 L 263 226 L 263 225 L 264 224 L 266 223 L 269 222 L 269 222 L 270 221 L 270 220 L 270 219 L 272 218 L 275 218 L 277 217 L 282 216 L 283 215 L 285 214 L 287 214 L 287 213 L 287 212 L 290 211 L 302 210 L 302 209 L 304 209 L 315 208 L 315 207 L 315 206 L 316 205 L 316 205 L 318 204 L 321 203 L 323 202 L 324 201 L 337 201 L 340 200 L 343 199 L 347 198 L 350 197 L 350 197 L 352 196 L 361 195 L 372 194 L 384 193 L 385 193 L 385 192 L 386 191 L 386 190 L 389 189 L 405 189 L 413 188 L 413 187 L 419 186 L 420 185 L 421 185 L 439 184 L 439 183 L 441 182 L 441 181 L 444 181 L 449 180 L 451 179 L 454 178 L 457 177 L 461 176 L 471 176 L 471 175 L 473 174 L 473 173 L 474 172 L 474 172 L 480 171 L 490 170 L 512 169 L 520 168 L 521 168 L 525 167 L 526 166 L 528 165 L 531 164 L 531 164 L 531 163 L 531 162 L 531 161 L 531 160 L 531 160 L 531 159 L 531 158 L 531 157 L 531 156 L 532 156 L 532 155 L 532 154 L 533 153 L 534 152 L 536 152 L 537 151 L 537 150 L 538 149 L 538 148 L 540 148 L 540 147 L 540 146 L 540 145 L 540 144 L 541 143 L 541 143 L 542 142 L 544 141 L 544 140 L 545 139 L 545 139 L 545 138 L 545 137 L 547 136 L 547 135 L 548 135 L 548 134 L 549 133 L 550 132 L 550 131 L 552 131 L 554 130 L 555 129 L 558 128 L 562 127 L 562 127 L 564 126 L 564 125 L 564 124 L 564 123 L 564 123 L 567 122 L 569 121 L 572 120 L 572 119 L 573 119 L 577 118 L 579 117 L 580 116 L 584 115 L 585 115 L 586 114 L 588 113 L 588 112 L 596 111 L 598 110 L 598 110 L 605 109 L 608 108 L 615 107 L 617 106 L 617 106 L 619 105 L 620 104 L 620 103 L 625 102 L 629 102 L 632 101 L 632 100 L 635 99 L 637 98 L 637 98 L 637 97 L 637 96 L 638 95 L 639 94 L 639 94 L 641 93 L 641 92 L 641 91 L 643 90 L 651 90 L 661 89 L 661 88 L 661 87 L 667 86 L 671 86 L 672 85 L 673 84 L 675 83 L 677 82 L 677 82 L 677 81 L 677 80 L 677 79 L 678 78 L 678 77 L 679 77 L 679 76 L 681 75 L 685 74 L 685 73 L 685 73 L 685 72 L 686 71 L 686 70 L 687 69 L 687 69 L 687 68 L 687 67 L 687 66 L 687 65 L 687 65 L 690 64 L 695 63 L 699 62 L 699 61 L 701 61 L 710 60 L 721 59 L 723 58 L 729 57 L 733 57 L 745 56 L 749 55 L 753 54 L 754 53 L 754 53 L 754 52 L 755 51 L 755 50 L 755 49 L 755 49 L 757 48 L 759 47 L 774 46 L 778 45 L 784 44 L 795 44 L 803 43 L 810 42 L 815 41 L 823 40 L 823 40 L 841 39 L 858 38 L 858 37 L 870 36 L 871 36 L 881 35 L 882 34 L 888 33 L 888 32 L 889 32 L 889 31 L 895 30 L 897 29 L 902 28 L 909 28 L 910 27 L 912 26 L 913 25 L 919 24 L 926 24 L 926 23 L 933 22 L 941 21 L 942 20 L 942 20 L 945 19" /><path stroke-width="2" class="series" d="M 58 345 L 63 344 L 92 343 L 93 342 L 93 341 L 93 341 L 93 340 L 93 339 L 93 338 L 93 337 L 94 337 L 94 336 L 94 335 L 94 334 L 94 333 L 94 333 L 94 332 L 94 331 L 95 330 L 95 329 L 96 329 L 97 328 L 97 327 L 100 326 L 101 325 L 101 325 L 101 324 L 102 323 L 104 322 L 107 321 L 107 321 L 109 320 L 111 319 L 121 318 L 121 317 L 121 317 L 121 316 L 121 315 L 121 314 L 126 313 L 129 313 L 130 312 L 135 311 L 142 310 L 145 309 L 158 308 L 162 308 L 169 307 L 176 306 L 179 305 L 207 304 L 208 304 L 208 303 L 212 302 L 213 301 L 213 300 L 213 300 L 213 299 L 213 298 L 213 297 L 213 296 L 213 296 L 213 295 L 213 294 L 213 293 L 214 292 L 214 292 L 214 291 L 214 290 L 214 289 L 214 288 L 214 288 L 214 287 L 214 286 L 214 285 L 214 284 L 214 284 L 214 283 L 214 282 L 214 281 L 214 280 L 214 280 L 214 279 L 215 278 L 215 277 L 215 276 L 215 275 L 215 275 L 215 274 L 215 273 L 215 272 L 215 271 L 215 271 L 215 270 L 215 269 L 215 268 L 215 267 L 215 267 L 215 266 L 216 265 L 216 264 L 216 263 L 217 263 L 217 262 L 217 261 L 217 260 L 218 259 L 219 259 L 219 258 L 219 257 L 219 256 L 219 255 L 219 255 L 219 254 L 219 253 L 219 252 L 219 251 L 219 251 L 219 250 L 219 249 L 219 248 L 219 247 L 219 247 L 220 246 L 220 245 L 222 244 L 222 243 L 222 242 L 222 242 L 229 241 L 229 240 L 229 239 L 232 238 L 232 238 L 236 237 L 241 236 L 242 235 L 246 234 L 247 234 L 250 233 L 251 232 L 252 231 L 256 230 L 257 230 L 258 229 L 260 228 L 261 227 L 263 226 L 263 226 L 263 225 L 264 224 L 266 223 L 269 222 L 269 222 L 270 221 L 270 220 L 270 219 L 272 218 L 275 218 L 277 217 L 282 216 L 283 215 L 285 214 L 287 214 L 287 213 L 287 212 L 290 211 L 302 210 L 302 209 L 304 209 L 315 208 L 315 207 L 315 206 L 316 205 L 316 205 L 318 204 L 321 203 L 323 202 L 324 201 L 337 201 L 340 200 L 343 199 L 347 198 L 350 197 L 350 197 L 352 196 L 361 195 L 372 194 L 384 193 L 385 193 L 385 192 L 386 191 L 386 190 L 389 189 L 405 189 L 413 188 L 413 187 L 419 186 L 420 185 L 421 185 L 439 184 L 439 183 L 441 182 L 441 181 L 444 181 L 449 180 L 451 179 L 454 178 L 457 177 L 461 176 L 471 176 L 471 175 L 473 174 L 473 173 L 474 172 L 474 172 L 480 171 L 490 170 L 512 169 L 520 168 L 521 168 L 525 167 L 526 166 L 528 165 L 531 164 L 531 164 L 531 163 L 531 162 L 531 161 L 531 160 L 531 160 L 531 159 L 531 158 L 531 157 L 531 156 L 532 156 L 532 155 L 532 154 L 533 153 L 534 152 L 536 152 L 537 151 L 537 150 L 538 149 L 538 148 L 540 148 L 540 147 L 540 146 L 540 145 L 540 144 L 541 143 L 541 143 L 542 142 L 544 141 L 544 140 L 545 139 L 545 139 L 545 138 L 545 137 L 547 136 L 547 135 L 548 135 L 548 134 L 549 133 L 550 132 L 550 131 L 552 131 L 554 130 L 555 129 L 558 128 L 562 127 L 562 127 L 564 126 L 564 125 L 564 124 L 564 123 L 564 123 L 567 122 L 569 121 L 572 120 L 572 119 L 573 119 L 577 118 L 579 117 L 580 116 L 584 115 L 585 115 L 586 114 L 588 113 L 588 112 L 596 111 L 598 110 L 598 110 L 605 109 L 608 108 L 615 107 L 617 106 L 617 106 L 619 105 L 620 104 L 620 103 L 625 102 L 629 102 L 632 101 L 632 100 L 635 99 L 637 98 L 637 98 L 637 97 L 637 96 L 638 95 L 639 94 L 639 94 L 641 93 L 641 92 L 641 91 L 643 90 L 651 90 L 661 89 L 661 88 L 661 87 L 667 86 L 671 86 L 672 85 L 673 84 L 675 83 L 677 82 L 677 82 L 677 81 L 677 80 L 677 79 L 678 78 L 678 77 L 679 77 L 679 76 L 681 75 L 685 74 L 685 73 L 685 73 L 685 72 L 686 71 L 686 70 L 687 69 L 687 69 L 687 68 L 687 67 L 687 66 L 687 65 L 687 65 L 690 64 L 695 63 L 699 62 L 699 61 L 701 61 L 710 60 L 721 59 L 723 58 L 729 57 L 733 57 L 745 56 L 749 55 L 753 54 L 754 53 L 754 53 L 754 52 L 755 51 L 755 50 L 755 49 L 755 49 L 757 48 L 759 47 L 774 46 L 778 45 L 784 44 L 795 44 L 803 43 L 810 42 L 815 41 L 823 40 L 823 40 L 841 39 L 858 38 L 858 37 L 870 36 L 871 36 L 881 35 L 882 34 L 888 33 L 888 32 L 889 32 L 889 31 L 895 30 L 897 29 L 902 28 L 909 28 L 910 27 L 912 26 L 913 25 L 919 24 L 926 24 L 926 23 L 933 22 L 941 21 L 942 20 L 942 20 L 945 19"></path><path stroke-width="2" d="M 945 346 L 945.000000 15.000000" /><path stroke-width="2" d="M 945 346 L 945.000000 15.000000"></path><path stroke-width="2" d="M 945 346 L 950 346" /><path stroke-width="2" d="M 945 346 L 950 346"></path><text x="955" y="352" xmlns="http://www.w3.org/2000/svg">0</text><path stroke-width="2" d="M 945 308 L 950 308" /><path stroke-width="2" d="M 945 308 L 950 308"></path><text xmlns="http://www.w3.org/2000/svg" x="955" y="314">46</text><path d="M 945 271 L 950 271" stroke-width="2" /><path stroke-width="2" d="M 945 271 L 950 271"></path><text xmlns="http://www.w3.org/2000/svg" x="955" y="277">92</text><path stroke-width="2" d="M 945 235 L 950 235" /><path stroke-width="2" d="M 945 235 L 950 235"></path><text xmlns="http://www.w3.org/2000/svg" x="955" y="241">137</text><path stroke-width="2" d="M 945 198 L 950 198" /><path stroke-width="2" d="M 945 198 L 950 198"></path><text xmlns="http://www.w3.org/2000/svg" x="955" y="204">183</text><path stroke-width="2" d="M 945 162 L 950 162" /><path stroke-width="2" d="M 945 162 L 950 162"></path><text xmlns="http://www.w3.org/2000/svg" x="955" y="168">228</text><path stroke-width="2" d="M 945 125 L 950 125" /><path stroke-width="2" d="M 945 125 L 950 125"></path><text x="955" y="131" xmlns="http://www.w3.org/2000/svg">274</text><path stroke-width="2" d="M 945 89 L 950 89" /><path d="M 945 89 L 950 89" stroke-width="2"></path><text xmlns="http://www.w3.org/2000/svg" x="955" y="95">319</text><path stroke-width="2" d="M 945 52 L 950 52" /><path stroke-width="2" d="M 945 52 L 950 52"></path><text xmlns="http://www.w3.org/2000/svg" x="955" y="58">365</text><path stroke-width="2" d="M 945 16 L 950 16" /><path stroke-width="2" d="M 945 16 L 950 16"></path><text xmlns="http://www.w3.org/2000/svg" x="955" y="22">410</text><text xmlns="http://www.w3.org/2000/svg" x="987" y="175" transform="rotate(90.00,987,175)">Stargazers</text><path stroke-width="2" d="M 57.000000 346.000000 L 945 346" /><path stroke-width="2" d="M 57.000000 346.000000 L 945 346"></path><path stroke-width="2" d="M 58 346 L 58 351" /><path d="M 58 346 L 58 351" stroke-width="2"></path><text y="368" xmlns="http://www.w3.org/2000/svg" x="25">2023-04-02</text><path d="M 157 346 L 157 351" stroke-width="2" /><path stroke-width="2" d="M 157 346 L 157 351"></path><text x="124" y="368" xmlns="http://www.w3.org/2000/svg">2023-05-13</text><path stroke-width="2" d="M 256 346 L 256 351" /><path stroke-width="2" d="M 256 346 L 256 351"></path><text xmlns="http://www.w3.org/2000/svg" x="223" y="368">2023-06-23</text><path stroke-width="2" d="M 354 346 L 354 351" /><path stroke-width="2" d="M 354 346 L 354 351"></path><text xmlns="http://www.w3.org/2000/svg" x="321" y="368">2023-08-03</text><path stroke-width="2" d="M 453 346 L 453 351" /><path d="M 453 346 L 453 351" stroke-width="2"></path><text y="368" xmlns="http://www.w3.org/2000/svg" x="420">2023-09-13</text><path stroke-width="2" d="M 551 346 L 551 351" /><path stroke-width="2" d="M 551 346 L 551 351"></path><text xmlns="http://www.w3.org/2000/svg" x="518" y="368">2023-10-23</text><path stroke-width="2" d="M 650 346 L 650 351" /><path stroke-width="2" d="M 650 346 L 650 351"></path><text xmlns="http://www.w3.org/2000/svg" x="617" y="368">2023-12-03</text><path stroke-width="2" d="M 748 346 L 748 351" /><path stroke-width="2" d="M 748 346 L 748 351"></path><text xmlns="http://www.w3.org/2000/svg" x="715" y="368">2024-01-13</text><path stroke-width="2" d="M 847 346 L 847 351" /><path stroke-width="2" d="M 847 346 L 847 351"></path><text xmlns="http://www.w3.org/2000/svg" x="814" y="368">2024-02-23</text><path stroke-width="2" d="M 945 346 L 945 351" /><path stroke-width="2" d="M 945 346 L 945 351"></path><text xmlns="http://www.w3.org/2000/svg" x="912" y="368">2024-04-04</text><text xmlns="http://www.w3.org/2000/svg" x="487" y="390">Time</text></svg>