<svg xmlns="http://www.w3.org/2000/svg" xmlns:xlink="http://www.w3.org/1999/xlink" width="1024px" height="400px"><style type="text/css">
path { fill: none; stroke: rgb(51,51,51); }
path.series { stroke: #6b63ff; }
rect.background { fill: rgb(255,255,255); stroke: none; }

text {
	stroke-width: 0;
	stroke: none;
	fill: rgba(51,51,51,1.0);
	font-size: 12.8px;
	font-family: 'Roboto Medium', sans-serif;
}
</style><rect x="0" y="0" width="1024px" height="400px" class="background" rx="8" /><rect rx="8" x="0" y="0" width="1024px" height="400px" class="background"></rect><path stroke-width="2" class="series" d="M 58 345 L 62 344 L 82 344 L 83 343 L 83 343 L 83 342 L 83 342 L 83 341 L 83 341 L 83 340 L 83 339 L 83 339 L 83 338 L 83 338 L 83 337 L 84 337 L 84 336 L 84 336 L 84 335 L 85 335 L 86 334 L 86 333 L 87 333 L 88 332 L 88 332 L 88 331 L 89 331 L 90 330 L 93 330 L 93 329 L 94 328 L 96 328 L 102 327 L 102 327 L 102 326 L 102 326 L 103 325 L 103 325 L 106 324 L 108 324 L 109 323 L 112 322 L 117 322 L 119 321 L 128 321 L 131 320 L 136 320 L 141 319 L 144 319 L 163 318 L 164 317 L 164 317 L 167 316 L 167 316 L 167 315 L 167 315 L 167 314 L 167 314 L 167 313 L 167 313 L 167 312 L 167 311 L 167 311 L 167 310 L 168 310 L 168 309 L 168 309 L 168 308 L 168 308 L 168 307 L 168 306 L 168 306 L 168 305 L 168 305 L 168 304 L 168 304 L 168 303 L 168 303 L 168 302 L 168 302 L 168 301 L 168 300 L 168 300 L 168 299 L 168 299 L 169 298 L 169 298 L 169 297 L 169 297 L 169 296 L 169 295 L 169 295 L 169 294 L 169 294 L 169 293 L 169 293 L 169 292 L 169 292 L 169 291 L 169 291 L 169 290 L 170 289 L 170 289 L 170 288 L 170 288 L 171 287 L 172 287 L 172 286 L 172 286 L 172 285 L 172 284 L 172 284 L 172 283 L 172 283 L 172 282 L 172 282 L 172 281 L 172 281 L 172 280 L 172 280 L 172 279 L 172 278 L 172 278 L 172 277 L 174 277 L 174 276 L 174 276 L 174 275 L 178 275 L 179 274 L 179 273 L 181 273 L 181 272 L 184 272 L 187 271 L 188 271 L 190 270 L 191 270 L 194 269 L 194 269 L 195 268 L 198 267 L 198 267 L 199 266 L 200 266 L 201 265 L 202 265 L 203 264 L 203 264 L 203 263 L 205 262 L 206 262 L 206 261 L 207 261 L 208 260 L 208 260 L 209 259 L 211 259 L 213 258 L 216 258 L 217 257 L 218 256 L 219 256 L 219 255 L 219 255 L 221 254 L 230 254 L 230 253 L 231 253 L 239 252 L 239 251 L 239 251 L 240 250 L 240 250 L 241 249 L 244 249 L 245 248 L 245 248 L 255 247 L 257 247 L 259 246 L 262 245 L 264 245 L 264 244 L 265 244 L 272 243 L 279 243 L 288 242 L 289 242 L 289 241 L 289 240 L 289 240 L 291 239 L 303 239 L 308 238 L 308 238 L 312 237 L 313 237 L 314 236 L 327 236 L 327 235 L 328 234 L 328 234 L 330 233 L 333 233 L 335 232 L 337 232 L 339 231 L 342 231 L 349 230 L 349 229 L 350 229 L 351 228 L 351 228 L 351 227 L 355 227 L 362 226 L 378 226 L 384 225 L 387 225 L 387 224 L 389 223 L 391 223 L 391 222 L 391 222 L 391 221 L 391 221 L 391 220 L 391 220 L 391 219 L 391 218 L 391 218 L 392 217 L 392 217 L 392 216 L 392 216 L 393 215 L 395 215 L 396 214 L 396 214 L 396 213 L 396 212 L 398 212 L 398 211 L 398 211 L 398 210 L 398 210 L 398 209 L 398 209 L 399 208 L 400 207 L 401 207 L 401 206 L 401 206 L 401 205 L 401 205 L 403 204 L 403 204 L 403 203 L 403 203 L 404 202 L 405 201 L 405 201 L 406 200 L 408 200 L 408 199 L 410 199 L 413 198 L 413 198 L 414 197 L 415 196 L 415 196 L 415 195 L 415 195 L 417 194 L 418 194 L 420 193 L 420 193 L 421 192 L 423 192 L 425 191 L 425 190 L 429 190 L 429 189 L 430 189 L 431 188 L 431 188 L 437 187 L 438 187 L 439 186 L 443 185 L 446 185 L 450 184 L 452 184 L 452 183 L 453 183 L 454 182 L 454 182 L 457 181 L 460 181 L 462 180 L 463 179 L 464 179 L 466 178 L 466 178 L 466 177 L 466 177 L 467 176 L 467 176 L 467 175 L 469 174 L 469 174 L 469 173 L 470 173 L 476 172 L 483 172 L 483 171 L 483 171 L 487 170 L 490 170 L 491 169 L 491 168 L 493 168 L 494 167 L 494 167 L 494 166 L 494 166 L 494 165 L 495 165 L 495 164 L 496 163 L 496 163 L 497 162 L 500 162 L 500 161 L 500 161 L 500 160 L 500 160 L 501 159 L 501 159 L 501 158 L 501 157 L 501 157 L 501 156 L 501 156 L 501 155 L 506 155 L 510 154 L 510 154 L 511 153 L 517 152 L 525 152 L 526 151 L 530 151 L 534 150 L 542 150 L 545 149 L 548 149 L 548 148 L 548 148 L 548 147 L 549 146 L 549 146 L 549 145 L 549 145 L 551 144 L 552 144 L 562 143 L 565 143 L 569 142 L 577 141 L 583 141 L 588 140 L 591 140 L 597 139 L 597 139 L 609 138 L 622 138 L 622 137 L 630 137 L 631 136 L 637 135 L 639 135 L 642 134 L 642 134 L 643 133 L 643 133 L 647 132 L 649 132 L 652 131 L 657 130 L 658 130 L 660 129 L 660 129 L 665 128 L 669 128 L 670 127 L 675 127 L 680 126 L 681 126 L 681 125 L 683 124 L 684 124 L 686 123 L 690 123 L 693 122 L 697 122 L 700 121 L 700 121 L 707 120 L 708 119 L 711 119 L 717 118 L 717 118 L 724 117 L 725 117 L 725 116 L 727 116 L 727 115 L 730 115 L 731 114 L 733 113 L 737 113 L 738 112 L 739 112 L 739 111 L 749 111 L 749 110 L 750 110 L 751 109 L 751 108 L 752 108 L 752 107 L 753 107 L 754 106 L 756 106 L 756 105 L 758 105 L 759 104 L 760 104 L 761 103 L 761 102 L 761 102 L 762 101 L 763 101 L 763 100 L 764 100 L 764 99 L 764 99 L 765 98 L 766 97 L 768 97 L 768 96 L 768 96 L 769 95 L 770 95 L 772 94 L 773 94 L 773 93 L 774 92 L 776 92 L 778 91 L 778 91 L 779 90 L 779 90 L 782 89 L 782 89 L 782 88 L 783 88 L 783 87 L 783 86 L 783 86 L 784 85 L 785 85 L 786 84 L 790 84 L 792 83 L 793 83 L 794 82 L 797 82 L 799 81 L 799 80 L 802 80 L 806 79 L 809 79 L 812 78 L 813 78 L 813 77 L 813 77 L 814 76 L 815 75 L 815 75 L 815 74 L 816 74 L 817 73 L 817 73 L 817 72 L 819 72 L 820 71 L 820 71 L 822 70 L 822 69 L 825 69 L 826 68 L 826 68 L 827 67 L 829 67 L 832 66 L 835 66 L 841 65 L 841 64 L 841 64 L 841 63 L 844 63 L 847 62 L 847 62 L 847 61 L 847 61 L 848 60 L 850 60 L 855 59 L 855 58 L 855 58 L 856 57 L 858 57 L 859 56 L 859 56 L 859 55 L 859 55 L 863 54 L 868 53 L 868 53 L 873 52 L 873 52 L 875 51 L 879 51 L 881 50 L 884 50 L 887 49 L 889 49 L 890 48 L 891 47 L 891 47 L 892 46 L 892 46 L 892 45 L 893 45 L 893 44 L 894 44 L 895 43 L 895 42 L 895 42 L 897 41 L 898 41 L 898 40 L 905 40 L 905 39 L 912 39 L 915 38 L 915 38 L 917 37 L 918 36 L 921 36 L 922 35 L 923 35 L 923 34 L 924 34 L 924 33 L 924 33 L 924 32 L 924 31 L 925 31 L 925 30 L 925 30 L 925 29 L 926 29 L 927 28 L 927 28 L 927 27 L 928 27 L 929 26 L 929 25 L 930 25 L 931 24 L 933 24 L 933 23 L 933 23 L 934 22 L 935 22 L 939 21 L 939 20 L 939 20 L 939 19 L 939 19 L 941 18 L 941 18 L 941 17 L 943 17 L 945 16" /><path stroke-width="2" class="series" d="M 58 345 L 62 344 L 82 344 L 83 343 L 83 343 L 83 342 L 83 342 L 83 341 L 83 341 L 83 340 L 83 339 L 83 339 L 83 338 L 83 338 L 83 337 L 84 337 L 84 336 L 84 336 L 84 335 L 85 335 L 86 334 L 86 333 L 87 333 L 88 332 L 88 332 L 88 331 L 89 331 L 90 330 L 93 330 L 93 329 L 94 328 L 96 328 L 102 327 L 102 327 L 102 326 L 102 326 L 103 325 L 103 325 L 106 324 L 108 324 L 109 323 L 112 322 L 117 322 L 119 321 L 128 321 L 131 320 L 136 320 L 141 319 L 144 319 L 163 318 L 164 317 L 164 317 L 167 316 L 167 316 L 167 315 L 167 315 L 167 314 L 167 314 L 167 313 L 167 313 L 167 312 L 167 311 L 167 311 L 167 310 L 168 310 L 168 309 L 168 309 L 168 308 L 168 308 L 168 307 L 168 306 L 168 306 L 168 305 L 168 305 L 168 304 L 168 304 L 168 303 L 168 303 L 168 302 L 168 302 L 168 301 L 168 300 L 168 300 L 168 299 L 168 299 L 169 298 L 169 298 L 169 297 L 169 297 L 169 296 L 169 295 L 169 295 L 169 294 L 169 294 L 169 293 L 169 293 L 169 292 L 169 292 L 169 291 L 169 291 L 169 290 L 170 289 L 170 289 L 170 288 L 170 288 L 171 287 L 172 287 L 172 286 L 172 286 L 172 285 L 172 284 L 172 284 L 172 283 L 172 283 L 172 282 L 172 282 L 172 281 L 172 281 L 172 280 L 172 280 L 172 279 L 172 278 L 172 278 L 172 277 L 174 277 L 174 276 L 174 276 L 174 275 L 178 275 L 179 274 L 179 273 L 181 273 L 181 272 L 184 272 L 187 271 L 188 271 L 190 270 L 191 270 L 194 269 L 194 269 L 195 268 L 198 267 L 198 267 L 199 266 L 200 266 L 201 265 L 202 265 L 203 264 L 203 264 L 203 263 L 205 262 L 206 262 L 206 261 L 207 261 L 208 260 L 208 260 L 209 259 L 211 259 L 213 258 L 216 258 L 217 257 L 218 256 L 219 256 L 219 255 L 219 255 L 221 254 L 230 254 L 230 253 L 231 253 L 239 252 L 239 251 L 239 251 L 240 250 L 240 250 L 241 249 L 244 249 L 245 248 L 245 248 L 255 247 L 257 247 L 259 246 L 262 245 L 264 245 L 264 244 L 265 244 L 272 243 L 279 243 L 288 242 L 289 242 L 289 241 L 289 240 L 289 240 L 291 239 L 303 239 L 308 238 L 308 238 L 312 237 L 313 237 L 314 236 L 327 236 L 327 235 L 328 234 L 328 234 L 330 233 L 333 233 L 335 232 L 337 232 L 339 231 L 342 231 L 349 230 L 349 229 L 350 229 L 351 228 L 351 228 L 351 227 L 355 227 L 362 226 L 378 226 L 384 225 L 387 225 L 387 224 L 389 223 L 391 223 L 391 222 L 391 222 L 391 221 L 391 221 L 391 220 L 391 220 L 391 219 L 391 218 L 391 218 L 392 217 L 392 217 L 392 216 L 392 216 L 393 215 L 395 215 L 396 214 L 396 214 L 396 213 L 396 212 L 398 212 L 398 211 L 398 211 L 398 210 L 398 210 L 398 209 L 398 209 L 399 208 L 400 207 L 401 207 L 401 206 L 401 206 L 401 205 L 401 205 L 403 204 L 403 204 L 403 203 L 403 203 L 404 202 L 405 201 L 405 201 L 406 200 L 408 200 L 408 199 L 410 199 L 413 198 L 413 198 L 414 197 L 415 196 L 415 196 L 415 195 L 415 195 L 417 194 L 418 194 L 420 193 L 420 193 L 421 192 L 423 192 L 425 191 L 425 190 L 429 190 L 429 189 L 430 189 L 431 188 L 431 188 L 437 187 L 438 187 L 439 186 L 443 185 L 446 185 L 450 184 L 452 184 L 452 183 L 453 183 L 454 182 L 454 182 L 457 181 L 460 181 L 462 180 L 463 179 L 464 179 L 466 178 L 466 178 L 466 177 L 466 177 L 467 176 L 467 176 L 467 175 L 469 174 L 469 174 L 469 173 L 470 173 L 476 172 L 483 172 L 483 171 L 483 171 L 487 170 L 490 170 L 491 169 L 491 168 L 493 168 L 494 167 L 494 167 L 494 166 L 494 166 L 494 165 L 495 165 L 495 164 L 496 163 L 496 163 L 497 162 L 500 162 L 500 161 L 500 161 L 500 160 L 500 160 L 501 159 L 501 159 L 501 158 L 501 157 L 501 157 L 501 156 L 501 156 L 501 155 L 506 155 L 510 154 L 510 154 L 511 153 L 517 152 L 525 152 L 526 151 L 530 151 L 534 150 L 542 150 L 545 149 L 548 149 L 548 148 L 548 148 L 548 147 L 549 146 L 549 146 L 549 145 L 549 145 L 551 144 L 552 144 L 562 143 L 565 143 L 569 142 L 577 141 L 583 141 L 588 140 L 591 140 L 597 139 L 597 139 L 609 138 L 622 138 L 622 137 L 630 137 L 631 136 L 637 135 L 639 135 L 642 134 L 642 134 L 643 133 L 643 133 L 647 132 L 649 132 L 652 131 L 657 130 L 658 130 L 660 129 L 660 129 L 665 128 L 669 128 L 670 127 L 675 127 L 680 126 L 681 126 L 681 125 L 683 124 L 684 124 L 686 123 L 690 123 L 693 122 L 697 122 L 700 121 L 700 121 L 707 120 L 708 119 L 711 119 L 717 118 L 717 118 L 724 117 L 725 117 L 725 116 L 727 116 L 727 115 L 730 115 L 731 114 L 733 113 L 737 113 L 738 112 L 739 112 L 739 111 L 749 111 L 749 110 L 750 110 L 751 109 L 751 108 L 752 108 L 752 107 L 753 107 L 754 106 L 756 106 L 756 105 L 758 105 L 759 104 L 760 104 L 761 103 L 761 102 L 761 102 L 762 101 L 763 101 L 763 100 L 764 100 L 764 99 L 764 99 L 765 98 L 766 97 L 768 97 L 768 96 L 768 96 L 769 95 L 770 95 L 772 94 L 773 94 L 773 93 L 774 92 L 776 92 L 778 91 L 778 91 L 779 90 L 779 90 L 782 89 L 782 89 L 782 88 L 783 88 L 783 87 L 783 86 L 783 86 L 784 85 L 785 85 L 786 84 L 790 84 L 792 83 L 793 83 L 794 82 L 797 82 L 799 81 L 799 80 L 802 80 L 806 79 L 809 79 L 812 78 L 813 78 L 813 77 L 813 77 L 814 76 L 815 75 L 815 75 L 815 74 L 816 74 L 817 73 L 817 73 L 817 72 L 819 72 L 820 71 L 820 71 L 822 70 L 822 69 L 825 69 L 826 68 L 826 68 L 827 67 L 829 67 L 832 66 L 835 66 L 841 65 L 841 64 L 841 64 L 841 63 L 844 63 L 847 62 L 847 62 L 847 61 L 847 61 L 848 60 L 850 60 L 855 59 L 855 58 L 855 58 L 856 57 L 858 57 L 859 56 L 859 56 L 859 55 L 859 55 L 863 54 L 868 53 L 868 53 L 873 52 L 873 52 L 875 51 L 879 51 L 881 50 L 884 50 L 887 49 L 889 49 L 890 48 L 891 47 L 891 47 L 892 46 L 892 46 L 892 45 L 893 45 L 893 44 L 894 44 L 895 43 L 895 42 L 895 42 L 897 41 L 898 41 L 898 40 L 905 40 L 905 39 L 912 39 L 915 38 L 915 38 L 917 37 L 918 36 L 921 36 L 922 35 L 923 35 L 923 34 L 924 34 L 924 33 L 924 33 L 924 32 L 924 31 L 925 31 L 925 30 L 925 30 L 925 29 L 926 29 L 927 28 L 927 28 L 927 27 L 928 27 L 929 26 L 929 25 L 930 25 L 931 24 L 933 24 L 933 23 L 933 23 L 934 22 L 935 22 L 939 21 L 939 20 L 939 20 L 939 19 L 939 19 L 941 18 L 941 18 L 941 17 L 943 17 L 945 16"></path><path stroke-width="2" d="M 945 346 L 945.000000 15.000000" /><path stroke-width="2" d="M 945 346 L 945.000000 15.000000"></path><path stroke-width="2" d="M 945 346 L 950 346" /><path stroke-width="2" d="M 945 346 L 950 346"></path><text xmlns="http://www.w3.org/2000/svg" x="955" y="352">0</text><path stroke-width="2" d="M 945 309 L 950 309" /><path stroke-width="2" d="M 945 309 L 950 309"></path><text xmlns="http://www.w3.org/2000/svg" x="955" y="315">67</text><path stroke-width="2" d="M 945 272 L 950 272" /><path stroke-width="2" d="M 945 272 L 950 272"></path><text xmlns="http://www.w3.org/2000/svg" x="955" y="278">134</text><path stroke-width="2" d="M 945 236 L 950 236" /><path stroke-width="2" d="M 945 236 L 950 236"></path><text y="242" xmlns="http://www.w3.org/2000/svg" x="955">200</text><path d="M 945 199 L 950 199" stroke-width="2" /><path d="M 945 199 L 950 199" stroke-width="2"></path><text xmlns="http://www.w3.org/2000/svg" x="955" y="205">267</text><path stroke-width="2" d="M 945 162 L 950 162" /><path stroke-width="2" d="M 945 162 L 950 162"></path><text y="168" xmlns="http://www.w3.org/2000/svg" x="955">334</text><path stroke-width="2" d="M 945 126 L 950 126" /><path stroke-width="2" d="M 945 126 L 950 126"></path><text xmlns="http://www.w3.org/2000/svg" x="955" y="132">400</text><path stroke-width="2" d="M 945 89 L 950 89" /><path stroke-width="2" d="M 945 89 L 950 89"></path><text xmlns="http://www.w3.org/2000/svg" x="955" y="95">467</text><path stroke-width="2" d="M 945 52 L 950 52" /><path d="M 945 52 L 950 52" stroke-width="2"></path><text x="955" y="58" xmlns="http://www.w3.org/2000/svg">534</text><path stroke-width="2" d="M 945 16 L 950 16" /><path d="M 945 16 L 950 16" stroke-width="2"></path><text y="22" xmlns="http://www.w3.org/2000/svg" x="955">600</text><text y="175" transform="rotate(90.00,987,175)" xmlns="http://www.w3.org/2000/svg" x="987">Stargazers</text><path stroke-width="2" d="M 57.000000 346.000000 L 945 346" /><path d="M 57.000000 346.000000 L 945 346" stroke-width="2"></path><path stroke-width="2" d="M 58 346 L 58 351" /><path d="M 58 346 L 58 351" stroke-width="2"></path><text xmlns="http://www.w3.org/2000/svg" x="25" y="368">2023-04-02</text><path stroke-width="2" d="M 157 346 L 157 351" /><path stroke-width="2" d="M 157 346 L 157 351"></path><text xmlns="http://www.w3.org/2000/svg" x="124" y="368">2023-05-30</text><path stroke-width="2" d="M 256 346 L 256 351" /><path stroke-width="2" d="M 256 346 L 256 351"></path><text xmlns="http://www.w3.org/2000/svg" x="223" y="368">2023-07-27</text><path stroke-width="2" d="M 354 346 L 354 351" /><path stroke-width="2" d="M 354 346 L 354 351"></path><text xmlns="http://www.w3.org/2000/svg" x="321" y="368">2023-09-23</text><path stroke-width="2" d="M 453 346 L 453 351" /><path stroke-width="2" d="M 453 346 L 453 351"></path><text xmlns="http://www.w3.org/2000/svg" x="420" y="368">2023-11-20</text><path stroke-width="2" d="M 551 346 L 551 351" /><path d="M 551 346 L 551 351" stroke-width="2"></path><text xmlns="http://www.w3.org/2000/svg" x="518" y="368">2024-01-17</text><path stroke-width="2" d="M 650 346 L 650 351" /><path stroke-width="2" d="M 650 346 L 650 351"></path><text y="368" xmlns="http://www.w3.org/2000/svg" x="617">2024-03-15</text><path stroke-width="2" d="M 748 346 L 748 351" /><path stroke-width="2" d="M 748 346 L 748 351"></path><text xmlns="http://www.w3.org/2000/svg" x="715" y="368">2024-05-12</text><path stroke-width="2" d="M 847 346 L 847 351" /><path stroke-width="2" d="M 847 346 L 847 351"></path><text xmlns="http://www.w3.org/2000/svg" x="814" y="368">2024-07-10</text><path stroke-width="2" d="M 945 346 L 945 351" /><path stroke-width="2" d="M 945 346 L 945 351"></path><text xmlns="http://www.w3.org/2000/svg" x="912" y="368">2024-09-06</text><text xmlns="http://www.w3.org/2000/svg" x="487" y="390">Time</text></svg>