<svg xmlns:xlink="http://www.w3.org/1999/xlink" width="1024px" height="400px" xmlns="http://www.w3.org/2000/svg"><style type="text/css">
path { fill: none; stroke: rgb(51,51,51); }
path.series { stroke: #6b63ff; }
rect.background { fill: rgb(255,255,255); stroke: none; }

text {
	stroke-width: 0;
	stroke: none;
	fill: rgba(51,51,51,1.0);
	font-size: 12.8px;
	font-family: 'Roboto Medium', sans-serif;
}
</style><rect height="400px" class="background" rx="8" x="0" y="0" width="1024px" /><rect height="400px" class="background" rx="8" x="0" y="0" width="1024px"></rect><path stroke-width="2" class="series" d="M 58 345 L 61 345 L 78 344 L 78 344 L 78 343 L 78 343 L 78 343 L 78 342 L 78 342 L 78 341 L 79 341 L 79 341 L 79 340 L 79 340 L 79 339 L 79 339 L 79 338 L 79 338 L 79 338 L 80 337 L 81 337 L 81 336 L 82 336 L 83 336 L 83 335 L 83 335 L 84 334 L 85 334 L 86 334 L 87 333 L 88 333 L 89 332 L 94 332 L 94 331 L 94 331 L 94 331 L 95 330 L 95 330 L 98 329 L 99 329 L 100 329 L 102 328 L 107 328 L 108 327 L 116 327 L 118 327 L 122 326 L 126 326 L 128 325 L 144 325 L 145 324 L 145 324 L 147 324 L 147 323 L 147 323 L 147 322 L 147 322 L 147 322 L 147 321 L 147 321 L 147 320 L 148 320 L 148 320 L 148 319 L 148 319 L 148 318 L 148 318 L 148 317 L 148 317 L 148 317 L 148 316 L 148 316 L 148 315 L 148 315 L 148 315 L 148 314 L 148 314 L 148 313 L 148 313 L 148 313 L 148 312 L 148 312 L 148 311 L 148 311 L 148 310 L 148 310 L 149 310 L 149 309 L 149 309 L 149 308 L 149 308 L 149 308 L 149 307 L 149 307 L 149 306 L 149 306 L 149 305 L 149 305 L 149 305 L 149 304 L 149 304 L 150 303 L 150 303 L 150 303 L 150 302 L 150 302 L 151 301 L 151 301 L 151 301 L 151 300 L 151 300 L 151 299 L 151 299 L 151 298 L 151 298 L 151 298 L 151 297 L 151 297 L 151 296 L 151 296 L 151 296 L 151 295 L 151 295 L 152 294 L 153 294 L 153 294 L 153 293 L 153 293 L 157 292 L 157 292 L 157 291 L 158 291 L 158 291 L 161 290 L 163 290 L 164 289 L 166 289 L 167 289 L 169 288 L 169 288 L 170 287 L 172 287 L 173 287 L 174 286 L 175 286 L 175 285 L 176 285 L 176 284 L 177 284 L 177 284 L 178 283 L 180 283 L 180 282 L 180 282 L 181 282 L 181 281 L 182 281 L 183 280 L 185 280 L 187 280 L 188 279 L 189 279 L 190 278 L 190 278 L 190 277 L 192 277 L 199 277 L 199 276 L 200 276 L 206 275 L 207 275 L 207 275 L 207 274 L 207 274 L 208 273 L 210 273 L 211 272 L 211 272 L 219 272 L 221 271 L 222 271 L 225 270 L 226 270 L 227 270 L 228 269 L 233 269 L 239 268 L 246 268 L 247 268 L 247 267 L 247 267 L 247 266 L 249 266 L 258 265 L 263 265 L 263 265 L 266 264 L 267 264 L 268 263 L 278 263 L 278 263 L 279 262 L 279 262 L 280 261 L 283 261 L 284 261 L 287 260 L 288 260 L 290 259 L 296 259 L 296 258 L 297 258 L 297 258 L 298 257 L 298 257 L 301 256 L 307 256 L 320 256 L 325 255 L 327 255 L 328 254 L 329 254 L 331 254 L 331 253 L 331 253 L 331 252 L 331 252 L 331 251 L 331 251 L 331 251 L 331 250 L 331 250 L 331 249 L 331 249 L 331 249 L 331 248 L 332 248 L 334 247 L 334 247 L 334 247 L 335 246 L 335 246 L 336 245 L 336 245 L 336 244 L 336 244 L 336 244 L 336 243 L 336 243 L 337 242 L 338 242 L 339 242 L 339 241 L 339 241 L 339 240 L 339 240 L 340 239 L 340 239 L 340 239 L 340 238 L 341 238 L 342 237 L 342 237 L 343 237 L 344 236 L 345 236 L 346 235 L 349 235 L 349 235 L 350 234 L 350 234 L 350 233 L 350 233 L 350 232 L 352 232 L 352 232 L 354 231 L 354 231 L 355 230 L 357 230 L 359 230 L 359 229 L 361 229 L 362 228 L 362 228 L 363 228 L 363 227 L 368 227 L 369 226 L 370 226 L 373 225 L 375 225 L 379 225 L 380 224 L 380 224 L 381 223 L 382 223 L 382 223 L 385 222 L 387 222 L 389 221 L 389 221 L 390 221 L 392 220 L 392 220 L 392 219 L 392 219 L 393 218 L 393 218 L 393 218 L 394 217 L 394 217 L 394 216 L 395 216 L 400 216 L 405 215 L 405 215 L 406 214 L 409 214 L 411 214 L 412 213 L 412 213 L 414 212 L 415 212 L 415 211 L 415 211 L 415 211 L 415 210 L 415 210 L 416 209 L 416 209 L 416 209 L 417 208 L 419 208 L 419 207 L 420 207 L 420 206 L 420 206 L 420 206 L 420 205 L 420 205 L 420 204 L 420 204 L 421 204 L 421 203 L 421 203 L 425 202 L 428 202 L 428 202 L 429 201 L 440 201 L 441 200 L 445 200 L 447 199 L 454 199 L 457 199 L 459 198 L 459 198 L 459 197 L 459 197 L 460 197 L 460 196 L 460 196 L 460 195 L 461 195 L 462 195 L 471 194 L 473 194 L 476 193 L 483 193 L 488 192 L 491 192 L 494 192 L 499 191 L 499 191 L 509 190 L 519 190 L 519 190 L 526 189 L 526 189 L 532 188 L 533 188 L 536 188 L 536 187 L 537 187 L 537 186 L 540 186 L 541 185 L 544 185 L 548 185 L 549 184 L 550 184 L 551 183 L 554 183 L 558 183 L 558 182 L 563 182 L 567 181 L 568 181 L 568 181 L 570 180 L 571 180 L 572 179 L 575 179 L 578 178 L 581 178 L 583 178 L 583 177 L 589 177 L 590 176 L 593 176 L 597 176 L 597 175 L 603 175 L 603 174 L 604 174 L 605 173 L 606 173 L 608 173 L 608 172 L 611 172 L 614 171 L 615 171 L 615 171 L 615 170 L 624 170 L 624 169 L 624 169 L 625 169 L 625 168 L 626 168 L 626 167 L 626 167 L 627 166 L 629 166 L 629 166 L 631 165 L 631 165 L 632 164 L 633 164 L 633 164 L 634 163 L 634 163 L 635 162 L 635 162 L 636 162 L 636 161 L 636 161 L 636 160 L 637 160 L 639 159 L 639 159 L 639 159 L 640 158 L 640 158 L 642 157 L 643 157 L 643 157 L 644 156 L 645 156 L 647 155 L 647 155 L 648 155 L 648 154 L 650 154 L 650 153 L 650 153 L 651 152 L 651 152 L 651 152 L 651 151 L 652 151 L 653 150 L 654 150 L 657 150 L 658 149 L 660 149 L 660 148 L 662 148 L 664 148 L 665 147 L 667 147 L 670 146 L 672 146 L 675 145 L 676 145 L 676 145 L 676 144 L 676 144 L 677 143 L 677 143 L 677 143 L 679 142 L 679 142 L 679 141 L 679 141 L 681 140 L 682 140 L 682 140 L 683 139 L 683 139 L 686 138 L 686 138 L 686 138 L 687 137 L 688 137 L 691 136 L 694 136 L 698 136 L 698 135 L 698 135 L 699 134 L 701 134 L 703 133 L 704 133 L 704 133 L 704 132 L 704 132 L 706 131 L 710 131 L 710 131 L 710 130 L 710 130 L 713 129 L 713 129 L 713 129 L 713 128 L 714 128 L 717 127 L 720 127 L 721 126 L 725 126 L 725 126 L 726 125 L 730 125 L 731 124 L 734 124 L 736 124 L 738 123 L 739 123 L 739 122 L 740 122 L 740 122 L 740 121 L 740 121 L 741 120 L 741 120 L 742 119 L 743 119 L 743 119 L 743 118 L 744 118 L 745 117 L 746 117 L 751 117 L 751 116 L 757 116 L 759 115 L 759 115 L 760 115 L 761 114 L 764 114 L 765 113 L 765 113 L 765 112 L 766 112 L 766 112 L 766 111 L 766 111 L 767 110 L 768 110 L 768 110 L 768 109 L 768 109 L 768 108 L 769 108 L 769 107 L 769 107 L 771 107 L 771 106 L 772 106 L 772 105 L 773 105 L 774 105 L 774 104 L 774 104 L 776 103 L 779 103 L 779 103 L 779 102 L 779 102 L 779 101 L 780 101 L 780 100 L 781 100 L 782 100 L 784 99 L 787 99 L 790 98 L 791 98 L 793 98 L 797 97 L 801 97 L 801 96 L 804 96 L 809 96 L 809 95 L 809 95 L 815 94 L 816 94 L 817 93 L 817 93 L 818 93 L 827 92 L 828 92 L 829 91 L 829 91 L 829 91 L 830 90 L 831 90 L 832 89 L 832 89 L 833 89 L 833 88 L 833 88 L 834 87 L 834 87 L 834 86 L 835 86 L 835 86 L 835 85 L 835 85 L 836 84 L 837 84 L 838 84 L 840 83 L 840 83 L 840 82 L 841 82 L 842 82 L 843 81 L 843 81 L 844 80 L 844 80 L 844 79 L 845 79 L 846 79 L 847 78 L 848 78 L 848 77 L 850 77 L 850 77 L 851 76 L 851 76 L 851 75 L 851 75 L 852 74 L 852 74 L 853 74 L 854 73 L 854 73 L 856 72 L 856 72 L 856 72 L 856 71 L 856 71 L 857 70 L 858 70 L 858 70 L 858 69 L 859 69 L 859 68 L 860 68 L 860 67 L 861 67 L 861 67 L 861 66 L 861 66 L 861 65 L 862 65 L 862 65 L 862 64 L 862 64 L 862 63 L 865 63 L 866 63 L 869 62 L 869 62 L 869 61 L 869 61 L 871 60 L 872 60 L 872 60 L 873 59 L 876 59 L 879 58 L 879 58 L 881 58 L 881 57 L 881 57 L 883 56 L 883 56 L 883 56 L 883 55 L 883 55 L 883 54 L 884 54 L 884 53 L 884 53 L 884 53 L 884 52 L 884 52 L 885 51 L 885 51 L 885 51 L 885 50 L 885 50 L 886 49 L 886 49 L 887 49 L 887 48 L 889 48 L 890 47 L 890 47 L 890 46 L 892 46 L 892 46 L 893 45 L 896 45 L 897 44 L 897 44 L 897 44 L 897 43 L 897 43 L 900 42 L 902 42 L 903 41 L 905 41 L 905 41 L 905 40 L 905 40 L 906 39 L 912 39 L 914 39 L 918 38 L 919 38 L 920 37 L 922 37 L 923 37 L 923 36 L 924 36 L 924 35 L 924 35 L 925 34 L 926 34 L 926 34 L 927 33 L 930 33 L 930 32 L 930 32 L 930 32 L 930 31 L 930 31 L 930 30 L 930 30 L 930 30 L 930 29 L 930 29 L 930 28 L 930 28 L 930 27 L 930 27 L 930 27 L 930 26 L 931 26 L 931 25 L 932 25 L 932 25 L 932 24 L 932 24 L 932 23 L 933 23 L 933 23 L 933 22 L 934 22 L 934 21 L 934 21 L 934 20 L 934 20 L 934 20 L 936 19 L 937 19 L 940 18 L 940 18 L 940 18 L 942 17 L 942 17 L 942 16 L 943 16 L 945 16" /><path stroke-width="2" class="series" d="M 58 345 L 61 345 L 78 344 L 78 344 L 78 343 L 78 343 L 78 343 L 78 342 L 78 342 L 78 341 L 79 341 L 79 341 L 79 340 L 79 340 L 79 339 L 79 339 L 79 338 L 79 338 L 79 338 L 80 337 L 81 337 L 81 336 L 82 336 L 83 336 L 83 335 L 83 335 L 84 334 L 85 334 L 86 334 L 87 333 L 88 333 L 89 332 L 94 332 L 94 331 L 94 331 L 94 331 L 95 330 L 95 330 L 98 329 L 99 329 L 100 329 L 102 328 L 107 328 L 108 327 L 116 327 L 118 327 L 122 326 L 126 326 L 128 325 L 144 325 L 145 324 L 145 324 L 147 324 L 147 323 L 147 323 L 147 322 L 147 322 L 147 322 L 147 321 L 147 321 L 147 320 L 148 320 L 148 320 L 148 319 L 148 319 L 148 318 L 148 318 L 148 317 L 148 317 L 148 317 L 148 316 L 148 316 L 148 315 L 148 315 L 148 315 L 148 314 L 148 314 L 148 313 L 148 313 L 148 313 L 148 312 L 148 312 L 148 311 L 148 311 L 148 310 L 148 310 L 149 310 L 149 309 L 149 309 L 149 308 L 149 308 L 149 308 L 149 307 L 149 307 L 149 306 L 149 306 L 149 305 L 149 305 L 149 305 L 149 304 L 149 304 L 150 303 L 150 303 L 150 303 L 150 302 L 150 302 L 151 301 L 151 301 L 151 301 L 151 300 L 151 300 L 151 299 L 151 299 L 151 298 L 151 298 L 151 298 L 151 297 L 151 297 L 151 296 L 151 296 L 151 296 L 151 295 L 151 295 L 152 294 L 153 294 L 153 294 L 153 293 L 153 293 L 157 292 L 157 292 L 157 291 L 158 291 L 158 291 L 161 290 L 163 290 L 164 289 L 166 289 L 167 289 L 169 288 L 169 288 L 170 287 L 172 287 L 173 287 L 174 286 L 175 286 L 175 285 L 176 285 L 176 284 L 177 284 L 177 284 L 178 283 L 180 283 L 180 282 L 180 282 L 181 282 L 181 281 L 182 281 L 183 280 L 185 280 L 187 280 L 188 279 L 189 279 L 190 278 L 190 278 L 190 277 L 192 277 L 199 277 L 199 276 L 200 276 L 206 275 L 207 275 L 207 275 L 207 274 L 207 274 L 208 273 L 210 273 L 211 272 L 211 272 L 219 272 L 221 271 L 222 271 L 225 270 L 226 270 L 227 270 L 228 269 L 233 269 L 239 268 L 246 268 L 247 268 L 247 267 L 247 267 L 247 266 L 249 266 L 258 265 L 263 265 L 263 265 L 266 264 L 267 264 L 268 263 L 278 263 L 278 263 L 279 262 L 279 262 L 280 261 L 283 261 L 284 261 L 287 260 L 288 260 L 290 259 L 296 259 L 296 258 L 297 258 L 297 258 L 298 257 L 298 257 L 301 256 L 307 256 L 320 256 L 325 255 L 327 255 L 328 254 L 329 254 L 331 254 L 331 253 L 331 253 L 331 252 L 331 252 L 331 251 L 331 251 L 331 251 L 331 250 L 331 250 L 331 249 L 331 249 L 331 249 L 331 248 L 332 248 L 334 247 L 334 247 L 334 247 L 335 246 L 335 246 L 336 245 L 336 245 L 336 244 L 336 244 L 336 244 L 336 243 L 336 243 L 337 242 L 338 242 L 339 242 L 339 241 L 339 241 L 339 240 L 339 240 L 340 239 L 340 239 L 340 239 L 340 238 L 341 238 L 342 237 L 342 237 L 343 237 L 344 236 L 345 236 L 346 235 L 349 235 L 349 235 L 350 234 L 350 234 L 350 233 L 350 233 L 350 232 L 352 232 L 352 232 L 354 231 L 354 231 L 355 230 L 357 230 L 359 230 L 359 229 L 361 229 L 362 228 L 362 228 L 363 228 L 363 227 L 368 227 L 369 226 L 370 226 L 373 225 L 375 225 L 379 225 L 380 224 L 380 224 L 381 223 L 382 223 L 382 223 L 385 222 L 387 222 L 389 221 L 389 221 L 390 221 L 392 220 L 392 220 L 392 219 L 392 219 L 393 218 L 393 218 L 393 218 L 394 217 L 394 217 L 394 216 L 395 216 L 400 216 L 405 215 L 405 215 L 406 214 L 409 214 L 411 214 L 412 213 L 412 213 L 414 212 L 415 212 L 415 211 L 415 211 L 415 211 L 415 210 L 415 210 L 416 209 L 416 209 L 416 209 L 417 208 L 419 208 L 419 207 L 420 207 L 420 206 L 420 206 L 420 206 L 420 205 L 420 205 L 420 204 L 420 204 L 421 204 L 421 203 L 421 203 L 425 202 L 428 202 L 428 202 L 429 201 L 440 201 L 441 200 L 445 200 L 447 199 L 454 199 L 457 199 L 459 198 L 459 198 L 459 197 L 459 197 L 460 197 L 460 196 L 460 196 L 460 195 L 461 195 L 462 195 L 471 194 L 473 194 L 476 193 L 483 193 L 488 192 L 491 192 L 494 192 L 499 191 L 499 191 L 509 190 L 519 190 L 519 190 L 526 189 L 526 189 L 532 188 L 533 188 L 536 188 L 536 187 L 537 187 L 537 186 L 540 186 L 541 185 L 544 185 L 548 185 L 549 184 L 550 184 L 551 183 L 554 183 L 558 183 L 558 182 L 563 182 L 567 181 L 568 181 L 568 181 L 570 180 L 571 180 L 572 179 L 575 179 L 578 178 L 581 178 L 583 178 L 583 177 L 589 177 L 590 176 L 593 176 L 597 176 L 597 175 L 603 175 L 603 174 L 604 174 L 605 173 L 606 173 L 608 173 L 608 172 L 611 172 L 614 171 L 615 171 L 615 171 L 615 170 L 624 170 L 624 169 L 624 169 L 625 169 L 625 168 L 626 168 L 626 167 L 626 167 L 627 166 L 629 166 L 629 166 L 631 165 L 631 165 L 632 164 L 633 164 L 633 164 L 634 163 L 634 163 L 635 162 L 635 162 L 636 162 L 636 161 L 636 161 L 636 160 L 637 160 L 639 159 L 639 159 L 639 159 L 640 158 L 640 158 L 642 157 L 643 157 L 643 157 L 644 156 L 645 156 L 647 155 L 647 155 L 648 155 L 648 154 L 650 154 L 650 153 L 650 153 L 651 152 L 651 152 L 651 152 L 651 151 L 652 151 L 653 150 L 654 150 L 657 150 L 658 149 L 660 149 L 660 148 L 662 148 L 664 148 L 665 147 L 667 147 L 670 146 L 672 146 L 675 145 L 676 145 L 676 145 L 676 144 L 676 144 L 677 143 L 677 143 L 677 143 L 679 142 L 679 142 L 679 141 L 679 141 L 681 140 L 682 140 L 682 140 L 683 139 L 683 139 L 686 138 L 686 138 L 686 138 L 687 137 L 688 137 L 691 136 L 694 136 L 698 136 L 698 135 L 698 135 L 699 134 L 701 134 L 703 133 L 704 133 L 704 133 L 704 132 L 704 132 L 706 131 L 710 131 L 710 131 L 710 130 L 710 130 L 713 129 L 713 129 L 713 129 L 713 128 L 714 128 L 717 127 L 720 127 L 721 126 L 725 126 L 725 126 L 726 125 L 730 125 L 731 124 L 734 124 L 736 124 L 738 123 L 739 123 L 739 122 L 740 122 L 740 122 L 740 121 L 740 121 L 741 120 L 741 120 L 742 119 L 743 119 L 743 119 L 743 118 L 744 118 L 745 117 L 746 117 L 751 117 L 751 116 L 757 116 L 759 115 L 759 115 L 760 115 L 761 114 L 764 114 L 765 113 L 765 113 L 765 112 L 766 112 L 766 112 L 766 111 L 766 111 L 767 110 L 768 110 L 768 110 L 768 109 L 768 109 L 768 108 L 769 108 L 769 107 L 769 107 L 771 107 L 771 106 L 772 106 L 772 105 L 773 105 L 774 105 L 774 104 L 774 104 L 776 103 L 779 103 L 779 103 L 779 102 L 779 102 L 779 101 L 780 101 L 780 100 L 781 100 L 782 100 L 784 99 L 787 99 L 790 98 L 791 98 L 793 98 L 797 97 L 801 97 L 801 96 L 804 96 L 809 96 L 809 95 L 809 95 L 815 94 L 816 94 L 817 93 L 817 93 L 818 93 L 827 92 L 828 92 L 829 91 L 829 91 L 829 91 L 830 90 L 831 90 L 832 89 L 832 89 L 833 89 L 833 88 L 833 88 L 834 87 L 834 87 L 834 86 L 835 86 L 835 86 L 835 85 L 835 85 L 836 84 L 837 84 L 838 84 L 840 83 L 840 83 L 840 82 L 841 82 L 842 82 L 843 81 L 843 81 L 844 80 L 844 80 L 844 79 L 845 79 L 846 79 L 847 78 L 848 78 L 848 77 L 850 77 L 850 77 L 851 76 L 851 76 L 851 75 L 851 75 L 852 74 L 852 74 L 853 74 L 854 73 L 854 73 L 856 72 L 856 72 L 856 72 L 856 71 L 856 71 L 857 70 L 858 70 L 858 70 L 858 69 L 859 69 L 859 68 L 860 68 L 860 67 L 861 67 L 861 67 L 861 66 L 861 66 L 861 65 L 862 65 L 862 65 L 862 64 L 862 64 L 862 63 L 865 63 L 866 63 L 869 62 L 869 62 L 869 61 L 869 61 L 871 60 L 872 60 L 872 60 L 873 59 L 876 59 L 879 58 L 879 58 L 881 58 L 881 57 L 881 57 L 883 56 L 883 56 L 883 56 L 883 55 L 883 55 L 883 54 L 884 54 L 884 53 L 884 53 L 884 53 L 884 52 L 884 52 L 885 51 L 885 51 L 885 51 L 885 50 L 885 50 L 886 49 L 886 49 L 887 49 L 887 48 L 889 48 L 890 47 L 890 47 L 890 46 L 892 46 L 892 46 L 893 45 L 896 45 L 897 44 L 897 44 L 897 44 L 897 43 L 897 43 L 900 42 L 902 42 L 903 41 L 905 41 L 905 41 L 905 40 L 905 40 L 906 39 L 912 39 L 914 39 L 918 38 L 919 38 L 920 37 L 922 37 L 923 37 L 923 36 L 924 36 L 924 35 L 924 35 L 925 34 L 926 34 L 926 34 L 927 33 L 930 33 L 930 32 L 930 32 L 930 32 L 930 31 L 930 31 L 930 30 L 930 30 L 930 30 L 930 29 L 930 29 L 930 28 L 930 28 L 930 27 L 930 27 L 930 27 L 930 26 L 931 26 L 931 25 L 932 25 L 932 25 L 932 24 L 932 24 L 932 23 L 933 23 L 933 23 L 933 22 L 934 22 L 934 21 L 934 21 L 934 20 L 934 20 L 934 20 L 936 19 L 937 19 L 940 18 L 940 18 L 940 18 L 942 17 L 942 17 L 942 16 L 943 16 L 945 16"></path><path d="M 945 346 L 945.000000 15.000000" stroke-width="2" /><path stroke-width="2" d="M 945 346 L 945.000000 15.000000"></path><path stroke-width="2" d="M 945 346 L 950 346" /><path d="M 945 346 L 950 346" stroke-width="2"></path><text xmlns="http://www.w3.org/2000/svg" x="955" y="352">0</text><path stroke-width="2" d="M 945 309 L 950 309" /><path stroke-width="2" d="M 945 309 L 950 309"></path><text xmlns="http://www.w3.org/2000/svg" x="955" y="315">89</text><path stroke-width="2" d="M 945 272 L 950 272" /><path d="M 945 272 L 950 272" stroke-width="2"></path><text y="278" xmlns="http://www.w3.org/2000/svg" x="955">178</text><path stroke-width="2" d="M 945 235 L 950 235" /><path stroke-width="2" d="M 945 235 L 950 235"></path><text xmlns="http://www.w3.org/2000/svg" x="955" y="241">267</text><path stroke-width="2" d="M 945 199 L 950 199" /><path stroke-width="2" d="M 945 199 L 950 199"></path><text xmlns="http://www.w3.org/2000/svg" x="955" y="205">356</text><path stroke-width="2" d="M 945 162 L 950 162" /><path stroke-width="2" d="M 945 162 L 950 162"></path><text x="955" y="168" xmlns="http://www.w3.org/2000/svg">445</text><path stroke-width="2" d="M 945 125 L 950 125" /><path stroke-width="2" d="M 945 125 L 950 125"></path><text x="955" y="131" xmlns="http://www.w3.org/2000/svg">534</text><path stroke-width="2" d="M 945 89 L 950 89" /><path stroke-width="2" d="M 945 89 L 950 89"></path><text y="95" xmlns="http://www.w3.org/2000/svg" x="955">623</text><path stroke-width="2" d="M 945 52 L 950 52" /><path d="M 945 52 L 950 52" stroke-width="2"></path><text xmlns="http://www.w3.org/2000/svg" x="955" y="58">712</text><path stroke-width="2" d="M 945 16 L 950 16" /><path stroke-width="2" d="M 945 16 L 950 16"></path><text xmlns="http://www.w3.org/2000/svg" x="955" y="22">800</text><text xmlns="http://www.w3.org/2000/svg" x="987" y="175" transform="rotate(90.00,987,175)">Stargazers</text><path d="M 57.000000 346.000000 L 945 346" stroke-width="2" /><path d="M 57.000000 346.000000 L 945 346" stroke-width="2"></path><path d="M 58 346 L 58 351" stroke-width="2" /><path stroke-width="2" d="M 58 346 L 58 351"></path><text xmlns="http://www.w3.org/2000/svg" x="25" y="368">2023-04-02</text><path stroke-width="2" d="M 157 346 L 157 351" /><path stroke-width="2" d="M 157 346 L 157 351"></path><text xmlns="http://www.w3.org/2000/svg" x="124" y="368">2023-06-12</text><path d="M 256 346 L 256 351" stroke-width="2" /><path stroke-width="2" d="M 256 346 L 256 351"></path><text y="368" xmlns="http://www.w3.org/2000/svg" x="223">2023-08-22</text><path stroke-width="2" d="M 354 346 L 354 351" /><path stroke-width="2" d="M 354 346 L 354 351"></path><text xmlns="http://www.w3.org/2000/svg" x="321" y="368">2023-11-01</text><path stroke-width="2" d="M 453 346 L 453 351" /><path stroke-width="2" d="M 453 346 L 453 351"></path><text xmlns="http://www.w3.org/2000/svg" x="420" y="368">2024-01-11</text><path stroke-width="2" d="M 551 346 L 551 351" /><path stroke-width="2" d="M 551 346 L 551 351"></path><text y="368" xmlns="http://www.w3.org/2000/svg" x="518">2024-03-22</text><path d="M 650 346 L 650 351" stroke-width="2" /><path stroke-width="2" d="M 650 346 L 650 351"></path><text x="617" y="368" xmlns="http://www.w3.org/2000/svg">2024-06-01</text><path stroke-width="2" d="M 748 346 L 748 351" /><path stroke-width="2" d="M 748 346 L 748 351"></path><text xmlns="http://www.w3.org/2000/svg" x="715" y="368">2024-08-11</text><path stroke-width="2" d="M 847 346 L 847 351" /><path stroke-width="2" d="M 847 346 L 847 351"></path><text xmlns="http://www.w3.org/2000/svg" x="814" y="368">2024-10-21</text><path stroke-width="2" d="M 945 346 L 945 351" /><path stroke-width="2" d="M 945 346 L 945 351"></path><text xmlns="http://www.w3.org/2000/svg" x="912" y="368">2024-12-31</text><text xmlns="http://www.w3.org/2000/svg" x="487" y="390">Time</text></svg>