<svg xmlns="http://www.w3.org/2000/svg" xmlns:xlink="http://www.w3.org/1999/xlink" width="1024px" height="400px"><style type="text/css">
path { fill: none; stroke: rgb(51,51,51); }
path.series { stroke: #6b63ff; }
rect.background { fill: rgb(255,255,255); stroke: none; }

text {
	stroke-width: 0;
	stroke: none;
	fill: rgba(51,51,51,1.0);
	font-size: 12.8px;
	font-family: 'Roboto Medium', sans-serif;
}
</style><rect class="background" rx="8" x="0" y="0" width="1024px" height="400px" /><rect class="background" rx="8" x="0" y="0" width="1024px" height="400px"></rect><path stroke-width="2" class="series" d="M 58 345 L 60 345 L 73 345 L 73 344 L 73 344 L 73 344 L 73 343 L 73 343 L 73 343 L 73 343 L 73 342 L 73 342 L 73 342 L 73 341 L 73 341 L 74 341 L 74 340 L 74 340 L 74 340 L 74 340 L 75 339 L 75 339 L 76 339 L 76 338 L 76 338 L 76 338 L 77 337 L 78 337 L 79 337 L 79 337 L 80 336 L 81 336 L 85 336 L 85 335 L 85 335 L 85 335 L 85 334 L 87 334 L 88 334 L 89 334 L 91 333 L 94 333 L 95 333 L 100 332 L 102 332 L 105 332 L 108 331 L 109 331 L 121 331 L 122 331 L 122 330 L 123 330 L 124 330 L 124 329 L 124 329 L 124 329 L 124 328 L 124 328 L 124 328 L 124 328 L 124 327 L 124 327 L 124 327 L 124 326 L 124 326 L 124 326 L 124 325 L 124 325 L 124 325 L 124 325 L 124 324 L 124 324 L 124 324 L 124 323 L 124 323 L 124 323 L 124 322 L 124 322 L 124 322 L 124 322 L 124 321 L 124 321 L 124 321 L 124 320 L 124 320 L 124 320 L 124 319 L 124 319 L 124 319 L 124 319 L 124 318 L 124 318 L 124 318 L 124 317 L 124 317 L 124 317 L 124 316 L 125 316 L 125 316 L 125 316 L 125 315 L 125 315 L 125 315 L 125 314 L 126 314 L 126 314 L 126 313 L 126 313 L 126 313 L 126 313 L 126 312 L 126 312 L 126 312 L 126 311 L 126 311 L 126 311 L 126 310 L 126 310 L 126 310 L 126 310 L 126 309 L 126 309 L 127 309 L 127 308 L 127 308 L 128 308 L 128 307 L 130 307 L 130 307 L 131 307 L 131 306 L 132 306 L 133 306 L 135 305 L 136 305 L 137 305 L 138 304 L 139 304 L 140 304 L 140 304 L 142 303 L 142 303 L 143 303 L 143 302 L 144 302 L 145 302 L 145 301 L 145 301 L 145 301 L 146 301 L 147 300 L 147 300 L 147 300 L 148 299 L 148 299 L 148 299 L 150 298 L 151 298 L 152 298 L 153 298 L 154 297 L 155 297 L 155 297 L 155 296 L 156 296 L 161 296 L 161 295 L 162 295 L 167 295 L 167 295 L 167 294 L 167 294 L 167 294 L 168 293 L 169 293 L 170 293 L 170 292 L 176 292 L 177 292 L 178 292 L 180 291 L 181 291 L 181 291 L 182 290 L 186 290 L 191 290 L 196 289 L 196 289 L 196 289 L 196 289 L 197 288 L 198 288 L 205 288 L 208 287 L 208 287 L 210 287 L 211 286 L 211 286 L 219 286 L 219 286 L 219 285 L 220 285 L 221 285 L 223 284 L 224 284 L 225 284 L 226 283 L 228 283 L 232 283 L 232 283 L 233 282 L 233 282 L 233 282 L 234 281 L 236 281 L 240 281 L 250 280 L 253 280 L 255 280 L 255 280 L 257 279 L 257 279 L 257 279 L 257 278 L 257 278 L 257 278 L 257 277 L 258 277 L 258 277 L 258 277 L 258 276 L 258 276 L 258 276 L 258 275 L 258 275 L 260 275 L 260 274 L 260 274 L 260 274 L 262 274 L 262 273 L 262 273 L 262 273 L 262 272 L 262 272 L 262 272 L 262 271 L 263 271 L 263 271 L 263 271 L 263 270 L 264 270 L 264 270 L 264 269 L 265 269 L 265 269 L 265 268 L 265 268 L 266 268 L 266 268 L 267 267 L 268 267 L 269 267 L 271 266 L 271 266 L 271 266 L 271 265 L 272 265 L 272 265 L 272 265 L 273 264 L 273 264 L 275 264 L 275 263 L 275 263 L 277 263 L 278 262 L 278 262 L 280 262 L 280 262 L 281 261 L 281 261 L 281 261 L 285 260 L 286 260 L 286 260 L 289 259 L 290 259 L 293 259 L 294 259 L 294 258 L 295 258 L 295 258 L 295 257 L 297 257 L 299 257 L 300 256 L 300 256 L 302 256 L 302 256 L 302 255 L 302 255 L 303 255 L 303 254 L 303 254 L 304 254 L 304 253 L 304 253 L 305 253 L 308 253 L 312 252 L 312 252 L 312 252 L 315 251 L 316 251 L 317 251 L 317 250 L 318 250 L 319 250 L 319 250 L 319 249 L 319 249 L 319 249 L 320 248 L 320 248 L 320 248 L 320 247 L 321 247 L 322 247 L 322 247 L 323 246 L 323 246 L 323 246 L 323 245 L 323 245 L 323 245 L 323 244 L 323 244 L 323 244 L 323 244 L 323 243 L 326 243 L 328 243 L 328 242 L 329 242 L 337 242 L 338 241 L 341 241 L 343 241 L 350 241 L 351 240 L 351 240 L 351 240 L 352 239 L 352 239 L 352 239 L 352 238 L 353 238 L 354 238 L 360 238 L 362 237 L 364 237 L 369 237 L 372 236 L 375 236 L 377 236 L 381 235 L 381 235 L 388 235 L 395 235 L 395 234 L 400 234 L 401 234 L 405 233 L 406 233 L 408 233 L 408 232 L 408 232 L 408 232 L 411 232 L 412 231 L 414 231 L 417 231 L 417 230 L 418 230 L 418 230 L 421 229 L 424 229 L 424 229 L 427 229 L 430 228 L 431 228 L 431 228 L 432 227 L 433 227 L 434 227 L 436 226 L 438 226 L 440 226 L 442 226 L 442 225 L 446 225 L 447 225 L 449 224 L 452 224 L 453 224 L 456 223 L 457 223 L 457 223 L 458 223 L 459 222 L 460 222 L 461 222 L 462 221 L 465 221 L 465 221 L 465 220 L 466 220 L 472 220 L 472 220 L 472 219 L 472 219 L 473 219 L 473 218 L 474 218 L 474 218 L 474 217 L 476 217 L 476 217 L 477 217 L 477 216 L 478 216 L 478 216 L 479 215 L 479 215 L 480 215 L 480 214 L 480 214 L 480 214 L 480 214 L 481 213 L 481 213 L 482 213 L 483 212 L 483 212 L 483 212 L 484 211 L 484 211 L 485 211 L 486 211 L 486 210 L 487 210 L 488 210 L 489 209 L 489 209 L 489 209 L 490 208 L 491 208 L 491 208 L 491 208 L 492 207 L 492 207 L 492 207 L 492 206 L 493 206 L 493 206 L 494 205 L 496 205 L 497 205 L 498 205 L 498 204 L 500 204 L 501 204 L 502 203 L 503 203 L 505 203 L 507 202 L 509 202 L 510 202 L 510 202 L 510 201 L 510 201 L 511 201 L 511 200 L 511 200 L 512 200 L 512 199 L 512 199 L 512 199 L 514 199 L 514 198 L 514 198 L 515 198 L 515 197 L 517 197 L 518 197 L 518 196 L 518 196 L 519 196 L 521 196 L 526 195 L 526 195 L 526 195 L 527 194 L 528 194 L 530 194 L 530 193 L 530 193 L 530 193 L 531 193 L 532 192 L 535 192 L 535 192 L 535 191 L 535 191 L 537 191 L 537 190 L 537 190 L 537 190 L 540 190 L 543 189 L 543 189 L 546 189 L 546 188 L 547 188 L 549 188 L 550 187 L 553 187 L 554 187 L 555 187 L 556 186 L 556 186 L 557 186 L 557 185 L 557 185 L 557 185 L 558 184 L 558 184 L 558 184 L 559 184 L 559 183 L 559 183 L 560 183 L 561 182 L 561 182 L 565 182 L 565 181 L 569 181 L 571 181 L 571 181 L 572 180 L 572 180 L 575 180 L 575 179 L 575 179 L 576 179 L 576 178 L 576 178 L 576 178 L 576 178 L 577 177 L 577 177 L 577 177 L 577 176 L 577 176 L 578 176 L 578 175 L 579 175 L 579 175 L 580 175 L 581 174 L 581 174 L 581 174 L 581 173 L 582 173 L 583 173 L 585 172 L 585 172 L 585 172 L 585 172 L 585 171 L 586 171 L 586 171 L 586 170 L 587 170 L 589 170 L 591 169 L 594 169 L 594 169 L 596 169 L 598 168 L 601 168 L 602 168 L 604 167 L 607 167 L 607 167 L 607 166 L 611 166 L 613 166 L 613 166 L 613 165 L 614 165 L 621 165 L 621 164 L 622 164 L 622 164 L 622 163 L 623 163 L 624 163 L 624 163 L 624 162 L 625 162 L 625 162 L 625 161 L 626 161 L 626 161 L 626 160 L 626 160 L 626 160 L 626 160 L 626 159 L 628 159 L 629 159 L 630 158 L 630 158 L 630 158 L 631 157 L 631 157 L 632 157 L 632 157 L 633 156 L 633 156 L 633 156 L 633 155 L 635 155 L 635 155 L 636 154 L 636 154 L 637 154 L 638 154 L 638 153 L 638 153 L 638 153 L 638 152 L 639 152 L 639 152 L 639 151 L 640 151 L 640 151 L 641 151 L 642 150 L 642 150 L 642 150 L 642 149 L 642 149 L 643 149 L 643 148 L 643 148 L 644 148 L 644 148 L 644 147 L 645 147 L 645 147 L 645 146 L 645 146 L 645 146 L 645 145 L 646 145 L 646 145 L 646 145 L 646 144 L 646 144 L 648 144 L 649 143 L 651 143 L 651 143 L 651 142 L 651 142 L 652 142 L 653 142 L 654 141 L 654 141 L 656 141 L 658 140 L 658 140 L 660 140 L 660 139 L 660 139 L 661 139 L 661 139 L 662 138 L 662 138 L 662 138 L 662 137 L 662 137 L 662 137 L 662 136 L 663 136 L 663 136 L 663 136 L 663 135 L 663 135 L 663 135 L 664 134 L 664 134 L 665 134 L 666 133 L 666 133 L 667 133 L 667 132 L 668 132 L 668 132 L 669 132 L 671 131 L 672 131 L 672 131 L 672 130 L 672 130 L 674 130 L 675 130 L 676 129 L 677 129 L 677 129 L 678 128 L 678 128 L 678 128 L 682 127 L 684 127 L 687 127 L 688 126 L 689 126 L 690 126 L 691 126 L 691 125 L 691 125 L 691 125 L 692 124 L 692 124 L 693 124 L 693 124 L 694 123 L 696 123 L 696 123 L 696 122 L 696 122 L 696 122 L 696 121 L 696 121 L 696 121 L 696 121 L 696 120 L 696 120 L 696 120 L 696 119 L 696 119 L 696 119 L 696 118 L 696 118 L 697 118 L 697 118 L 697 117 L 697 117 L 697 117 L 697 116 L 697 116 L 698 116 L 698 115 L 698 115 L 699 115 L 699 115 L 699 114 L 699 114 L 699 114 L 699 113 L 700 113 L 701 113 L 703 112 L 703 112 L 703 112 L 704 112 L 704 111 L 705 111 L 705 111 L 707 110 L 708 110 L 709 110 L 709 109 L 709 109 L 709 109 L 709 109 L 709 108 L 709 108 L 711 108 L 711 107 L 711 107 L 714 107 L 716 106 L 717 106 L 719 106 L 720 106 L 721 105 L 721 105 L 721 105 L 721 104 L 722 104 L 722 104 L 722 103 L 723 103 L 724 103 L 724 103 L 724 102 L 724 102 L 724 102 L 724 101 L 724 101 L 724 101 L 725 100 L 725 100 L 725 100 L 725 100 L 727 99 L 727 99 L 727 99 L 728 98 L 728 98 L 728 98 L 729 97 L 729 97 L 729 97 L 729 97 L 730 96 L 731 96 L 731 96 L 735 95 L 735 95 L 736 95 L 739 94 L 739 94 L 740 94 L 743 94 L 743 93 L 744 93 L 747 93 L 751 92 L 752 92 L 753 92 L 755 91 L 757 91 L 757 91 L 757 91 L 759 90 L 759 90 L 760 90 L 761 89 L 762 89 L 763 89 L 764 88 L 764 88 L 764 88 L 765 88 L 765 87 L 766 87 L 769 87 L 769 86 L 770 86 L 771 86 L 771 85 L 772 85 L 773 85 L 774 85 L 774 84 L 774 84 L 774 84 L 775 83 L 776 83 L 776 83 L 777 82 L 778 82 L 778 82 L 778 82 L 779 81 L 780 81 L 780 81 L 780 80 L 781 80 L 781 80 L 781 79 L 781 79 L 781 79 L 781 79 L 782 78 L 784 78 L 785 78 L 785 77 L 786 77 L 789 77 L 789 76 L 790 76 L 791 76 L 793 76 L 795 75 L 797 75 L 798 75 L 800 74 L 800 74 L 801 74 L 804 73 L 805 73 L 805 73 L 805 73 L 805 72 L 806 72 L 806 72 L 807 71 L 808 71 L 809 71 L 809 70 L 810 70 L 810 70 L 815 70 L 816 69 L 817 69 L 818 69 L 820 68 L 821 68 L 821 68 L 822 67 L 822 67 L 822 67 L 823 67 L 824 66 L 824 66 L 825 66 L 825 65 L 825 65 L 826 65 L 826 64 L 827 64 L 828 64 L 830 64 L 831 63 L 835 63 L 836 63 L 836 62 L 837 62 L 838 62 L 838 61 L 838 61 L 838 61 L 841 61 L 842 60 L 844 60 L 844 60 L 844 59 L 844 59 L 846 59 L 847 58 L 849 58 L 849 58 L 849 58 L 850 57 L 850 57 L 850 57 L 850 56 L 852 56 L 852 56 L 852 55 L 854 55 L 854 55 L 855 55 L 855 54 L 855 54 L 856 54 L 856 53 L 856 53 L 859 53 L 863 52 L 864 52 L 867 52 L 868 52 L 870 51 L 870 51 L 871 51 L 872 50 L 873 50 L 873 50 L 875 49 L 876 49 L 877 49 L 877 49 L 881 48 L 885 48 L 885 48 L 885 47 L 886 47 L 886 47 L 888 46 L 888 46 L 888 46 L 896 46 L 899 45 L 899 45 L 900 45 L 902 44 L 904 44 L 906 44 L 907 43 L 907 43 L 908 43 L 909 43 L 914 42 L 915 42 L 916 42 L 917 41 L 920 41 L 920 41 L 920 40 L 920 40 L 920 40 L 921 40 L 921 39 L 921 39 L 923 39 L 925 38 L 926 38 L 926 38 L 926 37 L 927 37 L 929 37 L 933 37 L 934 36 L 935 36 L 936 36 L 937 35 L 937 35 L 937 35 L 937 34 L 937 34 L 937 34" /><path d="M 58 345 L 60 345 L 73 345 L 73 344 L 73 344 L 73 344 L 73 343 L 73 343 L 73 343 L 73 343 L 73 342 L 73 342 L 73 342 L 73 341 L 73 341 L 74 341 L 74 340 L 74 340 L 74 340 L 74 340 L 75 339 L 75 339 L 76 339 L 76 338 L 76 338 L 76 338 L 77 337 L 78 337 L 79 337 L 79 337 L 80 336 L 81 336 L 85 336 L 85 335 L 85 335 L 85 335 L 85 334 L 87 334 L 88 334 L 89 334 L 91 333 L 94 333 L 95 333 L 100 332 L 102 332 L 105 332 L 108 331 L 109 331 L 121 331 L 122 331 L 122 330 L 123 330 L 124 330 L 124 329 L 124 329 L 124 329 L 124 328 L 124 328 L 124 328 L 124 328 L 124 327 L 124 327 L 124 327 L 124 326 L 124 326 L 124 326 L 124 325 L 124 325 L 124 325 L 124 325 L 124 324 L 124 324 L 124 324 L 124 323 L 124 323 L 124 323 L 124 322 L 124 322 L 124 322 L 124 322 L 124 321 L 124 321 L 124 321 L 124 320 L 124 320 L 124 320 L 124 319 L 124 319 L 124 319 L 124 319 L 124 318 L 124 318 L 124 318 L 124 317 L 124 317 L 124 317 L 124 316 L 125 316 L 125 316 L 125 316 L 125 315 L 125 315 L 125 315 L 125 314 L 126 314 L 126 314 L 126 313 L 126 313 L 126 313 L 126 313 L 126 312 L 126 312 L 126 312 L 126 311 L 126 311 L 126 311 L 126 310 L 126 310 L 126 310 L 126 310 L 126 309 L 126 309 L 127 309 L 127 308 L 127 308 L 128 308 L 128 307 L 130 307 L 130 307 L 131 307 L 131 306 L 132 306 L 133 306 L 135 305 L 136 305 L 137 305 L 138 304 L 139 304 L 140 304 L 140 304 L 142 303 L 142 303 L 143 303 L 143 302 L 144 302 L 145 302 L 145 301 L 145 301 L 145 301 L 146 301 L 147 300 L 147 300 L 147 300 L 148 299 L 148 299 L 148 299 L 150 298 L 151 298 L 152 298 L 153 298 L 154 297 L 155 297 L 155 297 L 155 296 L 156 296 L 161 296 L 161 295 L 162 295 L 167 295 L 167 295 L 167 294 L 167 294 L 167 294 L 168 293 L 169 293 L 170 293 L 170 292 L 176 292 L 177 292 L 178 292 L 180 291 L 181 291 L 181 291 L 182 290 L 186 290 L 191 290 L 196 289 L 196 289 L 196 289 L 196 289 L 197 288 L 198 288 L 205 288 L 208 287 L 208 287 L 210 287 L 211 286 L 211 286 L 219 286 L 219 286 L 219 285 L 220 285 L 221 285 L 223 284 L 224 284 L 225 284 L 226 283 L 228 283 L 232 283 L 232 283 L 233 282 L 233 282 L 233 282 L 234 281 L 236 281 L 240 281 L 250 280 L 253 280 L 255 280 L 255 280 L 257 279 L 257 279 L 257 279 L 257 278 L 257 278 L 257 278 L 257 277 L 258 277 L 258 277 L 258 277 L 258 276 L 258 276 L 258 276 L 258 275 L 258 275 L 260 275 L 260 274 L 260 274 L 260 274 L 262 274 L 262 273 L 262 273 L 262 273 L 262 272 L 262 272 L 262 272 L 262 271 L 263 271 L 263 271 L 263 271 L 263 270 L 264 270 L 264 270 L 264 269 L 265 269 L 265 269 L 265 268 L 265 268 L 266 268 L 266 268 L 267 267 L 268 267 L 269 267 L 271 266 L 271 266 L 271 266 L 271 265 L 272 265 L 272 265 L 272 265 L 273 264 L 273 264 L 275 264 L 275 263 L 275 263 L 277 263 L 278 262 L 278 262 L 280 262 L 280 262 L 281 261 L 281 261 L 281 261 L 285 260 L 286 260 L 286 260 L 289 259 L 290 259 L 293 259 L 294 259 L 294 258 L 295 258 L 295 258 L 295 257 L 297 257 L 299 257 L 300 256 L 300 256 L 302 256 L 302 256 L 302 255 L 302 255 L 303 255 L 303 254 L 303 254 L 304 254 L 304 253 L 304 253 L 305 253 L 308 253 L 312 252 L 312 252 L 312 252 L 315 251 L 316 251 L 317 251 L 317 250 L 318 250 L 319 250 L 319 250 L 319 249 L 319 249 L 319 249 L 320 248 L 320 248 L 320 248 L 320 247 L 321 247 L 322 247 L 322 247 L 323 246 L 323 246 L 323 246 L 323 245 L 323 245 L 323 245 L 323 244 L 323 244 L 323 244 L 323 244 L 323 243 L 326 243 L 328 243 L 328 242 L 329 242 L 337 242 L 338 241 L 341 241 L 343 241 L 350 241 L 351 240 L 351 240 L 351 240 L 352 239 L 352 239 L 352 239 L 352 238 L 353 238 L 354 238 L 360 238 L 362 237 L 364 237 L 369 237 L 372 236 L 375 236 L 377 236 L 381 235 L 381 235 L 388 235 L 395 235 L 395 234 L 400 234 L 401 234 L 405 233 L 406 233 L 408 233 L 408 232 L 408 232 L 408 232 L 411 232 L 412 231 L 414 231 L 417 231 L 417 230 L 418 230 L 418 230 L 421 229 L 424 229 L 424 229 L 427 229 L 430 228 L 431 228 L 431 228 L 432 227 L 433 227 L 434 227 L 436 226 L 438 226 L 440 226 L 442 226 L 442 225 L 446 225 L 447 225 L 449 224 L 452 224 L 453 224 L 456 223 L 457 223 L 457 223 L 458 223 L 459 222 L 460 222 L 461 222 L 462 221 L 465 221 L 465 221 L 465 220 L 466 220 L 472 220 L 472 220 L 472 219 L 472 219 L 473 219 L 473 218 L 474 218 L 474 218 L 474 217 L 476 217 L 476 217 L 477 217 L 477 216 L 478 216 L 478 216 L 479 215 L 479 215 L 480 215 L 480 214 L 480 214 L 480 214 L 480 214 L 481 213 L 481 213 L 482 213 L 483 212 L 483 212 L 483 212 L 484 211 L 484 211 L 485 211 L 486 211 L 486 210 L 487 210 L 488 210 L 489 209 L 489 209 L 489 209 L 490 208 L 491 208 L 491 208 L 491 208 L 492 207 L 492 207 L 492 207 L 492 206 L 493 206 L 493 206 L 494 205 L 496 205 L 497 205 L 498 205 L 498 204 L 500 204 L 501 204 L 502 203 L 503 203 L 505 203 L 507 202 L 509 202 L 510 202 L 510 202 L 510 201 L 510 201 L 511 201 L 511 200 L 511 200 L 512 200 L 512 199 L 512 199 L 512 199 L 514 199 L 514 198 L 514 198 L 515 198 L 515 197 L 517 197 L 518 197 L 518 196 L 518 196 L 519 196 L 521 196 L 526 195 L 526 195 L 526 195 L 527 194 L 528 194 L 530 194 L 530 193 L 530 193 L 530 193 L 531 193 L 532 192 L 535 192 L 535 192 L 535 191 L 535 191 L 537 191 L 537 190 L 537 190 L 537 190 L 540 190 L 543 189 L 543 189 L 546 189 L 546 188 L 547 188 L 549 188 L 550 187 L 553 187 L 554 187 L 555 187 L 556 186 L 556 186 L 557 186 L 557 185 L 557 185 L 557 185 L 558 184 L 558 184 L 558 184 L 559 184 L 559 183 L 559 183 L 560 183 L 561 182 L 561 182 L 565 182 L 565 181 L 569 181 L 571 181 L 571 181 L 572 180 L 572 180 L 575 180 L 575 179 L 575 179 L 576 179 L 576 178 L 576 178 L 576 178 L 576 178 L 577 177 L 577 177 L 577 177 L 577 176 L 577 176 L 578 176 L 578 175 L 579 175 L 579 175 L 580 175 L 581 174 L 581 174 L 581 174 L 581 173 L 582 173 L 583 173 L 585 172 L 585 172 L 585 172 L 585 172 L 585 171 L 586 171 L 586 171 L 586 170 L 587 170 L 589 170 L 591 169 L 594 169 L 594 169 L 596 169 L 598 168 L 601 168 L 602 168 L 604 167 L 607 167 L 607 167 L 607 166 L 611 166 L 613 166 L 613 166 L 613 165 L 614 165 L 621 165 L 621 164 L 622 164 L 622 164 L 622 163 L 623 163 L 624 163 L 624 163 L 624 162 L 625 162 L 625 162 L 625 161 L 626 161 L 626 161 L 626 160 L 626 160 L 626 160 L 626 160 L 626 159 L 628 159 L 629 159 L 630 158 L 630 158 L 630 158 L 631 157 L 631 157 L 632 157 L 632 157 L 633 156 L 633 156 L 633 156 L 633 155 L 635 155 L 635 155 L 636 154 L 636 154 L 637 154 L 638 154 L 638 153 L 638 153 L 638 153 L 638 152 L 639 152 L 639 152 L 639 151 L 640 151 L 640 151 L 641 151 L 642 150 L 642 150 L 642 150 L 642 149 L 642 149 L 643 149 L 643 148 L 643 148 L 644 148 L 644 148 L 644 147 L 645 147 L 645 147 L 645 146 L 645 146 L 645 146 L 645 145 L 646 145 L 646 145 L 646 145 L 646 144 L 646 144 L 648 144 L 649 143 L 651 143 L 651 143 L 651 142 L 651 142 L 652 142 L 653 142 L 654 141 L 654 141 L 656 141 L 658 140 L 658 140 L 660 140 L 660 139 L 660 139 L 661 139 L 661 139 L 662 138 L 662 138 L 662 138 L 662 137 L 662 137 L 662 137 L 662 136 L 663 136 L 663 136 L 663 136 L 663 135 L 663 135 L 663 135 L 664 134 L 664 134 L 665 134 L 666 133 L 666 133 L 667 133 L 667 132 L 668 132 L 668 132 L 669 132 L 671 131 L 672 131 L 672 131 L 672 130 L 672 130 L 674 130 L 675 130 L 676 129 L 677 129 L 677 129 L 678 128 L 678 128 L 678 128 L 682 127 L 684 127 L 687 127 L 688 126 L 689 126 L 690 126 L 691 126 L 691 125 L 691 125 L 691 125 L 692 124 L 692 124 L 693 124 L 693 124 L 694 123 L 696 123 L 696 123 L 696 122 L 696 122 L 696 122 L 696 121 L 696 121 L 696 121 L 696 121 L 696 120 L 696 120 L 696 120 L 696 119 L 696 119 L 696 119 L 696 118 L 696 118 L 697 118 L 697 118 L 697 117 L 697 117 L 697 117 L 697 116 L 697 116 L 698 116 L 698 115 L 698 115 L 699 115 L 699 115 L 699 114 L 699 114 L 699 114 L 699 113 L 700 113 L 701 113 L 703 112 L 703 112 L 703 112 L 704 112 L 704 111 L 705 111 L 705 111 L 707 110 L 708 110 L 709 110 L 709 109 L 709 109 L 709 109 L 709 109 L 709 108 L 709 108 L 711 108 L 711 107 L 711 107 L 714 107 L 716 106 L 717 106 L 719 106 L 720 106 L 721 105 L 721 105 L 721 105 L 721 104 L 722 104 L 722 104 L 722 103 L 723 103 L 724 103 L 724 103 L 724 102 L 724 102 L 724 102 L 724 101 L 724 101 L 724 101 L 725 100 L 725 100 L 725 100 L 725 100 L 727 99 L 727 99 L 727 99 L 728 98 L 728 98 L 728 98 L 729 97 L 729 97 L 729 97 L 729 97 L 730 96 L 731 96 L 731 96 L 735 95 L 735 95 L 736 95 L 739 94 L 739 94 L 740 94 L 743 94 L 743 93 L 744 93 L 747 93 L 751 92 L 752 92 L 753 92 L 755 91 L 757 91 L 757 91 L 757 91 L 759 90 L 759 90 L 760 90 L 761 89 L 762 89 L 763 89 L 764 88 L 764 88 L 764 88 L 765 88 L 765 87 L 766 87 L 769 87 L 769 86 L 770 86 L 771 86 L 771 85 L 772 85 L 773 85 L 774 85 L 774 84 L 774 84 L 774 84 L 775 83 L 776 83 L 776 83 L 777 82 L 778 82 L 778 82 L 778 82 L 779 81 L 780 81 L 780 81 L 780 80 L 781 80 L 781 80 L 781 79 L 781 79 L 781 79 L 781 79 L 782 78 L 784 78 L 785 78 L 785 77 L 786 77 L 789 77 L 789 76 L 790 76 L 791 76 L 793 76 L 795 75 L 797 75 L 798 75 L 800 74 L 800 74 L 801 74 L 804 73 L 805 73 L 805 73 L 805 73 L 805 72 L 806 72 L 806 72 L 807 71 L 808 71 L 809 71 L 809 70 L 810 70 L 810 70 L 815 70 L 816 69 L 817 69 L 818 69 L 820 68 L 821 68 L 821 68 L 822 67 L 822 67 L 822 67 L 823 67 L 824 66 L 824 66 L 825 66 L 825 65 L 825 65 L 826 65 L 826 64 L 827 64 L 828 64 L 830 64 L 831 63 L 835 63 L 836 63 L 836 62 L 837 62 L 838 62 L 838 61 L 838 61 L 838 61 L 841 61 L 842 60 L 844 60 L 844 60 L 844 59 L 844 59 L 846 59 L 847 58 L 849 58 L 849 58 L 849 58 L 850 57 L 850 57 L 850 57 L 850 56 L 852 56 L 852 56 L 852 55 L 854 55 L 854 55 L 855 55 L 855 54 L 855 54 L 856 54 L 856 53 L 856 53 L 859 53 L 863 52 L 864 52 L 867 52 L 868 52 L 870 51 L 870 51 L 871 51 L 872 50 L 873 50 L 873 50 L 875 49 L 876 49 L 877 49 L 877 49 L 881 48 L 885 48 L 885 48 L 885 47 L 886 47 L 886 47 L 888 46 L 888 46 L 888 46 L 896 46 L 899 45 L 899 45 L 900 45 L 902 44 L 904 44 L 906 44 L 907 43 L 907 43 L 908 43 L 909 43 L 914 42 L 915 42 L 916 42 L 917 41 L 920 41 L 920 41 L 920 40 L 920 40 L 920 40 L 921 40 L 921 39 L 921 39 L 923 39 L 925 38 L 926 38 L 926 38 L 926 37 L 927 37 L 929 37 L 933 37 L 934 36 L 935 36 L 936 36 L 937 35 L 937 35 L 937 35 L 937 34 L 937 34 L 937 34" stroke-width="2" class="series"></path><path d="M 937 346 L 937.000000 15.000000" stroke-width="2" /><path d="M 937 346 L 937.000000 15.000000" stroke-width="2"></path><path stroke-width="2" d="M 937 346 L 942 346" /><path stroke-width="2" d="M 937 346 L 942 346"></path><text xmlns="http://www.w3.org/2000/svg" x="947" y="352">0</text><path stroke-width="2" d="M 937 307 L 942 307" /><path stroke-width="2" d="M 937 307 L 942 307"></path><text xmlns="http://www.w3.org/2000/svg" x="947" y="313">130</text><path stroke-width="2" d="M 937 271 L 942 271" /><path stroke-width="2" d="M 937 271 L 942 271"></path><text xmlns="http://www.w3.org/2000/svg" x="947" y="277">250</text><path stroke-width="2" d="M 937 235 L 942 235" /><path stroke-width="2" d="M 937 235 L 942 235"></path><text x="947" y="241" xmlns="http://www.w3.org/2000/svg">370</text><path stroke-width="2" d="M 937 199 L 942 199" /><path stroke-width="2" d="M 937 199 L 942 199"></path><text xmlns="http://www.w3.org/2000/svg" x="947" y="205">490</text><path stroke-width="2" d="M 937 160 L 942 160" /><path stroke-width="2" d="M 937 160 L 942 160"></path><text xmlns="http://www.w3.org/2000/svg" x="947" y="166">620</text><path stroke-width="2" d="M 937 124 L 942 124" /><path stroke-width="2" d="M 937 124 L 942 124"></path><text x="947" y="130" xmlns="http://www.w3.org/2000/svg">740</text><path stroke-width="2" d="M 937 88 L 942 88" /><path d="M 937 88 L 942 88" stroke-width="2"></path><text xmlns="http://www.w3.org/2000/svg" x="947" y="94">860</text><path stroke-width="2" d="M 937 52 L 942 52" /><path d="M 937 52 L 942 52" stroke-width="2"></path><text xmlns="http://www.w3.org/2000/svg" x="947" y="58">980</text><path stroke-width="2" d="M 937 16 L 942 16" /><path d="M 937 16 L 942 16" stroke-width="2"></path><text xmlns="http://www.w3.org/2000/svg" x="947" y="22">1100</text><text xmlns="http://www.w3.org/2000/svg" x="987" y="175" transform="rotate(90.00,987,175)">Stargazers</text><path stroke-width="2" d="M 57.000000 346.000000 L 937 346" /><path stroke-width="2" d="M 57.000000 346.000000 L 937 346"></path><path d="M 58 346 L 58 351" stroke-width="2" /><path d="M 58 346 L 58 351" stroke-width="2"></path><text xmlns="http://www.w3.org/2000/svg" x="25" y="368">2023-04-02</text><path stroke-width="2" d="M 156 346 L 156 351" /><path stroke-width="2" d="M 156 346 L 156 351"></path><text xmlns="http://www.w3.org/2000/svg" x="123" y="368">2023-07-07</text><path stroke-width="2" d="M 254 346 L 254 351" /><path stroke-width="2" d="M 254 346 L 254 351"></path><text xmlns="http://www.w3.org/2000/svg" x="221" y="368">2023-10-11</text><path stroke-width="2" d="M 352 346 L 352 351" /><path stroke-width="2" d="M 352 346 L 352 351"></path><text xmlns="http://www.w3.org/2000/svg" x="319" y="368">2024-01-16</text><path stroke-width="2" d="M 449 346 L 449 351" /><path d="M 449 346 L 449 351" stroke-width="2"></path><text xmlns="http://www.w3.org/2000/svg" x="416" y="368">2024-04-21</text><path stroke-width="2" d="M 547 346 L 547 351" /><path stroke-width="2" d="M 547 346 L 547 351"></path><text y="368" xmlns="http://www.w3.org/2000/svg" x="514">2024-07-26</text><path stroke-width="2" d="M 645 346 L 645 351" /><path stroke-width="2" d="M 645 346 L 645 351"></path><text xmlns="http://www.w3.org/2000/svg" x="612" y="368">2024-10-30</text><path stroke-width="2" d="M 742 346 L 742 351" /><path stroke-width="2" d="M 742 346 L 742 351"></path><text xmlns="http://www.w3.org/2000/svg" x="709" y="368">2025-02-03</text><path stroke-width="2" d="M 840 346 L 840 351" /><path stroke-width="2" d="M 840 346 L 840 351"></path><text xmlns="http://www.w3.org/2000/svg" x="807" y="368">2025-05-11</text><path stroke-width="2" d="M 937 346 L 937 351" /><path stroke-width="2" d="M 937 346 L 937 351"></path><text xmlns="http://www.w3.org/2000/svg" x="904" y="368">2025-08-15</text><text y="390" xmlns="http://www.w3.org/2000/svg" x="483">Time</text></svg>